<svg xmlns="http://www.w3.org/2000/svg" width="200" height="200" fill="none"><path fill="#FFD93A" d="M4.614 37.58c1.014 1.665 12.907.161 20.734-2.42 7.825-2.582 10.89-4.034 10.326-5.486-.565-1.452-18.314-4.115-18.314-4.115S3.484 35.725 4.614 37.58ZM44.204 55.885a7.273 7.273 0 0 0-5.834-2.663c-2.573.003-5.513 1.073-8.647 3.46a6.626 6.626 0 0 1-4.116 1.469 8.625 8.625 0 0 1-4.166-1.21 11.255 11.255 0 0 1-1.284-.848 8.361 8.361 0 0 1-.335-.27l-.078-.067-.015-.014a1.3 1.3 0 0 0-2.185.973c0 .002.106 6.664.27 14.62.02.98-3.585.654-3.564 1.665.089 4.095-.108 9.591 0 13.333.014.463 3.952 1.001 3.965 1.447.125 4.056.255 7.34.391 8.99.056.827.314 1.627.75 2.333a5.22 5.22 0 0 0 1.478 1.509 10.098 10.098 0 0 0 3.745 1.443c1.983.362 3.997.527 6.013.494 4.353-.008 7.294-.356 9.394-1.237a5.846 5.846 0 0 0 2.488-1.855 5.106 5.106 0 0 0 .952-2.694c.128-1.644.254-4.93.377-8.985.367-12.149.684-31.059.684-31.062a1.305 1.305 0 0 0-.283-.83ZM194.923 92.63c-.803 1.319-10.226.127-16.425-1.918s-8.628-3.195-8.181-4.346c.448-1.15 14.508-3.26 14.508-3.26s10.992 8.054 10.098 9.523ZM181.433 106.63a1.309 1.309 0 0 0-1.424.284v-.001a7.3 7.3 0 0 1-1.25.942 5.427 5.427 0 0 1-2.73.85 4.15 4.15 0 0 1-2.723-1.069 10.5 10.5 0 0 0-6.526-2.822 5.75 5.75 0 0 0-2.617.604 5.418 5.418 0 0 0-1.925 1.645 1.299 1.299 0 0 0-.25.787c0 .001.103 6.637.249 13.903.074 3.633.159 7.423.247 10.622.09 3.203.181 5.796.274 7.101.04.797.292 1.568.729 2.234.358.517.822.951 1.363 1.271a8.592 8.592 0 0 0 3.069 1.025c1.489.22 2.993.32 4.498.299 3.214-.008 5.308-.414 6.796-1.264a4.294 4.294 0 0 0 2.247-3.559c.075-.98.146-2.678.215-4.812.023-.719 9.136-.947 9.159-1.753.107-3.818-.747-7.353-.667-11.584.01-.506-8.117-2.673-8.108-3.165.105-5.727.172-10.318.172-10.32a1.305 1.305 0 0 0-.798-1.218Z"/><path fill="#191C22" d="M67.812 81.066c7.09 5.98 21.619 5.371 26.666-5.62 5.047-10.992 3.805-24.346-2.632-27.575-6.438-3.228-22.202.363-27.528 13.318-4.235 10.3-.081 16.863 3.494 19.877Zm16.5-12.366c4.116.685 6.252 5.475 5.64 7.625-.735 2.577-3.13 1.677-7.207 1.014-4.078-.663-7.265-1.224-7.582-3.352-.385-2.59 4.074-6.131 9.149-5.287ZM139.344 94.04c4.406-1.567 10.598-6.253 10.252-17.384-.438-14.001-13.938-22.9-21.098-22.137-7.16.762-13.013 12.83-12.147 24.894.864 12.064 14.255 17.735 22.993 14.627ZM120.47 81.86c.181-2.228 3.864-5.963 7.958-5.159 5.049.992 7.979 5.874 6.71 8.163-1.045 1.882-4.226 1.287-8.277.476-4.05-.811-6.608-.81-6.391-3.48Z"/><path fill="#191C22" d="M85.8 73.969a2.741 2.741 0 1 0-5.395-.978 2.741 2.741 0 0 0 5.394.978ZM130.579 82.091a2.741 2.741 0 1 0-5.394-.978 2.741 2.741 0 0 0 5.394.978ZM102.042 87.773c-.259 1.69-.475 3.39-.588 4.316a28.018 28.018 0 0 1-8.18-2.761 1.299 1.299 0 0 0-1.965 1.132 22.812 22.812 0 0 0 1.097 6.227 14.278 14.278 0 0 0 2.587 4.796 9.31 9.31 0 0 0 5.208 3.143c.745.162 1.506.244 2.269.246a9.963 9.963 0 0 0 5.529-1.692 16.14 16.14 0 0 0 4.875-5.429 20.119 20.119 0 0 0 1.525-3.226 1.3 1.3 0 0 0-1.569-1.677c-.846.174-1.71.248-2.574.222a43.628 43.628 0 0 1-6.238-.53l.024-.2c.109-.884.307-2.428.538-3.96 3.213-.297 7.175-3.664 7.497-6.401a1.707 1.707 0 0 0-.413-1.278c-2.084-2.805-12.084-4.14-13.684-1.658-1.013 1.572.624 5.574 2.892 7.786.355.357.747.673 1.17.944Zm7.659 7.731a1.03 1.03 0 0 1-.028.156c-.159.657-1.208 3.128-7.927 1.88-5.407-1.003-6.18-3.732-6.225-4.366-.007-.094.002-.144.014-.134 5.125 1.604 11.014 2.627 14.166 2.464Z"/><path fill="#191C22" d="M189.704 117.955a14.948 14.948 0 0 0-2.638-1.778c.182-8.48.303-15.896.321-17.01.016-.058.028-.118.036-.178a2.346 2.346 0 0 0-.596-1.52 5.66 5.66 0 0 0-2.254-1.43 16.866 16.866 0 0 0-2.068-.636l.535-1.9a43.416 43.416 0 0 0 9.271 1.306 9.88 9.88 0 0 0 2.55-.27c.374-.095.73-.255 1.05-.471.397-.27.685-.671.811-1.134l.001-.003c.039-.152.058-.308.058-.465a2.3 2.3 0 0 0-.499-1.372 6.26 6.26 0 0 0-1.642-1.412 1.175 1.175 0 0 0-.134-.172l-8.298-7.144.336-1.191c.047-.165.062-.337.043-.508a1.319 1.319 0 0 0-.486-.873 1.295 1.295 0 0 0-.962-.27 1.304 1.304 0 0 0-1.098.946l-.348 1.237-11.433 2.064a1.28 1.28 0 0 0-.153.06 8.123 8.123 0 0 0-1.663.242c-.375.096-.73.256-1.051.473a2.01 2.01 0 0 0-.809 1.133c-.04.153-.06.31-.06.468.013.5.189.98.5 1.372a6.657 6.657 0 0 0 1.846 1.546 27.749 27.749 0 0 0 4.539 2.135 57.877 57.877 0 0 0 5.113 1.656l-.575 2.042c-.227-.036-.442-.075-.676-.108a53.09 53.09 0 0 0-7.144-.457c-1.954.001-3.814.094-5.52.265.261-2.04.392-4.095.393-6.152a56.708 56.708 0 0 0-6.644-26.002 18.411 18.411 0 0 0 4.169-2.954 20.521 20.521 0 0 0 6.331-14.808 18.162 18.162 0 0 0-4.876-12.587 19.23 19.23 0 0 0-14.066-5.834 20.08 20.08 0 0 0-13.762 5.294 18.349 18.349 0 0 0-3.217 4.046 61.858 61.858 0 0 0-20.447-7.707 62.624 62.624 0 0 0-11.18-1 64.911 64.911 0 0 0-10.045.803 18.38 18.38 0 0 0-1.523-4.56 19.622 19.622 0 0 0-7.552-8.11 20.743 20.743 0 0 0-10.626-2.996 18.28 18.28 0 0 0-8.067 1.84 17.844 17.844 0 0 0-7.665 7.253 20.476 20.476 0 0 0-.593 18.907 18.415 18.415 0 0 0 2.28 3.55 58.752 58.752 0 0 0-9.694 11.154c.09-4.906.14-8.138.14-8.14l-.001-.01.002-.01a2.615 2.615 0 0 0-.67-1.697 6.834 6.834 0 0 0-2.711-1.708 29.884 29.884 0 0 0-6.615-1.557 66.692 66.692 0 0 0-8.972-.573 69.068 69.068 0 0 0-7.549.402l-1.073-3.812a62.737 62.737 0 0 0 10.048-3.567 19.356 19.356 0 0 0 3.491-2.039c.42-.315.798-.685 1.122-1.1.348-.434.546-.97.563-1.527 0-.17-.022-.34-.064-.505l-1.259.325 1.259-.325a2.197 2.197 0 0 0-.89-1.238 4.694 4.694 0 0 0-1.904-.698c-.454-.072-.912-.12-1.371-.142a1.231 1.231 0 0 0-.207-.081l-14.647-2.644c-.003-.01 0-.019-.002-.028l-.49-1.738a1.3 1.3 0 1 0-2.502.705l.482 1.712-10.64 9.16a1.244 1.244 0 0 0-.174.225c-.321.206-.625.413-.894.621-.42.315-.798.685-1.121 1.1a2.568 2.568 0 0 0-.563 1.528c0 .17.021.34.064.505.139.506.454.945.889 1.238a4.693 4.693 0 0 0 1.904.696c.808.128 1.626.187 2.444.177a55.22 55.22 0 0 0 11.942-1.717l.99 3.519c-.943.154-1.829.33-2.645.524a16.332 16.332 0 0 0-4.124 1.48 5.086 5.086 0 0 0-1.377 1.082 2.615 2.615 0 0 0-.67 1.697c.008.075.023.148.044.22.023 1.457.179 11.015.414 21.85a19.427 19.427 0 0 0-5.179 9.786l-.002.007-.002.007a39.25 39.25 0 0 0-.857 4.75c-.016.034-.043.062-.056.098a68.778 68.778 0 0 0-4.19 22.713 44.447 44.447 0 0 0 3.347 17.487 36.304 36.304 0 0 0 10.84 14.252c4.109 3.282 10.047 6.015 15 7.985a122.155 122.155 0 0 0 8.187 2.913c-.317 1.254-.61 2.501-.877 3.742a122.283 122.283 0 0 0-2.278 15.788 68.564 68.564 0 0 0-.187 2.366c-.002.035.013.064.014.098a166.3 166.3 0 0 0-.326 10.511c0 2.019.03 3.879.068 5.549a1.3 1.3 0 1 0 2.6-.057c-.038-1.66-.068-3.5-.068-5.492 0-3.203.09-6.817.344-10.686a15.74 15.74 0 0 1 2.973-7.299c2.615-3.593 6.978-6.823 13.296-9.153 6.314-2.331 14.569-3.752 24.87-3.752 4.846.016 9.688.294 14.504.834 18.756 2.042 31.303 6.129 39.324 10.584 8.032 4.45 11.493 9.277 12.319 12.642.058.212.171.405.326.561l.04.279a728.968 728.968 0 0 1 1.359 10.209l.101.813a1.3 1.3 0 0 0 2.581-.313 700.87 700.87 0 0 0-2.572-18.647c-.18-1.438-.394-3.041-.648-4.765.949.053 2.449.115 4.403.115 7.186-.005 20.246-.818 32.483-6.007a23.933 23.933 0 0 0 8.338-5.621 18.574 18.574 0 0 0 4.071-6.904 22.418 22.418 0 0 0 1.169-7.051 22.02 22.02 0 0 0-3.119-11.129 16.151 16.151 0 0 0-4.978-7.903Zm2.607-25.746A40.888 40.888 0 0 1 183.745 91l.741-2.63a46.073 46.073 0 0 1 6.926 2.504c.772.351 1.511.772 2.206 1.258-.434.054-.87.08-1.307.077Zm-7.928-7.984 2.489 2.144a64.53 64.53 0 0 0-5.852-1.537l3.363-.607Zm-10.49 3.513c-.772-.35-1.51-.772-2.205-1.257.433-.055.869-.08 1.306-.077 3.031.11 6.04.55 8.976 1.31l-.745 2.643a47.015 47.015 0 0 1-7.332-2.619Zm-140.43-57.18a31.936 31.936 0 0 1-5.233 2.458c-1.926.736-4.161 1.455-6.562 2.108l-1.126-3.997a53.893 53.893 0 0 1 11.753-1.747 9.811 9.811 0 0 1 2.434.233 7.49 7.49 0 0 1-1.266.946Zm-15.642-3.952 6.159 1.111a80.793 80.793 0 0 0-5.046 1.128 79.146 79.146 0 0 0-5.676 1.689l4.563-3.928ZM7.912 37.39a9.814 9.814 0 0 1-2.433-.233 7.488 7.488 0 0 1 1.266-.945 31.941 31.941 0 0 1 5.234-2.458 69.752 69.752 0 0 1 6.048-1.969l1.122 3.985a52.735 52.735 0 0 1-11.237 1.62Zm32.628 72.204c.18-.044.346-.091.517-.137.081-.001.162-.011.24-.028.179-.058.35-.132.526-.195a9.898 9.898 0 0 0 1.856-.77 5.08 5.08 0 0 0 .616-.411 9.77 9.77 0 0 0 1.725-1.312 7.932 7.932 0 0 0 1.688-2.408 44.875 44.875 0 0 0 8.17 8.784 17.647 17.647 0 0 0 3.586 2.326 20.895 20.895 0 0 0-3.226 1.39 1.282 1.282 0 0 0-.138.011l-.005.002h-.001a19.239 19.239 0 0 1-4.676.458c-.393 0-.81-.008-1.252-.025a15.676 15.676 0 0 1-3.888-.829 24.225 24.225 0 0 1-7.1-3.638 10.678 10.678 0 0 1-2.418-2.524c-.01-.018-.018-.036-.03-.053a32.515 32.515 0 0 0 3.81-.641Zm116.657 8.581c.092 4.09.197 8.317.31 12.133a68.23 68.23 0 0 1-11.941 1.177 17.612 17.612 0 0 1-3.244-.217 26.603 26.603 0 0 1-4.306-1.293 14.248 14.248 0 0 1-1.27-.584l-.05-.028-.007-.004-.001-.001a1.218 1.218 0 0 0-.14-.048 1.336 1.336 0 0 0-.23-.081c-.3-.245-.586-.498-.906-.732-.313-.23-.647-.45-.979-.67.213.006.426.028.639.028a18.855 18.855 0 0 0 7.835-1.689 42.418 42.418 0 0 0 14.055-9.875c.066-.071.125-.146.189-.217l.046 2.101Zm14.93-21.242c2.378-.01 4.755.152 7.11.483l-3.178 11.287a5.443 5.443 0 0 0 2.7-.848c.108-.065.198-.129.294-.193l2.749-9.76a10.7 10.7 0 0 1 2.58.912c.147.078.283.174.405.287a3402.994 3402.994 0 0 1-.299 16.008 12.56 12.56 0 0 0-2.366-.476 11.086 11.086 0 0 0-1.035-.052 9.148 9.148 0 0 0-1.567.149 6.246 6.246 0 0 0-2.353.872 4.208 4.208 0 0 0-1.353 1.408 3.914 3.914 0 0 0-.512 1.963c0 .099.003.198.01.296.046.67.201 1.328.459 1.949a8.88 8.88 0 0 1 2.515-.746 13.635 13.635 0 0 1 1.998-.157c2.655.035 5.279.574 7.734 1.587a1.298 1.298 0 0 1-.033 2.398 1.301 1.301 0 0 1-.992-.009 18.499 18.499 0 0 0-6.709-1.376c-.196-.001-.387.009-.578.018a8.29 8.29 0 0 0-2.274.389 3.67 3.67 0 0 0-1.806 1.212c-.236.319-.409.68-.511 1.064a5.945 5.945 0 0 0-.084.979l.002.143c.029.802.225 1.588.576 2.31.182.377.391.739.628 1.084a6.396 6.396 0 0 1 1.02-.672 7.65 7.65 0 0 1 1.313-.528 10.723 10.723 0 0 1 3.173-.459c1.142.004 2.279.141 3.39.408.942.211 1.85.552 2.699 1.013a1.293 1.293 0 0 1 .647 1.296 1.299 1.299 0 0 1-1.944.957 7.976 7.976 0 0 0-2.011-.738 12.063 12.063 0 0 0-2.781-.336 9.215 9.215 0 0 0-1.379.101c-.403.057-.8.151-1.186.28a3.908 3.908 0 0 0-1.788 1.168 3.432 3.432 0 0 0-.665 1.33 1.234 1.234 0 0 1-.156.315 5.972 5.972 0 0 0-.058.72c0 .142.006.284.018.427a4.599 4.599 0 0 0 1.372 3.019c.296.273.625.509.979.7a6.937 6.937 0 0 0 1.797.689c.175.04.349.072.565.118.048.01.11.026.161.038a7.789 7.789 0 0 1 2.29.859c-.037.614-.075 1.14-.112 1.541a4.45 4.45 0 0 1-.682 2.1 4.275 4.275 0 0 0-.589-.401 7.943 7.943 0 0 0-1.418-.604 1.302 1.302 0 0 0-1.633.833 1.297 1.297 0 0 0 .823 1.638c.206.066.407.143.605.23a4.78 4.78 0 0 1-.308.125c-1.102.37-2.24.623-3.394.755a37.22 37.22 0 0 1-4.858.301 31.773 31.773 0 0 1-7.019-.691c-.303-.072-.573-.15-.823-.229a9.778 9.778 0 0 1-.678-.279c.084-.037.169-.073.267-.109a16.573 16.573 0 0 1 3.394-.755 37.224 37.224 0 0 1 4.859-.301 1.283 1.283 0 0 0 1.123-.684 1.26 1.26 0 0 0 .176-.616 1.3 1.3 0 0 0-1.299-1.3 35.297 35.297 0 0 0-7.171.664c-.152.033-.308.064-.454.099-.89.19-1.75.5-2.556.922a4.283 4.283 0 0 0-.559.383 4.102 4.102 0 0 1-.748-2.081c-.154-1.653-.312-5.242-.455-9.63-.216-6.59-.404-15.033-.539-21.826a3149.433 3149.433 0 0 1-.213-11.778l.007-.008a4.234 4.234 0 0 1 1.372-.728 22.768 22.768 0 0 1 4.687-1.046 50.824 50.824 0 0 1 6.629-.41ZM63.465 43.623a63.828 63.828 0 0 1 39.843-14.129c3.594-.002 7.18.32 10.716.959 14.143 2.562 26.757 10.466 35.822 21.048 9.067 10.58 14.558 23.812 14.554 36.945 0 2.177-.154 4.35-.462 6.505-.714.12-1.389.252-2.012.401a13.207 13.207 0 0 0-3.338 1.2 4.297 4.297 0 0 0-1.163.917 2.34 2.34 0 0 0-.595 1.52l.002.01-.002.01c0 .002.09 5.739.239 13.093a34.31 34.31 0 0 1-2.019 2.428 39.835 39.835 0 0 1-13.204 9.262 16.25 16.25 0 0 1-6.774 1.463 25.078 25.078 0 0 1-6.83-1.089c-7.229-2.03-15.876-6.573-28.445-8.804a94.362 94.362 0 0 0-16.715-1.522c-6.567.002-11.403.696-15.282.691a18 18 0 0 1-5.373-.682 13.953 13.953 0 0 1-4.889-2.733 40.968 40.968 0 0 1-9.046-10.341c.182-2.43.355-6.545.518-11.511.292-8.936.544-20.535.716-29.384a55.854 55.854 0 0 1 13.74-16.258Zm-47.14 1.98a25.405 25.405 0 0 1 5.23-1.292l3.893 13.826c.054.002.105.014.16.014a6.32 6.32 0 0 0 2.41-.48L24.16 43.978a67.176 67.176 0 0 1 6.835-.338c4.095-.054 8.184.35 12.19 1.205 1.197.251 2.357.66 3.448 1.213.254.13.484.303.682.508l.047.065-.032 1.924c-.075 4.478-.274 15.795-.542 26.94a1488.51 1488.51 0 0 1-.447 15.713c-.16 4.604-.335 8.307-.506 10.147a5.43 5.43 0 0 1-1.253 3.086 5.792 5.792 0 0 0-1.933-1.161 22.463 22.463 0 0 0-4.972-1.172c-.11-.015-.229-.026-.34-.04a50.166 50.166 0 0 0-6.342-.387 1.3 1.3 0 1 0 0 2.6c3.003-.039 6 .256 8.938.882.855.179 1.683.469 2.463.863.05.027.075.049.116.075-.506.268-1.032.499-1.572.689a36.569 36.569 0 0 1-9.945 1.157 40.31 40.31 0 0 1-8.939-.882 10.048 10.048 0 0 1-2.463-.862c-.059-.034-.093-.061-.14-.091a6.276 6.276 0 0 1 1.393-.611 1.317 1.317 0 0 0 .762-.647 1.305 1.305 0 0 0-.172-1.441 1.3 1.3 0 0 0-1.4-.383 8.162 8.162 0 0 0-2.206 1.04 3.881 3.881 0 0 0-.473.407 5.588 5.588 0 0 1-1.104-2.772c.095-.983.376-1.94.83-2.818a7.112 7.112 0 0 1 1.543-1.961 9.365 9.365 0 0 1 1.735-1.232c.255-.141.505-.261.753-.377.354-.165.698-.314 1.015-.437.542-.21.99-.356 1.373-.512a11.78 11.78 0 0 0 3.03-1.751 6.557 6.557 0 0 0 1.378-1.548c.412-.65.667-1.387.747-2.153.007-.067.006-.13.01-.195a1.253 1.253 0 0 1-.084-.316 4.67 4.67 0 0 0-.685-2.247 3.887 3.887 0 0 0-2.05-1.559c-.2-.07-.405-.13-.612-.179a8.73 8.73 0 0 0-2.06-.224c-1.987.057-3.956.4-5.845 1.017a1.3 1.3 0 1 1-.749-2.49 23.22 23.22 0 0 1 6.594-1.127 10.48 10.48 0 0 1 3.55.556c.49.174.96.4 1.402.676.401.25.773.543 1.109.875.29.291.551.61.779.953a9.56 9.56 0 0 0 1.307-1.171 5.761 5.761 0 0 0 1.427-2.633c.078-.367.117-.742.117-1.117a5.808 5.808 0 0 0-.447-2.19 3.805 3.805 0 0 0-.796-1.01 6.684 6.684 0 0 0-1.928-1.185 11.556 11.556 0 0 0-1.863-.574 17.114 17.114 0 0 0-3.869-.435 18.373 18.373 0 0 0-5.793.9 1.3 1.3 0 0 1-.84-2.46 20.94 20.94 0 0 1 6.633-1.04 19.307 19.307 0 0 1 5.114.654l.066.016c.817.227 1.609.537 2.364.924.234-.776.353-1.581.352-2.391 0-.347-.02-.693-.059-1.037a4.871 4.871 0 0 0-1.328-2.883 7.364 7.364 0 0 0-3.688-1.898 21.161 21.161 0 0 0-3.363-.445 12.565 12.565 0 0 0-.904-.03c-.748.002-1.494.06-2.232.174-.88.137-1.747.353-2.589.645a14.19 14.19 0 0 0-2.653 1.231 3830.305 3830.305 0 0 1-.376-20.127 4.472 4.472 0 0 1 1.657-.97Z"/></svg>