<svg xmlns="http://www.w3.org/2000/svg" width="200" height="200" fill="none"><path fill="#191C22" d="M148.977 159.98c-2.171-2.378-7.882-2.844-18.525-1.515a61.52 61.52 0 0 1-6.236.471c7.208-2.427 10.032-6.386 9.937-13.105-.133-9.264-5.993-33.223-6.463-35.126a341.062 341.062 0 0 0-2.294-20.528c5.931.903 10.518 2.114 13.951 3.697a1.297 1.297 0 0 0 1.725-.636 1.3 1.3 0 0 0-.637-1.725c-3.809-1.756-8.877-3.071-15.437-4.024l-.207-1.335c3.869-.1 10.987-.025 16.658.856a1.299 1.299 0 1 0 .399-2.568c-6.019-.936-13.593-.99-17.475-.877-.082-.493-.165-.971-.247-1.451 4.537-1.263 12.181-2.51 16.919-2.932a1.3 1.3 0 0 0 1.18-1.41c-.065-.716-.713-1.25-1.41-1.18-4.759.425-12.326 1.638-17.143 2.951-2.581-14.2-5.137-21.715-5.178-21.832a1.298 1.298 0 0 0-2.08-.557c-3.68 3.19-8.773 8.915-9.862 10.152-6.81-.46-12.622-.3-15.152-.185-1.198-1.335-5.663-6.246-9.212-9.323a1.299 1.299 0 0 0-2.096.606c-.033.11-2.108 7.097-4.61 21.203-4.787-1.337-12.501-2.583-17.318-3.015a1.29 1.29 0 0 0-1.41 1.179 1.301 1.301 0 0 0 1.178 1.411c4.81.43 12.619 1.717 17.103 3.003-.078.457-.156.917-.234 1.388-3.786-.125-11.54-.088-17.67.869a1.299 1.299 0 1 0 .4 2.568c5.773-.9 13.053-.959 16.846-.849l-.203 1.29c-6.661.956-11.791 2.283-15.637 4.063a1.3 1.3 0 0 0 1.092 2.36c3.464-1.603 8.11-2.824 14.13-3.732a524.609 524.609 0 0 0-2.809 21.852c-9.767 14.227-11.348 33.746-10.043 41.88-.827.895-2.148 2.731-1.237 4.608.801 1.649 3.108 1.43 4.194 1.222.777.189 1.824.284 2.885.284 1.022 0 2.046-.092 2.872-.266.782.681 1.648 1.081 2.437 1.218 5.231 1.096 12.106 1.664 19.678 1.664 3.276 0 6.682-.107 10.142-.322 3.275 2.638 8.499 5.457 18.69 6.741a88.33 88.33 0 0 0 10.889.698c9.456 0 17.527-1.733 18.407-5.759.352-1.611.054-2.95-.887-3.982Zm-1.653 3.427c-.473 2.162-9.966 5.109-26.432 3.036-13.166-1.658-17.41-5.968-20.22-8.82-.333-.337-.647-.656-.952-.949a1.3 1.3 0 1 0-1.8 1.875c.288.278.585.579.9.899l.37.375c-10.287.487-19.874-.021-26.643-1.436-1.178-.205-2.464-1.523-2.68-4.005-.62-7.145 1.488-21.069 13.915-22.623a1.3 1.3 0 1 0-.322-2.58c-2.206.276-4.13.879-5.808 1.727.01-1.781.083-4.573.405-6.983a1.298 1.298 0 0 0-1.116-1.46 1.294 1.294 0 0 0-1.46 1.116c-.488 3.648-.44 7.948-.42 8.977-6.995 5.467-8.313 15.959-7.783 22.051.091 1.055.324 1.959.648 2.731-1.343.105-2.92.019-3.627-.209a1.338 1.338 0 0 0-.693-.027c-.57.132-1.303.176-1.635.102-.045-.501.617-1.403 1.184-1.896.355-.306.52-.779.428-1.239-1.444-7.289-.11-26.611 9.524-40.625.172-.17.287-.39.344-.639.02-.069.04-.136.049-.207 3.115-28.96 7.094-45.91 8.532-51.433 3.314 3.114 6.959 7.162 7.612 7.892.225.444.685.745 1.22.692 2.428-.126 11.084-.46 20.5.594a1.3 1.3 0 0 0 .289-2.584 111.4 111.4 0 0 0-1.847-.19c1.656-1.834 4.4-4.801 6.827-7.099 1.633 5.509 6.209 22.827 8.475 50.551.003.038.023.07.029.107.006.034-.003.066.005.1.062.254 6.28 25.492 6.411 34.641.077 5.402-1.072 10.063-15.919 12.379-3.108-.683-4.405-1.617-4.457-1.656a1.3 1.3 0 0 0-1.625 2.03c.223.179 5.618 4.373 21.223 2.423 11.616-1.451 15.262-.426 16.282.688.237.261.483.686.267 1.674Z"/><path fill="#FFE632" d="M57.005 52.087c6.651.445 8.05 8.596 4.97 10.532-2.963 1.862-8.617-2.225-4.97-10.532Z"/><path fill="#FFE632" d="M56.082 52.583a3.14 3.14 0 1 0 0-6.28 3.14 3.14 0 0 0 0 6.28Z"/><path fill="#191C22" d="M68.234 52.502c-2.016-1.592-4.967-2.433-7.786-2.34.349-2.12-.873-4.243-2.975-4.936a4.408 4.408 0 0 0-3.39.252 4.414 4.414 0 0 0-2.218 2.575 4.408 4.408 0 0 0 .252 3.39c.262.519.617.97 1.041 1.34-2.072 1.69-3.325 3.991-3.84 5.897-.562 2.086-.373 3.976.518 5.186.592.802 1.41 1.232 2.304 1.232.2 0 .403-.021.608-.065 1.2-.254 2.407-1.307 3.42-2.837.246.307.51.581.787.82 1.028.886 2.257 1.344 3.443 1.344.802 0 1.585-.211 2.268-.64 1.295-.815 2.044-2.373 2.144-4.197.362.044.705.068 1.018.068 1.427 0 2.37-.384 2.868-.666 1.03-.58 1.66-1.52 1.688-2.511.037-1.399-.727-2.788-2.15-3.912Zm-13.9-3.634a1.842 1.842 0 0 1 2.324-1.173 1.844 1.844 0 0 1 1.172 2.325c-.154.466-.48.845-.919 1.066-.44.221-.94.26-1.405.104a1.827 1.827 0 0 1-1.067-.918 1.833 1.833 0 0 1-.105-1.404Zm-2.124 13.62c-.084.017-.139.03-.28-.165-.305-.412-.514-1.437-.1-2.965a9.076 9.076 0 0 1 2.937-4.524c-.343 1.722-.294 3.236.023 4.514-.857 1.86-1.922 3.002-2.58 3.14Zm9.072-.97c-.718.452-1.776.264-2.628-.47-1.355-1.169-2.215-3.73-.824-7.531l.013-.006c3.072.648 3.991 3.32 4.21 4.187.414 1.641.083 3.284-.77 3.82Zm5.932-4.758c-.322.137-1.202.382-2.704.082-.398-1.419-1.201-2.887-2.466-4.027 1.836.212 3.515.888 4.58 1.729.752.593 1.175 1.25 1.163 1.78-.012.047-.147.259-.573.436Z"/></svg>