<svg xmlns="http://www.w3.org/2000/svg" width="200" height="200" fill="none"><path fill="#FFD93A" d="M112.251 96.023c-3.854-.419-20.023.252-20.023.252l-2.85 2.931 2.347 3.017s.252.335 3.686.921c3.436.587 1.508 6.703 1.508 6.703s2.766.251 3.268 2.765c.502 2.513-1.424 4.607 0 5.362 1.424.754 4.105 1.089 10.388.335 6.284-.754 6.954-5.027 7.122-10.473.167-5.446-1.592-11.394-5.446-11.813Z"/><path fill="#191C22" d="M78.227 89.511c.172-.462.225-.918.226-1.354-.005-.935-.244-1.807-.54-2.528a5.005 5.005 0 0 0-.52-.972 2.39 2.39 0 0 0-.4-.444 1.673 1.673 0 0 0-.358-.233 1.464 1.464 0 0 0-.635-.146 1.407 1.407 0 0 0-.67.17 1.324 1.324 0 0 0-.298.223c-.214.22-.315.397-.414.568-.14.254-.239.49-.313.678-.016.039-.024.063-.037.097-.685.79-1.034 1.709-1.027 2.553.003.832.282 1.553.69 2.105.207.277.448.517.745.711.296.19.659.35 1.13.354.137 0 .281-.03.425-.066l.002.013c.027-.006.052-.019.08-.026.012-.004.024-.001.037-.005l-.002-.006a2.78 2.78 0 0 0 .934-.427c.466-.336.777-.807.945-1.265ZM109.121 90.687c.117.032.22.046.342.046.542-.009.912-.222 1.197-.436.425-.334.719-.748.95-1.237a4.024 4.024 0 0 0 .373-1.682c.013-.91-.381-1.944-1.21-2.747-.054-.08-.158-.233-.285-.41a12.748 12.748 0 0 0-.296-.4 4.451 4.451 0 0 0-.346-.401 1.337 1.337 0 0 0-.302-.225 1.406 1.406 0 0 0-.666-.168c-.25 0-.452.064-.603.132a1.732 1.732 0 0 0-.555.406c-.212.23-.348.452-.482.7a6.376 6.376 0 0 0-.694 2.832c.001.67.123 1.407.537 2.097.406.69 1.146 1.26 2.04 1.493ZM115.758 96.36c-.645-.714-1.428-1.266-2.359-1.473-.516-.112-1.141-.185-1.901-.248-2.263-.182-5.675-.233-8.98-.234l-1.128.002c-.056-.003-.11-.02-.167-.019-.036 0-.067.018-.102.02-2.552.011-4.91.049-6.42.078.154-.328.237-.538.247-.563a1.3 1.3 0 0 0-2.423-.941 11.131 11.131 0 0 1-1.485 2.515c-.476.604-1.057 1.179-1.7 1.581-.647.405-1.334.645-2.135.647-.375 0-.781-.054-1.23-.185a1.3 1.3 0 1 0-.73 2.496v-.001c.673.197 1.331.29 1.96.29.38.001.744-.04 1.097-.102.04.063.062.134.114.192v-.001l2.43 2.682a1.3 1.3 0 0 0 1.136.414v.002c.004-.001.16-.02.4-.02.52-.007 1.397.108 2.007.525.31.209.575.476.79.897.214.423.381 1.023.388 1.908v-.008c0 .688.026 1.36.07 2.017-.567.256-1.11.67-1.513 1.246-.629.887-.831 1.794-.959 2.507-.13.728-.214 1.297-.506 1.96-1.24 2.809-1.1 2.272-4.255 9.796-1.722 4.111-4.558 8.874-8.804 12.609a1.292 1.292 0 0 0-1.574-.82c-1.302.374-2.424 1.153-3.327 2.183-.734.839-1.334 1.85-1.839 2.984-3.21 1.421-6.952 2.282-11.33 2.286-1.91 0-3.942-.166-6.104-.524a1.3 1.3 0 1 0-.425 2.565c2.294.38 4.468.559 6.528.559 3.8.003 7.2-.614 10.227-1.667-.628 2.468-.972 5.323-1.069 8.436a67.133 67.133 0 0 0-.032 2.067c.003 4.97.57 9.765 1.673 14.108a44.404 44.404 0 0 1-12.235 1.698c-2.176 0-4.415-.151-6.714-.468a1.3 1.3 0 1 0-.355 2.576 51.86 51.86 0 0 0 7.069.492 46.883 46.883 0 0 0 12.95-1.8c.672 2.11 1.47 4.101 2.428 5.899 1.61 3.009 3.634 5.529 6.105 7.313 2.466 1.784 5.393 2.807 8.641 2.802 3.875.009 7.336-1.582 10.189-4.351a22.925 22.925 0 0 0 2.43-2.798c.339.022.678.05 1.019.05a14.84 14.84 0 0 0 6.975-1.708 10.164 10.164 0 0 0 3.219-2.641c1.305-1.624 2.133-3.643 2.639-5.986.507-2.347.7-5.037.701-8.092-.002-7.365-1.131-16.883-2.082-28.638-.043-.53-.4-.957-.872-1.12-.001-.01.004-.017.004-.027l-.584-13.243c.74-.238 1.38-.696 1.908-1.273.984-1.084 1.699-2.59 2.214-4.418.51-1.827.798-3.982.799-6.345-.002-3.153-.519-5.895-1.397-8.008-.442-1.056-.974-1.96-1.621-2.68Zm-42.503 58.658c0-.66.01-1.322.031-1.987.118-3.9.659-7.308 1.59-9.812a28.768 28.768 0 0 0 6.258-4.148c4.745-4.112 7.806-9.289 9.668-13.725 3.157-7.526 2.96-6.864 4.235-9.752.45-1.018.567-1.903.686-2.543.122-.656.22-1.031.528-1.478.127-.178.273-.291.47-.381a1.78 1.78 0 0 1 .709-.137c.256-.001.52.048.731.125.212.074.363.18.408.229.296.297.456.558.557.807.099.249.14.495.14.774.004.51-.162 1.125-.38 1.764-.108.321-.225.647-.325.991-.098.345-.189.707-.192 1.149 0 .27.04.579.172.893.19.479.617.888 1.057 1.093.444.214.901.299 1.415.34.008 0 .015-.004.023-.003.048.008.089.034.139.037.015.001 3.637.228 7.171.228.964 0 1.912-.018 2.795-.062.087.36.185.881.182 1.396 0 .311-.034.612-.105.867-.114.388-.271.644-.565.861-.297.212-.818.423-1.788.425-.182 0-.381-.008-.597-.025a1.3 1.3 0 0 0-1.172 2.031c.013.02.177.272.324.621.15.347.272.787.269 1.15a1.331 1.331 0 0 1-.178.702c-.128.212-.347.455-.834.71-.587.303-.85.993-.618 1.612h-.001c.012.02.266.768.26 1.503 0 .264-.03.522-.094.744-.102.338-.244.579-.537.804-.295.221-.808.449-1.736.511a1.298 1.298 0 0 0-1.208 1.154c-.976 8.83-5.608 17.947-13.018 24.819a42.943 42.943 0 0 1-14.924 9.04c-1.016-4.062-1.547-8.609-1.546-13.327Zm28.325 22.719c-2.778-.459-5.526-1.716-7.891-3.531-3.013-2.305-5.38-5.477-6.447-8.803a1.282 1.282 0 0 0-.297-.485 45.83 45.83 0 0 0 4.549-3.707c7.57-7.031 12.411-16.244 13.696-25.436a5.762 5.762 0 0 0 1.181-.363c.967-.423 1.669-1.14 2.052-1.909.388-.77.494-1.553.495-2.23a7.366 7.366 0 0 0-.146-1.401 4.16 4.16 0 0 0 .973-1.094 3.936 3.936 0 0 0 .544-2.032 5.177 5.177 0 0 0-.17-1.277 5.5 5.5 0 0 0 1.119-.307c.099-.038.182-.095.276-.14l.326 7.389c-.352.222-.605.59-.619 1.038-.486 15.091-2.545 28.195-6.153 37.381-1.038 2.651-2.209 4.959-3.488 6.907Zm-2.98 3.68c-2.495 2.394-5.218 3.612-8.383 3.621-2.71-.004-5.045-.82-7.12-2.311-3.105-2.233-5.595-6.07-7.278-10.923-.108-.311-.203-.637-.305-.957a45.266 45.266 0 0 0 9.307-4.501c1.287 3.862 3.938 7.353 7.286 9.924 2.313 1.77 4.971 3.092 7.766 3.767-.416.492-.838.961-1.273 1.38Zm15.013-9.836c-.413 1.185-.939 2.169-1.591 2.979a7.527 7.527 0 0 1-2.404 1.971c-1.632.858-3.339 1.277-5.071 1.369 2.242-3.791 4.037-8.526 5.454-14.017 1.667-6.487 2.788-14.038 3.395-22.321.738 8.224 1.395 15.104 1.393 20.55.003 3.925-.346 7.101-1.176 9.469Zm1.375-57.459c-.352.859-.761 1.519-1.143 1.933-.041.045-.078.075-.118.115l-.361-8.206a1.3 1.3 0 0 0-2.598.114l.385 8.738c-.857.046-1.825.067-2.807.066-1.256 0-2.532-.03-3.648-.068.681-1.132 1.201-2.54 1.572-4.176.391-1.738.609-3.717.609-5.824 0-1.025-.052-2.02-.15-2.972a1.3 1.3 0 0 0-2.586.268c.089.86.136 1.768.136 2.704.003 2.932-.475 5.586-1.186 7.393-.351.903-.765 1.587-1.129 1.975a1.8 1.8 0 0 1-.465.38.609.609 0 0 1-.257.076c-.013-.002-.024-.01-.037-.011-.072-.005-.125-.013-.181-.021.012-.046.017-.081.034-.136.101-.356.294-.858.47-1.444.175-.587.338-1.27.339-2.036a4.637 4.637 0 0 0-.327-1.739 5.005 5.005 0 0 0-1.132-1.681c-.397-.393-.865-.654-1.367-.837a4.783 4.783 0 0 0-.814-.209 26.914 26.914 0 0 1-.06-1.71v-.009c-.008-1.206-.243-2.229-.668-3.065a4.97 4.97 0 0 0-2.645-2.396 6.75 6.75 0 0 0-2.473-.452h-.023l-1.529-1.686c.92-.604 1.642-1.348 2.226-2.086l.01.002c.003 0 1.148-.03 2.905-.059 1.473-.024 3.375-.048 5.379-.055.035.009.071.02.117.042.156.072.391.249.647.569.257.317.528.767.779 1.325a1.301 1.301 0 0 0 2.371-1.069 10.851 10.851 0 0 0-.441-.859c1.403.013 2.771.036 3.984.08.936.033 1.783.078 2.482.135.695.056 1.255.128 1.552.195.245.052.594.239.986.675.588.645 1.207 1.81 1.641 3.35.439 1.54.709 3.45.709 5.597.003 2.864-.479 5.355-1.188 7.074ZM173.847 106.833l.002.001h.002l-.004-.001Z"/><path fill="#191C22" d="M181.539 116.029c-.319 0-.642.03-.97.087-.343-.839-.939-1.489-1.616-1.855-.679-.373-1.386-.481-2.01-.481a5.975 5.975 0 0 0-.765.057c.078-.703.14-1.52.141-2.337-.003-.909-.067-1.817-.345-2.667-.143-.424-.344-.848-.689-1.23a2.401 2.401 0 0 0-1.436-.769 3.685 3.685 0 0 0-.521-.038c-.875-.002-1.724.327-2.435.87-1.072.821-1.912 2.081-2.617 3.759-.697 1.674-1.247 3.785-1.618 6.365-1.143 1.163-1.84 2.588-2.327 3.988-.509 1.472-.805 2.939-1.091 4.096-.783 3.195-2.72 6.519-5.649 9.457-2.65 2.66-6.11 4.996-10.211 6.666-1.135-13.855-2.791-27.065-4.649-39.124 9.038.241 18.611 1.162 25.229 2.447a1.3 1.3 0 0 0 .495-2.553c-6.952-1.345-16.826-2.282-26.132-2.506a601.83 601.83 0 0 0-.987-6.024c5.879-.647 12.086-.939 17.815-.938 3.822 0 7.431.128 10.587.36a1.3 1.3 0 0 0 .19-2.594c-3.23-.237-6.897-.365-10.777-.365-5.87 0-12.211.303-18.253.976a629.957 629.957 0 0 0-1.071-5.997c9.973-2.874 20.387-4.774 27.559-5.653a1.3 1.3 0 0 0-.318-2.58c-7.252.894-17.648 2.778-27.718 5.664-5.019-26.692-10.132-44.143-10.14-44.175a1.297 1.297 0 0 0-.915-.892 1.297 1.297 0 0 0-1.236.322c-.007.007-7.875 7.614-19.196 19.188-1.78-.063-3.691-.091-5.683-.091-11.761 0-26.128.934-29.2 1.143L56.51 41.612a1.302 1.302 0 0 0-2.157.465c-3.936 10.944-6.995 25.83-9.35 41.062-9.75-2.176-19.608-3.432-26.561-3.935a1.3 1.3 0 1 0-.187 2.593c6.862.492 16.709 1.756 26.36 3.919-.318 2.124-.62 4.249-.911 6.369a163.444 163.444 0 0 0-10.227-.319c-6.273 0-12.328.333-17.32.885a1.3 1.3 0 0 0 .286 2.584c4.878-.54 10.854-.869 17.034-.869 3.28 0 6.614.1 9.878.302-.276 2.085-.539 4.16-.79 6.214-8.833.667-17.983 1.975-24.499 3.532a1.3 1.3 0 1 0 .605 2.529c6.189-1.484 15.023-2.755 23.58-3.426a764.443 764.443 0 0 0-3.473 37.707c-.121.909-3.318 24.906-3.804 47.018a1.3 1.3 0 0 0 2.6.058v-.001c.244-11.162 1.19-22.865 2.077-31.769.443-4.453.87-8.206 1.187-10.845a399.829 399.829 0 0 1 .522-4.157l.009-.089a761.688 761.688 0 0 1 3.523-38.112c3.217-.206 6.352-.32 9.242-.319.54 0 1.073.004 1.596.012a1.3 1.3 0 0 0 .04-2.6 109.86 109.86 0 0 0-1.636-.012c-2.81.001-5.831.106-8.926.295.238-1.936.485-3.888.745-5.85 3.74.304 7.336.758 10.564 1.396a1.3 1.3 0 0 0 .503-2.551c-3.31-.653-6.95-1.114-10.718-1.425.272-1.986.556-3.976.851-5.965 3.663.887 7.258 1.904 10.604 3.065a1.3 1.3 0 0 0 .851-2.456c-3.51-1.216-7.26-2.272-11.066-3.188 2.206-14.304 5.04-28.275 8.574-38.788l15.417 15.907c.268.277.641.42 1.026.392.003 0 1.027-.073 2.78-.184 5.256-.331 17.02-.994 26.841-.994 2.182 0 4.267.032 6.159.108.366.015.726-.128.982-.39a1226.399 1226.399 0 0 1 14.094-14.194 847.366 847.366 0 0 1 3.889-3.83c1.484 5.38 5.546 20.807 9.539 42.096-3.273 1.001-6.483 2.105-9.501 3.324a1.3 1.3 0 1 0 .974 2.411c2.848-1.152 5.891-2.203 9.005-3.161.333 1.817.664 3.675.993 5.569-3.222.425-6.334.953-9.182 1.624a1.3 1.3 0 1 0 .596 2.53c2.777-.655 5.832-1.184 9.024-1.602.314 1.857.625 3.75.931 5.671-.508-.005-1.015-.009-1.517-.009-2.64 0-5.186.065-7.554.205a1.3 1.3 0 0 0 .153 2.595c2.306-.136 4.804-.201 7.401-.201.637 0 1.279.004 1.926.012 1.933 12.475 3.652 26.195 4.795 40.592.03.379.225.698.503.915.299.561.953.847 1.569.625 5.031-1.813 9.262-4.563 12.474-7.786 3.21-3.224 5.409-6.924 6.332-10.672.398-1.638.781-3.544 1.51-5.071.361-.763.799-1.421 1.334-1.929a4.408 4.408 0 0 1 2.018-1.097 5.825 5.825 0 0 1 1.401-.193c.79.005 1.178.216 1.397.401.219.183.282.406.281.459l.004.133a1.575 1.575 0 0 1-.242.868c-.225.372-.663.726-1.179.979a4.744 4.744 0 0 1-1.413.443 1.3 1.3 0 1 0 .323 2.58 7.284 7.284 0 0 0 2.576-.888c.18.259.449.46.782.533.826.181 1.563.277 2.244.278a5.736 5.736 0 0 0 1.081-.105c.067.078.127.154.206.236.545.565 1.45 1.22 2.706 1.346h.004c.013.002.026.001.039.002.088.486.144.951.144 1.377a6.844 6.844 0 0 1-.866 3.351 6.275 6.275 0 0 1-.585.873c-.039.049-.06.071-.091.106-.294.226-.5.562-.518.962v-.001c-.439 9.982-3.85 18.064-9.215 24.373-5.367 6.305-12.722 10.835-21.068 13.536-.454.147-.752.527-.849.962a1.268 1.268 0 0 0-.154.795c.593 3.83.982 7.893 1.221 10.99a182.879 182.879 0 0 1 .329 5.22 1.3 1.3 0 1 0 2.598-.109c-.002-.025-.342-8.064-1.461-15.699 8.363-2.856 15.827-7.506 21.364-14.009 5.636-6.615 9.247-15.138 9.8-25.414a8.59 8.59 0 0 0 .9-1.319 9.453 9.453 0 0 0 1.195-4.617c0-.589-.077-1.222-.197-1.874a3.883 3.883 0 0 0 1.459-1.479c.467-.827.709-1.844.753-3.071l.001-.004.003-.209c.006-1.175-.374-2.272-1.14-3.042-.761-.775-1.831-1.143-2.921-1.138Zm1.072 2.965c.204.211.383.553.389 1.215l-.002.121c-.022.622-.112 1.1-.228 1.447-.181.526-.389.749-.595.894-.208.141-.476.221-.852.223-.083 0-.175-.005-.273-.015a1.64 1.64 0 0 1-.887-.38c.311-.428.518-.909.646-1.399.165-.634.219-1.295.22-1.995 0-.139-.011-.286-.015-.427.191-.033.367-.049.525-.049.554.006.864.159 1.072.365Zm-12.615-3.119c-.134.033-.256.083-.385.123.451-2.126 1.043-3.734 1.669-4.809.41-.711.829-1.184 1.183-1.45.36-.268.624-.34.865-.343l.067.005a.711.711 0 0 1 .056.107c.156.322.277 1.129.269 1.992 0 .907-.098 1.893-.198 2.639a26.295 26.295 0 0 1-.182 1.158l-.015.08a1.279 1.279 0 0 0-.014.385c-.4-.094-.822-.16-1.283-.158-.621 0-1.296.087-2.032.271Zm5.762 5.411a4.192 4.192 0 0 0 .552-2.089c0-.1-.003-.2-.009-.301-.053-.753-.407-1.512-1.055-2.132.022-.01.04-.018.072-.03.307-.129 1.035-.361 1.625-.354.213-.001.402.026.553.073a.928.928 0 0 1 .522.38c.153.219.329.635.379 1.393.021.314.032.609.032.879.001.495-.038.91-.108 1.223a1.986 1.986 0 0 1-.187.534.798.798 0 0 1-.362.356c-.172.087-.474.172-.971.172-.282 0-.645-.041-1.043-.104Z"/></svg>