<svg xmlns="http://www.w3.org/2000/svg" width="200" height="200" fill="none"><path fill="#FFD93A" d="M82.835 112.369a15.505 15.505 0 0 0 7.11-3.449 11.768 11.768 0 0 0 2.935-12.603c-1.947-5.19-4.347-5.89-4.347-5.89s-.656-1.804-4.926-3.656a11.832 11.832 0 0 0-9.479-.218c1.776-2.108 3.163-4.118 3.466-5.534l-2.213-4.307s-7.872.23-9.791.926c0 0 7.293-7.685 9.11-11.422a8.93 8.93 0 0 0 .523-6.87l-2.849-2.833s-7.496 2.584-9.14 3.768c-1.003.725-7.158 4.586-13.899 8.362a12.259 12.259 0 0 0-1.669-1.61c-4.542-3.608-7.08-2.923-7.08-2.923s-1.56-1.265-6.4-.592c-7.493 1.04-10.818 7.063-10.607 10.788.212 3.724.851 4.752.851 4.752-.28.306-.499.664-.644 1.053a361.886 361.886 0 0 1-5.32 1.953l-6.874-2.225-1.016-2.253-4.307-1.452-2.1 1.677L2 84.885l.653 3.235 3.213 2.242 2.101-.892 3.401 3.615s.747 3.726 2.046 8.43c1.3 4.703 2.956 10.344 11.17 11.568 9.5 1.417 33.504 3.905 58.251-.714Z"/><path fill="#191C22" d="m188.257 156.795.013-.015.059-.071c.054-.064.135-.163.236-.291.203-.258.49-.638.814-1.111.037-.054.077-.121.115-.178a18.39 18.39 0 0 0 1.876-3.532 1.296 1.296 0 0 1 .724-.729 26.097 26.097 0 0 0 7.206-17.382 22.53 22.53 0 0 0-6.95-16.057c-4.546-4.588-11.434-8.479-21.148-11.136a36.132 36.132 0 0 0 7.773-15.597 47.602 47.602 0 0 0 1.168-10.532 53.56 53.56 0 0 0-3.64-19.073c.214-.165.431-.324.639-.5 4.734-4.006 7.746-9.465 7.754-15.1a15.628 15.628 0 0 0-3.756-10.096 19.034 19.034 0 0 0-14.748-6.675 19.689 19.689 0 0 0-11.657 3.749 62.227 62.227 0 0 0-29.503-12.305 60.249 60.249 0 0 0-7.661-.49 59.07 59.07 0 0 0-9.421.768 20.349 20.349 0 0 0-15.67-7.473 18.012 18.012 0 0 0-8.879 2.287 17.633 17.633 0 0 0-6.912 7.13 20.23 20.23 0 0 0-2.33 9.495c.002 1.98.287 3.947.848 5.845A56.44 56.44 0 0 0 62.353 59.16c-.336.21-.67.43-.999.678a110.374 110.374 0 0 1-11.615 7.566 17.134 17.134 0 0 0-8.477-4.255 22.394 22.394 0 0 0-6.616-1.113 11.87 11.87 0 0 0-7.806 2.588 12.69 12.69 0 0 0-4.078 7.25 12.777 12.777 0 0 0 .025 5.598 10.822 10.822 0 0 0-.353 1.891c-1.473.554-2.717 1.064-3.313 1.28l.002-.002a2.906 2.906 0 0 1-1.008.168 5.849 5.849 0 0 1-2.184-.5 16.777 16.777 0 0 1-3.568-2.105c-.007-.005-.016-.005-.024-.01a1.264 1.264 0 0 0-.309-.667 7.077 7.077 0 0 0-1.192-.948 21.87 21.87 0 0 0-2.23-1.282c-.367-.183-.71-.34-1.02-.463a5.084 5.084 0 0 0-.46-.159 2.118 2.118 0 0 0-.587-.092 1.563 1.563 0 0 0-.32.037v-.002l-.02.005-.022.004.001.003c-.27.069-.533.167-.782.293a5.916 5.916 0 0 0-1.44.992 4.079 4.079 0 0 0-1.182 1.91c-.161.617-.515 1.919-.885 3.212-.184.648-.374 1.294-.545 1.85-.17.555-.325 1.028-.425 1.29a2.69 2.69 0 0 0-.159.959c.026.681.148 1.356.365 2.003.091.296.186.564.272.786.088.226.155.386.234.543.276.486.65.91 1.097 1.245.588.457 1.212.864 1.868 1.216.557.307.972.502.99.51a1.306 1.306 0 0 0 1.142-.018l1.045-.533c.299.287.57.552.816.8A24.95 24.95 0 0 0 5.703 93.4a12.726 12.726 0 0 0-3.217 3.09 6.493 6.493 0 0 0-1.239 3.706c0 .062.013.125.015.187h-.001l.002.016a10.12 10.12 0 0 0 1.123 3.974 33.008 33.008 0 0 0 6.432 8.467 64.491 64.491 0 0 0 15.404 11.146 4.89 4.89 0 0 0-.689 2.497 6.802 6.802 0 0 0 1.072 3.528 9.359 9.359 0 0 0 2.865 2.924 32.544 32.544 0 0 0 3.072 11.229 18.63 18.63 0 0 0 6.333 7.292 17.831 17.831 0 0 0 5.515 2.368 1.29 1.29 0 0 1 .463-.027c.927.129 1.861.194 2.797.194 8.319.001 17.127-5.078 22.25-14.919a70.865 70.865 0 0 0 2.556-5.426 33.856 33.856 0 0 0 2.037-6.239l.002-.006c.94-.35 1.866-.717 2.777-1.102-.052.933-.537 5.265-5.066 13.973a31.26 31.26 0 0 1-12.034 12.857c-.895.514-1.82.976-2.768 1.385l-.834 7.572c-.01.113-.006.226.013.338-.952 9.631-1.507 17.873-1.688 22.207a1.3 1.3 0 1 0 2.597.109c.173-4.143.7-12.005 1.598-21.237 3.376-.165 6.834-1.369 10.715-3.048 6.249-2.715 13.64-6.692 23.406-10.001a114.542 114.542 0 0 1 37.548-5.954c.354 0 .711.001 1.07.004 15.59.115 27.483 2.047 35.523 5.456a25.597 25.597 0 0 1 9.183 6.103c.499.553.959 1.14 1.376 1.757.09.568.186 1.138.272 1.703a178.883 178.883 0 0 1 2.19 24.801c0 .411-.003.808-.01 1.192a1.288 1.288 0 0 0 1.206 1.319 1.289 1.289 0 0 0 1.367-1.151c-.099-3.314-.288-9.847-1.032-17.795-.102-.91-.211-1.83-.327-2.762.007-.001.013.003.02.002.011-.001.02-.008.031-.009a200.193 200.193 0 0 0-.868-7.021c-1.736-12.254-4.944-25.902-10.761-35.915a1.293 1.293 0 0 1 1.258-1.938c.273.032.528.15.729.337.102.084.19.184.262.296 6.101 10.535 9.313 24.426 11.086 36.854a207.674 207.674 0 0 1 1.104 9.329 7.412 7.412 0 0 0 3.675.922 10.733 10.733 0 0 0 6.603-2.406 9.265 9.265 0 0 0 2.343-2.799 7.807 7.807 0 0 0 .915-4.253 5.423 5.423 0 0 0-.686-2.385 4.271 4.271 0 0 0-2.212-1.85c-.021-.008-.041-.011-.063-.019a22.442 22.442 0 0 1-1.368 2.323 21.166 21.166 0 0 1-1.432 1.913 1.303 1.303 0 0 1-1.835.123 1.302 1.302 0 0 1-.122-1.834l.001-.002ZM76.227 40.455c.193.416.398.828.621 1.233l.66 1.19a4.162 4.162 0 0 0 3.643 2.154 4.081 4.081 0 0 0 2.77-1.083l-.879-.957.88.957c8.75-8.052 19.35-11.962 24.235-13.423a4.138 4.138 0 0 0 2.178-1.554 4.25 4.25 0 0 0 .453-4.137 18.529 18.529 0 0 0-.853-1.76c-.049-.088-.105-.17-.155-.256a56.536 56.536 0 0 1 15.121-.076c14.481 1.85 27.664 9.435 37.212 19.965 9.551 10.53 15.435 23.975 15.43 37.456a44.96 44.96 0 0 1-1.104 9.958 33.542 33.542 0 0 1-8.709 16.132 43.517 43.517 0 0 1-16.505 10.339c-4.203 1.545-9.692 2.206-15.622 2.203a123.407 123.407 0 0 1-26.136-3.188c-4.4-.985-8.743-2.21-13.009-3.671a42.471 42.471 0 0 0 2.513-2.863 25.855 25.855 0 0 0 3.046-4.701 10.13 10.13 0 0 0 1.122-3.976l.005-.031h-.002c.001-.056.013-.113.013-.169v-.001a6.487 6.487 0 0 0-1.239-3.706 17.082 17.082 0 0 0-6.68-5.098 48.098 48.098 0 0 0-6.697-2.584 19.565 19.565 0 0 0-4.327-3.378 11.61 11.61 0 0 0-5.65-1.57c-.24 0-.478.025-.717.042a10.181 10.181 0 0 0 1.228-4.207l-.003-.12a1.312 1.312 0 0 0-.188-.607l-2.026-3.327a1.302 1.302 0 0 0-1.27-.614s-.2.025-.527.063c-.326.037-.775.088-1.267.138l-.107.003c-.153 0-.432-.01-.791-.01-1.213.004-2.422.14-3.606.405a49.717 49.717 0 0 0 3.64-4.347 31.296 31.296 0 0 0 2.154-3.291c.455-.767.811-1.588 1.06-2.445.443-1.706.694-3.456.75-5.218 0-.176-.036-.35-.105-.512a6.458 6.458 0 0 0-.874-1.346c-1.05-1.321-2.606-2.858-2.623-2.877a1.298 1.298 0 0 0-1.665-.14 6.619 6.619 0 0 1-1.64.75c-1.081.369-2.483.718-3.988 1.245-.106.037-.217.084-.324.123a53.868 53.868 0 0 1 10.554-17.113Zm-55.465 60.942a12.57 12.57 0 0 0-.622 3.886c.009 1.196.174 2.385.492 3.538a4.806 4.806 0 0 1-.825-.916 4.331 4.331 0 0 1-.807-2.506 6.01 6.01 0 0 1 1.54-3.772c.068-.081.15-.151.222-.23Zm10.16-7.54.278 1.27a11.06 11.06 0 0 1 2.372-.263 9.617 9.617 0 0 1 6.951 2.919c.213.215.418.446.619.686a12.55 12.55 0 0 0-4.77-.916 16.046 16.046 0 0 0-6.3 1.326c-1.928.801-3.641 2.043-5.002 3.627a12.856 12.856 0 0 0-2.259 3.946 10.044 10.044 0 0 1 2.363-7.733 11.04 11.04 0 0 1 6.025-3.592l-.278-1.27Zm13.093 10.704a22.06 22.06 0 0 0-.7-.014 54.642 54.642 0 0 0-11.817 1.678 31.588 31.588 0 0 0-5.52 1.855 13.2 13.2 0 0 0-1.07.56 9.678 9.678 0 0 1 2.168-4.48 10.779 10.779 0 0 1 4.028-2.895 13.472 13.472 0 0 1 5.268-1.112 9.593 9.593 0 0 1 4.49 1.028 7.186 7.186 0 0 1 3.113 3.214l.04.166Zm-18.432 6.753a11.707 11.707 0 0 1 3.151-1.553 47.63 47.63 0 0 1 7.56-1.891 44.584 44.584 0 0 1 7.02-.723c.391-.003.781.015 1.17.052.115.455.173.922.172 1.391a5.264 5.264 0 0 1-1.047 3.193 6.848 6.848 0 0 1-1.499 1.442 124.334 124.334 0 0 1-16.598-1.849c.025-.021.043-.04.071-.062Zm21.334-5.354a22.381 22.381 0 0 0-.324-1.792 59.836 59.836 0 0 0 2.91-.63 10.99 10.99 0 0 0-.135 1.68 12.047 12.047 0 0 0 1.337 5.434l1.104-.556-1.104.557a13.035 13.035 0 0 0 1.739 2.595c-.104.077-.213.148-.318.223a213.704 213.704 0 0 1-4.61-.052c.065-.603.098-1.209.1-1.816a25.133 25.133 0 0 0-.7-5.643Zm6.11 3.522a9.441 9.441 0 0 1-1.059-4.264 8.863 8.863 0 0 1 1.74-5.208c-.06.44-.09.883-.094 1.326a13.815 13.815 0 0 0 2.213 7.223 13.62 13.62 0 0 0 4.917 4.743c-1.357.055-2.764.096-4.214.124a10.416 10.416 0 0 1-3.503-3.944Zm26.548-9.784a12.006 12.006 0 0 0-.558-1.71 13.58 13.58 0 0 0-2.73-4.218 14.382 14.382 0 0 1 2.033-1.972c2.254-1.794 3.981-2.278 5.261-2.28a4.649 4.649 0 0 1 2.84.963c.265.2.51.424.732.67l.04.048c-.11.195-.247.418-.411.66a33.198 33.198 0 0 1-2.813 3.493 55.668 55.668 0 0 1-4.394 4.346Zm.38 3.084.013-.01a55.835 55.835 0 0 0 6.192-5.968 38.38 38.38 0 0 0 2.351-2.882c.202-.28.38-.542.548-.799.518.965.79 2.042.792 3.137a7.9 7.9 0 0 1-.838 3.437 11.943 11.943 0 0 1-3.744 4.354 10.767 10.767 0 0 1-4.062 1.841c-.303-.95-.73-1.855-1.27-2.693.006-.139.016-.277.017-.417Zm-3.257-13.016c-.882.701-1.692 1.489-2.417 2.351a10.568 10.568 0 0 0-3.099-1.31c.274-.405.577-.788.909-1.147a10.984 10.984 0 0 1 3.174-2.42 7.468 7.468 0 0 1 3.298-.78 8.39 8.39 0 0 1 3.209.676 12.774 12.774 0 0 0-5.074 2.63Zm-3.454 4.775a10.043 10.043 0 0 1 3.376 4.454c.489 1.16.74 2.405.74 3.664a9.892 9.892 0 0 1-2.134 6.096 9.745 9.745 0 0 1-2.294 2.101 13.468 13.468 0 0 0 1.334-5.8 14.75 14.75 0 0 0-2.292-7.705 13.133 13.133 0 0 0-3.912-4.293c.057-.001.117-.007.174-.007a8.477 8.477 0 0 1 5.008 1.49Zm-14.459 1.367c.034.16.057.305.098.474a50.212 50.212 0 0 0 4.275 10.43 30.089 30.089 0 0 0 3.018 4.663c.217.262.435.499.656.729-.098.004-.192.01-.295.01a9.755 9.755 0 0 1-4.189-1.002 10.826 10.826 0 0 1-4.32-4.038 11.248 11.248 0 0 1-1.814-5.838 7.2 7.2 0 0 1 .592-2.936 6.649 6.649 0 0 1 1.887-2.447l.092-.045Zm11.647 14.147a10.96 10.96 0 0 1-.701 1.179c-.012-.005-.018-.006-.032-.013a4.212 4.212 0 0 1-1.066-.885 20.81 20.81 0 0 1-2.524-3.58 53.414 53.414 0 0 1-3.482-7.29 34.916 34.916 0 0 1-1.09-3.212 12.345 12.345 0 0 1-.313-1.397 5.538 5.538 0 0 1 2.42-.574 5.271 5.271 0 0 1 2.788.813 10.289 10.289 0 0 1 3.317 3.602 12.14 12.14 0 0 1 1.916 6.358 10.965 10.965 0 0 1-1.233 4.999Zm6.836.31a12.598 12.598 0 0 0 1.674-2.826c.071.368.108.741.11 1.116a4.237 4.237 0 0 1-.843 2.658c-.072.093-.166.177-.249.265-.7.123-1.425.241-2.168.354a12.357 12.357 0 0 0 1.476-1.567Zm5.177.072a9.178 9.178 0 0 1-1.008-.067c.138-.561.21-1.137.216-1.715 0-.061-.007-.122-.009-.182a14.556 14.556 0 0 0 9.709-7.643c.302-.629.546-1.284.728-1.957.142.656.217 1.325.222 1.997a9.24 9.24 0 0 1-3.086 6.846 10.234 10.234 0 0 1-3.063 1.966c-.736.22-1.512.433-2.324.641a9.45 9.45 0 0 1-1.385.114Zm9.714-17.573a26.87 26.87 0 0 1 5.048 2.665 10.196 10.196 0 0 1 2.57 2.438c.459.619.727 1.36.77 2.13a6.044 6.044 0 0 1-1.06 1.995 17.65 17.65 0 0 1-6.322 4.865 11.559 11.559 0 0 0 1.738-6.087 13.89 13.89 0 0 0-2.744-8.006ZM31.113 75.908c.017-1.704.34-3.392.953-4.982a9.84 9.84 0 0 1 3.173-4.73 4.928 4.928 0 0 1 2.961-.977 5.436 5.436 0 0 1 1.653.262c.002.075.008.136.007.22a28.807 28.807 0 0 1-.576 4.826 57.82 57.82 0 0 1-.561 2.624 138.748 138.748 0 0 1-6.169 2.745c-.506.21-.977.399-1.42.573-.009-.186-.02-.37-.02-.561Zm11.335-9.757.083.026a6.955 6.955 0 0 1 2.706 2.924c.102.207.183.427.266.645a154.9 154.9 0 0 1-3.801 1.954c.393-1.827.643-3.682.746-5.549Zm-17.145 6.276a10.104 10.104 0 0 1 3.204-5.808 8.574 8.574 0 0 1 4.41-1.863 13.35 13.35 0 0 0-3.287 5.263 16.804 16.804 0 0 0-1.117 5.889c.002.498.03.996.084 1.491-.32.104-.577.18-.747.22a34.17 34.17 0 0 0-2.144.609 10.536 10.536 0 0 1-.642-3.588c0-.744.08-1.486.239-2.213ZM7.413 88.154l-1.276.651c-.266-.14-.597-.323-.926-.527-.313-.189-.613-.399-.897-.628-.1-.082-.195-.17-.283-.265l-.07-.084-.014-.02-.002-.003a5.036 5.036 0 0 1-.139-.338 9.77 9.77 0 0 1-.145-.415l2.262.526a1.3 1.3 0 0 0 1.483-.738l2.967-6.676c.074.261.23.492.444.659a19.318 19.318 0 0 0 4.136 2.423c1 .432 2.074.666 3.162.69a5.528 5.528 0 0 0 1.89-.322h.002c.74-.27 2.04-.806 3.587-1.382a45.121 45.121 0 0 1 4.869-1.559 21.054 21.054 0 0 0 2.016-.646c5.932-2.159 21.033-8.962 32.444-17.588a16.444 16.444 0 0 1 5.294-2.455c.9-.274 1.778-.515 2.604-.795.07-.024.139-.05.208-.076.03.236.126.458.276.641l2.023 2.346c.213.243.509.396.83.431a25.468 25.468 0 0 1-.542 2.921 8.384 8.384 0 0 1-.805 1.797 45.085 45.085 0 0 1-9.151 10.76 57.797 57.797 0 0 0-6.116 3.084 45.558 45.558 0 0 1-14.858 4.822 81.927 81.927 0 0 1-8.704.955c.142-.052.283-.1.425-.152 11.55-4.31 24.112-12.704 30.823-17.71a1.3 1.3 0 0 0-1.556-2.084A162.566 162.566 0 0 1 44.802 78.51 90.888 90.888 0 0 1 33.5 83.754a37.44 37.44 0 0 1-10.3 2.487c-.044.01-.088.021-.132.035a24.132 24.132 0 0 1-3.396-.362 14.084 14.084 0 0 1-5.9-2.734 1.3 1.3 0 1 0-1.541 2.095 16.721 16.721 0 0 0 6.942 3.19c2.296.345 4.614.53 6.937.555.794.041 1.82.07 3.032.07a87.449 87.449 0 0 0 13.973-1.137 48.048 48.048 0 0 0 15.725-5.132 44.038 44.038 0 0 1 9.486-4.272 15.87 15.87 0 0 1 4.569-.729c.308 0 .552.01.791.01.11 0 .22-.001.354-.013l.01-.001.15-.016a1.277 1.277 0 0 0 .047 1.104l1.014 1.86a1.284 1.284 0 0 0 .83.63c-.205.583-.453 1.15-.74 1.697a18.977 18.977 0 0 1-1.03 1.73c-.064.029-.129.05-.192.08a13.572 13.572 0 0 0-3.933 2.98c-.722.775-1.34 1.64-1.84 2.574-.04 0-.079-.004-.12-.004-3.069.1-6.075.899-8.79 2.333a17.249 17.249 0 0 0-7.438 5.155 12.36 12.36 0 0 0-1.645 2.688c-1.482.404-2.98.749-4.483 1.03a15.683 15.683 0 0 0-3.155-5.311 63.015 63.015 0 0 0 12.412-3.587 64.813 64.813 0 0 0 7.799-3.726 33.19 33.19 0 0 0 4.993-3.35 1.301 1.301 0 0 0-.747-2.283 1.3 1.3 0 0 0-.945.31 30.843 30.843 0 0 1-4.584 3.062 62.076 62.076 0 0 1-21.594 7.347 12.163 12.163 0 0 0-6.486-1.855 13.755 13.755 0 0 0-6.217 1.504A28.893 28.893 0 0 1 22.3 92.23a1.3 1.3 0 1 0-.99 2.404c1.035.425 2.093.793 3.168 1.102-.323.288-.63.59-.924.909a1.209 1.209 0 0 0-.154.016c-.698.234-1.37.543-2 .924-.068-.069-.142-.136-.208-.204a16.385 16.385 0 0 1-3.051-4.36 9.678 9.678 0 0 0-1.456-2.094c-.925-1.083-2.081-2.248-3.017-3.155-.934-.906-1.643-1.549-1.65-1.556a1.299 1.299 0 0 0-2.174 1.027 1.3 1.3 0 0 0 .427.9l.208.19a72.711 72.711 0 0 1 2.832 2.757 31.51 31.51 0 0 1 1.595 1.762c.332.376.62.788.86 1.23.893 1.879 2.089 3.599 3.54 5.089-.26.253-.522.505-.756.782a8.579 8.579 0 0 0-2.15 5.446c0 .191.027.384.043.576a25.028 25.028 0 0 1-1.977-4.702 15.995 15.995 0 0 1-.683-3.369 19.916 19.916 0 0 0-.387-3.062 8.437 8.437 0 0 0-1.561-3.411 26.607 26.607 0 0 0-2.938-3.063 1.3 1.3 0 0 0-1.484-.214Zm-2.721 13.582a6.543 6.543 0 0 1-.745-1.374 3.052 3.052 0 0 1-.09-.274 3.936 3.936 0 0 1 .769-2.121 14.628 14.628 0 0 1 5.623-4.21c.132.237.246.482.343.735.37 1.157.57 2.362.596 3.577a20.837 20.837 0 0 0 1.357 5.633 27.968 27.968 0 0 0 2.383 4.822 34.544 34.544 0 0 1-4.732-2.173 16.011 16.011 0 0 1-5.504-4.615Zm69.455 22.215a62.713 62.713 0 0 1-2.677 1.056c-.33.122-.659.246-.992.362a60.28 60.28 0 0 1-1.94.636c-.262.082-.52.171-.784.249a58.611 58.611 0 0 1-7.758 1.714c.086.323.146.653.18.986a7.12 7.12 0 0 1-.025 1.637 6.978 6.978 0 0 1-.593 2.076 7.67 7.67 0 0 1-1.409 2.047 8.141 8.141 0 0 1-2.063 1.586 1.366 1.366 0 0 1-1.744-.582 1.3 1.3 0 0 1 .575-1.739v-.002l.003-.002.036-.019.173-.103c.217-.137.425-.288.623-.453a5.369 5.369 0 0 0 1.448-1.829 4.409 4.409 0 0 0 .411-1.885c0-.156-.007-.318-.023-.486a3.883 3.883 0 0 0-1.38-2.603 4.522 4.522 0 0 0-2.926-1.061 5.271 5.271 0 0 0-3.277 1.227 6.443 6.443 0 0 0-1.472 2.119c-.182.414-.335.84-.457 1.275-.08.276-.15.552-.21.827a15.576 15.576 0 0 0-.33 3.141c-.001.215.004.389.01.506a1.355 1.355 0 0 1-1.233 1.363 1.304 1.304 0 0 1-1.363-1.234 12.943 12.943 0 0 1-.015-.635 18.48 18.48 0 0 1 .033-1.035 1.226 1.226 0 0 1-.033-.242c.02-.322.03-.641.03-.957a12.252 12.252 0 0 0-.794-4.506 5.726 5.726 0 0 0-2.029-2.724 3.367 3.367 0 0 0-1.805-.562h-.012l-.1-.001a4.5 4.5 0 0 0-.42.024c-.054.006-.107.009-.16.017a4.284 4.284 0 0 0-.45.08c-.198.05-.394.112-.585.186a5.198 5.198 0 0 0-1.98 1.396 5.819 5.819 0 0 0-.561.754c-.036.057-.073.112-.108.17a5.812 5.812 0 0 0-.804 2.617c-.005.097-.03.195-.029.292a4.665 4.665 0 0 0 .267 1.574 1.29 1.29 0 0 1-.292 1.323 1.271 1.271 0 0 1-.496.339 1.285 1.285 0 0 1-1.545-.595 1.224 1.224 0 0 1-.116-.192 7.275 7.275 0 0 1-.418-2.449c.004-.747.11-1.49.316-2.208a8.583 8.583 0 0 1 1.188-2.505c-.527-.555-1.061-1.14-1.64-1.734a5.415 5.415 0 0 0-3.868-1.662c-.795.006-1.576.2-2.28.568a65.302 65.302 0 0 1-8.4-5.065 52.759 52.759 0 0 1-9.893-8.987 36.8 36.8 0 0 0 7.244 3.346c7.543 2.628 19.14 4.683 37.102 4.684 23.947-.004 36.541-3.647 43.283-7.456.279-.158.533-.316.792-.474a42.194 42.194 0 0 1-2.623 2.857 60.735 60.735 0 0 1-11.93 9.095c-.124.074-.243.15-.368.223-.757.439-1.532.867-2.325 1.283-.237.125-.482.244-.722.366-.565.289-1.134.575-1.715.85-.306.145-.618.285-.928.426-.532.243-1.07.48-1.614.71Z"/><path fill="#191C22" d="M98.64 79.651c7.288 5.564 21.546 4.189 25.932-7 4.386-11.189 2.463-24.39-4.037-27.256-6.501-2.866-21.817 1.538-26.375 14.693-3.623 10.458.807 16.758 4.48 19.563ZM114.22 66.49c4.084.461 6.437 5.108 5.947 7.277-.587 2.598-2.989 1.832-7.034 1.39-4.045-.443-7.209-.83-7.633-2.93-.515-2.55 3.684-6.306 8.72-5.737ZM167.503 88.943c4.251-1.791 7.124-6.138 6.197-17.178-1.165-13.888-9.765-22.848-16.768-21.711-7.002 1.138-12.124 13.438-10.639 25.378 1.484 11.94 12.778 17.061 21.21 13.51Zm-9.474-16.846c5.017.718 8.156 5.413 7.028 7.755-.928 1.925-4.089 1.502-8.115.91-4.027-.59-6.542-.452-6.469-3.116.061-2.224 3.487-6.131 7.556-5.55Z"/><path fill="#191C22" d="M111.987 73.912a2.726 2.726 0 0 0 2.53-4.363 2.73 2.73 0 0 0-2.874-.973 2.726 2.726 0 0 0-1.995 2.287 2.703 2.703 0 0 0 1.333 2.71c.309.179.651.294 1.006.339ZM156.456 79.604a2.725 2.725 0 0 0 2.725-1.334 2.728 2.728 0 1 0-5.064-1.714 2.703 2.703 0 0 0 2.339 3.048ZM135.145 85.413a20.253 20.253 0 0 1-.771 2.757 20.085 20.085 0 0 1-.656 1.601l-.047.1a47.23 47.23 0 0 1-1.754-.262 25.373 25.373 0 0 1-7.15-2.14 1.298 1.298 0 0 0-1.771.563 1.3 1.3 0 0 0-.136.668c.185 2.097.659 4.16 1.407 6.127a14.229 14.229 0 0 0 2.797 4.63 9.164 9.164 0 0 0 5.3 2.852c.566.092 1.139.138 1.712.139a9.7 9.7 0 0 0 5.625-1.794 15.662 15.662 0 0 0 4.732-5.74 20.084 20.084 0 0 0 1.389-3.401 1.302 1.302 0 0 0-.353-1.293 1.298 1.298 0 0 0-1.307-.294 8 8 0 0 1-1.594.286c-.718.072-1.589.11-2.553.11-1.109 0-2.347-.055-3.629-.158a22.738 22.738 0 0 0 1.321-4.267c3.144-.472 6.858-4.047 7.02-6.787.211-3.587-12.341-5.003-13.979-2.107-1.058 1.871 1.549 6.787 4.397 8.41Zm6.09 7.324a1.452 1.452 0 0 1-.021.16c-.125.668-1.037 3.165-7.697 2.284-5.336-.706-6.261-3.344-6.349-3.994-.014-.1-.009-.157.004-.148 5.125 1.322 10.971 2.027 14.063 1.698Z"/></svg>