<svg xmlns="http://www.w3.org/2000/svg" width="200" height="200" fill="none"><path fill="#BEBEC9" d="m37.034 126.698-.003-.002h-.002l.005.002ZM46.16 111.891a1.31 1.31 0 0 0-.985.13 1.301 1.301 0 0 0-.605.79c-.608 2.275-1.15 4.249-1.653 5.876-.356 1.234-.8 2.44-1.329 3.61a5.327 5.327 0 0 1-.955 1.443 2.532 2.532 0 0 1-.958.627 2.187 2.187 0 0 1-.733.129h-.013a2.202 2.202 0 0 1-.85-.18l-.005-.002a2.383 2.383 0 0 1-.631-.406 3.484 3.484 0 0 1-.735-.953 11.297 11.297 0 0 1-.901-2.438 71.382 71.382 0 0 1-1.393-7.059 1.303 1.303 0 0 0-1.489-1.079 1.3 1.3 0 0 0-1.079 1.488c.36 2.467.844 4.914 1.452 7.332l.002.007a13.768 13.768 0 0 0 1.125 2.994l.011.02a6.11 6.11 0 0 0 1.27 1.623l.011.01c.392.348.836.633 1.316.843a4.762 4.762 0 0 0 1.896.4h.013a4.787 4.787 0 0 0 1.624-.286l.006-.002a5.175 5.175 0 0 0 1.912-1.241l.018-.02a7.913 7.913 0 0 0 1.415-2.093l.01-.02a29.157 29.157 0 0 0 1.474-3.976v-.003c.52-1.688 1.07-3.687 1.68-5.973a1.299 1.299 0 0 0-.92-1.591ZM161.037 126.811l-.001-.001h-.001l.002.001Z"/><path fill="#BEBEC9" d="M162.66 124.496a2.207 2.207 0 0 1-.737-.129l-.002-.001a2.387 2.387 0 0 1-.568-.298 3.184 3.184 0 0 1-.723-.724 8.119 8.119 0 0 1-.917-1.714 50.091 50.091 0 0 1-1.719-5.292l.001.002c-.3-1.063-.616-2.228-.952-3.485a1.266 1.266 0 0 0-.436-.643 1.294 1.294 0 0 0-2.157-.585 1.3 1.3 0 0 0-.383.792 62.074 62.074 0 0 1-.284 2.223l.001-.004c-1.922 13.026-7.91 24.27-16.871 32.264-8.965 7.992-20.905 12.753-34.853 12.757a64.86 64.86 0 0 1-9.461-.708 57.378 57.378 0 0 1-27.23-11.216 49.152 49.152 0 0 1-15.726-21.207 1.303 1.303 0 0 0-1.677-.739 1.3 1.3 0 0 0-.75 1.673A51.726 51.726 0 0 0 61.396 147.8a37.608 37.608 0 0 0-.61 6.967v.001c.019 3.205.307 6.403.86 9.56-.052.014-.101.031-.15.052a9.458 9.458 0 0 0-1.077.753h-.001a7.515 7.515 0 0 0-1.931 2.505 18.619 18.619 0 0 0-1.586 5.181 35.636 35.636 0 0 0-.484 5.964c-.036 2.562.26 5.118.881 7.604a10.659 10.659 0 0 0 4.021 5.899 11.569 11.569 0 0 0 6.823 2.075 15.584 15.584 0 0 0 3.903-.515 11.694 11.694 0 0 0 6.365-3.794 12.18 12.18 0 0 0 2.442-7.92 25.787 25.787 0 0 0-.452-4.595v-.003.002a8.14 8.14 0 0 0-2.077-4.218c0-.037.016-.07.013-.107v-.001a14.13 14.13 0 0 0-.614-2.85 13.538 13.538 0 0 0-3.133-5.392l-.004-.005a8.313 8.313 0 0 0-3.989-2.219 1.285 1.285 0 0 0-.498-.019 48.443 48.443 0 0 1-.713-7.899V154.724c0-.363.027-.724.038-1.088a62.067 62.067 0 0 0 22.798 7.888 67.67 67.67 0 0 0 9.841.735 54.711 54.711 0 0 0 32.84-10.382c.084.956.137 1.923.137 2.893a48.772 48.772 0 0 1-.692 7.836 8.519 8.519 0 0 0-4.588 2.36 13.516 13.516 0 0 0-3.137 5.397 14.114 14.114 0 0 0-.61 2.852c-.002.029.01.054.01.083a7.504 7.504 0 0 0-.711.859 8.468 8.468 0 0 0-1.368 3.376 25.816 25.816 0 0 0-.451 4.591 12.208 12.208 0 0 0 2.441 7.928 11.7 11.7 0 0 0 6.368 3.798 15.6 15.6 0 0 0 3.894.512 11.575 11.575 0 0 0 6.827-2.076 10.66 10.66 0 0 0 4.026-5.902c.621-2.482.916-5.035.88-7.593a33.096 33.096 0 0 0-.876-7.833 16.023 16.023 0 0 0-1.195-3.317 7.53 7.53 0 0 0-1.931-2.505c-.367-.29-.75-.559-1.147-.805.552-3.157.84-6.355.859-9.56v-.001a35.936 35.936 0 0 0-.893-8.314 4.225 4.225 0 0 0-.494-1.171 55.97 55.97 0 0 0 13.557-27.154 44.732 44.732 0 0 0 1.506 4.5l.005.01c.315.795.724 1.548 1.219 2.245l.011.016c.362.493.799.926 1.296 1.284l.009.006a4.97 4.97 0 0 0 1.182.618 4.767 4.767 0 0 0 1.626.286 1.3 1.3 0 0 0 0-2.6h-.001Zm-84.82 53.501V178c.26 1.362.398 2.745.41 4.132a9.598 9.598 0 0 1-1.859 6.281 9.123 9.123 0 0 1-4.997 2.916 12.993 12.993 0 0 1-3.253.432 8.969 8.969 0 0 1-5.305-1.586 8.048 8.048 0 0 1-3.035-4.487 27.205 27.205 0 0 1-.785-6.905 30.468 30.468 0 0 1 .797-7.194c.228-.958.56-1.888.99-2.773a4.98 4.98 0 0 1 1.239-1.653v-.001c.046-.036.09-.06.136-.094.052.238.1.451.144.641-.11.591-.251 1.403-.397 2.384v.001c-.12.814-.24 1.733-.342 2.698a7.141 7.141 0 0 0-.774.628l-.03.03-.02.02a1.298 1.298 0 0 0 1.85 1.824v.001a8.274 8.274 0 0 1 3.06-1.598 15.578 15.578 0 0 1 4.645-.727 11.59 11.59 0 0 1 2.943.355l.007.001a6.665 6.665 0 0 1 2.987 1.564 5.481 5.481 0 0 1 1.589 3.107Zm-5.107-11.207a10.976 10.976 0 0 1 2.51 4.355l.036.124a10.888 10.888 0 0 0-1.362-.459c-.095-.025-.192-.042-.288-.065a29 29 0 0 0-.825-2.955v-.002a19.865 19.865 0 0 0-.54-1.408c.163.127.32.264.47.41Zm-2.388 1.844c.188.549.357 1.142.516 1.751-.183-.006-.365-.015-.547-.015-1.845.005-3.68.292-5.438.851-.176.057-.337.124-.507.186.043-.318.085-.639.128-.933v.001c.162-1.09.322-1.983.43-2.555.034-.18.03-.366-.013-.544a54.481 54.481 0 0 1-.686-3.357 55.107 55.107 0 0 1-.844-9.251 37.057 37.057 0 0 1 .327-5.032c.02.016.038.033.059.049a52.768 52.768 0 0 0 3.133 2.263c-.006.035-.026.064-.028.1-.063.859-.09 1.722-.09 2.576v.055l-.001.047a52.82 52.82 0 0 0 1.03 9.876 1.3 1.3 0 0 0 .747.937c.328.142.602.386.782.695.405.734.741 1.504 1.002 2.3Zm63.732-.006c.261-.794.596-1.562 1.001-2.293.18-.31.455-.554.784-.697a1.31 1.31 0 0 0 .487-.376c.129-.163.218-.354.259-.558.077-.388.156-.805.236-1.265.507-2.863.772-5.762.794-8.669a33.505 33.505 0 0 0-.331-4.789c.45-.375.9-.749 1.336-1.139a47.545 47.545 0 0 0 1.625-1.517 33.76 33.76 0 0 1 .769 7.445 55.063 55.063 0 0 1-.843 9.25 55.18 55.18 0 0 1-.685 3.356 1.296 1.296 0 0 0-.014.544c.108.571.267 1.464.43 2.556v-.003c.045.305.089.637.133.967-.196-.072-.384-.149-.588-.216a18.252 18.252 0 0 0-5.473-.858c-.145.001-.29.008-.435.011.16-.608.329-1.199.515-1.749Zm-4.936 2.392a10.863 10.863 0 0 1 2.473-4.233c.184-.181.381-.348.589-.5a19.78 19.78 0 0 0-.586 1.5l-.003.008a30.373 30.373 0 0 0-.807 2.911c-.593.133-1.173.315-1.736.543.024-.077.044-.151.07-.229Zm13.159-3.855a4.998 4.998 0 0 1 1.238 1.654 16.137 16.137 0 0 1 1.343 4.448c.303 1.826.452 3.673.446 5.524a27.136 27.136 0 0 1-.784 6.894 8.046 8.046 0 0 1-3.039 4.49 8.98 8.98 0 0 1-5.311 1.587 13.014 13.014 0 0 1-3.244-.43 9.108 9.108 0 0 1-4.998-2.918 9.618 9.618 0 0 1-1.86-6.29c.013-1.385.15-2.766.409-4.126a5.86 5.86 0 0 1 .941-2.352 5.74 5.74 0 0 1 2.705-2.033 10.75 10.75 0 0 1 3.851-.647c1.588.007 3.165.254 4.679.734a8.278 8.278 0 0 1 3.073 1.608 1.301 1.301 0 0 0 1.807-1.87c-.223-.207-.46-.4-.709-.577a64.845 64.845 0 0 0-.35-2.767v-.003a73.29 73.29 0 0 0-.397-2.382l.134-.589c.02.016.045.028.066.045ZM73.916 170.809l.003.001.003.001-.006-.002Z"/><path fill="#FFE632" d="m44.433 113.775.363 4.93.015.122a37.23 37.23 0 0 0 21.83 28.65c7.013 3.384 15.395 5.475 24.866 6.523 3.285.367 6.589.553 9.895.557 14.975 0 27.835-3.988 37.421-11.031a43.516 43.516 0 0 0 17.633-29.182 1.306 1.306 0 0 0-.243-.964 1.303 1.303 0 0 0-.854-.511 1.307 1.307 0 0 0-.964.243 1.295 1.295 0 0 0-.511.853 40.894 40.894 0 0 1-16.6 27.466c-9.063 6.66-21.364 10.525-35.882 10.526a87.406 87.406 0 0 1-9.61-.542c-12.353-1.362-22.631-4.543-30.189-9.888a33.786 33.786 0 0 1-9.285-9.707 36.49 36.49 0 0 1-4.943-13.427l-1.282.217 1.296-.096-.363-4.93a1.305 1.305 0 0 0-.447-.888 1.302 1.302 0 0 0-1.433-.177 1.296 1.296 0 0 0-.712 1.256Z"/><path fill="#FFE632" d="M150.499 112.972a43.91 43.91 0 0 1-18.892 18.987c-8.472 4.554-18.951 7.139-30.878 7.139a87.502 87.502 0 0 1-9.127-.486c-12.65-1.324-21.983-4.45-28.809-8.869a35.446 35.446 0 0 1-13.928-16.813 1.298 1.298 0 0 0-1.696-.711 1.297 1.297 0 0 0-.711 1.695 38.07 38.07 0 0 0 14.922 18.012c7.271 4.704 17.019 7.918 29.952 9.272 3.121.33 6.258.497 9.397.5 12.301 0 23.21-2.666 32.109-7.449a46.515 46.515 0 0 0 19.987-20.116 1.302 1.302 0 0 0-.582-1.744 1.298 1.298 0 0 0-1.744.583Z"/><path fill="#BEBEC9" d="M146.814 40.185a48.1 48.1 0 0 0-18.5-15.208c.3-.804.702-1.567 1.198-2.269a7.965 7.965 0 0 1 3.342-2.773 5.745 5.745 0 1 0-.092-2.731 9.996 9.996 0 0 0-3.144 1.642 11.677 11.677 0 0 0-3.066 3.722c-.234.44-.441.893-.62 1.358a64.955 64.955 0 0 0-25.222-4.738 65.325 65.325 0 0 0-25.39 4.768 12.636 12.636 0 0 0-1.306-2.514 11.302 11.302 0 0 0-2.258-2.49 9.987 9.987 0 0 0-3.278-1.75 5.762 5.762 0 1 0-.091 2.73 7.404 7.404 0 0 1 1.734 1.041 9.16 9.16 0 0 1 2.292 2.855c.185.35.349.712.49 1.083l.038.11a48.845 48.845 0 0 0-13.518 9.435l-.004.005c-.057.059-.167.159-.303.303a44.835 44.835 0 0 0-4.51 5.324 1.3 1.3 0 1 0 2.11 1.519 42.202 42.202 0 0 1 4.25-5.016l.038-.04c.042-.048.122-.121.258-.256l-.005.004c8.828-8.783 22.077-14.506 39.454-14.511 20.667.01 35.498 8.195 43.996 19.922a1.3 1.3 0 0 0 2.107-1.525Zm-8.423-24.947a3.15 3.15 0 0 1 3.091 3.768 3.153 3.153 0 0 1-6.244-.616 3.156 3.156 0 0 1 3.153-3.152Zm-75.54 6.305a3.153 3.153 0 1 1-.001-6.306 3.153 3.153 0 0 1 0 6.306Z"/><path fill="#FFE632" d="M151.787 48.868a44.749 44.749 0 0 0-2.561-5.076c-.008-.013-.02-.02-.028-.031a1.277 1.277 0 0 0-.083-.233 24.496 24.496 0 0 0-8.158-8.494 19.354 19.354 0 0 0-10.152-2.861c-1.036 0-2.07.08-3.094.236a18.753 18.753 0 0 0-8.405 3.63c-3.542 2.607-6.339 5.956-9.404 8.555a20.64 20.64 0 0 1-4.867 3.21 14.217 14.217 0 0 1-5.965 1.264 14.601 14.601 0 0 1-7.276-1.707c-2.832-1.555-4.839-4.066-6.984-6.743-2.144-2.658-4.435-5.485-7.986-7.266a15.528 15.528 0 0 0-6.98-1.674 17.199 17.199 0 0 0-9.632 3.116 27.085 27.085 0 0 0-7.711 8.337c-.025.033-.06.053-.082.09-.088.147-.168.303-.254.452-.036.062-.075.12-.112.182-.009.015-.008.033-.016.048a52.687 52.687 0 0 0-2.381 4.943 1.301 1.301 0 0 0 2.39 1.023 48.863 48.863 0 0 1 2.356-4.87 24.845 24.845 0 0 1 7.264-8.05 14.6 14.6 0 0 1 8.179-2.671c2.021.005 4.013.485 5.816 1.4a16.831 16.831 0 0 1 4.98 4.008c2.194 2.43 4.111 5.368 6.843 7.783a16.37 16.37 0 0 0 4.856 3.017 18.136 18.136 0 0 0 6.73 1.182 17.046 17.046 0 0 0 9.004-2.528c3.777-2.277 6.644-5.59 9.673-8.399a28.586 28.586 0 0 1 4.736-3.7 15.24 15.24 0 0 1 5.618-2.061 18.003 18.003 0 0 1 2.704-.207 16.75 16.75 0 0 1 8.8 2.482 21.906 21.906 0 0 1 7.28 7.61c.007.01.017.016.024.026.018.075.043.147.075.217h-.001a41.9 41.9 0 0 1 2.412 4.78 1.302 1.302 0 0 0 1.704.682 1.3 1.3 0 0 0 .688-1.702ZM27.86 102.639a7.687 7.687 0 0 1-.505-.572 1.292 1.292 0 0 0-.866-.492 1.292 1.292 0 0 0-.96.266 1.296 1.296 0 0 0-.452 1.374c.046.164.124.318.23.453.22.281.45.532.674.767a1.294 1.294 0 0 0 1.41.314 1.288 1.288 0 0 0 .719-.687 1.3 1.3 0 0 0-.25-1.423ZM169.203 105.393c-.154.13-.341.271-.547.433a1.316 1.316 0 0 0-.487.868 1.292 1.292 0 0 0 .27.958 1.29 1.29 0 0 0 1.373.447c.165-.046.318-.124.452-.23.175-.138.386-.296.613-.487a1.297 1.297 0 0 0 .156-1.829 1.298 1.298 0 0 0-1.829-.16h-.001ZM173.215 101.378c-.295.369-.605.736-.93 1.089a1.301 1.301 0 0 0 1.913 1.761c.374-.406.723-.82 1.05-1.23a1.301 1.301 0 0 0-1.163-2.097 1.298 1.298 0 0 0-.87.477ZM45.901 69.71V69.7v.011ZM79.813 62.741a4.862 4.862 0 0 0-2.853-.897l-.229.005c-.938.03-1.85.315-2.638.826a6.27 6.27 0 0 0-2.354 3.102 11.467 11.467 0 0 0-.678 4.033 13.771 13.771 0 0 0 1.552 6.447 7.872 7.872 0 0 0 2 2.439 5.28 5.28 0 0 0 2.956 1.153l.216.006a3.692 3.692 0 0 0 2.483-1 7.706 7.706 0 0 0 2.017-3.523 15.91 15.91 0 0 0 .635-4.53c.05-2.03-.382-4.043-1.26-5.875a6.168 6.168 0 0 0-1.847-2.186Zm-.393 12.853a4.019 4.019 0 0 1-.89 1.327 1.085 1.085 0 0 1-.745.334l-.058-.002a2.668 2.668 0 0 1-1.51-.604 6.348 6.348 0 0 1-1.844-2.79 11.85 11.85 0 0 1-.712-4.049 7.87 7.87 0 0 1 .884-3.9c.237-.422.569-.785.969-1.058a2.543 2.543 0 0 1 1.324-.405l.122-.003a2.24 2.24 0 0 1 1.349.418 4.45 4.45 0 0 1 1.464 2.25c.378 1.193.563 2.439.547 3.69a12.167 12.167 0 0 1-.9 4.791ZM39.969 107.403l-.003-.001h-.001l.004.001Z"/><path fill="#FFE632" d="M87.87 64.166a5.77 5.77 0 0 0-.78-2.234 6.893 6.893 0 0 0-2.032-1.827 29.719 29.719 0 0 0-5.88-2.685 86.57 86.57 0 0 0-12.188-3.214A67.352 67.352 0 0 0 55 52.868c-1.857 0-3.912.039-6.055.129h-.025c-3.816.145-7.62.485-11.401 1.02-2.73.37-5.422.973-8.048 1.803a13.477 13.477 0 0 0-5.635 3.185 13.098 13.098 0 0 0-2.81 5.357 27.332 27.332 0 0 0-.922 7.432 60.056 60.056 0 0 0 4.2 20.489 24.468 24.468 0 0 0 6.31 9.417 28.559 28.559 0 0 0 9.353 5.702 34.041 34.041 0 0 0 4.782 1.424c2.7.594 5.456.892 8.22.889 7.824-.008 15.473-2.33 20.655-6.816v-.001c5.129-4.473 8.691-11.184 11.03-17.87a58.567 58.567 0 0 0 3.429-17.877c.011-.999-.06-1.998-.214-2.985ZM57.14 96.864l.01.01a46.802 46.802 0 0 0 9.008 7.622 32.904 32.904 0 0 1-11.875 2.596 26.084 26.084 0 0 1-2.96-4.179 36.21 36.21 0 0 1-4.47-17.983 64.244 64.244 0 0 1 .4-6.228 42.615 42.615 0 0 0 1.47 4.58c.003.007.002.015.005.022a42.887 42.887 0 0 0 8.393 13.54l.019.02Zm-13.548 8.979c-.218-.06-.438-.114-.653-.179.264-.979.538-1.989.821-3.023a60.19 60.19 0 0 0-.168 3.202Zm3.163-6.64a35.928 35.928 0 0 0 2.302 4.984 27.228 27.228 0 0 0 1.876 2.869 35.34 35.34 0 0 1-4.752-.601c.041-2.427.233-4.849.574-7.252Zm-24.05-27.41a24.774 24.774 0 0 1 .82-6.718 10.55 10.55 0 0 1 2.22-4.306h.002a11.138 11.138 0 0 1 4.55-2.483 57.368 57.368 0 0 1 11.964-2.228 119.27 119.27 0 0 1 5.08-.382 48.198 48.198 0 0 0-1.49 11.829v.252c0 .656.02 1.305.051 1.948.02.5.052.99.092 1.487v.01l.001.011c.013.19.032.361.049.537-.01.023-.03.039-.037.063a35.268 35.268 0 0 0-1.471 7.888 66.418 66.418 0 0 0-.283 5.23 42.547 42.547 0 0 0 .812 8.331 3.816 3.816 0 0 0-.272.194 5.824 5.824 0 0 0-1.361 1.653 8.102 8.102 0 0 0-.766 1.78 567.556 567.556 0 0 0-2.186 7.906 26.41 26.41 0 0 1-6.692-3.829c.51-.799.781-1.726.782-2.674a6.178 6.178 0 0 0-.867-3.091 4.995 4.995 0 0 0-2.105-2.038 2.706 2.706 0 0 0-1.136-.256 2.875 2.875 0 0 0-1.64.542c-.294.21-.561.454-.796.728a22.285 22.285 0 0 1-1.287-2.806 57.526 57.526 0 0 1-4.035-19.577Zm6.822 24.767c.119-.221.258-.43.416-.625a1.84 1.84 0 0 1 .383-.364l.111-.058.025-.006.047.016c.403.237.733.581.952.994a3.6 3.6 0 0 1 .509 1.775c0 .315-.061.628-.18.92a22.02 22.02 0 0 1-2.264-2.652ZM82.2 84.172c-2.234 6.42-5.677 12.77-10.282 16.765a20.528 20.528 0 0 1-3.076 2.193 44.536 44.536 0 0 1-9.788-8.025l-.015-.016a40.282 40.282 0 0 1-7.882-12.711c-.002-.006 0-.013-.003-.019a39.786 39.786 0 0 1-2.233-8.436l-.001-.023c-.027-.202-.058-.364-.072-.469v-.003l-.02-.14v-.005a34.401 34.401 0 0 1-.164-1.417c-.03-.302-.059-.576-.076-.843l-.001-.021a33.266 33.266 0 0 1-.087-1.406v-.01a38.099 38.099 0 0 1-.049-1.829v-.247c.006-4.039.55-8.059 1.617-11.954 1.737-.06 3.405-.088 4.933-.088a77.624 77.624 0 0 1 17.986 2.772c2.726.699 5.398 1.593 7.996 2.676.925.389 1.818.849 2.671 1.377.49.28.923.65 1.277 1.09.2.38.326.793.375 1.219.129.844.188 1.696.177 2.55a56.123 56.123 0 0 1-3.283 17.02ZM23.834 59.006l.001-.001h-.001ZM125.934 62.625a5.563 5.563 0 0 0-5.68-.019 6.335 6.335 0 0 0-2.508 3.218 11.91 11.91 0 0 0-.714 4.222 14.025 14.025 0 0 0 1.481 6.396 7.386 7.386 0 0 0 1.914 2.38 4.678 4.678 0 0 0 2.878 1.04h.025c1-.013 1.962-.382 2.712-1.042a8.434 8.434 0 0 0 2.349-3.777c.516-1.564.778-3.202.775-4.849a11.055 11.055 0 0 0-1.31-5.551 5.837 5.837 0 0 0-1.922-2.018Zm-.463 12.697a4.725 4.725 0 0 1-1.104 1.51c-.281.265-.65.418-1.037.43h-.008a2.067 2.067 0 0 1-1.292-.487 5.97 5.97 0 0 1-1.715-2.68 12.237 12.237 0 0 1-.683-4.049 8.236 8.236 0 0 1 .943-4.124 3.191 3.191 0 0 1 1.042-1.101 2.692 2.692 0 0 1 1.454-.385 2.733 2.733 0 0 1 1.489.396 3.852 3.852 0 0 1 1.464 1.993 9.753 9.753 0 0 1 .542 3.369c.017 1.77-.357 3.52-1.095 5.128ZM161.547 106.776v.001l-.004.001.004-.002Z"/><path fill="#FFE632" d="M179.891 71.794a27.363 27.363 0 0 0-.919-7.431 13.12 13.12 0 0 0-2.806-5.357 13.476 13.476 0 0 0-5.636-3.186 59.738 59.738 0 0 0-12.537-2.35c-4.549-.444-9.18-.602-12.993-.602a79.97 79.97 0 0 0-18.656 2.86 61.148 61.148 0 0 0-8.363 2.803c-1.053.444-2.068.97-3.038 1.574a6.898 6.898 0 0 0-2.032 1.828l.001-.002a5.766 5.766 0 0 0-.781 2.235 18.205 18.205 0 0 0-.214 2.986 58.58 58.58 0 0 0 3.427 17.877c2.338 6.685 5.898 13.395 11.022 17.869l.001.001a24.237 24.237 0 0 0 4.995 3.315l.001.001a35.145 35.145 0 0 0 15.647 3.498c2.779.003 5.55-.298 8.263-.897l-.002.001a33.336 33.336 0 0 0 6.275-2.04 25.56 25.56 0 0 0 14.142-14.495l-.001.001a59.96 59.96 0 0 0 4.204-20.49Zm-51.818 29.143c-4.601-3.995-8.042-10.344-10.274-16.764a56.123 56.123 0 0 1-3.282-17.02c-.011-.854.049-1.707.177-2.55.049-.426.176-.84.375-1.22h.001c.354-.44.787-.81 1.277-1.09a27.403 27.403 0 0 1 5.345-2.422A84.078 84.078 0 0 1 133.5 56.76a64.927 64.927 0 0 1 11.5-1.292c1.945 0 4.114.044 6.369.145.721 2.62 1.201 5.3 1.436 8.006.015.19.032.332.038.423v.012c.089 1.191.138 2.378.138 3.583a42.928 42.928 0 0 1-.291 5.018l.001-.007a45.454 45.454 0 0 1-.234 1.639c-.079.479-.157.94-.248 1.37l-.006.029c-.087.461-.183.913-.289 1.364v.001a31.67 31.67 0 0 1-.508 1.93l-.007.026a40.344 40.344 0 0 1-1.115 3.362l-.003.017a40.575 40.575 0 0 1-8.824 13.696l-.001.001c-.31.32-.61.63-.91.92h.001a46.723 46.723 0 0 1-8.645 6.549 21.259 21.259 0 0 1-3.829-2.615Zm26.394 5.388a35.539 35.539 0 0 1-6.988.776 41.604 41.604 0 0 0 4.085-5.66l-.001.002a47.332 47.332 0 0 0 2.349-4.53 60.57 60.57 0 0 1 .573 8.327c0 .361-.012.723-.018 1.085Zm-2.498-11.471a41.748 41.748 0 0 1-1.745 3.664c-.26.487-.484.886-.642 1.162l-.184.317-.062.104-.001.002a39.174 39.174 0 0 1-5.251 6.879 32.765 32.765 0 0 1-9.355-2.118 48.88 48.88 0 0 0 7.625-5.992h.001c.341-.33.66-.661.969-.98l-.002.001a43.177 43.177 0 0 0 9.391-14.588c.003-.006.002-.013.004-.02a43.135 43.135 0 0 0 1.178-3.552l.003-.01.004-.015a34.01 34.01 0 0 0 .544-2.064c.112-.479.213-.959.306-1.447l.002-.01.004-.018h-.001c.066-.31.114-.608.166-.909.08 1.118.137 2.265.137 3.462a42.243 42.243 0 0 1-3.091 16.132Zm5.109 10.797c.001-.137.007-.274.007-.411a63.44 63.44 0 0 0-.355-6.595 513.6 513.6 0 0 1 1.792 6.531c-.476.17-.957.328-1.444.475Zm11.451-6.787a2.69 2.69 0 0 1-.07-.572 3.604 3.604 0 0 1 .509-1.775c.219-.413.549-.757.953-.994l.047-.016.028.008c.103.045.196.11.275.19.159.155.3.328.421.516a21.821 21.821 0 0 1-2.163 2.643Zm4.724-7.493-.001.002a22.158 22.158 0 0 1-1.132 2.508 4.109 4.109 0 0 0-.513-.432 2.874 2.874 0 0 0-1.639-.542 2.707 2.707 0 0 0-1.137.256 4.997 4.997 0 0 0-2.105 2.038 6.185 6.185 0 0 0-.867 3.09 5.004 5.004 0 0 0 .646 2.464 25.852 25.852 0 0 1-5.559 3.423 484.003 484.003 0 0 0-2.01-7.289 10.017 10.017 0 0 0-1.332-2.838 5.473 5.473 0 0 0-1.172-1.26 3.48 3.48 0 0 0-.683-.396 1.178 1.178 0 0 0-.084-.196 45.692 45.692 0 0 0 1.995-13.477 55.58 55.58 0 0 0-2.278-15.443 47.534 47.534 0 0 0-1.28-7.512c2.688.177 5.423.439 7.999.821 2.578.349 5.122.917 7.603 1.698a11.135 11.135 0 0 1 4.55 2.483 10.576 10.576 0 0 1 2.217 4.305c.579 2.192.855 4.453.82 6.72a57.428 57.428 0 0 1-4.038 19.577Z"/><path fill="#BEBEC9" d="M106.827 83.386a1.302 1.302 0 0 0-1.765.514 4.477 4.477 0 0 1-1.82 1.594c-.965.51-2.039.78-3.13.788a5.552 5.552 0 0 1-2.366-.512 6.016 6.016 0 0 1-2.187-1.786 1.3 1.3 0 1 0-2.045 1.606 8.625 8.625 0 0 0 3.132 2.535 8.157 8.157 0 0 0 3.466.757 9.406 9.406 0 0 0 4.343-1.088 6.962 6.962 0 0 0 2.886-2.642 1.299 1.299 0 0 0-.514-1.765ZM181.283 100.526l-.001-.006-.001-.006.002.012ZM127.563 109.999h-.001l-.001-.001.002.001Z"/><path fill="#BEBEC9" d="M195.984 52.274a1.308 1.308 0 0 0-.919-.381h-5.422a.405.405 0 0 1-.313.005c-3.718.006-8.465-.938-15.038-1.906a173.292 173.292 0 0 0-26.132-1.934 97.914 97.914 0 0 0-30.349 4.894c-3.889 1.218-7.268 2.429-10.228 3.32a27.793 27.793 0 0 1-7.588 1.45 27.785 27.785 0 0 1-7.583-1.45c-8.894-2.675-21.473-8.22-40.572-8.214-8.748-.016-17.485.63-26.136 1.934-6.572.968-11.316 1.912-15.034 1.906a1.257 1.257 0 0 0-.145.029 1.25 1.25 0 0 0-.17-.034h-5.42a1.3 1.3 0 0 0-1.3 1.3v15.425c.001.177.039.352.11.513a1.283 1.283 0 0 0 1.182 1.171c.634.03 1.251.204 1.807.509.677.4 1.22.994 1.555 1.705.329.674.532 1.401.601 2.147.151 1.612.63 8.26 1.278 15.024.325 3.385.692 6.806 1.085 9.67.197 1.433.4 2.726.61 3.816.155.902.383 1.789.683 2.653.202.577.493 1.12.862 1.608.184.232.406.43.658.586.295.18.634.277.98.279.442-.006.869-.161 1.212-.44a3.842 3.842 0 0 0 1.023-1.412c.39-.889.688-1.815.89-2.764.237-1.046.42-2.103.546-3.168v-.007c.02-.195.027-.392.024-.59 0-.795-.067-2.212-.173-4.01a429.337 429.337 0 0 0-.327-4.95 47.128 47.128 0 0 0 3.884 8.283c-.416.41-.75.895-.986 1.43a5.861 5.861 0 0 0-.495 2.794V103.478h.001a6.926 6.926 0 0 0 1.358 3.729 5.039 5.039 0 0 0 2.732 1.839 5.957 5.957 0 0 0 1.15 1.739 5.397 5.397 0 0 0 2.684 1.524 6.028 6.028 0 0 0 1.727 1.458c.95.546 2.026.835 3.122.842.3 0 .599-.023.895-.069.041-.013.082-.028.122-.045.058.007.117.01.176.008a6.834 6.834 0 0 0 3.205-1.339v-.001c.28 1.707.627 3.791.742 4.468a1.304 1.304 0 0 0 1.5 1.063 1.305 1.305 0 0 0 1.064-1.5c-.108-.633-.43-2.563-.7-4.214 1.511.413 3.047.731 4.599.952v.001h.007l.01.002c1.203.185 2.446.309 3.74.39 1.537.096 3.014.143 4.433.143a54.347 54.347 0 0 0 4.924-.226c.017.013.026.033.044.046a72.293 72.293 0 0 0 41.538 12.733 70.865 70.865 0 0 0 14.736-1.714c.185 1.003.389 1.959.603 2.846a41.165 41.165 0 0 0 2.14 6.624 1.3 1.3 0 1 0 2.372-1.063 27.148 27.148 0 0 1-.877-2.313l1.952-.74a22.89 22.89 0 0 0 1.027 2.466 1.283 1.283 0 0 0 .752.654 1.304 1.304 0 0 0 1.395-.382 1.303 1.303 0 0 0 .178-1.436 20.055 20.055 0 0 1-.935-2.218l2.104-.797c.301.869.654 1.719 1.055 2.546a1.302 1.302 0 0 0 1.745.581 1.3 1.3 0 0 0 .581-1.744 27.781 27.781 0 0 1-2.204-6.93 43.986 43.986 0 0 1-.295-1.745 72.567 72.567 0 0 0 3.039-1.327l.017.027a53.033 53.033 0 0 0 3.963 5.405 1.3 1.3 0 1 0 1.968-1.698l-.016-.019a46.117 46.117 0 0 1-2.001-2.577 57.361 57.361 0 0 1 1.64-1.333 45.386 45.386 0 0 0 1.992 2.544 1.3 1.3 0 1 0 1.968-1.698l-.041-.049a44.852 44.852 0 0 1-1.846-2.368l.111-.083c.7-.514 1.313-.952 1.75-1.261l.02-.014c1.026 1.378 1.738 2.204 1.754 2.223a1.3 1.3 0 1 0 1.969-1.698l-.019-.023c-.166-.193-1.363-1.619-2.818-3.731 2.416.337 4.852.502 7.29.494 1.421 0 2.9-.048 4.435-.145h.003a43.686 43.686 0 0 0 4.048-.432v.001l.008-.002h.005v-.001a37.798 37.798 0 0 0 5.247-1.161c.153.572.304 1.13.449 1.657.004.013.014.023.018.036a206.661 206.661 0 0 1-.461 3.041 1.292 1.292 0 0 0 .221.97 1.298 1.298 0 0 0 2.342-.532c.093-.544.298-1.924.507-3.35l.134-.912c.767.441 1.61.734 2.486.863.088.005.176.001.262-.012.145.009.29.027.433.027.032 0 .063-.007.095-.008a106.225 106.225 0 0 1-.596 3.288v-.001a30.33 30.33 0 0 1-1.011 3.969 6.1 6.1 0 0 1-.874 1.737 2.573 2.573 0 0 1-1.017.814 2.202 2.202 0 0 1-.847.179h-.007a1.308 1.308 0 0 0-1.204.798 1.31 1.31 0 0 0-.004.995 1.293 1.293 0 0 0 .701.707c.158.066.327.1.497.1h.017a4.773 4.773 0 0 0 1.898-.4l.007-.003a5.207 5.207 0 0 0 2.009-1.591l.018-.022a8.672 8.672 0 0 0 1.251-2.43l.006-.016a32.665 32.665 0 0 0 1.109-4.323v-.001c.257-1.28.516-2.754.786-4.443a6.443 6.443 0 0 0 1.201-.708c.316-.249.604-.532.859-.843a5.415 5.415 0 0 0 2.723-1.529 5.986 5.986 0 0 0 1.154-1.74 5.02 5.02 0 0 0 2.738-1.841 6.94 6.94 0 0 0 1.355-3.74 5.712 5.712 0 0 0-.875-3.488 4.108 4.108 0 0 0-.917-.985 47.694 47.694 0 0 0 3.765-8.067 403.36 403.36 0 0 0-.33 4.983c-.106 1.797-.173 3.214-.174 4.01-.003.201.006.402.026.601.179 1.593.501 3.166.963 4.701.195.656.472 1.285.824 1.872.18.291.407.55.671.766.343.279.77.434 1.212.44.346-.002.685-.099.98-.279.369-.236.679-.554.905-.93.247-.399.453-.822.615-1.263h.001c.299-.865.528-1.752.682-2.654.733-3.802 1.401-10.176 1.93-16.009.528-5.82.912-11.094 1.043-12.5a5.82 5.82 0 0 1 1.007-2.815 3.665 3.665 0 0 1 1.15-1.038 4.152 4.152 0 0 1 1.807-.509 1.285 1.285 0 0 0 1.182-1.17c.072-.163.109-.337.11-.514V53.193a1.308 1.308 0 0 0-.38-.92ZM6.234 67.318V54.493h2.822v12.825H6.235Zm9.904 32.818-.003.061v.013a24.22 24.22 0 0 1-.858 4.216c-.075.238-.154.45-.232.641-.024-.058-.048-.108-.073-.174a14.704 14.704 0 0 1-.556-2.213c-.694-3.584-1.37-9.959-1.893-15.75-.526-5.805-.906-11.03-1.044-12.508a8.378 8.378 0 0 0-1.499-4.11 6.639 6.639 0 0 0-.318-.394h.527c.532.303.991.718 1.347 1.217 1 1.504 1.758 3.156 2.246 4.896.292.895.577 1.866.865 2.888a1.252 1.252 0 0 0-.013.146c.23 2.013.61 6.539.928 10.897.16 2.181.306 4.325.41 6.1.106 1.77.17 3.194.17 3.857l-.004.217Zm8.61 4.363a6.888 6.888 0 0 0-.394 1.436 3.215 3.215 0 0 1-.291-.314 4.357 4.357 0 0 1-.825-2.33l-.001-.014-.008-.216a3.15 3.15 0 0 1 .465-1.661c.096-.156.221-.292.37-.401a.313.313 0 0 1 .174-.07l.129.037c.102.058.195.129.278.211.035.093.063.188.084.284.122.483.237 1.304.437 2.205-.16.268-.3.546-.419.833Zm2.934 4.393a3.15 3.15 0 0 1-.801-1.678v-.005a2.349 2.349 0 0 1-.017-.287c.013-.661.187-1.31.505-1.89.11-.208.26-.393.438-.546.127-.094.166-.09.192-.093.027.003.153 0 .45.251.147.235.253.493.314.763.093.309.19.693.312 1.115a4.702 4.702 0 0 0-1.393 2.37Zm6.534 3.041a1.102 1.102 0 0 0-.124.046 1.175 1.175 0 0 0-.178-.008c-.164.025-.33.038-.496.038a3.818 3.818 0 0 1-2.341-.845 2.968 2.968 0 0 1-.544-.582 1.293 1.293 0 0 0-.165-.243 1.38 1.38 0 0 1-.19-.642l.015-.163v-.003c.097-.426.324-.812.649-1.103.24-.243.559-.393.9-.423a.543.543 0 0 1 .273.067 1 1 0 0 1 .335.327c.108.167.184.353.222.548.04.181.059.366.059.551l-.004.126-.001.021.002.001a1.298 1.298 0 0 0 1.15 1.423c.29.026.582-.048.825-.21.387.188.804.35 1.207.525a4.413 4.413 0 0 1-1.595.549Zm65.473 12.488a69.653 69.653 0 0 1-37.642-10.696 31.14 31.14 0 0 0 10.787-3.955c.477-.29.931-.607 1.386-.923a60.742 60.742 0 0 0 5.165 1.966l.055.017.174.048c.51.161 1.037.325 1.585.476v.001l.007.001.052.016v-.001c.344.11.7.212 1.064.296v.001l.096.025.146.042.03.009c.409.109.831.223 1.276.329l.017.004.274.06c.462.113.923.213 1.372.311l.005.001a72.558 72.558 0 0 0 15.172 1.549 73.486 73.486 0 0 0 13.1-1.162 40.558 40.558 0 0 0-.179 3.796c.004 2.042.142 4.08.413 6.103a68.2 68.2 0 0 1-14.355 1.686Zm16.365-14.672a72.355 72.355 0 0 1-29.972.157c-.46-.1-.907-.197-1.331-.301l-.03-.007-.257-.057c-.39-.092-.782-.197-1.186-.306l-.153-.045-.047-.013-.12-.03-.028-.006c-.305-.07-.619-.159-.93-.26l-.058-.018a42.607 42.607 0 0 1-1.582-.475l-.04-.012-.142-.04a59.81 59.81 0 0 1-3.585-1.318 39.004 39.004 0 0 0 8.445-10.86v-.002c3.159-5.727 4.994-11.953 7.099-16.603a18.633 18.633 0 0 1 3.412-5.487 6.614 6.614 0 0 1 2.002-1.416 5.92 5.92 0 0 1 2.44-.492l.009-.002.01.002c.839-.01 1.67.157 2.439.492a8.207 8.207 0 0 1 3.356 3.089 47.265 47.265 0 0 1 4.194 9.084 89.3 89.3 0 0 0 4.963 11.334 38.234 38.234 0 0 0 8.903 11.25c-.47.178-.942.355-1.424.523l-.027.01a8.309 8.309 0 0 1-.414.138l-.05.016c-.222.08-.436.149-.657.208l-.074.022a52.328 52.328 0 0 1-4.606 1.288l-.032.008c-.193.051-.362.095-.505.125l-.022.004Zm1.883 19.157a50.21 50.21 0 0 1-.354-1.365 46.966 46.966 0 0 1-1.352-10.909c.005-1.444.094-2.887.265-4.321.036-.008.073-.013.108-.021l.009-.002.013-.002v-.001c.215-.046.408-.096.581-.142l.012-.003.02-.004v-.001a54.602 54.602 0 0 0 4.802-1.344v-.001c.254-.07.499-.148.738-.233v.001c.069-.022.16-.054.238-.08a57.136 57.136 0 0 0-.133 3.646c-.011 3.28.292 6.554.906 9.777.175.893.38 1.739.598 2.561l-6.451 2.444Zm7.772-9.929a51.716 51.716 0 0 1-.225-4.853c0-.169.011-.343.012-.512a39.832 39.832 0 0 0 2.231 4.479 68.97 68.97 0 0 1-2.018.886Zm5.822.337c-.143-.217-.285-.429-.429-.656a34.826 34.826 0 0 1-4.281-9.135c.249.156.486.327.741.476a30.192 30.192 0 0 0 8.377 3.291c.395.635.787 1.237 1.166 1.795-1.157.816-3.526 2.524-5.575 4.229h.001Zm38.521-8.963a3.05 3.05 0 0 1-1.195 1.081 4.116 4.116 0 0 1-2.433.455h-.007a4.208 4.208 0 0 1-1.707-.712 30.46 30.46 0 0 0 1.296-.626c.224.107.475.145.72.109a1.294 1.294 0 0 0 1.063-1.449l.009-.001-.001-.025a1.4 1.4 0 0 1 .281-.784c.085-.134.199-.246.335-.327a.545.545 0 0 1 .274-.067c.34.03.659.179.899.422.325.292.552.678.648 1.104l.017.173a1.29 1.29 0 0 1-.199.647Zm3.498-3.14-.001.003a3.143 3.143 0 0 1-.804 1.676 4.699 4.699 0 0 0-1.393-2.369c.132-.462.236-.878.338-1.202.053-.183.121-.361.202-.533l.07-.12.018-.022c.298-.251.424-.248.45-.251.026.003.066-.001.192.093.293.269.515.606.647.982.187.462.287.955.297 1.454 0 .097-.005.193-.016.289Zm3.644-3.927-.001.006a4.368 4.368 0 0 1-.822 2.332c-.092.113-.191.22-.296.32a6.642 6.642 0 0 0-.758-2.2c-.014-.025-.035-.048-.05-.073.142-.641.235-1.236.325-1.706.04-.236.093-.47.159-.701l.029-.08c.265-.248.384-.249.411-.253.064.005.125.03.175.07.247.195.439.451.555.743.184.416.28.866.28 1.321l-.007.221Zm3.241-16.557a49.209 49.209 0 0 1-5.173 11.78 3.597 3.597 0 0 0-1.42.931c-.27.301-.466.66-.573 1.049a11.54 11.54 0 0 0-.299 1.363 2.72 2.72 0 0 0-.54-.057 3.309 3.309 0 0 0-2.163.894l-.009.008a3.02 3.02 0 0 0-.687.919 7.59 7.59 0 0 0-.498 1.394c-.041.145-.083.283-.123.426-.088-.007-.172-.029-.263-.029a3.152 3.152 0 0 0-1.514.382 3.587 3.587 0 0 0-1.234 1.134c-.207.302-.373.63-.493.976a31.22 31.22 0 0 1-10.558 3.425l-.013.002a41.015 41.015 0 0 1-3.82.406h.003a67.78 67.78 0 0 1-4.272.14 46.893 46.893 0 0 1-8.364-.691 28.469 28.469 0 0 1-9.543-3.421l-.002-.002c-4.813-2.822-8.444-7.081-11.64-12.857-2.995-5.403-4.805-11.512-7.007-16.414a21.006 21.006 0 0 0-3.94-6.256 9.188 9.188 0 0 0-2.789-1.956 8.525 8.525 0 0 0-3.491-.715l-.01.002-.01-.002a8.527 8.527 0 0 0-3.491.715 10.774 10.774 0 0 0-4.459 4.008 49.226 49.226 0 0 0-4.47 9.61 87.422 87.422 0 0 1-4.807 11.007c-3.119 5.629-6.65 9.828-11.282 12.652-4.635 2.82-10.445 4.315-18.27 4.318-1.362 0-2.786-.046-4.27-.138a39.159 39.159 0 0 1-3.522-.367l-.017-.002a31.86 31.86 0 0 1-10.345-3.182 4.017 4.017 0 0 0-.569-1.258 3.587 3.587 0 0 0-1.233-1.134 3.15 3.15 0 0 0-1.514-.382c-.093 0-.18.023-.271.03-.08-.293-.16-.589-.25-.886a6.085 6.085 0 0 0-.36-.931 3.026 3.026 0 0 0-.688-.923l-.01-.009a3.313 3.313 0 0 0-2.163-.893c-.182.001-.363.02-.541.057l-.068-.37a9.23 9.23 0 0 0-.232-.99 2.623 2.623 0 0 0-.558-1.04l-.012-.012a3.847 3.847 0 0 0-1.084-.81 2.927 2.927 0 0 0-.845-.25c-3.553-5.65-5.355-12.276-6.904-17.976a63.848 63.848 0 0 0-2.494-7.867 14.105 14.105 0 0 0-1.651-2.968 7.22 7.22 0 0 0-1.64-1.604V54.46c3.842-.175 8.27-1.042 14.111-1.896a170.643 170.643 0 0 1 25.759-1.906 95.278 95.278 0 0 1 29.567 4.776c3.83 1.199 7.199 2.406 10.254 3.328 2.655.895 5.42 1.42 8.218 1.56.011 0 .02.006.031.006l.085-.003c.029 0 .057.003.085.003.011 0 .02-.006.031-.006a30.501 30.501 0 0 0 8.222-1.56c9.153-2.764 21.208-8.098 39.827-8.104 8.621-.016 17.23.621 25.755 1.906 5.842.854 10.273 1.721 14.115 1.896v13.503a7.215 7.215 0 0 0-1.639 1.603 19.502 19.502 0 0 0-2.646 5.652c-1.088 3.336-2.015 7.359-3.31 11.51Zm8.95-15.376a8.78 8.78 0 0 0-.866 3.07c-.157 1.687-.631 8.28-1.277 15.018-.322 3.365-.687 6.76-1.072 9.564a70.468 70.468 0 0 1-.588 3.677 14.776 14.776 0 0 1-.556 2.213c-.024.064-.048.116-.071.173a13.473 13.473 0 0 1-.614-2.054 28.361 28.361 0 0 1-.478-2.807l-.001-.011v-.002a4.376 4.376 0 0 1-.006-.273c0-.663.064-2.086.169-3.857.315-5.322.994-13.97 1.339-16.997a1.185 1.185 0 0 0-.014-.158 45.59 45.59 0 0 1 1.779-5.353c.347-.857.795-1.669 1.335-2.42a4.204 4.204 0 0 1 1.348-1.216h.529a7.061 7.061 0 0 0-.956 1.433Zm4.379-4.033h-2.821V54.493h2.821v12.825Z"/></svg>