<svg xmlns="http://www.w3.org/2000/svg" width="200" height="200" fill="none"><path fill="#FFE632" d="M82.44 78.71a16.152 16.152 0 0 0-1.39 6.306 8.242 8.242 0 0 0 1.262 4.712 4.993 4.993 0 0 0 1.81 1.606 5.46 5.46 0 0 0 2.532.581c.476-.002.95-.048 1.418-.137a9.175 9.175 0 0 0 4.007-1.846 13.033 13.033 0 0 0 3.81-5.196 16.05 16.05 0 0 0 1.277-6.135 9.28 9.28 0 0 0-1.241-4.966 5.165 5.165 0 0 0-1.768-1.724 5.001 5.001 0 0 0-2.525-.65 6.628 6.628 0 0 0-1.298.135h-.001a9.115 9.115 0 0 0-3.974 1.934 14.341 14.341 0 0 0-3.92 5.38Zm5.563-3.366a6.517 6.517 0 0 1 2.84-1.398l-.255-1.275.256 1.274c.26-.053.523-.081.788-.083.43-.011.853.093 1.227.302.57.365 1 .912 1.222 1.552.341.923.506 1.901.485 2.885a13.496 13.496 0 0 1-1.886 6.722 9.496 9.496 0 0 1-2.21 2.566 6.565 6.565 0 0 1-2.876 1.333c-.31.06-.624.091-.94.093a2.858 2.858 0 0 1-1.338-.29 2.671 2.671 0 0 1-1.202-1.385 6.668 6.668 0 0 1-.465-2.624 14.02 14.02 0 0 1 2.045-6.951 10.668 10.668 0 0 1 2.309-2.721ZM128.872 73.872a4.79 4.79 0 0 0-1.778-1.469 5.596 5.596 0 0 0-2.438-.518c-.125 0-.252.003-.379.01h-.001a9.266 9.266 0 0 0-4.588 1.574 15.076 15.076 0 0 0-4.841 5.491 14.61 14.61 0 0 0-1.848 6.669 6.55 6.55 0 0 0 1.349 4.26 4.908 4.908 0 0 0 1.874 1.38 6.452 6.452 0 0 0 2.525.472 9.273 9.273 0 0 0 4.995-1.508 13.788 13.788 0 0 0 4.694-5.4 14.952 14.952 0 0 0 1.692-6.584 7.26 7.26 0 0 0-1.256-4.377Zm-3.797 11.504a10.17 10.17 0 0 1-2.733 2.666 6.668 6.668 0 0 1-3.355 1.094l-.24.005a3.867 3.867 0 0 1-1.513-.266 2.315 2.315 0 0 1-1.2-1.123 4.655 4.655 0 0 1-.435-2.123c.027-1.22.264-2.426.699-3.566a14.211 14.211 0 0 1 3.302-5.194 7.608 7.608 0 0 1 4.813-2.377l-.068-1.299.069 1.299.242-.007c.453-.012.902.078 1.315.264.506.25.905.676 1.124 1.197.308.728.456 1.513.433 2.303a12.969 12.969 0 0 1-2.453 7.127ZM111.898 98.886a1.294 1.294 0 0 0 .053-1.206 1.302 1.302 0 0 0-.962-.73 52.444 52.444 0 0 0-8.446-.607c-2.726 0-5.45.137-8.161.411a1.299 1.299 0 0 0-1.142 1.108 4.547 4.547 0 0 0-.036.609 5.908 5.908 0 0 0 1.268 3.701 5.97 5.97 0 0 0 2.41 1.75c1.25.48 2.584.71 3.923.677a13.387 13.387 0 0 0 8.42-2.811 11.3 11.3 0 0 0 2.673-2.902ZM100.805 102a7.706 7.706 0 0 1-2.934-.481 3.114 3.114 0 0 1-1.732-1.538c-.115-.241-.2-.495-.251-.757a82.1 82.1 0 0 1 6.655-.28c1.825 0 3.794.076 5.699.27a10.18 10.18 0 0 1-.968.79 10.831 10.831 0 0 1-6.469 1.996ZM90.579 128.531v-.002l-4.383-1.459c-.018-.006-.036-.001-.053-.006-.016-.005-.03-.012-.046-.016a6.377 6.377 0 0 0-1.79-.253 8.242 8.242 0 0 0-5.311 2.164 13.48 13.48 0 0 0-3.683 5.391 1.306 1.306 0 0 0 .319 1.409 1.29 1.29 0 0 0 .928.357 1.291 1.291 0 0 0 1.18-.834 10.896 10.896 0 0 1 2.952-4.352 5.67 5.67 0 0 1 3.616-1.535c.36-.001.719.05 1.065.15a4.445 4.445 0 0 1 2.592 2.187 8.887 8.887 0 0 1 1.047 4.383 12.472 12.472 0 0 1-.505 3.46 11.549 11.549 0 0 1-2.988 5.128 5.9 5.9 0 0 1-3.953 1.835 3.831 3.831 0 0 1-1.07-.15 3.933 3.933 0 0 1-1.71-1.03 1.29 1.29 0 0 0-.919-.382 1.307 1.307 0 0 0-1.201.802 1.304 1.304 0 0 0 .28 1.417 6.534 6.534 0 0 0 2.831 1.691c.17.049.342.075.514.11.026.011.044.032.07.041l3.788 1.302.062.019a6.39 6.39 0 0 0 1.786.252 8.468 8.468 0 0 0 5.75-2.556 14.111 14.111 0 0 0 3.691-6.283c.397-1.358.6-2.765.605-4.179a11.487 11.487 0 0 0-1.39-5.682 7.048 7.048 0 0 0-4.074-3.379Zm2.362 12.517a11.528 11.528 0 0 1-2.989 5.125 5.911 5.911 0 0 1-3.955 1.837 3.87 3.87 0 0 1-.504-.035 10.406 10.406 0 0 0 1.82-1.391 14.126 14.126 0 0 0 3.692-6.286c.398-1.359.602-2.767.607-4.183a11.923 11.923 0 0 0-.933-4.714 4.811 4.811 0 0 1 1.717 1.799 8.915 8.915 0 0 1 1.047 4.392 12.49 12.49 0 0 1-.502 3.456ZM156.229 171.428l-.2.11a1.3 1.3 0 0 0 1.255 2.277l.2-.11a1.3 1.3 0 0 0-1.255-2.277ZM161.739 168.074a1.287 1.287 0 0 0-.958-.268 1.298 1.298 0 0 0-.867.489v-.001a8.44 8.44 0 0 1-.5.578 1.292 1.292 0 0 0-.247 1.425 1.3 1.3 0 0 0 2.133.364c.225-.237.45-.495.66-.762a1.298 1.298 0 0 0-.221-1.825ZM135.633 143.107a4.357 4.357 0 0 0-2.873-1.082 4.946 4.946 0 0 0-3.92 2.075 1.301 1.301 0 0 0 1.209 2.076 1.306 1.306 0 0 0 .86-.501c.204-.308.478-.564.8-.746a2.341 2.341 0 0 1 1.051-.304c.428-.001.841.156 1.162.44.401.371.661.87.737 1.412a1.3 1.3 0 0 0 2.56-.457l-.001-.001a4.976 4.976 0 0 0-1.585-2.912ZM113.176 142.687a1.3 1.3 0 0 0 1.135-1.447h-.001a4.889 4.889 0 0 0-1.229-2.813 3.54 3.54 0 0 0-1.17-.834 3.543 3.543 0 0 0-1.406-.297 3.846 3.846 0 0 0-2.021.594 5.393 5.393 0 0 0-1.643 1.631 1.302 1.302 0 0 0 1.806 1.802c.142-.095.264-.218.358-.36.215-.343.501-.635.839-.857a1.26 1.26 0 0 1 .661-.21.926.926 0 0 1 .688.318c.316.378.504.847.536 1.339a1.297 1.297 0 0 0 .941 1.096c.164.046.336.059.506.038ZM125.484 144.669a12.931 12.931 0 0 0-4.362-1.634 15.526 15.526 0 0 0-3.2-.378 7.775 7.775 0 0 0-2.519.377 5.076 5.076 0 0 0-2.576 1.909 7.297 7.297 0 0 0-1.102 2.716 8.882 8.882 0 0 0-.214 1.831 5.222 5.222 0 0 0 .365 1.981 5.321 5.321 0 0 0 2.254 2.52 13.75 13.75 0 0 0 4.341 1.563c1.123.254 2.268.391 3.418.409a7.75 7.75 0 0 0 2.466-.359 4.873 4.873 0 0 0 2.518-1.86 7.208 7.208 0 0 0 1.06-2.656l-1.272-.269 1.272.269a8.329 8.329 0 0 0 .194-1.717 5.548 5.548 0 0 0-.373-2.058 5.612 5.612 0 0 0-2.27-2.644Zm-.486 7.132c-.192.46-.525.847-.952 1.106a4.19 4.19 0 0 1-2.157.456 14.168 14.168 0 0 1-2.879-.353 8.944 8.944 0 0 1-4.115-1.674 2.276 2.276 0 0 1-.61-.842 2.627 2.627 0 0 1-.174-1.004c.008-.435.061-.868.158-1.292.086-.44.223-.869.407-1.277a2.578 2.578 0 0 1 1.023-1.179 4.274 4.274 0 0 1 2.224-.485c.895.015 1.787.123 2.66.321a8.459 8.459 0 0 1 4.098 1.747c.286.262.51.585.655.944.133.352.198.726.191 1.102a5.71 5.71 0 0 1-.138 1.18c-.083.43-.214.849-.391 1.25Z"/><path fill="#FFE632" d="M117.964 146.505a1.314 1.314 0 0 0-1.403.344 1.303 1.303 0 0 0-.262.434 9.89 9.89 0 0 0-.266.888 8.37 8.37 0 0 0-.272 1.914 1.3 1.3 0 1 0 2.6.021c.015-.439.08-.875.194-1.299.049-.196.099-.363.135-.477l.042-.128.01-.029.002-.005h-.001a1.3 1.3 0 0 0-.779-1.663ZM122.586 147.471a1.297 1.297 0 0 0-1.488 1.079h-.001l-.008.049c-.12.725-.277 1.444-.47 2.153a1.299 1.299 0 0 0 2.266 1.175c.106-.134.185-.288.232-.453.226-.828.409-1.667.548-2.514a1.303 1.303 0 0 0-1.079-1.489Z"/><path fill="#BEBEC9" d="m143.633 13.309.002-.001.001-.001-.003.002ZM18.137 25.487v-.001l-.001-.003v.004ZM98.586 123.181h-.003l-.004.001.007-.001ZM100.602 122.662l-.005.001-.005.002.01-.003ZM86.036 123.177l-.007-.002-.005-.001.012.003ZM128.844 101.432a28.85 28.85 0 0 0 8.629-8.737 34.066 34.066 0 0 0 4.282-10.622l-1.267-.293 1.267.293c.577-2.38.884-4.818.914-7.267a18.01 18.01 0 0 0-1.838-8.294 16.087 16.087 0 0 0-4.239-5.174 28.826 28.826 0 0 0-11.664-5.259 83.338 83.338 0 0 0-19.132-1.858c-16.623.003-27.752 2.956-35.23 7.908a28.7 28.7 0 0 0-8.596 8.74 34.285 34.285 0 0 0-4.26 10.619 32.189 32.189 0 0 0-.904 7.204 18.052 18.052 0 0 0 1.847 8.318 16.159 16.159 0 0 0 4.248 5.188 28.865 28.865 0 0 0 11.667 5.276 82.858 82.858 0 0 0 19.103 1.865c16.551-.002 27.679-2.956 35.173-7.907Zm-62.536.014a14.355 14.355 0 0 1-5.34-5.62 15.458 15.458 0 0 1-1.562-7.134c.03-2.23.31-4.451.838-6.62a31.699 31.699 0 0 1 3.928-9.822c2.822-4.484 7.07-8.293 13.708-11.042 6.636-2.744 15.673-4.388 27.916-4.387 13.607-.008 22.287 2.05 27.394 5.275a14.277 14.277 0 0 1 5.325 5.598 15.424 15.424 0 0 1 1.554 7.112 29.917 29.917 0 0 1-.848 6.682 31.459 31.459 0 0 1-3.946 9.82c-2.838 4.484-7.11 8.295-13.753 11.045-6.64 2.744-15.664 4.387-27.851 4.386-13.573.008-22.25-2.057-27.363-5.293Z"/><path fill="#BEBEC9" d="M91.304 60.843a51.934 51.934 0 0 0-12.16 3.247 1.3 1.3 0 0 0 1 2.4 49.369 49.369 0 0 1 11.552-3.077 1.3 1.3 0 0 0-.392-2.57ZM73.133 67.316a27.661 27.661 0 0 0-2.785 2.174 1.3 1.3 0 0 0 1.73 1.942 25.014 25.014 0 0 1 2.523-1.97 1.3 1.3 0 1 0-1.468-2.146ZM22.278 20.124l.001-.001h.001l-.002.001ZM80.837 132.915l.002.001.003.001-.005-.002Z"/><path fill="#BEBEC9" d="M179.831 147.494a1.3 1.3 0 0 0-1.558-.977 5.792 5.792 0 0 1-1.298.152 4.806 4.806 0 0 1-.479-.039 6.341 6.341 0 0 0 .603-2.532 4.24 4.24 0 0 0-.066-.762 3.363 3.363 0 0 0-1.116-2.007 3.028 3.028 0 0 0-1.951-.698c-.862.004-1.69.34-2.311.938a3.482 3.482 0 0 0-1.05 2.548 4.024 4.024 0 0 0 .705 2.284c.334.502.745.95 1.216 1.326-.069.061-.134.13-.206.187a4.317 4.317 0 0 1-2.674 1.012 3.814 3.814 0 0 1-.803-.095c.113-1.135.184-2.26.184-3.368a18.109 18.109 0 0 0-3.056-10.734c-2.202-3.132-5.746-5.74-10.996-7.736.016-.231.041-.462.042-.691a5.471 5.471 0 0 0-.359-2.091 3.212 3.212 0 0 0-.614-.966 2.832 2.832 0 0 0-1.017-.694 6.507 6.507 0 0 0-2.415-.423 10.639 10.639 0 0 0-3.492.633c-.918.322-1.787.772-2.581 1.335-4.159-.974-9.175-2.053-12.672-2.49-.61-.075-1.226-.147-1.845-.216a29.576 29.576 0 0 0-2.213-2.519c-.669-.692-1.4-1.32-2.184-1.878a7.033 7.033 0 0 0-1.242-.695 3.758 3.758 0 0 0-1.436-.316 2.77 2.77 0 0 0-.69.087 3.526 3.526 0 0 0-1.294.664 6.502 6.502 0 0 0-1.499 1.806 15.626 15.626 0 0 0-1.286 2.901c-.189.558-.31.994-.376 1.242a8.407 8.407 0 0 0-.477.318c-.157-.33-.317-.644-.487-.927a4.23 4.23 0 0 0-1.705-1.731 10.406 10.406 0 0 0-1.926-.638 66.1 66.1 0 0 0-9.565-1.289l-.017-.003a59.687 59.687 0 0 0-2.129-.32v-3.078a82.875 82.875 0 0 0 18.813-3.382c11.53-3.645 19.191-9.904 23.855-17.956a40.546 40.546 0 0 0 2.908-6.193c.239.063.486.097.734.1a3.97 3.97 0 0 0 2.521-1.03 11.384 11.384 0 0 0 2.743-3.89 25.85 25.85 0 0 0 1.86-5.846 28.71 28.71 0 0 0 .571-5.563 17.712 17.712 0 0 0-.535-4.538c.176-.261.3-.553.366-.861l.001-.008c.021-.114.028-.189.037-.281.026-.308.043-.759.058-1.399.013-.636.021-1.446.021-2.404 0-4.97-.212-13.944-.984-23.005-.387-4.53-.914-9.082-1.629-13.173a48.9 48.9 0 0 0-2.797-10.464l-.002-.006a3.786 3.786 0 0 0-1.868-1.822 5.602 5.602 0 0 0-2.41-.554 3.871 3.871 0 0 0-2.124.57c-.51.345-.981.744-1.406 1.19a17.71 17.71 0 0 0-4.456 8.782 25.186 25.186 0 0 0-.353 2.778c-.029.34-.057.707-.083 1.085a39.703 39.703 0 0 0-6.635-5.184c-9.05-5.656-21.672-8.883-38.965-8.883-15.77 0-27.648 2.683-36.483 7.444a38.87 38.87 0 0 0-16.47 16.53l-.013-.046a123.044 123.044 0 0 0-4.58-13.171c-1.664-3.883-3.397-7.057-5.372-9.047a4.419 4.419 0 0 0-3.175-1.28 5.815 5.815 0 0 0-2.745.717 5.115 5.115 0 0 0-1.067.766c-.326.3-.589.66-.774 1.063-.272.616-.995 2.19-1.651 3.906-.33.861-.644 1.761-.882 2.622a9.632 9.632 0 0 0-.412 2.457c0 .15.008.3.024.448.023.202.066.466.134.868.08.466.197 1.114.339 1.884-.053.305.005.62.164.885.807 4.323 2.263 11.822 3.68 19.08.902 4.616 1.786 9.122 2.47 12.621.684 3.496 1.173 6.002 1.274 6.565.116.709.386 1.383.792 1.975a3.81 3.81 0 0 0 1.47 1.247 27.752 27.752 0 0 0-.295 3.9 15.752 15.752 0 0 0 2.424 8.985c.075.113.155.213.232.32a7.963 7.963 0 0 0 1.395 1.897c.338.334.726.61 1.151.821.069.033.147.05.218.078.415.307.846.591 1.291.853.622.364 1.263.695 1.92.992a37.148 37.148 0 0 0 17.603 19.528c7.358 3.925 16.898 6.395 29.127 7.145v2.636c-.6.085-1.193.181-1.774.294-2.442.133-4.648.334-6.474.62-.829.124-1.65.293-2.46.505a8.191 8.191 0 0 0-1.877.723 12.936 12.936 0 0 0-3.485 3.064 8.31 8.31 0 0 0-2.35-.339 11.352 11.352 0 0 0-4.99 1.268 24.741 24.741 0 0 0-7.72 6.458 57.57 57.57 0 0 0-7.521 12.034 17.78 17.78 0 0 0-1.907 7.752c0 .447.026.876.064 1.296a9.012 9.012 0 0 0-1.31 4.754c.002.48.033.959.094 1.435.139 1.231.471 2.432.985 3.56a8.39 8.39 0 0 0 3.181 3.582 14.163 14.163 0 0 0 4.6 1.735c1.052.215 2.124.319 3.198.309 2.508-.042 5-.402 7.418-1.071.053 5.36.33 10.533.806 14.885.263 2.409.586 4.567.97 6.38.275 1.513.742 2.983 1.389 4.377a1.299 1.299 0 1 0 2.306-1.2 15.831 15.831 0 0 1-1.15-3.716 66.196 66.196 0 0 1-1.002-6.812c.301.084.614.164.926.244.015.003.025.014.04.017.029.007.057.009.086.015a72.535 72.535 0 0 0 10.292 1.686c4.775.478 9.987.686 15.148.687 6.717.017 13.428-.345 20.104-1.084a69.343 69.343 0 0 0 7.275-1.189 22.077 22.077 0 0 0 2.523-.724c-.111 4.165-.361 8.016-.775 11.293a1.3 1.3 0 1 0 2.58.325c.625-5.569.914-11.171.864-16.776 0-.296-.004-.598-.005-.895 1.346.299 2.981.631 4.738.963-.1.545-.156 1.097-.166 1.652-.008.388.044.776.154 1.149a2.932 2.932 0 0 0 1.066 1.398c.694.5 1.467.876 2.288 1.113a9.083 9.083 0 0 0 2.607.421c.393.003.785-.038 1.169-.122a3.186 3.186 0 0 0 1.138-.486c.161-.116.309-.25.441-.399.213-.242.409-.499.586-.768.453-.672.921-1.499 1.305-2.196.868.113 1.651.202 2.313.259.903.081 1.767.128 2.612.159a1.26 1.26 0 0 0 .008.174c.157.638.371 1.488.608 2.268.119.392.242.765.378 1.103.068.17.138.331.22.49.089.177.198.344.323.497.413.461.953.788 1.553.941a6.205 6.205 0 0 0 1.699.213 9.797 9.797 0 0 0 2.961-.474c.45-.142.882-.334 1.29-.571a3.068 3.068 0 0 0 1.066-.997c.199-.344.344-.717.429-1.105.049.041.091.086.142.125.163.122.339.225.526.305.234.102.487.155.743.157l.048-.001c.235-.01.468-.051.692-.123a8.135 8.135 0 0 0 2.084-1.073c.331-.225.639-.483.918-.77.117-.126.223-.26.318-.403a3.667 3.667 0 0 0 1.337-.36 5.233 5.233 0 0 0 1.74-1.374c.241-.289.442-.609.599-.951.172-.373.264-.778.269-1.189v-.014c.073-.014.144-.034.214-.059.19-.073.36-.188.499-.337l.078-.092c.303-.404.574-.831.812-1.277a6.36 6.36 0 0 0 .851-2.897 3.35 3.35 0 0 0-.401-1.63l-.002-.002c-.186-.335-.58-.995-1.054-1.689a43.548 43.548 0 0 0 2.864-9.169c.333-1.58.635-3.146.874-4.696.374.069.754.104 1.135.105a6.566 6.566 0 0 0 3.031-.758 8.217 8.217 0 0 0 2.27-1.786c.659.19 1.341.287 2.027.287a8.31 8.31 0 0 0 1.879-.218 1.3 1.3 0 0 0 .977-1.557Zm-58.602-26.72a7.623 7.623 0 0 1 .92-1.566c.132-.169.284-.323.453-.456a.923.923 0 0 1 .312-.167l.033-.003c.15.012.296.05.432.115a6.193 6.193 0 0 1 1.448.953c.534.453 1.041.937 1.517 1.451-.434-.018-.868-.036-1.297-.036a19.109 19.109 0 0 0-4.11.399c.09-.228.186-.46.292-.69Zm21.267 30.013-1.272-.269c-.895 4.277-1.974 7.933-3.915 10.379a9.37 9.37 0 0 1-3.684 2.863 14.76 14.76 0 0 1-5.978 1.073 32.439 32.439 0 0 1-5.316-.488l-.01-.002a38.362 38.362 0 0 1-2.08-.387l-.005-.001c-5.761-1.22-9.386-2.966-11.533-4.979l-.004-.003a9.425 9.425 0 0 1-2.5-3.682 12.686 12.686 0 0 1-.717-4.47 37.955 37.955 0 0 1 1.015-7.644c.804-3.838 1.833-7.251 3.525-9.751a10.78 10.78 0 0 1 3.086-3.091 11.7 11.7 0 0 1 4.602-1.684l.006-.001a18.706 18.706 0 0 1 3.018-.23c2.306.032 4.602.303 6.852.809 6.002 1.266 9.632 3.222 11.737 5.52a10.162 10.162 0 0 1 2.21 3.775 14.43 14.43 0 0 1 .647 4.512 36.842 36.842 0 0 1-.956 7.482l1.272.269Zm-28.282 22.008-.007.005a.724.724 0 0 1-.224.08 2.72 2.72 0 0 1-.59.056 6.836 6.836 0 0 1-2.435-.519 3.995 3.995 0 0 1-.878-.478 1.135 1.135 0 0 1-.177-.162 1.506 1.506 0 0 1-.025-.321c.054-.923.208-1.838.46-2.728.058-.226.116-.439.17-.635a17.735 17.735 0 0 0 2.515 1.564c.774.4 1.632.772 2.529 1.134-.25.448-.509.894-.752 1.257-.125.191-.26.376-.404.553l-.142.156-.04.038Zm38.166-96.487a20.938 20.938 0 0 1-2.355 6.55 6.9 6.9 0 0 1-1.367 1.7 1.751 1.751 0 0 1-.737.412 64.004 64.004 0 0 0 2.571-16.993c.448.15.917.226 1.39.226.251-.003.501-.026.748-.07.188 1.03.278 2.075.271 3.122a26.155 26.155 0 0 1-.521 5.053Zm-12.061-52.496a16.17 16.17 0 0 1 2.411-5.823c.401-.595.854-1.154 1.354-1.67.295-.31.62-.59.971-.833l.003-.002c.217-.11.459-.159.701-.145.44.004.874.104 1.272.292.259.102.479.287.623.526a46.6 46.6 0 0 1 2.621 9.876c2.095 11.958 2.576 28.385 2.574 35.73 0 1.078-.01 1.962-.027 2.6a27.286 27.286 0 0 1-.042.971l-.036.035a1.5 1.5 0 0 1-.862.234 1.683 1.683 0 0 1-.76-.169.873.873 0 0 1-.41-.412l-.011-.022a5.811 5.811 0 0 0-.172-.316 69.959 69.959 0 0 0-2.605-19.622 41.611 41.611 0 0 0-8.135-15.306c.064-1.315.138-2.496.221-3.476.059-.828.162-1.652.309-2.468ZM23.438 17.1a.857.857 0 0 1 .183-.224c.256-.23.55-.41.87-.534.366-.15.757-.23 1.153-.236a1.802 1.802 0 0 1 1.337.52c1.532 1.514 3.236 4.492 4.819 8.226 2.6 6.472 4.74 13.12 6.406 19.893 1.801 6.968 3.196 13.598 3.977 17.86.047.253.086.493.13.741a1.25 1.25 0 0 0-.09.292l-.003.072-.086.094c-.163.131-.349.232-.549.295a2.45 2.45 0 0 1-.781.133 1.652 1.652 0 0 1-.627-.111.806.806 0 0 1-.352-.263 6.312 6.312 0 0 0-.623-.691 8.89 8.89 0 0 0-1.758-1.342 5.483 5.483 0 0 0-2.702-.786 4.394 4.394 0 0 0-2.984 1.198 1.25 1.25 0 0 0-.174.235c-.267.216-.51.46-.725.729a10.584 10.584 0 0 0-1.776 4.083c-.03.124-.05.259-.078.386a2.653 2.653 0 0 1-.248-.744 336.11 336.11 0 0 0-.53-2.753c.143-.12.257-.27.336-.438l4.383-9.596-.002-.002a12.07 12.07 0 0 0 1.327-5.528 11.74 11.74 0 0 0-.367-2.937 231.487 231.487 0 0 0-3.888-13.343c-1.235-3.799-2.296-6.697-2.947-8.158a26.04 26.04 0 0 0-1.507-3.017 4.275 4.275 0 0 0-.73-.91 2.016 2.016 0 0 0-1.224-.544l-.11-.003a1.897 1.897 0 0 0-.735.152c-.17.073-.333.165-.484.273-.082.059-.144.127-.217.189.082-.205.163-.412.245-.61.472-1.145.914-2.11 1.13-2.601Zm9.618 65.372c-.403-.766-.73-1.57-.975-2.4a23.918 23.918 0 0 1-.904-4.955l-.391.032.39-.033a27.515 27.515 0 0 1-.092-2.254 19.57 19.57 0 0 1 .905-6.27 6.254 6.254 0 0 1 .907-1.776c.164-.253.41-.445.695-.544h.005l.093-.01a.63.63 0 0 1 .277.073c.365.21.676.503.909.854a11.02 11.02 0 0 1 1.505 3.264c.475 1.615.778 3.276.903 4.955.063.769.093 1.525.093 2.259a19.56 19.56 0 0 1-.904 6.267 6.252 6.252 0 0 1-.907 1.776 1.361 1.361 0 0 1-.694.543l-.078.01a9.858 9.858 0 0 1-1.737-1.79Zm5.186 3.79-.004-.002-.028-.01a11.846 11.846 0 0 1-1.015-.472c.144-.143.28-.294.407-.452.024-.03.042-.068.066-.1.064-.074.118-.156.163-.243a11.149 11.149 0 0 0 1.546-3.739c.413-1.83.614-3.701.6-5.577 0-.805-.034-1.632-.102-2.47a23.95 23.95 0 0 0-1.654-7.277c.285.251.608.454.958.602a4.23 4.23 0 0 0 1.625.31 4.997 4.997 0 0 0 2.01-.428c.494 3.165.759 6.361.793 9.564a23.084 23.084 0 0 1-1.368 8.779 3.557 3.557 0 0 1-1.098 1.568c-.334.24-.738.364-1.149.35a4.9 4.9 0 0 1-1.75-.404ZM23.234 38.596a1836.187 1836.187 0 0 1-1.972-10.318c.055-.213.128-.48.215-.78.312-1.098.686-2.179 1.12-3.236.197-.48.428-.945.691-1.392.048-.08.095-.15.141-.217.083.137.173.295.275.49.265.503.592 1.194.991 2.089.57 1.272 1.635 4.163 2.849 7.9a228.778 228.778 0 0 1 3.843 13.191c.19.747.286 1.515.284 2.286a9.475 9.475 0 0 1-1.056 4.382l-.034.068-3.17 6.938c-.025-.131-.048-.253-.075-.386-1.136-5.808-2.75-14.039-4.102-21.015Zm16.74 50.668.018.001a4.48 4.48 0 0 0 2.677-.846 6.107 6.107 0 0 0 1.969-2.668 25.557 25.557 0 0 0 1.569-9.783 77.976 77.976 0 0 0-1.466-13.832c-.916-4.99-2.642-13.096-4.882-21.289a36.294 36.294 0 0 1 16.63-18.038c8.324-4.491 19.766-7.134 35.247-7.133 11.318 0 20.483 1.411 27.844 3.927 11.041 3.783 18.032 9.984 22.375 17.822 4.336 7.841 5.983 17.402 5.981 27.8a64.433 64.433 0 0 1-2.527 19.093 34.81 34.81 0 0 1-16.14 20.583c-8.494 4.972-20.613 7.877-37.533 7.875-15.998.002-27.708-2.597-36.113-7.086a34.418 34.418 0 0 1-15.65-16.426Zm51.763 26.112c2.488 0 4.861-.073 7.16-.195v4.054c.007.06.019.119.035.177.008.086.026.172.051.254.03.077.068.15.112.218a.932.932 0 0 0 .324.366c.014.011.026.025.042.036-.434.129-.894.247-1.388.345l-.007.001a27.062 27.062 0 0 1-5.335.495c-.278 0-.559-.004-.843-.011h.004a26.53 26.53 0 0 1-5.283-.477l-.012-.002a9.375 9.375 0 0 1-1.09-.321 1.286 1.286 0 0 0 .62-1.081v-3.972c1.814.073 3.68.113 5.61.113Zm-12.59 20.74c-.032.021-.058.04-.097.064-.711.402-1.446.763-2.2 1.079a52.29 52.29 0 0 1-1.01.429l-.306.124-.109.044c-.016.007-.027.021-.043.028a37.827 37.827 0 0 0-2.203-.544c-.095-.02-.195-.038-.292-.058a69.148 69.148 0 0 1 2.036-.653 57.443 57.443 0 0 1 3.414-.933c.358-.084.665-.148.937-.201a7.058 7.058 0 0 1-.127.621Zm-2.898 7.069a2.774 2.774 0 0 0-.259-.665 2.056 2.056 0 0 0-.568-.657 3.403 3.403 0 0 0-.823-.427 10.612 10.612 0 0 0-1.567-.424c-1.653-.336-3.516-.493-3.54-.497a1.3 1.3 0 0 0-.224 2.591h-.001l.172.016c.399.038 1.433.148 2.44.319.502.086.998.188 1.384.295.16.042.316.093.47.153l.01.004c.033.186.048.376.044.565a12.389 12.389 0 0 1-.213 1.992c-.057.323-.116.617-.165.851-.05.238-.087.397-.11.518-.051.383-.184.751-.391 1.079a1.09 1.09 0 0 1-.297-.184l-.192-.19-.036-.049-.008.005c-.007-.015-.02-.027-.028-.042-.027-.061-.053-.131-.08-.187l.002.006a2.449 2.449 0 0 1-.204-1.036c0-.197.017-.393.049-.587l.03-.159.007-.03v-.002a1.3 1.3 0 0 0-2.507-.684c-.121.478-.18.969-.178 1.462-.01.743.146 1.478.456 2.153l.003.006c.232.467.35.982.348 1.503a5.074 5.074 0 0 1-.306 1.651 4.432 4.432 0 0 1-1.646 1.919 9.205 9.205 0 0 1-2.753 1.353l-.015.004c-.045.014-.08.018-.125.03a4.97 4.97 0 0 1-.661.14c-.125.02-.25.032-.377.036h-.049a3.684 3.684 0 0 1-2.592-.94 2.957 2.957 0 0 1-.846-2.165c0-.041.003-.08.005-.121.001-.05.001-.101.005-.153a9.856 9.856 0 0 1 .543-2.331c.104-.309.221-.629.35-.956l.003-.006a43.37 43.37 0 0 1 2.955-5.983c.54-.92 1.068-1.752 1.526-2.414.315-.476.666-.927 1.051-1.348l.001-.001.085-.045a3.715 3.715 0 0 1 1.324-.176c1.5.055 2.988.266 4.442.63.732.169 1.401.349 1.922.502.26.077.483.147.655.204.105.035.183.063.24.085l.002.001c.165.218.303.456.412.707.267.594.491 1.206.67 1.833.153.504.275 1.017.368 1.536l.002.02-.02.034a1.175 1.175 0 0 1-.333.285c-.25.149-.515.27-.792.361.038-.37.066-.746.068-1.117a5.196 5.196 0 0 0-.138-1.273Zm-19.482-13.698a18.546 18.546 0 0 1 4.496-3.253 8.779 8.779 0 0 1 3.842-1.002c.253.001.505.019.755.052a15.874 15.874 0 0 0-1.043 2.232 6.059 6.059 0 0 0-1.365 9.237 27.136 27.136 0 0 1-.4 3.093l-.002.012a85.073 85.073 0 0 0-.333 1.863 52.1 52.1 0 0 0-.809 1.405 19.054 19.054 0 0 0-3.7.472c-4.286.974-8.266 2.169-11.312 4.079-.428.27-.833.56-1.222.862.238-1.745.759-3.441 1.543-5.018 3.095-6.428 6.413-11.059 9.55-14.034Zm-5.636 34.478a9.76 9.76 0 0 1-4.652-2.069 5.755 5.755 0 0 1-1.327-1.818 9.18 9.18 0 0 1-.757-2.777 8.85 8.85 0 0 1-.072-1.107 6.381 6.381 0 0 1 1.02-3.573l.045-.063.006-.008a11.629 11.629 0 0 1 5.03-3.813 44.22 44.22 0 0 1 8.359-2.603 17.588 17.588 0 0 1 1.721-.299c-.34.71-.652 1.421-.936 2.122a6.23 6.23 0 0 0-2.98 4.253 6.222 6.222 0 0 0 1.286 5.032l.004.005a6.228 6.228 0 0 0 8.684.965 11.774 11.774 0 0 0 3.29-1.656c.027-.021.052-.045.08-.066a8.254 8.254 0 0 1-1.196 2.195 10.452 10.452 0 0 1-3.98 3.078 23.79 23.79 0 0 1-2.658 1.012l-.01.003a28.592 28.592 0 0 1-8.308 1.437 12.67 12.67 0 0 1-2.65-.25Zm24.99 15.068a94.202 94.202 0 0 1-3.552-.421c1.5-.809 2.922-1.756 4.504-2.537a14.95 14.95 0 0 1 6.923-1.683c1.936.031 3.853.376 5.678 1.022 2.82.934 5.662 2.39 8.753 3.646.383.155.77.307 1.163.455-2.783.124-5.675.192-8.58.191-5.091.001-10.227-.206-14.89-.673Zm43.92-2.172c-1.474.49-2.985.858-4.519 1.1a83.659 83.659 0 0 1-4.814.691c-.664.072-1.331.108-1.998.108-4.462.003-8.326-1.628-12.244-3.372-1.957-.868-3.92-1.758-5.972-2.441a20.411 20.411 0 0 0-6.498-1.155 18.969 18.969 0 0 0-10.09 3.051c-1.258.735-2.37 1.434-3.418 1.922-.951.486-2 .751-3.068.776a6.178 6.178 0 0 1-1.271-.142 36.189 36.189 0 0 1-1.882-.527c-.288-3.663-.453-7.753-.476-11.935a26.704 26.704 0 0 0 2.04-.806l.007-.003a13.05 13.05 0 0 0 4.965-3.866 10.99 10.99 0 0 0 2.24-6.799 13.816 13.816 0 0 0-.106-1.67h.002l-.002-.015-.001-.012h-.002c-.009-.086-.028-.17-.04-.256.024.001.046.007.07.007.357 0 .709-.078 1.031-.23a2.84 2.84 0 0 0 1.213-1.157c.312-.56.528-1.169.64-1.8.086.01.174.011.261.003a8.16 8.16 0 0 0 1.757-.576c.51-.228.976-.545 1.375-.936.236-.239.43-.515.575-.819a2.6 2.6 0 0 0 .215-1.528 18.043 18.043 0 0 0-.839-3.072c-.2-.564-.449-1.109-.742-1.631a6.076 6.076 0 0 0-.188-.294l.297-.133c.555-.255 1.12-.528 1.601-.801a6.15 6.15 0 0 0 .673-.434 2.72 2.72 0 0 0 .325-.29c.159-.165.281-.361.36-.576l.001-.003c.25-.728.386-1.49.406-2.259a3.048 3.048 0 0 0-.14-.973 1.973 1.973 0 0 0-.304-.578 1.719 1.719 0 0 0-.642-.515 1.503 1.503 0 0 0-.45-.128 2.049 2.049 0 0 0-.282-.017 6.173 6.173 0 0 0-1.023.113 51.545 51.545 0 0 0-5.924 1.572 47.533 47.533 0 0 0-6.82 2.685 1.18 1.18 0 0 0-.185.149 2.78 2.78 0 0 0-.156.091c.03-.338.068-.674.093-1.013v-.005.001c.102-1.301.176-2.597.288-3.776.077-1.025.24-2.043.488-3.04l.008-.028c.05-.2.128-.425.219-.688l.002-.007a13.274 13.274 0 0 1 1.847-3.549l.007-.01a10.93 10.93 0 0 1 3.279-3.1c.403-.206.83-.365 1.27-.472a41.271 41.271 0 0 1 7.366-.976 12.4 12.4 0 0 0 3.49 1.959v.001l.017.006.017.007v-.001c.534.202 1.082.364 1.639.485 1.907.375 3.848.557 5.792.541h.004c.303.008.605.012.906.012a29.627 29.627 0 0 0 5.853-.547c.68-.132 1.353-.305 2.013-.518a11.136 11.136 0 0 0 3.288-1.618c2.39.196 4.557.438 6.3.716a30.08 30.08 0 0 1 2.402.468c.49.109.97.264 1.432.462.07.043.132.097.185.16a7.403 7.403 0 0 1 1.155 2.144 8.784 8.784 0 0 0-.937 1.824c-.958.338-1.873.786-2.728 1.334a14.57 14.57 0 0 0-5.172 6.196 37.495 37.495 0 0 0-2.568 8.29 40.218 40.218 0 0 0-1.072 8.181 15.284 15.284 0 0 0 .881 5.381 12.038 12.038 0 0 0 2.947 4.45c.085.212.173.424.264.635-.008.147-.022.295-.022.44a6.996 6.996 0 0 0 1.092 3.782c.125.198.261.39.403.578a1.232 1.232 0 0 0-.103.18c-.006.018-.263.797-.525 1.817-.309 1.1-.49 2.232-.54 3.373-.008.388.044.776.154 1.149a2.932 2.932 0 0 0 1.066 1.398 7.436 7.436 0 0 0 2.287 1.112 9.049 9.049 0 0 0 2.607.421 5.23 5.23 0 0 0 1.17-.121 3.205 3.205 0 0 0 1.138-.487c.258-.189.49-.411.691-.661a16.737 16.737 0 0 0 1.621-2.548c.004-.008.003-.016.007-.023.938.314 1.912.62 2.952.915.003.515.008 1.032.008 1.542 0 .769-.004 1.53-.012 2.284a5.355 5.355 0 0 1-.927.425Zm31.878 1.032a2.667 2.667 0 0 1-.196.776 1.26 1.26 0 0 1-.302.203c-.4.198-.824.344-1.262.436a7.233 7.233 0 0 1-1.544.178 3.653 3.653 0 0 1-.982-.113 1.068 1.068 0 0 1-.244-.096l-.03-.019a3.609 3.609 0 0 1-.178-.414c-.234-.621-.499-1.606-.706-2.427a29.147 29.147 0 0 0 5.515-.636c.008.21.013.434.013.664.004.484-.024.968-.084 1.448Zm4.351-1.197a4.211 4.211 0 0 1-.348.156 2.192 2.192 0 0 1-.171-.189 6.811 6.811 0 0 1-.79-1.343 5.251 5.251 0 0 1-.435-1.367l-.003-.024-.01-.125c.225-.284.474-.548.744-.788.12.146.245.298.377.462.308.397.646.84.962 1.271l.135.198v-.001c.104.16.22.324.347.489l-.002.001.086.124c.093.144.177.283.247.406-.03.025-.051.046-.084.072a6.767 6.767 0 0 1-1.055.658Zm4.048-2.401c-.178.126-.38.216-.593.265a5.165 5.165 0 0 1-.441-.504l-.067-.096-.002-.003-.001-.001-.003-.005-.046-.062a4.856 4.856 0 0 1-.269-.381l-.015-.023-.13-.191a15.302 15.302 0 0 1-.728-1.301l-.011-.022a11.31 11.31 0 0 1-.628-1.436 4.019 4.019 0 0 1-.198-.763c.201-.267.426-.515.672-.74.041-.036.077-.062.113-.089.135.138.285.3.452.495.281.325.592.713.898 1.115l.002.002c.512.67 1.019 1.395 1.383 1.98.182.291.328.549.414.726l.038.085a.945.945 0 0 1-.105.214 2.599 2.599 0 0 1-.735.735Zm1.329-8.55a2 2 0 0 1 .118-.125c.037.039.073.079.111.124a18.38 18.38 0 0 1 1.677 2.489.753.753 0 0 1 .078.373c-.04.494-.181.974-.415 1.411a11.89 11.89 0 0 1-1.005-1.338 7.162 7.162 0 0 1-.916-1.931l-.001-.004-.018-.146c.029-.317.159-.617.371-.853Zm1.23-2.591-.005-.004a1.894 1.894 0 0 0-1.027-.324c-.016 0-.063.001-.127.006l-.001-.001-.013.002-.045.004.001.004a2.557 2.557 0 0 0-1.136.44 4.35 4.35 0 0 0-1.249 1.321 3.917 3.917 0 0 0-.577 1.74 2.061 2.061 0 0 0-.627-.11 2.47 2.47 0 0 0-1.11.282 4.552 4.552 0 0 0-1.139.864 9.26 9.26 0 0 0-.851 1.003l-.001-.001-.002.005-.006.006.001.001c-.149.201-.256.43-.315.673a2.487 2.487 0 0 0-.07.601c.008.233.035.464.082.692-.103.042-.212.081-.303.128-.407.23-.781.514-1.111.845a9.97 9.97 0 0 0-.897 1.007l-.004.006c-.168.225-.29.481-.357.754-1.877.456-3.8.7-5.731.728h-.003c-.295.008-.595.011-.898.012a44.19 44.19 0 0 1-3.914-.187h-.003a58.353 58.353 0 0 1-2.914-.343 1.275 1.275 0 0 0-1.166.477c-.2.111-.365.275-.479.473a44.125 44.125 0 0 1-1.096 1.93c-.19.31-.374.59-.522.79a3.567 3.567 0 0 1-.179.223l-.023.024a1.844 1.844 0 0 1-.798.128 6.868 6.868 0 0 1-2.436-.519 4.087 4.087 0 0 1-.878-.479 1.135 1.135 0 0 1-.177-.162 1.505 1.505 0 0 1-.024-.321c.054-.923.208-1.838.459-2.727.119-.466.239-.882.329-1.18l.107-.349.039-.118a1.303 1.303 0 0 0-.827-1.642 1.3 1.3 0 0 0-1.642.826c-.004.013-.136.412-.304 1.004-2.555-.481-4.875-.969-6.325-1.331-.311-.08-.579-.148-.756-.203l-.029-.008a32.547 32.547 0 0 1-9.326-3.833 7.768 7.768 0 0 1-2.226-2.187 4.5 4.5 0 0 1-.534-1.205 32.841 32.841 0 0 0 9.981 3.577c.766.166 1.506.3 2.212.413 1.896.332 3.817.507 5.742.524a17.345 17.345 0 0 0 7.022-1.292 12.685 12.685 0 0 0 6.254-6.105 35.954 35.954 0 0 0 2.845-8.981 39.329 39.329 0 0 0 1.012-8.02 17.02 17.02 0 0 0-.776-5.322 13.246 13.246 0 0 0-5.039-6.728 28.433 28.433 0 0 0-10.841-4.301 35.962 35.962 0 0 0-7.39-.865c-.968.002-1.935.068-2.893.199.022-.026.042-.056.064-.082a6.08 6.08 0 0 1 2.911-1.758 14.92 14.92 0 0 1 4.231-.514c2.175.044 4.346.219 6.5.522 3.433.425 8.725 1.569 12.93 2.564.085.012.17.015.255.009.028.003.054.001.082.003.321-.008.633-.111.896-.297a7.452 7.452 0 0 1 2.278-1.254 8.079 8.079 0 0 1 2.624-.484c.494-.012.985.068 1.449.237l.085.057a.89.89 0 0 1 .174.375c.07.297.103.601.096.906a14.75 14.75 0 0 1-.671 3.765c-.172.59-.346 1.106-.475 1.47-.064.182-.118.326-.154.423l-.042.109-.013.032a1.3 1.3 0 0 0 2.417.96 27.748 27.748 0 0 0 1.073-3.441c4.62 1.839 7.523 4.089 9.293 6.604a15.505 15.505 0 0 1 2.583 9.238 50.135 50.135 0 0 1-1.333 10.115 44.689 44.689 0 0 1-2.217 7.577Zm10.58-19.712a.757.757 0 0 1 .509-.212.426.426 0 0 1 .283.092c.13.129.21.3.226.482.017.097.025.195.025.293a3.802 3.802 0 0 1-.36 1.466c-.013.028-.032.058-.045.087a3.246 3.246 0 0 1-.603-.663 1.686 1.686 0 0 1-.271-.648l-.016-.223a.884.884 0 0 1 .252-.674Z"/><path fill="#BEBEC9" d="M126.849 130.181a7.673 7.673 0 0 0-.65-.115c-.158-.018-.216-.02-.476-.056a1.294 1.294 0 0 0-.964.25 1.303 1.303 0 0 0-.505.859 1.293 1.293 0 0 0 .253.964 1.291 1.291 0 0 0 .86.503c.298.041.455.054.524.062.063.008.13.017.427.079a1.31 1.31 0 0 0 .978-.186 1.298 1.298 0 0 0 .564-1.329 1.292 1.292 0 0 0-.545-.832 1.303 1.303 0 0 0-.466-.199ZM120.529 129.384a19.583 19.583 0 0 0-.966-.024 12.219 12.219 0 0 0-5.262 1.022 1.299 1.299 0 0 0 1.135 2.339 9.72 9.72 0 0 1 4.127-.761c.275 0 .553.007.835.021a1.302 1.302 0 0 0 1.358-1.233 1.3 1.3 0 0 0-1.227-1.364ZM132.099 160.153c-.896.349-1.828.598-2.778.743a1.303 1.303 0 0 0-1.092 1.48 1.292 1.292 0 0 0 .514.852 1.293 1.293 0 0 0 .966.239 15.661 15.661 0 0 0 3.349-.897 1.304 1.304 0 0 0 .729-1.688 1.3 1.3 0 0 0-1.688-.729ZM121.911 166.911l-.006-.001-.003-.001.009.002ZM119.696 166.498l-.003-.001h-.002l.005.001Z"/></svg>