<svg xmlns="http://www.w3.org/2000/svg" width="200" height="200" fill="none"><path fill="#BEBEC9" d="M135.791 78.656c.132-.462.247-.917.344-1.366.215-.987.326-1.994.329-3.004a12.14 12.14 0 0 0-2.287-7.126 19.88 19.88 0 0 0-8.011-6.216 29.3 29.3 0 0 0-4.006-1.493 18.815 18.815 0 0 0-2.921-.637 1.299 1.299 0 0 0-1.166 2.1c.214.27.527.444.87.483a19.31 19.31 0 0 1 3.629.91 22.472 22.472 0 0 1 7.511 4.174c1.11.962 2.034 2.12 2.725 3.417a9.425 9.425 0 0 1 1.056 4.389c-.003.826-.095 1.65-.272 2.457-.083.388-.183.786-.3 1.194a1.294 1.294 0 0 0 .109.991 1.304 1.304 0 0 0 1.287.665 1.303 1.303 0 0 0 1.103-.938Z"/><path fill="#FFE632" d="M111.415 59.536c5.436.859 9.352 2.575 11.847 4.448a10.721 10.721 0 0 1 2.702 2.812c.483.708.758 1.536.796 2.392l-.004.167v-.007c-.116 2.242-1.374 5.08-3.444 7.908a1.293 1.293 0 0 0-.235.968 1.293 1.293 0 0 0 .98 1.063 1.3 1.3 0 0 0 1.356-.5c2.235-3.08 3.753-6.252 3.939-9.291v-.006c.005-.096.008-.197.008-.302a7.18 7.18 0 0 0-1.19-3.769 15.395 15.395 0 0 0-5.802-5.081 32.723 32.723 0 0 0-10.546-3.37 1.3 1.3 0 0 0-.407 2.568Z"/><path fill="#BEBEC9" d="M137.308 85.774a54.926 54.926 0 0 0-6.522-1.214 70.476 70.476 0 0 0-8.721-.556C108.349 84 97.329 88.33 88.952 94.671a55.46 55.46 0 0 0-17.49 22.682l1.199.502-.751-1.062a19.038 19.038 0 0 0-6.038 7.664 26.267 26.267 0 0 0-2.337 10.862 25.359 25.359 0 0 0 8.887 19.35c6.35 5.568 16.396 9.515 31.283 10.117 2.201.089 4.366.133 6.493.132 27.523.001 48.79-7.261 63.63-16.587a73.294 73.294 0 0 0 17.433-14.9c4.195-5.063 6.785-9.995 7.709-14.272a14.3 14.3 0 0 0 .33-3.003 12.152 12.152 0 0 0-2.287-7.126 19.892 19.892 0 0 0-8.011-6.217 29.493 29.493 0 0 0-4.007-1.493 18.909 18.909 0 0 0-2.92-.637 1.306 1.306 0 0 0-1.285.66 1.31 1.31 0 0 0 .118 1.44 1.298 1.298 0 0 0 .87.483c1.236.185 2.452.49 3.629.91a22.479 22.479 0 0 1 7.511 4.175c1.11.962 2.034 2.12 2.725 3.416a9.427 9.427 0 0 1 1.057 4.389c-.004.827-.095 1.65-.272 2.458-.787 3.693-3.165 8.339-7.168 13.157-6.001 7.236-15.625 14.884-28.815 20.708-13.191 5.826-29.949 9.839-50.247 9.839-2.092 0-4.221-.043-6.388-.13-14.491-.587-23.906-4.411-29.673-9.473a22.753 22.753 0 0 1-8.002-17.396 23.678 23.678 0 0 1 2.1-9.779 16.473 16.473 0 0 1 5.177-6.624c.198-.142.353-.335.448-.56a52.876 52.876 0 0 1 16.66-21.611c7.968-6.02 18.377-10.136 31.545-10.14 2.808.004 5.613.183 8.399.535 2.093.26 4.168.646 6.214 1.156a1.3 1.3 0 0 0 .63-2.522Z"/><path fill="#FFE632" d="M174.251 101.405c5.435.859 9.351 2.574 11.845 4.448a10.74 10.74 0 0 1 2.703 2.811c.483.708.758 1.536.796 2.391l-.004.169v-.007a14.88 14.88 0 0 1-2.819 7.015 37.4 37.4 0 0 1-6.712 7.366 1.286 1.286 0 0 0-.454.887 1.287 1.287 0 0 0 .307.947 1.297 1.297 0 0 0 1.834.144 39.98 39.98 0 0 0 7.184-7.895 17.344 17.344 0 0 0 3.256-8.316v-.007c.005-.096.008-.197.008-.303a7.18 7.18 0 0 0-1.19-3.768 15.396 15.396 0 0 0-5.803-5.081 32.714 32.714 0 0 0-10.544-3.37 1.3 1.3 0 0 0-.407 2.569Z"/><path fill="#BEBEC9" d="M45.713 102.924a38.502 38.502 0 0 0 4.999-.311 16.01 16.01 0 0 0 3.696-.857 1.3 1.3 0 0 0-.977-2.41c-.992.347-2.019.578-3.063.689-1.53.195-3.07.292-4.613.289-.014-.045-.026-.08-.04-.131-.261-.936-.4-1.902-.413-2.874 0-.29.02-.58.059-.868a9.029 9.029 0 0 0 3.703-1.786 7.66 7.66 0 0 0 1.733-1.917 4.723 4.723 0 0 0 .756-2.468 3.81 3.81 0 0 0-.193-1.201 3.158 3.158 0 0 0-1.167-1.53 6.96 6.96 0 0 0-2.601-1.08 14.311 14.311 0 0 0-3.062-.316c-1.257-.013-2.51.15-3.721.485a6.67 6.67 0 0 0-1.58.676c-.508.293-.934.71-1.238 1.212a3.615 3.615 0 0 0-.477 1.819c.017.817.233 1.618.63 2.333a7.93 7.93 0 0 0 2.45 2.716 6.969 6.969 0 0 0 2.156 1.01c-.029.308-.047.614-.047.915.006.873.097 1.744.274 2.6.022.11.046.209.07.312a31.633 31.633 0 0 1-2.856-.32 17.512 17.512 0 0 1-4.678-1.344 1.298 1.298 0 0 0-1.789 1.603 1.302 1.302 0 0 0 .664.741c1.714.773 3.528 1.3 5.388 1.566 1.964.305 3.95.454 5.937.447ZM67.557 77.064a7.043 7.043 0 0 0-6.297 3.423c-1.202 2.115-.234 4.031 1.959 4.406 2.192.375 9.237.832 10.262-2.11.979-2.813-2.706-5.672-5.924-5.72Zm-.42 6.76a2.613 2.613 0 1 1 2.6-2.612 2.606 2.606 0 0 1-2.6 2.613ZM20.046 79.117c-1.493 2.036-.925 4.016 1.056 4.537 1.98.52 8.476 1.446 9.949-1.428 1.407-2.748-1.53-5.852-4.526-6.113a7.366 7.366 0 0 0-6.479 3.004Zm3.26.658a2.925 2.925 0 0 1 3.18-1.99 2.24 2.24 0 0 1 1.242 3.085 2.756 2.756 0 0 1-3.018 2.002 2.317 2.317 0 0 1-1.404-3.097ZM144.709 103.466a17.186 17.186 0 0 0-11.163-4.23 11.725 11.725 0 0 0-7.618 2.5 22.296 22.296 0 0 0-5.228 7.099 31.056 31.056 0 0 0-3.104 13.326c-.004 4.327 1.199 7.886 3.422 10.458a13.866 13.866 0 0 0 9.077 4.529c.529.063 1.061.095 1.594.094a18.172 18.172 0 0 0 12.153-5.059c3.648-3.43 6.315-8.716 6.367-15.817V116.186a16.432 16.432 0 0 0-5.5-12.72Zm2.9 12.886v-.008c-.064 6.468-2.414 10.976-5.551 13.948a15.606 15.606 0 0 1-10.369 4.35c-.428.001-.856-.024-1.281-.075a11.26 11.26 0 0 1-7.422-3.647c-1.741-2.021-2.786-4.894-2.79-8.759a28.464 28.464 0 0 1 2.839-12.182 19.784 19.784 0 0 1 4.574-6.259l-.84-.992.84.991a9.172 9.172 0 0 1 5.937-1.884 14.612 14.612 0 0 1 9.447 3.584 13.83 13.83 0 0 1 4.617 10.767l-.001.166ZM116.267 141.216c-.992.346-2.019.577-3.063.689-1.53.195-3.071.291-4.613.288-.014-.044-.026-.08-.04-.13-.262-.936-.4-1.902-.413-2.874 0-.29.02-.58.059-.868a9.03 9.03 0 0 0 3.702-1.786 7.65 7.65 0 0 0 1.733-1.917 4.715 4.715 0 0 0 .756-2.467 3.782 3.782 0 0 0-.193-1.203 3.157 3.157 0 0 0-1.166-1.53 6.976 6.976 0 0 0-2.601-1.08 14.263 14.263 0 0 0-3.062-.315 13.475 13.475 0 0 0-3.721.485 6.628 6.628 0 0 0-1.58.676 3.48 3.48 0 0 0-1.238 1.212 3.611 3.611 0 0 0-.477 1.818c.017.818.233 1.618.63 2.333a7.935 7.935 0 0 0 2.45 2.717 6.973 6.973 0 0 0 2.156 1.009c-.029.309-.047.616-.048.916a13.419 13.419 0 0 0 .344 2.912 32.335 32.335 0 0 1-2.856-.321 17.492 17.492 0 0 1-4.677-1.344 1.304 1.304 0 0 0-1.787 1.604c.114.325.352.591.662.741a20.055 20.055 0 0 0 5.388 1.566 37.94 37.94 0 0 0 5.937.447c1.671.005 3.341-.1 4.998-.312a16.015 16.015 0 0 0 3.697-.856 1.307 1.307 0 0 0 .814-1.196 1.296 1.296 0 0 0-.375-.923 1.308 1.308 0 0 0-.918-.387 1.306 1.306 0 0 0-.498.096Z"/><path fill="#BEBEC9" d="M130.391 118.933a7.043 7.043 0 0 0-6.297 3.423c-1.203 2.115-.233 4.031 1.959 4.406 2.193.375 9.237.833 10.262-2.109.979-2.813-2.706-5.673-5.924-5.72Zm-.419 6.761a2.609 2.609 0 0 1-2.577-3.114 2.612 2.612 0 0 1 5.177.501 2.607 2.607 0 0 1-2.6 2.613ZM83.938 125.523c1.98.521 8.477 1.446 9.95-1.428 1.407-2.747-1.53-5.852-4.527-6.113a7.37 7.37 0 0 0-6.479 3.004c-1.494 2.036-.924 4.017 1.056 4.537Zm2.204-3.878a2.927 2.927 0 0 1 3.18-1.991 2.243 2.243 0 0 1 1.468 2.183 2.235 2.235 0 0 1-.226.902 2.756 2.756 0 0 1-3.017 2.003 2.316 2.316 0 0 1-1.405-3.097Z"/><path fill="#BEBEC9" d="M177.417 103.566a43.358 43.358 0 0 0-11.34-13.53 1.236 1.236 0 0 0-.307-.158 14.708 14.708 0 0 0-4.207-6.452 16.607 16.607 0 0 0-11.082-3.84 19.743 19.743 0 0 0-4.811.615 1.205 1.205 0 0 0-.175-.086 81.7 81.7 0 0 0-20.58-2.782c-2 0-4.006.092-6.001.281a38.18 38.18 0 0 0-4.803-16.786 43.796 43.796 0 0 0-11.124-12.864c-.026-.02-.058-.025-.085-.043a14.705 14.705 0 0 0-4.174-6.364 16.61 16.61 0 0 0-11.083-3.84c-1.59.006-3.172.204-4.714.59a1.276 1.276 0 0 0-.377-.19 82.74 82.74 0 0 0-21.586-3.035c-8.526.002-17.129 1.584-24.349 5.828a14.058 14.058 0 0 0-4.177-2.479 18.26 18.26 0 0 0-6.557-1.214c-2.638-.053-5.24.61-7.53 1.92a15.2 15.2 0 0 0-6.984 13.024 18.996 18.996 0 0 0 4.062 11.389c-.159.213-.308.43-.463.644a27.013 27.013 0 0 0-3.598 5.652 56.288 56.288 0 0 0-2.605 5.315 19.252 19.252 0 0 0-5.73 7.426A26.268 26.268 0 0 0 .698 93.45a25.358 25.358 0 0 0 8.888 19.35c6.35 5.568 16.396 9.515 31.282 10.116 2.2.089 4.363.133 6.49.133 7.595.018 15.18-.569 22.682-1.756a1.298 1.298 0 0 0 1.074-1.489 1.299 1.299 0 0 0-1.486-1.078 140.382 140.382 0 0 1-22.27 1.723c-2.091 0-4.22-.044-6.385-.13-14.491-.588-23.906-4.412-29.673-9.473A22.744 22.744 0 0 1 3.3 93.45 23.68 23.68 0 0 1 5.4 83.67a18.677 18.677 0 0 1 2.857-4.492c-.087.74-.133 1.483-.138 2.227a17.059 17.059 0 0 0 1.326 6.793 11.461 11.461 0 0 0 4.698 5.411 10.073 10.073 0 0 0 5.137 1.314 17.009 17.009 0 0 0 9.395-3.201 18.908 18.908 0 0 0 6.772-8.178 37.325 37.325 0 0 0 2.737-13.641 21.331 21.331 0 0 0-.813-6.167 9.543 9.543 0 0 0-2.829-4.625 9.228 9.228 0 0 0-6.04-2.096c-1.495.018-2.977.28-4.387.776a49.958 49.958 0 0 1 3.442-2.927c7.894-6.052 18.19-10.208 31.188-10.213 2.967.006 5.93.212 8.868.617a45.23 45.23 0 0 1 5.464 1.092 5.945 5.945 0 0 0-.293 1.779 4.641 4.641 0 0 0 .801 2.632 6.845 6.845 0 0 0 2.95 2.302c1.066.46 2.185.787 3.331.975.853.174 1.679.46 2.458.848a17.236 17.236 0 0 1 3.927 2.577c.484.42.918.892 1.295 1.408.225.288.381.623.456.98a5.46 5.46 0 0 0 .772 2.087 9.287 9.287 0 0 0 2.536 2.744 6.619 6.619 0 0 0 3.801 1.337c.812 0 1.611-.193 2.333-.564a6.37 6.37 0 0 0 1.943-1.593 38.164 38.164 0 0 1 5.917 16.43c.023.16.075.314.155.454a37.022 37.022 0 0 0-5.362 2.672 13.522 13.522 0 0 0-4.82-3.128 18.255 18.255 0 0 0-6.557-1.214c-.6.002-1.201.034-1.799.097.29-1.546.442-3.114.452-4.687v-.18a16.441 16.441 0 0 0-5.5-12.72 17.19 17.19 0 0 0-11.163-4.23 11.722 11.722 0 0 0-7.617 2.5 22.3 22.3 0 0 0-5.229 7.1 31.07 31.07 0 0 0-3.105 13.324c-.004 4.327 1.2 7.886 3.422 10.459a13.862 13.862 0 0 0 9.078 4.53c.529.063 1.061.094 1.594.094a16.59 16.59 0 0 0 5.37-.959 19.1 19.1 0 0 0 4.093 11.07c-2.54 2.781-4.416 6.377-6.251 11.291a18.976 18.976 0 0 0-1.11 6.5 17.052 17.052 0 0 0 1.326 6.792 11.465 11.465 0 0 0 4.698 5.412 10.068 10.068 0 0 0 5.137 1.313 17 17 0 0 0 9.395-3.201 18.913 18.913 0 0 0 6.772-8.177 37.332 37.332 0 0 0 2.736-13.641 21.323 21.323 0 0 0-.812-6.168 9.546 9.546 0 0 0-2.83-4.625 9.227 9.227 0 0 0-6.04-2.096c-2.337.055-4.63.653-6.696 1.746-1.6.82-3.093 1.836-4.444 3.023a16.31 16.31 0 0 1-3.39-9.623 12.616 12.616 0 0 1 5.734-10.802 12.014 12.014 0 0 1 6.18-1.542c2.533-.014 5.03.61 7.26 1.813a9.595 9.595 0 0 1 2.61 2.094 6.579 6.579 0 0 1 1.416 2.699 1.301 1.301 0 0 0 2.524-.626 8.855 8.855 0 0 0-.853-2.15c6.749-4.026 14.986-5.585 23.237-5.583a77.627 77.627 0 0 1 16.581 1.894 12.562 12.562 0 0 0-4.65 4.386 7.406 7.406 0 0 0-1.227 3.795 4.643 4.643 0 0 0 .802 2.633 6.841 6.841 0 0 0 2.949 2.302c1.067.46 2.186.786 3.332.974.852.175 1.678.46 2.457.848a17.245 17.245 0 0 1 3.928 2.578c.483.419.917.891 1.294 1.408.225.287.381.622.456.98.112.741.374 1.451.772 2.086a9.295 9.295 0 0 0 2.536 2.745 6.61 6.61 0 0 0 3.801 1.336 5.074 5.074 0 0 0 2.333-.564 6.382 6.382 0 0 0 1.955-1.605c4.307 6.503 6.342 14.283 6.347 23.55a70.87 70.87 0 0 1-.319 6.583 1.3 1.3 0 0 0 .967 1.378 8.62 8.62 0 0 0 2.037.22 9.704 9.704 0 0 0 3.088-.495 9.295 9.295 0 0 0 5.005-4.107c1.402-2.289 2.334-5.558 2.443-10.223.008-.33.011-.659.011-.986a38.433 38.433 0 0 0-4.396-18.083Zm-91.606-.614a12.526 12.526 0 0 1 5.526-1.468 6.614 6.614 0 0 1 4.37 1.49 6.998 6.998 0 0 1 2.014 3.392c.494 1.759.73 3.58.698 5.407a34.775 34.775 0 0 1-2.54 12.649 16.331 16.331 0 0 1-5.845 7.029 14.452 14.452 0 0 1-7.918 2.741 7.47 7.47 0 0 1-3.822-.956 8.853 8.853 0 0 1-3.632-4.211 14.481 14.481 0 0 1-1.107-5.75 16.422 16.422 0 0 1 .946-5.591c1.838-4.928 3.636-8.253 5.945-10.687l-.686-.65.686.65a19.757 19.757 0 0 1 5.365-4.045Zm-4.62-21.946a14.962 14.962 0 0 0-6.792 10.572 14.374 14.374 0 0 1-5.546 1.195c-.428 0-.856-.025-1.281-.075a11.26 11.26 0 0 1-7.422-3.648c-1.742-2.02-2.787-4.895-2.79-8.76a28.48 28.48 0 0 1 2.84-12.18 19.799 19.799 0 0 1 4.574-6.26 9.163 9.163 0 0 1 5.936-1.884 14.612 14.612 0 0 1 9.447 3.583 13.82 13.82 0 0 1 4.616 10.767v.164-.006a23.09 23.09 0 0 1-.62 5.24v.01c-1.038.297-2.035.729-2.963 1.282ZM32.872 61.105a7 7 0 0 1 2.012 3.392 18.8 18.8 0 0 1 .699 5.406 34.784 34.784 0 0 1-2.54 12.65 16.328 16.328 0 0 1-5.845 7.029 14.458 14.458 0 0 1-7.919 2.74 7.476 7.476 0 0 1-3.822-.956 8.853 8.853 0 0 1-3.631-4.211 14.482 14.482 0 0 1-1.108-5.75 16.424 16.424 0 0 1 .946-5.59c.66-1.77 1.315-3.325 1.99-4.714a54.718 54.718 0 0 1 3.441-5.39c.17-.197.338-.398.514-.584a19.78 19.78 0 0 1 5.366-4.044 12.515 12.515 0 0 1 5.526-1.468 6.617 6.617 0 0 1 4.371 1.49Zm-6.899-8.303a54.12 54.12 0 0 0-8.872 8.623 16.157 16.157 0 0 1-3.131-9.264 12.613 12.613 0 0 1 5.734-10.802 12.014 12.014 0 0 1 6.18-1.542c2.534-.014 5.03.61 7.261 1.813a9.594 9.594 0 0 1 2.61 2.094 6.604 6.604 0 0 1 1.377 2.573 51.021 51.021 0 0 0-11.159 6.505Zm32.771-10.75a58.842 58.842 0 0 0-8.988.68 1.282 1.282 0 0 0-2.52.445c-.64.13-1.27.272-1.896.422a5.542 5.542 0 0 1-.157-.792 1.3 1.3 0 0 0-2.583.296c.049.391.126.778.231 1.158-1.12.327-2.21.69-3.279 1.081a9.071 9.071 0 0 0-1.168-2.452c6.587-3.737 14.553-5.21 22.583-5.208 6.02.04 12.015.77 17.868 2.174a12.737 12.737 0 0 0-4.608 4.161 1.227 1.227 0 0 0-.187-.093 48.067 48.067 0 0 0-6.077-1.232 68.357 68.357 0 0 0-9.219-.64ZM96.261 63.15c-.355.184-.75.28-1.15.279a3.489 3.489 0 0 1-1.519-.389 6.428 6.428 0 0 1-2.103-1.73 5.61 5.61 0 0 1-.655-1.014 2.459 2.459 0 0 1-.25-.741 5.521 5.521 0 0 0-1.403-2.804 16.813 16.813 0 0 0-4.143-3.35 14.838 14.838 0 0 0-4.731-1.916 10.186 10.186 0 0 1-3.494-1.196 3.495 3.495 0 0 1-1.073-.973 2.022 2.022 0 0 1-.356-1.177 4.88 4.88 0 0 1 .85-2.45l-1.111-.672 1.112.672a10.412 10.412 0 0 1 4.702-3.983 16.362 16.362 0 0 1 6.708-1.39 14.06 14.06 0 0 1 9.34 3.17 11.995 11.995 0 0 1 4.059 9.074 15.395 15.395 0 0 1-3.543 9.525 3.874 3.874 0 0 1-1.24 1.065Zm4.737-1.559a17.482 17.482 0 0 0 2.646-9.031c0-.216-.023-.43-.031-.646a40.154 40.154 0 0 1 8.228 10.182 35.609 35.609 0 0 1 4.49 15.821 48.067 48.067 0 0 0-8.463 1.956 40.495 40.495 0 0 0-6.87-18.282Zm58.098 43.428c-.355.184-.749.28-1.15.279a3.481 3.481 0 0 1-1.519-.388 6.426 6.426 0 0 1-2.103-1.731 5.603 5.603 0 0 1-.655-1.013 2.495 2.495 0 0 1-.25-.741 5.513 5.513 0 0 0-1.403-2.805 16.811 16.811 0 0 0-4.142-3.35 14.845 14.845 0 0 0-4.731-1.915 10.189 10.189 0 0 1-3.494-1.197 3.497 3.497 0 0 1-1.074-.973 2.024 2.024 0 0 1-.356-1.177 4.878 4.878 0 0 1 .852-2.45l-1.112-.672 1.112.672a10.408 10.408 0 0 1 4.701-3.982 16.363 16.363 0 0 1 6.709-1.39 14.056 14.056 0 0 1 9.338 3.169 12.003 12.003 0 0 1 3.015 4.096 12.003 12.003 0 0 1 1.045 4.978 15.397 15.397 0 0 1-3.543 9.525 3.873 3.873 0 0 1-1.24 1.065Zm20.107 17.557a22.106 22.106 0 0 1-1.065 6.79 8.149 8.149 0 0 1-3.371 4.562 6.772 6.772 0 0 1-3.501.932c-.119 0-.218-.008-.326-.013.147-1.898.241-3.762.241-5.568 0-1.04-.031-2.062-.081-3.072.05 0 .104.005.154.005a8.12 8.12 0 0 0 4.492-1.182 1.296 1.296 0 0 0 .32-1.803 1.3 1.3 0 0 0-1.802-.329l-.001-.003a5.759 5.759 0 0 1-3.009.717c-.104 0-.23-.02-.339-.025-.07-.734-.16-1.458-.26-2.175a8.45 8.45 0 0 0 1.842-.432 1.297 1.297 0 0 0 .035-2.396 1.297 1.297 0 0 0-.992-.018l-.001-.003c-.193.067-.39.12-.59.159a9.343 9.343 0 0 1-.722.125 39.521 39.521 0 0 0-6.398-15.38 17.481 17.481 0 0 0 2.65-9.038c.001-.217-.022-.433-.031-.65a39.878 39.878 0 0 1 8.668 10.997 35.815 35.815 0 0 1 4.097 16.873c0 .307-.003.616-.01.927Z"/></svg>