<svg width="200" height="200" viewBox="0 0 200 200" xmlns="http://www.w3.org/2000/svg"><g id="type=thanks, mode=dark"><g id="Layer 12"><path id="Vector" d="M95.194 123.299C89.1819 122.879 83.239 121.76 77.485 119.968C77.1558 119.865 76.7993 119.898 76.4941 120.058C76.1889 120.219 75.9599 120.494 75.8575 120.823C75.7551 121.152 75.7877 121.509 75.948 121.814C76.1084 122.119 76.3835 122.348 76.7127 122.451C82.6513 124.3 88.7844 125.455 94.989 125.891C95.3327 125.919 95.6731 125.808 95.9354 125.584C96.1976 125.36 96.3603 125.042 96.3874 124.698C96.4146 124.354 96.3042 124.014 96.0804 123.752C95.8565 123.489 95.5377 123.327 95.194 123.3L95.194 123.299Z"/><path id="Vector_2" d="M90.6959 47.7418C89.5732 46.5373 88.1556 45.6467 86.5833 45.1578C85.4228 44.8346 84.2224 44.6777 83.0178 44.6918C78.2182 44.8442 73.5717 46.4175 69.6668 49.2125C64.8671 52.4874 61.5057 57.4778 60.2745 63.1564C59.8827 64.9501 59.6813 66.7802 59.6737 68.6162C59.6245 72.2061 60.5573 75.7412 62.3712 78.8396C63.7062 81.1351 65.5984 83.0572 67.8727 84.4281L68.5199 83.3007L67.8727 84.4282C70.5709 85.9117 73.6079 86.6694 76.6867 86.6273C80.6325 86.6409 84.4974 85.5092 87.8127 83.3695C91.3799 81.0539 93.9388 77.4743 94.9755 73.3497C95.7117 70.4564 96.0833 67.4824 96.0815 64.497C96.1447 60.2698 95.3133 56.077 93.6418 52.1938C92.9168 50.5549 91.9209 49.0499 90.6959 47.7418ZM92.4569 72.7039C91.5824 76.2034 89.4109 79.2398 86.3819 81.1986C83.491 83.0576 80.1237 84.0401 76.6867 84.0273C74.0622 84.0685 71.4717 83.4297 69.1671 82.1733V82.1733C67.2794 81.0228 65.71 79.4177 64.6022 77.5047C63.0294 74.8099 62.2241 71.736 62.2737 68.6162C62.2813 66.9629 62.4634 65.315 62.817 63.7C63.9097 58.6633 66.896 54.239 71.1586 51.342C74.6279 48.8562 78.7527 47.4475 83.0178 47.2919C83.9745 47.2782 84.9284 47.3997 85.8511 47.6526C86.9917 48.0152 88.0177 48.6692 88.8278 49.5502C90.4089 51.3209 91.5658 53.4284 92.2109 55.713C93.0739 58.5604 93.5023 61.5217 93.4814 64.497C93.4832 67.2646 93.139 70.0216 92.4569 72.7039H92.4569Z"/><path id="Vector_3" d="M149.354 63.1564C148.123 57.4778 144.761 52.4873 139.961 49.2125C136.056 46.4175 131.41 44.8442 126.61 44.6918C125.405 44.6777 124.205 44.8346 123.045 45.1578C121.472 45.6467 120.055 46.5373 118.932 47.7418C117.068 49.8014 115.702 52.2611 114.937 54.9317C113.994 58.032 113.525 61.2571 113.547 64.4977C113.545 67.4829 113.916 70.4566 114.652 73.3497C115.689 77.4743 118.248 81.0539 121.815 83.3694C125.131 85.5092 128.996 86.6409 132.941 86.6273C136.02 86.6694 139.057 85.9117 141.756 84.4282L141.108 83.3007L141.756 84.4281C144.03 83.0572 145.922 81.1351 147.257 78.8396C149.071 75.7412 150.004 72.2061 149.954 68.6162C149.947 66.7802 149.745 64.9501 149.354 63.1564ZM145.026 77.5047C143.918 79.4177 142.349 81.0228 140.461 82.1733V82.1732C138.156 83.4297 135.566 84.0684 132.941 84.0273C129.504 84.04 126.137 83.0576 123.246 81.1986C120.217 79.2399 118.045 76.2034 117.171 72.7039C116.489 70.0219 116.145 67.2651 116.147 64.4977C116.085 60.6454 116.835 56.8233 118.348 53.2802C118.951 51.9085 119.78 50.6477 120.8 49.5502C121.61 48.6693 122.636 48.0152 123.777 47.6526C124.699 47.3997 125.653 47.2782 126.61 47.2919C130.875 47.4475 135 48.8561 138.47 51.342C142.732 54.239 145.718 58.6633 146.811 63.7C147.165 65.315 147.347 66.9629 147.354 68.6163C147.404 71.736 146.599 74.8099 145.026 77.5047Z"/><path id="Vector_4" d="M82.43 66.278C77.2928 66.3532 73.5433 70.6276 74.3836 73.1022C75.074 75.1369 78.3055 75.1193 82.43 75.0446C86.5545 74.9694 89.0662 75.4269 89.3289 72.7648C89.5481 70.5431 86.5955 66.2174 82.43 66.278ZM82.0926 73.9269C81.5512 73.9269 81.022 73.7665 80.5719 73.4657C80.1217 73.165 79.7709 72.7375 79.5637 72.2374C79.3565 71.7372 79.3023 71.1869 79.4079 70.6559C79.5135 70.125 79.7742 69.6372 80.1569 69.2544C80.5397 68.8716 81.0275 68.611 81.5584 68.5054C82.0894 68.3998 82.6397 68.454 83.1399 68.6612C83.64 68.8684 84.0675 69.2192 84.3682 69.6694C84.669 70.1195 84.8295 70.6487 84.8294 71.1901C84.8293 71.9159 84.5409 72.612 84.0277 73.1252C83.5144 73.6384 82.8184 73.9268 82.0926 73.9269H82.0926Z"/><path id="Vector_5" d="M127.197 66.278C123.032 66.2174 120.079 70.5431 120.299 72.7648C120.561 75.4269 123.073 74.9694 127.197 75.0446C131.322 75.1193 134.553 75.1369 135.244 73.1022C136.084 70.6276 132.334 66.3531 127.197 66.278ZM127.535 73.9269C126.994 73.9269 126.464 73.7663 126.014 73.4655C125.564 73.1647 125.213 72.7372 125.006 72.237C124.799 71.7369 124.745 71.1866 124.851 70.6556C124.956 70.1247 125.217 69.637 125.6 69.2543C125.983 68.8715 126.47 68.6109 127.001 68.5053C127.532 68.3998 128.083 68.454 128.583 68.6612C129.083 68.8684 129.51 69.2193 129.811 69.6694C130.112 70.1195 130.272 70.6487 130.272 71.1901C130.272 71.5495 130.201 71.9054 130.064 72.2375C129.926 72.5696 129.725 72.8713 129.47 73.1255C129.216 73.3796 128.914 73.5812 128.582 73.7187C128.25 73.8562 127.894 73.927 127.535 73.9269Z"/><path id="Vector_6" d="M114.611 90.7427C114.176 89.9094 113.944 88.9851 113.935 88.0452C113.928 87.3317 114.088 86.6266 114.402 85.986C114.765 85.2758 115.303 84.6699 115.966 84.2259C116.107 84.129 116.228 84.0051 116.321 83.8613C116.414 83.7175 116.478 83.5567 116.509 83.3882C116.54 83.2196 116.537 83.0466 116.501 82.8791C116.465 82.7117 116.396 82.553 116.298 82.4123C116.2 82.2715 116.075 82.1515 115.931 82.0591C115.787 81.9667 115.626 81.9038 115.457 81.8739C115.288 81.844 115.115 81.8478 114.948 81.885C114.781 81.9222 114.622 81.9921 114.482 82.0907V82.0906C113.461 82.784 112.633 83.7251 112.076 84.8259C111.8 85.3852 111.601 85.9791 111.483 86.5915C111.405 86.6172 111.33 86.6507 111.258 86.6914C109.7 87.7671 107.913 88.4663 106.038 88.7339C106.016 88.0948 105.987 87.1968 105.957 86.1848C105.918 84.8558 105.879 83.3424 105.858 81.9987C108.959 81.1299 112.246 77.1207 112.074 74.3771C111.849 70.7775 99.0457 70.9147 97.7507 74.0021C96.91 76.0076 100.176 80.6277 103.255 81.861C103.291 84.2568 103.384 87.2042 103.437 88.7506C102.786 88.6667 102.15 88.4935 101.546 88.236C100.549 87.7987 99.6813 87.1106 99.0285 86.2386C98.8196 85.9644 98.5102 85.7843 98.1685 85.7382C97.8268 85.692 97.4808 85.7834 97.2065 85.9924C96.9323 86.2013 96.7522 86.5106 96.7061 86.8523C96.6599 87.194 96.7513 87.5401 96.9603 87.8143V87.8143C97.8809 89.0369 99.1006 90.0021 100.502 90.6172C101.809 91.1752 103.217 91.4559 104.637 91.4415C107.044 91.4063 109.403 90.7705 111.501 89.5919C111.655 90.4068 111.924 91.1956 112.3 91.9349C112.89 93.1051 113.759 94.1115 114.831 94.8647C115.116 95.0567 115.466 95.128 115.803 95.0632C116.14 94.9984 116.438 94.8028 116.632 94.519C116.825 94.2352 116.899 93.8863 116.836 93.5486C116.773 93.2109 116.579 92.9118 116.296 92.7167C115.582 92.2062 115.003 91.5285 114.611 90.7427Z"/><path id="Vector_7" d="M67.6189 111.747C67.4128 111.078 67.0559 110.465 66.5757 109.955C65.8616 109.219 64.9783 108.668 64.0028 108.352C62.9941 108.014 61.9363 107.845 60.8725 107.852C59.4528 107.848 58.0468 108.13 56.7381 108.68C54.3914 109.682 52.247 111.104 50.4104 112.875C48.7132 114.571 47.1026 116.352 45.5849 118.211C45.4734 118.34 45.3885 118.49 45.335 118.652C45.2815 118.815 45.2605 118.986 45.2731 119.156C45.2857 119.326 45.3317 119.492 45.4085 119.645C45.4853 119.797 45.5914 119.933 45.7207 120.044C45.8501 120.156 46.0001 120.241 46.1622 120.294C46.3243 120.348 46.4954 120.369 46.6656 120.356C46.8359 120.344 47.002 120.298 47.1545 120.221C47.3069 120.144 47.4428 120.038 47.5542 119.909V119.909C49.2232 117.97 50.6392 116.236 52.1972 114.764C53.8108 113.203 55.697 111.951 57.7623 111.07C58.7475 110.659 59.8049 110.449 60.8725 110.452C61.8723 110.433 62.8633 110.644 63.7685 111.069C64.1061 111.234 64.4122 111.456 64.6731 111.727C64.8839 111.947 65.0408 112.213 65.1316 112.504C65.232 112.834 65.4593 113.11 65.7635 113.272C66.0677 113.435 66.4239 113.469 66.7538 113.369C67.0836 113.268 67.3601 113.041 67.5223 112.737C67.6846 112.433 67.7193 112.077 67.6189 111.747V111.747Z"/><path id="Vector_8" d="M39.6362 124.109C38.1227 125.235 36.4943 126.199 34.7782 126.984C32.837 127.9 30.4754 128.824 27.4409 129.9C27.116 130.015 26.85 130.255 26.7017 130.566C26.5533 130.877 26.5347 131.234 26.6499 131.559C26.765 131.884 27.0046 132.15 27.3158 132.299C27.6271 132.447 27.9845 132.466 28.3095 132.35V132.35C31.3849 131.26 33.8211 130.31 35.8877 129.335C37.7657 128.474 39.5477 127.417 41.2041 126.183C41.3415 126.08 41.4574 125.951 41.5449 125.804C41.6325 125.657 41.69 125.493 41.7142 125.324C41.7383 125.154 41.7287 124.981 41.6858 124.815C41.6429 124.649 41.5676 124.493 41.4642 124.356C41.3608 124.22 41.2313 124.105 41.0833 124.018C40.9353 123.932 40.7716 123.875 40.6017 123.852C40.4318 123.829 40.2591 123.84 40.0933 123.884C39.9276 123.928 39.7723 124.004 39.6362 124.109L39.6362 124.109Z"/><path id="Vector_9" d="M155.989 46.6138C157.358 45.5641 158.573 44.3265 159.596 42.9375C162.146 39.4364 163.514 35.2146 163.503 30.8838C163.513 28.002 162.891 25.153 161.681 22.5377C160.433 19.8503 158.529 17.5199 156.144 15.761C152.904 13.4119 148.996 12.1638 144.994 12.2C141.846 12.1811 138.736 12.8929 135.91 14.2793C133.084 15.6657 130.618 17.6889 128.706 20.1898C127.65 21.625 126.809 23.2064 126.209 24.8842C119.392 22.3493 112.18 21.0388 104.907 21.0131C97.785 21.0281 90.7165 22.2389 83.996 24.5952C83.4061 23.0246 82.6036 21.5423 81.6109 20.1897C79.699 17.6888 77.2329 15.6656 74.4066 14.2793C71.5804 12.8929 68.471 12.1811 65.3231 12.2C61.3211 12.1638 57.4129 13.4119 54.1727 15.761C51.7881 17.5199 49.884 19.8502 48.6357 22.5377C47.4254 25.153 46.8036 28.002 46.8142 30.8838C46.8031 35.2146 48.1713 39.4365 50.7205 42.9375C51.6 44.1282 52.6202 45.2082 53.759 46.1539C46.1161 55.6878 41.8905 67.5089 41.7576 79.7273C41.7576 81.2655 41.8283 82.8143 41.9698 84.3739C42.6594 92.0719 45.518 99.4165 50.2137 105.555C45.0092 107.297 37.0707 110.906 27.4547 118.347C22.9532 121.843 19.3653 126.377 16.9977 131.561C14.8557 136.182 13.7283 141.208 13.6916 146.3C13.6142 150.085 14.4191 153.836 16.0425 157.255C16.73 158.748 17.7073 160.09 18.9176 161.202C20.128 162.315 21.5473 163.176 23.0931 163.735C25.512 164.549 28.0459 164.969 30.5981 164.98C34.997 164.922 39.299 163.68 43.052 161.385C42.4718 165.065 42.0753 169.241 41.8105 172.789C41.4765 177.281 41.3553 180.734 41.3549 180.746C41.3485 180.916 41.3759 181.087 41.4354 181.247C41.495 181.407 41.5856 181.554 41.702 181.679C41.8185 181.805 41.9584 181.906 42.1139 181.977C42.2695 182.048 42.4374 182.087 42.6083 182.093C42.7791 182.099 42.9495 182.071 43.1096 182.012C43.2697 181.952 43.4164 181.861 43.5414 181.744C43.6663 181.627 43.767 181.487 43.8377 181.331C43.9083 181.176 43.9476 181.008 43.9532 180.837C43.9532 180.836 43.9606 180.628 43.9769 180.239C44.0342 178.878 44.2012 175.348 44.5373 171.274C44.8284 167.299 45.3289 163.343 46.0366 159.421C49.5673 156.756 52.7488 153.657 55.5064 150.198C55.6149 150.066 55.6963 149.914 55.7459 149.751C55.7955 149.587 55.8124 149.415 55.7955 149.245C55.7787 149.075 55.7285 148.91 55.6477 148.759C55.567 148.609 55.4574 148.475 55.3251 148.367C55.1927 148.259 55.0404 148.178 54.8767 148.128C54.7131 148.079 54.5413 148.063 54.3712 148.08C54.2011 148.097 54.0361 148.148 53.8856 148.229C53.7351 148.31 53.602 148.42 53.4941 148.552V148.552C50.3997 152.505 46.686 155.931 42.4971 158.697C38.9623 161.033 34.8342 162.31 30.5981 162.38C28.3226 162.369 26.0635 161.993 23.9073 161.266C22.6845 160.813 21.5642 160.12 20.6118 159.23C19.6594 158.339 18.8941 157.267 18.3604 156.077C16.9239 153.022 16.2157 149.675 16.2915 146.3C16.3286 141.583 17.3748 136.928 19.3597 132.648C21.5521 127.844 24.8756 123.643 29.0457 120.403C38.9162 112.767 46.8908 109.324 51.7792 107.778C51.8366 107.752 51.8919 107.721 51.9445 107.686C52.7565 108.616 53.6082 109.509 54.4996 110.365C54.7488 110.601 55.0814 110.729 55.4247 110.721C55.7681 110.713 56.0942 110.569 56.332 110.322C56.5697 110.074 56.6997 109.742 56.6937 109.399C56.6876 109.055 56.5459 108.728 56.2996 108.489V108.489C49.5613 102.065 45.3886 93.4099 44.559 84.1371C44.4238 82.6575 44.3566 81.1876 44.3575 79.7273C44.3558 64.5681 51.5056 50.548 62.6803 40.2954C74.1974 29.6866 89.2485 23.7405 104.906 23.6132C120.749 23.6093 135.924 30.3379 147.114 40.7497C158.309 51.1615 165.476 65.2107 165.471 79.7622C165.471 81.2123 165.399 82.6673 165.255 84.127C164.123 95.4662 157.618 105.097 147.279 112.084C136.946 119.059 122.788 123.312 106.613 123.704C106.268 123.712 105.941 123.857 105.703 124.107C105.466 124.356 105.337 124.69 105.345 125.035C105.354 125.379 105.498 125.707 105.748 125.944C105.998 126.182 106.332 126.311 106.676 126.303C123.267 125.897 137.891 121.551 148.733 114.239C159.57 106.938 166.634 96.5942 167.842 84.3841C167.996 82.8388 168.072 81.2982 168.071 79.7622C168.067 67.7712 163.487 56.2407 155.989 46.6138ZM60.9228 38.3794C58.9629 40.1819 57.1174 42.1048 55.397 44.137C54.4296 43.3298 53.5625 42.4095 52.8142 41.3959C50.5942 38.3414 49.4035 34.6598 49.4142 30.8838C49.4037 28.3831 49.9417 25.9106 50.9902 23.6403C52.0543 21.3458 53.679 19.356 55.7144 17.8546C58.5079 15.8344 61.8758 14.7637 65.3231 14.8C68.0633 14.7824 70.7706 15.3989 73.233 16.6013C75.6954 17.8038 77.8463 19.5596 79.5174 21.7315C80.3681 22.8902 81.0561 24.16 81.5624 25.5055C73.9523 28.4968 66.9563 32.8605 60.9228 38.3794H60.9228ZM148.885 38.846C142.961 33.3368 136.102 28.928 128.631 25.8262C129.148 24.3618 129.878 22.9821 130.799 21.7317C132.47 19.5598 134.621 17.8039 137.084 16.6014C139.546 15.3989 142.253 14.7823 144.994 14.8C148.441 14.7637 151.809 15.8343 154.602 17.8545C156.638 19.356 158.262 21.3457 159.327 23.6403C160.375 25.9105 160.913 28.3831 160.903 30.8838C160.913 34.6597 159.723 38.3412 157.503 41.3958C156.611 42.6072 155.55 43.6847 154.352 44.5953C152.646 42.5716 150.82 40.6518 148.885 38.846Z"/><path id="Vector_10" d="M122.331 135.614L122.332 135.615H122.333L122.331 135.614Z"/><path id="Vector_11" d="M124.241 139.416C124.262 138.693 124.171 137.971 123.972 137.275C123.862 136.919 123.683 136.587 123.446 136.299C123.158 135.957 122.767 135.717 122.332 135.615C122.118 135.565 121.899 135.54 121.679 135.54C120.883 135.56 120.121 135.866 119.534 136.403C118.505 137.41 117.707 138.629 117.197 139.975C116.201 142.43 115.43 144.971 114.892 147.565C114.802 147.968 114.718 148.366 114.637 148.761L103.304 148.269C103.211 146.819 102.92 145.39 102.439 144.019C101.753 142.262 101.204 140.453 100.797 138.611C101.109 138.657 101.424 138.682 101.739 138.683C102.902 138.718 104.034 138.31 104.907 137.542C105.292 137.187 105.599 136.755 105.809 136.275C106.019 135.794 106.126 135.275 106.125 134.751C106.123 134.204 106.012 133.664 105.797 133.161C105.602 132.668 105.51 132.14 105.526 131.61C105.732 129.419 106.067 127.241 106.528 125.088C106.741 123.767 106.853 122.432 106.861 121.095C106.898 119.347 106.611 117.607 106.016 115.964C105.652 115.029 105.12 114.168 104.447 113.424C104.675 113.358 104.899 113.276 105.115 113.178C106.124 112.702 106.937 111.892 107.415 110.884C107.892 109.856 108.129 108.733 108.105 107.6C108.1 107.127 108.065 106.655 108 106.186L113.754 103.859C113.92 103.792 114.07 103.692 114.195 103.565C114.32 103.437 114.417 103.286 114.481 103.119C114.545 102.952 114.574 102.774 114.566 102.596C114.558 102.418 114.513 102.243 114.435 102.083L113.017 99.1829C112.874 98.892 112.628 98.6647 112.327 98.5455C112.026 98.4263 111.691 98.4237 111.388 98.5383L109.703 99.1772L108.797 97.2228C108.66 96.929 108.419 96.6967 108.12 96.5713C107.822 96.4459 107.487 96.4364 107.182 96.5447L103.339 97.9107C103.297 97.8784 103.256 97.8423 103.213 97.8107C102.455 97.2394 101.625 96.7702 100.745 96.4154C99.9753 96.0947 99.1525 95.9201 98.3188 95.9005C97.8798 95.8953 97.4434 95.9669 97.0291 96.112C96.746 96.2213 96.4823 96.3754 96.2481 96.5684C95.4391 96.121 94.5715 95.789 93.6705 95.5819C93.1829 95.4774 92.6858 95.424 92.1872 95.4225C90.8658 95.3957 89.5793 95.8481 88.5654 96.6959C87.8566 97.2978 87.3715 98.121 87.1883 99.0326C87.0585 99.08 86.9317 99.1351 86.8085 99.1975C86.4784 99.3706 86.184 99.6047 85.941 99.8873C85.8042 99.8666 85.6672 99.8393 85.5307 99.8277C85.2942 99.8088 85.0579 99.7992 84.8219 99.799C84.0267 99.7924 83.2357 99.9154 82.4801 100.163C81.2863 100.553 80.2607 101.338 79.5726 102.388C78.8019 103.657 78.4201 105.124 78.4744 106.607C78.4744 106.654 78.4776 106.703 78.4781 106.75L40.787 120.151C40.5708 120.227 40.3787 120.359 40.2303 120.534C40.082 120.709 39.9828 120.92 39.9429 121.146L39.3965 124.197C39.3462 124.476 39.3891 124.765 39.5187 125.018C39.6483 125.271 39.8573 125.475 40.1138 125.598L42.7466 126.861C42.9051 126.937 43.0775 126.981 43.2533 126.988C43.4291 126.996 43.6046 126.967 43.769 126.905L44.3297 126.693L44.189 127.584C44.1444 127.865 44.1933 128.152 44.328 128.403C44.4628 128.653 44.676 128.853 44.935 128.97L47.5932 130.179C47.7536 130.252 47.9273 130.291 48.1036 130.295C48.2799 130.299 48.4552 130.267 48.6186 130.2L58.747 126.104C58.9062 126.041 59.0513 125.947 59.174 125.827C59.2967 125.707 59.3945 125.565 59.4618 125.407C59.5292 125.25 59.5647 125.08 59.5664 124.909C59.5681 124.738 59.5358 124.568 59.4716 124.409C59.4074 124.25 59.3123 124.105 59.192 123.983C59.0717 123.861 58.9285 123.764 58.7705 123.698C58.6126 123.631 58.4431 123.597 58.2718 123.596C58.1004 123.595 57.9306 123.629 57.7722 123.694V123.694L48.1612 127.581L46.9114 127.012L47.1291 125.633L66.9135 118.147C67.2354 118.025 67.4955 117.78 67.6368 117.466C67.778 117.152 67.7889 116.795 67.6671 116.472C67.5452 116.15 67.3005 115.89 66.9868 115.748C66.673 115.606 66.3157 115.595 65.9934 115.716L65.9934 115.716L43.3695 124.276L42.1302 123.681L42.369 122.347L85.108 107.152C85.4439 107.449 85.7487 107.78 86.0176 108.139L72.6976 113.179C72.5366 113.239 72.389 113.329 72.2632 113.446C72.1375 113.563 72.0361 113.703 71.9649 113.86C71.8937 114.016 71.8542 114.184 71.8485 114.356C71.8429 114.527 71.8712 114.698 71.9319 114.859C71.9926 115.019 72.0845 115.166 72.2023 115.291C72.3201 115.416 72.4614 115.516 72.6181 115.586C72.7748 115.656 72.9438 115.694 73.1153 115.698C73.2869 115.703 73.4576 115.673 73.6176 115.611L87.203 110.471C87.3331 110.862 87.4335 111.264 87.5035 111.67L76.9456 115.94C76.7865 116.003 76.6415 116.098 76.519 116.217C76.3964 116.337 76.2987 116.479 76.2315 116.637C76.1642 116.794 76.1287 116.964 76.1271 117.135C76.1254 117.306 76.1576 117.476 76.2219 117.635C76.2861 117.794 76.381 117.938 76.5012 118.06C76.6214 118.182 76.7646 118.279 76.9224 118.346C77.0802 118.412 77.2496 118.447 77.4209 118.447C77.5921 118.448 77.7619 118.415 77.9203 118.35L82.5656 116.472C82.5712 116.476 82.5734 116.483 82.5791 116.488C83.0602 116.864 83.5692 117.203 84.1018 117.501C85.1871 118.145 86.3906 118.565 87.6411 118.736L87.642 118.737C88.0232 118.777 88.4063 118.798 88.7896 118.798C89.948 118.821 91.0965 118.581 92.1487 118.096C92.321 118.236 92.527 118.327 92.7459 118.362C92.9669 118.391 93.179 118.391 93.3959 118.407C93.4077 118.429 93.4076 118.454 93.4209 118.476V118.476C93.831 119.121 94.1536 119.818 94.3803 120.548C94.6002 121.32 94.7053 122.12 94.6921 122.922C94.6006 125.122 94.2829 127.307 93.7438 129.442C93.2928 131.407 93.0565 133.415 93.039 135.431C93.0662 138.485 93.7108 141.502 94.9341 144.3C95.4147 145.476 95.7689 146.7 95.9908 147.951L85.3072 147.488C85.0299 145.455 84.5993 143.446 84.0192 141.478C83.5474 139.783 82.8212 138.168 81.8653 136.691C81.3967 135.991 80.8032 135.384 80.1145 134.899C79.3928 134.399 78.537 134.129 77.6591 134.125C77.1642 134.127 76.6728 134.208 76.2034 134.365C75.4294 134.616 74.733 135.062 74.1808 135.66C73.4066 136.546 72.8712 137.615 72.6254 138.766C72.3516 139.97 72.2218 141.202 72.239 142.436C72.2833 144.866 72.5631 147.286 73.0745 149.662C73.4894 151.691 73.9027 153.1 73.9099 153.125C73.9801 153.204 74.0317 153.298 74.0611 153.4C74.0905 153.501 74.0968 153.608 74.0797 153.713L81.1041 182.359C81.1713 182.63 81.3242 182.873 81.5402 183.051C81.7561 183.229 82.0237 183.333 82.3032 183.347L101.77 184.299C102.112 184.313 102.446 184.191 102.699 183.959C102.952 183.728 103.104 183.406 103.12 183.064C103.137 182.721 103.018 182.386 102.789 182.131C102.559 181.876 102.239 181.722 101.897 181.702V181.702L83.3984 180.798L77.0124 154.755L113.453 155.945L113.145 158.549C113.104 158.891 113.201 159.236 113.415 159.507C113.628 159.777 113.94 159.952 114.283 159.993C114.625 160.033 114.97 159.936 115.24 159.723C115.511 159.509 115.686 159.197 115.727 158.854L116.174 155.076C116.206 155.004 116.231 154.929 116.249 154.853V154.852C116.71 151.24 117.447 147.667 118.453 144.167C118.896 142.563 119.52 141.015 120.314 139.552C120.554 139.116 120.861 138.72 121.224 138.379C121.314 138.299 121.415 138.232 121.523 138.179C121.544 138.25 121.561 138.321 121.573 138.394C121.623 138.732 121.646 139.074 121.641 139.416C121.555 141.454 121.296 143.481 120.867 145.475C120.441 147.691 119.947 149.812 119.678 151.146C119.67 151.225 119.67 151.304 119.677 151.383L118.345 158.562C118.312 158.731 118.314 158.904 118.349 159.071C118.384 159.239 118.451 159.398 118.548 159.54C118.645 159.681 118.768 159.802 118.912 159.895C119.055 159.989 119.216 160.053 119.384 160.084C119.552 160.116 119.725 160.113 119.893 160.078C120.06 160.042 120.219 159.973 120.36 159.876C120.501 159.779 120.621 159.654 120.714 159.511C120.807 159.367 120.87 159.206 120.901 159.037L122.399 150.966C122.407 150.924 122.394 150.886 122.397 150.844C122.671 149.567 123.066 147.809 123.42 145.967C123.883 143.811 124.157 141.619 124.241 139.416ZM113.828 153.356L102.998 153.002C103.155 152.301 103.257 151.588 103.304 150.871L114.148 151.342C114.024 152.062 113.918 152.735 113.828 153.356ZM103.959 124.685C103.467 126.969 103.122 129.282 102.926 131.61C102.909 132.488 103.071 133.36 103.402 134.174C103.481 134.356 103.523 134.552 103.525 134.751C103.527 134.917 103.494 135.081 103.428 135.233C103.362 135.385 103.264 135.521 103.141 135.633C102.748 135.956 102.247 136.117 101.739 136.083C101.303 136.077 100.871 136.009 100.453 135.883C100.433 135.523 100.415 135.161 100.415 134.785C100.422 133.203 100.603 131.626 100.954 130.083C101.659 127.393 102.083 124.637 102.222 121.86C102.255 120.524 102.009 119.196 101.498 117.961C101.017 116.891 100.281 115.955 99.3531 115.236C99.4912 114.877 99.5964 114.506 99.6675 114.127C100.045 114.126 100.421 114.069 100.782 113.96C100.841 113.943 100.905 113.911 100.966 113.889C101.063 114.008 101.181 114.107 101.314 114.184V114.184C102.379 114.788 103.189 115.757 103.595 116.912C104.07 118.254 104.296 119.671 104.261 121.095C104.253 122.297 104.152 123.498 103.959 124.685V124.685ZM94.4521 115.838C94.8917 114.913 95.1085 113.898 95.085 112.875C95.0815 112.267 95.0286 111.661 94.9266 111.062C94.4952 108.091 93.222 105.304 91.2574 103.033C90.7294 102.449 90.1445 101.92 89.5112 101.453C89.913 101.535 90.3055 101.658 90.683 101.818C92.0218 102.406 93.2148 103.282 94.1776 104.382C95.3979 105.761 96.2751 107.408 96.7375 109.19C97.0421 110.256 97.2091 111.356 97.2346 112.465C97.2476 113.037 97.1642 113.607 96.988 114.152C96.8251 114.682 96.4735 115.134 95.9998 115.422C95.5239 115.681 94.9935 115.823 94.4521 115.838V115.838ZM111.486 101.972L107.396 103.626C107.325 103.415 107.263 103.206 107.182 102.994C107.173 102.97 107.162 102.948 107.152 102.924L111.202 101.39L111.486 101.972ZM107.208 99.979L105.836 100.501C105.698 100.307 105.558 100.116 105.411 99.9336L106.936 99.3913L107.208 99.979ZM102.585 100.683C103.535 101.593 104.276 102.699 104.755 103.925C105.224 105.095 105.478 106.34 105.505 107.6C105.559 108.523 105.308 109.438 104.79 110.205C104.587 110.468 104.323 110.679 104.021 110.819C103.831 110.903 103.631 110.963 103.426 110.997C103.599 110.322 103.683 109.627 103.675 108.93C103.672 108.338 103.631 107.746 103.552 107.159C103.156 104.111 101.769 101.277 99.6056 99.0946C99.4397 98.9258 99.269 98.7705 99.099 98.6134C99.3341 98.6709 99.565 98.7446 99.79 98.8337C100.832 99.2652 101.78 99.8929 102.585 100.683H102.585ZM92.1871 98.0227C92.5054 98.0242 92.8226 98.0588 93.1337 98.1261L93.1343 98.1262C93.9021 98.3088 94.6372 98.6086 95.3137 99.0152C96.7038 99.8317 97.912 100.924 98.864 102.225C100.282 104.175 101.055 106.519 101.076 108.93C101.093 109.491 101.013 110.05 100.84 110.583C100.748 110.919 100.53 111.207 100.232 111.386C100.096 111.458 99.9458 111.501 99.792 111.513C99.6997 110.503 99.5185 109.502 99.2505 108.523C98.5211 105.696 96.9321 103.166 94.703 101.28C93.796 100.514 92.7799 99.8872 91.6882 99.4202C91.1542 99.1957 90.5995 99.0239 90.0321 98.9072C90.1032 98.818 90.1823 98.7355 90.2684 98.6607C90.8097 98.2228 91.4914 97.9961 92.1872 98.0226L92.1871 98.0227ZM90.7599 115.875C90.1283 116.102 89.4606 116.211 88.7896 116.198C88.4984 116.198 88.2073 116.182 87.9177 116.151C87.059 116.023 86.2328 115.731 85.4836 115.292L87.7644 114.369C87.8578 114.555 87.9952 114.715 88.1647 114.836C88.3341 114.957 88.5304 115.034 88.7366 115.061C89.0789 115.102 89.4235 115.006 89.6946 114.793C89.9657 114.58 90.1411 114.268 90.1822 113.925C90.2117 113.641 90.2253 113.355 90.223 113.069C90.2241 111.714 89.9753 110.371 89.4891 109.106C88.8423 107.371 87.7235 105.85 86.2587 104.716C85.1058 103.815 83.6968 103.302 82.2341 103.252C82.3774 103.121 82.5327 103.005 82.6981 102.904C83.3488 102.551 84.0817 102.377 84.8219 102.399C84.9865 102.399 85.1542 102.406 85.3241 102.419L85.3252 102.42C86.9014 102.688 88.3244 103.525 89.3247 104.772C90.9563 106.674 92.0098 109.003 92.3611 111.484C92.44 111.944 92.4814 112.409 92.485 112.875C92.5087 113.499 92.3844 114.121 92.1221 114.688C91.8367 115.243 91.3492 115.668 90.7599 115.875L90.7599 115.875ZM96.8729 119.809C96.6963 119.236 96.4695 118.68 96.1952 118.148C96.2382 118.134 96.2846 118.131 96.3272 118.116C96.8631 117.938 97.3649 117.671 97.8112 117.325C98.3756 117.774 98.824 118.352 99.1187 119.01C99.4826 119.915 99.6538 120.885 99.6215 121.86C99.4792 124.447 99.0754 127.013 98.4164 129.519C98.0234 131.247 97.8217 133.013 97.815 134.785C97.9101 138.264 98.6488 141.694 99.9937 144.904C100.759 147.205 100.948 149.658 100.546 152.05C100.496 152.335 100.429 152.616 100.345 152.892L100.336 152.915L98.2801 152.848C98.606 151.851 98.7713 150.809 98.7697 149.761C98.7041 147.548 98.2218 145.368 97.3479 143.334C96.2469 140.843 95.6654 138.154 95.639 135.431C95.6565 133.602 95.8725 131.781 96.2833 129.999C96.8648 127.682 97.2029 125.31 97.292 122.922C97.3051 121.869 97.1639 120.82 96.8729 119.809L96.8729 119.809ZM96.1281 150.522C96.0627 151.298 95.8593 152.055 95.5273 152.758L80.2379 152.259L84.2832 150.046L95.9405 150.552C96.0037 150.547 96.0664 150.537 96.1281 150.522L96.1281 150.522ZM75.4 138.583C75.5534 138.16 75.7855 137.769 76.0842 137.431C76.3357 137.155 76.6549 136.95 77.0102 136.837C77.2191 136.765 77.4381 136.727 77.6589 136.725C78.0191 136.728 78.3693 136.844 78.6611 137.055C79.4671 137.706 80.0972 138.548 80.494 139.505C81.3198 141.36 81.9249 143.305 82.2971 145.301C82.4805 146.202 82.6087 146.991 82.6904 147.55C82.7108 147.69 82.7282 147.815 82.743 147.925L76.1694 151.521C76.0031 150.874 75.7715 149.912 75.5478 148.773C75.1153 146.687 74.878 144.566 74.8388 142.436C74.7958 141.129 74.9859 139.824 75.4 138.583L75.4 138.583Z"/><path id="Vector_12" d="M182.995 139.555C182.439 130.869 178.615 122.715 172.293 116.733C167.298 112.195 161.361 108.818 154.908 106.844C154.745 106.792 154.574 106.772 154.404 106.786C154.234 106.8 154.068 106.847 153.916 106.925C153.609 107.082 153.377 107.355 153.271 107.683C153.166 108.011 153.195 108.368 153.352 108.675C153.509 108.981 153.782 109.213 154.11 109.319C160.194 111.175 165.793 114.352 170.506 118.622C176.368 124.165 179.906 131.726 180.405 139.778C180.515 141.057 180.57 142.31 180.569 143.537C180.634 149.962 178.994 156.289 175.815 161.872C171.247 169.85 163.611 176.121 154.061 180.578C144.517 185.034 133.08 187.66 121.04 188.369C119.975 188.432 118.969 188.462 118.023 188.461C112.426 188.465 108.878 187.415 106.833 186.144C104.781 184.862 104.211 183.45 104.206 182.436C104.195 181.99 104.326 181.553 104.581 181.187C104.593 181.17 104.595 181.149 104.606 181.132C104.761 181.169 104.904 181.211 105.067 181.245C107.055 181.611 109.075 181.778 111.096 181.743C112.587 181.743 114.269 181.68 116.174 181.547C116.345 181.536 116.512 181.491 116.665 181.415C116.819 181.339 116.956 181.234 117.068 181.105C117.181 180.976 117.267 180.826 117.322 180.664C117.376 180.501 117.398 180.33 117.386 180.159C117.374 179.988 117.329 179.822 117.252 179.668C117.175 179.515 117.069 179.379 116.94 179.267C116.81 179.155 116.66 179.069 116.498 179.016C116.335 178.962 116.163 178.941 115.993 178.953C114.138 179.083 112.514 179.143 111.096 179.143C106.87 179.15 104.485 178.589 103.272 177.92C102.798 177.684 102.392 177.332 102.09 176.898C101.85 176.516 101.685 176.091 101.605 175.647C101.545 175.374 101.514 175.095 101.512 174.815C101.499 174.47 101.562 174.128 101.698 173.811C101.834 173.495 102.039 173.212 102.297 172.985C103.18 172.297 104.243 171.881 105.358 171.786C107.607 171.505 109.87 171.339 112.136 171.289C113.245 171.253 114.234 171.235 114.945 171.226C115.656 171.217 116.082 171.217 116.083 171.217C116.428 171.217 116.759 171.08 117.003 170.836C117.246 170.592 117.383 170.262 117.383 169.917C117.383 169.572 117.246 169.241 117.003 168.998C116.759 168.754 116.428 168.617 116.083 168.617V168.617C116.074 168.617 114.313 168.617 112.052 168.69C111.102 168.722 110.069 168.766 109.036 168.828C108.835 168.659 108.586 168.557 108.324 168.536C107.868 168.52 107.42 168.412 107.007 168.218C106.593 168.025 106.224 167.749 105.92 167.408C105.457 166.908 105.179 166.264 105.133 165.584C105.132 165.207 105.212 164.834 105.368 164.491C105.73 163.776 106.275 163.17 106.948 162.735C108.37 161.812 109.947 161.154 111.603 160.791C113.331 160.368 115.102 160.147 116.881 160.134C117.846 160.103 118.809 160.219 119.739 160.478C120.459 160.692 121.102 161.106 121.594 161.672C121.929 162.09 122.108 162.612 122.099 163.148C122.025 164.243 121.578 165.281 120.832 166.087C120.612 166.353 120.507 166.695 120.539 167.038C120.571 167.381 120.738 167.698 121.004 167.918C121.269 168.138 121.611 168.243 121.955 168.211C122.298 168.179 122.614 168.012 122.834 167.746V167.746C123.97 166.476 124.629 164.85 124.699 163.148C124.706 162.029 124.331 160.941 123.637 160.064C129.269 158.589 134.9 156.328 139.368 152.81C141.916 150.853 144.021 148.378 145.545 145.549C147.148 142.451 147.964 139.005 147.92 135.517C147.92 135.051 147.907 134.577 147.882 134.097C147.873 133.926 147.831 133.758 147.757 133.603C147.684 133.449 147.581 133.31 147.453 133.196C147.326 133.081 147.178 132.993 147.016 132.936C146.855 132.878 146.684 132.854 146.513 132.863C146.342 132.872 146.175 132.915 146.02 132.989C145.866 133.063 145.728 133.167 145.614 133.295C145.5 133.423 145.412 133.572 145.356 133.733C145.299 133.895 145.275 134.066 145.285 134.237C145.309 134.672 145.32 135.098 145.32 135.517C145.364 138.584 144.651 141.615 143.243 144.34C141.104 148.131 137.912 151.222 134.053 153.237C129.914 155.468 125.478 157.094 120.878 158.066C120.846 158.073 120.823 158.095 120.792 158.105C120.724 158.079 120.663 158.047 120.594 158.022C119.39 157.663 118.136 157.499 116.881 157.534C113.809 157.542 110.767 158.13 107.914 159.268C106.532 159.812 105.272 160.628 104.21 161.666C103.706 162.178 103.296 162.774 102.996 163.426C102.69 164.104 102.533 164.84 102.533 165.584C102.574 166.902 103.086 168.161 103.976 169.134C104.047 169.215 104.127 169.292 104.205 169.371C102.859 169.602 101.598 170.185 100.55 171.06C100.025 171.532 99.6067 172.112 99.3241 172.76C99.0415 173.407 98.9009 174.108 98.9117 174.815C98.9138 175.276 98.964 175.736 99.0617 176.187C99.2092 176.952 99.5022 177.682 99.9248 178.337C100.312 178.913 100.804 179.41 101.377 179.802C101.614 179.967 101.861 180.116 102.117 180.25C101.776 180.928 101.601 181.677 101.605 182.436C101.6 184.492 102.835 186.743 105.465 188.355C108.101 189.98 112.112 191.058 118.023 191.061C119.024 191.061 120.081 191.029 121.193 190.965C137.616 189.992 153.015 185.561 164.413 177.656C164.592 177.532 164.76 177.4 164.937 177.274L165.202 181.908C165.211 182.079 165.253 182.247 165.327 182.402C165.401 182.557 165.504 182.695 165.632 182.81C165.759 182.925 165.908 183.013 166.07 183.07C166.232 183.126 166.403 183.15 166.575 183.141C166.746 183.131 166.913 183.087 167.068 183.012C167.222 182.938 167.36 182.833 167.474 182.705C167.587 182.576 167.675 182.427 167.73 182.265C167.786 182.102 167.809 181.931 167.798 181.76L167.464 175.926C167.454 175.762 167.412 175.602 167.341 175.455C171.659 172.07 175.3 167.9 178.071 163.164C181.475 157.188 183.234 150.415 183.169 143.537C183.169 142.234 183.111 140.907 182.995 139.555Z"/><path id="Vector_13" d="M76.912 115.844C76.3665 114.999 75.5813 114.335 74.6567 113.939C73.7168 113.517 72.6981 113.299 71.6677 113.299C70.4007 113.309 69.1558 113.632 68.0437 114.239C66.9316 114.846 65.9868 115.718 65.2934 116.779C64.3446 118.191 63.2674 119.513 62.0754 120.727C61.0018 121.881 59.7372 122.842 58.3371 123.567C58.0232 123.709 57.7789 123.971 57.6578 124.294C57.5367 124.616 57.5489 124.974 57.6916 125.288C57.8342 125.602 58.0958 125.846 58.4186 125.967C58.7414 126.088 59.0992 126.076 59.4131 125.934C61.1036 125.081 62.6308 123.937 63.9248 122.554C65.2336 121.222 66.416 119.772 67.4568 118.221C67.9127 117.517 68.5358 116.936 69.2705 116.531C70.0052 116.126 70.8288 115.909 71.6678 115.899C72.3315 115.899 72.9878 116.039 73.5932 116.311C74.0501 116.498 74.4401 116.818 74.7121 117.23C74.9385 117.6 75.0543 118.027 75.0458 118.461C75.025 119.198 74.7908 119.914 74.3715 120.521C73.8884 121.246 73.2196 121.827 72.4349 122.204C71.3572 122.764 70.4155 123.554 69.6767 124.517C68.5728 125.873 67.6959 127.365 66.6481 128.552C65.6632 129.786 64.2827 130.642 62.7396 130.976C62.5724 131.011 62.4135 131.077 62.272 131.173C62.1306 131.269 62.0094 131.391 61.9153 131.534C61.8212 131.676 61.7561 131.836 61.7237 132.003C61.6913 132.171 61.6922 132.343 61.7264 132.511C61.7606 132.678 61.8275 132.837 61.9231 132.978C62.0187 133.12 62.1412 133.241 62.2837 133.335C62.4262 133.429 62.5858 133.494 62.7534 133.526C62.921 133.559 63.0934 133.558 63.2606 133.524V133.524C64.7087 133.231 66.0615 132.584 67.1976 131.64C68.2289 130.749 69.139 129.727 69.9046 128.599C70.3025 129.505 70.5056 130.484 70.5009 131.474C70.5118 133.197 69.9151 134.869 68.8155 136.196C67.3311 137.849 65.2782 138.882 63.0662 139.088C62.7248 139.137 62.4168 139.319 62.21 139.595C62.0031 139.871 61.9143 140.218 61.9631 140.559C62.0118 140.9 62.1942 141.208 62.47 141.415C62.7459 141.622 63.0926 141.711 63.434 141.662C65.1721 141.438 66.8454 140.858 68.349 139.958C68.2827 140.888 68.0101 141.791 67.5507 142.602C66.6433 144.064 65.3083 145.211 63.7268 145.887C61.9462 146.69 60.0254 147.137 58.0731 147.201C57.7431 147.214 57.4265 147.221 57.1235 147.22C55.387 147.286 53.6552 147 52.0322 146.379C51.7089 146.245 51.4016 146.076 51.116 145.873L50.9623 145.749L50.9495 145.737L50.9446 145.742C50.7123 145.492 50.3908 145.343 50.0497 145.329C49.7087 145.315 49.3757 145.435 49.1231 145.665C48.8704 145.894 48.7184 146.214 48.7001 146.555C48.6818 146.896 48.7987 147.23 49.0253 147.485C49.5875 148.046 50.2613 148.483 51.0032 148.767C52.9507 149.529 55.033 149.888 57.1235 149.82C57.4616 149.82 57.8127 149.813 58.1769 149.799C61.2366 149.726 64.2153 148.801 66.7771 147.126C68.013 146.287 69.0473 145.185 69.8051 143.898C70.592 142.52 70.9995 140.957 70.986 139.371C70.9805 138.845 70.9373 138.321 70.8567 137.802C72.3167 136.017 73.11 133.78 73.1007 131.474C73.1219 129.637 72.5962 127.835 71.5904 126.297C71.7764 126.065 71.9618 125.837 72.1479 125.64C72.5493 125.191 73.0297 124.821 73.5653 124.546C74.7712 123.965 75.7987 123.07 76.5398 121.956C77.2416 120.924 77.626 119.709 77.6458 118.461C77.654 117.537 77.3996 116.629 76.912 115.844Z"/></g></g></svg>