<svg width="200" height="200" viewBox="0 0 200 200" xmlns="http://www.w3.org/2000/svg"><g id="type=thanks, mode=light"><g id="Layer 8"><path id="Vector" d="M121.797 136.93C118.172 136.809 115.998 150.1 115.998 150.1L115.393 154.329L101.517 153.927C102.042 152.208 102.521 146.12 100.894 142.126C99.1211 137.776 99.1211 136.89 99.1211 136.89C100.302 137.256 101.566 137.256 102.746 136.89C104.438 136.246 104.438 134.392 104.116 131.654C103.793 128.915 105.565 123.437 105.565 119.168C105.549 117.897 105.251 116.646 104.694 115.504C104.137 114.362 103.334 113.358 102.343 112.562C102.343 112.562 107.016 111.113 106.693 106.521C106.659 106.122 106.604 105.724 106.529 105.331L113.267 102.654L111.849 99.7543L108.99 100.846L107.617 97.7699L103.187 99.3487C102.579 98.8264 101.918 98.3685 101.216 97.9824C98.7188 96.6127 97.2686 98.3046 97.2686 98.3046C95.6858 97.2092 93.7959 96.645 91.8716 96.6933C90.9892 96.7048 90.1415 97.0388 89.4885 97.6324C88.8356 98.226 88.4224 99.0381 88.3271 99.9154C87.8809 99.9566 87.4487 100.093 87.0597 100.315C86.6706 100.538 86.3338 100.841 86.0718 101.204C83.6548 100.802 80.916 100.963 80.1108 106.279C80.1853 106.684 80.2675 107.079 80.3536 107.463L41.2222 121.376L40.6758 124.426L43.3086 125.689L45.9561 124.726L45.4727 127.787L48.1309 128.995L74.6043 118.289C74.2854 117.613 73.7821 117.041 73.1523 116.639C72.5226 116.236 71.792 116.02 71.0446 116.014C70.4567 116.02 69.8753 116.138 69.332 116.363C66.3729 117.599 63.6815 119.397 61.4066 121.657C61.0218 122.032 60.693 122.46 60.4305 122.928C60.2874 123.241 60.0258 123.485 59.7033 123.606C59.3807 123.726 59.0234 123.714 58.7099 123.571C58.3964 123.429 58.1523 123.168 58.0311 122.845C57.91 122.523 57.9217 122.166 58.0637 121.852C58.4411 121.117 58.9334 120.446 59.522 119.866C59.6631 119.717 59.8148 119.567 59.9702 119.415L60.0178 119.367C60.6126 118.796 61.2369 118.256 61.8881 117.749C63.8636 116.193 66.0433 114.914 68.3661 113.949C69.2165 113.601 70.1258 113.42 71.0446 113.414C72.0475 113.415 73.0363 113.651 73.9319 114.102L73.9563 114.114C75.3169 114.795 76.4009 115.923 77.0254 117.31L82.8674 114.948L83.1718 115.704C85.5077 119.168 91.8715 117.235 91.8715 117.235L94.3686 117.638C96.1406 120.135 96.2211 125.29 94.7714 130.043C93.3212 134.795 94.852 138.179 96.7851 144.14C97.876 147.253 97.9669 150.629 97.0449 153.797L77.9355 153.242L84.4604 148.53C84.4604 148.53 81.9228 133.547 76.6064 135.722C71.29 137.897 75.8813 153.604 75.8813 153.604L82.4062 181.154L101.415 181.98C101.509 181.476 101.645 180.98 101.823 180.499C101.536 180.377 101.268 180.213 101.027 180.014C100.333 179.402 99.769 178.656 99.3699 177.821C98.9369 176.939 98.7077 175.972 98.699 174.99C98.6936 173.95 98.9867 172.931 99.5435 172.053C100.214 171.043 101.148 170.236 102.245 169.72C102.805 169.455 103.395 169.261 104.002 169.142C103.657 168.722 103.381 168.251 103.182 167.745C102.881 166.983 102.721 166.173 102.711 165.354C102.709 164.6 102.868 163.855 103.179 163.168C103.519 162.437 104 161.78 104.594 161.235C106.179 159.891 108.047 158.923 110.058 158.403C112.004 157.802 114.029 157.494 116.066 157.489C117.416 157.484 118.763 157.631 120.08 157.928C121.068 153.882 124.987 137.036 121.797 136.93Z"/><path id="Vector_2" d="M93.7161 73.0271C96.7161 61.3289 93.1165 48.4304 86.2171 46.4055C79.3182 44.3811 64.4695 49.7512 61.5457 63.4285C59.221 74.302 64.47 80.9763 68.5198 83.3011C76.551 87.9114 90.7166 84.7259 93.7161 73.0271ZM89.3294 72.7649C89.0667 75.427 86.555 74.9695 82.4304 75.0447C78.3059 75.1194 75.0744 75.137 74.3836 73.1023C73.5437 70.6277 77.2932 66.3533 82.4304 66.2781C86.596 66.2176 89.5486 70.5433 89.3294 72.7649Z"/><path id="Vector_3" d="M141.107 83.3011C145.157 80.9763 150.406 74.3021 148.082 63.4285C145.158 49.7513 130.309 44.3811 123.41 46.4055C116.511 48.4304 112.911 61.3289 115.911 73.0271C118.91 84.7259 133.076 87.9114 141.107 83.3011ZM127.197 66.2781C132.334 66.3533 136.083 70.6277 135.243 73.1023C134.553 75.137 131.321 75.1194 127.197 75.0447C123.072 74.9695 120.56 75.427 120.298 72.7649C120.079 70.5433 123.031 66.2176 127.197 66.2781Z"/><path id="Vector_4" d="M82.0925 73.9272C83.6042 73.9272 84.8296 72.7018 84.8296 71.1902C84.8296 69.6785 83.6042 68.4531 82.0925 68.4531C80.5809 68.4531 79.3555 69.6785 79.3555 71.1902C79.3555 72.7018 80.5809 73.9272 82.0925 73.9272Z"/><path id="Vector_5" d="M127.535 73.9272C129.047 73.9272 130.272 72.7018 130.272 71.1902C130.272 69.6785 129.047 68.4531 127.535 68.4531C126.023 68.4531 124.798 69.6785 124.798 71.1902C124.798 72.7018 126.023 73.9272 127.535 73.9272Z"/><path id="Vector_6" d="M96.9602 87.8142C97.8809 89.0368 99.1006 90.0021 100.502 90.6171C101.809 91.1751 103.217 91.4558 104.637 91.4415C107.044 91.4063 109.403 90.7705 111.501 89.5918C111.655 90.4067 111.924 91.1956 112.3 91.9348C112.89 93.105 113.759 94.1115 114.831 94.8647C115.116 95.0566 115.466 95.128 115.803 95.0632C116.14 94.9984 116.438 94.8027 116.632 94.5189C116.825 94.2351 116.899 93.8862 116.836 93.5485C116.773 93.2108 116.579 92.9117 116.296 92.7166C115.582 92.2062 115.003 91.5285 114.611 90.7427C114.176 89.9094 113.944 88.9851 113.935 88.0452C113.928 87.3317 114.088 86.6266 114.402 85.986C114.765 85.2758 115.303 84.6699 115.966 84.226C116.107 84.129 116.228 84.0051 116.321 83.8613C116.414 83.7175 116.478 83.5567 116.509 83.3882C116.54 83.2196 116.537 83.0466 116.501 82.8792C116.464 82.7117 116.396 82.553 116.298 82.4123C116.2 82.2715 116.075 82.1515 115.931 82.0591C115.787 81.9667 115.626 81.9038 115.457 81.8739C115.288 81.844 115.115 81.8478 114.948 81.885C114.781 81.9222 114.622 81.9921 114.482 82.0907V82.0906C113.461 82.784 112.633 83.7251 112.076 84.8259C111.8 85.3852 111.601 85.9791 111.483 86.5915C111.405 86.6172 111.33 86.6507 111.258 86.6914C109.7 87.7671 107.913 88.4663 106.038 88.7339C106.016 88.0948 105.987 87.1968 105.957 86.1848C105.918 84.8558 105.879 83.3424 105.858 81.9987C108.959 81.1299 112.246 77.1207 112.074 74.3771C111.849 70.7775 99.0456 70.9147 97.7507 74.0021C96.9099 76.0076 100.176 80.6277 103.255 81.861C103.291 84.2568 103.384 87.2042 103.437 88.7506C102.786 88.6667 102.15 88.4935 101.546 88.236C100.549 87.7987 99.6812 87.1106 99.0285 86.2386C98.8195 85.9644 98.5102 85.7844 98.1685 85.7382C97.8268 85.692 97.4808 85.7834 97.2065 85.9923C96.9323 86.2013 96.7523 86.5106 96.7061 86.8523C96.6599 87.194 96.7513 87.54 96.9602 87.8143V87.8142Z"/><path id="Vector_7" d="M43.9529 180.835C43.9529 180.835 43.9602 180.618 43.9767 180.215C44.0224 179.09 44.1398 176.527 44.3557 173.415C44.4136 173.301 44.454 173.179 44.4754 173.054V173.054C44.8046 171.134 45.8242 169.4 47.3425 168.18C49.8961 165.85 54.1101 163.799 59.1855 162.184C64.4639 160.569 69.8671 159.394 75.3396 158.672L81.1066 181.369C81.1756 181.639 81.3289 181.879 81.5442 182.055C81.7594 182.231 82.0254 182.333 82.3031 182.347L101.281 183.275C101.299 182.396 101.457 181.524 101.75 180.695L83.3899 179.797L77.0271 154.756L113.453 155.945L113.246 157.691C114.121 157.567 115.004 157.501 115.887 157.495L116.174 155.076C116.206 155.004 116.231 154.929 116.248 154.853V154.853C116.71 151.24 117.447 147.667 118.453 144.167C118.896 142.563 119.52 141.015 120.314 139.552C120.554 139.116 120.861 138.72 121.224 138.379C121.314 138.299 121.415 138.232 121.523 138.179C121.544 138.25 121.561 138.321 121.573 138.394C121.623 138.732 121.646 139.074 121.641 139.416C121.555 141.454 121.296 143.481 120.867 145.476C120.441 147.691 119.947 149.813 119.677 151.146C119.67 151.225 119.67 151.304 119.677 151.383L118.514 157.651C118.787 157.687 119.049 157.725 119.289 157.767C119.78 157.853 120.267 157.963 120.748 158.098C120.771 158.093 120.789 158.077 120.813 158.073C128.006 156.889 134.174 154.052 138.492 150.197C142.813 146.331 145.285 141.514 145.289 136.177C145.288 135.586 145.257 134.996 145.196 134.408C145.195 134.394 145.196 134.38 145.194 134.366V134.365C145.173 134.104 145.234 133.843 145.368 133.617C145.399 133.546 145.435 133.477 145.478 133.412C145.664 133.194 145.918 133.044 146.199 132.986C146.249 132.967 146.3 132.951 146.353 132.938H146.353C146.37 132.936 146.385 132.944 146.402 132.943C146.728 132.918 147.051 133.018 147.306 133.222C147.328 133.239 147.339 133.266 147.359 133.284C147.594 133.494 147.744 133.783 147.78 134.097C147.852 134.788 147.888 135.482 147.889 136.177C147.893 142.349 144.983 147.9 140.223 152.137C135.487 156.165 129.806 158.923 123.712 160.152C123.822 160.307 123.922 160.47 124.013 160.638C124.436 161.471 124.651 162.394 124.64 163.328C124.638 164.289 124.441 165.24 124.059 166.122C123.752 166.852 123.284 167.503 122.69 168.027C122.597 168.107 122.51 168.192 122.409 168.264V168.264C122.169 168.435 121.879 168.518 121.585 168.501C121.292 168.484 121.013 168.368 120.794 168.171C120.576 167.974 120.431 167.708 120.384 167.418C120.337 167.128 120.39 166.83 120.535 166.574C120.562 166.528 120.592 166.484 120.625 166.442C120.704 166.325 120.802 166.222 120.915 166.137C121.255 165.858 121.517 165.495 121.675 165.085C121.914 164.529 122.038 163.932 122.04 163.328C122.05 162.813 121.937 162.304 121.709 161.842C121.484 161.406 121.122 161.056 120.68 160.844C120.645 160.819 120.611 160.792 120.578 160.764C120.567 160.76 120.556 160.762 120.545 160.758L120.544 160.758L120.5 160.741C120.456 160.726 120.385 160.702 120.288 160.671C120.094 160.61 119.795 160.525 119.404 160.438C118.307 160.202 117.188 160.085 116.066 160.089C114.287 160.093 112.519 160.363 110.82 160.889C109.505 161.254 108.252 161.814 107.102 162.55C106.439 162.96 105.901 163.545 105.548 164.24C105.389 164.59 105.309 164.97 105.311 165.354C105.322 165.857 105.424 166.353 105.613 166.82C105.777 167.217 106.029 167.572 106.349 167.86C106.509 168.01 106.681 168.147 106.863 168.271C107.033 168.389 107.212 168.495 107.399 168.587C107.537 168.659 107.684 168.715 107.835 168.755C107.851 168.758 107.863 168.769 107.878 168.773C108.391 168.761 108.906 168.75 109.438 168.75C110.803 168.75 112.218 168.778 113.598 168.778C114.448 168.778 115.284 168.767 116.084 168.734C116.254 168.726 116.425 168.752 116.586 168.81C116.746 168.869 116.894 168.958 117.02 169.074C117.146 169.189 117.248 169.329 117.32 169.484C117.392 169.639 117.433 169.806 117.44 169.977C117.448 170.148 117.421 170.319 117.362 170.479C117.304 170.64 117.214 170.787 117.098 170.913C116.982 171.039 116.843 171.14 116.687 171.212C116.532 171.284 116.364 171.324 116.194 171.331C115.341 171.367 114.469 171.378 113.598 171.378C112.183 171.378 110.767 171.35 109.438 171.35C108.217 171.335 106.997 171.382 105.78 171.491C105.572 171.512 105.379 171.54 105.188 171.568C104.575 171.638 103.975 171.799 103.408 172.046C102.734 172.351 102.156 172.836 101.738 173.447C101.446 173.908 101.293 174.444 101.3 174.989C101.309 175.58 101.449 176.161 101.712 176.69C101.957 177.206 102.303 177.667 102.729 178.047L102.734 178.051L102.775 178.076L102.963 178.166C103.195 178.259 103.432 178.335 103.674 178.394C104.445 178.578 105.227 178.713 106.015 178.798C108.173 179.03 110.342 179.141 112.513 179.129C113.693 179.129 114.86 179.1 115.94 179.044V179.044C116.111 179.034 116.283 179.058 116.445 179.115C116.607 179.171 116.756 179.259 116.883 179.373C117.011 179.488 117.115 179.626 117.189 179.781C117.263 179.936 117.306 180.103 117.315 180.275C117.324 180.446 117.299 180.617 117.241 180.779C117.183 180.94 117.094 181.089 116.979 181.216C116.864 181.342 116.725 181.445 116.57 181.518C116.414 181.591 116.246 181.633 116.075 181.641C114.944 181.699 113.736 181.729 112.513 181.729C110.155 181.743 107.799 181.614 105.457 181.345C105.318 181.328 105.178 181.31 105.043 181.291C104.8 181.257 104.569 181.219 104.341 181.181C104.052 181.866 103.894 182.6 103.878 183.343C103.868 184.075 104.075 184.792 104.472 185.407C105.013 186.188 105.743 186.821 106.593 187.246C108.671 188.387 112.253 189.206 117.651 189.2C118.115 189.2 118.593 189.194 119.084 189.183C119.22 189.184 119.356 189.208 119.485 189.254C120.011 189.23 120.53 189.211 121.074 189.179C129.219 188.87 137.292 187.518 145.094 185.156C151.967 183.155 158.468 180.047 164.34 175.953C164.471 175.859 164.595 175.754 164.725 175.658C164.773 176.629 164.816 177.594 164.85 178.422C164.907 179.824 164.94 180.831 164.94 180.833C164.951 181.178 165.099 181.504 165.35 181.74C165.602 181.976 165.937 182.102 166.281 182.09C166.626 182.079 166.952 181.932 167.188 181.68C167.424 181.428 167.55 181.093 167.538 180.749C167.538 180.743 167.41 176.823 167.222 173.684C172.288 169.504 176.257 164.149 178.783 158.086C180.884 153.133 181.989 147.816 182.037 142.437C181.894 134.736 179.402 127.262 174.895 121.016C170.388 114.769 164.081 110.048 156.818 107.484C163.022 101.268 166.912 93.1167 167.842 84.3841C167.995 82.8388 168.072 81.2982 168.07 79.7622C168.066 67.7712 163.487 56.2407 155.988 46.6138C157.358 45.5641 158.572 44.3264 159.596 42.9374C162.145 39.4364 163.513 35.2146 163.502 30.8838C163.513 28.002 162.891 25.153 161.681 22.5377C160.433 19.8503 158.529 17.5199 156.144 15.761C152.904 13.4119 148.996 12.1638 144.994 12.2C141.846 12.1811 138.736 12.8929 135.91 14.2793C133.084 15.6656 130.617 17.6889 128.706 20.1897C127.65 21.625 126.809 23.2064 126.209 24.8842C119.391 22.3493 112.18 21.0388 104.906 21.0131C97.7846 21.0281 90.7161 22.2389 83.9957 24.5952C83.4057 23.0246 82.6032 21.5423 81.6106 20.1897C79.6986 17.6888 77.2325 15.6656 74.4063 14.2793C71.58 12.8929 68.4706 12.1811 65.3227 12.2C61.3207 12.1638 57.4126 13.4119 54.1724 15.761C51.7877 17.5199 49.8836 19.8502 48.6354 22.5377C47.4251 25.153 46.8033 28.002 46.8139 30.8838C46.8028 35.2146 48.171 39.4365 50.7202 42.9375C51.5996 44.1282 52.6198 45.2082 53.7586 46.1539C46.1158 55.6878 41.8901 67.5089 41.7572 79.7273C41.7572 81.2655 41.828 82.8143 41.9694 84.3739C42.6325 91.9858 45.4289 99.2563 50.0374 105.351C46.2884 106.535 42.7131 108.211 39.405 110.335C32.754 114.53 26.9062 119.88 22.1374 126.132C17.4621 132.365 14.2905 139.249 14.2789 145.912C14.2577 148.677 14.8663 151.411 16.0585 153.906C17.4162 156.639 19.3726 159.03 21.7823 160.902C24.4611 163.135 27.8363 164.361 31.3238 164.368C31.3727 164.368 31.4209 164.362 31.4698 164.362C31.6291 164.291 31.801 164.253 31.9753 164.251C35.8125 164.195 39.6371 162.525 43.2112 159.908C43.5739 159.643 43.937 159.378 44.2942 159.093C44.855 158.647 45.4053 158.174 45.9494 157.687C48.6861 155.193 51.1541 152.419 53.3133 149.411C52.938 149.328 52.5821 149.24 52.2533 149.148C51.2653 148.883 50.3045 148.525 49.3835 148.08C49.0784 147.92 48.849 147.646 48.7456 147.318C48.6423 146.989 48.6734 146.633 48.8322 146.328C48.9911 146.022 49.2646 145.793 49.5927 145.688C49.9209 145.584 50.277 145.615 50.5828 145.773L50.5829 145.773L50.5999 145.781L50.6865 145.823C50.7671 145.861 50.8929 145.919 51.0597 145.99C51.5375 146.19 52.0251 146.366 52.5206 146.517C52.9998 146.665 53.5749 146.806 54.1919 146.932C55.2057 147.14 56.2361 147.255 57.2707 147.278C57.3877 147.28 57.4959 147.293 57.6147 147.293C59.2101 147.297 60.7965 147.054 62.3178 146.574C64.3096 146.057 66.1182 144.995 67.5405 143.508C68.4606 142.444 68.9539 141.077 68.9254 139.671C68.9255 139.424 68.8968 139.166 68.8714 138.91C68.5127 139.144 68.1376 139.352 67.7489 139.533C66.3952 140.128 64.9502 140.49 63.4755 140.601C63.1322 140.633 62.7903 140.527 62.5251 140.306C62.2599 140.086 62.093 139.769 62.0613 139.426C62.0296 139.083 62.1355 138.741 62.3558 138.476C62.5761 138.21 62.8928 138.044 63.2361 138.012C64.4174 137.927 65.5758 137.643 66.6619 137.171C67.4282 136.833 68.1114 136.332 68.664 135.703C69.5892 134.553 70.0673 133.108 70.01 131.634C70.0044 130.716 69.874 129.803 69.6224 128.92C69.554 128.677 69.4768 128.447 69.3962 128.225C69.0132 128.594 68.62 128.957 68.1914 129.303C66.8365 130.405 65.2638 131.208 63.5765 131.658L63.5766 131.658C63.2442 131.75 62.889 131.706 62.5891 131.536C62.2892 131.365 62.0693 131.083 61.9776 130.751C61.9005 130.462 61.9269 130.155 62.0522 129.883C62.1775 129.612 62.3938 129.393 62.6637 129.264C62.7335 129.219 62.8077 129.182 62.8851 129.152C64.2304 128.797 65.4839 128.158 66.5614 127.277C67.631 126.351 68.6422 125.358 69.5894 124.307C70.4389 123.469 71.4371 122.796 72.5329 122.324C73.204 122.07 73.8239 121.697 74.3626 121.223C74.6412 120.909 74.8248 120.522 74.8918 120.108C74.9244 119.951 74.9406 119.791 74.9401 119.631C74.8997 118.71 74.508 117.841 73.8457 117.201C73.4816 116.826 73.0463 116.528 72.5653 116.324C72.0843 116.12 71.5673 116.015 71.0449 116.014C70.457 116.02 69.8756 116.138 69.3324 116.363C66.3733 117.599 63.6818 119.397 61.4069 121.657C61.0221 122.031 60.6934 122.459 60.4308 122.928C60.2786 123.233 60.0164 123.469 59.697 123.589C59.3776 123.709 59.0247 123.703 58.7093 123.573C58.6269 123.527 58.5501 123.471 58.4803 123.408L48.1611 127.581L46.9113 127.013L47.1228 125.674L58.2846 121.444C58.2921 121.431 58.298 121.418 58.3057 121.405C58.6554 120.85 59.0632 120.334 59.5223 119.866C60.259 119.104 61.0498 118.397 61.8884 117.749C62.3157 117.415 62.7719 117.083 63.2432 116.757L43.3695 124.276L42.1301 123.682L42.369 122.348L85.108 107.152C85.4439 107.45 85.7487 107.78 86.0176 108.139L71.9082 113.478C73.1519 113.646 74.3208 114.169 75.2747 114.984L75.2907 114.999L87.207 110.483C87.3351 110.871 87.4342 111.268 87.5035 111.67L76.3652 116.175C76.8827 116.883 77.2436 117.693 77.4241 118.551L82.5658 116.472C82.5713 116.477 82.5734 116.483 82.5791 116.488C83.0602 116.864 83.5693 117.203 84.1018 117.501C85.1872 118.146 86.3906 118.566 87.6411 118.737L87.642 118.737C88.0232 118.777 88.4063 118.798 88.7897 118.798C89.9481 118.821 91.0966 118.581 92.1488 118.096C92.3211 118.236 92.527 118.327 92.7459 118.362C92.967 118.392 93.179 118.392 93.3959 118.407C93.4077 118.429 93.4076 118.454 93.4209 118.476V118.476C93.831 119.121 94.1536 119.818 94.3803 120.548C94.6002 121.32 94.7053 122.12 94.6922 122.922C94.6923 123.028 94.6874 123.142 94.6846 123.253C88.8527 122.812 83.0894 121.712 77.505 119.974C77.4977 120.199 77.4747 120.423 77.4361 120.644C77.3084 121.287 77.0569 121.899 76.6954 122.445C76.5689 122.637 76.427 122.819 76.2711 122.988C75.7644 123.51 75.1692 123.937 74.5131 124.251C73.3936 124.686 72.3602 125.316 71.4611 126.112C71.4277 126.146 71.3957 126.18 71.3626 126.215C71.677 126.856 71.9321 127.526 72.1246 128.214C72.4414 129.326 72.6047 130.477 72.6101 131.634C72.6346 133.169 72.2755 134.686 71.5656 136.047C71.4271 136.289 71.2754 136.522 71.1113 136.748C71.1179 136.768 71.1337 136.783 71.1393 136.805C71.3888 137.74 71.5186 138.703 71.5256 139.671C71.5515 141.696 70.8376 143.661 69.5179 145.197C67.7824 147.056 65.5608 148.391 63.1049 149.052C61.3291 149.613 59.4772 149.897 57.6148 149.893C57.1251 149.892 56.6544 149.869 56.1963 149.835C53.3211 154.068 49.8589 157.87 45.9135 161.127C45.8132 161.207 45.7088 161.279 45.6079 161.357C44.6738 162.091 43.7013 162.775 42.6945 163.405C42.3029 166.458 42.0169 169.693 41.8101 172.541C41.4761 177.158 41.3549 180.736 41.3545 180.747C41.343 181.092 41.4688 181.427 41.7042 181.678C41.9396 181.93 42.2653 182.078 42.6098 182.09C42.9542 182.101 43.2893 181.976 43.5411 181.741C43.793 181.505 43.9412 181.18 43.953 180.835L43.9529 180.835ZM94.9266 111.062C94.4952 108.091 93.222 105.304 91.2574 103.033C90.7294 102.45 90.1444 101.92 89.5112 101.453C89.913 101.535 90.3055 101.658 90.683 101.818C92.0218 102.406 93.2148 103.282 94.1776 104.383C95.3979 105.761 96.2751 107.408 96.7375 109.19C97.0421 110.256 97.2091 111.356 97.2345 112.465C97.2476 113.037 97.1642 113.607 96.988 114.152C96.8251 114.682 96.4735 115.134 95.9998 115.422C95.5239 115.681 94.9935 115.823 94.4521 115.838C94.8917 114.913 95.1085 113.898 95.0849 112.875C95.0815 112.268 95.0286 111.661 94.9266 111.063L94.9266 111.062ZM111.202 101.39L111.486 101.972L107.396 103.626C107.325 103.415 107.263 103.206 107.182 102.994C107.173 102.97 107.162 102.948 107.152 102.924L111.202 101.39ZM105.836 100.501C105.698 100.307 105.558 100.116 105.411 99.9336L106.936 99.3914L107.208 99.9791L105.836 100.501ZM104.755 103.925C105.224 105.095 105.478 106.34 105.505 107.6C105.559 108.523 105.308 109.438 104.79 110.205C104.587 110.469 104.323 110.679 104.021 110.819C103.831 110.903 103.631 110.963 103.426 110.997C103.6 110.322 103.683 109.627 103.675 108.93C103.672 108.338 103.631 107.746 103.552 107.159C103.156 104.111 101.769 101.278 99.6056 99.0947C99.4398 98.9259 99.2691 98.7706 99.0991 98.6135C99.3342 98.671 99.565 98.7446 99.7901 98.8338C100.832 99.2652 101.78 99.893 102.585 100.683C103.535 101.593 104.276 102.699 104.755 103.925L104.755 103.925ZM103.959 124.685C103.467 126.969 103.121 129.282 102.926 131.61C102.909 132.488 103.071 133.36 103.402 134.174C103.481 134.356 103.523 134.552 103.525 134.751C103.527 134.917 103.494 135.081 103.428 135.233C103.361 135.385 103.264 135.522 103.141 135.633C102.748 135.956 102.247 136.117 101.739 136.083C101.303 136.077 100.871 136.009 100.453 135.883C100.433 135.523 100.415 135.161 100.415 134.785C100.422 133.203 100.603 131.626 100.954 130.083C101.659 127.393 102.083 124.637 102.222 121.86C102.255 120.524 102.008 119.196 101.498 117.961C101.017 116.891 100.28 115.955 99.3531 115.236C99.4912 114.877 99.5964 114.506 99.6674 114.128C100.045 114.126 100.421 114.07 100.782 113.96C100.841 113.943 100.905 113.911 100.966 113.889C101.063 114.008 101.181 114.108 101.314 114.184C102.378 114.788 103.189 115.757 103.595 116.912C104.07 118.254 104.296 119.671 104.261 121.095C104.253 122.298 104.152 123.498 103.959 124.685L103.959 124.685ZM98.864 102.225C100.282 104.175 101.055 106.519 101.076 108.93C101.093 109.491 101.013 110.05 100.84 110.583C100.748 110.919 100.531 111.207 100.232 111.387C100.096 111.458 99.9458 111.501 99.792 111.513C99.6998 110.503 99.5186 109.502 99.2505 108.523C98.5211 105.696 96.9322 103.166 94.7031 101.28C93.796 100.514 92.7799 99.8873 91.6882 99.4203C91.1542 99.1958 90.5996 99.024 90.0322 98.9072C90.1032 98.8181 90.1823 98.7356 90.2684 98.6608C90.8097 98.2229 91.4915 97.9962 92.1872 98.0227C92.5054 98.0242 92.8227 98.0589 93.1338 98.1262L93.1343 98.1263C93.9022 98.3088 94.6373 98.6087 95.3137 99.0153C96.7038 99.8317 97.9121 100.924 98.864 102.225ZM77.659 136.725C78.0192 136.729 78.3693 136.844 78.6611 137.055C79.4671 137.706 80.0973 138.548 80.494 139.505C81.3198 141.36 81.925 143.305 82.2972 145.301C82.4806 146.202 82.6088 146.991 82.6904 147.55C82.7108 147.69 82.7283 147.815 82.743 147.925L76.1694 151.521C76.0032 150.875 75.7716 149.913 75.5479 148.773C75.1154 146.687 74.878 144.566 74.8389 142.436C74.7959 141.129 74.9859 139.824 75.4 138.584C75.5534 138.16 75.7856 137.769 76.0842 137.431C76.3357 137.156 76.655 136.951 77.0102 136.837C77.2192 136.765 77.4382 136.727 77.659 136.725H77.659ZM84.2833 150.046L95.9406 150.552C96.0037 150.547 96.0665 150.537 96.1281 150.522C96.0628 151.298 95.8593 152.055 95.5273 152.758L80.238 152.259L84.2833 150.046ZM97.348 143.334C96.2469 140.843 95.6655 138.154 95.6391 135.431C95.6566 133.602 95.8726 131.781 96.2833 129.999C96.8649 127.682 97.2029 125.31 97.2921 122.922C97.3052 121.869 97.164 120.82 96.8729 119.809C96.6963 119.236 96.4695 118.68 96.1952 118.148C96.2382 118.134 96.2846 118.131 96.3273 118.116C96.8632 117.938 97.365 117.671 97.8113 117.325C98.3756 117.774 98.824 118.352 99.1188 119.01C99.4826 119.915 99.6538 120.885 99.6215 121.86C99.4792 124.447 99.0755 127.013 98.4164 129.519C98.0234 131.247 97.8218 133.013 97.815 134.785C97.9102 138.264 98.6489 141.694 99.9937 144.904C100.759 147.205 100.948 149.659 100.546 152.05C100.496 152.335 100.429 152.616 100.345 152.893L100.337 152.915L98.2801 152.848C98.606 151.852 98.7713 150.809 98.7697 149.761C98.7041 147.548 98.2218 145.368 97.3479 143.334L97.348 143.334ZM102.998 153.002C103.155 152.301 103.257 151.588 103.304 150.871L114.148 151.343C114.024 152.062 113.918 152.735 113.828 153.356L102.998 153.002ZM26.4253 131.455C26.307 131.131 26.3221 130.774 26.4675 130.461C26.6128 130.148 26.8763 129.906 27.2002 129.788C31.5426 128.168 35.6707 126.024 39.4925 123.402C39.5105 123.39 39.5276 123.377 39.5456 123.364L39.3965 124.197C39.3462 124.477 39.3891 124.765 39.5187 125.018C39.6483 125.272 39.8573 125.475 40.1138 125.598L40.5611 125.813C40.0569 126.152 39.5463 126.485 39.0294 126.81C35.5812 128.991 31.9159 130.807 28.0925 132.23C27.7687 132.348 27.4111 132.333 27.0984 132.188C26.7857 132.043 26.5436 131.779 26.4253 131.455ZM68.3029 110.368L65.6773 111.301C65.6666 111.292 65.6587 111.281 65.6479 111.272C64.8693 110.67 63.9009 110.365 62.9175 110.413L62.8182 110.414L62.8126 110.414C60.189 110.409 57.6045 111.05 55.2873 112.28C53.5371 113.227 52.0317 114.57 50.8906 116.2C50.7776 116.363 50.6486 116.524 50.5299 116.687L45.5532 118.456C46.7329 117.314 47.8034 116.064 48.7508 114.723C50.1219 112.759 51.932 111.142 54.0373 110C54.0575 109.989 54.0794 109.98 54.0996 109.969C54.9302 109.52 55.797 109.142 56.6908 108.839C49.7035 102.409 45.3755 93.5974 44.5586 84.1372C44.4234 82.6575 44.3562 81.1876 44.3572 79.7273C44.3555 64.5682 51.5052 50.5481 62.6799 40.2954C74.197 29.6866 89.2481 23.7405 104.906 23.6132C120.749 23.6093 135.923 30.3379 147.114 40.7497C158.309 51.1615 165.476 65.2107 165.47 79.7622C165.47 81.2123 165.398 82.6673 165.255 84.127C164.123 95.4662 157.617 105.097 147.279 112.084C136.964 119.047 122.838 123.295 106.699 123.7C106.801 122.835 106.855 121.965 106.861 121.095C106.898 119.347 106.611 117.608 106.016 115.964C105.652 115.029 105.12 114.168 104.447 113.424C104.675 113.358 104.899 113.276 105.115 113.178C106.124 112.702 106.937 111.892 107.415 110.884C107.892 109.856 108.129 108.733 108.105 107.6C108.1 107.127 108.065 106.655 108 106.187L113.754 103.859C113.92 103.792 114.07 103.692 114.195 103.565C114.32 103.437 114.417 103.286 114.481 103.119C114.545 102.952 114.574 102.774 114.566 102.596C114.558 102.418 114.513 102.243 114.435 102.083L113.017 99.183C112.874 98.8921 112.628 98.6648 112.327 98.5456C112.026 98.4264 111.691 98.4239 111.388 98.5385L109.702 99.1774L108.796 97.223C108.66 96.9292 108.419 96.6968 108.12 96.5714C107.822 96.446 107.487 96.4365 107.182 96.5448L103.339 97.9108C103.297 97.8785 103.256 97.8424 103.213 97.8108C102.455 97.2395 101.625 96.7704 100.745 96.4155C99.9752 96.0948 99.1525 95.9202 98.3187 95.9006C97.8798 95.8954 97.4433 95.967 97.0291 96.1122C96.7459 96.2214 96.4823 96.3755 96.2481 96.5685C95.439 96.1211 94.5714 95.7891 93.6704 95.5821L93.6701 95.582H93.6701C93.1827 95.4775 92.6856 95.4241 92.1871 95.4226C90.8657 95.3959 89.5792 95.8482 88.5653 96.6961C87.8566 97.2979 87.3714 98.1211 87.1882 99.0327C87.0584 99.0802 86.9316 99.1352 86.8084 99.1977C86.4783 99.3707 86.1839 99.6048 85.941 99.8874C85.8041 99.8667 85.6671 99.8394 85.5306 99.8278C85.2941 99.8089 85.0578 99.7993 84.8218 99.7992C84.0266 99.7925 83.2357 99.9155 82.4801 100.163C81.2862 100.553 80.2606 101.338 79.5725 102.388C78.8018 103.657 78.4201 105.124 78.4743 106.607C78.4743 106.654 78.4775 106.703 78.4781 106.75L68.3029 110.368ZM90.7599 115.875C90.1283 116.102 89.4606 116.211 88.7896 116.198C88.4983 116.198 88.2073 116.182 87.9177 116.151C87.0218 116.016 86.1611 115.706 85.3841 115.24C85.1842 115.126 85.0085 115.017 84.8512 114.915L87.6012 113.623C87.5624 113.965 87.6606 114.308 87.8742 114.578C88.0879 114.847 88.3996 115.021 88.7412 115.061C89.0827 115.101 89.4261 115.004 89.6962 114.791C89.9663 114.578 90.1411 114.267 90.1822 113.926C90.2116 113.641 90.2252 113.355 90.2229 113.069C90.224 111.714 89.9753 110.371 89.4891 109.106C88.8423 107.371 87.7234 105.85 86.2587 104.716C85.1057 103.815 83.6967 103.302 82.2341 103.252C82.3773 103.121 82.5327 103.005 82.698 102.904C83.3488 102.551 84.0817 102.377 84.8219 102.399C84.9865 102.399 85.1542 102.406 85.3241 102.42L85.3252 102.42C86.9014 102.688 88.3244 103.525 89.3247 104.772C90.9563 106.674 92.0098 109.003 92.3611 111.485C92.44 111.944 92.4814 112.409 92.485 112.875C92.5087 113.499 92.3844 114.121 92.1221 114.688C91.8367 115.243 91.3492 115.668 90.7599 115.875L90.7599 115.875Z"/></g></g></svg>