<svg xmlns="http://www.w3.org/2000/svg" width="200" height="200" fill="none"><path fill="#FFD93A" d="M121.797 136.93c-3.625-.121-5.799 13.17-5.799 13.17l-.605 4.229-13.876-.402c.525-1.719 1.004-7.807-.623-11.801-1.773-4.35-1.773-5.236-1.773-5.236a6.12 6.12 0 0 0 3.625 0c1.692-.644 1.692-2.498 1.37-5.236-.323-2.739 1.449-8.217 1.449-12.486a8.605 8.605 0 0 0-3.222-6.606s4.673-1.449 4.35-6.041a11.616 11.616 0 0 0-.164-1.19l6.738-2.677-1.418-2.9-2.859 1.092-1.373-3.076-4.43 1.579a11.616 11.616 0 0 0-1.971-1.367c-2.497-1.37-3.947.323-3.947.323a9.083 9.083 0 0 0-5.397-1.612 3.613 3.613 0 0 0-3.545 3.222 3.14 3.14 0 0 0-2.255 1.289c-2.417-.402-5.156-.241-5.961 5.075.074.405.156.8.243 1.184l-39.132 13.913-.546 3.05 2.633 1.263 2.647-.963-.483 3.061 2.658 1.208 26.473-10.706a3.963 3.963 0 0 0-3.56-2.275 4.598 4.598 0 0 0-1.712.349 24.817 24.817 0 0 0-7.925 5.294 5.6 5.6 0 0 0-.976 1.271 1.3 1.3 0 0 1-2.367-1.076 7.774 7.774 0 0 1 1.458-1.986c.141-.149.293-.299.448-.451l.048-.048a23.915 23.915 0 0 1 1.87-1.618 27.556 27.556 0 0 1 6.478-3.8 7.196 7.196 0 0 1 2.679-.535 6.435 6.435 0 0 1 2.887.688l.024.012a6.608 6.608 0 0 1 3.07 3.196l5.841-2.362.305.756c2.336 3.464 8.7 1.531 8.7 1.531l2.497.403c1.772 2.497 1.852 7.652.402 12.405-1.45 4.752.081 8.136 2.014 14.097a15.826 15.826 0 0 1 .26 9.657l-19.11-.555 6.525-4.712s-2.537-14.983-7.854-12.808c-5.316 2.175-.725 17.882-.725 17.882l6.525 27.55 19.009.826c.094-.504.23-1 .408-1.481a3.246 3.246 0 0 1-.796-.485 6.88 6.88 0 0 1-1.657-2.193 6.554 6.554 0 0 1-.671-2.831 5.43 5.43 0 0 1 .844-2.937 6.63 6.63 0 0 1 2.702-2.333 7.464 7.464 0 0 1 1.757-.578 5.194 5.194 0 0 1-.82-1.397 6.731 6.731 0 0 1-.471-2.391 5.264 5.264 0 0 1 .468-2.186 6.135 6.135 0 0 1 1.415-1.933 13.784 13.784 0 0 1 5.464-2.832 20.532 20.532 0 0 1 6.008-.914c1.35-.005 2.697.142 4.014.439.988-4.046 4.907-20.892 1.717-20.998Z"/><path fill="#191C22" d="M93.716 73.027c3-11.698-.6-24.597-7.499-26.621-6.899-2.025-21.748 3.345-24.671 17.023C59.22 74.302 64.47 80.975 68.52 83.3c8.031 4.61 22.197 1.425 25.196-10.274Zm-4.387-.262c-.262 2.662-2.774 2.204-6.899 2.28-4.124.074-7.356.092-8.046-1.943-.84-2.474 2.91-6.749 8.046-6.824 4.166-.06 7.119 4.265 6.9 6.487ZM141.107 83.301c4.05-2.325 9.299-8.999 6.975-19.873-2.924-13.677-17.773-19.047-24.672-17.022-6.899 2.024-10.499 14.923-7.499 26.621 2.999 11.699 17.165 14.884 25.196 10.274Zm-13.91-17.023c5.137.075 8.886 4.35 8.046 6.824-.69 2.035-3.922 2.017-8.046 1.943-4.125-.076-6.637.382-6.899-2.28-.219-2.222 2.733-6.547 6.899-6.487Z"/><path fill="#191C22" d="M82.093 73.927a2.737 2.737 0 1 0 0-5.474 2.737 2.737 0 0 0 0 5.474ZM127.535 73.927a2.737 2.737 0 1 0 0-5.473 2.737 2.737 0 0 0 0 5.473ZM96.96 87.814a8.922 8.922 0 0 0 3.542 2.803c1.307.558 2.715.839 4.135.825a14.443 14.443 0 0 0 6.864-1.85c.154.815.423 1.604.799 2.343a7.96 7.96 0 0 0 2.531 2.93 1.302 1.302 0 0 0 2.005-1.316 1.3 1.3 0 0 0-.54-.832 5.378 5.378 0 0 1-1.685-1.974 5.953 5.953 0 0 1-.676-2.698 4.576 4.576 0 0 1 .467-2.059 4.682 4.682 0 0 1 1.564-1.76 1.3 1.3 0 1 0-1.484-2.135 7.28 7.28 0 0 0-2.406 2.735 6.969 6.969 0 0 0-.593 1.766c-.078.025-.153.059-.225.1a12.228 12.228 0 0 1-5.22 2.042c-.022-.64-.051-1.537-.081-2.55a318.628 318.628 0 0 1-.099-4.185c3.101-.87 6.388-4.878 6.216-7.622-.225-3.6-13.028-3.462-14.323-.375-.841 2.006 2.425 6.626 5.504 7.859.036 2.396.129 5.343.182 6.89a7.152 7.152 0 0 1-1.891-.515 6.312 6.312 0 0 1-2.518-1.997 1.3 1.3 0 0 0-2.068 1.575Z"/><path fill="#191C22" d="M43.953 180.835s.007-.217.024-.62c.045-1.125.163-3.688.379-6.8.058-.114.098-.236.12-.361a7.983 7.983 0 0 1 2.867-4.874c2.553-2.33 6.767-4.381 11.842-5.996a99.855 99.855 0 0 1 16.155-3.512l5.767 22.697a1.302 1.302 0 0 0 1.196.978l18.978.928a8.253 8.253 0 0 1 .469-2.58l-18.36-.898-6.363-25.041 36.426 1.189-.207 1.746c.875-.124 1.758-.19 2.641-.196l.287-2.419a1.19 1.19 0 0 0 .074-.223 71.529 71.529 0 0 1 2.205-10.686 21.891 21.891 0 0 1 1.861-4.615c.24-.436.547-.832.91-1.173.09-.08.191-.147.299-.2.021.071.038.142.05.215.05.338.073.68.068 1.022a36.054 36.054 0 0 1-.774 6.06c-.426 2.215-.92 4.337-1.19 5.67a1.34 1.34 0 0 0 0 .237l-1.163 6.268a14.932 14.932 0 0 1 2.234.447c.023-.005.041-.021.065-.025 7.193-1.184 13.361-4.021 17.679-7.876 4.321-3.866 6.793-8.683 6.797-14.02a17.423 17.423 0 0 0-.093-1.769c-.001-.014 0-.028-.002-.042v-.001c-.021-.261.04-.522.174-.748.031-.071.067-.14.11-.205.186-.218.44-.368.721-.426.05-.019.101-.035.154-.048.017-.002.032.006.049.005a1.29 1.29 0 0 1 .904.279c.022.017.033.044.053.062.235.21.385.499.421.813.072.691.108 1.385.109 2.08.004 6.172-2.906 11.723-7.666 15.96a36.676 36.676 0 0 1-16.511 8.015c.11.155.21.318.301.486a5.79 5.79 0 0 1 .627 2.69 7.067 7.067 0 0 1-.581 2.794 5.259 5.259 0 0 1-1.369 1.905c-.093.08-.18.165-.281.237a1.29 1.29 0 0 1-1.615-.093 1.295 1.295 0 0 1-.259-1.597c.027-.046.057-.09.09-.132.079-.117.177-.22.29-.305.34-.279.602-.642.76-1.052a4.484 4.484 0 0 0 .365-1.757 3.214 3.214 0 0 0-.331-1.486 2.255 2.255 0 0 0-1.029-.998 1.559 1.559 0 0 1-.102-.08c-.011-.004-.022-.002-.033-.006h-.001l-.044-.017a10.827 10.827 0 0 0-1.096-.303 15.606 15.606 0 0 0-3.338-.349 17.874 17.874 0 0 0-5.246.8 13.69 13.69 0 0 0-3.718 1.661 4.251 4.251 0 0 0-1.554 1.69c-.159.35-.239.73-.237 1.114.011.503.113.999.302 1.466.164.397.416.752.736 1.04.16.15.332.287.514.411.17.118.349.224.536.316.138.072.285.128.436.168.016.003.028.014.043.018a66.076 66.076 0 0 1 1.56-.023c1.365 0 2.78.028 4.16.028.85 0 1.686-.011 2.486-.044a1.303 1.303 0 0 1 .936.34 1.293 1.293 0 0 1 .42.903 1.28 1.28 0 0 1-.078.502 1.282 1.282 0 0 1-.675.733 1.298 1.298 0 0 1-.493.119c-.853.036-1.725.047-2.596.047-1.415 0-2.831-.028-4.16-.028a36.029 36.029 0 0 0-3.658.141c-.208.021-.401.049-.592.077a6.226 6.226 0 0 0-1.78.478 4.045 4.045 0 0 0-1.67 1.401 2.816 2.816 0 0 0-.438 1.542c.009.591.149 1.172.412 1.701.245.516.591.977 1.017 1.357l.005.004.041.025.188.09c.232.093.469.169.711.228.771.184 1.553.319 2.341.404 2.158.232 4.327.343 6.498.331 1.18 0 2.347-.029 3.427-.085a1.295 1.295 0 0 1 .943.329 1.303 1.303 0 0 1 .096 1.843 1.31 1.31 0 0 1-.904.425 70.219 70.219 0 0 1-3.562.088 58.775 58.775 0 0 1-7.056-.384 23.236 23.236 0 0 1-1.116-.164 5.891 5.891 0 0 0-.463 2.162 3.71 3.71 0 0 0 .594 2.064 5.66 5.66 0 0 0 2.121 1.839c2.078 1.141 5.66 1.96 11.058 1.954.464 0 .942-.006 1.433-.017.136.001.272.025.401.071.526-.024 1.045-.043 1.589-.075a95.38 95.38 0 0 0 24.02-4.023 65.822 65.822 0 0 0 19.246-9.203c.131-.094.255-.199.385-.295a338.584 338.584 0 0 1 .215 5.175 1.302 1.302 0 0 0 1.341 1.257 1.298 1.298 0 0 0 1.257-1.341c0-.006-.128-3.926-.316-7.065a40.333 40.333 0 0 0 11.561-15.598 41.009 41.009 0 0 0 3.254-15.649 37.808 37.808 0 0 0-25.219-34.953 38.466 38.466 0 0 0 11.024-23.1c.153-1.545.23-3.086.228-4.622-.004-11.99-4.583-23.521-12.082-33.148a18.342 18.342 0 0 0 3.608-3.677 20.39 20.39 0 0 0 3.906-12.053 19.698 19.698 0 0 0-1.821-8.346 17.665 17.665 0 0 0-5.537-6.777 18.707 18.707 0 0 0-11.15-3.561 20.349 20.349 0 0 0-16.288 7.99 18.345 18.345 0 0 0-2.497 4.694 61.752 61.752 0 0 0-21.303-3.87 63.603 63.603 0 0 0-20.91 3.581 18.358 18.358 0 0 0-2.385-4.405 20.35 20.35 0 0 0-16.288-7.99 18.708 18.708 0 0 0-11.15 3.561 17.669 17.669 0 0 0-5.538 6.777 19.7 19.7 0 0 0-1.821 8.346 20.389 20.389 0 0 0 3.906 12.053c.88 1.191 1.9 2.271 3.039 3.217a54.626 54.626 0 0 0-12.002 33.573c0 1.538.071 3.087.212 4.647a40.626 40.626 0 0 0 8.068 20.977 44.463 44.463 0 0 0-10.632 4.984 66.003 66.003 0 0 0-17.268 15.797c-4.675 6.233-7.847 13.117-7.858 19.78a18.218 18.218 0 0 0 1.78 7.994 20.29 20.29 0 0 0 5.723 6.996 14.948 14.948 0 0 0 9.542 3.466c.049 0 .097-.006.146-.006.16-.071.331-.109.505-.111 3.837-.056 7.662-1.726 11.236-4.343.363-.265.726-.53 1.083-.815.561-.446 1.111-.919 1.655-1.406a53.056 53.056 0 0 0 7.364-8.276 19.933 19.933 0 0 1-1.06-.263 16.309 16.309 0 0 1-2.87-1.068 1.303 1.303 0 0 1-.55-1.752 1.303 1.303 0 0 1 1.75-.555l.017.008.087.042c.08.038.206.096.373.167.477.2.965.376 1.46.527.48.148 1.055.289 1.672.415 1.014.208 2.044.323 3.079.346.117.002.225.015.344.015a15.502 15.502 0 0 0 4.703-.719 11.08 11.08 0 0 0 5.222-3.066 5.69 5.69 0 0 0 1.385-3.837c0-.247-.028-.505-.054-.761a9.032 9.032 0 0 1-1.122.623 13.057 13.057 0 0 1-4.273 1.068 1.3 1.3 0 1 1-.24-2.589 10.482 10.482 0 0 0 3.426-.841 5.758 5.758 0 0 0 2.002-1.468 6.112 6.112 0 0 0 1.346-4.069 10.13 10.13 0 0 0-.614-3.409 18.33 18.33 0 0 1-1.205 1.078 12.364 12.364 0 0 1-4.614 2.355 1.3 1.3 0 0 1-1.6-.907 1.284 1.284 0 0 1 .687-1.487c.07-.045.144-.082.221-.112a9.729 9.729 0 0 0 3.676-1.875 34.31 34.31 0 0 0 3.028-2.97 9.6 9.6 0 0 1 2.944-1.983 5.968 5.968 0 0 0 1.83-1.101c.278-.314.462-.701.529-1.115.032-.157.049-.317.048-.477a3.597 3.597 0 0 0-1.094-2.43 3.915 3.915 0 0 0-2.801-1.187 4.597 4.597 0 0 0-1.713.349 24.818 24.818 0 0 0-7.925 5.294 5.56 5.56 0 0 0-.976 1.271 1.35 1.35 0 0 1-1.722.645 1.259 1.259 0 0 1-.229-.165l-10.319 4.173-1.25-.568.212-1.339 11.162-4.23.02-.039a9.204 9.204 0 0 1 1.217-1.539 22.004 22.004 0 0 1 2.366-2.117c.428-.334.884-.666 1.355-.992l-19.873 7.519-1.24-.594.239-1.334 42.739-15.196c.336.298.64.628.91.987l-14.11 5.339a6.528 6.528 0 0 1 3.367 1.506l.016.015 11.916-4.516c.128.388.227.785.297 1.187l-11.139 4.505a6.184 6.184 0 0 1 1.06 2.376l5.14-2.079c.006.005.008.011.014.016.481.376.99.715 1.523 1.013a9.428 9.428 0 0 0 3.54 1.236c.381.04.764.061 1.148.061a7.661 7.661 0 0 0 3.359-.702c.172.14.378.231.597.266.221.03.433.03.65.045.012.022.012.047.025.069.41.645.733 1.342.96 2.072.22.772.324 1.572.311 2.374 0 .106-.005.22-.007.331a77.469 77.469 0 0 1-17.18-3.279 4.8 4.8 0 0 1-.069.67 5.041 5.041 0 0 1-.74 1.801 4.248 4.248 0 0 1-.425.543 6.147 6.147 0 0 1-1.758 1.263 10.15 10.15 0 0 0-3.052 1.861l-.098.103c.314.641.57 1.311.762 1.999a12.7 12.7 0 0 1 .485 3.42 9.224 9.224 0 0 1-1.044 4.413c-.139.242-.29.475-.455.701.007.02.023.035.028.057.25.935.38 1.898.387 2.866a8.317 8.317 0 0 1-2.008 5.526 13.612 13.612 0 0 1-6.413 3.855 18.097 18.097 0 0 1-6.909.783 53.95 53.95 0 0 1-10.282 11.292c-.1.08-.205.152-.306.23a33.34 33.34 0 0 1-2.913 2.048c-.392 3.053-.678 6.288-.885 9.136-.334 4.617-.455 8.195-.456 8.206a1.297 1.297 0 0 0 1.256 1.343 1.304 1.304 0 0 0 1.343-1.255Zm50.974-69.773a15.728 15.728 0 0 0-3.67-8.029 11.834 11.834 0 0 0-1.746-1.58c.402.082.794.205 1.172.365a9.967 9.967 0 0 1 3.495 2.565 11.673 11.673 0 0 1 2.56 4.807 13 13 0 0 1 .496 3.275 5.103 5.103 0 0 1-.246 1.687c-.163.53-.514.982-.988 1.27a3.436 3.436 0 0 1-1.548.416c.44-.925.657-1.94.633-2.963a11.157 11.157 0 0 0-.158-1.812v-.001Zm16.275-9.672.284.582-4.09 1.654c-.071-.211-.133-.42-.214-.632-.009-.024-.02-.046-.03-.07l4.05-1.534Zm-5.366-.889a11.835 11.835 0 0 0-.425-.567l1.525-.543.272.588-1.372.522Zm-1.081 3.424a10.48 10.48 0 0 1 .75 3.675 4.214 4.214 0 0 1-.715 2.605 2.064 2.064 0 0 1-.769.614c-.19.084-.39.144-.595.178.174-.675.257-1.37.249-2.067a13.807 13.807 0 0 0-.123-1.771 14.025 14.025 0 0 0-3.946-8.064c-.166-.17-.337-.324-.507-.481.235.057.466.13.691.22a8.791 8.791 0 0 1 2.795 1.849 9.05 9.05 0 0 1 2.17 3.242Zm-.796 20.76a54.482 54.482 0 0 0-1.033 6.925c-.017.878.145 1.75.476 2.564.079.182.121.378.123.577a1.174 1.174 0 0 1-.384.882 1.997 1.997 0 0 1-1.402.45 4.676 4.676 0 0 1-1.286-.2c-.02-.36-.038-.722-.038-1.098.007-1.582.188-3.159.539-4.702a40.403 40.403 0 0 0 1.268-8.223 9.595 9.595 0 0 0-.724-3.899 7.17 7.17 0 0 0-2.145-2.725c.138-.359.243-.73.314-1.108a3.896 3.896 0 0 0 1.115-.168c.059-.017.123-.049.184-.071.097.119.215.219.348.295a5.072 5.072 0 0 1 2.281 2.728c.475 1.342.701 2.759.666 4.183a23.334 23.334 0 0 1-.302 3.59Zm-5.095-22.46a11.571 11.571 0 0 1 2.212 6.705 4.875 4.875 0 0 1-.236 1.653 1.355 1.355 0 0 1-.608.804 1.145 1.145 0 0 1-.44.126 17.265 17.265 0 0 0-.541-2.99 14.102 14.102 0 0 0-4.548-7.243 11.969 11.969 0 0 0-3.015-1.86 8.906 8.906 0 0 0-1.656-.513c.071-.089.15-.171.236-.246a2.877 2.877 0 0 1 1.92-.638c.317.001.635.036.946.103a7.674 7.674 0 0 1 2.18.89 11.81 11.81 0 0 1 3.55 3.209Zm-21.205 34.5c.36.004.71.119 1.002.33a6.202 6.202 0 0 1 1.833 2.45 25.945 25.945 0 0 1 1.803 5.796 41.43 41.43 0 0 1 .446 2.624l-6.574 3.596a49.17 49.17 0 0 1-.621-2.748 34.313 34.313 0 0 1-.71-6.337 11.02 11.02 0 0 1 .562-3.852c.153-.424.386-.815.684-1.153.252-.275.571-.48.926-.594.21-.072.428-.11.649-.112Zm6.624 13.321 11.658.506a1.19 1.19 0 0 0 .187-.03 6.514 6.514 0 0 1-.6 2.236l-15.29-.499 4.045-2.213Zm13.065-6.712a20.027 20.027 0 0 1-1.709-7.903 25.26 25.26 0 0 1 .644-5.432c.582-2.317.92-4.689 1.01-7.077a10.767 10.767 0 0 0-.42-3.113 10.145 10.145 0 0 0-.678-1.661c.043-.014.09-.017.132-.032a4.987 4.987 0 0 0 1.484-.791 4.509 4.509 0 0 1 1.308 1.685c.364.905.535 1.875.502 2.85a38.396 38.396 0 0 1-1.205 7.659 24.164 24.164 0 0 0-.601 5.266 28.18 28.18 0 0 0 2.179 10.119c.765 2.301.954 4.755.552 7.146-.05.285-.117.566-.201.843l-.008.022-2.057-.067a9.882 9.882 0 0 0 .49-3.087 17.598 17.598 0 0 0-1.422-6.427Zm5.65 9.668a13.92 13.92 0 0 0 .306-2.131l10.844.472c-.124.719-.23 1.392-.32 2.013l-10.83-.354Zm-76.573-21.547a1.3 1.3 0 0 1 .775-1.667 56.856 56.856 0 0 0 12.293-6.386l.053-.038-.15.833a1.297 1.297 0 0 0 .718 1.401l.447.215c-.504.339-1.015.672-1.532.997a58.879 58.879 0 0 1-10.937 5.42 1.303 1.303 0 0 1-1.667-.775Zm41.878-21.087-2.626.933c-.01-.009-.018-.02-.03-.029a4.135 4.135 0 0 0-2.73-.859l-.099.001h-.005a15.986 15.986 0 0 0-7.526 1.866 12.81 12.81 0 0 0-4.396 3.92c-.113.163-.242.324-.361.487l-4.977 1.769a26.385 26.385 0 0 0 3.198-3.733A15.405 15.405 0 0 1 54.037 110c.02-.011.042-.02.063-.031.83-.449 1.697-.827 2.59-1.13A38.014 38.014 0 0 1 44.56 84.137a48.08 48.08 0 0 1-.202-4.41c-.002-15.159 7.148-29.179 18.323-39.432a63.083 63.083 0 0 1 42.226-16.682c15.843-.004 31.017 6.725 42.208 17.137 11.195 10.411 18.362 24.46 18.356 39.012 0 1.45-.072 2.905-.215 4.365-1.132 11.34-7.638 20.97-17.976 27.957-10.315 6.963-24.441 11.211-40.58 11.616a23.64 23.64 0 0 0 .162-2.605 14.193 14.193 0 0 0-.845-5.131 8.247 8.247 0 0 0-1.569-2.54c.228-.066.452-.148.668-.246a4.82 4.82 0 0 0 2.3-2.294 7.429 7.429 0 0 0 .69-3.284c-.005-.473-.04-.945-.105-1.413l5.754-2.328a1.302 1.302 0 0 0 .812-1.263 1.306 1.306 0 0 0-.131-.513l-1.418-2.9a1.304 1.304 0 0 0-1.629-.645l-1.686.64-.906-1.955a1.298 1.298 0 0 0-1.614-.678l-3.843 1.366c-.042-.032-.083-.069-.126-.1a10.832 10.832 0 0 0-2.468-1.396 6.72 6.72 0 0 0-2.426-.514 3.764 3.764 0 0 0-1.29.211 2.83 2.83 0 0 0-.78.457 9.914 9.914 0 0 0-2.579-.987 7.178 7.178 0 0 0-1.483-.16 5.473 5.473 0 0 0-3.622 1.274 4.134 4.134 0 0 0-1.377 2.337 2.949 2.949 0 0 0-1.247.855c-.137-.021-.274-.049-.41-.06a8.943 8.943 0 0 0-.71-.029 7.325 7.325 0 0 0-2.34.364 5.53 5.53 0 0 0-2.908 2.225 7.594 7.594 0 0 0-1.099 4.219c0 .047.004.096.004.143l-10.175 3.618Zm22.457 5.507a5.51 5.51 0 0 1-1.97.323c-.292 0-.583-.016-.872-.047a6.936 6.936 0 0 1-2.534-.911c-.2-.114-.376-.223-.533-.325l2.75-1.292a1.302 1.302 0 0 0 1.14 1.438 1.298 1.298 0 0 0 1.441-1.135c.03-.285.043-.571.04-.857a11.02 11.02 0 0 0-.733-3.963 9.947 9.947 0 0 0-3.23-4.39 6.92 6.92 0 0 0-4.025-1.464c.143-.131.299-.247.464-.348a4.193 4.193 0 0 1 2.124-.505c.165 0 .332.007.502.021h.001a6.53 6.53 0 0 1 4 2.352 13.137 13.137 0 0 1 3.036 6.713c.079.459.12.924.124 1.39.024.624-.1 1.246-.363 1.813-.285.555-.773.98-1.362 1.187Z"/></svg>