<svg width="200" height="200" viewBox="0 0 200 200" xmlns="http://www.w3.org/2000/svg"><g id="type=confirmation, mode=light"><path id="Vector" d="M64.832 73.333L93.332 98L132.166 55.833L122.999 47.167L90.499 75.333L76.166 62L64.832 73.333Z"/><path id="Vector_2" d="M47.334 145.5L38.334 132.417L41.6673 125.917L68.9173 126.333C68.9173 126.333 71.334 126.583 74.2506 130.5C77.1673 134.417 93.7506 158.167 93.7506 158.167L91.0006 165.167L64.0006 165.333L58.4173 161L57.4173 156.917L66.084 152.917L66.1673 146.25H59.2507L59.834 142.083L51.5007 142.5L47.334 145.5Z"/><path id="Vector_3" d="M88.668 140.333L91.751 138.083L96.501 136.417L100.584 138L91.251 141.667L88.668 140.333Z"/><path id="Vector_4" d="M106 132.667L108.75 134.75L116.5 131.75L114.583 129.5L106 132.667Z"/><path id="Vector_5" d="M139.549 48.4904C136.059 44.5009 131.099 41.2744 124.33 39.0655C117.558 36.8542 108.969 35.6399 98.1015 35.639C88.4417 35.6395 80.5825 36.5997 74.1985 38.3655C64.6297 41.0046 58.3462 45.5137 54.5431 51.2524C50.7367 56.9875 49.4367 63.8251 49.4368 71.0352C49.3496 75.6928 50.0652 80.3307 51.5522 84.7454C52.694 87.992 54.4448 90.9911 56.7106 93.5816C60.2149 97.5698 65.1835 100.795 71.9463 103.004C78.7125 105.215 87.2813 106.43 98.1016 106.431C107.72 106.43 115.558 105.47 121.934 103.704C131.491 101.065 137.79 96.5573 141.614 90.8204C145.442 85.087 146.767 78.2481 146.767 71.0352C146.855 66.3805 146.148 61.7449 144.676 57.3282C143.546 54.0824 141.806 51.0827 139.549 48.4904ZM87.7246 91.6212L70.9668 74.8629C70.438 74.3339 70.141 73.6166 70.141 72.8687C70.141 72.1208 70.438 71.4035 70.9668 70.8746L73.8813 67.9605C74.4102 67.4317 75.1274 67.1347 75.8752 67.1347C76.6231 67.1347 77.3403 67.4317 77.8691 67.9605L90.2388 80.3306C90.3316 80.4235 90.4419 80.4972 90.5633 80.5475C90.6846 80.5977 90.8147 80.6236 90.946 80.6236C91.0774 80.6236 91.2075 80.5977 91.3288 80.5475C91.4502 80.4972 91.5604 80.4235 91.6533 80.3306L118.722 53.2618C119.251 52.733 119.968 52.436 120.716 52.436C121.463 52.436 122.181 52.733 122.709 53.2618L125.624 56.1758C126.152 56.7047 126.449 57.4219 126.449 58.1697C126.449 58.9176 126.152 59.6348 125.624 60.1636L94.167 91.6212C93.3126 92.4754 92.1539 92.9552 90.9458 92.9552C89.7376 92.9552 88.579 92.4754 87.7246 91.6212ZM59.6241 51.2841C60.4374 50.2675 61.3306 49.3175 62.2952 48.4432C62.5508 48.2137 62.887 48.0947 63.2301 48.1122C63.5732 48.1297 63.8954 48.2823 64.1264 48.5367C64.3573 48.7911 64.4781 49.1266 64.4624 49.4698C64.4468 49.813 64.2959 50.1361 64.0427 50.3683C63.1805 51.1497 62.3821 51.9987 61.6552 52.9073C61.5486 53.0407 61.4168 53.1518 61.2673 53.2342C61.1178 53.3166 60.9535 53.3688 60.7839 53.3877C60.6142 53.4067 60.4424 53.392 60.2784 53.3446C60.1144 53.2972 59.9614 53.2179 59.828 53.1113C59.6947 53.0047 59.5836 52.8729 59.5012 52.7234C59.4187 52.5739 59.3666 52.4096 59.3476 52.2399C59.3287 52.0703 59.3434 51.8985 59.3908 51.7345C59.4382 51.5705 59.5175 51.4175 59.6241 51.2841ZM83.2616 41.0498C83.3215 41.3893 83.2442 41.7387 83.0465 42.0212C82.8489 42.3037 82.5471 42.4961 82.2076 42.5561C77.8448 43.2457 73.6106 44.5877 69.6469 46.5369V46.5369C69.4952 46.6151 69.3295 46.6627 69.1594 46.6769C68.9893 46.6911 68.818 46.6717 68.6554 46.6197C68.4928 46.5677 68.342 46.4842 68.2117 46.374C68.0813 46.2637 67.974 46.1289 67.8957 45.9771C67.8175 45.8254 67.7699 45.6597 67.7557 45.4896C67.7415 45.3195 67.761 45.1482 67.813 44.9856C67.8649 44.823 67.9484 44.6722 68.0587 44.5418C68.169 44.4115 68.3038 44.3041 68.4555 44.2259C72.6514 42.1565 77.1349 40.7304 81.7553 39.9958C81.9234 39.9661 82.0957 39.9698 82.2624 40.0067C82.4291 40.0436 82.5869 40.1129 82.7267 40.2108C82.8666 40.3087 82.9858 40.4332 83.0776 40.5771C83.1694 40.7211 83.2319 40.8817 83.2616 41.0498ZM134.108 93.3914C133.859 93.6228 133.603 93.8513 133.341 94.077C132.121 95.1187 130.814 96.0538 129.434 96.872C129.134 97.0512 128.829 97.2262 128.52 97.397C128.218 97.5639 127.863 97.6041 127.531 97.5088C127.2 97.4134 126.92 97.1904 126.753 96.8887C126.586 96.587 126.546 96.2313 126.641 95.9C126.737 95.5686 126.96 95.2887 127.261 95.1218C127.549 94.9629 127.829 94.8021 128.102 94.6394C129.354 93.8975 130.54 93.0493 131.647 92.1043C131.884 91.9008 132.115 91.6946 132.34 91.4856V91.4857C132.593 91.2539 132.928 91.1317 133.271 91.1456C133.614 91.1596 133.937 91.3087 134.171 91.5603C134.404 91.8119 134.529 92.1456 134.517 92.4887C134.505 92.8317 134.358 93.1563 134.108 93.3915L134.108 93.3914Z"/><path id="Vector_6" d="M165.477 50.6809C166.412 40.7837 167.939 22.9332 168.27 17.8761C168.285 17.644 168.293 17.4184 168.293 17.1993C168.305 16.4123 168.186 15.6288 167.942 14.8805C167.63 13.9231 167.016 13.093 166.191 12.5156C165.459 12.0267 164.617 11.7278 163.741 11.6459C163.515 11.6209 163.289 11.6083 163.063 11.6083C161.813 11.5857 160.598 12.0227 159.649 12.8365C158.547 13.8808 157.89 15.3102 157.816 16.8266C157.408 21.0543 156.063 37.3716 155.194 48.0078C155.035 47.3974 154.875 46.7873 154.696 46.187C151.884 36.759 146.467 28.6098 137.349 22.9187C128.235 17.2223 115.521 13.9728 98.1016 13.972C86.4855 13.9724 76.9699 15.4171 69.2093 18.0675C57.569 22.0324 49.887 28.7758 45.2281 37.2292C43.2816 40.8123 41.8115 44.6342 40.8549 48.598C39.9881 37.9862 38.6012 21.1342 38.1851 16.8267C38.1108 15.3102 37.4541 13.8809 36.352 12.8366C35.403 12.0228 34.1883 11.5857 32.9384 11.6083C32.7118 11.6084 32.4853 11.621 32.26 11.6459C31.0595 11.7446 29.9348 12.2727 29.0919 13.1332C28.6269 13.6353 28.2747 14.2311 28.0589 14.8806C27.8147 15.6288 27.6961 16.4123 27.7078 17.1993C27.7078 17.4186 27.7154 17.6442 27.7307 17.8764C28.0624 22.9333 29.5891 40.7838 30.5241 50.6809C30.6564 53.1381 31.2318 55.5511 32.2226 57.8035C32.5692 58.5277 33.036 59.188 33.603 59.7563C33.0116 60.212 32.504 60.7671 32.1029 61.3968C31.5826 62.3401 31.2397 63.3709 31.0911 64.438C30.8635 65.8274 30.7549 67.2337 30.7666 68.6416C30.7697 70.0709 30.8554 71.4989 31.0232 72.9183C31.287 75.3182 31.8259 77.6798 32.6291 79.9566C32.9378 80.824 33.3182 81.6643 33.7663 82.4687C34.1139 83.119 34.5698 83.7054 35.1143 84.2025C36.332 85.1263 37.7474 85.7549 39.2492 86.0389C39.9929 86.2074 40.7471 86.3257 41.5067 86.393C41.5188 86.4322 41.5283 86.4728 41.5405 86.5119C44.2562 95.8944 50.5066 103.857 58.9757 108.723C66.5777 113.166 76.6612 115.953 89.8407 116.761V119.112C88.2542 119.185 86.7479 119.283 85.3729 119.414C83.9305 119.54 82.4956 119.741 81.0742 120.017C80.0244 120.194 79.0073 120.529 78.0572 121.01C77.1474 121.549 76.3118 122.205 75.5714 122.96C75.4946 122.888 75.4088 122.825 75.3162 122.774C74.9423 122.605 74.555 122.466 74.1582 122.361C73.4273 122.166 72.6739 122.069 71.9175 122.072C69.0749 122.226 66.3302 123.163 63.9866 124.779L42.5504 124.773L42.5486 124.773C41.8636 124.77 41.1923 124.965 40.6149 125.334C40.0775 125.679 39.6416 126.162 39.3519 126.731L39.3447 126.746L37.4512 130.572L37.4485 130.582C37.1621 131.16 37.0409 131.806 37.098 132.449C37.1552 133.092 37.3886 133.706 37.7725 134.225L45.7631 145.237C45.7498 145.25 45.7341 145.264 45.721 145.277C45.4164 145.573 45.1431 145.899 44.9055 146.251C44.6533 146.683 44.4952 147.163 44.4413 147.661C44.372 148.185 44.34 148.714 44.3456 149.243C44.3991 151.353 44.5931 153.457 44.9261 155.541C44.9896 155.973 45.0544 156.388 45.1189 156.788C44.5041 157.669 44.0163 158.632 43.6696 159.649C43.2731 160.813 43.0702 162.034 43.0688 163.264C43.1067 165.65 43.8656 167.968 45.2457 169.915C46.6258 171.861 48.5626 173.344 50.8014 174.169C52.1968 174.71 53.6803 174.987 55.1768 174.987C58.024 174.963 60.7865 174.016 63.0497 172.288C65.0609 170.807 66.5689 168.744 67.37 166.378L68.2531 166.378C68.2993 170.756 68.5659 175.129 69.052 179.48C69.2769 181.491 69.605 183.489 70.0352 185.466C70.3274 186.927 70.7976 188.346 71.4353 189.692C71.5951 189.997 71.8692 190.226 72.1976 190.329C72.5261 190.432 72.882 190.401 73.1873 190.242C73.4926 190.083 73.7224 189.81 73.8263 189.481C73.9302 189.153 73.8997 188.797 73.7415 188.492C73.2093 187.342 72.8163 186.134 72.5708 184.891C72.0002 182.188 71.6014 179.451 71.3768 176.697C71.7575 176.806 72.1419 176.914 72.5407 177.015C72.5476 177.017 72.5524 177.022 72.5594 177.024C72.5786 177.028 72.5969 177.029 72.616 177.033L72.6206 177.034L72.6203 177.036L72.6449 177.04C75.899 177.819 79.2035 178.369 82.5343 178.687C87.7649 179.202 93.0182 179.449 98.2739 179.428C104.986 179.444 111.694 179.085 118.366 178.354L118.39 178.352L118.391 178.351L118.401 178.351L118.404 178.35C118.444 178.345 118.487 178.341 118.526 178.336C120.989 178.067 123.435 177.667 125.855 177.138C126.725 176.945 127.583 176.698 128.424 176.4L128.443 176.392C128.391 180.575 128.12 184.753 127.633 188.908C127.589 189.25 127.684 189.595 127.895 189.868C128.106 190.14 128.417 190.317 128.759 190.361C129.101 190.404 129.447 190.309 129.719 190.098C129.991 189.887 130.169 189.576 130.212 189.234V189.234C130.833 183.801 131.123 178.335 131.079 172.866C131.079 170.122 131.023 167.308 130.916 164.48C132.124 163.945 133.228 163.2 134.177 162.28C135.053 162.699 136.011 162.918 136.982 162.922C137.734 162.922 138.481 162.785 139.185 162.519C141.344 161.644 143.138 160.054 144.265 158.015C145.623 155.575 146.31 152.819 146.255 150.027C146.251 148.795 146.144 147.566 145.932 146.353C144.921 141.338 142.995 136.553 140.25 132.237C138.835 129.937 137.053 127.884 134.973 126.162C133.05 124.526 130.628 123.593 128.104 123.517C127.689 123.517 127.274 123.545 126.863 123.602V123.602L126.863 123.602H126.863C126.168 123.688 125.504 123.939 124.926 124.334C124.85 124.172 124.775 124.003 124.697 123.853C124.444 123.352 124.14 122.879 123.789 122.442C123.461 122.026 123.047 121.687 122.574 121.447C122.012 121.195 121.428 120.996 120.829 120.853C117.438 120.123 113.995 119.66 110.531 119.468C109.689 119.405 108.808 119.351 107.925 119.299V116.648C114.354 116.247 120.715 115.104 126.882 113.241C138.494 109.57 146.21 103.267 150.909 95.1572C152.519 92.349 153.802 89.365 154.731 86.2639C154.924 86.3618 155.14 86.4082 155.357 86.3987C156.142 86.334 156.92 86.2137 157.688 86.0389C159.19 85.7549 160.605 85.1263 161.823 84.2025C162.368 83.7053 162.824 83.1189 163.171 82.4686C163.869 81.1871 164.419 79.8308 164.811 78.4255C165.333 76.624 165.702 74.7817 165.914 72.9182C166.082 71.499 166.167 70.0712 166.171 68.6421C166.182 67.2341 166.074 65.8277 165.846 64.4382C165.698 63.371 165.355 62.34 164.834 61.3965C164.288 60.5574 163.568 59.8461 162.722 59.3113C162.708 59.3023 162.694 59.2958 162.68 59.2868C163.416 58.453 163.978 57.4802 164.332 56.4259C164.952 54.5662 165.336 52.6362 165.477 50.6809ZM33.1126 50.4363C32.1804 40.5727 30.6515 22.6889 30.3251 17.706C30.3133 17.5277 30.3076 17.3588 30.3078 17.1993C30.2966 16.6991 30.3678 16.2005 30.5185 15.7234C30.6484 15.2916 30.919 14.9155 31.2873 14.6552C31.6651 14.4118 32.0973 14.2658 32.5453 14.2302C32.6758 14.2156 32.807 14.2083 32.9384 14.2082C33.555 14.1858 34.1582 14.3918 34.6324 14.7867C35.2387 15.3961 35.5846 16.2171 35.5972 17.0767C35.9034 20.2449 36.7523 30.4152 37.5228 39.7749C37.9082 44.4563 38.2744 48.9384 38.5442 52.2502C38.7529 54.8121 38.9025 56.6563 38.9603 57.3689C38.1734 57.5556 37.3998 57.7948 36.6449 58.085C36.448 58.1613 36.2394 58.2628 36.0357 58.3515C35.3658 57.9597 34.8432 57.3586 34.5482 56.6408C33.705 54.6743 33.2189 52.5733 33.1126 50.4363ZM39.6165 83.4546C38.5983 83.251 37.6361 82.8297 36.7959 82.2194C36.485 81.9153 36.2243 81.5638 36.0234 81.1781C35.4269 80.0717 34.9562 78.9019 34.6202 77.6907C34.14 76.031 33.8006 74.3337 33.6058 72.617C33.4496 71.2976 33.3697 69.9702 33.3666 68.6416C33.3552 67.3845 33.4507 66.1286 33.652 64.8877C33.7493 64.1472 33.9733 63.429 34.3141 62.7644C34.6635 62.246 35.1193 61.8079 35.6511 61.4793C36.545 60.9191 37.5108 60.4831 38.5221 60.1833C38.7321 60.1179 38.9262 60.0627 39.1033 60.0149C38.9517 62.1441 38.876 64.3058 38.8764 66.5C38.8066 72.2824 39.4393 78.0519 40.7605 83.6818C40.4253 83.6288 40.0329 83.5558 39.6165 83.4546ZM71.9175 124.672C72.4452 124.669 72.9709 124.736 73.4809 124.871C73.6163 124.908 73.7416 124.948 73.8603 124.989C73.4582 125.556 73.0921 126.147 72.7642 126.759C71.7871 125.969 70.6537 125.395 69.4388 125.075C70.2417 124.824 71.0763 124.688 71.9174 124.672H71.9175ZM41.6681 127.913C41.7482 127.754 41.8689 127.619 42.0179 127.523C42.1763 127.422 42.3608 127.37 42.5484 127.373L42.5495 127.373L67.1911 127.38C68.2068 127.38 69.2073 127.626 70.1077 128.096C71.008 128.566 71.7815 129.246 72.3624 130.079L92.0382 158.298C92.0251 158.527 91.9936 158.754 91.9439 158.977C91.8931 159.229 91.8245 159.502 91.7489 159.776L72.6235 132.347L72.6235 132.347C71.8031 131.171 70.7107 130.21 69.4391 129.546C68.1675 128.882 66.7545 128.535 65.3201 128.535L41.3637 128.528L41.6681 127.913ZM49.8595 149.759C50.0032 150.007 50.2247 150.2 50.4896 150.309C50.7545 150.419 51.048 150.437 51.3245 150.362C51.3256 150.362 51.7713 150.241 52.4737 150.054C53.5272 149.775 55.1529 149.348 56.6843 148.968C57.4497 148.778 58.1918 148.6 58.8226 148.458C59.4502 148.317 59.9791 148.211 60.2611 148.172C61.144 148.045 62.3199 147.945 63.3509 147.879C64.0685 147.833 64.7173 147.804 65.1565 147.79C65.2223 147.944 65.2746 148.102 65.3126 148.265C65.3207 148.298 65.3237 148.328 65.3303 148.361C65.226 148.401 65.1136 148.443 64.9891 148.487C63.4632 149.035 60.5391 149.914 58.0295 150.643C56.7724 151.009 55.6135 151.339 54.7694 151.578C53.9254 151.816 53.3988 151.963 53.3974 151.963C53.0652 152.056 52.7833 152.276 52.6138 152.576C52.4442 152.877 52.4008 153.232 52.4932 153.564C52.5855 153.896 52.8061 154.178 53.1063 154.348C53.4065 154.517 53.7618 154.561 54.0939 154.468V154.468C54.0978 154.467 57.2506 153.591 60.4462 152.644C62.045 152.17 63.6524 151.68 64.8958 151.268C64.9663 151.244 65.0228 151.224 65.0909 151.201C65.0632 151.287 65.0357 151.375 65.004 151.454C64.9376 151.633 64.8506 151.803 64.7447 151.962L64.6607 152.063L64.6602 152.064C64.2757 152.255 62.99 152.857 61.6182 153.481C60.223 154.116 58.7052 154.79 57.9102 155.107C57.2581 155.368 56.4051 155.702 55.6938 155.967C55.339 156.099 55.0178 156.214 54.7871 156.291C54.6726 156.329 54.5794 156.357 54.5302 156.37L54.5043 156.377L54.5017 156.378L54.5061 156.398C54.1988 156.438 53.9165 156.588 53.7112 156.821C53.5059 157.053 53.3915 157.351 53.3891 157.661C53.3891 158.006 53.526 158.337 53.7698 158.58C54.0136 158.824 54.3443 158.961 54.6891 158.961C54.7989 158.961 54.9084 158.949 55.0159 158.926C55.2714 158.867 55.5231 158.793 55.7696 158.703C55.8241 158.684 55.8944 158.658 55.9526 158.638C55.8666 159.005 55.7246 159.356 55.5316 159.68C55.0789 160.345 54.5073 160.922 53.8455 161.38C53.1405 161.928 52.2871 162.253 51.3957 162.311C51.3062 162.311 51.2169 162.306 51.1279 162.296C50.3908 162.246 49.6982 161.925 49.1823 161.396C48.7258 160.886 48.4136 160.263 48.2776 159.592C48.1378 158.99 47.7951 157.189 47.4986 155.164C47.185 153.204 47.0003 151.227 46.9456 149.243C46.9405 148.84 46.9634 148.436 47.0141 148.036C47.0291 147.923 47.0521 147.812 47.0828 147.702L47.1043 147.641C47.32 147.354 47.564 147.089 47.8326 146.85C48.5046 146.234 49.2181 145.664 49.9681 145.145C50.5488 144.719 51.1741 144.357 51.8331 144.065C52.1741 143.963 52.5232 143.89 52.8765 143.847C54.6514 143.621 56.4386 143.504 58.2279 143.497C58.4567 143.497 58.6555 143.501 58.8085 143.506C58.844 143.508 58.8677 143.51 58.8983 143.511C58.9255 143.56 58.9483 143.611 58.9664 143.663C59.0037 143.768 59.0247 143.878 59.0284 143.989C58.9766 144.009 58.9246 144.03 58.8561 144.053C58.1882 144.285 56.9198 144.599 55.7771 144.876C55.202 145.017 54.6527 145.15 54.1945 145.272C53.9649 145.333 53.7585 145.39 53.5739 145.448C53.3876 145.502 53.2058 145.571 53.0303 145.654C52.8592 145.743 52.6955 145.846 52.541 145.961C51.9834 146.39 51.4504 146.849 50.9445 147.338C50.4522 147.801 50.0712 148.182 50.0652 148.188C49.8626 148.391 49.7327 148.655 49.6955 148.939C49.6583 149.223 49.716 149.511 49.8595 149.759ZM61.4834 170.212C59.6711 171.599 57.4586 172.362 55.1768 172.387C54.0005 172.387 52.8343 172.169 51.7376 171.744C49.9887 171.107 48.4732 169.957 47.39 168.444C46.3069 166.93 45.7069 165.125 45.6688 163.264C45.6715 162.496 45.777 161.732 45.9826 160.992C46.2519 161.769 46.6739 162.485 47.2238 163.096C47.6316 164.294 48.4089 165.332 49.4438 166.059C50.4787 166.787 51.7179 167.168 52.983 167.147C54.2481 167.126 55.4739 166.704 56.4839 165.942C57.4938 165.179 58.2359 164.116 58.6033 162.906C59.3282 163.847 60.2343 164.634 61.2683 165.22C62.3022 165.806 63.4429 166.179 64.6232 166.316C63.9268 167.862 62.8458 169.203 61.4834 170.212L61.4834 170.212ZM65.643 163.778C64.6474 163.777 63.6661 163.541 62.7792 163.089C61.8924 162.636 61.1252 161.981 60.5404 161.175L58.6271 158.538C58.6715 158.224 58.6957 157.908 58.6995 157.591C58.7561 157.569 58.8213 157.543 58.8756 157.522C59.7652 157.165 61.2784 156.492 62.6952 155.847C64.1139 155.201 65.3977 154.602 65.8449 154.378C66.2551 154.163 66.6058 153.849 66.8656 153.466C67.1995 152.972 67.452 152.427 67.6133 151.853C67.7685 151.338 67.8671 150.808 67.9075 150.272C67.9174 150.072 67.8802 149.873 67.7988 149.69C67.9252 149.394 67.9872 149.075 67.9807 148.753C67.9659 148.086 67.8261 147.427 67.5686 146.81C67.4325 146.468 67.2427 146.15 67.0061 145.867C66.8547 145.691 66.6752 145.54 66.4748 145.421C66.2096 145.265 65.9078 145.182 65.6002 145.181C65.1683 145.182 64.2626 145.216 63.1849 145.285C62.561 145.325 61.8924 145.377 61.2425 145.441C61.2976 145.355 61.3464 145.266 61.3888 145.173C61.5522 144.806 61.6345 144.408 61.63 144.006C61.6266 143.378 61.4621 142.761 61.1524 142.215C60.9905 141.926 60.7798 141.667 60.5294 141.45C60.2248 141.185 59.851 141.011 59.4517 140.951C59.2713 140.928 59.0899 140.913 58.9081 140.908C58.7085 140.901 58.4813 140.897 58.2278 140.897C57.2181 140.898 55.7856 140.952 54.4242 141.063C53.7434 141.119 53.0829 141.188 52.4958 141.275C51.9687 141.341 51.4491 141.457 50.9441 141.622C50.3836 141.844 49.8462 142.12 49.3399 142.447C48.8185 142.77 48.2809 143.154 47.7527 143.552L39.8769 132.698C39.7525 132.533 39.6849 132.332 39.6843 132.125C39.6848 131.999 39.7096 131.873 39.7573 131.756C39.7638 131.744 39.7753 131.737 39.7813 131.725L39.8024 131.683C39.8439 131.589 39.8992 131.503 39.9665 131.426C40.0575 131.329 40.1679 131.253 40.2906 131.201C40.4132 131.15 40.5453 131.125 40.6782 131.128L65.3194 131.135C66.3351 131.135 67.3357 131.381 68.236 131.851C69.1364 132.321 69.9099 133.001 70.4908 133.834L90.2896 162.229C90.4072 162.392 90.4708 162.587 90.4714 162.788C90.4689 163.048 90.368 163.297 90.1889 163.486C90.0979 163.583 89.9875 163.66 89.8649 163.711C89.7424 163.762 89.6104 163.787 89.4775 163.784L65.643 163.778ZM133.705 158.284C133.388 159.271 132.793 160.145 131.991 160.803C131.014 161.574 129.915 162.176 128.738 162.582C127.671 162.938 126.567 163.17 125.447 163.272C123.962 163.433 122.47 163.51 120.976 163.504C119.33 163.504 117.668 163.421 116.188 163.27C114.955 163.163 113.732 162.954 112.533 162.645C110.849 162.211 109.276 161.427 107.917 160.342C107.238 159.769 106.684 159.064 106.288 158.269C105.961 157.588 105.757 156.855 105.686 156.104C105.731 156.144 105.775 156.185 105.82 156.225C106.272 156.971 106.876 157.612 107.594 158.106C108.311 158.6 109.126 158.936 109.983 159.092C110.841 159.248 111.722 159.219 112.567 159.009C113.413 158.799 114.204 158.411 114.889 157.872C115.573 157.332 116.135 156.654 116.538 155.881C116.94 155.108 117.174 154.258 117.223 153.388C117.272 152.518 117.136 151.647 116.823 150.834C116.511 150.021 116.029 149.283 115.409 148.67C115.35 147.678 115.259 146.69 115.147 145.769C115.715 145.78 116.295 145.81 116.891 145.865C121.002 146.134 125.035 147.116 128.809 148.767C130.274 149.435 131.579 150.409 132.636 151.623C133.536 152.695 134.039 154.044 134.063 155.444C134.066 155.543 134.067 155.641 134.067 155.737C134.082 156.6 133.96 157.459 133.705 158.284V158.284ZM96.7757 137.466C96.8236 137.481 96.869 137.499 96.9181 137.514C97.3799 137.641 97.8482 137.743 98.321 137.82L91.1867 140.671L90.1228 140.537L90.7395 139.822L96.7757 137.466ZM98.8589 146.041C99.4076 145.255 99.934 144.528 100.247 144.103C100.529 144.119 100.81 144.155 101.086 144.212C101.66 144.322 102.327 144.498 102.898 144.655C103.184 144.733 103.447 144.807 103.675 144.866C103.79 144.896 103.896 144.923 103.999 144.946C104.112 144.972 104.226 144.992 104.341 145.005C104.681 145.039 105.022 144.938 105.288 144.723C105.555 144.507 105.725 144.195 105.762 143.855C105.8 143.515 105.701 143.173 105.488 142.905C105.274 142.637 104.964 142.465 104.624 142.425L104.624 142.42C104.607 142.42 104.338 142.355 104.026 142.269C103.545 142.137 102.888 141.951 102.213 141.794C101.546 141.624 100.863 141.525 100.174 141.5C99.8995 141.496 99.6254 141.53 99.3598 141.601C98.9739 141.702 98.6324 141.928 98.3886 142.244C98.192 142.506 97.6888 143.191 97.1056 144.015C96.8798 143.911 96.6604 143.794 96.4487 143.664C96.4178 143.645 96.3902 143.625 96.3607 143.606C96.3842 143.563 96.4066 143.522 96.4338 143.476C97.1221 142.381 97.9328 141.368 98.8504 140.456C98.87 140.437 98.8765 140.411 98.8946 140.391L100.39 139.793C100.499 139.742 100.599 139.676 100.689 139.597C101.719 139.768 103.656 140.179 104.944 140.528C105.276 140.618 105.631 140.572 105.93 140.401C106.229 140.229 106.448 139.945 106.538 139.613C106.508 138.984 106.277 138.382 105.878 137.895L103.865 136.082C103.648 135.888 103.372 135.771 103.081 135.751C103.081 135.751 102.997 135.746 102.841 135.734C102.293 135.693 100.894 135.577 99.5938 135.393C98.9459 135.302 98.3196 135.192 97.869 135.078C97.7042 135.039 97.5421 134.989 97.3839 134.929C97.2692 134.786 97.1673 134.632 97.0793 134.471C97.944 134.344 98.8147 134.263 99.6879 134.227C100.898 134.164 102.235 134.137 103.361 134.137C103.969 134.137 104.513 134.145 104.943 134.159C105.113 134.222 105.274 134.308 105.42 134.415C106.078 134.893 106.687 135.436 107.235 136.036C108.325 137.2 109.333 138.438 110.25 139.742C110.692 140.369 111.081 140.968 111.378 141.478C111.571 141.798 111.741 142.132 111.889 142.476C111.911 142.53 111.933 142.583 111.945 142.622C112.066 143.029 112.162 143.443 112.234 143.862C112.64 146.153 112.857 148.474 112.883 150.801C112.883 150.953 112.882 151.103 112.879 151.249C112.809 152.246 112.374 153.181 111.656 153.876C111.024 154.581 110.143 155.012 109.199 155.077C108.733 155.08 108.28 154.92 107.919 154.626C106.626 153.552 105.56 152.233 104.781 150.744C104.646 150.498 104.53 150.267 104.423 150.048C104.664 149.939 104.865 149.757 104.997 149.528C105.13 149.299 105.187 149.034 105.161 148.771C105.135 148.508 105.027 148.259 104.852 148.061C104.677 147.862 104.445 147.723 104.187 147.664C104.127 147.639 104.065 147.62 104.002 147.606V147.606C103.495 147.553 102.646 147.401 101.955 147.264C101.607 147.195 101.294 147.13 101.07 147.082C100.845 147.034 100.711 147.004 100.711 147.004C100.494 146.956 100.268 146.964 100.055 147.028C99.8422 147.092 99.6492 147.21 99.4946 147.369L99.4813 147.383C99.1536 147.712 98.8078 148.023 98.4455 148.314C98.2227 148.496 97.9859 148.659 97.7373 148.804C97.6679 148.843 97.5955 148.877 97.5207 148.905C97.3658 148.897 97.2151 148.852 97.0818 148.772C97.4409 148.122 98.1697 147.025 98.8589 146.041ZM108.758 133.874C108.505 133.62 108.254 133.385 108.005 133.161L114.349 130.613C114.39 130.644 114.428 130.677 114.463 130.714C114.553 130.806 114.624 130.914 114.674 131.033C114.725 131.169 114.755 131.313 114.764 131.458L108.758 133.874ZM125.907 127.055C126.023 126.825 126.192 126.625 126.401 126.473C126.644 126.309 126.924 126.208 127.215 126.178L127.215 126.178C127.51 126.137 127.807 126.117 128.104 126.117C130.044 126.195 131.899 126.931 133.364 128.204C136.166 130.653 138.421 133.663 139.984 137.041C141.555 140.12 142.695 143.402 143.37 146.792C143.556 147.86 143.651 148.943 143.655 150.027C143.709 152.358 143.145 154.662 142.02 156.705C141.192 158.229 139.866 159.423 138.264 160.087C137.855 160.242 137.42 160.322 136.982 160.322C136.565 160.318 136.151 160.249 135.755 160.116C135.918 159.785 136.059 159.443 136.176 159.094C136.192 159.045 136.203 158.993 136.218 158.943C137.281 158.316 138.109 157.356 138.573 156.211C139.037 155.067 139.112 153.802 138.787 152.611C138.461 151.419 137.753 150.368 136.771 149.62C135.789 148.871 134.588 148.465 133.353 148.466C133.286 148.466 133.221 148.474 133.155 148.476C131.806 147.386 130.3 146.507 128.688 145.868C127.946 142.682 127.23 139.481 126.804 137.482C126.605 136.55 126.265 135.254 125.974 133.826C125.662 132.42 125.486 130.987 125.449 129.548C125.405 128.693 125.561 127.839 125.907 127.055H125.907ZM118.072 122.935C118.888 123.074 119.601 123.221 120.18 123.371C120.617 123.474 121.045 123.616 121.456 123.795C121.585 123.875 121.697 123.979 121.787 124.101C122.292 124.793 122.693 125.555 122.977 126.363C123.046 126.539 123.115 126.73 123.184 126.921C123.163 126.993 123.144 127.065 123.125 127.138C122.278 127.754 121.641 128.617 121.3 129.608C120.982 130.516 120.823 131.472 120.83 132.435C120.829 132.912 120.867 133.389 120.946 133.86C121.132 134.895 121.497 135.889 122.024 136.799C122.553 137.78 123.337 138.599 124.293 139.172C124.368 139.203 124.445 139.228 124.525 139.244C124.868 140.819 125.313 142.802 125.788 144.868C122.959 144.063 120.06 143.53 117.13 143.276C116.335 143.203 115.54 143.158 114.752 143.158L114.742 143.158C114.659 142.699 114.549 142.246 114.412 141.8C114.257 141.365 114.064 140.944 113.835 140.542C112.895 138.915 111.815 137.373 110.607 135.933L116.489 133.567C116.691 133.485 116.87 133.354 117.008 133.185C117.147 133.017 117.241 132.816 117.281 132.601C117.344 132.275 117.376 131.943 117.378 131.61C117.385 130.997 117.25 130.389 116.985 129.836C116.682 129.222 116.215 128.705 115.636 128.341C115.366 128.166 115.073 128.03 114.766 127.936C114.489 127.857 114.195 127.873 113.928 127.981L105.012 131.561C104.547 131.545 103.985 131.537 103.361 131.537C101.937 131.537 100.213 131.578 98.736 131.68C97.9962 131.731 97.3211 131.796 96.7521 131.886C96.4853 131.926 96.221 131.98 95.9604 132.05C95.6689 132.122 95.3935 132.248 95.1486 132.421C94.8719 132.627 94.6525 132.901 94.5112 133.216C94.3892 133.493 94.3272 133.794 94.3293 134.097C94.3417 134.583 94.4637 135.059 94.6864 135.491L89.4937 137.518C89.2961 137.594 89.1205 137.718 88.9822 137.879L86.5696 140.674C86.416 140.852 86.3135 141.068 86.2731 141.3C86.2327 141.532 86.2558 141.77 86.3402 141.99C86.4245 142.209 86.5668 142.402 86.7519 142.547C86.937 142.692 87.158 142.784 87.3913 142.813L91.195 143.292C91.4135 143.32 91.6353 143.291 91.8398 143.21L94.1195 142.299C94.0813 142.367 94.0355 142.437 94.0005 142.504C93.8928 142.706 93.7998 142.915 93.7221 143.131C93.6299 143.379 93.5806 143.641 93.5762 143.905C93.5756 144.061 93.5969 144.216 93.6394 144.366C93.6961 144.565 93.7927 144.75 93.9235 144.91C94.3878 145.425 94.9454 145.848 95.567 146.155C95.5871 146.166 95.603 146.171 95.623 146.182C95.4016 146.521 95.1936 146.849 95.0144 147.15C94.8445 147.436 94.699 147.696 94.5798 147.946C94.5184 148.073 94.4644 148.204 94.4181 148.337C94.3505 148.526 94.3149 148.726 94.3128 148.926C94.3128 149.033 94.3244 149.14 94.3475 149.244C94.4278 149.585 94.5812 149.905 94.7971 150.182C95.1046 150.577 95.4968 150.898 95.9448 151.123C96.4431 151.377 96.9944 151.51 97.5538 151.511C97.8447 151.507 98.1329 151.453 98.4053 151.351C98.7996 151.199 99.1735 150.999 99.518 150.754C99.9803 150.43 100.42 150.074 100.833 149.689C101.019 149.728 101.221 149.769 101.45 149.814L101.485 149.821C101.776 150.565 102.115 151.289 102.499 151.99C102.71 152.375 102.955 152.785 103.227 153.206C103.109 153.891 103.047 154.586 103.043 155.281C103.025 156.709 103.336 158.121 103.951 159.409C104.777 161.035 106.046 162.396 107.611 163.333C108.922 164.13 110.338 164.739 111.818 165.144C113.164 165.497 114.538 165.735 115.925 165.856C117.503 166.017 119.243 166.103 120.977 166.104C122.569 166.11 124.161 166.027 125.745 165.855C126.62 165.757 127.49 165.606 128.347 165.403C128.433 167.922 128.48 170.424 128.479 172.866C128.479 173.087 128.476 173.303 128.476 173.522C128.174 173.699 127.856 173.846 127.526 173.96C126.041 174.454 124.517 174.825 122.971 175.069C121.541 175.323 119.904 175.557 118.114 175.766L118.068 175.77C117.417 175.839 116.762 175.874 116.107 175.875C111.61 175.878 107.715 174.234 103.768 172.477C101.797 171.602 99.8198 170.705 97.7525 170.018C95.6487 169.278 93.4388 168.885 91.209 168.854C87.5995 168.898 84.0763 169.964 81.0475 171.928C79.7814 172.668 78.6611 173.372 77.604 173.865C76.6444 174.354 75.5869 174.622 74.5098 174.647C74.3105 174.646 74.1114 174.634 73.9132 174.613C73.7979 174.595 73.6927 174.578 73.6006 174.564C73.4241 174.535 73.2907 174.513 73.2022 174.498L73.1582 174.49C72.4491 174.31 71.7878 174.115 71.156 173.912C70.9947 171.525 70.8917 168.986 70.8532 166.379L89.4772 166.385C89.9625 166.387 90.4431 166.29 90.8895 166.099C91.3359 165.909 91.7387 165.629 92.0731 165.278C92.2505 165.087 92.407 164.878 92.5398 164.654C92.641 164.554 92.7247 164.438 92.7876 164.31L92.7875 164.31L93.5698 162.585L93.6112 162.482C93.7082 162.208 93.9561 161.51 94.1833 160.724C94.2972 160.329 94.4067 159.911 94.4913 159.498C94.5813 159.091 94.6311 158.675 94.6398 158.258C94.6414 158.067 94.6236 157.877 94.5868 157.69C94.5384 157.438 94.4388 157.199 94.2943 156.988L74.6505 128.815C75.0738 127.867 75.6011 126.97 76.2227 126.138C77.0656 124.985 78.1273 124.01 79.3472 123.267C80.0605 122.928 80.8178 122.691 81.597 122.564C83.2578 122.25 84.9354 122.034 86.6213 121.916C86.6751 121.991 86.7368 122.06 86.8054 122.122C90.1075 124.96 94.3238 126.509 98.6776 126.483C101.125 126.475 103.553 126.035 105.848 125.183C107.662 124.549 109.345 123.588 110.813 122.348C110.887 122.278 110.952 122.201 111.008 122.116C111.373 122.145 111.743 122.174 112.097 122.205C114.388 122.408 116.437 122.656 118.072 122.935H118.072ZM135.915 106.479C127.357 111.488 115.146 114.414 98.1016 114.412C86.7416 114.413 77.5216 113.114 70.1077 110.762C58.9835 107.223 51.9303 101.385 47.5434 93.8514C43.1623 86.3142 41.4746 76.9764 41.4763 66.5C41.3685 59.8899 42.2182 53.299 43.9988 46.9324C46.6895 37.9739 51.6829 30.4793 60.2324 25.1232C68.7852 19.7722 80.9943 16.5712 98.1016 16.572C109.503 16.5715 118.737 17.9938 126.154 20.5279C137.279 24.3399 144.323 30.5878 148.7 38.4866C153.069 46.3878 154.729 56.0223 154.727 66.5C154.847 73.0043 153.989 79.4897 152.181 85.7388C149.661 94.5038 143.827 101.943 135.915 106.479ZM163.285 64.8879C163.487 66.1289 163.582 67.3849 163.571 68.6421C163.568 69.9706 163.488 71.2978 163.332 72.6171C163.091 74.8149 162.6 76.9779 161.867 79.0638C161.608 79.7936 161.289 80.5008 160.914 81.1781C160.713 81.5638 160.453 81.9153 160.142 82.2194C159.24 82.8655 158.207 83.3037 157.116 83.5027C156.573 83.6252 156.079 83.7021 155.726 83.7471C155.606 83.7626 155.509 83.7732 155.425 83.7819C156.761 78.1204 157.4 72.3167 157.327 66.5C157.327 64.243 157.245 62.0204 157.082 59.832C157.899 60.0084 158.7 60.2513 159.478 60.5583C160.131 60.8109 160.755 61.1318 161.341 61.5158C161.85 61.8383 162.287 62.2635 162.623 62.7643C162.964 63.4289 163.188 64.1472 163.285 64.8879V64.8879ZM161.462 56.5249C161.248 56.9612 160.962 57.3584 160.616 57.6997C160.478 57.8289 160.327 57.9434 160.166 58.0413C159.823 57.9124 159.491 57.7959 159.189 57.701C158.598 57.5141 157.998 57.361 157.39 57.2424C157.277 57.2295 157.163 57.2319 157.05 57.2498C157.114 56.4612 157.259 54.6765 157.457 52.2502C158.266 42.3196 159.944 21.8355 160.404 17.0767C160.416 16.2172 160.762 15.3961 161.369 14.7867C161.843 14.3919 162.446 14.1859 163.063 14.2082C163.194 14.2083 163.325 14.2157 163.455 14.2301C164.04 14.262 164.594 14.5044 165.013 14.9126C165.226 15.146 165.386 15.4225 165.482 15.7234C165.633 16.2005 165.704 16.6991 165.693 17.1993C165.693 17.3587 165.687 17.5278 165.676 17.7065C165.349 22.6889 163.821 40.5727 162.888 50.4363C162.792 52.5364 162.308 54.6006 161.462 56.5248V56.5249Z"/><path id="Vector_7" d="M57.1133 133.92C56.9164 133.637 56.6152 133.444 56.2758 133.383C55.9364 133.322 55.5868 133.398 55.3037 133.595C55.0207 133.792 54.8275 134.094 54.7665 134.433C54.7056 134.772 54.782 135.122 54.9789 135.405L55.2133 135.742C55.4102 136.025 55.7115 136.218 56.0508 136.279C56.3902 136.34 56.7399 136.264 57.0229 136.067C57.3059 135.87 57.4992 135.569 57.5601 135.229C57.621 134.89 57.5446 134.54 57.3477 134.257L57.1133 133.92Z"/></g></svg>