<svg xmlns="http://www.w3.org/2000/svg" width="24" height="24" fill="none"><g fill="#191C22"><path fill-rule="evenodd" d="M8.9 3.972a12.056 12.056 0 0 0 1.439 4.838 1.055 1.055 0 0 1-.313 1.366l-1.306.933a11.143 11.143 0 0 0 4.171 4.171l.933-1.306a1.056 1.056 0 0 1 1.366-.313 12.056 12.056 0 0 0 4.838 1.44A1.056 1.056 0 0 1 21 16.153v4.71a1.055 1.055 0 0 1-.948 1.05c-.56.058-1.123.087-1.69.087C9.325 22 2 14.674 2 5.639c0-.568.029-1.132.087-1.691A1.055 1.055 0 0 1 3.137 3h4.71a1.056 1.056 0 0 1 1.052.972Zm-2.101 6.714 2.09-1.493A13.517 13.517 0 0 1 7.479 4.46H3.506c-.03.39-.046.783-.046 1.179 0 8.229 6.672 14.9 14.901 14.9.396 0 .79-.014 1.179-.045v-3.972a13.517 13.517 0 0 1-4.733-1.412l-1.493 2.091-1.145-.652a12.603 12.603 0 0 1-4.718-4.718l-.652-1.145Z" clip-rule="evenodd"/><path d="M15.5 7.47V3.28H14v6.75h6.75v-1.5h-4.19l4.47-4.47L19.97 3 15.5 7.47Z"/></g></svg>