<svg width="24" height="24" fill="none" xmlns="http://www.w3.org/2000/svg"><g fill="#191C22"><path d="M20.773 16.384h-.002v-.002a.893.893 0 0 0-.566-.286h-.004a12.264 12.264 0 0 1-.54-.063 13.703 13.703 0 0 1-3.944-1.188.857.857 0 0 0-.575-.055.847.847 0 0 0-.477.327l-1.374 1.922a12.824 12.824 0 0 1-6.33-6.33l1.925-1.376v.001a.84.84 0 0 0 .272-1.047A13.711 13.711 0 0 1 7.966 4.34c-.019-.13-.04-.313-.063-.543A.886.886 0 0 0 7.021 3H3.438a1.394 1.394 0 0 0-1.39 1.296A16.16 16.16 0 0 0 2 5.406C2 14.572 9.428 22 18.592 22c.294 0 .663-.017 1.11-.048A1.395 1.395 0 0 0 21 20.562v-3.587c0-.22-.082-.43-.226-.59Z"/><path d="M15.5 7.47V3.28H14v6.75h6.75v-1.5h-4.19l4.47-4.47L19.97 3 15.5 7.47Z"/></g></svg>