<svg width="24" height="24" fill="none" xmlns="http://www.w3.org/2000/svg"><g fill="#191C22"><path d="M9.876 4.286 9.36 2.353A9.997 9.997 0 0 1 19.07 4.93c3.809 3.809 3.903 9.925.282 13.848h1.84v2H15.95v-5.243h2v1.814A8 8 0 0 0 9.876 4.286ZM4.65 5.219H2.809v-2H8.05V8.46h-2v-1.81a8 8 0 0 0 7.961 13.093l.518 1.933a9.996 9.996 0 0 1-9.6-2.606c-3.81-3.81-3.903-9.93-.278-13.852Z"/><path d="M8.55 16.11c-.13 0-.29-.008-.486-.022a.83.83 0 0 1-.778-.834v-1.508c0-.156.057-.305.16-.419h.001a.629.629 0 0 1 .397-.203 5.516 5.516 0 0 0 1.81-.503.61.61 0 0 1 .753.196l.456.637a5.15 5.15 0 0 0 2.268-2.268l-.64-.456a.606.606 0 0 1-.197-.75c.241-.504.402-1.04.483-1.591.006-.053.015-.126.024-.219a.625.625 0 0 1 .621-.561h1.509a.833.833 0 0 1 .834.778c.014.196.02.358.02.486 0 3.99-3.246 7.236-7.235 7.236Z"/></g></svg>