<svg width="24" height="24" viewBox="0 0 24 24" xmlns="http://www.w3.org/2000/svg"><g id="character=cat, state=filled"><g id="Layer"><path id="Vector" d="M7.56936 7.01471L2.03027 1.47552V7.01471V18.0931C2.03027 20.5403 4.0144 22.5244 6.46154 22.5244H17.5397C19.9869 22.5244 21.971 20.5403 21.971 18.0931V7.01471V1.47552L16.4319 7.01471H7.56936ZM7.01545 14.7695C6.0975 14.7695 5.35372 14.0258 5.35372 13.1078C5.35372 12.1898 6.0975 11.446 7.01545 11.446C7.9334 11.446 8.67717 12.1898 8.67717 13.1078C8.67717 14.0258 7.9334 14.7695 7.01545 14.7695ZM16.9858 14.7695C16.0679 14.7695 15.3241 14.0258 15.3241 13.1078C15.3241 12.1898 16.0679 11.446 16.9858 11.446C17.9037 11.446 18.6475 12.1898 18.6475 13.1078C18.6475 14.0258 17.9037 14.7695 16.9858 14.7695Z"/></g></g></svg>