<svg width="24" height="24" fill="none" xmlns="http://www.w3.org/2000/svg"><g clip-path="url(#a)"><path d="M19.001 9h-2.85c.218-.456.35-.96.35-1.5 0-1.394-.82-2.587-2-3.15V4a1.002 1.002 0 0 1 1-1h1V1h-1a3 3 0 0 0-3 3h-1a3 3 0 0 0-3-3h-1v2h1c.552.001.999.448 1 1v.35c-1.18.563-2 1.756-2 3.15 0 .54.132 1.044.35 1.5H5a4.5 4.5 0 1 0 1.625 8.695c.126 1.768 1.068 3.47 2.74 4.4a5.472 5.472 0 0 0 7.44-2.134c.396-.712.576-1.489.61-2.253a4.482 4.482 0 0 0 1.585.292 4.5 4.5 0 0 0 0-9ZM8.617 17.008c.038-.499.172-.993.417-1.449l.137-.208h5.66l.169.256c.206.418.35.905.404 1.4H8.617Zm1.873-3.657L12 11.058l1.511 2.293H10.49ZM11 6h2a1.502 1.502 0 0 1 1.5 1.5 1.502 1.502 0 0 1-1.5 1.5h-2a1.502 1.502 0 0 1-1.5-1.5 1.502 1.502 0 0 1 1.5-1.5Zm-8.5 7.5a2.503 2.503 0 0 1 2.5-2.5h4.643l-2.338 3.547c-.002.001-.002.003-.003.005l-.214.323A2.497 2.497 0 0 1 5.001 16a2.504 2.504 0 0 1-2.5-2.5Zm9.516 7.283c-.57 0-1.144-.14-1.68-.437a3.28 3.28 0 0 1-1.307-1.338h6.018a3.47 3.47 0 0 1-3.031 1.775ZM19 16a2.497 2.497 0 0 1-2.088-1.125l-.166-.25c-.004-.008-.006-.017-.01-.024l-.004.002L14.358 11H19a2.503 2.503 0 0 1 2.5 2.5 2.504 2.504 0 0 1-2.5 2.5Z" fill="#191C22"/></g><defs><clipPath id="a"><path fill="#fff" transform="translate(.001)" d="M0 0h24v24H0z"/></clipPath></defs></svg>