<svg width="24" height="24" fill="none" xmlns="http://www.w3.org/2000/svg"><path d="M19.275 5.95h-4.15V4.13c0-.55-.45-1-1-1H1.395c-.55 0-1 .45-1 1v12.8c0 .5.38.9.86.97v.02h.1c.01 0 .02.01.04.01h.84a3.445 3.445 0 0 0 3.4 2.94c1.73 0 3.15-1.28 3.4-2.94h5.71c.01 0 .02-.01.04-.01h.19c.27 1.64 1.68 2.9 3.4 2.9s3.13-1.26 3.4-2.9h1.83v-6.79l-4.33-5.18Zm-.94 2 2.07 2.48h-5.29V7.95h3.22Zm3.26 7.97h-.1a3.459 3.459 0 0 0-3.13-2.01c-1.39 0-2.58.82-3.13 2.01h-.13v-3.49h6.48v3.49h.01Zm-3.22 2.9c-.61 0-1.13-.37-1.34-.9a1.45 1.45 0 0 1 1.27-2c.02 0 .05-.01.07-.01.02 0 .05.01.07.01a1.45 1.45 0 0 1-.07 2.9ZM2.395 5.13h10.72v10.79h-4.38a3.437 3.437 0 0 0-3.1-1.96c-1.37 0-2.54.8-3.1 1.96h-.14V5.13Zm4.6 12.8c-.21.55-.74.94-1.36.94-.62 0-1.15-.39-1.36-.94v-.01c-.06-.16-.1-.33-.1-.51 0-.8.65-1.46 1.46-1.46.81 0 1.46.65 1.46 1.46-.01.18-.04.35-.1.52 0-.01 0-.01 0 0Z" fill="#191C22"/></svg>