<svg width="24" height="24" fill="none" xmlns="http://www.w3.org/2000/svg"><g fill="#191C22"><path d="M7.51 4h8v4h4v11.29l1.95 1.95.015-.056a.709.709 0 0 0 .035-.194V7l-5-5h-10c-.55 0-1 .44-1 .99v1.02h2V4Z"/><path fill-rule="evenodd" clip-rule="evenodd" d="m17.3 22 1.29 1.29L20 21.88l-7.13-7.13a5.97 5.97 0 0 0 1.07-4.23 6.004 6.004 0 0 0-2.08-3.83 6.04 6.04 0 0 0-4.13-1.41c-1.5.07-2.93.69-3.99 1.76A6.006 6.006 0 0 0 2 11.03a6.023 6.023 0 0 0 3.51 5.707v4.273c0 .26.11.51.29.7.19.19.44.29.7.29h10.8Zm-2-2H7.51v-2.742c1.4.116 2.795-.26 3.95-1.078l.01-.01L15.3 20Zm-7.32-4.71c-1.06 0-2.08-.42-2.83-1.17a4.004 4.004 0 0 1 0-5.66 4.004 4.004 0 0 1 5.66 0 4.004 4.004 0 0 1-2.83 6.83Z"/></g></svg>