<svg width="24" height="24" fill="none" xmlns="http://www.w3.org/2000/svg"><path fill-rule="evenodd" clip-rule="evenodd" d="M6.305 2.237 4.132 6l2.173 3.763h4.345L12.823 6 10.65 2.237H6.305Zm4.252-.162Zm.335 9.687-.056.001H6.118c-.599 0-1.153-.32-1.452-.838l-2.36-4.087c-.299-.518-.299-1.158 0-1.676l2.36-4.087c.3-.519.853-.838 1.452-.838h4.718c.6 0 1.153.32 1.453.838l2.148 3.721h4.775c.599 0 1.152.319 1.452.838l2.359 4.086c.3.519.3 1.158 0 1.677l-2.36 4.086c-.299.52-.852.839-1.451.839h-4.719c-.599 0-1.153-.32-1.452-.839l-2.149-3.72Zm1.615-1.204 2.173 3.764h4.345l2.173-3.763-2.173-3.764H14.68l-2.173 3.764ZM6.136 6.254a1 1 0 0 1 1.354.406l.694 1.288a1 1 0 0 1-1.76.948L5.73 7.608a1 1 0 0 1 .406-1.355Zm-1.284 8.022-2.173 3.763 2.173 3.763h4.345l2.173-3.763-2.173-3.763H4.852Zm-1.64-1.162c.3-.518.854-.838 1.453-.838h4.718c.6 0 1.153.32 1.453.838l2.359 4.087c.3.518.3 1.158 0 1.677l-2.36 4.086c-.299.519-.853.838-1.452.838H4.665c-.6 0-1.153-.32-1.452-.838l-2.36-4.087c-.299-.518-.299-1.158 0-1.676l2.36-4.087Z" fill="#191C22"/></svg>