<svg width="23" height="23" fill="none" xmlns="http://www.w3.org/2000/svg"><path d="M3.833 4.792v13.416h15.334V4.792H3.832Zm-.958-1.917h17.25a.958.958 0 0 1 .958.958v15.334a.958.958 0 0 1-.958.958H2.875a.958.958 0 0 1-.958-.958V3.833a.958.958 0 0 1 .958-.958ZM5.75 6.708h1.917v1.917H5.75V6.708Zm0 3.834h1.917v1.916H5.75v-1.916Zm0 3.833h11.5v1.917H5.75v-1.917Zm4.791-3.833h1.917v1.916h-1.917v-1.916Zm0-3.834h1.917v1.917h-1.917V6.708Zm4.792 0h1.917v1.917h-1.917V6.708Zm0 3.834h1.917v1.916h-1.917v-1.916Z" fill="#191C22"/></svg>