<svg width="24" height="24" viewBox="0 0 24 24" xmlns="http://www.w3.org/2000/svg"><g id="map-pin=outline"><path id="Vector" d="M11.9999 23L6.0624 17.0624C4.88808 15.8881 4.08836 14.3919 3.76437 12.7631C3.44038 11.1342 3.60667 9.44589 4.24222 7.91156C4.87776 6.37723 5.95402 5.06582 7.33488 4.14316C8.71575 3.2205 10.3392 2.72803 11.9999 2.72803C13.6607 2.72803 15.2842 3.2205 16.665 4.14316C18.0459 5.06582 19.1221 6.37723 19.7577 7.91156C20.3932 9.44589 20.5595 11.1342 20.2355 12.7631C19.9115 14.3919 19.1118 15.8881 17.9375 17.0624L11.9999 23ZM16.6183 15.7432C17.5316 14.8298 18.1535 13.6661 18.4054 12.3992C18.6574 11.1324 18.528 9.81924 18.0337 8.62591C17.5394 7.43258 16.7023 6.41262 15.6283 5.69502C14.5543 4.97742 13.2916 4.59441 11.9999 4.59441C10.7083 4.59441 9.44562 4.97742 8.37163 5.69502C7.29763 6.41262 6.46055 7.43258 5.96621 8.62591C5.47188 9.81924 5.34251 11.1324 5.59445 12.3992C5.8464 13.6661 6.46834 14.8298 7.38164 15.7432L11.9999 20.3615L16.6183 15.7432ZM11.9999 12.9909C11.5051 12.9909 11.0304 12.7943 10.6805 12.4443C10.3306 12.0944 10.134 11.6198 10.134 11.1249C10.134 10.63 10.3306 10.1554 10.6805 9.80542C11.0304 9.45549 11.5051 9.25889 11.9999 9.25889C12.4948 9.25889 12.9695 9.45549 13.3194 9.80542C13.6693 10.1554 13.8659 10.63 13.8659 11.1249C13.8659 11.6198 13.6693 12.0944 13.3194 12.4443C12.9695 12.7943 12.4948 12.9909 11.9999 12.9909Z"/></g></svg>