<svg width="24" height="24" fill="none" xmlns="http://www.w3.org/2000/svg"><g fill="#191C22"><path d="M10.5 20.707H3c-.263 0-.52-.107-.707-.293A1.006 1.006 0 0 1 2 19.707v-14c0-.263.107-.52.293-.707.186-.186.444-.293.707-.293h5.586L6.293 2.414 7.707 1l3.707 3.707h.172L15.293 1l1.414 1.414-2.293 2.293H20c.263 0 .52.107.707.293.186.186.293.444.293.707v1h-7.5a3 3 0 0 0-3 3v11Z"/><path fill-rule="evenodd" clip-rule="evenodd" d="M12.5 9.707a1 1 0 0 1 1-1h8a1 1 0 0 1 1 1v13a1 1 0 0 1-1 1h-8a1 1 0 0 1-1-1v-13Zm6 10a1 1 0 1 1-2 0 1 1 0 0 1 2 0Z"/></g></svg>