<svg width="24" height="24" fill="none" xmlns="http://www.w3.org/2000/svg"><g clip-path="url(#a)"><path fill-rule="evenodd" clip-rule="evenodd" d="M7.714 5.7v13.6h8.572V5.7H7.714ZM6.857 4h10.286a.86.86 0 0 1 .606.249c.16.16.251.376.251.601v15.3c0 .225-.09.442-.251.601a.86.86 0 0 1-.606.249H6.857a.86.86 0 0 1-.606-.249A.846.846 0 0 1 6 20.15V4.85c0-.225.09-.442.251-.601A.86.86 0 0 1 6.857 4ZM12 16.75c.227 0 .445.09.606.249a.847.847 0 0 1 0 1.202.861.861 0 0 1-1.212 0 .847.847 0 0 1 0-1.202.861.861 0 0 1 .606-.249ZM.909 9.267A6.191 6.191 0 0 0 0 12.5c0 1.142.314 2.261.909 3.233A6.111 6.111 0 0 0 3.366 18l.545-1.1a4.889 4.889 0 0 1-1.966-1.814 4.953 4.953 0 0 1-.727-2.586c0-.914.252-1.81.727-2.586A4.889 4.889 0 0 1 3.911 8.1L3.366 7A6.111 6.111 0 0 0 .909 9.267ZM2.98 10.56a3.715 3.715 0 0 0 0 3.88 3.667 3.667 0 0 0 1.474 1.36L5 14.7a2.445 2.445 0 0 1-.983-.907 2.477 2.477 0 0 1 0-2.586c.238-.389.578-.703.983-.907l-.545-1.1a3.667 3.667 0 0 0-1.474 1.36ZM24 12.5a6.192 6.192 0 0 1-.909 3.233A6.112 6.112 0 0 1 20.634 18l-.545-1.1a4.889 4.889 0 0 0 1.966-1.814 4.953 4.953 0 0 0 .727-2.586c0-.913-.252-1.809-.727-2.586A4.889 4.889 0 0 0 20.089 8.1l.545-1.1a6.111 6.111 0 0 1 2.457 2.267A6.19 6.19 0 0 1 24 12.5Zm-2.436 0c0 .685-.188 1.357-.545 1.94a3.668 3.668 0 0 1-1.474 1.36L19 14.7c.405-.204.745-.518.983-.907a2.477 2.477 0 0 0 0-2.586A2.445 2.445 0 0 0 19 10.3l.545-1.1a3.667 3.667 0 0 1 1.474 1.36c.357.584.545 1.255.545 1.94Z" fill="#191C22"/></g><defs><clipPath id="a"><path fill="#fff" d="M0 0h24v24H0z"/></clipPath></defs></svg>