<svg width="24" height="24" fill="none" xmlns="http://www.w3.org/2000/svg"><g fill="#191C22"><path d="M4 18.707v-12h17v-1c0-.263-.107-.52-.293-.707A1.007 1.007 0 0 0 20 4.707h-5.586l2.293-2.293L15.293 1l-3.707 3.707h-.172L7.707 1 6.293 2.414l2.293 2.293H3c-.263 0-.52.107-.707.293A1.007 1.007 0 0 0 2 5.707v14c0 .264.107.521.293.707.186.186.444.293.707.293h7v-2H4ZM17 20.707a1 1 0 1 0 0-2 1 1 0 0 0 0 2Z"/><path fill-rule="evenodd" clip-rule="evenodd" d="M13 8.707a1 1 0 0 0-1 1v13a1 1 0 0 0 1 1h8a1 1 0 0 0 1-1v-13a1 1 0 0 0-1-1h-8Zm1 2v11h6v-11h-6Z"/></g></svg>