<svg width="24" height="23" fill="none" xmlns="http://www.w3.org/2000/svg"><path d="M18 9.583a5.63 5.63 0 0 0-1.757-4.065A6.135 6.135 0 0 0 12 3.833a6.135 6.135 0 0 0-4.243 1.685A5.631 5.631 0 0 0 6 9.583v7.667h12V9.583Zm2 8.306.4.511a.468.468 0 0 1 .047.502.487.487 0 0 1-.184.193.516.516 0 0 1-.263.072H4a.516.516 0 0 1-.263-.072.487.487 0 0 1-.184-.193.462.462 0 0 1 .047-.502l.4-.51V9.582c0-2.033.843-3.983 2.343-5.42C7.843 2.723 9.878 1.916 12 1.916s4.157.807 5.657 2.245C19.157 5.6 20 7.55 20 9.583v8.306ZM9.5 20.125h5c0 .636-.263 1.245-.732 1.694a2.556 2.556 0 0 1-1.768.702 2.556 2.556 0 0 1-1.768-.702 2.346 2.346 0 0 1-.732-1.694Z" fill="#191C22"/></svg>