<svg xmlns="http://www.w3.org/2000/svg" width="24" height="24" viewBox="0 0 24 24" fill="none"><rect width="24" height="24" fill="none"/>
<path d="M19.0953 3H4.90483C4.85443 3 4.82923 3 4.80997 3.00981C4.79304 3.01844 4.77927 3.03221 4.77064 3.04914C4.76083 3.06839 4.76083 3.0936 4.76083 3.144V20.856C4.76083 20.9064 4.76083 20.9316 4.77064 20.9509C4.77927 20.9678 4.79304 20.9816 4.80997 20.9902C4.82923 21 4.85443 21 4.90483 21H19.0953C19.1457 21 19.1709 21 19.1901 20.9902C19.2071 20.9816 19.2208 20.9678 19.2294 20.9509C19.2393 20.9316 19.2393 20.9064 19.2393 20.856V3.144C19.2393 3.0936 19.2393 3.06839 19.2294 3.04914C19.2208 3.03221 19.2071 3.01844 19.1901 3.00981C19.1709 3 19.1457 3 19.0953 3Z" stroke="black" stroke-width="2"/>
<circle cx="12" cy="9.62855" r="3.37147" stroke="black" stroke-width="2"/>
<path d="M9.36952 17H14.6305" stroke="black" stroke-width="2"/>
</svg>
