<svg xmlns="http://www.w3.org/2000/svg" width="24" height="24" fill="none"><g clip-path="url(#a)"><g fill="#191C22" fill-rule="evenodd" clip-path="url(#b)" clip-rule="evenodd"><path d="M12 11a3.5 3.5 0 1 0 0-7 3.5 3.5 0 0 0 0 7Zm0 2a5.5 5.5 0 1 0 0-11 5.5 5.5 0 0 0 0 11ZM6.5 21.5a5.5 5.5 0 0 1 7.5-5.125V14.27a7.5 7.5 0 0 0-9.5 7.23h2ZM21.207 17.207 16.5 21.914l-3.207-3.207 1.414-1.414 1.793 1.793 3.293-3.293 1.414 1.414Z"/></g></g><defs><clipPath id="a"><path fill="#fff" d="M0 0h24v24H0z"/></clipPath><clipPath id="b"><path fill="#fff" d="M0 0h24v24H0z"/></clipPath></defs></svg>