<svg width="23" height="23" fill="none" xmlns="http://www.w3.org/2000/svg"><path d="M15.333 16.292v-.959h-2.875v-2.875h2.875v1.917h1.917v1.917h-.958v1.916h-1.917v1.917h-1.917V17.25h1.917v-.958h.958Zm4.792 3.833h-3.833v-1.917h1.916v-1.916h1.917v3.833ZM2.875 2.875h7.667v7.667H2.875V2.875Zm1.917 1.917v3.833h3.833V4.792H4.792Zm7.666-1.917h7.667v7.667h-7.667V2.875Zm1.917 1.917v3.833h3.833V4.792h-3.833Zm-11.5 7.666h7.667v7.667H2.875v-7.667Zm1.917 1.917v3.833h3.833v-3.833H4.792Zm12.458-1.917h2.875v1.917H17.25v-1.917ZM5.75 5.75h1.917v1.917H5.75V5.75Zm0 9.583h1.917v1.917H5.75v-1.917Zm9.583-9.583h1.917v1.917h-1.917V5.75Z" fill="#191C22"/></svg>