<svg width="24" height="24" fill="none" xmlns="http://www.w3.org/2000/svg"><path fill-rule="evenodd" clip-rule="evenodd" d="M20.311 3a.689.689 0 0 0-.487.202l-4.726 4.726L4.706 5.582l-.238.237 8.381 4.358-5.648 5.648-3.234-.924 3.136 1.996 1.995 3.135-.924-3.232 5.649-5.648 4.358 8.38.237-.238-2.346-10.392L20.8 4.176A.69.69 0 0 0 20.31 3ZM18.41 1.788a2.689 2.689 0 0 1 3.803 3.802l-3.947 3.947 2.346 10.392-2.947 2.947-4.358-8.38-2.886 2.886 1.062 3.715-2.492 2.492-3.336-5.243-5.243-3.337 2.491-2.492L6.62 13.58l2.886-2.887-8.38-4.357L4.07 3.388l10.392 2.346 3.947-3.946Z" fill="#191C22"/></svg>