<svg width="24" height="24" fill="none" xmlns="http://www.w3.org/2000/svg"><g clip-path="url(#a)"><path d="m4.205 15.32 4.953 4.953a6.523 6.523 0 0 1-4.953 0 6.523 6.523 0 0 1 0-4.952Zm10.393 3.046-.19 3.018-1.362 1.363L1.732 11.433l1.362-1.363 3.018-.19 4.105-4.104c2.463-2.463 6.33-2.788 9.578-1.092 1.695 3.248 1.37 7.115-1.093 9.578l-4.104 4.104Zm-1.553-6.933a2 2 0 1 0 2.829-2.828 2 2 0 0 0-2.829 2.828Z" fill="#191C22"/></g><defs><clipPath id="a"><path fill="#fff" d="M0 0h24v24H0z"/></clipPath></defs></svg>