<svg width="24" height="24" fill="none" xmlns="http://www.w3.org/2000/svg"><path d="M5.336 4.41a9.99 9.99 0 0 1 3.542-2.048A3.993 3.993 0 0 0 12 3.864a3.993 3.993 0 0 0 3.125-1.502 9.99 9.99 0 0 1 3.542 2.048 3.992 3.992 0 0 0 .262 3.454 3.993 3.993 0 0 0 2.863 1.955c.28 1.349.28 2.741 0 4.09a3.996 3.996 0 0 0-3.389 3.653 3.995 3.995 0 0 0 .264 1.757 9.991 9.991 0 0 1-3.542 2.047 3.993 3.993 0 0 0-3.124-1.5 3.994 3.994 0 0 0-3.124 1.501 9.991 9.991 0 0 1-3.542-2.047 3.993 3.993 0 0 0-.262-3.455 3.993 3.993 0 0 0-2.863-1.954c-.281-1.35-.281-2.742 0-4.09a3.993 3.993 0 0 0 2.863-1.956 3.993 3.993 0 0 0 .262-3.454Zm8.166 10.052a3 3 0 1 0-2.966-5.215 3 3 0 0 0 2.966 5.215Z" fill="#191C22"/></svg>