<svg xmlns="http://www.w3.org/2000/svg" width="377" height="385" fill="none"><g clip-path="url(#a)"><path fill="#fff" d="M32.668 385c1.134-12.044 2.613-26.998 4.727-38.902-5.333 1.918-10.706 3.64-16.457 2.829-5.323-.751-10.11-3.572-13.4-7.813-8.065-10.392-6.228-25.361-1.738-36.826a63.69 63.69 0 0 1 4.998-10.03 64.5 64.5 0 0 1 2.903-4.339c1.01-1.384 2.441-2.681 3.296-4.149.299-.512.259-.247.236-.796-.02-.488-.314-1.115-.435-1.574a56.633 56.633 0 0 1-1.274-6.341c-.57-3.978-.751-8.007-.606-12.022.295-8.174 1.855-16.487 5.102-24.021 1.461-3.391 3.382-6.464 5.553-9.444.28-.385 1.41-1.457 1.397-1.897-.01-.365-1.438-1.248-1.778-1.604-5.29-5.545-5.923-16.715 1.166-21.161 3.535-2.218 7.953-1.796 11.371.409 2.554 1.646 4.099 3.996 5.574 6.569 10.553-7.125 22.02-11.844 34.734-13.292.56-.064 1.388.034 1.623-.39.374-.673.182-2.481.318-3.219.186-1.014.298-1.09-.175-1.945-.812-1.466-1.236-3.41-1.515-5.054-.563-3.316-.435-6.803-.087-10.135.08-.769.18-1.536.308-2.298.11-.646-.009-.665.441-.79.654-.181 1.909.219 2.58.287.769.076.51.168.757-.403.32-.744.372-1.777.538-2.566l.973-4.638c-1.164-.184-2.333-.349-3.489-.577-.18-.036-.802-.088-.964-.208-.429-.315-.473-1.07-.609-1.648a112.325 112.325 0 0 1-.81-3.739c-.717-3.599-1.202-7.226-1.632-10.867-6.687 1.807-15.416 4.552-21.778.437-1.579-1.022-2.801-2.479-3.633-4.159-.446-.9-.78-1.853-1.026-2.826-.115-.458-.136-1.266-.422-1.614-.332-.404-1.222-.68-1.65-.98a9.012 9.012 0 0 1-2.246-2.237c-1.2-1.734-1.67-3.856-1.383-5.939.602-4.371 4.325-7.672 7.577-10.291 3.8-3.061 8.076-5.627 12.634-7.383 2.025-.78 4.122-1.401 6.267-1.743.55-.088 1.4.019 1.636-.401.189-.338.092-1.108.124-1.498.044-.526.217-1.195.143-1.715-.016-.117.097-.359.038-.459-.113-.192-.944-.309-1.232-.389a67.93 67.93 0 0 1-6.767-2.244c-7.556-2.969-14.435-7.549-19.425-14.021-2.407-3.12-4.333-6.593-5.78-10.255-.632-1.601-1.144-3.234-1.618-4.887-.104-.36-.122-.688-.394-.856-.392-.243-1.294-.217-1.764-.416-3.316-1.405-5.927-3.103-7.12-6.546-1.554-4.483-2.148-9.578-1.74-14.298.279-3.216.862-6.6 3.452-8.714.453-.37.507-.366.565-.89.09-.81.091-1.646.199-2.471.307-2.363.6-4.728.913-7.09 1.08-8.13 2.046-16.697 5.196-24.344.776-1.883 3.614-9.76 6.598-8.538 1.867.764 2.402 3.696 2.8 5.383.42 1.774.775 3.562 1.134 5.348l.574 2.858c4.857-4.39 9.877-8.149 15.935-10.773 7.547-3.27 15.726-4.93 23.878-5.77a138.401 138.401 0 0 1 27.399-.076c7.726.747 15.457 2.227 22.711 5.046 3.595 1.396 7.067 3.131 10.272 5.283 2.651 1.78 5.002 3.902 7.379 6.02.261-1.295.52-2.59.783-3.885.531-2.617.805-5.94 2.388-8.175.745-1.05 1.65-1.804 2.879-1.013 1.028.661 1.757 1.845 2.377 2.872 1.408 2.33 2.52 4.904 3.416 7.472 1.775 5.092 2.662 10.51 3.487 15.821.521 3.354.966 6.72 1.397 10.086.189 1.477.375 2.954.569 4.43.111.843.053 1.78.601 2.394.384.43.962.724 1.323 1.168.838 1.03 1.234 2.477 1.548 3.742.805 3.25.864 6.659.533 9.976-.298 2.989-.818 6.07-1.931 8.873-.931 2.344-2.467 3.428-4.619 4.659a22.1 22.1 0 0 1-3.177 1.505c-.859.325-.798.617-1.051 1.48-.913 3.109-2.098 6.138-3.624 8.998-2.933 5.496-7.14 10.223-12.218 13.826-8.79 6.237-19.083 8.507-29.425 10.663 2.452.928 4.934 1.796 7.357 2.798 2.758 1.141 5.351 2.707 7.37 4.933.793.875 1.468 1.831 2.078 2.839.19.315.607 1.379.913 1.452.393.094 1.346-.589 1.764-.749 1.478-.565 3.035-.768 4.613-.735 2.722.058 5.415.721 7.978 1.603 6.205 2.137 12.157 5.602 17.137 9.873 2.034 1.746 4.365 3.834 5.293 6.425.196.549.253 1.85.615 2.311.31.394.946.269 1.526.315 6.32.504 11.628 5.305 15.715 9.773 1.067 1.166 2.162 2.355 3.005 3.698.702 1.118.853 1.84 1.907 2.575a34.492 34.492 0 0 1 2.214 1.684c.61.5.489.457 1.166.345.722-.121 1.473-.484 2.169-.713.564-.184 1.597-.757 2.198-.721.639.039 1.045 1.27 1.401 1.876l1.489 2.534c.302.515.61 1.378 1.049 1.786.436.405 1.347.433 1.943.559 1.813.385 3.622.785 5.422 1.222 6.002 1.453 11.736 3.412 17.327 6.027.241-.609.463-1.229.724-1.829.338-.779 1.127-1.354 1.43-2.068.346-.815.45-1.843.822-2.714.501-1.176 1.103-2.295 1.881-3.31.529-.691.77-.699.461-1.475-.452-1.133-.969-2.197-1.256-3.396-.796-3.322-.397-6.838.95-9.963.573.645 1.275 1.24 1.8 1.923.479.621.321.282.269.98-.082 1.109-.398 2.164-.426 3.291a12.017 12.017 0 0 0 .847 4.734c.238.596.607 1.739 1.172 1.97.788.322 1.993.115 2.84.341 1.41.376 3.004 1.144 3.773 2.447 1.381 2.34.952 6.051.686 8.614-.286 2.766-.689 6.12-2.515 8.349-.284.347-1.365 1.122-1.402 1.519-.028.302.751 1.067.953 1.338 3.772 5.054 6.084 10.921 7.324 17.077.639 3.171 1 6.388 1.188 9.615.043.75.242.891.781 1.423a1423.89 1423.89 0 0 0 10.459 10.214c.553.533 1.393 1.714 2.123 2.041.465.207.916-.117 1.462-.219 1.598-.298 3.33-.277 4.948-.366 3.267-.178 6.539-.254 9.811-.231 6.749.046 13.508.49 20.176 1.548a96.786 96.786 0 0 1 9.415 1.974c.918.241 1.142.569 1.624-.217.552-.901 1.088-1.794 1.69-2.667 3.827-5.557 7.886-11.487 12.935-16.009 6.751 19.819 10.964 40.629 14.558 61.211.92 5.264 1.77 10.54 2.561 15.825a711.872 711.872 0 0 1 2.647 19.556c.056.459.005 1.364.218 1.814.139.291.537.509.798.728 5.613 4.711 9.724 11.441 11.177 18.631.796 3.936.853 8.232-1 11.895a12.736 12.736 0 0 1-2.968 3.812c-1.127.988-2.634 1.453-3.741 2.389-.434.369-.338.193-.316.853.027.767.125 1.539.185 2.304a1023.988 1023.988 0 0 1 1.341 18.984c.277 4.532.53 11.967.714 16.504H32.668Zm171.009-106.306c-.192.911-.389 1.82-.588 2.73-.08.363-.369.975-.291 1.322.122.544 1.71 1 2.288 1.277a57.697 57.697 0 0 1 10.528 6.471 54.223 54.223 0 0 1 4.484 3.893c.776.754 1.764 2.304 2.758 2.697 1.305.517 3.346-.048 4.48-.715 1.607-.947 2.619-2.617 3.132-4.374 1.514.896 2.944 1.942 4.393 2.938a1425.197 1425.197 0 0 1 3.243-23.912c-5.467 2.418-10.898 4.382-16.844 5.295-4.13.634-8.317.892-12.494.864a109.258 109.258 0 0 1-3.083-.072c-.363-.013-.947-.141-1.294-.047-.504.137-.184-.112-.439.343-.179.321-.196.927-.273 1.29Zm-63.753-104.591c-.306 3.099-.804 6.176-1.289 9.252l2.876.318c.877.097 1.491.408 2.072-.177 1.04-1.046 1.801-2.426 2.824-3.516a31.754 31.754 0 0 1 4.282-3.785c6.057-4.475 13.172-6.655 20.406-8.364-1.678-3.183-3.389-6.376-4.058-9.954-.087-.471-.087-3.023-.417-3.3-.232-.196-1.134-.084-1.469-.113a16.92 16.92 0 0 1-3.126-.559c-7.22-2.029-13.047-6.18-18.815-10.768.607 5.707 1.155 11.407 1.348 17.147.108 3.243.145 6.491.065 9.736-.012.483.158 1.766-.08 2.196-.321.581-1.469.29-2.145.143-.753-.164-1.499-.374-2.246-.56l-.228 2.304Zm172.615 22.582c-4.741 0-7.831-4.209-7.837-8.666-.002-2.07.391-4.786 1.789-6.402.263-.305.741-.593.873-.951.159-.431.097-1.108.232-1.578a20.71 20.71 0 0 1 2.123-4.876c.374-.63.337-.46.004-1.029-.369-.631-.92-1.159-1.295-1.796-.972-1.652-1.35-3.466-1.405-5.363-.009-.314-.181-1.11-.026-1.385.194-.344 1.407-.759 1.769-.967a45.7 45.7 0 0 0 1.725-1.045c-.559 2.159-.763 4.538.194 6.618.416.903 1.376 2.576 2.416 2.735.576.087 1.22-.079 1.811-.009a8.192 8.192 0 0 1 2.686.815c1.799.899 2.878 2.161 3.402 4.09 1.848 6.805 1.191 19.797-8.461 19.809ZM220.386 74.669c-4.52-4.201-9.558-9.355-11.5-15.369-.805-2.493-.847-5.328 1.267-7.199 2.313-2.047 5.401-1.723 8.031-.512 2.875 1.324 5.339 3.502 7.488 5.789.46.49 2.442 2.223 2.432 2.865-.011.673-1.034 1.933-1.344 2.511l-2.427 4.537-3.947 7.378Zm-9.353 31.657c-1.199 1.577-2.935 3.213-4.819 1.454-.586-.547-.758-.779-1.518-1.064-1.042-.39-1.969-.974-2.978-1.415-.663-.289-1.079-.117-1.819-.007-1.242.185-2.912.457-4.122-.014-1.56-.607-.618-2.386-.279-3.558-.706-.164-1.566-.226-2.214-.554-1.943-.985.012-1.994.195-3.138.134-.843-1.019-1.233-.564-2.323.658-1.576 2.869-2.034 4.36-2.185 2.097-.213 3.891.245 5.81 1.013 1.11.444 2.323.457 3.429 1.052 1.394.75 2.113 1.836 3.068 3.03.752.94 1.964 1.126 2.46 2.449.268.714.596 1.941.411 2.654-.227.872-.985 1.808-1.42 2.606Zm115.161-13.427c3.481-3.653 6.91-7.276 11.022-10.25 3.254-2.354 6.79-4.41 10.562-5.815 3.129-1.166 6.972-2.168 10.257-1.044 3.776 1.291 5.037 5.423 3.029 8.753-1.79 2.967-4.905 5.103-7.827 6.842-5.59 3.33-11.724 5.427-17.917 7.308-1.456.442-2.72 1.019-4.23.883l-5.837-.526.941-6.15ZM338.942 138.862c.285 2.123 1.338 4.381 3.469 5.175 1.49.554 3.091.788 4.587 1.359 2.396.915 3.758 2.965 5.823 4.372.811.553 1.827 1.074 2.608.192.776-.875.339-2.1-.3-2.91 1.262.288 2.967.256 3.688-1.006.873-1.525-.152-3.289-1.438-4.182 2.25-.675.135-3.667-.721-4.58-1.944-2.072-4.745-4.089-7.645-4.395-2.824-.298-6.025.707-8.556 1.919-1.561.747-1.733 2.44-1.515 4.056Z"/><path fill="#FFE069" d="M328.817 141.675c3.875-9.062 3.5-13.687 3.5-14 0-.312-.562-18.437-3.125-22.5-2.562-4.062-3.687-5.687-3.687-5.687s2.75-10.313.312-22.563c-2.437-12.25-10.187-24-21.437-29.687-11.25-5.688-40.688-9.063-54.875-3.375-14.188 5.687-19.438 11.562-24.125 19.437-4.688 7.875-6.375 22.813-4.875 32.688 1.5 9.875 9.437 23.437 9.437 23.437s-.875 12 5.125 24 19 19.813 36.375 24.063 32.5-.875 43.063-8.25c10.562-7.375 14.312-17.563 14.312-17.563ZM78.421 30.967c-22.179 12.814-8 54.333 24.334 57.666 32.333 3.334 46-43.666 33.333-55C123.421 22.3 93.421 22.3 78.421 30.967Z"/><path fill="#191C22" d="M293.734 99.905c5.142.034 6.803-15.127-.237-15.127-6.961 0-5.451 15.09.237 15.127ZM252.876 99.895c4.858.294 5.811-15.38-.847-15.105-6.585.271-5.163 14.74.847 15.105ZM264.647 103.479c1.147 1.462 2.49 2.503 3.904 3.163 1.415.661 2.893.941 4.313.941a11.775 11.775 0 0 0 5.429-1.361c1.562-.832 2.831-1.933 3.568-3.258a1.299 1.299 0 1 0-2.28-1.25c-.376.705-1.287 1.575-2.501 2.208-1.212.641-2.707 1.063-4.216 1.061a7.55 7.55 0 0 1-3.212-.697c-1.042-.488-2.045-1.25-2.961-2.413a1.299 1.299 0 1 0-2.044 1.606ZM156.828 54.914c-.006-22.352-9.026-41.07-51.792-42.535-42.767-1.466-55.246 17.645-56.281 39.989-1.035 22.344 9.954 39.468 52.533 40.927 42.579 1.46 55.546-14.998 55.54-38.38ZM139.082 79.94c2.545-1.622 4.726-4.436 4.939-4.733l.019-.025a1.3 1.3 0 1 1 2.098 1.536c-.054.058-2.395 3.303-5.651 5.41a1.3 1.3 0 0 1-1.405-2.188ZM115.63 38.924c.755-2.08 1.895-3.902 3.552-5.085a6.65 6.65 0 0 1 3.902-1.249c.206 0 .413.01.622.027 1.653.138 3.139.779 4.371 1.739 1.237.96 2.236 2.227 3.028 3.66 1.577 2.873 2.357 6.43 2.361 9.878-.001 2.297-.35 4.547-1.104 6.522-.755 1.968-1.931 3.69-3.643 4.778-1.137.723-2.502 1.132-3.999 1.129-.2 0-.402-.007-.607-.021a8.347 8.347 0 0 1-4.384-1.59c-1.236-.899-2.221-2.1-2.988-3.462-1.53-2.73-2.228-6.123-2.233-9.458.002-2.404.369-4.78 1.122-6.868Zm-51.9-9.468a25.077 25.077 0 0 0-2.546 3.127 1.3 1.3 0 0 1-2.142-1.474 27.676 27.676 0 0 1 2.808-3.45 1.3 1.3 0 1 1 1.88 1.797Zm4.34-4.88a1.3 1.3 0 0 1 .45-1.782c3.924-2.343 8.74-4.207 14.596-5.519a1.3 1.3 0 0 1 .568 2.538c-5.642 1.263-10.191 3.04-13.832 5.213a1.3 1.3 0 0 1-1.782-.45Zm19.1 35.471a8.437 8.437 0 0 1-4.636 1.349 9.53 9.53 0 0 1-.663-.023c-1.608-.108-3.046-.614-4.246-1.42-1.203-.803-2.164-1.89-2.904-3.135-1.478-2.493-2.118-5.61-2.122-8.772.001-2.723.483-5.485 1.419-7.927.938-2.437 2.327-4.578 4.259-5.966 1.283-.922 2.83-1.481 4.516-1.478.222 0 .447.01.673.03 1.604.132 3.045.699 4.244 1.57 1.203.87 2.169 2.03 2.924 3.35 1.507 2.644 2.206 5.94 2.21 9.241 0 2.62-.447 5.246-1.365 7.56-.92 2.31-2.322 4.336-4.309 5.621Zm7.022 19.27c-1.682-2.476-2.051-4.83-2.074-4.94a1.301 1.301 0 0 1 1.052-1.483c3.276-.594 6.653-.794 9.755-.794 6.83 0 12.337.972 12.383.98.342.06.643.25.841.536.199.284.275.632.213.974-.015.08-.26 1.423-1.09 3.125-.829 1.697-2.261 3.783-4.688 5.196-1.613.941-3.656 1.555-6.126 1.552-.119 0-.239-.002-.361-.004-2.535-.057-4.61-.709-6.243-1.677-1.635-.966-2.82-2.23-3.662-3.465ZM70.624 217.175c-3.75 2-6.875 9.75-5.125 23s9.875 19.75 18.5 19.125c8.51-.617 14.125-7 13.25-21-.819-13.099-15.963-26.811-26.625-21.125Zm14.625 28.208c-.522 1.789-2.083 2.5-5.75 3-3.666.5-6.802 1.2-7.833-1-1.25-2.666 1.083-7.75 4.167-8.333 2.446-.462 4.47.044 6.011.96-1.23.21-2.178 1.447-2.178 2.957 0 1.656 1.138 3 2.542 3 1.39 0 2.517-1.321 2.538-2.957.487.921.672 1.796.503 2.373ZM67.06 258.674a1.3 1.3 0 0 0-1.687.731c-.806 2.026-2.213 3.314-3.937 4.166-.873.429-1.827.727-2.791.918-.083-.04-.155-.094-.248-.117-.305-.069-1.094-.459-1.875-1.467-.663-.848-1.348-2.144-1.829-4.047 3.55-1.307 5.852-6.823 4.89-9.391-1.25-3.334-12.75-2.5-13.25 1.833-.29 2.501 2.627 6.724 5.712 7.655.553 2.48 1.44 4.289 2.43 5.552.055.07.11.13.165.196-1.036-.094-1.926-.297-2.492-.527a1.3 1.3 0 0 0-.966 2.414c1.23.486 2.86.765 4.702.769 2.123-.002 4.511-.388 6.695-1.453 2.178-1.058 4.157-2.858 5.212-5.545a1.3 1.3 0 0 0-.731-1.687ZM329.496 267.294c.118.032.221.046.343.046.574-.009.979-.237 1.301-.478.479-.376.825-.858 1.095-1.432a4.735 4.735 0 0 0 .44-1.976c.013-1.102-.451-2.354-1.498-3.318-.073-.106-.186-.271-.323-.463a14.673 14.673 0 0 0-.364-.49 5.185 5.185 0 0 0-.406-.474 1.346 1.346 0 0 0-.333-.242 1.44 1.44 0 0 0-.649-.154c-.255 0-.463.064-.62.135a1.87 1.87 0 0 0-.593.436 3.655 3.655 0 0 0-.553.808 7.681 7.681 0 0 0-.836 3.406c.002.803.149 1.669.627 2.466.472.799 1.316 1.454 2.369 1.73ZM306.373 276.509c.606 2.108 1.401 3.771 2.398 4.976.527.634 1.114 1.146 1.767 1.505.65.36 1.372.56 2.101.558a4.41 4.41 0 0 0 2.174-.593c1.011-.572 1.869-1.486 2.604-2.675.653-1.061 1.205-2.363 1.656-3.883 1.158-.062 2.389-.405 3.625-1.135a1.299 1.299 0 1 0-1.318-2.241c-1.021.598-1.896.8-2.687.803-.751-.001-1.446-.192-2.093-.501-.968-.461-1.809-1.2-2.386-1.828a10.046 10.046 0 0 1-.824-1.023l-.037-.054-.006-.01a1.298 1.298 0 0 0-2.244.085h-.001c-.02.043-.541.967-1.481 1.823a6.592 6.592 0 0 1-1.694 1.141 5.366 5.366 0 0 1-2.262.493c-.63 0-1.329-.103-2.118-.366a1.3 1.3 0 1 0-.822 2.467c1.035.345 2.021.5 2.94.499.243.001.476-.02.708-.041Zm2.728-.731c1.459-.691 2.508-1.691 3.208-2.514.241.26.518.538.831.819a10.05 10.05 0 0 0 2.337 1.585c.307.147.637.272.977.383-.528 1.639-1.172 2.886-1.822 3.672-.383.465-.759.778-1.094.966-.337.188-.625.258-.899.259a1.732 1.732 0 0 1-.848-.236c-.467-.254-1.023-.777-1.559-1.643-.49-.789-.954-1.867-1.342-3.204.069-.03.144-.055.211-.087ZM294.401 261.441c-.973-.381-2.759-1.027-4.831-1.032-1.561-.004-3.334.394-4.879 1.622a1.301 1.301 0 0 0 1.616 2.037c1-.789 2.11-1.054 3.263-1.059 1.059-.001 2.119.246 2.947.515.414.134.77.271 1.049.383l.367.149c.117.044.179.077.375.13a1.3 1.3 0 0 0 1.577-.945 1.293 1.293 0 0 0-.891-1.552l.003-.009c-.028-.008-.282-.114-.596-.239Z"/><path fill="#191C22" d="M376.191 275.029c-9.366-2.019-20.718-2.558-27.901-2.687a667.867 667.867 0 0 0-.683-3.88c5.026-.788 11.989-1.65 18.395-1.647 2.497-.001 4.905.13 7.064.439a1.3 1.3 0 1 0 .368-2.574c-2.324-.332-4.845-.465-7.432-.466-6.647.003-13.75.884-18.855 1.688-6.82-37.167-13.986-56.984-14.008-57.044a1.303 1.303 0 0 0-.867-.809 1.304 1.304 0 0 0-1.163.232c-1.461 1.162-3.105 2.895-4.809 4.875-2.55 2.967-5.198 6.476-7.219 9.277-1.01 1.4-1.862 2.622-2.466 3.51-.302.445-.541.805-.712 1.07a13.01 13.01 0 0 0-.209.335l-.031.056c-10.798-2.851-22.295-3.54-31.004-3.543-8.391 0-14.185.643-14.22.647-.077.009-.141.047-.214.069-3.914-3.754-8.351-8.1-12.066-11.766-.427-7.614-1.836-13.958-4.056-19.238a38.893 38.893 0 0 0-4.824-8.43 8.939 8.939 0 0 0 1.545-2.26c.61-1.292 1.078-3.037 1.427-4.999.344-1.958.55-4.11.55-6.131 0-1.409-.099-2.751-.339-3.941-.249-1.188-.607-2.241-1.331-3.082-.906-1.026-2.084-1.764-3.35-2.258a11.029 11.029 0 0 0-3.431-.72 9.864 9.864 0 0 1-1.055-4.488c.001-.588.057-1.193.162-1.809 5.747 5.128 12.945 9.292 21.509 12.053 6.624 2.136 13.062 3.144 19.172 3.144 7.561.001 14.616-1.547 20.889-4.391.024 1.268.207 2.497.569 3.652a12.08 12.08 0 0 0 2.055 3.868c-.788 1.327-1.34 2.758-1.708 3.881a22.36 22.36 0 0 0-.561 1.996c-.018.079-.002.154-.004.231a6.847 6.847 0 0 0-1.762 2.834c-.621 1.879-.913 3.652-.913 5.294-.001 2.404.631 4.527 1.74 6.229a9.794 9.794 0 0 0 4.495 3.724 9.405 9.405 0 0 0 3.604.715c2.115-.002 4.137-.694 5.831-1.83 1.694-1.139 3.076-2.727 3.892-4.592.493-1.134.828-2.542 1.063-4.119.231-1.575.35-3.309.351-5.039-.001-2.001-.159-3.99-.509-5.724a13.647 13.647 0 0 0-.69-2.395c-.294-.722-.65-1.368-1.152-1.905-1.905-2.001-4.625-3.152-7.27-3.164-.159 0-.316.023-.475.032a6.06 6.06 0 0 1-.594-.705 4.983 4.983 0 0 1-.713-1.422 6.096 6.096 0 0 1-.258-1.833c-.001-1.064.218-2.427.787-4.121.011-.035-.003-.054.002-.084.152-.109.308-.212.459-.322 7.115-5.192 12.678-12.374 16.12-20.956a77.06 77.06 0 0 1-2.167-1.605c-3.247 8.432-8.599 15.433-15.485 20.461-7.585 5.535-17.027 8.688-27.596 8.69-5.824 0-11.991-.96-18.374-3.019-11.847-3.823-20.863-10.372-26.932-18.384a45.983 45.983 0 0 1-1.902-2.72c5.913 6.235 14.35 11.594 24.744 14.948 6.792 2.191 13.532 3.215 20.003 3.215 11.674-.001 22.473-3.332 31.131-9.145 5.686-3.817 10.441-8.716 13.912-14.433-.339-.264-.686-.528-1.019-.79l-1.043-.823c-1.389-1.096-2.739-2.142-4.089-3.067a29.68 29.68 0 0 0-2.215-1.384c-2.815 3.658-6.262 6.864-10.205 9.518-7.952 5.349-17.916 8.446-28.72 8.446-5.956 0-12.167-.941-18.439-2.964-8.056-2.597-14.791-6.487-19.904-11.004-4.093-3.615-7.12-7.63-8.994-11.69a52.656 52.656 0 0 0 8.213 6.732c5.457 3.643 11.832 6.582 18.946 8.752 6.191 1.888 12.407 2.829 18.446 2.829 8.382 0 16.428-1.814 23.581-5.425 10.252-5.173 18.089-13.613 22.416-24.019.804.09 1.677.279 2.6.566a51.54 51.54 0 0 1-1.454 5.801 39.078 39.078 0 0 1-1.632 4.315 3.499 3.499 0 0 0-3.317 5.995l-.027.041c.172.099.344.198.514.301.309.187.625.362.929.56.256.167.505.349.758.523.354.242.711.477 1.06.73 1.411 1.026 2.79 2.127 4.186 3.225 2.714 2.141 5.497 4.263 8.686 5.826.021.01.033.03.054.041.379.162.763.32 1.16.462.274.098.548.198.817.299a8.072 8.072 0 0 0 1.955 2.574c.62.551 1.371.761 1.939.753.11-.001.202-.015.299-.026.232.18.515.383.878.596.892.521 2.184 1.065 3.765 1.067.25 0 .507-.016.768-.046.795.805 1.75 1.752 2.745 2.581.601.5 1.212.956 1.84 1.312.632.349 1.278.634 2.07.645.351.001.735-.07 1.091-.247.356-.175.666-.452.89-.768a3.492 3.492 0 0 0 .652-2.054c-.001-.151-.033-.291-.049-.437.721-.052 1.423-.323 1.972-.839.615-.568.996-1.437.988-2.37-.003-.938-.359-1.911-1.019-2.906a2.673 2.673 0 0 0 .732-1.87c-.014-1.153-.558-2.269-1.529-3.429-.399-.468-.954-.997-1.648-1.571a22.147 22.147 0 0 0-3.85-2.552c-1.474-.754-3.075-1.345-4.711-1.416a17.072 17.072 0 0 0-.681-.014c-1.44.002-2.911.174-4.216.607-.653.218-1.269.503-1.816.897a4.392 4.392 0 0 0-.814.76 2.689 2.689 0 0 0-1.248.476 3.504 3.504 0 0 0-.809.82 19.699 19.699 0 0 1-2.312-1.3c-1.233-.802-2.472-1.772-3.745-2.81.399-2.393.602-4.79.602-7.177 0-2.18-.184-4.347-.507-6.496.188.12.378.232.564.356a37.04 37.04 0 0 1 5.654 4.66 28.77 28.77 0 0 1 2.099 2.351l.005.001c.202.268.399.539.575.793.246.356.459.678.608.91.075.115.134.209.174.272l.058.094a1.301 1.301 0 0 0 2.215-1.363c-.009-.013-.384-.624-.918-1.394a31.305 31.305 0 0 0-.643-.886c.335-.35.69-.741 1.052-1.15a43.611 43.611 0 0 1 1.165 1.492l.063.086a1.3 1.3 0 1 0 2.093-1.544c-.006-.008-.4-.541-.94-1.222a41.263 41.263 0 0 0-.68-.834c.347-.431.679-.855.977-1.249.196.21.389.419.567.612.534.582.937 1.03.937 1.03a1.3 1.3 0 1 0 1.933-1.739 137.515 137.515 0 0 0-2.033-2.207c-.002-.002.002-.009 0-.01a43.145 43.145 0 0 0-3.322-3.38 47.667 47.667 0 0 0-2.449-2.084c.257-.3.529-.623.816-.976a39.478 39.478 0 0 1 1.342 1.081l.217.184.073.064a1.3 1.3 0 0 0 1.709-1.96c-.01-.008-.475-.414-1.134-.942a38.471 38.471 0 0 0-.634-.496c.351-.501.67-.997.939-1.472l.397.266a103.956 103.956 0 0 1 1.044.719 1.3 1.3 0 0 0 1.5-2.124c-.01-.007-1.191-.84-2.506-1.683-.011-.008-.014-.021-.025-.029-2.222-1.478-4.649-2.641-7.161-3.508 4.266-1.295 8.561-2.956 12.386-4.886 3.625-1.834 6.826-3.896 9.188-6.158 1.181-1.133 2.154-2.319 2.849-3.578.693-1.256 1.105-2.6 1.105-3.987.002-1.28-.359-2.572-1.079-3.782a7.796 7.796 0 0 0-3.414-3.12c-1.393-.66-2.97-.944-4.644-.945-4.407.014-9.587 1.917-14.698 4.917a56.146 56.146 0 0 0-11.919 9.472c.017-.506.04-1.01.039-1.52.002-8.478-2.167-16.673-6.34-23.847l-.004-.02c-.03-.108-.046-.14-.06-.176-.048-.115-.075-.162-.121-.25-.166-.31-.507-.888-1.063-1.701a37.16 37.16 0 0 0-1.455-1.974 45.978 45.978 0 0 0-5.269-6.004c-3.723-3.558-8.154-6.59-13.23-8.967l-.001-.107c-.005-.395.059-1.761.558-2.932.193-.458.463-.86.778-1.21.7.455 1.531.724 2.427.724a4.47 4.47 0 1 0-4.122-2.74c-1.071 1.055-1.609 2.358-1.899 3.475a10.912 10.912 0 0 0-.29 1.677c-7.17-2.919-15.521-4.579-24.976-4.576-9.681-.003-18.21 1.732-25.492 4.783-.277-.734-.847-2-1.886-3.312a10.593 10.593 0 0 0-3.211-2.73c-.926-.506-2.015-.879-3.233-1.08a4.458 4.458 0 0 0-4.183-2.938 4.47 4.47 0 0 0 0 8.94c2.075 0 3.804-1.422 4.307-3.339a7.496 7.496 0 0 1 1.865.7c1.525.829 2.553 2.104 3.194 3.197a10.03 10.03 0 0 1 .77 1.626c-4.934 2.352-9.247 5.33-12.887 8.809-.146.14-.281.287-.425.428a46.783 46.783 0 0 0-4.07 4.4c-2.107-2.391-4.333-4.42-6.59-5.9-2.425-1.585-4.901-2.569-7.344-2.575a7.838 7.838 0 0 0-4.862 1.64c-.991.76-1.747 1.68-2.235 2.71-.49 1.03-.71 2.153-.709 3.3.017 3.14 1.541 6.485 3.852 9.908 2.322 3.418 5.485 6.902 8.98 10.134.029.027.067.036.098.06a48.7 48.7 0 0 0-1.007 9.866 43.99 43.99 0 0 0 1.454 11.266 1.268 1.268 0 0 0-.057.414c.078 1.231.23 2.447.417 3.654a35.2 35.2 0 0 0-2.503-.096c-1.335.001-2.471.057-3.358.077-.136-.783-.398-1.529-.813-2.189a4.978 4.978 0 0 0-2.21-1.907 9.715 9.715 0 0 0-1.303-1.722 9.444 9.444 0 0 0-5.126-2.828 7.552 7.552 0 0 0-.751-.104c-1.74-.918-3.713-1.302-5.583-1.305-1.313 0-2.576.185-3.69.536-1.112.358-2.093.862-2.818 1.662-.766.853-1.186 1.77-1.186 2.681-.002.595.188 1.12.444 1.537-.045.067-.089.131-.136.208-.277.469-.605 1.13-.613 2.005-.001.353.063.74.218 1.115.155.376.399.734.714 1.039a3.92 3.92 0 0 0 1.523.925c.034.011.066.013.1.023a3.638 3.638 0 0 0-.152 1.004c-.001.395.076.837.275 1.262.197.426.514.821.917 1.139.538.42 1.126.613 1.711.736a9.048 9.048 0 0 0 1.779.158c1.373-.003 2.7-.211 3.401-.34 1.391.81 2.78 1.341 3.434 1.569.084.099.18.208.298.332.351.358.82.799 1.49 1.116a4.32 4.32 0 0 0 1.822.415 4.266 4.266 0 0 0 1.783-.4c.82-.376 1.509-.959 2.113-1.643.028-.032.05-.07.078-.102.597.067 1.165.086 1.723.086 1.288-.002 2.55-.087 3.916-.085 1.335.003 2.768.084 4.34.362 1.256 3.534 3 6.911 5.23 10.073a1.287 1.287 0 0 0-.115.526c.004 10.305 3.317 20.358 9.724 28.818.385.509.782 1.01 1.189 1.507-1.128 2.508-1.654 5.08-1.653 7.539.005 2.578.579 5.02 1.596 7.189-.161.205-.316.414-.462.627-.829 1.214-1.438 2.547-1.857 3.592a21.49 21.49 0 0 0-.645 1.825c-.025.085-.015.168-.022.253a6.457 6.457 0 0 0-1.337 2.098c-7.005-3.277-14.725-5.132-22.237-6.701l-3.627-6.173a1.3 1.3 0 0 0-1.526-.576l-4.641 1.523a33.874 33.874 0 0 0-2.552-1.894 15.37 15.37 0 0 0-2.051-3.266c-1.917-2.327-4.799-5.496-8.235-8.125-1.72-1.314-3.58-2.494-5.545-3.357-1.718-.754-3.526-1.242-5.378-1.359a12.705 12.705 0 0 0-.54-1.697c-.381-.953-.99-1.905-1.775-2.892-1.377-1.722-3.31-3.542-5.61-5.34-3.449-2.693-7.718-5.321-12.122-7.297-4.407-1.971-8.938-3.304-12.996-3.31-1.864 0-3.63.309-5.226.991-1.751-2.975-4.105-5.188-6.86-6.828-1.418-.845-2.942-1.543-4.544-2.148 6.978-1.454 12.952-3.539 18.009-6.214 9.373-4.949 15.628-11.914 19.465-20.237 1.073-2.323 1.942-4.759 2.664-7.276 1.536-.57 3.05-1.415 4.234-2.15 1.262-.787 2.134-1.438 2.155-1.453.148-.111.263-.249.349-.4.028-.022.061-.03.087-.053.659-.621 1.136-1.431 1.584-2.404.661-1.459 1.209-3.3 1.64-5.339.43-2.037.737-4.265.876-6.461.045-.708.067-1.408.067-2.094-.001-2.555-.294-4.933-.782-6.925a17.088 17.088 0 0 0-.879-2.684c-.343-.787-.727-1.462-1.202-2.016-.076-.088-.172-.142-.264-.205-.061-.087-.112-.18-.196-.252a28.857 28.857 0 0 0-.709-.586c-.552-3.998-1.252-10.185-2.237-16.44-.995-6.293-2.256-12.633-4.018-17.051-1.492-3.726-2.817-6.265-4.085-7.964-.637-.848-1.263-1.493-1.934-1.956-.666-.46-1.411-.736-2.168-.734a3.298 3.298 0 0 0-1.433.333c-.648.313-1.16.782-1.603 1.311-.442.533-.819 1.138-1.164 1.787a6.027 6.027 0 0 0-.349.842c-.368 1.072-.743 2.654-1.097 4.272a188.874 188.874 0 0 0-.644 3.096 46.6 46.6 0 0 0-6.777-5.01C137.119 3.69 122.353.001 102.084 0c-13.516 0-24.578 1.64-33.59 4.643-7.833 2.604-14.107 6.265-19.059 10.743-.23-1.15-.53-2.623-.845-4.025a54.57 54.57 0 0 0-.628-2.55c-.105-.378-.21-.723-.316-1.033a6.02 6.02 0 0 0-.35-.843c-.461-.864-.974-1.653-1.633-2.291a4.377 4.377 0 0 0-1.133-.806 3.298 3.298 0 0 0-1.433-.333c-.758-.002-1.503.274-2.169.734-1.004.697-1.917 1.79-2.897 3.393-.975 1.605-2.004 3.733-3.122 6.527-1.76 4.415-3.009 10.665-3.99 16.864-.974 6.19-1.663 12.314-2.216 16.31-.012.088.01.17.016.256-.474.386-.77.644-.78.652-.081.071-.13.162-.189.247-.092.062-.189.117-.265.205-.475.554-.858 1.229-1.201 2.016-1.013 2.353-1.656 5.772-1.662 9.608 0 .687.022 1.387.067 2.095.187 2.928.668 5.912 1.346 8.428.34 1.258.729 2.399 1.17 3.372.448.973.925 1.782 1.584 2.403.025.024.058.03.084.052.085.15.2.285.345.396.02.016.87.66 2.109 1.439 1.243.78 2.862 1.697 4.507 2.262.035.012.07.005.106.014 2.493 8.65 6.967 16.233 14.15 22.14 5.607 4.614 12.83 8.194 21.97 10.56-5.903.52-12.041 3.266-17.202 6.597-2.86 1.852-5.414 3.891-7.443 5.872-2.029 1.99-3.538 3.887-4.314 5.637-.699 1.592-1.033 3.19-1.032 4.721a10.223 10.223 0 0 0 1.588 5.494c.99 1.567 2.4 2.863 4.088 3.799.068.33.147.665.239 1.003 1.048 3.911 3.175 6.586 5.834 8.161 2.656 1.582 5.747 2.103 8.814 2.105 4.334-.003 8.687-1.045 11.952-1.927.59 5.002 1.532 9.957 2.702 14.558.112.442.447.792.883.924.055.017 1.144.339 3.24.67l-.807 3.846-2.35-.259a1.297 1.297 0 0 0-1.409.996c-.548 2.359-.905 5.867-.908 9.285.001 2.218.15 4.38.538 6.178a26.355 26.355 0 0 0 1.571 4.876c.017.04.05.065.07.101a17 17 0 0 0-.354 2.5c-11.804 1.311-22.16 5.191-30.947 10.572a76.385 76.385 0 0 0-2.845 1.839c-.986-1.718-2.423-3.378-4.209-4.728-2.236-1.685-5.037-2.882-8.128-2.884a12.182 12.182 0 0 0-4.992 1.084c-2.385 1.064-4.268 2.954-5.543 5.255-1.276 2.304-1.962 5.029-1.963 7.859a17.516 17.516 0 0 0 5.007 12.258c.038.04.083.07.125.104a81.149 81.149 0 0 0-2.857 4.12c-2.59 4.009-4.71 9.167-6.2 14.941-1.487 5.773-2.337 12.161-2.338 18.616.003 5.822.7 11.702 2.26 17.229C5.702 295.956 0 310.296 0 323.175c0 19.652 14.53 33.272 34.823 25.974a170.501 170.501 0 0 0-1.715 12.005l-.001.011-.001.013c-.01.111.017.215.033.321-1.71 11.818-2.514 21-2.518 21.02a1.3 1.3 0 1 0 2.59.228s.022-.25.067-.726c.236-2.502 1.103-11.213 2.662-21.697.435-1.516 1.612-4.439 4.72-7.815 4.528-4.913 13.206-10.833 29.877-14.608 7.25-1.642 15.086-2.364 22.915-2.488a8.67 8.67 0 0 1 .72-2.607 10.52 10.52 0 0 1 .97-1.718c1.1-1.58 2.668-2.976 4.603-4.004 1.966-1.047 3.809-1.375 5.289-1.373.95.001 1.739.132 2.351.284.07-.238.135-.475.217-.714.153-.449.339-.867.546-1.262.011-.021.026-.039.037-.061a62.01 62.01 0 0 0 1.723 2.67c-.347 1.144-.531 2.232-.53 3.17-.001.936.172 1.718.462 2.292.296.576.676.959 1.244 1.227.382.176.863.295 1.479.314l.127.002a3.39 3.39 0 0 0 1.89-.55c.067-.043.123-.106.188-.154a67.485 67.485 0 0 0 1.745 1.931c-.148.118-.279.245-.441.354a6.014 6.014 0 0 1-3.382 1.019l-.207-.003c-.911-.028-1.75-.211-2.489-.553a5.087 5.087 0 0 1-1.853-1.445c-.973-1.218-1.362-2.782-1.363-4.434.001-.411.031-.832.078-1.257a7.138 7.138 0 0 0-1.822-.23c-1.108.002-2.493.233-4.069 1.069-1.586.841-2.843 1.977-3.689 3.193-.848 1.217-1.275 2.503-1.273 3.647 0 .557.098 1.083.296 1.578.28.697.606 1.08.923 1.306.319.223.661.327 1.123.331.676.006 1.591-.283 2.526-.842.936-.554 1.885-1.36 2.677-2.264a1.3 1.3 0 0 1 1.954 1.715c-.11.125-.228.241-.342.362l.189.464.033.09c.182.559.288 1.109.288 1.66a3.576 3.576 0 0 1-.514 1.891c-.345.566-.836 1.01-1.396 1.353-1.126.684-2.541 1.051-4.316 1.327-1.36.214-2.193.782-2.766 1.52-.568.739-.853 1.705-.853 2.677 0 .452.062.9.177 1.313.23.824.743 1.493 1.461 1.985.717.488 1.637.775 2.6.774a4.991 4.991 0 0 0 2.273-.552c1.449-.74 2.661-1.341 3.828-1.773 1.164-.432 2.301-.689 3.498-.688.342 0 .686.021 1.033.062.565.065 1.119.094 1.657.094 3.376.006 6.1-1.156 6.178-1.195.344-.154.741-.15 1.082.01h.002l.02.009.091.041a18.634 18.634 0 0 0 1.764.643c1.157.356 2.713.703 4.232.701.882.001 1.747-.115 2.523-.386a5.022 5.022 0 0 0 2.067-1.332 10.285 10.285 0 0 0 1.514-2.06c.756.461 1.501.909 2.228 1.334 4.78 2.794 8.933 4.823 12.485 6.232 4.668 1.848 8.285 2.639 11.015 2.686-1.431 2.741-2.64 6.069-3.654 9.919-1.203 4.575-2.13 9.876-2.791 15.754a1.301 1.301 0 0 0 2.584.291c.649-5.782 1.56-10.969 2.722-15.383 1.159-4.414 2.577-8.055 4.194-10.73.047-.077.059-.162.088-.244 1.227-.402 2.384-1.139 3.607-2.002 1.855-1.319 3.846-2.958 5.98-4.291 2.132-1.336 4.376-2.342 6.685-2.503a1.3 1.3 0 0 0 1.192-1.103c.007-.047.06-.408.061-.948-.004-.653-.088-1.577-.481-2.537.441-.283.826-.5 1.115-.652a9.78 9.78 0 0 1 .434-.216l.106-.049.022-.009c.558-.233.881-.815.783-1.411-.026-.152-.287-1.52-1.557-2.991.063-.02.128-.021.188-.051a1.3 1.3 0 0 0 .582-1.744c-1.128-2.243-3.079-3.99-5.257-5.209-2.186-1.214-4.611-1.911-6.849-1.916-1.113.001-2.188.175-3.16.597-1.083.472-1.988 1.162-2.788 1.89-.149.136-.286.276-.429.415-.402-1.418-.929-2.738-1.533-4.041-2.368-5.105-5.821-10.029-8.412-21.15a1179.923 1179.923 0 0 1 7.848-7.573c.978-.935 1.561-1.488 1.562-1.49a1.298 1.298 0 0 0 .047-1.837 1.298 1.298 0 0 0-1.837-.047c-.003.002-4.172 3.962-8.855 8.521a585.408 585.408 0 0 0-6.958 6.868c-1.696 1.709-3.176 3.237-4.252 4.418-.104-.186-.216-.382-.304-.55a1.3 1.3 0 1 0-2.305 1.202c.821 1.574 2.148 3.634 3.751 5.9 2.404 3.394 5.415 7.218 8.186 10.296 1.386 1.541 2.709 2.893 3.89 3.926.592.517 1.147.955 1.679 1.302.536.345 1.033.613 1.624.746.311.067.622.1.928.1 1.127.001 2.106-.448 2.912-1.019 1.214-.865 2.189-2.028 3.2-3.073 1.004-1.05 2.019-1.963 3.084-2.42.555-.243 1.286-.382 2.122-.381 1.682-.005 3.76.565 5.582 1.587 1.339.744 2.531 1.724 3.392 2.834a10.882 10.882 0 0 0-1.598-.752c-1.559-.576-3.516-.938-5.968-.938-.931 0-1.935.052-3.017.165a1.3 1.3 0 0 0 .271 2.586 26.268 26.268 0 0 1 2.746-.151c2.197 0 3.84.324 5.066.777 1.837.685 2.762 1.64 3.281 2.402.092.137.155.258.222.381-.337.187-.737.429-1.172.718a4.655 4.655 0 0 0-1.75-.698 10.867 10.867 0 0 0-1.969-.165c-1.719.001-3.452.306-4.779.603a27.163 27.163 0 0 0-2.266.604 1.3 1.3 0 1 0 .804 2.472l.03-.009a26.502 26.502 0 0 1 2.234-.582c1.178-.255 2.658-.49 3.977-.488a8.29 8.29 0 0 1 1.495.121c.428.081.694.22.903.384.307.244.515.596.652 1.037.093.299.133.613.154.908-1.512.253-2.94.751-4.274 1.393-2.518 1.215-4.737 2.9-6.682 4.36-.971.731-1.872 1.406-2.684 1.937-.809.533-1.533.914-2.095 1.087-.494.155-1.188.261-2.071.26-2.252.005-5.701-.685-10.294-2.511-3.485-1.382-7.637-3.414-12.465-6.255a141.308 141.308 0 0 1-4.83-2.972c-4.709-3.022-8.666-6.527-11.941-10.045a67.629 67.629 0 0 1-1.82-2.037 65.727 65.727 0 0 1-4.226-5.467c-.325-.472-.615-.926-.912-1.384-.5-.772-.965-1.52-1.385-2.238a46.23 46.23 0 0 1-2.037-3.845 23.844 23.844 0 0 1-1.036-2.566 8.994 8.994 0 0 1-.236-.847 2.293 2.293 0 0 1-.061-.411v-.002c.006-.154.06-.447.185-.816.43-1.318 1.669-3.506 3.321-5.947 1.653-2.453 3.721-5.206 5.838-7.866 4.75-5.971 11.797-13.336 18.916-19.158 3.558-2.912 7.136-5.438 10.426-7.214 3.286-1.783 6.291-2.784 8.578-2.773.127 0 .253.003.376.008 10.81.506 20.971 5.75 28.402 10.92a87.204 87.204 0 0 1 4.757 3.553c.933.748 1.888.728 2.407.198.371-.38.453-1.25-1.02-2.417a92.77 92.77 0 0 0-4.661-3.47c-3.243-2.25-7.005-4.531-11.139-6.46l.271-2.033a1.3 1.3 0 1 0-2.577-.344l-.171 1.283c-4.982-2.067-10.435-3.55-16.145-3.827a11.803 11.803 0 0 0-.5-.011c-.615.002-1.245.065-1.884.162-7.032-2.418-12.198-7.306-15.646-13.203-3.464-5.924-5.149-12.859-5.146-19.106 0-.541.012-1.077.037-1.607a1.3 1.3 0 1 0-2.597-.122c-.027.571-.04 1.148-.04 1.729.001 2.276.224 4.625.641 6.984l-11.916-2.648 6.644-6.446a1.298 1.298 0 0 0-.565-2.188c-3.461-.935-6.641-2.823-8.931-4.485a37.38 37.38 0 0 1-2.11-1.65 53.351 53.351 0 0 1 4.122-1.101c3.607-.831 7.706-1.513 10.894-1.985a204.73 204.73 0 0 1 5.058-.685l.4-.048a1.3 1.3 0 0 0 1.151-1.331v-.03a20.139 20.139 0 0 1-.006-.543c0-1.717.124-7.114 1.478-13.856 1.352-6.743 3.937-14.821 8.802-21.922 4.313-6.307 11.255-10.514 19.1-13.129 7.836-2.615 16.533-3.623 24.166-3.622 1.146 0 2.268.023 3.36.066.099.004.188-.028.281-.045.45 2.23.53 4.044.53 4.962 0 .222-.004.392-.008.504l-.005.121-.002.027v.002a1.3 1.3 0 0 0 1.039 1.362 1.3 1.3 0 0 0 1.481-.84l.002.001c.008-.021.476-1.267 2.007-2.499 1.536-1.228 4.148-2.506 8.706-2.513 1.565-.001 3.357.154 5.404.522 11.207 2.313 22.613 5.176 31.107 12.086 4.256 3.458 7.815 7.918 10.34 13.916 2.113 5.025 3.482 11.16 3.875 18.662.006.112.015.22.02.334.065 1.348.109 2.727.109 4.166 0 3.655-.223 7.619-.676 11.892a12999.61 12999.61 0 0 0-6.821-1.839 1.299 1.299 0 1 0-.676 2.51l3.39.914c5.524 1.49 16.522 4.457 23.279 6.293-1.969 1.321-5.696 3.267-11.983 4.643a1.302 1.302 0 0 0-.939.809c-.155.41-.093.873.166 1.228l4.451 6.096c-1.532.189-3.676.443-5.791.659-2.351.24-4.685.429-5.985.428-.619 0-1.155.441-1.275 1.048-.006.037-1.241 6.085-7.245 12.084-3.005 3.003-7.204 6.009-13.093 8.278-5.89 2.268-13.477 3.796-23.249 3.797-1.006 0-2.043-.022-3.096-.055.067-.335.132-.665.193-.982a1.301 1.301 0 0 0-2.554-.49 285.126 285.126 0 0 1-1.471 7.006 547.91 547.91 0 0 1-.852 3.78 1.3 1.3 0 0 0 2.534.584c0-.002.186-.809.461-2.03 6.098 2.868 12.621 7.168 18.25 13.634 6.015 6.913 11.03 16.301 13.411 29.174 1.068 5.784 1.486 11.776 1.485 17.586.001 10.018-1.24 19.494-2.483 26.454a157.681 157.681 0 0 1-1.707 8.309c-.233.988-.426 1.759-.561 2.28-.067.26-.12.459-.155.591l-.053.194a1.3 1.3 0 0 0 2.504.7c.015-.065 5.051-18.069 5.055-38.528 0-5.935-.424-12.078-1.529-18.058-1.007-5.461-2.49-10.333-4.319-14.692.445-.031.962-.055 1.542-.055 2.048-.003 4.783.294 7.14 1.427 1.182.566 2.271 1.332 3.183 2.372.912 1.043 1.658 2.364 2.129 4.105a1.302 1.302 0 0 0 1.567.924 1.302 1.302 0 0 0 .956-1.548c-.016-.065-1.191-5.275-4.29-11.555-2.374-4.801-5.881-10.252-10.918-14.461a957.69 957.69 0 0 1 1.179-9.119c7.596-1.247 15.689-1.927 22.041-2.285 3.434-.194 6.359-.297 8.424-.351 1.032-.027 1.849-.042 2.407-.05.558-.009.852-.01.852-.01a1.3 1.3 0 0 0-.011-2.6c-.022 0-8.674.042-19.333.942-4.48.379-9.307.922-14.012 1.668.396-2.882.795-5.727 1.199-8.499.332-.176.649-.358.968-.539.052.008.097.034.151.036 7.715.267 15.275.847 20.901 1.359a413.49 413.49 0 0 1 8.651.881l.659.076a1.3 1.3 0 1 0 .312-2.581c-.019-.002-12.699-1.531-26.912-2.19 3.016-2.196 5.327-4.553 7.067-6.795a378.574 378.574 0 0 1 14.158 3.515 332.395 332.395 0 0 1 5.585 1.554c.271.078.41.12.41.12a1.302 1.302 0 0 0 .738-2.494c-.017-.004-8.469-2.501-19.268-4.991 1.943-3.016 2.882-5.589 3.284-6.945a67.78 67.78 0 0 0 2.89-.195c4.547-.391 10.386-1.165 10.396-1.166a1.298 1.298 0 0 0 1.024-.778 1.298 1.298 0 0 0-.145-1.278l-4.597-6.295c9.652-2.468 13.115-6.267 13.273-6.455a1.3 1.3 0 0 0-.634-2.112 9913.816 9913.816 0 0 0-19.763-5.35c.492-4.514.731-8.702.731-12.579 0-.395-.018-.766-.022-1.155 4.284 4.215 9.182 8.991 13.07 12.659a1.301 1.301 0 0 0 1.784-1.892l-.463-.439c2.338-.187 6.62-.454 11.979-.454 9.632-.003 22.741.872 34.192 4.576a1.3 1.3 0 0 0 .8-2.474c-.457-.147-.919-.282-1.379-.421.417-.633 1.143-1.696 2.065-2.995 1.624-2.289 3.859-5.322 6.128-8.125 1.68-2.08 3.398-4.041 4.854-5.453 1.869 5.631 7.673 24.324 13.261 54.757-2.817.487-4.586.868-4.602.87a1.3 1.3 0 1 0 .546 2.542s.205-.044.598-.124c.73-.148 2.112-.417 3.921-.729.203 1.13.405 2.263.607 3.424-.462-.003-.895-.005-1.294-.005-1.966 0-3.128.029-3.138.029a1.301 1.301 0 0 0 .066 2.6s.278-.008.805-.015a172.066 172.066 0 0 1 4.004-.006c.216 1.277.431 2.573.645 3.885-3.154-.433-5.185-.623-5.2-.625a1.3 1.3 0 0 0-.24 2.589l.234.023c.674.068 2.758.289 5.643.7a707.917 707.917 0 0 1 3.785 27.303c.042.354.231.68.519.892.074.055 2.24 1.686 4.704 4.698 2.466 3.014 5.224 7.401 6.553 12.975.503 2.104.742 4.047.742 5.82 0 2.426-.446 4.529-1.279 6.331-1.254 2.697-3.375 4.766-6.43 6.222-3.051 1.449-7.043 2.242-11.871 2.24-7.34.003-16.601-1.844-27.328-5.765.488-.503.965-1.006 1.421-1.506 2.06-2.262 3.809-4.48 5.323-6.422 1.512-1.941 2.798-3.61 3.879-4.743 1.477-1.547 2.936-2.328 4.431-2.782 2.24-.684 4.606-.541 6.954-.732 1.172-.102 2.356-.299 3.489-.831 1.133-.527 2.173-1.416 2.958-2.703a4.358 4.358 0 0 1 1.669-1.596 3.66 3.66 0 0 1 .611-.258l.152-.042.024-.006-.001-.003a1.298 1.298 0 0 0-.443-2.558c-.1.017-.732.131-1.563.571a6.943 6.943 0 0 0-2.149 1.817c-.374-1.176-.877-2.256-1.525-3.208-1.596-2.352-3.921-3.975-6.529-4.997-2.613-1.023-5.524-1.466-8.426-1.467-4.682.007-9.341 1.142-12.746 3.108-2.845 1.651-6.194 3.569-9.619 5.424-2.519-2.065-6.254-4.184-10.529-5.857-4.48-1.746-9.518-2.987-14.277-2.991-2.663.001-5.247.392-7.582 1.345-2.026.83-3.791 2.093-5.09 3.578-1.289 1.485-2.153 3.211-2.163 5.04a5.103 5.103 0 0 0 1.092 3.175c.611.783 1.469 1.427 2.53 1.941a5.14 5.14 0 0 0 .45 1.53c.521 1.107 1.334 1.9 2.219 2.35.884.454 1.801.59 2.615.591a8.801 8.801 0 0 0 2.225-.311c.136.168.294.346.48.527.378.366.868.742 1.485 1.029.615.287 1.36.477 2.193.476 1.466 0 3.136-.581 5.01-1.942a38.06 38.06 0 0 0 2.343-.335c1.776-.32 3.847-1.015 6.129-1.945 6.825-2.79 15.527-7.743 21.793-11.376 2.875-1.676 7.194-2.764 11.442-2.757 3.516-.004 6.974.735 9.575 2.318 1.304.791 2.398 1.783 3.23 3.007.758 1.119 1.292 2.449 1.561 4.031-.651.363-1.415.57-2.356.684-1.71.214-3.883.081-6.255.481-2.371.396-4.965 1.421-7.291 3.882-1.641 1.731-3.419 4.187-5.621 6.937-3.294 4.121-7.497 8.872-13.216 12.586-5.722 3.712-12.941 6.41-22.426 6.415-1.35 0-2.747-.055-4.191-.171-7.093-.569-12.842-2.665-17.518-5.488-7.009-4.234-11.608-10.137-14.447-14.995a46.595 46.595 0 0 1-3.017-6.136 33.37 33.37 0 0 1-.827-2.291l-.035-.118-.009-.03a1.3 1.3 0 0 0-2.502.708c.031.098 2.029 7.156 7.787 14.569 2.88 3.704 6.708 7.498 11.706 10.518 4.995 3.02 11.163 5.257 18.654 5.855 1.512.121 2.978.179 4.399.179 6.656.001 12.335-1.277 17.18-3.305 5.41-2.263 9.768-5.452 13.343-8.799.093.067.181.14.294.182 11.282 4.202 21.073 6.21 29.035 6.212 4.252-.001 7.997-.574 11.157-1.728.826 10.32 1.357 18.714 1.684 24.602.172 3.095.288 5.499.361 7.127.036.815.061 1.435.078 1.852l.024.627a1.298 1.298 0 0 0 1.344 1.254 1.298 1.298 0 0 0 1.254-1.344c0-.016-.469-13.491-2.228-35.251.898-.472 1.752-.986 2.525-1.576 1.938-1.484 3.452-3.348 4.461-5.533 1.012-2.185 1.521-4.679 1.52-7.423 0-2.007-.27-4.15-.813-6.424-1.472-6.164-4.522-10.935-7.196-14.17-1.997-2.414-3.787-3.977-4.593-4.634a713.491 713.491 0 0 0-3.608-26.055c1.509.24 3.147.521 4.862.848 6.545 1.245 14.188 3.177 19.607 5.893a1.3 1.3 0 0 0 1.162-2.326c-6.219-3.102-14.661-5.1-21.599-6.366a166.47 166.47 0 0 0-4.463-.747 713.8 713.8 0 0 0-.698-4.242c7.123.145 18.064.709 26.905 2.622a1.301 1.301 0 0 0 .548-2.542Zm-65.579-98.428c-.105.402-.224.876-.346 1.379a8.95 8.95 0 0 0-1.763.225c.122-.358.261-.741.421-1.133.18-.443.39-.889.615-1.324.346.298.703.583 1.073.853Zm8.824-1.736c.185.192.423.57.633 1.095.319.785.583 1.882.753 3.122.172 1.241.257 2.628.257 4.023 0 1.609-.113 3.232-.324 4.66-.207 1.426-.524 2.668-.872 3.457-.595 1.367-1.653 2.599-2.959 3.474-1.305.877-2.843 1.39-4.382 1.389a6.802 6.802 0 0 1-2.611-.518 7.178 7.178 0 0 1-3.308-2.738c-.817-1.258-1.318-2.857-1.32-4.812 0-1.333.237-2.831.782-4.478.4-1.182 1.002-1.85 1.764-2.311.762-.454 1.74-.669 2.809-.668 1.293-.003 2.691.32 3.824.776a8.496 8.496 0 0 1 1.449.734c.383.244.644.492.722.604a1.3 1.3 0 0 0 2.08-1.56c-.298-.393-.676-.709-1.097-1.01.179-2.124.373-3.959.459-4.709a3.489 3.489 0 0 0-.286-1.804 7.14 7.14 0 0 1 1.627 1.274Zm20.639-38.055c.208-.452.383-.602.447-.647l.047-.026-.003-.01c.613.188 1.286-.082 1.56-.68l.014-.021c.007-.007.017-.009.025-.017.109-.114.341-.291.586-.408.246-.122.501-.184.66-.181l.19.03c1.611.617 2.837 1.134 3.546 1.56.355.209.569.395.642.485l.005.007a1.28 1.28 0 0 1-.215.336 1.084 1.084 0 0 1-.456.343 1.706 1.706 0 0 1-.631.106c-.388.002-.836-.1-1.168-.211a4.52 4.52 0 0 1-.394-.149l-.098-.044-.018-.009a1.301 1.301 0 0 0-1.177 2.319c.043.022.368.186.873.352.505.165 1.189.34 1.982.342.499 0 1.047-.073 1.598-.293a3.69 3.69 0 0 0 1.518-1.13c.227-.285.42-.579.566-.908.145-.326.24-.696.24-1.083.006-.635-.274-1.235-.636-1.652-.468-.542-1.049-.919-1.74-1.286 1.353.141 3.053.876 4.527 1.804a20.207 20.207 0 0 1 2.147 1.541c.604.497 1.079.962 1.319 1.246.739.861.927 1.532.913 1.749l-.009.077-.032.013a.802.802 0 0 1-.203.022c-.245.003-.673-.085-1.201-.36a8.654 8.654 0 0 1-1.501-.957c-.353-.275-.724-.61-1.302-.928a1.3 1.3 0 1 0-1.248 2.281c.291.158.51.346.942.69.426.337 1.017.762 1.916 1.224.677.349 1.342.556 1.995.621.043.116.082.233.16.337.623.831.774 1.436.77 1.756-.007.287-.08.383-.168.476a.634.634 0 0 1-.435.155.874.874 0 0 1-.412-.106c-.749-.394-1.847-1.238-2.7-1.963a40.289 40.289 0 0 1-1.387-1.232l-.108-.101a1.298 1.298 0 0 0-1.837.043 1.298 1.298 0 0 0 .043 1.837c.012.012.688.658 1.61 1.438.554.466 1.186.97 1.834 1.43.42.648.663 1.292.649 1.669a.887.887 0 0 1-.124.457 2.566 2.566 0 0 1-.699-.296c-.634-.355-1.457-1.014-2.252-1.744-.8-.73-1.585-1.53-2.235-2.19a1.295 1.295 0 0 0-1.214-.356 4.237 4.237 0 0 1-.932.106c-.965.002-1.826-.344-2.452-.711a5.776 5.776 0 0 1-.72-.497l-.178-.152-.036-.034-.004-.004-.001.001a1.292 1.292 0 0 0-1.474-.245l-.003-.007-.074.012c-.049-.009-.072.014-.231-.113a5.557 5.557 0 0 1-1.488-2.084 6.043 6.043 0 0 1-.456-2.289c-.002-.706.139-1.336.328-1.741ZM193.868 95.39c.241-.283.84-.66 1.661-.914.819-.26 1.843-.416 2.907-.415.314 0 .632.023.948.05-.447.37-.82.783-1.094 1.242a3.79 3.79 0 0 0-.303.65c-.09-.004-.182-.012-.271-.012-.971.003-1.885.213-2.663.397-.387.093-.737.182-1.02.242-.18.04-.329.063-.431.075l-.172-.14c-.069-.094-.085-.14-.088-.224.001-.098.037-.397.526-.951Zm14.801 12.428a1.669 1.669 0 0 1-.702.165 1.713 1.713 0 0 1-.731-.175c-.178-.075-.488-.324-.705-.556a5.113 5.113 0 0 1-.265-.301l-.067-.085-.014-.018-.001-.002a1.298 1.298 0 0 0-.666-.478l-.014-.004c-.187-.056-2.115-.701-3.648-1.68a1.3 1.3 0 0 0-.976-.172l-.013.003c-.163.037-1.857.379-3.345.376-.471 0-.917-.035-1.258-.105-.344-.067-.566-.18-.617-.227a.575.575 0 0 1-.176-.2l-.031-.163c-.006-.15.08-.434.201-.657.055-.104.11-.191.152-.252.212-.03.429-.061.625-.092.586-.097 1.101-.175 1.463-.173.183 0 .322.018.415.043a1.3 1.3 0 0 0 .656-2.516 4.237 4.237 0 0 0-1.071-.127c-.676.003-1.298.114-1.879.206-.579.096-1.115.174-1.55.173-.301 0-.548-.035-.745-.101a1.299 1.299 0 0 1-.523-.318l-.125-.169-.022-.123c-.009-.13.089-.424.238-.66.03-.05.054-.078.084-.12.042.001.084.004.124.004.395-.003.734-.067 1.092-.141.53-.114 1.086-.265 1.634-.383.546-.119 1.081-.2 1.507-.2.201 0 .376.018.516.048.048.01.093-.003.14.002.346.518.797.93 1.281 1.185.768.413 1.576.549 2.313.552.384 0 .751-.039 1.098-.114.096-.021.173-.027.238-.027a.644.644 0 0 1 .335.082l.055.038.007-.007a1.295 1.295 0 0 0 1.911-1.746 2.68 2.68 0 0 0-.66-.529 3.25 3.25 0 0 0-1.648-.438c-.25 0-.515.027-.789.086a2.63 2.63 0 0 1-.547.055c-.393.002-.808-.089-1.073-.237-.259-.153-.388-.287-.484-.576l.013-.063c.051-.195.343-.638.857-.97.512-.339 1.218-.596 2.093-.596.284 0 .586.027.909.089 1.742.335 2.935 1.227 3.725 2.06a7.3 7.3 0 0 1 .854 1.094c.09.14.154.254.192.326l.04.076.006.012h.001c.157.333.447.587.8.693.556.172.981.513 1.311 1.029.097.153.179.327.252.51a3.492 3.492 0 0 0-3.595 2.224 3.494 3.494 0 0 0 1.258 4.096 2.698 2.698 0 0 1-.456.274ZM328.03 91.894c.088-.062.181-.115.253-.201 3.659-4.37 8.474-8.349 13.321-11.203 4.839-2.862 9.737-4.57 13.378-4.557 1.382 0 2.57.237 3.529.694.96.46 1.711 1.12 2.292 2.096.506.859.713 1.654.716 2.457 0 .867-.254 1.771-.783 2.733-.918 1.68-2.701 3.477-5.077 5.179-3.56 2.56-8.419 4.923-13.511 6.78a81.782 81.782 0 0 1-8.583 2.604 29.958 29.958 0 0 0-4.643-.474 26.025 26.025 0 0 0-2.126.05c.559-2.003.966-4.06 1.234-6.158Zm-93.89-36.502c2.68-1.806 5.478-2.682 8.213-2.683 1.988 0 3.952.463 5.84 1.406 1.971.985 3.534 2.392 5.001 4.024 2.202 2.44 4.127 5.389 6.868 7.812 1.372 1.208 2.961 2.275 4.873 3.027 1.911.754 4.135 1.188 6.754 1.187 3.551.005 6.512-1.017 9.036-2.537 3.79-2.285 6.668-5.61 9.708-8.43 1.517-1.413 3.066-2.704 4.755-3.714 1.691-1.01 3.515-1.746 5.641-2.07a18.045 18.045 0 0 1 2.715-.208c3.105.001 6.093.823 8.836 2.492 2.247 1.369 4.328 3.324 6.145 5.877 4.785 7.241 7.277 15.748 7.279 24.626-.005 12.124-5.067 23.048-14.14 31.005-9.075 7.951-22.192 12.924-38.327 12.926-16.135-.002-29.253-4.975-38.327-12.926-9.073-7.957-14.135-18.881-14.141-31.005.003-9.582 2.905-18.73 8.462-26.321 1.512-1.866 3.136-3.36 4.809-4.488Zm-21.791 9.288c-2.176-3.185-3.42-6.204-3.403-8.446.001-.824.153-1.541.458-2.184.306-.642.769-1.224 1.469-1.764 1.007-.766 2.063-1.097 3.279-1.103 1.712-.006 3.765.733 5.919 2.15 2.119 1.387 4.321 3.405 6.409 5.836-1.366 1.926-1.999 3.19-2.025 3.24-.064.13-.091.268-.11.404a46.248 46.248 0 0 0-4.372 10.636c-2.993-2.862-5.669-5.887-7.624-8.769Zm-67.616 60.304c2.649-.003 5.76.692 8.94 1.861 4.772 1.749 9.703 4.551 13.62 7.465 1.959 1.456 3.666 2.941 4.971 4.315 1.307 1.368 2.202 2.649 2.556 3.558.112.284.206.564.29.842-.605.096-1.209.245-1.809.442a6.237 6.237 0 0 0-3.339-.993 6.249 6.249 0 0 0-4.918 2.386 6.235 6.235 0 0 0-1.343 3.869 6.25 6.25 0 0 0 1.303 3.783c-.085.431-.152.866-.191 1.304a13.641 13.641 0 0 1-2.619-.487c-2.713-.797-7.307-2.366-12.541-5.953a38.728 38.728 0 0 1-4.404-3.494 112.917 112.917 0 0 0-.655-4.232 6.248 6.248 0 0 0 3.485-5.585 6.259 6.259 0 0 0-6.252-6.264c-.093 0-.187.019-.28.023a38.606 38.606 0 0 0-.87-2.126c1.163-.47 2.521-.715 4.056-.714Zm31.9-64.666c0 .632-.02 1.277-.061 1.93-.175 2.753-.637 5.6-1.262 7.914-.311 1.156-.665 2.179-1.027 2.974-.355.796-.744 1.36-.985 1.573-.081.075-.128.17-.186.258-.012.009-.026.01-.037.018l-.032.023c-.171.126-1.029.749-2.167 1.445-.553.34-1.176.696-1.811 1.02 1.271-5.613 1.818-11.625 1.818-17.935 0-4.202-.239-8.31-.766-12.283a26.02 26.02 0 0 1 2.268 1.506 37.372 37.372 0 0 1 1.699 1.335l.098.083.03.025c.037.032.083.042.123.07.026.037.036.082.066.117.231.264.518.732.785 1.352.817 1.867 1.452 5.049 1.447 8.575Zm-19.854-43.474c.243-1.202.622-3.134 1.023-4.912.2-.888.405-1.737.596-2.424.096-.343.188-.645.27-.883.08-.237.157-.415.188-.471.38-.721.786-1.302 1.139-1.637.175-.17.332-.276.455-.335a.694.694 0 0 1 .309-.077c.136.002.344.04.697.278.523.352 1.285 1.174 2.147 2.6.867 1.424 1.848 3.438 2.929 6.142 1.617 4.027 2.89 10.283 3.863 16.489.795 5.046 1.403 10.05 1.904 13.93-.783-.508-1.615-.993-2.447-1.354-.071-.03-.145-.029-.217-.046-.461-2.621-1.053-5.18-1.812-7.656-2.214-7.24-5.817-13.802-11.194-19.287.061-.112.123-.225.15-.358ZM33.489 31.427c.959-6.113 2.217-12.273 3.834-16.303 1.44-3.605 2.71-5.984 3.753-7.372.518-.694.976-1.134 1.324-1.37.352-.239.56-.277.697-.278a.692.692 0 0 1 .308.077c.184.086.447.29.729.631.282.338.58.8.865 1.34.031.057.108.235.189.472.292.844.673 2.408 1.014 3.98.345 1.578.662 3.186.874 4.238.044.215.15.395.279.553a43.66 43.66 0 0 0-6.69 8.94c-3.028 5.35-4.975 11.28-6.105 17.602a1.275 1.275 0 0 0-.405.085c-.872.38-1.754.907-2.583 1.458.505-3.895 1.113-8.954 1.916-14.053ZM32.71 76.3a32.75 32.75 0 0 1-1.792-1.213l-.1-.075-.03-.022c-.014-.01-.03-.011-.044-.02-.058-.09-.106-.186-.188-.262-.24-.214-.63-.778-.985-1.573-.544-1.194-1.062-2.895-1.463-4.8a43.416 43.416 0 0 1-.825-6.09 30.306 30.306 0 0 1-.061-1.928c-.001-2.354.274-4.546.707-6.305.215-.88.47-1.65.74-2.27.266-.62.554-1.088.784-1.352.031-.036.04-.08.067-.118.041-.029.09-.04.129-.074l.031-.027a38.02 38.02 0 0 1 2.085-1.658 24.75 24.75 0 0 1 2.322-1.536c-.553 4.06-.804 8.261-.805 12.56 0 6.377.555 12.45 1.855 18.113-.86-.416-1.714-.9-2.427-1.35Zm27.132 29.884c-9.133-4.69-15.057-11.175-18.777-19.077-3.713-7.902-5.184-17.26-5.183-27.57 0-7.948.858-15.482 2.946-22.288 3.143-10.211 8.988-18.776 19-24.894 10.014-6.112 24.29-9.757 44.254-9.756 13.307 0 24.094 1.619 32.768 4.51 13.011 4.348 21.271 11.492 26.388 20.507 5.111 9.018 7.046 19.994 7.044 31.92.001 13.611-2.556 25.53-9.452 34.694-3.452 4.588-7.997 8.514-13.935 11.656-5.917 3.13-13.227 5.474-22.185 6.858a59.224 59.224 0 0 0-5.159-1.07c-.343-.519-.797-.968-1.328-1.377-1.12-.852-2.611-1.546-4.384-2.054-1.771-.504-3.822-.81-6.03-.81-.1 0-.201 0-.305.002-2.828.038-5.488.598-7.618 1.449-1.065.427-2 .926-2.768 1.502-.654.495-1.194 1.049-1.56 1.724-.443.105-.879.22-1.313.339-.112-1.281-.471-2.4-1.197-3.267a4.183 4.183 0 0 0-1.63-1.181c-.627-.255-1.306-.367-2.011-.367-.22 0-.444.011-.669.032-1.07.097-1.984.426-2.702.92-1.086.743-1.666 1.791-1.984 2.696a9.422 9.422 0 0 0-.377 1.485c-8.764-1.336-15.972-3.578-21.833-6.583Zm40.19 18.94c-.073.262-.164.5-.257.704a5.142 5.142 0 0 0-1.152-.336 153.654 153.654 0 0 1-4.577-.784c-1.714-.325-3.449-.714-4.537-1.083a1.3 1.3 0 1 0-.832 2.463c1.325.446 3.11.835 4.882 1.174 1.769.337 3.51.615 4.654.798.377.06.641.166.84.288.294.184.474.405.62.735.143.327.224.765.223 1.254 0 .362-.043.749-.12 1.126-.157.783-.47 1.523-.835 2.19a2.481 2.481 0 0 0-.485-.214c-.63-.177-1.465-.305-2.456-.434-2.942-.374-7.06-.639-7.074-.64a1.299 1.299 0 1 0-.168 2.594s.45.029 1.162.082c1.067.079 2.715.211 4.264.373.774.08 1.523.169 2.155.261.618.089 1.135.188 1.388.26l.084.089c.162.197.368.804.358 1.486.003.642-.156 1.34-.448 1.861-.298.529-.671.873-1.217 1.052-.679.217-1.6.374-2.575.465-.977.093-2.01.125-2.946.125a45.19 45.19 0 0 1-3.068-.105l-.246-.019a1.305 1.305 0 0 0-1.223.627l-.001-.001c-.007.013-.508.816-1.546 1.584-1.044.769-2.59 1.522-4.86 1.526-.186 0-.377-.005-.573-.016-1.079-.054-2.57-.473-3.675-1.35a4.862 4.862 0 0 1-1.373-1.669c-.341-.689-.561-1.532-.563-2.617 0-.406.032-.845.102-1.321.354-2.441 1.615-5.537 3.02-8.256 1.4-2.721 2.948-5.111 3.781-6.217.53-.706 1.022-1.282 1.523-1.747.755-.696 1.517-1.164 2.621-1.513 1.102-.345 2.564-.545 4.588-.575.2-.003.396-.005.59-.005 2.54 0 4.644.262 6.282.668 1.638.402 2.81.962 3.461 1.472.058.039.194.203.297.531.105.322.17.777.168 1.271a6.909 6.909 0 0 1-.256 1.843Zm-10.831-8.372c-2.586.058-4.518.379-6.121 1.083a28.353 28.353 0 0 0 1.038-3.944c.064-.356.117-.74.213-1.145.14-.606.374-1.207.744-1.63.378-.418.858-.752 1.902-.861a4.71 4.71 0 0 1 .43-.021c.433 0 .77.069 1.03.175.385.165.634.383.867.819.226.436.393 1.122.392 2.079 0 .916-.158 2.076-.495 3.445Zm-41.734 25.496a8.28 8.28 0 0 1-1.613-1.84 7.611 7.611 0 0 1-1.186-4.104c0-1.155.248-2.389.813-3.677.526-1.22 1.862-2.987 3.75-4.821 2.83-2.766 6.886-5.756 11.305-8.022 4.418-2.272 9.204-3.809 13.444-3.803 2.365.001 4.545.472 6.473 1.509a26.875 26.875 0 0 1-2.613 5.309c-.005.006-.005.014-.009.021a53.12 53.12 0 0 0-2.035 3.302 16.286 16.286 0 0 0-4.598-.672c-1.455 0-2.94.192-4.417.593-3.342.911-7.695 2.35-11.469 4.676-.038-.013-.071-.038-.111-.047a6.221 6.221 0 0 0-2.485-.082 6.257 6.257 0 0 0-5.135 7.206c.081.486.229.945.412 1.382a11.88 11.88 0 0 0-.526 3.07Zm26.473 10.171c-3.19.869-7.377 1.85-11.31 1.847-2.776.002-5.393-.487-7.48-1.737-2.082-1.257-3.73-3.236-4.658-6.611-.308-1.133-.445-2.176-.445-3.142.004-2.071.617-3.809 1.668-5.37 1.571-2.335 4.199-4.23 7.11-5.683 2.907-1.456 6.07-2.475 8.637-3.171a14.27 14.27 0 0 1 3.736-.502c1.146 0 2.267.144 3.34.413a46.065 46.065 0 0 0-1.52 3.296c-.246.098-.49.197-.73.322a7.915 7.915 0 0 0 3.662 14.935c.474 0 .95-.051 1.424-.138a9.518 9.518 0 0 0 2.665.347c.556.001 1.077-.046 1.578-.114-1.754 2.469-4.405 4.421-7.677 5.308Zm5.724 15.7-.036-.008c-1.106-4.478-2.003-9.269-2.541-14.086 3.666-1.637 6.516-4.459 8.09-7.848.032-.071.033-.147.052-.22.51-.276.966-.572 1.353-.872a9.562 9.562 0 0 0 1.604-1.555c.64.038 1.638.083 2.797.083.995 0 2.101-.033 3.19-.136 1.09-.105 2.161-.273 3.12-.577 1.256-.396 2.169-1.288 2.705-2.272.543-.991.769-2.083.771-3.118a6.231 6.231 0 0 0-.196-1.543c.714-1.049 1.426-2.392 1.752-3.988a8.342 8.342 0 0 0 .171-1.642c-.002-.925-.188-1.898-.705-2.777.33-.522.562-1.105.742-1.725.23-.813.355-1.688.356-2.554-.002-.704-.082-1.401-.292-2.063-.212-.656-.561-1.31-1.183-1.796-1.071-.823-2.54-1.468-4.427-1.939-1.458-.36-3.171-.604-5.126-.698.125-.562.224-1.102.294-1.616 4.302-1.287 9.211-1.821 14.016-1.82 5.364-.001 10.6.662 14.709 1.624 4.003.935 7.543 2.078 10.433 3.806 2.891 1.733 5.151 4.012 6.741 7.393 2.503 5.327 4.037 12.851 4.906 20.296.874 7.449 1.104 14.831 1.104 19.963.001 2.397-.051 4.312-.107 5.491-.074.004-.146.016-.221.016-.941.005-2.072-.36-3.359-1.011-1.931-.967-4.149-2.53-6.655-3.904-2.506-1.37-5.344-2.565-8.574-2.676-.611-.02-1.196-.03-1.759-.03-6.266-.009-9.705 1.267-13.575 2.461-1.944.598-4.026 1.185-6.761 1.638-2.734.453-6.124.77-10.645.801l-.59.002c-4.353 0-7.606-.331-9.756-.657a33.25 33.25 0 0 1-2.398-.443Zm3.767 23.968a6.993 6.993 0 0 1 2.063-.299c1.876-.004 4.002.685 6.2 1.936.45.256.904.549 1.358.848-.216 1.1-.339 2.254-.338 3.464 0 .102.012.209.013.312a80.993 80.993 0 0 0-12.333.02c.168-1.822.615-3.319 1.185-4.374.627-1.18 1.397-1.785 1.852-1.907ZM38.708 250.8c1.001 0 1.859-.689 2.273-1.682.166.607.234 1.141.185 1.515-.25 1.917-1.75 2.334-4.25 2.667-2.5.333-5.576.741-6.582-1.083-1.334-2.417.666-7.417 4.5-8.5 1.388-.393 2.63.161 3.643 1.111-1.293.139-2.31 1.408-2.31 2.972 0 1.657 1.138 3 2.541 3Zm92.614-31.9c-1.555.196-4.52.591-7.873 1.149-2.462.409-5.131.905-7.611 1.476-2.484.574-4.768 1.214-6.52 1.953a1.302 1.302 0 0 0-.769.944c-.083.422.048.86.351 1.166.036.036 1.532 1.55 3.984 3.327 2.001 1.448 4.642 3.069 7.669 4.198l-6.833 6.629a1.3 1.3 0 0 0 .623 2.202l15.423 3.428c.907 3.658 2.313 7.283 4.271 10.638 3.153 5.405 7.74 10.11 13.805 13.017a34.707 34.707 0 0 0-3.843 1.798c-1.761.952-3.573 2.1-5.402 3.373a20.335 20.335 0 0 1-3.874-3.993c-1.472-2.012-2.555-4.387-2.547-6.726 0-.723.098-1.447.319-2.179a1.3 1.3 0 0 0-1.541-1.641c-.07.018-7.255 1.696-16.031 6.261-8.768 4.566-19.163 12.027-25.503 23.697a1.298 1.298 0 0 0 .448 1.72c.58.366 1.34.221 1.744-.333.064-.085 1.21-1.566 3.727-3.051 2.52-1.483 6.41-2.984 12.063-3.103.119-.003.234-.004.348-.004 1.325 0 2.369.163 3.178.42 1.214.392 1.899.959 2.365 1.623.46.665.697 1.487.766 2.392.035.459.308.862.72 1.066.413.204.899.176 1.285-.075l.001-.001c.061-.039.972-.612 2.378-1.164a15.64 15.64 0 0 1 4.098-1.005 135.69 135.69 0 0 0-7.396 8.182c-.053-.012-.104-.031-.159-.036a144.35 144.35 0 0 0-12.269-.516c-6.161 0-12.825.379-19.963 1.278a109.422 109.422 0 0 0-10.298 1.776c-10.387 2.135-19.096 5.8-25.596 9.239-1.836.865-3.776 1.479-6.21.967-.605-.175-1.2-.361-1.779-.562-.072.113-.14.229-.211.343-.187.31-.372.62-.554.937l-.02-.007a40.3 40.3 0 0 0-2.233 4.262 32.176 32.176 0 0 0-1.454 3.925 1.3 1.3 0 0 1-2.492-.741c.445-1.5.978-2.908 1.57-4.24 1.352-3.039 3.017-5.687 4.706-8.178.612-.903 1.227-1.784 1.833-2.656 1.479-2.128 2.404-3.751 2.945-5.061.54-1.316.713-2.298.716-3.301 0-.763-.11-1.554-.288-2.486a1.3 1.3 0 0 1 2.554-.487c.137.717.227 1.419.28 2.131 1.295-.568 2.086-1.326 2.617-2.124.698-1.057.923-2.266.922-3.222 0-.242-.014-.465-.037-.659-.15-1.263-.664-2.148-1.385-2.767-.724-.614-1.693-.963-2.807-.965-1.044 0-2.207.314-3.348 1.021a1.3 1.3 0 0 1-1.37-2.21c1.436-.89 2.97-1.342 4.454-1.391-.061-.418-.16-.803-.326-1.129a3.446 3.446 0 0 0-.954-1.15c-.808-.641-1.993-1.029-3.32-1.028a7.673 7.673 0 0 0-3.631.945 1.3 1.3 0 1 1-1.243-2.284 10.26 10.26 0 0 1 4.874-1.261c1.365.001 2.685.291 3.84.886.063.033.12.077.183.112 4.063-2.127 5.495-3.34 4.808-5.678-.834-2.834-5.752-3.798-13.75-.5-6.992 2.882-13.265 7.487-18.538 13.098-1.187-4.793-1.742-9.863-1.742-14.914 0-6.226.824-12.411 2.257-17.967.385-1.498.819-2.946 1.289-4.341-1.113 8.689 2.9 15.535 7.984 18.166 5.25 2.716 12.25 1.89 15.375-5.197 3.125-7.086 2.625-20.433 1.875-28.228-.712-7.398-8.171-8.14-12.35-5.271 4.597-4.978 10.028-9.589 16.27-13.409 10.552-6.456 23.392-10.677 38.437-10.679 2.13 0 4.308.094 6.526.269.105.223.223.437.364.629.683.924 1.624 1.51 2.673 2.077 1.58.838 3.49 1.608 5.465 2.727 1.973 1.117 3.995 2.561 5.783 4.705 1.499 1.797 2.88 3.139 4.2 4.067 1.317.922 2.602 1.458 3.908 1.464a4.223 4.223 0 0 0 1.881-.435c.871-.43 1.564-1.136 2.113-1.994.55-.862.973-1.89 1.313-3.077.183-.643.355-1.375.509-2.166a65.75 65.75 0 0 1 10.108 6.675 63.8 63.8 0 0 0-.128 3.234Zm1.525-13.83a80.258 80.258 0 0 0-1.137 7.501 68.379 68.379 0 0 0-9.954-6.308c.131-1.194.21-2.468.211-3.79-.002-3.17-.446-6.599-1.74-9.733-1.288-3.128-3.476-5.975-6.872-7.757-2.347-1.237-4.768-1.828-7.091-1.828-3.68-.003-7.101 1.49-9.569 4.114-.361.384-.695.797-1.014 1.227a8.852 8.852 0 0 0-6.404-2.746 8.826 8.826 0 0 0-5.084 1.609 8.838 8.838 0 0 0-2.323 2.397c-.055.083-.086.174-.119.264-.889.523-1.636 1.354-2.256 2.394a23.046 23.046 0 0 1-.48-1.825c-.329-1.508-.481-3.536-.48-5.629-.002-2.693.25-5.511.615-7.566l61.61 6.799c-4.298 6.974-6.635 14.518-7.913 20.877Zm29.629-37.006c-8.009 2.672-15.336 6.998-20.107 13.691l-1.431-.158c.233-1.478.72-4.694.977-7.298a7.533 7.533 0 0 0 1.822.24c.614 0 1.238-.088 1.85-.283.501-.16.855-.603.9-1.127.085-.991.177-3.37.178-6.697 0-4.859-.209-11.682-.958-18.739a43.946 43.946 0 0 0 2.476 1.828c5.524 3.788 10.427 5.467 13.279 6.303a16.38 16.38 0 0 0 3.361.616c.298 3.435 1.638 6.891 3.299 10.039-1.905.45-3.796.968-5.646 1.585Zm24.988-3.756c-5.267.001-11.017.478-16.703 1.603-1.946-3.515-3.418-7.435-3.407-10.832 0-1.318.212-2.554.676-3.694.467-1.14 1.183-2.194 2.252-3.162 2.233-2.005 4.436-2.743 6.697-2.753 1.682-.001 3.412.435 5.13 1.19 2.576 1.128 5.106 2.972 7.32 4.962a52.12 52.12 0 0 1 4.39 4.485c-1.969-.919-4.218-1.761-6.7-2.325a1.3 1.3 0 0 0-1.271 2.117c2.37 2.749 3.776 5.759 4.609 8.468a88.371 88.371 0 0 0-2.993-.059Zm52.948 3.991c-.052.149-.108.318-.162.48-.082-.002-.164-.011-.246-.011-.572 0-1.152.059-1.725.174a14.736 14.736 0 0 1 1.059-2.007c.337.474.69.934 1.074 1.364Zm-4.52 5.686c.006-.013.017-.021.022-.035.383-1.029.923-1.604 1.599-2.002.676-.393 1.54-.581 2.491-.58 1.2-.003 2.512.305 3.577.733a8.343 8.343 0 0 1 1.361.683c.358.223.604.451.665.537a1.3 1.3 0 0 0 1.826.219c.473-.371.596-.999.37-1.527.105-.699.205-1.336.295-1.884.125-.756.235-1.358.302-1.669a3.48 3.48 0 0 0-1.127-3.37c.766.356 1.434.819 1.907 1.358.234.248.55.932.734 1.881.193.946.288 2.141.287 3.424a33.784 33.784 0 0 1-.511 5.681c-.314 1.805-.771 3.413-1.213 4.33a6.304 6.304 0 0 1-.869 1.319c-3.378-3.861-7.378-6.808-11.716-9.098Zm-1.344 107.895c-5.513.989-10.705 2.289-14.813 4.059a1.301 1.301 0 0 0 1.03 2.388c3.604-1.558 8.332-2.787 13.413-3.732-.3 2.247-.595 4.528-.887 6.831a30.115 30.115 0 0 0-2.672-1.644 1.3 1.3 0 0 0-1.906.961 7.174 7.174 0 0 1-.914 2.408c-.341.551-.785 1.058-1.352 1.423-.57.363-1.263.61-2.247.613-.175 0-.371-.019-.565-.037-5.828-6.32-12.447-10.535-18.58-13.351.188-.858.386-1.773.58-2.691 1.235.044 2.452.074 3.628.074 10.12 0 18.083-1.598 24.33-4.027.695-.27 1.363-.554 2.016-.843-.357 2.479-.711 5.004-1.061 7.568Zm65.177 39.885c-2.489 1.26-4.915 2.403-7.099 3.295-2.182.893-4.133 1.531-5.606 1.793-.835.15-1.676.272-2.518.36a1.284 1.284 0 0 0-.651.258c-1.699 1.289-2.914 1.619-3.724 1.618a2.563 2.563 0 0 1-1.099-.235 2.977 2.977 0 0 1-1.043-.837c-.029-.036-.05-.067-.075-.101a14.79 14.79 0 0 1 .926-2.231c.763-1.49 1.981-3.203 3.725-4.281a1.3 1.3 0 1 0-1.372-2.208c-2.353 1.468-3.812 3.623-4.708 5.383a17.288 17.288 0 0 0-1.04 2.524c-.434.126-1.067.27-1.697.265-.523.001-1.02-.092-1.424-.302-.403-.215-.753-.522-1.064-1.159a2.607 2.607 0 0 1-.251-1.139c-.005-.85.381-1.933 1.211-3.08.822-1.144 2.063-2.332 3.608-3.403a1.3 1.3 0 0 0-1.482-2.136c-1.744 1.211-3.192 2.573-4.236 4.02-.582.811-1.039 1.656-1.334 2.524-.34-.24-.6-.489-.791-.735a2.487 2.487 0 0 1-.543-1.577c-.009-.948.509-2.177 1.522-3.33 1.003-1.152 2.461-2.208 4.114-2.88 1.938-.793 4.19-1.153 6.599-1.152 4.303-.004 9.084 1.152 13.331 2.812 3.561 1.387 6.745 3.137 8.966 4.774-.751.395-1.501.784-2.245 1.16Z"/><path fill="#191C22" d="M146.188 210.3c0 7 .979 10.792 5.104 12.042 1.799.545 5.208.895 8.396.77 3.187-.125 7.25-.875 9.374-6.125 2.126-5.25 2.563-15.125 2.5-19.5-.062-4.375-2.75-6.562-9.5-6.875-8.305-.384-15.874 5.498-15.874 19.688Zm10.75.25c-1.5.687-2.594-1.875-1.157-2.688 1.754-.991 2.657 2 1.157 2.688Zm6.25-2c-4.626 1.437-8.938-8.688-3.813-11.375 6.636-3.48 8.937 9.782 3.813 11.375ZM214.374 203.55c-.38 2.887-1.466 12.7.451 18.075 1.916 5.375 6.341 6.092 12.174 6.258 6.683.191 9.458-4.125 10.333-9.083s2.917-15.625-4.875-21.25c-6.285-4.537-12.629-3.206-15.524-.977-1.817 1.399-2.142 3.81-2.559 6.977Zm10.375-2c6.636-3.48 8.938 9.782 3.813 11.375-4.625 1.437-8.938-8.688-3.813-11.375Zm-3.593 10.687c1.754-.991 2.656 2 1.156 2.688-1.5.687-2.594-1.875-1.156-2.688ZM146.254 234.686l1.624 4.609a1.298 1.298 0 0 0 1.773.747l6.433-2.985c9.566 1.965 21.297 3.582 33.313 4.539 7.1.565 14.152.832 20.744.832 4.338 0 8.469-.118 12.29-.341l5.883 3.43a1.3 1.3 0 0 0 1.761-.441l2.426-3.931c2.879-.393 5.409-.869 7.485-1.44 2.229-.622 3.946-1.309 5.154-2.267a1.3 1.3 0 1 0-1.63-2.026c-.677.56-2.162 1.229-4.215 1.786-2.055.567-4.686 1.06-7.748 1.457-.387.05-.734.275-.939.607l-2.08 3.37-5.122-2.986a1.283 1.283 0 0 0-.733-.175c-3.871.235-8.094.357-12.532.357-6.522 0-13.509-.264-20.538-.824-12.091-.962-23.914-2.601-33.418-4.577a1.304 1.304 0 0 0-.812.093l-5.518 2.561-1.37-3.888a1.295 1.295 0 0 0-.878-.82c-2.856-.796-5.301-1.622-7.207-2.444-1.906-.815-3.275-1.656-3.931-2.324a1.3 1.3 0 0 0-1.838 1.839c1.086 1.074 2.674 1.975 4.739 2.872 1.905.821 4.231 1.61 6.884 2.37Z"/><path fill="#191C22" d="M183.741 232.695a1.3 1.3 0 0 0 .528-1.761l-.875-1.625a1.3 1.3 0 1 0-2.289 1.233l.875 1.625a1.3 1.3 0 0 0 1.761.528ZM198.755 233.441l1.063-1.875a1.3 1.3 0 1 0-2.262-1.282l-1.063 1.875a1.3 1.3 0 0 0 2.262 1.282ZM171.995 185.846a20.777 20.777 0 0 1 1.059 1.942l.053.115.012.026.002.004a1.3 1.3 0 1 0 2.382-1.042c-.017-.038-.476-1.086-1.297-2.413-.826-1.326-1.993-2.938-3.556-4.109a1.3 1.3 0 0 0-1.552 2.086c1.125.83 2.177 2.217 2.897 3.391ZM218.481 183.763c-1.287.645-2.506 1.583-3.537 2.637-1.028 1.06-1.871 2.222-2.344 3.431a1.3 1.3 0 0 0 2.424.939c.277-.729.934-1.692 1.781-2.554.844-.867 1.875-1.649 2.838-2.128a1.3 1.3 0 1 0-1.162-2.325Z"/></g><defs><clipPath id="a"><path fill="#fff" d="M0 0h377v385H0z"/></clipPath></defs></svg>