<svg width="24" height="24" fill="none" xmlns="http://www.w3.org/2000/svg"><g fill="#191C22"><path d="m20.771 16.383.002.002a.886.886 0 0 1 .227.59v.004l-.001.38v3.202a1.395 1.395 0 0 1-1.296 1.39c-.448.032-.817.049-1.11.049C9.427 22 2 14.572 2 5.407c0-.293.016-.662.048-1.11A1.392 1.392 0 0 1 3.438 3H7.02a.886.886 0 0 1 .882.798c.023.23.044.413.063.544a13.71 13.71 0 0 0 1.192 3.945.842.842 0 0 1-.273 1.047h.001L6.961 10.71a12.825 12.825 0 0 0 6.33 6.33l1.374-1.922a.846.846 0 0 1 1.053-.273c1.247.592 2.576.993 3.943 1.188.134.019.314.04.54.063h.004c.218.023.42.126.566.286v.001Z"/><path fill-rule="evenodd" clip-rule="evenodd" d="M17.2 11.6a4.8 4.8 0 1 0 0-9.6 4.8 4.8 0 0 0 0 9.6Zm-.6-7.266V7.32h1.2V4.334h-1.2Zm0 3.691v1.2h1.2v-1.2h-1.2Z"/></g></svg>