<svg width="200" height="200" viewBox="0 0 200 200" xmlns="http://www.w3.org/2000/svg"><g id="type=wallet-intro, mode=light"><g id="illustrationWalletIntro"><path id="Vector" d="M84.9647 133.479C80.4695 132.8 79.1131 135.005 79.1131 135.005C79.1131 135.005 77.2469 132.545 74.533 132.97C71.8191 133.394 69.2752 135.09 69.2752 135.09C69.2752 135.09 56.2986 133.224 51.9734 132.885C42.262 132.123 38.8274 161.127 49.7684 160.787C60.7088 160.448 72.7518 155.699 72.7518 155.699C72.7518 155.699 80.3856 156.208 86.2371 150.441C92.0897 144.673 90.0535 141.196 87.7635 140.603C87.7635 140.603 89.4598 134.156 84.9647 133.479Z"/><path id="Vector_2" d="M175.969 131.697C175.969 131.697 178.229 128.757 176.081 126.156C173.933 123.555 170.428 125.139 170.428 125.139C170.428 125.139 170.993 122.198 166.243 121.746C161.494 121.294 159.571 126.608 159.571 126.608L147.811 128.644L151.882 151.938L167.035 145.72C170.993 147.416 174.838 146.737 176.194 144.136C177.552 141.535 175.629 139.5 175.629 139.5C175.629 139.5 179.135 137.804 179.248 135.203C179.36 132.602 175.969 131.697 175.969 131.697Z"/><path id="Vector_3" d="M137.859 98.2242C144.192 99.2418 160.25 91.7789 165.339 88.9518C170.428 86.1246 176.986 79.9049 177.552 63.1686C178.117 46.4323 168.166 38.1774 159.685 36.1422C151.203 34.107 119.54 30.0358 109.137 29.4703C98.7334 28.9049 78.8301 35.8024 73.7422 37.8385C68.6533 39.8737 65.3735 46.4322 65.3735 46.4322C65.3735 46.4322 49.6553 52.3131 40.2695 58.3063C33.354 62.7223 32.6929 76.1735 34.7285 78.3219C34.7285 78.3219 34.9546 76.5123 40.835 73.5719C46.7153 70.6324 61.5288 64.0738 61.5288 64.0738C61.5288 64.0738 61.6421 80.2438 78.7178 88.2731C95.793 96.3024 131.753 93.1354 131.753 93.1354C131.753 93.1354 131.527 97.2067 137.859 98.2242Z"/><path id="Vector_4" d="M29.8907 123.989C29.4242 125.893 22.9598 152.589 22.7204 179.656C22.714 180.374 23.2909 180.961 24.0088 180.967C24.7268 180.974 25.3139 180.397 25.3203 179.679H25.3202C25.4398 165.851 27.2204 152.038 28.9729 141.697C29.849 136.525 30.7176 132.221 31.3665 129.213C31.691 127.708 31.9604 126.528 32.1485 125.725C32.2424 125.324 32.3161 125.017 32.366 124.811C32.416 124.605 32.4414 124.504 32.4415 124.504L32.4776 124.273C32.8482 118.641 33.3379 111.104 34.1544 102.401C42.6119 100.345 51.6691 99.4943 60.6415 99.1735C61.359 99.1474 61.9195 98.5448 61.8936 97.8273C61.8677 97.1098 61.265 96.5492 60.5475 96.5753V96.5751C51.7849 96.8959 42.8709 97.7072 34.4177 99.674C34.8182 95.6371 35.2902 91.3803 35.8542 86.9586C38.0245 86.8339 40.2191 86.7582 42.4191 86.7582C48.0907 86.758 53.7748 87.2164 59.0224 88.3407C59.7244 88.4909 60.4153 88.0438 60.5657 87.3419C60.7161 86.64 60.2689 85.9489 59.567 85.7987V85.7985C54.0857 84.6249 48.2304 84.1586 42.4191 84.1583C40.3314 84.1583 38.2524 84.2243 36.1957 84.3344C36.5037 82.0365 36.8375 79.6998 37.1984 77.3341C39.3657 75.8883 41.8014 74.4818 44.3691 73.1312C49.0264 74.4047 53.7551 75.9921 58.5199 77.9184C59.1854 78.1874 59.9431 77.8659 60.2122 77.2003C60.4813 76.5348 60.1599 75.7772 59.4944 75.5082L59.4943 75.5079C55.5615 73.9184 51.6502 72.5556 47.7783 71.4017C51.5417 69.5665 55.4546 67.8634 59.141 66.3534C59.7253 66.1139 60.3012 65.8811 60.8726 65.6511C61.1112 67.8901 61.5124 70.1103 62.0864 72.2536C63.8301 78.7824 68.2059 83.8344 74.1114 87.4392C80.0231 91.0524 87.4789 93.2846 95.6362 94.3173C101.328 95.0366 105.797 95.277 109.579 95.2767C113.322 95.277 116.388 95.0407 119.273 94.8082C122.16 94.5756 124.862 94.348 127.941 94.348C128.611 94.348 129.304 94.362 130.016 94.3859C130.026 94.5724 130.068 94.7587 130.163 94.9337V94.9335C131.003 96.4896 132.245 97.5519 133.571 98.2172C134.901 98.8876 136.31 99.1967 137.627 99.3739L137.629 99.3742C137.857 99.4037 138.086 99.4149 138.329 99.4149C139.298 99.411 140.554 99.2318 142.062 98.9179C143.031 106.509 144.039 114.763 145.084 123.743C145.105 123.926 145.165 124.094 145.252 124.244C145.264 124.293 145.277 124.347 145.296 124.431C146.032 127.557 151.978 153.741 152.2 179.679C152.207 180.396 152.794 180.974 153.512 180.967C154.229 180.961 154.806 180.374 154.8 179.656C154.718 170.328 153.91 161.007 152.871 152.711C158.546 150.854 164.581 148.04 166.681 147.032C167.988 147.635 169.796 148.092 171.671 148.1C172.828 148.097 174.015 147.921 175.095 147.385C175.632 147.117 176.14 146.752 176.566 146.277C176.993 145.804 177.332 145.222 177.544 144.562C177.771 143.86 177.879 143.203 177.878 142.595C177.88 141.821 177.7 141.129 177.418 140.567C177.367 140.467 177.307 140.384 177.251 140.292C177.258 140.289 177.264 140.287 177.271 140.285C177.971 139.983 178.727 139.523 179.344 138.791C179.964 138.064 180.403 137.054 180.465 135.868V135.866C180.472 135.751 180.475 135.637 180.475 135.522C180.48 134.413 180.142 133.444 179.618 132.722C178.948 131.796 178.074 131.289 177.311 130.976C177.806 130.015 178.055 129.066 178.056 128.154C178.057 127.387 177.878 126.661 177.561 126.03C177.085 125.082 176.319 124.358 175.443 123.877C174.564 123.395 173.566 123.143 172.547 123.142C172.014 123.142 171.475 123.222 170.947 123.371C170.869 123.194 170.789 123.017 170.694 122.849C170.224 122.014 169.549 121.293 168.703 120.796C167.721 120.217 166.652 119.911 165.586 119.912C164.087 119.908 162.641 120.52 161.457 121.584C160.423 122.509 159.575 123.784 158.918 125.33C157.078 125.622 152.211 126.399 148.538 127.025C148.057 124.786 147.751 123.518 147.749 123.507C147.73 123.427 147.682 123.365 147.649 123.292C146.877 116.654 146.124 110.414 145.392 104.541C156.393 106.22 170.289 109.557 180.452 114.883C181.088 115.216 181.874 114.971 182.207 114.335C182.54 113.698 182.294 112.913 181.658 112.58C170.81 106.912 156.354 103.54 145.056 101.861C144.905 100.666 144.756 99.4833 144.607 98.3197C147.39 97.5951 150.705 96.5368 154.124 95.223C167.165 96.4147 178.144 98.3185 185.916 100.729C186.602 100.942 187.33 100.558 187.543 99.8725C187.755 99.1867 187.372 98.4584 186.686 98.246C179.633 96.0617 170.238 94.3241 159.173 93.1161C161.808 91.9215 164.381 90.5946 166.701 89.1647C166.769 89.1288 166.839 89.0973 166.906 89.0604C169.05 87.881 170.86 86.2558 172.381 84.3124C172.389 84.3126 172.396 84.3175 172.405 84.3178V84.3175C175.808 84.391 178.938 84.5761 181.669 84.8505C182.384 84.922 183.021 84.4013 183.093 83.6869C183.164 82.9725 182.643 82.3351 181.929 82.2636C179.57 82.0265 176.93 81.8607 174.099 81.7677C174.517 81.0502 174.915 80.3124 175.272 79.5375C177.172 75.4144 178.254 70.5114 178.677 65.2038C178.746 64.3393 178.779 63.4804 178.779 62.6295C178.777 55.9508 176.737 49.7648 173.629 44.944C170.516 40.131 166.342 36.6339 161.871 35.4743C159.777 34.9381 156.251 34.2355 151.903 33.4694C146.688 32.5509 140.313 31.5504 133.952 30.6767C133.997 30.4945 134.012 30.3034 133.972 30.1073C132.078 20.911 131.014 17.6557 130.993 17.5912C130.878 17.2382 130.618 16.9528 130.277 16.8046C129.937 16.6561 129.551 16.6603 129.213 16.8161C129.082 16.8764 123.593 19.4376 114.182 28.1662C114.075 28.2653 114.003 28.3851 113.937 28.5065C112.236 28.4017 110.697 28.3424 109.379 28.3419C108.643 28.3419 107.972 28.3595 107.368 28.3993C104.971 28.5553 102.699 28.7782 100.431 29.0968C100.428 29.0973 100.425 29.0961 100.422 29.0966C100.417 29.0973 100.413 29.099 100.408 29.0997C97.8488 29.4599 95.2949 29.9428 92.5773 30.6085C90.8717 31.0263 89.0921 31.5211 87.2143 32.0907C87.113 32.0612 87.0159 32.0206 86.9056 32.0167C79.0608 31.734 72.2029 31.5126 70.2156 31.4491L54.9134 12.4838C54.6323 12.1354 54.1973 11.9574 53.7527 12.0087C53.3082 12.06 52.925 12.3322 52.7306 12.7355C45.9524 26.8002 41.2685 42.7638 37.9695 58.4079C37.9477 58.5109 37.964 58.6098 37.9668 58.7103C37.5133 59.0919 36.9344 59.6413 36.3149 60.4C35.0275 61.975 33.5967 64.4423 32.8824 67.9696C27.2413 67.0541 21.7485 66.6002 16.4771 66.6C14.7122 66.6 12.9719 66.65 11.2585 66.7494C10.5417 66.7909 9.99438 67.4057 10.0359 68.1225C10.0775 68.8393 10.6923 69.3866 11.4091 69.3451C13.0711 69.2484 14.7613 69.1998 16.4771 69.1998C21.5959 69.1996 26.9436 69.6405 32.4463 70.5326C32.2382 72.0004 32.1265 73.3095 32.1261 74.4437C32.129 75.9804 32.305 77.2311 32.7226 78.2677C32.933 78.7846 33.2104 79.2501 33.5755 79.64C33.7483 79.8256 33.9451 79.9884 34.1548 80.1308C33.9428 81.6037 33.7436 83.059 33.5519 84.5028C29.2717 84.8209 25.1376 85.3353 21.3412 85.9567C14.9647 87.0011 9.53881 88.331 5.90099 89.5053C5.21764 89.7257 4.84258 90.4586 5.06328 91.142C5.28398 91.8253 6.01683 92.2003 6.70018 91.9799C10.1696 90.8583 15.5045 89.546 21.7612 88.5224C25.3291 87.9381 29.2045 87.4528 33.2089 87.1381C32.6272 91.7428 32.1442 96.1684 31.7376 100.344C25.5961 101.979 19.7369 104.273 14.4168 107.522C13.8042 107.897 13.6113 108.697 13.9859 109.309C14.3605 109.922 15.1607 110.115 15.7733 109.74C20.5618 106.808 25.8672 104.665 31.4772 103.101C30.7141 111.394 30.2474 118.57 29.8907 123.989ZM155.883 128.449C158.267 128.065 160.071 127.78 160.075 127.779C160.626 127.693 161.031 127.269 161.137 126.753C161.695 125.283 162.425 124.203 163.189 123.523C163.989 122.815 164.788 122.515 165.586 122.512C166.159 122.513 166.755 122.669 167.387 123.038C167.799 123.279 168.169 123.661 168.428 124.124C168.689 124.585 168.835 125.119 168.834 125.638C168.821 126.442 168.535 127.197 167.672 127.88C167.104 128.319 167.001 129.136 167.44 129.704C167.88 130.271 168.697 130.375 169.264 129.935C170.642 128.882 171.336 127.396 171.418 125.962C171.776 125.828 172.156 125.742 172.547 125.742C173.324 125.739 174.103 126.015 174.628 126.45C174.893 126.667 175.097 126.917 175.236 127.195C175.375 127.475 175.455 127.782 175.456 128.154C175.457 128.828 175.173 129.773 174.231 130.96C173.931 131.336 173.864 131.847 174.057 132.288C174.248 132.727 174.665 133.024 175.142 133.064L175.149 133.065C175.198 133.066 176.013 133.169 176.682 133.541C177.026 133.729 177.322 133.969 177.525 134.265C177.726 134.565 177.871 134.924 177.875 135.522L177.869 135.721C177.825 136.388 177.629 136.782 177.355 137.117C176.948 137.613 176.237 137.952 175.586 138.123C175.265 138.209 174.97 138.257 174.764 138.282C174.661 138.294 174.581 138.3 174.53 138.304L174.477 138.307H174.475C173.84 138.322 173.311 138.791 173.22 139.421C173.129 140.043 173.497 140.635 174.091 140.835L174.09 140.838C174.098 140.838 174.456 140.981 174.741 141.259C174.885 141.397 175.015 141.563 175.111 141.77C175.207 141.979 175.277 142.232 175.278 142.595C175.278 142.898 175.226 143.281 175.07 143.762C174.962 144.092 174.816 144.334 174.632 144.54C174.357 144.846 173.974 145.083 173.463 145.25C172.955 145.417 172.331 145.5 171.671 145.5C170.314 145.507 168.81 145.134 167.9 144.731C167.532 144.238 166.871 144.044 166.299 144.327C166.299 144.327 166.183 144.385 165.957 144.495C164.462 145.222 158.28 148.16 152.53 150.086C151.387 141.58 150.043 134.336 149.071 129.572C151.221 129.206 153.776 128.789 155.883 128.449ZM142.804 96.091C140.796 96.5731 139.162 96.8202 138.329 96.8151C138.172 96.8151 138.047 96.8068 137.97 96.7963C136.814 96.6434 135.688 96.3756 134.745 95.8969C134.092 95.5631 133.53 95.1349 133.049 94.5597C133.094 94.5634 133.136 94.5656 133.181 94.5692C133.896 94.6286 134.524 94.0968 134.584 93.3812C134.643 92.6659 134.111 92.0377 133.396 91.9784C131.417 91.8139 129.622 91.7482 127.941 91.7482C124.732 91.7482 121.942 91.985 119.064 92.2167C116.185 92.4486 113.213 92.6766 109.579 92.6769C105.909 92.6767 101.559 92.4445 95.962 91.7379C88.0724 90.7431 80.949 88.5775 75.4684 85.2211C74.0579 84.3561 72.7616 83.4137 71.5806 82.3974C72.6301 82.1332 73.5549 81.8202 74.3457 81.4447C75.5232 80.8861 76.4421 80.1935 77.1275 79.4013C77.7282 78.7099 78.1423 77.9513 78.424 77.1928C78.9162 75.8615 79.0331 74.5438 79.1643 73.3446C79.2592 72.444 79.3579 71.6076 79.5574 70.8737C79.7068 70.3219 79.9074 69.83 80.1981 69.3786C80.6366 68.7057 81.277 68.0871 82.4303 67.5175C83.5742 66.9557 85.2289 66.4735 87.5668 66.1754C88.029 69.5624 88.9199 72.9354 90.4233 75.9567C91.6365 78.3886 93.2572 80.5929 95.3808 82.3395C97.5019 84.0866 100.125 85.361 103.255 85.9486C108.031 86.8476 118.166 88.1664 128.796 89.2706C139.33 90.3632 150.286 91.2389 156.944 91.256C154.558 92.2948 152.138 93.2301 149.845 94.0148C147.251 94.9039 144.821 95.6107 142.804 96.091ZM126.637 21.3925C127.595 20.7431 128.367 20.2626 128.957 19.9149C129.418 21.6173 130.236 24.8856 131.362 30.3278C130.645 30.2333 129.928 30.1386 129.217 30.0485C125.014 29.5167 120.963 29.0673 117.388 28.7626C121.318 25.2294 124.447 22.8769 126.637 21.3925ZM93.1955 33.1339C93.3514 33.0958 93.5019 33.0636 93.6567 33.0268C92.4106 34.2255 91.3312 35.6159 90.82 37.2257C90.6058 37.9108 90.9876 38.64 91.6729 38.8544C92.3582 39.0687 93.0874 38.6867 93.3017 38.0016V38.0014C93.5066 37.339 93.9371 36.6032 94.5297 35.8878C95.415 34.8129 96.6517 33.7919 97.8582 33.0294C98.4607 32.6476 99.0555 32.3285 99.5853 32.0934C100.089 31.8683 100.535 31.7248 100.841 31.6649C103.018 31.3605 105.208 31.1464 107.538 30.9938C108.067 30.9589 108.685 30.9418 109.379 30.9418C112.31 30.9411 116.549 31.2504 121.348 31.7509C128.55 32.5014 137.032 33.6784 144.461 34.8612C151.882 36.0416 158.286 37.2374 161.225 37.9928C164.816 38.9003 168.608 41.9403 171.444 46.3532C174.287 50.7582 176.181 56.4865 176.179 62.6295C176.179 63.4127 176.148 64.2028 176.085 64.9979C175.552 71.7772 173.871 77.7252 170.955 81.8934C169.497 83.9816 167.744 85.631 165.652 86.7826C165.606 86.808 165.558 86.8297 165.511 86.8546C165.501 86.8605 165.489 86.8602 165.48 86.8663C165.463 86.8766 165.445 86.8861 165.429 86.8964C163.386 87.9735 161.017 88.5973 158.226 88.6488L158.229 88.6486C157.878 88.6542 157.512 88.6576 157.13 88.6576C150.697 88.6591 139.639 87.7833 129.064 86.6845C118.491 85.5878 108.344 84.2633 103.736 83.3937C101.012 82.8781 98.8282 81.8056 97.0323 80.3312C94.344 78.1227 92.5174 74.9594 91.3677 71.3632C90.218 67.7726 89.7578 63.7736 89.759 60.0211C89.7586 57.0602 90.0436 54.2518 90.4801 51.9264C90.6124 51.2206 90.1476 50.5414 89.4419 50.4091C88.7363 50.2768 88.057 50.7416 87.9247 51.4474V51.4472C87.4572 53.9415 87.1593 56.8935 87.1589 60.0211C87.1598 61.1913 87.2097 62.3881 87.3006 63.5922C87.2933 63.5932 87.2867 63.5897 87.2794 63.5907V63.5905C85.0229 63.8769 83.2493 64.3263 81.8257 64.9357C80.582 65.4677 79.6039 66.131 78.86 66.9022C78.2086 67.5753 77.7459 68.3251 77.4271 69.0829C76.8691 70.4142 76.7239 71.747 76.5903 72.9628C76.4934 73.8766 76.4068 74.7306 76.2271 75.484C76.0929 76.0504 75.9108 76.5573 75.6464 77.0177C75.2462 77.705 74.6718 78.3212 73.6149 78.9008C72.6557 79.4227 71.282 79.8868 69.3661 80.2121C67.1241 77.7287 65.4819 74.8715 64.5978 71.5809C63.9978 69.3412 63.589 67.0036 63.3808 64.6542C65.5209 63.8139 67.5202 63.0521 69.2877 62.3827C72.1858 61.2846 74.4482 60.4403 75.7735 59.8612C77.1915 59.2411 78.3437 58.5346 79.2776 57.7277C80.6824 56.5204 81.5603 55.0819 82.1053 53.5653C82.6542 52.0453 82.9067 50.452 83.1583 48.766C83.2651 48.0441 83.327 47.37 83.3273 46.7326C83.3266 46.0502 83.257 45.4064 83.0704 44.7958C82.8028 43.8834 82.1963 43.0387 81.3304 42.5448C80.4684 42.0451 79.4546 41.8617 78.2921 41.8598C77.3317 41.8602 76.251 41.9887 75.0036 42.2311C73.6115 42.5026 71.4946 43.0678 68.8569 43.9066C68.6865 43.9608 68.5024 44.0228 68.3277 44.0795C70.1045 41.8551 72.3514 40.12 75.1525 39.0477C82.6037 36.2028 88.2154 34.3527 93.1955 33.1339ZM54.2109 15.7536L68.5667 33.546C68.8058 33.8424 69.1568 34.017 69.5376 34.0292C69.5427 34.0292 71.5258 34.0917 74.6797 34.1959C76.2821 34.2489 78.1874 34.3131 80.2832 34.3851C78.3886 35.057 76.3884 35.7929 74.2251 36.6188C69.9707 38.2392 66.7715 41.2316 64.5847 44.9291C64.4924 45.0849 64.4371 45.2518 64.4147 45.4205C57.4463 47.932 48.6142 51.7567 41.0315 56.6083C44.1153 42.5556 48.3552 28.393 54.2109 15.7536ZM38.3294 62.0438C38.8644 61.3881 39.3563 60.9315 39.7026 60.6459C39.8758 60.5033 40.0125 60.4032 40.0996 60.3429L40.1913 60.2814L40.2062 60.2719L40.2774 60.226C46.4935 55.9162 54.0456 52.2858 60.6747 49.6246C63.9894 48.2934 67.0743 47.2025 69.6455 46.3842C72.2132 45.5661 74.2817 45.0194 75.5004 44.7831C76.6365 44.5612 77.5683 44.4591 78.2921 44.4596C78.8794 44.4591 79.326 44.527 79.6379 44.6259C80.1088 44.7865 80.2705 44.9408 80.4379 45.2103C80.599 45.4838 80.7293 45.9789 80.7272 46.7326C80.7275 47.1984 80.6801 47.7533 80.5864 48.3849C80.2616 50.6098 79.9305 52.3991 79.1576 53.809C78.7706 54.5189 78.2783 55.1535 77.5779 55.7601C76.8775 56.3651 75.961 56.9411 74.7313 57.4791C73.5406 58.0011 71.2616 58.8554 68.3667 59.9513C64.0171 61.599 58.2422 63.8102 52.3508 66.4152C49.5668 67.6469 46.7608 68.9677 44.0593 70.359C41.1588 69.5919 38.2849 68.944 35.446 68.4159C36.0798 65.3607 37.2867 63.3246 38.3294 62.0438ZM40.6661 72.185C38.8857 73.185 37.1754 74.2138 35.5957 75.2733C35.3873 75.413 35.254 75.6107 35.1576 75.8236C35.0358 75.9201 34.9276 76.0333 34.8461 76.1684C34.7716 75.6884 34.7256 75.1176 34.7261 74.4437C34.7256 73.4855 34.8227 72.317 35.009 70.9794C36.879 71.328 38.7654 71.7304 40.6661 72.185Z"/><path id="Vector_5" d="M117.203 103.668C116.639 104.143 115.987 104.602 115.319 104.928C114.65 105.255 113.976 105.444 113.346 105.443C112.882 105.441 112.434 105.349 111.957 105.113C111.48 104.876 110.967 104.485 110.428 103.845C109.966 103.295 109.146 103.225 108.596 103.687C108.047 104.149 107.976 104.969 108.438 105.519C109.166 106.385 109.96 107.025 110.799 107.441C111.637 107.859 112.513 108.044 113.346 108.043C114.505 108.041 115.571 107.704 116.504 107.242C117.906 106.545 119.047 105.562 119.864 104.753C119.948 104.67 120.026 104.59 120.102 104.511C120.185 104.599 120.272 104.688 120.365 104.778C120.779 105.18 121.288 105.597 121.909 105.929C122.526 106.26 123.271 106.509 124.105 106.509C124.803 106.511 125.547 106.327 126.25 105.936C126.955 105.546 127.62 104.964 128.255 104.181C128.707 103.622 128.62 102.804 128.062 102.352C127.504 101.9 126.686 101.987 126.234 102.545C125.763 103.127 125.34 103.468 124.992 103.66C124.642 103.851 124.369 103.907 124.105 103.909C123.794 103.909 123.473 103.817 123.135 103.637C122.63 103.371 122.13 102.902 121.784 102.496C121.61 102.295 121.473 102.111 121.383 101.984L121.284 101.839L121.263 101.806H121.262C121.038 101.438 120.646 101.205 120.216 101.184C119.787 101.163 119.374 101.356 119.115 101.699L119.114 101.701C119.098 101.724 118.33 102.722 117.203 103.668Z"/><path id="Vector_6" d="M36.6938 159.376C36.7638 160.091 37.3998 160.613 38.1144 160.543L44.6862 159.899C45.0457 160.23 45.4266 160.539 45.8514 160.795C46.9925 161.488 48.3602 161.866 49.8721 161.863C50.1293 161.863 50.3912 161.853 50.6577 161.832C62.0899 160.914 71.443 157.597 73.107 156.981C73.5475 157.018 73.9869 157.051 74.4171 157.051C77.8001 157.052 80.7726 155.93 83.2491 154.411C85.7294 152.891 87.74 150.972 89.2804 149.293C90.8888 147.539 91.6595 145.692 91.6617 143.993C91.6649 142.715 91.2069 141.533 90.3874 140.69C89.9451 140.23 89.3952 139.889 88.7906 139.663C89.0754 138.965 89.2595 138.219 89.2614 137.428C89.2643 136.484 89.0005 135.497 88.4296 134.605C87.8657 133.717 87.1295 133.019 86.2903 132.556C85.4519 132.09 84.5175 131.862 83.5801 131.863C82.1088 131.863 80.6402 132.413 79.3749 133.415C79.2595 133.295 79.1433 133.177 79.012 133.067C77.8631 132.116 76.3743 131.653 74.8453 131.65C73.3522 131.65 71.7919 132.103 70.4718 133.101C70.2719 133.251 70.0809 133.418 69.895 133.594C68.9414 133.442 58.9235 131.847 52.4648 131.368L52.4741 131.369C52.3102 131.355 52.1495 131.35 51.9926 131.35C50.2318 131.347 48.632 132.091 47.3174 133.225C47.3039 133.237 47.2916 133.25 47.2781 133.262C47.2703 133.261 47.2643 133.256 47.2564 133.255L40.17 132.347C39.4578 132.255 38.8065 132.759 38.7153 133.471C38.624 134.183 39.1273 134.834 39.8394 134.926L45.2153 135.615C44.2468 137.017 43.4514 138.66 42.8206 140.428C41.7888 143.343 41.2158 146.602 41.2142 149.704C41.2193 152.545 41.6962 155.257 42.8512 157.467L37.8608 157.956C37.1463 158.026 36.6238 158.662 36.6938 159.376ZM46.3247 138.827C47.1035 137.295 48.0342 136.033 49.0104 135.198C49.9947 134.36 50.9709 133.952 51.9926 133.949C52.085 133.949 52.1751 133.953 52.2638 133.96L52.2731 133.961C55.5557 134.203 59.8925 134.757 63.3922 135.25C65.143 135.496 66.6868 135.727 67.792 135.897C67.9493 135.921 68.095 135.943 68.2338 135.965C68.0162 136.451 67.8369 136.973 67.7068 137.535C66.4446 137.83 65.3119 138.427 64.4203 139.278C63.1193 140.512 62.3377 142.274 62.3417 144.22C62.3416 145.043 62.4788 145.897 62.7604 146.757C62.9836 147.439 63.7178 147.812 64.4002 147.588C65.0826 147.365 65.4547 146.631 65.2314 145.949V145.948C65.0302 145.333 64.9418 144.755 64.9417 144.22C64.9457 142.957 65.4213 141.921 66.2143 141.16C67.0101 140.403 68.1386 139.926 69.5032 139.924C69.7488 139.924 70.0013 139.939 70.2603 139.973L70.2635 139.974C71.2768 140.108 71.8517 140.475 72.2256 140.901C72.5958 141.329 72.7744 141.872 72.7753 142.426C72.7798 143.167 72.4347 143.84 71.9965 144.13C71.4062 144.539 71.2595 145.349 71.6685 145.939C72.0776 146.53 72.8876 146.676 73.4778 146.267C74.751 145.371 75.3707 143.901 75.3752 142.426C75.3762 141.312 75.0087 140.147 74.1938 139.202C73.3832 138.255 72.1348 137.585 70.5934 137.395C70.5508 137.389 70.5099 137.391 70.4675 137.386C70.8351 136.384 71.3879 135.673 72.0412 135.174C72.8653 134.548 73.8744 134.25 74.8453 134.25C75.8395 134.247 76.7634 134.571 77.347 135.064C77.6558 135.323 77.8622 135.632 78.007 136.004C78.1502 136.374 78.2196 136.807 78.2191 137.24C78.2197 137.673 78.1498 138.104 78.0466 138.448C77.9493 138.79 77.798 139.049 77.7572 139.089C77.2979 139.641 77.3731 140.46 77.9251 140.92C78.4771 141.379 79.2969 141.304 79.7562 140.752C80.1273 140.297 80.3572 139.782 80.5381 139.191C80.7132 138.602 80.8184 137.941 80.8191 137.24C80.8187 136.758 80.7633 136.256 80.6407 135.752C81.598 134.863 82.6561 134.461 83.5801 134.462C84.1025 134.463 84.5865 134.585 85.0305 134.83C85.4737 135.077 85.8838 135.45 86.236 136.001C86.5427 136.488 86.6586 136.944 86.6615 137.428C86.6649 138.134 86.3729 138.931 85.8537 139.661C85.3405 140.39 84.6108 141.032 83.9007 141.421C83.2721 141.768 83.0438 142.559 83.391 143.188C83.7381 143.816 84.529 144.044 85.1576 143.697C85.9433 143.261 86.6794 142.675 87.3155 141.976C87.8311 142.012 88.2242 142.198 88.519 142.498C88.8375 142.831 89.0584 143.314 89.0617 143.993C89.0638 144.884 88.6449 146.137 87.3637 147.536C85.9227 149.11 84.0721 150.859 81.8911 152.194C79.7061 153.531 77.2169 154.451 74.4171 154.451C73.9675 154.451 73.5079 154.427 73.038 154.378C72.8336 154.356 72.622 154.384 72.4304 154.459L72.3284 154.497C71.256 154.903 61.8495 158.331 50.4509 159.24C50.2517 159.256 50.0587 159.263 49.8721 159.263C48.7781 159.261 47.9232 159.007 47.1961 158.57C46.1136 157.917 45.2685 156.786 44.6853 155.235C44.1043 153.691 43.8127 151.761 43.8142 149.704C43.8088 145.999 44.7582 141.887 46.3247 138.827Z"/><path id="Vector_7" d="M111.672 38.7965L113.739 36.774C114.252 36.2718 114.261 35.4488 113.758 34.9356C113.256 34.4225 112.433 34.4137 111.92 34.9159L109.854 36.9383C109.34 37.4405 109.332 38.2635 109.834 38.7767C110.336 39.2899 111.159 39.2987 111.672 38.7965Z"/><path id="Vector_8" d="M111.856 75.541C111.24 75.9084 111.038 76.7065 111.405 77.3232L112.768 79.6103C113.136 80.227 113.934 80.4289 114.551 80.0613C115.168 79.6938 115.369 78.8957 115.002 78.279L113.639 75.9919C113.271 75.3752 112.473 75.1733 111.856 75.541Z"/><path id="Vector_9" d="M164.367 45.7885C164.874 46.2963 165.697 46.2965 166.205 45.789C166.713 45.2814 166.713 44.4584 166.206 43.9503L164.667 42.4103C164.159 41.9025 163.336 41.9023 162.828 42.4098C162.32 42.9174 162.32 43.7404 162.828 44.2484L164.367 45.7885Z"/><path id="Vector_10" d="M162.51 85.2847L164.445 84.0532C165.051 83.668 165.23 82.8643 164.844 82.2586C164.459 81.6528 163.655 81.4741 163.05 81.8596L161.114 83.0911C160.508 83.4763 160.33 84.28 160.715 84.8858C161.1 85.4915 161.904 85.6702 162.51 85.2847Z"/></g></g></svg>