<svg xmlns="http://www.w3.org/2000/svg" width="200" height="200" fill="none"><path fill="#BEBEC9" d="M59.567 85.798c-5.481-1.173-11.337-1.64-17.148-1.64-7.387 0-14.703.755-21.078 1.799C14.965 87 9.54 88.33 5.901 89.505a1.3 1.3 0 1 0 .8 2.475c3.469-1.122 8.804-2.434 15.06-3.458 6.259-1.025 13.448-1.764 20.658-1.764 5.672 0 11.356.458 16.603 1.583a1.3 1.3 0 0 0 .545-2.542ZM60.547 96.575c-16.142.59-32.81 2.813-46.131 10.947a1.3 1.3 0 1 0 1.357 2.218c12.648-7.747 28.893-9.995 44.868-10.567a1.3 1.3 0 0 0-.094-2.598ZM133.971 30.107c-1.894-9.196-2.956-12.451-2.977-12.515a1.3 1.3 0 0 0-1.78-.776c-.132.06-5.621 2.622-15.033 11.35a1.3 1.3 0 0 0 1.768 1.907c4.615-4.28 8.236-7.018 10.688-8.68a43.7 43.7 0 0 1 2.32-1.478c.47 1.735 1.308 5.087 2.468 10.717a1.3 1.3 0 1 0 2.546-.525ZM86.907 32.017c-7.845-.283-14.703-.504-16.69-.568L54.914 12.484a1.295 1.295 0 0 0-1.16-.475 1.295 1.295 0 0 0-1.022.726C45.953 26.8 41.269 42.764 37.97 58.409a1.3 1.3 0 0 0 2.544.536c3.12-14.81 7.517-29.85 13.697-43.19l14.356 17.792c.239.296.59.471.97.483a4237.395 4237.395 0 0 1 17.274.586 1.3 1.3 0 0 0 .095-2.598Z"/><path fill="#BEBEC9" d="M35.576 77.075a1.3 1.3 0 0 0-1.475 1.096c-2.712 18.434-3.541 35.625-4.21 45.819-.469 1.913-6.93 28.603-7.17 55.666a1.3 1.3 0 1 0 2.6.023c.12-13.828 1.9-27.641 3.652-37.982a287.386 287.386 0 0 1 2.394-12.484 202.54 202.54 0 0 1 1-4.402l.075-.307.036-.231c.672-10.217 1.495-27.372 4.195-45.723a1.3 1.3 0 0 0-1.097-1.475ZM128.062 102.353a1.3 1.3 0 0 0-1.828.193v-.001c-.472.583-.895.924-1.243 1.116-.35.191-.623.247-.886.249-.311 0-.632-.092-.97-.272-.504-.266-1.005-.735-1.35-1.14a6.809 6.809 0 0 1-.402-.513l-.098-.145-.021-.032-.001-.001a1.299 1.299 0 0 0-2.147-.107l-.001.002a13.877 13.877 0 0 1-1.912 1.967c-.563.475-1.215.934-1.884 1.26-.669.327-1.343.516-1.973.515a3.07 3.07 0 0 1-1.39-.33c-.476-.237-.99-.628-1.529-1.268a1.299 1.299 0 1 0-1.989 1.674c.728.866 1.522 1.506 2.361 1.922a5.684 5.684 0 0 0 2.547.602c1.159-.002 2.225-.339 3.159-.801 1.401-.697 2.542-1.68 3.359-2.489.084-.083.162-.163.238-.242.084.088.17.177.263.267.414.402.923.819 1.543 1.151.618.331 1.363.58 2.197.58a4.412 4.412 0 0 0 2.144-.573c.705-.39 1.371-.972 2.005-1.756a1.3 1.3 0 0 0-.192-1.828Z"/><path fill="#FFE632" d="M177.311 130.978c.495-.962.744-1.911.745-2.823a4.71 4.71 0 0 0-.496-2.123c-.476-.949-1.242-1.673-2.118-2.154a6.033 6.033 0 0 0-2.895-.734c-.533 0-1.072.08-1.6.229a6.002 6.002 0 0 0-.253-.523 5.493 5.493 0 0 0-1.992-2.053c-.982-.578-2.051-.885-3.116-.884-1.499-.003-2.945.609-4.129 1.672-1.034.926-1.882 2.201-2.538 3.747a978.242 978.242 0 0 0-11.116 1.82 1.3 1.3 0 0 0 .442 2.563v-.001c2.295-.396 5.255-.879 7.638-1.264 2.384-.384 4.187-.668 4.191-.669.551-.087.956-.51 1.062-1.025.559-1.471 1.289-2.551 2.053-3.232.8-.708 1.599-1.008 2.397-1.011.573.001 1.168.157 1.801.527.412.24.781.622 1.041 1.085.26.461.406.995.405 1.514-.012.803-.298 1.559-1.162 2.242a1.3 1.3 0 0 0 1.593 2.056c1.377-1.054 2.071-2.539 2.153-3.974a3.234 3.234 0 0 1 1.13-.219c.777-.003 1.556.272 2.081.707.264.217.468.468.608.746.139.279.219.586.22.958 0 .676-.284 1.62-1.225 2.806a1.3 1.3 0 0 0 .91 2.104v.001h.007c.05.001.865.104 1.534.477.344.187.64.427.843.724.202.3.346.659.35 1.257l-.005.198c-.044.667-.24 1.061-.515 1.396-.406.496-1.118.835-1.768 1.006a5.774 5.774 0 0 1-1.057.181l-.052.003h-.002a1.298 1.298 0 0 0-.384 2.529l-.001.003c.008-.001.365.142.65.42.144.139.274.305.37.512a1.9 1.9 0 0 1 .167.825c0 .302-.053.686-.208 1.168a2.1 2.1 0 0 1-.437.776c-.275.306-.659.544-1.17.711-.508.166-1.132.25-1.792.249-1.357.007-2.86-.365-3.77-.768-.368-.494-1.03-.688-1.601-.405l-.343.168c-1.576.767-8.36 3.991-14.354 5.897a1.3 1.3 0 1 0 .788 2.478c5.81-1.852 12.132-4.802 14.291-5.838 1.306.603 3.114 1.06 4.989 1.068 1.157-.003 2.344-.179 3.424-.714a4.933 4.933 0 0 0 1.472-1.108 4.715 4.715 0 0 0 .977-1.715c.227-.703.335-1.359.334-1.967a4.5 4.5 0 0 0-.46-2.028c-.051-.1-.111-.183-.167-.275l.02-.008c.7-.302 1.456-.762 2.074-1.494.619-.727 1.059-1.737 1.121-2.922v-.006c.006-.111.009-.225.009-.34.006-1.109-.333-2.079-.857-2.801-.67-.925-1.544-1.433-2.307-1.745Z"/><path fill="#BEBEC9" d="M181.657 112.581c-10.847-5.668-25.304-9.04-36.601-10.719-.17-1.351-.339-2.688-.507-3.998a1.3 1.3 0 0 0-2.579.33c.997 7.787 2.037 16.285 3.114 25.55.022.182.081.35.167.499l.045.189c.735 3.126 6.682 29.31 6.904 55.248a1.3 1.3 0 1 0 2.6-.023c-.248-28.055-7.042-56.097-7.051-56.149-.019-.079-.067-.14-.099-.211-.773-6.64-1.526-12.881-2.258-18.755 11 1.679 24.897 5.016 35.06 10.342a1.299 1.299 0 1 0 1.205-2.303ZM172.405 84.319c3.403.073 6.532.258 9.265.532a1.3 1.3 0 0 0 .26-2.587c-2.813-.282-6.006-.47-9.469-.545a1.3 1.3 0 0 0-.056 2.6ZM186.686 98.247c-8.072-2.5-19.21-4.415-32.412-5.62a1.3 1.3 0 0 0-.236 2.589c13.08 1.19 24.089 3.098 31.878 5.514a1.3 1.3 0 1 0 .77-2.483ZM39.84 134.925l7.086.909a1.3 1.3 0 0 0 .33-2.579l-7.086-.908a1.3 1.3 0 1 0-.33 2.578ZM38.115 160.543l6.729-.659a1.3 1.3 0 0 0-.254-2.588l-6.728.66a1.3 1.3 0 1 0 .253 2.587Z"/><path fill="#FFE632" d="M88.79 139.662c.286-.697.47-1.443.471-2.234a5.21 5.21 0 0 0-.831-2.823c-.564-.888-1.3-1.586-2.14-2.05a5.569 5.569 0 0 0-2.71-.693c-1.47.001-2.94.551-4.205 1.553a4.461 4.461 0 0 0-.363-.348c-1.149-.951-2.637-1.414-4.166-1.417a7.253 7.253 0 0 0-4.373 1.45c-.2.151-.391.318-.577.494-.95-.152-10.97-1.747-17.431-2.226h.009a6.143 6.143 0 0 0-.481-.018c-1.761-.003-3.36.741-4.675 1.875-1.98 1.71-3.458 4.29-4.497 7.202a28.409 28.409 0 0 0-1.606 9.276c.005 3.061.548 5.98 1.908 8.274.682 1.143 1.586 2.128 2.73 2.818 1.14.693 2.508 1.07 4.02 1.068.257 0 .52-.011.786-.032 11.432-.917 20.785-4.234 22.45-4.85.44.037.879.07 1.309.07 3.383.001 6.355-1.121 8.832-2.64 2.48-1.521 4.49-3.439 6.031-5.118 1.609-1.755 2.38-3.602 2.381-5.3.004-1.278-.454-2.46-1.274-3.303a4.277 4.277 0 0 0-1.597-1.028Zm-1.425 7.874c-1.442 1.573-3.292 3.323-5.473 4.658-2.185 1.337-4.674 2.256-7.474 2.257-.45 0-.91-.024-1.379-.074a1.312 1.312 0 0 0-.608.081l-.102.039c-1.072.406-10.478 3.834-21.877 4.743a7.72 7.72 0 0 1-.579.023c-1.094-.003-1.949-.257-2.676-.693-1.083-.653-1.928-1.784-2.511-3.336-.581-1.544-.873-3.474-.871-5.531-.005-3.705.944-7.816 2.51-10.876.779-1.532 1.71-2.794 2.686-3.629.984-.838 1.96-1.246 2.981-1.249.095 0 .185.004.272.011l.01.001c3.282.242 7.619.796 11.118 1.289 1.751.246 3.295.477 4.4.646l.443.069a8.51 8.51 0 0 0-.527 1.57c-1.262.294-2.395.891-3.287 1.743-1.3 1.234-2.082 2.996-2.078 4.941 0 .824.137 1.678.418 2.538a1.3 1.3 0 1 0 2.472-.809 5.549 5.549 0 0 1-.29-1.729c.004-1.262.48-2.298 1.272-3.06.796-.756 1.925-1.234 3.29-1.236.245 0 .497.016.756.05h.004c1.013.135 1.588.502 1.962.928.37.428.548.971.549 1.524.005.741-.34 1.415-.78 1.705a1.3 1.3 0 1 0 1.482 2.137c1.273-.896 1.894-2.367 1.898-3.842a4.918 4.918 0 0 0-1.181-3.223c-.811-.947-2.06-1.617-3.6-1.807-.043-.006-.084-.004-.126-.009.367-1.002.92-1.713 1.573-2.213a4.661 4.661 0 0 1 2.804-.923c.994-.003 1.917.321 2.501.814.31.259.516.568.66.94.144.37.213.803.213 1.236 0 .433-.07.864-.173 1.208-.097.342-.248.6-.289.639a1.3 1.3 0 1 0 1.997 1.666c.372-.456.602-.97.784-1.561.175-.589.28-1.25.28-1.952 0-.482-.055-.984-.178-1.488.958-.89 2.016-1.291 2.94-1.29a2.964 2.964 0 0 1 1.45.368c.443.246.853.619 1.205 1.17a2.6 2.6 0 0 1 .425 1.428c.004.707-.288 1.503-.807 2.233a6.07 6.07 0 0 1-1.953 1.76 1.3 1.3 0 1 0 1.257 2.276 8.554 8.554 0 0 0 2.158-1.721c.516.036.909.222 1.204.522.318.332.54.816.543 1.495.002.89-.417 2.144-1.698 3.543ZM173.629 44.944c-3.113-4.813-7.286-8.31-11.757-9.47-2.095-.536-5.621-1.239-9.968-2.005a501.247 501.247 0 0 0-22.686-3.42c-7.851-.994-15.191-1.705-19.838-1.707-.737 0-1.408.017-2.012.057a92.825 92.825 0 0 0-6.937.698h-.009l-.013.003a78.51 78.51 0 0 0-7.831 1.508c-5.135 1.258-10.847 3.146-18.352 6.01-4.254 1.621-7.453 4.613-9.64 8.31a1.293 1.293 0 0 0-.17.493c-7.654 2.758-17.563 7.098-25.585 12.645-.22.135-1.291.834-2.515 2.334-1.31 1.603-2.773 4.123-3.474 7.752-.483 2.5-.714 4.577-.715 6.293.003 1.536.179 2.786.596 3.823.21.517.488.982.853 1.372.363.39.82.695 1.319.87a1.301 1.301 0 0 0 1.664-.81l.847-2.498c6.157-4.07 14.392-7.84 21.736-10.849.584-.24 1.16-.472 1.732-.702.238 2.24.64 4.46 1.213 6.602 1.744 6.529 6.12 11.581 12.025 15.186 5.912 3.613 13.368 5.845 21.524 6.878 5.692.72 10.161.96 13.943.96 3.744 0 6.809-.237 9.694-.469 2.887-.233 5.589-.46 8.668-.46.67 0 1.364.014 2.076.038.01.186.051.373.146.547a7.8 7.8 0 0 0 3.409 3.284c1.33.67 2.739.98 4.056 1.157.229.03.459.04.702.04 1.245-.004 2.95-.291 5.076-.794 6.299-1.506 16.034-4.983 23.29-9.453.07-.036.142-.069.21-.107 3.723-2.047 6.469-5.405 8.366-9.523 1.9-4.123 2.982-9.026 3.405-14.333.068-.865.101-1.724.101-2.575-.002-6.679-2.042-12.865-5.149-17.685ZM52.352 66.415c-5.893 2.607-11.901 5.602-16.756 8.858a1.307 1.307 0 0 0-.506.662l-.187.55c-.108-.535-.177-1.211-.176-2.04 0-1.48.206-3.414.668-5.8.619-3.188 1.866-5.288 2.935-6.601a10.038 10.038 0 0 1 1.373-1.398c.173-.143.31-.243.397-.303l.092-.062.015-.01.071-.045c6.216-4.31 13.768-7.94 20.398-10.602a131.39 131.39 0 0 1 8.97-3.24c2.568-.818 4.637-1.365 5.855-1.601 1.136-.222 2.068-.324 2.792-.324.587 0 1.034.068 1.346.167.47.16.633.315.8.584.161.274.291.769.29 1.522 0 .467-.048 1.021-.141 1.653-.325 2.225-.656 4.014-1.43 5.424a6.86 6.86 0 0 1-1.579 1.951c-.7.605-1.617 1.18-2.847 1.719-1.19.522-3.47 1.376-6.365 2.472-4.35 1.648-10.124 3.86-16.016 6.464Zm97.493 27.6c-2.594.889-5.024 1.596-7.041 2.076-2.008.482-3.642.73-4.474.724-.159 0-.284-.008-.361-.019-1.154-.152-2.28-.42-3.224-.9a5.313 5.313 0 0 1-1.695-1.336c.044.003.086.005.131.01a1.3 1.3 0 1 0 .216-2.592 65.36 65.36 0 0 0-5.456-.23c-3.209 0-5.999.237-8.876.469-2.88.231-5.852.46-9.486.46-3.67 0-8.021-.233-13.617-.94-7.889-.994-15.012-3.16-20.493-6.516a29.932 29.932 0 0 1-3.887-2.824c1.049-.264 1.974-.577 2.765-.952 1.177-.559 2.096-1.252 2.781-2.044a7.123 7.123 0 0 0 1.297-2.208c.492-1.332.609-2.65.74-3.848.095-.9.194-1.737.393-2.471.15-.552.35-1.044.641-1.496.439-.672 1.079-1.291 2.232-1.86 1.144-.562 2.799-1.045 5.136-1.343.463 3.387 1.353 6.76 2.857 9.78 1.213 2.433 2.834 4.638 4.957 6.384 2.122 1.747 4.744 3.022 7.874 3.61 4.777.898 14.911 2.217 25.541 3.322 10.533 1.092 21.49 1.968 28.148 1.985a95.139 95.139 0 0 1-7.099 2.759Zm26.24-29.017c-.534 6.78-2.215 12.727-5.13 16.896-1.458 2.087-3.211 3.737-5.302 4.888-.046.025-.094.047-.14.072-.011.006-.023.006-.034.012l-.054.033c-2.042 1.075-4.409 1.698-7.198 1.75h.002c-.35.005-.717.008-1.098.008-6.434.002-17.492-.874-28.066-1.973-10.574-1.096-20.72-2.42-25.328-3.29-2.725-.516-4.908-1.589-6.704-3.063-2.689-2.209-4.515-5.373-5.665-8.969-1.15-3.591-1.61-7.59-1.609-11.343 0-2.96.285-5.768.721-8.093a1.3 1.3 0 0 0-2.555-.479c-.468 2.494-.765 5.445-.766 8.572.001 1.17.051 2.369.142 3.573-.007.001-.013-.002-.02-.001-2.257.286-4.03.735-5.454 1.345-1.244.531-2.222 1.195-2.966 1.966a7.045 7.045 0 0 0-1.433 2.18c-.558 1.332-.703 2.665-.837 3.88-.097.914-.183 1.768-.363 2.522-.134.566-.316 1.073-.58 1.534-.401.687-.975 1.303-2.032 1.883-.96.522-2.333.986-4.249 1.31-2.242-2.483-3.884-5.34-4.768-8.63a40.77 40.77 0 0 1-1.217-6.927c2.14-.84 4.139-1.602 5.906-2.271 2.898-1.099 5.161-1.943 6.487-2.522 1.418-.62 2.57-1.326 3.504-2.133 1.404-1.208 2.282-2.646 2.827-4.163.55-1.52.802-3.113 1.053-4.8.107-.721.169-1.395.17-2.032-.001-.683-.071-1.327-.258-1.937-.267-.913-.874-1.757-1.74-2.251-.862-.5-1.875-.683-3.038-.685-.96 0-2.041.129-3.288.371-1.392.271-3.51.837-6.147 1.676-.17.054-.355.116-.53.172 1.778-2.224 4.025-3.96 6.826-5.031 7.45-2.845 13.062-4.696 18.042-5.914.156-.038.306-.07.46-.107-1.245 1.199-2.325 2.589-2.836 4.199a1.3 1.3 0 0 0 2.482.776c.205-.663.635-1.399 1.228-2.114.885-1.075 2.122-2.096 3.329-2.859.603-.382 1.198-.7 1.727-.936.504-.225.95-.368 1.255-.428a90.895 90.895 0 0 1 6.698-.671 28.378 28.378 0 0 1 1.841-.052c2.931-.001 7.17.308 11.968.809 7.202.75 15.685 1.927 23.113 3.11 7.422 1.18 13.825 2.376 16.765 3.132 3.591.907 7.382 3.947 10.218 8.36 2.843 4.405 4.737 10.133 4.734 16.276 0 .783-.03 1.574-.093 2.369Z"/><path fill="#BEBEC9" d="M59.494 75.508C44.49 69.444 29.784 66.6 16.475 66.6c-1.765 0-3.505.05-5.217.15a1.3 1.3 0 1 0 .15 2.595 87.017 87.017 0 0 1 5.067-.145c12.94-.001 27.326 2.769 42.045 8.718a1.3 1.3 0 0 0 .974-2.41Z"/><path fill="#FFE632" d="m111.673 38.797 2.066-2.023a1.3 1.3 0 1 0-1.819-1.858l-2.066 2.022a1.3 1.3 0 0 0 1.819 1.858ZM111.857 75.541a1.3 1.3 0 0 0-.451 1.782l1.363 2.287a1.3 1.3 0 0 0 2.233-1.33l-1.363-2.288a1.3 1.3 0 0 0-1.782-.451ZM164.368 45.79a1.3 1.3 0 1 0 1.838-1.838l-1.54-1.54a1.3 1.3 0 1 0-1.838 1.839l1.54 1.54ZM162.51 85.284l1.935-1.231a1.3 1.3 0 1 0-1.396-2.193l-1.935 1.231a1.3 1.3 0 0 0 1.396 2.193Z"/></svg>