<svg width="200" height="200" viewBox="0 0 200 200" xmlns="http://www.w3.org/2000/svg"><g id="type=code, mode=dark"><g id="Group 432527109"><path id="Vector" d="M28.2403 42.9637C27.6305 42.6036 26.8772 42.5924 26.2572 42.9344L21.0346 45.8153C20.0672 46.3487 19.7156 47.5653 20.2492 48.5328C20.7826 49.5001 21.9993 49.8517 22.9667 49.3182L22.9666 49.318L25.2232 48.0731L25.2233 59.4193C25.2233 60.5238 26.1187 61.4193 27.2233 61.4193C28.3278 61.4193 29.2233 60.5238 29.2233 59.4193L29.2232 44.6859C29.2232 43.9776 28.8499 43.3236 28.2403 42.9637Z"/><path id="Vector_2" d="M45.3061 27.5464C45.3515 27.4905 45.401 27.4436 45.4452 27.385C46.1003 26.5242 46.5689 25.3328 46.5618 23.9944C46.5619 23.6667 46.5358 23.3311 46.4827 22.9893C46.2885 21.6667 45.5711 20.4941 44.5887 19.7717C43.6087 19.0395 42.4374 18.7219 41.2818 18.7219C39.667 18.7253 38.0225 19.3289 36.6634 20.5054C35.8295 21.2297 35.7409 22.4932 36.4655 23.3269C37.19 24.1606 38.4533 24.2493 39.2872 23.5249L39.287 23.5247C39.9255 22.9653 40.6893 22.7183 41.2818 22.7217C41.7099 22.7217 42.0187 22.8418 42.1891 22.9722C42.357 23.1121 42.46 23.2268 42.5302 23.6038C42.5528 23.7488 42.5618 23.8784 42.5619 23.9944C42.5601 24.3059 42.501 24.5173 42.4115 24.7104C42.2791 24.9941 42.0392 25.2544 41.7371 25.4614C41.4455 25.6672 41.0852 25.7981 40.956 25.8208C40.0224 26.0176 39.361 26.8401 39.3688 27.7942C39.3766 28.7434 40.0456 29.5508 40.9751 29.7375L40.9749 29.7385L41.0957 29.7681C41.3752 29.8364 42.075 30.0801 42.54 30.4326C42.776 30.6062 42.9479 30.7913 43.0498 30.9644C43.1506 31.1421 43.2093 31.3008 43.2135 31.5979L43.212 31.6702C43.1745 32.3052 42.966 32.679 42.5837 33.0159C42.1969 33.3423 41.5589 33.6072 40.6496 33.6086C39.9577 33.6089 39.1191 33.4495 38.1899 33.0491C37.1752 32.6123 35.9986 33.0808 35.5619 34.0955C35.1252 35.1099 35.5937 36.2866 36.6083 36.7234C37.9825 37.3144 39.3501 37.6082 40.6496 37.6084C42.3412 37.6099 43.9374 37.1023 45.1579 36.0774C46.3822 35.0632 47.1537 33.5071 47.2089 31.8284L47.2094 31.8149L47.2134 31.5979C47.2207 30.4082 46.814 29.3274 46.2376 28.5376C45.9491 28.1418 45.6308 27.8281 45.3061 27.5464Z"/><path id="Vector_3" d="M102.218 35.8723C103.323 35.8723 104.218 34.9768 104.218 33.8726C104.218 32.7681 103.323 31.8728 102.218 31.8728V31.8726C100.756 31.8745 99.3986 32.0933 98.4987 32.27C97.1108 32.5444 96.0507 33.6704 95.8559 35.0676L95.4142 38.2297C95.332 38.8171 95.5173 39.4145 95.9167 39.853C96.3136 40.2888 96.8867 40.5269 97.4753 40.5034V40.5046L97.5441 40.5037C97.8163 40.4956 98.7948 40.5542 99.4333 40.8054C99.7555 40.9236 99.9604 41.0732 100.026 41.1536L100.091 41.2556C100.104 41.2932 100.122 41.3518 100.123 41.4839V41.5063C100.116 41.8203 100.058 41.9885 99.9992 42.1055C99.9094 42.2725 99.7883 42.3958 99.5143 42.5291C99.248 42.656 98.8444 42.7407 98.4494 42.7385C98.0624 42.7424 97.6843 42.6533 97.5248 42.5798C96.5104 42.1423 95.3337 42.6104 94.8964 43.6248C94.4589 44.6389 94.9269 45.8157 95.9413 46.2532C96.726 46.5867 97.5637 46.7344 98.4494 46.7383C99.6337 46.7319 100.931 46.4646 102.093 45.6333C102.667 45.218 103.191 44.6455 103.554 43.9407C103.919 43.2371 104.112 42.4182 104.123 41.562V41.5032L104.123 41.4839C104.124 40.9082 104.024 40.343 103.828 39.8308C103.486 38.9263 102.862 38.2383 102.222 37.7861C101.344 37.1675 100.446 36.8943 99.6628 36.7288L99.7494 36.1079C100.46 35.9859 101.368 35.8706 102.218 35.8723Z"/><path id="Vector_4" d="M134.13 62.9568L134.071 62.9634C133.778 62.9988 132.41 63.1461 131.125 63.1502C131.935 62.3753 132.923 61.4515 133.807 60.3843C134.307 59.7769 134.776 59.1216 135.145 58.378C135.511 57.6375 135.785 56.7872 135.787 55.8377C135.787 55.3956 135.725 54.9356 135.588 54.4864C135.245 53.348 134.546 52.3882 133.651 51.7349C132.757 51.0789 131.667 50.7183 130.538 50.7186C129.115 50.7117 127.642 51.313 126.508 52.4576C125.727 53.2386 125.727 54.5052 126.508 55.2862C127.289 56.067 128.556 56.0667 129.337 55.2857L129.336 55.2855C129.796 54.8357 130.189 54.7252 130.538 54.7183C130.816 54.7186 131.074 54.806 131.286 54.961C131.497 55.1182 131.663 55.3323 131.76 55.6463L131.787 55.8377C131.787 55.9537 131.76 56.1253 131.668 56.3621C131.511 56.7747 131.138 57.3528 130.627 57.9515C129.863 58.8582 128.827 59.8028 127.923 60.6805C127.469 61.1253 127.046 61.5491 126.668 62.0254C126.48 62.2667 126.3 62.5213 126.136 62.845C125.979 63.1675 125.816 63.5767 125.811 64.1448L125.821 64.3206L125.817 64.3209C125.818 64.3292 125.822 64.337 125.822 64.345L125.826 64.4158L125.836 64.4146C125.879 64.8184 126.018 65.2237 126.225 65.5367C126.626 66.1365 127.115 66.4205 127.522 66.6109C128.146 66.8873 128.713 66.9854 129.299 67.0601C129.881 67.129 130.472 67.1507 131.052 67.1509C132.869 67.1492 134.583 66.9295 134.629 66.9251C135.724 66.7872 136.501 65.7872 136.363 64.6915C136.225 63.5955 135.225 62.8189 134.13 62.9568Z"/><path id="Vector_5" d="M158.057 17.728C158.026 17.4141 157.924 17.116 157.795 16.8774C157.545 16.4253 157.242 16.1746 156.988 15.998C156.537 15.6982 156.157 15.5754 155.753 15.4585C155.153 15.2952 154.499 15.198 153.739 15.1279C152.981 15.0598 152.127 15.0259 151.186 15.0259C149.412 15.0259 147.331 15.1477 145.091 15.4148C143.994 15.5457 143.211 16.5413 143.342 17.6382C143.473 18.7349 144.469 19.5178 145.566 19.387L145.566 19.3867C147.655 19.1367 149.595 19.0256 151.186 19.0256C151.992 19.0247 152.697 19.0576 153.288 19.1079C153.003 19.6169 152.669 20.207 152.295 20.8811C151.682 21.9873 150.972 23.3084 150.245 24.7678L146.934 24.7319C145.83 24.72 144.925 25.6057 144.913 26.7102C144.901 27.8147 145.786 28.7197 146.891 28.7317L148.414 28.7483C147.505 30.9143 146.657 33.2686 146.03 35.7495C145.759 36.8206 146.409 37.908 147.48 38.1782C148.551 38.4482 149.638 37.7991 149.909 36.728C150.614 33.9253 151.654 31.2188 152.752 28.7954L154.989 28.8196C156.094 28.8315 156.999 27.9458 157.011 26.8413C157.023 25.7368 156.137 24.8318 155.033 24.8198L154.71 24.8164C155.541 23.2437 156.305 21.9114 156.88 20.8811C157.173 20.3552 157.417 19.9109 157.612 19.5137C157.71 19.313 157.796 19.1262 157.877 18.9121C157.917 18.804 157.956 18.6887 157.992 18.5435C158.027 18.3962 158.065 18.2232 158.067 17.95L158.061 17.7812L158.057 17.728Z"/><path id="Vector_6" d="M170.782 40.4624C170.134 39.9414 169.295 39.551 168.365 39.4788C168.194 39.4648 168.024 39.457 167.855 39.4573C167.001 39.4558 166.182 39.6387 165.467 39.9763C164.39 40.4817 163.573 41.3149 163.051 42.2446C162.526 43.1785 162.269 44.2151 162.268 45.2593C162.268 46.3562 162.557 47.4832 163.217 48.4712C163.869 49.4585 164.927 50.2671 166.214 50.6304L166.218 50.6314C166.757 50.7857 167.297 50.8667 167.826 50.8665C167.937 50.867 168.044 50.8508 168.154 50.8438C167.874 51.1243 167.562 51.3774 167.16 51.5742C166.609 51.8416 165.908 52.033 164.979 52.0691C163.875 52.1109 163.014 53.0398 163.056 54.1438C163.098 55.2476 164.027 56.1084 165.131 56.0667C166.541 56.0137 167.815 55.7051 168.911 55.1707C170.562 54.3723 171.757 53.0689 172.476 51.6409C173.201 50.2083 173.496 48.658 173.497 47.1694C173.491 45.4248 173.102 43.7525 172.326 42.3386C171.933 41.6338 171.437 40.9863 170.782 40.4624ZM169.139 45.0142L169.139 45.0139H169.139V45.0142ZM169.139 45.0088H169.138L169.139 45.0269C169.141 45.0901 169.115 45.3289 169.038 45.5769C168.927 45.9583 168.7 46.3672 168.484 46.5781C168.375 46.6875 168.277 46.7537 168.183 46.7964C168.087 46.8379 167.992 46.865 167.826 46.8667C167.704 46.8665 167.54 46.8482 167.321 46.7859C166.903 46.658 166.711 46.4866 166.54 46.2446C166.375 46.0029 166.267 45.6509 166.267 45.2593C166.263 44.7629 166.451 44.251 166.718 43.9465C166.851 43.7908 166.996 43.678 167.17 43.596C167.344 43.5151 167.552 43.4585 167.855 43.457L168.037 43.4651L168.045 43.4656C168.082 43.471 168.138 43.4746 168.289 43.5901C168.508 43.7551 168.854 44.2085 169.095 44.8621C169.112 44.9045 169.124 44.9534 169.139 44.9973C169.14 45.0012 169.139 45.0049 169.139 45.0088Z"/><path id="Vector_7" d="M168.363 39.4785L168.365 39.4788L168.371 39.479L168.363 39.4785Z"/><path id="Vector_8" d="M166.795 123.394C161.67 118.314 155.718 115.349 151.05 113.64C146.379 111.932 142.98 111.479 142.912 111.47C142.38 111.399 141.863 111.66 141.604 112.13L141.603 112.13C141.554 112.219 139.652 115.516 134.956 117.818C132.802 114.59 130.068 112.667 127.759 111.573C127.371 111.389 126.999 111.232 126.639 111.09C129.048 110.072 130.953 108.912 132.493 107.71C135.488 105.378 137.101 102.916 138.406 101.353C144.092 99.6951 148.441 96.1895 151.385 93.0936C154.382 89.9363 155.944 87.191 155.981 87.129C156.204 86.7361 156.207 86.2523 155.988 85.857C155.769 85.4617 155.357 85.2071 154.906 85.188L148.35 84.909C152.317 82.1031 154.887 78.4808 156.506 75.3096C158.62 71.1692 159.17 67.7635 159.186 67.6756C159.258 67.2252 159.088 66.7671 158.738 66.4737C158.389 66.1805 157.908 66.0914 157.477 66.2405L147.254 69.7754C147.29 68.8277 147.314 67.8589 147.314 66.8577C147.312 58.2352 145.802 47.7896 139.303 39.1495C136.056 34.8355 131.562 31.0035 125.476 28.138C120.993 26.0257 115.644 24.439 109.293 23.5296C108.615 21.347 107.41 19.5796 105.99 18.2044C103.671 15.9605 100.825 14.6917 98.5623 13.952C96.2969 13.2154 94.5989 13.0164 94.5398 13.0088C93.8772 12.9317 93.2652 13.367 93.1206 14.0181L92.0772 18.712C90.6153 17.5616 89.0003 16.7374 87.3365 16.1824C84.9768 15.3948 82.5218 15.1182 80.1961 15.1177C73.8848 15.1248 68.4722 17.1441 68.3923 17.168C67.9029 17.3492 67.5712 17.8016 67.5453 18.3228C67.5195 18.8438 67.805 19.3265 68.2737 19.5555C68.3515 19.5921 70.8627 20.856 73.4458 23.42C73.9529 23.9234 74.4578 24.4893 74.9527 25.0899C64.15 27.9417 57.5291 33.0635 53.5596 38.7042C49.3525 44.6695 48.1031 51.1146 47.5863 55.9073C47.4142 57.5113 47.3435 58.9974 47.3435 60.3929C47.3435 63.4905 47.6907 66.136 48.0265 68.629C48.2044 69.9459 48.3748 71.2208 48.4993 72.5064L40.4123 67.5345C40.0165 67.2911 39.5152 67.2786 39.1077 67.5015C38.7002 67.7242 38.4405 68.1529 38.4317 68.6175C38.4315 68.6251 38.4303 68.6915 38.4303 68.8096C38.4311 69.5189 38.4656 72.116 38.9803 75.1175C39.2386 76.6189 39.6165 78.2227 40.1859 79.7537C40.5208 80.6504 40.9314 81.5167 41.4207 82.3284L39.4175 82.8868C38.8388 83.0479 38.4458 83.5855 38.4674 84.1858C38.4727 84.3038 38.5284 85.5218 39.2509 87.1468C39.9692 88.7691 41.3833 90.7942 44.0031 92.3992C44.0227 92.4112 44.0455 92.4112 44.0656 92.4222C43.9895 93.0332 43.9353 93.6512 43.9341 94.2842C43.9339 95.3387 44.0533 96.4214 44.3287 97.522C44.6836 98.9219 45.4428 100.461 46.5976 102.084C49.9235 106.738 56.6133 112.065 66.9056 114.772C65.4024 115.514 63.8348 116.502 62.2369 117.68C62.1226 117.572 61.9911 117.477 61.8362 117.414C60.6242 116.92 59.3489 116.098 58.4047 115.403C57.9313 115.055 57.5379 114.74 57.2662 114.514C57.1302 114.401 57.0247 114.311 56.9545 114.25L56.8765 114.181L56.8554 114.162C56.566 113.9 56.1725 113.782 55.7869 113.841C55.6924 113.857 50.6735 114.63 44.3039 117.883C37.9391 121.133 30.2067 126.892 24.8429 136.846C24.5208 137.443 24.7143 138.19 25.2856 138.557C25.8555 138.922 26.613 138.787 27.022 138.248L27.0227 138.248C27.0491 138.212 27.7011 137.388 28.8467 136.604C29.9973 135.817 31.6076 135.075 33.6448 135.075C35.9865 135.08 39.0202 136.038 42.7658 139.456C42.867 139.549 42.9859 139.605 43.104 139.66C42.8931 140.065 42.6811 140.471 42.4965 140.864C41.5025 142.999 40.8822 144.935 40.8728 146.689C40.8728 147.117 40.9124 147.536 41.0039 147.945C41.2864 149.199 41.8754 150.404 42.6535 151.576C44.0191 153.625 45.9798 155.591 48.1553 157.437C53.9279 162.32 61.2556 166.329 62.8929 167.204C62.7566 169.352 62.678 171.504 62.6777 173.619C62.6796 178.702 63.1231 183.568 64.3356 187.669C64.5395 188.358 65.2627 188.751 65.9512 188.547C66.6396 188.343 67.0324 187.619 66.8285 186.931L66.8284 186.931C65.7221 183.205 65.2757 178.546 65.2776 173.619C65.2764 165.484 66.4762 156.619 67.6806 149.81C68.2824 146.404 68.8844 143.51 69.3355 141.471C69.561 140.451 69.7486 139.645 69.8797 139.095C69.9451 138.82 69.9965 138.609 70.0312 138.468C70.066 138.326 70.0835 138.257 70.0835 138.257C70.2259 137.693 69.9806 137.108 69.4788 136.815C68.9771 136.522 68.3471 136.596 67.9264 136.997L61.0456 143.554C60.7664 143.819 60.6211 144.189 60.6448 144.575C60.6685 144.959 60.8581 145.309 61.1678 145.539L65.032 148.406C65.1058 148.46 65.191 148.481 65.2713 148.518C65.221 148.796 65.1707 149.072 65.1203 149.357C64.3451 153.747 63.5713 158.978 63.1082 164.361C61.1552 163.278 57.3246 161.06 53.5473 158.337C51.1667 156.623 48.811 154.708 46.9826 152.788C45.1463 150.875 43.8775 148.941 43.5411 147.377C43.498 147.185 43.4728 146.956 43.4728 146.689C43.4686 145.855 43.7343 144.671 44.2735 143.304C45.2111 140.904 46.9494 137.944 49.1509 134.905C52.4518 130.34 56.7967 125.571 61.0241 121.965C63.1359 120.162 65.2201 118.649 67.1014 117.598C68.9789 116.541 70.6613 115.971 71.8548 115.942C72.001 115.938 72.1347 115.895 72.2645 115.846C73.1614 115.981 74.0748 116.108 74.9871 116.222C77.3033 116.511 79.5467 116.728 81.1475 116.866C81.1775 117.252 81.212 117.644 81.2735 118.04C81.4241 119 81.6712 119.97 82.1265 120.858C82.8177 122.191 83.9461 123.139 85.1619 123.844C86.9944 124.898 89.0911 125.452 90.7527 125.776C91.6949 125.958 92.4864 126.058 93.0106 126.113C94.0152 127.781 95.7178 130.033 97.9014 132.62C101.327 136.673 105.893 141.478 110.529 145.615C112.848 147.684 115.183 149.585 117.414 151.144C119.647 152.703 121.766 153.923 123.721 154.62C125.779 155.351 127.668 155.661 129.366 155.661C129.988 155.661 130.583 155.618 131.151 155.541C131.102 156.571 131.007 158.96 131.007 162.234C131.007 163.386 131.02 164.65 131.049 166C130.983 166.255 130.982 166.512 131.068 166.753C131.222 172.629 131.715 180.027 133.027 187.362C133.153 188.069 133.828 188.539 134.535 188.413C135.242 188.287 135.713 187.611 135.586 186.905L135.586 186.904C135.438 186.077 135.304 185.249 135.177 184.421C135.18 184.42 135.182 184.421 135.185 184.421L135.185 184.421C137.163 184.026 138.864 183.243 140.346 182.209C142.574 180.655 144.318 178.576 146.042 176.344C147.764 174.109 149.468 171.707 151.551 169.422C152.512 168.367 153.475 167.711 154.418 167.305C155.36 166.901 156.291 166.745 157.195 166.744C158.732 166.742 160.191 167.216 161.254 167.707C161.785 167.95 162.216 168.195 162.507 168.375C162.652 168.464 162.763 168.538 162.834 168.586L162.91 168.639L162.925 168.65L162.925 168.65C163.362 168.974 163.955 168.992 164.411 168.693C164.868 168.395 165.089 167.843 164.965 167.311C164.947 167.237 164.578 165.657 163.542 163.752C163.228 163.175 162.842 162.569 162.392 161.967L163.584 159.311C163.745 158.951 163.734 158.538 163.555 158.187C163.375 157.835 163.047 157.585 162.66 157.506C162.591 157.492 162.052 157.385 161.195 157.385C160.239 157.385 158.869 157.543 157.348 158.103C157.238 158.063 157.133 158.016 157.021 157.98C155.756 157.566 154.581 157.308 153.484 157.174L153.204 155.188C153.142 154.749 152.86 154.371 152.457 154.187C152.054 154.003 151.583 154.037 151.211 154.278C151.138 154.326 150.081 155.017 148.822 156.435C148.499 156.799 148.163 157.213 147.827 157.675C145.934 158.286 144.392 159.274 143.082 160.28C142.213 160.951 141.433 161.61 140.695 162.191L139.413 158.247C139.27 157.809 138.909 157.481 138.46 157.38C138.011 157.28 137.544 157.423 137.229 157.759C137.217 157.772 136.165 158.892 134.883 160.435C134.472 160.931 134.04 161.476 133.608 162.035C133.611 159.952 133.651 158.238 133.692 157.044C133.713 156.428 133.734 155.949 133.75 155.624C133.766 155.3 133.776 155.137 133.776 155.137C133.781 155.053 133.753 154.978 133.743 154.898C134.431 154.644 135.062 154.342 135.627 154.006C137.233 153.05 138.336 151.874 138.977 150.832C139.238 150.399 139.45 149.881 139.672 149.207C140.321 147.204 140.947 143.871 140.95 139.659C140.95 138.314 140.883 136.878 140.731 135.374C141.817 134.825 143.169 134.365 144.805 134.364C146.887 134.37 149.471 135.085 152.613 137.562C153.084 137.935 153.752 137.935 154.224 137.564C157.773 134.778 160.916 133.908 163.604 133.902C166.436 133.9 168.815 134.905 170.498 135.931C171.337 136.443 171.997 136.956 172.439 137.335C172.66 137.524 172.827 137.679 172.935 137.784L173.053 137.9L173.077 137.926L173.078 137.927C173.501 138.38 174.18 138.473 174.709 138.149C175.238 137.825 175.463 137.177 175.25 136.595C173.249 131.112 170.21 126.78 166.795 123.394ZM63.9568 144.37L66.589 141.862C66.3484 142.978 66.0784 144.278 65.7942 145.734L63.9568 144.37ZM58.7054 120.533C54.2918 124.406 49.8941 129.332 46.5613 134.057C45.7623 135.191 45.0292 136.312 44.3676 137.407C40.3625 133.783 36.7044 132.47 33.6448 132.475C32.4228 132.475 31.3239 132.686 30.3439 133.002C35.0015 126.66 40.6434 122.675 45.4869 120.198C48.4981 118.659 51.1944 117.708 53.1269 117.144C54.0931 116.862 54.8681 116.677 55.3958 116.564C55.4772 116.546 55.5413 116.533 55.6109 116.519C55.9153 116.772 56.3453 117.116 56.8658 117.499C57.7182 118.123 58.8095 118.841 60.0064 119.428C59.5732 119.787 59.1395 120.153 58.7054 120.533ZM142.396 167.424L141.545 164.807C142.626 164.025 143.621 163.142 144.666 162.342C145.016 162.073 145.371 161.817 145.733 161.574C145.567 162.014 145.41 162.467 145.274 162.949C145.112 163.523 145.365 164.138 145.884 164.432C146.402 164.726 147.058 164.627 147.468 164.196L147.468 164.196C147.494 164.169 148.08 163.569 149.031 162.959C149.982 162.346 151.285 161.735 152.739 161.596C153.094 161.561 153.414 161.387 153.635 161.106C153.856 160.826 153.95 160.474 153.9 160.12L153.864 159.864C154.594 159.99 155.369 160.175 156.215 160.452L156.222 160.454C156.372 160.502 156.51 160.558 156.649 160.614C156.73 160.661 156.821 160.691 156.913 160.721L156.926 160.727C157.961 161.181 158.82 161.841 159.538 162.596C160.221 163.313 160.755 164.113 161.181 164.877C160.055 164.472 158.699 164.147 157.195 164.145C155.988 164.144 154.688 164.359 153.392 164.917C152.095 165.472 150.812 166.368 149.628 167.672C146.677 170.916 144.539 174.237 142.32 176.819C141.212 178.112 140.091 179.219 138.861 180.075C137.663 180.907 136.362 181.505 134.806 181.837C134.45 179.11 134.194 176.423 134.013 173.86C134.074 173.843 134.137 173.845 134.198 173.818L134.197 173.818C134.256 173.786 138.516 171.878 142.019 168.801C142.408 168.459 142.556 167.916 142.396 167.424ZM136.883 162.096C137.149 161.776 137.402 161.479 137.64 161.203L139.65 167.384C138.256 168.519 136.745 169.495 135.524 170.194C134.846 170.583 134.265 170.888 133.842 171.101C133.757 169.497 133.699 167.963 133.663 166.523C134.478 165.12 135.766 163.438 136.883 162.096ZM71.987 18.8077C74.0369 18.2903 77.0352 17.7139 80.1961 17.7176C82.3148 17.7171 84.4984 17.9744 86.5123 18.6485C88.5289 19.3243 90.3709 20.4017 91.8956 22.0726C92.2222 22.4312 92.722 22.5777 93.191 22.4529C93.6597 22.3282 94.0198 21.9522 94.1253 21.4788L95.3892 15.7933C96.5162 16.0289 98.3282 16.5032 100.186 17.3824C101.629 18.0628 103.092 18.9817 104.297 20.1858C105.083 20.9727 105.744 21.8892 106.257 22.9417C105.09 22.8528 103.952 22.7938 102.874 22.7938C94.0748 22.7872 88.1622 25.6111 84.5057 28.4813C83.1021 29.5806 82.0296 30.679 81.234 31.6246C80.5665 29.1099 79.4813 26.9473 78.2369 25.1216C78.2344 25.1182 78.2325 25.115 78.23 25.1119C77.2552 23.6829 76.1846 22.4581 75.1397 21.439C74.0127 20.3394 72.9158 19.4683 71.987 18.8077ZM44.6165 89.6827C42.9682 88.4825 42.1067 87.1592 41.6258 86.0887C41.4566 85.709 41.3422 85.3682 41.2591 85.0728L43.9067 84.3348C44.3377 84.2144 44.6797 83.877 44.8054 83.4473C44.931 83.0179 44.8248 82.5491 44.5264 82.2156C43.7549 81.3565 43.1146 80.1724 42.6226 78.8465C41.8808 76.8592 41.4715 74.5726 41.2612 72.6768C41.194 72.0755 41.1478 71.5203 41.1138 71.0181L48.6758 75.6673C48.6772 75.7877 48.6863 75.9034 48.6863 76.025C48.6863 76.2408 48.6843 76.4585 48.6797 76.6783C48.6324 79.1856 47.5353 81.8917 46.3525 84.7986C45.7261 86.358 45.084 87.9813 44.6165 89.6827ZM137.741 146.269C137.57 147.127 137.38 147.849 137.2 148.402C137.023 148.951 136.841 149.347 136.759 149.476C136.371 150.116 135.534 151.044 134.301 151.77C133.065 152.501 131.438 153.059 129.366 153.061C127.984 153.061 126.397 152.81 124.591 152.17C122.45 151.416 119.669 149.689 116.743 147.421C112.343 144.02 107.565 139.419 103.576 135.106C101.58 132.949 99.7796 130.862 98.3182 129.037C96.8582 127.214 95.7327 125.639 95.1148 124.571C95.0679 124.49 94.9971 124.437 94.9368 124.37C94.7491 123.932 94.3384 123.607 93.8306 123.577L93.8162 123.576C93.6246 123.564 91.594 123.41 89.4459 122.799C88.3729 122.496 87.2737 122.077 86.3758 121.542C85.4722 121.006 84.7957 120.368 84.4376 119.667C84.1661 119.145 83.962 118.42 83.8428 117.642C83.7217 116.864 83.6792 116.034 83.6795 115.29C83.6795 114.59 83.7164 113.966 83.753 113.523C83.7713 113.301 83.7894 113.124 83.8028 113.005L83.8184 112.871L83.8233 112.834C83.8978 112.285 83.6153 111.748 83.1214 111.498L76.4227 108.113C76.6397 107.668 76.931 107.212 77.3047 106.837C77.6307 106.505 78.0064 106.229 78.4346 106.034C78.8641 105.84 79.3467 105.723 79.9285 105.722C80.3975 105.722 80.9346 105.801 81.5528 106.001C85.7222 107.351 89.1128 107.656 91.3165 107.656C93.0545 107.656 94.055 107.467 94.1263 107.453C94.5845 107.364 94.9585 107.036 95.1085 106.594L95.1089 106.595C95.1207 106.552 95.4918 105.549 96.2669 104.645C96.6531 104.191 97.1324 103.763 97.7061 103.453C98.2823 103.145 98.949 102.942 99.7967 102.94C100.249 102.94 100.763 103.01 101.333 103.157L99.2266 106.911C99.1087 107.121 99.0521 107.356 99.0613 107.597L99.3104 114.08C99.3152 114.207 99.358 114.321 99.3965 114.436C99.2361 114.975 99.4197 115.573 99.9156 115.894L125.457 132.423C126.059 132.813 126.864 132.64 127.254 132.038C127.645 131.435 127.472 130.63 126.869 130.24L101.893 114.076C101.894 114.043 101.91 114.014 101.909 113.98L101.908 113.98L101.673 107.863L104.361 103.073C104.54 102.753 104.576 102.37 104.46 102.023C104.343 101.675 104.082 101.391 103.746 101.245C102.311 100.62 100.992 100.34 99.7967 100.34C98.4725 100.338 97.316 100.69 96.3821 101.214C94.9766 102.003 94.065 103.136 93.4891 104.052C93.2725 104.398 93.1031 104.717 92.9742 104.983C92.5826 105.021 92.026 105.056 91.3165 105.056C89.3514 105.056 86.2386 104.785 82.3536 103.527C81.5052 103.252 80.6932 103.122 79.9285 103.122C78.0252 103.115 76.4796 103.953 75.4495 105.015C74.409 106.084 73.8075 107.344 73.5411 108.455C73.4034 109.039 73.6842 109.642 74.2203 109.913L81.1539 113.417C81.1348 113.66 81.1168 113.939 81.1031 114.252C79.5504 114.116 77.4539 113.909 75.3084 113.642C72.9552 113.35 70.5412 112.982 68.7849 112.57C61.8167 110.94 56.5737 108.054 52.9465 105.039C51.1335 103.532 49.7257 101.992 48.7142 100.574C47.7014 99.1585 47.0908 97.8558 46.8505 96.8895C46.6301 96.0071 46.5344 95.1441 46.5341 94.2842C46.5274 91.4766 47.5908 88.6607 48.7633 85.7723C49.9202 82.8848 51.1954 79.9366 51.2791 76.7362L51.2792 76.7327C51.284 76.4939 51.2863 76.2584 51.2863 76.025C51.286 73.2428 50.9377 70.7662 50.6033 68.2816C50.2678 65.7943 49.9436 63.2953 49.9436 60.3929C49.9436 59.0851 50.0096 57.6946 50.1715 56.1849C50.6655 51.5875 51.8512 45.6326 55.684 40.2032C59.42 34.9239 65.6712 30.0558 76.5794 27.3658C77.8822 29.4794 78.91 32.0206 79.2305 35.0531C79.2913 35.631 79.7244 36.0953 80.2967 36.1966C80.8673 36.2977 81.4315 36.0113 81.6883 35.4922L81.6888 35.4925L81.6907 35.4888C81.7269 35.4151 83.0191 32.897 86.2623 30.4095C89.4031 28.0059 94.3582 25.6031 101.94 25.4124C101.943 25.4124 101.944 25.4136 101.946 25.4139L101.946 25.4136C111.313 25.9424 118.643 27.7925 124.368 30.49C132.95 34.5433 137.968 40.4712 140.928 46.9832C143.879 53.4937 144.716 60.6114 144.715 66.8577C144.715 68.0699 144.683 69.2496 144.631 70.3863C144.627 70.4852 144.658 70.5738 144.674 70.6673L136.82 73.3831L132.355 74.9271C131.676 75.1614 131.316 75.9019 131.551 76.5806C131.785 77.2591 132.525 77.6189 133.204 77.3846L133.204 77.3843L137.67 75.8404L156.066 69.4798C155.668 70.7935 155.021 72.5691 154.006 74.4827C152.039 78.1902 148.746 82.3668 143.28 84.8318C142.732 85.0787 142.424 85.6736 142.538 86.2632C142.652 86.8531 143.159 87.2901 143.759 87.3157L152.499 87.6878C151.745 88.7344 150.652 90.1204 149.234 91.5792C146.451 94.4476 142.446 97.5572 137.411 98.9456C137.145 99.0191 136.941 99.1849 136.777 99.3824C136.653 99.4557 136.534 99.5389 136.437 99.6554C134.975 101.416 133.572 103.574 130.896 105.659C128.224 107.736 124.27 109.762 117.699 110.982C116.993 111.113 116.526 111.791 116.657 112.497C116.788 113.203 117.466 113.669 118.172 113.539L118.172 113.538C119.667 113.262 121.039 112.94 122.311 112.585C122.391 112.609 122.464 112.648 122.55 112.656V112.657C122.568 112.657 124.442 112.852 126.752 113.974C129.067 115.101 131.806 117.116 133.734 120.835C137.295 127.714 138.35 134.412 138.35 139.659C138.35 142.289 138.084 144.552 137.741 146.269ZM163.604 131.302C160.555 131.296 157.059 132.294 153.424 134.93C150.245 132.627 147.31 131.76 144.805 131.764C143.085 131.764 141.596 132.157 140.372 132.668C139.725 128.739 138.461 124.447 136.259 120.076C138.787 118.811 140.608 117.29 141.828 116.021C142.528 115.294 143.031 114.651 143.366 114.181C145.225 114.526 150.134 115.637 155.533 118.445C158.785 120.135 162.208 122.435 165.261 125.538C167.359 127.671 169.276 130.192 170.861 133.156C168.983 132.169 166.519 131.303 163.604 131.302Z"/><path id="Vector_9" d="M74.7266 68.3317L55.2814 69.5466C54.5962 69.5893 54.0625 70.1576 54.0625 70.8442V73.9506C54.0625 74.2978 54.2023 74.632 54.4496 74.8759C54.6968 75.1198 55.033 75.2551 55.3802 75.2504L75.1575 74.9799C75.5193 74.9748 75.8584 74.8222 76.1018 74.5544C76.3452 74.2865 76.4651 73.9342 76.4355 73.5737L76.1035 69.5229C76.0452 68.8151 75.4353 68.2873 74.7266 68.3317ZM56.6623 72.6325V72.0654L73.616 71.006L73.73 72.3991L56.6623 72.6325Z"/><path id="Vector_10" d="M120.816 72.8304V68.6312C120.816 68.2789 120.67 67.9371 120.416 67.6932C120.162 67.4493 119.814 67.3175 119.462 67.3322L92.2055 68.4523C91.8295 68.4677 91.4745 68.6483 91.2407 68.943C91.0068 69.2377 90.9113 69.6241 90.9816 69.994L91.6467 73.493C91.7646 74.1137 92.3127 74.5599 92.9445 74.5502L119.536 74.1303C120.246 74.119 120.816 73.5402 120.816 72.8304ZM118.216 71.5507L93.9968 71.933L93.8173 70.9882L118.216 69.9855V71.5507H118.216Z"/><path id="Vector_11" d="M77.8819 57.164C77.2418 56.8437 76.4642 57.1024 76.1414 57.7404L76.1402 57.7397C76.137 57.7494 75.8333 58.3234 75.3135 58.8752C75.0548 59.152 74.7447 59.422 74.4061 59.6274C74.0672 59.8329 73.7061 59.975 73.3092 60.0292C73.2481 60.037 73.1715 60.0424 73.0787 60.0424C72.607 60.0473 71.7387 59.8922 70.7088 59.5861C67.5886 58.6747 62.9172 56.5092 59.3099 54.5282C58.6801 54.183 57.89 54.4137 57.545 55.0436C57.1999 55.6733 57.4306 56.4633 58.0604 56.8085L58.0603 56.8083C60.5517 58.1735 63.4847 59.6081 66.1804 60.7152C67.5291 61.2687 68.8173 61.7404 69.9765 62.0807C71.1412 62.4189 72.1563 62.6374 73.0787 62.6422C73.2703 62.6422 73.4576 62.6315 73.6414 62.6083L73.649 62.6071C74.4842 62.496 75.2122 62.1891 75.8135 61.8139C76.7174 61.2482 77.3553 60.537 77.7864 59.9674C78.2159 59.3964 78.4371 58.9589 78.463 58.9081C78.784 58.266 78.5237 57.485 77.8819 57.164Z"/><path id="Vector_12" d="M91.2626 56.748C91.9921 58.2087 92.8305 59.2392 93.8029 59.914C94.7728 60.592 95.8258 60.8579 96.7833 60.9502C96.8744 60.959 96.9528 60.9614 97.0245 60.9614C97.4716 60.9573 97.8698 60.8684 98.3366 60.7383C99.143 60.5066 100.121 60.1177 101.281 59.5849C104.749 57.9885 109.813 55.0881 115.106 51.4182C115.695 51.009 115.842 50.1992 115.433 49.6094C115.024 49.0193 114.214 48.8728 113.624 49.282C109.68 52.0178 105.849 54.3227 102.799 55.9299C101.276 56.7334 99.9454 57.3625 98.9142 57.7793C98.3995 57.9875 97.9589 58.1423 97.6222 58.2383C97.2972 58.3345 97.059 58.3637 97.0294 58.3613C96.3322 58.2876 95.8087 58.1377 95.286 57.7788C94.7628 57.4148 94.1886 56.7832 93.588 55.5847C93.2665 54.9426 92.4855 54.6824 91.8436 55.0039C91.2015 55.3252 90.9413 56.1062 91.2628 56.7483L91.2626 56.748Z"/><path id="Vector_13" d="M91.3069 82.7596C90.9131 82.1805 90.3423 81.6531 89.5977 81.3758C89.0274 81.1617 88.4395 81.0364 87.8438 81.0362C87.0579 81.0318 86.261 81.2706 85.5996 81.7393C84.5999 82.4466 83.9309 83.5638 83.4932 84.9769C83.0559 86.3987 82.8372 88.1619 82.8359 90.3397C82.8359 90.7098 82.8425 91.0919 82.8557 91.4859C82.8794 92.2034 83.4805 92.7657 84.1982 92.742C84.9158 92.7181 85.478 92.117 85.4544 91.3995L85.4541 91.3992C85.4419 91.032 85.4358 90.6788 85.4358 90.3397C85.4299 87.6749 85.8206 85.8409 86.3355 84.8331C86.5903 84.3255 86.8582 84.032 87.0925 83.868C87.3308 83.7061 87.5413 83.6404 87.8438 83.636C88.0701 83.6358 88.3508 83.6849 88.6846 83.8101C88.8377 83.8692 88.9846 83.9754 89.1628 84.2303C89.4272 84.6043 89.6709 85.2984 89.8057 86.1058C89.9456 86.9127 89.9954 87.824 89.9949 88.6485C89.9949 89.3821 89.957 90.0489 89.9192 90.5267C89.9002 90.7654 89.8814 90.9573 89.8677 91.0872L89.8513 91.2337L89.846 91.2764C89.7539 91.9886 90.2569 92.6402 90.9693 92.7322C91.6814 92.824 92.333 92.3211 92.4251 91.6089C92.4287 91.5733 92.5943 90.2921 92.5947 88.6485C92.5923 87.4131 92.5073 85.98 92.1443 84.6524C91.9595 83.9879 91.7051 83.3428 91.3069 82.7596Z"/><path id="Vector_14" d="M157.016 157.978L157.021 157.98L157.023 157.981L157.016 157.978Z"/></g></g></svg>