<svg xmlns="http://www.w3.org/2000/svg" width="200" height="200" fill="none"><path fill="#BEBEC9" d="M109.706 104.391c9.557-2.64 15.856-7.147 19.68-12.884 3.827-5.733 5.153-12.572 5.153-19.785a40.905 40.905 0 0 0-2.091-13.707 26.971 26.971 0 0 0-5.127-8.838c-3.491-3.99-8.451-7.216-15.219-9.425-6.772-2.21-15.361-3.425-26.228-3.426-9.66 0-17.52.96-23.904 2.726-9.568 2.64-15.852 7.148-19.655 12.887-3.807 5.735-5.107 12.572-5.107 19.783a40.568 40.568 0 0 0 2.116 13.71 27.058 27.058 0 0 0 5.158 8.836c3.505 3.989 8.473 7.214 15.236 9.423 6.766 2.211 15.335 3.425 26.156 3.426 9.618 0 17.456-.961 23.832-2.726ZM44.523 90.063c-3.442-5.15-4.715-11.431-4.715-18.341-.087-4.358.569-8.7 1.94-12.837a24.357 24.357 0 0 1 4.635-7.995c3.143-3.588 7.647-6.566 14.07-8.666 6.418-2.098 14.747-3.299 25.42-3.298 9.488 0 17.123.947 23.21 2.632 9.138 2.537 14.759 6.675 18.183 11.82 3.422 5.148 4.673 11.43 4.673 18.344.086 4.358-.578 8.7-1.963 12.833a24.442 24.442 0 0 1-4.664 7.996c-3.158 3.59-7.674 6.568-14.091 8.669-6.414 2.098-14.721 3.298-25.347 3.297-9.446.001-17.06-.947-23.14-2.632-9.125-2.536-14.766-6.675-18.211-11.822ZM94.94 125.322h-.001l-.003.002.004-.002Z"/><path fill="#BEBEC9" d="M115.292 96.084c.308-.172.613-.347.913-.526a27.917 27.917 0 0 0 3.906-2.794c.266-.228.521-.458.768-.686a1.302 1.302 0 0 0-.836-2.25 1.3 1.3 0 0 0-.933.344c-.227.21-.457.418-.691.617l-.002.002a25.257 25.257 0 0 1-3.545 2.535 27.57 27.57 0 0 1-.841.483 1.3 1.3 0 1 0 1.261 2.275ZM120.111 92.763l-.002.002.002-.002ZM70.526 43.683a46.606 46.606 0 0 0-13.3 4.23 1.3 1.3 0 0 0 1.192 2.311 44.038 44.038 0 0 1 12.56-3.981 1.3 1.3 0 1 0-.452-2.56ZM51.066 52.13a24.47 24.47 0 0 0-2.67 2.84 1.3 1.3 0 0 0 2.03 1.624 21.866 21.866 0 0 1 2.388-2.539 1.3 1.3 0 0 0-1.748-1.925Z"/><path fill="#BEBEC9" d="M159.134 163.011a1.313 1.313 0 0 0-.994.036 1.3 1.3 0 0 0-.678.729v-.001a7.32 7.32 0 0 1-1.054 1.844 6.984 6.984 0 0 1-3.12 2.301 10.477 10.477 0 0 1-3.723.63 14.789 14.789 0 0 1-3.179-.358 11.355 11.355 0 0 1-2.83-1.153 34.303 34.303 0 0 1-8.478-6.994l.002.002a12.845 12.845 0 0 1-2.772-4.33l-.005-.018a4.472 4.472 0 0 1-.203-1.319c-.001-.172.01-.343.031-.514a6.273 6.273 0 0 1 .88-2.418l.005-.007c.116-.201.245-.394.386-.578.049-.063.102-.119.153-.179a5.04 5.04 0 0 1 .281-.317c.081-.081.166-.155.251-.23.062-.055.123-.112.186-.162.108-.087.221-.166.336-.244.041-.028.082-.058.123-.085a6.782 6.782 0 0 1 2.364-.899l.092-.017a1.297 1.297 0 0 0 1.052-1.507 1.282 1.282 0 0 0-.76-.938 5.63 5.63 0 0 0-9.336 4.019 5.632 5.632 0 0 0 1.366 3.895c-.001.06-.011.122-.011.181 0 .128.023.249.03.375a5.96 5.96 0 0 1-2.927-1.209 13.618 13.618 0 0 1-3.904-5.514 65.982 65.982 0 0 1-5.277-17.964 15.374 15.374 0 0 1-.074-.834l.002-.01-.003-.009c-.012-.21-.021-.414-.021-.601-.041-.62.081-1.24.352-1.799a1.82 1.82 0 0 1 1.165-.81 5.624 5.624 0 0 1 1.63-.236c1.511.055 2.98.51 4.258 1.316a23.293 23.293 0 0 1 6.319 5.904 35.396 35.396 0 0 1 4.502 7.653 1.302 1.302 0 0 0 2.399-.012 1.3 1.3 0 0 0-.001-.993 37.74 37.74 0 0 0-6.998-10.772 22.427 22.427 0 0 0-4.912-4.026 11.13 11.13 0 0 0-5.567-1.67 8.199 8.199 0 0 0-2.375.346 4.426 4.426 0 0 0-2.662 1.985 5.608 5.608 0 0 0-.687 2.563c-.679.063-1.243.153-1.905.275a21.229 21.229 0 0 0-1.281-3.216 8.115 8.115 0 0 0-.908-1.411 3.648 3.648 0 0 0-1.215-.995 10.486 10.486 0 0 0-1.945-.644 66.606 66.606 0 0 0-9.683-1.298h-.004c-.684-.051-1.39-.101-2.107-.147v-3.293a83.488 83.488 0 0 0 18.953-3.406c11.613-3.671 19.329-9.974 24.027-18.084a42.263 42.263 0 0 0 3.822-8.892c.194.097.41.144.626.134a16.63 16.63 0 0 0 2.331-.36 9.883 9.883 0 0 0 4.135-1.837 6.495 6.495 0 0 0 1.349-1.734 19.39 19.39 0 0 0 1.64-4.043 33.31 33.31 0 0 0 1.103-5.506c.167-1.42.253-2.847.256-4.276a24.681 24.681 0 0 0-.325-4.205 8.792 8.792 0 0 0-1.012-3.042 6.95 6.95 0 0 0-2.112-2.085c-.014-.01-.028-.016-.042-.025a8.332 8.332 0 0 0 1.652-2.86c.62-1.86 1.005-3.79 1.145-5.745.935-9.898 2.462-27.748 2.793-32.805.015-.233.023-.458.023-.677a7.127 7.127 0 0 0-.351-2.319 4.64 4.64 0 0 0-1.751-2.364 5.3 5.3 0 0 0-2.449-.87 6.14 6.14 0 0 0-.681-.038 5.098 5.098 0 0 0-3.412 1.228 5.893 5.893 0 0 0-1.833 3.99c-.408 4.228-1.752 20.544-2.621 31.18-.16-.61-.319-1.22-.499-1.82-2.811-9.427-8.229-17.577-17.346-23.268-9.115-5.696-21.829-8.945-39.248-8.946-11.616 0-21.132 1.445-28.893 4.095C45.34 22.72 37.659 29.462 33 37.916a46.834 46.834 0 0 0-4.374 11.369c-.866-10.612-2.253-27.465-2.67-31.772a5.893 5.893 0 0 0-1.832-3.99 5.101 5.101 0 0 0-3.413-1.228c-.227 0-.455.013-.68.038a5.008 5.008 0 0 0-3.168 1.487 4.798 4.798 0 0 0-1.033 1.747 7.128 7.128 0 0 0-.35 2.319c0 .219.007.445.022.677.332 5.057 1.859 22.907 2.793 32.804.133 2.458.708 4.87 1.7 7.123a7.112 7.112 0 0 0 1.38 1.953 6.43 6.43 0 0 0-1.5 1.64 8.805 8.805 0 0 0-1.012 3.04 24.729 24.729 0 0 0-.325 4.204c.003 1.43.09 2.859.257 4.279.264 2.4.802 4.76 1.605 7.037.31.868.69 1.708 1.138 2.512.347.65.803 1.237 1.348 1.734a9.883 9.883 0 0 0 4.135 1.837c.744.169 1.498.287 2.257.354l.034.119a37.707 37.707 0 0 0 17.435 22.211c7.602 4.443 17.685 7.23 30.863 8.038v2.9c-.606.026-1.201.054-1.778.084-2.471.132-4.701.334-6.546.621-.833.124-1.659.293-2.474.505a8.21 8.21 0 0 0-1.884.722l-.002.001a13.183 13.183 0 0 0-3.618 3.205c-.196-.082-.38-.177-.59-.244a9.106 9.106 0 0 0-2.8-.422 17.437 17.437 0 0 0-8.527 2.748 44.04 44.04 0 0 0-11.401 10.121 33.896 33.896 0 0 0-3.753 5.659 11.736 11.736 0 0 0-1.506 5.056l.006.247a7.093 7.093 0 0 0 .82 3.069c.4.733.93 1.388 1.564 1.932a8.477 8.477 0 0 0-1.143 4.371c.012 3.489 1.694 7.479 5.011 11.766a25.221 25.221 0 0 0 5.648 5.654 7.853 7.853 0 0 0 6.12 1.433c.127.376.306.733.531 1.06a4.683 4.683 0 0 0 2.168 1.713 5.551 5.551 0 0 0 2.375.351c.028.253.054.513.083.761.225 2.01.553 4.008.983 5.984.293 1.461.763 2.88 1.4 4.225a1.297 1.297 0 0 0 1.755.556 1.301 1.301 0 0 0 .551-1.756 15.905 15.905 0 0 1-1.17-3.6 65.382 65.382 0 0 1-1.195-8.2c.383.11.769.218 1.17.32.006.001.01.006.016.007l.053.009a71.777 71.777 0 0 0 9.92 1.655c5.23.514 10.484.761 15.739.74a180.32 180.32 0 0 0 20.12-1.077l.01-.001h.002l.122-.013a69.806 69.806 0 0 0 7.329-1.198 22.042 22.042 0 0 0 2.57-.739l.021-.009a120.042 120.042 0 0 1-.81 12.513 1.31 1.31 0 0 0 .263.96 1.313 1.313 0 0 0 .864.493 1.308 1.308 0 0 0 .96-.263c.135-.104.248-.235.332-.383.085-.148.14-.312.161-.481.621-5.428.91-10.889.866-16.352a236.404 236.404 0 0 0-2.337-32.772c-.07-.478-.143-.944-.217-1.409.591-.037 1.09-.065 1.523-.09a76.941 76.941 0 0 0 3.407 9.207 16.118 16.118 0 0 0 4.714 6.533 8.59 8.59 0 0 0 5.131 1.783 17.779 17.779 0 0 0 2.933 4.33l.002.001a38.091 38.091 0 0 0 5.723 5.304 29.08 29.08 0 0 0 3.484 2.283c1.099.626 2.278 1.1 3.505 1.407 1.231.277 2.489.418 3.751.422a13.064 13.064 0 0 0 4.652-.801 9.616 9.616 0 0 0 4.255-3.148 9.896 9.896 0 0 0 1.426-2.517 1.3 1.3 0 0 0-.764-1.673Zm-45.568-32.162c.475-.084.856-.143 1.31-.188a55.56 55.56 0 0 0 1.326 6.655c-.361.021-.779.046-1.241.077-.43-2.422-.896-4.622-1.395-6.544Zm37.491-65.274a22.28 22.28 0 0 1 .285 3.755 34.508 34.508 0 0 1-.239 3.975 28.901 28.901 0 0 1-1.465 6.445c-.259.73-.577 1.437-.952 2.114a4.12 4.12 0 0 1-.773 1.042 7.51 7.51 0 0 1-3.027 1.284 15.068 15.068 0 0 1-1.689.28 71.355 71.355 0 0 0 1.902-17.284c0-2.256-.082-4.479-.246-6.667.817.176 1.619.42 2.397.726a9.94 9.94 0 0 1 1.862.957c.51.323.946.748 1.282 1.248a6.53 6.53 0 0 1 .663 2.125Zm-2.882-47.812c.013-.86.358-1.68.964-2.29a2.504 2.504 0 0 1 1.694-.578c.13 0 .261.007.391.022h.003a2.424 2.424 0 0 1 1.558.682c.212.234.372.51.469.811.15.477.221.976.21 1.476 0 .159-.006.328-.017.507-.326 4.983-1.855 22.866-2.787 32.73-.097 2.1-.58 4.164-1.427 6.088-.214.437-.5.834-.846 1.175-.138.13-.289.244-.45.342a18.476 18.476 0 0 0-.977-.34c-.59-.187-1.191-.34-1.799-.459a1.246 1.246 0 0 0-.339.008l.406-5c.809-9.93 2.487-30.415 2.947-35.174ZM20.884 51.123c-.932-9.864-2.46-27.747-2.787-32.73a7.687 7.687 0 0 1-.018-.507c-.01-.5.06-.999.211-1.476.13-.432.4-.808.769-1.068.378-.243.81-.39 1.258-.425h.003c.13-.015.26-.022.391-.022a2.504 2.504 0 0 1 1.694.578c.606.61.951 1.43.964 2.29.306 3.168 1.155 13.339 1.925 22.699a15084.825 15084.825 0 0 1 1.438 17.594c-.787.187-1.56.426-2.316.716-.197.076-.405.178-.609.266a3.544 3.544 0 0 1-1.487-1.71 18.016 18.016 0 0 1-1.436-6.205Zm6.505 33.019a7.209 7.209 0 0 1-2.822-1.236 4.121 4.121 0 0 1-.772-1.042 16.83 16.83 0 0 1-1.403-3.487c-.48-1.659-.82-3.356-1.014-5.072a34.543 34.543 0 0 1-.24-3.978 22.173 22.173 0 0 1 .286-3.754c.097-.74.321-1.458.662-2.122.35-.519.805-.957 1.337-1.285a11.63 11.63 0 0 1 2.87-1.296c.21-.065.405-.12.582-.168a90.994 90.994 0 0 0-.227 6.484 71.43 71.43 0 0 0 1.884 17.183 14.43 14.43 0 0 1-1.143-.227Zm7.926 10.396c-4.381-7.537-6.069-16.875-6.067-27.352A68.504 68.504 0 0 1 31.77 47.62c2.691-8.959 7.685-16.453 16.234-21.81 8.553-5.35 20.762-8.55 37.869-8.55 11.401 0 20.636 1.422 28.052 3.956 11.125 3.812 18.17 10.06 22.546 17.958 4.37 7.901 6.03 17.536 6.028 28.013a64.917 64.917 0 0 1-2.547 19.24 35.074 35.074 0 0 1-16.265 20.74c-8.559 5.009-20.77 7.935-37.814 7.933-11.36.001-20.58-1.298-27.994-3.65-11.124-3.539-18.177-9.377-22.564-16.91ZM85.873 117.7c2.512 0 4.908-.074 7.227-.196v4.097c0 .037.018.068.021.105-.003.027-.018.049-.02.076a1.293 1.293 0 0 0 .688 1.206 18.129 18.129 0 0 1-7.338 1.584 15.534 15.534 0 0 1-6.962-1.605c-.084-.042-.168-.091-.251-.134a1.28 1.28 0 0 0 .972-1.27.353.353 0 0 1 0-.292v-3.688c1.833.074 3.714.117 5.663.117Zm-30.755 55.009v-.002a3.254 3.254 0 0 1-1.307-.203 2.095 2.095 0 0 1-1.125-.977 1.61 1.61 0 0 1-.208-.775 1.275 1.275 0 0 1 .285-.813c.065.029.132.069.195.093a5.846 5.846 0 0 0 2.093.387c.053 0 .086-.003.13-.004.026.779.056 1.549.092 2.309a1.347 1.347 0 0 0-.155-.015Zm0-4.892-.067.002a3.275 3.275 0 0 1-1.147-.209 2.096 2.096 0 0 1-1.125-.977 1.605 1.605 0 0 1-.208-.774c-.005-.332.12-.651.347-.892a1.344 1.344 0 0 1 1.001-.38c.276.004.549.052.81.141.121.033.247.048.373.044 0 .176-.005.354-.005.53 0 .844.009 1.682.022 2.515Zm.254-11.849c-1.649-1.349-3.244-2.652-4.861-3.757 1.404-1.467 3.632-3.846 5.92-6.606-.493 3.242-.843 6.754-1.059 10.363ZM35.87 146.05a25.264 25.264 0 0 1 3.445-5.832 43.996 43.996 0 0 1 8.98-8.828c3.36-2.436 6.868-3.989 9.623-3.97a6.536 6.536 0 0 1 1.9.273 16.7 16.7 0 0 0-.517.981.956.956 0 0 0-.119.017 6.312 6.312 0 0 0-4.126 4.916 6.32 6.32 0 0 0 2.302 5.99c-.023.244-.05.475-.076.712-.166.226-.334.452-.504.677l-.002.003a112.061 112.061 0 0 1-8.536 9.834 16.29 16.29 0 0 0-.63-.312 5.776 5.776 0 0 0-10.856 1.092 4.274 4.274 0 0 1-.906-1.114 4.485 4.485 0 0 1-.513-1.953l-.003-.132c.04-.81.222-1.607.538-2.354Zm10.206 27.226a22.777 22.777 0 0 1-5.032-5.081c-3.11-3.996-4.477-7.558-4.465-10.172a5.505 5.505 0 0 1 3.346-5.304 6.997 6.997 0 0 1 3.062-.734 9.805 9.805 0 0 1 5.07 1.718 54.634 54.634 0 0 1 5.706 4.306c.386.317.758.642 1.114.974.101.086.215.155.337.206a157.61 157.61 0 0 0-.084 2.966 5.094 5.094 0 0 0-1.21-.169 3.946 3.946 0 0 0-2.865 1.168 3.867 3.867 0 0 0-1.083 2.704c.003.708.185 1.405.528 2.025.084.139.176.273.274.402a3.87 3.87 0 0 0-.895 2.466 4.21 4.21 0 0 0 .528 2.024c.175.316.386.61.63.877-.109.19-.201.389-.276.595-.014.003-.027-.002-.04.001-.443.1-.896.153-1.35.157a5.77 5.77 0 0 1-3.295-1.129Zm9.388 4.136a2.964 2.964 0 0 1-1.063-.185 2.064 2.064 0 0 1-.976-.773 1.567 1.567 0 0 1-.296-.895c.002-.177.041-.352.114-.513a6.01 6.01 0 0 0 1.716.265c.141.001.283-.005.424-.018.013-.002.022-.01.035-.011.048.722.102 1.431.16 2.125-.04.001-.069.005-.114.005Zm14.205-.037a87.55 87.55 0 0 1-3.136-.382c1.52-.817 2.96-1.777 4.562-2.569a15.061 15.061 0 0 1 6.98-1.697c1.951.031 3.884.379 5.724 1.03 2.841.941 5.705 2.409 8.818 3.674.401.162.807.321 1.218.475-2.82.127-5.752.196-8.698.195a151.887 151.887 0 0 1-15.468-.726Zm44.723-2.142a28.517 28.517 0 0 1-4.555 1.109c-1.43.254-3.066.488-4.854.697a18.73 18.73 0 0 1-2.01.109c-4.497.003-8.392-1.642-12.339-3.399-1.971-.875-3.948-1.771-6.015-2.459a20.58 20.58 0 0 0-6.544-1.163 19.09 19.09 0 0 0-10.162 3.074c-1.266.74-2.387 1.444-3.444 1.936-.96.49-2.017.758-3.095.783a6.206 6.206 0 0 1-1.33-.151 34.413 34.413 0 0 1-2.025-.584c-.21-3.1-.322-6.456-.321-9.884a122.77 122.77 0 0 1 1.838-22.43 49.31 49.31 0 0 0 .63-5.894c.06-1.679.273-3.348.637-4.988a13.852 13.852 0 0 1 2.284-4.579 10.867 10.867 0 0 1 3.127-2.87 5.824 5.824 0 0 1 1.278-.472 41.868 41.868 0 0 1 7.437-.978 18.333 18.333 0 0 0 3.404 2.204 18.127 18.127 0 0 0 8.12 1.877 20.73 20.73 0 0 0 8.487-1.849 14.997 14.997 0 0 0 3.185-1.912c2.401.196 4.577.437 6.329.715a30.37 30.37 0 0 1 2.421.472c.496.11.981.266 1.448.467.128.08.24.184.33.306a8.761 8.761 0 0 1 1.19 2.263 49.859 49.859 0 0 1 2.146 8.002c1.996 10.024 3.36 25.162 3.358 38.516 0 .216-.003.428-.004.643-.301.178-.62.325-.951.439Zm18.806-27.684-.062.044a8.37 8.37 0 0 0-.476.345c-.103.082-.201.174-.3.262-.098.086-.198.162-.294.256-.026.026-.048.057-.074.083a7.733 7.733 0 0 0-.432.485c-.073.088-.151.169-.221.261-.203.264-.388.54-.556.827.084-.626.363-1.21.796-1.669.433-.46.999-.773 1.619-.894Zm-2.429 2.583-.002.004-.002.003.004-.007Z"/><path fill="#BEBEC9" d="m60.715 125.241.002.001.004.001-.006-.002Z"/><path fill="#191C22" d="M172.547 159.855a13.45 13.45 0 0 1-.347-.183 1.317 1.317 0 0 0-.991-.095 1.312 1.312 0 0 0-.914 1.119 1.301 1.301 0 0 0 .684 1.272c.125.066.263.141.413.216a1.302 1.302 0 0 0 1.877-1.076 1.305 1.305 0 0 0-.722-1.253ZM178.431 160.631a2.766 2.766 0 0 0-.937-.38 4.556 4.556 0 0 0-.856-.091 1.3 1.3 0 0 0-.057 2.6c.123 0 .246.011.367.033l.066.019.004.002.047-.091-.056.085.009.006.047-.091-.056.085a1.297 1.297 0 0 0 1.444-.015 1.288 1.288 0 0 0 .544-.833 1.291 1.291 0 0 0-.204-.974 1.302 1.302 0 0 0-.362-.355Z"/><path fill="#FFE632" d="M78.53 65.143a20.7 20.7 0 0 0-2.13-9.472 10.11 10.11 0 0 0-2.763-3.372 6.655 6.655 0 0 0-4.502-1.367 7.431 7.431 0 0 0-4.078 1.546 11.81 11.81 0 0 0-3.714 5.488 21.556 21.556 0 0 0-1.18 7.168 18.537 18.537 0 0 0 2.106 9.008 9.337 9.337 0 0 0 2.84 3.167 7.342 7.342 0 0 0 4.161 1.255c.133 0 .269-.003.407-.01a7.602 7.602 0 0 0 4.082-1.395 10.635 10.635 0 0 0 3.66-5.175 20.365 20.365 0 0 0 1.11-6.841Zm-4.285 7.575a6.903 6.903 0 0 1-1.99 2.32 4.982 4.982 0 0 1-2.704.92 5.582 5.582 0 0 1-.281.006 4.724 4.724 0 0 1-2.71-.812 7.982 7.982 0 0 1-2.793-3.94 17.752 17.752 0 0 1-1.004-6.078 17.462 17.462 0 0 1 1.801-8.044 7.856 7.856 0 0 1 2.072-2.546 4.812 4.812 0 0 1 2.667-1.017l-.084-1.298.085 1.298a4.036 4.036 0 0 1 2.77.85 9.147 9.147 0 0 1 2.809 4.3 19.759 19.759 0 0 1 1.047 6.466 16.015 16.015 0 0 1-1.686 7.575ZM106.879 52.299a6.652 6.652 0 0 0-4.502-1.367 7.432 7.432 0 0 0-4.078 1.546 11.81 11.81 0 0 0-3.714 5.488 21.556 21.556 0 0 0-1.18 7.168 18.538 18.538 0 0 0 2.106 9.008 9.339 9.339 0 0 0 2.84 3.167 7.341 7.341 0 0 0 4.161 1.255c.133 0 .269-.003.407-.01a7.6 7.6 0 0 0 4.082-1.395 10.638 10.638 0 0 0 3.661-5.175 20.382 20.382 0 0 0 1.11-6.841 20.695 20.695 0 0 0-2.13-9.472 10.106 10.106 0 0 0-2.763-3.372Zm.608 20.42a6.908 6.908 0 0 1-1.989 2.319 4.984 4.984 0 0 1-2.705.92 5.698 5.698 0 0 1-.281.006 4.724 4.724 0 0 1-2.71-.812 7.983 7.983 0 0 1-2.793-3.94 17.751 17.751 0 0 1-1.004-6.078 17.462 17.462 0 0 1 1.802-8.044 7.857 7.857 0 0 1 2.071-2.546 4.812 4.812 0 0 1 2.668-1.017l-.084-1.298.084 1.298a4.037 4.037 0 0 1 2.771.85 9.15 9.15 0 0 1 2.808 4.3 19.767 19.767 0 0 1 1.047 6.466 16.017 16.017 0 0 1-1.685 7.575ZM96.308 87.297a54.885 54.885 0 0 0-10.257-.878c-3.2-.005-6.396.195-9.57.599A1.299 1.299 0 0 0 75.38 88.5a11.243 11.243 0 0 0 1.843 4.362 9.929 9.929 0 0 0 3.31 3.01 11.41 11.41 0 0 0 5.641 1.356 12.067 12.067 0 0 0 5.67-1.297c1.88-.998 3.421-2.53 4.43-4.405.474-.843.83-1.747 1.059-2.687a1.298 1.298 0 0 0-1.025-1.542Zm-5.776 6.385a9.528 9.528 0 0 1-4.358.946 8.807 8.807 0 0 1-4.376-1.027 7.678 7.678 0 0 1-3.154-3.448 9.16 9.16 0 0 1-.314-.736 76.513 76.513 0 0 1 7.721-.398c2.768-.01 5.532.188 8.27.59a8.893 8.893 0 0 1-1.218 1.994 7.844 7.844 0 0 1-2.57 2.079ZM186.156 120.933l-4.369-3.483c.108-.069.216-.139.318-.22.292-.229.537-.513.72-.836.197-.354.301-.753.301-1.158l-.008-.19a1.189 1.189 0 0 0-.049-.177 1.29 1.29 0 0 0 0-.447 10.181 10.181 0 0 0-.332-1.202l-.003-.012-.005-.01a14.268 14.268 0 0 0-2.552-4.398 25.663 25.663 0 0 0-3.212-3.197 19.569 19.569 0 0 0-3.863-2.639 9.167 9.167 0 0 0-4.071-1.057 6.872 6.872 0 0 0-2.716.554 9.486 9.486 0 0 0-3.655 2.949 21.432 21.432 0 0 0-2.625 4.48 7.312 7.312 0 0 0-2.223-.322c-.29 0-.592.013-.906.039a6.658 6.658 0 0 0-2.135.499c-.261.114-.51.252-.744.412a18.92 18.92 0 0 0-4.758-4.856 10.317 10.317 0 0 0-5.75-1.882 9.958 9.958 0 0 0-6.579 2.664 20.71 20.71 0 0 0-5.105 7.472 3.787 3.787 0 0 0-.329 1.515c.006.737.239 1.455.669 2.054a5.854 5.854 0 0 0 1.888 1.65 7.8 7.8 0 0 0 .818.409l1.012 36.351c.009.33.144.645.377.879l9.2 9.272c.075.064.156.119.243.163a1.301 1.301 0 0 0 1.345.761l11.78-1.449.023-.003.36-.051a1.3 1.3 0 1 0-.363-2.575l-.355.05-10.317 1.269-.342-36.975 11.057-.843.209 33.765a1.292 1.292 0 0 0 .384.922 1.287 1.287 0 0 0 .924.378 1.309 1.309 0 0 0 .919-.389 1.31 1.31 0 0 0 .373-.927l-.21-33.947 8.837-.673-.045 34.626a1.3 1.3 0 0 0 2.6.003l.046-34.827 11.071-.843-.174 35.339-7.525.93.002.02a1.286 1.286 0 0 0-1.153 1.27 1.299 1.299 0 0 0 1.3 1.3h.01l.16-.01 8.66-1.07a1.299 1.299 0 0 0 1.14-1.284l.19-38.569c0-.039-.018-.072-.021-.11a1.306 1.306 0 0 0-.442-1.364Zm-38.95 3.744a1.27 1.27 0 0 0-.213-.126l-3.662-3.154c2.133-.133 4.348-.431 6.202-.726 1.062-.17 1.99-.337 2.722-.476.054.088.119.168.192.239l4.244 3.52-9.485.723Zm-9.762-6.509c.428-.51.886-.994 1.373-1.449a12.054 12.054 0 0 1 2.218-1.667 6.482 6.482 0 0 1 2.518-.868c.699-.08 1.402-.124 2.106-.132a6.075 6.075 0 0 1 2.725.543 33.124 33.124 0 0 1 3.636 2.13c.107.059.221.103.339.129.05.214.097.429.156.642-.9.18-2.481.478-4.327.752a50.73 50.73 0 0 1-7.015.623 14.512 14.512 0 0 1-2.498-.18 3.6 3.6 0 0 1-1.228-.399l-.003-.124Zm22.784 5.517a1.264 1.264 0 0 0-.34-.456l-2.958-2.454c.316.023.641.04.98.04.476.002.952-.03 1.424-.094a8.208 8.208 0 0 0 2.526-.759l-.581-1.162.582 1.162c.34-.18.643-.422.893-.715l.89-.023c.076.108.169.204.275.283l5.136 3.505-8.827.673Zm18.866-11.164a3.95 3.95 0 0 1 1.229 1.666c.079.245.145.494.197.746.006.03.026.052.034.081a1.144 1.144 0 0 0-.017.131l-.095.085a3.337 3.337 0 0 1-.909.409c-1.065.3-2.155.495-3.257.585-3.506.362-8.288.32-12.275.393a44.723 44.723 0 0 1 5.935-3.735 12.602 12.602 0 0 1 5.427-1.584 5.37 5.37 0 0 1 1.733.269 6.774 6.774 0 0 1 1.998.954Zm-6.436 10.217a1.282 1.282 0 0 0-.519-.768l-4.11-2.806c2.339-.028 4.752-.072 6.92-.22a32.456 32.456 0 0 0 3.944-.476l4.345 3.464-10.58.806Zm-7.062-16.703a5.885 5.885 0 0 1 1.736-1.182 4.296 4.296 0 0 1 1.699-.347 6.596 6.596 0 0 1 2.913.786 16.98 16.98 0 0 1 3.337 2.292c.337.287.812.699 1.339 1.207a8.391 8.391 0 0 0-1.257-.093 15.077 15.077 0 0 0-6.591 1.86 43.6 43.6 0 0 0-5.373 3.291 6.344 6.344 0 0 0-.536-1.594 4.717 4.717 0 0 0-.628-.932 16.296 16.296 0 0 1 3.361-5.288Zm-10.798 7.57c.097-.361.316-.678.619-.896a3.324 3.324 0 0 1 1.699-.511c.25-.02.481-.03.696-.03a4.2 4.2 0 0 1 1.758.312c.255.113.483.28.668.49.294.362.494.792.583 1.25.136.646.198 1.306.185 1.966 0 .315-.009.641-.025.974a.548.548 0 0 1-.284.477 5.62 5.62 0 0 1-1.729.51c-.35.047-.704.07-1.058.068a13.187 13.187 0 0 1-2.19-.204.568.568 0 0 1-.444-.377 9.977 9.977 0 0 1-.606-3.04 3.41 3.41 0 0 1 .128-.989Zm-20.692 1.826a1.19 1.19 0 0 1 .114-.48 18.194 18.194 0 0 1 4.429-6.548 7.362 7.362 0 0 1 4.87-2.023 7.719 7.719 0 0 1 4.303 1.442 16.777 16.777 0 0 1 4.411 4.644c.047.056.099.107.155.153-.125.359-.211.73-.256 1.108a22.99 22.99 0 0 0-2.689-1.507 8.741 8.741 0 0 0-3.784-.768 23.52 23.52 0 0 0-2.373.145 9.117 9.117 0 0 0-3.586 1.223 16.143 16.143 0 0 0-3.747 3.102c-.29.319-.536.61-.743.865a3.923 3.923 0 0 1-.301-.2 2.653 2.653 0 0 1-.615-.609.953.953 0 0 1-.188-.547Zm4.372 39.877-.953-34.21c.225.058.455.109.691.153.365.065.756.103 1.151.138.024.024.036.056.062.079l5.807 5.002.334 35.985-7.092-7.147Z"/><path fill="#BEBEC9" d="M177.851 159.03a6.156 6.156 0 0 0-3.689-1.444l-.213-.01a2.575 2.575 0 0 0-1.289.351 3.83 3.83 0 0 0-1.338 1.414c-.047.08-.084.162-.127.243-.035-.048-.067-.107-.103-.148a2.567 2.567 0 0 0-.883-.625 5.866 5.866 0 0 0-1.378-.406 8.298 8.298 0 0 0-1.441-.133 5.15 5.15 0 0 0-.96.082c-.378.06-.735.212-1.04.443a2.254 2.254 0 0 0-.607.813c-.046.097-.08.204-.12.305a5.737 5.737 0 0 0-.069-.31 1.646 1.646 0 0 0-.454-.766 1.944 1.944 0 0 0-.873-.467 3.094 3.094 0 0 0-.767-.09 5.996 5.996 0 0 0-2.588.661 4.597 4.597 0 0 0-1.196.854 2.875 2.875 0 0 0-.799 1.462v.001a12.699 12.699 0 0 0-.183 2.344c.015 1.298.099 2.595.251 3.884.035.303.15.592.332.837.228.299.52.544.855.718.45.236.931.41 1.429.515.521.119 1.054.18 1.589.182a4.272 4.272 0 0 0 1.768-.332c.148-.069.29-.15.424-.245.041.019.076.036.12.055a4.77 4.77 0 0 0 1.8.356h.039a6.137 6.137 0 0 0 3.44-.882l.002-.001a1.82 1.82 0 0 0 .46-.462c.047-.073.09-.148.129-.224.172.039.364.081.592.125.775.16 1.562.248 2.353.264.368.004.736-.031 1.097-.105a2.615 2.615 0 0 0 1.159-.543c.283-.259.515-.569.682-.915.302-.612.553-1.247.751-1.9.675-2.099 1.209-4.677 1.215-4.7a1.294 1.294 0 0 0-.37-1.201Zm-11.325 3.864c.14-.656.289-1.263.426-1.692.039-.125.077-.227.111-.314a3.24 3.24 0 0 1 .327-.016c.489.003.975.07 1.446.199.044.013.073.026.111.039a29.31 29.31 0 0 1-.322 3.424 15.514 15.514 0 0 1-.346 1.724 3.722 3.722 0 0 1-.124.374 4.085 4.085 0 0 1-1.821.342l-.023.001v-.001a2.076 2.076 0 0 1-.601-.092c.031-.058.057-.119.078-.182.202-.98.455-2.488.738-3.806Zm-4.336 4.246a4.662 4.662 0 0 1-1.481-.252 1.939 1.939 0 0 1-.182-.076c-.08-.765-.194-2.02-.193-3.207-.011-.62.035-1.239.135-1.851a.63.63 0 0 1 .169-.198c.267-.214.571-.378.897-.484.214-.075.436-.129.661-.162.296 1.939.475 3.893.537 5.853 0 .12-.003.228-.006.325-.014.003-.021.007-.036.01-.166.03-.333.044-.501.042Zm11.995-2.032a5.126 5.126 0 0 1-.264.574l-.037.061a2.574 2.574 0 0 1-.567.051 9.266 9.266 0 0 1-1.44-.141l.794-2.229.06-.234v-.002c.113-.639.286-1.266.518-1.872a3.61 3.61 0 0 1 .542-.984.713.713 0 0 1 .17-.154 4.414 4.414 0 0 1 1.522.391c-.161.703-.41 1.732-.695 2.721a20.146 20.146 0 0 1-.603 1.818Z"/><path fill="#BEBEC9" d="m174.156 157.585.005.001h.008l-.013-.001Z"/></svg>