<svg width="200" height="200" viewBox="0 0 200 200" xmlns="http://www.w3.org/2000/svg"><g id="type=love, mode=dark"><g id="love"><path id="Vector" d="M84.3253 116.365C84.4809 116.011 84.644 115.854 84.781 115.761C84.919 115.67 85.0537 115.637 85.1872 115.636L85.3971 115.669L85.4808 115.709C86.0293 116.172 86.8494 116.103 87.3126 115.555C87.7758 115.006 87.7066 114.186 87.1581 113.723C86.6006 113.261 85.9207 113.042 85.1872 113.036C84.5818 113.035 83.9288 113.205 83.344 113.594C82.7581 113.98 82.2632 114.578 81.9396 115.331C81.654 115.99 81.9566 116.755 82.6154 117.041C83.2741 117.326 84.0397 117.024 84.3253 116.365Z"/><path id="Vector_2" d="M92.2934 120.997C92.7474 121.397 93.191 121.704 93.6493 121.921C94.1057 122.137 94.5854 122.262 95.0652 122.261C95.6478 122.265 96.2009 122.066 96.613 121.776C97.2378 121.337 97.5926 120.766 97.8434 120.236C98.0909 119.7 98.229 119.183 98.3077 118.75L97.0282 118.521L95.9266 119.211C95.9592 119.26 96.2983 119.806 96.8869 120.4C97.1834 120.697 97.5436 121.01 97.9934 121.271C98.4406 121.529 98.9975 121.745 99.6513 121.746C100.039 121.747 100.452 121.663 100.835 121.488C101.219 121.313 101.571 121.055 101.883 120.734C102.384 120.219 102.372 119.396 101.857 118.895C101.343 118.395 100.52 118.406 100.019 118.921C99.8965 119.047 99.8103 119.097 99.7594 119.121L99.6514 119.146C99.597 119.148 99.472 119.123 99.2945 119.02C99.0301 118.872 98.7029 118.561 98.4765 118.29C98.3618 118.154 98.2689 118.03 98.2081 117.945L98.1418 117.849L98.1286 117.829L98.1273 117.827L97.5004 118.225L98.1297 117.83L98.1273 117.827L97.5004 118.225L98.1297 117.83C97.8441 117.375 97.3091 117.142 96.7812 117.245C96.2533 117.347 95.8436 117.762 95.7486 118.291C95.6951 118.614 95.5378 119.104 95.3545 119.383C95.2656 119.525 95.1784 119.609 95.1359 119.637L95.0652 119.662C95.0317 119.661 94.9396 119.654 94.7605 119.57C94.5833 119.487 94.3278 119.325 94.0139 119.047C93.4755 118.572 92.6539 118.623 92.1788 119.162C91.7037 119.7 91.755 120.521 92.2934 120.997Z"/><path id="Vector_3" d="M108.011 115.271C108.244 115.089 108.33 115.092 108.428 115.084C108.543 115.08 108.737 115.147 108.902 115.257L109.094 115.403L109.135 115.44L109.137 115.443L109.678 114.919L109.126 115.43L109.137 115.443L109.678 114.919L109.126 115.43C109.614 115.957 110.436 115.988 110.963 115.501C111.489 115.013 111.521 114.19 111.033 113.664C110.983 113.611 110.74 113.351 110.314 113.074C109.89 112.803 109.258 112.489 108.428 112.485C107.755 112.477 106.991 112.733 106.359 113.264C105.804 113.72 105.725 114.54 106.181 115.094C106.638 115.648 107.457 115.728 108.011 115.271Z"/><path id="Vector_4" d="M97.8153 76.9636C97.3539 75.189 96.2695 73.5413 94.9679 71.8376C93.0084 69.2947 90.4962 66.6365 88.5104 63.8398C87.5173 62.4441 86.6585 61.0203 86.0574 59.5874C85.4554 58.1528 85.1099 56.7175 85.1098 55.2603L85.1124 55.0437C85.1907 52.2144 86.1145 50.4907 87.3465 49.3799C88.5831 48.2732 90.2431 47.7676 91.8718 47.7678C93.324 47.7627 94.7195 48.1858 95.6063 48.8018C97.2488 49.9307 98.0825 51.2551 98.531 52.3064C98.7534 52.8306 98.8744 53.2839 98.9382 53.594C98.9702 53.749 98.9879 53.8679 98.9972 53.9417L99.0055 54.0168H99.0057C99.0448 54.6824 99.5794 55.2095 100.246 55.2393C100.912 55.269 101.491 54.7915 101.589 54.1321L101.19 54.0725L101.588 54.1389L101.589 54.1321L101.19 54.0725L101.588 54.1389C101.592 54.1025 101.791 52.9971 102.553 51.8184C103.325 50.6362 104.584 49.3735 106.937 48.7769C107.635 48.6023 108.337 48.5151 109.019 48.5151C110.795 48.5171 112.408 49.0959 113.574 50.2153C114.736 51.3386 115.536 53.0305 115.545 55.574C115.545 56.3398 115.469 57.1802 115.301 58.0974C114.963 59.9663 113.883 61.8115 112.37 63.5151C110.108 66.0718 106.918 68.2583 104.305 69.7695C102.998 70.5269 101.836 71.1196 101.006 71.5208C100.59 71.7212 100.258 71.8738 100.031 71.9756C99.9179 72.0264 99.8311 72.0642 99.7738 72.0891L99.6928 72.124C99.0309 72.4021 98.7199 73.1643 98.9981 73.8262C99.2763 74.488 100.038 74.7991 100.7 74.521C100.748 74.4993 104.503 72.9238 108.517 70.1941C110.525 68.8269 112.6 67.1719 114.315 65.2402C116.024 63.3098 117.394 61.0862 117.859 58.5652C118.052 57.5085 118.145 56.512 118.145 55.574C118.153 52.4709 117.098 49.9834 115.374 48.3391C113.656 46.6907 111.355 45.9133 109.019 45.9153C108.116 45.9153 107.204 46.0298 106.306 46.2546C104.742 46.6445 103.475 47.3064 102.484 48.0828C100.995 49.2488 100.134 50.6475 99.6461 51.7471C99.1574 52.8499 99.0308 53.6655 99.0176 53.749L100.303 53.9407L101.601 53.8643C101.594 53.7585 101.523 52.7068 100.925 51.2915C100.329 49.8799 99.1819 48.0989 97.0769 46.6575C95.6456 45.6836 93.8016 45.1731 91.8718 45.168C89.7229 45.1682 87.4274 45.8279 85.6159 47.4395C83.7998 49.0474 82.5829 51.5957 82.5131 54.981C82.5108 55.0735 82.5098 55.167 82.5098 55.2603C82.5105 57.7605 83.3012 60.092 84.4451 62.239C86.166 65.4609 88.6903 68.3315 90.8758 70.9309C91.9688 72.2275 92.9777 73.4534 93.7578 74.5845C94.5407 75.7139 95.0816 76.7493 95.2956 77.605C95.4726 78.3005 96.1802 78.7212 96.876 78.5442C97.5718 78.3672 97.9923 77.6594 97.8153 76.9639V76.9636Z"/><path id="Vector_5" d="M154.285 120.939L154.285 120.939C147.075 118.27 139.707 117.525 133.661 117.524C131.302 117.524 129.15 117.639 127.279 117.8C127.088 116.782 126.898 115.781 126.708 114.799C131.022 113.913 136.88 113.062 143.466 113.064C145.353 113.064 147.301 113.133 149.288 113.292C150.004 113.349 150.63 112.814 150.687 112.099C150.744 111.383 150.21 110.757 149.494 110.7L149.494 110.7C147.433 110.536 145.417 110.464 143.466 110.464C136.67 110.465 130.656 111.335 126.21 112.246C122.727 94.5524 119.764 83.3324 119.758 83.311C119.643 82.8741 119.314 82.5321 118.882 82.4C118.45 82.2678 117.986 82.3671 117.646 82.6647C116.954 83.2703 115.857 84.3073 114.572 85.5453C111.367 88.6354 107.054 92.929 105.702 94.2777C103.799 94.0892 101.623 94.0133 99.3656 94.0129C93.2444 94.0137 86.6585 94.5292 84.5444 94.7089C82.767 92.4742 80.4274 90.0347 78.4519 88.0742C76.31 85.9504 74.6127 84.4082 74.6034 84.3998C74.2881 84.1133 73.8536 83.9995 73.4384 84.0949C73.0232 84.1901 72.6817 84.4818 72.5229 84.8772C71.325 87.8643 70.162 92.2305 69.0266 97.5534C68.0929 101.939 67.1863 106.981 66.3291 112.366C61.8346 111.412 55.5896 110.466 48.4973 110.464C46.5456 110.464 44.5298 110.536 42.4688 110.7C41.753 110.757 41.219 111.383 41.2759 112.099C41.3328 112.815 41.9592 113.349 42.675 113.292L42.675 113.292C44.6624 113.133 46.6096 113.064 48.4973 113.064C55.3857 113.063 61.4815 113.992 65.8435 114.921C65.8721 114.927 65.8965 114.933 65.925 114.939C65.7779 115.9 65.6329 116.87 65.4895 117.848C63.4967 117.663 61.1522 117.524 58.5588 117.524C52.5125 117.525 45.1446 118.27 37.9348 120.939C37.2614 121.188 36.9178 121.936 37.1673 122.609C37.4167 123.283 38.1646 123.626 38.838 123.377L38.8379 123.377C45.6498 120.852 52.726 120.123 58.5588 120.124C61.0036 120.124 63.2254 120.252 65.1202 120.425C64.9528 121.608 64.7883 122.799 64.6267 123.998C63.9964 124.076 63.3425 124.162 62.6663 124.259C56.9923 125.082 49.8711 126.648 43.9721 129.768C43.3376 130.104 43.0957 130.891 43.4319 131.525C43.768 132.16 44.5548 132.402 45.1894 132.065L45.1893 132.065C50.6351 129.174 57.5309 127.623 63.0378 126.833C63.4589 126.772 63.8686 126.717 64.2722 126.664C62.93 136.996 61.8221 147.679 61.1019 157.067C61.047 157.783 61.5829 158.408 62.2988 158.463C63.0146 158.518 63.6394 157.982 63.6943 157.266C64.4245 147.737 65.5594 136.841 66.9333 126.358C68.0661 126.244 69.0749 126.164 69.9154 126.109C70.7728 126.053 71.4568 126.021 71.924 126.004C72.1576 125.995 72.337 125.99 72.4569 125.987C72.5767 125.984 72.6321 125.983 72.6323 125.983C73.3501 125.973 73.9243 125.384 73.9147 124.666C73.9052 123.948 73.3154 123.374 72.5976 123.383C72.5705 123.384 70.4861 123.413 67.2922 123.711C67.4287 122.706 67.5643 121.702 67.7049 120.71C67.8016 120.722 67.9065 120.735 68.0001 120.747C69.1623 120.903 70.0833 121.058 70.7097 121.173C71.0229 121.231 71.2624 121.279 71.4218 121.312L71.5995 121.35L71.652 121.361C72.352 121.52 73.0485 121.082 73.2077 120.382C73.3668 119.681 72.9283 118.985 72.2283 118.826C72.195 118.819 70.6519 118.471 68.0797 118.136C68.1735 117.498 68.2642 116.846 68.3596 116.215C68.3945 115.984 68.4303 115.757 68.4655 115.527C69.4517 115.772 70.3034 116.002 70.9692 116.194C71.5677 116.367 72.0286 116.511 72.3372 116.61C72.4915 116.66 72.6078 116.699 72.6842 116.724L72.7686 116.753L72.7917 116.761C73.4689 116.999 74.2111 116.644 74.4495 115.966C74.6879 115.289 74.3321 114.547 73.6549 114.309C73.6208 114.298 71.8663 113.682 68.8672 112.946C69.7272 107.528 70.6375 102.471 71.5696 98.095C72.4643 93.8879 73.3853 90.3119 74.28 87.6524C75.1104 88.4386 76.2279 89.5163 77.4266 90.7262C79.3397 92.6562 81.4636 94.9333 82.9246 96.8528C83.1958 97.2088 83.6334 97.4008 84.079 97.3594C84.0804 97.3593 84.5748 97.3133 85.4414 97.2433C88.0393 97.033 93.94 96.6126 99.3657 96.613C101.811 96.6125 104.161 96.6994 106.036 96.9206C106.433 96.9672 106.825 96.831 107.107 96.5487C107.109 96.5471 107.712 95.944 108.661 95.0002C110.085 93.5843 112.282 91.4065 114.365 89.371C115.607 88.1571 116.81 86.9937 117.78 86.0761C118.783 90.0923 121.083 99.6591 123.67 112.808C120.323 113.603 118.345 114.297 118.308 114.309C117.631 114.547 117.275 115.289 117.514 115.966C117.752 116.644 118.494 116.999 119.172 116.761L119.195 116.753C119.418 116.675 121.225 116.064 124.168 115.362C124.339 116.249 124.511 117.151 124.683 118.067C121.783 118.421 120.026 118.818 119.991 118.826C119.291 118.985 118.852 119.681 119.011 120.382C119.17 121.082 119.867 121.52 120.567 121.361L120.62 121.35C120.929 121.282 122.592 120.937 125.161 120.629C125.35 121.657 125.54 122.704 125.73 123.764C122.229 123.416 119.908 123.384 119.879 123.383C119.161 123.374 118.572 123.948 118.562 124.666C118.553 125.384 119.127 125.974 119.845 125.983C119.845 125.983 119.9 125.984 120.02 125.987C120.659 126.002 122.997 126.083 126.203 126.427C127.767 135.361 129.32 145.31 130.657 155.884C130.747 156.597 131.398 157.101 132.11 157.011C132.822 156.921 133.327 156.271 133.237 155.558L133.237 155.558C131.932 145.244 130.424 135.526 128.9 126.758C129.417 126.829 129.945 126.905 130.487 126.99C135.802 127.821 142.182 129.355 147.287 132.065C147.921 132.401 148.708 132.16 149.044 131.525C149.38 130.891 149.138 130.104 148.504 129.768L148.504 129.768C142.605 126.648 135.484 125.082 129.81 124.259C129.337 124.191 128.879 124.13 128.427 124.072C128.203 122.814 127.98 121.581 127.756 120.368C129.502 120.225 131.493 120.124 133.661 120.124C139.494 120.123 146.57 120.852 153.382 123.377C154.055 123.626 154.803 123.283 155.053 122.609C155.302 121.936 154.958 121.188 154.285 120.939Z"/><path id="Vector_6" d="M85.189 113.035C84.5836 113.034 83.9305 113.204 83.3457 113.593C82.7597 113.979 82.2649 114.578 81.9414 115.331C81.656 115.989 81.9588 116.755 82.6176 117.04C83.2765 117.326 84.0419 117.023 84.3273 116.364L84.3272 116.364C84.4829 116.01 84.6459 115.853 84.7828 115.76C84.9208 115.669 85.0554 115.636 85.189 115.635L85.3989 115.668L85.484 115.709C86.0334 116.171 86.8534 116.101 87.3157 115.551C87.7778 115.002 87.7072 114.182 87.1578 113.72C86.6012 113.26 85.9225 113.041 85.189 113.035Z"/><path id="Vector_7" d="M100.018 118.921C99.8957 119.046 99.8095 119.097 99.7587 119.12L99.6507 119.146C99.5963 119.147 99.4713 119.123 99.2939 119.019C99.0295 118.871 98.7023 118.561 98.4759 118.289C98.3612 118.154 98.2683 118.03 98.2074 117.944L98.1412 117.848L98.128 117.828L98.1267 117.826L98.1262 117.826C97.8399 117.373 97.3069 117.142 96.7806 117.244C96.2526 117.346 95.843 117.761 95.748 118.291C95.6945 118.613 95.5372 119.103 95.3541 119.382C95.2653 119.524 95.1782 119.608 95.1357 119.635L95.0654 119.66C95.0319 119.66 94.9398 119.653 94.7606 119.569C94.5833 119.486 94.3278 119.323 94.0138 119.045C93.4755 118.57 92.6539 118.622 92.1788 119.16C91.7037 119.698 91.755 120.52 92.2933 120.995L92.2933 120.995C92.7473 121.395 93.191 121.702 93.6492 121.92C94.1057 122.136 94.5855 122.26 95.0654 122.26C95.6478 122.264 96.2008 122.065 96.6128 121.775C96.9786 121.518 97.2447 121.214 97.4587 120.901C97.6232 121.03 97.796 121.156 97.9927 121.27C98.4399 121.528 98.9968 121.744 99.6507 121.746C100.039 121.747 100.451 121.663 100.834 121.487C101.219 121.313 101.571 121.054 101.883 120.733C102.383 120.218 102.371 119.395 101.857 118.895C101.342 118.394 100.519 118.406 100.018 118.921Z"/><path id="Vector_8" d="M110.314 113.073C109.89 112.802 109.258 112.489 108.428 112.484C107.755 112.477 106.991 112.733 106.359 113.263C105.804 113.72 105.725 114.539 106.181 115.093C106.637 115.648 107.457 115.727 108.011 115.271L108.011 115.271C108.244 115.089 108.33 115.092 108.428 115.084C108.543 115.079 108.737 115.147 108.903 115.257L109.095 115.402L109.136 115.44L109.139 115.442L109.141 115.44C109.63 115.954 110.442 115.984 110.964 115.5C111.491 115.011 111.522 114.189 111.034 113.663C110.983 113.61 110.741 113.351 110.314 113.073Z"/><path id="Vector_9" d="M109.018 45.9148C108.116 45.9148 107.204 46.0293 106.306 46.254C104.742 46.6439 103.475 47.3059 102.484 48.0823C101.595 48.7782 100.934 49.5565 100.438 50.3053C99.7689 49.1057 98.7157 47.7793 97.0764 46.657C95.6451 45.6827 93.801 45.1721 91.8711 45.167C89.7223 45.1672 87.4269 45.8269 85.6154 47.4386C83.7995 49.0463 82.5827 51.5946 82.5131 54.9794C82.5108 55.0728 82.5098 55.1666 82.5098 55.2592C82.5105 57.7595 83.3012 60.0912 84.445 62.2384C86.1659 65.4605 88.6902 68.3311 90.8757 70.9304C91.9688 72.2271 92.9778 73.453 93.758 74.5841C94.541 75.7134 95.082 76.7488 95.2961 77.6046C95.4733 78.3003 96.181 78.7207 96.8768 78.5436C97.5725 78.3665 97.9929 77.6587 97.8158 76.963L97.8157 76.9629C97.3541 75.1882 96.2695 73.5407 94.9679 71.8373C93.0082 69.2942 90.4961 66.636 88.5103 63.8392C87.5172 62.4436 86.6585 61.0198 86.0573 59.5868C85.4553 58.1521 85.1099 56.7167 85.1098 55.2592L85.1124 55.0429C85.1906 52.2131 86.1142 50.4899 87.3461 49.379C88.5825 48.2722 90.2424 47.7667 91.8711 47.767C93.3233 47.7618 94.7188 48.1851 95.6057 48.801C97.2486 49.9302 98.0822 51.2546 98.5306 52.3058C98.753 52.8301 98.874 53.2833 98.9378 53.5934C98.9697 53.7483 98.9874 53.8673 98.9967 53.9409L99.005 54.0162H99.0053C99.0443 54.6819 99.5789 55.209 100.245 55.2387C100.909 55.2683 101.485 54.7941 101.586 54.1383L101.588 54.1386C101.591 54.1021 101.79 52.9967 102.552 51.818C103.325 50.6356 104.584 49.3729 106.937 48.7764C107.635 48.6017 108.337 48.5148 109.018 48.5148C110.795 48.5166 112.408 49.0955 113.574 50.2147C114.735 51.3381 115.536 53.0297 115.544 55.5726C115.544 56.3387 115.468 57.1792 115.301 58.0958C114.963 59.9652 113.883 61.8105 112.37 63.5143C110.108 66.0712 106.918 68.2577 104.305 69.7689C102.998 70.5262 101.836 71.119 101.006 71.5201C100.59 71.7206 100.258 71.8733 100.031 71.975C99.9179 72.0257 99.8311 72.0637 99.7738 72.0886L99.6929 72.1234C99.031 72.4016 98.7199 73.1637 98.9981 73.8256C99.2763 74.4874 100.038 74.7986 100.7 74.5204C100.748 74.4988 104.503 72.9232 108.517 70.1935C110.525 68.8262 112.601 67.1709 114.315 65.2393C116.024 63.3087 117.393 61.0847 117.858 58.5635C118.051 57.5072 118.144 56.5105 118.144 55.5726C118.153 52.4701 117.097 49.9828 115.374 48.3386C113.655 46.6902 111.355 45.9129 109.018 45.9148Z"/><path id="Vector_10" d="M196.366 97.6173C194.365 75.7457 183.69 56.7999 167.186 43.3711C150.682 29.9368 128.363 21.9994 103.042 22C98.2187 22 93.2868 22.2876 88.2652 22.8804C59.5006 26.2747 38.9988 34.7708 25.4048 46.5598C11.8069 58.3428 5.21008 73.427 4.23914 89.626C4.07898 92.2678 4 94.834 4 97.3264C3.99908 112.363 6.8736 124.727 12.083 134.787C17.142 144.563 24.4174 152.122 33.2664 157.847C33.0453 159.009 32.717 161.202 32.7164 164.02C32.7169 167.555 33.2347 172.072 35.1693 176.715C37.1004 181.356 40.4686 186.112 46.0699 190.034C46.5489 190.37 47.1916 190.344 47.643 189.972C48.0943 189.6 48.2416 188.974 48.0034 188.44C46.1194 184.224 45.0137 179.603 45.018 175.783C45.0132 173.112 45.563 170.864 46.5911 169.401C47.1056 168.664 47.7262 168.107 48.5032 167.714C49.2808 167.323 50.2313 167.09 51.4275 167.089C52.5442 167.089 53.8708 167.297 55.4136 167.777C67.276 171.461 80.5796 173.361 94.2021 173.362C113.638 173.36 133.726 169.494 151.183 161.342C165.077 154.85 176.412 146.531 184.299 136.65C192.187 126.774 196.604 115.308 196.6 102.7C196.6 101.025 196.522 99.3302 196.366 97.6173ZM182.267 135.028C174.699 144.515 163.7 152.626 150.082 158.987C133.037 166.951 113.294 170.763 94.2021 170.762C80.8218 170.762 67.7627 168.891 56.1851 165.294C54.4451 164.754 52.8656 164.49 51.4275 164.489C49.8918 164.488 48.5127 164.796 47.3326 165.392C45.5549 166.284 44.2911 167.809 43.5221 169.614C42.7472 171.424 42.4196 173.527 42.418 175.783C42.4208 178.662 42.9672 181.804 43.923 184.921C40.8789 182.011 38.8765 178.844 37.5691 175.714C35.8018 171.478 35.3158 167.302 35.3164 164.02C35.3163 162.076 35.4863 160.448 35.6547 159.316C35.7389 158.749 35.8226 158.307 35.884 158.011C35.9148 157.863 35.9399 157.752 35.9568 157.68L35.9756 157.601L35.9798 157.584C36.1215 157.037 35.8919 156.459 35.4132 156.158C26.5524 150.584 19.3806 143.222 14.3918 133.592C9.40611 123.961 6.60094 112.037 6.60002 97.3264C6.60002 94.8888 6.67717 92.3751 6.8344 89.7833C7.79021 74.1795 14.043 59.8703 27.1084 48.5238C40.1777 37.1835 60.1529 28.8143 88.5699 25.4625C93.4921 24.8815 98.3221 24.6 103.042 24.6C127.821 24.6006 149.544 32.3628 165.544 45.3874C181.544 58.4175 191.833 76.6896 193.776 97.8545C193.926 99.4898 194 101.105 194 102.7C193.995 114.695 189.836 125.536 182.267 135.028Z"/><path id="Vector_11" d="M154.284 120.939C147.074 118.27 139.706 117.525 133.659 117.524C131.301 117.524 129.149 117.64 127.278 117.8C127.087 116.782 126.897 115.781 126.707 114.799C131.021 113.913 136.879 113.062 143.465 113.064C145.352 113.064 147.3 113.133 149.287 113.292C150.003 113.349 150.629 112.815 150.686 112.099C150.743 111.383 150.209 110.757 149.493 110.7C147.432 110.536 145.417 110.464 143.465 110.464C136.669 110.465 130.655 111.335 126.209 112.246C122.726 94.5526 119.763 83.3326 119.758 83.3114C119.642 82.8744 119.313 82.5323 118.881 82.4003C118.449 82.2679 117.985 82.3673 117.645 82.6649C116.953 83.2704 115.856 84.3075 114.571 85.5455C111.366 88.6354 107.053 92.9291 105.701 94.2779C103.798 94.0892 101.622 94.0133 99.3648 94.0128C93.2436 94.0135 86.6576 94.5292 84.5435 94.7091C82.766 92.4745 80.4261 90.035 78.4502 88.0743C76.3083 85.9505 74.6108 84.4083 74.6015 84.3998C74.2861 84.1131 73.8516 83.9996 73.4364 84.0951C73.0213 84.1903 72.6798 84.4818 72.521 84.8773C71.3233 87.8649 70.1604 92.2311 69.0249 97.5541C68.0913 101.94 67.1847 106.982 66.3276 112.366C61.8332 111.412 55.5881 110.466 48.4956 110.464C46.5439 110.464 44.528 110.536 42.4669 110.7C41.7511 110.757 41.2169 111.383 41.2739 112.099C41.3308 112.815 41.9574 113.349 42.6732 113.292C44.6607 113.133 46.608 113.064 48.4956 113.064C55.3841 113.063 61.4799 113.992 65.8418 114.921C65.8705 114.927 65.8949 114.933 65.9234 114.939C65.7764 115.9 65.6314 116.87 65.4879 117.848C63.4952 117.663 61.151 117.524 58.5578 117.524C52.5113 117.525 45.1432 118.27 37.933 120.939C37.2596 121.188 36.9159 121.936 37.1653 122.609C37.4147 123.283 38.1627 123.627 38.836 123.377C45.6484 120.852 52.7249 120.123 58.5578 120.124C61.0024 120.124 63.224 120.252 65.1186 120.425C64.9512 121.609 64.7867 122.799 64.625 123.999C63.9949 124.077 63.3411 124.162 62.665 124.26C56.9911 125.083 49.87 126.649 43.9712 129.768C43.3367 130.104 43.0948 130.891 43.4309 131.525C43.767 132.16 44.5539 132.402 45.1884 132.066C50.6338 129.175 57.5295 127.624 63.0365 126.834C63.4575 126.773 63.867 126.718 64.2706 126.665C62.9284 136.997 61.8206 147.679 61.1005 157.067C61.0457 157.783 61.5815 158.408 62.2974 158.463C63.0132 158.518 63.6381 157.982 63.6929 157.266C64.423 147.738 65.5579 136.842 66.9317 126.359C68.0645 126.245 69.0736 126.166 69.914 126.11C70.7714 126.054 71.4554 126.022 71.9227 126.005C72.1563 125.996 72.3357 125.991 72.4555 125.988C72.5754 125.985 72.6307 125.984 72.6309 125.984C73.3487 125.974 73.9229 125.385 73.9133 124.667C73.9038 123.949 73.314 123.375 72.5962 123.385C72.5692 123.385 70.4846 123.414 67.2905 123.712C67.4271 122.707 67.5628 121.703 67.7034 120.71C67.8004 120.722 67.9054 120.735 67.9993 120.747C69.1616 120.903 70.0825 121.058 70.7089 121.174C71.022 121.231 71.2616 121.279 71.4208 121.312L71.5987 121.35L71.6511 121.361C72.3511 121.52 73.0477 121.082 73.2068 120.382C73.3659 119.682 72.9274 118.985 72.2274 118.826C72.194 118.819 70.6506 118.471 68.0781 118.136C68.1719 117.498 68.2626 116.846 68.3579 116.215C68.3929 115.984 68.4287 115.757 68.4639 115.527C69.45 115.772 70.3016 116.002 70.9674 116.194C71.5659 116.368 72.0267 116.511 72.3353 116.61C72.4896 116.66 72.6059 116.699 72.6823 116.724L72.7667 116.753L72.7899 116.761C73.467 116.999 74.2092 116.644 74.4475 115.966C74.6858 115.289 74.3301 114.547 73.653 114.309C73.619 114.298 71.8646 113.682 68.8657 112.946C69.7257 107.528 70.6359 102.472 71.5679 98.0956C72.4626 93.8883 73.3835 90.3124 74.2783 87.6527C75.1086 88.4388 76.2264 89.5165 77.4251 90.7264C79.3385 92.6564 81.4625 94.9335 82.9237 96.8531C83.195 97.2091 83.6326 97.4007 84.0782 97.3595C84.0795 97.3595 84.574 97.3133 85.4406 97.2433C88.0385 97.0331 93.9392 96.6124 99.3649 96.6127C101.81 96.6122 104.16 96.6993 106.035 96.9208C106.432 96.9674 106.824 96.8312 107.107 96.5489C107.108 96.5472 107.711 95.9442 108.66 95.0004C110.084 93.5843 112.281 91.4066 114.364 89.3712C115.606 88.1573 116.809 86.994 117.779 86.0763C118.782 90.0924 121.082 99.659 123.669 112.807C120.321 113.603 118.343 114.297 118.307 114.309C117.63 114.547 117.274 115.289 117.512 115.966C117.751 116.644 118.493 117 119.17 116.761L119.193 116.753C119.417 116.675 121.224 116.064 124.167 115.362C124.338 116.249 124.51 117.151 124.682 118.067C121.782 118.421 120.026 118.818 119.99 118.826C119.29 118.985 118.851 119.682 119.01 120.382C119.169 121.082 119.866 121.52 120.566 121.361L120.619 121.35C120.928 121.282 122.591 120.937 125.16 120.63C125.349 121.658 125.539 122.704 125.729 123.765C122.228 123.417 119.907 123.385 119.878 123.384C119.16 123.375 118.571 123.949 118.561 124.667C118.551 125.385 119.126 125.975 119.844 125.984C119.844 125.984 119.899 125.985 120.019 125.988C120.658 126.004 122.996 126.084 126.202 126.428C127.766 135.362 129.319 145.31 130.656 155.885C130.746 156.597 131.397 157.101 132.109 157.011C132.821 156.921 133.326 156.271 133.236 155.558C131.931 145.244 130.423 135.526 128.899 126.759C129.416 126.83 129.944 126.906 130.486 126.991C135.801 127.822 142.181 129.356 147.286 132.066C147.92 132.401 148.707 132.16 149.043 131.525C149.379 130.891 149.137 130.104 148.503 129.768C142.604 126.649 135.483 125.083 129.809 124.26C129.336 124.192 128.878 124.131 128.426 124.073C128.202 122.815 127.979 121.582 127.755 120.368C129.501 120.225 131.492 120.124 133.659 120.124C139.492 120.123 146.569 120.852 153.381 123.377C154.054 123.626 154.802 123.283 155.052 122.609C155.301 121.936 154.957 121.188 154.284 120.939Z"/></g></g></svg>