<svg width="320" height="200" viewBox="0 0 320 200" xmlns="http://www.w3.org/2000/svg"><g id="type=nothing, mode=light"><g id="nothing"><path id="Vector" d="M240.792 98.586C233.762 96.5352 184.562 96.9747 177.241 97.7071C169.919 98.4395 164.647 100.05 160.694 108.983C160.694 108.983 156.886 109.275 156.886 109.422C151.468 107.957 147.222 111.325 143.854 123.625C140.486 135.926 142.097 160.087 147.662 169.02C147.662 169.02 176.948 169.605 186.465 174.291C195.984 178.977 196.715 181.466 196.423 186.444C196.423 186.444 228.491 186.444 235.374 186.444C242.256 186.444 247.234 182.783 250.895 175.169C254.556 167.555 258.216 154.962 257.339 139.294C256.46 123.625 252.998 102.146 240.792 98.586Z"/><path id="Vector_2" d="M184.947 137.955C184.883 137.796 184.822 137.655 184.714 137.48C184.657 137.391 184.592 137.291 184.451 137.155C184.379 137.087 184.285 137.008 184.137 136.93C183.991 136.853 183.778 136.776 183.512 136.776C183.281 136.772 183.012 136.847 182.813 136.973C182.629 137.087 182.509 137.222 182.425 137.34L182.422 137.338C182.416 137.347 182.415 137.352 182.409 137.36C182.406 137.365 182.4 137.371 182.396 137.376L182.399 137.377C182.301 137.525 182.254 137.63 182.212 137.725C182.14 137.904 182.095 138.059 182.051 138.218C181.926 138.683 181.842 139.159 181.838 139.178L181.824 139.283C181.741 140.147 181.701 140.979 181.701 141.724C181.702 142.527 181.744 143.218 181.847 143.8C181.904 144.095 181.964 144.359 182.11 144.667C182.188 144.822 182.286 144.998 182.492 145.192C182.686 145.383 183.063 145.593 183.486 145.588C183.795 145.589 184.079 145.482 184.269 145.361L184.284 145.351C184.605 145.146 184.854 144.875 185.035 144.596C185.308 144.173 185.448 143.733 185.536 143.296C185.623 142.858 185.653 142.416 185.654 141.974C185.652 140.932 185.482 139.886 185.28 139.047C185.177 138.627 185.069 138.265 184.947 137.955Z"/><path id="Vector_3" d="M209.363 137.269C209.284 137.098 209.21 136.947 209.095 136.775C209.033 136.687 208.967 136.592 208.83 136.465C208.76 136.401 208.671 136.327 208.528 136.251C208.387 136.178 208.178 136.097 207.899 136.096C207.652 136.092 207.361 136.179 207.154 136.323C206.957 136.457 206.837 136.612 206.758 136.743L206.755 136.741C206.751 136.749 206.75 136.753 206.746 136.76C206.743 136.764 206.739 136.769 206.737 136.772L206.739 136.773C206.649 136.931 206.61 137.04 206.575 137.14C206.516 137.322 206.482 137.48 206.449 137.641C206.357 138.113 206.307 138.593 206.304 138.612L206.298 138.688C206.279 139.077 206.27 139.458 206.27 139.826C206.271 140.961 206.353 141.964 206.506 142.759C206.587 143.161 206.674 143.504 206.832 143.852C206.915 144.027 207.011 144.21 207.207 144.42C207.306 144.523 207.436 144.635 207.619 144.731C207.799 144.826 208.04 144.898 208.292 144.896C208.647 144.899 208.968 144.756 209.165 144.608L209.174 144.601C209.693 144.214 209.974 143.682 210.126 143.191C210.279 142.692 210.324 142.196 210.326 141.7C210.322 140.569 210.076 139.415 209.801 138.479C209.662 138.011 209.516 137.606 209.363 137.269Z"/><path id="Vector_4" d="M200.727 149.616C200.111 149.269 199.316 148.64 198.713 148.111C198.409 147.846 198.149 147.604 197.966 147.431C197.875 147.345 197.803 147.275 197.755 147.228L197.701 147.175L197.685 147.16C197.369 146.843 196.917 146.713 196.48 146.811C196.045 146.909 195.694 147.219 195.543 147.639L195.541 147.643C195.519 147.724 194.538 150.24 192.147 151.956C191.566 152.377 191.435 153.19 191.857 153.771C192.278 154.353 193.09 154.483 193.672 154.062C195.262 152.909 196.326 151.544 197.002 150.464C197.058 150.374 197.108 150.288 197.159 150.202C197.813 150.763 198.61 151.4 199.442 151.876C200.066 152.231 200.859 152.013 201.214 151.389C201.569 150.765 201.351 149.971 200.727 149.616Z"/><path id="Vector_5" d="M229.68 154.598C229.268 152.793 228.841 151.006 228.404 149.243C229.22 149.21 230.065 149.19 230.936 149.19C235.978 149.184 241.761 149.841 246.226 152.022C246.871 152.335 247.649 152.066 247.963 151.421C248.277 150.775 248.008 149.997 247.363 149.684C242.298 147.23 236.195 146.596 230.936 146.59C229.832 146.59 228.77 146.621 227.757 146.67C227.294 144.852 226.828 143.062 226.367 141.306C232.116 139.572 237.113 139.168 240.47 139.168C241.892 139.168 243.019 139.239 243.783 139.309C244.165 139.344 244.457 139.379 244.649 139.404C244.745 139.417 244.817 139.427 244.862 139.434L244.911 139.442L244.92 139.443C245.627 139.562 246.298 139.085 246.418 138.378C246.537 137.67 246.06 136.999 245.353 136.88C245.293 136.869 243.487 136.568 240.47 136.568C236.929 136.568 231.709 136.991 225.707 138.79C224.555 134.401 223.479 130.246 222.647 126.412C224.151 119.778 225.403 115.054 226.28 111.995C226.725 110.442 227.073 109.316 227.309 108.581C227.427 108.214 227.517 107.945 227.577 107.769L227.643 107.575L227.663 107.518C227.827 107.062 227.721 106.547 227.39 106.192C227.059 105.837 226.552 105.696 226.085 105.829C221.397 107.161 216.35 109.705 212.106 112.297C209.986 113.594 208.07 114.903 206.508 116.089C204.943 117.28 203.745 118.32 202.989 119.193C202.921 119.271 202.889 119.364 202.843 119.452C201.517 119.406 200.147 119.381 198.745 119.381C191.486 119.381 183.677 119.911 180.435 120.157C180.707 117.278 181.037 113.895 181.315 111.068C181.48 109.394 181.626 107.916 181.731 106.857C181.836 105.798 181.9 105.159 181.9 105.158C181.95 104.658 181.707 104.174 181.278 103.915C180.848 103.656 180.307 103.668 179.889 103.945C179.866 103.96 176.8 105.992 172.855 109.147C168.908 112.306 164.084 116.575 160.521 121.139C160.079 121.705 160.18 122.522 160.747 122.964C161.313 123.405 162.13 123.304 162.571 122.738V122.738C165.915 118.446 170.622 114.26 174.479 111.177C176.253 109.758 177.83 108.585 179.033 107.717C178.687 111.21 178.096 117.221 177.702 121.455C177.666 121.839 177.802 122.218 178.074 122.491C178.346 122.765 178.724 122.903 179.108 122.87C179.11 122.87 179.748 122.815 180.861 122.732C184.201 122.481 191.775 121.98 198.745 121.981C202.018 121.98 205.162 122.092 207.632 122.384C208.345 122.468 208.991 121.958 209.076 121.245C209.16 120.532 208.65 119.886 207.937 119.802C207.401 119.739 206.827 119.689 206.247 119.642C206.762 119.193 207.377 118.691 208.08 118.16C211.992 115.183 218.493 111.245 224.424 109.098C223.551 111.964 222.006 117.444 220.047 126.121C220.005 126.306 220.004 126.495 220.044 126.68C220.91 130.704 222.035 135.04 223.229 139.592C221.604 140.167 219.933 140.846 218.233 141.646C217.583 141.952 217.304 142.726 217.61 143.376C217.916 144.025 218.691 144.304 219.34 143.999V143.998C220.888 143.27 222.408 142.651 223.891 142.12C224.298 143.673 224.704 145.247 225.112 146.843C221.444 147.154 218.971 147.64 218.936 147.646C218.231 147.785 217.772 148.469 217.911 149.173C218.05 149.878 218.733 150.336 219.438 150.198V150.197L219.489 150.188C219.867 150.115 222.321 149.669 225.764 149.398C226.143 150.92 226.516 152.459 226.877 154.01C223.891 153.482 221.646 153.41 220.68 153.408C220.351 153.408 220.167 153.416 220.147 153.417C219.43 153.451 218.876 154.061 218.911 154.778C218.945 155.495 219.554 156.049 220.271 156.014H220.287C220.332 156.012 220.466 156.008 220.68 156.008C221.635 156.006 224.15 156.087 227.491 156.772C228.046 159.287 228.575 161.823 229.025 164.384C229.63 167.825 229.964 170.721 229.963 173.054C229.965 174.977 229.735 176.51 229.299 177.65C228.858 178.794 228.258 179.546 227.39 180.105C226.785 180.49 226.606 181.294 226.991 181.9C227.376 182.506 228.18 182.685 228.786 182.299C230.154 181.436 231.142 180.137 231.73 178.573C232.323 177.006 232.562 175.176 232.563 173.054C232.562 170.478 232.204 167.459 231.585 163.934C231.202 161.757 230.77 159.598 230.312 157.459C234.156 158.535 238.666 160.394 243.049 163.626C243.627 164.052 244.441 163.928 244.867 163.35C245.292 162.772 245.168 161.958 244.59 161.532C239.374 157.699 234.033 155.67 229.68 154.598Z"/><path id="Vector_6" d="M169.391 142.101C167.758 139.647 165.709 138.305 163.97 137.618C162.227 136.926 160.794 136.858 160.257 136.857C160.13 136.857 160.05 136.862 160.023 136.863C159.306 136.911 158.764 137.53 158.812 138.247C158.859 138.959 159.472 139.498 160.184 139.457V139.458L160.257 139.457C160.562 139.456 161.676 139.502 163.009 140.034C164.345 140.57 165.901 141.561 167.228 143.543C167.626 144.14 168.433 144.302 169.03 143.904C169.628 143.505 169.789 142.698 169.391 142.101V142.101Z"/><path id="Vector_7" d="M168.601 147.69C168.528 147.671 166.399 146.937 163.936 146.93C162.572 146.935 161.059 147.15 159.741 148.025C159.145 148.426 158.987 149.234 159.387 149.83C159.788 150.426 160.595 150.584 161.191 150.184C161.845 149.734 162.861 149.525 163.936 149.53C164.899 149.529 165.881 149.685 166.606 149.845C166.969 149.925 167.268 150.005 167.472 150.063C167.575 150.093 167.653 150.116 167.704 150.133L167.759 150.15L167.769 150.154C168.45 150.383 169.187 150.018 169.417 149.338C169.646 148.657 169.281 147.92 168.601 147.69Z"/><path id="Vector_8" d="M167.398 153.503C167.31 153.539 165.829 154.113 164.211 155.501C162.6 156.879 160.829 159.143 160.43 162.421C160.342 163.133 160.849 163.782 161.562 163.869C162.274 163.957 162.923 163.45 163.01 162.738C163.165 161.488 163.567 160.46 164.091 159.592C164.875 158.293 165.952 157.359 166.837 156.761C167.279 156.461 167.67 156.246 167.942 156.11C168.078 156.042 168.185 155.993 168.253 155.963L168.326 155.932L168.339 155.927L168.338 155.926C169.005 155.666 169.337 154.916 169.079 154.248C168.821 153.578 168.068 153.244 167.398 153.503Z"/><path id="Vector_9" d="M235.162 115.528C235.852 115.726 236.572 115.328 236.77 114.638C237.975 110.422 239.639 107.152 241.434 105.348C241.938 104.836 241.932 104.013 241.421 103.509C240.91 103.005 240.087 103.011 239.583 103.522V103.522C237.303 105.848 235.563 109.453 234.272 113.919C234.073 114.609 234.472 115.329 235.162 115.528Z"/><path id="Vector_10" d="M153.101 114.146C152.434 113.88 151.678 114.204 151.411 114.871C150.149 118.03 149.137 122.077 148.429 126.743C147.723 131.409 147.326 136.691 147.326 142.289C147.327 149.356 147.959 155.916 149.048 161.373C149.188 162.076 149.873 162.533 150.577 162.393C151.281 162.252 151.738 161.568 151.597 160.864C150.548 155.609 149.926 149.199 149.926 142.289C149.926 136.814 150.315 131.654 151 127.133C151.683 122.613 152.667 118.729 153.825 115.836C154.092 115.169 153.768 114.413 153.101 114.146Z"/><path id="Vector_11" d="M257.446 169.004C256.737 168.891 256.07 169.374 255.957 170.083C255.844 170.792 256.327 171.458 257.036 171.572C258.972 171.881 260.657 172.805 261.845 174.084C263.033 175.367 263.725 176.982 263.726 178.744C263.726 179.098 263.698 179.458 263.64 179.825C263.565 180.289 263.448 180.601 263.299 180.828C263.185 181 263.051 181.14 262.834 181.285C262.606 181.438 262.264 181.59 261.792 181.719C261.809 181.434 261.823 181.101 261.823 180.726C261.82 179.565 261.708 178.044 261.156 176.565C260.903 175.893 260.153 175.554 259.481 175.807C258.809 176.06 258.469 176.809 258.722 177.481C259.108 178.493 259.226 179.753 259.223 180.726C259.223 181.198 259.198 181.603 259.174 181.884C259.167 181.963 259.161 182.006 259.155 182.064C258.721 182.085 258.262 182.099 257.749 182.098C257.478 182.098 257.035 182.098 256.493 182.098C256.523 181.756 256.551 181.283 256.551 180.726C256.548 179.565 256.436 178.044 255.884 176.565C255.631 175.893 254.882 175.554 254.21 175.807C253.538 176.06 253.198 176.809 253.451 177.481C253.836 178.493 253.955 179.753 253.951 180.726C253.951 181.198 253.927 181.603 253.902 181.884C253.894 181.978 253.887 182.034 253.88 182.098C251.916 182.098 249.632 182.098 247.826 182.098C250.927 178.616 253.503 173.415 255.364 166.863C257.301 160.022 258.443 151.723 258.443 142.446C258.442 133.352 257.428 124.844 255.603 117.753C253.767 110.663 251.162 104.982 247.755 101.506C245.441 99.1548 242.912 97.7827 240.356 97.0374C237.799 96.2888 235.229 96.1443 232.738 96.1433H179.125C176.634 96.1443 174.064 96.2888 171.506 97.0374C168.95 97.7827 166.421 99.1548 164.108 101.506C162.499 103.146 161.074 105.285 159.821 107.824C159.787 107.828 159.755 107.817 159.721 107.824C159.208 107.93 158.468 108.106 157.704 108.366C157.622 108.394 157.541 108.426 157.459 108.456C157.358 108.366 157.252 108.279 157.121 108.223C156.336 107.884 155.499 107.7 154.647 107.701C153.555 107.699 152.493 108.004 151.527 108.538C150.736 108.977 150.003 109.563 149.315 110.268C143.84 106.375 136.707 102.374 128.655 99.3064C120.399 96.1631 111.19 94.0012 101.862 94C89.8566 93.991 77.6198 97.6221 67.2501 107.348C67.25 107.348 67.2499 107.348 67.2498 107.348V107.348C67.2457 107.352 67.2419 107.356 67.2379 107.359C67.2282 107.368 67.2181 107.376 67.2084 107.385C67.2076 107.386 67.2074 107.387 67.2065 107.388C62.7559 111.238 59.2141 116.505 56.7778 122.657C54.334 128.83 53.0005 135.898 53 143.355C53.0001 151.245 54.4947 159.573 57.7668 167.727C61.3273 176.615 67.1572 182.633 73.787 186.368C80.4184 190.109 87.8248 191.599 94.6545 191.6C96.5017 191.6 98.3075 191.49 100.047 191.286C105.197 190.681 109.454 189.28 112.944 187.409C113.098 187.473 113.267 187.51 113.445 187.51H133.985C134.071 187.51 134.147 187.477 134.229 187.46C134.518 187.656 134.817 187.843 135.138 188.011C136.693 188.823 138.607 189.327 141.078 189.645C143.551 189.96 146.595 190.086 150.444 190.087C164.794 190.087 173.873 190.087 189.101 190.087C191.82 190.077 193.685 189.852 195.13 189.142C195.847 188.786 196.449 188.271 196.854 187.639C196.908 187.556 196.949 187.469 196.996 187.383H236.253C236.368 187.383 236.508 187.384 236.668 187.384C237.623 187.384 239.246 187.34 241.154 186.704C242.353 186.307 243.665 185.675 245.008 184.698C246.75 184.698 255.916 184.698 257.749 184.698C260.468 184.689 262.321 184.461 263.76 183.749C264.473 183.392 265.07 182.876 265.474 182.252C265.882 181.629 266.095 180.938 266.207 180.236C266.287 179.733 266.326 179.235 266.326 178.744C266.328 176.285 265.344 174.027 263.749 172.314C262.154 170.598 259.946 169.405 257.446 169.004ZM240.334 184.237C238.799 184.745 237.53 184.783 236.667 184.784C236.519 184.784 236.381 184.783 236.253 184.783H197.62C197.628 184.617 197.654 184.448 197.654 184.284C197.658 182.49 197.119 180.826 196.17 179.392C194.502 176.876 191.694 175.025 188.226 173.554C183.015 171.359 176.219 170.026 169.063 169.214C165.867 168.853 162.605 168.604 159.386 168.433C159.397 168.282 159.392 168.128 159.347 167.975C157.279 160.89 156.018 152.053 156.019 142.446C156.019 137.463 156.332 132.664 156.917 128.204C157.01 127.492 156.508 126.839 155.797 126.746C155.085 126.653 154.432 127.154 154.339 127.866V127.866C153.738 132.446 153.419 137.355 153.419 142.446C153.42 152.111 154.664 161.014 156.746 168.311C155.599 168.265 154.461 168.227 153.34 168.2C153.331 168.169 153.336 168.137 153.324 168.105C153.14 167.627 152.979 167.146 152.876 166.731C152.702 166.035 151.996 165.611 151.299 165.786C150.603 165.96 150.179 166.666 150.354 167.362C150.419 167.625 150.498 167.888 150.583 168.15C149.66 168.14 148.748 168.133 147.856 168.133C146.695 168.133 145.564 168.142 144.47 168.158C143.752 168.168 143.178 168.759 143.189 169.477C143.199 170.195 143.79 170.768 144.508 170.758C145.59 170.742 146.708 170.733 147.856 170.733C157.725 170.731 169.792 171.368 179.265 173.505C183.998 174.567 188.077 176.018 190.854 177.85C192.244 178.764 193.302 179.763 193.999 180.822C194.694 181.885 195.05 182.997 195.054 184.284C195.054 184.593 195.032 184.912 194.988 185.245C194.925 185.702 194.815 186.005 194.672 186.225C194.562 186.392 194.431 186.53 194.213 186.675C194.046 186.787 193.817 186.898 193.522 187.001C193.499 186.592 193.456 186.077 193.366 185.484C193.2 184.408 192.896 183.112 192.26 181.889C191.927 181.252 191.142 181.006 190.505 181.339C189.869 181.672 189.623 182.458 189.956 183.094C190.396 183.93 190.661 184.979 190.795 185.875C190.894 186.521 190.928 187.078 190.939 187.432C190.393 187.468 189.785 187.487 189.101 187.487C188.742 187.487 188.402 187.487 188.049 187.487C188.04 187.066 188.006 186.354 187.874 185.484C187.708 184.408 187.404 183.112 186.768 181.889C186.435 181.252 185.649 181.006 185.013 181.339C184.377 181.672 184.131 182.458 184.464 183.094C184.904 183.93 185.169 184.979 185.303 185.875C185.406 186.551 185.439 187.137 185.449 187.487C172.345 187.487 163.605 187.487 150.444 187.487C143.706 187.496 139.609 187.061 137.184 186.09C135.967 185.606 135.165 185.027 134.511 184.275C133.86 183.521 133.35 182.552 132.883 181.27C132.637 180.595 131.891 180.248 131.216 180.493C130.542 180.739 130.194 181.486 130.44 182.16C130.806 183.162 131.232 184.078 131.765 184.91H116.812C120.992 181.735 123.692 177.889 125.371 174.412C126.367 172.354 127.016 170.424 127.428 168.822C127.84 167.215 128.016 165.955 128.059 165.16C128.065 165.034 128.068 164.909 128.068 164.785C128.067 162.648 127.12 160.751 125.773 159.325C124.42 157.896 122.656 156.89 120.802 156.5C120.245 156.383 119.678 156.324 119.111 156.324C117.23 156.321 115.352 156.982 113.67 158.248C111.984 159.515 110.476 161.372 109.206 163.813C107.84 166.441 106.155 168.65 103.833 170.215C101.508 171.776 98.5046 172.746 94.3112 172.751C92.2905 172.75 90.6268 172.365 89.2318 171.741C87.1437 170.805 85.6312 169.315 84.5399 167.632C83.4514 165.953 82.8068 164.084 82.5066 162.519C82.3707 161.813 81.689 161.352 80.984 161.488C80.279 161.624 79.8177 162.306 79.9536 163.011C80.4324 165.477 81.583 168.505 83.862 170.995C85.0009 172.237 86.4278 173.335 88.1692 174.115C89.9097 174.895 91.9582 175.352 94.3112 175.351C98.9037 175.355 102.497 174.255 105.285 172.371C108.077 170.491 110.024 167.881 111.514 165.011C112.642 162.839 113.93 161.302 115.231 160.328C116.535 159.353 117.834 158.927 119.111 158.924C119.497 158.924 119.884 158.964 120.271 159.045C121.551 159.307 122.903 160.065 123.882 161.109C124.868 162.157 125.47 163.439 125.468 164.785L125.462 165.025C125.426 165.772 125.169 167.542 124.459 169.725C123.395 173.012 121.32 177.279 117.486 180.945C113.647 184.61 108.056 187.72 99.7433 188.704C98.1043 188.896 96.3988 189 94.6545 189C88.199 189.001 81.2235 187.582 75.0649 184.104C68.9047 180.621 63.5366 175.111 60.1797 166.759C57.0335 158.919 55.5998 150.917 55.6 143.355C55.5995 136.209 56.8815 129.456 59.1951 123.614C61.5081 117.771 64.851 112.845 68.9467 109.318C68.954 109.312 68.9566 109.302 68.9638 109.296C68.9712 109.289 68.9809 109.288 68.9882 109.281C78.857 100.024 90.3459 96.6089 101.862 96.5999C110.786 96.5987 119.704 98.6787 127.729 101.736C135.492 104.691 142.401 108.56 147.674 112.294C147.487 112.567 147.302 112.848 147.122 113.142C146.169 114.703 145.312 116.546 144.56 118.625C144.147 118.079 143.625 117.531 142.951 117.062C142.114 116.479 141.048 116.033 139.782 115.888C139.069 115.805 138.424 116.317 138.341 117.03C138.258 117.743 138.769 118.388 139.483 118.471V118.471C140.327 118.571 140.953 118.843 141.468 119.198C142.235 119.728 142.75 120.487 143.062 121.132C143.218 121.452 143.322 121.739 143.384 121.936C143.415 122.034 143.436 122.109 143.448 122.156C143.176 123.145 142.923 124.17 142.691 125.233C141.895 124.676 140.765 124.131 139.232 123.911C138.521 123.809 137.862 124.302 137.76 125.012C137.657 125.723 138.15 126.382 138.861 126.485V126.485C140.134 126.671 140.92 127.121 141.404 127.498C141.644 127.687 141.806 127.859 141.9 127.973L141.992 128.092L142.003 128.107L142.006 128.104C142.036 128.153 142.082 128.184 142.117 128.228C141.385 132.524 140.974 137.276 140.974 142.289C140.976 151.042 142.206 159.019 144.264 165.111C144.494 165.791 145.232 166.156 145.912 165.926C146.592 165.696 146.957 164.958 146.727 164.278C144.784 158.54 143.572 150.794 143.574 142.289C143.571 133.229 144.948 125.028 147.117 119.204C148.196 116.292 149.479 113.982 150.808 112.475C151.47 111.72 152.139 111.168 152.781 110.816C153.425 110.463 154.031 110.302 154.647 110.301C154.776 110.301 154.905 110.327 155.033 110.342C154.992 110.686 155.08 111.044 155.32 111.331C155.78 111.882 156.6 111.955 157.151 111.494V111.494C157.342 111.322 157.897 111.046 158.49 110.846C157.86 112.434 157.277 114.125 156.754 115.934C156.555 116.624 156.954 117.344 157.644 117.543C158.334 117.742 159.054 117.344 159.253 116.654C160.97 110.66 163.331 105.983 165.959 103.332C167.975 101.293 170.05 100.178 172.238 99.5325C174.423 98.8906 176.735 98.7422 179.125 98.7432H232.738C235.128 98.7422 237.439 98.8906 239.624 99.5325C241.811 100.178 243.887 101.293 245.903 103.332C248.784 106.235 251.336 111.571 253.085 118.401C254.845 125.231 255.844 133.547 255.843 142.446C255.844 151.509 254.723 159.586 252.862 166.154C251.007 172.723 248.389 177.777 245.534 180.778C243.659 182.751 241.866 183.725 240.334 184.237Z"/></g></g></svg>