<svg width="200" height="200" viewBox="0 0 200 200" xmlns="http://www.w3.org/2000/svg"><g id="type=interested, mode=dark"><g id="Group 432527110"><path id="Vector" d="M58.9368 12L58.8381 12.0037L31.8401 14.0544V14.0559C28.0535 14.1096 25.0007 17.1899 25 20.9895V77.8909C25.0022 80.9934 27.0337 83.6194 29.844 84.5081C30.5283 84.7249 31.2588 84.3457 31.4758 83.6614C31.6926 82.9768 31.3135 82.2463 30.6292 82.0295L30.6289 82.0293C28.8748 81.4727 27.5977 79.8311 27.5999 77.8909V20.9895C27.6006 19.7871 28.0835 18.7107 28.8706 17.9214C29.6599 17.1343 30.7363 16.6514 31.9387 16.6506L32.0371 16.647L58.9583 14.6021C60.1516 14.6086 61.2207 15.0884 62.0051 15.8708C62.7925 16.6602 63.2756 17.7366 63.2764 18.9387V77.8909C63.2756 79.0928 62.7925 80.1692 62.0051 80.9585C61.3225 81.6394 60.4182 82.071 59.4104 82.1819C60.3425 81.0007 60.9031 79.5127 60.9036 77.8909V18.9387C60.9036 18.2207 60.3215 17.6389 59.6038 17.6389C58.8857 17.6389 58.304 18.2207 58.304 18.9387H58.3037V77.8909C58.303 79.0928 57.8199 80.1692 57.0325 80.9585C56.2432 81.7458 55.1663 82.2288 53.9641 82.2295H50.8001C50.0821 82.2295 49.5 82.8115 49.5 83.5295C49.5 84.2473 50.0821 84.8296 50.8001 84.8296L53.9637 84.8293C53.9639 84.8293 53.9639 84.8296 53.9641 84.8296C53.9646 84.8296 53.9654 84.8293 53.9661 84.8293H58.9368C62.7693 84.8286 65.8753 81.7239 65.8762 77.8909V18.9387C65.8752 15.1055 62.7693 12.0007 58.9368 12Z"/><path id="Vector_2" d="M36.2522 21.1172C35.8157 20.866 35.2981 20.7127 34.7581 20.7139C34.2178 20.7127 33.7002 20.8662 33.2642 21.1174C32.6062 21.4963 32.1194 22.0725 31.7883 22.7332C31.458 23.3963 31.2798 24.1565 31.2793 24.9622C31.2817 26.0357 31.5928 27.0303 32.1719 27.8193C32.4626 28.2124 32.8257 28.5554 33.2642 28.8066C33.7002 29.0579 34.2178 29.2114 34.7581 29.2102C35.2981 29.2114 35.8157 29.0581 36.2522 28.8069C36.9102 28.4277 37.397 27.8513 37.728 27.1907C38.0581 26.5276 38.2361 25.7673 38.2366 24.9622C38.2341 23.8887 37.9236 22.894 37.3445 22.105C37.0537 21.7117 36.6904 21.3687 36.2522 21.1172ZM35.2532 26.2742C35.1499 26.4146 35.0434 26.5032 34.9604 26.5503L34.7581 26.6104L34.5559 26.5503C34.4316 26.4817 34.2532 26.3101 34.1145 26.0295C33.9749 25.7517 33.8787 25.3774 33.8792 24.9622C33.8767 24.4077 34.0535 23.9282 34.2629 23.6502C34.3665 23.5098 34.4729 23.4209 34.5559 23.3738L34.7581 23.3137L34.9604 23.3738C35.0847 23.4424 35.2629 23.6138 35.4016 23.8943C35.541 24.1721 35.6372 24.5464 35.6367 24.9622C35.6392 25.5166 35.4624 25.9961 35.2532 26.2742Z"/><path id="Vector_3" d="M34.9492 33.8684L35.22 33.3958L34.9492 33.8684Z"/><path id="Vector_4" d="M35.5881 32.2144C35.356 32.0798 35.0625 31.991 34.7581 31.9922C34.4534 31.991 34.1599 32.0798 33.9277 32.2144C33.5759 32.4182 33.3494 32.7017 33.2021 32.9939C33.0557 33.2888 32.9849 33.6052 32.9844 33.9329C32.9868 34.3689 33.1064 34.7869 33.377 35.1585C33.5137 35.343 33.6931 35.5174 33.9275 35.6521C34.1599 35.7866 34.4534 35.8755 34.7581 35.8743C35.0625 35.8755 35.356 35.7866 35.5884 35.6521C35.9404 35.448 36.167 35.1641 36.3142 34.8716C36.4604 34.5767 36.531 34.2603 36.5315 33.9329C36.5291 33.4964 36.4089 33.0786 36.1384 32.7073C36.0019 32.523 35.8225 32.3489 35.5881 32.2144ZM34.604 33.9331H34.6042L34.604 33.9334V33.9331ZM34.7581 33.6641V33.6643V33.2744V33.6641ZM34.5659 33.8665H34.5657L34.2964 33.3958L34.5659 33.8665ZM34.46 33.9194H34.4597L34.0469 33.6145L34.46 33.9194ZM34.4326 33.9329H34.4329L33.9875 34.1553L34.4326 33.9329ZM34.5669 33.9983L34.2966 34.4707L34.5669 33.9983ZM34.95 34.0003L35.2192 34.4707L34.95 34.0003Z"/><path id="Vector_5" d="M150.479 75.5244L150.48 75.5256L150.482 75.5261L150.479 75.5244Z"/><path id="Vector_6" d="M112.083 55.7792C112.081 54.8036 111.926 53.8436 111.506 52.9713C111.094 52.1031 110.363 51.3277 109.376 50.9252L109.376 50.9249C109.376 50.9247 109.375 50.9247 109.375 50.9244C109.375 50.9244 109.375 50.9244 109.375 50.9244C108.814 50.6905 108.243 50.5643 107.683 50.5646C106.69 50.5567 105.783 50.9855 105.141 51.5956C104.168 52.517 103.625 53.7633 103.257 55.0934C102.896 56.4278 102.737 57.8683 102.736 59.2162C102.738 60.3949 102.855 61.4925 103.115 62.4232C103.249 62.8902 103.413 63.319 103.674 63.7211C103.805 63.9215 103.964 64.1173 104.173 64.2953C104.381 64.4718 104.649 64.6302 104.963 64.713L104.966 64.7137C105.271 64.7938 105.582 64.8336 105.889 64.8334C106.912 64.8321 107.82 64.4037 108.556 63.8153C109.666 62.9222 110.502 61.6444 111.112 60.2337C111.715 58.8202 112.08 57.2696 112.083 55.7792Z"/><path id="Vector_7" d="M113.346 63.6872C113.117 63.5903 112.851 63.5268 112.578 63.5275C112.086 63.5197 111.607 63.7521 111.325 64.0273C110.893 64.446 110.738 64.8781 110.621 65.2775C110.513 65.6813 110.472 66.0749 110.471 66.4553C110.473 66.7895 110.5 67.1032 110.593 67.4404C110.643 67.6105 110.705 67.7902 110.844 68.0073C110.915 68.1152 111.009 68.2343 111.149 68.3535C111.288 68.4714 111.482 68.5888 111.719 68.6508L111.725 68.6523C111.878 68.6918 112.031 68.7102 112.181 68.7102C112.699 68.7089 113.117 68.4934 113.402 68.2651C113.834 67.9123 114.079 67.5063 114.268 67.0798C114.449 66.6501 114.562 66.196 114.565 65.695C114.563 65.3679 114.516 65.0102 114.336 64.6325C114.164 64.2595 113.805 63.8725 113.346 63.6872Z"/><path id="Vector_8" d="M113.342 63.6853L113.346 63.6873L113.348 63.6882L113.342 63.6853Z"/><path id="Vector_9" d="M144.488 81.7568C144.494 82.5081 144.569 83.2178 144.91 83.9075C145.116 84.3086 145.383 84.6291 145.676 84.9214C146.559 85.7815 147.719 86.4307 148.772 86.8318L148.774 86.8325C149.358 87.0483 149.906 87.1643 150.438 87.1648C151.215 87.1753 151.93 86.8748 152.403 86.4941C152.884 86.1157 153.18 85.7097 153.425 85.405L153.427 85.4028C153.654 85.1104 153.858 84.762 154.095 84.2913C154.787 82.896 155.64 80.5051 155.834 77.5413C155.844 77.3865 155.848 77.2344 155.848 77.0825C155.848 75.772 155.49 74.5071 154.825 73.4334C154.161 72.3608 153.177 71.4753 151.946 70.9807C151.368 70.748 150.713 70.5918 150.006 70.592C149.491 70.5916 148.951 70.6751 148.413 70.8604V70.8606C147.421 71.2078 146.749 72.0083 146.456 72.9189C146.001 74.3442 145.517 75.9292 145.141 77.4609C144.766 78.9976 144.492 80.4651 144.488 81.7568ZM147.666 78.0808C148.017 76.6475 148.486 75.1106 148.933 73.71C149.004 73.4841 149.163 73.3452 149.258 73.3193V73.3196C149.524 73.2285 149.767 73.1924 150.006 73.1919C150.33 73.1921 150.651 73.2625 150.975 73.3926C151.654 73.6663 152.213 74.1563 152.616 74.8037C153.017 75.4495 153.249 76.2481 153.248 77.0825C153.248 77.1799 153.245 77.2783 153.239 77.3774C153.131 79.0708 152.76 80.575 152.357 81.7175C152.157 82.2886 151.948 82.7693 151.768 83.1318C151.592 83.4897 151.426 83.7454 151.383 83.7959C151.134 84.1167 150.94 84.343 150.809 84.4404C150.669 84.5356 150.647 84.5544 150.438 84.5649C150.293 84.5654 150.047 84.5315 149.678 84.3948C149.205 84.2205 148.604 83.9114 148.119 83.5735C147.877 83.4055 147.662 83.2299 147.505 83.0742C147.348 82.9201 147.253 82.7824 147.229 82.7321C147.176 82.6432 147.083 82.2822 147.088 81.7568C147.085 80.8499 147.312 79.5093 147.666 78.0808Z"/><path id="Vector_10" d="M147.597 66.8317C148.316 67.3607 149.163 67.5597 149.943 67.5563C150.857 67.5533 151.72 67.3153 152.528 66.9989C153.737 66.5201 154.83 65.8443 155.644 65.2855C156.456 64.7264 156.982 64.2821 157.006 64.2623C157.554 63.7987 157.622 62.9786 157.159 62.4305C156.695 61.8822 155.875 61.8138 155.327 62.2775L155.323 62.2809C155.251 62.3417 154.39 63.0516 153.279 63.7191C152.725 64.0528 152.108 64.3751 151.517 64.6026C150.926 64.8329 150.362 64.9591 149.943 64.9564C149.564 64.953 149.331 64.8758 149.134 64.734C148.939 64.5885 148.713 64.3292 148.52 63.7313C148.302 63.047 147.572 62.6681 146.888 62.8854C146.203 63.1024 145.824 63.8331 146.042 64.5174L146.042 64.5172C146.349 65.4991 146.876 66.3058 147.597 66.8317Z"/><path id="Vector_11" d="M169.321 96.3013C166.497 92.7019 163.32 90.9432 162.421 90.4888C162.528 89.5928 162.741 88.4148 163.149 86.7234C164.724 80.2081 165.42 74.2835 165.42 68.9144C165.422 58.8975 162.992 50.8135 159.382 44.483C156.026 38.5928 151.663 34.2408 147.32 31.1795C147.593 30.6849 147.877 30.18 148.186 29.66C150.034 26.532 152.559 23.1109 155.179 21.3458C155.653 21.0235 155.86 20.4283 155.689 19.8814C155.517 19.3343 155.007 18.9642 154.433 18.9708C154.398 18.9717 151.669 19.0025 148.291 19.4747C146.6 19.7115 144.748 20.0579 142.974 20.5777C141.575 20.99 140.23 21.5108 139.038 22.1934L135.921 19.1797C135.654 18.9214 135.286 18.7894 134.916 18.8184C134.545 18.8475 134.203 19.0352 133.979 19.3321L131.092 23.1634C125.937 21.5237 120.827 20.7134 115.922 20.7134C105.442 20.71 95.8767 24.3755 88.8752 31.2554C81.9592 38.0428 77.5933 47.9378 77.1875 60.2969C75.8296 60.3279 74.4175 60.4759 73.0511 60.8563C71.5132 61.2854 70.0208 62.0108 68.8254 63.2051C68.3567 63.6741 68.3162 64.4209 68.7312 64.938L75.1987 72.9961C73.8948 73.4566 72.7869 74.0857 71.8757 74.8094C69.9861 76.3086 68.9168 78.1548 68.3152 79.6124C67.7136 81.0738 67.5701 82.1631 67.5591 82.2435C67.5129 82.6023 67.6174 82.9612 67.8489 83.2395C68.0803 83.5179 68.4141 83.6858 68.7756 83.7063L74.3618 84.0206C74.76 85.5777 75.9521 89.0643 79.271 93.2234C83.5962 98.6495 91.5381 105.179 105.865 110.105L105.28 111.447C98.9292 109.887 91.6814 108.727 90.9097 108.604C90.8137 108.578 90.6089 108.522 90.3013 108.437C88.7896 108.021 84.9548 106.953 81.1482 105.782C79.2454 105.197 77.3489 104.587 75.7629 104.024C74.9705 103.742 74.2554 103.473 73.6621 103.228C73.0706 102.985 72.5952 102.76 72.3174 102.599C71.988 102.41 71.4795 102.057 70.8816 101.597C68.7717 99.9803 65.5122 97.0528 62.5747 94.3138C59.7944 91.7227 57.2974 89.3008 56.2412 88.252C56.5132 87.7725 56.7603 87.3033 56.9678 86.8665C57.6995 85.3167 58.0378 84.1358 58.0518 84.0887C58.1626 83.7002 58.0874 83.2845 57.8477 82.9598C57.6079 82.6348 57.2327 82.4402 56.8291 82.4319L50.856 82.3055C51.2148 82.0147 51.5564 81.7151 51.8665 81.4039C53.9146 79.3497 54.9185 76.9629 55.4187 75.1063C55.9185 73.2452 55.9221 71.8936 55.9229 71.8138C55.9229 71.4375 55.7612 71.0816 55.4778 70.8343C55.1943 70.587 54.8198 70.4747 54.4473 70.5257C50.0005 71.1334 46.5439 72.4207 44.1963 73.555L48.8948 62.7186C49.0828 62.2847 49.0188 61.7779 48.729 61.4043C48.4392 61.0308 47.9639 60.8428 47.4971 60.9175C44.438 61.4068 42.0388 61.962 40.0698 62.7159C38.595 63.2811 37.3589 63.9654 36.3164 64.8165C34.7471 66.0938 33.665 67.7215 32.7866 69.6795C31.9043 71.6431 31.1907 73.9605 30.313 76.8138C29.6477 78.9805 29.3621 81.3965 29.3613 83.9283C29.3633 88.5398 30.312 93.5438 31.8247 98.0989C33.3437 102.655 35.4099 106.751 37.782 109.563C40.7605 113.075 44.9971 116.112 48.9722 118.527C52.9463 120.938 56.6616 122.708 58.5703 123.576C59.1726 123.847 59.9485 124.088 60.9319 124.353C64.3467 125.265 70.1765 126.346 75.6643 127.287C80.583 128.13 85.2012 128.852 87.4434 129.207L89.5212 133.64C89.4424 133.662 89.3616 133.666 89.2856 133.704C87.8931 134.401 86.2651 134.664 84.6724 134.662C82.9751 134.663 81.334 134.367 80.1323 134.067C79.5315 133.918 79.0398 133.768 78.7036 133.658C78.5354 133.603 78.406 133.558 78.3213 133.527L78.228 133.493L78.2078 133.485L78.2056 133.484C77.7649 133.313 77.2617 133.395 76.8992 133.698C76.7068 133.853 67.1455 141.969 60.4202 165.956C60.2429 166.586 60.5662 167.254 61.1707 167.506C61.7751 167.759 62.4771 167.519 62.8013 166.95L62.8115 166.933C62.9402 166.708 64.2913 164.43 66.3176 162.274C67.3284 161.196 68.5066 160.152 69.748 159.403C70.9927 158.65 72.2776 158.201 73.5474 158.202C74.8589 158.21 76.2163 158.646 77.74 159.946C78.0627 160.223 78.5022 160.325 78.9146 160.218C79.3269 160.111 79.6609 159.808 79.8079 159.408L79.8118 159.398C79.8699 159.238 80.5725 157.442 81.7661 155.777C82.3599 154.944 83.0745 154.151 83.8423 153.6C84.616 153.046 85.4043 152.736 86.2639 152.734C87.0677 152.737 88.0135 153.009 89.17 153.833C89.0249 155.891 88.8423 158.032 88.6114 160.225C87.7246 168.662 86.1282 177.84 83.3438 185.695C83.1038 186.372 83.458 187.115 84.135 187.355C84.8118 187.595 85.555 187.24 85.795 186.564C88.6824 178.407 90.294 169.062 91.1971 160.497C92.0987 151.934 92.2852 144.153 92.2852 139.155C92.2852 135.603 92.1909 133.459 92.1902 133.443C92.1824 133.27 92.1419 133.105 92.0686 132.948L89.5052 127.48C89.3223 127.09 88.9583 126.816 88.5335 126.748C86.3907 126.405 80.0369 125.424 73.752 124.316C70.6111 123.762 67.4881 123.177 64.9326 122.627C63.6555 122.353 62.5201 122.087 61.6043 121.842C60.6927 121.599 59.9839 121.365 59.646 121.209C57.7962 120.369 54.1638 118.636 50.3203 116.305C46.4778 113.978 42.4268 111.035 39.7666 107.883C37.7131 105.465 35.7227 101.597 34.2918 97.2789C32.8543 92.9603 31.9592 88.1817 31.9612 83.9283C31.9605 81.5941 32.2305 79.4213 32.7981 77.5775C33.5759 75.0443 34.2158 72.9881 34.8994 71.3443C35.4116 70.1102 35.9446 69.1129 36.5647 68.2892C37.4983 67.058 38.617 66.1688 40.3872 65.3939C41.7066 64.8197 43.3902 64.3348 45.5464 63.9049L40.23 76.1666C39.9924 76.714 40.156 77.348 40.6282 77.7128C41.0996 78.077 41.7525 78.0743 42.2219 77.7084L42.2224 77.7089C42.2466 77.6883 46.1612 74.6759 53.1426 73.3722C53.0005 74.1551 52.75 75.15 52.2898 76.2018C51.7898 77.3495 51.0557 78.5509 49.9751 79.6183C48.8924 80.6854 47.4651 81.6295 45.5081 82.2643C44.9031 82.4598 44.5296 83.0611 44.6218 83.69C44.7144 84.319 45.2451 84.7872 45.8806 84.8009L54.9571 84.993C54.8404 85.2699 54.7078 85.5692 54.5557 85.8846C53.9126 87.2267 52.9366 88.8216 51.6958 89.9481C50.2898 91.2435 49.1428 92.9671 47.8511 94.6197C46.5674 96.2755 45.1702 97.8407 43.4744 98.8529C42.8584 99.2218 42.6582 100.02 43.0274 100.636C43.3963 101.252 44.1948 101.452 44.8108 101.083L44.8106 101.083C46.9683 99.7867 48.5525 97.9491 49.9036 96.2157C51.2466 94.4791 52.3877 92.8272 53.449 91.8683C53.9358 91.4222 54.3628 90.9388 54.7598 90.444C56.1912 91.8522 59.0772 94.6344 62.0887 97.4078C63.8194 99.0016 65.5874 100.589 67.1448 101.909C67.9241 102.569 68.6502 103.162 69.2989 103.66C69.9497 104.159 70.5147 104.559 71.0181 104.851C71.533 105.146 72.1773 105.434 72.9554 105.747C75.6607 106.832 79.9644 108.164 83.6297 109.242C87.2898 110.318 90.2893 111.13 90.2952 111.131L90.4339 111.161C90.4344 111.161 90.585 111.184 90.8689 111.23C92.8501 111.551 101.245 112.962 107.265 114.652C107.956 114.846 108.674 114.443 108.868 113.752C109.062 113.061 108.659 112.343 107.968 112.149C107.921 112.136 107.874 112.124 107.827 112.111L108.743 110.011C109.006 109.409 108.76 108.732 108.213 108.399C108.062 108.211 107.876 108.05 107.631 107.968C93.084 103.129 85.3887 96.7189 81.3037 91.6022C79.2613 89.0416 78.1204 86.7977 77.49 85.214C77.1751 84.4222 76.9881 83.7955 76.8814 83.3778C76.8279 83.1691 76.7947 83.0126 76.7757 82.9139L76.7567 82.8099L76.7537 82.7916L76.7527 82.7919C76.7203 82.566 76.6187 82.3749 76.49 82.2049C76.2886 81.8011 75.8994 81.503 75.4168 81.4759L70.4981 81.1991C70.6959 80.6195 70.9881 79.92 71.4285 79.2001C71.939 78.3622 72.6338 77.5065 73.5818 76.776C74.5316 76.0458 75.7339 75.4325 77.3179 75.087C77.3721 75.0753 77.4129 75.0409 77.4639 75.0231C77.7498 75.0233 78.0381 74.9493 78.2786 74.7565C78.8384 74.307 78.928 73.4886 78.4788 72.9288L71.5743 64.3265C72.2095 63.9115 72.9373 63.5875 73.7501 63.3607C74.9793 63.0165 76.3643 62.8827 77.7098 62.8834C79.4012 62.8829 81.0274 63.0914 82.2188 63.3011C82.8148 63.4059 83.3023 63.5106 83.637 63.588C83.8045 63.6268 83.9337 63.6588 84.0191 63.6805L84.1136 63.7049L84.1385 63.7118C84.8306 63.9022 85.5462 63.4955 85.7369 62.8033C85.9273 62.111 85.5205 61.3954 84.8284 61.2049L84.8282 61.2047C84.7762 61.193 82.6248 60.597 79.7871 60.3702C80.1856 48.576 84.3033 39.3959 90.6971 33.1102C97.1812 26.7447 106.04 23.3168 115.922 23.3133C120.743 23.3133 125.806 24.1376 130.938 25.8407C131.043 25.8983 131.155 25.9449 131.276 25.972C131.393 25.9984 131.503 26.0297 131.618 26.057C133.44 26.6908 135.28 27.4347 137.112 28.2916C137.654 28.6451 138.156 29.0289 138.616 29.4452C140.417 31.0802 141.654 33.2196 142.334 36.1236C142.462 36.6742 142.933 37.0799 143.497 37.1251C144.06 37.1703 144.59 36.8448 144.804 36.3216L144.852 36.2067C144.99 35.8788 145.433 34.8609 146.105 33.5018C150.073 36.3548 154.048 40.3729 157.123 45.7701C160.508 51.7132 162.818 59.316 162.82 68.9144C162.82 74.0587 162.153 79.7767 160.622 86.1129C159.919 89.0194 159.725 90.6629 159.725 91.9574C159.725 92.5824 159.77 93.1029 159.81 93.5948C159.849 94.089 159.886 94.5594 159.886 95.1588C159.886 95.8856 159.832 96.8104 159.647 98.1512C159.204 101.344 157.774 105.023 154.29 107.943C150.803 110.861 145.16 113.1 136.054 113.104C134.18 113.104 132.16 113.009 129.987 112.805C129.334 112.743 128.741 113.174 128.597 113.814L127.816 117.283C127.659 117.984 128.099 118.68 128.8 118.837C128.81 118.84 128.821 118.836 128.831 118.838C128.901 118.868 128.96 118.915 129.037 118.933L129.037 118.933C133.834 120.073 138.062 122.493 141.072 124.637C142.577 125.708 143.777 126.707 144.596 127.433C145.006 127.796 145.32 128.092 145.529 128.293C145.634 128.394 145.712 128.472 145.763 128.523L145.817 128.577C145.864 128.63 146.035 128.823 146.323 129.152C147.508 130.504 150.513 133.97 153.46 137.669C154.933 139.518 156.392 141.425 157.597 143.145C158.8 144.859 159.752 146.411 160.182 147.424C160.403 147.925 160.552 148.823 160.547 149.943C160.549 151.625 160.247 153.794 159.78 156.06C159.08 159.463 158.019 163.102 157.134 165.877C157.074 166.065 157.017 166.239 156.958 166.419C156.022 162.509 154.907 158.541 153.6 154.602C153.668 154.445 153.706 154.272 153.706 154.09V150.758C153.706 150.04 153.124 149.458 152.406 149.458C152.194 149.458 152.003 149.521 151.826 149.611C149.961 144.651 147.808 139.804 145.346 135.271C145.003 134.64 144.214 134.407 143.583 134.75C142.952 135.093 142.719 135.882 143.062 136.513L143.062 136.513C151.496 152.017 156.428 171.554 157.603 186.403C157.66 187.119 158.286 187.653 159.003 187.596C159.718 187.539 160.253 186.913 160.196 186.197C159.826 181.572 159.104 176.525 158.042 171.297C158.307 170.567 159.428 167.436 160.553 163.584C161.196 161.384 161.839 158.95 162.326 156.583C162.812 154.214 163.146 151.92 163.147 149.943C163.143 148.622 163.01 147.438 162.572 146.4C161.911 144.871 160.679 142.975 159.176 140.879C154.679 134.629 147.753 126.844 147.739 126.826L147.702 126.786C147.662 126.746 145.768 124.788 142.579 122.518C139.591 120.394 135.456 118.001 130.619 116.672L130.888 115.476C132.699 115.618 134.436 115.704 136.054 115.704C145.57 115.708 151.896 113.341 155.959 109.937C157.845 108.359 159.203 106.574 160.187 104.748L163.023 106.424C163.412 106.654 163.894 106.665 164.293 106.454C164.692 106.242 164.954 105.837 164.982 105.386L165.282 100.576L168.998 98.1979C169.307 98.0002 169.518 97.6825 169.579 97.3212C169.641 96.9595 169.547 96.5899 169.321 96.3013ZM86.2639 150.135C84.6953 150.133 83.3215 150.743 82.2178 151.567C80.5559 152.81 79.3894 154.531 78.5891 155.941C78.3853 156.303 78.2078 156.644 78.0547 156.954C76.5688 156.027 75.0298 155.597 73.5474 155.603C71.5986 155.604 69.8127 156.301 68.2559 157.268C67.0674 158.009 65.9959 158.913 65.0518 159.848C67.8323 151.806 70.8301 146.119 73.294 142.299C74.8489 139.888 76.1909 138.217 77.1324 137.158C77.5081 136.736 77.8167 136.415 78.053 136.179C79.282 136.573 81.8088 137.256 84.6724 137.262C86.2832 137.261 88.0125 137.039 89.6646 136.377C89.6765 137.163 89.6853 138.091 89.6853 139.155C89.6853 142.185 89.6145 146.263 89.3545 150.912C88.3047 150.39 87.2642 150.133 86.2639 150.135ZM140.361 27.5169C138.568 25.8951 136.343 24.7374 133.757 23.9466L135.171 22.0708L137.96 24.7669C138.411 25.2032 139.104 25.2554 139.616 24.8919C140.643 24.1587 142.104 23.5401 143.706 23.0726C146.046 22.3848 148.674 22.0044 150.742 21.803C150.178 22.4014 149.63 23.0235 149.114 23.6758C146.801 26.6128 144.959 29.9568 143.792 32.3096C142.956 30.4329 141.812 28.8262 140.361 27.5169ZM163.325 98.741C162.977 98.9634 162.753 99.3431 162.728 99.7552L162.519 103.106L161.259 102.362C161.739 101.041 162.056 99.7337 162.223 98.5052C162.42 97.0738 162.486 96.0186 162.486 95.1587C162.486 94.4932 162.446 93.9563 162.407 93.4783C163.424 94.126 164.896 95.2161 166.346 96.8084L163.325 98.741Z"/><path id="Vector_12" d="M127.81 85.0039C128.952 85.0037 129.987 85.1392 130.725 85.2744C131.094 85.3418 131.389 85.4092 131.587 85.458C131.686 85.4827 131.761 85.5024 131.809 85.5156L131.86 85.53L131.868 85.5325L131.869 85.5327V85.5325C132.557 85.738 133.28 85.3481 133.487 84.6611C133.693 83.9734 133.303 83.2485 132.615 83.0422C132.54 83.022 130.499 82.4067 127.81 82.4041C125.466 82.4065 122.561 82.8733 120.147 84.814C119.589 85.2649 119.502 86.0835 119.953 86.6423C120.404 87.2009 121.222 87.2878 121.781 86.8369L121.781 86.8367C123.513 85.4282 125.798 85.0015 127.81 85.0039Z"/><path id="Vector_13" d="M120.535 47.7112L120.535 47.7041C120.548 47.5454 120.556 47.384 120.556 47.2205C120.556 46.8118 120.5 46.4062 120.409 46.0076C120.4 45.9675 120.386 45.9294 120.372 45.8906C120.121 44.8928 119.6 43.9585 118.774 43.2527C117.747 42.3743 116.629 41.7908 115.495 41.4231C114.777 41.0637 113.996 40.7405 113.105 40.5203C112.146 40.2825 111.219 40.1831 110.347 40.1834C106.228 40.1968 103.367 42.3357 102.856 42.7156C102.286 43.1516 102.177 43.9675 102.613 44.5381C102.749 44.7156 102.927 44.8313 103.118 44.9167C101.904 46.2087 100.936 47.7498 100.313 49.4714C98.7279 53.8669 98.2961 58.8794 98.2924 62.7747C98.2924 64.2698 98.3581 65.5984 98.4548 66.6685C98.5033 67.2039 98.5595 67.6743 98.6208 68.0747C98.6833 68.4775 98.746 68.801 98.8302 69.0916C98.9074 69.3528 98.9909 69.6211 99.08 69.8906C98.4238 69.6975 97.7236 70.0352 97.4904 70.6875C97.2485 71.3635 97.6005 72.1075 98.2768 72.3494C99.7976 72.8931 101.318 73.4383 102.84 73.9832C102.935 74.0208 103.038 74.0547 103.138 74.0901C103.15 74.0942 103.162 74.0984 103.174 74.1028C103.174 74.1031 103.175 74.1028 103.175 74.103C103.873 74.3459 104.668 74.5374 105.589 74.6746C105.591 74.6748 105.592 74.6741 105.593 74.6743C108.203 75.0579 110.594 75.5753 112.663 75.5828C113.306 75.5823 113.926 75.5308 114.525 75.3829C115.121 75.2352 115.705 74.9832 116.21 74.5787C116.601 74.2615 116.908 73.8789 117.174 73.4568C117.175 73.4548 117.176 73.4531 117.177 73.4512C117.354 73.1716 117.515 72.8782 117.66 72.5632C118.289 71.1724 118.698 69.4109 119.023 67.3889C119.504 64.3623 119.76 60.7654 119.96 57.2534C120.16 53.7449 120.302 50.3208 120.535 47.7112ZM114.585 72.5488C114.432 72.6716 114.219 72.7793 113.898 72.8594C113.58 72.9392 113.161 72.9834 112.663 72.9829C111.044 72.9905 108.661 72.5068 105.972 72.1021C105.971 72.1018 105.969 72.1023 105.968 72.1023C105.176 71.9836 104.554 71.8293 104.051 71.6562C104.051 71.656 104.051 71.6555 104.05 71.6555L104.05 71.6553C103.958 71.6223 103.866 71.5891 103.773 71.5562C103.261 71.3538 102.897 71.1301 102.632 70.905C102.631 70.9045 102.631 70.9036 102.63 70.9031L102.63 70.9028C102.287 70.6089 102.066 70.2966 101.864 69.8843C101.664 69.4741 101.501 68.9625 101.325 68.3594C101.296 68.2623 101.241 68.0118 101.191 67.6812C101.036 66.6763 100.892 64.899 100.892 62.7747C100.889 59.0804 101.329 54.2911 102.758 50.3555C103.483 48.348 104.791 46.6295 106.44 45.42C108.09 44.21 110.07 43.5106 112.163 43.5103L112.379 43.5132C112.381 43.5132 112.382 43.5122 112.384 43.5122C112.387 43.5124 112.389 43.5139 112.392 43.5139L112.391 43.5137C113.133 43.534 113.862 43.6419 114.571 43.8575C115.283 44.2391 115.893 44.6768 116.391 45.1163C117.075 45.721 117.55 46.3062 117.834 46.6954C117.667 51.5076 117.273 56.7095 116.533 62.2468C116.065 65.7515 115.5 69.0806 114.872 72.2292C114.763 72.3791 114.663 72.4902 114.585 72.5488Z"/><path id="Vector_14" d="M110.537 33.3396C112.3 33.3379 114.242 33.606 115.874 34.1912C116.691 34.4824 117.429 34.8508 118.037 35.2859C118.647 35.7214 119.125 36.2178 119.46 36.7788C119.829 37.3948 120.627 37.5957 121.243 37.2273C121.859 36.8586 122.06 36.0603 121.692 35.4443C121.143 34.5266 120.396 33.7749 119.548 33.1699C118.274 32.2622 116.772 31.668 115.218 31.2856C113.663 30.9053 112.051 30.7402 110.537 30.7397C109.495 30.7397 108.501 30.8184 107.598 30.9675C106.695 31.1182 105.886 31.3337 105.189 31.6448C104.533 31.9382 104.24 32.7075 104.534 33.363C104.827 34.0183 105.597 34.3113 106.252 34.0178L106.252 34.0176C106.658 33.8342 107.282 33.6541 108.023 33.5325C108.765 33.4097 109.628 33.3396 110.537 33.3396Z"/><path id="Vector_15" d="M152.566 81.1242C151.9 80.8574 151.143 81.1816 150.877 81.8483L150.838 81.946C150.571 82.6125 150.895 83.3691 151.562 83.6357C152.228 83.9025 152.985 83.5783 153.251 82.9116L153.29 82.8139C153.557 82.1474 153.233 81.3908 152.566 81.1242Z"/><path id="Vector_16" d="M151.554 77.4231C151.553 77.1167 151.507 76.7781 151.343 76.426C151.185 76.0769 150.875 75.7249 150.481 75.5257C150.218 75.387 149.896 75.292 149.564 75.2932C149.292 75.292 149.02 75.3569 148.793 75.4634C148.392 75.6528 148.135 75.9314 147.954 76.1897C147.685 76.5838 147.551 76.9737 147.453 77.3591C147.36 77.7451 147.315 78.1245 147.314 78.4942C147.316 78.7693 147.335 79.0322 147.42 79.3377C147.465 79.4915 147.526 79.6604 147.657 79.8606C147.786 80.0537 148.016 80.3071 148.397 80.4451L148.404 80.4473C148.604 80.5181 148.813 80.5515 149.014 80.5513C149.545 80.5481 149.958 80.3352 150.255 80.1106C150.703 79.7625 150.981 79.3489 151.199 78.9033C151.408 78.4546 151.55 77.9734 151.554 77.4231Z"/><path id="Vector_17" d="M152.566 81.1242C151.9 80.8574 151.143 81.1816 150.877 81.8483L150.838 81.946C150.571 82.6125 150.895 83.3691 151.562 83.6357C152.228 83.9025 152.985 83.5783 153.251 82.9116L153.29 82.8139C153.557 82.1474 153.233 81.3908 152.566 81.1242Z"/><path id="Vector_18" d="M151.554 77.4231C151.553 77.1167 151.507 76.7781 151.343 76.426C151.185 76.0769 150.875 75.7249 150.481 75.5257C150.218 75.387 149.896 75.292 149.564 75.2932C149.292 75.292 149.02 75.3569 148.793 75.4634C148.392 75.6528 148.135 75.9314 147.954 76.1897C147.685 76.5838 147.551 76.9737 147.453 77.3591C147.36 77.7451 147.315 78.1245 147.314 78.4942C147.316 78.7693 147.335 79.0322 147.42 79.3377C147.465 79.4915 147.526 79.6604 147.657 79.8606C147.786 80.0537 148.016 80.3071 148.397 80.4451L148.404 80.4473C148.604 80.5181 148.813 80.5515 149.014 80.5513C149.545 80.5481 149.958 80.3352 150.255 80.1106C150.703 79.7625 150.981 79.3489 151.199 78.9033C151.408 78.4546 151.55 77.9734 151.554 77.4231Z"/></g></g></svg>