<svg width="200" height="200" viewBox="0 0 200 200" xmlns="http://www.w3.org/2000/svg"><g id="type=pointer, mode=dark"><path id="Vector" d="M75.7105 178.938C76.8775 185.938 116.544 186.604 115.21 178.604L111.877 157.938L106.877 152.938L110.544 150.938C112.972 137.905 114.31 124.692 114.544 111.438C114.71 91.1035 112.21 81.6035 112.21 81.6035L102.877 77.9375C102.877 77.9375 107.21 76.9375 111.544 71.1035C115.877 65.2705 120.21 59.2705 120.21 59.2705L129.044 43.2705C129.044 43.2705 124.71 36.6035 120.71 40.4375C118.43 42.6042 116.261 44.8847 114.21 47.2705L112.044 44.7705C112.044 44.7705 114.377 21.9375 114.377 18.4375C114.377 14.9375 108.71 14.2705 106.71 19.1035C104.71 23.9375 102.044 36.1035 102.044 36.1035C102.044 36.1035 98.3775 28.1035 92.044 36.7705C92.044 36.7705 86.2036 30.5518 81.7442 38.6035C80.9328 40.2355 80.3603 41.9756 80.044 43.7705C80.044 43.7705 77.8775 43.6035 77.3775 46.9375C76.8775 50.2705 76.7105 67.2705 79.044 71.4375C81.3775 75.6035 83.7105 76.1035 83.7105 76.1035C83.7105 76.1035 74.2105 77.2705 72.7105 83.1035C71.2105 88.9375 70.7105 120.771 72.044 133.438C73.3775 146.104 72.544 152.104 79.7105 153.938L75.2105 159.438L75.7105 178.938Z"/><path id="Vector_2" d="M98.5586 31.542L98.5606 31.543H98.5626L98.5586 31.542Z"/><path id="Vector_3" d="M102.638 147.577L102.639 147.579L102.64 147.58L102.638 147.577Z"/><path id="Vector_4" d="M82.1279 149.229V149.228L82.1289 149.227L82.1279 149.229Z"/><path id="Vector_5" d="M130.04 42.5491C129.592 41.2337 128.724 40.1018 127.57 39.3272C126.568 38.684 125.401 38.3465 124.21 38.3559C122.843 38.3435 121.509 38.7701 120.403 39.5729C119.946 39.9206 119.392 40.4066 118.76 40.9864C117.435 42.203 115.805 43.8114 114.537 45.0832L114.533 45.0769C114.24 44.7485 113.894 44.4726 113.508 44.2611C113.653 42.8897 114.074 38.849 114.5 34.3764C114.762 31.6176 115.026 28.6954 115.228 26.1306C115.429 23.5619 115.57 21.3676 115.583 19.9959L115.583 19.927C115.628 18.4323 115.098 16.9774 114.101 15.8624C113.657 15.3836 113.118 15.0014 112.519 14.7395C111.921 14.4777 111.275 14.3418 110.621 14.3403C109.443 14.3461 108.307 14.7797 107.425 15.5603C106.413 16.4854 105.718 17.7057 105.438 19.0481C104.793 21.7651 103.386 27.3217 102.143 32.1869C102.057 32.5207 101.973 32.8506 101.889 33.1767C101.832 33.1227 101.782 33.0634 101.722 33.0111C100.837 32.2195 99.7372 31.7084 98.5615 31.5428C97.5156 31.4075 96.4525 31.5274 95.463 31.8924C94.1211 32.4163 92.9521 33.3044 92.0875 34.4567C91.9344 34.3228 91.7615 34.1808 91.561 34.0348C90.6356 33.3276 89.5107 32.9303 88.3464 32.8994L88.1692 32.9031C86.8995 32.9378 85.6541 33.2586 84.5258 33.8417C82.8927 34.7486 81.5786 36.1364 80.762 37.8164C79.9057 39.558 79.3183 41.4193 79.0195 43.3368C78.9845 43.3507 78.9447 43.3625 78.9102 43.3766C78.3894 43.5815 77.8977 43.8536 77.4476 44.1862C76.9899 44.519 76.6324 44.9712 76.4144 45.4934C76.2897 45.8398 76.2026 46.1985 76.1545 46.5635C75.9654 48.1855 75.8857 49.8184 75.9158 51.4511C75.9161 54.7761 76.0991 58.9789 76.3767 62.7519C76.5157 64.6382 76.6783 66.4153 76.8551 67.9242C76.9789 69.1371 77.1717 70.342 77.4325 71.533C77.7544 72.7749 78.4036 73.9078 79.3123 74.8135C79.7593 75.2604 80.2474 75.6642 80.7702 76.0194C79.2807 76.2211 77.8079 76.5306 76.3632 76.9456C74.9849 77.3777 73.7664 78.2104 72.8632 79.3377C71.9599 80.4649 71.4127 81.8356 71.2914 83.2749C70.2579 92.8688 69.7185 102.51 69.6752 112.159C69.5676 125.066 70.8469 137.948 73.491 150.582C73.6435 151.247 73.959 151.864 74.409 152.377C75.1029 153.134 75.9504 153.735 76.8951 154.139C77.1307 154.248 77.3958 154.334 77.6456 154.431C76.8269 155.026 76.0922 155.728 75.4611 156.518C74.2473 157.988 73.5467 159.814 73.4659 161.719C73.4524 162.476 73.4454 163.282 73.4454 164.126C73.4391 169.854 73.7355 175.578 74.3332 181.274C74.3717 181.617 74.5448 181.93 74.8143 182.145C75.0838 182.36 75.4277 182.459 75.7703 182.421C76.113 182.382 76.4262 182.209 76.6413 181.94C76.8563 181.67 76.9555 181.326 76.9169 180.984V180.983C76.3302 175.383 76.0393 169.756 76.0454 164.126C76.0454 163.296 76.0523 162.505 76.0655 161.765C76.1379 160.429 76.6424 159.152 77.503 158.128C78.3178 157.085 79.3712 156.254 80.5746 155.704C85.3021 153.809 90.3584 152.872 95.4507 152.946C98.9283 152.912 102.395 153.342 105.759 154.226C106.866 154.57 107.886 155.151 108.746 155.928C109.64 156.677 110.288 157.677 110.607 158.799C111.554 162.767 112.559 168.458 113.322 173.136C113.704 175.476 114.026 177.566 114.252 179.07C114.479 180.574 114.609 181.488 114.609 181.49C114.659 181.831 114.841 182.138 115.117 182.344C115.392 182.55 115.738 182.638 116.079 182.59C116.42 182.541 116.727 182.36 116.934 182.085C117.141 181.81 117.231 181.464 117.183 181.123C117.182 181.118 116.656 177.424 115.888 172.717C115.119 168.007 114.113 162.294 113.136 158.196C112.697 156.558 111.771 155.092 110.48 153.991C110.096 153.654 109.688 153.343 109.261 153.062C109.361 152.999 109.479 152.945 109.573 152.88C110.286 152.442 110.849 151.8 111.19 151.036C111.312 150.715 111.448 150.262 111.625 149.597C112.74 145.001 113.563 140.338 114.09 135.638C115.161 126.606 115.682 117.517 115.648 108.422C115.648 101.495 115.375 93.8002 114.696 85.3951C114.602 84.0226 114.122 82.7046 113.312 81.5932C112.501 80.4817 111.392 79.6222 110.114 79.1138C109.055 78.7117 107.855 78.3311 106.554 77.9766C107.511 77.5745 108.384 76.9946 109.125 76.2676C109.353 76.0323 109.659 75.6788 110.075 75.1856C111.513 73.4747 114.122 70.2022 116.464 67.1239C117.635 65.5851 118.736 64.0981 119.592 62.8749C120.02 62.2625 120.387 61.7171 120.676 61.2526C120.821 61.0199 120.946 60.8078 121.053 60.6095C121.16 60.4189 121.251 60.2204 121.326 60.0157L121.327 60.0142C121.453 59.6342 121.514 59.2358 121.508 58.8356C121.508 58.8189 121.505 58.8015 121.505 58.7847C121.518 58.7591 121.545 58.7073 121.598 58.6054C122.09 57.6668 124.226 53.6512 126.255 50.5911C126.946 49.5451 127.876 48.388 128.668 47.2372C129.061 46.6802 129.409 46.0931 129.71 45.4813C130.017 44.8786 130.188 44.2156 130.21 43.5394C130.212 43.2019 130.154 42.8667 130.04 42.5491ZM106.168 27.3354V27.3353C106.442 26.6225 106.918 26.0055 107.539 25.5603C108.018 25.238 108.584 25.0682 109.161 25.0728C109.992 25.0819 110.794 25.3839 111.424 25.9255C111.711 26.1554 111.945 26.4451 112.108 26.7743C112.272 27.1036 112.362 27.4645 112.371 27.832C112.377 27.9609 112.403 28.0881 112.448 28.2092C112.324 29.6577 112.189 31.1604 112.05 32.6513C111.979 32.5942 111.91 32.5332 111.837 32.4797C110.625 31.6106 109.17 31.148 107.679 31.1584C106.742 31.1604 105.814 31.3467 104.949 31.7068C105.298 30.3388 105.653 28.9411 105.997 27.5825C106.064 27.5073 106.121 27.4243 106.168 27.3354ZM102.335 41.8878C102.335 41.8854 103.001 39.3115 103.887 35.8555C103.952 35.8005 104.012 35.7389 104.065 35.6717V35.6716C104.454 35.0544 105.004 34.555 105.656 34.2269C106.391 33.8675 107.207 33.7102 108.023 33.7712C108.838 33.8321 109.623 34.1091 110.295 34.5737C110.64 34.8156 110.93 35.1275 111.145 35.489C111.361 35.8505 111.498 36.2535 111.547 36.6716C111.567 36.7667 111.597 36.8592 111.639 36.9472C111.601 37.3268 111.564 37.7055 111.528 38.0684C111.345 39.9113 111.18 41.5152 111.062 42.6583C111.038 42.8881 111.016 43.0936 110.997 43.2841C110.609 43.1758 110.207 43.0712 109.774 42.9731C107.314 42.4593 104.823 42.1086 102.318 41.9233C102.321 41.9103 102.331 41.9011 102.335 41.8879L102.335 41.8878ZM107.968 19.6489C108.123 18.8354 108.53 18.0912 109.131 17.522C109.54 17.1525 110.07 16.9456 110.621 16.9404C110.919 16.9416 111.213 17.0045 111.486 17.125C111.758 17.2455 112.003 17.421 112.204 17.6406C112.749 18.2739 113.028 19.093 112.983 19.9271L112.983 19.9744C112.976 20.8276 112.907 22.1492 112.799 23.7239C111.753 22.9247 110.477 22.4858 109.161 22.4728C108.485 22.4767 107.816 22.6044 107.186 22.8496C107.499 21.5891 107.769 20.4877 107.968 19.6489ZM96.363 34.3317C96.9582 34.1124 97.5975 34.0401 98.2266 34.1209L98.2309 34.1215C98.8951 34.2224 99.5147 34.5174 100.012 34.9693C100.468 35.3638 100.826 35.8587 101.059 36.4151C100.859 37.1939 100.675 37.9099 100.514 38.5374C100.088 40.1916 99.8183 41.2343 99.8176 41.237C99.7742 41.4044 99.7648 41.5789 99.79 41.7501C97.8652 41.6415 95.8846 41.5814 93.9216 41.5804C93.1869 41.5805 92.4591 41.5912 91.7365 41.6074C92.5547 38.2536 93.7003 36.3778 94.745 35.3767C95.2055 34.9192 95.7566 34.5632 96.363 34.3317ZM83.8428 37.7878C84.3459 37.1064 84.9931 36.5443 85.7382 36.1417C86.5235 35.7391 87.3899 35.52 88.2722 35.501L88.2742 35.5009L88.3464 35.4995C88.9614 35.5334 89.5508 35.7569 90.0337 36.1391C90.2343 36.285 90.4236 36.4459 90.5999 36.6204L90.6938 36.7182C89.9468 38.3097 89.392 39.9845 89.0412 41.7072C86.9796 41.8025 84.9249 42.0127 82.8867 42.3366C82.521 42.3989 82.1691 42.4655 81.8272 42.5357C82.1628 40.8305 82.8492 39.2136 83.8428 37.7878H83.8428ZM80.6044 72.2391V72.2389C80.4981 72.0105 80.4416 71.7621 80.4386 71.5102L80.4425 71.4233C80.4574 71.3 80.4995 71.1816 80.5658 71.0767C80.8151 70.7169 81.1472 70.4222 81.5341 70.2175C82.6251 69.6293 83.8057 69.2254 85.0283 69.022C86.7581 68.7012 88.5147 68.5467 90.274 68.5606C91.6146 68.5624 92.9541 68.6353 94.2869 68.7789C97.6071 69.0759 100.857 69.91 103.91 71.2487C104.88 71.6772 105.774 72.2599 106.558 72.9742C106.786 73.1892 106.978 73.4383 107.13 73.7126C107.215 73.8626 107.262 74.0309 107.268 74.2033L107.264 74.2799L107.264 74.2831C107.253 74.3628 107.231 74.4403 107.196 74.513C106.649 75.0178 106.012 75.4156 105.318 75.686C104.588 75.9832 103.834 76.215 103.063 76.3786C103.054 76.1066 103.045 75.8305 103.033 75.5667C103.019 75.2434 103.003 74.9411 102.983 74.6776C102.972 74.545 102.961 74.4228 102.946 74.3005C102.929 74.1481 102.9 73.9974 102.858 73.8497C102.765 73.5326 102.595 73.2433 102.364 73.0069C102.116 72.7579 101.825 72.555 101.505 72.4077C101.014 72.1815 100.502 72.0005 99.9779 71.8669C97.9647 71.3607 95.9109 71.0324 93.8402 70.8858L93.8412 70.8859C92.6857 70.8015 91.5387 70.7552 90.4772 70.7551C89.388 70.7396 88.2993 70.8105 87.2214 70.9674C86.7637 71.0358 86.3157 71.1583 85.8869 71.3322C85.6359 71.4374 85.401 71.5774 85.189 71.748C84.8817 71.995 84.6473 72.3208 84.5105 72.6905C84.4675 72.8116 84.4318 72.9352 84.4036 73.0606C84.3185 73.4327 84.2571 73.851 84.188 74.3358C84.1609 74.529 84.1341 74.7301 84.1075 74.9299C83.8053 74.7967 83.4892 74.6462 83.1691 74.4699C82.4241 74.0743 81.7427 73.5692 81.1476 72.9715C80.9632 72.7765 80.7933 72.5684 80.6392 72.3488C80.6234 72.3129 80.6238 72.2741 80.6044 72.2391L80.6044 72.2391ZM87.6313 73.6281C87.6433 73.5453 87.6548 73.4716 87.6663 73.3964C88.5959 73.2508 89.5365 73.1868 90.4773 73.2051C91.4382 73.205 92.5093 73.2476 93.5895 73.3267L93.5905 73.3268C95.1474 73.4431 96.6946 73.6641 98.2217 73.9884C98.676 74.0848 99.1251 74.2038 99.5675 74.3452C99.5864 74.6922 99.6023 76.1004 99.6154 76.5194C95.7311 75.896 91.8045 75.5738 87.8706 75.5557C87.7478 75.5558 87.6265 75.5596 87.5039 75.5603C87.547 75.2341 87.5899 73.9128 87.6313 73.6281L87.6313 73.6281ZM76.3826 150.684C76.2111 150.496 76.0897 150.268 76.0296 150.021C76.0005 149.889 75.9784 149.757 75.9497 149.625C75.9578 149.412 76.0214 149.205 76.1341 149.024C76.5797 148.37 77.1764 147.834 77.8737 147.459C79.7267 146.429 81.7261 145.688 83.8028 145.26C86.6163 144.63 89.4844 144.274 92.3667 144.198C92.8987 144.181 93.4248 144.172 93.9452 144.173C97.7325 144.099 101.508 144.626 105.13 145.735C106.249 146.081 107.301 146.617 108.239 147.319C108.506 147.528 108.735 147.781 108.917 148.067C109.025 148.234 109.087 148.426 109.098 148.625C109.107 148.689 109.122 148.752 109.142 148.813C109.132 148.852 109.121 148.897 109.111 148.934C108.951 149.542 108.818 149.964 108.762 150.107C108.597 150.367 108.371 150.583 108.103 150.736C107.523 151.111 106.905 151.424 106.259 151.67C105.291 151.404 104.243 151.174 103.132 150.982C103.083 150.553 103.027 149.964 102.971 149.417C102.937 149.092 102.903 148.784 102.865 148.513C102.846 148.377 102.827 148.251 102.801 148.12L102.752 147.905C102.723 147.793 102.686 147.684 102.639 147.579C102.513 147.297 102.324 147.048 102.085 146.852C101.834 146.649 101.55 146.491 101.245 146.384C100.793 146.227 100.327 146.111 99.8545 146.037C97.9557 145.753 96.0377 145.619 94.118 145.636C93.4893 145.636 92.8644 145.649 92.2613 145.677H92.2621C90.1748 145.773 88.1051 146.105 86.0923 146.666C85.3233 146.877 84.5747 147.155 83.8555 147.499C83.5393 147.653 83.2403 147.839 82.9634 148.056C82.8033 148.183 82.6572 148.328 82.5278 148.486C82.3481 148.706 82.2125 148.958 82.1282 149.228C82.0889 149.36 82.0573 149.495 82.0337 149.63C81.9594 150.051 81.9155 150.53 81.8716 151.081C81.8364 151.534 81.8074 152.012 81.7818 152.466C81.4974 152.563 81.2171 152.668 80.9363 152.772C80.8814 152.742 80.8243 152.715 80.7654 152.693C79.5545 152.44 78.3872 152.011 77.3007 151.42C76.9576 151.225 76.6477 150.977 76.3826 150.684L76.3826 150.684ZM85.3049 151.457C85.3128 151.352 85.3198 151.238 85.3281 151.139C85.3454 150.932 85.3637 150.053 85.3816 149.895C85.6245 149.774 85.8744 149.668 86.1301 149.577C88.1625 148.901 90.2796 148.513 92.4196 148.423H92.4205C92.9642 148.398 93.5381 148.386 94.1181 148.386C95.5876 148.381 97.0563 148.461 98.5166 148.626C98.9024 148.673 99.2383 148.729 99.5067 148.782C99.5421 149.102 99.5784 150.159 99.6156 150.53C98.2744 150.413 96.8813 150.347 95.4507 150.346C92.0379 150.335 88.6346 150.708 85.3049 151.457L85.3049 151.457ZM112.104 85.6044C112.778 93.9384 113.048 101.563 113.048 108.422C113.098 118.351 112.461 128.272 111.141 138.112C110.73 141.036 110.305 143.452 109.924 145.35C109.517 145.012 109.083 144.71 108.624 144.447C106.667 143.416 104.559 142.702 102.378 142.331C99.5974 141.81 96.7738 141.557 93.9452 141.573C93.3979 141.573 92.8444 141.581 92.2847 141.599C87.8776 141.665 83.5096 142.438 79.347 143.887C77.8653 144.411 76.4802 145.176 75.2478 146.151C73.2018 134.938 72.2066 123.557 72.2753 112.159C72.3186 102.595 72.8538 93.0399 73.8787 83.5312C73.9495 82.6064 74.2936 81.7236 74.8674 80.9949C75.4411 80.2662 76.2186 79.7245 77.1009 79.4388C80.6141 78.5144 84.2387 78.0826 87.8707 78.1557C91.8229 78.173 95.7674 78.5066 99.6664 79.1535C102.91 79.6469 106.099 80.4474 109.191 81.5441C110.009 81.8784 110.716 82.4367 111.232 83.1549C111.747 83.8731 112.05 84.7221 112.104 85.6044L112.104 85.6044ZM118.872 59.1568L118.838 59.2333C118.625 59.6365 118.389 60.0269 118.131 60.4026C116.882 62.2935 114.426 65.5502 112.155 68.4513C111.085 69.8188 110.06 71.1034 109.209 72.1491C108.701 71.3927 108.056 70.7389 107.306 70.2221C105.648 69.1059 103.827 68.2515 101.909 67.6886C99.5159 66.948 97.0549 66.4471 94.5625 66.1935C93.1381 66.0402 91.7066 65.9624 90.274 65.9606C87.4894 65.8982 84.7135 66.294 82.0574 67.1324C81.1551 67.436 80.3059 67.8787 79.5404 68.4446C79.5056 68.1791 79.471 67.9106 79.4374 67.6216C78.8601 62.2502 78.5526 56.8533 78.5158 51.4511C78.5157 50.135 78.5459 48.9725 78.6091 48.0753C78.6404 47.6275 78.6803 47.2458 78.7247 46.9561C78.7466 46.7806 78.7841 46.6074 78.8365 46.4385L78.8369 46.4388C78.9258 46.3239 79.0364 46.2276 79.1625 46.1555C79.8074 45.7844 80.5038 45.5109 81.2289 45.3441C83.054 44.9 84.9126 44.6072 86.7859 44.4687C88.9761 44.2743 91.4251 44.1802 93.9216 44.1804C98.264 44.1575 102.602 44.4567 106.9 45.0755C108.385 45.2827 109.847 45.623 111.271 46.0923C111.66 46.2224 112.032 46.3988 112.379 46.618C112.433 46.6538 112.484 46.6947 112.53 46.7402C112.693 47.4986 112.766 48.2739 112.745 49.0495C112.676 51.5905 112.421 54.123 111.981 56.6266C111.789 57.815 111.596 58.8593 111.451 59.6043C111.379 59.9769 111.319 60.2746 111.277 60.4783C111.235 60.682 111.212 60.7879 111.212 60.7882C111.177 60.9552 111.174 61.1275 111.205 61.2954C111.235 61.4634 111.299 61.6236 111.391 61.767C111.484 61.9104 111.604 62.0341 111.745 62.1311C111.885 62.2282 112.043 62.2966 112.21 62.3324C112.377 62.3683 112.549 62.371 112.717 62.3402C112.885 62.3095 113.046 62.246 113.189 62.1533C113.332 62.0607 113.456 61.9407 113.553 61.8002C113.65 61.6598 113.719 61.5015 113.754 61.3346V61.3345C113.757 61.32 114.152 59.4851 114.548 57.0424C114.757 55.7448 114.963 54.2826 115.116 52.8199C115.422 52.9804 115.712 53.1722 115.979 53.3924C116.875 54.1614 117.604 55.1061 118.121 56.168C118.568 56.9917 118.836 57.9008 118.908 58.8355C118.912 58.9438 118.9 59.0521 118.872 59.1568L118.872 59.1568ZM120.509 55.1493C120.045 54.1812 119.453 53.2796 118.749 52.4689C117.838 51.3812 116.649 50.5616 115.308 50.0978C115.321 49.7467 115.345 49.3844 115.345 49.0495C115.344 48.684 115.332 48.3345 115.313 47.9927C116.031 47.265 117.064 46.226 118.153 45.1602C118.256 45.1427 118.361 45.132 118.466 45.1283C119.057 45.1472 119.634 45.3123 120.145 45.6089C121.07 46.1391 121.868 46.8651 122.484 47.7361C122.757 48.1106 122.987 48.5149 123.169 48.9414C123.286 49.1982 123.356 49.4742 123.375 49.7559L123.374 49.7829C123.376 49.9118 123.397 50.0398 123.437 50.1623C122.344 51.8907 121.294 53.7277 120.509 55.1494L120.509 55.1493ZM127.358 44.3725C126.956 45.1436 126.486 45.8776 125.955 46.5658C125.753 46.8421 125.538 47.131 125.326 47.4175C125.317 47.401 125.311 47.3847 125.303 47.3682C124.641 46.1188 123.728 45.0205 122.62 44.1427C121.978 43.63 121.263 43.2182 120.497 42.9213L120.518 42.9017C121.118 42.3505 121.646 41.8925 121.975 41.6439L121.976 41.6434C122.63 41.1866 123.412 40.9461 124.21 40.9558C124.896 40.9465 125.571 41.1375 126.15 41.5053C126.834 41.9724 127.343 42.6532 127.598 43.4409L127.61 43.5393C127.584 43.8313 127.498 44.1147 127.358 44.3725L127.358 44.3725Z"/></g></svg>