<svg width="200" height="200" viewBox="0 0 200 200" xmlns="http://www.w3.org/2000/svg"><g id="type=help, mode=light"><path id="Vector" d="M177.158 159.144C176.647 157.875 175.869 156.731 174.878 155.789C174.348 155.264 173.749 154.814 173.098 154.452C172.424 154.069 171.666 153.86 170.891 153.843C169.813 153.879 168.766 154.209 167.863 154.797C167.792 154.84 167.735 154.876 167.669 154.916V141.867C167.669 141.696 167.635 141.527 167.57 141.369C167.505 141.211 167.409 141.068 167.288 140.947C167.167 140.827 167.024 140.731 166.866 140.666C166.709 140.6 166.54 140.567 166.369 140.567H162.848C162.503 140.567 162.172 140.704 161.929 140.947C161.685 141.191 161.548 141.522 161.548 141.867V156.202C161.41 159.451 162.402 162.647 164.357 165.247C165.035 166.141 165.889 166.888 166.865 167.441C167.842 167.995 168.921 168.344 170.037 168.466C170.199 168.476 170.359 168.482 170.518 168.482C172.617 168.454 174.621 167.604 176.099 166.114C176.443 165.775 176.733 165.386 176.96 164.96C177.34 164.065 177.513 163.095 177.464 162.123C177.464 161.46 177.422 160.791 177.383 160.161C177.356 159.813 177.28 159.471 177.158 159.144ZM172.726 165.365C172.039 165.701 171.284 165.878 170.518 165.882C170.416 165.882 170.311 165.878 170.203 165.871C169.446 165.769 168.717 165.516 168.06 165.127C167.402 164.739 166.829 164.222 166.375 163.607C164.798 161.471 164.011 158.854 164.148 156.202V143.167H165.069V156.202L165.07 156.212L165.072 156.234C165.062 156.875 165.201 157.51 165.478 158.088C165.838 158.801 166.45 159.355 167.196 159.643C167.688 159.833 168.212 159.928 168.739 159.925C168.909 159.926 169.078 159.916 169.245 159.894C169.585 159.846 169.893 159.666 170.1 159.392C170.307 159.118 170.398 158.773 170.351 158.433C170.305 158.093 170.126 157.785 169.853 157.576C169.58 157.368 169.235 157.276 168.895 157.321L168.895 157.318L168.739 157.325C168.73 157.325 168.719 157.323 168.709 157.323C169.022 157.132 169.324 156.943 169.625 156.793C170.013 156.578 170.447 156.458 170.891 156.443C171.299 156.471 171.692 156.607 172.031 156.836C172.785 157.326 173.439 157.954 173.959 158.687C173.439 158.836 172.981 159.15 172.655 159.581C172.329 160.013 172.152 160.538 172.15 161.079V163.773C172.153 164.354 172.36 164.916 172.734 165.361L172.726 165.365Z"/><path id="Vector_2" d="M24.3428 133.154C24.4033 133.236 24.475 133.307 24.5395 133.385C24.7655 133.757 25.0814 134.067 25.4581 134.286C25.8613 134.595 26.3007 134.853 26.7664 135.055C27.7285 135.466 28.7648 135.673 29.8107 135.665C31.7623 135.658 33.658 135.013 35.2101 133.83C36.9977 132.444 38.2161 130.451 38.6358 128.228C38.9806 126.429 39.1419 124.6 39.1172 122.768C39.1171 121.718 39.0832 120.812 39.0836 120.179V109.553C39.0843 109.214 38.9523 108.889 38.716 108.646C38.4797 108.403 38.1578 108.262 37.819 108.254L33.9474 108.148C33.7738 108.143 33.601 108.174 33.4392 108.237C33.2774 108.3 33.1299 108.395 33.0054 108.516C32.8809 108.637 32.782 108.782 32.7144 108.942C32.6469 109.102 32.6121 109.274 32.6121 109.448V120.705C32.6122 121.227 32.6254 121.722 32.6252 122.157C32.6284 122.443 32.6178 122.699 32.6012 122.917C32.4186 122.685 32.2233 122.464 32.0163 122.255C31.7394 121.98 31.4176 121.755 31.0648 121.589C30.6376 121.394 30.173 121.295 29.7035 121.299C29.0711 121.316 28.4492 121.465 27.8778 121.737C26.8985 122.189 26.0277 122.846 25.324 123.663C24.4923 124.607 23.9284 125.757 23.6909 126.992C23.5485 127.808 23.4776 128.636 23.4789 129.465C23.4735 130.098 23.5257 130.73 23.6348 131.354C23.7341 131.999 23.9759 132.614 24.3428 133.154ZM27.8238 124.834C28.1604 124.54 28.537 124.296 28.9424 124.109C29.1802 123.991 29.4387 123.92 29.7035 123.899C29.8271 123.891 29.9501 123.924 30.0526 123.993C30.3291 124.234 30.5754 124.507 30.7862 124.806C31.0025 125.073 31.2564 125.307 31.5399 125.501C31.9313 125.76 32.3903 125.898 32.8598 125.898C33.3711 125.905 33.8683 125.73 34.2628 125.405C34.5238 125.181 34.7313 124.902 34.87 124.587C35.0355 124.199 35.1381 123.787 35.1738 123.366C35.2122 122.964 35.2294 122.561 35.2252 122.157C35.2251 121.674 35.2119 121.182 35.2121 120.705V110.784L36.4837 110.818V120.179C36.484 120.893 36.5175 121.772 36.5173 122.768C36.5414 124.423 36.3982 126.076 36.0897 127.701C35.7983 129.311 34.9238 130.757 33.6333 131.763C32.5339 132.6 31.1924 133.057 29.8108 133.065C29.6033 133.058 29.3966 133.038 29.1914 133.006C29.3163 132.698 29.3814 132.369 29.3834 132.037V129.09C29.3827 128.397 29.1069 127.732 28.6167 127.242C28.1265 126.752 27.4618 126.476 26.7685 126.475C26.7008 126.476 26.6374 126.491 26.5711 126.496C26.8657 125.859 27.2928 125.292 27.8238 124.834H27.8238Z"/><path id="Vector_3" d="M181.706 98.8231L181.705 98.8205C181.59 98.3979 181.371 98.0109 181.068 97.6943C180.704 97.3287 180.267 97.0444 179.785 96.8601C179.383 96.6959 179.021 96.5947 178.779 96.5128C178.629 96.463 178.472 96.4377 178.314 96.4378C178.032 96.4407 177.755 96.5147 177.508 96.6531C177.219 96.8194 176.955 97.025 176.723 97.2639C176.676 97.3096 176.628 97.3684 176.581 97.4167C176.698 96.9914 176.824 96.5177 176.975 95.9433C177.014 95.7955 177.034 95.6433 177.034 95.4905C177.032 95.1781 176.952 94.8712 176.8 94.5983C176.595 94.2449 176.31 93.9449 175.968 93.7229C175.525 93.4333 175.041 93.2133 174.532 93.0705C174.035 92.9203 173.52 92.8403 173.002 92.8327C172.724 92.8295 172.447 92.8642 172.179 92.9357C171.911 93.0086 171.661 93.1369 171.445 93.3123C171.265 93.2435 170.943 93.1244 170.547 92.998C170.254 92.9047 169.927 92.8095 169.592 92.7333C169.245 92.6485 168.889 92.6019 168.532 92.5942C168.35 92.5927 168.169 92.6123 167.991 92.6527C167.732 92.7108 167.49 92.8291 167.285 92.9979C167.099 93.1432 166.923 93.2996 166.756 93.4662C166.275 93.9875 165.875 94.578 165.57 95.218C165.062 96.243 164.615 97.2968 164.23 98.3739C164.2 98.1497 164.164 97.8915 164.125 97.6227C164.07 97.2408 164.01 96.842 163.95 96.495C163.92 96.3212 163.891 96.1606 163.861 96.015C163.832 95.8694 163.796 95.7256 163.751 95.5842C163.674 95.3572 163.544 95.1521 163.371 94.9862C163.188 94.8132 162.971 94.6802 162.734 94.5956C162.486 94.5069 162.227 94.4476 161.965 94.4189C161.707 94.3883 161.448 94.3735 161.188 94.3744C160.641 94.3713 160.095 94.4318 159.562 94.5547C159.281 94.6196 159.009 94.7204 158.754 94.8545C158.594 94.9403 158.446 95.0468 158.314 95.1713C158.131 95.3436 157.99 95.5552 157.9 95.7902C157.818 96.0291 157.767 96.2781 157.751 96.5305C157.731 96.7635 157.723 97.0142 157.723 97.2906C157.732 98.2428 157.801 99.1935 157.928 100.137C158.027 100.93 158.183 101.715 158.394 102.486C158.266 102.542 158.141 102.582 158.013 102.644C156.097 103.625 154.412 105.003 153.07 106.685C152.153 107.783 150.854 109.466 149.603 111.263C148.399 112.931 147.339 114.697 146.433 116.544C146.202 117.056 145.824 117.832 145.463 118.759C145.072 118.715 144.679 118.692 144.286 118.691C143.41 118.694 142.537 118.789 141.681 118.974C141.203 119.076 140.203 119.249 138.961 119.46C137.091 119.779 134.643 120.192 132.327 120.644C130.323 120.996 128.345 121.481 126.405 122.095C125.412 122.454 124.474 122.951 123.619 123.57C123.406 123.177 123.159 122.803 122.879 122.453C122.552 122.037 122.137 121.697 121.664 121.458C121.152 121.226 120.619 121.041 120.073 120.904C117.045 120.22 113.967 119.777 110.868 119.578C109.682 119.478 108.427 119.393 107.149 119.317V116.658C113.578 116.258 119.939 115.114 126.106 113.251C137.718 109.581 145.434 103.278 150.132 95.1678C151.743 92.3595 153.025 89.3755 153.955 86.2744C154.148 86.3725 154.364 86.419 154.581 86.4095C155.366 86.3447 156.145 86.2244 156.912 86.0495C158.414 85.7654 159.83 85.1367 161.047 84.2127C161.592 83.7155 162.048 83.1292 162.395 82.4789C163.093 81.1975 163.643 79.8412 164.035 78.436C164.557 76.6346 164.926 74.7923 165.138 72.9288C165.306 71.5094 165.391 70.0814 165.395 68.6522C165.406 67.2442 165.298 65.8378 165.07 64.4484C164.922 63.3813 164.579 62.3504 164.058 61.407C163.512 60.5678 162.792 59.8564 161.946 59.3215C161.932 59.3126 161.918 59.306 161.904 59.2972C162.64 58.4633 163.202 57.4906 163.556 56.4363C164.176 54.5765 164.561 52.6465 164.701 50.6911C165.636 40.7939 167.162 22.9434 167.494 17.8868C167.509 17.6544 167.517 17.4284 167.517 17.2088C167.529 16.4218 167.41 15.6384 167.166 14.8902C166.854 13.9329 166.239 13.1029 165.414 12.5256C164.683 12.0369 163.84 11.738 162.964 11.656C162.739 11.6311 162.513 11.6186 162.287 11.6185C161.037 11.5959 159.822 12.0329 158.873 12.8465C157.771 13.8908 157.114 15.3202 157.04 16.8369C156.631 21.0646 155.287 37.3825 154.418 48.0187C154.259 47.408 154.099 46.7977 153.919 46.1973C151.108 36.7693 145.691 28.62 136.573 22.9289C127.459 17.2326 114.745 13.983 97.3258 13.9822C85.7096 13.9827 76.194 15.4273 68.4333 18.0778C56.7931 22.0426 49.111 28.7861 44.4519 37.2394C42.5055 40.8224 41.0353 44.6443 40.0787 48.608C39.2121 37.9961 37.8254 21.1444 37.4093 16.8369C37.3349 15.3202 36.6781 13.8908 35.5757 12.8465C34.6265 12.0329 33.4118 11.596 32.1618 11.6185C31.9354 11.6186 31.7092 11.6311 31.4842 11.6561C30.2837 11.7548 29.1591 12.2827 28.3162 13.1431C27.8512 13.6452 27.4989 14.2409 27.2831 14.8903C27.0388 15.6384 26.9201 16.4219 26.9319 17.2088C26.9319 17.4283 26.9395 17.6545 26.9548 17.8876C27.2866 22.9434 28.8133 40.7939 29.7478 50.691C29.8801 53.1483 30.4556 55.5613 31.4466 57.8137C31.7932 58.5379 32.26 59.1982 32.8271 59.7666C32.2358 60.2223 31.7282 60.7773 31.3271 61.4069C30.8068 62.3504 30.4638 63.3812 30.3153 64.4483C30.0877 65.8378 29.9791 67.2442 29.9907 68.6522C29.9939 70.0816 30.0796 71.5096 30.2474 72.929C30.511 75.3288 31.0497 77.6903 31.8529 79.967C32.1615 80.8344 32.5419 81.6746 32.99 82.4789C33.3376 83.1293 33.7935 83.7156 34.338 84.2128C35.5557 85.1367 36.9712 85.7655 38.4732 86.0495C39.2168 86.2181 39.971 86.3364 40.7305 86.4037C40.7426 86.4428 40.7522 86.4833 40.7643 86.5224C43.48 95.905 49.7304 103.868 58.1996 108.734C65.8016 113.177 75.885 115.963 89.0643 116.772V119.334C87.3221 119.442 85.6507 119.573 84.1001 119.724C82.0078 119.929 80.1348 120.171 78.584 120.451C77.8081 120.591 77.1127 120.741 76.5028 120.904C75.9569 121.041 75.4243 121.226 74.9113 121.458C74.4389 121.697 74.0243 122.037 73.6964 122.453C73.1237 123.196 72.6582 124.016 72.3135 124.889C71.6501 124.733 70.9708 124.654 70.2891 124.654C67.9732 124.754 65.7022 125.326 63.6149 126.335C63.1007 126.565 62.1086 127.048 60.8045 127.733C58.853 128.758 56.2308 130.222 53.665 131.884C51.188 133.412 48.8957 135.222 46.8337 137.276C45.6054 138.549 44.6264 140.042 43.9473 141.676C43.8257 141.98 43.7285 142.278 43.6397 142.574C42.3626 142.927 41.124 143.406 39.9422 144.005C37.7002 145.134 35.699 146.688 34.0496 148.58C33.4195 149.318 32.8712 150.121 32.4143 150.977C32.39 150.971 32.3718 150.954 32.347 150.949V150.949C31.4611 150.78 30.5625 150.685 29.6607 150.665C29.2917 150.66 28.9233 150.693 28.5609 150.762C28.3574 150.803 28.159 150.866 27.9693 150.951C27.7242 151.059 27.5039 151.217 27.322 151.413C27.1027 151.656 26.8474 151.98 26.5431 152.383C26.3266 152.671 26.0903 152.996 25.8518 153.332C25.6416 153.293 25.425 153.308 25.2221 153.376C24.9516 153.478 24.6937 153.611 24.4532 153.772C23.9319 154.107 23.502 154.566 23.2022 155.109C22.9632 155.553 22.3743 156.717 21.8043 157.88C21.5203 158.46 21.244 159.034 21.0226 159.512C20.9119 159.751 20.815 159.966 20.7355 160.151C20.6616 160.317 20.5966 160.487 20.5406 160.66C20.4744 160.875 20.4577 161.103 20.4918 161.326C20.5258 161.549 20.6098 161.762 20.7373 161.948C20.929 162.222 21.1928 162.437 21.4995 162.569C21.811 162.704 22.1399 162.795 22.4766 162.839C22.8051 162.887 23.1366 162.91 23.4686 162.909C23.8223 162.911 24.1756 162.883 24.5248 162.826C24.8537 162.776 25.1723 162.672 25.4683 162.52C25.7816 163.55 26.3054 164.503 27.0066 165.319C27.5417 165.913 28.1947 166.39 28.9241 166.719C29.7749 167.073 30.671 167.307 31.5865 167.413C31.9482 167.469 32.2552 167.52 32.4729 167.578C32.6012 167.604 32.7243 167.651 32.8371 167.718C33.4382 168.106 34.1059 168.38 34.8064 168.525C35.9325 168.781 37.0762 168.952 38.2279 169.037C39.3407 169.13 40.3155 169.163 40.8636 169.163C40.9741 169.163 41.0676 169.162 41.153 169.159L41.286 169.151C41.359 169.145 41.4314 169.133 41.503 169.118L41.5032 169.119C41.5297 169.114 41.657 169.092 41.8214 169.066C42.409 168.972 43.5759 168.796 44.6273 168.631C45.1539 168.548 45.652 168.468 46.0441 168.4C46.2407 168.366 46.4099 168.335 46.5513 168.307L46.7509 168.264C46.8416 168.243 46.9305 168.216 47.017 168.182C47.4946 167.987 47.9515 167.744 48.3809 167.457C48.7094 167.241 49.0064 166.981 49.2635 166.683C49.4188 166.5 49.5481 166.296 49.6477 166.077C49.7693 165.81 49.8328 165.519 49.8342 165.225C49.8281 164.81 49.7264 164.402 49.5371 164.032C50.5289 163.386 51.4309 162.612 52.2196 161.729C53.6925 160.051 54.974 158.215 56.0404 156.254C56.2394 155.88 56.4255 155.498 56.6043 155.113C57.46 154.922 58.2919 154.637 59.0847 154.262C62.2914 152.496 65.2228 150.27 67.7861 147.656C66.8884 156.033 66.4278 164.452 66.406 172.877C66.3623 178.345 66.6519 183.811 67.2733 189.245C67.2943 189.414 67.3485 189.578 67.433 189.727C67.5174 189.876 67.6303 190.006 67.7653 190.111C67.9003 190.217 68.0547 190.294 68.2197 190.339C68.3846 190.384 68.5569 190.397 68.7266 190.375C68.8962 190.354 69.06 190.299 69.2085 190.214C69.357 190.129 69.4874 190.016 69.592 189.881C69.6966 189.745 69.7735 189.591 69.8183 189.426C69.863 189.261 69.8748 189.088 69.8528 188.919V188.919C69.5916 186.854 69.3976 184.591 69.2594 182.2C69.153 180.358 69.0813 178.437 69.0429 176.459C72.9789 177.592 77.0151 178.342 81.0954 178.698C86.3797 179.213 91.6868 179.46 96.9961 179.438C103.844 179.455 110.687 179.091 117.494 178.347C120.009 178.053 122.216 177.71 124.063 177.326C124.131 177.319 124.196 177.316 124.263 177.309L124.293 177.306L124.293 177.306C124.31 177.304 124.326 177.304 124.343 177.302C124.448 177.282 124.549 177.249 124.645 177.204C124.729 177.186 124.826 177.168 124.909 177.149C125.787 176.956 126.654 176.71 127.502 176.411C127.514 176.407 127.523 176.402 127.534 176.398C127.454 180.623 127.223 184.591 126.822 188.067C126.789 188.351 126.759 188.642 126.724 188.918C126.68 189.26 126.775 189.606 126.986 189.878C127.197 190.151 127.508 190.328 127.85 190.371C128.192 190.415 128.537 190.32 128.81 190.109C129.082 189.898 129.26 189.587 129.303 189.245L129.303 189.245C129.924 183.812 130.214 178.346 130.17 172.878C130.149 162.514 129.453 152.162 128.087 141.888C128.228 141.885 128.366 141.884 128.51 141.878C135.301 141.543 142.04 140.523 148.626 138.833C149.611 138.572 150.535 138.12 151.345 137.502C152.155 136.883 152.835 136.112 153.347 135.23C153.873 134.318 154.249 133.327 154.46 132.295C155.823 132.25 157.169 131.984 158.446 131.506C162.287 130.075 168.498 126.311 173.866 118.258C174.723 116.979 175.176 115.472 175.168 113.932C175.163 113.523 175.131 113.115 175.071 112.71C175.521 112.65 175.963 112.536 176.387 112.372C177.486 111.949 178.382 111.123 178.893 110.062C179.329 109.104 179.543 108.059 179.517 107.006C179.509 106.168 179.42 105.333 179.251 104.512C179.508 104.119 179.893 103.52 180.286 102.857C180.623 102.286 180.964 101.677 181.237 101.099C181.37 100.821 181.487 100.536 181.588 100.244C181.698 99.9398 181.759 99.6194 181.767 99.2955C181.768 99.136 181.747 98.9772 181.706 98.8231ZM162.509 64.8981C162.71 66.1391 162.806 67.395 162.795 68.6522C162.791 69.9809 162.712 71.3083 162.556 72.6278C162.315 74.8256 161.824 76.9885 161.09 79.0743C160.832 79.8041 160.513 80.5112 160.138 81.1885C159.937 81.5742 159.676 81.9256 159.366 82.2298C158.464 82.876 157.431 83.3143 156.339 83.5134C155.797 83.6359 155.303 83.7128 154.95 83.7579C154.829 83.7734 154.733 83.784 154.649 83.7927C155.985 78.131 156.624 72.3271 156.551 66.5103C156.551 64.2533 156.469 62.0306 156.305 59.8423C157.123 60.0186 157.924 60.2615 158.702 60.5686C159.355 60.8212 159.979 61.1422 160.565 61.5261C161.074 61.8487 161.511 62.2739 161.847 62.7748C162.188 63.4393 162.412 64.1576 162.509 64.898V64.8981ZM156.681 52.2605C157.49 42.3298 159.168 21.8457 159.628 17.0869C159.64 16.2274 159.986 15.4063 160.592 14.7969C161.067 14.4021 161.67 14.1961 162.287 14.2185C162.418 14.2186 162.549 14.2259 162.679 14.2404C163.264 14.2722 163.817 14.5146 164.237 14.9227C164.45 15.156 164.61 15.4325 164.706 15.7333C164.857 16.2103 164.928 16.7088 164.917 17.2088C164.917 17.3685 164.911 17.5379 164.9 17.717C164.573 22.6992 163.044 40.583 162.113 50.4466C162.016 52.5468 161.533 54.611 160.686 56.5353C160.472 56.9717 160.186 57.369 159.84 57.7104C159.702 57.8395 159.552 57.9539 159.391 58.0518C159.048 57.9228 158.716 57.8062 158.413 57.7112C157.822 57.5243 157.222 57.3712 156.614 57.2526C156.501 57.2397 156.387 57.2421 156.275 57.2599C156.338 56.4714 156.483 54.6867 156.681 52.2605ZM32.3363 50.4465C31.4046 40.583 29.8757 22.6992 29.5493 17.7167C29.5375 17.5378 29.532 17.369 29.532 17.2088C29.5207 16.7088 29.5919 16.2103 29.7426 15.7334C29.8726 15.3016 30.1432 14.9256 30.5114 14.6654C30.8893 14.422 31.3215 14.276 31.7695 14.2404C31.8998 14.2259 32.0308 14.2186 32.1619 14.2185C32.7787 14.1961 33.3821 14.4021 33.8565 14.797C34.4629 15.4062 34.809 16.2274 34.8215 17.0869C35.1277 20.2552 35.9765 30.4255 36.7469 39.7852C37.1322 44.4666 37.4983 48.9487 37.7681 52.2605C37.9767 54.8224 38.1263 56.6666 38.1841 57.3792C37.3973 57.5659 36.6238 57.8051 35.869 58.0952C35.6721 58.1715 35.4634 58.2731 35.2597 58.3618C34.5898 57.9699 34.0672 57.3688 33.7721 56.651C32.9288 54.6845 32.4426 52.5835 32.3363 50.4465ZM38.8404 83.4653C37.8221 83.2617 36.8598 82.8402 36.0197 82.2298C35.7088 81.9256 35.448 81.5741 35.2471 81.1884C34.6506 80.0821 34.1799 78.9124 33.844 77.7013C33.3639 76.0416 33.0247 74.3445 32.83 72.6278C32.6738 71.3083 32.5939 69.9809 32.5908 68.6522C32.5794 67.395 32.6748 66.1391 32.8762 64.898C32.9735 64.1575 33.1975 63.4393 33.5383 62.7747C33.8877 62.2562 34.3434 61.8181 34.8752 61.4895C35.769 60.9293 36.7348 60.4934 37.746 60.1936C37.9559 60.1282 38.1499 60.0731 38.3269 60.0252C38.1753 62.1544 38.0997 64.3161 38.1 66.5102C38.0302 72.2928 38.6629 78.0625 39.9842 83.6925C39.6492 83.6394 39.2567 83.5664 38.8404 83.4653ZM69.3316 110.773C58.2073 107.234 51.154 101.396 46.7671 93.8621C42.386 86.3247 40.6983 76.9869 40.7 66.5103C40.5922 59.9002 41.4419 53.3093 43.2226 46.9426C45.9134 37.9841 50.9069 30.4896 59.4565 25.1334C68.0093 19.7824 80.2185 16.5814 97.3258 16.5822C108.727 16.5817 117.961 18.004 125.378 20.5382C136.503 24.3502 143.547 30.598 147.924 38.4968C152.293 46.398 153.953 56.0325 153.951 66.5103C154.071 73.0147 153.213 79.5002 151.404 85.7493C148.885 94.5144 143.051 101.954 135.139 106.49C126.58 111.499 114.37 114.425 97.3258 114.423C85.9656 114.424 76.7456 113.125 69.3316 110.773ZM28.1778 154.548C28.4088 154.228 28.6304 153.93 28.8192 153.686C28.942 153.527 29.043 153.403 29.1275 153.302C29.3039 153.274 29.4822 153.262 29.6606 153.265C29.9852 153.269 30.3094 153.29 30.6319 153.328C30.4771 153.53 30.3293 153.73 30.203 153.922C30.0608 154.135 29.9345 154.358 29.8251 154.589C29.7262 154.798 29.6589 155.02 29.6252 155.248C29.369 155.509 29.0616 155.815 28.7432 156.114C28.4347 156.405 28.1172 156.689 27.8467 156.906C27.6897 157.038 27.5218 157.157 27.3449 157.261L27.2887 157.265C27.0223 157.248 26.7638 157.167 26.535 157.03C26.6191 156.881 26.724 156.704 26.8424 156.516C27.2132 155.923 27.7157 155.188 28.1778 154.548ZM24.984 159.447C24.817 159.647 24.6427 159.845 24.4932 159.997L24.2982 160.184L24.2428 160.228C24.1621 160.251 24.0796 160.268 23.9961 160.277C23.8389 160.296 23.6808 160.305 23.5225 160.306C23.769 159.783 24.0674 159.167 24.3666 158.562C24.594 158.825 24.8615 159.051 25.1592 159.231C25.1017 159.303 25.0442 159.374 24.984 159.447ZM47.1267 165.153C46.8138 165.391 46.4723 165.589 46.11 165.743C46.0593 165.754 45.9608 165.774 45.8226 165.799C45.2139 165.91 44.0554 166.09 43.0375 166.247C42.5273 166.326 42.0498 166.399 41.6839 166.456C41.5007 166.484 41.3458 166.509 41.2252 166.529L41.0672 166.556L41.0432 166.561C41.0082 166.562 40.9495 166.563 40.8636 166.563C39.7044 166.549 38.5468 166.475 37.3955 166.339C36.7344 166.265 36.0781 166.152 35.4303 166.001C35.054 165.927 34.6916 165.794 34.3563 165.608C34.023 165.376 33.6521 165.203 33.2599 165.098C32.6822 164.956 32.0973 164.846 31.5078 164.767C30.7371 164.686 29.9993 164.412 29.362 163.971C29.0091 163.694 28.7121 163.352 28.487 162.964C28.1417 162.361 27.8876 161.711 27.7329 161.035C27.6819 160.844 27.587 160.667 27.4557 160.519C27.719 160.178 27.8952 159.93 27.9046 159.918C27.9293 159.871 27.951 159.823 27.9695 159.773C28.1051 159.745 28.238 159.705 28.3666 159.654C28.8224 159.43 29.2461 159.146 29.6266 158.809C30.1672 158.359 30.712 157.834 31.1728 157.376C31.4523 157.506 31.7415 157.615 32.0378 157.701C32.4973 157.834 32.9726 157.905 33.4511 157.912C33.8829 157.923 34.311 157.83 34.6989 157.64C35.5448 157.21 36.3336 156.676 37.047 156.05C37.2991 155.815 37.4476 155.489 37.4598 155.145C37.4719 154.8 37.3467 154.465 37.1117 154.213C36.8767 153.961 36.5512 153.812 36.2068 153.8C35.8623 153.788 35.5271 153.913 35.275 154.148L35.2744 154.148C34.7454 154.598 34.1668 154.986 33.5498 155.305L33.4511 155.312C33.1363 155.297 32.8255 155.235 32.529 155.129C32.5408 155.112 32.5502 155.097 32.5626 155.081C32.9941 154.503 33.4699 153.96 33.9857 153.457C34.4455 152.993 34.9499 152.576 35.4916 152.211L35.5537 152.206C36.3646 152.288 37.1264 152.633 37.7221 153.189C39.131 154.474 40.1762 156.109 40.7526 157.927C41.0559 158.745 41.3161 159.526 41.4992 160.098C41.5908 160.384 41.6632 160.618 41.7123 160.78C41.7614 160.942 41.7861 161.026 41.7862 161.027C41.8628 161.285 42.0184 161.512 42.231 161.677C42.4436 161.842 42.7025 161.936 42.9714 161.947C42.4229 162.112 42.0548 162.266 42.0219 162.28C41.7058 162.416 41.4566 162.672 41.329 162.992C41.2013 163.311 41.2055 163.669 41.3408 163.985C41.4761 164.301 41.7314 164.551 42.0506 164.68C42.3699 164.808 42.7271 164.805 43.0438 164.671L43.044 164.671L43.0464 164.67H43.0466C43.3103 164.564 43.5797 164.472 43.8535 164.396C44.3663 164.243 44.8969 164.159 45.4317 164.144C45.7099 164.134 45.9872 164.181 46.2461 164.283C46.5141 164.423 46.7556 164.608 46.9597 164.831C47.0398 164.917 47.1105 165.011 47.1704 165.112C47.1545 165.126 47.1457 165.137 47.1267 165.153ZM35.2715 154.15V154.15L35.2716 154.15H35.2715ZM53.7476 155.029C52.7747 156.814 51.607 158.486 50.2658 160.013C49.526 160.849 48.66 161.563 47.6992 162.13C47.1574 161.778 46.5293 161.582 45.8836 161.562C46.3382 159.948 46.1399 158.22 45.3314 156.751C44.523 155.282 43.1692 154.189 41.5624 153.71C40.9681 152.76 40.2309 151.908 39.3768 151.183C38.5588 150.483 37.588 149.984 36.5423 149.727C37.8701 148.344 39.4194 147.193 41.1263 146.32C43.425 145.14 45.9649 144.506 48.5485 144.468C49.8199 144.444 51.0839 144.666 52.2716 145.12C53.2549 145.492 54.1032 146.152 54.7059 147.014C55.1976 147.77 55.4469 148.659 55.4205 149.561C55.3016 151.49 54.7284 153.363 53.7476 155.029H53.7476ZM66.3654 145.418C63.8934 147.983 61.0601 150.174 57.9553 151.92C57.8781 151.958 57.7887 151.985 57.7089 152.021C57.897 151.248 57.9998 150.458 58.0156 149.664C58.6855 148.537 58.9522 147.217 58.7716 145.919C58.5911 144.621 57.9741 143.423 57.0222 142.522C56.0703 141.621 54.8402 141.071 53.5342 140.963C52.2282 140.854 50.9242 141.193 49.8366 141.925C49.412 141.888 48.9824 141.868 48.5485 141.868C47.9184 141.872 47.2889 141.91 46.663 141.982C47.2049 140.908 47.9031 139.919 48.7348 139.049C51.3875 136.513 54.3507 134.323 57.5536 132.531C59.1867 131.557 60.7485 130.699 62.0136 130.034C63.2756 129.371 64.2546 128.896 64.6754 128.708C66.4307 127.854 68.3395 127.359 70.2891 127.254C70.6676 127.252 71.0455 127.284 71.4185 127.348C71.351 127.564 71.2839 127.782 71.2176 128.007C71.2072 128.009 71.1969 128.008 71.1865 128.01C69.6891 128.331 68.3711 129.213 67.5021 130.474C66.7015 131.631 66.2723 133.004 66.2716 134.411C66.2613 135.428 66.5104 136.431 66.9955 137.326C67.4386 138.116 68.0914 138.769 68.882 139.212C68.6701 140.585 68.4696 142.007 68.2804 143.478C67.6676 144.121 67.0268 144.773 66.3654 145.418V145.418ZM126.611 173.969C125.674 174.289 124.718 174.546 123.747 174.739C123.429 174.763 123.123 174.783 122.807 174.807C122.631 174.813 122.453 174.822 122.28 174.822C120.516 174.802 118.765 174.518 117.085 173.977C114.54 173.207 111.956 171.995 108.932 170.951C105.48 169.708 101.841 169.067 98.1729 169.055C93.4831 169.128 88.8554 170.139 84.5626 172.029C82.7204 172.757 81.0209 173.464 79.3545 173.979C77.7272 174.515 76.0275 174.799 74.3143 174.821C73.7095 174.821 73.1054 174.782 72.5058 174.703C71.3295 174.437 70.1679 174.11 69.0257 173.723L69.0109 173.721C69.0097 173.439 69.0061 173.161 69.0061 172.877C69.024 162.042 69.795 151.222 71.3136 140.494C71.857 136.485 72.6701 132.517 73.7473 128.617C74.0881 127.394 74.5392 126.205 75.0951 125.064C75.2629 124.727 75.465 124.408 75.6982 124.112C75.7881 123.99 75.9004 123.886 76.0292 123.806C76.3992 123.643 76.7824 123.512 77.1747 123.415C80.0554 122.774 82.9815 122.357 85.9266 122.169C85.9706 122.165 86.0191 122.162 86.0632 122.159C89.3604 124.979 93.563 126.518 97.902 126.494C100.35 126.486 102.777 126.045 105.072 125.194C106.886 124.559 108.569 123.599 110.037 122.359C110.108 122.292 110.171 122.217 110.224 122.135C110.908 122.191 111.58 122.249 112.223 122.312C114.266 122.512 116.081 122.748 117.53 123.01C118.254 123.14 118.886 123.277 119.401 123.415C119.794 123.512 120.177 123.643 120.547 123.805C120.675 123.886 120.788 123.99 120.878 124.112C121.383 124.804 121.784 125.566 122.067 126.374C123.004 128.976 123.722 131.651 124.213 134.372C126.209 144.392 127.572 159.525 127.57 172.878C127.57 173.098 127.567 173.313 127.567 173.532C127.263 173.709 126.943 173.856 126.611 173.969V173.969ZM151.11 133.906C150.77 134.5 150.315 135.02 149.771 135.435C149.227 135.851 148.605 136.153 147.942 136.325C141.541 137.963 134.992 138.953 128.393 139.28C128.182 139.29 127.978 139.295 127.78 139.295C127.755 139.295 127.733 139.292 127.708 139.292C127.601 138.597 127.491 137.916 127.379 137.248C128.097 136.696 128.68 135.987 129.082 135.176C129.514 134.281 129.736 133.3 129.731 132.307C129.739 130.855 129.28 129.44 128.42 128.27C127.984 127.685 127.433 127.195 126.8 126.831C126.179 126.481 125.489 126.272 124.778 126.218C124.756 126.157 124.734 126.095 124.712 126.034C125.478 125.392 126.349 124.887 127.287 124.541C128.386 124.178 129.505 123.88 130.638 123.648C132.717 123.19 135.204 122.743 137.366 122.37C139.537 121.995 141.354 121.701 142.221 121.518C142.899 121.37 143.591 121.294 144.286 121.291C144.429 121.291 144.563 121.303 144.701 121.31C144.559 122.011 144.486 122.724 144.482 123.44C144.482 123.712 144.508 123.993 144.532 124.274C143.728 125.272 143.277 126.508 143.251 127.79C143.225 129.071 143.625 130.325 144.388 131.355C145.151 132.385 146.234 133.133 147.468 133.481C148.701 133.829 150.015 133.759 151.204 133.28L150.72 132.074L151.204 133.28C151.302 133.241 151.388 133.186 151.482 133.143C151.375 133.405 151.251 133.66 151.11 133.906V133.906ZM171.702 116.817C166.653 124.399 160.865 127.833 157.539 129.069C156.433 129.488 155.261 129.706 154.078 129.712C152.758 129.722 151.454 129.418 150.274 128.825C149.355 128.382 148.574 127.696 148.017 126.84C147.396 125.815 147.073 124.638 147.082 123.44C147.104 122.323 147.315 121.218 147.706 120.172C148.061 119.166 148.491 118.301 148.802 117.614C149.644 115.914 150.626 114.287 151.736 112.749C152.939 111.021 154.21 109.375 155.065 108.354C156.171 106.953 157.563 105.804 159.148 104.983C159.26 104.929 159.366 104.895 159.476 104.847C159.64 105.096 159.818 105.336 160.009 105.565C160.496 106.149 161.057 106.714 161.782 107.47C161.764 107.654 161.741 107.838 161.741 108.024C161.741 108.973 161.974 109.907 162.419 110.745C162.863 111.583 163.507 112.299 164.293 112.83C165.079 113.361 165.984 113.691 166.927 113.791C167.87 113.892 168.824 113.759 169.704 113.405L169.22 112.199L169.704 113.405C170.327 113.151 170.901 112.79 171.4 112.338C171.715 112.436 172.061 112.521 172.422 112.594C172.519 113.034 172.568 113.482 172.568 113.932C172.578 114.959 172.276 115.965 171.702 116.817V116.817ZM178.757 100.253C178.409 100.945 177.912 101.775 177.507 102.417C177.304 102.739 177.124 103.016 176.995 103.211C176.931 103.308 176.88 103.386 176.845 103.438L176.793 103.515C176.692 103.663 176.623 103.831 176.59 104.007C176.557 104.183 176.561 104.364 176.601 104.539C176.797 105.347 176.903 106.175 176.917 107.006C176.941 107.663 176.818 108.317 176.557 108.92C176.446 109.158 176.29 109.372 176.097 109.549C175.904 109.726 175.678 109.864 175.431 109.954C175.012 110.111 174.567 110.188 174.119 110.181C173.262 110.156 172.415 109.982 171.618 109.667C171.267 109.535 170.975 109.403 170.776 109.306C170.677 109.257 170.601 109.218 170.553 109.192L170.501 109.164L170.492 109.159L170.492 109.159C170.299 109.05 170.083 108.991 169.862 108.988L169.832 108.987C169.188 108.96 168.552 108.842 167.941 108.637C166.523 108.179 165.245 107.364 164.231 106.272C163.179 105.155 162.469 104.461 162.009 103.904C161.564 103.384 161.224 102.783 161.006 102.135C160.763 101.373 160.596 100.59 160.506 99.7961C160.394 98.9654 160.332 98.1287 160.323 97.2905C160.323 97.2023 160.324 97.1248 160.327 97.0495C160.359 97.0434 160.389 97.0369 160.424 97.0319C160.677 96.9934 160.932 96.9742 161.188 96.9744C161.262 96.974 161.326 96.9796 161.395 96.983C161.405 97.0435 161.415 97.0954 161.425 97.1599C161.501 97.6292 161.582 98.1959 161.643 98.6412C161.703 99.0869 161.744 99.4092 161.745 99.41C161.77 99.6058 161.839 99.7933 161.947 99.9584C162.055 100.123 162.199 100.262 162.369 100.363C162.369 100.363 162.425 100.396 162.531 100.461C162.902 100.685 163.854 101.269 164.796 101.902C165.266 102.218 165.734 102.547 166.116 102.84C166.388 103.038 166.642 103.26 166.875 103.502C166.985 103.633 167.12 103.741 167.272 103.819C167.424 103.898 167.59 103.946 167.76 103.96C167.93 103.974 168.102 103.955 168.265 103.903C168.427 103.851 168.578 103.768 168.709 103.657C168.839 103.547 168.947 103.412 169.025 103.26C169.103 103.108 169.151 102.942 169.165 102.771C169.179 102.601 169.159 102.43 169.107 102.267C169.055 102.104 168.971 101.953 168.86 101.823L168.86 101.823C168.451 101.379 167.997 100.979 167.504 100.631C167.171 100.381 166.808 100.128 166.445 99.8804C166.898 98.4786 167.486 97.1244 168.202 95.8369C168.319 95.6377 168.457 95.4521 168.615 95.2834C168.643 95.2552 168.67 95.2328 168.696 95.2091C168.784 95.2213 168.897 95.2407 169.017 95.269C169.385 95.3571 169.748 95.4645 170.104 95.5905L170.131 95.6L170.115 95.6354C169.397 97.2907 168.621 99.3623 168.617 99.3726C168.496 99.6954 168.508 100.053 168.651 100.367C168.794 100.681 169.055 100.925 169.378 101.046C169.701 101.167 170.059 101.155 170.373 101.013C170.686 100.87 170.931 100.608 171.052 100.286C171.052 100.285 171.162 99.9924 171.338 99.5371C171.601 98.8548 172.011 97.8126 172.403 96.8957C172.598 96.438 172.79 96.0105 172.948 95.6875C172.995 95.5926 173.037 95.511 173.076 95.4378C173.475 95.4657 173.866 95.5624 174.232 95.7239C174.271 95.7412 174.296 95.758 174.33 95.7757C174.138 96.5033 173.986 97.0622 173.845 97.5325C173.673 98.1062 173.515 98.5655 173.291 99.1381C173.256 99.2255 173.232 99.3164 173.217 99.4091L172.667 102.875C172.621 103.169 172.676 103.47 172.824 103.728C172.973 103.985 173.205 104.184 173.482 104.292C173.759 104.399 174.065 104.408 174.348 104.317C174.631 104.226 174.875 104.041 175.038 103.793C175.038 103.792 175.089 103.715 175.185 103.572C175.518 103.073 176.375 101.808 177.22 100.697C177.64 100.143 178.061 99.6242 178.383 99.2845C178.429 99.2353 178.466 99.1998 178.507 99.1591C178.674 99.2115 178.836 99.277 178.992 99.3548C179.035 99.3773 179.077 99.4029 179.118 99.4312C179.016 99.7127 178.895 99.9872 178.757 100.253V100.253Z"/><path id="Vector_4" d="M122.196 105.104C132.165 102.35 138.728 97.6511 142.713 91.6736C146.701 85.6995 148.084 78.5705 148.083 71.0455C148.176 66.1916 147.439 61.3577 145.904 56.7519C144.726 53.3695 142.913 50.2435 140.561 47.542C136.924 43.3849 131.755 40.0213 124.695 37.717C117.631 35.4105 108.668 34.1428 97.325 34.1418C87.2418 34.1424 79.04 35.1448 72.3802 36.9868C62.398 39.7405 55.8514 44.4409 51.8884 50.4201C47.9223 56.3958 46.5659 63.5233 46.566 71.0454C46.475 75.9024 47.221 80.7387 48.7715 85.3424C49.9615 88.7258 51.786 91.8512 54.1472 94.5509C57.7988 98.7066 62.9771 102.069 70.0312 104.374C77.0888 106.68 86.0306 107.948 97.325 107.949C107.365 107.948 115.545 106.946 122.196 105.104ZM57.1913 50.4575C58.0386 49.3984 58.9692 48.4086 59.974 47.4977C60.2295 47.2675 60.5658 47.1479 60.9092 47.1651C61.2527 47.1822 61.5754 47.3348 61.8066 47.5894C62.0378 47.844 62.1587 48.1798 62.1429 48.5234C62.127 48.8669 61.9757 49.1902 61.722 49.4224C60.8194 50.2406 59.9835 51.1295 59.2224 52.0807H59.2224C59.1158 52.2141 58.984 52.3251 58.8345 52.4075C58.685 52.49 58.5207 52.5421 58.3511 52.5611C58.1814 52.58 58.0097 52.5653 57.8457 52.5179C57.6817 52.4705 57.5286 52.3912 57.3953 52.2846C57.2619 52.178 57.1508 52.0462 57.0684 51.8967C56.986 51.7472 56.9338 51.5829 56.9149 51.4133C56.896 51.2436 56.9106 51.0719 56.9581 50.9079C57.0055 50.7439 57.0848 50.5908 57.1914 50.4575H57.1913ZM67.5857 45.4134C67.2794 45.5696 66.9238 45.5981 66.5965 45.4926C66.2693 45.3872 65.9971 45.1565 65.8396 44.8509C65.6821 44.5453 65.652 44.1898 65.756 43.8621C65.86 43.5344 66.0895 43.2613 66.3944 43.1024C70.7707 40.9441 75.4469 39.4569 80.266 38.6911C80.6045 38.6334 80.9521 38.7121 81.2328 38.9099C81.5136 39.1076 81.7047 39.4084 81.7644 39.7466C81.8241 40.0848 81.7475 40.4328 81.5515 40.7148C81.3554 40.9967 81.0558 41.1897 80.718 41.2514C76.1566 41.9723 71.7296 43.3753 67.5857 45.4133L67.5857 45.4134ZM134.885 94.3475C134.625 94.5887 134.358 94.827 134.084 95.0622C132.813 96.1477 131.451 97.1221 130.014 97.9746C129.701 98.1616 129.383 98.3444 129.059 98.5231C128.757 98.6897 128.401 98.7295 128.07 98.6338C127.738 98.5381 127.459 98.3148 127.292 98.0129C127.126 97.711 127.086 97.3553 127.181 97.024C127.277 96.6927 127.501 96.4131 127.802 96.2465C128.102 96.0815 128.394 95.9135 128.681 95.7424C129.991 94.9658 131.233 94.078 132.391 93.0889C132.638 92.8769 132.88 92.6614 133.115 92.4426L133.115 92.4427C133.24 92.3262 133.387 92.2354 133.547 92.1757C133.707 92.1159 133.877 92.0883 134.048 92.0945C134.219 92.1006 134.387 92.1404 134.542 92.2115C134.698 92.2826 134.837 92.3836 134.954 92.5088C135.07 92.634 135.161 92.7809 135.22 92.9412C135.28 93.1014 135.307 93.2717 135.3 93.4425C135.294 93.6133 135.254 93.7811 135.183 93.9364C135.111 94.0917 135.01 94.2314 134.885 94.3475H134.885Z"/><path id="Vector_5" d="M20.5391 160.664L20.5401 160.66V160.658L20.5391 160.664Z"/><path id="Vector_6" d="M37.2094 85.6964C36.2764 85.4125 35.3976 84.9743 34.6094 84.4V108.166L37.2094 108.237V85.6964Z"/><path id="Vector_7" d="M165.959 127.058C165.125 127.736 164.257 128.371 163.359 128.962V140.567H165.959V127.058Z"/><path id="Vector_8" d="M173.959 158.687C173.439 157.954 172.785 157.326 172.031 156.836C171.693 156.607 171.299 156.471 170.891 156.443C170.447 156.458 170.013 156.578 169.625 156.793C169.324 156.943 169.022 157.132 168.71 157.323C168.719 157.323 168.731 157.325 168.74 157.325L168.895 157.318L168.895 157.321C169.236 157.276 169.58 157.368 169.853 157.576C170.126 157.785 170.305 158.093 170.351 158.433C170.398 158.773 170.307 159.118 170.1 159.392C169.893 159.666 169.586 159.846 169.246 159.894C169.078 159.916 168.909 159.926 168.74 159.925C168.212 159.928 167.688 159.833 167.196 159.643C166.451 159.355 165.838 158.801 165.478 158.088C165.201 157.51 165.062 156.875 165.072 156.234L165.07 156.212L165.069 156.202V143.167H164.148V156.202C164.011 158.854 164.798 161.471 166.375 163.607C166.829 164.222 167.402 164.739 168.06 165.127C168.717 165.516 169.446 165.769 170.203 165.872C170.311 165.878 170.416 165.882 170.519 165.882C171.284 165.878 172.039 165.701 172.726 165.365L172.735 165.361C172.36 164.916 172.154 164.354 172.15 163.773V161.079C172.152 160.538 172.329 160.013 172.655 159.581C172.981 159.15 173.439 158.836 173.959 158.687Z"/><path id="Vector_9" d="M29.3827 129.09V132.037C29.3807 132.369 29.3156 132.698 29.1907 133.006C29.3959 133.038 29.6026 133.058 29.8101 133.065C31.1917 133.057 32.5332 132.6 33.6326 131.763C34.9231 130.757 35.7976 129.311 36.089 127.701C36.3975 126.076 36.5407 124.423 36.5166 122.768C36.5168 121.772 36.4833 120.893 36.483 120.179V110.818L35.2114 110.784V120.705C35.2112 121.182 35.2244 121.673 35.2245 122.157C35.2287 122.56 35.2115 122.964 35.1731 123.366C35.1374 123.787 35.0348 124.199 34.8693 124.587C34.7305 124.902 34.523 125.181 34.2621 125.405C33.8676 125.73 33.3704 125.905 32.8591 125.898C32.3896 125.898 31.9306 125.76 31.5392 125.5C31.2557 125.307 31.0018 125.073 30.7855 124.806C30.5747 124.506 30.3284 124.233 30.0519 123.993C29.9494 123.924 29.8264 123.89 29.7028 123.899C29.438 123.919 29.1795 123.991 28.9417 124.109C28.5363 124.296 28.1597 124.54 27.8231 124.834C27.292 125.292 26.865 125.859 26.5703 126.496C26.6367 126.49 26.7001 126.476 26.7678 126.475C27.4611 126.476 28.1257 126.752 28.616 127.242C29.1062 127.732 29.382 128.397 29.3827 129.09Z"/><path id="Vector_10" d="M76.9919 77.4301C78.2207 78.2589 79.6715 78.6965 81.1536 78.6853C81.2874 78.6853 81.4229 78.682 81.5601 78.6755C83.0269 78.6143 84.4446 78.1297 85.6419 77.2802C87.3598 75.9673 88.6366 74.162 89.3022 72.105C90.0604 69.9049 90.4359 67.5912 90.4124 65.2643C90.4633 61.9827 89.7332 58.736 88.2823 55.7922C87.6176 54.4804 86.6747 53.3294 85.5194 52.4194C84.3582 51.5253 82.9343 51.0395 81.4687 51.0376C81.3189 51.0376 81.1685 51.0425 81.0174 51.0524C79.5341 51.1481 78.1136 51.6866 76.9396 52.5983C75.2032 54.0356 73.9145 55.9398 73.2256 58.0861C72.4296 60.3915 72.0306 62.8154 72.0457 65.2544C71.975 68.387 72.6995 71.4863 74.1515 74.263C74.842 75.5231 75.8141 76.6069 76.9919 77.4301Z"/><path id="Vector_11" d="M110.232 77.4301C111.461 78.2589 112.912 78.6965 114.394 78.6853C114.528 78.6853 114.663 78.682 114.8 78.6755C116.267 78.6143 117.685 78.1297 118.882 77.2802C120.6 75.9673 121.877 74.162 122.542 72.105C123.301 69.9049 123.676 67.5912 123.653 65.2643C123.704 61.9827 122.973 58.736 121.523 55.7922C120.858 54.4804 119.915 53.3294 118.76 52.4194C117.598 51.5253 116.175 51.0395 114.709 51.0376C114.559 51.0376 114.409 51.0425 114.258 51.0524C112.774 51.1481 111.354 51.6866 110.18 52.5983C108.443 54.0356 107.155 55.9398 106.466 58.0861C105.67 60.3915 105.271 62.8154 105.286 65.2544C105.215 68.387 105.94 71.4864 107.392 74.2631C108.082 75.5232 109.054 76.607 110.232 77.4301Z"/><path id="Vector_12" d="M105.295 91.1525L105.41 91.1565L105.434 91.1575V91.1575C105.963 91.1863 106.482 91.0037 106.877 90.6497C107.272 90.2958 107.51 89.7995 107.539 89.27C107.568 88.7405 107.386 88.2211 107.032 87.8261C106.678 87.4311 106.182 87.1928 105.653 87.1636C105.62 87.1617 105.321 87.1461 104.805 87.1461C99.2936 87.1838 93.8601 88.4481 88.8986 90.8472C88.6637 90.9647 88.4542 91.1273 88.2821 91.3257C88.11 91.5241 87.9787 91.7545 87.8956 92.0036C87.8126 92.2528 87.7794 92.5159 87.798 92.7779C87.8166 93.0398 87.8866 93.2956 88.0041 93.5305C88.1216 93.7654 88.2841 93.9749 88.4825 94.147C88.681 94.3191 88.9113 94.4504 89.1605 94.5335C89.4097 94.6165 89.6727 94.6497 89.9347 94.6311C90.1967 94.6125 90.4525 94.5424 90.6874 94.425L90.6873 94.4249C95.0945 92.3065 99.9149 91.1869 104.805 91.1461C105.022 91.1461 105.188 91.1495 105.295 91.1525Z"/><path id="Vector_13" d="M166.016 112.507C166.291 112.055 166.558 111.596 166.814 111.13C166.834 111.093 166.853 111.055 166.873 111.017C167.29 110.254 167.68 109.469 168.049 108.669C169.244 106.04 170.202 103.309 170.911 100.51L170.917 100.488C171 100.155 170.948 99.8031 170.773 99.5085C170.598 99.2139 170.313 99.0004 169.981 98.9146C169.649 98.8288 169.297 98.8777 169 99.0505C168.704 99.2233 168.488 99.5061 168.4 99.8373L168.4 99.8373C168.292 100.256 168.161 100.65 168.045 101.06C167.784 101.981 167.502 102.881 167.2 103.76C166.748 105.067 166.244 106.322 165.688 107.528C165.32 108.328 164.927 109.105 164.51 109.859C164.272 110.29 164.051 110.736 163.797 111.152C163.632 111.42 163.451 111.674 163.28 111.936C161.233 115.099 158.586 117.831 155.489 119.976C157.883 116.251 159.982 112.344 161.766 108.29C161.85 108.098 161.935 107.905 162.016 107.716C162.416 106.786 162.773 105.905 163.092 105.081C163.601 103.765 164.013 102.594 164.337 101.6C164.449 101.259 164.548 100.944 164.64 100.646C165.162 98.9558 165.379 97.9721 165.387 97.9407C165.438 97.7017 165.42 97.4531 165.336 97.2237C165.251 96.9943 165.104 96.7936 164.91 96.6448C164.775 96.5321 164.618 96.4504 164.448 96.4055C164.279 96.3606 164.101 96.3536 163.929 96.3851C163.668 96.4217 163.425 96.537 163.232 96.7156C163.038 96.8942 162.904 97.1275 162.847 97.3845L162.842 97.4059C162.807 97.5626 162.58 98.5334 162.081 100.121C161.854 100.846 161.569 101.701 161.22 102.664C160.895 103.565 160.514 104.559 160.07 105.636C157.82 111.071 154.991 116.248 151.631 121.076C151.207 121.685 150.757 122.299 150.304 122.914C149.301 123.369 148.232 123.783 147.125 124.172C146.319 124.456 145.485 124.722 144.622 124.97C144.398 125.034 144.173 125.097 143.945 125.159C138.565 126.532 133.041 127.261 127.489 127.329C127.159 127.337 126.847 127.357 126.512 127.363C126.044 127.37 125.577 127.374 125.111 127.374C124.489 127.374 123.879 127.342 123.262 127.328C122.977 127.322 122.691 127.317 122.407 127.307C116.739 127.139 111.106 126.355 105.608 124.969C104.037 124.569 102.493 124.109 100.967 123.613C99.1937 123.035 97.452 122.393 95.7423 121.685C93.465 120.748 91.2359 119.698 89.0636 118.538C87.8521 117.891 86.6587 117.212 85.4836 116.502C83.8262 115.496 82.2067 114.427 80.6253 113.294C76.9364 110.644 73.4794 107.686 70.2915 104.451C70.1305 104.288 69.9623 104.135 69.8023 103.97C68.6159 102.748 67.4724 101.468 66.3488 100.162C59.0066 91.4869 53.1961 81.6241 49.1668 70.9972C48.3726 68.9523 47.6217 66.8705 46.9292 64.7405C45.2039 59.41 43.8263 53.9733 42.8048 48.4645C42.4818 46.7352 42.181 44.9914 41.9196 43.2225C41.8985 43.1348 41.8678 43.0497 41.8282 42.9687C41.7297 42.6903 41.5382 42.4544 41.2859 42.301C41.0336 42.1475 40.7361 42.0859 40.4436 42.1266C40.1026 42.1771 39.7956 42.361 39.5901 42.6377C39.3845 42.9145 39.2973 43.2616 39.3476 43.6027C39.5401 44.9047 39.7598 46.1902 39.9852 47.472C40.0381 47.7725 40.0822 48.0783 40.1369 48.3777C40.5383 50.5767 41.0044 52.7339 41.5017 54.8697C42.8084 60.5251 44.5029 66.0837 46.5733 71.5063C47.5843 74.1403 48.6751 76.7053 49.8456 79.2013C52.6846 85.292 56.1161 91.0884 60.0904 96.507C61.5696 98.51 63.1229 100.427 64.7321 102.275C65.7765 103.474 66.8391 104.65 67.9367 105.781C70.1807 108.086 72.5558 110.26 75.0503 112.291C76.5407 113.51 78.0609 114.684 79.6269 115.787C81.5593 117.148 83.5537 118.41 85.5965 119.588C85.8235 119.719 86.0447 119.86 86.273 119.988C90.8587 122.574 95.6989 124.68 100.717 126.273C107.997 128.558 115.566 129.788 123.195 129.928C123.355 129.931 123.514 129.937 123.674 129.939C124.155 129.947 124.628 129.974 125.111 129.974C125.515 129.974 125.919 129.97 126.325 129.964C126.362 129.964 126.398 129.964 126.435 129.963C126.475 129.963 126.515 129.963 126.555 129.962C127.48 129.947 128.386 129.919 129.276 129.88C133.984 129.719 138.665 129.1 143.253 128.032C143.993 127.852 144.716 127.66 145.421 127.456C146.006 127.287 146.58 127.11 147.143 126.925C146.896 127.219 146.658 127.512 146.404 127.806L146.404 127.806C146.244 127.992 146.082 128.177 145.919 128.362L145.888 128.397C145.25 129.122 144.594 129.846 143.911 130.568C141.112 133.518 138.091 136.25 134.875 138.74C133.56 139.76 132.203 140.766 130.768 141.74C129.962 142.287 129.126 142.822 128.28 143.352C127.489 143.848 126.67 144.33 125.844 144.809C119.127 148.68 111.932 151.655 104.443 153.658C100.45 154.742 96.4712 155.649 92.539 156.421C87.4279 154.768 82.5469 152.474 78.0129 149.593C75.4308 147.931 73.0308 146.001 70.8527 143.835C70.0166 142.998 69.2553 142.164 68.5688 141.332C65.854 138.201 63.9081 134.48 62.8861 130.464C62.8226 130.18 62.7698 129.917 62.7224 129.667C62.5868 129.02 62.509 128.362 62.49 127.702C62.4823 127.489 62.505 127.276 62.5576 127.07L62.5738 127.026L62.5765 127.02L62.572 127.017C62.6733 126.928 62.7599 126.822 62.8288 126.706C63.1449 126.552 63.4224 126.42 63.6141 126.335C64.0304 126.15 64.4907 125.956 64.9841 125.768C64.7117 125.523 64.4178 125.303 64.106 125.11C63.5763 124.772 62.9652 124.583 62.3371 124.563C61.8053 124.558 61.2882 124.738 60.8737 125.071L60.8735 125.071L60.8734 125.071L60.8731 125.072L60.8726 125.072L60.8698 125.075C60.4937 125.392 60.2188 125.812 60.0792 126.284C59.9442 126.744 59.8804 127.222 59.8901 127.702C59.8904 127.863 59.9015 128.036 59.9116 128.208C59.9806 129.129 60.1206 130.043 60.3304 130.942C60.3369 130.972 60.3413 130.998 60.348 131.028C61.6069 135.958 64.1023 140.486 67.5984 144.183C67.7692 144.372 67.9389 144.562 68.1166 144.751C68.8392 145.522 69.6258 146.292 70.467 147.057C72.3789 148.793 74.4287 150.37 76.5961 151.774C80.042 153.98 83.6954 155.844 87.5042 157.339C81.2455 158.389 75.1607 159.093 69.4126 159.538C68.5328 159.606 67.6606 159.669 66.796 159.726C62.06 160.036 57.5903 160.173 53.4622 160.2C52.9498 160.204 52.4298 160.209 51.9284 160.209C51.3 160.209 50.694 160.203 50.0836 160.198C48.7111 160.187 47.3813 160.166 46.106 160.134C45.4647 160.118 44.831 160.1 44.2159 160.079C43.2626 160.047 42.3429 160.01 41.4567 159.969C38.5074 159.833 35.9262 159.656 33.799 159.478C31.9428 159.323 30.4512 159.169 29.3235 159.042C29.0301 159.284 28.7086 159.489 28.366 159.654C28.2373 159.705 28.1044 159.745 27.9688 159.773C27.9504 159.823 27.9287 159.871 27.9039 159.918C27.8946 159.93 27.7183 160.178 27.4551 160.519C27.5863 160.667 27.6812 160.844 27.7322 161.035C27.7727 161.197 27.8168 161.343 27.8609 161.489C30.0242 161.755 34.8649 162.277 41.593 162.579C41.714 162.451 41.8597 162.35 42.0213 162.28C42.3691 162.137 42.7248 162.013 43.0867 161.911C43.8476 161.682 44.6365 161.558 45.431 161.544C46.0805 161.532 46.7251 161.659 47.3215 161.917C47.7529 162.121 48.1518 162.388 48.5053 162.709C48.5303 162.732 48.5526 162.761 48.5774 162.784C49.4159 162.796 50.2726 162.804 51.1474 162.807C51.4074 162.808 51.6653 162.809 51.9284 162.809C56.4333 162.809 61.3879 162.678 66.6604 162.341C67.521 162.286 68.3952 162.221 69.2723 162.155C77.0268 161.577 84.742 160.557 92.3802 159.099C101.472 162.058 112.96 164.08 127.401 164.477C128.267 164.5 129.12 164.532 130.008 164.544C130.039 164.544 130.069 164.546 130.1 164.546C130.444 164.548 130.774 164.415 131.019 164.174C131.264 163.934 131.404 163.606 131.409 163.263C131.413 162.919 131.282 162.588 131.043 162.342C130.804 162.095 130.477 161.953 130.134 161.946C130.052 161.945 129.976 161.941 129.895 161.94C129.007 161.927 128.152 161.898 127.287 161.873C117.332 161.715 107.429 160.41 97.7728 157.985C100.212 157.438 102.662 156.832 105.124 156.167C112.466 154.206 119.537 151.341 126.173 147.637C127.009 147.167 127.827 146.688 128.628 146.199C131.145 144.674 133.58 143.016 135.922 141.234C137.288 140.193 138.594 139.132 139.84 138.051C141.92 136.254 143.839 134.414 145.609 132.557C146.22 131.916 146.814 131.275 147.391 130.631C147.502 130.508 147.61 130.384 147.719 130.261C148.3 129.603 148.864 128.946 149.409 128.289C150.325 127.185 151.192 126.085 152.01 124.989C153.934 124.084 155.771 123.004 157.498 121.764C160.635 119.492 163.326 116.66 165.435 113.41C165.631 113.111 165.829 112.813 166.016 112.507Z"/><path id="Vector_14" d="M86.6865 14.0819C86.7149 14.2003 86.7553 14.3196 86.7857 14.4382C87.0074 15.2952 87.2743 16.1399 87.5851 16.9688C89.0262 20.6343 91.0284 24.0534 93.52 27.1036C95.5569 29.6448 97.8009 32.0129 100.229 34.1834C101.257 35.1091 102.338 36.006 103.447 36.8862C106.79 39.5448 110.363 41.9003 114.124 43.9246C122.204 48.2547 131.244 51.0829 140.14 51.2094C140.342 51.2123 140.544 51.2214 140.746 51.2214C141.571 51.2215 142.394 51.1885 143.215 51.14C146.24 50.9703 149.232 50.4345 152.128 49.5443C152.876 49.3119 153.62 49.0564 154.356 48.7718C154.493 48.719 154.632 48.6738 154.768 48.6191C155.088 48.4907 155.344 48.2405 155.479 47.9235C155.615 47.6064 155.619 47.2486 155.49 46.9286C155.361 46.6358 155.131 46.3994 154.841 46.2628C154.552 46.1262 154.223 46.0985 153.915 46.1849C153.877 46.1963 153.838 46.1909 153.8 46.2062C153.025 46.517 152.239 46.7855 151.447 47.0336C148.206 48.0343 144.838 48.5641 141.446 48.6066C141.213 48.6107 140.98 48.6214 140.746 48.6214C139.808 48.6222 138.864 48.5782 137.919 48.5144C127.565 47.816 116.907 43.3533 108.183 37.1981C108.04 37.0974 107.893 37.0007 107.752 36.8991C106.595 36.071 105.476 35.2153 104.396 34.3319C101.142 31.7079 98.1783 28.7427 95.5564 25.4871C93.4068 22.8453 91.6384 19.9151 90.303 16.7821C89.9611 15.9486 89.6677 15.0962 89.4242 14.2288C89.3541 13.978 89.2742 13.7249 89.2151 13.4768C89.1335 13.1429 88.923 12.855 88.6296 12.676C88.3363 12.4969 87.984 12.4413 87.6498 12.5213C87.3155 12.6013 87.0266 12.8104 86.8461 13.1028C86.6656 13.3953 86.6082 13.7473 86.6866 14.0819L86.6865 14.0819Z"/><path id="Vector_15" d="M94.0323 14.1654C94.0595 14.192 95.0245 15.1545 96.7897 16.5886C99.2473 18.5769 101.85 20.3782 104.577 21.9774C111.188 25.8583 120.554 29.7641 131.563 29.7668C134.49 29.7656 137.41 29.4862 140.284 28.9324C141.295 28.7383 142.316 28.5066 143.345 28.2374C143.437 28.2133 143.529 28.1931 143.621 28.1682C143.952 28.077 144.234 27.8587 144.404 27.5608C144.575 27.2629 144.62 26.9097 144.532 26.5781C144.443 26.2466 144.226 25.9637 143.929 25.7911C143.633 25.6186 143.28 25.5704 142.948 25.657C142.295 25.832 141.648 25.9846 141.003 26.1271C139.846 26.3829 138.702 26.589 137.571 26.7454C135.581 27.0243 133.573 27.1651 131.563 27.1668C121.182 27.1694 112.242 23.4649 105.894 19.7355C104.088 18.675 102.502 17.617 101.147 16.6426C100.121 15.9052 99.223 15.2144 98.4823 14.6143C98.2062 14.3906 97.9586 14.1843 97.7244 13.9869C97.2293 13.5697 96.8212 13.2103 96.5216 12.9381C96.3009 12.7376 96.1348 12.5814 96.0256 12.4771L95.9047 12.3603L95.8767 12.3328L95.8707 12.3269C95.7499 12.2062 95.6066 12.1104 95.4489 12.0451C95.2912 11.9798 95.1222 11.9462 94.9514 11.9462C94.7807 11.9462 94.6117 11.9798 94.454 12.0451C94.2962 12.1105 94.1529 12.2062 94.0322 12.327C93.8108 12.5516 93.6796 12.8499 93.6637 13.1649C93.6479 13.48 93.7484 13.7899 93.9462 14.0357C93.9721 14.0807 94.0008 14.124 94.0323 14.1654Z"/></g></svg>