<svg width="200" height="200" viewBox="0 0 200 200" xmlns="http://www.w3.org/2000/svg"><g id="type=interested, mode=light"><path id="Vector" d="M145.175 46.0468C142.003 41.2746 137.113 37.227 129.849 34.4264C122.581 31.6203 112.941 30.0201 100.1 30.0188C88.6855 30.0196 79.8019 31.285 72.863 33.5361C68.2997 34.9204 64.045 37.1686 60.3301 40.1584C55.8777 43.894 52.68 48.9068 51.1694 54.519C49.7739 59.9436 49.1432 65.5366 49.2957 71.1357C49.2046 75.997 49.9513 80.8378 51.5032 85.4456C52.6942 88.8321 54.5203 91.9602 56.8836 94.6623C60.5383 98.8217 65.7212 102.188 72.7816 104.494C79.8456 106.802 88.7955 108.071 100.1 108.072C110.149 108.072 118.336 107.068 124.994 105.225C134.972 102.468 141.541 97.7653 145.529 91.7825C149.521 85.8031 150.905 78.6677 150.905 71.1357C151.01 66.1567 150.539 61.1822 149.501 56.3114C148.683 52.6591 147.218 49.1828 145.175 46.0468ZM129.216 97.6477C129.538 97.5265 129.853 97.4023 130.161 97.2752C131.572 96.6966 132.93 95.998 134.221 95.1872C134.497 95.0122 134.768 94.8337 135.032 94.6519L135.032 94.6519C135.316 94.4584 135.665 94.3851 136.002 94.4481C136.34 94.5111 136.639 94.7052 136.834 94.9881C137.029 95.271 137.104 95.6196 137.043 95.9577C136.982 96.2958 136.789 96.5959 136.508 96.7924C136.214 96.9946 135.915 97.1921 135.61 97.3847C134.194 98.2751 132.703 99.0423 131.155 99.6778C130.818 99.8171 130.478 99.9514 130.133 100.081C129.974 100.141 129.803 100.169 129.633 100.164C129.462 100.158 129.294 100.119 129.139 100.049C128.983 99.9782 128.843 99.8779 128.726 99.7533C128.61 99.6288 128.519 99.4824 128.458 99.3227C128.398 99.1629 128.37 98.9929 128.375 98.8222C128.381 98.6516 128.42 98.4837 128.49 98.3282C128.561 98.1726 128.661 98.0325 128.786 97.9157C128.91 97.799 129.057 97.7079 129.216 97.6477V97.6477ZM82.1777 36.6547C77.6121 37.3765 73.181 38.7808 69.0331 40.8206L69.0332 40.8206C68.7267 40.9786 68.37 41.0083 68.0416 40.9033C67.7132 40.7983 67.44 40.5671 67.282 40.2606C67.124 39.9541 67.0943 39.5975 67.1993 39.2691C67.3043 38.9407 67.5355 38.6674 67.842 38.5095C72.2222 36.3494 76.9025 34.8611 81.7257 34.0944C81.894 34.0642 82.0666 34.0676 82.2336 34.1043C82.4006 34.1409 82.5587 34.2102 82.6989 34.308C82.8391 34.4059 82.9587 34.5305 83.0506 34.6746C83.1426 34.8187 83.2053 34.9796 83.235 35.148C83.2647 35.3163 83.2609 35.4889 83.2239 35.6558C83.1868 35.8227 83.1172 35.9807 83.0189 36.1206C82.9207 36.2606 82.7959 36.3798 82.6515 36.4715C82.5072 36.5631 82.3462 36.6253 82.1777 36.6547L82.1777 36.6547ZM58.8348 47.699C58.7014 47.5925 58.5903 47.4607 58.5078 47.3112C58.4253 47.1618 58.3731 46.9975 58.3541 46.8278C58.3351 46.6582 58.3497 46.4864 58.3971 46.3224C58.4445 46.1584 58.5237 46.0053 58.6302 45.8719C59.4781 44.8115 60.4096 43.8207 61.4158 42.9091C61.542 42.7928 61.6899 42.7026 61.851 42.6437C62.0122 42.5848 62.1834 42.5584 62.3548 42.5661C62.5262 42.5737 62.6944 42.6151 62.8497 42.6881C63.005 42.761 63.1443 42.8639 63.2596 42.991C63.375 43.118 63.464 43.2666 63.5216 43.4282C63.5792 43.5898 63.6043 43.7612 63.5953 43.9326C63.5864 44.1039 63.5436 44.2718 63.4695 44.4265C63.3954 44.5812 63.2913 44.7197 63.1634 44.8341C62.2598 45.6526 61.4233 46.5421 60.6619 47.4942L60.6619 47.4943C60.4468 47.7637 60.1334 47.9366 59.7908 47.975C59.4481 48.0134 59.1043 47.9141 58.8348 47.699Z"/><path id="Vector_2" d="M167.477 50.6911C168.411 40.7939 169.939 22.9434 170.27 17.8868C170.286 17.6544 170.293 17.4284 170.293 17.2088C170.305 16.4218 170.186 15.6384 169.942 14.8902C169.63 13.9329 169.016 13.1029 168.191 12.5256C167.459 12.0369 166.617 11.738 165.741 11.656C165.516 11.6311 165.29 11.6185 165.063 11.6185C163.813 11.5958 162.598 12.0328 161.649 12.8465C160.547 13.8908 159.89 15.3202 159.816 16.8368C159.407 21.0648 158.063 37.3835 157.194 48.0197C157.035 47.4087 156.875 46.798 156.695 46.1972C153.884 36.7692 148.467 28.62 139.349 22.9289C130.235 17.2325 117.521 13.9829 100.102 13.9821C88.4855 13.9826 78.9699 15.4273 71.2093 18.0777C59.569 22.0425 51.8871 28.786 47.2281 37.2394C45.2817 40.8224 43.8116 44.6443 42.855 48.6081C41.9882 37.9962 40.6013 21.1443 40.1852 16.8368C40.1108 15.3201 39.4539 13.8907 38.3515 12.8464C37.4023 12.0328 36.1876 11.5958 34.9377 11.6184C34.7111 11.6184 34.4847 11.631 34.2596 11.656C33.0592 11.7548 31.9346 12.2828 31.0919 13.1433C30.6269 13.6455 30.2747 14.2413 30.0589 14.8908C29.8147 15.6391 29.6961 16.4226 29.7078 17.2097C29.7078 17.4287 29.7155 17.6547 29.7308 17.8877C30.0625 22.9433 31.5892 40.7939 32.5242 50.691C32.6565 53.1482 33.2319 55.5612 34.2227 57.8136C34.5693 58.5378 35.0361 59.1981 35.6032 59.7664C35.0117 60.2221 34.5041 60.7772 34.103 61.4069C33.5826 62.3503 33.2397 63.3811 33.0912 64.4482C32.8635 65.8377 32.7549 67.2441 32.7665 68.6521C32.7697 70.0815 32.8554 71.5095 33.0233 72.929C33.2871 75.3288 33.8259 77.6903 34.6291 79.9669C34.9379 80.8343 35.3182 81.6745 35.7664 82.4788C36.114 83.1291 36.5699 83.7155 37.1144 84.2126C38.332 85.1366 39.7474 85.7654 41.2493 86.0494C41.993 86.218 42.7473 86.3363 43.5069 86.4036C43.519 86.4427 43.5285 86.4832 43.5406 86.5222C46.2563 95.9047 52.5067 103.867 60.9758 108.734C68.5778 113.176 78.6613 115.963 91.8407 116.771V119.343C90.1471 119.449 88.5201 119.577 87.0095 119.724C84.9172 119.929 83.0441 120.171 81.4933 120.451C80.7173 120.591 80.0219 120.741 79.412 120.904C78.8661 121.041 78.3334 121.226 77.8205 121.458C77.348 121.698 76.9334 122.037 76.6056 122.453C75.9212 123.355 75.3791 124.357 74.9981 125.423C74.9882 125.448 74.9786 125.476 74.9686 125.502C74.8986 125.511 74.8264 125.513 74.7573 125.525C74.6863 124.856 74.4737 124.21 74.1336 123.63C73.8546 123.173 73.4711 122.79 73.0146 122.511C72.5286 122.223 71.9828 122.051 71.4195 122.008C71.0183 121.972 70.6169 121.954 70.2154 121.954C68.2255 121.946 66.2633 122.42 64.4962 123.335C61.4049 125.078 58.9304 127.736 57.4141 130.945C55.1635 135.603 53.7318 140.615 53.1819 145.759C53.0463 146.762 53.2507 147.781 53.7626 148.655C54.2745 149.528 55.0643 150.204 56.0058 150.575C55.5209 150.749 55.0562 150.975 54.6196 151.248C53.9998 151.634 53.4936 152.178 53.1527 152.823C52.7452 153.705 52.4535 154.637 52.2847 155.594C51.7346 159.005 51.4873 162.459 51.5457 165.914C51.5457 168.141 51.6143 169.731 51.6148 169.745L51.6156 169.761C51.6403 170.854 52.019 171.909 52.6948 172.769C53.4268 173.615 54.4426 174.164 55.5512 174.313C55.8405 174.36 56.1582 174.404 56.4892 174.446C56.4213 174.612 56.3886 174.789 56.393 174.968L56.393 174.968C56.4315 175.607 56.5283 176.242 56.6821 176.864C56.9171 177.904 57.2567 179.075 57.5779 180.089C57.7386 180.596 57.8944 181.062 58.0311 181.451C58.1688 181.842 58.2824 182.147 58.3786 182.374C58.6827 183.015 59.1279 183.58 59.6808 184.026C60.4956 184.694 61.3783 185.274 62.3144 185.758C63.208 186.24 64.0545 186.632 64.578 186.883C65.2065 187.152 65.8866 187.279 66.5699 187.255C67.42 187.239 68.2666 187.143 69.0986 186.968C69.4273 186.902 69.7031 186.838 69.913 186.787C69.9949 187.626 70.0823 188.451 70.1825 189.244C70.2034 189.414 70.2577 189.578 70.3421 189.727C70.4265 189.875 70.5395 190.006 70.6745 190.111C70.8095 190.216 70.9639 190.293 71.1288 190.339C71.2938 190.384 71.466 190.396 71.6357 190.375C71.8054 190.353 71.9692 190.298 72.1177 190.214C72.2662 190.129 72.3965 190.015 72.5011 189.88C72.6057 189.745 72.6826 189.59 72.7274 189.425C72.7722 189.26 72.7839 189.088 72.762 188.918L72.7619 188.918C72.1544 183.593 71.8716 178.237 71.9151 172.878C71.9151 172.735 71.917 172.59 71.9173 172.447C75.8641 173.587 79.9124 174.341 84.0051 174.698C89.2896 175.212 94.5967 175.459 99.9062 175.438C106.754 175.455 113.597 175.091 120.404 174.347C122.917 174.054 125.122 173.71 126.969 173.327C127.038 173.32 127.104 173.317 127.173 173.309L127.203 173.307L127.203 173.306C127.22 173.304 127.236 173.304 127.253 173.302C127.359 173.282 127.462 173.249 127.559 173.204C127.642 173.185 127.737 173.168 127.818 173.15C128.696 172.956 129.563 172.71 130.411 172.412C130.435 172.403 130.453 172.393 130.476 172.384C130.477 172.548 130.479 172.714 130.479 172.877C130.523 178.236 130.24 183.593 129.633 188.918C129.589 189.26 129.684 189.605 129.895 189.878C130.106 190.15 130.417 190.328 130.759 190.371C131.101 190.414 131.447 190.32 131.719 190.108C131.992 189.897 132.169 189.586 132.212 189.244L132.212 189.244C132.312 188.454 132.399 187.631 132.481 186.794C132.688 186.845 132.949 186.905 133.263 186.968C134.095 187.143 134.942 187.239 135.792 187.255C136.475 187.279 137.155 187.152 137.784 186.883C138.485 186.546 139.747 185.967 140.953 185.244C141.562 184.887 142.14 184.48 142.681 184.026C143.234 183.58 143.679 183.015 143.983 182.374C144.11 182.075 144.274 181.623 144.473 181.037C144.769 180.165 145.123 179.031 145.415 177.937C145.56 177.389 145.69 176.852 145.788 176.354C145.885 175.898 145.946 175.434 145.969 174.968C145.973 174.789 145.941 174.612 145.873 174.446C146.204 174.404 146.521 174.36 146.81 174.313C147.919 174.164 148.935 173.615 149.667 172.769C150.343 171.909 150.721 170.854 150.746 169.761L150.747 169.744C150.747 169.731 150.816 168.14 150.816 165.911C150.815 163.895 150.76 161.36 150.543 158.98C150.447 157.844 150.292 156.713 150.077 155.594C149.909 154.637 149.617 153.705 149.21 152.823C148.869 152.178 148.362 151.634 147.742 151.248C147.311 150.974 146.851 150.746 146.371 150.568C147.308 150.194 148.094 149.518 148.602 148.647C149.111 147.775 149.314 146.759 149.18 145.759C148.051 137.415 145.84 131.535 142.863 127.65C141.536 125.86 139.829 124.387 137.865 123.335C136.098 122.42 134.136 121.946 132.146 121.954C131.745 121.954 131.344 121.972 130.942 122.008C130.379 122.051 129.833 122.223 129.347 122.511C128.675 122.931 128.162 123.564 127.893 124.309C127.748 124.701 127.65 125.109 127.599 125.524C127.542 125.514 127.483 125.513 127.425 125.505C127.212 124.945 126.968 124.397 126.697 123.863C126.444 123.363 126.14 122.89 125.789 122.453C125.461 122.037 125.046 121.697 124.574 121.458C124.061 121.226 123.529 121.041 122.983 120.904C119.954 120.22 116.876 119.777 113.777 119.578C112.55 119.474 111.25 119.388 109.924 119.309V116.658C116.354 116.257 122.715 115.114 128.881 113.251C140.494 109.58 148.21 103.277 152.908 95.1676C154.519 92.3594 155.801 89.3753 156.73 86.2741C156.924 86.3724 157.14 86.419 157.358 86.4095C158.142 86.3447 158.921 86.2244 159.688 86.0495C161.19 85.7653 162.606 85.1366 163.823 84.2128C164.368 83.7155 164.824 83.1291 165.171 82.4788C165.869 81.1973 166.419 79.8411 166.811 78.436C167.333 76.6346 167.702 74.7923 167.914 72.9289C168.081 71.5089 168.167 70.0805 168.17 68.6506C168.182 67.243 168.074 65.837 167.846 64.4478C167.698 63.3809 167.355 62.3502 166.835 61.407C166.289 60.5678 165.568 59.8564 164.722 59.3215C164.708 59.3126 164.694 59.306 164.68 59.2972C165.416 58.4633 165.978 57.4906 166.332 56.4363C166.952 54.5765 167.337 52.6465 167.477 50.6911ZM35.1126 50.4465C34.1804 40.5829 32.6515 22.6991 32.3251 17.7167C32.3132 17.5381 32.3078 17.3697 32.3078 17.2098C32.2965 16.7095 32.3677 16.2108 32.5184 15.7337C32.6484 15.3018 32.919 14.9258 33.2872 14.6654C33.665 14.422 34.0972 14.276 34.5452 14.2404C34.6755 14.2259 34.8065 14.2185 34.9376 14.2185C35.5545 14.196 36.1579 14.402 36.6322 14.7969C37.2387 15.4062 37.5847 16.2273 37.5972 17.0869C37.9034 20.2551 38.7523 30.4254 39.5229 39.7852C39.9083 44.4666 40.2745 48.9487 40.5443 52.2604C40.753 54.8223 40.9026 56.6666 40.9604 57.3791C40.1735 57.5658 39.4 57.805 38.645 58.0952C38.4481 58.1715 38.2396 58.273 38.0358 58.3617C37.3659 57.9699 36.8432 57.3689 36.5482 56.651C35.705 54.6845 35.2189 52.5835 35.1126 50.4465ZM41.6166 83.4653C40.5983 83.2616 39.6361 82.8401 38.796 82.2297C38.4851 81.9256 38.2244 81.5741 38.0234 81.1884C37.4269 80.082 36.9562 78.9123 36.6202 77.7012C36.14 76.0415 35.8007 74.3444 35.6058 72.6277C35.4495 71.3082 35.3697 69.9808 35.3666 68.6522C35.3552 67.395 35.4507 66.1391 35.652 64.898C35.7493 64.1575 35.9733 63.4392 36.3142 62.7747C36.6635 62.2562 37.1193 61.8181 37.6511 61.4895C38.5449 60.9293 39.5108 60.4934 40.5221 60.1935C40.732 60.1281 40.9262 60.073 41.1032 60.0251C40.9516 62.1543 40.876 64.316 40.8763 66.5102C40.8065 72.2928 41.4392 78.0625 42.7605 83.6925C42.4255 83.6393 42.033 83.5664 41.6166 83.4653H41.6166ZM70.3002 151.653L70.2789 151.639L70.3025 151.628L70.3002 151.653ZM55.7412 146.366L55.7586 146.106C56.8416 138.045 58.9791 132.586 61.5606 129.233C62.6549 127.746 64.0654 126.521 65.6903 125.645C67.0881 124.92 68.641 124.546 70.2155 124.554C70.5371 124.554 70.8613 124.568 71.1881 124.597C71.3562 124.606 71.5201 124.653 71.6669 124.735C71.8465 124.855 71.9787 125.034 72.0411 125.241C72.1776 125.648 72.2407 126.076 72.2274 126.505C72.2275 126.565 72.2148 126.639 72.2131 126.701C71.5487 127.257 71.0048 127.943 70.6146 128.717C70.0759 129.783 69.7961 130.962 69.7979 132.157C69.7924 133.249 70.0362 134.327 70.5106 135.31C70.8935 136.093 71.4299 136.791 72.088 137.363C71.5797 140.396 71.1246 143.725 70.7387 147.241C70.6831 147.353 70.6445 147.473 70.624 147.596C70.5628 148.09 70.3156 148.541 69.9328 148.859C69.5401 149.196 69.0407 149.383 68.5233 149.386L68.3645 149.38L67.7972 149.324C67.7523 149.136 67.6658 148.961 67.5439 148.812C67.2041 148.438 66.8131 148.115 66.3827 147.851C65.4053 147.24 64.3074 146.846 63.1639 146.698C62.8369 146.652 62.5071 146.628 62.1769 146.628C61.2176 146.619 60.2703 146.841 59.4143 147.274C59.0245 147.467 58.6659 147.717 58.3508 148.017C58.2525 148.121 58.1721 148.24 58.113 148.371L57.4153 148.302C56.9527 148.229 56.5309 147.994 56.2246 147.64C55.9182 147.285 55.747 146.834 55.7411 146.366L55.7412 146.366ZM55.976 171.748C55.4835 171.701 55.0261 171.472 54.6935 171.106C54.3768 170.675 54.2079 170.153 54.2119 169.618C54.2112 169.601 54.2078 169.522 54.2023 169.363C54.1835 168.828 54.1457 167.544 54.1458 165.914C54.1455 163.947 54.2013 161.473 54.4073 159.217C54.4953 158.173 54.6376 157.134 54.8339 156.105C54.9594 155.375 55.1756 154.664 55.4772 153.988C55.6145 153.753 55.8102 153.559 56.0453 153.423C56.7257 153.025 57.4715 152.752 58.2479 152.616C58.5443 152.945 58.8932 153.222 59.2805 153.437C60.2489 153.969 61.3223 154.283 62.425 154.355C62.7656 154.386 63.0896 154.4 63.3962 154.4C64.6768 154.447 65.9477 154.161 67.0844 153.57C67.2406 153.472 67.3741 153.342 67.4759 153.189C67.5073 153.2 67.5419 153.21 67.5728 153.221C68.2271 153.434 68.839 153.76 69.3804 154.185C69.5274 154.305 69.6533 154.45 69.7527 154.612C69.8079 154.702 69.8407 154.803 69.8482 154.909C69.8592 155.088 69.9077 155.264 69.9908 155.424C69.59 160.805 69.3547 166.349 69.3228 171.673C69.1488 171.742 68.9695 171.797 68.7865 171.837C68.0335 171.994 67.2699 172.095 66.502 172.14C65.5709 172.208 64.5116 172.239 63.419 172.239C60.9294 172.255 58.4419 172.091 55.976 171.748L55.976 171.748ZM69.6077 184.181L69.5954 184.184C69.5144 184.206 69.0623 184.328 68.4738 184.441C67.8469 184.569 67.2097 184.641 66.5699 184.655C66.2753 184.671 65.9804 184.631 65.7005 184.537C64.9752 184.191 63.796 183.645 62.7465 183.015C62.2655 182.734 61.8087 182.414 61.3808 182.058C61.1319 181.866 60.9242 181.627 60.7699 181.353C60.699 181.188 60.5349 180.747 60.3512 180.203C60.0725 179.381 59.7307 178.287 59.4602 177.269C59.3249 176.76 59.2075 176.27 59.1247 175.85C59.0565 175.536 59.0122 175.217 58.992 174.895C58.9819 174.823 58.9654 174.751 58.9425 174.681C60.3608 174.781 61.9085 174.838 63.419 174.839C65.0582 174.857 66.6967 174.765 68.3233 174.562C68.6796 174.51 69.011 174.451 69.3238 174.38C69.338 176.216 69.3775 178.017 69.4462 179.764C69.0537 179.816 68.6582 179.844 68.2622 179.848C68.0136 179.853 67.7652 179.831 67.5216 179.781C67.291 179.249 66.9899 178.516 66.7343 177.882C66.4426 177.159 66.2137 176.578 66.2131 176.577C66.1516 176.416 66.0589 176.27 65.9405 176.146C65.8221 176.021 65.6802 175.922 65.5231 175.853C65.3661 175.784 65.1968 175.746 65.0252 175.743C64.8536 175.739 64.683 175.77 64.5233 175.833C64.3636 175.896 64.218 175.99 64.0947 176.109C63.9715 176.229 63.8731 176.371 63.8053 176.529C63.7375 176.687 63.7016 176.856 63.6996 177.028C63.6977 177.199 63.7297 177.37 63.7939 177.529L63.7939 177.529C63.798 177.538 64.7175 179.877 65.2409 181.056C65.3952 181.397 65.6409 181.689 65.9507 181.899C66.3101 182.134 66.7153 182.291 67.1397 182.358C67.5105 182.421 67.8861 182.452 68.2622 182.448C68.7006 182.445 69.1385 182.418 69.5741 182.367C69.6094 182.978 69.6485 183.58 69.6914 184.174C69.6632 184.18 69.6357 184.173 69.6077 184.181L69.6077 184.181ZM143.37 174.895L143.37 174.895C143.334 175.366 143.258 175.833 143.144 176.292C142.936 177.215 142.611 178.339 142.306 179.303C142.153 179.786 142.004 180.229 141.878 180.59C141.752 180.947 141.644 181.232 141.592 181.353C141.438 181.627 141.23 181.866 140.981 182.058C140.309 182.601 139.582 183.074 138.813 183.47C138.002 183.907 137.207 184.276 136.661 184.537C136.381 184.631 136.086 184.671 135.792 184.655C135.113 184.639 134.437 184.559 133.773 184.418C133.469 184.358 133.209 184.297 133.027 184.252C132.937 184.229 132.866 184.211 132.819 184.198L132.767 184.184L132.755 184.181C132.738 184.176 132.72 184.181 132.703 184.177C132.746 183.583 132.785 182.981 132.82 182.37C133.245 182.419 133.672 182.445 134.1 182.448C134.609 182.458 135.116 182.397 135.609 182.268C135.894 182.189 136.165 182.064 136.411 181.899C136.721 181.689 136.967 181.397 137.121 181.056C137.645 179.877 138.564 177.538 138.568 177.529C138.692 177.208 138.684 176.852 138.546 176.537C138.408 176.223 138.151 175.976 137.831 175.85C137.512 175.724 137.155 175.73 136.84 175.866C136.525 176.003 136.276 176.258 136.148 176.577L136.148 176.577C136.148 176.578 135.919 177.159 135.627 177.882C135.372 178.516 135.071 179.248 134.841 179.78C134.792 179.793 134.742 179.803 134.691 179.811C134.495 179.838 134.297 179.85 134.1 179.848C133.715 179.843 133.33 179.815 132.948 179.764C133.017 178.016 133.057 176.214 133.071 174.377C133.896 174.553 134.732 174.669 135.573 174.726C136.613 174.804 137.763 174.839 138.943 174.839C140.453 174.838 142.001 174.781 143.42 174.681C143.397 174.751 143.38 174.823 143.37 174.895L143.37 174.895ZM146.885 153.988C147.187 154.664 147.403 155.375 147.528 156.105C148.042 159.347 148.272 162.629 148.216 165.911C148.216 166.999 148.199 167.933 148.182 168.593C148.174 168.923 148.165 169.184 148.159 169.363C148.154 169.522 148.15 169.6 148.15 169.618C148.154 170.153 147.985 170.675 147.668 171.106C147.336 171.472 146.878 171.701 146.386 171.748C143.92 172.091 141.432 172.255 138.943 172.239C137.428 172.257 135.913 172.173 134.409 171.989C133.966 171.936 133.529 171.839 133.105 171.7L133.073 171.687C133.042 166.335 132.804 160.759 132.399 155.35C132.464 155.211 132.503 155.061 132.514 154.909L132.514 154.908C132.522 154.803 132.554 154.701 132.61 154.612C132.838 154.276 133.146 154.002 133.505 153.813C133.943 153.559 134.405 153.349 134.885 153.188C134.987 153.342 135.121 153.472 135.277 153.57C136.414 154.161 137.685 154.447 138.966 154.4C139.272 154.4 139.596 154.386 139.937 154.355C141.04 154.283 142.113 153.969 143.081 153.437C143.468 153.222 143.817 152.945 144.113 152.617C144.415 152.68 144.703 152.75 144.967 152.83C145.442 152.964 145.897 153.163 146.317 153.423C146.552 153.559 146.748 153.753 146.885 153.988L146.885 153.988ZM130.439 124.999C130.501 124.891 130.589 124.8 130.695 124.735C130.842 124.653 131.006 124.606 131.174 124.597C131.5 124.568 131.825 124.554 132.146 124.554C133.721 124.546 135.274 124.92 136.671 125.645C139.287 127.144 141.374 129.417 142.644 132.151C144.753 136.542 146.092 141.262 146.603 146.106L146.62 146.366C146.614 146.834 146.443 147.285 146.137 147.64C145.83 147.994 145.409 148.228 144.946 148.302L144.249 148.371C144.19 148.24 144.109 148.121 144.011 148.017C143.696 147.717 143.337 147.466 142.947 147.274C142.091 146.841 141.144 146.619 140.185 146.628C139.854 146.628 139.524 146.652 139.197 146.698C138.054 146.846 136.956 147.24 135.979 147.851C135.549 148.115 135.158 148.438 134.818 148.812C134.696 148.961 134.61 149.136 134.565 149.324L133.999 149.38L133.839 149.386C133.321 149.383 132.822 149.196 132.429 148.859C132.046 148.542 131.799 148.09 131.739 147.597C131.722 147.525 131.7 147.454 131.671 147.386C131.395 144.856 131.085 142.413 130.744 140.112C130.602 139.159 130.454 138.238 130.303 137.337C130.948 136.77 131.474 136.081 131.851 135.31C132.326 134.327 132.569 133.249 132.564 132.157C132.573 130.561 132.068 129.005 131.124 127.718C130.839 127.349 130.512 127.014 130.15 126.72C130.148 126.652 130.135 126.571 130.135 126.505C130.102 125.985 130.207 125.466 130.438 124.999L130.439 124.999ZM115.132 122.312C117.175 122.512 118.991 122.748 120.44 123.01C121.163 123.14 121.796 123.277 122.311 123.415C122.703 123.512 123.086 123.643 123.456 123.805C123.585 123.886 123.697 123.99 123.787 124.112C124.292 124.804 124.693 125.566 124.977 126.374C125.522 127.821 125.974 129.301 126.331 130.805C126.704 132.77 127.166 135.149 127.571 137.086C127.593 137.19 127.627 137.292 127.674 137.387C129.367 148.027 130.295 158.775 130.449 169.548C130.154 169.718 129.843 169.859 129.52 169.969C128.583 170.289 127.625 170.547 126.654 170.74C126.337 170.764 126.032 170.784 125.718 170.807C125.542 170.813 125.364 170.822 125.191 170.822C123.426 170.803 121.675 170.518 119.995 169.977C117.45 169.207 114.866 167.995 111.841 166.951C108.39 165.708 104.751 165.067 101.083 165.055C96.3928 165.128 91.765 166.139 87.4722 168.029C85.63 168.757 83.9305 169.464 82.2641 169.979C80.6368 170.515 78.937 170.799 77.2238 170.821C76.6199 170.821 76.0166 170.782 75.4178 170.703C74.243 170.438 73.0827 170.111 71.9418 169.725C72.0886 159.943 72.8503 150.18 74.2226 140.494C74.3904 139.362 74.5654 138.268 74.7477 137.213C74.7644 137.172 74.7789 137.129 74.7911 137.086C75.1504 135.366 75.5547 133.298 75.9022 131.48C76.1478 130.444 76.3993 129.479 76.6565 128.617C76.9972 127.394 77.4483 126.205 78.0042 125.064C78.1721 124.727 78.3742 124.408 78.6073 124.112C78.6972 123.99 78.8095 123.886 78.9383 123.805C79.3083 123.643 79.6915 123.512 80.0838 123.415C82.9645 122.774 85.8907 122.357 88.8359 122.169L88.8513 122.168C92.1465 124.982 96.3441 126.518 100.678 126.494C103.126 126.485 105.553 126.045 107.848 125.193C109.662 124.559 111.345 123.598 112.813 122.358C112.887 122.289 112.952 122.21 113.008 122.126C113.736 122.184 114.45 122.245 115.132 122.312L115.132 122.312ZM137.915 106.489C129.356 111.498 117.146 114.424 100.102 114.423C88.7416 114.423 79.5217 113.124 72.1078 110.773C60.9836 107.234 53.9303 101.396 49.5435 93.8618C45.1624 86.3246 43.4747 76.9868 43.4764 66.5102C43.3686 59.9001 44.2182 53.3092 45.9988 46.9426C48.6896 37.9841 53.683 30.4895 62.2325 25.1333C70.7852 19.7823 82.9943 16.5814 100.102 16.5822C111.503 16.5817 120.737 18.004 128.153 20.5381C139.278 24.3501 146.323 30.598 150.699 38.4968C155.069 46.398 156.729 56.0325 156.727 66.5102C156.847 73.0146 155.988 79.5001 154.18 85.7492C151.661 94.5143 145.827 101.953 137.915 106.489L137.915 106.489ZM165.285 64.8973C165.486 66.1381 165.582 67.3937 165.57 68.6506C165.567 69.9798 165.487 71.3077 165.331 72.6277C165.091 74.8255 164.599 76.9884 163.866 79.0743C163.608 79.804 163.289 80.5112 162.914 81.1885C162.713 81.5741 162.453 81.9255 162.142 82.2297C161.24 82.8758 160.207 83.3142 159.116 83.5133C158.573 83.6358 158.079 83.7127 157.726 83.7578C157.605 83.7733 157.509 83.7839 157.425 83.7927C158.761 78.1309 159.4 72.327 159.327 66.5102C159.327 64.2531 159.245 62.0304 159.081 59.842C159.899 60.0184 160.7 60.2613 161.478 60.5685C162.131 60.8211 162.756 61.142 163.341 61.5259C163.851 61.8486 164.288 62.2739 164.624 62.7748C164.964 63.4391 165.188 64.1571 165.285 64.8974L165.285 64.8973ZM163.462 56.5352C163.248 56.9717 162.962 57.3689 162.616 57.7102C162.478 57.8394 162.328 57.9538 162.167 58.0517C161.824 57.9227 161.492 57.8061 161.189 57.7111C160.599 57.5242 159.998 57.3711 159.39 57.2526C159.277 57.2396 159.163 57.2421 159.051 57.2599C159.115 56.4714 159.26 54.6867 159.457 52.2603C160.266 42.3297 161.944 21.8455 162.404 17.087C162.416 16.2274 162.762 15.4062 163.369 14.7968C163.843 14.4019 164.446 14.196 165.063 14.2185C165.194 14.2185 165.325 14.2258 165.455 14.2402C166.04 14.272 166.594 14.5145 167.014 14.9227C167.226 15.156 167.386 15.4325 167.483 15.7333C167.633 16.2102 167.705 16.7087 167.693 17.2087C167.693 17.3684 167.687 17.5378 167.676 17.717C167.35 22.699 165.82 40.5828 164.889 50.4466C164.793 52.5468 164.309 54.611 163.462 56.5353L163.462 56.5352Z"/><path id="Vector_3" d="M141.402 79.948C141.414 79.9063 141.423 79.8637 141.429 79.8207L141.69 62.4408C141.69 62.332 141.672 62.2241 141.636 62.1212C141.627 62.0918 141.613 62.0662 141.601 62.0381C141.587 61.9956 141.569 61.9542 141.549 61.9142L131.45 44.9542C131.376 44.8308 131.276 44.7248 131.158 44.6432C131.04 44.5615 130.905 44.5062 130.764 44.481L100.868 39.2144C100.501 39.3281 100.108 39.3281 99.741 39.2144L69.845 44.481C69.7061 44.5053 69.5739 44.5588 69.4572 44.6379C69.3404 44.7171 69.2418 44.8201 69.1678 44.9401L58.0692 62.9001C58.036 62.959 58.0089 63.0212 57.9884 63.0855C57.9809 63.106 57.969 63.1233 57.9628 63.1443C57.9337 63.2404 57.9192 63.3403 57.9199 63.4407L58.1797 80.8206C58.1871 80.8783 58.1997 80.9352 58.2173 80.9907C58.2251 81.0609 58.2404 81.1301 58.263 81.197C58.2925 81.2517 58.327 81.3036 58.3661 81.3519C58.3968 81.4097 58.4331 81.4643 58.4746 81.5148L69.4956 92.4723C69.517 92.4936 69.5486 92.503 69.5725 92.5226C69.5975 92.5434 69.6119 92.5722 69.6395 92.5909C69.6733 92.6075 69.7081 92.622 69.7437 92.6345C69.7728 92.6557 69.8029 92.6754 69.834 92.6935L87.3296 99.5895C87.3374 99.5925 87.3461 99.5913 87.354 99.5941C87.4097 99.6101 87.4669 99.6209 87.5246 99.6265C87.5808 99.6425 87.6382 99.6534 87.6963 99.6591H99.3942L99.3945 99.6592L112.913 99.6591C112.971 99.6534 113.028 99.6425 113.084 99.6265C113.142 99.6209 113.199 99.6101 113.255 99.5941C113.263 99.5913 113.271 99.5925 113.279 99.5895L130.775 92.6935C130.803 92.6826 130.819 92.656 130.845 92.643C130.897 92.6312 130.946 92.6091 130.989 92.5782C131.031 92.5473 131.068 92.5081 131.095 92.4629C131.119 92.4397 131.153 92.4313 131.175 92.4055L141.196 80.448C141.22 80.4107 141.241 80.3717 141.26 80.3314C141.344 80.2203 141.393 80.0869 141.402 79.948V79.948ZM130.493 90.1056L124.145 80.7425L138.293 80.7974L130.493 90.1056ZM99.3944 97.6592L99.3942 97.6593L89.9223 97.6592L96.655 90.0813C97.7569 90.3843 98.8952 90.5351 100.038 90.5295C101.331 90.535 102.617 90.3456 103.853 89.9679L110.686 97.6592H99.3944ZM61.4746 81.6773L76.404 80.8322L70.05 90.2035L61.4746 81.6773ZM59.9334 64.329L72.5755 63.0586C72.6084 64.2933 72.7609 65.5219 73.0309 66.7272L60.1461 78.5603L59.9334 64.329ZM105.823 89.1734C107.706 88.1464 109.247 86.5885 110.253 84.6933C110.642 83.9803 110.956 83.2292 111.19 82.4518L120.724 81.0202L112.43 96.6104L105.823 89.1734ZM88.1791 96.61L79.8783 81.0067L89.291 82.3597C89.6388 83.6807 90.2114 84.9321 90.9837 86.0588C91.8492 87.3272 92.993 88.3811 94.3278 89.14C94.4347 89.2005 94.5591 89.2469 94.6701 89.3042L88.1791 96.61ZM98.4383 66.0192L91.4776 79.9355L87.5351 70.3711C87.8643 69.7975 88.1467 69.1982 88.3794 68.579C88.8885 67.1444 89.2038 65.6481 89.3169 64.13L98.4383 66.0192ZM110.298 64.3359C110.462 66.5055 111.084 68.6157 112.124 70.5269C112.261 70.764 112.412 70.9907 112.566 71.2142L108.897 79.7008L102.162 66.021L110.298 64.3359ZM121.373 78.9002L110.731 80.4983L114.033 72.8613C114.254 73.0532 114.487 73.2316 114.73 73.3955C115.861 74.1482 117.192 74.5449 118.551 74.5345C118.673 74.5345 118.797 74.5315 118.923 74.5256C119.47 74.4958 120.012 74.4035 120.538 74.2504L121.373 78.9002ZM80.0312 74.472C80.3213 74.511 80.6136 74.5319 80.9063 74.5345C81.0287 74.5345 81.1527 74.5315 81.2784 74.5256C82.6226 74.4705 83.9228 74.0313 85.0249 73.2599C85.4334 72.97 85.8129 72.6412 86.158 72.2782L89.4926 80.3681L79.2371 78.8938L80.0312 74.472ZM106.76 79.8869C104.485 79.6346 102.198 79.5088 99.91 79.5102C97.5657 79.5105 95.4555 79.6234 93.8056 79.7522L100.3 66.7676L106.76 79.8869ZM74.4791 70.5269C75.1152 71.6711 76.0071 72.6528 77.0851 73.3955C77.4055 73.6055 77.7433 73.7876 78.0947 73.9398L77.225 78.7826L61.9175 79.649L73.6826 68.8443C73.9058 69.4242 74.1721 69.9866 74.4791 70.5268L74.4791 70.5269ZM123.376 78.7396L122.419 73.4107C122.501 73.3582 122.59 73.3156 122.67 73.2599C124.239 72.0785 125.41 70.4451 126.024 68.579C126.087 68.4073 126.131 68.2245 126.187 68.0491L137.856 78.7956L123.376 78.7396ZM124.181 52.5024C123.722 51.8807 123.177 51.3273 122.562 50.8584C121.49 50.0448 120.181 49.6039 118.836 49.6028C118.698 49.6028 118.559 49.6073 118.421 49.6163V49.6164C117.061 49.7026 115.758 50.1906 114.677 51.0186C114.163 51.4216 113.697 51.8823 113.289 52.3918L103.258 41.6663L128.997 46.2005L124.181 52.5024ZM101.264 42.4624L101.264 42.4624L112.143 54.094C111.807 54.6987 111.518 55.3276 111.277 55.9756C110.565 58.0123 110.203 60.1549 110.207 62.3123L100.914 64.2369V41.2534L101.138 41.2927C101.031 41.4755 100.985 41.6879 101.008 41.8985C101.031 42.1091 101.121 42.3068 101.264 42.4624H101.264ZM98.9145 64.0754L89.3819 62.1012C89.3708 59.572 88.8523 57.0708 87.8571 54.7456L98.9145 42.9227L98.9145 64.0754ZM86.8357 52.9096C86.3149 52.1239 85.6666 51.4306 84.9174 50.8583C83.8454 50.0448 82.5368 49.6039 81.1911 49.6028C81.0533 49.6028 80.9149 49.6073 80.7761 49.6163V49.6164C79.4167 49.7025 78.1135 50.1906 77.032 51.0186C76.6653 51.3011 76.3229 51.6137 76.0084 51.9533L71.6123 46.2005L97.3513 41.6661L86.8357 52.9096ZM78.0917 81.9068L86.0966 96.9538L71.7291 91.2908L78.0917 81.9068ZM122.518 81.9064L128.88 91.2907L114.513 96.9535L122.518 81.9064ZM126.738 65.8377C126.92 64.786 127.017 63.7213 127.027 62.654L139.675 63.37L139.463 77.5561L126.738 65.8377ZM138.868 61.321L126.952 60.6467C126.796 58.458 126.235 56.3172 125.3 54.3321L130.587 47.4142L138.868 61.321ZM70.0045 47.3905L74.7681 53.6242C74.3137 54.369 73.9333 55.1566 73.6325 55.9756C73.0583 57.6096 72.7153 59.3158 72.6135 61.0448L60.8353 62.2283L70.0045 47.3905Z"/></g></svg>