<svg xmlns="http://www.w3.org/2000/svg" width="200" height="200" fill="none"><path fill="#BEBEC9" d="M145.158 46.096c-3.173-4.773-8.064-8.821-15.329-11.622-7.268-2.807-16.909-4.407-29.751-4.409-11.413.001-20.296 1.267-27.234 3.518a37.223 37.223 0 0 0-12.532 6.623 28.378 28.378 0 0 0-9.16 14.363 60.127 60.127 0 0 0-1.874 16.617 42.36 42.36 0 0 0 2.207 14.309 28.227 28.227 0 0 0 5.379 9.217c3.654 4.16 8.836 7.527 15.896 9.834 7.063 2.309 16.013 3.578 27.318 3.579 10.049 0 18.237-1.004 24.895-2.848 9.979-2.757 16.549-7.461 20.538-13.445 3.992-5.98 5.377-13.115 5.377-20.646a64.592 64.592 0 0 0-1.404-14.825 31.364 31.364 0 0 0-4.326-10.265Zm1.074 38.522a25.617 25.617 0 0 1-4.887 8.378c-3.309 3.761-8.04 6.88-14.755 9.078-6.712 2.197-15.401 3.452-26.512 3.451-9.876.001-17.838-.991-24.199-2.754-9.547-2.654-15.457-6.99-19.065-12.382-3.605-5.397-4.936-11.975-4.936-19.203a62.087 62.087 0 0 1 1.333-14.225 28.771 28.771 0 0 1 3.96-9.424c2.874-4.306 7.246-7.983 14.1-10.638 6.85-2.65 16.182-4.235 28.807-4.234 11.224 0 19.848 1.251 26.437 3.391a34.648 34.648 0 0 1 11.672 6.148 25.762 25.762 0 0 1 8.329 13.087 57.651 57.651 0 0 1 1.772 15.895 39.775 39.775 0 0 1-2.056 13.432Z"/><path fill="#BEBEC9" d="M168.171 12.575a5.3 5.3 0 0 0-2.45-.87 6.167 6.167 0 0 0-.679-.037 5.101 5.101 0 0 0-3.413 1.228 5.892 5.892 0 0 0-1.833 3.99c-.409 4.227-1.752 20.543-2.621 31.179-.159-.61-.319-1.22-.499-1.82-2.811-9.427-8.229-17.575-17.347-23.265-9.115-5.695-21.83-8.944-39.251-8.945-11.615 0-21.13 1.445-28.89 4.095-11.638 3.964-19.32 10.706-23.979 19.158a46.825 46.825 0 0 0-4.374 11.372c-.866-10.612-2.253-27.466-2.67-31.775a5.892 5.892 0 0 0-1.833-3.99 5.103 5.103 0 0 0-3.413-1.227 6.15 6.15 0 0 0-.68.037 5.008 5.008 0 0 0-3.167 1.488 4.8 4.8 0 0 0-1.033 1.747 7.128 7.128 0 0 0-.35 2.318c0 .22.007.445.022.678.332 5.057 1.859 22.907 2.793 32.804a20.42 20.42 0 0 0 1.7 7.123 7.113 7.113 0 0 0 1.38 1.952 6.434 6.434 0 0 0-1.5 1.64 8.822 8.822 0 0 0-1.013 3.043 24.744 24.744 0 0 0-.324 4.204c.003 1.43.089 2.857.256 4.276.264 2.4.803 4.76 1.606 7.038.31.867.69 1.707 1.138 2.512.347.65.803 1.236 1.348 1.734a9.871 9.871 0 0 0 4.134 1.836c.744.169 1.499.287 2.259.355l.034.119a37.71 37.71 0 0 0 17.433 22.214c7.602 4.443 17.685 7.23 30.863 8.038v2.57c-2.983.187-5.763.437-8.077.751a43.049 43.049 0 0 0-3.48.596c-.846.167-1.671.426-2.462.771a3.986 3.986 0 0 0-1.485 1.344 12.59 12.59 0 0 0-1.363 2.695c-.07.009-.144.011-.213.022a4.74 4.74 0 0 0-.624-1.896 3.364 3.364 0 0 0-1.12-1.117 3.678 3.678 0 0 0-1.594-.503 13.877 13.877 0 0 0-1.206-.055 12.34 12.34 0 0 0-5.719 1.382 17.146 17.146 0 0 0-7.08 7.609 45.074 45.074 0 0 0-4.233 14.815 4.522 4.522 0 0 0 2.825 4.816c-.485.174-.95.4-1.387.673a4.123 4.123 0 0 0-1.467 1.575 11.28 11.28 0 0 0-.868 2.77 58.624 58.624 0 0 0-.739 10.319c0 2.229.069 3.819.07 3.832v.016a5.053 5.053 0 0 0 1.08 3.009 4.59 4.59 0 0 0 2.856 1.543c.29.047.607.091.938.133a1.294 1.294 0 0 0-.097.523c.039.639.135 1.274.29 1.895a41.46 41.46 0 0 0 .895 3.225c.16.507.317.973.453 1.362.138.392.252.696.348.922.304.642.749 1.207 1.302 1.653a15.075 15.075 0 0 0 2.634 1.733c.893.481 1.74.873 2.262 1.124.629.269 1.31.396 1.993.373a13.52 13.52 0 0 0 2.529-.287c.327-.065.6-.129.81-.181.082.838.17 1.661.27 2.452a1.294 1.294 0 0 0 .492.864 1.295 1.295 0 0 0 1.441.102 1.289 1.289 0 0 0 .61-.786 1.3 1.3 0 0 0 .036-.506 131.729 131.729 0 0 1-.847-16.017l.003-.45a63.356 63.356 0 0 0 12.09 2.252c5.283.515 10.589.762 15.897.74 6.849.017 13.693-.347 20.501-1.091 2.512-.293 4.716-.637 6.563-1.02.097-.01.191-.014.288-.025.104-.02.205-.053.301-.098.084-.019.181-.036.263-.055.879-.193 1.745-.44 2.594-.738.025-.009.043-.019.067-.028l.003.466a131.414 131.414 0 0 1-.853 16.063 1.29 1.29 0 0 0 .262.96 1.298 1.298 0 0 0 2.317-.632c.101-.789.188-1.611.27-2.447.207.051.471.112.787.175.831.175 1.678.271 2.528.287a4.647 4.647 0 0 0 1.992-.372c.701-.337 1.963-.916 3.169-1.639.61-.357 1.188-.765 1.728-1.219a4.72 4.72 0 0 0 1.303-1.653c.126-.298.29-.749.489-1.335.296-.873.651-2.006.942-3.101.145-.548.275-1.085.373-1.582a8.75 8.75 0 0 0 .181-1.386 1.278 1.278 0 0 0-.097-.522c.332-.043.649-.087.939-.134a4.589 4.589 0 0 0 2.856-1.543 5.05 5.05 0 0 0 1.079-3.009l.001-.016c0-.013.069-1.604.069-3.833-.001-2.016-.056-4.551-.272-6.931a32.745 32.745 0 0 0-.467-3.387 11.258 11.258 0 0 0-.867-2.77 4.123 4.123 0 0 0-1.468-1.575 7.294 7.294 0 0 0-1.371-.68 4.528 4.528 0 0 0 2.809-4.809c-1.129-8.344-3.34-14.224-6.316-18.109a15.09 15.09 0 0 0-4.998-4.315 12.335 12.335 0 0 0-5.718-1.382c-.402 0-.804.018-1.206.055a3.698 3.698 0 0 0-1.58.494 3.522 3.522 0 0 0-1.454 1.769 5.304 5.304 0 0 0-.308 1.253c-.059-.01-.121-.011-.18-.019-.113-.29-.226-.582-.342-.846a10.551 10.551 0 0 0-1.059-1.908 3.941 3.941 0 0 0-1.441-1.288 12.29 12.29 0 0 0-2.554-.786 87.59 87.59 0 0 0-12.095-1.368v-2.648a83.545 83.545 0 0 0 18.952-3.406c11.614-3.671 19.33-9.975 24.029-18.086a42.333 42.333 0 0 0 3.822-8.894c.193.097.408.144.625.134a16.704 16.704 0 0 0 2.331-.36 9.87 9.87 0 0 0 4.135-1.837 6.47 6.47 0 0 0 1.348-1.733 19.282 19.282 0 0 0 1.64-4.043 33.313 33.313 0 0 0 1.104-5.507c.167-1.419.253-2.846.256-4.275a24.682 24.682 0 0 0-.325-4.205 8.817 8.817 0 0 0-1.012-3.043 6.95 6.95 0 0 0-2.112-2.085l-.042-.024a8.33 8.33 0 0 0 1.652-2.86c.62-1.86 1.005-3.79 1.145-5.746.934-9.897 2.462-27.747 2.793-32.805.015-.232.023-.456.023-.675a7.13 7.13 0 0 0-.351-2.32 4.637 4.637 0 0 0-1.751-2.365ZM35.093 50.495c-.932-9.863-2.461-27.747-2.787-32.73a7.68 7.68 0 0 1-.018-.506c-.01-.5.06-1 .21-1.476.13-.432.401-.808.77-1.068.377-.244.81-.39 1.258-.425.13-.015.262-.022.393-.022a2.505 2.505 0 0 1 1.694.578c.606.609.952 1.43.964 2.289.307 3.169 1.156 13.34 1.926 22.699.386 4.681.752 9.163 1.021 12.475.21 2.562.359 4.406.416 5.119-.786.187-1.56.426-2.315.716-.197.076-.406.178-.61.267A3.544 3.544 0 0 1 36.53 56.7a18.02 18.02 0 0 1-1.436-6.205Zm6.503 33.02a7.196 7.196 0 0 1-2.82-1.236 4.112 4.112 0 0 1-.772-1.042A16.834 16.834 0 0 1 36.6 77.75c-.48-1.66-.82-3.357-1.014-5.074a34.522 34.522 0 0 1-.24-3.974 22.203 22.203 0 0 1 .286-3.755c.098-.74.322-1.46.662-2.124.35-.519.805-.956 1.337-1.285a11.64 11.64 0 0 1 2.871-1.296c.21-.065.405-.12.582-.168a91.092 91.092 0 0 0-.226 6.482 71.459 71.459 0 0 0 1.884 17.186 14.447 14.447 0 0 1-1.145-.228Zm18.949 65.893a2.71 2.71 0 0 1 2.189-1.16l.227.01a2.713 2.713 0 0 1 2.261 1.668l-.005.106a23.706 23.706 0 0 0-3.629-.282c-.353.001-.703.015-1.052.031l.009-.373Zm9.733 2.292-.019-.012.02-.009-.001.021Zm2.1-19.494a4.843 4.843 0 0 1 .915-2.872c.18-.234.39-.443.624-.622a58.275 58.275 0 0 0-.543 2.09v-.005l-.009.04-.003.012c-.222.951-.44 1.965-.653 3.03a4.634 4.634 0 0 1-.331-1.673Zm-16.639 13.95c1.083-8.062 3.22-13.521 5.801-16.874a12.479 12.479 0 0 1 4.13-3.588 9.73 9.73 0 0 1 4.524-1.092c.322 0 .647.015.974.044.168.008.332.055.48.138a.93.93 0 0 1 .373.505c.137.407.2.834.187 1.263l-.004.187a6.372 6.372 0 0 0-1.61 2.026 7.61 7.61 0 0 0-.816 3.441 7.166 7.166 0 0 0 .713 3.152 6.507 6.507 0 0 0 1.577 2.053 177.826 177.826 0 0 0-1.35 9.88 1.257 1.257 0 0 0-.114.354 1.955 1.955 0 0 1-.691 1.263 2.185 2.185 0 0 1-1.408.527l-.16-.006-.566-.056c-.007-.025-.002-.051-.01-.077a5.315 5.315 0 0 0-5.035-3.648 5.32 5.32 0 0 0-4.608 2.683c-.016.027-.023.059-.037.088l-.693-.068a1.99 1.99 0 0 1-1.675-1.935l.018-.26Zm-1.065 24.998a2.475 2.475 0 0 1-.482-1.487 101.776 101.776 0 0 1-.066-3.706c0-1.966.056-4.44.262-6.696.088-1.044.23-2.082.426-3.111.126-.73.342-1.441.643-2.118.137-.234.333-.428.568-.564a6.709 6.709 0 0 1 2.264-.821 16.91 16.91 0 0 1 3.3-.301 18.5 18.5 0 0 1 5.964.92 5.87 5.87 0 0 1 1.808.964 1.7 1.7 0 0 1 .372.427.65.65 0 0 1 .095.296c.01.179.059.354.141.513a240.593 240.593 0 0 0-.67 16.254c-.173.068-.35.122-.532.161a15.54 15.54 0 0 1-2.283.304c-.93.067-1.99.099-3.082.099a51.65 51.65 0 0 1-7.445-.492 1.985 1.985 0 0 1-1.283-.642Zm14.914 13.076-.013.003c-.08.022-.533.144-1.121.257a10.78 10.78 0 0 1-1.904.214 2.353 2.353 0 0 1-.87-.118c-.725-.347-1.904-.892-2.953-1.523-.481-.28-.938-.6-1.366-.956a2.34 2.34 0 0 1-.611-.706 19.5 19.5 0 0 1-.419-1.15 48.347 48.347 0 0 1-.89-2.934 23.332 23.332 0 0 1-.336-1.418 6.429 6.429 0 0 1-.133-.955 1.226 1.226 0 0 0-.05-.214c1.42.1 2.969.157 4.48.158a36.352 36.352 0 0 0 4.903-.277c.354-.052.684-.11.995-.181.014 1.836.053 3.636.122 5.383-.391.052-.785.08-1.18.084a3.347 3.347 0 0 1-.74-.067 87.144 87.144 0 0 1-.787-1.899c-.292-.723-.52-1.304-.521-1.305a1.301 1.301 0 0 0-2.4-.042 1.303 1.303 0 0 0-.02.994v-.001c.004.01.923 2.349 1.447 3.528.154.341.4.633.71.842.359.236.764.392 1.189.46.37.063.746.093 1.122.09.437-.004.874-.03 1.308-.08.035.61.074 1.212.117 1.806-.027.006-.053-.001-.08.007Zm14.663-12.069-.165-.019c2.349-.814 4.62-1.832 7.098-2.685a29.318 29.318 0 0 1 9.878-1.753 32.718 32.718 0 0 1 12.702 2.794c1.361.533 2.694 1.078 4.056 1.556-5.27.518-11.575.834-17.939.833a154.792 154.792 0 0 1-15.63-.726Zm57.505-23.323.024.958c-.349-.016-.692-.046-1.046-.046a23.76 23.76 0 0 0-3.886.331l-.157-.631a5.02 5.02 0 0 1 .592-.457 4.27 4.27 0 0 1 2.355-.731h.023a4.282 4.282 0 0 1 2.095.576Zm-12.125-15.011a80.364 80.364 0 0 0-.771-3.502 56.358 56.358 0 0 0-.421-1.604c.407.336.738.755.973 1.227.351.701.534 1.475.532 2.259a4.61 4.61 0 0 1-.313 1.62Zm13.719 41.117a8.445 8.445 0 0 1-.226 1.396 39.39 39.39 0 0 1-.838 3.012c-.153.482-.302.926-.428 1.286-.126.358-.234.642-.286.762a2.33 2.33 0 0 1-.611.707 12.63 12.63 0 0 1-2.167 1.411c-.812.438-1.606.807-2.153 1.069a2.37 2.37 0 0 1-.869.117 11.052 11.052 0 0 1-2.019-.237c-.304-.06-.564-.121-.746-.167l-.208-.053-.052-.014-.012-.004c-.018-.005-.036.001-.054-.004.043-.593.083-1.195.118-1.806.425.049.853.075 1.281.078a5.528 5.528 0 0 0 1.509-.18c.285-.079.556-.204.802-.37.31-.209.556-.501.71-.842.523-1.179 1.444-3.518 1.448-3.527a1.3 1.3 0 0 0-.302-1.419 1.311 1.311 0 0 0-.93-.366 1.293 1.293 0 0 0-.915.402c-.118.124-.211.27-.272.43h-.001c0 .001-.229.583-.521 1.306a95.805 95.805 0 0 1-.787 1.898 1.476 1.476 0 0 1-.15.031 4.178 4.178 0 0 1-.591.037 9.656 9.656 0 0 1-1.152-.084c.069-1.748.11-3.549.124-5.387.824.176 1.659.292 2.5.348 1.039.079 2.189.114 3.368.114a65.56 65.56 0 0 0 4.48-.158 1.21 1.21 0 0 0-.05.214Zm3.515-20.907c.302.676.518 1.387.643 2.116.514 3.243.744 6.525.688 9.807 0 1.088-.017 2.022-.034 2.682-.008.33-.017.591-.023.769l-.009.257a2.48 2.48 0 0 1-.481 1.486c-.333.366-.79.595-1.283.641a51.515 51.515 0 0 1-7.446.493 33.974 33.974 0 0 1-4.532-.25 6.844 6.844 0 0 1-1.304-.289l-.03-.013a239.476 239.476 0 0 0-.675-16.338c.064-.139.104-.288.115-.441a.647.647 0 0 1 .096-.296c.228-.336.536-.61.895-.799a10.428 10.428 0 0 1 3.134-1.104 20.672 20.672 0 0 1 4.115-.408c1.422-.023 2.84.155 4.212.529.476.134.931.333 1.351.593.235.136.431.33.568.565Zm-16.441-28.998a.753.753 0 0 1 .254-.257c.146-.081.309-.127.476-.136.327-.029.652-.044.974-.044a9.728 9.728 0 0 1 4.524 1.092 14.561 14.561 0 0 1 5.972 6.505 42.551 42.551 0 0 1 3.959 13.956l.017.26a1.985 1.985 0 0 1-1.674 1.936l-.579.057-.008-.315a1.308 1.308 0 0 0-.517-1.006 7.01 7.01 0 0 0-4.145-1.425h-.039a6.877 6.877 0 0 0-3.778 1.155 7.536 7.536 0 0 0-1.6 1.397 1.312 1.312 0 0 0-.269 1.156l.015.062c-.009 0-.017-.004-.026-.003l-.163.006a2.18 2.18 0 0 1-1.408-.527 1.952 1.952 0 0 1-.69-1.263 1.228 1.228 0 0 0-.07-.215 177.915 177.915 0 0 0-1.37-10.04 6.506 6.506 0 0 0 1.553-2.031 7.167 7.167 0 0 0 .712-3.152 7.424 7.424 0 0 0-1.44-4.44 6.039 6.039 0 0 0-1.035-1.042c.022-.071.037-.144.046-.217a2.889 2.889 0 0 1 .309-1.469Zm-8.974-1.773c.682.129 1.349.328 1.99.593.183.123.339.284.456.471.505.767.909 1.596 1.203 2.466.488 1.36.901 2.746 1.237 4.152a87.576 87.576 0 0 1 1.212 5.892c-.003.162.025.323.082.475a223.914 223.914 0 0 1 2.801 32.28c-.296.17-.608.312-.931.422-.952.325-1.925.586-2.913.781a15.32 15.32 0 0 1-1.416.073 17.565 17.565 0 0 1-5.196-.845c-2.545-.77-5.129-1.982-8.154-3.026a32.057 32.057 0 0 0-10.759-1.896 35.131 35.131 0 0 0-13.61 2.974c-1.842.727-3.541 1.435-5.208 1.949a16.772 16.772 0 0 1-5.04.843c-.606 0-1.211-.04-1.812-.119a34.54 34.54 0 0 1-3.473-.977 224.816 224.816 0 0 1 2.819-32.57c.02-.077.033-.156.038-.236.352-2.016.73-3.869 1.117-5.524l.008-.031v-.004c.42-1.882.991-3.725 1.711-5.513.22-.537.495-1.05.82-1.531.123-.201.287-.373.482-.505l.007-.003a9.742 9.742 0 0 1 1.904-.578 65.876 65.876 0 0 1 8.013-1.063 18.049 18.049 0 0 0 11.827 4.328 20.8 20.8 0 0 0 7.166-1.299 15.778 15.778 0 0 0 4.966-2.834c.068-.071.127-.151.176-.237 1.845.149 3.561.323 5.061.521 1.324.175 2.484.368 3.416.571Zm-13.128-1.048c-.436.208-.901.407-1.394.589a18.222 18.222 0 0 1-6.263 1.137 15.435 15.435 0 0 1-7.725-2.016l.109-.006c.024.001.045.014.07.014a1.291 1.291 0 0 0 1.21-.862 1.32 1.32 0 0 0 .033-.158c.03-.091.048-.185.056-.28v-3.678c1.832.074 3.712.117 5.66.117 2.513 0 4.91-.074 7.23-.196v4.097a1.287 1.287 0 0 0 1.014 1.242Zm29.574-15.676c-8.559 5.009-20.771 7.935-37.818 7.933-11.359.001-20.578-1.298-27.991-3.65-11.124-3.539-18.176-9.377-22.563-16.912-4.38-7.539-6.068-16.878-6.066-27.357-.108-6.61.742-13.2 2.522-19.566 2.691-8.957 7.684-16.45 16.233-21.805 8.552-5.35 20.76-8.55 37.865-8.55 11.403 0 20.638 1.422 28.055 3.955 11.126 3.812 18.171 10.058 22.547 17.956 4.37 7.9 6.03 17.533 6.028 28.01a64.912 64.912 0 0 1-2.547 19.243 35.076 35.076 0 0 1-16.265 20.743Zm27.369-41.594a22.18 22.18 0 0 1 .286 3.755 34.489 34.489 0 0 1-.239 3.974 28.908 28.908 0 0 1-1.466 6.446 14 14 0 0 1-.952 2.114 4.139 4.139 0 0 1-.772 1.041 7.504 7.504 0 0 1-3.027 1.284 15.024 15.024 0 0 1-1.689.28 71.38 71.38 0 0 0 1.902-17.286c0-2.256-.082-4.478-.246-6.665.818.177 1.619.42 2.396.727a9.912 9.912 0 0 1 1.863.957c.509.322.946.747 1.281 1.248.342.665.566 1.384.663 2.125Zm2.391-47.182c-.326 4.982-1.856 22.866-2.787 32.73a17.068 17.068 0 0 1-1.428 6.088 4.301 4.301 0 0 1-.845 1.175c-.138.13-.288.244-.449.341a18.93 18.93 0 0 0-.978-.34 16.28 16.28 0 0 0-1.799-.459 1.254 1.254 0 0 0-.339.008l.406-5c.809-9.93 2.487-30.414 2.947-35.174.012-.86.358-1.68.964-2.29a2.506 2.506 0 0 1 1.694-.578c.131 0 .262.008.392.022a2.422 2.422 0 0 1 1.559.683c.213.234.373.51.469.811.151.477.222.976.211 1.476 0 .16-.006.329-.017.507Z"/><path fill="#BEBEC9" d="m77.797 121.514.004-.002.002-.001-.006.003ZM133.171 92.18c-.264.182-.532.36-.806.532l-.003.002a26.663 26.663 0 0 1-4.059 2.089c-.31.127-.624.251-.943.37a1.3 1.3 0 0 0 .911 2.436c.348-.13.688-.265 1.023-.402l.003-.002a29.216 29.216 0 0 0 4.453-2.293c.308-.194.607-.391.9-.594a1.295 1.295 0 0 0 .539-.835 1.292 1.292 0 0 0-.209-.973 1.295 1.295 0 0 0-.836-.54 1.301 1.301 0 0 0-.973.21Z"/><path fill="#BEBEC9" d="m133.751 94.911-.002.001-.001.001.003-.002ZM82.508 37.776a48.676 48.676 0 0 0-13.883 4.415 1.3 1.3 0 0 0 1.19 2.311 46.113 46.113 0 0 1 13.145-4.166 1.3 1.3 0 1 0-.452-2.56ZM62.2 46.59a25.46 25.46 0 0 0-2.787 2.963 1.3 1.3 0 0 0 2.032 1.623 22.88 22.88 0 0 1 2.502-2.66 1.3 1.3 0 0 0-1.748-1.926Z"/><path fill="#FFD93A" d="M138.761 63.488c-.008-.023-.018-.042-.027-.064a.962.962 0 0 0-.058-.136l-9.369-15.733a.997.997 0 0 0-.685-.473l-27.733-4.886a2.03 2.03 0 0 1-1.07 0L72.084 47.08a.998.998 0 0 0-.677.46L61.112 64.2a.986.986 0 0 0-.071.164.959.959 0 0 0-.038.088c-.028.093-.041.191-.04.289l.24 16.083-.001.005.001.008v.027c.007.04.015.079.026.117.008.09.028.18.059.264.02.035.043.069.067.101a.982.982 0 0 0 .141.213L71.72 91.727c.03.022.061.042.094.061.02.016.03.04.053.054.025.017.055.02.081.034.036.026.072.05.11.072l16.234 6.392c.008.003.017.001.025.004a.964.964 0 0 0 .168.032.992.992 0 0 0 .174.033H112.054a.979.979 0 0 0 .169-.033.954.954 0 0 0 .174-.033c.008-.002.016-.001.023-.004l16.226-6.391a.992.992 0 0 0 .4-.288l9.295-11.095a1.747 1.747 0 0 0 .235-.628l.241-16.122a.983.983 0 0 0-.056-.327Zm-2.766-.793-8.784-.499c-.002-.21-.004-.42-.012-.63v-.005a18.367 18.367 0 0 0-1.802-7.37l3.042-4.185 7.556 12.689ZM119.812 79.02l-9.128 1.371a1.49 1.49 0 0 0-.364-.128l-.08-.013 3.255-7.544c.489.486 1.042.901 1.646 1.234 1.043.56 2.21.85 3.394.841.123 0 .248-.002.374-.008.047-.002.092-.01.138-.014l.765 4.261Zm4.389-17.334c.011.257.016.513.016.77a17.54 17.54 0 0 1-.3 3.281 11.115 11.115 0 0 1-1.281 3.51 5.345 5.345 0 0 1-2.078 2.071 4.341 4.341 0 0 1-1.786.458l-.237.005a4.05 4.05 0 0 1-1.967-.48 4.853 4.853 0 0 1-1.55-1.38l-.002-.002a12.307 12.307 0 0 1-2.017-6.85v-.006a20.87 20.87 0 0 1-.011-.614 14.39 14.39 0 0 1 1.851-7.424c.006-.01.007-.02.013-.03a6.092 6.092 0 0 1 1.668-1.818 3.988 3.988 0 0 1 2.062-.715h.004l.234-.008c.74-.001 1.46.243 2.047.693a6.32 6.32 0 0 1 1.725 2.103l.001.003c1.003 2 1.552 4.197 1.608 6.434Zm-12.084 9.289a.885.885 0 0 0-.128.174l-3.669 8.502-6.135-12.463 8.03-1.662a14.37 14.37 0 0 0 1.902 5.449ZM92.564 83.29a9.186 9.186 0 0 1-.236-.547c1.67-.17 4.406-.384 7.566-.384 2.716-.009 5.43.18 8.119.568a8.823 8.823 0 0 1-1.571 2.328 7.675 7.675 0 0 1-2.476 1.754 9.582 9.582 0 0 1-3.946.769 8.63 8.63 0 0 1-4.334-1.028 7.668 7.668 0 0 1-3.122-3.46Zm-.442-3.541-3.847-9.335a.924.924 0 0 0-.306-.376c.218-.436.412-.883.58-1.34.392-1.103.667-2.244.82-3.404l9.145 1.893-6.277 12.55-.115.012Zm-13.42-26.447a4.056 4.056 0 0 1 2.235-.843l.236-.007c.744 0 1.468.247 2.056.703a7.821 7.821 0 0 1 2.42 3.677c.623 1.816.935 3.724.924 5.645a13.79 13.79 0 0 1-1.476 6.58 5.844 5.844 0 0 1-1.695 1.958 4.218 4.218 0 0 1-2.276.763l-.237.005a3.986 3.986 0 0 1-2.271-.67 6.792 6.792 0 0 1-2.394-3.35 15.306 15.306 0 0 1-.883-5.295 15.068 15.068 0 0 1 1.583-7.003 6.69 6.69 0 0 1 1.777-2.163ZM74.465 70.95a8.54 8.54 0 0 0 2.49 2.66 6.936 6.936 0 0 0 2.686 1.057l-.761 4.236-13.94.79 9.525-8.743Zm7.198 3.777a7.213 7.213 0 0 0 3.458-1.255 8.155 8.155 0 0 0 1.61-1.553l3.331 8.083c-.199.045-.386.13-.551.25l-8.62-1.238.772-4.287Zm40.254-.735.01-.005a8.327 8.327 0 0 0 3.281-3.198c.116-.193.214-.399.319-.6L135 78.912l-13.184-.051-.807-4.492a7.17 7.17 0 0 0 .909-.376Zm4.926-25.193c-.861 1.182-1.721 2.366-2.58 3.549a8.297 8.297 0 0 0-1.617-1.616 6.378 6.378 0 0 0-4.25-1.265 7.012 7.012 0 0 0-3.577 1.237 9.075 9.075 0 0 0-2.523 2.717c-.009.015-.013.033-.021.049-.097.156-.183.322-.273.483l-8.702-9.303 23.543 4.148Zm-25.852-4.555.016.003c-.01.023-.008.048-.016.071v-.074Zm0 .754a.988.988 0 0 0 .202.328l9.907 10.59a19.13 19.13 0 0 0-1.112 6.533c-.001.238.004.476.012.713.004.12.016.24.022.361l-9.031 1.87V44.999Zm-.643 22.99 5.75 11.678a63.281 63.281 0 0 0-6.205-.308c-1.99 0-3.808.082-5.324.185l5.779-11.555Zm-1.357-2.746-9.45-1.956c.01-.27.03-.54.03-.81a20.58 20.58 0 0 0-.784-5.679l10.204-10.907v19.352ZM97.413 44.65l-9.4 10.048a13.778 13.778 0 0 0-.405-.834 9.372 9.372 0 0 0-2.59-3.117 6.374 6.374 0 0 0-4.272-1.282 7.074 7.074 0 0 0-3.852 1.442c-.296.236-.575.491-.837.764L73.863 48.8l23.55-4.149ZM72.25 49.982l2.506 3.28c-.543.845-.99 1.749-1.33 2.694a19.351 19.351 0 0 0-1.085 6.512c0 .07.005.141.005.212l-8.468.85 8.372-13.548ZM62.976 65.63l9.484-.952a16.652 16.652 0 0 0 1.073 4.414L63.17 78.604l-.194-12.973Zm1.52 16.09 13.543-.766-5.764 8.503-7.78-7.736Zm9.458 8.824 5.785-8.533 7.277 13.676-13.062-5.143Zm7.58-9.417 7.481 1.075c.344 1.437.95 2.8 1.786 4.018a10.28 10.28 0 0 0 3.41 3.142c.059.033.127.057.187.089l-5.277 5.934-7.587-14.258Zm19.667 15.28h-1.69l-.002.001h-8.622c1.825-2.053 3.65-4.106 5.477-6.158 1.186.355 2.418.532 3.656.527a12.95 12.95 0 0 0 4.205-.673c1.867 2.101 3.734 4.203 5.603 6.304h-8.627Zm10.392-1.024-5.449-6.13a11.215 11.215 0 0 0 4.267-4.417c.439-.802.783-1.653 1.025-2.535l7.727-1.16-7.57 14.242Zm16.083-5.204-13.979 5.507 7.881-14.827h.218a.927.927 0 0 0 .064.152l6.037 8.904-.221.264Zm1.557-1.858-5.053-7.452 11.26.043-6.207 7.41Zm7.377-10.647-10.26-9.447c.208-.625.379-1.263.51-1.909l.003-.011c.13-.699.222-1.404.276-2.113l9.664.549-.193 12.931Z"/></svg>