<svg width="200" height="200" viewBox="0 0 200 200" xmlns="http://www.w3.org/2000/svg"><g id="type=interested, mode=dark"><path id="Vector" d="M145.158 46.0956C141.985 41.323 137.094 37.2747 129.829 34.4736C122.561 31.6671 112.92 30.0665 100.078 30.0652C88.6648 30.066 79.7823 31.3317 72.8441 33.5831C68.2811 34.9678 64.0267 37.2164 60.3122 40.2065C55.8601 43.9429 52.6626 48.9561 51.152 54.5686C49.7564 59.9933 49.1257 65.5863 49.2781 71.1855C49.187 76.0466 49.9334 80.8872 51.4847 85.495C52.6753 88.8816 54.5009 92.0099 56.8637 94.7124C60.5177 98.8723 65.6999 102.239 72.7599 104.546C79.8235 106.855 88.7732 108.124 100.078 108.125C110.127 108.125 118.315 107.121 124.973 105.277C134.952 102.52 141.522 97.8158 145.511 91.8325C149.503 85.8526 150.888 78.7169 150.888 71.1855C150.993 66.2064 150.522 61.2318 149.484 56.361C148.666 52.7084 147.201 49.2318 145.158 46.0956ZM146.232 84.6179C145.151 87.6962 143.493 90.5397 141.345 92.9957C138.036 96.757 133.305 99.876 126.59 102.074C119.878 104.271 111.189 105.526 100.078 105.525C90.202 105.526 82.2395 104.534 75.8791 102.771C66.3315 100.117 60.4222 95.7817 56.814 90.3886C53.209 84.9921 51.8783 78.4141 51.8781 71.1856C51.7737 66.4085 52.221 61.6354 53.2113 56.961C53.9583 53.6084 55.2995 50.4166 57.1716 47.5368C60.045 43.2308 64.4169 39.5536 71.2702 36.8989C78.1201 34.2496 87.4531 32.6639 100.078 32.6653C111.302 32.6644 119.926 33.9163 126.515 36.0561C130.763 37.3387 134.726 39.4257 138.187 42.2035C142.242 45.6063 145.15 50.1759 146.516 55.2905C147.842 60.4808 148.439 65.8307 148.288 71.1856C148.378 75.7478 147.683 80.2916 146.232 84.6179Z"/><path id="Vector_2" d="M168.171 12.5752C167.439 12.0863 166.597 11.7873 165.721 11.7053C165.495 11.6802 165.269 11.6677 165.042 11.6676C163.792 11.645 162.578 12.082 161.629 12.8956C160.527 13.9397 159.87 15.3688 159.796 16.8851C159.387 21.1131 158.044 37.4286 157.175 48.0648C157.016 47.4547 156.856 46.8448 156.676 46.2448C153.865 36.8181 148.447 28.6701 139.329 22.9802C130.214 17.2849 117.499 14.0362 100.078 14.0353C88.4635 14.0358 78.9489 15.4801 71.1889 18.13C59.5498 22.094 51.8682 28.8362 47.2095 37.2883C45.2624 40.8721 43.7919 44.695 42.8353 48.6598C41.9687 38.0482 40.5817 21.1937 40.1651 16.8851C40.091 15.3688 39.4344 13.9397 38.3324 12.8956C37.3834 12.082 36.1688 11.645 34.9191 11.6676C34.6919 11.6676 34.465 11.6803 34.2393 11.7054C33.0391 11.8042 31.9148 12.3322 31.0722 13.1925C30.6073 13.6947 30.2551 14.2904 30.0393 14.9398C29.7951 15.688 29.6765 16.4715 29.6883 17.2584C29.6883 17.4775 29.6959 17.7035 29.7112 17.9364C30.043 22.9926 31.5697 40.8427 32.5042 50.7398C32.6367 53.1971 33.2122 55.6102 34.2031 57.8627C34.5496 58.5868 35.0162 59.2469 35.5831 59.8153C34.9918 60.2707 34.4842 60.8256 34.0831 61.455C33.5628 62.3989 33.2199 63.43 33.0713 64.4975C32.8437 65.8872 32.7351 67.2939 32.7468 68.7022C32.7499 70.1311 32.8356 71.5586 33.0033 72.9777C33.2673 75.3774 33.8062 77.7389 34.6094 80.0156C34.9181 80.883 35.2985 81.7233 35.7466 82.5276C36.0942 83.178 36.5503 83.7644 37.0951 84.2616C38.3123 85.1856 39.7275 85.8143 41.2291 86.0983C41.9732 86.2669 42.7278 86.3853 43.4879 86.4525C43.4999 86.4918 43.5095 86.5324 43.5217 86.5716C46.2365 95.9548 52.4863 103.919 60.9553 108.786C68.5568 113.229 78.6396 116.016 91.8183 116.824L91.8182 119.394C88.8346 119.581 86.0551 119.831 83.7408 120.145C82.4239 120.323 81.2537 120.521 80.261 120.741C79.4151 120.908 78.5897 121.167 77.7995 121.512C77.1983 121.826 76.6872 122.289 76.3145 122.856C75.7536 123.696 75.2957 124.601 74.9508 125.551C74.8801 125.56 74.8074 125.562 74.7378 125.573C74.6668 124.904 74.454 124.258 74.1137 123.677C73.8346 123.221 73.4509 122.838 72.9945 122.56C72.5084 122.272 71.9627 122.1 71.3995 122.057C70.998 122.021 70.5962 122.003 70.194 122.002C68.2043 121.995 66.2423 122.469 64.4755 123.384C61.3844 125.127 58.9102 127.785 57.3942 130.993C55.1438 135.652 53.7123 140.663 53.1624 145.808C53.0263 146.811 53.2306 147.831 53.7427 148.704C54.2547 149.577 55.0449 150.253 55.9868 150.624C55.5016 150.798 55.0366 151.024 54.5998 151.297C53.98 151.683 53.4738 152.226 53.1327 152.872C52.7254 153.754 52.4337 154.685 52.2649 155.642C51.715 159.054 51.4678 162.507 51.5262 165.961C51.5263 168.19 51.5948 169.78 51.5954 169.793L51.5961 169.809C51.6206 170.902 51.9993 171.958 52.6752 172.818C53.4075 173.663 54.4237 174.212 55.5324 174.361C55.8215 174.408 56.139 174.452 56.4697 174.494C56.4016 174.66 56.3687 174.838 56.3731 175.017L56.373 175.017C56.4116 175.656 56.5084 176.291 56.6623 176.912C56.8973 177.952 57.2369 179.123 57.5582 180.137C57.7188 180.644 57.8747 181.11 58.0113 181.499C58.149 181.891 58.2625 182.195 58.3586 182.421C58.6627 183.063 59.108 183.628 59.6611 184.074C60.4759 184.742 61.3587 185.323 62.2948 185.807C63.1884 186.288 64.0346 186.68 64.5572 186.931C65.186 187.2 65.8664 187.327 66.55 187.304C67.4 187.288 68.2467 187.192 69.0786 187.017C69.4055 186.952 69.6795 186.888 69.8889 186.836C69.9707 187.674 70.0581 188.497 70.1582 189.288C70.1796 189.458 70.2342 189.621 70.3188 189.769C70.4034 189.918 70.5164 190.048 70.6513 190.152C70.7863 190.257 70.9405 190.334 71.1051 190.379C71.2698 190.424 71.4417 190.436 71.6111 190.415C71.7805 190.393 71.944 190.339 72.0923 190.254C72.2405 190.17 72.3707 190.057 72.4753 189.922C72.5799 189.787 72.6569 189.632 72.7019 189.468C72.7469 189.303 72.7591 189.131 72.7376 188.962L72.7376 188.962C72.1305 183.645 71.8479 178.296 71.8915 172.945C71.8915 172.796 71.8937 172.645 71.894 172.495C75.8412 173.636 79.8899 174.39 83.9831 174.747C89.2666 175.262 94.5728 175.509 99.8813 175.487C106.73 175.504 113.574 175.14 120.382 174.396C122.894 174.103 125.098 173.759 126.945 173.376C127.042 173.366 127.136 173.362 127.233 173.351C127.337 173.331 127.438 173.298 127.534 173.253C127.618 173.234 127.715 173.217 127.797 173.198C128.676 173.005 129.542 172.758 130.391 172.46C130.416 172.451 130.434 172.441 130.458 172.432C130.458 172.587 130.461 172.744 130.461 172.898C130.505 178.265 130.22 183.629 129.608 188.961C129.586 189.13 129.598 189.302 129.643 189.467C129.688 189.632 129.765 189.786 129.87 189.921C129.974 190.056 130.104 190.169 130.252 190.254C130.401 190.338 130.564 190.393 130.733 190.415C130.903 190.436 131.075 190.424 131.24 190.379C131.404 190.334 131.558 190.258 131.693 190.153C131.828 190.049 131.942 189.918 132.026 189.77C132.111 189.622 132.166 189.459 132.187 189.289C132.288 188.5 132.375 187.678 132.457 186.842C132.664 186.893 132.928 186.954 133.244 187.017C134.075 187.192 134.922 187.288 135.772 187.304C136.455 187.328 137.136 187.201 137.764 186.932C138.465 186.595 139.727 186.016 140.933 185.293C141.543 184.936 142.121 184.528 142.661 184.074C143.214 183.628 143.66 183.063 143.964 182.421C144.09 182.123 144.254 181.672 144.453 181.086C144.749 180.213 145.104 179.08 145.395 177.985C145.54 177.437 145.67 176.9 145.768 176.403C145.865 175.946 145.926 175.483 145.949 175.017C145.953 174.838 145.921 174.66 145.852 174.495C146.184 174.452 146.501 174.408 146.791 174.361C147.899 174.212 148.915 173.663 149.647 172.818C150.323 171.958 150.702 170.902 150.726 169.809L150.727 169.793C150.727 169.78 150.796 168.189 150.796 165.96C150.795 163.944 150.74 161.409 150.524 159.029C150.427 157.893 150.272 156.762 150.057 155.642C149.889 154.685 149.597 153.754 149.19 152.872C148.849 152.226 148.342 151.683 147.722 151.297C147.29 151.023 146.831 150.795 146.351 150.617C147.288 150.243 148.073 149.567 148.582 148.696C149.091 147.825 149.294 146.808 149.16 145.808C148.031 137.464 145.82 131.584 142.844 127.699C141.517 125.909 139.81 124.436 137.846 123.384C136.08 122.469 134.118 121.995 132.128 122.002C131.726 122.002 131.324 122.02 130.922 122.057C130.365 122.1 129.825 122.269 129.342 122.551C128.674 122.962 128.162 123.585 127.888 124.32C127.735 124.724 127.631 125.144 127.58 125.573C127.521 125.563 127.459 125.562 127.4 125.554C127.287 125.264 127.174 124.972 127.058 124.708C126.772 124.037 126.417 123.398 125.999 122.8C125.633 122.258 125.138 121.815 124.558 121.512C123.737 121.158 122.881 120.894 122.004 120.726C118.009 119.99 113.967 119.533 109.909 119.358V116.71C116.336 116.309 122.696 115.166 128.861 113.304C140.475 109.633 148.191 103.329 152.89 95.2183C154.5 92.4097 155.782 89.4254 156.712 86.324C156.905 86.4215 157.12 86.4678 157.337 86.4583C158.121 86.3934 158.9 86.2731 159.668 86.0983C161.17 85.8143 162.586 85.1854 163.803 84.2612C164.348 83.7641 164.804 83.1778 165.151 82.5276C165.849 81.2462 166.399 79.8899 166.791 78.4846C167.313 76.6834 167.683 74.8413 167.895 72.9779C168.062 71.5591 168.148 70.1318 168.151 68.7032C168.163 67.2947 168.054 65.8878 167.826 64.4978C167.678 63.4301 167.334 62.3987 166.814 61.4548C166.268 60.616 165.548 59.9049 164.702 59.3703C164.688 59.3613 164.674 59.3547 164.66 59.3458C165.396 58.512 165.958 57.5393 166.312 56.4851C166.932 54.6253 167.317 52.6953 167.457 50.74C168.391 40.8427 169.919 22.9926 170.25 17.9355C170.265 17.7035 170.273 17.4786 170.273 17.2595C170.285 16.4724 170.166 15.6888 169.922 14.9405C169.611 13.983 168.996 13.1528 168.171 12.5752ZM35.0926 50.4953C34.1609 40.6317 32.632 22.7484 32.3056 17.7655C32.2938 17.5869 32.2884 17.4185 32.2884 17.2585C32.2771 16.7583 32.3482 16.2597 32.4989 15.7827C32.6288 15.3509 32.8994 14.9749 33.2676 14.7146C33.6454 14.4712 34.0777 14.3252 34.5257 14.2896C34.6563 14.275 34.7877 14.2677 34.9191 14.2676C35.5357 14.2452 36.1389 14.4511 36.613 14.8459C37.2191 15.455 37.5649 16.2758 37.5772 17.135C37.8837 20.3038 38.7326 30.4744 39.5031 39.834C39.8885 44.5154 40.2546 48.9975 40.5244 52.3092C40.7331 54.8711 40.8827 56.7154 40.9405 57.4279C40.1535 57.6146 39.38 57.8539 38.625 58.1441C38.428 58.2204 38.2195 58.3219 38.0157 58.4107C37.3461 58.0186 36.8237 57.4176 36.5287 56.7C35.6854 54.7334 35.1991 52.6324 35.0926 50.4953ZM41.5965 83.5141C40.5785 83.3105 39.6166 82.8891 38.7768 82.2787C38.4656 81.9746 38.2047 81.623 38.0037 81.2371C37.4072 80.1307 36.9365 78.9609 36.6004 77.7497C36.1202 76.0901 35.7808 74.3929 35.5857 72.6763C35.4297 71.3573 35.35 70.0304 35.3469 68.7022C35.3355 67.4446 35.4309 66.1884 35.6322 64.947C35.7295 64.2061 35.9535 63.4875 36.2944 62.8226C36.6437 62.3045 37.0994 61.8667 37.631 61.5383C38.5249 60.9782 39.4908 60.5423 40.5022 60.2424C40.7125 60.1769 40.9072 60.1216 41.0845 60.0737C40.933 62.2019 40.8575 64.3625 40.8578 66.5556C40.7879 72.3394 41.4206 78.1102 42.7418 83.7415C42.4065 83.6884 42.0135 83.6154 41.5965 83.5141H41.5965ZM60.545 149.408C60.7909 149.055 61.1179 148.765 61.4987 148.563C61.8795 148.361 62.303 148.253 62.7339 148.248L62.9606 148.258C63.4539 148.303 63.9255 148.482 64.3242 148.776C64.7229 149.07 65.0335 149.468 65.2223 149.926L65.2173 150.032C64.0167 149.845 62.8035 149.751 61.5884 149.75C61.2346 149.751 60.8849 149.765 60.5365 149.781L60.545 149.408ZM70.2775 151.7L70.2595 151.688L70.2793 151.679L70.2775 151.7ZM72.3779 132.206C72.3699 131.175 72.6904 130.169 73.293 129.334C73.473 129.1 73.6829 128.891 73.9173 128.712C73.7322 129.374 73.5504 130.066 73.3736 130.802L73.3748 130.797L73.365 130.837L73.3622 130.849C73.1397 131.8 72.9215 132.814 72.7091 133.879C72.4961 133.346 72.3837 132.779 72.3779 132.206H72.3779ZM55.739 146.156C56.8219 138.094 58.9592 132.635 61.5404 129.282C62.6346 127.795 64.0449 126.57 65.6696 125.694C67.0672 124.969 68.6198 124.595 70.194 124.602C70.5161 124.602 70.8407 124.617 71.1679 124.646C71.3362 124.654 71.5003 124.701 71.6473 124.784C71.8268 124.904 71.959 125.082 72.0214 125.289C72.1579 125.696 72.221 126.123 72.2077 126.552L72.2043 126.739C71.5347 127.297 70.9869 127.987 70.5946 128.765C70.0559 129.832 69.7761 131.011 69.7779 132.206C69.7724 133.297 70.0163 134.375 70.4909 135.358C70.8736 136.141 71.4098 136.839 72.0676 137.411C71.5596 140.443 71.1048 143.774 70.7185 147.291C70.6631 147.402 70.6245 147.522 70.604 147.645C70.5427 148.139 70.2957 148.59 69.913 148.908C69.5208 149.245 69.022 149.431 68.5052 149.435L68.3458 149.429L67.7788 149.373C67.7721 149.348 67.7767 149.322 67.7683 149.296C67.4422 148.309 66.834 147.44 66.0189 146.795C65.2038 146.15 64.2176 145.758 63.1821 145.667C63.0336 145.655 62.8834 145.648 62.7338 145.648C61.7976 145.65 60.8785 145.899 60.0693 146.37C59.2602 146.841 58.5897 147.517 58.1258 148.331C58.1101 148.358 58.1028 148.39 58.0891 148.419L57.3961 148.351C56.9336 148.277 56.5119 148.043 56.2055 147.689C55.8991 147.335 55.7276 146.884 55.7213 146.416L55.739 146.156ZM54.6737 171.154C54.357 170.724 54.1882 170.202 54.1924 169.667C54.1916 169.651 54.1884 169.572 54.1827 169.411C54.164 168.877 54.1261 167.593 54.1262 165.961C54.126 163.995 54.1817 161.521 54.3877 159.265C54.4756 158.221 54.6179 157.183 54.8141 156.154C54.9396 155.424 55.1557 154.713 55.4573 154.036C55.5945 153.802 55.7902 153.608 56.0251 153.472C56.7239 153.064 57.4909 152.786 58.289 152.651C59.3763 152.443 60.4814 152.342 61.5884 152.35C63.6136 152.328 65.6287 152.639 67.5532 153.27C68.2074 153.483 68.8192 153.809 69.3606 154.234C69.5075 154.354 69.6333 154.499 69.7328 154.661C69.7879 154.75 69.8207 154.852 69.8281 154.957C69.8389 155.136 69.8869 155.311 69.9691 155.47C69.5674 160.854 69.3306 166.399 69.2984 171.724C69.1261 171.792 68.9485 171.846 68.7674 171.885C68.0148 172.043 67.2515 172.144 66.4839 172.189C65.5533 172.256 64.4944 172.288 63.4022 172.288C60.9118 172.304 58.4234 172.139 55.9568 171.796C55.4641 171.749 55.0064 171.521 54.6737 171.154ZM69.5877 184.23L69.5754 184.233C69.4944 184.255 69.0423 184.377 68.4538 184.49C67.8268 184.618 67.1897 184.689 66.5499 184.704C66.2553 184.719 65.9603 184.68 65.6805 184.586C64.9552 184.239 63.7762 183.694 62.7267 183.063C62.2457 182.783 61.789 182.463 61.3611 182.107C61.112 181.915 60.9041 181.675 60.75 181.401C60.679 181.237 60.515 180.795 60.3313 180.251C60.0527 179.429 59.7107 178.335 59.4402 177.317C59.3049 176.808 59.1875 176.318 59.1046 175.899C59.0365 175.584 58.9921 175.265 58.9719 174.944C58.9618 174.871 58.9452 174.8 58.9223 174.73C60.3416 174.83 61.8906 174.887 63.4022 174.888C65.0408 174.906 66.6787 174.814 68.3048 174.611C68.6589 174.559 68.9888 174.501 69.2998 174.43C69.3138 176.266 69.3533 178.066 69.4219 179.813C69.0308 179.865 68.6368 179.893 68.2422 179.897C67.9936 179.902 67.7451 179.88 67.5016 179.83C67.271 179.298 66.97 178.565 66.7146 177.931C66.423 177.208 66.1943 176.627 66.1938 176.626C66.0668 176.306 65.8183 176.049 65.5025 175.912C65.1868 175.775 64.8296 175.769 64.5094 175.895C64.1891 176.021 63.9319 176.269 63.7941 176.584C63.6564 176.9 63.6492 177.257 63.7743 177.578L63.7743 177.577C63.7784 177.587 64.6974 179.926 65.2209 181.105C65.3752 181.446 65.6208 181.738 65.9307 181.947C66.29 182.183 66.6953 182.339 67.1197 182.407C67.4904 182.47 67.8661 182.5 68.2422 182.497C68.6792 182.493 69.1157 182.467 69.5498 182.417C69.5851 183.027 69.6242 183.629 69.6672 184.223C69.6404 184.229 69.6144 184.222 69.5877 184.23ZM84.251 172.161C84.1952 172.155 84.1418 172.148 84.0862 172.142C86.4347 171.328 88.7068 170.31 91.1843 169.457C94.3516 168.31 97.6932 167.716 101.062 167.704C105.44 167.776 109.76 168.726 113.764 170.498C115.125 171.031 116.458 171.576 117.82 172.054C112.55 172.572 106.245 172.888 99.8813 172.887C94.6623 172.909 89.4455 172.666 84.251 172.161V172.161ZM141.756 148.838C141.764 149.157 141.772 149.477 141.78 149.796C141.431 149.78 141.088 149.75 140.734 149.75C139.432 149.754 138.132 149.864 136.848 150.081C136.796 149.871 136.743 149.66 136.691 149.45C136.877 149.283 137.075 149.13 137.283 148.993C137.979 148.523 138.798 148.269 139.638 148.262L139.661 148.262C140.398 148.271 141.119 148.469 141.756 148.838V148.838ZM129.631 133.827C129.384 132.586 129.127 131.409 128.86 130.325C128.722 129.768 128.582 129.233 128.439 128.721C128.846 129.057 129.177 129.476 129.412 129.948C129.763 130.649 129.946 131.423 129.944 132.207C129.938 132.761 129.832 133.31 129.631 133.827ZM143.35 174.944L143.35 174.944C143.314 175.415 143.238 175.882 143.124 176.34C142.916 177.264 142.591 178.388 142.286 179.352C142.133 179.834 141.984 180.278 141.858 180.638C141.732 180.995 141.624 181.28 141.572 181.4C141.418 181.675 141.21 181.915 140.961 182.107C140.289 182.65 139.563 183.123 138.794 183.518C137.982 183.956 137.188 184.325 136.641 184.587C136.361 184.68 136.067 184.719 135.772 184.704C135.093 184.687 134.417 184.608 133.753 184.467C133.449 184.407 133.189 184.346 133.007 184.3C132.917 184.278 132.846 184.259 132.799 184.247L132.747 184.233L132.735 184.229C132.717 184.224 132.699 184.23 132.681 184.225C132.724 183.632 132.764 183.03 132.799 182.419C133.224 182.468 133.652 182.494 134.08 182.497C134.589 182.507 135.096 182.446 135.589 182.317C135.874 182.238 136.145 182.113 136.391 181.947C136.701 181.738 136.947 181.446 137.101 181.105C137.624 179.926 138.545 177.587 138.549 177.578C138.613 177.419 138.644 177.249 138.642 177.077C138.64 176.906 138.604 176.736 138.536 176.579C138.469 176.421 138.37 176.279 138.247 176.159C138.124 176.04 137.978 175.946 137.819 175.883C137.659 175.82 137.489 175.79 137.317 175.793C137.146 175.796 136.977 175.834 136.82 175.903C136.663 175.971 136.521 176.071 136.402 176.195C136.284 176.319 136.191 176.465 136.13 176.625L136.129 176.625C136.129 176.626 135.9 177.208 135.608 177.931C135.352 178.564 135.051 179.297 134.821 179.829C134.772 179.842 134.722 179.852 134.671 179.86C134.475 179.886 134.277 179.899 134.08 179.897C133.695 179.892 133.31 179.864 132.928 179.813C132.997 178.065 133.038 176.264 133.052 174.426C133.876 174.602 134.711 174.718 135.552 174.774C136.591 174.853 137.741 174.888 138.92 174.888C140.432 174.887 141.98 174.83 143.4 174.73C143.377 174.8 143.36 174.871 143.35 174.944ZM146.865 154.037C147.167 154.713 147.383 155.424 147.508 156.153C148.022 159.396 148.252 162.678 148.196 165.96C148.196 167.048 148.179 167.982 148.162 168.642C148.154 168.972 148.145 169.233 148.139 169.411C148.134 169.572 148.13 169.651 148.13 169.668C148.134 170.202 147.965 170.724 147.649 171.154C147.316 171.52 146.859 171.749 146.366 171.795C143.899 172.139 141.411 172.304 138.92 172.288C137.405 172.306 135.891 172.222 134.388 172.038C133.945 171.984 133.508 171.888 133.084 171.749L133.054 171.736C133.023 166.384 132.785 160.808 132.379 155.398C132.443 155.259 132.483 155.11 132.494 154.957L132.494 154.957C132.502 154.852 132.534 154.75 132.59 154.661C132.818 154.325 133.126 154.051 133.485 153.862C134.464 153.329 135.522 152.956 136.619 152.758C137.973 152.485 139.352 152.348 140.734 152.35C142.156 152.327 143.574 152.505 144.946 152.879C145.422 153.013 145.877 153.212 146.297 153.472C146.532 153.608 146.728 153.802 146.865 154.037L146.865 154.037ZM130.424 125.039C130.486 124.934 130.574 124.846 130.678 124.782C130.824 124.701 130.987 124.655 131.154 124.646C131.481 124.617 131.806 124.602 132.128 124.602C133.702 124.595 135.255 124.969 136.652 125.694C139.268 127.192 141.355 129.465 142.624 132.199C144.733 136.59 146.072 141.311 146.583 146.155L146.6 146.415C146.594 146.883 146.423 147.334 146.116 147.688C145.81 148.043 145.388 148.277 144.926 148.351L144.347 148.408L144.339 148.093C144.334 147.897 144.284 147.705 144.195 147.531C144.106 147.357 143.978 147.205 143.822 147.087C142.628 146.181 141.176 145.682 139.677 145.662L139.638 145.662C138.293 145.669 136.979 146.071 135.86 146.817C135.263 147.205 134.725 147.675 134.26 148.214C134.127 148.372 134.033 148.559 133.986 148.76C133.94 148.961 133.941 149.17 133.991 149.37L134.006 149.432C133.997 149.432 133.989 149.428 133.98 149.429L133.98 149.429L133.817 149.435C133.3 149.432 132.801 149.245 132.409 148.908C132.027 148.59 131.78 148.139 131.719 147.645C131.702 147.571 131.679 147.499 131.649 147.43C131.258 143.855 130.796 140.467 130.279 137.39C130.926 136.822 131.454 136.132 131.832 135.359C132.306 134.376 132.55 133.298 132.544 132.207C132.554 130.611 132.049 129.054 131.104 127.767C130.803 127.379 130.455 127.029 130.069 126.725C130.091 126.654 130.106 126.581 130.115 126.508L130.115 126.508C130.087 126 130.193 125.493 130.424 125.039H130.424ZM121.45 123.266C122.132 123.395 122.799 123.594 123.44 123.859C123.623 123.982 123.779 124.143 123.896 124.33C124.401 125.097 124.805 125.926 125.099 126.796C125.587 128.156 126 129.542 126.336 130.948C126.762 132.682 127.173 134.672 127.548 136.84C127.545 137.002 127.573 137.163 127.63 137.315C129.342 147.993 130.278 158.781 130.431 169.595C130.135 169.765 129.823 169.907 129.5 170.017C128.548 170.342 127.575 170.603 126.587 170.798C126.104 170.843 125.631 170.871 125.171 170.871C123.406 170.852 121.655 170.567 119.975 170.026C117.43 169.256 114.846 168.044 111.821 167C108.37 165.757 104.731 165.116 101.062 165.104C96.3725 165.177 91.745 166.188 87.4523 168.078C85.6102 168.805 83.9108 169.513 82.2444 170.027C80.617 170.564 78.9172 170.848 77.204 170.87C76.5979 170.87 75.9926 170.83 75.3917 170.751C74.2179 170.486 73.0587 170.16 71.9189 169.774C72.0668 158.863 73.0088 147.978 74.7375 137.204C74.7581 137.127 74.7711 137.048 74.7765 136.968C75.1277 134.952 75.5059 133.099 75.8934 131.444L75.9007 131.413L75.9019 131.409C76.3204 129.527 76.8924 127.684 77.6124 125.896C77.8328 125.359 78.1074 124.846 78.4318 124.365C78.5545 124.164 78.7191 123.992 78.9144 123.86L78.9205 123.857C79.5339 123.6 80.1723 123.406 80.8255 123.279C83.472 122.761 86.148 122.406 88.8382 122.216C92.133 125.032 96.3308 126.568 100.665 126.544C103.111 126.536 105.537 126.096 107.831 125.245C109.645 124.611 111.328 123.65 112.797 122.411C112.865 122.34 112.924 122.26 112.973 122.174C114.818 122.323 116.534 122.497 118.034 122.695C119.358 122.87 120.518 123.063 121.45 123.266H121.45ZM108.322 122.218C107.886 122.426 107.421 122.625 106.928 122.807C104.923 123.551 102.803 123.935 100.665 123.944C97.9575 123.961 95.2933 123.266 92.9397 121.928L93.0489 121.922C93.0731 121.923 93.0937 121.936 93.1183 121.936C93.3845 121.935 93.6437 121.851 93.8606 121.697C94.0775 121.543 94.2414 121.325 94.3298 121.074C94.3437 121.022 94.3544 120.969 94.3618 120.916C94.3913 120.825 94.4103 120.731 94.4183 120.636H94.4183V116.958C96.25 117.032 98.1304 117.075 100.078 117.075C102.591 117.075 104.988 117.001 107.308 116.879V120.976C107.311 121.267 107.413 121.549 107.597 121.775C107.781 122.001 108.037 122.157 108.322 122.218H108.322ZM137.896 106.542C129.337 111.551 117.125 114.477 100.078 114.475C88.719 114.476 79.4999 113.177 72.0866 110.825C60.9634 107.286 53.9108 101.448 49.5243 93.9127C45.1436 86.3743 43.4561 77.0349 43.4579 66.5556C43.3501 59.9463 44.1997 53.3562 45.9803 46.9903C48.671 38.033 53.6642 30.5399 62.2129 25.1848C70.765 19.8348 82.9729 16.6346 100.078 16.6354C111.481 16.6349 120.716 18.0569 128.133 20.5905C139.259 24.4017 146.304 30.6484 150.68 38.5458C155.05 46.4457 156.71 56.0788 156.708 66.5556C156.828 73.0613 155.97 79.5481 154.161 85.7987C151.643 94.5648 145.808 102.005 137.896 106.542L137.896 106.542ZM165.265 64.9475C165.467 66.1891 165.562 67.4455 165.551 68.7033C165.548 70.0313 165.468 71.358 165.312 72.6768C165.071 74.8744 164.58 77.0372 163.846 79.1228C163.588 79.8526 163.269 80.5598 162.894 81.2371C162.693 81.6228 162.432 81.9742 162.122 82.2783C161.22 82.9247 160.187 83.3632 159.095 83.5621C158.553 83.6847 158.059 83.7616 157.706 83.8066C157.586 83.822 157.49 83.8326 157.406 83.8413C158.742 78.1784 159.381 72.3735 159.308 66.5556C159.308 64.2998 159.226 62.0784 159.062 59.8912C159.88 60.0675 160.681 60.3104 161.458 60.6175C162.111 60.87 162.736 61.1909 163.321 61.5748C163.83 61.8971 164.267 62.3221 164.602 62.8227C164.944 63.4877 165.168 64.2065 165.265 64.9475L165.265 64.9475ZM167.656 17.7663C167.33 22.7484 165.8 40.6317 164.869 50.4954C164.772 52.5956 164.288 54.6598 163.441 56.5841C163.228 57.0205 162.942 57.4178 162.596 57.7591C162.458 57.8882 162.308 58.0026 162.147 58.1005C161.804 57.9716 161.472 57.855 161.169 57.76C160.579 57.5731 159.978 57.42 159.37 57.3014C159.257 57.2885 159.143 57.2909 159.031 57.3087C159.095 56.5202 159.24 54.7354 159.437 52.3092C160.246 42.3787 161.924 21.8946 162.384 17.1352C162.396 16.2759 162.742 15.455 163.348 14.8458C163.822 14.451 164.426 14.2451 165.042 14.2675C165.173 14.2676 165.304 14.2749 165.434 14.2894C166.02 14.321 166.573 14.5635 166.993 14.972C167.206 15.2055 167.366 15.4821 167.462 15.7831C167.613 16.2604 167.684 16.7591 167.673 17.2595C167.673 17.4187 167.667 17.5877 167.656 17.7663L167.656 17.7663Z"/><path id="Vector_3" d="M77.7969 121.514L77.8009 121.512L77.8029 121.511L77.7969 121.514Z"/><path id="Vector_4" d="M133.171 92.1797L133.171 92.1796C132.907 92.3619 132.639 92.5394 132.365 92.7121L132.362 92.7138C131.071 93.525 129.713 94.2239 128.303 94.8028C127.993 94.9304 127.679 95.054 127.36 95.1736C127.2 95.2334 127.054 95.3242 126.929 95.4406C126.804 95.5571 126.703 95.697 126.632 95.8524C126.562 96.0078 126.522 96.1756 126.516 96.3462C126.511 96.5168 126.538 96.6869 126.598 96.8468C126.658 97.0067 126.749 97.1532 126.865 97.278C126.982 97.4029 127.122 97.5035 127.277 97.5742C127.432 97.645 127.6 97.6844 127.771 97.6903C127.941 97.6962 128.111 97.6685 128.271 97.6086C128.619 97.4784 128.959 97.3444 129.294 97.2068L129.297 97.2054C130.845 96.5696 132.334 95.8023 133.75 94.9119C134.058 94.7185 134.357 94.5206 134.65 94.3184C134.79 94.2213 134.91 94.0975 135.002 93.9541C135.095 93.8107 135.158 93.6504 135.189 93.4825C135.22 93.3146 135.217 93.1422 135.181 92.9754C135.145 92.8085 135.077 92.6503 134.98 92.5099C134.883 92.3695 134.759 92.2495 134.615 92.1569C134.472 92.0643 134.312 92.0009 134.144 91.9702C133.976 91.9396 133.804 91.9423 133.637 91.9782C133.47 92.0142 133.312 92.0826 133.171 92.1797V92.1797Z"/><path id="Vector_5" d="M133.751 94.911L133.749 94.912L133.748 94.913L133.751 94.911Z"/><path id="Vector_6" d="M82.5077 37.7755C77.6847 38.5426 73.0046 40.0311 68.6246 42.1911C68.3186 42.3494 68.088 42.6226 67.9833 42.9508C67.8787 43.279 67.9085 43.6353 68.0664 43.9414C68.2242 44.2476 68.497 44.4787 68.8251 44.5838C69.1531 44.689 69.5094 44.6596 69.8158 44.5023L69.8158 44.5022C73.9636 42.4625 78.3945 41.058 82.96 40.3358C83.129 40.3072 83.2907 40.2453 83.4358 40.1539C83.5809 40.0625 83.7064 39.9433 83.8052 39.8031C83.904 39.663 83.974 39.5046 84.0114 39.3373C84.0487 39.1699 84.0526 38.9969 84.0228 38.828C83.993 38.6592 83.93 38.4979 83.8376 38.3535C83.7452 38.209 83.6251 38.0843 83.4843 37.9865C83.3435 37.8887 83.1847 37.8197 83.0171 37.7835C82.8495 37.7473 82.6764 37.7446 82.5077 37.7755L82.5077 37.7755Z"/><path id="Vector_7" d="M62.1992 46.5902C61.193 47.502 60.2614 48.4929 59.4133 49.5532C59.1981 49.8226 59.0987 50.1664 59.1369 50.5091C59.1752 50.8517 59.3481 51.1651 59.6174 51.3804C59.8868 51.5956 60.2306 51.695 60.5733 51.6567C60.9159 51.6184 61.2293 51.4456 61.4445 51.1762L61.4445 51.1762C62.2063 50.2239 63.0431 49.3341 63.9467 48.5152C64.1989 48.2827 64.349 47.9599 64.3642 47.6172C64.3794 47.2745 64.2586 46.9397 64.028 46.6857C63.7974 46.4317 63.4758 46.2792 63.1333 46.2613C62.7907 46.2434 62.455 46.3616 62.1992 46.5902V46.5902Z"/><path id="Vector_8" d="M138.761 63.4881C138.753 63.4654 138.743 63.4456 138.734 63.4236C138.718 63.3771 138.699 63.3318 138.676 63.2881L129.307 47.5552C129.234 47.4319 129.134 47.3258 129.016 47.2442C128.898 47.1626 128.763 47.1073 128.622 47.082L100.889 42.1958C100.538 42.2916 100.169 42.2916 99.8182 42.1958L72.0853 47.0811C71.9463 47.1054 71.8142 47.1589 71.6974 47.238C71.5807 47.3172 71.4821 47.4202 71.4081 47.5402L61.1122 64.2013C61.0835 64.2536 61.0597 64.3083 61.0409 64.3649C61.0267 64.3934 61.014 64.4227 61.0027 64.4525C60.9754 64.5465 60.9619 64.644 60.9629 64.7419L61.2031 80.825L61.2018 80.8305L61.2032 80.8383L61.2037 80.865C61.2099 80.9044 61.2185 80.9435 61.2295 80.9819C61.2368 81.0723 61.2565 81.1613 61.288 81.2464C61.3083 81.2813 61.3307 81.3149 61.355 81.3471C61.3927 81.4238 61.4402 81.4952 61.4964 81.5596L71.7196 91.7266C71.7499 91.7489 71.7814 91.7695 71.8139 91.7883C71.834 91.8043 71.8449 91.8272 71.8665 91.8419C71.892 91.8592 71.922 91.8616 71.9485 91.8762C71.9835 91.9025 72.0202 91.9265 72.0583 91.948L88.2922 98.3396C88.3002 98.3427 88.309 98.3414 88.3169 98.3443C88.372 98.3599 88.4283 98.3706 88.4853 98.3762C88.542 98.3923 88.6 98.4033 88.6586 98.4091H101.201L101.203 98.4086H112.054C112.111 98.4029 112.168 98.3921 112.223 98.3765C112.282 98.3709 112.34 98.3598 112.397 98.3434C112.405 98.3407 112.413 98.342 112.42 98.3391L128.646 91.948C128.801 91.8873 128.939 91.7881 129.046 91.6597L138.341 80.565C138.363 80.5306 138.383 80.4947 138.4 80.4577C138.486 80.2944 138.545 80.1186 138.576 79.9368L138.817 63.8148C138.817 63.7035 138.798 63.5931 138.761 63.4881ZM135.995 62.6948C133.067 62.5286 130.139 62.3624 127.211 62.196C127.209 61.9859 127.207 61.7758 127.199 61.5657L127.199 61.5614C127.118 59.0059 126.504 56.4956 125.397 54.1909C126.411 52.7962 127.425 51.4013 128.439 50.0063L135.995 62.6948ZM119.812 79.0214L110.684 80.3924C110.569 80.334 110.446 80.2908 110.32 80.264C110.293 80.2589 110.267 80.2563 110.24 80.2511L113.495 72.7073C113.984 73.1929 114.537 73.6082 115.141 73.9409C116.184 74.5017 117.351 74.7911 118.535 74.7824C118.658 74.7824 118.783 74.7795 118.909 74.7738C118.956 74.7717 119.001 74.7633 119.047 74.7603L119.812 79.0214ZM124.201 61.6875C124.212 61.9436 124.217 62.1999 124.217 62.4564C124.22 63.5574 124.12 64.6561 123.917 65.7383C123.691 66.9719 123.258 68.1583 122.636 69.2475C122.15 70.1185 121.43 70.8361 120.558 71.319C120.002 71.5978 119.393 71.754 118.772 71.7769L118.535 71.7824C117.85 71.7917 117.173 71.6265 116.568 71.3024C115.958 70.9595 115.429 70.4886 115.018 69.9221L115.016 69.9198C113.681 67.886 112.98 65.5021 112.999 63.0695L112.999 63.0636C112.992 62.8594 112.989 62.655 112.988 62.4502C112.924 59.8538 113.563 57.2883 114.839 55.026C114.845 55.0165 114.846 55.0053 114.852 54.9958C115.278 54.2823 115.846 53.6636 116.52 53.1777C117.127 52.7524 117.841 52.5048 118.582 52.4626L118.586 52.4624L118.82 52.4547C119.56 52.4537 120.28 52.6976 120.867 53.1483C121.588 53.7155 122.176 54.4329 122.592 55.2506L122.593 55.2536C123.596 57.2538 124.145 59.4507 124.201 61.6875V61.6875ZM112.117 70.9759C112.068 71.0283 112.024 71.0866 111.989 71.1497L108.32 79.6524L102.185 67.1893L110.215 65.5267C110.474 67.4531 111.121 69.3069 112.117 70.9759L112.117 70.9759ZM92.5642 83.2905C92.4738 83.1001 92.3977 82.9188 92.3277 82.7431C93.9971 82.5736 96.7335 82.3588 99.8939 82.3592C102.61 82.3501 105.324 82.5397 108.013 82.9265C107.617 83.7812 107.087 84.5671 106.442 85.2546C105.742 85.9981 104.9 86.5944 103.966 87.0087C102.72 87.5412 101.375 87.8033 100.02 87.7778C98.5102 87.8203 97.0157 87.4658 95.6858 86.7498C94.3116 85.9484 93.2207 84.7395 92.5642 83.2905ZM92.1216 79.7488L88.2751 70.4139C88.2083 70.2635 88.1024 70.1337 87.9686 70.0379C88.1871 69.6022 88.3809 69.1546 88.5492 68.6972C88.9413 67.5947 89.216 66.454 89.3686 65.2939L98.5143 67.1866L92.2367 79.7372L92.1216 79.7488ZM78.7012 53.3019C79.3451 52.8028 80.1243 52.5092 80.9374 52.4593H80.9376L81.1727 52.4516C81.9174 52.4512 82.641 52.6987 83.2295 53.155C84.3711 54.1237 85.2106 55.3998 85.6484 56.8316C86.2718 58.648 86.5844 60.5565 86.5729 62.4769C86.6331 64.7588 86.1259 67.02 85.0969 69.0575C84.6852 69.8286 84.1059 70.4974 83.4015 71.0149C82.733 71.484 81.9427 71.749 81.1265 71.7776L80.8888 71.7833C80.0813 71.7949 79.2894 71.561 78.6178 71.1125C77.4925 70.2704 76.6563 69.0998 76.2243 67.7623C75.6201 66.0632 75.3209 64.2708 75.3405 62.4677C75.2963 60.0399 75.8395 57.6375 76.9238 55.4648C77.3571 54.6266 77.9628 53.8894 78.7012 53.3019ZM74.4657 70.951C75.0951 72.0065 75.9448 72.9137 76.9568 73.6107C77.7679 74.1477 78.6828 74.508 79.6422 74.6684L78.8808 78.9042L64.9411 79.6934C68.116 76.7794 71.2909 73.8653 74.4657 70.951ZM81.6636 74.728C82.9055 74.6155 84.097 74.1829 85.1219 73.4725C85.7276 73.0315 86.2696 72.5092 86.7327 71.9202L90.0633 80.0034C89.8643 80.048 89.6766 80.1331 89.5119 80.2535L80.8929 79.015L81.6636 74.728ZM121.918 73.9931L121.928 73.9882C123.299 73.2501 124.436 72.1421 125.209 70.7903C125.325 70.5969 125.423 70.3911 125.528 70.1899C128.685 73.0968 131.842 76.0041 135 78.9117L121.816 78.8606L121.009 74.3691C121.32 74.2648 121.624 74.1392 121.918 73.9932L121.918 73.9931ZM126.844 48.7995C125.983 49.9824 125.123 51.1655 124.264 52.3487C123.802 51.738 123.258 51.1943 122.647 50.7329C121.543 49.9038 120.2 49.4552 118.82 49.4546C118.679 49.4546 118.538 49.4593 118.397 49.4682C117.114 49.5448 115.877 49.9728 114.82 50.7054C113.801 51.4277 112.942 52.3524 112.297 53.4218C112.288 53.437 112.284 53.4554 112.276 53.4709C112.179 53.6272 112.093 53.7926 112.003 53.9541L103.301 44.6515L126.844 48.7995ZM100.992 44.2447L101.008 44.2475C100.998 44.2705 101 44.296 100.992 44.3194V44.2447ZM100.992 44.9992C101.037 45.1207 101.106 45.2321 101.194 45.3271L111.101 55.9177C110.353 58.0139 109.977 60.2245 109.989 62.4501C109.988 62.688 109.993 62.9256 110.001 63.1628C110.005 63.2837 110.017 63.4034 110.023 63.524L100.992 65.3938V44.9992ZM100.349 67.9892L106.099 79.6675C103.956 79.4539 101.843 79.3596 99.8939 79.3592C97.9047 79.3594 96.0857 79.4407 94.5697 79.5439L100.349 67.9892ZM98.9916 65.2428L89.5416 63.2871C89.552 63.0169 89.5726 62.7477 89.5728 62.4768C89.5773 60.5565 89.313 58.645 88.7876 56.798L98.9916 45.8906L98.9916 65.2428ZM97.4134 44.6502L88.0137 54.6977C87.8854 54.4141 87.7525 54.1341 87.6079 53.8645C86.9825 52.6489 86.0987 51.5847 85.0185 50.7468C83.9119 49.9076 82.5615 49.4529 81.1727 49.4517C81.0306 49.4516 80.8883 49.4562 80.7459 49.4655C79.3473 49.554 78.0066 50.0559 76.8937 50.9075C76.5981 51.143 76.3187 51.3981 76.0574 51.6711C75.3261 50.7136 74.5947 49.7561 73.8633 48.7986L97.4134 44.6502ZM72.2503 49.9817C73.0859 51.0756 73.9211 52.1691 74.756 53.2622C74.2127 54.1071 73.7668 55.0107 73.4268 55.9558C72.6944 58.0482 72.327 60.2508 72.3406 62.4677C72.3407 62.5387 72.3455 62.6094 72.3464 62.6804C69.5233 62.9635 66.7005 63.2467 63.878 63.5301L72.2503 49.9817ZM62.9764 65.6307C66.1379 65.3136 69.2992 64.9964 72.4604 64.6791C72.6145 66.1924 72.9753 67.6775 73.5326 69.0929C70.0784 72.2632 66.6243 75.4336 63.1701 78.6042L62.9764 65.6307ZM64.4959 81.7219L78.0394 80.955L72.2746 89.4578L64.4959 81.7219ZM73.954 90.5449L79.7392 82.012L87.0156 95.6876L73.954 90.5449ZM81.5342 81.1277L89.0154 82.2028C89.3594 83.6404 89.9647 85.0026 90.8012 86.2214C91.6839 87.5145 92.8503 88.5889 94.2115 89.3627C94.2696 89.3956 94.3382 89.4199 94.3976 89.4519C92.6385 91.43 90.8795 93.4079 89.1205 95.3857L81.5342 81.1277ZM101.201 96.4087H99.5117L99.5092 96.4092H90.8868C92.7123 94.3563 94.5379 92.3035 96.3637 90.2507C97.5498 90.6055 98.7819 90.7832 100.02 90.7778C101.449 90.7871 102.87 90.5597 104.225 90.1049C106.092 92.2064 107.959 94.3076 109.828 96.4086L101.201 96.4087ZM111.593 95.3837C109.776 93.3402 107.96 91.2967 106.144 89.2534C107.949 88.2074 109.427 86.678 110.411 84.8374C110.85 84.0352 111.194 83.1843 111.436 82.302L119.163 81.1413L111.593 95.3837ZM127.676 90.1804L113.697 95.6867L121.578 80.8596L121.796 80.8605C121.813 80.9127 121.834 80.9634 121.86 81.0119C123.872 83.9795 125.884 86.9476 127.897 89.9162L127.676 90.1804ZM129.233 88.3221C127.548 85.8377 125.864 83.3536 124.18 80.8698L135.44 80.9135L129.233 88.3221ZM136.61 77.6753C133.189 74.5263 129.769 71.3773 126.35 68.2283C126.558 67.6028 126.729 66.9654 126.86 66.3194L126.863 66.3077C126.993 65.609 127.085 64.9038 127.139 64.1952C130.36 64.3779 133.582 64.5608 136.803 64.7439L136.61 77.6753Z"/></g></svg>