<svg width="200" height="200" viewBox="0 0 200 200" xmlns="http://www.w3.org/2000/svg"><g id="type=love, mode=dark"><path id="Vector" d="M137.506 95.597C134.348 99.1857 129.833 102.163 123.417 104.263C117.004 106.361 108.698 107.561 98.0733 107.56C84.7034 107.562 75.0038 105.66 68.1206 102.461C67.8081 102.317 67.4513 102.303 67.1285 102.422C66.8056 102.541 66.543 102.783 66.3982 103.095C66.2534 103.407 66.2381 103.763 66.3557 104.087C66.4734 104.41 66.7144 104.673 67.0259 104.819C74.4023 108.24 84.4625 110.158 98.0732 110.16C107.69 110.159 115.527 109.199 121.902 107.434C131.457 104.796 137.756 100.289 141.58 94.5533C145.407 88.8208 146.733 81.9828 146.733 74.7701C146.779 70.9754 146.332 67.1908 145.403 63.5115C144.487 59.9294 142.87 56.5644 140.646 53.6109C140.436 53.3391 140.127 53.1614 139.787 53.1167C139.446 53.0721 139.102 53.1641 138.829 53.3726C138.556 53.5811 138.376 53.8891 138.33 54.2295C138.283 54.5698 138.373 54.9148 138.58 55.1889H138.58C140.597 57.8717 142.063 60.9279 142.891 64.1808C143.762 67.6418 144.179 71.2014 144.133 74.77C144.219 79.1283 143.555 83.4689 142.17 87.6019C141.138 90.5396 139.556 93.2533 137.506 95.597Z"/><path id="Vector_2" d="M49.403 74.77C49.3641 78.3678 49.7668 81.9567 50.6022 85.4564C50.6861 85.7908 50.8994 86.0783 51.1952 86.2554C51.491 86.4326 51.845 86.485 52.1795 86.4011C52.5139 86.3172 52.8013 86.1039 52.9785 85.8081C53.1557 85.5123 53.2081 85.1583 53.1242 84.8238L53.1241 84.8238C52.3409 81.5309 51.9644 78.1545 52.003 74.77C51.9151 70.4104 52.5714 66.0677 53.9437 61.9288C54.9638 58.9921 56.5366 56.2778 58.5774 53.9326C61.7213 50.3444 66.2257 47.3673 72.6489 45.2671C79.0684 43.1692 87.3976 41.969 98.0731 41.9699C108.846 41.969 117.223 43.1919 123.665 45.324C123.992 45.4323 124.349 45.4062 124.657 45.2513C124.965 45.0964 125.199 44.8255 125.307 44.4981C125.416 44.1708 125.389 43.8139 125.235 43.5058C125.08 43.1978 124.809 42.9639 124.481 42.8556C117.683 40.6078 109.041 39.3708 98.0731 39.3699C88.412 39.3704 80.5518 40.3303 74.167 42.0957C64.5972 44.7344 58.313 49.243 54.5095 54.9821C50.7029 60.7177 49.4029 67.5566 49.403 74.77Z"/><path id="Vector_3" d="M27.6955 21.607L27.6956 21.6079V21.608C28.0276 26.6664 29.5541 44.5148 30.4895 54.4114C30.6217 56.8686 31.1969 59.2816 32.1875 61.534C32.5342 62.2583 33.001 62.9185 33.5681 63.4868C32.9765 63.9425 32.4687 64.4977 32.0675 65.1275C31.5472 66.0712 31.2044 67.1023 31.0559 68.1696C30.8282 69.5596 30.7196 70.9664 30.7313 72.3748C30.7344 73.8033 30.82 75.2305 30.9877 76.6492C31.2519 79.0489 31.7908 81.4103 32.5939 83.687C32.9026 84.5544 33.2829 85.3947 33.731 86.199C34.0786 86.8495 34.5347 87.4359 35.0794 87.933C36.297 88.857 37.7124 89.4857 39.2142 89.7697C39.9565 89.9379 40.7093 90.0561 41.4675 90.1234C42.0871 92.1478 42.8524 94.1247 43.7574 96.0386C43.8307 96.1927 43.9337 96.3309 44.0605 96.4453C44.1873 96.5596 44.3353 96.6479 44.4962 96.705C44.6571 96.7622 44.8276 96.787 44.9981 96.7783C45.1686 96.7695 45.3357 96.7272 45.4899 96.6538C45.644 96.5805 45.7822 96.4775 45.8966 96.3507C46.0109 96.2239 46.0992 96.0759 46.1563 95.915C46.2135 95.7541 46.2383 95.5836 46.2296 95.4131C46.2208 95.2426 46.1785 95.0755 46.1051 94.9213L46.1051 94.9213C42.7597 87.8974 41.4398 79.5103 41.4412 70.23C41.4403 62.2183 42.4093 54.6914 44.8228 48.0646C47.1427 41.3912 51.3316 35.5253 56.8908 31.1652C57.1606 30.9525 57.3351 30.6416 57.3764 30.3006C57.4176 29.9595 57.3222 29.616 57.1109 29.3451C56.8996 29.0742 56.5897 28.8979 56.2489 28.8548C55.9081 28.8117 55.564 28.9052 55.292 29.115C49.3487 33.7758 44.8673 40.0438 42.3797 47.1752C41.7701 48.8638 41.2494 50.5832 40.8196 52.3262C39.9529 41.7143 38.5661 24.8644 38.15 20.5566C38.0758 19.0403 37.4193 17.6111 36.3172 16.567C35.3681 15.7534 34.1534 15.3165 32.9035 15.3391C32.6766 15.3392 32.4499 15.3518 32.2244 15.3768C31.0241 15.4756 29.8995 16.0036 29.0567 16.8641C28.5918 17.3662 28.2395 17.9619 28.0237 18.6114C27.7796 19.3596 27.6609 20.1431 27.6727 20.9301C27.6727 21.1488 27.6803 21.3745 27.6956 21.607L27.6955 21.607ZM39.5815 87.1855C38.5632 86.9819 37.6011 86.5605 36.761 85.9501C36.45 85.6459 36.1891 85.2944 35.9881 84.9086C35.3917 83.8021 34.921 82.6324 34.585 81.4212C34.1048 79.7615 33.7653 78.0643 33.5701 76.3476C33.4142 75.029 33.3344 73.7025 33.3313 72.3748C33.3199 71.1171 33.4154 69.8607 33.6167 68.6191C33.714 67.8784 33.9379 67.1599 34.2787 66.4951C34.6281 65.9767 35.0839 65.5387 35.6157 65.2101C36.5096 64.6499 37.4756 64.2138 38.487 63.9139C38.6975 63.8483 38.8922 63.7929 39.0697 63.745C38.9181 65.8742 38.8419 68.0359 38.8411 70.23C38.771 76.0124 39.4028 81.782 40.7226 87.4123C40.3882 87.3592 39.9967 87.2864 39.5815 87.1855ZM30.4833 19.4544C30.6132 19.0225 30.8838 18.6465 31.2521 18.3861C31.6299 18.1427 32.0621 17.9967 32.5101 17.9611C32.6408 17.9465 32.7721 17.9392 32.9035 17.9391C33.5202 17.9167 34.1235 18.1226 34.5978 18.5174C35.204 19.1265 35.5497 19.9473 35.562 20.8065C35.8683 23.9754 36.7171 34.1458 37.4877 43.5055C37.8731 48.1869 38.2393 52.669 38.5091 55.9807C38.7178 58.5427 38.8675 60.387 38.9253 61.0995C38.1383 61.2862 37.3647 61.5255 36.6097 61.8157C36.4131 61.8919 36.2048 61.9933 36.0014 62.0819C35.331 61.6905 34.808 61.0894 34.5131 60.3713C33.67 58.4048 33.184 56.3039 33.0779 54.1669C32.1453 44.3032 30.6163 26.4198 30.2899 21.4369L30.2899 21.4366L30.2899 21.4359C30.2781 21.2585 30.2727 21.09 30.2727 20.9301C30.2614 20.43 30.3326 19.9314 30.4833 19.4544Z"/><path id="Vector_4" d="M131.307 95.807L131.306 95.808L131.305 95.809L131.307 95.807Z"/><path id="Vector_5" d="M127.4 98.601L127.398 98.602L127.4 98.601Z"/><path id="Vector_6" d="M130.303 93.2179L130.303 93.2178C130.08 93.4263 129.85 93.6313 129.615 93.8329L129.613 93.8344C128.507 94.7796 127.32 95.6276 126.068 96.3691L126.066 96.3705C125.794 96.5333 125.514 96.6942 125.227 96.8531C125.077 96.9358 124.946 97.0472 124.839 97.1808C124.733 97.3144 124.654 97.4676 124.607 97.6317C124.56 97.7958 124.546 97.9676 124.565 98.1372C124.584 98.3068 124.637 98.471 124.72 98.6203C124.802 98.7697 124.914 98.9012 125.047 99.0075C125.181 99.1138 125.334 99.1928 125.498 99.2399C125.662 99.2869 125.834 99.3012 126.004 99.2819C126.173 99.2626 126.337 99.2101 126.487 99.1274C126.795 98.9565 127.099 98.7814 127.4 98.6021C128.779 97.7845 130.086 96.8497 131.306 95.808C131.571 95.5816 131.827 95.3522 132.076 95.12C132.325 94.8842 132.471 94.5594 132.482 94.2166C132.493 93.8737 132.367 93.5405 132.133 93.2895C131.9 93.0385 131.576 92.8901 131.233 92.8767C130.89 92.8633 130.556 92.9859 130.304 93.2179L130.303 93.2179Z"/><path id="Vector_7" d="M84.2267 47.7808C84.1667 47.4413 83.9744 47.1395 83.6919 46.9418C83.4095 46.7441 83.06 46.6667 82.7205 46.7266C78.1003 47.4611 73.617 48.887 69.4212 50.9562C69.2694 51.0344 69.1346 51.1418 69.0243 51.2721C68.9141 51.4024 68.8305 51.5532 68.7785 51.7158C68.7266 51.8784 68.7071 52.0497 68.7213 52.2198C68.7355 52.39 68.7831 52.5556 68.8613 52.7074C68.9395 52.8591 69.0468 52.994 69.1772 53.1043C69.3075 53.2145 69.4583 53.298 69.6209 53.35C69.7835 53.402 69.9548 53.4215 70.1249 53.4073C70.2951 53.3931 70.4607 53.3455 70.6125 53.2673H70.6124C74.5759 51.3183 78.81 49.9766 83.1725 49.287C83.512 49.227 83.8138 49.0346 84.0115 48.7522C84.2092 48.4697 84.2866 48.1203 84.2267 47.7808Z"/><path id="Vector_8" d="M65.008 57.099C65.2609 56.8667 65.4115 56.5437 65.4271 56.2007C65.4426 55.8578 65.3219 55.5225 65.0912 55.2682C64.8604 55.014 64.5385 54.8613 64.1956 54.8435C63.8527 54.8258 63.5167 54.9444 63.261 55.1735C62.296 56.0477 61.4025 56.9978 60.5892 58.0146C60.4826 58.1479 60.4033 58.301 60.3559 58.465C60.3084 58.629 60.2938 58.8007 60.3127 58.9704C60.3316 59.1401 60.3838 59.3043 60.4662 59.4538C60.5487 59.6033 60.6597 59.7351 60.7931 59.8417C60.9265 59.9483 61.0795 60.0276 61.2435 60.075C61.4075 60.1225 61.5792 60.1371 61.7489 60.1182C61.9186 60.0993 62.0829 60.0471 62.2324 59.9647C62.3819 59.8822 62.5137 59.7712 62.6203 59.6378C63.3471 58.7291 64.1456 57.8802 65.008 57.099Z"/><path id="Vector_9" d="M106.296 127.676L106.295 127.677L106.293 127.678L106.296 127.676Z"/><path id="Vector_10" d="M63.2023 153.265L63.1993 153.267L63.1953 153.271L63.2023 153.265Z"/><path id="Vector_11" d="M128.829 171.03C128.658 171.034 128.49 171.07 128.333 171.139C128.177 171.207 128.035 171.305 127.917 171.428C127.798 171.551 127.705 171.696 127.643 171.855C127.581 172.014 127.55 172.184 127.553 172.355L127.553 172.354C127.578 173.679 127.591 174.991 127.591 176.291C127.591 177.168 127.585 178.036 127.571 178.895C127.192 179.131 126.784 179.317 126.357 179.447C125.495 179.73 124.619 179.965 123.731 180.15C123.443 180.184 123.169 180.202 122.883 180.21L122.868 180.211C122.655 180.22 122.446 180.224 122.239 180.224C121.802 180.224 121.374 180.205 120.938 180.173L120.842 180.17H120.822C120.674 180.153 120.551 180.142 120.474 180.131L120.442 180.129L120.442 180.129C117.251 179.766 114.31 178.421 110.826 177.081C106.796 175.401 102.479 174.514 98.113 174.47C94.27 174.489 90.4611 175.192 86.8646 176.547C83.7247 177.672 81.0587 178.936 78.4274 179.634C78.2625 179.678 78.1079 179.754 77.9723 179.858C77.8368 179.962 77.7231 180.092 77.6376 180.239C77.5521 180.387 77.4966 180.55 77.4741 180.719C77.4517 180.889 77.4629 181.061 77.5069 181.226C77.641 181.243 77.7685 181.294 77.8772 181.374C77.986 181.454 78.0724 181.561 78.1281 181.684C78.1838 181.807 78.207 181.942 78.1954 182.077C78.1839 182.212 78.138 182.341 78.0622 182.453C78.0416 182.622 78.0545 182.794 78.1003 182.959C78.1461 183.123 78.2239 183.277 78.3291 183.411C78.4344 183.546 78.5651 183.658 78.7138 183.742C78.8625 183.826 79.0262 183.88 79.1957 183.9L79.1956 183.9C85.0932 184.565 91.0248 184.881 96.9596 184.848C102.302 184.848 107.593 184.632 112.302 184.257C116.265 183.983 120.208 183.471 124.11 182.724L124.216 182.717C124.305 182.703 124.391 182.68 124.475 182.647C125.397 182.45 126.308 182.202 127.204 181.905C127.31 181.868 127.405 181.83 127.506 181.792C127.387 185.655 127.14 189.273 126.743 192.438C126.7 192.781 126.795 193.126 127.006 193.398C127.218 193.67 127.529 193.847 127.871 193.89C128.213 193.933 128.558 193.838 128.831 193.627C129.103 193.415 129.28 193.104 129.323 192.762C129.944 187.294 130.234 181.794 130.191 176.291C130.191 174.976 130.178 173.648 130.153 172.306C130.15 172.135 130.113 171.967 130.045 171.81C129.976 171.654 129.878 171.512 129.755 171.394C129.632 171.275 129.487 171.182 129.328 171.12C129.169 171.058 128.999 171.027 128.829 171.03ZM112.096 181.665C107.462 182.034 102.232 182.248 96.9596 182.248C91.6846 182.27 86.412 182.021 81.1625 181.503C83.3454 180.749 85.4604 179.806 87.7388 178.996C91.0545 177.741 94.5678 177.089 98.113 177.07C102.162 177.114 106.163 177.942 109.897 179.509C111.575 180.148 113.196 180.835 114.861 181.418C113.965 181.506 113.047 181.59 112.096 181.665Z"/><path id="Vector_12" d="M121.68 124.975L121.681 124.976H121.682L121.68 124.975Z"/><path id="Vector_13" d="M74.9316 124.977H74.9326L74.9336 124.976L74.9316 124.977Z"/><path id="Vector_14" d="M69.3882 187.465C69.3769 187.293 69.3318 187.126 69.2556 186.972C69.1793 186.819 69.0734 186.682 68.944 186.569C68.8145 186.457 68.664 186.371 68.5013 186.317C68.3385 186.263 68.1666 186.241 67.9955 186.254C67.8244 186.266 67.6575 186.313 67.5044 186.39C67.3513 186.468 67.2151 186.574 67.1035 186.705C66.9919 186.835 66.9073 186.986 66.8544 187.149C66.8015 187.313 66.7814 187.485 66.7953 187.656C66.9269 189.443 67.0884 191.154 67.2922 192.763C67.3356 193.106 67.513 193.416 67.7855 193.628C67.9205 193.732 68.0747 193.809 68.2394 193.854C68.4041 193.899 68.576 193.911 68.7454 193.89C68.9147 193.868 69.0782 193.814 69.2265 193.729C69.3748 193.644 69.5049 193.531 69.6095 193.397C69.7141 193.262 69.7911 193.107 69.8361 192.943C69.8811 192.778 69.8932 192.606 69.8717 192.437L69.8716 192.437C69.6751 190.886 69.5173 189.217 69.3882 187.465Z"/><path id="Vector_15" d="M152.605 130.633C152.129 129.959 151.555 129.36 150.902 128.856C149.917 128.072 148.882 127.353 147.805 126.702C147.458 126.489 147.145 126.303 146.888 126.153C146.902 125.748 146.915 125.225 146.916 124.629C146.929 123.354 146.847 122.079 146.668 120.817C146.582 120.208 146.424 119.612 146.199 119.04C146.082 118.751 145.927 118.48 145.739 118.232C145.516 117.94 145.227 117.705 144.894 117.548L144.889 117.546C144.59 117.414 144.266 117.347 143.939 117.35C143.491 117.361 143.049 117.45 142.632 117.612C141.891 117.905 141.185 118.278 140.525 118.725C139.295 119.55 138.121 120.454 137.009 121.433C136.544 121.276 135.894 121.067 135.16 120.855C134.438 120.647 133.636 120.437 132.842 120.276C132.083 120.109 131.309 120.016 130.532 119.998C130.172 119.993 129.812 120.032 129.462 120.114C129.045 120.208 128.661 120.414 128.353 120.711C128.092 120.978 127.904 121.31 127.81 121.672C127.731 121.968 127.694 122.274 127.698 122.581C127.732 123.452 127.884 124.314 128.149 125.144C128.405 126.024 128.731 126.918 129.043 127.708C129.171 128.028 129.42 128.283 129.736 128.419C130.052 128.555 130.409 128.56 130.729 128.434C131.048 128.307 131.305 128.059 131.442 127.744C131.579 127.429 131.586 127.072 131.461 126.752L131.461 126.752C131.168 126.013 130.867 125.182 130.647 124.42C130.458 123.833 130.341 123.225 130.299 122.61C130.377 122.602 130.454 122.598 130.532 122.598C131.136 122.617 131.736 122.693 132.325 122.824C133.36 123.045 134.383 123.317 135.391 123.64C135.828 123.778 136.197 123.902 136.456 123.991C136.586 124.035 136.687 124.071 136.756 124.095L136.856 124.131C137.08 124.213 137.322 124.231 137.556 124.185C137.79 124.138 138.006 124.028 138.182 123.867L138.228 123.825C138.466 123.608 139.62 122.576 140.907 121.627C141.511 121.171 142.145 120.757 142.806 120.387C143.05 120.252 143.304 120.136 143.566 120.039C143.633 120.016 143.702 119.996 143.772 119.981C143.832 120.11 143.881 120.244 143.918 120.381C144.085 121.024 144.19 121.681 144.232 122.344C144.295 123.106 144.316 123.915 144.315 124.629C144.315 125.249 144.3 125.798 144.285 126.189C144.277 126.385 144.269 126.542 144.264 126.648C144.258 126.754 144.255 126.806 144.255 126.806C144.239 127.053 144.294 127.3 144.414 127.517C144.533 127.735 144.712 127.913 144.93 128.032L144.992 128.066C145.31 128.242 146.823 129.095 148.207 130.075C148.84 130.509 149.436 130.995 149.988 131.527C150.136 131.673 150.27 131.832 150.389 132.002C150.182 132.182 149.956 132.34 149.715 132.472C148.854 132.937 147.956 133.33 147.03 133.644C146.078 133.983 145.196 134.245 144.724 134.38C144.392 134.475 144.112 134.698 143.945 135C143.778 135.301 143.738 135.657 143.833 135.988C143.928 136.32 144.151 136.6 144.452 136.767C144.754 136.934 145.109 136.975 145.441 136.88C146.781 136.501 148.099 136.047 149.388 135.518C150.152 135.209 150.884 134.825 151.573 134.373C151.902 134.153 152.202 133.892 152.466 133.596C152.777 133.251 152.983 132.825 153.059 132.367C153.073 132.27 153.08 132.172 153.08 132.074C153.064 131.558 152.899 131.057 152.605 130.633Z"/><path id="Vector_16" d="M104.126 15.7482C104.873 17.0928 105.701 18.3911 106.604 19.6361C106.639 19.8219 106.714 19.9978 106.824 20.1512C106.935 20.3046 107.078 20.4316 107.243 20.5231C107.546 20.6872 107.902 20.7242 108.232 20.6259C108.563 20.5275 108.841 20.302 109.005 19.9988L109.075 19.8688C109.193 19.6502 109.246 19.4024 109.228 19.1546C109.209 18.9069 109.121 18.6695 108.972 18.4704L108.936 18.4219C108.749 18.1686 107.86 16.9508 107.04 15.6014C106.642 14.9598 106.283 14.295 105.965 13.6105C105.844 13.3483 105.741 13.0785 105.655 12.8027C105.63 12.7177 105.616 12.6503 105.603 12.5845C105.763 12.5386 105.926 12.505 106.09 12.484C106.593 12.4198 107.099 12.3904 107.605 12.3959C108.669 12.4068 109.732 12.4718 110.789 12.5906C111.248 12.6396 111.638 12.6887 111.911 12.7253C112.048 12.7437 112.156 12.7588 112.228 12.7693L112.335 12.785C112.57 12.8208 112.812 12.7912 113.032 12.6994C113.252 12.6077 113.443 12.4572 113.583 12.2645L113.623 12.2105C113.829 11.93 114.83 10.5957 115.959 9.37308C116.471 8.8027 117.027 8.27365 117.623 7.79087C117.821 7.63148 118.034 7.49157 118.26 7.37308L118.295 7.35874C118.364 7.45234 118.426 7.55091 118.48 7.65366C118.756 8.19725 118.977 8.76629 119.142 9.35276C119.437 10.3675 119.678 11.3972 119.865 12.4374C119.947 12.8862 120.01 13.2691 120.052 13.5378C120.073 13.6721 120.088 13.7779 120.099 13.8492L120.113 13.9535C120.147 14.199 120.249 14.4299 120.409 14.619C120.569 14.8082 120.78 14.9477 121.016 15.0212L121.086 15.0433C122.326 15.4418 123.545 15.9041 124.737 16.4283C125.443 16.7313 126.121 17.0972 126.762 17.5215C126.897 17.6148 127.024 17.719 127.143 17.833C127.038 17.9706 126.922 18.0993 126.796 18.2177C126.214 18.7506 125.587 19.2308 124.921 19.6524C124.187 20.1344 123.416 20.5832 122.803 20.9225C122.653 21.0052 122.522 21.1164 122.415 21.25C122.309 21.3835 122.23 21.5367 122.183 21.7007C122.136 21.8648 122.121 22.0366 122.14 22.2062C122.16 22.3758 122.212 22.54 122.295 22.6894C122.377 22.8388 122.489 22.9704 122.622 23.0768C122.756 23.1832 122.909 23.2622 123.073 23.3094C123.237 23.3566 123.409 23.371 123.578 23.3518C123.748 23.3326 123.912 23.2802 124.061 23.1975L124.061 23.1974C125.242 22.5548 126.38 21.8352 127.466 21.0433C128.016 20.6437 128.524 20.1898 128.983 19.6885C129.204 19.4424 129.395 19.1707 129.552 18.8794C129.736 18.5399 129.836 18.1606 129.842 17.7742L129.841 17.6909L129.84 17.6738C129.823 17.3772 129.744 17.0874 129.609 16.8226C129.394 16.4192 129.101 16.0627 128.747 15.7737C128.127 15.2722 127.451 14.8443 126.732 14.4988C125.381 13.8411 123.99 13.2719 122.566 12.795C122.446 12.063 122.239 10.9263 121.944 9.74232C121.713 8.75667 121.395 7.79374 120.992 6.86512C120.8 6.42984 120.553 6.02069 120.258 5.64747C120.099 5.451 119.916 5.27548 119.713 5.12513C119.475 4.94969 119.205 4.82359 118.918 4.75428C118.757 4.71691 118.593 4.69819 118.427 4.69849C117.938 4.71226 117.46 4.84316 117.032 5.0802C116.318 5.48245 115.662 5.97952 115.081 6.55786C114.197 7.41669 113.368 8.33008 112.598 9.29266C112.342 9.60925 112.132 9.87756 111.954 10.109C110.512 9.91909 109.06 9.8145 107.605 9.79578C106.843 9.78388 106.082 9.84443 105.332 9.97663C104.975 10.0427 104.627 10.152 104.296 10.3021C103.902 10.4771 103.564 10.7568 103.319 11.1108L103.317 11.1138C103.081 11.4859 102.96 11.9195 102.969 12.3601C102.979 12.7862 103.051 13.2085 103.184 13.6134C103.43 14.353 103.745 15.0678 104.126 15.7482Z"/><path id="Vector_17" d="M55.2025 128.343C55.4222 128.083 56.4865 126.844 57.6782 125.708C58.2253 125.173 58.812 124.68 59.4333 124.234C59.6479 124.081 59.8758 123.948 60.1142 123.836L60.1979 123.805C60.2694 123.918 60.3318 124.037 60.3845 124.16C60.6301 124.758 60.8178 125.379 60.9449 126.012C61.1054 126.742 61.2313 127.527 61.3233 128.229C61.3682 128.571 61.547 128.881 61.8204 129.091C62.0939 129.301 62.4396 129.394 62.7814 129.349C63.1233 129.304 63.4333 129.125 63.6434 128.852C63.8534 128.579 63.9462 128.233 63.9013 127.891C63.7507 126.642 63.5028 125.406 63.1599 124.196C62.9948 123.616 62.7621 123.057 62.4667 122.531C62.3137 122.265 62.1265 122.022 61.9097 121.805C61.6539 121.55 61.3409 121.358 60.9965 121.248L60.9927 121.247C60.7847 121.184 60.5684 121.152 60.351 121.153C59.8761 121.166 59.4098 121.282 58.9843 121.493C58.2579 121.859 57.5807 122.316 56.9689 122.852C55.7967 123.867 54.6974 124.963 53.6792 126.133C53.3208 126.062 52.8631 125.976 52.338 125.889C50.9905 125.649 49.6264 125.513 48.258 125.483C47.6948 125.474 47.1323 125.526 46.5805 125.639C46.3021 125.699 46.0322 125.793 45.7768 125.919C45.4726 126.068 45.2064 126.285 44.9984 126.552C44.6993 126.966 44.5457 127.467 44.5617 127.977C44.5695 128.391 44.6299 128.802 44.7414 129.2C45.2046 130.675 45.8344 132.093 46.6187 133.425C46.9594 134.037 47.2782 134.573 47.5207 134.971C47.472 135.05 47.4257 135.126 47.3709 135.216C47.2468 135.419 47.1815 135.652 47.1823 135.89V135.9C47.1823 136.245 47.3193 136.575 47.5631 136.819C47.8069 137.063 48.1375 137.2 48.4823 137.2C48.7054 137.197 48.924 137.137 49.1164 137.024C49.3087 136.911 49.4683 136.749 49.5792 136.556L49.5937 136.564C49.7603 136.29 49.8998 136.064 49.9973 135.908C50.0947 135.752 50.1478 135.669 50.148 135.669C50.2822 135.459 50.3531 135.215 50.3523 134.965C50.3514 134.716 50.2789 134.472 50.1433 134.263L50.1119 134.214C49.9486 133.959 49.1748 132.731 48.4594 131.363C48.1085 130.705 47.7944 130.027 47.5187 129.334C47.3661 128.96 47.2521 128.572 47.1785 128.174C47.2343 128.16 47.2909 128.148 47.3479 128.139C47.6495 128.098 47.9536 128.08 48.2579 128.083C49.4837 128.114 50.7053 128.238 51.9124 128.454C52.4799 128.548 52.9754 128.643 53.3268 128.713C53.5024 128.748 53.6421 128.778 53.7368 128.798C53.8314 128.818 53.8772 128.828 53.8773 128.828C54.1105 128.881 54.3538 128.869 54.5802 128.792C54.8066 128.715 55.0074 128.577 55.1602 128.393L55.2025 128.343Z"/><path id="Vector_18" d="M175.808 153.694C176.264 153.622 176.692 153.424 177.041 153.122C177.488 152.734 177.843 152.252 178.081 151.711C178.332 151.175 178.466 150.591 178.475 149.999C178.483 149.542 178.374 149.09 178.159 148.686C177.895 148.208 177.464 147.843 176.95 147.66C176.374 147.472 175.783 147.334 175.183 147.247C174.771 147.179 174.34 147.122 173.915 147.071L173.942 147.047C174.527 146.526 175.126 145.991 175.608 145.553C175.849 145.333 176.061 145.139 176.23 144.979L176.455 144.765L176.639 144.575C177.073 144.09 177.312 143.461 177.31 142.81C177.299 142.158 177.093 141.523 176.717 140.99C176.376 140.48 175.906 140.07 175.355 139.802C174.924 139.601 174.454 139.499 173.979 139.501C173.094 139.541 172.231 139.794 171.466 140.24C170.33 140.844 169.258 141.655 168.274 142.279C167.844 142.563 167.394 142.812 166.926 143.026C166.689 143.133 166.439 143.206 166.182 143.241C166.161 143.222 166.141 143.203 166.12 143.184C165.886 142.298 165.564 141.438 165.159 140.616C164.943 140.169 164.695 139.737 164.419 139.324C164.299 139.146 164.166 138.977 164.021 138.819C163.94 138.731 163.852 138.65 163.758 138.575C163.62 138.465 163.465 138.378 163.299 138.317C163.058 138.233 162.81 138.166 162.559 138.117C162.183 138.039 161.8 137.999 161.415 137.997C160.718 137.977 160.031 138.166 159.442 138.541C159.083 138.785 158.788 139.111 158.583 139.494C158.463 139.722 158.374 139.965 158.316 140.217C157.104 140.064 155.884 139.984 154.663 139.978C153.223 139.969 151.786 140.116 150.378 140.417C147.909 136.759 144.85 133.537 141.325 130.881C137.463 127.988 133.167 125.862 129.036 125.843C127.996 125.837 126.961 125.991 125.968 126.301C125.185 126.542 124.446 126.907 123.78 127.384C123.646 127.127 123.515 126.86 123.371 126.634C122.973 125.934 122.387 125.359 121.679 124.976C120.92 124.645 120.127 124.396 119.315 124.233C115.285 123.474 111.206 123.006 107.108 122.832L107.08 122.831L107.041 122.829V120.442C113.759 120.077 120.408 118.911 126.849 116.968C138.461 113.297 146.176 106.995 150.873 98.8852C152.484 96.0776 153.766 93.0944 154.695 89.9941C154.889 90.0924 155.105 90.1391 155.322 90.1296C156.107 90.0648 156.886 89.9445 157.653 89.7697C159.155 89.4856 160.571 88.8568 161.788 87.9327C162.333 87.4356 162.789 86.8493 163.136 86.1989C163.834 84.9175 164.384 83.5611 164.776 82.1559C165.298 80.3547 165.667 78.5126 165.879 76.6493C166.047 75.23 166.133 73.8021 166.136 72.3729C166.147 70.9649 166.039 69.5584 165.811 68.1689C165.663 67.102 165.32 66.0713 164.8 65.1279C164.254 64.2885 163.533 63.577 162.687 63.0421C162.673 63.033 162.659 63.0262 162.645 63.0172C163.381 62.1832 163.943 61.2105 164.297 60.1562C164.917 58.2963 165.301 56.3661 165.442 54.4107C166.377 44.514 167.903 26.6634 168.235 21.6069C168.25 21.3746 168.258 21.1486 168.258 20.929C168.269 20.1421 168.151 19.3587 167.907 18.6106C167.595 17.6533 166.98 16.8234 166.155 16.2461C165.423 15.7574 164.581 15.4586 163.705 15.3766C163.48 15.3516 163.253 15.339 163.027 15.339C161.777 15.3164 160.562 15.7533 159.613 16.567C158.511 17.6111 157.855 19.0402 157.78 20.5565C157.373 24.7829 156.029 41.0884 155.16 51.7249C154.108 47.5575 152.473 43.5592 150.305 39.8479C145.162 31.175 136.674 24.4382 123.784 20.8089C118.613 19.3866 113.315 18.4739 107.966 18.084C104.849 17.831 101.551 17.703 98.071 17.6999C90.6356 17.6128 83.2137 18.3547 75.9427 19.912C75.7763 19.9499 75.6189 20.0202 75.4796 20.1189C75.3403 20.2176 75.2218 20.3428 75.1309 20.4872C75.04 20.6317 74.9784 20.7927 74.9497 20.961C74.921 21.1293 74.9257 21.3016 74.9636 21.4681C75.0014 21.6345 75.0717 21.7919 75.1704 21.9312C75.2691 22.0705 75.3943 22.189 75.5388 22.2799C75.6833 22.3708 75.8443 22.4324 76.0126 22.4611C76.1809 22.4898 76.3532 22.4851 76.5196 22.4472C83.6014 20.9332 90.8298 20.213 98.071 20.3C101.489 20.3 104.717 20.4252 107.756 20.6756C112.937 21.052 118.068 21.9346 123.076 23.3106C135.458 26.8214 143.25 33.0895 148.07 41.1766C152.884 49.2676 154.693 59.2867 154.691 70.23C154.811 76.7338 153.953 83.2187 152.145 89.4674C149.626 98.2319 143.793 105.671 135.881 110.207C127.324 115.216 115.114 118.142 98.071 118.14C78.6005 118.141 65.4536 114.324 56.8137 107.934C56.5364 107.73 56.1891 107.643 55.8481 107.694C55.5072 107.746 55.2005 107.93 54.9956 108.207C54.7907 108.485 54.7044 108.832 54.7556 109.173C54.8068 109.514 54.9913 109.821 55.2686 110.026C63.049 115.769 73.976 119.402 88.9614 120.43L88.9614 122.865C88.2819 122.907 87.6089 122.952 86.9565 123.002L86.9135 123.004C84.1736 123.211 81.6835 123.475 79.6406 123.794C78.6185 123.954 77.7083 124.127 76.9244 124.318C76.2398 124.471 75.5722 124.691 74.9314 124.977C74.1724 125.396 73.5507 126.026 73.1409 126.79C73.1255 126.815 73.1118 126.848 73.0965 126.874C72.3175 126.326 71.4403 125.934 70.5129 125.718C69.7122 125.521 68.8904 125.423 68.066 125.425C64.6816 125.436 61.2918 126.946 58.1833 129.123C55.4415 131.088 52.9858 133.424 50.8865 136.065C50.2762 135.568 49.6523 135.096 49.0181 134.672C47.4312 133.629 45.7635 132.714 44.0309 131.937C44.0071 131.367 43.8075 130.819 43.4595 130.368C42.9805 129.799 42.3297 129.401 41.605 129.233C41.109 129.106 40.5989 129.042 40.0868 129.043C39.9418 129.043 39.8252 129.048 39.7148 129.057C39.5397 129.073 39.3682 129.117 39.207 129.187C39.0121 129.273 38.828 129.382 38.6584 129.512C38.36 129.739 38.0795 129.989 37.8194 130.259C37.4568 130.638 37.1146 131.036 36.7942 131.451C35.9687 131.687 35.1758 132.025 34.4339 132.458C34.2978 132.356 34.1586 132.247 34.0162 132.128C33.2137 131.464 32.3478 130.569 31.4022 129.789C30.9289 129.388 30.4139 129.039 29.8659 128.748C29.2811 128.434 28.6301 128.264 27.9667 128.252C27.766 128.252 27.5657 128.27 27.3681 128.305C26.6684 128.442 26.0268 128.788 25.5287 129.298C25.2654 129.56 25.0479 129.865 24.8851 130.2C24.7031 130.573 24.6074 130.983 24.6051 131.398C24.6059 131.809 24.703 132.214 24.8885 132.581C24.9427 132.686 25.0046 132.788 25.0735 132.884C25.2894 133.191 25.6065 133.575 26.004 134.047C26.3417 134.446 26.7279 134.891 27.1088 135.325C25.8867 135.365 24.5749 135.416 23.7867 135.479C23.3961 135.509 23.0203 135.641 22.6969 135.862C22.2776 136.16 21.9612 136.58 21.7917 137.066C21.6457 137.477 21.5732 137.91 21.5777 138.346C21.5769 138.958 21.7006 139.563 21.9412 140.126C22.0674 140.421 22.2359 140.696 22.4415 140.942C22.6791 141.227 22.9801 141.453 23.3205 141.602C23.4522 141.658 23.5923 141.692 23.7351 141.702L24.515 141.759C24.0349 142.041 23.5636 142.326 23.1589 142.593C22.8774 142.78 22.6271 142.955 22.4048 143.135C22.2907 143.226 22.1821 143.324 22.0798 143.429C21.9334 143.575 21.813 143.746 21.7239 143.932C21.6123 144.178 21.5559 144.445 21.5587 144.715C21.5722 145.14 21.668 145.557 21.8409 145.945C22.0607 146.46 22.3362 146.95 22.6626 147.405C22.8049 147.608 22.9607 147.801 23.129 147.983C23.2171 148.077 23.3119 148.165 23.4126 148.246C23.5777 148.381 23.7683 148.482 23.9731 148.542L23.9817 148.545C24.1076 148.58 24.2377 148.597 24.3684 148.597C24.5109 148.595 24.6528 148.579 24.7918 148.547C25.2643 148.43 25.7298 148.286 26.1859 148.116C27.3981 147.689 28.988 147.063 29.7455 146.762C29.9136 146.83 30.1042 146.904 30.3372 146.981C30.3772 146.994 30.4258 147.007 30.4675 147.02C31.5388 148.949 33.2051 150.48 35.2178 151.385C36.7699 152.099 38.3642 152.717 39.9918 153.236C41.902 153.864 43.8947 154.205 45.9049 154.248C46.7252 154.25 47.5435 154.168 48.3469 154.002C50.1252 155.716 52.5083 156.659 54.9779 156.625C58.0398 156.564 60.9699 155.367 63.199 153.267C64.429 152.102 65.5627 150.838 66.5891 149.49C67.1127 148.831 67.6719 148.103 68.2532 147.336C67.6192 152.332 67.1219 157.8 66.8033 163.346C66.7936 163.516 66.8175 163.687 66.8737 163.848C66.9299 164.009 67.0173 164.158 67.1309 164.285C67.2446 164.413 67.3822 164.516 67.5359 164.591C67.6896 164.665 67.8565 164.708 68.0269 164.718C68.1974 164.728 68.3681 164.704 68.5293 164.647C68.6905 164.591 68.8391 164.504 68.9665 164.39C69.0939 164.277 69.1977 164.139 69.272 163.985C69.3462 163.832 69.3895 163.665 69.3992 163.494C69.825 155.216 70.7616 146.972 72.2037 138.809C72.6936 136.002 73.3908 133.234 74.2895 130.53C74.569 129.7 74.9285 128.9 75.3628 128.14C75.5244 127.818 75.76 127.538 76.0504 127.324L76.053 127.322C76.5323 127.116 77.0303 126.956 77.5401 126.844C80.4358 126.244 83.3701 125.848 86.3214 125.66C87.3618 126.501 88.4921 127.225 89.6917 127.818L89.7073 127.826L89.8772 127.906L89.8714 127.903C92.2846 129.047 94.9241 129.634 97.5947 129.621C100.397 129.607 103.169 129.03 105.744 127.925L105.761 127.917C105.934 127.84 106.103 127.767 106.294 127.677C107.489 127.132 108.611 126.438 109.632 125.611C111.855 125.781 113.906 125.988 115.638 126.229C116.842 126.396 117.897 126.578 118.744 126.769C119.367 126.892 119.976 127.078 120.562 127.323L120.564 127.324C120.819 127.509 121.029 127.75 121.177 128.028C121.571 128.687 121.9 129.382 122.159 130.104L122.17 130.134C123.298 133.441 124.136 136.84 124.675 140.292C125.428 144.568 126.075 149.57 126.567 154.86C126.583 155.03 126.632 155.195 126.712 155.346C126.791 155.497 126.9 155.631 127.031 155.74C127.163 155.849 127.314 155.931 127.477 155.982C127.641 156.032 127.812 156.05 127.982 156.034C128.152 156.018 128.317 155.969 128.468 155.889C128.619 155.81 128.753 155.701 128.862 155.57C128.971 155.438 129.053 155.287 129.103 155.124C129.154 154.961 129.172 154.789 129.156 154.619L129.156 154.619C128.889 151.751 128.576 148.97 128.226 146.33C129.324 147.553 130.442 148.759 131.499 149.859C132.438 150.835 133.326 151.727 134.107 152.477C134.89 153.229 135.558 153.834 136.095 154.259C138.278 156.05 141.001 157.051 143.823 157.099C144.441 157.093 145.056 157.033 145.663 156.918C147.1 158.132 148.732 159.095 150.489 159.767C152.611 160.583 154.803 161.202 157.038 161.615C157.704 161.747 158.381 161.814 159.059 161.814C160.58 161.806 162.081 161.467 163.458 160.822C164.835 160.176 166.055 159.239 167.035 158.076C167.072 158.077 167.112 158.079 167.149 158.079C167.602 158.079 168.055 158.047 168.504 157.984C168.934 158.139 169.938 158.503 170.978 158.868C171.665 159.11 172.364 159.352 172.929 159.537C173.212 159.63 173.46 159.708 173.667 159.768C173.772 159.798 173.865 159.824 173.961 159.846L174.118 159.878C174.206 159.893 174.296 159.901 174.385 159.901L174.404 159.901C174.573 159.898 174.74 159.868 174.899 159.81C175.07 159.748 175.233 159.667 175.385 159.57C175.905 159.228 176.379 158.821 176.796 158.359C177.03 158.107 177.24 157.833 177.421 157.541C177.657 157.18 177.789 156.76 177.802 156.329C177.802 156.231 177.794 156.132 177.777 156.035C177.729 155.77 177.616 155.521 177.448 155.309C177.257 155.074 177.037 154.864 176.793 154.685C176.332 154.341 175.852 154.024 175.355 153.735L175.32 153.714L175.66 153.706L175.808 153.694ZM163.251 68.6185C163.452 69.8596 163.547 71.1157 163.536 72.373C163.533 73.7015 163.453 75.0288 163.297 76.3481C163.056 78.5457 162.564 80.7086 161.831 82.7944C161.573 83.5242 161.254 84.2313 160.879 84.9086C160.678 85.2943 160.418 85.6456 160.107 85.9497C159.205 86.596 158.172 87.0345 157.08 87.2335C156.538 87.3561 156.044 87.433 155.691 87.478C155.57 87.4936 155.473 87.5042 155.389 87.5129C156.725 81.8511 157.364 76.047 157.291 70.2299C157.291 67.9751 157.211 65.753 157.052 63.5636C157.867 63.7399 158.667 63.9825 159.443 64.289C160.096 64.5416 160.721 64.8626 161.306 65.2466C161.816 65.5692 162.253 65.9946 162.589 66.4955C162.929 67.16 163.153 67.8781 163.251 68.6185ZM160.368 20.8065C160.381 19.9472 160.727 19.1264 161.333 18.5173C161.807 18.1225 162.41 17.9166 163.027 17.939C163.158 17.9391 163.289 17.9464 163.42 17.961C164.004 17.9927 164.558 18.2352 164.978 18.6434C165.191 18.8766 165.351 19.1531 165.447 19.4539C165.598 19.9307 165.669 20.4291 165.658 20.9291C165.658 21.0888 165.652 21.2581 165.64 21.4371C165.314 26.4193 163.786 44.3032 162.853 54.1662C162.757 56.2665 162.273 58.3309 161.426 60.2552C161.212 60.6917 160.926 61.0889 160.58 61.4302C160.443 61.5594 160.292 61.6739 160.131 61.7718C159.789 61.6429 159.457 61.5265 159.154 61.4315C158.563 61.2445 157.963 61.0914 157.355 60.9728C157.242 60.9599 157.128 60.9623 157.015 60.9801C157.079 60.1916 157.224 58.4069 157.422 55.9806C158.231 46.0501 159.909 25.5662 160.368 20.8065V20.8065ZM25.8626 145.469C25.4439 145.623 25.0601 145.757 24.7551 145.856C24.5901 145.622 24.444 145.375 24.3181 145.118C24.2963 145.073 24.2794 145.032 24.2616 144.99C24.8676 144.553 26.0477 143.859 27.0457 143.302C27.553 143.019 28.0189 142.765 28.357 142.583C28.695 142.401 28.9018 142.293 28.9024 142.292C29.1546 142.159 29.3563 141.947 29.4769 141.689L29.6615 141.291C29.75 141.1 29.7909 140.89 29.7806 140.68C29.7703 140.47 29.7092 140.265 29.6024 140.084C29.4957 139.903 29.3466 139.75 29.1678 139.639C28.9891 139.528 28.7861 139.462 28.5762 139.447L24.3512 139.14C24.3127 139.065 24.2816 138.985 24.2583 138.904C24.2056 138.722 24.1785 138.535 24.1778 138.346C24.176 138.248 24.1856 138.151 24.2063 138.055C25.0054 138 26.3717 137.948 27.5615 137.912C28.8635 137.872 29.9617 137.849 29.9642 137.849C30.2132 137.843 30.4555 137.766 30.6621 137.627C30.8687 137.488 31.0311 137.293 31.1298 137.064C31.2285 136.835 31.2594 136.583 31.2189 136.337C31.1783 136.091 31.068 135.863 30.9011 135.678C30.9005 135.677 30.678 135.431 30.3372 135.049C29.8263 134.478 29.0522 133.606 28.3867 132.833C28.0543 132.447 27.7484 132.085 27.5221 131.805C27.4093 131.666 27.3161 131.547 27.2548 131.464L27.206 131.396L27.2291 131.325C27.2931 131.207 27.3829 131.105 27.4919 131.027C27.5893 130.95 27.7022 130.895 27.8228 130.865L27.9668 130.852C28.1427 130.858 28.3159 130.897 28.4768 130.969C28.9826 131.205 29.4503 131.517 29.8643 131.892C30.6612 132.558 31.531 133.457 32.4909 134.239C32.8652 134.542 33.2616 134.815 33.6768 135.058C33.7294 135.095 33.7848 135.128 33.8424 135.156C33.9149 135.196 33.9806 135.244 34.0551 135.282C34.6504 135.592 35.3101 135.76 35.9816 135.771C36.2083 135.772 36.4346 135.75 36.6573 135.707C36.928 135.656 37.1752 135.52 37.3626 135.318L37.4856 135.186C37.584 135.08 37.6642 134.959 37.7228 134.828C38.1315 133.986 38.6555 133.205 39.2797 132.507C39.5215 132.226 39.7825 131.962 40.0608 131.717C40.0951 131.688 40.1224 131.667 40.1505 131.645C40.5056 131.645 40.8576 131.709 41.1905 131.832C41.2764 131.863 41.3541 131.913 41.4178 131.978C41.4284 132.002 41.4372 131.977 41.444 132.107L41.423 132.3L41.4181 132.317C41.3556 132.483 41.2813 132.645 41.1959 132.8C40.9104 133.337 40.6533 133.887 40.4257 134.451C40.0781 135.344 39.8219 136.271 39.6609 137.216C39.3511 138.463 38.7459 139.616 37.8965 140.58C37.5684 140.982 37.2192 141.366 36.8502 141.731C36.7115 141.868 36.5984 141.974 36.5224 142.044L36.5027 142.061C36.4267 142.111 36.3538 142.166 36.2847 142.226C36.1033 142.394 35.9357 142.577 35.7836 142.773C35.6367 142.955 35.4484 143.208 35.2341 143.505C35.1571 143.612 35.0886 143.704 35.0007 143.83C34.772 144.172 34.4508 144.443 34.0744 144.611C33.7089 144.762 33.3158 144.836 32.9202 144.828C32.3189 144.815 31.7232 144.709 31.1546 144.513C30.9105 144.432 30.709 144.351 30.5745 144.292L30.4255 144.225L30.3939 144.21L30.3937 144.209C30.1544 144.086 29.8823 144.04 29.6156 144.079L29.5165 144.093C29.4127 144.107 29.3111 144.135 29.2142 144.174C29.2134 144.175 28.9217 144.292 28.4707 144.47C27.7946 144.738 26.7642 145.139 25.8626 145.469V145.469ZM40.7613 150.753C39.2352 150.265 37.7402 149.684 36.2848 149.014C35.3987 148.613 34.5976 148.045 33.9246 147.343C34.3369 147.275 34.7391 147.157 35.1223 146.99C35.7535 146.709 36.3155 146.293 36.7689 145.771C37.7243 145.902 38.6975 145.773 39.5852 145.396C40.473 145.019 41.2421 144.409 41.8111 143.63L41.8172 143.622C42.4417 142.783 42.8106 141.781 42.8794 140.737C42.9482 139.693 42.7141 138.651 42.2052 137.737C42.2097 137.714 42.2169 137.692 42.2212 137.668C42.3881 136.654 42.6951 135.668 43.1334 134.738C43.1814 134.636 43.2278 134.546 43.2748 134.452C45.3666 135.397 47.3404 136.584 49.1558 137.988C50.1446 138.761 51.0252 139.663 51.7741 140.669C52.4458 141.562 52.9027 142.598 53.1094 143.696C53.1116 143.709 53.12 143.719 53.1226 143.733C53.1751 144.044 53.2019 144.359 53.2027 144.674C53.1901 145.65 52.9666 146.611 52.5475 147.492C52.143 148.447 51.538 149.303 50.7734 150.003L50.7634 150.012C50.1245 150.583 49.3713 151.011 48.554 151.267C47.6961 151.531 46.8024 151.66 45.905 151.648C44.1558 151.604 42.4226 151.302 40.7613 150.753V150.753ZM68.8459 142.197C67.2178 144.4 65.7888 146.319 64.5538 147.872C63.6181 149.104 62.5859 150.26 61.4671 151.329L61.4604 151.335C59.7083 153.005 57.3977 153.964 54.9779 154.025C53.6215 154.038 52.2904 153.658 51.1459 152.93C51.4708 152.736 51.7824 152.521 52.0785 152.285C53.4465 152.253 54.7526 151.708 55.738 150.759C56.7235 149.81 57.3164 148.525 57.3993 147.159L57.4 147.149C57.4052 147.05 57.4079 146.95 57.408 146.849C57.4071 146.072 57.2409 145.305 56.9206 144.598C56.6003 143.89 56.1331 143.259 55.5501 142.746C55.2381 141.45 54.6723 140.228 53.8855 139.152C53.5517 138.691 53.1906 138.251 52.804 137.834C54.7752 135.328 57.0893 133.112 59.6783 131.25C62.5123 129.251 65.4937 128.015 68.066 128.026C68.6798 128.023 69.2916 128.096 69.8878 128.242C70.5906 128.392 71.2483 128.704 71.8082 129.155C71.874 129.211 71.9226 129.26 71.9697 129.308C71.7994 129.763 71.6331 130.244 71.4705 130.759C71.3404 130.752 71.2101 130.766 71.0842 130.799C69.9745 131.147 68.9998 131.83 68.2941 132.755C67.5884 133.679 67.1864 134.8 67.1431 135.962L67.139 136.174C67.1391 137.012 67.3266 137.84 67.6878 138.596C68.049 139.353 68.5747 140.019 69.2264 140.546C69.2333 140.552 69.2421 140.553 69.249 140.558C69.1654 141.049 69.0834 141.548 69.0029 142.055C68.9466 142.098 68.8941 142.145 68.8459 142.197ZM90.9913 125.557L90.9855 125.554L90.8297 125.481C90.7356 125.435 90.6421 125.38 90.5482 125.332C90.6335 125.319 90.7172 125.297 90.7982 125.267C90.8706 125.228 90.939 125.182 91.0025 125.129C91.1506 125.052 91.2688 124.927 91.3383 124.775C91.388 124.708 91.4309 124.637 91.4663 124.561C91.4916 124.479 91.5086 124.395 91.5172 124.309C91.5386 124.238 91.5534 124.164 91.5615 124.09H91.5614V120.584C93.6579 120.683 95.8202 120.74 98.071 120.74C100.277 120.74 102.384 120.677 104.441 120.582V124.06C104.449 124.136 104.465 124.21 104.486 124.283C104.495 124.369 104.512 124.454 104.538 124.537C104.574 124.611 104.617 124.682 104.667 124.749C104.735 124.901 104.854 125.025 105.003 125.101C105.067 125.154 105.136 125.201 105.209 125.24C105.237 125.253 105.266 125.259 105.295 125.27C105.258 125.287 105.227 125.305 105.191 125.322L105.187 125.324C105.043 125.392 104.894 125.457 104.714 125.537C102.464 126.502 100.043 127.007 97.5947 127.021C95.3116 127.034 93.0547 126.534 90.9913 125.557V125.557ZM135.908 150.602C133.659 148.443 130.362 144.929 127.742 141.827C127.681 141.768 127.615 141.715 127.543 141.67C127.475 141.25 127.406 140.841 127.336 140.433C127.95 139.906 128.443 139.252 128.782 138.517C129.121 137.782 129.296 136.982 129.297 136.172L129.294 135.967L129.293 135.963C129.25 134.801 128.848 133.68 128.143 132.755C127.437 131.831 126.462 131.147 125.352 130.799C125.281 130.785 125.209 130.778 125.136 130.776C125.038 130.466 124.939 130.166 124.838 129.878C125.375 129.358 126.033 128.98 126.753 128.78C127.492 128.551 128.262 128.437 129.036 128.443C132.227 128.424 136.175 130.243 139.761 132.958C142.859 135.298 145.579 138.101 147.825 141.267C147.665 141.341 147.502 141.409 147.345 141.491C146.689 141.834 146.077 142.255 145.52 142.743C144.737 142.79 143.977 143.023 143.302 143.422C142.547 143.885 141.913 144.521 141.451 145.277L141.449 145.28C140.722 146.436 140.456 147.822 140.703 149.165C140.95 150.508 141.691 151.709 142.782 152.53C142.98 153.216 143.264 153.875 143.625 154.49C141.458 154.397 139.38 153.6 137.707 152.219C137.29 151.891 136.654 151.32 135.908 150.602V150.602ZM157.544 159.065C154.716 158.584 151.975 157.681 149.415 156.388C148.183 155.743 147.102 154.844 146.243 153.752C145.435 152.676 145.007 151.363 145.026 150.018C145.029 149.465 145.086 148.915 145.196 148.373C145.38 147.342 145.803 146.369 146.431 145.532C147.326 144.43 148.536 143.628 149.899 143.233C151.444 142.77 153.05 142.549 154.662 142.578C155.951 142.586 157.237 142.681 158.512 142.863C158.635 143.514 158.697 144.176 158.696 144.839C158.696 145.184 158.68 145.563 158.644 145.981C158.626 146.183 158.617 146.386 158.617 146.585C158.618 146.663 158.634 146.736 158.636 146.813C157.882 147.31 157.264 147.986 156.835 148.78C156.407 149.575 156.182 150.463 156.181 151.366L156.182 151.466V151.463C156.206 152.891 156.791 154.254 157.81 155.256C158.828 156.258 160.2 156.82 161.629 156.821L161.747 156.82C162.137 156.81 162.525 156.759 162.904 156.666C163.241 156.966 163.617 157.218 164.023 157.417C163.134 158.157 162.091 158.69 160.97 158.975C159.849 159.26 158.678 159.291 157.544 159.065L157.544 159.065ZM174.273 157.172C174.251 157.19 174.234 157.202 174.213 157.218C173.539 157.011 172.262 156.567 171.176 156.181C170.188 155.83 169.356 155.527 169.207 155.473L169.148 155.447C168.902 155.344 168.631 155.318 168.37 155.372L168.37 155.372C167.967 155.445 167.558 155.481 167.149 155.479C166.497 155.495 165.85 155.376 165.246 155.13C164.976 155.012 164.73 154.845 164.522 154.636C164.294 154.4 164.121 154.118 164.014 153.808C163.822 153.238 163.591 152.683 163.322 152.146C163.239 151.986 163.138 151.837 163.02 151.701L163.014 151.695C162.671 151.151 162.365 150.585 162.099 149.999C161.576 148.933 161.276 147.771 161.217 146.586C161.217 146.457 161.223 146.332 161.233 146.211C161.277 145.716 161.296 145.26 161.296 144.839C161.297 143.941 161.207 143.046 161.027 142.166C160.933 141.785 160.86 141.399 160.809 141.01V141.009L160.81 141.004C160.811 140.909 160.831 140.816 160.871 140.729L160.955 140.665C161.103 140.614 161.259 140.591 161.415 140.597C161.627 140.6 161.838 140.622 162.045 140.666C162.107 140.678 162.157 140.691 162.209 140.705C162.29 140.813 162.364 140.925 162.433 141.041C163.052 142.082 163.489 143.22 163.726 144.408C163.748 144.551 163.794 144.689 163.862 144.816L163.947 144.976C164.076 145.219 164.279 145.415 164.526 145.534C164.83 145.676 165.153 145.77 165.485 145.812C165.561 145.828 165.639 145.836 165.716 145.837C165.81 145.844 165.906 145.867 165.999 145.867C166.894 145.829 167.767 145.577 168.545 145.131C169.697 144.527 170.774 143.713 171.756 143.087C172.181 142.804 172.627 142.554 173.091 142.339C173.368 142.202 173.67 142.121 173.979 142.101C174.072 142.098 174.165 142.117 174.25 142.156C174.379 142.229 174.489 142.332 174.57 142.456C174.648 142.559 174.696 142.682 174.71 142.81L174.708 142.831L174.698 142.845C174.676 142.868 174.556 142.986 174.399 143.133C173.83 143.664 172.706 144.668 171.736 145.529C170.764 146.392 169.94 147.115 169.939 147.117C169.745 147.287 169.606 147.511 169.54 147.76C169.474 148.009 169.484 148.273 169.568 148.516C169.652 148.76 169.806 148.973 170.012 149.129C170.217 149.285 170.464 149.376 170.721 149.391C170.722 149.391 170.781 149.394 170.894 149.402C171.292 149.428 172.324 149.502 173.402 149.626C173.941 149.688 174.492 149.763 174.971 149.848C175.325 149.91 175.644 149.981 175.871 150.045C175.844 150.331 175.75 150.608 175.598 150.852C175.541 150.948 175.471 151.036 175.389 151.112L171.078 151.222C170.892 151.227 170.708 151.272 170.54 151.354C170.373 151.436 170.224 151.553 170.106 151.697C169.988 151.842 169.902 152.01 169.854 152.191C169.807 152.371 169.799 152.56 169.831 152.744L169.906 153.177C169.941 153.378 170.023 153.568 170.144 153.731C170.266 153.895 170.425 154.027 170.607 154.118C170.607 154.118 170.683 154.156 170.822 154.227C171.307 154.472 172.538 155.106 173.634 155.74C174.126 156.024 174.586 156.308 174.925 156.542C174.726 156.77 174.507 156.981 174.273 157.172L174.273 157.172Z"/><path id="Vector_19" d="M44.9961 126.554L44.9971 126.552L44.9991 126.55L44.9961 126.554Z"/><path id="Vector_20" d="M90.7251 68.1867C90.776 64.9053 90.046 61.6588 88.5952 58.7151C87.9305 57.4034 86.9877 56.2525 85.8325 55.3426C84.6713 54.4486 83.2474 53.9629 81.782 53.9609C81.6322 53.9609 81.4818 53.9659 81.3305 53.9757C79.8471 54.0715 78.4265 54.61 77.2524 55.5217C75.516 56.959 74.2271 58.8633 73.5382 61.0096C72.7421 63.3151 72.3432 65.739 72.3582 68.1781C72.2875 71.3105 73.0119 74.4097 74.4638 77.1862C75.1543 78.4462 76.1263 79.5299 77.3041 80.353C78.5327 81.1818 79.9834 81.6193 81.4654 81.6082C81.5993 81.6082 81.7349 81.6049 81.8722 81.5983C83.3391 81.5373 84.7569 81.0527 85.9543 80.2031C87.6723 78.8902 88.9492 77.0848 89.6149 75.0276C90.3731 72.8275 90.7486 70.5137 90.7251 68.1867ZM86.4399 75.7623C85.9585 76.6743 85.2789 77.4669 84.451 78.0818C83.6584 78.6457 82.7181 78.9654 81.746 79.0013C81.6518 79.0059 81.5582 79.0082 81.4653 79.0081C80.5005 79.0205 79.555 78.7371 78.756 78.1961C77.4402 77.2027 76.4643 75.8263 75.9623 74.2559C75.276 72.304 74.9362 70.247 74.9583 68.1781C74.9083 65.3914 75.526 62.6333 76.7598 60.1342C77.2633 59.1488 77.9692 58.2809 78.8313 57.5873C79.5972 56.9863 80.5272 56.6317 81.4987 56.5702L81.4147 55.273L81.4988 56.5702C81.5951 56.564 81.6895 56.5609 81.782 56.5609C82.684 56.5614 83.5598 56.864 84.2697 57.4205C85.5976 58.5564 86.5721 60.0489 87.0781 61.7215C87.7843 63.8033 88.1382 65.9884 88.1251 68.1867C88.193 70.8119 87.6143 73.4135 86.4399 75.7623Z"/><path id="Vector_21" d="M106.778 61.0096C105.982 63.3151 105.583 65.739 105.598 68.1781C105.528 71.3105 106.252 74.4097 107.704 77.1861C108.395 78.4462 109.366 79.5299 110.544 80.353C111.773 81.1817 113.224 81.6193 114.706 81.6081C114.84 81.6081 114.975 81.6049 115.112 81.5983C116.579 81.5373 117.997 81.0527 119.195 80.2031C120.913 78.8903 122.189 77.085 122.855 75.0279C123.613 72.8278 123.989 70.5141 123.965 68.1871C124.016 64.9057 123.286 61.6591 121.835 58.7153C121.171 57.4036 120.228 56.2526 119.073 55.3427C117.912 54.4486 116.488 53.9629 115.022 53.9609C114.872 53.9609 114.722 53.9659 114.571 53.9757C113.087 54.0715 111.667 54.61 110.493 55.5217C108.756 56.959 107.467 58.8633 106.778 61.0096ZM112.072 57.5873C112.837 56.9864 113.767 56.6318 114.739 56.5702L114.655 55.273L114.739 56.5702C114.835 56.564 114.93 56.5609 115.022 56.561C115.924 56.5614 116.8 56.864 117.51 57.4205C118.838 58.5565 119.812 60.0491 120.318 61.7217C121.025 63.8036 121.378 65.9888 121.365 68.1871C121.433 70.8122 120.855 73.4137 119.68 75.7624C119.199 76.6744 118.519 77.4669 117.691 78.0818C116.899 78.6457 115.958 78.9654 114.986 79.0013C114.892 79.0059 114.799 79.0082 114.706 79.0081C113.741 79.0205 112.795 78.7371 111.996 78.1961C110.681 77.2027 109.705 75.8263 109.203 74.2559C108.516 72.3039 108.177 70.247 108.199 68.178C108.149 65.3914 108.766 62.6333 110 60.1342C110.504 59.1488 111.209 58.281 112.072 57.5873Z"/><path id="Vector_22" d="M108.469 94.57C108.944 93.7271 109.3 92.8229 109.528 91.8828C109.563 91.7142 109.565 91.5403 109.532 91.3711C109.499 91.202 109.434 91.041 109.338 90.8975C109.243 90.7541 109.12 90.631 108.977 90.5354C108.833 90.4399 108.672 90.3738 108.503 90.341C105.119 89.7274 101.684 89.4332 98.2443 89.4624C95.0456 89.4576 91.8498 89.6576 88.6766 90.0612C88.5067 90.0855 88.3432 90.1432 88.1957 90.2311C88.0481 90.3189 87.9195 90.435 87.8171 90.5728C87.7147 90.7107 87.6406 90.8674 87.5991 91.034C87.5576 91.2006 87.5495 91.3737 87.5753 91.5435C87.8731 93.1117 88.5014 94.5985 89.4185 95.9049C90.2783 97.1473 91.4103 98.177 92.7283 98.9157C94.4605 99.846 96.4036 100.313 98.3694 100.271C100.337 100.308 102.284 99.8623 104.04 98.9741C105.919 97.9765 107.461 96.4438 108.469 94.57ZM102.728 96.725C101.37 97.3807 99.8766 97.705 98.3694 97.6711C96.8466 97.7131 95.3389 97.3593 93.9936 96.6444C92.6095 95.8509 91.507 94.646 90.8392 93.197C90.7142 92.937 90.6125 92.6906 90.5257 92.4608C93.0902 92.1981 95.6664 92.0651 98.2443 92.0625C101.013 92.0528 103.778 92.2505 106.517 92.6539C106.2 93.3687 105.79 94.0386 105.299 94.6464C104.599 95.514 103.723 96.2227 102.728 96.725H102.728Z"/><path id="Vector_23" d="M132.462 153.849C132.013 153.645 131.534 153.513 131.043 153.459C130.533 153.396 130.019 153.367 129.505 153.371C127.904 153.401 126.307 153.541 124.725 153.791C124.333 153.223 123.737 152.387 123.046 151.529C122.449 150.77 121.793 150.059 121.083 149.405C120.746 149.098 120.379 148.827 119.987 148.597C119.563 148.34 119.079 148.197 118.583 148.182C118.403 148.182 118.224 148.205 118.05 148.251C117.761 148.33 117.492 148.468 117.258 148.655C116.899 148.954 116.599 149.315 116.37 149.721C115.956 150.463 115.62 151.245 115.368 152.056C114.868 153.643 114.463 155.257 114.156 156.892C113.45 157.166 112.304 157.633 111.127 158.207C110.174 158.656 109.263 159.187 108.403 159.796C108.002 160.083 107.637 160.418 107.315 160.791C106.952 161.2 106.72 161.707 106.647 162.249L106.635 162.481C106.648 163.002 106.805 163.51 107.088 163.949C107.553 164.648 108.128 165.268 108.791 165.784C109.766 166.565 110.798 167.275 111.876 167.907C112.221 168.113 112.531 168.291 112.787 168.435C112.786 168.55 112.785 168.666 112.785 168.8C112.776 170.289 112.851 171.778 113.01 173.258C113.089 174.018 113.239 174.768 113.458 175.499C113.564 175.844 113.713 176.173 113.9 176.481C114.125 176.856 114.454 177.158 114.847 177.348L115.39 176.167L114.848 177.349C115.11 177.467 115.394 177.527 115.681 177.525C116.157 177.51 116.623 177.389 117.047 177.173C117.789 176.791 118.486 176.326 119.124 175.787C120.383 174.737 121.578 173.612 122.702 172.418C123.114 172.549 123.652 172.713 124.266 172.878C125.717 173.307 127.216 173.558 128.728 173.624C129.196 173.632 129.663 173.576 130.116 173.457C130.567 173.354 130.978 173.122 131.301 172.792C131.624 172.461 131.845 172.044 131.938 171.591C132.013 171.26 132.049 170.92 132.045 170.58C132.023 169.75 131.906 168.924 131.697 168.12C131.305 166.587 130.808 165.082 130.21 163.617C130.571 163.053 131.142 162.138 131.72 161.11C132.209 160.253 132.653 159.372 133.048 158.468C133.231 158.046 133.388 157.613 133.518 157.172C133.647 156.754 133.717 156.321 133.727 155.884C133.739 155.425 133.61 154.973 133.357 154.59C133.127 154.27 132.819 154.015 132.462 153.849ZM129.121 160.417C128.736 161.077 128.37 161.667 128.102 162.088C127.967 162.299 127.858 162.468 127.782 162.584C127.707 162.699 127.667 162.758 127.667 162.758C127.546 162.938 127.472 163.147 127.452 163.363C127.433 163.58 127.468 163.798 127.554 163.998L127.573 164.043C127.675 164.28 128.157 165.434 128.606 166.787C128.83 167.462 129.046 168.188 129.201 168.861C129.343 169.424 129.425 170 129.445 170.58C129.447 170.705 129.437 170.83 129.414 170.952C129.19 171.007 128.959 171.031 128.728 171.024C127.446 170.954 126.176 170.734 124.944 170.369C124.322 170.2 123.769 170.031 123.375 169.904C123.178 169.841 123.021 169.789 122.914 169.752L122.793 169.711L122.756 169.698C122.514 169.612 122.253 169.599 122.004 169.662C121.756 169.724 121.531 169.859 121.359 170.049L121.31 170.103C121.058 170.378 119.856 171.669 118.542 172.859C117.938 173.419 117.298 173.938 116.626 174.413C116.417 174.558 116.197 174.688 115.969 174.802C115.85 174.449 115.76 174.086 115.702 173.718C115.472 172.089 115.366 170.445 115.385 168.8C115.385 168.466 115.389 168.191 115.392 168C115.395 167.81 115.398 167.71 115.398 167.71C115.406 167.465 115.345 167.223 115.221 167.011C115.097 166.8 114.916 166.628 114.698 166.516L114.638 166.484C113.548 165.902 112.492 165.259 111.475 164.558C110.851 164.134 110.267 163.654 109.732 163.124C109.566 162.957 109.419 162.773 109.295 162.573L109.267 162.514L109.27 162.51C109.648 162.089 110.093 161.733 110.587 161.457C111.659 160.822 112.775 160.265 113.927 159.791C114.448 159.57 114.905 159.389 115.23 159.265C115.392 159.203 115.521 159.154 115.609 159.122L115.738 159.075C115.955 158.997 116.148 158.862 116.297 158.686C116.445 158.509 116.544 158.295 116.583 158.068L116.597 157.988C116.668 157.579 117.022 155.652 117.543 153.829C117.765 153.006 118.053 152.203 118.405 151.426C118.495 151.234 118.602 151.05 118.724 150.876C118.779 150.905 118.832 150.937 118.883 150.972C119.353 151.323 119.785 151.722 120.171 152.164C120.873 152.95 121.53 153.775 122.14 154.635C122.407 155.007 122.629 155.33 122.783 155.558C122.86 155.671 122.92 155.762 122.96 155.822L123.019 155.912C123.157 156.127 123.357 156.297 123.592 156.399C123.827 156.502 124.087 156.532 124.339 156.486L124.461 156.465C126.128 156.179 127.814 156.014 129.505 155.971C130.003 155.961 130.501 155.999 130.992 156.086C131.035 156.095 131.063 156.104 131.1 156.114C131.079 156.23 131.052 156.344 131.019 156.458C130.528 157.841 129.892 159.168 129.121 160.417Z"/><path id="Vector_24" d="M106.646 162.251L106.647 162.249V162.244L106.646 162.251Z"/><path id="Vector_25" d="M47.7913 104.444C47.9488 105.229 48.2305 106.531 48.6124 107.871C48.8948 108.919 49.2676 109.94 49.7265 110.924C49.9393 111.374 50.2094 111.795 50.53 112.176C50.703 112.376 50.9026 112.552 51.1231 112.699C51.3862 112.874 51.6851 112.988 51.9978 113.032L52.0023 113.033C52.0948 113.045 52.188 113.051 52.2812 113.051C52.7873 113.034 53.2814 112.893 53.7202 112.64C54.4771 112.202 55.176 111.67 55.8009 111.058C57.0736 109.829 58.265 108.519 59.3673 107.135C60.9941 107.372 62.6345 107.504 64.2783 107.529C65.0816 107.542 65.8841 107.474 66.6739 107.327C67.0489 107.253 67.4132 107.132 67.7582 106.968C68.1585 106.78 68.5006 106.487 68.7484 106.121C68.9944 105.725 69.1198 105.267 69.1094 104.801C69.0998 104.349 69.0249 103.9 68.8867 103.469C68.6285 102.672 68.295 101.902 67.8908 101.168C67.1484 99.809 66.3254 98.4958 65.4264 97.2353C65.7023 96.6891 66.0935 95.8874 66.4926 94.9721C66.8738 94.1108 67.2102 93.2304 67.5004 92.3344C67.7929 91.4895 67.9601 90.6064 67.9965 89.7131C67.9997 89.4081 67.963 89.104 67.8872 88.8086C67.7995 88.4659 67.6353 88.1475 67.4068 87.8774C67.044 87.4792 66.5675 87.2021 66.042 87.0837C65.5776 86.9731 65.1011 86.921 64.6237 86.9286C62.9823 86.998 61.3539 87.2511 59.7689 87.6832C59.0205 87.8699 58.3644 88.0552 57.8946 88.194C57.3748 87.7038 56.5476 86.9456 55.6099 86.1729C54.8266 85.5154 54.0007 84.9103 53.1376 84.3617C52.7354 84.1085 52.3136 83.8881 51.876 83.7026C51.4407 83.511 50.9723 83.4055 50.4969 83.3921C50.2308 83.3903 49.9666 83.4362 49.7168 83.5277L50.1715 84.7456L49.7167 83.5277C49.2328 83.723 48.826 84.0711 48.5583 84.5191C48.1646 85.2045 47.8935 85.9534 47.7572 86.732C47.5155 87.9869 47.3644 89.2575 47.3049 90.534C47.255 91.4038 47.2367 92.1755 47.2299 92.725C46.5237 93.08 45.4069 93.6647 44.2677 94.358C43.3313 94.9108 42.4443 95.5433 41.6165 96.2484C41.2344 96.5776 40.8927 96.9509 40.5984 97.3604C40.2657 97.8086 40.078 98.3479 40.0605 98.9058L40.0675 99.0768C40.1294 99.6338 40.3642 100.157 40.7389 100.574C41.3464 101.233 42.0588 101.786 42.8472 102.211C44.0457 102.885 45.2896 103.474 46.5699 103.975C47.0464 104.166 47.463 104.323 47.7913 104.444ZM43.2628 99.3815C43.0609 99.2372 42.8767 99.0696 42.714 98.8822C42.7948 98.7544 42.889 98.6355 42.9951 98.5277C43.4709 98.0557 43.993 97.6327 44.5535 97.2651C45.5227 96.6166 46.5263 96.0208 47.5599 95.4805C48.0057 95.2443 48.3892 95.0508 48.6593 94.9174C48.7944 94.8506 48.9011 94.7988 48.9733 94.7642L49.0795 94.7136C49.3057 94.6072 49.4964 94.438 49.6291 94.2261C49.7617 94.0142 49.8305 93.7687 49.8274 93.5188C49.8274 93.5185 49.8261 93.4321 49.8261 93.2636C49.8248 91.7856 49.9013 90.3085 50.0553 88.8386C50.1317 88.0528 50.2789 87.2756 50.4952 86.5164C50.5452 86.3521 50.6094 86.1924 50.6872 86.0391C51.2119 86.2352 51.7084 86.4998 52.1636 86.8263C53.2158 87.5582 54.2192 88.3579 55.1676 89.2201C55.6015 89.6074 55.9702 89.9512 56.2289 90.1969C56.3581 90.3197 56.46 90.4179 56.5288 90.4847L56.6307 90.5843C56.8005 90.7519 57.013 90.8697 57.2451 90.9249C57.4773 90.98 57.7201 90.9704 57.9471 90.897C57.9473 90.897 58.0064 90.8777 58.1266 90.8403C58.5468 90.7093 59.659 90.3744 60.9319 90.0769C62.1402 89.7669 63.3774 89.5831 64.6237 89.5286C64.8811 89.5223 65.1384 89.5465 65.3902 89.6008C65.3942 89.6381 65.3963 89.6755 65.3965 89.713C65.3561 90.3408 65.2295 90.9601 65.0204 91.5534C64.626 92.7395 64.1559 93.8992 63.6129 95.0251C63.3747 95.5294 63.1599 95.9593 63.0055 96.2611C62.9284 96.4119 62.8663 96.5308 62.8241 96.6111L62.7613 96.7294C62.6437 96.9475 62.5908 97.1946 62.6089 97.4417C62.627 97.6887 62.7153 97.9255 62.8634 98.1241L62.902 98.1764C63.1024 98.4482 64.0501 99.7537 64.926 101.211C65.3531 101.908 65.7374 102.63 66.0768 103.373C66.208 103.663 66.3198 103.962 66.4115 104.268C66.4521 104.403 66.4808 104.541 66.4971 104.681C66.295 104.752 66.086 104.802 65.8735 104.83C65.3448 104.902 64.8117 104.935 64.2782 104.929C63.1005 104.915 61.9244 104.836 60.7553 104.692C60.2445 104.632 59.8093 104.573 59.5038 104.528C59.3511 104.506 59.2308 104.487 59.1495 104.475L59.0299 104.455C58.7977 104.416 58.5592 104.441 58.3401 104.528C58.121 104.614 57.9295 104.758 57.7862 104.945L57.739 105.006C57.4966 105.317 56.3389 106.781 55.0572 108.131C54.4739 108.761 53.8462 109.348 53.1789 109.888C52.9549 110.068 52.7152 110.227 52.4625 110.364L52.4233 110.381C52.369 110.313 52.3192 110.242 52.2743 110.168C51.9522 109.597 51.6895 108.994 51.4903 108.369C51.1198 107.248 50.8084 106.109 50.5574 104.955C50.4449 104.452 50.357 104.021 50.2977 103.718C50.268 103.566 50.2455 103.446 50.2305 103.365L50.2087 103.245C50.1686 103.015 50.0671 102.8 49.915 102.623C49.7628 102.445 49.5656 102.313 49.3442 102.238L49.2706 102.213C47.9607 101.755 46.6762 101.228 45.4226 100.633C44.6662 100.282 43.9433 99.8634 43.2628 99.3815Z"/><path id="Vector_26" d="M128.021 34.7824C127.604 34.5667 127.172 34.3805 126.729 34.225C126.301 34.0688 125.85 33.9832 125.394 33.9716C124.994 33.96 124.599 34.0613 124.254 34.2638C123.908 34.4664 123.627 34.7621 123.442 35.1171C123.203 35.5743 123.048 36.071 122.985 36.5832C122.913 37.106 122.879 37.6334 122.884 38.1612C122.902 39.4281 123.004 40.6924 123.189 41.946C123.245 42.3492 123.3 42.7089 123.349 43.0035C122.813 43.4018 122.03 44.0052 121.226 44.7024C120.508 45.3102 119.84 45.9738 119.227 46.6869C118.938 47.0263 118.684 47.3939 118.469 47.7842C118.231 48.2034 118.099 48.6747 118.086 49.1567C118.085 49.4161 118.133 49.6735 118.227 49.9152C118.432 50.3838 118.757 50.7899 119.169 51.0919C119.869 51.603 120.632 52.0236 121.438 52.3435C123.112 53.0227 124.827 53.5942 126.574 54.0544C126.846 54.7577 127.324 55.945 127.911 57.1741C128.354 58.132 128.871 59.0536 129.458 59.9305C129.73 60.3326 130.045 60.7042 130.396 61.0388C130.776 61.4133 131.256 61.6695 131.778 61.7763L131.782 61.7769C131.896 61.7959 132.011 61.8054 132.126 61.8054C132.649 61.7913 133.155 61.6229 133.582 61.3214C134.244 60.84 134.823 60.253 135.296 59.584C136.02 58.5912 136.673 57.5482 137.25 56.463C137.42 56.1506 137.567 55.8693 137.691 55.6274C138.326 55.6659 139.233 55.7075 140.225 55.7077C141.372 55.7238 142.517 55.6426 143.65 55.4651C144.177 55.3806 144.691 55.2275 145.179 55.0096C145.437 54.8906 145.676 54.7352 145.889 54.5484C146.145 54.3234 146.343 54.0399 146.466 53.722C146.558 53.4755 146.604 53.2144 146.602 52.9515C146.588 52.4774 146.481 52.0107 146.286 51.5783C145.934 50.8032 145.498 50.0692 144.985 49.3897C143.981 48.0448 142.895 46.7637 141.732 45.5539C141.835 45.1499 141.966 44.6077 142.1 43.9863C142.431 42.5579 142.622 41.1005 142.669 39.6348C142.677 39.1477 142.628 38.6614 142.525 38.1853C142.418 37.6538 142.156 37.166 141.771 36.7844L140.885 37.7358L141.77 36.7838C141.483 36.5237 141.136 36.3384 140.761 36.2444C140.44 36.1636 140.111 36.1246 139.78 36.1286C138.964 36.154 138.155 36.2802 137.37 36.5044C135.881 36.9213 134.422 37.4408 133.004 38.0592C132.451 37.6358 131.588 36.9932 130.613 36.3379C129.781 35.7685 128.915 35.2491 128.021 34.7824ZM131.63 40.2816C131.751 40.3753 131.846 40.4498 131.91 40.5004L132.005 40.5754C132.193 40.7269 132.421 40.8228 132.661 40.8522C132.901 40.8815 133.145 40.8433 133.365 40.7417L133.41 40.7212C133.646 40.6132 134.797 40.0974 136.131 39.6189C136.797 39.3797 137.509 39.1501 138.161 38.9857C138.689 38.8383 139.232 38.7521 139.78 38.7286C139.848 38.728 139.916 38.7314 139.983 38.7386C140.048 39.0327 140.077 39.3337 140.069 39.6349C140.02 40.9172 139.849 42.1919 139.557 43.4417C139.427 44.0517 139.295 44.5896 139.197 44.9722C139.148 45.1635 139.108 45.316 139.079 45.4196C139.051 45.5233 139.037 45.5732 139.037 45.5734C138.974 45.7956 138.972 46.0305 139.03 46.254C139.087 46.4775 139.203 46.6817 139.366 46.8456L139.416 46.8966C139.675 47.1599 140.895 48.4177 142.021 49.802C142.556 50.4452 143.047 51.123 143.493 51.8309C143.651 52.0844 143.789 52.3498 143.905 52.6249C143.919 52.6606 143.922 52.6791 143.933 52.7102C143.875 52.7351 143.816 52.7567 143.756 52.7751C143.248 52.9104 142.728 52.9965 142.203 53.0324C141.578 53.0869 140.889 53.1078 140.226 53.1077C139.377 53.1077 138.571 53.0741 137.982 53.0404C137.687 53.0236 137.446 53.0068 137.28 52.9943C137.115 52.9819 137.03 52.9741 137.03 52.9741C136.764 52.9504 136.498 53.0088 136.267 53.1414C136.035 53.274 135.851 53.4745 135.737 53.7156L135.708 53.7761C135.177 54.8754 134.585 55.9447 133.936 56.9792C133.551 57.6051 133.109 58.1945 132.616 58.7399C132.481 58.8858 132.332 59.0176 132.17 59.133C131.775 58.7297 131.437 58.2739 131.166 57.7786C130.538 56.6778 129.983 55.5375 129.503 54.3648C129.28 53.835 129.097 53.3718 128.971 53.043C128.908 52.8786 128.859 52.7478 128.826 52.659L128.777 52.5271C128.705 52.3259 128.584 52.1457 128.425 52.0025C128.267 51.8592 128.075 51.7574 127.868 51.706L127.792 51.6868C127.403 51.5882 125.575 51.1097 123.816 50.4795C123.006 50.2011 122.216 49.8656 121.454 49.4757C121.207 49.3486 120.972 49.1992 120.753 49.0291C120.802 48.9346 120.856 48.8434 120.917 48.7561C121.256 48.2872 121.64 47.8522 122.064 47.4571C122.79 46.7675 123.552 46.1171 124.347 45.5087C124.689 45.2445 124.984 45.0259 125.191 44.8745C125.295 44.7989 125.377 44.74 125.432 44.7005L125.513 44.6434C125.719 44.4994 125.879 44.2987 125.974 44.0656C126.068 43.8326 126.093 43.5771 126.045 43.3302L126.023 43.2085C125.712 41.5427 125.532 39.8551 125.484 38.1611C125.472 37.6657 125.515 37.1704 125.61 36.6841C125.617 36.654 125.624 36.6369 125.632 36.6108C125.72 36.6315 125.808 36.6569 125.893 36.6868C126.519 36.9226 127.121 37.2169 127.692 37.5658C128.714 38.1637 129.805 38.9229 130.629 39.5275C131.041 39.8301 131.388 40.0942 131.63 40.2816Z"/><path id="Vector_27" d="M50.4971 28.5854C50.7135 28.9726 51.0155 29.3053 51.3801 29.558C51.9854 29.9744 52.6392 30.3155 53.327 30.574C54.574 31.0534 55.8496 31.4546 57.1465 31.7753C57.2155 32.386 57.3288 33.2179 57.5077 34.0781C57.6659 34.918 57.9224 35.7364 58.2718 36.5164C58.4544 36.9141 58.7032 37.2779 59.0077 37.5923C59.3892 37.9859 59.9034 38.2236 60.4503 38.2593L60.4551 38.2596L60.5598 38.262C61.0231 38.2463 61.4781 38.1357 61.8968 37.937C62.6554 37.5784 63.3756 37.1439 64.0465 36.6401C65.4626 35.588 66.8196 34.4586 68.1114 33.2571C68.737 33.293 69.8064 33.3423 70.994 33.3425C72.1073 33.3533 73.22 33.2923 74.3254 33.1599C74.8322 33.0976 75.3325 32.9906 75.8205 32.8402C76.331 32.6958 76.7955 32.4221 77.1692 32.0456C77.3758 31.8187 77.5312 31.5501 77.6249 31.2579C77.7054 31.0032 77.7455 30.7374 77.7436 30.4702C77.7063 29.7219 77.5096 28.9901 77.1667 28.3239C76.6958 27.3645 76.1417 26.4482 75.5108 25.5854C75.3894 25.4154 75.2763 25.2618 75.1697 25.1188C75.5145 24.6538 75.9636 24.0299 76.4192 23.3428C76.9023 22.6264 77.3429 21.8823 77.7387 21.1142C77.9239 20.7515 78.0839 20.3764 78.2174 19.9916C78.3553 19.6086 78.4305 19.2058 78.4401 18.7988C78.4419 18.5642 78.4064 18.3309 78.3348 18.1075C78.2469 17.8358 78.0973 17.5882 77.8976 17.384C77.5891 17.0857 77.2009 16.883 76.7799 16.8004C76.435 16.7281 76.0833 16.6941 75.731 16.6991C74.9143 16.7174 74.1006 16.8038 73.2983 16.9575C71.4899 17.2771 69.5598 17.8039 68.5732 18.088C68.1326 17.7421 67.4685 17.2384 66.7022 16.7218C66.0084 16.246 65.2827 15.8187 64.5301 15.4428C64.1603 15.2602 63.7774 15.1055 63.3845 14.9798C62.9894 14.8501 62.5771 14.7804 62.1613 14.773C61.8765 14.7708 61.5933 14.8158 61.3232 14.9062V14.9062L61.323 14.9062L61.3226 14.9063V14.9064C60.852 15.0804 60.4383 15.3804 60.1269 15.7738C59.647 16.3981 59.2744 17.098 59.0244 17.8446C58.6428 18.9332 58.3436 20.049 58.1292 21.1825C58.0574 21.5448 57.9992 21.8693 57.9544 22.1352C57.2305 22.4499 56.0214 22.9928 54.7875 23.6252C53.8343 24.0997 52.9146 24.639 52.035 25.239C51.6467 25.5055 51.2872 25.8117 50.9622 26.1527C50.7967 26.33 50.6528 26.5263 50.5336 26.7376C50.3882 26.9967 50.3017 27.2847 50.2802 27.5811L50.2772 27.5809L50.2767 27.6001L50.2759 27.6042L50.2765 27.6043L50.2734 27.6974C50.2752 28.0071 50.352 28.3118 50.4971 28.5854ZM62.0899 17.1393L62.0887 17.1374L61.7451 16.1358L62.0899 17.1393ZM54.8468 26.5439C55.8826 25.9573 57.0874 25.3773 58.0242 24.9502C58.4929 24.7364 58.8955 24.5602 59.1794 24.4379C59.3214 24.3768 59.4338 24.3292 59.5099 24.2971L59.6236 24.2497C59.8344 24.1629 60.0186 24.0222 60.1577 23.8416C60.2969 23.6611 60.3861 23.4471 60.4163 23.2212L60.4247 23.1614C60.5881 22.0477 60.8167 20.9446 61.1093 19.8577C61.2811 19.1975 61.5154 18.5553 61.8091 17.9397C61.8987 17.7543 62.0097 17.58 62.1396 17.4203L62.185 17.3756C62.3312 17.3861 62.4755 17.4155 62.6141 17.463C63.1247 17.6393 63.6157 17.8679 64.0792 18.1452C64.882 18.6162 65.6563 19.134 66.3982 19.6961C66.719 19.9361 66.9864 20.1458 67.172 20.2941C67.2647 20.3682 67.337 20.427 67.3853 20.4666L67.4546 20.5237C67.621 20.6626 67.8194 20.7577 68.0319 20.8006C68.2443 20.8435 68.4641 20.8328 68.6713 20.7694C68.6715 20.7694 68.7413 20.7479 68.8775 20.7074C69.3536 20.5659 70.5984 20.2063 71.9709 19.8866C72.6566 19.7268 73.3744 19.5771 74.0357 19.4696C74.5858 19.3722 75.1423 19.3155 75.7008 19.3C75.5124 19.7707 75.2876 20.226 75.0284 20.6616C74.5306 21.5241 73.8947 22.4511 73.3884 23.151C73.1351 23.5015 72.9137 23.7963 72.7569 24.0021C72.6785 24.105 72.6161 24.1857 72.574 24.2399L72.5118 24.3194C72.3274 24.5524 72.2284 24.8415 72.2313 25.1386C72.2341 25.4357 72.3387 25.7228 72.5276 25.9522L72.5535 25.9841C73.08 26.6406 73.5721 27.3238 74.0281 28.031C74.3376 28.5056 74.6131 29.0015 74.8527 29.515C74.9757 29.7732 75.068 30.045 75.1277 30.3247C74.9902 30.3784 74.8488 30.4214 74.7047 30.4534C73.4808 30.675 72.2376 30.7719 70.9941 30.7425C70.1221 30.7425 69.3013 30.7136 68.7021 30.6847C68.4024 30.6702 68.158 30.6558 67.9897 30.645C67.8215 30.6343 67.7343 30.6276 67.734 30.6276C67.5525 30.6141 67.3702 30.6387 67.1988 30.6998C67.0274 30.7609 66.8706 30.8573 66.7387 30.9826L66.6841 31.0342C66.4054 31.2971 65.0865 32.5262 63.6636 33.6635C63.0056 34.2003 62.3165 34.6978 61.5999 35.1536C61.3491 35.3121 61.0869 35.4519 60.8155 35.5718C60.7793 35.587 60.7629 35.5899 60.7323 35.6011C60.5784 35.3354 60.4559 35.0528 60.3673 34.7588C60.1048 33.8833 59.9164 32.9872 59.8043 32.0801C59.7473 31.6619 59.7081 31.2967 59.6834 31.0389C59.671 30.9099 59.6623 30.8078 59.6568 30.7391L59.6491 30.6402C59.6301 30.36 59.5208 30.0936 59.3376 29.8808C59.1544 29.668 58.9072 29.5203 58.633 29.4597L58.5659 29.4446C57.3862 29.1723 56.2208 28.841 55.0742 28.452C54.4194 28.2368 53.7856 27.9626 53.1804 27.6327C53.7059 27.2259 54.2632 26.8618 54.8468 26.5439Z"/><path id="Vector_28" d="M54.6406 174.841L54.6416 174.839V174.833L54.6406 174.841Z"/><path id="Vector_29" d="M81.1395 168.02C80.493 167.73 79.8039 167.546 79.0988 167.477C78.3547 167.39 77.6059 167.349 76.8567 167.354C75.4632 167.355 74.1154 167.463 73.2977 167.544C72.8655 166.931 72.1641 165.966 71.3621 164.983C70.7144 164.17 70.008 163.406 69.2485 162.697C68.8991 162.373 68.5186 162.085 68.1124 161.837C67.6803 161.561 67.182 161.406 66.6697 161.389C66.5527 161.389 66.4359 161.399 66.3206 161.419V161.419L66.3201 161.419L66.3198 161.419V161.419C66.0111 161.476 65.7192 161.601 65.4657 161.786C65.0883 162.073 64.7735 162.434 64.5402 162.847C64.1257 163.585 63.7949 164.367 63.5539 165.178C63.0767 166.751 62.6961 168.353 62.4144 169.973C61.6749 170.192 60.5237 170.555 59.3367 171.022C58.349 171.393 57.3985 171.856 56.4976 172.405C56.075 172.666 55.6884 172.982 55.3479 173.344C54.9549 173.752 54.7062 174.277 54.6399 174.839L54.6309 175.036C54.6463 175.563 54.8034 176.077 55.0857 176.522C55.5598 177.256 56.1407 177.914 56.8091 178.476C57.8112 179.343 58.8699 180.142 59.9782 180.867C60.3831 181.137 60.7384 181.364 61.0197 181.54C61.0384 182.335 61.0891 183.676 61.23 185.076C61.3233 186.154 61.5055 187.221 61.7745 188.269C61.8991 188.745 62.082 189.204 62.319 189.636C62.447 189.862 62.6043 190.071 62.7868 190.256C63.0068 190.479 63.2739 190.65 63.5687 190.757C63.8049 190.838 64.0532 190.879 64.3031 190.877C64.763 190.864 65.2165 190.766 65.6401 190.586C66.4007 190.261 67.1243 189.856 67.7985 189.377C69.0985 188.463 70.3416 187.47 71.5207 186.405C72.0002 186.576 72.6691 186.804 73.4263 187.035C74.1721 187.263 75.0011 187.491 75.8243 187.667C76.6137 187.85 77.4196 187.951 78.2296 187.971C78.6208 187.976 79.0111 187.931 79.3903 187.835C79.8374 187.724 80.243 187.487 80.5585 187.152C80.8009 186.877 80.9735 186.548 81.0615 186.192C81.1366 185.892 81.1728 185.583 81.1693 185.274C81.1369 184.403 80.9903 183.539 80.7332 182.706C80.2308 181.036 79.615 179.403 78.8901 177.817C79.2782 177.28 79.8559 176.456 80.4462 175.515C80.974 174.688 81.4498 173.828 81.8706 172.942C82.0695 172.518 82.2391 172.081 82.3779 171.634C82.5167 171.201 82.592 170.75 82.6012 170.296C82.6094 169.864 82.5053 169.437 82.2992 169.058C82.0265 168.603 81.6221 168.24 81.1395 168.02ZM66.6682 163.401L66.6675 163.4L66.5449 162.699L66.6682 163.401ZM79.0876 172.693C78.5448 173.678 77.9502 174.632 77.3064 175.554C77.0317 175.951 76.7918 176.284 76.6218 176.516C76.5368 176.631 76.4693 176.722 76.4236 176.783L76.3563 176.872C76.2104 177.062 76.1201 177.289 76.0954 177.528C76.0706 177.767 76.1124 178.007 76.2161 178.224L76.2407 178.275C76.368 178.545 76.97 179.84 77.5292 181.319C77.8088 182.057 78.0773 182.842 78.2697 183.553C78.4385 184.112 78.5391 184.69 78.5693 185.274C78.5695 185.305 78.5669 185.324 78.5657 185.35C78.4543 185.365 78.3421 185.372 78.2297 185.37C77.6023 185.35 76.9784 185.268 76.3672 185.125C75.2984 184.885 74.2431 184.588 73.2059 184.236C72.7562 184.086 72.3762 183.951 72.1105 183.854C71.9776 183.805 71.8733 183.767 71.8031 183.74L71.7002 183.701C71.4718 183.612 71.2228 183.59 70.9822 183.636C70.7416 183.683 70.5191 183.797 70.3406 183.965L70.2905 184.012C70.0317 184.252 68.7924 185.386 67.4286 186.432C66.7924 186.931 66.1245 187.387 65.4291 187.8C65.1774 187.947 64.9148 188.076 64.6436 188.184C64.5914 188.203 64.5598 188.21 64.5172 188.223C64.4801 188.152 64.4473 188.078 64.4191 188.003C64.2082 187.377 64.059 186.732 63.9737 186.078C63.809 184.907 63.7029 183.729 63.6559 182.548C63.6326 182.034 63.6207 181.594 63.6147 181.285C63.6116 181.13 63.6101 181.008 63.6093 180.926L63.6085 180.804C63.6084 180.578 63.5493 180.356 63.4371 180.16C63.3248 179.963 63.1634 179.8 62.9686 179.685L62.9057 179.648C61.7701 178.962 60.6711 178.217 59.613 177.417C58.9575 176.929 58.3447 176.386 57.7813 175.794C57.6011 175.603 57.4418 175.393 57.306 175.168L57.2716 175.094C57.3349 175.023 57.404 174.958 57.4781 174.898C57.9737 174.523 58.5117 174.207 59.0811 173.958C60.119 173.487 61.1843 173.08 62.2713 172.738C62.7464 172.585 63.1554 172.463 63.4435 172.38C63.5875 172.338 63.7014 172.307 63.7782 172.285L63.891 172.255C64.1357 172.19 64.3561 172.056 64.5253 171.868C64.6945 171.679 64.805 171.446 64.8434 171.196L64.8562 171.115C64.9224 170.701 65.2513 168.748 65.7494 166.924C65.9571 166.109 66.2341 165.313 66.5774 164.545C66.6503 164.39 66.7344 164.241 66.8291 164.099C66.8779 164.129 66.9309 164.163 66.9883 164.205C67.5032 164.599 67.978 165.043 68.4057 165.531C69.1814 166.397 69.9129 167.302 70.5972 168.243C70.8978 168.651 71.1479 169.004 71.3218 169.254C71.4088 169.378 71.4767 169.477 71.5224 169.544L71.5896 169.644C71.7241 169.845 71.9119 170.004 72.132 170.104C72.3521 170.204 72.5957 170.241 72.8354 170.21L72.9176 170.2C74.2253 170.046 75.5403 169.964 76.8568 169.954C77.6735 169.94 78.4897 170.002 79.2948 170.14C79.5344 170.182 79.7679 170.253 79.9902 170.352L79.9951 170.355C79.9803 170.535 79.9445 170.713 79.8884 170.885C79.6795 171.512 79.4114 172.117 79.0876 172.693H79.0876Z"/></g></svg>