<svg width="200" height="200" viewBox="0 0 200 200" xmlns="http://www.w3.org/2000/svg"><g id="type=user, mode=dark"><g id="Group 432527127"><path id="Vector" d="M134.192 84.7575C133.945 83.8399 133 83.297 132.082 83.5448C131.165 83.7927 130.622 84.7375 130.87 85.6551L130.978 86.0572C131.226 86.9748 132.171 87.5177 133.088 87.2698C134.006 87.0219 134.549 86.0772 134.301 85.1596L134.192 84.7575Z"/><path id="Vector_2" d="M136.358 71.0905L136.362 71.0895L136.365 71.0884L136.358 71.0905Z"/><path id="Vector_3" d="M140.599 71.7472C139.906 71.1774 138.955 70.8095 137.964 70.8183C137.433 70.8179 136.895 70.913 136.361 71.0894C135.198 71.4585 134.285 72.3063 133.788 73.2666C133.278 74.2304 133.1 75.2789 133.098 76.3196C133.108 78.2372 133.699 80.1946 134.698 81.831C135.202 82.6464 135.817 83.3846 136.587 83.9619C137.35 84.5349 138.315 84.9516 139.392 84.9509C139.653 84.9512 139.919 84.927 140.184 84.8772L140.195 84.8753C140.607 84.7958 140.962 84.6106 141.234 84.4011C141.712 84.0278 141.985 83.6044 142.205 83.1781C142.528 82.5349 142.722 81.8394 142.861 81.0792C142.997 80.3209 143.066 79.5026 143.066 78.6603C143.06 77.0219 142.821 75.3028 142.13 73.7886C141.779 73.0345 141.301 72.3154 140.599 71.7472Z"/><path id="Vector_4" d="M62.1505 79.7219C61.9026 78.8043 60.9578 78.2613 60.0402 78.5092C59.1227 78.7571 58.5797 79.7019 58.8276 80.6194L58.9362 81.0215C59.1841 81.9391 60.1288 82.4821 61.0464 82.2342C61.964 81.9863 62.507 81.0415 62.2591 80.124L62.1505 79.7219Z"/><path id="Vector_5" d="M68.5583 66.7125C67.865 66.1427 66.9148 65.7749 65.9232 65.7836C65.3896 65.7836 64.8518 65.8796 64.3201 66.0548C63.1575 66.4235 62.2444 67.2713 61.747 68.2313C61.2373 69.1951 61.0589 70.2432 61.0566 71.2843C61.0667 73.2016 61.6578 75.1589 62.6562 76.7957C63.1614 77.6111 63.7755 78.349 64.5454 78.9266C65.3088 79.4993 66.2736 79.9162 67.3498 79.9156C67.6152 79.9156 67.8799 79.8904 68.1388 79.8422L68.1537 79.8396C68.5654 79.7601 68.921 79.5749 69.1928 79.3655C69.6708 78.9922 69.9433 78.5688 70.164 78.1425C70.4863 77.4993 70.6805 76.8037 70.8198 76.0436C70.9559 75.2853 71.0247 74.4669 71.0251 73.6247C71.0183 71.9866 70.7801 70.2678 70.0887 68.7539C69.738 67.9999 69.26 67.2807 68.5583 66.7125Z"/><path id="Vector_6" d="M64.3174 66.0553L64.32 66.0547L64.3222 66.0537L64.3174 66.0553Z"/><path id="Vector_7" d="M188.124 110.085C187.897 109.962 182.87 107.18 166.291 103.666C167.795 96.44 168.615 89.5601 168.616 83.0911C168.616 75.6793 167.543 68.7978 165.191 62.578C161.672 53.2447 155.229 45.445 145.498 39.7264C136.138 34.2186 123.767 30.5926 107.927 29.0541C108.69 25.4067 110.105 21.4929 112.476 18.8707C112.986 18.3019 113.061 17.4703 112.661 16.8196C112.26 16.1687 111.484 15.8607 110.746 16.0601C110.69 16.0759 108.065 16.7854 104.78 18.2376C101.792 19.5689 98.2566 21.4897 95.5779 24.2121L90.5972 22.7728C89.8729 22.5634 89.0923 22.8527 88.6796 23.4832L85.4297 28.4445C76.1401 28.9313 68.1187 30.4271 61.2508 32.845C49.4889 36.9753 41.1148 43.8722 35.7929 52.8355C30.4632 61.7961 28.1648 72.7297 28.1645 84.9803C28.1645 87.4551 28.2682 89.99 28.4505 92.5705C21.1932 93.1057 16.6001 93.9513 13.6627 94.7784C11.6763 95.3394 10.4397 95.8928 9.63814 96.3669C8.83981 96.8404 8.46715 97.2454 8.29165 97.5069C7.87794 98.1245 7.9067 98.9339 8.36308 99.5208C10.9562 102.847 14.3712 105.294 17.1418 106.952C18.2491 107.613 19.2462 108.14 20.0591 108.543L14.1563 116.153C13.7361 116.695 13.6773 117.434 14.007 118.035C14.1217 118.249 14.7946 119.351 16.5823 120.583C18.1573 121.672 20.5885 122.859 24.2339 123.694C25.9512 132.305 31.223 139.448 38.7396 145.051C46.3634 150.738 56.3086 154.929 67.512 157.756C67.5259 157.76 67.5356 157.771 67.5495 157.774L67.5492 157.774C68.4548 158.009 68.7544 158.28 68.8171 158.361L68.8775 158.473C68.8927 158.523 68.9086 158.614 68.9086 158.76C68.9102 158.967 68.8708 159.277 68.8181 159.66C68.789 159.863 68.7095 160.091 68.4887 160.399C68.162 160.857 67.4884 161.454 66.4179 162.063C65.3507 162.677 63.904 163.307 62.0901 163.921C48.7759 168.443 37.4535 176.456 37.3785 176.502C36.6019 177.05 36.4163 178.124 36.9648 178.901C37.513 179.677 38.587 179.863 39.3637 179.314L39.48 179.233C40.6898 178.389 51.2685 171.217 63.1952 167.181C65.81 166.291 67.8439 165.352 69.3727 164.253C70.1358 163.702 70.777 163.104 71.2748 162.42C71.7712 161.739 72.118 160.954 72.2292 160.12L72.2299 160.116C72.2748 159.765 72.3488 159.31 72.3504 158.76C72.3504 158.379 72.3123 157.948 72.1769 157.492C71.9816 156.806 71.5237 156.091 70.8666 155.578C70.3501 155.168 69.7088 154.881 68.992 154.643C68.904 154.604 68.831 154.545 68.735 154.521C57.6864 151.778 47.9989 147.673 40.7991 142.292C33.7725 137.036 29.1406 130.649 27.6115 123.036C27.6729 122.905 27.7463 122.781 27.7737 122.632C27.9457 121.697 27.3277 120.8 26.3933 120.628L26.393 120.627C22.274 119.868 19.8758 118.675 18.539 117.752C18.2164 117.529 17.9579 117.322 17.7481 117.138L24.1082 108.939C24.4392 108.512 24.551 107.953 24.4088 107.431C24.2666 106.91 23.8868 106.485 23.3846 106.285L23.3719 106.28C23.1874 106.205 21.1667 105.371 18.6657 103.852C16.6282 102.619 14.2865 100.92 12.3457 98.8653C13.1175 98.5363 14.2746 98.1329 16.0193 97.725C19.8499 96.8214 26.3846 95.8941 37.2557 95.5744C38.2056 95.5463 38.9529 94.7535 38.9251 93.8036C38.897 92.8533 38.1041 92.1061 37.1542 92.1342C35.2706 92.1901 33.5268 92.2654 31.885 92.354C31.7065 89.8394 31.6063 87.3756 31.6063 84.9803C31.606 77.0959 32.5957 69.8857 34.713 63.515C37.8992 53.9567 43.5586 46.2808 52.4146 40.7998C61.2582 35.3353 73.3811 32.0813 89.4537 31.7422C92.8212 31.7952 95.8054 32.0729 98.0969 32.9423C99.4211 33.4407 100.517 34.1104 101.432 35.0406C102.344 35.9733 103.097 37.1847 103.652 38.8661C103.92 39.6802 104.742 40.1718 105.586 40.0228C106.43 39.8742 107.034 39.1308 107.007 38.2743L107.007 38.2542C107.005 38.2028 107.002 38.0577 107.002 37.8318C107.002 36.975 107.047 34.95 107.357 32.4626C128.355 34.4678 142.717 40.1909 151.804 48.6402C156.471 52.9787 159.792 58.0398 161.972 63.7955C164.148 69.5502 165.174 76.0086 165.174 83.0911C165.174 89.2731 164.387 95.9287 162.919 102.974C161.161 102.625 159.301 102.27 157.311 101.911C156.375 101.742 155.48 102.364 155.312 103.299C155.143 104.235 155.765 105.13 156.7 105.299L156.7 105.298C168.494 107.426 175.993 109.405 180.511 110.838C182.264 111.394 183.557 111.864 184.49 112.232C182.563 114.476 179.951 116.034 177.617 117.02C176.215 117.616 174.932 118.01 174.011 118.252C173.55 118.373 173.18 118.456 172.931 118.507C172.806 118.533 172.712 118.551 172.651 118.562L172.587 118.574L172.575 118.576C172.013 118.667 171.528 119.036 171.289 119.553C171.05 120.07 171.085 120.679 171.38 121.166L175.925 128.673C174.529 129.353 171.736 130.312 166.796 130.545C166.524 130.558 166.279 130.645 166.056 130.768C165.416 130.879 164.864 131.338 164.684 132.007C163.532 136.266 161.259 140.022 157.959 143.319C153.015 148.26 145.725 152.13 136.671 154.736C127.621 157.345 116.829 158.695 104.951 158.694C104.679 158.694 104.405 158.694 104.131 158.692C103.181 158.688 102.407 159.455 102.402 160.406C102.398 161.356 103.165 162.13 104.116 162.135L104.115 162.134C104.395 162.135 104.673 162.136 104.951 162.136C108.756 162.135 112.453 161.995 116.033 161.727C116.744 162.828 117.786 163.764 119.123 164.626C120.612 165.578 122.468 166.435 124.669 167.182C131.025 169.335 137.01 172.378 141.385 174.879C143.573 176.129 145.361 177.244 146.597 178.043C147.215 178.443 147.695 178.763 148.018 178.982C148.18 179.092 148.303 179.176 148.384 179.233L148.5 179.314C149.277 179.862 150.351 179.677 150.899 178.901C151.447 178.124 151.262 177.05 150.486 176.502C150.41 176.456 139.088 168.443 125.774 163.922C123.779 163.247 122.158 162.483 120.978 161.727C120.765 161.592 120.585 161.458 120.402 161.325C130.281 160.247 139.124 158.097 146.498 154.868C152.016 152.448 156.719 149.419 160.39 145.756C163.798 142.358 166.295 138.393 167.689 133.937C176.141 133.415 179.168 130.766 179.475 130.451C180.046 129.891 180.157 129.015 179.742 128.331L175.544 121.398C176.505 121.121 177.677 120.734 178.964 120.188C182.026 118.88 185.713 116.688 188.219 113.003C188.44 112.857 188.639 112.676 188.778 112.43C189.245 111.602 188.952 110.552 188.124 110.085ZM104.451 28.843C104.187 30.1821 104.006 31.4516 103.874 32.6165C101.902 30.6119 99.374 29.5321 96.6651 28.9626C94.4586 28.4988 92.0953 28.3514 89.6418 28.3091C89.6392 28.3088 89.637 28.3075 89.6344 28.3075L90.8626 26.4322L95.6273 27.8094C96.2753 27.9965 96.9715 27.7884 97.4111 27.2767C99.5401 24.7748 103.128 22.7211 106.172 21.3853C106.445 21.2647 106.707 21.1558 106.969 21.0459C105.727 23.5931 104.956 26.3252 104.451 28.843Z"/><path id="Vector_8" d="M66.2985 58.5867C59.0932 58.8646 52.9852 63.5958 50.9454 70.0399C49.4787 74.697 49.0042 79.0513 49.0039 82.5743C49.0039 84.4399 49.1371 86.0727 49.3326 87.4076C49.5327 88.7499 49.7751 89.7641 50.075 90.5288C50.3384 91.1882 50.6193 91.9063 51.0214 92.6403C51.6138 93.7373 52.5482 94.8808 53.9804 95.6433C55.4093 96.4122 57.2254 96.8113 59.6197 96.8446H59.6236C60.1999 96.8511 60.7442 96.8556 61.2597 96.8556C64.4384 96.8517 66.4194 96.7134 68.0361 96.2797C68.8396 96.0628 69.5432 95.7577 70.1609 95.3879C70.7808 95.0179 71.3066 94.6 71.8331 94.1588C73.2488 92.9509 74.1422 91.2247 74.8619 89.2017C75.9237 86.1613 76.5362 82.3539 76.9363 78.3367C77.3326 74.3241 77.5006 70.1146 77.5979 66.3676L77.5982 66.3369L77.5992 66.2034C77.6024 64.1591 76.6215 62.1497 74.8225 60.9186C72.3044 59.1908 69.5274 58.5696 66.9456 58.5738C66.7264 58.5737 66.5105 58.5783 66.2985 58.5867ZM74.1573 66.2034L74.1567 66.281C74.03 71.2235 73.7731 76.9346 73.0523 81.7553C72.6942 84.1632 72.2165 86.3478 71.6137 88.0627C71.0209 89.7838 70.2698 90.9965 69.6201 91.5223C69.1434 91.9231 68.7659 92.2127 68.3987 92.4309C67.8499 92.7525 67.2882 92.9755 66.2025 93.1533C65.1243 93.3259 63.5609 93.4147 61.2597 93.4138C60.7645 93.4138 60.2325 93.4092 59.6627 93.4028H59.6666C58.3072 93.385 57.2949 93.2253 56.5518 92.9975C55.4358 92.6436 54.917 92.2092 54.4594 91.6348C54.0082 91.0579 53.6639 90.2502 53.2732 89.2563C53.1355 88.9212 52.9034 88.0592 52.7383 86.9085C52.5683 85.7508 52.4458 84.2747 52.4458 82.5743C52.4454 79.3593 52.8824 75.3444 54.2283 71.0745C55.7955 66.0693 60.674 62.2341 66.4291 62.0263C66.6046 62.0195 66.7759 62.0156 66.9456 62.0156C69.0015 62.0198 71.0138 62.4859 72.8778 63.7587C73.7084 64.3285 74.1541 65.239 74.1573 66.2034Z"/><path id="Vector_9" d="M124.714 69.6165C124.036 74.4523 123.467 80.1928 123.466 85.3619C123.467 88.1118 123.625 90.6988 124.037 92.9434C124.245 94.0666 124.516 95.106 124.881 96.0485C125.248 96.9897 125.707 97.8417 126.338 98.5628C126.898 99.2027 127.539 99.7531 128.267 100.19C129.363 100.848 130.603 101.242 132.079 101.54C133.561 101.838 135.309 102.047 137.537 102.29C138.23 102.366 138.879 102.402 139.489 102.402C141.851 102.412 143.709 101.815 145.077 100.807C146.446 99.8049 147.26 98.5282 147.938 97.4028C148.265 96.8517 148.574 96.1578 148.898 95.2657C149.854 92.608 150.853 88.2407 150.857 82.901C150.857 81.0477 150.734 79.0803 150.445 77.0357C149.491 70.366 144.201 64.8097 137.114 63.534C136.216 63.373 135.283 63.2793 134.325 63.2793C132.379 63.2777 130.324 63.671 128.321 64.6529V64.6526C126.307 65.6371 125.004 67.5334 124.714 69.6165ZM129.077 66.1992L129.833 67.7448C131.333 67.0124 132.831 66.7228 134.325 66.7212C135.058 66.7212 135.788 66.7929 136.506 66.9222C142.154 67.9322 146.31 72.3696 147.037 77.5196C147.302 79.3929 147.415 81.1993 147.415 82.901C147.415 86.1667 147 89.0504 146.478 91.2825C146.217 92.3975 145.93 93.3504 145.66 94.0976C145.394 94.8413 145.132 95.3931 144.984 95.6355C144.359 96.6865 143.789 97.4913 143.049 98.0256C142.309 98.5547 141.332 98.9503 139.489 98.9603C139.016 98.9603 138.491 98.9319 137.909 98.8685C134.97 98.5511 132.964 98.2825 131.626 97.895C130.956 97.7024 130.456 97.4897 130.042 97.2408C129.628 96.99 129.286 96.702 128.925 96.2919C128.649 95.9813 128.351 95.4797 128.09 94.8029C127.694 93.7893 127.385 92.4011 127.191 90.7851C126.995 89.168 126.908 87.3216 126.908 85.3619C126.907 80.4433 127.459 74.8172 128.123 70.0942C128.262 69.1103 128.872 68.2141 129.832 67.7454L129.077 66.1992Z"/><path id="Vector_10" d="M77.4342 53.3783C77.8104 54.0509 78.0955 54.6492 78.2833 55.0716C78.377 55.2827 78.4468 55.4501 78.4914 55.5609L78.5399 55.6834L78.5499 55.7099L78.5509 55.7116C78.8806 56.603 79.8702 57.0584 80.762 56.7287C81.6534 56.3987 82.1088 55.409 81.7791 54.5176L81.7788 54.5173C81.7568 54.4588 81.3137 53.2652 80.4384 51.6986C79.5587 50.133 78.26 48.185 76.4164 46.6284C75.6885 46.0166 74.6032 46.1106 73.9917 46.8385C73.3799 47.566 73.4739 48.6514 74.2018 49.2632C75.5563 50.3954 76.6856 52.0318 77.4342 53.3783Z"/><path id="Vector_11" d="M128.671 50.6031C126.613 51.8627 125.035 53.5918 123.928 55.0062C122.826 56.4225 122.208 57.535 122.177 57.5896C121.716 58.4209 122.016 59.4688 122.848 59.9297C123.679 60.3902 124.727 60.09 125.188 59.2587L125.188 59.2583L125.189 59.2567C125.227 59.1879 125.792 58.1979 126.734 57.0062C127.673 55.8129 128.999 54.428 130.462 53.5417C131.273 53.0469 131.53 51.9881 131.036 51.1768C130.541 50.3652 129.482 50.1083 128.671 50.6031Z"/><path id="Vector_12" d="M40.1893 103.08C39.6816 102.677 39.4143 102.332 39.2872 102.074C38.8622 101.224 37.8286 100.879 36.9785 101.304C36.1282 101.729 35.7833 102.762 36.2083 103.613C36.6266 104.448 37.2639 105.151 38.0474 105.775C39.2287 106.709 40.764 107.501 42.7397 108.292C44.5106 108.998 46.6613 109.694 49.1975 110.416L50.9438 115.46C51.1044 115.924 51.4619 116.302 51.917 116.489C52.372 116.676 52.8918 116.657 53.3329 116.439L59.8605 113.211C68.9045 115.216 80.8956 117.058 96.409 118.213C105.747 118.909 113.801 119.198 120.723 119.198C125.372 119.198 129.496 119.065 133.169 118.839L139.557 122.899C139.956 123.152 140.45 123.231 140.908 123.113C141.366 122.996 141.761 122.689 141.989 122.275L144.498 117.71C147.809 117.364 150.611 116.862 152.87 116.205C155.341 115.476 157.206 114.611 158.524 113.398C159.218 112.75 159.256 111.661 158.607 110.966C157.959 110.271 156.87 110.234 156.175 110.882L156.175 110.882C155.532 111.499 154.086 112.276 151.908 112.9C149.731 113.535 146.834 114.056 143.262 114.384C142.695 114.436 142.186 114.769 141.912 115.269L139.855 119.01L134.549 115.638C134.238 115.44 133.881 115.349 133.514 115.373C129.786 115.615 125.539 115.756 120.723 115.756C113.897 115.756 105.927 115.471 96.6646 114.781C80.9531 113.611 68.9297 111.733 60.0182 109.722C59.63 109.634 59.2328 109.681 58.8763 109.858L53.5572 112.488L52.1574 108.444C51.9725 107.911 51.5333 107.499 50.99 107.349C47.1761 106.295 44.3251 105.316 42.3923 104.39C41.4262 103.929 40.6935 103.482 40.1893 103.08Z"/><path id="Vector_13" d="M107.366 108.69L108.551 106.615C109.022 105.79 108.735 104.739 107.909 104.268C107.084 103.796 106.033 104.084 105.561 104.909L104.377 106.984C103.906 107.81 104.193 108.861 105.019 109.332C105.844 109.803 106.895 109.516 107.366 108.69Z"/><path id="Vector_14" d="M90.65 108.063C91.5078 107.653 91.8711 106.626 91.4616 105.768L90.5579 103.875C90.1484 103.018 89.1209 102.654 88.2631 103.064C87.4053 103.473 87.042 104.501 87.4515 105.359L88.3552 107.251C88.7647 108.109 89.7922 108.472 90.65 108.063Z"/></g></g></svg>