<svg xmlns="http://www.w3.org/2000/svg" width="200" height="200" fill="none"><path fill="#FFE632" d="M130.116 23.89a1.299 1.299 0 0 0-1.768-.5c-3.858 2.143-7.166 5.89-9.425 11.988-2.27 6.103-3.569 14.576-3.571 26.469.013.548.209.875.381 1.152.317.473.706.838 1.138 1.214a22.035 22.035 0 0 0 1.972 1.47c.588.395 1.022.66 1.034.667a1.3 1.3 0 0 0 1.352-2.22l-.037-.024a27.81 27.81 0 0 1-1.988-1.354c-.424-.32-.827-.659-1.075-.917a2.206 2.206 0 0 1-.176-.201c.014-11.588 1.308-19.722 3.406-25.349 2.122-5.668 4.979-8.785 8.256-10.626a1.3 1.3 0 0 0 .501-1.768Z"/><path fill="#BEBEC9" d="M156.917 166.609c-.052-.038-.832-.615-2.1-1.197-1.267-.58-3.029-1.175-5.057-1.178a9.443 9.443 0 0 0-3.74.758c-1.275.546-2.537 1.426-3.701 2.706-2.91 3.204-4.917 6.536-7.148 9.078-1.113 1.275-2.27 2.353-3.608 3.175-1.34.822-2.865 1.403-4.794 1.663a1.299 1.299 0 1 0 .344 2.577c2.266-.301 4.179-1.019 5.811-2.025 2.454-1.511 4.258-3.618 5.964-5.855 1.706-2.243 3.325-4.637 5.354-6.863.939-1.031 1.882-1.67 2.803-2.066a6.831 6.831 0 0 1 2.715-.548c1.504-.002 2.932.461 3.973.941.52.238.941.478 1.226.653.142.088.25.159.32.207l.074.052.014.01v-.001a1.3 1.3 0 0 0 1.55-2.087ZM142.715 161.896a8.57 8.57 0 0 0-3.059 2.184l6.062-2.839a8.56 8.56 0 0 0-3.003.655ZM83.805 115.577c-3.949.763-7.888 1.243-12.018 1.535a70.868 70.868 0 0 1-5.01.182c-11.564-.006-18.205-3.101-21.988-6.083-1.891-1.495-3.072-2.973-3.776-4.061-.353-.544-.585-.99-.727-1.289a6.55 6.55 0 0 1-.146-.333l-.028-.073-.004-.011h-.001a1.283 1.283 0 0 0-.992-.834 1.26 1.26 0 0 0-.647-.281 16.46 16.46 0 0 1-7.774-2.866c-.5-.347-.919-.683-1.274-.99l6.736-2.725c.528-.214.854-.742.808-1.31a1.297 1.297 0 0 0-1.007-1.163l-.015-.003c-.224-.051-2.688-.676-5.126-2.166-1.22-.743-2.428-1.698-3.37-2.872a8.83 8.83 0 0 1-1.435-2.583L40.528 89.2a1.3 1.3 0 0 0 .276-2.585l-2.986-.319c-2.994-7.301-4.64-14.127-4.639-20.3.012-7.409 2.315-13.868 7.579-19.414 5.104-5.369 13.092-9.867 24.574-13.168a66.127 66.127 0 0 1 1.696 4.88c.445 1.452.777 2.7.997 3.582a52.93 52.93 0 0 1 .308 1.295l.018.087c.014.065.054.115.076.176.037.1.066.202.125.289.057.082.137.141.21.208.05.046.087.105.144.143a1.305 1.305 0 0 0 .98.188 1.294 1.294 0 0 0 .81-.546c.004-.006.011-.009.015-.015.043-.065.055-.14.085-.21.036-.084.083-.162.101-.252.022-.11.008-.223 0-.337-.003-.057.012-.112 0-.17l-.002-.014a24.225 24.225 0 0 1-.386-4.208c0-.93.066-1.908.24-2.8.172-.894.454-1.694.835-2.288.288-.453.743-.874 1.299-1.234.83-.541 1.865-.926 2.679-1.155a13.185 13.185 0 0 1 1.282-.296l.067-.01.014-.003a1.303 1.303 0 0 0 1.065-1.65c-1.228-4.205-3.474-7.09-3.528-7.166a1.305 1.305 0 0 0-1.125-.5 1.304 1.304 0 0 0-1.038.663l-1.337 2.396c-1.666-1.45-3.383-2.378-4.952-2.94a14.48 14.48 0 0 0-4.858-.862c-.89 0-1.438.093-1.5.104a1.3 1.3 0 0 0-.64 2.249c1.476 1.317 2.844 3.247 4.018 5.404a39.44 39.44 0 0 1 1.281 2.58c-11.61 3.38-19.937 8.013-25.437 13.787-5.73 6.006-8.307 13.255-8.295 21.207.002 6.252 1.571 12.95 4.326 19.99l-10.467-1.118a1.3 1.3 0 0 0-1.426 1.468c.306 2.275 1.28 4.17 2.523 5.668 1.87 2.254 4.32 3.672 6.293 4.56.053.025.102.044.155.067l-5.36 2.169a1.301 1.301 0 0 0-.533 2.009c.059.073 1.097 1.38 3.12 2.788a19.098 19.098 0 0 0 8.68 3.275c.522 1.14 1.986 3.77 5.287 6.379 4.27 3.381 11.578 6.649 23.6 6.643 1.23 0 2.528-.046 3.86-.117a27.302 27.302 0 0 0-4.523 3.577 29.97 29.97 0 0 0-2.564 2.904l-.023.001c-1.533-.001-2.652-.25-3.475-.588-1.23-.51-1.833-1.208-2.183-1.779a3.376 3.376 0 0 1-.325-.708l-.05-.182-.007-.03-.003.001a1.3 1.3 0 0 0-1.365-1.095c-.127.01-3.76.259-8.392 2.743-4.63 2.477-10.237 7.227-14.177 16.061a1.3 1.3 0 0 0 2.137 1.417v.001l.002-.002c.016-.019.899-.948 2.306-1.847 1.417-.909 3.34-1.762 5.42-1.757 1.904.011 3.995.656 6.288 2.818a1.303 1.303 0 0 0 1.97-.211c.986-1.445 2.157-2.322 3.31-2.861a7.713 7.713 0 0 1 2.553-.688 52.773 52.773 0 0 0-.57 1.687c-1.761 5.618-2.485 11.105-2.84 15.101-.427 4.836-1.15 9.939-1.152 14.352.006 2.781.275 5.303 1.215 7.388.472 1.038 1.13 1.969 2.014 2.689.861.703 1.928 1.183 3.141 1.411-.322 4.875-.43 7.997-.43 8.008a1.3 1.3 0 1 0 2.599.089c0-.002.018-.537.063-1.524.157-3.456.642-12.384 1.802-22.536 1.156-10.148 3.001-21.537 5.818-29.815a1.3 1.3 0 0 0-2.462-.837c-3.342 9.85-5.274 23.457-6.4 34.656-.34 3.397-.604 6.563-.807 9.335-.69-.171-1.232-.439-1.681-.803-.565-.46-1.017-1.107-1.37-1.948.122-.04.243-.068.367-.131.63-.312 1.192-.9 1.614-1.74.427-.845.75-1.96.959-3.508a1.3 1.3 0 1 0-2.577-.344c-.237 1.806-.659 2.703-.922 3.039-.044.058-.074.085-.107.117a24.14 24.14 0 0 1-.236-3.546c-.003-4.134.703-9.203 1.142-14.122.457-5.187 1.569-12.901 4.753-19.865 1.59-3.483 3.693-6.773 6.466-9.495 2.777-2.722 6.219-4.887 10.573-6.143.012-.003.02-.012.032-.016a94.262 94.262 0 0 0 5.758-.921 1.3 1.3 0 0 0-.493-2.553Zm-20.951-92.18c.683.105 1.454.282 2.277.578 1.627.585 3.448 1.619 5.201 3.482.283.301.697.451 1.107.4.41-.05.775-.296.976-.656l1.104-1.98a21.842 21.842 0 0 1 1.536 3.256c-.378.102-.8.229-1.253.393-.744.271-1.558.634-2.334 1.137-.775.503-1.521 1.151-2.075 2.016-.442.695-.746 1.454-.966 2.234-.823-2.288-1.853-4.768-3.114-7.08a28.266 28.266 0 0 0-2.46-3.78Zm-4.325 111.55c-.024-.002-.043-.016-.067-.017a7.036 7.036 0 0 0-.353-.008 10.149 10.149 0 0 0-4.223.961 10.58 10.58 0 0 0-3.469 2.609c-2.357-1.866-4.794-2.607-7.002-2.598-1.895.003-3.584.513-5.002 1.172 3.327-5.313 7.228-8.369 10.544-10.154a23.001 23.001 0 0 1 5.283-2.067 17.5 17.5 0 0 1 1.078-.233c.22.483.553 1.051 1.074 1.628.617.684 1.494 1.354 2.672 1.836.767.315 1.672.54 2.7.667a39.679 39.679 0 0 0-3.235 6.204Z"/><path fill="#BEBEC9" d="M88.607 91.047c-.854-.615-1.927-1.043-3.127-1.04-.952 0-1.951.263-2.957.795a5.094 5.094 0 0 0-2.281 2.381c-.445.955-.593 1.972-.594 2.956 0 .76.09 1.506.224 2.214a1.3 1.3 0 0 0 2.555-.485 9.365 9.365 0 0 1-.179-1.729c0-.72.116-1.36.349-1.855.239-.496.559-.87 1.14-1.182.703-.37 1.268-.494 1.743-.495.595.003 1.098.19 1.617.556.512.364 1.008.918 1.438 1.561a1.3 1.3 0 0 0 2.16-1.448c-.553-.82-1.227-1.613-2.088-2.23ZM50.295 86.464c.67.737 1.51 1.255 2.409 1.579.901.325 1.867.464 2.85.464 2.614-.009 5.386-.964 7.616-2.539 1.112-.791 2.089-1.746 2.808-2.861.717-1.112 1.174-2.403 1.173-3.786a6.49 6.49 0 0 0-.042-.733v-.003c-.315-2.748-1.6-4.957-3.374-6.42-1.772-1.469-4.002-2.216-6.238-2.216-1.506 0-3.023.339-4.41 1.042-3.38 1.72-5.359 5.246-5.362 8.881a9.703 9.703 0 0 0 2.57 6.592Zm.03-6.592c-.004-2.696 1.499-5.336 3.938-6.562a7.152 7.152 0 0 1 3.234-.761c1.659-.001 3.306.56 4.578 1.617 1.271 1.061 2.198 2.596 2.45 4.719.018.148.026.293.026.436 0 .81-.26 1.6-.76 2.379-.743 1.163-2.045 2.248-3.557 3.008-1.507.765-3.215 1.203-4.68 1.2-.735 0-1.406-.108-1.967-.31-.564-.205-1.015-.496-1.372-.886l-.96.876.96-.876c-1.31-1.44-1.887-3.138-1.89-4.84ZM102.471 73.498c-.615.097-1.235.148-1.84.148-1.253.001-2.44-.218-3.368-.623-.934-.41-1.586-.972-1.954-1.674a7.14 7.14 0 0 1-.834-3.335c-.001-1.672.6-3.296 1.623-4.586 1.023-1.29 2.453-2.233 4.095-2.585a1.3 1.3 0 0 0-.545-2.542c-2.274.488-4.217 1.783-5.587 3.512-1.371 1.73-2.185 3.906-2.186 6.201a9.745 9.745 0 0 0 1.13 4.54c.701 1.34 1.887 2.275 3.223 2.853 1.341.581 2.857.837 4.403.839.748 0 1.503-.062 2.249-.18a1.3 1.3 0 0 0-.409-2.568ZM52.71 58.986c.629-1.75.9-3.451.903-4.838 0-.492-.035-.945-.11-1.36a1.3 1.3 0 1 0-2.558.457c.04.226.068.538.068.903.005 1.391-.401 3.513-1.374 5.404-.485.949-1.105 1.844-1.87 2.598a7.83 7.83 0 0 1-2.757 1.78 1.3 1.3 0 1 0 .917 2.433 10.438 10.438 0 0 0 3.667-2.362c1.492-1.475 2.484-3.269 3.115-5.015ZM161.714 22.183c.004-1.712-.435-3.63-1.596-5.582a9.12 9.12 0 0 0-4.46-3.858c-1.633-.667-3.232-.826-4.453-.828-.668 0-1.222.05-1.614.099A9.647 9.647 0 0 0 143.626 10c-1.945.002-3.659.51-4.901 1.007-.717.288-1.272.573-1.628.77-1.045-.168-2.015-.268-2.885-.268-1.186 0-2.225.153-3.133.467-1.363.462-2.421 1.342-3.043 2.443-.629 1.1-.852 2.35-.853 3.63.001 1.25.213 2.547.542 3.858.339 1.343.583 2.143.748 2.628-.732.416-1.367.895-1.896 1.456-1.088 1.144-1.657 2.617-1.739 4.188a1.3 1.3 0 0 0 2.596.152c.073-1.093.386-1.854 1.037-2.56.655-.7 1.739-1.346 3.396-1.862 2-.624 4.33-.861 6.746-.86 2.284 0 4.64.207 6.87.462a1.3 1.3 0 0 0 .296-2.583 81.97 81.97 0 0 0-4.095-.37c-.149-.756-.437-2.181-.801-3.745a57.31 57.31 0 0 0-.892-3.414 21.793 21.793 0 0 0-.499-1.48c-.049-.124-.1-.235-.149-.351.141-.062.289-.125.449-.187 1.024-.403 2.4-.783 3.834-.781 1.509.008 3.055.396 4.552 1.608 1.361 3.042 1.735 6.643 1.731 9.443 0 1.364-.084 2.537-.167 3.362-.041.412-.082.738-.112.957-.015.11-.028.193-.036.247l-.01.06-.002.013a1.3 1.3 0 0 0 2.563.438c.008-.05.363-2.138.364-5.077-.004-2.634-.286-5.956-1.412-9.134l.108-.002c.989-.001 2.265.139 3.466.634 1.206.5 2.338 1.315 3.211 2.778.926 1.57 1.229 2.974 1.232 4.256a8.4 8.4 0 0 1-.014.48 1.3 1.3 0 0 0 2.596.156h-.001c.013-.21.019-.421.019-.636Zm-23.101.266c-2.581.001-5.155.243-7.519.978-.079.024-.146.055-.223.08a35.575 35.575 0 0 1-.625-2.235c-.295-1.166-.464-2.274-.463-3.223 0-.651.079-1.223.23-1.695.235-.711.58-1.19 1.187-1.579.61-.382 1.564-.666 3.012-.666.751 0 1.635.082 2.644.252.064.135.136.302.21.494.494 1.274 1.057 3.505 1.471 5.366.193.86.355 1.638.476 2.236-.134 0-.267-.008-.4-.008Z"/><path fill="#FFE632" d="m113.287 35.991.003.003.005.005-.008-.008ZM117.777 41.323h.001l.005.008-.006-.008ZM101.486 50.193a1.3 1.3 0 0 0-.748-2.49c-.552.168-1.46.31-2.518.31-1.54 0-3.41-.291-5.18-1.093a10.623 10.623 0 0 1-4.736-4.168 1.3 1.3 0 1 0-2.21 1.369h-.001a13.238 13.238 0 0 0 5.877 5.168c2.177.983 4.392 1.322 6.25 1.323 1.285-.002 2.394-.159 3.266-.419ZM61.274 79.445a1.3 1.3 0 0 0-1.235 1.362l.012.26a1.3 1.3 0 1 0 2.597-.125l-.012-.261a1.3 1.3 0 0 0-1.362-1.236ZM56.371 75.31a3.759 3.759 0 0 0-1.411-.253l-.061.002h-.01l-.06.002v.005a3.177 3.177 0 0 0-1.231.272 2.828 2.828 0 0 0-1.333 1.277 3.514 3.514 0 0 0-.378 1.627c.005.901.282 1.791.831 2.553.541.754 1.442 1.391 2.562 1.474l.01.001.133.005c.304 0 .58-.075.81-.18.402-.186.682-.445.917-.719.347-.415.598-.89.784-1.408.183-.52.298-1.082.3-1.674-.001-.715-.176-1.527-.757-2.203a2.878 2.878 0 0 0-1.106-.78ZM105.692 70.171a1.3 1.3 0 0 0 1.236-1.361l-.013-.261a1.3 1.3 0 0 0-2.597.126l.013.26a1.3 1.3 0 0 0 1.361 1.236ZM102.212 67.836a5.053 5.053 0 0 0 .299-1.673c-.001-.716-.175-1.528-.757-2.203a2.876 2.876 0 0 0-1.105-.781 3.765 3.765 0 0 0-1.412-.254l-.06.002h-.01l-.06.002v.005a3.181 3.181 0 0 0-1.232.273 2.83 2.83 0 0 0-1.333 1.276 3.516 3.516 0 0 0-.378 1.627c.005.902.282 1.792.832 2.554.54.754 1.442 1.39 2.562 1.474h.01l.132.005c.304 0 .581-.075.81-.18a2.65 2.65 0 0 0 .917-.719c.348-.415.598-.89.785-1.408ZM157.748 85.985h-.001l-.001.005.002-.005Z"/><path fill="#FFE632" d="m174.007 118.783-7.006-50.432c.108-.07.217-.14.303-.245.659-.784.999-1.71.995-2.597 0-.12-.025-.235-.037-.353.086-.062.171-.122.258-.186.517-.384 1.042-.802 1.487-1.245.222-.224.427-.452.609-.727.172-.276.368-.603.381-1.151-.001-10.363-.99-18.128-2.743-23.993-1.696-5.676-4.141-9.58-7.108-12.214.269-.842.486-1.781.55-2.82a1.3 1.3 0 0 0-2.595-.158c-.072 1.17-.398 2.24-.781 3.16-.386.926-.815 1.669-1.117 2.298.005.015-.206.213-.639.346-.423.138-1.017.225-1.633.223a6.69 6.69 0 0 1-1.89-.262c-.555-.163-.958-.416-1.097-.58a1.302 1.302 0 0 0-2.121.29l-.001-.001a2.603 2.603 0 0 1-.483.583c-.282.254-.652.49-1.154.59a3.69 3.69 0 0 1-.706.062 6.19 6.19 0 0 1-.938-.086c.03-.1.07-.2.096-.297.319-1.175.398-2.298.399-3.18a12.233 12.233 0 0 0-.121-1.796 1.3 1.3 0 0 0-2.567.413v.002c.005.03.088.589.088 1.381.003.96-.131 2.256-.599 3.344a4.618 4.618 0 0 1-.948 1.45c-.408.41-.911.75-1.599.99-1.032.358-2.2.5-3.345.5-1.462 0-2.881-.23-3.92-.462a19.297 19.297 0 0 1-1.566-.418l-.08-.026-.019-.006a1.3 1.3 0 1 0-.856 2.455c.077.021 2.989 1.05 6.441 1.056 1.353 0 2.798-.16 4.196-.642a6.684 6.684 0 0 0 2.598-1.62c.237-.241.445-.495.636-.756.062.024.114.065.18.08a9.11 9.11 0 0 0 1.924.218 6.28 6.28 0 0 0 1.21-.11 5 5 0 0 0 2.552-1.37c.334.17.684.312 1.045.424a9.257 9.257 0 0 0 2.645.374c.899-.002 1.78-.118 2.584-.4a4.342 4.342 0 0 0 1.14-.59 3.11 3.11 0 0 0 .563-.556 9.73 9.73 0 0 1 .163 1.759c-.003 1.41-.324 2.881-1.319 4.23-1.052 1.418-2.069 2.162-2.924 2.574-.856.41-1.566.49-2.014.49-.181 0-.318-.013-.399-.024l-.079-.013-.005-.001-.001.003a1.3 1.3 0 0 0-.621 2.521 4.71 4.71 0 0 0 1.105.115c.646 0 1.547-.121 2.56-.511.277 2.919.938 10.465 1.222 18.775l-.919.085v-2.31a1.29 1.29 0 0 0-.371-.903c-.004-.005-.005-.011-.01-.016l-.011-.007a1.293 1.293 0 0 0-.908-.373h-.384a4.284 4.284 0 0 0-.261-.847c-.424-1.022-1.42-2.238-3.291-3.107-1.417-.664-3.326-1.164-5.945-1.37a1.29 1.29 0 0 0-.507-.103c-.339 0-.64.016-.96.024a39.566 39.566 0 0 0-1.288-.024c-.189 0-.366.044-.528.117-2.087.166-3.741.513-5.031.99a172.315 172.315 0 0 0-1.608-10.82c.046.013.095.023.141.036a1.3 1.3 0 1 0 .684-2.509c-1.839-.491-3.607-.722-4.926-1.327-.662-.3-1.212-.668-1.683-1.197-.47-.53-.879-1.24-1.181-2.295-.333-1.163-.496-2.171-.496-3.011a5.7 5.7 0 0 1 .011-.357 1.3 1.3 0 0 0-2.595-.163 8.297 8.297 0 0 0-.016.52c.001 1.17.219 2.402.595 3.724.387 1.363.982 2.46 1.738 3.309 1.135 1.28 2.568 1.937 3.939 2.35.36.11.719.203 1.074.29-.001.087-.019.172-.001.261 0 0 .017.083.048.25.217 1.133 1.117 6.017 1.809 12.257-.005.005-.012.009-.018.013-.883.69-1.416 1.465-1.701 2.141a4.285 4.285 0 0 0-.261.848h-.383c-.172 0-.342.035-.499.1a1.3 1.3 0 0 0-.391.26c-.009.009-.021.012-.03.02-.009.01-.012.022-.021.032a1.272 1.272 0 0 0-.359.888v2.31l-1.065-.1h-.011a8.022 8.022 0 0 0-.68-.029 8.907 8.907 0 0 0-3.912.93c-.931-6.001-2.558-11.433-5.043-16.114h.001l-.031-.06-.02-.04a25.528 25.528 0 0 0-.497-.87c-.006-.012-.009-.026-.016-.038l-.06-.1.006.009c-.205-.348-.406-.678-.603-1.004l-.001-.002-.006-.01h-.001c-.214-.36-.436-.689-.644-.995-.2-.3-.416-.62-.651-.94l-.03-.046c-.164-.216-.348-.48-.576-.769a.168.168 0 0 0-.006-.008l-.006-.009h-.001c-.2-.26-.404-.513-.616-.767a.122.122 0 0 0-.011-.013.02.02 0 0 0-.004-.005c-.163-.201-.333-.415-.54-.645l-.037-.038c-.144-.162-.31-.355-.503-.562l-.012-.013-.008-.009a17.958 17.958 0 0 0-.561-.591l-.01-.01a16.197 16.197 0 0 0-1.523-1.459l-.018-.016a17.935 17.935 0 0 0-.792-.67l-.019-.016-.014-.01c-5.845-4.851-13.742-7.542-23.853-7.536-3.86 0-8.046.388-12.582 1.191a1.3 1.3 0 1 0 .453 2.56c4.408-.78 8.444-1.15 12.129-1.15 9.686.005 16.902 2.541 22.223 6.96l.033.026c.23.178.459.379.718.608l.017.015c.166.142.34.305.528.484l.009.008c.278.259.552.533.832.823l.013.012c.176.177.34.35.506.535l.02.02c.149.158.311.349.497.557l.03.03c.144.161.287.338.458.55l.015.018c.197.234.385.47.576.717l.013.017c.157.195.325.436.525.701l.023.037c.201.273.4.568.598.864l.005.007c.209.309.404.598.566.873l.008.012c.2.331.397.655.591.984l.005.01.047.079c.007.012.009.025.017.036.149.247.299.518.456.802l.017.033.011.022c2.45 4.605 4.051 10.102 4.92 16.286a3.614 3.614 0 0 0-.578-.049 3.649 3.649 0 0 0-3.638 3.64c-.004.887.337 1.812.996 2.597.087.104.195.174.303.243l-4.845 34.874a102.398 102.398 0 0 1-6.498 4.291 68.298 68.298 0 0 1-4.778 2.624 1.299 1.299 0 1 0 1.165 2.324 70.587 70.587 0 0 0 4.963-2.726c1.561-.95 3.118-1.97 4.663-3.023l-1.676 12.065a8.753 8.753 0 0 0-.086 1.238c.003 1.999.646 3.966 1.77 5.593 1.123 1.622 2.757 2.921 4.763 3.443l4.891 1.273c-.074.136-.159.281-.216.404-.05.11-.093.215-.133.336-.037.128-.085.245-.092.534 0 .004-.007.19-.021.423-.051.84-.181 2.571-.297 4.08l-.156 2.002c-.692.296-1.29.62-1.794 1.008a3.79 3.79 0 0 0-.89.943 2.493 2.493 0 0 0-.405 1.339 2.42 2.42 0 0 0 .239 1.039c.283.583.717 1 1.213 1.36.874.623 2.008 1.099 3.413 1.534l.069.018.499 42.97a1.3 1.3 0 1 0 2.6-.03l-.17-14.577c.633-.311 4.213-2.108 7.341-4.852l.009-.008.003-.002c.015-.014.021-.033.035-.047a1.29 1.29 0 0 0 .27-.355c.029-.06.034-.126.054-.189.031-.097.069-.19.076-.292.007-.097-.018-.191-.033-.287-.01-.07-.001-.139-.024-.208l-.83-2.554c1.049-.757 2.015-1.611 3.03-2.386.477-.365.967-.7 1.47-1.015a14.672 14.672 0 0 0-.569 2.371c-.007.044.008.085.006.128a1.243 1.243 0 0 0 .072.5 1.214 1.214 0 0 0 .262.432c.03.033.044.074.078.104.029.027.067.034.098.058.069.052.143.093.223.13.081.039.16.07.246.09.037.009.067.033.105.039.044.006.085-.009.129-.007a1.237 1.237 0 0 0 .499-.072 1.284 1.284 0 0 0 .431-.262c.033-.03.075-.044.105-.078a7.26 7.26 0 0 1 2.592-1.852 7.249 7.249 0 0 1 2.545-.555c.037-.001.068-.02.104-.024.037-.005.072.007.108 0 .052-.011.091-.043.14-.059.085-.028.165-.058.241-.102a1.29 1.29 0 0 0 .195-.141c.065-.056.123-.112.176-.179.05-.064.089-.131.127-.203a1.33 1.33 0 0 0 .097-.233c.023-.081.033-.162.041-.248.005-.052.027-.1.026-.154-.002-.039-.022-.071-.026-.109-.005-.035.007-.069 0-.104l-.001-.001-.184-.908c.921.109 1.628.329 2.166.565.166.159.377.25.598.304l.031.022c.406.304 2.294 1.939 5.417 7.339a1.3 1.3 0 0 0 2.25-1.303 55.455 55.455 0 0 0-2.701-4.251c.004-.006.011-.008.016-.014.026-.037.031-.08.053-.119.022-.038.057-.064.075-.105l1.339-2.983a1.3 1.3 0 0 0-.923-1.805c-.069-.014-.6-.119-1.443-.119-.913 0-2.21.148-3.654.659-.919-.403-2.17-.767-3.761-.842l-.41-2.026c-.09-.442-.4-.805-.824-.961a1.296 1.296 0 0 0-1.251.195 14.67 14.67 0 0 0-3.009 3.197c-1.97.594-3.549 1.613-4.886 2.638-.838.645-1.589 1.277-2.299 1.834l-1.246-3.832a1.302 1.302 0 0 0-2.282-.37c-.006.009-.784 1.062-1.782 2.523-.279.41-.576.854-.877 1.313l-.186-15.937c1.574.335 3.329.622 5.276.845 3.139.358 6.706.56 10.491.56.067 0 .125-.029.19-.039.065.01.123.039.191.039 6.154-.002 11.722-.53 15.833-1.408 2.059-.443 3.75-.963 5.031-1.607.641-.327 1.187-.682 1.635-1.145.222-.233.42-.497.568-.808.148-.31.241-.67.24-1.039a2.498 2.498 0 0 0-.405-1.339c-.365-.563-.86-.961-1.437-1.319a9.827 9.827 0 0 0-1.245-.623c-.052-.659-.13-1.645-.208-2.668-.067-.885-.135-1.791-.185-2.511-.026-.36-.047-.673-.061-.912a13.765 13.765 0 0 1-.021-.423c-.002-.197-.03-.305-.053-.403a2.957 2.957 0 0 0-.166-.453 7.292 7.292 0 0 0-.213-.421l4.882-1.27c2.006-.522 3.64-1.821 4.763-3.443a9.934 9.934 0 0 0 1.769-5.593c0-.412-.028-.825-.085-1.234Zm-31.737 41.553c.467-.852.993-1.555 1.504-2.134l.387 1.909a9.729 9.729 0 0 0-1.949.587c-.052.021-.098.046-.149.068.072-.144.126-.283.207-.43Zm-14.805 6.509c.813-1.521 1.994-3.339 2.963-4.758l.244-.355 1.852 5.7a32.875 32.875 0 0 1-3.951 2.751c-.397.236-.754.438-1.067.61l-.046-3.942c.001-.003.004-.004.005-.006Zm32.687-129.567c1.395-1.883 1.832-3.971 1.829-5.776-.001-.39-.022-.768-.056-1.132 1.485 2.063 2.79 4.734 3.838 8.229 1.64 5.476 2.62 12.947 2.633 23.034-.11.144-.372.409-.695.677-.194.163-.416.329-.635.493a3.63 3.63 0 0 0-2.406-.933c-.199 0-.404.016-.612.052-.08.014-.145.058-.22.086-.027-.025-.052-.052-.08-.076a9.483 9.483 0 0 0-4.235-2.123 323.95 323.95 0 0 0-1.361-20.387 12.179 12.179 0 0 0 2-2.144Zm-5.847 35.07c.192 0 .371-.046.535-.12.642-.08 1.147-.606 1.147-1.27v-3.18c.418.01.759.055 1.046.122-.018 3.366-.134 6.648-.402 9.577-.195 2.15-.476 4.107-.842 5.762a20.08 20.08 0 0 0-2.646-3.697l-.082-.09V72.35h1.244Zm4.841 37.224-.465-.28c.456-2.473.676-5.195.681-8.004a54.47 54.47 0 0 0-.84-9.529l.326-.22a1.3 1.3 0 0 0 .352-1.804 1.286 1.286 0 0 0-1.224-.55 38.88 38.88 0 0 0-.593-2.196c.134-.338.26-.673.365-1.004.724-2.258 1.18-5.09 1.472-8.272.128-1.396.217-2.867.284-4.372.244 1.824.557 4.276.91 7.092.836 6.67 1.896 15.382 2.803 22.708.454 3.663.869 6.979 1.199 9.522.165 1.272.309 2.35.426 3.185.118.84.205 1.414.273 1.76.134.665.193 1.228.193 1.682-.003.771-.159 1.194-.356 1.469-.201.273-.505.501-1.112.695-.445.14-1.247.346-2.162.562-1.378.327-3.035.688-4.345.966-1.309.279-2.267.474-2.27.475h-.001a8.838 8.838 0 0 0-1.879-.459l-.905-3.723a9.4 9.4 0 0 0 1.253-.426c.464-.204.896-.445 1.281-.803.854-.802 1.54-1.825 2.111-3 .456-.949.837-2.011 1.159-3.148.563.183 1.193-.014 1.51-.543a1.3 1.3 0 0 0-.446-1.783Zm-28.557 22.433c-1.552-.329-2.785-.729-3.524-1.107a3.5 3.5 0 0 1-.498-.297c.601-.854 1.505-1.943 2.593-2.871.736-.632 1.555-1.193 2.408-1.586.855-.395 1.737-.622 2.639-.622a1.3 1.3 0 0 0 1.263-.993l1.144-4.707c.003-.016-.002-.031.001-.046 2.322.319 4.782.386 6.088.401l.011.002.368.001h.185l.368-.001.01-.002a55.736 55.736 0 0 0 4.955-.264c.379-.039.756-.095 1.133-.147.004.019-.002.037.003.056l1.143 4.707c.141.583.663.993 1.263.993 1.097-.001 2.169.338 3.19.901 1.529.839 2.898 2.189 3.848 3.377.225.28.423.548.599.798a2.216 2.216 0 0 1-.236.16c-.471.279-1.268.599-2.291.883-3.083.866-8.177 1.461-13.887 1.457-.068 0-.126.029-.191.039-.065-.01-.123-.038-.19-.038v-.001c-4.87.002-9.282-.426-12.395-1.093Zm-6.251-10.069a32.29 32.29 0 0 1-1.83-.482c-.607-.194-.912-.422-1.112-.695-.197-.275-.354-.697-.356-1.468 0-.456.059-1.017.193-1.682.05-.252.106-.608.18-1.105.403-2.746 1.261-9.639 2.206-17.316a60.639 60.639 0 0 0 3.675-3.693 55.967 55.967 0 0 0-.308 5.793c.001 2.807.23 5.528.687 8.001l-.47.282a1.3 1.3 0 0 0-.446 1.784c.316.528.944.725 1.506.545.235.831.503 1.62.811 2.354-1.25.9-2.507 1.753-3.764 2.56a1.266 1.266 0 0 0-.976 1.043c-.011.041-.016.08-.023.122-.002.032-.018.06-.018.093l.045 3.864Zm5.963-5.367c.37.547.777 1.046 1.235 1.477.385.358.818.599 1.282.803.39.169.812.308 1.252.429l-.904 3.722c-.65.084-1.27.249-1.865.463-.006-.001-.01-.005-.015-.006h-.001c-.001-.001-.425-.087-1.098-.228-.824-.172-2.019-.425-3.242-.695l-.042-3.656a87.042 87.042 0 0 0 3.398-2.309Zm20.282-12.276c.13-1.402.173-2.91.173-4.49 0-.934-.021-1.843-.068-2.722 1.456-.998 2.948-2.014 4.257-2.903l1.205-.816c.4 2.58.613 5.29.612 7.926a43.531 43.531 0 0 1-.478 6.549 401.95 401.95 0 0 1-5.701-3.544Zm5.171 6.266c-.32 1.274-.715 2.412-1.171 3.353-.468.968-1.001 1.725-1.549 2.237-.063.063-.254.193-.542.317-.504.222-1.285.431-2.163.587-2.547.46-5.886.525-7.101.527-.85 0-3.044-.028-5.212-.253-1.097-.113-2.186-.278-3.058-.501a7.433 7.433 0 0 1-1.102-.36c-.288-.124-.478-.254-.542-.317-.547-.512-1.08-1.269-1.548-2.237-.456-.94-.843-2.087-1.163-3.358a459.012 459.012 0 0 0 5.289-3.265c.86 3.389 2.8 5.613 7.104 5.613 4.38 0 6.317-2.306 7.153-5.807.851.536 1.702 1.066 2.513 1.568 1.163.719 2.227 1.37 3.092 1.896Zm-5.372-16.42c-.708-4.4-2.631-7.447-7.386-7.447-4.683 0-6.618 2.945-7.352 7.227a1543.465 1543.465 0 0 0-4.929-3.348c.227-1.031.485-2.028.779-2.967.723-2.324 1.971-4.457 3.611-6.282.012 0 .022.007.034.007h16.028c.025 0 .046-.013.071-.014 1.643 1.826 2.893 3.962 3.617 6.288.293.94.551 1.937.779 2.969-1.337.903-3.276 2.218-5.252 3.567Zm-15.062 2.708a48.696 48.696 0 0 0-.084 2.956c0 1.659.045 3.241.191 4.703a370.924 370.924 0 0 1-5.367 3.334 43.719 43.719 0 0 1-.474-6.552 52.342 52.342 0 0 1 .612-7.927c1.449.981 3.299 2.237 5.122 3.486Zm1.384-42.311c1.247-.59 3.301-1.11 6.512-1.206 4.35.14 6.523 1.07 7.521 1.864.45.355.685.676.827.942h-16.782c.23-.427.708-1.02 1.922-1.6Zm-3.742 4.2h20.425V69.75h-1.626a1.31 1.31 0 0 0-.919.38 1.31 1.31 0 0 0-.381.92v7.68h-14.574v-7.68c0-.342-.138-.677-.38-.92a1.308 1.308 0 0 0-.919-.38h-1.626V58.737Zm-1.453 13.491c.164.075.343.122.535.122h1.244v7.103l-.081.09c-1.895 2.096-3.349 4.57-4.196 7.288a38.26 38.26 0 0 0-.638 2.355 1.287 1.287 0 0 0-1.224.55c-.365.542-.248 1.246.223 1.673a50.053 50.053 0 0 1-3.245 3.65l.482-3.918c.645-5.25 1.272-10.326 1.767-14.198.248-1.936.462-3.572.629-4.773.083-.6.154-1.093.211-1.454.028-.181.053-.33.072-.437l.025-.129.007-.034.001-.004c.11-.411.24-.763.39-1.046.233-.426.477-.693.869-.912.369-.202.931-.358 1.782-.377v3.182c0 .664.504 1.19 1.147 1.27Zm-12.066 54.31c-1.306-.338-2.452-1.213-3.28-2.408-.828-1.191-1.31-2.682-1.307-4.112 0-.296.02-.588.06-.87l.001-.005 7.114-51.21c.215-1.544 1.061-2.986 2.272-4.035 1.209-1.05 2.757-1.682 4.303-1.68.155 0 .308.007.459.02l1.297.12v2.822c-.769.012-1.468.102-2.092.297a4.713 4.713 0 0 0-2.372 1.618c-.558.723-.872 1.536-1.089 2.347a5.166 5.166 0 0 0-.084.403c-.103.579-.257 1.662-.46 3.175-.706 5.28-1.97 15.643-3.125 25.03-.578 4.694-1.128 9.142-1.567 12.582a516.37 516.37 0 0 1-.565 4.305c-.151 1.111-.271 1.902-.324 2.161-.16.793-.244 1.518-.244 2.194-.003 1.125.247 2.159.848 2.99.599.833 1.485 1.359 2.445 1.655.573.178 1.393.386 2.338.61 1.221.29 2.635.601 3.849.861a17.927 17.927 0 0 0-2.671 2.64l-5.806-1.51Zm44.342 14.631c.128.098.197.173.242.228a1.676 1.676 0 0 1-.319.283c-.475.349-1.406.781-2.651 1.159-1.873.576-4.458 1.074-7.487 1.42-3.03.346-6.509.544-10.205.544-.068 0-.126.028-.191.038-.065-.01-.123-.038-.19-.038-6 .001-11.436-.525-15.29-1.351-1.923-.408-3.455-.903-4.402-1.385-.472-.236-.791-.472-.929-.622l-.039-.048.051-.064c.243-.263.981-.71 2.067-1.097.478-.174.81-.61.85-1.118a845.467 845.467 0 0 0 .457-5.977c.615.328 1.326.604 2.153.86 1.733.53 3.948.948 6.515 1.241 2.566.293 5.477.457 8.567.457.067 0 .125-.028.19-.038.065.01.123.039.191.039v-.001c5.024-.001 9.568-.431 12.938-1.15 1.689-.364 3.08-.789 4.154-1.329.051-.026.093-.057.142-.084.154 2.195.457 5.977.457 5.982.041.508.372.944.851 1.118.882.318 1.535.663 1.878.933Zm6.401-17.039c-.829 1.195-1.975 2.07-3.28 2.408l-5.808 1.511a17.703 17.703 0 0 0-2.667-2.641c.278-.06.563-.121.858-.186.991-.215 2.046-.451 2.989-.675a38.878 38.878 0 0 0 2.338-.61c.96-.296 1.846-.822 2.444-1.655.601-.831.851-1.866.848-2.991 0-.676-.085-1.4-.243-2.192-.03-.148-.087-.497-.156-.972-.531-3.606-1.898-14.809-3.189-25.304-.645-5.25-1.272-10.328-1.768-14.21a479.886 479.886 0 0 0-.632-4.8c-.085-.61-.158-1.112-.218-1.5a26.978 26.978 0 0 0-.083-.497 4.982 4.982 0 0 0-.079-.374 7.523 7.523 0 0 0-.607-1.597 4.72 4.72 0 0 0-1.918-1.973c-.838-.457-1.849-.677-3.028-.695v-2.818l1.295-.121a5.44 5.44 0 0 1 .459-.02c1.546-.002 3.094.63 4.304 1.68 1.211 1.049 2.058 2.491 2.273 4.037l-.001-.002 7.115 51.21c.04.287.06.58.06.875.003 1.43-.479 2.921-1.306 4.112Z"/><path fill="#FFE632" d="M102.882 76.066c1.94-.314 3.831-1.012 5.37-2.131.768-.561 1.448-1.232 1.977-2.022.529-.789.902-1.7 1.043-2.696.075-.526.111-1.04.111-1.542.005-2.87-1.206-5.315-3.024-6.98a9.949 9.949 0 0 0-6.701-2.606 9.52 9.52 0 0 0-2.011.214 1.3 1.3 0 1 0 .549 2.541 6.903 6.903 0 0 1 1.462-.155 7.355 7.355 0 0 1 4.94 1.92c1.322 1.225 2.179 2.923 2.185 5.066 0 .377-.027.769-.085 1.175a3.86 3.86 0 0 1-.63 1.617c-.496.744-1.28 1.413-2.26 1.938-.979.525-2.143.903-3.337 1.094a1.3 1.3 0 1 0 .411 2.567Z"/></svg>