<svg width="200" height="200" viewBox="0 0 200 200" xmlns="http://www.w3.org/2000/svg"><g id="type=benefits, mode=dark"><g id="Layer 4"><path id="Vector" d="M37.0343 126.698L37.0313 126.696H37.0293L37.0343 126.698Z"/><path id="Vector_2" d="M46.1608 111.891C45.9959 111.847 45.8239 111.836 45.6546 111.858C45.4854 111.88 45.3223 111.936 45.1745 112.021C45.0267 112.107 44.8972 112.22 44.7934 112.356C44.6896 112.491 44.6135 112.646 44.5695 112.811C43.9617 115.086 43.4191 117.06 42.9175 118.687C42.5614 119.921 42.1172 121.127 41.5882 122.297C41.3506 122.827 41.0278 123.314 40.6328 123.74C40.3658 124.019 40.0383 124.234 39.6755 124.367C39.4399 124.452 39.1917 124.495 38.9415 124.496H38.9291C38.6365 124.493 38.3475 124.432 38.0788 124.316L38.0745 124.314C37.8439 124.213 37.6307 124.076 37.4427 123.908C37.1444 123.635 36.8958 123.313 36.7082 122.955C36.3148 122.179 36.0123 121.361 35.807 120.517C35.2242 118.189 34.7592 115.833 34.4137 113.458C34.3594 113.118 34.1721 112.813 33.8929 112.61C33.6138 112.408 33.2657 112.325 32.9253 112.379C32.5848 112.433 32.2799 112.621 32.0775 112.9C31.8752 113.179 31.792 113.527 31.8463 113.867H31.8462C32.2057 116.334 32.6903 118.781 33.2981 121.199L33.3001 121.206C33.5575 122.244 33.9351 123.249 34.4253 124.2L34.4363 124.22C34.7646 124.829 35.1938 125.378 35.7056 125.843L35.7172 125.853C36.109 126.201 36.5529 126.486 37.0327 126.696C37.6308 126.958 38.2763 127.094 38.9291 127.096H38.9416C39.4956 127.095 40.0452 126.999 40.5661 126.81L40.572 126.808C41.2936 126.542 41.9466 126.117 42.4836 125.567L42.5023 125.547C43.0827 124.93 43.5602 124.223 43.9168 123.454L43.9271 123.434C44.5143 122.146 45.0068 120.817 45.4008 119.458L45.4017 119.455C45.9216 117.767 46.4704 115.768 47.0812 113.482C47.1702 113.149 47.1232 112.794 46.9506 112.496C46.7779 112.197 46.4938 111.98 46.1608 111.891Z"/><path id="Vector_3" d="M161.037 126.811L161.036 126.81H161.035L161.037 126.811Z"/><path id="Vector_4" d="M162.66 124.496C162.409 124.495 162.16 124.452 161.923 124.367L161.921 124.366C161.719 124.293 161.528 124.192 161.353 124.068C161.075 123.868 160.831 123.623 160.63 123.344C160.257 122.812 159.949 122.236 159.713 121.63C159.042 119.899 158.469 118.133 157.994 116.338L157.995 116.34C157.695 115.277 157.379 114.112 157.043 112.855C156.969 112.6 156.816 112.376 156.607 112.212C156.528 111.921 156.349 111.666 156.101 111.492C155.853 111.319 155.553 111.237 155.251 111.262C154.95 111.286 154.667 111.415 154.45 111.627C154.234 111.838 154.099 112.119 154.067 112.419C153.989 113.147 153.891 113.892 153.783 114.642L153.784 114.638C151.862 127.664 145.874 138.908 136.913 146.902C127.948 154.894 116.008 159.655 102.06 159.659C98.8935 159.654 95.7312 159.418 92.5987 158.951C82.7008 157.645 73.315 153.779 65.3686 147.735C58.2908 142.232 52.8528 134.899 49.6432 126.528C49.5178 126.208 49.2711 125.951 48.9568 125.812C48.6424 125.674 48.2861 125.666 47.9656 125.789C47.6451 125.912 47.3865 126.158 47.2462 126.471C47.1059 126.785 47.0954 127.141 47.2169 127.462H47.2168C50.2239 135.29 55.0897 142.27 61.3946 147.8C60.9752 150.098 60.7709 152.431 60.7843 154.767V154.768C60.8039 157.973 61.0916 161.171 61.6441 164.328C61.5934 164.342 61.5436 164.359 61.4952 164.38H61.4951C61.1189 164.606 60.7589 164.857 60.4176 165.133L60.4168 165.133L60.4174 165.133C59.6035 165.821 58.9452 166.675 58.486 167.638C57.7074 169.278 57.1729 171.024 56.8995 172.819C56.5715 174.79 56.4099 176.785 56.4163 178.783C56.3801 181.345 56.6761 183.901 57.297 186.387C57.9193 188.757 59.3394 190.84 61.3182 192.286C63.3172 193.679 65.7051 194.405 68.1412 194.361C69.4587 194.355 70.7701 194.182 72.0442 193.846C74.521 193.305 76.7548 191.973 78.4092 190.052C80.1239 187.778 80.9878 184.976 80.8507 182.132C80.8378 180.59 80.6865 179.052 80.3988 177.537L80.3983 177.534L80.3986 177.536C80.1363 175.956 79.4141 174.489 78.3224 173.318C78.3227 173.281 78.3383 173.248 78.3351 173.211L78.335 173.21C78.2292 172.242 78.0234 171.286 77.721 170.36C77.1103 168.343 76.0375 166.497 74.5878 164.968L74.5838 164.963C73.4877 163.866 72.106 163.097 70.5954 162.744C70.4322 162.705 70.2631 162.699 70.0974 162.725C69.6442 160.116 69.4056 157.474 69.3842 154.826V154.792L69.3844 154.757L69.3843 154.724C69.3843 154.361 69.411 154 69.4224 153.636C76.4326 157.731 84.1779 160.411 92.2197 161.524C95.4777 162.008 98.7667 162.254 102.061 162.259C113.84 162.424 125.357 158.783 134.901 151.877C134.985 152.833 135.038 153.8 135.038 154.77C135.019 157.396 134.787 160.017 134.346 162.606C132.61 162.899 131.007 163.724 129.758 164.966C128.306 166.495 127.231 168.344 126.621 170.363C126.32 171.29 126.115 172.246 126.011 173.215C126.009 173.244 126.021 173.269 126.021 173.298C125.763 173.566 125.526 173.853 125.31 174.157C124.615 175.17 124.148 176.322 123.942 177.533C123.655 179.047 123.504 180.583 123.491 182.124C123.354 184.97 124.218 187.775 125.932 190.052C127.587 191.975 129.822 193.308 132.3 193.85C133.571 194.184 134.879 194.356 136.194 194.362C138.631 194.406 141.021 193.68 143.021 192.286C145.002 190.84 146.424 188.756 147.047 186.384C147.668 183.902 147.963 181.349 147.927 178.791C147.948 176.154 147.654 173.525 147.051 170.958C146.776 169.812 146.375 168.699 145.856 167.641C145.397 166.679 144.739 165.825 143.925 165.136C143.558 164.846 143.175 164.577 142.778 164.331C143.33 161.174 143.618 157.976 143.637 154.771V154.77C143.664 151.973 143.364 149.183 142.744 146.456L142.744 146.456C142.639 146.043 142.473 145.648 142.25 145.285C149.184 137.655 153.875 128.258 155.807 118.131C156.229 119.657 156.732 121.159 157.313 122.631L157.318 122.641C157.633 123.436 158.042 124.189 158.537 124.886L158.548 124.902C158.91 125.395 159.347 125.828 159.844 126.186L159.853 126.192C160.217 126.45 160.615 126.658 161.035 126.81C161.556 126.999 162.106 127.096 162.661 127.096C163.005 127.096 163.336 126.959 163.58 126.715C163.824 126.472 163.961 126.141 163.961 125.796C163.961 125.451 163.824 125.121 163.58 124.877C163.336 124.633 163.005 124.496 162.661 124.496L162.66 124.496ZM77.8399 177.997L77.8404 178C78.1005 179.362 78.2378 180.745 78.2507 182.132C78.3866 184.379 77.7283 186.602 76.391 188.413C75.0862 189.901 73.3323 190.925 71.3944 191.329C70.3326 191.61 69.2395 191.755 68.1412 191.761C66.2498 191.805 64.393 191.25 62.8362 190.175C61.3363 189.075 60.2638 187.489 59.8012 185.688C59.2454 183.429 58.9816 181.108 59.0163 178.783C58.9952 176.361 59.2626 173.946 59.813 171.589C60.0406 170.631 60.3729 169.701 60.8038 168.816C61.0968 168.184 61.5185 167.621 62.0418 167.163L62.0427 167.162C62.0877 167.126 62.1324 167.102 62.1775 167.068C62.23 167.306 62.2776 167.519 62.3221 167.709C62.2128 168.3 62.071 169.112 61.9253 170.093L61.9251 170.094C61.805 170.908 61.6856 171.827 61.5834 172.792C61.3108 172.983 61.0519 173.193 60.8087 173.42L60.7787 173.45L60.7592 173.47C60.5189 173.715 60.3857 174.046 60.3887 174.39C60.3917 174.733 60.5307 175.062 60.7753 175.303C61.0199 175.544 61.3502 175.679 61.6937 175.677C62.0373 175.675 62.3662 175.537 62.6083 175.294L62.6098 175.295C63.5058 174.553 64.5482 174.009 65.669 173.697C67.1716 173.221 68.7379 172.976 70.3141 172.97C71.3064 172.962 72.2955 173.081 73.2574 173.325L73.2641 173.326C74.3772 173.583 75.4057 174.121 76.2509 174.89C77.105 175.725 77.6629 176.816 77.8399 177.997ZM72.7332 166.79C73.8953 168.028 74.7542 169.519 75.2425 171.145C75.2561 171.188 75.2663 171.227 75.2791 171.269C74.8357 171.086 74.3807 170.933 73.9171 170.81C73.8219 170.785 73.7247 170.768 73.6289 170.745C73.4064 169.746 73.1311 168.76 72.8043 167.79L72.8036 167.788C72.6374 167.306 72.4606 166.837 72.2631 166.38C72.4275 166.507 72.5845 166.644 72.7332 166.79ZM70.3453 168.634C70.5333 169.183 70.7017 169.776 70.8607 170.385C70.6785 170.379 70.4962 170.37 70.3142 170.37C68.4686 170.375 66.6346 170.662 64.8756 171.221C64.7 171.278 64.5389 171.345 64.3689 171.407C64.4115 171.089 64.4539 170.768 64.4973 170.474L64.497 170.475C64.659 169.385 64.8192 168.492 64.9271 167.92C64.9607 167.74 64.9562 167.554 64.9138 167.376C64.7503 166.695 64.4895 165.525 64.2285 164.019C63.6872 160.965 63.4048 157.87 63.3842 154.768C63.3786 153.085 63.4876 151.404 63.7105 149.736C63.7308 149.752 63.7492 149.769 63.7696 149.785C64.7783 150.572 65.8226 151.326 66.9025 152.048C66.8971 152.083 66.8773 152.112 66.8747 152.148C66.8122 153.007 66.7841 153.87 66.7841 154.724L66.7842 154.779L66.784 154.826C66.8164 158.143 67.1611 161.45 67.8137 164.702C67.8542 164.907 67.9433 165.098 68.0732 165.261C68.2032 165.424 68.3703 165.554 68.5606 165.639C68.889 165.781 69.1631 166.025 69.3426 166.334C69.7484 167.068 70.0841 167.838 70.3453 168.634V168.634ZM134.077 168.628C134.338 167.834 134.673 167.066 135.078 166.335C135.258 166.025 135.533 165.781 135.862 165.638C136.052 165.553 136.219 165.424 136.349 165.262C136.478 165.099 136.567 164.908 136.608 164.704C136.685 164.316 136.764 163.899 136.844 163.439C137.351 160.576 137.616 157.677 137.638 154.77C137.642 153.168 137.532 151.567 137.307 149.981C137.757 149.606 138.207 149.232 138.643 148.842C139.197 148.349 139.738 147.843 140.268 147.325C140.8 149.771 141.057 152.268 141.037 154.77C141.017 157.872 140.735 160.966 140.194 164.02C139.933 165.525 139.672 166.694 139.509 167.376C139.466 167.554 139.461 167.74 139.495 167.92C139.603 168.491 139.762 169.384 139.925 170.476L139.925 170.473C139.97 170.778 140.014 171.11 140.058 171.44C139.862 171.368 139.674 171.291 139.47 171.224C137.7 170.661 135.854 170.372 133.997 170.366C133.852 170.367 133.707 170.374 133.562 170.377C133.722 169.769 133.891 169.178 134.077 168.628V168.628ZM129.141 171.02C129.632 169.439 130.478 167.991 131.614 166.787C131.798 166.606 131.995 166.439 132.203 166.287C131.989 166.774 131.795 167.272 131.617 167.787L131.614 167.795C131.307 168.704 131.04 169.689 130.807 170.706C130.214 170.839 129.634 171.021 129.071 171.249C129.095 171.172 129.115 171.098 129.141 171.02L129.141 171.02ZM142.3 167.165C142.823 167.624 143.245 168.187 143.538 168.819C144.198 170.229 144.65 171.727 144.881 173.267C145.184 175.093 145.333 176.94 145.327 178.791C145.362 181.113 145.098 183.43 144.543 185.685C144.08 187.488 143.006 189.075 141.504 190.175C139.945 191.251 138.087 191.806 136.193 191.762C135.098 191.756 134.008 191.611 132.949 191.332C131.01 190.929 129.256 189.904 127.951 188.414C126.613 186.6 125.955 184.374 126.091 182.124C126.104 180.739 126.241 179.358 126.5 177.998C126.638 177.155 126.96 176.352 127.441 175.646C128.118 174.712 129.061 174.003 130.146 173.613C131.379 173.164 132.684 172.945 133.997 172.966C135.585 172.973 137.162 173.22 138.676 173.7C139.802 174.013 140.85 174.561 141.749 175.308C141.997 175.547 142.33 175.678 142.674 175.672C143.019 175.665 143.347 175.523 143.586 175.275C143.826 175.027 143.957 174.695 143.951 174.35C143.946 174.006 143.804 173.678 143.556 173.438H143.556C143.333 173.231 143.096 173.038 142.847 172.861C142.744 171.868 142.62 170.927 142.497 170.094L142.497 170.091C142.35 169.112 142.209 168.301 142.1 167.709C142.141 167.532 142.185 167.339 142.234 167.12C142.254 167.136 142.279 167.148 142.3 167.165H142.3Z"/><path id="Vector_5" d="M73.916 170.809L73.919 170.81L73.922 170.811L73.916 170.809Z"/><path id="Vector_6" d="M44.4331 113.775L44.7964 118.705L44.811 118.827C45.729 125.059 48.2133 130.957 52.0313 135.967C55.8493 140.978 60.8762 144.938 66.6415 147.477C73.6537 150.861 82.0358 152.952 91.5067 154C94.7923 154.367 98.0957 154.553 101.402 154.557C116.377 154.557 129.237 150.569 138.823 143.526C143.576 140.1 147.588 135.749 150.617 130.735C153.647 125.72 155.633 120.145 156.456 114.344C156.481 114.175 156.472 114.003 156.431 113.838C156.389 113.672 156.315 113.517 156.213 113.38C156.111 113.243 155.984 113.127 155.837 113.039C155.691 112.952 155.528 112.894 155.359 112.869C155.191 112.844 155.018 112.853 154.853 112.894C154.687 112.936 154.532 113.01 154.395 113.112C154.258 113.213 154.142 113.341 154.055 113.488C153.967 113.634 153.909 113.797 153.884 113.965C153.112 119.426 151.244 124.675 148.391 129.395C145.538 134.115 141.76 138.209 137.284 141.431C128.221 148.091 115.92 151.956 101.402 151.957C98.191 151.953 94.9829 151.772 91.7921 151.415C79.4395 150.053 69.161 146.872 61.6032 141.527C57.8895 138.945 54.7318 135.645 52.3176 131.82C49.7999 127.714 48.12 123.151 47.3746 118.393L46.0929 118.61L47.3893 118.514L47.026 113.584C47.0134 113.414 46.9675 113.248 46.8907 113.095C46.814 112.943 46.708 112.807 46.5787 112.696C46.4495 112.584 46.2995 112.499 46.1374 112.446C45.9753 112.392 45.8043 112.371 45.6341 112.383C45.4638 112.396 45.2977 112.442 45.1452 112.519C44.9927 112.595 44.8569 112.701 44.7454 112.831C44.6338 112.96 44.5489 113.11 44.4953 113.272C44.4418 113.434 44.4207 113.605 44.4332 113.775H44.4331Z"/><path id="Vector_7" d="M150.499 112.972C146.333 121.114 139.728 127.752 131.607 131.959C123.135 136.513 112.656 139.098 100.729 139.098C97.6805 139.095 94.634 138.933 91.6022 138.612C78.9528 137.288 69.6189 134.162 62.793 129.743C56.4968 125.744 51.6227 119.86 48.8645 112.93C48.7999 112.772 48.7048 112.628 48.5847 112.507C48.4645 112.386 48.3216 112.289 48.1642 112.223C47.8463 112.09 47.4884 112.088 47.1693 112.219C46.8502 112.349 46.5959 112.601 46.4626 112.919C46.3292 113.237 46.3275 113.595 46.458 113.914C49.4188 121.335 54.6395 127.637 61.3805 131.926C68.6513 136.63 78.399 139.844 91.3315 141.198C94.4532 141.528 97.5901 141.695 100.729 141.698C113.03 141.698 123.939 139.032 132.838 134.249C141.432 129.787 148.419 122.755 152.825 114.133C152.979 113.824 153.004 113.467 152.895 113.14C152.786 112.813 152.551 112.543 152.243 112.389C151.934 112.235 151.577 112.21 151.25 112.32C150.923 112.429 150.653 112.664 150.499 112.972L150.499 112.972Z"/><path id="Vector_8" d="M146.814 40.1853C142.028 33.6373 135.664 28.4058 128.314 24.9774C128.614 24.1726 129.016 23.4098 129.512 22.7081C130.347 21.4919 131.505 20.5318 132.854 19.9346C133.234 21.2864 134.095 22.4524 135.276 23.2121C136.457 23.9718 137.875 24.2726 139.263 24.0577C140.651 23.8427 141.911 23.1269 142.807 22.0456C143.703 20.9642 144.171 19.5922 144.124 18.1888C144.077 16.7855 143.517 15.448 142.551 14.4292C141.585 13.4105 140.279 12.781 138.88 12.6597C137.481 12.5384 136.086 12.9338 134.959 13.7711C133.832 14.6084 133.05 15.8296 132.762 17.2039C131.625 17.5592 130.56 18.1152 129.618 18.8457C128.348 19.8596 127.304 21.1274 126.552 22.568C126.318 23.0077 126.111 23.4612 125.932 23.9261C117.923 20.6849 109.349 19.074 100.71 19.1876C92.014 19.0709 83.3818 20.6919 75.3201 23.9556C74.9803 23.0713 74.5421 22.228 74.0138 21.4416C73.3896 20.5038 72.6286 19.6646 71.7562 18.9518C70.7824 18.1682 69.6703 17.5743 68.4775 17.2011C68.189 15.8218 67.4051 14.5961 66.2741 13.7557C65.1431 12.9153 63.7433 12.5185 62.3395 12.6402C60.9356 12.762 59.6251 13.3939 58.6557 14.4165C57.6862 15.4391 57.1251 16.7815 57.0784 18.1898C57.0316 19.5981 57.5026 20.9748 58.4021 22.0594C59.3017 23.144 60.5675 23.8613 61.9601 24.0759C63.3528 24.2904 64.7758 23.9872 65.96 23.2236C67.1443 22.46 68.0077 21.2889 68.3869 19.9318C69.0098 20.198 69.5932 20.5483 70.1208 20.9731C71.0692 21.7606 71.8489 22.7315 72.4132 23.8275C72.5982 24.1783 72.7616 24.5401 72.9023 24.911C72.9205 24.9591 72.9266 24.9804 72.9408 25.0203C67.9328 27.3771 63.3619 30.5679 59.4232 34.4564L59.4189 34.4607C59.3619 34.5195 59.2524 34.6195 59.1163 34.7643L59.1158 34.7638C57.4763 36.4187 55.9683 38.1988 54.6054 40.0881C54.5054 40.2267 54.4336 40.3836 54.3943 40.5499C54.3549 40.7162 54.3488 40.8887 54.3762 41.0574C54.4035 41.2261 54.4639 41.3878 54.5538 41.5331C54.6437 41.6785 54.7614 41.8047 54.9001 41.9045C55.0389 42.0043 55.1959 42.0758 55.3623 42.1149C55.5287 42.1539 55.7012 42.1598 55.8698 42.1322C56.0385 42.1045 56.2 42.0439 56.3452 41.9537C56.4904 41.8636 56.6164 41.7457 56.716 41.6068H56.7159C57.9998 39.827 59.4206 38.15 60.9653 36.5912L61.0036 36.5507C61.0456 36.5029 61.1256 36.4299 61.2618 36.2947L61.2575 36.2989C70.0845 27.5159 83.3336 21.7929 100.711 21.7875C121.378 21.7988 136.209 29.9829 144.707 41.7097C144.909 41.989 145.214 42.1766 145.555 42.2312C145.895 42.2858 146.243 42.2029 146.523 42.0007C146.802 41.7986 146.989 41.4937 147.044 41.1533C147.099 40.8128 147.016 40.4646 146.814 40.1853L146.814 40.1853ZM138.391 15.2382C139.015 15.2384 139.624 15.4235 140.142 15.77C140.661 16.1165 141.065 16.6089 141.303 17.185C141.541 17.761 141.604 18.3948 141.482 19.0063C141.36 19.6177 141.06 20.1794 140.619 20.6201C140.178 21.0609 139.616 21.361 139.005 21.4826C138.393 21.6041 137.76 21.5416 137.184 21.3029C136.608 21.0643 136.115 20.6602 135.769 20.1417C135.423 19.6233 135.238 19.0139 135.238 18.3904C135.239 17.5546 135.572 16.7533 136.163 16.1624C136.754 15.5715 137.555 15.2391 138.391 15.2382ZM62.8502 21.5431C62.2267 21.5431 61.6172 21.3583 61.0988 21.012C60.5803 20.6656 60.1762 20.1733 59.9376 19.5973C59.6989 19.0213 59.6364 18.3875 59.758 17.776C59.8796 17.1644 60.1798 16.6027 60.6206 16.1618C61.0614 15.7209 61.6231 15.4206 62.2346 15.2989C62.8461 15.1772 63.48 15.2396 64.056 15.4781C64.6321 15.7167 65.1244 16.1207 65.4709 16.6391C65.8173 17.1575 66.0022 17.7669 66.0023 18.3904C66.0011 19.2261 65.6687 20.0272 65.0778 20.6182C64.4869 21.2092 63.6859 21.5418 62.8502 21.5431Z"/><path id="Vector_9" d="M151.787 48.8677C151.042 47.1231 150.187 45.4277 149.226 43.792C149.218 43.7794 149.206 43.7728 149.198 43.7606C149.178 43.6803 149.15 43.6023 149.115 43.5276C147.127 40.0755 144.327 37.1602 140.957 35.0342C137.904 33.1591 134.389 32.1685 130.805 32.1728C129.769 32.1737 128.735 32.2527 127.711 32.4092C124.652 32.906 121.765 34.1528 119.306 36.0382C115.764 38.6462 112.967 41.9954 109.902 44.5944C108.44 45.8891 106.801 46.9698 105.035 47.8041C103.162 48.6518 101.127 49.0831 99.0705 49.0683C96.5379 49.1403 94.0301 48.5521 91.7937 47.3614C88.9624 45.8061 86.9553 43.2951 84.8098 40.6178C82.6665 37.9599 80.3748 35.1326 76.8237 33.352C74.6601 32.2566 72.27 31.6832 69.8449 31.6777C66.3939 31.7264 63.0374 32.8122 60.2118 34.794C57.0813 36.9967 54.4533 39.838 52.5009 43.1305C52.4763 43.1641 52.4406 43.1845 52.4189 43.2209C52.3313 43.3679 52.2509 43.5236 52.1654 43.6733C52.1287 43.7352 52.0897 43.7925 52.0532 43.8548C52.0442 43.8701 52.0449 43.8876 52.0366 43.9031C51.1576 45.5083 50.3629 47.1582 49.6556 48.8461C49.5885 49.003 49.5529 49.1717 49.5509 49.3424C49.5489 49.5131 49.5805 49.6825 49.644 49.841C49.7075 49.9995 49.8016 50.1439 49.9209 50.266C50.0402 50.3881 50.1824 50.4856 50.3393 50.5527C50.4963 50.6199 50.6649 50.6555 50.8357 50.6575C51.0064 50.6595 51.1758 50.6278 51.3343 50.5643C51.6543 50.4361 51.9104 50.186 52.046 49.869H52.0459C52.7408 48.2031 53.5275 46.577 54.4023 44.9982C56.2014 41.8134 58.6815 39.0651 61.6656 36.9496C64.0617 35.2575 66.9119 34.3265 69.8449 34.2778C71.8664 34.283 73.8584 34.7625 75.6609 35.6776C77.5619 36.6833 79.2525 38.0441 80.6413 39.6862C82.8351 42.1162 84.7521 45.0543 87.4843 47.4692C88.9132 48.7516 90.5567 49.7727 92.3395 50.4857C94.4879 51.3029 96.7721 51.7043 99.0705 51.6684C102.249 51.6814 105.367 50.8057 108.074 49.14C111.851 46.8626 114.718 43.5497 117.747 40.7411C119.191 39.3449 120.779 38.1048 122.483 37.0414C124.201 35.9896 126.111 35.2889 128.101 34.9798C128.996 34.8429 129.9 34.7738 130.805 34.7729C133.912 34.7682 136.959 35.6275 139.605 37.2549C142.615 39.1621 145.113 41.7744 146.885 44.8654C146.892 44.8757 146.902 44.8809 146.909 44.8911C146.927 44.9655 146.952 45.0381 146.984 45.1079H146.983C147.888 46.6483 148.694 48.2448 149.395 49.8876C149.531 50.2038 149.787 50.4532 150.106 50.5812C150.426 50.7091 150.783 50.7051 151.099 50.5701C151.416 50.4351 151.666 50.1801 151.795 49.861C151.924 49.5419 151.921 49.1847 151.787 48.8677L151.787 48.8677Z"/><path id="Vector_10" d="M27.8604 102.639C27.6648 102.435 27.494 102.245 27.355 102.067C27.25 101.932 27.1195 101.819 26.9708 101.735C26.8222 101.65 26.6584 101.596 26.4887 101.575C26.3191 101.554 26.147 101.567 25.9823 101.613C25.8176 101.658 25.6635 101.736 25.5288 101.841C25.3942 101.946 25.2816 102.077 25.1975 102.226C25.1134 102.375 25.0595 102.539 25.0388 102.708C25.0182 102.878 25.0312 103.05 25.0771 103.215C25.123 103.379 25.2009 103.533 25.3064 103.668C25.5266 103.949 25.7562 104.2 25.9806 104.435C26.0985 104.559 26.2396 104.658 26.3958 104.727C26.552 104.796 26.7203 104.833 26.891 104.837C27.0616 104.841 27.2314 104.811 27.3906 104.749C27.5498 104.688 27.6952 104.595 27.8187 104.477C27.9421 104.359 28.0411 104.218 28.11 104.062C28.1789 103.906 28.2164 103.737 28.2202 103.567C28.2241 103.396 28.1944 103.226 28.1326 103.067C28.0709 102.908 27.9784 102.763 27.8605 102.639L27.8604 102.639Z"/><path id="Vector_11" d="M169.203 105.393C169.049 105.523 168.862 105.664 168.656 105.826C168.522 105.932 168.41 106.063 168.326 106.212C168.243 106.36 168.189 106.524 168.169 106.694C168.149 106.863 168.162 107.035 168.209 107.2C168.255 107.364 168.333 107.518 168.439 107.652C168.544 107.786 168.675 107.898 168.824 107.981C168.973 108.065 169.137 108.118 169.307 108.138C169.476 108.159 169.648 108.145 169.812 108.099C169.977 108.053 170.13 107.975 170.264 107.869C170.439 107.731 170.65 107.573 170.877 107.382C171.14 107.16 171.304 106.843 171.333 106.5C171.363 106.157 171.255 105.816 171.033 105.553C170.812 105.289 170.494 105.124 170.151 105.094C169.808 105.064 169.468 105.172 169.204 105.393L169.203 105.393Z"/><path id="Vector_12" d="M173.215 101.378C172.92 101.747 172.61 102.114 172.285 102.467C172.169 102.593 172.078 102.74 172.019 102.9C171.96 103.061 171.934 103.231 171.941 103.402C171.947 103.573 171.988 103.741 172.06 103.896C172.132 104.051 172.233 104.19 172.359 104.306C172.485 104.422 172.632 104.512 172.793 104.57C172.954 104.629 173.124 104.656 173.295 104.648C173.466 104.641 173.633 104.6 173.788 104.528C173.943 104.456 174.083 104.354 174.198 104.228C174.572 103.822 174.921 103.408 175.248 102.998C175.461 102.728 175.558 102.385 175.519 102.044C175.479 101.702 175.306 101.391 175.038 101.176C174.769 100.962 174.426 100.863 174.085 100.901C173.743 100.939 173.43 101.11 173.215 101.378L173.215 101.378Z"/><path id="Vector_13" d="M45.9014 69.7102L45.9004 69.7052V69.6992L45.9014 69.7102Z"/><path id="Vector_14" d="M79.8134 62.7411C78.9802 62.1498 77.9819 61.8361 76.9602 61.8444L76.7313 61.8492C75.793 61.879 74.8806 62.1644 74.0925 62.6745C72.9987 63.4327 72.1745 64.5192 71.7392 65.7768C71.2734 67.0698 71.0439 68.436 71.0615 69.8103C71.0461 72.0533 71.5789 74.2662 72.6135 76.2565C73.1086 77.1962 73.7887 78.026 74.6129 78.6959C75.4569 79.3742 76.489 79.7766 77.5693 79.8485V79.8485L77.7847 79.855C78.7085 79.844 79.5946 79.487 80.2681 78.8546C81.2432 77.8818 81.9398 76.6654 82.2853 75.332C82.714 73.8607 82.9279 72.335 82.9203 70.8025C82.9699 68.7721 82.538 66.7587 81.66 64.9273C81.2244 64.0639 80.5918 63.315 79.8134 62.7411ZM79.4204 75.5935C79.2154 76.0911 78.9127 76.5425 78.53 76.9208C78.3346 77.1251 78.0671 77.245 77.7846 77.255L77.7271 77.2533L77.7268 77.2532C77.1726 77.2141 76.6445 77.0029 76.2161 76.6492C75.3631 75.9004 74.7265 74.9365 74.3726 73.8581C73.9016 72.5605 73.6609 71.1907 73.6614 69.8103C73.6153 68.4559 73.9197 67.1126 74.5451 65.9105C74.7821 65.4876 75.1136 65.1252 75.5139 64.8517C75.9094 64.5969 76.3679 64.4568 76.8383 64.447L76.9601 64.4444C77.443 64.4345 77.9161 64.5809 78.309 64.8617C79.0169 65.443 79.5281 66.2285 79.7729 67.1111C80.151 68.3045 80.3358 69.5507 80.3204 70.8025C80.3467 72.4438 80.0405 74.0736 79.4204 75.5935H79.4204Z"/><path id="Vector_15" d="M39.9688 107.403L39.9658 107.402H39.9648L39.9688 107.403Z"/><path id="Vector_16" d="M87.8693 64.1657C87.7664 63.3754 87.5009 62.615 87.0895 61.9324C86.5412 61.1938 85.8507 60.5724 85.0585 60.1048C83.2016 58.9987 81.2296 58.0985 79.1774 57.4201C75.1983 56.0541 71.1249 54.98 66.9897 54.2063C63.0415 53.4024 59.0292 52.9544 55.0009 52.8677C53.1426 52.8679 51.0878 52.9067 48.9453 52.9966C48.9367 52.9974 48.9282 52.9965 48.9196 52.9975C45.1044 53.1418 41.2992 53.4819 37.5189 54.0165C34.7896 54.3869 32.0971 54.9904 29.4709 55.8203C27.3617 56.4085 25.4276 57.5017 23.8359 59.0054C22.4938 60.5472 21.5312 62.3817 21.0251 64.3622C20.3787 66.7854 20.0688 69.286 20.1043 71.7937C20.295 78.8164 21.7163 85.7512 24.3038 92.2827L24.304 92.2835C25.6412 95.873 27.8025 99.0983 30.6139 101.7C33.3344 104.186 36.5105 106.123 39.9669 107.402C41.524 107.993 43.1221 108.469 44.7486 108.826C47.4486 109.42 50.2053 109.718 52.9699 109.715C60.7926 109.707 68.442 107.385 73.6239 102.899L73.6246 102.898C78.7525 98.4246 82.3153 91.7136 84.6544 85.0289C86.722 79.2849 87.8788 73.2528 88.0829 67.1514C88.094 66.152 88.0225 65.1534 87.8693 64.1657ZM57.1396 96.864L57.1493 96.8743L57.15 96.8737C59.8188 99.7844 62.8454 102.345 66.1578 104.496C62.395 106.091 58.3679 106.972 54.2826 107.092C53.1615 105.799 52.1704 104.4 51.3235 102.913C48.2987 97.408 46.758 91.2109 46.8526 84.9304C46.8521 84.5019 46.8964 82.4043 47.1244 79.9399C47.1611 79.5367 47.2051 79.121 47.2529 78.7018C47.6565 80.2549 48.1476 81.7841 48.7237 83.2819C48.7264 83.2891 48.725 83.2969 48.7278 83.3041C50.6554 88.3019 53.5021 92.8943 57.1207 96.8437L57.1396 96.864ZM43.5915 105.843C43.3742 105.783 43.1542 105.729 42.9386 105.664C43.2026 104.685 43.477 103.675 43.7602 102.641C43.6752 103.713 43.619 104.78 43.5915 105.843H43.5915ZM46.7546 99.2033C47.394 100.921 48.1637 102.587 49.0572 104.187C49.6218 105.182 50.2484 106.14 50.9334 107.056C49.3373 106.963 47.7494 106.763 46.1806 106.455C46.2224 104.028 46.4141 101.606 46.7546 99.2033V99.2033ZM22.7043 71.7937C22.6693 69.5271 22.9456 67.2663 23.5254 65.0748C23.9216 63.4869 24.6817 62.0129 25.7458 60.7695L25.7468 60.7685C27.0471 59.5945 28.6061 58.7439 30.297 58.2856C34.1948 57.1211 38.2055 56.3744 42.2613 56.0583C43.9544 55.8927 45.6648 55.768 47.3411 55.6764C46.3569 59.5423 45.8565 63.5155 45.8513 67.5047V67.7575C45.8513 68.4127 45.8715 69.0619 45.9024 69.7054C45.9226 70.2055 45.9537 70.6956 45.9939 71.1921H45.9936L45.9945 71.2017L45.9952 71.2134H45.9956C46.0083 71.4037 46.0267 71.5741 46.0437 71.7504C46.0341 71.7734 46.0149 71.7889 46.0066 71.8126H46.0064C45.2176 74.3776 44.7241 77.0241 44.5355 79.701C44.2986 82.276 44.2531 84.3958 44.2526 84.9303C44.2487 87.7276 44.5206 90.5185 45.0645 93.2624C44.9701 93.3244 44.8783 93.3884 44.7933 93.4556C44.2411 93.9178 43.7794 94.4784 43.4316 95.109C43.1062 95.6698 42.8493 96.2676 42.6664 96.8896L42.6667 96.8887C41.8783 99.6531 41.1487 102.316 40.4802 104.795C38.0742 103.853 35.8195 102.563 33.7878 100.966C34.2976 100.167 34.569 99.2395 34.57 98.2917C34.5583 97.203 34.2591 96.1367 33.7027 95.2008C33.2207 94.3264 32.4878 93.6165 31.5985 93.1627C31.2426 92.9959 30.8547 92.9087 30.4617 92.907C29.8728 92.9155 29.3007 93.1047 28.8228 93.449C28.5284 93.6582 28.2606 93.9026 28.0256 94.1769C27.5323 93.2725 27.1023 92.335 26.7387 91.3711L26.7389 91.3719C24.2618 85.1313 22.8963 78.5052 22.7043 71.7937ZM29.5265 96.5599C29.6456 96.339 29.7851 96.1297 29.9432 95.9347C30.0525 95.7959 30.1813 95.6735 30.3255 95.5714L30.4374 95.5132L30.4617 95.5071L30.509 95.5234C30.9124 95.7599 31.2419 96.1041 31.4607 96.5174C31.7818 97.0545 31.9573 97.6661 31.97 98.2917C31.9696 98.6074 31.9087 98.9201 31.7904 99.2129C30.9668 98.3898 30.2098 97.5027 29.5265 96.5599ZM82.1996 84.1724C79.9662 90.5924 76.5234 96.942 71.9181 100.937C70.9623 101.761 69.9325 102.495 68.8417 103.13C65.2138 100.935 61.9179 98.232 59.0537 95.1046L59.039 95.0886C55.6414 91.3808 52.9682 87.0696 51.1575 82.3778C51.1553 82.3718 51.1564 82.3654 51.1541 82.3594C50.1027 79.6376 49.354 76.8085 48.9213 73.9229L48.9199 73.8996C48.893 73.6984 48.8621 73.5359 48.8484 73.4314L48.848 73.4282L48.8284 73.288L48.8277 73.2827C48.7624 72.8283 48.714 72.3561 48.6644 71.8658V71.8666C48.6337 71.5638 48.6054 71.29 48.5882 71.0231L48.5866 71.0018C48.5478 70.5272 48.5187 70.0659 48.5001 69.5958L48.4996 69.5853C48.47 68.9696 48.4512 68.3605 48.4512 67.7575V67.5103C48.4574 63.4715 49.001 59.4514 50.0678 55.556C51.805 55.4955 53.4733 55.4676 55.0009 55.4676C61.0844 55.6833 67.1213 56.6137 72.9874 58.2399C75.7133 58.939 78.3854 59.8332 80.9831 60.9156C81.9078 61.3046 82.8008 61.765 83.654 62.2926C84.1436 62.5736 84.5767 62.9431 84.9313 63.3823C85.1301 63.7624 85.2572 64.1759 85.3061 64.602C85.4345 65.4456 85.4937 66.2982 85.4831 67.1514C85.2767 72.9609 84.169 78.703 82.1996 84.1724L82.1996 84.1724Z"/><path id="Vector_17" d="M23.834 59.0059L23.835 59.0049L23.834 59.0059Z"/><path id="Vector_18" d="M125.934 62.6251C125.076 62.1119 124.096 61.8393 123.097 61.836C122.097 61.8327 121.115 62.0988 120.254 62.6063C119.086 63.3732 118.204 64.5046 117.746 65.8245C117.255 67.177 117.013 68.6073 117.032 70.0461C117.013 72.2651 117.52 74.4571 118.513 76.4418C118.978 77.3596 119.63 78.1702 120.427 78.8218C121.242 79.4811 122.256 79.8472 123.305 79.8616L123.306 79.8617L123.33 79.8617C124.33 79.8493 125.292 79.4797 126.042 78.8199C127.149 77.7937 127.96 76.4895 128.391 75.0432C128.907 73.4787 129.169 71.8415 129.166 70.194C129.222 68.2609 128.771 66.3469 127.856 64.643C127.388 63.8251 126.728 63.1328 125.934 62.6251ZM125.471 75.3218C125.207 75.8935 124.832 76.4066 124.367 76.8311C124.086 77.0968 123.717 77.25 123.33 77.2617H123.322C122.848 77.2522 122.392 77.0803 122.03 76.7747C121.226 76.0528 120.634 75.1265 120.315 74.0945C119.861 72.7931 119.63 71.4244 119.632 70.0461C119.582 68.6128 119.907 67.1912 120.575 65.9224C120.829 65.4767 121.186 65.0988 121.617 64.8206C122.055 64.5568 122.56 64.4234 123.071 64.4359C123.595 64.4226 124.112 64.5602 124.56 64.8325C125.254 65.3178 125.768 66.018 126.024 66.8249C126.401 67.9074 126.585 69.0479 126.566 70.194C126.583 71.9631 126.209 73.714 125.471 75.3218H125.471Z"/><path id="Vector_19" d="M161.547 106.776V106.777L161.543 106.778L161.547 106.776Z"/><path id="Vector_20" d="M179.891 71.7937C179.927 69.2863 179.617 66.7859 178.972 64.3627C178.466 62.3831 177.506 60.5489 176.166 59.0064C174.574 57.5022 172.64 56.4086 170.53 55.8203C166.447 54.592 162.244 53.8042 157.993 53.4707C153.444 53.0261 148.813 52.8678 145 52.8677C138.69 53.0813 132.428 54.0413 126.344 55.7277C123.492 56.4599 120.697 57.3969 117.981 58.5314C116.928 58.9754 115.913 59.5015 114.943 60.1048C114.15 60.5725 113.46 61.1939 112.911 61.9325L112.912 61.9315C112.5 62.6142 112.234 63.3751 112.131 64.1659C111.978 65.1538 111.906 66.1527 111.917 67.1524C112.121 73.2536 113.277 79.2854 115.344 85.0295C117.682 91.7139 121.242 98.4245 126.366 102.898L126.367 102.899C127.888 104.206 129.566 105.32 131.362 106.214L131.363 106.215C136.239 108.571 141.594 109.768 147.01 109.713C149.789 109.716 152.56 109.415 155.273 108.816L155.271 108.817C157.425 108.346 159.527 107.663 161.546 106.777C164.767 105.452 167.682 103.482 170.114 100.99C172.546 98.4972 174.443 95.5339 175.688 92.2818L175.687 92.2834C178.278 85.7525 179.701 78.8171 179.891 71.7937ZM128.073 100.937C123.472 96.9424 120.031 90.5931 117.799 84.1733C115.83 78.7038 114.723 72.9617 114.517 67.1524C114.506 66.299 114.566 65.4462 114.694 64.6025C114.743 64.1766 114.87 63.7633 115.069 63.3833L115.07 63.3823C115.424 62.9431 115.857 62.5736 116.347 62.2926C118.037 61.2962 119.829 60.4842 121.692 59.8706C125.548 58.5488 129.494 57.5091 133.5 56.7599C137.287 55.9877 141.136 55.5552 145 55.4676C146.945 55.4673 149.114 55.5117 151.369 55.6135C152.09 58.2331 152.57 60.9127 152.805 63.6193H152.805C152.82 63.8086 152.837 63.9509 152.843 64.0419L152.843 64.0542C152.932 65.245 152.981 66.4324 152.981 67.6374C152.982 69.3142 152.885 70.9896 152.69 72.6551L152.691 72.6482C152.622 73.2007 152.545 73.7435 152.457 74.2869C152.378 74.7659 152.3 75.2265 152.209 75.6577L152.203 75.6857C152.116 76.1474 152.02 76.5987 151.914 77.05L151.914 77.051C151.759 77.7146 151.594 78.3578 151.406 78.9819L151.399 79.0072C151.081 80.1418 150.704 81.2558 150.284 82.3686L150.281 82.3856C148.296 87.5006 145.294 92.1598 141.457 96.0816L141.456 96.0832C141.146 96.4035 140.846 96.7135 140.546 97.0034L140.547 97.0031C137.929 99.5146 135.028 101.712 131.902 103.552C130.534 102.822 129.25 101.946 128.073 100.937ZM154.467 106.325C152.169 106.814 149.828 107.074 147.479 107.101C148.997 105.332 150.363 103.439 151.564 101.441L151.563 101.443C152.427 99.9761 153.211 98.4636 153.912 96.9123C154.294 99.6718 154.486 102.454 154.485 105.24C154.485 105.601 154.473 105.963 154.467 106.325H154.467ZM151.969 94.8536C151.406 96.2231 150.743 97.546 150.224 98.5184C149.964 99.0049 149.74 99.4043 149.582 99.6802C149.503 99.8181 149.44 99.9251 149.398 99.9968L149.336 100.101L149.335 100.103C147.844 102.583 146.083 104.89 144.084 106.982C140.879 106.739 137.727 106.025 134.729 104.864C137.463 103.124 140.018 101.117 142.354 98.8721L142.355 98.8718C142.696 98.5416 143.015 98.2109 143.324 97.8916L143.322 97.8931C147.407 93.716 150.602 88.7531 152.713 83.3051C152.716 83.2986 152.715 83.2916 152.717 83.2851C153.153 82.1271 153.554 80.9486 153.895 79.7331L153.895 79.7332L153.898 79.7231L153.902 79.7079L153.902 79.7077C154.109 79.0201 154.285 78.3321 154.446 77.6438C154.558 77.1651 154.659 76.6852 154.752 76.1971L154.752 76.1971L154.754 76.1869L154.758 76.1692L154.757 76.169C154.823 75.8591 154.871 75.5613 154.923 75.2601C155.003 76.3778 155.06 77.5247 155.06 78.7217C155.095 84.2495 154.045 89.7304 151.969 94.8536ZM157.078 105.651C157.079 105.514 157.085 105.377 157.085 105.24C157.081 103.037 156.963 100.836 156.73 98.6453C157.378 100.945 157.975 103.132 158.522 105.176C158.046 105.346 157.565 105.504 157.078 105.651L157.078 105.651ZM168.529 98.864C168.485 98.6763 168.462 98.4844 168.459 98.2917C168.472 97.6661 168.647 97.0545 168.968 96.5174C169.187 96.1039 169.517 95.7597 169.921 95.5234L169.968 95.507L169.996 95.5147C170.099 95.5604 170.192 95.6247 170.271 95.7044C170.43 95.86 170.571 96.0331 170.692 96.2205C170.041 97.1569 169.318 98.0408 168.529 98.864V98.864ZM173.253 91.3713L173.252 91.3729C172.927 92.2314 172.549 93.069 172.12 93.8808C171.961 93.7229 171.789 93.5785 171.607 93.449C171.129 93.1047 170.557 92.9155 169.968 92.9071C169.575 92.9087 169.187 92.9959 168.831 93.1626C167.942 93.6162 167.208 94.3262 166.726 95.2008C166.17 96.1366 165.871 97.203 165.859 98.2917C165.858 99.1547 166.081 100.003 166.505 100.755C164.804 102.126 162.936 103.277 160.946 104.178C160.337 101.908 159.672 99.4717 158.936 96.8891C158.644 95.8792 158.194 94.9216 157.604 94.0513C157.282 93.5723 156.887 93.1472 156.432 92.7916C156.22 92.6338 155.991 92.5007 155.749 92.3948C155.727 92.3271 155.699 92.2615 155.665 92.1986C157 87.8312 157.672 83.2884 157.66 78.7217C157.631 73.4925 156.864 68.2935 155.382 63.2786C155.157 60.7447 154.729 58.2329 154.102 55.7674C156.79 55.9443 159.525 56.206 162.101 56.5884C164.679 56.9369 167.223 57.5047 169.704 58.2857C171.395 58.744 172.954 59.5946 174.254 60.7685C175.316 62.0128 176.075 63.4869 176.471 65.0744C177.05 67.2662 177.326 69.527 177.291 71.7937C177.1 78.5055 175.733 85.1316 173.253 91.3713Z"/><path id="Vector_21" d="M106.827 83.3865C106.677 83.3044 106.513 83.2525 106.343 83.2339C106.174 83.2152 106.002 83.2302 105.838 83.2779C105.674 83.3256 105.521 83.4051 105.388 83.5119C105.255 83.6187 105.144 83.7507 105.062 83.9003C104.613 84.5886 103.983 85.14 103.242 85.4939C102.277 86.0033 101.203 86.2736 100.112 86.2822C99.2951 86.2874 98.4874 86.1124 97.7461 85.7696C96.8856 85.3564 96.1358 84.7443 95.5586 83.984C95.4533 83.8493 95.3224 83.7367 95.1735 83.6526C95.0246 83.5685 94.8606 83.5147 94.6909 83.4941C94.5211 83.4735 94.349 83.4866 94.1843 83.5327C94.0196 83.5787 93.8657 83.6568 93.7312 83.7624C93.5968 83.8681 93.4845 83.9992 93.4008 84.1483C93.3171 84.2974 93.2636 84.4616 93.2434 84.6313C93.2233 84.8011 93.2368 84.9733 93.2833 85.1378C93.3297 85.3024 93.4082 85.4562 93.5142 85.5903L93.5139 85.5903C94.3431 86.6707 95.4163 87.5394 96.6458 88.1253C97.7316 88.6288 98.9149 88.8872 100.112 88.8821C101.626 88.8742 103.116 88.5007 104.455 87.7936C105.65 87.207 106.651 86.2901 107.341 85.1516C107.507 84.8494 107.546 84.4936 107.449 84.1626C107.353 83.8316 107.129 83.5525 106.827 83.3865Z"/><path id="Vector_22" d="M181.283 100.526L181.282 100.52L181.281 100.514L181.283 100.526Z"/><path id="Vector_23" d="M127.563 109.999H127.562L127.561 109.998L127.563 109.999Z"/><path id="Vector_24" d="M195.984 52.2737C195.74 52.0306 195.409 51.8938 195.065 51.8929H189.643C189.594 51.9143 189.541 51.9258 189.487 51.9266C189.433 51.9275 189.38 51.9176 189.33 51.8978C185.612 51.9043 180.865 50.9603 174.292 49.9916C165.643 48.6884 156.907 48.0421 148.16 48.0579C137.849 48.0812 127.607 49.733 117.811 52.9523C113.922 54.1705 110.543 55.3806 107.583 56.2723C105.134 57.1066 102.58 57.5948 99.9953 57.7228C97.4122 57.5946 94.8596 57.1063 92.4116 56.2722C83.5178 53.5967 70.9389 48.0519 51.84 48.0579C43.0916 48.0418 34.3546 48.6882 25.7038 49.9916C19.1323 50.9603 14.3884 51.9043 10.6701 51.8978C10.6213 51.9046 10.5728 51.9143 10.5251 51.9268C10.4695 51.9116 10.4129 51.9003 10.3557 51.8929H4.93477C4.76404 51.8929 4.59499 51.9265 4.43726 51.9918C4.27954 52.0571 4.13622 52.1529 4.0155 52.2736C3.89479 52.3943 3.79903 52.5376 3.7337 52.6954C3.66837 52.8531 3.63476 53.0221 3.63477 53.1929V68.6182C3.63615 68.795 3.67371 68.9696 3.74512 69.1314C3.77084 69.4353 3.90398 69.7201 4.12065 69.9347C4.33733 70.1493 4.62337 70.2797 4.92749 70.3025C5.56052 70.3317 6.17844 70.5056 6.73376 70.8109C7.41129 71.2108 7.95312 71.805 8.28906 72.5164C8.61771 73.1898 8.82145 73.9173 8.89038 74.6634V74.6632C9.04101 76.2748 9.52038 82.9239 10.1684 89.6867C10.493 93.0724 10.8599 96.4927 11.253 99.357C11.4497 100.79 11.6527 102.083 11.8633 103.173C12.0181 104.075 12.2463 104.962 12.5456 105.826C12.7483 106.403 13.0392 106.946 13.408 107.434C13.5915 107.666 13.8141 107.864 14.0657 108.02C14.3609 108.2 14.6997 108.297 15.0456 108.299C15.4876 108.293 15.9148 108.138 16.2576 107.859C16.7025 107.473 17.0527 106.99 17.2812 106.447C17.6705 105.558 17.9685 104.632 18.1705 103.683C18.4079 102.637 18.5902 101.58 18.7167 100.515L18.7174 100.508C18.7361 100.313 18.7441 100.116 18.7414 99.9189C18.7408 99.1231 18.674 97.7062 18.5681 95.9084C18.4811 94.4401 18.3671 92.7294 18.2409 90.9572C19.2639 93.8378 20.5648 96.6119 22.1251 99.2406C21.7089 99.651 21.3742 100.136 21.1386 100.671C20.8025 101.423 20.6287 102.238 20.6286 103.061C20.6286 103.193 20.6337 103.328 20.644 103.465L20.6435 103.465L20.6442 103.47L20.6445 103.478L20.6453 103.478C20.7244 104.827 21.1962 106.123 22.0026 107.207C22.6816 108.109 23.6437 108.756 24.7347 109.046C25.0126 109.689 25.4018 110.277 25.8842 110.785C26.6118 111.544 27.545 112.073 28.5693 112.309C29.048 112.9 29.6338 113.394 30.296 113.767C31.2465 114.313 32.3219 114.602 33.4177 114.609C33.7175 114.609 34.0168 114.586 34.3131 114.54C34.3545 114.527 34.3952 114.512 34.435 114.495C34.4934 114.502 34.5522 114.505 34.6109 114.503C35.7769 114.34 36.8809 113.879 37.816 113.164L37.8169 113.163C38.0954 114.87 38.4432 116.954 38.5584 117.631C38.6164 117.97 38.807 118.273 39.0883 118.473C39.2276 118.571 39.385 118.642 39.5515 118.68C39.7179 118.718 39.8902 118.722 40.0586 118.694C40.2269 118.665 40.3879 118.603 40.5324 118.512C40.6769 118.422 40.8021 118.303 40.9008 118.164C40.9995 118.024 41.0698 117.867 41.1077 117.701C41.1456 117.534 41.1504 117.362 41.1217 117.194H41.1215C41.0136 116.561 40.6914 114.631 40.4213 112.98C41.9331 113.393 43.4694 113.711 45.021 113.932V113.933L45.028 113.933L45.0376 113.935V113.935C46.2412 114.12 47.4843 114.244 48.7788 114.325C50.3149 114.421 51.7924 114.468 53.2113 114.468C54.9367 114.469 56.5649 114.383 58.1347 114.242C58.1522 114.255 58.1608 114.275 58.1792 114.288L58.179 114.288C70.172 122.54 84.3767 126.98 98.9343 127.025C99.1941 127.025 99.4551 127.024 99.7175 127.021C104.676 126.967 109.615 126.392 114.453 125.307C114.638 126.31 114.842 127.266 115.056 128.153C115.581 130.417 116.297 132.634 117.196 134.777C117.337 135.092 117.597 135.338 117.919 135.46C118.241 135.583 118.599 135.573 118.914 135.432C119.229 135.291 119.474 135.031 119.597 134.708C119.72 134.386 119.709 134.028 119.568 133.714C119.364 133.26 119.048 132.463 118.691 131.401L120.643 130.661C120.937 131.502 121.28 132.326 121.67 133.127C121.746 133.281 121.851 133.417 121.98 133.529C122.11 133.641 122.259 133.727 122.422 133.781C122.584 133.835 122.755 133.857 122.926 133.845C123.096 133.833 123.263 133.787 123.416 133.711C123.569 133.634 123.705 133.528 123.817 133.399C123.929 133.27 124.014 133.119 124.068 132.957C124.122 132.795 124.143 132.624 124.13 132.453C124.118 132.282 124.072 132.116 123.995 131.963C123.639 131.243 123.327 130.502 123.06 129.745L125.164 128.948C125.465 129.817 125.818 130.667 126.219 131.494C126.373 131.802 126.644 132.037 126.971 132.146C127.298 132.255 127.655 132.229 127.964 132.075C128.272 131.921 128.506 131.65 128.615 131.323C128.725 130.996 128.699 130.639 128.545 130.331C127.51 128.128 126.769 125.798 126.341 123.401C126.231 122.838 126.137 122.249 126.046 121.656C127.111 121.22 128.121 120.776 129.085 120.329L129.102 120.356C130.308 122.239 131.631 124.045 133.065 125.761C133.29 126.022 133.61 126.183 133.953 126.209C134.297 126.234 134.637 126.122 134.898 125.896C135.159 125.671 135.32 125.352 135.346 125.008C135.371 124.664 135.259 124.324 135.033 124.063L135.017 124.044C134.894 123.9 134.088 122.941 133.016 121.467C133.544 121.022 134.093 120.574 134.656 120.134C135.808 121.702 136.63 122.658 136.648 122.678C136.873 122.939 137.193 123.1 137.536 123.126C137.88 123.151 138.22 123.039 138.481 122.813C138.742 122.588 138.903 122.269 138.929 121.925C138.954 121.581 138.842 121.241 138.616 120.98L138.575 120.931C138.399 120.724 137.68 119.861 136.729 118.563C136.764 118.537 136.805 118.506 136.84 118.48C137.54 117.966 138.153 117.528 138.59 117.219L138.61 117.205C139.636 118.583 140.348 119.409 140.364 119.428C140.59 119.689 140.909 119.85 141.253 119.876C141.597 119.901 141.937 119.789 142.198 119.563C142.459 119.338 142.62 119.019 142.645 118.675C142.671 118.331 142.558 117.991 142.333 117.73L142.314 117.707C142.148 117.514 140.951 116.088 139.496 113.976C141.912 114.313 144.348 114.478 146.786 114.47C148.207 114.47 149.686 114.422 151.221 114.325L151.224 114.325C152.628 114.234 153.973 114.1 155.272 113.893V113.894L155.28 113.892L155.285 113.892V113.891C157.059 113.629 158.813 113.241 160.532 112.73C160.685 113.302 160.836 113.86 160.981 114.387C160.985 114.4 160.995 114.41 160.999 114.423C160.804 115.75 160.614 117.019 160.538 117.464C160.509 117.632 160.514 117.805 160.552 117.971C160.59 118.138 160.66 118.295 160.759 118.434C160.857 118.574 160.982 118.692 161.127 118.783C161.271 118.874 161.432 118.936 161.601 118.965C161.769 118.993 161.941 118.989 162.108 118.951C162.274 118.913 162.432 118.843 162.571 118.744C162.71 118.645 162.829 118.52 162.92 118.376C163.011 118.231 163.072 118.07 163.101 117.902C163.194 117.358 163.399 115.978 163.608 114.552C163.653 114.246 163.698 113.94 163.742 113.64C164.509 114.081 165.352 114.374 166.228 114.503C166.316 114.508 166.404 114.504 166.49 114.491C166.635 114.5 166.78 114.518 166.923 114.518C166.955 114.518 166.986 114.511 167.018 114.51C166.813 115.737 166.615 116.833 166.422 117.798L166.422 117.797C166.175 119.141 165.837 120.467 165.411 121.766C165.215 122.388 164.919 122.974 164.537 123.503C164.273 123.857 163.923 124.138 163.52 124.317C163.253 124.432 162.965 124.493 162.673 124.496H162.666C162.495 124.496 162.326 124.529 162.168 124.594C162.01 124.658 161.867 124.753 161.746 124.874C161.624 124.994 161.528 125.137 161.462 125.294C161.396 125.452 161.362 125.621 161.361 125.792C161.361 125.962 161.394 126.131 161.458 126.289C161.523 126.447 161.618 126.591 161.739 126.712C161.859 126.833 162.002 126.93 162.159 126.996C162.317 127.062 162.486 127.096 162.656 127.096H162.673C163.326 127.094 163.972 126.958 164.571 126.696L164.578 126.693C165.37 126.338 166.061 125.791 166.587 125.102L166.605 125.08C167.148 124.341 167.57 123.521 167.856 122.65L167.862 122.634C168.33 121.22 168.7 119.776 168.971 118.311L168.971 118.31C169.228 117.03 169.487 115.556 169.757 113.867C170.182 113.675 170.584 113.438 170.958 113.159C171.274 112.91 171.562 112.627 171.817 112.316C172.855 112.085 173.802 111.553 174.54 110.787C175.024 110.279 175.414 109.69 175.694 109.047C176.788 108.759 177.753 108.111 178.432 107.206C179.239 106.118 179.71 104.818 179.787 103.466V103.466C179.797 103.329 179.801 103.194 179.801 103.063C179.806 101.971 179.497 100.9 178.912 99.9779C178.662 99.6015 178.353 99.2689 177.995 98.9935C179.499 96.4276 180.759 93.7266 181.76 90.9257C181.632 92.7095 181.517 94.4326 181.43 95.9085C181.324 97.7063 181.257 99.1232 181.256 99.919C181.253 100.12 181.262 100.321 181.282 100.52C181.461 102.113 181.783 103.686 182.245 105.221C182.44 105.877 182.717 106.506 183.069 107.093C183.249 107.384 183.476 107.643 183.74 107.859C184.083 108.138 184.51 108.293 184.952 108.299C185.298 108.297 185.637 108.2 185.932 108.02C186.301 107.784 186.611 107.466 186.837 107.09C187.084 106.691 187.29 106.268 187.452 105.827L187.453 105.827C187.752 104.962 187.981 104.075 188.135 103.173C188.868 99.3712 189.536 92.9969 190.065 87.1642C190.593 81.3446 190.977 76.0705 191.108 74.6632V74.6634C191.193 73.6536 191.54 72.6835 192.115 71.849C192.42 71.425 192.812 71.0711 193.265 70.8109C193.821 70.5056 194.439 70.3317 195.072 70.3025C195.376 70.2796 195.662 70.1492 195.879 69.9346C196.095 69.7199 196.229 69.4351 196.254 69.1312C196.326 68.9695 196.363 68.7949 196.364 68.6182V53.1929C196.363 52.8483 196.227 52.518 195.984 52.2737ZM6.23458 67.3182V54.4928H9.0555L9.05562 67.3182H6.23458ZM16.1383 100.136L16.1355 100.197L16.1345 100.21C15.9744 101.638 15.6876 103.049 15.2774 104.426C15.2021 104.664 15.1226 104.876 15.0446 105.067C15.0205 105.009 14.9968 104.959 14.9724 104.893C14.7299 104.171 14.544 103.431 14.4161 102.68C13.722 99.0961 13.0465 92.721 12.5228 86.9295C11.9967 81.1249 11.6168 75.9 11.4791 74.4217V74.4214C11.3523 72.943 10.8351 71.5247 9.98044 70.3117C9.8823 70.1775 9.77304 70.0474 9.66232 69.9181H10.1887C10.7208 70.2211 11.1804 70.6364 11.5356 71.1351C12.5364 72.6391 13.2944 74.2911 13.7821 76.0306C14.0744 76.9257 14.3593 77.8975 14.6469 78.9188C14.6399 78.9672 14.6357 79.0159 14.6344 79.0647H14.6342C14.8632 81.0775 15.2432 85.604 15.5625 89.9622C15.7224 92.143 15.8676 94.2865 15.9726 96.0619C16.0778 97.8325 16.1421 99.2558 16.1414 99.9189L16.1383 100.136ZM24.7476 104.499C24.5648 104.962 24.4329 105.444 24.354 105.935C24.2501 105.837 24.1529 105.732 24.0629 105.621C23.5686 104.94 23.282 104.131 23.2377 103.291L23.2367 103.277L23.2286 103.061C23.226 102.475 23.387 101.9 23.6937 101.4C23.7897 101.244 23.9154 101.108 24.0636 100.999C24.1134 100.958 24.1744 100.934 24.2385 100.929L24.3669 100.966C24.4689 101.024 24.5625 101.095 24.6452 101.177C24.6797 101.27 24.7078 101.365 24.7293 101.461C24.8513 101.944 24.9663 102.765 25.1663 103.666C25.0067 103.934 24.8667 104.212 24.7475 104.499L24.7476 104.499ZM27.6825 108.892C27.2525 108.426 26.9731 107.841 26.8809 107.214L26.8802 107.209C26.8689 107.114 26.8634 107.018 26.8638 106.922C26.8774 106.261 27.0509 105.612 27.3694 105.032C27.4797 104.824 27.6282 104.639 27.8071 104.486C27.9335 104.392 27.9727 104.396 27.9993 104.393C28.0256 104.396 28.1516 104.393 28.4499 104.644C28.5965 104.879 28.7023 105.137 28.7629 105.407C28.8559 105.716 28.9539 106.1 29.0752 106.522C28.3851 107.156 27.9001 107.981 27.6824 108.892L27.6825 108.892ZM34.2156 111.933C34.1735 111.946 34.1322 111.961 34.0918 111.979C34.0328 111.972 33.9733 111.969 33.9139 111.971H33.9138C33.7497 111.996 33.5838 112.009 33.4177 112.009C32.5648 111.997 31.7405 111.699 31.0765 111.164C30.8702 110.995 30.6874 110.8 30.5332 110.582C30.4879 110.495 30.4326 110.414 30.3685 110.339C30.2532 110.144 30.1875 109.924 30.1774 109.697L30.1934 109.534L30.1939 109.531C30.2902 109.105 30.5167 108.719 30.8419 108.428C31.0822 108.185 31.401 108.035 31.7415 108.005C31.8369 108.003 31.9311 108.026 32.0148 108.072C32.1508 108.153 32.2656 108.265 32.3498 108.399C32.4583 108.566 32.5339 108.752 32.5725 108.947C32.6112 109.128 32.6308 109.313 32.6308 109.498L32.6274 109.624L32.6258 109.645L32.6279 109.646C32.593 109.987 32.6942 110.327 32.9095 110.594C33.1249 110.861 33.4368 111.031 33.7774 111.069C34.0684 111.095 34.3597 111.021 34.6026 110.859C34.9896 111.047 35.4069 111.209 35.8099 111.384C35.3186 111.668 34.7773 111.854 34.2155 111.933L34.2156 111.933ZM99.689 124.421C99.436 124.424 99.1845 124.425 98.9343 124.425C85.8787 124.386 73.0971 120.678 62.0471 113.725C65.8568 113.087 69.5146 111.746 72.8337 109.77C73.3107 109.48 73.7653 109.163 74.2202 108.847C75.8885 109.568 77.6052 110.229 79.3849 110.813L79.4398 110.83L79.6141 110.878C80.1247 111.039 80.6511 111.203 81.1992 111.354V111.355L81.2056 111.356C81.2236 111.361 81.2397 111.367 81.2578 111.372L81.258 111.371C81.6023 111.481 81.9578 111.583 82.3223 111.667L82.322 111.668L82.4182 111.693L82.5642 111.735L82.5935 111.744C83.0027 111.853 83.4253 111.967 83.8701 112.073L83.8872 112.077C83.9771 112.097 84.0679 112.117 84.1606 112.137V112.137C84.6233 112.25 85.0842 112.35 85.5332 112.448L85.5378 112.449C90.5268 113.497 95.6124 114.016 100.71 113.998C105.103 114.003 109.487 113.614 113.81 112.836C113.689 114.121 113.631 115.392 113.631 116.632C113.635 118.674 113.773 120.712 114.044 122.735C109.332 123.804 104.52 124.369 99.6889 124.421L99.689 124.421ZM116.054 109.749C106.184 111.893 95.974 111.946 86.0817 109.906C85.6225 109.806 85.1747 109.709 84.7507 109.605L84.7204 109.598L84.4636 109.541C84.0744 109.449 83.6823 109.344 83.2778 109.235L83.1255 109.19L83.0776 109.177L82.9575 109.147L82.9299 109.141C82.6252 109.071 82.3112 108.982 82.0002 108.881L81.9416 108.863C81.424 108.722 80.9001 108.558 80.3601 108.388L80.3203 108.376L80.1784 108.336C78.9487 107.932 77.7606 107.486 76.5926 107.018C80.029 103.927 82.8886 100.249 85.0378 96.1575L85.0383 96.1565C88.197 90.4289 90.0324 84.2034 92.1367 79.5535C92.9458 77.5395 94.1005 75.6823 95.5488 74.0658C96.1221 73.4732 96.8012 72.9931 97.551 72.6501C98.3201 72.315 99.1516 72.1472 99.9904 72.1578L100 72.1558L100.01 72.1578C100.849 72.1472 101.68 72.315 102.449 72.65C103.837 73.342 105.001 74.4129 105.805 75.7388C107.521 78.6102 108.926 81.6554 109.999 84.8233C111.389 88.7116 113.048 92.4987 114.962 96.1573L114.962 96.1567C117.193 100.435 120.214 104.252 123.865 107.407C123.395 107.585 122.923 107.762 122.441 107.93L122.414 107.94C122.299 107.983 122.163 108.027 122 108.078L121.95 108.094C121.728 108.174 121.514 108.243 121.293 108.302L121.219 108.324C119.734 108.819 118.203 109.239 116.613 109.612L116.581 109.62C116.388 109.671 116.219 109.715 116.076 109.745L116.054 109.749ZM117.937 128.906C117.818 128.469 117.699 128.019 117.583 127.541C116.707 123.97 116.253 120.309 116.231 116.632C116.236 115.188 116.325 113.745 116.496 112.311C116.532 112.303 116.569 112.298 116.604 112.29V112.29L116.613 112.288L116.626 112.286V112.285C116.841 112.239 117.034 112.189 117.207 112.143V112.143L117.219 112.14L117.239 112.136V112.135C118.878 111.75 120.476 111.313 122.041 110.791L122.041 110.79C122.295 110.72 122.54 110.642 122.779 110.557L122.779 110.558C122.848 110.536 122.939 110.504 123.017 110.478C122.938 111.708 122.884 112.929 122.884 114.124C122.873 117.404 123.176 120.678 123.79 123.901C123.965 124.794 124.17 125.64 124.388 126.462L117.937 128.906ZM125.709 118.977C125.562 117.421 125.484 115.795 125.484 114.124C125.484 113.955 125.495 113.781 125.496 113.612C126.145 115.15 126.89 116.646 127.727 118.091C127.078 118.389 126.405 118.684 125.709 118.977L125.709 118.977ZM131.531 119.314C131.388 119.097 131.246 118.885 131.102 118.658C129.239 115.837 127.797 112.759 126.821 109.523C127.07 109.679 127.307 109.85 127.562 109.999C130.174 111.508 132.998 112.618 135.939 113.29C136.334 113.925 136.726 114.527 137.105 115.085C135.948 115.901 133.579 117.609 131.53 119.314L131.531 119.314ZM170.052 110.351C169.758 110.812 169.345 111.185 168.857 111.432C168.262 111.75 167.598 111.917 166.923 111.918C166.756 111.918 166.59 111.908 166.424 111.887L166.417 111.887C165.802 111.779 165.219 111.536 164.71 111.175C165.151 110.974 165.584 110.766 166.006 110.549C166.23 110.656 166.481 110.694 166.726 110.658C167.057 110.601 167.352 110.418 167.55 110.148C167.748 109.878 167.834 109.541 167.789 109.209L167.798 109.208L167.797 109.183C167.809 108.899 167.907 108.626 168.078 108.399L168.078 108.399C168.163 108.265 168.277 108.153 168.413 108.072C168.497 108.026 168.591 108.003 168.687 108.005C169.027 108.035 169.346 108.184 169.586 108.427C169.911 108.719 170.138 109.105 170.234 109.531L170.251 109.704C170.243 109.934 170.175 110.157 170.052 110.351L170.052 110.351ZM173.55 107.211L173.549 107.214C173.456 107.841 173.176 108.425 172.745 108.89C172.527 107.979 172.042 107.154 171.352 106.521C171.484 106.059 171.588 105.643 171.69 105.319C171.743 105.136 171.811 104.958 171.892 104.786L171.962 104.666L171.98 104.644C172.278 104.393 172.404 104.396 172.43 104.393C172.456 104.396 172.496 104.392 172.622 104.486C172.915 104.755 173.137 105.092 173.269 105.468C173.456 105.93 173.556 106.423 173.566 106.922C173.566 107.019 173.561 107.115 173.55 107.211L173.55 107.211ZM177.194 103.284L177.193 103.29C177.149 104.131 176.864 104.94 176.371 105.622C176.279 105.735 176.18 105.842 176.075 105.942C175.954 105.17 175.697 104.425 175.317 103.742C175.303 103.717 175.282 103.694 175.267 103.669C175.409 103.028 175.502 102.433 175.592 101.963C175.632 101.727 175.685 101.493 175.751 101.262L175.78 101.182C176.045 100.934 176.164 100.933 176.191 100.929C176.255 100.934 176.316 100.959 176.366 100.999C176.613 101.194 176.805 101.45 176.921 101.742C177.105 102.158 177.201 102.608 177.201 103.063L177.194 103.284ZM180.435 86.7272C179.234 90.8635 177.494 94.8241 175.262 98.5074C174.721 98.7001 174.234 99.0193 173.842 99.4384L173.842 99.4388C173.572 99.739 173.376 100.098 173.269 100.487C173.142 100.935 173.042 101.39 172.97 101.85C172.793 101.813 172.611 101.794 172.43 101.793C171.624 101.818 170.855 102.135 170.267 102.687L170.258 102.695C169.972 102.955 169.739 103.267 169.571 103.614C169.36 104.062 169.193 104.528 169.073 105.008C169.032 105.153 168.99 105.291 168.95 105.434C168.862 105.427 168.778 105.405 168.687 105.405C168.158 105.403 167.638 105.535 167.173 105.787C166.678 106.062 166.255 106.451 165.939 106.921C165.732 107.223 165.566 107.551 165.446 107.897C162.16 109.66 158.584 110.82 154.888 111.322L154.875 111.324C153.678 111.515 152.408 111.643 151.055 111.73L151.058 111.73C149.571 111.824 148.147 111.87 146.786 111.87C143.983 111.89 141.184 111.659 138.422 111.179C135.062 110.619 131.83 109.46 128.879 107.758L128.877 107.756C124.064 104.934 120.433 100.675 117.237 94.899L117.237 94.8983C114.242 89.4963 112.432 83.3874 110.23 78.485C109.297 76.1835 107.963 74.0655 106.29 72.2293C105.491 71.4093 104.545 70.7457 103.501 70.2727C102.401 69.7912 101.211 69.5476 100.01 69.5579L100 69.5599L99.9904 69.5579C98.7891 69.5475 97.5991 69.7911 96.4985 70.2727C94.6631 71.1599 93.1171 72.5497 92.04 74.2805C90.2085 77.3136 88.7098 80.5355 87.57 83.8903C86.2219 87.6656 84.6157 91.3436 82.7628 94.8985C79.6444 100.527 76.1139 104.726 71.481 107.55C66.8462 110.37 61.0359 111.865 53.2112 111.868C51.8488 111.868 50.4254 111.822 48.9409 111.73C47.7014 111.652 46.5304 111.535 45.4187 111.363L45.4021 111.361C41.7974 110.898 38.2985 109.822 35.057 108.179C34.9414 107.73 34.7491 107.304 34.4885 106.921C34.1724 106.451 33.7497 106.062 33.2548 105.787C32.7902 105.535 32.2699 105.403 31.7414 105.405C31.6477 105.405 31.5613 105.428 31.4699 105.435C31.3898 105.142 31.3105 104.846 31.2196 104.549C31.1252 104.229 31.0046 103.918 30.8593 103.618C30.6914 103.269 30.4581 102.956 30.1722 102.695L30.1617 102.686C29.5735 102.135 28.8046 101.818 27.9992 101.793C27.8173 101.794 27.6359 101.813 27.4579 101.85C27.4357 101.728 27.4125 101.6 27.3899 101.48C27.3309 101.146 27.2535 100.816 27.158 100.49C27.0536 100.106 26.8629 99.75 26.6005 99.4504L26.5883 99.4376C26.2775 99.1057 25.9103 98.8316 25.5038 98.6279C25.2363 98.5026 24.9514 98.4185 24.6588 98.3785C21.1062 92.7271 19.3038 86.1015 17.7545 80.4019C17.0937 77.7287 16.2608 75.1009 15.2607 72.5352C14.8319 71.483 14.2774 70.4864 13.6095 69.5672C13.152 68.9485 12.5985 68.4069 11.97 67.9629V54.46C15.8118 54.285 20.2403 53.4177 26.0813 52.564C34.607 51.2788 43.2179 50.6416 51.84 50.6579C61.8856 50.6811 71.8644 52.2929 81.4066 55.4335C85.2374 56.6327 88.6058 57.8401 91.6612 58.7616C94.316 59.6568 97.0814 60.1817 99.8795 60.3216C99.8903 60.3218 99.8995 60.3278 99.9103 60.3278C99.9383 60.3278 99.9671 60.3254 99.9953 60.3252C100.024 60.3254 100.052 60.3278 100.08 60.3278C100.091 60.3278 100.1 60.3218 100.111 60.3216C102.91 60.1819 105.677 59.6569 108.333 58.7616C117.486 55.9977 129.541 50.6639 148.16 50.6579C156.781 50.6419 165.39 51.2791 173.915 52.564C179.757 53.4177 184.188 54.285 188.03 54.46V67.9627C187.402 68.4064 186.848 68.9475 186.391 69.5658C185.211 71.2958 184.318 73.2044 183.745 75.2182C182.657 78.5541 181.73 82.5767 180.435 86.7272V86.7272ZM189.385 71.3508C188.911 72.3127 188.618 73.3535 188.519 74.4214V74.4217C188.362 76.108 187.888 82.7008 187.242 89.4387C186.92 92.8035 186.555 96.1983 186.17 99.0033C185.977 100.405 185.78 101.66 185.582 102.68C185.454 103.431 185.268 104.171 185.026 104.893C185.002 104.957 184.978 105.009 184.955 105.066C184.696 104.399 184.491 103.712 184.341 103.012C184.135 102.085 183.975 101.148 183.863 100.205L183.862 100.194L183.862 100.192C183.859 100.158 183.856 100.055 183.856 99.9188C183.856 99.2559 183.92 97.8326 184.025 96.0619C184.34 90.7397 185.019 82.0913 185.364 79.0647C185.363 79.012 185.358 78.9595 185.35 78.9074C185.832 77.0879 186.426 75.3 187.129 73.554C187.476 72.6972 187.924 71.8851 188.464 71.1349C188.819 70.6362 189.279 70.221 189.812 69.9181H190.341C189.965 70.3549 189.644 70.8361 189.385 71.3508L189.385 71.3508ZM193.764 67.3181L190.943 67.3181V54.4928H193.764V67.3181Z"/></g></g></svg>