<svg xmlns="http://www.w3.org/2000/svg" width="200" height="200" fill="none"><path fill="#FFD93A" d="M12.5 126.625c-.686-14.823 5.874-30.375 24.124-32S63.5 112 63.5 112a11.91 11.91 0 0 1 10.125 5c4.25 5.625 3.25 9.625 2.375 13s-4.25 7.5-4.25 7.5l.25 7-6 2.75-4.75-2.375-6.5.875S51.374 150 43 151.125s-29.5-2.875-30.5-24.5ZM54.375 163.25l-.625-2 5.625-2.125 4 .25 2.375-.75.5 5.5L63 165l-8.625-1.75ZM82.874 59.875c-6.26 5.333-6 34.5 29.75 35.125s43.875-35 32.75-38.5-55.75-2.375-62.5 3.375Z"/><path fill="#191C22" d="M82.885 133.335v-.005.005ZM154.456 48.88c-3.491-3.99-8.451-7.216-15.219-9.424-6.772-2.212-15.362-3.426-26.229-3.427-9.66 0-17.519.96-23.903 2.727-9.569 2.639-15.853 7.148-19.656 12.886-3.806 5.736-5.106 12.573-5.106 19.783a40.57 40.57 0 0 0 2.115 13.71 27.06 27.06 0 0 0 5.159 8.837c3.504 3.988 8.473 7.214 15.236 9.423 6.766 2.211 15.335 3.426 26.155 3.426 9.619 0 17.457-.96 23.833-2.726 9.557-2.64 15.856-7.147 19.68-12.884 3.827-5.734 5.153-12.573 5.153-19.786a40.906 40.906 0 0 0-2.091-13.707 26.972 26.972 0 0 0-5.127-8.838ZM74.53 51.675a24.384 24.384 0 0 1 2.672-2.841 1.3 1.3 0 0 1 1.748 1.924c-.863.781-1.66 1.63-2.388 2.54a1.301 1.301 0 0 1-2.032-1.623ZM98.168 41.44a1.3 1.3 0 0 1-1.054 1.506 44.063 44.063 0 0 0-12.56 3.981 1.3 1.3 0 1 1-1.192-2.311 46.628 46.628 0 0 1 13.3-4.23 1.3 1.3 0 0 1 1.506 1.054ZM84.039 70.629v-6.85a1.301 1.301 0 0 1 1.18-1.294c.027-.002 4.242-.392 9.678-.392 2.727 0 5.762.098 8.739.396a1.3 1.3 0 0 1 1.17 1.293v6.462a1.3 1.3 0 0 1-1.141 1.29c-3.71.42-7.44.621-11.174.6-4.18 0-7.22-.207-7.24-.208a1.301 1.301 0 0 1-1.212-1.297Zm25.101 19.395a3.315 3.315 0 0 1-2.749-3.289 3.293 3.293 0 0 1 2.785-3.294c.419-.062.961-.103 1.61-.134.647-.03 1.388-.047 2.144-.047 1.252-.017 2.503.05 3.747.198.326.042.648.115.961.217.615.206 1.164.57 1.594 1.056.483.556.747 1.268.745 2.004a3.13 3.13 0 0 1-.723 2.014 3.296 3.296 0 0 1-1.722 1.079c-.741.159-1.494.258-2.251.296-.895.064-1.908.098-2.88.098a20.795 20.795 0 0 1-3.261-.198Zm13.444-18.098a1.303 1.303 0 0 1-1.212-1.297v-6.85a1.3 1.3 0 0 1 1.181-1.294c.026-.002 4.241-.392 9.677-.392 2.727 0 5.762.098 8.739.396a1.3 1.3 0 0 1 1.17 1.293v6.462a1.3 1.3 0 0 1-1.141 1.29c-3.709.42-7.44.621-11.174.6-4.18 0-7.219-.207-7.24-.208Zm26.432 21.855c-.25.232-.506.46-.769.686a27.952 27.952 0 0 1-3.906 2.795c-.3.179-.605.354-.915.525a1.3 1.3 0 1 1-1.257-2.276c.286-.157.566-.318.839-.481a25.378 25.378 0 0 0 3.546-2.536c.236-.203.466-.409.691-.617a1.3 1.3 0 0 1 1.771 1.904Z"/><path fill="#191C22" d="M180.383 51.071c.935-9.897 2.462-27.748 2.793-32.804.016-.233.023-.459.023-.678a7.128 7.128 0 0 0-.351-2.319 4.64 4.64 0 0 0-1.751-2.364 5.3 5.3 0 0 0-2.45-.87 6.173 6.173 0 0 0-.678-.038 5.104 5.104 0 0 0-3.414 1.229 5.893 5.893 0 0 0-1.833 3.99c-.408 4.227-1.752 20.544-2.621 31.18-.159-.61-.319-1.22-.499-1.82-2.811-9.428-8.229-17.577-17.346-23.268-9.115-5.697-21.829-8.946-39.248-8.947-11.616 0-21.132 1.445-28.892 4.096-11.64 3.965-19.323 10.708-23.982 19.161a46.832 46.832 0 0 0-4.373 11.37c-.867-10.612-2.254-27.465-2.67-31.772a5.895 5.895 0 0 0-1.833-3.99 5.102 5.102 0 0 0-3.413-1.229c-.227 0-.453.013-.678.038a5.01 5.01 0 0 0-3.169 1.487 4.799 4.799 0 0 0-1.033 1.747 7.125 7.125 0 0 0-.35 2.319c0 .22.007.446.022.68v-.002c.332 5.056 1.858 22.907 2.793 32.804.133 2.457.708 4.87 1.699 7.123a7.11 7.11 0 0 0 1.38 1.952 6.434 6.434 0 0 0-1.5 1.64 8.81 8.81 0 0 0-1.012 3.042 24.728 24.728 0 0 0-.324 4.204c.003 1.43.089 2.858.256 4.277.264 2.4.803 4.761 1.606 7.038.309.867.69 1.707 1.137 2.512.348.65.804 1.236 1.349 1.734a9.877 9.877 0 0 0 4.135 1.836c.743.169 1.497.287 2.257.355l.034.118a37.712 37.712 0 0 0 17.435 22.212c7.602 4.442 17.685 7.229 30.864 8.038v2.337a93.415 93.415 0 0 0-4.77.315 41.494 41.494 0 0 0-4.298.603c-1.05.178-2.067.512-3.018.993a13.436 13.436 0 0 0-3.907 3.559c-.028.038-.053.08-.081.118-.045-.032-.079-.062-.127-.095a7.19 7.19 0 0 0-3.136-1.104 8.996 8.996 0 0 0-1.136-.07 13.61 13.61 0 0 0-6.385 1.844 15.212 15.212 0 0 0-3.41-9.328 14.168 14.168 0 0 0-8.744-5.041l-1.47-.234a29.855 29.855 0 0 0-5.505-8.841 26.889 26.889 0 0 0-19.108-9.032 26.01 26.01 0 0 0-.882-.015 27.016 27.016 0 0 0-19.425 8.401 30.726 30.726 0 0 0-8.525 20.418c-.012.358-.018.716-.018 1.072a30.6 30.6 0 0 0 7.768 20.549 26.885 26.885 0 0 0 19.107 9.032 26.29 26.29 0 0 0 11.7-2.318c-.01.212-.015.427-.016.648a31.009 31.009 0 0 0 1.258 8.078c.17.547.451 1.054.826 1.488.366.416.82.748 1.326.972-.084.263-.13.537-.134.814 0 .656.248 1.288.694 1.77.473.49 1.083.827 1.75.966l.054.011 7.83 1.503c.165.031.334.031.499-.001l3.275-.65a1.31 1.31 0 0 0 .827-.553 1.302 1.302 0 0 0 .195-.975c-.001-.007-.006-.011-.007-.017 0-.012.005-.022.004-.034l-.009-.151a10.674 10.674 0 0 0 9.104-8.353 13.967 13.967 0 0 0 1.925-1.812c.872-.993 2.243-2.811 3.773-5.016.421-.607.853-1.246 1.287-1.899a142.098 142.098 0 0 0-1 17.302c-.022 5.166.251 10.329.818 15.464.225 2.011.553 4.009.983 5.986.293 1.461.763 2.88 1.4 4.226a1.287 1.287 0 0 0 1.695.582 1.29 1.29 0 0 0 .644-1.672c-.015-.036-.014-.075-.032-.111a15.88 15.88 0 0 1-1.171-3.6c-.57-2.703-.97-5.44-1.194-8.194.381.11.767.218 1.166.319.006.002.01.006.017.008.017.004.033.004.05.008l.01.003v.001l.018.003a72.02 72.02 0 0 0 9.896 1.649c5.23.514 10.483.761 15.739.74 6.712.016 13.42-.343 20.092-1.074l.025-.002.001-.001h.011l.003-.001.121-.014a69.806 69.806 0 0 0 7.329-1.198c.87-.193 1.728-.44 2.569-.738l.02-.009c-.075 3.901-.275 7.589-.621 10.867a78.678 78.678 0 0 1-.19 1.65 1.31 1.31 0 0 0 .262.959 1.305 1.305 0 0 0 1.371.458 1.302 1.302 0 0 0 .946-1.091c.622-5.433.911-10.899.868-16.368-.001-7.333-.404-15.157-1.097-22.423.517 1.042.951 1.894 1.236 2.464a9.091 9.091 0 0 0 3.86 3.997 10.533 10.533 0 0 0 4.974 1.206 10.958 10.958 0 0 0 5.436-1.4 8.275 8.275 0 0 0 3.34-3.52c.43-.9.714-1.864.842-2.853a12.127 12.127 0 0 0 2.776-3.32 34.812 34.812 0 0 0 2.276-4.94 14.604 14.604 0 0 0 1.062-5.33 10.308 10.308 0 0 0-1.628-5.736 9.167 9.167 0 0 0-1.058-1.314l.086-.794c.087-.824.172-1.589.268-2.223.058-.466.161-.927.307-1.374a5.817 5.817 0 0 0 .411-2.122 7.316 7.316 0 0 0-.295-1.928 4.503 4.503 0 0 1-.208-.98v-.022c.014-.477.143-1.638.286-2.776.142-1.151.296-2.306.364-2.968.056-.547.286-2.058.499-3.506.107-.729.21-1.451.287-2.06.039-.305.071-.582.095-.823.023-.245.039-.442.04-.645a1.765 1.765 0 0 0-.23-.884 1.721 1.721 0 0 0-.46-.516 1.95 1.95 0 0 0-.738-.332 2.805 2.805 0 0 0-.613-.064 5.63 5.63 0 0 0-1.359.2 8.296 8.296 0 0 0-.895.283 3.015 3.015 0 0 0-.806.496 7.67 7.67 0 0 0-2.269 4.605c-.386 2.003-.744 4-.949 5.161a36.096 36.096 0 0 0-1.654-.72 15.908 15.908 0 0 0-1.44-.509 4.885 4.885 0 0 0-1.324-.229 2.083 2.083 0 0 0-.67.101l-.001.001a10.965 10.965 0 0 0-1.995-1.513 3.1 3.1 0 0 0-1.558-.394c-.734.007-1.454.2-2.093.56a3.194 3.194 0 0 0-.835.663 2.194 2.194 0 0 0-.341.522 1.8 1.8 0 0 0-.169.754c0 .143.018.286.054.425.057.21.138.412.241.604.347.616.744 1.203 1.187 1.754.148.191.279.355.397.501-.04.053-.085.101-.123.159a1.86 1.86 0 0 0-.299.717c-.017.1-.026.202-.026.304.003.213.034.426.093.631.174.541.418 1.058.725 1.536.144.236.271.429.36.561a7.493 7.493 0 0 0-.847 2.255 2.128 2.128 0 0 0-.028.347c0 .018.005.032.006.049a13.686 13.686 0 0 0-6.955-2.072c-.327 0-.656.014-.986.043a6.309 6.309 0 0 0-2.447.686c-.367.2-.707.448-1.011.736-.157-.37-.317-.723-.484-1.044a7.919 7.919 0 0 0-.908-1.41 3.626 3.626 0 0 0-1.215-.995 9.936 9.936 0 0 0-1.744-.595 66.542 66.542 0 0 0-10.298-1.385c-.745-.056-1.527-.102-2.303-.149v-2.671a83.516 83.516 0 0 0 18.956-3.407c11.613-3.671 19.329-9.974 24.027-18.084a42.216 42.216 0 0 0 3.822-8.893c.194.098.41.145.627.135a16.674 16.674 0 0 0 2.331-.36 9.876 9.876 0 0 0 4.135-1.837 6.51 6.51 0 0 0 1.348-1.733 19.39 19.39 0 0 0 1.64-4.043c.522-1.802.89-3.644 1.102-5.508.168-1.42.253-2.848.257-4.278a24.753 24.753 0 0 0-.325-4.202 8.805 8.805 0 0 0-1.011-3.041 6.945 6.945 0 0 0-2.113-2.086c-.013-.009-.027-.015-.041-.024a8.348 8.348 0 0 0 1.652-2.86 23.511 23.511 0 0 0 1.144-5.746Zm-132.364-.245c-.932-9.863-2.46-27.747-2.787-32.73v-.001a7.56 7.56 0 0 1-.018-.506c-.011-.5.06-.999.21-1.476.13-.431.401-.807.77-1.068.378-.243.81-.39 1.258-.425a3.56 3.56 0 0 1 .393-.022 2.505 2.505 0 0 1 1.694.579c.606.61.952 1.43.964 2.29.306 3.168 1.155 13.338 1.926 22.698a14596.09 14596.09 0 0 1 1.438 17.594c-.787.187-1.561.426-2.316.716-.197.076-.405.178-.61.267a3.543 3.543 0 0 1-1.487-1.711 18.012 18.012 0 0 1-1.435-6.205Zm6.504 33.02a7.2 7.2 0 0 1-2.82-1.236 4.117 4.117 0 0 1-.774-1.042 16.835 16.835 0 0 1-1.403-3.487 30.73 30.73 0 0 1-1.014-5.074 34.56 34.56 0 0 1-.24-3.975 22.194 22.194 0 0 1 .286-3.754c.098-.74.322-1.459.663-2.123.349-.519.805-.957 1.336-1.286.894-.56 1.86-.996 2.871-1.296.21-.065.404-.12.581-.168a91.065 91.065 0 0 0-.227 6.485 71.43 71.43 0 0 0 1.885 17.182 14.466 14.466 0 0 1-1.144-.227Zm11.985 39.984v-.001a31.42 31.42 0 0 0-1.27-9.992l.088.014c2.807.45 5.35 1.918 7.144 4.124a12.63 12.63 0 0 1 2.834 8.04c0 .609-.041 1.217-.124 1.82a12.656 12.656 0 0 1-4.205 7.919c-.14.124-.251.277-.326.448l-6.484-1.431a31.43 31.43 0 0 0 2.343-10.941Zm2.265 27.637v.019a.73.73 0 0 1-.149.126 2.477 2.477 0 0 1-.661.3 2.87 2.87 0 0 1-.215.056 7.215 7.215 0 0 1-.31-1.282 23.125 23.125 0 0 1-.24-2.372c-.006-.091-.009-.168-.013-.251.217-.077.449-.158.668-.229l.028-.009.03.074a16.9 16.9 0 0 1 .597 1.952c.142.529.231 1.07.265 1.616Zm.42-6.733c-.208.07-.39.124-.517.16l-.145.039-.034.009-.006.001a1.26 1.26 0 0 0-.234.109c-.11.013-.206.03-.301.049-.547.139-1.087.307-1.616.503-.153.054-.291.105-.419.152a6.839 6.839 0 0 0-.525-.421c-.592-.415-1.22-.78-1.873-1.089a11.634 11.634 0 0 0-1.726-.686 9.78 9.78 0 0 0-2.63-.348c-.076 0-.158.006-.236.007a29.979 29.979 0 0 0 4.113-6.033l7.478 1.651c.062.556.13 1.214.192 1.89l.042.492-3.964-.76a1.292 1.292 0 0 0-.975.2 1.31 1.31 0 0 0-.547.831 1.304 1.304 0 0 0 .562 1.331c.142.094.302.159.47.191l4.543.872a1.546 1.546 0 0 1-.357.277 6.81 6.81 0 0 1-1.295.573Zm-30.635 5.314c-.264 0-.53-.005-.796-.013a24.28 24.28 0 0 1-17.264-8.176 28.006 28.006 0 0 1-7.097-18.807c0-.327.006-.656.017-.985a28.13 28.13 0 0 1 7.793-18.696 24.422 24.422 0 0 1 17.558-7.61c.265 0 .53.005.795.013a24.287 24.287 0 0 1 17.265 8.177 28 28 0 0 1 7.097 18.806c0 .327-.006.656-.016.986a28.132 28.132 0 0 1-7.794 18.695 24.424 24.424 0 0 1-17.558 7.61Zm13.775 4.86a25.315 25.315 0 0 1-.373-3.945 6.578 6.578 0 0 1 .213-1.908c.015-.073.024-.146.027-.22a28.06 28.06 0 0 0 1.856-1.211c.267-.011.524-.106.733-.272a6.729 6.729 0 0 1 4.377-1.54 7.248 7.248 0 0 1 1.916.248c.745.246 1.462.569 2.14.965.334.187.65.405.946.649.068.057.131.12.188.187.018.096.028.194.027.292a4.075 4.075 0 0 1-.053.586 33.25 33.25 0 0 0-1.52-.419 25.547 25.547 0 0 0-1.4-.311 6.72 6.72 0 0 0-1.149-.141 1.78 1.78 0 0 0-.538.074c-.01.004-.127.035-.272.071-.525.129-1.545.357-2.42.549-.876.193-1.613.351-1.615.352a1.302 1.302 0 0 0-1.005 1.037 1.3 1.3 0 0 0 1.552 1.505c.001-.001.971-.209 2.012-.44.52-.115 1.059-.235 1.505-.338a52.404 52.404 0 0 0 .846-.205c.052.004.127.011.23.027.892.155 1.774.361 2.642.615.475.136.92.277 1.248.397.129.047.23.088.311.123.021.055.039.112.052.169.04.169.06.341.06.514.002.221-.034.44-.108.647-.06.173-.164.327-.3.448-.04.044-.075.09-.107.139-.35-.096-.782-.212-1.24-.33a42.239 42.239 0 0 0-1.591-.382c-.25-.054-.483-.099-.699-.134a4.085 4.085 0 0 0-.643-.063 7.892 7.892 0 0 0-1.117.113c-1.207.187-2.778.541-2.792.543a1.3 1.3 0 0 0 .568 2.538 54.318 54.318 0 0 1 2.057-.417c.294-.053.58-.099.815-.131.154-.024.31-.039.465-.046.095.008.19.021.284.038.561.094 1.581.345 2.422.568a79.835 79.835 0 0 1 1.31.356c.024.218.036.437.037.656 0 .163-.008.309-.017.4l-.002.014a1.5 1.5 0 0 1-.598.669c-.16.096-.341.154-.528.17-.013 0-.127-.004-.268-.013-.512-.032-1.483-.116-2.31-.192-.83-.076-1.524-.143-1.525-.143-.207-.02-.416.01-.609.087l-3.235 1.294c-.022.007-.045.004-.067.012-.065.027-.123.06-.186.089l-.091.036a2.045 2.045 0 0 1-1.024-.185 1.19 1.19 0 0 1-.37-.283 1.573 1.573 0 0 1-.306-.571 25.384 25.384 0 0 1-.761-3.337Zm10.873 9.056-7.54-1.447a.865.865 0 0 1-.422-.192l-.008-.01a.508.508 0 0 1 .135-.277c.161-.179.36-.322.58-.417l3.095-1.237c.35.033.952.09 1.59.147.494.045 1.008.089 1.44.123.217.017.413.031.579.042.17.01.297.017.43.018a3.745 3.745 0 0 0 1.818-.514l.205 3.387-1.902.377Zm8.918-4.653a8.05 8.05 0 0 1-4.532 2.27l-.422-6.985c.078.006.162.02.234.02.357-.005.711-.054 1.056-.145a5.119 5.119 0 0 0 1.677-.744c.297-.205.558-.459.77-.751.252-.348.408-.756.451-1.183v-.002c.01-.11.015-.217.015-.324a8.684 8.684 0 0 0-.215-1.686 19.82 19.82 0 0 0-.762-2.659l-.02-.051c.16-.059.327-.125.499-.199a8.076 8.076 0 0 1 1.25 12.439h-.001Zm8.29-11.789c-1.395 2.013-2.677 3.711-3.439 4.604a10.651 10.651 0 0 0-3.916-6.871c.195-.288.323-.617.373-.961a6.68 6.68 0 0 0 .044-.852c-.001-1.097-.138-2.651-.272-3.972-.088-.872-.176-1.622-.226-2.037a15.22 15.22 0 0 0 4.662-8.603c.72-.478 1.472-.908 2.25-1.285a10.345 10.345 0 0 1 4.383-1.137c.27-.001.541.016.81.05a4.586 4.586 0 0 1 2.015.685c.078.052.137.099.192.143-.149.285-.282.582-.416.88-.016.004-.032 0-.048.005a5.626 5.626 0 0 0-3.941 5.163l-.004.211a5.625 5.625 0 0 0 2.087 4.373c.059.037.12.069.184.096-.07.869-.155 1.709-.27 2.494-.003.007-.01.01-.014.017v-.001c-1.334 2.332-2.964 4.849-4.454 6.998Zm87.374-10.385a12.022 12.022 0 0 1-.879 4.371 23.775 23.775 0 0 1-2.985 5.883 7.162 7.162 0 0 1-2.174 1.911 6.11 6.11 0 0 1-3.002.723c-.232 0-.474-.011-.725-.032a8.54 8.54 0 0 1-3.41-.937 5.823 5.823 0 0 1-2.627-2.975 11.305 11.305 0 0 1-.75-4.332c.061-2.728.556-5.43 1.468-8.002a6.142 6.142 0 0 1 2.616-3.144l.083.02a8.387 8.387 0 0 0-.354 2.296c.002.39.037.779.104 1.162a5.8 5.8 0 1 0 11.217 2.73l-.057-.008v-.001l.057.008c.009-.059.006-.118.013-.177.288-.687.512-1.399.668-2.127.043-.191.075-.391.113-.586a8.202 8.202 0 0 1 .624 3.217Zm-3.543-20.78c.206-1.15.486-2.684.78-4.211.141-.945.478-1.85.988-2.657.111-.164.243-.313.392-.443l.102-.074.008-.005c.189-.07.381-.13.576-.18l.066-.015c-.091.746-.241 1.785-.389 2.787-.188 1.27-.368 2.459-.433 3.074-.06.585-.215 1.756-.359 2.915-.06.493-.117.971-.167 1.422a92.105 92.105 0 0 0-1.854-.97c.056-.319.157-.898.29-1.643Zm-6.542 1.726c.78.247 1.543.544 2.285.889a71.045 71.045 0 0 1 3.904 1.923 104.574 104.574 0 0 1 1.897 1.026c.026.014.054.013.08.025l.097.367c.125.409.195.833.208 1.261a3.205 3.205 0 0 1-.236 1.184 12.08 12.08 0 0 0-.554 2.66c-.192 1.523-.336 3.328-.585 4.966-.107.757-.26 1.507-.458 2.245a5.745 5.745 0 0 1-.619 1.517 1.694 1.694 0 0 1-.739.64 2.682 2.682 0 0 1-1.118.216 4.974 4.974 0 0 1-2.077-.5 3.27 3.27 0 0 1-1.3-1.004 5.562 5.562 0 0 1-.524-.95 4.211 4.211 0 0 1-.315-1.629 6.65 6.65 0 0 1 .74-2.877c.017-.037.015-.076.029-.114.129-.113.247-.237.354-.372l.002.002.835-1.018a1.27 1.27 0 0 0 .25-.545 1.283 1.283 0 0 0-.294-1.5l-1.833-1.652a1.298 1.298 0 0 0-1.836.095 1.302 1.302 0 0 0 .095 1.836l.98.883-.207.251-.026.033-.165.121a.904.904 0 0 1-.318.049c-.082 0-.164-.007-.245-.021a14.748 14.748 0 0 1-1.28-1.089 6.313 6.313 0 0 1-.771-.87 1.71 1.71 0 0 1-.168-.29 5.846 5.846 0 0 1 .756-1.728 4.765 4.765 0 0 1 1.242-1.406c.074-.011.149-.016.223-.015.461.017.919.08 1.368.186.824.188 1.638.418 2.438.69.35.117.647.222.854.297l.239.089.079.03a1.3 1.3 0 0 0 .937-2.426c-.019-.007-.934-.36-2.109-.72a23.784 23.784 0 0 0-1.89-.501 9.43 9.43 0 0 0-1.916-.245 3.884 3.884 0 0 0-.73.063c-.28.05-.548.15-.793.294-.267.17-.518.363-.75.578a4.595 4.595 0 0 1-.173-.341c.11-.121.257-.272.427-.431a17.935 17.935 0 0 1 1.777-1.454c.316-.226.624-.429.891-.584a3.89 3.89 0 0 1 .508-.255c.181.026.36.067.534.12v.001Zm-4.822-1.931a.553.553 0 0 1 .257.045c.32.19.626.404.914.641-.294.217-.583.442-.862.671a24.15 24.15 0 0 1-.529-.69c-.14-.189-.267-.374-.378-.544.19-.076.393-.118.598-.123Zm-11.704 11.439c.216-.313.506-.569.843-.746.451-.227.945-.36 1.449-.39.253-.023.506-.034.759-.033a12.624 12.624 0 0 1 7.847 3.264l.119.105a8.617 8.617 0 0 0-1.931 3.061 28.093 28.093 0 0 0-1.627 8.897c-.039 1.859.3 3.706.996 5.43a5.808 5.808 0 0 0 1.39 4.582 5.796 5.796 0 0 0 4.362 1.976 5.768 5.768 0 0 0 3.372-1.112 9.243 9.243 0 0 0 2.392-.311c-.018.037-.03.079-.048.116a5.65 5.65 0 0 1-2.315 2.422 8.382 8.382 0 0 1-4.129 1.048 7.927 7.927 0 0 1-3.743-.896 6.476 6.476 0 0 1-2.766-2.87c-.824-1.646-2.756-5.373-4.481-9.555a58.756 58.756 0 0 1-2.255-6.367 21.755 21.755 0 0 1-.943-5.627 5.234 5.234 0 0 1 .709-2.994Zm-8.502-4.266c.817.139 1.53.287 2.109.436.437.103.864.245 1.276.425.128.08.241.184.331.306a8.768 8.768 0 0 1 1.189 2.262c.066.166.131.348.197.528a1.268 1.268 0 0 0-.49.24 4.88 4.88 0 0 0-1.496 2.222 7.487 7.487 0 0 0-.377 2.422 8.92 8.92 0 0 0 .31 2.349 9.075 9.075 0 0 0 1.372 2.814 6.191 6.191 0 0 0 2.501 2.127c.038.016.077.013.116.026a68.966 68.966 0 0 0 1.381 3.651 236.882 236.882 0 0 1 1.989 30.124c0 .22-.003.436-.004.655-.301.178-.62.324-.95.438a28.517 28.517 0 0 1-4.555 1.109 83.906 83.906 0 0 1-4.857.697l-.046.004c-.652.07-1.306.105-1.961.105-4.497.003-8.392-1.641-12.339-3.398-1.971-.875-3.948-1.771-6.016-2.459a20.574 20.574 0 0 0-6.543-1.164 19.102 19.102 0 0 0-10.161 3.074c-1.266.74-2.387 1.444-3.444 1.937a7.183 7.183 0 0 1-3.094.782 5.667 5.667 0 0 1-.597-.034l-.312-.049-.398-.066-.05-.009a33.851 33.851 0 0 1-1.997-.576 147.44 147.44 0 0 1-.322-9.897c-.075-7.512.54-15.016 1.837-22.415a49.99 49.99 0 0 0 .629-5.896c.062-1.679.277-3.35.642-4.99a13.85 13.85 0 0 1 2.281-4.577 10.876 10.876 0 0 1 3.124-2.87 8.422 8.422 0 0 1 2.25-.704 44.873 44.873 0 0 1 5.307-.671c.059.085.127.162.205.23a18.058 18.058 0 0 0 11.872 4.361 20.797 20.797 0 0 0 7.17-1.301 15.762 15.762 0 0 0 4.965-2.834 1.25 1.25 0 0 0 .175-.21c.269.022.545.043.807.066 2.29.204 4.34.451 5.974.73Zm18.147-16.456c-8.559 5.01-20.769 7.936-37.814 7.934-11.36.001-20.58-1.298-27.994-3.65-11.124-3.539-18.178-9.377-22.564-16.911-4.382-7.538-6.07-16.875-6.068-27.352a68.5 68.5 0 0 1 2.523-19.568c2.69-8.958 7.684-16.453 16.234-21.809 8.553-5.35 20.762-8.552 37.869-8.55 11.402-.001 20.636 1.42 28.052 3.955 11.125 3.812 18.17 10.06 22.546 17.959 4.37 7.9 6.03 17.535 6.028 28.013a64.915 64.915 0 0 1-2.547 19.239 35.073 35.073 0 0 1-16.265 20.74Zm27.369-41.592c.202 1.24.297 2.496.286 3.753a34.784 34.784 0 0 1-.24 3.978 28.906 28.906 0 0 1-1.464 6.446c-.259.73-.577 1.437-.952 2.114a4.12 4.12 0 0 1-.773 1.042 7.503 7.503 0 0 1-3.026 1.283 15.082 15.082 0 0 1-1.69.28 71.352 71.352 0 0 0 1.902-17.283c0-2.257-.082-4.48-.246-6.668.817.176 1.619.42 2.397.726a9.904 9.904 0 0 1 1.862.958c.51.322.947.748 1.282 1.248.341.665.565 1.383.662 2.123Zm-1.823-8.362c-.214.437-.5.834-.846 1.175-.137.13-.288.244-.449.341a18.83 18.83 0 0 0-.978-.34 16.28 16.28 0 0 0-1.799-.459 1.25 1.25 0 0 0-.339.008l.406-5c.809-9.93 2.487-30.414 2.947-35.173a3.31 3.31 0 0 1 .965-2.29 2.504 2.504 0 0 1 1.694-.579c.131 0 .262.008.393.022a2.426 2.426 0 0 1 1.558.683c.212.233.372.51.469.81.15.477.222.976.21 1.476 0 .16-.005.329-.017.508-.326 4.982-1.855 22.866-2.787 32.73-.096 2.1-.58 4.164-1.427 6.088Z"/><path fill="#191C22" d="m150.898 120.217.002-.006v-.006l-.002.012ZM62.143 123.684c.01-.301.015-.602.015-.902a25.783 25.783 0 0 0-6.545-17.314 22.688 22.688 0 0 0-16.118-7.617 22.026 22.026 0 0 0-.743-.013 22.786 22.786 0 0 0-16.385 7.085 25.887 25.887 0 0 0-7.184 17.202c-.01.302-.015.603-.015.903a25.787 25.787 0 0 0 6.546 17.314 22.683 22.683 0 0 0 16.117 7.617c.248.008.496.012.743.012a22.779 22.779 0 0 0 16.385-7.084 25.89 25.89 0 0 0 7.184-17.202v-.001Zm-2.599-.086a23.29 23.29 0 0 1-6.452 15.479 20.175 20.175 0 0 1-14.518 6.294c-.218 0-.437-.003-.657-.011a20.072 20.072 0 0 1-14.274-6.761 23.187 23.187 0 0 1-5.875-15.571c0-.272.005-.544.014-.816a23.29 23.29 0 0 1 6.452-15.48 20.188 20.188 0 0 1 14.517-6.294c.219 0 .438.004.657.011a20.07 20.07 0 0 1 14.275 6.762 23.183 23.183 0 0 1 5.875 15.571c0 .271-.005.543-.014.816Z"/><path fill="#191C22" d="M47.437 114.356c-.115 0-.23.003-.346.008a45.788 45.788 0 0 0-5.604.77c-.988.186-1.93.383-2.716.567-.394.092-.748.18-1.054.264a9.409 9.409 0 0 0-.788.246c-.034.012-.056.039-.087.054a6.508 6.508 0 0 0-2.746 1.695 7.116 7.116 0 0 0-1.978 4.726l-.005.248a7.093 7.093 0 0 0 1.805 4.761c.306.339.648.644 1.018.912.011.013.015.03.027.043.226.229.472.438.735.623a28.498 28.498 0 0 0 4.668 2.625 18.802 18.802 0 0 0 6.148 1.788 9 9 0 0 0 .518.016 8.585 8.585 0 0 0 6.26-2.797 10.109 10.109 0 0 0 2.694-6.923 10.326 10.326 0 0 0-2.404-6.653 8.08 8.08 0 0 0-6.145-2.973Zm-12.724 8.578.003-.157v-.004a4.514 4.514 0 0 1 1.247-3.003 3.772 3.772 0 0 1 2.722-1.188l.12.002a3.76 3.76 0 0 1 2.676 1.273 4.493 4.493 0 0 1 1.134 3.019l-.003.16a4.518 4.518 0 0 1-1.247 3.004 3.784 3.784 0 0 1-2.722 1.187l-.124-.002a3.75 3.75 0 0 1-2.672-1.273 4.493 4.493 0 0 1-1.134-3.018Zm18.67 1.308a7.515 7.515 0 0 1-1.988 4.885 5.98 5.98 0 0 1-4.363 1.975c-.117 0-.236-.004-.355-.011a11.877 11.877 0 0 1-2.879-.629 25.073 25.073 0 0 1-2.754-1.122 6.531 6.531 0 0 0 2.188-1.491 7.116 7.116 0 0 0 1.979-4.727v-.003l.004-.243a7.093 7.093 0 0 0-1.805-4.762 6.628 6.628 0 0 0-.6-.578 38.765 38.765 0 0 1 4.399-.574l.228-.005a5.457 5.457 0 0 1 4.164 2.056 7.74 7.74 0 0 1 1.785 4.969l-.004.26Z"/></svg>