<svg width="200" height="200" viewBox="0 0 200 200" xmlns="http://www.w3.org/2000/svg"><g id="type=help, mode=dark"><g id="Layer 16"><path id="Vector" d="M51.4175 119.831C51.2723 119.741 51.1108 119.681 50.9423 119.654C50.7738 119.627 50.6016 119.633 50.4354 119.672C50.2693 119.711 50.1125 119.783 49.9741 119.883C49.8356 119.983 49.7182 120.109 49.6285 120.254C48.7197 121.706 47.7067 123.09 46.5977 124.395C46.0213 124.063 45.3689 123.885 44.7037 123.879C44.1423 123.885 43.5876 124.002 43.0714 124.222C42.4431 124.501 41.8516 124.855 41.3102 125.278C41.0948 124.934 40.8297 124.521 40.5343 124.09C40.3651 123.844 40.1849 123.619 40.0091 123.386C41.1507 122.496 42.1785 121.469 43.0694 120.329C44.9989 117.843 46.3822 114.977 47.129 111.92C47.2235 111.528 47.405 111.162 47.6601 110.85C47.9152 110.537 48.2373 110.286 48.6026 110.115C48.757 110.042 48.8956 109.94 49.0103 109.813C49.1251 109.687 49.2138 109.539 49.2715 109.379C49.3291 109.218 49.3546 109.048 49.3464 108.877C49.3382 108.707 49.2964 108.539 49.2236 108.385C49.1508 108.231 49.0482 108.092 48.9218 107.977C48.7955 107.862 48.6477 107.774 48.487 107.716C48.3264 107.658 48.1559 107.633 47.9854 107.641C47.8149 107.649 47.6477 107.691 47.4933 107.764L47.493 107.764C46.7764 108.101 46.1447 108.595 45.6442 109.208C45.1438 109.822 44.7875 110.54 44.6017 111.31C43.9419 114.002 42.7246 116.526 41.0284 118.718L41.0267 118.72C40.2427 119.729 39.3329 120.633 38.3194 121.41C37.7343 120.809 37.103 120.255 36.4312 119.753C35.7646 119.254 35.0417 118.835 34.2774 118.506C33.5963 118.204 32.8625 118.04 32.1179 118.023C31.6298 118.018 31.1461 118.116 30.6987 118.311C29.6565 118.786 28.7153 119.457 27.9263 120.288C27.709 120.521 27.508 120.768 27.3247 121.029C27.2473 121.029 27.17 121.037 27.094 121.052L27.0938 121.052C26.0029 121.359 24.9483 121.783 23.9483 122.316C22.9533 122.866 22.1089 123.652 21.4893 124.605C21.1373 125.117 20.942 125.72 20.9275 126.341C20.9275 126.851 21.0801 127.349 21.3657 127.771C21.4116 127.838 21.4658 127.892 21.5151 127.953C21.2393 128.243 20.9763 128.531 20.7446 128.826C20.4841 129.151 20.2628 129.506 20.0852 129.883C19.8946 130.289 19.7936 130.731 19.7891 131.179C19.7988 131.837 20.0221 132.475 20.4255 132.994C20.7152 133.39 21.1018 133.705 21.5481 133.909C21.9535 134.089 22.3929 134.181 22.8367 134.177C23.5564 134.152 24.2609 133.963 24.897 133.625C25.5331 133.288 26.0842 132.81 26.5085 132.228C26.7488 132.534 27.0062 132.826 27.2793 133.104C27.8091 133.647 28.4152 134.111 29.0786 134.48C29.8624 134.917 30.7436 135.151 31.6411 135.159C32.2208 135.157 32.7959 135.058 33.3423 134.864C33.4386 134.83 33.5403 134.813 33.6426 134.814C33.8473 134.821 34.0499 134.858 34.2444 134.923C35.4679 135.448 36.7716 135.762 38.1001 135.852C38.5357 135.851 38.9703 135.809 39.3977 135.725C40.2458 135.572 41.0359 135.19 41.6824 134.62C42.3177 133.982 42.8636 133.261 43.3049 132.476C43.4409 132.258 43.6052 132.06 43.7935 131.886C43.9388 131.759 44.1138 131.67 44.3023 131.628C45.4498 131.395 46.5124 130.854 47.376 130.063C47.7261 129.733 48.0064 129.335 48.2003 128.895C48.3943 128.454 48.4979 127.979 48.5051 127.497C48.5023 127.116 48.4344 126.738 48.3045 126.379C48.3262 126.357 48.355 126.347 48.3755 126.324L48.3752 126.324C49.6494 124.847 50.8078 123.275 51.8403 121.62C51.93 121.475 51.9903 121.314 52.0176 121.145C52.0449 120.977 52.0387 120.804 51.9995 120.638C51.9602 120.472 51.8886 120.315 51.7888 120.177C51.6889 120.038 51.5628 119.921 51.4175 119.831ZM25.2349 124.575C25.6555 124.343 26.0937 124.145 26.5455 123.982C26.5885 124.183 26.6539 124.379 26.7405 124.565C26.8663 124.833 27.0218 125.086 27.2042 125.32C26.6806 125.798 26.1004 126.21 25.4766 126.547C25.2379 126.656 24.9776 126.708 24.7156 126.7C24.3566 126.707 24.0018 126.622 23.6846 126.453C23.6258 126.421 23.5735 126.379 23.5303 126.328C23.5514 126.215 23.5996 126.11 23.6707 126.02C24.0629 125.415 24.6008 124.918 25.2349 124.575ZM23.7481 131.29C23.4724 131.459 23.1594 131.557 22.8367 131.577C22.7636 131.58 22.6906 131.568 22.6226 131.541L22.5164 131.449C22.3802 131.255 22.3941 131.217 22.389 131.179C22.3945 131.102 22.4162 131.026 22.4527 130.958C22.6238 130.633 22.8396 130.334 23.0938 130.069C23.3155 129.819 23.5992 129.531 23.9061 129.226C24.1735 129.272 24.4442 129.297 24.7156 129.3C24.8121 129.3 24.9092 129.291 25.0062 129.286C24.8491 129.784 24.6453 130.266 24.3975 130.726C24.2261 130.96 24.0042 131.153 23.7481 131.29ZM45.5489 128.214C45.0195 128.669 44.3784 128.975 43.6915 129.101C42.9309 129.284 42.2443 129.695 41.7235 130.279C41.4232 130.62 41.154 130.988 40.919 131.377C40.6747 131.81 40.3838 132.216 40.0516 132.586C39.7404 132.899 39.3372 133.105 38.901 133.173C38.6372 133.225 38.369 133.251 38.1002 133.252C37.406 133.228 36.7219 133.079 36.0812 132.811C35.7379 132.687 35.38 132.548 34.9821 132.429C34.5484 132.293 34.0972 132.22 33.6427 132.214C33.2474 132.213 32.8548 132.279 32.4818 132.411C32.2121 132.507 31.9278 132.558 31.6412 132.559C31.1764 132.551 30.7211 132.425 30.3177 132.194C29.6777 131.82 29.1133 131.33 28.6534 130.749C28.4838 130.543 28.3247 130.329 28.1766 130.106L28.0592 129.923L28.034 129.881L28.0299 129.874L28.0294 129.874C27.9404 129.719 27.8202 129.584 27.6764 129.478C27.8881 128.786 28.0138 128.263 28.0192 128.244C28.0306 128.162 28.0338 128.079 28.0287 127.997C28.5778 127.594 29.0909 127.145 29.5624 126.654C29.7129 126.67 29.8643 126.679 30.0157 126.679C31.0611 126.639 32.0819 126.35 32.9933 125.836C33.3883 125.628 33.7681 125.392 34.13 125.13C34.4293 124.917 34.7092 124.679 34.9662 124.417C35.2034 124.167 35.3316 123.833 35.3226 123.488C35.3136 123.144 35.1681 122.817 34.9182 122.58C34.6683 122.342 34.3344 122.214 33.9898 122.223C33.6453 122.231 33.3184 122.377 33.0809 122.627L33.0807 122.626C32.9328 122.773 32.773 122.906 32.6029 123.026C32.1999 123.317 31.7662 123.564 31.3097 123.761C30.9028 123.949 30.4635 124.057 30.0158 124.079C29.8329 124.088 29.6512 124.046 29.4904 123.958C29.3118 123.84 29.1746 123.668 29.0978 123.468L29.0772 123.363C29.0907 123.186 29.1443 123.015 29.2339 122.863C29.4967 122.404 29.8406 121.996 30.2488 121.659C30.7043 121.264 31.2135 120.936 31.7612 120.684C31.8745 120.639 31.9961 120.618 32.1179 120.623C32.5181 120.642 32.911 120.738 33.2752 120.905C34.1924 121.321 35.037 121.881 35.7766 122.565C36.7653 123.454 37.6426 124.46 38.3894 125.56C38.6387 125.924 38.8574 126.265 39.0496 126.571L39.0125 126.578C38.1159 126.678 37.2311 126.864 36.3701 127.134C35.8216 127.332 35.3197 127.642 34.8955 128.042C34.4137 128.514 34.0558 129.098 33.8538 129.741C33.8002 129.904 33.7791 130.075 33.7918 130.245C33.8044 130.416 33.8506 130.582 33.9275 130.734C34.0045 130.887 34.1108 131.023 34.2403 131.134C34.3699 131.246 34.5201 131.331 34.6825 131.384C34.8448 131.437 35.0161 131.458 35.1865 131.445C35.3569 131.432 35.5231 131.386 35.6755 131.309C35.828 131.232 35.9637 131.125 36.075 130.995C36.1863 130.866 36.2709 130.715 36.324 130.553L36.3237 130.553C36.407 130.243 36.5958 129.971 36.8574 129.785C37.0752 129.643 37.3153 129.538 37.5676 129.476C38.1219 129.345 38.6827 129.245 39.2478 129.175C39.9693 129.094 40.667 128.867 41.2986 128.509C42.013 128.051 42.636 127.497 43.2368 127.092C43.4962 126.909 43.7735 126.753 44.0645 126.625C44.2658 126.535 44.483 126.485 44.7036 126.479C44.9423 126.483 45.1751 126.554 45.375 126.684C45.5263 126.762 45.6547 126.878 45.7476 127.021C45.8406 127.163 45.8949 127.327 45.9053 127.497C45.8983 127.635 45.8631 127.769 45.8018 127.893C45.7404 128.016 45.6543 128.125 45.5489 128.214Z"/><path id="Vector_2" d="M43.0704 120.327L43.0684 120.329L43.0704 120.327Z"/><path id="Vector_3" d="M50.053 108.838C49.8753 106.984 49.7861 105.102 49.7854 103.193C49.7854 102.692 49.7915 101.779 49.8027 101.292C49.8107 100.947 49.6813 100.614 49.4432 100.364C49.2051 100.115 48.8777 99.9707 48.533 99.9627C48.1884 99.9548 47.8547 100.084 47.6054 100.322C47.356 100.56 47.2115 100.888 47.2036 101.232C47.1912 101.764 47.1855 102.671 47.1855 103.193C47.1855 105.182 47.2786 107.147 47.4648 109.085C47.4977 109.429 47.6656 109.745 47.9316 109.964C48.1975 110.184 48.5398 110.289 48.883 110.256C49.2262 110.223 49.5424 110.055 49.7618 109.789C49.9813 109.523 50.0861 109.181 50.0532 108.838L50.053 108.838Z"/><path id="Vector_4" d="M158.233 114.32C158.066 114.284 157.893 114.282 157.726 114.312C157.558 114.343 157.397 114.407 157.254 114.499C157.111 114.592 156.987 114.712 156.89 114.853C156.793 114.993 156.725 115.151 156.689 115.318L156.689 115.318C154.345 126.753 148.107 137.021 139.038 144.37C130.014 151.608 118.081 155.96 103.865 155.963C93.5589 156.13 83.3997 153.502 74.4663 148.36C66.4845 143.641 59.9989 136.762 55.7571 128.516C55.5987 128.21 55.3252 127.979 54.9967 127.875C54.6682 127.77 54.3116 127.801 54.0054 127.959C53.6992 128.117 53.4684 128.391 53.3639 128.719C53.2594 129.048 53.2897 129.404 53.4481 129.711C55.8938 134.431 59.048 138.75 62.8011 142.516C61.9549 143.262 61.1494 144.027 60.4168 144.812C60.2992 144.936 60.2074 145.083 60.1467 145.243C60.086 145.404 60.0575 145.574 60.063 145.745C60.0684 145.917 60.1076 146.085 60.1784 146.241C60.2492 146.397 60.3501 146.538 60.4753 146.655C60.6006 146.771 60.7477 146.862 60.9083 146.922C61.0688 146.982 61.2396 147.01 61.4108 147.003C61.582 146.997 61.7502 146.957 61.9059 146.885C62.0615 146.813 62.2015 146.712 62.3177 146.586C63.0632 145.793 63.8494 145.04 64.6731 144.329C66.0323 145.556 67.4557 146.711 68.9373 147.788C68.6512 148.018 68.3672 148.249 68.0943 148.49C67.8357 148.718 67.6783 149.039 67.6566 149.383C67.635 149.728 67.751 150.066 67.9791 150.325C68.2071 150.583 68.5286 150.741 68.8727 150.762C69.2168 150.784 69.5554 150.668 69.814 150.44L69.8138 150.44C70.252 150.054 70.713 149.691 71.1846 149.342C71.8321 149.766 72.4705 150.199 73.1409 150.596C82.4755 155.977 93.0925 158.729 103.865 158.563C116.6 158.565 127.694 155.173 136.604 149.337C136.178 152.582 135.957 155.85 135.942 159.122C135.942 159.3 135.949 159.467 135.951 159.642C134.661 160.463 133.585 161.58 132.814 162.9C131.878 164.531 131.189 166.291 130.769 168.123C130.752 168.225 130.747 168.328 130.755 168.43C130.525 168.63 130.296 168.832 130.08 169.058C129.577 169.613 129.17 170.249 128.878 170.94C128.361 172.151 127.992 173.42 127.779 174.72C127.521 176.192 127.391 177.683 127.392 179.177C127.323 181.651 127.779 184.112 128.73 186.397C129.743 188.378 131.393 189.96 133.415 190.889C135.547 191.923 137.886 192.457 140.255 192.448C142.313 192.464 144.35 192.036 146.227 191.191C147.813 190.441 149.176 189.291 150.183 187.855C151.641 185.686 152.626 183.234 153.074 180.659C153.535 178.247 153.767 175.797 153.767 173.341V173.163C153.819 170.414 153.338 167.68 152.35 165.114C151.827 163.817 151.079 162.623 150.142 161.586C149.146 160.501 147.917 159.656 146.548 159.116L146.542 159.115L146.542 159.104C146.564 155.592 146.851 152.087 147.402 148.618C147.834 145.664 148.514 142.752 149.435 139.912C149.75 139.025 149.812 138.067 149.613 137.146C154.327 130.835 157.609 123.572 159.231 115.864C159.303 115.527 159.239 115.175 159.051 114.885C158.864 114.596 158.57 114.392 158.233 114.32ZM138.533 160.893C138.558 160.785 138.569 160.673 138.567 160.562C138.554 160.071 138.542 159.593 138.542 159.122C138.563 155.19 138.882 151.265 139.499 147.381C139.504 147.351 139.493 147.324 139.495 147.295C139.887 146.998 140.283 146.705 140.665 146.398C142.695 144.765 144.598 142.98 146.357 141.059C145.71 143.413 145.201 145.803 144.833 148.217C144.261 151.819 143.963 155.46 143.942 159.107L143.942 159.134C143.943 159.338 143.949 159.509 143.951 159.654C143.953 159.826 143.988 159.995 144.056 160.153C144.124 160.311 144.223 160.453 144.346 160.573C144.614 160.831 144.826 161.142 144.967 161.487C145.841 163.739 146.323 166.125 146.391 168.541C145.76 168.117 145.098 167.742 144.41 167.417C142.361 166.461 140.131 165.954 137.87 165.93C137.721 165.93 137.571 165.943 137.422 165.948C137.749 164.334 138.123 162.639 138.533 160.893ZM135.038 164.246C135.078 164.181 135.121 164.129 135.161 164.066C134.996 164.842 134.845 165.596 134.7 166.341C134.451 166.408 134.205 166.491 133.959 166.577C134.243 165.767 134.605 164.987 135.038 164.246ZM146.949 172.496C147.15 172.775 147.454 172.963 147.794 173.018C148.134 173.073 148.482 172.991 148.762 172.79C149.041 172.589 149.23 172.285 149.285 171.945C149.341 171.605 149.26 171.257 149.059 170.977L149.059 170.977C149.029 170.935 148.987 170.898 148.955 170.857C148.975 170.795 148.99 170.733 149 170.669L148.999 170.669C149.011 170.335 149.016 169.999 149.017 169.659V169.656C149.023 167.564 148.785 165.479 148.306 163.444C149.366 164.695 150.121 166.175 150.512 167.768C150.964 169.53 151.184 171.344 151.167 173.163V173.324C151.196 176.398 150.785 179.461 149.947 182.419C149.535 183.815 148.903 185.136 148.075 186.333C147.33 187.408 146.317 188.269 145.136 188.831C143.601 189.517 141.936 189.864 140.255 189.848C138.288 189.856 136.345 189.416 134.574 188.561C133.078 187.892 131.849 186.741 131.083 185.292C130.299 183.351 129.928 181.269 129.992 179.177C129.987 177.427 130.188 175.683 130.591 173.981C130.752 173.305 130.972 172.644 131.249 172.006C131.422 171.587 131.661 171.199 131.958 170.856C132.714 170.066 133.639 169.457 134.665 169.077C135.692 168.705 136.777 168.519 137.87 168.53C139.754 168.555 141.612 168.98 143.32 169.778C144.733 170.374 145.979 171.308 146.949 172.496V172.496Z"/><path id="Vector_5" d="M157.795 113.838C157.632 113.788 157.46 113.771 157.29 113.788C157.12 113.805 156.955 113.854 156.805 113.935C156.654 114.015 156.521 114.124 156.412 114.256C156.304 114.388 156.222 114.54 156.173 114.703L156.173 114.703C153.256 124.278 146.866 132.469 137.617 138.434C128.369 144.395 116.256 148.11 101.971 148.626C100.649 148.674 99.3478 148.698 98.0669 148.698C86.6684 148.7 76.9379 146.773 69.3559 142.551C61.7753 138.322 56.2754 131.849 53.2036 122.423L53.1965 122.402C52.7925 121.227 52.4489 120.068 52.1374 118.937C54.9969 123.605 58.8341 127.598 63.385 130.641C71.0705 135.765 81.4716 138.682 95.4785 138.68C96.9531 138.68 98.4688 138.647 100.026 138.582C105.523 138.365 110.987 137.624 116.343 136.368C116.677 136.287 116.966 136.077 117.146 135.783C117.326 135.49 117.382 135.137 117.302 134.802C117.222 134.468 117.012 134.178 116.719 133.998C116.426 133.817 116.073 133.76 115.738 133.84C110.545 135.056 105.247 135.774 99.9165 135.985C98.3938 136.048 96.9144 136.08 95.4785 136.08C81.8188 136.078 71.9782 133.244 64.8273 128.478C57.6789 123.708 53.1325 116.972 50.1716 108.875C50.0636 108.579 49.8519 108.332 49.5758 108.181C49.2997 108.029 48.978 107.983 48.6705 108.051C48.3629 108.119 48.0905 108.296 47.9037 108.55C47.7169 108.803 47.6285 109.116 47.655 109.43C47.8361 111.225 48.1095 113.011 48.4741 114.778C49.0394 117.641 49.7934 120.463 50.7309 123.226L50.7307 123.226L50.7338 123.235L50.7378 123.247L50.738 123.247C53.9672 133.212 59.9733 140.319 68.092 144.823C76.2145 149.338 86.3842 151.296 98.0668 151.298C99.3803 151.298 100.713 151.274 102.065 151.225C116.744 150.693 129.319 146.874 139.025 140.62C148.729 134.369 155.557 125.663 158.66 115.46C158.76 115.13 158.726 114.774 158.563 114.47C158.401 114.166 158.125 113.939 157.795 113.838Z"/><path id="Vector_6" d="M143.051 123.27C147.048 119.86 150.452 115.811 153.124 111.287C153.21 111.139 153.267 110.977 153.29 110.807C153.313 110.638 153.303 110.466 153.26 110.301C153.217 110.136 153.141 109.981 153.038 109.845C152.935 109.709 152.806 109.594 152.659 109.508C152.512 109.422 152.349 109.366 152.18 109.342C152.011 109.319 151.839 109.329 151.673 109.372C151.508 109.416 151.353 109.491 151.217 109.594C151.081 109.697 150.967 109.826 150.88 109.973C148.353 114.25 145.134 118.077 141.354 121.3C141.225 121.412 141.119 121.547 141.042 121.7C140.965 121.852 140.919 122.018 140.906 122.189C140.893 122.359 140.914 122.53 140.968 122.692C141.021 122.854 141.106 123.004 141.217 123.134C141.329 123.263 141.465 123.369 141.617 123.446C141.769 123.523 141.935 123.569 142.106 123.582C142.276 123.594 142.447 123.574 142.609 123.52C142.771 123.467 142.921 123.382 143.051 123.27L143.051 123.27Z"/><path id="Vector_7" d="M143.142 39.7346C138.652 32.3278 132.202 26.3054 124.505 22.3318C123.795 21.9582 123.066 21.6035 122.327 21.2578L122.326 21.164C122.33 20.5987 122.39 20.0352 122.505 19.4817C122.602 19.0164 122.748 18.5629 122.941 18.1288C124.124 18.8973 125.547 19.2058 126.942 18.9957C128.336 18.7857 129.606 18.0719 130.51 16.9892C131.413 15.9065 131.889 14.5302 131.847 13.1205C131.804 11.7108 131.246 10.3655 130.279 9.33927C129.312 8.313 128.002 7.67688 126.597 7.55125C125.192 7.42562 123.79 7.8192 122.656 8.65753C121.522 9.49585 120.734 10.7208 120.442 12.1006C120.15 13.4803 120.374 14.9193 121.072 16.1451C120.538 17.007 120.161 17.9569 119.96 18.9506C119.879 19.3431 119.819 19.7398 119.782 20.1389C111.858 17.028 103.406 15.4854 94.8948 15.5968C86.1964 15.4779 77.5619 17.0981 69.4983 20.3624C69.144 19.4412 68.683 18.5648 68.1249 17.7508C67.472 16.7898 66.6737 15.9361 65.7584 15.2204C64.8266 14.505 63.7758 13.9595 62.6544 13.6093C62.3663 12.2298 61.5828 11.0037 60.4519 10.1628C59.3211 9.32188 57.9213 8.92448 56.5173 9.04572C55.1133 9.16696 53.8024 9.79845 52.8324 10.8208C51.8624 11.8431 51.3007 13.1854 51.2534 14.5938C51.206 16.0023 51.6764 17.3792 52.5756 18.4644C53.4747 19.5495 54.7403 20.2675 56.133 20.4828C57.5257 20.698 58.949 20.3954 60.1338 19.6323C61.3185 18.8692 62.1826 17.6985 62.5626 16.3414C63.1346 16.5846 63.6738 16.8988 64.1674 17.2766C65.1605 18.0671 65.9769 19.0572 66.5636 20.1828C66.7573 20.5452 66.9281 20.9193 67.0748 21.3031C67.0919 21.3482 67.1046 21.3845 67.1185 21.4227C59.6362 24.9134 53.1898 30.2893 48.4117 37.0229C48.3136 37.1627 48.2441 37.3204 48.2069 37.487C48.1698 37.6537 48.1658 37.826 48.1953 37.9942C48.2247 38.1624 48.287 38.3231 48.3786 38.4672C48.4702 38.6113 48.5893 38.736 48.729 38.8341C48.8688 38.9321 49.0265 39.0017 49.1931 39.0389C49.3598 39.076 49.5321 39.08 49.7003 39.0505C49.8685 39.021 50.0292 38.9587 50.1733 38.8672C50.3174 38.7756 50.4421 38.6565 50.5402 38.5168H50.5399C58.9703 26.5224 73.9349 18.2088 94.8949 18.1968C106.103 18.1974 115.6 20.5868 123.296 24.6331C130.571 28.3849 136.668 34.0745 140.913 41.0736C141.091 41.3692 141.378 41.5821 141.713 41.6656C142.048 41.749 142.402 41.6962 142.697 41.5186C142.993 41.3411 143.206 41.0534 143.289 40.7188C143.373 40.3842 143.32 40.0302 143.142 39.7346H143.142ZM126.071 10.1514C126.694 10.1513 127.304 10.3363 127.823 10.6827C128.341 11.0292 128.746 11.5217 128.984 12.098C129.223 12.6742 129.286 13.3083 129.164 13.92C129.042 14.5318 128.742 15.0937 128.301 15.5348C127.86 15.9759 127.298 16.2762 126.686 16.398C126.075 16.5197 125.44 16.4572 124.864 16.2186C124.288 15.9799 123.795 15.5757 123.449 15.0571C123.102 14.5385 122.917 13.9288 122.917 13.305C122.918 12.469 123.251 11.6676 123.842 11.0764C124.433 10.4852 125.235 10.1526 126.071 10.1514ZM57.0258 17.9503C56.4021 17.9503 55.7924 17.7655 55.2738 17.419C54.7552 17.0725 54.351 16.5801 54.1123 16.0039C53.8736 15.4277 53.8111 14.7937 53.9327 14.182C54.0543 13.5703 54.3546 13.0084 54.7956 12.5674C55.2365 12.1263 55.7984 11.8259 56.4101 11.7042C57.0218 11.5825 57.6558 11.6449 58.232 11.8835C58.8082 12.1222 59.3007 12.5263 59.6473 13.0449C59.9938 13.5634 60.1788 14.1731 60.1788 14.7967C60.1776 15.6326 59.845 16.434 59.254 17.0251C58.663 17.6162 57.8617 17.9489 57.0258 17.9503Z"/><path id="Vector_8" d="M65.4287 168.27C65.6455 169.823 65.7515 171.389 65.7459 172.957C65.7961 175.994 65.3844 179.02 64.5249 181.933C63.9029 183.753 62.6595 185.296 61.0129 186.291C59.2455 187.342 57.221 187.882 55.1648 187.851C53.7372 187.847 52.3188 187.622 50.9597 187.185C49.2401 186.73 47.7124 185.733 46.6023 184.343C45.5279 182.736 45.0066 180.823 45.1174 178.893C45.1599 176.822 45.4454 174.763 45.968 172.759C46.1182 171.989 46.4214 171.257 46.8596 170.606C47.2978 169.956 47.862 169.399 48.519 168.971C49.841 168.199 51.3543 167.816 52.8845 167.866C54.5813 167.884 56.2616 168.201 57.8481 168.803C59.1014 169.227 60.2482 169.917 61.2095 170.825C61.4438 171.077 61.7683 171.226 62.1119 171.239C62.4555 171.252 62.7903 171.128 63.0429 170.895C63.2956 170.661 63.4455 170.337 63.4598 169.994C63.4742 169.65 63.3519 169.315 63.1196 169.061C61.8871 167.851 60.3996 166.932 58.7659 166.371C56.8862 165.657 54.8949 165.284 52.8845 165.266C50.8603 165.214 48.8629 165.737 47.1247 166.776C46.1871 167.385 45.379 168.173 44.7468 169.095C44.1146 170.017 43.6707 171.054 43.4407 172.148C42.8692 174.353 42.5594 176.616 42.5176 178.893C42.4052 181.379 43.1044 183.833 44.5095 185.886C45.9438 187.717 47.9273 189.041 50.1689 189.662C51.7836 190.18 53.4688 190.447 55.1648 190.451C57.7045 190.483 60.203 189.808 62.3813 188.501C64.5385 187.189 66.1676 185.163 66.9853 182.774C67.9397 179.591 68.3985 176.28 68.3457 172.957C68.3515 171.264 68.2366 169.573 68.0017 167.896C67.9771 167.727 67.9196 167.565 67.8322 167.418C67.7449 167.272 67.6296 167.144 67.4928 167.041C67.356 166.939 67.2004 166.865 67.035 166.823C66.8695 166.781 66.6974 166.772 66.5285 166.797C66.3595 166.821 66.1971 166.879 66.0504 166.966C65.9037 167.053 65.7757 167.169 65.6736 167.306C65.5715 167.442 65.4973 167.598 65.4553 167.763C65.4134 167.929 65.4044 168.101 65.4289 168.27L65.4287 168.27Z"/><path id="Vector_9" d="M113.775 74.5554C113.316 73.7543 112.67 73.0762 111.892 72.5791C111.052 72.0761 110.091 71.8089 109.112 71.8057C108.132 71.8025 107.17 72.0634 106.326 72.5609C105.182 73.3115 104.319 74.4191 103.87 75.7112C103.39 77.0321 103.154 78.4289 103.173 79.8339C103.154 82 103.649 84.1396 104.618 86.0769C105.074 86.9747 105.711 87.7676 106.491 88.405C107.291 89.0515 108.285 89.4106 109.314 89.4247L109.338 89.4246V89.4247L109.339 89.4246V89.4246C110.32 89.4122 111.264 89.0496 112.001 88.4022C113.084 87.3991 113.877 86.124 114.299 84.7098C114.803 83.1829 115.058 81.5851 115.055 79.9772C115.11 78.0891 114.669 76.2195 113.775 74.5554ZM111.392 84.9547C111.138 85.5071 110.775 86.003 110.327 86.4134C110.059 86.6669 109.707 86.8132 109.339 86.8247L109.33 86.8247C108.877 86.8154 108.44 86.6506 108.094 86.3579C107.317 85.659 106.744 84.7626 106.435 83.7639C105.995 82.5006 105.771 81.1719 105.773 79.8339C105.724 78.4446 106.039 77.0666 106.686 75.8364C106.93 75.4072 107.274 75.0431 107.689 74.7752C108.11 74.5216 108.595 74.3934 109.087 74.4057C109.591 74.3927 110.088 74.5249 110.519 74.7867C111.188 75.2551 111.684 75.9308 111.93 76.7092C112.296 77.7593 112.474 78.8655 112.456 79.9772C112.472 81.6944 112.109 83.394 111.392 84.9547Z"/><path id="Vector_10" d="M70.8845 72.6935C70.0673 72.1137 69.0883 71.806 68.0864 71.8141L67.862 71.8188C66.9424 71.8482 66.0482 72.128 65.2758 72.6281C64.2048 73.3703 63.3978 74.434 62.9714 75.6653C62.5165 76.9281 62.2923 78.2624 62.3095 79.6045C62.2944 81.7941 62.8145 83.9542 63.8247 85.897C64.3087 86.816 64.9739 87.6274 65.78 88.2825C66.6074 88.9473 67.6191 89.3416 68.6782 89.4119L68.6796 89.412L68.8896 89.4183C69.7975 89.4075 70.6683 89.0568 71.3303 88.4355C72.2845 87.4843 72.9663 86.2946 73.3047 84.9905C73.723 83.5547 73.9317 82.066 73.9243 80.5706C73.9727 78.588 73.5508 76.6222 72.6931 74.834C72.2663 73.9887 71.6467 73.2554 70.8845 72.6935ZM70.4511 85.2207C70.2535 85.7009 69.9615 86.1364 69.5925 86.5016C69.4084 86.6948 69.1562 86.8084 68.8896 86.8182L68.8349 86.8166C68.3024 86.779 67.7949 86.5758 67.3835 86.2357C66.5579 85.5107 65.9419 84.5775 65.5996 83.5335C65.1424 82.274 64.9089 80.9443 64.9094 79.6045C64.8645 78.2919 65.1592 76.99 65.7651 75.8248C65.9929 75.4175 66.312 75.0684 66.6972 74.805C67.0772 74.5604 67.5176 74.4259 67.9694 74.4166L68.0864 74.4141C68.5494 74.4044 69.0032 74.5447 69.3801 74.8141C70.0634 75.3759 70.5568 76.1349 70.7929 76.9875C71.1599 78.1459 71.3393 79.3555 71.3244 80.5705C71.3498 82.1636 71.0528 83.7454 70.4511 85.2207Z"/><path id="Vector_11" d="M91.2837 91.2693C90.9526 90.7236 90.5336 90.2365 90.0435 89.8276C89.5377 89.3962 88.8995 89.1509 88.2349 89.1323C87.6908 89.1338 87.1637 89.3218 86.7415 89.6651C86.1925 90.1418 85.7994 90.7725 85.6131 91.4753C85.3995 92.2209 85.2965 92.9939 85.3074 93.7695C85.3099 94.4785 85.3746 95.186 85.5005 95.8838L85.5008 95.8846V95.885C85.5984 96.5146 85.7886 97.1262 86.0652 97.7001C86.252 98.0768 86.5047 98.417 86.8113 98.7046C87.2292 99.0846 87.7417 99.3452 88.295 99.459C88.7302 99.5438 89.1734 99.5812 89.6167 99.5707C89.9339 99.5753 90.2511 99.5594 90.5662 99.523C90.85 99.4889 91.128 99.4176 91.3931 99.311C91.8904 99.109 92.3045 98.7443 92.5674 98.2763C92.8251 97.7827 92.9512 97.231 92.9334 96.6744C92.9288 96.258 92.8882 95.8428 92.8121 95.4334C92.5705 93.9612 92.0519 92.5482 91.2837 91.2693ZM90.3145 96.9304C90.0836 96.9646 89.8501 96.9781 89.6167 96.9707C89.3795 96.9769 89.1421 96.9633 88.907 96.9301C88.8223 96.918 88.74 96.8928 88.6629 96.8556C88.5567 96.7946 88.472 96.7021 88.4205 96.5909C88.2366 96.2274 88.115 95.8357 88.0608 95.4321L88.0606 95.4308C87.9613 94.8826 87.91 94.3267 87.9073 93.7695C87.8819 93.1405 87.9873 92.5132 88.2166 91.9271C88.2411 91.8747 88.2701 91.8247 88.3035 91.7776C88.4761 91.8925 88.6289 92.0346 88.7562 92.1984C89.5423 93.2894 90.0551 94.5533 90.2515 95.8837C90.3011 96.1445 90.3285 96.409 90.3335 96.6744C90.3345 96.7601 90.3282 96.8457 90.3145 96.9304Z"/><path id="Vector_12" d="M53.7617 155.755C57.1787 162.255 66.9287 161.838 66.9287 161.838L53.7617 155.755Z"/><path id="Vector_13" d="M73.0666 159.407C72.3471 158.202 71.4016 157.148 70.2822 156.301C69.9851 156.07 69.7121 155.876 69.4734 155.716C69.9713 155.328 70.3787 154.836 70.6672 154.275C70.9317 153.74 71.0679 153.15 71.0649 152.553C71.0472 151.753 70.851 150.967 70.4905 150.252C70.2779 149.821 70.0345 149.406 69.7622 149.01L69.5832 148.793L69.5627 148.773C69.332 148.548 69.0261 148.417 68.7041 148.404C68.3822 148.392 68.0672 148.5 67.82 148.706C67.6427 148.87 67.4093 148.959 67.1681 148.955C66.8594 148.94 66.5567 148.864 66.2785 148.729C65.5537 148.377 64.8788 147.93 64.2717 147.4C63.5248 146.784 62.727 146.025 61.914 145.214C60.84 144.14 59.727 142.966 58.6359 141.916C57.5 140.795 56.1635 139.898 54.696 139.272C54.0958 139.027 53.4752 138.836 52.8415 138.7C52.1733 137.661 51.331 136.746 50.3517 135.993C49.2399 135.078 47.8629 134.544 46.4245 134.472L46.3368 134.473C46.0167 134.48 45.7104 134.605 45.4765 134.823C45.2426 135.042 45.0977 135.339 45.0695 135.658C45.0351 136.048 45.0197 136.424 45.0197 136.787C45.0192 137.584 45.1051 138.379 45.2758 139.158C44.4672 139.382 43.6432 139.636 42.7841 139.953C41.4814 140.463 40.0979 140.736 38.6991 140.759C37.6291 140.776 36.5685 140.556 35.5939 140.115C35.3412 139.998 35.0991 139.859 34.8702 139.7L34.7164 139.584L34.6923 139.564L34.6905 139.566C34.4857 139.377 34.2258 139.26 33.9492 139.231C33.6725 139.202 33.3939 139.262 33.1541 139.403C32.9144 139.544 32.7264 139.759 32.6177 140.015C32.509 140.271 32.4854 140.555 32.5504 140.825C32.7863 141.883 33.2379 142.88 33.8771 143.755C34.7412 144.888 35.9336 145.727 37.2919 146.157C38.5787 146.558 39.9219 146.748 41.2694 146.721C43.1203 146.667 44.9668 146.508 46.7997 146.245C47.1725 146.202 47.5474 146.181 47.9227 146.18C49.5836 146.177 51.2099 146.655 52.6053 147.555C52.5694 147.587 52.5313 147.612 52.4962 147.644C51.8184 148.285 51.2952 149.072 50.9664 149.945C50.7467 150.503 50.6347 151.098 50.6363 151.698C50.6393 151.941 50.6585 152.184 50.6939 152.424C49.6672 152.684 48.7373 153.234 48.0159 154.009C47.1826 154.963 46.7348 156.192 46.7598 157.458C46.7783 158.511 47.0157 159.547 47.4568 160.503C45.8261 160.596 44.2078 160.843 42.6233 161.239C42.5478 160.781 42.4286 160.332 42.2673 159.897C41.9522 159.014 41.4158 158.228 40.7097 157.613C40.4951 157.431 40.2276 157.324 39.9472 157.308C39.6667 157.292 39.3886 157.366 39.1543 157.521C37.8972 158.308 36.8652 159.407 36.1587 160.711C35.6598 161.674 35.4002 162.742 35.4016 163.826C35.4018 163.908 35.4079 163.984 35.4109 164.063C30.7009 166.587 26.8185 170.415 24.2287 175.089C24.0486 174.981 23.8742 174.862 23.685 174.771C23.0046 174.432 22.2567 174.25 21.4966 174.239L21.4367 174.24C21.171 174.247 20.914 174.336 20.7005 174.495C20.487 174.653 20.3274 174.873 20.2431 175.125C19.8549 176.219 19.6466 177.368 19.6262 178.528C19.6028 179.719 19.9209 180.892 20.543 181.907C20.7754 182.272 21.0479 182.609 21.3555 182.913C21.0489 184.333 20.8424 185.773 20.7373 187.223C20.7134 187.567 20.8271 187.906 21.0535 188.166C21.2799 188.427 21.6003 188.586 21.9443 188.61C22.2883 188.634 22.6278 188.52 22.8879 188.294C23.1481 188.067 23.3076 187.747 23.3315 187.403C23.4053 186.401 23.5313 185.403 23.709 184.413C24.2419 184.625 24.7978 184.773 25.3652 184.854C25.7069 184.894 26.0503 184.796 26.3201 184.583C26.5899 184.369 26.7642 184.058 26.8046 183.716C26.8451 183.375 26.7484 183.031 26.5359 182.761C26.3234 182.49 26.0123 182.315 25.6709 182.274L25.6711 182.272C25.0117 182.162 24.3802 181.924 23.8122 181.572C23.3669 181.296 22.9913 180.921 22.7151 180.477C22.3733 179.886 22.2039 179.211 22.2261 178.528C22.2341 178.033 22.2943 177.541 22.4058 177.059C22.459 177.081 22.5068 177.09 22.5613 177.116C23.2526 177.473 23.8657 177.964 24.3645 178.561C24.8971 179.167 25.3171 179.864 25.6047 180.619C25.722 180.943 25.9633 181.208 26.2755 181.354C26.5877 181.5 26.9453 181.517 27.2696 181.399C27.5938 181.282 27.8582 181.041 28.0046 180.729C28.151 180.416 28.1673 180.059 28.05 179.734L28.0498 179.734C27.6418 178.652 27.0364 177.654 26.2644 176.792C28.5023 172.537 31.9172 169.016 36.1015 166.65C36.2806 166.863 36.524 167.012 36.7953 167.075C37.0665 167.138 37.3507 167.11 37.6052 166.997C37.9171 166.856 38.1606 166.597 38.2826 166.277C38.4047 165.957 38.3954 165.602 38.2568 165.289L38.2588 165.288L38.2198 165.184C38.1666 165.026 38.1237 164.865 38.0913 164.701C38.0901 164.685 38.0826 164.669 38.0808 164.653C38.0282 164.38 38.0017 164.103 38.0015 163.826C38 163.157 38.1604 162.497 38.469 161.904C38.7704 161.348 39.1679 160.85 39.6431 160.433C39.7141 160.554 39.7775 160.68 39.8328 160.81C40.0346 161.367 40.1361 161.956 40.1328 162.549C40.133 162.625 40.1259 162.7 40.1228 162.776L40.1218 162.798C40.1053 163.305 40.0021 163.805 39.8166 164.276C39.7503 164.433 39.7157 164.602 39.7147 164.773C39.7137 164.944 39.7463 165.113 39.8107 165.271C39.8751 165.429 39.97 165.573 40.09 165.695C40.21 165.816 40.3528 165.913 40.5102 165.979C40.6675 166.045 40.8364 166.08 41.0071 166.081C41.1779 166.082 41.3471 166.049 41.5053 165.985C41.6634 165.92 41.8073 165.826 41.9287 165.706C42.0502 165.586 42.1468 165.443 42.2131 165.285L42.2129 165.285C42.3928 164.851 42.5254 164.398 42.6081 163.936C44.5825 163.375 46.6226 163.078 48.675 163.053C48.7996 163.047 48.9227 163.022 49.04 162.98C49.2126 163.183 49.3899 163.384 49.58 163.58C50.2773 164.257 51.0552 164.846 51.8962 165.334C51.705 165.356 51.5251 165.373 51.3276 165.399C50.591 165.493 49.4191 165.631 48.1086 165.864C46.7037 166.098 45.3218 166.454 43.9782 166.926C40.511 168.225 37.4257 170.373 35.0058 173.175C34.8522 173.354 34.7094 173.553 34.5602 173.74C34.5119 173.792 34.4681 173.847 34.4291 173.906C31.4944 177.725 29.9505 182.431 30.0527 187.246C30.0527 187.591 30.1896 187.922 30.4334 188.165C30.6772 188.409 31.0079 188.546 31.3527 188.546C31.6975 188.546 32.0282 188.409 32.272 188.165C32.5158 187.922 32.6528 187.591 32.6528 187.246H32.6525C32.6271 184.685 33.0949 182.143 34.0305 179.759C34.4528 179.828 34.8799 179.863 35.3078 179.864C36.2394 179.869 37.1621 179.683 38.0185 179.316C39.0271 178.869 39.9202 178.197 40.6296 177.352C40.8199 177.131 40.9305 176.853 40.9436 176.562C40.9567 176.27 40.8714 175.983 40.7016 175.746C40.1133 174.99 39.3263 174.412 38.4286 174.077C38.2511 174.004 38.0573 173.961 37.8732 173.899C39.8561 171.904 42.2447 170.358 44.8773 169.366C46.077 168.947 47.3103 168.632 48.5639 168.424C49.7885 168.206 50.9013 168.074 51.6589 167.977C53.5039 167.74 55.0607 167.653 56.1784 167.62C56.3118 167.611 56.4429 167.58 56.5668 167.53C57.3083 167.804 58.0648 168.065 58.8432 168.293C61.1108 168.987 63.4635 169.364 65.8344 169.414C67.1073 169.438 68.3754 169.25 69.5866 168.858C70.7496 168.486 71.7682 167.762 72.5019 166.786C73.4175 165.596 73.929 164.145 73.9619 162.644C73.9501 161.505 73.6415 160.389 73.0666 159.407ZM35.3081 177.264C35.2915 177.264 35.2756 177.26 35.2593 177.26C35.5054 176.85 35.7661 176.459 36.0359 176.082C36.5146 176.166 36.9835 176.3 37.4351 176.48C37.5056 176.508 37.5642 176.54 37.6294 176.571C37.426 176.709 37.211 176.829 36.9868 176.929C36.4563 177.155 35.8848 177.269 35.3081 177.264ZM62.6714 158.204C61.1293 158.158 59.6127 157.799 58.2134 157.15C56.7984 156.533 55.5314 155.622 54.4976 154.476C53.7655 153.726 53.3193 152.743 53.2363 151.698C53.2346 151.425 53.2849 151.154 53.3845 150.9C53.5694 150.391 53.8683 149.932 54.2583 149.557C54.3971 149.432 54.5483 149.322 54.7095 149.229C55.3728 149.884 55.991 150.583 56.5596 151.321L56.5654 151.329C56.6113 151.386 56.6799 151.482 56.7783 151.607L56.7781 151.607L56.7842 151.615L56.7998 151.635L56.8005 151.635C58.5262 153.955 60.96 155.652 63.7346 156.468C64.3915 156.645 65.0662 156.747 65.7461 156.774C65.5112 157.242 65.1228 157.614 64.646 157.829C64.0229 158.096 63.349 158.224 62.6714 158.204V158.204ZM47.6455 137.387C48.0489 137.568 48.4298 137.795 48.7803 138.065C48.9397 138.185 49.0933 138.322 49.2466 138.459C48.7768 138.489 48.2998 138.538 47.8154 138.611C47.7281 138.208 47.6713 137.798 47.6455 137.387V137.387ZM46.5078 143.661C44.7716 143.912 43.0228 144.065 41.2695 144.121C39.8951 144.187 38.5255 143.915 37.2803 143.33C37.2319 143.303 37.1936 143.266 37.1467 143.238C37.6606 143.316 38.1795 143.357 38.6992 143.359C40.4062 143.336 42.0954 143.009 43.687 142.391C45.7518 141.553 47.9477 141.083 50.1748 141.004C51.3826 140.99 52.5812 141.217 53.6997 141.673C54.8682 142.176 55.9315 142.894 56.834 143.79C57.8635 144.78 58.9692 145.945 60.075 147.052L60.077 147.054C61.1316 148.144 62.267 149.152 63.4737 150.071C64.0227 150.479 64.6135 150.827 65.2362 151.111C65.8426 151.391 66.5005 151.542 67.1683 151.555C67.5033 151.553 67.8363 151.502 68.1566 151.403C68.3401 151.76 68.4453 152.152 68.4652 152.552C68.4682 152.749 68.4247 152.943 68.3382 153.12C68.205 153.368 68.0151 153.582 67.7837 153.744C67.2765 154.073 66.6778 154.232 66.0742 154.198C65.5134 154.191 64.9558 154.111 64.416 153.958C62.1859 153.289 60.2333 151.913 58.8516 150.039L58.8299 150.011C58.783 149.953 58.7149 149.857 58.6094 149.722C57.3752 148.062 55.8724 146.62 54.1631 145.454C52.313 144.229 50.1422 143.576 47.9229 143.58C47.45 143.58 46.9776 143.608 46.5078 143.661L46.5078 143.661ZM70.3928 165.265C69.9707 165.808 69.3897 166.206 68.7307 166.403C67.7945 166.698 66.816 166.837 65.8347 166.814C62.9699 166.716 60.1419 166.137 57.4687 165.102C56.2005 164.64 54.9693 164.081 53.7861 163.432C52.9324 162.984 52.1433 162.422 51.4401 161.763C50.2291 160.641 49.4861 159.104 49.3598 157.458C49.3343 156.832 49.5461 156.22 49.9528 155.744C50.3988 155.293 50.9738 154.992 51.5983 154.883C51.8709 155.339 52.1818 155.77 52.5278 156.173C52.5395 156.187 52.5546 156.199 52.5666 156.213C52.5779 156.263 52.5923 156.312 52.6096 156.36L52.6093 156.36C53.4279 157.899 54.6066 159.217 56.0449 160.202C57.9303 161.456 60.0531 162.31 62.2819 162.711C63.6952 162.99 65.1317 163.135 66.5722 163.143C66.8205 163.143 66.9653 163.137 66.9814 163.137C67.324 163.12 67.646 162.968 67.8773 162.715C68.1085 162.461 68.2302 162.127 68.2159 161.784C68.2016 161.441 68.0525 161.118 67.8009 160.885C67.5494 160.652 67.2158 160.527 66.873 160.539L66.8618 160.539C66.8283 160.54 66.7282 160.543 66.5722 160.543C66.2512 160.544 65.6836 160.529 64.9726 160.467C65.5883 160.287 66.1674 159.999 66.6836 159.618C67.2748 159.165 67.7539 158.583 68.0839 157.915C68.6019 158.266 69.0888 158.661 69.5393 159.095C70.0502 159.579 70.4873 160.135 70.8366 160.746C71.1706 161.323 71.3516 161.977 71.3623 162.644C71.3295 163.599 70.9895 164.518 70.3928 165.265L70.3928 165.265Z"/><path id="Vector_14" d="M58.6055 149.717L58.6095 149.722L58.6105 149.724L58.6055 149.717Z"/><path id="Vector_15" d="M142.527 114.579C142.357 114.565 142.186 114.585 142.023 114.637C141.861 114.69 141.71 114.774 141.58 114.884C141.45 114.995 141.343 115.13 141.265 115.282C141.188 115.434 141.14 115.599 141.127 115.769C141.046 116.773 141.016 118.104 140.845 119.635C140.677 121.306 140.309 122.952 139.749 124.536C139.46 125.314 139.106 126.067 138.692 126.786C138.512 126.394 138.296 126.019 138.046 125.667C137.595 125.034 137 124.517 136.309 124.161C136.267 124.146 136.225 124.135 136.181 124.125C135.971 123.981 135.749 123.854 135.518 123.748C135.15 123.585 134.761 123.472 134.363 123.413C134.951 122.131 135.302 120.752 135.397 119.344L135.381 119.343C135.384 119.306 135.403 119.275 135.403 119.237C135.403 118.893 135.266 118.562 135.022 118.318C134.778 118.074 134.448 117.937 134.103 117.937V117.937H134.102C133.776 117.938 133.462 118.061 133.222 118.282C132.982 118.502 132.834 118.805 132.806 119.13C132.737 120.26 132.455 121.366 131.975 122.392C131.849 122.643 131.71 122.888 131.558 123.125C131.258 122.562 130.81 122.092 130.263 121.765C129.622 121.399 128.893 121.213 128.155 121.225C127.286 121.244 126.43 121.442 125.641 121.806C125.617 121.787 125.605 121.76 125.58 121.742C124.82 121.253 123.93 121.008 123.027 121.039C122.076 121.05 121.135 121.23 120.247 121.57C119.387 121.87 118.608 122.366 117.973 123.019C117.221 123.797 116.785 124.826 116.75 125.908C116.749 126.535 116.924 127.15 117.256 127.683C117.588 128.208 118.052 128.638 118.601 128.93C119.122 129.196 119.7 129.328 120.284 129.314C120.777 129.307 121.267 129.245 121.746 129.13C121.836 129.158 121.929 129.175 122.023 129.182L122.023 129.182L122.042 129.182C122.297 129.164 122.55 129.234 122.76 129.379C122.889 129.479 122.995 129.605 123.073 129.748C123.23 130.042 123.336 130.36 123.387 130.689C123.419 130.879 123.44 131.071 123.449 131.264C123.16 131.322 122.866 131.357 122.571 131.366C122.312 131.37 122.056 131.313 121.822 131.202C121.3 130.983 120.737 130.876 120.171 130.888C119.246 130.882 118.336 131.118 117.53 131.573C117.069 131.837 116.667 132.192 116.347 132.616C115.995 133.091 115.76 133.643 115.663 134.226C115.623 134.456 115.602 134.688 115.602 134.921C115.596 135.454 115.723 135.979 115.969 136.451C116.339 137.118 116.929 137.636 117.638 137.918C118.332 138.193 119.074 138.327 119.821 138.312C120.539 138.306 121.254 138.22 121.952 138.055L122.166 138.029C122.355 138.036 122.539 138.085 122.706 138.173C123.051 138.327 123.505 138.657 124.089 139.007C124.784 139.453 125.587 139.7 126.412 139.722C126.74 139.721 127.066 139.68 127.384 139.598C128.398 139.287 129.448 139.112 130.508 139.077C131.375 139.094 132.239 139.203 133.083 139.402C133.516 139.494 133.958 139.541 134.4 139.541C135.864 139.557 137.278 139.011 138.351 138.016C138.922 137.458 139.371 136.788 139.671 136.048C139.97 135.308 140.113 134.513 140.091 133.715C140.091 133.472 140.08 133.221 140.055 132.963C139.951 131.904 139.822 130.902 139.645 129.956C139.743 129.888 139.831 129.807 139.906 129.714L139.906 129.714C140.857 128.397 141.625 126.957 142.189 125.433C142.822 123.653 143.238 121.804 143.428 119.924C143.613 118.271 143.646 116.852 143.718 115.98C143.746 115.636 143.636 115.296 143.413 115.033C143.189 114.77 142.871 114.607 142.527 114.579ZM132.473 126.441L132.355 126.293L132.355 126.292L132.473 126.441C132.819 126.139 133.26 125.969 133.719 125.959C134.048 125.961 134.371 126.053 134.651 126.225C134.747 126.283 134.835 126.352 134.914 126.431C134.823 126.691 134.695 126.937 134.534 127.161C134.218 127.615 133.872 128.048 133.497 128.455C133.406 128.557 133.291 128.636 133.164 128.685C133.011 128.744 132.848 128.773 132.685 128.771C132.293 128.775 131.915 128.632 131.624 128.37C131.585 128.324 131.556 128.27 131.538 128.213C131.52 128.155 131.514 128.095 131.52 128.035C131.557 127.717 131.661 127.41 131.825 127.136C131.99 126.861 132.21 126.624 132.473 126.441V126.441ZM128.941 124.003C129.13 124.118 129.273 124.295 129.344 124.504L129.343 124.509C129.268 124.708 129.147 124.885 128.988 125.027C128.502 125.49 127.937 125.861 127.319 126.123C126.77 126.385 126.177 126.539 125.57 126.577L125.375 126.563L125.328 126.553L125.317 126.55C125.161 126.494 125.022 126.396 124.917 126.266C124.871 126.201 124.847 126.122 124.851 126.042C124.865 125.825 124.939 125.617 125.064 125.44C125.284 125.111 125.566 124.83 125.895 124.612C126.556 124.137 127.341 123.864 128.155 123.825C128.428 123.814 128.699 123.875 128.941 124.003V124.003ZM119.842 126.645C119.688 126.567 119.556 126.45 119.461 126.306C119.386 126.187 119.348 126.048 119.35 125.908C119.388 125.47 119.586 125.06 119.906 124.758C120.267 124.418 120.697 124.159 121.168 124.002C121.762 123.774 122.391 123.651 123.028 123.639C123.085 123.639 123.134 123.645 123.188 123.648C123.074 123.776 122.967 123.911 122.867 124.051C122.477 124.643 122.264 125.334 122.251 126.042C122.25 126.115 122.262 126.189 122.267 126.262C122.133 126.313 121.983 126.368 121.807 126.424C121.316 126.593 120.803 126.691 120.284 126.714C120.134 126.724 119.983 126.7 119.842 126.645ZM136.564 136.127C135.973 136.665 135.199 136.957 134.4 136.941C134.139 136.941 133.879 136.913 133.624 136.859C132.602 136.622 131.557 136.494 130.508 136.477C129.231 136.511 127.965 136.713 126.742 137.078C126.634 137.107 126.523 137.121 126.412 137.122C126.199 137.117 125.989 137.066 125.798 136.971C125.326 136.723 124.868 136.448 124.426 136.15C124.115 135.958 123.787 135.796 123.445 135.666C123.036 135.512 122.603 135.432 122.166 135.429C121.899 135.43 121.632 135.46 121.372 135.521C120.864 135.642 120.343 135.706 119.821 135.712C119.343 135.743 118.867 135.64 118.445 135.414C118.37 135.368 118.307 135.304 118.263 135.227C118.217 135.132 118.196 135.027 118.202 134.921C118.202 134.836 118.21 134.751 118.226 134.667L118.226 134.665C118.253 134.486 118.323 134.317 118.431 134.171C118.615 133.944 118.86 133.773 119.136 133.676C119.467 133.552 119.818 133.488 120.171 133.488C120.366 133.481 120.56 133.508 120.746 133.568C121.318 133.833 121.941 133.968 122.571 133.966C123.233 133.936 123.891 133.852 124.539 133.716C125.062 133.619 125.593 133.565 126.125 133.553C126.532 133.546 126.937 133.606 127.323 133.732C127.732 133.873 128.105 134.103 128.415 134.405C128.665 134.643 128.999 134.771 129.344 134.762C129.688 134.753 130.015 134.608 130.253 134.358C130.49 134.108 130.619 133.774 130.61 133.429C130.601 133.084 130.455 132.757 130.205 132.52L130.205 132.52C129.624 131.96 128.927 131.534 128.164 131.272C127.507 131.053 126.818 130.946 126.125 130.953C126.093 130.953 126.065 130.958 126.033 130.958C125.988 130.347 125.857 129.745 125.645 129.17C126.301 129.149 126.95 129.028 127.57 128.812C128.04 128.652 128.496 128.455 128.935 128.224C128.963 128.945 129.248 129.633 129.74 130.162C130.126 130.549 130.585 130.856 131.09 131.063C131.596 131.271 132.138 131.376 132.685 131.371C133.179 131.373 133.669 131.281 134.129 131.099C134.628 130.901 135.075 130.59 135.434 130.19C135.871 129.707 136.277 129.196 136.648 128.66C136.741 128.935 136.829 129.226 136.907 129.547C137.178 130.755 137.365 131.98 137.467 133.213C137.484 133.385 137.491 133.553 137.491 133.715C137.514 134.16 137.444 134.604 137.284 135.02C137.124 135.435 136.879 135.813 136.564 136.127Z"/><path id="Vector_16" d="M194.891 58.8673C194.073 57.2698 192.753 55.9852 191.134 55.2114C189.452 54.4444 187.617 54.0691 185.769 54.1139C182.898 54.1854 180.057 54.717 177.354 55.6887C172.537 57.3924 167.988 59.777 163.847 62.7698C160.166 65.3612 156.824 68.4015 153.896 71.8201C153.039 67.9554 151.666 64.2237 149.813 60.7255C149.735 60.5732 149.629 60.4376 149.499 60.3266C149.369 60.2156 149.218 60.1313 149.056 60.0785C148.893 60.0257 148.722 60.0055 148.551 60.0191C148.381 60.0326 148.215 60.0796 148.063 60.1573C147.911 60.2351 147.775 60.3421 147.664 60.4722C147.554 60.6024 147.47 60.7531 147.417 60.9157C147.365 61.0783 147.345 61.2497 147.359 61.4201C147.373 61.5904 147.42 61.7563 147.498 61.9084C149.084 65.0019 151.769 70.7641 151.923 77.1934V77.1908C151.929 77.4598 151.932 77.7261 151.932 77.9898C151.93 79.9745 151.743 81.9547 151.375 83.9051C149.277 82.9086 147.085 82.1225 144.832 81.5584C144.665 81.5168 144.493 81.5086 144.323 81.534C144.154 81.5595 143.991 81.6182 143.844 81.7068C143.698 81.7953 143.57 81.912 143.468 82.0501C143.367 82.1882 143.294 82.345 143.253 82.5115C143.213 82.6779 143.205 82.8508 143.232 83.0201C143.258 83.1893 143.318 83.3517 143.407 83.4979C143.497 83.6441 143.614 83.7711 143.753 83.8717C143.891 83.9724 144.049 84.0446 144.215 84.0843L144.215 84.0842C147.142 84.8374 149.963 85.9568 152.61 87.4158C156.557 89.5025 160.341 92.0658 164.868 94.1335C168.653 95.8921 172.7 97.0226 176.848 97.4805C177.034 98.7663 177.169 100.697 177.248 102.345C177.292 103.237 177.322 104.047 177.341 104.661C169.63 104.166 163.788 101.496 158.292 98.4768C155.254 96.806 152.334 95.029 149.29 93.4888C146.222 91.8632 142.94 90.6796 139.541 89.9731C139.203 89.9101 138.854 89.9835 138.57 90.1773C138.286 90.371 138.09 90.6693 138.026 91.0069C137.961 91.3446 138.033 91.694 138.226 91.9788C138.418 92.2636 138.715 92.4607 139.053 92.5268C141.428 93.0033 143.74 93.7561 145.94 94.7697C145.99 94.815 146.043 94.856 146.1 94.8925L146.1 94.8924C146.429 95.0536 146.728 95.2322 147.047 95.3997C145.833 97.4711 144.475 99.4551 142.984 101.337C135.658 110.818 125.434 115.675 116.449 118.158C110.332 119.824 104.026 120.698 97.6859 120.756C97.4372 120.759 97.1891 120.76 96.9418 120.76C86.645 120.713 76.4861 118.389 67.1928 113.955C63.248 112.096 59.5416 109.767 56.1537 107.021C53.4219 104.862 51.1029 102.227 49.3088 99.2431C46.6228 94.3791 45.113 88.9537 44.9001 83.4014C45.0009 83.4143 45.1047 83.431 45.205 83.4435C45.9174 83.5319 46.2378 80.9517 45.5254 80.8633L45.5251 80.8632C45.3054 80.836 44.3911 77.427 43.6743 77.3895C43.5038 77.3805 43.3333 77.4052 43.1724 77.4622C43.0114 77.5192 42.8633 77.6073 42.7365 77.7216C42.6096 77.8358 42.5065 77.9739 42.4331 78.128C42.3596 78.282 42.3172 78.4491 42.3083 78.6195L42.308 78.6195C42.2773 79.204 42.2719 79.7884 42.2614 80.3728C35.3859 79.2084 28.6886 77.1649 22.3342 74.2925C19.2596 72.9391 16.4067 71.1297 13.8718 68.9254C12.9575 68.1042 12.1778 67.1446 11.5612 66.0815C11.08 65.2564 10.8176 64.3219 10.7991 63.3668C10.808 62.5297 11.021 61.7073 11.4197 60.9712C11.9774 59.8685 12.8865 58.983 14.0035 58.4546C15.3311 57.8608 16.7758 57.575 18.2295 57.6185C21.9301 57.7872 25.5611 58.6835 28.915 60.256C33.0727 62.0895 36.9868 64.4319 40.5674 67.2296C41.1343 67.6702 42.73 65.6172 42.1631 65.1766C38.4094 62.2444 34.306 59.7899 29.947 57.8695C26.2683 56.1531 22.2855 55.184 18.2295 55.0184C16.3809 54.9735 14.5463 55.3493 12.8643 56.1173C11.2454 56.8922 9.9263 58.1781 9.11035 59.7766C8.52075 60.882 8.2081 62.114 8.19922 63.3667C8.21756 64.7598 8.59063 66.1253 9.28322 67.3342C10.737 69.6967 12.7126 71.6948 15.0584 73.1754C19.4537 76.013 24.2152 78.2384 29.2114 79.7902C33.4821 81.1962 37.8538 82.2739 42.2886 83.0141C42.4509 89.1448 44.0811 95.1472 47.0425 100.518C48.9921 103.781 51.5178 106.663 54.4966 109.024C64.2019 117.037 80.0779 123.348 96.9419 123.361C97.1995 123.361 97.4575 123.359 97.7158 123.356C104.28 123.295 110.808 122.39 117.142 120.664C125.774 118.278 135.663 113.733 143.271 105.062C145.608 106.249 147.791 107.717 149.773 109.432C153.307 112.376 156.856 115.999 161.231 119.27C166.069 123.002 171.679 125.608 177.651 126.897C177.818 126.932 177.99 126.934 178.158 126.903C178.326 126.872 178.486 126.808 178.63 126.716C178.773 126.623 178.896 126.502 178.993 126.362C179.09 126.221 179.158 126.063 179.193 125.896C179.229 125.729 179.231 125.556 179.2 125.389C179.169 125.221 179.105 125.061 179.012 124.917C178.919 124.774 178.799 124.651 178.659 124.554C178.518 124.457 178.36 124.389 178.193 124.354C169.671 122.535 163.906 118.372 158.804 113.955C156.257 111.748 153.887 109.479 151.438 107.435C149.45 105.73 147.283 104.246 144.975 103.009C144.996 102.981 145.019 102.955 145.041 102.927C146.608 100.948 148.033 98.8607 149.308 96.6817C154.419 99.8215 158.208 103.721 162.173 107.445C164.532 109.748 167.103 111.823 169.851 113.643C172.923 115.615 176.327 117.014 179.899 117.771C180.235 117.841 180.585 117.775 180.872 117.587C181.16 117.4 181.362 117.107 181.434 116.771C181.506 116.436 181.442 116.085 181.257 115.796C181.072 115.508 180.78 115.304 180.445 115.229C177.175 114.537 174.058 113.257 171.247 111.45C167.562 109.108 164.474 106.048 161.121 102.863C161.372 102.983 161.618 103.108 161.872 103.226C167.488 105.934 173.642 107.344 179.877 107.35C181.175 107.35 182.519 107.29 183.91 107.17C184.253 107.139 184.569 106.973 184.789 106.709C185.01 106.445 185.117 106.105 185.087 105.762C185.057 105.42 184.892 105.103 184.629 104.881C184.366 104.66 184.026 104.551 183.684 104.58C182.388 104.693 181.145 104.746 179.946 104.748C179.928 104.175 179.9 103.392 179.859 102.518L183.501 102.298C183.671 102.287 183.838 102.243 183.991 102.169C184.145 102.094 184.282 101.99 184.395 101.862C184.508 101.734 184.595 101.585 184.651 101.424C184.706 101.262 184.73 101.092 184.719 100.921C184.709 100.751 184.665 100.584 184.591 100.431C184.516 100.277 184.412 100.14 184.284 100.027C184.156 99.9135 184.007 99.8266 183.846 99.771C183.684 99.7153 183.514 99.692 183.343 99.7023L179.707 99.9227C179.65 99.1404 179.58 98.3736 179.496 97.6784C180.146 97.7077 180.8 97.7337 181.48 97.7333C182.253 97.7333 183.047 97.7133 183.861 97.6734C184.204 97.6549 184.526 97.5011 184.757 97.2458C184.987 96.9905 185.106 96.6544 185.089 96.3111C185.072 95.9677 184.92 95.6451 184.666 95.4137C184.412 95.1824 184.076 95.0612 183.733 95.0766C182.96 95.1148 182.209 95.1337 181.48 95.1333C172.918 95.1237 167.18 92.6282 161.816 89.6626C160.694 89.0407 159.591 88.3964 158.486 87.7515C158.503 87.602 158.494 87.4505 158.459 87.3041C158.047 85.7495 157.567 84.2237 157.048 82.7181C165.454 81.8267 173.68 79.6782 181.449 76.3443C185.072 74.8441 188.451 72.81 191.473 70.3097C192.7 69.263 193.752 68.0274 194.589 66.6493C195.359 65.3845 195.776 63.9371 195.799 62.4568C195.79 61.2046 195.478 59.9732 194.891 58.8673ZM153.827 85.1182L153.797 85.103C153.971 84.2648 154.11 83.3973 154.226 82.5129C154.64 83.647 155.016 84.7997 155.367 85.9641C154.857 85.6791 154.347 85.3938 153.827 85.1182ZM192.342 65.343C190.91 67.485 189.013 69.2752 186.792 70.5798C182.192 73.3792 177.237 75.5471 172.059 77.0251C166.868 78.6235 161.528 79.6887 156.122 80.204C155.641 78.9752 155.138 77.759 154.591 76.5717C154.56 76.5225 154.525 76.4756 154.488 76.4313C154.468 76.0477 154.442 75.6675 154.408 75.2906C154.452 75.2563 154.494 75.2189 154.534 75.1788H154.533C158.677 69.9054 163.796 65.4772 169.61 62.1349C172.328 60.5231 175.202 59.1887 178.187 58.1519C180.622 57.272 183.181 56.7866 185.769 56.714C187.223 56.6706 188.668 56.9561 189.996 57.5493C191.112 58.0765 192.022 58.9603 192.581 60.0613C192.978 60.7979 193.19 61.6201 193.199 62.457C193.176 63.4783 192.88 64.4749 192.342 65.343Z"/><path id="Vector_17" d="M174.796 115.767L172.546 123.642C172.499 123.807 172.485 123.978 172.505 124.148C172.524 124.318 172.577 124.482 172.66 124.631C172.743 124.78 172.854 124.912 172.988 125.018C173.121 125.124 173.275 125.203 173.439 125.249C173.603 125.296 173.775 125.311 173.944 125.291C174.114 125.272 174.278 125.219 174.427 125.136C174.576 125.053 174.708 124.942 174.814 124.808C174.92 124.674 174.999 124.521 175.046 124.357L177.296 116.482C177.343 116.318 177.357 116.146 177.337 115.976C177.318 115.807 177.265 115.643 177.182 115.493C177.099 115.344 176.988 115.213 176.854 115.107C176.721 115 176.567 114.922 176.403 114.875C176.239 114.828 176.067 114.814 175.898 114.833C175.728 114.853 175.564 114.905 175.415 114.988C175.266 115.071 175.134 115.183 175.028 115.316C174.922 115.45 174.843 115.603 174.796 115.767Z"/><path id="Vector_18" d="M175.44 121.375L178.94 122.375C179.27 122.466 179.624 122.424 179.923 122.256C180.223 122.088 180.444 121.809 180.538 121.479C180.632 121.149 180.592 120.795 180.427 120.495C180.261 120.194 179.983 119.971 179.654 119.875L176.154 118.875C175.823 118.783 175.47 118.825 175.17 118.993C174.871 119.161 174.65 119.44 174.556 119.77C174.462 120.1 174.502 120.454 174.667 120.754C174.833 121.055 175.111 121.278 175.44 121.375Z"/><path id="Vector_19" d="M143.402 40.2059C143.381 40.114 143.349 40.0248 143.308 39.9401H143.308C141.211 36.4295 138.293 33.4814 134.803 31.3497C131.237 29.1684 127.139 28.0104 122.958 28.0025C117.732 27.9908 112.66 29.7778 108.596 33.0633C105.116 35.7438 102.294 38.9239 99.2042 41.3486C97.7118 42.5645 96.0562 43.565 94.2857 44.3209C92.3713 45.1034 90.3206 45.498 88.2525 45.4817C85.7192 45.5537 83.2108 44.9654 80.9737 43.7745C78.1417 42.2189 76.1339 39.7075 73.9881 37.0297C71.8443 34.3713 69.5523 31.5435 66.0008 29.7625C64.7154 29.1147 63.2955 28.7782 61.8561 28.7803C59.9508 28.8208 58.0825 29.3134 56.4049 30.2173C53.9176 31.567 51.6884 33.3454 49.8199 35.4707C48.3054 37.092 47.0191 38.9122 45.9964 40.881C45.9884 40.8978 45.9908 40.9159 45.9835 40.9329C42.0436 48.001 39.9891 55.9642 40.0179 64.0561C39.9926 70.2881 41.3182 76.4515 43.9034 82.122C46.4887 87.7925 50.2721 92.8354 54.9933 96.9034C64.5692 105.294 78.2877 110.428 94.8941 110.426C111.501 110.428 125.219 105.294 134.796 96.9034C139.517 92.8354 143.3 87.7925 145.886 82.122C148.471 76.4515 149.796 70.2881 149.771 64.0561C149.807 55.6812 147.608 47.4482 143.402 40.2059ZM133.082 94.9479C124.041 102.869 110.971 107.825 94.8941 107.826C78.8177 107.825 65.7481 102.869 56.7066 94.9479C52.2633 91.1245 48.7025 86.3825 46.2701 81.0491C43.8377 75.7157 42.5915 69.918 42.6177 64.0561C42.575 55.99 44.7273 48.0642 48.8443 41.1277C48.8595 41.0907 48.8729 41.053 48.8843 41.0146C49.3015 40.3218 49.7576 39.6532 50.2503 39.0119C51.7406 37.044 53.504 35.2986 55.4871 33.8285C57.3069 32.3753 59.5314 31.5202 61.856 31.3802C62.8919 31.3777 63.9137 31.6202 64.8379 32.0881C66.7393 33.0941 68.4302 34.4551 69.8194 36.0974C72.0135 38.5279 73.931 41.4666 76.6639 43.8818C78.0931 45.1645 79.7369 46.1858 81.5201 46.8988C84.0722 47.8401 86.7956 48.2269 89.5088 48.0335C92.2221 47.8401 94.8631 47.071 97.2559 45.7773C101.071 43.6788 103.998 40.571 107.056 37.782C110.117 34.9803 113.259 32.5023 117.438 31.3582C119.236 30.8603 121.092 30.6061 122.958 30.6025C126.664 30.6101 130.296 31.638 133.456 33.5733C136.47 35.4191 139.01 37.9466 140.87 40.9526C140.882 40.9937 140.896 41.0341 140.913 41.0737L140.912 41.0736C145.05 48.0226 147.214 55.9686 147.171 64.0561C147.197 69.9179 145.951 75.7157 143.519 81.0491C141.086 86.3825 137.526 91.1245 133.082 94.9479V94.9479Z"/></g></g></svg>