<svg width="200" height="200" viewBox="0 0 200 200" xmlns="http://www.w3.org/2000/svg"><g id="type=sim, mode=dark"><g id="lovely-cat"><g id="Group 432527053"><path id="Vector" d="M144.9 152.678C145.025 155.933 145.088 159.572 145.088 163.336C145.088 167.101 145.025 170.992 144.899 174.756C144.875 175.473 145.437 176.074 146.155 176.099C146.873 176.123 147.474 175.56 147.498 174.843C147.624 171.048 147.687 167.13 147.687 163.336C147.687 159.543 147.624 155.874 147.497 152.578C147.469 151.861 146.866 151.302 146.149 151.33C145.431 151.357 144.872 151.961 144.9 152.678V152.678Z"/><path id="Vector_2" d="M158.221 144.338C159.09 142.377 159.701 140.042 159.703 137.618C159.704 135.802 159.353 133.93 158.476 132.184C157.602 130.438 156.196 128.839 154.194 127.591C153.585 127.211 152.783 127.396 152.403 128.005C152.022 128.614 152.207 129.416 152.817 129.796C154.442 130.815 155.485 132.027 156.153 133.351C156.818 134.675 157.102 136.131 157.103 137.618C157.105 139.596 156.588 141.614 155.845 143.282C155.553 143.938 155.849 144.706 156.505 144.998C157.161 145.29 157.929 144.994 158.221 144.338L158.221 144.338Z"/><path id="Vector_3" d="M101.948 111.278C103.132 111.673 104.265 111.842 105.318 111.841C107.286 111.841 108.952 111.256 110.224 110.56C111.5 109.863 112.397 109.058 112.894 108.549C113.395 108.035 113.385 107.212 112.871 106.711C112.357 106.21 111.534 106.22 111.033 106.734C110.677 107.099 109.959 107.745 108.979 108.278C107.996 108.814 106.765 109.241 105.318 109.241C104.54 109.241 103.695 109.119 102.77 108.812C102.089 108.585 101.353 108.953 101.126 109.634C100.899 110.315 101.267 111.051 101.948 111.278L101.948 111.278Z"/><path id="Vector_4" d="M124.412 105.696C125.824 106.095 127.163 106.233 128.342 106.233C131.084 106.231 132.967 105.498 133.066 105.462C133.734 105.2 134.064 104.446 133.803 103.778C133.542 103.109 132.788 102.779 132.119 103.04L132.118 103.041C132.014 103.081 130.468 103.636 128.342 103.634C127.366 103.634 126.268 103.519 125.119 103.194C124.427 102.999 123.709 103.401 123.514 104.092C123.319 104.783 123.721 105.501 124.412 105.697L124.412 105.696Z"/><path id="Vector_5" d="M140.813 148.99C140.196 148.624 139.398 148.829 139.033 149.447V149.446C131.727 161.791 123.418 176.143 117.117 187.233C116.872 187.651 116.327 187.964 115.691 187.963C115.396 187.963 115.09 187.896 114.792 187.749C105.465 182.455 87.8696 172.399 79.8696 167.399L79.8496 167.387C79.4302 167.141 79.1167 166.596 79.1172 165.96C79.1177 165.673 79.1836 165.377 79.3223 165.088C80.1455 163.939 80.8701 162.489 81.8213 160.832C82.1772 160.208 81.9605 159.414 81.3374 159.058C80.7139 158.702 79.9199 158.919 79.564 159.542C78.542 161.337 77.7739 162.846 77.1328 163.69L77.0107 163.887C76.6753 164.555 76.5171 165.268 76.5176 165.96C76.5181 167.413 77.2129 168.817 78.4927 169.602L78.4917 169.604C86.6025 174.671 104.229 184.743 113.56 190.039L113.621 190.072C114.287 190.404 114.998 190.563 115.691 190.563C117.151 190.562 118.564 189.862 119.347 188.57L119.363 188.543C125.657 177.465 133.968 163.108 141.27 150.771C141.636 150.153 141.431 149.356 140.813 148.99Z"/><path id="Vector_6" d="M155.959 121.481C155.614 120.876 155.076 120.359 154.408 120.011L154.41 120.008L126.192 103.631L126.121 103.593C125.655 103.363 125.001 103.103 124.182 103.099C123.883 103.098 123.563 103.146 123.24 103.239L123.239 103.235L113.214 105.49C112.628 105.537 112.072 105.769 111.671 106.091C111.21 106.454 110.891 106.878 110.601 107.309L110.556 107.381C106.784 113.92 98.4688 128.031 90.9102 140.88C90.546 141.499 90.753 142.296 91.3716 142.66C91.9903 143.024 92.7872 142.817 93.1514 142.199V142.198C100.691 129.38 108.979 115.316 112.778 108.732C112.985 108.421 113.165 108.219 113.268 108.143C113.381 108.066 113.362 108.079 113.446 108.071C113.54 108.071 113.639 108.059 113.731 108.039L123.809 105.771L123.936 105.736C124.012 105.711 124.089 105.699 124.182 105.699C124.396 105.694 124.697 105.788 124.941 105.911L153.105 122.256L153.176 122.295C153.444 122.431 153.592 122.586 153.703 122.774C153.812 122.963 153.877 123.203 153.877 123.496C153.878 123.813 153.791 124.188 153.611 124.558C152.336 126.604 150.582 129.614 148.579 133.369C148.241 134.002 148.481 134.79 149.114 135.128C149.748 135.466 150.535 135.226 150.874 134.593C152.876 130.837 154.628 127.836 155.868 125.852L155.929 125.743C156.281 125.034 156.477 124.269 156.478 123.496C156.478 122.808 156.318 122.108 155.959 121.481Z"/><path id="Vector_7" d="M97.6812 169.881L111.287 177.69L111.302 177.699C112.254 178.228 113.287 178.479 114.294 178.478C116.304 178.478 118.235 177.489 119.333 175.741L119.354 175.707L132.456 153.284L132.47 153.259C132.999 152.307 133.249 151.274 133.249 150.267C133.248 148.257 132.26 146.325 130.51 145.227L130.469 145.202L116.863 137.392L116.861 137.395C115.875 136.755 114.779 136.431 113.707 136.432C111.708 136.427 109.825 137.532 108.797 139.376L108.795 139.375L95.6938 161.799L95.6802 161.823C95.1509 162.774 94.8999 163.808 94.9004 164.815C94.9009 166.825 95.8887 168.757 97.6387 169.855L97.6812 169.881ZM106.867 163.552L111.437 166.197L107.788 172.684L103.188 170.043L106.867 163.552ZM117.127 174.364C116.544 175.3 115.454 175.879 114.294 175.878C113.715 175.878 113.127 175.737 112.568 175.428L110.042 173.978L113.687 167.5L114.306 167.858L114.307 167.856C115.638 168.668 117.099 169.071 118.528 169.07C119.148 169.072 119.76 168.988 120.355 168.84L117.127 174.364ZM130.648 150.267C130.648 150.845 130.507 151.435 130.198 151.994L126.524 158.282C126.257 157.121 125.754 156.04 125.066 155.12C124.635 154.545 123.82 154.429 123.246 154.86C122.672 155.291 122.556 156.106 122.987 156.68L122.986 156.68C123.699 157.625 124.146 158.883 124.143 160.138C124.142 161.044 123.92 161.945 123.415 162.79L123.368 162.876L122.879 163.854C121.949 165.562 120.312 166.462 118.528 166.47C117.574 166.469 116.581 166.204 115.638 165.626L115.608 165.608L106.034 160.066L105.999 160.046C104.287 159.117 103.385 157.478 103.377 155.692C103.378 154.737 103.643 153.744 104.222 152.802L104.278 152.702L104.767 151.724C105.696 150.015 107.333 149.115 109.117 149.107C110.071 149.108 111.064 149.372 112.008 149.952L112.037 149.969L119.846 154.504C120.463 154.863 121.257 154.655 121.62 154.039L126.421 145.876L129.136 147.435C130.07 148.017 130.649 149.107 130.648 150.267ZM124.167 144.582L120.034 151.607L115.492 148.969L119.672 142.002L124.167 144.582ZM113.707 139.032C114.287 139.033 114.894 139.201 115.495 139.6L115.568 139.646L117.417 140.707L113.24 147.669C111.934 146.896 110.511 146.507 109.117 146.507C108.581 146.506 108.053 146.577 107.534 146.688L111.041 140.687L111.055 140.661C111.656 139.59 112.651 139.037 113.707 139.032ZM97.9507 163.09L101.067 157.757C101.588 159.595 102.816 161.224 104.62 162.243L100.933 168.749L99.0132 167.647C98.0767 167.063 97.4995 165.975 97.5 164.815C97.5005 164.237 97.6411 163.649 97.9507 163.09Z"/><path id="Vector_8" d="M157.57 142.626C156.917 142.329 156.146 142.618 155.849 143.272C153.354 148.731 149.281 150.715 146.148 150.723C144.834 150.724 143.701 150.366 142.922 149.806C141.199 148.561 140.393 146.859 140.38 144.898C140.38 144.786 140.401 144.669 140.407 144.555C140.546 144.728 140.68 144.902 140.837 145.071C141.784 146.089 143.065 147.023 144.683 147.351C145.386 147.492 146.071 147.035 146.212 146.332C146.353 145.627 145.897 144.943 145.193 144.802L145.192 144.802C144.292 144.626 143.431 144.048 142.742 143.302C142.06 142.575 141.569 141.687 141.391 141.145C141.509 140.919 141.617 140.693 141.758 140.468L141.765 140.456C141.981 140.103 142.2 139.783 142.422 139.478C142.914 139.976 143.491 140.436 144.166 140.818C145.271 141.441 146.617 141.86 148.108 141.86C148.345 141.86 148.587 141.85 148.834 141.828C149.548 141.764 150.076 141.132 150.012 140.417C149.947 139.702 149.315 139.174 148.6 139.239V139.239C148.435 139.253 148.271 139.26 148.108 139.26C147.108 139.26 146.2 138.98 145.442 138.553C144.936 138.27 144.51 137.916 144.177 137.561C144.39 137.383 144.603 137.213 144.816 137.071C145.853 136.383 146.874 136.085 147.939 136.082C148.616 136.082 149.317 136.208 150.045 136.468L150.045 136.466C150.736 136.739 151.339 136.896 151.872 136.971C152.418 137.049 152.877 137.047 153.253 137.047C153.971 137.047 154.553 136.465 154.553 135.747C154.553 135.029 153.971 134.448 153.253 134.448V134.447C152.873 134.448 152.577 134.445 152.24 134.397C151.904 134.349 151.512 134.255 150.964 134.036L150.919 134.019C149.943 133.67 148.942 133.482 147.939 133.482C146.361 133.479 144.791 133.958 143.373 134.908C141.954 135.855 140.678 137.252 139.553 139.09L139.553 139.089C139.551 139.092 139.55 139.094 139.549 139.096C139.548 139.098 139.547 139.099 139.546 139.101V139.101C138.387 140.959 137.781 142.956 137.78 144.898C137.768 147.619 139.019 150.228 141.412 151.922C142.717 152.852 144.373 153.321 146.148 153.323C150.381 153.331 155.383 150.602 158.216 144.348C158.513 143.694 158.224 142.924 157.57 142.626Z"/><path id="Vector_9" d="M171.062 94.8579C165.852 91.2197 159.307 87.5064 152.492 84.4497C150.039 83.3504 147.553 82.3404 145.079 81.4466C146.636 71.5454 148.232 62.6353 149.522 55.8047C150.324 51.5596 151.008 48.1167 151.491 45.7364C151.733 44.5462 151.924 43.6214 152.055 42.9949C152.186 42.3682 152.256 42.0427 152.256 42.0418C152.351 41.5957 152.204 41.1282 151.87 40.8176C151.536 40.5071 151.059 40.3938 150.621 40.5213L123.516 48.4065C118.967 45.0376 112.729 42.0234 107.499 39.7864C103.223 37.9614 99.6541 36.6738 98.3128 36.2029L89.2088 12.8279C89.0589 12.4431 88.7308 12.1499 88.3323 12.0435C87.9334 11.9373 87.5027 12.0283 87.1814 12.2876C87.1214 12.3394 74.2737 22.7017 59.6341 42.4097C58.4485 41.7717 57.2019 41.1172 55.8977 40.4526C45.7469 35.2849 32.2366 29.5632 18.6663 27.3833C17.9573 27.2695 17.2903 27.7522 17.1766 28.4612C17.0628 29.1699 17.5457 29.8369 18.2547 29.9507L18.2542 29.9504C31.3909 32.0537 44.7132 37.6699 54.7181 42.7693C55.889 43.3657 57.0096 43.9536 58.0843 44.5293C56.6438 46.5181 55.1907 48.5972 53.7332 50.7629C50.4944 49.489 47.011 48.2446 43.3807 47.1336C35.2312 44.6419 26.4261 42.8059 18.367 42.8035C16.9036 42.8035 15.4642 42.8645 14.0574 42.9944C13.3421 43.0606 12.8162 43.6939 12.8826 44.4089C12.9485 45.1238 13.5818 45.6499 14.2972 45.5837L14.2967 45.5835C15.616 45.4614 16.9759 45.4033 18.367 45.4033C26.0315 45.4009 34.6351 47.1741 42.6199 49.6196C45.9851 50.6492 49.2283 51.7991 52.2635 52.9793C50.993 54.9175 49.7229 56.9111 48.4598 58.9819C41.1458 57.5239 32.8694 56.4129 25.386 56.4099C23.6668 56.4099 21.9891 56.4693 20.3728 56.5974C19.657 56.6543 19.1228 57.2805 19.18 57.9966C19.2366 58.7124 19.8631 59.2466 20.5789 59.1897V59.1895C22.1165 59.0672 23.7268 59.0098 25.386 59.0098C32.3128 59.0088 40.073 60.0115 47.0379 61.3565C42.4153 69.1533 37.9192 77.8255 33.8914 87.3706L33.8899 87.3738C20.4637 119.456 18.6966 151.037 18.6932 165.579C18.6932 170.83 18.9256 173.86 18.9275 173.889C18.9827 174.605 19.6077 175.14 20.3235 175.085C21.0393 175.03 21.5755 174.405 21.5203 173.689V173.689L21.511 173.561C21.4685 172.942 21.2933 170.107 21.2933 165.579C21.2898 151.248 23.0584 119.969 36.2884 88.3779L36.2869 88.3811C40.3987 78.6333 45.0086 69.8067 49.7405 61.9024C53.0877 62.6106 56.1961 63.3794 58.8372 64.1306C61.7171 64.9492 64.0638 65.7493 65.5662 66.3941C66.2259 66.6768 66.9905 66.3711 67.2732 65.7114C67.5559 65.0515 67.2503 64.2871 66.5906 64.0044C64.9158 63.2876 62.5017 62.4707 59.5486 61.6299C57.0794 60.9285 54.2308 60.2144 51.1643 59.5466C52.3484 57.625 53.5374 55.7661 54.7264 53.9619C57.9109 55.2686 60.805 56.585 63.2293 57.7974C63.8714 58.1184 64.6521 57.8582 64.9734 57.2163C65.2947 56.5742 65.0345 55.7932 64.3924 55.4722C62.0315 54.292 59.2488 53.0225 56.2 51.7583C57.6033 49.6843 59.0013 47.6917 60.388 45.7839C62.91 47.1797 65.0896 48.46 66.8201 49.5125C68.2811 50.4011 69.428 51.1299 70.2078 51.635C70.5979 51.8877 70.8963 52.0845 71.0955 52.2173C71.1956 52.2837 71.2708 52.3342 71.3206 52.3677L71.3924 52.4165C71.9851 52.8211 72.7942 52.6685 73.199 52.0757C73.6038 51.4827 73.451 50.6736 72.8582 50.2691C72.8328 50.252 68.6399 47.3958 61.9368 43.6704C64.7864 39.8482 67.5647 36.3828 70.1878 33.2881C75.4925 27.0286 80.1614 22.2744 83.4978 19.0901C85.1658 17.4978 86.5013 16.2984 87.4163 15.4993C87.428 15.4888 87.4363 15.482 87.448 15.4717L96.1082 37.7061C96.2478 38.0652 96.5379 38.3421 96.9031 38.4659C96.9031 38.4659 96.9646 38.4866 97.0896 38.5298C98.0257 38.8531 102.371 40.3821 107.491 42.6145C112.606 44.8416 118.508 47.7945 122.476 50.8611C122.806 51.1158 123.232 51.1966 123.633 51.0801L149.269 43.6221C148.195 48.8382 145.338 63.1338 142.583 80.586C139.041 79.4217 135.561 78.5276 132.287 78.0227C131.577 77.9136 130.913 78.4004 130.804 79.1101C130.695 79.8196 131.182 80.4834 131.892 80.5926L131.891 80.5923C135.11 81.0855 138.6 81.9942 142.177 83.1902C141.91 84.9165 141.645 86.6675 141.384 88.4427L141.383 88.4539C141.33 88.8318 141.293 89.219 141.249 89.6016C137.393 87.4268 133.679 85.5603 130.323 84.156C129.66 83.8789 128.899 84.1914 128.622 84.854C128.345 85.5164 128.658 86.2779 129.32 86.555V86.5547C132.845 88.0279 136.834 90.0555 140.986 92.4427C140.866 94.2112 140.805 96.0205 140.805 97.8824C140.805 98.5745 140.828 99.2886 140.842 99.9937C136.792 97.6875 132.507 95.6421 128.007 93.9634C127.334 93.7124 126.586 94.0547 126.335 94.7276C126.084 95.4002 126.426 96.149 127.099 96.3999V96.3997C131.971 98.2156 136.595 100.482 140.934 103.056C141.077 106.456 141.327 109.986 141.626 113.679C141.684 114.395 142.311 114.928 143.027 114.87C143.743 114.812 144.276 114.185 144.218 113.469C143.971 110.43 143.759 107.516 143.611 104.708C151.174 109.549 157.775 115.307 163.119 121.247C163.599 121.78 164.421 121.824 164.955 121.343C165.489 120.863 165.532 120.041 165.052 119.507C159.196 113.002 151.894 106.714 143.468 101.545C143.428 100.3 143.406 99.0787 143.406 97.8824C143.406 96.5269 143.442 95.2102 143.504 93.9183C146.572 95.7608 149.696 97.7779 152.765 99.9034C160.892 105.528 168.647 111.914 173.961 117.726C174.446 118.256 175.268 118.292 175.798 117.808C176.327 117.323 176.364 116.501 175.88 115.971C170.36 109.941 162.493 103.478 154.244 97.7654C150.745 95.3438 147.186 93.0738 143.702 91.0208C143.773 90.2745 143.857 89.5391 143.957 88.816C144.193 87.2124 144.432 85.6265 144.672 84.0623C149.153 85.7085 153.702 87.763 157.971 90.0013C162.224 92.229 166.205 94.6365 169.574 96.9895C172.941 99.3399 175.7 101.646 177.485 103.613C177.967 104.144 178.789 104.183 179.321 103.7C179.852 103.218 179.891 102.395 179.409 101.864C177.415 99.6731 174.536 97.2869 171.062 94.8579Z"/><path id="Vector_10" d="M89.9795 61.7449C90.5772 61.3464 90.7383 60.5393 90.3404 59.9419C89.6426 58.8987 88.6753 57.8145 87.42 56.9614C86.169 56.1106 84.6045 55.4971 82.8213 55.4985C82.0137 55.4983 81.1685 55.624 80.3038 55.895C79.6187 56.1094 79.2369 56.8386 79.4512 57.5239C79.6656 58.209 80.3951 58.5908 81.0801 58.3765V58.3762C81.7061 58.1809 82.2823 58.0986 82.8213 58.0984C84.0054 58.0999 85.0435 58.4941 85.961 59.1135C86.8741 59.7302 87.6412 60.5784 88.1768 61.3843C88.5748 61.9817 89.3819 62.1431 89.9795 61.7449Z"/><path id="Vector_11" d="M120.953 72.5811C119.632 71.4724 117.823 70.6404 115.637 70.6455C115.283 70.6455 114.921 70.667 114.552 70.7105C113.839 70.7947 113.329 71.4409 113.413 72.1543C113.497 72.8675 114.144 73.3772 114.857 73.293L114.857 73.2927C115.129 73.2605 115.389 73.2454 115.637 73.2454C117.17 73.2505 118.333 73.7906 119.288 74.5784C120.236 75.364 120.932 76.4214 121.327 77.3159C121.619 77.972 122.387 78.2674 123.043 77.9759C123.699 77.6841 123.994 76.9158 123.703 76.2598C123.165 75.0557 122.281 73.6919 120.953 72.5811Z"/><path id="Vector_12" d="M104.239 77.5132C103.908 77.5476 103.606 77.5637 103.331 77.5637C102.483 77.5632 101.894 77.4141 101.476 77.2156C100.858 76.9138 100.542 76.5093 100.306 75.9692C100.077 75.4343 99.9942 74.7707 99.9962 74.2068C99.9962 73.8589 100.025 73.5515 100.053 73.3394C100.067 73.2334 100.081 73.1511 100.09 73.0991L100.1 73.0449L100.102 73.0364L100.101 73.0361C100.217 72.5049 99.9942 71.9614 99.5372 71.6668C99.0797 71.3714 98.4913 71.3914 98.0553 71.7171L98.0548 71.7168C98.0391 71.7293 97.5475 72.0864 96.8287 72.4234C96.11 72.7642 95.1685 73.0701 94.2896 73.0659C93.8033 73.0652 93.3385 72.9812 92.8868 72.7776C92.4356 72.572 91.9835 72.2461 91.5274 71.6873C91.0748 71.1299 90.2559 71.0454 89.6988 71.4983C89.1417 71.951 89.0572 72.7696 89.5099 73.3269V73.3267C90.193 74.17 90.9864 74.7735 91.816 75.1468C92.6451 75.5223 93.4967 75.6665 94.2896 75.6658C95.4962 75.6621 96.5645 75.3479 97.4332 74.9903C97.5157 75.9063 97.7652 76.971 98.4483 77.9588C98.8922 78.5957 99.5343 79.1741 100.36 79.564C101.187 79.9568 102.177 80.1641 103.331 80.1636C103.706 80.1636 104.099 80.1421 104.511 80.0987C105.225 80.0235 105.743 79.3841 105.668 78.6702C105.593 77.9561 104.953 77.438 104.239 77.5132Z"/><path id="Vector_13" d="M193.765 72.3841C193.363 71.9448 192.914 71.5996 192.426 71.3689C191.939 71.137 191.419 71.0279 190.926 71.0293C190.056 71.032 189.304 71.3394 188.678 71.719C187.816 72.2486 187.149 72.9339 186.641 73.5283C185.552 72.6492 184.262 72.221 183.055 72.2215C182.093 72.2237 181.152 72.4812 180.386 73.0718C180.005 73.3667 179.675 73.7505 179.447 74.2071C179.218 74.6624 179.097 75.1851 179.098 75.7214C179.1 76.6211 179.417 77.5366 180.003 78.4568C180.592 79.3794 181.457 80.3247 182.657 81.3189C183.21 81.7766 184.029 81.6992 184.487 81.1463C184.945 80.593 184.868 79.7737 184.315 79.3159L184.314 79.3157C183.268 78.4507 182.589 77.6797 182.196 77.0601C181.799 76.4378 181.696 75.9849 181.698 75.7214C181.699 75.5601 181.729 75.459 181.772 75.3711C181.836 75.2437 181.948 75.1216 182.166 75.0093C182.379 74.8999 182.692 74.8206 183.055 74.8213C183.914 74.822 184.971 75.2456 185.699 76.28C185.95 76.635 186.366 76.8428 186.801 76.8296C187.235 76.8164 187.638 76.5835 187.867 76.2141L187.867 76.2139C187.895 76.1668 188.37 75.4297 189.025 74.7656C189.35 74.4331 189.719 74.1226 190.063 73.9197C190.41 73.7129 190.71 73.627 190.926 73.6292C191.057 73.6306 191.169 73.6519 191.313 73.7188C191.456 73.7864 191.635 73.908 191.849 74.1409C191.972 74.2903 191.989 74.342 192 74.5369C192.001 74.7046 191.945 74.9824 191.789 75.3284C191.521 75.9358 190.963 76.7149 190.271 77.4824C189.232 78.6401 187.904 79.792 186.846 80.6375C186.316 81.061 185.854 81.4099 185.526 81.6511C185.362 81.7717 185.231 81.8655 185.144 81.9282L185.043 81.9988L185.013 82.02C184.423 82.4287 184.276 83.2388 184.685 83.8291C185.093 84.4192 185.903 84.5664 186.494 84.1577C186.521 84.1375 188.441 82.8101 190.403 81.0203C191.385 80.1226 192.378 79.1128 193.166 78.0488C193.56 77.5154 193.903 76.9673 194.162 76.3901C194.418 75.8137 194.598 75.2004 194.6 74.5369C194.61 73.793 194.327 72.982 193.765 72.3841Z"/><path id="Vector_14" d="M20.8771 77.453C20.3712 78.0319 19.9142 78.5192 19.5861 78.8593C19.422 79.0294 19.2902 79.1627 19.2003 79.2526L19.0983 79.3536L19.0675 79.3842C18.5519 79.8839 18.5392 80.7069 19.0392 81.2225C19.5387 81.7379 20.362 81.7506 20.8776 81.2509C20.901 81.2267 22.4191 79.7562 23.9669 77.8075C24.7414 76.8309 25.5241 75.7365 26.1369 74.61C26.7423 73.4791 27.213 72.327 27.2248 71.0902C27.2253 70.6415 27.154 70.1776 26.9767 69.7311C26.8004 69.285 26.5138 68.8651 26.1418 68.526C25.3625 67.7992 24.4132 67.4005 23.4997 67.4083C22.5856 67.4103 21.8048 67.7623 21.1808 68.1913C20.3 68.8031 19.6574 69.588 19.1793 70.2579C18.1002 69.4835 16.9274 69.0956 15.8175 69.0951C14.8468 69.0953 13.9118 69.3881 13.1852 70.0011C12.4562 70.6058 11.9904 71.567 12.0002 72.5944C12.0021 73.6056 12.4005 74.6339 13.1378 75.6341C13.8795 76.6376 14.9704 77.6359 16.4875 78.6327C17.0876 79.0265 17.8937 78.8595 18.2877 78.2594C18.6813 77.6591 18.5143 76.8531 17.9142 76.4593V76.4591C16.5876 75.5897 15.7282 74.7687 15.2301 74.0912C14.7282 73.4105 14.5978 72.8961 14.5998 72.5944C14.6095 72.2841 14.6916 72.1456 14.8659 71.985C15.0426 71.8329 15.3664 71.6947 15.8175 71.6949C16.5368 71.6942 17.5451 72.0502 18.4967 73.1195C18.7824 73.441 19.2121 73.6009 19.6388 73.5445C20.0656 73.4881 20.4386 73.222 20.631 72.8373L20.6315 72.8365C20.6564 72.7838 21.0861 71.9654 21.7023 71.2342C22.0075 70.8685 22.359 70.5289 22.6852 70.3124C23.0163 70.0914 23.2907 70.0067 23.4997 70.0082C23.714 70.016 23.9538 70.0602 24.3849 70.4427C24.4777 70.5299 24.5221 70.5987 24.5607 70.692C24.5973 70.785 24.6247 70.9108 24.6252 71.0902C24.6369 71.5807 24.3634 72.4457 23.8527 73.3688C23.0978 74.7631 21.8888 76.299 20.8771 77.453Z"/><path id="Vector_15" d="M167.869 65.0012C168.454 65.417 169.266 65.2798 169.682 64.6948C170.098 64.1096 169.96 63.2978 169.375 62.8821L169.375 62.8818C164.323 59.291 162.712 55.4106 162.717 52.8315C162.716 51.79 162.978 50.9651 163.33 50.4365C163.691 49.9036 164.083 49.6702 164.51 49.6091C164.627 49.5935 164.738 49.5862 164.846 49.5862C165.415 49.5864 165.967 49.7795 166.525 50.1348C167.358 50.6614 168.132 51.5571 168.659 52.323C168.924 52.7051 169.131 53.052 169.269 53.2976C169.337 53.4207 169.389 53.5183 169.422 53.5825L169.457 53.6526L169.464 53.6665L169.464 53.667C169.669 54.0972 170.092 54.3801 170.568 54.4058C171.043 54.4312 171.493 54.1953 171.744 53.7905L171.745 53.7888H171.745C171.757 53.7659 172.414 52.7278 173.412 51.7522C173.911 51.262 174.495 50.7908 175.096 50.4614C175.7 50.1299 176.304 49.9439 176.893 49.9443C177.397 49.9475 177.91 50.0691 178.511 50.4299C178.799 50.6182 178.952 50.801 179.067 51.0288C179.179 51.2586 179.25 51.5586 179.25 51.9595C179.263 52.9219 178.782 54.397 177.965 55.9539C176.751 58.3013 174.86 60.8606 173.282 62.802C172.492 63.7742 171.78 64.5957 171.268 65.1719C171.011 65.4597 170.805 65.6865 170.663 65.8401L170.502 66.0144L170.449 66.0703C169.956 66.5918 169.978 67.4148 170.5 67.9084C171.021 68.4019 171.844 68.3794 172.338 67.8579C172.359 67.8345 174.674 65.3896 177.016 62.2346C178.187 60.6553 179.366 58.9001 180.273 57.1501C181.174 55.3943 181.837 53.6614 181.85 51.9595C181.851 51.2539 181.724 50.5415 181.401 49.8838C181.082 49.2261 180.561 48.6477 179.901 48.2315L179.881 48.2192C178.904 47.6179 177.868 47.3413 176.893 47.3445C175.735 47.3452 174.69 47.7109 173.802 48.2063C172.498 48.9373 171.486 49.947 170.758 50.7903C170.55 50.4941 170.315 50.1804 170.049 49.8616C169.483 49.189 168.786 48.4959 167.926 47.9443C167.07 47.3958 166.025 46.9861 164.846 46.9863C164.621 46.9863 164.394 47.0015 164.167 47.032C162.908 47.1948 161.839 47.9634 161.161 49.0034C160.474 50.0476 160.119 51.366 160.117 52.8315C160.123 56.4748 162.316 61.0569 167.869 65.0012Z"/><path id="Vector_16" d="M94.5891 143.857C93.2425 142 91.1409 140.416 88.2029 139.317L88.1887 139.312C82.407 137.223 75.1111 133.423 68.6018 128.74C62.0867 124.066 56.364 118.475 53.6365 112.995C53.3152 112.353 52.5344 112.093 51.8924 112.414C51.2503 112.735 50.99 113.516 51.3113 114.158C54.3787 120.268 60.3719 126.015 67.0838 130.851C73.7971 135.675 81.2332 139.557 87.2898 141.752C89.8523 142.715 91.4793 144.002 92.4856 145.385C92.8396 145.874 93.096 146.382 93.3103 146.898C91.7708 146.48 89.4007 145.875 87.4563 145.549C86.7478 145.431 86.0779 145.909 85.9602 146.618C85.8421 147.326 86.3206 147.996 87.0291 148.114L87.0286 148.114C88.4685 148.353 90.2737 148.787 91.7014 149.16C92.4163 149.347 93.0388 149.518 93.4812 149.642C93.6531 149.69 93.7874 149.728 93.8992 149.76C93.8992 149.779 93.9031 149.798 93.9031 149.816C93.9055 150.948 93.6678 152.087 93.2654 153.134C93.1653 153.115 93.0696 153.084 92.9636 153.091L92.8928 153.094C92.74 153.101 92.3513 153.116 91.8157 153.116C90.3938 153.122 87.8928 152.991 86.1428 152.399C85.4612 152.172 84.7254 152.54 84.4983 153.221C84.2713 153.903 84.6394 154.639 85.3211 154.866L85.3206 154.865C87.5886 155.612 90.219 155.708 91.7869 155.715C90.9534 156.744 89.9812 157.448 89.1634 157.673C87.8445 158.022 86.3094 158.2 84.6111 158.2C78.2288 158.21 69.6175 155.672 61.4568 151.224C53.2864 146.784 45.5496 140.446 40.7141 133.022C40.322 132.42 39.5164 132.251 38.9153 132.643C38.3137 133.035 38.1443 133.841 38.5364 134.442V134.442C43.7009 142.352 51.7469 148.898 60.2146 153.508C68.6917 158.11 77.5735 160.79 84.6111 160.8C86.4954 160.799 88.2522 160.605 89.843 160.184L89.8675 160.177C91.7405 159.627 93.3338 158.194 94.5301 156.359C95.7176 154.517 96.4998 152.227 96.5032 149.816C96.5061 147.809 95.9392 145.712 94.5891 143.857Z"/></g></g></g></svg>