<svg xmlns="http://www.w3.org/2000/svg" width="200" height="200" fill="none"><path fill="#FFD93A" d="M119.342 52.2c-16.336-2.306-49.33-2.362-68.127 0a46.007 46.007 0 0 0-40.203 45.638c0 23.328 14.667 42 39.876 45.595 18.1 2.582 48.772 4.263 68.781 0 22.21-4.731 36.876-22.267 36.876-45.595 0-23.442-14.58-42.447-37.203-45.639Zm9.172 78.045a36.681 36.681 0 0 1-32.119 1.078A36.672 36.672 0 0 1 82.46 75.255a36.671 36.671 0 0 1 28.886-14.084c20.25 0 36.666 16.816 36.666 37.066l-19.498 32.008Z"/><path fill="#191C22" d="M50.704 144.72a298.997 298.997 0 0 0 38.301 2.272c6.06-.001 11.975-.168 17.283-.537a96.207 96.207 0 0 0 13.664-1.753 53.044 53.044 0 0 0 16.275-6.346 155.842 155.842 0 0 1 21.531 29.826 1.297 1.297 0 0 0 1.768.505 1.3 1.3 0 0 0 .505-1.767c-.069-.125-.139-.243-.208-.367 5.174 1.526 14.966-2.552 22.5-8.612 6.788-5.461 11.655-12.555 11.376-18.009.097.116.198.229.295.345a1.299 1.299 0 0 0 2.286-.725 1.297 1.297 0 0 0-.295-.947c-12.409-14.763-27.977-26.884-38.776-34.414.291-1.956.519-4.042.633-6.288.044-.853.065-1.7.065-2.543a44.928 44.928 0 0 0-10.767-29.626 44.368 44.368 0 0 0-27.617-14.822c-8.329-1.174-20.788-1.762-33.553-1.763a302.546 302.546 0 0 0-34.918 1.76A47.306 47.306 0 0 0 9.71 97.837c-.002 11.935 3.76 22.753 10.793 31.039 7.03 8.289 17.32 14.011 30.2 15.844Zm.672-91.23a300.139 300.139 0 0 1 34.594-1.741c12.677-.001 25.083.592 33.189 1.737a41.762 41.762 0 0 1 26.014 13.948 42.315 42.315 0 0 1 10.134 27.926c0 .798-.02 1.601-.061 2.411a63.247 63.247 0 0 1-.43 4.771 226.607 226.607 0 0 0-6.809-4.46 149.432 149.432 0 0 0-3.405-2.084l-.02-.038a1.301 1.301 0 0 1-.312-.33l-.032-.05-.106-.165a41.289 41.289 0 0 0-.429-.646 69.166 69.166 0 0 0-1.68-2.368 82.574 82.574 0 0 0-6.307-7.529c-5.376-5.693-12.937-11.911-21.466-14.19a10.99 10.99 0 0 0-2.841-.412 5.22 5.22 0 0 0-4.031 1.554 4.967 4.967 0 0 0-1.258 3.36c0 .427.054.853.161 1.267 1.14.36 2.257.789 3.346 1.283a36.541 36.541 0 0 1 11.028 7.898 1.301 1.301 0 0 1-.028 1.838 1.312 1.312 0 0 1-.925.366 1.297 1.297 0 0 1-.914-.395 33.952 33.952 0 0 0-10.238-7.34 22.522 22.522 0 0 0-9.076-2.202 10.264 10.264 0 0 0-3.226.458 4.022 4.022 0 0 0-1.81 1.103 5.42 5.42 0 0 0-1.266 3.549 4.98 4.98 0 0 0 .448 2.141c.491.089.977.202 1.457.34a44.327 44.327 0 0 1 12.039 5.917 51.091 51.091 0 0 1 5.091 3.894l.013.011h.001c.068.073.127.153.176.24.049.054.092.113.131.175.031.085.052.172.065.262.069.155.075.33.017.49a1.312 1.312 0 0 1-.032.225 1.362 1.362 0 0 1-.14.238 1.203 1.203 0 0 1-.123.206 1.25 1.25 0 0 1-.194.144 1.352 1.352 0 0 1-.221.164 1.27 1.27 0 0 1-.232.057.679.679 0 0 1-.508.027 1.282 1.282 0 0 1-.237-.034 1.307 1.307 0 0 1-.221-.131 1.218 1.218 0 0 1-.223-.132l-.013-.012-.003-.002-.013-.011-.047-.043c-.055-.047-.137-.12-.246-.213a44.19 44.19 0 0 0-.962-.796 54.9 54.9 0 0 0-3.537-2.607 41.813 41.813 0 0 0-11.307-5.573 10.776 10.776 0 0 0-3.001-.46 6.092 6.092 0 0 0-4.384 1.608 5.075 5.075 0 0 0-1.512 3.662 6.347 6.347 0 0 0 1.464 3.947 19.026 19.026 0 0 0 4.237 3.654c1.786 1.208 3.868 2.396 6.019 3.599 2.95 1.656 6.016 3.327 8.68 5.183a28.47 28.47 0 0 1 3.367 2.689 1.301 1.301 0 0 1-.869 2.239 1.296 1.296 0 0 1-.928-.36 18.523 18.523 0 0 0-.721-.65 25.86 25.86 0 0 0-1.583-1.252c-.019.007-.035.017-.054.024-.027.011-.051.026-.079.036a9.972 9.972 0 0 1-3.165.35c-.584 0-1.262-.018-2.053-.06a27.16 27.16 0 0 0-1.468-.042h-.003a15.476 15.476 0 0 0-3.291.308 6.081 6.081 0 0 0-2.336.982 3.348 3.348 0 0 0-.924 1.034 4.508 4.508 0 0 0-.523 2.229v.028a5.068 5.068 0 0 0 1.05 2.755 12.58 12.58 0 0 0 3.496 3.243c3.18 2.071 8.067 3.722 14.699 3.722a49.431 49.431 0 0 0 10.997-1.33 1.29 1.29 0 0 1 1.384.593c.821.648 2.159 1.74 3.896 3.283a35.641 35.641 0 0 1-15.424 4.074 35.26 35.26 0 0 1-10.791-68.83 35.26 35.26 0 0 1 45.465 27.12 1.299 1.299 0 0 0 1.515 1.042c.012-.002.021-.01.033-.013a1.298 1.298 0 0 0 1.009-1.501 37.865 37.865 0 1 0-37.231 44.782c6.239-.005 12.352-2.141 17.479-4.802a136.102 136.102 0 0 1 5.612 5.548 51.103 51.103 0 0 1-15.029 5.744 93.541 93.541 0 0 1-13.276 1.697c-5.23.364-11.092.531-17.103.53-12.68.064-25.35-.686-37.934-2.245-12.33-1.763-21.978-7.174-28.584-14.952-6.602-7.781-10.174-17.962-10.176-29.357A44.707 44.707 0 0 1 51.376 53.49Z"/><path fill="#191C22" d="M98.306 109.553H98.3a32.12 32.12 0 0 1 .005 0Z"/></svg>