<svg width="200" height="200" viewBox="0 0 200 200" xmlns="http://www.w3.org/2000/svg"><g id="type=esim-manual, mode=light"><g id="Layer 8"><path id="Vector" d="M119.342 52.1994C103.006 49.8942 70.0117 49.8376 51.2148 52.1994C40.1078 53.6118 29.8971 59.0261 22.4961 67.4276C15.0951 75.8291 11.0119 86.6412 11.0117 97.8376C11.0117 121.166 25.6787 139.838 50.8882 143.433C68.9873 146.015 99.6597 147.696 119.669 143.433C141.879 138.702 156.545 121.166 156.545 97.8376C156.545 74.3957 141.965 55.3913 119.342 52.1994ZM128.514 130.245C123.593 132.851 118.144 134.303 112.579 134.49C107.014 134.677 101.479 133.594 96.3952 131.323C91.311 129.052 86.8107 125.654 83.2356 121.385C79.6605 117.116 77.1045 112.089 75.7614 106.685C74.4183 101.282 74.3235 95.6431 75.4841 90.1973C76.6447 84.7514 79.0302 79.6414 82.4597 75.2547C85.8893 70.8681 90.2728 67.3201 95.2777 64.8798C100.283 62.4395 105.778 61.171 111.346 61.1706C131.596 61.1706 148.012 77.987 148.012 98.2375L128.514 130.245Z"/><path id="Vector_2" d="M50.7039 144.72C63.4091 146.297 76.2025 147.055 89.005 146.992C95.0646 146.991 100.98 146.824 106.288 146.455C110.879 146.198 115.445 145.612 119.952 144.702C125.69 143.501 131.19 141.356 136.227 138.356C144.556 147.413 151.784 157.425 157.758 168.182C157.926 168.483 158.206 168.706 158.537 168.801C158.869 168.896 159.225 168.855 159.526 168.687C159.827 168.52 160.05 168.24 160.145 167.908C160.24 167.577 160.199 167.221 160.031 166.92C159.962 166.795 159.892 166.677 159.823 166.553C164.997 168.079 174.789 164.001 182.323 157.941C189.111 152.48 193.978 145.386 193.699 139.932C193.796 140.048 193.897 140.161 193.994 140.277C194.216 140.539 194.533 140.702 194.876 140.731C195.218 140.76 195.558 140.652 195.821 140.431C196.085 140.21 196.249 139.894 196.28 139.552C196.311 139.21 196.205 138.869 195.985 138.605C183.576 123.842 168.008 111.721 157.209 104.191C157.5 102.235 157.728 100.149 157.842 97.9034C157.886 97.05 157.907 96.2022 157.907 95.3598C158.014 84.5082 154.189 73.9847 147.14 65.7339C140.044 57.5978 130.225 52.328 119.523 50.9119C111.194 49.7382 98.7349 49.1502 85.9703 49.149C74.3066 49.0622 62.6477 49.65 51.0519 50.9094C39.6307 52.3612 29.131 57.9283 21.5205 66.5674C13.91 75.2064 9.71115 86.3243 9.71094 97.8374C9.70862 109.772 13.4703 120.59 20.5045 128.876C27.5345 137.165 37.8235 142.887 50.7039 144.72ZM51.3762 53.4891C62.8644 52.2436 74.4151 51.6626 85.9703 51.749C98.6465 51.7478 111.053 52.341 119.159 53.4864C129.239 54.8141 138.489 59.7734 145.173 67.4342C151.815 75.2124 155.415 85.1325 155.307 95.3598C155.307 96.1576 155.287 96.9614 155.246 97.7714C155.16 99.45 155.008 101.034 154.816 102.542C152.094 100.691 149.775 99.1935 148.007 98.0824C146.325 97.0252 145.14 96.3162 144.602 95.9982L144.582 95.9601C144.46 95.8697 144.354 95.7581 144.27 95.6305L144.238 95.5799L144.132 95.4149C144.037 95.2683 143.893 95.05 143.703 94.7689C143.323 94.2066 142.757 93.3934 142.023 92.4009C140.072 89.7685 137.966 87.2544 135.716 84.872C130.34 79.1792 122.779 72.961 114.25 70.6812C113.325 70.4205 112.37 70.2823 111.409 70.27C110.665 70.2264 109.921 70.3426 109.226 70.6105C108.53 70.8785 107.9 71.2922 107.378 71.8237C106.555 72.7476 106.106 73.9459 106.12 75.1836C106.12 75.6112 106.174 76.0371 106.281 76.4512C107.421 76.8117 108.538 77.24 109.627 77.7338C113.764 79.6552 117.504 82.334 120.655 85.6318H120.655C120.774 85.7544 120.868 85.8992 120.931 86.058C120.993 86.2167 121.024 86.3862 121.022 86.5569C121.019 86.7276 120.983 86.8961 120.915 87.0528C120.847 87.2095 120.749 87.3513 120.627 87.4701C120.504 87.5889 120.359 87.6824 120.201 87.7453C120.042 87.8081 119.872 87.8391 119.702 87.8364C119.531 87.8337 119.362 87.7975 119.206 87.7297C119.049 87.6619 118.907 87.5639 118.788 87.4413C115.863 84.3771 112.391 81.8873 108.55 80.1004C105.712 78.7406 102.62 77.9908 99.4737 77.8992C98.381 77.8792 97.2922 78.0338 96.2483 78.3572C95.5568 78.5562 94.9313 78.9371 94.4371 79.4602C93.6046 80.4535 93.1556 81.7124 93.1716 83.0085C93.1604 83.7468 93.3135 84.4784 93.6199 85.1502C94.111 85.2387 94.5973 85.3519 95.0769 85.4894C99.3669 86.8396 103.426 88.835 107.116 91.4069C108.893 92.5971 110.593 93.8976 112.207 95.3009L112.22 95.3121L112.221 95.3126H112.221C112.289 95.3849 112.348 95.465 112.397 95.5513C112.446 95.6063 112.489 95.665 112.528 95.727C112.559 95.8118 112.58 95.8995 112.593 95.9889C112.662 96.1439 112.668 96.3196 112.61 96.4791C112.606 96.5549 112.595 96.6301 112.578 96.704C112.54 96.7878 112.493 96.8674 112.438 96.9416C112.404 97.0143 112.363 97.0835 112.315 97.1483L112.315 97.1487C112.255 97.2028 112.19 97.2508 112.121 97.2922C112.053 97.3541 111.979 97.4089 111.9 97.4557C111.825 97.4821 111.747 97.5015 111.668 97.5134C111.509 97.5877 111.326 97.5971 111.16 97.5397C111.08 97.5359 111.001 97.5247 110.923 97.5061C110.845 97.4696 110.771 97.4257 110.702 97.3749C110.623 97.3388 110.548 97.2945 110.479 97.2429L110.466 97.2311L110.463 97.229L110.45 97.2177L110.403 97.1753C110.348 97.1276 110.266 97.0557 110.157 96.9623C109.938 96.7756 109.613 96.5029 109.195 96.1665C108.357 95.4936 107.143 94.5657 105.658 93.5594C102.192 91.1408 98.38 89.2616 94.3511 87.986C93.3774 87.6917 92.367 87.5367 91.3499 87.5257C90.5493 87.4922 89.75 87.617 88.9977 87.8929C88.2454 88.1688 87.555 88.5905 86.966 89.1337C86.4811 89.6115 86.0973 90.1819 85.8374 90.8111C85.5776 91.4403 85.447 92.1153 85.4536 92.796C85.4785 94.2401 85.9952 95.6325 86.9183 96.7433C88.1427 98.1633 89.5703 99.3946 91.1546 100.397C92.9406 101.605 95.0226 102.793 97.1736 103.996C100.124 105.652 103.19 107.323 105.854 109.179C107.043 109.989 108.168 110.888 109.221 111.868C109.47 112.106 109.614 112.434 109.622 112.778C109.63 113.123 109.5 113.457 109.262 113.706C109.024 113.955 108.696 114.1 108.352 114.107C108.007 114.115 107.673 113.986 107.424 113.747C107.196 113.529 106.953 113.312 106.703 113.097C106.214 112.674 105.681 112.258 105.12 111.845C105.101 111.852 105.085 111.862 105.066 111.869C105.039 111.88 105.015 111.895 104.987 111.905C103.958 112.19 102.889 112.309 101.822 112.255C101.238 112.255 100.56 112.237 99.7685 112.195C99.2707 112.168 98.78 112.153 98.3014 112.153L98.2978 112.153C97.1928 112.138 96.0894 112.241 95.0065 112.461C94.1676 112.621 93.3717 112.955 92.6707 113.443C92.2939 113.719 91.9792 114.072 91.7467 114.477C91.3834 115.163 91.2031 115.93 91.2235 116.706L91.2234 116.71L91.2233 116.734C91.2929 117.736 91.6589 118.695 92.2748 119.489C93.2227 120.783 94.409 121.884 95.77 122.732C98.9505 124.803 103.837 126.454 110.469 126.454C114.173 126.424 117.862 125.978 121.466 125.124C121.73 125.065 122.006 125.091 122.254 125.197C122.502 125.304 122.711 125.485 122.85 125.717C123.671 126.365 125.009 127.457 126.746 129C121.978 131.506 116.705 132.899 111.322 133.074C104.623 133.073 98.0642 131.164 92.4115 127.571C86.7588 123.978 82.2464 118.849 79.4024 112.785C76.5583 106.72 75.5003 99.9714 76.352 93.3277C77.2038 86.684 79.9302 80.4203 84.212 75.2696C88.4939 70.1189 94.1542 66.2943 100.531 64.2433C106.907 62.1923 113.736 61.9997 120.217 63.6882C126.699 65.3767 132.566 68.8763 137.131 73.7775C141.697 78.6788 144.771 84.7789 145.996 91.3641C146.027 91.5319 146.091 91.6921 146.184 91.8353C146.277 91.9785 146.397 92.1021 146.538 92.1989C146.678 92.2956 146.837 92.3638 147.004 92.3994C147.171 92.435 147.343 92.4373 147.511 92.4063C147.523 92.4041 147.532 92.3956 147.544 92.393C147.875 92.3236 148.165 92.1279 148.354 91.8475C148.542 91.5671 148.614 91.2242 148.553 90.8918C147.239 83.8198 143.938 77.2684 139.036 72.0043C134.134 66.7402 127.834 62.9811 120.874 61.1672C113.913 59.3532 106.58 59.5593 99.7324 61.7614C92.8847 63.9634 86.806 68.0704 82.2075 73.6015C77.609 79.1326 74.6811 85.8591 73.7664 92.9937C72.8517 100.128 73.9881 107.376 77.0425 113.888C80.0969 120.4 84.9431 125.908 91.0138 129.766C97.0844 133.625 104.128 135.674 111.322 135.674C117.561 135.669 123.674 133.533 128.801 130.872C130.461 132.418 132.355 134.267 134.413 136.42C129.738 139.116 124.666 141.055 119.384 142.164C115.005 143.046 110.568 143.613 106.108 143.861C100.878 144.225 95.0162 144.392 89.005 144.391C76.3253 144.455 63.6546 143.705 51.071 142.146C38.7417 140.383 29.0926 134.972 22.4867 127.194C15.885 119.413 12.3132 109.232 12.311 97.8374C12.3112 86.9577 16.2788 76.4514 23.4702 68.2874C30.6617 60.1234 40.5834 54.862 51.3762 53.4891L51.3762 53.4891Z"/><path id="Vector_3" d="M98.3058 109.553L98.3008 109.553C98.8322 109.554 99.3688 109.57 99.907 109.598C99.368 109.57 98.8331 109.553 98.3058 109.553Z"/></g></g></svg>