<svg xmlns="http://www.w3.org/2000/svg" width="200" height="200" fill="none"><path fill="#FFE632" d="M28.24 42.964a1.999 1.999 0 0 0-1.983-.03l-5.222 2.881a2 2 0 1 0 1.932 3.503l2.256-1.245V59.42a2 2 0 0 0 4 0V44.686c0-.708-.373-1.362-.983-1.722ZM45.306 27.546c.046-.055.095-.102.14-.161a5.59 5.59 0 0 0 1.116-3.39c0-.328-.026-.664-.08-1.006-.194-1.322-.91-2.495-1.893-3.217-.98-.732-2.152-1.05-3.307-1.05-1.615.003-3.26.607-4.619 1.783a2 2 0 1 0 2.624 3.02c.639-.56 1.402-.807 1.995-.803.428 0 .737.12.907.25.168.14.271.255.341.632.023.145.032.274.032.39-.002.312-.061.523-.15.716-.133.284-.373.544-.675.751a2.427 2.427 0 0 1-.781.36 1.996 1.996 0 0 0-1.587 1.973c.008.95.677 1.757 1.606 1.944l.12.03c.28.068.98.312 1.445.665.236.173.408.358.51.531.1.178.16.337.164.634l-.002.072c-.038.635-.246 1.009-.628 1.346-.387.326-1.025.591-1.934.593-.692 0-1.53-.16-2.46-.56a2 2 0 1 0-1.582 3.674c1.375.591 2.742.885 4.042.885 1.691.002 3.287-.506 4.508-1.53 1.224-1.015 1.996-2.57 2.05-4.25l.001-.013.004-.217c.008-1.19-.399-2.27-.975-3.06a5.914 5.914 0 0 0-.932-.992ZM102.218 35.872a2 2 0 1 0 0-4c-1.462.003-2.82.221-3.72.398a3.32 3.32 0 0 0-2.642 2.798l-.442 3.162a2.004 2.004 0 0 0 .503 1.623c.397.436.97.674 1.558.65v.002l.07-.001c.271-.008 1.25.05 1.888.301.322.119.527.268.593.349l.065.102a.65.65 0 0 1 .032.228v.022c-.007.314-.065.483-.124.6-.09.166-.21.29-.485.423-.266.127-.67.212-1.065.21-.387.003-.765-.086-.924-.16a2 2 0 1 0-1.584 3.674c.785.334 1.623.481 2.508.485 1.185-.006 2.482-.273 3.644-1.105a4.838 4.838 0 0 0 1.461-1.692c.365-.704.558-1.523.569-2.379v-.079a4.62 4.62 0 0 0-.295-1.652 4.472 4.472 0 0 0-1.606-2.045c-.878-.619-1.776-.892-2.56-1.057l.087-.621c.711-.122 1.619-.237 2.469-.236ZM134.13 62.957l-.059.006a28.97 28.97 0 0 1-2.946.187c.81-.775 1.798-1.698 2.682-2.766.5-.607.969-1.262 1.338-2.006.366-.74.64-1.59.642-2.54 0-.442-.062-.902-.199-1.352a5.26 5.26 0 0 0-5.05-3.768c-1.423-.006-2.896.595-4.03 1.74a2 2 0 1 0 2.829 2.828h-.001c.46-.45.853-.56 1.202-.568a1.262 1.262 0 0 1 1.222.928l.027.192c0 .116-.027.287-.119.524-.157.413-.53.99-1.041 1.59-.764.906-1.8 1.85-2.704 2.729-.454.444-.877.868-1.255 1.344a4.9 4.9 0 0 0-.532.82c-.157.322-.32.732-.325 1.3l.01.176h-.004c.001.008.005.016.005.024l.004.07h.01c.043.403.182.809.389 1.122.401.6.89.883 1.297 1.074.624.276 1.191.374 1.777.45.582.068 1.173.09 1.753.09 1.817-.002 3.531-.221 3.577-.226a2 2 0 0 0-.499-3.968ZM158.057 17.728a2.299 2.299 0 0 0-.262-.85 2.506 2.506 0 0 0-.807-.88c-.451-.3-.831-.423-1.235-.54-.6-.163-1.254-.26-2.014-.33a28.812 28.812 0 0 0-2.553-.102c-1.774 0-3.855.122-6.095.389a2 2 0 1 0 .475 3.972c2.089-.25 4.029-.361 5.62-.361.806-.001 1.511.032 2.102.082-.285.509-.619 1.099-.993 1.773a100.278 100.278 0 0 0-2.05 3.887l-3.311-.036a2 2 0 0 0-.043 4l1.523.016c-.909 2.166-1.757 4.52-2.384 7.001a2 2 0 1 0 3.879.979c.705-2.803 1.745-5.51 2.843-7.933l2.237.025a2 2 0 0 0 .044-4l-.323-.004c.831-1.572 1.595-2.905 2.17-3.935.293-.526.537-.97.732-1.367.098-.201.184-.388.265-.602a3.33 3.33 0 0 0 .115-.368c.035-.148.073-.32.075-.594l-.006-.169-.004-.053ZM170.782 40.462c-.648-.52-1.487-.911-2.417-.983a6.118 6.118 0 0 0-.51-.022 5.582 5.582 0 0 0-2.388.52 5.437 5.437 0 0 0-2.416 2.268 6.146 6.146 0 0 0-.783 3.014c0 1.097.289 2.224.949 3.212.652.988 1.71 1.796 2.997 2.16h.004a5.84 5.84 0 0 0 1.608.236c.111 0 .218-.016.328-.023-.28.28-.592.533-.994.73-.551.268-1.252.459-2.181.495a2 2 0 1 0 .152 3.998c1.41-.053 2.684-.362 3.78-.896a7.804 7.804 0 0 0 3.565-3.53c.725-1.433 1.02-2.983 1.021-4.472-.006-1.744-.395-3.416-1.171-4.83-.393-.705-.889-1.353-1.544-1.877Zm-1.643 4.552Zm0-.005h-.001l.001.018c.002.063-.024.302-.101.55-.111.381-.338.79-.554 1.001-.109.11-.207.176-.301.218a.836.836 0 0 1-.357.07 1.86 1.86 0 0 1-.505-.08c-.418-.128-.61-.3-.781-.541-.165-.242-.273-.594-.273-.986-.004-.496.184-1.008.451-1.313.133-.155.278-.268.452-.35.174-.08.382-.137.685-.139l.182.008h.008c.037.006.093.01.244.125.219.165.565.618.806 1.272.017.042.029.091.044.135v.012Z"/><path fill="#FFE632" d="M168.363 39.478h.002l.006.001h-.008Z"/><path fill="#BEBEC9" d="M166.795 123.394c-5.125-5.08-11.077-8.045-15.745-9.754-4.671-1.708-8.07-2.161-8.138-2.17a1.294 1.294 0 0 0-1.308.66h-.001c-.049.089-1.951 3.386-6.647 5.688a17.812 17.812 0 0 0-7.197-6.245 18.04 18.04 0 0 0-1.12-.483c2.409-1.018 4.314-2.178 5.854-3.38 2.995-2.332 4.608-4.794 5.913-6.357 5.686-1.658 10.035-5.163 12.979-8.26 2.997-3.157 4.559-5.902 4.596-5.964.223-.393.226-.877.007-1.272a1.303 1.303 0 0 0-1.082-.669l-6.556-.279c3.967-2.806 6.538-6.428 8.156-9.6 2.114-4.14 2.664-7.546 2.68-7.633a1.302 1.302 0 0 0-1.709-1.436l-10.223 3.535c.036-.947.06-1.916.06-2.917-.002-8.623-1.512-19.068-8.011-27.709-3.247-4.313-7.741-8.146-13.827-11.011-4.483-2.112-9.832-3.699-16.183-4.608-.678-2.183-1.883-3.95-3.303-5.326-2.319-2.244-5.165-3.512-7.428-4.252-2.265-.737-3.963-.936-4.022-.943a1.299 1.299 0 0 0-1.42 1.01l-1.043 4.693a15.628 15.628 0 0 0-4.74-2.53c-2.36-.787-4.815-1.064-7.14-1.064-6.312.007-11.725 2.026-11.805 2.05-.49.181-.82.634-.847 1.155-.026.52.26 1.003.729 1.232.078.037 2.589 1.301 5.172 3.865a22.74 22.74 0 0 1 1.507 1.67C64.15 27.942 57.529 33.063 53.56 38.704c-4.208 5.965-5.457 12.41-5.974 17.203a41.864 41.864 0 0 0-.242 4.486c0 3.097.347 5.743.682 8.236.178 1.317.349 2.592.473 3.877l-8.087-4.972a1.305 1.305 0 0 0-1.304-.033 1.304 1.304 0 0 0-.676 1.117c0 .007-.002.074-.002.192.001.709.036 3.306.55 6.308.259 1.5.637 3.105 1.206 4.636.335.896.745 1.763 1.235 2.574l-2.004.559a1.3 1.3 0 0 0-.95 1.299c.006.118.061 1.336.784 2.96.718 1.623 2.132 3.648 4.752 5.253.02.012.042.012.063.023-.077.611-.13 1.23-.132 1.862 0 1.055.12 2.137.395 3.238.355 1.4 1.114 2.939 2.269 4.562 3.325 4.654 10.015 9.981 20.308 12.688-1.504.742-3.071 1.73-4.67 2.908a1.297 1.297 0 0 0-.4-.266c-1.212-.494-2.487-1.316-3.431-2.011a24.497 24.497 0 0 1-1.45-1.153l-.078-.069-.022-.019a1.301 1.301 0 0 0-1.068-.321c-.095.016-5.114.789-11.483 4.042-6.365 3.25-14.097 9.009-19.461 18.963a1.302 1.302 0 0 0 .443 1.711c.57.365 1.327.23 1.736-.309.027-.036.68-.86 1.825-1.644 1.15-.787 2.76-1.529 4.798-1.529 2.341.005 5.375.963 9.12 4.381.102.093.22.149.339.204-.21.405-.423.811-.608 1.204-.994 2.135-1.614 4.071-1.623 5.825 0 .428.04.847.13 1.256.283 1.254.872 2.459 1.65 3.631 1.366 2.049 3.327 4.015 5.502 5.861 5.773 4.883 13.1 8.892 14.738 9.767-.136 2.148-.215 4.3-.215 6.415.002 5.083.445 9.949 1.658 14.05a1.3 1.3 0 1 0 2.493-.738c-1.107-3.726-1.553-8.385-1.551-13.312-.002-8.135 1.198-17 2.403-23.809a200.74 200.74 0 0 1 1.654-8.339 150.023 150.023 0 0 1 .696-3.003l.052-.211a1.297 1.297 0 0 0-.604-1.442 1.297 1.297 0 0 0-1.553.182l-6.88 6.557a1.29 1.29 0 0 0-.401 1.021c.023.384.213.734.523.964l3.864 2.867c.074.054.159.075.24.112l-.152.839c-.775 4.39-1.549 9.621-2.012 15.004-1.953-1.083-5.783-3.301-9.56-6.024-2.381-1.714-4.737-3.629-6.565-5.549-1.837-1.913-3.105-3.847-3.442-5.411a3.159 3.159 0 0 1-.068-.688c-.004-.834.261-2.018.8-3.385.938-2.4 2.676-5.36 4.878-8.399 3.3-4.565 7.646-9.334 11.873-12.94 2.112-1.803 4.196-3.316 6.077-4.367 1.878-1.057 3.56-1.627 4.754-1.656a1.25 1.25 0 0 0 .41-.096c.896.135 1.81.262 2.722.376 2.316.289 4.56.506 6.16.644.03.386.065.778.126 1.174.151.96.398 1.93.853 2.818.692 1.333 1.82 2.281 3.036 2.986 1.832 1.054 3.93 1.608 5.59 1.932a26.65 26.65 0 0 0 2.259.337c1.004 1.668 2.707 3.92 4.89 6.507 3.426 4.053 7.992 8.858 12.628 12.995 2.319 2.069 4.654 3.97 6.885 5.529 2.233 1.559 4.352 2.779 6.307 3.476 2.058.731 3.947 1.041 5.645 1.041.622 0 1.217-.043 1.785-.12a143.93 143.93 0 0 0-.144 6.693c0 1.152.013 2.416.042 3.766a1.27 1.27 0 0 0 .019.753c.154 5.876.647 13.274 1.959 20.609a1.3 1.3 0 1 0 2.559-.457v-.001c-.148-.827-.282-1.655-.409-2.483h.008a13.564 13.564 0 0 0 5.161-2.212c2.228-1.554 3.972-3.634 5.696-5.865 1.722-2.235 3.426-4.637 5.509-6.922.961-1.055 1.924-1.711 2.867-2.117a6.97 6.97 0 0 1 2.777-.561c1.537-.002 2.996.472 4.059.963a11.547 11.547 0 0 1 1.58.879l.076.053.015.011a1.299 1.299 0 0 0 2.04-1.339c-.018-.074-.387-1.654-1.423-3.559-.314-.577-.7-1.183-1.15-1.785l1.192-2.656a1.303 1.303 0 0 0-.924-1.805c-.069-.014-.608-.121-1.465-.121-.956 0-2.326.158-3.847.718-.11-.04-.215-.087-.327-.123a18.617 18.617 0 0 0-3.537-.806l-.28-1.986a1.301 1.301 0 0 0-1.993-.91c-.073.048-1.13.739-2.389 2.157-.323.364-.659.778-.995 1.24-1.893.611-3.435 1.599-4.745 2.605-.869.671-1.649 1.33-2.387 1.911l-1.282-3.944a1.3 1.3 0 0 0-2.184-.488c-.012.013-1.064 1.133-2.346 2.676a61.062 61.062 0 0 0-1.275 1.6c.003-2.083.043-3.797.084-4.991.021-.616.042-1.095.058-1.42.016-.324.026-.487.026-.487.005-.084-.023-.159-.033-.239a11.442 11.442 0 0 0 1.884-.892c1.606-.956 2.709-2.132 3.35-3.174.261-.433.473-.951.695-1.625.649-2.003 1.275-5.336 1.278-9.548 0-1.345-.067-2.781-.219-4.285 1.086-.549 2.438-1.009 4.074-1.01 2.082.006 4.666.721 7.808 3.198a1.302 1.302 0 0 0 1.611.002c3.549-2.786 6.692-3.656 9.38-3.662 2.832-.002 5.211 1.003 6.894 2.029a15.098 15.098 0 0 1 1.941 1.404c.221.189.388.344.496.449l.118.116.024.026.001.001a1.299 1.299 0 0 0 2.172-1.332 35.64 35.64 0 0 0-8.455-13.201ZM63.957 144.37l2.632-2.508c-.24 1.116-.51 2.416-.795 3.872l-1.837-1.364Zm-5.252-23.837c-4.413 3.873-8.81 8.799-12.144 13.524a57.11 57.11 0 0 0-2.193 3.35c-4.006-3.624-7.664-4.937-10.723-4.932-1.222 0-2.321.211-3.301.527 4.657-6.342 10.3-10.327 15.143-12.804a44.096 44.096 0 0 1 7.64-3.054 32.428 32.428 0 0 1 2.484-.625c.304.253.734.597 1.255.98.852.624 1.944 1.342 3.14 1.929a62.97 62.97 0 0 0-1.3 1.105Zm83.691 46.891-.851-2.617c1.081-.782 2.076-1.665 3.121-2.465.35-.269.705-.525 1.067-.768-.166.44-.323.893-.459 1.375a1.302 1.302 0 0 0 .61 1.483 1.304 1.304 0 0 0 1.584-.236 9.465 9.465 0 0 1 1.563-1.237c.951-.613 2.254-1.224 3.708-1.363.355-.035.675-.209.896-.49a1.29 1.29 0 0 0 .265-.986l-.036-.256c.73.126 1.505.311 2.351.588l.007.002c.15.048.288.104.427.16.081.047.172.077.264.107l.013.006c1.035.454 1.894 1.114 2.612 1.869.683.717 1.217 1.517 1.643 2.281-1.126-.405-2.482-.73-3.986-.732a9.555 9.555 0 0 0-3.803.772c-1.297.555-2.58 1.451-3.764 2.755-2.951 3.244-5.089 6.565-7.308 9.147-1.108 1.293-2.229 2.4-3.459 3.256a10.945 10.945 0 0 1-4.055 1.762 135.634 135.634 0 0 1-.793-7.977c.061-.017.124-.015.185-.042h-.001c.059-.032 4.319-1.94 7.822-5.017a1.3 1.3 0 0 0 .377-1.377Zm-5.513-5.328c.266-.32.519-.617.757-.893l2.01 6.181a31.528 31.528 0 0 1-4.126 2.81c-.678.389-1.259.694-1.682.907a164.302 164.302 0 0 1-.179-4.578c.815-1.403 2.103-3.085 3.22-4.427ZM71.987 18.808c2.05-.518 5.048-1.094 8.21-1.09 2.118 0 4.301.256 6.315.93 2.017.676 3.859 1.754 5.384 3.425a1.3 1.3 0 0 0 2.23-.594l1.263-5.686c1.127.236 2.94.71 4.797 1.59 1.443.68 2.906 1.599 4.111 2.803a10.197 10.197 0 0 1 1.96 2.756 45.002 45.002 0 0 0-3.383-.148c-8.8-.007-14.712 2.817-18.368 5.687a21.985 21.985 0 0 0-3.272 3.144 21.158 21.158 0 0 0-2.997-6.503l-.007-.01a24.203 24.203 0 0 0-3.09-3.673 26.635 26.635 0 0 0-3.153-2.631Zm-27.37 70.875c-1.649-1.2-2.51-2.524-2.991-3.594-.17-.38-.284-.72-.367-1.016l2.648-.738c.43-.12.773-.458.898-.888.126-.43.02-.898-.279-1.231-.771-.86-1.411-2.044-1.903-3.37-.742-1.987-1.151-4.273-1.362-6.17a37.967 37.967 0 0 1-.147-1.658l7.562 4.65c.001.12.01.235.01.357 0 .216-.002.433-.006.653-.048 2.508-1.145 5.214-2.328 8.12-.626 1.56-1.268 3.183-1.735 4.885Zm93.124 56.586c-.171.858-.361 1.58-.541 2.133-.177.549-.359.945-.441 1.074-.388.64-1.225 1.567-2.458 2.294-1.236.731-2.863 1.289-4.935 1.291-1.382 0-2.969-.251-4.775-.891-2.141-.754-4.922-2.481-7.848-4.749-4.4-3.401-9.178-8.002-13.167-12.315a114.81 114.81 0 0 1-5.258-6.069c-1.46-1.823-2.585-3.398-3.203-4.466-.047-.081-.118-.134-.178-.201a1.289 1.289 0 0 0-1.106-.793l-.015-.001a23.491 23.491 0 0 1-4.37-.777c-1.073-.303-2.172-.722-3.07-1.257-.904-.536-1.58-1.174-1.938-1.875-.272-.522-.476-1.247-.595-2.025a15.622 15.622 0 0 1-.163-2.352 21.816 21.816 0 0 1 .123-2.285l.015-.134.005-.037a1.303 1.303 0 0 0-.702-1.336l-6.698-3.385c.217-.445.508-.901.882-1.276a3.78 3.78 0 0 1 1.13-.803 3.56 3.56 0 0 1 1.493-.312c.47 0 1.007.079 1.625.279 4.17 1.35 7.56 1.655 9.764 1.655 1.738 0 2.738-.189 2.81-.203.458-.089.832-.417.982-.859v.001a6.859 6.859 0 0 1 1.158-1.95 5.091 5.091 0 0 1 1.44-1.192 4.318 4.318 0 0 1 2.09-.513c.452 0 .966.07 1.536.217l-2.106 3.754c-.118.21-.175.445-.166.686l.25 6.483c.004.127.047.241.085.356-.16.539.024 1.137.52 1.458l25.541 16.529a1.3 1.3 0 0 0 1.412-2.183l-24.976-16.164c.001-.033.017-.062.016-.096h-.001l-.235-6.117 2.688-4.79c.179-.32.215-.703.099-1.05a1.303 1.303 0 0 0-.714-.778c-1.435-.625-2.754-.905-3.95-.905a6.925 6.925 0 0 0-3.414.874c-1.405.789-2.317 1.922-2.893 2.838a9.867 9.867 0 0 0-.515.931c-.391.038-.948.073-1.657.073-1.966 0-5.078-.271-8.963-1.529a7.863 7.863 0 0 0-2.425-.405 6.179 6.179 0 0 0-4.48 1.893 7.499 7.499 0 0 0-1.908 3.44 1.3 1.3 0 0 0 .68 1.458l6.933 3.504c-.02.243-.037.522-.05.835-1.554-.136-3.65-.343-5.796-.61-2.353-.292-4.767-.66-6.523-1.072-6.968-1.63-12.211-4.516-15.838-7.531-1.814-1.507-3.221-3.047-4.233-4.465-1.013-1.415-1.623-2.718-1.864-3.684a10.678 10.678 0 0 1-.316-2.606c-.007-2.807 1.057-5.623 2.23-8.512 1.156-2.887 2.431-5.835 2.515-9.036v-.003c.005-.24.007-.475.007-.708 0-2.782-.348-5.259-.683-7.743-.335-2.488-.66-4.987-.66-7.89 0-1.307.067-2.697.229-4.207.494-4.598 1.68-10.552 5.512-15.982 3.736-5.28 9.987-10.147 20.895-12.837 1.303 2.113 2.331 4.655 2.652 7.687.06.578.493 1.042 1.066 1.144a1.297 1.297 0 0 0 1.391-.705l.003-.003c.036-.074 1.328-2.592 4.571-5.08 3.141-2.403 8.096-4.806 15.678-4.997l.006.002c9.367.528 16.697 2.378 22.422 5.076 8.582 4.053 13.6 9.981 16.56 16.493 2.951 6.51 3.788 13.628 3.787 19.875 0 1.212-.032 2.392-.084 3.528-.004.1.027.188.043.281l-7.854 2.716-4.465 1.544a1.3 1.3 0 1 0 .849 2.458l4.466-1.545 18.396-6.36a28.245 28.245 0 0 1-2.06 5.003c-1.967 3.707-5.26 7.884-10.726 10.349a1.302 1.302 0 0 0-.742 1.431c.114.59.621 1.027 1.221 1.053l8.74.372a34.912 34.912 0 0 1-3.265 3.891c-2.783 2.869-6.788 5.978-11.823 7.367-.266.073-.47.239-.634.436a1.262 1.262 0 0 0-.34.273c-1.462 1.761-2.865 3.919-5.541 6.004-2.672 2.077-6.626 4.103-13.197 5.323a1.3 1.3 0 0 0 .473 2.557v-.001a47.305 47.305 0 0 0 4.139-.953c.08.024.153.063.239.071v.001c.018 0 1.892.195 4.202 1.317 2.315 1.127 5.054 3.142 6.982 6.861a41.013 41.013 0 0 1 4.616 18.824c0 2.63-.266 4.893-.609 6.61Zm25.863-14.967c-3.049-.006-6.545.992-10.18 3.628-3.179-2.303-6.114-3.17-8.619-3.166-1.72 0-3.209.393-4.433.904a43.76 43.76 0 0 0-4.113-12.592c2.528-1.265 4.349-2.786 5.569-4.055.7-.727 1.203-1.37 1.538-1.84 1.859.345 6.768 1.456 12.167 4.264 3.251 1.69 6.675 3.99 9.728 7.093a33.05 33.05 0 0 1 5.6 7.618c-1.878-.987-4.342-1.853-7.257-1.854Z"/><path fill="#BEBEC9" d="M74.727 68.332 55.28 69.547a1.3 1.3 0 0 0-1.218 1.297v3.107a1.301 1.301 0 0 0 1.317 1.3l19.777-.271c.362-.005.701-.158.945-.426.243-.267.363-.62.334-.98l-.333-4.051a1.298 1.298 0 0 0-1.376-1.191Zm-18.065 4.3v-.567l16.954-1.059.114 1.393-17.068.233ZM120.816 72.83v-4.199c0-.352-.146-.694-.4-.938a1.306 1.306 0 0 0-.954-.36l-27.257 1.12a1.305 1.305 0 0 0-.964.49c-.234.295-.33.681-.26 1.051l.666 3.499a1.3 1.3 0 0 0 1.297 1.057l26.592-.42a1.3 1.3 0 0 0 1.28-1.3Zm-2.6-1.28-24.22.383-.179-.945 24.399-1.002v1.565ZM77.882 57.164a1.3 1.3 0 0 0-1.74.576h-.002c-.003.01-.307.583-.826 1.135a4.39 4.39 0 0 1-.908.752c-.339.206-.7.348-1.097.402a1.834 1.834 0 0 1-.23.013c-.472.005-1.34-.15-2.37-.456-3.12-.911-7.792-3.077-11.4-5.058a1.3 1.3 0 1 0-1.249 2.28c2.492 1.365 5.425 2.8 8.12 3.907 1.35.554 2.637 1.025 3.796 1.366 1.165.338 2.18.556 3.103.561.191 0 .379-.01.562-.034h.008a5.445 5.445 0 0 0 2.165-.794c.903-.566 1.541-1.277 1.972-1.847.43-.57.651-1.008.677-1.059a1.3 1.3 0 0 0-.581-1.744ZM91.263 56.748c.73 1.46 1.567 2.491 2.54 3.166.97.678 2.023.944 2.98 1.036.091.009.17.011.242.011.447-.004.845-.093 1.312-.223.806-.231 1.784-.62 2.944-1.153 3.468-1.596 8.532-4.497 13.825-8.167a1.3 1.3 0 0 0-1.482-2.136c-3.944 2.736-7.775 5.04-10.825 6.648-1.523.803-2.854 1.432-3.885 1.85a13.42 13.42 0 0 1-1.292.458 2.863 2.863 0 0 1-.593.123c-.697-.073-1.22-.223-1.743-.582-.523-.364-1.097-.996-1.698-2.194a1.3 1.3 0 1 0-2.325 1.163ZM91.307 82.76c-.394-.58-.965-1.107-1.71-1.384a4.992 4.992 0 0 0-1.753-.34 3.864 3.864 0 0 0-2.244.703c-1 .708-1.67 1.825-2.107 3.238-.437 1.422-.656 3.185-.657 5.363 0 .37.007.752.02 1.146a1.3 1.3 0 1 0 2.598-.087c-.012-.367-.018-.72-.018-1.06-.006-2.664.385-4.498.9-5.506.254-.507.522-.801.757-.965.238-.162.448-.228.75-.232.227 0 .508.049.842.174.153.06.3.165.478.42.264.374.508 1.068.643 1.876.14.807.19 1.718.189 2.543a24.259 24.259 0 0 1-.127 2.438l-.017.147-.005.042a1.3 1.3 0 1 0 2.58.333c.003-.036.168-1.317.169-2.96-.003-1.236-.088-2.669-.45-3.997-.185-.664-.44-1.31-.838-1.892ZM157.016 157.978l.005.002.002.001-.007-.003Z"/></svg>