<svg xmlns="http://www.w3.org/2000/svg" width="200" height="200" fill="none"><path fill="#FFE632" d="M75.526 150.309a1.3 1.3 0 0 0 1.305-1.295c.006-1.696.015-3.1.023-4.094 3.139.675 10.607 2.021 20.32 2.022 6.026 0 12.92-.533 20.17-2.059.023 1.251.039 2.773.049 4.472a1.3 1.3 0 1 0 2.6-.015c-.006-.916-.013-1.782-.022-2.585l3.533 3.94a1.301 1.301 0 0 0 1.936-1.735l-5.713-6.373a2.303 2.303 0 0 0-.268-.441c-.461-.595-1.29-1.182-2.758-1.622-1.476-.441-3.629-.756-6.912-.757-.552 0-1.146.012-1.763.031-1.067-4.762-5.312-8.323-10.396-8.323-5.185 0-9.5 3.702-10.459 8.608-.664-.02-1.3-.031-1.895-.031-4.39.001-6.95.488-8.51 1.043-1.551.549-2.137 1.216-2.321 1.539-.005.008-.004.018-.009.026a1.302 1.302 0 0 0-.154.51c-.003.034-.012.067-.012.101 0 .003-.027 2.273-.04 5.733a1.3 1.3 0 0 0 1.296 1.305Zm39.261-7.566a91.313 91.313 0 0 1-6.628.985c.066-.438.108-.883.119-1.336a54.121 54.121 0 0 1 1.511-.025c2.237-.003 3.844.161 4.998.376Zm-22.857-6.307a8.032 8.032 0 0 1 5.7-2.362 8.032 8.032 0 0 1 5.7 2.362 8.027 8.027 0 0 1 2.361 5.7c0 .556-.057 1.1-.164 1.626-.016.077.002.149 0 .225-2.919.245-5.723.355-8.353.355-2.66 0-5.135-.107-7.406-.271-.005-.055.01-.108-.003-.163a8.091 8.091 0 0 1-.196-1.772c0-2.23.9-4.237 2.36-5.7Zm-4.931 6.242c.02.396.061.785.123 1.169a96.34 96.34 0 0 1-5.334-.668 80.655 80.655 0 0 1-1.45-.237c1.24-.171 2.847-.291 4.939-.291.54 0 1.119.01 1.722.027ZM77.13 172.103a292.789 292.789 0 0 1-.144-4.6 1.3 1.3 0 0 0-2.599.062c.038 1.599.086 3.16.145 4.64a6.611 6.611 0 0 0 6.339 6.362c3.692.152 9.15.323 15.182.323 5.763 0 12.047-.155 17.829-.632 3.121-.258 5.568-2.656 5.99-5.673 1.074-.085 2.871-.292 4.72-.792 1.45-.399 2.941-.966 4.173-1.901.614-.469 1.165-1.041 1.567-1.742.403-.699.64-1.53.637-2.418 0-.427-.052-.866-.156-1.313a1.3 1.3 0 1 0-2.532.589v-.001c.062.271.088.51.088.725-.002.446-.104.79-.294 1.127-.326.582-1.009 1.15-1.944 1.61-1.393.696-3.26 1.116-4.751 1.331-.536.078-1.021.131-1.425.168l.011-1.837a1.3 1.3 0 1 0-2.6-.015l-.022 3.568a4.01 4.01 0 0 1-3.676 3.983c-5.674.468-11.9.623-17.615.623-5.983 0-11.409-.17-15.075-.321a4.008 4.008 0 0 1-3.848-3.866Z"/><path fill="#FFE632" d="M97.738 170.031a1.3 1.3 0 0 0 0-1.839l-.45-.45a1.3 1.3 0 1 0-1.839 1.839l.45.45c.508.507 1.331.507 1.839 0ZM87.456 122.064l2.311 3.817.014.022c.353.562.896.948 1.457 1.163.567.219 1.165.299 1.792.301 1.155-.003 2.43-.278 3.796-.765 1.363-.489 2.809-1.198 4.246-2.108 1.878-1.191 3.451-2.539 4.595-3.886.572-.676 1.039-1.352 1.378-2.034.336-.683.559-1.376.562-2.116a2.907 2.907 0 0 0-.429-1.555l.001-.001-2.115-3.436a2.699 2.699 0 0 0-.206-.395c-.353-.562-.896-.948-1.458-1.164-.566-.219-1.165-.299-1.791-.301-1.156.003-2.431.279-3.796.766-1.363.489-2.809 1.197-4.246 2.107-1.878 1.191-3.45 2.538-4.595 3.886-.573.676-1.039 1.351-1.378 2.034-.337.682-.56 1.376-.563 2.116a2.917 2.917 0 0 0 .42 1.536c.003.004.002.009.005.013Zm17.261-4.647c-.325.659-.951 1.499-1.815 2.351-.864.855-1.962 1.732-3.222 2.53-1.284.814-2.571 1.441-3.732 1.856-1.157.418-2.195.616-2.918.613-.392.001-.684-.058-.847-.123-.164-.068-.19-.111-.205-.131l-.606-1.002c.978-.082 2.028-.329 3.143-.726 1.362-.489 2.808-1.197 4.245-2.107 1.878-1.192 3.451-2.539 4.596-3.887.409-.484.743-.969 1.036-1.456l.572.93.009.014c.012.022.032.049.034.179.004.173-.07.522-.29.959Zm-14.795 2.138c.325-.659.95-1.498 1.815-2.35.864-.855 1.962-1.732 3.221-2.529 1.285-.814 2.572-1.441 3.732-1.857 1.158-.417 2.195-.616 2.919-.613.391-.001.684.058.846.123.167.069.191.112.207.134l.039-.025-.039.025c.011.021.032.049.034.178.004.174-.071.522-.291.96-.324.659-.951 1.498-1.815 2.351-.864.855-1.962 1.732-3.221 2.529-1.284.814-2.572 1.441-3.732 1.856-1.157.418-2.195.616-2.918.613-.392.001-.684-.058-.847-.123-.167-.069-.19-.112-.206-.133-.012-.022-.032-.05-.035-.179-.003-.173.07-.522.291-.96ZM90.9 100.156c1.116.943 2.47 1.847 3.997 2.64a22.21 22.21 0 0 0 4.016 1.624c1.286.37 2.492.571 3.582.573.764-.002 1.475-.096 2.134-.354.646-.251 1.269-.711 1.629-1.397h.002l1.914-3.576c.004-.007.003-.016.007-.023.078-.108.158-.213.22-.334l.002-.003c.215-.415.313-.877.311-1.317-.004-.775-.265-1.48-.644-2.156-.577-1.01-1.459-1.985-2.574-2.931-1.115-.943-2.469-1.847-3.996-2.64a22.166 22.166 0 0 0-4.016-1.625c-1.287-.37-2.493-.571-3.582-.573-.764.002-1.476.097-2.134.355-.638.247-1.252.7-1.614 1.373-.003.006-.009.01-.012.015l-2.134 3.92-.01.018c-.22.42-.318.883-.316 1.324.004.775.265 1.48.644 2.156.578 1.01 1.46 1.985 2.574 2.931Zm13.06 1.874c-.014.022-.046.091-.287.191-.233.095-.645.174-1.178.172-.761.001-1.759-.151-2.861-.471a19.606 19.606 0 0 1-3.54-1.434c-1.82-.943-3.35-2.067-4.375-3.111-.512-.52-.897-1.02-1.131-1.435-.24-.416-.31-.737-.306-.873l.02-.118.56-1.028c.555.792 1.286 1.563 2.172 2.315 1.116.943 2.47 1.847 3.997 2.639 1.368.71 2.73 1.253 4.015 1.625 1.228.353 2.379.547 3.429.565l-.508.949-.007.014ZM93.902 90.664c.76 0 1.758.151 2.86.47 1.105.32 2.317.801 3.541 1.436 1.82.943 3.35 2.067 4.374 3.11.513.52.897 1.02 1.131 1.436.239.415.311.737.306.873l-.022.124c-.014.024-.049.091-.285.19-.234.094-.645.173-1.178.171-.761.002-1.759-.15-2.862-.47a19.606 19.606 0 0 1-3.54-1.435c-1.82-.943-3.35-2.067-4.374-3.11-.513-.52-.897-1.02-1.131-1.436-.24-.415-.311-.737-.307-.873l.02-.12.003-.003c.013-.022.045-.09.286-.19.233-.096.645-.174 1.177-.173Z"/><path fill="#BEBEC9" d="M84.627 66.656a2.545 2.545 0 0 0-.108-.783 1.593 1.593 0 0 0-.308-.56 1.431 1.431 0 0 0-.932-.49 1.333 1.333 0 0 0-.408.022c-.3.07-.482.165-.66.256a6.01 6.01 0 0 0-.712.461c-.897.26-1.628.745-2.095 1.36a3.58 3.58 0 0 0-.746 2.178c.002.457.084.893.288 1.313.105.21.242.418.442.61.17.164.406.306.676.399l-.004.01c.03.012.062.016.093.026.011.003.02.01.032.014l.001-.004c.282.09.573.147.864.147.751.004 1.412-.334 1.86-.743.682-.623 1.055-1.39 1.322-2.128.258-.748.39-1.454.395-2.088ZM115.669 64.698a19.896 19.896 0 0 0-.891-.417 4.455 4.455 0 0 0-.5-.183 1.339 1.339 0 0 0-.41-.048 1.417 1.417 0 0 0-.622.174 1.48 1.48 0 0 0-.574.576 1.94 1.94 0 0 0-.22.652 3.308 3.308 0 0 0-.042.548c.001.43.061.893.18 1.387.184.736.495 1.536 1.067 2.246.288.352.649.682 1.101.926.449.244.989.391 1.553.39.298 0 .603-.04.908-.115.118-.03.219-.07.325-.129.518-.306.733-.716.876-1.078a3.27 3.27 0 0 0 .193-1.142 4.02 4.02 0 0 0-.713-2.283c-.467-.682-1.252-1.249-2.231-1.504Z"/><path fill="#BEBEC9" d="M47.24 86.81c-1.907 12.999-3.609 27.063-4.764 41.472-1.524 2.264-10.487 16.99-11.152 50.232a1.3 1.3 0 1 0 2.6.053c.358-17.788 3.117-30.103 5.762-37.945 1.323-3.921 2.618-6.724 3.572-8.534.477-.905.869-1.562 1.136-1.986.134-.212.237-.366.305-.464l.072-.104.016-.021v-.001c.147-.198.233-.426.253-.672 1.171-14.749 2.925-29.145 4.886-42.416 4.085-.555 8.07-.934 11.657-1.053a1.3 1.3 0 0 0-.087-2.598c-3.475.116-7.279.472-11.17.98.396-2.605.797-5.161 1.204-7.667 3.808.26 7.558.712 11.113 1.413a1.3 1.3 0 0 0 .503-2.55c-3.607-.712-7.38-1.17-11.196-1.44.333-2.01.668-3.976 1.003-5.91 3.643.704 7.322 1.553 10.943 2.567a1.3 1.3 0 0 0 .701-2.503 140.252 140.252 0 0 0-11.195-2.624 792.866 792.866 0 0 1 2.411-12.994 735.663 735.663 0 0 1 5.147-24.343c.655-2.851 1.191-5.086 1.568-6.627L78.41 39.98c.269.32.672.49 1.088.46.003 0 1.038-.074 2.808-.185 5.308-.335 17.186-1.005 27.103-1.005 2.202 0 4.306.033 6.215.11.366.014.726-.128.982-.39a1245.53 1245.53 0 0 1 14.23-14.332 859.451 859.451 0 0 1 3.887-3.827c1.405 5.73 5.314 22.296 9.229 44.446-3.401.666-6.83 1.461-10.22 2.41a1.3 1.3 0 0 0 .701 2.503c3.299-.924 6.645-1.7 9.968-2.352.369 2.13.738 4.31 1.104 6.533-3.426.314-6.806.77-10.049 1.41a1.3 1.3 0 1 0 .503 2.551c3.198-.63 6.553-1.082 9.964-1.39.351 2.184.699 4.407 1.042 6.666-3.431-.419-6.776-.711-9.861-.815a1.3 1.3 0 0 0-.086 2.599c3.201.106 6.723.424 10.347.885 1.971 13.316 3.734 27.774 4.91 42.584.016.197.075.386.176.557 5.038 8.522 7.977 20.884 9.592 31.067a187.32 187.32 0 0 1 1.589 12.921 154.473 154.473 0 0 1 .352 4.902c.013.236.017.353.017.354a1.3 1.3 0 0 0 2.598-.109c-.001-.033-.341-8.138-1.989-18.477-1.639-10.243-4.528-22.655-9.766-31.705-1.161-14.505-2.877-28.661-4.797-41.736 4.583.664 9.252 1.538 13.593 2.515 4.332.974 8.343 2.049 11.618 3.107a58.015 58.015 0 0 1 4.299 1.555c1.209.5 2.179.982 2.821 1.392a1.3 1.3 0 0 0 1.396-2.193c-.847-.538-1.924-1.062-3.222-1.6-4.526-1.873-11.756-3.887-19.693-5.518a181.035 181.035 0 0 0-11.211-1.935c-.369-2.45-.745-4.858-1.125-7.22 3.028-.206 6.079-.307 9.092-.307 6.457 0 12.729.433 18.166 1.121 5.434.687 10.045 1.636 13.119 2.635a1.3 1.3 0 0 0 .803-2.472c-3.326-1.078-8.044-2.038-13.595-2.742-5.549-.703-11.92-1.142-18.493-1.142-3.147 0-6.339.109-9.51.33a818.512 818.512 0 0 0-1.148-6.8c9.793-1.741 19.225-2.403 26.452-2.402 4.553 0 8.243.264 10.528.66a1.3 1.3 0 1 0 .442-2.562c-2.534-.436-6.311-.696-10.97-.697-7.379 0-16.938.668-26.901 2.44-4.909-27.77-9.807-46.778-9.813-46.803-.006-.025-.024-.043-.032-.067-.026-.082-.07-.155-.113-.232-.043-.077-.083-.153-.14-.218-.016-.02-.021-.044-.039-.062-.04-.042-.092-.059-.136-.094a1.266 1.266 0 0 0-.22-.151 1.229 1.229 0 0 0-.232-.082 1.234 1.234 0 0 0-.24-.052 1.266 1.266 0 0 0-.267.015c-.055.006-.109-.006-.164.008-.025.007-.043.025-.067.033-.082.026-.155.069-.231.112-.078.043-.154.083-.22.14-.019.017-.043.022-.061.04-.007.006-7.952 7.688-19.385 19.375a164.677 164.677 0 0 0-5.739-.092c-11.808 0-26.22.934-29.433 1.151L63.1 17.713c-.035-.041-.083-.06-.121-.096a1.29 1.29 0 0 0-.775-.576 1.3 1.3 0 0 0-1.583.935c-.006.025-4.88 18.937-9.777 46.59-10.016-1.76-19.564-2.443-26.822-2.445-4.245.002-7.697.231-10.072.64a1.3 1.3 0 1 0 .443 2.563c2.124-.37 5.487-.604 9.63-.603 7.098 0 16.519.677 26.372 2.406a780.16 780.16 0 0 0-1.056 6.228c-2.02-.096-4.045-.147-6.06-.147-7 0-13.854.538-19.821 1.332-5.97.794-11.043 1.838-14.528 2.873a1.3 1.3 0 1 0 .741 2.493c3.288-.98 8.27-2.011 14.13-2.79 5.861-.778 12.61-1.308 19.479-1.308 1.876 0 3.76.044 5.637.129-.432 2.673-.86 5.403-1.279 8.188-4.48.663-9.01 1.516-13.248 2.468-4.397.988-8.473 2.079-11.846 3.169-1.688.545-3.2 1.09-4.496 1.627-1.297.539-2.374 1.063-3.22 1.6a1.3 1.3 0 1 0 1.395 2.194c.642-.41 1.612-.892 2.82-1.392 4.245-1.761 11.406-3.77 19.221-5.372 2.934-.602 5.964-1.149 8.975-1.61Z"/><path fill="#BEBEC9" d="M96.086 79.983c.762.666 1.679 1.078 2.63 1.075.546 0 1.077-.134 1.552-.36.716-.341 1.316-.87 1.849-1.509.532-.642.999-1.405 1.421-2.27.034-.07.035-.144.056-.216a6.834 6.834 0 0 0 1.465-.83 1.3 1.3 0 0 0-1.546-2.09c-.821.601-1.402.736-1.834.74-.283-.001-.524-.063-.755-.164a2.75 2.75 0 0 1-.858-.631 3.112 3.112 0 0 1-.23-.276l-.05-.07a1.304 1.304 0 0 0-1.085-.622c-.44-.009-.856.21-1.102.574a3.242 3.242 0 0 1-.625.633c-.374.287-.828.507-1.354.506-.38-.002-.842-.1-1.468-.492a1.3 1.3 0 1 0-1.387 2.2c.367.232.734.402 1.1.542.017.156.058.313.136.46.64 1.206 1.314 2.13 2.085 2.8Zm2.56-4.027c.325.276.727.558 1.223.779.203.09.426.165.66.229-.26.39-.52.713-.764.943-.227.218-.436.36-.61.441-.175.082-.31.109-.439.11-.215-.003-.493-.072-.929-.442-.279-.239-.602-.622-.94-1.132a5.152 5.152 0 0 0 1.799-.928ZM155.988 156.047a1.3 1.3 0 0 0-1.78-.46l-.026.015c-.632.367-12.624 7.141-30.523 8.266-.127.008-.239.053-.353.094a1.292 1.292 0 0 0-1.363.554l-.001-.001a4.323 4.323 0 0 1-1.126 1.099c-.401.259-.834.425-1.31.425-.318-.001-.673-.068-1.116-.286-.306-.159-.443-.331-.575-.618-.124-.283-.186-.684-.185-1.08a5.35 5.35 0 0 1 .144-1.193l.016-.064.003-.011h-.001a1.298 1.298 0 0 0-1.221-1.658l-.06-.001c-.084.006-.866-.025-1.489-.293-.314-.131-.575-.306-.753-.516-.175-.214-.306-.457-.349-.92a3.731 3.731 0 0 1-.013-.308c.003-.587.139-.935.315-1.211.26-.406.71-.685 1.147-.848.214-.081.414-.131.55-.157l.152-.027.029-.003-.001-.001a1.299 1.299 0 0 0 .91-2.082l.001-.001a3.361 3.361 0 0 1-.315-.546c-.147-.313-.265-.707-.262-1.043.012-.363.077-.648.458-1.048.177-.177.338-.275.515-.343.177-.067.375-.101.605-.101.572-.008 1.324.25 1.896.546.287.146.531.294.697.402l.187.126.043.031.007.005a1.3 1.3 0 0 0 1.432.089c.019-.007.039-.005.057-.013 4.547-2.105 15.962-8.087 26.657-18.047a1.3 1.3 0 0 0-1.772-1.902c-10.032 9.351-20.822 15.153-25.48 17.355a9.351 9.351 0 0 0-.653-.365c-.783-.391-1.838-.819-3.071-.827-.49 0-1.011.075-1.525.269a4.028 4.028 0 0 0-1.442.945c-.87.86-1.224 1.958-1.211 2.878.002.6.126 1.122.281 1.57a5.606 5.606 0 0 0-.465.233 4.629 4.629 0 0 0-1.604 1.484c-.456.692-.742 1.597-.738 2.632 0 .169.007.343.022.524.074.957.443 1.79.962 2.391.784.909 1.782 1.303 2.574 1.508.066.016.122.024.185.038a7.946 7.946 0 0 0-.02.503c.002.63.08 1.363.396 2.106a3.772 3.772 0 0 0 1.81 1.922 5.09 5.09 0 0 0 2.27.556c.756 0 1.438-.186 2.009-.449.86-.397 1.488-.952 1.918-1.404.114-.12.212-.232.299-.336.031.001.059.015.09.013v-.001c19.078-1.207 31.595-8.573 31.705-8.635a1.3 1.3 0 0 0 .461-1.78ZM82.046 161.737c.52-.601.89-1.435.963-2.395a6.45 6.45 0 0 0 .022-.521c.003-1.035-.282-1.941-.738-2.632-.591-.899-1.384-1.404-2.072-1.712.156-.449.281-.973.283-1.576.013-.92-.34-2.018-1.211-2.88a4.038 4.038 0 0 0-1.442-.943 4.307 4.307 0 0 0-1.524-.269c-1.233.008-2.288.436-3.071.827-.19.096-.364.192-.52.282-1.704-.906-11.245-6.179-23.746-17.031a1.3 1.3 0 1 0-1.704 1.963c13.439 11.666 23.54 17.008 24.48 17.495a1.29 1.29 0 0 0 1.73.174l.002-.001.002-.001c.017-.014.422-.311.985-.589.564-.286 1.287-.526 1.842-.519.23 0 .428.034.604.101.177.068.34.166.515.342.382.401.446.686.459 1.049.003.359-.133.784-.291 1.105-.078.16-.157.292-.213.378l-.062.092-.011.016a1.296 1.296 0 0 0 .909 2.081v.002c0-.001.166.017.404.082.361.093.857.301 1.193.619.17.161.31.343.415.58.105.238.18.538.182.965 0 .095-.004.198-.013.31-.044.461-.174.704-.35.918-.258.314-.742.553-1.238.675a4.414 4.414 0 0 1-1.005.134h-.03a1.301 1.301 0 0 0-1.25 1.658c.006.014.165.621.162 1.269.002.396-.06.796-.185 1.08-.132.287-.268.459-.575.618-.442.217-.798.284-1.115.286a2.206 2.206 0 0 1-.926-.213c-.438-.198-.84-.536-1.114-.828a4.395 4.395 0 0 1-.312-.366l-.07-.098-.013-.018-.002.001a1.271 1.271 0 0 0-.632-.487c-.037-.02-.075-.033-.114-.049-.037-.011-.071-.022-.109-.03-.102-.033-.2-.076-.313-.084-9.244-.582-16.562-2.597-21.557-4.458a54.805 54.805 0 0 1-5.697-2.477 32.139 32.139 0 0 1-1.8-.988l-.084-.051-.02-.012a1.3 1.3 0 1 0-1.397 2.193c.124.077 11.136 7.062 29.917 8.353.197.238.462.53.813.835.377.327.847.664 1.42.928a4.809 4.809 0 0 0 2.01.449c.722.001 1.5-.174 2.27-.556a3.77 3.77 0 0 0 1.81-1.923c.315-.742.393-1.475.395-2.105a7.48 7.48 0 0 0-.02-.5c.32-.072.666-.172 1.028-.321.584-.244 1.213-.622 1.73-1.227ZM85.364 52.703a1.3 1.3 0 0 0-1.682-.743c-.058.023-.895.35-2.027 1.065-1.131.716-2.563 1.82-3.782 3.421a1.3 1.3 0 1 0 2.07 1.574c.966-1.274 2.156-2.201 3.1-2.797.472-.298.881-.513 1.165-.651.142-.07.252-.119.324-.15l.077-.032.012-.005.002-.001a1.3 1.3 0 0 0 .74-1.681ZM118.834 55.049c-1.454-1.393-3.041-2.26-4.27-2.79-1.23-.53-2.108-.722-2.169-.735a1.3 1.3 0 0 0-.551 2.54h.001l.001.001c.092.012 2.97.715 5.188 2.86a1.3 1.3 0 0 0 1.8-1.876Z"/></svg>