<svg width="200" height="200" viewBox="0 0 200 200" xmlns="http://www.w3.org/2000/svg"><g id="type=champion, mode=dark"><g id="catInGoblet"><path id="Vector" d="M147.358 84.4177L132.239 84.5398C132.766 79.3562 133.033 74.1765 133.033 69.1868C133.033 67.7854 133.014 66.3992 132.975 65.0325C132.955 64.3264 132.378 63.7673 131.672 63.7693L123.812 63.7888C123.578 60.9973 123.308 58.3152 123.01 55.7649C125.056 56.2781 126.928 56.8591 128.595 57.4793C132.474 58.9197 135.31 60.5564 136.948 61.8338C137.515 62.2742 138.332 62.1721 138.772 61.6057C139.213 61.0393 139.111 60.2224 138.545 59.782C136.625 58.2913 133.596 56.5672 129.501 55.0423C127.479 54.2903 125.196 53.5906 122.668 53.0017C122.544 52.0393 122.418 51.095 122.288 50.1726C129.533 50.4788 136.653 52.1829 141.402 54.4671C142.049 54.7771 142.826 54.5042 143.136 53.8572C143.447 53.2097 143.173 52.4334 142.526 52.1233C137.229 49.5911 129.656 47.8225 121.905 47.5569C121.805 46.9007 121.704 46.2576 121.602 45.6248C123.056 45.5716 124.483 45.5379 125.847 45.5379C130.846 45.5379 135.162 45.8552 138.221 46.1717C139.751 46.3303 140.967 46.4881 141.797 46.6062C142.212 46.6653 142.53 46.7141 142.744 46.7483C142.85 46.7654 142.931 46.7786 142.983 46.7874L143.059 46.8001C143.766 46.9236 144.439 46.4505 144.563 45.7434C144.687 45.0364 144.214 44.3631 143.507 44.2395C143.456 44.2307 136.064 42.9383 125.847 42.9378C124.348 42.9378 122.776 42.9754 121.17 43.0393C119.092 31.0193 116.859 23.9534 116.844 23.9075C116.726 23.5354 116.444 23.2332 116.081 23.0901C115.718 22.947 115.305 22.9754 114.966 23.1677C114.078 23.6721 113.028 24.4627 111.879 25.3928C109.085 27.6634 105.805 30.7508 104.688 31.8142C104.036 31.7986 103.232 31.7927 102.328 31.7927C98.3919 31.7927 92.6465 31.9104 90.8443 31.9495C85.4025 26.2097 81.054 23.3831 80.9887 23.3401C80.6572 23.1253 80.2396 23.0735 79.8657 23.2005C79.4917 23.3269 79.1917 23.6214 79.0586 23.9934C77.238 29.0877 75.8101 36.1936 74.7628 43.2361C72.4621 43.0335 69.7503 42.8753 66.857 42.8748C63.0189 42.8753 58.8733 43.1511 54.9688 43.9846C54.2666 44.1345 53.8189 44.8255 53.969 45.5276C54.119 46.2298 54.8099 46.6775 55.5122 46.5276L55.512 46.5271C59.1621 45.7464 63.1454 45.4739 66.857 45.4749C69.5979 45.4749 72.1828 45.6228 74.3924 45.8142C74.2991 46.5017 74.2087 47.1863 74.1233 47.865C68.7331 48.1009 61.0835 48.7898 53.7237 50.72C53.029 50.9021 52.6136 51.6131 52.7961 52.3079C52.9784 53.0027 53.6895 53.4177 54.3842 53.2356V53.2351C61.2754 51.4221 68.559 50.7312 73.8095 50.4812C73.7094 51.3606 73.6166 52.2254 73.5307 53.0716C73.191 53.115 72.8456 53.1604 72.4888 53.2107C67.8636 53.866 61.8617 55.1326 56.2867 57.6463C55.6322 57.9412 55.3411 58.7112 55.6365 59.366C55.9318 60.0203 56.7016 60.3113 57.3562 60.0164L57.3562 60.0159C62.589 57.6526 68.3832 56.4148 72.8526 55.7849C73.0003 55.7639 73.1337 55.7488 73.2785 55.7293C72.9951 58.9519 72.8307 61.78 72.7909 63.9163L61.1678 63.9451C60.4654 63.9465 59.8907 64.5076 59.8715 65.2097C59.8335 66.6052 59.8149 67.9964 59.8149 69.3801C59.8161 74.468 60.0779 79.4583 60.573 84.2937L44.9499 84.4177C44.5975 84.4202 44.2638 84.5647 44.0204 84.8196C43.777 85.074 43.6481 85.4138 43.6611 85.7659C43.6686 85.8557 43.9614 93.9846 47.6501 102.747C49.4974 107.127 52.2031 111.674 56.1925 115.413C60.143 119.12 65.3761 122.004 72.1359 123.082C74.68 127.25 77.5976 130.777 80.8974 133.471C84.4043 136.339 88.3634 138.249 92.672 138.978C92.5062 144.35 91.5887 150.394 90.4609 155.662C89.8823 158.368 89.2505 160.87 88.6441 162.971C88.0491 165.034 87.4738 166.716 87.0183 167.787C85.1161 168.173 83.2579 168.664 81.479 169.275C76.525 170.98 72.1519 173.581 69.1303 177.238C68.8109 177.625 68.743 178.164 68.9561 178.618C69.1692 179.072 69.6272 179.364 70.1287 179.365L123.728 179.541C124.196 179.543 124.626 179.295 124.859 178.888C125.093 178.482 125.09 177.985 124.852 177.581C122.672 173.903 118.682 171.243 113.854 169.455C111.449 168.568 108.824 167.899 106.078 167.448C106.065 167.308 106.043 167.166 105.982 167.031C105.566 166.111 105.029 164.573 104.475 162.641C102.828 156.916 100.97 147.67 100.452 139.017C105.78 138.194 110.403 135.697 114.274 132.03C116.951 129.494 119.287 126.411 121.323 122.929C128.023 121.58 133.152 118.579 136.988 114.841C142.805 109.171 145.695 101.897 147.163 96.0642C148.628 90.2259 148.667 85.7981 148.669 85.7288C148.671 85.3811 148.534 85.0442 148.288 84.7986C148.043 84.553 147.705 84.4148 147.358 84.4177ZM138.976 92.0266C138.951 94.0716 138.613 98.4417 136.592 102.944C135.531 105.312 134.013 107.717 131.835 109.875C130.151 111.542 128.067 113.063 125.476 114.311C126.728 111.153 127.808 107.811 128.73 104.352C129.79 100.368 130.629 96.2244 131.284 92.0266H138.976ZM75.918 55.4158C76.8447 55.3235 77.6595 55.26 78.3318 55.2166C79.0018 55.1731 79.5308 55.1492 79.8899 55.1365C80.0694 55.1301 80.2063 55.1267 80.2972 55.1248C80.388 55.1228 80.4276 55.1223 80.4277 55.1223C81.1455 55.1145 81.7215 54.5266 81.7141 53.8089C81.7067 53.0911 81.1188 52.5149 80.401 52.5227C80.3722 52.5232 78.7476 52.5413 76.1753 52.7796C76.257 51.9949 76.3446 51.1961 76.4383 50.3845C77.4986 50.3577 78.4293 50.3474 79.1718 50.3479C79.8501 50.3479 80.3825 50.3552 80.7433 50.3626C80.9237 50.3665 81.0612 50.3699 81.1528 50.3728C81.2443 50.3758 81.2862 50.3772 81.2863 50.3772C82.0036 50.4046 82.6075 49.8455 82.635 49.1282C82.6626 48.4109 82.1034 47.8069 81.3861 47.7796C81.3715 47.7786 80.5666 47.7478 79.1718 47.7478C78.5001 47.7483 77.6779 47.7571 76.7555 47.7771C76.8279 47.2117 76.9034 46.6424 76.9812 46.0716C76.9857 46.072 76.9908 46.0725 76.9953 46.073C78.3069 46.2224 79.3726 46.3719 80.1073 46.4837C80.4748 46.5393 80.7596 46.5857 80.9511 46.6175C81.0468 46.6336 81.1193 46.6463 81.167 46.6546L81.2352 46.6668C81.9414 46.7952 82.6183 46.3269 82.7469 45.6204C82.8754 44.9143 82.407 44.2376 81.7007 44.1092C81.6776 44.1052 80.0083 43.8015 77.3479 43.4964C78.2654 37.3435 79.4937 31.1555 80.9585 26.511C82.6644 27.7918 85.7797 30.325 89.3488 34.1487C89.6021 34.4202 89.9577 34.5696 90.329 34.5613C90.3332 34.5613 92.16 34.5193 94.5774 34.4768C96.9942 34.4348 99.9976 34.3928 102.328 34.3928C103.492 34.3928 104.492 34.4026 105.141 34.429C105.498 34.4431 105.838 34.3133 106.095 34.0657C106.096 34.0652 106.207 33.9578 106.413 33.762C107.132 33.0759 108.982 31.3294 110.97 29.5784C111.963 28.7029 112.992 27.8264 113.923 27.0862C114.249 26.826 114.558 26.5906 114.855 26.3704C115.607 29.0593 117.111 34.8977 118.555 43.1765C117.023 43.2737 115.469 43.3948 113.882 43.5681C113.168 43.6458 112.652 44.2879 112.73 45.0017C112.809 45.7156 113.45 46.2307 114.164 46.1531V46.1526C115.803 45.9734 117.41 45.8499 118.99 45.7537C119.085 46.3347 119.178 46.928 119.271 47.5301C118.235 47.5423 117.2 47.5769 116.172 47.6497C115.455 47.7 114.916 48.3216 114.966 49.0379C115.017 49.7542 115.638 50.2937 116.355 50.2434V50.2429C117.447 50.1663 118.549 50.1292 119.655 50.1233C119.763 50.8831 119.87 51.6541 119.974 52.4422C118.141 52.0984 116.205 51.8098 114.151 51.6067C113.436 51.5359 112.8 52.0579 112.729 52.7727C112.658 53.4871 113.18 54.1238 113.895 54.1946V54.1941C116.183 54.4202 118.323 54.7512 120.317 55.1531C120.648 57.8865 120.948 60.7722 121.204 63.7952L75.3916 63.9094C75.4329 61.7483 75.6116 58.7913 75.918 55.4158ZM67.8113 114.535C64.8382 113.245 62.5005 111.45 60.6462 109.394C57.2533 105.631 55.478 100.98 54.5764 97.2586C54.1248 95.3997 53.8896 93.7786 53.7685 92.6306C53.7498 92.4544 53.7383 92.3118 53.7246 92.1585H61.6108C62.9543 100.363 65.0411 107.942 67.8113 114.535ZM57.97 113.516C52.4991 108.399 49.5367 101.433 47.9794 95.7239C47.1994 92.8723 46.7677 90.3416 46.5325 88.5325C46.4552 87.9383 46.4006 87.4309 46.36 87.0066L60.8603 86.8919C60.9691 87.7854 61.0809 88.677 61.2065 89.5584H52.3401C51.9927 89.5584 51.6589 89.698 51.4149 89.9451C51.1709 90.1922 51.0357 90.5276 51.0402 90.8753C51.0446 90.9656 51.1081 96.1638 53.3649 102.142C54.4955 105.13 56.1809 108.319 58.7139 111.134C61.2437 113.948 64.6339 116.376 69.0782 117.798C69.1451 117.819 69.2119 117.81 69.2793 117.82C69.3167 117.898 69.3512 117.98 69.3888 118.057C69.7287 118.757 70.0811 119.437 70.4383 120.109C65.2187 118.9 61.1721 116.511 57.97 113.516ZM121.122 176.933L73.2108 176.776C75.6567 174.638 78.7874 172.948 82.3242 171.734C86.9546 170.141 92.2534 169.36 97.4776 169.361C103.018 169.36 108.475 170.239 112.954 171.894C116.39 173.158 119.215 174.883 121.122 176.933ZM100.247 156.318C100.804 158.957 101.4 161.352 101.976 163.359C102.397 164.821 102.803 166.064 103.189 167.069C101.313 166.871 99.4018 166.761 97.4776 166.761C94.9767 166.761 92.4622 166.939 89.9935 167.284C90.359 166.263 90.7442 165.069 91.1421 163.692C92.9671 157.358 94.9733 147.692 95.2649 139.258C95.7095 139.282 96.1514 139.318 96.6027 139.318C96.9322 139.318 97.2649 139.311 97.6001 139.298L97.5481 137.999L97.6007 139.298C97.6898 139.295 97.7769 139.286 97.8657 139.282C98.2253 145.144 99.1624 151.188 100.247 156.318ZM112.488 130.14C108.293 134.093 103.383 136.454 97.4953 136.7C97.1972 136.712 96.8997 136.718 96.6027 136.718C91.3863 136.713 86.7211 134.861 82.5414 131.457C76.2795 126.358 71.2051 117.697 67.7452 106.862C64.2798 96.031 62.4139 83.0515 62.4149 69.3801C62.4149 68.4387 62.4357 67.49 62.4535 66.5423L130.394 66.3723C130.412 67.3059 130.433 68.2366 130.433 69.1868C130.438 84.2132 128.11 101.042 122.763 114.093C120.094 120.619 116.675 126.188 112.488 130.14ZM134.838 113.299C131.797 116.158 127.946 118.505 122.994 119.864C123.34 119.177 123.674 118.475 124 117.765C128.07 116.255 131.238 114.129 133.665 111.721C137.322 108.098 139.298 103.869 140.36 100.181C141.421 96.4885 141.578 93.3216 141.579 91.7278C141.579 91.0506 141.55 90.6575 141.548 90.6287C141.496 89.9519 140.93 89.4265 140.251 89.4265H131.657C131.761 88.6653 131.872 87.9051 131.963 87.1424L146.004 87.0291C145.821 89.637 145.114 95.7542 142.438 102.059C140.77 105.997 138.345 109.998 134.838 113.299Z"/><path id="Vector_2" d="M89.5229 44.1096C89.4029 43.5852 88.9736 43.1896 88.4415 43.1125C87.9092 43.0358 87.3855 43.2936 87.1222 43.7629C87.1078 43.7888 86.916 44.1296 86.7131 44.6037C86.6117 44.8415 86.5071 45.113 86.4211 45.4099C86.3369 45.7082 86.2642 46.0275 86.2617 46.4138C86.2646 46.759 86.3195 47.2258 86.6827 47.6823C86.8611 47.904 87.1146 48.0886 87.3763 48.1926C87.639 48.2995 87.8997 48.3356 88.1384 48.3356L88.2257 48.3347L88.251 48.3337C88.6211 48.3254 89.0276 48.1301 89.2543 47.8908C89.6028 47.5261 89.6766 47.2048 89.7375 46.9533C89.7902 46.6965 89.8007 46.4728 89.8017 46.2531C89.7999 45.7321 89.7276 45.2258 89.6607 44.8195C89.5929 44.4162 89.5267 44.1267 89.5229 44.1096Z"/><path id="Vector_3" d="M107.183 43.5042C106.837 43.0867 106.274 42.9275 105.761 43.1028C105.249 43.2776 104.9 43.7483 104.882 44.2898C104.882 44.301 104.877 44.4436 104.877 44.6648C104.877 44.9939 104.886 45.4925 104.94 46.011C104.967 46.2713 105.005 46.5364 105.069 46.8069C105.138 47.0794 105.212 47.3538 105.429 47.6897C105.809 48.2605 106.568 48.4373 107.162 48.0935C107.257 48.0364 107.506 47.8841 107.767 47.555C108.028 47.2332 108.285 46.6907 108.281 46.0457C108.281 45.6409 108.186 45.2161 108.003 44.7947C107.819 44.3724 107.55 43.948 107.183 43.5042Z"/><path id="Vector_4" d="M102.26 48.8392C102.063 48.907 101.914 48.927 101.796 48.927C101.616 48.9256 101.476 48.8851 101.324 48.806C101.099 48.6902 100.867 48.4617 100.711 48.2522C100.633 48.1487 100.573 48.054 100.537 47.992L100.501 47.9266L100.497 47.9183L100.495 47.9192C100.27 47.4539 99.7926 47.1648 99.2755 47.1853C98.7578 47.2059 98.3035 47.5325 98.1163 48.0149L98.1149 48.0145L98.1105 48.0247C98.0828 48.097 97.8959 48.4856 97.6138 48.7811C97.4739 48.9305 97.3164 49.0555 97.1535 49.138C96.9884 49.22 96.8224 49.2689 96.5933 49.2703C96.5108 49.2703 96.4188 49.2635 96.3145 49.2454C95.6063 49.1253 94.9351 49.6023 94.8153 50.3103C94.6954 51.0184 95.1722 51.6897 95.8804 51.8099V51.8094C96.122 51.8499 96.3605 51.8704 96.5933 51.8704C97.3136 51.8724 97.9638 51.6692 98.4782 51.3772C98.8603 51.1604 99.1716 50.9041 99.4283 50.6438C99.6268 50.8074 99.8473 50.9656 100.107 51.1038C100.572 51.3514 101.153 51.5286 101.796 51.5271C102.226 51.5271 102.671 51.4485 103.114 51.2942C103.792 51.0584 104.15 50.3172 103.915 49.6395C103.679 48.9617 102.938 48.6033 102.26 48.8392Z"/><path id="Vector_5" d="M109.849 92.7336C108.32 92.5256 105.994 92.3625 104.017 92.2458C102.88 92.179 101.877 92.1291 101.22 92.0984L97.8 84.8962C97.5847 84.4431 97.1267 84.1541 96.6252 84.1541C96.1236 84.1545 95.6659 84.4436 95.451 84.8972L91.6955 92.823C87.0943 93.4319 83.798 94.3401 83.7585 94.3503C83.3228 94.4705 82.9781 94.8123 82.8542 95.2468C82.7302 95.6814 82.8428 96.1536 83.1493 96.4856C83.3903 96.7454 83.8682 97.2219 84.4938 97.8381C85.9173 99.2405 88.0232 101.276 88.9403 102.161C88.6256 105.288 88.3175 110.273 88.3165 110.284C88.2875 110.751 88.5154 111.202 88.9092 111.457C89.303 111.711 89.8079 111.732 90.2221 111.513C90.4069 111.415 90.6328 111.283 90.9206 111.11C92.479 110.174 95.7371 108.083 97.0682 107.226L104.861 110.696C105.308 110.894 105.832 110.824 106.211 110.515C106.591 110.206 106.765 109.707 106.66 109.23L104.954 101.432L110.655 94.8743C110.967 94.5139 111.058 94.01 110.89 93.5637C110.722 93.1175 110.322 92.7976 109.849 92.7336ZM102.563 100.219C102.293 100.531 102.186 100.947 102.275 101.35L103.571 107.274L97.4836 104.564C97.0824 104.385 96.6181 104.422 96.2493 104.66C96.2483 104.661 95.862 104.91 95.2624 105.296C94.3633 105.874 92.9875 106.755 91.7353 107.545C91.508 107.688 91.2928 107.823 91.0773 107.958C91.0939 107.721 91.1112 107.476 91.1297 107.22C91.259 105.425 91.4305 103.255 91.5916 101.81C91.6362 101.408 91.4924 101.01 91.2015 100.73C91.2006 100.729 90.8645 100.405 90.346 99.9041C89.5685 99.1531 88.3833 98.0056 87.3202 96.968C87.0941 96.7473 86.8783 96.5359 86.6685 96.3298C88.1502 96.011 90.2701 95.6096 92.723 95.3118C93.1671 95.2576 93.5493 94.9827 93.7409 94.5784L96.6271 88.4875L99.2073 93.9202C99.4136 94.3542 99.8474 94.6414 100.328 94.6614C100.329 94.6614 100.722 94.6775 101.363 94.7083C102.325 94.7542 103.836 94.8328 105.372 94.9363C105.938 94.9744 106.5 95.0168 107.047 95.0618L102.563 100.219Z"/><path id="Vector_6" d="M38.7028 71.7898C38.6201 71.5149 38.5828 71.157 38.584 70.8288C38.5838 70.5593 38.6063 70.3103 38.6285 70.1364L38.6579 69.9382L38.666 69.8938L38.6663 69.8918C38.7903 69.3 38.4936 68.7053 37.9464 68.448C37.4051 68.1941 36.7677 68.3425 36.39 68.8039L36.3877 68.802L36.2672 68.9236C36.1465 69.0349 35.9415 69.195 35.6833 69.3181C35.423 69.4421 35.1177 69.5329 34.7423 69.5334C34.582 69.5334 34.4082 69.5168 34.215 69.4753C33.7326 69.3708 33.2348 69.5481 32.9263 69.9333C32.6178 70.3181 32.5538 70.8425 32.7604 71.2907C32.9717 71.7414 33.0584 72.3254 33.0563 72.863C33.0566 73.2556 33.0139 73.6179 32.9716 73.8723C32.9505 73.9997 32.9297 74.0998 32.9153 74.1638L32.8993 74.2317L32.8964 74.2434H32.8972C32.7397 74.8293 33.0106 75.4504 33.548 75.7322C34.0869 76.0149 34.7546 75.8835 35.1464 75.4182C35.2108 75.3347 35.4137 75.1824 35.7206 75.0588C36.1769 74.8669 36.8199 74.7419 37.3251 74.6867C37.5785 74.6574 37.799 74.6428 37.9514 74.636L38.125 74.6296L38.1657 74.6291H38.1713C38.7169 74.6291 39.203 74.2898 39.3914 73.778C39.5797 73.2658 39.4293 72.6926 39.0137 72.3391C38.899 72.2429 38.7862 72.071 38.7028 71.7898ZM35.6366 72.3596C35.6302 72.259 35.6184 72.156 35.6074 72.0515C35.7777 72.0197 35.933 71.9734 36.0886 71.927C36.1063 72.0315 36.1277 72.1374 36.1526 72.2448C35.984 72.2781 35.8131 72.3142 35.6366 72.3596Z"/><path id="Vector_7" d="M11.5438 101.429L11.5219 101.383C11.4118 101.151 10.9709 100.073 10.9753 98.7737L10.9808 98.5188C11.0024 98.0462 10.768 97.6018 10.3659 97.3533C9.96376 97.1047 9.46143 97.0935 9.04859 97.324H9.0478C8.9654 97.3743 7.6573 98.0437 6.1789 98.1746C5.7248 98.2166 5.32259 98.4973 5.12611 98.909C4.9297 99.3206 4.96467 99.8093 5.21736 100.189C5.28163 100.282 5.37007 100.487 5.42518 100.748C5.48237 101.009 5.5113 101.32 5.51081 101.613C5.51112 101.869 5.48915 102.113 5.45857 102.291L5.41401 102.493L5.40205 102.53L5.40589 102.532C5.15406 103.031 5.24532 103.636 5.64253 104.034C6.04713 104.439 6.66914 104.531 7.1739 104.262H7.17396L7.17622 104.261H7.17616C7.19539 104.251 7.60724 104.036 8.22254 103.815C8.84095 103.591 9.66492 103.366 10.4689 103.315C10.9068 103.286 11.2989 103.04 11.5153 102.658C11.7307 102.279 11.7404 101.819 11.543 101.43L11.5438 101.429ZM8.08772 101.13C8.07368 100.915 8.04622 100.699 8.00947 100.478C8.18635 100.432 8.35456 100.384 8.51496 100.334C8.55488 100.563 8.60041 100.777 8.64979 100.977C8.4521 101.024 8.26917 101.077 8.08772 101.13Z"/><path id="Vector_8" d="M60.8309 147.57C60.7636 147.297 60.7341 146.952 60.735 146.638C60.7349 146.373 60.7536 146.13 60.7721 145.961L60.7966 145.766L60.8035 145.722L60.8047 145.714H60.8042C60.8955 145.194 60.6647 144.672 60.2177 144.389C59.7696 144.107 59.1971 144.124 58.7666 144.433C58.1874 144.841 57.5024 145.107 56.4027 145.114L56.2512 145.112C55.8339 145.105 55.436 145.301 55.1868 145.636C54.9376 145.97 54.8642 146.407 54.9902 146.805C55.2453 147.608 55.313 148.363 55.3126 148.915C55.3127 149.204 55.2944 149.437 55.2774 149.59L55.2556 149.755L55.2504 149.787L55.2499 149.789H55.251C55.151 150.306 55.3704 150.831 55.8104 151.121C56.2526 151.413 56.8248 151.407 57.2616 151.108C58.3495 150.356 59.5053 150.271 59.8901 150.274L59.9924 150.276H59.9931C60.5322 150.327 61.0455 150.04 61.2841 149.554C61.5228 149.068 61.4358 148.486 61.0649 148.092C60.9996 148.027 60.8961 147.846 60.8309 147.57ZM58.253 147.875C58.1274 147.905 57.9944 147.945 57.8615 147.984C57.8485 147.848 57.838 147.715 57.8178 147.57C57.9439 147.546 58.0666 147.517 58.1884 147.487C58.2029 147.613 58.2294 147.744 58.253 147.875Z"/><path id="Vector_9" d="M143.227 132.955V132.953C143.216 132.955 142.9 132.938 142.604 132.837C142.456 132.788 142.315 132.72 142.21 132.645C142.103 132.569 142.031 132.492 141.974 132.392C141.648 131.819 140.951 131.581 140.342 131.835C139.734 132.089 139.414 132.752 139.592 133.386L139.622 133.595C139.622 133.735 139.579 133.865 139.512 133.971L139.411 134.095L139.372 134.127L139.36 134.135C138.794 134.405 138.501 135.046 138.667 135.651C138.83 136.248 139.395 136.641 140.01 136.6V136.604H140.025C140.094 136.602 140.321 136.62 140.5 136.699C140.685 136.786 140.813 136.864 140.95 137.141C141.195 137.668 141.762 137.969 142.336 137.876C142.909 137.783 143.353 137.319 143.42 136.742C143.424 136.7 143.479 136.335 143.601 135.979C143.66 135.802 143.737 135.629 143.811 135.508C143.884 135.384 143.952 135.322 143.964 135.316C144.426 134.99 144.625 134.4 144.455 133.861C144.285 133.325 143.788 132.96 143.227 132.955Z"/><path id="Vector_10" d="M197.372 108.675L197.346 108.634C197.282 108.533 197.116 108.249 196.976 107.889C196.834 107.53 196.726 107.097 196.728 106.711C196.727 106.558 196.743 106.412 196.774 106.277C196.891 105.777 196.699 105.25 196.288 104.942C195.878 104.635 195.321 104.598 194.875 104.848L194.874 104.847C194.874 104.847 194.808 104.885 194.684 104.942C194.313 105.12 193.439 105.446 192.633 105.439C192.486 105.439 192.335 105.429 192.184 105.407C191.699 105.339 191.216 105.55 190.936 105.951C190.656 106.352 190.626 106.878 190.857 107.309C191.147 107.836 191.309 108.619 191.304 109.209C191.309 109.562 191.237 109.854 191.218 109.881C190.982 110.425 191.144 111.059 191.612 111.424C192.077 111.785 192.726 111.787 193.194 111.432L193.195 111.434C193.208 111.425 193.482 111.227 193.93 111.041C194.38 110.854 194.997 110.679 195.718 110.679C195.868 110.679 196.014 110.686 196.16 110.702C196.667 110.756 197.156 110.512 197.417 110.074C197.676 109.637 197.658 109.094 197.371 108.675H197.372ZM193.841 108.338C193.824 108.202 193.798 108.066 193.773 107.929C193.942 107.899 194.103 107.866 194.258 107.828C194.287 107.964 194.317 108.095 194.353 108.221C194.175 108.256 194.004 108.293 193.841 108.338Z"/><path id="Vector_11" d="M181.218 70.384L181.153 70.2517C181.03 69.9807 180.787 69.3259 180.788 68.429C180.788 68.1726 180.807 67.8967 180.855 67.6033C180.94 67.072 180.69 66.5452 180.225 66.2742C179.765 66.0061 179.189 66.0471 178.77 66.3757L178.769 66.3743C178.762 66.3801 178.516 66.5637 178.119 66.7361C177.72 66.9094 177.176 67.0691 176.549 67.0686L176.353 67.0647C175.901 67.053 175.474 67.2786 175.228 67.658C174.983 68.0374 174.952 68.5193 175.148 68.927C175.318 69.2664 175.45 69.8958 175.444 70.4334C175.456 70.9026 175.327 71.3172 175.297 71.3352C174.971 71.8714 175.074 72.5623 175.542 72.9802C176.008 73.3967 176.702 73.4212 177.198 73.0418V73.0427L177.242 73.0115C177.351 72.9348 177.655 72.7371 178.05 72.5701C178.445 72.4011 178.923 72.2698 179.376 72.2717C179.535 72.2717 179.686 72.2859 179.832 72.3162C180.338 72.4221 180.86 72.218 181.159 71.7957C181.455 71.3772 181.476 70.8255 181.216 70.385L181.218 70.384ZM178.015 69.8518C178.006 69.7351 177.988 69.6189 177.972 69.5022C178.073 69.4793 178.167 69.4549 178.262 69.429C178.278 69.551 178.293 69.6756 178.314 69.7893C178.213 69.8089 178.111 69.8279 178.015 69.8518Z"/><path id="Vector_12" d="M37.9023 36.9563L37.9031 36.9573L37.9049 36.9583L37.9023 36.9563Z"/><path id="Vector_13" d="M33.2345 42.8797C33.9517 43.4451 34.8143 43.7278 35.6641 43.7273C36.7629 43.7302 37.8718 43.2488 38.608 42.3137L38.6094 42.3118C39.142 41.6355 39.403 40.8162 39.4016 40.0144C39.4021 38.864 38.8768 37.7239 37.9039 36.9573C37.1853 36.3879 36.3208 36.1067 35.4734 36.1077C34.3746 36.1047 33.2659 36.5862 32.5299 37.5213C31.9946 38.197 31.735 39.0183 31.7363 39.8201C31.7357 40.971 32.2611 42.1121 33.2345 42.8797ZM34.3363 39.8201C34.3376 39.5647 34.4131 39.3333 34.5707 39.1326C34.7896 38.8562 35.1086 38.7107 35.4734 38.7078C35.7545 38.7083 36.0399 38.7981 36.2919 38.9968L36.2945 38.9988C36.6356 39.2673 36.801 39.6502 36.8015 40.0144C36.8001 40.2673 36.7257 40.4983 36.5656 40.7044C36.348 40.9788 36.0289 41.1243 35.6641 41.1272C35.3848 41.1267 35.097 41.0364 34.8439 40.8372L34.0393 41.8587L34.8439 40.8372C34.5026 40.5686 34.3369 40.1853 34.3363 39.8201Z"/><path id="Vector_14" d="M9.5 72.7898L9.50213 72.7878L9.50329 72.7859L9.5 72.7898Z"/><path id="Vector_15" d="M12.7031 72.4373L12.705 72.4392L12.7059 72.4397L12.7031 72.4373Z"/><path id="Vector_16" d="M12.7044 72.4392C12.2815 72.1033 11.7667 71.9363 11.2674 71.9373C10.6177 71.9343 9.94629 72.2234 9.50183 72.7879C9.17688 73.1966 9.02015 73.6956 9.02149 74.1731C9.02106 74.8601 9.33508 75.534 9.9057 75.9846L9.90796 75.9866C10.3265 76.3152 10.8345 76.4846 11.3406 76.4842C11.9895 76.4871 12.6624 76.199 13.1074 75.6336L13.1105 75.6292C13.4289 75.2244 13.588 74.7273 13.5865 74.2483C13.5869 73.5618 13.2728 72.8889 12.7044 72.4392ZM11.5159 73.9431L11.3406 74.1653V74.1609L11.5137 73.9412L11.5159 73.9431ZM11.0662 74.0227L11.2569 74.1731H11.2517L11.2673 74.1853V74.1873L11.0631 74.0271L11.0662 74.0227Z"/><path id="Vector_17" d="M33.9902 105.03L33.9932 105.028L33.9962 105.025L33.9902 105.03Z"/><path id="Vector_18" d="M37.1895 105.396L37.1902 105.397L37.1916 105.398L37.1895 105.396Z"/><path id="Vector_19" d="M35.4168 104.535C34.9152 104.535 34.4096 104.702 33.9929 105.028C33.4141 105.477 33.0969 106.157 33.0977 106.846C33.0961 107.321 33.2521 107.817 33.5696 108.222L33.5718 108.225C34.0157 108.791 34.686 109.084 35.344 109.082C35.8424 109.083 36.3497 108.918 36.7691 108.591L36.7717 108.589C37.3438 108.14 37.6637 107.464 37.663 106.772C37.6645 106.298 37.5087 105.802 37.191 105.397C36.747 104.825 36.0705 104.532 35.4168 104.535ZM35.62 106.623L35.4289 106.772H35.4244L35.6178 106.621L35.62 106.623ZM35.344 106.767L35.1679 106.542L35.1704 106.54L35.3439 106.762L35.344 106.482V106.767Z"/><path id="Vector_20" d="M25.4153 131.213C24.5638 131.213 23.6989 131.494 22.9771 132.057C22.9769 132.057 22.9768 132.058 22.9766 132.058C22.9764 132.058 22.976 132.058 22.9758 132.058H22.9759C21.9829 132.833 21.4468 133.991 21.4473 135.16C21.446 135.963 21.7048 136.785 22.2369 137.466C22.9807 138.42 24.1056 138.912 25.2232 138.909C26.0752 138.91 26.9404 138.629 27.6622 138.065C28.6547 137.289 29.1925 136.132 29.192 134.962C29.1934 134.158 28.9343 133.337 28.4023 132.657C27.6588 131.702 26.5317 131.21 25.4153 131.213ZM26.0624 136.015C25.8035 136.217 25.5091 136.309 25.2232 136.309C24.8452 136.307 24.5116 136.154 24.2866 135.867C24.1251 135.658 24.0486 135.42 24.0473 135.16C24.0478 134.781 24.2215 134.383 24.5745 134.109L23.7758 133.083L24.5758 134.108C24.8357 133.905 25.1296 133.814 25.4153 133.813C25.7952 133.816 26.1271 133.968 26.3523 134.256C26.5145 134.465 26.5905 134.702 26.5919 134.962C26.5914 135.34 26.4183 135.738 26.0624 136.015Z"/><path id="Vector_21" d="M133.023 151.874C132.139 151.873 131.237 152.169 130.503 152.773L130.506 152.771C129.543 153.558 129.052 154.718 129.055 155.867C129.054 156.802 129.375 157.752 130.014 158.531L131.019 157.707L130.015 158.532C130.839 159.535 132.036 160.073 133.241 160.072C134.123 160.073 135.025 159.78 135.759 159.177L135.762 159.174C136.72 158.385 137.212 157.228 137.209 156.079C137.209 155.144 136.889 154.194 136.248 153.415C135.426 152.411 134.227 151.874 133.023 151.874ZM134.111 157.166C133.858 157.372 133.562 157.47 133.241 157.472C132.804 157.471 132.349 157.278 132.024 156.882C131.772 156.573 131.655 156.216 131.655 155.867C131.657 155.434 131.828 155.05 132.152 154.783L132.154 154.782C132.408 154.574 132.704 154.476 133.023 154.474C133.46 154.475 133.914 154.668 134.238 155.064C134.492 155.373 134.608 155.731 134.609 156.079C134.606 156.508 134.437 156.893 134.111 157.166Z"/><path id="Vector_22" d="M167.971 125.108L167.973 125.107L167.975 125.105L167.971 125.108Z"/><path id="Vector_23" d="M169.466 124.573C168.947 124.572 168.408 124.748 167.973 125.107C167.4 125.575 167.111 126.267 167.113 126.936C167.113 127.483 167.301 128.035 167.67 128.486L167.672 128.489C168.148 129.066 168.842 129.381 169.551 129.381C170.068 129.383 170.606 129.209 171.042 128.851L171.049 128.846C171.615 128.379 171.906 127.69 171.903 127.019C171.904 126.472 171.716 125.919 171.346 125.469C170.871 124.889 170.173 124.573 169.466 124.573ZM169.551 126.936V126.781V126.936ZM169.397 126.838L169.477 126.936L169.466 126.923V126.935L169.39 126.844L169.397 126.838ZM169.466 127.019V127.174V127.019ZM169.556 126.936L169.678 126.835L169.681 126.838L169.561 126.936H169.713H169.556Z"/><path id="Vector_24" d="M175.163 98.6116C174.646 98.6101 174.11 98.7859 173.678 99.1428C173.108 99.6087 172.819 100.298 172.822 100.964C172.821 101.509 173.009 102.059 173.376 102.507L173.379 102.509C173.852 103.082 174.541 103.397 175.248 103.397C175.762 103.398 176.3 103.225 176.735 102.867L176.739 102.864C177.301 102.4 177.592 101.713 177.589 101.046C177.59 100.502 177.402 99.9505 177.035 99.5032C176.562 98.9265 175.867 98.6111 175.163 98.6116ZM175.386 100.857L175.256 100.964H175.252L175.384 100.854L175.386 100.857ZM175.248 100.964V100.797V100.964ZM175.085 100.858L175.163 100.953V100.96L175.081 100.861L175.085 100.858Z"/><path id="Vector_25" d="M173.676 99.1443L173.678 99.1428L173.68 99.1404L173.676 99.1443Z"/><path id="Vector_26" d="M148.071 62.3396C147.489 62.3391 146.895 62.4695 146.343 62.7376C144.903 63.4378 144.088 64.8957 144.092 66.3894C144.092 67.0125 144.232 67.6492 144.521 68.2439L145.69 67.676L144.521 68.2444C145.24 69.7195 146.702 70.6087 148.246 70.6096C148.826 70.6101 149.421 70.4817 149.975 70.2126C151.415 69.51 152.23 68.053 152.226 66.5598C152.226 65.9373 152.087 65.3015 151.798 64.7073C151.079 63.2297 149.615 62.3401 148.071 62.3396ZM148.838 67.8743C148.647 67.9666 148.449 68.009 148.246 68.0095C147.709 68.0105 147.141 67.6897 146.859 67.1077C146.744 66.8694 146.692 66.6272 146.692 66.3894C146.692 66.1042 146.769 65.8298 146.905 65.6038C147.042 65.3767 147.231 65.1975 147.478 65.0769C147.673 64.9827 147.87 64.9402 148.071 64.9397C148.61 64.9392 149.176 65.2585 149.459 65.8435C149.574 66.0803 149.626 66.3225 149.626 66.5598C149.622 67.1355 149.326 67.6374 148.838 67.8743Z"/><path id="Vector_27" d="M158.77 40.2087V40.2078C158.768 40.2068 158.765 40.2068 158.762 40.2058C158.759 40.2048 158.757 40.2029 158.754 40.2019L158.753 40.2034C158.487 40.1096 158.219 40.0691 157.971 40.0691C157.493 40.0696 157.031 40.2122 156.641 40.4783C156.253 40.7415 155.933 41.1389 155.767 41.6184C155.679 41.8689 155.639 42.1228 155.639 42.3689C155.642 43.365 156.278 44.2522 157.238 44.5862L157.245 44.5881C157.495 44.6736 157.758 44.718 158.023 44.718C158.499 44.7175 158.96 44.5759 159.35 44.3103C159.74 44.0466 160.061 43.6487 160.227 43.1677L160.228 43.1624C160.311 42.9216 160.353 42.6677 160.353 42.4187C160.351 41.427 159.72 40.5461 158.77 40.2087ZM158.081 42.1267L158.088 42.1287L158.022 42.3167L158.023 42.1179V42.2976L158.081 42.1267ZM157.77 42.3147L157.927 42.3689H157.911L157.769 42.3201L157.77 42.3147ZM157.981 42.4402L158.107 42.6252L157.981 42.4402Z"/><path id="Vector_28" d="M155.764 41.6223L155.766 41.6184L155.767 41.6155L155.764 41.6223Z"/></g></g></svg>