<svg xmlns="http://www.w3.org/2000/svg" width="200" height="200" fill="none"><path fill="#FFD93A" d="M42.645 64.21a8.98 8.98 0 0 0-1.91-1.017c-1.018-.398-2.009-.607-2.912-.61-.494.003-.968.06-1.442.248a2.388 2.388 0 0 0-.695.424 1.967 1.967 0 0 0-.672 1.486c.004.53.189.956.41 1.312.341.534.801.96 1.35 1.354.55.39 1.193.735 1.91 1.017 1.018.395 2.008.605 2.912.607.494-.002.968-.059 1.442-.247.236-.095.474-.227.695-.423.22-.193.419-.457.538-.764l.001-.004c.091-.232.135-.483.134-.718-.004-.531-.19-.957-.411-1.313-.341-.533-.801-.959-1.35-1.353Z"/><path fill="#FFD93A" d="m35.148 64.02.001-.002.001-.005-.002.007ZM85.937 25.728c.25-.354.467-.801.471-1.364 0-.18-.025-.367-.078-.549a2.02 2.02 0 0 0-.578-.92c-.377-.34-.79-.51-1.202-.622a5.135 5.135 0 0 0-1.3-.152c-.752.001-1.568.124-2.41.369-1.014.297-1.9.719-2.606 1.243a4.211 4.211 0 0 0-.919.912c-.25.353-.466.801-.47 1.364a1.968 1.968 0 0 0 .657 1.47c.377.34.788.509 1.201.62.415.109.847.152 1.3.153.752-.001 1.568-.123 2.41-.368 1.014-.299 1.9-.72 2.605-1.245.353-.264.663-.554.92-.911ZM106.138 6.436l.001-.002.001-.004-.002.006Z"/><path fill="#FFD93A" d="M106.413 8.47c.341.533.801.958 1.35 1.353.55.39 1.193.735 1.91 1.017 1.018.396 2.009.605 2.912.608.495-.002.968-.06 1.442-.247a2.39 2.39 0 0 0 .695-.423c.22-.193.419-.457.538-.763l.003-.007c.09-.231.133-.48.132-.716-.004-.53-.189-.956-.41-1.312-.341-.534-.801-.96-1.35-1.354a8.972 8.972 0 0 0-1.91-1.017c-1.018-.397-2.009-.606-2.912-.609-.495.002-.969.06-1.443.248a2.393 2.393 0 0 0-.695.424 1.981 1.981 0 0 0-.673 1.485c.005.53.19.956.411 1.312ZM191.005 89.971a1.996 1.996 0 0 0-.758-.472 2.348 2.348 0 0 0-.771-.124c-.74.01-1.376.26-2.027.614a8.759 8.759 0 0 0-1.895 1.46 8.745 8.745 0 0 0-1.46 1.895c-.355.651-.605 1.288-.615 2.027 0 .245.033.505.125.772.091.265.249.536.47.756l.002.002c.221.221.491.379.756.47.267.092.527.124.772.125.739-.01 1.375-.26 2.026-.615a8.77 8.77 0 0 0 1.896-1.46 8.752 8.752 0 0 0 1.459-1.895c.355-.651.605-1.287.615-2.027 0-.244-.032-.504-.124-.771a1.996 1.996 0 0 0-.471-.757ZM9.944 67.37h.002l.001-.002-.003.002Z"/><path fill="#FFD93A" d="M14.995 69.898c-.525-.79-1.12-1.452-1.747-1.954a4.898 4.898 0 0 0-.992-.625 2.83 2.83 0 0 0-1.18-.281 2.034 2.034 0 0 0-1.13.331 2.04 2.04 0 0 0-.767.966A2.798 2.798 0 0 0 9 69.359c.003.6.14 1.19.363 1.8.225.609.544 1.232.95 1.846.527.791 1.121 1.453 1.75 1.954.315.25.64.462.99.624.351.16.733.28 1.181.282.356.003.772-.092 1.13-.331l.002-.002c.375-.248.63-.616.764-.965.136-.352.178-.693.18-1.024-.004-.6-.141-1.19-.364-1.8a9.04 9.04 0 0 0-.95-1.844ZM33.938 36.312h.006l.004-.001-.01.001Z"/><path fill="#FFD93A" d="M35.102 46.041c.526-.06.965-.34 1.251-.646.435-.467.65-.991.806-1.558.15-.568.221-1.19.222-1.857 0-.367-.023-.747-.069-1.135-.132-1.1-.421-2.083-.855-2.887-.221-.402-.477-.765-.829-1.076-.344-.304-.837-.583-1.453-.585a2.075 2.075 0 0 0-1.482.658c-.436.467-.65.992-.806 1.559-.15.568-.221 1.19-.222 1.857 0 .367.022.748.069 1.136.132 1.1.421 2.083.855 2.887.222.402.478.765.83 1.076.344.303.836.582 1.452.584l.226-.012h.005ZM156.339 46.739l.002-.003.001-.003-.003.006ZM156.476 48.898c.297.532.709.983 1.207 1.41.5.425 1.09.815 1.755 1.152 1.15.576 2.273.899 3.311.907.407-.002.811-.05 1.224-.214.406-.16.852-.48 1.105-.982l.002-.005c.146-.288.212-.609.211-.9-.004-.494-.157-.9-.351-1.256-.296-.532-.708-.983-1.206-1.41a9.067 9.067 0 0 0-1.755-1.152c-1.15-.576-2.274-.899-3.311-.906-.408.002-.812.05-1.225.214a2.09 2.09 0 0 0-1.102.98 1.983 1.983 0 0 0-.215.908c.004.493.157.899.35 1.254ZM177.762 23.468a2.005 2.005 0 0 0-1.013-.268c-.473.003-.867.14-1.221.318-.529.272-.992.656-1.434 1.125a9.073 9.073 0 0 0-1.218 1.66 9.183 9.183 0 0 0-.797 1.78c-.184.584-.293 1.147-.295 1.706.002.368.046.74.198 1.125.147.378.437.785.876 1.037l.003.002c.321.186.683.265 1.007.263.473-.003.867-.14 1.221-.317.53-.272.992-.656 1.435-1.125.44-.47.853-1.029 1.218-1.66.344-.598.61-1.198.796-1.78.184-.584.293-1.148.295-1.706a3.02 3.02 0 0 0-.198-1.125 2.061 2.061 0 0 0-.873-1.035Z"/><path fill="#FFD93A" d="m177.759 23.466.003.002h.002l-.005-.002ZM100.745 48.112c.227-.234.426-.414.598-.53.174-.116.31-.174.48-.206a1.301 1.301 0 0 0 .936-1.858l-2.432-4.897a1.3 1.3 0 0 0-1.393-.701c-.772.135-1.396.51-1.86.897-.699.589-1.151 1.19-1.583 1.554a2.35 2.35 0 0 1-.603.4c-.2.086-.412.139-.722.14-.22 0-.492-.03-.828-.114-.884-.222-1.656-.328-2.355-.328-1.05-.007-1.949.263-2.637.676-.517.307-.912.667-1.242.99-.495.491-.86.886-1.248 1.137-.391.248-.804.425-1.62.453a1.302 1.302 0 0 0-1.133 1.878l2.433 4.897a1.3 1.3 0 0 0 1.196.72c1.097-.021 2.016-.303 2.728-.72.535-.311.948-.677 1.289-1.007.51-.501.875-.903 1.233-1.137.36-.232.697-.381 1.433-.391.431 0 .996.067 1.723.25.514.128 1 .193 1.46.193a4.333 4.333 0 0 0 2.239-.6c.903-.542 1.448-1.236 1.908-1.696Zm-2.82-.844a2.352 2.352 0 0 1-.605.4c-.2.085-.41.138-.721.14-.22 0-.492-.03-.83-.115-.883-.221-1.654-.328-2.354-.328-1.05-.006-1.949.264-2.637.677-.517.306-.912.667-1.242.99-.495.49-.86.885-1.248 1.136a2.63 2.63 0 0 1-.833.35l-1.262-2.539c.3-.108.584-.23.834-.376.535-.31.949-.677 1.29-1.006.51-.502.875-.903 1.233-1.138.36-.231.697-.38 1.433-.39.431 0 .995.066 1.722.25.514.129 1 .192 1.461.192a4.331 4.331 0 0 0 2.238-.6c.903-.541 1.448-1.236 1.907-1.696.096-.099.185-.183.27-.261l1.25 2.515a4.73 4.73 0 0 0-.325.245c-.698.589-1.15 1.19-1.582 1.554ZM132.748 32.447l5.207 1.666a1.3 1.3 0 0 0 1.351-.356c.657-.707 1.077-1.45 1.3-2.169.226-.717.258-1.38.258-1.934 0-.328-.011-.623-.01-.885.003-.607.048-.986.276-1.418.231-.43.725-1.004 1.876-1.718.955-.586 1.625-1.319 1.995-2.114.373-.794.438-1.575.438-2.22-.002-.542-.042-1.01-.041-1.386 0-.26.018-.474.055-.64.038-.167.088-.287.172-.414.229-.338.285-.767.152-1.153a1.305 1.305 0 0 0-.833-.813l-5.208-1.666a1.298 1.298 0 0 0-1.472.51c-.288.423-.463.88-.557 1.309-.095.43-.116.833-.116 1.2.001.531.042.995.041 1.387 0 .475-.052.818-.191 1.113-.143.294-.382.616-1.011 1.01-1.388.859-2.279 1.735-2.797 2.698-.521.96-.59 1.916-.587 2.65.001.326.012.62.011.885 0 .45-.029.808-.138 1.155-.112.347-.298.713-.73 1.183a1.301 1.301 0 0 0 .559 2.12Zm2.898-5.343c.003-.607.049-.987.277-1.419.231-.43.724-1.004 1.876-1.718.955-.586 1.625-1.319 1.994-2.114.374-.793.439-1.575.439-2.22-.002-.543-.043-1.011-.041-1.387 0-.052.004-.094.005-.142l2.681.857a6.026 6.026 0 0 0-.078.952c.001.53.041.993.04 1.386 0 .475-.052.817-.191 1.113-.143.293-.382.615-1.011 1.01-1.388.858-2.278 1.735-2.796 2.697-.522.96-.59 1.916-.587 2.65 0 .325.011.62.01.885.001.45-.029.808-.138 1.155a2.636 2.636 0 0 1-.248.55l-2.699-.863c.087-.192.161-.384.22-.573.226-.718.258-1.381.258-1.934 0-.33-.011-.625-.011-.885ZM50.403 22.52c-.514-.501-.919-.86-1.155-1.216-.234-.36-.39-.707-.4-1.48 0-.42.06-.96.219-1.644.11-.481.166-.936.166-1.37a4.352 4.352 0 0 0-.614-2.272c-.556-.915-1.272-1.455-1.748-1.912a4.133 4.133 0 0 1-.551-.596 1.212 1.212 0 0 1-.218-.48 1.303 1.303 0 0 0-1.876-.901l-4.85 2.524a1.3 1.3 0 0 0-.674 1.406c.15.776.544 1.397.943 1.855.608.69 1.221 1.132 1.59 1.558.187.21.317.401.405.601.086.201.142.418.143.741 0 .212-.027.47-.1.784-.192.833-.284 1.566-.284 2.23-.006 1.076.265 1.99.689 2.691.314.527.686.926 1.02 1.258.509.496.92.857 1.183 1.245.26.39.448.799.492 1.623a1.302 1.302 0 0 0 1.898 1.097l4.85-2.524a1.3 1.3 0 0 0 .699-1.21c-.044-1.108-.348-2.028-.786-2.736-.325-.531-.703-.938-1.041-1.272Zm-6.005 1.309c-.233-.36-.39-.708-.4-1.48 0-.421.06-.961.219-1.646.111-.48.166-.936.166-1.369a4.35 4.35 0 0 0-.614-2.272c-.556-.915-1.271-1.455-1.748-1.912a6.404 6.404 0 0 1-.28-.277l2.491-1.296c.086.118.174.231.263.333.608.69 1.221 1.132 1.59 1.558.187.21.316.401.404.601.087.201.142.418.144.742 0 .21-.027.468-.1.785-.192.832-.284 1.564-.285 2.229-.006 1.075.266 1.99.69 2.69.314.526.686.926 1.02 1.257.509.497.919.858 1.182 1.245.16.238.286.496.374.839L47 27.166a5 5 0 0 0-.405-.85 6.689 6.689 0 0 0-1.04-1.271c-.515-.502-.919-.86-1.156-1.216ZM150.432 84.037c-.578-.292-.818-.953-.627-1.55-3.575 1.29-7.885 2.807-12.473 4.403 4.423 2.738 8.307 3.484 11.495 3.49 1.076 0 2.074-.086 2.987-.212a1.3 1.3 0 0 1 1.465 1.11c.006.041-.009.079-.007.12 5.075-1.494 9.533-2.874 12.793-4.003-.57.042-1.152.072-1.757.074-4.168-.002-9.113-1.021-13.876-3.432ZM175.732 74.08c-.041.022-1.172.636-2.892 1.255-1.721.616-4.029 1.247-6.475 1.25-1.784 0-3.67-.353-5.37-1.36.19.933.09 2.36-1.691 3.547-.588.392-3.419 1.497-7.559 3.01 4.33 2.168 8.856 3.089 12.563 3.087 3.071.012 5.579-.661 6.819-1.546a1.3 1.3 0 0 1 1.809.324c.035.05.043.11.071.162 3.01-2.952 3.777-6.486 3.118-10.059-.105.131-.236.244-.393.33ZM135.514 88.833c-.391-.252-.579-.68-.573-1.113-4.464 1.547-9.105 3.14-13.525 4.65 1.644 1.082 3.526 1.787 5.447 2.197 2.2.471 4.416.586 6.253.585.596 0 1.154-.012 1.661-.026a1.288 1.288 0 0 1 1.309 1.144c4.02-1.108 8.03-2.23 11.831-3.319-3.54-.138-7.795-1.145-12.403-4.118ZM105.214 98.22c-.078-.088-.12-.191-.171-.292-4.071 1.375-6.637 2.236-6.637 2.236-.898 3.672.722 5.941.722 5.941s5.449-1.399 13.357-3.484c-1.152-.225-2.212-.582-3.16-1.078-1.623-.845-2.947-2.02-4.111-3.323ZM119.114 93.957a1.268 1.268 0 0 1-.429-.655 5025.144 5025.144 0 0 1-11.007 3.736c.876.9 1.8 1.654 2.848 2.2 1.261.653 2.706 1.043 4.565 1.046.858 0 1.805-.087 2.853-.276.613-.111 1.181.24 1.41.793a2262 2262 0 0 0 11.563-3.115c-1.438-.076-2.996-.234-4.597-.576-2.46-.527-5.004-1.466-7.206-3.153ZM157.069 75.532c1.343-.142 2.444-.65 3.053-.986a1.29 1.29 0 0 1-.013-1.488 1.3 1.3 0 0 1 1.811-.32c1.284.9 2.821 1.246 4.445 1.247 1.926.003 3.924-.506 5.45-1.045a20.617 20.617 0 0 0 2.67-1.141l.004-.003a1.277 1.277 0 0 1 1.127-.033c-1.541-4.702-5.947-8-11.849-6.928-1.929.352-3.718.739-5.278 1.225.135.099.253.225.344.378.357.598.17 1.36-.403 1.742l.005.005-.022.026a1.15 1.15 0 0 0-.127.243 2.6 2.6 0 0 0-.165.925c-.001.392.089.773.249 1.052.167.28.368.483.777.642a1.3 1.3 0 0 1-.914 2.435 4.03 4.03 0 0 1-2.123-1.792c-.43-.761-.588-1.578-.589-2.337.011-.898.213-1.716.63-2.422-1.956.944-3.242 2.21-3.512 4.037-.54 3.674 2.377 4.754 4.43 4.538Z"/><path fill="#191C22" d="M84.605 95.475a3.77 3.77 0 0 0 .221-1.324c-.005-.913-.238-1.76-.525-2.463a4.886 4.886 0 0 0-.509-.947 2.347 2.347 0 0 0-.394-.438c-.09-.075-.2-.156-.355-.23a1.462 1.462 0 0 0-.632-.147 1.401 1.401 0 0 0-.676.174 1.298 1.298 0 0 0-.29.218c-.212.218-.312.392-.408.56a5.647 5.647 0 0 0-.306.66l-.033.089c-.665.769-1.006 1.666-.999 2.49.003.815.276 1.52.676 2.062.203.272.44.507.732.698.291.187.65.345 1.115.35.136 0 .28-.032.421-.066l.003.013c.027-.006.052-.02.078-.026.013-.003.025-.002.037-.006l-.002-.005c.33-.087.646-.222.916-.42.459-.33.764-.793.93-1.242Z"/><path fill="#191C22" d="M180.653 131.87c.128-.382.23-.867.23-1.462 0-.375-.04-.787-.135-1.231l-.013-.054c-.289-1.138-.876-2.167-1.813-2.852-.935-.687-2.11-.976-3.409-.974a11.63 11.63 0 0 0-1.737.148 11.03 11.03 0 0 0 .201-2.057c-.006-1.279-.197-2.61-.8-3.778-.305-.58-.73-1.127-1.318-1.533a3.665 3.665 0 0 0-2.106-.637c-.28 0-.567.028-.858.083l-.029.006c-.491.102-.948.32-1.315.614-.65.52-1.005 1.194-1.256 1.846-.372.986-.546 2.023-.794 2.993-.24.97-.545 1.843-.998 2.464-.786 1.089-1.551 2.275-2.115 3.698-.565 1.42-.916 3.068-.914 5.02 0 .703.044 1.447.138 2.237.118.991.196 2.023.195 3.049.001 1.332-.131 2.652-.461 3.862-.503 1.821-1.406 3.368-3.033 4.543-1.523 1.094-3.774 1.881-7.075 2.035-1.127-13.836-2.731-27.488-4.545-40.032 9.26.466 19.144 1.833 25.915 3.409a1.3 1.3 0 0 0 .588-2.533c-7.104-1.648-17.314-3.048-26.887-3.495-.269-1.81-.542-3.597-.818-5.353 5.901-.626 12.276-1 18.148-1 4.051 0 7.865.177 11.103.565a1.299 1.299 0 1 0 .309-2.581c-3.382-.405-7.284-.583-11.412-.584-6.027.001-12.532.383-18.56 1.028-.22-1.361-.441-2.71-.664-4.034a1.265 1.265 0 0 0-.268-.569c2.275-.62 4.43-1.205 6.4-1.734a652.02 652.02 0 0 1 6.726-1.776c1.805-.463 3.141-.787 3.781-.914 5.705-1.142 9.674-2.89 12.323-5.102 1.322-1.106 2.306-2.333 2.97-3.634a10.014 10.014 0 0 0 1.084-4.026c.015-.278.023-.561.023-.852a17.758 17.758 0 0 0-.966-5.738c-.678-1.932-1.749-3.797-3.4-5.146-2.097-1.721-4.435-2.303-6.644-2.292-2.191.004-4.295.515-6.277.951-1.603.356-3.114.781-4.435 1.371-1.315.592-2.474 1.35-3.256 2.477-.756 1.099-1.132 2.328-1.133 3.515-.001 1.237.415 2.449 1.262 3.363.841.917 2.115 1.474 3.548 1.466 1.113 0 2.32-.31 3.604-.946.045-.022.073-.062.114-.088-.008.335-.076.66-.22.948a2.123 2.123 0 0 1-.758.834c-.028.02-.152.091-.326.176-.689.344-2.151.944-4.106 1.687-3.109 1.185-7.508 2.761-12.476 4.499-4.278-23.021-8.058-37.16-8.065-37.186a1.3 1.3 0 0 0-2.047-.696c-.039.03-7.679 5.896-18.662 17.085-1.717-.06-3.56-.087-5.482-.087-11.352 0-25.21.9-28.224 1.105L63.59 47.55a1.302 1.302 0 0 0-2.157.464C56.87 60.697 53.745 75.92 51.572 90.51 41.519 88.797 31.777 88 23.94 87.824a1.3 1.3 0 1 0-.059 2.6c7.728.173 17.384.965 27.314 2.66a417.047 417.047 0 0 0-.81 6.022c-.961-.02-1.922-.037-2.882-.037-9.606 0-19.118.971-27.271 2.336a1.3 1.3 0 1 0 .43 2.564c8.025-1.344 17.41-2.3 26.84-2.3.854 0 1.707.017 2.56.033a474.53 474.53 0 0 0-.782 6.855c-8.816 1.015-18.017 2.662-25.422 4.421a1.3 1.3 0 1 0 .601 2.53c7.128-1.696 16.019-3.293 24.546-4.301a569.564 569.564 0 0 0-1.648 19.875c-.007.104.023.199.04.298-2.294.852-4.5 1.791-6.563 2.841-3.93 2.005-7.367 4.401-9.962 7.335-2.594 2.928-4.33 6.424-4.771 10.473a27.374 27.374 0 0 0-.168 2.988c-.009 5.668 1.926 10.31 5.094 13.82 3.002 3.334 7.065 5.656 11.582 7.146-.462 4.678-.712 7.78-.957 12.679a1.3 1.3 0 1 0 2.597.13c.258-5.169.514-8.239 1.032-13.418.048-.475-.18-.899-.54-1.162a1.26 1.26 0 0 0-.632-.467c-4.483-1.372-8.39-3.578-11.149-6.647-2.755-3.075-4.419-6.994-4.427-12.081 0-.868.05-1.769.152-2.705.386-3.478 1.835-6.425 4.135-9.034 3.444-3.908 8.857-6.978 15.165-9.35 6.303-2.376 13.479-4.066 20.402-5.344 1.434-.258 2.54-1.073 3.323-2.003 1.182-1.4 1.841-3.077 2.514-4.334.329-.629.654-1.143.947-1.452.303-.313.498-.41.745-.447h.004c.103-.014.194-.02.273-.02.265.002.4.053.503.111.146.085.298.248.436.615.133.358.214.883.212 1.463a8.968 8.968 0 0 1-.301 2.22 6.51 6.51 0 0 1-.37 1.058c-.453.054-.91.114-1.384.202a1.3 1.3 0 1 0 .474 2.556c1.049-.195 2.006-.292 2.836-.292 1.163-.003 2.062.198 2.625.506.285.153.492.325.652.524.154.193.27.419.352.716.051.251.074.483.074.688 0 .159-.018.292-.037.423-.105-.002-.206-.005-.317-.005-.715 0-1.547.038-2.472.145a1.3 1.3 0 1 0 .297 2.583 18.909 18.909 0 0 1 2.621-.121c.093.155.196.333.3.54.274.532.494 1.207.483 1.592l-.005.108c-.03.398-.262.808-.539 1.125-.018.021-.035.036-.054.056a19.743 19.743 0 0 0-.98-.026c-.532 0-1.116.021-1.743.071a1.3 1.3 0 1 0 .207 2.592c.555-.045 1.07-.063 1.537-.063.133 0 .252.005.377.007.135.324.289.829.287 1.438 0 .355-.05.747-.186 1.18-.05.144-.135.282-.423.479-.423.29-1.28.573-2.386.729-1.106.163-2.45.224-3.884.224-.5 0-1.011-.008-1.528-.02l-.201.011c-.044.008-5.405.714-11.177 2.562-2.888.928-5.88 2.136-8.395 3.736-1.256.801-2.395 1.702-3.334 2.737-.936 1.034-1.675 2.212-2.076 3.539a1.3 1.3 0 0 0 2.489.753v-.001c.267-.885.778-1.732 1.515-2.546 1.284-1.424 3.263-2.708 5.518-3.772 3.381-1.603 7.356-2.725 10.466-3.429a72.713 72.713 0 0 1 4.95-.946l.291-.042.005-.001c.495.011.99.019 1.477.019 2.01-.003 3.913-.103 5.517-.492.803-.198 1.54-.466 2.19-.893.643-.421 1.21-1.052 1.464-1.861a6.48 6.48 0 0 0 .308-1.966 6.393 6.393 0 0 0-.405-2.226c.047-.051.09-.091.139-.147.487-.565 1.055-1.43 1.164-2.599.01-.115.015-.227.015-.336-.013-1.13-.427-2.086-.793-2.824-.123-.241-.24-.443-.348-.625.138-.425.264-1 .266-1.708 0-.387-.039-.81-.134-1.257l-.013-.056a4.543 4.543 0 0 0-.853-1.721c-.598-.745-1.417-1.254-2.318-1.562-.66-.226-1.37-.352-2.125-.406.03-.101.069-.187.097-.292.236-.893.387-1.888.388-2.884-.006-1.062-.158-2.138-.722-3.099a3.433 3.433 0 0 0-1.219-1.227 3.565 3.565 0 0 0-1.81-.463c-.201 0-.406.015-.614.042a3.594 3.594 0 0 0-1.675.684c-.816.609-1.33 1.411-1.789 2.227-.676 1.228-1.228 2.559-1.896 3.56-.331.501-.681.912-1.052 1.207a2.766 2.766 0 0 1-1.252.58c-5.98 1.106-12.167 2.517-17.91 4.434.365-5.46.887-12.161 1.643-19.549 3.715-.388 7.32-.654 10.623-.748a1.3 1.3 0 0 0-.074-2.599c-3.22.093-6.696.343-10.271.705.228-2.119.477-4.288.745-6.49 2.915.114 5.813.317 8.65.65a1.3 1.3 0 1 0 .304-2.582c-2.84-.333-5.73-.539-8.63-.657.238-1.866.492-3.751.761-5.652 3.187.592 6.386 1.274 9.546 2.067a1.3 1.3 0 0 0 .632-2.522 161.518 161.518 0 0 0-9.803-2.12c2.044-13.75 4.948-28.047 9.059-40.09l14.867 15.339c.268.276.642.42 1.026.392.003 0 .994-.071 2.689-.178 5.082-.321 16.459-.963 25.956-.962 2.11 0 4.126.031 5.955.105.366.014.726-.128.982-.39 5.548-5.678 10.255-9.998 13.571-12.895a151.805 151.805 0 0 1 3.67-3.113c1.166 4.619 4.231 17.285 7.594 35.442a2064.183 2064.183 0 0 1-16.802 5.743c-1.932.651-3.82 1.285-5.645 1.896a3.848 3.848 0 0 0-.988-1.55c-.054-.08-.15-.22-.267-.385a12.45 12.45 0 0 0-.287-.387 4.32 4.32 0 0 0-.338-.393 1.334 1.334 0 0 0-.305-.226 1.403 1.403 0 0 0-.662-.166c-.249 0-.45.063-.6.13a1.738 1.738 0 0 0-.551.403 3.11 3.11 0 0 0-.472.687 6.193 6.193 0 0 0-.677 2.758c0 .266.032.542.082.82-1.788.596-3.464 1.151-4.971 1.65-2.127.701-3.933 1.293-5.296 1.736-.735.238-1.332.43-1.79.576a1.283 1.283 0 0 0-.368-.3 1.299 1.299 0 0 0-1.752.535h-.001a5.76 5.76 0 0 1-1.06 1.307 4.803 4.803 0 0 1-1.208.825 3.828 3.828 0 0 1-1.588.366 1.3 1.3 0 1 0 .036 2.6 6.41 6.41 0 0 0 2.552-.572l-.003.046c.002 1.228.27 2.384.76 3.369.492.978 1.21 1.815 2.203 2.281a1.3 1.3 0 0 0 1.725-.636c.144-.312.146-.649.047-.951 4.042-1.228 17.598-5.073 30.83-8.747a3093.46 3093.46 0 0 1 9.758-2.694c-.016.124-.034.248-.012.377.216 1.28.43 2.584.643 3.899-2.722.333-5.316.717-7.678 1.144a1.3 1.3 0 0 0 .463 2.559c2.333-.423 4.913-.804 7.626-1.134.257 1.628.51 3.286.76 4.96a128.534 128.534 0 0 0-3.425-.054c-1.656 0-3.265.037-4.804.116a1.3 1.3 0 1 0 .132 2.597 92.046 92.046 0 0 1 4.672-.113c1.242 0 2.518.024 3.81.064 1.886 12.968 3.551 27.146 4.69 41.484a1.293 1.293 0 0 0 1.328 1.185c.161.066.336.104.521.101 2.703-.048 4.938-.471 6.779-1.214 2.765-1.104 4.608-2.975 5.658-5.113 1.059-2.137 1.38-4.495 1.381-6.744 0-1.156-.086-2.288-.213-3.356a16.277 16.277 0 0 1-.12-1.93c.002-1.649.284-2.93.731-4.062.449-1.131 1.075-2.123 1.805-3.133.592-.822.941-1.715 1.197-2.566.378-1.275.571-2.495.849-3.297.133-.402.283-.68.402-.818.123-.135.175-.169.339-.212a2.06 2.06 0 0 1 .356-.036c.302.004.464.068.631.178.241.16.513.529.703 1.112.192.573.292 1.318.29 2.058a8.44 8.44 0 0 1-.192 1.819c-.112.523-.296.934-.379 1.039-.009.014-.01.03-.019.044a4.93 4.93 0 0 0-1.324.965 3.82 3.82 0 0 0-1.08 2.656c.012 1.027.419 1.961 1.057 2.742.138.165.295.318.459.465-.084.113-.174.214-.251.343a3.353 3.353 0 0 0-.443 2.167c.096.703.391 1.299.736 1.767.234.316.491.577.747.803a3.909 3.909 0 0 0-.485.694 3.877 3.877 0 0 0-.466 1.87c0 .176.011.353.032.532.099.94.54 1.835 1.244 2.424.699.593 1.546.896 2.47 1.08l.003.001c.395.076.854.11 1.38.114.514 2.173.793 4.36.793 6.499-.004 5.448-1.704 10.555-5.388 14.491-3.687 3.933-9.416 6.77-17.739 7.466-.088.007-.162.047-.243.071-.017 0-.032-.007-.049-.005a1.298 1.298 0 0 0-1.164 1.422c.524 5.239 1.034 8.031 1.291 13.928a1.3 1.3 0 1 0 2.598-.112c-.241-5.525-.704-8.439-1.174-12.837 8.255-.878 14.358-3.858 18.378-8.156 4.195-4.477 6.093-10.286 6.09-16.268-.001-2.25-.282-4.528-.792-6.785.163-.038.327-.072.49-.119a6.261 6.261 0 0 0 1.525-.66c.482-.297.941-.695 1.275-1.238.432-.698.62-1.452.617-2.133-.006-1.061-.401-1.9-.773-2.496.483-.566 1.035-1.419 1.142-2.572l.001-.009c.008-.104.013-.212.013-.324-.011-1.13-.441-2.051-.818-2.735a9.347 9.347 0 0 0-.286-.471Zm-57.172-34.135c-6.073 1.7-11.783 3.316-16.13 4.562a756.393 756.393 0 0 0-5.375 1.557c-.685.202-1.254.373-1.694.508-.35.107-.59.184-.786.25a5.135 5.135 0 0 1-.356-1.898c0-.658.123-1.349.381-2.025.104-.005.207.003.31-.027.472-.14 1.673-.525 3.474-1.112a2496.57 2496.57 0 0 0 31.956-10.72c6.121-2.102 11.943-4.138 16.432-5.776 2.245-.82 4.157-1.538 5.614-2.12.73-.292 1.345-.549 1.84-.77.501-.228.859-.4 1.178-.606a4.741 4.741 0 0 0 1.653-1.844c.351-.704.5-1.452.499-2.166a5.167 5.167 0 0 0-.81-2.793c-.26-.4-.582-.76-.979-1.049a3.014 3.014 0 0 0-1.412-.568 1.3 1.3 0 0 0-1.446 1.137c-.058.484.172.924.54 1.192-.895.41-1.644.574-2.217.573-.807-.009-1.288-.264-1.642-.634-.348-.375-.567-.928-.568-1.595 0-.635.204-1.357.676-2.041.368-.547 1.104-1.102 2.175-1.578 1.064-.477 2.428-.873 3.935-1.206 2.006-.447 3.944-.893 5.715-.89 1.8.011 3.389.407 5.002 1.71 1.152.931 2.024 2.37 2.588 3.988a15.19 15.19 0 0 1 .82 4.879c0 .242-.007.479-.019.707a7.407 7.407 0 0 1-.803 2.987c-.741 1.447-2.047 2.865-4.218 4.15-2.167 1.281-5.195 2.408-9.269 3.22-.807.162-2.272.522-4.289 1.042-7.04 1.815-20.629 5.556-32.775 8.956Zm53.002 38.525c-1.033.001-2.243.1-3.453.436a4.071 4.071 0 0 1-.492-.333 2.707 2.707 0 0 1-.529-.545 1.24 1.24 0 0 1-.228-.541l-.008-.109a.728.728 0 0 1 .114-.384c.115-.203.368-.438.602-.593.116-.078.223-.138.294-.175l.027-.014c.457-.13 1.078-.25 1.745-.343a39.586 39.586 0 0 1 3.119-.285c.325-.018.594-.03.83-.039.063.099.13.209.195.327.263.463.469 1.048.458 1.414l-.004.106c-.032.401-.263.809-.539 1.125-.024.028-.048.05-.072.076a17.5 17.5 0 0 0-2.059-.123Zm.899-7.894c.358.269.631.662.828 1.384a3.4 3.4 0 0 1 .073.658c-.001.134-.017.235-.032.335-.461.019-1.066.05-1.742.101a37.44 37.44 0 0 0-2.313.24c-.697.098-1.364.226-1.978.392a.762.762 0 0 1-.332-.102c-.216-.116-.472-.367-.645-.664-.178-.292-.263-.622-.258-.799.006-.321.097-.574.364-.864.267-.283.748-.582 1.507-.768 1.068-.264 1.958-.383 2.659-.382.939.002 1.503.2 1.869.469Zm1.159 12.884c-.065.108-.196.245-.424.386-.337.211-.873.4-1.455.514a9.027 9.027 0 0 1-1.73.165 5.415 5.415 0 0 1-.946-.068c-.675-.131-1.084-.33-1.282-.505-.192-.179-.289-.317-.352-.753l-.015-.227c.002-.282.063-.463.15-.627.128-.241.362-.448.583-.585a2.1 2.1 0 0 1 .274-.144l.066-.028.006-.002-.001-.002c.132-.044.252-.107.36-.187.876-.239 1.851-.329 2.708-.327.637 0 1.203.044 1.619.089.089.105.203.251.31.427.21.336.366.746.362 1.101-.003.239-.05.469-.233.773Z"/></svg>