<svg width="200" height="200" viewBox="0 0 200 200" xmlns="http://www.w3.org/2000/svg"><g id="type=success, mode=light"><g id="success"><path id="Vector" d="M42.6452 64.2092C42.0957 63.8193 41.4522 63.4741 40.7358 63.1926C39.7168 62.7954 38.7263 62.5864 37.8233 62.5837C37.3286 62.5859 36.8547 62.6431 36.3809 62.8313C36.145 62.927 35.9064 63.0598 35.6856 63.2554C35.4664 63.4482 35.2691 63.7122 35.1502 64.0176C35.0551 64.2573 35.0133 64.5081 35.0137 64.741C35.0177 65.271 35.2027 65.6973 35.4243 66.0532C35.7654 66.5869 36.2252 67.0129 36.7739 67.4067C37.3234 67.7969 37.9671 68.1421 38.6837 68.4236C39.7023 68.8194 40.692 69.0286 41.5957 69.0315C42.0902 69.0293 42.5638 68.9724 43.0376 68.7845C43.2735 68.6892 43.5119 68.5566 43.7329 68.3613C43.9529 68.1682 44.1516 67.9041 44.2707 67.5974L44.2724 67.5933C44.3634 67.3606 44.4067 67.1104 44.4061 66.8748C44.4021 66.344 44.2169 65.9177 43.995 65.562C43.6538 65.0288 43.1939 64.603 42.6452 64.2092Z"/><path id="Vector_2" d="M35.1475 64.0203L35.1491 64.0176L35.1502 64.0134L35.1475 64.0203Z"/><path id="Vector_3" d="M85.9372 25.728C86.1869 25.3745 86.4039 24.927 86.4081 24.3638C86.4082 24.1838 86.3832 23.9968 86.3301 23.8152C86.2227 23.4412 85.9999 23.1206 85.752 22.8955C85.3752 22.5544 84.9629 22.3848 84.55 22.2734C84.1346 22.165 83.7037 22.1218 83.2503 22.1213C82.4982 22.1221 81.6818 22.2449 80.8398 22.4897C79.8262 22.7871 78.9399 23.209 78.2345 23.7327C77.8819 23.9976 77.571 24.2876 77.3152 24.6445C77.0654 24.9983 76.8488 25.446 76.8447 26.009C76.8445 26.1897 76.87 26.3777 76.9228 26.5586C77.0308 26.9336 77.2541 27.2537 77.5018 27.4783C77.8785 27.8186 78.2902 27.988 78.7031 28.0994C79.1185 28.2078 79.5497 28.2512 80.0037 28.2517C80.7552 28.251 81.5711 28.1287 82.4126 27.8843C83.4272 27.5854 84.3131 27.1631 85.0182 26.6394C85.3706 26.3745 85.6814 26.0847 85.9372 25.728Z"/><path id="Vector_4" d="M106.138 6.43579L106.139 6.43359L106.14 6.43042L106.138 6.43579Z"/><path id="Vector_5" d="M106.413 8.46925C106.754 9.0027 107.214 9.42848 107.763 9.82253C108.313 10.2127 108.956 10.5581 109.673 10.8396C110.691 11.2361 111.682 11.4453 112.585 11.4483C113.08 11.4461 113.553 11.3889 114.027 11.2012C114.263 11.1057 114.501 10.9734 114.722 10.7783C114.942 10.5852 115.141 10.3213 115.26 10.0149L115.263 10.0078C115.353 9.77687 115.396 9.52736 115.395 9.29225C115.391 8.76173 115.206 8.33571 114.985 7.97975C114.644 7.44606 114.184 7.02002 113.635 6.62622C113.085 6.23608 112.442 5.89087 111.725 5.60938C110.707 5.21167 109.716 5.00269 108.813 5C108.318 5.0022 107.844 5.05981 107.37 5.24805C107.134 5.34375 106.896 5.47657 106.675 5.67188C106.456 5.865 106.258 6.12817 106.139 6.43359C106.044 6.67382 106.002 6.92431 106.002 7.15698C106.007 7.68726 106.192 8.11329 106.413 8.46925Z"/><path id="Vector_6" d="M191.005 89.9714C190.784 89.749 190.512 89.5903 190.247 89.4993C189.98 89.407 189.719 89.375 189.476 89.3748C188.736 89.3848 188.1 89.635 187.449 89.9893C186.804 90.3496 186.161 90.8418 185.554 91.4485C184.947 92.0557 184.454 92.6987 184.094 93.344C183.739 93.9951 183.489 94.6316 183.479 95.3711C183.479 95.6157 183.512 95.8762 183.604 96.1431C183.695 96.4084 183.853 96.679 184.074 96.8989L184.076 96.9011C184.297 97.1223 184.567 97.28 184.832 97.3708C185.099 97.4631 185.359 97.4954 185.604 97.4956C186.343 97.4856 186.979 97.2354 187.63 96.8811C188.276 96.5205 188.918 96.0283 189.526 95.4214C190.133 94.8137 190.625 94.1709 190.985 93.5256C191.34 92.875 191.59 92.2385 191.6 91.4993C191.6 91.2549 191.568 90.9946 191.476 90.7278C191.385 90.4624 191.226 90.1917 191.005 89.9714Z"/><path id="Vector_7" d="M9.94434 67.3699L9.94599 67.3691L9.94703 67.3682L9.94434 67.3699Z"/><path id="Vector_8" d="M14.9953 69.8985C14.4699 69.108 13.8758 68.4456 13.2475 67.9437C12.9318 67.6929 12.607 67.4813 12.256 67.3191C11.9048 67.1595 11.5231 67.0401 11.0751 67.0377C10.7166 67.035 10.301 67.1319 9.94635 67.3692C9.56903 67.6165 9.31281 67.9859 9.17932 68.3345C9.04248 68.6873 9.0011 69.0284 9 69.3594C9.00281 69.9598 9.14014 70.5491 9.36316 71.1597C9.58814 71.7679 9.90668 72.3914 10.3133 73.0052C10.84 73.796 11.4341 74.4576 12.0622 74.959C12.3777 75.2095 12.7024 75.4212 13.0533 75.5833C13.4044 75.7427 13.7858 75.8624 14.2341 75.8648C14.5901 75.8675 15.0062 75.773 15.3632 75.534L15.3665 75.5318C15.7413 75.2842 15.9962 74.9158 16.1297 74.5674C16.2664 74.2149 16.308 73.8738 16.3091 73.5428C16.3063 72.9424 16.169 72.3533 15.9459 71.743C15.7209 71.1351 15.4022 70.512 14.9953 69.8985Z"/><path id="Vector_9" d="M33.9385 36.312L33.9442 36.3115L33.9481 36.3108L33.9385 36.312Z"/><path id="Vector_10" d="M35.1018 46.0413C35.6275 45.9805 36.0671 45.7002 36.3531 45.395C36.7884 44.9285 37.0028 44.4038 37.1592 43.8372C37.3094 43.269 37.38 42.6467 37.3807 41.9802C37.3807 41.613 37.3585 41.2334 37.3124 40.8452C37.1796 39.7451 36.8909 38.762 36.4566 37.958C36.2356 37.5557 35.9795 37.1929 35.628 36.8816C35.2837 36.5779 34.791 36.2991 34.1752 36.2969C34.0854 36.2969 34.0088 36.3035 33.9435 36.3115C33.4188 36.3718 32.9793 36.6509 32.6934 36.9553C32.2573 37.4221 32.043 37.947 31.8866 38.5137C31.7364 39.0818 31.6658 39.7046 31.665 40.3713C31.6651 40.7385 31.6874 41.1186 31.7335 41.5071C31.8662 42.6065 32.1551 43.5896 32.5895 44.3936C32.8106 44.7957 33.0668 45.1587 33.4183 45.4697C33.7626 45.7734 34.2554 46.0522 34.8714 46.0544L35.097 46.0417L35.1018 46.0413Z"/><path id="Vector_11" d="M156.339 46.7385L156.341 46.7356L156.342 46.7334L156.339 46.7385Z"/><path id="Vector_12" d="M156.476 48.8984C156.773 49.4304 157.185 49.8813 157.683 50.3086C158.183 50.7327 158.773 51.123 159.438 51.4604C160.588 52.0356 161.711 52.3589 162.749 52.3665C163.156 52.3648 163.56 52.3164 163.973 52.1526C164.379 51.9939 164.825 51.6724 165.078 51.1711L165.08 51.166C165.226 50.8777 165.292 50.5571 165.291 50.2651C165.287 49.7715 165.134 49.3657 164.94 49.0103C164.644 48.4783 164.232 48.0271 163.734 47.6001C163.234 47.176 162.643 46.7857 161.979 46.4482C160.829 45.8721 159.705 45.5491 158.668 45.5417C158.26 45.5435 157.856 45.592 157.443 45.7563C157.037 45.915 156.593 46.2361 156.341 46.7356C156.188 47.0317 156.125 47.3545 156.126 47.6436C156.13 48.1372 156.283 48.543 156.476 48.8984Z"/><path id="Vector_13" d="M177.762 23.4678C177.437 23.2766 177.069 23.198 176.749 23.2C176.276 23.2032 175.882 23.3404 175.528 23.5179C174.999 23.7896 174.536 24.1741 174.094 24.6431C173.654 25.1131 173.241 25.6719 172.876 26.3037C172.532 26.8992 172.266 27.4993 172.079 28.0823C171.895 28.6668 171.786 29.2303 171.784 29.7893C171.786 30.1575 171.83 30.5298 171.982 30.9136C172.129 31.2918 172.419 31.6995 172.858 31.9509L172.861 31.9527C173.182 32.1385 173.544 32.2178 173.868 32.2161C174.341 32.2132 174.735 32.076 175.089 31.8987C175.619 31.627 176.081 31.243 176.524 30.774C176.964 30.304 177.377 29.7454 177.742 29.1133C178.086 28.5161 178.352 27.9163 178.538 27.3335C178.722 26.7496 178.831 26.1863 178.833 25.6275C178.831 25.2591 178.787 24.8868 178.635 24.503C178.489 24.1258 178.2 23.7193 177.762 23.4678Z"/><path id="Vector_14" d="M177.759 23.4656L177.762 23.4678L177.764 23.4688L177.759 23.4656Z"/><path id="Vector_15" d="M100.745 48.1121C100.972 47.8777 101.171 47.6977 101.343 47.582C101.517 47.4658 101.653 47.4077 101.823 47.376C102.225 47.3042 102.572 47.0457 102.756 46.6809C102.94 46.3162 102.941 45.8831 102.759 45.5176L100.327 40.6211C100.07 40.104 99.5024 39.8184 98.9341 39.9197C98.1619 40.0547 97.5376 40.4302 97.0732 40.8171C96.3751 41.406 95.9225 42.0078 95.4913 42.3711C95.2786 42.5561 95.0861 42.6853 94.8875 42.7715C94.6874 42.8567 94.4764 42.9099 94.1663 42.9116C93.9454 42.9116 93.6744 42.8811 93.3384 42.7971C92.4537 42.5747 91.6815 42.4688 90.983 42.4685C89.9324 42.4624 89.0342 42.7322 88.3463 43.1455C87.8291 43.4519 87.434 43.8125 87.1037 44.135C86.6085 44.6262 86.2443 45.0205 85.8555 45.2717C85.4645 45.5203 85.0522 45.6973 84.2354 45.7251C83.7922 45.7358 83.3829 45.9739 83.154 46.3535C82.9252 46.7332 82.9059 47.2061 83.1032 47.6033L85.5358 52.4998C85.7607 52.9524 86.2267 53.2334 86.7322 53.2209C87.8295 53.1985 88.7477 52.917 89.46 52.4993C89.9949 52.189 90.408 51.8228 90.7487 51.4932C91.2589 50.9917 91.6244 50.5904 91.9819 50.3557C92.3425 50.1243 92.6792 49.9749 93.4153 49.9649C93.8463 49.9646 94.4108 50.0325 95.1384 50.2154C95.6521 50.3435 96.1371 50.4077 96.5989 50.4077C97.4634 50.4126 98.2371 50.1658 98.8367 49.8074C99.7399 49.2661 100.285 48.572 100.745 48.1121ZM97.9241 47.2676C97.7114 47.4524 97.5189 47.5815 97.3202 47.6677C97.1201 47.7529 96.9091 47.8061 96.5989 47.8079C96.3785 47.8079 96.1066 47.7773 95.7698 47.6931C94.8864 47.4717 94.1146 47.3652 93.4153 47.365C92.3646 47.3589 91.4664 47.6287 90.7785 48.042C90.2612 48.3481 89.8661 48.7087 89.5358 49.0315C89.0407 49.5227 88.6765 49.917 88.2878 50.1682C88.0506 50.3191 87.7936 50.438 87.455 50.5188L86.1931 47.979C86.4929 47.8713 86.7773 47.7495 87.0274 47.6028C87.5624 47.2927 87.9756 46.9265 88.3163 46.5969C88.8267 46.0952 89.1922 45.6941 89.5497 45.4595C89.9105 45.2278 90.2471 45.0784 90.983 45.0684C91.4145 45.0681 91.9782 45.1355 92.7051 45.3186C93.2194 45.4477 93.7052 45.5115 94.1663 45.5115C95.0309 45.5163 95.8046 45.2695 96.4041 44.9109C97.3073 44.3696 97.8517 43.6755 98.3114 43.2153C98.4074 43.1162 98.4957 43.0325 98.5818 42.9536L99.8314 45.469C99.7167 45.5488 99.6058 45.6306 99.5059 45.7139C98.8078 46.3027 98.3553 46.9043 97.9241 47.2676Z"/><path id="Vector_16" d="M132.748 32.4475L137.955 34.1135C138.436 34.2676 138.963 34.1287 139.306 33.7573C139.963 33.0496 140.383 32.3064 140.606 31.5884C140.832 30.8706 140.864 30.2073 140.864 29.6543C140.864 29.3255 140.853 29.0308 140.854 28.7686C140.857 28.1624 140.902 27.7827 141.13 27.3509C141.361 26.9202 141.855 26.3467 143.006 25.6331C143.961 25.0467 144.631 24.3142 145.001 23.5188C145.374 22.7251 145.439 21.9439 145.439 21.2991C145.437 20.7573 145.397 20.2893 145.398 19.9129C145.398 19.6521 145.416 19.4395 145.453 19.2735C145.491 19.1062 145.541 18.9861 145.625 18.8594C145.854 18.521 145.91 18.0918 145.777 17.7059C145.643 17.3201 145.333 17.0174 144.944 16.8931L139.736 15.2271C139.187 15.0511 138.587 15.2584 138.264 15.7366C137.976 16.16 137.801 16.6165 137.707 17.0455C137.612 17.4759 137.591 17.8787 137.591 18.2459C137.592 18.7772 137.633 19.241 137.632 19.6334C137.632 20.1082 137.58 20.4505 137.441 20.7461C137.298 21.0398 137.059 21.3616 136.43 21.7566C135.042 22.6146 134.151 23.4915 133.633 24.4537C133.112 25.4146 133.043 26.3697 133.046 27.1038C133.047 27.4297 133.058 27.7237 133.057 27.9888C133.057 28.439 133.028 28.7967 132.919 29.1439C132.807 29.4908 132.621 29.8565 132.189 30.3272C131.888 30.6526 131.774 31.1119 131.887 31.5406C132 31.9693 132.326 32.3123 132.748 32.4475ZM135.646 27.1038C135.649 26.4971 135.695 26.1172 135.923 25.6851C136.154 25.2544 136.647 24.6807 137.799 23.9673C138.754 23.3809 139.424 22.6485 139.793 21.853C140.167 21.0596 140.232 20.2781 140.232 19.6333C140.23 19.0904 140.189 18.6216 140.191 18.2459C140.191 18.1939 140.195 18.1521 140.196 18.1038L142.877 18.9614C142.823 19.2969 142.799 19.6189 142.799 19.9129C142.8 20.4424 142.84 20.906 142.839 21.2991C142.839 21.7739 142.787 22.1162 142.648 22.4116C142.505 22.7053 142.266 23.0274 141.637 23.4226C140.249 24.2805 139.359 25.1573 138.841 26.1189C138.319 27.0796 138.251 28.0345 138.254 28.7686C138.254 29.094 138.265 29.3882 138.264 29.6543C138.265 30.1043 138.235 30.462 138.126 30.8094C138.07 30.9839 137.994 31.1636 137.878 31.3592L135.179 30.4956C135.266 30.3037 135.34 30.1123 135.399 29.9229C135.625 29.2051 135.657 28.5415 135.657 27.9888C135.657 27.6589 135.646 27.3645 135.646 27.1038Z"/><path id="Vector_17" d="M50.403 22.52C49.8889 22.0186 49.4844 21.6606 49.2476 21.304C49.0144 20.9448 48.8582 20.5969 48.8484 19.8245C48.8481 19.4048 48.9082 18.8648 49.0667 18.1797C49.1773 17.6987 49.2328 17.2441 49.2328 16.8106C49.2378 15.9314 48.9875 15.1455 48.6192 14.5381C48.063 13.6233 47.3473 13.083 46.8709 12.626C46.6283 12.4002 46.4409 12.2019 46.32 12.0303C46.1983 11.8562 46.137 11.7207 46.1017 11.5501C46.0225 11.1494 45.7574 10.8071 45.3894 10.6304C45.0214 10.4536 44.5883 10.4602 44.2262 10.6489L39.3766 13.1734C38.8645 13.4397 38.5896 14.0122 38.7015 14.5786C38.8525 15.3552 39.2455 15.9758 39.645 16.4343C40.2531 17.1233 40.8664 17.5657 41.2345 17.9922C41.4219 18.2024 41.5519 18.3931 41.6396 18.593C41.7261 18.7944 41.7815 19.0112 41.7831 19.3342C41.7831 19.5461 41.7563 19.8037 41.6837 20.1184C41.4913 20.9514 41.399 21.6836 41.3988 22.3482C41.3928 23.4238 41.664 24.3384 42.0879 25.0391C42.4019 25.5657 42.7743 25.9653 43.1084 26.2966C43.6168 26.7932 44.0274 27.1543 44.2907 27.5418C44.5513 27.9316 44.7386 28.3406 44.7825 29.1653C44.8017 29.6082 45.0473 30.0129 45.4312 30.2346C45.815 30.4563 46.2884 30.4666 46.6815 30.262L51.5312 27.7376C51.9796 27.5039 52.2517 27.0327 52.2297 26.5278C52.1864 25.4197 51.8817 24.4995 51.444 23.7922C51.1189 23.2607 50.7407 22.8545 50.403 22.52ZM44.3982 23.8286C44.1649 23.4692 44.0087 23.1209 43.9988 22.3482C43.9986 21.928 44.0586 21.3877 44.217 20.7034C44.328 20.2224 44.3831 19.7671 44.3831 19.3342C44.3881 18.4551 44.1378 17.6692 43.7695 17.062C43.2132 16.1472 42.4975 15.6069 42.0211 15.1499C41.9157 15.0518 41.8256 14.9612 41.7419 14.8733L44.2323 13.5772C44.318 13.6951 44.4058 13.8081 44.4947 13.9102C45.1027 14.5991 45.716 15.0418 46.0841 15.468C46.2716 15.6785 46.4015 15.8692 46.4892 16.0691C46.5758 16.2705 46.6312 16.4873 46.6328 16.8106C46.6328 17.0217 46.6058 17.2795 46.5331 17.5957C46.341 18.428 46.2486 19.1599 46.2483 19.8245C46.2423 20.8999 46.5136 21.8145 46.9375 22.5149C47.2516 23.0415 47.6239 23.4409 47.958 23.7722C48.4665 24.2686 48.8769 24.6297 49.1402 25.0171C49.2995 25.2554 49.4259 25.5129 49.5145 25.856L46.9988 27.1655C46.8822 26.8594 46.751 26.5698 46.5944 26.3169C46.2694 25.7854 45.8913 25.3792 45.5536 25.0447C45.0395 24.5432 44.635 24.1853 44.3982 23.8286Z"/><path id="Vector_18" d="M150.432 84.0371V84.0374C149.854 83.7449 149.614 83.0837 149.805 82.4866C146.23 83.7769 141.92 85.2944 137.332 86.8904C141.755 89.6279 145.639 90.3745 148.827 90.3796C149.903 90.3796 150.901 90.2937 151.814 90.168C152.525 90.0696 153.181 90.5667 153.279 91.2778C153.285 91.3191 153.27 91.3567 153.272 91.3975C158.347 89.9038 162.805 88.5239 166.065 87.3953C165.495 87.4373 164.913 87.4665 164.308 87.4688C160.14 87.4668 155.195 86.4475 150.432 84.0371Z"/><path id="Vector_19" d="M175.732 74.0796C175.691 74.1018 174.56 74.7161 172.84 75.3347C171.119 75.9509 168.811 76.5815 166.365 76.5847C164.581 76.5859 162.695 76.2319 160.995 75.2256C161.185 76.1582 161.085 77.5847 159.304 78.772C158.716 79.1643 155.885 80.2693 151.745 81.7822C156.075 83.9499 160.601 84.8708 164.308 84.8689C167.379 84.8811 169.887 84.208 171.127 83.3235C171.716 82.9131 172.526 83.0581 172.936 83.6472C172.971 83.6978 172.979 83.7561 173.007 83.8093C176.017 80.8574 176.784 77.3225 176.125 73.7502C176.02 73.8811 175.889 73.9944 175.732 74.0796Z"/><path id="Vector_20" d="M135.514 88.8328C135.123 88.5811 134.935 88.1533 134.941 87.7202C130.477 89.2673 125.836 90.8608 121.416 92.3701C123.06 93.4521 124.942 94.1572 126.863 94.5671C129.063 95.0383 131.279 95.1526 133.116 95.1521C133.712 95.1521 134.27 95.1399 134.777 95.126C135.453 95.1069 136.004 95.6133 136.086 96.2705C140.106 95.1624 144.116 94.0405 147.917 92.9514C144.377 92.8127 140.122 91.8057 135.514 88.8325V88.8328Z"/><path id="Vector_21" d="M105.214 98.2197V98.22C105.136 98.1323 105.094 98.0286 105.043 97.9282C100.972 99.3027 98.4056 100.164 98.4056 100.164C97.5082 103.836 99.1283 106.105 99.1283 106.105C99.1283 106.105 104.577 104.706 112.485 102.621C111.333 102.396 110.273 102.039 109.325 101.543C107.702 100.698 106.378 99.5227 105.214 98.2197Z"/><path id="Vector_22" d="M119.114 93.9565V93.9568C118.891 93.7861 118.762 93.551 118.685 93.3018C114.631 94.6833 110.851 95.9653 107.678 97.0383C108.554 97.9387 109.478 98.6917 110.526 99.2373C111.787 99.8906 113.232 100.281 115.091 100.284C115.949 100.284 116.896 100.197 117.944 100.008C118.557 99.8965 119.125 100.248 119.354 100.801C123.003 99.8281 126.923 98.7742 130.917 97.6865C129.479 97.6104 127.921 97.4517 126.32 97.1096C123.86 96.5828 121.316 95.6445 119.114 93.9565Z"/><path id="Vector_23" d="M157.069 75.5318C158.412 75.3899 159.513 74.8824 160.122 74.546C159.815 74.1107 159.786 73.5193 160.109 73.0579C160.521 72.4695 161.331 72.3265 161.92 72.7381C163.204 73.6373 164.741 73.9837 166.365 73.9849C168.291 73.9878 170.289 73.4791 171.815 72.94C173.342 72.4034 174.398 71.8453 174.485 71.7986L174.489 71.7964C174.854 71.5982 175.263 71.6109 175.616 71.7628C174.075 67.0613 169.669 63.7628 163.767 64.8355C161.838 65.1866 160.049 65.5735 158.489 66.0596C158.624 66.1587 158.742 66.2852 158.833 66.4378C159.19 67.0357 159.003 67.7977 158.43 68.1797L158.435 68.1846L158.413 68.2115C158.383 68.252 158.332 68.3379 158.286 68.4539C158.192 68.6861 158.12 69.0333 158.121 69.3787C158.12 69.7713 158.21 70.1524 158.37 70.4307C158.537 70.7103 158.738 70.9136 159.147 71.0733V71.0735C159.819 71.3257 160.159 72.075 159.907 72.7471C159.655 73.4192 158.905 73.7598 158.233 73.5076C157.268 73.1516 156.534 72.4752 156.11 71.7156C155.68 70.9549 155.522 70.138 155.521 69.3787C155.532 68.481 155.734 67.6631 156.151 66.9571C154.195 67.9009 152.909 69.1661 152.639 70.9937C152.099 74.6675 155.016 75.7476 157.069 75.5318Z"/><path id="Vector_24" d="M84.6046 95.4752C84.7729 95.0223 84.8251 94.5762 84.826 94.1509C84.8206 93.2376 84.5883 92.3904 84.3008 91.6883C84.153 91.3362 83.9946 91.0272 83.7923 90.7408C83.6878 90.5965 83.5762 90.4559 83.3982 90.3035C83.3076 90.2278 83.1987 90.1473 83.0435 90.0723C82.8897 89.9991 82.6795 89.9273 82.4108 89.9263C82.2188 89.9244 81.9646 89.9712 81.7351 90.0997C81.6286 90.1585 81.5305 90.2322 81.4444 90.3184C81.2328 90.5357 81.1333 90.7103 81.0367 90.878C80.8995 91.1263 80.8035 91.3567 80.7311 91.5389C80.7171 91.5743 80.7097 91.596 80.698 91.627C80.0331 92.3956 79.6917 93.2928 79.6993 94.1177C79.702 94.9322 79.9746 95.6378 80.3747 96.179C80.5776 96.4505 80.8144 96.6863 81.1066 96.8773C81.3982 97.0635 81.7566 97.222 82.2223 97.2261C82.3579 97.2264 82.5013 97.1954 82.643 97.1607L82.6458 97.1736C82.6728 97.1678 82.6975 97.1548 82.7243 97.148C82.7367 97.1446 82.7488 97.1463 82.7611 97.1424L82.7592 97.1367C83.0882 97.0501 83.4049 96.9151 83.6755 96.7178C84.1335 96.3877 84.4394 95.9244 84.6046 95.4752Z"/><path id="Vector_25" d="M180.653 131.87C180.781 131.488 180.883 131.003 180.883 130.408C180.883 130.033 180.843 129.621 180.748 129.177L180.735 129.123C180.446 127.985 179.859 126.956 178.922 126.271C177.987 125.584 176.812 125.295 175.513 125.297C174.967 125.298 174.387 125.351 173.776 125.445C173.899 124.797 173.977 124.107 173.977 123.388C173.971 122.109 173.78 120.778 173.177 119.61C172.872 119.03 172.447 118.483 171.859 118.077C171.275 117.669 170.531 117.436 169.753 117.44C169.473 117.44 169.186 117.468 168.895 117.523L168.866 117.529C168.375 117.631 167.918 117.849 167.551 118.143C166.901 118.663 166.546 119.337 166.295 119.989C165.923 120.975 165.749 122.012 165.501 122.982C165.261 123.952 164.956 124.825 164.503 125.446C163.717 126.535 162.952 127.721 162.388 129.144C161.823 130.564 161.472 132.212 161.474 134.164C161.474 134.867 161.518 135.611 161.612 136.401C161.73 137.392 161.808 138.424 161.807 139.45C161.808 140.782 161.676 142.102 161.346 143.312C160.843 145.133 159.94 146.68 158.313 147.855C156.79 148.949 154.539 149.736 151.238 149.89C150.111 136.054 148.507 122.402 146.693 109.858C155.953 110.324 165.837 111.691 172.608 113.267C173.307 113.429 174.006 112.994 174.168 112.295C174.331 111.595 173.896 110.897 173.196 110.734C166.092 109.086 155.882 107.686 146.309 107.239C146.04 105.429 145.767 103.642 145.491 101.886C151.392 101.26 157.767 100.886 163.639 100.886C167.69 100.886 171.504 101.063 174.742 101.451C175.455 101.537 176.102 101.028 176.187 100.315C176.273 99.6023 175.764 98.9551 175.051 98.8699C171.669 98.4651 167.767 98.2866 163.639 98.2864C157.612 98.2871 151.107 98.6694 145.079 99.314C144.859 97.9529 144.638 96.6033 144.415 95.2803C144.378 95.0608 144.275 94.8757 144.147 94.7114C146.422 94.0903 148.577 93.5059 150.547 92.9768C153.17 92.2722 155.465 91.6655 157.273 91.2014C159.078 90.738 160.414 90.4141 161.054 90.2869C166.759 89.1455 170.728 87.3975 173.377 85.1848C174.699 84.0791 175.683 82.8518 176.347 81.5508C177.013 80.2507 177.355 78.8833 177.431 77.5249C177.446 77.2473 177.454 76.9636 177.454 76.6726C177.452 74.8958 177.165 72.8728 176.488 70.9353C175.81 69.0032 174.739 67.138 173.088 65.7893C170.991 64.0676 168.653 63.4861 166.444 63.4968C164.253 63.5005 162.149 64.012 160.167 64.448C158.564 64.804 157.053 65.2293 155.732 65.8191C154.417 66.4111 153.258 67.1692 152.476 68.2964C151.72 69.3948 151.344 70.6238 151.343 71.8106C151.342 73.0481 151.758 74.2598 152.605 75.1736C153.446 76.0913 154.72 76.6484 156.153 76.6399C157.266 76.6392 158.473 76.3303 159.757 75.6943C159.802 75.6719 159.83 75.6323 159.871 75.6057C159.863 75.9412 159.795 76.2656 159.651 76.5542C159.496 76.8604 159.27 77.1377 158.893 77.3879C158.865 77.4077 158.741 77.479 158.567 77.5645C157.878 77.9077 156.416 78.5076 154.461 79.2512C151.352 80.4358 146.953 82.0125 141.985 83.75C137.707 60.7288 133.927 46.5898 133.92 46.5637C133.807 46.1438 133.494 45.8088 133.082 45.6689C132.671 45.529 132.218 45.6035 131.873 45.8682C131.834 45.8984 124.194 51.7637 113.211 62.9534C111.494 62.8931 109.651 62.8657 107.729 62.8657C96.3769 62.8662 82.5195 63.7656 79.5046 63.9705L63.5901 47.5508C63.2786 47.2293 62.8205 47.0903 62.383 47.1846C61.9455 47.2788 61.5851 47.594 61.4335 48.0151C56.8701 60.6968 53.7442 75.9204 51.5709 90.5098C41.519 88.7974 31.7773 88.0015 23.9409 87.8237C23.223 87.8074 22.628 88.3762 22.6118 89.0942C22.5956 89.812 23.1644 90.407 23.8823 90.4233C31.6096 90.5967 41.2657 91.3889 51.1962 93.0835C50.9082 95.1106 50.6384 97.1201 50.3857 99.1062C49.425 99.0862 48.464 99.0693 47.5039 99.0693C37.8979 99.0696 28.3857 100.04 20.233 101.405C19.5248 101.523 19.0469 102.193 19.1655 102.902C19.284 103.61 19.9543 104.088 20.6625 103.969C28.688 102.625 38.0731 101.669 47.5039 101.669C48.357 101.669 49.2101 101.686 50.063 101.702C49.7804 104.032 49.5192 106.323 49.2812 108.557C40.4654 109.572 31.2637 111.219 23.8591 112.978C23.1604 113.144 22.7287 113.844 22.8948 114.543C23.0608 115.242 23.7616 115.674 24.4603 115.508C31.588 113.812 40.4789 112.215 49.006 111.207C48.2406 118.768 47.7185 125.598 47.3575 131.082C47.3506 131.186 47.3807 131.281 47.3975 131.38C45.104 132.232 42.8979 133.171 40.8353 134.221C36.9053 136.226 33.4681 138.622 30.8728 141.556C28.2787 144.484 26.5422 147.98 26.1017 152.029C25.9891 153.054 25.9338 154.051 25.9338 155.017C25.9254 160.685 27.8602 165.327 31.0284 168.837C34.0299 172.171 38.0928 174.493 42.6097 175.983C42.1479 180.661 41.8975 183.763 41.6532 188.662C41.6174 189.379 42.1696 189.99 42.8867 190.025C43.6037 190.061 44.2142 189.509 44.25 188.792C44.5082 183.623 44.7645 180.553 45.2823 175.374C45.3296 174.899 45.1012 174.475 44.7424 174.212C44.5834 174.003 44.3792 173.827 44.1097 173.745C39.6271 172.373 35.7191 170.167 32.9614 167.098C30.2064 164.023 28.5423 160.104 28.5339 155.017C28.5339 154.149 28.5834 153.248 28.6862 152.312C29.072 148.834 30.521 145.887 32.821 143.278C36.2653 139.37 41.6783 136.3 47.9856 133.928C54.2894 131.552 61.4647 129.862 68.3879 128.584C69.8216 128.326 70.9274 127.511 71.7111 126.581C72.8927 125.181 73.5524 123.504 74.2253 122.247C74.5538 121.618 74.8792 121.104 75.1718 120.795C75.4746 120.482 75.6701 120.385 75.9172 120.348H75.9212C76.024 120.334 76.1149 120.328 76.1945 120.328C76.4594 120.33 76.5938 120.381 76.6973 120.439C76.8434 120.524 76.9948 120.687 77.1326 121.054C77.2663 121.412 77.3468 121.937 77.3451 122.517C77.3462 123.241 77.227 124.047 77.0437 124.737C76.9378 125.15 76.8005 125.515 76.6733 125.795C76.2208 125.849 75.7648 125.909 75.2898 125.997C74.5837 126.127 74.1175 126.806 74.2485 127.512C74.3794 128.218 75.0578 128.684 75.7639 128.553C76.8127 128.358 77.7704 128.261 78.6003 128.261C79.7633 128.258 80.6615 128.459 81.2253 128.767C81.5101 128.92 81.7166 129.092 81.8771 129.291C82.0313 129.484 82.1473 129.71 82.229 130.007C82.2803 130.258 82.3032 130.49 82.3032 130.695C82.3032 130.854 82.285 130.987 82.2665 131.118C82.1608 131.116 82.0602 131.113 81.9488 131.113C81.2343 131.113 80.4022 131.151 79.4765 131.258C78.7632 131.34 78.2517 131.985 78.334 132.698C78.4162 133.411 79.0611 133.923 79.7744 133.841H79.7743C80.5932 133.746 81.326 133.713 81.9488 133.713C82.1064 133.713 82.2523 133.716 82.3951 133.72C82.4881 133.875 82.5907 134.053 82.6941 134.26C82.9689 134.792 83.1888 135.467 83.1775 135.852L83.1731 135.96C83.1426 136.358 82.9111 136.768 82.6342 137.085C82.6159 137.106 82.5986 137.121 82.5803 137.141C82.2738 137.126 81.9525 137.115 81.6007 137.115C81.0676 137.115 80.4839 137.136 79.8566 137.186C79.1408 137.243 78.6072 137.87 78.6645 138.586C78.7218 139.302 79.3486 139.835 80.0643 139.778C80.6191 139.733 81.1336 139.715 81.6007 139.715C81.7338 139.715 81.8531 139.72 81.9781 139.722C82.1132 140.046 82.267 140.551 82.2654 141.16C82.2652 141.515 82.2157 141.907 82.0787 142.34C82.0292 142.484 81.9443 142.622 81.6561 142.819C81.2334 143.109 80.3754 143.392 79.2699 143.548C78.1644 143.711 76.8193 143.772 75.3863 143.772C74.8862 143.772 74.3748 143.764 73.8578 143.752L73.657 143.763C73.6127 143.771 68.2521 144.477 62.4801 146.325C59.592 147.253 56.5991 148.461 54.0853 150.061C52.8288 150.862 51.6896 151.763 50.7513 152.798C49.8147 153.832 49.0763 155.01 48.675 156.337C48.4672 157.024 48.8559 157.75 49.5432 157.958C50.2305 158.166 50.956 157.777 51.1639 157.09L51.1638 157.089C51.4314 156.204 51.9418 155.357 52.6786 154.543C53.9626 153.119 55.9421 151.835 58.1969 150.771C61.5781 149.168 65.553 148.046 68.6632 147.342C70.2189 146.988 71.5598 146.737 72.508 146.575C72.9822 146.493 73.3582 146.435 73.6139 146.396C73.7417 146.377 73.8395 146.363 73.9045 146.354L73.9086 146.353C74.404 146.364 74.8982 146.372 75.3863 146.372C77.396 146.369 79.2987 146.269 80.903 145.88C81.706 145.682 82.4434 145.414 83.0922 144.987C83.7356 144.566 84.3037 143.935 84.5569 143.126C84.7786 142.429 84.8657 141.762 84.8655 141.16C84.8612 140.241 84.6686 139.489 84.4602 138.934C84.5071 138.883 84.5508 138.843 84.5989 138.787C85.0864 138.222 85.6542 137.357 85.7631 136.188C85.7732 136.073 85.7776 135.961 85.7776 135.852C85.7652 134.722 85.3507 133.766 84.9847 133.028C84.8616 132.787 84.7453 132.585 84.6367 132.403C84.7752 131.978 84.9015 131.403 84.9032 130.695C84.9032 130.308 84.8643 129.885 84.769 129.438L84.7559 129.382C84.5912 128.743 84.3013 128.155 83.9029 127.661C83.3047 126.916 82.4864 126.407 81.5854 126.099C80.9259 125.873 80.215 125.747 79.4602 125.693C79.4901 125.592 79.529 125.506 79.5573 125.401C79.7926 124.508 79.944 123.513 79.9451 122.517C79.9388 121.455 79.7869 120.379 79.2234 119.418C78.9407 118.941 78.5339 118.498 78.0041 118.191C77.4762 117.882 76.8461 117.726 76.1945 117.728C75.9927 117.728 75.7879 117.743 75.5802 117.77C74.9451 117.851 74.3674 118.11 73.9045 118.454C73.0893 119.063 72.5749 119.865 72.116 120.681C71.4402 121.909 70.8885 123.24 70.2197 124.241C69.8888 124.742 69.5386 125.153 69.1677 125.448C68.7937 125.743 68.4103 125.934 67.9156 126.028C61.9364 127.134 55.7494 128.545 50.0052 130.462C50.3713 125.002 50.8932 118.301 51.6493 110.913C55.3639 110.525 58.9684 110.259 62.2721 110.165C62.9897 110.144 63.5547 109.546 63.5342 108.828C63.5136 108.111 62.9152 107.546 62.1976 107.566C58.9783 107.659 55.5021 107.909 51.927 108.271C52.1553 106.152 52.4042 103.983 52.6725 101.781C55.5871 101.895 58.4851 102.098 61.3225 102.431C62.0354 102.515 62.6814 102.005 62.7651 101.292C62.8488 100.579 62.3387 99.9327 61.6257 99.8492V99.8489C58.7859 99.5157 55.8967 99.3101 52.9958 99.1915C53.2342 97.3262 53.4879 95.4407 53.7575 93.5399C56.9437 94.1321 60.1429 94.8145 63.3025 95.607C63.9987 95.7816 64.7048 95.3585 64.8794 94.6624C65.0539 93.9661 64.631 93.2601 63.9348 93.0855L63.9347 93.0853C60.6842 92.2708 57.399 91.5709 54.1316 90.9652C56.1755 77.2144 59.0802 62.9185 63.1907 50.8741L78.0582 66.2137C78.3264 66.4905 78.6998 66.6331 79.0843 66.6058C79.087 66.6055 80.0778 66.5347 81.7727 66.4278C86.8554 66.107 98.2317 65.4654 107.729 65.4656C109.839 65.4656 111.855 65.4971 113.684 65.5709C114.05 65.5855 114.41 65.4427 114.666 65.1805C120.214 59.503 124.921 55.1832 128.237 52.2864C129.789 50.9298 131.022 49.8983 131.907 49.1729C133.073 53.7916 136.138 66.4576 139.501 84.6153C134.13 86.4803 128.264 88.48 122.699 90.3575C120.767 91.0091 118.879 91.6431 117.054 92.2545C116.871 91.702 116.543 91.1651 116.066 90.7037C116.012 90.6236 115.916 90.4835 115.799 90.3187C115.711 90.1956 115.613 90.0621 115.512 89.9319C115.408 89.7996 115.311 89.678 115.174 89.5391C115.088 89.4529 114.977 89.3702 114.869 89.3128C114.675 89.2056 114.426 89.1441 114.207 89.1465C113.958 89.147 113.757 89.2098 113.607 89.2774C113.326 89.4095 113.181 89.5526 113.056 89.6802C112.847 89.9066 112.714 90.1236 112.584 90.367C112.213 91.0882 111.916 92.0421 111.907 93.1248C111.907 93.3912 111.939 93.667 111.989 93.9456C110.201 94.5408 108.525 95.0962 107.018 95.5941C104.891 96.2964 103.085 96.8882 101.722 97.3309C100.987 97.5694 100.39 97.7613 99.9318 97.907C99.8296 97.7894 99.7104 97.6834 99.5644 97.6063C98.932 97.2718 98.1498 97.512 97.8121 98.1419L97.8107 98.1412C97.8056 98.1546 97.4257 98.8294 96.7502 99.4488C96.4133 99.7601 96.0066 100.057 95.5435 100.274C95.0788 100.49 94.5619 100.631 93.9551 100.64C93.2371 100.65 92.6631 101.24 92.6731 101.958C92.683 102.676 93.2731 103.25 93.9911 103.24C94.9509 103.227 95.8082 102.998 96.5426 102.668C96.5425 102.683 96.5404 102.699 96.5404 102.714C96.5418 103.942 96.8107 105.098 97.3002 106.083C97.7917 107.061 98.5091 107.898 99.5027 108.364C100.155 108.664 100.927 108.38 101.228 107.728C101.372 107.416 101.374 107.079 101.275 106.777C105.317 105.549 118.873 101.704 132.105 98.0299C135.429 97.107 138.733 96.1944 141.863 95.3365C141.847 95.46 141.829 95.5838 141.851 95.713V95.7127C142.067 96.9923 142.281 98.2965 142.494 99.6119C139.772 99.9451 137.178 100.329 134.816 100.756C134.11 100.884 133.641 101.561 133.769 102.267C133.896 102.974 134.573 103.443 135.279 103.315C137.612 102.892 140.192 102.511 142.905 102.181C143.162 103.809 143.415 105.467 143.665 107.141C142.508 107.109 141.361 107.088 140.24 107.087C138.584 107.087 136.975 107.124 135.436 107.203C134.718 107.24 134.167 107.851 134.204 108.568C134.24 109.285 134.851 109.836 135.568 109.8C137.057 109.724 138.623 109.687 140.24 109.687C141.482 109.687 142.758 109.711 144.05 109.751C145.936 122.719 147.601 136.897 148.74 151.235C148.795 151.926 149.384 152.436 150.068 152.42C150.229 152.486 150.404 152.524 150.589 152.521C153.292 152.473 155.527 152.05 157.368 151.307C160.133 150.203 161.976 148.332 163.026 146.194C164.085 144.057 164.406 141.699 164.407 139.45C164.407 138.294 164.321 137.162 164.194 136.094C164.111 135.398 164.074 134.758 164.074 134.164C164.076 132.515 164.358 131.234 164.805 130.102C165.254 128.971 165.88 127.979 166.61 126.969C167.202 126.147 167.551 125.254 167.807 124.403C168.185 123.128 168.378 121.908 168.656 121.106C168.789 120.704 168.939 120.426 169.058 120.288C169.181 120.153 169.233 120.119 169.397 120.076C169.531 120.052 169.651 120.04 169.753 120.04C170.055 120.044 170.217 120.108 170.384 120.218C170.625 120.378 170.897 120.747 171.087 121.33C171.279 121.903 171.379 122.648 171.377 123.388C171.378 124.036 171.304 124.682 171.185 125.207C171.073 125.73 170.889 126.141 170.806 126.246C170.797 126.26 170.796 126.276 170.787 126.29C170.281 126.55 169.833 126.868 169.463 127.255C168.771 127.973 168.376 128.935 168.383 129.911C168.395 130.938 168.802 131.872 169.44 132.653C169.578 132.818 169.735 132.971 169.899 133.118C169.815 133.231 169.725 133.332 169.648 133.461C169.375 133.92 169.172 134.511 169.173 135.169C169.173 135.321 169.184 135.475 169.205 135.628C169.301 136.331 169.596 136.927 169.941 137.395C170.175 137.711 170.432 137.972 170.688 138.198C170.514 138.399 170.347 138.627 170.203 138.892C169.921 139.405 169.735 140.05 169.737 140.762C169.737 140.938 169.748 141.115 169.769 141.294C169.868 142.234 170.309 143.129 171.013 143.718C171.712 144.311 172.559 144.614 173.483 144.798L173.486 144.799C173.881 144.875 174.34 144.909 174.866 144.913C175.38 147.086 175.659 149.273 175.659 151.412C175.655 156.86 173.955 161.967 170.271 165.903C166.584 169.836 160.855 172.673 152.532 173.369C152.444 173.376 152.37 173.416 152.289 173.44C152.272 173.44 152.257 173.433 152.24 173.435C151.525 173.506 151.004 174.143 151.076 174.857C151.6 180.096 152.11 182.888 152.367 188.785C152.398 189.503 153.005 190.059 153.722 190.028C154.44 189.997 154.996 189.39 154.965 188.673C154.724 183.148 154.261 180.234 153.791 175.836C162.046 174.958 168.149 171.978 172.169 167.68C176.364 163.203 178.262 157.394 178.259 151.412C178.258 149.162 177.977 146.884 177.467 144.627C177.63 144.589 177.794 144.555 177.957 144.508C178.48 144.353 178.998 144.147 179.482 143.848C179.964 143.551 180.423 143.153 180.757 142.61C181.189 141.912 181.377 141.158 181.374 140.477C181.368 139.416 180.973 138.577 180.601 137.981C181.084 137.415 181.636 136.562 181.743 135.409L181.744 135.4C181.752 135.296 181.757 135.188 181.757 135.076C181.746 133.946 181.316 133.025 180.939 132.341C180.84 132.167 180.744 132.01 180.653 131.87ZM123.481 97.7354C117.408 99.4358 111.698 101.051 107.351 102.297C105.177 102.92 103.345 103.45 101.976 103.854C101.291 104.056 100.722 104.227 100.282 104.362C99.9323 104.469 99.6913 104.546 99.4959 104.612C99.2796 104.072 99.1393 103.417 99.1404 102.714C99.1404 102.056 99.2626 101.365 99.5214 100.689C99.6248 100.684 99.7276 100.692 99.8313 100.662C100.303 100.522 101.504 100.137 103.305 99.5498C109.594 97.4993 123.021 93.0337 135.261 88.8301C141.382 86.728 147.204 84.6921 151.693 83.0542C153.938 82.2349 155.85 81.5156 157.307 80.9336C158.037 80.6421 158.652 80.3855 159.147 80.1633C159.648 79.9363 160.006 79.7647 160.325 79.5584C161.072 79.0676 161.629 78.4177 161.978 77.7141C162.329 77.01 162.478 76.2622 162.477 75.5479C162.474 74.522 162.184 73.5559 161.667 72.7554C161.407 72.3557 161.085 71.9956 160.688 71.7063C160.293 71.4185 159.812 71.2022 159.276 71.1382C158.562 71.0527 157.915 71.5617 157.83 72.2746C157.772 72.7593 158.002 73.1987 158.37 73.4668C157.475 73.8774 156.726 74.0407 156.153 74.04C155.346 74.0315 154.865 73.7763 154.511 73.4057C154.163 73.031 153.944 72.4778 153.943 71.8106C153.943 71.1763 154.147 70.4541 154.619 69.7698C154.987 69.2231 155.723 68.6677 156.794 68.1924C157.858 67.7148 159.222 67.3188 160.729 66.9863C162.735 66.5386 164.673 66.093 166.444 66.0967C168.244 66.1074 169.833 66.5034 171.446 67.8052C172.598 68.7375 173.47 70.176 174.034 71.7944C174.601 73.4072 174.855 75.1814 174.854 76.6726C174.854 76.9155 174.847 77.1519 174.835 77.3804C174.776 78.4065 174.526 79.3994 174.032 80.3672C173.291 81.8142 171.985 83.2319 169.814 84.5164C167.647 85.7981 164.619 86.9248 160.545 87.7373C159.738 87.8989 158.273 88.2588 156.256 88.7786C149.216 90.594 135.627 94.3345 123.481 97.7354ZM176.483 136.26C175.45 136.261 174.24 136.36 173.03 136.696C172.875 136.605 172.705 136.497 172.538 136.363C172.33 136.198 172.139 136.005 172.009 135.818C171.877 135.628 171.806 135.454 171.781 135.277L171.773 135.168C171.775 135.029 171.807 134.923 171.887 134.784C172.002 134.581 172.255 134.346 172.489 134.191C172.605 134.113 172.712 134.053 172.783 134.016L172.81 134.002C173.267 133.872 173.888 133.752 174.555 133.659C175.614 133.512 176.781 133.423 177.674 133.374C177.999 133.356 178.268 133.344 178.504 133.335C178.567 133.434 178.634 133.544 178.699 133.662C178.962 134.125 179.168 134.71 179.157 135.076L179.153 135.182C179.121 135.583 178.89 135.991 178.614 136.307C178.59 136.335 178.566 136.357 178.542 136.383C178.039 136.323 177.322 136.26 176.483 136.26ZM177.382 128.366C177.74 128.635 178.013 129.028 178.21 129.75C178.262 130.005 178.282 130.225 178.283 130.408C178.282 130.542 178.266 130.643 178.251 130.743C177.79 130.762 177.185 130.793 176.509 130.844C175.781 130.899 174.978 130.975 174.196 131.084C173.499 131.182 172.832 131.31 172.218 131.476C172.122 131.471 172.017 131.445 171.886 131.374C171.67 131.258 171.414 131.007 171.241 130.71C171.063 130.418 170.978 130.088 170.983 129.911C170.989 129.59 171.08 129.337 171.347 129.047C171.614 128.764 172.095 128.465 172.854 128.279C173.922 128.015 174.812 127.896 175.513 127.897C176.452 127.899 177.016 128.097 177.382 128.366ZM178.541 141.25C178.476 141.358 178.345 141.495 178.117 141.636C177.78 141.847 177.244 142.036 176.662 142.15C176.08 142.267 175.453 142.316 174.932 142.315C174.512 142.317 174.15 142.28 173.986 142.247C173.311 142.116 172.902 141.917 172.704 141.742C172.512 141.563 172.415 141.425 172.352 140.989L172.337 140.762C172.339 140.48 172.4 140.299 172.487 140.135C172.615 139.894 172.849 139.687 173.07 139.55C173.179 139.482 173.279 139.434 173.344 139.406L173.41 139.378L173.416 139.376L173.415 139.374C173.547 139.33 173.667 139.267 173.775 139.187C174.651 138.948 175.626 138.858 176.483 138.86C177.12 138.86 177.686 138.904 178.102 138.949C178.191 139.054 178.305 139.2 178.412 139.376C178.622 139.712 178.778 140.122 178.774 140.477C178.771 140.716 178.724 140.946 178.541 141.25Z"/></g></g></svg>