<svg width="200" height="200" viewBox="0 0 200 200" xmlns="http://www.w3.org/2000/svg"><g id="type=offer-shimmer, mode=dark"><g id="Layer 29"><path id="Vector" d="M58.2669 114.767C58.019 112.527 57.8948 110.275 57.8948 108.021C57.8948 107.274 57.9067 106.531 57.9304 105.791C57.9405 105.447 57.8138 105.113 57.5781 104.863C57.3423 104.612 57.0169 104.465 56.673 104.454C56.3291 104.443 55.9948 104.568 55.7434 104.803C55.492 105.038 55.344 105.363 55.3318 105.707C55.3069 106.476 55.2946 107.248 55.2949 108.021C55.2949 110.37 55.4243 112.718 55.6826 115.053C55.7212 115.395 55.894 115.708 56.163 115.923C56.432 116.138 56.7753 116.238 57.1175 116.2C57.4598 116.162 57.773 115.99 57.9885 115.721C58.2041 115.453 58.3042 115.11 58.2671 114.767L58.2669 114.767Z"/><path id="Vector_2" d="M156.286 42.0542C151.611 34.2505 144.862 27.8977 136.79 23.7032C136.108 23.3418 135.408 22.9973 134.701 22.6609C135.013 21.7979 135.437 20.9796 135.963 20.2271C136.861 18.9017 138.118 17.8601 139.588 17.2249C139.967 18.6338 140.85 19.8544 142.07 20.6546C143.29 21.4548 144.761 21.7789 146.204 21.5653C147.647 21.3516 148.962 20.6151 149.897 19.4957C150.833 18.3763 151.325 16.9522 151.279 15.4939C151.233 14.0357 150.653 12.6452 149.65 11.5866C148.646 10.528 147.288 9.87522 145.834 9.75235C144.38 9.62948 142.932 10.0451 141.765 10.9201C140.597 11.7952 139.792 13.0687 139.502 14.4986C138.265 14.8811 137.109 15.4916 136.096 16.2985C134.807 17.352 133.747 18.6577 132.981 20.1355C132.731 20.6082 132.511 21.0962 132.321 21.5964C123.867 18.1688 114.812 16.4672 105.69 16.5915C96.7578 16.4743 87.8885 18.0995 79.5783 21.3762C79.5423 20.9684 79.4848 20.5628 79.406 20.161C79.2006 19.0764 78.7961 18.0392 78.2128 17.102C78.9387 15.8354 79.1738 14.3463 78.8734 12.9177C78.5731 11.4891 77.7582 10.2207 76.5838 9.35362C75.4093 8.48657 73.9572 8.08132 72.5035 8.21494C71.0498 8.34856 69.6959 9.01172 68.6992 10.0783C67.7025 11.145 67.1325 12.5406 67.0976 14.0001C67.0627 15.4595 67.5653 16.8808 68.5099 17.9939C69.4545 19.1069 70.7751 19.834 72.2208 20.037C73.6664 20.24 75.1362 19.9046 76.3508 19.0947C76.5802 19.5972 76.7497 20.1249 76.8557 20.6671C76.9661 21.2246 77.0238 21.7913 77.028 22.3597L77.027 22.4621L77.0265 22.4831V22.4834C77.0263 22.4885 77.029 22.4926 77.029 22.4978C76.238 22.8674 75.4567 23.247 74.6965 23.6472C66.6435 27.8083 59.8973 34.1142 55.2028 41.8683C55.115 42.0147 55.0568 42.177 55.0317 42.3459C55.0066 42.5148 55.015 42.687 55.0564 42.8526C55.0979 43.0183 55.1715 43.1741 55.2732 43.3113C55.3748 43.4485 55.5025 43.5643 55.649 43.6521C55.7954 43.74 55.9577 43.7981 56.1266 43.8232C56.2955 43.8483 56.4676 43.8399 56.6333 43.7985C56.7989 43.7571 56.9548 43.6834 57.092 43.5817C57.2291 43.4801 57.345 43.3524 57.4328 43.206L57.4325 43.2058C61.8817 35.8599 68.2755 29.8873 75.9071 25.9481C83.9791 21.7003 93.9389 19.1921 105.69 19.1916C117.491 19.1923 127.485 21.7212 135.574 26.0011C143.224 29.9716 149.62 35.9886 154.05 43.3814C154.138 43.5282 154.253 43.6564 154.39 43.7587C154.526 43.861 154.682 43.9353 154.847 43.9775C155.013 44.0197 155.185 44.0289 155.354 44.0046C155.523 43.9802 155.685 43.9229 155.832 43.8357C155.979 43.7486 156.107 43.6334 156.209 43.4967C156.312 43.36 156.386 43.2045 156.428 43.0391C156.47 42.8736 156.479 42.7015 156.455 42.5325C156.431 42.3636 156.373 42.201 156.286 42.0542H156.286ZM142.967 13.3163C143.517 12.7662 144.241 12.424 145.015 12.3478C145.789 12.2716 146.566 12.4662 147.213 12.8984C147.86 13.3307 148.337 13.9738 148.563 14.7183C148.788 15.4628 148.749 16.2625 148.451 16.9813C148.154 17.7 147.616 18.2933 146.93 18.66C146.244 19.0267 145.452 19.1442 144.688 18.9924C143.925 18.8406 143.239 18.429 142.745 17.8276C142.252 17.2262 141.982 16.4723 141.982 15.6944C141.981 15.2526 142.068 14.815 142.237 14.4068C142.406 13.9987 142.654 13.6281 142.967 13.3163ZM73.0463 17.4949C72.3812 17.4947 71.731 17.2973 71.1781 16.9277C70.6252 16.558 70.1942 16.0327 69.9398 15.4182C69.6854 14.8036 69.619 14.1274 69.7488 13.4751C69.8787 12.8228 70.1991 12.2236 70.6695 11.7534C71.1399 11.2831 71.7391 10.9629 72.3915 10.8332C73.0438 10.7036 73.72 10.7702 74.3345 11.0248C74.949 11.2794 75.4741 11.7105 75.8436 12.2635C76.2131 12.8166 76.4103 13.4668 76.4103 14.1319C76.4091 15.0236 76.0543 15.8785 75.4236 16.5089C74.793 17.1394 73.938 17.494 73.0463 17.4949Z"/><path id="Vector_3" d="M120.548 98.1837L120.547 98.185C119.891 98.8545 119.163 99.4501 118.377 99.961C116.994 100.932 115.36 101.486 113.671 101.558C112.925 101.57 112.185 101.411 111.51 101.094C110.783 100.734 110.161 100.193 109.706 99.522C109.557 99.308 109.425 99.0826 109.311 98.848L109.228 98.664L109.214 98.627L109.213 98.6245L108.479 98.8903L109.216 98.6333L109.213 98.6244L108.479 98.8903L109.216 98.6333C109.102 98.3084 108.863 98.0421 108.553 97.8927C108.243 97.7434 107.886 97.7232 107.561 97.8366C107.236 97.95 106.969 98.1878 106.819 98.4977C106.669 98.8077 106.648 99.1644 106.761 99.4898C107.099 100.361 107.601 101.159 108.24 101.841C108.846 102.502 109.572 103.043 110.379 103.435C111.407 103.923 112.533 104.17 113.671 104.157C115.926 104.083 118.109 103.346 119.948 102.039C120.861 101.433 121.706 100.729 122.466 99.9395C122.698 99.6852 122.821 99.3489 122.806 99.0045C122.79 98.6601 122.639 98.3359 122.385 98.103C122.131 97.8702 121.794 97.7479 121.45 97.763C121.106 97.7781 120.781 97.9294 120.549 98.1836L120.548 98.1837Z"/><path id="Vector_4" d="M94.5428 81.1896L94.4405 82.4855L94.479 81.9963L94.2315 82.4191L94.4405 82.4855L94.4791 81.9963L94.2315 82.4191L94.3926 82.1435L94.147 82.3527L94.2315 82.4191L94.3926 82.1436L94.147 82.3527L94.1509 82.3585C94.2908 82.6466 94.3768 82.9578 94.4048 83.2767C94.4847 83.9022 94.521 84.5325 94.5132 85.163C94.5135 86.175 94.449 87.2921 94.3829 88.3131C94.3172 89.3389 94.2481 90.2531 94.2471 90.9529C94.2449 91.1602 94.255 91.3675 94.2771 91.5736L94.2759 91.5634C94.3324 92.217 94.5155 92.8533 94.8152 93.4369C94.9163 93.6255 94.991 93.7478 94.9939 93.7586L95.1763 93.6679L94.9878 93.7443L94.9939 93.7586L95.1763 93.6679L94.9878 93.7443L95.6179 93.4888H94.9409C94.9408 93.5761 94.9567 93.6627 94.9878 93.7443L95.6179 93.4888H95.5384L94.9554 93.3521L94.941 93.4888H95.5384L94.9554 93.3521L95.1875 93.4065L94.961 93.3314L94.9554 93.3521L95.1875 93.4065L94.961 93.3314L94.9556 93.3452L94.9573 93.3407L95.8697 93.7218L95.3123 92.8955C95.1531 93.0061 95.0297 93.1609 94.9573 93.3407L95.8697 93.7218L95.3123 92.8955L95.6294 93.3657L95.4322 92.8312L95.3123 92.8955L95.6294 93.3657L95.4322 92.8312L95.4304 92.8309C95.3303 92.8501 95.2284 92.8587 95.1264 92.8564C94.7573 92.8499 94.3908 92.7916 94.0378 92.6833C93.3849 92.4996 92.7918 92.1475 92.3178 91.6623C91.7805 91.0746 91.4814 90.3076 91.479 89.5112C91.4736 89.3893 91.4709 89.2696 91.4709 89.1506C91.4898 87.4666 91.9121 85.8116 92.7023 84.3243C92.985 83.7751 93.356 83.2761 93.8007 82.8474C93.9304 82.7257 94.0767 82.623 94.2353 82.5425C94.2954 82.5097 94.3618 82.49 94.4301 82.4847H94.4333L94.4396 82.329L94.4257 82.4842L94.4333 82.4847L94.4396 82.329L94.4257 82.4842L94.4404 82.4855L94.5427 81.1896L94.6594 79.8948L94.4301 79.8848C93.9779 79.8891 93.5323 79.9938 93.1254 80.1912C92.4467 80.5365 91.8523 81.0272 91.3847 81.6283C90.5951 82.6333 89.9871 83.7684 89.5879 84.9825C89.1229 86.3234 88.8808 87.7314 88.8711 89.1506C88.8711 89.3093 88.8746 89.467 88.8816 89.6238C88.9109 90.5974 89.175 91.5495 89.6514 92.3992C90.2688 93.4538 91.1971 94.2919 92.3091 94.7988C93.1901 95.2178 94.151 95.4421 95.1265 95.4564C95.4884 95.462 95.8491 95.4146 96.1973 95.3157C96.3992 95.2563 96.591 95.167 96.7663 95.0507C97.0282 94.8777 97.2334 94.6316 97.3564 94.343L97.3582 94.3385C97.4747 94.0702 97.5368 93.7813 97.5408 93.4888C97.5382 93.1804 97.4636 92.8769 97.3228 92.6025C97.1736 92.3155 97.1113 92.2368 97.0471 92.0828C96.945 91.8248 96.882 91.5531 96.8601 91.2766L96.8589 91.2664C96.8495 91.1621 96.8455 91.0575 96.8469 90.9529C96.8459 90.4264 96.9099 89.511 96.9773 88.4811C97.0442 87.4463 97.1128 86.2815 97.113 85.163C97.1403 84.1301 97.0403 83.0978 96.8152 82.0893C96.7007 81.6047 96.4889 81.1484 96.1926 80.7482C96.015 80.5182 95.7955 80.3239 95.5456 80.1756C95.2705 80.0147 94.9625 79.9182 94.6447 79.8935L94.5427 81.1895L94.6594 79.8947L94.5428 81.1896Z"/><path id="Vector_5" d="M135.84 81.1895L135.737 82.4854L135.776 81.9963L135.528 82.419L135.737 82.4854L135.776 81.9963L135.528 82.419L135.689 82.144L135.444 82.3526L135.528 82.419L135.689 82.144L135.444 82.3527L135.448 82.3585C135.588 82.6466 135.674 82.9578 135.702 83.2767C135.782 83.9022 135.818 84.5325 135.81 85.163C135.81 86.175 135.746 87.2921 135.68 88.3131C135.614 89.3389 135.545 90.2531 135.544 90.9529C135.542 91.1602 135.552 91.3675 135.574 91.5736L135.573 91.5634C135.629 92.217 135.813 92.8533 136.112 93.4369C136.213 93.6255 136.288 93.7478 136.291 93.7586L136.473 93.6679L136.285 93.7443L136.291 93.7586L136.473 93.6679L136.285 93.7443L136.915 93.4888H136.238C136.238 93.5761 136.254 93.6627 136.285 93.7443L136.915 93.4888H136.835L136.252 93.3521L136.238 93.4888H136.835L136.252 93.3521L136.485 93.4065L136.258 93.3314L136.252 93.3521L136.485 93.4065L136.258 93.3314L136.253 93.3452L136.254 93.3407L137.167 93.7218L136.609 92.8955C136.45 93.0061 136.327 93.1609 136.254 93.3407L137.167 93.7218L136.609 92.8955L136.926 93.3657L136.729 92.8312L136.609 92.8955L136.926 93.3657L136.729 92.8312L136.727 92.8309C136.627 92.8501 136.525 92.8587 136.423 92.8564C136.054 92.8499 135.688 92.7916 135.335 92.6833C134.682 92.4996 134.089 92.1475 133.615 91.6623C133.077 91.0746 132.778 90.3076 132.776 89.5112C132.771 89.3893 132.768 89.2696 132.768 89.1506C132.787 87.4666 133.209 85.8116 133.999 84.3243C134.282 83.7751 134.653 83.2761 135.098 82.8474C135.227 82.7257 135.374 82.623 135.532 82.5425C135.592 82.5097 135.659 82.49 135.727 82.4847H135.73L135.737 82.329L135.723 82.4842L135.73 82.4847L135.737 82.329L135.723 82.4842L135.737 82.4855L135.84 81.1896L135.956 79.8948L135.727 79.8848C135.275 79.8891 134.829 79.9938 134.422 80.1912C133.744 80.5365 133.149 81.0272 132.682 81.6283C131.892 82.6333 131.284 83.7684 130.885 84.9825C130.42 86.3234 130.178 87.7315 130.168 89.1506C130.168 89.3093 130.171 89.467 130.178 89.6238C130.208 90.5974 130.472 91.5495 130.948 92.3992C131.566 93.4538 132.494 94.2919 133.606 94.7988C134.487 95.2178 135.448 95.4421 136.423 95.4564C136.785 95.4621 137.146 95.4146 137.494 95.3157C137.696 95.2564 137.888 95.167 138.063 95.0507C138.325 94.8777 138.53 94.6316 138.653 94.343L138.655 94.3385C138.772 94.0702 138.834 93.7813 138.838 93.4888C138.835 93.1804 138.76 92.8769 138.62 92.6025C138.47 92.3155 138.408 92.2368 138.344 92.0828C138.242 91.8248 138.179 91.5531 138.157 91.2766L138.156 91.2664C138.146 91.1621 138.142 91.0575 138.144 90.9529C138.143 90.4264 138.207 89.511 138.274 88.4811C138.341 87.4463 138.41 86.2815 138.41 85.163C138.437 84.1301 138.337 83.0978 138.112 82.0894C137.998 81.6047 137.786 81.1484 137.49 80.7482C137.312 80.5182 137.092 80.324 136.842 80.1757C136.567 80.0147 136.259 79.9182 135.942 79.8936L135.84 81.1896L135.956 79.8948L135.84 81.1895Z"/><path id="Vector_6" d="M172.138 123.583C172.223 123.249 172.172 122.895 171.996 122.599C171.82 122.303 171.534 122.089 171.201 122.004C170.867 121.919 170.513 121.969 170.217 122.144C169.921 122.32 169.706 122.605 169.62 122.938L169.62 122.938C166.771 134.451 160.119 144.665 150.741 151.925C141.375 159.118 129.154 163.417 114.684 163.42C101.568 163.418 90.3014 159.887 81.3326 153.875C72.449 147.908 65.6262 139.341 61.7977 129.347C61.6724 129.027 61.425 128.769 61.1098 128.63C60.7945 128.492 60.4372 128.484 60.1163 128.609C59.7954 128.734 59.537 128.981 59.3979 129.295C59.2588 129.61 59.2504 129.968 59.3744 130.289C62.5173 138.452 67.5682 145.745 74.1051 151.557C74.0397 152.559 74.0096 153.549 74.0087 154.517C74.0306 157.916 74.3392 161.306 74.931 164.653C74.9371 164.689 74.9432 164.718 74.9493 164.753C74.8547 164.786 74.7643 164.829 74.68 164.883C73.6227 165.673 72.7616 166.697 72.1637 167.874L72.1617 167.878C71.2203 169.837 70.7447 171.987 70.772 174.161C70.763 175.208 70.8657 176.253 71.0784 177.279C71.088 177.319 71.1151 177.348 71.128 177.386C70.596 178.5 70.3218 179.719 70.326 180.953C70.3266 181.391 70.3566 181.829 70.4156 182.263C71.0489 187.036 72.4949 190.44 74.7042 192.68C75.7659 193.758 77.0554 194.586 78.4783 195.103C79.8982 195.603 81.395 195.849 82.9002 195.829C83.2437 195.829 83.5907 195.819 83.9412 195.797C87.1865 195.7 90.2964 194.475 92.7359 192.333C93.8545 191.291 94.7419 190.026 95.3406 188.62C95.9394 187.213 96.2363 185.697 96.212 184.168C96.212 184 96.2087 183.831 96.2022 183.66V183.656C95.8779 179.657 94.8695 175.743 93.221 172.085C92.4271 170.215 91.4204 168.444 90.221 166.805C89.2357 165.37 87.8745 164.234 86.2864 163.52L86.2867 163.52L86.2803 163.517L86.2727 163.514L86.2725 163.515C85.3603 163.164 84.4101 162.922 83.4415 162.792C83.4068 162.787 83.375 162.8 83.3406 162.798C83.1021 161.367 82.8741 159.65 82.7376 157.813C92.4615 163.354 103.493 166.188 114.684 166.02C128.985 166.022 141.306 161.939 150.953 154.996C150.9 156.705 150.866 158.44 150.866 160.231C150.866 160.777 150.877 161.348 150.881 161.902C150.819 161.91 150.757 161.922 150.697 161.938C149.021 162.644 147.601 163.844 146.625 165.378C145.511 167.175 144.726 169.156 144.307 171.228C144.292 171.33 144.289 171.433 144.299 171.535C144.069 171.738 143.849 171.952 143.641 172.176C143.164 172.716 142.781 173.332 142.505 173.997C141.54 176.51 141.071 179.188 141.126 181.879C141.05 184.508 141.552 187.121 142.597 189.534C143.622 191.459 145.257 192.989 147.245 193.885C149.34 194.881 151.633 195.393 153.953 195.384C156.104 195.402 158.232 194.936 160.179 194.021L160.181 194.02C161.701 193.266 163.007 192.141 163.976 190.749C165.379 188.648 166.325 186.277 166.753 183.788C167.198 181.425 167.414 179.024 167.397 176.619C167.397 176.422 167.396 176.227 167.394 176.034C167.421 173.206 166.883 170.402 165.811 167.785C165.242 166.461 164.436 165.253 163.431 164.22C162.358 163.136 161.045 162.321 159.599 161.838C159.557 161.831 159.515 161.825 159.473 161.822C159.469 161.287 159.466 160.754 159.466 160.231V160.219L159.466 160.155C159.401 155.594 159.661 151.035 160.243 146.511C165.937 139.897 170.01 132.047 172.138 123.583ZM74.485 169.045C74.7547 168.518 75.103 168.036 75.5177 167.614C75.5577 167.792 75.5924 167.94 75.6273 168.089C75.5116 168.711 75.3602 169.577 75.2045 170.625C75.0821 171.452 74.9586 172.376 74.8539 173.353C74.8514 173.376 74.8609 173.395 74.8597 173.418C74.6512 173.545 74.4379 173.666 74.2374 173.805C73.9396 174.014 73.6537 174.24 73.3776 174.477C73.3754 174.373 73.3719 174.27 73.3719 174.161C73.3458 172.393 73.7266 170.642 74.485 169.045ZM85.3402 165.941L85.3541 165.946C86.4863 166.493 87.4517 167.332 88.1503 168.377C89.7827 170.689 91.0569 173.233 91.93 175.925C92.8406 178.45 93.4039 181.087 93.6044 183.763V183.759C93.6095 183.897 93.6121 184.033 93.6122 184.168C93.6377 185.339 93.4151 186.502 92.9591 187.581C92.503 188.66 91.8239 189.63 90.9662 190.428C88.9679 192.159 86.4292 193.14 83.7862 193.202C83.485 193.22 83.1896 193.229 82.9002 193.229C81.6995 193.248 80.5047 193.056 79.3707 192.661C77.707 192.047 76.2998 190.888 75.378 189.373C74.0499 187.091 73.2358 184.547 72.9928 181.919C72.9489 181.599 72.9266 181.276 72.9259 180.953C72.9131 179.944 73.1748 178.951 73.6832 178.079C74.2034 177.225 74.9017 176.494 75.7303 175.934C78.153 174.4 80.9678 173.6 83.8351 173.63C84.7983 173.615 85.759 173.732 86.6903 173.978L86.7301 173.989C86.9697 174.05 87.2023 174.135 87.4242 174.243C87.7327 174.397 88.0897 174.422 88.4167 174.313C88.7436 174.203 89.0137 173.968 89.1675 173.66C89.3212 173.351 89.3461 172.994 89.2367 172.667C89.1272 172.34 88.8924 172.07 88.5838 171.916C88.2105 171.733 87.8194 171.588 87.4166 171.483L87.4171 171.482L87.3963 171.477L87.3773 171.471L87.3771 171.472C87.2833 171.446 87.1828 171.426 87.0866 171.402C86.8506 170.335 86.5575 169.282 86.2086 168.247L86.2076 168.245C85.9315 167.44 85.5975 166.656 85.2081 165.899C85.2511 165.915 85.2975 165.924 85.3402 165.941L85.3402 165.941ZM83.7486 169.089C83.9574 169.699 84.1436 170.363 84.319 171.045C84.1576 171.04 83.9994 171.031 83.8351 171.031C81.7202 171.037 79.6214 171.397 77.6251 172.095C77.6746 171.72 77.7252 171.351 77.7762 171.006C77.9488 169.847 78.1187 168.896 78.232 168.302C78.2658 168.12 78.2612 167.933 78.2186 167.753C78.0479 167.047 77.7713 165.809 77.4925 164.208C76.9266 161.009 76.6309 157.767 76.6085 154.518C76.6087 154.241 76.631 153.955 76.6363 153.675C77.6857 154.497 78.7684 155.283 79.8846 156.035C79.9361 156.07 79.9901 156.102 80.0418 156.136C80.1649 159.126 80.5206 162.101 81.1056 165.036C81.1469 165.245 81.2393 165.442 81.3746 165.607C81.5099 165.772 81.6839 165.901 81.8812 165.983C82.2271 166.121 82.5169 166.371 82.7044 166.693C83.127 167.457 83.4766 168.259 83.7486 169.089V169.089ZM153.466 164.925C153.493 164.815 153.506 164.701 153.505 164.588C153.482 163.106 153.466 161.649 153.466 160.231C153.466 157.703 153.513 155.277 153.629 152.941C154.894 151.906 156.106 150.82 157.266 149.684C156.977 152.917 156.866 156.4 156.866 160.155L156.866 160.244V160.231C156.866 161.565 156.88 162.935 156.899 164.33C156.902 164.535 156.954 164.738 157.05 164.92C157.147 165.101 157.285 165.258 157.453 165.376C157.728 165.568 157.939 165.837 158.058 166.15C158.623 167.648 159.071 169.188 159.4 170.756C159.017 170.58 158.629 170.407 158.223 170.253C156.406 169.567 154.494 169.165 152.555 169.061C152.809 167.732 153.105 166.359 153.466 164.925ZM148.792 166.815C149.314 165.997 150.009 165.304 150.828 164.785C150.461 166.285 150.144 167.742 149.888 169.141C149.85 169.146 149.812 169.148 149.775 169.153C148.98 169.26 148.198 169.448 147.442 169.716C147.766 168.696 148.22 167.721 148.792 166.815V166.815ZM161.359 175.085C161.54 175.261 161.708 175.449 161.862 175.649C161.964 175.787 162.092 175.904 162.239 175.993C162.386 176.082 162.549 176.14 162.719 176.166C162.889 176.191 163.062 176.183 163.229 176.141C163.395 176.099 163.552 176.024 163.689 175.921C163.827 175.818 163.943 175.689 164.03 175.541C164.118 175.393 164.175 175.23 164.198 175.059C164.222 174.889 164.212 174.716 164.168 174.55C164.125 174.384 164.049 174.228 163.944 174.091C163.715 173.79 163.463 173.506 163.193 173.241L163.183 173.231C162.919 172.981 162.642 172.745 162.353 172.524C162.35 172.496 162.361 172.472 162.357 172.444L162.357 172.444C161.991 169.976 161.364 167.553 160.485 165.218L160.484 165.215C160.472 165.182 160.453 165.153 160.439 165.12C160.853 165.391 161.237 165.703 161.586 166.052C162.766 167.316 163.611 168.854 164.045 170.526C164.542 172.33 164.794 174.192 164.794 176.062C164.796 176.246 164.797 176.431 164.797 176.619C164.847 179.61 164.461 182.591 163.651 185.47C163.258 186.812 162.654 188.083 161.861 189.236C161.145 190.275 160.176 191.117 159.046 191.681C157.452 192.425 155.712 192.802 153.953 192.784C152.028 192.793 150.126 192.371 148.386 191.549C146.917 190.904 145.703 189.792 144.931 188.387C144.066 186.329 143.655 184.11 143.726 181.88C143.719 180.21 143.903 178.545 144.276 176.918C144.424 176.277 144.628 175.649 144.885 175.044C145.046 174.644 145.27 174.273 145.547 173.944C146.766 172.689 148.389 171.905 150.129 171.728L150.134 171.728C150.669 171.654 151.208 171.618 151.748 171.619C153.648 171.642 155.528 172.002 157.302 172.684C158.799 173.211 160.177 174.026 161.359 175.085V175.085Z"/><path id="Vector_7" d="M149.775 169.153H149.776L149.779 169.152L149.775 169.153Z"/><path id="Vector_8" d="M138.904 146.26C139.354 148.015 140.116 149.675 141.154 151.16C140.625 151.38 140.085 151.6 139.545 151.8C139.455 149.75 138.965 146.67 138.904 146.26Z"/><path id="Vector_9" d="M173.882 110.736C174.004 109.34 174.065 107.932 174.065 106.51C174.065 106.165 173.928 105.834 173.684 105.591C173.44 105.347 173.11 105.21 172.765 105.21C172.42 105.21 172.09 105.347 171.846 105.591C171.602 105.834 171.465 106.165 171.465 106.51C171.465 107.856 171.407 109.19 171.292 110.51C171.277 110.681 171.296 110.852 171.347 111.015C171.398 111.178 171.481 111.33 171.591 111.461C171.701 111.592 171.835 111.7 171.987 111.779C172.138 111.858 172.304 111.906 172.474 111.921C172.645 111.936 172.816 111.917 172.979 111.865C173.142 111.814 173.293 111.73 173.424 111.62C173.555 111.51 173.663 111.376 173.742 111.224C173.82 111.072 173.868 110.906 173.883 110.736L173.882 110.736Z"/><path id="Vector_10" d="M163.419 116.349C158.809 123.639 152.482 129.686 144.991 133.962C144.818 134.062 144.671 134.2 144.56 134.366C144.449 134.532 144.378 134.722 144.352 134.919C144.328 135.101 144.316 135.285 144.316 135.468C144.316 135.8 144.356 136.13 144.435 136.451L144.434 136.448C144.494 136.695 144.577 136.936 144.682 137.167L145.866 136.63L144.629 137.029L144.638 137.059L145.876 136.66L144.615 136.977L144.626 137.062C144.62 137.153 144.586 137.239 144.53 137.31L144.443 137.413L144.428 137.428L144.815 137.869L144.452 137.408L144.428 137.428L144.815 137.869L144.452 137.408C144.238 137.576 144.082 137.807 144.007 138.069C143.931 138.33 143.94 138.608 144.031 138.865L144.749 138.61L144.027 138.854L144.031 138.865L144.749 138.61L144.027 138.854L144.032 138.871C144.142 139.269 144.195 139.68 144.19 140.092C144.186 141.333 143.74 142.532 142.931 143.474C142.788 143.648 142.692 143.857 142.654 144.079C142.615 144.302 142.636 144.531 142.713 144.743C143.316 146.252 143.773 147.815 144.078 149.411C144.107 149.616 144.184 149.811 144.303 149.98C144.422 150.148 144.58 150.286 144.763 150.382C144.946 150.478 145.149 150.529 145.356 150.53C145.562 150.532 145.766 150.484 145.951 150.391C158.264 144.191 167.085 134.311 171.287 122.609C171.403 122.285 171.386 121.928 171.239 121.616C171.166 121.461 171.064 121.323 170.937 121.208C170.811 121.093 170.663 121.004 170.503 120.947C170.178 120.83 169.821 120.847 169.509 120.994C169.197 121.141 168.956 121.406 168.84 121.731C164.869 132.777 156.55 142.137 144.781 148.07L145.366 149.231L146.653 149.05C146.326 147.274 145.825 145.535 145.158 143.857L143.935 144.3L144.939 145.126C146.129 143.718 146.784 141.936 146.79 140.092C146.8 139.381 146.696 138.673 146.481 137.995L145.256 138.43L146.059 139.451C146.286 139.267 146.485 139.051 146.652 138.812C147.02 138.303 147.221 137.691 147.226 137.062C147.226 136.82 147.196 136.578 147.136 136.343L147.113 136.261L147.103 136.231L147.05 136.093C147.012 136.009 146.982 135.922 146.96 135.833L146.959 135.83C146.93 135.712 146.916 135.59 146.916 135.468L146.93 135.256L145.641 135.088L146.291 136.214C154.158 131.722 160.801 125.367 165.637 117.707C165.817 117.414 165.873 117.06 165.792 116.725C165.712 116.39 165.501 116.1 165.207 115.92C164.913 115.74 164.56 115.684 164.225 115.764C163.889 115.845 163.6 116.055 163.42 116.349L163.419 116.349Z"/><path id="Vector_11" d="M59.3291 123.771C59.1639 123.728 58.9919 123.718 58.8228 123.742C58.6537 123.765 58.4909 123.822 58.3437 123.908C58.1965 123.995 58.0677 124.109 57.9648 124.245C57.8618 124.381 57.7867 124.536 57.7437 124.702C57.3737 126.247 56.8822 127.76 56.2737 129.228C55.919 130.079 55.4291 130.867 54.8227 131.562C54.4673 131.957 54.0469 132.287 53.5798 132.539L53.573 132.543C53.0137 132.838 52.3918 132.994 51.7598 132.998H51.7329C51.0823 132.989 50.44 132.851 49.8437 132.591C49.1973 132.309 48.588 131.949 48.0293 131.519C47.4888 131.105 46.9738 130.659 46.4873 130.183C47.2701 129.791 47.9517 129.223 48.4787 128.523C48.6421 128.294 48.7876 128.053 48.914 127.802C49.2021 128.078 49.4775 128.327 49.7324 128.535C50.0982 128.847 50.4973 129.117 50.9223 129.34C51.2005 129.481 51.5199 129.518 51.8227 129.443C52.1255 129.369 52.3914 129.188 52.5722 128.934C52.8108 128.578 53.0147 128.201 53.1814 127.807C53.4147 127.273 53.6181 126.727 53.7908 126.171C54.0701 125.302 54.3396 124.305 54.612 123.219C54.9746 121.769 55.3386 120.164 55.746 118.489C55.8286 118.147 56.0147 117.84 56.279 117.609C56.5433 117.378 56.8726 117.234 57.2219 117.197C57.563 117.16 57.8754 116.989 58.0909 116.722C58.3064 116.455 58.4076 116.113 58.3723 115.772C58.3371 115.43 58.1683 115.117 57.9027 114.899C57.6371 114.682 57.2964 114.578 56.9548 114.611L56.9545 114.611C56.0711 114.703 55.2378 115.066 54.5691 115.65C53.9003 116.235 53.4288 117.012 53.2195 117.875C52.8067 119.574 52.4422 121.178 52.0899 122.588C51.8255 123.644 51.5662 124.596 51.3145 125.38L51.312 125.387C51.2161 125.693 51.1187 125.965 51.0227 126.216C50.5297 125.764 50.0603 125.286 49.6165 124.785C49.6138 124.659 49.6113 124.532 49.6013 124.409L49.6018 124.409L49.6011 124.403L49.6006 124.392L49.5996 124.392C49.5749 124.077 49.5242 123.765 49.448 123.459C49.7174 122.514 49.8543 121.536 49.855 120.553C49.8777 118.888 49.4162 117.252 48.5266 115.844C48.2396 115.385 48.0479 114.874 47.9631 114.34C47.8681 113.732 47.8266 113.118 47.8391 112.504C47.8391 112.145 47.846 111.775 47.846 111.398C47.8823 110.48 47.7709 109.562 47.5159 108.679C47.3557 108.187 47.107 107.729 46.7823 107.326C46.4212 106.888 45.9776 106.526 45.4768 106.259C44.992 105.986 44.4463 105.84 43.8902 105.835C43.7557 105.838 43.6215 105.851 43.4888 105.872C43.4532 103.618 43.3821 100.685 43.2337 97.4606C43.2271 97.2892 43.1866 97.1207 43.1147 96.965C43.0427 96.8093 42.9406 96.6693 42.8143 96.5532C42.6879 96.4372 42.5399 96.3472 42.3787 96.2886C42.2174 96.23 42.0462 96.2039 41.8748 96.2118C41.7034 96.2197 41.5353 96.2615 41.3801 96.3346C41.225 96.4078 41.0858 96.511 40.9707 96.6382C40.8556 96.7654 40.7668 96.9141 40.7094 97.0758C40.6521 97.2375 40.6273 97.4089 40.6365 97.5802L40.6363 97.5801C40.8233 101.641 40.8865 105.234 40.9107 107.572C40.5657 108.03 40.2747 108.526 40.0435 109.05C39.304 108.907 38.5645 108.785 37.8535 108.703C37.7581 108.692 37.666 108.692 37.572 108.686C37.3428 108.649 37.1115 108.625 36.8794 108.616C36.0377 108.583 35.2173 108.886 34.5982 109.457C34.5703 109.484 34.5489 109.513 34.522 109.541C33.9125 109.999 33.419 110.593 33.0811 111.277C32.6426 112.172 32.4189 113.158 32.4278 114.154C32.4315 114.828 32.529 115.498 32.7176 116.145C32.3372 116.53 32.0387 116.988 31.8399 117.491C31.59 118.099 31.46 118.75 31.4571 119.407C31.4535 120.056 31.5955 120.697 31.8726 121.283C32.0904 121.73 32.3844 122.135 32.7413 122.481C32.5724 122.88 32.4821 123.308 32.4752 123.741C32.499 124.826 32.9244 125.863 33.669 126.651C34.3263 127.365 35.1981 127.844 36.1524 128.018C36.1709 128.075 36.1936 128.132 36.2205 128.186C36.6449 128.777 37.1733 129.286 37.7799 129.688C38.8651 130.419 40.1145 130.87 41.4166 131.001C41.585 136.119 41.6668 141.256 41.8944 146.124C41.9105 146.469 42.0627 146.792 42.3176 147.025C42.5725 147.257 42.9092 147.378 43.2536 147.362C43.598 147.346 43.9219 147.194 44.1541 146.939C44.3862 146.684 44.5076 146.347 44.4915 146.003L44.4913 146.003C44.2733 141.344 44.1925 136.389 44.0335 131.406C44.7864 132.199 45.6001 132.932 46.4674 133.598L46.472 133.601C47.2006 134.159 47.9949 134.624 48.837 134.988C49.752 135.382 50.7367 135.59 51.733 135.598H51.7599C52.8205 135.594 53.8643 135.332 54.8009 134.835C55.5285 134.444 56.184 133.932 56.7391 133.32L56.743 133.315C57.5361 132.417 58.1788 131.396 58.6461 130.292L58.6495 130.284C59.3168 128.687 59.8551 127.04 60.2594 125.357C60.3463 125.023 60.2971 124.669 60.1226 124.372C59.9481 124.074 59.6627 123.858 59.3291 123.771ZM35.0276 114.155C35.0052 113.396 35.2285 112.65 35.6643 112.028C35.839 111.795 36.0639 111.604 36.3223 111.47C36.605 111.33 36.9171 111.26 37.2325 111.266C37.3387 111.266 37.4449 111.273 37.5504 111.285L37.5535 111.286C39.1478 111.437 40.7161 111.792 42.2198 112.343C42.72 112.527 43.1823 112.801 43.5836 113.152C43.6833 113.245 43.7661 113.354 43.8282 113.475C43.8661 113.552 43.8856 113.637 43.8851 113.723L43.8838 113.763C43.8758 114.046 43.7892 114.321 43.6336 114.558C43.4186 114.852 43.1282 115.083 42.793 115.226C42.6867 115.275 42.5773 115.317 42.4656 115.352L42.4561 115.346C41.4947 114.787 40.4397 114.408 39.3426 114.227C38.9976 114.178 38.6495 114.153 38.3011 114.154C37.2038 114.166 36.1174 114.373 35.0926 114.765C35.0576 114.563 35.0359 114.359 35.0276 114.155ZM47.0567 122.325C47.0071 122.545 46.9583 122.719 46.9238 122.832L46.8845 122.954L46.8775 122.974L46.8757 122.979L46.8765 122.979C46.7689 123.269 46.7685 123.588 46.8753 123.879C46.9508 124.109 46.9955 124.349 47.0083 124.591L47.0095 124.608C47.0178 124.707 47.0225 124.815 47.0225 124.929C47.0346 125.66 46.8136 126.376 46.3916 126.973C45.7744 127.731 44.8852 128.217 43.9141 128.328C43.8985 127.938 43.886 127.547 43.8687 127.158C44.3588 126.876 44.7624 126.466 45.0354 125.971C45.3492 125.392 45.5109 124.742 45.5054 124.084C45.5072 123.417 45.3493 122.759 45.045 122.166C45.0035 122.086 44.9498 122.009 44.9017 121.93C44.9248 121.898 44.9461 121.873 44.9695 121.839C45.466 121.146 45.7424 120.319 45.763 119.467C45.763 119.361 45.7586 119.251 45.7478 119.137C45.6532 118.457 45.358 117.82 44.8997 117.308C44.8414 117.238 44.7715 117.173 44.7095 117.104C45.1128 116.819 45.4643 116.468 45.7486 116.064C45.9031 116.481 46.1023 116.88 46.3426 117.254C46.9605 118.242 47.2776 119.388 47.2552 120.553C47.2533 121.149 47.1868 121.743 47.0567 122.325ZM37.5606 125.521C37.2877 125.521 37.0406 125.515 36.8323 125.507C36.3787 125.466 35.9539 125.266 35.6326 124.944C35.3113 124.621 35.1139 124.195 35.075 123.741C35.0715 123.623 35.0971 123.507 35.1497 123.401C35.2088 123.295 35.2964 123.208 35.4024 123.149C35.8962 122.876 36.4323 122.687 36.9884 122.591C37.7063 122.452 38.4361 122.383 39.1674 122.387C39.8066 122.384 40.4448 122.437 41.0748 122.545C41.5042 122.609 41.922 122.735 42.3148 122.92C42.4979 123.021 42.6454 123.176 42.7374 123.364C42.8493 123.587 42.9069 123.834 42.9056 124.084C42.9102 124.3 42.8612 124.515 42.7628 124.708C42.7185 124.806 42.6391 124.884 42.5404 124.927C41.7962 125.163 41.0275 125.315 40.2492 125.379C39.356 125.473 38.4586 125.52 37.5606 125.521ZM34.2183 120.162C34.1085 119.925 34.0533 119.668 34.0569 119.407C34.0603 119.088 34.1245 118.772 34.2461 118.476C34.3113 118.3 34.4073 118.137 34.5296 117.995C34.6155 117.922 34.7062 117.855 34.8011 117.795L34.8013 117.795C34.8728 117.747 34.9444 117.699 35.035 117.647C36.034 117.086 37.1556 116.779 38.3011 116.754C38.5259 116.753 38.7505 116.769 38.9732 116.8C40.0204 116.998 41.011 117.425 41.8736 118.05C42.2508 118.309 42.5933 118.615 42.8929 118.961C42.981 119.065 43.0577 119.177 43.1216 119.297L43.1575 119.382L43.1595 119.382L43.1632 119.467C43.1402 119.783 43.0289 120.086 42.8419 120.341C42.4166 120.187 41.9793 120.068 41.5345 119.985C40.7528 119.85 39.9607 119.784 39.1673 119.787C38.2627 119.783 37.36 119.869 36.4722 120.043C35.8234 120.167 35.1916 120.368 34.5899 120.641C34.4395 120.504 34.3138 120.341 34.2183 120.162H34.2183ZM40.5272 127.964C40.7857 127.936 41.042 127.904 41.2947 127.867C41.3018 128.032 41.3072 128.197 41.314 128.362C40.9016 128.29 40.4992 128.169 40.1153 128.002C40.2527 127.99 40.3897 127.979 40.5271 127.964H40.5272ZM44.2334 108.542C44.4375 108.648 44.6186 108.792 44.7662 108.968C44.9662 109.232 45.0962 109.542 45.1441 109.869C45.2125 110.294 45.2446 110.723 45.24 111.153C45.0546 110.986 44.8582 110.832 44.6519 110.691C44.2937 110.459 43.9175 110.257 43.5269 110.086C43.5272 109.992 43.5274 109.886 43.5274 109.75C43.5274 109.455 43.5259 109.059 43.5215 108.581C43.6263 108.495 43.7551 108.444 43.8902 108.435C44.0119 108.441 44.1301 108.478 44.2334 108.542H44.2334Z"/><path id="Vector_12" d="M54.8019 134.834L54.7999 134.835L54.7949 134.838L54.8019 134.834Z"/><path id="Vector_13" d="M49.7375 128.54L49.7325 128.535L49.7285 128.533L49.7375 128.54Z"/><path id="Vector_14" d="M53.7921 126.167L53.7901 126.171L53.7891 126.175L53.7921 126.167Z"/><path id="Vector_15" d="M130.575 156.021L130.573 156.022H130.572L130.575 156.021Z"/><path id="Vector_16" d="M135.104 153.434C135.004 153.104 134.777 152.828 134.472 152.666C134.168 152.503 133.812 152.469 133.482 152.569L133.424 152.586C133.137 152.672 131.824 153.056 129.976 153.491L129.972 153.492C124.313 154.843 118.527 155.591 112.71 155.724C111.343 155.754 109.788 155.789 108.086 155.789C101.72 155.888 95.3676 155.175 89.1824 153.666C81.9221 151.93 75.2908 148.202 70.0359 142.9C66.0695 138.724 63.1108 133.695 61.386 128.2L61.3697 128.153C60.8646 126.751 60.4305 125.325 60.0691 123.879C62.1785 127.392 64.7953 130.573 67.8347 133.32C73.357 138.171 80.002 141.568 87.168 143.204C93.2531 144.585 99.482 145.23 105.721 145.127C107.477 145.127 109.121 145.095 110.619 145.065C116.981 144.938 123.311 144.129 129.5 142.652C129.667 142.613 129.824 142.541 129.962 142.441C130.101 142.341 130.219 142.215 130.308 142.069C130.398 141.924 130.458 141.762 130.486 141.593C130.513 141.424 130.506 141.252 130.467 141.085C130.427 140.919 130.355 140.762 130.254 140.624C130.154 140.485 130.027 140.368 129.881 140.279C129.736 140.189 129.574 140.13 129.405 140.103C129.236 140.076 129.063 140.083 128.897 140.123L128.897 140.123C122.888 141.557 116.743 142.342 110.567 142.466C109.071 142.495 107.446 142.527 105.721 142.527C99.6903 142.63 93.669 142.009 87.786 140.678C81.0352 139.144 74.7741 135.949 69.5702 131.383C64.3983 126.619 60.4931 120.643 58.2066 113.994C58.0974 113.695 57.8824 113.446 57.6023 113.295C57.3222 113.144 56.9965 113.101 56.6868 113.174C56.3771 113.248 56.105 113.432 55.922 113.692C55.739 113.952 55.6579 114.271 55.6939 114.587C55.6964 114.608 55.9298 116.648 56.4478 119.467C57.0137 122.724 57.8437 125.928 58.9295 129.05L58.9297 129.05C60.7773 134.9 63.9339 140.252 68.1597 144.7C73.7463 150.348 80.7986 154.324 88.5225 156.18C94.923 157.747 101.497 158.489 108.086 158.388C109.823 158.388 111.4 158.354 112.768 158.323C118.768 158.187 124.737 157.415 130.575 156.022C132.758 155.506 134.22 155.062 134.239 155.056C134.569 154.956 134.845 154.729 135.008 154.424C135.17 154.12 135.205 153.764 135.104 153.434Z"/><path id="Vector_17" d="M146.65 149.042L146.651 149.046L146.652 149.05L146.65 149.042Z"/><path id="Vector_18" d="M127.618 152.453V152.452L127.615 152.447L127.618 152.453Z"/><path id="Vector_19" d="M151.41 122.524C151.24 122.515 151.069 122.541 150.909 122.599C150.748 122.656 150.6 122.745 150.474 122.86C150.347 122.974 150.245 123.113 150.172 123.267C150.099 123.422 150.058 123.589 150.049 123.759C149.976 125.151 149.68 126.521 149.174 127.819C148.697 129.038 148.081 130.197 147.34 131.276C146.751 132.128 146.108 132.942 145.417 133.713C144.579 133.038 143.611 132.542 142.574 132.256C142.46 132.224 142.347 132.201 142.233 132.173C143.575 130.806 144.705 129.247 145.588 127.547C146.209 126.316 146.572 124.97 146.654 123.593C146.67 123.249 146.549 122.912 146.318 122.657C146.087 122.402 145.763 122.249 145.419 122.233C145.075 122.216 144.739 122.336 144.483 122.567C144.228 122.798 144.075 123.121 144.057 123.465L144.057 123.465C143.992 124.492 143.717 125.495 143.249 126.412C142.389 128.032 141.283 129.509 139.97 130.79L139.968 130.792C139.656 131.115 139.338 131.428 139.022 131.734C139 131.756 138.992 131.785 138.971 131.807C138.659 131.819 138.355 131.836 138.075 131.869L138.062 131.87C136.967 131.944 135.94 132.425 135.183 133.22C135.066 133.356 134.962 133.503 134.872 133.659C134.383 133.821 133.919 134.047 133.49 134.331C132.48 135.036 131.592 135.901 130.861 136.891C130.085 137.911 129.408 139.003 128.841 140.152L128.827 140.181L128.767 140.311L128.768 140.311C127.622 143 127.043 145.895 127.067 148.818C127.063 149.489 127.103 150.159 127.189 150.825C127.251 151.386 127.396 151.934 127.619 152.452C127.952 153.213 128.472 153.878 129.13 154.385C129.777 154.881 130.581 155.128 131.394 155.079C132.208 155.03 132.977 154.689 133.56 154.119C133.575 154.142 133.591 154.165 133.608 154.189L133.606 154.19C134.003 154.826 134.539 155.363 135.174 155.762C135.741 156.109 136.393 156.295 137.059 156.298C138.021 156.28 138.942 155.905 139.642 155.244C140.343 154.583 140.771 153.685 140.844 152.726C141.061 152.93 141.296 153.115 141.545 153.278C142.138 153.667 142.829 153.877 143.538 153.883C143.894 153.882 144.249 153.829 144.59 153.725L144.593 153.724C144.974 153.611 145.328 153.421 145.632 153.166C146.055 152.8 146.367 152.324 146.534 151.79C146.685 151.304 146.758 150.798 146.75 150.289C146.747 149.873 146.714 149.457 146.652 149.046C146.382 147.498 145.961 145.982 145.394 144.517C146.299 143.218 146.786 141.675 146.79 140.092C146.791 139.651 146.752 139.211 146.674 138.776C147.029 138.275 147.222 137.677 147.226 137.062C147.226 136.82 147.196 136.578 147.136 136.343L147.101 136.225L147.09 136.195L147.087 136.196C147.056 136.089 147.018 135.987 146.98 135.884C147.891 134.896 148.73 133.843 149.491 132.735C150.344 131.493 151.052 130.156 151.601 128.753C152.207 127.196 152.559 125.553 152.646 123.885C152.663 123.54 152.542 123.204 152.31 122.948C152.078 122.693 151.755 122.54 151.41 122.524ZM144.53 137.31L144.443 137.413L144.428 137.427L144.431 137.43C144.227 137.598 144.079 137.825 144.007 138.079C143.935 138.333 143.943 138.603 144.029 138.853L144.027 138.854L144.032 138.871C144.142 139.268 144.195 139.68 144.191 140.092C144.186 141.333 143.74 142.532 142.932 143.473C142.788 143.648 142.692 143.856 142.654 144.079C142.616 144.302 142.636 144.53 142.713 144.742C143.316 146.251 143.773 147.814 144.078 149.41L144.079 149.419C144.123 149.707 144.147 149.997 144.15 150.289C144.166 150.562 144.121 150.836 144.018 151.091L143.952 151.181L143.84 151.235C143.742 151.266 143.64 151.282 143.538 151.283C143.324 151.277 143.116 151.207 142.941 151.084C142.647 150.883 142.387 150.635 142.173 150.351L142.171 150.349C141.578 149.547 141.102 148.664 140.757 147.729C140.53 147.152 140.335 146.564 140.172 145.966L140.171 145.96L140.17 145.956L140.164 145.935C140.16 145.92 140.148 145.909 140.144 145.893C140.074 145.599 139.901 145.339 139.658 145.159C139.414 144.98 139.115 144.892 138.813 144.912C138.51 144.932 138.225 145.058 138.007 145.268C137.789 145.479 137.653 145.759 137.622 146.06C137.619 146.079 137.624 146.098 137.622 146.116C137.606 146.227 137.606 146.339 137.62 146.449L137.619 146.449L137.62 146.454V146.46L137.62 146.46L137.624 146.484C137.663 146.742 137.791 147.562 137.926 148.584C138.065 149.641 138.206 150.903 138.247 151.856L138.249 151.893C138.265 152.105 138.265 152.317 138.265 152.534C138.245 152.833 138.112 153.114 137.893 153.319C137.675 153.549 137.375 153.685 137.059 153.697C136.866 153.695 136.679 153.639 136.517 153.535C136.218 153.339 135.968 153.077 135.784 152.771L135.712 152.67L135.712 152.67C135.704 152.659 135.671 152.604 135.617 152.511C134.971 151.164 134.67 149.676 134.742 148.184C134.746 147.309 134.807 146.436 134.925 145.57C134.97 145.228 134.877 144.882 134.667 144.609C134.457 144.335 134.147 144.156 133.805 144.111C133.464 144.066 133.118 144.159 132.844 144.369C132.571 144.579 132.392 144.889 132.347 145.231C132.215 146.209 132.146 147.196 132.143 148.184C132.146 148.957 132.206 149.728 132.322 150.492C132.323 150.527 132.308 150.558 132.312 150.592L132.311 150.592C132.32 150.686 132.324 150.775 132.324 150.862C132.343 151.319 132.194 151.766 131.907 152.122C131.822 152.229 131.714 152.317 131.592 152.38C131.47 152.443 131.336 152.478 131.199 152.485C131.007 152.48 130.822 152.412 130.672 152.292C130.365 152.042 130.126 151.719 129.975 151.353L129.972 151.347C129.865 151.065 129.795 150.771 129.765 150.471C129.695 149.923 129.663 149.37 129.667 148.818C129.647 146.28 130.14 143.765 131.117 141.423L131.124 141.409L131.175 141.299C131.814 139.989 132.626 138.77 133.59 137.677C133.984 137.233 134.43 136.839 134.92 136.503C135.24 136.273 135.607 136.118 135.994 136.049C136.266 136.011 136.519 135.888 136.716 135.698C136.913 135.507 137.044 135.259 137.09 134.988L137.102 134.992C137.104 134.993 137.112 134.935 137.252 134.824C137.591 134.603 137.981 134.474 138.384 134.45C138.591 134.427 138.854 134.409 139.139 134.4L139.272 134.399C140.144 134.399 141.012 134.519 141.852 134.754C142.629 134.95 143.347 135.329 143.948 135.86C144.266 136.159 144.494 136.541 144.608 136.962L144.617 136.989L144.626 137.062C144.62 137.153 144.587 137.239 144.53 137.31Z"/><path id="Vector_20" d="M193.249 64.7019C192.664 63.3117 191.594 62.1816 190.238 61.5224C188.812 60.8616 187.252 60.5406 185.68 60.5848C182.26 60.7215 178.895 61.4952 175.758 62.8662C172.359 64.2674 169.115 66.0194 166.08 68.0937C165.178 64.7142 163.904 61.4453 162.281 58.3472C162.276 58.337 162.271 58.328 162.266 58.3178C162.253 58.2937 162.243 58.2686 162.23 58.2445L162.22 58.2497C162.089 57.9901 161.874 57.7825 161.61 57.6606C161.346 57.5388 161.048 57.5098 160.766 57.5784C160.483 57.647 160.232 57.8092 160.053 58.0385C159.874 58.2679 159.778 58.551 159.781 58.8419H159.781V58.8516C159.78 59.0633 159.832 59.2718 159.931 59.4587C163.2 65.6723 164.977 72.5622 165.121 79.5821L165.122 79.6169C165.139 79.964 165.14 80.321 165.14 80.712C165.138 83.5357 164.851 86.3519 164.282 89.1177C161.942 87.9508 159.457 87.102 156.893 86.5937C156.725 86.5649 156.552 86.5695 156.386 86.6073C156.219 86.645 156.062 86.7152 155.923 86.8138C155.783 86.9124 155.665 87.0375 155.574 87.1819C155.483 87.3264 155.421 87.4873 155.392 87.6556C155.363 87.8239 155.368 87.9962 155.406 88.1627C155.443 88.3291 155.514 88.4866 155.612 88.6259C155.711 88.7653 155.836 88.8839 155.98 88.9749C156.125 89.066 156.286 89.1276 156.454 89.1565L156.488 89.1626C159.307 89.7365 162.015 90.7621 164.508 92.1998C167.237 93.8184 169.862 96.1283 173.084 98.0874C176.273 100.102 179.914 101.291 183.678 101.546L184.334 108.368C178.518 107.608 173.437 105.063 168.714 102.261C165.893 100.589 163.212 98.8353 160.578 97.356C158.128 95.875 155.46 94.79 152.672 94.141C152.505 94.1084 152.332 94.109 152.165 94.143C151.998 94.1769 151.839 94.2435 151.697 94.3389C151.555 94.4342 151.434 94.5566 151.34 94.6989C151.245 94.8412 151.18 95.0007 151.147 95.1683C151.115 95.3358 151.115 95.5082 151.149 95.6755C151.183 95.8428 151.25 96.0018 151.345 96.1434C151.441 96.285 151.563 96.4064 151.705 96.5007C151.848 96.595 152.007 96.6604 152.175 96.693L152.174 96.6929C154.69 97.2913 157.096 98.28 159.305 99.6232C159.63 99.8053 159.961 99.9996 160.291 100.192C155.821 108.29 149.027 114.862 140.785 119.061C131.943 123.746 120.937 126.491 108.21 126.491C95.7696 126.492 85.1504 124.405 76.6609 120.619C68.1807 116.835 61.8284 111.376 57.7989 104.569C57.7952 104.563 57.794 104.555 57.7903 104.548C54.915 99.4963 53.2151 93.8612 52.8169 88.0618C52.7908 87.7197 52.6305 87.4017 52.3709 87.1773C52.1113 86.9528 51.7735 86.8402 51.4311 86.8638C51.0888 86.8875 50.7696 87.0455 50.5434 87.3035C50.3171 87.5615 50.202 87.8985 50.2232 88.241C50.6478 94.4255 52.4598 100.435 55.5247 105.823C55.5315 105.836 55.5337 105.85 55.5411 105.862C59.8719 113.201 66.7019 119.028 75.6021 122.993C84.5051 126.962 95.4812 129.09 108.21 129.091C121.309 129.091 132.742 126.265 142.002 121.359C147.44 118.52 152.328 114.735 156.437 110.182C158.244 111.445 159.921 112.884 161.443 114.478C164.36 117.421 167.356 120.941 171.026 124.007C174.907 127.41 179.623 129.719 184.691 130.696C184.86 130.728 185.033 130.726 185.201 130.691C185.369 130.656 185.528 130.588 185.67 130.491C185.811 130.393 185.932 130.269 186.025 130.125C186.118 129.981 186.182 129.82 186.213 129.651C186.243 129.482 186.24 129.309 186.204 129.141C186.167 128.974 186.098 128.815 185.999 128.674C185.901 128.534 185.776 128.414 185.631 128.322C185.486 128.23 185.325 128.167 185.156 128.138C184.252 127.973 183.358 127.756 182.478 127.49C182.502 127.398 182.528 127.298 182.558 127.184C182.685 126.694 182.868 126.005 183.075 125.241L185.698 126.072C186.026 126.176 186.383 126.145 186.688 125.987C186.994 125.828 187.225 125.554 187.329 125.225C187.433 124.897 187.402 124.54 187.244 124.235C187.085 123.929 186.811 123.698 186.483 123.594L183.776 122.736C183.979 122.036 184.182 121.366 184.373 120.773C185.145 120.988 185.928 121.159 186.719 121.284C187.06 121.338 187.408 121.255 187.687 121.052C187.966 120.849 188.153 120.544 188.207 120.204C188.261 119.863 188.178 119.515 187.975 119.236C187.773 118.957 187.468 118.77 187.127 118.716C184.543 118.312 182.079 117.343 179.911 115.878C176.798 113.813 174.227 110.874 171.534 107.808C170.973 107.172 170.405 106.531 169.826 105.892C170.501 106.265 171.183 106.632 171.881 106.986C176.786 109.646 182.257 111.093 187.836 111.204C188.525 111.204 189.223 111.179 189.931 111.13C190.101 111.118 190.268 111.073 190.421 110.996C190.573 110.92 190.71 110.815 190.822 110.686C190.934 110.557 191.019 110.407 191.073 110.245C191.127 110.083 191.149 109.913 191.137 109.742C191.125 109.572 191.08 109.406 191.004 109.253C190.927 109.1 190.822 108.964 190.693 108.852C190.564 108.74 190.415 108.654 190.253 108.6C190.091 108.546 189.92 108.524 189.75 108.536C189.101 108.582 188.463 108.604 187.836 108.604C187.543 108.604 187.255 108.591 186.966 108.582L186.767 106.509C188.21 106.419 189.594 106.204 189.621 106.202C189.959 106.147 190.263 105.961 190.465 105.684C190.667 105.406 190.751 105.06 190.699 104.721C190.647 104.382 190.463 104.077 190.187 103.873C189.911 103.669 189.566 103.583 189.226 103.632L189.139 103.645C188.82 103.693 187.62 103.855 186.518 103.921L186.291 101.563C187.32 101.526 188.346 101.433 189.364 101.286C189.705 101.235 190.012 101.051 190.218 100.774C190.423 100.497 190.51 100.15 190.459 99.8091C190.409 99.4681 190.225 99.1612 189.948 98.9558C189.671 98.7505 189.323 98.6636 188.982 98.7143L188.982 98.7141C187.74 98.903 186.485 98.9999 185.229 99.0039C181.403 99.0165 177.654 97.9263 174.431 95.8639C173.884 95.5334 173.358 95.1726 172.831 94.8142C172.756 94.4314 172.577 93.5362 172.338 92.5268C171.726 89.8823 170.948 87.2791 170.008 84.7327C175.367 84.116 180.567 82.5154 185.345 80.0114C187.686 78.7657 189.749 77.0558 191.408 74.9861C192.982 72.9863 193.843 70.5182 193.855 67.9733V67.9713L193.855 67.9404V67.9354C193.87 66.828 193.664 65.7287 193.249 64.7019ZM172.303 112.571C174.135 114.633 176.206 116.471 178.472 118.043C179.561 118.769 180.716 119.393 181.92 119.905C181.219 122.071 180.391 125.19 180.023 126.601C178.744 126.058 177.51 125.414 176.333 124.675C172.624 122.151 169.252 119.165 166.298 115.789C163.843 112.978 161.107 110.425 158.132 108.17C159.623 106.298 160.963 104.31 162.137 102.225C165.966 105.058 168.956 108.943 172.303 112.571H172.303ZM166.657 90.4993C167.034 88.822 167.311 87.1239 167.488 85.414C168.358 87.7531 169.085 90.1428 169.666 92.5699C168.685 91.8541 167.686 91.1586 166.657 90.4993L166.657 90.4993ZM189.338 73.4125C187.487 75.8593 184.306 77.9213 180.502 79.4328C176.815 80.8491 172.961 81.7867 169.034 82.2225C168.676 81.3627 168.311 80.5064 167.914 79.6668C167.86 79.5684 167.792 79.4778 167.714 79.3974C167.639 76.5116 167.307 73.6382 166.724 70.811C169.841 68.5955 173.199 66.7389 176.733 65.2764C179.561 64.0336 182.595 63.3244 185.68 63.1848C187.153 63.083 188.617 63.4876 189.828 64.3315C190.28 64.7009 190.632 65.1765 190.855 65.7156C191.135 66.4248 191.271 67.1826 191.255 67.9449L191.255 67.9733C191.245 69.9502 190.569 71.866 189.338 73.4126L189.338 73.4125Z"/><path id="Vector_21" d="M172.338 92.5239V92.5269L172.34 92.5339L172.338 92.5239Z"/><path id="Vector_22" d="M163.09 67.2715C163.091 64.3797 162.848 61.493 162.363 58.642L162.361 58.6214C161.415 53.0874 159.515 47.7596 156.748 42.8747C156.736 42.7444 156.704 42.6167 156.654 42.4961C156.028 41.2496 155.275 40.0712 154.406 38.9799C152.726 36.7956 150.734 34.8701 148.494 33.2653C146.163 31.4985 143.348 30.4857 140.426 30.3623C138.879 30.3605 137.354 30.7226 135.973 31.4192C133.684 32.6215 131.645 34.251 129.968 36.2198C127.502 38.977 125.536 41.9512 123.023 44.1517C121.758 45.2916 120.301 46.1992 118.72 46.8329C116.411 47.6754 113.95 48.0191 111.498 47.8412C109.046 47.6633 106.66 46.9679 104.497 45.8008C100.986 43.8852 98.0375 40.8146 94.7526 37.7989C91.4701 34.7961 87.8028 31.8434 82.788 30.4687C80.6763 29.8848 78.4957 29.5869 76.3048 29.583C71.9382 29.5911 67.658 30.8007 63.933 33.0792C60.2875 35.306 57.2384 38.3861 55.0484 42.0539C55.0078 42.1374 54.9766 42.2252 54.9554 42.3156C52.8122 45.9703 51.1614 49.8922 50.0458 53.9794C49.9551 54.3121 50.0003 54.6672 50.1714 54.9666C50.3425 55.2659 50.6256 55.4851 50.9582 55.5757C51.2909 55.6664 51.646 55.6212 51.9454 55.4501C52.2447 55.279 52.4639 54.996 52.5546 54.6633L52.5543 54.6631C53.6473 50.6385 55.2887 46.7834 57.4322 43.206C57.4489 43.1658 57.4634 43.1248 57.4759 43.0831C59.4304 39.9128 62.1039 37.2475 65.2801 35.3028C68.5989 33.2704 72.4132 32.1911 76.3048 32.1831C81.1913 32.1709 85.9318 33.8486 89.7228 36.9318C93.1095 39.5246 96.0494 42.8378 99.5316 45.5881C101.288 47.0144 103.237 48.1872 105.319 49.0722C107.644 50.0225 110.134 50.5031 112.646 50.4865C115.748 50.5611 118.817 49.8312 121.553 48.3678C125.113 46.3968 127.422 43.4108 129.656 40.6422C131.892 37.8541 134.043 35.2865 137.136 33.7448C138.156 33.2283 139.283 32.9601 140.426 32.9624C141.969 33 143.482 33.3922 144.849 34.1086C147.102 35.2964 149.125 36.8755 150.825 38.772C151.985 40.0106 153.011 41.369 153.884 42.8243C153.896 43.0204 153.953 43.2111 154.051 43.3815L154.05 43.3814C156.909 48.2128 158.858 53.5276 159.799 59.0621L159.799 59.0697L159.799 59.0696C160.26 61.7793 160.491 64.523 160.49 67.2715C160.49 68.6344 160.431 69.9832 160.306 71.3089L160.305 71.3135C159.775 77.0986 158.069 82.7145 155.291 87.8164C152.512 92.9183 148.721 97.3987 144.149 100.983C134.753 108.519 121.629 113.17 105.69 113.172C84.5108 113.166 68.3055 104.968 59.1939 92.6771C59.0923 92.5399 58.9646 92.4242 58.8182 92.3364C58.6718 92.2486 58.5095 92.1905 58.3407 92.1655C58.1718 92.1404 57.9997 92.1488 57.8341 92.1903C57.6685 92.2317 57.5127 92.3054 57.3756 92.407C57.2385 92.5087 57.1227 92.6364 57.0349 92.7828C56.9471 92.9292 56.8891 93.0914 56.864 93.2603C56.8389 93.4291 56.8473 93.6013 56.8888 93.7669C56.9302 93.9325 57.0039 94.0883 57.1056 94.2254C66.775 107.274 83.849 115.777 105.69 115.772C122.131 115.773 135.861 110.964 145.775 103.011C150.62 99.2077 154.637 94.4558 157.58 89.0461C160.524 83.6364 162.332 77.6827 162.894 71.5497L162.894 71.5544C163.028 70.1398 163.09 68.7093 163.09 67.2715Z"/><path id="Vector_23" d="M78.1428 70.2703C77.9789 69.3346 77.581 68.4555 76.9861 67.7148C76.0027 66.5701 74.7031 65.7414 73.2505 65.3326C72.3881 65.0647 71.503 64.8762 70.6062 64.7696C70.6978 64.7268 70.7974 64.6862 70.884 64.6419C71.304 64.4382 71.6853 64.163 72.0107 63.8284C72.1881 63.6389 72.3325 63.4211 72.438 63.184C72.5527 62.9232 72.6115 62.6413 72.6108 62.3563C72.6071 62.0294 72.5318 61.7073 72.3902 61.4126C72.1958 61.0225 71.9346 60.6695 71.6184 60.3696C71.2744 60.0363 70.9058 59.7292 70.5159 59.4509C68.4927 57.9191 66.0227 57.0938 63.4851 57.1019C61.9779 57.1275 60.4835 57.3827 59.0532 57.8589C59.1811 57.5182 59.2498 57.1581 59.2563 56.7943C59.2576 56.323 59.1291 55.8605 58.885 55.4574C58.5011 54.8704 57.9514 54.4107 57.3057 54.1367C56.5587 53.808 55.7729 53.5756 54.9673 53.445C53.5941 53.1727 52.1993 53.0244 50.7996 53.0019C49.6447 52.9792 48.4949 53.1593 47.4023 53.534C46.1461 53.9996 45.0439 54.8051 44.2188 55.8606C44.0624 55.4276 43.833 55.0247 43.5403 54.6694C43.0211 54.0713 42.3446 53.6308 41.5876 53.3979C40.7414 53.1417 39.8598 53.0214 38.9758 53.0413C37.7895 53.0588 36.6065 53.1707 35.438 53.3762C33.8773 53.5548 32.3642 54.0252 30.9773 54.7628C30.4346 55.0813 29.9747 55.5233 29.635 56.0529C29.3138 56.5787 29.1464 57.1839 29.1518 57.8C29.1531 57.9143 29.1767 58.0238 29.1865 58.1361C27.7894 57.3878 26.2311 56.9909 24.6462 56.9798C22.0542 57.101 19.5337 57.8691 17.3147 59.2142C16.5687 59.593 15.8802 60.0757 15.2698 60.6479C15.0081 60.9038 14.7878 61.1987 14.6167 61.5222C14.4092 61.9107 14.3145 62.3495 14.3435 62.7891C14.3724 63.2286 14.5238 63.6512 14.7805 64.0091C14.8973 64.1746 15.0275 64.3301 15.1699 64.4741C13.2577 64.5391 11.3742 64.9583 9.615 65.7106C7.76764 66.5259 6.19783 67.8618 5.09742 69.5549C4.85315 69.9214 4.64326 70.3096 4.47042 70.7148C4.30176 71.1027 4.21053 71.5198 4.20187 71.9428C4.1972 72.5001 4.40488 73.0383 4.78272 73.448C5.04347 73.7212 5.35917 73.936 5.70899 74.0783C6.21416 74.2768 6.7452 74.4019 7.28589 74.4498C7.40039 74.4626 7.53052 74.4672 7.65064 74.477C6.24196 75.0716 4.95455 75.92 3.85254 76.9799C2.79669 77.9872 2.18379 79.3723 2.14844 80.8311C2.14889 81.2326 2.19683 81.6326 2.29126 82.0228C2.39103 82.4638 2.55951 82.8864 2.79054 83.275C3.14002 83.8548 3.65826 84.314 4.27589 84.5912C4.88576 84.8506 5.544 84.9767 6.20655 84.9611C7.31202 84.9253 8.40843 84.7488 9.46925 84.4357C9.73072 84.3655 10.0166 84.2761 10.2935 84.1939C9.85747 84.6071 9.45249 85.0519 9.0818 85.5246C8.26903 86.4879 7.79686 87.6925 7.73854 88.9515C7.73917 89.7022 7.95138 90.4376 8.35084 91.0733C8.78092 91.7378 9.34547 92.3048 10.0081 92.7377C11.054 93.4736 12.3011 93.8697 13.5799 93.8722C14.9057 93.8344 16.2059 93.4975 17.3833 92.8868C18.6668 92.2344 19.8873 91.4647 21.0291 90.5877C20.5956 91.5628 20.3577 92.6136 20.3289 93.6803C20.3229 94.3058 20.4393 94.9263 20.6717 95.507C21.0469 96.3996 21.6967 97.1494 22.5269 97.6476C23.4747 98.2033 24.5238 98.5646 25.6128 98.7103C26.1763 98.8027 26.7462 98.8499 27.3172 98.8516C28.929 98.8712 30.5102 98.4112 31.8599 97.5299C33.6698 96.2268 35.1004 94.4656 36.0049 92.427C36.193 93.7238 36.6486 94.9674 37.3428 96.0788C37.9299 96.9791 38.7464 97.7066 39.7083 98.1863C40.7582 98.6835 41.9094 98.9295 43.0708 98.9048C43.6399 98.9026 44.208 98.8599 44.771 98.7771C46.7185 98.605 48.5499 97.7769 49.9656 96.4285C50.5513 95.8123 50.9987 95.0783 51.2779 94.2753C51.5523 93.4681 51.6876 92.6202 51.6782 91.7677C51.6701 91.2022 51.6188 90.6382 51.5247 90.0805C51.6192 90.1787 51.7134 90.2833 51.8081 90.3787C52.7964 91.4109 53.9286 92.2949 55.1697 93.0033C56.3325 93.6601 57.6427 94.0116 58.9781 94.0252C60.3569 94.0028 61.7101 93.6494 62.9239 92.9948C63.9587 92.5018 64.8734 91.7887 65.604 90.9054C66.2429 90.1082 66.5933 89.1183 66.5982 88.0967C66.5582 86.9115 66.1688 85.7645 65.4788 84.8C65.2908 84.5178 65.0615 84.241 64.8352 83.9639C66.5836 84.6728 68.4387 85.0831 70.323 85.1775C71.2678 85.1953 72.2039 84.9943 73.0581 84.5901C73.9219 84.155 74.6611 83.5078 75.2063 82.709C75.8487 81.8595 76.2097 80.8306 76.2388 79.766C76.2365 79.0881 76.0712 78.4207 75.7566 77.8202C75.1351 76.7284 74.2307 75.8243 73.1387 75.2032C72.8804 75.0432 72.6043 74.89 72.3193 74.7402C73.6292 74.7882 74.9368 74.5958 76.1772 74.1724C76.7795 73.9378 77.3017 73.5351 77.6816 73.0122C78.0506 72.4655 78.241 71.8179 78.2266 71.1585C78.225 70.8605 78.1969 70.5633 78.1428 70.2703ZM75.5488 71.5254C75.4924 71.5975 75.4201 71.6556 75.3376 71.6952C74.9633 71.8731 74.5611 71.9848 74.1487 72.0254C73.3974 72.1188 72.6407 72.1604 71.8838 72.1499C68.6523 72.1526 63.5537 71.6589 56.7021 71.4048C56.3659 71.3836 56.0473 71.3543 55.7036 71.3365C55.5331 71.3276 55.3625 71.3525 55.2016 71.4096C55.0407 71.4667 54.8926 71.555 54.7658 71.6693C54.6391 71.7837 54.536 71.9219 54.4627 72.0761C54.3894 72.2303 54.3471 72.3974 54.3383 72.5679C54.3546 72.9294 54.5037 73.2723 54.757 73.5307C55.0104 73.7891 55.3502 73.9449 55.7113 73.9683C56.0653 73.9799 56.3932 73.995 56.7382 74.008C61.0179 74.1731 65.2543 74.9288 69.3271 76.2537C70.5677 76.6646 71.7222 77.3003 72.7328 78.1289C73.0207 78.3785 73.2619 78.6771 73.4452 79.011C73.5704 79.2431 73.6369 79.5023 73.6388 79.766C73.6076 80.2933 73.4131 80.7978 73.0822 81.2095C72.7883 81.6531 72.3852 82.0136 71.9118 82.2565C71.4142 82.4851 70.8703 82.595 70.3229 82.5775C68.0477 82.3619 65.8276 81.7504 63.7629 80.7706C61.0595 79.6809 57.7719 78.1766 53.8559 76.5249C53.547 76.3818 53.2526 76.2361 52.9347 76.0946C52.6197 75.9544 52.262 75.9451 51.9401 76.0687C51.6183 76.1923 51.3587 76.4387 51.2185 76.7537C51.0784 77.0686 51.069 77.4264 51.1926 77.7482C51.3162 78.0701 51.5626 78.3296 51.8776 78.4698C51.9418 78.4983 52.0016 78.5276 52.0653 78.5561C52.1092 78.5904 52.1554 78.6216 52.2035 78.6496C52.4777 78.7643 52.7409 78.8765 53.0092 78.9897C55.8533 80.2549 58.5318 81.8633 60.9851 83.7793C61.8738 84.4828 62.6571 85.3101 63.311 86.2359C63.7161 86.7762 63.9549 87.4228 63.9983 88.0967C63.9949 88.5411 63.8365 88.9704 63.5505 89.3105C63.0516 89.8921 62.4334 90.3596 61.7378 90.681C60.8911 91.1474 59.9444 91.4026 58.978 91.4252C58.076 91.4119 57.1922 91.1687 56.4104 90.7184C54.7863 89.7198 53.354 88.4385 52.1814 86.9352C50.7642 85.2673 49.2612 83.1885 47.6201 80.8699C47.5234 80.7151 47.4351 80.5615 47.3359 80.4061C47.2441 80.2622 47.1248 80.1378 46.9849 80.04C46.845 79.9422 46.6871 79.8729 46.5205 79.8361C46.3538 79.7993 46.1814 79.7957 46.0133 79.8255C45.8452 79.8553 45.6847 79.9179 45.5408 80.0098C45.2523 80.2368 45.0587 80.5632 44.9977 80.9252C44.9367 81.2872 45.0127 81.659 45.2109 81.968C45.2935 82.085 45.3735 82.1973 45.4556 82.313C46.4617 83.8978 47.3292 85.5664 48.0483 87.3003C48.6644 88.7132 49.0136 90.2278 49.0783 91.7677C49.0874 92.3265 49.0017 92.8827 48.8249 93.4129C48.5804 94.1201 48.1102 94.7275 47.4868 95.1414C46.5537 95.7273 45.4983 96.0906 44.4023 96.2034C43.9614 96.2686 43.5165 96.3025 43.0708 96.3048C42.3106 96.3289 41.5552 96.1758 40.8645 95.8574C39.9925 95.3982 39.3312 94.6204 39.0183 93.6858C38.5335 92.2822 38.3109 90.8013 38.3615 89.3172C38.379 87.8204 38.4974 86.3265 38.716 84.8456C38.8901 84.2129 39.0627 83.5767 39.2312 82.9169C39.2738 82.5078 39.1807 82.0961 38.9664 81.745C38.752 81.394 38.4283 81.1231 38.0449 80.9741C37.877 80.9435 37.7046 80.9462 37.5378 80.9821C37.3709 81.018 37.2127 81.0865 37.0723 81.1835C36.9318 81.2806 36.8119 81.4044 36.7193 81.5478C36.6267 81.6912 36.5633 81.8515 36.5327 82.0194C36.3874 82.8157 36.2668 83.5874 36.1594 84.3463C35.4591 87.2521 34.3659 90.0488 32.9101 92.6592C32.2907 93.7264 31.4466 94.6461 30.4362 95.3545C29.5102 95.9599 28.4233 96.2725 27.3171 96.2516C26.8844 96.2499 26.4525 96.2136 26.0256 96.1432C25.112 96.0611 24.2416 95.7165 23.5195 95.1509C23.3276 94.9768 23.1769 94.7622 23.0781 94.5227C22.9736 94.2544 22.9228 93.9682 22.9287 93.6803C22.9592 92.9561 23.1294 92.2445 23.4299 91.5849C24.1491 90.0036 25.0788 88.5267 26.1936 87.1945C27.5694 85.5043 29.0567 83.9081 30.6455 82.4164C30.7492 82.3253 30.8452 82.2398 30.9499 82.1481C30.9809 82.1207 30.9943 82.0829 31.0222 82.0534C31.0403 82.0364 31.0566 82.0198 31.0747 82.0027C31.1995 81.8861 31.3001 81.7461 31.3708 81.5906C31.4415 81.4351 31.4808 81.2672 31.4865 81.0964C31.4923 80.9257 31.4643 80.7556 31.4043 80.5957C31.3442 80.4358 31.2532 80.2893 31.1365 80.1646C31.0198 80.0399 30.8796 79.9394 30.724 79.8689C30.5685 79.7984 30.4005 79.7592 30.2298 79.7537C30.0591 79.7481 29.8889 79.7763 29.7291 79.8365C29.5693 79.8967 29.4229 79.9879 29.2983 80.1047L29.2981 80.1046C29.1411 80.2517 28.9912 80.3977 28.8376 80.5442C25.2607 83.6904 22.2758 86.4041 19.7646 88.3002C18.67 89.1597 17.4946 89.9112 16.2551 90.5441C15.4289 90.9837 14.5148 91.2325 13.5798 91.2723C12.8238 91.2713 12.0872 91.0328 11.4741 90.5905C11.1118 90.3614 10.8009 90.0596 10.5613 89.7041C10.4156 89.4801 10.3382 89.2186 10.3384 88.9515C10.4032 88.2649 10.6867 87.6173 11.1472 87.1039C12.5493 85.4883 14.2284 84.1356 16.1054 83.1095C18.9383 81.4639 21.9026 80.0557 24.968 78.8995C25.0456 78.8719 25.1162 78.8455 25.1943 78.8179C25.3552 78.7609 25.5033 78.6727 25.6301 78.5584C25.7569 78.4441 25.8599 78.3059 25.9333 78.1518C26.0067 77.9977 26.0491 77.8306 26.0579 77.6602C26.0667 77.4897 26.0419 77.3191 25.9848 77.1583C25.9278 76.9974 25.8396 76.8493 25.7253 76.7225C25.611 76.5957 25.4729 76.4927 25.3187 76.4193C25.1646 76.3458 24.9976 76.3035 24.8271 76.2947C24.6566 76.2858 24.4861 76.3107 24.3252 76.3677C24.2571 76.3919 24.1931 76.4153 24.1252 76.4395L24.1142 76.4413L24.1139 76.4412L24.0605 76.4627C19.4804 78.0933 15.7101 79.5789 12.7294 80.6485C11.2109 81.1938 9.89617 81.6305 8.79754 81.924C7.95527 82.1764 7.08493 82.3232 6.20648 82.3611C5.86049 82.3924 5.51323 82.317 5.21136 82.1451C5.12998 82.0859 5.06186 82.0103 5.01136 81.9233C4.92197 81.7665 4.85748 81.5968 4.8202 81.4202L4.81947 81.4173C4.77272 81.2254 4.74879 81.0286 4.74818 80.8311C4.7656 80.4436 4.86037 80.0635 5.02691 79.7131C5.19345 79.3628 5.42839 79.0493 5.71791 78.7911C7.47744 77.2771 9.57996 76.2154 11.8429 75.6983C15.5721 74.6946 19.3987 74.0956 23.2562 73.9117C23.2652 73.9112 23.2723 73.9057 23.2811 73.905C23.4701 73.8988 23.6456 73.8911 23.8375 73.8854C24.1815 73.8741 24.5069 73.7269 24.7425 73.4761C24.9781 73.2253 25.1046 72.8913 25.0944 72.5473C25.0841 72.2034 24.9378 71.8775 24.6877 71.6412C24.4375 71.4049 24.1039 71.2774 23.7599 71.2867C17.0558 71.4887 12.1459 71.941 9.23182 71.9385C8.43821 71.9722 7.64358 71.9032 6.86769 71.733C6.97653 71.4641 7.11448 71.2078 7.27907 70.9689C8.10833 69.6926 9.29385 68.6876 10.6887 68.0785C12.4848 67.3275 14.4203 66.9677 16.3662 67.0231C18.3906 67.0491 20.4069 67.2833 22.3833 67.7221C23.6492 68.1274 25.022 68.5503 26.4883 69.0085C26.7809 69.102 27.0972 69.0883 27.3805 68.9696C27.6638 68.8509 27.8956 68.6352 28.0341 68.361C28.1726 68.0869 28.2089 67.7723 28.1364 67.4738C28.0639 67.1753 27.8873 66.9125 27.6385 66.7325C27.4774 66.4828 27.2342 66.2972 26.951 66.2076L26.9507 66.2074C25.5967 65.8038 24.305 65.4756 23.064 65.2101C21.6026 64.741 20.3243 64.3063 19.3094 63.8939C18.5862 63.6264 17.8967 63.2754 17.2549 62.848C17.161 62.7812 17.0742 62.705 16.9956 62.6206C17.1032 62.4832 17.2285 62.3605 17.3682 62.2559C17.7416 61.9701 18.1389 61.7168 18.5557 61.4989C20.3955 60.3643 22.4884 59.7048 24.6462 59.5797C26.0215 59.5875 27.3666 59.9831 28.5271 60.721C29.8321 61.5612 31.0089 62.5856 32.021 63.7623C32.2422 64.0671 32.4719 64.3786 32.7122 64.7006C32.9184 64.9769 33.226 65.1599 33.5672 65.2094C33.9083 65.2589 34.2552 65.1708 34.5315 64.9646C34.8102 64.7085 34.986 64.3594 35.0257 63.983C35.0654 63.6065 34.9664 63.2285 34.7473 62.9198L34.7471 62.9197C34.5164 62.6441 34.2881 62.3999 34.0588 62.1434C33.492 61.3781 32.9659 60.5835 32.4827 59.7628C32.088 59.1751 31.8375 58.5026 31.7517 57.7999C31.7452 57.6652 31.7791 57.5315 31.8491 57.4161C32.1152 57.0812 32.4748 56.8328 32.8823 56.7026C33.8412 56.3359 34.8391 56.0807 35.8564 55.9421C36.8866 55.7598 37.9297 55.6592 38.9758 55.6412C39.5329 55.6283 40.0892 55.6896 40.6301 55.8236C40.8675 55.8837 41.0932 55.9829 41.2981 56.1171C41.519 56.267 41.6874 56.4822 41.7798 56.7327C41.9267 57.1513 41.9936 57.5937 41.9771 58.037C41.913 59.4275 41.692 60.8063 41.3184 62.1472C41.2491 62.507 41.3027 62.8796 41.4706 63.2053C41.6385 63.531 41.9109 63.7909 42.2442 63.9432C42.5772 64.0327 42.9322 63.9863 43.231 63.8142C43.5298 63.642 43.748 63.3583 43.8377 63.0253L43.8375 63.0252L43.8746 62.8869C44.6627 60.0058 45.5435 58.1441 46.5645 57.1029C47.0443 56.5982 47.6356 56.2127 48.2911 55.9774C49.0989 55.7069 49.9479 55.5798 50.7996 55.6018C52.0417 55.6248 53.2792 55.7588 54.4974 56.0022C55.1914 56.0914 55.8629 56.3087 56.4776 56.6431C56.5465 56.6828 56.6071 56.7353 56.656 56.7979C56.6072 57.0516 56.4966 57.2893 56.334 57.4901C55.6642 58.3719 54.8891 59.1686 54.0259 59.8623C53.5989 60.2295 53.1214 60.618 52.6209 61.0169C51.7029 61.6034 50.7674 62.2346 49.7926 62.9583C49.6554 63.06 49.5397 63.1878 49.452 63.3343C49.3643 63.4808 49.3063 63.6431 49.2814 63.8121C49.2564 63.981 49.265 64.1531 49.3067 64.3187C49.3483 64.4843 49.4222 64.6401 49.524 64.7771C49.8078 65.0468 50.1713 65.2171 50.5601 65.2626C50.9489 65.3081 51.3419 65.2263 51.6803 65.0295C52.547 64.3741 53.3646 63.7454 54.1349 63.1341C55.4104 62.3072 56.7489 61.5818 58.138 60.9644C59.8201 60.1868 61.642 59.7573 63.4942 59.7017C65.4773 59.6937 67.4071 60.3437 68.9813 61.5498C69.2819 61.7618 69.5644 61.9983 69.826 62.2568L69.8045 62.2705C69.2265 62.5643 68.6224 62.8037 68.0001 62.9858C65.64 63.7464 61.5982 64.6837 56.1346 66.2381C55.6681 66.3525 55.2013 66.4669 54.7211 66.5935C54.3883 66.682 54.1042 66.899 53.9312 67.1967C53.7582 67.4945 53.7104 67.8487 53.7982 68.1817C53.8861 68.5147 54.1025 68.7992 54.3999 68.9728C54.6973 69.1464 55.0515 69.1949 55.3846 69.1077L55.3844 69.1075L55.4466 69.0918C55.5233 69.0926 55.5999 69.0863 55.6754 69.0728C56.0604 68.9607 56.4249 68.8582 56.7962 68.7522C60.3581 67.811 64.0176 67.2889 67.7005 67.1963C69.7008 67.1008 71.6968 67.4594 73.5387 68.2454C74.0852 68.5053 74.5695 68.8795 74.9588 69.3427C75.2823 69.7443 75.4974 70.222 75.5838 70.7304C75.6107 70.8715 75.6251 71.0148 75.6268 71.1585C75.6404 71.286 75.613 71.4145 75.5488 71.5254H75.5488Z"/><path id="Vector_24" d="M56.7605 70.7656C56.6354 69.3853 56.1132 68.0707 55.2571 66.9807C53.8237 65.2462 51.9355 63.9451 49.8042 63.2234C47.286 62.3218 44.6275 61.8752 41.9529 61.9047C40.9388 61.9053 39.9254 61.9615 38.9175 62.073C34.9154 62.4464 31.0692 63.8102 27.7258 66.0414C26.3498 66.9806 25.164 68.1718 24.231 69.552C23.3698 70.8211 22.8979 72.3139 22.873 73.8473C22.873 74.0385 22.881 74.229 22.897 74.4188C23.0222 75.799 23.5442 77.1134 24.4001 78.2034C25.8335 79.938 27.7217 81.239 29.853 81.9606C32.3714 82.8624 35.0301 83.309 37.7048 83.2794C38.7191 83.2789 39.7326 83.2228 40.7407 83.1114C44.7424 82.7378 48.5882 81.374 51.9312 79.1429C53.3071 78.2038 54.4928 77.0128 55.4258 75.6327C56.2869 74.3638 56.759 72.8712 56.7839 71.3379C56.7839 71.1492 56.7766 70.9583 56.7605 70.7656ZM54.1694 70.9823C54.1792 71.0993 54.1841 71.2178 54.1841 71.3379C54.1587 72.3685 53.8324 73.3692 53.2454 74.2167C52.0003 75.9505 50.331 77.3357 48.3972 78.2396C45.9085 79.4709 43.2191 80.2456 40.4568 80.5271C39.5429 80.628 38.6242 80.6788 37.7048 80.6795C34.6767 80.758 31.677 80.0788 28.978 78.7037C28.0083 78.1873 27.1534 77.4796 26.465 76.6234C25.9107 75.9287 25.5711 75.0872 25.488 74.2023C25.478 74.0825 25.4729 73.9642 25.4729 73.8473C25.4982 72.8165 25.8245 71.8156 26.4116 70.9679C27.6567 69.2339 29.3261 67.8486 31.26 66.9446C33.749 65.7133 36.4387 64.9387 39.2014 64.6575C40.115 64.5563 41.0336 64.5053 41.9528 64.5046C44.9807 64.4263 47.9803 65.1053 50.6792 66.4802C51.6489 66.9968 52.5038 67.7046 53.1924 68.5608C53.7466 69.2557 54.0862 70.0972 54.1694 70.9822L54.1694 70.9823Z"/></g></g></svg>