<svg width="24" height="24" fill="none" xmlns="http://www.w3.org/2000/svg"><path fill-rule="evenodd" clip-rule="evenodd" d="M12.699 1.659a1 1 0 0 0-1.314.005c-.468.412-1.159 1.272-1.679 1.943a58.094 58.094 0 0 0-.914 1.217l-.06.08-.02.03-.01.013-.228.327a324.838 324.838 0 0 0-1.226 1.773L6.103 6.48a1 1 0 0 0-1.257.316c-.407.57-1.24 1.827-1.24 3.9 0 3.27 3.147 7.506 8.44 7.506 5.274 0 8.348-3.842 8.348-7.506 0-1.25-.235-2.169-.585-2.85a3.473 3.473 0 0 0-1.106-1.288 1 1 0 0 0-1.073-.048l-.853.49-.65-.953-.816-1.2a1.103 1.103 0 0 0-.016-.023l-.005-.007-.015-.021-.057-.078a52.552 52.552 0 0 0-.884-1.177c-.5-.647-1.173-1.484-1.635-1.883Zm-.783 5.249a1 1 0 0 1 .843.445c.21.315.476.703.761 1.116.522.757 1.102 1.599 1.487 2.222.58.938.288 2.137-.213 2.937-.544.866-1.538 1.634-2.867 1.634a3.213 3.213 0 0 1-2.817-1.615c-.497-.856-.643-2.025-.06-2.96.212-.338.5-.812.806-1.318.419-.69.874-1.442 1.227-1.997a1 1 0 0 1 .833-.464Zm-.312 3.436c-.306.507-.602.996-.857 1.404-.092.147-.137.5.093.895.205.354.57.62 1.087.62.495 0 .91-.28 1.173-.698.13-.208.2-.419.22-.588.019-.157-.01-.225-.013-.233 0-.001 0-.001 0 0a53.697 53.697 0 0 0-1.338-2.002l-.365.602Zm-9.69 8.51a1 1 0 0 1 1-1h4.65v2h-3.65v1.188h-2v-2.188Zm20.172 0a1 1 0 0 0-1-1h-4.65v2h3.65v1.188h2v-2.188Z" fill="#191C22"/></svg>