<svg width="24" height="24" fill="none" xmlns="http://www.w3.org/2000/svg"><path fill-rule="evenodd" clip-rule="evenodd" d="M11.385 1.664A1 1 0 0 1 12.7 1.66c.462.399 1.135 1.236 1.635 1.883a54.118 54.118 0 0 1 .884 1.177l.057.078.015.02.005.008.016.023.817 1.2.65.954.852-.491a1 1 0 0 1 1.073.048c.308.216.75.598 1.106 1.288.35.681.585 1.6.585 2.85 0 3.664-3.074 7.506-8.349 7.506-5.292 0-8.439-4.237-8.439-7.506 0-2.073.833-3.33 1.24-3.9a1 1 0 0 1 1.257-.316l1.145.566a187.839 187.839 0 0 1 1.226-1.773l.228-.327.01-.013.02-.03.06-.08a54.943 54.943 0 0 1 .914-1.217c.52-.671 1.211-1.531 1.68-1.943ZM10.336 6.1l-.222.318-.539.776c-.419.604-.895 1.296-1.151 1.686a1 1 0 0 1-1.28.347L6.04 8.68c-.228.475-.433 1.133-.433 2.017 0 2.19 2.276 5.506 6.44 5.506 4.181 0 6.348-2.958 6.348-5.506 0-.998-.187-1.591-.364-1.934a1.971 1.971 0 0 0-.074-.132l-.985.566a1 1 0 0 1-1.325-.303l-1.172-1.721-.808-1.188-.01-.014-.054-.074a51.407 51.407 0 0 0-.85-1.132 30.19 30.19 0 0 0-.705-.881c-.237.283-.5.613-.759.947a56.226 56.226 0 0 0-.882 1.173l-.056.077-.014.02Zm1.58.808a1 1 0 0 1 .843.445c.21.315.477.703.762 1.116.522.757 1.101 1.599 1.487 2.222.58.938.288 2.137-.213 2.937-.544.866-1.538 1.634-2.868 1.634a3.213 3.213 0 0 1-2.816-1.615c-.498-.856-.644-2.025-.06-2.96.212-.338.499-.812.806-1.318.418-.69.874-1.442 1.226-1.997a1 1 0 0 1 .833-.464Zm-.311 3.436c-.307.507-.603.996-.858 1.404-.091.147-.136.5.093.895.206.354.571.62 1.087.62.496 0 .911-.28 1.173-.698.13-.208.2-.419.22-.588.02-.157-.01-.225-.013-.233a53.697 53.697 0 0 0-1.338-2.002l-.364.602Zm-9.69 8.51a1 1 0 0 1 1-1h4.65v2h-3.65v1.188h-2v-2.188Zm20.17 0a1 1 0 0 0-1-1h-4.65v2h3.65v1.188h2v-2.188Z" fill="#191C22"/></svg>