<svg width="24" height="24" fill="none" xmlns="http://www.w3.org/2000/svg"><path fill-rule="evenodd" clip-rule="evenodd" d="M11.87 1.368a1 1 0 0 1 .818.418c1.656 2.316 5.252 7.363 6.316 8.94 1.424 2.111 1.144 4.803-.183 6.882-1.342 2.101-3.803 3.687-6.947 3.687-6.27 0-9.53-6.323-6.936-10.534 1.075-1.746 4.538-6.721 6.119-8.968a1 1 0 0 1 .813-.425Zm-.302 9.393-1.13 1.21a.5.5 0 0 0 .012.695l.357.357a2.5 2.5 0 0 1 0 3.536l-1.183 1.183-1.415-1.414 1.184-1.183a.5.5 0 0 0 0-.707l-.357-.357a2.5 2.5 0 0 1-.06-3.473l1.13-1.211 1.462 1.364Zm4.125 0-1.13 1.21a.5.5 0 0 0 .012.695l.357.357a2.5 2.5 0 0 1 0 3.536l-1.183 1.183-1.415-1.414 1.184-1.183a.5.5 0 0 0 0-.707l-.357-.357a2.5 2.5 0 0 1-.06-3.473l1.13-1.211 1.462 1.364Z" fill="#191C22"/></svg>