<svg xmlns="http://www.w3.org/2000/svg" width="200" height="200" fill="none"><path fill="#FFD93A" d="M122.744 154.438c1.081-1.932 2.317-4.865-3.859-4.943-2.058-.024-7.864-.051-14.84-.066l10.887 13.631c2.884-2.727 6.944-7.071 7.812-8.622ZM68.542 149.573c-4.246.233-6.795 1.081-8.492 2.392-1.698 1.314-2.549 2.087-2.549 2.087s4.711.154 3.011 3.241c-1.697 3.089-9.187 2.702-9.187 2.702s-2.162 1.622-3.397 4.017c-1.236 2.392-1.236 4.092 4.17 4.554 3.872.333 26.73.506 41.055.35L79.9 149.441c-5.707.022-10.1.064-11.357.132ZM93.285 149.419l13.605 18.687c2.211-.543 3.568-1.338 5.046-2.477l-12.23-16.205c-2.106-.005-4.266-.005-6.42-.005ZM49.819 58.001C41.25 59.276 38.585 71.9 45.533 76.88l4.286-18.878ZM111.897 59.158c-4.633-4.515-7.644-2.546-9.845 1.39-2.199 3.938-1.157 11.12 4.055 15.752 5.21 4.633 8.454-2.664 8.454-2.664s3.783-3.938 1.699-8.918c-2.086-4.98-2.683-4.806-4.363-5.56ZM53.063 35.765c4.517 3.011 6.948.23 10.192-1.507 3.243-1.736 8.338-4.747 19.225-3.705 10.887 1.042 11.93 3.473 14.245 4.862 2.317 1.392 7.529 1.74 9.036.812 0 0-5.445-10.772-25.132-10.772-19.69 0-27.567 10.193-27.567 10.31Z"/><path fill="#191C22" d="M62.4 86.227c.444-.878.896-.988 1.302-1.014.258-.006.486.108.53.157a1.252 1.252 0 0 0 1.67-1.866c-.602-.53-1.37-.79-2.2-.795-1.308-.027-2.808.79-3.565 2.443a1.253 1.253 0 0 0 2.263 1.075ZM72.008 91.775c1.016.95 2.029 1.486 3.1 1.493a2.929 2.929 0 0 0 1.645-.508c.671-.458 1.082-1.07 1.38-1.655a7.135 7.135 0 0 0 .58-1.65l-1.224-.267-1.083.627c.03.05.403.698 1.058 1.398.33.35.732.716 1.232 1.018.497.299 1.115.543 1.832.544.83.01 1.703-.37 2.389-1.05a1.252 1.252 0 0 0-1.742-1.798c-.35.323-.506.334-.647.344-.127 0-.31-.047-.54-.186-.344-.202-.733-.596-1.002-.939l-.317-.435-.08-.123-.016-.028a1.25 1.25 0 0 0-1.277-.61 1.25 1.25 0 0 0-1.03.97c-.085.405-.295 1-.554 1.376l-.356.385-.249.082c-.152.007-.622-.098-1.387-.817a1.252 1.252 0 1 0-1.712 1.829ZM90.4 85.418c.321-.241.501-.268.672-.274l.698.254.254.202.058.056.06-.058-.063.055.003.003.06-.058-.063.055a1.252 1.252 0 0 0 1.89-1.644c-.049-.054-.316-.36-.793-.684-.473-.319-1.183-.681-2.104-.685-.714-.007-1.514.252-2.21.802a1.252 1.252 0 1 0 1.538 1.977Z"/><path fill="#191C22" d="M180.363 70.697c-6.6-7.79-16.822-13.315-30.874-13.64a77.895 77.895 0 0 0-1.92-.023c-8.744 0-19.439 1.365-31.459 4.336a9.705 9.705 0 0 0-.916-1.28 7.672 7.672 0 0 0-.998-.948c.009-.38.016-.757.016-1.133.003-9.657-3.267-18.093-8.979-24.145-5.707-6.055-13.844-9.692-23.388-9.854-.364-.007-.73-.01-1.093-.01-8.874.002-17.858 1.898-24.806 7.399C49 36.891 44.283 45.962 43.823 59.721c-.092.1-.196.183-.285.286a12.714 12.714 0 0 0-2.925 6.562c-.07.518-.103 1.04-.103 1.556.002 1.973.468 3.894 1.184 5.55.725 1.657 1.68 3.055 2.822 3.985.092.074.197.112.3.157-.096.475-.19.949-.283 1.421-7.127-1.712-14.23-2.518-20.792-2.518-3.19 0-6.252.189-9.128.558a1.252 1.252 0 1 0 .32 2.485 69.37 69.37 0 0 1 8.808-.539c6.393 0 13.353.795 20.324 2.48-.257 1.398-.49 2.772-.702 4.124a80.653 80.653 0 0 0-7.555-.346c-10.17.005-19.858 1.683-24.94 3.318a1.252 1.252 0 1 0 .77 2.384c4.706-1.526 14.295-3.203 24.17-3.198 2.398 0 4.815.1 7.187.32a86.4 86.4 0 0 0-.54 5.077c-9.704.797-19.34 2.753-27.358 7.648a1.252 1.252 0 1 0 1.307 2.137c7.399-4.534 16.535-6.46 25.914-7.262-.018.537-.05 1.092-.051 1.608.001 2.548.238 4.821.786 6.789-5.093 1.17-11.039 2.936-15.94 5.112-2.63 1.171-4.951 2.445-6.692 3.856-.87.708-1.599 1.452-2.137 2.275-.536.818-.883 1.742-.882 2.726l.039.569c.088.65.279 1.299.657 1.882.568.888 1.52 1.481 2.664 1.798 1.156.326 2.571.452 4.425.455h37.798c.014 0 .026-.008.04-.008.007.229.016.459.047.689.09.652.28 1.301.657 1.883.569.888 1.52 1.481 2.665 1.799 1.156.326 2.571.453 4.425.455h32.925c6.208-.008 10.082-.356 12.87-1.459.969-.385 1.755-.917 2.46-1.515h13.537c.681 1.909 1.116 4.125 1.122 6.935 0 1.128-.07 2.349-.225 3.68-.072.62-.108 1.208-.108 1.766-.022 2.877 1.018 5.023 2.621 6.382 2.396 2.03 5.605 2.499 8.266 3.176 1.332.325 2.527.685 3.386 1.166.867.493 1.37 1.013 1.65 1.827.248.744.361 1.427.361 2.042-.015 1.381-.515 2.442-1.614 3.372-1.102.919-2.88 1.64-5.323 1.922-3.05.355-5.156 1.094-6.664 2.16a7.5 7.5 0 0 0-2.381 2.758c-.747 1.476-1.004 2.917-1.415 4.048-.423 1.146-.861 1.922-1.966 2.578-1.634.94-3.821 1.657-7.86 1.664-.403 0-.866-.025-1.307-.04.037-.096.083-.187.095-.294a1.252 1.252 0 0 0-1.103-1.385 67.76 67.76 0 0 0-1.16-.117c1.437-1.506 2.865-2.929 4.219-4.647.997-1.274 1.586-2.295 1.859-3.318.296-1.139.384-2.389.385-3.61-.002-2.839-.501-5.519-.507-5.56-.007-.04-.032-.07-.043-.107a3.044 3.044 0 0 0-.459-.99c-.586-.802-1.463-1.29-2.494-1.604-1.038-.312-2.273-.456-3.734-.457H67.407c-1.403 0-2.747.034-4.235.526-1.486.491-3.031 1.403-4.971 3.003-3.436 2.833-6.734 5.962-10.258 10.028-.876 1.021-1.477 1.987-1.723 2.988a1.243 1.243 0 0 0-.154.482c-.003.025-.203 1.957-.204 4.193.001 1.209.057 2.502.25 3.672.096.58.276 1.166.618 1.702.51.816 1.37 1.407 2.414 1.727 1.053.329 2.33.463 3.994.465 5.056 0 50.422-.032 52.622-.032 1.967.012 4.266-.588 6.708-2.311.042.009.076.03.12.037.819.124 2.163.203 3.578.205.812 0 1.633-.028 2.372-.1.747-.081 1.374-.167 1.985-.433.597-.271.862-.951.645-1.558.433.014.889.039 1.293.039 4.323.007 7.073-.811 9.115-2.001 1.546-.881 2.404-2.196 2.894-3.44.733-1.887.946-3.623 1.864-4.879.456-.637 1.065-1.208 2.102-1.722 1.035-.509 2.508-.94 4.6-1.182 2.773-.325 5.017-1.147 6.633-2.482 1.62-1.324 2.533-3.228 2.519-5.3 0-.92-.167-1.87-.489-2.835a5.4 5.4 0 0 0-1.649-2.428c-1.275-1.074-2.857-1.595-4.47-2.028-2.421-.628-4.991-1.059-6.779-2.04-.897-.487-1.588-1.072-2.081-1.87-.491-.801-.813-1.856-.816-3.392 0-.451.029-.942.092-1.476.165-1.419.242-2.737.242-3.97.009-2.688-.377-4.954-.99-6.935h8.991a25.375 25.375 0 0 0 7.667 2.148c2.584.312 5.43.548 8.375.548 4.882-.002 10.047-.643 14.73-2.712 4.68-2.061 8.863-5.603 11.591-11.212 2.24-4.596 3.397-10.096 3.398-15.844-.003-9.291-3.029-19.263-9.637-27.05ZM57.59 155.517l.011.002c.915-.004 1.524.181 1.79.344l.197.163.006.014c.003.01-.012.167-.24.433-.33.396-1.107.946-2.352 1.375-.7.244-1.56.449-2.55.601a79.513 79.513 0 0 1 3.138-2.932Zm-7.755 7.847a91.426 91.426 0 0 1 1.985-2.196c.052.005.098.027.15.025 3.171-.114 5.564-.712 7.26-1.573.847-.433 1.524-.933 2.027-1.518.497-.58.84-1.281.842-2.062.015-.991-.624-1.884-1.44-2.337-.193-.112-.432-.161-.646-.244 1.683-1.36 2.904-2.044 3.944-2.387 1.086-.358 2.074-.401 3.45-.401h50.805c1.718-.005 2.955.252 3.607.58.329.161.504.323.589.443l.118.38c.026.373-.344 1.312-1.46 2.465-3.42 3.599-6.152 6.954-9.58 9.824-1.461 1.231-2.284 1.913-3.35 2.321-1.071.417-2.605.632-5.49.63H54.25c-2.057.005-3.661-.248-4.592-.638-.468-.19-.75-.404-.886-.567l-.175-.469c-.019-.35.273-1.177 1.238-2.276Zm3.303 11.085c-2.032.008-3.23-.26-3.773-.569-.277-.154-.409-.291-.522-.463-.11-.173-.2-.412-.26-.768-.158-.948-.217-2.138-.216-3.262 0-.191.008-.364.011-.55.456.217.95.393 1.488.532 1.234.31 2.697.448 4.384.449h48.396c2.983-.002 4.828-.198 6.391-.797 1.568-.609 2.633-1.547 4.059-2.739 3.66-3.073 6.446-6.513 9.785-10.017.016-.017.028-.034.044-.051.006.225.02.446.02.671.002 1.088-.09 2.168-.304 2.974-.133.517-.513 1.271-1.405 2.406-1.436 1.827-3.059 3.376-4.809 5.252a1.23 1.23 0 0 0-.308.729 52.722 52.722 0 0 0-2.948-.096c-.927-.021-1.797.479-2.235 1.138-.454.654-.601 1.379-.605 2.068a4.27 4.27 0 0 0 .296 1.481c-1.873 1.215-3.431 1.569-4.867 1.58-2.203 0-47.568.031-52.623.032Zm65.156-2.189c-.62.06-1.376.088-2.128.088-1.195.002-2.384-.073-3.02-.156-.052-.04-.094-.096-.15-.127l-.057-.103-.104-.606c-.004-.296.086-.548.147-.624l.189-.077c1.518 0 3.203.102 4.497.205.523.042.954.081 1.314.116a1.23 1.23 0 0 0-.112.429 1.22 1.22 0 0 0 .218.742 7.188 7.188 0 0 1-.794.113Zm4.316-92.274c.913 1.709 1.443 3.514 1.706 5.593a96.638 96.638 0 0 0-4.136-.097c-1.909 0-3.831.081-5.743.213a258.213 258.213 0 0 0-.823-4.358 91.478 91.478 0 0 1 8.984-1.37c.003.007.008.013.012.019Zm1.915 8.747c.001 2.033-.205 4.373-.549 7.05-.051-.018-.103-.039-.155-.056a106.514 106.514 0 0 0-8.147-2.413 182.126 182.126 0 0 0-.795-5.139 80.87 80.87 0 0 1 5.301-.189 91.504 91.504 0 0 1 4.317.11c.005.218.028.412.028.637Zm-11.411-9.85c-.094-.451-.181-.907-.277-1.355a6.677 6.677 0 0 0 3.009-4.162c.006-.023-.001-.044.003-.067.16-.159.321-.315.46-.495 1.994 1.703 3.55 3.278 4.734 4.823a91.707 91.707 0 0 0-7.929 1.256Zm-6.719-21.053c.276-.06.557-.09.84-.09a4.25 4.25 0 0 1 2.082.565c-.998.452-1.788 1.262-2.313 2.23-.674 1.235-1.007 2.74-1.009 4.367 0 .834.09 1.7.277 2.577.423 1.972 1.263 3.692 2.377 4.974 1.03 1.18 2.347 2.002 3.833 2.124a3.963 3.963 0 0 1-2.219 1.364 3.761 3.761 0 0 1-.779.081c-1.317.006-2.782-.71-4.073-2.106-1.287-1.388-2.354-3.418-2.861-5.798-.21-.986-.31-1.957-.31-2.883-.002-1.991.465-3.775 1.225-5.07.768-1.301 1.77-2.087 2.93-2.335Zm8.726 7.758c.151.706.222 1.398.222 2.05.002 1.275-.277 2.395-.703 3.165-.434.779-.944 1.165-1.48 1.28l-.344.036c-.634.01-1.483-.394-2.279-1.31-.79-.905-1.479-2.262-1.816-3.853a9.889 9.889 0 0 1-.222-2.054c-.002-1.275.277-2.395.701-3.164.434-.778.942-1.162 1.478-1.277l.349-.037c.635-.01 1.482.395 2.278 1.31.79.904 1.479 2.262 1.816 3.854ZM57.502 33.362c6.313-5.013 14.716-6.86 23.25-6.858.35 0 .7.003 1.047.01 8.94.161 16.372 3.52 21.613 9.069.017.018.032.04.05.059a7.979 7.979 0 0 1-1.624.173c-1.423-.007-3.065-.363-4.603-1.749-4.104-3.693-9.912-4.878-15.856-4.99a44.31 44.31 0 0 0-.877-.009c-7.221.002-14.488 1.564-20.306 5.793-1.447 1.046-2.584 1.316-3.468 1.32a3.801 3.801 0 0 1-1.794-.449 26.099 26.099 0 0 1 2.568-2.369Zm-4.257 4.29a6.385 6.385 0 0 0 3.483 1.033c1.443.004 3.149-.492 4.94-1.8 5.232-3.811 11.962-5.315 18.834-5.313.278 0 .554.002.829.008 5.663.093 10.861 1.28 14.223 4.343 2.068 1.878 4.431 2.403 6.284 2.396a10.791 10.791 0 0 0 3.427-.56c3.908 5.09 6.19 11.664 6.397 19.173-1.228-1.057-2.724-1.63-4.233-1.671-1.037-3.823-1.728-6.176-1.73-6.183a1.255 1.255 0 0 0-.866-.854 1.257 1.257 0 0 0-1.183.285l-16.035 14.74c-3.906-.583-8.449-.757-12.417-.758-4.254 0-7.773.187-9.03.262-3.172-2.75-6.48-5.895-9.023-8.39a286.282 286.282 0 0 1-4.46-4.474 1.25 1.25 0 0 0-2.12.586 403.75 403.75 0 0 0-1.361 6.168c-.956.155-1.86.508-2.714.975.641-8.836 3.098-15.311 6.755-19.965ZM43.993 72.68c-.594-1.367-.98-2.985-.978-4.555 0-.412.026-.821.08-1.22.27-2.021 1.145-3.876 2.342-5.264.93-1.084 2.046-1.86 3.19-2.265a509.878 509.878 0 0 0-1.911 9.632 465.267 465.267 0 0 0-1.316 5.997 9.49 9.49 0 0 1-1.407-2.325Zm77.139 49.636a15.21 15.21 0 0 0 .805-1.726c.358-.909.484-1.894.485-2.911-.01-2.817-.966-5.993-1.894-8.539-.933-2.538-1.858-4.413-1.87-4.439a1.252 1.252 0 0 0-2.246 1.108l.146.305a49.728 49.728 0 0 1 1.948 4.818c.764 2.215 1.418 4.791 1.411 6.747.002.803-.109 1.489-.308 1.989-.456 1.153-.933 2.027-1.527 2.706-.887 1.005-2.076 1.707-4.318 2.207-2.23.491-5.442.711-10.02.709H74.217c.04-.575.207-1.764.872-3.028a1.253 1.253 0 0 0-2.22-1.16c-.956 1.838-1.124 3.449-1.157 4.188h-.893a24.393 24.393 0 0 1-1.58-.043 7.953 7.953 0 0 1 .87-2.985 1.252 1.252 0 0 0-2.22-1.16 10.316 10.316 0 0 0-1.116 3.712c-.11-.041-.243-.079-.328-.123-.333-.172-.488-.325-.614-.513-.123-.189-.22-.453-.277-.861l-.038-.544c.003-.873.284-1.683.89-2.531 1.052-1.479 3.173-2.958 6.036-4.219 8.598-3.829 23.545-5.777 35.189-5.765.504 0 1.002.004 1.493.011a1.253 1.253 0 0 0 .037-2.504 85.882 85.882 0 0 0-1.53-.011c-9.085.002-19.993 1.119-28.74 3.435-4.377 1.163-8.213 2.615-11.059 4.456-1.422.924-2.604 1.95-3.458 3.132a7.439 7.439 0 0 0-.954 1.782 1.239 1.239 0 0 0-.435-.087l-34.4-.001c.041-.574.208-1.764.872-3.027a1.252 1.252 0 0 0-2.22-1.16v-.001c-.956 1.839-1.124 3.449-1.157 4.188h-.893a23.747 23.747 0 0 1-1.58-.042 7.94 7.94 0 0 1 .87-2.985 1.253 1.253 0 0 0-2.22-1.16v-.001a10.32 10.32 0 0 0-1.117 3.714c-.11-.041-.242-.08-.327-.124-.333-.171-.488-.325-.614-.513-.122-.189-.22-.452-.277-.862l-.016-.226c0-.389.133-.829.475-1.357.592-.922 1.841-2.005 3.539-3.04 4.895-3.018 13.296-5.696 19.962-7.202 1.512 3.507 3.854 5.816 6.396 7.185 3.03 1.642 6.27 2.04 8.797 2.042 2.691-.001 4.6-.458 4.665-.473a1.253 1.253 0 0 0-.585-2.435l-.059.013c-.321.071-1.916.391-4.021.391-2.264.002-5.098-.375-7.601-1.739-2.501-1.373-4.732-3.665-5.975-7.837-.494-1.671-.729-3.822-.728-6.306 0-.577.034-1.202.057-1.813 1.404-.09 2.81-.161 4.214-.211a1.253 1.253 0 0 0-.09-2.503h-.001c-1.319.048-2.644.118-3.97.2a85.58 85.58 0 0 1 .502-4.588 54.03 54.03 0 0 1 4.227.705 1.253 1.253 0 0 0 .524-2.449 56.513 56.513 0 0 0-4.381-.733c.195-1.24.41-2.502.645-3.789 1.358.37 2.715.762 4.065 1.202a1.253 1.253 0 0 0 .775-2.382 89.617 89.617 0 0 0-4.377-1.286c.66-3.38 1.413-6.856 2.202-10.327l.01-.046a517.824 517.824 0 0 1 3.327-16.22c2.523 2.547 7.617 7.586 12.412 11.711.25.215.575.323.904.3.003 0 1.032-.072 2.727-.144 1.696-.073 4.046-.145 6.655-.145 4.096-.001 8.84.182 12.633.806.38.062.767-.053 1.05-.314l14.971-13.763c.281.994.656 2.338 1.099 3.97-1.538.593-2.794 1.738-3.648 3.206-1.028 1.762-1.566 3.96-1.568 6.334 0 1.105.119 2.25.365 3.406.598 2.79 1.84 5.208 3.472 6.975 1.626 1.759 3.688 2.905 5.912 2.91.326.001.653-.05.98-.102.07.331.135.667.204 1-2.076.497-4.113 1.062-6.046 1.737a1.252 1.252 0 1 0 .828 2.365h-.001c1.816-.637 3.746-1.172 5.72-1.647.267 1.347.516 2.687.761 4.03-2.099.22-4.175.517-6.178.946a1.253 1.253 0 0 0 .524 2.45v-.001c1.961-.42 4.013-.713 6.099-.925.25 1.468.479 2.92.687 4.35-1.989-.417-3.889-.746-5.548-.865a1.253 1.253 0 0 0-.177 2.499c1.742.12 3.813.47 6.067.979.115.897.245 1.813.337 2.68a1.252 1.252 0 1 0 2.49-.264c-.061-.578-.152-1.19-.223-1.78 2.24.59 4.606 1.306 7.009 2.121.202.069.406.149.608.218-.078.53-.147 1.032-.234 1.588a26.715 26.715 0 0 0-.343 4.138c-.004 3.25.721 5.854 1.795 8.061 1.619 3.315 3.918 5.737 5.706 8.558.337.533.653 1.086.955 1.654h-10.372Zm13.158 0c-1.042-2.281-2.362-4.16-3.639-5.877-1.346-1.821-2.624-3.508-3.554-5.428-.929-1.923-1.54-4.08-1.544-6.968 0-1.13.096-2.372.312-3.751.061-.388.108-.737.165-1.113 1.202.439 2.388.892 3.578 1.362-.003.09-.018.177-.018.268l.012.489c.091 1.767.681 7.453 3.734 13.142 1.499 2.809 3.652 5.613 6.632 7.876h-5.678Zm50.061-9.822c-2.484 5.072-6.126 8.141-10.354 10.019-4.225 1.872-9.052 2.5-13.716 2.499-2.812 0-5.56-.226-8.074-.53-9.002-1.112-13.848-6.051-16.665-11.229-2.615-4.84-3.282-9.853-3.412-11.704a130.452 130.452 0 0 1 7.924 3.596 1.251 1.251 0 1 0 1.117-2.241c-2.69-1.34-5.701-2.691-8.828-3.974a5.842 5.842 0 0 1 .692-1.609c.59-.92 1.362-1.507 2.268-1.715.284-.066.622-.104.997-.104 1.244-.004 2.874.424 4.37 1.33 1.5.905 2.871 2.264 3.744 4.108 1.074 2.267 2.598 4.846 4.979 6.893 2.374 2.049 5.64 3.512 9.901 3.503 1.2 0 2.478-.113 3.84-.352 4.874-.859 8.582-3.539 10.848-6.548a1.253 1.253 0 0 0-2-1.507c-1.916 2.542-5.086 4.852-9.282 5.588a19.71 19.71 0 0 1-3.406.314c-3.701-.009-6.277-1.201-8.27-2.899-1.985-1.701-3.354-3.961-4.346-6.063a12.09 12.09 0 0 0-4.716-5.182c-1.876-1.126-3.88-1.685-5.662-1.69-.539 0-1.061.053-1.558.168-1.639.373-2.956 1.445-3.821 2.813a8.35 8.35 0 0 0-.908 2.03c-1.204-.47-2.405-.92-3.619-1.36.397-2.974.635-5.576.636-7.915 0-.17-.019-.323-.022-.49 7.265.522 13.738 1.772 17.344 2.94a1.253 1.253 0 0 0 .769-2.382c-3.948-1.27-10.683-2.555-18.253-3.074-.231-2.169-.77-4.132-1.63-5.988 2.794-.214 5.519-.326 8.045-.325 2.916 0 5.579.129 7.808.352a1.252 1.252 0 0 0 .251-2.491c-2.331-.234-5.069-.365-8.059-.365-2.936 0-6.121.141-9.385.426-1.534-2.325-3.645-4.524-6.481-6.89.256-.877.429-1.804.43-2.808a12.405 12.405 0 0 0-.655-3.95c11.656-2.848 22.007-4.15 30.377-4.15.631 0 1.251.009 1.86.023 13.43.333 22.852 5.504 29.025 12.757 6.167 7.256 9.044 16.675 9.041 25.43.002 5.411-1.099 10.556-3.144 14.746Z"/><path fill="#191C22" d="m74.636 161.287 10.944.128c.038.112.075.224.121.333.224.491.535.963.945 1.384.416.398.923.843 1.813.875.26.001.534-.056.777-.166l.013-.007c.266-.119.545-.34.723-.633.18-.291.245-.615.243-.876-.015-.579-.214-.939-.412-1.277a5.261 5.261 0 0 0-1.143-1.267 4.147 4.147 0 0 0-.704-.466 2.325 2.325 0 0 0-.855-.242 1.222 1.222 0 0 0-.553-.151l-8.147-.096 3.251-2.395 10.285.204c.042.123.083.245.134.364.223.492.535.964.946 1.386.415.398.924.842 1.813.874.257.001.531-.054.777-.166l.016-.007a1.67 1.67 0 0 0 .72-.634c.18-.29.244-.613.243-.874-.015-.579-.214-.939-.412-1.277a5.265 5.265 0 0 0-1.143-1.269 4.15 4.15 0 0 0-.705-.466 2.466 2.466 0 0 0-.749-.226 1.218 1.218 0 0 0-.6-.19l-11.7-.232a1.254 1.254 0 0 0-.768.244l-6.601 4.865a1.253 1.253 0 0 0 .728 2.26Z"/></svg>