<svg xmlns="http://www.w3.org/2000/svg" width="200" height="200" fill="none"><g fill="#FFD93A"><path d="M86.012 142.908c2.761 0 5-1.174 5-2.622 0-1.447-2.239-2.621-5-2.621-2.762 0-5 1.174-5 2.621 0 1.448 2.238 2.622 5 2.622ZM122.512 146.632c2.761 0 5-1.173 5-2.621s-2.239-2.621-5-2.621c-2.762 0-5 1.173-5 2.621s2.238 2.621 5 2.621ZM104.637 152.132c2.761 0 5-1.173 5-2.621s-2.239-2.621-5-2.621c-2.762 0-5 1.173-5 2.621s2.238 2.621 5 2.621ZM67.96 147.508c1.886 0 3.415-.886 3.415-1.979 0-1.094-1.529-1.98-3.415-1.98-1.886 0-3.415.886-3.415 1.98 0 1.093 1.529 1.979 3.415 1.979ZM84.46 156.008c1.886 0 3.415-.886 3.415-1.979 0-1.094-1.529-1.98-3.415-1.98-1.886 0-3.415.886-3.415 1.98 0 1.093 1.529 1.979 3.415 1.979ZM124.96 157.508c1.886 0 3.415-.886 3.415-1.979 0-1.094-1.529-1.98-3.415-1.98-1.886 0-3.415.886-3.415 1.98 0 1.093 1.529 1.979 3.415 1.979ZM56.626 156.841c1.886 0 3.415-.886 3.415-1.98 0-1.093-1.529-1.979-3.415-1.979-1.886 0-3.415.886-3.415 1.979 0 1.094 1.529 1.98 3.415 1.98ZM157.513 148.403c1.886 0 3.415-.886 3.415-1.979s-1.529-1.979-3.415-1.979c-1.886 0-3.415.886-3.415 1.979s1.529 1.979 3.415 1.979ZM68.835 136.133c1.886 0 3.415-.886 3.415-1.979 0-1.094-1.529-1.98-3.415-1.98-1.886 0-3.415.886-3.415 1.98 0 1.093 1.529 1.979 3.415 1.979ZM36.96 141.383c1.886 0 3.415-.886 3.415-1.979 0-1.094-1.529-1.98-3.415-1.98-1.886 0-3.415.886-3.415 1.98 0 1.093 1.529 1.979 3.415 1.979ZM134.085 140.133c1.886 0 3.415-.886 3.415-1.979 0-1.094-1.529-1.98-3.415-1.98-1.886 0-3.415.886-3.415 1.98 0 1.093 1.529 1.979 3.415 1.979Z"/><path d="M145.431 70.404a30.35 30.35 0 0 0 3.341-14.477c0-22.534-17.294-42.693-48.502-42.693-31.21 0-48.503 20.159-48.503 42.693a30.585 30.585 0 0 0 3.078 13.95 66.975 66.975 0 0 0-4.785 26.519c.803 27.019 20.999 42.341 51.572 41.433a82.686 82.686 0 0 0 5.056-.309c-.185.252-.29.554-.301.866 0 1.448 2.238 2.622 5 2.622 2.761 0 5-1.174 5-2.622 0-.81-.717-1.526-1.82-2.007 22.857-4.647 36.411-19.995 35.729-42.962a67.79 67.79 0 0 0-4.865-23.013Z"/></g><g fill="#191C22"><path d="M52.91 174.003a156.284 156.284 0 0 0 26.249 5.036c-.004.316.048.631.152.93.093.256.23.492.407.698.225.251.492.461.788.621.168.077.322.18.457.306a.602.602 0 0 1 .101.181c.062.171.1.348.116.529.07.727.364 1.415.841 1.968a4.717 4.717 0 0 0 2.534 1.392c.937.2 1.894.292 2.852.276.442 0 .871-.02 1.294-.039l-.488 10.379a1.301 1.301 0 1 0 2.597.122l.448-9.527c.32.259.66.493 1.014.702a7.304 7.304 0 0 0 2.61.883c.539.085 1.083.129 1.629.131a9.878 9.878 0 0 0 3.407-.653 13.06 13.06 0 0 1 2.901-.764c.229-.028.46-.043.69-.043.7.015 1.393.139 2.054.367a8.43 8.43 0 0 0 2.49.476c.031 0 .065-.008.097-.009l.395 8.397a1.313 1.313 0 0 0 .42.908c.127.116.275.206.436.265a1.315 1.315 0 0 0 1-.047 1.304 1.304 0 0 0 .741-1.249l-.42-8.916a6.3 6.3 0 0 0 1.069-.622c.516-.412.993-.872 1.423-1.373a2.084 2.084 0 0 1 1.045-.626 25.494 25.494 0 0 0 3.197-.984 4.86 4.86 0 0 0 1.529-1.016c.49-.498.821-1.132.95-1.819a2.59 2.59 0 0 0 .042-.481 6.472 6.472 0 0 0-.192-1.356 213.63 213.63 0 0 0 22.655-3.531 1.963 1.963 0 0 0 1.187-1.771h.001l-.001-.001v-.001a10.07 10.07 0 0 1-.06-1.178c-.001-.822.086-1.642.259-2.446.182-.458.445-.88.776-1.246a8.892 8.892 0 0 1 3.341-2.223 12.522 12.522 0 0 1 4.619-.905 9.546 9.546 0 0 1 3.775.728c.232.1.488.131.736.087l.034-.005a51.262 51.262 0 0 1 7.737-.599c.497 0 1.004.008 1.516.026a6.643 6.643 0 0 0 1.024-.219 43.712 43.712 0 0 0 12.754-10.292 19.736 19.736 0 0 0 4.737-12.351c-.003-5.36-2.535-10.608-6.906-15.417a48.574 48.574 0 0 0-7.165-6.357c.019-.029.046-.057.063-.087.203-.371.332-.779.379-1.2a8.77 8.77 0 0 0 .065-1.18 9.963 9.963 0 0 0-1.722-5.838 11.266 11.266 0 0 0-5.664-4.031 15.51 15.51 0 0 0-2.224-.583 3.93 3.93 0 0 0-.315-1.009 3.21 3.21 0 0 0-1.683-1.581 3.545 3.545 0 0 0-.7-.201 43.884 43.884 0 0 1-1.775-4.565c-.726-2.182-1.388-4.613-1.948-7.099a14.976 14.976 0 0 0 5.858 1.43 7.427 7.427 0 0 0 3.391-.758 6.823 6.823 0 0 0 2.644-2.428 7.213 7.213 0 0 0 1.18-3.974 9.606 9.606 0 0 0-.953-4 21.26 21.26 0 0 0-5.176-6.583 47.113 47.113 0 0 0-12.95-8.022c-.249-.105-.503-.2-.753-.3-.119-.6-.248-1.204-.388-1.81a33.452 33.452 0 0 0 1.938-11.6 42.755 42.755 0 0 0-5.807-21.696 1.23 1.23 0 0 0-.098-.34 30.341 30.341 0 0 0-4.422-5.941 41.618 41.618 0 0 0-2.623-2.759 42.947 42.947 0 0 0-4.167-3.485 6.937 6.937 0 0 1 2.057-2.475 6.842 6.842 0 0 1 1.559-.843 4.034 4.034 0 1 0-1.022-2.391 9.242 9.242 0 0 0-2.076 1.138 9.442 9.442 0 0 0-2.667 3.08c-7.951-5.176-18.216-8.284-30.536-8.28-12.316-.004-22.578 3.102-30.528 8.275a9.432 9.432 0 0 0-2.664-3.075 9.243 9.243 0 0 0-2.075-1.138 4.027 4.027 0 1 0-1.022 2.391 6.838 6.838 0 0 1 1.558.843 6.934 6.934 0 0 1 2.054 2.47 42.958 42.958 0 0 0-4.176 3.49 41.636 41.636 0 0 0-4.666 5.293 24.33 24.33 0 0 0-.672.864c-.35.464-.64.875-.864 1.21a15.72 15.72 0 0 0-.46.725 6.08 6.08 0 0 0-.133.234l-.057.114-.043.103-.038.117-.008.03a42.724 42.724 0 0 0-6.008 22.047 33.507 33.507 0 0 0 1.892 11.466c-.197.677-.394 1.353-.579 2.026a51.992 51.992 0 0 0-7.86 4.033 35.822 35.822 0 0 0-8.289 6.951 17.295 17.295 0 0 0-2.504 3.839 9.597 9.597 0 0 0-.954 3.998 7.209 7.209 0 0 0 1.18 3.975 6.818 6.818 0 0 0 2.644 2.428 7.426 7.426 0 0 0 3.392.758c1.987-.07 3.94-.54 5.743-1.379a64.864 64.864 0 0 1-3.294 10.672c-.14.329-.28.64-.422.943a3.39 3.39 0 0 0-1.306.526c-.462.317-.832.75-1.074 1.255-.15.32-.256.66-.316 1.009a14.887 14.887 0 0 0-4.153 1.409 10.382 10.382 0 0 0-3.734 3.203 9.97 9.97 0 0 0-1.722 5.839 5.232 5.232 0 0 0 .304 2.062c.024.058.073.116.105.176a48.866 48.866 0 0 0-7.491 6.586c-4.371 4.809-6.903 10.057-6.906 15.417-.001 5.362 2.553 10.394 6.944 14.825 6.598 6.657 17.368 12.158 30.843 16.059Zm64.467 6.399v.004a.885.885 0 0 1-.25.477 3.33 3.33 0 0 1-1.307.68c-.644.216-1.448.401-2.283.642a4.751 4.751 0 0 0-1.635.813 6.136 6.136 0 0 0-.76.717 6.895 6.895 0 0 1-.796.798 4.056 4.056 0 0 1-1.256.653 3.11 3.11 0 0 1-1.037.187 6.064 6.064 0 0 1-1.746-.367 9.338 9.338 0 0 0-2.798-.475 8.23 8.23 0 0 0-1.005.062c-1.173.164-2.323.46-3.429.885a7.293 7.293 0 0 1-2.564.513 8.119 8.119 0 0 1-1.236-.101 4.82 4.82 0 0 1-1.562-.487 12.954 12.954 0 0 1-1.632-1.186 4.867 4.867 0 0 0-1.206-.658 4.726 4.726 0 0 0-1.644-.274 6.63 6.63 0 0 0-.343.009c-.492.027-.994.046-1.481.046a8.065 8.065 0 0 1-2.798-.375 1.596 1.596 0 0 1-.627-.401.921.921 0 0 1-.218-.543 3.957 3.957 0 0 0-.66-1.906 3.097 3.097 0 0 0-.785-.76c5.704.522 11.615.802 17.68.802 5.465-.001 11.334-.317 17.179-.856.102.36.169.729.199 1.101Zm39.598-16.46a12.293 12.293 0 0 0-4.413-.799 15.113 15.113 0 0 0-5.633 1.113 7.32 7.32 0 0 1 .177-.355c.265-.513.597-.988.986-1.414a4.271 4.271 0 0 1 1.418-1.027 7.497 7.497 0 0 1 3-.591c1.001.009 1.997.158 2.957.444a10.236 10.236 0 0 1 1.114.396l.051.023.008.004h.001c.181.085.379.128.579.125h.074c1.356.009 2.708.149 4.037.42a9.555 9.555 0 0 1 2.48.851c.136.074.254.151.37.228-2.412.035-4.819.23-7.206.582Zm2.074-55.385c.109.258.159.538.145.818l-.003.142a1.296 1.296 0 0 0 1.204 1.345c1.52.169 2.995.62 4.35 1.329a7.71 7.71 0 0 1 2.748 2.388 7.375 7.375 0 0 1 1.218 4.299c.007.29-.01.58-.05.867l-.054-.013a39.014 39.014 0 0 0-1.903-1.22 2.15 2.15 0 0 0 .027-.321 2.59 2.59 0 0 0-.198-.979 4.045 4.045 0 0 0-.793-1.188c-.437-.472-.893-.845-1.186-1.127a3.294 3.294 0 0 1-.191-.194 1.304 1.304 0 0 0-1.177-1.162 1.3 1.3 0 0 0-1.362.937 1.713 1.713 0 0 0-.065.466c0 .03.011.05.012.078.016.316.108.625.267.898.215.34.478.648.779.913.394.367.794.705 1.045.99.095.101.177.212.245.331l.009.021a2.028 2.028 0 0 1-.601.493 1.177 1.177 0 0 1-.636.207 1.76 1.76 0 0 1-1.038-.452 7.944 7.944 0 0 1-1.714-2.096c-.223-.372-.401-.71-.52-.951l-.02-.043a8.592 8.592 0 0 1-.113-.236l-.032-.07-.007-.016a1.294 1.294 0 0 0-1.212-.787 1.27 1.27 0 0 0-1.209.921c-.119-.077-.238-.154-.35-.238a7.874 7.874 0 0 1-2.011-2.304 8.448 8.448 0 0 1-.459-.893c-.048-.108-.081-.193-.102-.246l-.021-.056-.003-.009v.001l-.06-.147-.032-.083-.001-.006.001-.003a.414.414 0 0 1 .071-.091c.25.046.503.07.757.072a4.153 4.153 0 0 0 2.251-.669 5.98 5.98 0 0 0 1.855-1.997l.04-.072a.703.703 0 0 1 .099.153Zm-7.333 1.319a2.613 2.613 0 0 0-.327 1.168c-.716-.277-1.441-.549-2.173-.817a43.178 43.178 0 0 0 1.757-7.056c.482 1.45.996 2.831 1.54 4.109.189.443.381.874.577 1.292a3.805 3.805 0 0 0-.728.512 3.16 3.16 0 0 0-.646.792Zm-13.927 13.701a3.285 3.285 0 0 0-3.729.298 3.285 3.285 0 0 0-1.027 3.598c-7.915 5.495-18.576 8.674-31.44 9.057-.847.025-1.685.037-2.515.037-13.37 0-24.473-3.254-32.575-9.231a3.288 3.288 0 0 0-2.675-4.18 3.292 3.292 0 0 0-1.832.257 36.863 36.863 0 0 1-9.658-18.621c7.687 16.913 30.448 21.337 49.293 21.337 18.505 0 39.866-6.229 46.732-23.128a36.347 36.347 0 0 1-10.574 20.576ZM49.012 110.89a2.663 2.663 0 0 0-.306-1.014 3.33 3.33 0 0 0-.956-1.042 3.867 3.867 0 0 0-.422-.265 48.972 48.972 0 0 0 2.048-5.174l.035-.108a45.184 45.184 0 0 0 1.655 6.847c-.69.248-1.38.498-2.054.756Zm4.014-30.885c3.353 6.043 9.023 10.817 16.336 14.193 8.544 3.946 19.333 6.008 31.368 6.008h.108c10.236 0 19.25-1.506 26.719-4.382a27.046 27.046 0 0 0 2.257 4.412 25.59 25.59 0 0 0 2.276 3.711 1.3 1.3 0 0 0 2.055-1.593l-.007-.01a21.444 21.444 0 0 1-1.39-2.139l1.213-.736c.804 1.283 1.444 2.099 1.465 2.127a1.3 1.3 0 1 0 2.044-1.607l-.008-.01a25.437 25.437 0 0 1-1.277-1.859l1.214-.736a56.83 56.83 0 0 0 1.535 2.178 1.298 1.298 0 0 0 1.819.26 1.303 1.303 0 0 0 .261-1.82l-.052-.07a52.906 52.906 0 0 1-2.293-3.374c-.013-.021-.035-.032-.049-.052a24.59 24.59 0 0 1-1.635-3.13l1.027-.543c.726 1.329 1.316 2.181 1.335 2.21a1.293 1.293 0 0 0 .837.539 1.297 1.297 0 0 0 1.511-1.049 1.3 1.3 0 0 0-.211-.973l-.008-.01a25.625 25.625 0 0 1-1.164-1.931l1.256-.663c.755 1.285 1.394 2.252 1.402 2.265a1.3 1.3 0 1 0 2.17-1.433l-.049-.073a52.918 52.918 0 0 1-2.087-3.504c-.007-.013-.02-.02-.028-.033-.067-.125-.127-.249-.191-.373a29.81 29.81 0 0 0 4.263-6.124 65.988 65.988 0 0 1 1.749 10.448c-5.469 17.643-28.133 23.2-47.166 23.2-19.163 0-44.47-3.919-50.13-23.24a65.853 65.853 0 0 1 1.525-10.084Zm102.195-4.353a33.293 33.293 0 0 1 7.684 6.424 14.747 14.747 0 0 1 2.133 3.252c.445.908.689 1.902.715 2.913.005.91-.26 1.801-.762 2.56a4.2 4.2 0 0 1-1.638 1.523 4.829 4.829 0 0 1-2.215.477 14.383 14.383 0 0 1-6.217-1.871c-.132-.068-.269-.149-.402-.22a58.308 58.308 0 0 0-.782-2.884 24.238 24.238 0 0 0-1.176-3.176 11.396 11.396 0 0 0-1.138-1.953 7.46 7.46 0 0 0-1.315-1.374 71.68 71.68 0 0 0-1.426-5.563c.199-.822.299-1.665.295-2.51a15.153 15.153 0 0 0-.037-.926 48.15 48.15 0 0 1 6.281 3.328ZM60.808 32.074a17.9 17.9 0 0 1 4.548-4.056 14.847 14.847 0 0 1 7.842-2.228c.808 0 1.614.063 2.411.186a14.333 14.333 0 0 1 6.467 2.832c2.87 2.109 5.356 5.087 8.317 7.636a20.987 20.987 0 0 0 4.963 3.28 15.197 15.197 0 0 0 6.382 1.365 15.541 15.541 0 0 0 7.74-1.856c3.098-1.728 5.094-4.333 7.011-6.724 1.92-2.41 3.751-4.604 6.362-5.914a11.42 11.42 0 0 1 5.169-1.253c2.613.045 5.15.88 7.279 2.396a19.073 19.073 0 0 1 3.315 2.905 39.72 39.72 0 0 1 8.857 25.284 28.99 28.99 0 0 1-3.261 14.013c-3.183 5.876-8.612 10.222-16.065 13.14-7.447 2.913-16.893 4.35-27.876 4.348-14.648.006-26.547-2.56-34.647-7.746a26.532 26.532 0 0 1-9.294-9.742 28.987 28.987 0 0 1-3.261-14.013 39.828 39.828 0 0 1 7.741-23.853ZM39.388 92.8a4.832 4.832 0 0 1-2.215-.477 4.21 4.21 0 0 1-1.638-1.523 4.592 4.592 0 0 1-.762-2.56 7.021 7.021 0 0 1 .716-2.913 18.765 18.765 0 0 1 4.556-5.74 43.87 43.87 0 0 1 11.073-7.046c-.065.479-.1.96-.107 1.444a8.021 8.021 0 0 0 .303 2.235 69.749 69.749 0 0 0-1.28 5.332c-.398.36-.757.76-1.072 1.195a15.624 15.624 0 0 0-2.059 4.384 53.096 53.096 0 0 0-1.013 3.639c-.094.05-.191.11-.285.159A14.38 14.38 0 0 1 39.39 92.8Zm-6.423 21.728a8.71 8.71 0 0 1 4.377-3.062c.632-.216 1.28-.384 1.938-.501.245-.043.44-.07.57-.085l.143-.016.031-.002.001-.001a1.3 1.3 0 0 0 1.206-1.347l-.003-.14c-.014-.281.036-.56.145-.819a.821.821 0 0 1 .1-.15c.147.255.309.5.485.735.387.524.864.975 1.409 1.332.67.435 1.452.667 2.251.669a4.46 4.46 0 0 0 .756-.071l.01.007.063.087v.005l-.033.085-.06.146a8.401 8.401 0 0 1-1.164 2.068 7.185 7.185 0 0 1-1.781 1.675 1.286 1.286 0 0 0-.714-.814 1.302 1.302 0 0 0-1.707.681l-.002.004a12.827 12.827 0 0 1-1.261 2.176c-.333.473-.73.898-1.182 1.262a1.72 1.72 0 0 1-1 .422 1.182 1.182 0 0 1-.635-.206 2.18 2.18 0 0 1-.594-.483l-.007-.01.02-.043c.105-.169.231-.323.375-.461.281-.289.664-.606 1.034-.964a4.23 4.23 0 0 0 .55-.633 2.03 2.03 0 0 0 .369-1.052c.001-.028.008-.05.008-.079 0-.15-.02-.3-.059-.446a1.296 1.296 0 0 0-2.54.198 3.655 3.655 0 0 1-.298.297 15.2 15.2 0 0 0-1.188 1.146c-.23.258-.427.543-.587.85a2.655 2.655 0 0 0-.3 1.202c.002.08.009.16.02.239-.612.361-1.25.763-1.895 1.203l-.067.015a5.666 5.666 0 0 1-.038-.77 7.352 7.352 0 0 1 1.254-4.349Zm-9.012 14.922a48.029 48.029 0 0 1 8.66-7.338c.032-.009.062-.013.094-.022.137-.039.267-.101.384-.182.696-.484 1.395-.92 2.061-1.31.129.094.245.192.388.281a3.792 3.792 0 0 0 2.003.595 4.317 4.317 0 0 0 2.638-1.002 9.105 9.105 0 0 0 1.796-1.971l.17-.025a8.508 8.508 0 0 0 3.17-1.489 10.302 10.302 0 0 0 2.56-2.857c1.323-.538 2.68-1.058 4.07-1.56a38.354 38.354 0 0 0 7.925 12.391 44.752 44.752 0 0 0-3.403 3.112 12.141 12.141 0 0 0-3.095-4.639 8.07 8.07 0 0 0-2.775-1.555 11.212 11.212 0 0 0-3.512-.508c-.565 0-1.156.031-1.774.092a8.556 8.556 0 0 0-5.373 2.641 8.712 8.712 0 0 0-2.335 6.059c0 .208.006.419.02.635.173 2.38.621 4.731 1.337 7.008.194.619.404 1.238.645 1.848.096.244.204.482.309.722a17.347 17.347 0 0 0 2.069 3.621 9.521 9.521 0 0 0 3.685 3.034 11.248 11.248 0 0 0 4.46 1.072 6.502 6.502 0 0 0 3.483-.964 8.256 8.256 0 0 0 2.645-2.788 7.36 7.36 0 0 0 .698-1.635c.57-2.058.868-4.183.887-6.319a49.531 49.531 0 0 1 2.575-2.94 37.928 37.928 0 0 1 4.487-4.07 42.522 42.522 0 0 0 4.353 2.811 46.035 46.035 0 0 0 2.9 1.516 53.952 53.952 0 0 0 12.462 4.065 65.51 65.51 0 0 0 5.22.838c3.065.368 6.15.552 9.238.549a84.246 84.246 0 0 0 7.396-.325 72.757 72.757 0 0 0 9.538-1.445 51.874 51.874 0 0 0 18.701-7.927 42.034 42.034 0 0 1 5.882 5.653c.373.429.726.854 1.066 1.273.026 1.432.16 2.859.4 4.27.119.693.28 1.378.483 2.051.166.572.401 1.12.699 1.635a8.241 8.241 0 0 0 2.644 2.788 6.505 6.505 0 0 0 3.483.964 11.249 11.249 0 0 0 4.461-1.072c.121-.053.23-.126.347-.185a9.362 9.362 0 0 0 2.941-2.379c.133-.156.272-.306.397-.47a20.812 20.812 0 0 0 3.185-6.699 30.758 30.758 0 0 0 1.175-6.502v-.002c.013-.212.02-.422.02-.631a8.715 8.715 0 0 0-2.336-6.059 8.554 8.554 0 0 0-5.373-2.641 18.094 18.094 0 0 0-1.773-.092 11.214 11.214 0 0 0-3.513.508 8.196 8.196 0 0 0-3.871 2.685 14.174 14.174 0 0 0-2.003 3.494 45.616 45.616 0 0 0-3.143-2.898 37.895 37.895 0 0 0 8.413-12.494c1.495.543 2.966 1.1 4.383 1.685.118.183.245.37.386.561a10.026 10.026 0 0 0 2.039 2.075 8.504 8.504 0 0 0 3.171 1.489l.166.024c.024.035.045.069.07.104a9.02 9.02 0 0 0 1.729 1.868c.742.62 1.671.973 2.638 1.002a3.795 3.795 0 0 0 2.003-.595c.101-.063.18-.133.274-.198a51.167 51.167 0 0 1 10.889 8.769c4.088 4.5 6.233 9.158 6.231 13.668a17.147 17.147 0 0 1-4.17 10.73 39.93 39.93 0 0 1-10.882 8.99 5.63 5.63 0 0 0-2.175-1.993 14.13 14.13 0 0 0-4.713-1.373 24.227 24.227 0 0 0-2.873-.211 13.316 13.316 0 0 0-4.953-.993 10.088 10.088 0 0 0-4.037.807 6.897 6.897 0 0 0-2.34 1.7 9.884 9.884 0 0 0-1.812 2.96c-.141.35-.264.706-.37 1.069a8.174 8.174 0 0 0-2.43 3.849c-.085.273-.145.541-.207.808a5.556 5.556 0 0 0-.162.567 1.21 1.21 0 0 0 0 .269 14.695 14.695 0 0 0-.173 2.867 214.97 214.97 0 0 1-40.98 4.392c-22.926.004-43.679-3.984-58.586-10.363-7.453-3.185-13.437-6.969-17.498-11.079-4.068-4.12-6.19-8.49-6.192-12.997-.003-4.509 2.143-9.167 6.23-13.667Zm31.301 6.262a26.542 26.542 0 0 1-.375 4.5c-.1.586-.235 1.165-.406 1.734a4.922 4.922 0 0 1-.434 1.049 5.679 5.679 0 0 1-1.796 1.934 3.884 3.884 0 0 1-2.112.574 8.726 8.726 0 0 1-3.42-.854 6.956 6.956 0 0 1-2.661-2.231 18.322 18.322 0 0 1-2.755-5.852 28.215 28.215 0 0 1-1.075-5.931v-.003a7.34 7.34 0 0 1-.015-.469 6.102 6.102 0 0 1 1.627-4.276 5.966 5.966 0 0 1 3.736-1.837c.544-.053 1.05-.08 1.519-.079a8.652 8.652 0 0 1 2.703.378 5.568 5.568 0 0 1 2.667 1.86 13.168 13.168 0 0 1 1.973 3.73c.597 1.864.875 3.816.824 5.773Zm102.223 2.985a15.675 15.675 0 0 1-2.026 3.721 6.953 6.953 0 0 1-2.662 2.231 8.728 8.728 0 0 1-3.419.854 3.887 3.887 0 0 1-2.113-.574 5.684 5.684 0 0 1-1.796-1.933 4.988 4.988 0 0 1-.434-1.05 22.93 22.93 0 0 1-.781-6.234 17.438 17.438 0 0 1 .824-5.773l-1.217-.456 1.217.456a10.767 10.767 0 0 1 2.75-4.532 5.449 5.449 0 0 1 1.891-1.058 8.648 8.648 0 0 1 2.703-.378c.469 0 .974.026 1.518.079a5.965 5.965 0 0 1 3.736 1.837 6.103 6.103 0 0 1 1.628 4.276c0 .154-.005.312-.015.473v-.001a28.119 28.119 0 0 1-1.804 8.062Z"/><path d="M76.196 64.622a1.3 1.3 0 1 0 1.265-2.272 7.437 7.437 0 0 1-2.767-3.001 9.337 9.337 0 0 1-1.134-4.315 5.889 5.889 0 0 1 .626-2.757 9.25 9.25 0 0 1 2.504-2.965 6.178 6.178 0 0 1 3.75-1.361 6.403 6.403 0 0 1 2.985.789 6.031 6.031 0 0 1 2.57 2.471c.502.936.764 1.982.76 3.044a5.95 5.95 0 0 1-.272 1.812c-.131.443-.35.855-.644 1.211a6.156 6.156 0 0 1-1.707 1.356 4.433 4.433 0 0 1-2.07.541 4.013 4.013 0 0 1-3.064-1.427 3.429 3.429 0 0 1-.82-2.156 2.676 2.676 0 0 1 .444-1.49c.29-.472.686-.87 1.157-1.16a2.042 2.042 0 0 1 1.03-.289c.433-.007.852.154 1.17.448a1.202 1.202 0 0 1 .428.86.98.98 0 0 1-.13.478.819.819 0 0 1-.236.273c-.1.047-.21.07-.321.064l-.133-.008-.001.002a1.3 1.3 0 0 0-.543 2.542c.223.044.45.066.677.064.6.009 1.191-.152 1.705-.463.464-.3.846-.71 1.114-1.193a3.576 3.576 0 0 0 .468-1.758 3.81 3.81 0 0 0-1.184-2.693 4.26 4.26 0 0 0-3.014-1.216 4.649 4.649 0 0 0-2.328.637 6.111 6.111 0 0 0-2.033 1.985 5.284 5.284 0 0 0-.87 2.917 6.019 6.019 0 0 0 1.419 3.816 6.614 6.614 0 0 0 5.064 2.367 7.031 7.031 0 0 0 3.284-.841 8.747 8.747 0 0 0 2.44-1.932 5.997 5.997 0 0 0 1.172-2.135 8.534 8.534 0 0 0 .399-2.612 8.967 8.967 0 0 0-1.08-4.29 8.643 8.643 0 0 0-3.65-3.53 9.006 9.006 0 0 0-4.186-1.084 8.778 8.778 0 0 0-5.324 1.892 11.824 11.824 0 0 0-3.23 3.822 8.477 8.477 0 0 0-.926 3.97 11.912 11.912 0 0 0 1.444 5.544 9.99 9.99 0 0 0 3.792 4.043ZM117.715 61.666a8.77 8.77 0 0 0 3.777.84 8.942 8.942 0 0 0 3.279-.614 6.306 6.306 0 0 0 2.486-1.694 8.061 8.061 0 0 0 2.009-5.133 6.555 6.555 0 0 0-.393-2.244 6.402 6.402 0 0 0-5.92-4.288 5.329 5.329 0 0 0-3.548 1.325 5.417 5.417 0 0 0-2.03 4.056 4.301 4.301 0 0 0 1.671 3.443 3.913 3.913 0 0 0 2.347.83 3.534 3.534 0 0 0 1.992-.623c.517-.346.93-.827 1.192-1.392a3.03 3.03 0 0 0 .257-1.248 3.565 3.565 0 0 0-.194-1.167 1.3 1.3 0 0 0-1.657-.777 1.294 1.294 0 0 0-.787 1.651l-.004.002.005.017c.024.09.036.182.037.274a.453.453 0 0 1-.03.186v.001a.854.854 0 0 1-.285.306.93.93 0 0 1-.526.17 1.314 1.314 0 0 1-.792-.314 1.715 1.715 0 0 1-.626-1.36 2.835 2.835 0 0 1 1.147-2.103 2.716 2.716 0 0 1 1.831-.677 3.813 3.813 0 0 1 3.475 2.573c.158.436.239.896.238 1.36a5.496 5.496 0 0 1-1.388 3.446 3.768 3.768 0 0 1-1.466.964 6.361 6.361 0 0 1-2.32.43 6.173 6.173 0 0 1-2.658-.587 6.59 6.59 0 0 1-3.601-5.613 6.597 6.597 0 0 1 1.07-3.466c.627-1 1.439-1.87 2.392-2.567a6.43 6.43 0 0 1 3.778-1.084 9.597 9.597 0 0 1 4.916 1.381 1.3 1.3 0 1 0 1.369-2.21 12.164 12.164 0 0 0-6.285-1.77 9.003 9.003 0 0 0-5.3 1.576 11.862 11.862 0 0 0-3.078 3.3 9.179 9.179 0 0 0-1.462 4.84 9.186 9.186 0 0 0 5.082 7.96ZM95.078 69.177l.001.001.004-.003a4.08 4.08 0 0 1 .787-.473c.194-.096.403-.153.618-.168.098.003.102.013.124.025.336.238.699.437 1.08.592.352.143.727.218 1.106.223a2.52 2.52 0 0 0 1.505-.506c.356-.298.687-.624.989-.977a.802.802 0 0 1 .165-.135l.005-.003h.014c.114.008.225.038.328.088.303.136.59.305.856.504.728.582 1.621.92 2.552.963a3.205 3.205 0 0 0 1.347-.304 10.3 10.3 0 0 0 1.167-.7.894.894 0 0 1 .467-.186c.285.032.555.143.779.321a1.298 1.298 0 0 0 1.977-1.364 1.297 1.297 0 0 0-.565-.819 4.038 4.038 0 0 0-2.191-.738 3.168 3.168 0 0 0-1.341.306c-.399.208-.786.441-1.157.697a.912.912 0 0 1-.483.188 1.951 1.951 0 0 1-1.04-.48 7.01 7.01 0 0 0-1.373-.79 3.45 3.45 0 0 0-1.323-.287c-.548 0-1.083.17-1.53.486-.384.3-.735.64-1.048 1.012a.997.997 0 0 1-.132.12.787.787 0 0 1-.127-.04 2.857 2.857 0 0 1-.554-.313 2.793 2.793 0 0 0-1.597-.483 4.546 4.546 0 0 0-2.15.63 6.48 6.48 0 0 0-.9.597 1.3 1.3 0 0 0 1.64 2.016Z"/></g></svg>