<svg xmlns="http://www.w3.org/2000/svg" width="200" height="200" fill="none"><path fill="#FFD93A" d="M133.254 130.401c0 2.096 5.764 3.795 12.875 3.795 7.11 0 12.875-1.699 12.875-3.795s-5.765-5.191-12.875-5.191c-7.111 0-12.875 3.095-12.875 5.191ZM117.274 164.036c-2.118-3.273-2.21-5.253 1.381-6.775 3.591-1.523 4.143-2.055 5.432-3.654 1.289-1.598 5.065-1.979 7.091-1.446 3-1.658 6.483-2.223 9.853-1.598a11.205 11.205 0 0 1 7.366 4.795s5.156.077 7.919 1.75c2.763 1.675 2.578 2.817 2.578 2.817s4.42.152 5.249 2.589a9.319 9.319 0 0 1 .368 4.543s-18.692 2.384-29.557.861a103.063 103.063 0 0 1-17.68-3.882ZM85.5 96.25c23.731 5.753 40-5 43-15s-4.25-23-31.5-23c0 0-31.25-10.5-40.5 4.75s12.5 29.25 29 33.25Z"/><path fill="#191C22" d="M102.007 111.354a55.736 55.736 0 0 0 16.741-2.247 28.43 28.43 0 0 0 15.249-10.666c3.355-4.741 5.126-10.425 5.984-16.523l-1.287-.18 1.287.18a49.52 49.52 0 0 0 .51-6.86 31.702 31.702 0 0 0-2.071-11.74c-2.197-5.575-6.36-10.553-13.088-14.506-6.73-3.96-16.012-6.945-28.616-8.718a109.844 109.844 0 0 0-15.227-1.166 55.658 55.658 0 0 0-16.748 2.25 28.253 28.253 0 0 0-15.2 10.675c-3.334 4.743-5.086 10.426-5.943 16.519a48.813 48.813 0 0 0-.503 6.788c-.058 4.02.65 8.014 2.084 11.77 2.207 5.588 6.382 10.578 13.111 14.54 6.732 3.969 16.004 6.959 28.574 8.726a109.185 109.185 0 0 0 15.143 1.158ZM56.435 50.232a24.381 24.381 0 0 1 3.041-2.442 1.302 1.302 0 0 1 2.014.808 1.3 1.3 0 0 1-.552 1.342 21.773 21.773 0 0 0-2.717 2.182 1.3 1.3 0 0 1-1.786-1.89Zm67.901 52.062c-.281.196-.566.387-.857.573a28.101 28.101 0 0 1-4.257 2.225l-.002.001c-.32.133-.647.265-.98.392a1.312 1.312 0 0 1-.995-.029 1.31 1.31 0 0 1-.682-.724 1.297 1.297 0 0 1 .753-1.678c.303-.115.602-.235.898-.359a25.446 25.446 0 0 0 3.862-2.017c.264-.169.52-.34.771-.515a1.305 1.305 0 0 1 1.446-.032 1.302 1.302 0 0 1 .043 2.163Zm-23.994-26.74a13.214 13.214 0 0 1 4.741-7.555 12.256 12.256 0 0 1 7.448-2.475 12.753 12.753 0 0 1 6.455 1.743 11.479 11.479 0 0 1 4.657 5.129 11.971 11.971 0 0 1 1.05 4.987 14.39 14.39 0 0 1-.255 2.668 3 3 0 1 1-5.897-1.106c.099-.515.15-1.038.153-1.562a5.965 5.965 0 0 0-.512-2.5 5.313 5.313 0 0 0-1.323-1.78 6.591 6.591 0 0 0-4.328-1.58 6.255 6.255 0 0 0-3.812 1.25 7.198 7.198 0 0 0-2.548 4.2 2.99 2.99 0 0 1-1.356 1.854 2.995 2.995 0 0 1-3.33-.142 3.004 3.004 0 0 1-1.193-1.962 2.973 2.973 0 0 1 .05-1.17ZM96.85 89.95a1.3 1.3 0 1 1 1.62 2.033 12.051 12.051 0 0 1-7.532 2.584 11.93 11.93 0 0 1-9.954-5.102 1.3 1.3 0 0 1 2.161-1.446 9.34 9.34 0 0 0 7.793 3.948 9.45 9.45 0 0 0 5.912-2.017ZM83.329 70.652a14.464 14.464 0 0 1-.255 2.668 3 3 0 0 1-5.898-1.107c.1-.514.15-1.037.153-1.56a5.96 5.96 0 0 0-.512-2.502 5.298 5.298 0 0 0-1.323-1.78 6.589 6.589 0 0 0-4.328-1.579 6.257 6.257 0 0 0-3.813 1.249 7.204 7.204 0 0 0-2.547 4.202 3 3 0 1 1-5.83-1.421 13.217 13.217 0 0 1 4.742-7.554 12.258 12.258 0 0 1 7.448-2.476 12.753 12.753 0 0 1 6.455 1.744 11.475 11.475 0 0 1 4.657 5.128 11.97 11.97 0 0 1 1.05 4.988Zm-3.316-25.92a44.051 44.051 0 0 0-12.992 2.193 1.3 1.3 0 0 1-.858-2.454 46.623 46.623 0 0 1 13.76-2.338 1.3 1.3 0 1 1 .09 2.599Z"/><path fill="#191C22" d="M183.55 157.776a5.282 5.282 0 0 0-.93-2.896 12.578 12.578 0 0 0-4.323-3.721 10.736 10.736 0 0 0 1.553-5.478 8.332 8.332 0 0 0-1.657-5.148 5.766 5.766 0 0 0-2.498-1.785 8.88 8.88 0 0 0-3.198-.555c-1.885.02-3.743.462-5.435 1.294-.499.244-.982.519-1.446.823.12-.42.239-.843.372-1.239.262-.878.636-1.719 1.111-2.502.024-.034.028-.074.047-.109.182-.179.349-.372.502-.577a3.466 3.466 0 0 0 .656-1.982 3.916 3.916 0 0 0-.61-2.007 9.769 9.769 0 0 0-2.99-2.883 27.64 27.64 0 0 0-7.838-3.393 40.65 40.65 0 0 0-10.737-1.434 38.52 38.52 0 0 0-15.289 3.047 18.572 18.572 0 0 0-4.814 2.954c-.09.081-.16.166-.245.248a7.35 7.35 0 0 0-1.217 1.461 3.916 3.916 0 0 0-.61 2.007c.01.713.239 1.405.656 1.982.124.165.258.322.4.472.024.074.055.145.093.213a13.882 13.882 0 0 1 1.709 4.413c.436 1.756.786 3.762 1.161 5.801a60 60 0 0 0-6.458 1.75c-.451.154-.888.312-1.316.472a64.628 64.628 0 0 1-2.47-6.719 6.528 6.528 0 0 0 2.199-2.524 7.167 7.167 0 0 0 .712-3.152 7.424 7.424 0 0 0-1.44-4.44 5.845 5.845 0 0 0-1.772-1.574 5.324 5.324 0 0 0-1.996-.646 3.24 3.24 0 0 1 .338-1.472 1.823 1.823 0 0 1 1.166-.81 5.625 5.625 0 0 1 1.63-.237 8.983 8.983 0 0 1 4.732 1.606 1.302 1.302 0 0 0 1.79-.401 1.301 1.301 0 0 0-.393-1.792h-.001a11.527 11.527 0 0 0-6.128-2.013 8.225 8.225 0 0 0-2.378.347 4.434 4.434 0 0 0-2.66 1.984 4.662 4.662 0 0 0-.378.855 7.494 7.494 0 0 0-.737-1.112 3.638 3.638 0 0 0-1.215-.995 9.395 9.395 0 0 0-1.591-.554 58.943 58.943 0 0 0-9.205-1.326 151.93 151.93 0 0 0-3.853-.268v-2c1.83.096 3.623.162 5.34.162a63.906 63.906 0 0 0 21.264-3.198 37.441 37.441 0 0 0 19.709-15.347 44.227 44.227 0 0 0 2.888-5.27c.178.124.385.2.6.22a16.521 16.521 0 0 0 3.57-.181 8.56 8.56 0 0 0 3.138-1.094 6.5 6.5 0 0 0 1.576-1.53 19.325 19.325 0 0 0 2.187-3.775 33.251 33.251 0 0 0 1.859-5.3 31.957 31.957 0 0 0 1.122-7.797 9.711 9.711 0 0 0-.589-3.763 6.944 6.944 0 0 0-1.801-2.36c-.012-.01-.025-.018-.038-.03a8.324 8.324 0 0 0 2.034-2.602 23.516 23.516 0 0 0 1.934-5.53c2.302-9.671 6.299-27.135 7.331-32.096a8.967 8.967 0 0 0 .201-1.819 5.08 5.08 0 0 0-1.166-3.422 5.13 5.13 0 0 0-2.654-1.56 5.956 5.956 0 0 0-1.472-.189 4.901 4.901 0 0 0-3.117 1.071 6.097 6.097 0 0 0-1.998 3.424c-.993 4.129-4.594 20.095-6.934 30.507a47.396 47.396 0 0 0-2.127-9.72 39.42 39.42 0 0 0-15.702-20.36c-8.049-5.485-19.11-9.475-33.973-11.565a112.022 112.022 0 0 0-15.56-1.168 62.762 62.762 0 0 0-21.857 3.47A39.193 39.193 0 0 0 42.13 37.227 49.132 49.132 0 0 0 38.22 45c.618-10.626 1.592-27.546 1.78-31.875.005-.13.008-.255.008-.38a6.542 6.542 0 0 0-.428-2.425 4.812 4.812 0 0 0-2.016-2.392 5.599 5.599 0 0 0-2.71-.759l-.194-.003a5.474 5.474 0 0 0-1.765.278 4.525 4.525 0 0 0-2.333 1.798 7.095 7.095 0 0 0-1.06 3.467c-.376 5.054-1.348 22.943-1.8 32.874-.027.592-.04 1.153-.04 1.683a16.678 16.678 0 0 0 .891 6.048c.232.602.549 1.168.942 1.68-.651.37-1.234.85-1.72 1.42a7.301 7.301 0 0 0-1.079 1.913 28.216 28.216 0 0 0-1.595 9.346c-.007.286-.01.569-.01.849-.016 2.237.215 4.47.69 6.656.184.837.437 1.657.755 2.453a6.314 6.314 0 0 0 1.046 1.786 9.878 9.878 0 0 0 3.84 2.394c.714.271 1.446.494 2.19.666a43.06 43.06 0 0 0 1.896 7.545 37.958 37.958 0 0 0 15.862 19.549c6.779 4.375 15.666 7.741 27.095 9.948v4.274c-1.694.106-3.32.234-4.831.381-2.093.205-3.966.447-5.516.727-.776.14-1.472.29-2.081.453a9.431 9.431 0 0 0-1.592.554c-.472.24-.887.579-1.215.995a8.892 8.892 0 0 0-1.11 1.833 3.867 3.867 0 0 0-1.328-1.255 6.803 6.803 0 0 0-3.41-.744c-.3 0-.614.011-.94.033a11.48 11.48 0 0 0-5.332 1.866 24.043 24.043 0 0 0-6.48 6.459 35.41 35.41 0 0 0-4.234 7.965 6.955 6.955 0 0 0-.841-.055c-.088 0-.176.006-.264.01a19.505 19.505 0 0 1-1.237-3.732 12.376 12.376 0 0 0-2.096-5.171 5.632 5.632 0 0 0-1.617-1.464 3.896 3.896 0 0 0-1.962-.549 3.79 3.79 0 0 0-1.98.574c-.487.291-.877.72-1.12 1.233-.206.458-.31.956-.3 1.458.06 1.016.27 2.017.619 2.973.267.723.447 1.475.536 2.241l.002.17a3.538 3.538 0 0 1-.41 1.823.916.916 0 0 1-.261.292l-.11.039c-.03 0-.056.015-.086.017a22.566 22.566 0 0 0-1.078-.035 15.3 15.3 0 0 0-3.32.328 7.234 7.234 0 0 0-1.461.485c-.472.21-.897.515-1.247.895a4.92 4.92 0 0 0-.883 1.561 13.11 13.11 0 0 0-.645 2.909 27.979 27.979 0 0 0-.186 3.325 32.376 32.376 0 0 0 .256 4.118c.082.623.182 1.199.302 1.714.102.474.25.937.444 1.382.22.48.54.907.938 1.253a4.773 4.773 0 0 0 1.96.985 8.732 8.732 0 0 0 2.166.248 17.726 17.726 0 0 0 4.118-.558l.056-.015c.07.213.195.404.363.554a10.92 10.92 0 0 0 6.915 2.317 10.613 10.613 0 0 0 5.556-1.494 8.891 8.891 0 0 0 1.624-1.285c.897.256 1.825.388 2.757.39a9.7 9.7 0 0 0 5.456-1.653 10.291 10.291 0 0 0 3.583-4.431c-.635 6.978-1.002 14.419-1.003 21.416-.044 5.468.245 10.933.867 16.366a1.3 1.3 0 0 0 2.58-.326 100.115 100.115 0 0 1-.594-6.718 162.51 162.51 0 0 1-.253-9.322l.002-.431a63.414 63.414 0 0 0 12.087 2.251 157.79 157.79 0 0 0 15.9.74 184.47 184.47 0 0 0 20.499-1.091c2.511-.293 4.715-.637 6.561-1.02.069-.007.135-.01.204-.017l.034-.003.05-.005c.108-.02.212-.053.311-.1.081-.018.175-.035.254-.053.879-.193 1.745-.44 2.594-.738.024-.009.041-.019.065-.027l.003.493a135.918 135.918 0 0 1-.749 15.19c-.033.284-.063.575-.098.851a1.3 1.3 0 0 0 2.58.326 134.59 134.59 0 0 0 .867-16.367c0-2.259-.04-4.565-.114-6.887a38.72 38.72 0 0 0 5.691 2.321 46.934 46.934 0 0 0 6.024 1.514c.991.547 2.038.984 3.123 1.305.124.562.292 1.112.504 1.647a6.474 6.474 0 0 0 1.211 1.978c.336.349.731.636 1.166.849.697.338 1.43.591 2.186.756.106.025.224.043.332.066.016.031.024.068.041.098.34.553.824 1.004 1.4 1.304a9.239 9.239 0 0 0 2.686.919 14.73 14.73 0 0 0 2.786.279c.355.002.709-.016 1.061-.055a8.485 8.485 0 0 0 3.333-.986 29.038 29.038 0 0 0 3.663-.39 4.862 4.862 0 0 0 1.561-.595 5.283 5.283 0 0 0 2.022-2.344c.476-1.079.785-2.226.915-3.399a16.246 16.246 0 0 0 3.536-1.433 46.367 46.367 0 0 0 9.688-2.88 24.562 24.562 0 0 0 7.157-4.473 11.504 11.504 0 0 0 3.837-7.55 1.272 1.272 0 0 0-.095-.565c.083-.337.128-.683.132-1.03v-.001Zm-4.865-3.258a7.57 7.57 0 0 1 1.759 1.786c.311.43.486.942.506 1.472a2.484 2.484 0 0 1-.493 1.41 10.137 10.137 0 0 1-3.899 2.935 44.197 44.197 0 0 1-10.847 3.327c.006-.186.011-.377.012-.571v-.028a5.739 5.739 0 0 0-1.209-3.656 6.548 6.548 0 0 0-2.74-1.954l.4-1.2c.738.128 1.485.192 2.233.192a16.664 16.664 0 0 0 3.756-.455c.978-.228 1.94-.52 2.879-.874a14.807 14.807 0 0 0 5.668-3.654 16.18 16.18 0 0 1 1.975 1.27Zm-61.197 7.573a5.786 5.786 0 0 1-.08-.656 11.274 11.274 0 0 1-.037-.837l.004-.176v-.005c.009-.207.07-.409.176-.588a2.628 2.628 0 0 1 1.095-.913 9.375 9.375 0 0 1 2.639-.793 15.148 15.148 0 0 0-.127 5.559 30.815 30.815 0 0 1-3.668-1.461 1.128 1.128 0 0 0-.002-.13Zm6.072-.854a12.075 12.075 0 0 1 1.509-5.927c.018-.047.034-.095.047-.145.36-.375.797-.67 1.28-.863a6.503 6.503 0 0 1 2.518-.435c.398.002.795.024 1.191.067-.477.78-.888 1.599-1.228 2.448a18.091 18.091 0 0 0-1.247 6.49c0 .848.078 1.693.234 2.526a61.21 61.21 0 0 1-3.855-.879 11.746 11.746 0 0 1-.449-3.282Zm6.67 1.635a15.508 15.508 0 0 1 1.067-5.541 11.774 11.774 0 0 1 3.199-4.69c.006-.006.009-.014.015-.02a11.67 11.67 0 0 1 2.877-.852 9.287 9.287 0 0 1 1.516-.119c1.482.014 2.95.286 4.339.803a8.111 8.111 0 0 1 3.016 1.813c.137.144.254.306.35.481a7.834 7.834 0 0 0-2.254 1.718 11.73 11.73 0 0 0-2.401 4.309 15.701 15.701 0 0 0-.753 4.756c-.001.479.025.957.077 1.433a99.048 99.048 0 0 1-10.609-1.068 9.619 9.619 0 0 1-.438-3.023h-.001Zm13.571 2.658a12.837 12.837 0 0 1 1.115-5.211 8.217 8.217 0 0 1 1.358-2.1c.495-.558 1.107-1 1.791-1.296.028-.011.046-.035.073-.049.142-.012.63-.05 1.333-.05 1.559-.022 3.112.2 4.602.658.355.12.701.266 1.034.437-.47.354-.872.79-1.187 1.287a14.179 14.179 0 0 0-2.224 7.539c0 .085.006.172.008.257a113.271 113.271 0 0 1-7.775.059 9.461 9.461 0 0 1-.128-1.531Zm10.495 1.216c.001-.736.076-1.469.226-2.188a11.81 11.81 0 0 1 1.585-3.946c.192-.331.473-.601.811-.781l.023-.013a1.08 1.08 0 0 1 .125-.042c.077.155.142.315.197.478a1.301 1.301 0 0 0 1.212.894 7.56 7.56 0 0 1 2.584.608c.568.242 1.068.62 1.456 1.101.424.575.638 1.278.608 1.992v.02c-.001.354-.018.721-.037 1.036-2.731.43-5.678.756-8.786.958-.001-.039-.004-.079-.004-.117Zm13.899-24.919a10.036 10.036 0 0 1 4.302-1.034 6.31 6.31 0 0 1 2.26.38 3.18 3.18 0 0 1 1.39.964 5.753 5.753 0 0 1 1.103 3.544 8.272 8.272 0 0 1-1.619 4.812 11.6 11.6 0 0 1-5.499 3.974 16.335 16.335 0 0 1-5.724 1.164c-.93.005-1.857-.117-2.754-.361a1.283 1.283 0 0 0-1.424.571 1.272 1.272 0 0 0-.154.271l-.198.594-.357 1.07-.224.672a6.058 6.058 0 0 0-.41-.672l-.003-.003a6.452 6.452 0 0 0-1.127-1.213 10.026 10.026 0 0 0-4.344-1.948 19.185 19.185 0 0 0-4.232-.386 4.249 4.249 0 0 0-1.021-1.734 10.586 10.586 0 0 0-4.011-2.476 15.323 15.323 0 0 0-5.245-.966c-.649-.002-1.298.05-1.939.154a13.116 13.116 0 0 0-5.387 2.085c-.619-2.391-1.066-5.16-1.571-7.806a46.964 46.964 0 0 0-1.07-4.596c-.012-.037-.025-.072-.036-.109a33.492 33.492 0 0 0 6.62 1.744c3.507.57 7.055.849 10.608.834a55.793 55.793 0 0 0 15.128-1.856 24.7 24.7 0 0 0 2.108-.732 42.876 42.876 0 0 0-.84 3.09 48.811 48.811 0 0 0-.38 1.759 1.324 1.324 0 0 0 .329 1.675 1.298 1.298 0 0 0 1.82-.26 10.678 10.678 0 0 1 3.901-3.205Zm-41.403-8.593a7.356 7.356 0 0 1 2.206-2.061 23.048 23.048 0 0 1 5.307-2.499c.572-.194 1.162-.38 1.78-.55a38.03 38.03 0 0 1 10.044-1.34c4.022-.009 8.02.633 11.837 1.901.85.288 1.66.594 2.395.921a16.101 16.101 0 0 1 4.134 2.514c.376.322.703.697.971 1.114.136.198.219.428.238.667a.866.866 0 0 1-.192.499 5.52 5.52 0 0 1-2.098 1.523 27.528 27.528 0 0 1-7.112 2.035 61.786 61.786 0 0 1-10.173.798 53.305 53.305 0 0 1-14.393-1.75 14.641 14.641 0 0 1-4.098-1.776 3.541 3.541 0 0 1-.892-.83.866.866 0 0 1-.192-.499c.019-.239.101-.47.238-.667Zm1.67 16.093c.077.376.155.751.238 1.121.062.28.139.544.206.82a8.855 8.855 0 0 0-3.79.757 6.004 6.004 0 0 0-3.153 3.382c-.919.09-1.828.26-2.718.506a8.23 8.23 0 0 0-2.807 1.336c-.204.16-.395.337-.572.527a4.256 4.256 0 0 0-.555.733 3.878 3.878 0 0 0-.532 1.76 5.72 5.72 0 0 0-.008.322 6.472 6.472 0 0 1-1.394-1.405 2.484 2.484 0 0 1-.493-1.409v-.001c.02-.529.195-1.042.506-1.472a10.876 10.876 0 0 1 3.929-3.168 43.587 43.587 0 0 1 11.143-3.809Zm23.847-80.639c1.458-6.5 7.381-32.88 8.685-38.305a3.522 3.522 0 0 1 1.106-2.01 2.29 2.29 0 0 1 1.482-.493c.28.001.559.038.83.108.51.107.976.367 1.334.747a2.48 2.48 0 0 1 .528 1.716 6.427 6.427 0 0 1-.146 1.29c-1.017 4.888-5.02 22.384-7.315 32.022a17.073 17.073 0 0 1-2.261 5.831 4.33 4.33 0 0 1-1.001 1.046c-.155.109-.32.201-.493.276a18.642 18.642 0 0 0-.921-.473 16.302 16.302 0 0 0-1.717-.705 1.259 1.259 0 0 0-.337-.04l.226-1.01Zm-1.239 10.209-1.288-.181 1.288.18c.314-2.234.542-4.447.684-6.636.785.288 1.545.64 2.272 1.053.612.34 1.185.745 1.712 1.207.459.39.833.872 1.095 1.414.289.876.414 1.797.369 2.717a29.456 29.456 0 0 1-1.038 7.14 28.946 28.946 0 0 1-2.348 6.18 14.148 14.148 0 0 1-1.237 1.96 4.13 4.13 0 0 1-.91.924 6.084 6.084 0 0 1-2.176.727 13.97 13.97 0 0 1-2.728.163 71.29 71.29 0 0 0 4.305-16.848ZM30.3 45.702c.449-9.898 1.424-27.82 1.794-32.8.03-.578.15-1.15.356-1.692.165-.469.484-.868.905-1.132.4-.219.85-.326 1.305-.31l.116.001a2.768 2.768 0 0 1 1.825.67c.248.234.44.522.562.841.174.47.257.967.245 1.466 0 .087-.002.176-.006.267-.137 3.18-.712 13.37-1.252 22.745-.27 4.69-.53 9.18-.724 12.496l-.3 5.127c-.806.076-1.605.205-2.393.387-.206.048-.427.12-.641.18a3.296 3.296 0 0 1-1.12-1.586 14.235 14.235 0 0 1-.71-5.095c0-.488.012-1.01.037-1.565Zm1.845 33.603a7.202 7.202 0 0 1-2.622-1.616 3.927 3.927 0 0 1-.583-1.05 15.792 15.792 0 0 1-.88-3.348 29.685 29.685 0 0 1-.369-4.768c0-.26.003-.522.01-.787.035-2.1.28-4.192.735-6.242.167-.746.39-1.477.67-2.188.162-.44.387-.854.668-1.23.418-.464.93-.834 1.502-1.085.963-.43 1.98-.728 3.024-.884.218-.036.42-.063.603-.086a92.48 92.48 0 0 0-1.132 6.39c-.54 3.71-.82 7.453-.839 11.201a58.58 58.58 0 0 0 .31 6.075c-.324-.099-.7-.225-1.097-.382Zm13.953 22.739a33.97 33.97 0 0 1-8.14-12.89 46.327 46.327 0 0 1-2.426-15.541c.02-3.628.291-7.25.814-10.84 1.706-12.148 5.5-22.817 12.86-30.41a37.026 37.026 0 0 1 14.01-8.986 60.19 60.19 0 0 1 20.955-3.308c5.086.027 10.165.41 15.198 1.143a92.51 92.51 0 0 1 24.21 6.4c9.745 4.273 16.127 9.988 20.129 16.713 3.997 6.727 5.624 14.524 5.625 22.998a80.902 80.902 0 0 1-.838 11.212 68.386 68.386 0 0 1-4.231 16.504c-3.06 7.413-7.624 13.424-14.402 17.639-6.781 4.212-15.848 6.644-27.973 6.645-5.4-.033-10.793-.441-16.137-1.223-19.47-2.735-32.013-8.426-39.653-16.056Zm-13.365 38.464v-.003a11.537 11.537 0 0 0-.652-2.94 8.587 8.587 0 0 1-.503-2.2.856.856 0 0 1 .054-.352c.026-.044.024-.056.121-.12.187-.122.404-.189.626-.193.233.006.46.074.657.198a3.862 3.862 0 0 1 1.317 1.5 11.545 11.545 0 0 1 1.15 3.386 32.206 32.206 0 0 0 2.017 5.777 16.72 16.72 0 0 1 1.322 6.271l.001.25c.002 2.814-.612 4.516-1.383 5.45-.35.435-.802.777-1.318.994a3.93 3.93 0 0 1-.89.244 4.765 4.765 0 0 0 .302-1.74 8.721 8.721 0 0 0-.204-1.795c.162-.258.293-.535.389-.824a4.915 4.915 0 0 0 .226-1.525 8.723 8.723 0 0 0-.47-2.644 10.644 10.644 0 0 0-.136-.389c.125-.193.234-.397.324-.608.225-.55.34-1.139.34-1.734a4.351 4.351 0 0 0-.375-1.784 3.95 3.95 0 0 0-1.277-1.574 4.548 4.548 0 0 0-1.23-.598 10.157 10.157 0 0 0-.886-.238c.01-.023.022-.043.031-.066.31-.797.463-1.647.45-2.502l-.003-.241Zm-6.218 18.98a5.291 5.291 0 0 1-1.893-.287 1.84 1.84 0 0 1-.525-.306 1.1 1.1 0 0 1-.284-.378 4.972 4.972 0 0 1-.274-.885 25.402 25.402 0 0 1-.49-5.244c-.012-1.306.088-2.61.299-3.899.082-.487.205-.966.37-1.431.086-.267.219-.518.39-.741l-.972-.862.973.862c.117-.113.255-.203.406-.266a5.863 5.863 0 0 1 1.543-.418 14.218 14.218 0 0 1 2.133-.148 17.06 17.06 0 0 1 3.01.259c.376.066.747.158 1.111.275.184.055.36.133.524.233.193.139.345.326.442.543.098.226.147.47.145.716 0 .253-.047.503-.141.737-.012.03-.025.044-.038.07l-6.655.27a1.31 1.31 0 0 0-.91.414 1.308 1.308 0 0 0-.346.938 1.299 1.299 0 0 0 1.362 1.246l6.287-.256c.02.058.04.11.06.172.195.575.304 1.177.323 1.784.005.244-.028.486-.098.719a1.26 1.26 0 0 1-.113.253l-6.483.273a1.297 1.297 0 0 0-1.244 1.353 1.3 1.3 0 0 0 1.354 1.245l6.139-.259c.021.186.033.373.035.56.01.279-.034.558-.13.82a.536.536 0 0 1-.283.31 14.49 14.49 0 0 1-2.534.846 15.153 15.153 0 0 1-3.493.482Zm18.441-2.417a6.53 6.53 0 0 1-2.795 3.606 8.016 8.016 0 0 1-4.194 1.109c-.909 0-1.813-.133-2.684-.396a6.602 6.602 0 0 0 1.87-.469 6.24 6.24 0 0 0 3.177-3.083 12.913 12.913 0 0 0 1.113-5.756c0-.092 0-.186-.002-.282a18.612 18.612 0 0 0-1.103-6.117 4.76 4.76 0 0 1 1.446.504 6.785 6.785 0 0 1 2.667 2.848 9.817 9.817 0 0 1 1.083 4.549 10.93 10.93 0 0 1-.578 3.487Zm11.77-8.908c-.752 2.719-1.477 5-1.906 6.154a7.83 7.83 0 0 1-2.917 3.874 6.967 6.967 0 0 1-2.56 1.047 6.313 6.313 0 0 0 .398-8.516 6.309 6.309 0 0 0-2.498-1.816 10.99 10.99 0 0 0-1.5-2.652 8.794 8.794 0 0 0-2.716-2.35c-.046-.025-.096-.043-.143-.068a32.363 32.363 0 0 1 5.645-9.498 18.636 18.636 0 0 1 3.967-3.502 8.899 8.899 0 0 1 4.118-1.47c.276-.019.532-.028.769-.028a5.66 5.66 0 0 1 1.648.202 1.361 1.361 0 0 1 1.045.837c-.15.068-.3.138-.442.219a6.117 6.117 0 0 0-2.395 2.572 7.603 7.603 0 0 0-.817 3.441 7.168 7.168 0 0 0 .713 3.152c.32.643.744 1.228 1.255 1.732a129.879 129.879 0 0 1-1.664 6.67Zm60.348 25.835c-.296.17-.607.311-.929.422-.933.318-1.886.575-2.853.767-.503.049-.999.086-1.477.086a17.59 17.59 0 0 1-5.195-.844c-2.545-.771-5.129-1.982-8.154-3.027a32.036 32.036 0 0 0-10.76-1.895 35.132 35.132 0 0 0-13.61 2.973c-1.842.728-3.54 1.435-5.207 1.95-1.628.536-3.327.82-5.04.843a13.984 13.984 0 0 1-1.807-.119 34.344 34.344 0 0 1-3.476-.978 233.34 233.34 0 0 1 2.281-29.231c.168-1.134.343-2.229.526-3.285.016-.04.03-.081.042-.123.359-1.717.762-3.781 1.11-5.597.246-1.04.498-2.007.756-2.872.34-1.223.792-2.412 1.348-3.553.168-.337.37-.656.603-.952.09-.122.202-.226.33-.306a7.02 7.02 0 0 1 1.146-.39 56.895 56.895 0 0 1 8.752-1.247l.016-.001a18.058 18.058 0 0 0 11.826 4.326 20.82 20.82 0 0 0 7.17-1.301 15.77 15.77 0 0 0 4.966-2.834c.073-.07.139-.148.194-.233.728.058 1.443.119 2.125.186 2.042.2 3.858.436 5.307.698a23.74 23.74 0 0 1 1.871.406c.393.097.776.227 1.146.39.129.08.241.184.331.306a8.737 8.737 0 0 1 1.189 2.262 49.577 49.577 0 0 1 2.146 7.998c.708 3.557 1.335 7.765 1.851 12.303a18.8 18.8 0 0 0-2.026 1.325 10.112 10.112 0 0 0-2.358 2.429 5.274 5.274 0 0 0-.93 2.896v.001c.006.602.127 1.196.357 1.753a11.54 11.54 0 0 0 3.817 7.392c.771.72 1.599 1.376 2.476 1.962.066 1.715.113 3.423.14 5.114Zm22.384 4.114a5.856 5.856 0 0 1-.963-.371 1.655 1.655 0 0 1-.446-.304 3.888 3.888 0 0 1-.674-1.118c.1.02.195.042.296.062.412.079.855.142 1.288.21 1.021.161 2.079.302 3.199.4-.011.151-.022.304-.038.46-.035.372-.088.743-.162 1.11l-.01.047a22.261 22.261 0 0 1-1.189-.188c-.438-.08-.873-.183-1.301-.308Zm8.048 2.727c-.254.027-.51.04-.766.038a12.034 12.034 0 0 1-2.777-.347c.029-.031.057-.063.083-.097.244-.482.412-1 .496-1.534.015-.081.026-.163.039-.244.084-.51.139-1.03.174-1.503.753.029 1.516.049 2.296.049l.016-.003c.006 0 .011.004.017.004v-.001c.853 0 1.691-.018 2.513-.054l-.003.032c-.032.452-.071.941-.117 1.422-.046.492-.1.974-.158 1.39-.023.167-.048.32-.072.461a7.586 7.586 0 0 1-1.741.387Zm8.184-2.258c-.16.24-.367.445-.609.602a2.105 2.105 0 0 1-.796.314c-.767.135-1.541.228-2.318.279.11-.931.192-1.97.248-2.809a44.665 44.665 0 0 0 4.248-.586l.088-.019a5.965 5.965 0 0 1-.861 2.219Zm22.198-13.547c-2.592 2.469-6.542 4.202-9.831 5.253a46.334 46.334 0 0 1-4.182 1.13c-.53.117-.956.2-1.247.254-.145.027-.256.046-.33.059l-.104.017c-.17.026-.333.086-.48.176a18.17 18.17 0 0 1-5.739 1.904c-2.933.532-5.91.792-8.891.774-.006 0-.011.004-.017.004l-.016-.004a48.204 48.204 0 0 1-8.892-.774 18.138 18.138 0 0 1-5.738-1.904c-.147-.09-.31-.15-.48-.176l-.043-.007a43.529 43.529 0 0 1-9.693-2.926 21.156 21.156 0 0 1-6.12-3.934c-.284-.28-.543-.569-.791-.862.268.146.544.291.829.433a49.138 49.138 0 0 0 12.985 3.824 105.933 105.933 0 0 0 17.809 1.426c9.865-.002 18.794-1.195 25.359-3.167a31.008 31.008 0 0 0 6.839-2.85c-.375.48-.785.932-1.227 1.35Z"/><path fill="#FFD93A" d="M146.392 119.089a12.335 12.335 0 0 1-2.612-1.254 1.61 1.61 0 0 1-.355-.314l-.005-.007-.185.116.206-.065-.021-.051-.185.116.206-.065-.485.154h.508l-.023-.154-.485.154h.04l.408.244a.507.507 0 0 0 .06-.244h-.468l.408.244-.003-.002.004.004-.001-.002-.003-.002.004.004c.171-.159.365-.29.577-.387a16.425 16.425 0 0 1 2.564-.963c1.57-.485 3.382-.948 4.884-1.471a10.805 10.805 0 0 0 2.02-.893c.306-.18.584-.404.825-.666a2.105 2.105 0 0 0 .559-1.451c0-.51-.16-1.007-.457-1.422a3.18 3.18 0 0 0-.941-.856 7.463 7.463 0 0 0-2.24-.835 35.57 35.57 0 0 0-5.141-.645c-2.841-.204-5.955-.32-8.426-.654a15.134 15.134 0 0 1-3.049-.662 3.697 3.697 0 0 1-.84-.411.834.834 0 0 1-.275-.273 1.298 1.298 0 0 0-2.389.193c-.107.326-.081.682.073.988.224.427.539.8.924 1.091a6.962 6.962 0 0 0 2.415 1.11c1.836.445 3.708.722 5.593.829 3.075.244 6.408.347 8.881.679.962.095 1.908.314 2.814.651.174.065.333.163.471.287l.01.013.129-.083h-.152l.023.083.129-.083h-.152.002-.002.002-.002l.525.055-.429-.328a.564.564 0 0 0-.096.272l.525.056-.429-.328.035.027-.033-.03-.002.003.035.027-.033-.03a2.221 2.221 0 0 1-.562.349c-.849.377-1.725.69-2.621.937-1.607.483-3.459.961-4.987 1.529a9.427 9.427 0 0 0-2.051.999c-.314.21-.591.472-.818.775a2.162 2.162 0 0 0-.429 1.272c.007.476.164.938.45 1.32a4.94 4.94 0 0 0 1.579 1.309c.827.458 1.69.85 2.579 1.173a1.295 1.295 0 0 0 1.669-.759 1.3 1.3 0 0 0-.749-1.673Z"/><path fill="#191C22" d="M163.927 147.382a2 2 0 0 1-.399.144l-.059.01.001.009a1.284 1.284 0 0 0-1.143.92 1.611 1.611 0 0 0-.042.104c-.03.061-.056.125-.076.191-.222 1.209-.455 1.969-.756 3.202l-.001.001v.001l-.016.067v.001a1.288 1.288 0 0 0 .306 1.187 1.293 1.293 0 0 0 1.158.401 13.137 13.137 0 0 0 7.609-1.202 9.497 9.497 0 0 0 3.531-2.888 6.123 6.123 0 0 0 1.261-3.545 3.91 3.91 0 0 0-.801-2.439 2.724 2.724 0 0 0-1.19-.862 3.756 3.756 0 0 0-1.34-.229 7.463 7.463 0 0 0-3.419.979 9.309 9.309 0 0 0-2.977 2.515h-.001a4.693 4.693 0 0 1-1.646 1.433Zm5.861-1.661a4.976 4.976 0 0 1 2.182-.666c.14-.005.281.015.415.059l.069.036c.175.242.262.537.247.835a3.575 3.575 0 0 1-.765 2.018c-.077.107-.175.213-.265.319a57.25 57.25 0 0 0-3.79-1.078 6.893 6.893 0 0 1 1.907-1.523Zm-4.131 3.667c1.176.261 2.307.542 3.375.845-1.359.605-2.83.918-4.317.919-.138 0-.248-.009-.372-.013.098-.387.193-.796.287-1.241.13-.047.262-.096.409-.166.213-.101.42-.217.618-.344Z"/></svg>