<svg xmlns="http://www.w3.org/2000/svg" width="200" height="200" fill="none"><path fill="#BEBEC9" d="M161.234 105.978a1.311 1.311 0 0 0-.98.171 1.292 1.292 0 0 0-.572.815v-.001a34.529 34.529 0 0 1-2.628 7.547 1.301 1.301 0 0 0 2.34 1.134 37.069 37.069 0 0 0 2.825-8.114 1.311 1.311 0 0 0-.171-.98 1.306 1.306 0 0 0-.814-.572ZM41.609 120.318a36.408 36.408 0 0 1-6.19-17.642 49.753 49.753 0 0 1-.21-4.566c-.001-15.696 7.402-30.212 18.97-40.825a65.304 65.304 0 0 1 43.713-17.27c15.567-.003 30.508 6.27 41.893 16.123 11.388 9.852 19.184 23.257 20.579 37.42a1.313 1.313 0 0 0 .469.876c.132.109.284.19.448.24a1.307 1.307 0 0 0 1.382-.42c.108-.132.189-.284.239-.448.049-.163.066-.335.049-.504a57.39 57.39 0 0 0-12.132-29.275 18.942 18.942 0 0 0 3.718-3.79 21.048 21.048 0 0 0 4.033-12.444 20.34 20.34 0 0 0-1.881-8.615 18.231 18.231 0 0 0-5.714-6.993 19.307 19.307 0 0 0-11.508-3.675 21.004 21.004 0 0 0-16.814 8.247 18.928 18.928 0 0 0-2.538 4.745 63.851 63.851 0 0 0-22.222-4.087 65.756 65.756 0 0 0-21.64 3.71 18.924 18.924 0 0 0-2.392-4.368 21.007 21.007 0 0 0-16.814-8.247 19.308 19.308 0 0 0-11.508 3.675 18.232 18.232 0 0 0-5.715 6.993 20.332 20.332 0 0 0-1.88 8.615 21.048 21.048 0 0 0 4.033 12.443 18.952 18.952 0 0 0 3.004 3.214A56.456 56.456 0 0 0 32.61 98.11c0 1.59.073 3.191.22 4.803a39.017 39.017 0 0 0 6.639 18.88 1.303 1.303 0 0 0 1.804.327 1.3 1.3 0 0 0 .337-1.802Zm83.137-82.02a18.424 18.424 0 0 1 14.721-7.188 16.709 16.709 0 0 1 9.967 3.169 15.635 15.635 0 0 1 4.901 6.002 17.742 17.742 0 0 1 1.634 7.512 18.448 18.448 0 0 1-3.525 10.902 16.363 16.363 0 0 1-3.254 3.307 69.037 69.037 0 0 0-7.704-7.83 70.331 70.331 0 0 0-18.953-11.72 16.37 16.37 0 0 1 2.213-4.153ZM44.071 58.696a18.453 18.453 0 0 1-3.527-10.902 17.739 17.739 0 0 1 1.635-7.512 15.629 15.629 0 0 1 4.901-6.002 16.708 16.708 0 0 1 9.967-3.17 18.423 18.423 0 0 1 14.72 7.19 16.326 16.326 0 0 1 2.053 3.738 69.028 69.028 0 0 0-21.398 13.332 66.162 66.162 0 0 0-5.807 6.06 16.371 16.371 0 0 1-2.544-2.734ZM86.149 141.158c-13.61-1.255-25.273-4.791-33.944-10.584a1.293 1.293 0 0 0-.975-.194 1.291 1.291 0 0 0-.828.553 1.297 1.297 0 0 0 0 1.445 1.3 1.3 0 0 0 .36.358c9.164 6.115 21.235 9.724 35.147 11.011a1.3 1.3 0 1 0 .24-2.589ZM146.718 127.35c-11.12 9.126-28.362 14.335-48.825 14.33l-.46-.001a1.302 1.302 0 0 0-1.308 1.292 1.302 1.302 0 0 0 1.292 1.308l.476.001c20.894-.005 38.696-5.278 50.473-14.92a1.305 1.305 0 0 0 .429-1.385 1.295 1.295 0 0 0-.634-.773 1.286 1.286 0 0 0-.995-.095c-.164.05-.316.133-.448.243Z"/><path fill="#BEBEC9" d="M68.803 105.415a21.053 21.053 0 0 0 11.486-3.362 17.377 17.377 0 0 0 7.391-10.339 37 37 0 0 0 1.143-9.147 30.978 30.978 0 0 0-2.52-12.71 16.468 16.468 0 0 0-3.039-4.593 9.745 9.745 0 0 0-4.235-2.661 13.134 13.134 0 0 0-3.675-.48 25.058 25.058 0 0 0-13.787 4.668 23.442 23.442 0 0 0-9.699 14.398 26.953 26.953 0 0 0-.62 5.638 20.337 20.337 0 0 0 2.784 10.554 16.3 16.3 0 0 0 5.675 5.765 18.352 18.352 0 0 0 9.096 2.269Zm-12.54-9.37a17.729 17.729 0 0 1-2.415-9.218c.008-1.713.197-3.421.563-5.095a20.83 20.83 0 0 1 8.648-12.812 22.517 22.517 0 0 1 12.295-4.198c.994-.014 1.985.113 2.943.375a7.153 7.153 0 0 1 3.099 1.975 16.214 16.214 0 0 1 3.51 6.394 30.635 30.635 0 0 1 1.317 9.102 34.414 34.414 0 0 1-1.061 8.5 14.759 14.759 0 0 1-6.304 8.814 18.453 18.453 0 0 1-10.055 2.933c-2.723.043-5.41-.62-7.801-1.924v.001a13.743 13.743 0 0 1-4.739-4.846ZM141.772 97.38a20.341 20.341 0 0 0 2.784-10.554 26.989 26.989 0 0 0-.62-5.637 23.447 23.447 0 0 0-9.699-14.398 25.062 25.062 0 0 0-13.787-4.668 13.13 13.13 0 0 0-3.675.48 9.745 9.745 0 0 0-4.235 2.66 18.741 18.741 0 0 0-4.122 7.42 33.218 33.218 0 0 0-1.437 9.883 36.986 36.986 0 0 0 1.143 9.148 17.377 17.377 0 0 0 7.391 10.339 21.064 21.064 0 0 0 11.486 3.363 18.375 18.375 0 0 0 9.096-2.269v-.001a16.306 16.306 0 0 0 5.675-5.766Zm-6.97 3.512a15.793 15.793 0 0 1-7.801 1.924 18.463 18.463 0 0 1-10.055-2.934 14.753 14.753 0 0 1-6.303-8.814 34.382 34.382 0 0 1-1.062-8.502 28.431 28.431 0 0 1 2.282-11.623 13.902 13.902 0 0 1 2.545-3.87 7.153 7.153 0 0 1 3.099-1.975 10.564 10.564 0 0 1 2.943-.375 22.518 22.518 0 0 1 12.295 4.198 20.832 20.832 0 0 1 8.648 12.811c.366 1.674.555 3.381.563 5.094a17.728 17.728 0 0 1-2.416 9.22 13.73 13.73 0 0 1-4.738 4.846Z"/><path fill="#BEBEC9" d="M74.747 93.478c4.266-.078 6.866.396 7.137-2.358.227-2.299-2.828-6.774-7.137-6.711-5.314.077-9.193 4.5-8.324 7.06.715 2.105 4.057 2.086 8.324 2.01Zm-.35-6.82a2.831 2.831 0 1 1 .001 5.663 2.831 2.831 0 0 1 0-5.662ZM121.058 84.409c-4.31-.063-7.365 4.412-7.138 6.71.272 2.755 2.87 2.281 7.138 2.36 4.266.076 7.609.095 8.324-2.01.868-2.56-3.011-6.983-8.324-7.06Zm.348 7.913a2.833 2.833 0 0 1-2.776-3.384 2.83 2.83 0 0 1 3.86-2.064 2.828 2.828 0 0 1 1.533 3.7 2.826 2.826 0 0 1-1.533 1.532 2.829 2.829 0 0 1-1.084.216ZM97.893 117.984a10.178 10.178 0 0 0 6.297-2.094 15.421 15.421 0 0 0 4.725-6.736 21.092 21.092 0 0 0 1.127-3.972 1.295 1.295 0 0 0-.504-1.241 1.299 1.299 0 0 0-1.333-.137 8.053 8.053 0 0 1-1.525.477 40.598 40.598 0 0 1-7.552.805l-.007-.121c-.048-.899-.13-2.597-.173-4.285 3.218-.879 6.643-5.045 6.465-7.893-.233-3.724-13.478-3.582-14.818-.388-.874 2.086 2.547 6.91 5.749 8.154.041 1.786.129 3.58.18 4.532a42.969 42.969 0 0 1-4.302-.306 20.507 20.507 0 0 1-4.575-1.032 1.315 1.315 0 0 0-.678-.066 1.308 1.308 0 0 0-1.007.845 1.301 1.301 0 0 0-.053.679 23.51 23.51 0 0 0 2.234 6.123 14.697 14.697 0 0 0 3.485 4.4 9.568 9.568 0 0 0 5.837 2.248c.144.005.286.008.428.008Zm.354-8.71a5.384 5.384 0 0 1-3.955-1.275 2.94 2.94 0 0 1-.377-.459c1.284.097 2.584.162 3.881.162 1.634 0 3.231-.075 4.718-.202a2.396 2.396 0 0 1-.419.603 3.26 3.26 0 0 1-1.245.784 7.189 7.189 0 0 1-2.527.387h-.076Zm-6.305-1.079-.006.019.006-.019Zm1.046-.107.002.005-.002-.005Zm.378-.341.004.002-.004-.002Zm-3.858.362a21.634 21.634 0 0 1-.454-1.246 27.12 27.12 0 0 0 1.98.369c.004.033.008.066.014.1.081.422.228.829.436 1.206a5.728 5.728 0 0 0 2.161 2.218 8.947 8.947 0 0 0 4.586 1.117h.009l.083.001a9.324 9.324 0 0 0 3.829-.712 5.398 5.398 0 0 0 2.808-2.725c.181-.405.309-.831.383-1.268a27.643 27.643 0 0 0 1.61-.292 18.131 18.131 0 0 1-1.522 3.588 10.875 10.875 0 0 1-2.933 3.444 7.561 7.561 0 0 1-4.605 1.475c-.11 0-.222-.002-.337-.006a6.95 6.95 0 0 1-4.276-1.658 14.111 14.111 0 0 1-3.772-5.611ZM163.613 166.495a1.302 1.302 0 0 0-1.442-1.129 1.299 1.299 0 0 0-1.14 1.433c.944 7.993 1.477 15.55 1.773 21.104.149 2.777.238 5.053.29 6.634a208.905 208.905 0 0 1 .067 2.459 1.302 1.302 0 0 0 2.235.882c.239-.248.371-.581.365-.926-.001-.026-.244-14.322-2.148-30.457ZM35.137 171.265a1.306 1.306 0 0 0-1.273.683c-.08.15-.13.315-.147.485-1.321 13.547-1.507 24.497-1.508 24.519a1.3 1.3 0 1 0 2.6.044l.01-.487c.053-2.254.339-12.066 1.486-23.824a1.298 1.298 0 0 0-1.168-1.42Z"/><path fill="#FFE632" d="M194.042 116.147a6.952 6.952 0 0 0-1.16-1.546 5.875 5.875 0 0 0-1.452-1.087 4.594 4.594 0 0 0-2.133-.532c-.078 0-.159.012-.237.016a1.337 1.337 0 0 0-.186-.031c-.005 0-27.119.941-41.084 1.583a29.495 29.495 0 0 0 3.502-2.114c.036-.025.054-.062.086-.09a41.95 41.95 0 0 0 6.301-2.346c3.601-1.69 7.869-4.293 10.434-8.255a102.661 102.661 0 0 0 6.047-10.594 40.626 40.626 0 0 0 2.031-4.93c.485-1.363.758-2.792.81-4.237a6.354 6.354 0 0 0-.089-1.093c-.195-1.103-.623-2.707-1.163-4.565-1.618-5.55-4.237-13.197-4.24-13.206a1.302 1.302 0 0 0-2.187-.46 1.3 1.3 0 0 0-.341.81l-.032.555a221.98 221.98 0 0 1-.627 7.942c-.17 1.733-.374 3.527-.608 5.16a38.824 38.824 0 0 1-.786 4.17 16.08 16.08 0 0 1-1.062 2.537c-1.951 3.979-6.024 10.675-9.588 16.325a663.218 663.218 0 0 1-6.1 9.486c-.241.369-.402.612-.479.729a26.224 26.224 0 0 1-13.216 4.698c-.61.015-1.2.025-1.75.025a23.556 23.556 0 0 1-4.382-.308 5.317 5.317 0 0 1-1.233-.379 1.409 1.409 0 0 1-.517-.373 1.47 1.47 0 0 0-.567-.445 2.525 2.525 0 0 0-.614-.183 11.75 11.75 0 0 0-1.948-.127 21.109 21.109 0 0 0-2.384.129 7.472 7.472 0 0 0-1.017.182 2.93 2.93 0 0 0-.496.177 1.86 1.86 0 0 0-.301.178c-.145.105-.27.234-.369.383a2.05 2.05 0 0 1-.625.547 8.93 8.93 0 0 1-2.497.933 29.747 29.747 0 0 1-4.678.667 42.303 42.303 0 0 1-2.168.096l-.162.002c-.313 0-.615.113-.851.319-.236.206-.39.49-.434.8l-.001-.001a3.73 3.73 0 0 1-.309.925 3.321 3.321 0 0 1-1.197 1.388 5.474 5.474 0 0 1-2.961.79 7.439 7.439 0 0 1-1.747-.209l-.089-.024-.016-.005v.001a1.294 1.294 0 0 0-.633-.033 1.294 1.294 0 0 0-.574.269v-.001a10.423 10.423 0 0 1-5.695 1.895 4.46 4.46 0 0 1-2.48-.796 5.352 5.352 0 0 1-.7-.56l-.169-.171-.034-.038-.003-.004-.001.001a1.293 1.293 0 0 0-1.465-.377 7.54 7.54 0 0 1-2.372.414 4.04 4.04 0 0 1-1.942-.436 3.24 3.24 0 0 1-1.455-1.76 1.17 1.17 0 0 0-.102-.156 1.264 1.264 0 0 0-.178-.273l-.003-.004a1.283 1.283 0 0 0-1.07-.509c-26.771 1.397-73.628 4.073-73.629 4.073a1.301 1.301 0 0 0-1.146.849l-1.628 4.422a1.298 1.298 0 0 0 .808 1.682l.954.318a10.676 10.676 0 0 0-.213 2.009 5.273 5.273 0 0 0 .65 2.718 1.305 1.305 0 0 0 1.176.629s3.085-.145 8.163-.392a1.298 1.298 0 0 0 1.115-1.854 1.3 1.3 0 0 0-1.242-.743c-2.538.124-4.577.222-5.982.289l-1.221.058a3.906 3.906 0 0 1-.06-.705 8.265 8.265 0 0 1 .204-1.7c.051-.236.103-.433.14-.566l.045-.15.01-.034.002-.003v-.002a1.3 1.3 0 0 0-.824-1.64l-.822-.274.87-2.364 1.215-.069c9.225-.525 47.225-2.681 70.714-3.911a5.701 5.701 0 0 0 2.26 2.342 6.613 6.613 0 0 0 3.191.756 9.947 9.947 0 0 0 2.487-.335c.256.228.526.438.81.629a7.047 7.047 0 0 0 3.927 1.237c.174 0 .35-.007.53-.021a13.422 13.422 0 0 0 6.26-2.067c.646.129 1.304.195 1.964.195a8.058 8.058 0 0 0 4.359-1.198 5.958 5.958 0 0 0 2.217-2.613c.069-.155.119-.295.17-.434a41.86 41.86 0 0 0 4.086-.344 21.416 21.416 0 0 0 4.016-.899 8.976 8.976 0 0 0 1.78-.822c.429-.27.813-.605 1.138-.994a3.82 3.82 0 0 1 .237-.047 8.36 8.36 0 0 1 .564-.074 17.88 17.88 0 0 0-.534 4.519 37.179 37.179 0 0 0 1.133 8.509 3.896 3.896 0 0 1-.517-.059 1.056 1.056 0 0 1-.164-.047 4.905 4.905 0 0 0-1.722-1.058 15.713 15.713 0 0 0-3.96-.812c-1.597-.159-3.49-.228-5.697-.228-8.728.002-22.42 1.075-41.187 2.187-7.685.455-15.73.901-23.337 1.306a1.3 1.3 0 1 0 .139 2.597c5.916-.316 12.092-.656 18.163-1.005l.014.002c.544-.009 1.08-.014 1.612-.015a30.602 30.602 0 0 1 8.19.868 12.05 12.05 0 0 1 6.052 3.703c2.733 4.901 6.93 11.542 10.739 17.77 1.988 3.251 3.865 6.382 5.35 9.058a38.825 38.825 0 0 1 2.982 6.239 121.61 121.61 0 0 1 2.64 12.009c.376 2.085.695 3.984.919 5.36.113.688.201 1.246.262 1.631l.092.596a1.305 1.305 0 0 0 1.302 1.103 1.295 1.295 0 0 0 1.273-1.136c.001-.007.443-3.492.884-7.898.442-4.41.886-9.722.887-13.468a24.715 24.715 0 0 0-.141-2.93 29.158 29.158 0 0 0-1.371-5.442 62.848 62.848 0 0 0-4.235-9.607 30.118 30.118 0 0 0-5.52-7.633 39.201 39.201 0 0 0-9.285-5.567c-1.533-.707-2.913-1.294-3.89-1.725a23.118 23.118 0 0 1-1.102-.509l-.111-.06a1.293 1.293 0 0 0-.459-.294 14.183 14.183 0 0 0-4.166-2.829c14.855-.926 25.992-1.712 33.304-1.711a45.122 45.122 0 0 1 6.784.388 9.896 9.896 0 0 1 1.94.479c.316.102.606.27.851.494.204.213.448.384.719.501.336.144.692.241 1.055.287.364.049.732.073 1.099.071.918-.005 1.832-.11 2.726-.312a7.284 7.284 0 0 0 1.19-.369c.188-.078.369-.171.541-.28.211-.131.397-.298.55-.494a3.772 3.772 0 0 1 1.445-1.092 13.34 13.34 0 0 1 4.016-.964c1.646-.193 3.54-.275 5.548-.362l6.951-.297a1.298 1.298 0 0 0 1.232-1.354 1.298 1.298 0 0 0-1.343-1.244l-6.952.297a56.081 56.081 0 0 0-7.468.635 12.78 12.78 0 0 0-3.09.936 6.406 6.406 0 0 0-2.31 1.759c-.113.061-.231.11-.353.147a5.49 5.49 0 0 1-.453.124 35.186 35.186 0 0 1-1.151-8.255 13.964 13.964 0 0 1 .663-4.587c.153.008.295.019.41.031l.15.02c.325.325.701.594 1.113.798a9.5 9.5 0 0 0 2.916.755c1.27.139 2.548.202 3.826.189.37 0 .772-.01 1.163-.017.082.02.165.032.249.035.159-.009.308-.033.465-.045 2.105-.052 4.489-.178 7.137-.318 5.795-.31 17.107-.757 26.96-1.126a8211.372 8211.372 0 0 1 14.81-.539c-.021.048-.045.095-.065.143a12.752 12.752 0 0 0-.75 3.004 15.96 15.96 0 0 0-.139 1.502 1.302 1.302 0 0 0 1.21 1.341l.661.045c-.002.066-.005.131-.006.199.001.402.047.803.136 1.195-2.402.122-6.172.297-10.572.494a1.302 1.302 0 0 0-.819 2.258c.255.233.591.355.936.34 3.489-.157 6.593-.299 8.932-.413 1.17-.057 2.148-.106 2.89-.147a51.739 51.739 0 0 0 1.498-.095c.025-.003.044-.017.068-.021.038.001.074.013.113.013l.106-.002.036-.001v-.001c.59.002 1.17-.154 1.68-.451.359-.217.67-.506.912-.848.321-.464.543-.988.654-1.541a7.43 7.43 0 0 0 .152-1.553 14.018 14.018 0 0 0-.314-2.762l.81-.58a1.3 1.3 0 0 0 .396-1.659ZM89.468 139.845a31.014 31.014 0 0 1 6.63 4.179 21.082 21.082 0 0 1 3.315 4.138 56.612 56.612 0 0 1 4.589 8.991 35.123 35.123 0 0 1 2.381 7.943c.092.866.132 1.736.121 2.607.001 3.189-.35 7.771-.739 11.834-.716-3.841-1.583-8.02-2.435-10.796a40.722 40.722 0 0 0-3.193-6.736c-2.277-4.1-5.395-9.148-8.446-14.092-2.13-3.45-4.22-6.841-5.967-9.81a87.98 87.98 0 0 1 3.744 1.742Zm70.569-40.788c2.1-3.374 4.246-6.914 5.963-9.957a83.446 83.446 0 0 0 2.2-4.12c.503-.965.918-1.974 1.241-3.014.418-1.713.734-3.45.948-5.2.292-2.171.53-4.52.714-6.626.421 1.3.864 2.688 1.286 4.05.458 1.478.889 2.922 1.237 4.173.347 1.248.61 2.314.725 2.977.035.212.052.428.05.644a11.774 11.774 0 0 1-.682 3.432c-1.347 4.164-4.568 9.918-7.792 14.922-2.09 3.275-5.966 5.739-9.347 7.305a39.17 39.17 0 0 1-2.742 1.151 619.627 619.627 0 0 0 6.199-9.737Zm30.083 19.137.002.008c.258.962.402 1.951.428 2.946a3.316 3.316 0 0 1-.267 1.497.529.529 0 0 1-.19.216.732.732 0 0 1-.389.082l-.037.001h-.057a.683.683 0 0 1-.331-.057c-.042-.026-.076-.043-.146-.216a2.269 2.269 0 0 1-.105-.75c.002-.26.024-.519.067-.776.016-.103.033-.186.044-.24l.013-.057.002-.01a1.31 1.31 0 0 0-.207-1.082 1.298 1.298 0 0 0-.964-.534l-.702-.048c.066-.497.161-.99.287-1.475.127-.529.33-1.037.602-1.507.089-.148.198-.282.326-.397a.596.596 0 0 1 .234-.134 1.992 1.992 0 0 1 1.501.16 3.3 3.3 0 0 1 .828.639l-.445.318a1.3 1.3 0 0 0-.494 1.416Z"/><path fill="#BEBEC9" d="M47.823 136.966a9.005 9.005 0 0 0 1.147-3.989 4.48 4.48 0 0 0-.469-2.056 4.288 4.288 0 0 0-1.628-1.712 4.65 4.65 0 0 0-2.44-.686 6.385 6.385 0 0 0-3.103.904 11.08 11.08 0 0 0-1.296.875c.008-.148.024-.294.024-.444a5.559 5.559 0 0 0-.635-2.753 3.797 3.797 0 0 0-1.035-1.18 4.153 4.153 0 0 0-1.546-.702 6.015 6.015 0 0 0-1.39-.162 6.385 6.385 0 0 0-3.086.823 9.037 9.037 0 0 0-2.474 2.077 5.083 5.083 0 0 0-.217-.568 3.518 3.518 0 0 0-1.064-1.317 3.333 3.333 0 0 0-1.754-.633 5.191 5.191 0 0 0-.37-.014 5.732 5.732 0 0 0-2.854.813 10.328 10.328 0 0 0-3.055 2.846 10.426 10.426 0 0 0-2.155 6.137c-.017.845.178 1.68.567 2.429.249.455.565.871.937 1.232.503.496.994.853 1.378 1.198.356.292.651.651.87 1.056a.658.658 0 0 1 .06.308 3.175 3.175 0 0 1-.25 1.059 23.645 23.645 0 0 1-1.696 3.235c-2.289 3.902-5.863 9.528-6.04 16.796-.004.152-.006.303-.006.453a12.89 12.89 0 0 0 3.322 9.22 11.832 11.832 0 0 0 8.714 3.379c4.322-.005 9.329-1.717 14.575-5.314a20.135 20.135 0 0 0 7.181-8.664 25.333 25.333 0 0 0 1.979-10.131 33.024 33.024 0 0 0-2.855-13.371c.193-.301.425-.688.664-1.144Zm-2.17 23.606a17.516 17.516 0 0 1-6.27 7.56c-4.925 3.384-9.483 4.862-13.103 4.858a9.243 9.243 0 0 1-6.85-2.59 10.301 10.301 0 0 1-2.587-7.409c0-.129.002-.259.005-.391a26.854 26.854 0 0 1 3.92-12.512c.963-1.727 1.933-3.266 2.694-4.656.363-.645.682-1.315.955-2.004.257-.63.398-1.301.417-1.98a3.252 3.252 0 0 0-.337-1.478 5.912 5.912 0 0 0-1.296-1.676c-.688-.63-1.293-1.048-1.634-1.458a2.101 2.101 0 0 1-.388-.635 2.699 2.699 0 0 1-.156-.976 8.25 8.25 0 0 1 .424-2.337c.166-.492.387-.964.66-1.407a9.626 9.626 0 0 1 2.014-2.417 5.151 5.151 0 0 1 1.209-.771 2.873 2.873 0 0 1 1.157-.264l.172.007h.003a.723.723 0 0 1 .402.129c.204.185.343.43.398.7a5.5 5.5 0 0 1 .176 1.498 12.823 12.823 0 0 1-.18 2.017c-.046.277-.092.507-.125.664l-.04.178-.01.042-.002.008.002.001c-.005.023-.013.047-.017.07a1.299 1.299 0 0 0 1.961 1.349c.288-.178.495-.461.577-.79l.022-.097a9.494 9.494 0 0 1 2.083-4.221 6.39 6.39 0 0 1 1.71-1.421 3.777 3.777 0 0 1 1.834-.502c.267 0 .533.031.793.093.212.044.412.131.589.256.212.166.37.393.45.65.125.387.183.792.173 1.198-.03.953-.188 1.898-.47 2.809a15.365 15.365 0 0 1-.438 1.282l-.027.068-.007.016a1.299 1.299 0 0 0 2.256 1.262l.004-.005a16.58 16.58 0 0 1 2.036-2.26 9.845 9.845 0 0 1 1.853-1.371 3.782 3.782 0 0 1 1.767-.536c.386-.002.764.105 1.091.309.281.156.511.389.663.672.13.272.193.571.184.873a6.594 6.594 0 0 1-.852 2.787 12.65 12.65 0 0 1-.823 1.355l-.052.072-.011.016a1.304 1.304 0 0 0-.122 1.368 30.191 30.191 0 0 1 2.903 12.906 22.743 22.743 0 0 1-1.76 9.091ZM183.967 155.056a31.257 31.257 0 0 0-5.661-13.934c-1.188-1.77-2.318-3.287-3.112-4.534a12.062 12.062 0 0 1-.906-1.63 2.692 2.692 0 0 1-.269-1.011.718.718 0 0 1 .041-.255c.145-.372.354-.715.617-1.016.403-.494.99-.996 1.555-1.742a4.96 4.96 0 0 0 1.026-3.096 10.253 10.253 0 0 0-.848-3.721 9.566 9.566 0 0 0-1.032-1.859 12.546 12.546 0 0 0-2.688-2.836 6.632 6.632 0 0 0-3.924-1.48c-.292 0-.583.026-.87.078a3.364 3.364 0 0 0-1.469.642 3.604 3.604 0 0 0-1.197 1.793c-.048.154-.066.308-.099.463a9.193 9.193 0 0 0-2.27-1.692 6.46 6.46 0 0 0-2.963-.753 5.83 5.83 0 0 0-1.97.343 3.772 3.772 0 0 0-2.027 1.599 4.285 4.285 0 0 0-.567 2.234c.013.552.085 1.101.216 1.638a12.826 12.826 0 0 0-1.124-.586 7.743 7.743 0 0 0-3.114-.743 4.8 4.8 0 0 0-2.997 1.006 4.34 4.34 0 0 0-1.734 3.543 8.684 8.684 0 0 0 1.43 4.306c.274.45.571.886.89 1.305a35.043 35.043 0 0 0-1.729 10.998 29.408 29.408 0 0 0 2.329 11.88 20.58 20.58 0 0 0 8.692 9.71c4.855 2.779 9.397 4.091 13.345 4.094a11.77 11.77 0 0 0 11.836-7.614c.59-1.576.836-3.26.721-4.938a19.343 19.343 0 0 0-.128-2.192Zm-5.158 9.512a10.041 10.041 0 0 1-7.271 2.632c-3.363.002-7.499-1.14-12.053-3.75a17.973 17.973 0 0 1-7.608-8.51 26.844 26.844 0 0 1-2.105-10.825 31.984 31.984 0 0 1 1.808-10.792 1.296 1.296 0 0 0-.241-1.318l-.001-.001a12.306 12.306 0 0 1-1.157-1.628 6.16 6.16 0 0 1-1-2.869 1.89 1.89 0 0 1 .159-.801c.131-.273.327-.51.572-.69a2.172 2.172 0 0 1 1.4-.458c.714.03 1.413.207 2.056.518a14.429 14.429 0 0 1 3.048 1.948 20.467 20.467 0 0 1 1.238 1.096l.064.064.016.016a1.301 1.301 0 0 0 2.024-1.61l-.002-.003a16.43 16.43 0 0 1-.971-1.831 8.335 8.335 0 0 1-.851-3.107 1.723 1.723 0 0 1 .195-.894c.155-.24.393-.414.669-.489a3.25 3.25 0 0 1 1.1-.193c.62.011 1.228.17 1.774.465a7.605 7.605 0 0 1 2.507 2.239 9.905 9.905 0 0 1 1.543 3.059l.047.145a1.301 1.301 0 0 0 2.483-.771l-.024-.066.003-.001-.005-.013a15.44 15.44 0 0 1-.362-1.336 11.422 11.422 0 0 1-.303-2.379 3.313 3.313 0 0 1 .248-1.425.788.788 0 0 1 .212-.274.757.757 0 0 1 .34-.138c.134-.024.269-.036.405-.036a3.347 3.347 0 0 1 1.543.434 8.215 8.215 0 0 1 2.325 1.971 8.562 8.562 0 0 1 1.358 2.126 7.78 7.78 0 0 1 .666 2.765c.011.381-.07.759-.236 1.102a6.3 6.3 0 0 1-1.173 1.439 7.004 7.004 0 0 0-1.623 2.4 3.298 3.298 0 0 0-.207 1.168c.02.707.184 1.403.483 2.044a22.404 22.404 0 0 0 2.178 3.598c2.706 3.875 6.531 8.965 7.303 15.762.073.63.111 1.263.112 1.897a9.964 9.964 0 0 1-2.686 7.32Z"/></svg>