<svg xmlns="http://www.w3.org/2000/svg" width="200" height="200" fill="none"><path fill="#FFD93A" d="M170.706 66.633c3.414 7.604 5.12 12.724 5.12 17.378s-8.068 17.377-10.861 20.17c-2.793 2.793-13.809 6.983-13.809 6.983s14.895-24.826 16.757-29.015c1.862-4.189 2.793-15.516 2.793-15.516ZM83.352 135.678c9.464 4.81 13.808 6.517 18.773 14.739 4.965 8.224 5.741 12.569 5.896 17.689.155 5.12-1.862 16.912-1.862 16.912s-3.413-14.119-5.275-18.774c-1.862-4.655-17.532-30.566-17.532-30.566ZM84.284 119.309l-73.078 3.647-1.862 5.12 2.172 1.086s-2.327 1.707.31 4.499c0 0 94.025-6.128 102.248-5.664 8.223.466 9.775 2.872 9.775 2.872l4.654-.622s1.319-3.335 6.362-3.413c3.723-.057 53.953-2.12 55.815-2.43 1.862-.311.931-6.672.931-6.672l1.707-1.551a6.303 6.303 0 0 0-5.276-2.482c-3.258.309-45.73 2.429-51.936 2.585-6.206.155-8.533-1.863-8.533-1.863l-4.81.311a19.84 19.84 0 0 1-11.792 3.181 7.08 7.08 0 0 1-7.913 4.111 11.475 11.475 0 0 1-6.361 2.173c-3.647 0-4.81-2.173-4.81-2.173s-5.741 1.785-7.603-2.715Z"/><path fill="#191C22" d="M78.663 63.841c-7.136-2.094-22.497 3.461-25.522 17.61-2.405 11.249 3.025 18.153 7.214 20.558 8.309 4.77 22.963 1.474 26.066-10.628 3.104-12.102-.62-25.445-7.758-27.54Zm3.22 27.269c-.271 2.754-2.87 2.28-7.137 2.358-4.267.077-7.61.096-8.324-2.01-.869-2.559 3.01-6.98 8.324-7.059 4.31-.063 7.364 4.412 7.137 6.71ZM135.449 102.009c4.189-2.405 9.62-9.31 7.215-20.558-3.025-14.149-18.386-19.704-25.523-17.61-7.137 2.095-10.861 15.438-7.758 27.54 3.103 12.102 17.758 15.398 26.066 10.628Zm-14.391-17.61c5.314.078 9.193 4.5 8.325 7.06-.715 2.105-4.058 2.087-8.325 2.01-4.266-.079-6.865.395-7.137-2.36-.226-2.298 2.828-6.772 7.137-6.71Z"/><path fill="#191C22" d="M74.396 92.312a2.831 2.831 0 1 0 0-5.663 2.831 2.831 0 0 0 0 5.663ZM121.406 92.312a2.83 2.83 0 1 0 0-5.662 2.83 2.83 0 0 0 0 5.662ZM87.647 103.738a1.294 1.294 0 0 0-1.296.219 1.307 1.307 0 0 0-.442 1.238 23.53 23.53 0 0 0 2.234 6.124 14.707 14.707 0 0 0 3.485 4.399 9.57 9.57 0 0 0 5.837 2.25h.001c.143.005.284.007.426.007a10.178 10.178 0 0 0 6.297-2.094 15.405 15.405 0 0 0 4.725-6.736 21.105 21.105 0 0 0 1.128-3.973 1.306 1.306 0 0 0-.505-1.241 1.294 1.294 0 0 0-1.333-.136 8.19 8.19 0 0 1-1.524.477 40.682 40.682 0 0 1-7.552.804l-.007-.121c-.048-.898-.13-2.596-.173-4.285 3.218-.879 6.643-5.044 6.465-7.892-.233-3.724-13.478-3.582-14.818-.389-.874 2.087 2.547 6.911 5.749 8.154.041 1.786.129 3.58.18 4.532a42.965 42.965 0 0 1-4.302-.305 20.617 20.617 0 0 1-4.575-1.032Zm17.837 3.283s.002.047.001.117c-.017.599-.474 3.447-7.727 3.387-5.833-.048-7.021-2.822-7.126-3.362-.013-.064-.013-.104-.002-.097 5.502.708 11.676.688 14.854-.045Z"/><path fill="#191C22" d="M194.043 116.138a6.987 6.987 0 0 0-1.161-1.546 5.854 5.854 0 0 0-1.452-1.088 4.594 4.594 0 0 0-2.133-.532c-.078 0-.159.012-.238.016a1.29 1.29 0 0 0-.186-.031c-.004 0-15.243.53-28.758 1.065a37.12 37.12 0 0 0 2.115-6.579 20.342 20.342 0 0 0 5.884-5.707 102.63 102.63 0 0 0 6.046-10.595 40.785 40.785 0 0 0 2.032-4.93 14.18 14.18 0 0 0 .809-4.236 6.355 6.355 0 0 0-.089-1.094c-.195-1.102-.623-2.706-1.163-4.564-1.618-5.55-4.238-13.198-4.241-13.207a1.295 1.295 0 0 0-1.408-.867 1.298 1.298 0 0 0-1.12 1.217s-.01.196-.032.555a223.703 223.703 0 0 1-.626 7.942 119.629 119.629 0 0 1-.609 5.16 38.58 38.58 0 0 1-.785 4.17 16.18 16.18 0 0 1-1.062 2.538c-.82 1.67-2.016 3.824-3.39 6.175a58.705 58.705 0 0 0-11.723-25.929 18.948 18.948 0 0 0 3.786-3.844 21.054 21.054 0 0 0 4.032-12.443 20.338 20.338 0 0 0-1.88-8.615 18.232 18.232 0 0 0-5.714-6.994 19.313 19.313 0 0 0-11.509-3.675 21.002 21.002 0 0 0-16.814 8.247 18.944 18.944 0 0 0-2.547 4.77 63.481 63.481 0 0 0-22.213-4.111 65.757 65.757 0 0 0-21.64 3.71 18.93 18.93 0 0 0-2.392-4.369A21.007 21.007 0 0 0 57.05 28.5a19.309 19.309 0 0 0-11.51 3.675 18.236 18.236 0 0 0-5.713 6.994 20.333 20.333 0 0 0-1.88 8.614 21.047 21.047 0 0 0 4.032 12.444 18.96 18.96 0 0 0 3.005 3.213A56.456 56.456 0 0 0 32.61 98.1c0 1.59.073 3.191.22 4.803a39.255 39.255 0 0 0 5.817 17.601c-15.637.875-27.982 1.581-27.983 1.581a1.294 1.294 0 0 0-1.145.848l-1.63 4.422a1.298 1.298 0 0 0 .81 1.683l.953.318a10.658 10.658 0 0 0-.213 2.008 5.273 5.273 0 0 0 .65 2.718 1.304 1.304 0 0 0 1.176.629s3.13-.146 8.269-.397a8.293 8.293 0 0 0-.086 1.085 5.224 5.224 0 0 0 .543 2.416 7.564 7.564 0 0 0 1.814 2.136 4.67 4.67 0 0 1 1.24 1.507.78.78 0 0 1 .06.332 3.236 3.236 0 0 1-.258 1.096 23.32 23.32 0 0 1-1.764 3.296c-2.386 3.973-6.135 9.704-6.494 17.255-.015.32-.022.637-.022.949a13.347 13.347 0 0 0 3.378 9.473 12.007 12.007 0 0 0 8.9 3.496 20.532 20.532 0 0 0 6.527-1.167c-.37 4.312-.863 12.199-.843 12.312-.264 5.159-.32 8.428-.321 8.442a1.307 1.307 0 0 0 .363.928 1.297 1.297 0 0 0 1.414.307 1.303 1.303 0 0 0 .822-1.19c0-.001.007-.402.028-1.156.04-1.465.133-4.254.328-7.909a8.082 8.082 0 0 1 1.576-3.535c1.718-2.31 4.824-4.547 8.977-6.511 6.227-2.957 14.76-5.33 24.325-6.97a196.638 196.638 0 0 1 30.332-2.671c.178.412.335.833.471 1.261a121.63 121.63 0 0 1 2.64 12.01 337.924 337.924 0 0 1 1.181 6.991l.093.596a1.299 1.299 0 0 0 2.151.774c.234-.209.385-.495.424-.807.001-.007.442-3.491.884-7.897.417-4.17.832-9.13.877-12.826 13.729.454 26.935 2.273 36.811 5.68a37.292 37.292 0 0 1 12.129 6.406 13.023 13.023 0 0 1 4.796 8.004c.066 1.263.12 2.427.163 3.447a288 288 0 0 1 .134 3.764c.024.878.032 1.347.032 1.349a1.308 1.308 0 0 0 .822 1.191 1.296 1.296 0 0 0 1.415-.307 1.303 1.303 0 0 0 .363-.929c0-.011-.051-3.019-.29-7.826.02-.11-.801-13.196-1.647-20.797a23.039 23.039 0 0 0 7.714 1.471 11.772 11.772 0 0 0 12.558-12.552 19.343 19.343 0 0 0-.128-2.192 31.25 31.25 0 0 0-5.661-13.934c-1.187-1.77-2.318-3.287-3.112-4.534a12.111 12.111 0 0 1-.906-1.629 2.702 2.702 0 0 1-.269-1.011.72.72 0 0 1 .041-.256c.146-.371.355-.715.617-1.016.403-.494.991-.995 1.556-1.742a4.966 4.966 0 0 0 1.026-3.095 7.733 7.733 0 0 0-.202-1.674 2361.322 2361.322 0 0 0 9.738-.457 96.605 96.605 0 0 0 2.635-.155c.024-.003.044-.017.067-.021.039.001.074.013.113.013l.105-.002h.002l.035-.001v-.001c.59.002 1.17-.154 1.68-.451.359-.217.67-.505.913-.848.32-.463.542-.988.653-1.54a7.307 7.307 0 0 0 .152-1.554 14.026 14.026 0 0 0-.314-2.762l.81-.578a1.303 1.303 0 0 0 .397-1.66Zm-36.822-2c-3.44.139-6.672.276-9.408.402a30.123 30.123 0 0 0 3.479-2.112c.036-.026.054-.064.087-.092a41.927 41.927 0 0 0 6.299-2.346c.45-.211.911-.436 1.377-.677a34.477 34.477 0 0 1-1.834 4.825Zm8.778-25.048a84.397 84.397 0 0 0 2.201-4.12c.503-.965.918-1.974 1.24-3.014.418-1.713.735-3.45.949-5.2.292-2.171.529-4.52.713-6.626.422 1.3.865 2.688 1.287 4.05.458 1.479.889 2.923 1.237 4.174.347 1.247.61 2.314.725 2.977.035.212.052.428.05.644a11.772 11.772 0 0 1-.682 3.432c-1.347 4.164-4.567 9.917-7.792 14.923-2.09 3.274-5.967 5.737-9.348 7.304-.982.458-1.907.835-2.742 1.15a620.422 620.422 0 0 0 6.199-9.737c2.101-3.374 4.246-6.914 5.963-9.957ZM41.582 120.268v-.001a36.409 36.409 0 0 1-6.163-17.601 49.747 49.747 0 0 1-.208-4.566c-.002-15.696 7.401-30.211 18.97-40.825a65.304 65.304 0 0 1 43.713-17.27c15.488-.002 30.359 6.257 41.724 16.078 11.368 9.82 19.194 23.174 20.705 37.253.014.063.034.124.058.184a429.923 429.923 0 0 1-4.103 6.629 661.36 661.36 0 0 1-4.656 7.273c-.606.934-1.101 1.69-1.444 2.214l-.481.731a25.443 25.443 0 0 1-13.49 4.689c-.016 0-.028.009-.043.011-.49.01-.981.02-1.431.02a23.567 23.567 0 0 1-4.383-.308 5.276 5.276 0 0 1-1.232-.379 1.406 1.406 0 0 1-.517-.373 1.48 1.48 0 0 0-.567-.445 2.523 2.523 0 0 0-.614-.182 11.751 11.751 0 0 0-1.948-.128 21.109 21.109 0 0 0-2.384.129 7.823 7.823 0 0 0-1.017.182 2.93 2.93 0 0 0-.496.177c-.106.05-.207.11-.301.178-.145.106-.27.235-.37.384l.001-.001c-.168.224-.381.41-.625.547a8.918 8.918 0 0 1-2.497.933 29.747 29.747 0 0 1-4.678.667 42.619 42.619 0 0 1-2.168.096l-.162.002a1.298 1.298 0 0 0-1.285 1.119l-.001-.001a3.716 3.716 0 0 1-.309.925 3.321 3.321 0 0 1-1.197 1.388 5.483 5.483 0 0 1-2.961.791 7.618 7.618 0 0 1-1.365-.126 6.168 6.168 0 0 1-.382-.084l-.089-.024-.016-.004a1.306 1.306 0 0 0-1.207.236v-.001a10.423 10.423 0 0 1-5.695 1.895 4.453 4.453 0 0 1-2.48-.796 5.358 5.358 0 0 1-.7-.56l-.169-.171-.034-.038-.003-.004-.001.001a1.3 1.3 0 0 0-1.465-.377 7.539 7.539 0 0 1-2.371.414 4.041 4.041 0 0 1-1.943-.436 3.236 3.236 0 0 1-1.455-1.76 1.227 1.227 0 0 0-.102-.156 1.243 1.243 0 0 0-.177-.272l-.004-.005a1.27 1.27 0 0 0-1.07-.509c-12.173.635-28.497 1.535-42.682 2.327-.014-.022-.015-.048-.03-.07Zm108.203 10.437c.423.735.96 1.399 1.591 1.967l-.001.001c.036.034.069.071.1.109a1.287 1.287 0 0 1 .309 1.366 24.52 24.52 0 0 0-.497 1.484 28.887 28.887 0 0 0-.508 1.881 32.923 32.923 0 0 0-.866 7.439 24.769 24.769 0 0 0 2.064 10.29 17.815 17.815 0 0 0 7.508 8.199l.007.003c.496.284.987.551 1.473.8v.001a1.296 1.296 0 0 1-1.163 2.319c-.008-.004-.017-.003-.025-.007a40.195 40.195 0 0 1-1.584-.86l-.004-.002a20.435 20.435 0 0 1-8.575-9.369 27.334 27.334 0 0 1-2.301-11.374c.005-2.735.326-5.46.956-8.121a32.472 32.472 0 0 1 .796-2.78 12.157 12.157 0 0 1-1.505-2.001 1.28 1.28 0 0 1 .165-1.532c.078-.098.171-.183.275-.253a1.303 1.303 0 0 1 1.785.44Zm-22.724 6.765a99.795 99.795 0 0 1-29.667 4.2c-.015 0-.027.008-.042.009a41.51 41.51 0 0 0-8.8-5.164c-1.533-.708-2.913-1.295-3.89-1.726a23.118 23.118 0 0 1-1.102-.509l-.073-.039a14.106 14.106 0 0 0-4.531-3.152c14.788-.922 25.882-1.704 33.173-1.702a45.129 45.129 0 0 1 6.784.387c.661.094 1.31.255 1.939.479.316.102.607.271.852.495.203.213.448.383.718.501.337.144.692.24 1.056.286.364.05.731.073 1.099.071a12.696 12.696 0 0 0 2.726-.311c.406-.09.804-.213 1.189-.37.188-.077.369-.171.541-.279a2.13 2.13 0 0 0 .55-.495c.386-.475.882-.85 1.444-1.091a13.385 13.385 0 0 1 4.017-.965c1.646-.192 3.54-.274 5.548-.361l5.775-.247.032.101a59.165 59.165 0 0 1-19.338 9.882ZM38.4 173.922c-.444.246-.887.492-1.326.712-.046.023-.093.051-.138.074-.016.008-.032.006-.048.013a1.294 1.294 0 0 1-1.706-.628 1.295 1.295 0 0 1 .601-1.716c.04-.019.081-.045.12-.065a30.98 30.98 0 0 0 1.318-.707c.164-.092.325-.172.49-.268a37.036 37.036 0 0 0 1.866-1.161l.002-.001a17.782 17.782 0 0 0 6.554-7.736 23.124 23.124 0 0 0 1.828-9.351 32.499 32.499 0 0 0-1.464-9.457 29.299 29.299 0 0 0-.599-1.757 24.862 24.862 0 0 0-.594-1.442 1.283 1.283 0 0 1 .216-1.383c.029-.04.06-.079.093-.115v-.001l.002-.003.032-.031.156-.164c.21-.234.404-.481.583-.739a10.808 10.808 0 0 0 1.479-3.127 1.302 1.302 0 0 1 1.616-.878c.199.064.38.176.525.326a1.285 1.285 0 0 1 .352 1.29 13.08 13.08 0 0 1-2.108 4.236c-.086.112-.167.219-.243.312a32.267 32.267 0 0 1 .938 2.593 35.079 35.079 0 0 1 1.616 10.34 25.71 25.71 0 0 1-2.05 10.403 20.4 20.4 0 0 1-7.492 8.849c-.667.443-1.329.852-1.986 1.235-.212.124-.422.229-.633.347Zm16.927-41.456c3.515-.193 7.067-.392 10.582-.594l.011.002c.54-.01 1.077-.015 1.608-.015 2.796-.08 5.59.212 8.308.868a12.316 12.316 0 0 1 5.633 3.159 166.654 166.654 0 0 0 2.928 5.064c-11.25-1.234-21.224-4.072-29.07-8.484Zm-34.014-2.973c-.456.682-.83 1.416-1.115 2.186l-3.59.174c-2.064.1-3.598.173-4.51.216a3.915 3.915 0 0 1-.058-.705 8.263 8.263 0 0 1 .203-1.699c.051-.237.103-.434.14-.567l.045-.149.01-.034.002-.004v-.002a1.298 1.298 0 0 0-.824-1.64l-.822-.274.87-2.363 1.215-.07c9.225-.525 47.225-2.681 70.714-3.911a5.695 5.695 0 0 0 2.26 2.342 6.613 6.613 0 0 0 3.191.756 9.945 9.945 0 0 0 2.487-.334c.256.227.526.437.81.628a7.047 7.047 0 0 0 3.927 1.237c.174 0 .35-.007.53-.021a13.415 13.415 0 0 0 6.259-2.067 10.05 10.05 0 0 0 1.965.195 8.058 8.058 0 0 0 4.359-1.198 5.949 5.949 0 0 0 2.386-3.046 42.25 42.25 0 0 0 4.087-.345 21.399 21.399 0 0 0 4.016-.899 8.985 8.985 0 0 0 1.781-.822c.428-.27.812-.605 1.138-.994.061-.014.143-.032.236-.047a8.36 8.36 0 0 1 .564-.074 17.826 17.826 0 0 0-.534 4.518 37.203 37.203 0 0 0 1.133 8.511 3.706 3.706 0 0 1-.516-.06 1.025 1.025 0 0 1-.164-.047 4.929 4.929 0 0 0-1.722-1.058 15.72 15.72 0 0 0-3.961-.812c-1.596-.159-3.489-.227-5.696-.228-8.729.002-22.421 1.076-41.188 2.187-6.738.399-13.751.791-20.505 1.155a4.287 4.287 0 0 0-.87-1.992 3.465 3.465 0 0 0-1.278-.968 3.924 3.924 0 0 0-1.588-.32l-.241.006a6.324 6.324 0 0 0-3.615 1.393 9.4 9.4 0 0 0-2.083 2.393l-.935.049c.046-.274.071-.55.075-.827a4.104 4.104 0 0 0-.936-2.697 3.812 3.812 0 0 0-2.749-1.288l-.197-.005c-.82.013-1.62.262-2.303.717a8.115 8.115 0 0 0-2.546 2.829c-.321.564-.6 1.151-.832 1.756l-.937.048c.103-.454.159-.917.166-1.383a3.663 3.663 0 0 0-.424-1.808 2.71 2.71 0 0 0-.7-.818 2.9 2.9 0 0 0-1.014-.501 4.975 4.975 0 0 0-1.328-.184 4.825 4.825 0 0 0-2.388.643 7.302 7.302 0 0 0-2.4 2.322Zm84.452 50.035c-.716-3.841-1.583-8.021-2.435-10.796a40.566 40.566 0 0 0-3.193-6.736c-2.277-4.101-5.395-9.149-8.446-14.092-2.13-3.451-4.22-6.842-5.967-9.811a89.294 89.294 0 0 1 3.744 1.742 31.057 31.057 0 0 1 6.63 4.18 21.05 21.05 0 0 1 3.315 4.138 56.66 56.66 0 0 1 4.589 8.99 35.197 35.197 0 0 1 2.381 7.944c.091.866.132 1.737.121 2.608.001 3.189-.35 7.77-.739 11.833Zm70.414-55.936a10.107 10.107 0 0 0-1.81-2.685 6.856 6.856 0 0 0-1.74-1.34 4.791 4.791 0 0 0-1.932-.573 4.794 4.794 0 0 0-1.997.269 2.78 2.78 0 0 0-1.533 1.258 3.393 3.393 0 0 0-.402 1.678c.012.609.109 1.214.29 1.796l-.913.04a12.095 12.095 0 0 0-1.719-2.786 7.403 7.403 0 0 0-1.845-1.598 4.445 4.445 0 0 0-2.254-.66c-.149 0-.299.009-.447.027a3.832 3.832 0 0 0-2.554 1.337 3.982 3.982 0 0 0-.867 2.558c.007.519.088 1.034.242 1.53l-.743.032c-.045-.067-.084-.132-.131-.199a9.683 9.683 0 0 0-2.35-2.415 6.342 6.342 0 0 0-3.653-1.185l-.1.001a4.118 4.118 0 0 0-1.549.315 3.508 3.508 0 0 0-1.709 1.559 4.802 4.802 0 0 0-.54 2.327l.001.025-5.445.233a56.232 56.232 0 0 0-7.467.634 12.824 12.824 0 0 0-3.09.936 6.42 6.42 0 0 0-2.31 1.76c-.113.06-.231.109-.353.146a5.467 5.467 0 0 1-.453.125 35.158 35.158 0 0 1-1.151-8.257 13.984 13.984 0 0 1 .662-4.586c.153.009.296.019.41.032.06.006.107.013.151.02a4.22 4.22 0 0 0 1.113.797 9.437 9.437 0 0 0 2.915.755c1.271.139 2.549.203 3.827.189 2.522 0 5.546-.161 9.013-.345 5.796-.31 17.108-.756 26.961-1.126 4.927-.184 9.492-.349 12.824-.468l1.985-.071c-.02.048-.045.095-.065.143a12.8 12.8 0 0 0-.749 3.004 15.936 15.936 0 0 0-.139 1.503 1.304 1.304 0 0 0 1.21 1.34l.661.045c-.002.066-.005.131-.006.199.001.402.047.803.137 1.195-2.371.121-6.074.293-10.386.486Zm14.435-6.824a1.3 1.3 0 0 0-.494 1.416l.002.008c.258.962.402 1.951.428 2.947a3.312 3.312 0 0 1-.267 1.496.538.538 0 0 1-.19.217.737.737 0 0 1-.389.081l-.036.001-.058.001a.707.707 0 0 1-.331-.057c-.042-.027-.076-.043-.146-.217a2.295 2.295 0 0 1-.105-.75c.002-.26.024-.519.067-.776.016-.103.033-.186.044-.24l.013-.057.003-.01h-.001a1.309 1.309 0 0 0-.207-1.082 1.31 1.31 0 0 0-.964-.534l-.702-.048c.065-.497.161-.99.287-1.475a5.604 5.604 0 0 1 .602-1.507c.088-.148.198-.282.326-.397a.596.596 0 0 1 .234-.134 1.992 1.992 0 0 1 1.501.16c.308.168.588.384.828.639l-.445.318Z"/><path fill="#191C22" d="M36.215 125.877v.001h.006l-.006-.001Z"/></svg>