<svg xmlns="http://www.w3.org/2000/svg" width="200" height="200" fill="none"><g fill="#191C22"><path d="M71.219 147.162a45.88 45.88 0 0 1-5.704 4.144 149.72 149.72 0 0 1-7.49 14.768 167.965 167.965 0 0 1-2.625 4.417 131.038 131.038 0 0 1 12.597-6.403 133.417 133.417 0 0 1 23.872-7.409 68.6 68.6 0 0 1 14.861-1.666 44.69 44.69 0 0 1 12.764 1.67c-.061-.132-.126-.266-.181-.396a12.262 12.262 0 0 1-.795-2.568 10.783 10.783 0 0 1-.191-2.036c.001-.748.068-1.376.101-1.866a6.333 6.333 0 0 1 .795-2.652 8.269 8.269 0 0 1 1.668-2.069 15.758 15.758 0 0 1 4.454-2.722 30.26 30.26 0 0 1 5.608-1.719c.909-1.123 3.791-4.626 7.177-8.108.633-.651 1.283-1.3 1.94-1.932a60.944 60.944 0 0 0-.885-1.686c-.178.004-.359.016-.535.016-.84 0-1.68-.045-2.516-.135a21.412 21.412 0 0 1-6.617-1.789c-.164-.076-.32-.158-.48-.238a17.062 17.062 0 0 1-2.381-1.417l-.043.034c-8.753 7.085-20.945 12.464-35.47 15.338a114.306 114.306 0 0 1-15.789 2.052 22.471 22.471 0 0 1-2.34 2.701 33.01 33.01 0 0 1-1.795 1.671ZM67.54 70.864a8.007 8.007 0 0 0-3.909-1.546c-6.965-.628-19.936 8.225-20.141 21.828-.114 7.535 2.807 11.976 6.044 14.472a14.519 14.519 0 0 0 4.183 2.249c8.534 2.882 21.449-2.835 22.1-14.564.525-9.442-3.18-18.814-8.278-22.44Zm-1.653 28.323c-3.92.851-7.001 1.479-8.044-.332-1.27-2.203 1.5-6.99 6.388-8.033a5.994 5.994 0 0 1 2.963.137 2.662 2.662 0 1 0 3.717 2.464 4.538 4.538 0 0 1 1.128 2.285c.253 2.59-2.23 2.628-6.151 3.48ZM126.061 74.793c-5.374-12.498-20.74-15.738-26.94-12.502-6.2 3.235-7.198 16.223-2.125 26.818 3.19 6.663 9.955 9.274 16.227 8.828a26.67 26.67 0 0 0-3.376 5.836 1.3 1.3 0 0 0 2.402.993c2.504-6.064 7.259-10.215 11.437-12.843a38.726 38.726 0 0 1 5.418-2.836 31.079 31.079 0 0 1 1.657-.652c.194-.07.343-.12.442-.152l.108-.035.028-.01a1.3 1.3 0 0 0-.757-2.487 30.075 30.075 0 0 0-3.166 1.237c.853-3.212.764-7.268-1.355-12.195Zm-17.458 15.935c-3.949.708-6.26 1.619-7.013-.871-.629-2.08 1.371-6.765 5.357-7.494a9.16 9.16 0 0 1 3.534.05 2.66 2.66 0 0 0-.065 4.779 2.658 2.658 0 0 0 3.804-2.894c-.011-.056-.034-.106-.049-.16a3.875 3.875 0 0 1 1.743 3.216c-.274 2.072-3.361 2.666-7.311 3.374ZM79.672 106.241a1.304 1.304 0 0 0-1.497 1.098c-.033.228-.004.461.083.675a22.242 22.242 0 0 0 2.853 4.801c1 1.312 2.207 2.452 3.575 3.374a9.43 9.43 0 0 0 5.186 1.613 9.11 9.11 0 0 0 1.502-.125 9.734 9.734 0 0 0 5.248-2.57 13.125 13.125 0 0 0 3.453-6.454c.374-1.566.568-3.171.576-4.781a9.34 9.34 0 0 0-.007-.411 1.297 1.297 0 0 0-.74-1.117 1.294 1.294 0 0 0-1.334.13c-.775.499-1.606.903-2.477 1.204-1.404.525-2.838.97-4.293 1.333-.016-.418-.039-.932-.072-1.505a58.945 58.945 0 0 0-.213-2.645c2.647-1.584 4.815-5.779 4.16-8.261-.895-3.392-13.086-.842-13.738 2.349-.437 2.136 3.815 6.098 7.027 6.502.073.754.13 1.521.168 2.206.041.702.066 1.322.082 1.764l.005.18a37.135 37.135 0 0 1-7.103.814 15.37 15.37 0 0 1-2.444-.174Zm17.039-.224c.015.063.026.126.033.19.081.703-.092 3.239-6.5 4.48-5.145.997-6.845-1.09-7.159-1.696-.053-.102-.072-.167-.054-.162 5.202-.374 10.888-1.543 13.68-2.812ZM131.124 53.066c8.839 1.008 14.549-11.009 10.39-17.213-4.575-6.823-15.585-6.668-18.996-.31-2.635 4.91-.233 16.515 8.606 17.523Zm-5.219-9.067c2.958-3.168 10.36 4.575 6.671 6.242a3.577 3.577 0 0 1-2.85-.024 1.895 1.895 0 0 0 1.344-2.526 1.9 1.9 0 0 0-2.689-.981 1.9 1.9 0 0 0-.973 1.8c.003.04.015.079.021.119-1.546-1.567-2.409-3.68-1.524-4.63ZM165.3 71.434c5.866-4.2 4.604-15.139-2.75-18.798-6.688-3.327-17.87 3.881-15.734 12.517 2.136 8.636 13.953 9.525 18.484 6.281Zm-16.313-8.496c1.178-3.873 9.808 2.472 7.047 5.813-.735.89-2.562.523-4.192-.503a1.898 1.898 0 1 0-2.032-1.826 3.875 3.875 0 0 1-.823-3.484Z"/><path d="M170.372 130.038c.137-.237.293-.462.469-.671.233-.266.492-.507.774-.719.38-.291.792-.537 1.228-.733.373-.163.76-.293 1.156-.387a13.89 13.89 0 0 0-2.481-2.872 10.852 10.852 0 0 0-2.766-1.73 17.956 17.956 0 0 0-4.585-.586c-5.526-.008-11.299 2.359-16.561 5.5a29.802 29.802 0 0 0-4.482 3.476c-1.578 1.435-3.175 3.058-4.626 4.617a127.431 127.431 0 0 0-5.715 6.594l-.099.123c-.2.252-.487.422-.805.475l-.042.007-.148.028a29.08 29.08 0 0 0-2.577.631 20.437 20.437 0 0 0-5.225 2.272 7.101 7.101 0 0 0-2.39 2.364 3.708 3.708 0 0 0-.474 1.569c-.04.56-.096 1.098-.095 1.687.001.245.011.501.034.769.27-.249.547-.485.831-.708a19.105 19.105 0 0 1 4.287-2.473c.095-.04.184-.073.277-.111a24.696 24.696 0 0 1 3.345-1.101c.323-.079.531-.122.548-.126a1.302 1.302 0 0 1 1.532 1.53 1.311 1.311 0 0 1-.557.828 1.29 1.29 0 0 1-.47.192l-.01.002-.048.011c-.045.009-.114.025-.205.046-.182.043-.451.11-.786.205-.763.219-1.515.477-2.251.774-.121.048-.238.092-.361.144a14.581 14.581 0 0 0-4.881 3.205 8.494 8.494 0 0 0-.451.521c.335.746.726 1.466 1.171 2.153a28.95 28.95 0 0 0 2.625 3.444 12.445 12.445 0 0 1 1.712-1.955c.506-.473 1.043-.91 1.609-1.309.71-.501 1.454-.954 2.225-1.355a20.416 20.416 0 0 1 4.082-1.6 1.368 1.368 0 0 1 1.573.952 1.3 1.3 0 0 1-.952 1.573l-.008.002-.046.012-.197.055c-.175.051-.435.131-.758.243-.857.298-1.693.657-2.5 1.073-.642.331-1.261.706-1.852 1.121a12.15 12.15 0 0 0-2.089 1.833 9.28 9.28 0 0 0-.777.982 25.565 25.565 0 0 0 3.252 2.063c.13.003.259.027.382.069a7.838 7.838 0 0 0 2.961.596 11.605 11.605 0 0 0 3.695-.709c.566-.19 1.186-.432 1.837-.7.523-.215 1.07-.45 1.656-.714a99.686 99.686 0 0 0 1.686-.78 83.298 83.298 0 0 0 8.053-4.549 142.424 142.424 0 0 0 3.02-1.95c.963-.638 1.72-1.154 2.182-1.472l.006-.004c-.203-.339-.415-.674-.597-1.021a13.65 13.65 0 0 1-1.083-2.725 8.13 8.13 0 0 1-.314-2.079 5.48 5.48 0 0 1 .524-2.399 8.247 8.247 0 0 1 2.719-3.199 6.76 6.76 0 0 1 2.909-1.158 5.617 5.617 0 0 1-.583-2.464 5.894 5.894 0 0 1 1.815-4.198 6.22 6.22 0 0 1 4.349-1.784 6.642 6.642 0 0 1 2.965.738c.149.074.3.139.448.226.039.023.074.048.114.072a11.827 11.827 0 0 1-.042-.917 8.274 8.274 0 0 1 .258-2.131c.13-.487.325-.954.58-1.388Z"/><path d="M18.948 185.771a16.405 16.405 0 0 0 6.538 2.058c-.254 4.523-.448 8.1-.448 8.1a1.3 1.3 0 1 0 2.596.141 3347.692 3347.692 0 0 1 .452-8.164 27.364 27.364 0 0 0 15.584-6.248 29.085 29.085 0 0 0 4.113-4.329 146.09 146.09 0 0 0 2.897-4.253c1.01-1.54 1.963-3.051 2.857-4.518a151.495 151.495 0 0 0 9.679-18.488l.065-.154c.108-.266.302-.488.55-.631l.064-.038.204-.122a45.457 45.457 0 0 0 3.333-2.262 27.788 27.788 0 0 0 5.927-5.738 7.474 7.474 0 0 0 1.603-4.132 3.948 3.948 0 0 0-.235-1.354 1.28 1.28 0 0 1-.061-.415 3.99 3.99 0 0 0-1.716-1.649 5.774 5.774 0 0 0-2.577-.536c-.454.006-.906.041-1.355.106a94.386 94.386 0 0 0-8.66 6.098c-.148.118-.297.232-.444.352a1.3 1.3 0 0 1-1.64-2.018l.128-.101c.357-.289.716-.573 1.075-.852.233-.182.466-.359.699-.537a103.475 103.475 0 0 1 9.012-6.101c.046-.101.105-.199.147-.301.31-.718.477-1.489.492-2.271a4.238 4.238 0 0 0-2.71-3.975 5.649 5.649 0 0 0-2.054-.355c-.5.008-1 .057-1.493.146-.22.116-.437.226-.66.349a41.53 41.53 0 0 0-10.451 8.035c-.073.08-.153.157-.225.238a1.36 1.36 0 0 1-1.835.107 1.304 1.304 0 0 1-.107-1.836c.159-.178.337-.341.5-.516a39.402 39.402 0 0 1 5.191-4.631c.9-.675 1.81-1.323 2.724-1.914a49.37 49.37 0 0 1 2.442-1.472c.146-.5.225-1.018.234-1.539a4.287 4.287 0 0 0-1.023-2.81 4.026 4.026 0 0 0-1.628-1.151 5.57 5.57 0 0 0-2.04-.355 14.317 14.317 0 0 0-6.893 2.306 33.645 33.645 0 0 0-3.97 2.783 2.658 2.658 0 0 0-.603-.575 2.928 2.928 0 0 0-1.674-.488c-.228.001-.457.02-.682.059a5.132 5.132 0 0 0-.8.207 5.616 5.616 0 0 0-.936.405c-.07.183-.183.347-.328.48a14.067 14.067 0 0 0-4.027 6.893 24.023 24.023 0 0 0-.817 6.085l-.002.185c0 .749.036 1.23.043 1.317l.002.012a1.259 1.259 0 0 1-.018.185 1.287 1.287 0 0 1-.236.713l-.091.124a93.066 93.066 0 0 0-1.27 1.779 116.444 116.444 0 0 0-3.214 4.881A61.892 61.892 0 0 0 24.796 156c-.038.12-.086.245-.122.365a1.298 1.298 0 0 1-1.617.873 1.282 1.282 0 0 1-.907-1.256 1.257 1.257 0 0 1 .033-.361c.055-.185.127-.374.186-.559a64.756 64.756 0 0 1 6.6-13.349 111.282 111.282 0 0 1 4.415-6.58 23.062 23.062 0 0 1-.024-1.058 27.446 27.446 0 0 1 .378-4.508 34.595 34.595 0 0 1-7.253-13.338 47.071 47.071 0 0 1-1.921-13.344 52.25 52.25 0 0 1 5.741-23.428c.174-.12.316-.28.413-.467a58.462 58.462 0 0 1 13.864-17.72 67.126 67.126 0 0 1 5.868-4.646 48.456 48.456 0 0 1 1.753-1.178c.204-.13.362-.228.467-.292l.116-.07.033-.02a1.26 1.26 0 0 0 .286-.257 59.379 59.379 0 0 1 19.498-7.688 55.408 55.408 0 0 1 7.203-.928 9.515 9.515 0 0 0-.172 1.328c-.013.2-.032.396-.033.602 0 .568.053 1.135.157 1.694a4.768 4.768 0 0 0 1.608 2.843 4.37 4.37 0 0 0 2.8 1.006c.14 0 .28-.018.42-.031.128-.7.278-1.415.473-2.15.07-.262.163-.529.242-.794a21.41 21.41 0 0 1 2.25-5.124c.213-.344.417-.695.655-1.021.196-.264.486-.444.81-.501a1.27 1.27 0 0 1 .146-.011c.065-.003.13 0 .194.007.239.01.47.088.668.225a1.3 1.3 0 0 1 .28 1.817c-.163.22-.303.47-.453.705a19.425 19.425 0 0 0-2.28 5.367 25.486 25.486 0 0 0-.589 2.878 5.513 5.513 0 0 0 4.213 2.036 4.98 4.98 0 0 0 2.424-.63c.104-1.064.242-2.383.41-3.814.085-.725.178-1.476.279-2.24.168-1.274.356-2.574.566-3.814a1.298 1.298 0 0 1 .973-1.045c.02-.005.043-.002.064-.006a1.31 1.31 0 0 1 .322-.01c.046-.004.093-.005.14-.004a1.3 1.3 0 0 1 1.064 1.498 119.292 119.292 0 0 0-.793 5.637c-.19 1.6-.343 3.076-.454 4.224.118.08.24.155.365.222.635.324 1.34.489 2.052.48a6.428 6.428 0 0 0 1.835-.287c.255-.082.502-.187.737-.314a4.624 4.624 0 0 0 1.092-1.439c.494-1.152.725-2.4.677-3.652a30.357 30.357 0 0 0-.477-4.717l-.001-.008a1.3 1.3 0 0 1 2.567-.414c.153.947.29 1.922.386 2.902.073.746.125 1.494.125 2.237 0 .2-.015.397-.022.596.648.238 1.315.42 1.995.54l.01-.002a3.053 3.053 0 0 0 2.423-1.067c.54-.683.828-1.532.815-2.402 0-.346-.044-.69-.131-1.024a6.787 6.787 0 0 0-1.048-2.053 17.746 17.746 0 0 0-1.801-2.124 28.91 28.91 0 0 0-2.829-2.522l-.048-.037a1.297 1.297 0 0 1-.498-.803 21.607 21.607 0 0 1-.178-1.285c-.062-.535-.127-1.174-.195-1.88a332.25 332.25 0 0 1-.41-4.69 774.077 774.077 0 0 1-.476-6.167 1.283 1.283 0 0 1 1.019-1.339c.059-.022.121-.039.184-.051a1.3 1.3 0 0 1 1.39 1.203l.108 1.463c.068.902.163 2.142.271 3.496.215 2.705.485 5.877.692 7.666.028.242.055.458.08.642.326.262.813.664 1.383 1.178a24.097 24.097 0 0 1 3.308 3.577 9.547 9.547 0 0 1 1.562 3.06c.144.552.217 1.12.217 1.69-.007.456-.059.91-.155 1.355a6.182 6.182 0 0 1-1.043 2.387 63.761 63.761 0 0 1 4.101 2.323c.058.027.118.05.18.068a42.918 42.918 0 0 0 2.225 3.834 54.804 54.804 0 0 0 16.491 16.032c.324.204.653.401.982.598a46.935 46.935 0 0 1 3.062 6.812 43.875 43.875 0 0 1 1.978 7.597c.158.953.296 1.912.39 2.881.067.69.105 1.373.13 2.053.374-.08.756-.12 1.139-.12a6.16 6.16 0 0 1 1.463.194 6.842 6.842 0 0 1 1.864.755 6.404 6.404 0 0 1 1.848 1.647c.306-.526.581-1.07.821-1.628a13.3 13.3 0 0 0 .46-1.271c.385-1.22.581-2.492.581-3.772 0-.385-.017-.783-.053-1.195a1.285 1.285 0 0 1 .297-.95 1.297 1.297 0 0 1 .882-.46 1.365 1.365 0 0 1 1.41 1.178 15.067 15.067 0 0 1-.573 5.744 16.307 16.307 0 0 1-.612 1.746 22.193 22.193 0 0 1-1.88 3.4 1.224 1.224 0 0 1-.136.143c.032.147.064.293.092.447l.02.092c.211 1.219.314 2.454.308 3.691a23.721 23.721 0 0 1-2.146 9.988 1.288 1.288 0 0 1-1.165.732 1.267 1.267 0 0 1-.566-.114 1.302 1.302 0 0 1-.619-1.731 21.141 21.141 0 0 0 1.896-8.875 18.388 18.388 0 0 0-.267-3.229 7.608 7.608 0 0 0-.601-2.017 3.54 3.54 0 0 0-1.331-1.334 3.966 3.966 0 0 0-1.993-.581 2.763 2.763 0 0 0-1.232.276c-.44.224-.818.553-1.102.957-.03.03-.061.06-.095.087a9.05 9.05 0 0 0-1.112 2.583l-.003.013c.311.252.614.494.902.714.448.353.92.675 1.411.964.34.208.708.366 1.093.47a1.302 1.302 0 0 1 .957 1.57 1.283 1.283 0 0 1-1.321.966 1.222 1.222 0 0 1-.249-.01 9.76 9.76 0 0 1-3.471-1.895c-1.102-.845-2.224-1.824-3.457-2.747a3.325 3.325 0 0 0-2.005-.693 2.838 2.838 0 0 0-1.659.515 2.14 2.14 0 0 0-.858 1.28v.001a3.94 3.94 0 0 0-.093.866 5.713 5.713 0 0 0 1.727 3.877 9.717 9.717 0 0 0 5.242 2.653 1.304 1.304 0 0 1 1.028 1.524 1.363 1.363 0 0 1-1.524 1.029 11.78 11.78 0 0 1-7.456-4.407 8.52 8.52 0 0 1-1.279-2.501 4.406 4.406 0 0 0-.601.199.928.928 0 0 1-.093.084l.001.001-.033.02-.151.102c-.189.134-.37.279-.543.433a5.21 5.21 0 0 0-1.238 1.582 3.187 3.187 0 0 0-.33 1.392l.001.058v.002c.038.823.31 1.618.785 2.291a9.126 9.126 0 0 0 2.16 2.202 15.581 15.581 0 0 0 6.298 2.731 1.292 1.292 0 0 1 1.042 1c.037.167.041.339.011.507-.014.04-.029.079-.046.117a1.288 1.288 0 0 1-1.461.936 18.18 18.18 0 0 1-5.678-2.084 16.645 16.645 0 0 1-2.846-2.085 4.022 4.022 0 0 0-.859 2.416 5.085 5.085 0 0 0 .955 2.808 10.293 10.293 0 0 0 2.87 2.749 16.988 16.988 0 0 0 5.83 2.385c1.089.229 2.196.368 3.308.415.324.015.645.035.976.034.853 0 1.706-.051 2.553-.152.19-.021.382.002.562.065a37.141 37.141 0 0 0 15.626-7.251c5.273-4.076 9.696-9.543 11.618-15.845a30.385 30.385 0 0 0 1.67 3.993 43.987 43.987 0 0 0 6.931 9.703 18.71 18.71 0 0 1 4.985 12.986 24.7 24.7 0 0 1-.354 4.027 22.654 22.654 0 0 0-1.794-1.924c-.153-.144-.31-.278-.465-.414a1.229 1.229 0 0 1-.282-.132 6.7 6.7 0 0 0-3.977-1.486 4.45 4.45 0 0 0-1.82.374 3.116 3.116 0 0 0-1.088.77 2.275 2.275 0 0 0-.343.582 3.104 3.104 0 0 0-.169.458 5.683 5.683 0 0 0-.169 1.458c.008.741.093 1.48.256 2.203.048.219.097.417.143.575.042.152.078.257.1.319a20.994 20.994 0 0 1 4.181 4.759 15.69 15.69 0 0 1 1.85 3.886 1.298 1.298 0 0 1-.912 1.597c-.039.011-.077.001-.117.008-.069.01-.138.015-.208.014a1.446 1.446 0 0 1-.228 0 1.405 1.405 0 0 1-.363-.119 1.28 1.28 0 0 1-.68-.815l-.01-.033-.052-.16a10.024 10.024 0 0 0-.25-.657 16.194 16.194 0 0 0-1.226-2.328 18.323 18.323 0 0 0-3.336-3.895 19.921 19.921 0 0 0-3.134-2.266 4.132 4.132 0 0 0-2.1-.607 3.62 3.62 0 0 0-2.53 1.042 3.299 3.299 0 0 0-1.034 2.34c.008.671.229 1.323.632 1.861l.965 1.349 3.863 5.398c1.443 2.015 2.496 3.482 2.498 3.485a1.301 1.301 0 0 1-.299 1.814c-.091.056-.189.1-.291.131a1.283 1.283 0 0 1-1.523-.429c0-.001-3.053-4.258-5.878-8.208-.009-.007-.019-.007-.027-.014-.034-.026-.076-.035-.11-.058a1.949 1.949 0 0 0-1.11-.331 3.544 3.544 0 0 0-1.487.375c-.237.11-.464.239-.68.387a5.658 5.658 0 0 0-1.855 2.189 2.889 2.889 0 0 0-.266 1.271c.011.565.108 1.125.285 1.662.197.626.448 1.233.752 1.814.14.274.296.55.456.825a26.664 26.664 0 0 0 2.039 2.968 42.818 42.818 0 0 0 4.026 4.424l.018.016a1.295 1.295 0 0 1 .096 1.797c-.01.012-.013.028-.024.04a1.3 1.3 0 0 1-1.837.072c-.02-.018-.974-.904-2.232-2.281-.126-.139-.253-.277-.386-.426a43.202 43.202 0 0 1-1.93-2.342c-.147-.191-.293-.375-.438-.573l-.57.39c-.688.468-1.643 1.109-2.782 1.849-.272.176-.547.355-.836.54-.624.399-1.29.818-1.978 1.242.314 1.707.636 4.134.949 6.867.068.588.134 1.194.201 1.804.099.918.197 1.848.293 2.79 2.863.8 5.822 1.211 8.795 1.223a27.43 27.43 0 0 0 17.88-6.285 24.047 24.047 0 0 0 5.826-7.337 33.218 33.218 0 0 0 1.338-4.703c-.254.44-.523.875-.813 1.301a16.995 16.995 0 0 1-3.818 3.911 25.238 25.238 0 0 1-3.63 2.27 26.857 26.857 0 0 1-4.474 1.839 1.29 1.29 0 0 1-.988-.114 1.302 1.302 0 0 1 .276-2.387l.011-.003.053-.016a21.108 21.108 0 0 0 1.076-.368 26.83 26.83 0 0 0 2.857-1.263 17.579 17.579 0 0 0 6.488-5.332 18.325 18.325 0 0 0 2.676-6.11c.298-1.254.451-2.538.456-3.827a11.955 11.955 0 0 0-1.023-5.07 1.271 1.271 0 0 1-.113-.569c-.142-.265-.28-.528-.433-.796a34.514 34.514 0 0 0-1.127-1.83c.558-2.227.848-4.512.864-6.808a21.336 21.336 0 0 0-5.659-14.733 41.47 41.47 0 0 1-6.536-9.127 29.18 29.18 0 0 1-2.906-9.813c-.002-.022-.016-.039-.02-.06a19.34 19.34 0 0 0-2.725-10.051c-.944-1.568-2.097-3-3.427-4.257a30.207 30.207 0 0 0 4.898-1.478 29.359 29.359 0 0 0 14.561-12.922 36.97 36.97 0 0 0 3.787-9.55 9.515 9.515 0 0 0 5.11-2.782 9.143 9.143 0 0 0 2.465-6.304 10.608 10.608 0 0 0-.654-3.613v-.001a14.106 14.106 0 0 0-5.245-6.604 16.254 16.254 0 0 0-1.843-1.104 39.61 39.61 0 0 0-2.78-7.523 36.567 36.567 0 0 0-12.845-14.54l-.711 1.088.711-1.089a39.517 39.517 0 0 0-19.095-6.552 15.606 15.606 0 0 0-2.827-3.133 13.672 13.672 0 0 0-6.088-2.99h-.001a11.018 11.018 0 0 0-2.103-.206 9.327 9.327 0 0 0-6.738 2.76 9.466 9.466 0 0 0-2.642 6.663c0 .197.006.394.017.59v.002c.013.23.037.457.065.683a38.713 38.713 0 0 0-7.968 5.556 35.52 35.52 0 0 0-7.243 9.078 39.199 39.199 0 0 0-8.898-7.9 21.412 21.412 0 0 0-11.213-3.646 14.072 14.072 0 0 0-4.55.736 12.036 12.036 0 0 0-7.042 6.498 23.804 23.804 0 0 0-1.996 10.162c.01 2.088.189 4.172.536 6.231a13.881 13.881 0 0 0-1.68 1.84c-.424.559-.801 1.152-1.127 1.774-2.917.129-5.82.477-8.686 1.042a61.92 61.92 0 0 0-19.564 7.54 17.929 17.929 0 0 0-2.654-3.04 19.51 19.51 0 0 0-13.143-4.94 18.761 18.761 0 0 0-13.926 5.9 17.645 17.645 0 0 0-4.55 12.014 19.96 19.96 0 0 0 6.394 14.62 17.94 17.94 0 0 0 3.033 2.232 54.72 54.72 0 0 0-5.724 23.99 49.665 49.665 0 0 0 2.027 14.079 38.244 38.244 0 0 0 5.298 11.156c-5.091 4.172-9.867 10.433-13.483 17.347-3.822 7.329-6.341 15.377-6.348 22.522a20.943 20.943 0 0 0 2.493 10.516 19.04 19.04 0 0 0 6.997 7.266ZM134.11 65.717c.87.696 1.793 1.324 2.762 1.876a3.826 3.826 0 0 1-1.105.164 5.17 5.17 0 0 1-2.974-1.048 3.664 3.664 0 0 1-1.279-1.42 3.17 3.17 0 0 1-.305-1.395 4.06 4.06 0 0 1 .109-.899 19.963 19.963 0 0 0 2.792 2.721Zm-8.368-45.037a36.046 36.046 0 0 1 6.877-4.884 3.487 3.487 0 0 0 3.506 2.114c.491-.041.991-.061 1.496-.061 2.771.058 5.518.523 8.153 1.38a34.78 34.78 0 0 1 2.688.96c.318.13.562.235.719.305l.171.077.033.016.004.001a3.501 3.501 0 0 0 4.86-2.167 9.417 9.417 0 0 0 .378-2.67 9.91 9.91 0 0 0-.016-.569v-.003a11.438 11.438 0 0 0-.835-3.603 37.194 37.194 0 0 1 16.178 5.982 33.975 33.975 0 0 1 11.936 13.515 36.778 36.778 0 0 1 2.078 5.23 12.34 12.34 0 0 0-2.901-.374c-.346 0-.695.016-1.046.051a9.506 9.506 0 0 0-3.145.86 3.5 3.5 0 0 0-1.384 5.142 32.253 32.253 0 0 1 2.283 4.156 25.418 25.418 0 0 1 2.417 8.528 3.496 3.496 0 0 0 2.85 3.194c.46.082.924.136 1.391.162a34.11 34.11 0 0 1-3.306 8.086 26.756 26.756 0 0 1-13.27 11.802 28.17 28.17 0 0 1-10.502 1.985c-7.752.007-15.609-2.986-22.377-7.586 1.526-.3 2.979-.896 4.276-1.754.85-.54 1.647-1.16 2.378-1.853a1.298 1.298 0 0 0-.635-2.193 13.395 13.395 0 0 1-4.582-2.299l1.118-1.35c1.945.74 4.601.28 5.336-1.42.93-2.152-4.819-7.32-6.92-5.35-.794.744-1.329 3.264-.386 5.072l-1.134 1.37a11.977 11.977 0 0 1-2.744-3.797 1.304 1.304 0 0 0-1.044-.795 1.3 1.3 0 0 0-1.205.52 16.14 16.14 0 0 0-1.332 2.252 12.216 12.216 0 0 0-1.33 4.704 48.95 48.95 0 0 1-5.921-7.333 32.167 32.167 0 0 1-4.89-11.456 24.84 24.84 0 0 1-.415-4.521c-.003-8.047 3.918-15.735 10.194-21.426Z"/><path d="M149.186 162.095a83.47 83.47 0 0 1-2.299 1.297c-.922.502-1.839.977-2.723 1.397l-.302.14c-.97.457-1.876.87-2.723 1.229 4.395 3.084 7.001 7.887 7.483 13.779.016.149.057.293.122.427.392 5.558.564 10.708.619 15.07a1.3 1.3 0 1 0 2.6-.032 273.289 273.289 0 0 0-.262-8.965l-.082-1.006c-.097-1.176-.235-2.83-.404-4.745-.337-3.83-.795-8.705-1.272-12.866-.252-2.2-.511-4.199-.757-5.725Z"/></g></svg>