<svg xmlns="http://www.w3.org/2000/svg" width="200" height="200" fill="none"><g fill="#BEBEC9"><path d="M69.174 70.488a9.779 9.779 0 0 0-5.427-2.464 9.176 9.176 0 0 0-.834-.037 15.65 15.65 0 0 0-6.563 1.694 26.041 26.041 0 0 0-9.549 8.002 23.212 23.212 0 0 0-4.615 13.888c-.006 5.498 1.584 9.54 3.8 12.354a15.74 15.74 0 0 0 7.314 5.174c1.653.545 3.384.817 5.125.806a20.103 20.103 0 0 0 12.266-4.291 16.568 16.568 0 0 0 6.424-12.238c.035-.623.052-1.245.051-1.865a33.419 33.419 0 0 0-3.798-15.656 18.969 18.969 0 0 0-4.194-5.367Zm5.345 22.744a13.956 13.956 0 0 1-5.444 10.345 17.522 17.522 0 0 1-10.65 3.728 13.457 13.457 0 0 1-4.293-.669l-.416 1.232.416-1.232a13.15 13.15 0 0 1-6.101-4.317c-1.838-2.35-3.24-5.739-3.245-10.748 0-.134 0-.27.003-.405a21.276 21.276 0 0 1 6.728-14.946 22.864 22.864 0 0 1 5.954-4.193 13.133 13.133 0 0 1 5.442-1.44c.208 0 .409.01.6.026a7.2 7.2 0 0 1 3.975 1.854 19.295 19.295 0 0 1 5.035 7.767 32.062 32.062 0 0 1 1.996 12.998Z"/><path d="M70.911 93.423a2.663 2.663 0 1 1-3.717-2.464 5.99 5.99 0 0 0-2.964-.136c-4.887 1.042-7.657 5.83-6.388 8.031 1.044 1.812 4.124 1.184 8.045.333 3.921-.85 6.405-.889 6.152-3.479a4.54 4.54 0 0 0-1.128-2.285ZM114.172 84.137l.049.16a2.66 2.66 0 0 1-2.365 3.178 2.666 2.666 0 0 1-2.522-1.272 2.663 2.663 0 0 1 1.148-3.79 9.165 9.165 0 0 0-3.534-.05c-3.986.73-5.986 5.415-5.357 7.493.753 2.49 3.064 1.58 7.013.872 3.95-.708 7.037-1.302 7.311-3.374a3.875 3.875 0 0 0-1.743-3.217ZM99.904 102.344a1.294 1.294 0 0 0-1.334.13 11.53 11.53 0 0 1-2.477 1.204c-1.404.525-2.838.97-4.293 1.333a78.01 78.01 0 0 0-.072-1.505 58.939 58.939 0 0 0-.213-2.645c2.647-1.584 4.815-5.779 4.16-8.261-.895-3.392-13.086-.842-13.738 2.349-.437 2.136 3.815 6.098 7.027 6.502.073.754.129 1.521.168 2.206.041.702.066 1.322.082 1.764l.005.18a37.137 37.137 0 0 1-7.103.814 15.37 15.37 0 0 1-2.444-.174 1.304 1.304 0 0 0-1.497 1.098c-.033.228-.004.461.083.675a22.242 22.242 0 0 0 2.853 4.801c1 1.312 2.207 2.452 3.575 3.374a9.421 9.421 0 0 0 5.186 1.613 9.11 9.11 0 0 0 1.502-.125 9.734 9.734 0 0 0 5.248-2.57 13.126 13.126 0 0 0 3.453-6.454c.374-1.566.568-3.171.576-4.781a9.34 9.34 0 0 0-.007-.411 1.297 1.297 0 0 0-.74-1.117Zm-5.974 4.782a2.149 2.149 0 0 1-.08.369 2.229 2.229 0 0 1-.813 1.113 6.031 6.031 0 0 1-2.68 1.023c-.452.082-.91.125-1.368.128a4.33 4.33 0 0 1-1.735-.316 2.69 2.69 0 0 1-.993-.719 51.951 51.951 0 0 0 7.67-1.598Zm-8.82 2.062v.002-.002Zm9.715 4.04a7.11 7.11 0 0 1-3.875 1.884c-.357.06-.717.09-1.078.09a6.823 6.823 0 0 1-3.767-1.192 14.373 14.373 0 0 1-4.032-4.34c-.147-.233-.28-.455-.404-.67.15.003.294.015.446.015.428 0 .866-.013 1.31-.034.057.155.124.307.198.455a5.157 5.157 0 0 0 1.75 1.936 6.459 6.459 0 0 0 3.616.987 10.46 10.46 0 0 0 1.818-.168c1.757-.194 3.39-1 4.612-2.277.41-.479.72-1.035.91-1.636a4.876 4.876 0 0 0 .195-1.991c.166-.06.339-.12.497-.181.324-.124.63-.248.92-.372a16.212 16.212 0 0 1-.977 4.167 9.23 9.23 0 0 1-2.139 3.327Z"/><path d="M123.687 91.924a38.726 38.726 0 0 1 5.418-2.837 31.079 31.079 0 0 1 1.657-.652c.194-.07.343-.12.442-.152l.108-.035.029-.01a1.3 1.3 0 0 0-.758-2.487c-.029.01-.659.204-1.684.61.219-1.08.33-2.18.332-3.283a22.265 22.265 0 0 0-1.974-8.798 23.312 23.312 0 0 0-9.988-11.025 25.656 25.656 0 0 0-12.43-3.437 13.833 13.833 0 0 0-6.32 1.32 10.38 10.38 0 0 0-4.61 5.511 22.553 22.553 0 0 0-1.458 8.395 34.538 34.538 0 0 0 3.373 14.627c1.516 3.158 4 5.75 7.093 7.395a19.812 19.812 0 0 0 9.272 2.32 26.336 26.336 0 0 0-2.341 4.387 1.3 1.3 0 0 0 2.402.993c2.504-6.064 7.259-10.215 11.437-12.843Zm-9.563 4.855a1.27 1.27 0 0 0-.405-.048c-.468.038-.94.057-1.418.058a17.244 17.244 0 0 1-8.146-2.009 13.818 13.818 0 0 1-5.986-6.232 31.96 31.96 0 0 1-3.118-13.504c-.05-2.53.38-5.046 1.267-7.416a7.82 7.82 0 0 1 3.405-4.185 11.326 11.326 0 0 1 5.116-1.025 23.087 23.087 0 0 1 11.138 3.093 20.706 20.706 0 0 1 8.891 9.796 19.657 19.657 0 0 1 1.763 7.77 13.786 13.786 0 0 1-.656 4.262c-.03.114-.043.232-.04.35a41.482 41.482 0 0 0-3.633 2.034 34.784 34.784 0 0 0-8.178 7.056ZM146.162 17.988h.002-.002ZM133.592 4.355l.003-.003.003-.003-.006.006Z"/><path d="M196.043 48.782v-.015l-.001-.032h-.001a11.89 11.89 0 0 0-.73-4.024l-.003-.006h.001a15.405 15.405 0 0 0-5.717-7.22l-.008-.005a17.115 17.115 0 0 0-3.107-1.709 1.285 1.285 0 0 0-.035-.32 37.064 37.064 0 0 0-15.066-20.07 39.785 39.785 0 0 0-17.445-6.404A16.797 16.797 0 0 0 150.29 4.7l-.004-.003a14.965 14.965 0 0 0-6.669-3.266h-.003a12.324 12.324 0 0 0-2.352-.23h.006l-.05-.001a10.63 10.63 0 0 0-7.625 3.152 10.765 10.765 0 0 0-3.011 7.544v.032l.001.022c0 .213.006.425.018.635v.004c.027.428.077.854.15 1.277a37.383 37.383 0 0 0-12.723 11.847 33.035 33.035 0 0 0-1.973 3.473 39.24 39.24 0 0 0-9.103-9.283c-3.881-2.76-8.203-4.566-12.57-4.571a14.548 14.548 0 0 0-5.906 1.228 12.31 12.31 0 0 0-4.426 3.282 16.69 16.69 0 0 0-3.378 6.945 30.606 30.606 0 0 0-.803 7.241c.002 1.863.13 3.723.383 5.568a21.443 21.443 0 0 0-1.675 2.297c-.378.602-.721 1.226-1.028 1.867h-.008a58.265 58.265 0 0 0-5.444.809 61.96 61.96 0 0 0-19.852 7.71 17.908 17.908 0 0 0-2.766-3.21 19.51 19.51 0 0 0-13.143-4.94 18.761 18.761 0 0 0-13.925 5.9 17.644 17.644 0 0 0-4.552 12.014 19.961 19.961 0 0 0 6.395 14.62c1.02.93 2.142 1.74 3.347 2.413a54.68 54.68 0 0 0-5.638 23.809 49.669 49.669 0 0 0 2.027 14.079 38.254 38.254 0 0 0 5.296 11.169 64.175 64.175 0 0 0-9.612 10.751c-5.062 7.095-10.172 17.246-10.176 29.406 0 .583.012 1.171.036 1.763.065 2.723.59 5.415 1.556 7.962a14.446 14.446 0 0 0 6.132 7.333 17.18 17.18 0 0 0 8.412 2.185l-.68 8.615a1.299 1.299 0 1 0 2.591.204l.704-8.917a32.887 32.887 0 0 0 11.443-3.34 31.76 31.76 0 0 0 10.83-8.46c9.29-11.854 13.332-21.901 14.194-24.215a39.884 39.884 0 0 0 5.895-3.856c.817-.648 1.6-1.34 2.343-2.072a113.855 113.855 0 0 0 18.694-2.203c16.227-3.216 29.746-9.48 39.065-17.972 1.425.505 2.895.871 4.39 1.093.887.132 1.782.197 2.678.194.94-.006 1.879-.069 2.812-.189.42 1.443.926 3.26 1.492 5.454a90.111 90.111 0 0 0-10.147 8.74 26.57 26.57 0 0 0-5.112.923 16.93 16.93 0 0 0-4.531 1.997 9.132 9.132 0 0 0-3.488 3.953 8.64 8.64 0 0 0-.649 3.446 15.496 15.496 0 0 0 1.14 5.554 19.737 19.737 0 0 0 4.842 7.161c.101.189.249.348.428.464.046.02.093.037.14.052.025.021.047.043.071.064a14.488 14.488 0 0 0 9.408 3.581c.114 0 .229-.002.344-.004a11.444 11.444 0 0 0 2.63-.446 60.858 60.858 0 0 0 10.802-4.625 158.07 158.07 0 0 1 1.557 16.937 308.772 308.772 0 0 1 .309 15.091l-.004.477a1.296 1.296 0 0 0 1.284 1.316 1.3 1.3 0 0 0 1.316-1.284c0-.005.008-.684.008-1.871 0-2.671-.042-7.915-.315-13.848-.097-2.09-.224-4.266-.386-6.445a43.405 43.405 0 0 0 9.822 1.22c6.725.005 12.396-1.938 16.705-5.536 4.313-3.595 7.223-8.792 8.634-15.128.008-.034-.002-.066.002-.1a18.422 18.422 0 0 0 1.8-8.033c0-.316-.007-.636-.022-.959a20.41 20.41 0 0 0-3.88-11.436c.055-.109.094-.225.116-.344.125-1.001.187-2.008.188-3.017a23.818 23.818 0 0 0-1.504-8.348c-1.689-4.495-4.925-8.106-7.685-11.59a36.894 36.894 0 0 1-3.589-5.154 12.494 12.494 0 0 1-1.647-5.256 1.26 1.26 0 0 0-.229-.625c.106-.929.161-1.863.164-2.798a21.465 21.465 0 0 0-2.311-9.848 20.955 20.955 0 0 0-3.205-4.62 30.113 30.113 0 0 0 3.729-1.205 28.467 28.467 0 0 0 11.404-8.365 34.875 34.875 0 0 0 6.546-12.592c.007-.046.01-.092.012-.139a10.868 10.868 0 0 0 6.442-3.266 10.44 10.44 0 0 0 2.819-7.163v-.018Zm-62.861-36.886a8.165 8.165 0 0 1 2.27-5.726l.006-.006a8.026 8.026 0 0 1 5.76-2.364h.044a9.732 9.732 0 0 1 1.855.183 12.373 12.373 0 0 1 5.504 2.71 13.99 13.99 0 0 1 3.69 4.745c.573 1.196.913 2.49 1.002 3.814v.004c.01.164.014.33.014.495v.006a8.103 8.103 0 0 1-.325 2.295 2.191 2.191 0 0 1-1.213 1.385 2.204 2.204 0 0 1-1.842-.023l-.006-.002-.029-.014-.027-.013-.171-.076-.002-.002c-.173-.077-.43-.188-.762-.322h.002a35.994 35.994 0 0 0-2.789-.996 29.564 29.564 0 0 0-8.505-1.44h-.04.003c-.539 0-1.076.021-1.607.066l-.191.009a2.193 2.193 0 0 1-2.07-1.467 9.804 9.804 0 0 1-.556-2.715 9.1 9.1 0 0 1-.015-.519v-.026ZM80.775 43.28a18.97 18.97 0 0 1 1.66-2.237l.11-.123.025-.028.004-.004a1.302 1.302 0 0 0 .335-1.089 38.54 38.54 0 0 1-.44-5.77c-.06-2.982.412-5.95 1.394-8.765.5-1.358 1.231-2.62 2.16-3.729a9.697 9.697 0 0 1 3.5-2.595 11.942 11.942 0 0 1 4.859-1.008c3.626-.006 7.486 1.54 11.061 4.088a37.039 37.039 0 0 1 9.3 9.855c.032.036.066.071.102.104a28.65 28.65 0 0 0-1.897 10.127c0 1.675.154 3.347.459 4.994.3 1.585.735 3.141 1.3 4.652l-.382-.203c-1.2-.63-2.397-1.238-3.223-1.659a9.493 9.493 0 0 0-.759-3.25 15.14 15.14 0 0 0-2.874-4.335 14.586 14.586 0 0 0-1.641-1.519 9.59 9.59 0 0 0-.834-.585c-.081-1.07-.245-3.227-.433-5.54a418.842 418.842 0 0 0-.414-4.803c-.136-1.461-.259-2.643-.363-3.31a1.305 1.305 0 0 0-1.489-1.09 1.296 1.296 0 0 0-1.062.986c-.04.167-.045.34-.018.509.083.52.211 1.713.344 3.146.201 2.159.425 4.91.598 7.12s.296 3.873.296 3.877a1.296 1.296 0 0 0 .772 1.093c.52.267 1.001.604 1.43 1.002a13.654 13.654 0 0 1 2.637 3.17 7.798 7.798 0 0 1 1.23 3.869c.001.333-.034.666-.105.992-.058.479-.301.917-.678 1.22-.34.21-.736.311-1.135.288a6.393 6.393 0 0 1-2.03-.408 9.303 9.303 0 0 1-.722-.292l-.195-.092-.045-.022-.008-.004a1.19 1.19 0 0 0-.144-.042c.009-.238.02-.477.02-.708a23.036 23.036 0 0 0-.595-5.106 1.302 1.302 0 0 0-1.579-.941 1.297 1.297 0 0 0-.942 1.579l.004.014c.331 1.462.503 2.955.512 4.454a11.645 11.645 0 0 1-.491 3.558 2.285 2.285 0 0 1-1.07 1.316 3.78 3.78 0 0 1-1.874.454 4.608 4.608 0 0 1-2.003-.447 1.952 1.952 0 0 1-.987-.906c-.01-.024-.031-.04-.042-.063.52-1.779.85-3.607.983-5.456.153-1.797.153-3.156.153-3.18a1.3 1.3 0 1 0-2.6 0l-.002.214a40.95 40.95 0 0 1-.202 3.394 20.743 20.743 0 0 1-.907 4.578 1.657 1.657 0 0 1-.808.916 3.311 3.311 0 0 1-1.574.357 4.533 4.533 0 0 1-2.219-.58 2.391 2.391 0 0 1-1.175-1.362 5.756 5.756 0 0 1-.214-1.59 11.917 11.917 0 0 1 2.355-6.39 1.3 1.3 0 0 0-2.157-1.45 15.194 15.194 0 0 0-2.754 6.997c-.45.192-.933.295-1.422.304-.45.01-.893-.116-1.272-.359a3.582 3.582 0 0 1-1.273-1.717 4.022 4.022 0 0 1-.297-1.565 9.909 9.909 0 0 1 1.747-4.905ZM26.008 74.744a17.372 17.372 0 0 1-5.549-12.7 15.04 15.04 0 0 1 3.87-10.26 16.165 16.165 0 0 1 12.007-5.054 16.92 16.92 0 0 1 11.389 4.257 15.32 15.32 0 0 1 2.32 2.674 65.11 65.11 0 0 0-13.619 11.98 62.952 62.952 0 0 0-7.642 11.121 15.325 15.325 0 0 1-2.775-2.018Zm40.807 72.378a38.919 38.919 0 0 1-2.658 1.641 34.354 34.354 0 0 1-1 .538l-.051.026-.013.006a1.303 1.303 0 0 0-.658.75l-.008.023c-.194.562-3.956 11.175-13.95 23.926a29.227 29.227 0 0 1-9.936 7.732 28.979 28.979 0 0 1-12.459 3.181 16.412 16.412 0 0 1-5.263-.805 11.408 11.408 0 0 1-5.973-4.522 18.421 18.421 0 0 1-2.714-9.671 39.93 39.93 0 0 1-.034-1.657c-.004-11.409 4.82-21.071 9.692-27.895a64.51 64.51 0 0 1 6.694-7.935 51.463 51.463 0 0 1 2.194-2.088l.184-.162a34.893 34.893 0 0 0 2.83 3.094c0 .055-.005.105-.005.16 0 .166.005.338.007.507-.66.945-2.561 3.713-4.655 7.222-2.59 4.355-5.48 9.803-6.675 14.488a1.297 1.297 0 0 0 .941 1.579 1.3 1.3 0 0 0 1.58-.941c1.054-4.19 3.853-9.555 6.387-13.794a124.46 124.46 0 0 1 4.4-6.844c.124-.18.221-.319.287-.411l.098-.138a1.3 1.3 0 0 0 .242-.791c-.008-.298-.012-.59-.012-.877 0-5.159 1.231-8.61 2.82-10.724a6.613 6.613 0 0 1 5.192-2.942 4.65 4.65 0 0 1 1.269.173 18.43 18.43 0 0 0-3.356 4.698 1.298 1.298 0 0 0 .581 1.744 1.304 1.304 0 0 0 1.433-.181c.13-.112.235-.248.311-.401a15.939 15.939 0 0 1 5.538-6.23 16.271 16.271 0 0 1 5.44-2.328c.228-.046.46-.069.692-.068a4.622 4.622 0 0 1 2.663.872c.35.254.64.58.855.956.208.378.315.804.31 1.236a4.217 4.217 0 0 1-.46 1.799 1.285 1.285 0 0 0-.118.548c-.306.17-.615.349-.928.539a43.754 43.754 0 0 0-8.468 7.071 1.296 1.296 0 0 0 .039 1.838 1.3 1.3 0 0 0 1.838-.039 41.231 41.231 0 0 1 7.948-6.652 12.374 12.374 0 0 1 6.03-2.17 3.586 3.586 0 0 1 1.828.436c.531.319.958.784 1.23 1.34.44.78.684 1.657.706 2.553a4.121 4.121 0 0 1-.955 2.604 5.087 5.087 0 0 1-.887.866l-.028.019a56.78 56.78 0 0 0-9.307 6.514 1.308 1.308 0 0 0-.427.899 1.298 1.298 0 0 0 1.233 1.364 1.298 1.298 0 0 0 .937-.333 46.871 46.871 0 0 1 5.848-4.372 64.097 64.097 0 0 1 2.812-1.706l.135-.076c.032 0 .06.013.093.01.452-.047.906-.072 1.36-.073a5.863 5.863 0 0 1 3.143.712c.359.23.65.552.842.932.251.541.371 1.134.35 1.73l-.004.211a8.52 8.52 0 0 1-1.807 4.627 25.13 25.13 0 0 1-6.203 5.662Zm24.328-6.384a113.637 113.637 0 0 1-15.873 2.033 10.923 10.923 0 0 0 2.154-5.853c.003-.1.005-.199.005-.296a6.355 6.355 0 0 0-.632-2.906 5.215 5.215 0 0 0-2.825-2.491 8.648 8.648 0 0 0-2.507-.537 6.538 6.538 0 0 0 .815-3.156 8.063 8.063 0 0 0-1.005-3.761 5.802 5.802 0 0 0-2.229-2.382 6.174 6.174 0 0 0-3.13-.786c-1.15.023-2.287.232-3.37.618.055-.314.085-.633.09-.952a5.123 5.123 0 0 0-.634-2.491 5.942 5.942 0 0 0-2.555-2.39 7.253 7.253 0 0 0-3.24-.783c-.41-.001-.82.04-1.223.122a18.858 18.858 0 0 0-6.34 2.703c-.31.204-.62.423-.93.654a6.981 6.981 0 0 0-3.415-.886 9.214 9.214 0 0 0-7.271 3.982 17.73 17.73 0 0 0-3.121 8.599 34.563 34.563 0 0 1-7.423-13.55 47.068 47.068 0 0 1-1.921-13.344C24.56 89.991 29.77 77.387 38.4 67.334a61.104 61.104 0 0 1 34.203-20.215 54.95 54.95 0 0 1 4.008-.625 8.791 8.791 0 0 0-.184 1.691c-.006.88.163 1.752.498 2.565a6.159 6.159 0 0 0 2.253 2.895c.802.518 1.738.79 2.692.781a6.267 6.267 0 0 0 1.595-.22c.034.154.054.312.097.464a4.978 4.978 0 0 0 2.369 2.896 7.108 7.108 0 0 0 3.525.93 5.883 5.883 0 0 0 2.825-.676c.224-.122.438-.263.637-.422.4.395.861.724 1.365.972a7.18 7.18 0 0 0 3.162.72 6.354 6.354 0 0 0 3.177-.803 4.91 4.91 0 0 0 2.238-2.757c.106-.325.19-.653.265-.982.171.07.36.146.577.223a8.89 8.89 0 0 0 2.902.56 4.513 4.513 0 0 0 2.632-.764 4.165 4.165 0 0 0 1.473-1.959c.72.368 1.563.8 2.407 1.243 1.219.64 2.432 1.301 3.156 1.752.058.027.118.05.179.067a42.904 42.904 0 0 0 2.225 3.835 54.802 54.802 0 0 0 16.491 16.032c.324.204.653.401.982.598a44.795 44.795 0 0 1 5.43 17.29c.031.32.053.635.074.951a5.061 5.061 0 0 0-2.485 1.37 7.558 7.558 0 0 0-1.797 3.285l-.029.112a9.576 9.576 0 0 0-1.482-.954 6.402 6.402 0 0 0-2.906-.753 4.942 4.942 0 0 0-3.54 1.478 5.201 5.201 0 0 0-1.522 3.742c0 .047.007.093.009.14a6.37 6.37 0 0 0-3.282 1.887 6.058 6.058 0 0 0-1.593 4.13 7.882 7.882 0 0 0 .894 3.519c.041.08.089.153.132.232a4.537 4.537 0 0 0-1.265 1.486 4.811 4.811 0 0 0-.533 2.244 8.452 8.452 0 0 0 3.341 6.157c.776.65 1.616 1.218 2.507 1.697-8.833 7.704-21.59 13.549-36.96 16.59Zm42.967-75.021a19.86 19.86 0 0 0 3.963 2.501c-.091.061-.18.122-.276.182a8.265 8.265 0 0 1-4.2 1.441 4.333 4.333 0 0 1-2.729-.942 3.746 3.746 0 0 1-1.18-1.446 4.024 4.024 0 0 1-.331-1.67 9.382 9.382 0 0 1 1.079-3.923l.013-.024a18.537 18.537 0 0 0 3.661 3.88Zm3.708 98.716a12.57 12.57 0 0 1-3.35.767 11.325 11.325 0 0 1-5.717-1.392 13.035 13.035 0 0 1-1.653-1.065c.11-.122.229-.248.357-.378a19.473 19.473 0 0 1 8.022-4.864 1.296 1.296 0 0 0 .908-1.606 1.27 1.27 0 0 0-.232-.454 1.282 1.282 0 0 0-.874-.485 1.277 1.277 0 0 0-.507.043 21.017 21.017 0 0 0-6.823 3.496 21.742 21.742 0 0 0-2.347 2.046c-.154.157-.297.31-.433.459a16.936 16.936 0 0 1-3.451-5.484 11.218 11.218 0 0 1 3.51-3.118 13.166 13.166 0 0 1 5.389-1.853 1.302 1.302 0 0 0 .711-2.291 1.302 1.302 0 0 0-.946-.299 16.38 16.38 0 0 0-9.499 4.526 10.205 10.205 0 0 1-.125-1.552 6.065 6.065 0 0 1 .434-2.411 6.538 6.538 0 0 1 2.527-2.813 16.59 16.59 0 0 1 5.734-2.132 24.826 24.826 0 0 1 2.883-.387l.166-.01.046-.002c.328-.013.639-.148.871-.38a74.916 74.916 0 0 1 17.169-13.267c5.208-2.789 9.807-4.017 13.495-4.014a12.564 12.564 0 0 1 5.304 1.057 8.901 8.901 0 0 1 2.849 2.065 5.765 5.765 0 0 0-1.598 1.87 8.942 8.942 0 0 0-.947 3.829c-.102-.048-.197-.107-.301-.152a7.481 7.481 0 0 0-2.971-.656 5.848 5.848 0 0 0-4.511 2.091 6.913 6.913 0 0 0-1.615 4.453c.003.628.094 1.252.272 1.854a8.941 8.941 0 0 0-1.862.494 6.898 6.898 0 0 0-3.741 3.376 6.744 6.744 0 0 0-.706 3.048 11.79 11.79 0 0 0 1.993 5.999c-.802.578-2.144 1.442-3.763 2.403-2.808 1.669-6.483 3.665-9.898 5.239a50.369 50.369 0 0 1-4.77 1.95Zm48.277-18.908a15.85 15.85 0 0 1-4.445 11.145 17.9 17.9 0 0 1-8.098 4.946 1.28 1.28 0 0 0-.457.219 1.286 1.286 0 0 0-.507.856 1.288 1.288 0 0 0 .246.964 1.314 1.314 0 0 0 .856.507c.169.024.341.015.507-.027a20.05 20.05 0 0 0 7.715-4.155 21.388 21.388 0 0 1-5.318 6.809c-3.802 3.166-8.802 4.928-15.04 4.933a41.098 41.098 0 0 1-9.624-1.236 1.288 1.288 0 0 0-.411-.015c-.278-3.117-.64-6.177-1.113-8.941-.006-.032-.026-.056-.034-.087 1.506-.827 2.92-1.644 4.144-2.385 1.335-.81 2.418-1.512 3.205-2.077a43.532 43.532 0 0 0 4.504 4.958 1.3 1.3 0 0 0 1.799-1.878 35.198 35.198 0 0 1-5.376-6.275 9.644 9.644 0 0 1-1.792-4.944c-.007-.654.14-1.3.431-1.885a4.28 4.28 0 0 1 2.364-2.118 6.674 6.674 0 0 1 2.159-.427c1.094 1.74 2.513 3.691 3.763 5.342 1.53 2.019 2.788 3.56 2.794 3.568a1.301 1.301 0 0 0 2.015-1.644l-.214-.264c-.487-.604-1.74-2.174-3.096-3.992-1.133-1.518-2.321-3.202-3.198-4.623a1.265 1.265 0 0 0-.358-.591c-.042-.072-.096-.155-.136-.224a3.869 3.869 0 0 1-.487-1.914 4.325 4.325 0 0 1 .993-2.766 3.25 3.25 0 0 1 1.133-.877 3.252 3.252 0 0 1 1.4-.301c.67.013 1.331.164 1.94.443a10.678 10.678 0 0 1 3.262 2.326 22.022 22.022 0 0 1 3.463 4.745 26.964 26.964 0 0 1 1.138 2.298l.055.131.012.03.002.006a1.298 1.298 0 0 0 .693.714 1.31 1.31 0 0 0 1.421-.261 1.313 1.313 0 0 0 .394-.914c.003-.17-.028-.34-.091-.498a28.14 28.14 0 0 0-2.368-4.462 22.527 22.527 0 0 0-2.876-3.622c-.37-.372-.768-.724-1.18-1.064 0-.032.014-.06.012-.093a12.93 12.93 0 0 1-.036-.939 5.792 5.792 0 0 1 1.099-3.862 2.898 2.898 0 0 1 1.081-.79 3.698 3.698 0 0 1 1.44-.269l.192.004c.86.103 1.688.39 2.428.842a13.972 13.972 0 0 1 4.825 4.668 18.18 18.18 0 0 1 2.751 9.126c.013.284.019.564.019.84Zm-10.091-31.424a31.135 31.135 0 0 1 5.153 8.229 21.226 21.226 0 0 1 1.34 7.439c0 .28-.017.541-.027.809a15.053 15.053 0 0 0-2.709-1.961 8.447 8.447 0 0 0-3.585-1.166 6.697 6.697 0 0 0-1.479.099 11.435 11.435 0 0 0-4.22-3.34 15.162 15.162 0 0 0-6.394-1.297c-4.26.003-9.235 1.388-14.722 4.321a58.43 58.43 0 0 0-5.006 3.041 177.253 177.253 0 0 0-1.184-4.303 39.154 39.154 0 0 0 13.694-6.165c5.503-3.856 10.234-9.175 12.377-15.52.238.557.503 1.102.794 1.634a59.727 59.727 0 0 0 5.968 8.18Zm-13.595-31.603a18.301 18.301 0 0 1 3.571 4.833 18.846 18.846 0 0 1 2.027 8.667 24.279 24.279 0 0 1-.689 5.618c-1.514 6.421-6.217 12.058-11.944 16.061-5.709 4.009-12.424 6.34-17.593 6.327a15.188 15.188 0 0 1-2.285-.164 16.373 16.373 0 0 1-8.215-3.368 5.937 5.937 0 0 1-2.427-4.178 2.21 2.21 0 0 1 .236-1.038c.131-.234.309-.439.522-.601a12.32 12.32 0 0 0 2.978 2.182 17.841 17.841 0 0 0 5.454 1.797 1.293 1.293 0 0 0 1.311-.605 1.31 1.31 0 0 0 .156-.983 1.306 1.306 0 0 0-1.062-.98 15.262 15.262 0 0 1-4.638-1.525 8.087 8.087 0 0 1-3.565-3.372 5.27 5.27 0 0 1-.62-2.356 3.441 3.441 0 0 1 .911-2.374 3.787 3.787 0 0 1 1.922-1.111 10.094 10.094 0 0 0 1.953 3.003 12.462 12.462 0 0 0 6.296 3.603 1.304 1.304 0 0 0 1.559-.976 1.304 1.304 0 0 0-.976-1.558 9.866 9.866 0 0 1-4.976-2.841 6.078 6.078 0 0 1-1.823-3.903 2.578 2.578 0 0 1 .76-1.903 2.328 2.328 0 0 1 1.702-.718 3.808 3.808 0 0 1 1.722.47c.798.43 1.522.988 2.141 1.651a12.478 12.478 0 0 0 4.971 3.339 1.312 1.312 0 0 0 .995-.076 1.305 1.305 0 0 0 .707-1.265 1.315 1.315 0 0 0-.457-.888 1.299 1.299 0 0 0-.446-.245 8.991 8.991 0 0 1-3.007-1.834c.021-.058.038-.118.049-.178h.001v-.002a7.545 7.545 0 0 1 .55-2.14c.201-.492.496-.941.867-1.323.361-.361.828-.599 1.333-.678.195-.033.393-.05.591-.051.406-.006.809.084 1.174.262a3.38 3.38 0 0 1 1.53 1.848c.586 1.619.851 3.337.781 5.057a46.72 46.72 0 0 1-1.065 9.012 1.31 1.31 0 0 0 .193.976c.094.142.216.264.358.359a1.282 1.282 0 0 0 .975.197 1.29 1.29 0 0 0 .828-.552c.096-.141.162-.3.196-.468a49.3 49.3 0 0 0 1.115-9.524c.01-1.286-.102-2.57-.335-3.835.232-.327.542-.756.886-1.266a21.643 21.643 0 0 0 1.992-3.568 12.135 12.135 0 0 0 1.058-4.744 9.257 9.257 0 0 0-.125-1.533 1.303 1.303 0 0 0-1.495-1.06 1.3 1.3 0 0 0-1.07 1.488c.061.365.091.734.09 1.105a10.658 10.658 0 0 1-1.397 4.867 20.53 20.53 0 0 1-.995 1.661 7.55 7.55 0 0 0-.335-.548 5.405 5.405 0 0 0-2.019-1.796 4.968 4.968 0 0 0-1.05-.38 37.364 37.364 0 0 0-.094-1.198 46.761 46.761 0 0 0-4.05-14.9 39.899 39.899 0 0 0 17.238 4.22 31.777 31.777 0 0 0 4.797-.367c.063.137.15.263.257.37ZM178.224 70.3a25.873 25.873 0 0 1-10.367 7.61 28.17 28.17 0 0 1-10.502 1.985c-7.752.007-15.609-2.985-22.377-7.586 1.526-.3 2.979-.896 4.276-1.754.851-.54 1.647-1.16 2.378-1.853a1.297 1.297 0 0 0-.635-2.193 13.393 13.393 0 0 1-4.582-2.299l1.118-1.35c1.945.74 4.601.28 5.336-1.42.93-2.152-4.819-7.32-6.92-5.35-.794.744-1.329 3.265-.386 5.072l-1.134 1.37a11.975 11.975 0 0 1-2.744-3.797 1.305 1.305 0 0 0-1.044-.795 1.3 1.3 0 0 0-1.205.52c-.504.713-.95 1.466-1.332 2.252a12.217 12.217 0 0 0-1.33 4.704 49.012 49.012 0 0 1-5.921-7.332 32.167 32.167 0 0 1-4.89-11.457 24.84 24.84 0 0 1-.415-4.52 27.383 27.383 0 0 1 4.656-14.97 34.71 34.71 0 0 1 11.287-10.686 4.787 4.787 0 0 0 4.744 2.755c.452-.039.916-.057 1.386-.057H137.658c2.626.063 5.228.508 7.726 1.32l.002.001c1.082.338 1.98.677 2.586.924h.001c.303.123.534.223.676.286l.156.07.019.01.105.044.004.002.012.003a4.77 4.77 0 0 0 3.899.004 4.803 4.803 0 0 0 2.651-3.023c.289-.985.434-2.007.432-3.033v-.005c0-.187-.006-.378-.016-.57v-.003l-.002-.075a12.505 12.505 0 0 0-.673-3.324 37.478 37.478 0 0 1 14.718 5.778 34.307 34.307 0 0 1 13.547 17.31c-.8-.152-1.612-.233-2.426-.24h-.008c-.388 0-.78.02-1.176.059-1.238.118-2.447.45-3.573.98a4.804 4.804 0 0 0-2.576 3.088 4.806 4.806 0 0 0 .679 3.963l.004.008a31.213 31.213 0 0 1 2.17 3.958l.002.004a24.175 24.175 0 0 1 2.298 8.066l.001.004a4.796 4.796 0 0 0 3.908 4.38c.413.077.835.13 1.261.167a32.094 32.094 0 0 1-5.841 10.995Zm13.111-16.123-.005.005a8.327 8.327 0 0 1-5.278 2.527h-.004c-.307.031-.616.047-.925.047a10.045 10.045 0 0 1-1.842-.174 2.19 2.19 0 0 1-1.792-2.007v.004a26.635 26.635 0 0 0-2.536-8.99 36.778 36.778 0 0 0-1.588-3.05 31.435 31.435 0 0 0-.546-.9 12.729 12.729 0 0 0-.253-.389l-.002-.004a2.203 2.203 0 0 1 .87-3.23v-.001a8.214 8.214 0 0 1 2.715-.74c.306-.032.611-.046.915-.046 2.532.067 4.985.9 7.036 2.386a12.802 12.802 0 0 1 4.768 5.987 9.295 9.295 0 0 1 .575 3.161v.036a7.847 7.847 0 0 1-2.108 5.378Z"/><path d="m193.228 55.96-.003.003-.002.002.005-.005ZM178.953 45.589l.001.004-.001-.004ZM137.632 30.848a14.071 14.071 0 0 0-6.119-1.392 12.912 12.912 0 0 0-5.851 1.35 9.896 9.896 0 0 0-4.29 4.123 11.45 11.45 0 0 0-1.165 5.34 16.607 16.607 0 0 0 2.54 8.838 12.077 12.077 0 0 0 3.361 3.476 10.824 10.824 0 0 0 4.868 1.775 10.304 10.304 0 0 0 6.134-1.206 13.386 13.386 0 0 0 5.183-5.291 14.747 14.747 0 0 0 1.906-7.068 10.098 10.098 0 0 0-1.606-5.663 12.506 12.506 0 0 0-4.961-4.282Zm1.24 17.458a10.047 10.047 0 0 1-3.003 2.56 7.691 7.691 0 0 1-4.598.908 8.215 8.215 0 0 1-3.711-1.348 10.276 10.276 0 0 1-3.562-4.468 14.444 14.444 0 0 1-1.191-5.69 8.934 8.934 0 0 1 .856-4.11l-1.146-.614 1.146.614a7.298 7.298 0 0 1 3.181-3.036 10.324 10.324 0 0 1 4.669-1.067 11.476 11.476 0 0 1 4.983 1.132 9.898 9.898 0 0 1 3.937 3.39 7.507 7.507 0 0 1 1.166 4.216 12.41 12.41 0 0 1-2.727 7.513ZM163.128 51.472a9.612 9.612 0 0 0-4.303-.964 14.456 14.456 0 0 0-9.136 3.578 13.518 13.518 0 0 0-3.18 3.934 10.654 10.654 0 0 0-1.261 4.966c.001.836.103 1.668.305 2.479a11 11 0 0 0 5.256 6.948 15.911 15.911 0 0 0 7.976 2.054 12.78 12.78 0 0 0 7.271-1.976 9.751 9.751 0 0 0 3.211-3.977 12.228 12.228 0 0 0 1.028-5.001 14.129 14.129 0 0 0-1.803-6.882 12.608 12.608 0 0 0-5.364-5.159Zm3.767 15.977a7.139 7.139 0 0 1-2.353 2.928 10.311 10.311 0 0 1-5.757 1.49 13.343 13.343 0 0 1-6.657-1.695 8.374 8.374 0 0 1-4.051-5.331 7.727 7.727 0 0 1-.229-1.855c.01-1.312.34-2.602.963-3.757a11.6 11.6 0 0 1 4.282-4.406 11.354 11.354 0 0 1 5.732-1.715 7.016 7.016 0 0 1 3.145.692 10 10 0 0 1 4.256 4.106 11.54 11.54 0 0 1 1.469 5.607 9.623 9.623 0 0 1-.8 3.936Z"/><path d="M125.905 44c-.886.948-.023 3.062 1.523 4.63l-.021-.12a1.901 1.901 0 0 1 3.021-1.673 1.897 1.897 0 0 1 .733 1.915 1.894 1.894 0 0 1-1.435 1.465 3.586 3.586 0 0 0 2.85.024c3.688-1.667-3.713-9.41-6.671-6.241ZM148.986 62.938a3.88 3.88 0 0 0 .823 3.483 1.901 1.901 0 0 1 1.094-1.786 1.897 1.897 0 1 1 .938 3.613c1.629 1.026 3.456 1.392 4.192.502 2.762-3.34-5.869-9.685-7.047-5.813Z"/></g></svg>