<svg xmlns="http://www.w3.org/2000/svg" width="200" height="200" fill="none"><g fill="#FFD93A"><path d="M190.289 106.892a3.072 3.072 0 0 0 .907 2.21 3.05 3.05 0 0 0 2.218.886 3.071 3.071 0 0 0 2.179-.977 3.068 3.068 0 0 0 .814-2.246c-.036-1.744-3.197-6.606-3.197-6.606s-2.957 4.988-2.921 6.733ZM197.389 62.872l-2.579-11.376a4.458 4.458 0 0 0-3.029-3.275l-6.662-2.027c-.131-.054-.261-.11-.398-.152l-4.554-1.386a4.453 4.453 0 0 1-2.625-3.12l-2.556-11.278a4.458 4.458 0 0 0-3.029-3.275l-11.141-3.454c-.043-.014-.087-.02-.13-.032l-6.93-2.148a4.46 4.46 0 0 0-4.351.986l-8.562 7.92a4.462 4.462 0 0 0-1.322 4.262l2.559 11.286a4.462 4.462 0 0 1-1.322 4.261l-8.509 7.872a4.46 4.46 0 0 1-4.26 1.008l-4.185-1.296c-.029-.01-.06-.013-.09-.021l-2.872-.89c-6.869-21.349-28.813-36.015-59.48-29.204C28.738 34.778 15.34 59.865 20.571 83.42a38.053 38.053 0 0 0 6.413 14.173 63.192 63.192 0 0 0-1.211 13.189c.353 28.944 21.575 52.152 54.325 51.753 20.508-.25 36.269-9.644 45.102-23.738a4.298 4.298 0 0 1-2.539-.91 12.741 12.741 0 0 1-1.886-1.701c-1.962.969-4.543.454-6.411-2.084a9.312 9.312 0 0 1-1.5-3.049 4.664 4.664 0 0 1-3.002-1.591c-2.218-2.569-1.814-6.031-1.338-7.994a10.39 10.39 0 0 1 3.24-6.408 4.45 4.45 0 0 1 1.806 2.649l1.606 6.91a4.6 4.6 0 0 1 1.961 3.252 2.552 2.552 0 0 1-.638 1.982 4.442 4.442 0 0 0 2.715 2.383l3.95 1.225 5.893 1.827 1.299.403c.043.014.087.019.131.031l6.929 2.149a4.456 4.456 0 0 0 4.349-.985l1.591-1.471c5.156-3.003 5.126 2.602 8.799 2.28 3.172-.277 2.072-3.397 5.38-3.365 3.591.035 2.813 3.967 1.963 7.001-1.61 5.744-.285 9.798 2.745 10.165 2.632.319 5.535-3.135 3.633-10.113-1.903-6.978-1.211-7.698 2.472-9.897l-.004-.027a4.446 4.446 0 0 0 1.839-1.016l8.562-7.921a4.46 4.46 0 0 0 1.321-4.261l-2.558-11.286a4.463 4.463 0 0 1 1.322-4.261l8.508-7.871a4.461 4.461 0 0 0 1.322-4.261l-2.213-9.76c.922-2.325 6.26-.554 7.311-4.144.957-3.273.512-6.573 2.268-9.508l.041-.038a4.44 4.44 0 0 0 .983-1.335c.069-.075.129-.152.201-.226l-.087-.04a4.455 4.455 0 0 0 .225-2.66ZM175.227 52.78c5.287-4.653 5.183.554 3.068 2.765-2.084 2.179-8.73 2.218-3.068-2.765Zm-11.838-12.65c1.922-1.778 7.105-1.665 8.888.522 1.263 1.548-.517 4.213-3.248 6.4-2.043 1.636-4.967 2.982-6.328 1.695-1.811-1.714-1.05-7.01.688-8.617Zm6.033 42.853c-2.084 2.178-8.73 2.218-3.068-2.766 5.287-4.652 5.182.555 3.068 2.766Zm-6.288-14.772c1.263 1.55-.516 4.214-3.248 6.401-2.043 1.636-4.967 2.982-6.328 1.694-1.811-1.713-1.05-7.009.688-8.617 1.922-1.777 7.105-1.664 8.888.522Zm-11.994 33.976c-2.043 1.636-4.967 2.982-6.328 1.694-1.811-1.713-1.051-7.008.688-8.617 1.921-1.777 7.105-1.664 8.888.523 1.263 1.548-.517 4.213-3.248 6.4Zm-13.349-15.54c5.287-4.653 5.183.555 3.068 2.765-2.084 2.179-8.73 2.218-3.068-2.765Zm17.89-55.135c5.286-4.652 5.182.555 3.067 2.766-2.083 2.178-8.73 2.218-3.067-2.766Zm-6.075 30.325c-2.084 2.179-8.73 2.218-3.068-2.765 5.287-4.653 5.182.555 3.068 2.765Zm8.113 46.489c5.287-4.653 5.182.555 3.068 2.765-2.084 2.179-8.73 2.219-3.068-2.765Zm-30.959-6.338c1.263 1.548-.517 4.213-3.248 6.4-2.043 1.636-4.967 2.982-6.328 1.695-1.811-1.714-1.05-7.009.688-8.617 1.922-1.778 7.105-1.665 8.888.522Zm-5.722-33.589c-2.084 2.179-8.73 2.218-3.068-2.765 5.287-4.653 5.182.554 3.068 2.765Zm-10.874 24.45c5.286-4.653 5.182.554 3.067 2.765-2.083 2.178-8.73 2.218-3.067-2.766Zm22.477 24.159c-2.084 2.179-8.73 2.218-3.068-2.765 5.287-4.653 5.182.554 3.068 2.765Zm-1.322-35.834c-2.043 1.636-4.967 2.982-6.328 1.694-1.811-1.714-1.051-7.009.688-8.617 1.921-1.778 7.105-1.665 8.888.522 1.262 1.549-.517 4.214-3.248 6.4Zm11.603 48.609c-2.043 1.636-4.967 2.982-6.328 1.694-1.811-1.713-1.051-7.009.688-8.617 1.921-1.778 7.104-1.665 8.888.522 1.262 1.549-.517 4.214-3.248 6.401Zm28.145-5.917c-2.043 1.636-4.967 2.982-6.328 1.694-1.811-1.713-1.05-7.009.688-8.617 1.922-1.777 7.105-1.664 8.888.523 1.263 1.548-.517 4.213-3.248 6.4Zm8.635-28.108c-2.043 1.635-4.967 2.981-6.328 1.694-1.81-1.714-1.05-7.01.688-8.617 1.922-1.778 7.105-1.665 8.888.522 1.263 1.549-.517 4.214-3.248 6.4Zm2.546-25.744c-1.811-1.713-1.05-7.009.688-8.617 1.921-1.778 7.105-1.665 8.888.522 1.263 1.549-.517 4.214-3.248 6.4-2.043 1.637-4.967 2.983-6.328 1.695Z"/></g><g fill="#191C22"><path d="M54.908 89.356c5.355-1.227 3.62-15.772-2.944-14.314-6.64 1.474-1.897 15.422 2.944 14.314ZM93.436 80.79c5.591-1.602 3.902-15.545-2.364-14.422-6.337 1.136-2.156 15.716 2.364 14.421ZM69.755 91.785c1.297.492 2.673.743 4.06.742 1.81.014 3.593-.442 5.173-1.324a10.166 10.166 0 0 0 4.138-4.55 1.3 1.3 0 0 0-2.344-1.124 7.553 7.553 0 0 1-3.08 3.414 7.846 7.846 0 0 1-3.886.984 8.818 8.818 0 0 1-3.127-.568 5.21 5.21 0 0 1-2.022-1.29 1.299 1.299 0 0 0-2.282.77 1.299 1.299 0 0 0 .327.944c.84.9 1.884 1.587 3.043 2.002ZM197.708 106.738a4.35 4.35 0 0 0-.202-1.131 21.586 21.586 0 0 0-1.879-3.971c-.703-1.226-1.318-2.173-1.326-2.186a1.307 1.307 0 0 0-1.117-.59 1.299 1.299 0 0 0-1.092.636c-.009.016-.75 1.265-1.503 2.765a27.044 27.044 0 0 0-1.056 2.336 11.1 11.1 0 0 0-.375 1.136c-.103.367-.16.745-.168 1.127l.001.059v.003-.002a4.503 4.503 0 0 0 1.297 3.081 4.305 4.305 0 0 0 3.064 1.287l.089-.001a4.3 4.3 0 0 0 3.039-1.352 4.506 4.506 0 0 0 1.229-3.101l-.001-.09v-.006Zm-3.115 1.408a1.693 1.693 0 0 1-1.205.542h-.036a1.705 1.705 0 0 1-1.216-.517 1.898 1.898 0 0 1-.545-1.306v-.003l-.001-.002c.011-.159.038-.315.083-.468.39-1.205.893-2.371 1.503-3.481l.089-.166c.223.384.456.798.68 1.219.314.579.598 1.172.851 1.779.094.227.175.459.243.694.036.116.059.234.069.354l.001.043c.003.487-.182.957-.516 1.312Z"/><path d="M196.078 51.21a5.765 5.765 0 0 0-3.912-4.23l-.007-.002-6.657-2.026c-.131-.052-.26-.11-.396-.152l-.007-.002-4.336-1.32a3.149 3.149 0 0 1-1.953-2.23l-2.557-11.277a5.754 5.754 0 0 0-3.912-4.23l-11.14-3.454c-.039-.012-.078-.016-.117-.027l-6.943-2.153a5.758 5.758 0 0 0-5.619 1.274l-8.562 7.92a5.764 5.764 0 0 0-1.706 5.504l2.557 11.285a3.162 3.162 0 0 1-.936 3.02l-8.51 7.872a3.122 3.122 0 0 1-3.002.717l-4.174-1.293c-.027-.008-.053-.01-.08-.018l-2.249-.697a45.276 45.276 0 0 0-9.261-15.889 1.292 1.292 0 0 0-.18-.34 37.514 37.514 0 0 0-9.051-7.44l-.249-.147a48.038 48.038 0 0 0-16.893-6.423c.157-.677.407-1.33.744-1.938a7.25 7.25 0 0 1 1.491-1.83 4.307 4.307 0 1 0-1.16-2.407 9.754 9.754 0 0 0-2.597 2.96 10.29 10.29 0 0 0-1.064 2.808 57.571 57.571 0 0 0-7.564-.497 69.164 69.164 0 0 0-14.996 1.716 63.786 63.786 0 0 0-22.566 9.504 10.457 10.457 0 0 0-.83-1.877 7.172 7.172 0 0 0-1.951-2.245c-.117-.086-.25-.158-.377-.236a4.345 4.345 0 1 0-1.194 2.312c.012.008.025.014.037.023a5.366 5.366 0 0 1 1.638 2.276 8.5 8.5 0 0 1 .428 1.342l.01.047a48.8 48.8 0 0 0-7.368 6.98 44.98 44.98 0 0 0-6.967 11.096 33.73 33.73 0 0 0-1.196 2.793c-.14.38-.242.684-.312.91a7.33 7.33 0 0 0-.083.287l-.03.123-.017.086c-.004.033-.01.075-.014.147a44.793 44.793 0 0 0-2.118 13.653 47.114 47.114 0 0 0 1.131 10.218 39.08 39.08 0 0 0 1.429 4.87c-.003.334-.015.668-.011 1.001.023 1.789.145 3.575.365 5.35a23.685 23.685 0 0 0-11.022-3.373 9.526 9.526 0 0 0-5.213 1.373 7.814 7.814 0 0 0-3.235 4.453 8.904 8.904 0 0 0 2.404 9.188c2.573 2.679 6.473 4.585 10.765 5.888a47.331 47.331 0 0 0 9.844 1.824c.178 2.591.53 5.166 1.053 7.709a19.342 19.342 0 0 1-4.56 1.431l.002.008c-.707.123-1.349.216-1.852.28-.37.047-.67.08-.873.1l-.233.023-.073.006a1.304 1.304 0 0 0-1.192 1.4 1.3 1.3 0 0 0 1.4 1.192c.028-.003 1.42-.116 3.295-.445l.293 1.587a29.09 29.09 0 0 1-3.07.508l-.073.007a1.3 1.3 0 0 0 .227 2.591c1.139-.12 2.27-.303 3.388-.548l.295 1.593c-.748.189-1.423.33-1.955.424-.414.073-.746.121-.97.151l-.254.031-.061.006-.014.002a1.297 1.297 0 0 0-1.173 1.416 1.3 1.3 0 0 0 1.416 1.172 27.846 27.846 0 0 0 4.502-.913 30.526 30.526 0 0 0 4.85-1.48 52.068 52.068 0 0 0 3.101 6.093c-.764.74-1.58 1.424-2.441 2.048l.007.01a41.565 41.565 0 0 1-2.319 1.558l-.214.132-.069.041a1.292 1.292 0 0 0-.596.797 1.3 1.3 0 0 0 1.924 1.439c.022-.014 1.254-.748 2.792-1.857l.956 1.328a34.378 34.378 0 0 1-2.373 1.669 14.49 14.49 0 0 1-.21.132l-.053.032-.014.008a1.306 1.306 0 0 0-.593.799 1.297 1.297 0 0 0 .485 1.36 1.305 1.305 0 0 0 .965.243c.169-.025.331-.083.478-.171a33.923 33.923 0 0 0 2.834-1.961l.954 1.325c-.618.505-1.19.932-1.642 1.251-.33.232-.599.411-.783.53-.092.06-.162.104-.209.133l-.05.032-.012.007a1.304 1.304 0 0 0-.615 1.307 1.295 1.295 0 0 0 .972 1.068 1.291 1.291 0 0 0 .984-.148 29.565 29.565 0 0 0 3.953-2.976c.03-.027.043-.064.07-.093a35.245 35.245 0 0 0 1.482-1.24c.288.305.569.618.866.916a50.2 50.2 0 0 0 10.631 8.143c.272 3.429.56 6.568.78 8.856a8.085 8.085 0 0 0-3.311 3.13 13.407 13.407 0 0 0-1.576 6.492c-.007.739.05 1.477.17 2.206.004.028.023.048.03.075a7.778 7.778 0 0 0-.902 3.68c0 .265.012.535.035.81a22.446 22.446 0 0 0 1.256 5.986 10.856 10.856 0 0 0 4.255 5.545 11.5 11.5 0 0 0 6.273 1.64l.232-.002c3.142.036 6.2-1.015 8.656-2.974a10.106 10.106 0 0 0 3.648-7.812v-.099a32.622 32.622 0 0 0-2.284-10.812 24.405 24.405 0 0 0-2.548-4.987 8.835 8.835 0 0 0-3.527-3.221 12.176 12.176 0 0 0-3.899-.94c-.117-1.235-.25-2.676-.387-4.249a59.926 59.926 0 0 0 22.11 4.034c.282 0 .564-.002.847-.006 12.983-.154 24.158-3.935 32.938-10.245.174.948.331 1.953.47 3.016a8.259 8.259 0 0 0-4.17 3.919 15.137 15.137 0 0 0-1.322 6.711c.008.097.026.193.056.286-.153.217-.319.419-.456.655a6.307 6.307 0 0 0-.687 2.018 13.514 13.514 0 0 0-.196 2.41c.019 2.057.311 4.102.867 6.082a15.523 15.523 0 0 0 2.598 5.469 8.575 8.575 0 0 0 3.642 2.56c1.475.551 3.039.826 4.614.813 3.12.029 6.162-.982 8.645-2.873a9.686 9.686 0 0 0 3.102-4.567 17.16 17.16 0 0 0 .803-5.478 34.416 34.416 0 0 0-.999-7.734 19.361 19.361 0 0 0-3.398-7.527 10.491 10.491 0 0 0-3.224-2.755 9.106 9.106 0 0 0-3.355-1.023 60.557 60.557 0 0 0-1.275-6.77c.323-.314.654-.622.967-.944a50.133 50.133 0 0 0 6.227-7.835 4.654 4.654 0 0 0 1.515-.539 5.963 5.963 0 0 0 2.333-2.557l.016-.038.145.045c.039.012.079.016.118.027l6.942 2.153a5.76 5.76 0 0 0 5.617-1.273l1.489-1.376c.275-.157.56-.296.854-.414.329-.14.681-.217 1.038-.229.324 0 .641.101.905.288a18.18 18.18 0 0 1 1.729 1.565c.4.365.848.672 1.332.913.58.279 1.216.423 1.861.421.136 0 .273-.006.411-.018a4.254 4.254 0 0 0 2.429-.939c.372-.322.697-.696.965-1.109.211-.371.467-.713.762-1.021a.998.998 0 0 1 .345-.194c.232-.072.474-.105.716-.097h.039c.266-.008.532.038.781.133a.75.75 0 0 1 .423.423c.14.359.204.744.187 1.13a14.789 14.789 0 0 1-.667 3.665 18.375 18.375 0 0 0-.739 4.903 8.802 8.802 0 0 0 1.105 4.604c.37.618.868 1.149 1.462 1.556a4.56 4.56 0 0 0 2.503.772 4.663 4.663 0 0 0 3.73-2.033 8.742 8.742 0 0 0 1.48-5.234 17.193 17.193 0 0 0-.658-4.508 21.734 21.734 0 0 1-.982-5.09 3.08 3.08 0 0 1 .143-1.022c.151-.402.412-.753.754-1.013.621-.489 1.28-.928 1.97-1.313v-.001a5.732 5.732 0 0 0 2.051-1.204l.895-.827a6.408 6.408 0 0 0 3.715 1.3 4.64 4.64 0 0 0 3.027-1.087 6.004 6.004 0 0 0 1.859-3.176c.059-.229.109-.472.158-.717a5.123 5.123 0 0 0 3.216-1.519 6.292 6.292 0 0 0 1.574-4.458c0-.128-.002-.259-.008-.394a7.723 7.723 0 0 0-2.146-5.053 8.94 8.94 0 0 0 1.078-2.812c.105-.505.159-1.02.161-1.537a6.328 6.328 0 0 0-.646-2.825 7.095 7.095 0 0 0-2.503-2.758 8.475 8.475 0 0 0-2.338-1.068c.157-.297.362-.567.605-.799l8.509-7.871a5.758 5.758 0 0 0 1.706-5.502l-2.084-9.197c.016-.01.023-.017.042-.028a4.707 4.707 0 0 1 1.277-.37 16.16 16.16 0 0 0 3.125-.744 4.87 4.87 0 0 0 1.618-1.035 4.303 4.303 0 0 0 1.101-1.878c.45-1.95.785-3.923 1.001-5.911.134-.845.367-1.67.696-2.46a7.54 7.54 0 0 1 .353-.694c.433-.422.796-.91 1.077-1.445.018-.018.032-.037.051-.056a1.284 1.284 0 0 0 .359-.93 5.72 5.72 0 0 0 .114-2.963l-2.579-11.376ZM49.994 169.737a5.098 5.098 0 0 1 1.33-1.503l.055.525c-.061.694-.19 2.346-.227 4.345-.477.2-.941.43-1.39.686-.347.205-.682.43-1.003.673.038-1.65.461-3.268 1.235-4.726Zm10.415-2.357a6.42 6.42 0 0 1 2.422 2.313 23.673 23.673 0 0 1 2.66 5.542c.172.499.338 1.003.487 1.51a27.492 27.492 0 0 1 1.224 7.27v.083a7.489 7.489 0 0 1-2.722 5.839 11.056 11.056 0 0 1-7.015 2.364l-.2.001a10.202 10.202 0 0 1-3.451-.54 7.087 7.087 0 0 1-3.747-3.108 16.316 16.316 0 0 1-1.994-7.148 6.74 6.74 0 0 1-.026-.585 5.114 5.114 0 0 1 .822-2.876 7.548 7.548 0 0 1 3.715-2.728 14.686 14.686 0 0 1 5.12-.906 12.06 12.06 0 0 1 2.306.207 5.615 5.615 0 0 1 1.585.523 1.296 1.296 0 0 0 .991.113 1.31 1.31 0 0 0 .78-.623 1.307 1.307 0 0 0 .108-.992 1.293 1.293 0 0 0-.627-.777 7.66 7.66 0 0 0-1.85-.669 37.678 37.678 0 0 0-.415-1.264 30.215 30.215 0 0 0-.937-2.374c-.26-.58-.551-1.146-.873-1.694.56.121 1.109.295 1.637.519Zm50.703-4.198a6.149 6.149 0 0 1 2.318-3.57c.122-.088.253-.171.387-.251.017.2.036.398.051.603a95.191 95.191 0 0 0-.375 3.804c-.538.151-1.064.341-1.574.569-.396.182-.779.39-1.148.622.071-.6.184-1.194.341-1.777Zm11.055-4.297a8.93 8.93 0 0 1 3.388 3.514 18.958 18.958 0 0 1 1.934 5.075c.151.637.29 1.327.419 2.036a28.91 28.91 0 0 1 .51 5.1 14.605 14.605 0 0 1-.665 4.642 7.072 7.072 0 0 1-2.258 3.367 11.484 11.484 0 0 1-7.027 2.309 10.3 10.3 0 0 1-3.678-.639 5.982 5.982 0 0 1-2.552-1.764 13.053 13.053 0 0 1-2.12-4.539 20.752 20.752 0 0 1-.771-5.382 10.98 10.98 0 0 1 .154-1.942 3.82 3.82 0 0 1 .379-1.182 6.754 6.754 0 0 1 3.12-2.779 10.4 10.4 0 0 1 4.292-.864 12.552 12.552 0 0 1 3.667.545 7.463 7.463 0 0 1 2.593 1.321 1.303 1.303 0 0 0 1.833-.141c.025-.03.032-.067.054-.098a1.29 1.29 0 0 0-.195-1.735 8.212 8.212 0 0 0-1.36-.918 18.493 18.493 0 0 0-2.971-5.848 3.272 3.272 0 0 0-.553-.544l-.015-.17a6.47 6.47 0 0 1 1.822.636Zm10.964-99.996 8.51-7.872a5.76 5.76 0 0 0 1.706-5.503L140.79 34.23a3.151 3.151 0 0 1 .936-3.02l8.562-7.92a3.16 3.16 0 0 1 3.083-.7l2.476.768c-.086.071-.182.126-.265.203l-8.563 7.92a5.762 5.762 0 0 0-1.706 5.504l2.558 11.285a3.154 3.154 0 0 1-.937 3.02l-8.509 7.871a3.157 3.157 0 0 1-3.083.7l-2.477-.768c.087-.071.183-.126.266-.203Zm-24.828 12.215 2.555 11.277a3.16 3.16 0 0 1-.948 3.03l-8.625 7.895-.006.005a5.764 5.764 0 0 0-1.706 5.504l2.578 11.375c.026.114.067.222.1.334l-2.476-.768a3.16 3.16 0 0 1-2.147-2.32L95.05 96.061a3.158 3.158 0 0 1 .937-3.02l8.619-7.89a5.756 5.756 0 0 0 1.729-5.524l-2.555-11.277a3.162 3.162 0 0 1 .936-3.02l8.563-7.92a3.166 3.166 0 0 1 3.083-.7l2.477.767c-.086.072-.183.127-.266.204l-8.563 7.92a5.76 5.76 0 0 0-1.706 5.505Zm13.673 60.325c.025.114.066.221.099.333l-2.476-.768a3.135 3.135 0 0 1-1.561-1.122 3.82 3.82 0 0 0 .393-2.129 5.55 5.55 0 0 0-.937-2.583 6.476 6.476 0 0 0-1.154-1.275l-1.503-6.47c-.024-.104-.063-.202-.092-.304l2.476.768a3.16 3.16 0 0 1 2.143 2.304l2.613 11.252-.001-.006Zm-70.185-4.199a75.883 75.883 0 0 0 17.528 1.894c.397 0 .8-.002 1.204-.007 14.868-.181 27.9-4.469 37.694-11.328a11.405 11.405 0 0 0-.986 3.493c-.089.377-.172.799-.239 1.26a59.95 59.95 0 0 1-19.873 8.403 69.148 69.148 0 0 1-7.802 1.348l-.207.021c-1.04.083-2.013.156-2.898.228a3.299 3.299 0 0 0-1.965 5.717 3.298 3.298 0 0 0 2.327.871c.075-.003 1.23-.039 3.15-.244 4.143-.293 8.27-.8 12.36-1.518a70.071 70.071 0 0 0 18.262-5.829c.471.281.978.495 1.508.637.062.17.132.336.204.503-9.28 6.665-21.515 11.003-35.978 11.787-1.737.094-3.42.141-5.049.14-10.604 0-18.944-1.956-25.52-5.323a77.722 77.722 0 0 0 3.789-7.058c.866-1.789 1.674-3.463 2.491-4.995Zm59.055 1.382a5.443 5.443 0 0 1-1.092-1.999 7.504 7.504 0 0 1-.304-2.188 9.257 9.257 0 0 1 .032-.752c.162.094.333.185.517.272.968.43 1.979.755 3.017.97.51.188.989.449 1.423.775.362.267.675.594.927.966.268.401.432.863.477 1.343l.008.147c.002.207-.049.411-.148.593-.191.32-.475.575-.814.731a3.244 3.244 0 0 1-1.44.324 3.403 3.403 0 0 1-2.603-1.182Zm.453-6.932a3.719 3.719 0 0 1-.805-.45.807.807 0 0 1-.302-.359 3.927 3.927 0 0 1-.129-.588 8.884 8.884 0 0 1 1.739-3.35c.234.322.405.685.502 1.071l1.001 4.306a12.683 12.683 0 0 1-2.006-.63Zm9.903 12.589a3.154 3.154 0 0 1-2.37 1.084 4.321 4.321 0 0 1-3.422-2.022 8.45 8.45 0 0 1-.678-1.091 5.463 5.463 0 0 0 1.44-.518 5.746 5.746 0 0 0 2.657 1.755l2.406.747c-.012.013-.021.032-.033.045ZM20.571 83.421l1.269-.282a44.513 44.513 0 0 1-1.07-9.654 42.113 42.113 0 0 1 2.75-15.008 19.75 19.75 0 0 1 5.57-7.752 16.333 16.333 0 0 1 9.395-3.68c.328-.022.652-.033.97-.033 2.25.028 4.467.53 6.509 1.475 3.085 1.345 6.01 3.45 9.168 5.28 3.151 1.822 6.595 3.381 10.685 3.382a18.055 18.055 0 0 0 11.328-4.135c2.84-2.513 4.333-5.689 5.796-8.638 1.461-2.969 2.884-5.705 5.35-7.703a12.394 12.394 0 0 1 7.938-2.836c3.54-.003 7.443 1.438 11.225 4.511a42.211 42.211 0 0 1 11.294 16.38l-1.618-.502a5.762 5.762 0 0 0-5.618 1.275l-8.563 7.921a5.759 5.759 0 0 0-1.706 5.504l2.556 11.276a3.161 3.161 0 0 1-.949 3.031l-8.625 7.895-.005.005a5.758 5.758 0 0 0-1.706 5.503l2.579 11.375c.123.537.324 1.053.595 1.533a63.718 63.718 0 0 1-12.53 4.13 68.062 68.062 0 0 1-14.74 1.655c-11.861 0-22.472-3.327-30.623-9.008A38.36 38.36 0 0 1 21.84 83.139l-1.27.282Zm-8.868 25.141a18.143 18.143 0 0 1-5.804-3.792 6.323 6.323 0 0 1-1.796-6.64 5.197 5.197 0 0 1 2.153-3.019 6.955 6.955 0 0 1 3.806-.96c3.238-.013 7.51 1.515 11.554 4.115a37.69 37.69 0 0 0 2.919 8.813 66.043 66.043 0 0 0-.062 3.72c.003.286.022.567.03.852a41.75 41.75 0 0 1-12.8-3.089Zm16.564 12.01c-.065.041-.131.079-.196.119a56.257 56.257 0 0 1-.972-9.151 33.596 33.596 0 0 0 5.162 5.941 33.154 33.154 0 0 1-3.994 3.09v.001Zm8.262 12.297a37.571 37.571 0 0 1-2.645-2.842 43.326 43.326 0 0 0 5.661-4.293c.426-.376.825-.743 1.227-1.111-1.456 2.954-2.755 5.749-4.243 8.246Zm81.342 13.175c-8.959 9.199-21.858 14.992-37.789 15.192-.272.003-.544.005-.814.005-13.071-.005-24.15-3.852-32.712-10.311 7.553 4.3 16.96 6.415 27.74 6.415 1.38 0 2.782-.034 4.205-.103 18.806-.911 33.725-7.983 43.193-18.463.069.051.138.114.206.164a6.55 6.55 0 0 0 1.196.675 47.607 47.607 0 0 1-5.225 6.426Zm9.234-9.658c-.243.34-.554.625-.913.838a2.027 2.027 0 0 1-1.013.275 3.032 3.032 0 0 1-1.759-.666 9.978 9.978 0 0 1-.617-.49c.114-.108.227-.217.333-.336.269-.3.508-.625.715-.971l3.429 1.063c-.059.095-.111.202-.176.287h.001Zm37.108 12.856a2.06 2.06 0 0 1-.7.686c-.284.17-.605.269-.936.289l-.178-.011a1.954 1.954 0 0 1-.872-.317 2.808 2.808 0 0 1-.989-1.349 7.296 7.296 0 0 1-.431-2.655c.024-1.423.24-2.836.643-4.202.443-1.416.7-2.884.763-4.366a4.677 4.677 0 0 0-.84-2.907 3.35 3.35 0 0 0-1.338-1.032 4.58 4.58 0 0 0-1.787-.347h-.064a4.164 4.164 0 0 0-2.522.734 4.522 4.522 0 0 0-1.039 1.099 7.701 7.701 0 0 1-.818 1.124 1.294 1.294 0 0 1-.375.254 2.117 2.117 0 0 1-.688.159l-.187.008a1.707 1.707 0 0 1-.969-.295 15.93 15.93 0 0 1-1.723-1.551 5.788 5.788 0 0 0-1.303-.913 4.154 4.154 0 0 0-.468-.194l3.83-3.541a3.111 3.111 0 0 1 2.967-.725l4.199 1.302c.036.012.074.015.111.026l6.31 1.957c-.025.026-.052.047-.076.073a4.542 4.542 0 0 0-.9 1.532 5.663 5.663 0 0 0-.286 1.872 23.69 23.69 0 0 0 1.074 5.774c.357 1.244.547 2.53.566 3.824a6.196 6.196 0 0 1-.974 3.692Zm13.83-22.279a3.43 3.43 0 0 1-1.017 1.834 2.02 2.02 0 0 1-1.351.475 3.596 3.596 0 0 1-1.736-.532l2.844-2.631c.427.218.872.396 1.33.535-.024.105-.045.219-.07.319Zm4.01-3.385a2.626 2.626 0 0 1-1.972.77 4.186 4.186 0 0 1-1.197-.183l.744-.688a5.754 5.754 0 0 0 1.707-5.502l-.062-.271c.12-.08.234-.17.35-.26a5.129 5.129 0 0 1 1.286 3.471 3.715 3.715 0 0 1-.856 2.663Zm-1.403-15.384c.399.351.727.775.966 1.249a3.73 3.73 0 0 1 .378 1.676 5.095 5.095 0 0 1-.108 1.016 5.827 5.827 0 0 1-1.262 2.704l-1.747-7.706c.65.244 1.25.604 1.773 1.061Zm5.805-14.304-8.508 7.87a5.754 5.754 0 0 0-1.707 5.504l2.559 11.286a3.16 3.16 0 0 1-.936 3.019l-8.563 7.921a3.157 3.157 0 0 1-3.084.699l-11.141-3.456a5.76 5.76 0 0 0-5.617 1.273l-8.576 7.926a3.158 3.158 0 0 1-3.082.698l-11.141-3.455a3.156 3.156 0 0 1-2.148-2.321l-.001-.006-2.614-11.253a5.77 5.77 0 0 0-3.905-4.199l-11.157-3.459a3.163 3.163 0 0 1-2.147-2.321l-2.578-11.376a3.162 3.162 0 0 1 .936-3.02l8.62-7.889a5.763 5.763 0 0 0 1.729-5.523l-2.556-11.278a3.152 3.152 0 0 1 .064-1.636c.164-.53.465-1.007.873-1.384l8.563-7.921a3.158 3.158 0 0 1 3.081-.7l11.155 3.455a5.76 5.76 0 0 0 5.617-1.274l8.509-7.872a5.761 5.761 0 0 0 1.707-5.502l-2.559-11.287a3.16 3.16 0 0 1 .936-3.02l8.564-7.92a3.156 3.156 0 0 1 3.083-.699l11.14 3.455a3.153 3.153 0 0 1 2.147 2.32l2.556 11.278a5.76 5.76 0 0 0 3.943 4.239l11.185 3.403-.007-.002a3.164 3.164 0 0 1 2.147 2.32l2.579 11.377a3.16 3.16 0 0 1-.936 3.019l-8.62 7.89a5.754 5.754 0 0 0-1.729 5.524l2.555 11.277a3.162 3.162 0 0 1-.936 3.02Zm6.772-21.728c-.13 1.4-.37 2.788-.717 4.152a1.719 1.719 0 0 1-.364.686 2.636 2.636 0 0 1-1.264.697c-.501.138-1.008.246-1.521.326-.695.102-1.379.262-2.048.477-.003-.06-.02-.122-.02-.182a3.156 3.156 0 0 1 1.027-2.331l5.016-4.591c-.038.256-.076.514-.109.766Z"/><path d="m181.406 74.06-10.782-3.344-3.364-14.839 8.324-7.7a1.303 1.303 0 0 0 .067-1.833 1.299 1.299 0 0 0-1.832-.076l-8.32 7.696-11.021-3.418a1.302 1.302 0 0 0-1.685 1.36 1.304 1.304 0 0 0 .915 1.123l11.014 3.416 3.35 14.774-11.302 10.456-14.564-4.517-2.527-11.15a1.3 1.3 0 0 0-2.536.575l2.511 11.078-11.301 10.454-11.221-3.48a1.298 1.298 0 0 0-1.626.858 1.302 1.302 0 0 0 .856 1.627l11.214 3.477 3.367 14.852-8.232 7.616a1.315 1.315 0 0 0-.337 1.405 1.314 1.314 0 0 0 .676.731 1.314 1.314 0 0 0 1.427-.227l8.295-7.675 14.628 4.536 2.578 11.375a1.302 1.302 0 0 0 2.367.405c.184-.291.245-.644.169-.98l-2.577-11.368 11.253-10.409 11.098 3.441a1.297 1.297 0 0 0 1.625-.857 1.302 1.302 0 0 0-.855-1.626l-11.182-3.468-3.346-14.76 11.253-10.41 10.853 3.366a1.299 1.299 0 0 0 1.533-1.847 1.298 1.298 0 0 0-.763-.637ZM159.36 99.01l-11.183 10.345-14.717-4.564-3.347-14.761 11.253-10.41 14.627 4.537 3.367 14.853Z"/></g></svg>