<svg width="200" height="200" viewBox="0 0 200 200" xmlns="http://www.w3.org/2000/svg"><g id="type=gift, mode=light"><g id="Layer 2"><path id="Vector" d="M190.289 106.892C190.285 107.302 190.362 107.709 190.518 108.089C190.674 108.469 190.904 108.813 191.196 109.102C191.487 109.391 191.834 109.618 192.215 109.77C192.596 109.922 193.003 109.996 193.414 109.988C193.824 109.979 194.228 109.889 194.603 109.721C194.977 109.553 195.314 109.311 195.593 109.011C195.872 108.71 196.088 108.357 196.228 107.971C196.368 107.585 196.429 107.175 196.407 106.765C196.371 105.021 193.21 100.159 193.21 100.159C193.21 100.159 190.253 105.147 190.289 106.892Z"/><path id="Vector_2" d="M197.389 62.8722L194.81 51.4964C194.637 50.7326 194.266 50.0279 193.734 49.453C193.203 48.8782 192.529 48.4534 191.781 48.2215L185.119 46.1944C184.988 46.1397 184.858 46.084 184.721 46.0416L180.167 44.6557C179.513 44.382 178.933 43.9562 178.477 43.4135C178.02 42.8709 177.7 42.2272 177.542 41.5359L174.986 30.2582C174.813 29.4944 174.442 28.7897 173.91 28.2148C173.378 27.64 172.705 27.2152 171.957 26.9833L160.816 23.5285C160.773 23.5152 160.729 23.5095 160.686 23.4975L153.756 21.3486C153.008 21.1167 152.213 21.0857 151.449 21.2588C150.685 21.4319 149.98 21.803 149.405 22.3348L140.843 30.2557C140.268 30.7875 139.843 31.4613 139.611 32.2093C139.379 32.9573 139.348 33.7532 139.521 34.517L142.08 45.8029C142.253 46.5667 142.222 47.3625 141.99 48.1105C141.758 48.8585 141.333 49.5323 140.758 50.0641L132.249 57.936C131.685 58.4562 130.998 58.8222 130.251 58.9989C129.505 59.1755 128.726 59.1567 127.989 58.9442L123.804 57.6481C123.775 57.6389 123.744 57.6352 123.714 57.6266L120.842 56.737C113.973 35.388 92.0287 20.7224 61.362 27.5326C28.7375 34.7776 15.3396 59.8654 20.5708 83.4214C21.7099 88.5368 23.8933 93.3617 26.9842 97.5938C26.1195 101.936 25.7136 106.357 25.773 110.783C26.1256 139.727 47.3477 162.935 80.0983 162.536C100.606 162.286 116.367 152.892 125.2 138.798C124.278 138.775 123.388 138.456 122.661 137.888C121.977 137.385 121.345 136.815 120.775 136.187C118.813 137.156 116.232 136.641 114.364 134.103C113.681 133.187 113.173 132.154 112.864 131.054C111.699 130.92 110.627 130.352 109.862 129.463C107.644 126.894 108.048 123.432 108.524 121.469C108.808 119.016 109.957 116.744 111.764 115.061C112.674 115.689 113.318 116.633 113.57 117.71L115.176 124.62C115.715 124.991 116.17 125.473 116.508 126.034C116.846 126.595 117.06 127.221 117.137 127.872C117.176 128.228 117.139 128.589 117.029 128.931C116.919 129.273 116.738 129.587 116.499 129.854C116.76 130.419 117.136 130.923 117.604 131.333C118.072 131.744 118.62 132.052 119.214 132.237L123.164 133.462L129.057 135.289L130.356 135.692C130.399 135.706 130.443 135.711 130.487 135.723L137.416 137.872C138.163 138.104 138.959 138.135 139.722 137.962C140.486 137.789 141.19 137.418 141.765 136.887L143.356 135.416C148.512 132.413 148.482 138.018 152.155 137.696C155.327 137.419 154.227 134.299 157.535 134.331C161.126 134.366 160.348 138.298 159.498 141.332C157.888 147.076 159.213 151.13 162.243 151.497C164.875 151.816 167.778 148.362 165.876 141.384C163.973 134.406 164.665 133.686 168.348 131.487L168.344 131.46C169.029 131.273 169.66 130.925 170.183 130.444L178.745 122.523C179.32 121.991 179.745 121.318 179.977 120.57C180.209 119.822 180.24 119.026 180.066 118.262L177.508 106.976C177.335 106.212 177.366 105.416 177.598 104.668C177.83 103.92 178.255 103.247 178.83 102.715L187.338 94.8437C187.913 94.3119 188.338 93.6382 188.57 92.8902C188.802 92.1422 188.833 91.3463 188.66 90.5826L186.447 80.8227C187.369 78.4975 192.707 80.2685 193.758 76.6787C194.715 73.4062 194.27 70.1059 196.026 67.1715L196.067 67.1334C196.476 66.7537 196.809 66.3007 197.05 65.7979C197.118 65.7227 197.179 65.6462 197.251 65.5716C197.251 65.5716 197.216 65.5555 197.164 65.5326C197.509 64.6897 197.588 63.7611 197.389 62.8722ZM175.227 52.7787C180.514 48.126 180.41 53.3332 178.295 55.544C176.211 57.7226 169.565 57.7621 175.227 52.7787ZM163.389 40.1287C165.311 38.3513 170.494 38.4642 172.277 40.651C173.54 42.1995 171.76 44.8645 169.029 47.0514C166.986 48.6874 164.062 50.0333 162.701 48.7456C160.89 47.0323 161.651 41.7368 163.389 40.1286L163.389 40.1287ZM169.422 82.9819C167.338 85.1605 160.692 85.2 166.354 80.2165C171.641 75.5638 171.536 80.771 169.422 82.9818L169.422 82.9819ZM163.134 68.2105C164.397 69.7591 162.618 72.424 159.886 74.611C157.843 76.247 154.919 77.5929 153.558 76.3051C151.747 74.5919 152.508 69.2964 154.246 67.6883C156.168 65.9109 161.351 66.0238 163.134 68.2105ZM151.14 102.186C149.097 103.822 146.173 105.168 144.812 103.88C143.001 102.167 143.761 96.8715 145.5 95.2633C147.421 93.4859 152.605 93.5989 154.388 95.7856C155.651 97.3341 153.871 99.9991 151.14 102.186ZM137.791 86.646C143.078 81.9933 142.974 87.2005 140.859 89.4114C138.775 91.59 132.129 91.6295 137.791 86.646ZM155.681 31.5114C160.967 26.8586 160.863 32.0658 158.748 34.2768C156.665 36.4553 150.018 36.4949 155.681 31.5114ZM149.606 61.8364C147.522 64.0149 140.876 64.0544 146.538 59.0709C151.825 54.4183 151.72 59.6255 149.606 61.8364V61.8364ZM157.719 108.325C163.006 103.672 162.901 108.88 160.787 111.09C158.703 113.269 152.057 113.309 157.719 108.325ZM126.76 101.987C128.023 103.535 126.243 106.2 123.512 108.387C121.469 110.023 118.545 111.369 117.184 110.082C115.373 108.368 116.134 103.073 117.872 101.465C119.794 99.6872 124.977 99.8001 126.76 101.987V101.987ZM121.038 68.398C118.954 70.5766 112.308 70.616 117.97 65.6326C123.257 60.9799 123.152 66.1871 121.038 68.398ZM110.164 92.8473C115.45 88.1946 115.346 93.4018 113.231 95.6128C111.148 97.7913 104.501 97.8308 110.164 92.8473L110.164 92.8473ZM132.641 117.007C130.557 119.186 123.911 119.225 129.573 114.242C134.86 109.589 134.755 114.796 132.641 117.007L132.641 117.007ZM131.319 81.1726C129.276 82.8086 126.352 84.1546 124.991 82.8668C123.18 81.1535 123.94 75.8581 125.679 74.2499C127.6 72.4725 132.784 72.5854 134.567 74.7722C135.829 76.3208 134.05 78.9858 131.319 81.1726L131.319 81.1726ZM142.922 129.782C140.879 131.418 137.955 132.764 136.594 131.476C134.783 129.763 135.543 124.467 137.282 122.859C139.203 121.081 144.386 121.194 146.17 123.381C147.432 124.93 145.653 127.595 142.922 129.782L142.922 129.782ZM171.067 123.865C169.024 125.501 166.1 126.847 164.739 125.559C162.928 123.846 163.689 118.55 165.427 116.942C167.349 115.165 172.532 115.278 174.315 117.465C175.578 119.013 173.798 121.678 171.067 123.865L171.067 123.865ZM179.702 95.7565C177.659 97.3925 174.735 98.7384 173.374 97.4506C171.564 95.7374 172.324 90.4419 174.062 88.8338C175.984 87.0563 181.167 87.1693 182.95 89.356C184.213 90.9046 182.433 93.5696 179.702 95.7565L179.702 95.7565ZM182.248 70.0128C180.437 68.2996 181.198 63.0041 182.936 61.396C184.857 59.6185 190.041 59.7315 191.824 61.9182C193.087 63.4668 191.307 66.1317 188.576 68.3187C186.533 69.9547 183.609 71.3006 182.248 70.0129L182.248 70.0128Z"/></g><g id="Layer 45"><path id="Vector_3" d="M54.9079 89.356C60.2634 88.1295 58.528 73.584 51.9636 75.042C45.3249 76.5161 50.0671 90.4644 54.9079 89.356Z"/><path id="Vector_4" d="M93.4363 80.7894C99.0271 79.1878 97.3377 65.2454 91.072 66.3685C84.7351 67.5042 88.9158 82.0843 93.4363 80.7894Z"/><path id="Vector_5" d="M69.7553 91.7852C71.0524 92.2773 72.4284 92.5285 73.8157 92.5267C75.6253 92.5412 77.4077 92.0852 78.988 91.2033C80.8039 90.1504 82.2494 88.5611 83.126 86.6537C83.2744 86.343 83.2935 85.9861 83.179 85.6613C83.0645 85.3365 82.8259 85.0705 82.5155 84.9215C82.205 84.7725 81.8482 84.7527 81.5232 84.8666C81.1982 84.9804 80.9317 85.2185 80.7821 85.5287L80.782 85.5286C80.1354 86.9592 79.059 88.1527 77.7026 88.9432C76.514 89.6021 75.1746 89.941 73.8156 89.9266C72.7478 89.9282 71.6885 89.7358 70.6894 89.3588C69.9239 89.0919 69.2313 88.65 68.6666 88.0684C68.5545 87.9386 68.4178 87.8322 68.2643 87.7555C68.1109 87.6787 67.9438 87.6331 67.7727 87.6213C67.6015 87.6094 67.4297 87.6315 67.2672 87.6864C67.1046 87.7412 66.9545 87.8277 66.8256 87.9408C66.6966 88.054 66.5913 88.1915 66.5157 88.3455C66.4402 88.4995 66.3958 88.667 66.3853 88.8382C66.3747 89.0095 66.3982 89.1811 66.4543 89.3432C66.5104 89.5053 66.598 89.6547 66.7121 89.7828C67.5526 90.6831 68.5959 91.3696 69.7553 91.7852Z"/><path id="Vector_6" d="M197.708 106.738C197.691 106.354 197.623 105.973 197.506 105.607C197.016 104.223 196.387 102.892 195.627 101.636C194.924 100.41 194.309 99.4632 194.301 99.4502C194.18 99.2648 194.014 99.1133 193.819 99.0099C193.623 98.9064 193.405 98.8546 193.184 98.8592C192.963 98.8638 192.747 98.9246 192.556 99.0361C192.365 99.1475 192.205 99.3058 192.092 99.496C192.083 99.5116 191.342 100.761 190.589 102.261C190.212 103.012 189.831 103.824 189.533 104.597C189.388 104.969 189.262 105.348 189.158 105.733C189.055 106.1 188.998 106.478 188.99 106.86L188.991 106.919L188.991 106.922L188.991 106.92C189.012 108.075 189.476 109.178 190.288 110.001C190.688 110.408 191.165 110.731 191.691 110.952C192.217 111.173 192.781 111.287 193.352 111.288L193.441 111.287C194.012 111.275 194.575 111.149 195.097 110.916C195.619 110.684 196.089 110.35 196.48 109.935C197.272 109.096 197.711 107.986 197.709 106.834L197.708 106.744L197.708 106.738ZM194.593 108.146C194.439 108.312 194.253 108.446 194.046 108.539C193.839 108.632 193.615 108.683 193.388 108.688L193.352 108.688C193.125 108.687 192.901 108.641 192.692 108.553C192.483 108.464 192.294 108.334 192.136 108.171C191.793 107.822 191.597 107.354 191.591 106.865L191.591 106.862L191.59 106.86C191.601 106.701 191.628 106.545 191.673 106.392C192.063 105.187 192.566 104.021 193.176 102.911C193.207 102.852 193.235 102.803 193.265 102.745C193.488 103.129 193.721 103.543 193.945 103.964C194.259 104.543 194.543 105.136 194.796 105.743C194.89 105.97 194.971 106.202 195.039 106.437C195.075 106.553 195.098 106.671 195.108 106.791L195.109 106.834C195.112 107.321 194.927 107.791 194.593 108.146Z"/><path id="Vector_7" d="M196.078 51.2091C195.854 50.2227 195.375 49.3125 194.688 48.57C194.002 47.8275 193.132 47.279 192.166 46.9795L192.159 46.9775L185.502 44.9521C185.37 44.9003 185.242 44.8421 185.106 44.7998L185.099 44.7978L180.763 43.4781C180.279 43.2954 179.848 42.9964 179.507 42.6074C179.167 42.2185 178.927 41.7516 178.81 41.2481L176.253 29.9709C176.03 28.9844 175.551 28.0742 174.864 27.3317C174.177 26.5893 173.307 26.0409 172.341 25.7416L161.201 22.2866C161.162 22.2747 161.123 22.2711 161.084 22.26L154.141 20.1069C153.175 19.8072 152.147 19.7671 151.161 19.9908C150.175 20.2144 149.265 20.6939 148.522 21.3809L139.96 29.3015C139.218 29.9882 138.669 30.8584 138.369 31.8246C138.07 32.7907 138.03 33.8187 138.254 34.8051L140.811 46.09C140.934 46.6312 140.912 47.1953 140.748 47.7254C140.584 48.2555 140.283 48.733 139.875 49.1098L131.365 56.9816C130.97 57.3509 130.485 57.6111 129.959 57.7368C129.433 57.8626 128.883 57.8496 128.363 57.699L124.189 56.406C124.162 56.3979 124.136 56.3956 124.109 56.3879L121.86 55.6914C119.893 49.8173 116.74 44.4095 112.599 39.8025C112.556 39.6806 112.496 39.5657 112.419 39.4619C109.81 36.5234 106.756 34.0131 103.368 32.0228C103.288 31.9735 103.201 31.9245 103.119 31.8753C97.9453 28.6847 92.2127 26.5051 86.2258 25.452C86.3829 24.7746 86.6332 24.1224 86.9696 23.514C87.3635 22.8268 87.8674 22.2089 88.4611 21.6847C89.1707 22.4248 90.1208 22.8875 91.1409 22.9897C92.161 23.0919 93.1841 22.827 94.0264 22.2425C94.8686 21.658 95.4748 20.7922 95.7359 19.8008C95.9971 18.8094 95.8961 17.7574 95.4511 16.8338C95.0061 15.9102 94.2463 15.1756 93.3082 14.7621C92.3701 14.3485 91.3153 14.283 90.3333 14.5775C89.3513 14.8719 88.5065 15.507 87.9507 16.3685C87.395 17.23 87.1647 18.2614 87.3013 19.2775C86.2434 20.0774 85.3598 21.0847 84.7044 22.2377C84.2142 23.1164 83.8556 24.0623 83.6399 25.0451C81.1324 24.7136 78.6057 24.5476 76.0763 24.5484C71.0298 24.5713 66.0011 25.1465 61.0798 26.2636C53.0144 27.9448 45.3512 31.1725 38.5135 35.7684C38.299 35.1169 38.0209 34.4882 37.6833 33.8912C37.1971 33.0145 36.5326 32.2495 35.7325 31.6455C35.6163 31.5596 35.4824 31.4883 35.3564 31.4101C35.535 30.3872 35.3413 29.3341 34.8105 28.4416C34.2797 27.5492 33.4468 26.8763 32.4627 26.5449C31.4786 26.2135 30.4084 26.2454 29.4458 26.6349C28.4832 27.0245 27.692 27.7458 27.2153 28.6684C26.7387 29.5909 26.6082 30.6536 26.8474 31.6641C27.0867 32.6746 27.6799 33.566 28.5196 34.1768C29.3593 34.7877 30.39 35.0776 31.4251 34.9942C32.4601 34.9107 33.431 34.4594 34.162 33.7219C34.1738 33.7301 34.1868 33.7362 34.1985 33.7447C34.9367 34.3447 35.5021 35.1303 35.8368 36.0209C35.9771 36.3597 36.0953 36.7072 36.1907 37.0612C36.2259 37.1923 36.2501 37.2961 36.2646 37.3632L36.2745 37.4104C33.5826 39.4745 31.1132 41.8136 28.9065 44.3898C26.0551 47.7286 23.708 51.4668 21.9397 55.4856C21.3957 56.6241 21.0019 57.5814 20.7444 58.2786C20.604 58.6584 20.502 58.9631 20.432 59.1891C20.3969 59.3026 20.37 59.3953 20.3486 59.4761L20.3185 59.5995L20.3019 59.6854C20.2979 59.7176 20.2919 59.7601 20.2875 59.832C18.88 64.246 18.1657 68.8517 18.1703 73.4846C18.1735 76.9219 18.5528 80.3485 19.3015 83.7032C19.6716 85.356 20.1488 86.983 20.73 88.5739C20.7272 88.9072 20.715 89.2414 20.719 89.5742C20.7423 91.3627 20.864 93.1486 21.0837 94.9237C17.7437 92.9093 13.9578 91.7508 10.0624 91.5514C8.22871 91.4975 6.41844 91.9743 4.84912 92.9244C3.26658 93.9672 2.11696 95.5496 1.61434 97.377C1.10719 98.9793 1.06382 100.692 1.48922 102.318C1.91463 103.944 2.79144 105.417 4.01834 106.565C6.59122 109.244 10.4906 111.15 14.783 112.453C17.9906 113.407 21.2903 114.019 24.6269 114.277C24.8052 116.868 25.1571 119.443 25.6804 121.986C24.2255 122.65 22.6938 123.13 21.1206 123.417L21.1219 123.425C20.4145 123.548 19.7731 123.641 19.2697 123.705C18.8997 123.752 18.6008 123.785 18.3965 123.805C18.2943 123.816 18.2159 123.823 18.1639 123.828L18.0906 123.834C17.7469 123.862 17.4282 124.025 17.2047 124.287C16.9812 124.55 16.8712 124.89 16.8988 125.234C16.9264 125.578 17.0894 125.896 17.3519 126.12C17.6144 126.343 17.955 126.453 18.2987 126.426C18.3267 126.423 19.7182 126.31 21.5942 125.981L21.8872 127.568C21.1592 127.726 20.4998 127.845 19.9818 127.924C19.5905 127.984 19.2753 128.024 19.061 128.05C18.9538 128.062 18.8718 128.071 18.8181 128.076L18.7445 128.083C18.5744 128.098 18.409 128.146 18.2575 128.225C18.1061 128.304 17.9716 128.412 17.8619 128.543C17.6402 128.807 17.5326 129.148 17.5626 129.492C17.5926 129.835 17.7578 130.153 18.0219 130.374C18.286 130.596 18.6274 130.704 18.9708 130.674C20.1096 130.554 21.2409 130.371 22.3594 130.126L22.6537 131.719C21.9064 131.908 21.2306 132.049 20.6989 132.143C20.2854 132.216 19.9534 132.264 19.7286 132.294C19.6161 132.308 19.5304 132.319 19.4746 132.325L19.4137 132.331L19.4001 132.333C19.2302 132.349 19.065 132.398 18.9141 132.478C18.7631 132.558 18.6294 132.666 18.5205 132.798C18.4116 132.929 18.3297 133.081 18.2794 133.244C18.2291 133.407 18.2114 133.579 18.2274 133.749C18.2434 133.919 18.2926 134.084 18.3724 134.235C18.4522 134.386 18.561 134.519 18.6925 134.628C18.8239 134.737 18.9756 134.819 19.1387 134.869C19.3019 134.92 19.4733 134.937 19.6433 134.921C21.1665 134.741 22.6723 134.436 24.1453 134.008C25.8003 133.65 27.4227 133.155 28.9955 132.528C29.8946 134.625 30.9305 136.66 32.0965 138.621C31.3321 139.361 30.5162 140.045 29.6548 140.669L29.6616 140.679C29.0912 141.09 28.5581 141.453 28.129 141.735C27.8001 141.95 27.5296 142.121 27.343 142.237C27.2497 142.295 27.1773 142.339 27.1291 142.369L27.0601 142.41C26.9133 142.497 26.7851 142.612 26.6829 142.749C26.5806 142.886 26.5063 143.041 26.4641 143.207C26.422 143.372 26.4128 143.544 26.4371 143.713C26.4615 143.882 26.5189 144.045 26.6061 144.192C26.6932 144.338 26.8085 144.467 26.9452 144.569C27.0819 144.671 27.2374 144.745 27.4028 144.788C27.5682 144.83 27.7404 144.839 27.9093 144.815C28.0783 144.79 28.2408 144.733 28.3876 144.646C28.41 144.632 29.6418 143.898 31.1802 142.789L32.1357 144.117C31.5413 144.574 30.9886 144.969 30.5475 145.269C30.2183 145.494 29.9485 145.668 29.7634 145.786C29.6708 145.845 29.5993 145.889 29.5521 145.918L29.4999 145.95L29.4863 145.958C29.3398 146.046 29.212 146.161 29.1101 146.298C29.0083 146.435 28.9345 146.591 28.8928 146.757C28.8512 146.922 28.8425 147.094 28.8674 147.263C28.8923 147.432 28.9502 147.594 29.0378 147.741C29.1254 147.888 29.2411 148.015 29.3781 148.117C29.5151 148.219 29.6709 148.293 29.8364 148.335C30.002 148.376 30.1741 148.385 30.343 148.36C30.5119 148.335 30.6743 148.277 30.8208 148.189C31.7981 147.584 32.744 146.929 33.6548 146.228L34.6086 147.553C33.9908 148.058 33.4197 148.485 32.9673 148.804C32.6373 149.036 32.3682 149.215 32.1843 149.334C32.0923 149.394 32.0217 149.438 31.9754 149.467L31.9246 149.499L31.9127 149.506C31.7665 149.594 31.639 149.71 31.5375 149.847C31.4361 149.984 31.3627 150.14 31.3215 150.306C31.2803 150.472 31.2722 150.644 31.2976 150.813C31.3229 150.982 31.3813 151.144 31.4693 151.29C31.5574 151.436 31.6734 151.564 31.8107 151.665C31.948 151.767 32.1039 151.84 32.2696 151.881C32.4353 151.922 32.6075 151.931 32.7763 151.905C32.9451 151.88 33.1073 151.822 33.2536 151.733C34.6523 150.854 35.9749 149.858 37.2073 148.757C37.2375 148.73 37.25 148.693 37.2771 148.664C37.7896 148.258 38.2835 147.845 38.7589 147.424C39.0475 147.729 39.328 148.042 39.6247 148.34C42.7892 151.517 46.3647 154.256 50.256 156.483C50.5281 159.912 50.8161 163.051 51.0368 165.339C49.6555 166.043 48.5059 167.13 47.7249 168.469C46.6602 170.465 46.118 172.699 46.1489 174.961C46.1423 175.7 46.1989 176.438 46.3182 177.167C46.3234 177.195 46.3416 177.215 46.3484 177.242C45.7491 178.375 45.4394 179.64 45.4467 180.922C45.4467 181.187 45.4586 181.457 45.4824 181.732C45.6259 183.775 46.0485 185.789 46.7384 187.718C47.5066 189.985 49.0026 191.934 50.9935 193.263C52.8836 194.4 55.061 194.969 57.2658 194.903L57.4979 194.901C60.6397 194.937 63.6973 193.886 66.154 191.927C67.3005 190.975 68.2222 189.78 68.8529 188.43C69.4836 187.079 69.8078 185.606 69.8021 184.115L69.8024 184.016C69.6614 180.308 68.8889 176.652 67.5182 173.204C66.8629 171.449 66.0079 169.776 64.9701 168.217C64.1122 166.84 62.8919 165.725 61.4429 164.996C60.2042 164.469 58.8868 164.152 57.5443 164.056C57.4268 162.821 57.294 161.38 57.1566 159.807C64.2064 162.534 71.7087 163.903 79.2675 163.841C79.5486 163.841 79.8306 163.839 80.1136 163.835C93.0967 163.681 104.272 159.9 113.052 153.59C113.226 154.538 113.383 155.543 113.522 156.606C111.71 157.373 110.231 158.763 109.352 160.525C108.405 162.632 107.953 164.927 108.03 167.236C108.038 167.333 108.056 167.429 108.086 167.522C107.933 167.739 107.767 167.941 107.63 168.177C107.288 168.806 107.056 169.488 106.943 170.195C106.806 170.991 106.74 171.797 106.747 172.605C106.766 174.661 107.058 176.707 107.614 178.687C108.113 180.663 108.995 182.521 110.212 184.156C111.179 185.315 112.436 186.198 113.854 186.716C115.329 187.267 116.893 187.542 118.468 187.529C121.588 187.558 124.63 186.547 127.113 184.656C128.568 183.467 129.646 181.88 130.215 180.089C130.777 178.319 131.049 176.468 131.018 174.611C130.979 172.003 130.644 169.409 130.019 166.877C129.441 164.153 128.282 161.586 126.621 159.35C125.745 158.222 124.648 157.284 123.397 156.595C122.355 156.04 121.216 155.692 120.042 155.572C119.746 153.293 119.32 151.033 118.767 148.802C119.09 148.488 119.421 148.18 119.734 147.858C122.066 145.46 124.152 142.836 125.961 140.023C126.493 139.933 127.006 139.75 127.476 139.484C128.49 138.881 129.301 137.991 129.809 136.927C129.815 136.915 129.819 136.901 129.825 136.889L129.97 136.934C130.009 136.946 130.049 136.95 130.088 136.961L137.03 139.114C137.996 139.413 139.023 139.453 140.009 139.23C140.995 139.006 141.905 138.528 142.647 137.841L144.136 136.465C144.411 136.308 144.696 136.169 144.99 136.051C145.319 135.911 145.671 135.834 146.028 135.822C146.352 135.822 146.669 135.923 146.933 136.11C147.542 136.594 148.12 137.117 148.662 137.675C149.062 138.04 149.51 138.347 149.994 138.588C150.574 138.867 151.21 139.011 151.855 139.009C151.991 139.009 152.128 139.003 152.266 138.991C153.154 138.94 154.003 138.611 154.695 138.052C155.067 137.73 155.392 137.356 155.66 136.943C155.871 136.572 156.127 136.23 156.422 135.922C156.523 135.835 156.64 135.769 156.767 135.728C156.999 135.656 157.241 135.623 157.483 135.631L157.511 135.631L157.522 135.631C157.788 135.623 158.054 135.669 158.303 135.764C158.399 135.802 158.485 135.859 158.558 135.932C158.631 136.005 158.688 136.091 158.726 136.187C158.866 136.546 158.93 136.931 158.913 137.317C158.846 138.562 158.622 139.793 158.246 140.982C157.779 142.575 157.531 144.225 157.507 145.885C157.448 147.492 157.83 149.084 158.612 150.489C158.982 151.107 159.48 151.638 160.074 152.045C160.676 152.449 161.366 152.704 162.086 152.788C162.249 152.807 162.413 152.817 162.577 152.817C163.316 152.797 164.039 152.603 164.687 152.249C165.335 151.896 165.89 151.393 166.307 150.784C167.344 149.241 167.863 147.408 167.787 145.55C167.769 144.025 167.547 142.509 167.129 141.042C166.6 139.391 166.27 137.682 166.147 135.952C166.137 135.606 166.185 135.26 166.29 134.93C166.441 134.528 166.702 134.177 167.044 133.917C167.665 133.428 168.324 132.989 169.014 132.604V132.603C169.774 132.35 170.473 131.939 171.065 131.399L171.96 130.572C173.031 131.384 174.33 131.839 175.675 131.872C176.781 131.882 177.855 131.497 178.702 130.785C179.639 129.947 180.289 128.836 180.561 127.609C180.62 127.38 180.67 127.137 180.719 126.892C181.938 126.786 183.079 126.247 183.935 125.373C185.019 124.148 185.584 122.549 185.509 120.915C185.509 120.787 185.507 120.656 185.501 120.521C185.429 118.631 184.665 116.833 183.355 115.468C183.871 114.598 184.235 113.648 184.433 112.656C184.538 112.151 184.592 111.636 184.594 111.119C184.6 110.14 184.379 109.173 183.948 108.294C183.374 107.168 182.51 106.216 181.445 105.536C180.724 105.063 179.936 104.703 179.107 104.468C179.264 104.171 179.469 103.901 179.712 103.669L188.221 95.798C188.963 95.1113 189.512 94.2413 189.811 93.2754C190.111 92.3095 190.151 91.2818 189.927 90.2955L187.843 81.0987C187.859 81.0889 187.866 81.0817 187.885 81.0711C188.291 80.8876 188.721 80.7627 189.162 80.7002C190.226 80.5569 191.273 80.3081 192.287 79.9574C192.89 79.7229 193.44 79.3709 193.905 78.9219C194.427 78.4005 194.806 77.7538 195.006 77.0437C195.456 75.0949 195.79 73.1212 196.007 71.1329C196.141 70.2884 196.374 69.463 196.703 68.6739C196.809 68.4364 196.926 68.2044 197.056 67.979C197.489 67.5572 197.852 67.0696 198.133 66.5345C198.151 66.5156 198.165 66.4966 198.184 66.4777C198.302 66.3544 198.395 66.2088 198.456 66.0493C198.518 65.8898 198.548 65.7197 198.543 65.5487C198.841 64.588 198.88 63.5659 198.657 62.5852L196.078 51.2091ZM49.9942 169.738C50.3335 169.154 50.7857 168.643 51.3245 168.235C51.3464 168.449 51.3646 168.625 51.3787 168.76C51.3176 169.454 51.1887 171.106 51.1522 173.105C50.6751 173.305 50.2107 173.535 49.7614 173.791C49.4149 173.996 49.0803 174.221 48.7592 174.464C48.7971 172.814 49.22 171.196 49.9942 169.738ZM60.4091 167.381C61.407 167.924 62.2427 168.723 62.8309 169.694C63.9545 171.418 64.8485 173.281 65.4903 175.236C65.6632 175.735 65.8285 176.239 65.9776 176.746C66.7104 179.103 67.1224 181.549 67.2024 184.016L67.2023 184.099C67.2119 185.214 66.9724 186.316 66.5014 187.327C66.0303 188.337 65.3395 189.229 64.4795 189.938C62.4823 191.509 60.0051 192.343 57.4648 192.302L57.2659 192.303C56.0927 192.323 54.9249 192.14 53.8139 191.763C52.2374 191.202 50.9102 190.101 50.0673 188.655C48.8622 186.457 48.1797 184.011 48.0728 181.507C48.0552 181.305 48.0468 181.11 48.0468 180.922C48.0282 179.903 48.3146 178.901 48.8693 178.046C49.7924 176.772 51.0912 175.818 52.5836 175.318C54.2228 174.714 55.9564 174.408 57.7031 174.412C58.4769 174.407 59.2493 174.476 60.0098 174.619C60.5612 174.713 61.0954 174.89 61.5949 175.142C61.7446 175.225 61.9092 175.278 62.0794 175.297C62.2495 175.316 62.4218 175.302 62.5864 175.255C62.751 175.207 62.9045 175.128 63.0383 175.021C63.1721 174.914 63.2834 174.782 63.3659 174.632C63.4483 174.481 63.5003 174.317 63.5189 174.146C63.5375 173.976 63.5222 173.804 63.474 173.64C63.4258 173.475 63.3456 173.322 63.238 173.189C63.1305 173.056 62.9976 172.945 62.8471 172.863L62.8471 172.863C62.2618 172.561 61.64 172.337 60.9972 172.194C60.8645 171.765 60.726 171.342 60.5824 170.93C60.2886 170.089 59.9751 169.292 59.6455 168.556C59.3854 167.976 59.0938 167.41 58.7721 166.862C59.3328 166.983 59.8809 167.157 60.4091 167.381V167.381ZM111.112 163.183C111.435 161.755 112.257 160.489 113.43 159.613C113.552 159.525 113.683 159.442 113.817 159.362C113.834 159.562 113.853 159.76 113.868 159.965C113.71 161.299 113.587 162.563 113.493 163.769C112.955 163.92 112.429 164.11 111.919 164.338C111.523 164.52 111.14 164.728 110.771 164.96C110.842 164.36 110.955 163.766 111.112 163.183V163.183ZM122.167 158.886C123.601 159.72 124.774 160.937 125.555 162.4C126.44 163.99 127.091 165.699 127.489 167.475C127.64 168.112 127.779 168.802 127.908 169.511C128.229 171.193 128.399 172.899 128.418 174.611C128.448 176.184 128.223 177.752 127.753 179.253C127.345 180.572 126.56 181.742 125.495 182.62C123.471 184.144 121.001 184.955 118.468 184.929C117.213 184.942 115.967 184.725 114.79 184.29C113.799 183.937 112.919 183.328 112.238 182.526C111.245 181.164 110.525 179.623 110.118 177.987C109.626 176.235 109.367 174.425 109.347 172.605C109.341 171.954 109.392 171.304 109.501 170.663C109.562 170.251 109.69 169.852 109.88 169.481C110.6 168.248 111.693 167.275 113 166.702C114.353 166.113 115.816 165.818 117.292 165.838C118.535 165.837 119.77 166.021 120.959 166.383C121.902 166.649 122.783 167.098 123.552 167.704C123.814 167.928 124.154 168.039 124.497 168.013C124.841 167.986 125.16 167.825 125.385 167.563C125.41 167.533 125.417 167.496 125.439 167.465C125.631 167.204 125.716 166.881 125.68 166.559C125.644 166.238 125.488 165.942 125.244 165.73L125.244 165.73C124.822 165.379 124.367 165.072 123.884 164.812C123.25 162.701 122.244 160.721 120.913 158.964C120.751 158.761 120.565 158.579 120.36 158.42C120.355 158.364 120.35 158.306 120.345 158.25C120.981 158.37 121.595 158.584 122.167 158.886V158.886ZM133.131 58.8901L141.641 51.0183C142.383 50.3315 142.932 49.4614 143.231 48.4954C143.531 47.5294 143.571 46.5016 143.347 45.5153L140.79 34.2297C140.667 33.6886 140.688 33.1246 140.853 32.5945C141.017 32.0644 141.318 31.587 141.726 31.2103L150.288 23.2893C150.695 22.9123 151.195 22.6492 151.736 22.5265C152.277 22.4037 152.841 22.4258 153.371 22.5903L155.847 23.3581C155.761 23.4291 155.665 23.4841 155.582 23.5606L147.019 31.4811C146.276 32.168 145.728 33.0382 145.428 34.0043C145.129 34.9703 145.089 35.9982 145.313 36.9846L147.871 48.2703C147.994 48.8116 147.972 49.3756 147.807 49.9057C147.643 50.4358 147.342 50.9133 146.934 51.2902L138.425 59.1614C138.018 59.5381 137.518 59.8011 136.977 59.9238C136.436 60.0465 135.872 60.0247 135.342 59.8606L132.865 59.0933C132.952 59.022 133.048 58.9669 133.131 58.89V58.8901ZM108.303 71.1054L110.858 82.3824C110.982 82.9263 110.959 83.4932 110.793 84.0254C110.626 84.5577 110.321 85.0364 109.91 85.4128L101.285 93.3075L101.279 93.3123C100.537 93.999 99.9881 94.8692 99.6886 95.8353C99.3891 96.8015 99.3494 97.8294 99.5734 98.8158L102.151 110.191C102.177 110.305 102.218 110.413 102.251 110.525L99.7749 109.757C99.2449 109.593 98.7675 109.292 98.3907 108.885C98.0139 108.477 97.751 107.978 97.6285 107.437L95.0493 96.0606C94.9263 95.5194 94.9481 94.9554 95.1125 94.4253C95.2769 93.8952 95.578 93.4178 95.9856 93.0411L104.605 85.1513C105.356 84.4651 105.911 83.5926 106.214 82.6224C106.518 81.6522 106.559 80.6189 106.334 79.6275L103.779 68.3503C103.656 67.8091 103.678 67.245 103.842 66.7149C104.006 66.1848 104.308 65.7073 104.715 65.3306L113.278 57.4093C113.686 57.0325 114.185 56.7695 114.726 56.6468C115.267 56.524 115.831 56.5459 116.361 56.7101L118.838 57.4774C118.752 57.5487 118.655 57.6039 118.572 57.6808L110.009 65.6018C109.266 66.2885 108.718 67.1588 108.418 68.1249C108.119 69.0911 108.079 70.1191 108.303 71.1055L108.303 71.1054ZM121.976 131.43C122.001 131.544 122.042 131.651 122.075 131.763L119.599 130.995C118.974 130.794 118.428 130.401 118.038 129.873C118.309 129.338 118.451 128.747 118.451 128.147C118.451 128.014 118.444 127.88 118.431 127.744C118.34 126.818 118.018 125.93 117.494 125.161C117.168 124.686 116.779 124.258 116.34 123.886L114.837 117.416C114.813 117.312 114.774 117.214 114.745 117.112L117.221 117.88C117.748 118.044 118.223 118.342 118.599 118.747C118.975 119.151 119.239 119.647 119.364 120.184L121.977 131.436L121.976 131.43ZM51.791 127.231C57.5402 128.541 63.4224 129.177 69.3186 129.125C69.7161 129.125 70.1194 129.123 70.5227 129.118C85.3913 128.937 98.4229 124.649 108.217 117.79C107.704 118.894 107.371 120.074 107.231 121.283C107.142 121.66 107.059 122.082 106.992 122.543C100.93 126.523 94.1968 129.37 87.1187 130.946C84.546 131.544 81.941 131.994 79.3166 132.294C79.2439 132.302 79.1807 132.308 79.1104 132.315C78.0707 132.398 77.0975 132.471 76.212 132.543C75.355 132.613 74.5593 133.015 73.9943 133.663C73.4293 134.312 73.1395 135.155 73.1868 136.013C73.234 136.872 73.6145 137.678 74.2472 138.26C74.8799 138.843 75.7149 139.155 76.5744 139.131C76.6487 139.128 77.8036 139.092 79.7232 138.887C83.8671 138.594 87.9931 138.087 92.0849 137.369C98.4101 136.272 104.555 134.31 110.346 131.54C110.817 131.821 111.324 132.035 111.854 132.177C111.916 132.347 111.986 132.513 112.058 132.68C102.778 139.345 90.5434 143.683 76.0803 144.467C74.343 144.561 72.66 144.608 71.0315 144.607C60.427 144.607 52.0868 142.651 45.5107 139.284C46.8944 136.998 48.1591 134.642 49.3 132.226C50.1658 130.437 50.9736 128.763 51.791 127.231V127.231ZM110.846 128.613C110.345 128.031 109.973 127.35 109.754 126.614C109.545 125.903 109.443 125.166 109.45 124.426C109.449 124.17 109.463 123.92 109.482 123.674C109.644 123.768 109.815 123.859 109.999 123.946C110.967 124.376 111.978 124.701 113.016 124.916C113.526 125.104 114.005 125.365 114.439 125.691C114.801 125.958 115.114 126.285 115.366 126.657C115.634 127.058 115.798 127.52 115.843 128L115.851 128.147C115.853 128.354 115.802 128.558 115.703 128.74C115.512 129.06 115.228 129.315 114.889 129.471C114.441 129.688 113.948 129.799 113.449 129.795C112.956 129.799 112.467 129.695 112.017 129.491C111.568 129.287 111.168 128.988 110.846 128.613L110.846 128.613ZM111.299 121.681C111.013 121.565 110.743 121.414 110.494 121.231C110.36 121.144 110.255 121.019 110.192 120.872C110.134 120.68 110.091 120.483 110.063 120.284C110.396 119.056 110.989 117.913 111.802 116.934C112.036 117.256 112.207 117.619 112.304 118.005L113.305 122.311C112.62 122.157 111.949 121.946 111.299 121.681L111.299 121.681ZM121.202 134.27C120.907 134.609 120.543 134.881 120.134 135.068C119.725 135.255 119.281 135.353 118.832 135.354C118.142 135.315 117.471 135.111 116.876 134.759C116.28 134.407 115.778 133.918 115.41 133.332C115.157 132.986 114.93 132.621 114.732 132.241C115.234 132.137 115.719 131.962 116.172 131.723C116.875 132.547 117.796 133.155 118.829 133.478L121.235 134.225C121.223 134.238 121.214 134.257 121.202 134.27H121.202ZM20.5706 83.4213L21.8396 83.1394C21.132 79.9698 20.7735 76.7323 20.7703 73.4846C20.7653 68.3565 21.6971 63.2705 23.5196 58.4771C24.7143 55.4764 26.6266 52.8145 29.0892 50.7246C31.7542 48.5372 35.043 47.2491 38.4847 47.045C38.8133 47.0226 39.1369 47.0116 39.4553 47.0119C41.7043 47.0401 43.922 47.5426 45.9635 48.4866C49.049 49.8323 51.9748 51.9363 55.1319 53.7668C58.2834 55.5887 61.7273 57.148 65.8165 57.1487C69.9551 57.1096 73.9545 55.6497 77.1451 53.0137C79.9857 50.5012 81.4778 47.3251 82.9409 44.376C84.4021 41.4074 85.8249 38.6712 88.2915 36.6735C90.5246 34.8297 93.333 33.8261 96.2289 33.837C99.7685 33.8345 103.672 35.2752 107.454 38.3483C112.47 42.8301 116.342 48.4458 118.748 54.7275L117.13 54.2264C116.164 53.9272 115.137 53.8876 114.15 54.1113C113.164 54.3351 112.255 54.8144 111.512 55.5011L102.949 63.4221C102.207 64.1088 101.658 64.9791 101.359 65.9452C101.059 66.9114 101.019 67.9394 101.243 68.9258L103.799 80.2023C103.922 80.7463 103.9 81.3134 103.733 81.8457C103.566 82.3781 103.262 82.8569 102.85 83.2334L94.225 91.1279L94.2199 91.1327C93.4772 91.8194 92.9286 92.6895 92.6291 93.6556C92.3296 94.6217 92.2898 95.6496 92.5138 96.636L95.0928 108.011C95.2164 108.548 95.4167 109.064 95.6877 109.544C91.6655 111.351 87.4668 112.734 83.1589 113.674C78.3204 114.761 73.3776 115.316 68.4185 115.329C56.5568 115.329 45.9462 112.002 37.7948 106.321C29.7316 100.894 24.0291 92.6089 21.8396 83.1394L20.5706 83.4213ZM11.703 108.562C9.54231 107.683 7.57155 106.395 5.89871 104.77C4.99019 103.954 4.33715 102.894 4.01847 101.715C3.69978 100.537 3.7291 99.2919 4.10287 98.13C4.42492 96.8931 5.19141 95.8183 6.25587 95.111C7.40625 94.4323 8.72773 94.0992 10.0624 94.1514C13.2997 94.1382 17.5726 95.6657 21.6157 98.2657C22.222 101.313 23.2024 104.273 24.5349 107.079C24.4924 108.044 24.4677 109.013 24.4677 109.985C24.4677 110.257 24.4694 110.528 24.4728 110.799C24.4762 111.085 24.4948 111.366 24.5022 111.651C20.0993 111.305 15.7792 110.262 11.703 108.562L11.703 108.562ZM28.267 120.572C28.2021 120.613 28.1358 120.651 28.0707 120.691C27.4977 117.673 27.1728 114.612 27.0995 111.54C28.5815 113.716 30.3139 115.71 32.2609 117.481C31.0101 118.611 29.6749 119.644 28.2669 120.571L28.267 120.572ZM36.5285 132.869C35.5984 131.968 34.7157 131.019 33.8837 130.027C35.8853 128.753 37.7789 127.318 39.5454 125.734C39.9707 125.358 40.3702 124.991 40.7718 124.623C39.3158 127.577 38.0168 130.372 36.5285 132.869L36.5285 132.869ZM117.871 146.044C108.912 155.243 96.0126 161.036 80.0821 161.236C79.8099 161.239 79.5383 161.241 79.2675 161.241C66.1969 161.236 55.1174 157.389 46.5559 150.93C54.1092 155.23 63.5157 157.345 74.2952 157.345C75.6761 157.345 77.0781 157.311 78.5013 157.242C97.3069 156.331 112.226 149.259 121.694 138.779C121.763 138.83 121.832 138.893 121.9 138.943C122.274 139.209 122.675 139.436 123.096 139.618C121.544 141.908 119.796 144.058 117.871 146.044L117.871 146.044ZM127.105 136.386C126.862 136.726 126.551 137.011 126.192 137.224C125.884 137.403 125.535 137.498 125.179 137.499C124.537 137.469 123.921 137.236 123.42 136.833C123.222 136.691 123.013 136.521 122.803 136.343C122.917 136.235 123.03 136.126 123.136 136.007C123.405 135.707 123.644 135.382 123.851 135.036L127.28 136.099C127.221 136.194 127.169 136.301 127.104 136.386H127.105ZM164.213 149.242C164.038 149.524 163.798 149.759 163.513 149.928C163.229 150.098 162.908 150.197 162.577 150.217L162.399 150.206C162.087 150.172 161.788 150.063 161.527 149.889C161.068 149.55 160.723 149.08 160.538 148.54C160.231 147.69 160.085 146.789 160.107 145.885C160.131 144.462 160.347 143.049 160.75 141.683C161.193 140.267 161.45 138.799 161.513 137.317C161.563 136.281 161.267 135.259 160.673 134.41C160.322 133.957 159.862 133.602 159.335 133.378C158.769 133.144 158.161 133.026 157.548 133.031L157.484 133.031C156.586 132.997 155.701 133.255 154.962 133.765C154.556 134.071 154.205 134.442 153.923 134.864C153.685 135.262 153.411 135.639 153.105 135.988C152.996 136.094 152.869 136.18 152.73 136.242C152.511 136.333 152.279 136.387 152.042 136.401L151.855 136.409C151.509 136.411 151.172 136.308 150.886 136.114C150.275 135.64 149.699 135.121 149.163 134.563C148.773 134.2 148.334 133.893 147.86 133.65C147.708 133.576 147.552 133.511 147.392 133.456L151.222 129.915C151.613 129.549 152.091 129.291 152.611 129.164C153.131 129.037 153.674 129.046 154.189 129.19L158.388 130.492C158.424 130.504 158.462 130.507 158.499 130.518L164.809 132.475C164.784 132.501 164.757 132.522 164.733 132.548C164.335 132.995 164.029 133.515 163.833 134.08C163.633 134.683 163.537 135.316 163.547 135.952C163.664 137.914 164.025 139.853 164.621 141.726C164.978 142.97 165.168 144.256 165.187 145.55C165.259 146.853 164.918 148.145 164.213 149.242H164.213ZM178.043 126.963C177.904 127.665 177.548 128.307 177.026 128.797C176.649 129.115 176.168 129.284 175.675 129.272C175.06 129.246 174.463 129.063 173.939 128.74L176.783 126.109C177.21 126.327 177.655 126.505 178.113 126.644C178.089 126.749 178.068 126.863 178.043 126.963L178.043 126.963ZM182.053 123.578C181.796 123.836 181.488 124.037 181.148 124.17C180.809 124.302 180.445 124.363 180.081 124.348C179.675 124.345 179.272 124.284 178.884 124.165L179.628 123.477C180.371 122.791 180.919 121.921 181.219 120.955C181.518 119.989 181.558 118.961 181.335 117.975L181.273 117.704C181.393 117.624 181.507 117.534 181.623 117.444C182.402 118.326 182.855 119.449 182.904 120.626C182.907 120.723 182.909 120.819 182.909 120.915C182.982 121.88 182.674 122.836 182.053 123.578L182.053 123.578ZM180.65 108.194C181.049 108.545 181.377 108.969 181.616 109.443C181.871 109.965 182 110.539 181.994 111.119C181.992 111.461 181.956 111.801 181.886 112.135C181.707 113.131 181.272 114.063 180.624 114.839L178.877 107.133C179.527 107.377 180.127 107.737 180.65 108.194L180.65 108.194ZM186.455 93.8896L177.947 101.76C177.204 102.447 176.655 103.317 176.356 104.283C176.056 105.249 176.016 106.277 176.24 107.264L178.799 118.55C178.922 119.091 178.9 119.655 178.735 120.185C178.571 120.715 178.27 121.192 177.863 121.569L169.3 129.49C168.892 129.867 168.393 130.13 167.852 130.252C167.31 130.375 166.746 130.353 166.216 130.189L155.075 126.733C154.109 126.434 153.082 126.394 152.096 126.617C151.11 126.841 150.2 127.319 149.458 128.006L140.882 135.932C140.475 136.309 139.976 136.571 139.435 136.694C138.894 136.817 138.33 136.795 137.8 136.63L126.659 133.175C126.129 133.011 125.651 132.71 125.274 132.302C124.897 131.895 124.634 131.396 124.511 130.854L124.51 130.848L121.896 119.595C121.668 118.616 121.188 117.713 120.503 116.976C119.818 116.239 118.952 115.695 117.991 115.396L106.834 111.937C106.304 111.773 105.827 111.472 105.45 111.064C105.073 110.657 104.81 110.157 104.687 109.616L102.109 98.2404C101.986 97.6992 102.008 97.1352 102.172 96.6051C102.337 96.075 102.638 95.5975 103.045 95.2208L111.665 87.331C112.415 86.6448 112.97 85.7724 113.274 84.8023C113.578 83.8321 113.619 82.7989 113.394 81.8076L110.838 70.53C110.715 69.9887 110.737 69.4247 110.902 68.8945C111.066 68.3644 111.367 67.887 111.775 67.5103L120.338 59.589C120.745 59.2122 121.244 58.9492 121.785 58.8265C122.326 58.7037 122.89 58.7255 123.419 58.8897L134.574 62.3442C135.539 62.6433 136.567 62.683 137.553 62.4593C138.539 62.2356 139.449 61.7563 140.191 61.0697L148.7 53.1984C149.443 52.5116 149.991 51.6415 150.291 50.6755C150.59 49.7096 150.63 48.6819 150.407 47.6956L147.848 36.4093C147.725 35.8681 147.747 35.3041 147.912 34.774C148.076 34.244 148.377 33.7665 148.784 33.3897L157.348 25.469C157.755 25.0919 158.254 24.8288 158.795 24.7061C159.337 24.5834 159.901 24.6054 160.431 24.77L171.571 28.225C172.101 28.3891 172.579 28.6899 172.955 29.0972C173.332 29.5044 173.595 30.0038 173.718 30.5449L176.274 41.823C176.499 42.8145 176.982 43.7289 177.675 44.4733C178.367 45.2177 179.244 45.7656 180.217 46.0616L191.402 49.4648L191.395 49.4628C191.925 49.6271 192.403 49.928 192.78 50.3353C193.156 50.7427 193.419 51.2421 193.542 51.7832L196.121 63.1595C196.244 63.7006 196.222 64.2645 196.058 64.7945C195.893 65.3245 195.592 65.8019 195.185 66.1787L186.565 74.0683C185.815 74.7545 185.259 75.6271 184.956 76.5974C184.652 77.5677 184.611 78.6011 184.836 79.5926L187.391 90.8698C187.514 91.411 187.492 91.9751 187.328 92.5052C187.164 93.0353 186.863 93.5128 186.455 93.8896L186.455 93.8896ZM193.227 72.1618C193.097 73.5624 192.857 74.9505 192.51 76.3136C192.443 76.5672 192.318 76.8019 192.146 77.0002C191.798 77.3454 191.36 77.5867 190.882 77.6969C190.381 77.8345 189.874 77.9435 189.361 78.0232C188.666 78.1253 187.982 78.2847 187.313 78.4998C187.31 78.4392 187.293 78.3781 187.293 78.3176C187.293 77.8791 187.384 77.4454 187.561 77.044C187.738 76.6427 187.996 76.2826 188.32 75.9866L193.336 71.3955C193.298 71.6522 193.26 71.9096 193.227 72.1618L193.227 72.1618Z"/><path id="Vector_8" d="M181.406 74.0603L181.406 74.0602L170.624 70.7165L167.26 55.877L175.584 48.177C175.835 47.9425 175.983 47.6179 175.996 47.2744C176.009 46.9309 175.885 46.5963 175.651 46.344C175.418 46.0917 175.094 45.942 174.75 45.9279C174.407 45.9137 174.072 46.0361 173.819 46.2684L165.499 53.9638L154.478 50.546C154.315 50.4946 154.143 50.476 153.972 50.4911C153.802 50.5063 153.636 50.555 153.484 50.6345C153.333 50.7139 153.198 50.8225 153.089 50.9541C152.979 51.0856 152.897 51.2375 152.846 51.401C152.795 51.5645 152.777 51.7364 152.793 51.9069C152.809 52.0773 152.859 52.2429 152.939 52.3942C153.019 52.5455 153.128 52.6795 153.26 52.7885C153.392 52.8975 153.544 52.9793 153.708 53.0293L164.722 56.4452L168.072 71.2193L156.77 81.6745L142.206 77.1576L139.679 66.0087C139.603 65.6724 139.396 65.3802 139.105 65.1963C138.813 65.0125 138.46 64.952 138.124 65.0282C137.788 65.1044 137.496 65.311 137.312 65.6027C137.128 65.8943 137.067 66.2471 137.143 66.5833L139.654 77.6613L128.353 88.1153L117.132 84.6358C116.803 84.5337 116.447 84.5666 116.142 84.7273C115.836 84.888 115.608 85.1632 115.506 85.4925C115.403 85.8219 115.436 86.1783 115.597 86.4833C115.758 86.7884 116.033 87.0171 116.362 87.1193L127.576 90.5965L130.943 105.449L122.711 113.065C122.586 113.181 122.485 113.321 122.413 113.476C122.342 113.631 122.302 113.799 122.295 113.969C122.288 114.14 122.315 114.31 122.374 114.47C122.434 114.63 122.524 114.777 122.64 114.903C122.756 115.028 122.895 115.129 123.05 115.201C123.205 115.272 123.373 115.312 123.543 115.319C123.714 115.325 123.884 115.298 124.044 115.239C124.205 115.18 124.352 115.09 124.477 114.974L132.772 107.299L147.4 111.835L149.978 123.21C150.055 123.546 150.262 123.838 150.553 124.021C150.845 124.205 151.197 124.265 151.533 124.189C151.869 124.113 152.161 123.906 152.345 123.615C152.529 123.324 152.59 122.971 152.514 122.635L152.514 122.635L149.937 111.267L161.19 100.858L172.288 104.299C172.617 104.401 172.973 104.368 173.278 104.207C173.582 104.046 173.811 103.771 173.913 103.442C174.015 103.113 173.982 102.757 173.822 102.452C173.662 102.148 173.387 101.919 173.058 101.816L173.058 101.816L161.876 98.3483L158.53 83.5884L169.783 73.178L180.636 76.5436C180.965 76.645 181.321 76.6117 181.625 76.451C181.93 76.2903 182.158 76.0153 182.26 75.6864C182.362 75.3574 182.33 75.0015 182.169 74.6966C182.009 74.3917 181.735 74.1629 181.406 74.0603H181.406ZM159.36 99.0089L148.177 109.354L133.46 104.79L130.113 90.0289L141.366 79.6194L155.993 84.1557L159.36 99.0089Z"/></g></g></svg>