<svg width="200" height="200" viewBox="0 0 200 200" xmlns="http://www.w3.org/2000/svg"><g id="type=family, mode=dark"><g id="Layer 4"><path id="Vector" d="M69.1743 70.488C67.6657 69.1219 65.7685 68.2606 63.7471 68.024C63.4733 67.9993 63.1951 67.987 62.9126 67.9873C60.6275 68.0656 58.3873 68.6437 56.3496 69.6808C52.5663 71.5364 49.2898 74.2823 46.8014 77.6829C43.8961 81.5715 42.283 86.2731 42.189 91.1262C42.1867 91.2752 42.1856 91.4234 42.1856 91.5707C42.1798 97.0686 43.7704 101.111 45.9858 103.925C47.8711 106.322 50.4121 108.119 53.3 109.099V109.099C54.9532 109.644 56.684 109.916 58.4245 109.905C62.8757 109.872 67.1902 108.363 70.6911 105.614C72.5795 104.157 74.1311 102.309 75.2397 100.197C76.3484 98.0844 76.988 95.7578 77.115 93.3757C77.1495 92.7527 77.1667 92.1311 77.1664 91.5109C77.196 86.0605 75.892 80.6856 73.3681 75.8546C72.3054 73.8274 70.8846 72.0092 69.1743 70.488ZM74.5189 93.2316C74.4136 95.2471 73.8724 97.2158 72.9326 99.0019C71.9929 100.788 70.6769 102.349 69.0754 103.577C66.0333 105.96 62.2887 107.271 58.4245 107.305C56.9668 107.316 55.517 107.09 54.1318 106.636L53.7159 107.868L54.1317 106.636C51.7233 105.817 49.604 104.318 48.0309 102.319C46.1927 99.969 44.7914 96.58 44.7856 91.5707C44.7856 91.437 44.7867 91.3019 44.7887 91.1656C44.8664 88.3532 45.501 85.5841 46.656 83.0187C47.8109 80.4532 49.4632 78.1422 51.5172 76.2196C53.265 74.5129 55.275 73.0973 57.4708 72.0267C59.1594 71.1592 61.016 70.6682 62.9126 70.5873C63.1214 70.5873 63.3217 70.5961 63.5136 70.6135C64.9988 70.803 66.388 71.4509 67.4878 72.4669C69.7717 74.6091 71.5 77.2751 72.5233 80.2345C73.876 83.8401 74.568 87.6599 74.5663 91.5109C74.5663 92.0837 74.5505 92.6573 74.5189 93.2316Z"/><path id="Vector_2" d="M70.911 93.4227C70.9076 93.9024 70.7747 94.3723 70.5263 94.7827C70.2779 95.1932 69.9233 95.5289 69.4998 95.7543C69.0764 95.9798 68.5999 96.0867 68.1207 96.0637C67.6415 96.0407 67.1774 95.8887 66.7775 95.6236C66.3776 95.3586 66.0568 94.9905 65.8488 94.5582C65.6409 94.1258 65.5536 93.6454 65.5963 93.1675C65.6389 92.6897 65.8098 92.2322 66.091 91.8435C66.3722 91.4548 66.7532 91.1493 67.1937 90.9593C66.233 90.666 65.2139 90.619 64.2303 90.8226C59.3431 91.865 56.5731 96.6522 57.8421 98.8543C58.8856 100.666 61.9656 100.038 65.887 99.1873C69.8084 98.3362 72.2918 98.2981 72.0389 95.7083C71.8889 94.8544 71.4975 94.0612 70.911 93.4227Z"/><path id="Vector_3" d="M114.172 84.1367L114.221 84.2979C114.32 84.7875 114.279 85.295 114.103 85.7624C113.926 86.2298 113.622 86.6382 113.225 86.9409C112.828 87.2437 112.353 87.4286 111.856 87.4745C111.359 87.5204 110.858 87.4255 110.412 87.2007C109.966 86.9758 109.593 86.63 109.334 86.2027C109.075 85.7755 108.942 85.2841 108.949 84.7847C108.956 84.2853 109.104 83.798 109.375 83.3784C109.646 82.9589 110.029 82.624 110.482 82.4121C109.318 82.1667 108.118 82.1501 106.948 82.3633C102.962 83.0923 100.962 87.7778 101.591 89.8564C102.344 92.3467 104.655 91.4355 108.604 90.7275C112.554 90.02 115.641 89.4263 115.915 87.354C115.912 86.7156 115.751 86.0879 115.447 85.5267C115.143 84.9654 114.705 84.4879 114.172 84.1367Z"/><path id="Vector_4" d="M99.9036 102.344C99.6904 102.242 99.4536 102.201 99.2187 102.224C98.9837 102.247 98.7595 102.334 98.57 102.474C97.7954 102.973 96.9639 103.377 96.0933 103.678C94.6887 104.203 93.2553 104.648 91.8002 105.011C91.7841 104.593 91.7611 104.079 91.7279 103.506C91.6802 102.692 91.6108 101.773 91.5153 100.861C94.1625 99.2772 96.3299 95.0822 95.675 92.5999C94.78 89.2078 82.5891 91.7581 81.9372 94.9486C81.5004 97.0848 85.7523 101.047 88.9643 101.451C89.0374 102.205 89.093 102.972 89.1323 103.657C89.173 104.359 89.1984 104.979 89.2136 105.421C89.2159 105.488 89.2176 105.543 89.2194 105.601C86.8831 106.1 84.5041 106.373 82.1155 106.415C81.2977 106.422 80.4807 106.364 79.6722 106.241C79.4442 106.204 79.2104 106.228 78.9949 106.311C78.7793 106.394 78.5898 106.533 78.4458 106.714C78.3017 106.894 78.2084 107.11 78.1754 107.339C78.1424 107.567 78.171 107.8 78.2581 108.014C79.0035 109.728 79.9619 111.341 81.1105 112.815C82.1106 114.127 83.3185 115.267 84.6863 116.189C86.2192 117.224 88.0225 117.785 89.8719 117.802C90.3752 117.802 90.8775 117.76 91.374 117.677C93.3453 117.378 95.1773 116.481 96.6222 115.107C98.3616 113.327 99.5589 111.089 100.075 108.653C100.449 107.087 100.643 105.482 100.651 103.872C100.651 103.623 100.645 103.478 100.644 103.461C100.634 103.225 100.559 102.996 100.429 102.8C100.298 102.603 100.117 102.445 99.9036 102.344ZM93.9302 107.126C93.9142 107.251 93.8873 107.375 93.8497 107.495C93.703 107.943 93.4183 108.332 93.0365 108.608C92.2385 109.16 91.3193 109.51 90.3568 109.631C89.9053 109.713 89.4475 109.756 88.9886 109.759C88.3947 109.774 87.8041 109.666 87.2537 109.443C86.8719 109.283 86.5322 109.037 86.2609 108.724C88.3692 108.449 90.4586 108.045 92.5172 107.514C93.0009 107.389 93.4702 107.259 93.9302 107.126V107.126ZM85.1092 109.188L85.1104 109.19L85.1092 109.188ZM94.8252 113.228C93.7592 114.242 92.4052 114.9 90.9496 115.112C90.5934 115.172 90.2329 115.202 89.8718 115.202C88.5261 115.185 87.2156 114.77 86.105 114.01C84.4744 112.859 83.1013 111.381 82.0733 109.67C81.9259 109.437 81.7937 109.215 81.6687 109C81.8193 109.003 81.9625 109.015 82.1154 109.015C82.5431 109.015 82.9807 109.002 83.4244 108.981C83.4824 109.136 83.5486 109.288 83.6227 109.436C84.0303 110.221 84.6327 110.887 85.3721 111.372C86.4534 112.051 87.712 112.395 88.9886 112.359C89.5983 112.356 90.2067 112.3 90.8067 112.191C92.5638 111.997 94.1966 111.191 95.419 109.914C95.8293 109.435 96.1388 108.879 96.3291 108.278C96.4778 107.803 96.5529 107.308 96.5518 106.811C96.5513 106.619 96.5403 106.444 96.5242 106.287C96.6897 106.227 96.8627 106.167 97.0211 106.106C97.3446 105.982 97.6514 105.858 97.9417 105.734C97.8016 107.16 97.473 108.561 96.9645 109.901C96.4999 111.152 95.7701 112.287 94.8252 113.228L94.8252 113.228Z"/><path id="Vector_5" d="M123.687 91.9235C125.415 90.8368 127.227 89.8885 129.105 89.0872C129.806 88.7893 130.374 88.5743 130.762 88.4353C130.956 88.3658 131.105 88.3152 131.204 88.2828L131.312 88.2475L131.341 88.2387C131.67 88.1378 131.945 87.9103 132.107 87.6063C132.269 87.3022 132.303 86.9465 132.203 86.617C132.103 86.2876 131.876 86.0115 131.572 85.8492C131.268 85.6869 130.913 85.6518 130.583 85.7515C130.554 85.761 129.924 85.9552 128.899 86.3615C129.118 85.2806 129.229 84.1806 129.231 83.0777C129.18 80.0411 128.508 77.047 127.257 74.2799C125.221 69.6125 121.713 65.7402 117.269 63.2547C113.486 61.0695 109.207 59.8866 104.839 59.8181C102.658 59.7535 100.493 60.2058 98.5199 61.138C96.3759 62.3676 94.741 64.3219 93.9092 66.6492C92.8941 69.3294 92.3992 72.1786 92.4509 75.0441C92.4895 80.108 93.6412 85.1015 95.8244 89.6708C97.3396 92.8291 99.8248 95.4203 102.917 97.0663C105.772 98.5843 108.955 99.3805 112.189 99.3853C111.272 100.771 110.488 102.24 109.848 103.773C109.717 104.091 109.718 104.449 109.85 104.766C109.982 105.084 110.235 105.337 110.553 105.468C110.871 105.6 111.229 105.6 111.547 105.468C111.865 105.337 112.118 105.084 112.25 104.766L112.25 104.766C114.754 98.7025 119.509 94.551 123.687 91.9235ZM114.124 96.7792C113.992 96.7414 113.855 96.7252 113.719 96.7312C113.251 96.7693 112.779 96.7884 112.301 96.7885C109.462 96.8 106.664 96.1101 104.155 94.7802C101.545 93.3962 99.4471 91.212 98.1694 88.548C96.1547 84.329 95.0902 79.7193 95.051 75.0441C95.0005 72.5143 95.4304 69.9978 96.3178 67.6282C96.9204 65.8734 98.1273 64.39 99.7228 63.4431C101.325 62.7079 103.077 62.357 104.839 62.4181C108.754 62.488 112.587 63.5523 115.977 65.5111C119.932 67.7161 123.055 71.1572 124.868 75.3071C125.98 77.7498 126.58 80.3944 126.631 83.0778C126.637 84.524 126.416 85.9621 125.975 87.3393C125.945 87.4533 125.932 87.5708 125.935 87.6885C124.691 88.3054 123.478 88.9844 122.302 89.723C119.225 91.635 116.466 94.0157 114.124 96.7792H114.124Z"/><path id="Vector_6" d="M146.162 17.9878L146.163 17.9888H146.164L146.162 17.9878Z"/><path id="Vector_7" d="M133.592 4.35512L133.595 4.35212L133.598 4.34912L133.592 4.35512Z"/><path id="Vector_8" d="M196.043 48.7819L196.043 48.7672L196.042 48.7351H196.041C196.032 47.3615 195.785 45.9998 195.311 44.7105L195.308 44.7051L195.309 44.705C194.184 41.7718 192.189 39.2526 189.592 37.4855L189.584 37.4798C188.61 36.8042 187.569 36.2317 186.477 35.7714C186.479 35.6634 186.467 35.5555 186.442 35.4504L186.442 35.4503C183.906 27.2124 178.579 20.1159 171.376 15.3817C166.148 11.8996 160.17 9.70482 153.931 8.97706C152.966 7.35723 151.735 5.91146 150.29 4.70039L150.286 4.69739C148.373 3.06566 146.079 1.94232 143.617 1.43109L143.614 1.43072L143.614 1.43048C142.839 1.27852 142.052 1.20136 141.262 1.20006H141.268L141.218 1.19994C139.801 1.19051 138.397 1.46453 137.087 2.00589C135.778 2.54724 134.59 3.345 133.593 4.35222C131.643 6.37689 130.562 9.08468 130.582 11.8962L130.582 11.9234H130.582L130.582 11.9282L130.583 11.9496H130.583C130.583 12.1632 130.589 12.3754 130.601 12.5851L130.601 12.5887C130.628 13.0169 130.678 13.4432 130.751 13.866C125.638 16.7603 121.279 20.8192 118.028 25.7132C117.301 26.8298 116.642 27.9894 116.055 29.1857C113.558 25.6065 110.481 22.4691 106.952 19.9027C103.071 17.1428 98.7486 15.3369 94.3816 15.3316C92.3488 15.324 90.337 15.7426 88.4759 16.5602C86.7716 17.3055 85.2583 18.4274 84.0499 19.8415C82.3966 21.8606 81.2398 24.2393 80.6724 26.7865C80.1173 29.1598 79.8477 31.5909 79.8694 34.0282C79.8715 35.8908 79.9993 37.751 80.2518 39.5964C79.6432 40.324 79.0835 41.0912 78.5765 41.8929C78.199 42.4953 77.856 43.1187 77.5493 43.7601L77.5414 43.7593C75.7231 43.9421 73.9084 44.212 72.0975 44.569C65.0845 45.9736 58.3677 48.5819 52.2447 52.2781C51.4531 51.1025 50.5247 50.025 49.4791 49.0683C45.8628 45.8482 41.1783 44.088 36.3364 44.1298C33.7328 44.093 31.1501 44.5985 28.7526 45.6142C26.3551 46.63 24.1953 48.1337 22.4106 50.0297C19.4378 53.3201 17.813 57.6092 17.8595 62.0434C17.8626 64.789 18.4321 67.5045 19.5324 70.0201C20.6327 72.5356 22.2402 74.7971 24.2542 76.6632C25.2733 77.5936 26.3964 78.4032 27.6013 79.0757C23.9474 86.4842 22.0196 94.6244 21.9626 102.885C21.9596 107.651 22.6425 112.393 23.9904 116.964C25.1388 120.95 26.9274 124.722 29.2864 128.133C25.6883 131.344 22.4638 134.951 19.6739 138.884C14.6117 145.979 9.50201 156.13 9.49805 168.29C9.49805 168.873 9.51007 169.461 9.53412 170.053C9.59862 172.776 10.1248 175.468 11.0902 178.015C12.2424 181.084 14.4047 183.67 17.2216 185.348C19.7921 186.785 22.6888 187.538 25.6337 187.533L24.9536 196.148C24.9395 196.318 24.9593 196.49 25.0118 196.653C25.0642 196.815 25.1482 196.966 25.2591 197.097C25.37 197.227 25.5054 197.334 25.6578 197.412C25.8101 197.49 25.9763 197.537 26.1469 197.55C26.3174 197.564 26.4889 197.543 26.6516 197.49C26.8143 197.437 26.9649 197.353 27.0948 197.242C27.2247 197.13 27.3314 196.994 27.4088 196.842C27.4861 196.689 27.5326 196.523 27.5455 196.352L28.2495 187.435C32.2355 187.028 36.1135 185.896 39.6923 184.095C43.8766 182.099 47.5732 179.212 50.5227 175.635C59.8127 163.781 63.854 153.734 64.7156 151.42C66.7904 150.311 68.7632 149.021 70.6109 147.564C71.4285 146.916 72.2106 146.224 72.9537 145.492C79.2353 145.275 85.4881 144.538 91.648 143.289C107.875 140.073 121.394 133.809 130.713 125.317C132.138 125.822 133.608 126.188 135.103 126.41C135.99 126.542 136.885 126.607 137.781 126.604C138.721 126.598 139.66 126.535 140.593 126.415C141.013 127.858 141.519 129.675 142.085 131.869C138.49 134.527 135.099 137.448 131.938 140.609C130.208 140.749 128.496 141.058 126.826 141.532C125.226 141.972 123.699 142.645 122.295 143.529C120.769 144.475 119.556 145.85 118.807 147.482C118.358 148.574 118.136 149.747 118.158 150.928C118.193 152.834 118.58 154.717 119.298 156.482C120.363 159.198 122.017 161.643 124.14 163.643C124.241 163.832 124.389 163.991 124.568 164.107C124.614 164.127 124.661 164.144 124.708 164.159C124.733 164.18 124.755 164.202 124.779 164.223C127.386 166.503 130.724 167.773 134.187 167.804C134.301 167.804 134.416 167.802 134.531 167.8C135.422 167.754 136.305 167.605 137.161 167.354C140.902 166.164 144.52 164.616 147.963 162.729C148.786 168.343 149.305 173.997 149.52 179.666C149.791 185.542 149.833 190.752 149.833 193.395C149.833 193.983 149.831 194.444 149.829 194.757C149.827 195.071 149.825 195.234 149.825 195.234C149.82 195.579 149.953 195.911 150.194 196.158C150.435 196.405 150.764 196.546 151.109 196.55C151.454 196.554 151.786 196.421 152.033 196.18C152.279 195.94 152.42 195.611 152.425 195.266C152.425 195.261 152.433 194.582 152.433 193.395C152.433 190.724 152.391 185.48 152.118 179.547C152.021 177.457 151.894 175.281 151.732 173.102C154.949 173.882 158.244 174.291 161.554 174.322C168.279 174.327 173.95 172.384 178.259 168.786C182.572 165.191 185.482 159.994 186.893 153.658C186.901 153.624 186.891 153.592 186.895 153.558C188.093 151.05 188.709 148.304 188.695 145.525C188.695 145.209 188.688 144.889 188.673 144.566C188.563 140.45 187.21 136.463 184.793 133.13C184.848 133.021 184.887 132.905 184.909 132.786C185.034 131.785 185.096 130.778 185.097 129.769C185.099 126.919 184.59 124.091 183.593 121.421C181.904 116.926 178.668 113.315 175.908 109.831C174.567 108.218 173.367 106.494 172.319 104.677C171.386 103.069 170.823 101.274 170.672 99.4215C170.653 99.1964 170.574 98.9806 170.443 98.7965C170.549 97.8674 170.604 96.9332 170.607 95.9981C170.632 92.5781 169.84 89.2016 168.296 86.1501C167.44 84.4729 166.362 82.9188 165.091 81.5298C166.359 81.2096 167.605 80.8072 168.82 80.3253C173.265 78.5404 177.187 75.6633 180.224 71.9602C183.246 68.256 185.474 63.9699 186.77 59.3683C186.777 59.3222 186.78 59.2758 186.782 59.2293C189.239 58.9066 191.512 57.7541 193.224 55.9627C195.042 54.0213 196.05 51.4592 196.043 48.7995L196.043 48.7819ZM133.182 11.8962C133.162 9.76447 133.977 7.70945 135.452 6.17041L135.458 6.16441C136.212 5.40673 137.11 4.80731 138.099 4.40129C139.089 3.99526 140.149 3.79081 141.218 3.79991L141.256 3.80003H141.262C141.885 3.80139 142.506 3.8625 143.117 3.98253C145.15 4.40978 147.043 5.3422 148.621 6.69377C150.18 7.98885 151.439 9.60755 152.311 11.4377C152.884 12.6341 153.224 13.9285 153.313 15.2521L153.313 15.2557C153.323 15.4204 153.327 15.586 153.327 15.7515H153.327L153.327 15.7541V15.7568C153.329 16.5335 153.22 17.3065 153.002 18.052V18.0521C152.912 18.3569 152.757 18.6387 152.547 18.8778C152.338 19.117 152.079 19.3078 151.789 19.4373C151.498 19.5667 151.183 19.6317 150.865 19.6276C150.548 19.6236 150.234 19.5507 149.947 19.4139L149.941 19.4119L149.912 19.3981L149.885 19.3853L149.714 19.3087L149.712 19.3075C149.539 19.2303 149.282 19.1195 148.95 18.9848L148.952 18.9853C148.288 18.7154 147.326 18.352 146.163 17.9887C143.414 17.0955 140.548 16.6103 137.658 16.5487L137.618 16.5487H137.621C137.082 16.5487 136.545 16.57 136.014 16.6154L135.823 16.6236C135.369 16.6238 134.926 16.4828 134.555 16.2202C134.184 15.9575 133.904 15.5862 133.753 15.1574L133.753 15.1568C133.44 14.2829 133.253 13.369 133.197 12.4424C133.187 12.2676 133.182 12.0941 133.182 11.9234L133.182 11.8972L133.182 11.8962ZM80.7754 43.2802C81.1595 42.6734 81.5777 42.089 82.028 41.5297C82.1984 41.3181 82.3394 41.1528 82.4355 41.0428L82.5442 40.9205L82.5697 40.8925L82.5741 40.8878C82.7088 40.7435 82.8089 40.5706 82.8669 40.382C82.9248 40.1934 82.9392 39.9941 82.9089 39.7992C82.618 37.8892 82.4711 35.9601 82.4695 34.0282C82.4094 31.047 82.8813 28.0791 83.8631 25.2637C84.3634 23.906 85.094 22.6446 86.0227 21.5351C86.9775 20.4157 88.1745 19.5282 89.523 18.9399C91.0541 18.2673 92.7094 17.9238 94.3816 17.9316C98.0085 17.9262 101.868 19.4712 105.443 22.0205C109.123 24.7055 112.275 28.046 114.743 31.8745C114.775 31.9114 114.809 31.9463 114.845 31.979C113.606 35.2123 112.963 38.6436 112.948 42.1062C112.948 43.7812 113.102 45.4527 113.407 47.0998C113.707 48.6847 114.142 50.2411 114.707 51.7519C114.579 51.6843 114.453 51.6169 114.325 51.5493C113.125 50.9189 111.928 50.311 111.102 49.8903C111.043 48.7704 110.786 47.6698 110.343 46.6396C109.642 45.0398 108.67 43.5733 107.469 42.3051C106.962 41.7578 106.413 41.2501 105.828 40.7865C105.561 40.5767 105.282 40.3811 104.994 40.2007C104.913 39.1316 104.749 36.9739 104.561 34.6602C104.428 33.0243 104.283 31.3136 104.147 29.858C104.011 28.3967 103.888 27.215 103.784 26.5473C103.758 26.3777 103.699 26.2149 103.61 26.0682C103.522 25.9215 103.405 25.7938 103.266 25.6925C103.128 25.5912 102.971 25.5182 102.804 25.4779C102.638 25.4375 102.465 25.4304 102.295 25.4572C102.126 25.4839 101.964 25.5439 101.818 25.6337C101.671 25.7234 101.545 25.8412 101.444 25.9802C101.344 26.1193 101.272 26.2767 101.233 26.4437C101.193 26.6106 101.188 26.7836 101.215 26.9528C101.298 27.4724 101.426 28.6658 101.559 30.0991C101.76 32.2578 101.984 35.0099 102.157 37.2191C102.33 39.4287 102.453 41.0916 102.453 41.0955C102.47 41.3308 102.551 41.5569 102.687 41.7496C102.823 41.9423 103.009 42.0943 103.225 42.1894C103.745 42.456 104.226 42.7929 104.655 43.1907C105.689 44.108 106.579 45.1771 107.292 46.3615C108.036 47.5197 108.461 48.8544 108.522 50.2298C108.523 50.5633 108.488 50.8959 108.417 51.2218C108.359 51.701 108.116 52.1386 107.739 52.4412C107.399 52.6522 107.003 52.7532 106.604 52.7305C105.909 52.7054 105.224 52.5674 104.574 52.3218C104.276 52.2157 104.024 52.1085 103.852 52.0302L103.657 51.9383L103.612 51.9158L103.604 51.9116L103.604 51.912C103.557 51.8949 103.509 51.8807 103.46 51.8696C103.469 51.6321 103.48 51.3931 103.48 51.162C103.473 49.4431 103.273 47.7304 102.885 46.056C102.8 45.7218 102.586 45.4349 102.29 45.2584C101.994 45.0818 101.64 45.0302 101.306 45.1148C100.971 45.1994 100.684 45.4133 100.508 45.7095C100.331 46.0056 100.28 46.3598 100.364 46.694L100.368 46.7079C100.699 48.1697 100.871 49.6632 100.88 51.162C100.901 52.3663 100.736 53.5666 100.389 54.72C100.215 55.2797 99.8318 55.7509 99.3198 56.0365C98.7447 56.3471 98.0988 56.5032 97.4453 56.4896C96.7525 56.4931 96.0677 56.3405 95.4421 56.0428C95.0164 55.8669 94.6666 55.5461 94.4546 55.1373C94.4446 55.1127 94.4239 55.0973 94.4126 55.0738C94.9334 53.2953 95.2632 51.4665 95.3964 49.6182C95.5494 47.8209 95.5494 46.4622 95.5495 46.4375C95.5495 46.0927 95.4126 45.7621 95.1688 45.5183C94.925 45.2745 94.5943 45.1375 94.2495 45.1375C93.9047 45.1375 93.5741 45.2745 93.3303 45.5183C93.0865 45.7621 92.9495 46.0927 92.9495 46.4375C92.9495 46.4377 92.9495 46.5079 92.9473 46.6523C92.9398 47.1576 92.9038 48.4986 92.7449 50.0461C92.6159 51.6012 92.3117 53.1368 91.8383 54.6238C91.6955 55.0212 91.4064 55.3491 91.03 55.5405C90.5427 55.7873 90.0019 55.9096 89.4558 55.8967C88.6788 55.8971 87.9148 55.6978 87.237 55.3179C86.6829 55.034 86.2614 54.5452 86.062 53.9554L86.0619 53.9551C85.9169 53.4377 85.845 52.9027 85.8484 52.3654C85.9951 50.0519 86.8134 47.8314 88.203 45.9759C88.3928 45.6898 88.4618 45.3403 88.3949 45.0036C88.3279 44.6669 88.1305 44.3703 87.8457 44.1786C87.5609 43.9869 87.2118 43.9156 86.8747 43.9804C86.5375 44.0451 86.2397 44.2406 86.0461 44.5241H86.0461C84.5562 46.589 83.6091 48.9952 83.2919 51.5217C82.8419 51.7135 82.3593 51.8169 81.8703 51.8263C81.4201 51.8355 80.9773 51.7104 80.5984 51.4671C80.0089 51.0378 79.5644 50.4388 79.3245 49.7501C79.1222 49.2535 79.0212 48.7215 79.0275 48.1853C79.1624 46.4237 79.7659 44.7302 80.7754 43.2802V43.2802ZM26.0085 74.7442C24.2614 73.1214 22.8672 71.1562 21.9125 68.9712C20.9579 66.7861 20.4633 64.4279 20.4595 62.0434C20.4124 58.2584 21.7944 54.5948 24.3296 51.7839C25.8708 50.1546 27.7342 48.8638 29.8012 47.9937C31.8683 47.1236 34.0938 46.6932 36.3363 46.7298C40.5289 46.6889 44.5874 48.2061 47.7249 50.9874C48.5988 51.7858 49.3773 52.6829 50.0447 53.6606C44.9686 56.9989 40.3847 61.0313 36.4264 65.6404C33.4878 69.0631 30.9256 72.7917 28.784 76.762C27.7862 76.1954 26.8552 75.5186 26.0085 74.7442ZM66.8149 147.122C65.7713 147.826 64.8314 148.384 64.1572 148.763C63.8201 148.952 63.5495 149.097 63.3653 149.194C63.2732 149.242 63.2028 149.278 63.1565 149.301L63.1055 149.327L63.0926 149.333C62.9388 149.409 62.8015 149.514 62.6885 149.642C62.5756 149.771 62.4893 149.921 62.4346 150.083L62.4268 150.106C62.2328 150.668 58.4715 161.281 48.4763 174.032C45.7659 177.3 42.3754 179.939 38.541 181.764C34.6787 183.744 30.4209 184.831 26.082 184.945C24.2955 184.965 22.5177 184.693 20.8187 184.14C18.3757 183.348 16.2714 181.755 14.846 179.618C13.0629 176.708 12.1233 173.36 12.1319 169.947C12.1091 169.391 12.0978 168.838 12.0981 168.29C12.0941 156.881 16.9183 147.219 21.7902 140.395C23.8047 137.574 26.043 134.921 28.4835 132.46C29.3948 131.543 30.1522 130.842 30.6781 130.372C30.7471 130.311 30.8008 130.264 30.8616 130.21C31.7425 131.297 32.6877 132.331 33.6922 133.304C33.692 133.359 33.6874 133.409 33.6874 133.464C33.6874 133.63 33.6917 133.802 33.6941 133.971C33.0332 134.916 31.1326 137.684 29.0392 141.193C26.4488 145.548 23.5599 150.996 22.3644 155.681C22.3224 155.846 22.3135 156.018 22.338 156.187C22.3626 156.356 22.4202 156.518 22.5076 156.665C22.684 156.961 22.9709 157.175 23.3051 157.26C23.6393 157.345 23.9935 157.293 24.2897 157.117C24.5859 156.941 24.8 156.654 24.8847 156.319C25.9391 152.129 28.7377 146.764 31.2723 142.525C32.539 140.401 33.7387 138.547 34.6197 137.228C35.0603 136.568 35.4212 136.041 35.6711 135.681C35.7961 135.501 35.8933 135.362 35.9588 135.27C36.0244 135.177 36.0566 135.132 36.0566 135.132C36.2215 134.901 36.3066 134.624 36.2991 134.341C36.2912 134.043 36.2873 133.751 36.2874 133.464C36.2872 128.305 37.5183 124.854 39.1073 122.74C39.6816 121.877 40.4507 121.161 41.3525 120.65C42.2544 120.139 43.2637 119.847 44.2992 119.798C44.7281 119.797 45.155 119.855 45.5679 119.971C44.2094 121.351 43.0768 122.936 42.2117 124.669C42.1354 124.821 42.0898 124.988 42.0777 125.158C42.0656 125.328 42.0872 125.499 42.1412 125.661C42.1952 125.823 42.2805 125.973 42.3924 126.102C42.5042 126.231 42.6404 126.336 42.7931 126.413C42.9458 126.489 43.112 126.535 43.2823 126.547C43.4526 126.559 43.6236 126.537 43.7856 126.483C43.9476 126.429 44.0973 126.344 44.2263 126.232C44.3552 126.12 44.4609 125.984 44.5373 125.831C45.7976 123.3 47.7088 121.15 50.0746 119.601C51.7304 118.499 53.5743 117.71 55.5146 117.273C55.7426 117.227 55.9747 117.204 56.2073 117.205C57.1639 117.213 58.0944 117.518 58.8702 118.077C59.2197 118.331 59.5109 118.657 59.7246 119.033C59.9328 119.411 60.0398 119.837 60.0351 120.269C60.0171 120.896 59.8598 121.51 59.5746 122.068C59.4956 122.24 59.4556 122.427 59.4573 122.616C59.1505 122.786 58.8415 122.965 58.5292 123.155C55.4196 125.145 52.5743 127.521 50.0609 130.226C49.9428 130.349 49.8501 130.494 49.7881 130.653C49.7262 130.812 49.6961 130.982 49.6998 131.153C49.7034 131.323 49.7406 131.492 49.8093 131.648C49.878 131.804 49.9767 131.946 50.1 132.064C50.2233 132.182 50.3686 132.274 50.5277 132.336C50.6867 132.398 50.8565 132.428 51.0271 132.425C51.1978 132.421 51.3661 132.384 51.5224 132.315C51.6787 132.247 51.82 132.148 51.9381 132.025C54.2974 129.482 56.9679 127.247 59.8864 125.373C61.6709 124.133 63.7506 123.384 65.9162 123.203C66.5536 123.183 67.1847 123.334 67.7444 123.639C68.275 123.958 68.7019 124.423 68.9735 124.979C69.4148 125.759 69.6576 126.636 69.6805 127.532C69.6724 128.484 69.3349 129.405 68.7252 130.136C68.5216 130.391 68.2944 130.625 68.0465 130.836C67.956 130.913 67.883 130.968 67.8375 131.002L67.8101 131.021C64.4976 132.876 61.3797 135.058 58.5031 137.535C58.3764 137.65 58.2735 137.788 58.2003 137.942C58.127 138.096 58.0849 138.264 58.0762 138.434C58.0675 138.605 58.0925 138.775 58.1498 138.936C58.207 139.097 58.2954 139.245 58.4098 139.371C58.5242 139.498 58.6625 139.601 58.8167 139.674C58.9709 139.748 59.138 139.79 59.3085 139.798C59.479 139.807 59.6496 139.782 59.8104 139.725C59.9712 139.668 60.1192 139.579 60.2459 139.465C62.0784 137.858 64.0336 136.396 66.0936 135.093C66.974 134.527 67.7365 134.067 68.2764 133.75C68.5464 133.592 68.7606 133.469 68.9062 133.387L69.0408 133.311C69.0729 133.311 69.1019 133.324 69.1344 133.321C69.5861 133.274 70.04 133.249 70.4941 133.248C71.5876 133.187 72.6762 133.434 73.6367 133.96C73.9958 134.19 74.2865 134.512 74.4786 134.892C74.7304 135.433 74.8503 136.026 74.8286 136.622L74.8252 136.833C74.696 138.52 74.0669 140.131 73.0182 141.46C71.2827 143.682 69.1856 145.596 66.8149 147.122H66.8149ZM91.1429 140.738C85.9063 141.788 80.6023 142.467 75.2703 142.771C76.5416 141.071 77.2899 139.037 77.4237 136.918C77.427 136.818 77.4286 136.719 77.4286 136.622C77.4509 135.617 77.2346 134.621 76.7973 133.716C76.1987 132.563 75.191 131.674 73.9716 131.225C73.1675 130.923 72.3227 130.741 71.4652 130.688C71.999 129.722 72.2794 128.636 72.2804 127.532C72.2577 126.215 71.9126 124.924 71.2755 123.771C70.7752 122.78 70.0016 121.953 69.0462 121.389C68.0909 120.854 67.0107 120.583 65.9162 120.603C64.7668 120.626 63.6288 120.835 62.5459 121.221C62.6014 120.907 62.6312 120.588 62.6351 120.269C62.6392 119.399 62.4213 118.541 62.0019 117.778C61.4092 116.743 60.5191 115.91 59.447 115.388C58.4424 114.879 57.3333 114.611 56.2073 114.605C55.7965 114.604 55.3866 114.645 54.9842 114.727C52.7222 115.231 50.5725 116.147 48.6431 117.43C48.3336 117.634 48.0238 117.853 47.7149 118.084C46.671 117.501 45.4949 117.196 44.2992 117.198C42.8603 117.247 41.4529 117.632 40.1901 118.324C38.9273 119.016 37.8443 119.994 37.028 121.18C35.2532 123.724 34.1769 126.689 33.9066 129.779C30.4417 125.88 27.9042 121.248 26.4842 116.229C25.2067 111.896 24.5595 107.402 24.5627 102.885C24.5604 89.9907 29.7703 77.3871 38.3995 67.3337C47.2305 56.9738 59.2682 49.8595 72.6026 47.1195C73.9342 46.8558 75.2715 46.6582 76.6105 46.4944C76.495 47.0508 76.4337 47.6171 76.4275 48.1853C76.4212 49.0648 76.5902 49.9367 76.9246 50.7502C77.3643 51.9216 78.1503 52.9314 79.1781 53.645C79.9797 54.1633 80.9158 54.435 81.8703 54.4264C82.4092 54.4216 82.9453 54.3473 83.4653 54.2053C83.4995 54.3598 83.5186 54.5178 83.5621 54.67L83.562 54.6696C83.9449 55.9064 84.7946 56.9454 85.9308 57.5661C87.0049 58.1775 88.2199 58.4983 89.4558 58.4968C90.4394 58.5109 91.4108 58.2782 92.2811 57.8199C92.5053 57.6981 92.7186 57.5571 92.9184 57.3984C93.3184 57.7934 93.7793 58.1216 94.2834 58.3704C95.2688 58.8481 96.3503 59.0941 97.4453 59.0896C98.5562 59.1044 99.6515 58.8276 100.622 58.287C101.686 57.6795 102.484 56.6961 102.86 55.5301C102.966 55.2053 103.05 54.8767 103.125 54.5478C103.296 54.6188 103.485 54.6938 103.702 54.7713C104.631 55.1183 105.612 55.3073 106.604 55.3306C107.539 55.3552 108.459 55.0885 109.236 54.5674C109.912 54.0769 110.426 53.3944 110.709 52.6085C111.429 52.9756 112.272 53.4078 113.116 53.8511C114.335 54.4909 115.548 55.152 116.272 55.6035C116.33 55.6305 116.39 55.6529 116.451 55.6705C117.126 56.9864 117.869 58.2664 118.676 59.5053C122.977 65.9557 128.598 71.42 135.167 75.5374C135.491 75.7411 135.82 75.9381 136.149 76.1347C139.118 81.4678 140.966 87.3516 141.579 93.4248C141.61 93.7442 141.632 94.0604 141.653 94.3764C140.711 94.5868 139.849 95.0623 139.168 95.7469C138.303 96.6738 137.685 97.8032 137.371 99.0314C137.361 99.0699 137.352 99.1053 137.342 99.143C136.878 98.7801 136.382 98.4609 135.86 98.1895C134.964 97.7112 133.968 97.4528 132.954 97.4355C132.295 97.4334 131.642 97.5632 131.034 97.8171C130.426 98.0711 129.875 98.4441 129.414 98.9142C128.923 99.4047 128.536 99.9884 128.274 100.631C128.013 101.274 127.883 101.962 127.892 102.656C127.892 102.703 127.899 102.749 127.901 102.796C126.641 103.078 125.496 103.736 124.619 104.683C123.586 105.809 123.017 107.285 123.026 108.813C123.046 110.039 123.352 111.244 123.92 112.332C123.961 112.412 124.009 112.485 124.052 112.564C123.527 112.962 123.096 113.469 122.787 114.05C122.43 114.744 122.247 115.514 122.254 116.294C122.338 117.499 122.68 118.673 123.256 119.735C123.833 120.798 124.63 121.724 125.595 122.451C126.371 123.101 127.211 123.669 128.102 124.148C119.269 131.852 106.512 137.697 91.1429 140.738H91.1429ZM134.11 65.7166C135.327 66.7039 136.658 67.5436 138.073 68.2184C137.982 68.2791 137.893 68.3397 137.797 68.4003C136.554 69.2548 135.102 69.753 133.597 69.841C132.606 69.848 131.643 69.5155 130.868 68.8988C130.359 68.5241 129.953 68.0267 129.688 67.4529C129.46 66.9264 129.347 66.3573 129.357 65.7837C129.425 64.4127 129.794 63.0734 130.436 61.8603L130.449 61.8364C131.476 63.2996 132.709 64.6066 134.11 65.7166H134.11ZM137.818 164.433C136.741 164.841 135.614 165.099 134.468 165.2C134.374 165.203 134.28 165.204 134.187 165.204C132.286 165.202 130.417 164.722 128.751 163.808C128.174 163.495 127.621 163.139 127.098 162.743C127.208 162.621 127.327 162.495 127.455 162.365C129.693 160.114 132.447 158.444 135.477 157.501C135.643 157.456 135.798 157.378 135.933 157.273C136.068 157.167 136.181 157.036 136.266 156.887C136.35 156.738 136.404 156.573 136.425 156.403C136.445 156.232 136.432 156.06 136.385 155.895C136.339 155.729 136.26 155.575 136.153 155.441C136.047 155.306 135.915 155.194 135.765 155.111C135.615 155.027 135.45 154.975 135.279 154.956C135.109 154.936 134.936 154.951 134.772 154.999L134.772 154.999C132.303 155.736 129.99 156.921 127.949 158.495C127.119 159.12 126.334 159.804 125.602 160.541C125.448 160.698 125.305 160.851 125.169 161C123.676 159.411 122.505 157.549 121.718 155.516C122.655 154.241 123.851 153.178 125.228 152.398C126.868 151.394 128.707 150.762 130.617 150.545C130.959 150.512 131.274 150.345 131.494 150.08C131.713 149.816 131.818 149.475 131.787 149.133C131.756 148.791 131.591 148.475 131.328 148.254C131.064 148.033 130.724 147.926 130.382 147.955H130.382C126.804 148.378 123.465 149.969 120.883 152.481C120.802 151.968 120.76 151.449 120.758 150.929C120.737 150.104 120.885 149.284 121.192 148.518C121.739 147.352 122.618 146.373 123.719 145.705C125.482 144.645 127.426 143.922 129.453 143.573C130.349 143.398 131.135 143.297 131.691 143.241C131.968 143.213 132.188 143.196 132.336 143.186L132.502 143.176L132.548 143.174C132.876 143.161 133.187 143.026 133.419 142.794C138.468 137.562 144.251 133.093 150.588 129.527C155.796 126.738 160.395 125.51 164.083 125.513C165.907 125.476 167.717 125.837 169.387 126.57C170.465 127.062 171.433 127.764 172.236 128.635C171.575 129.136 171.03 129.774 170.638 130.505C170.041 131.695 169.718 133.003 169.691 134.334C169.589 134.286 169.494 134.227 169.39 134.182C168.455 133.762 167.444 133.539 166.419 133.526C165.56 133.522 164.71 133.707 163.93 134.069C163.151 134.43 162.46 134.959 161.908 135.617C160.862 136.865 160.29 138.442 160.293 140.07C160.296 140.698 160.387 141.322 160.565 141.924C159.928 142.021 159.304 142.187 158.703 142.418C157.075 143.032 155.738 144.237 154.962 145.794C154.491 146.741 154.249 147.785 154.256 148.842C154.362 150.986 155.051 153.06 156.249 154.841C155.447 155.419 154.105 156.283 152.486 157.244C149.678 158.913 146.003 160.909 142.588 162.483C141.032 163.214 139.44 163.865 137.818 164.433L137.818 164.433ZM186.095 145.525C186.131 149.679 184.535 153.681 181.65 156.67C179.445 159.017 176.647 160.726 173.552 161.616C173.387 161.658 173.231 161.732 173.095 161.835C172.958 161.937 172.843 162.065 172.756 162.212C172.669 162.359 172.612 162.522 172.588 162.691C172.563 162.86 172.573 163.032 172.615 163.197C172.657 163.363 172.732 163.518 172.834 163.655C172.937 163.791 173.065 163.906 173.212 163.993C173.359 164.08 173.521 164.138 173.69 164.162C173.859 164.186 174.031 164.177 174.197 164.135C177.043 163.336 179.678 161.917 181.912 159.98C180.621 162.588 178.811 164.905 176.594 166.789C172.792 169.955 167.792 171.717 161.554 171.722C158.308 171.691 155.078 171.277 151.93 170.486C151.795 170.459 151.656 170.454 151.519 170.471C151.241 167.354 150.879 164.294 150.406 161.53C150.4 161.498 150.38 161.474 150.372 161.443C151.878 160.616 153.292 159.799 154.516 159.058C155.851 158.248 156.934 157.546 157.721 156.981C159.093 158.747 160.598 160.404 162.225 161.939C162.348 162.057 162.494 162.149 162.653 162.211C162.812 162.273 162.981 162.303 163.152 162.3C163.323 162.296 163.491 162.259 163.647 162.19C163.804 162.122 163.945 162.023 164.063 161.9C164.181 161.776 164.274 161.631 164.336 161.472C164.398 161.313 164.428 161.143 164.424 160.972C164.421 160.802 164.383 160.633 164.315 160.477C164.246 160.321 164.147 160.18 164.024 160.061H164.024C161.992 158.188 160.188 156.082 158.648 153.786C157.604 152.336 156.984 150.624 156.856 148.842C156.849 148.188 156.996 147.542 157.287 146.957C157.774 145.974 158.621 145.216 159.651 144.839C160.342 144.578 161.072 144.434 161.81 144.412C162.904 146.152 164.323 148.103 165.573 149.754C167.103 151.773 168.361 153.314 168.367 153.322C168.586 153.589 168.901 153.759 169.244 153.793C169.587 153.828 169.93 153.725 170.197 153.507C170.464 153.289 170.633 152.974 170.668 152.631C170.703 152.288 170.6 151.945 170.382 151.678H170.382C170.381 151.678 170.307 151.586 170.168 151.414C169.681 150.81 168.428 149.24 167.072 147.422C165.939 145.904 164.751 144.22 163.874 142.799C163.812 142.573 163.688 142.368 163.516 142.208C163.474 142.136 163.42 142.053 163.38 141.984C163.055 141.399 162.887 140.74 162.893 140.07C162.891 139.061 163.242 138.082 163.886 137.304C164.194 136.931 164.581 136.631 165.019 136.427C165.457 136.224 165.936 136.121 166.419 136.126C167.089 136.139 167.75 136.29 168.359 136.569C169.583 137.131 170.69 137.921 171.621 138.895C172.982 140.315 174.147 141.911 175.084 143.64C175.485 144.361 175.791 144.987 175.994 145.427C176.096 145.648 176.172 145.822 176.222 145.938L176.277 146.069L176.289 146.099L176.291 146.105C176.354 146.263 176.448 146.408 176.567 146.53C176.686 146.653 176.827 146.751 176.984 146.819C177.141 146.886 177.309 146.922 177.48 146.925C177.651 146.927 177.82 146.896 177.979 146.833C178.138 146.77 178.282 146.677 178.405 146.558C178.527 146.439 178.625 146.297 178.693 146.14C178.761 145.984 178.797 145.815 178.799 145.644C178.802 145.474 178.771 145.304 178.708 145.146C178.054 143.59 177.261 142.097 176.34 140.684C175.508 139.381 174.544 138.167 173.464 137.062C173.094 136.69 172.696 136.338 172.284 135.998C172.284 135.966 172.298 135.938 172.296 135.905H172.296C172.272 135.576 172.26 135.263 172.26 134.966C172.154 133.589 172.544 132.219 173.359 131.104C173.653 130.76 174.023 130.489 174.44 130.314C174.897 130.129 175.387 130.038 175.88 130.045L176.072 130.049C176.932 130.152 177.76 130.439 178.5 130.891C180.464 132.032 182.12 133.634 183.325 135.559C185.037 138.302 185.987 141.452 186.076 144.685C186.089 144.969 186.095 145.249 186.095 145.525L186.095 145.525ZM176.004 114.101C178.141 116.557 179.88 119.334 181.157 122.33C182.045 124.709 182.499 127.229 182.497 129.769C182.497 130.049 182.48 130.31 182.47 130.578C181.643 129.826 180.734 129.168 179.761 128.617C178.669 127.963 177.444 127.565 176.176 127.451C176.078 127.447 175.979 127.445 175.88 127.445C175.483 127.445 175.087 127.48 174.697 127.55C173.576 126.117 172.13 124.972 170.477 124.21C168.465 123.319 166.283 122.876 164.083 122.913C159.823 122.916 154.848 124.301 149.361 127.234C147.737 128.103 146.063 129.126 144.355 130.275C143.917 128.608 143.518 127.168 143.171 125.972C148.091 124.82 152.741 122.726 156.865 119.807C162.368 115.951 167.099 110.632 169.242 104.287C169.48 104.844 169.745 105.389 170.036 105.921C171.79 108.812 173.787 111.548 176.004 114.101ZM162.409 82.4981C163.857 83.9009 165.064 85.534 165.98 87.3311C167.338 90.0168 168.033 92.9887 168.007 95.9981C167.997 97.8913 167.766 99.7769 167.318 101.616C165.804 108.037 161.101 113.674 155.374 117.677C149.665 121.686 142.95 124.017 137.781 124.004C137.016 124.007 136.252 123.952 135.496 123.84C132.499 123.495 129.657 122.33 127.281 120.472C126.607 119.985 126.042 119.361 125.624 118.641C125.206 117.921 124.943 117.121 124.854 116.294C124.847 115.934 124.928 115.577 125.09 115.256C125.221 115.022 125.399 114.817 125.612 114.655C126.49 115.528 127.494 116.264 128.59 116.837C130.299 117.727 132.141 118.333 134.044 118.634C134.212 118.661 134.385 118.654 134.551 118.614C134.717 118.574 134.873 118.502 135.011 118.402C135.149 118.301 135.266 118.175 135.355 118.029C135.444 117.883 135.504 117.722 135.531 117.553C135.557 117.384 135.551 117.212 135.511 117.046C135.471 116.88 135.398 116.724 135.298 116.586C135.198 116.448 135.071 116.331 134.925 116.241C134.78 116.152 134.618 116.093 134.449 116.066C132.832 115.81 131.265 115.295 129.811 114.541C128.302 113.813 127.056 112.635 126.246 111.169C125.858 110.443 125.646 109.636 125.626 108.813C125.616 107.934 125.941 107.085 126.537 106.439C127.052 105.885 127.722 105.498 128.459 105.328C128.926 106.438 129.587 107.454 130.412 108.331C132.107 110.13 134.299 111.384 136.708 111.934C137.044 112.011 137.397 111.951 137.69 111.768C137.982 111.585 138.189 111.294 138.267 110.958C138.344 110.622 138.284 110.269 138.101 109.976C137.918 109.684 137.627 109.477 137.291 109.4H137.291C135.387 108.966 133.656 107.977 132.315 106.559C131.251 105.524 130.603 104.136 130.492 102.656C130.481 102.303 130.544 101.953 130.674 101.625C130.805 101.298 131.002 101.001 131.252 100.753C131.471 100.523 131.736 100.341 132.028 100.217C132.321 100.094 132.636 100.032 132.954 100.035C133.557 100.053 134.147 100.214 134.676 100.505C135.474 100.935 136.198 101.493 136.817 102.156C138.178 103.656 139.885 104.802 141.788 105.495C141.951 105.548 142.123 105.569 142.293 105.556C142.464 105.543 142.631 105.496 142.783 105.419C142.936 105.341 143.072 105.234 143.183 105.104C143.294 104.973 143.379 104.822 143.431 104.659C143.484 104.496 143.504 104.324 143.49 104.154C143.476 103.983 143.428 103.817 143.35 103.664C143.271 103.512 143.163 103.377 143.033 103.266C142.902 103.156 142.75 103.072 142.587 103.021C141.474 102.614 140.452 101.991 139.58 101.187C139.601 101.129 139.618 101.069 139.629 101.009H139.63L139.63 101.008L139.63 101.007H139.63C139.707 100.271 139.893 99.5502 140.18 98.8678C140.381 98.3751 140.676 97.9259 141.047 97.5445C141.408 97.183 141.875 96.9453 142.38 96.8658C142.575 96.8326 142.773 96.8156 142.971 96.815C143.377 96.8088 143.78 96.8987 144.145 97.0774C144.864 97.4857 145.408 98.1429 145.675 98.925C146.261 100.544 146.526 102.262 146.456 103.982C146.394 107.013 146.038 110.031 145.391 112.994C145.358 113.161 145.357 113.333 145.39 113.501C145.423 113.669 145.489 113.828 145.584 113.97C145.678 114.112 145.8 114.234 145.942 114.329C146.083 114.425 146.242 114.491 146.41 114.525C146.577 114.558 146.749 114.559 146.917 114.526C147.085 114.493 147.244 114.427 147.386 114.332C147.528 114.238 147.65 114.116 147.745 113.974C147.841 113.833 147.907 113.674 147.941 113.506C148.621 110.375 148.995 107.185 149.056 103.982C149.066 102.696 148.954 101.412 148.721 100.147C148.953 99.8197 149.263 99.3906 149.607 98.8808C150.382 97.7571 151.049 96.5625 151.599 95.3131C152.268 93.8191 152.628 92.2053 152.657 90.5687C152.658 90.0553 152.616 89.5427 152.532 89.0362C152.473 88.6978 152.283 88.3962 152.003 88.1974C151.723 87.9986 151.376 87.9187 151.037 87.9752C150.698 88.0316 150.396 88.2199 150.195 88.4988C149.995 88.7777 149.913 89.1245 149.967 89.4637H149.967C150.028 89.8289 150.058 90.1985 150.057 90.5687C149.989 92.2799 149.51 93.9496 148.66 95.4361C148.339 96.0427 147.996 96.5922 147.665 97.0971C147.558 96.9072 147.448 96.7214 147.33 96.5485C146.82 95.7888 146.125 95.1711 145.311 94.7532C144.976 94.5875 144.624 94.4601 144.261 94.3735C144.235 93.9745 144.206 93.5751 144.167 93.1752L144.167 93.1745C143.652 88.018 142.283 82.9831 140.117 78.2757C145.473 80.9583 151.365 82.4004 157.355 82.4949C158.961 82.4939 160.565 82.3711 162.152 82.1277C162.215 82.2653 162.302 82.3907 162.409 82.4981ZM178.224 70.2996C175.464 73.6686 171.898 76.2863 167.857 77.9102C164.515 79.2358 160.951 79.9095 157.355 79.8949C149.603 79.9024 141.746 76.9096 134.978 72.3091C136.504 72.0093 137.957 71.4133 139.254 70.5549C140.105 70.0156 140.901 69.3951 141.632 68.7021C141.798 68.5377 141.917 68.3316 141.975 68.1054C142.034 67.8793 142.031 67.6414 141.966 67.417C141.901 67.1925 141.777 66.9897 141.606 66.8299C141.436 66.6701 141.225 66.5592 140.997 66.5089C139.336 66.0449 137.78 65.2645 136.415 64.2105L137.533 62.8602C139.478 63.6002 142.134 63.1398 142.869 61.4395C143.799 59.2882 138.05 54.1207 135.949 56.0899C135.155 56.8341 134.62 59.3547 135.563 61.1625L134.429 62.5322C133.273 61.4594 132.341 60.1691 131.685 58.7351C131.597 58.5218 131.454 58.3357 131.271 58.1959C131.087 58.0561 130.87 57.9677 130.641 57.9396C130.412 57.9116 130.18 57.945 129.968 58.0364C129.756 58.1278 129.572 58.2739 129.436 58.4597C128.932 59.1732 128.486 59.9263 128.104 60.7116C127.348 62.1742 126.896 63.7744 126.774 65.4161C124.569 63.1679 122.587 60.7123 120.853 58.0836C118.492 54.6198 116.831 50.728 115.963 46.6271C115.687 45.136 115.548 43.6227 115.548 42.1063C115.608 36.7691 117.226 31.5656 120.204 27.1361C123.11 22.7668 126.97 19.1136 131.491 16.451C131.874 17.2777 132.486 17.9777 133.253 18.4689C134.021 18.96 134.912 19.2218 135.823 19.2235C135.96 19.2236 136.097 19.2177 136.235 19.206C136.687 19.1674 137.151 19.1487 137.621 19.1487H137.624L137.658 19.1486C140.284 19.2116 142.886 19.6565 145.384 20.4693L145.386 20.47C146.468 20.8077 147.366 21.1472 147.972 21.3938L147.973 21.3942C148.276 21.517 148.507 21.6169 148.649 21.6803L148.805 21.7506L148.824 21.7597L148.929 21.8042L148.933 21.8057L148.945 21.8087C149.558 22.0842 150.222 22.227 150.894 22.2279C151.566 22.2287 152.23 22.0874 152.844 21.8134L152.844 21.8132C153.478 21.5312 154.044 21.1147 154.502 20.5927C154.959 20.0708 155.298 19.4556 155.495 18.7899V18.7899C155.784 17.8049 155.929 16.7834 155.927 15.7568L155.927 15.7542L155.927 15.7515C155.927 15.565 155.921 15.3745 155.911 15.1827H155.911V15.1793L155.909 15.1044C155.837 13.9708 155.61 12.8524 155.236 11.7799C160.497 12.6374 165.515 14.6072 169.954 17.558C176.246 21.6861 181.006 27.7687 183.501 34.8687C182.701 34.7158 181.889 34.6355 181.075 34.6288H181.067C180.679 34.6288 180.287 34.6473 179.891 34.687C178.653 34.8054 177.444 35.1369 176.318 35.6668C175.691 35.9646 175.136 36.3949 174.691 36.928C174.246 37.4611 173.923 38.0844 173.742 38.7548C173.562 39.4251 173.529 40.1267 173.646 40.811C173.763 41.4952 174.028 42.1459 174.421 42.7182L174.421 42.7177L174.425 42.7258L174.425 42.7263C175.243 43.9913 175.968 45.3139 176.595 46.6836L176.597 46.6875C177.827 49.2219 178.605 51.9519 178.895 54.7543L178.896 54.7581C178.97 55.8181 179.394 56.8234 180.101 57.6162C180.809 58.409 181.76 58.9445 182.804 59.1384C183.217 59.2154 183.639 59.2685 184.065 59.3051C182.854 63.3163 180.87 67.0514 178.224 70.2996ZM191.335 54.1766L191.33 54.1816C189.934 55.6351 188.059 56.5331 186.052 56.7092L186.048 56.7095C185.741 56.7404 185.432 56.7559 185.123 56.7557C184.505 56.7547 183.888 56.6967 183.281 56.5824C182.801 56.4942 182.365 56.2491 182.041 55.8856C181.717 55.5222 181.522 55.0611 181.489 54.5751L181.489 54.5789C181.18 51.4564 180.321 48.4131 178.953 45.5894C178.377 44.3424 177.804 43.2941 177.365 42.5396C177.144 42.162 176.957 41.8581 176.819 41.6396C176.684 41.4259 176.608 41.3114 176.566 41.2503L176.564 41.2458C176.384 40.9835 176.263 40.6854 176.209 40.3719C176.156 40.0583 176.171 39.737 176.254 39.4298C176.336 39.1227 176.485 38.8372 176.688 38.593C176.892 38.3488 177.146 38.1516 177.434 38.0152L177.434 38.0149C178.29 37.6135 179.209 37.3629 180.149 37.2742C180.455 37.2435 180.76 37.2291 181.064 37.229C183.596 37.2962 186.049 38.1281 188.1 39.6153C190.263 41.0781 191.926 43.1669 192.868 45.6018L192.868 45.6022C193.242 46.6146 193.436 47.6842 193.443 48.7632L193.443 48.7724L193.443 48.7995C193.449 50.7948 192.696 52.7176 191.335 54.1766L191.335 54.1766Z"/><path id="Vector_9" d="M193.228 55.96L193.225 55.963L193.223 55.965L193.228 55.96Z"/><path id="Vector_10" d="M178.953 45.5889L178.954 45.5929L178.953 45.5889Z"/><path id="Vector_11" d="M137.632 30.8482C135.723 29.9292 133.631 29.4531 131.513 29.4555C129.484 29.4397 127.479 29.9026 125.662 30.8065C123.843 31.7082 122.345 33.1473 121.372 34.9288C120.558 36.5886 120.159 38.4206 120.207 40.2684C120.205 43.395 121.085 46.4586 122.747 49.1069C123.622 50.4804 124.765 51.6627 126.108 52.5825C127.563 53.5597 129.234 54.1688 130.976 54.3576C131.371 54.4028 131.767 54.4255 132.165 54.4256C133.894 54.4227 135.594 53.9845 137.11 53.1516C139.301 51.9107 141.097 50.0769 142.293 47.8609C143.512 45.7027 144.168 43.2719 144.199 40.7933C144.238 38.7879 143.679 36.8162 142.593 35.1298C141.349 33.287 139.637 31.809 137.632 30.8482ZM138.872 48.3061C138.05 49.3496 137.03 50.2198 135.869 50.8666C134.735 51.4931 133.461 51.823 132.165 51.8256C131.866 51.8254 131.567 51.8084 131.271 51.7744C129.943 51.6333 128.669 51.1703 127.56 50.4257C125.974 49.303 124.739 47.7537 123.998 45.9576C123.22 44.1616 122.814 42.2259 122.807 40.2684C122.762 38.8499 123.055 37.441 123.663 36.1583L122.517 35.5435L123.663 36.1581C124.386 34.8431 125.497 33.783 126.844 33.1223C128.295 32.4056 129.895 32.0401 131.513 32.0554C133.238 32.0533 134.941 32.4401 136.496 33.187C138.087 33.9465 139.446 35.117 140.433 36.5775C141.232 37.836 141.637 39.3035 141.599 40.7932C141.543 43.5297 140.585 46.1712 138.872 48.3061Z"/><path id="Vector_12" d="M163.128 51.4722C161.788 50.8217 160.315 50.4916 158.825 50.5079C155.456 50.599 152.224 51.8647 149.689 54.086C148.391 55.1855 147.312 56.5201 146.509 58.0199C145.691 59.548 145.258 61.2529 145.248 62.9863C145.249 63.8219 145.351 64.6542 145.553 65.465C145.91 66.9199 146.56 68.2867 147.464 69.4814C148.368 70.6762 149.506 71.6738 150.809 72.4131C153.241 73.786 155.992 74.4945 158.785 74.4674C161.352 74.5543 163.886 73.8655 166.056 72.4909C167.461 71.4745 168.569 70.1018 169.267 68.5142C169.958 66.9379 170.308 65.2335 170.295 63.5125C170.291 61.1023 169.67 58.7334 168.492 56.6306C167.264 54.4106 165.394 52.6128 163.128 51.4722ZM166.895 67.4494C166.386 68.6176 165.574 69.6284 164.542 70.377C162.811 71.4284 160.809 71.9468 158.785 71.8675C156.456 71.8931 154.161 71.3087 152.128 70.1723C151.122 69.6098 150.244 68.8459 149.547 67.9286C148.85 67.0112 148.35 65.96 148.077 64.8406C147.926 64.2341 147.849 63.6114 147.848 62.9863C147.858 61.674 148.188 60.384 148.811 59.2287C149.816 57.402 151.296 55.88 153.093 54.8229C154.816 53.749 156.796 53.1567 158.825 53.1079C159.913 53.0918 160.99 53.3287 161.97 53.8001C163.77 54.7085 165.254 56.1395 166.226 57.9057C167.185 59.6194 167.69 61.5491 167.695 63.5125C167.708 64.8664 167.436 66.2079 166.895 67.4494Z"/><path id="Vector_13" d="M125.905 43.9997C125.019 44.9484 125.882 47.0617 127.428 48.6291L127.407 48.5099C127.38 48.1474 127.457 47.7846 127.63 47.4645C127.802 47.1445 128.063 46.8807 128.381 46.7045C128.699 46.5283 129.061 46.4471 129.424 46.4705C129.787 46.4939 130.135 46.6209 130.428 46.8365C130.721 47.0521 130.945 47.3472 131.075 47.6867C131.205 48.0262 131.235 48.396 131.161 48.752C131.088 49.108 130.913 49.4353 130.659 49.695C130.404 49.9548 130.081 50.1361 129.726 50.2174C130.174 50.4161 130.659 50.5206 131.149 50.5247C131.639 50.5287 132.125 50.4321 132.576 50.2409C136.264 48.5744 128.863 40.8312 125.905 43.9997Z"/><path id="Vector_14" d="M148.986 62.9375C148.833 63.5416 148.828 64.1737 148.971 64.7802C149.114 65.3867 149.402 65.9497 149.809 66.4214C149.796 66.0493 149.893 65.6815 150.087 65.364C150.282 65.0464 150.565 64.7931 150.903 64.6355C151.24 64.4779 151.616 64.4231 151.985 64.4778C152.353 64.5326 152.697 64.6945 152.974 64.9434C153.251 65.1923 153.449 65.5171 153.542 65.8775C153.636 66.2379 153.621 66.6179 153.501 66.9701C153.38 67.3224 153.158 67.6313 152.863 67.8584C152.568 68.0856 152.213 68.2209 151.841 68.2476C153.47 69.2739 155.297 69.6401 156.033 68.7505C158.795 65.4102 150.164 59.0654 148.986 62.9375Z"/></g></g></svg>