<svg xmlns="http://www.w3.org/2000/svg" width="200" height="200" fill="none"><g fill="#BEBEC9" clip-path="url(#a)"><path d="M64.88 178.44h-.07c-.72-.04-1.27-.65-1.23-1.36.55-10.93 1.24-19.21 1.91-27.22.48-5.71.92-11.11 1.3-17.15.04-.72.67-1.26 1.38-1.22a1.3 1.3 0 0 1 1.22 1.38c-.38 6.07-.83 11.48-1.3 17.2-.67 7.99-1.35 16.25-1.9 27.13-.04.69-.61 1.23-1.3 1.23l-.01.01ZM164.36 178.44c-.68 0-1.25-.53-1.3-1.22-1.84-28.57-8.79-67.97-8.86-68.36 0-.04-.01-.09-.02-.13-2.69-36.89-10.85-69.27-12.88-76.91-1.26.96-3.29 2.6-5.15 4.1-3.24 2.62-6.92 5.59-9.94 7.76-.58.42-1.4.29-1.81-.3-.42-.58-.29-1.4.3-1.81 2.96-2.13 6.6-5.07 9.82-7.67 5.07-4.1 6.45-5.16 7.21-5.38.33-.09.69-.05.99.11.3.16.52.45.62.78.1.36 10.34 36.78 13.42 79.06.33 1.86 7.07 40.42 8.89 68.59.05.72-.5 1.33-1.21 1.38h-.08ZM80.42 49.17a1.294 1.294 0 0 1-1.27-1.58c2.7-12.06 4.84-20.36 4.87-20.44.13-.51.55-.89 1.07-.96.52-.07 1.03.17 1.3.61l7.05 11.68a1.3 1.3 0 0 1-.44 1.78c-.62.37-1.41.17-1.78-.44l-5.44-9.01c-.86 3.45-2.35 9.62-4.09 17.34-.14.6-.67 1.02-1.27 1.02ZM69.16 116.66h-.1c-.72-.05-1.25-.68-1.2-1.4 1.11-14.58 4.03-33.3 8.69-55.64.15-.7.84-1.16 1.54-1.01.7.15 1.15.83 1.01 1.54-4.63 22.22-7.54 40.83-8.64 55.3-.05.68-.62 1.2-1.29 1.2l-.01.01ZM93.18 86.31c-.09 0-.17 0-.26-.03-2.1-.43-3.64-2.33-4.5-3.69-.74.43-1.8.87-3.22 1.09a1.299 1.299 0 1 1-.39-2.57c2.13-.33 3.01-1.27 3.05-1.31.29-.32.74-.49 1.17-.42.43.07.81.34.99.73.39.83 1.85 3.29 3.43 3.62.7.14 1.16.83 1.01 1.53a1.3 1.3 0 0 1-1.27 1.04l-.01.01Z"/><path d="M164.491 99.76c-10.31 0-25.39-.8-35.6-4.88-.67-.27-.99-1.02-.73-1.69.27-.67 1.02-.99 1.69-.73 15.95 6.37 45.52 4.38 45.82 4.36.71-.04 1.34.49 1.39 1.21a1.3 1.3 0 0 1-1.21 1.39c-.47.03-5.01.34-11.36.34ZM141.25 88.98c-6.87 0-13.52-.67-17.99-2.19a1.3 1.3 0 1 1 .84-2.46c10.88 3.71 35.37 1.74 41.88-1.54.64-.32 1.42-.06 1.75.58.32.64.06 1.42-.58 1.75-4.68 2.36-15.55 3.87-25.91 3.87l.01-.01ZM133.17 80.71c-1.84 0-3.48-.08-4.85-.25-.71-.09-1.22-.74-1.13-1.45.09-.71.73-1.22 1.45-1.13 8.58 1.06 28.23-1.34 37.8-6.83.62-.36 1.42-.14 1.77.48.35.62.14 1.42-.48 1.77-8.47 4.86-24.44 7.41-34.56 7.41ZM162.639 154.08a1.305 1.305 0 0 1-.41-2.54c9.41-3.15 15.21-11.89 17.15-16.57 1.84-4.43 2.93-9.93 1.46-11.89-.28-.38-.83-.86-2.27-.7-2.48.28-4.3 3.65-6.41 7.56-2.5 4.63-5.33 9.89-10.53 12.88-.62.36-1.42.15-1.78-.48-.36-.62-.15-1.42.48-1.78 4.56-2.63 7.2-7.54 9.54-11.87 2.46-4.55 4.58-8.49 8.41-8.92 2.55-.28 3.93.78 4.64 1.72 2.98 3.97-.43 12.73-1.14 14.45-2.62 6.31-9.09 14.82-18.72 18.04-.14.05-.28.07-.41.07l-.01.03ZM72.59 85.23h-.07c-9.45-.51-18.86-2.39-27.97-5.56-.68-.24-1.04-.98-.8-1.66.24-.68.98-1.04 1.66-.8 8.88 3.1 18.05 4.92 27.25 5.42A1.3 1.3 0 0 1 73.89 84c-.04.69-.61 1.23-1.3 1.23ZM73.35 78.58c-.1 0-.21-.01-.32-.04-9.5-2.39-19-5.49-28.23-9.19-.67-.27-.99-1.02-.72-1.69.27-.67 1.02-.99 1.69-.72 9.12 3.66 18.51 6.72 27.9 9.08a1.3 1.3 0 0 1-.32 2.56ZM74.76 73.24c-.19 0-.39-.04-.58-.14-7.41-3.68-14.68-8.04-21.61-12.95-.59-.42-.73-1.23-.31-1.81a1.3 1.3 0 0 1 1.81-.31c6.83 4.83 13.98 9.12 21.27 12.74a1.298 1.298 0 0 1-.59 2.46l.01.01ZM75.09 134.03c-6.1 0-11.4-.94-14.72-2.97-2.65-1.69-4.02-6.09-3.07-9.82 1.04-4.09 4.5-6.64 9.5-6.99 10.69-.62 35.639-6.63 42.729-14.2.49-.52 1.31-.55 1.84-.06.52.49.55 1.31.06 1.84-8.14 8.68-34.85 14.46-44.46 15.01-4.93.34-6.61 2.93-7.14 5.03-.74 2.91.42 6.02 1.93 6.98 8.57 5.24 34.12 1.92 47.11-6.14a1.3 1.3 0 1 1 1.37 2.21c-9.26 5.75-23.62 9.11-35.13 9.11h-.02Z"/><path d="M65.09 127.89c-2.83 0-6.1-1.17-6.24-1.23-.67-.25-1.02-.99-.78-1.66.24-.67.99-1.02 1.67-.78.03.01 3.2 1.15 5.59 1.07.7-.03 1.32.54 1.34 1.26.02.72-.54 1.32-1.26 1.34h-.32ZM65.78 122.05c-.05 0-.11 0-.16-.01-2.45-.31-6.12-.32-6.16-.32-.72 0-1.3-.59-1.3-1.3 0-.72.58-1.3 1.3-1.3.16 0 3.86.02 6.47.34.71.09 1.22.74 1.13 1.45-.08.66-.64 1.14-1.29 1.14h.01Z"/><path d="M53.48 141.82c-.21 0-.43-.05-.62-.16l-36.43-19.94a1.31 1.31 0 0 1-.42-1.93L32.68 97.6c.39-.51 1.09-.67 1.66-.36l32.05 17.28c.63.34.87 1.13.53 1.76-.34.63-1.13.87-1.76.53L34.1 100.06 19 120.16l34.02 18.62 6.14-10.15a1.31 1.31 0 0 1 1.79-.44c.61.37.81 1.17.44 1.79l-6.78 11.22c-.24.4-.67.63-1.11.63l-.02-.01Z"/><path d="M39.55 119.7a1.3 1.3 0 0 1-1.23-.88l-6.48-19.14a1.3 1.3 0 0 1 .81-1.65c.68-.23 1.42.14 1.65.81l6.16 18.19 21.66-1.5c.7-.05 1.34.49 1.39 1.21a1.3 1.3 0 0 1-1.21 1.39l-22.66 1.57h-.09ZM121.6 172.02c-.89 0-1.93-1.6-9.53-13.29-4.35-6.7-10.35-16.02-17.83-27.71-.39-.6-.21-1.41.39-1.8.6-.39 1.41-.21 1.8.39 15.67 24.49 22.08 34.29 24.62 38.02 1.55-2.41 6.13-5.16 18.15-8.57 8.61-2.44 14.29-3.9 16.97-4.34l-.7-38.68c-.01-.72.56-1.31 1.28-1.32.74 0 1.31.56 1.32 1.28l.72 39.84c0 .41-.18.79-.49 1.04-.26.2-.58.3-.89.28-.34.02-2.97.29-17.5 4.41-7.9 2.24-17.26 5.57-16.96 8.68.01.15.03.29.03.41 0 .58-.39 1.1-.94 1.26-.16.05-.3.09-.44.09v.01ZM83.7 113.4c-.43 0-.85-.21-1.1-.6-1.01-1.59-1.98-3.08-2.88-4.48-5.48-8.47-8.78-13.59-8.78-18.31 0-.72.58-1.3 1.3-1.3.72 0 1.3.58 1.3 1.3 0 3.95 3.33 9.1 8.36 16.89.91 1.4 1.87 2.9 2.89 4.49.39.61.21 1.41-.4 1.79-.22.14-.46.2-.7.2l.01.02Z"/><path d="M110.461 140.53h-.06c-.4-.02-.75-.25-.98-.57l-8.19-11.55c-.42-.59-.28-1.4.31-1.81.59-.42 1.4-.28 1.81.31l7.43 10.48c2.34-1.4 8.54-4.04 24.69-7.32 6.77-1.37 12.97-1.36 15.6-1.27l1.76-30.71c.04-.72.64-1.27 1.37-1.22.72.04 1.26.66 1.22 1.37l-1.84 31.99c-.02.35-.18.67-.44.9-.26.23-.6.35-.95.32-.08 0-7.8-.54-16.21 1.16-21.05 4.27-24.43 7.36-24.57 7.49-.25.29-.58.43-.96.43h.01ZM90.19 111.89c-.38 0-.75-.16-1.01-.48-1.76-2.17-17.24-21.37-17.24-27.48 0-.72.58-1.3 1.3-1.3.72 0 1.3.58 1.3 1.3 0 3.91 10.22 17.93 16.66 25.84a1.301 1.301 0 0 1-1.01 2.12Z"/><path d="M120.93 154.08c-.39 0-.78-.18-1.03-.51l-10.46-13.58c-.44-.57-.33-1.39.24-1.82.57-.44 1.38-.33 1.82.24l9.85 12.8c2.77-1.1 11.09-4.29 16.49-5.21 4.93-.83 10.65-1.16 13.15-1.26v-14.59c0-.72.58-1.3 1.3-1.3.72 0 1.3.58 1.3 1.3v15.84c0 .7-.56 1.28-1.26 1.3-.08 0-7.85.23-14.05 1.28-6.14 1.04-16.76 5.37-16.86 5.42-.16.07-.33.1-.49.1v-.01Z"/><path d="M132.68 145.56c-.45 0-.89-.24-1.13-.66-.35-.62-.14-1.41.48-1.77.1-.06 2.57-1.45 6.55-1.68.71-.03 1.33.51 1.37 1.22.04.71-.51 1.33-1.22 1.37-3.33.19-5.4 1.33-5.42 1.34-.2.11-.42.17-.64.17l.01.01ZM122.07 172.42c-.88 0-1.15-.31-1.38-.58-.46-.53-.49-1.31-.08-1.91.41-.59 1.22-.74 1.81-.33.08.06.16.12.22.2 1.73-.27 8.51-2.3 34.28-15.09.64-.32 1.42-.06 1.74.59.32.64.06 1.42-.59 1.74-25.99 12.9-33.49 15.39-36 15.39v-.01ZM58.29 151.71a1.4 1.4 0 0 1-.65-.17l-19.82-11.39a1.296 1.296 0 1 1 1.29-2.25l19.82 11.39a1.296 1.296 0 0 1-.65 2.42h.01ZM86.54 72.31c-.36 0-.72-.15-.97-.44-1.85-2.08-3.43-1.08-3.88-.72-.56.45-1.37.37-1.82-.18-.45-.55-.39-1.36.16-1.81 1.31-1.1 4.55-2.32 7.49.99a1.3 1.3 0 0 1-.11 1.84c-.25.22-.56.33-.86.33l-.01-.01ZM111.051 79.17c-.4 0-.8-.18-1.05-.53-2.66-3.64-5.52-1.91-5.84-1.7-.6.39-1.4.23-1.8-.36-.4-.59-.251-1.39.339-1.79 1.77-1.22 6.031-2.3 9.401 2.32.42.58.3 1.39-.28 1.82-.23.17-.5.25-.77.25v-.01ZM84.21 62.19c-.57 0-1.12-.02-1.65-.06-3.76-.29-6.45-1.55-7.99-3.74-1.6-2.27-1.37-4.25-.89-5.51 2.36-6.22 15.99-9.58 17.54-9.94.7-.17 1.4.27 1.56.97.16.7-.27 1.4-.97 1.56-3.83.9-14.11 4.15-15.7 8.33-.38 1-.2 1.99.58 3.09 1.08 1.53 3.12 2.42 6.07 2.65 9.44.73 26.31-6.01 33.45-13.37.5-.52 1.32-.53 1.84-.03s.53 1.32.03 1.84c-7.3 7.52-23.48 14.21-33.86 14.21h-.01Z"/><path d="M105.529 50.08c-10.67 0-14.83-4.8-15.02-5.04-.24-.29-.35-.67-.29-1.05 2.1-12.69 4.04-19.96 5.78-21.65.77-.92 3.86-2.94 15.89-2.3 8.31.44 13.03 1.76 14.45 4.04.41.66.48 1.31.4 1.81l.03.2.87 14.01c0 .09 0 .18-.01.27-.04.29-1.23 7.17-16.39 9.29-2.08.29-3.97.42-5.7.42h-.01Zm-12.63-6.33c1.41 1.23 6.71 4.91 17.97 3.34 11.98-1.68 13.92-6.27 14.16-7.02l-.79-12.69c-19.78 3.89-24.58-.58-26.65-2.52-.06-.06-.12-.11-.19-.17-1.18 2.17-3.16 11.09-4.5 19.06Zm6.82-20.46c1.97 1.77 6.63 4.93 23.76 1.59-1.14-.73-4.1-1.84-11.72-2.24-6.69-.35-10.23.15-12.04.65Z"/><path d="M99 42.43c-.18 0-.36-.02-.54-.05-1.08-.21-1.96-1.05-2.42-2.3-.38-1.04-.46-2.32-.2-3.59.57-2.9 2.62-4.85 4.671-4.45 2.05.41 3.2 2.99 2.62 5.89-.25 1.27-.81 2.42-1.56 3.24-.75.82-1.66 1.26-2.57 1.26Zm.95-7.84c-.4 0-1.26.87-1.57 2.4-.16.8-.12 1.6.09 2.19.15.41.35.62.48.65.13.03.4-.09.69-.41.431-.47.761-1.19.921-1.99.32-1.6-.2-2.76-.58-2.84h-.05.02Z"/></g><defs><clipPath id="a"><path fill="#fff" d="M0 0h200v200H0z"/></clipPath></defs></svg>