<svg xmlns="http://www.w3.org/2000/svg" width="200" height="200" fill="none"><path fill="#FFE632" d="M96.339 107.675c-.38.731-.16 1.431-.37 2.101 1.7 4.12 5.51 7.42 11.809 5.83.611-.15 1.191-.34 1.731-.551-.34-4.279-4.111-9-13.17-7.38ZM111.258 114.225v-.01c-.13.08-.27.151-.41.231.14-.071.28-.151.41-.221ZM57.445 180.181c-.36-7.658-5.645-12.306-5.645-12.306l-5.046 3.883-7.33-8.413-5.646 16.934-7.568-3.344c-.961 4.855-3.404 14.042 12.134 17.258l3.843-10.786 4.807 6.257 5.166-4.423 7.689 9.06c10.692-5.717 5.646-18.218 5.646-18.218l-8.05 4.098Z"/><path fill="#FFE632" d="m33.05 170.242.173-8.491s-9.587 5.124-.173 8.491ZM43.245 136.488l-1.386-8.379s-8.486 6.796 1.386 8.379ZM59.545 164.394l.173 9.043c9.35-3.586-.173-9.043-.173-9.043ZM50.707 122.184l-1.016 8.987c9.74-2.328 1.016-8.987 1.016-8.987ZM124.074 81.597a1.3 1.3 0 0 0-2.278 1.254l.133.241a1.3 1.3 0 0 0 2.278-1.254l-.133-.241ZM123.531 72.518l.002-.001h.001-.003Z"/><path fill="#FFE632" d="M127.373 72.874c-.544-.47-1.294-.822-2.13-.818-.58-.001-1.166.165-1.71.46a3.154 3.154 0 0 0-1.304 1.3 3.53 3.53 0 0 0-.387 1.653c.002.712.173 1.398.44 2.045a7.274 7.274 0 0 0 1.811 2.573c.393.353.828.659 1.313.887a3.779 3.779 0 0 0 1.604.377c.389 0 .792-.07 1.173-.22l.007-.003c.348-.137.618-.375.797-.61.27-.36.389-.717.47-1.069.077-.352.106-.71.107-1.08a8.876 8.876 0 0 0-.926-3.829c-.315-.614-.713-1.195-1.265-1.666ZM76.63 91.659a1.3 1.3 0 0 0-2.276 1.257l.133.24a1.3 1.3 0 0 0 2.275-1.257l-.133-.24ZM76.09 82.58h.001l.002-.001-.003.001Z"/><path fill="#FFE632" d="M79.929 82.937c-.544-.47-1.294-.822-2.13-.818-.58-.001-1.166.165-1.709.46a3.142 3.142 0 0 0-1.304 1.3 3.518 3.518 0 0 0-.388 1.653c.002.712.174 1.398.44 2.045a7.279 7.279 0 0 0 1.812 2.573c.392.352.827.658 1.312.886a3.783 3.783 0 0 0 1.604.377c.389 0 .791-.07 1.174-.22l.005-.002a1.88 1.88 0 0 0 .797-.61c.271-.36.39-.717.47-1.069.078-.353.107-.71.108-1.08a8.874 8.874 0 0 0-.926-3.829c-.315-.614-.713-1.195-1.265-1.666Z"/><path fill="#BEBEC9" d="M165.511 125.969c-4.632-4.349-9.904-6.53-14.009-7.632-4.108-1.101-7.064-1.128-7.142-1.13a1.3 1.3 0 0 0-1.284 1.041h-.001s-.014.07-.051.206c-.13.476-.532 1.704-1.432 3.011a9.972 9.972 0 0 1-3.577 3.189 18.221 18.221 0 0 0-7.438-5.28c9.443-4.114 15.271-8.736 18.804-13.061 4.087-5.003 5.072-9.576 5.069-12.335 0-.348-.016-.665-.044-.957a20.062 20.062 0 0 0 6.725-6.999c1.284-2.249 1.68-3.958 1.701-4.049a1.3 1.3 0 0 0-1.344-1.586l-6.261.37c.311-.354.63-.73.954-1.15.877-1.138 1.762-2.506 2.438-4.068.674-1.561 1.139-3.323 1.14-5.22 0-1.13-.167-2.304-.545-3.49a1.3 1.3 0 0 0-1.918-.714l-9.345 5.728c-.693-11.561-3.558-21.495-9.716-28.646-3.151-3.656-7.161-6.553-12.09-8.514-4.93-1.962-10.769-2.997-17.616-2.997-.199 0-.405.007-.606.01-.115-.477-.289-1.049-.457-1.614a56.918 56.918 0 0 1-.194-.66 16.66 16.66 0 0 0 2.711-1.278c.844-.5 1.733-1.138 2.498-1.965.761-.823 1.407-1.86 1.647-3.112a4.98 4.98 0 0 0 .085-.921c-.004-1.228-.418-2.39-1.043-3.384-.632-.991-1.48-1.831-2.518-2.343-.103-.05-.211-.06-.318-.082a8.84 8.84 0 0 0 .197-1.815c0-.925-.15-1.92-.513-2.946-.622-1.762-1.876-3.16-3.416-4.095-1.543-.938-3.381-1.438-5.28-1.44a10.586 10.586 0 0 0-6.45 2.195 7.17 7.17 0 0 0-.751-.588C92.587 6.614 90.473 5.998 87.666 6c-.113 0-.224.001-.334.003-3.357.06-6.537 1.045-8.96 2.73-1.21.845-2.233 1.872-2.964 3.068-.104.17-.187.35-.278.526a10.203 10.203 0 0 0-2.307-.288 9.973 9.973 0 0 0-6.79 2.673c-1.746 1.629-2.873 3.878-2.876 6.317a7.03 7.03 0 0 0 .009.342v-.01c.04 1.01.269 1.886.625 2.624-.149.129-.507.46-.887 1.03a5.347 5.347 0 0 0-.908 2.97c-.005 1.371.543 2.96 1.899 4.59 1.193 1.439 2.8 2.221 4.329 2.655 1.536.433 3.031.532 4.153.533.255 0 .488-.006.7-.014.01.121.01.24.03.363.076.451.224.95.372 1.48.1.349.197.696.264.961-6.062 2.514-10.9 5.583-14.623 9.173-3.354 3.235-5.79 6.891-7.373 10.885-1.584 3.994-2.316 8.316-2.316 12.89.001 5.961 1.251 12.358 3.472 19.096l-11.067-1.811a1.3 1.3 0 0 0-1.506 1.385c.188 2.4 1.095 4.439 2.31 6.083 1.828 2.47 4.314 4.104 6.335 5.152.107.056.207.103.312.155l-5.936 2.023a1.302 1.302 0 0 0-.645 1.977c.054.076 1.067 1.509 3.106 3.105a20.062 20.062 0 0 0 8.96 3.953c.498 1.285 2.035 4.48 5.904 7.649 2.132 1.749 4.962 3.473 8.682 4.859-3.603 2.245-6.991 5.599-9.216 10.57a1.297 1.297 0 0 0 2.047 1.503l.002.002.081-.066c.406-.31 2.211-1.563 5.315-1.563 1.91.002 4.35.484 7.321 2.011-1.342 2.114-2.46 4.279-3.384 6.314a69.246 69.246 0 0 0-2.258 5.673c-.137.391-.263.761-.38 1.11l-7.163-.817c-.05-1.31-.276-2.552-.76-3.644-.54-1.226-1.449-2.295-2.732-2.851-.537-.233-1.157-.415-1.855-.578-2.087-.483-4.862-.774-7.064-.777-.74 0-1.412.033-2.001.115a3.276 3.276 0 0 0-1.431.584c-.06.042-.112.108-.17.156-.054-.069-.096-.148-.152-.213-.433-.504-.962-.945-1.678-1.147a62.888 62.888 0 0 0-3.903-.954c-1.583-.325-3.295-.598-4.814-.601-.806.003-1.56.07-2.277.317a4.463 4.463 0 0 0-1.719 1.103c-.71.728-1.186 1.643-1.523 2.657-.245.742-.4 1.56-.517 2.41l-7.691-.807a1.3 1.3 0 1 0-.272 2.586l7.757.813c-.001.09-.013.181-.013.27.003 1.532.183 3.029.74 4.367.28.668.66 1.296 1.168 1.834a5.202 5.202 0 0 0 1.882 1.272c1.864.732 3.85.892 5.624.895 1.75-.001 3.327-.166 4.26-.181.848-.02 1.565-.404 2.131-.892.052-.045.096-.101.146-.148.117.175.224.356.367.517.461.517 1.112.959 1.909 1.085 2.49.396 5.09.782 7.252.785.989-.002 1.89-.075 2.71-.321.662-.203 1.25-.568 1.778-1.031 1.288-1.148 2.281-2.927 2.675-5.024l6.517.744a.028.028 0 0 0-.001.005c-.725 2.212-1.226 4.654-1.228 6.943.003 1.573.234 3.087.885 4.409a5.814 5.814 0 0 0 1.328 1.769 5.462 5.462 0 0 0 2.023 1.137c1.006.311 2.167.403 3.461.407a32.85 32.85 0 0 0 2.507-.112c-.202 1.516-.388 3.382-.56 5.43-.701 8.38-1.151 19.644-1.152 19.654a1.3 1.3 0 0 0 2.598.104 583.146 583.146 0 0 1 .819-15.215c.27-3.974.604-7.843.96-10.253a86.057 86.057 0 0 0 3.801-.582c2.058-.362 3.733-.723 4.451-.883.584.207 1.816.628 3.332 1.055 2.114.59 4.726 1.198 6.98 1.204.634 0 1.245-.048 1.83-.179 1.18-.266 2.157-.851 2.922-1.536a8.849 8.849 0 0 0 1.481-1.751c.901.236 3.503.898 6.781 1.563 4.077.825 9.174 1.658 13.421 1.661 1.321-.001 2.562-.081 3.687-.281 1.125-.203 2.14-.517 3.006-1.059 1.681-1.072 3.054-2.851 4.297-5.045a36.129 36.129 0 0 0 1.909-4.01l.677 35.445a1.3 1.3 0 1 0 2.599-.05l-.078-4.088c1.996-.332 3.718-.986 5.193-1.895 2.414-1.486 4.189-3.558 5.865-5.757 1.676-2.204 3.267-4.556 5.259-6.745.921-1.008 1.845-1.634 2.747-2.022a6.673 6.673 0 0 1 2.659-.536c1.474-.003 2.875.452 3.895.923a11.107 11.107 0 0 1 1.516.844l.073.051.012.008v.001l.002.001a1.299 1.299 0 0 0 2.04-1.339c-.018-.074-.377-1.612-1.385-3.463a14.453 14.453 0 0 0-1.086-1.689l1.136-2.529a1.302 1.302 0 0 0-.923-1.806c-.069-.014-.593-.117-1.424-.117-.924 0-2.244.151-3.71.689-.088-.031-.184-.069-.268-.098l-.022-.008a18.116 18.116 0 0 0-3.387-.777l-.266-1.883a1.301 1.301 0 0 0-1.993-.91c-.074.048-1.095.717-2.312 2.087-.309.348-.63.742-.951 1.182-1.831.594-3.32 1.551-4.583 2.522-.815.63-1.547 1.249-2.239 1.796l-1.215-3.739a1.298 1.298 0 0 0-2.288-.362c-.016.023-1.332 1.834-2.752 4.239l-.316-16.527a1.267 1.267 0 0 0-.134-.535c.079-.295.161-.589.236-.885.857-3.379 1.475-6.82 1.802-9.938.04-.017.083-.016.122-.036 1.088-.57 2.503-1.077 4.233-1.078 2.008.005 4.495.668 7.515 2.957a1.304 1.304 0 0 0 1.571.001c4.374-3.303 7.805-4.189 10.314-4.193 1.842.001 3.22.484 4.142.955.46.236.804.469 1.023.635.11.083.189.149.236.19l.046.041.005.005.001-.001a1.298 1.298 0 0 0 2.122-1.391c-1.93-5.085-4.717-8.948-7.803-11.846ZM44.952 149.632c-.073 1.399-.509 2.859-1.08 3.874-.28.508-.595.9-.856 1.122-.267.23-.436.264-.485.262-1.129.024-2.612.182-4.21.181-1.604.003-3.291-.166-4.667-.713a2.6 2.6 0 0 1-.947-.638c-.388-.41-.694-.996-.899-1.757-.205-.757-.3-1.673-.3-2.658l2.805.294a1.3 1.3 0 1 0 .271-2.586l-2.888-.303c.15-1.027.382-1.906.688-2.551.196-.417.414-.736.64-.964.226-.229.452-.374.72-.469l.003-.001c.267-.098.784-.174 1.416-.171 1.201-.002 2.802.238 4.288.547a60.02 60.02 0 0 1 3.742.916l.114.064c.123.086.323.29.52.599.301.462.598 1.143.806 1.922a9.922 9.922 0 0 1 .32 3.03Zm14.178 1.315c-.062 1.332-.487 2.564-1.059 3.48a4.968 4.968 0 0 1-.913 1.105c-.308.272-.602.432-.817.496-.418.13-1.114.212-1.954.209-1.852.003-4.385-.358-6.843-.753-.087-.015-.206-.061-.385-.256-.172-.189-.363-.514-.501-.907-.037-.104-.104-.183-.163-.27.062-.135.128-.264.185-.402.478-1.179.792-2.513.868-3.874.012-.216.018-.43.018-.642a12.373 12.373 0 0 0-.602-3.785c.009-.016.024-.025.033-.042.124-.245.263-.383.388-.473a.704.704 0 0 1 .286-.129 12.26 12.26 0 0 1 1.64-.09c1.311-.001 2.947.123 4.429.335.74.106 1.444.233 2.046.374.6.138 1.104.296 1.407.429.578.256 1.035.731 1.396 1.526.353.788.557 1.871.555 3.096 0 .185-.005.376-.014.573Zm82.694 19.423a53.038 53.038 0 0 1 1.962-3.295l1.779 5.472a32.478 32.478 0 0 1-3.867 2.691l-.205.119.331-4.987Zm6.11 3.591c.388-.342.537-.885.377-1.377l-.809-2.488c1.031-.75 1.979-1.592 2.974-2.354.298-.23.6-.45.907-.66-.14.382-.273.775-.39 1.19a1.302 1.302 0 0 0 .61 1.483 1.302 1.302 0 0 0 1.584-.236v.001l.002-.003c.028-.03.588-.6 1.495-1.182.913-.588 2.162-1.174 3.554-1.306.355-.035.675-.209.896-.49.221-.281.316-.633.266-.986l-.026-.179a16.29 16.29 0 0 1 2.193.555c.207.072.393.139.559.205.047.021.092.043.141.057a7.73 7.73 0 0 1 2.469 1.762c.634.662 1.135 1.401 1.539 2.112-1.069-.373-2.338-.671-3.749-.673a9.276 9.276 0 0 0-3.683.746c-1.256.537-2.499 1.403-3.645 2.661-2.862 3.156-4.835 6.43-7.024 8.925-1.093 1.251-2.228 2.307-3.539 3.113-1.115.684-2.376 1.184-3.882 1.479l-.144-7.528c.151-.076 4.001-1.908 7.325-4.827ZM73.63 33.11a14.3 14.3 0 0 1-1.253.053c-.961.001-2.243-.093-3.444-.435-1.209-.342-2.3-.918-3.034-1.81-1.06-1.291-1.298-2.239-1.303-2.934 0-.652.23-1.16.474-1.53.121-.183.244-.325.328-.412l.069-.067c.344.244.696.444 1.04.593a1.3 1.3 0 0 0 1.037-2.383c-.452-.199-.856-.48-1.17-.908-.31-.431-.565-1.035-.611-2.026v-.01l-.006-.212c-.002-1.616.76-3.212 2.05-4.415a7.375 7.375 0 0 1 5.016-1.975c.488 0 .99.067 1.499.17-.046.333-.074.67-.073 1.014-.001 1.33.357 2.712 1.087 4.071a1.3 1.3 0 0 0 2.292-1.228c-.554-1.035-.778-1.976-.78-2.843.002-.948.27-1.829.779-2.667.76-1.253 2.1-2.39 3.815-3.205 1.711-.818 3.783-1.313 5.937-1.348l.287-.003c1.624 0 2.864.236 3.801.592 1.404.54 2.157 1.312 2.64 2.17.478.855.648 1.84.647 2.681a5.48 5.48 0 0 1-.164 1.385 1.3 1.3 0 0 0 2.506.692c.15-.548.257-1.252.258-2.077 0-.782-.1-1.667-.387-2.577a7.32 7.32 0 0 0-.494-1.185 7.978 7.978 0 0 1 4.849-1.64c1.439 0 2.825.388 3.928 1.06 1.105.676 1.918 1.613 2.317 2.741.262.744.364 1.434.364 2.08.002 1.372-.477 2.57-.976 3.43a8.013 8.013 0 0 1-.678.994 6.228 6.228 0 0 1-.212.25l-.05.053-.008.01a1.3 1.3 0 0 0 1.843 1.834c.054-.057.7-.708 1.356-1.838.093-.162.187-.337.279-.52.011.006.017.017.028.022.491.233 1.058.753 1.459 1.395.408.64.645 1.384.641 1.994 0 .153-.013.297-.039.433-.125.653-.475 1.263-1.004 1.837-.786.859-1.957 1.57-2.925 2.03-.484.232-.915.405-1.22.517l-.078.029a4.206 4.206 0 0 0-.276-.351c-.639-.71-1.479-1.186-2.43-1.521l.416-.378a1.3 1.3 0 0 0-1.748-1.925l-1.725 1.567c-.041.037-.06.088-.095.13a20.997 20.997 0 0 0-1.562-.064c-.943 0-1.972.073-3.037.177.011-.749.041-1.845.117-2.595a1.3 1.3 0 1 0-2.587-.256c-.103 1.053-.128 2.452-.134 3.187a62.335 62.335 0 0 0-4.16.791c-4.353.99-8.19 2.118-11.058 3.559-.037.018-.07.039-.107.058-.023.001-.044-.008-.067-.006-.028.002-.14.012-.312.012-.561.003-1.725-.112-2.746-.774a1.3 1.3 0 1 0-1.403 2.19v-.001c.485.31.968.531 1.435.702-.112.108-.233.21-.337.323a5.99 5.99 0 0 0-.9 1.293Zm17.157.48c-5.457 1.073-10.313 2.412-14.607 4.004-.064-.233-.132-.472-.2-.712-.146-.508-.285-1.027-.306-1.184l-.001-.005a2.163 2.163 0 0 1-.03-.355c.006-.579.22-1.115.803-1.763.868-.961 2.587-1.975 4.89-2.864 2.303-.897 5.177-1.7 8.365-2.421 3.577-.813 6.746-1.24 9.226-1.24 1.849-.004 3.31.247 4.223.657.459.203.775.435.984.669.209.237.33.473.396.8.094.479.268 1.053.445 1.65.098.329.195.655.277.943-4.42.2-9.227.794-14.465 1.822Zm4.721 2.466c.004 2.02-.556 4.109-1.146 5.714-.042-.078-.078-.153-.124-.231-.939-1.623-2.615-3.468-5.354-4.628a179.079 179.079 0 0 1 6.317-1.198l.292-.05c.005.131.015.261.015.393Zm-27.92 96.917c-1.204 0-2.255.16-3.166.389 2.222-3.268 5.048-5.468 7.988-6.984 1.278.414 4.693 1.319 11.362 1.887a24.239 24.239 0 0 0-3.803 3.005c-1.328 1.281-2.512 2.691-3.583 4.154-3.415-1.81-6.384-2.452-8.799-2.451Zm34.902 30.167c-.333.55-.754 1.096-1.247 1.525-.496.431-1.052.746-1.713.896a5.813 5.813 0 0 1-1.259.116c-1.78.007-4.283-.541-6.275-1.106a52.579 52.579 0 0 1-3.243-1.03l-.194-.07-.062-.023a1.321 1.321 0 0 0-.75-.048l-.35.079c-.803.179-2.906.632-5.37 1.037-2.46.405-5.296.76-7.492.759-1.145.003-2.121-.106-2.682-.287a2.858 2.858 0 0 1-1.07-.596c-.43-.384-.764-.925-.997-1.649-.232-.72-.35-1.61-.348-2.59-.003-1.903.438-4.131 1.098-6.133a71 71 0 0 0 .166-.515l8.91 1.016c-.019.057-.043.111-.055.17-.008.051-.128.674-.13 1.508.001.47.037 1.009.18 1.573.143.559.395 1.169.91 1.687.597.589 1.332.929 2.12 1.166.79.232 1.644.344 2.504.345a8.313 8.313 0 0 0 2.447-.349c.659-.21 1.221-.547 1.803-.911.865-.549 1.757-1.181 2.675-1.657.845-.442 1.685-.726 2.507-.768l.54 1.464a1.301 1.301 0 0 0 1.93.638c.087-.067 1.56-.921 3.099-.904.197 0 .395.018.593.046l-1.048 2.658a1.302 1.302 0 0 0 1.673 1.691l.007-.003c.063-.023.447-.162.939-.29.174-.046.363-.087.553-.124a8.678 8.678 0 0 1-.369.679Zm37.115-26.289c-.231 4.718-1.383 10.947-3.145 16.344-.879 2.699-1.911 5.194-3.03 7.18-1.112 1.99-2.334 3.45-3.417 4.12-.443.283-1.161.539-2.076.7-.915.163-2.019.241-3.231.24-3.914.003-8.919-.799-12.904-1.609a129.402 129.402 0 0 1-6.103-1.392c.2-.538.293-.9.303-.937a1.304 1.304 0 0 0-.815-1.536c-.472-.17-.923-.211-1.352-.213a7.066 7.066 0 0 0-.808.056l.642-1.629a1.298 1.298 0 0 0-.647-1.648 6.603 6.603 0 0 0-2.88-.644c-1.237.002-2.299.31-3.087.619l-.345-.936a1.303 1.303 0 0 0-1.038-.837 6.32 6.32 0 0 0-.888-.062c-.988 0-1.906.223-2.735.541-1.244.48-2.307 1.171-3.209 1.759-.45.295-.857.565-1.207.772-.349.208-.643.347-.819.4-.472.149-1.07.232-1.673.231a6.419 6.419 0 0 1-1.77-.239c-.511-.146-.887-.371-1.016-.51-.06-.056-.162-.219-.229-.489a3.925 3.925 0 0 1-.099-.933c0-.123.006-.24.013-.352l1.93-.79c.1-.041.176-.112.26-.174 1.407.36 2.4.495 2.438.501a1.3 1.3 0 0 0 .345-2.577l-.011-.002a23.083 23.083 0 0 1-3.715-.905l-.032-.013a.605.605 0 0 1-.01-.127c-.012-.3.177-.934.408-1.42.027-.058.052-.107.078-.16.405.028.804.045 1.19.045 3.655-.005 6.342-1.127 7.102-1.478a21.99 21.99 0 0 1 2.79-.171c1.748-.003 3.983.211 5.841.959.787.314 1.73.571 2.798.798 3.194.675 7.491 1.063 10.944 1.065 1.275 0 2.431-.053 3.398-.174a9.742 9.742 0 0 0 1.322-.248c.401-.114.764-.238 1.146-.51.745-.555 1.191-1.323 1.53-2.168.502-1.275.776-2.815.997-4.552.217-1.735.367-3.66.547-5.632a1.3 1.3 0 1 0-2.589-.235c-.241 2.654-.429 5.162-.765 7.092-.166.963-.371 1.779-.606 2.368-.229.587-.487.913-.645 1.024l-.01.005c-.06.031-.244.097-.501.152-.784.175-2.194.281-3.824.278-2.169 0-4.767-.169-7.127-.469a40.562 40.562 0 0 1-3.277-.539c-.974-.206-1.806-.441-2.372-.669-2.348-.934-4.86-1.141-6.807-1.145-1.944.001-3.324.22-3.371.227-.131.021-.271.067-.389.128v-.001l-.002.002c-.067.037-2.1 1.032-5.007 1.25a49.6 49.6 0 0 1 .524-3.375c.159-.823.352-1.678.575-2.454.22-.774.478-1.473.73-1.954a1.3 1.3 0 0 0-2.304-1.203c-.432.831-.756 1.801-1.031 2.818-.65 2.424-.992 5.118-1.107 6.13-.093-.01-.184-.014-.278-.026a1.302 1.302 0 0 0-1.255.595c-.02.033-.31.489-.61 1.148-.295.666-.631 1.508-.643 2.5 0 .085.007.174.014.263l-9.13-1.042c.232-.677.495-1.418.797-2.219 1.325-3.517 3.359-8.037 6.26-11.957 1.45-1.96 3.113-3.769 5-5.24 1.887-1.472 3.993-2.607 6.357-3.247l.644-.176c.023-.006.04-.024.062-.032 4.17-.086 8.209-.359 12.274-.911a1.3 1.3 0 1 0-.349-2.576l-.001-.001c-4.206.571-8.386.846-12.755.911-.401.005-.799.008-1.192.008-14.075-.006-21.933-3.713-26.303-7.285-2.185-1.791-3.506-3.562-4.28-4.868a12.198 12.198 0 0 1-.784-1.55 6.816 6.816 0 0 1-.154-.405l-.03-.09-.004-.015a1.286 1.286 0 0 0-.966-.896 1.258 1.258 0 0 0-.638-.325 17.435 17.435 0 0 1-8.052-3.49c-.549-.428-1-.837-1.374-1.204l7.367-2.511a1.298 1.298 0 0 0-.06-2.48l-.017-.005c-.237-.068-2.801-.872-5.291-2.592-1.246-.858-2.469-1.94-3.398-3.24a9.342 9.342 0 0 1-1.404-2.936l15.312 2.505a1.3 1.3 0 0 0 .42-2.565l-3.173-.52C53.36 84.04 52.03 77.468 52.03 71.502c0-4.299.686-8.282 2.133-11.932 2.175-5.472 6.055-10.232 12.104-14.204 3.531-2.317 7.813-4.351 12.899-6.065.03-.005.058.004.088-.003l.024-.006c.273-.066 2.9-.644 5.225-.64.889-.002 1.729.088 2.315.272 2.864.888 4.332 2.505 5.175 3.928.415.71.659 1.372.796 1.843.068.236.11.424.133.546l.022.13.004.024a1.302 1.302 0 0 0 1.032 1.118 1.302 1.302 0 0 0 1.39-.633c.023-.042.694-1.229 1.37-3.033.674-1.806 1.364-4.227 1.367-6.79 0-.342-.014-.688-.04-1.033 3.753-.496 7.237-.737 10.461-.737 6.588 0 12.091.996 16.654 2.813 6.841 2.732 11.609 7.28 14.863 13.345 3.246 6.064 4.926 13.677 5.361 22.374.009.182.055.352.13.505l-3.043 1.865a1.3 1.3 0 1 0 1.359 2.217l13.239-8.116c.041.346.067.69.067 1.03 0 1.467-.361 2.88-.927 4.189-.846 1.962-2.155 3.672-3.254 4.87-.549.6-1.044 1.074-1.396 1.393-.176.16-.317.28-.411.36l-.105.087-.023.019-.003.002c-.448.352-.613.951-.411 1.483.202.532.724.87 1.292.836l7.77-.46a16.636 16.636 0 0 1-.924 1.819 17.441 17.441 0 0 1-6.028 6.091c-.182.11-.314.265-.419.435-.431.28-.673.8-.568 1.336.052.265.099.68.098 1.2-.002 2.163-.764 6.134-4.483 10.69-3.72 4.556-10.438 9.728-22.4 14.162a123.38 123.38 0 0 1-8.541 2.833 1.3 1.3 0 0 0 .725 2.497 126.58 126.58 0 0 0 8.719-2.892c.269-.1.522-.202.785-.302 7.702 1.356 12.967 7.894 12.968 15.144 0 .246-.006.493-.018.74Zm26.134-2.07c-2.971-.003-6.73 1.052-11.097 4.164-3.066-2.133-5.894-2.933-8.303-2.929-1.593 0-2.978.337-4.133.784.009-.23.017-.461.017-.689.001-3.359-.971-6.571-2.683-9.335a12.699 12.699 0 0 0 4.688-4.611c.524-.891.862-1.696 1.075-2.302 1.768.145 5.76.679 10.173 2.609 2.821 1.232 5.807 3.027 8.518 5.643 1.987 1.919 3.827 4.284 5.354 7.208a11.991 11.991 0 0 0-3.609-.542Z"/><path fill="#BEBEC9" d="M112.116 58.92c2.099-.856 4.997-1.43 8.066-1.428 2.507 0 5.131.378 7.559 1.248 2.431.87 4.662 2.223 6.452 4.18a1.3 1.3 0 0 0 1.918-1.756c-2.117-2.314-4.735-3.885-7.494-4.872-2.761-.987-5.669-1.399-8.435-1.4-3.389.003-6.563.613-9.045 1.619a1.3 1.3 0 0 0 .979 2.409ZM80.824 65.454a1.3 1.3 0 0 0-.006-2.6c-3.52.014-7.907 1.102-11.93 3.338-4.01 2.236-7.673 5.663-9.428 10.413a1.3 1.3 0 1 0 2.44.9h-.001c1.473-4.004 4.628-7.02 8.254-9.042 3.614-2.022 7.683-3.008 10.67-3.01ZM109.98 116.268l-.004.001-.007.003.011-.004ZM117.472 105.371c-.012-3.679-1.428-7.28-3.648-9.707a1.303 1.303 0 0 0-1.592-.253c-4.19 2.354-9.46 3.665-14.113 3.66-.746 0-1.475-.033-2.18-.1a1.304 1.304 0 0 0-1.263.673c-.74 1.368-1.06 3.048-1.065 4.843 0 .932.093 1.895.277 2.861h-.001c0 .006.002.01.003.016l.001.007c.054.295.118.533.158.712l.005.022c.124.506.277.983.434 1.441l.007.023c.085.233.172.461.27.699v.003c.77 1.864 1.946 3.615 3.605 4.92 1.653 1.305 3.802 2.127 6.32 2.122 1.07 0 2.206-.144 3.404-.447.667-.164 1.297-.37 1.88-.597.2-.076.366-.149.485-.196l.035-.015c.304-.131.621-.281.934-.452l.001.002c.185-.092.335-.179.441-.235l.043-.025c1.967-1.146 3.384-2.707 4.278-4.448.897-1.742 1.281-3.649 1.281-5.529Zm-3.592 4.338c-.682 1.318-1.72 2.479-3.272 3.39-.135.073-.255.141-.342.184l-.052.027a8.389 8.389 0 0 1-.741.357c-.167.067-.313.131-.425.173l-.012.004c-.493.192-1.02.364-1.57.499l-.007.002a11.324 11.324 0 0 1-2.769.368c-1.967-.006-3.478-.603-4.715-1.567-1.23-.965-2.173-2.333-2.806-3.865-.08-.197-.151-.384-.225-.587a14.148 14.148 0 0 1-.364-1.206c-.056-.244-.106-.436-.132-.585l-.004-.023a12.75 12.75 0 0 1-.233-2.393c-.003-1.087.16-2.082.428-2.862.49.027.981.046 1.48.046 4.78-.005 9.976-1.231 14.415-3.494 1.395 1.877 2.349 4.58 2.338 7.194 0 1.529-.312 3.02-.992 4.338Z"/><path fill="#BEBEC9" d="M108.095 116.866h-.001l-.006.002.007-.002ZM122.98 67.818h.007-.007ZM123.422 67.81c-.14 0-.287.001-.439.008-1.945.064-4.047.578-5.918 1.937-1.183.854-1.856 2.183-1.854 3.546 0 .096.003.198.011.305.239 3.295.745 7.392 1.586 10.992.422 1.803.926 3.48 1.548 4.897.312.708.654 1.353 1.048 1.92s.839 1.063 1.389 1.444a5.323 5.323 0 0 0 3.147.958c1.411-.007 2.968-.388 5.187-1.04 2.057-.613 3.377-1.14 4.387-1.883.5-.37.906-.806 1.212-1.272.308-.467.518-.949.701-1.438.171-.463.296-1.028.397-1.75.099-.718.162-1.579.162-2.558 0-2.488-.411-5.744-1.767-9.205-1.625-4.108-5.915-6.858-10.797-6.861Zm9.826 18.27c-.078.586-.192 1.026-.257 1.195-.148.398-.284.687-.434.914-.228.334-.486.597-1.112.946-.622.341-1.597.719-3.055 1.149-2.148.64-3.556.94-4.45.933-.752-.013-1.13-.142-1.673-.5-.201-.136-.46-.396-.727-.783-.471-.674-.952-1.716-1.373-2.968-1.279-3.767-2.055-9.379-2.352-13.552l-.001-.007-.003-.106c.002-.516.245-1.05.78-1.442 1.372-.993 2.912-1.388 4.483-1.443h.007a9.04 9.04 0 0 1 .341-.006c3.911-.004 7.218 2.226 8.377 5.21 1.218 3.106 1.588 6.052 1.587 8.256 0 .865-.057 1.615-.138 2.204ZM83.71 80.12c-.508-1.38-1.735-2.427-3.269-2.736a9.736 9.736 0 0 0-1.951-.197c-1.538 0-2.968.359-4.241.887-4.503 1.873-7.387 6.02-7.397 10.38 0 .173.005.345.014.515a25.603 25.603 0 0 0 1.876 8.35c.452 1.093.93 2.02 1.376 2.76.453.744.854 1.289 1.247 1.687.52.522 1.104 1.02 1.87 1.355.766.336 1.641.478 2.689.477.855 0 1.846-.09 3.077-.262 2.1-.298 3.598-.577 4.826-1.064a6.008 6.008 0 0 0 1.63-.943 5.3 5.3 0 0 0 1.163-1.373c.646-1.105.816-2.407.826-3.871-.004-2.327-.51-5.112-1.222-7.94a80.459 80.459 0 0 0-2.513-8.025Zm.68 18.498c-.185.307-.366.52-.593.71-.34.282-.829.536-1.661.774-.827.238-1.97.446-3.496.659-1.16.163-2.047.238-2.716.237-.829-.001-1.299-.108-1.645-.259-.347-.153-.644-.38-1.074-.81-.149-.144-.492-.579-.861-1.195-1.131-1.865-2.648-5.448-2.882-9.906a6.767 6.767 0 0 1-.01-.375c-.011-3.178 2.181-6.483 5.793-7.977 1.024-.425 2.114-.689 3.245-.689.469 0 .945.045 1.432.144l.26-1.273-.26 1.273c.699.147 1.157.577 1.351 1.094a77.893 77.893 0 0 1 2.43 7.758c.686 2.703 1.146 5.356 1.143 7.302.009 1.22-.204 2.141-.455 2.533Z"/><path fill="#FFE632" d="m50.46 152.108-2.019 10.017c11.464-1.605 2.019-10.017 2.019-10.017Z"/></svg>