<svg width="200" height="200" viewBox="0 0 200 200" xmlns="http://www.w3.org/2000/svg"><g id="type=notification, mode=light"><g id="Group 432527079"><path id="Vector" d="M167.693 131.551C163.804 122.688 157.766 117.766 152.723 115.116C147.676 112.459 143.622 112.027 143.512 112.013C143.147 111.975 142.779 112.095 142.506 112.34C142.237 112.583 142.081 112.931 142.078 113.293H142.076C142.078 113.295 142.051 114.24 141.437 115.353C140.888 116.335 139.917 117.482 137.946 118.358C137.723 116.538 137.041 114.776 136.178 113.201C141.525 109.874 145.664 106.186 148.508 102.441C151.466 98.5417 153.057 94.5699 153.063 90.8669C153.063 90.575 153.039 90.2888 153.018 90.0016C156.525 87.8045 158.696 85.031 159.978 82.7868C161.292 80.4839 161.698 78.7338 161.719 78.6432C161.81 78.245 161.707 77.8256 161.443 77.5141C161.179 77.2027 160.782 77.0328 160.375 77.057L153.873 77.442C154.208 77.0626 154.553 76.6563 154.903 76.2028C155.801 75.0379 156.708 73.6369 157.399 72.0377C158.09 70.44 158.566 68.6367 158.566 66.6966C158.566 65.5415 158.395 64.3413 158.008 63.1273C157.887 62.7469 157.598 62.4427 157.223 62.3034C156.849 62.164 156.431 62.2046 156.091 62.4133L146.458 68.3176C145.754 56.4405 142.817 46.2386 136.498 38.9012C133.27 35.1549 129.161 32.1867 124.111 30.1775C119.059 28.1661 113.074 27.1057 106.054 27.1057C104.348 27.1057 102.573 27.1759 100.743 27.3028C101.124 25.9184 101.607 24.6231 102.201 23.5328C102.989 22.0811 103.949 21.0194 105.076 20.4464C105.632 20.1626 105.908 19.5188 105.731 18.9204C105.555 18.322 104.973 17.9318 104.352 17.9956C104.286 18.0032 102.061 18.2331 99.1401 19.2251C96.4145 20.1549 93.0676 21.7634 90.3427 24.5424L83.9375 22.8526C83.4289 22.7185 82.8886 22.9046 82.5705 23.3232C82.2534 23.7408 82.219 24.3094 82.4824 24.7626L82.4819 24.7628C82.509 24.8017 83.6865 26.9446 83.8144 29.9348C70.9414 32.9376 61.6416 37.5304 55.3989 43.5485C51.9624 46.8631 49.4668 50.6093 47.8454 54.7011C46.2224 58.793 45.4719 63.222 45.4724 67.9101C45.4733 74.0351 46.7605 80.61 49.0478 87.5373L37.6428 85.6718C37.2485 85.6074 36.8466 85.7278 36.5527 85.9981C36.2587 86.2685 36.1052 86.6593 36.1369 87.0575C36.3293 89.5121 37.2565 91.5965 38.5 93.2785C40.3696 95.8063 42.9155 97.4791 44.9848 98.5527C45.1196 98.6223 45.246 98.6823 45.3767 98.7468L39.2136 100.849C38.8271 100.981 38.5239 101.288 38.3972 101.676C38.2707 102.064 38.3342 102.491 38.5688 102.826C38.623 102.902 39.6601 104.368 41.748 106.003C43.7355 107.559 46.7043 109.257 50.6391 109.995C50.9736 110.84 51.704 112.386 53.1528 114.222C55.2595 116.896 58.8796 120.132 64.8393 122.53C64.8122 122.842 64.7809 123.153 64.7805 123.466C64.7805 124.434 64.9189 125.407 65.2536 126.338L65.2531 126.337C65.3525 126.613 65.4196 126.892 65.4809 127.17C62.4247 126.786 60.6157 125.561 59.5011 124.412C58.9118 123.798 58.526 123.201 58.2926 122.77C58.1762 122.555 58.0978 122.381 58.0512 122.269L58.0043 122.15L57.997 122.13L57.9955 122.131C57.7861 121.494 57.1259 121.119 56.4716 121.269C56.3456 121.299 52.8193 122.121 48.7087 125.315C44.5985 128.503 39.9345 134.099 37.6383 143.465C37.4902 144.067 37.7875 144.689 38.349 144.952C38.9103 145.215 39.578 145.046 39.9462 144.547L39.9464 144.547C39.9687 144.515 40.9528 143.208 42.4567 141.958C43.2072 141.332 44.0854 140.722 45.0165 140.282C45.9494 139.84 46.9247 139.571 47.9008 139.571C48.7797 139.574 49.6696 139.779 50.6256 140.325C51.579 140.872 52.602 141.778 53.6459 143.215C53.8725 143.526 54.2204 143.72 54.6049 143.747C54.9896 143.775 55.3612 143.633 55.63 143.356C56.4884 142.473 57.2785 141.918 57.9921 141.583C58.7074 141.249 59.3478 141.125 59.9691 141.124C60.682 141.123 61.3866 141.301 62.0819 141.59C61.3685 145.005 60.8998 148.049 60.7467 149.853L60.747 149.851C60.7052 150.34 60.6857 150.821 60.6857 151.294C60.6876 154.201 61.4296 156.808 62.6444 158.812C63.2535 159.814 63.9835 160.668 64.8219 161.323C65.6334 161.956 66.5575 162.398 67.5509 162.564C66.5106 174.102 65.8832 186.037 65.8827 186.046C65.8449 186.763 66.3956 187.375 67.1127 187.413C67.8297 187.45 68.4415 186.9 68.4794 186.183C68.4791 186.181 68.5199 185.409 68.5978 184.061C68.8275 180.096 69.3803 171.177 70.1622 162.56C71.9672 162.329 74.0099 161.674 75.9117 160.506C77.1127 159.763 78.2487 158.809 79.1793 157.613C80.11 156.419 80.83 154.978 81.1813 153.312C81.4667 151.954 81.7396 149.83 82.0065 147.21C82.6185 141.164 83.1632 132.588 83.3822 126.009C84.2304 126.036 85.0953 126.052 85.9865 126.052C87.8341 126.052 89.7753 125.993 91.8156 125.868C92.5321 125.823 93.0773 125.207 93.0331 124.49C92.9891 123.774 92.3725 123.228 91.6559 123.273C89.6666 123.395 87.7787 123.452 85.9865 123.452C85.1185 123.452 84.2782 123.436 83.4547 123.41C83.4747 122.458 83.4852 121.573 83.4855 120.775C83.4855 119.585 83.4628 118.586 83.41 117.813C83.3832 117.425 83.35 117.095 83.2997 116.8C83.2741 116.651 83.2448 116.512 83.1993 116.36C83.1491 116.208 83.1019 116.046 82.933 115.805L82.931 115.802C82.7355 115.531 82.4579 115.292 82.1474 115.146C81.8373 114.998 81.5126 114.943 81.2257 114.944C80.5165 114.957 79.9957 115.206 79.5099 115.472C79.4345 115.515 79.3727 115.569 79.2994 115.614C79.2838 115.088 79.2435 114.557 79.1056 114.033C79.0162 113.707 78.8947 113.376 78.663 113.042C78.4386 112.715 78.0492 112.369 77.5407 112.234L77.538 112.233C77.3597 112.185 77.1798 112.164 77.0128 112.164C76.5489 112.168 76.183 112.301 75.8605 112.454C75.3002 112.73 74.8322 113.108 74.3759 113.522C74.2672 113.622 74.1632 113.726 74.058 113.83C74.0394 113.723 74.0255 113.615 74.0026 113.51C73.9034 113.078 73.7789 112.653 73.496 112.216C73.3522 112 73.1581 111.774 72.8761 111.591C72.5983 111.407 72.224 111.288 71.8639 111.291C71.6539 111.291 71.453 111.327 71.2699 111.383C70.8204 111.526 70.473 111.752 70.1234 112.022C69.5209 112.498 68.931 113.141 68.3373 113.925C67.4525 115.1 66.5809 116.588 65.9132 118.23C65.6928 118.775 65.5065 119.34 65.3395 119.912C60.0924 117.703 56.9901 114.884 55.1937 112.611C54.2655 111.435 53.6835 110.405 53.3378 109.683C53.1647 109.322 53.0509 109.039 52.9826 108.854C52.9484 108.761 52.9254 108.693 52.9125 108.652L52.8998 108.611L52.8993 108.612C52.7929 108.231 52.5219 107.952 52.1893 107.797C52.0253 107.674 51.8412 107.576 51.6244 107.541H51.6242C47.9137 106.951 45.173 105.38 43.35 103.955C42.7672 103.5 42.2909 103.065 41.8998 102.68L49.5058 100.086C50.0446 99.902 50.3998 99.3925 50.3859 98.8234C50.372 98.2543 49.9921 97.7628 49.445 97.6058L49.4279 97.6007C49.1833 97.5302 46.5504 96.7047 43.9921 94.9375C42.7116 94.0562 41.4547 92.9448 40.4992 91.6069C39.8483 90.694 39.349 89.6737 39.039 88.5348L54.7973 91.1123C55.5058 91.2282 56.174 90.7479 56.2899 90.0393C56.4059 89.3308 55.9257 88.6624 55.2172 88.5464L51.9416 88.0107C49.4379 80.789 48.0712 74.039 48.0722 67.9101C48.0727 63.4972 48.776 59.408 50.2624 55.6596C52.495 50.0406 56.4806 45.1519 62.6894 41.0749C68.2648 37.4171 75.6498 34.4424 85.0849 32.306C85.2109 32.3103 85.3376 32.3026 85.4623 32.2696V32.2697L85.464 32.2693C85.4975 32.2587 86.901 31.902 88.5468 31.9044C89.3153 31.9038 90.133 31.9816 90.8774 32.1847C91.6247 32.3878 92.2885 32.7093 92.818 33.1807C94.4142 34.5909 95.4657 36.6979 96.0732 38.4656C96.3788 39.3473 96.5775 40.1386 96.6982 40.7016C96.7585 40.9831 96.7992 41.2076 96.8246 41.3581L96.8512 41.5261L96.8568 41.5645L96.8576 41.5703C96.9472 42.2627 97.5724 42.7624 98.2677 42.6975C98.9628 42.6325 99.4848 42.0256 99.4447 41.3285C99.4447 41.3284 99.442 41.2832 99.4374 41.1831C99.4237 40.8829 99.3957 40.1349 99.3957 39.0887C99.3942 36.8917 99.5251 33.3712 100.148 29.9498C102.203 29.7878 104.173 29.7056 106.054 29.7057C112.815 29.7057 118.464 30.7273 123.149 32.593C130.172 35.3985 135.07 40.0688 138.41 46.2963C141.742 52.5225 143.466 60.3352 143.912 69.2592C143.921 69.451 143.977 69.6273 144.06 69.7874L140.908 71.7195C140.296 72.0947 140.104 72.8952 140.479 73.5073C140.854 74.1194 141.654 74.3115 142.267 73.9362L155.891 65.5848C155.938 65.9592 155.966 66.3305 155.966 66.6967C155.966 68.2073 155.594 69.6606 155.013 71.0064C154.143 73.0238 152.798 74.7802 151.669 76.012C151.105 76.6283 150.597 77.1147 150.235 77.4425C150.054 77.6064 149.91 77.7308 149.813 77.8121L149.705 77.9016L149.68 77.9213L149.677 77.924C149.23 78.2764 149.064 78.8748 149.267 79.4069C149.469 79.9391 149.99 80.2764 150.559 80.2428L158.582 79.7677C158.345 80.3207 158.03 80.9739 157.61 81.6865C156.449 83.661 154.528 86.0571 151.417 87.9454C151.09 88.1436 150.892 88.4639 150.825 88.8116C150.543 89.0796 150.37 89.4551 150.412 89.8721C150.446 90.1974 150.463 90.5291 150.463 90.867C150.468 93.8008 149.16 97.2881 146.437 100.869C143.826 104.31 139.917 107.818 134.784 111.007C134.144 110.131 133.476 109.36 132.828 108.747C132.433 108.374 132.047 108.056 131.658 107.798C131.265 107.543 130.882 107.336 130.395 107.229C130.262 107.201 130.121 107.185 129.975 107.185C129.722 107.184 129.453 107.238 129.214 107.345C128.79 107.533 128.504 107.852 128.328 108.14C128.064 108.582 127.968 108.999 127.898 109.415C127.872 109.583 127.857 109.751 127.844 109.919C127.558 109.687 127.263 109.463 126.957 109.264C126.671 109.077 126.377 108.91 126.056 108.776C125.735 108.645 125.384 108.536 124.954 108.533C124.73 108.533 124.482 108.567 124.231 108.662C123.865 108.797 123.563 109.048 123.365 109.308C123.064 109.705 122.943 110.101 122.864 110.475C122.789 110.852 122.766 111.222 122.766 111.594C122.766 111.788 122.775 111.982 122.787 112.175C122.757 112.16 122.73 112.142 122.699 112.127C122.212 111.903 121.699 111.702 121.047 111.693C120.737 111.693 120.383 111.75 120.038 111.924C119.694 112.095 119.388 112.39 119.196 112.72L119.197 112.719C119.196 112.72 119.196 112.72 119.196 112.72C119.196 112.72 119.196 112.72 119.196 112.721L119.196 112.72C119.075 112.931 119.036 113.079 119.001 113.213C118.954 113.413 118.936 113.584 118.921 113.772C118.908 113.959 118.903 114.157 118.903 114.375C118.904 115.281 118.996 116.587 119.154 118.19C116.406 119.103 113.488 119.925 110.395 120.633C109.695 120.794 109.257 121.491 109.418 122.191C109.578 122.891 110.275 123.328 110.975 123.168H110.975C113.951 122.487 116.769 121.698 119.443 120.828C119.468 121.042 119.492 121.252 119.519 121.473C120.085 126.15 120.973 132.144 121.888 137.518C122.345 140.205 122.809 142.736 123.245 144.873C123.682 147.013 124.083 148.744 124.443 149.9C125.38 152.92 127.493 155.003 129.797 156.275C130.938 156.905 132.127 157.353 133.288 157.648C134.039 164.37 134.65 171.447 135.073 176.869C135.288 179.621 135.455 181.947 135.569 183.584C135.682 185.221 135.741 186.165 135.741 186.167C135.786 186.884 136.403 187.429 137.12 187.384C137.836 187.339 138.381 186.722 138.336 186.005C138.335 185.994 137.428 171.507 135.952 158.069C136.207 158.085 136.458 158.094 136.703 158.094C137.457 158.094 138.155 158.022 138.787 157.868C139.706 157.643 140.541 157.172 141.265 156.542C142.351 155.593 143.204 154.286 143.801 152.749C144.396 151.211 144.731 149.436 144.732 147.525C144.732 146.562 144.646 145.565 144.465 144.549C144.135 142.72 143.358 139.63 142.287 136.19C142.163 135.791 142.034 135.388 141.902 134.982C142.453 134.491 143.036 134.034 143.648 133.693C144.401 133.274 145.172 133.023 146.042 133.021C147.084 133.024 148.343 133.38 149.952 134.539C150.264 134.765 150.655 134.841 151.029 134.747C151.403 134.654 151.712 134.404 151.882 134.058C152.81 132.165 153.832 131.016 154.834 130.333C155.838 129.653 156.842 129.402 157.894 129.398C159.724 129.387 161.697 130.259 163.179 131.189C163.92 131.65 164.538 132.116 164.964 132.462C165.178 132.635 165.343 132.778 165.453 132.875L165.574 132.984L165.601 133.01L165.606 133.015V133.014C166.055 133.442 166.742 133.494 167.249 133.138C167.757 132.782 167.943 132.118 167.693 131.551ZM67.7568 130.983C68.0881 130.136 68.2346 129.257 68.2341 128.395C68.2338 127.382 68.0344 126.391 67.7006 125.459L67.7001 125.458C67.4841 124.857 67.3803 124.187 67.3803 123.466C67.3703 121.426 68.2499 119.001 69.3554 117.098C69.9035 116.147 70.5036 115.321 71.0305 114.738C71.1996 114.551 71.3544 114.4 71.4994 114.268C71.5854 114.772 71.6254 115.455 71.6218 116.009C71.6218 116.322 71.6132 116.599 71.6049 116.794C71.601 116.892 71.5968 116.969 71.5937 117.02L71.5893 117.093C71.548 117.673 71.8947 118.207 72.4406 118.406C72.9865 118.605 73.5956 118.419 73.9374 117.949L73.9618 117.916C74.0947 117.736 74.766 116.845 75.5239 116.043C75.9001 115.642 76.3019 115.265 76.6264 115.026C76.6367 115.019 76.6445 115.015 76.6545 115.007C76.6957 115.28 76.716 115.631 76.7158 115.994C76.716 116.562 76.6696 117.161 76.6222 117.608C76.5988 117.832 76.5751 118.019 76.5578 118.147L76.5373 118.294L76.5307 118.338C76.4413 118.904 76.7316 119.46 77.2472 119.71C77.7631 119.96 78.3788 119.844 78.7685 119.423L78.7839 119.407C78.8781 119.306 79.3954 118.771 79.985 118.297C80.2597 118.075 80.5485 117.874 80.7929 117.737C80.8517 118.398 80.8867 119.45 80.8857 120.775C80.8859 124.975 80.5837 131.777 80.1488 138.128C79.9313 141.304 79.6808 144.371 79.4196 146.947C79.1601 149.518 78.883 151.619 78.6376 152.774C78.3691 154.038 77.8378 155.102 77.1274 156.017C76.0644 157.386 74.5761 158.412 73.0336 159.083C71.4975 159.757 69.9057 160.065 68.7682 160.062C68.486 160.062 68.2333 160.044 68.0241 160.013C67.5138 159.937 66.9689 159.7 66.4208 159.273C65.6 158.636 64.7995 157.571 64.2231 156.194C63.6445 154.818 63.2851 153.138 63.2856 151.293C63.2856 150.893 63.3022 150.486 63.3376 150.073L63.3378 150.071C63.4811 148.351 63.9841 145.083 64.7536 141.513C65.5219 137.938 66.5629 134.03 67.7568 130.983V130.983H67.7568ZM141.905 145.007C142.06 145.872 142.132 146.716 142.132 147.525C142.134 149.664 141.623 151.56 140.851 152.935C140.466 153.624 140.019 154.18 139.557 154.581C139.094 154.984 138.624 155.231 138.168 155.343C137.796 155.435 137.287 155.495 136.703 155.494C135.087 155.499 132.919 155.04 131.059 154.002C129.188 152.957 127.636 151.399 126.925 149.127C126.514 147.815 125.946 145.246 125.356 142.128C124.466 137.441 123.498 131.455 122.756 126.157C122.385 123.507 122.07 121.028 121.849 118.973C121.632 116.967 121.508 115.351 121.504 114.441C121.636 114.5 121.782 114.572 121.934 114.66C122.36 114.904 122.812 115.231 123.145 115.492C123.312 115.622 123.45 115.737 123.544 115.816L123.651 115.908L123.676 115.93L123.681 115.934C124.108 116.317 124.733 116.375 125.223 116.077C125.713 115.78 125.949 115.199 125.808 114.644L125.791 114.576C125.75 114.406 125.64 113.935 125.544 113.365C125.446 112.797 125.365 112.123 125.366 111.594C125.365 111.504 125.368 111.42 125.373 111.34C125.523 111.429 125.695 111.542 125.871 111.675C126.446 112.1 127.084 112.698 127.561 113.179C127.801 113.42 128.002 113.633 128.142 113.783L128.302 113.959L128.342 114.004L128.353 114.016C128.737 114.452 129.363 114.58 129.888 114.33C130.412 114.08 130.707 113.513 130.61 112.94L130.603 112.896C130.567 112.672 130.411 111.598 130.413 110.66C130.411 110.469 130.421 110.288 130.435 110.122C130.831 110.419 131.336 110.89 131.857 111.491C132.73 112.496 133.645 113.838 134.321 115.269C135 116.699 135.431 118.215 135.427 119.546C135.427 120.025 135.374 120.481 135.264 120.909L135.264 120.908C135.096 121.558 135.02 122.215 135.02 122.863C135.021 124.321 135.402 125.733 136.014 127.005L136.236 126.897L136.236 126.898L136.014 127.005C137.429 129.938 138.761 133.611 139.805 136.963C140.849 140.311 141.612 143.365 141.905 145.007Z"/><path id="Vector_2" d="M126.868 59.981C125.835 58.8677 124.726 57.9091 123.547 57.2056C122.37 56.5059 121.106 56.0493 119.784 56.0469C119.672 56.0469 119.56 56.0502 119.447 56.0571C118.503 56.114 117.596 56.3503 116.773 56.7675C115.534 57.3923 114.509 58.412 113.727 59.7159C112.942 61.0226 112.38 62.6169 112.011 64.4926C111.873 65.1973 112.332 65.8805 113.037 66.0187C113.741 66.1569 114.424 65.6978 114.563 64.9931H114.562C114.994 62.782 115.714 61.1926 116.567 60.1981C116.994 59.6979 117.45 59.3389 117.946 59.0877C118.442 58.8374 118.984 58.691 119.606 58.6522L119.784 58.6469C120.484 58.6444 121.317 58.9023 122.216 59.4393C123.564 60.2376 125.009 61.6434 126.279 63.3275C127.553 65.0096 128.662 66.9658 129.423 68.8334C129.694 69.4982 130.453 69.8175 131.117 69.5463C131.782 69.2752 132.102 68.5164 131.831 67.8516C130.69 65.0626 128.929 62.2099 126.868 59.981Z"/><path id="Vector_3" d="M121.484 82.0888L121.486 82.0867L121.488 82.084L121.484 82.0888Z"/><path id="Vector_4" d="M123.718 88.5094L123.724 88.5066C124.088 88.331 124.328 88.0608 124.48 87.8193C124.709 87.4498 124.796 87.1098 124.861 86.771C124.921 86.4326 124.942 86.0921 124.943 85.7456C124.94 84.9461 124.827 84.1214 124.625 83.3996C124.52 83.0361 124.402 82.7028 124.199 82.363C124.094 82.1931 123.968 82.0146 123.751 81.8318C123.542 81.6545 123.186 81.4579 122.743 81.4583C122.45 81.4564 122.166 81.5501 121.958 81.6753C121.75 81.7996 121.604 81.9449 121.49 82.0844C121.489 82.0852 121.488 82.086 121.488 82.0868C121.14 82.518 120.96 82.9843 120.844 83.446C120.73 83.9104 120.686 84.3809 120.686 84.8462C120.689 85.6158 120.802 86.3609 121.043 87.0291C121.169 87.3644 121.32 87.6856 121.587 88.0035C121.722 88.161 121.892 88.3205 122.124 88.4529C122.352 88.5849 122.656 88.6814 122.972 88.6798C123.242 88.681 123.506 88.6108 123.718 88.5094Z"/><path id="Vector_5" d="M120.232 95.3254L120.076 95.6198C119.739 96.254 119.981 97.041 120.615 97.3776C121.249 97.7141 122.036 97.4728 122.372 96.8386L122.529 96.5442C122.865 95.91 122.624 95.123 121.99 94.7865C121.356 94.4499 120.569 94.6912 120.232 95.3254Z"/><path id="Vector_6" d="M125.254 96.5034C125.888 96.8396 126.675 96.5978 127.012 95.9634L127.428 95.1782C127.763 94.5438 127.522 93.757 126.888 93.4208C126.253 93.0847 125.466 93.3265 125.13 93.9609L124.714 94.7461C124.378 95.3805 124.62 96.1673 125.254 96.5034Z"/><path id="Vector_7" d="M130.309 93.0069L129.722 94.5528C129.467 95.224 129.804 95.9748 130.476 96.2296C131.147 96.4844 131.898 96.1469 132.153 95.4757L132.739 93.9298C132.994 93.2585 132.657 92.5078 131.985 92.253C131.314 91.9981 130.563 92.3357 130.309 93.0069Z"/><path id="Vector_8" d="M81.4713 99.3218L81.2594 99.5791C80.8031 100.133 80.8822 100.953 81.4364 101.409C81.9908 101.865 82.8099 101.786 83.2665 101.232L83.4784 100.975C83.9347 100.42 83.8556 99.6011 83.3014 99.1447C82.7469 98.6882 81.9279 98.7675 81.4713 99.3218Z"/><path id="Vector_9" d="M76.9365 99.8653L76.371 100.551C75.9145 101.105 75.9933 101.925 76.5475 102.381C77.1015 102.838 77.9208 102.759 78.3776 102.205L78.943 101.519C79.3996 100.965 79.3207 100.146 78.7665 99.689C78.2126 99.2323 77.3932 99.3113 76.9365 99.8653Z"/><path id="Vector_10" d="M71.6179 100.907L70.7331 102.303C70.3491 102.91 70.5292 103.713 71.1357 104.097C71.7421 104.482 72.5454 104.301 72.9296 103.695L73.8144 102.298C74.1984 101.692 74.0183 100.889 73.4118 100.505C72.8054 100.12 72.0022 100.3 71.6179 100.907Z"/><path id="Vector_11" d="M104.701 103.172C104.356 102.92 103.998 102.704 103.606 102.544C103.216 102.385 102.786 102.284 102.34 102.285C101.695 102.281 101.057 102.504 100.527 102.86C99.7241 103.4 99.0817 104.19 98.4006 105.252C97.7241 106.317 97.021 107.675 96.2212 109.393C95.9184 110.044 96.2006 110.818 96.8518 111.12C97.5029 111.423 98.2763 111.141 98.5791 110.49H98.5788C99.6062 108.274 100.457 106.743 101.136 105.866C101.473 105.426 101.763 105.158 101.962 105.028C102.168 104.897 102.252 104.889 102.34 104.885C102.403 104.885 102.488 104.897 102.626 104.952C102.831 105.034 103.143 105.228 103.519 105.552C103.895 105.875 104.335 106.321 104.831 106.867C105.313 107.399 106.135 107.44 106.667 106.957C107.199 106.475 107.239 105.653 106.757 105.121C106.041 104.335 105.39 103.679 104.701 103.172Z"/><path id="Vector_12" d="M84.7679 69.0643C85.4246 68.7742 85.722 68.0066 85.4319 67.3498H85.4317C84.5586 65.3831 83.7005 63.7276 82.554 62.4634C81.98 61.8342 81.3221 61.3053 80.5606 60.9398C79.8011 60.5729 78.9468 60.3823 78.0486 60.384C77.7132 60.384 77.3709 60.4095 77.0222 60.4591C75.6238 60.6586 74.3072 61.2604 73.1082 62.1172C71.3094 63.4067 69.7478 65.2749 68.4947 67.4519C67.2442 69.6304 66.3067 72.1234 65.8252 74.691C65.6929 75.3967 66.158 76.0759 66.8638 76.2081C67.5694 76.3402 68.2486 75.8752 68.3809 75.1695C68.9429 72.1512 70.2573 69.1762 71.93 66.9453C72.7642 65.829 73.6853 64.8999 74.6204 64.2323C75.5567 63.5625 76.4971 63.1589 77.3882 63.0332C77.625 62.9995 77.8443 62.9841 78.0486 62.9841C78.5957 62.9859 79.0266 63.0892 79.4346 63.2833C80.0406 63.5733 80.6299 64.1108 81.2351 64.9749C81.8382 65.8339 82.4348 66.9974 83.0535 68.4003C83.3435 69.0571 84.1111 69.3543 84.7679 69.0643Z"/><path id="Vector_13" d="M80.0571 91.7958C80.1516 91.4106 80.1863 91.0215 80.187 90.6181C80.1856 89.9459 80.0864 89.2392 79.8738 88.5589C79.6516 87.8841 79.3462 87.2121 78.7024 86.6698L78.7007 86.6684C78.5859 86.5756 78.4492 86.4833 78.2747 86.4076C78.1016 86.3324 77.8848 86.2767 77.6511 86.2772C77.3728 86.2746 77.084 86.3627 76.8713 86.4928C76.4929 86.7269 76.3269 87.0053 76.2119 87.227C76.0471 87.5682 75.9861 87.8649 75.937 88.1781C75.8916 88.4892 75.8733 88.8108 75.873 89.1439C75.8752 89.8898 75.9636 90.6832 76.1631 91.4104C76.2664 91.7757 76.3921 92.1249 76.6042 92.4739C76.7122 92.648 76.8437 92.8253 77.033 92.9958C77.22 93.1639 77.4773 93.3284 77.8 93.4092C77.9373 93.4438 78.0818 93.4633 78.2307 93.4633C78.6892 93.4719 79.1504 93.249 79.4145 92.9841C79.8211 92.5807 79.9539 92.1772 80.0571 91.7958Z"/><path id="Vector_14" d="M77.8027 93.4099L77.801 93.4092L77.7988 93.4089L77.8027 93.4099Z"/><path id="Vector_15" d="M124.229 108.662L124.231 108.662L124.232 108.661L124.229 108.662Z"/><path id="Vector_16" d="M37.3885 71.6158L26.7352 72.2779C26.3548 72.3016 26.0062 72.4894 25.7772 72.7938C25.5482 73.0981 25.464 73.4855 25.5467 73.8574L26.5838 78.5253C26.6722 78.924 26.9471 79.2612 27.3194 79.4288C27.6918 79.5964 28.1261 79.5783 28.4833 79.3804L38.0995 74.0503C38.6315 73.7554 38.8876 73.1329 38.7172 72.5489C38.5465 71.9649 37.9957 71.578 37.3885 71.6158Z"/><path id="Vector_17" d="M38.4356 56.8467L27.6866 51.5245C27.3206 51.3434 26.8855 51.3455 26.5215 51.5302C26.1575 51.715 25.8987 52.0648 25.8289 52.4672L25.0193 57.1307C24.9556 57.4968 25.0511 57.8705 25.282 58.1614C25.5132 58.4524 25.8553 58.6298 26.2264 58.6509L37.785 59.3096C38.3999 59.3447 38.9583 58.9396 39.1158 58.3438C39.273 57.748 38.9876 57.1201 38.4356 56.8467Z"/><path id="Vector_18" d="M38.4212 33.0561C38.1851 32.7455 37.8159 32.5551 37.426 32.5431C37.0359 32.5311 36.6555 32.6982 36.4009 32.9939L33.2525 36.6482C32.9946 36.9473 32.8867 37.3496 32.96 37.7376C33.033 38.1254 33.28 38.4608 33.6289 38.6456L43.5391 43.8941C44.0767 44.179 44.7444 44.0506 45.1385 43.5869C45.5323 43.1232 45.5508 42.4435 45.1829 41.959L38.4212 33.0561Z"/><path id="Vector_19" d="M144.725 15.8602L140.74 13.2162C140.399 12.9905 139.968 12.9379 139.583 13.0754C139.199 13.2129 138.898 13.5272 138.778 13.9175L135.548 24.4273C135.369 25.0088 135.616 25.6348 136.144 25.9372C136.672 26.2397 137.337 26.1363 137.748 25.688L144.964 17.8223C145.222 17.5417 145.343 17.1643 145.297 16.7862C145.251 16.4081 145.042 16.0708 144.725 15.8602Z"/><path id="Vector_20" d="M159.507 32.6199C159.641 32.2343 159.585 31.8026 159.356 31.4645L156.703 27.5441C156.495 27.2363 156.168 27.0334 155.799 26.984C155.431 26.9347 155.061 27.0441 154.78 27.2863L145.997 34.8278C145.53 35.2293 145.409 35.9082 145.709 36.4465C146.009 36.9849 146.649 37.2393 147.237 37.0533L158.671 33.4322C159.061 33.309 159.373 33.0056 159.507 32.6199Z"/><path id="Vector_21" d="M164.981 48.0099C164.959 47.6159 164.758 47.251 164.436 47.0223C164.114 46.7936 163.704 46.7233 163.324 46.8322L152.545 49.924C151.96 50.0919 151.568 50.6474 151.606 51.2547C151.644 51.8619 152.102 52.3643 152.703 52.4581L163.749 54.1817C164.134 54.2419 164.533 54.1229 164.822 53.861C165.111 53.5992 165.269 53.2149 165.247 52.8254L164.981 48.0099Z"/></g></g></svg>