<svg xmlns="http://www.w3.org/2000/svg" width="200" height="200" fill="none"><path fill="#191C22" d="M167.693 131.551c-3.889-8.863-9.927-13.785-14.97-16.435-5.047-2.657-9.101-3.089-9.211-3.103a1.31 1.31 0 0 0-1.006.327 1.303 1.303 0 0 0-.428.953h-.002c.002.002-.025.947-.639 2.06-.549.982-1.52 2.129-3.491 3.005-.223-1.82-.905-3.582-1.768-5.157 5.347-3.327 9.486-7.015 12.33-10.76 2.958-3.9 4.549-7.871 4.555-11.574 0-.292-.024-.578-.045-.865a20.553 20.553 0 0 0 6.96-7.215c1.314-2.303 1.72-4.053 1.741-4.144a1.3 1.3 0 0 0-1.344-1.586l-6.502.385c.335-.38.68-.786 1.03-1.24.898-1.164 1.805-2.565 2.496-4.164.691-1.598 1.167-3.401 1.167-5.341 0-1.156-.171-2.356-.558-3.57a1.298 1.298 0 0 0-1.917-.714l-9.633 5.905c-.704-11.877-3.641-22.08-9.96-29.417-3.228-3.746-7.337-6.714-12.387-8.724-5.052-2.01-11.037-3.071-18.057-3.071-1.706 0-3.481.07-5.311.197.381-1.385.864-2.68 1.458-3.77.788-1.452 1.748-2.514 2.875-3.087a1.301 1.301 0 0 0-.724-2.45c-.066.007-2.291.237-5.212 1.23-2.725.929-6.072 2.537-8.797 5.316l-6.406-1.69a1.301 1.301 0 0 0-1.455 1.91c.027.04 1.204 2.183 1.332 5.173C70.941 32.938 61.642 37.53 55.4 43.548c-3.437 3.315-5.932 7.061-7.554 11.153-1.623 4.092-2.373 8.521-2.373 13.21.001 6.124 1.288 12.699 3.576 19.626l-11.405-1.865a1.3 1.3 0 0 0-1.506 1.386c.192 2.454 1.12 4.538 2.363 6.22 1.87 2.528 4.416 4.201 6.485 5.275.135.07.261.13.392.194l-6.163 2.102a1.303 1.303 0 0 0-.645 1.977c.054.076 1.091 1.542 3.179 3.177a20.553 20.553 0 0 0 8.891 3.992c.335.845 1.065 2.391 2.514 4.227 2.107 2.674 5.727 5.91 11.686 8.308-.027.312-.058.623-.058.936 0 .968.138 1.941.473 2.872v-.001c.099.276.166.555.227.833-3.056-.384-4.865-1.609-5.98-2.758a7.676 7.676 0 0 1-1.208-1.642 5.52 5.52 0 0 1-.242-.501l-.047-.119-.007-.02-.002.001a1.3 1.3 0 0 0-1.523-.862c-.126.03-3.653.852-7.763 4.046-4.11 3.188-8.775 8.784-11.07 18.15a1.299 1.299 0 0 0 2.307 1.082 16.985 16.985 0 0 1 2.51-2.589c.751-.626 1.63-1.236 2.56-1.676.933-.442 1.909-.711 2.885-.711.879.003 1.769.208 2.725.754.953.547 1.976 1.453 3.02 2.89.227.311.574.505.959.532a1.29 1.29 0 0 0 1.025-.391c.858-.883 1.648-1.438 2.362-1.773.715-.334 1.356-.458 1.977-.459.713-.001 1.418.177 2.113.466-.714 3.415-1.182 6.459-1.335 8.263v-.002c-.042.489-.061.97-.061 1.443.002 2.907.744 5.514 1.958 7.518.61 1.002 1.34 1.856 2.178 2.511.811.633 1.736 1.075 2.729 1.241-1.04 11.538-1.668 23.473-1.668 23.482a1.3 1.3 0 0 0 2.596.137c0-.002.04-.774.119-2.122.23-3.965.782-12.884 1.564-21.501 1.805-.231 3.848-.886 5.75-2.054 1.2-.743 2.337-1.697 3.267-2.893a10.483 10.483 0 0 0 2.002-4.301c.286-1.358.559-3.482.826-6.102.611-6.046 1.156-14.622 1.375-21.201a81.61 81.61 0 0 0 2.605.043c1.847 0 3.788-.059 5.829-.184a1.3 1.3 0 0 0-.16-2.595c-1.99.122-3.877.179-5.67.179-.868 0-1.708-.016-2.531-.042.02-.952.03-1.837.03-2.635 0-1.19-.022-2.189-.075-2.962-.027-.388-.06-.718-.11-1.013a3.627 3.627 0 0 0-.1-.44c-.05-.152-.098-.314-.267-.555l-.002-.003a2.084 2.084 0 0 0-.784-.656 2.134 2.134 0 0 0-.921-.202c-.71.013-1.23.262-1.716.528-.076.043-.137.097-.21.142-.016-.526-.056-1.057-.194-1.581a3.117 3.117 0 0 0-.443-.991 2.034 2.034 0 0 0-1.122-.808l-.003-.001a2.035 2.035 0 0 0-.525-.069c-.464.004-.83.137-1.153.29-.56.276-1.028.654-1.484 1.068-.109.1-.213.204-.318.308-.019-.107-.033-.215-.055-.32-.1-.432-.224-.857-.507-1.294a2.143 2.143 0 0 0-.62-.625 1.87 1.87 0 0 0-1.012-.3c-.21 0-.411.036-.594.092-.45.143-.797.369-1.147.639-.602.476-1.192 1.119-1.786 1.903a19.49 19.49 0 0 0-2.424 4.305c-.22.545-.406 1.11-.573 1.682-5.248-2.209-8.35-5.028-10.146-7.301-.928-1.176-1.51-2.206-1.856-2.928a9.756 9.756 0 0 1-.355-.829 4.765 4.765 0 0 1-.07-.202l-.013-.041v.001a1.28 1.28 0 0 0-.71-.815 1.277 1.277 0 0 0-.566-.256 17.922 17.922 0 0 1-8.274-3.586c-.583-.455-1.06-.89-1.45-1.275l7.606-2.594a1.298 1.298 0 0 0-.061-2.48l-.017-.005c-.245-.07-2.878-.896-5.436-2.663-1.28-.882-2.537-1.993-3.493-3.331a9.6 9.6 0 0 1-1.46-3.072l15.758 2.577a1.3 1.3 0 0 0 .42-2.566l-3.275-.535c-2.504-7.222-3.87-13.972-3.87-20.1 0-4.414.704-8.503 2.19-12.251 2.233-5.62 6.219-10.508 12.427-14.585 5.576-3.658 12.96-6.633 22.396-8.769.126.004.253-.003.377-.036h.002a13.55 13.55 0 0 1 3.083-.366c.768 0 1.586.078 2.33.28.748.204 1.412.525 1.941.997 1.596 1.41 2.648 3.517 3.255 5.285.306.881.505 1.673.625 2.236.06.281.101.506.127.656l.026.168.006.038v.006c.09.693.715 1.192 1.41 1.127a1.302 1.302 0 0 0 1.178-1.369l-.008-.145c-.013-.3-.041-1.048-.041-2.094-.002-2.197.13-5.718.752-9.14a75.239 75.239 0 0 1 5.906-.243c6.761 0 12.41 1.021 17.095 2.887 7.023 2.805 11.921 7.476 15.261 13.703 3.332 6.227 5.056 14.04 5.502 22.963.009.192.065.368.148.528l-3.152 1.932a1.3 1.3 0 0 0 1.359 2.217l13.624-8.351c.047.374.075.746.075 1.112 0 1.51-.372 2.964-.953 4.31-.87 2.017-2.215 3.773-3.344 5.005a21.85 21.85 0 0 1-1.434 1.43 15.06 15.06 0 0 1-.422.37l-.108.09-.025.02-.003.002c-.447.352-.613.95-.41 1.483.202.532.723.87 1.292.836l8.023-.475a16.828 16.828 0 0 1-.972 1.918 17.918 17.918 0 0 1-6.193 6.26 1.283 1.283 0 0 0-.592.866 1.28 1.28 0 0 0-.413 1.06c.034.325.051.657.051.995.005 2.934-1.303 6.421-4.026 10.002-2.611 3.441-6.52 6.949-11.653 10.138a16.708 16.708 0 0 0-1.956-2.26 8.847 8.847 0 0 0-1.17-.949c-.393-.255-.776-.462-1.263-.569a2.04 2.04 0 0 0-.42-.044 1.877 1.877 0 0 0-.761.16c-.424.188-.71.507-.886.795-.264.442-.36.859-.43 1.275a6.628 6.628 0 0 0-.054.504 10.553 10.553 0 0 0-.887-.655 5.543 5.543 0 0 0-.901-.488 2.88 2.88 0 0 0-1.102-.243 1.974 1.974 0 0 0-1.589.775c-.301.397-.422.793-.501 1.167a5.676 5.676 0 0 0-.098 1.119c0 .194.009.388.021.581-.03-.015-.057-.033-.088-.048-.487-.224-1-.425-1.652-.434-.31 0-.664.057-1.009.231-.344.171-.65.466-.842.796l.001-.001-.001.001v.001-.001c-.121.211-.16.359-.195.493a3.55 3.55 0 0 0-.08.559 8.705 8.705 0 0 0-.018.603c.001.906.093 2.212.251 3.815a95 95 0 0 1-8.759 2.443 1.3 1.3 0 0 0 .58 2.535 97.976 97.976 0 0 0 8.468-2.34l.076.645c.566 4.677 1.454 10.671 2.369 16.045a234.92 234.92 0 0 0 1.357 7.355c.437 2.14.838 3.871 1.198 5.027.937 3.02 3.05 5.103 5.354 6.375 1.141.63 2.33 1.078 3.491 1.373.751 6.722 1.362 13.799 1.785 19.221.215 2.752.382 5.078.496 6.715.113 1.637.172 2.581.172 2.583a1.3 1.3 0 1 0 2.595-.162c-.001-.011-.908-14.498-2.384-27.936.255.016.506.025.751.025.754 0 1.452-.072 2.084-.226.919-.225 1.754-.696 2.478-1.326 1.086-.949 1.939-2.256 2.536-3.793.595-1.538.93-3.313.931-5.224 0-.963-.086-1.96-.267-2.976-.33-1.829-1.107-4.919-2.178-8.359a97.482 97.482 0 0 0-.385-1.208c.551-.491 1.134-.948 1.746-1.289.753-.419 1.524-.67 2.394-.672 1.042.003 2.301.359 3.91 1.518.312.226.703.302 1.077.208.374-.093.683-.343.853-.689.928-1.893 1.95-3.042 2.952-3.725 1.004-.68 2.008-.931 3.06-.935 1.83-.011 3.803.861 5.285 1.791a17.746 17.746 0 0 1 2.274 1.686l.121.109.027.026.005.005v-.001a1.299 1.299 0 0 0 2.087-1.463Zm-99.936-.568a7.077 7.077 0 0 0 .477-2.588c0-1.013-.2-2.004-.533-2.936v-.001c-.217-.601-.32-1.271-.32-1.992-.01-2.04.869-4.465 1.974-6.368.548-.951 1.149-1.777 1.675-2.36.17-.187.324-.338.47-.47.085.504.125 1.187.122 1.741a18.724 18.724 0 0 1-.028 1.011l-.005.073c-.041.58.306 1.114.852 1.313a1.298 1.298 0 0 0 1.496-.457l.025-.033c.133-.18.804-1.071 1.562-1.873.376-.401.778-.778 1.102-1.017.01-.007.018-.011.028-.019.042.273.062.624.062.987a18.097 18.097 0 0 1-.158 2.153l-.02.147-.007.044a1.298 1.298 0 0 0 2.237 1.085l.016-.016a13.18 13.18 0 0 1 1.201-1.11c.275-.222.564-.423.808-.56.059.661.094 1.713.093 3.038 0 4.2-.302 11.002-.737 17.353a279.993 279.993 0 0 1-.73 8.819c-.259 2.571-.536 4.672-.781 5.827a7.883 7.883 0 0 1-1.51 3.243c-1.064 1.369-2.552 2.395-4.094 3.066-1.537.674-3.128.982-4.266.979-.282 0-.535-.018-.744-.049-.51-.076-1.055-.313-1.603-.74-.821-.637-1.622-1.702-2.198-3.079-.578-1.376-.938-3.056-.937-4.901 0-.4.016-.807.052-1.22v-.002c.143-1.72.646-4.988 1.416-8.558.768-3.575 1.809-7.483 3.003-10.53Zm74.148 14.024c.155.865.227 1.709.227 2.518.002 2.139-.509 4.035-1.281 5.41-.385.689-.832 1.245-1.294 1.646-.463.403-.933.65-1.389.762a6.284 6.284 0 0 1-1.465.151c-1.616.005-3.784-.454-5.644-1.492-1.871-1.045-3.423-2.603-4.134-4.875-.411-1.312-.979-3.881-1.569-6.999-.89-4.687-1.858-10.673-2.6-15.971-.371-2.65-.686-5.129-.907-7.184-.217-2.006-.341-3.622-.345-4.532.132.059.278.131.43.219.426.244.878.571 1.211.832.167.13.305.245.399.324l.107.092.025.022.005.004a1.3 1.3 0 0 0 2.127-1.29l-.017-.068c-.041-.17-.151-.641-.247-1.211-.098-.568-.179-1.242-.178-1.771-.001-.09.002-.174.007-.254.15.089.322.202.498.335.575.425 1.213 1.023 1.69 1.504.24.241.441.454.581.604l.16.176.04.045.011.012a1.3 1.3 0 0 0 2.257-1.076l-.007-.044c-.036-.224-.192-1.298-.19-2.236a5.679 5.679 0 0 1 .022-.538c.396.297.901.768 1.422 1.369a17.096 17.096 0 0 1 2.464 3.778c.679 1.43 1.11 2.946 1.106 4.277 0 .479-.053.935-.163 1.363v-.001a7.803 7.803 0 0 0-.244 1.955c.001 1.458.382 2.87.994 4.142l.222-.108v.001l-.222.107c1.415 2.933 2.747 6.606 3.791 9.958 1.044 3.348 1.807 6.402 2.1 8.044Z"/><path fill="#191C22" d="M126.868 59.981c-1.033-1.113-2.142-2.072-3.321-2.775-1.177-.7-2.441-1.157-3.763-1.16a6.798 6.798 0 0 0-3.011.72c-1.239.626-2.264 1.646-3.046 2.95-.785 1.307-1.347 2.9-1.716 4.777a1.3 1.3 0 0 0 2.552.5h-.001c.432-2.211 1.152-3.8 2.005-4.795.427-.5.883-.86 1.379-1.11a4.191 4.191 0 0 1 1.66-.436l.178-.005c.7-.003 1.533.255 2.432.792 1.348.799 2.793 2.204 4.063 3.889a25.03 25.03 0 0 1 3.144 5.505 1.3 1.3 0 1 0 2.408-.981c-1.141-2.79-2.902-5.642-4.963-7.871ZM121.484 82.089l.002-.002.002-.003-.004.005ZM123.718 88.51l.006-.003c.364-.176.604-.446.756-.688.229-.37.316-.71.381-1.048.06-.338.081-.679.082-1.025a9.035 9.035 0 0 0-.318-2.346 4.22 4.22 0 0 0-.426-1.037 2.08 2.08 0 0 0-.448-.531 1.582 1.582 0 0 0-1.008-.374 1.548 1.548 0 0 0-.785.217c-.208.125-.354.27-.468.41l-.002.002c-.348.431-.528.897-.644 1.359a5.858 5.858 0 0 0-.158 1.4c.003.77.116 1.515.357 2.183.126.335.277.657.544.975.135.157.305.316.537.449a1.717 1.717 0 0 0 1.594.056ZM120.232 95.325l-.156.295a1.3 1.3 0 0 0 2.296 1.219l.157-.295a1.3 1.3 0 0 0-2.297-1.219ZM125.254 96.503a1.301 1.301 0 0 0 1.758-.54l.416-.785a1.301 1.301 0 0 0-2.298-1.217l-.416.785a1.3 1.3 0 0 0 .54 1.757ZM130.309 93.007l-.587 1.546a1.3 1.3 0 1 0 2.431.923l.586-1.546a1.3 1.3 0 1 0-2.43-.923ZM81.471 99.322l-.212.257a1.3 1.3 0 0 0 2.007 1.653l.212-.257a1.3 1.3 0 0 0-2.007-1.653ZM76.936 99.865l-.565.686a1.3 1.3 0 0 0 2.007 1.654l.565-.686a1.3 1.3 0 0 0-2.007-1.654ZM71.618 100.907l-.885 1.396a1.3 1.3 0 0 0 2.197 1.392l.884-1.397a1.3 1.3 0 1 0-2.196-1.391ZM104.701 103.172a5.167 5.167 0 0 0-1.095-.628c-.39-.159-.82-.26-1.266-.259-.645-.004-1.283.219-1.813.575-.803.54-1.445 1.33-2.126 2.392-.677 1.065-1.38 2.423-2.18 4.141a1.3 1.3 0 1 0 2.358 1.097c1.027-2.216 1.878-3.747 2.557-4.624.337-.44.627-.708.826-.838.206-.131.29-.139.378-.143a.76.76 0 0 1 .286.067c.205.082.517.276.893.6.376.323.816.769 1.312 1.315a1.299 1.299 0 1 0 1.926-1.746c-.716-.786-1.367-1.442-2.056-1.949ZM84.768 69.064a1.3 1.3 0 0 0 .664-1.714c-.873-1.967-1.731-3.622-2.878-4.887-.574-.629-1.232-1.158-1.993-1.523a5.731 5.731 0 0 0-2.512-.556c-.336 0-.678.026-1.027.075-1.398.2-2.715.801-3.914 1.658-1.799 1.29-3.36 3.158-4.613 5.335a23.337 23.337 0 0 0-2.67 7.239 1.3 1.3 0 1 0 2.556.478c.562-3.018 1.876-5.993 3.549-8.224.834-1.116 1.755-2.045 2.69-2.713.937-.67 1.877-1.073 2.768-1.199.237-.034.456-.049.66-.049.548.002.979.105 1.387.3.606.29 1.195.827 1.8 1.69.603.86 1.2 2.023 1.819 3.426a1.3 1.3 0 0 0 1.714.664ZM80.057 91.796c.095-.385.13-.775.13-1.178a7.004 7.004 0 0 0-.313-2.06c-.222-.674-.528-1.346-1.172-1.888l-.001-.002a1.819 1.819 0 0 0-.426-.26 1.527 1.527 0 0 0-1.403.085 1.732 1.732 0 0 0-.66.734 3.174 3.174 0 0 0-.275.951 6.73 6.73 0 0 0-.064.966c.002.746.09 1.54.29 2.266.103.366.23.715.441 1.064.108.174.24.351.429.522.187.168.444.332.767.413a1.723 1.723 0 0 0 1.615-.425c.406-.403.539-.807.642-1.188Z"/><path fill="#191C22" d="M77.803 93.41H77.8l-.002-.001h.004ZM124.229 108.662h.002l.001-.001-.003.001Z"/><path fill="#FFD93A" d="m37.389 71.616-10.654.662a1.297 1.297 0 0 0-1.188 1.58l1.037 4.667c.088.399.363.736.735.904.373.167.807.15 1.164-.049l9.616-5.33a1.3 1.3 0 0 0-.71-2.434ZM38.436 56.847l-10.75-5.322a1.306 1.306 0 0 0-1.165.005 1.305 1.305 0 0 0-.692.937l-.81 4.664a1.297 1.297 0 0 0 1.207 1.52l11.559.659a1.303 1.303 0 0 0 1.33-.966 1.303 1.303 0 0 0-.68-1.497ZM38.421 33.056a1.307 1.307 0 0 0-.995-.513c-.39-.012-.77.155-1.025.45l-3.149 3.655a1.301 1.301 0 0 0 .377 1.998l9.91 5.248a1.303 1.303 0 0 0 1.6-.307 1.303 1.303 0 0 0 .044-1.628l-6.762-8.903ZM144.725 15.86l-3.985-2.644a1.306 1.306 0 0 0-1.157-.14 1.306 1.306 0 0 0-.805.841l-3.23 10.51a1.298 1.298 0 0 0 2.2 1.261l7.216-7.866a1.296 1.296 0 0 0-.239-1.962ZM159.507 32.62a1.305 1.305 0 0 0-.151-1.155l-2.653-3.92a1.295 1.295 0 0 0-.904-.561c-.368-.05-.738.06-1.019.302l-8.783 7.542a1.303 1.303 0 0 0-.288 1.618c.3.539.94.793 1.528.607l11.434-3.62c.39-.124.702-.427.836-.813ZM164.981 48.01a1.302 1.302 0 0 0-1.657-1.178l-10.779 3.092a1.303 1.303 0 0 0-.939 1.33c.038.608.496 1.11 1.097 1.204l11.046 1.724c.385.06.784-.06 1.073-.321.289-.262.447-.646.425-1.036l-.266-4.815Z"/></svg>