<svg xmlns="http://www.w3.org/2000/svg" width="200" height="200" fill="none"><path fill="#FFE632" d="M38.42 33.056a1.306 1.306 0 0 0-.995-.513c-.39-.012-.77.155-1.025.451l-3.148 3.654a1.301 1.301 0 0 0 .377 1.998l9.91 5.248a1.303 1.303 0 0 0 1.599-.307 1.303 1.303 0 0 0 .044-1.628l-6.762-8.903ZM144.723 15.86l-3.984-2.644a1.302 1.302 0 0 0-1.961.701l-3.232 10.51a1.298 1.298 0 0 0 2.2 1.261l7.216-7.866a1.296 1.296 0 0 0-.239-1.962ZM159.508 32.62a1.308 1.308 0 0 0-.151-1.155l-2.653-3.921a1.295 1.295 0 0 0-.904-.56c-.368-.05-.737.06-1.019.302l-8.783 7.542a1.302 1.302 0 0 0-.289 1.619c.299.538.94.792 1.528.607l11.435-3.622c.39-.123.702-.426.836-.812ZM164.434 47.022a1.3 1.3 0 0 0-1.112-.19l-10.779 3.092a1.302 1.302 0 0 0-.939 1.33c.038.608.496 1.11 1.097 1.204l11.045 1.724c.385.06.784-.06 1.073-.32.289-.263.447-.647.425-1.037l-.265-4.815a1.302 1.302 0 0 0-.545-.988Z"/><path fill="#BEBEC9" d="M152.723 115.115c-5.047-2.656-9.101-3.088-9.211-3.102a1.31 1.31 0 0 0-1.006.327 1.307 1.307 0 0 0-.428.953h-.002c.002.002-.025.946-.639 2.059-.549.983-1.52 2.13-3.491 3.005-.223-1.82-.905-3.582-1.768-5.157 5.346-3.326 9.485-7.014 12.329-10.758 2.958-3.9 4.549-7.871 4.555-11.574 0-.293-.024-.579-.044-.866a20.55 20.55 0 0 0 6.96-7.215c1.314-2.303 1.72-4.053 1.741-4.143a1.3 1.3 0 0 0-1.344-1.587l-6.502.385c.335-.38.68-.786 1.03-1.24.898-1.164 1.805-2.566 2.496-4.165.691-1.597 1.167-3.4 1.167-5.34 0-1.156-.171-2.356-.558-3.57a1.3 1.3 0 0 0-1.917-.713l-9.634 5.905c-.701-11.876-3.637-22.075-9.954-29.41-3.228-3.745-7.335-6.713-12.384-8.721-5.05-2.011-11.032-3.07-18.048-3.07-1.709 0-3.501.083-5.335.21.383-1.393.867-2.699 1.464-3.796.788-1.451 1.749-2.513 2.875-3.086a1.301 1.301 0 0 0-.724-2.45c-.066.007-2.291.237-5.211 1.229-2.726.93-6.073 2.538-8.798 5.317l-6.405-1.689a1.3 1.3 0 0 0-1.454 1.91h-.001c.027.04 1.207 2.185 1.333 5.18-13.354 3.111-22.868 7.939-29.104 14.293-6.403 6.515-9.247 14.625-9.235 23.677.001 6.124 1.288 12.699 3.575 19.625l-11.408-1.866a1.3 1.3 0 0 0-1.506 1.385c.192 2.455 1.12 4.54 2.363 6.221 1.87 2.528 4.416 4.2 6.485 5.274.135.07.261.13.392.195l-6.163 2.101a1.302 1.302 0 0 0-.645 1.977c.054.076 1.09 1.543 3.179 3.178a20.55 20.55 0 0 0 8.89 3.992c.335.845 1.065 2.391 2.514 4.227 2.107 2.674 5.728 5.911 11.687 8.309-.027.311-.058.622-.058.935 0 .968.138 1.941.473 2.872.099.276.166.555.227.833-3.057-.385-4.866-1.61-5.98-2.759a7.655 7.655 0 0 1-1.208-1.641 5.473 5.473 0 0 1-.242-.501l-.047-.119-.007-.02-.001.001a1.299 1.299 0 0 0-1.524-.862c-.126.03-3.653.852-7.764 4.046-4.11 3.187-8.774 8.783-11.07 18.149a1.299 1.299 0 0 0 2.308 1.082 17.024 17.024 0 0 1 2.51-2.59c.751-.625 1.63-1.235 2.56-1.675.934-.442 1.909-.712 2.885-.711.879.002 1.769.207 2.725.753.953.547 1.976 1.454 3.02 2.89a1.298 1.298 0 0 0 1.984.142c.859-.884 1.649-1.439 2.363-1.773a4.584 4.584 0 0 1 1.976-.46c.713-.001 1.417.177 2.112.466-.713 3.416-1.182 6.46-1.335 8.264-.042.485-.061.966-.061 1.438.002 2.908.744 5.515 1.959 7.521.61 1.002 1.34 1.856 2.178 2.511.811.633 1.735 1.076 2.729 1.242-1.04 11.538-1.668 23.473-1.668 23.482a1.3 1.3 0 1 0 2.596.136c0-.002.041-.774.119-2.122.23-3.965.782-12.884 1.564-21.501 1.804-.232 3.846-.886 5.747-2.054 1.202-.742 2.338-1.696 3.27-2.892a10.494 10.494 0 0 0 2.002-4.302c.286-1.357.559-3.481.825-6.101.613-6.046 1.157-14.623 1.376-21.203.851.027 1.718.044 2.61.044 1.847 0 3.786-.06 5.824-.185a1.3 1.3 0 0 0-.159-2.594 93.3 93.3 0 0 1-5.664.179c-.87 0-1.713-.016-2.538-.043.02-.949.03-1.833.03-2.629 0-1.192-.022-2.192-.075-2.966-.028-.388-.06-.719-.111-1.014a3.603 3.603 0 0 0-.1-.44c-.051-.153-.098-.315-.268-.557a2.067 2.067 0 0 0-1.706-.86c-.709.013-1.23.263-1.715.528-.076.043-.137.097-.21.143-.016-.527-.056-1.058-.194-1.581a3.118 3.118 0 0 0-.443-.991 2.033 2.033 0 0 0-1.117-.806 1.98 1.98 0 0 0-.533-.072c-.464.004-.83.137-1.153.29-.56.276-1.029.654-1.485 1.068-.108.1-.212.204-.317.307-.019-.108-.033-.216-.056-.322-.1-.432-.224-.856-.507-1.293a2.14 2.14 0 0 0-.62-.624 1.86 1.86 0 0 0-1.011-.299 2 2 0 0 0-.595.092c-.449.143-.796.369-1.145.639-.603.475-1.193 1.118-1.787 1.902a19.497 19.497 0 0 0-2.424 4.306c-.22.545-.407 1.11-.574 1.683-5.247-2.209-8.349-5.029-10.146-7.302-.928-1.176-1.51-2.206-1.856-2.928a9.798 9.798 0 0 1-.355-.829 5.539 5.539 0 0 1-.07-.202l-.013-.039v-.002a1.283 1.283 0 0 0-.71-.814 1.277 1.277 0 0 0-.565-.256 17.923 17.923 0 0 1-8.274-3.586 16.724 16.724 0 0 1-1.45-1.276l7.606-2.594c.538-.183.894-.693.88-1.262a1.298 1.298 0 0 0-.941-1.217l-.017-.005c-.245-.071-2.877-.897-5.436-2.664-1.28-.881-2.537-1.993-3.493-3.33a9.601 9.601 0 0 1-1.46-3.073l15.758 2.578a1.3 1.3 0 0 0 .42-2.566l-3.273-.535c-2.503-7.22-3.87-13.97-3.868-20.098.012-8.53 2.594-15.826 8.491-21.856 5.86-5.98 15.11-10.716 28.544-13.749.118.002.236-.008.352-.039a13.533 13.533 0 0 1 3.085-.365c.768 0 1.585.077 2.33.28.747.203 1.41.525 1.94.996 1.596 1.41 2.648 3.517 3.255 5.285.306.882.505 1.673.625 2.236.06.282.101.507.127.657l.026.168.006.038v.006c.09.692.715 1.192 1.41 1.127a1.302 1.302 0 0 0 1.178-1.368l-.007-.146c-.014-.3-.042-1.049-.042-2.095-.002-2.191.128-5.7.747-9.112a75.752 75.752 0 0 1 5.928-.259c6.756 0 12.403 1.021 17.086 2.886 7.021 2.805 11.917 7.473 15.257 13.7 3.331 6.224 5.054 14.036 5.497 22.96.009.19.065.367.147.526l-3.149 1.93a1.3 1.3 0 1 0 1.359 2.217l13.624-8.35c.046.373.074.744.074 1.11 0 1.511-.372 2.964-.953 4.31-.87 2.017-2.215 3.774-3.344 5.006a21.837 21.837 0 0 1-1.434 1.43 15.23 15.23 0 0 1-.422.37l-.108.09-.025.02-.003.002c-.447.352-.613.95-.41 1.483.202.532.723.87 1.292.836l8.023-.475a16.945 16.945 0 0 1-.971 1.919 17.92 17.92 0 0 1-6.194 6.258 1.286 1.286 0 0 0-.592.866 1.278 1.278 0 0 0-.413 1.061c.033.325.05.658.05.996.005 2.934-1.303 6.42-4.026 10.002-2.61 3.44-6.52 6.947-11.652 10.136a16.841 16.841 0 0 0-1.956-2.26 8.762 8.762 0 0 0-1.171-.948c-.393-.255-.775-.462-1.261-.568a1.976 1.976 0 0 0-.421-.045 1.853 1.853 0 0 0-.761.159c-.424.188-.71.506-.886.795-.265.442-.361.858-.43 1.274a7.176 7.176 0 0 0-.055.506 10.623 10.623 0 0 0-.887-.656 5.664 5.664 0 0 0-.901-.488 2.885 2.885 0 0 0-1.103-.242c-.22 0-.469.032-.724.129a1.982 1.982 0 0 0-.864.646c-.301.396-.421.792-.501 1.166a5.763 5.763 0 0 0-.098 1.12c.001.193.009.387.021.58-.03-.015-.056-.032-.086-.047-.487-.224-1.001-.425-1.653-.434a2.23 2.23 0 0 0-1.008.231 2.075 2.075 0 0 0-.843.797c-.121.211-.159.359-.195.493a3.533 3.533 0 0 0-.08.559 8.686 8.686 0 0 0-.018.603c.001.906.093 2.211.252 3.815a95.115 95.115 0 0 1-8.76 2.442 1.3 1.3 0 1 0 .58 2.535v-.001a97.626 97.626 0 0 0 8.468-2.338l.076.644c.566 4.677 1.453 10.671 2.368 16.045a241.37 241.37 0 0 0 1.357 7.354c.437 2.141.838 3.872 1.198 5.028.938 3.021 3.051 5.103 5.356 6.375 1.14.63 2.329 1.078 3.49 1.372.751 6.722 1.362 13.8 1.785 19.223.215 2.752.382 5.078.496 6.715.113 1.637.172 2.58.172 2.583a1.3 1.3 0 0 0 2.595-.162c-.001-.012-.908-14.499-2.385-27.937.256.016.508.025.753.025.754 0 1.451-.072 2.081-.225.92-.226 1.756-.697 2.48-1.327 1.086-.949 1.94-2.256 2.536-3.793.595-1.538.931-3.314.931-5.225 0-.963-.085-1.96-.267-2.976-.33-1.828-1.108-4.918-2.179-8.358-.124-.398-.253-.802-.384-1.207.551-.491 1.134-.949 1.746-1.29.753-.419 1.525-.671 2.395-.672 1.041.003 2.301.359 3.909 1.518.312.226.703.302 1.077.208.374-.093.683-.343.853-.689.928-1.894 1.95-3.043 2.951-3.725 1.005-.68 2.009-.932 3.061-.936 1.83-.011 3.803.861 5.285 1.791.741.462 1.359.928 1.786 1.273.213.174.378.316.488.414l.121.109.027.025.005.005h.001a1.298 1.298 0 0 0 2.086-1.464c-3.889-8.863-9.927-13.785-14.97-16.435Zm-92.754 23.408a7.201 7.201 0 0 0-3.081.706c-.682.32-1.361.766-2.038 1.324-.941-1.085-1.92-1.904-2.93-2.484-1.332-.767-2.714-1.101-4.019-1.098-1.48 0-2.849.41-4.053.988-.792.381-1.506.84-2.16 1.317 2.323-5.903 5.65-9.593 8.616-11.908 1.853-1.441 3.57-2.34 4.81-2.874.364-.157.68-.28.954-.378a10.26 10.26 0 0 0 1.556 2.096c1.488 1.563 4.004 3.161 7.782 3.568-.027.085-.04.173-.072.256-1.054 2.697-1.956 5.896-2.685 8.996-.818-.298-1.709-.508-2.68-.509Zm7.787-7.54a7.084 7.084 0 0 0 .478-2.59 8.69 8.69 0 0 0-.534-2.935c-.216-.601-.32-1.271-.32-1.992-.01-2.041.87-4.466 1.975-6.368.548-.952 1.149-1.777 1.675-2.36.17-.189.326-.34.472-.472.016.093.032.19.043.292.057.459.076.993.076 1.446a18.924 18.924 0 0 1-.028 1.016l-.005.073a1.299 1.299 0 0 0 2.348.856l.025-.033c.133-.18.804-1.071 1.562-1.874.376-.399.778-.777 1.103-1.016l.028-.019c.042.273.062.623.062.987 0 .567-.046 1.166-.094 1.613a18.38 18.38 0 0 1-.064.539l-.02.147-.007.044a1.3 1.3 0 0 0 2.238 1.086l.015-.016c.094-.101.611-.637 1.201-1.11.275-.222.563-.423.807-.561.06.662.094 1.716.093 3.044 0 4.2-.302 11.002-.736 17.352a278.896 278.896 0 0 1-.73 8.816c-.259 2.571-.536 4.671-.781 5.826a7.877 7.877 0 0 1-1.511 3.243c-1.064 1.37-2.553 2.395-4.096 3.066-1.537.674-3.129.983-4.266.979-.28 0-.53-.018-.742-.049-.51-.075-1.054-.313-1.602-.74-.821-.637-1.622-1.702-2.198-3.08-.58-1.377-.939-3.058-.938-4.902 0-.401.016-.807.052-1.218.143-1.722.646-4.99 1.416-8.561.768-3.574 1.81-7.482 3.003-10.529Zm32.16-108.692c-1.422 2.63-2.172 5.848-2.603 8.907a50.922 50.922 0 0 0-.328 3.054c-.634-1.065-1.428-2.11-2.44-3.015-.899-.8-1.949-1.28-2.985-1.562-1.04-.282-2.075-.37-3.012-.371-.81 0-1.544.068-2.148.15a15.693 15.693 0 0 0-.618-3.426l4.628 1.22c.473.125.977-.027 1.302-.392 2.373-2.671 5.606-4.27 8.264-5.17.125-.042.24-.075.361-.115-.146.235-.288.475-.421.72Zm41.989 122.717c.155.864.228 1.707.228 2.516.001 2.139-.51 4.035-1.282 5.411-.385.688-.832 1.244-1.294 1.646-.464.403-.934.651-1.39.762-.372.092-.88.152-1.463.151-1.616.005-3.784-.453-5.644-1.492-1.872-1.045-3.425-2.603-4.136-4.875-.411-1.312-.978-3.881-1.569-6.999-.89-4.688-1.857-10.673-2.599-15.972a233.526 233.526 0 0 1-.907-7.183c-.217-2.006-.341-3.623-.345-4.533.132.06.278.132.43.22.426.243.878.57 1.21.831.167.131.305.245.399.325l.107.091.025.022.005.005a1.299 1.299 0 0 0 2.127-1.29l-.017-.068a18.46 18.46 0 0 1-.247-1.212c-.097-.568-.179-1.242-.178-1.77-.001-.09.002-.175.007-.254.15.089.322.201.499.335.574.425 1.213 1.022 1.69 1.503.24.241.441.454.581.605l.16.175.04.045.011.012a1.3 1.3 0 0 0 2.257-1.075l-.007-.044c-.037-.225-.192-1.301-.19-2.24a5.62 5.62 0 0 1 .021-.534c.396.297.902.768 1.423 1.369a17.112 17.112 0 0 1 2.464 3.777c.679 1.43 1.11 2.947 1.106 4.278 0 .479-.053.935-.163 1.363a7.805 7.805 0 0 0-.244 1.956c.001 1.456.381 2.868.994 4.14 1.415 2.933 2.746 6.606 3.79 9.958 1.044 3.348 1.808 6.402 2.101 8.045Zm15.989-18.211a7.914 7.914 0 0 0-4.525 1.387c-1.152.785-2.203 1.926-3.126 3.457-1.474-.837-2.885-1.222-4.2-1.22-1.395-.001-2.63.422-3.664 1.003-.499.279-.953.594-1.374.921-.801-2.251-1.695-4.49-2.649-6.47-.469-.97-.737-2.013-.736-3.01 0-.446.052-.883.161-1.307.034-.132.048-.265.074-.397.039-.01.079-.003.117-.016 3.208-1.112 4.974-3.037 5.828-4.698a8.233 8.233 0 0 0 .641-1.638c1.485.315 4.199 1.06 7.288 2.723 3.66 1.972 7.835 5.205 11.194 10.552-1.453-.708-3.167-1.279-5.029-1.287Z"/><path fill="#BEBEC9" d="M126.869 59.98c-1.033-1.113-2.142-2.072-3.321-2.775-1.176-.7-2.44-1.157-3.762-1.16a6.802 6.802 0 0 0-3.012.722c-1.239.626-2.264 1.645-3.046 2.95-.785 1.306-1.347 2.9-1.715 4.776a1.3 1.3 0 1 0 2.552.5h-.001c.431-2.211 1.151-3.8 2.004-4.795.427-.5.884-.859 1.379-1.11a4.203 4.203 0 0 1 1.662-.436l.177-.006c.699-.003 1.532.255 2.431.792 1.348.799 2.793 2.205 4.064 3.889a25.078 25.078 0 0 1 3.144 5.507 1.3 1.3 0 0 0 2.407-.982c-1.141-2.79-2.901-5.643-4.963-7.872ZM123.711 88.512l.011-.006c.365-.175.605-.445.758-.687.228-.37.316-.71.381-1.048.06-.34.081-.68.082-1.026a9.032 9.032 0 0 0-.318-2.346 4.215 4.215 0 0 0-.426-1.037 2.082 2.082 0 0 0-.448-.53 1.58 1.58 0 0 0-1.008-.374 1.542 1.542 0 0 0-.786.218c-.21.125-.357.272-.471.414-.346.43-.526.896-.642 1.357a5.86 5.86 0 0 0-.158 1.4c.003.77.116 1.514.357 2.182.126.335.277.656.544.974.135.157.304.317.536.449a1.72 1.72 0 0 0 1.588.06ZM121.48 82.094l.005-.004.004-.006-.009.01ZM120.232 95.326l-.157.295a1.3 1.3 0 0 0 2.298 1.217l.156-.295a1.3 1.3 0 0 0-2.297-1.217ZM125.254 96.503a1.301 1.301 0 0 0 1.758-.54l.416-.785a1.3 1.3 0 0 0-2.298-1.218l-.416.785a1.3 1.3 0 0 0 .54 1.758ZM130.307 93.008l-.586 1.546a1.301 1.301 0 0 0 2.432.921l.586-1.546a1.3 1.3 0 0 0-2.432-.921ZM81.472 99.32l-.212.258a1.3 1.3 0 0 0 2.006 1.654l.212-.257a1.3 1.3 0 1 0-2.006-1.654ZM76.934 99.866l-.564.687a1.3 1.3 0 0 0 2.008 1.651l.565-.687a1.3 1.3 0 1 0-2.009-1.65ZM71.62 100.906l-.886 1.396a1.3 1.3 0 1 0 2.195 1.393l.886-1.396a1.301 1.301 0 0 0-2.196-1.393ZM104.7 103.172a5.173 5.173 0 0 0-1.095-.628 3.354 3.354 0 0 0-1.267-.259c-.644-.004-1.282.218-1.813.575-.803.54-1.445 1.33-2.126 2.392-.677 1.065-1.38 2.422-2.18 4.141a1.3 1.3 0 0 0 2.358 1.097v-.001c1.028-2.215 1.878-3.746 2.558-4.623.337-.44.626-.708.826-.838.205-.131.289-.14.377-.143.063 0 .148.012.287.067.205.081.516.275.892.6.377.323.817.769 1.312 1.316a1.301 1.301 0 0 0 1.927-1.746c-.715-.787-1.367-1.443-2.056-1.95ZM77.02 60.46h.004-.005ZM84.768 69.065a1.3 1.3 0 0 0 .664-1.714c-.873-1.967-1.731-3.623-2.878-4.887-.573-.63-1.231-1.158-1.993-1.524a5.725 5.725 0 0 0-2.512-.556c-.334 0-.677.025-1.029.076-1.398.2-2.714.801-3.912 1.657-1.8 1.29-3.36 3.158-4.614 5.335a23.342 23.342 0 0 0-2.669 7.24 1.3 1.3 0 1 0 2.556.478c.562-3.019 1.876-5.994 3.549-8.225.834-1.116 1.755-2.045 2.69-2.713.936-.67 1.877-1.073 2.768-1.198h.004c.233-.035.452-.05.657-.05.547.002.978.105 1.386.3.606.29 1.195.827 1.8 1.691.603.86 1.2 2.023 1.818 3.426a1.3 1.3 0 0 0 1.715.664ZM80.057 91.796c.095-.386.13-.775.13-1.178a7 7 0 0 0-.313-2.06c-.222-.673-.528-1.344-1.17-1.886a1.803 1.803 0 0 0-.427-.264 1.526 1.526 0 0 0-1.406.084 1.73 1.73 0 0 0-.66.735c-.164.34-.225.637-.274.95a6.728 6.728 0 0 0-.064.967c.002.745.09 1.539.29 2.266.103.366.23.715.442 1.064.108.174.24.351.429.522.187.168.445.333.769.414l.015.003a1.725 1.725 0 0 0 1.597-.43c.406-.403.54-.806.642-1.187Z"/><path fill="#BEBEC9" d="m78.701 86.67.003.002.003.002-.006-.005ZM77.541 112.234l.005.002h.003l-.008-.002ZM130.395 107.229h.001l.003.001-.004-.001ZM119.195 112.722l.001-.001.001-.002-.002.003ZM124.225 108.664l.004-.002.003-.001-.007.003Z"/><path fill="#FFE632" d="M38.718 72.549a1.299 1.299 0 0 0-1.329-.934l-10.654.663a1.297 1.297 0 0 0-1.188 1.58l1.037 4.667c.088.398.363.736.735.903.373.168.807.15 1.164-.048l9.617-5.33a1.3 1.3 0 0 0 .618-1.501ZM37.784 59.31a1.303 1.303 0 0 0 1.33-.967 1.303 1.303 0 0 0-.68-1.497l-10.748-5.321a1.305 1.305 0 0 0-1.166.006 1.305 1.305 0 0 0-.692.937l-.809 4.663a1.297 1.297 0 0 0 1.207 1.52l11.558.658Z"/></svg>