<svg width="200" height="200" viewBox="0 0 200 200" xmlns="http://www.w3.org/2000/svg"><g id="type=cashback, mode=dark"><path id="Vector" d="M89.9097 58.9951H87.1743V56.2598C87.1742 56.1098 87.1145 55.9659 87.0084 55.8599C86.9023 55.7539 86.7584 55.6943 86.6084 55.6943H83.8726L74.4995 55.543L71.6787 58.5059L68.5938 59.334V77.4629C68.5939 77.6129 68.6535 77.7567 68.7597 77.8627C68.8658 77.9688 69.0097 78.0283 69.1597 78.0283H71.8955V80.7637C71.8955 80.8379 71.91 80.9114 71.9384 80.98C71.9668 81.0486 72.0084 81.1109 72.0608 81.1634C72.1133 81.216 72.1756 81.2576 72.2442 81.286C72.3127 81.3145 72.3862 81.3291 72.4604 81.3291H75.1963V84.0654C75.1965 84.2155 75.2563 84.3593 75.3625 84.4653C75.4687 84.5714 75.6126 84.6309 75.7627 84.6309H83.3067C83.4567 84.6309 83.6005 84.5713 83.7067 84.4653C83.8128 84.3593 83.8725 84.2154 83.8726 84.0654V81.3291H86.6084C86.7584 81.3291 86.9023 81.2696 87.0084 81.1635C87.1145 81.0575 87.1742 80.9137 87.1743 80.7637V78.0283H89.9097C90.0597 78.0283 90.2036 77.9688 90.3097 77.8627C90.4158 77.7567 90.4755 77.6129 90.4756 77.4629V59.5615C90.4756 59.4872 90.461 59.4135 90.4326 59.3448C90.4042 59.2761 90.3625 59.2137 90.31 59.1611C90.2574 59.1085 90.195 59.0668 90.1263 59.0383C90.0576 59.0098 89.984 58.9951 89.9097 58.9951V58.9951ZM84.2388 75.0615C84.2388 75.1941 84.1861 75.3213 84.0923 75.4151C83.9985 75.5088 83.8714 75.5615 83.7388 75.5615H81.4145L81.3154 75.541L81.3286 75.6055V77.9297C81.3284 78.0622 81.2757 78.1893 81.182 78.283C81.0882 78.3768 80.9612 78.4295 80.8286 78.4297H78.5044C78.3718 78.4297 78.2446 78.377 78.1508 78.2832C78.0571 78.1895 78.0044 78.0623 78.0044 77.9297V75.6055C78.0043 75.5398 78.0172 75.4747 78.0423 75.414C78.0674 75.3533 78.1042 75.2982 78.1507 75.2517C78.1971 75.2053 78.2523 75.1685 78.313 75.1434C78.3736 75.1183 78.4387 75.1054 78.5044 75.1055H80.8286L80.9277 75.125L80.9145 75.0615V62.8184C80.9145 62.7527 80.9273 62.6876 80.9524 62.6269C80.9775 62.5662 81.0144 62.5111 81.0608 62.4646C81.1073 62.4182 81.1624 62.3814 81.2231 62.3563C81.2838 62.3312 81.3489 62.3183 81.4145 62.3184H83.7388C83.8044 62.3183 83.8695 62.3312 83.9302 62.3563C83.9909 62.3814 84.046 62.4182 84.0925 62.4646C84.1389 62.5111 84.1758 62.5662 84.2009 62.6269C84.226 62.6876 84.2388 62.7527 84.2388 62.8184V75.0615Z"/><path id="Vector_2" d="M132.035 58.9951H129.299V56.2598C129.299 56.1098 129.24 55.9659 129.133 55.8599C129.027 55.7539 128.883 55.6943 128.733 55.6943H125.998L116.625 55.543L113.804 58.5059L110.719 59.334V77.4629C110.719 77.6129 110.779 77.7567 110.885 77.8627C110.991 77.9688 111.135 78.0283 111.285 78.0283H114.021V80.7637C114.02 80.8379 114.035 80.9114 114.063 80.98C114.092 81.0486 114.133 81.1109 114.186 81.1634C114.238 81.216 114.301 81.2576 114.369 81.286C114.438 81.3145 114.511 81.3291 114.585 81.3291H117.321V84.0654C117.322 84.2155 117.381 84.3593 117.488 84.4653C117.594 84.5714 117.738 84.6309 117.888 84.6309H125.432C125.582 84.6309 125.726 84.5713 125.832 84.4653C125.938 84.3593 125.997 84.2154 125.998 84.0654V81.3291H128.733C128.883 81.3291 129.027 81.2696 129.133 81.1635C129.24 81.0575 129.299 80.9137 129.299 80.7637V78.0283H132.035C132.185 78.0283 132.329 77.9688 132.435 77.8627C132.541 77.7567 132.6 77.6129 132.601 77.4629V59.5615C132.601 59.4872 132.586 59.4135 132.558 59.3448C132.529 59.2761 132.488 59.2137 132.435 59.1611C132.382 59.1085 132.32 59.0668 132.251 59.0383C132.183 59.0098 132.109 58.9951 132.035 58.9951L132.035 58.9951ZM126.364 75.0615C126.364 75.1941 126.311 75.3213 126.217 75.4151C126.124 75.5088 125.996 75.5615 125.864 75.5615H123.54L123.44 75.541L123.454 75.6055V77.9297C123.453 78.0622 123.401 78.1893 123.307 78.283C123.213 78.3768 123.086 78.4295 122.954 78.4297H120.629C120.497 78.4297 120.37 78.377 120.276 78.2832C120.182 78.1895 120.129 78.0623 120.129 77.9297V75.6055C120.129 75.5398 120.142 75.4747 120.167 75.414C120.192 75.3533 120.229 75.2982 120.276 75.2517C120.322 75.2053 120.377 75.1685 120.438 75.1434C120.499 75.1183 120.564 75.1054 120.629 75.1055H122.954L123.053 75.125L123.04 75.0615V62.8184C123.039 62.7527 123.052 62.6876 123.077 62.6269C123.103 62.5662 123.139 62.5111 123.186 62.4646C123.232 62.4182 123.287 62.3814 123.348 62.3563C123.409 62.3312 123.474 62.3183 123.54 62.3184H125.864C125.929 62.3183 125.995 62.3312 126.055 62.3563C126.116 62.3814 126.171 62.4182 126.218 62.4646C126.264 62.5111 126.301 62.5662 126.326 62.6269C126.351 62.6876 126.364 62.7527 126.364 62.8184V75.0615Z"/><path id="Vector_3" d="M111.309 87.2988V90.1289C111.309 90.2033 111.294 90.2769 111.266 90.3456C111.237 90.4143 111.196 90.4767 111.143 90.5293C111.09 90.5819 111.028 90.6237 110.959 90.6522C110.891 90.6806 110.817 90.6953 110.743 90.6953H108.008V93.4307C108.008 93.5807 107.948 93.7246 107.842 93.8306C107.735 93.9366 107.591 93.9961 107.441 93.9961H104.706V96.7315C104.706 96.8057 104.691 96.8792 104.663 96.9478C104.634 97.0164 104.593 97.0787 104.54 97.1312C104.488 97.1837 104.425 97.2254 104.357 97.2538C104.288 97.2822 104.215 97.2969 104.141 97.2969H96.5957C96.4457 97.2969 96.3018 97.2373 96.1957 97.1313C96.0896 97.0253 96.0299 96.8815 96.0298 96.7315V93.9961H93.2944C93.2201 93.9962 93.1465 93.9816 93.0779 93.9532C93.0092 93.9249 92.9468 93.8832 92.8942 93.8307C92.8417 93.7782 92.8 93.7158 92.7716 93.6472C92.7431 93.5785 92.7285 93.505 92.7285 93.4307V90.6953H89.9937C89.9193 90.6953 89.8457 90.6806 89.777 90.6521C89.7083 90.6237 89.6459 90.5819 89.5934 90.5293C89.5408 90.4767 89.4991 90.4143 89.4707 90.3456C89.4423 90.2769 89.4277 90.2033 89.4277 90.1289V87.2988C89.4277 87.224 89.4425 87.15 89.4711 87.0809C89.4998 87.0118 89.5418 86.949 89.5947 86.8961C89.6476 86.8432 89.7104 86.8013 89.7795 86.7727C89.8487 86.7441 89.9228 86.7294 89.9976 86.7295H110.739C110.814 86.7294 110.888 86.7441 110.957 86.7727C111.026 86.8013 111.089 86.8432 111.142 86.8961C111.195 86.949 111.237 87.0118 111.265 87.0809C111.294 87.15 111.309 87.224 111.309 87.2988"/><path id="Vector_4" d="M149.365 117.806C149.185 117.9 149.024 118.029 148.894 118.185C148.763 118.342 148.665 118.522 148.604 118.716C148.543 118.911 148.521 119.115 148.539 119.318C148.558 119.521 148.616 119.718 148.71 119.898L148.715 119.907C148.907 120.268 149.234 120.538 149.624 120.659C150.015 120.78 150.437 120.742 150.799 120.554L150.813 120.547C151.174 120.354 151.444 120.027 151.564 119.637C151.685 119.246 151.647 118.824 151.458 118.461L151.456 118.457C151.361 118.277 151.232 118.117 151.076 117.987C150.92 117.857 150.739 117.758 150.545 117.698C150.351 117.638 150.147 117.616 149.944 117.634C149.742 117.653 149.545 117.711 149.365 117.806H149.365Z"/><path id="Vector_5" d="M149.361 117.808L149.366 117.806L149.37 117.803L149.361 117.808Z"/><path id="Vector_6" d="M141.075 48.5536C137.584 44.564 132.624 41.3374 125.856 39.1284C119.084 36.9172 110.494 35.7028 99.6274 35.7019C89.9676 35.7024 82.1083 36.6627 75.7242 38.4285C66.1554 41.0677 59.8719 45.5769 56.0686 51.3157C52.2621 57.0508 50.9621 63.8884 50.9622 71.0987C50.8749 75.7563 51.5905 80.3942 53.0776 84.809C54.2195 88.0557 55.9704 91.0548 58.2362 93.6453C61.7406 97.6335 66.7092 100.859 73.4721 103.068C80.2383 105.279 88.8071 106.493 99.6274 106.494C109.246 106.494 117.084 105.533 123.46 103.768C133.017 101.128 139.316 96.621 143.14 90.8841C146.967 85.1507 148.293 78.3117 148.293 71.0987C148.381 66.444 147.674 61.8084 146.202 57.3917C145.072 54.1458 143.331 51.1459 141.075 48.5536ZM143.73 83.9318C142.699 86.87 141.116 89.5842 139.066 91.9285C135.908 95.5179 131.392 98.496 124.975 100.597C118.561 102.695 110.254 103.895 99.6274 103.894C90.1822 103.895 82.5683 102.947 76.4889 101.262C67.3626 98.7256 61.7218 94.5865 58.2769 89.4399C54.8352 84.29 53.5624 78.0088 53.5622 71.0986C53.4745 66.7404 54.1308 62.3992 55.5028 58.2617C56.523 55.3253 58.0958 52.6113 60.1364 50.2662C63.2801 46.678 67.7842 43.7006 74.2066 41.6C80.6253 39.5016 88.9535 38.301 99.6274 38.3019C109.115 38.3014 116.75 39.2493 122.837 40.9343C131.975 43.4712 137.596 47.6089 141.02 52.754C144.442 57.9025 145.693 64.1853 145.693 71.0986C145.779 75.4573 145.115 79.7983 143.73 83.9318H143.73Z"/><path id="Vector_7" d="M167.716 12.5794C166.985 12.0909 166.143 11.7921 165.267 11.71C165.041 11.6847 164.814 11.6719 164.586 11.6719C163.337 11.6493 162.122 12.0864 161.174 12.9002C160.072 13.9444 159.415 15.3736 159.341 16.8898C158.933 21.1177 157.589 37.4348 156.72 48.0709C156.56 47.4607 156.401 46.8508 156.221 46.2507C153.41 36.8229 147.992 28.6736 138.875 22.9825C129.76 17.2863 117.046 14.0366 99.6265 14.0359C88.0105 14.0364 78.4951 15.481 70.7344 18.1315C59.0943 22.0962 51.4124 28.8397 46.7534 37.293C44.8071 40.876 43.3369 44.6979 42.3803 48.6616C41.5136 38.0498 40.1266 21.1975 39.7105 16.8895C39.6364 15.3733 38.9801 13.9442 37.8783 12.9C36.9294 12.0863 35.7149 11.6492 34.4651 11.6719C34.2376 11.6719 34.0103 11.6846 33.7842 11.7099C32.5842 11.8088 31.4599 12.3367 30.6174 13.1969C30.1524 13.699 29.8002 14.2947 29.5844 14.9441C29.3401 15.6922 29.2215 16.4756 29.2332 17.2626C29.2332 17.4818 29.2408 17.7074 29.256 17.9393C29.5878 22.9971 31.1145 40.8467 32.049 50.7433C32.1815 53.2008 32.7571 55.6141 33.748 57.8669C34.0946 58.591 34.5612 59.2512 35.1281 59.8196C34.5368 60.2752 34.0295 60.8303 33.6286 61.46L33.629 61.4594C33.1083 62.4031 32.7651 63.4342 32.6165 64.5017C32.3888 65.8916 32.2802 67.2984 32.2918 68.7068C32.295 70.1354 32.3805 71.5627 32.5481 72.9815C32.8121 75.3813 33.351 77.7428 34.1543 80.0195C34.463 80.887 34.8433 81.7273 35.2914 82.5318C35.6391 83.1822 36.0951 83.7686 36.6397 84.2659C37.8575 85.1897 39.273 85.8184 40.7749 86.1023C41.5185 86.2708 42.2726 86.3891 43.032 86.4563C43.0442 86.4956 43.0537 86.5364 43.0659 86.5756C45.7815 95.9581 52.0319 103.921 60.501 108.787C68.1026 113.23 78.1853 116.016 91.3636 116.825V119.4C88.3793 119.589 85.6022 119.845 83.291 120.161C81.976 120.341 80.8077 120.538 79.8177 120.755C78.9777 120.919 78.1564 121.168 77.366 121.496C76.8936 121.728 76.4838 122.07 76.171 122.493C75.5205 123.404 75.0091 124.407 74.6536 125.468C74.4591 125.992 74.2685 126.564 74.081 127.177C73.4702 127.043 72.8531 126.939 72.2318 126.867C72.2214 126.031 71.9723 125.215 71.514 124.516C70.9393 123.719 70.1058 123.145 69.1557 122.894L69.1567 122.894C68.3868 122.664 67.5872 122.547 66.7835 122.548C64.5417 122.627 62.3715 123.358 60.538 124.65C57.5074 126.783 54.9154 129.48 52.9032 132.592C50.9533 135.402 49.4426 138.492 48.4228 141.757C47.7919 143.768 47.4352 145.856 47.3623 147.962C47.3169 149.444 47.677 150.911 48.4038 152.203C48.9036 153.021 49.5607 153.731 50.3371 154.293C50.2469 154.421 50.1407 154.536 50.0578 154.669C49.1159 156.243 48.6386 158.051 48.6811 159.885C48.6878 163.336 50.0467 167.348 52.7811 171.737C54.2112 174.251 56.0698 176.496 58.2729 178.37C59.026 178.965 59.8701 179.434 60.7728 179.76C61.5351 180.026 62.3369 180.16 63.1442 180.158C63.6047 180.156 64.0644 180.118 64.5193 180.047C64.6101 180.025 64.6982 179.993 64.7819 179.951C64.8995 180.256 65.0516 180.546 65.2353 180.816C65.7694 181.593 66.5252 182.19 67.4039 182.53C67.9581 182.742 68.5435 182.861 69.1365 182.883C69.2679 185.147 69.4529 187.302 69.7045 189.293C69.7489 189.634 69.9267 189.943 70.1988 190.154C70.471 190.364 70.8153 190.458 71.1565 190.415C71.4977 190.371 71.8079 190.195 72.0192 189.924C72.2305 189.652 72.3257 189.308 72.2839 188.967V188.967C71.8019 184.836 71.5449 180.682 71.5142 176.524C75.4384 177.649 79.4617 178.395 83.5286 178.751C88.8125 179.266 94.119 179.513 99.4279 179.491C106.276 179.508 113.12 179.144 119.928 178.4C122.442 178.106 124.648 177.763 126.495 177.379C126.59 177.37 126.683 177.366 126.778 177.355C126.88 177.335 126.98 177.303 127.074 177.259C127.16 177.24 127.258 177.222 127.343 177.202C128.221 177.009 129.088 176.763 129.937 176.464C129.948 176.46 129.957 176.455 129.969 176.451C129.915 180.634 129.643 184.811 129.154 188.966C129.133 189.136 129.145 189.308 129.19 189.472C129.235 189.637 129.312 189.791 129.416 189.926C129.521 190.061 129.651 190.174 129.799 190.259C129.947 190.343 130.111 190.398 130.28 190.42C130.45 190.441 130.622 190.429 130.786 190.384C130.951 190.339 131.105 190.262 131.24 190.158C131.375 190.053 131.488 189.923 131.573 189.775C131.657 189.626 131.712 189.463 131.734 189.294C132.358 183.851 132.649 178.375 132.605 172.896C132.587 161.94 131.807 150.998 130.27 140.149C130.262 140.094 130.253 140.042 130.245 139.987C130.718 139.929 131.1 139.874 131.413 139.818L131.452 139.81C132.175 142.278 133.019 145.101 134.019 148.325L134.019 148.328C134.612 150.517 135.672 152.552 137.126 154.292C138.07 155.355 139.291 156.133 140.653 156.54C141.054 159.244 142.365 161.731 144.369 163.59C146.659 165.677 149.657 166.816 152.755 166.777C153.519 166.776 154.282 166.715 155.037 166.594C157.612 166.211 159.99 164.994 161.806 163.13C163.623 161.266 164.779 158.857 165.095 156.273C165.116 156.104 165.102 155.932 165.056 155.767C165.01 155.603 164.932 155.449 164.826 155.314C164.72 155.18 164.589 155.068 164.44 154.984C164.291 154.901 164.127 154.848 163.958 154.827C163.788 154.807 163.616 154.821 163.451 154.867C163.287 154.914 163.133 154.992 162.999 155.098C162.865 155.204 162.753 155.335 162.67 155.484C162.586 155.633 162.533 155.797 162.513 155.967C162.264 157.988 161.358 159.872 159.934 161.328C158.51 162.784 156.647 163.732 154.632 164.026L154.631 164.026C154.01 164.126 153.383 164.176 152.755 164.177C150.309 164.217 147.941 163.324 146.131 161.679C144.452 160.123 143.395 158.009 143.157 155.732C143.109 155.285 143.086 154.835 143.086 154.385C143.046 151.635 143.944 148.954 145.633 146.783C145.772 146.617 145.867 146.42 145.91 146.208C145.953 145.997 145.943 145.778 145.88 145.571C145.817 145.365 145.703 145.177 145.549 145.026C145.395 144.875 145.206 144.764 144.999 144.705C145.086 144.489 145.113 144.254 145.078 144.025C145.042 143.795 144.945 143.58 144.796 143.401C144.686 143.27 144.551 143.163 144.4 143.085C144.248 143.007 144.082 142.959 143.912 142.945C143.742 142.93 143.571 142.95 143.408 143.002C143.246 143.054 143.095 143.137 142.964 143.248C142.188 143.902 141.563 144.719 141.135 145.64C140.706 146.561 140.484 147.564 140.484 148.58C140.485 149.365 140.62 150.144 140.884 150.884C140.677 151.811 140.553 152.755 140.513 153.704C139.963 153.404 139.468 153.011 139.05 152.543C137.853 151.081 136.984 149.38 136.501 147.553L136.502 147.555C135.45 144.162 134.57 141.211 133.825 138.66C134.13 138.188 134.331 137.657 134.418 137.103C134.52 136.507 134.569 135.903 134.563 135.299C134.55 133.551 134.289 131.813 133.788 130.138C133.572 129.386 133.25 128.668 132.833 128.006C132.623 127.683 132.36 127.399 132.054 127.165C131.754 126.941 131.402 126.797 131.032 126.746C131.095 126.557 131.185 126.379 131.301 126.217C131.628 125.804 132.084 125.512 132.595 125.384L132.596 125.384C133.108 125.229 133.641 125.151 134.176 125.151C134.272 125.151 134.367 125.153 134.461 125.158C134.803 125.175 135.139 125.055 135.394 124.824C135.648 124.594 135.801 124.273 135.82 123.93C135.838 123.587 135.72 123.251 135.492 122.995C135.263 122.738 134.943 122.583 134.6 122.562C134.458 122.555 134.317 122.551 134.176 122.551C133.386 122.551 132.601 122.667 131.845 122.895C130.796 123.184 129.87 123.809 129.209 124.673C128.732 125.331 128.432 126.1 128.336 126.907L128.315 126.909C128.023 126.948 127.753 126.994 127.481 127.044C127.147 125.968 126.727 124.919 126.225 123.91C125.972 123.41 125.668 122.937 125.317 122.501C124.99 122.085 124.575 121.745 124.103 121.506L124.102 121.506C123.282 121.152 122.426 120.888 121.549 120.72C117.554 119.985 113.512 119.531 109.454 119.361V116.711C115.882 116.31 122.242 115.167 128.407 113.305C140.02 109.634 147.736 103.331 152.434 95.221C154.045 92.4126 155.327 89.4285 156.256 86.3272C156.45 86.4253 156.666 86.4718 156.883 86.4623C157.667 86.3974 158.446 86.2771 159.214 86.1023C160.715 85.8183 162.131 85.1897 163.348 84.2658C163.893 83.7685 164.349 83.1821 164.696 82.5316C165.394 81.2502 165.944 79.8938 166.336 78.4885C166.858 76.6873 167.228 74.8453 167.44 72.982C167.607 71.5632 167.693 70.1359 167.696 68.7073C167.708 67.2989 167.599 65.8921 167.372 64.5021C167.223 63.4349 166.88 62.4038 166.36 61.4601C165.814 60.6207 165.094 59.9092 164.247 59.3743C164.233 59.3653 164.219 59.3587 164.206 59.3499C164.941 58.5159 165.503 57.5431 165.857 56.4889C166.477 54.629 166.862 52.6988 167.002 50.7434C167.937 40.8467 169.464 22.997 169.795 17.9394C169.811 17.7071 169.818 17.4814 169.818 17.2624C169.83 16.4755 169.711 15.6921 169.467 14.944C169.155 13.9867 168.541 13.1567 167.716 12.5794ZM34.6375 50.4987C33.7058 40.6357 32.1769 22.7528 31.8505 17.7694C31.8388 17.5909 31.8331 17.422 31.8333 17.2626C31.822 16.7625 31.8932 16.264 32.044 15.7871C32.1739 15.3553 32.4444 14.9793 32.8126 14.719C33.1905 14.4757 33.6227 14.3297 34.0707 14.2941L34.0737 14.2937C34.2037 14.2791 34.3343 14.2718 34.4651 14.2718C35.0816 14.2494 35.6846 14.4554 36.1586 14.8501C36.7646 15.4593 37.1103 16.2802 37.1226 17.1394C37.4289 20.3081 38.2777 30.4784 39.0483 39.838C39.4337 44.5194 39.7999 49.0015 40.0697 52.3132C40.2784 54.875 40.4281 56.7191 40.4858 57.4318C39.6988 57.6185 38.9251 57.8578 38.17 58.148C37.9729 58.2244 37.7641 58.326 37.5602 58.4148C36.8908 58.0226 36.3686 57.4217 36.0736 56.7041C35.2303 54.7373 34.744 52.636 34.6375 50.4987ZM41.1421 83.5181C40.1238 83.3145 39.1615 82.8931 38.3213 82.2828C38.0103 81.9786 37.7495 81.627 37.5485 81.2412C36.9521 80.1347 36.4814 78.9649 36.1453 77.7537C35.6651 76.094 35.3257 74.3968 35.1306 72.6802C34.9747 71.3614 34.895 70.0347 34.8918 68.7068C34.8804 67.4492 34.9759 66.1929 35.1773 64.9515C35.2746 64.2108 35.4988 63.4923 35.8399 62.8276L35.8402 62.827C36.1893 62.3087 36.6449 61.8707 37.1765 61.5421C38.0702 60.982 39.0359 60.5461 40.0471 60.2462C40.2572 60.1808 40.4514 60.1255 40.6286 60.0776C40.477 62.2071 40.4013 64.3691 40.4017 66.5635C40.3319 72.3458 40.9645 78.1153 42.2857 83.7451C41.9508 83.6921 41.5583 83.6191 41.1421 83.5181H41.1421ZM68.9257 170.695C68.5586 170.688 68.1953 170.619 67.8517 170.489C67.3694 170.312 66.9688 169.964 66.7259 169.512C66.5922 169.275 66.5207 169.009 66.5179 168.737C66.5128 168.406 66.6375 168.086 66.8651 167.846C66.9967 167.717 67.1535 167.616 67.3257 167.551C67.4979 167.486 67.6818 167.457 67.8657 167.466C68.1413 167.47 68.4145 167.518 68.6753 167.607C68.7809 167.634 68.8895 167.646 68.9984 167.645C68.9672 168.667 68.943 169.684 68.9257 170.695H68.9257ZM66.6336 174.406C66.4998 174.17 66.4282 173.903 66.4254 173.631C66.423 173.335 66.5238 173.048 66.7103 172.818C66.7749 172.846 66.8416 172.886 66.9052 172.911C67.5418 173.156 68.217 173.286 68.8991 173.294C68.8982 173.529 68.8944 173.767 68.8943 174.001C68.8944 174.535 68.8988 175.063 68.9033 175.591C68.5122 175.591 68.1242 175.52 67.758 175.383C67.2763 175.206 66.8762 174.858 66.6336 174.406H66.6336ZM69.5024 157.736C68.0054 156.176 66.408 154.716 64.7204 153.365C65.769 151.822 66.5669 150.123 67.0844 148.33L67.0853 148.328C68.0916 145.101 68.8516 142.262 69.46 139.788C69.5705 139.807 69.6827 139.826 69.8063 139.844C70.2337 139.909 70.7568 139.973 71.4123 140.042C70.6088 145.386 69.946 151.483 69.5024 157.736H69.5024ZM71.7706 129.968L71.771 129.967C71.8224 129.792 71.8658 129.62 71.9101 129.448C72.4078 129.503 72.9024 129.583 73.3919 129.689C73.0585 131.025 72.7367 132.489 72.4266 134.082C72.2179 135.157 72.0168 136.297 71.8208 137.472C71.1202 137.399 70.5959 137.334 70.1941 137.273C70.1459 137.266 70.1083 137.259 70.0636 137.252C70.0903 137.136 70.1191 137.014 70.1452 136.9C70.8438 133.84 71.3134 131.509 71.7706 129.968H71.7706ZM50.9248 142.464C52.2593 138.356 54.3789 134.545 57.1659 131.245C58.5427 129.549 60.1575 128.06 61.9602 126.826C63.3721 125.813 65.0474 125.23 66.7835 125.148C67.3346 125.147 67.8828 125.227 68.4108 125.385L68.4118 125.385C68.7937 125.467 69.1343 125.682 69.3731 125.991C69.5773 126.332 69.6726 126.727 69.6462 127.123C69.6215 127.84 69.4972 128.55 69.277 129.232L69.2774 129.231C68.7648 130.971 68.3045 133.29 67.6107 136.32C66.9185 139.347 66.0005 143.073 64.6037 147.552C64.1935 148.959 63.591 150.303 62.8133 151.545C62.8667 151.328 62.8617 151.101 62.7986 150.887V150.886C62.4511 149.801 61.7917 148.842 60.9027 148.13C60.0137 147.417 58.9344 146.981 57.7995 146.878C57.6224 146.862 57.4458 146.854 57.2698 146.854C55.9992 146.855 54.7642 147.274 53.7546 148.045C52.745 148.817 52.0166 149.898 51.6813 151.124C51.6321 151.313 51.6269 151.511 51.6662 151.702C51.7054 151.894 51.7881 152.073 51.9078 152.228C51.3994 151.866 50.9683 151.407 50.6399 150.876C50.152 149.985 49.9176 148.977 49.9623 147.962C50.0374 146.095 50.3611 144.246 50.9248 142.464ZM59.9159 150.85C59.2035 150.662 58.4704 150.565 57.7338 150.561C56.6035 150.572 55.4847 150.789 54.4325 151.202C54.6989 150.678 55.1047 150.237 55.6053 149.929C56.1059 149.62 56.6819 149.456 57.2698 149.454C57.3664 149.454 57.4644 149.458 57.564 149.467C58.0339 149.509 58.4886 149.655 58.8953 149.894C59.302 150.133 59.6506 150.46 59.9159 150.85H59.9159ZM63.1442 177.558C62.6278 177.561 62.1148 177.475 61.6273 177.305C60.5578 176.884 59.5959 176.23 58.8119 175.39C57.3486 173.865 56.0651 172.178 54.9867 170.36C52.4183 166.254 51.2743 162.633 51.281 159.885C51.239 158.539 51.5794 157.208 52.2628 156.047C52.9359 154.994 53.926 154.181 55.0905 153.727L55.0914 153.727C55.9253 153.363 56.824 153.17 57.7338 153.161C58.5997 153.169 59.4557 153.346 60.2532 153.684C61.689 154.328 63.0133 155.197 64.1766 156.257C65.5316 157.418 66.9333 158.834 68.4231 160.336C68.7209 160.636 69.0019 160.944 69.2776 161.253C69.2056 162.516 69.1438 163.778 69.0922 165.039C68.692 164.932 68.2801 164.873 67.8657 164.866C67.3342 164.857 66.8064 164.956 66.3141 165.157C65.8218 165.358 65.3752 165.656 65.001 166.033C64.3015 166.759 63.9129 167.729 63.9179 168.737C63.9208 169.445 64.1024 170.142 64.4459 170.761C64.53 170.901 64.6218 171.036 64.7207 171.165C64.1441 171.858 63.8274 172.73 63.8255 173.631C63.8284 174.34 64.0101 175.036 64.3537 175.656C64.5284 175.972 64.7397 176.266 64.9831 176.532C64.8132 176.836 64.6856 177.161 64.6039 177.5C64.4482 177.462 64.2869 177.455 64.1283 177.477C63.8028 177.528 63.4738 177.556 63.1442 177.558ZM68.3483 180.107C67.9508 179.956 67.6096 179.686 67.3713 179.334C67.183 179.073 67.0797 178.76 67.0754 178.439C67.0774 178.262 67.1162 178.087 67.1894 177.926C67.745 178.097 68.3224 178.186 68.9037 178.191L68.944 178.19C68.9608 178.889 68.9824 179.579 69.0086 180.262C68.7828 180.239 68.5609 180.187 68.3483 180.107ZM83.7965 176.165C83.7407 176.159 83.6871 176.152 83.6314 176.146C85.9799 175.332 88.2519 174.314 90.7294 173.461C93.8967 172.313 97.2381 171.72 100.607 171.708C104.985 171.78 109.305 172.73 113.309 174.502C114.67 175.035 116.003 175.58 117.366 176.058C112.097 176.576 105.792 176.892 99.4278 176.891C94.2085 176.912 88.9914 176.67 83.7965 176.165ZM131.963 135.299C131.977 135.846 131.92 136.393 131.792 136.925L131.738 137.078C131.48 137.152 131.218 137.212 130.954 137.258C130.687 137.306 130.319 137.359 129.836 137.417C129.472 135.243 129.081 133.229 128.663 131.413C128.521 130.69 128.394 130.053 128.292 129.54C128.411 129.521 128.53 129.503 128.654 129.487C128.951 129.448 129.289 129.415 129.696 129.386L129.699 129.386L129.703 129.385C129.959 129.366 130.251 129.349 130.58 129.332C130.756 129.564 130.9 129.818 131.007 130.089C131.323 130.878 131.555 131.698 131.697 132.536C131.866 133.447 131.955 134.372 131.963 135.299L131.963 135.299ZM120.996 123.261C121.678 123.389 122.345 123.588 122.986 123.854L122.985 123.853C123.114 123.933 123.226 124.037 123.316 124.16C123.82 124.851 124.221 125.612 124.504 126.42C125.166 128.201 125.701 130.026 126.106 131.883L126.203 132.377C126.572 134.253 127.017 136.542 127.382 138.497C129.117 149.882 129.994 161.38 130.005 172.896C130.005 173.128 130.002 173.355 130.001 173.585C129.698 173.762 129.378 173.908 129.045 174.022C128.114 174.34 127.162 174.596 126.197 174.788C125.693 174.838 125.195 174.875 124.716 174.875C122.952 174.855 121.2 174.571 119.521 174.03C116.976 173.26 114.391 172.048 111.366 171.004C107.915 169.76 104.276 169.119 100.607 169.108C95.9174 169.181 91.29 170.192 86.9975 172.082C85.1554 172.809 83.4559 173.516 81.7895 174.031C80.1622 174.567 78.4625 174.852 76.7493 174.874C76.1429 174.874 75.5372 174.834 74.9359 174.755C73.7733 174.492 72.6249 174.169 71.4955 173.788C71.548 162.774 72.3561 151.778 73.9143 140.875C74.4745 136.76 75.2883 132.683 76.3511 128.668C76.6818 127.425 77.117 126.212 77.6522 125.043C77.8073 124.711 77.9958 124.395 78.2147 124.1C78.2707 124.027 78.3333 123.958 78.4017 123.896L78.4454 123.862L78.4466 123.861C79.0696 123.612 79.7149 123.422 80.3738 123.295C83.0212 122.779 85.697 122.421 88.387 122.225C89.5176 123.182 90.7569 124.003 92.0793 124.671L92.1186 124.69C92.2021 124.728 92.3032 124.778 92.4293 124.836L92.4292 124.836L92.4331 124.837L92.4472 124.844L92.4473 124.844C94.8734 125.977 97.5207 126.559 100.199 126.547C103.001 126.536 105.774 125.96 108.349 124.854L108.348 124.851C108.471 124.803 108.586 124.753 108.69 124.702L108.69 124.703C108.704 124.697 108.717 124.69 108.731 124.684L108.742 124.679L108.742 124.678C110.048 124.108 111.261 123.344 112.339 122.411C112.406 122.339 112.465 122.26 112.513 122.174C114.36 122.32 116.078 122.493 117.581 122.691C118.904 122.865 120.065 123.058 120.997 123.261L120.996 123.261ZM106.898 120.808C106.906 120.895 106.924 120.981 106.95 121.064C106.985 121.138 107.027 121.209 107.076 121.274C107.145 121.426 107.263 121.551 107.411 121.628C107.476 121.682 107.546 121.729 107.62 121.769C107.7 121.798 107.782 121.819 107.866 121.832C107.938 121.857 108.013 121.876 108.088 121.888V121.888C108.221 121.895 108.351 121.903 108.483 121.91C108.208 122.055 107.921 122.198 107.617 122.335L107.566 122.36L107.389 122.439L107.319 122.466C105.069 123.432 102.647 123.936 100.199 123.947C97.8975 123.959 95.6226 123.46 93.5386 122.484L93.5207 122.476C93.4467 122.443 93.3538 122.397 93.2428 122.345C92.9877 122.217 92.734 122.079 92.4812 121.934C92.5209 121.931 92.5591 121.929 92.5988 121.926C92.6215 121.928 92.6406 121.94 92.6636 121.94C92.8475 121.938 93.029 121.897 93.1957 121.82C93.3624 121.742 93.5105 121.629 93.6298 121.489C93.6354 121.483 93.6383 121.475 93.6438 121.468C93.7429 121.354 93.8209 121.224 93.8743 121.082C93.891 121.022 93.9034 120.961 93.9113 120.899C93.9379 120.815 93.9554 120.728 93.9636 120.64V116.959C95.7963 117.033 97.6777 117.076 99.6265 117.076C102.139 117.076 104.535 117.002 106.854 116.88V120.59C106.862 120.664 106.877 120.737 106.898 120.808L106.898 120.808ZM137.44 106.543C128.882 111.552 116.671 114.478 99.6265 114.476C88.2666 114.477 79.0468 113.178 71.6329 110.826C60.5089 107.287 53.4556 101.449 49.0688 93.9153C44.6877 86.378 43.0001 77.0401 43.0017 66.5635C42.894 59.9535 43.7436 53.3627 45.5242 46.9961C48.215 38.0378 53.2083 30.5433 61.7577 25.1871C70.3104 19.8361 82.5194 16.6352 99.6265 16.6359C111.028 16.6354 120.263 18.0578 127.679 20.5918C138.804 24.4038 145.849 30.6518 150.225 38.5505C154.595 46.4516 156.255 56.086 156.253 66.5635C156.373 73.0679 155.514 79.5534 153.706 85.8025C151.187 94.5677 145.352 102.007 137.44 106.543L137.44 106.543ZM164.811 64.9513C165.012 66.193 165.107 67.4494 165.096 68.7072C165.093 70.0351 165.013 71.3617 164.857 72.6805C164.616 74.8781 164.124 77.041 163.391 79.1268C163.133 79.8566 162.814 80.5639 162.439 81.2413C162.238 81.627 161.977 81.9786 161.667 82.2828C160.765 82.9288 159.732 83.367 158.641 83.566C158.099 83.6885 157.604 83.7654 157.252 83.8105C157.131 83.826 157.035 83.8366 156.951 83.8454C158.287 78.1838 158.926 72.3801 158.853 66.5634C158.853 64.3063 158.771 62.0835 158.607 59.8949C159.424 60.0712 160.226 60.3141 161.003 60.6211C161.656 60.8737 162.281 61.1947 162.866 61.5786C163.376 61.9012 163.813 62.3265 164.149 62.8274C164.49 63.4923 164.713 64.2108 164.811 64.9514L164.811 64.9513ZM167.201 17.7697C166.874 22.7527 165.345 40.6355 164.414 50.4987C164.317 52.5991 163.833 54.6635 162.987 56.588C162.773 57.0244 162.487 57.4217 162.141 57.763C162.003 57.8921 161.853 58.0065 161.692 58.1043C161.349 57.9753 161.017 57.8588 160.714 57.7639C160.124 57.577 159.523 57.4239 158.915 57.3052C158.802 57.2923 158.688 57.2947 158.576 57.3126C158.64 56.524 158.785 54.7394 158.982 52.3132C159.791 42.3826 161.469 21.8986 161.929 17.1396C161.942 16.2803 162.287 15.4594 162.893 14.85C163.367 14.4553 163.97 14.2494 164.586 14.2718C164.717 14.2718 164.848 14.2791 164.978 14.2936L164.981 14.294C165.565 14.3258 166.119 14.5682 166.539 14.9764C166.751 15.2097 166.911 15.4861 167.008 15.7869C167.158 16.2639 167.229 16.7624 167.218 17.2624C167.218 17.4219 167.212 17.591 167.201 17.7698L167.201 17.7697Z"/><path id="Vector_8" d="M134.088 92.229L134.086 92.231L134.088 92.229Z"/><path id="Vector_9" d="M133.087 89.6389V89.6388C132.862 89.848 132.631 90.0535 132.396 90.2552L132.394 90.257C131.288 91.2024 130.102 92.0507 128.849 92.7926L128.851 92.7914C128.577 92.9545 128.296 93.1156 128.008 93.2749C127.708 93.4426 127.486 93.7226 127.392 94.0535C127.297 94.3844 127.338 94.7392 127.505 95.0402C127.671 95.3412 127.951 95.5638 128.281 95.6592C128.612 95.7546 128.967 95.7151 129.268 95.5493C129.577 95.378 129.881 95.2039 130.179 95.0268L130.181 95.0256C131.561 94.2074 132.868 93.2719 134.088 92.2295C134.352 92.0034 134.608 91.7751 134.856 91.5447C134.981 91.4286 135.082 91.289 135.153 91.1338C135.225 90.9786 135.265 90.8108 135.271 90.6401C135.278 90.4694 135.25 90.2991 135.191 90.139C135.132 89.9788 135.041 89.8319 134.925 89.7067C134.809 89.5815 134.669 89.4804 134.514 89.4093C134.359 89.3381 134.191 89.2982 134.02 89.2919C133.849 89.2856 133.679 89.313 133.519 89.3725C133.359 89.4321 133.212 89.5226 133.087 89.6389L133.087 89.6389Z"/><path id="Vector_10" d="M83.4799 43.2306C78.8597 43.965 74.3764 45.3906 70.1806 47.4596C69.8749 47.618 69.6444 47.8912 69.5399 48.2193C69.4353 48.5474 69.4652 48.9036 69.623 49.2096C69.7807 49.5157 70.0535 49.7467 70.3814 49.8519C70.7093 49.9572 71.0655 49.928 71.3719 49.7709V49.7707C75.3354 47.8219 79.5695 46.4803 83.932 45.7909C84.2693 45.7286 84.5683 45.5355 84.7638 45.2537C84.9594 44.9719 85.0356 44.6242 84.976 44.2864C84.9163 43.9487 84.7256 43.6482 84.4454 43.4504C84.1651 43.2526 83.8181 43.1736 83.4799 43.2306H83.4799Z"/><path id="Vector_11" d="M64.021 51.6777C63.056 52.5516 62.1625 53.5015 61.3492 54.5181C61.1338 54.7874 61.0343 55.1312 61.0724 55.4739C61.1106 55.8166 61.2833 56.13 61.5526 56.3454C61.8219 56.5607 62.1656 56.6602 62.5083 56.6221C62.851 56.5839 63.1645 56.4112 63.3798 56.142V56.1418C64.1067 55.2334 64.9052 54.3845 65.7676 53.6035C66.0229 53.3719 66.1758 53.0483 66.1927 52.704C66.2095 52.3596 66.0888 52.0227 65.8572 51.7673C65.6256 51.512 65.302 51.359 64.9576 51.3422C64.6133 51.3254 64.2764 51.4461 64.021 51.6777L64.021 51.6777Z"/><path id="Vector_12" d="M155.036 166.594H155.035V166.595L155.036 166.594Z"/><path id="Vector_13" d="M154.541 161.382H154.539L154.537 161.383L154.541 161.382Z"/><path id="Vector_14" d="M159.752 157.993C159.839 157.846 159.897 157.684 159.922 157.515C159.946 157.345 159.937 157.173 159.895 157.008C159.853 156.842 159.778 156.686 159.676 156.55C159.573 156.413 159.445 156.297 159.298 156.21C159.151 156.123 158.988 156.066 158.819 156.042C158.65 156.017 158.478 156.027 158.312 156.069C158.147 156.112 157.991 156.186 157.855 156.289C157.718 156.391 157.603 156.52 157.516 156.667C157.18 157.252 156.711 157.75 156.147 158.12C155.583 158.49 154.94 158.722 154.269 158.797L154.265 158.797C154.113 158.814 153.961 158.822 153.808 158.822C152.692 158.791 151.626 158.349 150.814 157.582C150.002 156.815 149.502 155.775 149.407 154.662C149.384 154.441 149.372 154.218 149.372 153.995C149.374 153.662 149.406 153.329 149.467 153.002C149.541 153.425 149.659 153.84 149.818 154.24C149.946 154.558 150.195 154.813 150.511 154.948C150.826 155.083 151.183 155.088 151.502 154.962C151.821 154.835 152.077 154.587 152.215 154.273C152.352 153.958 152.359 153.602 152.235 153.282V153.282C152.09 152.945 152.007 152.585 151.99 152.22L151.996 152.094C152.034 151.751 151.935 151.407 151.719 151.138C151.504 150.869 151.191 150.696 150.848 150.658C150.603 150.637 150.357 150.688 150.141 150.805C150.139 150.584 150.081 150.368 149.971 150.176C149.861 149.985 149.703 149.825 149.513 149.713C149.214 149.541 148.859 149.495 148.526 149.585C148.193 149.674 147.91 149.892 147.738 150.191V150.191C147.089 151.353 146.756 152.665 146.772 153.995C146.772 154.309 146.789 154.623 146.822 154.935L146.822 154.938C146.984 156.69 147.786 158.32 149.075 159.516C150.365 160.712 152.05 161.391 153.808 161.422C155.013 161.421 156.196 161.104 157.239 160.502C158.282 159.901 159.149 159.035 159.752 157.993V157.993Z"/><path id="Vector_15" d="M80.8281 59.3691H78.5039C78.3713 59.3691 78.2441 59.4218 78.1504 59.5156C78.0566 59.6094 78.0039 59.7365 78.0039 59.8691V62.1924C78.0064 62.2402 78.0159 62.2875 78.0322 62.3325C78.0076 62.3254 77.9825 62.3204 77.957 62.3174H75.6328C75.5002 62.3174 75.373 62.3701 75.2793 62.4638C75.1855 62.5576 75.1328 62.6848 75.1328 62.8174V75.0615C75.1328 75.1941 75.1855 75.3213 75.2793 75.4151C75.373 75.5088 75.5002 75.5615 75.6328 75.5615H77.957C78.0896 75.5615 78.2168 75.5088 78.3106 75.4151C78.4043 75.3213 78.457 75.1941 78.457 75.0615V62.8174C78.4545 62.7695 78.445 62.7223 78.4287 62.6772C78.4533 62.6843 78.4784 62.6894 78.5039 62.6924H80.8281C80.9607 62.6924 81.0879 62.6397 81.1817 62.5459C81.2754 62.4522 81.3281 62.325 81.3281 62.1924V59.8691C81.3281 59.7365 81.2754 59.6094 81.1817 59.5156C81.0879 59.4218 80.9607 59.3691 80.8281 59.3691Z"/><path id="Vector_16" d="M83.4555 52.5059H74.6977C74.5651 52.5059 74.438 52.5587 74.3443 52.6524C74.2505 52.7462 74.1978 52.8733 74.1977 53.0059V55.3301H71.8735C71.7409 55.3303 71.6139 55.383 71.5201 55.4767C71.4264 55.5704 71.3737 55.6975 71.3735 55.8301V58.1543C71.3762 58.1741 71.3802 58.1938 71.3854 58.2131C71.3659 58.2079 71.3461 58.2039 71.3261 58.2011H69.002C68.8694 58.2013 68.7423 58.254 68.6486 58.3478C68.5549 58.4415 68.5021 58.5686 68.502 58.7011V74.252C68.5021 74.3846 68.5549 74.5116 68.6486 74.6054C68.7423 74.6991 68.8694 74.7518 69.002 74.752H71.3262C71.4587 74.7518 71.5858 74.6991 71.6795 74.6054C71.7733 74.5116 71.826 74.3846 71.8262 74.252V58.7012C71.8235 58.6813 71.8195 58.6617 71.8143 58.6423C71.8338 58.6476 71.8536 58.6516 71.8735 58.6543H74.1978C74.3304 58.6543 74.4575 58.6017 74.5513 58.5079C74.6451 58.4141 74.6978 58.2869 74.6978 58.1543V55.8301H83.4556C83.5881 55.8299 83.7152 55.7772 83.8089 55.6834C83.9027 55.5897 83.9554 55.4626 83.9556 55.3301V53.0059C83.9554 52.8733 83.9027 52.7462 83.8089 52.6525C83.7152 52.5587 83.5881 52.506 83.4555 52.5059Z"/><path id="Vector_17" d="M122.953 59.3691H120.629C120.496 59.3691 120.369 59.4218 120.275 59.5156C120.182 59.6094 120.129 59.7365 120.129 59.8691V62.1924C120.131 62.2402 120.141 62.2875 120.157 62.3325C120.133 62.3254 120.107 62.3204 120.082 62.3174H117.758C117.625 62.3174 117.498 62.3701 117.404 62.4638C117.31 62.5576 117.258 62.6848 117.258 62.8174V75.0615C117.258 75.1941 117.31 75.3213 117.404 75.4151C117.498 75.5088 117.625 75.5615 117.758 75.5615H120.082C120.215 75.5615 120.342 75.5088 120.436 75.4151C120.529 75.3213 120.582 75.1941 120.582 75.0615V62.8174C120.58 62.7695 120.57 62.7223 120.554 62.6772C120.578 62.6843 120.603 62.6894 120.629 62.6924H122.953C123.086 62.6924 123.213 62.6397 123.307 62.5459C123.4 62.4522 123.453 62.325 123.453 62.1924V59.8691C123.453 59.7365 123.4 59.6094 123.307 59.5156C123.213 59.4218 123.086 59.3691 122.953 59.3691Z"/><path id="Vector_18" d="M125.581 52.5059H116.823C116.69 52.5059 116.563 52.5587 116.469 52.6524C116.376 52.7462 116.323 52.8733 116.323 53.0059V55.3301H113.998C113.866 55.3303 113.739 55.383 113.645 55.4767C113.551 55.5704 113.499 55.6975 113.498 55.8301V58.1543C113.501 58.1741 113.505 58.1938 113.51 58.2131C113.491 58.2079 113.471 58.2039 113.451 58.2011H111.127C110.994 58.2013 110.867 58.254 110.774 58.3478C110.68 58.4415 110.627 58.5686 110.627 58.7011V74.252C110.627 74.3846 110.68 74.5116 110.774 74.6054C110.867 74.6991 110.994 74.7518 111.127 74.752H113.451C113.584 74.7518 113.711 74.6991 113.805 74.6054C113.898 74.5116 113.951 74.3846 113.951 74.252V58.7012C113.948 58.6813 113.944 58.6617 113.939 58.6423C113.959 58.6476 113.979 58.6516 113.999 58.6543H116.323C116.455 58.6543 116.583 58.6017 116.676 58.5079C116.77 58.4141 116.823 58.2869 116.823 58.1543V55.8301H125.581C125.713 55.8299 125.84 55.7772 125.934 55.6834C126.028 55.5897 126.08 55.4626 126.081 55.3301V53.0059C126.08 52.8733 126.028 52.7462 125.934 52.6525C125.84 52.5587 125.713 52.506 125.581 52.5059Z"/><path id="Vector_19" d="M172.17 142.773V142.774L172.171 142.775L172.17 142.773Z"/><path id="Vector_20" d="M175.879 133.455C175.204 131.891 172.841 126.6 170.41 121.247C169.195 118.572 167.964 115.885 166.921 113.646C165.875 111.403 165.027 109.626 164.543 108.708C163.986 107.55 163.202 106.515 162.236 105.667C161.412 104.979 160.373 104.604 159.299 104.605C158.496 104.624 157.701 104.782 156.952 105.074C156.494 105.241 155.729 105.562 154.692 106.011C153.77 106.411 152.641 106.911 151.402 107.468C151.064 107.129 150.661 106.862 150.216 106.684C149.771 106.507 149.295 106.421 148.816 106.433C147.462 106.531 146.146 106.924 144.96 107.585C143.923 108.045 142.938 108.616 142.022 109.286C141.571 109.633 141.184 110.056 140.879 110.536C140.551 111.065 140.376 111.675 140.375 112.298C140.375 112.39 140.39 112.483 140.398 112.575C139.25 113.127 138.199 113.642 137.324 114.084C136.306 114.6 135.532 115.01 135.031 115.318C134.157 115.824 133.415 116.53 132.865 117.377C132.398 118.144 132.157 119.027 132.168 119.924C132.211 121.042 132.445 122.143 132.86 123.181C133 123.567 133.24 124.152 133.575 124.936C134.74 127.667 137.014 132.706 139.191 137.43C140.28 139.791 141.343 142.07 142.231 143.94C143.121 145.813 143.825 147.259 144.23 148.013C144.781 149.128 145.523 150.139 146.423 150.998C146.835 151.369 147.307 151.667 147.818 151.88C148.331 152.088 148.879 152.194 149.432 152.192C150.287 152.171 151.129 151.971 151.902 151.604C152.785 151.212 153.355 150.967 153.701 150.823C153.874 150.75 153.99 150.703 154.061 150.674L154.135 150.645L154.148 150.64L154.149 150.64L154.149 150.64C154.471 150.518 154.732 150.273 154.874 149.958C155.015 149.644 155.027 149.287 154.905 148.964C154.783 148.642 154.538 148.381 154.224 148.239C153.909 148.097 153.552 148.086 153.229 148.208V148.208C153.191 148.222 152.64 148.432 150.847 149.228C150.405 149.446 149.924 149.57 149.432 149.592C149.214 149.594 148.998 149.553 148.796 149.471C148.397 149.288 148.046 149.015 147.77 148.673C147.284 148.091 146.865 147.457 146.52 146.782C146.118 146.034 145.251 144.249 144.191 142.004C142.597 138.629 140.544 134.173 138.803 130.319C137.932 128.392 137.139 126.614 136.521 125.2C135.906 123.793 135.456 122.719 135.306 122.301C134.996 121.544 134.815 120.741 134.768 119.924C134.756 119.506 134.865 119.093 135.082 118.735C135.421 118.236 135.872 117.823 136.399 117.529L136.4 117.529C136.751 117.31 137.512 116.902 138.497 116.405C139.26 116.018 140.17 115.572 141.168 115.09C142.194 117.635 143.43 120.091 144.862 122.432C145.45 123.405 146.274 124.214 147.258 124.784C148.242 125.353 149.354 125.664 150.491 125.688C151.478 125.687 152.45 125.444 153.322 124.981C154.354 124.444 155.204 123.616 155.769 122.599C156.299 121.624 156.573 120.53 156.564 119.421C156.56 118.455 156.375 117.498 156.019 116.601C155.394 115.011 154.692 113.276 153.984 111.729C153.637 110.972 153.289 110.262 152.941 109.627C153.986 109.159 154.936 108.739 155.727 108.396C156.737 107.957 157.51 107.637 157.84 107.518C158.305 107.331 158.799 107.225 159.3 107.205C159.779 107.2 160.243 107.373 160.603 107.69C161.291 108.319 161.849 109.078 162.244 109.922C162.675 110.736 163.529 112.521 164.564 114.744C167.676 121.422 172.505 132.199 173.492 134.486C173.866 135.24 174.089 136.06 174.148 136.9C174.161 137.334 174.017 137.758 173.741 138.093C173.24 138.655 172.624 139.103 171.936 139.408C171.387 139.686 170.272 140.242 170.27 140.243C169.961 140.396 169.727 140.667 169.617 140.993C169.508 141.32 169.532 141.677 169.686 141.986C169.84 142.295 170.11 142.53 170.437 142.639C170.764 142.749 171.121 142.724 171.43 142.57C171.431 142.569 172.547 142.013 173.11 141.728C174.139 141.255 175.052 140.563 175.786 139.7C176.418 138.904 176.758 137.916 176.748 136.9C176.694 135.705 176.398 134.533 175.879 133.455ZM153.964 119.421C153.973 120.089 153.811 120.749 153.495 121.338C153.176 121.913 152.694 122.38 152.11 122.681C151.612 122.948 151.056 123.087 150.491 123.088C149.794 123.063 149.115 122.863 148.516 122.506C147.916 122.15 147.417 121.648 147.063 121.047C145.435 118.396 144.086 115.584 143.038 112.656C142.999 112.54 142.977 112.42 142.975 112.298C142.975 112.153 143.018 112.012 143.098 111.891C143.368 111.521 143.714 111.212 144.113 110.985C144.751 110.593 145.412 110.24 146.091 109.926C146.929 109.446 147.857 109.143 148.816 109.033C148.996 109.028 149.175 109.064 149.339 109.139C149.525 109.236 149.687 109.374 149.814 109.541C150.125 109.949 150.401 110.382 150.64 110.835C151.752 113.016 152.74 115.259 153.599 117.552C153.836 118.146 153.96 118.78 153.964 119.421Z"/><path id="Vector_21" d="M172.337 143.361C172.315 143.157 172.258 142.959 172.17 142.774C172.083 142.599 171.982 142.428 171.836 142.185C171.338 141.357 170.39 139.884 169.489 138.549C169.039 137.882 168.603 137.254 168.238 136.756C168.055 136.506 167.891 136.29 167.741 136.107C167.665 136.015 167.593 135.931 167.516 135.848C167.419 135.743 167.312 135.649 167.196 135.566C166.916 135.374 166.585 135.273 166.246 135.276C165.996 135.278 165.749 135.324 165.515 135.409C165.188 135.531 164.878 135.693 164.592 135.891C164.187 136.166 163.81 136.482 163.468 136.832C163.308 136.993 163.16 137.166 163.026 137.349C162.953 137.449 162.888 137.553 162.83 137.662C162.748 137.815 162.69 137.98 162.657 138.15C162.64 138.24 162.631 138.331 162.632 138.422C162.633 138.581 162.654 138.739 162.693 138.893C162.753 139.124 162.824 139.353 162.909 139.577C163.219 140.428 163.756 141.654 164.226 142.699C164.28 142.819 164.332 142.935 164.384 143.049C163.795 142.257 163.08 141.329 162.438 140.551C162.084 140.121 161.758 139.742 161.472 139.441C161.336 139.297 161.193 139.16 161.041 139.032C160.952 138.956 160.856 138.888 160.754 138.828C160.674 138.781 160.591 138.742 160.504 138.71C160.349 138.652 160.186 138.623 160.022 138.623C159.959 138.623 159.896 138.627 159.833 138.637L159.833 138.637L159.83 138.637L159.811 138.64L159.811 138.641C159.668 138.664 159.527 138.701 159.391 138.75C158.91 138.936 158.455 139.183 158.039 139.487C157.507 139.846 157.057 140.312 156.716 140.855C156.571 141.11 156.498 141.399 156.504 141.691C156.506 141.818 156.516 141.944 156.536 142.068C156.399 142.038 156.26 142.022 156.121 142.021C155.658 142.033 155.204 142.155 154.797 142.378C154.238 142.674 153.741 143.075 153.333 143.559C153.122 143.805 152.942 144.077 152.799 144.368C152.63 144.704 152.539 145.074 152.534 145.45C152.534 145.579 152.546 145.709 152.571 145.836C152.626 146.091 152.701 146.341 152.795 146.585C153.13 147.505 153.766 148.921 154.416 150.291C154.739 150.973 155.064 151.637 155.352 152.206C155.642 152.777 155.888 153.243 156.08 153.569C156.255 153.866 156.54 154.082 156.874 154.168C157.208 154.254 157.562 154.204 157.859 154.029C158.157 153.854 158.372 153.568 158.458 153.235C158.544 152.901 158.495 152.546 158.32 152.249V152.249C158.165 151.989 157.877 151.443 157.551 150.792C157.06 149.811 156.467 148.566 155.985 147.486C155.744 146.947 155.53 146.448 155.374 146.052C155.296 145.855 155.232 145.684 155.188 145.554L155.159 145.463C155.192 145.403 155.23 145.346 155.274 145.292C155.437 145.088 155.632 144.911 155.852 144.768C155.88 144.75 155.895 144.747 155.921 144.732C155.952 144.772 155.983 144.812 156.016 144.856C156.671 145.718 157.848 147.449 158.839 148.937C159.336 149.683 159.79 150.373 160.119 150.875C160.449 151.378 160.653 151.692 160.653 151.692C160.834 151.971 161.116 152.17 161.439 152.248C161.762 152.326 162.103 152.277 162.391 152.111C162.68 151.946 162.893 151.676 162.989 151.357C163.084 151.039 163.054 150.696 162.904 150.399C162.904 150.398 162.844 150.281 162.738 150.067C162.365 149.318 161.428 147.415 160.592 145.556C160.175 144.627 159.782 143.708 159.504 142.968C159.365 142.599 159.255 142.274 159.186 142.032C159.174 141.989 159.17 141.966 159.161 141.929C159.316 141.774 159.488 141.637 159.673 141.518C159.71 141.493 159.746 141.473 159.784 141.45C160.28 142 161.025 142.924 161.7 143.807C162.068 144.288 162.417 144.756 162.698 145.143C162.977 145.527 163.198 145.847 163.271 145.967L163.272 145.968C163.417 146.218 163.547 146.476 163.661 146.741C163.89 147.251 164.134 147.864 164.316 148.342C164.407 148.581 164.484 148.787 164.537 148.933C164.591 149.079 164.62 149.16 164.62 149.16C164.676 149.322 164.764 149.47 164.879 149.598C164.993 149.725 165.131 149.829 165.286 149.903C165.44 149.977 165.608 150.019 165.779 150.028C165.95 150.037 166.121 150.012 166.282 149.955C166.443 149.897 166.592 149.809 166.719 149.694C166.845 149.579 166.948 149.44 167.022 149.286C167.095 149.131 167.137 148.963 167.145 148.792C167.153 148.621 167.127 148.45 167.069 148.289C167.066 148.28 166.838 147.638 166.533 146.869C166.514 146.821 166.49 146.769 166.47 146.72L167.451 144.57C167.529 144.398 167.569 144.211 167.567 144.023C167.566 143.834 167.524 143.648 167.444 143.477C167.444 143.476 167.301 143.172 167.084 142.7C166.758 141.994 166.269 140.916 165.867 139.971C165.667 139.499 165.488 139.058 165.367 138.73C165.355 138.697 165.347 138.671 165.336 138.641L165.358 138.617C165.554 138.424 165.765 138.248 165.99 138.09C166.537 138.816 167.425 140.123 168.208 141.32C168.618 141.946 169.001 142.545 169.298 143.021C169.447 143.259 169.574 143.466 169.669 143.627C169.706 143.689 169.734 143.739 169.761 143.786L169.762 143.803C169.734 144.446 169.656 145.086 169.53 145.717C169.261 147.2 168.877 148.659 168.382 150.082C168.153 150.741 167.878 151.382 167.557 152C167.353 152.417 167.085 152.798 166.763 153.132C166.247 153.564 165.672 153.921 165.056 154.193C162.349 155.407 159.431 156.081 156.466 156.178C155.811 156.197 155.156 156.117 154.526 155.939C154.048 155.731 153.627 155.41 153.3 155.005C152.851 154.494 152.49 153.912 152.233 153.282C152.17 153.123 152.077 152.978 151.958 152.856C151.839 152.733 151.697 152.635 151.541 152.567C151.224 152.431 150.866 152.425 150.546 152.552C150.225 152.679 149.968 152.928 149.831 153.245C149.695 153.561 149.689 153.919 149.816 154.24C150.183 155.15 150.703 155.991 151.353 156.727C151.977 157.478 152.785 158.055 153.697 158.403L153.698 158.403C154.595 158.674 155.529 158.8 156.465 158.778C158.721 158.726 160.959 158.361 163.114 157.694C164.16 157.387 165.182 157.001 166.171 156.541C167.025 156.16 167.819 155.655 168.527 155.042C169.243 154.312 169.813 153.452 170.205 152.508C170.882 150.957 171.407 149.345 171.775 147.694C171.959 146.901 172.103 146.149 172.203 145.491C172.296 144.933 172.349 144.369 172.362 143.803C172.363 143.656 172.355 143.508 172.337 143.361ZM157.416 142.501L157.418 142.503L157.418 142.503L157.416 142.501Z"/></g></svg>