<svg xmlns="http://www.w3.org/2000/svg" width="200" height="200" fill="none"><path fill="#FFD93A" d="M134.167 118.333c-.502 3.134 8.416 21.334 9.916 25.834s3 6.333 5.167 6.666c2.167.334 5.75-1.833 5.75-1.833l-1.167-4 4-2.667 2.75-2.333 4.334 5.333.916-1.5-1.583-5.583 2.167-1.333 4 5.166 4.333-3.166a6.21 6.21 0 0 0-.333-4.75C173.167 131.75 162.083 108 162.083 108s-3.083-2.667-4.666-2.083c-1.584.583-6.167 2.916-6.167 2.916a2.055 2.055 0 0 0-2.917-1.25c-2.333.834-5.75 1.667-6.166 2.917a6.508 6.508 0 0 0 .083 3.083s-7.75 2.667-8.083 4.75ZM113.5 85.75H86.625v13.875H113.5V85.75ZM67 50.875V85.25h67.75V50.875H67ZM81.337 62.14a.5.5 0 0 1-.5.5h-2.324a.476.476 0 0 1-.076-.016.484.484 0 0 1 .029.14V75.01a.5.5 0 0 1-.5.5h-2.324a.501.501 0 0 1-.5-.5V62.765a.5.5 0 0 1 .5-.5h2.324c.025.003.05.008.076.015a.484.484 0 0 1-.029-.14v-2.325a.5.5 0 0 1 .5-.5h2.324a.5.5 0 0 1 .5.5v2.325Zm2.628-6.863a.5.5 0 0 1-.5.5h-8.758v2.325a.5.5 0 0 1-.5.5h-2.324a.498.498 0 0 1-.06-.012c.006.019.01.039.012.058v15.55a.5.5 0 0 1-.5.5h-2.324a.501.501 0 0 1-.5-.5v-15.55a.5.5 0 0 1 .5-.5h2.324l.06.012a.454.454 0 0 1-.012-.058v-2.325a.5.5 0 0 1 .5-.5h2.324v-2.324a.5.5 0 0 1 .5-.5h8.758a.5.5 0 0 1 .5.5v2.324Zm39.497 6.863a.503.503 0 0 1-.5.5h-2.324a.499.499 0 0 1-.076-.016.482.482 0 0 1 .029.14V75.01a.5.5 0 0 1-.5.5h-2.324a.502.502 0 0 1-.5-.5V62.765a.502.502 0 0 1 .5-.5h2.324a.464.464 0 0 1 .075.015.516.516 0 0 1-.028-.14v-2.325a.499.499 0 0 1 .5-.5h2.324a.501.501 0 0 1 .5.5v2.325Zm2.628-6.863a.5.5 0 0 1-.5.5h-8.758v2.325a.503.503 0 0 1-.5.5h-2.324a.474.474 0 0 1-.059-.012c.005.019.009.039.011.058v15.55a.499.499 0 0 1-.5.5h-2.324a.499.499 0 0 1-.5-.5v-15.55a.5.5 0 0 1 .5-.5h2.324a.53.53 0 0 1 .06.012.3.3 0 0 1-.012-.058v-2.325a.502.502 0 0 1 .5-.5h2.324v-2.324a.503.503 0 0 1 .5-.5h8.758a.499.499 0 0 1 .5.5v2.324Z"/><path fill="#191C22" d="M123.468 103.715c9.557-2.64 15.855-7.147 19.68-12.884 3.827-5.734 5.152-12.572 5.152-19.785a40.93 40.93 0 0 0-2.09-13.707 26.976 26.976 0 0 0-5.128-8.838c-3.49-3.99-8.45-7.216-15.219-9.425-6.772-2.211-15.361-3.426-26.228-3.427-9.66 0-17.52.961-23.903 2.727-9.569 2.639-15.852 7.148-19.656 12.887-3.806 5.735-5.106 12.573-5.106 19.783a40.57 40.57 0 0 0 2.115 13.71 27.054 27.054 0 0 0 5.159 8.836c3.504 3.988 8.473 7.214 15.236 9.423 6.766 2.211 15.335 3.426 26.155 3.427 9.618-.001 17.457-.961 23.833-2.727Zm-62.31-52.42a24.34 24.34 0 0 1 2.67-2.842 1.3 1.3 0 0 1 1.748 1.925c-.862.782-1.66 1.63-2.387 2.54a1.3 1.3 0 0 1-2.032-1.623ZM84.794 41.06a1.3 1.3 0 0 1-1.054 1.506 44.09 44.09 0 0 0-12.561 3.981 1.3 1.3 0 0 1-1.191-2.311 46.65 46.65 0 0 1 13.3-4.23 1.302 1.302 0 0 1 1.506 1.054Zm-9.59 42.952v-2.736H72.47a.564.564 0 0 1-.566-.565v-2.735h-2.736a.566.566 0 0 1-.566-.567v-2.938a.488.488 0 0 1-.091-.273v-15.55a.5.5 0 0 1 .5-.5h2.324l.06.012a.472.472 0 0 1-.013-.058v-2.325a.5.5 0 0 1 .5-.5h2.325v-2.324a.5.5 0 0 1 .5-.5h8.757a.497.497 0 0 1 .5.5v2.324a.496.496 0 0 1-.16.362l.077.002h2.736a.566.566 0 0 1 .566.566v2.735h2.735a.566.566 0 0 1 .566.566v17.901a.566.566 0 0 1-.566.567h-2.735v2.735a.566.566 0 0 1-.566.565h-2.736v2.736a.566.566 0 0 1-.566.566h-7.544a.567.567 0 0 1-.566-.566Zm35.431-25.364a.503.503 0 0 1 .5-.5h2.324a.44.44 0 0 1 .059.012.585.585 0 0 1-.012-.058v-2.325a.503.503 0 0 1 .5-.5h2.324v-2.324a.5.5 0 0 1 .5-.5h8.758a.5.5 0 0 1 .5.5v2.324a.49.49 0 0 1-.159.362l.076.002h2.736a.566.566 0 0 1 .566.566v2.735h2.735a.562.562 0 0 1 .523.35.574.574 0 0 1 .043.216v17.901a.567.567 0 0 1-.566.567h-2.735v2.735a.574.574 0 0 1-.166.4.564.564 0 0 1-.4.165h-2.736v2.736a.566.566 0 0 1-.566.566h-7.544a.566.566 0 0 1-.566-.566v-2.736h-2.735a.566.566 0 0 1-.566-.565v-2.735h-2.736a.566.566 0 0 1-.566-.567v-2.938a.486.486 0 0 1-.091-.273v-15.55Zm25.005 34.754c-.248.23-.504.459-.767.686l.001-.001a28.09 28.09 0 0 1-3.908 2.796c-.3.18-.605.354-.915.525a1.292 1.292 0 0 1-.989.11 1.293 1.293 0 0 1-.777-.62 1.291 1.291 0 0 1-.111-.989 1.287 1.287 0 0 1 .62-.778c.288-.158.568-.319.84-.48a25.433 25.433 0 0 0 3.546-2.537h.001c.235-.202.465-.408.691-.618a1.3 1.3 0 1 1 1.768 1.906Zm-24.894-6.726a.568.568 0 0 1 .57.57v2.83a.555.555 0 0 1-.166.4.554.554 0 0 1-.4.166h-2.735v2.736a.573.573 0 0 1-.166.4.565.565 0 0 1-.4.165h-2.735v2.736a.574.574 0 0 1-.166.4.567.567 0 0 1-.4.165h-7.544a.566.566 0 0 1-.566-.565v-2.736h-2.736a.566.566 0 0 1-.566-.565v-2.736h-2.735a.564.564 0 0 1-.566-.566v-2.83a.57.57 0 0 1 .57-.57h20.741Z"/><path fill="#191C22" d="M175.889 133.402c-.676-1.564-3.039-6.855-5.47-12.208a895.73 895.73 0 0 0-3.489-7.601c-1.045-2.243-1.893-4.02-2.377-4.938a9.555 9.555 0 0 0-2.308-3.042 4.576 4.576 0 0 0-2.937-1.061 6.908 6.908 0 0 0-2.347.468h-.001c-.457.167-1.222.488-2.259.938-.922.4-2.051.901-3.29 1.458a3.513 3.513 0 0 0-2.587-1.036 9.285 9.285 0 0 0-3.856 1.153 15.876 15.876 0 0 0-2.936 1.7 4.88 4.88 0 0 0-1.143 1.25 3.346 3.346 0 0 0-.505 1.762c0 .092.016.185.023.277a184.361 184.361 0 0 0-3.074 1.509c-1.018.516-1.792.925-2.292 1.234a6.408 6.408 0 0 0-2.167 2.058 4.786 4.786 0 0 0-.697 2.548c.029.949.209 1.888.533 2.78a8.247 8.247 0 0 0-.852.189h-.001a4.98 4.98 0 0 0-2.644 1.785 4.776 4.776 0 0 0-.869 2.229l-.022.003c-.292.038-.564.084-.837.135a20.98 20.98 0 0 0-1.255-3.129 8.012 8.012 0 0 0-.908-1.41 3.636 3.636 0 0 0-1.215-.995 9.426 9.426 0 0 0-1.591-.554 58.943 58.943 0 0 0-9.205-1.326c-1.228-.104-2.528-.19-3.853-.269v-2.651a83.534 83.534 0 0 0 18.957-3.407c11.612-3.671 19.328-9.974 24.026-18.084a42.275 42.275 0 0 0 3.823-8.893c.193.099.409.145.626.135a16.673 16.673 0 0 0 2.331-.36 9.872 9.872 0 0 0 4.135-1.836 6.473 6.473 0 0 0 1.348-1.734 19.284 19.284 0 0 0 1.64-4.043 33.318 33.318 0 0 0 1.103-5.507c.168-1.42.254-2.848.257-4.277a24.766 24.766 0 0 0-.325-4.204 8.788 8.788 0 0 0-1.012-3.041 6.94 6.94 0 0 0-2.112-2.085c-.014-.01-.028-.016-.042-.025a8.33 8.33 0 0 0 1.652-2.86c.62-1.86 1.005-3.79 1.145-5.745.935-9.898 2.461-27.749 2.793-32.805.015-.233.023-.459.023-.678a7.128 7.128 0 0 0-.351-2.319 4.642 4.642 0 0 0-1.752-2.365 5.3 5.3 0 0 0-2.448-.869 6.118 6.118 0 0 0-.679-.038 5.103 5.103 0 0 0-3.414 1.228 5.894 5.894 0 0 0-1.833 3.99c-.409 4.229-1.753 20.547-2.622 31.183a51.743 51.743 0 0 0-.499-1.822C153.417 36.77 148 28.62 138.882 22.93c-9.114-5.696-21.828-8.946-39.247-8.947-11.616 0-21.132 1.445-28.893 4.096-11.64 3.965-19.322 10.708-23.981 19.162a46.835 46.835 0 0 0-4.373 11.368c-.867-10.612-2.253-27.463-2.67-31.771a5.894 5.894 0 0 0-1.833-3.99 5.104 5.104 0 0 0-3.414-1.229c-.227 0-.453.013-.678.038a5.008 5.008 0 0 0-3.168 1.487 4.797 4.797 0 0 0-1.033 1.747 7.128 7.128 0 0 0-.351 2.319c0 .22.008.445.023.678.332 5.056 1.858 22.907 2.793 32.804.132 2.458.708 4.87 1.699 7.123a7.116 7.116 0 0 0 1.38 1.953 6.434 6.434 0 0 0-1.5 1.64 8.813 8.813 0 0 0-1.012 3.041 24.735 24.735 0 0 0-.324 4.204c.003 1.43.089 2.857.257 4.277a31.5 31.5 0 0 0 1.605 7.038c.309.867.689 1.707 1.137 2.512.348.65.803 1.237 1.348 1.734a9.879 9.879 0 0 0 4.135 1.837c.744.168 1.498.286 2.258.354.012.039.021.08.033.118a37.711 37.711 0 0 0 17.436 22.212c7.602 4.442 17.685 7.229 30.865 8.037v2.572c-1.694.106-3.321.234-4.831.381-2.093.205-3.966.447-5.517.727-.775.14-1.47.29-2.08.453a9.434 9.434 0 0 0-1.592.554c-.473.24-.887.579-1.215.995a11.064 11.064 0 0 0-1.608 2.97 28.134 28.134 0 0 0-.59 1.672 17.328 17.328 0 0 0-1.158-.209 4.791 4.791 0 0 0-.872-2.261 4.978 4.978 0 0 0-2.644-1.785h-.001a8.244 8.244 0 0 0-2.376-.347c-2.247.08-4.423.81-6.264 2.1a29.086 29.086 0 0 0-7.686 7.94 33.37 33.37 0 0 0-4.51 9.167 23.5 23.5 0 0 0-1.058 6.208 9.144 9.144 0 0 0 .416 2.857 6.977 6.977 0 0 0 2.395 3.375c.049.038.106.07.156.107-.088.125-.192.238-.273.369a9.72 9.72 0 0 0-1.377 5.215c.007 3.451 1.366 7.463 4.1 11.852a24.822 24.822 0 0 0 5.493 6.635 8.92 8.92 0 0 0 2.5 1.389c.763.266 1.565.4 2.372.398.46-.002.92-.039 1.374-.111.09-.022.178-.054.262-.096.117.305.27.595.453.865a4.682 4.682 0 0 0 2.167 1.713 5.39 5.39 0 0 0 1.725.353c.139 2.264.329 4.421.58 6.415a1.3 1.3 0 0 0 2.58-.326 120.239 120.239 0 0 1-.81-12.46 63.618 63.618 0 0 0 12.053 2.24c5.285.514 10.592.761 15.901.74 6.848.017 13.691-.348 20.498-1.091 2.514-.294 4.719-.637 6.566-1.02.067-.007.132-.01.199-.018l.033-.002v-.001l.051-.004a1.3 1.3 0 0 0 .304-.098c.084-.019.179-.036.261-.054a22.42 22.42 0 0 0 2.594-.738c.012-.005.02-.01.032-.014a120.434 120.434 0 0 1-.811 12.52c-.043.342.051.687.262.96a1.296 1.296 0 0 0 1.824.23c.273-.211.45-.522.493-.864.622-5.433.911-10.898.868-16.366a236.303 236.303 0 0 0-2.336-32.765l-.028-.179c.475-.058.858-.113 1.172-.17l.041-.008a489.63 489.63 0 0 0 2.573 8.518 14.633 14.633 0 0 0 3.629 6.494 7.422 7.422 0 0 0 2.996 1.728 12.027 12.027 0 0 0 3.72 7.043 12.23 12.23 0 0 0 8.388 3.186 14.635 14.635 0 0 0 2.28-.182 11.925 11.925 0 0 0 9.94-9.552c.411-.161.817-.325 1.192-.503a9.51 9.51 0 0 0 2.355-1.499 8.001 8.001 0 0 0 1.68-2.535 20.07 20.07 0 0 0 .722-1.854l.003-.009c.07-.205.142-.407.207-.614a35.523 35.523 0 0 0 .638-2.337c.184-.793.328-1.545.428-2.204.093-.557.145-1.121.158-1.686a3.626 3.626 0 0 0-.024-.442 1.815 1.815 0 0 0-.167-.586 7.191 7.191 0 0 0-.252-.45l1.191-.597a7.782 7.782 0 0 0 2.676-2.029 4.425 4.425 0 0 0 .962-2.8 8.864 8.864 0 0 0-.868-3.444Zm-32.782-21.563c.271-.371.617-.68 1.015-.907a19.252 19.252 0 0 1 1.978-1.059 7.127 7.127 0 0 1 2.724-.893c.181-.006.36.031.523.106a1.4 1.4 0 0 1 .475.403c.312.407.588.84.827 1.294a64.514 64.514 0 0 1 2.959 6.716 5.14 5.14 0 0 1 .365 1.87 3.943 3.943 0 0 1-.468 1.917 3.33 3.33 0 0 1-1.385 1.342 3.438 3.438 0 0 1-1.619.407 4.151 4.151 0 0 1-3.429-2.042 44.931 44.931 0 0 1-4.024-8.39 1.178 1.178 0 0 1-.064-.358.74.74 0 0 1 .123-.406Zm21.711-46.941c.202 1.241.297 2.497.286 3.754a34.751 34.751 0 0 1-.239 3.976 28.966 28.966 0 0 1-1.465 6.446c-.259.73-.578 1.437-.953 2.115a4.143 4.143 0 0 1-.772 1.041 7.51 7.51 0 0 1-3.026 1.283 15.134 15.134 0 0 1-1.691.28 71.35 71.35 0 0 0 1.902-17.282c0-2.257-.082-4.48-.246-6.669.818.176 1.619.42 2.397.727a9.95 9.95 0 0 1 1.863.957c.51.322.946.748 1.282 1.249a6.5 6.5 0 0 1 .662 2.123ZM158.99 52.26c.809-9.931 2.487-30.415 2.947-35.174.012-.86.358-1.68.964-2.29a2.508 2.508 0 0 1 1.695-.579c.131 0 .261.008.391.022h.002a2.423 2.423 0 0 1 1.557.683c.213.233.373.51.469.81.151.477.222.976.211 1.476 0 .16-.006.329-.017.508-.327 4.982-1.856 22.866-2.787 32.73-.097 2.1-.58 4.164-1.427 6.088-.214.437-.5.834-.846 1.175-.138.13-.288.244-.449.342a18.836 18.836 0 0 0-.978-.34 16.337 16.337 0 0 0-1.799-.46 1.25 1.25 0 0 0-.339.008l.406-5ZM34.645 50.447c-.931-9.864-2.46-27.748-2.787-32.73a7.593 7.593 0 0 1-.017-.508c-.011-.5.06-.999.21-1.476.13-.431.401-.807.77-1.068.377-.243.81-.389 1.258-.425h.001c.13-.014.26-.022.39-.022a2.506 2.506 0 0 1 1.696.579c.606.61.952 1.43.965 2.29.306 3.168 1.154 13.339 1.925 22.698a14875.795 14875.795 0 0 1 1.437 17.594c-.787.187-1.56.426-2.315.716-.197.077-.405.178-.61.267a3.542 3.542 0 0 1-1.487-1.711 18.016 18.016 0 0 1-1.436-6.204Zm6.504 33.018a7.204 7.204 0 0 1-2.82-1.235 4.119 4.119 0 0 1-.773-1.041 16.83 16.83 0 0 1-1.403-3.488c-.48-1.66-.82-3.357-1.014-5.073a34.548 34.548 0 0 1-.24-3.976 22.202 22.202 0 0 1 .286-3.754c.097-.74.322-1.459.662-2.123.35-.519.806-.957 1.337-1.286.894-.56 1.86-.996 2.871-1.295.21-.066.404-.121.581-.169a91.077 91.077 0 0 0-.227 6.486 71.426 71.426 0 0 0 1.884 17.181 14.479 14.479 0 0 1-1.144-.227Zm30.492 27.308c-11.125-3.539-18.178-9.378-22.565-16.911-4.381-7.537-6.069-16.875-6.067-27.351a68.504 68.504 0 0 1 2.523-19.568c2.69-8.959 7.684-16.453 16.234-21.81 8.552-5.35 20.762-8.552 37.869-8.55 11.402-.001 20.636 1.421 28.052 3.955 11.125 3.812 18.169 10.06 22.546 17.959 4.369 7.901 6.029 17.536 6.027 28.014a64.88 64.88 0 0 1-2.547 19.238 35.073 35.073 0 0 1-16.265 20.74c-8.558 5.009-20.769 7.935-37.813 7.934-11.36 0-20.58-1.299-27.994-3.65Zm-5 63.58a1.606 1.606 0 0 1-.208-.775 1.276 1.276 0 0 1 .285-.813c.064.028.13.068.194.092.619.239 1.275.368 1.939.381.001.773.007 1.539.018 2.299a3.218 3.218 0 0 1-1.102-.207 2.096 2.096 0 0 1-1.126-.977Zm2.222-3.714a3.196 3.196 0 0 1-1.005-.203 2.099 2.099 0 0 1-1.124-.977 1.607 1.607 0 0 1-.209-.775c-.005-.331.12-.651.348-.891a1.344 1.344 0 0 1 1-.38c.276.005.55.052.81.141.077.017.155.026.233.027a213.758 213.758 0 0 0-.053 3.058Zm.51-13.094a48.282 48.282 0 0 0-4.65-4.237 17.525 17.525 0 0 0 2.366-5.034 494.182 494.182 0 0 0 2.57-8.508l.022.003c.406.064.907.127 1.526.195-.792 5.312-1.424 11.369-1.833 17.581Zm-19.114-7.588a6.57 6.57 0 0 1-.287-2.049c.075-1.869.398-3.719.96-5.502a33.137 33.137 0 0 1 6.282-11.213 22.862 22.862 0 0 1 4.829-4.42 9.087 9.087 0 0 1 4.847-1.68c.551-.001 1.1.079 1.629.237.513.127.97.42 1.297.835.295.433.441.95.417 1.474a5.515 5.515 0 0 1-.249 1.542c-.974 3.31-2.564 9.303-5.377 18.319a15.512 15.512 0 0 1-1.856 4.095 1.28 1.28 0 0 0-.087-.561 5.787 5.787 0 0 0-10.977.974 4.856 4.856 0 0 1-.58-.555 4.216 4.216 0 0 1-.848-1.496Zm14.353 27.49a1.286 1.286 0 0 0-.475-.023 6.734 6.734 0 0 1-.983.081 4.53 4.53 0 0 1-1.517-.253 7.72 7.72 0 0 1-2.816-1.915 21.078 21.078 0 0 1-2.123-2.506 39.664 39.664 0 0 1-1.704-2.524c-2.568-4.107-3.712-7.728-3.705-10.476a7.13 7.13 0 0 1 .982-3.838 5.907 5.907 0 0 1 2.827-2.32 6.773 6.773 0 0 1 2.643-.565 6.612 6.612 0 0 1 2.52.522 14.88 14.88 0 0 1 3.923 2.574c1.007.862 2.039 1.865 3.113 2.939.373.373.751.753 1.134 1.14.258.259.497.526.737.792a268.546 268.546 0 0 0-.172 3.886 5.054 5.054 0 0 0-1.122-.148 3.959 3.959 0 0 0-2.865 1.167 3.87 3.87 0 0 0-1.084 2.704c.003.709.185 1.405.529 2.025.084.139.175.274.274.403a3.868 3.868 0 0 0-.895 2.466c.003.709.185 1.406.529 2.026.174.315.386.609.629.875-.17.304-.298.629-.38.968Zm3.743 2.607a2.067 2.067 0 0 1-.976-.772 1.573 1.573 0 0 1-.296-.897c.002-.177.041-.351.114-.512.556.171 1.134.26 1.716.265h.012c.02.698.045 1.387.074 2.069a2.642 2.642 0 0 1-.644-.153Zm60.698-6.085a22.38 22.38 0 0 1-2.849.767c-.504.049-1.001.086-1.481.086a17.552 17.552 0 0 1-5.194-.845c-2.546-.77-5.13-1.982-8.155-3.026a32.057 32.057 0 0 0-10.759-1.896 35.133 35.133 0 0 0-13.61 2.974c-1.842.727-3.542 1.435-5.208 1.949a16.77 16.77 0 0 1-5.04.843c-.604 0-1.207-.039-1.806-.118a34.746 34.746 0 0 1-3.483-.98l-.015-.002c-.001-.282-.005-.56-.005-.843.018-10.835.79-21.656 2.308-32.384a90.049 90.049 0 0 1 2.434-11.877c.34-1.223.792-2.412 1.347-3.553.168-.338.37-.656.604-.952a1.21 1.21 0 0 1 .33-.307c.37-.162.754-.293 1.146-.39a57.015 57.015 0 0 1 8.752-1.246l.016-.002a18.053 18.053 0 0 0 11.826 4.326 20.796 20.796 0 0 0 7.17-1.3 15.761 15.761 0 0 0 4.966-2.835c.073-.07.139-.148.194-.233.728.059 1.443.12 2.124.187 2.043.199 3.859.436 5.308.698.724.13 1.356.267 1.871.405.392.097.776.228 1.146.39.128.081.241.185.331.307a8.768 8.768 0 0 1 1.189 2.262 40.821 40.821 0 0 1 1.624 5.557l.077.393a729.79 729.79 0 0 1 1.156 5.997 229.636 229.636 0 0 1 2.646 34.556c0 .22-.003.436-.004.655a5.158 5.158 0 0 1-.956.437Zm11.475-20.319a5.407 5.407 0 0 1-1.091-.783 12.17 12.17 0 0 1-2.92-5.368c-2.813-9.015-4.403-15.008-5.377-18.318a5.531 5.531 0 0 1-.249-1.543 2.42 2.42 0 0 1 .417-1.473 2.382 2.382 0 0 1 1.296-.835h.001a5.566 5.566 0 0 1 1.086-.198c1.192 2.777 3.392 7.651 5.509 12.245a657.549 657.549 0 0 0 3.04 6.509l.013.027a6.915 6.915 0 0 0-1.36 6.918c-.206.927-.328 1.87-.365 2.819Zm14.114 10.325c-.62.099-1.247.149-1.875.15a9.62 9.62 0 0 1-6.626-2.498 9.454 9.454 0 0 1-2.979-5.949 12.84 12.84 0 0 1 1.351-7.242 9.817 9.817 0 0 0 1.919 2.509c.226.198.467.376.723.533a8.076 8.076 0 0 0-.377 2.459c0 .318.017.636.051.952a7.15 7.15 0 0 0 6.997 6.484c.243 0 .486-.013.728-.038l.001-.001a6.844 6.844 0 0 0 4.471-2.364c.138-.16.269-.327.393-.5a26.646 26.646 0 0 0 2.625-.542 9.357 9.357 0 0 1-7.402 6.047Zm14.898-18.313a29.024 29.024 0 0 1-1.149 4.367 14.429 14.429 0 0 1-.825 1.918 4.444 4.444 0 0 1-.794 1.132 7.172 7.172 0 0 1-1.707 1.061 22.795 22.795 0 0 1-8.59 1.984 6.43 6.43 0 0 1-1.941-.239 2.476 2.476 0 0 1-.797-.505 5.866 5.866 0 0 1-1.249-1.62 3.742 3.742 0 0 1-.49-1.594l.006-.127a1.306 1.306 0 0 0-.045-.509 98.963 98.963 0 0 1 1.752-.761c.173-.073.289-.12.36-.149l.074-.029.014-.006c.121-.052.233-.122.332-.209.302.632.602 1.247.871 1.777.289.57.535 1.036.727 1.362a1.298 1.298 0 0 0 1.775.454 1.303 1.303 0 0 0 .465-1.773v-.001c-.154-.26-.443-.805-.768-1.456a86.721 86.721 0 0 1-1.567-3.306 37.027 37.027 0 0 1-.611-1.433 11.055 11.055 0 0 1-.186-.499l-.029-.091c.033-.06.071-.118.114-.171.164-.205.359-.382.578-.524.028-.018.043-.022.07-.036l.096.125c.655.861 1.831 2.592 2.822 4.08a284.527 284.527 0 0 1 1.814 2.755 1.302 1.302 0 0 0 2.336-.335 1.297 1.297 0 0 0-.085-.959l-.166-.332c-.373-.748-1.31-2.652-2.146-4.511a47.357 47.357 0 0 1-1.088-2.587c-.139-.369-.25-.694-.318-.937-.013-.043-.016-.065-.026-.102.156-.154.328-.292.513-.411.037-.024.074-.045.111-.068.496.55 1.241 1.474 1.916 2.356.368.481.717.949.998 1.337.279.383.5.703.573.824.145.25.275.508.39.774.229.51.473 1.123.655 1.601a49.002 49.002 0 0 1 .304.819 1.302 1.302 0 0 0 1.657.78 1.3 1.3 0 0 0 .792-1.652 45.406 45.406 0 0 0-.536-1.42c-.019-.048-.043-.1-.063-.149l.981-2.151a1.31 1.31 0 0 0-.007-1.093c0-.001-.143-.305-.361-.776a110.01 110.01 0 0 1-1.216-2.729c-.2-.471-.379-.912-.5-1.24l-.031-.089.023-.024a4.74 4.74 0 0 1 .631-.527c.547.726 1.435 2.032 2.218 3.229.41.626.794 1.225 1.091 1.701.148.238.275.446.371.607.037.061.065.111.092.158v.017a12.541 12.541 0 0 1-.231 1.912Zm-12.115-3.214.001.002v-.001l-.001-.001Zm16.326-4.409a5.31 5.31 0 0 1-1.806 1.316l-1.41.707c-.334-.513-.689-1.049-1.037-1.566a60.628 60.628 0 0 0-1.251-1.793c-.183-.25-.348-.466-.498-.649a4.835 4.835 0 0 0-.225-.258 1.988 1.988 0 0 0-.319-.282 1.654 1.654 0 0 0-.951-.291 2.203 2.203 0 0 0-.731.134 4.133 4.133 0 0 0-.922.482 7.38 7.38 0 0 0-1.125.94 4.767 4.767 0 0 0-.442.519 2.715 2.715 0 0 0-.195.312c-.08.151-.137.312-.171.48l-.001-.001-.001.009-.002.005h.001a1.598 1.598 0 0 0-.025.267c.002.159.023.317.062.471.059.232.131.46.216.684.31.851.847 2.076 1.317 3.121l.157.348a67 67 0 0 0-1.944-2.496c-.354-.43-.68-.809-.967-1.109a5.045 5.045 0 0 0-.43-.41 2.04 2.04 0 0 0-.287-.203 1.557 1.557 0 0 0-.251-.119 1.388 1.388 0 0 0-.67-.073l-.005.001-.016.002.001.001c-.144.023-.285.06-.422.109a5.955 5.955 0 0 0-1.353.736 4.6 4.6 0 0 0-1.324 1.37 1.624 1.624 0 0 0-.211.835c.001.126.012.252.031.377a1.992 1.992 0 0 0-.415-.047 2.924 2.924 0 0 0-1.324.356 4.955 4.955 0 0 0-1.464 1.182 3.856 3.856 0 0 0-.534.809 2.496 2.496 0 0 0-.265 1.082c0 .129.012.258.037.385.056.255.131.506.225.75.158.436.388.987.651 1.587a1.164 1.164 0 0 0-.219.036c-.037.014-.588.224-2.38 1.02a3.551 3.551 0 0 1-1.414.364 1.65 1.65 0 0 1-.636-.121 2.843 2.843 0 0 1-1.027-.798 10.175 10.175 0 0 1-1.249-1.892c-.403-.747-1.27-2.532-2.33-4.777a822.06 822.06 0 0 1-5.388-11.685 440.701 440.701 0 0 1-2.281-5.119c-.616-1.407-1.066-2.481-1.215-2.899a7.391 7.391 0 0 1-.539-2.377 2.175 2.175 0 0 1 .314-1.19c.339-.499.79-.912 1.318-1.205.35-.219 1.112-.627 2.097-1.124.764-.386 1.673-.833 2.671-1.315a49.49 49.49 0 0 0 3.695 7.341 6.735 6.735 0 0 0 5.629 3.257 6.05 6.05 0 0 0 2.831-.706v-.001a5.922 5.922 0 0 0 2.446-2.382 6.527 6.527 0 0 0 .795-3.177 7.739 7.739 0 0 0-.545-2.821c-.625-1.59-1.327-3.325-2.035-4.872a34.11 34.11 0 0 0-1.042-2.102c1.045-.468 1.995-.888 2.786-1.231 1.01-.439 1.782-.76 2.112-.879a4.375 4.375 0 0 1 1.459-.312c.479-.005.944.168 1.304.485a7.1 7.1 0 0 1 1.642 2.232c.43.814 1.284 2.599 2.319 4.822 3.112 6.678 7.941 17.455 8.929 19.743.374.753.596 1.573.655 2.412.013.434-.131.858-.406 1.193Z"/><path fill="#191C22" d="m156.725 140.804.001-.002.001-.001-.002.003ZM167.205 135.513l.001.001.002.001-.003-.002ZM149.371 117.754l.003-.001.002-.001-.005.002Z"/><path fill="#191C22" d="M148.722 119.847a1.55 1.55 0 0 0 2.089.652h.001a1.567 1.567 0 0 0 .762-.911 1.559 1.559 0 0 0-.106-1.182l-.002-.002a1.55 1.55 0 0 0-2.745 1.441l.001.002ZM150.815 120.498l-.002.001-.002.001.004-.002ZM84.749 75.009V62.765a1 1 0 0 0-1-1h-2.325c-.03 0-.056.014-.086.017v.358a.5.5 0 0 1-.5.5h-.388a.938.938 0 0 0-.026.125v11.788h-1.91c-.017 0-.031.008-.048.01a.99.99 0 0 0-.943.946c-.001.015-.01.028-.01.044v2.324a1 1 0 0 0 1 1h2.325a1 1 0 0 0 1-1v-1.868h1.91a1 1 0 0 0 1-1ZM120.639 78.877h2.324a1.002 1.002 0 0 0 1-1v-1.868h1.911a1.003 1.003 0 0 0 1-1V62.765a1.002 1.002 0 0 0-1-1h-2.325c-.03 0-.056.014-.086.017v.358a.502.502 0 0 1-.5.5h-.388a.895.895 0 0 0-.026.125v11.788h-1.91c-.017 0-.031.008-.048.01a.988.988 0 0 0-.943.946c-.001.015-.009.028-.009.044v2.324a.998.998 0 0 0 1 1Z"/></svg>