<svg xmlns="http://www.w3.org/2000/svg" width="200" height="200" fill="none"><path fill="#FFD93A" d="M46.75 68.25c-2.75-14.5 6-26.75 12-30.25S73 33.5 76.5 31.25s8-4.5 17-4.75c8.999-.25 31.249 3.25 37.249 16.5 6 13.25-.75 24.75-7 30s-38.75 13.25-57 11.75-20-16.5-20-16.5Z"/><path fill="#191C22" d="M184.638 26.494a3.689 3.689 0 0 0-1.399-1.195 4.128 4.128 0 0 0-1.816-.395 8.774 8.774 0 0 0-4.039 1.228 40.209 40.209 0 0 0-6.254 4.566 99.473 99.473 0 0 0-10.641 10.598 43.923 43.923 0 0 0-3.888 5.194 15.482 15.482 0 0 0-1.184 2.276c-.1.25-.182.494-.255.738-.142-.061-.275-.133-.42-.19a9.45 9.45 0 0 0-1.448-.434 51.986 51.986 0 0 0-.991-3.077 45.207 45.207 0 0 0-19.755-23.938c-9.892-5.917-23.24-9.368-40.671-9.368-11.616 0-21.193 1.445-29.044 4.094a48.418 48.418 0 0 0-14.391 7.539 17.589 17.589 0 0 0-1.271-4.221 8.004 8.004 0 0 0-1.452-2.142 3.976 3.976 0 0 0-1.06-.77 3.112 3.112 0 0 0-1.366-.319 3.703 3.703 0 0 0-1.994.636 10.092 10.092 0 0 0-2.722 2.911 39.29 39.29 0 0 0-3.005 5.553 79.486 79.486 0 0 0-4.314 12.943c-1.17 4.573-2.076 9.097-2.721 12.61-.011.106-.01.212.006.317-.42.312-.689.534-.705.547a1.29 1.29 0 0 0-.302.38 1.204 1.204 0 0 0-.105.072 7.297 7.297 0 0 0-1.264 1.935 23.12 23.12 0 0 0-1.788 9.382c0 .231.003.463.01.698a31.1 31.1 0 0 0 .941 7.05c.24.938.563 1.852.966 2.733.33.748.788 1.432 1.354 2.021.007.007.015.008.022.014.063.151.155.29.27.406a16.187 16.187 0 0 0 5.031 3.265c.061.015.123.026.185.031.366 1.664.802 3.29 1.32 4.872a38.485 38.485 0 0 0 17.966 22.2c7.52 4.309 17.349 7.067 30.012 7.963.041.578.17 1.146.382 1.685.153.383.353.746.595 1.081-.529.075-1.044.176-1.561.274a88.87 88.87 0 0 0-3.753.268 41.511 41.511 0 0 0-4.3.603c-1.05.178-2.067.513-3.017.993a13.21 13.21 0 0 0-3.611 3.202c-.196-.081-.38-.175-.59-.243a9.127 9.127 0 0 0-2.803-.423 17.447 17.447 0 0 0-8.526 2.748 44.061 44.061 0 0 0-11.402 10.122 33.852 33.852 0 0 0-3.753 5.66 11.734 11.734 0 0 0-1.506 5.056l.005.248a7.081 7.081 0 0 0 .82 3.067c.4.734.93 1.388 1.565 1.932a8.483 8.483 0 0 0-1.144 4.371c.012 3.49 1.695 7.48 5.012 11.766a25.226 25.226 0 0 0 5.647 5.654 7.847 7.847 0 0 0 6.12 1.433c.127.376.306.733.532 1.06a4.68 4.68 0 0 0 2.166 1.713 5.55 5.55 0 0 0 2.38.351c.028.25.053.508.083.753.224 2.011.553 4.009.983 5.986.292 1.461.762 2.88 1.4 4.226a1.3 1.3 0 0 0 2.306-1.2 15.897 15.897 0 0 1-1.17-3.601c-.571-2.703-.97-5.44-1.195-8.193.382.109.767.217 1.167.319.006.001.01.006.016.007.017.004.032.005.05.008l.011.003v.001l.017.003a71.732 71.732 0 0 0 9.897 1.649c5.23.514 10.483.761 15.739.74 6.766.018 13.528-.347 20.253-1.091a69.788 69.788 0 0 0 7.328-1.198 22.042 22.042 0 0 0 2.57-.739l.019-.008a120.411 120.411 0 0 1-.81 12.517 1.29 1.29 0 0 0 .645 1.292 1.302 1.302 0 0 0 1.934-.966c.621-5.433.911-10.898.867-16.366 0-7.825-.46-16.209-1.239-23.877.635.113 1.279.172 1.924.176a9.42 9.42 0 0 0 2.352-.286l-.324-1.259.325 1.259a10.446 10.446 0 0 0 6.085-4.199 11.35 11.35 0 0 0 1.983-6.416c.003-.972-.129-1.94-.393-2.876a15.007 15.007 0 0 0-4.498-7.484 14.348 14.348 0 0 0-8.422-3.235c-.36-.029-.708-.044-1.046-.043a9.798 9.798 0 0 0-1.918.181 45.28 45.28 0 0 0-4.202-5.088 32.875 32.875 0 0 0-5.131-4.401 87.01 87.01 0 0 0 12.013-2.44c12.225-3.466 20.877-9.417 26.412-17.273a41.707 41.707 0 0 0 6.4-14.489 14.263 14.263 0 0 0 2.815-1.422 16.314 16.314 0 0 0 2.441-1.922 1.27 1.27 0 0 0 .335-.676c.363-.372.679-.787.94-1.236a15.515 15.515 0 0 0 1.598-4.421c.161-.73.29-1.512.398-2.32a7.136 7.136 0 0 0 2.515-.671 9.027 9.027 0 0 0 3.366-2.87c1.514-2.045 4.501-6.545 7.442-11.318a189.746 189.746 0 0 0 4.164-7.063 57.543 57.543 0 0 0 2.911-5.81c1.704-4.205 2.544-7.6 2.551-10.22a6.469 6.469 0 0 0-.983-3.787Zm-69.578 96.967a31.555 31.555 0 0 1 5.246 8.941c.371 1.041.569 2.135.586 3.24a5.34 5.34 0 0 1-1.565 4.023 5.645 5.645 0 0 1-3.963 1.443 9.229 9.229 0 0 1-3.852-.909 51.81 51.81 0 0 1-10.961-7.616 51.125 51.125 0 0 1-4.496-4.404 19.345 19.345 0 0 1-1.429-1.794 4.99 4.99 0 0 1-.639-1.158 4.216 4.216 0 0 1-.17-1.261 8.99 8.99 0 0 1 2.02-5.353 10.986 10.986 0 0 1 6.877-3.91l-.231-1.279.232 1.279c.161-.028.324-.042.487-.042a8.57 8.57 0 0 1 4.202 1.604 34.025 34.025 0 0 1 7.656 7.196Zm-29.032-6.483a2.536 2.536 0 0 1-.776-1.042 3.29 3.29 0 0 1-.215-1.226c.009-.578.103-1.151.28-1.701.07-.229.142-.416.192-.54l.059-.137.013-.027v-.001a1.296 1.296 0 0 0-.129-1.35 2.213 2.213 0 0 1-.476-1.382 4.451 4.451 0 0 1 .84-2.313 7.888 7.888 0 0 1 .82-1.033l.048-.05.009-.009a1.298 1.298 0 0 0 .083-1.777 1.311 1.311 0 0 0-.529-.372s-.374-.141-.959-.367c-.877-.34-2.226-.869-3.467-1.387a54.313 54.313 0 0 1-1.699-.738c-.248-.113-.47-.222-.648-.313.014-.103.035-.204.065-.304.079-.284.215-.548.4-.778l.18-.158.067-.024h.003c.107-.005.233-.009.376-.009 2.013.068 4.011.372 5.954.906a43.82 43.82 0 0 1 9.414 3.665 1.299 1.299 0 0 0 1.756-.548 1.28 1.28 0 0 0-.35-1.594c.286-.534.606-1.049.957-1.543.365-.527.8-1.003 1.292-1.415.183-.15.386-.273.602-.37.144-.065.3-.1.458-.104.088 0 .175.014.259.04.378.149.712.391.97.705.124.14.231.293.32.457l.005.011c-.051.137-.139.358-.254.62a18.27 18.27 0 0 0-1.709 6.404 62.201 62.201 0 0 0-.076 2.906c0 1.202.05 1.823.074 2.054 0 .081-.003.263-.015.528a13.217 13.217 0 0 0-6.422 4.336c-.66.836-1.21 1.752-1.638 2.726a11.087 11.087 0 0 1-2.977-.827 13.516 13.516 0 0 1-3.157-1.919Zm45.172-11.574c-6.802 3.478-15.45 5.864-26.177 6.918a7.421 7.421 0 0 0-1.821-.261c-.122 0-.243.024-.365.032v-.016l-.011-.181v-.001a18.314 18.314 0 0 1-.063-1.815c0-.694.018-1.609.073-2.785a13.53 13.53 0 0 1 .977-4.228c.226-.586.451-1.095.634-1.529.091-.218.173-.417.242-.62.092-.245.142-.505.148-.767a2.646 2.646 0 0 0-.329-1.204 5.298 5.298 0 0 0-1.107-1.421 4.597 4.597 0 0 0-1.733-1.035 3.487 3.487 0 0 0-1.02-.154 3.785 3.785 0 0 0-1.511.327 6.233 6.233 0 0 0-1.992 1.473 14.039 14.039 0 0 0-1.914 2.67c-.074.131-.135.246-.198.364a45.604 45.604 0 0 0-7.87-2.844 28.156 28.156 0 0 0-6.598-.987c-.18 0-.35.004-.51.013a2.801 2.801 0 0 0-1.539.568 4.083 4.083 0 0 0-1.254 1.655 4.672 4.672 0 0 0-.404 1.816 2.67 2.67 0 0 0 .132.865c.126.39.382.725.724.949.265.163.539.311.82.444 1.09.532 2.764 1.22 4.195 1.79.329.131.64.253.93.367l-.011.016a6.953 6.953 0 0 0-1.272 3.749c0 .8.2 1.587.583 2.289a9.28 9.28 0 0 0-.234.758 83.307 83.307 0 0 1-19.003-3.333c-11.27-3.54-18.542-9.391-23.099-16.928-4.551-7.54-6.373-16.868-6.372-27.333a65.31 65.31 0 0 1 2.674-19.55A37.998 37.998 0 0 1 53.68 23.654c8.734-5.357 21.089-8.558 38.196-8.557 11.395 0 20.913 1.505 28.768 4.171 11.783 4.007 19.827 10.589 24.992 18.75a45.25 45.25 0 0 1 4.987 10.993 3.713 3.713 0 0 0-.474.238 6.425 6.425 0 0 0-2.087 2.273 19.388 19.388 0 0 0-2.039 5.567 39.237 39.237 0 0 0-.88 7.537c-.01.374-.014.745-.014 1.113a33.37 33.37 0 0 0 1.401 10.164 10.904 10.904 0 0 0 1.694 3.357c.341.439.757.813 1.23 1.106.489.299 1.05.46 1.624.463h.062c.06-.001.117-.01.176-.013a42.44 42.44 0 0 1-1.476 4.52c-3.318 8.438-9.252 15.259-18.641 20.068Zm19.889-27.175h-.01a.553.553 0 0 1-.292-.096 3.28 3.28 0 0 1-1.014-1.23 15.794 15.794 0 0 1-1.466-4.54 36.057 36.057 0 0 1-.577-6.624c0-.347.004-.696.013-1.049.022-3.367.58-6.71 1.652-9.901a9.511 9.511 0 0 1 1.456-2.73c.181-.228.398-.425.642-.584.12-.08.259-.129.403-.14h.004l.101-.003a5.175 5.175 0 0 1 1.799.405 14.62 14.62 0 0 1 2.794 1.528 19.413 19.413 0 0 1 1.163.858l.061.05.015.013c.018.014.04.018.058.031.04.083.09.16.147.231.325.372.59.792.788 1.245a20.677 20.677 0 0 1 1.538 8.269c0 .21-.003.422-.008.635a24.823 24.823 0 0 1-1.25 7.596 7.071 7.071 0 0 1-1.067 2.036c-.113.144-.249.27-.403.37-.094.053-.119.048-.127.05h-.002l-.105-.044a2.35 2.35 0 0 1-.697-.855 11.818 11.818 0 0 1-1.111-3.41 27.251 27.251 0 0 1-.445-5.068c0-.266.004-.533.01-.803a1.302 1.302 0 0 0-1.266-1.326 1.301 1.301 0 0 0-1.333 1.26c-.007.292-.011.582-.011.869a25.782 25.782 0 0 0 1.11 7.954 8.766 8.766 0 0 0 1.37 2.681c.192.233.407.445.643.633-.063.042-.121.083-.186.124a8.9 8.9 0 0 1-4.397 1.565ZM37.935 26.862a29.482 29.482 0 0 1 3.56-6.213c.341-.44.747-.826 1.203-1.144.173-.13.38-.21.595-.227.08 0 .159.02.23.058.232.132.434.313.59.53.284.372.527.771.726 1.193a18.055 18.055 0 0 1 1.25 4.63c.025.107.064.21.116.305a39.227 39.227 0 0 0-7.875 9.742 47.625 47.625 0 0 0-5.078 13.443 1.294 1.294 0 0 0-.51.082c-.435.167-.861.357-1.276.57.6-3.121 1.37-6.784 2.31-10.467a77.051 77.051 0 0 1 4.16-12.501Zm-6.983 49.172a14.457 14.457 0 0 1-1.11-.927l-.053-.052-.011-.01c-.007-.006-.015-.008-.022-.014a1.295 1.295 0 0 0-.287-.422 4.532 4.532 0 0 1-.821-1.273 16.338 16.338 0 0 1-1.132-3.72 30.426 30.426 0 0 1-.536-5.652 23.84 23.84 0 0 1 .76-6.09 13.27 13.27 0 0 1 .778-2.18 4.83 4.83 0 0 1 .788-1.246c.057-.07.106-.148.147-.23.018-.014.04-.018.058-.032l.016-.013c.1-.083.646-.527 1.415-1.037a16.23 16.23 0 0 1 1.734-1.006 76.858 76.858 0 0 0-1.025 12.895c-.019 4.038.29 8.071.922 12.06a14.248 14.248 0 0 1-1.621-1.051Zm30.044 94.512v-.002a3.252 3.252 0 0 1-1.305-.203 2.098 2.098 0 0 1-1.125-.977 1.603 1.603 0 0 1-.208-.774 1.27 1.27 0 0 1 .285-.813c.065.028.131.068.195.092a5.847 5.847 0 0 0 2.093.387c.054 0 .088-.003.133-.004.025.779.056 1.549.092 2.309a1.425 1.425 0 0 0-.16-.015Zm.005-4.892-.07.002a3.277 3.277 0 0 1-1.147-.209 2.096 2.096 0 0 1-1.125-.977 1.603 1.603 0 0 1-.209-.774 1.27 1.27 0 0 1 .348-.892 1.33 1.33 0 0 1 1.002-.38c.275.004.548.052.809.141.122.033.248.048.375.044-.001.172-.005.346-.005.518 0 .848.009 1.69.022 2.527Zm.252-11.848c-1.649-1.35-3.244-2.652-4.862-3.757 1.404-1.468 3.632-3.848 5.921-6.608-.493 3.242-.843 6.755-1.059 10.365Zm-19.504-9.917a25.24 25.24 0 0 1 3.444-5.832 44.01 44.01 0 0 1 8.98-8.83c3.36-2.435 6.869-3.988 9.625-3.97a6.52 6.52 0 0 1 1.902.274c-.18.319-.355.643-.517.98-.04.004-.082.01-.122.018a6.312 6.312 0 0 0-4.127 4.915 6.319 6.319 0 0 0 2.302 5.991c-.023.243-.05.475-.076.712-.167.228-.336.455-.506.682a112.236 112.236 0 0 1-8.536 9.833 16.226 16.226 0 0 0-.63-.312 5.775 5.775 0 0 0-10.856 1.091 4.28 4.28 0 0 1-.905-1.114 4.478 4.478 0 0 1-.513-1.952l-.003-.132a6.9 6.9 0 0 1 .538-2.354Zm10.205 27.225a22.778 22.778 0 0 1-5.031-5.081c-3.11-3.995-4.478-7.557-4.466-10.172a5.506 5.506 0 0 1 3.347-5.305 7.004 7.004 0 0 1 3.06-.733 9.807 9.807 0 0 1 5.072 1.718 54.645 54.645 0 0 1 5.706 4.306c.386.316.758.641 1.113.973.102.087.216.157.34.209a155.36 155.36 0 0 0-.085 2.965 5.107 5.107 0 0 0-1.21-.17 3.946 3.946 0 0 0-2.865 1.168 3.865 3.865 0 0 0-1.085 2.704 4.21 4.21 0 0 0 .529 2.025c.084.139.175.274.274.403a3.867 3.867 0 0 0-.895 2.466c.003.708.184 1.405.528 2.024.175.316.386.61.63.876-.11.19-.202.389-.276.595-.014.003-.028-.003-.042.001-.442.1-.895.153-1.349.158a5.771 5.771 0 0 1-3.295-1.13Zm9.387 4.137a2.982 2.982 0 0 1-1.062-.186 2.063 2.063 0 0 1-.975-.773 1.566 1.566 0 0 1-.296-.895c.002-.177.04-.352.114-.513.556.171 1.134.26 1.715.265.142.001.284-.005.425-.019.014-.001.024-.009.038-.011.048.723.102 1.431.16 2.126-.041.002-.072.006-.119.006Zm59.883-3.271c0 .22-.003.435-.004.654a5.17 5.17 0 0 1-.95.437 28.292 28.292 0 0 1-4.554 1.109 83.586 83.586 0 0 1-4.838.695h-.001c-.022.003-.044.004-.067.006-.651.069-1.304.104-1.959.105-4.497.003-8.392-1.642-12.339-3.398-1.971-.875-3.948-1.771-6.015-2.459a20.58 20.58 0 0 0-6.544-1.163 19.095 19.095 0 0 0-10.161 3.073c-1.266.74-2.386 1.444-3.443 1.937a7.17 7.17 0 0 1-3.095.782 5.67 5.67 0 0 1-.597-.034l-.312-.049a96.08 96.08 0 0 1-.398-.066l-.05-.008a34.644 34.644 0 0 1-1.997-.577c-.21-3.105-.322-6.465-.321-9.897a122.69 122.69 0 0 1 1.837-22.416c.326-1.951.535-3.919.628-5.895.062-1.679.277-3.35.642-4.99a13.842 13.842 0 0 1 2.281-4.576 10.866 10.866 0 0 1 3.124-2.871 8.425 8.425 0 0 1 2.251-.704 50.014 50.014 0 0 1 6.502-.756l.084-.004a17.992 17.992 0 0 0 10.356 4.05c.044.356.12.708.226 1.052.235.657.563 1.277.974 1.842a29.082 29.082 0 0 0 3.2 3.722 68.524 68.524 0 0 0 7.096 6.175 44.157 44.157 0 0 0 7.641 4.803 11.828 11.828 0 0 0 4.942 1.149 10.079 10.079 0 0 0 2.925 2.757c.511.318 1.045.597 1.598.834a239.972 239.972 0 0 1 1.338 24.681Zm4.99-26.505a6.852 6.852 0 0 1-1.705.204 9.314 9.314 0 0 1-4.837-1.415 8.113 8.113 0 0 1-1.331-1.048c.365-.127.72-.28 1.062-.457.169.012.338.025.509.025a6.671 6.671 0 0 0 2.155-12.987 30.765 30.765 0 0 0-1.812-3.443c.107-.004.204-.014.316-.014.264 0 .542.011.836.035a11.75 11.75 0 0 1 6.939 2.616 12.423 12.423 0 0 1 3.691 6.225c.198.704.296 1.431.293 2.162a8.764 8.764 0 0 1-1.521 4.937 7.836 7.836 0 0 1-4.595 3.16Zm40.25-82.332a6.421 6.421 0 0 1-2.39 2.069c-.369.175-.76.3-1.163.372.016-.307.036-.61.044-.923.006-.234.009-.468.009-.7a26.413 26.413 0 0 0-.851-6.767 15.832 15.832 0 0 0-.937-2.613 7.305 7.305 0 0 0-1.263-1.934 1.279 1.279 0 0 0-.105-.073 1.303 1.303 0 0 0-.302-.379 20.835 20.835 0 0 0-1.962-1.417 4.918 4.918 0 0 1 .538-1.607 29.781 29.781 0 0 1 3.656-5.316 93.19 93.19 0 0 1 8.879-9.238 75.51 75.51 0 0 1 4.474-3.795 27.432 27.432 0 0 1 3.526-2.4 6.346 6.346 0 0 1 2.806-.918c.234-.008.466.038.68.133.283.151.499.403.606.706.093.226.161.46.203.7a3.37 3.37 0 0 0-.789.186 8.51 8.51 0 0 0-1.849 1.06c-1.334 1-2.591 2.099-3.759 3.288a72.106 72.106 0 0 0-6.018 6.838 32.615 32.615 0 0 0-4.16 6.569 12.542 12.542 0 0 0-.922 4.847 19.513 19.513 0 0 0 1.349 6.784 2.729 2.729 0 0 0 1.709 1.65 85.305 85.305 0 0 1-2.009 2.878Z"/><path fill="#191C22" d="M89.457 67.003a160.289 160.289 0 0 0-3.633 5.453c1.172.037 2.345.078 3.52.123.024-1.887.061-3.745.113-5.576ZM72.942 66.38c.02-2.152-1.198-3.526-3.096-3.466a3.317 3.317 0 0 0-3.172 3.612c-.012 2.115 1.268 3.543 3.126 3.521 1.891-.02 3.125-1.511 3.142-3.667Z"/><path fill="#191C22" d="M121.703 29.506c-7.691-4.015-18.33-6.34-32.827-6.342-9.661 0-17.508.975-23.886 2.762-9.561 2.671-15.844 7.229-19.736 12.988-3.895 5.756-5.386 12.597-5.742 19.781-.04.806-.06 1.605-.06 2.395a33.147 33.147 0 0 0 2.478 13.234c2.6 6.044 7.479 11.027 15.106 14.399 7.63 3.382 17.998 5.23 31.84 5.233a98.253 98.253 0 0 0 24.008-2.536c9.722-2.468 16.282-6.696 20.355-12.222 4.075-5.524 5.6-12.23 5.597-19.464a39.54 39.54 0 0 0-2.3-13.912 29.924 29.924 0 0 0-14.833-16.316ZM83.187 75.402c-.009-.925-.014-1.845-.016-2.759a161.324 161.324 0 0 1 6.996-10.024c.72.032 1.44.068 2.162.105a373.65 373.65 0 0 0-.32 9.964l1.574.07a494.63 494.63 0 0 0-.062 3.01l-1.56-.065a438.919 438.919 0 0 0-.029 3.11l-2.618-.095c-.002-1.047 0-2.086.004-3.117-2.046-.076-4.09-.142-6.13-.199ZM54.451 58.015a4.039 4.039 0 0 0-2.565 1.422 87.254 87.254 0 0 0-2.097-.43c.464-3.033.99-6.053 1.596-9.02a107.687 107.687 0 0 1 8.413-1.467 133.94 133.94 0 0 0-.365 3.4c-2.127.28-4.22.611-6.278.997a167.77 167.77 0 0 0-.565 3.167 6.53 6.53 0 0 1 2.577-.985c2.87-.46 5.166 1.03 4.99 4.949a6.684 6.684 0 0 1-6.043 6.753 4.795 4.795 0 0 1-3.864-1.064 4.133 4.133 0 0 1-1.07-1.63 5.628 5.628 0 0 1-.276-1.077 7.13 7.13 0 0 1-.085-.919 8.083 8.083 0 0 1-.004-.328c.944-.18 1.896-.348 2.857-.506a2.032 2.032 0 0 0 2.534 1.891 2.826 2.826 0 0 0 2.53-2.923c.077-1.634-.798-2.46-2.285-2.23Zm9.463-16.975c.191-1.146.399-2.274.622-3.385a161.549 161.549 0 0 1 7.692-3.457 110.756 110.756 0 0 0-2.194 13.385c.996-.055 1.996-.101 3.001-.138-.12 1.149-.229 2.313-.324 3.493-3.223.109-6.394.309-9.514.6.096-1.164.204-2.315.326-3.452 1.022-.103 2.05-.194 3.084-.275.318-2.977.727-5.85 1.228-8.62a148.784 148.784 0 0 0-3.921 1.849Zm9.067-9.96a44.05 44.05 0 0 0-12.56 3.982 1.3 1.3 0 0 1-1.192-2.311 46.613 46.613 0 0 1 13.3-4.23 1.3 1.3 0 0 1 .452 2.56ZM53.07 36.969a1.3 1.3 0 0 1 1.747 1.925c-.862.781-1.66 1.63-2.387 2.539a1.3 1.3 0 1 1-2.032-1.623 24.389 24.389 0 0 1 2.671-2.84Zm16.175 36.789c-4.086-.006-6.587-2.992-6.56-7.241.031-4.182 2.726-7.89 7.318-8.096 4.635-.183 7.16 3.378 7.1 8.013-.03 3.273-1.31 5.8-3.438 9.234a315.926 315.926 0 0 0-3.527 5.88 3981.68 3981.68 0 0 0-4.334-.129c1.58-2.58 3.2-5.211 4.881-7.832-.472.11-.955.168-1.44.17Zm7.169-26.117c1.71-.036 3.432-.048 5.162-.037.31 2.15 1.702 3.584 4.492 3.662 2.71.086 4.577-1.337 4.833-3.85.256-2.464-1.302-3.873-3.821-3.946a7.192 7.192 0 0 0-3.467.797 701.532 701.532 0 0 1-1.595-2.848c3.068-2.196 6.172-4.28 9.248-6.279a211.35 211.35 0 0 0-11.057-.06c.365-1.633.764-3.22 1.197-4.76a217.06 217.06 0 0 1 16.164.13 177.401 177.401 0 0 0-.887 5.259 366.986 366.986 0 0 0-6.562 4.37c4.59.446 7.232 3.285 6.788 8.022-.547 5.856-5.347 9.32-11.143 9.129-5.817-.16-9.682-3.606-9.352-9.589Zm30.851 15.77a4.33 4.33 0 0 0-3.48 1.027 548.04 548.04 0 0 0-2.884-1.321c.616-3.93 1.269-7.725 1.957-11.384 3.783.343 7.564.75 11.321 1.206-.105 1.398-.213 2.81-.325 4.235a438.836 438.836 0 0 0-8.417-.888 571.76 571.76 0 0 0-.703 3.956 7.775 7.775 0 0 1 3.493-.386c3.856.393 6.882 2.938 6.446 7.765-.449 4.804-3.991 7.501-8.183 7.25-4.134-.237-6.936-3.424-6.924-8.324 1.305.087 2.609.18 3.912.278a3.417 3.417 0 0 0 3.326 3.261 3.347 3.347 0 0 0 2.667-5.496 3.35 3.35 0 0 0-2.207-1.18h.001Zm1.675-27.297a2.03 2.03 0 0 0-2.304 1.702c-.913-.088-1.826-.171-2.74-.25a4.758 4.758 0 0 1 1.849-3.205 4.773 4.773 0 0 1 3.585-.914c2.797.271 4.42 2.04 4.272 4.418-.17 2.578-1.824 3.404-4.93 5.139-.788.434-1.355.757-1.768 1.036 2.043.21 4.082.439 6.117.687-.066.919-.133 1.844-.202 2.775-3.116-.375-6.243-.71-9.381-1.006l.165-1.772c.134-1.418 1.41-2.243 3.777-3.585 2.251-1.27 3.1-1.954 3.201-3.17a1.649 1.649 0 0 0-1.641-1.854Zm9.096 46.533c.287-.158.567-.319.84-.482a25.501 25.501 0 0 0 3.546-2.536c.236-.203.467-.408.691-.617a1.3 1.3 0 0 1 1.77 1.904c-.249.232-.506.461-.768.687a28.026 28.026 0 0 1-3.907 2.795c-.3.179-.605.354-.915.525a1.307 1.307 0 0 1-.989.111 1.293 1.293 0 0 1-.778-.62 1.307 1.307 0 0 1 .122-1.44 1.3 1.3 0 0 1 .388-.327Zm5.672-18.086a5.822 5.822 0 0 1-4.111-2 5.814 5.814 0 0 1-1.396-4.354c1.035.128 2.068.258 3.098.392a2.822 2.822 0 0 0 2.669 2.502c1.582.204 2.675-.54 2.805-2.038a2.397 2.397 0 0 0-.576-1.827 2.387 2.387 0 0 0-1.734-.818 3.8 3.8 0 0 0-2.028.26c-.352-.644-.705-1.287-1.061-1.93a871.372 871.372 0 0 1 5.148-3.42 531.42 531.42 0 0 0-6.684-.96c.07-1.089.136-2.171.196-3.248 3.327.463 6.621.955 9.881 1.478-.039 1.143-.088 2.29-.148 3.441l-3.638 2.43a5.335 5.335 0 0 1 3.167 1.8c.364.458.631.985.785 1.55.083.3.137.608.162.918a5.72 5.72 0 0 1-.007 1.01c-.314 3.452-3.163 5.215-6.528 4.814ZM80.053 97.353h.002-.002Z"/></svg>