<svg xmlns="http://www.w3.org/2000/svg" width="200" height="200" fill="none"><path fill="#FFE632" d="M128.312 62.368a39.526 39.526 0 0 0-13.823-2.514c-15.392-.007-29.765 9.183-35.485 24.548-1.613 4.326-2.377 8.71-2.377 12.995-.001 15.447 9.927 29.525 25.481 35.314 4.705 1.753 9.518 2.598 14.221 2.597 3.778 0 7.485-.544 11.011-1.599a1.3 1.3 0 1 0-.745-2.49v-.001a35.803 35.803 0 0 1-10.266 1.491c-4.392-.001-8.896-.789-13.314-2.434-14.599-5.444-23.787-18.564-23.788-32.878 0-3.975.708-8.047 2.213-12.088 5.337-14.32 18.681-22.848 33.049-22.855 4.277 0 8.642.757 12.916 2.35 9.866 3.676 17.204 11.04 20.905 19.912a1.3 1.3 0 1 0 2.4-1c-3.972-9.527-11.856-17.422-22.398-21.348Z"/><path fill="#BEBEC9" d="M194.455 141.634c-7.751-15.013-17.631-27.992-27.303-37.989a146.107 146.107 0 0 0-4.114-4.08c.04-.12.081-.242.083-.376.007-.37.011-.742.011-1.117.002-13.11-4.444-24.971-12.529-33.694-8.08-8.725-19.789-14.272-34.113-14.84C108.01 49.2 100.225 49 92.571 49c-10.828 0-21.395.398-33.287 1.36-13.66 1.102-25.484 6.413-33.898 14.78C16.971 73.5 11.995 84.926 12 98.07c-.007 13.131 4.778 24.316 13.108 32.511 8.326 8.202 20.141 13.417 34.147 14.871 7.454.775 16.021 1.179 25.038 1.179 10.17 0 20.911-.516 31.258-1.604 5.113-.538 9.889-1.51 14.294-2.892a1.3 1.3 0 1 0-.778-2.48c-4.225 1.324-8.832 2.265-13.788 2.787-10.246 1.078-20.904 1.589-30.986 1.589-8.938 0-17.426-.402-24.77-1.165-13.526-1.406-24.755-6.418-32.59-14.137-7.833-7.725-12.326-18.155-12.333-30.658.005-12.49 4.685-23.191 12.62-31.089 7.936-7.892 19.157-12.971 32.273-14.032 11.827-.956 22.313-1.35 33.078-1.351 7.609 0 15.358.198 23.815.536 13.715.554 24.702 5.807 32.31 14.01 7.429 8.018 11.628 18.893 11.818 31.073-7.058-6.397-13.699-11.008-19.053-13.453a18.097 18.097 0 0 0-2.646-4.31c-1-1.204-2.3-2.427-3.957-3.358a12.132 12.132 0 0 0-6.015-1.554c-1.121 0-2.315.14-3.577.45a10.24 10.24 0 0 0-3.861 1.851c-1.543 1.195-2.513 2.633-3.107 3.77a12 12 0 0 0-.575 1.278c-.194-.01-.389-.018-.582-.018a11.7 11.7 0 0 0-8.086 3.228c-1.119 1.058-1.852 2.23-2.287 3.38a9.116 9.116 0 0 0-.583 3.247 10.53 10.53 0 0 0 .314 2.516 8.951 8.951 0 0 0-2.312 1.235c-1.69 1.262-2.846 3.133-3.349 5.367-.178.78-.257 1.528-.257 2.234 0 2.346.872 4.187 1.725 5.411.239.343.475.636.695.888a9.112 9.112 0 0 0-1.686 2.265c-.9 1.704-1.265 3.589-1.267 5.376.001 1.322.201 2.594.564 3.728.367 1.134.886 2.135 1.619 2.908 1.838 1.918 4.248 3.002 6.655 3.628 2.414.624 4.854.792 6.859.793a34.33 34.33 0 0 0 4.063-.236c1.454.932 7.028 4.703 13.549 11.691 7.414 7.945 16.044 20.033 21.272 36.841a1.3 1.3 0 0 0 2.483-.772c-5.451-17.524-14.514-30.068-22.217-38.228-7.705-8.163-14.052-11.952-14.129-11.999a1.312 1.312 0 0 0-.866-.167l-.013.002c-.165.025-1.859.268-4.142.268-1.856.001-4.1-.163-6.207-.71-2.112-.545-4.059-1.47-5.427-2.907-.361-.372-.753-1.051-1.024-1.906a9.791 9.791 0 0 1-.439-2.934c-.002-1.914.539-3.894 1.747-5.33a6.37 6.37 0 0 1 2.385-1.767c1.009-.439 2.266-.712 3.84-.712 1.976-.001 4.449.437 7.471 1.518a1.3 1.3 0 1 0 .875-2.448c-3.233-1.155-5.987-1.669-8.346-1.67-1.874-.001-3.501.329-4.877.928a9.321 9.321 0 0 0-.627.304 7.439 7.439 0 0 1-.735-.923c-.618-.919-1.199-2.202-1.2-3.84 0-.512.057-1.063.192-1.658.399-1.728 1.211-2.986 2.373-3.862 1.166-.873 2.736-1.381 4.738-1.383 2.709-.004 6.178.965 10.12 3.2a1.3 1.3 0 0 0 1.281-2.263c-4.226-2.389-8.082-3.534-11.401-3.537-.497 0-.978.032-1.45.085a7.848 7.848 0 0 1-.249-1.934c0-.724.108-1.52.413-2.323.307-.803.807-1.62 1.645-2.416a9.09 9.09 0 0 1 6.298-2.516c3.084.004 6.651 1.497 10.085 5.467a1.3 1.3 0 0 0 1.969-1.698c-2.78-3.232-5.837-5.146-8.829-5.938a9.618 9.618 0 0 1 1.221-2.007c.929-1.161 2.271-2.28 4.297-2.78a12.415 12.415 0 0 1 2.959-.375c1.883.002 3.428.487 4.742 1.222 1.966 1.1 3.401 2.805 4.325 4.253.463.722.798 1.375 1.014 1.839.107.232.186.416.235.54l.054.135.011.03v.002c.12.336.377.613.705.756 6.55 2.854 15.859 9.71 25.355 19.532 9.507 9.824 19.244 22.619 26.861 37.374a1.3 1.3 0 1 0 2.31-1.192v-.001Z"/></svg>