<svg xmlns="http://www.w3.org/2000/svg" width="200" height="200" fill="none"><path fill="#FFE632" d="M127.386 128.678c-4.832 2.484-10.513 4.401-16.064 4.397a35.273 35.273 0 0 1-31.92-20.29 35.264 35.264 0 0 1 40.815-49.097 35.26 35.26 0 0 1 25.779 27.676 1.302 1.302 0 0 0 2.35.501 1.3 1.3 0 0 0 .207-.973 37.865 37.865 0 1 0-37.231 44.783c6.147-.005 12.172-2.081 17.251-4.684a1.302 1.302 0 0 0-.2-2.388 1.297 1.297 0 0 0-.987.075Z"/><path fill="#BEBEC9" d="M195.985 138.605c-12.406-14.759-27.971-26.881-38.768-34.41l.005-.014a65.21 65.21 0 0 0 .62-6.278c.044-.853.066-1.7.065-2.543a44.928 44.928 0 0 0-10.767-29.626 44.368 44.368 0 0 0-27.617-14.822c-8.329-1.174-20.788-1.762-33.553-1.763a302.545 302.545 0 0 0-34.918 1.76A47.306 47.306 0 0 0 9.711 97.837c-.002 11.935 3.76 22.753 10.793 31.039 7.03 8.289 17.32 14.011 30.2 15.844a298.997 298.997 0 0 0 38.301 2.272c6.06-.001 11.975-.168 17.283-.537a96.207 96.207 0 0 0 13.664-1.753 53.127 53.127 0 0 0 16.277-6.344 155.787 155.787 0 0 1 21.529 29.824 1.302 1.302 0 0 0 2.273-1.262c-14.766-26.581-32.958-41.239-36.089-43.648a1.292 1.292 0 0 0-1.394-.615 61.676 61.676 0 0 1-13.692 1.688c-5.934.003-10.39-1.147-13.31-2.721a10.49 10.49 0 0 1-3.236-2.548 4.534 4.534 0 0 1-1.09-2.478v-.001a7.455 7.455 0 0 1-.02-.558 4.729 4.729 0 0 1 3.288-4.728c1.4-.519 2.885-.77 4.378-.741.299 0 .6.008.903.024.792.043 1.471.061 2.055.061.59 0 1.081-.019 1.501-.052a28.477 28.477 0 0 1 4.099 3.144 1.293 1.293 0 0 0 1.423.25 1.31 1.31 0 0 0 .687-.719 1.293 1.293 0 0 0-.022-.995 1.31 1.31 0 0 0-.291-.415c-3.171-3.019-7.742-5.456-12.047-7.872-2.151-1.203-4.233-2.391-6.02-3.599a19.03 19.03 0 0 1-4.236-3.654 6.347 6.347 0 0 1-1.464-3.947 5.072 5.072 0 0 1 1.512-3.662 6.09 6.09 0 0 1 4.384-1.608c1.017.01 2.028.166 3.001.46a41.812 41.812 0 0 1 11.307 5.573 54.9 54.9 0 0 1 3.537 2.608 39.767 39.767 0 0 1 1.208 1.008l.06.053.016.015a1.3 1.3 0 1 0 1.742-1.93 51.086 51.086 0 0 0-5.105-3.906 44.326 44.326 0 0 0-12.039-5.917 14.86 14.86 0 0 0-1.457-.34 4.98 4.98 0 0 1-.448-2.142 5.42 5.42 0 0 1 1.265-3.548 4.024 4.024 0 0 1 1.811-1.103 10.264 10.264 0 0 1 3.226-.458c3.146.092 6.238.842 9.076 2.201a33.94 33.94 0 0 1 10.238 7.341 1.302 1.302 0 0 0 2.234-.884 1.306 1.306 0 0 0-.366-.925h-.001a36.543 36.543 0 0 0-11.028-7.898 30.056 30.056 0 0 0-3.346-1.283 5.066 5.066 0 0 1-.161-1.267 4.968 4.968 0 0 1 1.258-3.36 5.227 5.227 0 0 1 4.031-1.554c.961.012 1.916.15 2.841.411a32.622 32.622 0 0 1 11.584 6.082 61.91 61.91 0 0 1 12.223 13.46 75.038 75.038 0 0 1 3.279 5.22 55.086 55.086 0 0 1 1.05 1.93l.051.1.015.03c.113.23.293.422.516.55l.335.196c3.352 1.972 31.195 18.805 50.691 42.028a1.299 1.299 0 0 0 2.286-.725 1.296 1.296 0 0 0-.295-.947Zm-59.188-54.447a59.059 59.059 0 0 0-9.353-9.437 35.211 35.211 0 0 0-12.519-6.55 13.58 13.58 0 0 0-3.516-.501 7.835 7.835 0 0 0-5.942 2.391 7.555 7.555 0 0 0-1.947 5.123c0 .186.022.371.036.557a20.828 20.828 0 0 0-4.082-.442c-1.374-.02-2.743.18-4.053.593a6.574 6.574 0 0 0-2.961 1.88 8.02 8.02 0 0 0-1.888 5.236c.004.654.083 1.305.237 1.94a8.568 8.568 0 0 0-5.66 2.327 7.677 7.677 0 0 0-2.296 5.521 8.949 8.949 0 0 0 2.03 5.565 21.502 21.502 0 0 0 4.816 4.191c2.8 1.89 6.104 3.636 9.25 5.42l-.083-.002a12.875 12.875 0 0 0-6.916 1.733 7.19 7.19 0 0 0-2.435 2.558 7.69 7.69 0 0 0-.916 3.778c0 .244.01.494.028.749a7.112 7.112 0 0 0 1.657 3.918 15.281 15.281 0 0 0 6.864 4.456 34.98 34.98 0 0 0 11.708 1.784 63.692 63.692 0 0 0 13.527-1.593 112.66 112.66 0 0 1 12.027 11.064 50.97 50.97 0 0 1-15.026 5.747 93.688 93.688 0 0 1-13.276 1.698c-5.23.363-11.092.53-17.103.53-12.68.063-25.35-.687-37.934-2.246-12.33-1.763-21.978-7.174-28.584-14.952-6.602-7.781-10.174-17.962-10.176-29.357A44.707 44.707 0 0 1 51.376 53.49a300.139 300.139 0 0 1 34.594-1.74c12.677-.001 25.083.592 33.189 1.737a41.762 41.762 0 0 1 26.014 13.948 42.315 42.315 0 0 1 10.134 27.926c0 .798-.02 1.601-.061 2.411a62.357 62.357 0 0 1-.439 4.765c-5.302-3.604-9.102-5.886-10.205-6.538a76.04 76.04 0 0 0-7.805-11.84Z"/></svg>