<svg xmlns="http://www.w3.org/2000/svg" width="200" height="200" fill="none"><path fill="#BEBEC9" d="M141.508 48.76c-3.491-3.99-8.451-7.216-15.219-9.425-6.772-2.21-15.362-3.425-26.229-3.426-9.66 0-17.519.96-23.903 2.726-9.569 2.64-15.852 7.149-19.655 12.887-3.806 5.736-5.106 12.573-5.106 19.783a40.573 40.573 0 0 0 2.115 13.71 27.057 27.057 0 0 0 5.158 8.837c3.505 3.988 8.473 7.213 15.236 9.422 6.766 2.211 15.335 3.426 26.155 3.427 9.619-.001 17.457-.961 23.833-2.727 9.557-2.639 15.856-7.147 19.68-12.883 3.827-5.734 5.153-12.573 5.152-19.786a40.88 40.88 0 0 0-2.09-13.707 26.971 26.971 0 0 0-5.127-8.838Zm2.654 35.378a24.455 24.455 0 0 1-4.663 7.997c-3.158 3.59-7.674 6.568-14.091 8.668-6.414 2.098-14.721 3.299-25.348 3.298-9.445 0-17.059-.947-23.138-2.632-9.126-2.537-14.767-6.676-18.212-11.822-3.441-5.15-4.714-11.432-4.714-18.342-.088-4.358.568-8.7 1.94-12.837a24.357 24.357 0 0 1 4.634-7.995c3.143-3.588 7.647-6.566 14.07-8.666 6.418-2.098 14.746-3.299 25.42-3.298 9.488 0 17.123.947 23.21 2.632 9.138 2.537 14.759 6.675 18.183 11.82 3.421 5.148 4.672 11.43 4.672 18.344.087 4.359-.577 8.7-1.963 12.833Z"/><path fill="#BEBEC9" d="M169.9 15.15a4.634 4.634 0 0 0-1.751-2.365 5.3 5.3 0 0 0-2.451-.87 6.128 6.128 0 0 0-.677-.037 5.101 5.101 0 0 0-3.413 1.228 5.889 5.889 0 0 0-1.833 3.99c-.409 4.228-1.753 20.545-2.622 31.181a51.76 51.76 0 0 0-.499-1.82c-2.811-9.428-8.228-17.577-17.346-23.268-9.114-5.697-21.828-8.946-39.248-8.947-11.616 0-21.131 1.445-28.892 4.095-11.64 3.965-19.322 10.709-23.981 19.162a46.828 46.828 0 0 0-4.373 11.37c-.867-10.612-2.254-27.465-2.67-31.773a5.893 5.893 0 0 0-1.834-3.99 5.104 5.104 0 0 0-3.413-1.228c-.227 0-.453.013-.678.038a5.008 5.008 0 0 0-3.168 1.487 4.8 4.8 0 0 0-1.033 1.748 7.137 7.137 0 0 0-.351 2.32c0 .218.007.443.023.676.331 5.056 1.859 22.907 2.793 32.803.132 2.458.708 4.87 1.699 7.123a7.113 7.113 0 0 0 1.38 1.953 6.437 6.437 0 0 0-1.5 1.64 8.812 8.812 0 0 0-1.012 3.042 24.737 24.737 0 0 0-.325 4.205 37.12 37.12 0 0 0 .257 4.276c.264 2.4.803 4.76 1.606 7.037.308.868.689 1.708 1.137 2.512a6.49 6.49 0 0 0 1.348 1.734 9.877 9.877 0 0 0 4.135 1.837 17 17 0 0 0 2.258.354l.033.12a37.71 37.71 0 0 0 17.435 22.211c7.367 4.305 17.056 7.06 29.64 7.962v2.346c-.447.045-.897.085-1.338.138l-.071.004c-3.043.354-5.83.812-8.104 1.294a43.444 43.444 0 0 0-3.001.737c-.724.197-1.43.45-2.115.757a4.007 4.007 0 0 0-1.45 1.281c-.07.096-.133.213-.202.316a8.77 8.77 0 0 0-2.645-1.316 17.733 17.733 0 0 0-5.138-.67c-1.35.006-2.7.1-4.037.283a1.302 1.302 0 0 0-.617 2.322c.274.209.62.301.961.256a27.988 27.988 0 0 1 3.693-.26c1.477-.029 2.95.158 4.372.554a5.617 5.617 0 0 1 2.225 1.2c-.231.584-.457 1.21-.676 1.901a4.75 4.75 0 0 0-3.288 1.697 1.299 1.299 0 0 0 .153 1.832 1.284 1.284 0 0 0 1.57.054l-.158.841a1.291 1.291 0 0 0 2.295 1.028 1.286 1.286 0 0 0 .899-.933 35.52 35.52 0 0 1 1.89-6.132c.214-.502.48-.979.793-1.426a1.6 1.6 0 0 1 .48-.481c.556-.245 1.13-.448 1.717-.606a67.158 67.158 0 0 1 9.143-1.755 18.48 18.48 0 0 0 3.332 2.15l.017.009.024.013v-.001c.18.094.332.16.431.206a18.178 18.178 0 0 0 7.69 1.669c2.765-.009 5.501-.571 8.046-1.653.171-.066.316-.131.428-.183a14.715 14.715 0 0 0 3.441-2.124c1.82.252 3.511.536 4.988.831 1.269.254 2.383.515 3.286.766a13.39 13.39 0 0 1 1.979.678l.004.002c.166.107.309.246.419.41a9.307 9.307 0 0 1 1.113 2.149 33.595 33.595 0 0 1 1.166 3.65 1.298 1.298 0 0 0 1.591.92 1.302 1.302 0 0 0 .922-1.59c-.35-1.356-.78-2.69-1.287-3.996a9.813 9.813 0 0 1 2.793-1.195 19.74 19.74 0 0 1 5.092-.611c1.127.001 2.253.074 3.371.217a1.304 1.304 0 0 0 .966-.258 1.299 1.299 0 0 0-.638-2.321 29.327 29.327 0 0 0-3.699-.238 22.296 22.296 0 0 0-5.773.702 12.603 12.603 0 0 0-3.289 1.388c-.088-.134-.172-.278-.267-.401a3.833 3.833 0 0 0-1.371-1.177 15.54 15.54 0 0 0-2.395-.834 78.891 78.891 0 0 0-11.65-2.039v-2.343a84.824 84.824 0 0 0 20.185-3.503c11.613-3.671 19.329-9.974 24.027-18.084a42.22 42.22 0 0 0 3.822-8.893c.194.098.41.145.628.135a16.69 16.69 0 0 0 2.331-.36 9.871 9.871 0 0 0 4.134-1.837 6.49 6.49 0 0 0 1.348-1.734 19.286 19.286 0 0 0 1.64-4.043 33.315 33.315 0 0 0 1.103-5.506c.167-1.42.253-2.847.256-4.277a24.77 24.77 0 0 0-.324-4.204 8.83 8.83 0 0 0-1.011-3.041 6.948 6.948 0 0 0-2.114-2.086c-.013-.01-.028-.016-.041-.025a8.328 8.328 0 0 0 1.651-2.86c.62-1.86 1.005-3.79 1.145-5.746.935-9.896 2.462-27.747 2.793-32.804.016-.233.023-.458.023-.678a7.125 7.125 0 0 0-.351-2.318ZM35.071 50.706c-.931-9.863-2.46-27.747-2.787-32.73a7.634 7.634 0 0 1-.017-.506c-.011-.5.06-.999.21-1.476.13-.432.401-.808.77-1.069a2.72 2.72 0 0 1 1.257-.425 3.57 3.57 0 0 1 .393-.022 2.507 2.507 0 0 1 1.694.579c.607.609.953 1.43.965 2.29.307 3.168 1.155 13.338 1.926 22.698.385 4.681.751 9.163 1.02 12.475.21 2.562.36 4.406.417 5.119-.787.186-1.56.426-2.316.716-.197.076-.405.178-.61.267a3.543 3.543 0 0 1-1.486-1.711 18.028 18.028 0 0 1-1.436-6.205Zm6.504 33.019a7.202 7.202 0 0 1-2.82-1.235 4.122 4.122 0 0 1-.773-1.042 16.835 16.835 0 0 1-1.403-3.487c-.48-1.66-.82-3.357-1.015-5.074a34.477 34.477 0 0 1-.239-3.974 22.204 22.204 0 0 1 .286-3.755c.097-.74.321-1.46.662-2.124.35-.518.805-.956 1.337-1.285.894-.56 1.86-.996 2.87-1.296.21-.065.405-.12.582-.168a91.066 91.066 0 0 0-.227 6.485 71.434 71.434 0 0 0 1.884 17.182 14.448 14.448 0 0 1-1.144-.227Zm65.494 38.212c-.086.041-.163.084-.251.124l-.009.004c-.13.061-.222.102-.292.126l-.073.029a18.174 18.174 0 0 1-7.025 1.444 15.584 15.584 0 0 1-6.597-1.428c-.153-.07-.268-.121-.328-.154l-.041-.022c-.178-.088-.355-.187-.532-.283l.075-.008c.065-.013.129-.033.19-.057a1.24 1.24 0 0 0 .246-.074c.074-.039.145-.087.21-.141a.855.855 0 0 0 .328-.364c.045-.066.083-.135.114-.208.027-.086.045-.175.053-.265.017-.061.03-.122.038-.185V117.11c2.211.111 4.5.173 6.885.173 2.072 0 4.054-.057 5.995-.141v3.553c.002.292.104.574.289.799.184.226.44.383.725.443Zm30.805-15.188c-8.559 5.01-20.769 7.936-37.814 7.934-11.36 0-20.58-1.298-27.994-3.65-11.124-3.539-18.177-9.377-22.564-16.911-4.38-7.537-6.068-16.875-6.067-27.352a68.5 68.5 0 0 1 2.523-19.568c2.69-8.958 7.684-16.453 16.233-21.809 8.553-5.35 20.762-8.552 37.869-8.551 11.402 0 20.636 1.422 28.052 3.956 11.125 3.812 18.17 10.06 22.546 17.958 4.37 7.902 6.03 17.536 6.028 28.014a64.917 64.917 0 0 1-2.547 19.24 35.073 35.073 0 0 1-16.265 20.739Zm27.37-41.591c.201 1.24.297 2.497.285 3.754a34.522 34.522 0 0 1-.239 3.976 28.905 28.905 0 0 1-1.465 6.446 14 14 0 0 1-.952 2.114 4.12 4.12 0 0 1-.773 1.041 7.498 7.498 0 0 1-3.025 1.284 15.15 15.15 0 0 1-1.691.28 71.354 71.354 0 0 0 1.902-17.283c0-2.257-.082-4.48-.246-6.668.817.176 1.619.42 2.397.726a9.949 9.949 0 0 1 1.863.958c.51.322.946.747 1.283 1.248.34.665.564 1.383.661 2.123Zm2.39-47.18c-.326 4.98-1.855 22.865-2.787 32.728-.096 2.1-.58 4.164-1.427 6.089-.214.436-.5.833-.846 1.175-.138.129-.288.243-.45.341a18.486 18.486 0 0 0-.977-.34c-.59-.187-1.191-.34-1.799-.459a1.254 1.254 0 0 0-.339.008l.406-5c.809-9.93 2.488-30.415 2.948-35.174.012-.86.358-1.68.964-2.29a2.507 2.507 0 0 1 1.694-.578c.131 0 .262.008.393.022a2.425 2.425 0 0 1 1.558.682c.212.233.372.51.469.81.15.478.221.976.21 1.476 0 .16-.006.33-.017.509Z"/><path fill="#BEBEC9" d="m132.828 92.383-.001.001-.001.001.002-.002Z"/><path fill="#BEBEC9" d="M131.825 89.794c-.224.209-.454.415-.688.615l-.002.002a25.342 25.342 0 0 1-3.546 2.534c-.273.164-.554.325-.841.484a1.297 1.297 0 0 0-.507 1.767 1.299 1.299 0 0 0 1.767.507c.309-.171.613-.346.914-.525a27.986 27.986 0 0 0 3.905-2.794c.266-.227.522-.456.77-.688a1.289 1.289 0 0 0 .421-.907 1.308 1.308 0 0 0-.762-1.235 1.3 1.3 0 0 0-1.431.24ZM85.05 43.097a46.612 46.612 0 0 0-13.299 4.23 1.3 1.3 0 1 0 1.192 2.31 44.048 44.048 0 0 1 12.56-3.98 1.3 1.3 0 0 0-.452-2.56ZM65.592 51.544a24.276 24.276 0 0 0-2.673 2.842 1.3 1.3 0 0 0 2.032 1.623 21.673 21.673 0 0 1 2.387-2.538 1.3 1.3 0 0 0-1.746-1.927ZM69.919 142.742a1.299 1.299 0 0 0-1.487-1.081c-1.64.242-3.295.356-4.952.343-1.516 0-3.081-.079-4.592-.223l-.123-.006h-.01a1.29 1.29 0 0 0-.112 2.578l-.001.016a51.59 51.59 0 0 0 4.838.235 34.808 34.808 0 0 0 5.358-.375 1.3 1.3 0 0 0 1.08-1.487ZM42.79 139.451a19.661 19.661 0 0 1-8.59-6.898 9.375 9.375 0 0 1-1.703-5.365 7.339 7.339 0 0 1 1.94-5.109 1.284 1.284 0 0 0 .352-.934 1.3 1.3 0 0 0-2.257-.834 9.95 9.95 0 0 0-2.635 6.877 11.935 11.935 0 0 0 2.211 6.909l.002.002a22.175 22.175 0 0 0 9.809 7.801 1.298 1.298 0 0 0 1.653-.791 1.302 1.302 0 0 0-.781-1.658ZM137.217 142.284l-.247.003c-1.41.003-3.222-.285-4.672-.426a1.297 1.297 0 0 0-1.417 1.171 1.296 1.296 0 0 0 1.171 1.417c1.322.123 3.199.435 4.918.438.103 0 .207-.001.311-.004a1.298 1.298 0 0 0 1.257-1.331 1.301 1.301 0 0 0-1.321-1.268ZM165.859 119.615l.003.002.006.005-.009-.007Z"/><path fill="#BEBEC9" d="M165.862 119.617c-.133-.12-.26-.222-.363-.305a1.306 1.306 0 0 0-.955-.279 1.298 1.298 0 0 0-1.151 1.433 1.3 1.3 0 0 0 .477.872c.095.076.187.152.251.21l.009.008a7.196 7.196 0 0 1 1.898 2.648 7.79 7.79 0 0 1 .567 2.974 9.392 9.392 0 0 1-1.706 5.375 21.81 21.81 0 0 1-4.232 4.292 16.78 16.78 0 0 1-5.199 2.786 1.309 1.309 0 0 0-.774.631 1.301 1.301 0 0 0 1.529 1.857 19.33 19.33 0 0 0 6.025-3.211 24.335 24.335 0 0 0 4.744-4.813 11.944 11.944 0 0 0 2.213-6.917 10.391 10.391 0 0 0-.763-3.964 9.798 9.798 0 0 0-2.57-3.597Z"/><path fill="#BEBEC9" d="M156.914 126.633a3.618 3.618 0 0 1-.321-.298 1.297 1.297 0 0 0-1.837-.076 1.297 1.297 0 0 0-.077 1.837 6.008 6.008 0 0 0 7.827.899 6.007 6.007 0 0 0 1.894-2.113l.003-.005a5.961 5.961 0 0 0 .663-3.526 1.299 1.299 0 1 0-2.581.309v-.001c.016.135.024.27.024.405l-.002.02-5.593 2.549Z"/><path fill="#BEBEC9" d="m156.286 129.344-.001-.001h-.002l.003.001ZM107.902 124.425l-.008.003-.001.001.009-.004ZM129.137 154.261a1.3 1.3 0 0 0 1.184-1.407 202.654 202.654 0 0 0-.745-7.157 1.3 1.3 0 1 0-2.581.316c.278 2.275.527 4.64.735 7.064a1.303 1.303 0 0 0 1.407 1.184ZM122.699 122.229l.001.001.003.001-.004-.002ZM129.897 170.115a1.302 1.302 0 0 0-1.291 1.308h-.001c.003.431.004.861.004 1.289a130.86 130.86 0 0 1-.843 15.98 1.31 1.31 0 0 0 .262.96 1.296 1.296 0 0 0 .864.493 1.288 1.288 0 0 0 .96-.262 1.302 1.302 0 0 0 .494-.864c.62-5.413.909-10.859.864-16.307 0-.433-.002-.868-.005-1.305a1.305 1.305 0 0 0-.81-1.196 1.306 1.306 0 0 0-.498-.096ZM70.526 144.665a1.29 1.29 0 0 0-.96.264 1.308 1.308 0 0 0-.49.866 201.633 201.633 0 0 0-.886 8.847 1.302 1.302 0 0 0 1.192 1.399 1.3 1.3 0 0 0 1.4-1.193c.239-3.004.527-5.946.874-8.733a1.3 1.3 0 0 0-1.13-1.45ZM70.035 172.197a1.301 1.301 0 0 0-2.6-.004v.331c-.046 5.511.245 11.019.87 16.494a1.304 1.304 0 0 0 .493.865 1.309 1.309 0 0 0 1.441.102 1.307 1.307 0 0 0 .646-1.293 133.129 133.129 0 0 1-.85-16.168v-.327ZM43.736 126.008a30.155 30.155 0 0 1-1.881-.558 30.613 30.613 0 0 1-3.188-1.251 1.296 1.296 0 0 0-.994-.037 1.312 1.312 0 0 0-.729.677 1.222 1.222 0 0 0-.031.133l-.212-.071-.001-.002-.013-.048v-.001a3.058 3.058 0 0 1-.073-.495 1.303 1.303 0 0 0-.872-1.16 1.313 1.313 0 0 0-.998.061 1.308 1.308 0 0 0-.66.752 1.302 1.302 0 0 0-.065.506c.02.311.065.62.135.923l.001.006c.124.499.307.981.545 1.436a6.004 6.004 0 0 0 8.117 2.463l.01-.005a5.876 5.876 0 0 0 1.537-1.192 1.3 1.3 0 0 0-.628-2.137Z"/><path fill="#FFE632" d="M92.718 64.726a20.7 20.7 0 0 0-2.13-9.471 10.11 10.11 0 0 0-2.763-3.373 6.654 6.654 0 0 0-4.502-1.367 7.43 7.43 0 0 0-4.078 1.546 11.809 11.809 0 0 0-3.715 5.488 21.554 21.554 0 0 0-1.18 7.169 18.537 18.537 0 0 0 2.106 9.008 9.34 9.34 0 0 0 2.84 3.167 7.344 7.344 0 0 0 4.161 1.255c.135 0 .27-.004.407-.01a7.6 7.6 0 0 0 4.083-1.395 10.634 10.634 0 0 0 3.66-5.176 20.36 20.36 0 0 0 1.11-6.84Zm-4.286 7.576a6.903 6.903 0 0 1-1.989 2.32 4.984 4.984 0 0 1-2.705.919 5.758 5.758 0 0 1-.28.007 4.724 4.724 0 0 1-2.71-.812 7.985 7.985 0 0 1-2.794-3.94 17.755 17.755 0 0 1-1.004-6.078 17.466 17.466 0 0 1 1.802-8.044 7.859 7.859 0 0 1 2.072-2.547 4.814 4.814 0 0 1 2.667-1.017l-.084-1.297.084 1.297a4.036 4.036 0 0 1 2.771.85 9.145 9.145 0 0 1 2.809 4.301 19.759 19.759 0 0 1 1.047 6.465 16.014 16.014 0 0 1-1.686 7.576ZM123.83 55.255a10.117 10.117 0 0 0-2.763-3.373 6.653 6.653 0 0 0-4.502-1.367 7.427 7.427 0 0 0-4.078 1.546 11.798 11.798 0 0 0-3.714 5.488 21.533 21.533 0 0 0-1.18 7.169 18.532 18.532 0 0 0 2.105 9.008 9.352 9.352 0 0 0 2.84 3.167 7.347 7.347 0 0 0 4.162 1.255 8.5 8.5 0 0 0 .407-.01 7.604 7.604 0 0 0 4.082-1.395 10.636 10.636 0 0 0 3.661-5.176 20.383 20.383 0 0 0 1.11-6.84 20.695 20.695 0 0 0-2.13-9.472Zm-2.155 17.047a6.92 6.92 0 0 1-1.989 2.32 4.985 4.985 0 0 1-2.706.919 5.717 5.717 0 0 1-.28.007 4.726 4.726 0 0 1-2.71-.812 7.987 7.987 0 0 1-2.793-3.94 17.738 17.738 0 0 1-1.004-6.078 17.46 17.46 0 0 1 1.801-8.044 7.869 7.869 0 0 1 2.072-2.547 4.814 4.814 0 0 1 2.667-1.017l-.084-1.297.084 1.297a4.036 4.036 0 0 1 2.771.85 9.145 9.145 0 0 1 2.809 4.301 19.767 19.767 0 0 1 1.047 6.465 16.018 16.018 0 0 1-1.685 7.576ZM110.495 86.88a54.898 54.898 0 0 0-10.259-.878 74.897 74.897 0 0 0-9.567.599 1.3 1.3 0 0 0-1.102 1.482 11.24 11.24 0 0 0 1.844 4.362 9.929 9.929 0 0 0 3.31 3.01 11.415 11.415 0 0 0 5.641 1.356 12.068 12.068 0 0 0 5.67-1.297 10.763 10.763 0 0 0 4.429-4.404c.474-.843.831-1.748 1.059-2.688a1.313 1.313 0 0 0-.552-1.347 1.299 1.299 0 0 0-.473-.195Zm-5.775 6.385a9.528 9.528 0 0 1-4.358.946 8.81 8.81 0 0 1-4.376-1.027 7.677 7.677 0 0 1-3.155-3.447 9.125 9.125 0 0 1-.313-.737 76.495 76.495 0 0 1 7.718-.398c2.768-.01 5.534.188 8.272.591a8.864 8.864 0 0 1-1.218 1.993 7.844 7.844 0 0 1-2.57 2.079ZM145.104 156.565l-.011-.01a1.292 1.292 0 0 0-.929-.364 1.292 1.292 0 0 0-1.186.831 1.306 1.306 0 0 0 .026.998c.069.157.169.298.294.415l.011.011a1.3 1.3 0 0 0 1.795-1.881M50.446 123.327a.583.583 0 0 1 .329-.118l.037.002.015.001c.13.005.258.032.379.08l.057.03.007.005.02-.023-.022.021.002.002.02-.023-.022.021a1.294 1.294 0 0 0 1.412.314 1.305 1.305 0 0 0 .72-.69 1.296 1.296 0 0 0-.256-1.424 3.207 3.207 0 0 0-2.119-.906l-.099 1.297.114-1.295a2.706 2.706 0 0 0-.265-.012 3.183 3.183 0 0 0-1.77.554 1.303 1.303 0 0 0-.361 1.803 1.3 1.3 0 0 0 1.802.361ZM119.293 129.986l.002-.001.004-.001-.006.002Z"/><path fill="#FFE632" d="m56.172 119.772.036-.003.081.034.012.008c.398.253.717.611.921 1.036.043.094.074.193.094.294l.008.061v.002h.004a1.293 1.293 0 0 0 .577 1.074 1.298 1.298 0 0 0 1.213.12c.334-.12.684-.185 1.038-.193.2-.006.4.03.585.106a.823.823 0 0 1 .383.35c.138.212.213.458.217.711a1.526 1.526 0 0 1-.138.604 1.3 1.3 0 0 0 2.18 1.364 4.15 4.15 0 0 1 .638-.621c.034-.026.052-.031.083-.051.025.053.05.111.074.175.142.393.249.797.32 1.208.034.188.058.351.073.464l.017.129.003.03v.004a1.297 1.297 0 0 0 1.118 1.155c.19.027.386.01.57-.049a5.558 5.558 0 0 1 1.397-.221c.204-.01.409.022.6.093l.034.02.01.03c.068.24.103.487.105.735.005.265-.048.528-.157.77l-.084.15-.009.012.004.003a1.296 1.296 0 0 0 .637 2.091v.001l.072.023c.311.106.604.261.866.46.122.093.226.207.308.337.059.097.09.209.087.323l-.015.163-.003.023c-.006.019-.031.081-.073.201a1.299 1.299 0 0 0 2.179 1.313c.236-.257.498-.489.78-.693.138-.099.285-.183.44-.25a.752.752 0 0 1 .26-.065l.116.051c.332.261.594.6.765.986.067.152.105.314.112.48v.008h.004a1.295 1.295 0 0 0 1.672 1.349v.001l.066-.017c.253-.062.513-.094.774-.096.243-.008.486.036.711.128.184.081.33.228.41.412.087.176.135.37.139.568a1.297 1.297 0 0 0 .884 1.194c.167.056.344.078.52.064a3.813 3.813 0 0 1 .554-.002l.063.005.01.001v-.001a1.299 1.299 0 0 0 1.391-.879c.11-.307.247-.604.41-.887a2.63 2.63 0 0 1 .295-.409c.068.077.131.157.19.24.23.338.434.693.608 1.063.079.164.142.307.184.405l.047.112.01.027.002.004a1.304 1.304 0 0 0 1.364.816 1.29 1.29 0 0 0 .534-.187v-.001c.223-.13.454-.245.692-.344a3.057 3.057 0 0 1 1.058-.267.618.618 0 0 1 .187.023l.026.014a1.307 1.307 0 0 0 1.225.345c.3-.067.608-.099.916-.097.149 0 .275.007.359.013l.092.008.017.002v-.001a1.297 1.297 0 0 0 1.396-.884v.001c.136-.385.307-.756.51-1.109.13-.23.289-.443.472-.633l.113-.09c.114.102.217.216.308.338.32.435.597.9.828 1.388.11.224.198.421.258.559l.067.159.016.039.003.008a1.294 1.294 0 0 0 .801.759 1.293 1.293 0 0 0 1.096-.13c.265-.158.541-.297.825-.418a3.972 3.972 0 0 1 1.412-.36.822.822 0 0 1 .35.06.343.343 0 0 1 .157.157c.093.159.175.324.246.494a1.298 1.298 0 0 0 1.633.707l.138-.026.067.008.002-.005c.166.068.345.101.525.097a1.303 1.303 0 0 0 .945-.45c.117-.137.204-.296.256-.469.116-.35.265-.689.444-1.012.122-.224.271-.434.444-.623.083-.1.19-.178.311-.228l.002-.001h.001c.107.015.21.053.301.112.305.185.58.413.819.678.117.125.214.239.278.319l.07.089.014.019a1.298 1.298 0 0 0 2.081.034h.001c.116-.134.248-.253.392-.354a.912.912 0 0 1 .483-.196.44.44 0 0 1 .155.037c.408.307.721.724.901 1.202a3.404 3.404 0 0 1 .198 1.401l-.005.046v.003h.002a1.289 1.289 0 0 0 .549 1.257 1.302 1.302 0 0 0 1.371.061l.001.001.019-.01a2.612 2.612 0 0 1 1.077-.259c.218-.002.434.039.636.12a1.302 1.302 0 0 0 1.776-1.01 2.68 2.68 0 0 1 .737-1.256c.158-.168.326-.326.503-.473l.155-.123.036-.027.001-.001a1.302 1.302 0 0 0 .407-1.664 2.055 2.055 0 0 1-.288-.887l.019-.126c.013-.029.043-.082.175-.168.28-.154.587-.254.905-.296.163-.027.311-.041.414-.047l.116-.006.025-.001h.001a1.301 1.301 0 0 0 1.279-1.068c.071-.347.173-.687.306-1.016a2.61 2.61 0 0 1 .304-.562c.372.325.699.697.975 1.106.162.229.299.443.394.596l.108.178.026.045.005.01c.093.165.222.308.376.419a1.316 1.316 0 0 0 1.081.201c.184-.048.355-.135.502-.256v.001a5.72 5.72 0 0 1 .726-.488 2.95 2.95 0 0 1 1.179-.427 1.296 1.296 0 0 0 1.242-1.162 1.296 1.296 0 0 0-.081-.607 1.248 1.248 0 0 1-.091-.444 1.085 1.085 0 0 1 .382-.791.894.894 0 0 1 .319-.221c.117-.043.241-.064.365-.062.5.038.983.195 1.41.458a1.297 1.297 0 0 0 1.552-.2 1.302 1.302 0 0 0 .236-1.547.987.987 0 0 1-.134-.36l.009-.009c.411-.397.953-.63 1.524-.656l.118.007.007.001.001-.005a1.298 1.298 0 0 0 1.182-.363 1.298 1.298 0 0 0 .338-1.19v-.001a2.455 2.455 0 0 1-.035-.42 1.724 1.724 0 0 1 .143-.736.717.717 0 0 1 .168-.222.933.933 0 0 1 .336-.179c.174-.056.355-.085.537-.086.222 0 .442.049.644.142.172.079.333.183.476.308.219.189.496.3.785.315a1.3 1.3 0 0 0 1.278-1.766.696.696 0 0 1-.049-.184l.002-.002.013-.011a2.343 2.343 0 0 1 1.528-.655l.114.005.007.001.001-.004a1.298 1.298 0 0 0 1.493-.916c.059-.206.066-.425.019-.634l.001-.001a2.508 2.508 0 0 1-.034-.415 1.74 1.74 0 0 1 .143-.739.695.695 0 0 1 .167-.221.894.894 0 0 1 .335-.177c.104-.037.212-.061.321-.071a1.302 1.302 0 0 0 1.116-1.855 1.294 1.294 0 0 0-.739-.669 1.303 1.303 0 0 0-.503-.073c-.334.02-.664.084-.981.189a3.516 3.516 0 0 0-1.266.703 3.414 3.414 0 0 0-.989 1.538 4.19 4.19 0 0 0-.17.852 5.228 5.228 0 0 0-2.245 1.16l-.004.003-.01.008.001.001c-.22.191-.407.417-.554.669a4.071 4.071 0 0 0-.9-.101c-.447.001-.89.07-1.316.205l-.01.003a3.533 3.533 0 0 0-1.263.703 3.412 3.412 0 0 0-.99 1.535c-.087.28-.145.568-.172.86a5.223 5.223 0 0 0-2.266 1.175 2.65 2.65 0 0 0-.693.912c-.027.058-.036.118-.058.177a4.486 4.486 0 0 0-.624-.062 3.607 3.607 0 0 0-1.311.24c-.469.185-.892.47-1.241.834a3.714 3.714 0 0 0-1.108 2.531 6.905 6.905 0 0 0-.83.392 11.44 11.44 0 0 0-.263-.351 7.243 7.243 0 0 0-1.074-1.133 3.605 3.605 0 0 0-.729-.474 2.34 2.34 0 0 0-1.015-.244c-.206 0-.41.032-.606.093a2.845 2.845 0 0 0-1.399 1.036 5.81 5.81 0 0 0-.848 1.722c-.297.05-.59.122-.876.214a3.841 3.841 0 0 0-1.515.891 2.835 2.835 0 0 0-.607.888 2.91 2.91 0 0 0-.23 1.153c.005.377.065.75.179 1.109-.095.092-.191.182-.293.291a6.407 6.407 0 0 0-.957 1.347c-.096-.006-.199-.026-.292-.026-.18.002-.36.014-.539.035a5.295 5.295 0 0 0-2.123-3.305l-.136-.086a3.052 3.052 0 0 0-1.47-.384c-.438.003-.87.095-1.271.271a3.785 3.785 0 0 0-.509.285l-.034-.034a5.602 5.602 0 0 0-1.064-.785 3.235 3.235 0 0 0-1.561-.437c-.255 0-.508.037-.751.111a3.372 3.372 0 0 0-1.474.954 5.887 5.887 0 0 0-.882 1.268 2.902 2.902 0 0 0-.938-.726 3.387 3.387 0 0 0-1.476-.316c-.795.023-1.578.2-2.306.52-.1-.191-.208-.392-.329-.597a7.359 7.359 0 0 0-1.045-1.415 3.502 3.502 0 0 0-.77-.603 2.304 2.304 0 0 0-1.136-.313c-.122 0-.244.011-.364.033a3.068 3.068 0 0 0-1.624.893c-.5.525-.907 1.13-1.207 1.79-.01.019-.016.035-.025.054-.23.008-.458.027-.686.058a2.701 2.701 0 0 0-.4-.189 3.161 3.161 0 0 0-1.035-.165 5.194 5.194 0 0 0-1.82.376c-.06-.111-.123-.224-.191-.339a6.332 6.332 0 0 0-.908-1.222 3.133 3.133 0 0 0-.692-.539 2.142 2.142 0 0 0-1.054-.287c-.112 0-.224.009-.334.028a2.77 2.77 0 0 0-1.47.808 4.565 4.565 0 0 0-.474.572 3.403 3.403 0 0 0-1.335-1.093 4.316 4.316 0 0 0-1.799-.367c-.064.001-.117.008-.18.011-.015-.042-.024-.079-.041-.122a5.182 5.182 0 0 0-1.503-1.993l-.004-.004a2.761 2.761 0 0 0-1.78-.653 3.291 3.291 0 0 0-1.242.258c-.052.021-.091.051-.141.074a3.25 3.25 0 0 0-.175-.29 4.234 4.234 0 0 0-1.276-1.171c.095-.37.143-.751.142-1.133a5.419 5.419 0 0 0-.195-1.415 2.666 2.666 0 0 0-.554-1.053 2.82 2.82 0 0 0-1.32-.834 4.37 4.37 0 0 0-1.28-.176 7.069 7.069 0 0 0-.741.047 10.311 10.311 0 0 0-.11-.432 5.725 5.725 0 0 0-.61-1.465 2.765 2.765 0 0 0-.625-.714 2.028 2.028 0 0 0-1.097-.438v-.001l-.013-.001-.006-.001v.001l-.175-.007a2.523 2.523 0 0 0-.611.081 4.106 4.106 0 0 0-.34-.721l-.003-.004a3.45 3.45 0 0 0-1.537-1.369 4.008 4.008 0 0 0-1.652-.334 5.588 5.588 0 0 0-.633.043 5.153 5.153 0 0 0-1.722-1.96l-.006-.004-.006-.005v.001a2.716 2.716 0 0 0-1.99-.481 1.296 1.296 0 0 0-1.073.966 1.302 1.302 0 0 0 .94 1.58c.165.042.337.051.506.027Z"/><path fill="#FFE632" d="M92.273 133.086h.006l.006-.002-.012.002ZM102.996 134.282l.004-.001.002-.001-.006.002ZM110.739 153.212l-.003.001-.004.002.007-.003ZM139.463 139.114l-.002.001-.004.003.006-.004Z"/><path fill="#FFE632" d="M141.244 133.062a3.437 3.437 0 0 1-1.633.272l-.052-.005-.005-.001v.001a1.298 1.298 0 0 0-1.29 1.961l-.002.002c.128.24.2.506.21.779a.966.966 0 0 1-.096.435 1.45 1.45 0 0 1-.47.526l-.006.005a.909.909 0 0 1-.581.204 1.648 1.648 0 0 1-.583-.126 1.293 1.293 0 0 0-1.543.47l-.022.031c-.258.32-.592.569-.971.726a1.42 1.42 0 0 1-.459.104v.004a1.295 1.295 0 0 0-1.256 1.773h-.001l.004.012c.083.243.128.497.133.754.006.161-.025.322-.092.469a.686.686 0 0 1-.346.313c-.22.114-.464.175-.712.177a1.758 1.758 0 0 1-.817-.22 1.301 1.301 0 0 0-1.882 1.424c.024.107.037.217.038.327a.9.9 0 0 1-.228.624 1.715 1.715 0 0 1-.543.459.535.535 0 0 1-.241.064l-.097-.014-.005-.002-.001.005a1.282 1.282 0 0 0-1.04-.071 1.297 1.297 0 0 0-.752.72h-.001c-.15.337-.333.659-.544.963a3.15 3.15 0 0 1-.509.579.86.86 0 0 1-.346.203l-.052-.013a1.295 1.295 0 0 1-.366-.231 4.13 4.13 0 0 1-.65-.716 5.468 5.468 0 0 1-.199-.289l-.048-.078-.01-.015a1.287 1.287 0 0 0-.969-.642 1.286 1.286 0 0 0-.593.066c-.19.067-.362.178-.501.323h-.001a2.27 2.27 0 0 1-.398.298 1.11 1.11 0 0 1-.517.177.428.428 0 0 1-.194-.057c-.3-.28-.529-.627-.67-1.012a3.13 3.13 0 0 1-.177-1.063c-.001-.17.012-.339.037-.507l.022-.123.005-.02-.002-.001a1.292 1.292 0 0 0-.417-1.312 1.295 1.295 0 0 0-1.364-.197v-.002l-.013.005c-.294.11-.605.167-.919.17-.236.004-.47-.04-.689-.127a1.301 1.301 0 0 0-1.78 1.004 2.99 2.99 0 0 1-.636 1.256 5.45 5.45 0 0 1-.409.464l-.124.12-.027.025a1.3 1.3 0 0 0-.235 1.698c.209.263.342.579.384.912l-.014.086a.509.509 0 0 1-.186.191 2.741 2.741 0 0 1-.864.358 4.317 4.317 0 0 1-.379.077l-.102.015-.019.002v.001a1.302 1.302 0 0 0-1.171 1.198h-.001a5.778 5.778 0 0 1-.196 1.043 2.628 2.628 0 0 1-.24.58 2.468 2.468 0 0 1-.264-.192 7.934 7.934 0 0 1-.994-1.022 13.27 13.27 0 0 1-.334-.42l-.089-.12-.021-.029-.004-.006a1.296 1.296 0 0 0-.953-.544 1.303 1.303 0 0 0-1.03.379 5.804 5.804 0 0 1-.758.615 3.747 3.747 0 0 1-.649.362c-.15.069-.311.109-.476.118-.12-.013-.099.003-.204-.087a2.955 2.955 0 0 1-.693-1.059 1.292 1.292 0 0 0-.191-.342c.039-.087.068-.177.087-.271l.018-.124a1.288 1.288 0 0 0-.094-.68c.118-.095.229-.198.334-.307a3.73 3.73 0 0 0 .786-1.443c.074-.251.12-.51.135-.771a1.296 1.296 0 0 0-2.164-1.021c-.255.229-.409.55-.428.892l-.005-.001v.001a1.26 1.26 0 0 1-.123.401.924.924 0 0 1-.468.448l-.143.037a.897.897 0 0 1-.459-.199 5.817 5.817 0 0 1-.853-.767 1.31 1.31 0 0 0-.912-.398 1.291 1.291 0 0 0-.926.362 1.303 1.303 0 0 0-.036 1.839c.382.413.805.786 1.263 1.113.445.312.955.52 1.492.608.007.031.009.063.018.094l.035.115a.64.64 0 0 1 .107.799 1.413 1.413 0 0 1-.102.505c-.071.169-.18.319-.318.44a1.557 1.557 0 0 1-1.003.51.528.528 0 0 1-.211-.041l-.026-.012-.002.004a1.284 1.284 0 0 0-1.019-.216 1.3 1.3 0 0 0-.846.606c-.228.363-.49.703-.781 1.016-.206.227-.44.427-.693.598-.15.108-.324.178-.507.205l-.01.001c-.02 0-.102-.008-.271-.135a3.508 3.508 0 0 1-.782-.972 6.184 6.184 0 0 1-.249-.474l-.061-.135-.013-.03v-.001a1.299 1.299 0 0 0-2.013-.536v-.001c-.13.095-.267.178-.411.249a1.706 1.706 0 0 1-.702.195.592.592 0 0 1-.376-.135 3.02 3.02 0 0 1-.656-1.514 1.303 1.303 0 0 0-1.447-1.115l-.05.004-.09-.016-.003.004a1.3 1.3 0 0 0-1.01-.201 1.29 1.29 0 0 0-.835.604 5.611 5.611 0 0 1-.625.817 3.01 3.01 0 0 1-.535.466.758.758 0 0 1-.294.131.856.856 0 0 1-.242-.187 3.508 3.508 0 0 1-.524-.736 4.771 4.771 0 0 1-.156-.307l-.037-.082-.007-.016a1.294 1.294 0 0 0-1.464-.784c-.197.04-.381.126-.54.25v-.001l-.085.058c-.214.146-.46.237-.717.266a.304.304 0 0 1-.157-.047 2.331 2.331 0 0 1-.51-1.487 3.155 3.155 0 0 1 .156-.968l.014-.04.001-.002-.001-.001a1.297 1.297 0 0 0-1.558-1.743v-.001a2.43 2.43 0 0 1-.57.065 1.78 1.78 0 0 1-.822-.178 1.294 1.294 0 0 0-1.011-.081 1.3 1.3 0 0 0-.762.67 2.388 2.388 0 0 1-.305.493.614.614 0 0 1-.175.155.808.808 0 0 1-.283-.092 3.631 3.631 0 0 1-.778-.542 5.252 5.252 0 0 1-.267-.252l-.067-.07-.013-.015-.001-.001a1.29 1.29 0 0 0-1.636-.247 1.293 1.293 0 0 0-.426.414v-.001a1.912 1.912 0 0 1-.311.344l-.25.166-.162.042-.088-.021a2.5 2.5 0 0 1-1.022-1.267 3.106 3.106 0 0 1-.195-1.01v-.013h-.002a1.298 1.298 0 0 0-1.368-1.347 1.29 1.29 0 0 0-.672.233l-.001-.002-.02.013a2.248 2.248 0 0 1-1.087.329 1.513 1.513 0 0 1-1.1-.485.91.91 0 0 1-.22-.304.728.728 0 0 1-.052-.285 1.82 1.82 0 0 1 .175-.701c.118-.259.26-.506.427-.737a1.302 1.302 0 0 0-1.016-2.053 1.304 1.304 0 0 0-.866.293 5.444 5.444 0 0 1-.828.566 1.717 1.717 0 0 1-.715.243l-.023-.001a.688.688 0 0 1-.152-.195 3.194 3.194 0 0 1-.311-.831 4.73 4.73 0 0 1-.07-.342l-.013-.091-.003-.018a1.303 1.303 0 0 0-.642-.981 1.304 1.304 0 0 0-1.17-.064v-.001l-.011.004c-.215.083-.441.13-.67.138a.598.598 0 0 1-.245-.039l-.057-.053a2.207 2.207 0 0 1-.188-.862c.006-.375.089-.744.244-1.085.078-.18.174-.351.286-.511a1.299 1.299 0 0 0-.573-1.995l-.13-.049a1.31 1.31 0 0 0-.429-.086 2.268 2.268 0 0 1-.53-.085 1.69 1.69 0 0 1-.627-.319 1.298 1.298 0 0 0-1.88.212 1.532 1.532 0 0 1-.329.338 1.304 1.304 0 0 0-.315 1.813 1.292 1.292 0 0 0 .842.533 1.295 1.295 0 0 0 .971-.22c.027-.019.043-.04.069-.06l.036.016a5.082 5.082 0 0 0-.235 1.497c0 .723.164 1.436.478 2.086l.08.141c.296.468.724.838 1.23 1.065.41.178.854.268 1.301.263.085-.001.153-.015.233-.02l.047.137c.162.456.398.882.7 1.261.396.498.957.839 1.582.96l.004.001a2.8 2.8 0 0 0 .5.043c.084-.001.16-.015.24-.021.015.373.094.742.233 1.089.189.448.469.852.822 1.186l.003.003a4.147 4.147 0 0 0 2.897 1.206c.285-.003.57-.033.848-.092.022.067.035.128.06.196a5.105 5.105 0 0 0 2.226 2.662l.149.075c.394.171.821.254 1.25.243a2.95 2.95 0 0 0 1.237-.31c.197-.098.385-.215.56-.347.287.22.596.41.92.568.44.219.922.337 1.412.346.325.001.647-.061.948-.182l.002-.001a3.126 3.126 0 0 0 1.196-.893c.018-.022.03-.045.048-.067.079.015.154.024.23.034 0 .047-.005.09-.005.138a4.933 4.933 0 0 0 1.195 3.261l.118.121a2.898 2.898 0 0 0 1.956.752 3.475 3.475 0 0 0 1.07-.18c.023.035.04.066.064.101.265.387.587.731.956 1.021a2.76 2.76 0 0 0 1.673.601l.156-.005.01-.001a3.292 3.292 0 0 0 1.585-.57c.364-.248.698-.538.993-.864.225.519.527 1.002.895 1.431l.12.123c.593.541 1.367.84 2.17.837.473-.006.94-.096 1.382-.267.057.089.118.181.183.274.302.441.67.834 1.09 1.166.525.42 1.175.654 1.848.667l.18-.006.005-.001a3.712 3.712 0 0 0 1.778-.639 7.196 7.196 0 0 0 1.638-1.556l.01-.013c.16.031.32.049.483.054a4.13 4.13 0 0 0 2.738-1.172l.007-.007c.082-.074.138-.16.212-.239a2.855 2.855 0 0 0 1.89.724 3.875 3.875 0 0 0 1.514-.334c.384-.169.75-.377 1.093-.62.083.094.17.19.263.288.345.372.726.71 1.137 1.008.228.162.473.3.73.41.304.132.631.202.962.205.272.001.541-.053.791-.158.546-.244 1-.654 1.297-1.173a5.78 5.78 0 0 0 .665-1.799 6.59 6.59 0 0 0 .722-.244 4.028 4.028 0 0 0 1.388-.921 2.808 2.808 0 0 0 .783-1.953 3.659 3.659 0 0 0-.317-1.408c.057-.068.112-.129.172-.206a6.84 6.84 0 0 0 .728-1.152c.113.008.225.014.332.014l.086-.004c.044.456.143.904.297 1.336.298.826.8 1.563 1.458 2.144l.131.102a3.03 3.03 0 0 0 1.72.54 3.478 3.478 0 0 0 1.554-.389c.025.029.043.054.069.083.307.348.659.653 1.046.909a3.038 3.038 0 0 0 1.638.517c.167 0 .334-.016.498-.048a3.404 3.404 0 0 0 1.567-.807 6.3 6.3 0 0 0 1.234-1.529 3.136 3.136 0 0 0 1.368-.323c.537-.27 1.01-.65 1.391-1.115.312-.367.545-.794.683-1.256.075.005.145.017.224.017a4.18 4.18 0 0 0 1.868-.448 3.312 3.312 0 0 0 1.511-1.467 3.627 3.627 0 0 0 .371-1.644c0-.091-.013-.166-.018-.252a4.903 4.903 0 0 0 1.497-.963c.204.04.411.062.619.067.775 0 1.527-.255 2.142-.726a4.046 4.046 0 0 0 1.255-1.475 3.568 3.568 0 0 0 .357-1.569c-.001-.086-.01-.165-.016-.247a5.723 5.723 0 0 0 1.264-.395 1.3 1.3 0 0 0-1.076-2.367h-.001Z"/><path fill="#FFE632" d="M124.404 143.221c.623 0 1.229-.199 1.73-.568.56-.405.989-.964 1.235-1.61a3.84 3.84 0 0 0 .246-1.358 3.12 3.12 0 0 0-.034-.483 1.298 1.298 0 0 0-2.565.394l-.005.001.002.018.002.07c0 .148-.026.295-.076.433a.927.927 0 0 1-.336.433.294.294 0 0 1-.199.07 1.368 1.368 0 0 1-.536-.158 6.577 6.577 0 0 1-.878-.529 1.31 1.31 0 0 0-1.444-.017 1.301 1.301 0 0 0-.38 1.798c.093.144.213.267.354.363.393.279.809.525 1.241.737a3.865 3.865 0 0 0 1.643.406ZM140.099 169l-.001.002v.001l.001-.003Z"/><path fill="#FFE632" d="M156.813 134.178a3.225 3.225 0 0 0-1.134-1.022c.159-.57.245-1.157.256-1.749.003-.36-.044-.72-.141-1.067a2.67 2.67 0 0 0-.614-1.097l-.007-.007a2.952 2.952 0 0 0-1.273-.767c.186-.455.312-.933.374-1.421l.011-.153v-.057a2.88 2.88 0 0 0-.66-1.886 3.058 3.058 0 0 0-1.239-.869 1.304 1.304 0 0 0-1.683.742 1.305 1.305 0 0 0 .742 1.682.49.49 0 0 1 .191.119.24.24 0 0 1 .044.156 3.033 3.033 0 0 1-.417 1.175c-.182.29-.408.552-.669.775a1.299 1.299 0 0 0 1.115 2.256 4.62 4.62 0 0 1 .892-.102c.175-.003.35.017.519.062a.424.424 0 0 1 .161.075.965.965 0 0 1 .054.384c-.019.456-.1.907-.24 1.342-.063.21-.127.391-.174.515l-.055.141-.013.032-.003.006h.001a1.3 1.3 0 0 0 .499 1.611c.174.109.37.176.574.195l.002.001c.201.034.393.107.565.216l.179.186a.716.716 0 0 1 .071.312 4.096 4.096 0 0 1-1.141 2.296 4.33 4.33 0 0 1-.658.551l-.191.121-.039.021-.002.001v.002a1.292 1.292 0 0 0-.713 1.099 1.295 1.295 0 0 0 .61 1.16l-.001.002c.185.132.348.292.484.475.281.365.432.814.427 1.275a3.067 3.067 0 0 1-.19 1.021 1.463 1.463 0 0 1-.681.881c-.32.158-.674.234-1.03.222a4.136 4.136 0 0 1-1.077-.15l-.055-.017h-.001a1.297 1.297 0 0 0-1.594.677 2.945 2.945 0 0 1-.688 1.005 1.299 1.299 0 0 0-.345 1.514c.075.17.186.322.324.446.175.136.308.317.387.524l.007.064a1.12 1.12 0 0 1-.162.489 4.7 4.7 0 0 1-.838 1.046 6.852 6.852 0 0 1-.384.347l-.11.089-.024.02-.002.001a1.305 1.305 0 0 0-.519 1.02 1.305 1.305 0 0 0 .491 1.035l-.001.001c.156.134.295.286.416.453.175.216.28.481.301.758a.853.853 0 0 1-.087.343c-.394.549-.942.97-1.574 1.21a4.16 4.16 0 0 1-1.663.252c.045-.219.068-.442.07-.666a3.69 3.69 0 0 0-.445-1.732 3.417 3.417 0 0 0-.485-.7 1.3 1.3 0 0 0-1.825-.078 1.295 1.295 0 0 0-.094 1.825l-.003.003c.056.071.103.148.142.23.069.141.107.295.11.452a.98.98 0 0 1-.064.339l-.085.137a.911.911 0 0 1-.412.168 4.833 4.833 0 0 1-.968.076l-.221-.002a1.294 1.294 0 0 0-1.213.784 1.291 1.291 0 0 0 .26 1.421 1.313 1.313 0 0 0 .914.395l.26.002a6.099 6.099 0 0 0 2.056-.288c.245-.092.478-.213.695-.359.052.114.096.231.134.351.099.306.151.626.154.949.003.306-.056.609-.172.892-.159.365-.4.689-.703.946-.23.232-.542.363-.869.366a1.938 1.938 0 0 1-.76-.18 4.255 4.255 0 0 1-.825-.488 1.293 1.293 0 0 0-1.288-.15 1.3 1.3 0 0 0-.776 1.038c-.023.15-.062.296-.118.437l-.044.086a1.287 1.287 0 0 0-.115.34.726.726 0 0 1-.185.401l-.048.04.007.011a1.277 1.277 0 0 0-.547 1.812v.001c.166.294.313.599.44.913.22.498.349 1.031.382 1.574.005.138-.017.275-.065.404l-.001.002-.059.067a1.39 1.39 0 0 1-.53.204 4.384 4.384 0 0 1-.871.079c-.228 0-.434-.014-.577-.027l-.162-.017-.036-.005-.003-.001a1.298 1.298 0 0 0-1.443.911 1.29 1.29 0 0 0-.032.614h-.001c.024.157.036.316.036.474.007.271-.039.541-.136.793a.648.648 0 0 1-.136.206.54.54 0 0 1-.138.088 3.16 3.16 0 0 1-.486.046 3.553 3.553 0 0 1-2.063-.723 4.807 4.807 0 0 1-.609-.522l-.148-.159-.029-.035-.003-.003v.001a1.295 1.295 0 0 0-1.331-.458 1.295 1.295 0 0 0-.966 1.024h-.001l-.022.092a3.132 3.132 0 0 1-.565 1.134 1.819 1.819 0 0 1-.574.472 1.92 1.92 0 0 1-.906.199l-.187-.006a1.461 1.461 0 0 1-.421-.1 1.296 1.296 0 0 0-1.182.138 1.292 1.292 0 0 0-.575 1.043.68.68 0 0 1-.217.468 3.382 3.382 0 0 1-1.285.741 6.492 6.492 0 0 1-.629.187l-.181.04-.041.008-.007.001h.001a1.304 1.304 0 0 0-1.067 1.094 7.397 7.397 0 0 1-.337 1.286 3.901 3.901 0 0 1-.406.831 1.124 1.124 0 0 1-.271.296 1.915 1.915 0 0 1-.451-.265 7.162 7.162 0 0 1-1.102-1.079 10.73 10.73 0 0 1-.367-.458l-.098-.131-.022-.032-.004-.005a1.3 1.3 0 0 0-1.983-.177 9.142 9.142 0 0 1-1.096.897c-.29.207-.6.385-.924.533a1.855 1.855 0 0 1-.696.185l-.138-.019-.086-.06a2.798 2.798 0 0 1-.672-.984 1.953 1.953 0 0 1-.134-.701 1.333 1.333 0 0 1 .018-.236l.007-.035-.004-.001a1.296 1.296 0 0 0-1.592-1.601v-.001a5.064 5.064 0 0 1-1.162.144 2.756 2.756 0 0 1-.837-.114 1.304 1.304 0 0 0-1.656.871 1.296 1.296 0 0 0-.01.688 4.934 4.934 0 0 1-.538 3.757c-.167.32-.426.583-.744.754a1.98 1.98 0 0 1-.909.195 4.512 4.512 0 0 1-1.479-.296 5.98 5.98 0 0 1-.5-.21l-.127-.064-.026-.013-.003-.002v.001a1.306 1.306 0 0 0-.91-.138 1.303 1.303 0 0 0-.772.5c-.25.368-.563.69-.925.95a.741.741 0 0 1-.403.154.598.598 0 0 1-.344-.137 3.043 3.043 0 0 1-.749-.871 4.987 4.987 0 0 1-.233-.424l-.055-.119-.011-.025a1.298 1.298 0 0 0-1.615-.739h-.001a6.753 6.753 0 0 1-1.761.304c-.17.004-.34-.015-.505-.057.06-.341.164-.673.31-.987a1.299 1.299 0 0 0-1.775-1.68.783.783 0 0 1-.154.062 2.077 2.077 0 0 1-.833-.303 2.281 2.281 0 0 1-.741-.847 2.672 2.672 0 0 1-.155-.353l-.028-.087-.003-.011-.002.001a1.302 1.302 0 0 0-1.014-.966 1.297 1.297 0 0 0-1.3.518l-.002-.001-.006.008c-.182.23-.394.435-.63.61a1.965 1.965 0 0 1-1.148.433c-.115 0-.23-.013-.341-.039a1.303 1.303 0 0 0-1.525.863c-.117.353-.309.676-.563.947-.134.16-.301.289-.49.378a1.03 1.03 0 0 1-.43.088 2.58 2.58 0 0 1-1.246-.425 4.49 4.49 0 0 1-.468-.328l-.12-.1-.025-.022-.002-.002v.001a1.303 1.303 0 0 0-1.754-.024 3.406 3.406 0 0 1-.757.537.736.736 0 0 1-.293.09l-.086-.051a2.092 2.092 0 0 1-.434-.798 4.356 4.356 0 0 1-.121-.435l-.025-.123-.005-.026v-.002h-.001a1.298 1.298 0 0 0-1.42-1.093v-.001c-.02.002-.21.019-.463.019a4.019 4.019 0 0 1-1.001-.11c-.037-.01-.063-.021-.094-.031.016-.036.025-.063.047-.103.12-.219.253-.43.401-.632a1.292 1.292 0 0 0 .213-1.048 1.297 1.297 0 0 0-.645-.853l-.195-.117-.048-.032v-.001a1.31 1.31 0 0 0-1.104-.217 1.295 1.295 0 0 0-.86.723c-.08.152-.182.291-.303.413l-.198.149-.131.033a1.977 1.977 0 0 1-.662-.384 2.151 2.151 0 0 1-.607-1.092l-.012-.066v-.004h-.003a1.296 1.296 0 0 0-2.183-.795l-.002-.001a2.324 2.324 0 0 1-.415.288 1.801 1.801 0 0 1-.841.241 1.356 1.356 0 0 1-.738-.225l-.011-.006a.508.508 0 0 1-.15-.123l-.042-.092a1.3 1.3 0 0 0-1.073-.958 1.184 1.184 0 0 1-.513-.224 3.278 3.278 0 0 1-.764-.819 4.485 4.485 0 0 1-.22-.358l-.051-.096-.01-.018a1.3 1.3 0 0 0-1.689-.642c-.305.15-.636.239-.975.264l-.112-.011a.662.662 0 0 1-.102-.252 2.705 2.705 0 0 1-.063-.621c.001-.193.014-.386.038-.578l.024-.169.007-.039a1.3 1.3 0 0 0-.954-1.519 5.014 5.014 0 0 1-.938-.368 2.075 2.075 0 0 1-.435-.297 1.73 1.73 0 0 1 .166-.177 7.252 7.252 0 0 1 1.115-.813c.413-.254.806-.462 1.035-.579a1.299 1.299 0 0 0-.414-2.445 2.62 2.62 0 0 1-1.669-.893 2.9 2.9 0 0 1-.363-.516l-.074-.146-.01-.025-.002.001a1.3 1.3 0 0 0-1.767-.708c-.216.103-.4.263-.53.463l-.001-.001-.007.01a3.471 3.471 0 0 1-.692.706 2.196 2.196 0 0 1-2.075.42c-.34-.113-.4-.202-.488-.333a1.453 1.453 0 0 1-.144-.713c.008-.385.067-.767.174-1.137.045-.163.09-.299.123-.389l.037-.098.008-.02a1.301 1.301 0 0 0-.676-1.693 1.915 1.915 0 0 1-.715-.46l-.043-.084v-.007a1.3 1.3 0 0 0-.844-1.328.867.867 0 0 1-.268-.191 3.063 3.063 0 0 1-.495-.676 4.178 4.178 0 0 1-.143-.28l-.033-.073-.005-.013h-.001a1.298 1.298 0 0 0-1.605-.755 5.51 5.51 0 0 1-1.385.229 1.617 1.617 0 0 1-.22-.012c.031-.12.07-.238.116-.353.208-.505.458-.992.748-1.456.13-.214.248-.396.332-.521l.097-.144.025-.035.005-.007a1.302 1.302 0 0 0-.507-1.93 5.158 5.158 0 0 1-.934-.606 2.543 2.543 0 0 1-.503-.539.665.665 0 0 1-.133-.354.523.523 0 0 1 .072-.247c.19-.375.436-.72.729-1.022.206-.214.334-.492.362-.788a11.122 11.122 0 0 1 .269-1.582l.025-.103.007-.028a1.3 1.3 0 0 0-1.201-1.633 5.343 5.343 0 0 1-1.337-.265 1.762 1.762 0 0 1-.612-.34l-.079-.104-.02-.112.005-.066a3.157 3.157 0 0 1 .588-1.624c.078-.104.167-.198.265-.281l.052-.04-.002-.004a1.292 1.292 0 0 0 .133-2.123v-.001l-.04-.034a3.513 3.513 0 0 1-.57-.652 1.756 1.756 0 0 1-.338-.941c.002-.208.059-.411.165-.59.18-.351.472-.632.829-.8a1.306 1.306 0 0 0 .696-.765 1.295 1.295 0 0 0-.083-1.03l-.015-.044.015-.075a2.53 2.53 0 0 1 .708-1.15c.068-.06.142-.113.221-.156l.029-.014-.002-.005a1.293 1.293 0 0 0 .575-2.024 2.703 2.703 0 0 1-.26-.455 1.8 1.8 0 0 1-.178-.711.838.838 0 0 1 .221-.582c.058-.063.124-.131.21-.217a1.3 1.3 0 0 0-1.843-1.834c-.088.089-.196.196-.316.329l-.019.022a3.467 3.467 0 0 0-.852 2.282c.005.544.115 1.082.324 1.584a5.195 5.195 0 0 0-1.289 2.119l-.005.016a2.86 2.86 0 0 0-.14.871c0 .02.008.037.008.057a4.52 4.52 0 0 0-1.102 1.309l-.004.007a3.797 3.797 0 0 0-.493 1.856c.003.537.115 1.067.328 1.56.163.378.372.736.622 1.064a5.779 5.779 0 0 0-1.042 3.141 2.86 2.86 0 0 0 .262 1.21 3.2 3.2 0 0 0 1.255 1.36 5.48 5.48 0 0 0 1.533.62c-.015.098-.03.197-.043.3a6.873 6.873 0 0 0-.86 1.293c-.235.445-.36.939-.363 1.442.01.648.212 1.28.58 1.813.34.49.76.92 1.241 1.272-.049.085-.096.161-.146.251-.24.425-.45.865-.63 1.318a4.408 4.408 0 0 0-.34 1.556c-.001.231.03.46.094.682.077.263.207.508.383.718a2.54 2.54 0 0 0 1.221.787c.38.111.775.165 1.171.16.37-.003.74-.039 1.104-.106.014.021.023.04.038.062.205.318.446.613.716.879.133.124.273.239.42.344.1.379.278.733.526 1.038.195.23.418.435.664.61a6.653 6.653 0 0 0-.197 1.548 3.992 3.992 0 0 0 .494 2.015 3.345 3.345 0 0 0 2 1.524l.002.001a4.785 4.785 0 0 0 4.416-.871c.177.191.368.368.573.531a6.038 6.038 0 0 0-.965.879c-.181.21-.336.442-.459.691-.15.303-.229.635-.232.972l.01.203c.075.617.361 1.19.812 1.619.445.422.965.758 1.533.991-.001.056-.006.105-.006.164-.02.712.132 1.418.445 2.058.218.417.541.768.938 1.02.45.273.968.414 1.494.406a4.17 4.17 0 0 0 .924-.115c.073.101.141.2.228.307.306.38.663.717 1.059 1.002.28.197.586.357.907.477.042.079.088.155.138.23.24.316.54.583.883.786l-.001.001.007.004.004.003v-.001a3.977 3.977 0 0 0 2.087.603 4.132 4.132 0 0 0 1.486-.29c.22.385.496.734.821 1.036a4.565 4.565 0 0 0 1.696.975l.157.039c.185.036.372.053.56.054.09 0 .178-.011.265-.019.022.082.05.162.084.24l.004.008c.205.395.512.728.89.965a3.95 3.95 0 0 0 1.462.533c.273.046.548.074.825.085.056.159.12.326.2.5.212.481.517.917.897 1.281a2.71 2.71 0 0 0 1.851.742 3.272 3.272 0 0 0 1.417-.345c.17-.087.334-.184.493-.29.055.035.1.069.16.105a5.08 5.08 0 0 0 2.594.803 3.634 3.634 0 0 0 1.485-.311 4.048 4.048 0 0 0 1.373-1.021c.257-.284.483-.594.675-.925a4.315 4.315 0 0 0 1.497-.335c.28-.123.546-.271.798-.442a4.401 4.401 0 0 0 2.416 1.643c-.008.091-.022.179-.024.273a2.64 2.64 0 0 0 .108.765c.086.29.233.558.431.787.347.389.797.673 1.298.816.416.12.847.178 1.279.173a7.61 7.61 0 0 0 1.504-.169c.094.15.199.306.319.468.31.425.685.798 1.111 1.105a3.193 3.193 0 0 0 1.835.607 3.337 3.337 0 0 0 1.817-.572c.335-.224.644-.485.92-.778l.035.013a7.005 7.005 0 0 0 2.373.454 4.563 4.563 0 0 0 2.093-.479 4.407 4.407 0 0 0 1.814-1.773 7.584 7.584 0 0 0 1.038-3.773c.047.217.11.429.189.637a5.398 5.398 0 0 0 1.272 1.903c.281.279.616.497.986.638.34.129.701.193 1.065.191a4.399 4.399 0 0 0 1.788-.425 8.751 8.751 0 0 0 1.671-1.018c.096.107.196.216.304.327a7.67 7.67 0 0 0 1.241 1.055 3.31 3.31 0 0 0 1.797.612 2.3 2.3 0 0 0 .986-.219l.004-.002a3.54 3.54 0 0 0 1.402-1.276 7.371 7.371 0 0 0 .902-2.087c.02-.07.033-.13.05-.196a8.242 8.242 0 0 0 1.156-.442 5.16 5.16 0 0 0 1.573-1.115c.197-.216.366-.456.502-.714.058.002.115.005.172.005a4.478 4.478 0 0 0 2.399-.658 4.591 4.591 0 0 0 1.431-1.445 6.065 6.065 0 0 0 3.387 1.081c.355 0 .708-.033 1.057-.099l.172-.044a3.16 3.16 0 0 0 1.203-.723c.425-.422.731-.948.887-1.526.065-.229.111-.463.138-.699a5.848 5.848 0 0 0 1.586-.266 3.558 3.558 0 0 0 1.062-.551c.373-.285.668-.661.856-1.092a3.62 3.62 0 0 0 .279-1.438 7.09 7.09 0 0 0-.6-2.619c-.036-.085-.069-.156-.104-.234.156-.217.287-.452.388-.699a4.417 4.417 0 0 0 1.593.317 3.856 3.856 0 0 0 2.594-1.022 5.197 5.197 0 0 0 1.377-1.888c.249-.6.376-1.244.373-1.894a5.387 5.387 0 0 0-.068-.832 6.05 6.05 0 0 0 3.909-2.512l.081-.132a3.44 3.44 0 0 0 .422-1.636 3.605 3.605 0 0 0-.29-1.393 4.49 4.49 0 0 0-.403-.74c.059-.062.115-.115.175-.182a6.51 6.51 0 0 0 .876-1.221 3.632 3.632 0 0 0 .474-1.723 2.818 2.818 0 0 0-.111-.79l-.002-.007a3.3 3.3 0 0 0-.327-.73c.292.041.587.062.882.064a4.722 4.722 0 0 0 2.282-.543 4.086 4.086 0 0 0 1.884-2.304 5.66 5.66 0 0 0 .335-1.876 4.616 4.616 0 0 0-.86-2.697c.066-.062.132-.122.199-.19a6.693 6.693 0 0 0 1.878-3.846l.011-.153.001-.072a3.254 3.254 0 0 0-.533-1.832Zm-112.425 3.359-.002-.003.002.003Z"/><path fill="#FFE632" d="m91.426 181.06-.001-.002-.003-.003.004.005ZM43.852 153.383l-.001-.003-.003-.002.004.005ZM60.15 138.559l.003.006.004.004-.007-.01ZM73.72 154.095l.003.002v.001l-.002-.003ZM137.107 142.456l.003-.001h.001l-.004.001ZM112.389 160.035l.002-.001.001-.001-.003.002ZM94.033 162.512l.002-.001.001-.001-.003.002ZM128.188 151.93l.001-.002.002-.002-.003.004ZM138.996 129.209l.001-.003v-.002l-.001.005Z"/><path fill="#FFE632" d="M54.251 132.971a1.292 1.292 0 0 0 .961.726l.071.015.016.005v-.001l.113.041a.6.6 0 0 1 .245.13c.048.057.08.126.094.2l.003.085c0 .487-.116.968-.339 1.401a3.953 3.953 0 0 1-.693.957 1.304 1.304 0 0 0-.24 1.464l.032.141h.004a1.296 1.296 0 0 0 .837 1.36c.18.067.372.092.564.075v.001a4.27 4.27 0 0 1 .33-.011 4.7 4.7 0 0 1 1.14.128c.153.037.3.095.437.17a.44.44 0 0 1 .148.124l.005.017.007.092c-.047.437-.18.861-.393 1.245-.11.221-.224.416-.308.551l-.097.153-.024.035-.003.004-.001.002v.001a1.293 1.293 0 0 0-.166 1.159 1.298 1.298 0 0 0 .834.822l.001.001c.183.072.352.174.501.302l.18.218a.452.452 0 0 1 .052.223l-.012.108a3.5 3.5 0 0 1-.4.801 1.296 1.296 0 0 0 .181 1.672c.148.141.327.245.523.303.435.106.829.338 1.131.669.056.065.105.137.144.213l.012.027.005-.002a1.292 1.292 0 0 0 2.072.587v.001c.23-.183.477-.345.736-.484a2.805 2.805 0 0 1 1.229-.375.928.928 0 0 1 .611.202c.171.126.307.294.395.488.068.163.102.338.098.515a2.318 2.318 0 0 1-.12.7 2.393 2.393 0 0 1-.083.217l-.02.045-.002.004a1.3 1.3 0 0 0 .308 1.584c.148.126.322.218.51.268v.001l.062.02c.288.095.558.238.799.423.112.086.207.192.28.313a.625.625 0 0 1 .084.328v.098l-.001.01h.001a1.295 1.295 0 0 0 .405 1.173c.14.131.26.283.354.451l.078.155.012.028.002-.001a1.3 1.3 0 0 0 1.351.85c.191-.02.375-.081.54-.181v.001c.159-.09.325-.167.496-.232a2.61 2.61 0 0 1 .876-.189.868.868 0 0 1 .327.052.56.56 0 0 1 .223.162l.002.003c.199.18.32.429.34.695 0 .086-.02.171-.055.249l-.03.056.003.002a1.297 1.297 0 0 0-.002 1.561c.112.149.256.272.42.36v.001c.294.169.57.37.821.599.173.153.323.329.447.524.07.101.112.219.121.342V160.225l-.029.088c-.09.172-.21.327-.352.459a4.783 4.783 0 0 1-.644.521 1.298 1.298 0 0 0 .005 2.148c.243.148.44.361.568.615l.046.134.006-.001a1.294 1.294 0 0 0 1.26 1.197 1.28 1.28 0 0 0 .613-.14v.001c.136-.063.275-.117.418-.162.25-.084.512-.13.775-.138l.214.018a1.3 1.3 0 0 0 1.463-.868c.11-.375.363-.692.704-.884.26-.16.556-.248.86-.256.3.007.592.1.84.269.09.059.174.124.253.197l.053.051.004.004.001-.001a1.305 1.305 0 0 0 .984.438 1.297 1.297 0 0 0 .976-.456l.04-.044a3.98 3.98 0 0 1 .677-.572c.252-.187.552-.3.866-.327a.7.7 0 0 1 .32.078c.21.089.391.236.52.424l.062.226-.009.087.005.002a1.29 1.29 0 0 0 .534 1.501c.162.102.344.168.535.191.294.046.583.117.865.212.352.099.674.281.94.532a1.302 1.302 0 0 0 2.138-.21c.198-.376.446-.724.736-1.035.101-.106.217-.197.344-.27l.145-.049.053.01c.352.095.673.279.934.533.113.113.201.247.26.395a1.297 1.297 0 0 0 1.201.842 1.303 1.303 0 0 0 1.221-.812 1.85 1.85 0 0 1 .514-.712l.003-.002c.406-.4.95-.628 1.52-.636a2.58 2.58 0 0 1 1.218.335l.057.035.005.003v-.002a1.296 1.296 0 0 0 1.878-.445h.001c.198-.337.437-.648.711-.928.202-.211.435-.391.689-.535.205-.118.437-.183.674-.188.094.001.187.012.279.033.688.175.847.391.945.524a.674.674 0 0 1 .107.348v.009h.004a1.293 1.293 0 0 0 1.423 1.416v.001c.023-.003.224-.02.51-.02.462-.005.923.047 1.372.155.19.047.373.119.544.214a.73.73 0 0 1 .233.195l.015.033a1.295 1.295 0 0 0 1.523.857l.17-.021.085.007.002-.011a1.274 1.274 0 0 0 1.62-.766c.181-.448.399-.88.654-1.29a5.1 5.1 0 0 1 .663-.863c.173-.19.384-.34.62-.442l.003-.001.136-.024a1 1 0 0 1 .438.134c.323.184.616.416.868.69.12.126.218.241.281.32l.069.088.014.018.001.002a1.295 1.295 0 0 0 1.01.541 1.3 1.3 0 0 0 1.045-.47l.001.001.039-.045c.199-.216.421-.409.663-.575.242-.184.531-.296.834-.324.091.001.18.021.262.059a1.295 1.295 0 0 0 1.417-.178 1.296 1.296 0 0 0 .397-1.371 1.333 1.333 0 0 1-.047-.208c.106-.034.214-.059.324-.076.306-.045.615-.067.924-.063a11.655 11.655 0 0 1 1.599.115l.102.014.027.004a1.297 1.297 0 0 0 1.504-1.39c-.001-.02-.013-.19-.013-.44a5.754 5.754 0 0 1 .258-1.82c.055-.18.15-.346.279-.484.076-.056.068-.068.236-.079h.035a3.042 3.042 0 0 1 1.986.624 1.3 1.3 0 0 0 1.616.01c.067-.053.139-.101.214-.143l.035-.017-.002-.003c.187-.076.354-.194.488-.345a1.307 1.307 0 0 0 .296-1.123 1.3 1.3 0 0 0-.254-.54v-.001a2.729 2.729 0 0 1-.259-.451 1.807 1.807 0 0 1-.176-.707.843.843 0 0 1 .23-.594l.004-.004a1.33 1.33 0 0 1 .499-.386c.138-.057.286-.086.436-.085.141.001.28.022.415.061l.109.037.013.005.002-.004a1.288 1.288 0 0 0 1.764-.721l.002.001.065-.142a1.31 1.31 0 0 0-.035-1.228 2.47 2.47 0 0 1-.384-1.116.55.55 0 0 1 .18-.433 3.737 3.737 0 0 1 1.295-.895c.245-.101.508-.155.773-.16l.117.006.007.001.001-.004a1.293 1.293 0 0 0 1.517-1.524l.002-.001-.014-.103a2.608 2.608 0 0 1-.015-.279 2.237 2.237 0 0 1 .208-.979c.194-.378.529-.663.933-.794l.005-.001a3.06 3.06 0 0 1 1.129-.234c.37-.004.735.089 1.059.269.089.05.174.107.253.172l.044.038.004-.003a1.288 1.288 0 0 0 1.816.045l.002-.001c.316-.27.676-.485 1.064-.636a1.3 1.3 0 0 0 .776-.775c.092-.25.174-.465.233-.616l.069-.176.023-.058a1.301 1.301 0 0 0-.907-1.751v-.001a4.568 4.568 0 0 1-1.095-.45 1.967 1.967 0 0 1-.552-.45.544.544 0 0 1-.137-.356.879.879 0 0 1 .037-.233 3.967 3.967 0 0 1 .95-1.755c.098-.101.207-.191.326-.268l.058-.034-.002-.004a1.29 1.29 0 0 0 .475-2.016l.001-.001-.006-.008a1.949 1.949 0 0 1-.132-.194 1.292 1.292 0 0 0-.553-.49c.013-.107.033-.23.062-.365l.003-.013c.036-.146.046-.297.03-.447l-.012-.217a1.673 1.673 0 0 1 .322-1.005 1.301 1.301 0 0 0-.705-1.999 3.36 3.36 0 0 1-.893-.403 1.098 1.098 0 0 1-.285-.263l-.043-.121.022-.131.002-.005a3.03 3.03 0 0 1 .725-1.356c.069-.071.145-.134.228-.188l.029-.018-.002-.004a1.294 1.294 0 0 0 .74-1.451 1.279 1.279 0 0 0-.247-.527l.001-.001a2.862 2.862 0 0 1-.265-.454 2.167 2.167 0 0 1-.222-.879c0-.123.017-.245.053-.362.04-.125.06-.255.059-.386v-.011a1.289 1.289 0 0 0-.381-.919 1.304 1.304 0 0 0-.919-.381 1.288 1.288 0 0 0-1.225.929l-.016-.005c-.114.368-.171.75-.171 1.135a4.58 4.58 0 0 0 .393 1.804 5.672 5.672 0 0 0-1.28 2.358 3.075 3.075 0 0 0-.124.852c.001.565.172 1.116.491 1.581.33.465.76.851 1.259 1.127a4.257 4.257 0 0 0-.146 1.083c0 .089.009.175.014.262-.07.331-.108.667-.114 1.005-.003.281.036.562.116.832.049.158.117.309.203.45a6.753 6.753 0 0 0-1.319 2.548l-.001.005a3.456 3.456 0 0 0-.136.943c.003.73.259 1.437.723 2 .083.102.174.182.262.271a4.702 4.702 0 0 0-1.037-.122 5.667 5.667 0 0 0-2.077.413 4.231 4.231 0 0 0-2.315 2.051 4.568 4.568 0 0 0-.445 1.558c-.262.055-.52.131-.77.227-.83.336-1.58.843-2.2 1.49a3.17 3.17 0 0 0-.931 2.261c.005.188.023.376.054.562-.293.042-.58.122-.853.235a3.961 3.961 0 0 0-1.461 1.088 3.472 3.472 0 0 0-.86 2.291c.001.085.014.161.019.243a6.185 6.185 0 0 0-1.363-.147h-.064v.002a2.907 2.907 0 0 0-1.959.756c-.34.317-.613.698-.806 1.12a6.054 6.054 0 0 0-.484 1.713c-.026.18-.037.342-.051.508a13.833 13.833 0 0 0-.663-.02 7.065 7.065 0 0 0-1.936.231c-.36.099-.699.262-1.002.48a2.192 2.192 0 0 0-.79 1.089l-.001-.001-.002.011-.005.01h.002c-.008.025-.01.049-.017.074a4.039 4.039 0 0 0-1.024.274 5.15 5.15 0 0 0-.952.556l-.039-.038a5.608 5.608 0 0 0-1.137-.801 3.563 3.563 0 0 0-1.637-.427 3 3 0 0 0-1.028.182 4.376 4.376 0 0 0-1.621 1.099 8.259 8.259 0 0 0-1.262 1.762 3.563 3.563 0 0 0-.501-.362 5.255 5.255 0 0 0-1.762-.606 7.96 7.96 0 0 0-1.033-.103 3.277 3.277 0 0 0-.296-.585 3.992 3.992 0 0 0-2.53-1.639l-.005-.001a3.802 3.802 0 0 0-.87-.101 4.027 4.027 0 0 0-1.958.527 5.996 5.996 0 0 0-1.694 1.462 4.972 4.972 0 0 0-1.581-.264 4.837 4.837 0 0 0-3.243 1.288c-.015.014-.027.029-.042.042a4.959 4.959 0 0 0-1.587-.818 2.773 2.773 0 0 0-.834-.13 2.907 2.907 0 0 0-1.362.351 4.477 4.477 0 0 0-1.34 1.146l-.002.003a6.3 6.3 0 0 0-.981-.39 2.99 2.99 0 0 0-.363-1.005 3.76 3.76 0 0 0-1.586-1.432l-.005-.003a3.296 3.296 0 0 0-1.496-.359 3.8 3.8 0 0 0-1.5.324c-.41.179-.796.41-1.149.685a4.054 4.054 0 0 0-2.044-.568 4.328 4.328 0 0 0-2.15.598l-.008.004a4.025 4.025 0 0 0-1.446 1.425 5.342 5.342 0 0 0-.678.089l-.025-.034c.057-.061.118-.108.174-.173a3.86 3.86 0 0 0 .562-.875c.17-.365.26-.763.263-1.166v-.021a3.277 3.277 0 0 0-.517-1.722 5.416 5.416 0 0 0-1.278-1.384c.042-.193.066-.39.07-.588a3.642 3.642 0 0 0-.988-2.413 3.173 3.173 0 0 0-1.223-.866 3.504 3.504 0 0 0-1.281-.234 4.913 4.913 0 0 0-1.524.263l-.003-.003a3.259 3.259 0 0 0-.553-1.664 4.08 4.08 0 0 0-1.333-1.211c.051-.28.079-.565.082-.85a3.776 3.776 0 0 0-1.489-3.048l-.003-.003a3.55 3.55 0 0 0-2.213-.754 5.263 5.263 0 0 0-2.466.693 4.465 4.465 0 0 0-.739-.593c.023-.063.053-.116.074-.18l.037-.139c.048-.23.073-.465.073-.701a3.07 3.07 0 0 0-.443-1.596 3.47 3.47 0 0 0-.738-.85 5.382 5.382 0 0 0 .605-2.27 2.752 2.752 0 0 0-.432-1.526 3.012 3.012 0 0 0-1.008-.946 4.721 4.721 0 0 0-1.592-.552c.061-.104.123-.206.18-.319a5.664 5.664 0 0 0 .61-2.917l-.019-.157a3.031 3.031 0 0 0-.84-1.636 3.072 3.072 0 0 0-.96-.637 5.138 5.138 0 0 0 1.554-2.937l.016-.15.003-.146a2.757 2.757 0 0 0-.49-1.592 2.941 2.941 0 0 0-.794-.76c.014-.05.03-.093.043-.145a1.299 1.299 0 0 0-2.522-.631c-.058.223-.13.442-.218.656l-.088.203-.023.05-.004.008a1.3 1.3 0 0 0 .965 1.861v.002l.146.038a.964.964 0 0 1 .335.175l.037.046.008.053c-.08.427-.268.826-.547 1.159a3.093 3.093 0 0 1-.78.66 1.305 1.305 0 0 0-.627 1.033c-.01.172-.02.306-.033.413a1.3 1.3 0 0 0 .395 1.101c.144.136.263.296.35.473Zm.263 5.163h.004-.004Zm88.691-.527-.001-.004.001.004Zm-33.497 28.239.003-.01-.003.01ZM135.479 163.829c.353-.356.609-.798.742-1.282a3.545 3.545 0 0 0-.411-2.874 3.516 3.516 0 0 0-.586-.733 1.299 1.299 0 0 0-1.826.071 1.298 1.298 0 0 0 .055 1.826l-.003.003c.069.075.128.159.177.249.083.147.129.313.131.482a.997.997 0 0 1-.039.271.305.305 0 0 1-.08.15 1.058 1.058 0 0 1-.479.218c-.358.081-.724.13-1.091.146a1.224 1.224 0 0 0-.361.098 4.119 4.119 0 0 0-.231-.448 3.542 3.542 0 0 0-.586-.733 1.3 1.3 0 0 0-2.175.995c.01.342.156.667.404.902l-.004.004c.07.075.129.158.177.248a.992.992 0 0 1 .131.481.967.967 0 0 1-.039.272.312.312 0 0 1-.08.151 1.076 1.076 0 0 1-.478.218 6.178 6.178 0 0 1-1.091.145 1.301 1.301 0 0 0 .171 2.595v-.001a6.95 6.95 0 0 0 2.135-.406 3.267 3.267 0 0 0 1.103-.715c.347-.351.6-.785.733-1.26.118.033.24.049.362.048a6.952 6.952 0 0 0 2.135-.407 3.284 3.284 0 0 0 1.104-.714ZM117.259 174.394a2.915 2.915 0 0 0 1.612-.489 3.537 3.537 0 0 0 1.373-1.703c.166-.437.252-.9.253-1.368 0-.102-.005-.204-.015-.305a1.3 1.3 0 0 0-2.294-.679c-.217.265-.32.605-.287.946h-.005l.001.038c-.001.15-.029.298-.081.438a.924.924 0 0 1-.373.461.3.3 0 0 1-.184.061 1.246 1.246 0 0 1-.52-.169 6.508 6.508 0 0 1-.879-.584 1.302 1.302 0 0 0-1.817.253 1.304 1.304 0 0 0 .246 1.818c.395.31.816.585 1.258.823a3.743 3.743 0 0 0 1.712.459ZM49.775 149.589a3.553 3.553 0 0 0 2.331.858c.466.003.928-.082 1.361-.251a1.3 1.3 0 0 0 .704-1.688 1.297 1.297 0 0 0-1.683-.715l-.001-.005-.002.001c-.122.038-.25.058-.379.058a.931.931 0 0 1-.642-.235l-.098-.125a.584.584 0 0 1-.033-.223c.042-.471.163-.932.357-1.363a1.303 1.303 0 0 0-.744-1.688 1.304 1.304 0 0 0-.998.026 1.313 1.313 0 0 0-.685.728 6.531 6.531 0 0 0-.53 2.297 3.16 3.16 0 0 0 .23 1.214c.178.43.457.811.812 1.111ZM67.395 164.624l-.004-.004c-.077.086-.166.16-.263.221a.951.951 0 0 1-.522.159l-.188-.017a.31.31 0 0 1-.157-.066 1.07 1.07 0 0 1-.262-.456 6.113 6.113 0 0 1-.247-1.072 1.302 1.302 0 0 0-1.489-1.069 1.297 1.297 0 0 0-1.078 1.482c.091.723.295 1.428.606 2.087.199.396.476.747.814 1.032.388.319.851.532 1.346.619.216.04.435.06.655.061a3.716 3.716 0 0 0 2.842-1.39 1.299 1.299 0 0 0-1.192-2.074c-.34.042-.65.217-.86.487Z"/><path fill="#BEBEC9" d="M165.373 117.289a10.021 10.021 0 0 0-2.436-2.682 25.884 25.884 0 0 0-5.401-3.295 20.885 20.885 0 0 0-2.81-1.065 9.405 9.405 0 0 0-2.551-.426h-.05a8.558 8.558 0 0 0-3.292.904 28.726 28.726 0 0 0-4.795 2.893c-.608.442-1.193.914-1.753 1.415-.213.19-.414.391-.604.604a3.202 3.202 0 0 0-.248.319 1.773 1.773 0 0 0-.245.509 8.84 8.84 0 0 0-.137.608 93.99 93.99 0 0 0-.653 3.914 78.08 78.08 0 0 0-.286 2.12c-.068.512-.11 1.027-.125 1.544-.003.166.013.333.048.496.072.306.235.584.466.797.245.219.535.382.849.478.384.12.78.2 1.18.239.403.043.809.065 1.214.064a8.89 8.89 0 0 0 1.057-.057 3.78 3.78 0 0 0 .484-.089c.236-.055.457-.158.651-.302.124-.095.232-.209.32-.338a2.04 2.04 0 0 0 .216-.411 5.96 5.96 0 0 0 .222-.69c.09-.334.18-.733.269-1.15a34.166 34.166 0 0 0-.088 2.127c-.003.26.008.519.032.778.014.137.039.272.075.405.029.107.07.211.121.31.104.203.258.377.447.506.18.117.374.211.578.28a6.436 6.436 0 0 0 2.026.339c.407.006.812-.051 1.201-.169a1.56 1.56 0 0 0 .529-.296c.159-.138.298-.298.412-.476.058.079.122.154.191.223.348.335.778.574 1.246.693.417.114.847.171 1.279.169a4.48 4.48 0 0 0 1.408-.214 2.428 2.428 0 0 0 1.348-1.006c.129-.226.242-.462.336-.705.019-.047.041-.111.061-.16.468.138.954.206 1.442.2a7.121 7.121 0 0 0 4.47-1.602 4.996 4.996 0 0 0 1.47-2.288 8.59 8.59 0 0 0 .449-2.734 5.76 5.76 0 0 0-.623-2.779Zm-2.285 4.67c-.118.42-.342.803-.65 1.113a4.522 4.522 0 0 1-2.831 1.02 2.878 2.878 0 0 1-.593-.055 93.346 93.346 0 0 0 .97-3.268c.169-.617.3-1.128.377-1.498a1.3 1.3 0 0 0-2.546-.526h-.001c-.06.296-.213.894-.409 1.595a86.723 86.723 0 0 1-1.059 3.502 39.62 39.62 0 0 1-.51 1.472c-.075.198-.143.368-.197.495l-.04.087a1.94 1.94 0 0 1-.587.081 2.168 2.168 0 0 1-.468-.048c.007-.095.016-.198.027-.313.109-1.145.396-3.173.654-4.888.129-.859.25-1.645.34-2.215l.147-.923a1.301 1.301 0 0 0-2.537-.553l-.11.396c-.25.887-.892 3.124-1.56 5.144-.332 1.009-.674 1.967-.962 2.646a7.166 7.166 0 0 1-.282.604c-.037.002-.066.006-.107.006a3.76 3.76 0 0 1-.678-.073c.002-.773.079-2.018.175-3.151.048-.58.102-1.134.152-1.586.049-.449.098-.815.123-.949.061-.282.138-.56.232-.834.173-.532.404-1.15.59-1.626.093-.239.175-.444.233-.587l.092-.224a1.299 1.299 0 0 0-.703-1.692 1.297 1.297 0 0 0-1.697.692c-.004.009-.266.638-.556 1.413-.019.048-.036.103-.054.152l-2.172.936a1.301 1.301 0 0 0-.769.99c0 .001-.053.333-.139.843a82.435 82.435 0 0 1-.536 2.89c-.088.422-.175.794-.253 1.084a8.2 8.2 0 0 1-1.568-.06c.024-.257.058-.566.1-.902a102.337 102.337 0 0 1 .803-5.193c.039-.21.074-.39.103-.528l.02-.091c.104-.118.216-.23.333-.335a26.659 26.659 0 0 1 4.021-2.901c.77-.466 1.573-.876 2.403-1.225a5.286 5.286 0 0 1 1.741-.455h.025a8.59 8.59 0 0 1 2.603.573 24.104 24.104 0 0 1 5.06 2.561 16.779 16.779 0 0 1 2.071 1.599c.466.406.869.88 1.195 1.405.215.473.315.99.292 1.509a6.021 6.021 0 0 1-.308 1.891ZM40.34 127.368l-.003-.005-.001-.002.004.007ZM46.744 128.265l-.005-.002-.007-.002.012.004ZM32.72 117.291l.002-.002v-.001l-.001.003Z"/><path fill="#BEBEC9" d="M57.402 119.086c-.099-.605-.195-1.158-.279-1.604a26.59 26.59 0 0 0-.115-.586 6.269 6.269 0 0 0-.1-.421l-.002-.004-.003-.011a1.89 1.89 0 0 0-.32-.613 5.927 5.927 0 0 0-.714-.758 28.985 28.985 0 0 0-4.46-3.227c-.881-.532-1.8-.998-2.75-1.395a7.597 7.597 0 0 0-2.673-.64v-.001h-.022l-.047-.001a10.978 10.978 0 0 0-3.466.72 26.568 26.568 0 0 0-5.636 2.846 19.33 19.33 0 0 0-2.395 1.853 8.668 8.668 0 0 0-1.698 2.045 5.724 5.724 0 0 0-.624 2.773c0 .931.153 1.855.45 2.738.269.884.776 1.676 1.465 2.291l.008.007a7.162 7.162 0 0 0 4.474 1.597c.487.006.973-.061 1.44-.199.028.07.059.158.087.224.089.222.194.437.315.643.314.48.787.834 1.336.999a4.421 4.421 0 0 0 1.733.203h.01l.123-.006a3.996 3.996 0 0 0 1.463-.398c.275-.138.52-.33.72-.564.027-.031.051-.07.077-.105.044.065.087.13.14.196.082.103.174.197.275.282.155.131.334.231.527.293.387.118.79.176 1.196.171a6.543 6.543 0 0 0 2.035-.344c.204-.069.399-.164.579-.283l.003-.002c.188-.129.34-.303.443-.506.075-.149.129-.308.158-.473.029-.162.047-.325.054-.488.01-.163.012-.336.012-.523 0-.593-.037-1.348-.088-2.13.069.326.138.637.207.917.071.283.14.531.22.763.042.124.093.245.15.362.041.081.087.158.139.231.087.122.192.23.311.321v.001l.008.006.006.006.001-.002c.191.138.408.238.637.292a4.5 4.5 0 0 0 .74.115 11.618 11.618 0 0 0 2.206-.052l.02-.002a5.066 5.066 0 0 0 1.105-.266c.214-.079.414-.191.595-.33a1.61 1.61 0 0 0 .582-.886l.005-.022a2.2 2.2 0 0 0 .046-.488 17.416 17.416 0 0 0-.16-1.821c-.139-1.129-.35-2.536-.549-3.744Zm-3.502 5.028a12.735 12.735 0 0 1-.11-.447c-.1-.434-.206-.958-.308-1.488a87.293 87.293 0 0 1-.354-1.978c-.092-.544-.148-.905-.148-.906a1.3 1.3 0 0 0-.771-.994l-2.172-.933c-.312-.844-.607-1.551-.611-1.563a1.298 1.298 0 0 0-2.396.011 1.3 1.3 0 0 0-.004.99v-.001l.042.101c.096.234.343.846.582 1.5.21.543.382 1.099.516 1.666l.002.014c.025.128.075.493.124.94.15 1.333.326 3.563.329 4.736a3.928 3.928 0 0 1-.684.072c-.04 0-.07-.005-.106-.007a4.824 4.824 0 0 1-.153-.313c-.247-.542-.557-1.367-.866-2.272a104.888 104.888 0 0 1-1.298-4.129c-.178-.605-.327-1.125-.431-1.493-.105-.367-.163-.58-.163-.58a1.299 1.299 0 0 0-2.537.551c0 .002.109.681.262 1.673.153.991.35 2.292.524 3.523.002.015.01.028.013.042.076.533.143 1.05.201 1.524l.003.039c.055.46.103.875.136 1.211.012.119.021.225.029.323-.082.02-.166.034-.25.044h-.01l-.211.009a1.898 1.898 0 0 1-.57-.078l-.01-.004a5.134 5.134 0 0 1-.105-.242c-.273-.662-.696-1.933-1.084-3.202a71.985 71.985 0 0 1-.943-3.33c-.047-.193-.08-.325-.079-.326a1.297 1.297 0 0 0-.984-1.059 1.313 1.313 0 0 0-.983.16 1.31 1.31 0 0 0-.582.809 1.297 1.297 0 0 0-.017.507c.041.239.087.381.117.519l.004.014c.242.977.704 2.593 1.177 4.097.02.068.042.13.063.197a2.777 2.777 0 0 1-.589.054 4.567 4.567 0 0 1-2.839-1.019 2.604 2.604 0 0 1-.649-1.119 6.033 6.033 0 0 1-.309-1.895 3.269 3.269 0 0 1 .29-1.5l.003-.002a7.634 7.634 0 0 1 1.807-1.938 23.325 23.325 0 0 1 4.838-2.943c.795-.368 1.615-.68 2.455-.931a6.959 6.959 0 0 1 1.826-.323h.03c.78.081 1.538.307 2.235.667a26.255 26.255 0 0 1 4.334 2.621 20.06 20.06 0 0 1 1.544 1.244c.134.12.262.246.383.379.015.068.033.152.052.248a88.4 88.4 0 0 1 .632 3.784c.108.733.206 1.45.276 2.043.029.24.05.456.069.648l-.044.007a9.04 9.04 0 0 1-1.528.048Z"/></svg>