<svg xmlns="http://www.w3.org/2000/svg" width="200" height="200" fill="none"><path fill="#BEBEC9" d="m105.578 26.635 6.166 11.175a1.3 1.3 0 1 0 2.276-1.257l-6.166-11.174a1.3 1.3 0 1 0-2.276 1.256ZM78.291 144.995l.348.001c2.002 0 3.934-.123 5.793-.366a1.3 1.3 0 0 0-.338-2.578c-1.74.228-3.56.344-5.455.344l-.33-.001a1.3 1.3 0 0 0-.017 2.601v-.001ZM117.919 156.274a1.3 1.3 0 0 0-1.653.805c-1.357 3.944-2.226 8.417-2.233 8.447-.086.437.058.884.38 1.191l.041.042c.099.102.351.387.554.739.207.352.347.754.343 1.083-.008.283-.062.534-.351.903-.089.114-.273.237-.573.324-.294.088-.67.124-.987.122-.207 0-.39-.013-.514-.025l-.139-.017-.027-.004h-.002a1.3 1.3 0 0 0-1.492 1.045h-.002l-.018.075c-.043.182-.2.643-.457.974a1.537 1.537 0 0 1-.434.399 1.33 1.33 0 0 1-.627.178l-.117.003a1.76 1.76 0 0 1-.874-.218c-.361-.194-.668-.536-.869-.846a3.446 3.446 0 0 1-.219-.387l-.045-.101-.007-.017-.002.001a1.3 1.3 0 0 0-1.559-.799l-.001-.001-.059.013a3.704 3.704 0 0 1-.773.082 2.719 2.719 0 0 1-.775-.103 1.66 1.66 0 0 1-1.051-.92 1.497 1.497 0 0 1-.111-.587c-.009-.525.258-1.227.574-1.763a6.7 6.7 0 0 1 .429-.651l.135-.173.032-.039.005-.006h-.001c.209-.24.308-.552.306-.868h.015v-.014c0-.332.009-1.749.027-3.226.017-1.472.046-3.044.081-3.602a1.3 1.3 0 0 0-2.595-.158c-.042.695-.067 2.232-.086 3.728a412.488 412.488 0 0 0-.025 2.835 8.963 8.963 0 0 0-.575.875c-.432.761-.913 1.803-.922 3.062a4.1 4.1 0 0 0 .314 1.594 4.246 4.246 0 0 0 1.059 1.482 4.18 4.18 0 0 0 1.646.923 5.365 5.365 0 0 0 1.974.189c.126.198.278.411.463.63.336.394.781.807 1.366 1.128a4.388 4.388 0 0 0 2.123.537l.233-.006h.014a3.912 3.912 0 0 0 2.08-.705c.814-.58 1.255-1.331 1.519-1.918a6.18 6.18 0 0 0 1.698-.224c.628-.184 1.329-.526 1.867-1.186.648-.791.936-1.717.929-2.538-.008-1.157-.474-2.066-.886-2.698a6.526 6.526 0 0 0-.353-.481c.285-1.341 1.027-4.622 2.012-7.475a1.3 1.3 0 0 0-.805-1.653ZM96.254 78.673c.029.001.104.005.242.005.828-.002 3.848-.13 12.241-1.719a1.3 1.3 0 1 0-.483-2.554c-8.301 1.573-11.214 1.675-11.758 1.673h-.092v.017-.018.018-.018a1.3 1.3 0 1 0-.15 2.596ZM179.925 82.423c-.44-1.05-.994-1.995-1.689-2.782-.693-.784-1.54-1.412-2.526-1.767-.682-.245-1.336-.371-1.962-.371a3.997 3.997 0 0 0-2.058.544c-.888.526-1.458 1.34-1.801 2.172a6.793 6.793 0 0 0-.487 2.571c.001.627.079 1.23.244 1.792.241.814.459 1.914.459 3.123-.005 1.751-.437 3.694-1.885 5.53-1.123 1.412-2.585 2.012-4.001 2.018-1.509-.002-2.916-.703-3.718-1.926-.03-.044-.075-.069-.108-.108-2.236-4.538-4.978-8.23-8.081-11.168-3.767-3.57-8.046-6.045-12.514-7.686a1.3 1.3 0 0 0-.897 2.44c4.182 1.538 8.133 3.828 11.623 7.133 3.488 3.306 6.521 7.632 8.836 13.288 1.511 3.692 2.126 7.634 2.126 11.498.001 4.695-.912 9.271-2.188 13.08-.638 1.904-1.365 3.617-2.106 5.052-.739 1.435-1.497 2.593-2.159 3.372a1.3 1.3 0 0 0-.295 1.023l.144 1.028a809.053 809.053 0 0 1 1.87 14.414c.742 6.197 1.418 12.738 1.48 16.201.004.191.053.368.13.531.045.375.234.728.578.946l-.001.001s.093.06.233.172c.21.167.514.451.731.769.223.322.346.643.344.951-.002.198-.041.414-.193.708-.057.109-.166.23-.364.354-.291.187-.756.331-1.134.399a5.59 5.59 0 0 1-.469.066l-.125.009-.026.001v.001a1.296 1.296 0 0 0-1.25 1.123h-.001c.001.01-.091.584-.32 1.117a2.647 2.647 0 0 1-.402.686c-.148.171-.272.251-.394.29-.162.05-.304.07-.442.07-.235 0-.476-.058-.725-.17-.373-.164-.743-.453-.999-.703a4.466 4.466 0 0 1-.296-.314l-.069-.084-.012-.015h-.001a1.3 1.3 0 0 0-1.625-.387v-.001l-.008.004c-.045.027-.73.322-1.36.312-.337-.002-.632-.067-.894-.226-.345-.214-.505-.417-.621-.646-.112-.229-.169-.51-.17-.84-.003-.526.161-1.149.342-1.616.089-.234.179-.43.244-.562l.075-.147.017-.031h.001c.098-.171.145-.353.161-.537.12-.318.121-.68-.034-1.011-1.593-3.405-3.979-8.605-6.264-15.458a1.3 1.3 0 1 0-2.466.823c.134.404.27.782.405 1.175-3.165 1.161-6.31 1.762-9.172 1.762-1.927 0-3.725-.269-5.319-.801a1.3 1.3 0 0 0-.822 2.467c1.901.633 3.973.934 6.141.934 3.211-.001 6.633-.665 10.042-1.912 1.813 4.941 3.581 8.854 4.879 11.637a9.302 9.302 0 0 0-.318.736c-.246.653-.508 1.533-.511 2.541a4.47 4.47 0 0 0 .433 1.981 4.152 4.152 0 0 0 1.604 1.726 4.286 4.286 0 0 0 2.247.605 5.935 5.935 0 0 0 1.578-.233c.131.126.279.26.447.396.346.28.771.569 1.283.799.51.228 1.115.396 1.787.396.398 0 .812-.06 1.224-.19l.003-.001c.705-.223 1.242-.665 1.622-1.124.572-.695.86-1.447 1.043-2.034.006-.021.009-.038.016-.059.19-.036.398-.082.618-.143.44-.124.93-.305 1.413-.605a3.54 3.54 0 0 0 1.291-1.353 4.1 4.1 0 0 0 .49-1.915 4.057 4.057 0 0 0-.432-1.799c-.377-.759-.889-1.304-1.303-1.682a7.96 7.96 0 0 0-.289-.248c-.056-2.098-.288-4.987-.609-8.213-.892-8.926-2.461-20.292-2.825-22.888.714-.921 1.424-2.05 2.114-3.385 2.417-4.695 4.577-11.776 4.583-19.325 0-.172-.008-.345-.011-.518.791.26 1.646.398 2.545.399 1.877-.002 3.934-.542 5.915-1.659 1.98-1.118 3.881-2.823 5.4-5.161 2.286-3.532 3.295-7.949 3.3-12.041-.002-2.676-.434-5.218-1.31-7.32Zm-4.17 17.945c-1.294 1.991-2.881 3.4-4.498 4.314-1.616.915-3.265 1.325-4.637 1.323-1.008.002-1.856-.222-2.441-.565-.078-.046-.165-.056-.248-.084-.235-2.603-.761-5.223-1.661-7.776a7.302 7.302 0 0 0 1.949.273c2.174.006 4.44-.975 6.04-3.004 1.871-2.361 2.45-4.961 2.446-7.144a13.769 13.769 0 0 0-.566-3.861 3.778 3.778 0 0 1-.137-1.054c-.006-.725.188-1.512.501-1.988.154-.241.324-.407.51-.518.188-.108.401-.179.735-.181.274 0 .631.055 1.082.218.511.184.996.522 1.459 1.044.692.777 1.298 1.968 1.709 3.423.413 1.454.637 3.164.637 4.956.005 3.66-.942 7.654-2.88 10.624Z"/><path fill="#FFE632" d="M131.303 51.69c-3.082-5.192-6.667-9.11-10.494-11.792-3.826-2.683-7.901-4.126-11.906-4.345a34.067 34.067 0 0 0-1.913-.053c-7.597-.002-14.063 2.532-19.023 6.26-4.963 3.73-8.444 8.634-10.162 13.473a1.3 1.3 0 0 0 2.452.868c1.525-4.318 4.718-8.848 9.27-12.262 4.557-3.417 10.449-5.738 17.463-5.74.583 0 1.172.016 1.769.05 3.48.192 7.079 1.441 10.558 3.878 5.215 3.652 10.147 9.996 13.777 19.356 3.629 9.356 5.952 21.715 5.982 37.319v.375c.005 20.633-3.328 35.26-8.716 44.585-2.692 4.666-5.881 8.01-9.424 10.196-3.545 2.184-7.457 3.229-11.693 3.232a27.18 27.18 0 0 1-1.943-.072c-5.727-.424-10.21-2.225-13.758-4.731-3.144-2.224-5.549-5.02-7.355-7.929 8.048-1.425 14.64-5.267 19.344-11.256 5.048-6.415 7.932-15.208 8.474-26.007a119.8 119.8 0 0 0 .151-5.99c-.001-7.705-.756-15.016-2.161-21.368-1.41-6.352-3.456-11.746-6.129-15.646a1.289 1.289 0 0 0-1.709-.377 3.184 3.184 0 0 0-1.665.616c-.758.558-1.295 1.325-1.738 2.187a12.127 12.127 0 0 0-.992 2.836c-.156.698-.263 1.36-.334 1.976a1.3 1.3 0 1 0 2.583.3c.062-.534.154-1.107.289-1.71.237-1.083.65-2.12 1.098-2.79.221-.335.449-.572.62-.694a.921.921 0 0 1 .191-.108c2.176 3.447 3.987 8.264 5.247 13.972 1.358 6.133 2.1 13.272 2.099 20.807 0 1.93-.047 3.886-.147 5.858-.523 10.42-3.295 18.657-7.919 24.53-4.631 5.869-11.11 9.46-19.396 10.558a1.3 1.3 0 0 0-1.12 1.459c.02.145.076.274.137.399.004.209.04.419.15.613 2.018 3.571 4.865 7.116 8.78 9.887 3.914 2.772 8.896 4.749 15.071 5.201.715.052 1.426.079 2.132.079 4.666.003 9.097-1.173 13.059-3.619 5.95-3.672 10.795-10.138 14.143-19.535 3.349-9.406 5.229-21.777 5.231-37.459V98.7c-.043-21.146-4.211-36.625-10.373-47.01Z"/><path fill="#BEBEC9" d="M106.717 9a1.3 1.3 0 0 0-1.3 1.3v15.152a647.679 647.679 0 0 0-6.35 11.525c-1.795 3.355-3.163 8.015-3.169 12.864 0 4.086.993 8.334 3.663 11.888 2.179 2.9 4.189 3.847 4.35 3.917a1.3 1.3 0 0 0 1.072-2.366l.001-.002c-.052-.026-1.581-.768-3.344-3.111-2.25-2.99-3.141-6.647-3.142-10.326-.005-4.347 1.271-8.685 2.859-11.635a640.142 640.142 0 0 1 5.944-10.803l.546-.967a1.29 1.29 0 0 0 .17-.642V10.3a1.3 1.3 0 0 0-1.3-1.3ZM88.681 184.086c-.413-1.433-1.013-2.918-1.55-4.369-.538-1.447-1.007-2.859-1.186-4.05a1.3 1.3 0 0 0-2.572.011c-.225 1.601-.984 3.51-1.73 5.377-.37.937-.735 1.867-1.016 2.779-.28.914-.484 1.809-.486 2.717 0 .197.01.396.033.594.136 1.148.586 2.227 1.35 3.062a4.22 4.22 0 0 0 3.136 1.393 4.404 4.404 0 0 0 3.185-1.368 4.747 4.747 0 0 0 1.308-3.219v-.097c-.002-.936-.199-1.873-.472-2.83ZM84.66 189c-.508-.007-.875-.187-1.222-.553-.34-.365-.606-.94-.682-1.605a2.556 2.556 0 0 1-.016-.291c-.002-.491.13-1.173.372-1.952.36-1.172.948-2.557 1.51-4.011l.03-.082.594 1.586c.362.961.698 1.883.936 2.711.24.828.373 1.562.371 2.113v.057a2.147 2.147 0 0 1-.584 1.458 1.795 1.795 0 0 1-1.31.569ZM59.98 63.335v-.003c-.012-.002-.015 0-.026-.002l-.016-.003v.003a2.018 2.018 0 0 0-2.183 1.785h-.004l-.001.028-.003.018h.002a2.02 2.02 0 0 0 1.831 2.191l.026.003.155.006a2.02 2.02 0 0 0 2.011-1.842l.002-.029.005-.15c0-1.022-.767-1.89-1.8-2.005Zm-.243 2.004-.555-.05.555.05Z"/><path fill="#BEBEC9" d="M78.549 142.663a1.3 1.3 0 0 0-1.683.74c-1.47 3.792-2.652 9.167-3.495 13.643a179.948 179.948 0 0 0-1.32 8.031c-.067.482.146.963.545 1.241v.001l.058.044c.134.102.47.389.734.747.27.362.438.756.433 1.103-.002.214-.046.439-.225.752-.058.1-.162.208-.347.318-.27.166-.702.293-1.076.351a4.928 4.928 0 0 1-.727.066l-.065.001a1.295 1.295 0 0 0-1.215.973l-.001-.001c0 .001-.028.108-.09.27a3.322 3.322 0 0 1-.475.86c-.104.13-.214.234-.317.305a.8.8 0 0 1-.301.133 1.755 1.755 0 0 1-.34.033c-.509.007-1.15-.232-1.638-.514a5.697 5.697 0 0 1-.588-.382l-.153-.118-.033-.027v-.001a1.3 1.3 0 0 0-1.396-.205c-.076.037-.681.259-1.26.253-.38-.001-.714-.078-.995-.267-.316-.216-.467-.415-.572-.63a1.774 1.774 0 0 1-.155-.771c-.004-.529.183-1.176.392-1.664.103-.245.208-.45.283-.589l.088-.155.02-.033v-.001c.171-.267.239-.588.19-.901-.134-.847-.35-2.847-.527-5.432-.177-2.591-.32-5.791-.32-9.116 0-3.767.185-7.698.694-11.068a1.287 1.287 0 0 0-.974-1.436 1.271 1.271 0 0 0-.474-.354c-7.07-2.902-13.978-7.805-20.352-15.7-.197-.244-.392-.5-.588-.75.524-.576.991-1.08 1.38-1.492.404-.429.725-.763.944-.987l.25-.255.083-.083a1.301 1.301 0 0 0-1.838-1.84c-.011.013-.956.959-2.414 2.548a75.577 75.577 0 0 1-1.783-2.573c.648-.458 1.307-.917 1.978-1.377a1.301 1.301 0 0 0-1.47-2.145c-.65.445-1.286.89-1.913 1.333a88.413 88.413 0 0 1-1.5-2.501 88.378 88.378 0 0 1 2.45-1.005 1.3 1.3 0 1 0-.944-2.421c-.928.362-1.855.744-2.776 1.139-3.217-5.969-6.203-12.988-8.877-21.228-1.003-3.086-1.95-7.535-2.756-11.981l11.47 5.197a1.303 1.303 0 0 0 1.401-.214c.001 0 .11-.098.319-.28.73-.64 2.645-2.29 4.958-4.115 2.31-1.823 5.03-3.82 7.312-5.129a1.3 1.3 0 0 0 .643-.964l2.408-19.007 5.514 4.985a1.3 1.3 0 0 0 1.744-1.928l-7.362-6.655a1.3 1.3 0 0 0-2.162.8L44.7 71.088c-2.694 1.619-5.665 3.872-8.05 5.79-1.664 1.34-3.02 2.499-3.771 3.15l-12.955-5.87a1.301 1.301 0 0 0-1.817 1.405c.902 5.26 2.009 10.858 3.274 14.766 2.69 8.287 5.701 15.394 8.968 21.483-8.965 4.105-16.715 9.043-16.747 9.061a1.3 1.3 0 0 0 1.396 2.194l.119-.075c1.005-.635 8.314-5.165 16.493-8.895a90.396 90.396 0 0 0 1.773 2.962c-9.02 6.563-15.227 12.335-15.254 12.359a1.3 1.3 0 0 0 1.772 1.905l.087-.081c.774-.713 6.613-6.02 14.805-11.991a79.59 79.59 0 0 0 2.124 3.031c-2.759 3.14-6.42 7.617-9.552 12.509a1.3 1.3 0 1 0 2.19 1.403v-.001c2.846-4.451 6.202-8.615 8.841-11.654l.132-.15c.107.135.213.275.32.408 6.544 8.113 13.751 13.29 21.143 16.367-.443 3.343-.612 7.02-.613 10.558 0 3.399.145 6.652.326 9.294.158 2.295.34 4.11.487 5.203-.101.191-.22.428-.343.72-.285.684-.592 1.608-.596 2.674 0 .6.105 1.255.407 1.888a4.159 4.159 0 0 0 1.47 1.671c.821.551 1.71.71 2.445.709a6.085 6.085 0 0 0 1.57-.22c.168.114.355.236.581.364.717.399 1.712.842 2.918.849.276 0 .56-.026.845-.082l.005-.001a3.487 3.487 0 0 0 1.64-.836c.622-.562.979-1.203 1.211-1.704l.008-.019c.257-.033.538-.079.853-.159.431-.111.904-.277 1.372-.553a3.524 3.524 0 0 0 1.266-1.246c.396-.675.58-1.395.578-2.06 0-.659-.17-1.251-.4-1.744a5.803 5.803 0 0 0-1.209-1.666c-.03-.03-.056-.052-.085-.08.209-1.44.744-4.95 1.525-8.885.794-4.006 1.855-8.46 3.037-11.493a1.3 1.3 0 0 0-.74-1.682ZM71.465 172.3v-.001.001Z"/><path fill="#BEBEC9" d="M39.056 105.784c.271.257.572.447.886.58.315.132.641.209.998.21.229 0 .473-.033.734-.133.257-.1.537-.281.748-.565l.004-.005c.34-.454.536-1.02.531-1.555a2.79 2.79 0 0 0-.48-1.525c-.4-.603-.906-1.012-1.39-1.321a4.631 4.631 0 0 0-.725-.375 3.02 3.02 0 0 0-.379-.125 1.993 1.993 0 0 0-.484-.064 1.476 1.476 0 0 0-.614.128 1.363 1.363 0 0 0-.728.78l-.004-.001c-.002.006-.001.009-.004.016l-.005.012.003.001c-.094.286-.093.457-.098.608.002.283.038.496.068.673l.02.098c-.009.102-.026.204-.026.305-.008.934.399 1.753.945 2.258ZM53.57 89.062c-.038.17-.044.3-.045.42.004.37.07.687.173 1.047.16.53.407 1.108.83 1.651.214.27.477.533.824.746.344.212.79.365 1.267.364.4 0 .8-.105 1.16-.286l.008-.005c.448-.232.686-.596.813-.902.128-.314.17-.611.172-.906a3.036 3.036 0 0 0-.712-1.933c-.431-.531-1.145-.923-1.961-1.029a3.693 3.693 0 0 0-.556-.207c-.148-.04-.305-.085-.58-.089-.087 0-.174.008-.254.022v-.001h-.003l-.01.002v.002c-.31.049-.607.23-.772.416-.257.29-.312.522-.355.688ZM52.404 99.415a3.15 3.15 0 0 1-.238-.083l-.05-.021-.005-.002v.001a1.302 1.302 0 0 0-1.364.15c-.39.307-.572.814-.467 1.3.004.011.02.113.019.242.004.355-.098.927-.342 1.357-.12.219-.268.406-.455.559a1.879 1.879 0 0 1-.737.365 1.299 1.299 0 1 0 .654 2.515 4.454 4.454 0 0 0 1.549-.75c.304.241.62.469.957.666.605.35 1.281.634 2.081.641a2.811 2.811 0 0 0 1.904-.736c.384-.346.661-.776.826-1.215.166-.44.226-.885.226-1.31-.008-.866-.238-1.664-.551-2.365.36-.394.68-.865.938-1.427a1.299 1.299 0 1 0-2.36-1.09c-.301.642-.61.928-.89 1.098-.28.167-.576.228-.894.229-.294 0-.59-.06-.8-.124Zm1.898 4.072-.135.203c-.092.069-.068.055-.161.064-.106.007-.403-.065-.77-.285a5.89 5.89 0 0 1-.705-.502c.007-.016.016-.033.022-.05.1-.274.169-.54.223-.799.137.012.28.02.43.021.288.001.603-.034.927-.1.142.381.236.768.23 1.055 0 .173-.027.304-.061.393ZM97.314 103.183c-1.014-.504-2.163-1.418-3.298-2.6-1.71-1.772-3.398-4.132-4.804-6.527-.28-.475-.54-.95-.796-1.425l.013-.007h.002a5.533 5.533 0 0 0 2.335-7.449l-.226-.433a148.75 148.75 0 0 1 4.168-1.037 100.34 100.34 0 0 1 2.001-.445l.136-.028a1.3 1.3 0 0 0-.512-2.549c-.022.004-2.78.56-7.028 1.697l-2.048-3.918a180.215 180.215 0 0 1 5.317-3.095 129.182 129.182 0 0 1 2.15-1.172l.148-.078a1.3 1.3 0 1 0-1.2-2.307c-.017.01-3.053 1.587-7.621 4.343l-2.156-4.125a162.146 162.146 0 0 1 3.803-3.224 117.856 117.856 0 0 1 1.617-1.303l.114-.09a1.3 1.3 0 1 0-1.596-2.05c-.014.01-2.142 1.666-5.177 4.296l-7.355-14.075a5.532 5.532 0 0 0-7.45-2.336L55.233 59.84a5.532 5.532 0 0 0-2.335 7.449L68.36 96.882a5.535 5.535 0 0 0 6.798 2.623 55.86 55.86 0 0 0 2.112 7.649c1.246 3.48 3.006 7.19 5.517 10.482 2.51 3.288 5.79 6.164 10.027 7.881a1.3 1.3 0 0 0 .977-2.41c-3.728-1.511-6.64-4.041-8.936-7.049-3.445-4.505-5.455-10.076-6.57-14.514a54.84 54.84 0 0 1-1.099-5.522c-.1-.687-.164-1.232-.203-1.603-.02-.185-.032-.326-.04-.42l-.01-.104-.001-.028a1.285 1.285 0 0 0-1.017-1.156 1.266 1.266 0 0 0-.669-.329l-.005-.002c-.04-.002-.788-.132-1.4-.466-.312-.167-.575-.376-.736-.593-.162-.223-.253-.432-.26-.807l.004-.083c.005-.124.052-.28.18-.476.184-.292.544-.621.858-.842.156-.112.298-.201.397-.258l.11-.063.023-.011.002-.001v-.001a1.301 1.301 0 0 0 .453-1.938h.001a3.363 3.363 0 0 1-.311-.55c-.145-.313-.261-.71-.26-1.046a1.37 1.37 0 0 1 .107-.544c.075-.176.196-.363.43-.576.355-.31.595-.365.905-.376.399-.007.932.2 1.344.458.205.125.379.253.494.347l.127.107.024.02v.001l.004.004a1.298 1.298 0 0 0 1.872-.087h.001c.034-.039.337-.361.734-.638.197-.137.416-.263.62-.345.206-.083.391-.121.539-.121l.116.008h.004c.425.065.67.2.887.387.32.278.571.768.714 1.33.144.554.177 1.143.176 1.487 0 .107-.003.191-.004.245l-.003.056v.005h-.001v.005c-.017.222.037.427.12.617-.015.174.002.352.06.528.951 2.83 2.759 6.435 4.977 9.713 1.11 1.638 2.321 3.19 3.593 4.51 1.274 1.321 2.602 2.416 4.008 3.123a1.3 1.3 0 1 0 1.163-2.326ZM81.984 80.929h.003a3.412 3.412 0 0 0-.484-.034c-.603.001-1.14.15-1.599.346-.55.236-.998.538-1.354.818-.038-.025-.068-.047-.109-.072-.648-.39-1.558-.83-2.697-.837-.863-.01-1.853.311-2.65 1.048a4.243 4.243 0 0 0-1.078 1.485 3.99 3.99 0 0 0-.313 1.562c.004.778.204 1.433.421 1.95-.085.065-.165.122-.253.197-.346.299-.713.671-1.024 1.148a3.554 3.554 0 0 0-.596 1.773l-.005.201a3.89 3.89 0 0 0 .827 2.43c.74.93 1.698 1.386 2.443 1.66.353.127.662.208.902.262.053.482.138 1.163.268 2.006l-.082.043a2.934 2.934 0 0 1-3.939-1.237L55.201 66.085a2.929 2.929 0 0 1 1.235-3.94l12.62-6.595a2.932 2.932 0 0 1 3.94 1.235L88.461 86.38c.224.43.329.884.329 1.34 0 1.05-.568 2.066-1.545 2.585a29.754 29.754 0 0 1-1.207-2.969c-.012-.037-.04-.062-.056-.096l.002-.008v-.001c.002-.03.017-.222.017-.523-.004-.656-.058-1.822-.557-3.028-.252-.6-.629-1.22-1.207-1.734a4.229 4.229 0 0 0-2.252-1.017ZM48.72 150.411c-.472-1.271-.882-2.507-1.036-3.535a1.303 1.303 0 0 0-1.29-1.105 1.302 1.302 0 0 0-1.282 1.116c-.192 1.381-.856 3.054-1.512 4.698-.327.825-.65 1.647-.9 2.458-.247.812-.432 1.613-.434 2.437 0 .18.009.362.03.544.123 1.04.53 2.019 1.227 2.783a3.871 3.871 0 0 0 2.876 1.277 4.031 4.031 0 0 0 2.917-1.252 4.335 4.335 0 0 0 1.195-2.94v-.088c-.002-.846-.178-1.684-.421-2.535-.367-1.273-.898-2.583-1.37-3.858Zm-2.321 8.073c-.401-.006-.68-.142-.962-.437-.272-.293-.496-.769-.558-1.325l-.014-.242c-.002-.407.11-.994.32-1.672.288-.937.748-2.043 1.205-3.211.128.341.257.682.38 1.014.32.846.614 1.654.82 2.376.21.721.324 1.356.322 1.817v.049a1.732 1.732 0 0 1-.471 1.178c-.283.29-.634.452-1.042.453ZM138.209 173.746c-.373-1.295-.912-2.628-1.392-3.926-.482-1.294-.9-2.553-1.056-3.603a1.303 1.303 0 0 0-1.29-1.105 1.302 1.302 0 0 0-1.282 1.115c-.197 1.411-.873 3.115-1.542 4.788-.332.839-.66 1.676-.915 2.5-.252.826-.439 1.639-.441 2.474 0 .183.01.367.031.55.125 1.054.537 2.046 1.243 2.819a3.923 3.923 0 0 0 2.911 1.293 4.083 4.083 0 0 0 2.951-1.268 4.39 4.39 0 0 0 1.211-2.974v-.089c-.002-.859-.181-1.709-.429-2.574Zm-3.733 4.305c-.416-.007-.706-.149-.997-.452-.281-.303-.51-.793-.575-1.362a2.34 2.34 0 0 1-.013-.248c-.003-.418.111-1.018.327-1.709.297-.97.776-2.117 1.248-3.326.137.367.276.732.409 1.089.324.862.625 1.685.836 2.421.213.734.33 1.382.327 1.856v.047a1.797 1.797 0 0 1-.486 1.216 1.48 1.48 0 0 1-1.076.468Z"/></svg>