<svg xmlns="http://www.w3.org/2000/svg" width="200" height="200" fill="none"><path fill="#FFD93A" d="M137 128c-3.295.414-6.62.528-9.935.341a36.46 36.46 0 0 1-34.046-64.316 36.46 36.46 0 0 1 53.771 19.789 89.966 89.966 0 0 1 10.445 12.533c.01-.428.025-.853.025-1.284 0-23.442-14.58-42.446-37.203-45.638-16.337-2.305-49.33-2.362-68.127 0a46.007 46.007 0 0 0-40.203 45.638c0 23.329 14.666 42 39.876 45.596 18.1 2.582 48.771 4.262 68.78 0a49.878 49.878 0 0 0 14.994-5.762A15.573 15.573 0 0 1 137 128Z"/><path fill="#191C22" d="M193.505 139.917a82.92 82.92 0 0 0-7.488-14.863 112.65 112.65 0 0 0-10.617-14.79 9.975 9.975 0 0 0-3.922-2.731 13.138 13.138 0 0 0-4.79-.834 22.114 22.114 0 0 0-6.201.986c.397-1.231.605-2.515.618-3.808a11.024 11.024 0 0 0-2.04-6.346c-.342-.498-.682-.974-1.022-1.456a1.275 1.275 0 0 0 .519-1.012c.001-11.99-3.731-22.897-10.404-31.226a42.895 42.895 0 0 0-27.918-15.7c-8.329-1.173-20.788-1.761-33.553-1.763a302.63 302.63 0 0 0-34.918 1.76 47.307 47.307 0 0 0-41.341 46.929c-.002 11.935 3.76 22.753 10.793 31.039 7.03 8.289 17.319 14.011 30.2 15.844a285.708 285.708 0 0 0 38.25 2.617c11.042-.001 22.013-.723 30.984-2.633a53.043 53.043 0 0 0 9.381-2.911 1.292 1.292 0 0 0 .704-.705 1.308 1.308 0 0 0-.002-.996 1.306 1.306 0 0 0-.706-.702 1.288 1.288 0 0 0-.996.004 50.524 50.524 0 0 1-8.922 2.767c-8.683 1.852-19.518 2.577-30.442 2.576a283.223 283.223 0 0 1-37.884-2.591c-12.33-1.763-21.978-7.175-28.584-14.953-6.602-7.78-10.174-17.962-10.176-29.356a44.707 44.707 0 0 1 39.065-44.348 300.154 300.154 0 0 1 34.594-1.74c12.676-.001 25.083.591 33.19 1.737a40.286 40.286 0 0 1 26.252 14.75 46.58 46.58 0 0 1 9.796 27.695 105.671 105.671 0 0 0-8.555-10.104c-.359-.37-.705-.715-1.047-1.054-1.274-1.26-2.433-2.313-3.44-3.142a15.098 15.098 0 0 0-3.153-2.134 5.054 5.054 0 0 0-2.044-.415c-.7.01-1.395.12-2.063.33-.019-.018-.027-.042-.047-.058a72.585 72.585 0 0 0-5.658-4.168 1.279 1.279 0 0 0-.328-.282c-.113-.063-.229-.109-.344-.164a67.835 67.835 0 0 0-14.475-7.25 6.791 6.791 0 0 0-2.237-.361 8.398 8.398 0 0 0-4.948 1.64 6.533 6.533 0 0 0-1.786 2.004 5.57 5.57 0 0 0-.679 2.108 8.225 8.225 0 0 0-3.244-.713 6.827 6.827 0 0 0-4.927 2.067 6.655 6.655 0 0 0-1.92 4.6c.003.357.038.714.106 1.066a6.18 6.18 0 0 0-.81-.062 5.332 5.332 0 0 0-2.575.647 6.107 6.107 0 0 0-2.494 2.675 7.889 7.889 0 0 0-.813 3.489 6.378 6.378 0 0 0 1.013 3.572 26.652 26.652 0 0 0 3.26 3.65c2.123 2.076 4.875 4.504 7.612 6.89 2.735 2.384 5.452 4.726 7.469 6.59.024.023.056.029.081.049a6.948 6.948 0 0 0-.261 1.773 4.338 4.338 0 0 0 .377 1.788 49.268 49.268 0 0 1-6.778-1.187 6.403 6.403 0 0 0-1.641-.212 6.896 6.896 0 0 0-4.813 2.028 6.658 6.658 0 0 0-2.048 4.688c0 .891.204 1.77.594 2.57a7.036 7.036 0 0 0 1.84 2.306 25.98 25.98 0 0 0 6.994 4.142c2.799 1.095 5.669 2 8.589 2.709.171.045.349.054.523.027.267.345.587.645.949.889a21.171 21.171 0 0 0 7.091 2.521c.805.159 1.646.289 2.501.403a35.376 35.376 0 0 1-35.61-9.893 35.37 35.37 0 0 1 21.573-59.22 35.373 35.373 0 0 1 33.63 15.33 1.296 1.296 0 0 0 1.775.362c.009-.005.02-.006.029-.012a1.29 1.29 0 0 0 .549-.83c.033-.167.032-.34-.003-.507a1.288 1.288 0 0 0-.196-.468 37.953 37.953 0 0 0-37.557-16.228 37.957 37.957 0 1 0 22.08 71.894c.132.001.263.009.396.009a49.579 49.579 0 0 0 7.228-.536c-.033.082-.069.164-.101.247a16.036 16.036 0 0 0-1.126 5.683 11.89 11.89 0 0 0 .598 3.774c1.507 4.504 4.859 9.758 8.345 14.614 3.486 4.843 7.117 9.258 9.14 11.837a1.3 1.3 0 0 0 1.826.221 1.289 1.289 0 0 0 .285-1.698 1.389 1.389 0 0 0-.064-.128c-2.057-2.621-5.65-6.988-9.076-11.751-3.425-4.749-6.671-9.924-7.99-13.916a9.284 9.284 0 0 1-.463-2.953 16.656 16.656 0 0 1 2.899-8.6 40.432 40.432 0 0 1 12.225-11.876c4.923-3.159 10.266-5.141 14.501-5.129a10.574 10.574 0 0 1 3.845.657 7.387 7.387 0 0 1 2.913 2.024 110.326 110.326 0 0 1 10.352 14.432 80.861 80.861 0 0 1 7.245 14.343c.039.09.088.175.147.253a1.281 1.281 0 0 0 1.501.56 1.302 1.302 0 0 0 .813-1.65Zm-89.283-57.346a5.88 5.88 0 0 1-.076-.878 6.585 6.585 0 0 1 1.893-4.473 6.774 6.774 0 0 1 1.701-1.321c.41-.24.87-.383 1.344-.418a.758.758 0 0 1 .206.024c.107.023.216.032.325.027a154.152 154.152 0 0 1 5.642 3.434c-.097.05-.195.094-.292.148a12.649 12.649 0 0 0-3.896 3.532 10.088 10.088 0 0 0-1.744 3.79 457.43 457.43 0 0 0-5.103-3.865Zm7.534 5.423c.019-.899.246-1.78.661-2.578a10.062 10.062 0 0 1 2.765-3.324c.477-.38.997-.703 1.549-.961a2.855 2.855 0 0 1 1.072-.294.45.45 0 0 1 .147.017c.073.02.148.032.223.038a120.18 120.18 0 0 1 5.582 4.02 139.014 139.014 0 0 0-7.22 7.181 442.03 442.03 0 0 0-4.785-3.78c0-.028.013-.052.012-.08l-.006-.24Zm9.908-7.85a1.266 1.266 0 0 0-.189-.274 1.261 1.261 0 0 1-.393-.982c.024-.532.174-1.05.439-1.512a6.956 6.956 0 0 1 2.177-2.388 5.335 5.335 0 0 1 2.943-1.025c.441-.001.878.083 1.287.249a69.963 69.963 0 0 1 5.002 3.594 32.13 32.13 0 0 0-4.018 2.697 66.307 66.307 0 0 0-3.189 2.638 114.416 114.416 0 0 0-4.059-2.997Zm1.911-8.07a9.732 9.732 0 0 0-3.557 2.857c-.723.9-1.22 1.96-1.45 3.091a143.19 143.19 0 0 0-4.509-2.872 3.667 3.667 0 0 1-.189-1.143 4.088 4.088 0 0 1 1.485-3.026 5.416 5.416 0 0 1 3.537-1.35 4.94 4.94 0 0 1 1.304.183 68.04 68.04 0 0 1 3.896 2.05c-.174.067-.348.132-.517.21Zm-15.51-2.8a4.364 4.364 0 0 1 1.839-1.672 5.887 5.887 0 0 1 2.63-.647 4.22 4.22 0 0 1 1.381.217c.544.19 1.085.409 1.628.617a8.044 8.044 0 0 0-1.909 1.243A6.758 6.758 0 0 0 111.3 73.5a180.36 180.36 0 0 0-3.613-2.047c.018-.096.025-.193.02-.29a3.321 3.321 0 0 1-.027-.423 2.943 2.943 0 0 1 .385-1.467Zm-9.252 4.001a4.219 4.219 0 0 1 3.064-1.281 5.947 5.947 0 0 1 2.832.788c.561.304 1.109.61 1.661.914a9.738 9.738 0 0 0-3.238 3.002 9.069 9.069 0 0 0-1.514 3.947c-.815-.597-1.642-1.2-2.481-1.806a3.687 3.687 0 0 1-1.16-1.314 3.202 3.202 0 0 1-.347-1.465 4.067 4.067 0 0 1 1.183-2.785ZM91.61 85.992a3.808 3.808 0 0 1-.567-2.117 5.108 5.108 0 0 1 .934-2.972c.27-.373.617-.683 1.018-.908a2.72 2.72 0 0 1 1.33-.33 5.897 5.897 0 0 1 3.299 1.29c.64.46 1.265.918 1.89 1.375-.074.043-.148.08-.221.126a11.928 11.928 0 0 0-3.405 3.418c-.672.995-1.164 2.1-1.453 3.265a24.086 24.086 0 0 1-2.825-3.147Zm7.724 7.664a199.832 199.832 0 0 1-2.46-2.213 3.899 3.899 0 0 1-.05-.594c.02-.82.215-1.627.573-2.366a9.75 9.75 0 0 1 2.388-3.153 6.605 6.605 0 0 1 1.309-.912 2.01 2.01 0 0 1 .796-.26l.029.002c.028.006.056-.002.084.003a427.696 427.696 0 0 1 5.194 3.915c-.091.053-.182.1-.273.156a12.827 12.827 0 0 0-3.662 3.676 10.792 10.792 0 0 0-1.621 3.772 400.477 400.477 0 0 1-2.307-2.026Zm4.792 4.191a4.323 4.323 0 0 1-.052-.601 6.345 6.345 0 0 1 .633-2.612 10.687 10.687 0 0 1 2.619-3.458c.438-.392.922-.73 1.442-1.005.243-.131.505-.226.777-.281a438.014 438.014 0 0 1 5.235 4.13 58.677 58.677 0 0 0-3.929 4.901 27.09 27.09 0 0 0-1.946 3.148 312.731 312.731 0 0 0-4.779-4.222Zm-7.306 18.544a4.446 4.446 0 0 1-1.172-1.451 3.257 3.257 0 0 1-.334-1.435 4.071 4.071 0 0 1 1.273-2.837c.79-.8 1.863-1.26 2.988-1.28.331.001.661.043.982.128.695.181 1.402.337 2.108.48a27.52 27.52 0 0 0-.841 1.949 17.994 17.994 0 0 0-1.336 6.199c.001.241.012.483.029.725a21.709 21.709 0 0 1-3.697-2.478Zm6.629 3.849a5.68 5.68 0 0 1-.36-2.096 15.53 15.53 0 0 1 1.161-5.265c.297-.768.594-1.422.815-1.878.111-.229.203-.407.265-.527l.006-.011c1.99.296 3.785.463 4.952.551.076-.003.151-.012.226-.029.245.213.496.428.757.643a14.111 14.111 0 0 0-1.817 7.167 14.508 14.508 0 0 0 .42 3.515 59.05 59.05 0 0 1-6.425-2.07Zm25.012 6.669a45.78 45.78 0 0 1-8.664-.791 18.738 18.738 0 0 1-6.193-2.162 1.854 1.854 0 0 1-.52-.56 6.068 6.068 0 0 1-.74-1.902 12.067 12.067 0 0 1-.289-2.699 11.929 11.929 0 0 1 1.263-5.529l.271.213c1.932 1.502 4.091 3.146 6.248 5.021a1.297 1.297 0 0 0 1.834-.129 1.301 1.301 0 0 0-.129-1.834c-2.236-1.943-4.439-3.619-6.356-5.11a41.031 41.031 0 0 1-4.606-3.946 1.468 1.468 0 0 1-.362-1.081 6.11 6.11 0 0 1 .624-2.362 28.15 28.15 0 0 1 3.815-5.843 98.742 98.742 0 0 1 7.617-8.273 75.095 75.095 0 0 1 10.265-8.833 17.236 17.236 0 0 1 3.148-1.728 5.522 5.522 0 0 1 1.998-.454 2.44 2.44 0 0 1 1.003.199 13.072 13.072 0 0 1 2.541 1.758c3.558 2.925 9.501 9.126 15.693 18.14.037.053.067.107.103.161a8.738 8.738 0 0 0-3.238.79 24.687 24.687 0 0 0-5.611 3.56 46.61 46.61 0 0 0-5.942 5.845 44.422 44.422 0 0 0-5.7 8.299 23.98 23.98 0 0 0-1.579 3.744 11.19 11.19 0 0 0-.579 3.283 5.334 5.334 0 0 0 .289 1.811l.003.006c-2.058.274-4.131.41-6.207.406Zm27.656-17.586c-.185.085-.37.184-.555.272a2.59 2.59 0 0 0-.224-.948 2.07 2.07 0 0 0-1.016-1.001 2.553 2.553 0 0 0-1.045-.214 4.458 4.458 0 0 0-1.74.413 12.487 12.487 0 0 0-3.028 2.002 21.982 21.982 0 0 0-4.278 5.01 14.46 14.46 0 0 0-1.804 4.209c-.371.383-.745.765-1.098 1.159a33.638 33.638 0 0 0-4.108 5.614 1.247 1.247 0 0 1-.111-.226 2.75 2.75 0 0 1-.133-.927 8.639 8.639 0 0 1 .459-2.503 34.86 34.86 0 0 1 6.773-11.132 40.757 40.757 0 0 1 7.396-6.868 18.475 18.475 0 0 1 3.205-1.837c.72-.342 1.5-.542 2.297-.587a1.26 1.26 0 0 1 .856.238c.109.087.232.156.363.203a8.22 8.22 0 0 1 .177 1.677 11.83 11.83 0 0 1-1.269 4.966c-.373.154-.745.311-1.117.48Z"/></svg>