<svg xmlns="http://www.w3.org/2000/svg" width="200" height="200" fill="none"><path fill="#FFD93A" d="M62.5 90.75c-.856-20.829 5-30.75 38.75-32.25s39 13 38.5 28.75-19.5 43-37.25 44-39.25-22.25-40-40.5Z"/><path fill="#000" d="M154.221 63.34c-4.557-5.208-11.033-9.42-19.866-12.303-8.838-2.886-20.045-4.47-34.223-4.471-12.604 0-22.858 1.253-31.19 3.558a53.472 53.472 0 0 0-15.648 6.89 35.07 35.07 0 0 0-13.147 15.803 51.193 51.193 0 0 0-3.527 19.952 52.952 52.952 0 0 0 2.76 17.895 35.32 35.32 0 0 0 6.735 11.536c4.576 5.207 11.062 9.418 19.888 12.301 8.83 2.885 20.011 4.47 34.129 4.471 12.549-.001 22.776-1.254 31.097-3.558a53.645 53.645 0 0 0 15.648-6.89 35.268 35.268 0 0 0 13.2-15.798 50.868 50.868 0 0 0 3.567-19.957 53.392 53.392 0 0 0-2.729-17.89 35.216 35.216 0 0 0-6.694-11.538Zm-101.61 5.722a1.726 1.726 0 0 1-2.696-2.152 31.92 31.92 0 0 1 3.488-3.714 1.725 1.725 0 0 1 2.32 2.553 28.494 28.494 0 0 0-3.112 3.313Zm28.19-15.51a1.725 1.725 0 0 1-1.398 2 57.384 57.384 0 0 0-16.376 5.197 1.726 1.726 0 0 1-1.583-3.066 60.79 60.79 0 0 1 17.358-5.529 1.726 1.726 0 0 1 2 1.399ZM66.92 85.233c-.02-3.185.5-6.35 1.54-9.361a15.432 15.432 0 0 1 4.855-7.173 9.72 9.72 0 0 1 5.336-2.022 8.71 8.71 0 0 1 5.892 1.789 13.218 13.218 0 0 1 3.612 4.41 27.03 27.03 0 0 1 2.782 12.369c.03 3.039-.46 6.06-1.45 8.933a13.899 13.899 0 0 1-4.785 6.765 9.94 9.94 0 0 1-5.34 1.826 10.57 10.57 0 0 1-.533.013 9.608 9.608 0 0 1-5.445-1.643 12.208 12.208 0 0 1-3.714-4.14 24.21 24.21 0 0 1-2.75-11.766Zm22.26 36.186a14.691 14.691 0 0 1-2.41-5.702 1.725 1.725 0 0 1 1.462-1.967c4.14-.526 8.31-.787 12.482-.781 4.49-.038 8.973.346 13.39 1.147a1.723 1.723 0 0 1 1.36 2.046 13.76 13.76 0 0 1-1.385 3.513 14.06 14.06 0 0 1-5.789 5.757 15.764 15.764 0 0 1-7.41 1.695c-2.57.055-5.11-.556-7.373-1.771a12.987 12.987 0 0 1-4.328-3.937Zm38.884-20.476a9.938 9.938 0 0 1-5.34 1.826 10.58 10.58 0 0 1-.532.013 9.61 9.61 0 0 1-5.445-1.643 12.21 12.21 0 0 1-3.714-4.14 24.209 24.209 0 0 1-2.751-11.766 28.18 28.18 0 0 1 1.541-9.361 15.434 15.434 0 0 1 4.855-7.173 9.72 9.72 0 0 1 5.336-2.022 8.711 8.711 0 0 1 5.892 1.789 13.221 13.221 0 0 1 3.612 4.41 27.035 27.035 0 0 1 2.782 12.369 26.59 26.59 0 0 1-1.45 8.933 13.896 13.896 0 0 1-4.786 6.765Zm19.062 21.002c-.326.304-.661.604-1.005.899l.001-.001-.002.002v-.001a36.596 36.596 0 0 1-5.099 3.654l-.001.001c-.389.232-.787.461-1.194.686a1.718 1.718 0 0 1-1.312.147 1.73 1.73 0 0 1-1.032-.823 1.718 1.718 0 0 1-.147-1.312 1.714 1.714 0 0 1 .823-1.032c.371-.205.736-.415 1.094-.628a33.232 33.232 0 0 0 4.621-3.31l.001-.001c.308-.264.607-.532.899-.804a1.726 1.726 0 0 1 2.353 2.524v-.001Z"/><path fill="#000" d="M188.051 66.22c1.22-12.911 3.211-36.197 3.645-42.794.019-.304.029-.598.029-.885a9.33 9.33 0 0 0-.459-3.034 6.087 6.087 0 0 0-2.296-3.1 6.941 6.941 0 0 0-3.21-1.14 8.071 8.071 0 0 0-.887-.049 6.45 6.45 0 0 0-6.092 3.807 9.288 9.288 0 0 0-.782 3.027c-.405 4.193-1.51 17.437-2.516 29.658-.315 3.823-.619 7.544-.89 10.853-.195-.743-.388-1.486-.607-2.216-3.668-12.304-10.74-22.942-22.64-30.37-11.896-7.435-28.487-11.674-51.214-11.675-15.156 0-27.572 1.885-37.7 5.344A60.77 60.77 0 0 0 43.367 33.95 51.773 51.773 0 0 0 27.27 57.306a67.523 67.523 0 0 0-1.798 6.043c-.286-3.5-.614-7.51-.954-11.64C23.51 39.49 22.406 26.246 22 22.053a9.256 9.256 0 0 0-.782-3.027 6.433 6.433 0 0 0-2.66-2.94 6.928 6.928 0 0 0-3.432-.867c-.297 0-.593.017-.888.05a7.446 7.446 0 0 0-2.17.562 5.928 5.928 0 0 0-2.762 2.428 8.278 8.278 0 0 0-1.032 4.283c0 .287.01.582.03.885.433 6.597 2.424 29.883 3.644 42.794.173 3.209.924 6.36 2.218 9.302a9.51 9.51 0 0 0 1.77 2.524l.012.01a8.395 8.395 0 0 0-1.936 2.124 11.515 11.515 0 0 0-1.324 3.978 32.285 32.285 0 0 0-.424 5.488c.004 1.866.116 3.73.335 5.583a41.113 41.113 0 0 0 2.096 9.188c.404 1.133.9 2.231 1.486 3.281a8.49 8.49 0 0 0 1.764 2.27 9.931 9.931 0 0 0 2.695 1.57 19.13 19.13 0 0 0 3.89 1.065c.86.146 1.502.208 1.751.228.014.045.025.091.039.136a52.226 52.226 0 0 0 8.3 16.373c5.606 7.335 13.54 13.229 24.276 17.243 8.35 3.125 18.4 5.128 30.43 5.867v2.702c-2.191.116-4.296.254-6.25.415-2.725.225-5.163.49-7.177.796-1.008.153-1.91.317-2.698.494-.697.147-1.382.348-2.048.6a5.014 5.014 0 0 0-1.86 1.391 10.85 10.85 0 0 0-1.27 1.849 6.613 6.613 0 0 0-.638-.712 6.977 6.977 0 0 0-4.821-1.914 18.763 18.763 0 0 0-13.154 5.944c-4.178 4.21-7.646 10.845-9.203 20.585a1.727 1.727 0 0 0 1.43 1.976 1.725 1.725 0 0 0 1.976-1.43c1.476-9.205 4.681-15.108 8.245-18.701a15.33 15.33 0 0 1 10.706-4.924 3.53 3.53 0 0 1 2.44.961 3.135 3.135 0 0 1 .99 2.284c-.001.228-.024.455-.07.679a1.716 1.716 0 0 0-.028.393c-.017.052-.034.1-.05.152a9.709 9.709 0 0 0-3.58 4.343 13.378 13.378 0 0 0-.99 5.212 16.12 16.12 0 0 0 .465 3.858c.123.501.282.993.477 1.471.079.182.158.351.246.517a189.94 189.94 0 0 0-.502 3.432 1.724 1.724 0 0 0 3.2 1.103c.113-.195.188-.412.219-.636a119.669 119.669 0 0 1 3.486-17.397 29.76 29.76 0 0 1 2.068-5.335c.262-.511.58-.991.948-1.432.15-.193.338-.352.554-.466a10.46 10.46 0 0 1 1.522-.437 87.684 87.684 0 0 1 11.456-1.375l.099-.006a26.194 26.194 0 0 0 15.368 4.756 31.454 31.454 0 0 0 9.278-1.418 21.671 21.671 0 0 0 6.461-3.108c.1-.082.191-.175.27-.278.985.067 1.951.136 2.871.212 2.669.219 5.043.479 6.942.768.948.144 1.778.296 2.458.449.517.107 1.026.253 1.522.437.214.113.401.271.55.463a11.595 11.595 0 0 1 1.717 3.06 55.246 55.246 0 0 1 2.618 8.781c.811 3.58 1.538 7.718 2.148 12.159a1.725 1.725 0 0 0 3.418-.469c-.145-1.057-.299-2.09-.457-3.111a6.28 6.28 0 0 0 .329-.669c.301-.753.523-1.535.664-2.333.184-.988.277-1.991.277-2.996a13.393 13.393 0 0 0-.989-5.212 9.701 9.701 0 0 0-3.722-4.438l-.008-.025a1.73 1.73 0 0 0-.026-.425 3.372 3.372 0 0 1-.069-.679 3.119 3.119 0 0 1 .989-2.284 3.53 3.53 0 0 1 2.44-.961c2.996-.002 6.984 1.329 10.592 4.931 3.608 3.6 6.885 9.499 8.359 18.694a1.722 1.722 0 0 0 1.976 1.43 1.727 1.727 0 0 0 1.431-1.976c-1.558-9.75-5.115-16.389-9.33-20.591-4.214-4.201-9.038-5.936-13.028-5.938a6.975 6.975 0 0 0-4.82 1.914 6.71 6.71 0 0 0-.647.722 10.732 10.732 0 0 0-1.275-1.867 5.007 5.007 0 0 0-1.853-1.383 13.887 13.887 0 0 0-2.048-.6 90.359 90.359 0 0 0-11.969-1.45 240.292 240.292 0 0 0-4.976-.297v-2.795a108.637 108.637 0 0 0 24.708-4.461 61.375 61.375 0 0 0 19.063-9.626 48.695 48.695 0 0 0 16.195-22.312c.39-1.058.751-2.131 1.082-3.221.251.112.525.162.799.145a21.727 21.727 0 0 0 3.045-.47 17.586 17.586 0 0 0 2.712-.832 9.934 9.934 0 0 0 2.695-1.57 8.5 8.5 0 0 0 1.765-2.269 25.22 25.22 0 0 0 2.142-5.281 43.55 43.55 0 0 0 1.44-7.189c.218-1.853.33-3.716.334-5.582a32.242 32.242 0 0 0-.423-5.489 11.534 11.534 0 0 0-1.324-3.978 9.109 9.109 0 0 0-2.765-2.729l-.024-.014a10.937 10.937 0 0 0 2.136-3.715 30.63 30.63 0 0 0 1.495-7.502Zm-172.668-.325C14.168 53.03 12.173 29.7 11.747 23.2a9.875 9.875 0 0 1-.022-.659 5.92 5.92 0 0 1 .273-1.916 2.609 2.609 0 0 1 .992-1.379 3.52 3.52 0 0 1 1.628-.55 4.63 4.63 0 0 1 .509-.028 3.24 3.24 0 0 1 2.19.747c.33.297.593.66.773 1.065.266.603.427 1.247.477 1.904.4 4.132 1.506 17.4 2.512 29.609a19186.769 19186.769 0 0 1 1.753 21.45l.12 1.476c-1.02.243-2.022.553-3 .93-.26.1-.525.21-.794.326a3.198 3.198 0 0 1-.788-.576 7.711 7.711 0 0 1-1.678-2.96 28.665 28.665 0 0 1-1.309-6.744Zm8.597 43.079a13.753 13.753 0 0 1-2.107-.66 6.474 6.474 0 0 1-1.696-.978 5.34 5.34 0 0 1-1-1.35 21.924 21.924 0 0 1-1.828-4.543 40.05 40.05 0 0 1-1.322-6.614 45.053 45.053 0 0 1-.312-5.183 28.92 28.92 0 0 1 .372-4.892 8.463 8.463 0 0 1 .86-2.758 5.716 5.716 0 0 1 1.735-1.668 15.149 15.149 0 0 1 3.738-1.687c.26-.081.499-.149.72-.21a120.282 120.282 0 0 0-.296 8.422 93.264 93.264 0 0 0 2.449 22.378c-.39-.063-.837-.145-1.313-.257Zm146.669 2.967a48.762 48.762 0 0 1-7.746 15.303c-5.199 6.789-12.519 12.274-22.745 16.108-10.224 3.83-23.356 5.975-40.026 5.974-14.817 0-26.841-1.694-36.51-4.76a57.973 57.973 0 0 1-18.003-9.074 45.228 45.228 0 0 1-15.06-20.771c-3.03-8.205-4.266-17.624-4.265-27.868a89.331 89.331 0 0 1 3.29-25.517c3.508-11.681 10.017-21.45 21.164-28.434 11.15-6.976 27.071-11.151 49.384-11.15 14.871 0 26.914 1.854 36.584 5.159a57.314 57.314 0 0 1 17.997 9.71 48.306 48.306 0 0 1 15.03 21.835c3.013 8.515 4.228 18.151 4.227 28.397a84.656 84.656 0 0 1-3.32 25.088h-.001Zm14.486-27.186c.262 1.617.386 3.254.372 4.892a45.325 45.325 0 0 1-.312 5.182 37.727 37.727 0 0 1-1.91 8.404c-.337.95-.752 1.871-1.24 2.753-.261.5-.598.956-1.001 1.35a6.592 6.592 0 0 1-1.761 1.005 15.786 15.786 0 0 1-3.172.861c-.46.078-.85.128-1.12.158l-.044.004a93.102 93.102 0 0 0 2.473-22.511c0-2.932-.106-5.819-.318-8.662 1.024.223 2.028.526 3.004.906.865.33 1.693.75 2.469 1.254a5.674 5.674 0 0 1 1.7 1.644 8.5 8.5 0 0 1 .86 2.76Zm-2.377-10.928a5.597 5.597 0 0 1-1.097 1.525c-.174.164-.364.31-.568.435a24.55 24.55 0 0 0-1.265-.44 21.3 21.3 0 0 0-2.35-.6 1.715 1.715 0 0 0-.414-.018l.104-1.286c.703-8.661 3.565-43.814 4.265-51.06.05-.656.211-1.3.477-1.903a2.964 2.964 0 0 1 1.234-1.394 3.492 3.492 0 0 1 1.729-.418c.17 0 .34.01.509.028.402.04.795.139 1.167.295.494.205.907.566 1.177 1.028.406.776.596 1.647.549 2.522 0 .208-.007.427-.022.66-.426 6.498-2.42 29.828-3.636 42.694a22.237 22.237 0 0 1-1.859 7.932Z"/></svg>