<svg xmlns="http://www.w3.org/2000/svg" width="200" height="200" fill="none"><path fill="#FFE632" d="M99.2 95.164h.01-.01Z"/><path fill="#BEBEC9" d="M154.742 159.788c-1.921.279-3.74.403-5.456.403-6.733-.001-11.898-1.9-15.39-3.79a27.097 27.097 0 0 1-3.944-2.588 17.974 17.974 0 0 1-1.215-1.056l-.052-.052-.009-.009-.001-.001a1.305 1.305 0 0 0-1.393-.316c-.279.107-.702.18-1.183.179a6.43 6.43 0 0 1-2.607-.582 3.907 3.907 0 0 1-.955-.613c-.239-.217-.376-.424-.439-.595-.115-.3-.18-.672-.179-1.077a4.433 4.433 0 0 1 .542-2.092c.343-.62.802-1.038 1.248-1.202.323-.122.649-.178.972-.178a2.778 2.778 0 0 1 1.773.643 1.3 1.3 0 1 0 1.664-1.997v-.001a5.376 5.376 0 0 0-2.17-1.073l.125-2.506h.319c2.028-.003 12.444-.084 21.36-1.945a1.3 1.3 0 0 0-.533-2.545c-8.55 1.793-18.891 1.893-20.827 1.89h-.19l1.492-29.969a1.304 1.304 0 0 0-.412-1.015l-5.995-5.595a1.3 1.3 0 0 0-1.773 1.901l5.553 5.183-1.701 34.156-16.73.001a1.3 1.3 0 1 0 0 2.6h1.243a4.984 4.984 0 0 0-.061.714 5.845 5.845 0 0 0 1.406 3.748 5.467 5.467 0 0 0 1.871 1.409c.759.349 1.643.545 2.618.544l.193-.003c.008 0 .014-.004.021-.005a4.648 4.648 0 0 0 1.669 1.393c.943.467 1.989.667 3.021.669a7.138 7.138 0 0 0 2.488-.433c.124-.047.223-.125.322-.201a7.663 7.663 0 0 0 1.854.905 9.023 9.023 0 0 0 2.818.471 6.734 6.734 0 0 0 1.274-.122c.838.754 2.601 2.196 5.284 3.651 3.792 2.056 9.4 4.105 16.629 4.104a40.53 40.53 0 0 0 5.83-.43 1.3 1.3 0 0 0-.374-2.573Zm-43.89-11.561a3.252 3.252 0 0 1-.434-1.566c-.004-.357.091-.621.136-.682.007-.01.007-.022.013-.032l3.409-.001c-.02.035-.046.066-.065.101a6.999 6.999 0 0 0-.869 3.355c0 .098.019.197.024.295a3.468 3.468 0 0 1-.887-.242 2.924 2.924 0 0 1-1.327-1.228Zm5.906 3.193c-.503-.256-.794-.564-.938-.94a3.088 3.088 0 0 1-.179-1.078 4.445 4.445 0 0 1 .542-2.092c.343-.62.803-1.038 1.249-1.202.099-.037.174-.104.258-.162h2.752c-.085.13-.179.256-.254.39a7.01 7.01 0 0 0-.869 3.355 5.642 5.642 0 0 0 .347 1.997 4.707 4.707 0 0 1-1.049.128c-.682.002-1.364-.145-1.859-.396Z"/><path fill="#BEBEC9" d="M190.702 79.693c-3.326-1.078-8.044-2.038-13.595-2.742-5.549-.702-11.92-1.141-18.492-1.141-3.148 0-6.34.108-9.511.33a816.34 816.34 0 0 0-1.148-6.801c9.793-1.74 19.225-2.403 26.452-2.401 4.553-.002 8.243.263 10.527.659a1.3 1.3 0 0 0 .443-2.562c-2.534-.436-6.311-.696-10.97-.697-7.378.001-16.938.668-26.901 2.44-4.909-27.769-9.807-46.777-9.813-46.802-.006-.025-.025-.043-.033-.067-.025-.082-.069-.154-.111-.23-.044-.078-.084-.155-.141-.22-.016-.02-.022-.044-.039-.062-.04-.041-.092-.058-.135-.093a1.273 1.273 0 0 0-.221-.152 1.244 1.244 0 0 0-.231-.082 1.238 1.238 0 0 0-.241-.052 1.27 1.27 0 0 0-.267.015c-.055.006-.109-.006-.164.008-.025.007-.043.025-.067.033-.082.026-.154.069-.231.112-.078.043-.154.083-.22.14-.019.017-.043.022-.061.04-.007.006-7.952 7.688-19.385 19.374a164.677 164.677 0 0 0-5.739-.092c-11.808 0-26.22.933-29.433 1.151L64.1 19.713c-.036-.042-.085-.062-.124-.099a1.29 1.29 0 0 0-.772-.572 1.3 1.3 0 0 0-1.583.935c-.006.025-4.88 18.936-9.777 46.59-10.016-1.76-19.564-2.444-26.822-2.445-4.245 0-7.697.23-10.072.64a1.3 1.3 0 1 0 .443 2.562c2.124-.37 5.487-.604 9.63-.603 7.098 0 16.52.677 26.372 2.406a766.2 766.2 0 0 0-1.055 6.228 128 128 0 0 0-6.06-.147c-7.002 0-13.855.539-19.822 1.332-5.97.794-11.043 1.838-14.528 2.873a1.3 1.3 0 1 0 .741 2.493c3.288-.98 8.27-2.011 14.13-2.79 5.861-.778 12.61-1.308 19.479-1.308 1.876 0 3.76.044 5.638.129-.432 2.673-.86 5.403-1.28 8.188-4.48.663-9.01 1.516-13.248 2.468-4.397.989-8.473 2.08-11.847 3.17-1.687.545-3.199 1.09-4.495 1.627-1.297.538-2.374 1.063-3.221 1.6a1.3 1.3 0 0 0 1.396 2.194c.642-.41 1.612-.892 2.82-1.392 4.245-1.762 11.406-3.77 19.221-5.372 2.934-.603 5.965-1.15 8.976-1.61-1.916 13.065-3.626 27.205-4.78 41.689-.277.951-2.162 7.524-4.084 16.511-2.076 9.715-4.195 22.224-4.346 33.514a1.3 1.3 0 1 0 2.6.035c.143-10.996 2.23-23.389 4.289-33.005a271.812 271.812 0 0 1 2.81-11.84 207.112 207.112 0 0 1 1.174-4.303c.058-.204.088-.306.089-.306.026-.091.041-.172.049-.265 1.17-14.749 2.925-29.144 4.886-42.416 4.085-.555 8.07-.934 11.656-1.053a1.3 1.3 0 0 0-.087-2.598c-3.475.116-7.279.472-11.169.981.395-2.606.797-5.162 1.203-7.668 3.808.26 7.558.712 11.113 1.414a1.3 1.3 0 0 0 .503-2.551c-3.607-.712-7.38-1.17-11.196-1.44.333-2.009.668-3.976 1.004-5.91a136.89 136.89 0 0 1 10.942 2.567 1.3 1.3 0 0 0 .701-2.503 140.248 140.248 0 0 0-11.195-2.624 791.943 791.943 0 0 1 2.411-12.994 735.456 735.456 0 0 1 5.147-24.343c.656-2.85 1.192-5.086 1.568-6.627L79.41 41.978c.269.32.672.49 1.088.46.003 0 1.038-.074 2.808-.185 5.308-.335 17.186-1.005 27.103-1.005 2.201 0 4.305.033 6.215.11.366.015.726-.128.982-.39a1246.512 1246.512 0 0 1 14.23-14.33 843.515 843.515 0 0 1 3.887-3.828c1.405 5.73 5.314 22.296 9.229 44.445-3.401.667-6.83 1.462-10.22 2.41a1.299 1.299 0 1 0 .701 2.504c3.299-.924 6.645-1.7 9.968-2.352.369 2.13.738 4.31 1.104 6.532-3.426.314-6.806.77-10.049 1.41a1.3 1.3 0 1 0 .503 2.551c3.198-.63 6.553-1.082 9.963-1.39.352 2.185.7 4.408 1.043 6.666-3.431-.419-6.776-.711-9.861-.815a1.3 1.3 0 0 0-.086 2.6v-.001c3.201.106 6.723.424 10.347.885 1.971 13.316 3.734 27.774 4.91 42.584.009.121.037.244.08.358 3.461 9.116 6.391 21.544 8.437 31.657a429.313 429.313 0 0 1 2.381 12.762 351.104 351.104 0 0 1 .842 5.163 1.3 1.3 0 0 0 2.571-.387c-.002-.014-1.184-7.871-3.246-18.053-2.051-10.124-4.962-22.526-8.488-31.885-1.16-14.542-2.88-28.734-4.805-41.84 4.583.663 9.251 1.538 13.593 2.515 4.332.974 8.343 2.048 11.618 3.106a58.31 58.31 0 0 1 4.299 1.556c1.209.5 2.178.982 2.821 1.392a1.3 1.3 0 0 0 1.396-2.193c-.847-.538-1.925-1.063-3.222-1.6-4.526-1.874-11.756-3.887-19.693-5.518a181.11 181.11 0 0 0-11.211-1.936c-.369-2.449-.745-4.857-1.125-7.22 3.028-.206 6.08-.307 9.093-.307 6.456 0 12.728.433 18.165 1.121 5.434.687 10.045 1.636 13.119 2.635a1.3 1.3 0 0 0 .803-2.472Z"/><path fill="#BEBEC9" d="M81.058 73.017c.326-.21.657-.29.97-.291.397-.006.75.156.872.275a1.3 1.3 0 0 0 1.734-1.938c-.701-.616-1.614-.93-2.606-.937a4.385 4.385 0 0 0-2.377.704c-.761.488-1.428 1.246-1.9 2.243a1.3 1.3 0 1 0 2.349 1.116c.295-.617.634-.961.958-1.172ZM106.335 79.27a1.3 1.3 0 0 0-1.838-.029 2.083 2.083 0 0 1-.6.427 1.04 1.04 0 0 1-.43.094c-.23.002-.514-.083-.839-.278-.485-.287-.998-.812-1.354-1.265a7.982 7.982 0 0 1-.419-.575l-.106-.166-.024-.038-.002-.004-.002-.003a1.298 1.298 0 0 0-2.393.376c-.115.543-.388 1.327-.749 1.854a2.08 2.08 0 0 1-.535.571.822.822 0 0 1-.482.155c-.159 0-.387-.04-.719-.203-.33-.162-.753-.452-1.25-.918a1.3 1.3 0 1 0-1.778 1.897c.639.597 1.254 1.043 1.875 1.352.619.307 1.253.473 1.872.472a3.437 3.437 0 0 0 1.932-.596c.692-.471 1.154-1.093 1.505-1.72.365.365.78.731 1.288 1.038.602.362 1.337.65 2.18.651.484.001.992-.1 1.475-.313.484-.213.941-.53 1.365-.942a1.3 1.3 0 0 0 .028-1.838ZM117.958 73.013c.153.103.279.21.359.286l.086.084.014.015.001-.002a1.299 1.299 0 0 0 1.953-1.713c-.05-.056-.376-.429-.953-.822-.573-.386-1.425-.818-2.516-.823-.845-.006-1.791.297-2.633.96a1.3 1.3 0 1 0 1.598 2.052c.453-.345.755-.406 1.035-.412.355-.005.747.162 1.056.375ZM92.982 143.347H76.625l-2.093-32.298 17.856-.19a1.299 1.299 0 1 0-.027-2.599l-17.176.181 3.802-3.603a1.3 1.3 0 0 0-1.788-1.887l-5.02 4.757a1.3 1.3 0 0 0-.403 1.027l1.944 29.98c-.054-.006-.102-.031-.157-.03h-.328c-1.936.003-12.276-.097-20.826-1.89a1.3 1.3 0 1 0-.532 2.545c8.915 1.861 19.33 1.942 21.358 1.945l.344-.001c.108 0 .203-.038.303-.063l.16 2.478a5.37 5.37 0 0 0-2.532 1.165 1.3 1.3 0 1 0 1.664 1.998 2.778 2.778 0 0 1 1.773-.643c.322 0 .648.056.972.178.446.163.905.582 1.248 1.202.343.612.545 1.394.542 2.092 0 .404-.065.777-.179 1.079-.063.169-.2.376-.438.592-.354.325-.925.645-1.573.86a6.433 6.433 0 0 1-1.99.336c-.481.001-.905-.073-1.182-.179a1.304 1.304 0 0 0-1.393.316c-.047.049-1.9 1.934-5.386 3.794-3.49 1.861-8.599 3.701-15.227 3.702-1.716 0-3.534-.124-5.455-.403a1.3 1.3 0 1 0-.374 2.573c2.044.297 3.988.43 5.83.43 7.228.001 12.837-2.048 16.629-4.104 2.684-1.455 4.446-2.897 5.284-3.651.416.081.841.121 1.274.122a8.98 8.98 0 0 0 3.712-.829 7.07 7.07 0 0 0 .955-.55c.1.078.201.157.327.204a7.16 7.16 0 0 0 2.488.433c1.031-.002 2.077-.202 3.02-.669a4.634 4.634 0 0 0 1.67-1.393c.007.001.014.005.022.005l.192.002c.974.001 1.859-.194 2.617-.543a5.532 5.532 0 0 0 2.5-2.298 5.83 5.83 0 0 0 .776-2.858 5.026 5.026 0 0 0-.06-.716h1.234a1.3 1.3 0 1 0 0-2.599Zm-9.174 7.134c-.143.375-.435.683-.938.939-.495.251-1.177.398-1.86.396a4.7 4.7 0 0 1-1.048-.128l.002-.003c.241-.644.344-1.32.345-1.994a7.015 7.015 0 0 0-.869-3.355c-.075-.134-.169-.26-.254-.39h2.752c.084.058.16.125.259.162.445.163.905.582 1.248 1.202.342.611.544 1.394.541 2.092 0 .404-.064.777-.178 1.079Zm5.263-4.505c.047.064.142.329.138.686.005.62-.253 1.455-.776 2.051a2.868 2.868 0 0 1-.985.742c-.251.114-.554.19-.886.242.005-.098.024-.196.024-.295a7.015 7.015 0 0 0-.868-3.355c-.02-.034-.046-.066-.066-.101h3.408c.006.01.005.021.011.03ZM105.918 109.459a1.3 1.3 0 0 0 1.314 1.285l12.594-.137a1.3 1.3 0 0 0-.029-2.6l-12.593.138a1.3 1.3 0 0 0-1.286 1.314Z"/><path fill="#FFE632" d="M121.768 93.37c-.273-1.97-1.053-3.565-2.261-4.636-1.204-1.075-2.767-1.56-4.371-1.555-2.273.006-4.69.903-6.984 2.465-2.139 1.462-4.165 3.53-5.805 6.103-.803-.395-1.753-.587-2.867-.587-.086 0-.177 0-.272.004-.892.023-1.688.18-2.385.483-.099.042-.183.103-.277.151-1.353-2.427-3.11-4.32-5.022-5.633-2.08-1.427-4.335-2.189-6.47-2.192-1.639-.001-3.224.465-4.49 1.468-1.268.998-2.162 2.515-2.507 4.38-.492 2.62-1.33 7.611-1.332 7.615v.005a2.334 2.334 0 0 0 .243 1.754c.36.608.888.962 1.425 1.217.817.378 1.753.57 2.808.7 1.052.127 2.216.174 3.42.174 2.828-.001 5.882-.265 7.976-.49l-.95 3.515a1.28 1.28 0 0 0-.045.36l.598 36.073a1.3 1.3 0 0 0 1.3 1.278h12.607c.71 0 1.291-.574 1.3-1.283l.459-36.073a1.244 1.244 0 0 0-.061-.41l-1.207-3.801c2.067.071 4.271.145 6.348.145 2.135-.001 4.131-.076 5.77-.33.822-.13 1.556-.301 2.21-.568.327-.136.636-.296.924-.51a2.72 2.72 0 0 0 .759-.836c.037-.064.042-.135.066-.202.135-.238.216-.51.177-.802-.001-.002-.818-6.098-1.084-7.981Zm-12.149-1.58c1.961-1.345 3.957-2.018 5.517-2.011 1.114.005 1.977.31 2.643.898.662.592 1.196 1.534 1.415 3.057.076.541.2 1.45.338 2.458-.321-.159-.646-.305-.971-.437-.887-.36-1.838-.514-2.812-.514-1.921.005-3.95.576-6.092 1.465-1.605.67-3.274 1.525-4.986 2.497a5.703 5.703 0 0 0-.181-.903 4.216 4.216 0 0 0-.257-.675c1.502-2.51 3.426-4.496 5.386-5.834Zm-14.351 13.09c.136.046.28.071.43.07l7.217-.064c.378-.003.711-.182.949-.45l1.18 3.715-10.688.1.912-3.371Zm2.594-6.85c.329-.143.785-.251 1.414-.267h.011l.193-.003c.665 0 1.153.087 1.492.207.508.192.699.392.876.698.169.307.275.792.274 1.421.002.644-.112 1.413-.27 2.209l-5.092.045c-.096-.572-.165-1.134-.165-1.644-.002-.969.207-1.704.552-2.129.176-.219.387-.391.715-.537Zm-17.25-3.728c.26-1.355.826-2.231 1.566-2.823.743-.586 1.715-.904 2.876-.906 1.502-.003 3.292.56 4.998 1.734 1.706 1.173 3.327 2.945 4.527 5.314.016.03.044.049.062.078-.021.042-.052.08-.072.123a5.435 5.435 0 0 0-.31.85 13.563 13.563 0 0 0-3.616-1.54c-1.623-.43-3.265-.56-4.948-.56-.675 0-1.358.021-2.052.054a7.75 7.75 0 0 0-3.641 1.082c.212-1.22.435-2.474.61-3.406Zm-.35 8.012c-.463-.111-.79-.256-.942-.355.168-.282.497-.77.996-1.247.764-.724 1.844-1.41 3.448-1.49.668-.03 1.31-.05 1.931-.05 1.55 0 2.957.122 4.284.473 1.327.352 2.584.926 3.874 1.884.057.042.124.055.185.087.011.131.028.261.043.391-1.654.208-5.839.681-9.46.679-1.723.003-3.326-.114-4.36-.372Zm14.516 41.108-.54-32.57 11.001-.103-.416 32.673H94.778Zm22.172-41.561c-1.175.1-2.548.139-4.004.139-2.457 0-5.144-.108-7.587-.188 1.865-1.081 3.656-2.022 5.298-2.706 1.957-.819 3.709-1.27 5.092-1.265.704 0 1.309.11 1.836.323.748.301 1.313.593 1.696.93.372.335.632.7.831 1.391l.091.681a2.54 2.54 0 0 1-.487.214c-.612.212-1.594.383-2.766.481Z"/></svg>