<svg xmlns="http://www.w3.org/2000/svg" width="200" height="200" fill="none"><path fill="#FFD93A" d="m94.031 104.006-1.241 5.301.79 34.85 12.632-.338.112-34.512-1.466-6.09s12.068 0 14.887-.789c2.819-.79 2.03-8.008.564-10.376-6.635-10.719-17.255 5.751-17.255 5.751-4.399-2.932-7.332.113-7.332.113-5.977-11.504-15.112-9.473-16.465-4.06 0 0-2.369 6.09-1.354 8.91 1.015 2.819 16.128 1.24 16.128 1.24Z"/><path fill="#191C22" d="M82.03 70.125a4.385 4.385 0 0 0-2.376.704c-.762.488-1.429 1.246-1.9 2.243a1.3 1.3 0 1 0 2.347 1.116c.296-.617.634-.961.96-1.172.325-.21.656-.29.97-.291.396-.006.75.156.871.275a1.3 1.3 0 0 0 1.734-1.938c-.7-.616-1.614-.93-2.605-.937ZM104.499 79.241a2.087 2.087 0 0 1-.6.427 1.042 1.042 0 0 1-.43.095c-.23 0-.514-.083-.839-.28-.485-.286-.998-.811-1.354-1.264a8.304 8.304 0 0 1-.419-.575l-.106-.166-.023-.038-.004-.007h-.001a1.298 1.298 0 0 0-2.393.376c-.115.543-.388 1.327-.749 1.854-.177.265-.369.462-.535.572a.821.821 0 0 1-.482.154c-.159 0-.387-.04-.718-.203-.33-.162-.754-.452-1.25-.918a1.3 1.3 0 1 0-1.779 1.897c.638.597 1.254 1.043 1.875 1.352.62.307 1.253.473 1.872.472a3.436 3.436 0 0 0 1.932-.596c.692-.471 1.154-1.094 1.505-1.72.366.365.78.731 1.288 1.038.602.363 1.338.65 2.18.651.484.002.992-.1 1.476-.313s.941-.531 1.364-.942a1.3 1.3 0 0 0-1.81-1.866ZM120.373 71.682c-.05-.056-.376-.428-.952-.822-.573-.386-1.426-.818-2.516-.823-.846-.006-1.792.296-2.634.96a1.3 1.3 0 0 0 1.598 2.052c.453-.344.755-.406 1.036-.412.354-.005.746.162 1.055.375.153.103.279.21.359.286l.086.084.014.015.001-.002a1.299 1.299 0 0 0 1.953-1.713ZM109.224 150.408a5.48 5.48 0 0 0 1.871 1.409c.759.349 1.643.544 2.617.543l.2-.002c.006 0 .011-.004.017-.004a4.642 4.642 0 0 0 1.668 1.392c.943.467 1.989.667 3.021.669a7.165 7.165 0 0 0 2.488-.433c.123-.047.222-.125.322-.201a7.646 7.646 0 0 0 1.854.905 9.021 9.021 0 0 0 2.817.471 6.745 6.745 0 0 0 1.275-.122c.837.754 2.6 2.196 5.283 3.651 3.792 2.056 9.4 4.105 16.63 4.104 1.84 0 3.785-.133 5.829-.43a1.3 1.3 0 1 0-.374-2.573c-1.921.279-3.74.403-5.455.403-6.734-.001-11.899-1.9-15.391-3.79a27.153 27.153 0 0 1-3.944-2.588 18.374 18.374 0 0 1-.98-.834c-.107-.098-.185-.174-.235-.222l-.052-.052-.009-.009-.001-.001a1.304 1.304 0 0 0-1.393-.316c-.278.107-.701.18-1.183.179a6.433 6.433 0 0 1-2.607-.582 3.907 3.907 0 0 1-.955-.613c-.238-.217-.375-.424-.439-.595a3.082 3.082 0 0 1-.179-1.077 4.445 4.445 0 0 1 .542-2.092c.343-.619.803-1.038 1.248-1.201l.003-.001c.321-.121.647-.177.971-.178.646 0 1.279.232 1.772.643a1.299 1.299 0 0 0 1.664-1.997v-.001a5.368 5.368 0 0 0-2.171-1.073l.125-2.507.325.001c2.04-.003 12.446-.085 21.354-1.945a1.3 1.3 0 0 0-.532-2.545h-.001c-8.542 1.792-18.873 1.893-20.821 1.89h-.196l1.492-29.969a1.307 1.307 0 0 0-.411-1.015l-5.32-4.965c.581-.193.973-.754.888-1.382l-.174-1.3c-.007-.064.005-.127-.012-.19-.006-.025-.017-.046-.023-.07-.261-1.938-.695-5.146-.875-6.422-.273-1.97-1.053-3.565-2.26-4.637-1.204-1.075-2.767-1.56-4.372-1.555-2.272.006-4.689.903-6.983 2.465-2.138 1.462-4.165 3.53-5.805 6.102-.803-.394-1.753-.587-2.868-.587-.088 0-.179.001-.271.005-.892.022-1.688.18-2.385.483-.1.042-.183.102-.277.15-1.353-2.426-3.11-4.32-5.022-5.633-2.079-1.427-4.335-2.188-6.47-2.19-1.639-.003-3.224.464-4.49 1.466-1.268.999-2.162 2.516-2.507 4.382-.492 2.618-1.33 7.609-1.332 7.614v.005a2.568 2.568 0 0 0-.073.577c-.002.405.113.818.309 1.158l-4.781 4.531c-.28.265-.429.643-.404 1.027l1.944 29.98c-.055-.006-.103-.031-.16-.03h-.33c-1.948.003-12.279-.098-20.822-1.89a1.3 1.3 0 1 0-.532 2.545c8.908 1.86 19.314 1.942 21.354 1.945l.352-.001c.106-.001.2-.038.3-.063l.16 2.478a5.38 5.38 0 0 0-2.532 1.165 1.3 1.3 0 1 0 1.664 1.998 2.78 2.78 0 0 1 1.771-.643c.324.001.65.057.973.179.447.163.906.581 1.25 1.201.342.612.544 1.394.54 2.092.001.404-.064.777-.177 1.078-.064.17-.2.377-.44.594-.352.324-.924.644-1.572.859a6.432 6.432 0 0 1-1.99.336c-.481.001-.905-.073-1.182-.178a1.301 1.301 0 0 0-1.393.315l-.001.001c-.052.053-1.904 1.935-5.386 3.793-3.488 1.861-8.597 3.701-15.226 3.702a37.92 37.92 0 0 1-5.455-.403 1.3 1.3 0 1 0-.374 2.573c2.044.297 3.989.43 5.83.43 7.229.001 12.837-2.048 16.629-4.104 2.684-1.455 4.446-2.897 5.284-3.651.416.081.841.121 1.274.122a8.98 8.98 0 0 0 3.712-.829c.334-.157.65-.344.955-.55.1.078.2.157.326.204a7.138 7.138 0 0 0 2.488.433c1.032-.002 2.078-.202 3.021-.669a4.634 4.634 0 0 0 1.669-1.392c.006.001.01.004.017.004l.2.002c.974.001 1.858-.194 2.616-.543a5.525 5.525 0 0 0 2.499-2.299c.527-.926.774-1.92.776-2.858a4.984 4.984 0 0 0-.06-.714h16.132a4.984 4.984 0 0 0-.061.714 5.85 5.85 0 0 0 1.405 3.748Zm1.629-2.182a3.252 3.252 0 0 1-.434-1.566c-.004-.357.091-.622.136-.683.007-.01.006-.021.012-.031h3.409c-.02.035-.046.066-.065.1a7.013 7.013 0 0 0-.869 3.355c0 .099.02.197.024.295a3.471 3.471 0 0 1-.886-.242 2.924 2.924 0 0 1-1.327-1.228Zm5.905 3.193c-.503-.256-.794-.564-.937-.94a3.092 3.092 0 0 1-.179-1.078 4.43 4.43 0 0 1 .542-2.092c.343-.62.803-1.038 1.248-1.202.099-.037.174-.104.257-.161h2.753c-.085.13-.179.255-.254.389a7.025 7.025 0 0 0-.869 3.355c.001.673.104 1.35.346 1.994l.001.003a4.698 4.698 0 0 1-1.048.128c-.683.002-1.364-.145-1.86-.396Zm6.609-8.073h-15.943l.416-32.623 11.984-.117a1.3 1.3 0 1 0-.026-2.599l-12.035.117-1.165-3.668c2.012.07 4.131.143 6.121.143 2.18-.002 4.197-.083 5.83-.379.337-.062.648-.14.955-.224l5.564 5.193-1.701 34.157Zm-28.589 0-.54-32.49 11.001-.107-.416 32.597H94.778Zm-18.153 0-2.093-32.298 17.107-.167.539 32.465H76.625Zm17.414-41.73c.01.131.027.26.042.39-1.654.208-5.839.681-9.46.68-1.723.003-3.326-.115-4.359-.373-.463-.11-.79-.255-.942-.354.168-.283.497-.771.996-1.248.764-.724 1.844-1.41 3.448-1.489a41.383 41.383 0 0 1 1.928-.05c1.55 0 2.959.121 4.286.472 1.328.352 2.584.926 3.874 1.884.058.043.125.056.187.088Zm26.056-1.255.027.205c-.141.138-.255.3-.323.498l-.003-.003-.121.097c-.152.1-.465.238-.894.351-.644.173-1.541.303-2.58.381-1.04.078-2.227.109-3.482.109-2.36 0-4.957-.107-7.362-.187 1.866-1.081 3.657-2.022 5.3-2.706 1.957-.819 3.709-1.27 5.092-1.265.705 0 1.309.11 1.834.323.752.302 1.326.595 1.716.935.354.314.603.661.796 1.262Zm-17.18 4.525c.378-.004.711-.182.949-.45l1.18 3.715-10.689.104.913-3.376c.136.046.28.071.43.07l7.217-.063Zm-23.928-.049c.048-.045.07-.105.11-.155.639.206 1.34.335 2.104.43 1.052.126 2.216.173 3.42.174 2.828-.002 5.882-.266 7.976-.491l-.942 3.486-16.472.161 3.804-3.605Zm30.632-13.046c1.96-1.346 3.956-2.019 5.516-2.012 1.114.005 1.978.31 2.643.898.663.592 1.196 1.534 1.415 3.057.076.541.2 1.449.338 2.457a15.032 15.032 0 0 0-.97-.436c-.887-.36-1.838-.514-2.812-.514-1.921.005-3.95.576-6.092 1.465-1.605.669-3.274 1.525-4.986 2.496a5.595 5.595 0 0 0-.181-.902 4.217 4.217 0 0 0-.257-.675c1.502-2.51 3.426-4.496 5.386-5.834ZM97.863 98.03c.328-.144.784-.252 1.413-.267l.011-.001.192-.003c.665 0 1.153.087 1.493.208.508.191.699.392.876.697.169.308.276.793.274 1.421.002.645-.111 1.413-.27 2.21l-5.092.045c-.095-.572-.165-1.135-.164-1.645-.003-.968.206-1.704.551-2.128.176-.22.387-.392.716-.537Zm-17.25-3.728c.26-1.354.825-2.231 1.565-2.823.743-.586 1.715-.904 2.876-.906 1.502-.003 3.292.56 4.998 1.734 1.706 1.172 3.326 2.944 4.527 5.313.016.03.044.05.062.078-.021.042-.052.081-.072.124a5.398 5.398 0 0 0-.31.849 13.565 13.565 0 0 0-3.617-1.54c-1.624-.43-3.267-.56-4.95-.56-.675 0-1.357.022-2.05.054a7.749 7.749 0 0 0-3.64 1.083c.212-1.22.435-2.474.61-3.406Zm3.195 56.177c-.143.376-.435.684-.938.94-.496.251-1.177.398-1.86.396a4.754 4.754 0 0 1-1.048-.127l.002-.004c.241-.644.344-1.32.345-1.994a7.015 7.015 0 0 0-.869-3.355c-.075-.134-.168-.259-.253-.389h2.752c.084.057.159.124.258.161.445.163.905.582 1.248 1.202.343.611.544 1.394.541 2.092 0 .404-.064.777-.178 1.078Zm5.264-4.502c.046.061.14.326.136.683.006.621-.252 1.456-.775 2.052a2.87 2.87 0 0 1-.984.742 3.473 3.473 0 0 1-.887.243c.005-.099.024-.197.024-.296a7.014 7.014 0 0 0-.868-3.355c-.02-.034-.046-.065-.066-.1h3.409c.005.01.005.021.011.031Z"/><path fill="#191C22" d="M48.24 88.81c-1.917 13.064-3.627 27.204-4.781 41.689-.277.951-2.162 7.524-4.083 16.51-2.076 9.715-4.195 22.224-4.346 33.514a1.3 1.3 0 1 0 2.6.035c.143-10.996 2.23-23.389 4.288-33.005a272.026 272.026 0 0 1 2.81-11.84 206.29 206.29 0 0 1 1.174-4.303l.089-.306c.026-.091.041-.172.049-.265 1.171-14.749 2.925-29.144 4.886-42.416 4.085-.555 8.07-.934 11.657-1.053a1.3 1.3 0 0 0-.087-2.598c-3.475.116-7.279.472-11.17.981.396-2.605.797-5.162 1.204-7.668 3.808.26 7.558.713 11.113 1.414a1.3 1.3 0 0 0 .503-2.551c-3.607-.711-7.38-1.17-11.196-1.44.333-2.009.668-3.975 1.003-5.908 3.643.703 7.322 1.552 10.943 2.566a1.3 1.3 0 0 0 .701-2.503 140.123 140.123 0 0 0-11.195-2.624 791.764 791.764 0 0 1 2.411-12.995 735.11 735.11 0 0 1 5.147-24.342c.656-2.851 1.192-5.086 1.568-6.627L79.41 41.978c.269.32.672.49 1.088.46.003 0 1.038-.073 2.808-.185 5.307-.335 17.186-1.005 27.103-1.005 2.202 0 4.306.033 6.215.11.367.015.726-.128.982-.39a1256.128 1256.128 0 0 1 14.229-14.33 886.648 886.648 0 0 1 3.888-3.828c1.405 5.73 5.314 22.296 9.229 44.446-3.401.666-6.83 1.46-10.22 2.41a1.3 1.3 0 0 0 .701 2.504c3.299-.925 6.645-1.7 9.968-2.353.369 2.13.738 4.31 1.103 6.532-3.425.315-6.805.771-10.048 1.41a1.3 1.3 0 0 0 .503 2.551c3.198-.63 6.553-1.081 9.964-1.389.351 2.184.699 4.407 1.042 6.665-3.431-.418-6.776-.71-9.86-.814a1.3 1.3 0 1 0-.087 2.598c3.201.106 6.723.424 10.347.885 1.971 13.316 3.734 27.774 4.91 42.584.01.121.037.244.08.358 3.461 9.117 6.391 21.544 8.437 31.658a428.733 428.733 0 0 1 2.381 12.761 351.104 351.104 0 0 1 .842 5.163 1.3 1.3 0 1 0 2.571-.387c-.002-.014-1.183-7.87-3.245-18.053-2.052-10.124-4.963-22.526-8.489-31.885-1.16-14.542-2.88-28.734-4.806-41.84 4.584.663 9.253 1.538 13.594 2.515 4.332.974 8.343 2.048 11.618 3.107a58.1 58.1 0 0 1 4.299 1.555c1.209.5 2.179.982 2.821 1.392a1.3 1.3 0 0 0 1.396-2.193c-.847-.538-1.924-1.062-3.221-1.6-4.527-1.873-11.757-3.887-19.694-5.518a181.11 181.11 0 0 0-11.211-1.935 736.39 736.39 0 0 0-1.125-7.22c3.028-.207 6.079-.308 9.092-.307 6.456 0 12.729.432 18.166 1.12 5.434.688 10.045 1.637 13.119 2.637a1.3 1.3 0 0 0 .803-2.473c-3.326-1.078-8.044-2.038-13.596-2.743-5.548-.702-11.919-1.141-18.492-1.141-3.147 0-6.339.108-9.51.33a817.007 817.007 0 0 0-1.148-6.8c9.793-1.742 19.225-2.403 26.453-2.402 4.552-.001 8.243.263 10.527.659a1.3 1.3 0 1 0 .442-2.562c-2.534-.436-6.311-.696-10.969-.697-7.379.001-16.939.668-26.902 2.44-4.909-27.769-9.807-46.777-9.813-46.802-.006-.025-.025-.043-.032-.067-.026-.082-.07-.155-.113-.232-.043-.077-.083-.153-.14-.218-.016-.02-.022-.044-.039-.062-.04-.041-.092-.058-.135-.093-.072-.057-.14-.111-.222-.152a1.22 1.22 0 0 0-.229-.082 1.25 1.25 0 0 0-.243-.051 1.244 1.244 0 0 0-.264.014c-.056.006-.11-.006-.166.008-.025.007-.043.025-.067.033-.082.026-.154.07-.23.111-.078.044-.155.084-.221.142-.019.016-.043.021-.061.039-.007.006-7.953 7.688-19.385 19.375a164.422 164.422 0 0 0-5.739-.093c-11.808.001-26.22.934-29.433 1.152L64.1 19.712c-.036-.042-.085-.062-.124-.098a1.29 1.29 0 0 0-.772-.573 1.3 1.3 0 0 0-1.583.935c-.006.025-4.88 18.937-9.777 46.59-10.017-1.76-19.565-2.443-26.823-2.445-4.245.002-7.696.23-10.07.64a1.3 1.3 0 1 0 .442 2.562c2.124-.369 5.486-.603 9.628-.602 7.099-.001 16.52.676 26.374 2.406-.353 2.034-.705 4.11-1.055 6.228-2.02-.097-4.044-.147-6.057-.148-7.002 0-13.856.54-19.824 1.332-5.97.795-11.043 1.839-14.53 2.875a1.3 1.3 0 1 0 .742 2.492c3.288-.98 8.27-2.011 14.13-2.79 5.863-.779 12.613-1.309 19.482-1.309 1.875 0 3.758.045 5.634.13-.432 2.672-.86 5.402-1.279 8.187-4.48.664-9.01 1.516-13.248 2.468-4.397.989-8.473 2.08-11.846 3.17-1.688.545-3.2 1.09-4.496 1.627-1.297.539-2.374 1.063-3.221 1.6a1.3 1.3 0 1 0 1.396 2.194c.642-.41 1.612-.892 2.82-1.392 4.245-1.762 11.406-3.77 19.221-5.372 2.934-.602 5.964-1.15 8.975-1.61ZM99.201 95.164h.012-.012Z"/></svg>