<svg xmlns="http://www.w3.org/2000/svg" width="200" height="200" fill="none"><path fill="#191C22" d="M138.328 42.342a6.88 6.88 0 0 0-4.228-1.303 9.852 9.852 0 0 0-5.164 1.505c-.023.014-.043.034-.066.048a148.683 148.683 0 0 0-2.188 6.325 160.868 160.868 0 0 0-1.815 6.05 1.29 1.29 0 0 1-1.497.912c-.035-.006-.069.002-.104-.007a1.297 1.297 0 0 1-.904-1.6c1.59-5.76 3.522-11.42 5.785-16.95 1.207-2.905 2.392-5.759 3.265-8.355a22.53 22.53 0 0 0 1.418-6.726 5.07 5.07 0 0 0-.654-2.76 3.774 3.774 0 0 0-2.2-1.538 5.456 5.456 0 0 0-1.639-.262c-.857.006-1.7.222-2.454.628a9.648 9.648 0 0 0-2.59 2.067c-2.523 2.72-4.944 7.015-6.808 11.158A61.341 61.341 0 0 0 112.8 41.82a1.286 1.286 0 0 1-1.261.99c-.098.01-.196.007-.293-.007a1.3 1.3 0 0 1-.983-1.553 49.252 49.252 0 0 1 1.816-5.816c.229-.617.471-1.25.733-1.902a7.044 7.044 0 0 0-3.844-1.64h-.003a4.989 4.989 0 0 0-.638-.04 7.366 7.366 0 0 0-4.395 1.72 14.076 14.076 0 0 0-3.467 4.005c-.508.845-.89 1.76-1.133 2.715a1.302 1.302 0 0 1-1.558.977c-.021-.005-.036-.02-.057-.026a1.293 1.293 0 0 1-.92-1.531 13.785 13.785 0 0 1 2.165-4.58c.132-.19.251-.384.393-.572a17.36 17.36 0 0 1 1.333-1.538 8.211 8.211 0 0 0-3.4-.738 11.677 11.677 0 0 0-7.801 3.32 20.792 20.792 0 0 0-5.714 10.27 35.354 35.354 0 0 0-1.18 8.905 26.5 26.5 0 0 0 1.136 7.951c-.008.018-.024.028-.032.046-8.51 19.153-13.441 42.643-16.311 64.164a460.62 460.62 0 0 0-3.821 52.277 1.296 1.296 0 0 0 .785 1.212 1.29 1.29 0 0 0 1.42-.261 1.299 1.299 0 0 0 .394-.914c.005-.355.013-.742.02-1.114 6.841 6.929 38.311 7.469 44.679.566.014.243.023.498.037.739a1.301 1.301 0 0 0 2.596-.151c-.344-5.892-.51-12.308-.51-19.013 0-15.127.846-31.726 2.398-47.115 1.551-15.386 3.816-29.573 6.624-39.826.045-.165.057-.338.035-.508a18.614 18.614 0 0 0 5.536-5.193 51.49 51.49 0 0 0 4.2-7.407 27.646 27.646 0 0 1 5.575-7.515 11.49 11.49 0 0 0 2.361-3.116 6.576 6.576 0 0 0 .721-2.91 5.556 5.556 0 0 0-2.108-4.349Z"/></svg>