<svg xmlns="http://www.w3.org/2000/svg" width="200" height="200" fill="none"><path fill="#BEBEC9" d="M83.04 174.821a6.322 6.322 0 0 0-3.027-2.822 1.3 1.3 0 1 0-1.06 2.374c.856.385 1.411.968 1.796 1.677.38.705.558 1.542.556 2.293.001.499-.078.957-.193 1.284-.109.33-.266.503-.274.501-.102.078-.372.274-.74.531-.62.437-1.547 1.072-2.63 1.799a1.287 1.287 0 0 0-1.704-.338l-3.327 2.04a1.299 1.299 0 0 0-.429 1.787c.008.012.02.019.028.03a98.735 98.735 0 0 1-2.37 1.439c-1.2.703-2.268 1.278-2.985 1.591-1.138.502-2.69.726-4.343.723-2.724.003-5.696-.582-7.637-1.07a83.223 83.223 0 0 1-2.266-.633c-3.854-1.115-11.425-3.396-18.465-5.57a964.583 964.583 0 0 1-9.638-3.022 283.671 283.671 0 0 1-3.524-1.152 52.267 52.267 0 0 1-2.096-.739.739.739 0 0 1-.275-.219c-.174-.199-.373-.576-.507-1.062a6.297 6.297 0 0 1-.213-1.668c-.001-.766.128-1.552.36-2.174.23-.629.56-1.065.861-1.264a1.3 1.3 0 0 0-1.464-2.149c-.908.625-1.474 1.541-1.835 2.51-.36.975-.52 2.033-.522 3.077.002 1.085.173 2.152.56 3.101.194.475.446.922.784 1.319.336.394.77.74 1.3.948.558.219 1.457.531 2.652.93 4.171 1.388 11.856 3.776 18.865 5.911 3.504 1.067 6.836 2.07 9.471 2.851 2.642.782 4.557 1.336 5.321 1.527 2.068.515 5.188 1.145 8.268 1.148 1.873-.003 3.74-.228 5.385-.941 1.02-.449 2.333-1.177 3.797-2.048 2.19-1.304 4.69-2.92 6.753-4.294a197.796 197.796 0 0 0 2.672-1.809c.723-.5 1.223-.854 1.477-1.049.587-.461.917-1.064 1.147-1.711a6.583 6.583 0 0 0 .336-2.135 7.512 7.512 0 0 0-.865-3.522Z"/><g fill="#BEBEC9"><path d="M81.302 119.179a8.499 8.499 0 0 0-.308-.313 5.61 5.61 0 0 0-.427-.376c-.16-.118-.313-.242-.627-.363l.001-.003c-.008-.004-.018-.005-.027-.008-.014-.005-.024-.011-.039-.016l-.002.005a1.413 1.413 0 0 0-.432-.075 1.423 1.423 0 0 0-.862.296c-.33.267-.422.49-.513.676-.12.282-.175.532-.219.809a5.912 5.912 0 0 0-.062.879c.006.855.143 1.857.64 2.809a3.69 3.69 0 0 0 1.112 1.295 3.34 3.34 0 0 0 1.828.603h.064v.001l.042-.001v-.007a1.83 1.83 0 0 0 1.01-.333c.413-.298.643-.671.8-1.053.153-.385.227-.797.228-1.231 0-.65-.173-1.357-.573-2.022-.36-.6-.915-1.145-1.634-1.572ZM53.938 119.049c.17-.416.262-.876.263-1.366a3.9 3.9 0 0 0-.487-1.882c-.303-.552-.77-1.061-1.371-1.479a8.845 8.845 0 0 0-.263-.315 5.128 5.128 0 0 0-.392-.406c-.155-.131-.3-.273-.63-.419l.001-.003c-.007-.004-.016-.005-.023-.008l-.03-.014-.001.004c-.152-.06-.332-.1-.502-.099-.222 0-.427.055-.584.127a1.53 1.53 0 0 0-.558.439c-.188.239-.27.43-.35.63a4.855 4.855 0 0 0-.244.95 6.997 6.997 0 0 0-.087 1.107c.005.797.12 1.682.574 2.527.229.419.559.827 1.008 1.137a3.22 3.22 0 0 0 1.589.554l.054.004.09.001a1.87 1.87 0 0 0 1.107-.374c.417-.314.66-.7.836-1.115ZM67.13 130.036c-.31.092-.6.131-.88.131-.45 0-.883-.103-1.305-.285-.63-.27-1.223-.729-1.676-1.203-.451-.462-.77-.97-.837-1.139a1.304 1.304 0 0 0-1.141-.779 1.301 1.301 0 0 0-1.192.68v-.001l-.042.068a3.785 3.785 0 0 1-.824.914c-.433.337-.946.59-1.628.592-.572-.002-1.327-.179-2.338-.834a1.3 1.3 0 0 0-1.418 2.18c1.331.869 2.606 1.256 3.756 1.254a5.054 5.054 0 0 0 2.143-.473 5.574 5.574 0 0 0 1.395-.94 8.388 8.388 0 0 0 1.797 1.551c.902.572 2.028 1.014 3.31 1.015.526 0 1.072-.075 1.621-.239a1.3 1.3 0 0 0-.741-2.492ZM104.63 82.897c-5.67-10.229-11.053-15.676-11.116-15.74a1.304 1.304 0 0 0-1.947.112c-1.135 1.457-1.948 3.358-2.604 5.418-.976 3.087-1.563 6.537-1.917 9.235-.353 2.697-.468 4.637-.47 4.658a1.3 1.3 0 0 0 2.596.154l.01-.143c.048-.725.305-4.127.996-7.882.345-1.877.8-3.842 1.378-5.59.358-1.09.775-2.074 1.222-2.911 1.857 2.13 5.788 7.019 9.837 14.42 4.835 8.836 9.824 21.247 11.668 36.809a67.32 67.32 0 0 0-1.93-.031c-4.82 0-10.363.517-16.199 2.055a1.3 1.3 0 0 0 .663 2.515v-.001c5.582-1.471 10.901-1.969 15.536-1.969.758 0 1.495.015 2.215.04.104 1.121.192 2.258.263 3.411a1.3 1.3 0 1 0 2.595-.158v-.001a108.881 108.881 0 0 0-.241-3.113c4.549.338 8.042 1.075 9.88 1.535a1.3 1.3 0 0 0 .631-2.522c-2.018-.505-5.831-1.303-10.785-1.636-1.881-16.433-7.191-29.486-12.281-38.665ZM84.295 96.625c-2.633-1.73-5.699-2.898-5.743-2.919a1.3 1.3 0 1 0-.933 2.427l.05.02c.272.107 1.602.643 3.096 1.422 1.49.769 3.154 1.82 4.012 2.771a1.3 1.3 0 0 0 1.916-1.757c-.68-.74-1.517-1.383-2.398-1.964ZM49.56 95.76v-.001c.944-1.264 2.32-2.158 3.472-2.71.574-.276 1.088-.469 1.45-.59.181-.06.325-.102.419-.129l.103-.028.02-.005a1.3 1.3 0 0 0-.602-2.529c-.063.016-1.13.271-2.518.939-1.385.67-3.11 1.75-4.423 3.492a1.3 1.3 0 1 0 2.08 1.56ZM98.566 130.828a44.07 44.07 0 0 0-1.64.024 1.3 1.3 0 1 0 .103 2.598l.094-.003c.196-.006.696-.019 1.443-.019 2.382 0 7.283.127 12.916.984 5.632.854 11.993 2.449 17.273 5.311a1.3 1.3 0 1 0 1.238-2.286c-5.69-3.077-12.305-4.708-18.12-5.595a91.272 91.272 0 0 0-13.307-1.014Z"/><path d="M177.657 53.55a69.173 69.173 0 0 0-7.976-13.518c6.762-3.477 10.594-9.804 10.597-16.082 0-1.513-.223-3.02-.681-4.474-.921-2.918-2.291-5.301-3.95-7.004-1.653-1.695-3.645-2.739-5.747-2.742-1.214-.003-2.431.363-3.521 1.079-1.186.77-2.038 1.705-2.556 2.74-.522 1.033-.701 2.127-.699 3.18.003 1.497.336 2.946.636 4.35.305 1.4.58 2.753.577 3.978-.002 1.045-.184 1.98-.682 2.887-.465.841-1.232 1.694-2.52 2.543a89.844 89.844 0 0 0-8.805-7.323c-7.27-5.314-16.847-7.99-26.788-7.992-9.494.002-19.34 2.445-27.86 7.478-8.518 5.029-15.707 12.674-19.772 23-2.668 6.779-4.331 13.387-6.032 18.63-.848 2.62-1.708 4.896-2.665 6.656-.958 1.766-2 2.978-3.143 3.627-.846.491-2.234.88-3.719 1.156-1.488.284-3.07.478-4.417.718-.023.004-.04.02-.063.025-4.373-7.148-9.126-12.037-9.166-12.083a1.295 1.295 0 0 0-1.268-.35 1.296 1.296 0 0 0-.925.936c-.002.007-3.806 15.009-5.423 22.286-2.024 9.123-4.254 16.174-6.057 22.165a58.37 58.37 0 0 0-3.847-1.82c-5.116-2.187-11.407-4.011-18.125-4.083a1.3 1.3 0 1 0-.027 2.6c6.26.064 12.242 1.781 17.13 3.874a54.942 54.942 0 0 1 4.116 1.972c-.656 2.244-1.231 4.353-1.687 6.376a56.98 56.98 0 0 0-10.957-1.084c-3.82 0-8.003.404-12.349 1.489a1.3 1.3 0 1 0 .63 2.523c4.112-1.027 8.081-1.412 11.72-1.412 3.963 0 7.528.458 10.446 1.034-.06.345-.125.691-.177 1.033a26.53 26.53 0 0 0-.309 3.964c0 .631.025 1.244.073 1.839-5.348.157-12.015 1.03-17.591 4.041a1.3 1.3 0 1 0 1.239 2.286c5.083-2.768 11.566-3.613 16.745-3.733.64 3.009 1.89 5.476 3.429 7.372a15.77 15.77 0 0 0 4.195 3.64c-3.615 1.632-5.473 4.632-5.468 7.436-.002 1.44.487 2.84 1.473 3.884.98 1.049 2.45 1.678 4.134 1.67l.134-.003c.167.618.443 1.196.842 1.684.662.813 1.618 1.382 2.71 1.598a5.51 5.51 0 0 0 1.089.107 6.072 6.072 0 0 0 2.59-.599c.198-.094.36-.184.506-.27.163.205.337.4.529.576a5.36 5.36 0 0 0 3.637 1.4h.111a4.586 4.586 0 0 0 2.956-1.153 5.362 5.362 0 0 0 1.515-2.266c.325-.943.548-1.961.606-3.014 2.64 2.316 6.112 3.954 9.813 5.078 4.301 1.299 8.921 1.894 12.965 1.896 2.046-.001 3.927-.162 5.578-.467.236.537.556 1.036.992 1.453.965.934 2.353 1.428 3.94 1.423l.17-.003c.167.618.442 1.196.842 1.684.662.813 1.618 1.382 2.71 1.598.377.075.743.107 1.09.107a6.067 6.067 0 0 0 2.589-.6c.112-.053.207-.105.302-.157.158.206.323.407.522.583.951.85 2.286 1.283 3.837 1.28h.112a4.337 4.337 0 0 0 2.656-.943c1.024-.814 1.582-1.874 1.934-2.715.098-.239.175-.455.24-.654 5.43-.184 13.581-1.141 20.82-3.808 3.788-1.401 7.333-3.271 10.087-5.817 2.471-2.278 4.286-5.155 4.932-8.612.684.371 1.468.59 2.31.587 1.113.001 2.285-.367 3.411-1.107.923.686 2.124 1.054 3.516 1.052h.112c1.094-.008 2.041-.469 2.711-1.067 1.014-.904 1.551-2.056 1.897-2.978.139-.378.24-.718.313-.995 1.375-.335 5.626-1.562 10.28-4.88a32.526 32.526 0 0 0 8.234-8.523c2.501-3.767 4.557-8.539 5.615-14.52 1.371-7.758 2.499-16.299 2.499-25.17 0-10.642-1.626-21.77-6.422-32.553Zm-11.724-24.351c.75-1.358 1.007-2.788 1.004-4.142-.002-1.598-.334-3.117-.636-4.527-.307-1.408-.581-2.71-.577-3.801.001-.772.125-1.421.421-2.01.299-.589.78-1.158 1.656-1.734.708-.46 1.392-.652 2.099-.655 1.204-.004 2.572.613 3.887 1.958 1.308 1.337 2.514 3.372 3.33 5.97.376 1.193.561 2.435.561 3.692.003 5.337-3.365 10.97-9.624 13.995a76.687 76.687 0 0 0-5.036-5.614c1.32-.95 2.292-1.999 2.915-3.132ZM53.986 154.544c-.136.402-.415.85-.769 1.156-.36.309-.757.495-1.294.51h-.062a2.763 2.763 0 0 1-1.875-.713c-.468-.435-.726-.986-.727-1.578 0-.23.038-.471.13-.732a1.3 1.3 0 0 0-2.452-.863 4.788 4.788 0 0 0-.278 1.595c0 .165.01.326.027.486-.019.013-.041.017-.06.031l-.001-.002a3.395 3.395 0 0 1-.62.353 3.464 3.464 0 0 1-1.405.317c-.188 0-.38-.018-.58-.057-.541-.111-.93-.36-1.205-.694-.272-.335-.437-.767-.439-1.309 0-.457.124-.997.447-1.592a1.3 1.3 0 0 0-2.285-1.241c-.269.495-.462 1-.589 1.504l-.124.002c-1.076-.008-1.76-.353-2.243-.855-.478-.506-.763-1.233-.764-2.099.004-1.794 1.254-4.121 4.585-5.357.401-.148.88-.218 1.39-.218.882-.002 1.841.213 2.558.439.358.112.658.224.862.306.102.042.18.075.23.098l.055.024.01.004c.036.017.074.014.11.027.832.386 1.663.817 2.504 1.345 1.296.814 2.622 1.821 4.014 3.085.472.487.793.991 1.004 1.521.23.583.334 1.203.334 1.857 0 .859-.185 1.773-.488 2.65Zm125.033-43.725c-1 5.647-2.917 10.062-5.22 13.535-3.454 5.206-7.8 8.306-11.289 10.112a28.578 28.578 0 0 1-4.349 1.824c-.54.174-.968.291-1.256.363-.144.036-.252.061-.322.076l-.076.016-.015.003a1.266 1.266 0 0 0-.62.337c-.413.159-.744.505-.824.973-.009.064-.222 1.123-.704 2.045-.237.461-.538.877-.848 1.137-.318.261-.596.384-.999.395h-.079c-1.092-.003-1.737-.292-2.104-.62-.363-.333-.545-.744-.554-1.348 0-.312.06-.671.195-1.055a1.3 1.3 0 1 0-2.452-.863v-.001a5.779 5.779 0 0 0-.343 1.919c-.003.475.089.944.233 1.397-.725.46-1.372.624-1.902.626-.985-.008-1.671-.534-1.967-1.254-.028-.07-.081-.119-.119-.181-.148-2.798-.981-5.829-2.148-8.886-.99-2.58-2.223-5.171-3.509-7.605-1.032-4.816-1.64-10.357-1.64-15.927-.006-8.224 1.335-16.505 4.436-22.572 1.549-3.036 3.52-5.51 5.947-7.22 2.432-1.707 5.322-2.684 8.883-2.689 1.96 0 4.124.303 6.507.968a1.3 1.3 0 0 0 .699-2.504c-2.578-.72-4.977-1.064-7.206-1.064-4.046-.005-7.529 1.15-10.38 3.164-4.284 3.024-7.129 7.869-8.928 13.483-1.797 5.622-2.557 12.058-2.558 18.434 0 3.23.202 6.44.564 9.524-2.375-3.843-4.27-6.443-4.284-6.462a1.3 1.3 0 1 0-2.1 1.533l.143.198a117.588 117.588 0 0 1 7.091 11.362c1.544 2.838 3.036 5.925 4.131 8.905 1.099 2.978 1.788 5.854 1.783 8.202 0 .393-.018.771-.056 1.133-.353 3.308-1.901 5.946-4.297 8.175-3.586 3.334-9.123 5.585-14.748 6.96-5.621 1.382-11.319 1.915-15.198 1.997a1.264 1.264 0 0 0-.674.232c-.408.154-.737.489-.827.947h-.001a6.567 6.567 0 0 1-.679 1.759c-.23.398-.517.754-.823.984-.312.23-.613.356-1.055.367h-.078c-1.092-.003-1.737-.292-2.104-.62-.363-.333-.546-.744-.554-1.348 0-.313.06-.671.195-1.056a1.3 1.3 0 0 0-2.453-.863 5.792 5.792 0 0 0-.342 1.919c0 .067.016.133.018.201a3.432 3.432 0 0 1-.607.344 3.456 3.456 0 0 1-1.403.316c-.187 0-.38-.017-.58-.057-.542-.111-.931-.36-1.206-.693-.272-.336-.437-.767-.44-1.308.001-.458.125-.997.448-1.593a1.3 1.3 0 1 0-2.285-1.24 6.394 6.394 0 0 0-.588 1.502l-.16.003c-1.083-.005-1.733-.309-2.138-.696-.401-.391-.633-.93-.639-1.686-.002-.819.313-1.868 1.056-2.94.74-1.071 1.899-2.162 3.523-3.076 2.388-1.345 5.631-2.225 9.596-2.225.14 0 .276.001.411.003l.004.001.368.002c2.062-.002 4.945-.252 7.817-1.176.487-.157.973-.343 1.456-.543a51.826 51.826 0 0 1 8.082 6.652 1.3 1.3 0 0 0 1.845-1.832 54.785 54.785 0 0 0-7.315-6.178c.038-.025.078-.045.116-.07 1.315-.873 2.513-1.992 3.439-3.406a1.3 1.3 0 1 0-2.174-1.425c-.708 1.079-1.632 1.952-2.704 2.665-.346.231-.713.436-1.087.632-7.982-4.996-14.44-6.064-14.553-6.084a1.3 1.3 0 1 0-.42 2.566l.02.003c.37.064 5.425 1.009 11.908 4.72a20.18 20.18 0 0 1-1.307.332 24.763 24.763 0 0 1-5.452.542h.005c-.158-.003-.31-.004-.459-.004-4.347.001-8.03.961-10.871 2.559-1.933 1.088-3.395 2.432-4.386 3.864-.885 1.282-1.376 2.637-1.476 3.956-1.464.276-3.23.435-5.176.435-3.788.001-8.198-.57-12.213-1.785-4.019-1.21-7.626-3.08-9.869-5.522a45.696 45.696 0 0 0-2.829-2.822c-.042-.043-.078-.088-.122-.13-.026-.024-.059-.032-.086-.054-1.43-1.283-2.822-2.341-4.204-3.209-2.337-1.468-4.645-2.402-7.017-3.047-1.74-.47-4.105-1.808-5.976-4.13-1.201-1.491-2.217-3.383-2.797-5.746a62.26 62.26 0 0 1 4.163.218 46.877 46.877 0 0 1 1.937.211l.127.018a1.3 1.3 0 0 0 .387-2.571c-.043-.006-2.908-.435-7.045-.486a20.176 20.176 0 0 1-.088-1.814c0-1.115.088-2.306.28-3.576.042-.282.096-.57.145-.856.09.023.191.045.28.067 1.64.417 2.944.832 3.831 1.141a28.446 28.446 0 0 1 1.26.47l.058.025.014.005a1.3 1.3 0 1 0 1.024-2.389c-.052-.021-2.276-.966-5.962-1.872.4-1.771.906-3.641 1.484-5.638 1.766 1.05 3.16 2.021 4.068 2.744a1.3 1.3 0 0 0 1.616-2.036c-1.119-.887-2.81-2.048-4.928-3.273 1.82-6.069 4.144-13.367 6.261-22.88.799-3.594 2.151-9.155 3.303-13.807a1784.735 1784.735 0 0 1 1.508-6.045c2.33 2.697 6.735 8.227 9.961 14.834a1.3 1.3 0 0 0 2.336-1.142 59.816 59.816 0 0 0-1.475-2.801c1.08-.17 2.328-.343 3.577-.58 1.602-.31 3.196-.702 4.523-1.452 1.75-1.005 3.049-2.645 4.137-4.644 1.63-3.008 2.836-6.913 4.157-11.322 1.316-4.407 2.73-9.312 4.675-14.251 3.845-9.755 10.595-16.938 18.675-21.716 8.078-4.775 17.488-7.118 26.538-7.116 9.478-.003 18.539 2.573 25.253 7.49 12.231 8.954 19.87 18.974 24.486 29.344 4.613 10.37 6.198 21.115 6.198 31.497 0 8.65-1.102 17.041-2.46 24.716Z"/></g><path fill="#FFE632" d="M30.078 164.752a55.063 55.063 0 0 1 2.083-.897 15.109 15.109 0 0 1 1.382-.499c1.371-.384 2.646-.652 4.212-.653 1.27 0 2.741.178 4.599.66 3.907 1.012 26.658 7.463 35.445 10.505.461.156.788.354.928.488l.103.12.007-.004-.007.003v.001l.007-.004-.007.003.064-.016h-.066l.002.016.064-.016h-.066l-.003.015c-.007.047-.095.268-.42.591-.321.322-.858.73-1.633 1.175-2.91 1.673-8.78 5.044-10.551 6.01-1.19.659-3.131 1.063-5.2 1.056-1.38 0-2.82-.169-4.147-.501-.747-.186-3.01-.822-6.015-1.687-4.517-1.3-10.762-3.126-16.42-4.804-5.655-1.677-10.736-3.21-12.884-3.908-.762-.245-1.443-.584-1.847-.903a1.688 1.688 0 0 1-.39-.4c-.06-.098-.054-.123-.056-.132.002-.01-.004-.037.054-.142.057-.102.187-.272.43-.479.247-.211.727-.549 1.334-.926.61-.38 1.353-.811 2.17-1.26a1.3 1.3 0 0 0-1.254-2.278c-.847.466-1.626.917-2.291 1.332-.668.418-1.215.79-1.643 1.152-.418.356-.759.739-1.007 1.175a2.88 2.88 0 0 0-.393 1.426 2.84 2.84 0 0 0 .455 1.517c.408.638.97 1.093 1.589 1.475a9.698 9.698 0 0 0 2.045.915c2.944.956 10.988 3.36 18.723 5.633 3.866 1.136 7.649 2.237 10.667 3.105 3.023.87 5.257 1.5 6.103 1.712 1.552.387 3.187.578 4.777.578 2.386-.007 4.664-.413 6.445-1.374 1.838-1.003 7.68-4.359 10.602-6.038 1.044-.603 1.825-1.189 2.399-1.827.285-.32.52-.656.69-1.024.17-.367.272-.772.271-1.184.001-.405-.1-.805-.273-1.147-.26-.516-.652-.899-1.078-1.198-.43-.3-.91-.524-1.428-.704-8.968-3.1-31.62-9.519-35.642-10.564-2.03-.526-3.735-.743-5.252-.743-1.874-.001-3.444.335-4.916.751-.456.129-1 .328-1.649.589-.646.26-1.386.58-2.183.94a1.3 1.3 0 0 0 1.071 2.369Z"/><path fill="#BEBEC9" d="M33.78 164.47c-.311-.509-.759-.856-1.271-1.13-.518-.273-1.122-.479-1.848-.644l-.063-.012-1.234-.215a1.29 1.29 0 0 0-.626.044c-1.316.434-2.938 1.255-4.293 1.982-1.347.724-2.392 1.349-2.403 1.355a1.29 1.29 0 0 0-.594.799c-.085.337-.033.687.145.985.144.235.346.424.646.614.302.19.716.387 1.358.606 1.225.416 2.464.588 3.633.588 1.705-.003 3.257-.357 4.48-.93.61-.291 1.144-.634 1.582-1.08.218-.225.412-.479.562-.78.15-.3.25-.655.25-1.035a2.214 2.214 0 0 0-.325-1.147Zm-4.142 2.046c-.7.2-1.532.326-2.408.326a9.13 9.13 0 0 1-1.444-.116c.127-.069.256-.137.387-.206 1.06-.559 2.234-1.119 3.09-1.43l.843.147c.623.139 1.032.312 1.25.44-.042.039-.072.074-.135.12-.319.242-.885.522-1.583.719Z"/><path fill="#FFE632" d="m43.681 175.752 8.284-5.061a1.3 1.3 0 0 0-1.355-2.219l-8.285 5.062a1.3 1.3 0 1 0 1.356 2.218ZM51.827 176.644l3.337-1.982a1.3 1.3 0 1 0-1.327-2.235l-3.337 1.981a1.3 1.3 0 1 0 1.327 2.236Z"/></svg>