<svg xmlns="http://www.w3.org/2000/svg" width="200" height="200" fill="none"><path fill="#FFD93A" d="M124.352 54.424c-16.337-2.304-49.33-2.361-68.127 0a46.006 46.006 0 0 0-40.203 45.639c0 23.328 14.666 42 39.876 45.596 18.099 2.581 48.771 4.262 68.781 0 22.21-4.732 36.876-22.268 36.876-45.596 0-23.442-14.58-42.447-37.203-45.639Zm9.171 78.046a36.671 36.671 0 1 1 19.498-32.407s7.273 2.437-2.56 19.77c-8.075 14.233-16.938 12.637-16.938 12.637Z"/><path fill="#191C22" d="M55.715 146.946a299 299 0 0 0 38.301 2.271c6.06 0 11.975-.168 17.283-.536a96.064 96.064 0 0 0 13.664-1.754c12.193-2.724 18.805-7.764 21.304-10.059a374.333 374.333 0 0 1 26.65 31.577 1.302 1.302 0 0 0 1.818.277 1.282 1.282 0 0 0 .392-1.57c5.179-.213 16.211-10.106 17.451-14.589.119.156.246.313.364.47a1.299 1.299 0 0 0 1.821.252 1.302 1.302 0 0 0 .253-1.821c-9.605-12.698-22.602-25.776-34.54-37.016a62.01 62.01 0 0 0 2.379-14.319c.043-.853.065-1.7.064-2.542a44.925 44.925 0 0 0-10.767-29.627 44.362 44.362 0 0 0-27.617-14.822c-8.329-1.174-20.788-1.762-33.553-1.763-11.664-.087-23.323.5-34.918 1.76a47.306 47.306 0 0 0-41.341 46.928c-.003 11.934 3.759 22.753 10.793 31.039 7.03 8.289 17.319 14.011 30.2 15.844Zm76.664-18.668a19.771 19.771 0 0 1-1.63-2.867 1.297 1.297 0 0 0-1.738-.598 1.212 1.212 0 0 0-.16.123 58.924 58.924 0 0 1-15.009 2.165c-6.09.002-10.515-1.315-13.34-3.019a10.104 10.104 0 0 1-3.065-2.696 4.285 4.285 0 0 1-.902-2.428v-.027a4.782 4.782 0 0 1 .5-2.255c.214-.399.51-.749.868-1.026a5.547 5.547 0 0 1 2.21-.965 14.55 14.55 0 0 1 3.205-.306c.473 0 .962.014 1.462.041.791.042 1.469.061 2.053.061a10 10 0 0 0 3.165-.35c.028-.01.052-.026.079-.036.363.303.716.61 1.045.925a1.299 1.299 0 0 0 2.198-.969 1.304 1.304 0 0 0-.401-.911c-3.16-3.011-7.396-5.247-11.344-7.447-1.974-1.096-3.876-2.176-5.526-3.301a18.133 18.133 0 0 1-4.02-3.523 6.299 6.299 0 0 1-1.464-3.912 4.873 4.873 0 0 1 1.487-3.553A6.097 6.097 0 0 1 96.4 89.84c1.038.012 2.07.17 3.063.47a41.765 41.765 0 0 1 11.259 5.525 53.655 53.655 0 0 1 3.502 2.573c.414.331.735.6.95.784.108.092.189.163.243.21l.059.052.016.014a1.3 1.3 0 0 0 1.74-1.931 50.027 50.027 0 0 0-5.056-3.857 44.289 44.289 0 0 0-11.987-5.866c-.496-.142-1-.26-1.508-.35a4.837 4.837 0 0 1-.497-2.23 5.418 5.418 0 0 1 1.266-3.55 4.024 4.024 0 0 1 1.811-1.102 10.262 10.262 0 0 1 3.225-.458 22.53 22.53 0 0 1 9.077 2.201 33.965 33.965 0 0 1 10.238 7.34 1.287 1.287 0 0 0 .913.396 1.304 1.304 0 0 0 1.213-.784 1.303 1.303 0 0 0-.259-1.42 36.56 36.56 0 0 0-11.029-7.899 30.017 30.017 0 0 0-3.346-1.282 5.067 5.067 0 0 1-.161-1.268 4.967 4.967 0 0 1 1.258-3.36 5.225 5.225 0 0 1 4.031-1.553c.961.012 1.916.15 2.841.41a32.625 32.625 0 0 1 11.585 6.083 61.935 61.935 0 0 1 12.223 13.46 75.321 75.321 0 0 1 3.278 5.22 52.54 52.54 0 0 1 1.05 1.929l.051.1.015.03a1.3 1.3 0 0 0 1.199.723v.001h.024a8.057 8.057 0 0 1 2.359.406 6.476 6.476 0 0 1 1.72.855 5.144 5.144 0 0 1 1.446 1.557c.455.854.673 1.815.63 2.782-.012.95-.13 1.896-.353 2.82a866.769 866.769 0 0 0-2.69-2.47 1.248 1.248 0 0 0-.252-.181l-.364-.199-.13-.062a3.475 3.475 0 0 0-1.329-.254 5.75 5.75 0 0 0-2.472.649 17.28 17.28 0 0 0-4.209 3.146 38.356 38.356 0 0 0-5.652 7.075 24.905 24.905 0 0 0-1.882 3.611 8.924 8.924 0 0 0-.77 3.233c-.005.484.09.963.279 1.408a1.3 1.3 0 0 0 .36.717 486.509 486.509 0 0 1 3.533 3.597 7.085 7.085 0 0 1-3.375 1.106 3.013 3.013 0 0 1-1.382-.317 5.11 5.11 0 0 1-1.774-1.653ZM56.388 55.715a300.16 300.16 0 0 1 34.594-1.74c12.676-.002 25.083.592 33.19 1.737a41.758 41.758 0 0 1 26.013 13.948 42.319 42.319 0 0 1 10.134 27.927c0 .797-.02 1.6-.061 2.41a59.846 59.846 0 0 1-1.926 12.442 549.245 549.245 0 0 0-1.688-1.572c.495-1.559.763-3.18.797-4.815a7.951 7.951 0 0 0-1-4.118 7.75 7.75 0 0 0-3.449-3.076 10.272 10.272 0 0 0-3.555-.97 76.967 76.967 0 0 0-7.628-11.504 59.06 59.06 0 0 0-9.354-9.437 35.194 35.194 0 0 0-12.519-6.551 13.58 13.58 0 0 0-3.516-.5 7.834 7.834 0 0 0-5.942 2.39 7.555 7.555 0 0 0-1.947 5.123c0 .187.023.371.036.557a20.827 20.827 0 0 0-4.082-.441c-1.374-.021-2.742.18-4.052.593a6.575 6.575 0 0 0-2.962 1.88 8.02 8.02 0 0 0-1.888 5.236c.002.685.088 1.367.255 2.03a8.557 8.557 0 0 0-5.588 2.265 7.481 7.481 0 0 0-2.285 5.428 8.9 8.9 0 0 0 2.03 5.53 20.652 20.652 0 0 0 4.59 4.054c2.663 1.813 5.752 3.412 8.704 5.083a70.535 70.535 0 0 1 3.749 2.254c-.07.001-.131.003-.205.003-.529 0-1.162-.017-1.914-.057a29.848 29.848 0 0 0-1.601-.045 12.383 12.383 0 0 0-6.371 1.378 5.962 5.962 0 0 0-2.201 2.286 7.362 7.362 0 0 0-.81 3.461l-.001.054a6.855 6.855 0 0 0 1.382 3.934 14.684 14.684 0 0 0 6.638 4.794 32.029 32.029 0 0 0 11.887 2.015 60.939 60.939 0 0 0 15.098-2.108 14.668 14.668 0 0 0 2.103 3.159c.178.193.382.363.579.539a35.543 35.543 0 0 1-15.289 4.009 35.264 35.264 0 0 1-27.11-57.805 35.262 35.262 0 0 1 61.785 16.095 1.296 1.296 0 0 0 1.514 1.042c.034-.006.06-.028.092-.037a1.288 1.288 0 0 0 .95-1.477 37.864 37.864 0 0 0-74.786 2.101 37.868 37.868 0 0 0 37.555 42.681c6.513-.006 12.884-2.333 18.144-5.156.349.067.703.102 1.058.104a10.201 10.201 0 0 0 5.235-1.787c1.24 1.289 2.48 2.592 3.718 3.908-2.221 2.039-8.407 6.805-20.092 9.421a93.719 93.719 0 0 1-13.277 1.697c-5.229.363-11.091.53-17.103.53-12.68.063-25.35-.687-37.934-2.245-12.329-1.763-21.978-7.175-28.584-14.953-6.601-7.781-10.173-17.962-10.175-29.356a44.707 44.707 0 0 1 39.065-44.348Z"/></svg>