<svg width="200" height="200" viewBox="0 0 200 200" xmlns="http://www.w3.org/2000/svg"><g id="type=error, mode=light"><g id="Layer 2"><path id="Vector" d="M86.0117 142.908C88.7731 142.908 91.0117 141.734 91.0117 140.286C91.0117 138.839 88.7731 137.665 86.0117 137.665C83.2503 137.665 81.0117 138.839 81.0117 140.286C81.0117 141.734 83.2503 142.908 86.0117 142.908Z"/><path id="Vector_2" d="M122.512 146.632C125.273 146.632 127.512 145.459 127.512 144.011C127.512 142.563 125.273 141.39 122.512 141.39C119.75 141.39 117.512 142.563 117.512 144.011C117.512 145.459 119.75 146.632 122.512 146.632Z"/><path id="Vector_3" d="M104.637 152.132C107.398 152.132 109.637 150.959 109.637 149.511C109.637 148.063 107.398 146.89 104.637 146.89C101.875 146.89 99.6367 148.063 99.6367 149.511C99.6367 150.959 101.875 152.132 104.637 152.132Z"/><path id="Vector_4" d="M67.9601 147.508C69.8463 147.508 71.3754 146.622 71.3754 145.529C71.3754 144.435 69.8463 143.549 67.9601 143.549C66.074 143.549 64.5449 144.435 64.5449 145.529C64.5449 146.622 66.074 147.508 67.9601 147.508Z"/><path id="Vector_5" d="M84.4601 156.008C86.3463 156.008 87.8754 155.122 87.8754 154.029C87.8754 152.935 86.3463 152.049 84.4601 152.049C82.574 152.049 81.0449 152.935 81.0449 154.029C81.0449 155.122 82.574 156.008 84.4601 156.008Z"/><path id="Vector_6" d="M124.96 157.508C126.846 157.508 128.375 156.622 128.375 155.529C128.375 154.435 126.846 153.549 124.96 153.549C123.074 153.549 121.545 154.435 121.545 155.529C121.545 156.622 123.074 157.508 124.96 157.508Z"/><path id="Vector_7" d="M56.6261 156.841C58.5122 156.841 60.0413 155.955 60.0413 154.861C60.0413 153.768 58.5122 152.882 56.6261 152.882C54.74 152.882 53.2109 153.768 53.2109 154.861C53.2109 155.955 54.74 156.841 56.6261 156.841Z"/><path id="Vector_8" d="M157.513 148.403C159.399 148.403 160.928 147.517 160.928 146.424C160.928 145.331 159.399 144.445 157.513 144.445C155.627 144.445 154.098 145.331 154.098 146.424C154.098 147.517 155.627 148.403 157.513 148.403Z"/><path id="Vector_9" d="M68.8351 136.133C70.7213 136.133 72.2504 135.247 72.2504 134.154C72.2504 133.06 70.7213 132.174 68.8351 132.174C66.949 132.174 65.4199 133.06 65.4199 134.154C65.4199 135.247 66.949 136.133 68.8351 136.133Z"/><path id="Vector_10" d="M36.9601 141.383C38.8463 141.383 40.3754 140.497 40.3754 139.404C40.3754 138.31 38.8463 137.424 36.9601 137.424C35.074 137.424 33.5449 138.31 33.5449 139.404C33.5449 140.497 35.074 141.383 36.9601 141.383Z"/><path id="Vector_11" d="M134.085 140.133C135.971 140.133 137.5 139.247 137.5 138.154C137.5 137.06 135.971 136.174 134.085 136.174C132.199 136.174 130.67 137.06 130.67 138.154C130.67 139.247 132.199 140.133 134.085 140.133Z"/><path id="Vector_12" d="M145.431 70.4044C147.727 65.9299 148.875 60.9549 148.772 55.9268C148.772 33.3928 131.478 13.2339 100.27 13.2339C69.0605 13.2339 51.7673 33.3928 51.7673 55.9268C51.6778 60.7544 52.7325 65.5346 54.8452 69.8763C51.47 78.3007 49.8421 87.3231 50.0604 96.3958C50.8633 123.415 71.0586 138.737 101.632 137.829C103.357 137.778 105.039 137.67 106.688 137.52C106.503 137.772 106.398 138.074 106.387 138.386C106.387 139.834 108.625 141.008 111.387 141.008C114.148 141.008 116.387 139.834 116.387 138.386C116.387 137.576 115.67 136.86 114.567 136.379C137.424 131.732 150.978 116.384 150.296 93.4174C150.028 85.5215 148.381 77.7332 145.431 70.4044Z"/></g><g id="Layer 45"><path id="Vector_13" d="M52.9105 174.003C61.5 176.428 70.2815 178.113 79.1588 179.039C79.1554 179.355 79.207 179.67 79.3114 179.969C79.4036 180.225 79.5415 180.461 79.7185 180.667C79.9435 180.918 80.2098 181.128 80.5059 181.288C80.6738 181.365 80.8281 181.468 80.9628 181.594C81.0068 181.648 81.0411 181.709 81.0643 181.775C81.1256 181.946 81.1644 182.123 81.1797 182.304C81.2502 183.031 81.5443 183.719 82.0215 184.272C82.6992 184.99 83.5853 185.476 84.5547 185.664C85.4919 185.864 86.4488 185.956 87.407 185.94C87.8492 185.94 88.2781 185.92 88.7015 185.901L88.2125 196.28C88.2028 196.451 88.2272 196.623 88.2842 196.785C88.3412 196.947 88.4298 197.096 88.5448 197.224C88.6598 197.351 88.7989 197.455 88.9542 197.529C89.1094 197.602 89.2777 197.644 89.4493 197.652C89.6208 197.66 89.7923 197.634 89.9538 197.576C90.1152 197.517 90.2635 197.427 90.39 197.311C90.5164 197.195 90.6187 197.055 90.6907 196.899C90.7627 196.743 90.8031 196.574 90.8095 196.402L91.2584 186.875C91.5787 187.134 91.9176 187.368 92.2724 187.577C93.0783 188.034 93.9638 188.334 94.8818 188.46C95.4207 188.545 95.9653 188.589 96.5109 188.591C97.6763 188.576 98.8298 188.355 99.9181 187.938C100.853 187.573 101.826 187.316 102.819 187.174C103.048 187.146 103.279 187.131 103.509 187.131C104.209 187.146 104.902 187.27 105.563 187.498C106.364 187.781 107.204 187.942 108.053 187.974C108.084 187.974 108.118 187.966 108.15 187.965L108.545 196.362C108.552 196.533 108.592 196.702 108.664 196.858C108.736 197.014 108.839 197.154 108.965 197.27C109.092 197.386 109.24 197.476 109.401 197.535C109.563 197.593 109.734 197.619 109.906 197.611C110.077 197.603 110.246 197.561 110.401 197.488C110.556 197.414 110.695 197.311 110.81 197.183C110.925 197.056 111.014 196.906 111.071 196.745C111.128 196.583 111.152 196.411 111.142 196.239L110.722 187.323C111.098 187.151 111.456 186.943 111.791 186.701C112.307 186.289 112.784 185.829 113.214 185.328C113.492 185.02 113.856 184.802 114.259 184.702C115.345 184.444 116.413 184.116 117.456 183.718C118.025 183.48 118.544 183.135 118.985 182.702C119.475 182.204 119.806 181.57 119.935 180.883C119.964 180.724 119.978 180.563 119.977 180.402C119.961 179.945 119.897 179.49 119.785 179.046C127.395 178.275 134.957 177.097 142.44 175.515C142.788 175.366 143.085 175.119 143.296 174.805C143.506 174.491 143.622 174.122 143.627 173.744L143.628 173.744L143.627 173.743V173.742L143.627 173.742C143.584 173.351 143.564 172.958 143.567 172.564C143.566 171.742 143.653 170.922 143.826 170.118C144.008 169.66 144.271 169.238 144.602 168.872C145.532 167.886 146.674 167.126 147.943 166.649C149.412 166.058 150.979 165.751 152.562 165.744C153.857 165.728 155.141 165.976 156.337 166.472C156.569 166.572 156.825 166.603 157.073 166.559L157.107 166.554C159.667 166.159 162.254 165.959 164.844 165.955C165.341 165.955 165.848 165.963 166.36 165.981C166.706 165.935 167.049 165.862 167.384 165.762C172.246 163.166 176.574 159.674 180.138 155.47C183.091 152.02 184.764 147.658 184.875 143.119C184.872 137.759 182.34 132.511 177.969 127.702C175.796 125.352 173.396 123.223 170.804 121.345C170.823 121.316 170.85 121.288 170.867 121.258C171.07 120.887 171.199 120.479 171.246 120.058C171.294 119.667 171.316 119.273 171.311 118.878C171.36 116.8 170.758 114.759 169.589 113.04C168.173 111.133 166.191 109.722 163.925 109.009C163.199 108.76 162.456 108.565 161.701 108.426C161.642 108.077 161.536 107.738 161.386 107.417C161.041 106.7 160.441 106.136 159.703 105.836C159.477 105.745 159.243 105.678 159.003 105.635C158.327 104.147 157.734 102.624 157.228 101.07C156.502 98.8878 155.84 96.4565 155.28 93.9714C157.115 94.8401 159.108 95.3266 161.138 95.4012C162.312 95.4202 163.474 95.1602 164.529 94.6426C165.611 94.0841 166.524 93.246 167.173 92.2153C167.947 91.0344 168.357 89.6524 168.353 88.2406C168.328 86.8545 168.002 85.4903 167.4 84.2419C166.128 81.7258 164.369 79.4877 162.224 77.658C158.371 74.2993 153.997 71.5901 149.274 69.6365C149.025 69.5314 148.771 69.4369 148.521 69.3356C148.402 68.7351 148.273 68.1319 148.133 67.5263C149.459 63.8046 150.115 59.8773 150.071 55.9266C150.103 48.3063 148.099 40.8157 144.264 34.2304C144.248 34.1125 144.215 33.9977 144.166 33.8892C142.94 31.7358 141.455 29.7408 139.744 27.9487C138.915 26.9984 138.047 26.0738 137.121 25.19C135.807 23.9417 134.415 22.7779 132.954 21.7055C133.436 20.7306 134.141 19.8827 135.011 19.2304C135.492 18.8827 136.016 18.5991 136.57 18.3867C137.209 19.0975 138.079 19.5585 139.027 19.6874C139.974 19.8162 140.936 19.6047 141.742 19.0904C142.547 18.5761 143.144 17.7924 143.426 16.879C143.708 15.9657 143.656 14.9819 143.28 14.103C142.904 13.2242 142.229 12.5073 141.374 12.0801C140.519 11.6529 139.54 11.5432 138.611 11.7705C137.683 11.9978 136.865 12.5473 136.304 13.3212C135.743 14.095 135.475 15.0429 135.548 15.996C134.81 16.285 134.112 16.6675 133.472 17.1343C132.37 17.9546 131.459 19.0059 130.805 20.2149C122.854 15.0382 112.589 11.9301 100.269 11.9338C87.953 11.9301 77.6906 15.036 69.7409 20.2091C69.0871 19.0026 68.1778 17.9532 67.0766 17.1343C66.4368 16.6677 65.7397 16.2852 65.0024 15.9963C65.0742 15.0453 64.8061 14.0997 64.2459 13.3278C63.6856 12.5559 62.8696 12.008 61.9432 11.7815C61.0167 11.5551 60.04 11.6648 59.1868 12.0912C58.3337 12.5175 57.6596 13.2329 57.2846 14.1098C56.9096 14.9867 56.858 15.9683 57.1391 16.8797C57.4201 17.7911 58.0155 18.5731 58.8192 19.0866C59.623 19.6 60.5828 19.8115 61.5279 19.6834C62.473 19.5553 63.342 19.0959 63.98 18.387C64.5338 18.5994 65.0575 18.8829 65.5381 19.2304C66.4065 19.8813 67.11 20.7269 67.592 21.6992C66.1277 22.7734 64.733 23.9393 63.4163 25.19C61.714 26.8192 60.1531 28.59 58.7504 30.4832C58.5226 30.7643 58.2971 31.0498 58.0778 31.3467C57.7287 31.8107 57.4373 32.2222 57.2138 32.5565C57.0122 32.858 56.8608 33.1008 56.7537 33.282C56.6997 33.3733 56.6576 33.4478 56.6211 33.5162L56.5641 33.6302L56.5207 33.7333L56.4826 33.8502L56.4753 33.8795C52.5079 40.5467 50.4308 48.1684 50.467 55.9267C50.425 59.8297 51.0653 63.7101 52.359 67.3927C52.162 68.0702 51.9654 68.7459 51.7804 69.4189C49.0507 70.5377 46.4212 71.8868 43.9203 73.4516C40.8213 75.3358 38.0264 77.6798 35.6311 80.4034C34.6297 81.566 33.7875 82.8568 33.1266 84.2417C32.5238 85.4901 32.1986 86.8542 32.1734 88.2403C32.1691 89.6524 32.5796 91.0346 33.3539 92.2154C34.0025 93.246 34.9153 94.0841 35.9974 94.6426C37.052 95.1602 38.2143 95.4201 39.3889 95.4012C41.3762 95.3307 43.3292 94.8618 45.1319 94.0221C44.3427 97.6674 43.2406 101.238 41.8377 104.694C41.698 105.023 41.5572 105.334 41.4165 105.637C40.9488 105.719 40.5036 105.898 40.1097 106.163C39.6483 106.48 39.278 106.913 39.0356 107.418C38.8857 107.738 38.7797 108.078 38.7205 108.427C37.274 108.689 35.8743 109.164 34.5672 109.836C33.0838 110.589 31.8032 111.688 30.8333 113.039C29.6645 114.759 29.0625 116.8 29.1114 118.878C29.0732 119.579 29.1764 120.28 29.4147 120.94C29.4394 120.998 29.4883 121.056 29.5198 121.116C26.8047 123.05 24.2946 125.257 22.0288 127.702C17.6578 132.511 15.1258 137.759 15.123 143.119C15.1218 148.481 17.6761 153.513 22.0666 157.944C28.6652 164.601 39.4349 170.102 52.9105 174.003ZM117.377 180.402L117.377 180.406C117.345 180.587 117.258 180.754 117.127 180.883C116.748 181.204 116.301 181.437 115.82 181.563C115.176 181.779 114.372 181.964 113.537 182.205C112.944 182.368 112.389 182.644 111.902 183.018C111.629 183.235 111.374 183.475 111.142 183.735C110.899 184.022 110.633 184.289 110.346 184.533C109.969 184.822 109.544 185.044 109.09 185.186C108.757 185.307 108.407 185.37 108.053 185.373C107.456 185.337 106.867 185.214 106.307 185.006C105.404 184.706 104.461 184.546 103.509 184.531C103.173 184.531 102.837 184.552 102.504 184.593C101.331 184.757 100.181 185.053 99.0753 185.478C98.2584 185.802 97.3897 185.976 96.511 185.991C96.0971 185.989 95.6839 185.955 95.2752 185.89C94.7307 185.818 94.2025 185.653 93.7135 185.403C93.1392 185.051 92.5932 184.654 92.0805 184.217C91.7118 183.942 91.306 183.72 90.8753 183.559C90.3475 183.371 89.7906 183.278 89.2305 183.285C89.1184 183.285 89.0044 183.288 88.8883 183.294C88.396 183.321 87.8944 183.34 87.407 183.34C86.4596 183.38 85.5125 183.254 84.6091 182.965C84.3713 182.883 84.1563 182.745 83.9817 182.564C83.8521 182.411 83.7758 182.221 83.7643 182.021C83.7124 181.339 83.4846 180.683 83.1033 180.115C82.8888 179.817 82.6231 179.56 82.3185 179.355C88.0229 179.877 93.934 180.157 99.9994 180.157C105.464 180.156 111.333 179.84 117.178 179.301C117.28 179.661 117.347 180.03 117.377 180.402H117.377ZM156.975 163.942C155.566 163.407 154.07 163.137 152.562 163.143C150.631 163.151 148.718 163.528 146.929 164.256C146.983 164.14 147.042 164.021 147.106 163.901C147.371 163.388 147.703 162.913 148.092 162.487C148.488 162.051 148.971 161.701 149.51 161.46C150.458 161.059 151.48 160.858 152.51 160.869C153.511 160.878 154.507 161.027 155.467 161.313C155.846 161.424 156.151 161.535 156.355 161.616C156.457 161.656 156.533 161.688 156.581 161.709L156.632 161.732L156.64 161.736L156.641 161.736C156.822 161.821 157.02 161.864 157.22 161.861L157.234 161.861L157.294 161.861C158.65 161.87 160.002 162.01 161.331 162.281C162.193 162.449 163.027 162.736 163.811 163.132C163.947 163.206 164.065 163.283 164.181 163.36C161.769 163.395 159.362 163.59 156.975 163.942V163.942ZM159.049 108.557C159.158 108.815 159.208 109.095 159.194 109.375L159.191 109.517C159.178 109.854 159.296 110.182 159.521 110.433C159.746 110.684 160.059 110.838 160.395 110.862V110.862C161.915 111.031 163.39 111.482 164.745 112.191C165.838 112.756 166.781 113.575 167.493 114.579C168.334 115.851 168.759 117.354 168.711 118.878C168.718 119.168 168.701 119.458 168.661 119.745C168.646 119.742 168.624 119.736 168.607 119.732C167.96 119.289 167.318 118.882 166.704 118.512C166.721 118.406 166.73 118.299 166.731 118.191C166.729 117.855 166.662 117.522 166.533 117.212C166.341 116.772 166.073 116.37 165.74 116.024C165.303 115.552 164.847 115.179 164.554 114.897C164.472 114.82 164.41 114.755 164.363 114.703C164.332 114.403 164.198 114.123 163.984 113.911C163.769 113.698 163.487 113.568 163.186 113.541C162.886 113.515 162.585 113.594 162.337 113.765C162.088 113.936 161.907 114.188 161.824 114.478C161.781 114.63 161.759 114.787 161.759 114.944C161.759 114.974 161.77 114.994 161.771 115.022C161.787 115.338 161.879 115.647 162.038 115.92C162.253 116.26 162.516 116.568 162.817 116.833C163.211 117.2 163.611 117.538 163.862 117.823C163.957 117.924 164.039 118.035 164.107 118.154L164.116 118.175C163.949 118.377 163.745 118.544 163.515 118.668C163.327 118.797 163.107 118.869 162.879 118.875C162.493 118.843 162.128 118.684 161.841 118.423C161.154 117.828 160.574 117.118 160.127 116.327C159.904 115.955 159.726 115.617 159.607 115.376L159.587 115.333C159.54 115.238 159.498 115.15 159.474 115.097L159.442 115.027L159.435 115.011C159.368 114.854 159.27 114.712 159.148 114.593C159.025 114.474 158.881 114.38 158.722 114.317C158.564 114.253 158.394 114.222 158.223 114.224C158.053 114.227 157.884 114.262 157.727 114.33C157.556 114.405 157.403 114.517 157.28 114.658C157.157 114.799 157.066 114.965 157.014 115.145C156.895 115.068 156.776 114.991 156.664 114.907C155.85 114.278 155.166 113.495 154.653 112.603C154.483 112.315 154.329 112.017 154.194 111.71C154.146 111.602 154.113 111.517 154.092 111.464L154.071 111.408L154.068 111.399L154.068 111.4L154.008 111.253L153.976 111.17L153.975 111.164L153.976 111.161C153.995 111.128 154.019 111.097 154.047 111.07C154.297 111.116 154.55 111.14 154.804 111.142C155.603 111.14 156.385 110.908 157.055 110.473C157.819 109.959 158.454 109.275 158.91 108.476C158.925 108.45 158.935 108.429 158.95 108.404C158.989 108.45 159.023 108.502 159.049 108.557V108.557ZM151.716 109.876C151.517 110.234 151.405 110.634 151.389 111.044C150.673 110.767 149.948 110.495 149.216 110.227C149.999 107.928 150.587 105.568 150.973 103.171C151.455 104.621 151.969 106.002 152.513 107.28C152.702 107.723 152.894 108.154 153.09 108.572C152.828 108.714 152.584 108.885 152.362 109.084C152.105 109.311 151.887 109.579 151.716 109.876V109.876ZM137.789 123.577C137.211 123.241 136.544 123.089 135.878 123.142C135.211 123.196 134.577 123.452 134.06 123.875C133.543 124.299 133.167 124.871 132.984 125.513C132.8 126.156 132.817 126.84 133.033 127.473C125.118 132.968 114.457 136.147 101.593 136.53C100.746 136.555 99.9076 136.567 99.0783 136.567C85.7085 136.567 74.6051 133.313 66.5032 127.336C66.6809 126.732 66.6817 126.09 66.5053 125.486C66.3289 124.882 65.9829 124.342 65.5083 123.928C65.0337 123.515 64.4505 123.247 63.8279 123.156C63.2054 123.065 62.5698 123.154 61.9965 123.413C57.0416 118.272 53.6863 111.803 52.3383 104.792C60.0249 121.705 82.786 126.129 101.631 126.129C120.136 126.129 141.497 119.9 148.363 103.001C147.173 110.828 143.461 118.053 137.789 123.577V123.577ZM49.0117 110.89C48.9788 110.535 48.8751 110.19 48.7065 109.876C48.4659 109.464 48.1396 109.109 47.7496 108.834C47.615 108.737 47.474 108.648 47.3278 108.569C48.1081 106.885 48.792 105.157 49.3763 103.395C49.3883 103.36 49.399 103.322 49.411 103.287C49.7838 105.609 50.3373 107.898 51.0665 110.134C50.3758 110.382 49.6869 110.632 49.0117 110.89V110.89ZM53.0255 80.0055C56.3795 86.0478 62.0493 90.8222 69.3619 94.1983C77.9062 98.1436 88.6947 100.206 100.73 100.206H100.838C111.074 100.206 120.089 98.6998 127.557 95.8241C128.173 97.3607 128.928 98.8376 129.814 100.236C130.466 101.535 131.227 102.777 132.09 103.947C132.301 104.219 132.612 104.397 132.954 104.44C133.296 104.483 133.642 104.389 133.914 104.178C134.187 103.966 134.364 103.656 134.407 103.313C134.451 102.971 134.356 102.626 134.145 102.354L134.138 102.344C133.633 101.659 133.168 100.945 132.748 100.205L133.961 99.4686C134.765 100.752 135.405 101.568 135.426 101.596C135.531 101.73 135.662 101.842 135.811 101.926C135.96 102.009 136.123 102.063 136.293 102.083C136.462 102.103 136.634 102.09 136.799 102.044C136.963 101.998 137.117 101.92 137.251 101.814C137.385 101.709 137.497 101.578 137.581 101.429C137.665 101.28 137.718 101.116 137.738 100.947C137.759 100.777 137.745 100.606 137.699 100.441C137.653 100.277 137.575 100.123 137.47 99.9889L137.462 99.979C137.39 99.8868 136.85 99.1766 136.185 98.12L137.399 97.384C138.23 98.622 138.924 99.5494 138.934 99.5624C139.141 99.8378 139.449 100.02 139.79 100.068C140.131 100.117 140.477 100.028 140.753 99.8215C141.028 99.6148 141.211 99.3072 141.26 98.9662C141.309 98.6252 141.22 98.2787 141.014 98.0028L140.962 97.9322C140.714 97.598 139.626 96.1098 138.669 94.5582C138.656 94.5369 138.634 94.526 138.62 94.5058C138.001 93.503 137.454 92.457 136.985 91.3758L138.012 90.8332C138.738 92.1616 139.328 93.0142 139.347 93.0426C139.444 93.183 139.568 93.3029 139.712 93.3954C139.855 93.4879 140.016 93.5511 140.184 93.5816C140.352 93.6121 140.524 93.6091 140.691 93.5729C140.858 93.5367 141.016 93.468 141.157 93.3706C141.297 93.2733 141.417 93.1492 141.509 93.0056C141.602 92.8619 141.665 92.7014 141.695 92.5334C141.726 92.3653 141.723 92.1928 141.686 92.0259C141.65 91.859 141.581 91.7009 141.484 91.5607L141.476 91.5503C141.41 91.454 140.913 90.713 140.312 89.6189L141.568 88.956C142.323 90.241 142.962 91.208 142.97 91.2214C143.064 91.3646 143.185 91.4879 143.327 91.5842C143.468 91.6805 143.628 91.7479 143.795 91.7825C143.963 91.8171 144.136 91.8183 144.304 91.7859C144.472 91.7536 144.632 91.6884 144.775 91.594C144.918 91.4996 145.04 91.378 145.136 91.236C145.232 91.0941 145.298 90.9346 145.332 90.7668C145.366 90.599 145.367 90.4262 145.334 90.2582C145.3 90.0903 145.235 89.9305 145.14 89.7881L145.091 89.7146C144.864 89.3662 143.866 87.8163 143.004 86.2106C142.997 86.1975 142.984 86.1904 142.976 86.1776C142.909 86.0527 142.849 85.9292 142.785 85.805C144.457 83.9502 145.889 81.8927 147.048 79.6808C147.91 83.111 148.495 86.6049 148.797 90.1288C143.328 107.772 120.664 113.329 101.631 113.329C82.4684 113.329 57.1619 109.41 51.5015 90.0881C51.7481 86.6929 52.2577 83.3219 53.0255 80.0055V80.0055ZM155.221 75.6522C158.092 77.3938 160.682 79.5596 162.905 82.076C163.756 83.061 164.474 84.1546 165.038 85.3282C165.483 86.2362 165.727 87.2296 165.753 88.2406C165.758 89.1508 165.493 90.0421 164.991 90.8013C164.593 91.4472 164.027 91.9732 163.353 92.3237C162.663 92.6563 161.904 92.8199 161.138 92.8012C158.95 92.6594 156.824 92.0193 154.921 90.9297C154.789 90.8619 154.652 90.7811 154.519 90.71C154.258 89.655 154 88.6931 153.737 87.8255C153.419 86.7406 153.027 85.6794 152.561 84.6496C152.247 83.9625 151.866 83.3085 151.423 82.6974C151.045 82.185 150.603 81.7232 150.108 81.3233C149.709 79.4581 149.234 77.6035 148.682 75.7595C148.881 74.9379 148.981 74.0952 148.977 73.2497C148.976 72.9426 148.96 72.6336 148.94 72.324C151.113 73.2771 153.212 74.3896 155.221 75.6522ZM60.8084 32.0737C60.9267 31.9274 61.047 31.7795 61.1768 31.6246C62.3749 30.2134 63.7848 28.9966 65.356 28.0176C67.7111 26.5578 70.4276 25.7862 73.1984 25.79C74.0056 25.7907 74.8115 25.8528 75.6093 25.9758C77.9674 26.3658 80.1906 27.3394 82.0764 28.8078C84.9452 30.9168 87.4319 33.8946 90.3929 36.4436C91.8831 37.7671 93.5542 38.8715 95.3559 39.7237C97.3592 40.6354 99.5367 41.1011 101.738 41.0885C104.435 41.1525 107.102 40.513 109.478 39.233C112.576 37.505 114.572 34.9 116.489 32.5089C118.409 30.0983 120.24 27.9049 122.851 26.5951C124.452 25.7763 126.223 25.3469 128.02 25.342C130.633 25.3868 133.17 26.2221 135.299 27.7378C136.512 28.5745 137.625 29.5494 138.614 30.6428C144.405 37.7904 147.536 46.7272 147.471 55.9267C147.579 60.7975 146.457 65.617 144.21 69.9398C141.027 75.8156 135.598 80.1622 128.145 83.0805C120.698 85.9933 111.252 87.4301 100.269 87.4284C85.6212 87.4342 73.7217 84.8675 65.6223 79.6824C61.7379 77.2881 58.5367 73.9326 56.3279 69.9399C54.0805 65.6171 52.959 60.7976 53.0669 55.9267C53.0116 47.3495 55.7267 38.9837 60.8084 32.0737ZM39.3889 92.8012C38.623 92.8199 37.8636 92.6563 37.1733 92.3237C36.5001 91.9732 35.9342 91.447 35.5355 90.8011C35.0332 90.0419 34.7679 89.1506 34.7733 88.2403C34.7993 87.2293 35.0433 86.2359 35.4888 85.3279C36.6154 83.1337 38.1636 81.1831 40.0448 79.5877C43.3616 76.6972 47.0943 74.322 51.1178 72.5419C51.0528 73.0206 51.0172 73.5027 51.0112 73.9857C51.0063 74.7414 51.1083 75.4939 51.314 76.2211C50.8166 77.9861 50.3902 79.7634 50.0347 81.5531C49.6365 81.9126 49.2771 82.3129 48.9624 82.7475C48.0523 84.093 47.3577 85.5722 46.9034 87.1318C46.5583 88.1926 46.2271 89.407 45.8904 90.7706C45.7964 90.8202 45.6985 90.8817 45.6051 90.9297C43.7028 92.0192 41.5766 92.6594 39.3889 92.8012ZM32.9646 114.529C34.067 113.075 35.5984 112.004 37.3424 111.467C37.9742 111.251 38.6219 111.083 39.2795 110.966C39.5248 110.923 39.7205 110.896 39.8502 110.881L39.9933 110.865L40.024 110.863L40.0254 110.862C40.362 110.838 40.6761 110.684 40.9011 110.433C41.1261 110.181 41.2444 109.852 41.231 109.515L41.228 109.375C41.2142 109.094 41.2637 108.815 41.3729 108.556C41.4004 108.503 41.4338 108.452 41.4725 108.406C41.6196 108.661 41.7816 108.906 41.9576 109.141C42.345 109.665 42.8221 110.116 43.3667 110.473C44.0371 110.908 44.8189 111.14 45.6182 111.142C45.8718 111.14 46.1247 111.116 46.3743 111.071L46.384 111.078L46.4474 111.165L46.4464 111.17L46.4138 111.255L46.3541 111.401L46.3539 111.401C46.0657 112.142 45.6737 112.838 45.1897 113.469C44.6958 114.125 44.0934 114.692 43.4086 115.144C43.3564 114.965 43.2655 114.799 43.1423 114.658C43.019 114.517 42.8665 114.406 42.6953 114.33C42.5385 114.263 42.3699 114.227 42.1992 114.225C42.0285 114.222 41.8591 114.254 41.7005 114.317C41.542 114.38 41.3974 114.474 41.2751 114.593C41.1528 114.712 41.0552 114.854 40.9878 115.011H40.9877L40.9858 115.015C40.9752 115.041 40.9205 115.161 40.836 115.333C40.5188 115.982 40.147 116.604 39.7247 117.191C39.3918 117.664 38.9941 118.089 38.5432 118.453C38.2642 118.698 37.9132 118.846 37.543 118.875C37.3158 118.869 37.0952 118.797 36.9078 118.669C36.6827 118.544 36.4815 118.381 36.3136 118.186L36.3071 118.176L36.3268 118.133C36.4324 117.965 36.5584 117.81 36.702 117.672C36.9831 117.383 37.3661 117.066 37.7356 116.708C37.9391 116.516 38.1232 116.304 38.2853 116.075C38.5042 115.766 38.6322 115.401 38.6548 115.023C38.6562 114.995 38.6627 114.973 38.6631 114.944C38.6631 114.794 38.6432 114.644 38.6041 114.498C38.5261 114.206 38.3481 113.95 38.101 113.775C37.8538 113.599 37.5532 113.516 37.2512 113.54C36.9492 113.563 36.665 113.692 36.448 113.903C36.2309 114.115 36.0948 114.395 36.0631 114.696C35.9694 114.801 35.8702 114.9 35.7657 114.993C35.3495 115.353 34.9531 115.736 34.5784 116.139C34.348 116.397 34.1507 116.682 33.9912 116.989C33.7978 117.36 33.6949 117.772 33.6909 118.191C33.6933 118.271 33.6999 118.351 33.7109 118.43C33.0992 118.791 32.4605 119.193 31.8155 119.633C31.7938 119.637 31.7682 119.644 31.7488 119.648C31.7189 119.393 31.7064 119.136 31.7114 118.878C31.6613 117.333 32.0999 115.811 32.9646 114.529ZM23.9532 129.451C26.5398 126.671 29.4467 124.208 32.6129 122.113C32.6449 122.104 32.6752 122.1 32.7074 122.091C32.8444 122.052 32.9739 121.99 33.0907 121.909C33.7867 121.425 34.4858 120.989 35.152 120.599C35.2806 120.693 35.3968 120.791 35.5404 120.88C36.1389 121.262 36.8329 121.468 37.543 121.475C38.5099 121.446 39.4392 121.093 40.1813 120.473C40.8733 119.908 41.4783 119.243 41.9767 118.502L42.1467 118.477C43.2955 118.206 44.3754 117.699 45.3177 116.988C46.3423 116.204 47.2105 115.235 47.877 114.131C49.2003 113.593 50.5571 113.073 51.9473 112.571C53.7648 117.174 56.4557 121.382 59.8716 124.962C58.6847 125.94 57.5489 126.979 56.4689 128.074C55.8113 126.309 54.7518 124.72 53.3742 123.435C52.5618 122.738 51.6185 122.209 50.5994 121.88C49.4629 121.525 48.2772 121.354 47.0868 121.372C46.522 121.372 45.9307 121.403 45.3129 121.464C43.2624 121.669 41.3547 122.606 39.9402 124.105C38.41 125.748 37.5734 127.919 37.6048 130.164C37.6048 130.372 37.611 130.583 37.6249 130.799C37.7979 133.179 38.2464 135.53 38.9616 137.807C39.1557 138.426 39.3659 139.045 39.607 139.655C39.7035 139.899 39.8112 140.137 39.9157 140.377C40.4574 141.663 41.1521 142.879 41.9847 143.998C42.9356 145.306 44.2038 146.35 45.6697 147.032C47.0673 147.692 48.5859 148.057 50.1307 148.104C51.3592 148.118 52.5666 147.784 53.613 147.14C54.7018 146.432 55.6081 145.476 56.2581 144.352C56.5562 143.837 56.7906 143.288 56.9564 142.717C57.5261 140.659 57.8241 138.534 57.843 136.398C58.6227 135.436 59.4894 134.434 60.418 133.458C61.8025 131.984 63.3029 130.623 64.9047 129.388C66.2973 130.413 67.7511 131.351 69.258 132.199C70.1994 132.732 71.1625 133.241 72.1585 133.715C76.1318 135.571 80.3166 136.937 84.6203 137.78C86.3132 138.124 88.0529 138.403 89.8395 138.618C92.9053 138.986 95.9905 139.17 99.0783 139.167C99.9339 139.167 100.798 139.154 101.67 139.128C103.305 139.08 104.903 138.978 106.474 138.842C109.682 138.572 112.868 138.089 116.012 137.397C122.707 136.013 129.062 133.319 134.713 129.47C136.852 131.159 138.822 133.052 140.595 135.123C140.968 135.552 141.321 135.977 141.661 136.396C141.687 137.828 141.821 139.255 142.061 140.666C142.18 141.359 142.341 142.044 142.544 142.717C142.71 143.289 142.945 143.837 143.243 144.352C143.892 145.477 144.799 146.432 145.887 147.14C146.934 147.784 148.141 148.118 149.37 148.104C150.915 148.057 152.433 147.692 153.831 147.032C153.952 146.979 154.061 146.906 154.178 146.847C155.31 146.262 156.311 145.453 157.119 144.468C157.252 144.312 157.391 144.162 157.516 143.998C158.97 141.974 160.049 139.705 160.701 137.299C161.325 135.18 161.719 133 161.876 130.797V130.795C161.889 130.583 161.896 130.373 161.896 130.164C161.927 127.919 161.09 125.748 159.56 124.105C158.146 122.606 156.238 121.669 154.187 121.464C153.568 121.403 152.978 121.372 152.414 121.372C151.223 121.354 150.038 121.525 148.901 121.88C147.376 122.377 146.03 123.31 145.03 124.565C144.199 125.629 143.525 126.805 143.027 128.059C142.021 127.046 140.97 126.066 139.884 125.161C143.496 121.601 146.357 117.353 148.297 112.667C149.792 113.21 151.263 113.767 152.68 114.352C152.798 114.535 152.925 114.722 153.066 114.913C153.641 115.7 154.328 116.399 155.105 116.988C156.047 117.699 157.127 118.206 158.276 118.477L158.442 118.501C158.466 118.536 158.487 118.57 158.512 118.605C158.997 119.306 159.579 119.935 160.241 120.473C160.983 121.093 161.912 121.446 162.879 121.475C163.589 121.468 164.283 121.262 164.882 120.88C164.983 120.817 165.062 120.747 165.156 120.682C169.17 123.093 172.834 126.044 176.045 129.451C180.133 133.951 182.278 138.609 182.276 143.119C182.164 147.069 180.691 150.859 178.106 153.849C175.041 157.468 171.356 160.513 167.224 162.839C166.689 161.993 165.938 161.305 165.049 160.846C163.57 160.117 161.975 159.652 160.336 159.473C159.383 159.346 158.424 159.275 157.463 159.262C155.891 158.618 154.209 158.281 152.51 158.269C151.123 158.258 149.749 158.532 148.473 159.076C147.582 159.471 146.784 160.05 146.133 160.776C145.359 161.648 144.746 162.65 144.321 163.736C144.18 164.086 144.057 164.442 143.951 164.805C142.793 165.832 141.95 167.167 141.521 168.654C141.436 168.927 141.376 169.195 141.314 169.462C141.25 169.648 141.196 169.837 141.152 170.029C141.142 170.118 141.142 170.208 141.152 170.298C141.032 171.047 140.97 171.805 140.967 172.564C140.967 172.784 140.972 172.985 140.979 173.165C127.491 175.938 113.768 177.409 99.9994 177.557C77.0729 177.561 56.3204 173.573 41.4134 167.194C33.9602 164.009 27.9762 160.225 23.9153 156.115C19.8473 151.995 17.7244 147.625 17.7231 143.118C17.7203 138.609 19.8657 133.951 23.9532 129.451ZM55.2544 135.713C55.2574 137.221 55.1319 138.727 54.8793 140.213C54.7796 140.799 54.6439 141.378 54.473 141.947C54.3695 142.312 54.224 142.664 54.0394 142.996C53.6009 143.773 52.9855 144.435 52.243 144.93C51.6085 145.32 50.8752 145.519 50.1306 145.504C48.9448 145.455 47.7814 145.164 46.7118 144.65C45.6499 144.143 44.7339 143.376 44.0496 142.419C42.7914 140.647 41.8587 138.665 41.2949 136.567C40.7257 134.634 40.3652 132.645 40.2197 130.636L40.2195 130.633C40.2095 130.475 40.2046 130.319 40.2047 130.164C40.1721 128.582 40.7557 127.048 41.8324 125.888C42.8165 124.847 44.1427 124.195 45.5682 124.051C46.1117 123.998 46.6179 123.971 47.0868 123.972C48.0022 123.954 48.9145 124.082 49.7898 124.35C50.844 124.691 51.7727 125.338 52.457 126.21C53.3108 127.339 53.9771 128.598 54.4303 129.94C55.0268 131.804 55.3054 133.756 55.2544 135.713ZM157.477 138.698C156.973 140.024 156.292 141.276 155.451 142.419C154.767 143.376 153.851 144.143 152.789 144.65C151.719 145.164 150.556 145.455 149.37 145.504C148.625 145.519 147.892 145.32 147.257 144.93C146.515 144.436 145.9 143.773 145.461 142.997C145.277 142.665 145.131 142.312 145.027 141.947C144.482 139.915 144.219 137.817 144.246 135.713C144.195 133.756 144.473 131.804 145.07 129.94L143.853 129.484L145.07 129.94C145.595 128.223 146.54 126.666 147.82 125.408C148.373 124.932 149.016 124.573 149.711 124.35C150.586 124.082 151.498 123.954 152.414 123.972C152.883 123.972 153.388 123.998 153.932 124.051C155.358 124.195 156.684 124.847 157.668 125.888C158.745 127.048 159.328 128.582 159.296 130.164C159.296 130.318 159.291 130.476 159.281 130.637V130.636C159.08 133.397 158.472 136.114 157.477 138.698Z"/><path id="Vector_14" d="M76.1959 64.6217C76.4972 64.7894 76.8527 64.8306 77.1843 64.7362C77.5159 64.6418 77.7965 64.4196 77.9642 64.1183C78.1319 63.8171 78.1731 63.4616 78.0787 63.13C77.9843 62.7983 77.7621 62.5178 77.4608 62.3501H77.4607C76.2767 61.6273 75.3185 60.5877 74.6943 59.3489C73.973 58.0235 73.5837 56.543 73.5597 55.0342C73.5416 54.078 73.7566 53.1317 74.1863 52.2772C74.8019 51.1228 75.6553 50.1121 76.6903 49.3118C77.7553 48.4561 79.0739 47.9776 80.4398 47.951C81.4842 47.9665 82.5089 48.2373 83.4247 48.7397C84.5107 49.2859 85.4064 50.1475 85.9941 51.2115C86.4974 52.1466 86.7591 53.1926 86.7555 54.2545C86.7589 54.8692 86.667 55.4807 86.4831 56.0673C86.3519 56.51 86.1329 56.9218 85.8393 57.2781C85.3554 57.8279 84.7773 58.287 84.1321 58.6337C83.4964 58.9806 82.7853 59.1665 82.0611 59.1751C81.4776 59.1743 80.9012 59.0462 80.3722 58.7998C79.8433 58.5533 79.3744 58.1945 78.9983 57.7484C78.4841 57.1459 78.1944 56.3841 78.1783 55.5923C78.1754 55.0625 78.3298 54.5438 78.6219 54.1019C78.9112 53.6297 79.3077 53.2324 79.7793 52.9422C80.0907 52.7561 80.4461 52.6563 80.8089 52.6531C81.2419 52.646 81.6608 52.8065 81.9781 53.1012C82.105 53.2074 82.2087 53.3387 82.2825 53.4868C82.3564 53.6349 82.3989 53.7966 82.4073 53.9619C82.4053 54.1295 82.3602 54.2939 82.2765 54.4391C82.2193 54.5463 82.1389 54.6395 82.0412 54.7118C81.9411 54.7595 81.8306 54.7817 81.7198 54.7763L81.5866 54.7685L81.5859 54.7697C81.4189 54.7341 81.2466 54.7317 81.0787 54.7627C80.9108 54.7936 80.7507 54.8574 80.6075 54.9503C80.4642 55.0431 80.3407 55.1633 80.2438 55.3039C80.147 55.4446 80.0789 55.6029 80.0433 55.7698C80.0077 55.9368 80.0053 56.1091 80.0363 56.277C80.0672 56.4449 80.131 56.605 80.2239 56.7483C80.3167 56.8915 80.4369 57.0151 80.5775 57.1119C80.7181 57.2087 80.8765 57.2768 81.0434 57.3125C81.2662 57.3565 81.4928 57.3779 81.7198 57.3763C82.3205 57.385 82.9114 57.2244 83.425 56.9129C83.8888 56.6126 84.2714 56.2028 84.5393 55.7196C84.8442 55.1839 85.0054 54.5783 85.0073 53.9619C84.9982 53.4569 84.8889 52.9588 84.6856 52.4965C84.4823 52.0342 84.1891 51.617 83.823 51.2691C83.0185 50.4813 81.9349 50.0441 80.809 50.0531C79.9904 50.0566 79.1873 50.2761 78.4807 50.6896C77.6567 51.1826 76.9604 51.8628 76.4484 52.6751C75.8785 53.5411 75.576 54.5556 75.5784 55.5923C75.5937 56.9901 76.0951 58.339 76.9966 59.4075C77.6167 60.148 78.3914 60.7437 79.2663 61.1527C80.1413 61.5618 81.0952 61.7742 82.061 61.7751C83.2079 61.7666 84.3353 61.4777 85.345 60.9335C86.2675 60.4407 87.0941 59.7864 87.7856 59.0018C88.3179 58.3779 88.7166 57.6515 88.957 56.8675C89.2247 56.0225 89.3592 55.141 89.3555 54.2545C89.3594 52.7567 88.9881 51.2817 88.2754 49.9643C87.4399 48.4488 86.1688 47.2191 84.6266 46.4342C83.3397 45.7385 81.9027 45.3667 80.4398 45.3511C78.5051 45.3776 76.6334 46.0427 75.1157 47.2428C73.7789 48.2718 72.6778 49.575 71.8863 51.0648C71.2592 52.2929 70.9412 53.6554 70.9598 55.0342C70.9828 56.9724 71.4785 58.8758 72.4038 60.5791C73.2612 62.2573 74.5759 63.6588 76.1959 64.6217Z"/><path id="Vector_15" d="M117.715 61.6658C118.896 62.2239 120.186 62.5112 121.492 62.5068C122.614 62.5094 123.727 62.301 124.771 61.8924C125.725 61.5362 126.577 60.9547 127.257 60.1977C128.509 58.7759 129.22 56.9591 129.266 55.0655C129.267 54.3002 129.134 53.5408 128.873 52.8213C128.442 51.588 127.643 50.5161 126.585 49.7496C125.527 48.9831 124.259 48.5587 122.953 48.5333C121.648 48.5254 120.386 48.9967 119.405 49.8578C118.794 50.3472 118.296 50.9631 117.946 51.6632C117.596 52.3633 117.401 53.131 117.375 53.9135C117.369 54.5774 117.517 55.2337 117.807 55.831C118.096 56.4284 118.521 56.9505 119.046 57.3566C119.717 57.8813 120.541 58.1726 121.393 58.1864C122.104 58.1843 122.799 57.9675 123.385 57.5643C123.902 57.2182 124.315 56.7367 124.577 56.1723C124.75 55.7791 124.838 55.3537 124.834 54.9243C124.835 54.527 124.769 54.1324 124.64 53.757C124.522 53.4349 124.282 53.1723 123.972 53.0267C123.661 52.881 123.306 52.8641 122.983 52.9796C122.66 53.095 122.396 53.3335 122.249 53.643C122.101 53.9525 122.082 54.3077 122.196 54.6313L122.192 54.6325L122.197 54.6502C122.221 54.7397 122.233 54.8317 122.234 54.9242C122.237 54.9875 122.227 55.0506 122.204 55.1099L122.204 55.1113C122.136 55.235 122.038 55.3399 121.919 55.4168C121.765 55.5253 121.581 55.5844 121.393 55.5863C121.101 55.5726 120.823 55.4624 120.601 55.273C120.401 55.1081 120.241 54.9002 120.133 54.6648C120.024 54.4294 119.971 54.1726 119.975 53.9135C120.001 53.5004 120.117 53.098 120.315 52.7347C120.513 52.3713 120.789 52.0558 121.122 51.8104C121.627 51.3656 122.28 51.1243 122.953 51.1333C123.724 51.16 124.47 51.4203 125.09 51.8797C125.711 52.3391 126.177 52.976 126.428 53.7063C126.586 54.1419 126.667 54.602 126.666 55.0655C126.617 56.3405 126.127 57.5588 125.278 58.5116C124.872 58.9439 124.37 59.2743 123.812 59.476C123.072 59.7631 122.285 59.9091 121.492 59.9067C120.573 59.9111 119.666 59.7103 118.834 59.319C117.789 58.7881 116.905 57.9882 116.272 57.0016C115.638 56.015 115.28 54.8774 115.233 53.7061C115.259 52.4734 115.629 51.2726 116.303 50.2397C116.93 49.2403 117.742 48.3694 118.695 47.6735C119.81 46.9267 121.131 46.5476 122.473 46.5892C124.206 46.5971 125.905 47.0742 127.389 47.9701C127.534 48.06 127.695 48.1205 127.863 48.1481C128.032 48.1757 128.204 48.1698 128.37 48.1308C128.537 48.0918 128.694 48.0204 128.832 47.9208C128.971 47.8211 129.088 47.6952 129.178 47.5501C129.268 47.405 129.329 47.2436 129.356 47.0751C129.384 46.9066 129.378 46.7343 129.339 46.5681C129.3 46.4019 129.229 46.245 129.129 46.1064C129.029 45.9678 128.903 45.8501 128.758 45.7602H128.758C126.864 44.6081 124.69 43.9957 122.473 43.9892C120.584 43.946 118.73 44.4974 117.173 45.5657C115.945 46.4592 114.9 47.5799 114.095 48.8669C113.164 50.3115 112.658 51.9881 112.633 53.7061C112.68 55.3687 113.178 56.9873 114.073 58.3892C114.968 59.791 116.227 60.9235 117.715 61.6658H117.715Z"/><path id="Vector_16" d="M95.0784 69.1774L95.079 69.1781L95.0833 69.1748L95.0834 69.1748C95.0891 69.1701 95.1397 69.1299 95.2333 69.0651C95.4344 68.925 95.6477 68.8034 95.8706 68.7016C96.0637 68.6062 96.2734 68.5494 96.4882 68.5342C96.5857 68.5375 96.5901 68.5474 96.6116 68.5591C96.9482 68.7971 97.311 68.9956 97.6928 69.151C98.0441 69.2938 98.4191 69.3694 98.7983 69.374C99.3411 69.3719 99.8688 69.1944 100.303 68.868C100.659 68.5702 100.99 68.2435 101.292 67.8913C101.341 67.8389 101.396 67.7932 101.457 67.7556L101.462 67.7529L101.476 67.7522C101.59 67.7614 101.701 67.7915 101.804 67.8412C102.107 67.9769 102.394 68.1457 102.66 68.3447C103.388 68.9272 104.281 69.2646 105.212 69.3085C105.678 69.3061 106.138 69.2023 106.559 69.0043C106.963 68.7967 107.353 68.5626 107.726 68.3036C107.861 68.1983 108.023 68.1339 108.193 68.1181C108.478 68.1499 108.748 68.2612 108.972 68.4391C109.261 68.6264 109.613 68.691 109.95 68.6188C110.288 68.5465 110.582 68.3433 110.77 68.0538C110.957 67.7643 111.021 67.4123 110.949 67.0751C110.877 66.738 110.674 66.4434 110.384 66.2561H110.384C109.741 65.8018 108.98 65.5453 108.193 65.5181C107.729 65.5207 107.272 65.6252 106.852 65.8244C106.453 66.0323 106.066 66.265 105.695 66.5214C105.556 66.629 105.388 66.6939 105.212 66.7085C104.825 66.6564 104.463 66.4896 104.172 66.2296C103.746 65.9152 103.285 65.6501 102.799 65.4393C102.382 65.2573 101.932 65.1598 101.476 65.1523C100.928 65.1524 100.393 65.322 99.9453 65.6379C99.5621 65.9379 99.2112 66.2771 98.8983 66.6499C98.8578 66.6937 98.8134 66.7337 98.7657 66.7696C98.7225 66.7598 98.6802 66.7464 98.6393 66.7295C98.4434 66.6463 98.2573 66.5414 98.0846 66.4168C97.614 66.0972 97.057 65.9288 96.4882 65.9344C95.7302 65.9616 94.991 66.1781 94.338 66.5641C94.0222 66.7377 93.7213 66.9374 93.4386 67.1611C93.1712 67.3785 93.0012 67.6933 92.9658 68.0361C92.9305 68.379 93.0328 68.7218 93.2503 68.9892C93.4677 69.2566 93.7825 69.4267 94.1253 69.462C94.4682 69.4973 94.811 69.395 95.0784 69.1775L95.0784 69.1774Z"/></g></g></svg>