<svg xmlns="http://www.w3.org/2000/svg" width="200" height="200" fill="none"><path fill="#FFE632" d="M138.74 108.052c2.21.21 3.46-1.47 4.151-3.16l-.21-.111-.01.011s-2.86-.42-4.83.36c-.561.43-.91.98-.931 1.6.41.72 1 1.22 1.83 1.3ZM126.279 143.625l7.422 5.093 2.661-.898a18.249 18.249 0 0 0-1.018-5.8c-.768-2.23-5.097-.831-9.065 1.605ZM156.869 147.374a1.258 1.258 0 0 0-.282-.64c-.012-.014-.03-.02-.043-.033-2.1-4.619-.94-8.275-.94-8.275-2.731-2.128-5.441-3.369-6.628-2.285-1.885 1.726-3.318 11.545-1.967 14.63-.347.099-.696.194-1.05.276a1.301 1.301 0 0 0 .589 2.533c3.708-.863 7.121-2.548 9.921-5.012.316-.277.443-.672.417-1.061l.036-.025c-.019-.037-.034-.072-.053-.108Z"/><path fill="#FFE632" d="M165.786 124.996c0-1.596-.084-3.243-.257-4.939a2.941 2.941 0 0 0-.238-.847c-.185-.432-.429-.858-.701-1.308-.407-.67-.876-1.378-1.244-1.983-.183-.3-.34-.575-.444-.785a3.006 3.006 0 0 1-.112-.249l-.021-.059-.001-.005-.003.001a1.298 1.298 0 0 0-2.56.435c.056.322.153.561.261.808.193.425.443.852.718 1.301.151.247.312.498.47.747l-.692-.442a1.302 1.302 0 0 0-1.682.242l-2.987 3.439-4.429-5.938a1.299 1.299 0 0 0-1.513-.434l-12.179 4.735-3.374-6.113a1.297 1.297 0 0 0-1.508-.619l-7.792 2.316-1.352-5.045c.189-.233.376-.469.57-.694a1.3 1.3 0 0 0-1.973-1.694c-5.048 5.893-8.305 14.106-8.315 22.114 0 2.716.379 5.409 1.21 7.971a1.301 1.301 0 0 0 1.638.836c.327-.106.577-.334.73-.612 1.012 1.045 2.047 1.472 2.047 1.472s5.311-6.375 5.229-8.418c-.069-1.741-5.581-7.263-7.216-8.864a33.647 33.647 0 0 1 4.119-9.386l1.147 4.283a1.297 1.297 0 0 0 1.626.91l8.069-2.398 1.397 2.53c-2.804.65-4.912 1.727-4.891 3.118.041 2.683 7.328 11.117 10.052 10.951 1.721-.105 7.17-4.053 8.5-11.769.116-.672-.183-1.219-.769-1.655l3.055-1.188 4.804 6.439c.235.317.599.508.993.522.395.015.771-.149 1.03-.447l.614-.706c.027.078.04.163.082.236.557.981 2.734 2.235 5.237 3.252a35.756 35.756 0 0 1-.877 6.381 1.3 1.3 0 1 0 2.531.595c.655-2.783 1.001-5.804 1.001-9.037Z"/><path fill="#BEBEC9" d="M145.956 151.048a23.904 23.904 0 0 1-5.194.605 46.718 46.718 0 0 1 2.244-1.571l.224-.145.076-.049c.345-.219.568-.591.6-.998a1.306 1.306 0 0 0-.44-1.078c-.072-.062-.553-.471-1.418-.874a8.734 8.734 0 0 0-3.694-.796c-1.228-.001-2.645.251-4.187.882l-22.872-14.478c-.774-1.395-4.24-7.52-8.911-13.787-2.654-3.559-5.693-7.164-8.89-9.988-1.6-1.412-3.24-2.63-4.914-3.545-1.673-.913-3.386-1.527-5.127-1.675a22.54 22.54 0 0 0-1.913-.085c-2.817-.003-5.273.602-7.334 1.934-1.545.995-2.843 2.375-3.935 4.099-1.64 2.59-2.85 5.951-3.88 10.192-1.027 4.241-1.867 9.371-2.698 15.501-3.305 24.418-3.935 53.054-3.937 53.079a1.3 1.3 0 1 0 2.6.058c0-.001.01-.442.033-1.269.165-5.786 1.011-30.337 3.88-51.519 1.458-10.823 2.977-18.399 5.298-23.043 1.158-2.326 2.475-3.898 4.048-4.913 1.574-1.011 3.46-1.515 5.925-1.519.537 0 1.102.026 1.695.075 1.267.106 2.652.576 4.099 1.367 2.534 1.379 5.22 3.732 7.77 6.492 3.828 4.138 7.363 9.176 9.924 13.167 1.281 1.995 2.32 3.73 3.038 4.963a99.312 99.312 0 0 1 1.038 1.827l.07.128c.105.194.262.362.448.48l23.808 15.07c.503.318 1.127.231 1.549-.148.012-.004.024-.002.035-.007 1.308-.555 2.416-.737 3.34-.738.65 0 1.203.096 1.675.225-.145.103-.294.21-.445.32-.606.444-1.24.933-1.792 1.424a9.834 9.834 0 0 0-.763.745 4.449 4.449 0 0 0-.497.669c-.017.027-.035.05-.049.078-.019.034-.042.06-.06.096a1.3 1.3 0 0 0 .568 1.749c.306.156.643.171.949.083.87.079 1.738.128 2.597.128 1.146 0 2.277-.079 3.391-.219a5.913 5.913 0 0 1-1.588 1.439 6.17 6.17 0 0 1-3.793.88 1.289 1.289 0 0 0-1.112.477l-.006-.007a.87.87 0 0 1-.142.103c-.308.192-1.231.618-3.334.69-.187.006-.418.01-.685.01-2.234.001-6.9-.266-12.395-1.182-5.48-.912-11.802-2.473-17.432-5.02l-.8-.484a409.002 409.002 0 0 1-11.935-7.534c-2.494-1.643-4.99-3.344-7.104-4.893-2.11-1.542-3.851-2.957-4.76-3.92-1.379-1.454-2.16-3.178-2.675-4.975-.514-1.795-.74-3.635-1.043-5.262a1.3 1.3 0 0 0-2.555.48c.284 1.501.517 3.454 1.098 5.496.582 2.04 1.532 4.199 3.288 6.05.654.688 1.517 1.444 2.547 2.272 3.593 2.883 9.236 6.622 14.011 9.667 4.771 3.041 8.658 5.373 8.664 5.377l.132.069c5.946 2.696 12.485 4.299 18.137 5.241 5.656.941 10.406 1.217 12.822 1.218.29 0 .548-.004.775-.012 1.966-.068 3.248-.408 4.096-.801.313-.144.547-.294.746-.44.074.002.137.005.218.005a8.76 8.76 0 0 0 4.604-1.293 8.645 8.645 0 0 0 2.859-2.901 8.859 8.859 0 0 0 .934-2.116 1.3 1.3 0 0 0-1.544-1.626Zm-8.53 5.797-.006-.006.006.006ZM164.344 133.265a5.544 5.544 0 0 0-3.076-.906c-1.651.008-3.071.632-4.106 1.213-1.034.587-1.687 1.158-1.732 1.196a1.309 1.309 0 0 0-.403.655c-.521 2.036-.949 4.238-.951 6.343.002 1.571.238 3.11.95 4.468.703 1.359 1.948 2.479 3.635 3.029l.412-1.233-.411 1.233c.471.157.95.235 1.419.234.918.001 1.762-.295 2.475-.73 1.073-.658 1.903-1.611 2.575-2.613a13.801 13.801 0 0 0 1.5-3.013c.404-1.163.782-2.579.784-4.093.001-1.013-.175-2.08-.662-3.096-.483-1.016-1.285-1.955-2.409-2.687Zm-.167 9.018c-.342.987-.988 2.253-1.768 3.179-.387.465-.805.842-1.204 1.083-.402.243-.764.352-1.124.352-.186 0-.38-.029-.598-.101-1.108-.381-1.711-.954-2.157-1.774-.437-.822-.652-1.949-.65-3.256 0-.032.005-.068.005-.1l3.308 2.247a1.3 1.3 0 1 0 1.46-2.151l-4.474-3.039-.001-.001a28.7 28.7 0 0 1 .277-1.409c.013.001.023.01.036.012v-.001c1.093.129 2.124.655 2.868 1.172a8.554 8.554 0 0 1 1.09.896l.049.05.009.009v-.001a1.3 1.3 0 0 0 1.907-1.766c-.045-.048-.611-.658-1.577-1.327a10.361 10.361 0 0 0-1.999-1.069c.54-.196 1.104-.333 1.634-.329a2.92 2.92 0 0 1 1.652.482c.762.501 1.202 1.044 1.489 1.635.283.591.406 1.254.406 1.972.003 1.067-.286 2.232-.638 3.235ZM170.392 108.179c-.033-.034-.872-.903-2.26-1.969a25.307 25.307 0 0 0-1.866-1.284c.218-.812.703-2.914.705-5.636-.001-2.785-.518-6.225-2.458-9.46-1.729-2.896-4.623-5.56-9.077-7.364l-1.045-3.32a1.305 1.305 0 0 0-.787-.828 1.304 1.304 0 0 0-1.136.112l-2.757 1.703a12.21 12.21 0 0 0-.544-1.19c-.393-.74-.911-1.52-1.631-2.186-.715-.661-1.672-1.207-2.823-1.332a1.301 1.301 0 0 0-1.401 1.62c.32 1.232.443 2.335.443 3.311 0 .126-.015.234-.019.356-.47-.023-.942-.047-1.392-.047-5.611-.007-9.733 1.68-12.41 4.302-2.679 2.618-3.851 6.083-3.848 9.412 0 .268.008.535.023.799.034.634.051 1.21.051 1.733 0 1.19-.085 2.106-.221 2.839l-.012.049c-.256.06-.622.154-1.051.282-.388.115-.816.256-1.241.426a6.81 6.81 0 0 0-1.24.627 1.304 1.304 0 0 0-.559.851c-.062.347.02.707.226.992l.777 1.075-1.387.858a1.297 1.297 0 0 0-.578 1.416c.135.549.605.946 1.169.987l.795.056c-.005.112-.019.221-.019.333-.002 1.886.773 3.916 2.43 5.582a1.301 1.301 0 0 0 1.845-1.833c-1.2-1.21-1.673-2.566-1.675-3.749-.001-.684.161-1.305.431-1.798.302-.553.619-1.037.949-1.56.491-.779 1.014-1.659 1.381-2.84.369-1.181.58-2.628.58-4.593 0-.578-.018-1.2-.055-1.877-.012-.22-.019-.437-.019-.655.003-2.739.947-5.481 3.066-7.553 2.121-2.068 5.478-3.555 10.592-3.561.319 0 .662.02.994.033a9.949 9.949 0 0 1-.383 1.102 8.526 8.526 0 0 1-.786 1.43l-.152.218a1.303 1.303 0 0 0 .234 1.706 1.303 1.303 0 0 0 1.723-.023c1.681-1.528 3.373-2.397 4.887-2.895a12.21 12.21 0 0 1 3.785-.618c.06 0 .103.004.16.005.063.032.113.08.182.103 4.906 1.632 7.669 4.146 9.296 6.842 1.621 2.697 2.087 5.652 2.087 8.122 0 1.523-.177 2.851-.353 3.789-.04.21-.079.394-.116.563-.444-.202-.894-.4-1.369-.568a1.3 1.3 0 1 0-.865 2.452c1.894.666 3.636 1.789 4.881 2.747.104.08.2.156.297.233l-2.667.801a1.302 1.302 0 0 0-.77 1.863l1.015 1.88-2.11-.566a1.291 1.291 0 0 0-1.071.183c-.034.023-.586.391-1.335.752-.744.365-1.699.703-2.42.739a1.3 1.3 0 1 0 .154 2.595c1.339-.087 2.553-.584 3.483-1.035.432-.212.79-.414 1.061-.577l4.482 1.203a1.305 1.305 0 0 0 1.357-.45c.32-.406.369-.969.123-1.424l-1.693-3.132 3.374-1.012a1.302 1.302 0 0 0 .563-2.147Zm-24.344-24.992a13.097 13.097 0 0 0 .263-3.906 7.9 7.9 0 0 1 .945 1.711 10.922 10.922 0 0 1 .437 1.312l.017.072.003.014h.001c.006.03.021.056.029.085-.551.194-1.118.427-1.695.712Z"/><path fill="#BEBEC9" d="M59.11 152.396a1.302 1.302 0 0 0-2.203.346l-1.531 3.788c-1.02-.928-2.13-2.055-3.485-3.096-.934-.712-2.001-1.372-3.24-1.868-.294-.468-.592-.89-.88-1.265-1.146-1.488-2.141-2.243-2.21-2.296a1.299 1.299 0 0 0-2.052.768l-.415 1.94a19.206 19.206 0 0 0-3.535.546c-.103.026-.195.064-.296.093-1.867-.847-3.525-.998-4.448-.999-.458 0-.74.036-.79.042a1.298 1.298 0 0 0-1.046 1.737l.994 2.703a15.585 15.585 0 0 0-1.897 2.752c-.697 1.3-1 2.274-1.018 2.331a1.3 1.3 0 0 0 1.94 1.479l.001.001c.052-.046 2.505-1.519 5.234-1.502a7.053 7.053 0 0 1 2.968.627c.993.457 1.994 1.197 2.959 2.415 2.517 3.178 4.265 6.61 6.518 9.597 1.128 1.49 2.396 2.87 3.968 3.995 1.57 1.126 3.444 1.982 5.703 2.445a1.3 1.3 0 0 0 .523-2.547c-1.925-.398-3.421-1.091-4.713-2.013-1.933-1.38-3.42-3.326-4.922-5.619-1.503-2.287-3.007-4.898-5.037-7.47-1.192-1.511-2.54-2.538-3.917-3.167a9.674 9.674 0 0 0-4.05-.863c-1.201.002-2.29.208-3.24.474.043-.065.08-.129.126-.194.543-.795 1.233-1.61 2.072-2.286.841-.678 1.822-1.219 2.989-1.506a17.462 17.462 0 0 1 2.348-.415l-.048.223c-.074.344-.002.711.196 1.002.198.291.512.493.86.551 1.468.244 2.744.975 3.644 1.664.45.342.803.67 1.038.906.118.118.205.213.261.275l.06.068.008.01.002.002a1.303 1.303 0 0 0 1.564.346c.538-.257.833-.853.712-1.437a16.39 16.39 0 0 0-.343-1.34c.358.28.709.572 1.052.878.941.836 1.834 1.742 2.811 2.56l-1.017 2.516a1.301 1.301 0 0 0 .28 1.4c3.228 3.266 7.104 5.435 7.158 5.47a1.3 1.3 0 0 0 1.276-2.265v-.001l-.034-.019c-.349-.196-3.344-1.964-5.943-4.419l2.39-5.911c.797 1.137 1.784 2.686 2.49 4.27a1.3 1.3 0 0 0 2.373-1.064c-1.598-3.548-4.172-6.607-4.207-6.658ZM68.14 115.874c-.155.006-.308.009-.46.009-1.878-.003-3.34-.448-4.53-1.106-1.78-.983-2.965-2.494-3.698-3.784a11.852 11.852 0 0 1-.773-1.637 8.811 8.811 0 0 1-.165-.476l-.036-.117-.006-.024a1.293 1.293 0 0 0-.613-.8 1.291 1.291 0 0 0-1.003-.121c-4.589 1.315-9.08 4.389-13.246 9.023-4.167 4.637-8.02 10.851-11.32 18.544a1.301 1.301 0 0 0 2.308 1.183c.013-.023.962-1.563 2.717-3.046 1.765-1.49 4.273-2.904 7.53-2.905.163 0 .326.003.49.011h.003c1.035.045 2.013.333 2.914.759 1.35.637 2.507 1.592 3.309 2.387a13.911 13.911 0 0 1 1.155 1.294l.054.071.01.015h.001a1.302 1.302 0 0 0 2.086.035c.027-.037 1.197-1.525 3.092-2.962.946-.719 2.072-1.424 3.315-1.941 1.244-.519 2.6-.851 4.035-.851.152 0 .3.003.447.011a1.3 1.3 0 0 0 .14-2.596 10.712 10.712 0 0 0-.587-.015c-1.87 0-3.592.44-5.107 1.081-2.274.964-4.097 2.374-5.37 3.542-.376.345-.697.665-.973.952a17.326 17.326 0 0 0-1.55-1.466 14.075 14.075 0 0 0-2.944-1.907c-1.148-.543-2.467-.943-3.913-1.006h.002c-.208-.01-.411-.014-.61-.014-2.852 0-5.226.889-7.108 2.023 2.434-4.573 5.07-8.416 7.808-11.461 3.551-3.954 7.258-6.569 10.876-7.876.356.854.94 2.02 1.866 3.218.87 1.124 2.046 2.267 3.603 3.131 1.556.864 3.491 1.433 5.791 1.431.183 0 .37-.004.56-.011a1.3 1.3 0 0 0-.1-2.598ZM133.871 157.627a1.298 1.298 0 0 0-1.165 1.421l2.913 29.355a1.3 1.3 0 1 0 2.587-.257l-2.913-29.354a1.3 1.3 0 0 0-1.422-1.165ZM151.546 96.13a1.3 1.3 0 0 0-1.689.724c-.292.735-.484 1.52-.617 2.145a17.955 17.955 0 0 0-.199 1.095 1.3 1.3 0 1 0 2.573.369l.009-.06c.024-.153.094-.576.206-1.076.111-.499.269-1.079.442-1.508a1.3 1.3 0 0 0-.725-1.69ZM132.944 97.632c.023-.152.094-.576.206-1.076.11-.498.268-1.078.441-1.508a1.3 1.3 0 1 0-2.414-.965c-.292.735-.484 1.521-.617 2.146-.131.622-.196 1.075-.199 1.095a1.3 1.3 0 1 0 2.574.369l.009-.06ZM144.001 100.394c-2.622-.603-4.54-.869-7.852-1.119a1.302 1.302 0 0 0-1.393 1.183c-.003.027-.053.604-.053 1.449 0 .729.036 1.657.181 2.619.148.962.39 1.961.893 2.864l.004.006c.273.479.631.932 1.111 1.289a3.408 3.408 0 0 0 1.723.661l.007.001c.162.014.325.022.487.022a4.606 4.606 0 0 0 1.857-.381c.837-.367 1.488-.952 1.987-1.588.501-.639.863-1.338 1.141-2.016.741-1.821.9-3.526.91-3.595a1.298 1.298 0 0 0-1.003-1.395Zm-2.313 4.005c-.281.691-.663 1.334-1.092 1.744a2.31 2.31 0 0 1-.672.463 1.992 1.992 0 0 1-.815.163l-.245-.011a.806.806 0 0 1-.421-.159 1.58 1.58 0 0 1-.402-.488c-.262-.459-.473-1.197-.586-1.972a15.126 15.126 0 0 1-.151-2.159c1.949.173 3.337.366 4.914.689a10.724 10.724 0 0 1-.53 1.73ZM126.481 92.32c-1.226 1.132-3.223 2.624-5.623 4.126a62.028 62.028 0 0 1-8.106 4.284 1.3 1.3 0 0 0 1.034 2.386 64.706 64.706 0 0 0 8.453-4.467c2.506-1.572 4.593-3.12 6.004-4.416a1.301 1.301 0 0 0-1.762-1.912ZM101.401 104.336c-3.874.737-8.835 1.27-11.86 1.467a1.299 1.299 0 1 0 .17 2.594c3.136-.206 8.134-.741 12.174-1.506a1.3 1.3 0 0 0-.484-2.555ZM74.383 104.811c-5.576-1.183-9.706-3.09-12.432-4.689a28.337 28.337 0 0 1-3.036-2.036 16.651 16.651 0 0 1-.734-.6l-.171-.154-.037-.034-.006-.006a1.296 1.296 0 0 0-.87-.365h-.007c-.145-.005-1.915-.085-4.147-.723-1.647-.467-3.53-1.24-5.226-2.467l6.169-1.733a1.3 1.3 0 0 0 .006-2.502l-.015-.004c-.227-.065-2.707-.842-5.031-2.468-1.164-.81-2.282-1.826-3.09-3.031a7.836 7.836 0 0 1-1.1-2.507l12.056 3.158a1.3 1.3 0 0 0 .659-2.514l-4.85-1.271c-.012-.074-.004-.147-.029-.22-3.592-10.611-5.217-19.305-5.215-26.466.003-7.19 1.618-12.824 4.52-17.453C54.702 32.1 58.935 28.444 64.3 25.36c3.615-2.086 9.186-4.426 15.556-6.11 1.11.213 3.548.859 6.177 2.698 3.541 2.485 7.507 7.084 9.214 16.04a1.3 1.3 0 0 0 2.559-.031h.001c.012-.07.33-1.728 1.879-3.56 1.554-1.832 4.325-3.905 9.535-4.816a1.3 1.3 0 0 0 .913-1.915c-.054-.094-1.024-1.817-3.144-3.559-2.112-1.74-5.427-3.488-9.974-3.483-.589 0-1.2.033-1.829.094l.6-3.787c.308-.005.615-.017.921-.017 4.151 0 8.239.498 12.02 1.663 3.782 1.166 7.255 2.993 10.224 5.662 4.475 4.022 6.978 9.066 8.376 14.284 1.397 5.213 1.664 10.574 1.663 15.087 0 2.635-.09 4.977-.091 6.866.002 1.186.033 2.186.169 3.036.494 3.044 1.446 5.193 2.316 7.208.873 2.025 1.671 3.92 2.091 6.771v.004c.12.802.188 1.6.188 2.4 0 .826-.073 1.654-.238 2.497a1.3 1.3 0 1 0 2.551.502c.2-1.02.287-2.02.287-3 0-.946-.081-1.872-.216-2.78-.395-2.718-1.141-4.74-1.898-6.54a10.03 10.03 0 0 0 3.119-4.145c.565-1.414.618-2.47.624-2.573a1.305 1.305 0 0 0-.674-1.196l-1.471-.806c.189-.466.41-1.052.634-1.737.558-1.712 1.127-4 1.129-6.403 0-.38-.014-.76-.045-1.14a1.304 1.304 0 0 0-.828-1.107 1.303 1.303 0 0 0-1.357.265l-3.702 3.473c.006-.52.012-1.046.012-1.596-.001-4.615-.265-10.197-1.751-15.758-1.485-5.556-4.216-11.115-9.15-15.546-3.282-2.952-7.113-4.955-11.197-6.212-4.086-1.259-8.428-1.778-12.785-1.779-.169 0-.337.008-.506.01l.447-2.82a1.297 1.297 0 0 0-1.412-1.497c-.09.011-1.79.18-3.87 1.116a12.69 12.69 0 0 0-3.24 2.082 11.15 11.15 0 0 0-1.55 1.705l-1.68-2.902a1.302 1.302 0 0 0-1.727-.501c-.054.03-1.14.594-2.323 1.611-.591.51-1.21 1.135-1.73 1.892a6.407 6.407 0 0 0-.937 2.008c-6.157 1.716-11.506 3.975-15.178 6.088-5.614 3.228-10.219 7.162-13.406 12.24-3.19 5.074-4.922 11.258-4.918 18.834.001 7.225 1.576 15.747 4.906 25.916l-6.133-1.607a1.3 1.3 0 0 0-1.63 1.265c.01 2.293.778 4.265 1.88 5.845 1.642 2.353 3.97 3.904 5.892 4.912l-4.899 1.376a1.302 1.302 0 0 0-.586 2.152c2.582 2.687 5.807 4.033 8.365 4.734 1.834.5 3.326.667 4.06.724 1.443 1.247 7.15 5.701 17.31 7.858a1.3 1.3 0 1 0 .54-2.543Zm57.199-46.044 3.152-2.959a21.367 21.367 0 0 1-.824 3.5 24.443 24.443 0 0 1-.694 1.865c-.094.224-.172.397-.225.512l-.06.128-.014.03-.002.005a1.302 1.302 0 0 0 .541 1.714l1.707.935a7.01 7.01 0 0 1-.391 1.162 7.366 7.366 0 0 1-1.689 2.405c-.601-1.47-1.124-2.986-1.449-4.971-.096-.575-.136-1.49-.135-2.618 0-.51.008-1.075.018-1.668.02-.017.046-.022.065-.04ZM83.232 14.54c.033-.023.06-.04.09-.062l2.12 3.658a1.298 1.298 0 0 0 2.311-.12 8.442 8.442 0 0 1 2.105-2.874c1.23-1.1 2.66-1.752 3.781-2.116.052-.016.092-.025.142-.04l-1.438 9.057a1.302 1.302 0 0 0 1.522 1.481c1.13-.21 2.179-.302 3.15-.302 3.874.005 6.551 1.446 8.325 2.893.565.463 1.022.922 1.394 1.337-4.683 1.196-7.556 3.414-9.219 5.487-.227.282-.428.559-.613.83-.909-3.097-2.11-5.662-3.473-7.765-2.814-4.348-6.287-6.727-9.052-7.991a18.365 18.365 0 0 0-3.345-1.168c.068-.122.144-.244.227-.365.52-.763 1.313-1.46 1.974-1.94Z"/><path fill="#BEBEC9" d="M128.665 78.022a1.297 1.297 0 0 0-1.307 1.262h-.005v.001a1.76 1.76 0 0 1-.151.539 2.161 2.161 0 0 1-.76.898c-.454.318-.915.628-1.38.931-.34.222-.524.576-.565.95-.016.043-.047.076-.06.12l-.676 2.516-1.796-.874a1.297 1.297 0 0 0-1.451-.079c-5.405 3.256-11.831 5.42-18.127 6.765-6.294 1.348-12.459 1.882-17.326 1.927-.434.004-.797.233-1.03.56l-2.529 2.101-1.421-2.036c-.023-.032-.058-.048-.082-.078-.211-.377-.586-.654-1.05-.677a51.575 51.575 0 0 1-4.19-.37c-1.635-.224-2.534-.789-3.12-1.4a1.3 1.3 0 1 0-1.888 1.788c1 1.064 2.546 1.914 4.666 2.19.83.11 2.096.247 3.75.348l2.013 2.883c.207.296.534.495.893.544.358.048.725-.058 1.004-.289l3.584-2.977a91.41 91.41 0 0 0 17.27-1.971c6.254-1.34 12.668-3.469 18.268-6.71l2.841 1.382c.351.17.753.175 1.108.014.355-.162.615-.47.716-.846l1.045-3.891c.343-.228.686-.455 1.025-.692a4.751 4.751 0 0 0 1.746-2.219c.257-.684.27-1.191.272-1.298a1.299 1.299 0 0 0-1.287-1.312Z"/><path fill="#BEBEC9" d="M109.19 82.737a1.3 1.3 0 0 0-1.453 1.126l-.186 1.466a1.3 1.3 0 0 0 2.58.327l.185-1.466a1.3 1.3 0 0 0-1.126-1.453ZM97.658 85.746a1.3 1.3 0 0 0 .195 1.828l1.022.826a1.3 1.3 0 1 0 1.633-2.024l-1.022-.825a1.3 1.3 0 0 0-1.828.195ZM79.805 77.333a3.206 3.206 0 0 1 1.828-.55 3.89 3.89 0 0 1 2.46.907c.739.617 1.371 1.534 1.676 2.987a3 3 0 0 0 5.878-1.202c-.544-2.693-1.916-4.922-3.737-6.415a9.883 9.883 0 0 0-6.276-2.277c-2.415-.008-4.886.942-6.691 2.86a9.933 9.933 0 0 0-2.106 3.466c-.484 1.338-.732 2.832-.731 4.447 0 .564.03 1.14.09 1.73a3 3 0 1 0 5.97-.606h-.001c-.04-.402-.06-.777-.06-1.124 0-1.006.153-1.796.374-2.407.338-.916.802-1.45 1.326-1.816ZM118.34 67.764c.355-.173.681-.243.967-.244.216.001.414.038.628.123.316.131.696.378 1.134.951.433.571.9 1.478 1.256 2.814a3.001 3.001 0 0 0 5.797-1.548c-.687-2.57-1.798-4.624-3.347-6.095a8.296 8.296 0 0 0-2.586-1.682 7.653 7.653 0 0 0-2.882-.563 8.192 8.192 0 0 0-3.612.859c-1.652.814-3.032 2.12-4.017 3.749-.984 1.63-1.565 3.601-1.565 5.734 0 1.135.165 2.31.509 3.494a3.001 3.001 0 0 0 5.762-1.676 6.487 6.487 0 0 1-.271-1.818c.001-1.39.498-2.513 1.168-3.27a3.493 3.493 0 0 1 1.059-.828ZM74.972 59.273c.684-.432 1.374-.78 1.996-1.03.62-.25 1.178-.4 1.554-.45a1.3 1.3 0 0 0-.343-2.576c-.899.122-1.9.454-2.97.96-1.598.764-3.323 1.926-4.728 3.48-1.398 1.548-2.493 3.533-2.605 5.86a1.3 1.3 0 0 0 2.598.124c.05-1.046.392-2.02.952-2.935.834-1.37 2.174-2.571 3.546-3.433ZM118.64 50.296c.995.507 1.847 1.273 2.49 2.53a1.3 1.3 0 0 0 2.32-1.174c-.878-1.744-2.194-2.956-3.642-3.679-1.449-.727-3.008-.99-4.473-.992-.877 0-1.723.096-2.507.253a1.299 1.299 0 1 0 .512 2.55h-.001a10.224 10.224 0 0 1 1.996-.203c1.152 0 2.311.214 3.305.715Z"/></svg>