<svg xmlns="http://www.w3.org/2000/svg" width="200" height="200" fill="none"><path fill="#FFD93A" d="M81.855 126.312c2.311 1.095 10.215 3.162 10.337 4.986.121 1.823-.487 6.567.73 7.782 1.216 1.216 4.499.366 4.499.366s-.487 7.782.365 11.308c.85 3.528 5.351.974 5.715-1.459.365-2.431 0-12.646.729-13.863.731-1.216 7.054-3.77 7.175-5.837.122-2.067-.364-4.985-3.283-6.323-2.918-1.338-4.013-4.013-4.864-7.175s-6.446-4.135-10.093-3.04c-3.649 1.095-4.5 3.526-8.877 2.067-4.378-1.459-6.567 1.825-6.567 1.825-2.554 4.499 1.824 8.268 4.134 9.363ZM106.79 165.244c-1.72-.423-2.202-2.391-5.13-2.307-3.897.112-10.54 2.982-11.031 5.289-.6 2.808 4.998 2.594 7.286 2.762 2.289.167 4.569.19 9.047-.026 4.48-.215 13.116.421 12.925-1.903-.09-1.105-2.023-2.075-4.006-2.726-.526-.173-1.996-.747-4.355-.876-1.731-.095-3.017.209-4.736-.213Z"/><path fill="#191C22" d="M107.631 92.24c-1.244-.57-2.656-.961-3.783-1.228-1.125-.264-1.955-.396-1.977-.4a1.295 1.295 0 0 0-.911.194c-.026.018-1.55 1.007-3.117 2.334-.785.666-1.581 1.413-2.225 2.212a6.954 6.954 0 0 0-.83 1.267c-.22.451-.387.949-.39 1.52-.002.425.11.89.352 1.288.24.402.588.72.977.956l.002.001c.573.328 1.088.37 1.654.381.778-.002 1.658-.153 2.633-.443a15.617 15.617 0 0 0 3.095-1.32c1.76-.975 3.065-1.144 4.126-1.244.539-.054 1.005-.06 1.567-.203.279-.077.607-.204.916-.47.31-.262.537-.66.625-1.027l.001-.004c.051-.198.079-.407.079-.617.002-.647-.268-1.22-.6-1.635-.594-.732-1.366-1.171-2.194-1.562Zm-2.452 3.2c-.967.215-2.096.599-3.335 1.291-.898.501-1.789.866-2.574 1.1-.781.236-1.465.337-1.886.334-.151 0-.266-.012-.325-.024l-.014-.004-.04-.03c.003-.044.025-.158.117-.342.18-.377.603-.929 1.14-1.475.803-.828 1.846-1.67 2.677-2.29.408-.304.763-.555 1.02-.731.713.134 2.092.425 3.371.858.806.27 1.568.606 2.03.922.043.028.068.052.104.08-.547.047-1.338.1-2.285.311Z"/><path fill="#191C22" d="M190.721 93.585c-3.288-1.123-8.058-2.25-13.671-3.109-5.61-.856-12.053-1.438-18.637-1.438-1.214 0-2.432.026-3.651.068a267.517 267.517 0 0 0-.843-7.241c8.447-1.558 16.436-2.182 22.567-2.18 3.876-.003 7.021.25 8.99.643a1.3 1.3 0 0 0 .506-2.55c-2.254-.445-5.503-.692-9.496-.694-6.269.002-14.347.627-22.914 2.2a347.455 347.455 0 0 0-1.627-10.74c-.751-4.415-1.601-8.66-2.533-11.784-4.102-13.761-11.197-21.268-17.303-25.251-6.106-3.989-11.172-4.489-11.313-4.503a1.3 1.3 0 0 0-1.422 1.271l-.35 19.97-24.107-4.561a1.297 1.297 0 0 0-1.327.562 1.297 1.297 0 0 0 .007 1.44l1.666 2.477c-6.552.238-12.472.629-16.99.986-4.728-4.439-10.465-7.032-16.05-8.52-5.59-1.49-11.045-1.881-15.288-1.882-4.862 0-8.135.517-8.184.525a1.304 1.304 0 0 0-1.024.855c-.157.45-.053.955.27 1.307L50.727 55.33c-1.798 8.237-3.353 16.694-4.674 24.932a125.946 125.946 0 0 0-4.075-.069c-6.603 0-12.766.508-17.91 1.248-5.15.744-9.26 1.707-11.858 2.677a1.3 1.3 0 1 0 .912 2.435c2.29-.862 6.3-1.82 11.316-2.539 5.021-.723 11.07-1.221 17.54-1.221 1.207 0 2.434.026 3.666.062a561.424 561.424 0 0 0-1.173 7.93c-5.471.593-10.876 1.606-15.837 2.841-8.008 1.998-14.83 4.547-18.98 6.916a1.3 1.3 0 1 0 1.29 2.257c3.792-2.175 10.493-4.705 18.318-6.65a117.566 117.566 0 0 1 14.84-2.7 581.5 581.5 0 0 0-1.193 9.343 154.45 154.45 0 0 0-8.432 3.417c-3.879 1.711-7.446 3.484-10.372 5.153a52.357 52.357 0 0 0-3.873 2.413c-1.108.77-2.019 1.495-2.714 2.2a1.3 1.3 0 1 0 1.852 1.824c1.04-1.065 3.204-2.576 6.024-4.179 4.502-2.572 10.712-5.453 17.175-7.922-.925 8.091-1.573 15.304-1.96 21.028-.982.972-3.75 3.838-6.536 7.913-3.436 5.041-6.941 11.942-6.953 19.489 0 .285.005.572.016.861.105 2.906.694 5.303 1.657 7.254 1.438 2.932 3.725 4.796 6.174 5.857 2.453 1.068 5.065 1.389 7.367 1.39 4.05-.001 8.371-.829 12.598-2.058 6.338-1.845 12.462-4.603 17.026-6.951a90.86 90.86 0 0 0 5.503-3.058 31.787 31.787 0 0 0 1.576-1.011c.082-.057.153-.109.222-.159.31.029.709.054 1.172.055.213-.001.448-.012.684-.026l.976 8.381a1.298 1.298 0 0 0 2.346.61l11.894-16.482c.09 1.371.453 2.515 1.107 3.372.747.992 1.89 1.538 3.009 1.527 1.247-.002 2.428-.608 3.275-1.606.851-1.001 1.373-2.407 1.371-4.053v-10.653c.001-.47.074-.786.172-1.018.086-.204.192-.355.34-.506.256-.261.681-.512 1.257-.759.858-.378 2.009-.719 3.145-1.417a6.244 6.244 0 0 0 1.606-1.405 6.145 6.145 0 0 0 1.106-2.205c.154-.549.23-1.091.229-1.616a5.512 5.512 0 0 0-.775-2.806c-.713-1.215-1.762-2.123-2.842-2.858-1.083-.732-2.217-1.292-3.152-1.729-.268-.125-.407-.234-.482-.309l-.125-.184c-.055-.118-.104-.37-.124-.787-.037-.618-.022-1.556-.335-2.661-.312-1.108-.968-2.345-2.191-3.621-.825-.866-1.729-1.496-2.676-1.896a7.298 7.298 0 0 0-2.877-.569c-1.59.003-3.106.447-4.535 1.02-1.43.576-2.783 1.292-4.02 1.909-.984.49-1.611.607-2.08.609-.531 0-.965-.157-1.638-.416-.657-.251-1.544-.589-2.684-.587-.34 0-.698.029-1.073.092-1.309.221-2.663.726-3.769 1.669a5.45 5.45 0 0 0-1.372 1.764 5.433 5.433 0 0 0-.53 2.386c.004 1.54.57 3.238 1.76 5.14l.707 6.077c-1.216.095-2.38.351-3.315.61-.67.186-1.213.37-1.563.495-.038-.006-.07-.027-.108-.029-.022-.002-2.282-.151-5.61-.151-3.947.001-9.387.206-14.422 1.128a1.3 1.3 0 1 0 .47 2.557c4.777-.877 10.1-1.086 13.951-1.085 1.626 0 2.991.037 3.947.073a66.17 66.17 0 0 1 1.315.061 1.29 1.29 0 0 0 1.002.017l.023-.009c.14-.055.892-.34 1.887-.606.994-.268 2.239-.509 3.307-.506.756-.004 1.404.125 1.808.341.204.107.353.228.475.377.121.15.223.334.297.615.142.541.196 1.152.196 1.712a10.249 10.249 0 0 1-.154 1.742l-.019.098-.004.02c-.082.372 0 .755.228 1.06.228.304.572.491.95.517l.003.001a7.178 7.178 0 0 1 2.137.566c.496.225.956.528 1.284.897.327.373.548.79.622 1.417l.009.159c-.001.334-.114.648-.362 1.001-.365.526-1.044 1.044-1.634 1.385a8.586 8.586 0 0 1-.968.49l-.051.021-.01.004a1.294 1.294 0 0 0-.772.825c-.12.381-.059.79.166 1.12.025.036.393.59.736 1.301.172.355.337.748.452 1.122.117.372.178.725.177.973l-.014.199c-.088.574-.272.953-.508 1.258-.353.45-.891.766-1.563.968-.666.202-1.43.27-2.069.269a10.072 10.072 0 0 1-1.311-.088l-.068-.01-.013-.002c-.481-.083-.94.121-1.227.479a5.377 5.377 0 0 1-.312.226c-.805.557-2.599 1.652-5.004 2.946-3.613 1.946-8.641 4.368-14.03 6.292-5.385 1.927-11.138 3.344-16.131 3.34-2.751.004-5.86-.54-8.223-2.243-1.187-.853-2.212-1.986-2.988-3.555-.773-1.569-1.294-3.587-1.39-6.2-.01-.256-.014-.51-.014-.765-.011-6.713 3.21-13.22 6.5-18.022a55.3 55.3 0 0 1 4.517-5.74 46.692 46.692 0 0 1 1.48-1.572c.178-.179.316-.314.409-.404l.104-.1.03-.028c.242-.227.388-.534.41-.865.398-6.054 1.103-13.892 2.133-22.713 4.829-1.735 9.685-3.19 13.98-4.056a1.3 1.3 0 0 0-.517-2.548c-4.092.83-8.607 2.153-13.12 3.728.34-2.797.713-5.68 1.117-8.626 2.604-.23 5.206-.37 7.758-.37 1.53 0 3.044.046 4.529.142a1.3 1.3 0 0 0 .167-2.595 73.272 73.272 0 0 0-4.696-.146c-2.441 0-4.916.121-7.39.325.353-2.488.728-5.014 1.126-7.566 3.588.185 7.235.518 10.862 1.08a1.3 1.3 0 0 0 .398-2.569c-3.632-.563-7.272-.9-10.852-1.093 1.34-8.328 2.918-16.872 4.745-25.163a1.305 1.305 0 0 0-.312-1.158L41.642 41.566a63.523 63.523 0 0 1 5.293-.217c4.081 0 9.327.382 14.618 1.794 4.56 1.214 9.137 3.194 13.082 6.312-3.29.291-5.234.508-5.243.51a1.3 1.3 0 1 0 .289 2.583l.54-.058c2.5-.263 13.376-1.348 26.504-1.773.078-.003.145-.037.22-.052l.374.557-8.284 4.37a1.296 1.296 0 0 0-.69 1.254c.042.52.387.96.88 1.127l7.234 2.437-1.605 2.082a1.3 1.3 0 1 0 2.059 1.587l2.718-3.524c.257-.334.337-.768.214-1.171a1.296 1.296 0 0 0-.829-.855l-6.088-2.052 6.884-3.63c.324-.171.565-.477.654-.832.09-.356.023-.74-.182-1.043l-2.794-4.154 22.161 4.194c.301.057.589-.013.84-.146.614-.094 1.098-.595 1.109-1.237l.346-19.78c1.815.416 5.201 1.467 9.004 4.011 5.568 3.731 12.075 10.628 15.971 23.644.875 2.926 1.721 7.116 2.461 11.475.625 3.68 1.179 7.482 1.633 10.8-4.19.855-8.464 1.937-12.673 3.29a1.3 1.3 0 1 0 .796 2.475c4.047-1.303 8.171-2.35 12.224-3.18a255.3 255.3 0 0 1 .798 6.864c-4.236.256-8.443.787-12.438 1.692a1.3 1.3 0 0 0 .575 2.536c3.856-.875 7.961-1.39 12.114-1.638.278 3.037.494 6.081.582 8.769-4.06-.648-8.046-1.097-11.663-1.236a1.3 1.3 0 1 0-.1 2.598c3.614.137 7.667.602 11.805 1.277-.005 1.351-.055 2.549-.161 3.499-.102.986-.295 1.726-.433 1.981-.035.071-.038.147-.059.22l-.046.022a8.779 8.779 0 0 0-1.735 1.284 4.009 4.009 0 0 0-.945-1.216c-.593-.518-1.456-.863-2.411-.854a5.7 5.7 0 0 0-3.306 1.122c-.914.669-1.579 1.497-2.069 2.266a5.8 5.8 0 0 0-1.111-1.13c-.591-.45-1.383-.807-2.295-.805a4.01 4.01 0 0 0-1.755.424c-.58.28-1.142.689-1.703 1.232-.883.855-1.535 1.731-1.963 2.648a6.51 6.51 0 0 0-.618 2.793c0 .341.024.68.069 1.016.024.173.063.388.123.705l.037.189c-.006.075-.028.146-.021.223h-.002c0 .003.004.056.004.15-.002.463-.098 1.868-1.216 3.456-1.122 1.585-3.298 3.443-7.762 4.702a1.3 1.3 0 1 0 .703 2.503c4.895-1.367 7.683-3.568 9.184-5.708.059-.083.103-.163.157-.246a2684.27 2684.27 0 0 0 2.354 10.992c1.445 6.691 2.781 12.81 2.781 12.811a1.3 1.3 0 0 0 2.54-.554c-.001-.005-.38-1.741-.953-4.379-.861-3.958-2.158-9.938-3.261-15.098-.552-2.58-1.056-4.955-1.433-6.767-.188-.906-.344-1.672-.458-2.249a26.01 26.01 0 0 1-.2-1.074 5.084 5.084 0 0 1-.046-.672 3.9 3.9 0 0 1 .374-1.694c.267-.572.708-1.193 1.416-1.879.405-.393.753-.628 1.025-.759.273-.131.466-.164.624-.165.24.002.456.079.731.282.405.296.827.888 1.098 1.408.138.259.244.496.312.662l.075.191.016.045.002.007h.001a1.298 1.298 0 0 0 2.472-.028 8.848 8.848 0 0 1 1.087-2.127c.35-.496.779-.966 1.256-1.302.481-.336.991-.546 1.605-.587l.013-.001.113-.003c.4.009.554.098.723.231.246.194.476.669.579 1.139.054.231.083.448.096.599l.011.17.002.037a1.298 1.298 0 0 0 2.381.718 9.91 9.91 0 0 1 1.338-1.532 6.098 6.098 0 0 1 1.248-.915c.432-.23.842-.347 1.203-.346.137 0 .27.015.408.05l.121.058c.039.034.126.144.197.395.072.247.116.609.115 1.025.003.952-.222 2.157-.457 3.089-.117.468-.235.871-.322 1.154l-.104.326-.028.083-.008.022c-.141.402-.074.852.177 1.197l.031.042c.343.477 3.478 4.904 6.509 11.259 3.036 6.353 5.947 14.636 5.94 22.744 0 1.006-.044 2.01-.137 3.007-.254 2.703-1.221 5.424-3.194 7.441-.989 1.012-2.235 1.865-3.828 2.477-1.592.611-3.538.98-5.912.98H129.162a1.3 1.3 0 1 0 0 2.6H154.334c2.642 0 4.914-.412 6.844-1.152 2.897-1.108 5-2.972 6.381-5.137 1.386-2.165 2.076-4.61 2.297-6.966.102-1.083.149-2.168.149-3.25-.007-9.006-3.269-17.857-6.496-24.492-2.582-5.297-5.152-9.17-6.099-10.539.093-.307.207-.703.322-1.165.261-1.051.532-2.398.535-3.72-.004-.775-.086-1.553-.421-2.304a3.123 3.123 0 0 0-.75-1.046 2.851 2.851 0 0 0-1.232-.651 4.217 4.217 0 0 0-.603-.101c.079-.397.144-.816.198-1.279.107-.971.158-2.096.171-3.33a151.46 151.46 0 0 1 10.534 2.314c4.059 1.049 7.817 2.206 10.882 3.344a50.074 50.074 0 0 1 4.02 1.671c1.129.536 2.031 1.052 2.626 1.489a1.3 1.3 0 0 0 1.535-2.099c-.802-.585-1.82-1.154-3.043-1.738-4.267-2.027-11.061-4.2-18.519-5.962a153.658 153.658 0 0 0-8.06-1.671c-.077-2.858-.299-6.099-.593-9.33 1.134-.036 2.269-.06 3.401-.06 6.431 0 12.754.57 18.245 1.409 5.487.837 10.153 1.948 13.222 2.998a1.3 1.3 0 0 0 .841-2.46Zm-112.18 24.638c.25-.519.673-.95 1.246-1.297.568-.345 1.276-.586 1.98-.702.243-.04.454-.057.646-.057.638.003 1.102.166 1.756.416.64.242 1.478.587 2.567.587.951.001 2.011-.266 3.242-.883 1.27-.636 2.566-1.316 3.827-1.823 1.262-.51 2.479-.835 3.565-.832a4.7 4.7 0 0 1 1.863.363c.598.254 1.197.656 1.809 1.297.851.894 1.256 1.626 1.482 2.26.34.951.271 1.742.359 2.777.05.51.164 1.12.533 1.706.368.588.952 1.053 1.665 1.381 1.182.548 2.594 1.276 3.631 2.156.519.438.939.907 1.215 1.383.277.479.42.95.422 1.497 0 .277-.038.577-.133.915-.284.973-.709 1.47-1.302 1.915-.447.327-1.008.592-1.636.845-.939.391-2.027.718-3.032 1.471a4.292 4.292 0 0 0-1.278 1.536c-.318.648-.475 1.405-.474 2.244v10.653c-.001 1.106-.338 1.879-.753 2.37-.42.493-.912.691-1.293.689-.346-.011-.63-.116-.945-.509-.307-.394-.611-1.16-.61-2.428v-9.048c0-.59-.401-1.069-.94-1.228a1.287 1.287 0 0 0-1.512.082c-.197.171-.636.336-1.12.332-.515.002-1.035-.172-1.368-.462a1.529 1.529 0 0 1-.408-.544 2.195 2.195 0 0 1-.173-.911v-5.806c0-.578-.376-1.082-.93-1.247-4.397-1.307-7.652-2.862-9.795-4.079a28.844 28.844 0 0 1-2.384-1.5c-.26-.183-.45-.327-.573-.422l-.016-.012c-1.05-1.657-1.407-2.934-1.404-3.83a2.83 2.83 0 0 1 .27-1.255Zm5.722 37.314a5.229 5.229 0 0 0 1.844-1.459c.523-.661.893-1.506 1.037-2.48.03-.199.041-.393.042-.584-.002-.64-.135-1.237-.31-1.794a11.671 11.671 0 0 0-.758-1.789 10.5 10.5 0 0 0 .869-.562c.56-.407 1.144-.92 1.622-1.59.475-.665.844-1.524.843-2.507a5.073 5.073 0 0 0-1.356-3.379c-1.02-1.089-2.294-1.61-3.293-1.906-.16-.046-.31-.084-.456-.119.028-.321.048-.68.049-1.073a9.47 9.47 0 0 0-.28-2.368 4.186 4.186 0 0 0-.796-1.6c-.55-.678-1.28-1.106-2.023-1.349a5.83 5.83 0 0 0-.612-.164c.028-.134.051-.27.035-.413l-.41-3.523c2.106 1.294 5.582 3.103 10.462 4.644v4.852c0 .72.138 1.391.401 1.976a4.173 4.173 0 0 0 1.802 1.948c.744.41 1.556.591 2.347.592.327-.001.651-.045.97-.108v3.651c-.019.023-.046.035-.064.06v-.001l-11.94 16.546-.607-5.202c-.002-.024-.017-.042-.021-.066.201-.074.403-.137.603-.233Zm-6.44.157-.013.011.013-.011Zm-.167-1.333-.007-.003.007.003Z"/><path fill="#191C22" d="M78.223 87.867c1.926-.003 3.63-.594 4.87-1.163 1.24-.573 2.02-1.138 2.07-1.172a1.3 1.3 0 0 0-1.527-2.105c-.04.03-.719.506-1.73.96-1.012.46-2.352.884-3.683.88a5.575 5.575 0 0 1-2.12-.398c-.695-.284-1.385-.734-2.064-1.46a1.3 1.3 0 1 0-1.9 1.776c.918.983 1.94 1.668 2.984 2.092a8.179 8.179 0 0 0 3.1.59ZM115.448 87.173c1.009.408 2.047.56 3.038.56 1.908-.004 3.663-.547 4.966-1.071 1.302-.528 2.151-1.049 2.194-1.075a1.299 1.299 0 1 0-1.362-2.214h-.001c-.051.031-.812.486-1.911.92-1.098.438-2.534.844-3.886.84-.727 0-1.424-.111-2.062-.37a4.509 4.509 0 0 1-1.776-1.305 1.3 1.3 0 1 0-1.985 1.678 7.124 7.124 0 0 0 2.785 2.037ZM146.943 108.172h.008l.005-.001-.013.001ZM126.874 136.016a1.3 1.3 0 0 0 1.774.484c.06-.035.775-.445 1.612-1.229.832-.784 1.813-1.952 2.276-3.555a1.298 1.298 0 1 0-2.499-.714c-.267.95-.927 1.788-1.555 2.372a7.699 7.699 0 0 1-.817.667c-.105.074-.189.128-.243.163l-.058.035-.01.006h.001a1.3 1.3 0 0 0-.481 1.771ZM111.535 164.156l.063.003h-.001l-.062-.003Z"/><path fill="#191C22" d="M92.649 164.447c-.786.462-1.485.957-2.058 1.509-.564.555-1.045 1.165-1.235 1.999a3.203 3.203 0 0 0-.073.671 2.713 2.713 0 0 0 .436 1.489c.495.745 1.205 1.131 1.908 1.398 1.066.392 2.25.534 3.373.623 1.115.084 2.171.1 2.819.149 1.166.084 2.341.133 3.776.133 1.45 0 3.166-.048 5.429-.158 2.129-.104 5.377-.002 8.136-.156 1.389-.081 2.651-.214 3.706-.527.529-.162 1.02-.361 1.474-.727.224-.183.439-.418.599-.717.161-.296.253-.654.251-1l-.008-.178c-.055-.649-.361-1.164-.703-1.554-.523-.587-1.174-.997-1.892-1.369a16.429 16.429 0 0 0-2.301-.934c-.216-.071-.793-.285-1.582-.481a16.53 16.53 0 0 0-3.936-.48c-.709 0-1.319.039-1.877.038-.61-.001-1.159-.039-1.793-.193-.206-.052-.389-.146-.642-.328-.377-.263-.86-.75-1.6-1.209-.739-.459-1.758-.82-3.017-.812l-.221.004-.062.002.066-.002c-1.121.034-2.35.255-3.603.595-1.878.513-3.8 1.295-5.37 2.215Zm9.048-.211h.004l.138-.003c.545.002.913.089 1.224.211.461.182.828.48 1.325.892.247.202.525.429.866.643.34.214.75.412 1.224.527.889.219 1.69.27 2.413.269.669-.001 1.271-.039 1.877-.039.225 0 .451.006.682.019h.004c1.09.06 1.962.221 2.622.385.668.167 1.089.326 1.399.428.927.302 1.833.686 2.432 1.061.212.131.363.253.481.36-.066.026-.122.053-.207.079-.487.156-1.255.286-2.149.366-1.346.124-2.987.153-4.605.163-1.62.011-3.214.004-4.528.066-2.238.108-3.913.155-5.304.155-1.377 0-2.475-.046-3.587-.126-.594-.043-1.318-.061-2.086-.102-1.145-.058-2.392-.186-3.197-.448-.402-.125-.674-.285-.768-.379l-.065-.078-.009-.059.016-.127c.002-.024.05-.16.205-.353.263-.341.817-.813 1.54-1.263 1.087-.683 2.547-1.345 4.014-1.828 1.464-.486 2.951-.791 4.039-.819Z"/></svg>