<svg xmlns="http://www.w3.org/2000/svg" width="200" height="200" fill="none"><path fill="#FFE632" d="M112.079 57.039a37.966 37.966 0 1 0 15.561 72.607 1.304 1.304 0 0 0 .687-.724 1.299 1.299 0 0 0-1.754-1.647 35.365 35.365 0 0 1-37.632-5.515 35.378 35.378 0 0 1-10.875-36.446 35.371 35.371 0 0 1 63.341-10.081 1.301 1.301 0 0 0 2.155-1.456 37.932 37.932 0 0 0-31.483-16.738Z"/><path fill="#BEBEC9" d="M193.524 139.861a82.967 82.967 0 0 0-7.489-14.864 112.796 112.796 0 0 0-10.615-14.79 9.972 9.972 0 0 0-3.923-2.731 13.159 13.159 0 0 0-4.79-.834 22.116 22.116 0 0 0-6.217.991c.403-1.232.616-2.517.634-3.813a11.032 11.032 0 0 0-2.039-6.347c-.343-.498-.682-.974-1.023-1.455a1.274 1.274 0 0 0 .518-1.012c.001-11.99-3.731-22.897-10.403-31.226a42.895 42.895 0 0 0-27.919-15.7c-8.329-1.173-20.787-1.761-33.552-1.762-11.663-.087-23.322.5-34.918 1.76a47.306 47.306 0 0 0-41.34 46.928c-.003 11.934 3.758 22.753 10.792 31.039 7.03 8.289 17.32 14.011 30.2 15.844a285.88 285.88 0 0 0 38.252 2.617c11.041-.001 22.011-.723 30.983-2.633a53.175 53.175 0 0 0 9.381-2.91 1.312 1.312 0 0 0 .706-.705 1.292 1.292 0 0 0-.285-1.42 1.298 1.298 0 0 0-1.422-.275 50.524 50.524 0 0 1-8.922 2.767c-8.683 1.852-19.518 2.577-30.441 2.576a283.231 283.231 0 0 1-37.885-2.591c-12.33-1.763-21.979-7.175-28.584-14.953-6.602-7.78-10.173-17.962-10.176-29.356a44.706 44.706 0 0 1 39.066-44.348 300.127 300.127 0 0 1 34.593-1.74c12.676-.002 25.082.592 33.189 1.737a40.279 40.279 0 0 1 26.252 14.75 46.576 46.576 0 0 1 9.796 27.693 105.53 105.53 0 0 0-8.554-10.102 56.715 56.715 0 0 0-4.487-4.196 15.118 15.118 0 0 0-3.152-2.135h-.001a5.053 5.053 0 0 0-2.044-.415 7.26 7.26 0 0 0-2.063.33c-.019-.017-.027-.04-.046-.057a72.723 72.723 0 0 0-5.655-4.165 1.275 1.275 0 0 0-.332-.285c-.114-.064-.231-.11-.347-.166a67.86 67.86 0 0 0-14.472-7.247 6.796 6.796 0 0 0-2.236-.362 8.397 8.397 0 0 0-4.949 1.64 6.547 6.547 0 0 0-1.787 2.005 5.564 5.564 0 0 0-.678 2.107 8.233 8.233 0 0 0-3.244-.714 6.827 6.827 0 0 0-4.927 2.068 6.656 6.656 0 0 0-1.92 4.599c.003.358.038.715.106 1.067a6.157 6.157 0 0 0-.81-.062 5.331 5.331 0 0 0-2.576.647 6.103 6.103 0 0 0-2.493 2.675 7.888 7.888 0 0 0-.813 3.49 6.38 6.38 0 0 0 1.013 3.572 26.647 26.647 0 0 0 3.26 3.649c2.123 2.076 4.876 4.504 7.612 6.89 2.734 2.384 5.452 4.726 7.47 6.591.024.022.055.028.08.048a6.902 6.902 0 0 0-.26 1.772 4.327 4.327 0 0 0 .377 1.789 49.215 49.215 0 0 1-6.778-1.187 6.5 6.5 0 0 0-1.642-.213 6.903 6.903 0 0 0-4.813 2.029 6.658 6.658 0 0 0-2.048 4.688c0 .89.204 1.769.594 2.569a7.05 7.05 0 0 0 1.84 2.307 26.036 26.036 0 0 0 6.994 4.142c2.799 1.095 5.669 2 8.59 2.709.17.045.348.054.522.027.267.345.587.645.949.888a21.144 21.144 0 0 0 7.091 2.522 49.823 49.823 0 0 0 16.395.304 16.21 16.21 0 0 0-1.227 5.93 11.918 11.918 0 0 0 .598 3.774c1.507 4.504 4.859 9.758 8.345 14.614 3.485 4.843 7.117 9.257 9.14 11.837a1.298 1.298 0 0 0 2.313-.646 1.302 1.302 0 0 0-.267-.959c-2.057-2.621-5.649-6.988-9.075-11.75-3.425-4.75-6.671-9.925-7.989-13.917a9.314 9.314 0 0 1-.465-2.953 16.657 16.657 0 0 1 2.9-8.6 40.437 40.437 0 0 1 12.224-11.875c4.924-3.16 10.268-5.142 14.501-5.129a10.574 10.574 0 0 1 3.846.656 7.365 7.365 0 0 1 2.913 2.025 110.298 110.298 0 0 1 10.351 14.43 80.77 80.77 0 0 1 7.245 14.344 1.298 1.298 0 0 0 2.397.156 1.302 1.302 0 0 0 .065-.992Zm-76.971-47.826a442.56 442.56 0 0 0-4.783-3.78c0-.027.013-.05.011-.078l-.006-.24c.019-.899.246-1.78.662-2.578a10.046 10.046 0 0 1 2.764-3.325 7.76 7.76 0 0 1 1.549-.96 2.846 2.846 0 0 1 1.072-.294.455.455 0 0 1 .146.017c.073.02.148.032.223.038a119.968 119.968 0 0 1 5.582 4.02 138.996 138.996 0 0 0-3.305 3.159 133.732 133.732 0 0 0-3.915 4.021Zm-12.312-9.52a6.031 6.031 0 0 1-.077-.88 6.584 6.584 0 0 1 1.894-4.473 6.794 6.794 0 0 1 1.701-1.32c.41-.24.87-.383 1.344-.418a.762.762 0 0 1 .206.024c.107.023.216.032.325.027a154.867 154.867 0 0 1 5.642 3.434c-.097.05-.195.094-.292.148a12.635 12.635 0 0 0-3.895 3.532 10.073 10.073 0 0 0-1.745 3.79 456.297 456.297 0 0 0-5.103-3.864Zm9.648-8.565a4.088 4.088 0 0 1 1.484-3.026 5.423 5.423 0 0 1 3.538-1.35c.441.003.88.064 1.305.183a68.958 68.958 0 0 1 3.895 2.05c-.174.066-.348.132-.517.21a9.744 9.744 0 0 0-3.557 2.857c-.723.9-1.22 1.96-1.45 3.092a144.307 144.307 0 0 0-4.508-2.873 3.639 3.639 0 0 1-.19-1.143Zm11.852 9.134a113.532 113.532 0 0 0-4.057-2.996 1.277 1.277 0 0 0-.19-.275 1.263 1.263 0 0 1-.393-.982c.024-.532.175-1.05.439-1.512a6.962 6.962 0 0 1 2.177-2.388 5.335 5.335 0 0 1 2.943-1.025c.441-.002.878.082 1.286.248a70.25 70.25 0 0 1 5.003 3.595 32.066 32.066 0 0 0-4.017 2.697 66.213 66.213 0 0 0-3.191 2.639Zm-17.657-13.866a4.367 4.367 0 0 1 1.839-1.673 5.882 5.882 0 0 1 2.631-.647c.469-.005.935.068 1.38.217.544.19 1.085.408 1.628.617a8.046 8.046 0 0 0-1.909 1.242 6.758 6.758 0 0 0-2.333 4.47c-1.18-.69-2.39-1.37-3.615-2.048.018-.095.025-.192.021-.289a3.135 3.135 0 0 1-.028-.422 2.938 2.938 0 0 1 .386-1.467Zm-9.253 4a4.22 4.22 0 0 1 3.065-1.282 5.952 5.952 0 0 1 2.832.79c.562.303 1.109.608 1.661.913a9.735 9.735 0 0 0-3.238 3 9.058 9.058 0 0 0-1.514 3.95c-.814-.598-1.641-1.2-2.481-1.807a3.692 3.692 0 0 1-1.16-1.314 3.203 3.203 0 0 1-.347-1.465 4.068 4.068 0 0 1 1.182-2.785Zm-7.2 12.718a3.81 3.81 0 0 1-.568-2.117 5.109 5.109 0 0 1 .934-2.973c.27-.373.617-.683 1.019-.909a2.72 2.72 0 0 1 1.33-.329 5.895 5.895 0 0 1 3.297 1.288c.64.462 1.266.92 1.89 1.377-.073.043-.146.08-.22.126a11.93 11.93 0 0 0-3.405 3.417c-.672.995-1.164 2.101-1.453 3.267a24.115 24.115 0 0 1-2.825-3.147Zm7.723 7.664a201.39 201.39 0 0 1-2.46-2.213 3.91 3.91 0 0 1-.05-.596c.02-.82.215-1.626.573-2.365a9.75 9.75 0 0 1 2.388-3.153 6.605 6.605 0 0 1 1.309-.912c.244-.142.515-.23.796-.26l.029.002c.029.007.056-.001.085.004a434.37 434.37 0 0 1 5.193 3.914c-.091.053-.182.1-.273.156a12.844 12.844 0 0 0-3.662 3.676 10.812 10.812 0 0 0-1.621 3.773 421.125 421.125 0 0 1-2.307-2.026Zm4.792 4.19c-.031-.198-.048-.4-.051-.601a6.327 6.327 0 0 1 .632-2.612 10.703 10.703 0 0 1 2.619-3.459 7.306 7.306 0 0 1 1.442-1.004c.243-.132.505-.226.777-.281a438.183 438.183 0 0 1 5.235 4.129 58.443 58.443 0 0 0-3.929 4.902 27.031 27.031 0 0 0-1.946 3.149 306.763 306.763 0 0 0-4.779-4.222Zm5.748 24.463a59.05 59.05 0 0 1-6.425-2.07 5.66 5.66 0 0 1-.36-2.096c.077-1.81.47-3.591 1.161-5.265a24.937 24.937 0 0 1 1.08-2.406l.005-.01c1.991.296 3.786.463 4.954.551.076-.003.151-.012.225-.029.245.212.496.427.757.642a14.118 14.118 0 0 0-1.817 7.169 14.402 14.402 0 0 0 .42 3.514Zm-14.226-7.37a3.257 3.257 0 0 1-.334-1.435 4.068 4.068 0 0 1 1.273-2.836 4.305 4.305 0 0 1 2.988-1.281c.332.001.662.043.983.128a38.43 38.43 0 0 0 2.106.479c-.239.5-.537 1.163-.84 1.949a17.97 17.97 0 0 0-1.335 6.2c0 .241.011.483.028.725a21.713 21.713 0 0 1-3.697-2.479 4.44 4.44 0 0 1-1.172-1.45Zm24.148 11.178a18.76 18.76 0 0 1-6.194-2.162 1.86 1.86 0 0 1-.518-.56 6.055 6.055 0 0 1-.741-1.901 12.132 12.132 0 0 1-.289-2.699 11.946 11.946 0 0 1 1.263-5.531l.272.214c1.932 1.503 4.09 3.147 6.247 5.021a1.294 1.294 0 0 0 .944.315 1.305 1.305 0 0 0 .89-.444c.112-.129.197-.278.252-.44a1.306 1.306 0 0 0-.381-1.394c-2.236-1.943-4.439-3.619-6.356-5.11a41.224 41.224 0 0 1-4.605-3.947 1.468 1.468 0 0 1-.362-1.081 6.122 6.122 0 0 1 .623-2.361 28.176 28.176 0 0 1 3.816-5.844 98.74 98.74 0 0 1 7.616-8.272 75.21 75.21 0 0 1 10.266-8.833 17.253 17.253 0 0 1 3.149-1.729 5.514 5.514 0 0 1 1.997-.453c.345-.005.687.062 1.004.198a13.12 13.12 0 0 1 2.54 1.76c3.558 2.924 9.502 9.125 15.693 18.138l.053.083a8.999 8.999 0 0 0-3.094.79 25.181 25.181 0 0 0-5.665 3.602 46.904 46.904 0 0 0-5.983 5.883 44.357 44.357 0 0 0-5.698 8.298 23.884 23.884 0 0 0-1.579 3.744 11.119 11.119 0 0 0-.579 3.283c-.01.616.088 1.229.288 1.811l.003.007a46.503 46.503 0 0 1-6.207.405 45.799 45.799 0 0 1-8.665-.791Zm36.208-16.739c-.012-.045-.016-.087-.031-.133a2.15 2.15 0 0 0-.637-.964 2.702 2.702 0 0 0-.681-.425 2.98 2.98 0 0 0-1.237-.253 4.915 4.915 0 0 0-1.653.322c-.994.386-1.933.904-2.79 1.54a22.15 22.15 0 0 0-4.146 3.923 16.282 16.282 0 0 0-2.965 5.204c-.109.345-.106.715.008 1.058-.179.192-.369.379-.543.574a33.638 33.638 0 0 0-4.108 5.614 1.185 1.185 0 0 1-.111-.226 2.75 2.75 0 0 1-.133-.927 8.651 8.651 0 0 1 .459-2.504 34.864 34.864 0 0 1 6.772-11.131 41.334 41.334 0 0 1 7.456-6.921 18.889 18.889 0 0 1 3.244-1.865 6.24 6.24 0 0 1 2.321-.597c.297-.028.594.054.835.23.071.05.148.093.228.127.141.607.212 1.229.212 1.852a11.765 11.765 0 0 1-1.248 4.956c-.38.158-.759.318-1.139.491-.038.017-.075.038-.113.055Z"/></svg>