<svg xmlns="http://www.w3.org/2000/svg" width="200" height="200" fill="none"><path fill="#FFE632" d="M160.96 138.726a4.038 4.038 0 0 1-2.638 1.04 2.81 2.81 0 0 1-1.154-.231 1.844 1.844 0 0 1-.758-.604 1.3 1.3 0 1 0-2.111 1.518 4.457 4.457 0 0 0 1.8 1.457 5.437 5.437 0 0 0 2.223.46 6.63 6.63 0 0 0 4.367-1.699 1.299 1.299 0 0 0-1.729-1.941ZM156.541 133.869a5.84 5.84 0 0 0 .119-1.157 4.966 4.966 0 0 0-3.016-4.64 4.981 4.981 0 0 0-1.903-.397l-.174-.002a6.35 6.35 0 0 0-4.017 1.496 6.514 6.514 0 0 0-2.249 3.671 1.998 1.998 0 0 0 1.554 2.363 2 2 0 0 0 2.363-1.554c.13-.552.44-1.044.882-1.398a2.366 2.366 0 0 1 1.467-.578h.05a1.073 1.073 0 0 1 .777.3 1.02 1.02 0 0 1 .266.739 1.785 1.785 0 0 1-.037.35 1.997 1.997 0 0 0 1.555 2.362 2.002 2.002 0 0 0 2.363-1.555ZM169.011 127.979l-.174-.003a6.346 6.346 0 0 0-4.017 1.497 6.511 6.511 0 0 0-2.249 3.67 2.012 2.012 0 0 0 .287 1.504c.145.219.331.408.548.556a1.988 1.988 0 0 0 1.499.309 1.995 1.995 0 0 0 1.583-1.56 2.53 2.53 0 0 1 .882-1.397 2.368 2.368 0 0 1 1.467-.579l.05.001c.143-.004.285.02.419.071.133.052.255.129.358.228a1.023 1.023 0 0 1 .266.74 1.71 1.71 0 0 1-.038.349 1.993 1.993 0 0 0 .289 1.504c.144.219.33.408.548.555a1.985 1.985 0 0 0 1.499.309 2.002 2.002 0 0 0 1.582-1.56c.079-.381.119-.769.12-1.157a4.964 4.964 0 0 0-4.919-5.037ZM68.038 90.932a8.934 8.934 0 0 0 3.902-1.797 12.674 12.674 0 0 0 3.705-5.052 15.6 15.6 0 0 0 1.242-5.963 9.038 9.038 0 0 0-1.21-4.836 5.05 5.05 0 0 0-1.728-1.684 4.889 4.889 0 0 0-2.468-.635 6.46 6.46 0 0 0-1.267.13 8.877 8.877 0 0 0-3.87 1.883 13.944 13.944 0 0 0-3.81 5.23 15.7 15.7 0 0 0-1.35 6.13 8.029 8.029 0 0 0 1.231 4.591 4.88 4.88 0 0 0 1.769 1.57 5.33 5.33 0 0 0 2.472.567 7.54 7.54 0 0 0 1.382-.134Zm-3.807-4.065a6.427 6.427 0 0 1-.447-2.529c.059-2.373.74-4.69 1.976-6.717a10.3 10.3 0 0 1 2.229-2.629 6.279 6.279 0 0 1 2.735-1.347 3.86 3.86 0 0 1 .757-.08 2.28 2.28 0 0 1 1.17.288c.546.35.957.873 1.168 1.485.33.89.488 1.833.468 2.782a13.044 13.044 0 0 1-1.823 6.496 9.166 9.166 0 0 1-2.132 2.476 6.325 6.325 0 0 1-2.771 1.284 4.95 4.95 0 0 1-.905.09 2.732 2.732 0 0 1-1.278-.277 2.55 2.55 0 0 1-1.147-1.322ZM107.196 84.179a14.548 14.548 0 0 0 1.645-6.4 7.081 7.081 0 0 0-1.225-4.269 4.684 4.684 0 0 0-1.739-1.435 5.466 5.466 0 0 0-2.381-.507c-.122 0-.245.004-.369.01a9.02 9.02 0 0 0-4.469 1.533 14.651 14.651 0 0 0-4.706 5.337 14.207 14.207 0 0 0-1.796 6.484 6.39 6.39 0 0 0 1.317 4.156 4.794 4.794 0 0 0 1.833 1.35c.782.316 1.62.473 2.463.46a9.026 9.026 0 0 0 4.862-1.468 13.398 13.398 0 0 0 4.565-5.251Zm-9.197 4.114-.23.004a3.708 3.708 0 0 1-1.452-.255 2.208 2.208 0 0 1-1.144-1.07 4.467 4.467 0 0 1-.417-2.04c.026-1.178.255-2.343.675-3.444a13.748 13.748 0 0 1 3.191-5.02 7.336 7.336 0 0 1 4.64-2.293l-.068-1.299.068 1.299.234-.007c.433-.012.863.075 1.258.252.483.24.863.645 1.071 1.141a5.3 5.3 0 0 1 .416 2.217 12.549 12.549 0 0 1-2.37 6.885 9.827 9.827 0 0 1-2.64 2.575 6.42 6.42 0 0 1-3.232 1.055ZM73.002 96.787a4.426 4.426 0 0 0-.035.595 5.761 5.761 0 0 0 1.238 3.612 5.82 5.82 0 0 0 2.351 1.708 10 10 0 0 0 3.82.659c2.96.046 5.847-.918 8.186-2.733a10.985 10.985 0 0 0 2.6-2.825 1.3 1.3 0 0 0-.908-1.936 50.886 50.886 0 0 0-8.189-.588c-2.645 0-5.29.133-7.921.399a1.3 1.3 0 0 0-1.142 1.109Zm14.487 1.345c-.275.25-.564.484-.866.701a10.456 10.456 0 0 1-6.248 1.928 7.458 7.458 0 0 1-2.83-.463 2.893 2.893 0 0 1-1.887-2.15 79.243 79.243 0 0 1 6.407-.27c1.738 0 3.609.074 5.424.254Z"/><path fill="#BEBEC9" d="m121.867 14.793.003-.002.004-.003-.007.005ZM133.268 65.76l-.001.002-.001.006.002-.008ZM34.687 179.473h-.002v-.001l.002.001ZM140.176 178.615l-.002.001h-.002l.004-.001ZM143.568 116.257l.001.001v.001l-.001-.002ZM172.684 122.734c-2.981-1.736-7.02-2.7-12.409-2.701a30.17 30.17 0 0 0-8.973 1.165 13.075 13.075 0 0 0-7.657 5.646 17.519 17.519 0 0 0-2.2 8.404v-.001c-.015.34-.023.676-.023 1.01-.034 1.926.29 3.841.953 5.649a11.55 11.55 0 0 0 5.902 6.287c2.952 1.459 6.864 2.219 11.998 2.222 3.033.058 6.06-.301 8.995-1.067a13.36 13.36 0 0 0 7.889-5.314 14.852 14.852 0 0 0 2.164-8.331c.028-2-.268-3.991-.877-5.896a12.624 12.624 0 0 0-5.762-7.073Zm3.297 17.864a9.026 9.026 0 0 1-4.58 5.143c-2.446 1.279-6.042 2.076-11.126 2.074a30.89 30.89 0 0 1-8.034-.907c-3.197-.876-5.177-2.275-6.424-4.03a11.201 11.201 0 0 1-1.795-6.621c0-.293.007-.591.021-.893v-.001a18.23 18.23 0 0 1 .85-5.054 9.539 9.539 0 0 1 4.434-5.448c2.354-1.358 5.852-2.229 10.948-2.228a27.068 27.068 0 0 1 8.266 1.104 11.1 11.1 0 0 1 6.439 4.724 13.774 13.774 0 0 1 1.743 7.242 14.56 14.56 0 0 1-.742 4.895ZM94.275 118.545l.002.001.003.001-.005-.002ZM51.402 118.133l.003-.002.004-.002-.007.004ZM107.579 100.285a28.011 28.011 0 0 0 8.377-8.482 33.032 33.032 0 0 0 4.156-10.31l-1.266-.292 1.266.292c.561-2.31.859-4.676.888-7.053a17.503 17.503 0 0 0-1.787-8.059 15.627 15.627 0 0 0-4.119-5.028 27.985 27.985 0 0 0-11.323-5.106 80.85 80.85 0 0 0-18.557-1.802c-16.119.002-26.915 2.866-34.173 7.672a27.863 27.863 0 0 0-8.346 8.484 33.284 33.284 0 0 0-4.134 10.307 31.263 31.263 0 0 0-.878 6.993 17.54 17.54 0 0 0 1.795 8.082 15.705 15.705 0 0 0 4.128 5.042 28.008 28.008 0 0 0 11.327 5.123 80.436 80.436 0 0 0 18.527 1.809c16.049-.002 26.844-2.867 34.119-7.672Zm-60.624-.053a13.877 13.877 0 0 1-5.162-5.432 14.945 14.945 0 0 1-1.51-6.898c.029-2.16.3-4.31.811-6.409a30.694 30.694 0 0 1 3.804-9.51c2.73-4.34 6.842-8.026 13.27-10.689 6.425-2.657 15.18-4.25 27.046-4.249 13.188-.008 21.596 1.987 26.536 5.107a13.805 13.805 0 0 1 5.148 5.412 14.917 14.917 0 0 1 1.502 6.876c-.03 2.18-.305 4.35-.821 6.468a30.476 30.476 0 0 1-3.821 9.507c-2.747 4.341-6.881 8.03-13.314 10.693-6.43 2.657-15.173 4.25-26.984 4.249-13.154.008-21.558-1.995-26.505-5.125Z"/><path fill="#BEBEC9" d="M70.515 61.332a50.365 50.365 0 0 0-11.797 3.15 1.3 1.3 0 0 0 1 2.4 47.792 47.792 0 0 1 11.19-2.98 1.3 1.3 0 1 0-.393-2.57ZM52.885 67.614a26.765 26.765 0 0 0-2.704 2.111 1.3 1.3 0 1 0 1.73 1.94 24.17 24.17 0 0 1 2.442-1.905 1.3 1.3 0 0 0-1.468-2.146ZM93.266 126.752v-.005.005ZM106.025 143.786h.003l.005.001-.008-.001ZM133.457 162.563l.001.002v.002l-.001-.004Z"/><path fill="#BEBEC9" d="M196.246 116.597a2.598 2.598 0 0 0-.77-.539 2.322 2.322 0 0 0-.96-.207 2.797 2.797 0 0 0-1.518.484 5.278 5.278 0 0 0-1.189 1.102 17.362 17.362 0 0 0-1.699 2.633 37.5 37.5 0 0 0-1.897 4.083 21.379 21.379 0 0 0-8.33-6.818c-4.232-2.011-9.593-3.135-16.243-3.135a40.805 40.805 0 0 0-13.03 1.842 22.346 22.346 0 0 0-5.849 2.934 12.03 12.03 0 0 0-.304-.959 9.473 9.473 0 0 0-.461-1.054 5.106 5.106 0 0 0-.427-.705 3.928 3.928 0 0 0-1.018-.961 2.76 2.76 0 0 0-1.483-.451 2.614 2.614 0 0 0-1.299.353 4.026 4.026 0 0 0-1.447 1.551 10.385 10.385 0 0 0-.972 2.557v.002a29.487 29.487 0 0 0-.65 6.807c-.003 1.8.092 3.599.286 5.389a33.585 33.585 0 0 0-.61 6.567 30.476 30.476 0 0 0 1.277 9.19 18.802 18.802 0 0 0 8.215 10.686 24.952 24.952 0 0 0 6.703 2.777 8.824 8.824 0 0 0-1.158.426 5.933 5.933 0 0 0-2.594 2.271 6.663 6.663 0 0 0-2.639-.525c-.64.003-1.277.07-1.904.198a16.878 16.878 0 0 0-7.25 3.166 23.547 23.547 0 0 0-3.236-2.017c-.082-.042-.161-.072-.242-.112a3.47 3.47 0 0 0-.091-1.567 1.75 1.75 0 0 0-.488-.785 2.47 2.47 0 0 0-1.028-.547 7.26 7.26 0 0 0-1.544-.227 28.618 28.618 0 0 0-1.739-.04c-.49 0-.988.005-1.473.005-.812 0-1.59-.014-2.198-.075-.806-.077-1.735-.223-2.741-.268a28.247 28.247 0 0 0-2.663-4.344 35.597 35.597 0 0 0-5.603-6.126c-.284-.24-.574-.473-.871-.701.33-1.485.488-3.002.472-4.523 0-.573-.018-1.169-.053-1.786a30.066 30.066 0 0 0-1.286-6.771 33.873 33.873 0 0 0-5.075-10.425 15.887 15.887 0 0 0-3.847-3.73 8.715 8.715 0 0 0-4.799-1.532c-.247 0-.496.012-.746.036h-.004c-.477.046-.945.16-1.39.339a10.04 10.04 0 0 0-.496-.93 4.033 4.033 0 0 0-1.608-1.589 9.996 9.996 0 0 0-1.875-.623 62.816 62.816 0 0 0-9.172-1.236c-.007-.001-.014-.006-.022-.007a54.276 54.276 0 0 0-2.118-.317v-2.908a80.301 80.301 0 0 0 18.201-3.277c11.184-3.534 18.621-9.609 23.147-17.424a39.363 39.363 0 0 0 2.809-5.979c.226.058.458.089.692.092a3.885 3.885 0 0 0 2.469-1.009 11.065 11.065 0 0 0 2.669-3.785 25.124 25.124 0 0 0 1.806-5.675c.36-1.778.546-3.587.554-5.402a17.215 17.215 0 0 0-.517-4.4c.168-.253.286-.537.347-.834.021-.112.028-.187.037-.278.027-.306.044-.753.059-1.388.013-.631.021-1.433.021-2.381 0-4.85-.207-13.538-.956-22.3-.375-4.38-.886-8.778-1.578-12.732a47.313 47.313 0 0 0-2.707-10.119l-.001-.003a3.704 3.704 0 0 0-1.828-1.79 5.46 5.46 0 0 0-2.354-.54 3.814 3.814 0 0 0-2.09.56 8.43 8.43 0 0 0-1.369 1.156 17.167 17.167 0 0 0-4.324 8.539v.002a25.099 25.099 0 0 0-.345 2.705c-.026.303-.051.626-.075.96a38.487 38.487 0 0 0-6.384-4.977c-8.781-5.488-21.025-8.615-37.793-8.616-15.339 0-26.653 2.617-34.93 7.277a35.504 35.504 0 0 0-14.946 15.87c-1.056-3.569-2.21-7.122-3.432-10.378a51.54 51.54 0 0 0-5.213-10.788 3.48 3.48 0 0 0-1.623-1.232 5.369 5.369 0 0 0-3.45-.102 3.573 3.573 0 0 0-1.426.825l-.004.004c-.418.43-.79.902-1.11 1.41a17.18 17.18 0 0 0-2.536 9.228v.048c0 .363.023.788.06 1.264a1.26 1.26 0 0 0 .039.428c.041.445.092.922.157 1.454.564 4.573 1.97 12.274 3.408 19.574 1.438 7.298 2.9 14.159 3.581 17.02v-.001a8.509 8.509 0 0 0 1.062 2.782c.206.316.477.585.793.79.117.067.24.122.368.163-.01.114-.019.228-.027.343-.014.178-.033.35-.043.531-.023.432-.033.874-.036 1.321 0 .056-.004.108-.004.164 0 .781.032 1.582.098 2.396.005.061.013.12.018.18a22.298 22.298 0 0 0 1.825 7.427c.296.63.657 1.229 1.077 1.784.187.248.392.482.612.7.173.168.359.322.555.461.032.037.067.072.104.104a32.703 32.703 0 0 0 2.948 1.714c.096.049.196.093.293.141a34.197 34.197 0 0 0 14.704 18.333c7.027 4.297 16.485 6.986 29.088 7.77v2.483a31.5 31.5 0 0 0-1.841.309c-2.322.122-4.422.312-6.164.585-.798.119-1.588.282-2.368.488a7.889 7.889 0 0 0-1.81.701 12.214 12.214 0 0 0-2.978 2.492 2.904 2.904 0 0 0-.647-.528 3.072 3.072 0 0 0-1.158-.385l-.009-.001a7.754 7.754 0 0 0-.926-.055 9.001 9.001 0 0 0-5.074 1.678c-2.406 1.643-4.556 4.395-6.32 8.222a50.952 50.952 0 0 0-3.895 14.803v.003a7.14 7.14 0 0 0-.059.874c-.004.421.052.84.165 1.245a3.65 3.65 0 0 0 1.034 1.662c.107.1.239.178.356.268a4.396 4.396 0 0 0-1.618 1.823l-.001.002a9.563 9.563 0 0 0-.564 1.983 46.517 46.517 0 0 0-.519 7.846c0 3.855.228 7.276.229 7.293h.001c.005.995.289 1.969.82 2.811a3.866 3.866 0 0 0 2.456 1.615c.164.034.344.066.524.098.032.431.085.901.169 1.454a67.168 67.168 0 0 0 1.016 5.121c.107.438.19.759.277 1.018a4.579 4.579 0 0 0 1.037 1.615 12.412 12.412 0 0 0 2.136 1.729c.722.479 1.404.869 1.819 1.114a3.333 3.333 0 0 0 1.71.401 9.535 9.535 0 0 0 2.337-.358l.096-.027a15.632 15.632 0 0 0 1.187 3.535 1.308 1.308 0 0 0 .763.638 1.304 1.304 0 0 0 .99-.088 1.298 1.298 0 0 0 .551-1.754 13.727 13.727 0 0 1-.998-3.081c-.318-1.392-.603-3.1-.844-5.028v-.005a89.793 89.793 0 0 1-.233-2.024c.274.076.56.148.844.22.016.004.027.016.043.019.032.007.062.009.094.016a70.37 70.37 0 0 0 9.972 1.633c4.63.464 9.685.666 14.689.666a173.59 173.59 0 0 0 19.356-1.036l.016-.001.002-.001.119-.013a67.064 67.064 0 0 0 7.057-1.154 21.34 21.34 0 0 0 2.404-.688c-.107 4.015-.35 7.729-.753 10.895a1.3 1.3 0 0 0 2.58.328 132.81 132.81 0 0 0 .838-16.124c0-.762-.012-1.541-.021-2.315.153.245.299.505.454.738a16.477 16.477 0 0 0 2.349 2.883 16.26 16.26 0 0 0 3.312 2.439 9.76 9.76 0 0 0 4.635 1.257 8.434 8.434 0 0 0 2.551-.408c.097.083.195.16.295.233.433.295.905.529 1.402.695a5.098 5.098 0 0 0 1.617.297c.33.002.659-.053.97-.164.441.292.934.498 1.453.606a6.79 6.79 0 0 0 1.378.148 4.386 4.386 0 0 0 1.68-.299l.004-.001a1.75 1.75 0 0 0 .561-.387 3.18 3.18 0 0 0 .473-.644l.069.038c.329.177.666.337 1.012.479.379.161.776.278 1.182.349.146.022.294.033.441.032.328-.007.655-.047.974-.12a40.677 40.677 0 0 0 5.551 1.949l.005.001c.395.105.803.157 1.213.157a5.551 5.551 0 0 0 2.276-.526c.483.189.996.287 1.514.292.108 0 .217-.005.326-.014a10.558 10.558 0 0 0 4.164-1.382c.415-.228.821-.478 1.222-.737a97.386 97.386 0 0 0-.65 10.34 1.302 1.302 0 0 0 1.286 1.314 1.302 1.302 0 0 0 1.314-1.286 90.858 90.858 0 0 1 1.034-12.981c.176-1.095.372-2.133.578-3.112a38.394 38.394 0 0 1 1.043-3.933c.007-.019.021-.034.027-.054.119-.386.245-.737.378-1.053l.001-.002c.105-.255.19-.468.263-.619l.008-.019a3.184 3.184 0 0 1 1.667-1.582 9.218 9.218 0 0 1 3.016-.694 54.27 54.27 0 0 1 1.519-.11c.039.051.082.099.128.143a8.686 8.686 0 0 0 5.701 2.094 9.886 9.886 0 0 0 3.412-.618 7.667 7.667 0 0 0 2.423-1.391c.04-.042.078-.087.112-.135.56.041 1.114.084 1.635.136 1.245.124 2.365.28 3.264.462a7.622 7.622 0 0 1 1.863.558c.106.061.206.133.298.215a4.24 4.24 0 0 0-.676.867 6.621 6.621 0 0 0-.777 3.347 19.61 19.61 0 0 0 1.328 6.842 11.17 11.17 0 0 0 2.053 3.364c-.073.08-.149.156-.216.243a4.102 4.102 0 0 0-.847 2.199c-.083.95-.239 3.28-.24 4.96.001.437.01.829.04 1.173a1.299 1.299 0 0 0 .906 1.126 1.301 1.301 0 0 0 1.63-.85c.051-.163.069-.335.054-.505-.019-.213-.03-.553-.03-.944-.001-1.527.153-3.872.23-4.737l.001-.005c.018-.299.126-.586.31-.823a1.75 1.75 0 0 1 .313-.307 5.657 5.657 0 0 0 2.096.406 6.43 6.43 0 0 0 2.756-.657c.222.098.433.219.63.362.228.161.411.378.532.63h-.001c.038.126.117.509.192.976.233 1.419.502 3.777.588 5.194a1.302 1.302 0 0 0 1.378 1.216 1.299 1.299 0 0 0 1.217-1.376 64.021 64.021 0 0 0-.399-3.951 45.123 45.123 0 0 0-.268-1.801 14.24 14.24 0 0 0-.135-.686 3.604 3.604 0 0 0-.179-.592l-.003-.007a4.235 4.235 0 0 0-1.344-1.67l-.005-.003a5.025 5.025 0 0 0 1.132-2.817c.017-.264.025-.525.025-.781a12.753 12.753 0 0 0-1.064-5.027 19.826 19.826 0 0 0-2.108-3.666 7.17 7.17 0 0 0-2.546-2.151 7.27 7.27 0 0 0-3.296-.859 5.42 5.42 0 0 0-.882.072 4.957 4.957 0 0 0-1.453-1.263l-.008-.004a9.298 9.298 0 0 0-2.375-.771 26.711 26.711 0 0 0 9.541-4.051 19.825 19.825 0 0 0 8.126-13.425c.002-.012-.003-.023-.002-.035.01-.012.025-.017.035-.029a6.113 6.113 0 0 0 1.029-2.316c.215-.911.34-1.841.371-2.777a3.875 3.875 0 0 0 1.308-.94 4.704 4.704 0 0 0 1.062-2.043c.286-1.128.75-3.452 1.156-5.903.202-1.223.388-2.469.524-3.601.131-.976.206-1.959.226-2.944V122.808a14.071 14.071 0 0 0-.639-4.66 4.225 4.225 0 0 0-.93-1.551Zm-67.474 53.844a27.079 27.079 0 0 1-1.287-.298l-.034-.01-.001-.004c-.003-.023-.012-.051-.017-.075-.006-.026-.011-.051-.018-.076-.005-.018-.006-.034-.012-.052a1.71 1.71 0 0 0-.198-.49 2.225 2.225 0 0 0-.794-.733 4.648 4.648 0 0 0-1.22-.469 5.458 5.458 0 0 0-1.26-.16c-.4-.014-.797.068-1.159.239l-.002.001c-.058.031-.092.062-.14.093a4.353 4.353 0 0 1 1.338-.979 4.824 4.824 0 0 1 1.731-.429h.005c.121-.008.243-.018.363-.018a5.05 5.05 0 0 1 2.366.552c.267.151.499.357.681.604.262.37.444.791.535 1.235.069.312.108.629.114.948a7.052 7.052 0 0 1-.95.122l-.041-.001Zm-2.498-6.882c-.438.25-.846.549-1.214.894-.759.091-1.5.3-2.194.619a7.07 7.07 0 0 0-2.495 1.991 4.381 4.381 0 0 0-.816-.079 5.213 5.213 0 0 0-1.877.343 3.45 3.45 0 0 0-.923.527 2.506 2.506 0 0 0-.748.984l1.202.496-1.202-.496a11.994 11.994 0 0 0-.641 2.436 4.354 4.354 0 0 1-.767-2.268c0-.478.129-.947.372-1.359a4.702 4.702 0 0 1 1.439-1.472c.208-.142.423-.271.646-.387l.182-.089.04-.018.001-.001c.222-.092.415-.245.556-.441a4.339 4.339 0 0 1 3.897-2.03c.914-.003 1.93.167 3 .275.491.048 1.013.066 1.542.075Zm-28.247-40.245c.166-.016.33-.024.494-.024a6.87 6.87 0 0 1 4.476 1.947 23.285 23.285 0 0 1 5.542 8.479 31.358 31.358 0 0 1 2.393 9.575v.004c.033.572.049 1.119.049 1.639.005.995-.069 1.989-.219 2.973-.188-.105-.376-.21-.568-.307a5.425 5.425 0 0 0-4.165-3.814 5.716 5.716 0 0 0-1.152-.118 5.547 5.547 0 0 0-3.379 1.141 5.218 5.218 0 0 0-1.928 3.023 5.069 5.069 0 0 0-.116 1.082c0 .136.01.27.021.404a6.875 6.875 0 0 0-.75 1.041 16.098 16.098 0 0 1-1.66-4.86v-.001a72.646 72.646 0 0 1-1.412-13.95c0-2.049.104-3.608.2-4.535v-.005a7.04 7.04 0 0 1 .72-2.854c.134-.231.32-.425.545-.567a2.08 2.08 0 0 1 .909-.273Zm32.306-47.425a20.237 20.237 0 0 1-2.278 6.338 6.651 6.651 0 0 1-1.315 1.637 1.797 1.797 0 0 1-.636.374 62.144 62.144 0 0 0 2.471-16.37c.424.137.866.207 1.311.208a4.6 4.6 0 0 0 .696-.062c.176.984.262 1.983.255 2.983a25.208 25.208 0 0 1-.504 4.892Zm-11.61-50.876a15.65 15.65 0 0 1 2.326-5.633 11.65 11.65 0 0 1 1.307-1.611c.282-.297.593-.564.93-.798l.007-.004c.206-.103.437-.15.667-.136.42.003.835.098 1.215.278.242.095.447.267.583.49a45.035 45.035 0 0 1 2.531 9.533c2.026 11.546 2.498 27.419 2.495 34.583 0 1.067-.01 1.941-.027 2.573-.008.316-.018.57-.028.752a7.25 7.25 0 0 1-.014.2.61.61 0 0 1-.22.128 1.7 1.7 0 0 1-.609.108 1.592 1.592 0 0 1-.72-.16.804.804 0 0 1-.38-.38l-.014-.03a5.793 5.793 0 0 0-.16-.298 67.82 67.82 0 0 0-2.527-19.016 40.379 40.379 0 0 0-7.88-14.835c.063-1.26.136-2.396.218-3.34a23.13 23.13 0 0 1 .3-2.404ZM6.668 20.702c.265-.642.586-1.258.96-1.843.218-.348.47-.674.753-.971.116-.096.25-.166.395-.205a2.778 2.778 0 0 1 1.713.047.932.932 0 0 1 .431.289l.004.004a49.266 49.266 0 0 1 4.914 10.22c1.586 4.222 3.072 9.011 4.37 13.676a285.297 285.297 0 0 1 3.699 14.845c.446 2.02.796 3.722 1.034 4.962.118.62.21 1.124.269 1.49.03.181.052.328.066.43l.008.07a.91.91 0 0 1-.356.263c-.24.112-.503.17-.768.172a1.274 1.274 0 0 1-.507-.095.766.766 0 0 1-.32-.252l.005.007a6.006 6.006 0 0 0-.61-.682 8.589 8.589 0 0 0-1.71-1.308 5.345 5.345 0 0 0-2.635-.766c-.216 0-.43.017-.643.05h-.008l-.007.001v.001c-.855.137-1.65.53-2.277 1.128-.06.066-.111.138-.155.215a4.45 4.45 0 0 0-.44.41c-.011.012-.028.017-.04.03-.026.03-.046.066-.072.096-.053.061-.112.117-.162.18-.076.096-.138.21-.209.311-.088.127-.178.252-.26.387-.093.156-.178.323-.264.49-.077.15-.156.299-.226.458-.082.185-.155.382-.23.578-.058.157-.12.31-.174.474-.068.205-.128.422-.188.637-.028.098-.06.19-.087.291-.084-.259-.171-.564-.256-.933-.146-.612-.33-1.423-.545-2.388.08-.08.15-.17.207-.268l4.307-8.746-.002-.001a11.754 11.754 0 0 0 1.305-5.413 11.447 11.447 0 0 0-.356-2.855 224.574 224.574 0 0 0-3.77-12.938c-1.198-3.683-2.227-6.492-2.86-7.912a25.218 25.218 0 0 0-1.462-2.93 4.174 4.174 0 0 0-.715-.89 1.996 1.996 0 0 0-1.211-.537h-.005l-.104-.004a1.889 1.889 0 0 0-.775.17c-.082.038-.162.08-.24.127.07-.19.135-.396.209-.572ZM24.653 85.25a2.084 2.084 0 0 1-1.103.823l-.006.003a5.256 5.256 0 0 1-1.218-.332c-.135-.05-.277-.11-.417-.17a41.991 41.991 0 0 1-.421-1.361c.064-.098.13-.194.19-.296.071-.12.135-.251.201-.378.09-.17.178-.34.259-.523.064-.146.123-.3.183-.453.07-.18.14-.361.203-.55.052-.158.101-.321.15-.485.036-.12.077-.233.11-.356.023-.084.04-.176.061-.262.02-.075.043-.144.062-.22.024-.102.04-.211.063-.314a18.929 18.929 0 0 0 .229-1.226 23.956 23.956 0 0 0 .164-1.308c.022-.232.04-.469.056-.707.015-.219.029-.437.039-.66.003-.083.011-.16.014-.243 0-.015-.007-.027-.007-.042.01-.305.024-.606.024-.918 0-.78-.032-1.58-.098-2.394a23.572 23.572 0 0 0-1.532-6.895c.23.184.483.337.752.455.49.21 1.016.316 1.549.313.64 0 1.273-.141 1.854-.411.458 1.793.762 3.623.907 5.468a36.41 36.41 0 0 1 .121 2.954c.054 2.755-.342 5.5-1.174 8.127a8.245 8.245 0 0 1-1.215 2.361Zm-8.82-5.715a22.662 22.662 0 0 1-.804-4.126c-.024-.223-.053-.441-.071-.67-.061-.742-.09-1.473-.09-2.183v-.014c0-.416.014-.823.033-1.222l.014-.262c.024-.389.055-.77.096-1.139.006-.06.015-.116.022-.175.038-.32.083-.63.134-.93l.04-.24c.061-.332.129-.65.204-.952.015-.062.032-.12.047-.18.068-.264.141-.513.22-.749l.05-.156c.092-.262.19-.502.29-.723l.058-.126c.09-.192.19-.379.3-.56l.02-.036c.09-.142.191-.277.303-.403a1.2 1.2 0 0 1 .568-.42l.086-.01a.571.571 0 0 1 .252.067c.348.202.644.481.866.817a10.652 10.652 0 0 1 1.453 3.151c.46 1.564.753 3.171.875 4.796a26.923 26.923 0 0 1 .076 3.05l-.001.003c-.017.52-.054 1.022-.102 1.51l-.01.111c-.049.464-.112.907-.186 1.332l-.025.148a15.6 15.6 0 0 1-.256 1.159l-.041.155c-.097.351-.202.675-.315.974-.028.072-.055.145-.083.214a8.118 8.118 0 0 1-.215.479 5.21 5.21 0 0 1-.215.398l-.095.156a3.578 3.578 0 0 1-.13.183c-.027.038-.056.078-.084.112a2.47 2.47 0 0 1-.13.147c-.024.024-.05.053-.072.074a1.5 1.5 0 0 1-.125.106l-.048.039a.937.937 0 0 1-.123.072l-.02.012a.512.512 0 0 1-.11.037l-.085.01a.574.574 0 0 1-.252-.068 2.6 2.6 0 0 1-.867-.816c-.05-.068-.101-.158-.152-.234a11.18 11.18 0 0 1-1.3-2.918Zm-9.43-45.478a125.851 125.851 0 0 1-.656-4.507 44.08 44.08 0 0 1-.158-1.462c.217-.752.472-1.492.764-2.218.209-.526.458-1.036.744-1.525.088-.147.185-.288.29-.423.061.102.127.218.198.352.265.493.598 1.196 1.012 2.124.552 1.232 1.585 4.034 2.761 7.656a222.063 222.063 0 0 1 3.726 12.785c.183.72.275 1.46.273 2.204a9.163 9.163 0 0 1-1.019 4.232l-.017.033-3.042 6.178A766.21 766.21 0 0 1 8.515 45.81c-.803-4.18-1.559-8.325-2.111-11.752Zm16.64 54.558c.094.014.187.043.283.053.155.011.31-.006.46-.05.108.012.217.01.324-.006a4.628 4.628 0 0 0 2.575-1.74 13.064 13.064 0 0 0 2.203-5.065c.52-2.311.774-4.675.754-7.045 0-1.03-.042-2.09-.13-3.166a33.325 33.325 0 0 0-1.401-7.379 1.282 1.282 0 0 0-.226-.403c0-.02.005-.039.005-.06v-.03a3.619 3.619 0 0 0-.037-.416c-.07-.53-.24-1.483-.508-2.833-.785-3.96-2.397-11.189-4.516-18.83a33.161 33.161 0 0 1 15.096-17.543c7.743-4.364 18.603-6.943 33.655-6.942 10.968 0 19.848 1.368 26.978 3.804 10.696 3.665 17.462 9.668 21.668 17.257 4.199 7.592 5.795 16.854 5.794 26.929a62.463 62.463 0 0 1-2.448 18.501 33.699 33.699 0 0 1-15.628 19.932c-8.225 4.814-19.966 7.629-36.364 7.627-16.418.002-27.868-2.821-35.72-7.632a31.187 31.187 0 0 1-12.817-14.963ZM71.58 113.81c2.401 0 4.692-.07 6.91-.187v4.127a1.279 1.279 0 0 0 .624 1.083c-.311.139-.633.273-.97.397a17.469 17.469 0 0 1-6.007 1.089 14.888 14.888 0 0 1-6.76-1.597 1.302 1.302 0 0 0 .813-1.202v-3.821c1.742.07 3.532.111 5.39.111Zm-38.6 30.871c.98-7.785 3.003-13.504 5.386-17.183a13.915 13.915 0 0 1 3.712-4.016 6.398 6.398 0 0 1 3.61-1.228c.205 0 .409.012.611.036a.47.47 0 0 1 .18.054c.08.053.143.128.181.217.044.086.08.177.108.27a15.59 15.59 0 0 0-1.311 2.671 5.927 5.927 0 0 0-2.773 4.194 5.937 5.937 0 0 0 1.441 4.817 26.85 26.85 0 0 1-.38 2.97v.005a91.554 91.554 0 0 0-1.338 10.458 9.289 9.289 0 0 1-.546.015 32.258 32.258 0 0 1-5.376-.528l-.007-.002c-.23-.043-.465-.085-.676-.132a8.592 8.592 0 0 1-1.424-.421 2.975 2.975 0 0 1-1.213-.802.955.955 0 0 1-.162-.323 1.861 1.861 0 0 1-.062-.519 4.56 4.56 0 0 1 .039-.553Zm8.962 5.879c-.036.031-.068.063-.106.094a2.17 2.17 0 0 1-1.113.504l-.203.012a2.635 2.635 0 0 1-1.678-.699c-.031-.027-.06-.063-.09-.092 1.142.118 2.24.18 3.109.182l.08-.001Zm-9.546 18.149a2.82 2.82 0 0 1-.377-1.483l-.002-.042-.034-.578a123.332 123.332 0 0 1-.189-6.543c0-1.766.05-3.615.192-5.212.07-.798.165-1.532.282-2.152.081-.49.214-.97.395-1.432.18-.315.44-.576.755-.754.49-.309 1.03-.53 1.597-.655a1.16 1.16 0 0 0 .111-.05c.039.009.072.02.111.029l.1.02a6.703 6.703 0 0 0 1.807 2.583 5.216 5.216 0 0 0 3.376 1.33c.166 0 .331-.009.496-.028a4.347 4.347 0 0 0 1.07-.275 181.47 181.47 0 0 0-.164 7.307c0 3.043.079 6.04.221 8.887-.842.088-1.688.129-2.535.125a35.32 35.32 0 0 1-6.369-.548 1.238 1.238 0 0 1-.843-.529Zm8.992 13.023a1.68 1.68 0 0 1-.324-.026l-.07-.017-.003-.002a26.319 26.319 0 0 1-2.32-1.474 7.956 7.956 0 0 1-1.054-.908 2.11 2.11 0 0 1-.47-.673v-.001a7.078 7.078 0 0 1-.12-.425 63.055 63.055 0 0 1-1.102-5.52c-.024-.165-.044-.32-.063-.468 1.203.106 2.5.166 3.746.168.898.002 1.795-.04 2.688-.128.118 1.72.264 3.358.437 4.892-.108.003-.217.008-.322.007a4.282 4.282 0 0 1-.815-.064 96.08 96.08 0 0 1-.574-1.74c-.225-.698-.4-1.26-.401-1.261a1.3 1.3 0 0 0-2.482.776c.004.009.71 2.268 1.117 3.41l.002.005c.142.382.402.709.742.934.375.238.796.393 1.235.455.39.06.783.089 1.176.085.22 0 .436-.008.647-.019.08.571.165 1.124.254 1.652-.11.032-.23.065-.357.098a6.818 6.818 0 0 1-1.567.244Zm15.061-6.291a91.864 91.864 0 0 1-3.318-.39c1.417-.773 2.763-1.665 4.255-2.402a14.454 14.454 0 0 1 6.693-1.628c1.873.03 3.728.364 5.493.989 2.73.904 5.484 2.315 8.483 3.534.313.127.631.25.95.372-2.639.115-5.376.178-8.126.178-4.934 0-9.91-.2-14.43-.653Zm42.56-2.104c-1.427.475-2.89.831-4.375 1.065-1.375.244-2.949.469-4.67.67-.64.07-1.282.104-1.925.105-4.316.003-8.056-1.576-11.854-3.266-1.897-.842-3.8-1.705-5.793-2.368a19.881 19.881 0 0 0-6.313-1.122 18.43 18.43 0 0 0-9.802 2.964c-1.219.713-2.296 1.39-3.31 1.862a6.853 6.853 0 0 1-2.955.748 5.83 5.83 0 0 1-1.214-.135 33.408 33.408 0 0 1-1.814-.507 129.9 129.9 0 0 1-.186-2.669v.001c-.181-3.13-.276-6.497-.276-9.911 0-3.313.09-6.67.274-9.898.002-.017.011-.031.012-.048.03-.555.069-1.116.109-1.675v-.002c.231-3.744.692-7.47 1.378-11.158v.004c.23-1.256.385-2.525.465-3.799l.016-.119c.096-1.262.166-2.512.272-3.646.071-.982.227-1.957.464-2.913l.007-.025c.052-.204.127-.425.214-.663l.008-.025a12.986 12.986 0 0 1 1.49-3.015 10.933 10.933 0 0 1 3.46-3.4l.007-.005a5.502 5.502 0 0 1 1.204-.449 39.254 39.254 0 0 1 7.152-.937 17.428 17.428 0 0 0 11.083 3.918 20.088 20.088 0 0 0 6.908-1.25 15.876 15.876 0 0 0 4.326-2.36c2.306.186 4.399.417 6.082.685.903.143 1.691.297 2.327.453.473.105.935.255 1.38.446l.005.003.038.025c.238.219.435.478.582.766.208.375.393.762.553 1.16a5.512 5.512 0 0 0-.42.835c-.355.988-.575 2.02-.652 3.068-.105 1.026-.213 2.662-.213 4.798.02 4.854.51 9.695 1.462 14.454v-.001a15.37 15.37 0 0 0 3.254 7.468c-.028.317-.043.634-.043.952.028 1.274.169 2.543.42 3.792a25.868 25.868 0 0 0 1.62 5.104c.085 2.571.132 5.114.132 7.583 0 .685-.004 1.364-.011 2.036-.28.161-.574.295-.879.401Zm10.819-.98a13.633 13.633 0 0 1-2.772-2.05 14.057 14.057 0 0 1-1.96-2.424 33.938 33.938 0 0 1-2.787-5.223c-.016-.035-.028-.069-.043-.105a1.107 1.107 0 0 0-.029-.073 23.882 23.882 0 0 1-1.532-4.73 19.224 19.224 0 0 1-.378-3.331 4.9 4.9 0 0 1 2.817-4.772c.298-.165.611-.301.935-.404l1.628-.243c1.122.05 2.22.345 3.215.864a19.68 19.68 0 0 1 4.945 3.715 34.825 34.825 0 0 1 3.607 4.224c.731.994 1.4 2.033 2.002 3.11a6.445 6.445 0 0 0-.842.313 6.54 6.54 0 0 0-1.33.83 1.213 1.213 0 0 0-.282-.1 5.898 5.898 0 0 0-3.672 11.038c.015.008.031.009.046.016.062.091.122.182.189.274-.12.008-.24.016-.358.016a7.173 7.173 0 0 1-3.399-.945Zm7.837 1.303c.043-.422.105-.978.198-1.569.101-.755.28-1.498.532-2.216.113-.084.241-.145.378-.179.219-.062.445-.097.672-.104-.008.133-.016.273-.027.425a48.257 48.257 0 0 1-.25 2.563c-.054.43-.114.837-.174 1.177a8.353 8.353 0 0 1-.068.348 3.442 3.442 0 0 1-1.056-.329 2.295 2.295 0 0 1-.205-.116Zm5.781.865c-.029.056-.055.1-.08.142-.156.03-.314.044-.473.042a4.202 4.202 0 0 1-.851-.094 1.519 1.519 0 0 1-.526-.217l.024-.135a1.285 1.285 0 0 0 1.187-1.052c.05-.199.116-.394.197-.583.204-.502.444-.988.718-1.456.099-.172.209-.338.329-.496.264.012.525.057.778.134a24.67 24.67 0 0 1-.783 2.503c-.15.413-.323.818-.52 1.212Zm4.225-.438a9.509 9.509 0 0 1-1.041-.517c.105-.305.198-.594.288-.888l.071.019a28.53 28.53 0 0 0 1.179.27l.136.027.151.024.005.001c.118.013.235.019.353.019a8.852 8.852 0 0 0 1.377-.157 7.3 7.3 0 0 1 1.104-.123c.133-.006.266.01.394.048l.017.01a1.305 1.305 0 0 1-.011.443l-.011.003c-.505.161-1.158.421-1.824.642-.329.11-.654.208-.933.274-.2.053-.404.084-.611.094l-.034-.001h-.006a2.978 2.978 0 0 1-.604-.188Zm7.844 2.107a40.173 40.173 0 0 1-2.322-.713c.148-.09.283-.2.401-.327.275-.308.473-.676.577-1.075.099-.352.149-.715.148-1.08a3.484 3.484 0 0 0-.092-.82 2.417 2.417 0 0 0-.389-.871 2.682 2.682 0 0 0-1.251-.938c-.077-.028-.149-.034-.225-.055a7.167 7.167 0 0 0-.378-2.225 5.488 5.488 0 0 0-.785-1.506 4.882 4.882 0 0 0-1.023-.981c.106.028.21.054.322.089a19.663 19.663 0 0 1 6.964 4.267 4.449 4.449 0 0 1 1.756 3.208 2.98 2.98 0 0 1-1.008 2.183 3.295 3.295 0 0 1-2.152.913c-.183 0-.366-.023-.543-.069Zm7.574-1.242a10 10 0 0 1-1.964.836c.451-.8.69-1.702.693-2.621a7.03 7.03 0 0 0-2.601-5.126c-.037-.034-.076-.063-.113-.097a14.848 14.848 0 0 1 5.681-2.299 7.183 7.183 0 0 1 1.395-.148c.421-.001.841.057 1.246.172a3.689 3.689 0 0 0-.973 5.192 71.807 71.807 0 0 0-.387 2.095 24.271 24.271 0 0 1-2.977 1.996Zm46.896-41.193.097.076.02.017c.016.018.021.043.039.061.088.109.16.23.215.36a8.554 8.554 0 0 1 .609 3.362l-.004.267.001-.001a11.734 11.734 0 0 1-.316 2.503c-.094.47-.275.917-.534 1.32a1.192 1.192 0 0 0-.107.207c-.02.017-.045.023-.064.042l-.002.001a5.588 5.588 0 0 1-.864.659c-.393.257-.835.43-1.298.509a1.803 1.803 0 0 1-.194-.328 7.17 7.17 0 0 1-.522-1.792 15.49 15.49 0 0 1-.208-3.078c.008-1.404.238-2.797.682-4.128.119-.355.293-.689.517-.989l.045-.047c.149.02.295.059.434.116.382.159.746.359 1.085.596.155.105.283.201.369.267Zm-50.116-13.807a6.389 6.389 0 0 1 .923-2.236c.072-.102.162-.19.266-.259l.013-.006.119.063c.115.087.217.191.301.308l.002.001c.071.106.135.216.192.33a9.27 9.27 0 0 1 .811 2.678 17.928 17.928 0 0 0-3.081 3.974c-.036.063-.065.131-.1.194.008-1.697.194-3.388.554-5.047Zm41.383 46.072a4.64 4.64 0 0 1 1.623 1.344 17.412 17.412 0 0 1 1.84 3.186c.555 1.263.846 2.627.855 4.008 0 .201-.006.406-.019.614a2.716 2.716 0 0 1-1.092 1.89 3.946 3.946 0 0 1-2.405.859 2.94 2.94 0 0 1-2.036-.776l-.186.203.186-.203a8.043 8.043 0 0 1-1.853-2.901 16.985 16.985 0 0 1-1.122-5.365 8.003 8.003 0 0 1-.016-.5 5.012 5.012 0 0 1 .213-1.558 1.9 1.9 0 0 1 .741-1.059 2.105 2.105 0 0 1 1.175-.307 4.715 4.715 0 0 1 2.096.565Zm1.223-11.303c-4.078 2.898-10.172 4.699-18.834 4.698a37.864 37.864 0 0 1-12.159-1.716 17.006 17.006 0 0 1-9.789-7.634 23.905 23.905 0 0 1-2.717-11.997 31.297 31.297 0 0 1 .516-5.788c.097-.202.139-.426.121-.65l-.002-.023c.143-.662.313-1.307.509-1.935a16.017 16.017 0 0 1 7.07-9.213c3.695-2.268 9-3.664 16.451-3.663 6.36-.001 11.329 1.078 15.127 2.883a18.494 18.494 0 0 1 8.226 7.335c.053.074.114.142.183.203-.087.312-.176.626-.245.928a11.398 11.398 0 0 0-.324 2.466l.002.03a3.73 3.73 0 0 0-.968 1.106 9.241 9.241 0 0 0-.983 2.666 17.923 17.923 0 0 0-.405 3.462c-.005.171-.007.341-.007.51a15.378 15.378 0 0 0 .655 4.708c.188.615.482 1.191.869 1.704.204.261.454.484.737.657.328.198.704.305 1.088.307l.034-.001h.009a4.791 4.791 0 0 0 1.305-.237 16.67 16.67 0 0 1-6.469 9.194Zm12.533-29.259a94.247 94.247 0 0 1-.813 5.245c-.308 1.701-.621 3.202-.806 3.928a3.217 3.217 0 0 1-.104.329c-.038-.176-.075-.352-.119-.517a7.817 7.817 0 0 0-.456-1.279 3.933 3.933 0 0 0-.688-1.049c-.027-.029-.064-.04-.094-.066a1.214 1.214 0 0 0-.152-.191 10.029 10.029 0 0 0-1.151-.812 7.523 7.523 0 0 0-1.153-.577c-.079-.031-.169-.051-.252-.079.06-.828.208-1.647.443-2.443a32.533 32.533 0 0 1 1.943-5.091 20.276 20.276 0 0 1 2.211-3.771c.168-.219.368-.411.593-.571l.044-.023c.252.393.419.834.492 1.296.194.995.284 2.008.269 3.022v.016c-.021.881-.09 1.76-.207 2.633Z"/></svg>