<svg xmlns="http://www.w3.org/2000/svg" width="200" height="200" fill="none"><path fill="#FFD93A" d="M162.784 94.507c-4.589-16.167-16.993-27.997-33.467-33.157-8.952-22.294-33.428-36.434-65.842-27.233-34.78 9.873-47.676 37.809-40.548 62.922 4.244 14.951 15.483 26.094 30.84 30.69 8.8 26.609 35.923 42.144 68.528 32.889 33.452-9.495 48.413-38.196 40.489-66.111Z"/><g fill="#191C22"><path d="M3.581 95.596a15.187 15.187 0 0 0 5.924 5.183 51.363 51.363 0 0 0 14.41 4.759c.334.065.679.11 1.016.171a44.657 44.657 0 0 0 12.805 15.373 42.13 42.13 0 0 0 10.869 11.852 35.87 35.87 0 0 0-2.813 3.005c-.84 1.001-1.516 1.875-2.06 2.536a6.003 6.003 0 0 0-2.805-.73 5.09 5.09 0 0 0-2.244.524 10.145 10.145 0 0 0-7.998 2.02 8.009 8.009 0 0 0-.577.515 12.88 12.88 0 0 0-5.315 4.118 12.687 12.687 0 0 0-1.645 2.752 7.219 7.219 0 0 0-.643 2.781c0 .201.013.402.04.601.083.99.505 1.922 1.194 2.637.303.289.664.51 1.058.651.196.068.398.117.604.144.085.317.2.625.342.921.233.492.571.926.991 1.271a3.031 3.031 0 0 0 1.912.661 4.096 4.096 0 0 0 2.221-.69c.235.38.537.714.892.984.529.397 1.173.61 1.834.607.228-.001.455-.023.679-.068a4.708 4.708 0 0 0 2.213-1.264 15.355 15.355 0 0 0 2.244-2.774c.284-.434.514-.817.675-1.094a21.642 21.642 0 0 0 3.636-1.688h.04c.8.018 1.596-.13 2.336-.435a4.375 4.375 0 0 0 2.06-1.889 5.343 5.343 0 0 0 .599-2.576 8.254 8.254 0 0 0-.057-.881c.06-.054.133-.106.191-.16a23.17 23.17 0 0 0 2.224-2.498 41.962 41.962 0 0 1 3.355-3.872 23.336 23.336 0 0 1 2.07-1.808c.268.126.533.254.803.374a51.267 51.267 0 0 0 26.909 23.402 22.653 22.653 0 0 0 1.1 6.35 16.085 16.085 0 0 0 5.782 8.054 14.857 14.857 0 0 0 2.628 1.5c.06 1.398.285 2.784.672 4.128.187.676.41 1.342.665 1.994a6.51 6.51 0 0 0-.372 2.178c.002.606.078 1.209.223 1.796a13.662 13.662 0 0 0 4.628 7.791 11.324 11.324 0 0 0 7.071 2.345 13.92 13.92 0 0 0 2.059-.156 10.967 10.967 0 0 0 6.678-3.512 9.941 9.941 0 0 0 2.492-6.605 10.628 10.628 0 0 0-.108-1.491 19.187 19.187 0 0 0-1.535-4.758 40.286 40.286 0 0 0-4.599-7.752 21.933 21.933 0 0 0-2.761-3.041 7.64 7.64 0 0 0-2.957-1.766 9.126 9.126 0 0 0-2.355-.301 10.957 10.957 0 0 0-6.204 1.99c-.08-.031-.164-.056-.242-.09a7.155 7.155 0 0 1-3.408-3.114 10.836 10.836 0 0 1-1.148-3.134 58.613 58.613 0 0 0 11.838 1.19 69.32 69.32 0 0 0 18.933-2.738c14.012-3.976 24.904-11.295 32.282-20.555a52.167 52.167 0 0 0 4.592-6.808 14.774 14.774 0 0 0 5.246 5.261c1.1.626 2.283 1.096 3.513 1.394.091 1.318.272 2.627.544 3.919.292 1.411.582 2.375.59 2.401.019.04.04.079.063.116a7.108 7.108 0 0 0-.334 2.136c.004.742.107 1.48.309 2.195a17.03 17.03 0 0 0 5.066 8.583 11.344 11.344 0 0 0 9.75 2.632 11.105 11.105 0 0 0 6.813-4.434 12.807 12.807 0 0 0 2.448-7.475 11.588 11.588 0 0 0-.178-2.037 23.79 23.79 0 0 0-1.674-5.061 43.748 43.748 0 0 0-4.777-8.274 21.665 21.665 0 0 0-2.873-3.216 7.45 7.45 0 0 0-3.132-1.811 11.224 11.224 0 0 0-2.511-.279 11.896 11.896 0 0 0-5.838 1.517 9.525 9.525 0 0 0-1.892 1.412 6.09 6.09 0 0 1-1.608-.5 5.697 5.697 0 0 1-1.752-1.349 12.557 12.557 0 0 1-2.419-4.661 28.64 28.64 0 0 1-.798-3.215 51.52 51.52 0 0 0 2.085-14.541 55.167 55.167 0 0 0-2.131-15.067 49.02 49.02 0 0 0-.939-2.92 38.506 38.506 0 0 0 1.591-.165 25.995 25.995 0 0 0 5.958-1.428c.429-.162.858-.315 1.277-.462.898.33 1.845.506 2.802.52h.046c.435.004.865-.083 1.265-.255.365-.16.693-.392.963-.685a8.664 8.664 0 0 0 2.378-.44 7.517 7.517 0 0 0 2.346-1.283c.255-.208.496-.433.719-.674 1.134.1 2.479.206 3.789.206 1.133.035 2.264-.1 3.357-.398.344-.11.672-.264.975-.459a3 3 0 0 0 .465-.364 2.398 2.398 0 0 0 .729-1.742l-.009-.224a3.57 3.57 0 0 0-.496-1.549 3.969 3.969 0 0 0-.73-.886c.089-.08.173-.163.253-.252a3.27 3.27 0 0 0 .792-2.116 3.422 3.422 0 0 0-1.101-2.462 5.922 5.922 0 0 0-2.552-1.347c.006-.071.027-.138.027-.21a2.677 2.677 0 0 0-.361-1.328 3.47 3.47 0 0 0-.983-1.061 4.742 4.742 0 0 0-.541-.346 7.282 7.282 0 0 0-2.003-.67c-.114-.023-.211-.058-.33-.078a13.355 13.355 0 0 0-2.092-.14c-1.66.003-3.314.183-4.935.535a12.395 12.395 0 0 0-4.902 2.103 15.943 15.943 0 0 0-3.035 3.08 6.635 6.635 0 0 0-1.459 3.761c0 .026.004.051.005.077-.236.244-.424.53-.554.845a3.27 3.27 0 0 0-.233 1.236c-.931.254-1.879.441-2.837.56-1.299.166-2.694.236-4.148.276a47.834 47.834 0 0 0-5.312-7.543c1.336.127 2.665.323 3.981.589 1.087.219 2.16.497 3.217.834a.118.118 0 0 0 .068-.004c.338.113.675.23.98.346a35.906 35.906 0 0 1 1.357.542l.104.045a1.303 1.303 0 0 0 1.712-.671 1.302 1.302 0 0 0-.672-1.712c-.014-.006-.685-.298-1.585-.637a34.75 34.75 0 0 0-1.086-.384c.102-.57.199-1.205.287-1.867.205.062.407.123.596.182a57.413 57.413 0 0 1 1.44.472 1.301 1.301 0 0 0 .855-2.455 49.56 49.56 0 0 0-2.601-.82c.06-.676.107-1.325.138-1.914a138.185 138.185 0 0 1 2.314.568 1.3 1.3 0 0 0 .643-2.52c-.01-.002-2.495-.637-4.092-.969a1.236 1.236 0 0 0-.234-.001 46.363 46.363 0 0 0-3.658-.726 50.311 50.311 0 0 0-3.365-.394c.052-.438.104-.923.152-1.431a46.002 46.002 0 0 1 1.783.184c.266.032.419.053.419.053a1.301 1.301 0 0 0 .344-2.578 54.896 54.896 0 0 0-2.387-.254c.02-.67.005-1.34-.045-2.007l.354.012c.832.03 1.465.06 1.467.06a1.3 1.3 0 1 0 .123-2.596c-.01 0-2.572-.123-4.203-.127-.122.007-.241.03-.356.071a33.566 33.566 0 0 0-7.139 1.111 87.273 87.273 0 0 0 5.983-8.167 58.312 58.312 0 0 0 4.981-9.375 23.519 23.519 0 0 0 1.985-8.554 9.496 9.496 0 0 0-1.055-4.594 7.595 7.595 0 0 0-3.473-3.225 8.15 8.15 0 0 0-3.555-.82 9.614 9.614 0 0 0-4.229 1.048 20.197 20.197 0 0 0-6.614 5.726 49.624 49.624 0 0 0-7.561 14.404 57.204 57.204 0 0 0-2.668 11.327 48.996 48.996 0 0 0-4.438-4.66 47.955 47.955 0 0 0-5.385-6.148c-.041-.068-.066-.101-.085-.128a2.15 2.15 0 0 0-.158-.183c-.18-.191-.506-.51-1.018-.959-.57-.5-1.385-1.16-2.391-1.902-.186-.145-.366-.297-.555-.44a50.47 50.47 0 0 0-24.016-9.713 7.808 7.808 0 0 1-.483-2.688c.007-.879.15-1.751.425-2.587a4.675 4.675 0 1 0-2.193-1.58 11.326 11.326 0 0 0-.832 4.167c.003.801.1 1.599.288 2.377a60.302 60.302 0 0 0-5.159-.225 72.527 72.527 0 0 0-19.804 2.9c-11.465 3.252-20.634 8.466-27.54 14.918a8.062 8.062 0 0 1-1.285-4.313c0-.089.006-.182.01-.273a4.647 4.647 0 1 0-3.083.058c.157.045.316.081.477.109 0 .035-.004.071-.004.106a10.8 10.8 0 0 0 1.989 6.167 51.956 51.956 0 0 0-3.182 3.586 49.498 49.498 0 0 0-4.787 7.123 40.39 40.39 0 0 0-4.608 11.389c-.021.138-.02.278.004.415a48.154 48.154 0 0 0-1.372 11.18 31.81 31.81 0 0 0-5.433-.532 15.832 15.832 0 0 0-7.066 1.422 8.357 8.357 0 0 0-4.326 4.857 8.056 8.056 0 0 0-.446 2.6 7.604 7.604 0 0 0 1.113 3.917Zm21.524 54.859c.03-.609.177-1.207.434-1.76.541-1.204 1.297-2.3 2.231-3.234.08-.082.17-.154.253-.234-.004.095-.015.192-.015.285a4.76 4.76 0 0 0 .402 1.976c.057.12.12.237.19.35a7.512 7.512 0 0 0-.804.99 23.468 23.468 0 0 0-1.273 2.312 7.332 7.332 0 0 1-.408.721l-.022.031a.95.95 0 0 1-.232.032l-.191-.029a.459.459 0 0 1-.233-.197 2.286 2.286 0 0 1-.316-.992 1.878 1.878 0 0 1-.016-.251Zm20.087-2.669a1.751 1.751 0 0 1-.861.77c-.401.143-.826.21-1.251.198a3.75 3.75 0 0 1-.215-.005l-.052-.002-.008-.001v.001a1.29 1.29 0 0 0-.796.195l-.014.008a18.876 18.876 0 0 1-3.862 1.78 1.303 1.303 0 0 0-.765.631l-.021.038a20.632 20.632 0 0 1-1.5 2.322c-.36.488-.765.942-1.209 1.355a2.23 2.23 0 0 1-.866.547l-.179.019a.421.421 0 0 1-.28-.09 1.57 1.57 0 0 1-.428-.634 2.916 2.916 0 0 1-.118-.343l-.004-.018c.147-.231.285-.457.417-.67.234-.385.449-.733.647-1 .14-.205.312-.387.509-.539a1.305 1.305 0 0 0 .54-.839 1.299 1.299 0 0 0-2.028-1.294 5.547 5.547 0 0 0-1.39 1.525c-.528.804-.956 1.613-1.406 2.158-.182.235-.4.44-.645.607a1.46 1.46 0 0 1-.677.231l-.084.005a.406.406 0 0 1-.29-.092 1.516 1.516 0 0 1-.394-.669 3.005 3.005 0 0 1-.06-.204c.042-.045.084-.09.122-.134.28-.352.521-.734.72-1.138.314-.599.626-1.26.97-1.84a4.58 4.58 0 0 1 1.028-1.295c.04-.04.078-.083.113-.128.154.027.311.044.468.051a4.164 4.164 0 0 0 2.517-.913 5.582 5.582 0 0 0 1.494-1.747v.001a.9.9 0 0 1 .429-.437l.122-.038.009-.002-.002-.009a1.294 1.294 0 0 0 .831-2.229 1.29 1.29 0 0 0-.912-.359 2.887 2.887 0 0 0-1.096.258 3.513 3.513 0 0 0-1.669 1.581v.001a3.036 3.036 0 0 1-.787.916 1.592 1.592 0 0 1-.936.377 1.068 1.068 0 0 1-.43-.098l-.043-.051a1.92 1.92 0 0 1-.242-1.031 4.154 4.154 0 0 1 1.7-3.192 7.332 7.332 0 0 1 4.639-1.6c.4 0 .798.031 1.193.093.14.022.246.044.312.059l.069.016.01.003v-.001a1.298 1.298 0 0 0 1.047-.157 2.45 2.45 0 0 1 1.349-.388c.24.004.478.037.71.098a3.973 3.973 0 0 0-.638 4.76 3.98 3.98 0 0 0 4.411 1.902c-.037.237-.11.467-.218.681Zm51.007 32.35a16.54 16.54 0 0 1-.448-2.296c.244.061.491.11.739.159.092.499.208 1.081.345 1.719a9.43 9.43 0 0 0-.6.546l-.036-.128Zm6.682-9.771a6.522 6.522 0 0 1 1.686.213c.421.134.815.34 1.166.609a15.035 15.035 0 0 1 2.747 2.746 36.799 36.799 0 0 1 4.679 7.71 16.993 16.993 0 0 1 1.355 4.113c.054.37.081.744.082 1.118a7.328 7.328 0 0 1-1.841 4.883 8.35 8.35 0 0 1-5.116 2.662c-.553.084-1.112.127-1.672.128a8.712 8.712 0 0 1-5.467-1.791 11.075 11.075 0 0 1-3.706-6.36 4.976 4.976 0 0 1-.149-1.181 4.001 4.001 0 0 1 .8-2.411 8.192 8.192 0 0 1 3.686-2.58 13.323 13.323 0 0 1 4.656-.909 5.785 5.785 0 0 1 1.898.261 1.303 1.303 0 0 0 1.668-.774c.022-.084.035-.17.039-.257a1.282 1.282 0 0 0-.813-1.411 6.416 6.416 0 0 0-.872-.236 25.567 25.567 0 0 0-2.099-2.962 13.927 13.927 0 0 0-2.235-2.187 7.813 7.813 0 0 0-1.489-.897 6.51 6.51 0 0 0-.73-.269 7.678 7.678 0 0 1 1.727-.218Zm68.036-28.795c.388.027.776.045 1.165.046.172.496.373 1.064.601 1.683-.474.354-.917.746-1.325 1.174a27.333 27.333 0 0 1-.441-2.903Zm7.47-8.414a8.631 8.631 0 0 1 1.928.213 3.67 3.67 0 0 1 1.222.609 14.716 14.716 0 0 1 2.858 2.886 39.339 39.339 0 0 1 4.132 6.664c.389.784.739 1.56 1.047 2.305a19.77 19.77 0 0 1 1.22 3.821c.092.522.139 1.051.138 1.581a10.224 10.224 0 0 1-1.948 5.941 8.497 8.497 0 0 1-5.221 3.417 8.724 8.724 0 0 1-7.547-2.054 14.456 14.456 0 0 1-4.255-7.303 5.655 5.655 0 0 1-.215-1.502 4.704 4.704 0 0 1 .906-2.769 9.354 9.354 0 0 1 4.058-2.982 13.46 13.46 0 0 1 4.938-1.058 5.372 5.372 0 0 1 1.624.209 1.3 1.3 0 0 0 1.643-.826 1.29 1.29 0 0 0 .034-.284 1.28 1.28 0 0 0-.86-1.358c-.144-.048-.304-.065-.453-.102a27.652 27.652 0 0 0-1.956-2.996 14.246 14.246 0 0 0-2.484-2.603 8.044 8.044 0 0 0-1.72-1.048c-.483-.21-.99-.36-1.51-.444a9.514 9.514 0 0 1 2.421-.317Zm-1.128-59.149a20.862 20.862 0 0 1 4.37-.473c.558-.007 1.115.028 1.667.105a4.156 4.156 0 0 1 1.792.642.854.854 0 0 1 .233.24l.017.036c-.002.011-.044.132-.269.3-.353.241-.751.408-1.171.49a9.163 9.163 0 0 1-1.873.256 9.223 9.223 0 0 0-1.669.141 1.298 1.298 0 0 0-.812 2.004 1.295 1.295 0 0 0 1.338.543 7.13 7.13 0 0 1 1.239-.09 11.85 11.85 0 0 0 2.363-.32 5.772 5.772 0 0 0 2.034-.874c.117.078.246.136.382.172a3.699 3.699 0 0 1 1.758.806.819.819 0 0 1 .307.591.67.67 0 0 1-.172.432.966.966 0 0 1-.534.31c-1.184.2-2.383.29-3.583.266a41.895 41.895 0 0 1-2.056-.053 1.3 1.3 0 0 0-.152 2.596c.016 0 .968.056 2.208.057a32.16 32.16 0 0 0 2.252-.078c.092-.007.182-.017.273-.025.517.14 1.006.369 1.443.679.109.084.207.183.29.293.031.035.059.073.085.112.067.114.109.24.125.372a.992.992 0 0 1-.154.08 4.168 4.168 0 0 1-1.094.26c-.553.064-1.11.094-1.667.09-1.407 0-2.987-.144-4.228-.256a1.296 1.296 0 0 0-1.156.515 4.674 4.674 0 0 1-2.3 1.627 6.193 6.193 0 0 1-1.912.316l-.169-.003-.033-.002h-.003a1.296 1.296 0 0 0-1.285.772l-.007-.004-.08.091a.42.42 0 0 1-.287.075h-.015.003a6.073 6.073 0 0 1-3.705-1.352 5.348 5.348 0 0 1-1.832-2.513c-.064-.21-.1-.426-.105-.645a.664.664 0 0 1 .038-.261l.018-.034.002-.002-.009-.01a1.293 1.293 0 0 0 .776-1.542c-.004-.015-.003-.034-.007-.05.002-.01.009-.02.009-.031.035-.337.138-.662.301-.958.074-.138.169-.264.279-.375a.674.674 0 0 1 .241-.158c1.124-.394 2.08-.712 2.856-.924a7.09 7.09 0 0 1 1.712-.308c.096-.003.191.007.284.03.047.153.07.312.068.472v-.002l.001.044c.002.276-.088.544-.256.762a3.18 3.18 0 0 1-1.21.895c-.19.088-.385.164-.583.228l-.165.05-.036.01a1.3 1.3 0 0 0 .601 2.53 7.47 7.47 0 0 0 2.003-.847 5.168 5.168 0 0 0 1.486-1.328 3.848 3.848 0 0 0 .76-2.3l-.002-.114v-.002a4.238 4.238 0 0 0-.181-1.162 2.58 2.58 0 0 0-1.098-1.445 3.145 3.145 0 0 0-1.672-.42 8.29 8.29 0 0 0-1.933.282 9.93 9.93 0 0 1 3.861-1.61Zm-99.645 67.787a75.118 75.118 0 0 0 21.63-3.401c31.098-9.368 45.484-35.817 40.693-60.534a15.29 15.29 0 0 1 3.825-1.444 24.22 24.22 0 0 1 2.661-.476 57.856 57.856 0 0 1 2.132 6.025c.195.66.368 1.323.531 1.987-.402.06-.801.11-1.206.188a4.01 4.01 0 0 0-2.554 1.69 3.987 3.987 0 0 0-.609 3.003 3.996 3.996 0 0 0 4.695 3.159c.27-.054.57-.08.851-.123.046.82.075 1.642.075 2.464.008 21.981-16.316 44.156-43.496 51.872a65.175 65.175 0 0 1-17.744 2.567 46.317 46.317 0 0 1-19.024-3.766 29.354 29.354 0 0 1-8.269-5.479 53.73 53.73 0 0 0 15.809 2.268Zm85.951-32.575a48.537 48.537 0 0 1-10.667 30.474c-7.017 8.805-17.41 15.827-30.958 19.674a66.699 66.699 0 0 1-18.223 2.64 53.053 53.053 0 0 1-23.225-5.152 54.84 54.84 0 0 0 14.63 1.91 70.68 70.68 0 0 0 19.249-2.779c29.218-8.292 47.003-32.126 47.01-56.118a47.694 47.694 0 0 0-.562-7.28c.254.749.495 1.505.714 2.274a52.582 52.582 0 0 1 2.032 14.357Zm-26.143-72.86a32.824 32.824 0 0 1 6.209-8.508 13.805 13.805 0 0 1 3.278-2.337 7.026 7.026 0 0 1 3.087-.784 5.542 5.542 0 0 1 2.43.565 4.98 4.98 0 0 1 2.316 2.127 6.926 6.926 0 0 1 .737 3.348 21.057 21.057 0 0 1-1.794 7.577 64.09 64.09 0 0 1-7.888 13.464 86.081 86.081 0 0 1-5.566 6.747 31.637 31.637 0 0 0-4.509 2.37c-.437.279-.856.58-1.274.882-.225-.092-.452-.18-.679-.27a49.993 49.993 0 0 0-2.531-3.91 55.028 55.028 0 0 1 6.184-21.271ZM27.6 63.522a12.239 12.239 0 0 1 3.283-3.295 7.635 7.635 0 0 1 4.232-1.26 9.189 9.189 0 0 1 1.712.166c1.9.39 3.719 1.11 5.372 2.126 2.527 1.475 4.908 3.454 7.629 5.121a18.087 18.087 0 0 0 9.694 2.998 19.997 19.997 0 0 0 5.479-.813 17.818 17.818 0 0 0 8.332-5.112c3.15-3.37 5.093-7.53 7.347-11.236a30.059 30.059 0 0 1 3.728-5.1 16.053 16.053 0 0 1 5.099-3.705 33.463 33.463 0 0 1 13.174-2.608 27.778 27.778 0 0 1 7.964 1.084 16.508 16.508 0 0 1 5.89 3.096 46.647 46.647 0 0 1 13.247 21.724 42.848 42.848 0 0 1-9.088 40.238c-7.075 8.33-17.555 15.107-31.162 18.97a71.105 71.105 0 0 1-19.408 2.827c-11.551-.001-21.666-3.215-29.577-8.815a42.322 42.322 0 0 1-16.37-23.244 47.946 47.946 0 0 1-1.843-13.095 45.504 45.504 0 0 1 2.116-13.728 27.222 27.222 0 0 1 3.15-6.339ZM5.376 89.915a5.73 5.73 0 0 1 3.028-3.369 13.31 13.31 0 0 1 5.902-1.146c1.846.022 3.685.218 5.494.585.189 3.862.819 7.69 1.876 11.409a46.757 46.757 0 0 0 1.9 5.408 61.82 61.82 0 0 1-6.97-1.824 28.224 28.224 0 0 1-8.509-4.217 9.44 9.44 0 0 1-2.28-2.492 4.992 4.992 0 0 1-.75-2.59c.006-.601.11-1.197.31-1.764Z"/><path d="M87.745 85.58c5.365-.286 6.151-16.205-1.192-15.766-7.262.435-4.743 16.081 1.192 15.765ZM48.456 96.453c5.087.004 5.102-16.406-1.828-15.704-6.851.695-4.464 15.7 1.828 15.704ZM69.002 101.398a11.753 11.753 0 0 0 6.704-2.203 11.414 11.414 0 0 0 2.338-2.181 7.615 7.615 0 0 0 1.38-2.535 1.3 1.3 0 1 0-2.492-.738 5.066 5.066 0 0 1-.92 1.652 9.288 9.288 0 0 1-2.96 2.38 8.869 8.869 0 0 1-4.05 1.025 8.153 8.153 0 0 1-5.293-2.011 1.302 1.302 0 0 0-2.076.617 1.298 1.298 0 0 0 .418 1.386 10.771 10.771 0 0 0 6.95 2.608Z"/></g></svg>