<svg width="200" height="200" viewBox="0 0 200 200" xmlns="http://www.w3.org/2000/svg"><g id="type=offer-personal, mode=dark"><g id="Group 432527115"><path id="Vector" d="M106.781 113.045C107.521 112.826 108.211 112.425 108.861 111.875C108.591 107.475 104.171 100.975 94.9512 105.745C97.4707 110.535 102.811 114.215 106.781 113.045Z"/><path id="Vector_2" d="M122.661 80.2469C122.316 79.617 121.526 79.3863 120.897 79.731C120.267 80.076 120.036 80.866 120.381 81.4957L120.51 81.731C120.855 82.3609 121.645 82.5916 122.274 82.2469C122.904 81.9019 123.135 81.1119 122.79 80.4822L122.661 80.2469Z"/><path id="Vector_3" d="M122.088 71.3838L122.09 71.3828L122.091 71.3821L122.088 71.3838Z"/><path id="Vector_4" d="M125.868 71.7342C125.334 71.2732 124.595 70.9256 123.772 70.9295C123.2 70.9285 122.623 71.0926 122.09 71.3828C121.532 71.6797 121.078 72.1399 120.805 72.6639C120.529 73.1885 120.424 73.7525 120.424 74.2896C120.426 74.9893 120.594 75.6607 120.855 76.2952C121.252 77.2451 121.862 78.1197 122.628 78.8138C123.013 79.1592 123.439 79.4593 123.915 79.6831C124.39 79.9055 124.921 80.0528 125.492 80.0533C125.876 80.054 126.273 79.9832 126.648 79.8362L126.654 79.834C127 79.6978 127.268 79.4617 127.445 79.2281C127.713 78.8716 127.83 78.5198 127.909 78.1741C127.986 77.8272 128.014 77.4768 128.014 77.1136C128.007 75.9275 127.714 74.5774 127.108 73.3687C126.801 72.7674 126.41 72.1975 125.868 71.7342Z"/><path id="Vector_5" d="M74.1717 90.5758C74.5167 91.2056 75.3067 91.4364 75.9364 91.0916C76.5662 90.7467 76.7969 89.9566 76.4522 89.327L76.3233 89.0916C75.9783 88.4617 75.1883 88.231 74.5587 88.5758C73.9288 88.9207 73.6981 89.7108 74.0428 90.3404L74.1717 90.5758Z"/><path id="Vector_6" d="M101.677 121.592L101.677 121.592C98.5701 122.014 95.0569 122.272 91.8699 122.397C91.1524 122.426 90.5938 123.03 90.6221 123.748C90.6502 124.465 91.2549 125.024 91.9725 124.996C95.2247 124.867 98.8033 124.605 102.027 124.168C102.738 124.072 103.236 123.417 103.14 122.705C103.043 121.994 102.388 121.495 101.677 121.592Z"/><path id="Vector_7" d="M50.9817 119.367C51.5117 120.42 52.4416 121.566 53.9533 122.627C54.5405 123.04 55.3513 122.899 55.7646 122.312C56.1777 121.724 56.0366 120.914 55.4494 120.5L55.4492 120.5C54.2402 119.648 53.6313 118.842 53.3027 118.195C52.9763 117.547 52.9248 117.037 52.9235 116.75C52.9235 116.648 52.9306 116.576 52.9355 116.54L52.9394 116.513L52.9336 116.512C53.0815 115.825 52.6652 115.145 51.9792 114.976C51.906 114.958 49.0654 114.264 44.8054 114.264C41.2636 114.264 36.7351 114.744 32.0153 116.523C27.2978 118.299 22.3925 121.39 18.1799 126.548C17.7751 127.043 17.7912 127.76 18.2175 128.237C18.643 128.713 19.3513 128.808 19.8884 128.464L19.8886 128.464C19.9262 128.431 22.2124 127.035 25.0717 127.047C26.4458 127.05 27.9492 127.347 29.51 128.246C30.1316 128.605 30.9265 128.392 31.2858 127.771C31.645 127.149 31.4323 126.354 30.8108 125.995C28.8269 124.846 26.8283 124.445 25.0717 124.448C24.6059 124.449 24.1574 124.478 23.728 124.526C26.6965 121.894 29.8459 120.121 32.9326 118.956C37.279 117.316 41.4978 116.863 44.8054 116.864C46.7934 116.864 48.4502 117.027 49.6005 117.188C49.8847 117.228 50.1367 117.268 50.3562 117.305C50.4191 117.877 50.5891 118.591 50.9817 119.367Z"/><path id="Vector_8" d="M121.007 119.612L121.007 119.612C125.928 119.723 130.553 121.127 134.458 123.024C138.36 124.916 141.541 127.308 143.531 129.3C143.957 129.723 144.538 130.465 145.174 131.416C147.422 134.762 150.42 140.673 152.812 146.258C154.01 149.052 155.062 151.773 155.807 154.053C156.179 155.193 156.474 156.222 156.672 157.084C156.871 157.942 156.966 158.643 156.964 159.053C156.975 160.036 156.504 161.5 155.64 163.082C154.355 165.464 152.256 168.125 150.11 170.348C149.038 171.46 147.954 172.468 146.96 173.284C145.97 174.101 145.06 174.727 144.398 175.069C144.205 175.169 144.062 175.318 143.945 175.485C143.648 175.788 143.487 176.216 143.587 176.662L144.196 179.393C144.318 179.938 144.769 180.341 145.323 180.403L150.326 180.952C150.171 181.135 150.005 181.321 149.813 181.508C148.745 182.547 147.163 183.574 144.751 183.745C144.119 183.789 143.426 183.867 142.752 183.866C141.911 183.87 141.149 183.736 140.645 183.419C140.387 183.26 140.174 183.062 139.978 182.756C139.784 182.45 139.61 182.023 139.503 181.405C139.492 181.338 139.454 181.286 139.433 181.224C139.377 177.43 139.255 172.93 139.008 168.161C139.031 168.078 139.069 168.001 139.075 167.912C139.113 167.274 139.315 166.676 139.642 166.054C140.13 165.121 140.91 164.184 141.637 163.17C141.999 162.66 142.349 162.126 142.624 161.527C142.897 160.93 143.094 160.254 143.094 159.516C143.094 159.077 143.023 158.621 142.873 158.174C142.748 157.806 142.576 157.481 142.37 157.135C141.655 155.951 140.475 154.53 139.444 153.343C138.512 152.274 137.723 151.435 137.579 151.282C137.029 146.928 136.322 142.755 135.41 139.073C135.236 138.376 134.532 137.951 133.835 138.124C133.138 138.297 132.713 139.002 132.886 139.699L132.886 139.699C134.647 146.79 135.654 156.029 136.209 164.757C136.765 173.488 136.876 181.719 136.876 186.862C136.876 188.548 136.864 189.902 136.852 190.834C136.84 191.766 136.829 192.269 136.829 192.271C136.812 192.989 137.38 193.584 138.098 193.601C138.816 193.617 139.412 193.049 139.428 192.331C139.428 192.322 139.475 190.258 139.475 186.862C139.475 186.504 139.475 186.129 139.474 185.743C139.701 185.869 139.933 185.977 140.165 186.061C141.057 186.39 141.949 186.465 142.752 186.466C143.612 186.466 144.389 186.374 144.927 186.339C148.138 186.124 150.393 184.638 151.766 183.232C153.15 181.822 153.719 180.497 153.763 180.4C153.924 180.02 153.897 179.591 153.689 179.234C153.48 178.878 153.119 178.643 152.709 178.599L151.301 178.444C151.565 178.179 151.803 177.919 151.993 177.677C152.634 176.863 152.885 176.238 152.923 176.142C153.055 175.794 153.032 175.403 152.86 175.074C152.688 174.745 152.379 174.503 152.019 174.414L150.139 173.952C152.253 172.001 154.475 169.545 156.242 167.021C157.185 165.674 157.997 164.31 158.589 162.977C159.177 161.642 159.559 160.336 159.564 159.053C159.56 158.202 159.388 157.23 159.105 156.079C158.111 152.085 155.669 145.991 152.993 140.344C151.655 137.524 150.261 134.829 148.956 132.584C148.835 132.377 148.72 132.194 148.601 131.995C149.172 131.691 149.71 131.365 150.272 131.111C150.92 130.817 151.575 130.617 152.347 130.616C153.415 130.619 154.812 130.997 156.771 132.473C157.056 132.688 157.421 132.778 157.773 132.718C158.125 132.659 158.441 132.454 158.638 132.156C160.279 129.692 161.98 128.206 163.603 127.319C165.227 126.434 166.792 126.135 168.222 126.133C169.83 126.133 171.264 126.526 172.285 126.924C172.796 127.122 173.202 127.32 173.473 127.464C173.609 127.536 173.711 127.594 173.776 127.633L173.844 127.674L173.853 127.68L173.856 127.682L173.856 127.681C174.392 128.028 175.103 127.933 175.529 127.458C175.956 126.982 175.973 126.264 175.569 125.768C171.112 120.299 165.833 117.065 160.781 115.222C155.727 113.377 150.898 112.905 147.246 112.904C143.323 112.905 140.751 113.45 140.685 113.464C140.345 113.537 140.048 113.743 139.861 114.035C139.68 114.318 139.622 114.661 139.688 114.989L139.682 114.99L139.687 115.034L139.693 115.177C139.689 115.5 139.625 116.17 139.018 117.039C138.408 117.906 137.212 119.008 134.805 120.026C134.704 120.069 134.628 120.141 134.545 120.204C132.067 119.088 129.337 118.167 126.425 117.605C137.155 113.341 143.562 108.402 147.317 103.804C151.304 98.923 152.267 94.4587 152.264 91.7624C152.264 91.4304 152.25 91.1259 152.225 90.8459C155.514 88.7609 157.559 86.1467 158.77 84.027C160.023 81.8317 160.41 80.1633 160.431 80.0727C160.521 79.6745 160.419 79.2551 160.155 78.9438C159.891 78.6323 159.494 78.4623 159.087 78.4865L153.065 78.8422C153.352 78.5126 153.646 78.1647 153.943 77.779C154.799 76.6691 155.663 75.3339 156.323 73.8083C156.982 72.2841 157.436 70.5624 157.437 68.7084C157.437 67.6042 157.274 66.4567 156.904 65.2968C156.783 64.9162 156.493 64.6122 156.119 64.4731C155.745 64.3339 155.326 64.3745 154.986 64.5832L145.927 70.1362C145.246 58.8903 142.454 49.2228 136.456 42.2582C133.382 38.6911 129.469 35.8647 124.662 33.9521C119.853 32.0375 114.159 31.0292 107.482 31.0292C107.297 31.0292 107.104 31.0358 106.917 31.0373C106.805 30.5766 106.64 30.0305 106.479 29.4902C106.415 29.278 106.355 29.0717 106.299 28.8769C106.892 28.6594 107.87 28.2573 108.916 27.6393C109.741 27.1503 110.61 26.5278 111.358 25.7192C112.102 24.9138 112.736 23.8984 112.971 22.6706C113.03 22.3664 113.055 22.0637 113.055 21.7661C113.051 20.562 112.645 19.4243 112.033 18.4509C111.415 17.4802 110.585 16.6572 109.565 16.1555C109.474 16.1108 109.376 16.1035 109.281 16.0817C109.394 15.5368 109.467 14.9565 109.467 14.3364C109.468 13.4321 109.321 12.4584 108.967 11.4562C108.358 9.73041 107.13 8.36298 105.624 7.4477C104.115 6.52998 102.318 6.04126 100.461 6.04004C98.3217 6.03833 96.0886 6.71015 94.1765 8.16815C93.9543 7.97381 93.7206 7.78509 93.4616 7.61151C91.9599 6.59955 89.893 5.99853 87.1538 6C87.0436 6 86.9362 6.00122 86.831 6.00293C83.5505 6.06104 80.446 7.02222 78.0778 8.66895C76.8955 9.49439 75.8952 10.4978 75.1799 11.6685C75.083 11.8269 75.0058 11.9959 74.9201 12.1604C74.1684 11.9876 73.4196 11.8837 72.6894 11.884C70.1076 11.885 67.7607 12.904 66.0512 14.498C64.3437 16.09 63.2412 18.2905 63.2387 20.6777C63.2387 20.7844 63.2412 20.8947 63.247 21.0087C63.2861 21.9826 63.5065 22.8303 63.8488 23.5485C63.6899 23.6882 63.352 24.0104 62.997 24.5427C62.559 25.1992 62.1062 26.1957 62.1064 27.4558C62.1013 28.8007 62.6394 30.3576 63.9631 31.9494C65.1318 33.3593 66.7048 34.124 68.1994 34.5478C69.7011 34.9714 71.1608 35.0671 72.2558 35.0683C72.4921 35.0683 72.708 35.0632 72.9067 35.0558C72.9167 35.1635 72.9152 35.2697 72.9328 35.3784C73.0075 35.8212 73.1521 36.3088 73.2971 36.8268C73.3908 37.154 73.4816 37.4797 73.5468 37.7346C67.6496 40.1835 62.9401 43.1721 59.3134 46.6684C56.0422 49.8234 53.6657 53.3908 52.122 57.2868C50.5766 61.183 49.8625 65.3994 49.863 69.8603C49.864 75.6586 51.0761 81.8774 53.2297 88.4265L42.4992 86.6713C42.1049 86.6069 41.7031 86.7272 41.4091 86.9975C41.1154 87.2678 40.9616 87.6586 40.9934 88.0568C41.1772 90.402 42.0639 92.3945 43.2512 94.0002C45.0368 96.4135 47.4638 98.0071 49.4353 99.03C49.5156 99.0715 49.5903 99.1062 49.6691 99.146L43.9606 101.093C43.5742 101.225 43.2709 101.532 43.1442 101.92C43.0178 102.308 43.0812 102.735 43.3159 103.07C43.3698 103.146 44.3588 104.544 46.3493 106.102C48.2866 107.619 51.1984 109.281 55.0773 109.957C55.371 110.714 56.0209 112.121 57.3173 113.809C59.1855 116.246 62.3911 119.221 67.6616 121.49C68.3208 121.774 69.0854 121.47 69.3698 120.811C69.654 120.151 69.35 119.387 68.6909 119.103L68.6906 119.102C63.8264 117.003 61.0046 114.338 59.3791 112.225C58.5678 111.169 58.0581 110.249 57.7553 109.608C57.6037 109.287 57.5041 109.037 57.4445 108.874L57.3837 108.698L57.373 108.663L57.372 108.66L57.3706 108.66C57.2375 108.192 56.8586 107.873 56.4157 107.768C56.238 107.613 56.0324 107.488 55.7824 107.448L55.7822 107.448C52.2702 106.89 49.6767 105.403 47.9514 104.055C47.4367 103.652 47.0109 103.268 46.6542 102.921L53.7812 100.49C54.3198 100.306 54.6752 99.7971 54.6613 99.228C54.6474 98.6589 54.2675 98.1675 53.7204 98.0105L53.705 98.0059C53.4763 97.9402 50.9799 97.157 48.5583 95.4841C47.3464 94.6502 46.1577 93.5988 45.2556 92.3356C44.6601 91.5004 44.2028 90.5693 43.9079 89.5361L58.7758 91.9675C59.4841 92.0833 60.1525 91.603 60.2685 90.8948C60.3842 90.1863 59.904 89.5178 59.1958 89.4021L56.1235 88.8997C53.7543 82.0574 52.4619 75.663 52.4628 69.8603C52.4633 65.6745 53.1303 61.798 54.539 58.2453C56.6552 52.9199 60.4311 48.2869 66.3203 44.4192C69.7583 42.1638 73.9265 40.1823 78.8793 38.5131C78.9084 38.5082 78.9362 38.517 78.9653 38.5102L78.965 38.51L78.9882 38.5046C79.2531 38.4402 81.8098 37.8786 84.0703 37.8828C84.9348 37.8806 85.7507 37.9682 86.3183 38.1459C89.101 39.0095 90.5239 40.5783 91.3422 41.9587C91.7458 42.6484 91.9824 43.2902 92.1147 43.7477C92.1811 43.9763 92.2214 44.1584 92.2441 44.2761L92.2661 44.4023L92.2695 44.4247L92.2705 44.4245C92.3378 44.9789 92.7539 45.4309 93.302 45.5417C93.8522 45.6533 94.414 45.3967 94.6909 44.9084C94.7143 44.8666 95.3688 43.7092 96.0285 41.9492C96.6855 40.1874 97.3588 37.8254 97.3623 35.322C97.3623 34.9973 97.3486 34.6701 97.3234 34.3422C100.968 33.8618 104.351 33.6291 107.482 33.6291C113.899 33.6291 119.258 34.5988 123.7 36.3676C130.359 39.028 134.999 43.4523 138.166 49.3571C141.326 55.2607 142.962 62.674 143.385 71.1462C143.394 71.3161 143.439 71.4745 143.506 71.6203L140.562 73.425C139.95 73.8002 139.758 74.6005 140.133 75.2128C140.508 75.8249 141.309 76.017 141.921 75.6418L154.778 67.7602C154.813 68.079 154.837 68.3957 154.837 68.7084C154.837 70.1328 154.486 71.5048 153.936 72.777C153.115 74.6838 151.841 76.3473 150.772 77.5139C150.238 78.0974 149.757 78.558 149.414 78.8681C149.243 79.0234 149.106 79.1408 149.015 79.2177L148.913 79.3019L148.89 79.3205L148.887 79.3227C148.44 79.675 148.274 80.2736 148.477 80.8056C148.679 81.3378 149.2 81.675 149.769 81.6415L157.285 81.1975C157.065 81.7007 156.782 82.2817 156.408 82.9164C155.309 84.7851 153.492 87.0524 150.547 88.8398C150.367 88.9487 150.236 89.0996 150.132 89.2661C149.704 89.5475 149.465 90.0666 149.57 90.6003L149.569 90.6001C149.62 90.8557 149.665 91.257 149.665 91.7624C149.662 93.8642 148.922 97.7258 145.303 102.16C141.682 106.594 135.142 111.63 123.49 115.949C120.592 117.023 117.834 117.937 115.17 118.708C114.48 118.908 114.083 119.629 114.283 120.319C114.483 121.009 115.204 121.406 115.894 121.206C117.545 120.727 119.235 120.189 120.961 119.602C120.977 119.603 120.991 119.612 121.007 119.612ZM147.554 177.993C147.537 178.002 147.527 178.018 147.511 178.028L146.531 177.92L146.316 176.955C146.753 176.686 147.206 176.379 147.677 176.025L149.577 176.491C149.122 176.973 148.481 177.512 147.554 177.993ZM138.078 155.744C138.168 155.851 138.259 155.958 138.349 156.067C138.854 156.675 139.345 157.299 139.725 157.84C140.104 158.369 140.37 158.86 140.407 158.996C140.47 159.187 140.494 159.35 140.494 159.516C140.495 159.875 140.365 160.294 140.065 160.822C139.743 161.4 139.227 162.057 138.678 162.799C138.513 160.454 138.315 158.092 138.078 155.744ZM141.146 118.534C141.853 117.531 142.146 116.571 142.247 115.838C143.276 115.692 145.022 115.504 147.246 115.504C150.675 115.504 155.206 115.953 159.889 117.664C163.268 118.9 166.722 120.799 169.941 123.655C169.396 123.582 168.824 123.536 168.222 123.534C166.424 123.532 164.391 123.924 162.357 125.037C160.601 125.994 158.859 127.48 157.238 129.639C155.431 128.491 153.799 128.013 152.347 128.016C151.103 128.015 150.044 128.356 149.193 128.746C148.354 129.131 147.688 129.557 147.21 129.794C147.166 129.729 147.119 129.653 147.076 129.59C146.477 128.727 145.92 128.014 145.37 127.462C143.482 125.577 140.76 123.476 137.431 121.643C139.224 120.668 140.405 119.589 141.146 118.534ZM93.6723 40.8061C93.6422 40.7521 93.6183 40.7009 93.5866 40.6464C92.6796 39.079 91.0629 37.3019 88.4428 36.1662C89.1127 36.027 89.768 35.894 90.3832 35.7739C92.0521 35.4474 93.4862 35.1923 94.5014 35.0187C94.5936 35.0031 94.6635 34.9914 94.7487 34.9772C94.7526 35.0922 94.7623 35.2062 94.7623 35.322C94.7655 37.2558 94.2372 39.2538 93.6723 40.8061ZM90.1874 32.8854C84.8827 33.9279 80.161 35.2292 75.9828 36.7761C75.9232 36.5593 75.8607 36.3383 75.7982 36.1166C75.6557 35.622 75.5204 35.1154 75.4996 34.9645C75.4801 34.8439 75.4713 34.7314 75.4713 34.6205C75.4767 34.0659 75.6796 33.5524 76.2448 32.9252C77.0839 31.9955 78.755 31.008 80.9977 30.143C83.2392 29.2697 86.0385 28.4882 89.1442 27.7844C92.6281 26.9929 95.7138 26.5768 98.1276 26.5781C99.9259 26.5739 101.346 26.8188 102.228 27.2155C102.672 27.4118 102.976 27.6349 103.176 27.8586C103.376 28.0854 103.49 28.3095 103.553 28.622C103.646 29.0927 103.815 29.6518 103.987 30.2341C104.078 30.5383 104.169 30.842 104.246 31.1115C99.9489 31.3083 95.2767 31.8864 90.1874 32.8854ZM105.368 26.4489C105.287 26.3378 105.205 26.2263 105.113 26.1242C104.497 25.4406 103.694 24.9772 102.785 24.6498L103.148 24.3195C103.679 23.8366 103.719 23.0146 103.236 22.4831C102.753 21.9518 101.931 21.9125 101.399 22.3954L99.7186 23.9228C99.682 23.9562 99.6661 24.0014 99.6342 24.0378C99.1495 24.0024 98.6522 23.9787 98.1276 23.9782C97.2174 23.9787 96.2262 24.0478 95.2006 24.1469C95.2125 23.4182 95.2421 22.374 95.3143 21.6579C95.3851 20.9433 94.8637 20.3068 94.1493 20.236C93.4347 20.165 92.7982 20.6865 92.7274 21.4011L92.7272 21.4008C92.6278 22.4138 92.6029 23.7568 92.5963 24.4821C91.3104 24.6848 89.9784 24.9296 88.569 25.249C84.3253 26.2141 80.5841 27.3144 77.7855 28.7202C77.7516 28.7372 77.7218 28.7558 77.6881 28.7731C77.6696 28.7744 77.653 28.7668 77.6344 28.7687L77.6342 28.7668C77.6337 28.7668 77.5228 28.7787 77.3292 28.7787C76.7863 28.7822 75.6566 28.6706 74.6688 28.0297C74.0643 27.642 73.2602 27.8181 72.8728 28.4225C72.4851 29.0268 72.661 29.831 73.2655 30.2187L73.2653 30.2184C73.7233 30.5099 74.1796 30.7233 74.6203 30.8879C74.5249 30.9816 74.4191 31.0698 74.3295 31.1669C73.979 31.5441 73.6935 31.9704 73.4555 32.4186C73.1936 32.4414 72.7827 32.4684 72.2558 32.4684C71.3212 32.4697 70.0747 32.3781 68.9079 32.0461C67.7341 31.7145 66.6765 31.1555 65.9672 30.2932C64.9389 29.039 64.7114 28.1242 64.7062 27.4558C64.7065 26.8278 64.9269 26.3388 65.1625 25.9816C65.2795 25.8056 65.3977 25.6694 65.479 25.5851L65.5258 25.5392C65.8549 25.7709 66.1923 25.9631 66.5207 26.1057C67.1787 26.3925 67.9448 26.092 68.2319 25.434C68.5188 24.7758 68.2182 24.0097 67.5603 23.7228C67.1237 23.531 66.7343 23.2599 66.4331 22.8483C66.1345 22.4338 65.8881 21.8535 65.8442 20.8935L65.8435 20.8823L65.8386 20.6777C65.8361 19.1125 66.5742 17.5661 67.8247 16.3994C69.0729 15.2346 70.8015 14.4829 72.6894 14.4838C73.1533 14.4841 73.6313 14.5471 74.1152 14.6433C74.0727 14.9592 74.0454 15.279 74.0456 15.6047C74.0444 16.9069 74.3955 18.259 75.1096 19.5873C75.4489 20.2199 76.237 20.458 76.8698 20.1186C77.5024 19.779 77.7404 18.9909 77.4011 18.3583L77.4008 18.3581C76.864 17.3549 76.6467 16.4438 76.6455 15.6047C76.6472 14.6872 76.9055 13.8354 77.3991 13.0231C78.1364 11.8088 79.436 10.705 81.1027 9.91205C82.7661 9.11737 84.7805 8.63617 86.8745 8.60272C86.9721 8.60101 87.0649 8.5998 87.1538 8.5998C88.7329 8.5998 89.9367 8.82953 90.8457 9.1745C92.2067 9.69891 92.9331 10.4445 93.4016 11.2731C93.8635 12.101 94.0285 13.0551 94.0273 13.8703C94.0285 14.4365 93.9458 14.935 93.8686 15.2089C93.677 15.9008 94.0825 16.6171 94.7746 16.8088C95.4665 17.0002 96.1828 16.5947 96.3745 15.9028C96.5217 15.3649 96.6259 14.6765 96.6271 13.8703C96.6269 13.1049 96.5292 12.239 96.248 11.3486C96.1303 10.9719 95.9719 10.5903 95.7778 10.2131C97.2084 9.13154 98.8581 8.64154 100.461 8.63983C101.857 8.63861 103.203 9.01581 104.271 9.66815C105.343 10.3232 106.129 11.2302 106.515 12.3215C106.769 13.0422 106.867 13.7106 106.868 14.3364C106.869 15.6655 106.405 16.8278 105.921 17.663C105.681 18.079 105.438 18.4091 105.263 18.6274C105.175 18.7365 105.104 18.8181 105.058 18.8684L105.009 18.9208L105.002 18.9289L105.002 18.9299C104.499 19.4377 104.5 20.257 105.006 20.7634C105.514 21.2709 106.337 21.2707 106.845 20.7631C106.9 20.7065 107.531 20.0703 108.172 18.9653C108.257 18.8171 108.343 18.6586 108.427 18.4931C108.428 18.4933 108.428 18.4934 108.428 18.4934C108.899 18.7167 109.448 19.2192 109.836 19.8405C110.231 20.4589 110.459 21.1794 110.455 21.7661C110.455 21.914 110.442 22.0532 110.418 22.1821C110.298 22.8108 109.96 23.3997 109.447 23.9556C108.686 24.7876 107.548 25.4795 106.607 25.9268C106.136 26.1521 105.717 26.3203 105.421 26.4299C105.401 26.4372 105.387 26.4421 105.368 26.4489Z"/><path id="Vector_9" d="M65.9771 174.158C65.2673 174.049 64.6038 174.535 64.4949 175.245C64.4834 175.36 64.3496 175.748 64.1172 176.161C63.7734 176.792 63.2271 177.532 62.7163 178.052C62.502 178.273 62.302 178.44 62.1389 178.558C62.0501 178.43 61.9461 178.267 61.8479 178.08C61.523 177.483 61.1944 176.68 60.9607 176.043C60.8433 175.724 60.7476 175.445 60.6821 175.248C60.6492 175.149 60.624 175.071 60.6072 175.019L60.5835 174.943C60.3721 174.257 59.6445 173.872 58.9585 174.083C58.7737 174.14 58.616 174.239 58.4807 174.36C57.9163 174.159 57.2747 174.346 56.9473 174.876L56.926 174.91C56.8118 175.093 56.2351 175.993 55.5879 176.801C55.2673 177.204 54.9241 177.583 54.6575 177.815C54.5811 177.883 54.5164 177.932 54.4617 177.97C54.1987 177.885 53.9668 177.747 53.7075 177.414C53.3848 176.988 53.0169 176.135 52.9116 174.537C52.8638 173.82 52.2444 173.278 51.5281 173.326C50.8115 173.374 50.2695 173.993 50.3174 174.71L50.3171 174.709C50.4453 176.623 50.8967 177.995 51.6277 178.974C52.3533 179.958 53.3594 180.43 54.1699 180.581L54.1726 180.581C54.3005 180.606 54.4197 180.615 54.5271 180.615C55.02 180.609 55.3748 180.447 55.6719 180.281C56.1865 179.979 56.5855 179.593 56.9802 179.171C57.5625 178.54 58.0923 177.823 58.4915 177.25C58.5259 177.201 58.553 177.16 58.5855 177.113C58.7058 177.433 58.8425 177.78 58.9959 178.137C59.2642 178.757 59.5691 179.391 59.939 179.949C60.127 180.229 60.3286 180.492 60.5984 180.738C60.7341 180.861 60.8892 180.98 61.0823 181.084C61.2747 181.186 61.5112 181.275 61.7876 181.303L61.7966 181.303L61.9812 181.312C62.4116 181.308 62.7485 181.187 63.0442 181.047C63.113 181.013 63.1697 180.964 63.2356 180.927C63.1231 183.103 62.8992 185.458 62.6768 187.437C62.5266 188.779 62.3777 189.95 62.2666 190.784C62.2112 191.201 62.165 191.535 62.1331 191.763C62.1008 191.991 62.0833 192.111 62.083 192.112C61.9783 192.822 62.4695 193.483 63.1799 193.587C63.8902 193.692 64.551 193.201 64.6558 192.49C64.657 192.48 64.9551 190.454 65.2608 187.727C65.5659 184.998 65.8801 181.578 65.9085 178.733C65.9099 178.582 65.8726 178.441 65.8262 178.305C65.9075 178.186 66.0012 178.073 66.0774 177.953C66.3147 177.576 66.5242 177.196 66.6943 176.816C66.8635 176.434 66.9981 176.058 67.0642 175.64C67.1731 174.93 66.6865 174.267 65.9771 174.158Z"/><path id="Vector_10" d="M75.8647 173.611C75.1762 173.408 74.4531 173.801 74.2499 174.489L74.2375 174.53C74.1706 174.752 73.8212 175.857 73.3698 176.836C73.1611 177.294 72.9243 177.719 72.7304 177.981C72.6235 177.891 72.5058 177.785 72.3847 177.654C71.8974 177.149 71.3549 176.413 70.956 175.82C70.7556 175.523 70.5881 175.26 70.4721 175.074C70.4143 174.98 70.3693 174.906 70.3393 174.856L70.3059 174.801L70.2968 174.785C69.9338 174.166 69.1374 173.958 68.518 174.321C67.8984 174.684 67.6906 175.48 68.0537 176.1L68.0534 176.099C68.0671 176.122 68.5795 176.998 69.2954 177.98C69.6547 178.471 70.0632 178.989 70.508 179.454C70.9619 179.916 71.4177 180.34 72.07 180.623C72.3002 180.72 72.5566 180.77 72.7971 180.769C73.3498 180.766 73.7807 180.537 74.0854 180.304C74.6208 179.883 74.945 179.385 75.2568 178.854C75.7094 178.06 76.0659 177.175 76.3261 176.468C76.5839 175.764 76.7375 175.244 76.7431 175.226C76.9462 174.537 76.5529 173.814 75.8647 173.611Z"/><path id="Vector_11" d="M75.75 80.2285L75.751 80.228L75.7529 80.2268L75.75 80.2285Z"/><path id="Vector_12" d="M76.2905 87.6592C76.675 88.0049 77.1013 88.305 77.5771 88.5288C78.052 88.7515 78.5837 88.8987 79.1543 88.8992C79.5388 88.8999 79.9355 88.8291 80.3113 88.6814L80.3167 88.6792C80.6628 88.543 80.9297 88.3069 81.1072 88.0733C81.375 87.7171 81.4917 87.3653 81.5713 87.0196C81.6475 86.6726 81.6758 86.3221 81.6763 85.9588C81.669 84.7727 81.3762 83.4226 80.7703 82.2137C80.4622 81.6123 80.0718 81.0425 79.5295 80.5791C78.9956 80.1182 78.2566 79.7705 77.4334 79.7744C76.8608 79.7735 76.2844 79.9373 75.751 80.2281C75.1936 80.5252 74.74 80.9851 74.4673 81.5088C74.1907 82.0335 74.0857 82.5972 74.0859 83.1343C74.0876 83.8343 74.2559 84.5056 74.5173 85.1402C74.9143 86.0904 75.5244 86.9651 76.2905 87.6592Z"/><path id="Vector_13" d="M114.248 138.081C113.723 136.829 113.293 135.356 112.279 133.748C111.265 132.14 109.679 130.478 106.984 128.767C103.437 126.507 100.547 125.472 98.1172 124.738C95.678 124.003 93.7725 123.55 91.95 122.494C89.0552 120.836 85.4192 120.299 82.0203 120.292C80.0571 120.292 78.1721 120.479 76.5474 120.781C76.2993 120.826 76.0415 120.848 75.7683 120.848C74.5952 120.858 73.1091 120.398 71.3149 119.864C69.521 119.339 67.4085 118.775 64.9265 118.775C63.2317 118.774 61.3699 119.041 59.3479 119.738C57.1375 120.509 54.0205 120.646 50.9033 120.833C49.3418 120.93 47.7751 121.048 46.2864 121.301C44.7983 121.557 43.3801 121.945 42.1255 122.639C40.23 123.698 37.8425 124.312 35.375 124.892C32.908 125.479 30.3665 126.026 28.1265 127.14C25.9949 128.205 24.2229 129.453 22.8018 131.047C21.3794 132.64 20.3323 134.561 19.5881 136.879C18.9258 138.918 18.2839 139.754 17.5889 140.885C17.2429 141.446 16.8892 142.082 16.6106 142.88C16.3306 143.677 16.1284 144.621 16.0195 145.823C16.0064 145.965 16 146.112 16 146.262C16.0032 147.169 16.2114 148.198 16.6079 149.333C17.2058 151.028 18.2441 152.937 19.7976 154.693C20.3174 155.28 20.9016 155.845 21.5408 156.38C21.585 156.638 21.7727 157.565 22.4924 159.636C23.3457 162.075 25.1294 164.284 27.593 166.251C31.2957 169.2 36.573 171.642 42.9795 173.376C49.3855 175.107 56.9221 176.118 65.1248 176.118C74.1663 176.118 82.4946 174.886 89.3816 172.83C96.2686 170.765 101.721 167.909 105.039 164.468C106.898 162.526 108.342 160.1 109.354 158.145C110.362 156.19 110.924 154.706 110.936 154.674C110.957 154.619 110.95 154.563 110.964 154.508C112.048 153.826 113.115 153.077 114.049 152.192C115.07 151.221 115.904 150.166 116.492 149.027C117.079 147.89 117.416 146.662 117.416 145.401C117.42 143.711 116.8 142.005 115.583 140.458C114.976 139.681 114.597 138.923 114.248 138.081ZM114.181 147.835C113.756 148.661 113.109 149.5 112.259 150.307C110.875 151.628 108.845 152.776 106.9 153.891C105.926 154.452 104.974 155.009 104.12 155.614C103.268 156.221 102.502 156.871 101.935 157.695C100.979 159.087 100.053 160.057 98.749 160.754C97.4431 161.449 95.6704 161.893 92.9819 161.968C91.5349 162.009 90.5159 162.108 89.6443 162.312C88.9932 162.464 88.4346 162.684 87.9294 162.944C87.1665 163.336 86.5337 163.776 85.5537 164.331C84.5745 164.886 83.2371 165.574 81.1313 166.434C79.5244 167.088 77.9805 167.325 76.4255 167.327C74.3684 167.328 72.2952 166.896 70.1833 166.432C68.0718 165.974 65.9233 165.481 63.6912 165.479C62.5928 165.478 61.4741 165.602 60.3533 165.919C57.332 166.771 54.8455 167.096 52.7466 167.096C49.3289 167.091 46.9236 166.254 44.7798 165.276C42.6387 164.306 40.7815 163.118 38.5 162.62C37.7976 162.471 37.1074 162.92 36.9585 163.622C36.8093 164.324 37.2581 165.014 37.9604 165.164L37.9602 165.163C39.6189 165.501 41.3826 166.566 43.6958 167.639C46.0064 168.703 48.8892 169.701 52.7466 169.696C55.1152 169.696 57.846 169.328 61.0598 168.421C61.9167 168.179 62.7859 168.079 63.6912 168.078C65.5269 168.075 67.5085 168.507 69.6284 168.973C71.7483 169.434 74.0081 169.925 76.4255 169.927C78.2488 169.928 80.1633 169.638 82.1133 168.842C84.0674 168.044 85.436 167.366 86.467 166.799C87.2393 166.374 87.8206 166.011 88.2915 165.727C89.0083 165.295 89.4199 165.07 90.0266 164.898C90.6355 164.726 91.52 164.609 93.0544 164.567C95.9851 164.486 98.1929 163.994 99.9697 163.05C101.748 162.108 103.008 160.737 104.081 159.163C104.364 158.742 104.902 158.243 105.624 157.735C106.068 157.419 106.587 157.097 107.136 156.768C107.048 156.942 106.958 157.118 106.862 157.3C105.933 159.059 104.639 161.134 103.163 162.667C100.36 165.603 95.2473 168.373 88.6377 170.339C82.0281 172.314 73.9287 173.519 65.1248 173.519C54.4751 173.52 45.0046 171.76 37.9104 168.991C34.3638 167.609 31.4141 165.975 29.2144 164.219C27.0098 162.463 25.5759 160.595 24.948 158.781C24.9128 158.68 24.886 158.597 24.8533 158.502C25.2463 158.688 25.6482 158.865 26.0696 159.022C27.2456 159.46 28.2366 159.879 28.9292 160.187C29.2756 160.341 29.5476 160.467 29.7312 160.554C29.823 160.597 29.8926 160.631 29.9385 160.653L30.0027 160.685C30.6453 161.004 31.4255 160.742 31.7456 160.1C32.0654 159.457 31.8035 158.677 31.1609 158.357C31.1316 158.343 29.4502 157.507 26.9766 156.585C24.0525 155.498 21.9519 153.508 20.573 151.452C19.8855 150.427 19.3836 149.388 19.0603 148.469C18.7354 147.554 18.5967 146.746 18.5999 146.262L18.6086 146.059C18.7039 145.017 18.8669 144.303 19.0642 143.739C19.3579 142.9 19.7522 142.331 20.3076 141.445C20.8579 140.567 21.5041 139.425 22.0635 137.675C22.7246 135.625 23.5896 134.073 24.7424 132.778C25.8965 131.485 27.3626 130.43 29.2891 129.466C31.1084 128.55 33.4839 128.006 35.9727 127.422C38.4609 126.83 41.0681 126.196 43.3879 124.912C44.2573 124.427 45.4038 124.088 46.7239 123.864C48.7041 123.524 51.0508 123.438 53.3984 123.285C55.749 123.127 58.1038 122.91 60.1936 122.196C61.9492 121.593 63.501 121.375 64.9265 121.375C67.0112 121.375 68.8389 121.847 70.5837 122.359C72.3284 122.862 73.9797 123.438 75.7683 123.448C76.1809 123.448 76.5998 123.415 77.0212 123.337C78.481 123.066 80.2244 122.891 82.0203 122.892C85.1328 122.884 88.4001 123.435 90.6506 124.746C92.8879 126.032 95.041 126.517 97.3625 127.226C99.6938 127.935 102.266 128.851 105.588 130.96C107.224 132.001 108.322 132.958 109.107 133.844C110.28 135.177 110.785 136.361 111.305 137.698C111.82 139.022 112.335 140.527 113.536 142.06C114.455 143.243 114.812 144.335 114.816 145.401C114.815 146.199 114.607 147.007 114.181 147.835Z"/><path id="Vector_14" d="M106.704 137.096C106.555 137.028 106.42 136.979 106.294 136.939C104.22 134.296 101.175 132.192 97.3656 130.535C97.1849 130.181 96.9554 129.854 96.6813 129.534C96.0296 128.79 95.1327 128.097 94.0404 127.562C92.9496 127.03 91.6578 126.664 90.2518 126.664C89.3377 126.663 88.3773 126.834 87.4215 127.199C87.2118 127.171 87.0128 127.154 86.8409 127.155C86.461 127.158 86.233 127.189 86.0511 127.187C86.0052 127.187 85.9574 127.184 85.9093 127.181C83.8915 125.465 81.398 124.761 79.1764 124.759C78.2591 124.759 77.3819 124.877 76.5804 125.107C75.9781 125.281 75.4359 125.543 74.9339 125.858C74.7401 125.844 74.5409 125.833 74.3458 125.82C74.3368 125.818 74.3275 125.815 74.3185 125.813C74.2997 125.81 74.2823 125.817 74.2635 125.814C72.4657 125.689 70.6314 125.591 68.7435 125.537C67.6771 125.505 66.6134 125.491 65.5638 125.491C62.0126 125.491 58.6234 125.654 55.8143 125.888C54.6444 125.361 53.3312 124.911 51.8863 124.906C51.0101 124.905 50.0899 125.083 49.2098 125.512C48.4505 125.881 47.7342 126.44 47.075 127.169C40.7391 128.532 36.4715 130.519 33.3128 132.233C32.846 132.108 32.3756 132.019 31.9017 132.019C30.804 132.008 29.6734 132.426 28.8678 133.288C28.1581 134.039 27.7269 135.061 27.5243 136.27C25.6307 138.032 24.8871 139.367 24.8287 139.478C24.5921 139.923 24.6537 140.436 24.9225 140.823C25.6134 142.41 25.5394 143.945 25.5787 145.555C25.6075 146.385 25.6637 147.254 26.045 148.135C26.2359 148.571 26.5165 148.998 26.8888 149.365C27.2606 149.733 27.7159 150.039 28.2391 150.281C31.4046 151.743 36.6358 154.783 39.7259 157.665C40.7843 158.639 42.1441 159.115 43.6129 159.389C45.0887 159.658 46.7164 159.72 48.4239 159.721C50.3382 159.721 52.3519 159.639 54.3111 159.64C56.9247 159.636 59.4405 159.794 61.4137 160.412C62.7113 160.813 64.0836 160.968 65.4923 160.968C68.8526 160.963 72.4544 160.099 75.9139 159.27C78.2054 158.714 80.433 158.181 82.4244 157.885C82.5099 157.886 82.5931 157.864 82.6791 157.849C83.5904 157.721 84.4549 157.641 85.2413 157.643C85.4471 157.643 85.6495 157.648 85.8478 157.659L85.8546 157.659C86.0333 157.667 86.214 157.672 86.3968 157.672C88.2423 157.675 89.8634 157.173 91.2972 156.449C93.4518 155.357 95.2411 153.811 97.172 152.498C99.1051 151.179 101.134 150.078 103.782 149.686C104.632 149.565 105.387 149.185 105.953 148.669C106.81 147.889 107.279 146.889 107.62 145.891C107.951 144.906 108.151 143.891 108.337 142.975C108.621 142.081 108.758 141.295 108.758 140.59C108.76 139.835 108.599 139.167 108.315 138.625C107.89 137.803 107.223 137.33 106.704 137.096ZM94.6563 133.057C95.6 133.093 96.4652 133.151 97.0038 133.219C99.6073 134.422 101.701 135.829 103.257 137.412C101.427 137.566 99.4447 137.809 97.3536 138.131C97.3094 138.037 97.277 137.939 97.2086 137.855C95.8583 136.201 94.3863 134.548 92.8705 133.009C93.464 133.018 94.0741 133.034 94.6563 133.057ZM90.2518 129.263C91.5128 129.26 92.7254 129.716 93.6363 130.317C93.6903 130.353 93.7313 130.391 93.7828 130.427C93.0484 130.408 92.3111 130.398 91.6463 130.398C91.2372 130.398 90.8558 130.402 90.5189 130.409C90.4063 130.412 90.3065 130.451 90.203 130.48C89.7879 130.116 89.3734 129.764 88.9593 129.43C89.3973 129.32 89.8287 129.264 90.2518 129.263ZM79.1764 127.359C80.9659 127.356 83.0008 127.97 84.4803 129.371C84.5792 129.464 84.6913 129.536 84.8109 129.593C84.8719 129.651 84.919 129.719 84.993 129.765L84.9928 129.765C87.9344 131.592 91.4679 135.063 94.4552 138.615C93.4388 138.795 92.4103 138.986 91.3683 139.193C91.3155 139.066 91.2572 138.941 91.1622 138.832C88.5816 135.878 85.5973 132.879 82.6712 130.49C81.2069 129.294 79.7577 128.252 78.3622 127.442C78.3456 127.432 78.3297 127.425 78.3131 127.415C78.5909 127.383 78.8768 127.359 79.1764 127.359ZM88.5245 139.784C83.93 140.775 79.2772 141.964 75.1141 143.191C73.2918 140.95 71.3304 138.733 69.3241 136.648C73.952 135.422 78.4569 134.461 82.5746 133.836C82.5755 133.836 82.576 133.835 82.577 133.835C84.6139 135.637 86.6625 137.702 88.5245 139.784ZM78.4452 130.567C78.9288 130.895 79.4237 131.253 79.9261 131.636C69.0748 133.531 56.2205 137.437 45.2484 142.335C45.243 142.337 45.2398 142.342 45.2347 142.344C44.8124 141.882 44.3939 141.408 43.9676 140.959C43.8346 140.819 43.701 140.685 43.5677 140.546C54.9591 135.621 68.086 131.902 78.4452 130.567ZM67.1278 145.792C62.0174 147.602 57.2762 149.556 52.9151 151.726C51.1478 149.311 49.1446 146.802 47.0516 144.385C51.4239 142.464 56.097 140.703 60.8119 139.167C60.8153 139.17 60.8163 139.175 60.8194 139.178C63.0567 141.296 65.1883 143.56 67.1278 145.792ZM65.5638 128.091C66.5907 128.091 67.629 128.105 68.6681 128.135C70.4869 128.188 72.2503 128.282 73.9791 128.401C74.1446 128.434 74.316 128.473 74.4996 128.528C70.9459 129.129 67.1776 129.96 63.3297 130.98C62.1219 129.969 60.9408 129.038 59.7918 128.234C61.6129 128.146 63.5628 128.091 65.5638 128.091ZM50.3465 127.851C50.8509 127.607 51.3478 127.508 51.8863 127.506C52.7723 127.502 53.7772 127.816 54.7738 128.269C54.8739 128.357 54.9764 128.443 55.1048 128.498L55.1046 128.498C56.5553 129.117 58.3417 130.315 60.2552 131.828C59.2523 132.117 58.2467 132.421 57.2403 132.734C57.1852 132.672 57.1451 132.599 57.0763 132.547C54.7452 130.765 52.3558 129.228 49.9525 128.075C50.0851 127.989 50.2166 127.914 50.3465 127.851ZM47.3985 129.756C47.433 129.773 47.4566 129.803 47.4933 129.819L47.493 129.818C49.6971 130.72 51.9847 132.065 54.2584 133.697C49.9432 135.136 45.6654 136.774 41.6043 138.566C39.6959 136.712 37.796 135.075 35.9693 133.772C38.7718 132.352 42.3524 130.865 47.3985 129.756ZM28.1883 145.655C28.1664 145.112 28.1664 144.473 28.1405 143.747C28.098 142.7 27.9435 141.477 27.4591 140.195C27.7533 139.789 28.2584 139.165 29.0328 138.416C30.6859 139.451 32.3758 140.76 34.0428 142.232C31.9723 143.336 30.0121 144.479 28.1883 145.655ZM29.411 147.96C31.4474 146.637 33.6778 145.344 36.0653 144.099C36.6859 144.698 37.2977 145.313 37.8993 145.938C35.8482 147.042 33.9186 148.18 32.1429 149.346C31.1571 148.811 30.2313 148.345 29.411 147.96ZM44.025 156.818C42.846 156.597 41.9891 156.226 41.495 155.759C39.5726 153.981 37.0882 152.262 34.6751 150.804C36.2467 149.818 37.9439 148.848 39.7359 147.901C42.1656 150.578 44.3426 153.281 46.0475 155.528C45.3631 155.951 44.6859 156.379 44.025 156.818ZM48.2992 154.193C46.1908 151.401 43.3421 147.873 40.1371 144.509C37.0553 141.279 33.659 138.215 30.2215 136.095C30.3685 135.617 30.5599 135.28 30.7542 135.077C31.0645 134.762 31.3866 134.629 31.9017 134.618C32.1993 134.618 32.557 134.685 32.9469 134.825C33.0028 134.875 33.0438 134.937 33.1097 134.978L33.1095 134.977C35.794 136.637 38.9698 139.465 42.0816 142.749C45.0982 145.928 48.0614 149.533 50.5719 152.937C49.8021 153.348 49.0436 153.766 48.2992 154.193ZM54.078 156.79C53.9544 156.855 53.8597 156.949 53.7674 157.044C51.9271 157.057 50.107 157.121 48.4344 157.121C54.3385 153.6 61.169 150.606 68.9137 147.912C68.9149 147.911 68.9154 147.91 68.9166 147.91C69.4046 148.502 69.8819 149.09 70.336 149.666C64.5638 151.772 58.9884 154.182 54.078 156.79ZM75.305 156.742C71.8619 157.575 68.3993 158.373 65.4923 158.368C64.2752 158.369 63.1612 158.232 62.1837 157.928C61.1373 157.605 60.0335 157.401 58.9017 157.268C62.9806 155.303 67.4261 153.467 71.9925 151.828C73.37 153.677 74.516 155.357 75.3648 156.728C75.3451 156.732 75.3251 156.737 75.305 156.742ZM78.0243 156.097C76.7865 154.002 74.8487 151.193 72.4073 148.093C69.9173 144.933 66.9112 141.493 63.6283 138.279C64.6046 137.98 65.5802 137.69 66.5528 137.413C66.609 137.515 66.659 137.62 66.7447 137.707L66.7445 137.707C69.8583 140.872 72.9271 144.457 75.4986 147.892C77.5699 150.656 79.3099 153.325 80.4967 155.572C79.6827 155.727 78.8568 155.906 78.0243 156.097ZM91.8993 153.072C91.0045 153.673 90.1339 154.176 89.2411 154.523C88.3468 154.871 87.4334 155.071 86.3968 155.073C86.2621 155.073 86.1214 155.069 85.9759 155.062L85.9828 155.062C85.7391 155.05 85.4918 155.043 85.2413 155.043C84.5809 155.045 83.9007 155.093 83.2101 155.165C82.3275 153.375 81.1224 151.381 79.6896 149.283C84.3785 147.862 89.0472 146.681 93.4266 145.811C93.4515 145.858 93.4581 145.909 93.4891 145.954L93.4889 145.954C94.0978 146.823 94.6124 147.626 95.0064 148.32C95.401 149.012 95.6737 149.603 95.8001 149.996C95.827 150.079 95.8817 150.14 95.9225 150.213C94.453 151.2 93.1532 152.234 91.8993 153.072ZM98.1434 148.871C97.9281 148.302 97.6451 147.703 97.2672 147.036C96.9596 146.494 96.5846 145.906 96.1815 145.3C97.1722 145.128 98.1444 144.973 99.0938 144.837C99.8158 145.963 100.383 146.986 100.731 147.761C99.8031 148.071 98.943 148.449 98.1434 148.871ZM104.872 145.778C104.67 146.211 104.443 146.532 104.213 146.737C103.98 146.941 103.76 147.057 103.404 147.113C103.36 147.12 103.321 147.132 103.278 147.138C102.96 146.341 102.511 145.458 101.928 144.478C103.139 144.347 104.298 144.255 105.407 144.196C105.255 144.789 105.082 145.336 104.872 145.778ZM106.03 141.562C98.3797 141.869 88.3714 143.893 78.295 146.988C78.2315 147.008 78.1854 147.051 78.1273 147.079C77.9452 146.831 77.7667 146.583 77.5797 146.333C77.3468 146.022 77.0912 145.707 76.8509 145.395C81.5008 144.056 86.7127 142.772 91.7022 141.776C97.0838 140.701 102.21 139.965 106.015 139.846C106.022 139.859 106.029 139.866 106.035 139.88C106.097 140.022 106.158 140.237 106.159 140.59C106.159 140.84 106.119 141.167 106.03 141.562Z"/><path id="Vector_15" d="M134.386 59.7642L134.385 59.7639C132.318 57.5051 129.763 55.971 127.07 55.0083C124.374 54.0447 121.537 53.6433 118.839 53.6428C115.532 53.6453 112.436 54.2402 110.014 55.2214C109.349 55.4917 109.029 56.2502 109.299 56.9155C109.569 57.5806 110.328 57.9009 110.993 57.6306C113.033 56.7986 115.853 56.2402 118.839 56.2427C121.279 56.2422 123.832 56.6104 126.194 57.4563C128.558 58.303 130.727 59.6184 132.468 61.5195C132.952 62.0491 133.775 62.0855 134.304 61.6008C134.834 61.116 134.87 60.2937 134.386 59.7642Z"/><path id="Vector_16" d="M70.1051 66.9282C73.621 64.9607 77.5822 64.0012 80.487 64.0012C81.2047 63.9995 81.7855 63.4165 81.7841 62.6987C81.7824 61.9807 81.1994 61.3999 80.4816 61.4016C77.0443 61.415 72.7648 62.4756 68.839 64.6575C64.9264 66.8389 61.3512 70.1843 59.6373 74.8228C59.3888 75.4963 59.7335 76.2441 60.4074 76.4927C61.0809 76.741 61.8288 76.3962 62.0773 75.7227L62.077 75.7224C63.5087 71.8296 66.5761 68.8962 70.1051 66.9282Z"/><path id="Vector_17" d="M63.2468 21.0144V21.0088L63.2461 21.0032L63.2468 21.0144Z"/><path id="Vector_18" d="M113.974 71.918C113.974 71.9197 113.974 71.9211 113.974 71.9229H113.974C114.207 75.1338 114.7 79.1228 115.519 82.6306C115.931 84.3887 116.422 86.0247 117.03 87.4077C117.334 88.0996 117.669 88.7295 118.053 89.2852C118.439 89.8394 118.875 90.3262 119.416 90.7C120.289 91.3149 121.355 91.6514 122.5 91.6387C123.882 91.6318 125.401 91.2593 127.565 90.6248C129.571 90.0266 130.861 89.5122 131.851 88.7834C132.341 88.4202 132.739 87.9934 133.04 87.5359C133.342 87.0784 133.548 86.6064 133.726 86.1289C133.894 85.6724 134.016 85.1208 134.115 84.4153C134.211 83.7136 134.273 82.8735 134.273 81.9185C134.273 79.49 133.872 76.3132 132.549 72.9368C130.96 68.9197 126.767 66.2329 121.997 66.2295C121.859 66.2295 121.716 66.2312 121.567 66.2371C121.565 66.2373 121.564 66.2373 121.562 66.2373L121.565 66.2371C119.666 66.3008 117.611 66.8025 115.782 68.1318L115.782 68.1316C114.622 68.9702 113.959 70.2739 113.962 71.6138C113.962 71.7014 113.965 71.801 113.973 71.9082H113.973C113.973 71.9114 113.973 71.9148 113.974 71.918ZM117.31 70.2356C118.638 69.2729 120.133 68.8899 121.659 68.8354L121.667 68.8352C121.771 68.8311 121.881 68.8293 121.997 68.8293C125.796 68.8259 129.005 70.9922 130.129 73.8862C131.314 76.9072 131.674 79.7744 131.673 81.9185C131.673 82.7598 131.618 83.489 131.539 84.062C131.463 84.6309 131.353 85.0588 131.291 85.2202C131.147 85.6052 131.015 85.884 130.871 86.1025C130.651 86.4241 130.405 86.6755 129.798 87.0137C129.196 87.345 128.248 87.7129 126.828 88.1313C124.736 88.7546 123.365 89.0457 122.5 89.0388C121.774 89.0261 121.414 88.9026 120.889 88.5576C120.699 88.4285 120.448 88.1782 120.19 87.8037C119.734 87.1504 119.266 86.1377 118.856 84.9197C117.612 81.2537 116.855 75.7874 116.566 71.7209L116.565 71.7063L116.562 71.6138C116.564 71.1218 116.795 70.613 117.31 70.2358L116.546 69.1838L117.31 70.2356Z"/><path id="Vector_19" d="M83.3308 78.248C82.8325 76.8943 81.6277 75.8633 80.1213 75.5605H80.1211C80.1204 75.5603 80.1199 75.5603 80.1194 75.5601V75.5603C79.47 75.4275 78.8313 75.3677 78.2109 75.3679C76.7082 75.3679 75.311 75.718 74.0671 76.2339C69.668 78.064 66.8484 82.1147 66.8379 86.3777C66.8379 86.5483 66.843 86.7166 66.8518 86.8816C67.0256 90.115 67.8035 92.8997 68.6831 95.0317C69.1233 96.0981 69.5891 97.0017 70.0259 97.7249C70.468 98.4514 70.8594 98.9836 71.2461 99.375C71.7542 99.8848 72.3267 100.373 73.0793 100.702C73.8313 101.032 74.6895 101.172 75.7141 101.17C76.5503 101.17 77.5166 101.082 78.7156 100.915C80.7629 100.624 82.2239 100.352 83.4263 99.8755C84.0252 99.6362 84.561 99.3357 85.0234 98.9512C85.4866 98.5684 85.8635 98.1074 86.1638 97.605C86.7981 96.5195 86.9631 95.2454 86.9724 93.8162C86.969 91.5447 86.4746 88.8286 85.781 86.0723C85.0855 83.3203 84.1831 80.5456 83.3308 78.248ZM83.9343 96.2673C83.7554 96.5632 83.5818 96.7676 83.3628 96.9507C83.0374 97.2209 82.5649 97.4666 81.7563 97.6982C80.9529 97.929 79.8401 98.1316 78.3538 98.3398C77.2253 98.4985 76.3635 98.571 75.7141 98.5706C74.9087 98.5693 74.4561 98.4653 74.1228 98.3203C73.7903 98.1738 73.5037 97.9548 73.0852 97.5374C72.9434 97.3999 72.6099 96.9783 72.2512 96.3799C71.1521 94.5674 69.676 91.0808 69.4482 86.7422C69.4414 86.6172 69.4377 86.4958 69.4377 86.3777C69.4272 83.2971 71.5549 80.0872 75.0635 78.6355C76.0574 78.2231 77.1152 77.9678 78.2109 77.9678C78.6663 77.968 79.1279 78.0112 79.6006 78.1077L79.8611 76.8342L79.6025 78.1082C80.271 78.2473 80.708 78.6594 80.8928 79.1514C81.7163 81.3704 82.5942 84.0728 83.2603 86.7092C83.928 89.3413 84.376 91.9255 84.3726 93.8162C84.3818 95.0025 84.1743 95.8943 83.9343 96.2673Z"/><path id="Vector_20" d="M114.39 96.1069C114.163 95.6177 113.792 95.2556 113.403 95.0022C112.811 94.6211 112.155 94.4248 111.431 94.2903C110.706 94.1597 109.907 94.1055 109.047 94.105C105.944 94.1101 101.999 94.8154 98.7041 95.9155C97.0564 96.4705 95.5798 97.1167 94.4248 97.8914C93.8474 98.282 93.3442 98.7048 92.9448 99.219C92.5505 99.7266 92.2463 100.371 92.2461 101.107L92.2568 101.337C92.4048 103.08 92.9639 104.781 93.803 106.353C95.0029 108.628 96.7542 110.638 98.7407 112.116C100.729 113.587 102.964 114.555 105.214 114.563C105.866 114.564 106.517 114.478 107.149 114.292L107.153 114.291C108.094 114.011 108.943 113.51 109.7 112.869C111.43 111.407 112.73 109.255 113.653 106.931C114.568 104.602 115.091 102.098 115.094 99.8652C115.091 98.4914 114.901 97.2131 114.39 96.1069ZM111.234 105.978C110.435 108.021 109.27 109.847 108.027 110.879L108.023 110.882C107.48 111.34 106.949 111.639 106.413 111.798C106.039 111.908 105.639 111.963 105.214 111.964C103.752 111.972 101.955 111.272 100.291 110.029C98.6255 108.794 97.1023 107.046 96.1025 105.14L96.0984 105.132C95.3984 103.825 94.9587 102.449 94.8469 101.115L94.8462 101.105C94.846 101.098 94.8481 101.011 95.0027 100.808C95.2676 100.448 95.9961 99.895 97.0081 99.4011C98.5259 98.645 100.652 97.9543 102.835 97.4717C105.018 96.9863 107.272 96.7036 109.047 96.7048C110.041 96.7029 110.887 96.7981 111.429 96.9529C111.699 97.0281 111.889 97.1177 111.979 97.1782L112.042 97.2273C112.32 97.8245 112.498 98.759 112.494 99.8652C112.497 101.684 112.041 103.938 111.234 105.978Z"/><path id="Vector_21" d="M109.701 112.868L109.7 112.869L109.697 112.871L109.701 112.868Z"/><path id="Vector_22" d="M92.2566 101.344L92.2563 101.337L92.2559 101.334L92.2566 101.344Z"/><path id="Vector_23" d="M114.39 96.1055L114.39 96.1069L114.391 96.1086L114.39 96.1055Z"/><path id="Vector_24" d="M93.8049 106.358L93.8022 106.353L93.8008 106.35L93.8049 106.358Z"/></g></g></svg>