<svg xmlns="http://www.w3.org/2000/svg" width="200" height="200" fill="none"><path fill="#fff" d="M89.625 79.125c-7.335-4.618-2.375-11.25-2.375-11.25s-6.125-5.5-3.25-18.125 7.875-13.875 10.875-14.5 5.875 1.375 5.875 1.375a8.59 8.59 0 0 1 6.75-2.125c4.375.375 5.75 2.25 5.75 2.25S119.625 17.625 128 19s-1.25 25.375-1.25 25.375 5.375-3.625 9.375-.875 2.875 6.375-.375 9.75-6.875 11.625-10.5 16.5S114.375 76 114.375 76s.25 6.125-8.375 6.625-13-1.375-16.375-3.5Z"/><g fill="#191C22"><path d="m126.914 18.097.002.001h.003-.005Z"/><path d="M138.54 43.724a6.007 6.007 0 0 0-1.998-1.2 8.934 8.934 0 0 0-3.09-.523 10.876 10.876 0 0 0-4.904 1.208c.191-.553.382-1.107.569-1.663.952-2.832 1.842-5.693 2.5-8.395a32.904 32.904 0 0 0 1.086-7.49 9.194 9.194 0 0 0-1.25-5.123 5.229 5.229 0 0 0-1.88-1.723 6.319 6.319 0 0 0-2.418-.69c-.08-.008-.157-.022-.239-.027a5.108 5.108 0 0 0-.364-.013 6.738 6.738 0 0 0-3.745 1.252 18.125 18.125 0 0 0-4.717 5.184c-.162.247-.323.496-.482.75a63.721 63.721 0 0 0-4.688 9.598l-.038.095a7.704 7.704 0 0 0-.288-.217c-.072-.052-.126-.101-.205-.154a10.095 10.095 0 0 0-4.954-1.627c-.263-.02-.523-.029-.781-.029a8.785 8.785 0 0 0-5.493 1.843 8.629 8.629 0 0 0-.586-.334 9.002 9.002 0 0 0-4.142-1.004 11.101 11.101 0 0 0-7.918 3.679 21.712 21.712 0 0 0-4.943 8.733 33.278 33.278 0 0 0-1.222 5.627 35.135 35.135 0 0 0-.32 4.58c-.034 2.514.3 5.019.99 7.436.079.258.18.49.268.737.262.76.597 1.494 1.002 2.19.355.594.789 1.138 1.29 1.617a7.928 7.928 0 0 0-1.417 4.009c-.007.124-.01.25-.01.376a8.423 8.423 0 0 0 2.003 5.243c.338.43.705.835 1.098 1.215l.04.034c-6.689 23.406-9.553 53.304-9.558 80.522 0 7.875.241 15.523.702 22.723a1.467 1.467 0 0 0 2.93-.101l14.317-.068.001.036a1.47 1.47 0 1 0 2.938-.087 531.309 531.309 0 0 1-.244-16.005c-.001-35.674 3.809-62.68 9.517-82.074.651-.075 1.296-.19 1.932-.346a7.036 7.036 0 0 0 3.574-1.924 8.725 8.725 0 0 0 1.532-2.42 7.79 7.79 0 0 0 .453-1.502 7.22 7.22 0 0 0 .084-.55c.107.01.214.004.319-.014a18.467 18.467 0 0 0 7.061-3.525 30.85 30.85 0 0 0 6.826-8.196c.282-.46.552-.914.817-1.363.808-1.376 1.543-2.684 2.235-3.834.484-.804.949-1.534 1.404-2.144 1.184-1.602 2.694-3.15 3.968-4.74a14.515 14.515 0 0 0 1.656-2.488 6.33 6.33 0 0 0 .738-2.847 5.875 5.875 0 0 0-1.561-3.85 4.848 4.848 0 0 0-.395-.397Zm-1.106 5.928a16.675 16.675 0 0 1-2.292 3.143c-.982 1.14-2.1 2.359-3.097 3.703a52.221 52.221 0 0 0-2.981 4.815 45.042 45.042 0 0 1-5.447 7.986 16.904 16.904 0 0 1-8.263 5.228 10.23 10.23 0 0 0-.627-2.06 9.044 9.044 0 0 0-.83-1.543 1.3 1.3 0 0 0-2.127 1.494l-.001.001a7.387 7.387 0 0 1 1.163 3.774 5.328 5.328 0 0 1-1.466 3.667 4.59 4.59 0 0 1-2.279 1.139c-.14.036-.3.063-.45.094.202-.64.407-1.272.613-1.895.156-.463.236-.949.238-1.438a4.758 4.758 0 0 0-1.081-2.94 10.143 10.143 0 0 0-3.657-2.708 18.277 18.277 0 0 0-4.106-1.363 22.448 22.448 0 0 0-4.283-.431 12.422 12.422 0 0 0-4.484.723c-.73.277-1.4.689-1.976 1.215a4.86 4.86 0 0 0-1.32 2.082c-.177.551-.34 1.128-.511 1.688a5.798 5.798 0 0 1-1.417-3.6l.006-.24a5.472 5.472 0 0 1 1.247-3.09 4.566 4.566 0 0 1 2.665-1.678 1.3 1.3 0 1 0-.45-2.56 6.704 6.704 0 0 0-2.872 1.28 5.13 5.13 0 0 1-.837-1.064 12.38 12.38 0 0 1-1.383-3.806 25.548 25.548 0 0 1-.5-5.206c0-3.195.48-6.372 1.422-9.425a19.169 19.169 0 0 1 4.315-7.691 8.502 8.502 0 0 1 6.067-2.904c1 0 1.984.234 2.875.684a13.855 13.855 0 0 0-2.127 4.821 1.299 1.299 0 1 0 2.524.623 9.661 9.661 0 0 1 2.797-5.138 6.135 6.135 0 0 1 4.152-1.495c.195 0 .39.008.587.022h.002a7.498 7.498 0 0 1 3.696 1.192c.288.191.556.41.8.656l.146.16a100.411 100.411 0 0 0-1.348 3.908c-.183.57-.324 1.034-.423 1.367a24.2 24.2 0 0 0-.116.404l-.036.135-.016.065-.024.129a1.293 1.293 0 0 0 2.543.45l.015.003c.005-.02.047-.178.111-.395a91.24 91.24 0 0 1 5.053-13.027 34.467 34.467 0 0 1 4.45-7.124 10.711 10.711 0 0 1 2.35-2.108 4.005 4.005 0 0 1 2.108-.689l.186.007h.006c.555.02 1.098.16 1.594.412a2.85 2.85 0 0 1 1.295 1.536 8.2 8.2 0 0 1 .47 3.022 30.431 30.431 0 0 1-1.013 6.875c-.943 3.883-2.427 8.235-3.878 12.342-1.452 4.111-2.87 7.969-3.693 10.965a1.3 1.3 0 1 0 2.507.688c.648-2.368 1.743-5.453 2.941-8.825a1.02 1.02 0 0 0 .099-.078 8.391 8.391 0 0 1 6.386-3.028 6.355 6.355 0 0 1 2.186.362c.503.166.956.457 1.318.844.571.58.907 1.351.94 2.164a3.765 3.765 0 0 1-.462 1.681Z"/></g></svg>