<svg xmlns="http://www.w3.org/2000/svg" width="200" height="200" fill="none"><g fill="#191C22"><path d="M97.083 178.975c-1.15-45.642 3.561-78.158 10.872-100.239 1.16-3.502-4.125-5.87-7.5-6.546-3.087-.62-9.223-1.001-10.375 2.596-9.424 29.418-12.183 71.056-10.332 104.255.253 3.709 4.403 4.327 8.578 4.245 4.335-.084 8.697-1.001 8.757-4.311Z"/><path d="M94.492 82.333C84.66 76 84.326 72 86.826 68.333c0 0-6.052-10.126-2.667-20 4-11.666 9.166-16.166 16.333-11.5 0 0 3.5-6.166 12.333-.166 0 0 8-20.334 14.667-17.167 6.667 3.167 2.333 16.667-1 25.667 0 0 7.5-4 10.667-.5 3.166 3.5 2 4.333-5 13.666-7 9.334-7.5 16.167-17.334 17.334 0 0-1.666 12-20.333 6.666Z"/></g><g fill="#BEBEC9"><path d="M126.939 17.713h.006-.006ZM140.464 45.86a7.298 7.298 0 0 0-1.236-1.989 6.113 6.113 0 0 0-2.553-1.707 9.32 9.32 0 0 0-3.224-.549 11.22 11.22 0 0 0-4.247.862c.092-.27.186-.538.277-.81.954-2.837 1.848-5.707 2.509-8.426a33.19 33.19 0 0 0 1.097-7.58c.01-.955-.085-1.908-.285-2.841a6.713 6.713 0 0 0-1.913-3.535 6.277 6.277 0 0 0-3.947-1.572 5.668 5.668 0 0 0-.39-.013 7.122 7.122 0 0 0-3.959 1.316 19.76 19.76 0 0 0-5.312 6.052 63.24 63.24 0 0 0-4.605 9.375c-.045-.032-.077-.061-.124-.093a10.394 10.394 0 0 0-5.098-1.676c-.267-.02-.534-.03-.801-.03a9.112 9.112 0 0 0-5.439 1.72 9.327 9.327 0 0 0-4.781-1.308 11.488 11.488 0 0 0-8.193 3.794 22.089 22.089 0 0 0-5.036 8.888 34.86 34.86 0 0 0-1.56 10.324 26.221 26.221 0 0 0 1.006 7.548c.311 1.054.751 2.066 1.31 3.013a8.367 8.367 0 0 0 1.115 1.454 8.28 8.28 0 0 0-1.297 3.952c-.007.13-.01.262-.01.398a8.082 8.082 0 0 0 .795 3.448 11.228 11.228 0 0 0 2.423 3.286c.063.057.13.11.2.157-6.61 23.346-9.446 53.057-9.45 80.123 0 7.874.24 15.522.701 22.722a1.468 1.468 0 0 0 1.56 1.37 1.47 1.47 0 0 0 1.374-1.558 354.774 354.774 0 0 1-.696-22.534c-.005-28.8 3.264-60.693 10.803-84.207.1-.32.284-.607.53-.833a4.019 4.019 0 0 1 1.776-.858 11.198 11.198 0 0 1 2.676-.286 19.56 19.56 0 0 1 3.704.373 14.62 14.62 0 0 1 4.495 1.714 5.842 5.842 0 0 1 1.532 1.287c.277.313.438.711.456 1.129-.002.175-.032.35-.089.515-6.64 20.062-11.116 48.81-11.118 87.667 0 5.182.082 10.544.245 16.088a1.469 1.469 0 1 0 2.938-.088 529.016 529.016 0 0 1-.244-16c-.001-35.429 3.757-62.309 9.398-81.675a14.384 14.384 0 0 0 3.053-.646 6.702 6.702 0 0 0 2.859-1.77 8.47 8.47 0 0 0 2.125-4.36c.023-.005.047-.004.07-.01a18.856 18.856 0 0 0 7.207-3.597 31.244 31.244 0 0 0 6.915-8.296c1.754-2.864 3.15-5.59 4.436-7.313 1.163-1.574 2.668-3.117 3.96-4.73a14.878 14.878 0 0 0 1.699-2.555c.493-.931.76-1.965.78-3.019a5.6 5.6 0 0 0-.417-2.111Zm-3.375 3.62a16.34 16.34 0 0 1-2.24 3.063c-.977 1.135-2.101 2.36-3.114 3.725a52.24 52.24 0 0 0-3.005 4.853 44.731 44.731 0 0 1-5.398 7.919 16.63 16.63 0 0 1-7.678 4.996 10.84 10.84 0 0 0-.574-1.72 9.415 9.415 0 0 0-.87-1.614 1.684 1.684 0 0 0-2.758 1.935l.045.07c.246.4.453.822.617 1.262.276.71.422 1.463.432 2.225 0 1.27-.49 2.49-1.367 3.409a3.463 3.463 0 0 1-1.448.832 8.588 8.588 0 0 1-.859.238c.158-.496.316-.99.477-1.475.155-.464.236-.95.237-1.438a4.75 4.75 0 0 0-1.08-2.94 10.142 10.142 0 0 0-3.657-2.708 18.272 18.272 0 0 0-4.106-1.363 22.458 22.458 0 0 0-4.283-.432 12.423 12.423 0 0 0-4.484.723c-.73.277-1.4.69-1.976 1.215a4.861 4.861 0 0 0-1.32 2.083c-.131.406-.25.833-.377 1.243a6.73 6.73 0 0 1-.69-1.14 4.707 4.707 0 0 1-.476-2.014l.006-.219a5.093 5.093 0 0 1 1.16-2.87 4.185 4.185 0 0 1 2.434-1.54 1.685 1.685 0 0 0-.584-3.32 7.014 7.014 0 0 0-2.758 1.16 5.215 5.215 0 0 1-.555-.764 12.002 12.002 0 0 1-1.335-3.685 25.151 25.151 0 0 1-.492-5.127c0-3.155.473-6.294 1.404-9.309a18.79 18.79 0 0 1 4.223-7.537 8.117 8.117 0 0 1 5.793-2.79 5.977 5.977 0 0 1 2.375.499 14.537 14.537 0 0 0-1.913 4.552 1.593 1.593 0 0 0 3.094.763 9.387 9.387 0 0 1 2.704-4.988 5.841 5.841 0 0 1 3.96-1.422c.186 0 .375.007.567.021a7.197 7.197 0 0 1 3.554 1.143c.252.167.486.357.702.569-.545 1.49-.989 2.806-1.306 3.794a64.595 64.595 0 0 0-.543 1.786l-.039.144-.018.074c-.007.034-.014.056-.03.163a1.684 1.684 0 0 0 1.368 1.888 1.683 1.683 0 0 0 1.939-1.296l.007.002c.001-.006.044-.163.107-.377a90.794 90.794 0 0 1 5.028-12.965 34.136 34.136 0 0 1 4.396-7.042 10.34 10.34 0 0 1 2.262-2.033 3.622 3.622 0 0 1 1.905-.63l.16.004h.007c.499.018.989.143 1.436.367.525.295.924.772 1.121 1.342.326.923.475 1.899.441 2.877a30.036 30.036 0 0 1-1.002 6.784c-.937 3.858-2.416 8.201-3.867 12.305-1.451 4.11-2.87 7.969-3.701 10.992a1.679 1.679 0 0 0 .588 1.784 1.68 1.68 0 0 0 1.873.132 1.683 1.683 0 0 0 .789-1.025c.635-2.321 1.712-5.36 2.894-8.69.022-.023.048-.042.069-.067a8.13 8.13 0 0 1 2.945-2.217 7.863 7.863 0 0 1 3.146-.674 5.972 5.972 0 0 1 2.053.338c.441.145.839.397 1.159.734.281.316.51.676.677 1.065.112.27.17.558.171.849a3.398 3.398 0 0 1-.422 1.509Z"/></g></svg>