<svg width="200" height="200" viewBox="0 0 200 200" xmlns="http://www.w3.org/2000/svg"><g id="type=pointer, mode=light"><g id="Layer 2"><path id="Vector" d="M89.6252 79.1249C82.2905 74.5068 87.2502 67.8749 87.2502 67.8749C87.2502 67.8749 81.1252 62.3749 84.0002 49.7499C86.8752 37.1249 91.8752 35.8749 94.8752 35.2499C97.8752 34.6249 100.75 36.6249 100.75 36.6249C101.66 35.8115 102.732 35.2012 103.896 34.8348C105.06 34.4684 106.289 34.3542 107.5 34.4999C111.875 34.8749 113.25 36.7499 113.25 36.7499C113.25 36.7499 119.625 17.6249 128 18.9999C136.375 20.3749 126.75 44.3749 126.75 44.3749C126.75 44.3749 132.125 40.7499 136.125 43.4999C140.125 46.2499 139 49.8749 135.75 53.2499C132.5 56.6249 128.875 64.8749 125.25 69.7499C121.625 74.6249 114.375 75.9999 114.375 75.9999C114.375 75.9999 114.625 82.1249 106 82.6249C97.3752 83.1249 93.0002 81.2499 89.6252 79.1249Z"/></g><g id="Layer 45"><path id="Vector_2" d="M126.914 18.0972L126.916 18.0982H126.919L126.914 18.0972Z"/><path id="Vector_3" d="M138.54 43.7241C137.959 43.1978 137.28 42.7904 136.542 42.5247C135.551 42.1693 134.505 41.9919 133.452 42.0006C131.745 42.013 130.065 42.4269 128.548 43.2088C128.739 42.6557 128.93 42.102 129.117 41.5456C130.069 38.7138 130.959 35.8532 131.617 33.1507C132.266 30.7045 132.63 28.1916 132.703 25.6618C132.796 23.8683 132.361 22.0868 131.453 20.5375C130.978 19.8171 130.332 19.2255 129.573 18.8155C128.822 18.4255 127.999 18.1905 127.155 18.1244C127.075 18.1167 126.998 18.103 126.916 18.0978C126.791 18.0889 126.67 18.0854 126.552 18.0854C125.207 18.1191 123.902 18.5549 122.807 19.3365C120.912 20.7415 119.31 22.5027 118.09 24.5212C117.928 24.7683 117.767 25.0168 117.608 25.2714C115.78 28.3335 114.211 31.5439 112.92 34.8688L112.882 34.9639C112.792 34.8923 112.696 34.8205 112.594 34.7469C112.522 34.6948 112.468 34.6457 112.389 34.5931C110.909 33.6266 109.201 33.0657 107.435 32.9665C107.172 32.9465 106.912 32.9372 106.654 32.9372C104.667 32.9128 102.731 33.5624 101.161 34.7802C100.973 34.6628 100.778 34.5512 100.575 34.4455C99.2945 33.7842 97.8743 33.4399 96.4335 33.4416C94.9335 33.4878 93.4584 33.8377 92.0974 34.4701C90.7363 35.1024 89.5176 36.0041 88.5148 37.1207C86.208 39.6058 84.5153 42.5966 83.5723 45.8536C83.003 47.6905 82.594 49.5733 82.3499 51.4808C82.1432 52.9992 82.036 54.5295 82.0291 56.0618C81.9958 58.5752 82.3294 61.0799 83.0194 63.4969C83.0985 63.7546 83.1992 63.9875 83.2883 64.2338C83.5497 64.9947 83.885 65.728 84.2896 66.4233C84.645 67.0182 85.0789 67.5625 85.5797 68.0415C84.7514 69.2236 84.2615 70.6095 84.1629 72.0496C84.1564 72.1744 84.1531 72.2997 84.153 72.4256C84.2015 74.3511 84.9084 76.2017 86.156 77.6692C86.4942 78.0984 86.8611 78.5042 87.2542 78.8839C87.2668 78.8959 87.282 78.9066 87.2947 78.9185C80.6051 102.324 77.7406 132.222 77.7363 159.44C77.7363 167.315 77.9774 174.963 78.4383 182.163C78.4619 182.545 78.6333 182.902 78.9161 183.159C79.1989 183.415 79.5707 183.552 79.9525 183.539C80.3343 183.525 80.6958 183.364 80.9603 183.088C81.2247 182.812 81.3711 182.444 81.3684 182.062L95.685 181.994L95.686 182.03C95.6917 182.223 95.7354 182.413 95.8145 182.589C95.8936 182.765 96.0067 182.924 96.1471 183.056C96.2876 183.188 96.4528 183.292 96.6332 183.36C96.8136 183.429 97.0058 183.461 97.1987 183.455C97.3916 183.45 97.5815 183.406 97.7575 183.327C97.9335 183.248 98.0923 183.135 98.2246 182.994C98.357 182.854 98.4603 182.689 98.5289 182.508C98.5974 182.328 98.6297 182.136 98.624 181.943C98.4596 176.425 98.3784 171.09 98.3803 165.938C98.3785 130.264 102.189 103.258 107.897 83.8639C108.548 83.7894 109.193 83.6739 109.829 83.5181C111.184 83.2415 112.427 82.5721 113.403 81.5937C113.721 81.2388 114.008 80.8585 114.264 80.4565C114.525 80.05 114.75 79.6208 114.935 79.1742C115.136 78.6902 115.288 78.1871 115.388 77.6725C115.424 77.4872 115.451 77.3044 115.472 77.1227C115.579 77.1313 115.686 77.1261 115.791 77.1075C118.371 76.4552 120.78 75.253 122.852 73.5832C125.586 71.268 127.896 68.4947 129.678 65.3872C129.96 64.9274 130.23 64.4734 130.495 64.0236C131.303 62.6484 132.038 61.3395 132.73 60.1903C133.214 59.3862 133.679 58.6559 134.134 58.0457C135.318 56.4438 136.828 54.8964 138.102 53.3051C138.738 52.5353 139.293 51.7019 139.758 50.818C140.224 49.9401 140.477 48.965 140.496 47.9712C140.462 46.5405 139.907 45.1715 138.935 44.1208C138.811 43.9809 138.679 43.8484 138.54 43.7241ZM137.434 49.6524C136.795 50.7857 136.026 51.8403 135.142 52.7946C134.16 53.9354 133.042 55.1536 132.045 56.4975C130.965 58.0474 129.97 59.655 129.064 61.3131C127.54 64.1627 125.714 66.84 123.617 69.2989C121.438 71.8175 118.563 73.6364 115.354 74.527C115.218 73.8207 115.008 73.1306 114.727 72.4678C114.501 71.9277 114.223 71.4108 113.897 70.9244C113.698 70.643 113.397 70.4519 113.057 70.393C112.718 70.334 112.37 70.412 112.088 70.6099C111.806 70.8078 111.615 71.1094 111.555 71.4485C111.495 71.7875 111.573 72.1364 111.77 72.4184L111.769 72.419C112.492 73.548 112.894 74.8528 112.932 76.193C112.931 77.558 112.406 78.8706 111.466 79.8596C110.829 80.4467 110.039 80.8416 109.187 80.9986C109.047 81.0346 108.887 81.0617 108.737 81.0934C108.939 80.4529 109.144 79.8212 109.35 79.1984C109.506 78.7348 109.586 78.2492 109.588 77.7602C109.57 76.686 109.189 75.6495 108.507 74.8195C107.509 73.6516 106.258 72.7258 104.85 72.1119C103.54 71.4965 102.162 71.039 100.744 70.7487C99.3335 70.4681 97.8992 70.3237 96.461 70.3175C94.9345 70.2808 93.4143 70.526 91.9767 71.0406C91.2475 71.3176 90.5772 71.7299 90.001 72.2557C89.3891 72.8247 88.9343 73.5418 88.6803 74.3378C88.5038 74.8891 88.3416 75.4659 88.1698 76.0256C87.2993 75.0232 86.7992 73.7524 86.7531 72.4256L86.7594 72.1868C86.8434 71.0519 87.2791 69.9713 88.006 69.0956C88.6674 68.2381 89.6121 67.6436 90.6713 67.4182C90.8406 67.3899 91.0026 67.3283 91.148 67.237C91.2933 67.1458 91.4192 67.0266 91.5182 66.8865C91.6173 66.7463 91.6877 66.5879 91.7252 66.4205C91.7628 66.253 91.7668 66.0797 91.737 65.9107C91.7073 65.7417 91.6443 65.5802 91.5519 65.4356C91.4594 65.291 91.3392 65.1662 91.1982 65.0683C91.0572 64.9704 90.8983 64.9014 90.7305 64.8652C90.5627 64.8291 90.3894 64.8265 90.2207 64.8577V64.8575C89.1755 65.0509 88.1913 65.49 87.3493 66.1386C87.0245 65.8224 86.7431 65.4646 86.5123 65.0744C85.8455 63.8901 85.3783 62.6041 85.1294 61.268C84.7849 59.5543 84.6173 57.8098 84.629 56.0618C84.6286 52.8667 85.1081 49.6897 86.0515 46.637C86.8725 43.7729 88.3498 41.1395 90.3663 38.946C91.1268 38.0746 92.0572 37.3676 93.1004 36.8681C94.1437 36.3687 95.2778 36.0875 96.4335 36.0416C97.4321 36.0418 98.4167 36.2763 99.3082 36.7263C98.2972 38.1824 97.5751 39.8189 97.1809 41.5471C97.14 41.7129 97.1321 41.885 97.1578 42.0538C97.1834 42.2226 97.242 42.3847 97.3303 42.5308C97.4186 42.6769 97.5348 42.8043 97.6723 42.9055C97.8097 43.0067 97.9658 43.0798 98.1316 43.1208C98.2973 43.1617 98.4695 43.1695 98.6383 43.1439C98.8071 43.1182 98.9691 43.0596 99.1153 42.9713C99.2614 42.8831 99.3887 42.7669 99.4899 42.6294C99.5911 42.4919 99.6643 42.3359 99.7052 42.1701V42.17C100.084 40.2095 101.061 38.4146 102.502 37.0318C103.653 36.0357 105.133 35.503 106.654 35.5372C106.849 35.5372 107.044 35.5445 107.241 35.5592L107.243 35.5594C108.558 35.625 109.833 36.0359 110.939 36.7507C111.227 36.942 111.495 37.1618 111.739 37.4067L111.885 37.5665C111.32 39.1047 110.861 40.4631 110.537 41.4747C110.354 42.0451 110.213 42.5086 110.114 42.8421C110.065 43.0091 110.026 43.1431 109.998 43.2457L109.962 43.3812L109.946 43.4461L109.922 43.575C109.874 43.9074 109.957 44.2456 110.153 44.5178C110.35 44.79 110.645 44.9749 110.976 45.0333C111.307 45.0917 111.647 45.019 111.925 44.8306C112.203 44.6422 112.397 44.353 112.465 44.0241L112.48 44.0277C112.485 44.0074 112.527 43.8504 112.591 43.633C113.94 39.168 115.629 34.813 117.644 30.6062C118.831 28.059 120.326 25.6665 122.094 23.482C122.769 22.6672 123.561 21.9568 124.444 21.3743C125.068 20.9507 125.799 20.7119 126.552 20.6854L126.738 20.6915L126.744 20.6919C127.299 20.7124 127.842 20.8528 128.338 21.1035C128.942 21.4414 129.402 21.9875 129.633 22.6399C129.978 23.6088 130.137 24.634 130.103 25.6619C130.029 27.9846 129.689 30.2912 129.09 32.5366C128.147 36.4202 126.663 40.7721 125.212 44.8788C123.76 48.9904 122.342 52.8476 121.519 55.8438C121.427 56.1763 121.472 56.5314 121.642 56.8311C121.813 57.1307 122.096 57.3503 122.428 57.4415C122.761 57.5327 123.116 57.4882 123.415 57.3176C123.715 57.1469 123.935 56.8643 124.026 56.5318C124.674 54.164 125.769 51.0787 126.967 47.7072C127.002 47.6827 127.035 47.6565 127.066 47.6285V47.6284C127.846 46.6898 128.822 45.9326 129.925 45.4097C131.028 44.8868 132.231 44.6107 133.452 44.6007C134.196 44.5924 134.936 44.7149 135.638 44.9627C136.141 45.1294 136.594 45.4198 136.956 45.8073C137.527 46.3869 137.863 47.1583 137.896 47.9714C137.876 48.5602 137.717 49.136 137.434 49.6524Z"/></g></g></svg>