<svg xmlns="http://www.w3.org/2000/svg" width="200" height="200" fill="none"><g fill="#FFD93A"><path d="M148.529 70.16c.115-1.318.187-2.647.187-3.994 0-26.105-20.033-49.458-56.188-49.458S36.339 40.061 36.339 66.166a43.618 43.618 0 0 0 9.765 27.72 71.248 71.248 0 0 0-1.234 12.599c2.618-.692 6.806-1.799 11.69-3.088 15.9-4.195 39.175-10.314 39.668-10.314.75 0 20.5 11.75 21.417 12.917.401.849.726 1.732.971 2.639 1.419 4.463 3.941 13.533 5.598 19.576 2.043-.061 3.98.279 5.118 1.285 2.688 2.375 1.5 10.25-.25 14.188-1.75 3.937-9.437 4.5-9.437 4.5l-5 .625s-1.813-1.375-.188-4.063c0 0 .232-.2.552-.532-9.142 2.451-28.683 7.674-44.066 11.681 8.542 5.086 18.974 8.016 30.998 8.016 35.433 0 58.085-25.386 58.085-56.7 0-13.666-3.946-26.701-11.497-37.056Z"/><path d="M82.894 134.334c-.916-2.75-3.75-12.667-4.583-15.334-.833-2.666-2.583-5.166-6-4.166s-24.75 7-24.75 7c-2.75 1.083-5.333 2-3.583 8.25s2.75 12.166 3.916 14.583a6.35 6.35 0 0 0 7.834 2.75c3.333-1.167 20.25-5.25 23.5-6.333 3.25-1.084 4.583-4 3.666-6.75Z"/></g><g fill="#191C22"><path d="M49.534 31.154a40.944 40.944 0 0 0-8.036 10.175 1.284 1.284 0 0 0-.116.423 49.237 49.237 0 0 0-6.309 22.986 52.223 52.223 0 0 0-9.607-4.782 27.915 27.915 0 0 0-9.34-1.9 12.208 12.208 0 0 0-5.366 1.098 8.18 8.18 0 0 0-3.755 3.657 7.761 7.761 0 0 0-.91 3.59 8.305 8.305 0 0 0 1.21 4.19 19.52 19.52 0 0 0 6.382 6.11 62.572 62.572 0 0 0 15.392 6.752 89.055 89.055 0 0 0 9.63 2.343 38.855 38.855 0 0 0 4.924 18.112c-.028.626-.038 1.255-.05 1.884l-1.682.451a3.912 3.912 0 0 0-.125-.68 3.601 3.601 0 0 0-1.677-2.06 4.816 4.816 0 0 0-2.418-.66 4.448 4.448 0 0 0-2.11.539c-.567.31-1.031.78-1.335 1.35a13.945 13.945 0 0 0-.353-.005 11.46 11.46 0 0 0-7.42 2.309 7.22 7.22 0 0 0-2.726 5.221l-.006.256a6.872 6.872 0 0 0 .932 3.384c.048.082.111.154.164.234a1.217 1.217 0 0 0-.035.119c-.066.774-.135 1.457-.136 2.142a6.297 6.297 0 0 0 .215 1.724c.175.61.453 1.185.821 1.701.293.431.684.787 1.14 1.037.102.046.206.085.311.119.179.699.508 1.351.965 1.909.302.354.676.638 1.098.834.432.195.901.294 1.375.291l.17-.004h.005a3.13 3.13 0 0 0 1.517-.468c.076-.048.14-.106.211-.158l8.42 31.426a4.174 4.174 0 0 0 2.052 2.591l.009.008.025.015 4.364 2.558.008.004a4.175 4.175 0 0 0 3.171.418l11.34-3.038c.167 1.62.384 3.097.601 4.363a8.682 8.682 0 0 0-3.056 3.354 14.067 14.067 0 0 0-1.385 6.266 14.779 14.779 0 0 0 .31 3.133c.007.032.03.055.04.086a8.25 8.25 0 0 0-.802 3.598c0 .435.03.869.089 1.3.638 4.777 2.085 8.181 4.295 10.421a10.161 10.161 0 0 0 3.774 2.422c1.42.5 2.917.746 4.423.727.345 0 .693-.011 1.043-.032 3.244-.1 6.35-1.326 8.79-3.467a10.905 10.905 0 0 0 3.476-8.156c0-.171-.004-.343-.01-.516a34.95 34.95 0 0 0-2.98-11.576 26.442 26.442 0 0 0-3-5.279 9.498 9.498 0 0 0-3.944-3.294 12.894 12.894 0 0 0-3.247-.757 55.709 55.709 0 0 1-.576-4.694l.672-.18c8.735 5.171 19.37 8.141 31.555 8.137 14.451.004 26.879-4.168 36.571-11.24a166.47 166.47 0 0 0-.086 5.446c0 .69.013 1.411.019 2.115a8.775 8.775 0 0 0-4.068 3.931 16.273 16.273 0 0 0-1.527 7.191c.005.112.025.224.059.331-.177.242-.366.469-.524.733a6.862 6.862 0 0 0-.787 2.265 15.311 15.311 0 0 0-.228 2.754c.017 2.171.312 4.331.88 6.427a16.526 16.526 0 0 0 2.659 5.761 9.212 9.212 0 0 0 3.958 2.837c1.62.614 3.34.922 5.073.908a15.067 15.067 0 0 0 9.095-2.947 10.427 10.427 0 0 0 3.459-5.026c.625-1.969.926-4.026.891-6.092a37.8 37.8 0 0 0-.954-7.958 20.794 20.794 0 0 0-3.578-8.213 11.16 11.16 0 0 0-3.465-3.002 9.692 9.692 0 0 0-2.957-1.006c-.002-.336-.005-.678-.005-1.009-.059-4.44.18-8.879.714-13.287a56.19 56.19 0 0 0 12.522-24.424 52.04 52.04 0 0 0 2.064 1.544 38.054 38.054 0 0 0 10.986 5.454 31.949 31.949 0 0 0 5.1 1.409 1.302 1.302 0 0 0 1.319-.592c.091-.144.152-.306.18-.474a1.308 1.308 0 0 0-.593-1.318 1.288 1.288 0 0 0-.475-.18l-.016-.003a28.99 28.99 0 0 1-3.294-.836l.526-2.071c2.011.576 3.49.83 3.523.836a1.299 1.299 0 0 0 1.273-2.033 1.299 1.299 0 0 0-.839-.531l-.081-.014a35.518 35.518 0 0 1-3.237-.779l.524-2.066c2.005.522 3.505.78 3.53.785a1.298 1.298 0 0 0 1.492-1.064 1.299 1.299 0 0 0-1.054-1.499l-.082-.014a47.45 47.45 0 0 1-3.247-.728l.002-.009a24.986 24.986 0 0 1-7.75-3.485 46.763 46.763 0 0 1-5.107-3.992c-1.012-.889-2.036-1.835-3.081-2.798l.001-.037c0-.34-.017-.677-.021-1.016.637.32 1.287.636 1.965.944a38.324 38.324 0 0 0 6.61 2.324c2.571.636 5.21.957 7.858.955.19 0 .386-.013.577-.016.552.027 1.084.042 1.574.042a28.133 28.133 0 0 0 3.715-.225 1.298 1.298 0 0 0 1.087-1.475 1.3 1.3 0 0 0-1.466-1.098l-.008.002a26.075 26.075 0 0 1-3.328.196c-.11 0-.23-.004-.344-.005l-.122-2.143a32.804 32.804 0 0 0 3.691-.296c.339-.054.643-.24.845-.518a1.296 1.296 0 0 0-.277-1.811 1.3 1.3 0 0 0-.962-.241l-.071.01a31.722 31.722 0 0 1-3.374.259l-.122-2.147c2.001-.138 3.446-.368 3.474-.372a1.3 1.3 0 0 0-.413-2.567l-.08.012a42.66 42.66 0 0 1-3.974.381c-.139.003-.285.012-.422.012a20.89 20.89 0 0 1-6.52-1.043 50.382 50.382 0 0 1-9.181-4.428c-.807-.454-1.632-.918-2.486-1.379a65.009 65.009 0 0 0-1.746-6.153 85.364 85.364 0 0 0 21.539-6.039 39.347 39.347 0 0 0 10.024-6.033 15.166 15.166 0 0 0 3.117-3.66 8.301 8.301 0 0 0 1.209-4.19 7.756 7.756 0 0 0-.91-3.59 8.185 8.185 0 0 0-3.756-3.657 12.208 12.208 0 0 0-5.364-1.099c-3.2.094-6.359.737-9.341 1.901a55.8 55.8 0 0 0-14.805 8.417 54.307 54.307 0 0 0-6.294 5.765 46.28 46.28 0 0 0-3.471-12.24 48.87 48.87 0 0 0-6.358-19.725l-.007-.03a1.364 1.364 0 0 0-.06-.176c-.049-.116-.077-.164-.124-.255-.339-.609-.709-1.2-1.108-1.772a38.794 38.794 0 0 0-1.522-2.065 48.014 48.014 0 0 0-5.496-6.263 51.502 51.502 0 0 0-13.849-9.378c-.001-.01.005-.02.004-.03h.001l-.002-.118a8.578 8.578 0 0 1 .588-3.086c.199-.465.474-.895.815-1.27a4.687 4.687 0 1 0-1.693-2.024 7.702 7.702 0 0 0-1.954 3.591 11.47 11.47 0 0 0-.309 1.822 68.738 68.738 0 0 0-26.151-4.807 68.472 68.472 0 0 0-26.674 5.016 13.027 13.027 0 0 0-1.983-3.5 11.005 11.005 0 0 0-3.337-2.838 10.6 10.6 0 0 0-3.331-1.117 4.663 4.663 0 1 0 .127 2.663 7.896 7.896 0 0 1 1.96.737 8.931 8.931 0 0 1 3.36 3.361 10.59 10.59 0 0 1 .827 1.76 51.39 51.39 0 0 0-13.5 9.218c-.152.145-.293.299-.443.446Zm12.21 137.085a5.807 5.807 0 0 1 1.286-1.676c.06.27.114.508.163.716a72.415 72.415 0 0 0-.432 2.588 70.93 70.93 0 0 0-.323 2.542c-.015.009-.031.016-.047.024a11.73 11.73 0 0 0-1.751 1.246c-.003-.111-.007-.221-.007-.337a11.494 11.494 0 0 1 1.111-5.103Zm10.87-3.099a7.072 7.072 0 0 1 2.796 2.434 25.398 25.398 0 0 1 3.055 5.619c.259.634.503 1.28.726 1.929a29.503 29.503 0 0 1 1.671 7.839c.006.139.009.277.009.413a8.288 8.288 0 0 1-2.646 6.251 11.392 11.392 0 0 1-7.175 2.777c-.302.018-.598.027-.888.027-1.201.019-2.396-.174-3.53-.569a7.863 7.863 0 0 1-3.994-3.288 18.171 18.171 0 0 1-2.391-7.457 7.209 7.209 0 0 1-.066-.956 5.551 5.551 0 0 1 .956-3.192 8.934 8.934 0 0 1 4.283-3.102 16.32 16.32 0 0 1 5.687-1.038 8.71 8.71 0 0 1 3.586.621 1.297 1.297 0 0 0 1.797-1.585 1.316 1.316 0 0 0-.651-.749 8.091 8.091 0 0 0-1.82-.59 29.86 29.86 0 0 0-.834-2.982c-.3-.89-.673-1.753-1.118-2.58.183.057.368.11.548.178Zm-51.12-87.235a36.876 36.876 0 0 1-9.351-5.603 12.62 12.62 0 0 1-2.59-3.017 5.71 5.71 0 0 1-.858-2.884c.009-.837.222-1.66.62-2.396A5.558 5.558 0 0 1 11.9 61.49a9.648 9.648 0 0 1 4.226-.835c2.895.095 5.752.684 8.448 1.742a50.82 50.82 0 0 1 10.51 5.433 45.24 45.24 0 0 0 3.16 15.221 82.04 82.04 0 0 1-16.749-5.147Zm14.945 28.263a.777.777 0 0 1 .25-.417c.192-.141.415-.235.65-.273.113-.024.227-.035.342-.035a2.24 2.24 0 0 1 1.095.298c.23.114.409.308.503.546.037.144.054.292.052.441a3.095 3.095 0 0 1-.378 1.442 1.677 1.677 0 0 1-.944.839.984.984 0 0 1-.29.047.775.775 0 0 1-.403-.114 1.774 1.774 0 0 1-.642-.743 2.995 2.995 0 0 1-.313-1.268V106.841a2.449 2.449 0 0 1 .078-.673Zm-10.105 6.209a4.618 4.618 0 0 1 1.78-3.332 8.848 8.848 0 0 1 5.681-1.715c.03.35.09.697.184 1.035l-1.611.432.336 1.256-.337-1.256a4.161 4.161 0 0 0-1.933 1.16c-.2-.012-.4.023-.584.102a1.3 1.3 0 0 0-.649 1.713l-.001.001.013.046c.04.188.058.38.054.572a4.502 4.502 0 0 1-.48 2.035 1.87 1.87 0 0 1-.52.626c-.195.141-.429.22-.67.225l-.004.001c-.003-.001-.058.003-.2-.105a2.713 2.713 0 0 1-.725-1.067 4.284 4.284 0 0 1-.337-1.593l.003-.136Zm1.727 8.185a.715.715 0 0 1-.237-.233 2.967 2.967 0 0 1-.45-.916 3.711 3.711 0 0 1-.118-1.021c0-.165.008-.35.019-.545.105.017.212.027.318.031l.124-.003h.008a3.845 3.845 0 0 0 1.665-.467c.034.078.07.164.104.261.14.369.217.758.227 1.153 0 .104-.007.209-.023.313a1.943 1.943 0 0 1-.598 1.029 1.425 1.425 0 0 1-.866.439l-.173-.041Zm3.099 2.501a.886.886 0 0 1-.258.263.525.525 0 0 1-.264.079l-.056.002a.693.693 0 0 1-.292-.054.839.839 0 0 1-.352-.362 2.027 2.027 0 0 1-.106-.201 4.655 4.655 0 0 0 1.052-.734c.198-.191.38-.399.545-.62l.014.055a1.204 1.204 0 0 0-.003.126 2.066 2.066 0 0 1-.28 1.446Zm.765-9.82a1.58 1.58 0 0 1 .563-1.663c.164-.126.352-.218.553-.272l2.298-.615c.205.19.43.357.672.498a3.386 3.386 0 0 0 1.708.465 3.54 3.54 0 0 0 1.061-.165 4.269 4.269 0 0 0 2.442-2.051c.067-.121.117-.247.175-.371l52.979-14.195a3.496 3.496 0 0 1 2.655.35l4.393 2.536c.037.037.076.07.117.103l9.352 5.399a3.488 3.488 0 0 1 1.377 1.943l6.119 22.838c-.838.279-1.435.517-1.666.613a11.173 11.173 0 0 0-3.557 1.311l-.165.095c-.126.075-.26.142-.382.221a8.7 8.7 0 0 0-1.191.949 6.752 6.752 0 0 0-.506.495 4.228 4.228 0 0 0-1.007 1.939 4.79 4.79 0 0 0-.088.91c-.02.883.272 1.744.827 2.432.313.37.707.663 1.152.855a3.74 3.74 0 0 0 1.501.295c.191 0 .383-.011.573-.034a3.73 3.73 0 0 0 1.146-.354c.339-.162.627-.331.889-.486.01.066.021.129.03.199.034.254.062.534.082.826L45.35 157.246a1.574 1.574 0 0 1-1.934-1.115l-11.491-42.888Zm86.57 23.705a9.325 9.325 0 0 0-.184-.939 3.542 3.542 0 0 0-.308-.828 1.669 1.669 0 0 0-1.487-.877 2.616 2.616 0 0 0-1.147.309c-.243.12-.465.248-.675.372-.165.097-.323.193-.471.274a2.406 2.406 0 0 1-.647.283 2.195 2.195 0 0 1-.269.016 1.145 1.145 0 0 1-.463-.079.546.546 0 0 1-.282-.266 1.362 1.362 0 0 1-.135-.637c.001-.128.014-.255.037-.381.003-.013.002-.025.004-.038.077-.274.222-.525.42-.729a6.515 6.515 0 0 1 1.919-1.41 8.5 8.5 0 0 1 2.511-.836c.111-.017.219-.048.322-.092l.035-.015a25.11 25.11 0 0 1 2.618-.901 17.823 17.823 0 0 1 4.681-.755 7.156 7.156 0 0 1 2.133.285 3.411 3.411 0 0 1 1.485.882c.487.549.82 1.217.966 1.936.205.95.299 1.92.278 2.892 0 .575-.021 1.172-.051 1.78a24.492 24.492 0 0 1-.597 5.483 4.478 4.478 0 0 1-.949 1.798 3.059 3.059 0 0 1-1.051.724c.365-1.003.59-2.051.669-3.115a1.298 1.298 0 0 0-1.186-1.4 1.3 1.3 0 0 0-1.405 1.181 8.66 8.66 0 0 1-.624 2.744 3.235 3.235 0 0 1-2.949 2.154 8.497 8.497 0 0 0 1.771-4.159 1.3 1.3 0 0 0-2.573-.374 5.85 5.85 0 0 1-1.282 2.992 5.352 5.352 0 0 1-3.323 1.751 2.717 2.717 0 0 1-.441.039 1.42 1.42 0 0 1-1.003-.334.853.853 0 0 1-.21-.294.856.856 0 0 1-.073-.353c.006-.246.089-.485.236-.683a.776.776 0 0 1 .314-.262c.242-.143.754-.273 1.404-.641.364-.211.69-.483.963-.804.32-.386.569-.825.738-1.297a9.34 9.34 0 0 0 .445-3.114c0-.764-.055-1.526-.164-2.282Zm13.889-2.975a12.452 12.452 0 0 0-.3-2.068 8.464 8.464 0 0 0-.339-1.051c.831-.333 1.776-.676 2.778-1.069a29.623 29.623 0 0 0 2.591-1.139 12.46 12.46 0 0 0 3.894-2.924 8.892 8.892 0 0 0 1.489-2.433c.38-.947.598-1.95.643-2.969a3.995 3.995 0 0 0-2.283-3.822 3.993 3.993 0 0 0-5.332 1.914 4.001 4.001 0 0 0-.375 1.518.885.885 0 0 1-.101.422 1.47 1.47 0 0 1-.327.376 8.124 8.124 0 0 1-2.031 1.161c-.729.32-1.591.644-2.517.994a29.952 29.952 0 0 0-4.464 1.991c-.493.288-.967.607-1.419.955l-1.049-3.914a52.102 52.102 0 0 0 19.59-13.521c1.833.82 3.555 1.87 5.125 3.123 1.394 1.08 2.82 2.349 4.321 3.723a51.704 51.704 0 0 1-19.894 18.733Zm-10.549-7.263.109.407c-.364.066-.707.146-1.05.226l-5.804-21.658.061.035a3.51 3.51 0 0 1 1.63 2.124l5.054 18.866ZM49.86 159.886a1.574 1.574 0 0 1-1.198-.158l-.793-.465 68.024-18.226a2.933 2.933 0 0 1-.116.402 1.491 1.491 0 0 1-.373.613c-.287.215-.61.377-.953.48-.083.034-.178.078-.271.119l-64.32 17.235Zm86.181 8.406a6.953 6.953 0 0 1 2.164-3.542 69.155 69.155 0 0 0-.973 4.866c-.102.042-.208.071-.308.117-.453.204-.891.438-1.311.703.086-.725.229-1.442.428-2.144Zm12.109-4.569a9.684 9.684 0 0 1 3.699 3.897 20.61 20.61 0 0 1 2.043 5.591c.163.74.311 1.546.445 2.373.282 1.66.432 3.341.448 5.025a16.532 16.532 0 0 1-.752 5.255 7.83 7.83 0 0 1-2.585 3.803 12.493 12.493 0 0 1-7.508 2.407 11.386 11.386 0 0 1-4.124-.729 6.635 6.635 0 0 1-2.857-2.015 14.035 14.035 0 0 1-2.199-4.841 22.73 22.73 0 0 1-.79-5.748c-.007-.763.054-1.526.184-2.279.073-.49.229-.964.461-1.402a7.396 7.396 0 0 1 3.38-2.958 11.187 11.187 0 0 1 4.585-.914 13.728 13.728 0 0 1 4.108.627 8.267 8.267 0 0 1 2.907 1.521 1.31 1.31 0 0 0 .941.324 1.311 1.311 0 0 0 .894-.437c.025-.028.032-.063.054-.092a1.293 1.293 0 0 0-.167-1.743 9.477 9.477 0 0 0-2.313-1.448 33.322 33.322 0 0 0-1.539-5.42 3.966 3.966 0 0 0-.974-1.44 7.017 7.017 0 0 1 1.659.643Zm-4.806-17.327c-9.844 10.002-23.996 16.214-41.403 16.219a59.532 59.532 0 0 1-27.956-6.502l5.16-1.382a82.37 82.37 0 0 0 16.71 1.567c1.362 0 2.743-.026 4.143-.076 27.619-1 47.813-13.249 56-31.054a52.825 52.825 0 0 1-12.654 21.228Zm22.378-80.134a49.964 49.964 0 0 1 9.493-4.767 25.415 25.415 0 0 1 8.449-1.743 9.65 9.65 0 0 1 4.226.835 5.557 5.557 0 0 1 2.584 2.514c.399.736.611 1.559.62 2.396a5.705 5.705 0 0 1-.857 2.884 17.072 17.072 0 0 1-5.55 5.235 60.088 60.088 0 0 1-14.733 6.446 83.633 83.633 0 0 1-13.052 2.864 60.595 60.595 0 0 0-2.978-6.57 53.328 53.328 0 0 1 11.798-10.094Zm-12.076 15.557a60.623 60.623 0 0 1 2.848 8.212 35.583 35.583 0 0 0-3.674-1.483c.452-2.218.729-4.468.826-6.73Zm-21.027 16.793a50.743 50.743 0 0 1-13.403 8.357 6.081 6.081 0 0 0-2.765-3.5l-4.258-2.458c-.087-.057-.162-.129-.253-.182l-13.61-7.857a6.097 6.097 0 0 0-4.628-.609l-36.627 9.814a48.043 48.043 0 0 1-4.639-3.566A42.552 42.552 0 0 1 37.64 66.167a46.363 46.363 0 0 1 8.855-27.542 23.362 23.362 0 0 1 5.04-4.703 15.377 15.377 0 0 1 8.614-2.813c2.131.005 4.23.51 6.13 1.475a17.72 17.72 0 0 1 5.243 4.22c2.305 2.553 4.315 5.633 7.173 8.158a17.11 17.11 0 0 0 5.074 3.153 18.965 18.965 0 0 0 7.038 1.236 17.818 17.818 0 0 0 9.412-2.643c3.95-2.382 6.955-5.853 10.135-8.803a30.076 30.076 0 0 1 4.98-3.889 16.049 16.049 0 0 1 5.916-2.17 18.933 18.933 0 0 1 2.846-.218c3.271-.005 6.479.9 9.265 2.613a22.074 22.074 0 0 1 6.432 6.15 46.513 46.513 0 0 1 7.624 25.776 42.54 42.54 0 0 1-14.797 32.446Z"/><path d="M113.595 64.68c-7.274 0-5.695 15.768.248 15.807 5.373.036 7.11-15.807-.248-15.807ZM70.26 64.691c-6.882.284-5.396 15.405.885 15.785 5.077.308 6.073-16.071-.886-15.785ZM100.868 81.891a1.298 1.298 0 0 0-1.764.515 6.447 6.447 0 0 1-2.639 2.33 9.649 9.649 0 0 1-4.432 1.116 7.94 7.94 0 0 1-3.382-.734 8.57 8.57 0 0 1-3.115-2.538 1.3 1.3 0 1 0-2.044 1.606 11.176 11.176 0 0 0 4.059 3.288c1.404.651 2.934.985 4.482.978a12.235 12.235 0 0 0 5.645-1.416 8.94 8.94 0 0 0 3.705-3.38 1.297 1.297 0 0 0-.515-1.765ZM44.89 139.116c.31 1.288.602 2.464.897 3.491.158.548.316 1.048.48 1.509l.186.701.014.047a6.32 6.32 0 0 0 7.4 4.236 8.407 8.407 0 0 0 2.29-.456c.748-.263 2.438-.742 4.528-1.301 3.146-.842 7.255-1.89 10.883-2.829 1.815-.469 3.51-.911 4.908-1.289 1.402-.378 2.494-.686 3.163-.909a7.283 7.283 0 0 0 3.568-2.479 6.268 6.268 0 0 0 1.27-3.794 6.709 6.709 0 0 0-.35-2.121c-.442-1.326-1.383-4.503-2.308-7.653l-.08-.269-2.205-8.302-.014-.047a6.237 6.237 0 0 0-4.153-4.091 6.41 6.41 0 0 0-3.504-.097l-.027.007-25.586 7.01-.037.01a6.32 6.32 0 0 0-4.387 6.063c0 .538.067 1.073.198 1.594l.005.018 2.456 9.246.406 1.705Zm8.697-17.629a8.194 8.194 0 0 0-.916 3.773c.002.848.127 1.69.369 2.503h-.002l.199.739-7.777 2.084c-.077-.285-.15-.567-.23-.853a11.948 11.948 0 0 1-.523-3.141 3.73 3.73 0 0 1 .248-1.463 2.47 2.47 0 0 1 1.05-1.161c.63-.358 1.29-.66 1.973-.901l5.61-1.58Zm-6.579 15.294c-.275-1.163-.569-2.397-.89-3.68l7.795-2.088 1.519 5.635-7.89 2.145-.534-2.012Zm6.582 9.722c-.068.002-.138.017-.205.017a5.317 5.317 0 0 1-2.674-.708 4.092 4.092 0 0 1-1.646-1.71 8.713 8.713 0 0 1-.317-.775l-.537-2.022 7.897-2.147.124.459.001-.001a8.087 8.087 0 0 0 3.8 5.122l-6.443 1.765Zm27.856-11.485.025.082c.134.388.203.796.205 1.206a3.216 3.216 0 0 1-.699 2.021 3.475 3.475 0 0 1-1.9 1.193l-.027.008-7.165 1.962a8.186 8.186 0 0 0 .985-3.91 8.859 8.859 0 0 0-.37-2.504l.003-.001-.131-.483 8.353-2.288.72 2.714Zm-9.754-2.936-1.516-5.6 8.345-2.217.715 2.435.821 3.091-8.365 2.291Zm2.779-16.072c.133.034.263.08.389.137.524.278.965.69 1.277 1.195a8.03 8.03 0 0 1 .934 2.046c.165.529.416 1.369.716 2.382l-9.54 2.535a1.3 1.3 0 0 0-.92 1.596l2.666 9.854.01.032c.175.581.265 1.185.267 1.793a5.514 5.514 0 0 1-1.133 3.389 5.355 5.355 0 0 1-3.046 1.937c-.09.025-.179.059-.262.103a6.072 6.072 0 0 1-1.668.243 5.5 5.5 0 0 1-5.409-4.273l-.01-.039-3.194-11.853-.01-.034a6.256 6.256 0 0 1-.267-1.793 5.52 5.52 0 0 1 1.133-3.39 5.358 5.358 0 0 1 3.045-1.936c.087-.024.172-.058.252-.099.448-.123.91-.187 1.376-.188a5.904 5.904 0 0 1 2.736.701 6.71 6.71 0 0 1 2.142 1.773 1.302 1.302 0 0 0 1.819.212 1.301 1.301 0 0 0 .226-1.817 9.294 9.294 0 0 0-2.733-2.325c3.433-.971 6.32-1.791 7.41-2.11a3.9 3.9 0 0 1 1.098-.173 2.586 2.586 0 0 1 .696.102Z"/></g></svg>