<svg xmlns="http://www.w3.org/2000/svg" width="200" height="200" fill="none"><path fill="#FFD93A" d="M41.125 98c.75 2.5 7.5 5.125 7.5 5.125s1.5 7.75 3.625 8.375 6.625-6 6.625-6 7.875 1.5 8.5.25-3.25-8.75-3.25-8.75l3-8.625-10.125.5-6.625-4.5L48 93.5 41.125 98ZM79.75 52.125c15.427-1.882 31.625-2.125 38.25-.25s12.375 9.375 9.375 24-12 28-29.626 29c-17.624 1-27.25-13.5-30.25-27s2-24.5 12.25-25.75Z"/><path fill="#FFD93A" d="m119.625 48.125 5.25-5-.125-7.75L133 39.25l8-1.625s-1 8.625-.625 8.625 5 7.125 5 7.125l-8.5 1.5-4.25 8.125-6-9.75-7.875-3.125.875-2ZM108.375 19.375l-4.125-6.625.875-1.875h7.75l5-5.125 2.25.875 1.625 7.25L128.125 17v2l-4.625 2.5-15.125-2.125ZM51.75 27.25l.375 1.5 6.125 2 1.75 6 7.875-5.125 8.875-.375-3-6.375 3-6.375-8.375.875-7-3.25-2.75 7.25-6.875 3.875ZM48.375 135.375 46 127.125l1.875-.375 6.25.5 5.5-4.625 2 .375.75 5.25-11.171 9.574-2.829-2.449ZM130.75 126.875l-2-4.875 1.875-.875 7 1.75 6.25-4.375 1.375 1.625.75 6.625 5.375 5.25-6.25 4.125-7.75-6.625-6.625-2.625ZM107.875 163.5l5.75 4.25 1.5 8.875L122.5 171l8.125.875-1.75-8.5 3.375-8.125-8.375.25-5.625-6.625-3 8.875-7.375 3.875v1.875ZM61.625 180.625l-6-5.875 8.25-4.125 2.375-8 6.875 5.625 7.875 1-3.5 8.75 1.875 8-7.875-1-7.375 4.625-2.5-9Z"/><path fill="#191C22" d="M175.792 153.628a2.48 2.48 0 0 0 1.233-.572c.446-.388.801-.87 1.039-1.411a4.2 4.2 0 0 0 .395-1.711 2.702 2.702 0 0 0-.318-1.315 2.23 2.23 0 0 0-1.209-1.025 10.707 10.707 0 0 0-1.766-.414 30.978 30.978 0 0 0-1.268-.176l.028-.024a237.41 237.41 0 0 0 1.665-1.494c.241-.219.453-.414.623-.573l.225-.215.184-.19a2.642 2.642 0 0 0 .671-1.764 3.258 3.258 0 0 0-.594-1.821 3.464 3.464 0 0 0-1.364-1.188c-.43-.2-.9-.303-1.374-.3a5.473 5.473 0 0 0-2.513.739c-1.136.604-2.207 1.415-3.192 2.039-.429.283-.88.533-1.348.746a2.614 2.614 0 0 1-.793.223 13.55 13.55 0 0 0-.974-2.632c-.216-.448-.463-.88-.74-1.293a4.31 4.31 0 0 0-.398-.505 2.24 2.24 0 0 0-.263-.243 1.621 1.621 0 0 0-.458-.259 5.93 5.93 0 0 0-1.884-.32 3.494 3.494 0 0 0-1.973.544 2.704 2.704 0 0 0-.86.953 3.04 3.04 0 0 0-.266.722 30.43 30.43 0 0 0-3.645-.235 19.949 19.949 0 0 0-4.228.426 36.376 36.376 0 0 0-3.195-4.062c.77-.266 1.631-.589 2.448-.957a11.56 11.56 0 0 0 2.006-1.114c.301-.213.574-.462.812-.743.284-.33.472-.731.543-1.16l.001-.005c.014-.096.021-.193.021-.289a2.673 2.673 0 0 0-.475-1.441 8.27 8.27 0 0 0-1.702-1.777 29.518 29.518 0 0 0-3.096-2.156c-.347-.214-.66-.4-.917-.55.014-.402.027-.921.027-1.512a25.374 25.374 0 0 0-.247-3.816 7.893 7.893 0 0 0-.469-1.78 3.551 3.551 0 0 0-.46-.808 2.184 2.184 0 0 0-1.803-.884 3.853 3.853 0 0 0-1.308.262c-.74.293-1.446.666-2.105 1.112a33.85 33.85 0 0 0-3.512 2.707 45.313 45.313 0 0 0-1.847-.578 30.271 30.271 0 0 0-2.317-.579c-.76-.167-1.534-.26-2.311-.278a4.418 4.418 0 0 0-1.075.117 2.34 2.34 0 0 0-1.112.6c-.26.268-.447.598-.541.96a3.426 3.426 0 0 0-.111.907c.023.735.138 1.464.342 2.171.098.37.211.744.332 1.116a9.773 9.773 0 0 0-2.403.429 7.637 7.637 0 0 0-2.171 1.073 8.002 8.002 0 0 0-.901-1.399 3.658 3.658 0 0 0-1.215-.995 9.437 9.437 0 0 0-1.592-.554 58.909 58.909 0 0 0-9.205-1.326c-1.167-.098-2.4-.182-3.657-.258l-.184-.022v-2.373a84.454 84.454 0 0 0 19.802-3.473c11.613-3.671 19.329-9.974 24.027-18.084a42.22 42.22 0 0 0 3.822-8.893c.194.098.41.144.627.135a16.704 16.704 0 0 0 2.331-.36 9.88 9.88 0 0 0 4.135-1.836c.544-.498 1-1.084 1.348-1.734a19.39 19.39 0 0 0 1.64-4.043 33.318 33.318 0 0 0 1.103-5.508c.167-1.418.253-2.846.256-4.274a24.774 24.774 0 0 0-.324-4.205 8.833 8.833 0 0 0-1.012-3.042 6.954 6.954 0 0 0-2.113-2.086c-.013-.008-.028-.015-.041-.024a8.328 8.328 0 0 0 1.651-2.86c.62-1.86 1.005-3.79 1.145-5.746.935-9.897 2.462-27.748 2.793-32.804.016-.233.023-.459.023-.678a7.128 7.128 0 0 0-.351-2.319 4.64 4.64 0 0 0-1.751-2.364 5.302 5.302 0 0 0-2.45-.87 6.187 6.187 0 0 0-.678-.038 5.103 5.103 0 0 0-3.414 1.228 5.894 5.894 0 0 0-1.833 3.99c-.408 4.228-1.752 20.545-2.621 31.182-.16-.61-.319-1.22-.499-1.82-2.811-9.429-8.229-17.578-17.346-23.27a50.212 50.212 0 0 0-10.743-4.97c.384-.257.763-.522 1.12-.8.502-.379.964-.809 1.377-1.284.202-.236.374-.496.515-.773.164-.324.253-.68.258-1.044l-.003-.107a2.153 2.153 0 0 0-.231-.85 3.45 3.45 0 0 0-.862-1.048 10.329 10.329 0 0 0-2.016-1.276 34.574 34.574 0 0 0-4.165-1.704 39.218 39.218 0 0 0-.621-3.052 16.931 16.931 0 0 0-.954-2.877 5.667 5.667 0 0 0-.735-1.218 3.003 3.003 0 0 0-.547-.523 2.142 2.142 0 0 0-1.285-.426 3.048 3.048 0 0 0-1.395.383 9.07 9.07 0 0 0-1.95 1.479 29.445 29.445 0 0 0-2.482 2.737 42.6 42.6 0 0 0-.644.818 36.92 36.92 0 0 0-4.346-.314 12.01 12.01 0 0 0-2.274.182 4.457 4.457 0 0 0-1.036.326 2.347 2.347 0 0 0-.977.81 2.22 2.22 0 0 0-.348 1.245c.009.426.082.847.215 1.252.245.738.56 1.452.939 2.132.409.758.873 1.51 1.303 2.172a126.134 126.134 0 0 0-7.36-.216 104.872 104.872 0 0 0-19.692 1.696c.04-.198.062-.398.064-.6a2.212 2.212 0 0 0-.105-.691 1.847 1.847 0 0 0-.437-.723 2.225 2.225 0 0 0-1.118-.584 4.788 4.788 0 0 0-1.049-.102c-.817.019-1.63.105-2.433.259-1.808.32-3.738.847-4.725 1.13-.44-.345-1.104-.849-1.87-1.365a18.287 18.287 0 0 0-2.173-1.28 8.288 8.288 0 0 0-1.146-.462c-.395-.13-.807-.2-1.223-.207a2.574 2.574 0 0 0-.838.133c-.47.174-.885.474-1.196.867a7.097 7.097 0 0 0-1.102 2.071 23.02 23.02 0 0 0-.895 3.338c-.072.362-.13.686-.175.952-.724.315-1.933.858-3.167 1.49a23.34 23.34 0 0 0-2.753 1.614 6.786 6.786 0 0 0-1.073.914c-.165.178-.31.374-.428.585a2.022 2.022 0 0 0-.253.843h-.003l-.001.02v.004l-.003.093c.002.31.078.614.223.888.217.387.519.72.883.972.606.417 1.26.758 1.947 1.016l.15.058a38.329 38.329 0 0 0-8.284 10.328 46.835 46.835 0 0 0-4.373 11.369c-.867-10.612-2.253-27.464-2.67-31.771A5.895 5.895 0 0 0 36.3 16.5a5.103 5.103 0 0 0-3.413-1.229 6.13 6.13 0 0 0-.679.038 5.01 5.01 0 0 0-3.167 1.487 4.8 4.8 0 0 0-1.034 1.747 7.13 7.13 0 0 0-.35 2.319c0 .218.007.444.022.678.332 5.056 1.859 22.907 2.793 32.804.132 2.457.708 4.87 1.699 7.123a7.113 7.113 0 0 0 1.38 1.952 6.432 6.432 0 0 0-1.5 1.64 8.81 8.81 0 0 0-1.011 3.042 24.73 24.73 0 0 0-.325 4.204c.003 1.429.089 2.857.257 4.276a31.49 31.49 0 0 0 1.605 7.039c.309.867.69 1.707 1.137 2.512a6.49 6.49 0 0 0 1.348 1.734 9.878 9.878 0 0 0 4.136 1.836c.743.168 1.497.287 2.257.354.012.04.021.08.034.119.5 1.615 1.093 3.2 1.777 4.748-.583.381-1.14.802-1.667 1.258-.382.33-.723.702-1.018 1.112-.333.448-.52.987-.538 1.545l.007.171a2.68 2.68 0 0 0 .672 1.497 8.088 8.088 0 0 0 2.108 1.637 29.59 29.59 0 0 0 3.723 1.764c.476.191.893.349 1.22.47.158.785.44 2.087.822 3.426.282 1.048.655 2.07 1.114 3.053.212.451.482.871.803 1.253.173.2.373.376.593.523.263.174.562.288.875.333h.005c.092.012.185.018.278.018a3.1 3.1 0 0 0 1.44-.41c.756-.439 1.455-.97 2.08-1.582.13-.121.259-.244.388-.371a41.08 41.08 0 0 0 2.753 1.767c7.44 4.348 17.249 7.116 30.019 7.989v2.204c-.692.097-1.37.223-2.041.357-.966.073-1.907.152-2.801.239-2.093.205-3.966.447-5.516.727-.776.14-1.472.29-2.082.453a9.43 9.43 0 0 0-1.591.554 3.65 3.65 0 0 0-1.215.995 7.411 7.411 0 0 0-.616.902 7.422 7.422 0 0 0-2.59-1.161 10.123 10.123 0 0 0-2.438-.291 13.57 13.57 0 0 0-4.432.822 18.195 18.195 0 0 0-.565-2.31 6.895 6.895 0 0 0-.68-1.515 3.27 3.27 0 0 0-.541-.663 2.245 2.245 0 0 0-.863-.507 2.191 2.191 0 0 0-.644-.094c-.474.013-.94.129-1.365.34a9.582 9.582 0 0 0-2.012 1.357 33.06 33.06 0 0 0-3.287 3.277 41.228 41.228 0 0 0-1.34-.242 26.689 26.689 0 0 0-4.078-.404 7.815 7.815 0 0 0-1.678.155c-.278.06-.548.154-.804.279a2.229 2.229 0 0 0-.78.632 2.31 2.31 0 0 0-.439 1.428c.008.415.068.826.18 1.225a19.243 19.243 0 0 0 1.726 3.946 38.873 38.873 0 0 0-2.437-1.206 2.757 2.757 0 0 0-.573-1.577 3.44 3.44 0 0 0-1.857-1.134 6.064 6.064 0 0 0-1.887-.175c-.175.016-.346.06-.507.13a2.773 2.773 0 0 0-.548.325 7.23 7.23 0 0 0-.84.748 13.726 13.726 0 0 0-2.134 2.869 1.87 1.87 0 0 1-.254-.078 5.601 5.601 0 0 1-1.414-.923c-.803-.664-1.669-1.558-2.614-2.338a8.609 8.609 0 0 0-1.537-1.042 4.185 4.185 0 0 0-1.899-.495c-.2 0-.401.018-.599.053-.7.136-1.341.483-1.84.993-.263.262-.48.567-.643.902a2.769 2.769 0 0 0-.28 1.198c0 .41.098.815.283 1.181.054.106.116.208.185.305.216.306.533.69.93 1.162.339.399.725.844 1.106 1.278-1.222.04-2.534.091-3.322.155-.39.03-.765.162-1.089.382-.42.298-.736.718-.906 1.204a3.704 3.704 0 0 0-.214 1.28c0 .612.123 1.218.364 1.781a3.3 3.3 0 0 0 .5.815c.238.286.539.512.88.661.131.056.271.09.414.1l.779.056c-.48.283-.951.567-1.356.834-.282.187-.532.363-.754.542a3.502 3.502 0 0 0-.325.294 1.81 1.81 0 0 0-.356.503 1.846 1.846 0 0 0-.166.783c.014.425.11.842.282 1.23.22.516.496 1.006.823 1.461.142.203.298.396.467.578.088.094.183.182.284.263a1.6 1.6 0 0 0 .562.296l.006.002c.126.035.256.053.387.052a2.01 2.01 0 0 0 .423-.05c.473-.117.938-.26 1.394-.43a111.29 111.29 0 0 0 3.56-1.354c.168.068.358.141.591.219.04.013.09.025.13.039.014.026.013.055.028.08a10.334 10.334 0 0 0 4.721 4.286 41.446 41.446 0 0 0 4.776 1.854c1.91.627 3.903.967 5.913 1.01.821.001 1.64-.083 2.445-.25a9.385 9.385 0 0 0 6.63 2.624 12.37 12.37 0 0 0 8.226-3.354 32.364 32.364 0 0 0 3.382-3.782c.524-.66 1.085-1.389 1.667-2.157a231.22 231.22 0 0 0-1.328 14.083 2.482 2.482 0 0 0-.258-.026c-.117 0-.233.01-.348.03l-.002.001a2.09 2.09 0 0 0-.853.366 3.5 3.5 0 0 0-.926 1.062 11.37 11.37 0 0 0-.986 2.33 40.332 40.332 0 0 0-1.139 4.795c-.74.219-1.89.583-3.078 1.049a16.83 16.83 0 0 0-2.839 1.383c-.423.262-.81.577-1.15.939a2.592 2.592 0 0 0-.708 1.496l-.009.197a2.94 2.94 0 0 0 .455 1.486 8.79 8.79 0 0 0 1.723 1.954 29.79 29.79 0 0 0 3.17 2.391c.404.27.76.497 1.04.673.02.795.07 2.136.211 3.536.093 1.077.276 2.145.545 3.192.124.477.307.936.544 1.367.128.227.286.435.468.62.22.224.488.395.783.501.236.081.484.122.734.12.46-.013.913-.111 1.337-.291a9.377 9.377 0 0 0 1.341-.694c.092.985.192 1.95.31 2.872a1.3 1.3 0 1 0 2.578-.326 91.103 91.103 0 0 1-.427-4.28 45.76 45.76 0 0 0 2.079-1.753c.48.171 1.148.4 1.905.631.746.227 1.575.456 2.398.632.79.182 1.596.284 2.406.303a4.45 4.45 0 0 0 1.16-.136c.447-.11.852-.347 1.168-.683a2.27 2.27 0 0 0 .503-.959c.075-.3.111-.609.108-.919a7.159 7.159 0 0 0-.114-1.163c5.277.513 10.575.759 15.876.738 6.848.017 13.692-.347 20.5-1.091 2.514-.293 4.72-.637 6.568-1.021.067-.007.133-.01.2-.017l.03-.002v-.001l.051-.004a1.24 1.24 0 0 0 .302-.098c.084-.018.181-.036.263-.055a22.218 22.218 0 0 0 2.594-.737c.024-.009.042-.019.066-.028-.118 3.862-.365 7.48-.765 10.643a1.3 1.3 0 0 0 2.58.326c.621-5.433.911-10.899.867-16.368 0-.976-.01-1.963-.024-2.954a2.536 2.536 0 0 0 1.289-.821c.236-.303.401-.655.485-1.029.075-.332.111-.672.107-1.013a10.998 10.998 0 0 0-.347-2.46 34.618 34.618 0 0 0-1.487-4.501 52.57 52.57 0 0 0 1.51-2.508c.489-.857.932-1.738 1.327-2.642.183-.422.34-.854.471-1.296.128-.417.198-.851.208-1.288a2.245 2.245 0 0 0-.369-1.293 2.294 2.294 0 0 0-.895-.742 4.678 4.678 0 0 0-1.419-.389 11.81 11.81 0 0 0-1.538-.089c-.155 0-.312.003-.47.007a212.74 212.74 0 0 0-.796-6.958 112.007 112.007 0 0 0 3.596 3.855 51.652 51.652 0 0 0 4.265 3.985 12.535 12.535 0 0 0 7.732 2.838 10.577 10.577 0 0 0 1.846-.165 16.793 16.793 0 0 0 4.813 2.837 37.029 37.029 0 0 0 6.542 1.848c.667.133 1.347.2 2.027.2a10.5 10.5 0 0 0 7.981-3.741l.106.002c.454 0 .907-.032 1.356-.095.428.155 1.434.519 2.474.885.687.242 1.387.483 1.952.668.283.093.53.172.738.232.105.03.198.055.294.078l.157.032c.088.015.177.023.267.023h.02c.169-.003.336-.034.495-.092.17-.062.333-.143.485-.24.52-.342.994-.749 1.41-1.211.234-.252.444-.526.625-.818.237-.361.368-.78.382-1.212a1.64 1.64 0 0 0-.354-1.019 3.525 3.525 0 0 0-.655-.625 15.202 15.202 0 0 0-1.438-.95l-.034-.02.339-.008.148-.012Zm-45.271-31.096a9.666 9.666 0 0 1 1.793.226c1.035.221 2.057.493 3.064.816.437.138.806.262 1.065.351l.299.105.1.036a1.304 1.304 0 0 0 1.327-.265l.046-.041a37.563 37.563 0 0 1 2.676-2.199 16.686 16.686 0 0 1 1.897-1.238c.244-.136.498-.252.76-.348a1.68 1.68 0 0 1 .207-.059c.061.13.11.265.148.404.166.644.271 1.303.314 1.967.062.763.083 1.573.083 2.287a40.897 40.897 0 0 1-.051 2.008l-.009.156a1.295 1.295 0 0 0 .675 1.225l.061.034a38.19 38.19 0 0 1 3.214 2.012c.633.435 1.229.921 1.781 1.454.146.144.278.301.396.469a3.528 3.528 0 0 1-.546.395c-.789.452-1.616.834-2.471 1.144a36.89 36.89 0 0 1-2.119.728 41.284 41.284 0 0 0-4.158-3.532 24.486 24.486 0 0 0-9.893-4.664 22.24 22.24 0 0 1-.642-1.981 6.64 6.64 0 0 1-.255-1.48c.079-.008.158-.011.238-.01Zm32.713-53.98c.201 1.242.296 2.498.285 3.756a34.494 34.494 0 0 1-.239 3.973 28.91 28.91 0 0 1-1.465 6.447c-.259.73-.577 1.437-.952 2.114a4.121 4.121 0 0 1-.773 1.042 7.504 7.504 0 0 1-3.026 1.283 15.15 15.15 0 0 1-1.69.279 71.35 71.35 0 0 0 1.902-17.282c0-2.257-.082-4.48-.246-6.668.817.176 1.619.42 2.397.726a9.904 9.904 0 0 1 1.862.958c.51.322.947.747 1.282 1.248.341.665.565 1.384.663 2.124Zm-5.829-12.638c.809-9.93 2.487-30.414 2.947-35.173a3.31 3.31 0 0 1 .965-2.29 2.504 2.504 0 0 1 1.694-.579c.131 0 .262.008.392.022a2.426 2.426 0 0 1 1.559.683c.212.233.372.51.469.81.15.477.222.976.21 1.476 0 .16-.005.329-.017.508-.326 4.982-1.855 22.866-2.787 32.73-.096 2.1-.58 4.164-1.427 6.088-.214.436-.5.834-.846 1.175-.137.129-.288.244-.449.341a18.825 18.825 0 0 0-.978-.34c-.59-.187-1.191-.34-1.799-.459a1.25 1.25 0 0 0-.339.008l.406-5Zm-50.383-40.38a18.991 18.991 0 0 1-1.073-1.99 6.475 6.475 0 0 1-.309-.807 2.219 2.219 0 0 1-.052-.215 3.25 3.25 0 0 1 .486-.1 10.993 10.993 0 0 1 1.515-.089c1.063.011 2.125.076 3.182.195a42.975 42.975 0 0 1 1.439.179l.106.016a1.302 1.302 0 0 0 1.249-.521l.039-.054a37.294 37.294 0 0 1 2.336-2.841c.512-.571 1.069-1.1 1.664-1.584.198-.16.411-.3.636-.419l.034-.014c.07.094.133.194.188.297.276.543.498 1.112.663 1.698.295 1.015.536 2.044.722 3.084a36.418 36.418 0 0 1 .234 1.41l.015.105a1.298 1.298 0 0 0 .902 1.068l.07.022c1.24.399 2.458.86 3.65 1.385.706.303 1.384.67 2.025 1.094.137.094.265.2.385.316-.082.11-.173.214-.271.311-.514.493-1.074.936-1.671 1.325-.641.436-1.328.85-1.932 1.196a82.852 82.852 0 0 0-14.526-2.504 41.018 41.018 0 0 1-1.706-2.563Zm-44.95 1.537-.344-1.002.344 1.002Zm-8.908 10.495c.525-.407 1.082-.771 1.666-1.089 1.036-.587 2.24-1.167 3.177-1.594a60.439 60.439 0 0 1 1.486-.653l.114-.047a1.298 1.298 0 0 0 .793-1.029l.008-.06c.163-1.113.392-2.216.685-3.303.171-.66.406-1.302.7-1.918.089-.185.2-.36.33-.52l.045-.044c.146.01.29.04.43.088.51.176 1 .405 1.464.682.803.471 1.577.989 2.32 1.551a31.043 31.043 0 0 1 .986.77l.07.058a1.304 1.304 0 0 0 1.217.245l.206-.062c.476-.141 1.72-.501 3.093-.82a31.86 31.86 0 0 1 2.065-.418c.55-.097 1.106-.154 1.665-.17-.188.471-.413.926-.672 1.362a30.678 30.678 0 0 1-1.64 2.49 42.895 42.895 0 0 1-.815 1.088l-.062.08a1.3 1.3 0 0 0 .016 1.632l.026.032a24.43 24.43 0 0 1 1.474 2.047c.31.475.585.97.825 1.484.123.258.215.53.275.81a2.887 2.887 0 0 1-.423.129 18.386 18.386 0 0 1-3.71.289 48.495 48.495 0 0 1-3.005-.098c-.169-.01-.256-.017-.256-.017a1.303 1.303 0 0 0-.996.355l-.054.051a54.046 54.046 0 0 1-3.02 2.63 21.648 21.648 0 0 1-2.064 1.49 6.04 6.04 0 0 1-.785.418c-.036.015-.052.018-.083.03a3.976 3.976 0 0 1-.365-.843 16.289 16.289 0 0 1-.563-2.679 26.78 26.78 0 0 1-.147-1.34l-.008-.1a1.299 1.299 0 0 0-1.016-1.18l-.067-.015a36.223 36.223 0 0 1-3.492-.993 11.385 11.385 0 0 1-1.893-.82ZM33.06 54.1c-.932-9.863-2.461-27.747-2.787-32.73v-.001a7.56 7.56 0 0 1-.018-.506c-.011-.5.06-.999.21-1.476.13-.431.401-.808.77-1.068.378-.243.81-.39 1.258-.425.13-.014.262-.022.393-.022a2.504 2.504 0 0 1 1.694.579c.606.61.952 1.43.965 2.29.306 3.168 1.155 13.338 1.925 22.698a15005.121 15005.121 0 0 1 1.438 17.594c-.787.187-1.56.426-2.316.716-.197.076-.405.178-.609.267a3.543 3.543 0 0 1-1.488-1.711 18.014 18.014 0 0 1-1.435-6.205Zm6.504 33.019a7.204 7.204 0 0 1-2.821-1.236 4.12 4.12 0 0 1-.773-1.04 16.82 16.82 0 0 1-1.403-3.488c-.48-1.66-.819-3.357-1.014-5.074a34.48 34.48 0 0 1-.239-3.975 22.188 22.188 0 0 1 .285-3.754 6.51 6.51 0 0 1 .663-2.124c.349-.518.805-.956 1.337-1.285.893-.56 1.86-.996 2.87-1.296.21-.065.404-.12.581-.168a91.06 91.06 0 0 0-.227 6.485 71.43 71.43 0 0 0 1.885 17.182 14.428 14.428 0 0 1-1.144-.227Zm15.475 20.945a17.946 17.946 0 0 1-1.879 1.757c-.224.18-.463.34-.716.476l-.04.017a1.811 1.811 0 0 1-.148-.213 9.566 9.566 0 0 1-.784-1.798 33.799 33.799 0 0 1-.933-3.414 47.282 47.282 0 0 1-.327-1.591l-.022-.12a1.296 1.296 0 0 0-.864-1.006l-.074-.026a38.953 38.953 0 0 1-3.848-1.579c-.756-.351-1.479-.77-2.16-1.252a3.16 3.16 0 0 1-.548-.5c.08-.127.175-.246.28-.354.477-.472.999-.895 1.56-1.262a32.407 32.407 0 0 1 3.005-1.785 43.827 43.827 0 0 1 1.414-.716l.106-.05a1.303 1.303 0 0 0 .748-1.195l-.001-.258a42.076 42.076 0 0 1 .229-4.426c.076-.785.224-1.561.44-2.32.05-.164.114-.323.192-.476.524.196 1.02.46 1.476.787a29.563 29.563 0 0 1 3.004 2.394 47.83 47.83 0 0 1 1.361 1.264l.102.1a1.303 1.303 0 0 0 1.316.313l.18-.057c.42-.131 1.533-.466 2.806-.764a18.03 18.03 0 0 1 3.692-.548c.257-.006.514.018.766.072.004.037.006.075.006.112a6.864 6.864 0 0 1-.376 1.84 29.187 29.187 0 0 1-1.407 3.473 43.948 43.948 0 0 1-.79 1.586l-.062.118a1.301 1.301 0 0 0 .102 1.395l.039.052c.2.272 1.148 1.577 2.024 3.034.427.697.811 1.419 1.15 2.162.132.291.243.59.335.895.04.135.07.273.086.413a3.112 3.112 0 0 1-.625.149c-.528.072-1.062.105-1.595.099a31.907 31.907 0 0 1-3.523-.237c-.51-.059-.945-.119-1.25-.163l-.355-.054-.12-.019a1.3 1.3 0 0 0-1.243.49l-.047.06c-.243.312-1.4 1.776-2.682 3.125Zm70.988-64.8-.023-.122a32.549 32.549 0 0 1-.54-5.05c-.011-.495.031-.99.127-1.475.007-.03.014-.047.021-.073.088.02.176.046.261.076.626.236 1.228.53 1.799.879 1.022.598 2.113 1.357 2.937 1.962a49.843 49.843 0 0 1 1.281.973l.095.075a1.302 1.302 0 0 0 1.36.166l.045-.02a38.557 38.557 0 0 1 2.721-1.103c.666-.239 1.378-.468 2.03-.633a7.175 7.175 0 0 1 1.62-.257c.068 0 .135.003.203.01.065.295.094.596.086.898a20.102 20.102 0 0 1-.512 3.806 38.873 38.873 0 0 1-.477 1.977c-.028.104-.043.154-.043.154a1.309 1.309 0 0 0 .329 1.272l.051.051a45.542 45.542 0 0 1 2.604 2.906 18.916 18.916 0 0 1 1.472 2.029c.158.253.296.519.412.794.014.035.017.054.028.085a1.722 1.722 0 0 1-.177.065 8.215 8.215 0 0 1-1.553.257c-.625.054-1.315.075-1.978.075a40.21 40.21 0 0 1-2.944-.113l-.251-.02a1.3 1.3 0 0 0-1.293.741l-.028.06a33.428 33.428 0 0 1-1.773 3.204 12.077 12.077 0 0 1-1.319 1.76 2.903 2.903 0 0 1-.447.393 6.165 6.165 0 0 1-1.005-1.354 29.24 29.24 0 0 1-1.663-3.414 47.647 47.647 0 0 1-.677-1.705l-.049-.132a1.3 1.3 0 0 0-.909-.821l-.076-.02a48.676 48.676 0 0 1-3.976-1.207 18.097 18.097 0 0 1-2.361-1.004 4.56 4.56 0 0 1-.701-.446 2.58 2.58 0 0 1 .164-.273c.34-.469.724-.904 1.147-1.299.726-.69 1.488-1.34 2.284-1.948a35.357 35.357 0 0 1 1.085-.809l.081-.057a1.296 1.296 0 0 0 .532-1.313Zm14.208-4.917.631-.678-.662.712.032-.034h-.001ZM61.604 56.571a1.3 1.3 0 1 1-2.032-1.622 24.39 24.39 0 0 1 2.672-2.842 1.3 1.3 0 0 1 1.747 1.925c-.862.782-1.66 1.63-2.387 2.54Zm72.453 40.484c-.25.232-.505.46-.766.685l-.002.001a28.086 28.086 0 0 1-3.906 2.795c-.3.179-.605.354-.915.525a1.296 1.296 0 0 1-1.44-.121 1.308 1.308 0 0 1-.438-1.377 1.287 1.287 0 0 1 .621-.778c.285-.157.565-.318.839-.482a25.37 25.37 0 0 0 3.546-2.535c.236-.204.467-.41.692-.618a1.305 1.305 0 0 1 1.431-.236 1.304 1.304 0 0 1 .759 1.236 1.305 1.305 0 0 1-.421.905Zm-15.001-41.779c1.155.91 2.098 2.061 2.762 3.373a20.697 20.697 0 0 1 2.13 9.472 20.332 20.332 0 0 1-1.11 6.84 10.629 10.629 0 0 1-3.66 5.176 7.606 7.606 0 0 1-4.082 1.395c-.138.007-.273.01-.407.01a7.34 7.34 0 0 1-4.161-1.255 9.344 9.344 0 0 1-2.841-3.167 18.534 18.534 0 0 1-2.105-9.008 21.509 21.509 0 0 1 1.18-7.169 11.798 11.798 0 0 1 3.714-5.488 7.427 7.427 0 0 1 4.529-1.56 6.656 6.656 0 0 1 4.051 1.381Zm-10.571 34.999a1.307 1.307 0 0 1 .835.556 1.296 1.296 0 0 1 .19.985 10.56 10.56 0 0 1-1.059 2.688 10.76 10.76 0 0 1-4.43 4.403 12.06 12.06 0 0 1-5.67 1.297 11.408 11.408 0 0 1-5.64-1.355 9.928 9.928 0 0 1-3.31-3.01 11.239 11.239 0 0 1-1.844-4.362 1.3 1.3 0 0 1 1.102-1.483 74.963 74.963 0 0 1 9.566-.598c3.44-.03 6.875.265 10.26.879ZM89.597 74.962a10.635 10.635 0 0 1-3.66 5.175 7.602 7.602 0 0 1-4.082 1.395c-.137.007-.273.01-.407.01a7.342 7.342 0 0 1-4.161-1.255 9.338 9.338 0 0 1-2.84-3.167 18.54 18.54 0 0 1-2.107-9.009 21.559 21.559 0 0 1 1.18-7.168 11.808 11.808 0 0 1 3.714-5.488 7.429 7.429 0 0 1 4.53-1.56 6.654 6.654 0 0 1 4.05 1.381 10.11 10.11 0 0 1 2.763 3.373 20.7 20.7 0 0 1 2.13 9.472 20.366 20.366 0 0 1-1.11 6.84ZM82.156 46.22a44.06 44.06 0 0 0-12.561 3.981 1.3 1.3 0 1 1-1.191-2.311 46.623 46.623 0 0 1 13.3-4.23 1.3 1.3 0 1 1 .452 2.56Zm-31.73 39.186h-.001l-.27-.727.27.727Zm19.63 29.021a46.198 46.198 0 0 1-12.085-5.72 49.634 49.634 0 0 0 1.379-1.639c1.626.238 3.266.369 4.91.394.803.013 1.606-.055 2.396-.202.375-.074.74-.194 1.084-.359.4-.188.743-.481.99-.847a2.15 2.15 0 0 0 .221-.469c.945.382 1.917.748 2.944 1.083 6.766 2.211 15.335 3.426 26.155 3.427 9.618-.001 17.457-.961 23.833-2.727 9.557-2.639 15.856-7.147 19.68-12.883 3.827-5.734 5.153-12.573 5.152-19.786a40.88 40.88 0 0 0-2.09-13.707 27.903 27.903 0 0 0-2.596-5.41 14.943 14.943 0 0 0 1.603-.183 6.143 6.143 0 0 0 1.53-.456c.257-.12.496-.274.709-.461.256-.225.454-.509.578-.827.091-.246.137-.507.135-.77a3.597 3.597 0 0 0-.316-1.373 11.575 11.575 0 0 0-1.301-2.188 40.333 40.333 0 0 0-3.253-3.837c.103-.403.235-.945.368-1.567.331-1.428.522-2.885.569-4.35a6.369 6.369 0 0 0-.144-1.45 2.733 2.733 0 0 0-.755-1.402 2.353 2.353 0 0 0-1.01-.54c-.32-.08-.65-.12-.98-.116a9.899 9.899 0 0 0-2.41.376c-1.49.417-2.948.936-4.366 1.554a49.515 49.515 0 0 0-2.392-1.721 25.414 25.414 0 0 0-2.592-1.556 10.077 10.077 0 0 0-1.292-.557 4.206 4.206 0 0 0-1.335-.254 2.128 2.128 0 0 0-1.951 1.146 4.295 4.295 0 0 0-.457 1.465 10.95 10.95 0 0 0-.102 1.578c.019 1.267.121 2.532.306 3.786.027.194.053.373.079.544-6.611-2.01-14.865-3.12-25.2-3.12-9.66 0-17.52.96-23.903 2.726-9.57 2.64-15.853 7.149-19.656 12.887-3.806 5.736-5.106 12.573-5.106 19.783-.02 2.902.234 5.799.756 8.653-.15.02-.299.057-.441.11-.484.194-.891.542-1.159.99a6.787 6.787 0 0 0-.801 2.212 26.647 26.647 0 0 0-.452 3.8c-.05.871-.069 1.644-.075 2.195-.44.22-1.037.53-1.701.9-2.915-6.757-4.089-14.68-4.088-23.395a68.495 68.495 0 0 1 2.523-19.568A37.658 37.658 0 0 1 56.375 31.51c.277.076.532.143.755.2.069.61.182 1.442.361 2.302.158.84.415 1.658.764 2.438.182.398.431.762.735 1.076a2.21 2.21 0 0 0 1.443.667h.005l.104.003a3.386 3.386 0 0 0 1.337-.325 12.412 12.412 0 0 0 2.15-1.297 47.989 47.989 0 0 0 4.065-3.383c.626.036 1.696.086 2.884.086 1.113.01 2.226-.05 3.331-.183a8.65 8.65 0 0 0 1.495-.32c.51-.144.975-.418 1.349-.795.206-.226.361-.495.455-.787.08-.255.12-.52.119-.788a5.263 5.263 0 0 0-.577-2.146 18.312 18.312 0 0 0-1.656-2.739c-.121-.17-.235-.323-.341-.466.345-.465.794-1.089 1.25-1.776.217-.328.434-.671.643-1.018a99.01 99.01 0 0 1 21.004-2.022c11.402 0 20.636 1.422 28.052 3.956 11.125 3.812 18.17 10.06 22.546 17.959 4.37 7.9 6.03 17.535 6.028 28.013a64.915 64.915 0 0 1-2.547 19.239 35.073 35.073 0 0 1-16.265 20.74c-8.559 5.01-20.769 7.936-37.814 7.934-11.36.001-20.58-1.298-27.994-3.65Zm-22.722 13.646c.302-.041.607-.059.912-.056 1.226.031 2.448.154 3.655.369.567.093 1.062.187 1.413.257.176.035.316.065.41.085l.14.03a1.298 1.298 0 0 0 1.282-.436l.042-.05c.22-.26 1.283-1.496 2.473-2.631a15.33 15.33 0 0 1 1.753-1.473c.214-.152.442-.285.68-.397l.08-.03c.056.083.104.17.146.26.23.523.409 1.068.532 1.626.124.516.225 1.069.314 1.614a25.593 25.593 0 0 0-2.784 1.666 36.305 36.305 0 0 0-7.502 7.085 21.257 21.257 0 0 0-.683-.535 1.29 1.29 0 0 0-.072-1.257l-.031-.049a41.578 41.578 0 0 1-1.651-2.85 20.128 20.128 0 0 1-.94-2.03 5.927 5.927 0 0 1-.34-1.162 1.67 1.67 0 0 1 .17-.036Zm-16.926 16.085-.031-.015a1.298 1.298 0 0 0-.784-.13l-.1.015a1.214 1.214 0 0 0-.296.08 118.432 118.432 0 0 1-3.351 1.295c-.419.153-.803.288-1.108.387a5.428 5.428 0 0 1-.437-.739c-.022-.045-.039-.086-.057-.127.606-.438 1.787-1.132 2.785-1.688a91.736 91.736 0 0 1 1.856-1.01c.252-.133.454-.345.575-.603l.185-.399a1.297 1.297 0 0 0-.494-1.652 1.297 1.297 0 0 0-.591-.192l-4.225-.306a1.312 1.312 0 0 1-.093-.237 2.03 2.03 0 0 1-.08-.558 1.257 1.257 0 0 1 .028-.29c.799-.056 2.165-.107 3.355-.144 1.302-.04 2.4-.063 2.402-.063a1.299 1.299 0 0 0 1.255-1.512 1.3 1.3 0 0 0-.318-.659c0-.001-.223-.247-.564-.629-.51-.571-1.285-1.443-1.95-2.216a46.357 46.357 0 0 1-.865-1.028 10.332 10.332 0 0 1-.268-.341l-.048-.067.023-.071a.886.886 0 0 1 .263-.298.86.86 0 0 1 .331-.162l.145-.013c.175.005.348.045.51.116.505.237.973.548 1.387.923.797.667 1.667 1.565 2.627 2.348a8.67 8.67 0 0 0 1.563 1.042c.596.31 1.255.478 1.927.49.226 0 .453-.022.675-.065.27-.052.516-.188.704-.387l.123-.132a1.3 1.3 0 0 0 .239-.36c.409-.842.933-1.623 1.557-2.32a7.95 7.95 0 0 1 .781-.791l.09-.072c.354.001.706.064 1.038.187a.612.612 0 0 1 .229.146c.01.025.02-.001.026.129l-.02.193-.006.017a3.725 3.725 0 0 1-.222.484 17.359 17.359 0 0 0-.77 1.65c-.347.893-.604 1.82-.765 2.765a7.998 7.998 0 0 1-1.764 3.364 14.635 14.635 0 0 1-1.374 1.464l-.02.017c-.076.05-.148.105-.217.165-.182.168-.35.351-.502.547-.2.247-.45.582-.783 1.057-.229.343-.55.614-.926.781a2.856 2.856 0 0 1-1.155.218 5.805 5.805 0 0 1-1.765-.316 7.278 7.278 0 0 1-.58-.22l-.15-.068Zm15.48 7.426a17.822 17.822 0 0 1-5.144-.894 38.964 38.964 0 0 1-4.474-1.739 7.696 7.696 0 0 1-2.354-1.676c.41-.068.81-.186 1.19-.351a4.747 4.747 0 0 0 1.639-1.21 5.441 5.441 0 0 0 6.13-5.165 5.444 5.444 0 0 0-.685-2.885l.015-.063c.167-1.014.474-2 .912-2.93.047-.1.093-.189.139-.281a28.219 28.219 0 0 1 6.332 3.908c1.021.844 1.9 1.846 2.603 2.968a6.462 6.462 0 0 1 .988 3.347 7.509 7.509 0 0 1-3.461 6.078 7.679 7.679 0 0 1-3.83.893Zm22.938-9.45c-1.627 2.2-3.056 4.117-4.29 5.67a30.208 30.208 0 0 1-3.086 3.467 9.778 9.778 0 0 1-6.486 2.687 7.03 7.03 0 0 1-3.835-1.093c.332-.193.65-.409.95-.646a5.454 5.454 0 0 0 3.45-9.554 9.655 9.655 0 0 0-1.106-2.732c-.47-.775-1.018-1.5-1.636-2.164a33.877 33.877 0 0 1 7.071-6.722c2.777-1.922 5.682-3.1 8.195-3.091.611-.002 1.22.07 1.814.215a4.59 4.59 0 0 1 1.92.915c.068.058.118.108.166.157-.17.455-.337.934-.5 1.449-.13-.006-.26.008-.386.041a5.63 5.63 0 0 0-3.94 5.163l-.004.212a5.62 5.62 0 0 0 2.087 4.372c.008.006.017.007.025.013-.084.491-.166.987-.247 1.494a1.276 1.276 0 0 0-.162.147Zm-2.175 21.201v-.002l-.123-.7.123.702Zm11.898 21.949a2.349 2.349 0 0 1-.335.02 9.583 9.583 0 0 1-1.863-.246 30.92 30.92 0 0 1-3.161-.889 42.031 42.031 0 0 1-1.403-.496l-.103-.039a1.3 1.3 0 0 0-1.36.264l-.05.047a44.243 44.243 0 0 1-2.861 2.42c-.637.499-1.304.955-2 1.367a5.736 5.736 0 0 1-.785.385c-.053.02-.085.026-.128.039a1.983 1.983 0 0 1-.098-.22 10.11 10.11 0 0 1-.445-1.925 35.395 35.395 0 0 1-.318-3.529 49.195 49.195 0 0 1-.047-1.622v-.122a1.304 1.304 0 0 0-.64-1.119l-.063-.037a38.243 38.243 0 0 1-3.293-2.231 14.383 14.383 0 0 1-1.831-1.623 3.693 3.693 0 0 1-.476-.626l-.034-.074c.063-.071.132-.137.207-.196a7.915 7.915 0 0 1 1.603-.941 28.2 28.2 0 0 1 3.19-1.22 40.106 40.106 0 0 1 1.507-.452l.113-.031a1.296 1.296 0 0 0 .952-1.059l.013-.08c.066-.415.395-2.367.893-4.192.207-.815.484-1.611.828-2.379.072-.155.156-.303.251-.446.049.03.102.064.159.106.515.394.99.839 1.417 1.326a34.277 34.277 0 0 1 2.192 2.712 46.222 46.222 0 0 1 .925 1.301l.068.1a1.299 1.299 0 0 0 1.245.566l.082-.01a36.005 36.005 0 0 1 3.939-.246c.817-.014 1.633.048 2.438.186.24.042.474.113.696.212l.005.003c-.015.18-.05.358-.107.53a10.4 10.4 0 0 1-.8 1.809 31.808 31.808 0 0 1-1.781 2.86 39.74 39.74 0 0 1-.883 1.23l-.067.089a1.296 1.296 0 0 0-.14 1.352l.024.051c.127.27.73 1.565 1.289 3.043.28.739.548 1.524.74 2.234.169.56.27 1.137.3 1.721 0 .031-.003.051-.004.077Zm50.94-29.38c.498-.01.995.029 1.486.115.043.009.072.019.108.028a3.368 3.368 0 0 1-.081.344 20.665 20.665 0 0 1-1.897 3.959 53.556 53.556 0 0 1-1.339 2.168l-.114.174a1.287 1.287 0 0 0-.113 1.239l.019.045a38.99 38.99 0 0 1 1.032 2.743c.224.675.439 1.401.594 2.074a8.18 8.18 0 0 1 .244 1.719 1.87 1.87 0 0 1-.031.374 2.63 2.63 0 0 1-.685.072 16.434 16.434 0 0 1-3.784-.656 36.194 36.194 0 0 1-2.031-.616l-.121-.042-.037-.013a1.291 1.291 0 0 0-1.396.352l-.049.053a46.595 46.595 0 0 1-2.769 2.756 18.55 18.55 0 0 1-1.916 1.554 5.352 5.352 0 0 1-.657.389 6.611 6.611 0 0 1-.266-1.083 32.488 32.488 0 0 1-.317-4.917c0-.335.003-.611.006-.801l.007-.291a1.294 1.294 0 0 0-.701-1.194l-.059-.032a32.4 32.4 0 0 1-3.164-1.927 12.224 12.224 0 0 1-1.744-1.434 3.049 3.049 0 0 1-.436-.55l-.028-.058.002-.004a5.164 5.164 0 0 1 1.318-1.054 25.864 25.864 0 0 1 3.34-1.666 39.976 39.976 0 0 1 1.682-.669l.13-.047a1.303 1.303 0 0 0 .844-1.007l.014-.08c.072-.409.426-2.337.947-4.159a15.67 15.67 0 0 1 .861-2.403c.09-.192.197-.376.319-.55.055.029.108.061.159.096.47.351.902.75 1.288 1.192a28.507 28.507 0 0 1 1.969 2.471 41.793 41.793 0 0 1 .821 1.188l.058.09a1.3 1.3 0 0 0 1.321.574l.121-.021a35.139 35.139 0 0 1 5.045-.495Zm-4.781-2.179a38.513 38.513 0 0 0-1.679-2.263 18.193 18.193 0 0 0-1.964-2.124 6.524 6.524 0 0 0-1.096-.808 2.877 2.877 0 0 0-1.404-.415 2.084 2.084 0 0 0-1.325.474 3.81 3.81 0 0 0-.887 1.066c-.414.741-.75 1.523-1.002 2.334a41.697 41.697 0 0 0-1.212 4.836c-.706.274-1.852.741-3.029 1.315-.953.449-1.864.981-2.724 1.589a6.266 6.266 0 0 0-1.088.995 2.747 2.747 0 0 0-.668 1.458l-.013.231c.014.522.171 1.03.454 1.469a7.792 7.792 0 0 0 1.702 1.834 25.756 25.756 0 0 0 3.087 2.124c.344.206.655.385.91.528l-.002.366a39.982 39.982 0 0 0 .225 4.458c.079.759.229 1.51.448 2.241.106.344.254.674.442.981.224.376.553.677.946.868l.543-1.181-.542 1.181c.262.118.546.178.834.176a3.215 3.215 0 0 0 1.365-.352c.743-.382 1.44-.846 2.078-1.385a40.986 40.986 0 0 0 3.578-3.37c.413.131.951.295 1.565.461 1.082.303 2.185.527 3.3.671.013.956.021 1.906.021 2.847 0 .841-.006 1.675-.018 2.5a4.588 4.588 0 0 1-1.021.483c-.937.32-1.894.577-2.865.77l-.938.068c-.176.006-.354.015-.528.015a17.564 17.564 0 0 1-5.195-.845c-2.545-.77-5.129-1.982-8.154-3.026a32.057 32.057 0 0 0-10.758-1.896 35.136 35.136 0 0 0-13.611 2.974c-1.755.693-3.378 1.362-4.969 1.87a49.512 49.512 0 0 0-.64-1.493c.387-.536.965-1.36 1.555-2.301a23.613 23.613 0 0 0 1.424-2.574c.2-.423.369-.86.508-1.307.138-.433.214-.884.223-1.339a2.495 2.495 0 0 0-.302-1.238 2.627 2.627 0 0 0-1.16-1.038 6.545 6.545 0 0 0-2.04-.543 18.265 18.265 0 0 0-2.243-.123 37.74 37.74 0 0 0-3.558.19 47.148 47.148 0 0 0-1.936-2.561 22.45 22.45 0 0 0-1.92-2.101c.394-6.662 1.05-13.211 1.89-18.868a90.065 90.065 0 0 1 2.433-11.877c.34-1.223.792-2.412 1.348-3.553a5.5 5.5 0 0 1 .603-.952c.09-.122.202-.226.33-.306.37-.163.754-.294 1.146-.391a57.014 57.014 0 0 1 8.752-1.246c.127-.011.265-.019.393-.029a17.725 17.725 0 0 0 11.254 3.967 20.823 20.823 0 0 0 7.301-1.356 16.695 16.695 0 0 0 4.74-2.663c.899.069 1.777.142 2.609.224 2.042.2 3.858.436 5.307.698.724.13 1.356.267 1.871.405.393.097.776.228 1.146.391.129.08.241.184.331.306a8.737 8.737 0 0 1 1.189 2.262c.025.062.049.133.074.197l.022.06a51.342 51.342 0 0 1 2.05 7.741c.881 4.425 1.638 9.849 2.21 15.675-.67.074-1.267.157-1.716.225Zm12.986-1.573a49.815 49.815 0 0 1-4.019-3.764 108.758 108.758 0 0 1-5.294-5.811 1.277 1.277 0 0 0-.763-.422c-.096-.609-.195-1.207-.295-1.793a5.619 5.619 0 0 0 1.958-4.256l-.004-.205v-.004a5.626 5.626 0 0 0-1.151-3.207 5.626 5.626 0 0 0-2.789-1.957 1.143 1.143 0 0 0-.21-.022 34.25 34.25 0 0 0-.3-.904 4.466 4.466 0 0 1 1.913-1.097 7.386 7.386 0 0 1 2.239-.329c3.115-.018 6.993 1.738 10.55 4.378a38.711 38.711 0 0 1 8.321 8.427c-.171.078-.345.152-.513.239a9.363 9.363 0 0 0-1.848 1.271c-.02.002-.038-.007-.058-.004a5.452 5.452 0 0 0-2.664 9.776c.198.683.48 1.34.839 1.953a9.985 9.985 0 0 1-5.912-2.269Zm21.35 6.999c-.51 0-1.019-.05-1.519-.15a28.777 28.777 0 0 1-8.124-2.677 9.876 9.876 0 0 1-3.172-2.634 6.064 6.064 0 0 1-1.217-3.73c.003-.555.06-1.108.171-1.651a6.71 6.71 0 0 1 1.237-2.843 6.965 6.965 0 0 1 3.471-2.298 15.616 15.616 0 0 1 4.764-.654c1.285.008 2.568.102 3.84.283.124.65.185 1.31.184 1.972 0 .346-.016.726-.053 1.146a6.804 6.804 0 0 0-.026.603c0 .077.016.151.019.228a5.456 5.456 0 0 0-2.455 4.547l.002.104a5.463 5.463 0 0 0 5.461 5.361l.097-.001h.006c.31-.006.619-.038.923-.096.072-.021.142-.05.209-.084.346.312.734.574 1.153.778a7.857 7.857 0 0 1-4.971 1.796Zm16.329-8.105-4.311.109a1.305 1.305 0 0 0-1.224.969c-.048.181-.056.37-.024.554l.075.432a1.308 1.308 0 0 0 .702.941l.215.109c.485.245 1.716.879 2.812 1.512.492.284.952.569 1.291.803-.2.228-.418.439-.653.63l-.06.046c-.674-.206-1.951-.651-3.036-1.036-.985-.351-1.815-.653-1.968-.708l-.061-.026a1.316 1.316 0 0 0-.779-.076 6.662 6.662 0 0 1-1.221.107 4.749 4.749 0 0 1-1.902-.348 2.364 2.364 0 0 1-.724-.494 2.263 2.263 0 0 1-.507-.828 12.931 12.931 0 0 0-.693-1.663 2.197 2.197 0 0 0-.301-.444l-.006-.006a14.304 14.304 0 0 1-.916-1.697 8.742 8.742 0 0 1-.882-3.414c0-.129.005-.253.016-.373.044-.496.063-.953.063-1.376a13.312 13.312 0 0 0-.268-2.671c-.095-.38-.167-.766-.218-1.155v-.005a.693.693 0 0 1 .061-.276l.084-.063c.149-.051.305-.074.461-.069a3.319 3.319 0 0 1 .793.108c.081.108.155.22.224.336a10.645 10.645 0 0 1 1.292 3.367c.023.143.069.281.137.409l.085.16c.128.243.331.439.579.558.459.222.963.335 1.473.333a5.592 5.592 0 0 0 2.546-.736c1.152-.605 2.23-1.418 3.212-2.044a9.973 9.973 0 0 1 1.335-.748 2.34 2.34 0 0 1 .887-.238.61.61 0 0 1 .27.054c.13.073.24.176.321.301a.714.714 0 0 1 .141.354l-.002.021-.01.013a9.449 9.449 0 0 1-.3.288c-.568.531-1.692 1.535-2.663 2.396-.972.863-1.795 1.587-1.797 1.588a1.303 1.303 0 0 0 .073 2.012c.206.156.453.247.71.262l.173.011a55.09 55.09 0 0 1 2.507.225c.539.062 1.089.137 1.569.222.354.061.674.133.901.197a1.872 1.872 0 0 1-.273.807 1.193 1.193 0 0 1-.209.26Z"/><path fill="#191C22" d="M106.629 162.184v-.002l.001-.005-.001.007Z"/></svg>