<svg width="200" height="200" viewBox="0 0 200 200" xmlns="http://www.w3.org/2000/svg"><g id="type=pointer, mode=light"><g id="Group 432527098"><path id="Vector" d="M72.1893 178.758C73.1893 188.425 121.356 187.258 120.523 178.925C119.689 170.591 109.023 116.758 115.523 73.0915C115.523 73.0915 121.354 68.6452 123.356 60.9248C124.523 56.4248 131.023 53.5915 130.189 42.5915C130.189 42.5915 128.356 44.4248 123.689 44.7581C119.023 45.0915 115.523 47.2581 115.023 50.2581C115.023 50.2581 112.689 41.5915 114.523 34.5915C116.356 27.5915 115.356 24.4248 113.356 21.4248C111.356 18.4248 112.523 16.4248 112.523 16.4248C112.523 16.4248 102.523 22.5915 101.023 38.2581C101.023 38.2581 92.6893 35.9248 89.1893 41.2581C89.1893 41.2581 81.3559 38.9248 76.3559 48.2581C71.3559 57.5915 79.0226 70.4248 79.0226 70.4248C79.0226 70.4248 67.0226 117.258 72.1893 178.758Z"/><path id="Vector_2" d="M130.112 40.4738C129.601 40.3927 129.087 40.6246 128.81 41.0621C128.501 41.5471 128.169 41.8776 127.792 42.1395C127.139 42.594 126.285 42.843 125.224 42.9983C123.638 43.2413 121.667 43.2311 119.632 43.8269C118.616 44.1278 117.582 44.5973 116.623 45.3423C116.326 45.5723 116.042 45.8374 115.763 46.1199C115.684 45.1885 115.632 44.1312 115.632 42.9261C115.632 40.4121 115.851 37.2904 116.482 33.5143C116.78 31.7281 116.909 30.2309 116.909 28.9452C116.91 27.2859 116.69 25.973 116.342 24.8944C115.818 23.2734 115.02 22.2257 114.504 21.3861C114.242 20.9631 114.042 20.5929 113.903 20.1925C113.765 19.791 113.678 19.3502 113.676 18.7435C113.676 18.1857 113.756 17.4874 113.966 16.5973C114.087 16.0815 113.882 15.5421 113.449 15.2369C113.016 14.9319 112.439 14.9204 111.994 15.2082C108.649 17.3691 105.533 20.6484 103.286 25.3679C101.828 28.4263 100.741 32.093 100.149 36.441C99.4761 36.3973 98.8074 36.3662 98.1521 36.3662C95.1482 36.3718 92.3311 36.8501 90.1133 38.3849C89.6833 38.6837 89.2905 39.037 88.9211 39.4188C88.8528 39.4066 88.791 39.376 88.7192 39.375L88.719 39.3749L88.4961 39.3732C85.9902 39.3715 83.7688 39.9513 81.8818 40.9681C79.0454 42.4941 76.9922 44.9651 75.6252 47.7784C74.2561 50.597 73.5501 53.775 73.4019 56.863C73.3872 57.1672 73.3799 57.4698 73.3799 57.77C73.3816 61.7629 74.6206 65.1504 75.8457 67.5421C76.647 69.1035 77.4395 70.2369 77.9114 70.8586C76.8088 75.4454 70.0007 105.534 70 149.468C70 159.085 70.3262 169.365 71.1118 180.186C71.1636 180.902 71.7864 181.44 72.5024 181.388C73.2185 181.336 73.7568 180.714 73.7051 179.998C72.9241 169.244 72.5999 159.026 72.5999 149.468C72.5999 125.741 74.6004 106.073 76.5991 92.3464C77.5984 85.483 78.5972 80.105 79.345 76.4475C79.719 74.6188 80.0301 73.2202 80.2471 72.2812C80.3557 71.8118 80.4407 71.4571 80.4981 71.2211C80.5557 70.9851 80.5845 70.8728 80.5847 70.8724C80.6902 70.4603 80.5862 70.0195 80.3074 69.6982L80.3076 69.6981L80.3064 69.6967C80.2786 69.6655 79.1826 68.38 78.1081 66.255C77.0278 64.1229 75.978 61.1608 75.9797 57.77C75.9797 57.5124 75.9861 57.2513 75.9988 56.9872C76.1704 53.2833 77.2703 49.443 79.3259 46.6328C80.353 45.2241 81.6079 44.0681 83.1133 43.2579C84.3044 42.6189 85.6648 42.1999 87.2212 42.0467C86.7358 43.2299 86.4514 44.5832 86.4011 46.1323C86.3774 46.8498 86.9402 47.4506 87.6579 47.4741C88.3755 47.4976 88.9761 46.9348 88.9998 46.2173C89.0491 44.7152 89.3394 43.5498 89.7854 42.6393C90.4595 41.281 91.4683 40.4219 92.8831 39.8219C94.2932 39.2303 96.1099 38.9641 98.1521 38.9662C98.707 38.9662 99.2825 38.9913 99.8657 39.0271C99.7283 40.6482 99.6477 42.345 99.6477 44.1456C99.6477 44.3271 99.6489 44.5071 99.6504 44.6855C99.6562 45.4034 100.243 45.9807 100.961 45.9749C101.679 45.9689 102.256 45.382 102.25 44.6641L102.25 44.6639C102.249 44.4879 102.248 44.3151 102.248 44.1456C102.248 36.5294 103.583 30.7871 105.633 26.4868C107.14 23.3308 109.03 20.9472 111.097 19.1409C111.146 20.1254 111.374 20.9733 111.701 21.6742C111.978 22.2723 112.3 22.7702 112.599 23.2352C113.051 23.9352 113.455 24.5596 113.767 25.4027C114.077 26.2455 114.308 27.3289 114.31 28.9452C114.31 30.0555 114.197 31.4128 113.918 33.0861C113.264 36.9949 113.032 40.2609 113.032 42.9262C113.03 49.1851 114.316 52.1299 114.391 52.2935C114.687 52.9476 115.457 53.2382 116.111 52.9424C116.765 52.6465 117.056 51.8764 116.76 51.2222L116.759 51.2207C116.73 51.1511 116.531 50.6568 116.308 49.7144C116.316 49.7002 116.331 49.6924 116.339 49.6779L116.339 49.6778C117.233 48.0731 118.213 47.2583 119.303 46.7269C120.123 46.3329 121.031 46.116 122.008 45.9745C123.473 45.7564 125.07 45.7346 126.666 45.3734C127.442 45.1946 128.223 44.9224 128.96 44.4761C128.977 44.7801 128.989 45.0982 128.989 45.4431C128.989 46.7631 128.84 48.3516 128.359 49.9951C127.878 51.6403 127.072 53.3385 125.745 54.9229C122.982 58.2252 121.932 61.5863 120.674 64.4701C120.046 65.9192 119.373 67.2581 118.438 68.4994C117.5 69.7406 116.302 70.8989 114.554 71.9881C114.223 72.1942 114.001 72.5408 113.952 72.928C113.946 72.9707 112.324 85.7624 112.324 106.052C112.324 125.384 113.796 151.524 119.551 179.933C119.694 180.636 120.38 181.091 121.083 180.949C121.787 180.806 122.242 180.12 122.1 179.417C116.388 151.227 114.924 125.252 114.924 106.052C114.924 95.9764 115.327 87.7666 115.729 82.0811C115.931 79.2382 116.132 77.0265 116.282 75.5281C116.357 74.7808 116.42 74.2114 116.463 73.8292C118.185 72.6764 119.505 71.4057 120.514 70.0639C122.189 67.8353 123.072 65.4832 124.011 63.2184C124.951 60.9443 125.935 58.7459 127.738 56.5925C129.323 54.7014 130.29 52.6592 130.855 50.7243C131.42 48.7879 131.589 46.9568 131.589 45.4431C131.588 43.0993 131.186 41.5106 131.168 41.4363C131.04 40.9346 130.623 40.5549 130.112 40.4738Z"/></g></g></svg>