<svg width="200" height="200" viewBox="0 0 200 200" xmlns="http://www.w3.org/2000/svg"><g id="type=warning, mode=dark"><g id="warning"><path id="Vector" d="M75.9513 85.1451C75.6837 85.4137 75.4151 86.2184 75.4151 86.2184C73.5382 88.0943 75.1476 90.2398 75.9513 89.9713C78.3644 89.4352 76.4874 84.8775 75.9513 85.1451Z"/><path id="Vector_2" d="M75.9509 85.1452L75.0299 84.2275C74.817 84.4469 74.7159 84.6242 74.6174 84.7953C74.4776 85.049 74.3787 85.2856 74.3043 85.4731C74.231 85.6589 74.1867 85.7912 74.1816 85.8068L75.4148 86.2184L74.4957 85.2987C73.6422 86.1391 73.2321 87.1821 73.2404 88.1227C73.2431 88.9545 73.5218 89.6755 73.9299 90.2277C74.1369 90.5048 74.3783 90.7453 74.675 90.9391C74.9713 91.1286 75.3343 91.289 75.8049 91.2934C75.9804 91.2936 76.167 91.2675 76.3482 91.2089L75.9509 89.9714L76.2331 91.2402C76.6117 91.1569 76.9741 91.0002 77.2815 90.776C77.747 90.4404 78.0581 89.9694 78.2265 89.5114C78.3979 89.0497 78.4515 88.5937 78.4525 88.1579C78.4471 87.2218 78.2083 86.3498 77.9129 85.6281C77.7611 85.2665 77.5984 84.9491 77.3919 84.6569C77.2854 84.5099 77.1718 84.3669 76.9919 84.2128C76.9005 84.1364 76.7906 84.0553 76.6345 83.9797C76.4799 83.9062 76.2689 83.8341 75.9994 83.8332C75.7984 83.8315 75.5464 83.8815 75.3219 84.0072C75.2153 84.0661 75.1157 84.141 75.0299 84.2275L75.9509 85.1452L76.5798 86.2829L75.9994 85.2328V86.433C76.166 86.4347 76.3854 86.392 76.5798 86.2829L75.9994 85.2328V86.433V85.3036L75.5101 86.3241C75.6131 86.373 75.7752 86.4321 75.9994 86.4331V85.3037L75.5101 86.3242L75.8425 85.6308L75.265 86.1525C75.2811 86.1645 75.3176 86.2258 75.5101 86.3242L75.8425 85.6308L75.265 86.1525L75.3382 86.0861L75.2617 86.1489L75.265 86.1525L75.3382 86.0861L75.2617 86.1488C75.268 86.154 75.3376 86.2541 75.4065 86.3942C75.6288 86.8195 75.8628 87.6271 75.8525 88.1579C75.8552 88.4367 75.7934 88.6171 75.7667 88.654L75.7534 88.6723L75.6685 88.7023L75.5534 88.7336L75.8048 89.5163L75.8049 88.6935L75.5534 88.7336L75.8048 89.5163L75.8049 88.6935V89.2001L76.0915 88.759C76.0821 88.756 76.0098 88.6979 75.8049 88.6935V89.2001L76.0915 88.759L76.086 88.767L76.0921 88.7592L76.0915 88.759L76.086 88.767L76.0921 88.7592C76.0783 88.7516 75.9952 88.6674 75.9389 88.548C75.8799 88.4279 75.8401 88.279 75.8404 88.1228C75.8487 87.8728 75.9087 87.5754 76.3337 87.1379C76.479 86.9924 76.5827 86.8247 76.6478 86.6298L76.6482 86.6289C76.6557 86.6059 76.7175 86.4296 76.792 86.2607L76.8966 86.0466L76.9207 86.007L76.5652 85.757L76.8718 86.0627L76.9207 86.007L76.5652 85.757L76.8718 86.0627L75.9509 85.1452L76.5798 86.2829L75.9509 85.1452Z"/><path id="Vector_3" d="M108.927 84.3395C109.195 84.607 109.731 85.4117 109.731 85.4117C111.608 87.0201 110.267 89.4332 109.463 89.4332C106.514 88.6285 108.391 84.0709 108.927 84.3395Z"/><path id="Vector_4" d="M108.927 84.3395L108.008 85.2586L108.016 85.2674C108.078 85.3334 108.263 85.5763 108.4 85.7713C108.47 85.8707 108.534 85.9628 108.579 86.0292L108.649 86.1324C108.716 86.2335 108.792 86.3194 108.885 86.3988C109.302 86.7733 109.369 87.0523 109.383 87.3785C109.387 87.6471 109.282 87.9469 109.169 88.1161L109.097 88.212L109.071 88.2386L109.262 88.4605L109.141 88.1986L109.071 88.2386L109.262 88.4605L109.141 88.1986L109.463 88.8968V88.1332C109.302 88.1339 109.197 88.1729 109.141 88.1986L109.463 88.8968V88.1332V89.4332L109.805 88.1788C109.472 88.0768 109.402 87.9865 109.305 87.8473C109.216 87.7059 109.142 87.4418 109.144 87.0963C109.14 86.6408 109.276 86.0768 109.436 85.7001C109.511 85.5136 109.597 85.3692 109.622 85.3382L109.626 85.3334L109.195 84.984L109.517 85.4298L109.626 85.3334L109.195 84.984L109.517 85.4298L108.878 84.5453V85.6273C109.247 85.6192 109.43 85.4872 109.517 85.4298L108.878 84.5453V85.6273V84.4315L108.313 85.4854C108.493 85.5848 108.716 85.63 108.878 85.6273V84.4315L108.313 85.4855L108.927 84.3395L108.008 85.2586L108.927 84.3395L109.541 83.1932C109.329 83.0772 109.074 83.0248 108.878 83.0274C108.628 83.0279 108.426 83.0909 108.275 83.159C107.992 83.2918 107.846 83.4361 107.719 83.5658C107.508 83.795 107.372 84.0167 107.238 84.266C106.859 85.0045 106.553 85.9862 106.544 87.0963C106.545 87.7672 106.667 88.504 107.081 89.1932C107.487 89.8846 108.227 90.4544 109.121 90.6874C109.238 90.7193 109.341 90.733 109.463 90.733C110.005 90.7242 110.375 90.5108 110.66 90.297C111.085 89.963 111.378 89.5489 111.609 89.0606C111.834 88.5726 111.981 88.0042 111.983 87.3785C111.996 86.3919 111.558 85.2486 110.577 84.4244L109.731 85.4117L110.812 84.6907C110.808 84.6837 110.668 84.4737 110.487 84.2206C110.396 84.0936 110.296 83.9559 110.192 83.8219C110.085 83.6861 109.986 83.5611 109.846 83.42C109.76 83.3338 109.648 83.2506 109.541 83.1932L108.927 84.3395Z"/><path id="Vector_5" d="M128.315 89.5865C140.954 84.474 157.348 81.2564 167.385 80.025C168.098 79.9373 168.604 79.2887 168.517 78.5763C168.429 77.8636 167.78 77.3573 167.068 77.4449C156.836 78.7074 140.341 81.9273 127.341 87.1761C126.675 87.4452 126.354 88.2027 126.623 88.8685C126.892 89.5343 127.65 89.8558 128.315 89.5868V89.5865Z"/><path id="Vector_6" d="M129.728 96.1495C138.258 94.1349 149.398 93.297 159.146 93.2992C162.969 93.2992 166.58 93.4266 169.737 93.6583C170.453 93.7108 171.076 93.173 171.129 92.4572C171.181 91.7411 170.643 91.118 169.927 91.0656C166.696 90.8283 163.027 90.6993 159.146 90.6993C149.246 90.7015 137.984 91.5341 129.131 93.619C128.433 93.7838 128 94.484 128.164 95.1827C128.329 95.8815 129.029 96.3146 129.728 96.1498V96.1495Z"/><path id="Vector_7" d="M130.765 103.008C133.07 102.872 135.566 102.808 138.161 102.808C148.408 102.806 160.211 103.815 167.959 105.32C168.664 105.456 169.346 104.996 169.483 104.291C169.619 103.586 169.159 102.904 168.454 102.767C160.454 101.218 148.582 100.21 138.161 100.208C135.523 100.208 132.978 100.274 130.612 100.413C129.896 100.455 129.349 101.07 129.391 101.787C129.433 102.504 130.048 103.05 130.765 103.008Z"/><path id="Vector_8" d="M58.6077 86.9166C45.3602 82.3317 28.7242 79.9479 18.4414 79.2037C17.7251 79.1522 17.1026 79.691 17.0513 80.4073C16.9997 81.1234 17.5386 81.746 18.2549 81.7975C28.3411 82.5199 44.8769 84.9056 57.7565 89.3734C58.4348 89.6083 59.1753 89.2491 59.4104 88.5707C59.6454 87.8922 59.2861 87.1517 58.6078 86.9169L58.6077 86.9166Z"/><path id="Vector_9" d="M57.0195 93.6976C50.019 92.3185 41.5715 91.7674 33.4765 91.7665C27.2033 91.7667 21.1485 92.099 16.1573 92.6508C15.4435 92.7296 14.929 93.3722 15.008 94.0858C15.0869 94.7994 15.7294 95.3141 16.4432 95.2352C21.3205 94.6954 27.2962 94.3661 33.4765 94.3663C41.4493 94.3654 49.7737 94.9174 56.5164 96.2487C57.2208 96.3876 57.9044 95.9291 58.0434 95.2247C58.1823 94.5204 57.7239 93.8368 57.0196 93.6978L57.0195 93.6976Z"/><path id="Vector_10" d="M55.7689 100.419C55.2324 100.411 54.6868 100.407 54.1332 100.407C42.5895 100.411 27.5414 102.15 18.0652 104.414C17.3668 104.581 16.9362 105.283 17.1034 105.981C17.2705 106.679 17.9721 107.11 18.6704 106.943C27.8499 104.741 42.8516 103.003 54.1332 103.007C54.6737 103.007 55.2057 103.011 55.7283 103.019C56.4461 103.03 57.0371 102.457 57.0485 101.74C57.0597 101.022 56.4868 100.431 55.7691 100.42L55.7689 100.419Z"/><path id="Vector_11" d="M37.5734 188.299C37.8177 177.137 38.7644 165.434 39.6505 156.53C40.0935 152.077 40.5212 148.324 40.838 145.685C40.9963 144.366 41.127 143.325 41.218 142.615C41.3089 141.905 41.3597 141.529 41.3598 141.528L41.3687 141.439C42.0376 131.274 43.4991 113.289 45.9957 94.5196C48.4882 75.7559 52.0332 56.1822 56.7987 42.9573L55.5755 42.5171L54.6419 43.4217L71.5326 60.8484C71.8007 61.1253 72.1741 61.2679 72.5588 61.2405C72.5616 61.2403 73.5864 61.167 75.3393 61.0565C80.5962 60.7244 92.3612 60.0606 102.183 60.0608C104.364 60.0608 106.448 60.0933 108.339 60.1695C108.705 60.1841 109.064 60.0413 109.321 59.7791C115.079 53.8873 119.967 48.9995 123.414 45.5857C125.138 43.8787 126.502 42.5403 127.434 41.6289C128.366 40.7176 128.864 40.2364 128.866 40.2349L127.962 39.3003L126.715 39.6658C126.715 39.6663 126.766 39.8416 126.866 40.1936C128.371 45.4759 140.626 89.762 144.886 143.411C144.943 144.127 145.569 144.661 146.285 144.604C147 144.547 147.535 143.921 147.478 143.205C142.907 85.6868 129.224 38.9871 129.21 38.9346C129.081 38.4969 128.736 38.1602 128.295 38.0435C127.854 37.9268 127.387 38.0484 127.059 38.3655C127.052 38.3719 119.001 46.1541 107.461 57.962L108.391 58.8707L108.443 57.5716C106.505 57.4935 104.39 57.461 102.183 57.461C88.9432 57.4615 72.3891 58.6465 72.3734 58.647L72.4661 59.9439L73.3996 59.0391L56.509 41.6124C56.1975 41.2908 55.7393 41.1519 55.3018 41.2462C54.8643 41.3404 54.5039 41.6556 54.3523 42.0767C49.4664 55.6614 45.9298 75.3182 43.4184 94.1766C40.9111 113.029 39.4464 131.057 38.7744 141.269L40.0716 141.354L38.7833 141.18C38.7807 141.205 35.4686 165.711 34.974 188.242C34.9581 188.96 35.5273 189.555 36.2452 189.571C36.963 189.586 37.5577 189.017 37.5736 188.3L37.5734 188.299Z"/><path id="Vector_12" d="M147.635 171.803C148.227 175.633 148.616 179.696 148.855 182.792C148.975 184.341 149.057 185.649 149.11 186.568C149.136 187.027 149.154 187.39 149.166 187.637C149.178 187.884 149.184 188.012 149.184 188.012C149.214 188.73 149.82 189.287 150.538 189.256C151.255 189.226 151.812 188.62 151.782 187.903C151.78 187.877 151.419 179.267 150.204 171.405C150.094 170.695 149.43 170.209 148.72 170.319C148.011 170.429 147.525 171.093 147.635 171.803Z"/><path id="Vector_13" d="M93.0644 97.1215C93.0673 97.1212 94.2115 97.0924 95.9689 97.0634C97.7264 97.0343 100.091 97.0052 102.517 97.0052C104.699 97.0052 106.931 97.0287 108.805 97.0961C109.742 97.1295 110.589 97.1742 111.287 97.2308C111.983 97.2865 112.543 97.3595 112.84 97.4264C113.085 97.4777 113.433 97.6647 113.826 98.1005C114.414 98.7452 115.032 99.91 115.467 101.45C115.906 102.991 116.176 104.901 116.176 107.048C116.179 109.912 115.697 112.403 114.987 114.122C114.636 114.981 114.226 115.641 113.845 116.055C113.459 116.476 113.139 116.625 112.926 116.654C112.216 116.761 111.727 117.423 111.834 118.133C111.941 118.843 112.603 119.332 113.313 119.226C114.29 119.077 115.109 118.526 115.763 117.811C116.746 116.727 117.461 115.221 117.977 113.393C118.487 111.566 118.775 109.412 118.776 107.048C118.774 103.895 118.257 101.152 117.379 99.0394C116.937 97.983 116.404 97.0797 115.757 96.3597C115.112 95.6451 114.329 95.0936 113.398 94.8868C112.883 94.775 112.258 94.7023 111.498 94.6395C109.234 94.4567 105.822 94.4059 102.517 94.4054C97.6255 94.4054 93.0051 94.5221 92.9988 94.5221C92.2809 94.5402 91.7137 95.1368 91.7319 95.8546C91.7499 96.5724 92.3466 97.1398 93.0645 97.1217L93.0644 97.1215Z"/><path id="Vector_14" d="M85.2442 100.035C85.9173 100.232 86.5752 100.325 87.2048 100.325C88.5787 100.327 89.7914 99.8788 90.7707 99.2501C92.2444 98.3019 93.2518 96.9796 93.9263 95.9037C94.5973 94.8246 94.9274 93.975 94.9482 93.923C95.2072 93.2533 94.8746 92.5004 94.2051 92.2413C93.5356 91.9823 92.7826 92.3148 92.5236 92.9845L92.9822 93.1617L92.5245 92.9818L92.5235 92.9842L92.9822 93.1617L92.5245 92.9818C92.5217 92.996 91.9986 94.2931 91.0403 95.4974C90.5635 96.1007 89.9828 96.6757 89.34 97.0785C88.6928 97.4828 88.0054 97.7233 87.2048 97.7252C86.829 97.725 86.423 97.671 85.9736 97.5399C85.2844 97.3385 84.5624 97.7338 84.3611 98.423C84.1597 99.1122 84.5551 99.8341 85.2443 100.036L85.2442 100.035Z"/><path id="Vector_15" d="M91.9909 103.509H91.9935C92.0324 103.505 92.1757 103.491 92.38 103.491C92.9002 103.484 93.778 103.599 94.388 104.016C94.6987 104.226 94.9629 104.492 95.1791 104.914C95.3925 105.336 95.5592 105.937 95.5657 106.822V106.814C95.5657 107.534 95.5912 108.24 95.6414 108.928C95.6935 109.644 96.3163 110.182 97.0325 110.13C97.7485 110.078 98.2868 109.455 98.2346 108.739C98.189 108.116 98.1657 107.473 98.1657 106.814V106.806C98.1588 105.599 97.9229 104.576 97.4985 103.739C96.8649 102.475 95.8158 101.719 94.8528 101.343C93.8833 100.959 92.9815 100.893 92.38 100.891C91.9529 100.891 91.6742 100.928 91.6272 100.935C90.9161 101.035 90.4213 101.693 90.5217 102.404C90.6221 103.115 91.2799 103.61 91.991 103.51L91.9909 103.509Z"/><path id="Vector_16" d="M105.262 97.8751C104.831 96.9249 104.325 96.1139 103.679 95.4811C103.355 95.1664 102.991 94.8961 102.578 94.6998C102.166 94.5038 101.7 94.3871 101.222 94.3881C100.504 94.3881 99.9219 94.9701 99.9219 95.6881C99.9219 96.4059 100.504 96.9882 101.222 96.9882C101.291 96.9889 101.359 97.0006 101.465 97.0499C101.622 97.122 101.857 97.299 102.113 97.6185C102.369 97.9359 102.641 98.3859 102.892 98.9442C103.187 99.5985 103.957 99.8898 104.612 99.5949C105.266 99.2997 105.558 98.5297 105.262 97.8754V97.8751Z"/><path id="Vector_17" d="M101.222 119.24C101.749 119.241 102.259 119.099 102.702 118.866C103.481 118.454 104.072 117.806 104.574 117.033C105.32 115.869 105.875 114.375 106.269 112.637C106.66 110.9 106.878 108.921 106.878 106.814C106.878 105.789 106.827 104.794 106.729 103.842C106.655 103.128 106.016 102.609 105.302 102.683C104.588 102.757 104.069 103.396 104.143 104.11C104.232 104.968 104.278 105.876 104.278 106.814C104.281 109.746 103.803 112.4 103.092 114.207C102.741 115.11 102.327 115.794 101.964 116.182C101.783 116.378 101.62 116.498 101.498 116.562C101.373 116.625 101.297 116.639 101.222 116.64C100.504 116.64 99.9219 117.222 99.9219 117.94C99.9219 118.658 100.504 119.24 101.222 119.24Z"/><path id="Vector_18" d="M111.34 116.807C110.439 116.861 109.401 116.882 108.346 116.882C106.633 116.882 104.876 116.827 103.55 116.77C102.888 116.743 102.333 116.715 101.944 116.694C101.556 116.673 101.338 116.659 101.337 116.659C100.621 116.614 100.003 117.159 99.9586 117.876C99.9138 118.592 100.459 119.209 101.175 119.254C101.19 119.255 104.811 119.482 108.346 119.482C109.436 119.482 110.518 119.461 111.495 119.403C112.211 119.36 112.758 118.745 112.715 118.028C112.672 117.311 112.057 116.765 111.34 116.807Z"/><path id="Vector_19" d="M88.4159 100.414L90.8456 103.095C91.3278 103.627 92.1499 103.668 92.6818 103.185C93.2137 102.703 93.2541 101.881 92.772 101.349L90.3423 98.6686C89.8601 98.1366 89.038 98.0961 88.5061 98.5782C87.9741 99.0604 87.9337 99.8827 88.4159 100.414Z"/><path id="Vector_20" d="M101.205 116.627C100.998 116.612 100.859 116.583 100.791 116.563L100.745 116.546L100.742 116.545L100.546 116.929L100.91 116.725C100.853 116.617 100.746 116.543 100.742 116.545L100.546 116.929L100.91 116.725L100.482 116.966L100.962 116.858L100.91 116.725L100.482 116.966L100.962 116.858L100.689 116.919L100.968 116.891L100.962 116.858L100.689 116.919L100.968 116.891L100.869 116.901L100.968 116.896V116.891L100.869 116.901L100.968 116.896V116.893C100.965 116.87 100.986 116.703 101.057 116.469C101.159 116.113 101.351 115.611 101.527 115.025C101.702 114.437 101.865 113.754 101.866 112.989C101.866 112.437 101.776 111.84 101.539 111.25C101.304 110.66 100.926 110.086 100.408 109.569C100.01 109.176 99.5421 108.915 99.0401 108.733C98.5371 108.552 97.9939 108.455 97.4296 108.455C96.8529 108.455 96.25 108.558 95.6688 108.814C95.0895 109.068 94.5341 109.489 94.1236 110.076C93.4944 110.963 93.292 111.87 93.1643 112.582C93.0331 113.311 92.9496 113.88 92.6571 114.544C91.4186 117.353 91.5579 116.816 88.4032 124.341C86.6579 128.507 83.7744 133.349 79.4312 137.106C75.08 140.862 69.3106 143.574 61.528 143.582C59.6187 143.582 57.5868 143.416 55.4252 143.058C54.7167 142.94 54.0473 143.419 53.9298 144.128C53.8123 144.836 54.2914 145.506 54.9999 145.623C57.2935 146.003 59.4682 146.182 61.528 146.182C69.9318 146.19 76.3955 143.184 81.133 139.071C85.8783 134.959 88.9389 129.782 90.8009 125.346C93.9569 117.82 93.7622 118.482 95.0358 115.593C95.4851 114.577 95.6028 113.691 95.7218 113.05C95.8444 112.394 95.9413 112.019 96.2504 111.572C96.377 111.394 96.5227 111.281 96.7204 111.192C96.9162 111.104 97.166 111.054 97.4296 111.055C97.6852 111.054 97.95 111.103 98.1607 111.179C98.3721 111.253 98.5238 111.359 98.5686 111.408C98.8637 111.704 99.0241 111.966 99.1245 112.215C99.2233 112.464 99.2645 112.71 99.2653 112.989C99.2688 113.499 99.1021 114.114 98.8841 114.753C98.7766 115.074 98.6597 115.401 98.5595 115.744C98.4617 116.09 98.3708 116.452 98.3677 116.893C98.3676 117.163 98.4077 117.473 98.5393 117.787C98.7306 118.266 99.1563 118.675 99.5967 118.88C100.042 119.094 100.498 119.179 101.012 119.22C101.728 119.273 102.352 118.735 102.405 118.02C102.458 117.304 101.921 116.68 101.205 116.627Z"/><path id="Vector_21" d="M111.012 118.962L111.195 118.896L111.011 118.96L111.012 118.962L111.195 118.896L111.011 118.96C111.031 119.005 111.328 119.926 111.323 120.816C111.323 121.126 111.289 121.428 111.217 121.683C111.104 122.07 110.947 122.326 110.653 122.543C110.356 122.755 109.836 122.966 108.865 122.968C108.682 122.968 108.483 122.96 108.269 122.944C107.769 122.905 107.292 123.157 107.041 123.591C106.791 124.026 106.814 124.566 107.099 124.978L107.361 124.797L107.095 124.974L107.099 124.978L107.361 124.797L107.095 124.974C107.109 124.994 107.273 125.246 107.42 125.595C107.57 125.943 107.692 126.382 107.689 126.746C107.687 127.017 107.636 127.235 107.511 127.448C107.382 127.66 107.163 127.903 106.677 128.158C106.092 128.461 105.825 129.159 106.06 129.775L106.451 129.626L106.058 129.77L106.06 129.775L106.451 129.626L106.058 129.77C106.07 129.79 106.323 130.538 106.318 131.273C106.318 131.537 106.288 131.795 106.224 132.017C106.122 132.354 105.979 132.596 105.687 132.821C105.391 133.042 104.879 133.27 103.95 133.332C103.32 133.373 102.813 133.858 102.743 134.486C101.767 143.315 97.1345 152.432 89.725 159.305C82.3132 166.179 72.167 170.821 60.0939 170.823C57.9176 170.823 55.6779 170.672 53.3789 170.355C52.6676 170.257 52.0116 170.754 51.9137 171.466C51.8157 172.177 52.3129 172.833 53.0242 172.931C55.4382 173.264 57.7971 173.423 60.0939 173.423C72.8457 173.426 83.6508 168.495 91.4938 161.21C99.339 153.923 104.265 144.294 105.328 134.773L104.036 134.629L104.12 135.927C104.981 135.87 105.729 135.699 106.371 135.412C107.338 134.989 108.04 134.272 108.422 133.503C108.811 132.733 108.917 131.95 108.918 131.273C108.911 129.936 108.516 128.932 108.49 128.849L107.275 129.312L107.873 130.466C108.709 130.036 109.347 129.451 109.745 128.778C110.146 128.107 110.291 127.384 110.289 126.746C110.285 125.816 110.015 125.037 109.767 124.471C109.515 123.905 109.27 123.548 109.238 123.501L108.168 124.24L108.068 125.536C108.343 125.557 108.609 125.568 108.865 125.568C109.766 125.568 110.554 125.434 111.238 125.161C112.266 124.76 113.015 124.005 113.411 123.194C113.814 122.382 113.921 121.55 113.922 120.816C113.916 119.326 113.48 118.158 113.458 118.08C113.214 117.404 112.469 117.054 111.793 117.298C111.118 117.542 110.768 118.287 111.012 118.963V118.962Z"/><path id="Vector_22" d="M84.7671 166.201C86.0348 170.12 88.7164 173.667 92.1075 176.27C95.5003 178.867 99.6286 180.535 103.854 180.54C106.21 180.541 108.592 180.011 110.829 178.831C112.103 178.162 113.181 177.27 114.048 176.189C115.353 174.565 116.181 172.547 116.688 170.203C117.195 167.856 117.388 165.166 117.389 162.111C117.386 154.746 116.258 145.228 115.306 133.473C115.248 132.758 114.621 132.225 113.906 132.283C113.19 132.341 112.657 132.968 112.715 133.684C113.673 145.482 114.791 155.006 114.789 162.111C114.792 166.036 114.442 169.212 113.613 171.58C113.2 172.766 112.674 173.749 112.022 174.56C111.369 175.37 110.59 176.017 109.618 176.531C107.768 177.504 105.825 177.939 103.854 177.94C100.329 177.944 96.6999 176.516 93.6891 174.206C90.6766 171.901 88.3088 168.729 87.2418 165.403C87.0215 164.72 86.2888 164.345 85.6056 164.565C84.9222 164.785 84.5469 165.518 84.7672 166.201H84.7671Z"/><path id="Vector_23" d="M111.221 133.449C110.734 148.54 108.676 161.644 105.068 170.83C103.269 175.423 101.084 179.023 98.6 181.417C96.105 183.811 93.3818 185.029 90.2173 185.038C87.5072 185.034 85.1718 184.218 83.0969 182.727C79.9917 180.494 77.5021 176.657 75.8193 171.804C74.1337 166.957 73.254 161.125 73.2552 155.018C73.2552 154.358 73.2653 153.695 73.2861 153.03C73.4064 149.035 73.9681 145.549 74.9415 143.03C75.4257 141.77 76.0093 140.757 76.6514 140.029C77.2972 139.298 77.9792 138.85 78.7482 138.625C79.4377 138.426 79.8353 137.705 79.636 137.015C79.4365 136.326 78.7158 135.928 78.0262 136.128C76.7242 136.502 75.6023 137.281 74.6992 138.312C73.3409 139.863 72.4155 141.962 71.7717 144.444C71.132 146.928 70.7847 149.808 70.6874 152.95C70.6658 153.641 70.6553 154.331 70.6553 155.018C70.66 163.492 72.2579 171.5 75.4711 177.523C77.0804 180.532 79.1047 183.052 81.5758 184.836C84.0424 186.62 86.9689 187.643 90.2173 187.638C94.092 187.647 97.5533 186.056 100.406 183.287C104.695 179.128 107.801 172.409 110.001 163.883C112.193 155.354 113.446 144.993 113.819 133.533C113.842 132.815 113.279 132.215 112.562 132.191C111.844 132.168 111.244 132.731 111.221 133.449Z"/><path id="Vector_24" d="M110.768 108.077L111.84 132.441C111.872 133.158 112.479 133.713 113.196 133.682C113.913 133.651 114.469 133.043 114.438 132.326L113.365 107.963C113.334 107.245 112.727 106.69 112.009 106.721C111.292 106.753 110.736 107.36 110.768 108.077Z"/><path id="Vector_25" d="M169.226 118.191C169.685 114.949 170.454 112.608 171.28 111.189C171.69 110.478 172.109 110.005 172.463 109.739C172.823 109.471 173.086 109.399 173.328 109.396L173.474 109.407L173.479 109.408L173.512 109.176L173.4 109.38L173.479 109.408L173.512 109.176L173.4 109.38L173.472 109.248L173.363 109.355L173.4 109.38L173.472 109.248L173.363 109.355C173.364 109.354 173.404 109.4 173.451 109.507C173.607 109.829 173.728 110.637 173.719 111.5C173.72 112.407 173.622 113.393 173.522 114.139C173.472 114.513 173.422 114.827 173.385 115.045C173.366 115.155 173.351 115.24 173.34 115.297L173.325 115.377C173.23 115.861 173.416 116.354 173.806 116.656C174.196 116.958 174.72 117.013 175.164 116.799L174.84 116.124L175.16 116.801L175.164 116.799L174.84 116.124L175.16 116.801C175.16 116.801 175.215 116.775 175.319 116.733C175.625 116.605 176.353 116.372 176.944 116.379C177.156 116.379 177.346 116.406 177.496 116.453C177.724 116.53 177.86 116.615 178.018 116.833C178.171 117.052 178.347 117.468 178.398 118.226C178.418 118.54 178.429 118.834 178.429 119.105C178.429 119.6 178.391 120.015 178.321 120.328C178.269 120.563 178.202 120.739 178.134 120.862C178.025 121.047 177.943 121.126 177.771 121.218C177.6 121.305 177.297 121.39 176.801 121.39C176.373 121.39 175.809 121.325 175.114 121.172C174.413 121.018 173.72 121.462 173.566 122.163C173.412 122.864 173.855 123.558 174.557 123.712C175.383 123.893 176.12 123.989 176.801 123.99C177.495 123.989 178.139 123.888 178.724 123.641C179.16 123.457 179.557 123.186 179.875 122.851C180.356 122.347 180.645 121.729 180.809 121.1C180.974 120.466 181.028 119.805 181.029 119.105C181.029 118.765 181.015 118.416 180.992 118.056C180.944 117.328 180.808 116.688 180.575 116.126C180.232 115.282 179.633 114.628 178.953 114.261C178.274 113.888 177.568 113.78 176.944 113.779C176.145 113.782 175.449 113.952 174.931 114.113C174.414 114.276 174.078 114.437 174.038 114.456L174.601 115.628L175.877 115.878C175.883 115.834 176.316 113.665 176.319 111.5C176.315 110.59 176.252 109.683 175.974 108.833C175.831 108.409 175.63 107.984 175.284 107.602C174.946 107.221 174.419 106.909 173.846 106.834H173.851C173.675 106.808 173.5 106.796 173.328 106.796C172.453 106.794 171.604 107.123 170.893 107.666C169.821 108.487 168.981 109.747 168.276 111.425C167.575 113.107 167.023 115.227 166.652 117.824C166.55 118.534 167.044 119.193 167.755 119.294C168.466 119.396 169.124 118.902 169.226 118.191Z"/><path id="Vector_26" d="M180.385 118.838C180.828 118.69 181.22 118.629 181.539 118.629C182.093 118.635 182.403 118.788 182.611 118.995C182.815 119.205 182.994 119.547 183 120.209L182.998 120.339V120.328C182.976 120.952 182.886 121.43 182.769 121.777C182.588 122.303 182.38 122.526 182.174 122.671C181.966 122.811 181.698 122.892 181.322 122.893C181.238 122.893 181.146 122.889 181.046 122.879L181.053 122.88C180.586 122.833 180.233 122.594 179.953 122.309C179.817 122.17 179.712 122.027 179.647 121.928L179.581 121.819L179.571 121.802L179.095 122.051L179.577 121.815L179.571 121.802L179.095 122.051L179.577 121.815C179.262 121.17 178.483 120.903 177.838 121.219C177.193 121.534 176.926 122.313 177.242 122.958C177.283 123.037 177.534 123.548 178.088 124.121C178.633 124.686 179.537 125.34 180.794 125.467H180.8C180.968 125.484 181.142 125.493 181.322 125.493C181.834 125.493 182.365 125.415 182.883 125.215C183.661 124.922 184.38 124.321 184.842 123.494C185.309 122.666 185.551 121.65 185.596 120.422L185.597 120.412L185.6 120.209C185.605 119.034 185.226 117.937 184.46 117.167C183.699 116.392 182.629 116.024 181.539 116.029C180.896 116.03 180.234 116.148 179.563 116.372C178.881 116.599 178.513 117.335 178.741 118.016C178.968 118.698 179.704 119.066 180.386 118.839L180.385 118.838Z"/><path id="Vector_27" d="M180.725 124.886C180.907 125.599 180.98 126.25 180.98 126.845C180.98 128.29 180.547 129.419 180.114 130.196C179.898 130.584 179.683 130.879 179.529 131.07C179.452 131.165 179.391 131.234 179.353 131.275L179.315 131.316L179.311 131.32L179.804 131.818L179.317 131.313L179.311 131.32L179.804 131.818L179.317 131.313C178.8 131.811 178.785 132.634 179.283 133.151C179.78 133.669 180.603 133.684 181.121 133.186C181.187 133.121 181.785 132.536 182.385 131.463C182.983 130.394 183.581 128.82 183.58 126.845C183.58 126.036 183.48 125.164 183.244 124.242C183.066 123.546 182.358 123.127 181.662 123.305C180.967 123.483 180.547 124.191 180.725 124.886Z"/><path id="Vector_28" d="M146.958 144.952C151.99 143.139 156.221 140.389 159.433 137.166C162.643 133.941 164.842 130.242 165.765 126.494C166.162 124.856 166.545 122.95 167.274 121.423C167.636 120.66 168.074 120.002 168.609 119.494C169.147 118.986 169.775 118.612 170.626 118.396C171.186 118.256 171.651 118.203 172.027 118.203C172.817 118.208 173.205 118.419 173.424 118.604C173.644 118.788 173.706 119.01 173.706 119.065L173.71 119.197C173.707 119.559 173.621 119.813 173.468 120.065C173.242 120.436 172.804 120.79 172.288 121.044C171.78 121.299 171.205 121.448 170.875 121.487C170.163 121.576 169.658 122.227 169.747 122.939C169.837 123.652 170.487 124.156 171.2 124.067C172.055 123.952 173.183 123.625 174.25 122.9C174.778 122.535 175.288 122.06 175.676 121.437C176.065 120.817 176.313 120.041 176.31 119.197C176.31 119.099 176.307 118.998 176.3 118.896C176.244 118.093 175.859 117.277 175.124 116.637C174.39 115.997 173.318 115.598 172.027 115.603C171.406 115.603 170.731 115.69 169.995 115.874C168.713 116.192 167.646 116.818 166.817 117.61C165.57 118.801 164.842 120.309 164.33 121.778C163.822 123.25 163.525 124.717 163.24 125.874C162.457 129.069 160.519 132.393 157.591 135.331C154.664 138.27 150.756 140.821 146.077 142.506C145.402 142.749 145.051 143.494 145.295 144.17C145.538 144.845 146.283 145.196 146.958 144.952Z"/><path id="Vector_29" d="M178.92 132.137C178.48 142.119 175.07 150.201 169.705 156.51C164.338 162.815 156.983 167.344 148.638 170.045C147.955 170.266 147.58 170.999 147.801 171.682C148.022 172.365 148.756 172.74 149.439 172.519C158.163 169.695 165.952 164.929 171.685 158.196C177.419 151.467 181.064 142.767 181.518 132.25C181.549 131.533 180.993 130.926 180.275 130.895C179.558 130.864 178.951 131.42 178.92 132.138V132.137Z"/></g></g></svg>