<svg xmlns="http://www.w3.org/2000/svg" width="200" height="200" fill="none"><g fill="#BEBEC9"><path d="M102.488 88.292c-.818.285-1.639.58-2.463.886a1.3 1.3 0 1 0 .906 2.437c.805-.3 1.609-.589 2.412-.868a1.298 1.298 0 0 0 .793-1.653 1.3 1.3 0 0 0-1.648-.802Z"/><path d="M199.25 74.085a5.198 5.198 0 0 0-.387-1.934 4.255 4.255 0 0 0-1.914-2.108 6.155 6.155 0 0 0-2.965-.674c-.423.003-.845.033-1.263.09a4.482 4.482 0 0 0-1.439-1.77 5.074 5.074 0 0 0-2.971-.866 8.145 8.145 0 0 0-1.622.18 8.332 8.332 0 0 0-2.262.74c-.535.237-1.053.51-1.549.821a5.513 5.513 0 0 0-1.143-.543 7.058 7.058 0 0 0-2.27-.352c-1.966.052-3.89.59-5.599 1.565a11.194 11.194 0 0 0-2.274 1.644c-.03.028-.057.059-.086.088a87.092 87.092 0 0 0-8.886-19.075 59.35 59.35 0 0 0-21.026-20.384c-8.615-4.833-18.859-7.496-30.785-7.494-.366 0-.735.002-1.104.007h-.002a11.436 11.436 0 0 0-4.646-3.734 17.96 17.96 0 0 0-7.155-1.52 17.496 17.496 0 0 0-9.061 2.572 23.26 23.26 0 0 0-7.387 7.343C63.357 34.498 51.21 45.054 43.688 58.204c-7.574 13.226-10.52 29.009-10.522 45.275.001 4.841.27 9.726.75 14.604l-.423-.039c-.359-.245-1.317-.895-2.441-1.622a71.36 71.36 0 0 0-2.214-1.381c-.64-.391-1.3-.746-1.978-1.063a5.506 5.506 0 0 0-2.2-.445 4.64 4.64 0 0 0-2.594.723 3.203 3.203 0 0 0-1.023 1.109 3.269 3.269 0 0 0-.393 1.587c0 .08.01.162.015.243a85.331 85.331 0 0 0-2.037-.029 32.758 32.758 0 0 0-6.362.483 8.58 8.58 0 0 0-2.206.732 3.51 3.51 0 0 0-1.555 1.461 3.755 3.755 0 0 0-.422 1.735c.006.523.105 1.04.293 1.528a9.878 9.878 0 0 0-2.512.745 5.278 5.278 0 0 0-1.811 1.339 3.764 3.764 0 0 0-.893 2.18 3.758 3.758 0 0 0 .673 2.459c.096.127.198.249.306.365a5.227 5.227 0 0 0-1.02.648 4.147 4.147 0 0 0-1.148 1.541 4.673 4.673 0 0 0-.36 1.853c.002.327.028.654.078.977a4.297 4.297 0 0 0 1.642 2.679 15.311 15.311 0 0 0 5.97 2.448c3.699.875 8.38 1.448 13.18 2.168a80.826 80.826 0 0 1 13.74 2.97c.893.306 1.807.646 2.74 1.011.014.005.028.002.042.007.83 3.26 1.723 6.469 2.674 9.599-.634.192-1.254.428-1.855.706a15.73 15.73 0 0 0-4.25 2.837 8.574 8.574 0 0 0-1.561 1.985 5.045 5.045 0 0 0-.672 2.436c.002.759.202 1.504.578 2.163a6.418 6.418 0 0 0 1.685 1.887 42.745 42.745 0 0 0 13.839 7.008 47.372 47.372 0 0 0 13.497 2.096 25.919 25.919 0 0 0 6.43-.709c.83-.207 1.633-.509 2.393-.9a5.27 5.27 0 0 0 1.75-1.418 8.789 8.789 0 0 0 1.368-3.957c.246-1.879.357-3.774.331-5.67 0-2.416-.12-5.151-.291-8.063a31.006 31.006 0 0 0 7.532-1.538c.24-.085.448-.241.598-.446a40.804 40.804 0 0 0 9.723 11.261 13.922 13.922 0 0 0-1.307 1.861 12.469 12.469 0 0 0-1.666 6.199 12.71 12.71 0 0 0 3.949 9.137 14.863 14.863 0 0 0 10.484 3.991 19.29 19.29 0 0 0 2.136-.121h.001c5.003-.558 8.678-2.459 11.079-4.945a12.476 12.476 0 0 0 3.204-5.745c.401.011.802.024 1.206.024a46.493 46.493 0 0 0 14.511-2.348 52.311 52.311 0 0 0 19.261-10.746 19.441 19.441 0 0 0 8.719 1.964 24.986 24.986 0 0 0 10.295-2.28 17.056 17.056 0 0 0 7.137-5.654 9.785 9.785 0 0 0 1.738-5.412 8.892 8.892 0 0 0-1.224-4.457 12.632 12.632 0 0 0-5.353-4.831 17.727 17.727 0 0 0-7.925-1.819c-.368 0-.739.013-1.112.035.165-.939.298-1.88.4-2.822.585.066 1.173.1 1.762.102a21.224 21.224 0 0 0 5.943-.913 13.262 13.262 0 0 0 5.426-2.964 11.641 11.641 0 0 0 3.375-6.054c.192-.862.315-1.738.368-2.62.049-.748.048-1.365.062-1.707.004-.112.007-.224.007-.336a9.638 9.638 0 0 0-2.018-5.805 9.963 9.963 0 0 0-4.945-3.465c-.045-2.218-.13-4.415-.253-6.592a1.28 1.28 0 0 0 .392-.193 42.025 42.025 0 0 0 11.045-12.46c2.312-3.965 3.72-7.594 5.563-10.61a45.542 45.542 0 0 0 3.499-6.595c.253-.62.449-1.262.586-1.918.091-.46.137-.929.135-1.398l-.002-.19Zm-176 42.867a.666.666 0 0 1 .072-.335.772.772 0 0 1 .398-.314c.299-.118.619-.176.94-.17.394-.003.784.073 1.148.223h.001c.583.276 1.15.584 1.701.921.164.097.336.203.505.307-1.668-.124-3.237-.22-4.721-.291a1.747 1.747 0 0 1-.044-.341Zm-7.691 21.91a48.21 48.21 0 0 1-8.304-1.817 7.963 7.963 0 0 1-2.284-1.171 1.707 1.707 0 0 1-.712-1.057 3.84 3.84 0 0 1-.047-.582 2.083 2.083 0 0 1 .15-.829 1.75 1.75 0 0 1 .834-.849 6.058 6.058 0 0 1 2.27-.597c.079-.014.155-.036.23-.065a25.105 25.105 0 0 1 5.057.138c.386.051.688.102.888.138l.223.044.052.011.008.002a1.298 1.298 0 0 0 1.549-.978 1.3 1.3 0 0 0-.966-1.556 24.18 24.18 0 0 0-4.964-.467c-.672 0-1.397.027-2.158.086a3.96 3.96 0 0 1-.881-.455 2.122 2.122 0 0 1-.563-.554 1.134 1.134 0 0 1-.191-.646l.003-.104c.016-.255.118-.499.288-.69a3.567 3.567 0 0 1 1.67-.946c.934-.27 1.902-.415 2.875-.429.133-.005.265-.03.391-.075 1.18-.124 2.618-.169 3.86-.168a70.59 70.59 0 0 1 2.858.061 1.3 1.3 0 0 0 .126-2.597c-.014 0-1.315-.064-2.984-.064a44.071 44.071 0 0 0-3.73.143 3.598 3.598 0 0 1-.13-.22 2.172 2.172 0 0 1-.294-.992 1.142 1.142 0 0 1 .132-.542c.114-.156.269-.277.447-.349a8.512 8.512 0 0 1 2.675-.68 37.882 37.882 0 0 1 4.69-.24c4.045-.001 9.372.371 15.573.954a191.931 191.931 0 0 0 4.054 22.736c-.396-.145-.798-.304-1.19-.439-6.587-2.253-14.832-3.113-21.505-4.155Zm100.021 41.224c-1.946 2.007-4.995 3.659-9.501 4.169a16.76 16.76 0 0 1-1.847.105 12.26 12.26 0 0 1-8.68-3.263 10.12 10.12 0 0 1-3.153-7.265 9.861 9.861 0 0 1 1.324-4.91 12.87 12.87 0 0 1 4.307-4.39 2.61 2.61 0 0 1 1.481-.441 5.028 5.028 0 0 1 1.6.311c1.081.409 2.133.888 3.151 1.433a32.95 32.95 0 0 0 3.939 1.747c2.824.983 5.377 1.604 7.181 2.293.732.25 1.424.606 2.052 1.056.37.257.637.638.753 1.073a6.87 6.87 0 0 1 .185 1.61 9.45 9.45 0 0 1-2.792 6.472Zm19.98-8.732a43.904 43.904 0 0 1-13.702 2.219c-.298 0-.593-.011-.889-.017a9.535 9.535 0 0 0-.254-2.162 4.52 4.52 0 0 0-1.67-2.504 13.918 13.918 0 0 0-4.361-2.003c-1.696-.539-3.614-1.057-5.627-1.76a43.426 43.426 0 0 1-4.792-2.195 20.163 20.163 0 0 0-2.319-.993 7.573 7.573 0 0 0-2.435-.448 5.233 5.233 0 0 0-2.89.856c-.715.467-1.395.986-2.035 1.554-7.334-5.886-12.022-13.66-12.639-20.741a41.326 41.326 0 0 1-.166-3.669 32.904 32.904 0 0 1 7.259-21.129c4.907-6.107 12.419-11.209 22.823-14.836a63.365 63.365 0 0 1 20.794-3.8c8.526 0 15.635 2.166 20.975 5.652a24.266 24.266 0 0 1 10.421 13.631 50.755 50.755 0 0 1 1.933 13.674 38.514 38.514 0 0 1-6.607 22.225c-4.718 6.794-12.275 12.664-23.819 16.446Zm33.457-28.164a14.456 14.456 0 0 1 8.527 2.625 9.102 9.102 0 0 1 2.498 2.723c.567.957.869 2.047.877 3.159a7.19 7.19 0 0 1-1.308 3.98 14.555 14.555 0 0 1-6.055 4.724 22.411 22.411 0 0 1-9.207 2.042 17.213 17.213 0 0 1-6.732-1.305 38.366 38.366 0 0 0 9.739-17.856 16.46 16.46 0 0 1 1.661-.092Zm12.147-24.106a7.05 7.05 0 0 1 1.484 4.227l-.005.236c-.021.572-.014 1.364-.117 2.328a10.58 10.58 0 0 1-1.591 4.749 9.663 9.663 0 0 1-5.655 3.872c-1.69.516-3.446.788-5.213.808-.519 0-1.037-.031-1.552-.092.044-.845.071-1.688.071-2.529a53.288 53.288 0 0 0-2.031-14.378 26.866 26.866 0 0 0-11.502-15.104 39.011 39.011 0 0 0-18.099-5.872 11.341 11.341 0 0 0 1.99-2.083 10.648 10.648 0 0 0 2.102-6.248 8.052 8.052 0 0 0-1.833-5.276 6.726 6.726 0 0 0-1.665-1.408c.511-.28 1.004-.592 1.476-.934a17.577 17.577 0 0 0 6.01-8.445 32.578 32.578 0 0 0 1.765-10.986c0-3.397-.422-6.78-1.256-10.073a26.595 26.595 0 0 0-3.451-8.158 1.299 1.299 0 0 0-2.154 1.456 24.065 24.065 0 0 1 3.087 7.35 38.453 38.453 0 0 1 1.174 9.425 26.912 26.912 0 0 1-2.905 12.95 13.443 13.443 0 0 1-3.795 4.375 12.043 12.043 0 0 1-5.614 2.17c-2.39.312-6.145.715-10.648 1.62a1.301 1.301 0 0 0 .511 2.548c4.382-.88 8.035-1.273 10.473-1.59.426-.055.828-.15 1.236-.236.069.024.14.041.213.052a4.725 4.725 0 0 1 3.569 1.576 5.458 5.458 0 0 1 1.207 3.584 8.061 8.061 0 0 1-1.598 4.71 9.39 9.39 0 0 1-4.948 3.394c-.03.01-.05.032-.079.043a66.484 66.484 0 0 0-20.814 3.926c-10.746 3.745-18.712 9.09-23.994 15.662a35.525 35.525 0 0 0-7.832 22.758c0 1.285.059 2.585.176 3.9.32 3.15 1.201 6.217 2.6 9.058a1.235 1.235 0 0 0-.315.037 28.373 28.373 0 0 1-6.886 1.414c-.427-6.411-1.027-13.47-1.222-19.897-.01-.329-.015-.661-.015-.995-.009-7.536 2.54-16.385 5.29-26.204.397-1.416.794-2.859 1.19-4.315a76.957 76.957 0 0 1 13.104-7.619 1.3 1.3 0 1 0-1.096-2.358 83.312 83.312 0 0 0-10.987 6.113 121.524 121.524 0 0 0 4.057-24.036 1.3 1.3 0 0 0-2.597-.134c-.577 11.23-3.432 21.844-6.174 31.65-2.735 9.809-5.377 18.794-5.386 26.903 0 .36.005.718.016 1.074.32 10.466 1.677 22.455 1.674 30.476a37.203 37.203 0 0 1-.302 5.286 6.576 6.576 0 0 1-.87 2.772 2.738 2.738 0 0 1-.9.692c-.961.466-1.987.784-3.042.944a26.264 26.264 0 0 1-4.558.36 44.859 44.859 0 0 1-12.74-1.983 40.16 40.16 0 0 1-12.996-6.571 3.84 3.84 0 0 1-1.017-1.109 1.775 1.775 0 0 1-.246-.891 2.88 2.88 0 0 1 .634-1.63 10.193 10.193 0 0 1 3.076-2.608 13.23 13.23 0 0 1 2.8-1.247c.451 1.426.91 2.84 1.38 4.23a1.303 1.303 0 0 0 1.646.812 1.3 1.3 0 0 0 .816-1.645c-6.01-17.753-10.527-38.594-10.524-58.491-.002-15.96 2.902-31.29 10.177-43.983 7.282-12.69 18.89-22.803 36.61-28.444.218-.075.41-.208.558-.385.16-.098.295-.23.398-.387a20.762 20.762 0 0 1 6.67-6.714 14.889 14.889 0 0 1 7.722-2.2c2.109.01 4.193.455 6.122 1.306a9.03 9.03 0 0 1 3.95 3.357c1.527 2.223 2.519 5.29 3.637 8.632a45.43 45.43 0 0 0 3.611 8.529 34.932 34.932 0 0 1-4.517.301 24.327 24.327 0 0 1-6.499-.806 12.311 12.311 0 0 1-5.624-3.159c-.014-.014-.033-.019-.048-.033l-.238-1.973a1.3 1.3 0 1 0-2.582.311l.527 4.358a29.342 29.342 0 0 1-3.317-1.895 16.195 16.195 0 0 1-3.353-2.876 5.877 5.877 0 0 1-1.53-3.248 1.3 1.3 0 1 0-2.593.208 8.528 8.528 0 0 0 2.246 4.845 22.485 22.485 0 0 0 6.117 4.638 32.2 32.2 0 0 0 3.531 1.67 1.3 1.3 0 0 0 1.755-1.37l-.117-.971a16.48 16.48 0 0 0 4.521 1.997c2.349.626 4.773.93 7.204.904 2.329.005 4.654-.219 6.94-.667a1.302 1.302 0 0 0 .787-2.014c-2.719-3.878-3.949-8.557-5.472-12.852a34.633 34.633 0 0 0-1.654-3.938c11.324.074 20.932 2.623 29.016 7.154 12.296 6.897 21.135 18.422 26.925 33.044 5.787 14.616 8.489 32.3 8.488 51.309l-.001.365a1.3 1.3 0 0 0 2.6.004l.001-.369c0-.436-.013-.866-.016-1.301a7.408 7.408 0 0 1 2.845 2.258Zm15.402-43.913c-.204 1.079-1.012 3.173-3.754 7.663-2.004 3.301-3.391 6.9-5.588 10.65a39.143 39.143 0 0 1-9.383 10.896 140.687 140.687 0 0 0-5.37-30.42c.227-.453.536-.86.913-1.199a9.417 9.417 0 0 1 2.802-1.766 8.767 8.767 0 0 1 3.279-.726c.487-.007.971.065 1.434.214.013.004.023.011.036.016-.202.228-.4.457-.578.683a17.553 17.553 0 0 0-1.836 2.874 1.296 1.296 0 0 0 .574 1.747 1.3 1.3 0 0 0 1.746-.574 14.648 14.648 0 0 1 2.375-3.38 8.979 8.979 0 0 1 1.991-1.588c.102-.058.207-.107.311-.159.114-.05.226-.103.342-.148.431-.171.875-.306 1.328-.402.129-.02.257-.045.39-.057.028-.002.05-.018.078-.023.217-.03.436-.047.655-.049a2.495 2.495 0 0 1 1.468.388c.237.178.428.41.559.675a8.948 8.948 0 0 0-1.517 1.434 27.072 27.072 0 0 0-2.285 3.321 1.298 1.298 0 0 0 1.413 1.943c.335-.08.624-.291.805-.585h-.001a24.762 24.762 0 0 1 2.053-2.998 4.681 4.681 0 0 1 1.858-1.468c.026-.01.043-.03.068-.042a8.08 8.08 0 0 1 1.252-.122 3.05 3.05 0 0 1 2.05.585c.19.165.338.373.433.605.122.31.185.64.184.974l.001.142c.002.3-.027.6-.086.896Z"/><path d="M127.81 107.474a7.2 7.2 0 0 0-2.88-2.425c-.157-.072-.308-.118-.462-.176a1.291 1.291 0 0 0-1.959-1.679l-.001-.001-.076.073c-.44.396-.935.726-1.471.979a7.22 7.22 0 0 1-3.178.712 9.204 9.204 0 0 1-2.686-.42c-.164-.049-.335-.066-.505-.049a1.29 1.29 0 0 0-.877.469c-.109.132-.19.284-.239.448a1.301 1.301 0 0 0 .867 1.621c1.114.345 2.273.525 3.44.531a9.933 9.933 0 0 0 3.277-.547 5.152 5.152 0 0 1 2.786.402 4.502 4.502 0 0 1 1.687 1.347c-.996 1.277-1.23 3.173-.318 4.169 1.473 1.61 9.534-1.382 9.212-3.104-.215-1.153-4.229-2.591-6.617-2.35ZM158.666 124.572a11.647 11.647 0 0 0 1.819-6.204c.012-1.738-.42-3.45-1.255-4.974a9.21 9.21 0 0 0-3.828-3.705 20.264 20.264 0 0 0-9.31-2.373 14.227 14.227 0 0 0-7.117 1.747 8.879 8.879 0 0 0-2.48 2.089 6.715 6.715 0 0 0-1.362 2.822c-.11.53-.165 1.07-.162 1.611a12.426 12.426 0 0 0 1.109 4.847 17.964 17.964 0 0 0 4.967 6.606 12.482 12.482 0 0 0 7.868 3.06 10.78 10.78 0 0 0 4.365-.938 12.063 12.063 0 0 0 5.386-4.588Zm-6.432 2.208a8.183 8.183 0 0 1-3.319.718 8.957 8.957 0 0 1-4.276-1.152 14.355 14.355 0 0 1-5.094-4.915 11.572 11.572 0 0 1-1.974-5.846c-.003-.36.033-.719.105-1.072l-1.272-.27 1.272.27c.141-.636.431-1.23.845-1.733a7.1 7.1 0 0 1 2.962-2.048 12.594 12.594 0 0 1 4.609-.816c2.83.034 5.611.746 8.109 2.079a6.6 6.6 0 0 1 2.758 2.666 7.606 7.606 0 0 1 .926 3.707 9.05 9.05 0 0 1-1.415 4.813 9.461 9.461 0 0 1-4.236 3.599ZM121.726 120.982a16.719 16.719 0 0 0-7.627-1.916 13.62 13.62 0 0 0-8.31 2.714 11.266 11.266 0 0 0-4.335 7.064 9.493 9.493 0 0 0-.136 1.588 9.865 9.865 0 0 0 4.108 7.85c2.645 2.023 6.433 3.249 11.187 3.249a30.605 30.605 0 0 0 3.464-.203c3.561-.409 6.153-1.376 7.927-2.842a7.207 7.207 0 0 0 1.98-2.531 6.97 6.97 0 0 0 .629-2.941 11.626 11.626 0 0 0-2.661-6.849 18.746 18.746 0 0 0-6.226-5.183Zm5.898 13.884a5.251 5.251 0 0 1-2.363 2.349 14.874 14.874 0 0 1-5.478 1.53 27.985 27.985 0 0 1-3.17.186c-4.313 0-7.522-1.115-9.607-2.713a7.249 7.249 0 0 1-3.088-5.786c.001-.386.034-.771.099-1.151l-1.282-.219 1.282.219a8.663 8.663 0 0 1 3.352-5.437 11.033 11.033 0 0 1 6.73-2.178c2.246.023 4.454.582 6.441 1.63a16.153 16.153 0 0 1 5.347 4.45 9.101 9.101 0 0 1 2.126 5.268 4.38 4.38 0 0 1-.389 1.852Z"/><path d="M145.407 110.6a5.196 5.196 0 0 0-1.228.16 1.861 1.861 0 0 1 .64 1.488 1.93 1.93 0 0 1-1.621 1.936 1.936 1.936 0 0 1-2.154-1.318 3.64 3.64 0 0 0-.718 2.033c0 2.058 2.275 3.725 5.081 3.725 2.806 0 5.08-1.667 5.08-3.725 0-2.057-2.274-4.299-5.08-4.299ZM115.851 122.628c.169.25.256.546.25.848a1.937 1.937 0 0 1-.562 1.385 1.963 1.963 0 0 1-.632.426 1.957 1.957 0 0 1-1.495 0 1.942 1.942 0 0 1-1.16-2.141 4.482 4.482 0 0 0-2.588 3.658c0 2.057 2.274 3.724 5.081 3.724 2.805 0 5.08-1.667 5.08-3.724 0-1.779-1.701-3.688-3.974-4.176Z"/></g></svg>