<svg xmlns="http://www.w3.org/2000/svg" width="200" height="200" fill="none"><g fill="#BEBEC9"><path d="M91.815 76.947a35.125 35.125 0 0 0-2.863-14.418 18.889 18.889 0 0 0-3.49-5.272 11.38 11.38 0 0 0-4.948-3.103c-1.248-.35-2.54-.52-3.835-.506a23.755 23.755 0 0 0-7.84 1.477A31.747 31.747 0 0 0 57.05 62.64a27.808 27.808 0 0 0-7.524 13.785 30.227 30.227 0 0 0-.705 6.322 20.727 20.727 0 0 0 3.22 11.498 19.15 19.15 0 0 0 6.484 6.14 21.004 21.004 0 0 0 10.414 2.602 24.02 24.02 0 0 0 13.112-3.84 19.92 19.92 0 0 0 8.47-11.848 41.88 41.88 0 0 0 1.293-10.351Zm-5.04 9.39a16.027 16.027 0 0 1-6.851 9.579 20.177 20.177 0 0 1-10.984 3.202 17.177 17.177 0 0 1-8.488-2.088 15.297 15.297 0 0 1-5.166-4.894 16.841 16.841 0 0 1-2.596-9.39c.012-1.855.22-3.703.62-5.514a24.626 24.626 0 0 1 9.744-14.68 27.831 27.831 0 0 1 7.083-3.783 19.952 19.952 0 0 1 6.542-1.253 9.836 9.836 0 0 1 2.746.35 7.523 7.523 0 0 1 3.257 2.082 17.673 17.673 0 0 1 3.814 6.962 33.793 33.793 0 0 1 1.45 10.037 38.017 38.017 0 0 1-1.171 9.39ZM142.22 59.435a31.674 31.674 0 0 0-8.077-4.31 23.758 23.758 0 0 0-7.841-1.477 13.661 13.661 0 0 0-3.835.506 11.379 11.379 0 0 0-4.947 3.103 21.43 21.43 0 0 0-4.724 8.49 37.636 37.636 0 0 0-1.629 11.2 41.87 41.87 0 0 0 1.293 10.351 19.918 19.918 0 0 0 8.469 11.847 24.02 24.02 0 0 0 13.112 3.841 21.01 21.01 0 0 0 10.415-2.602 19.156 19.156 0 0 0 6.483-6.14 20.724 20.724 0 0 0 3.22-11.498 30.208 30.208 0 0 0-.704-6.322 28.5 28.5 0 0 0-11.235-16.989Zm5.476 32.7a15.311 15.311 0 0 1-5.166 4.895 17.18 17.18 0 0 1-8.489 2.088 20.179 20.179 0 0 1-10.984-3.202 16.025 16.025 0 0 1-6.85-9.579 38.027 38.027 0 0 1-1.172-9.39 31.34 31.34 0 0 1 2.509-12.802 15.08 15.08 0 0 1 2.755-4.197 7.528 7.528 0 0 1 3.257-2.083 9.843 9.843 0 0 1 2.747-.35c2.235.05 4.447.473 6.542 1.254a27.904 27.904 0 0 1 10.333 6.588 23.933 23.933 0 0 1 6.494 11.875c.4 1.811.607 3.66.619 5.514a16.842 16.842 0 0 1-2.595 9.39Z"/><path d="M75.698 81.244c-5.944.087-10.283 5.034-9.312 7.897.8 2.355 4.54 2.335 9.312 2.248 4.773-.087 7.68.443 7.985-2.638.253-2.571-3.164-7.577-7.985-7.507Zm-.39 8.852a3.167 3.167 0 1 1 0-6.334 3.167 3.167 0 0 1 0 6.334ZM127.506 81.244c-4.82-.07-8.237 4.936-7.984 7.507.304 3.08 3.211 2.551 7.984 2.638 4.773.087 8.513.107 9.312-2.248.972-2.863-3.367-7.81-9.312-7.897Zm.391 8.852a3.167 3.167 0 1 1-.001-6.333 3.167 3.167 0 0 1 .001 6.333ZM112.539 102.665a6.707 6.707 0 0 1-1.574.866c-1.327.52-2.706.896-4.114 1.12a30.654 30.654 0 0 1-3.367.375c0-.039.007-.076.005-.115 0 0-.019-.284-.047-.77-.06-1.035-.161-2.979-.215-4.885 3.448-1.255 6.924-5.66 6.721-8.705-.278-4.164-15.094-3.945-16.577-.365-.926 2.232 2.543 7.235 5.981 8.88.067 2.642.23 5.341.268 5.954a20.532 20.532 0 0 1-9.014-2.424 1.935 1.935 0 0 0-1.983 3.321c3.777 2.238 8.503 3.029 12.968 3.04a34.046 34.046 0 0 0 7.7-.857 20.87 20.87 0 0 0 3.156-.996c.897-.354 1.74-.831 2.505-1.416a1.935 1.935 0 0 0-2.413-3.023Z"/><path d="M185.276 167.429a58.817 58.817 0 0 0-8.435-19.971 41.314 41.314 0 0 0-18.782-15.333 48.2 48.2 0 0 0 9.695-10.416 42.225 42.225 0 0 0 7.1-19.705l-1.924-.192 1.924.191c.179-1.802.268-3.599.267-5.39a59.67 59.67 0 0 0-6.1-25.86 70.71 70.71 0 0 0-7.551-12.234 21.682 21.682 0 0 0 3.876-4.031 24.019 24.019 0 0 0 4.604-14.204 23.222 23.222 0 0 0-2.148-9.84 20.883 20.883 0 0 0-6.542-8.007 22.082 22.082 0 0 0-13.159-4.205 23.979 23.979 0 0 0-19.196 9.421 21.69 21.69 0 0 0-2.727 4.973 71.812 71.812 0 0 0-24.584-4.431 73.994 73.994 0 0 0-23.923 4.033 21.693 21.693 0 0 0-2.574-4.575 23.978 23.978 0 0 0-19.196-9.42 22.08 22.08 0 0 0-13.158 4.204 20.88 20.88 0 0 0-6.543 8.006 23.227 23.227 0 0 0-2.148 9.841 24.022 24.022 0 0 0 4.605 14.204 21.718 21.718 0 0 0 3.087 3.373c-8.493 11.058-13.658 24.427-13.66 38.71 0 1.793.083 3.599.248 5.417a43.385 43.385 0 0 0 14.926 29.629 41.135 41.135 0 0 0-19.726 15.303 58.459 58.459 0 0 0-8.806 20.509 1.934 1.934 0 1 0 3.772.854 54.656 54.656 0 0 1 8.199-19.139 37.184 37.184 0 0 1 20.176-14.651 63.155 63.155 0 0 0 14.886 7.867c11.33 4.27 24.882 6.338 39.835 6.339 19.974-.004 37.449-4.297 50.415-12.285a62 62 0 0 0 2.36-1.53 37.286 37.286 0 0 1 19.278 14.755 54.99 54.99 0 0 1 7.856 18.644 1.934 1.934 0 1 0 3.773-.854ZM132.02 29.947a20.128 20.128 0 0 1 16.081-7.847 18.21 18.21 0 0 1 10.865 3.452 17.004 17.004 0 0 1 5.333 6.532 19.377 19.377 0 0 1 1.783 8.2 20.163 20.163 0 0 1-3.851 11.91 17.808 17.808 0 0 1-3.184 3.312 78.822 78.822 0 0 0-29.27-21.47 17.79 17.79 0 0 1 2.243-4.09ZM41.771 52.194a20.163 20.163 0 0 1-3.85-11.91c-.013-2.83.596-5.63 1.783-8.2a17.002 17.002 0 0 1 5.332-6.532A18.211 18.211 0 0 1 55.901 22.1a20.134 20.134 0 0 1 16.081 7.847 17.854 17.854 0 0 1 2.061 3.618 77.71 77.71 0 0 0-23.64 14.84 74.563 74.563 0 0 0-6.215 6.45 17.85 17.85 0 0 1-2.417-2.66Zm98.25 85.923c-10.764 4.352-23.862 6.715-38.427 6.714-19.464.006-36.286-3.621-48.415-10.816a44.017 44.017 0 0 1-14.532-13.434 40.36 40.36 0 0 1-6.463-18.945 55.202 55.202 0 0 1-.232-5.065c-.002-17.405 8.208-33.52 21.065-45.316a72.576 72.576 0 0 1 48.577-19.192c18.211-.006 35.676 7.734 48.552 19.716a69.685 69.685 0 0 1 15.389 20.65 55.794 55.794 0 0 1 5.718 24.183 51.06 51.06 0 0 1-.248 5.009 38.337 38.337 0 0 1-6.455 17.92c-5.346 7.899-13.759 14.223-24.529 18.576Z"/><path d="M49.713 151.57a1.918 1.918 0 0 0-.694-.296 1.933 1.933 0 0 0-1.994.801c-4.347 6.374-6.892 14.62-8.573 23.801a1.936 1.936 0 0 0 1.556 2.25 1.933 1.933 0 0 0 2.25-1.556c1.618-8.903 4.093-16.668 7.96-22.312a1.94 1.94 0 0 0 .023-2.149 1.925 1.925 0 0 0-.528-.539ZM154.026 152.076a1.934 1.934 0 1 0-3.193 2.182c3.866 5.642 6.34 13.405 7.959 22.304a1.94 1.94 0 0 0 .802 1.244c.209.144.445.246.693.3a1.937 1.937 0 0 0 2.31-2.238c-1.681-9.178-4.226-17.421-8.571-23.792Z"/></g></svg>