<svg width="200" height="200" viewBox="0 0 200 200" xmlns="http://www.w3.org/2000/svg"><g id="type=avatar, mode=light"><g id="Group 432527066"><path id="Vector" d="M144.666 67.7281C143.56 64.5975 141.927 61.6821 139.647 59.0799C136.233 55.1764 131.38 52.0165 124.757 49.8545C118.134 47.6924 109.731 46.4989 99.0964 46.4989C89.646 46.4989 81.9566 47.4381 75.715 49.1696C66.3526 51.7524 60.2089 56.1645 56.4815 61.78C52.7542 67.3954 51.4824 74.0773 51.4824 81.1308C51.4824 85.8364 52.0596 90.3758 53.5564 94.5433C54.6717 97.6739 56.3152 100.589 58.6045 103.192C62.0285 107.095 66.8907 110.245 73.5138 112.407C80.1369 114.569 88.521 115.763 99.1062 115.763C108.517 115.763 116.187 114.824 122.419 113.092C131.772 110.509 137.935 106.097 141.672 100.491C145.419 94.8857 146.71 88.1942 146.71 81.1308C146.71 76.4252 146.143 71.8956 144.666 67.7281ZM65.7852 60.9191C64.9145 61.7115 64.1417 62.5333 63.4471 63.404C63.0068 63.9518 62.2046 64.0399 61.6568 63.5996C61.1089 63.1594 61.0209 62.3572 61.4611 61.8093C62.2438 60.831 63.1047 59.9114 64.0732 59.031C64.5917 58.5614 65.3939 58.6005 65.8733 59.119C66.3428 59.6375 66.3037 60.4397 65.7852 60.9191ZM83.5512 53.2687C78.5716 54.1492 74.5215 55.4797 71.2637 57.1624C70.6376 57.4852 69.8745 57.2407 69.5517 56.6145C69.2288 55.9884 69.4734 55.2254 70.0995 54.9025C73.641 53.0829 77.9259 51.6839 83.111 50.7643C83.8055 50.6469 84.461 51.1067 84.5882 51.7915C84.7056 52.4959 84.2458 53.1513 83.5512 53.2687ZM134.325 103.006C134.081 103.231 133.826 103.456 133.572 103.681C132.427 104.659 131.155 105.579 129.747 106.42C129.453 106.596 129.15 106.762 128.847 106.938C128.23 107.281 127.457 107.056 127.115 106.44C126.773 105.823 126.998 105.05 127.614 104.708C127.898 104.551 128.162 104.395 128.436 104.238C129.727 103.465 130.872 102.644 131.909 101.753C132.143 101.558 132.368 101.352 132.584 101.157C133.092 100.677 133.904 100.707 134.384 101.215C134.873 101.714 134.844 102.526 134.325 103.006Z"/><path id="Vector_2" d="M165.015 61.2223C165.925 51.5371 167.422 34.0744 167.745 29.134C167.754 28.909 167.764 28.6839 167.764 28.4687C167.764 27.6274 167.647 26.8741 167.422 26.1991C167.079 25.1914 166.463 24.399 165.71 23.8903C164.956 23.3718 164.115 23.1272 163.313 23.0391C163.098 23.0196 162.873 23 162.648 23C161.513 23 160.29 23.3326 159.312 24.2033C158.324 25.0642 157.678 26.4143 157.521 28.1067C157.12 32.245 155.809 48.2011 154.958 58.6102C154.802 58.0135 154.645 57.4167 154.469 56.8297C151.72 47.6043 146.418 39.6311 137.495 34.0646C128.583 28.4883 116.139 25.3088 99.0971 25.3088C87.7292 25.3088 78.4256 26.7273 70.8339 29.3198C59.4465 33.1939 51.9331 39.7975 47.3742 48.0641C45.4666 51.5175 44.0774 55.2449 43.0991 59.1874C42.2479 48.8076 40.8979 32.3232 40.487 28.1067C40.3305 26.4143 39.6848 25.0642 38.6967 24.2033C37.7086 23.3326 36.4857 23 35.3607 23C35.1357 23 34.9204 23.0098 34.6954 23.0391C33.6291 23.1565 32.4747 23.5576 31.5942 24.4968C31.1638 24.9566 30.8116 25.5338 30.5866 26.2088C30.3518 26.8643 30.2344 27.6176 30.2344 28.4687C30.2344 28.6839 30.2442 28.909 30.2539 29.134V29.1242C30.5768 34.0744 32.0736 51.5371 32.9834 61.2125C33.2867 64.4213 33.8639 66.6127 34.6465 68.178C35.0378 68.9704 35.4976 69.5966 35.9966 70.0857C35.4389 70.526 34.9302 71.0445 34.5291 71.6902C34.04 72.4924 33.7563 73.4706 33.541 74.6642C33.3356 75.8577 33.228 77.2469 33.228 78.7731C33.228 80.084 33.3062 81.4927 33.4823 82.9602C33.7954 85.6016 34.3628 87.9593 35.0574 89.8475C35.3998 90.7866 35.7716 91.6084 36.1727 92.303C36.5738 92.9976 36.9749 93.5552 37.4934 93.9954C38.7358 95.0324 40.2815 95.502 41.5436 95.7955C42.6295 96.0401 43.5002 96.1184 43.7545 96.1379C43.7643 96.1771 43.7741 96.2162 43.7839 96.2553C46.5623 105.217 51.9136 112.779 60.8455 117.983C68.2806 122.327 78.1516 125.057 91.0457 125.849V128.148C89.4902 128.216 88.0227 128.314 86.6727 128.441C85.078 128.598 83.6595 128.784 82.466 129.028C81.2626 129.283 80.2941 129.557 79.5115 129.997C78.2593 130.711 77.0462 131.797 75.9798 133.128C75.7842 133.049 75.6081 132.961 75.4026 132.893C74.5124 132.609 73.5928 132.482 72.6634 132.482C69.9241 132.492 67.087 133.558 64.3184 135.172C60.1802 137.608 56.179 141.316 53.1658 145.073C51.6592 146.951 50.3972 148.839 49.4972 150.61C48.5971 152.39 48.0297 154.024 48.0199 155.56L48.0297 155.805C48.0786 156.91 48.3623 157.928 48.8319 158.808C49.2232 159.542 49.7515 160.168 50.3581 160.696C49.6146 161.948 49.233 163.406 49.2428 164.971C49.2526 168.386 50.8961 172.289 54.1441 176.486C56.2377 179.176 58.0182 180.918 59.6715 182.013C61.3151 183.119 62.8901 183.549 64.2989 183.54C64.7782 183.54 65.2185 183.481 65.6587 183.412C65.7859 183.774 65.9522 184.126 66.1772 184.449C66.7642 185.3 67.5566 185.839 68.3001 186.122C69.0436 186.416 69.7382 186.474 70.2665 186.474C70.4035 186.474 70.5209 186.465 70.6285 186.465C70.6578 186.709 70.6774 186.964 70.7068 187.198C70.9709 189.4 71.284 191.376 71.6655 193.058C72.047 194.741 72.4873 196.12 73.0351 197.197C73.358 197.823 74.1308 198.058 74.7472 197.735C75.3733 197.412 75.6081 196.639 75.2852 196.023C74.9037 195.289 74.4928 194.056 74.1406 192.501C73.6515 190.368 73.2601 187.609 72.9764 184.488C73.3482 184.596 73.7297 184.704 74.121 184.802C74.1308 184.802 74.1308 184.811 74.1406 184.811C74.1602 184.811 74.17 184.811 74.1895 184.821H74.1993C74.1993 184.821 74.2091 184.821 74.2189 184.821C77.0559 185.535 80.343 186.064 83.8943 186.435C88.7271 186.944 94.0393 187.159 99.2928 187.159C106.385 187.159 113.38 186.758 118.957 186.112C118.966 186.112 118.966 186.112 118.976 186.112H118.986C119.025 186.112 119.064 186.103 119.103 186.103C121.901 185.77 124.347 185.379 126.274 184.929C127.243 184.704 128.074 184.469 128.789 184.205C128.798 184.205 128.798 184.195 128.808 184.195C128.72 188.666 128.466 192.853 128.016 196.443C127.928 197.138 128.417 197.774 129.121 197.862C129.816 197.95 130.452 197.461 130.54 196.756C131.127 192.1 131.391 186.592 131.391 180.751C131.391 173.796 131.019 166.38 130.383 159.454C131.215 161.273 132.408 162.702 133.827 163.66C135.451 164.766 137.329 165.275 139.168 165.275C140.088 165.275 140.988 165.138 141.869 164.893C142.358 165.382 142.886 165.803 143.453 166.145C145.126 167.173 147.034 167.603 148.893 167.603C151.436 167.593 153.902 166.801 155.663 165.333C155.839 165.187 155.946 164.991 156.015 164.795C156.034 164.795 156.054 164.805 156.073 164.815C157.316 165.118 158.725 165.363 160.104 165.363C161.063 165.363 162.012 165.255 162.892 164.903C163.332 164.727 163.763 164.482 164.135 164.159C164.506 163.836 164.829 163.416 165.054 162.936C165.24 162.535 165.367 162.085 165.485 161.586C165.827 160.08 166.023 158.006 166.033 155.883C166.033 154.406 165.935 152.928 165.7 151.617C165.583 150.962 165.426 150.346 165.221 149.788C165.005 149.23 164.751 148.712 164.36 148.262L163.411 149.103L164.36 148.262C164.008 147.861 163.587 147.597 163.137 147.381C162.472 147.068 161.728 146.882 160.936 146.765C160.143 146.648 159.302 146.589 158.461 146.589C158.099 146.589 157.746 146.599 157.384 146.618C157.365 146.618 157.345 146.609 157.316 146.609L157.208 146.569C157.12 146.521 156.944 146.344 156.797 145.982C156.651 145.63 156.543 145.122 156.543 144.495V144.339V144.329C156.543 143.86 156.788 143.028 157.071 142.138C157.345 141.238 157.668 140.279 157.678 139.232C157.678 138.782 157.609 138.283 157.384 137.804C157.159 137.324 156.768 136.884 156.289 136.601C155.702 136.239 155.036 136.033 154.352 136.043C153.686 136.043 153.021 136.239 152.434 136.581C151.544 137.099 150.81 137.931 150.204 139.007C149.597 140.093 149.128 141.443 148.805 143.067C148.56 144.329 148.1 145.484 147.592 146.716C147.504 146.716 147.415 146.706 147.337 146.706C147.063 146.706 146.789 146.726 146.515 146.755C145.263 143.4 143.424 140.074 141.008 137.52C139.795 136.239 138.425 135.143 136.899 134.35C135.373 133.558 133.69 133.088 131.89 133.049H131.704C130.618 133.049 129.65 133.245 128.808 133.666C127.947 134.086 127.272 134.732 126.773 135.485C126.587 135.446 126.411 135.417 126.235 135.397C125.903 134.409 125.55 133.548 125.169 132.814C124.895 132.286 124.611 131.836 124.279 131.435C123.946 131.044 123.574 130.692 123.095 130.467C122.606 130.242 122.048 130.056 121.393 129.889C119.094 129.302 115.513 128.852 111.316 128.539C110.494 128.481 109.633 128.422 108.763 128.373V125.78C115.846 125.252 121.999 124.127 127.311 122.444C138.669 118.854 146.222 112.691 150.82 104.757C152.395 102.047 153.618 99.1315 154.557 96.0596C154.743 96.1477 154.948 96.2064 155.173 96.1868C155.213 96.1868 156.191 96.1184 157.453 95.8347C158.715 95.5412 160.261 95.0716 161.503 94.0346C162.012 93.5943 162.423 93.0269 162.824 92.3421C163.421 91.3051 163.959 89.9648 164.428 88.3898C164.898 86.8049 165.279 84.9853 165.504 82.9993C165.671 81.5319 165.759 80.1231 165.759 78.8122C165.759 77.2763 165.651 75.8871 165.446 74.7033C165.23 73.5098 164.947 72.5315 164.458 71.7293C163.919 70.8586 163.176 70.2031 162.393 69.6846C162.384 69.6748 162.364 69.6651 162.354 69.6651C162.98 68.99 163.528 68.09 163.968 66.8671C164.399 65.4388 164.79 63.6289 165.015 61.2223ZM35.527 60.9875C34.6172 51.3414 33.1204 33.8396 32.7975 28.9677V28.9579C32.7877 28.7915 32.778 28.6252 32.778 28.4687C32.778 27.8524 32.866 27.3828 32.9834 27.0208C33.1693 26.4828 33.4236 26.1991 33.7367 25.974C34.0498 25.7588 34.4704 25.6121 34.9694 25.5631C35.0965 25.5534 35.2237 25.5436 35.3509 25.5436C36.0064 25.5436 36.5738 25.7295 37.0042 26.111C37.4347 26.4925 37.826 27.1284 37.9434 28.3513C38.2467 31.4525 39.0782 41.4019 39.8315 50.5588C40.2131 55.1373 40.5653 59.52 40.8294 62.768C41.0348 65.2725 41.1816 67.0823 41.2403 67.7769C40.7218 67.9041 39.9 68.1193 38.9706 68.4813C38.775 68.5596 38.5695 68.6574 38.3739 68.7454C37.9336 68.5204 37.4445 68.1096 36.9162 67.0726C36.3488 65.9084 35.8009 64.0007 35.527 60.9875ZM41.886 93.2813C40.8685 93.0465 39.7337 92.6063 39.1271 92.0682C38.9706 91.941 38.6673 91.579 38.3739 91.0507C37.9141 90.2485 37.4249 89.0746 37.0042 87.6365C36.5836 86.2082 36.2314 84.5157 36.0161 82.6765C35.8596 81.3069 35.7814 79.9862 35.7814 78.7828C35.7814 77.3741 35.8792 76.1121 36.0651 75.1142C36.2314 74.1163 36.5053 73.363 36.7107 73.0402C36.9847 72.5999 37.4445 72.1597 38.0217 71.7782C38.8826 71.2108 39.9685 70.7803 40.8294 70.5064C41.0348 70.4379 41.2207 70.389 41.3968 70.3401C41.2501 72.4239 41.1718 74.537 41.1718 76.6893C41.1718 82.6373 41.7197 88.2724 43.011 93.4965C42.6784 93.4574 42.2968 93.3791 41.886 93.2813ZM69.8948 179.352C69.885 179.352 69.8263 179.352 69.7382 179.352C69.5035 179.352 69.0436 179.313 68.6132 179.147C68.1827 178.971 67.811 178.716 67.5175 178.188C67.3708 177.924 67.3121 177.67 67.3121 177.435C67.3121 177.122 67.4197 176.848 67.586 176.642C67.6447 176.672 67.7132 176.711 67.7816 176.731C68.6328 177.063 69.3861 177.102 69.8263 177.112C69.8752 177.112 69.9143 177.112 69.9535 177.112C69.9828 177.875 70.0122 178.628 70.0415 179.372C70.0024 179.372 69.9535 179.352 69.8948 179.352ZM69.9046 174.568C69.885 174.568 69.8654 174.568 69.8361 174.568C69.6013 174.568 69.1415 174.529 68.711 174.363C68.2806 174.187 67.9088 173.933 67.6055 173.404C67.4588 173.14 67.4001 172.886 67.4001 172.651C67.4001 172.299 67.5273 171.996 67.7425 171.78C67.9577 171.565 68.2414 171.418 68.7208 171.409C68.936 171.409 69.2002 171.448 69.5132 171.546C69.6306 171.585 69.7578 171.585 69.8752 171.585C69.8752 171.751 69.8752 171.927 69.8752 172.093C69.885 172.925 69.885 173.747 69.9046 174.568ZM70.1491 162.976C68.5349 161.655 66.9794 160.383 65.3946 159.297C66.7642 157.859 68.9458 155.531 71.1861 152.831C70.7068 156.01 70.3644 159.444 70.1491 162.976ZM51.0722 153.281C51.6983 151.647 52.8821 149.632 54.4474 147.577C56.7757 144.495 59.9356 141.306 63.2325 138.939C66.5196 136.552 69.9535 135.035 72.6438 135.055C73.309 135.055 73.9254 135.153 74.5026 135.319C74.3265 135.632 74.1504 135.945 73.9939 136.278C73.9547 136.287 73.9156 136.278 73.8765 136.297C71.4698 137.148 69.7578 139.438 69.7578 142.128C69.7578 144.085 70.6774 145.836 72.096 146.961C72.0764 147.196 72.047 147.43 72.0177 147.655C71.8514 147.88 71.6851 148.105 71.5188 148.321C68.4664 152.381 64.8956 156.147 63.164 157.937C62.9586 157.83 62.7532 157.732 62.5477 157.634C61.6477 155.707 59.6911 154.367 57.4214 154.367C54.7506 154.367 52.5299 156.215 51.9233 158.7C51.5712 158.378 51.2581 158.025 51.0331 157.614C50.7494 157.076 50.5635 156.46 50.5342 155.707V155.58C50.5439 155.012 50.7103 154.21 51.0722 153.281ZM61.0509 179.91C59.7302 179.039 58.1062 177.494 56.1301 174.94C53.0875 171.027 51.7473 167.544 51.757 164.991C51.757 163.758 52.0505 162.741 52.5788 161.89C53.1169 161.039 53.9093 160.344 55.0344 159.796C56.1007 159.287 57.079 159.082 58.028 159.082C59.6226 159.082 61.2368 159.688 62.988 160.765C64.7391 161.831 66.5783 163.347 68.5741 164.981C68.9556 165.294 69.3176 165.607 69.66 165.93C69.7578 166.018 69.8752 166.077 69.9926 166.135C69.9535 167.104 69.9241 168.073 69.9143 169.041C69.5132 168.943 69.1121 168.875 68.7306 168.875C67.6153 168.865 66.6077 169.305 65.9229 170.019C65.238 170.724 64.8663 171.682 64.8663 172.661C64.8663 173.326 65.0326 174.011 65.3848 174.647C65.4631 174.793 65.5609 174.911 65.6489 175.038C65.0913 175.713 64.7685 176.564 64.7685 177.454C64.7685 178.12 64.9348 178.805 65.287 179.44C65.4631 179.763 65.6783 180.047 65.9033 180.292C65.7957 180.477 65.7076 180.673 65.6294 180.869C65.6196 180.869 65.6 180.869 65.5902 180.869C65.1402 180.967 64.7 181.025 64.2695 181.025C63.3499 181.006 62.3814 180.781 61.0509 179.91ZM70.2372 183.96C69.9339 183.96 69.5524 183.921 69.2002 183.774C68.848 183.637 68.5349 183.422 68.2414 183.021C68.036 182.718 67.9479 182.424 67.9479 182.141C67.9479 181.955 67.9969 181.788 68.0556 181.642C68.7502 181.857 69.3567 181.896 69.7285 181.906C69.9535 181.906 70.11 181.896 70.1393 181.886C70.1491 181.886 70.1589 181.876 70.1785 181.876C70.2274 182.581 70.2763 183.275 70.335 183.96C70.3154 183.95 70.2861 183.96 70.2372 183.96ZM144.755 163.993C143.561 163.249 142.592 162.154 142.015 160.461C141.624 159.307 141.448 158.153 141.448 157.047C141.448 154.846 142.152 152.84 143.248 151.441C143.796 150.737 144.432 150.189 145.116 149.817C145.566 149.573 146.046 149.407 146.535 149.328C145.958 150.982 145.478 152.909 145.459 155.315C145.459 155.404 145.459 155.492 145.459 155.589C145.459 158.681 146.114 160.96 147.386 162.535C148.022 163.308 148.805 163.885 149.656 164.247C150.243 164.492 150.859 164.639 151.485 164.707C150.663 164.952 149.763 165.098 148.863 165.098C147.396 165.079 145.948 164.727 144.755 163.993ZM161.102 149.387C161.474 149.475 161.787 149.573 162.012 149.68C162.237 149.788 162.374 149.896 162.413 149.945C162.501 150.042 162.657 150.297 162.794 150.669C163 151.226 163.176 152.028 163.284 152.938C163.391 153.848 163.45 154.865 163.45 155.883C163.45 157.184 163.362 158.495 163.225 159.581C163.156 160.129 163.068 160.618 162.97 161.019C162.882 161.42 162.775 161.733 162.706 161.88C162.638 162.027 162.55 162.144 162.432 162.252C162.247 162.408 161.953 162.565 161.552 162.672C161.141 162.78 160.632 162.839 160.075 162.829C158.999 162.829 157.746 162.633 156.66 162.359C155.575 162.095 154.616 161.743 154.185 161.528C154.039 161.449 153.99 161.401 153.911 161.224C153.833 161.058 153.784 160.765 153.784 160.422C153.784 160.246 153.794 160.06 153.823 159.874L159.83 160.129C160.535 160.158 161.122 159.61 161.151 158.916C161.18 158.211 160.632 157.624 159.938 157.595L153.598 157.331C153.559 157.262 153.52 157.184 153.491 157.086C153.432 156.9 153.393 156.656 153.393 156.382C153.393 155.805 153.549 155.11 153.726 154.592C153.735 154.552 153.755 154.513 153.765 154.474L159.918 154.728C160.623 154.758 161.21 154.21 161.239 153.506C161.268 152.801 160.72 152.214 160.016 152.185L153.501 151.921C153.491 151.891 153.471 151.882 153.461 151.852C153.383 151.657 153.324 151.392 153.324 151.128C153.324 150.874 153.373 150.629 153.471 150.424C153.569 150.218 153.696 150.042 153.902 149.896C153.931 149.866 154.127 149.759 154.41 149.671C155.281 149.377 156.895 149.142 158.441 149.152C159.4 149.133 160.358 149.221 161.102 149.387ZM151.27 143.556C151.642 141.658 152.239 140.338 152.835 139.565C153.139 139.173 153.422 138.929 153.677 138.782C153.931 138.635 154.136 138.586 154.322 138.586C154.508 138.586 154.704 138.635 154.939 138.772C155.036 138.831 155.036 138.851 155.056 138.89C155.076 138.929 155.105 139.036 155.105 139.232C155.115 139.682 154.9 140.504 154.616 141.384C154.342 142.275 154.019 143.214 153.98 144.251V144.261C153.98 144.349 153.98 144.427 153.98 144.505C153.98 145.435 154.136 146.286 154.449 147.01C154.146 147.078 153.853 147.156 153.589 147.244C153.148 147.391 152.757 147.558 152.385 147.831C151.808 148.252 151.397 148.8 151.133 149.367C150.879 149.945 150.771 150.541 150.771 151.109C150.771 151.706 150.888 152.283 151.104 152.801C151.192 153.007 151.299 153.202 151.417 153.398C151.378 153.515 151.329 153.643 151.28 153.78C151.055 154.464 150.82 155.364 150.82 156.362C150.82 156.842 150.879 157.35 151.045 157.849C151.133 158.123 151.26 158.397 151.427 158.651C151.407 158.749 151.387 158.847 151.358 158.965C151.29 159.375 151.221 159.874 151.221 160.403C151.221 160.931 151.29 161.518 151.515 162.105C151.202 162.056 150.908 161.978 150.644 161.87C149.92 161.557 149.323 161.039 148.824 160.06C148.335 159.082 148.002 157.624 148.002 155.56V155.315C148.042 152.762 148.599 150.942 149.294 149.182C149.979 147.45 150.84 145.728 151.27 143.556ZM128.847 136.845C129.121 136.444 129.444 136.151 129.884 135.935C130.315 135.72 130.892 135.583 131.665 135.583H131.802C133.181 135.612 134.473 135.974 135.695 136.601C137.525 137.549 139.208 139.125 140.646 141.071C142.045 142.979 143.199 145.219 144.06 147.509C144.011 147.528 143.962 147.548 143.923 147.577C142.387 148.418 141.145 149.768 140.274 151.412C140.098 151.745 139.951 152.107 139.804 152.469C137.525 153.388 135.92 155.599 135.92 158.201C135.92 159.913 136.615 161.459 137.74 162.574C136.86 162.398 136.008 162.076 135.236 161.547C134.052 160.745 133.044 159.532 132.379 157.761C131.821 156.264 130.726 153.427 129.757 150.219C129.336 148.82 128.945 147.342 128.642 145.894C128.505 145.082 128.368 144.28 128.221 143.507C128.084 142.509 127.996 141.541 127.996 140.66C127.977 138.997 128.29 137.647 128.847 136.845ZM118.634 131.905C119.436 132.042 120.131 132.188 120.698 132.335C121.265 132.482 121.706 132.629 121.95 132.746C121.97 132.756 122.107 132.834 122.273 133.049C122.596 133.431 123.026 134.204 123.437 135.26C123.486 135.378 123.535 135.515 123.574 135.642C123.379 135.769 123.202 135.916 123.075 136.072C122.684 136.542 122.488 137.051 122.361 137.598C122.234 138.146 122.175 138.753 122.175 139.408C122.175 140.328 122.293 141.345 122.527 142.402C122.85 143.86 123.339 145.141 123.946 146.139C124.249 146.638 124.582 147.068 124.983 147.43C125.188 147.606 125.413 147.763 125.678 147.89C125.893 147.988 126.137 148.056 126.402 148.076C127.869 157.517 128.818 169.755 128.818 180.761C128.818 180.976 128.818 181.182 128.818 181.397C128.642 181.505 128.319 181.671 127.889 181.827C126.9 182.199 125.345 182.571 123.437 182.913C122.038 183.158 120.444 183.393 118.693 183.598C118.673 183.598 118.653 183.598 118.644 183.598C117.988 183.667 117.352 183.696 116.726 183.696C112.324 183.696 108.518 182.092 104.654 180.37C102.727 179.519 100.79 178.638 98.7645 177.963C96.7394 177.288 94.6263 176.828 92.3664 176.828C87.9934 176.819 84.8922 178.384 82.4268 179.832C81.1844 180.556 80.0887 181.24 79.0615 181.73C78.0245 182.209 77.0755 182.493 76.0385 182.493C75.8526 182.493 75.657 182.483 75.4515 182.463C75.3341 182.444 75.2363 182.434 75.1483 182.414C74.9722 182.385 74.845 182.366 74.7569 182.346L74.708 182.336C74.0134 182.16 73.3677 181.974 72.7514 181.769C72.546 178.736 72.4384 175.449 72.4384 172.084C72.4384 164.433 73.0058 156.401 74.2384 150.15C74.6004 148.321 74.7178 146.286 74.8548 144.378C74.9819 142.48 75.1483 140.69 75.4809 139.496C75.9505 137.823 76.7527 136.278 77.7114 135.016C78.6604 133.754 79.7659 132.775 80.7637 132.208C81.1061 132.003 81.9083 131.729 82.9649 131.523C84.2563 131.259 85.9389 131.044 87.876 130.887C87.9347 130.956 87.9836 131.034 88.0521 131.093C91.7403 134.223 95.8981 135.368 99.6645 135.358C102.237 135.358 104.644 134.84 106.679 134.086C108.714 133.323 110.387 132.345 111.541 131.318C111.619 131.249 111.678 131.171 111.737 131.093C112.099 131.122 112.461 131.151 112.803 131.181C115.034 131.396 117.039 131.631 118.634 131.905ZM136.097 115.812C127.722 120.713 115.777 123.579 99.1069 123.57C87.9934 123.57 78.9734 122.298 71.7242 119.999C60.8455 116.536 53.9387 110.822 49.6537 103.456C45.3687 96.0792 43.7154 86.9419 43.7154 76.6991C43.7154 69.8705 44.4393 63.3941 46.1807 57.5537C48.8123 48.7881 53.6941 41.4606 62.0586 36.2169C70.4231 30.983 82.3681 27.8524 99.1069 27.8524C110.26 27.8524 119.299 29.2416 126.548 31.7265C137.437 35.4538 144.324 41.5682 148.609 49.2968C152.884 57.0254 154.508 66.4562 154.508 76.6991C154.508 83.5276 153.774 89.8768 152.014 95.5216C149.353 103.994 144.461 110.901 136.097 115.812ZM162.873 75.124C163.049 76.1316 163.156 77.3839 163.156 78.8024C163.156 80.0057 163.078 81.3166 162.922 82.6863C162.638 85.1418 162.1 87.3234 161.483 88.9963C161.18 89.8279 160.857 90.5322 160.554 91.0605C160.251 91.5888 159.957 91.9508 159.801 92.078C159.145 92.6454 157.903 93.1052 156.837 93.3302C156.308 93.4476 155.819 93.5259 155.477 93.565C155.359 93.5846 155.261 93.5943 155.183 93.5943C156.494 88.3506 157.042 82.6667 157.042 76.6893C157.042 74.4783 156.964 72.3065 156.797 70.164C157.15 70.2422 158.108 70.4575 159.145 70.8781C159.771 71.1227 160.417 71.4455 160.965 71.8173C161.513 72.1891 161.953 72.6097 162.217 73.0402C162.432 73.363 162.697 74.1163 162.873 75.124ZM161.082 66.9356C160.799 67.4834 160.515 67.8356 160.251 68.0802C160.104 68.2172 159.957 68.3248 159.811 68.4128C159.478 68.2857 159.155 68.1683 158.852 68.0802C157.854 67.7672 157.13 67.64 157.091 67.6302C156.974 67.6106 156.866 67.6302 156.758 67.64C156.817 66.8671 156.964 65.1257 157.159 62.7484C157.952 53.0339 159.595 32.9982 160.045 28.3415C160.173 27.1186 160.564 26.4828 160.985 26.1012C161.415 25.7197 161.982 25.5338 162.638 25.5338C162.765 25.5338 162.892 25.5436 163.019 25.5534C163.685 25.6317 164.193 25.8469 164.546 26.2186C164.722 26.4143 164.878 26.6589 165.005 27.011C165.133 27.3632 165.211 27.8426 165.211 28.4589C165.211 28.6155 165.201 28.7818 165.191 28.9579C164.868 33.8298 163.381 51.3219 162.462 60.9777C162.198 64.0007 161.65 65.8497 161.082 66.9356Z"/><path id="Vector_3" d="M91.7116 74.7032C91.7116 71.3966 91.0268 68.0703 89.6279 65.4387C88.9235 64.1278 88.043 62.9832 86.9277 62.1418C85.8125 61.3005 84.4526 60.782 82.9656 60.7918C82.8189 60.7918 82.6721 60.7918 82.5254 60.8016C81.0188 60.8994 79.6589 61.457 78.5339 62.3179C76.8512 63.6093 75.6773 65.5267 74.9044 67.6888C74.1315 69.8508 73.75 72.2868 73.75 74.7032C73.75 77.8729 74.3957 81.0329 75.8142 83.5177C76.5284 84.7602 77.4382 85.8363 78.5926 86.619C79.747 87.4016 81.1362 87.8516 82.6623 87.8516C82.7895 87.8516 82.9265 87.8516 83.0634 87.8418C84.57 87.7733 85.9397 87.2744 87.0549 86.4722C88.7474 85.2689 89.892 83.459 90.6355 81.4046C91.3692 79.3404 91.7116 77.0218 91.7116 74.7032Z"/><path id="Vector_4" d="M122.145 65.4289C121.441 64.118 120.561 62.9734 119.445 62.1321C118.33 61.2907 116.97 60.7722 115.483 60.782C115.336 60.782 115.19 60.782 115.043 60.7918C113.536 60.8896 112.177 61.4472 111.051 62.3081C109.369 63.5995 108.195 65.517 107.422 67.679C106.649 69.8411 106.268 72.2771 106.268 74.6935C106.268 77.8632 106.913 81.0231 108.332 83.508C109.046 84.7504 109.956 85.8266 111.11 86.6092C112.265 87.3919 113.654 87.8419 115.18 87.8419C115.307 87.8419 115.444 87.8419 115.581 87.8321C117.088 87.7636 118.457 87.2647 119.572 86.4624C121.265 85.2591 122.41 83.4493 123.153 81.3948C123.897 79.3404 124.239 77.0316 124.239 74.7033C124.229 71.3868 123.544 68.0606 122.145 65.4289Z"/><path id="Vector_5" d="M109.105 96.3726C105.711 95.7172 102.179 95.5117 99.0678 95.5117C93.8046 95.5117 89.7446 96.0889 89.7055 96.0987C89.3729 96.1476 89.0696 96.3237 88.8641 96.5977C88.6587 96.8716 88.5804 97.214 88.6293 97.5466C88.6489 97.6542 88.9522 99.6891 90.4294 101.812C91.1729 102.869 92.2197 103.954 93.6676 104.757C95.1155 105.569 96.9547 106.087 99.1852 106.087C101.416 106.087 103.255 105.588 104.732 104.815C106.943 103.661 108.293 101.92 109.066 100.511C109.849 99.0923 110.084 97.9673 110.103 97.8792C110.172 97.5466 110.103 97.1944 109.917 96.9107C109.731 96.627 109.438 96.4411 109.105 96.3726Z"/></g></g></svg>