<svg xmlns="http://www.w3.org/2000/svg" width="200" height="200" fill="none"><path fill="#FFE632" d="m69.673 19.051 9.386 5.884a1.3 1.3 0 0 0 1.38-2.202l-9.385-5.885a1.3 1.3 0 0 0-1.381 2.203ZM157.455 84.018l19.33 10.87a1.3 1.3 0 1 0 1.275-2.266l-19.33-10.87a1.3 1.3 0 0 0-1.275 2.266ZM194.863 102.081l-8.156-4.589a1.3 1.3 0 1 0-1.275 2.266l8.156 4.589a1.294 1.294 0 0 0 .991.123 1.305 1.305 0 0 0 .672-2.06 1.306 1.306 0 0 0-.388-.329ZM16.46 104.137a1.299 1.299 0 0 0-1.02-1.529l-12.637-2.526a1.297 1.297 0 0 0-1.528 1.02 1.298 1.298 0 0 0 1.019 1.529l12.636 2.526a1.3 1.3 0 0 0 1.53-1.02ZM21.217 138.315l26.085 2.194a1.301 1.301 0 0 0 .218-2.591l-26.085-2.193a1.297 1.297 0 0 0-1.404 1.186 1.3 1.3 0 0 0 1.186 1.404ZM54.64 138.537a1.305 1.305 0 0 0-.951.294 1.298 1.298 0 0 0 .225 2.15c.15.08.316.129.486.145l12.831 1.186a1.305 1.305 0 0 0 1.414-1.175 1.3 1.3 0 0 0-1.175-1.414l-12.83-1.186ZM169.569 162.888a1.299 1.299 0 0 0 1.334 1.264l9.624-.26a1.3 1.3 0 0 0-.07-2.599l-9.624.26a1.313 1.313 0 0 0-.908.405 1.29 1.29 0 0 0-.356.93ZM162.918 163.067a1.299 1.299 0 0 0-1.334-1.264l-25.387.686a1.3 1.3 0 1 0 .07 2.599l25.387-.686c.171-.005.339-.043.495-.112a1.303 1.303 0 0 0 .769-1.223ZM94.31 164.656l-31.384.847a1.299 1.299 0 1 0 .07 2.599l31.384-.847a1.304 1.304 0 0 0 1.264-1.335 1.3 1.3 0 0 0-1.334-1.264ZM54.758 167.024a1.3 1.3 0 0 0-1.335-1.264l-36.133.977a1.298 1.298 0 1 0 .07 2.599l36.133-.977a1.3 1.3 0 0 0 1.265-1.335ZM77.38 174.028l-32.461 2.016a1.299 1.299 0 0 0-1.215 1.378 1.303 1.303 0 0 0 1.376 1.217l32.462-2.016a1.291 1.291 0 0 0 .895-.436 1.298 1.298 0 0 0-.553-2.091 1.285 1.285 0 0 0-.503-.068ZM193.561 166.244l-51.762 2.349a1.298 1.298 0 0 0-1.24 1.358 1.302 1.302 0 0 0 1.358 1.239l51.762-2.349a1.298 1.298 0 0 0 1.24-1.358 1.302 1.302 0 0 0-1.358-1.239ZM35.711 84.747a4.034 4.034 0 0 0 1.193 1.373c.485.34 1.063.524 1.656.525a3.32 3.32 0 0 0 1.371-.313 5.739 5.739 0 0 0 1.896-1.49 11.672 11.672 0 0 0 2.03-3.514c.529-1.379.809-2.84.826-4.317a7.722 7.722 0 0 0-1.24-4.393 4.192 4.192 0 0 0-1.221-1.218 2.969 2.969 0 0 0-1.581-.463 3.24 3.24 0 0 0-1.388.327 5.48 5.48 0 0 0-1.856 1.547 11.81 11.81 0 0 0-1.89 3.574 13.61 13.61 0 0 0-.745 4.31 8.282 8.282 0 0 0 .949 4.052Zm2.957-9.15a6.178 6.178 0 0 1 1.198-1.632c.149-.14.317-.259.5-.352a.655.655 0 0 1 .275-.076.357.357 0 0 1 .203.068c.18.128.334.29.45.478.551.875.826 1.895.789 2.928a10.365 10.365 0 0 1-1.414 4.99 6.382 6.382 0 0 1-1.277 1.608 2.35 2.35 0 0 1-.535.356.743.743 0 0 1-.297.08.272.272 0 0 1-.174-.062 1.49 1.49 0 0 1-.406-.506 5.727 5.727 0 0 1-.618-2.782 11.36 11.36 0 0 1 1.306-5.098ZM57.59 105.661c.41.448.901.815 1.449 1.08a3.841 3.841 0 0 0 1.649.372 4.827 4.827 0 0 0 2.879-1.06 10.364 10.364 0 0 0 2.97-3.876 12.09 12.09 0 0 0 1.185-5.007 7.638 7.638 0 0 0-.408-2.544 5.611 5.611 0 0 0-1.411-2.214 4.143 4.143 0 0 0-2.878-1.231 4.788 4.788 0 0 0-2.884 1.077 10.43 10.43 0 0 0-2.949 3.91c-.74 1.571-1.14 3.28-1.171 5.016-.008.806.11 1.607.351 2.376a5.553 5.553 0 0 0 1.217 2.101Zm2.61-9.598a6.725 6.725 0 0 1 1.519-1.739 2.232 2.232 0 0 1 1.306-.543 1.532 1.532 0 0 1 1.084.512c.343.334.601.745.753 1.199.18.54.268 1.108.26 1.678a9.94 9.94 0 0 1-1.591 5.086 6.691 6.691 0 0 1-1.526 1.718c-.37.316-.832.505-1.317.539-.188 0-.373-.043-.542-.125a2.2 2.2 0 0 1-.66-.506 2.934 2.934 0 0 1-.64-1.124 5.128 5.128 0 0 1-.225-1.574 10.15 10.15 0 0 1 1.58-5.121ZM39.033 100h-.001a2 2 0 0 0-3.987-.308 6.996 6.996 0 0 0-.018.533c.002.946.127 1.888.375 2.802a7.858 7.858 0 0 0 2.163 3.707c.585.546 1.279.96 2.036 1.216a6.273 6.273 0 0 0 2.007.32 7.273 7.273 0 0 0 2.818-.576 2.001 2.001 0 0 0-1.62-3.657 3.306 3.306 0 0 1-1.198.233 2.28 2.28 0 0 1-.724-.109 1.613 1.613 0 0 1-.592-.353 3.892 3.892 0 0 1-1.034-1.842 6.818 6.818 0 0 1-.23-1.741l.003-.19.002-.035Z"/><path fill="#FFE632" d="M32.723 92.183a6.729 6.729 0 0 0 2.895 1.695c.612.165 1.243.25 1.877.252a9.147 9.147 0 0 0 4.478-1.386c.575-.315 1.083-.602 1.523-.79a2.821 2.821 0 0 1 1.105-.277c.51.022.998.22 1.378.561a4.592 4.592 0 0 1 1.608 2.216c.425 1.634.634 3.316.624 5.005a17.07 17.07 0 0 0 1.47 6.56 13.95 13.95 0 0 0 5.695 5.732 16.31 16.31 0 0 0 7.156 2.269 9.672 9.672 0 0 0 5.502-1.495 14.726 14.726 0 0 0 5.3-6.22 19.72 19.72 0 0 0 1.929-8.417 14.38 14.38 0 0 0-2.606-8.598 102.492 102.492 0 0 0-14.845-15.284 66.174 66.174 0 0 0-9.348-6.723c-3.054-1.737-5.929-2.892-8.558-2.907-.257 0-.511.012-.763.037a8 8 0 0 0-4.347 1.937 16.108 16.108 0 0 0-4.37 6.53 23.898 23.898 0 0 0-1.6 8.507 17.235 17.235 0 0 0 1.52 7.378 11.54 11.54 0 0 0 2.377 3.418ZM33.87 71.63a11.621 11.621 0 0 1 2.595-3.287A5.41 5.41 0 0 1 39.397 67c.162-.016.332-.024.509-.024 1.818-.015 4.424.923 7.266 2.563A76.692 76.692 0 0 1 60.549 79.93a91.02 91.02 0 0 1 10.017 10.904 11.798 11.798 0 0 1 2.097 7.053 16.859 16.859 0 0 1-2.88 9.372 10.859 10.859 0 0 1-3.118 3.055 7.063 7.063 0 0 1-4.031 1.107 13.811 13.811 0 0 1-5.958-1.922 11.426 11.426 0 0 1-4.652-4.607c-1.173-2.43-1.169-4.952-1.328-7.503a14.16 14.16 0 0 0-.657-3.802 7.224 7.224 0 0 0-2.478-3.413 4.81 4.81 0 0 0-2.96-1.098 5.368 5.368 0 0 0-2.133.489c-.941.41-1.748.933-2.55 1.318-.746.401-1.576.622-2.422.646a4.658 4.658 0 0 1-1.209-.165 4.142 4.142 0 0 1-1.768-1.062 8.971 8.971 0 0 1-1.825-2.656 14.669 14.669 0 0 1-1.267-6.26 20.828 20.828 0 0 1 2.443-9.757Z"/><path fill="#BEBEC9" d="M66.016 141.244v-.001h-.001v.001ZM158.666 136.517l.001.001.005.003-.006-.004ZM190.368 123.052a5.754 5.754 0 0 0-2.943-.791 7.496 7.496 0 0 0-4.154 1.357 10.37 10.37 0 0 0-3.234 3.6 10.61 10.61 0 0 0-1.356 5.091 8.084 8.084 0 0 0 .761 3.512 6.026 6.026 0 0 0 2.356 2.607 5.754 5.754 0 0 0 2.943.791 7.496 7.496 0 0 0 4.154-1.357 10.379 10.379 0 0 0 3.235-3.599v-.001a10.622 10.622 0 0 0 1.356-5.091 8.084 8.084 0 0 0-.761-3.512 6.029 6.029 0 0 0-2.357-2.607Zm-2.926 12.654a4.922 4.922 0 0 1-2.701.913 3.141 3.141 0 0 1-1.622-.431 3.425 3.425 0 0 1-1.336-1.498 5.479 5.479 0 0 1-.502-2.381 8.02 8.02 0 0 1 1.032-3.835 7.77 7.77 0 0 1 2.412-2.7 4.916 4.916 0 0 1 2.7-.913 3.147 3.147 0 0 1 1.623.431c.585.355 1.05.877 1.336 1.499.343.746.515 1.559.501 2.38a8.02 8.02 0 0 1-1.032 3.835 7.777 7.777 0 0 1-2.411 2.7ZM156.669 98.45a4.488 4.488 0 0 0-1.675-.32 5.536 5.536 0 0 0-2.634.714 1.3 1.3 0 1 0 1.241 2.285 2.947 2.947 0 0 1 1.393-.399c.242-.001.482.044.707.134.537.239.965.669 1.202 1.207.363.784.541 1.642.52 2.505a9.135 9.135 0 0 1-.601 3.174 8.476 8.476 0 0 1-2.158 3.3 3.735 3.735 0 0 1-2.379 1.106 1.886 1.886 0 0 1-.708-.133 2.247 2.247 0 0 1-1.078-.984 4.891 4.891 0 0 1-.609-2.014 1.293 1.293 0 0 0-.916-1.125 1.308 1.308 0 0 0-1.387.425 1.296 1.296 0 0 0-.284.959 7.47 7.47 0 0 0 .965 3.091 4.85 4.85 0 0 0 2.342 2.061 4.47 4.47 0 0 0 1.675.32 6.278 6.278 0 0 0 4.12-1.775 11.04 11.04 0 0 0 2.851-4.318c.497-1.306.757-2.69.767-4.087a8.211 8.211 0 0 0-.797-3.673 4.963 4.963 0 0 0-2.557-2.452Z"/><path fill="#BEBEC9" d="M197.817 121.278a17.143 17.143 0 0 0-5.536-8.156 16.651 16.651 0 0 0-9.988-3.831h-.084l-1.4.039h-.007a14.062 14.062 0 0 0-7.453 2.633 19.703 19.703 0 0 0-5.951 6.705v.001a21.788 21.788 0 0 0-.956 1.984 3.612 3.612 0 0 0-1.248.419 9.85 9.85 0 0 0-2.478 2.078 27.975 27.975 0 0 0-3.798 5.581 39.639 39.639 0 0 0-2.682 6.387 35.889 35.889 0 0 0-2.714-1.271 22.422 22.422 0 0 0-8.305-1.92c-.422 0-.844.021-1.265.064a31.317 31.317 0 0 0-1.36-5.027 50.506 50.506 0 0 0 5.104-1.845c1.931-.808 3.583-1.597 4.732-2.089l.004-.001a1.86 1.86 0 0 0 .841-.76c.2-.352.344-.734.424-1.132.064-.279.101-.58.14-.879a13.561 13.561 0 0 0 4.37-2.45 18.445 18.445 0 0 0 5.416-7.798 19.601 19.601 0 0 0 1.264-6.842 15.417 15.417 0 0 0-1.783-7.421c-.03-.056-.066-.108-.097-.163a1.202 1.202 0 0 0-.054-.22 16.001 16.001 0 0 0-7.278-7.35 257.35 257.35 0 0 0 3.639-4.59 106.277 106.277 0 0 0 2.922-3.94 22.324 22.324 0 0 0 1.749-2.82 15.324 15.324 0 0 0 1.546-6.653 13.835 13.835 0 0 0-.372-3.224 9.39 9.39 0 0 0-.781-2.173 4.364 4.364 0 0 0-1.074-1.271 7.968 7.968 0 0 0-2.212-1.273 7.184 7.184 0 0 0-2.531-.516 3.967 3.967 0 0 0-1.542.286c-3.786 1.6-8.038 4.541-12.38 8.08-3.745 3.056-7.535 6.56-11.062 10.028a51.05 51.05 0 0 0-17.052-31.504c-15.47-13.432-30.937-19.255-44.679-19.254-.907 0-1.805.032-2.696.083a82.777 82.777 0 0 0 1.069-2.788c.367-.963.664-1.952.889-2.959.193-1 .29-2.016.292-3.035a14.713 14.713 0 0 0-1.056-5.522 10.692 10.692 0 0 0-1.915-3.185 4.548 4.548 0 0 0-1.724-1.128 5.705 5.705 0 0 0-2.01-.363 4.903 4.903 0 0 0-3.041.987c-3.662 2.898-7.27 7.655-10.73 13.045-3.45 5.388-6.72 11.407-9.536 16.773a61.393 61.393 0 0 0-10.143 12.698 54.44 54.44 0 0 0-3.099 6.098c-.17.384-.342.788-.515 1.194a10.676 10.676 0 0 0-4.222-1.373 6.112 6.112 0 0 0-1.286-1.085c.056-.345.085-.694.085-1.043a10.771 10.771 0 0 0-.692-3.541 26.82 26.82 0 0 0-3.525-6.387 1.301 1.301 0 0 0-.968-.508l-2.417-.121a1.29 1.29 0 0 0-.485.073 1.303 1.303 0 0 0-.23-.334 2.318 2.318 0 0 0-.876-.547 4.919 4.919 0 0 0-1.184-.253c-.345-.034-.693-.05-1.04-.049-.461 0-.792.025-.814.026a1.3 1.3 0 0 0-1.198 1.418l.129 1.374a48.121 48.121 0 0 0-1.388-1.47c-.264-.263-.501-.49-.725-.68a3.793 3.793 0 0 0-.353-.27 2.055 2.055 0 0 0-.238-.137 1.502 1.502 0 0 0-.441-.138l-.245-.018a1.936 1.936 0 0 0-.743.156 3.467 3.467 0 0 0-.814.5 9.517 9.517 0 0 0-.91.849c-.258.268-.48.515-.58.618h-.002c-.159.166-.275.368-.338.59-.04.138-.06.28-.058.425.002.192.03.384.086.569.085.284.193.56.321.827.459.985 1.236 2.3 1.916 3.413.4.652.759 1.22.99 1.582l-.154 1.115c-.243.08-.521.177-.82.29-.473.177-.936.38-1.386.61-.48.236-.92.546-1.305.918-.19.197-.321.443-.382.71a1.989 1.989 0 0 0-.05.46c.007.308.047.613.119.912.142.597.317 1.186.524 1.764a1.296 1.296 0 0 0 .98.834l5.325 1.016c.206.071.733.245 1.453.426 1.073.285 2.176.44 3.286.464h.01c.011.056.015.113.027.17l.004.014c.027.123.06.253.097.384a13.338 13.338 0 0 0-1.36 5.77 10.645 10.645 0 0 0 .414 3.002l.001.003c1.414 4.722 4.62 9.602 7.596 13.385.237.3.472.565.707.838-.112 1.45-.178 2.9-.18 4.341a40.253 40.253 0 0 0 1.347 10.745 32.975 32.975 0 0 0 7.588 12.968 65.21 65.21 0 0 0 21.914 15.248 76.181 76.181 0 0 0 9.426 3.417 65.327 65.327 0 0 0 5.448 5.885c9.228 8.857 20.546 12.57 28.417 14.271.489.725.976 1.413 1.413 2.023a27.042 27.042 0 0 0 4.07 4.466 16.173 16.173 0 0 0 5.589 3.405c.756.231 1.525.421 2.302.57a25.693 25.693 0 0 0 3.09 4.617 21.14 21.14 0 0 0 11.008 6.998c.328.9.712 1.834 1.081 2.685a76.017 76.017 0 0 0 1.201 2.625 1.295 1.295 0 0 0 1.486.693c.011-.003.581-.145 1.206-.333.314-.095.64-.199.938-.313.151-.057.299-.121.443-.192l.241-.139c.117-.077.224-.168.319-.271a4.432 4.432 0 0 0 1.027-2.152c.115-.65.167-1.31.153-1.97l-.002-.59c-.001-.103 0-.197.003-.285.508.019 1.245.102 1.984.197a22.18 22.18 0 0 0 2.372.224c.163.002.325-.008.486-.029.317-.048.62-.168.883-.352.354-.253.664-.563.917-.918.192.033.493.084.869.137.686.105 1.378.164 2.072.179.287-.001.574-.029.856-.084.069.028.141.049.213.064.023.002 1.008.097 2.085.098.41.002.82-.016 1.228-.056a4.112 4.112 0 0 0 1.226-.287 2.09 2.09 0 0 0 .845-.705c.273-.405.471-.855.586-1.33.153-.609.256-1.23.307-1.857.047-.524.056-.898.056-.919a1.3 1.3 0 0 0-.295-.853 3.436 3.436 0 0 0-1.253-.847 14.237 14.237 0 0 0-3.526-.953 63.408 63.408 0 0 0-4.694-2.409c.068-.475.104-.954.108-1.434a9.869 9.869 0 0 0-1.146-4.621 15.743 15.743 0 0 0-4.769-5.211 29.001 29.001 0 0 0-1.369-.941 27.465 27.465 0 0 0 6.341-2.368 18.64 18.64 0 0 0 2.018-1.265c2.149 1.596 5.18 2.591 9.174 3.094 1.513.2 3.036.306 4.562.316 3.405.001 5.668-.646 7.225-1.634a6.912 6.912 0 0 0 1.964-1.865 20.9 20.9 0 0 0 5.832.781c2.973-.05 5.93-.431 8.819-1.137 2.677-.615 4.996-1.329 6.524-1.722l.012-.003c.377-.108.71-.33.955-.635a3.94 3.94 0 0 0 .613-1.101c.113-.29.201-.611.289-.932a14.571 14.571 0 0 0 5.775-2.362 19.629 19.629 0 0 0 6.125-6.825 20.156 20.156 0 0 0 2.579-9.661 15.412 15.412 0 0 0-1.001-5.535 1.256 1.256 0 0 0-.03-.312Zm-22.989-7.177a11.483 11.483 0 0 1 6.061-2.172l1.334-.037c2.844.117 5.584 1.1 7.854 2.818a10.633 10.633 0 0 0-2.163-.24 13.842 13.842 0 0 0-7.662 2.52 19.638 19.638 0 0 0-6.125 6.825c-.257.466-.489.938-.707 1.413a13.367 13.367 0 0 0-1.98-2.069 15.105 15.105 0 0 0-2.5-1.733c.223-.504.462-1.006.735-1.502a17.118 17.118 0 0 1 5.153-5.823Zm-13.64-5.001a15.878 15.878 0 0 1-4.635 6.703 9.683 9.683 0 0 1-6.055 2.416c-.383 0-.764-.031-1.142-.094a8.158 8.158 0 0 1-3.889-1.892 8.313 8.313 0 0 1-2.207-3.617 1.31 1.31 0 0 0-.65-.755 1.309 1.309 0 0 0-.994-.073 1.278 1.278 0 0 0-.442.251 1.282 1.282 0 0 0-.446.891c-.012.171.009.342.064.504a10.903 10.903 0 0 0 2.917 4.714 9.952 9.952 0 0 0 2.992 1.849c.071.057.147.107.229.148a9.353 9.353 0 0 0 1.872.52l.021.006v.001l.009.002.009.002v-.001l.029.005c.01.001.02.005.031.007l.009.002.007.001v-.001l.037.005c.558.124 1.121.219 1.689.282-1.11.496-2.442 1.114-3.951 1.745a47.217 47.217 0 0 1-5.075 1.817 43.26 43.26 0 0 0-8.523-12.262 3.491 3.491 0 0 0 1.781-.572 9.84 9.84 0 0 0 2.011-1.731c2.434-2.619 8.459-9.506 14.241-16.43a8.595 8.595 0 0 1 3.172-.649 7.024 7.024 0 0 1 2.624.498A7.804 7.804 0 0 1 160.826 97a12.85 12.85 0 0 1 1.461 6.168 17.008 17.008 0 0 1-1.099 5.932Zm-41.034 12.636a1.846 1.846 0 0 1-1.06-.291 2.073 2.073 0 0 1-.753-1.004 5.307 5.307 0 0 1-.316-1.946 16.532 16.532 0 0 1 2.759-8.185 1.293 1.293 0 0 0 .164-.981 1.315 1.315 0 0 0-.578-.81 1.327 1.327 0 0 0-.474-.18 1.31 1.31 0 0 0-.97.224 1.289 1.289 0 0 0-.347.37 19 19 0 0 0-3.154 9.562 7.884 7.884 0 0 0 .5 2.908c.046.116.106.224.159.337a35.038 35.038 0 0 1-1.232-.083 12.834 12.834 0 0 1-2.952-.536c-.032-.011-.065-.005-.097-.014-.032-.025-.049-.061-.083-.084a3.18 3.18 0 0 1-1.161-1.522 7.39 7.39 0 0 1-.448-2.715c-.009-2.978 1.248-7.082 3.723-11.029a26.734 26.734 0 0 1 3.9-4.891 6.006 6.006 0 0 0 1.797 1.506 5.745 5.745 0 0 0 2.734.757 4.128 4.128 0 0 0 1.471-.264 3.07 3.07 0 0 1 .289-.088 9.19 9.19 0 0 1 2.28-.297 5.717 5.717 0 0 1 2.195.388 3.296 3.296 0 0 1 1.626 1.409.433.433 0 0 1 .184.381c.29.754.426 1.558.399 2.366a16.47 16.47 0 0 1-2.599 8.27 18.393 18.393 0 0 1-4.218 4.803 6.696 6.696 0 0 1-3.738 1.639Zm26.958-27.454a638.96 638.96 0 0 1-8.67 10.067l-1.58-9.975a7.439 7.439 0 0 1-.091-1.164 7.292 7.292 0 0 1 2.046-5.087 199.587 199.587 0 0 1 10.409-9.915c1.552-1.373 2.96-2.57 4.138-3.532 1.177-.96 2.132-1.692 2.746-2.113.803-.57 1.635-1.1 2.492-1.586.212-.118.433-.22.66-.304l.067-.019c.25.438.409.922.465 1.422.124.818.181 1.645.172 2.472a33.184 33.184 0 0 1-.211 3.537c-.006.12.004.24.032.357-2.741 3.853-7.779 10.038-12.675 15.84Zm-5.806-18.064a112.2 112.2 0 0 1 8.804-7.249 41.445 41.445 0 0 1 7.918-4.733c.171-.06.352-.088.533-.082a5.156 5.156 0 0 1 2.151.59c.329.162.639.361.924.593.177.137.328.305.446.495.244.497.429 1.021.549 1.562.202.857.303 1.736.3 2.617a12.368 12.368 0 0 1-.409 3.122 14.576 14.576 0 0 0-.164-1.488 5.863 5.863 0 0 0-1-2.624 3.071 3.071 0 0 0-.533-.538 2.195 2.195 0 0 0-.53-.309h-.002a2.26 2.26 0 0 0-.829-.154 4.543 4.543 0 0 0-2.091.666c-.941.53-1.854 1.11-2.736 1.734-.719.495-1.705 1.253-2.917 2.242a190.617 190.617 0 0 0-14.765 13.645 9.893 9.893 0 0 0-2.784 6.903c0 .526.041 1.052.124 1.571l1.715 10.836c.028.172.09.337.183.485.094.147.216.275.36.374-.622.693-1.156 1.279-1.571 1.727a7.386 7.386 0 0 1-1.459 1.28c-.111.071-.23.129-.354.172l-.062.015c-.016-.013-.035-.018-.052-.03.16-.863.245-1.738.254-2.616a8.544 8.544 0 0 0-.62-3.414 1.24 1.24 0 0 0-.19-.27 1.283 1.283 0 0 0-.131-.379 5.911 5.911 0 0 0-2.862-2.49 8.285 8.285 0 0 0-3.201-.591 11.785 11.785 0 0 0-2.954.386 5.79 5.79 0 0 0-.546.171h.001a1.535 1.535 0 0 1-.541.092 3.474 3.474 0 0 1-1.935-.73 2.885 2.885 0 0 1-.636-.635.929.929 0 0 1-.094-.17c.072-.1.177-.239.31-.407.883-1.125 2.922-3.528 5.663-6.55 4.114-4.536 9.83-10.495 15.733-15.819Zm-88.192-50.49c3.372-5.276 6.916-9.866 10.15-12.407.417-.295.92-.446 1.431-.428.372 0 .74.066 1.088.195.28.098.534.258.744.468a8.238 8.238 0 0 1 1.407 2.389c.578 1.446.872 2.99.866 4.546a13.551 13.551 0 0 1-.246 2.548 19.47 19.47 0 0 1-.782 2.567 93.991 93.991 0 0 1-1.536 3.929 45.605 45.605 0 0 0-3.539.55 42.52 42.52 0 0 0-16.1 6.783c2.05-3.76 4.25-7.603 6.517-11.14ZM18.202 60.373c.1-.022.196-.02.294-.033-.42.167-.826.366-1.216.594-.377.232-.737.49-1.078.77.015-.019.025-.041.04-.06a3.438 3.438 0 0 1 1.96-1.271ZM4.34 49.956v-.001.001Zm5.024 11.86a13.02 13.02 0 0 1-.267-.087l-.067-.023-.016-.005-.197-.054-4.667-.89a8.12 8.12 0 0 1-.194-.727c.083-.052.173-.104.274-.155a12.443 12.443 0 0 1 1.651-.681c.255-.087.477-.157.633-.204l.18-.052.056-.016a1.297 1.297 0 0 0 .944-1.076l.334-2.412a1.306 1.306 0 0 0-.197-.887l-.14-.218a89.434 89.434 0 0 1-1.825-2.965 29.194 29.194 0 0 1-.914-1.666 9.259 9.259 0 0 1-.124-.262c.195-.206.405-.415.596-.583l.017.016c.66.633 1.717 1.792 2.584 2.77.435.49.826.94 1.108 1.265.282.325.453.525.453.525a1.3 1.3 0 0 0 2.283-.965l-.366-3.909c.102.01.21.017.297.031.063.01.116.021.165.033l2.1 4.499a1.3 1.3 0 0 0 2.356-1.1l-1.097-2.35.948.048a27.23 27.23 0 0 1 1.612 2.6c.476.862.882 1.761 1.214 2.689.31.827.482 1.7.511 2.582 0 .052-.01.095-.012.146a5.753 5.753 0 0 0-1.964.104l-.007.001a6.041 6.041 0 0 0-3.446 2.224 6.306 6.306 0 0 0-1.117 2.407c-.03 0-.055.004-.086.004a11.537 11.537 0 0 1-2.652-.385 17.23 17.23 0 0 1-.96-.271Zm5.3 11.861a8.056 8.056 0 0 1-.308-2.266c.015-2.198.71-4.34 1.987-6.13a7.788 7.788 0 0 1 2.27-2.113 6.308 6.308 0 0 1 2.949-.894c.206-.01.433-.02.687-.02a8.003 8.003 0 0 1 4.388 1.258 94.023 94.023 0 0 0-5.769 21.454c-2.567-3.423-5.11-7.584-6.205-11.289Zm29.482 51.725a57.315 57.315 0 0 1-12.989-10.451 30.425 30.425 0 0 1-7.012-11.921 37.676 37.676 0 0 1-1.25-10.05c-.004-7.759 1.86-15.99 4.126-22.892a98.35 98.35 0 0 1 3.503-9.139 52.122 52.122 0 0 1 2.935-5.79 54.737 54.737 0 0 1 12.907-14.906 39.83 39.83 0 0 1 16.843-7.619 43.938 43.938 0 0 1 8.638-.844c12.996 0 27.86 5.5 42.975 18.617a48.663 48.663 0 0 1 16.437 31.852 257.737 257.737 0 0 0-4.917 5.108 229.027 229.027 0 0 0-6.311 7.012 91.738 91.738 0 0 0-1.887 2.253c-.233.289-.421.53-.569.728-.074.1-.138.187-.195.272a2.654 2.654 0 0 0-.174.286c-.004.008-.005.017-.009.025a1.292 1.292 0 0 0-.444.26 28.618 28.618 0 0 0-5.122 6.176c-2.677 4.299-4.109 8.741-4.118 12.407a9.91 9.91 0 0 0 .634 3.682 5.786 5.786 0 0 0 2.13 2.718c.109.065.227.113.351.143.114.102.246.182.388.237 1.17.372 2.38.601 3.605.68.104.009.208.015.313.023-7.244 5.411-16.996 9.3-29.443 10.861a51.47 51.47 0 0 1-6.411.392c-12.103.005-24.77-4.008-34.934-10.12Zm23.67 13.964a65.787 65.787 0 0 1-2.806-2.857 64.802 64.802 0 0 0 14.07 1.613c2.25.003 4.5-.135 6.734-.412 14.219-1.782 25.238-6.551 33.122-13.315a45.869 45.869 0 0 0 1.479-.039c.068-.011.135-.027.2-.05a9.558 9.558 0 0 0 4.864-2.149 19.363 19.363 0 0 0 3.229-3.245 23.647 23.647 0 0 1 3.872 12.797 24.273 24.273 0 0 1-.621 5.398 23.633 23.633 0 0 1-3.801 8.743 18.987 18.987 0 0 1-5.188 4.879c-.508-.2-1.023-.381-1.544-.543a11.436 11.436 0 0 0-3.542-4.795 37.579 37.579 0 0 0-11.602-5.604l-.005-.002a19.158 19.158 0 0 0-5.674-.99c-.134 0-.265.008-.397.012a6.26 6.26 0 0 0-6.13.27 6.73 6.73 0 0 0-2.687 8.166c-.003.094-.01.189-.01.282.023 1.397.317 2.776.867 4.059.117.286.244.566.376.841-7.39-1.854-16.969-5.522-24.805-13.057l-.001-.002Zm33.816 20.684a24.518 24.518 0 0 1-3.664-4.016l-.004-.006c-.53-.74-1.11-1.545-1.659-2.383a18.543 18.543 0 0 1-1.652-3.043 8.175 8.175 0 0 1-.673-3.077c0-.135.004-.27.014-.405a6.15 6.15 0 0 1 .87-2.702 5.904 5.904 0 0 1 2.16-2.182 6.746 6.746 0 0 1 2.982-.823 9.72 9.72 0 0 1 .597-.018c1.665.043 3.314.336 4.892.87a35.089 35.089 0 0 1 10.813 5.194l.001.001a8.119 8.119 0 0 1 1.821 1.994c-.608-.08-1.22-.122-1.833-.126-.346 0-.689.032-1.032.059a6.274 6.274 0 0 0-7.517.79l-.003.002a6.735 6.735 0 0 0-1.645 7.515 10.323 10.323 0 0 0-.128 1.56c.017 1.275.224 2.541.614 3.755-.109-.032-.207-.053-.318-.087a13.746 13.746 0 0 1-4.636-2.872Zm6.569-7.089.007-.008-.003.003-.004.005Zm14.258 14.306a4.124 4.124 0 0 1 1.302-3.03 3.738 3.738 0 0 1 5.323.198 6.214 6.214 0 0 0-2.533.692 7.95 7.95 0 0 0-2.91 2.803c-.257.407-.492.829-.702 1.262a4.192 4.192 0 0 1-.48-1.925Zm15.384 6.764c.017-.057.043-.113.058-.17a3.86 3.86 0 0 0 .132-.938 2.203 2.203 0 0 0-.11-.706 1.672 1.672 0 0 0-.597-.817 3.878 3.878 0 0 0-.641-.353c-.774-.356-2.007-.804-3.093-1.187a121.687 121.687 0 0 0-1.987-.679 1.306 1.306 0 0 0-.993.072 1.308 1.308 0 0 0-.578 1.747 1.308 1.308 0 0 0 .755.649c0 .001.287.095.733.247.668.227 1.69.58 2.593.917.451.168.873.332 1.196.469l.047.02a3.06 3.06 0 0 1-.059.188 5.756 5.756 0 0 1-.673 1.336c-.084.124-.179.24-.285.346-.38.001-1.195-.096-2.031-.204a22.706 22.706 0 0 0-2.524-.225c-.092.001-.182.008-.272.012l-1.627-.362a1.292 1.292 0 0 0-.981.17 1.296 1.296 0 0 0-.584 1.323 1.305 1.305 0 0 0 1.001 1.045l.106.023c-.015.229-.03.457-.031.682l.002.59c.013.49-.022.979-.103 1.462a1.955 1.955 0 0 1-.331.802c-.083.034-.19.075-.321.119-.178.061-.379.123-.579.183a70.074 70.074 0 0 1-1.224-2.803 29.555 29.555 0 0 1-.788-2.127 9.528 9.528 0 0 1-.228-.825 2.326 2.326 0 0 1-.064-.415c.043-.123.083-.243.123-.379.154-.536.35-1.294.642-2.138.007-.018.02-.032.027-.05a11.21 11.21 0 0 1 1.85-3.5 4.65 4.65 0 0 1 1.36-1.128 3.615 3.615 0 0 1 1.726-.416l.166.003c.474.025.945.092 1.407.2l.019.004c1.686.402 3.325.978 4.892 1.721a58.856 58.856 0 0 1 4.386 2.233c-.009.037-.032.067-.038.105-.126.891-.238 1.79-.395 2.399a2.83 2.83 0 0 1-.172.507 2.206 2.206 0 0 1-.171.005 13.38 13.38 0 0 1-1.707-.152l-.034-.005Zm4.895.236c-.094 0-.184-.004-.278-.006.07-.282.126-.569.177-.86.088-.506.156-1.017.224-1.506a8.638 8.638 0 0 1 1.481.477c-.024.278-.061.603-.117.918a4.389 4.389 0 0 1-.226.867l-.013.027a3.558 3.558 0 0 1-.342.047 9.981 9.981 0 0 1-.906.036Zm-11.224-15.439c.951.848 1.75 1.853 2.361 2.971a7.25 7.25 0 0 1 .851 3.418c0 .126-.017.26-.023.388a23.434 23.434 0 0 0-2.33-.74 6.52 6.52 0 0 0-1.208-2.025 6.346 6.346 0 0 0-4.478-2.212 6.369 6.369 0 0 0-4.695 1.705 6.778 6.778 0 0 0-.503 9.343l-.001.001.011.012.006.009.001-.001c.101.12.208.222.313.329-.101.328-.19.635-.264.897-.066.236-.122.441-.168.599a4.16 4.16 0 0 1-.089.286l.003-.009a2.139 2.139 0 0 0-.142.799c.001.03.007.058.008.087a19.063 19.063 0 0 1-8.27-5.75v-.001a22.155 22.155 0 0 1-3.197-4.98 11.582 11.582 0 0 1-1.128-4.7c-.002-.495.046-.99.14-1.477v-.007l.002-.006a6.768 6.768 0 0 1 1.491-3.147l.007-.007a7.174 7.174 0 0 1 4.888-2.614c.397-.046.797-.069 1.197-.068 1.292.014 2.576.205 3.816.568l.006.002c.85.237 1.683.532 2.493.881.425.184.843.374 1.233.569l.003.001a33.195 33.195 0 0 1 7.666 4.879Zm1.491-8.046a31.446 31.446 0 0 1-6.316 1.703c-.319-.17-.639-.33-.959-.493a21.628 21.628 0 0 0 4.535-4.617 26.259 26.259 0 0 0 4.229-9.691c.452-1.96.682-3.964.686-5.975a26.503 26.503 0 0 0-4.857-15.05c.45-.728.855-1.482 1.214-2.258 7.435 7.836 10.273 15.801 10.276 22.562a22.407 22.407 0 0 1-.902 6.371 9.428 9.428 0 0 1-2.173 3.759 15.68 15.68 0 0 1-5.733 3.689Zm24.963-.39c-1.01.642-2.74 1.228-5.831 1.229a33.929 33.929 0 0 1-4.237-.296h-.002a18.11 18.11 0 0 1-7.452-2.27c.064-.067.135-.126.198-.194a12.038 12.038 0 0 0 2.759-4.785v-.001a25.027 25.027 0 0 0 1.01-7.112c0-.784-.045-1.583-.115-2.39.301-.027.606-.046.92-.046 2.522.106 5.001.69 7.306 1.721a30.879 30.879 0 0 1 4.716 2.442l.006.004c.212.139.42.293.633.46a6.912 6.912 0 0 1 2.115 2.686c.377.889.567 1.846.558 2.812a8.896 8.896 0 0 1-.611 3.208l-.001.002a4.758 4.758 0 0 1-.171.394l-.015.028a4.771 4.771 0 0 1-1.786 2.108Zm17.427-2.56a37.498 37.498 0 0 1-8.237 1.071 19.62 19.62 0 0 1-3.95-.384 6.756 6.756 0 0 0 1.38-8.384 6.421 6.421 0 0 0-2.303-2.383 6.42 6.42 0 0 0-3.183-.92c-.143-.105-.272-.209-.434-.314l-.126-.081a35.168 35.168 0 0 1 4.492-9.49 16.57 16.57 0 0 1 2.475-2.915c.279-.257.587-.481.916-.67.087-.048.178-.088.273-.119l.024-.006a11.73 11.73 0 0 1 3.414 2.239c.435.397.836.83 1.198 1.295.119.154.228.317.325.487l.076.153.015.039.002.006c.093.389.14.787.139 1.187a11.68 11.68 0 0 1-.135 1.517c-.076.581-.168 1.261-.199 2.076-.013.349-.02.693-.02 1.032a17.914 17.914 0 0 0 .612 4.909 10.555 10.555 0 0 0 3.67 5.583c.081.064.179.114.263.176.356.284.73.544 1.12.778.516.298 1.058.549 1.618.751.816.327 1.655.595 2.51.8-1.574.424-3.623 1.037-5.935 1.567Zm18.599-12.302a17.046 17.046 0 0 1-5.302 5.925 11.257 11.257 0 0 1-6.209 2.076 7.844 7.844 0 0 1-2.716-.485c-.266-.11-.528-.223-.77-.344a9.966 9.966 0 0 1-1.157-.685 8.873 8.873 0 0 1-3.046-4.381 12.62 12.62 0 0 1-.601-3.036c-.009-.131-.011-.27-.017-.405-.012-.238-.027-.475-.027-.718a17.578 17.578 0 0 1 2.255-8.406 17.065 17.065 0 0 1 5.302-5.925 11.265 11.265 0 0 1 6.209-2.076 7.702 7.702 0 0 1 3.961 1.057 8.27 8.27 0 0 1 3.226 3.601 12.421 12.421 0 0 1 1.147 5.397 17.566 17.566 0 0 1-2.255 8.405Z"/><path fill="#BEBEC9" d="M89.842 111.49a30.296 30.296 0 0 0-2.49-31.824c-4.16-6.195-10.774-12.143-16.965-16.853a117.857 117.857 0 0 0-8.614-5.97 48.209 48.209 0 0 0-5.899-3.268 24.798 24.798 0 0 0-9.426-2.164 14.14 14.14 0 0 0-6.564 1.521 14.905 14.905 0 0 0-5.812 5.606 67.06 67.06 0 0 0-6.874 16.81A73.474 73.474 0 0 0 24.4 93.946c0 .982.033 1.935.1 2.853.517 6.917 4.414 13.309 9.975 18.291a41.932 41.932 0 0 0 20.359 9.911c2.013.347 4.053.521 6.096.518a40.709 40.709 0 0 0 17.92-4.253 31.611 31.611 0 0 0 6.719-4.442 17.672 17.672 0 0 0 4.274-5.334Zm-5.993 3.383a31.81 31.81 0 0 1-9.947 5.699 38.018 38.018 0 0 1-12.973 2.347 32.921 32.921 0 0 1-5.65-.48 39.344 39.344 0 0 1-19.071-9.286c-5.202-4.656-8.678-10.509-9.115-16.544a36.312 36.312 0 0 1-.094-2.663 70.967 70.967 0 0 1 2.707-17.911 64.598 64.598 0 0 1 6.58-16.133 12.3 12.3 0 0 1 4.792-4.66 11.538 11.538 0 0 1 5.37-1.23 22.29 22.29 0 0 1 8.412 1.957 46.24 46.24 0 0 1 5.534 3.078 116.216 116.216 0 0 1 12.99 9.499 64.873 64.873 0 0 1 11.808 12.568c3.986 5.954 5.425 11.486 5.429 16.493a28.957 28.957 0 0 1-3.115 12.74 15.129 15.129 0 0 1-3.657 4.526ZM94.074 139.078l.002-.001-.002.001ZM95.849 157.542l-.004-.005-.001-.001.005.006ZM117.883 145.391l.001.001-.001-.001ZM131.162 162.837l.002.003.003.003-.005-.006ZM128.822 182.344l-.003.004-.003.003.006-.007Z"/><path fill="#BEBEC9" d="M55.846 59.684a1.3 1.3 0 1 0-1.172 2.321c.612.305 1.203.653 1.766 1.042a1.301 1.301 0 0 0 2.032-1.29 1.302 1.302 0 0 0-.54-.84 17.082 17.082 0 0 0-2.086-1.233ZM50.378 57.719a20.673 20.673 0 0 0-4.66-.588 9.226 9.226 0 0 0-4.55 1 1.3 1.3 0 1 0 1.29 2.258 6.76 6.76 0 0 1 3.26-.658c1.37.018 2.733.193 4.064.519a1.3 1.3 0 0 0 .596-2.531Z"/></svg>