<svg xmlns="http://www.w3.org/2000/svg" width="200" height="200" fill="none"><path fill="#FFD93A" d="M73.333 48.667c-8.724 2.566-12 40.5-1.333 44.166 10.666 3.667 49.5 2.5 53.5-.166 4-2.667 5.166-33.167 2.333-40.167s-37.5-8.833-54.5-3.833ZM140.25 129.5l.5-4.833s-.75-2.25 2.583-2.917c3.334-.667 10.25-1.833 10.25-1.833s1.5-.417 1.5 1.666c0 2.084-1.583 14.334-1.583 14.334l-13.25-6.417ZM139.25 133.333l9.333 7.667-9.166-1.583-.167-6.084ZM137.833 148.917l.417 5.083 6.583-1.25-7-3.833Z"/><path fill="#191C22" d="M138.548 48.5c-3.491-3.989-8.45-7.215-15.219-9.424-6.772-2.212-15.361-3.426-26.228-3.427-9.66 0-17.52.961-23.903 2.727-9.57 2.639-15.853 7.148-19.656 12.887-3.806 5.735-5.106 12.573-5.106 19.782a40.574 40.574 0 0 0 2.115 13.71 27.058 27.058 0 0 0 5.158 8.837c3.505 3.988 8.473 7.214 15.236 9.423 6.767 2.211 15.336 3.426 26.156 3.427 9.618-.001 17.457-.961 23.833-2.727 9.556-2.64 15.855-7.147 19.679-12.884 3.827-5.734 5.153-12.573 5.152-19.786a40.878 40.878 0 0 0-2.09-13.706 26.972 26.972 0 0 0-5.127-8.838Zm-79.925 2.796a24.27 24.27 0 0 1 2.672-2.842 1.302 1.302 0 0 1 2.106.52 1.299 1.299 0 0 1-.359 1.405c-.862.78-1.66 1.63-2.387 2.538a1.3 1.3 0 0 1-2.032-1.621Zm51.445 15.015h14.992v11.067h-14.992V66.31Zm14.992-2.6h-16.253a1.47 1.47 0 0 0-1.339 1.405V82.7a8.668 8.668 0 0 1-8.637 8.637H97.04a8.666 8.666 0 0 1-8.638-8.637V60.574a8.666 8.666 0 0 1 8.638-8.638h1.79a8.677 8.677 0 0 1 8.498 7.088 1.302 1.302 0 0 0 1.513 1.045 1.301 1.301 0 0 0 1.045-1.513 11.266 11.266 0 0 0-3.953-6.67h12.627a6.5 6.5 0 0 1 6.5 6.5v5.325Zm-55 2.6h15.742v11.067H70.06V66.31Zm15.742-5.737v3.137H70.06v-5.325a6.5 6.5 0 0 1 6.5-6.5h13.371a11.23 11.23 0 0 0-4.129 8.688ZM82.26 41.06a1.3 1.3 0 0 1-1.054 1.506 44.056 44.056 0 0 0-12.56 3.98 1.3 1.3 0 0 1-1.191-2.311 46.622 46.622 0 0 1 13.299-4.23 1.3 1.3 0 0 1 1.506 1.055Zm-12.2 43.825v-4.908h15.742v2.72a11.231 11.231 0 0 0 4.13 8.688H76.56a6.5 6.5 0 0 1-6.5-6.5Zm35.879 6.5a11.233 11.233 0 0 0 4.129-8.688v-2.72h14.992v4.908a6.5 6.5 0 0 1-6.5 6.5h-12.621Zm27.17 2.015c-.25.232-.506.46-.767.685l-.002.002a28.074 28.074 0 0 1-3.908 2.795c-.298.178-.604.353-.916.525a1.3 1.3 0 1 1-1.254-2.277c.285-.157.565-.317.839-.481a25.535 25.535 0 0 0 3.546-2.535c.236-.204.467-.41.691-.618a1.299 1.299 0 0 1 1.771 1.904Z"/><path fill="#191C22" d="M164.477 50.691c.934-9.897 2.461-27.748 2.793-32.804.015-.233.022-.458.022-.678a7.128 7.128 0 0 0-.351-2.319 4.634 4.634 0 0 0-1.751-2.364 5.302 5.302 0 0 0-2.45-.87 6.16 6.16 0 0 0-.678-.038 5.105 5.105 0 0 0-3.414 1.229 5.894 5.894 0 0 0-1.833 3.99c-.409 4.228-1.752 20.546-2.621 31.183-.16-.611-.32-1.222-.5-1.823-2.811-9.428-8.228-17.577-17.345-23.268-9.114-5.696-21.828-8.946-39.248-8.947-11.616 0-21.132 1.445-28.892 4.096-11.64 3.965-19.323 10.708-23.982 19.162a46.836 46.836 0 0 0-4.373 11.37c-.867-10.613-2.253-27.465-2.67-31.773a5.894 5.894 0 0 0-1.833-3.99 5.104 5.104 0 0 0-3.414-1.229c-.227 0-.453.013-.678.038a5.01 5.01 0 0 0-3.168 1.487 4.8 4.8 0 0 0-1.033 1.747 7.13 7.13 0 0 0-.351 2.319c0 .22.008.446.023.68.332 5.055 1.859 22.905 2.793 32.802a20.41 20.41 0 0 0 1.699 7.123 7.114 7.114 0 0 0 1.38 1.953 6.44 6.44 0 0 0-1.5 1.64 8.81 8.81 0 0 0-1.011 3.04 24.733 24.733 0 0 0-.325 4.204c.003 1.43.089 2.858.257 4.278.263 2.4.802 4.761 1.605 7.038.309.868.69 1.708 1.137 2.512.348.65.803 1.237 1.348 1.734a9.878 9.878 0 0 0 4.135 1.837c.744.168 1.498.287 2.258.354.012.039.022.08.034.118a37.707 37.707 0 0 0 17.435 22.212c7.602 4.442 17.685 7.229 30.864 8.037v2.572c-1.693.106-3.32.234-4.83.381-2.093.205-3.966.447-5.517.727-.776.14-1.47.29-2.08.453a9.434 9.434 0 0 0-1.592.554c-.473.24-.887.579-1.215.995-.115.139-.22.294-.327.448a3.636 3.636 0 0 0-.974-.945 4.22 4.22 0 0 0-1.715-.603 9.041 9.041 0 0 0-1.242-.085 11.118 11.118 0 0 0-6.869 2.645 28.987 28.987 0 0 0-7.336 9.715 40.091 40.091 0 0 0-3.623 10.475 21.717 21.717 0 0 0-.322 3.674 15.792 15.792 0 0 0 1.99 7.989 10.16 10.16 0 0 0 5.08 4.503 6.273 6.273 0 0 0 2.214.407 6.445 6.445 0 0 0 2.733-.621c.164.12.321.25.493.357.904.551 1.878.976 2.896 1.265a229.667 229.667 0 0 0-.289 11.2 134.53 134.53 0 0 0 .868 16.367 1.302 1.302 0 0 0 1.453 1.131 1.308 1.308 0 0 0 1.126-1.457 100.115 100.115 0 0 1-.593-6.718 162.52 162.52 0 0 1-.254-9.323l.002-.43a63.425 63.425 0 0 0 12.088 2.251c5.285.514 10.592.761 15.901.74 6.848.017 13.691-.347 20.498-1.091 2.513-.293 4.719-.637 6.565-1.02.069-.007.135-.01.204-.018l.03-.002.05-.005c.106-.019.209-.053.306-.098.083-.019.178-.036.259-.054a22.42 22.42 0 0 0 2.594-.738c.023-.009.041-.019.065-.028l.003.493a136.397 136.397 0 0 1-.749 15.19c-.033.284-.063.574-.098.851a1.29 1.29 0 0 0 .262.96 1.296 1.296 0 0 0 1.371.457 1.297 1.297 0 0 0 .946-1.091c.622-5.433.911-10.899.868-16.367a239.867 239.867 0 0 0-1.956-30.029c.744.458 1.53.927 2.38 1.417 1.376.791 2.887 1.626 4.474 2.49.055.116.111.231.171.338.108.187.23.364.366.531l-.425 4.161a3.434 3.434 0 0 0 3.95 3.74l6.504-1.025c.078-.021.155-.049.228-.085.186.106.348.199.47.272a8.746 8.746 0 0 0 2.71 1.062c.097.02.196.025.293.042a18.496 18.496 0 0 0 2.383 1.864 10.738 10.738 0 0 0 5.61 1.473 11.174 11.174 0 0 0 4.465-.896 8.607 8.607 0 0 0 3.722-3.045 9.276 9.276 0 0 0 1.681-5.283 11.58 11.58 0 0 0-1.681-5.736 20.698 20.698 0 0 0-3.721-4.61l-.498.526.497-.527a35.91 35.91 0 0 0-.81-.737l-.009-.038c-.269-1.077-.533-2.118-.742-2.979-.209-.853-.366-1.555-.408-1.84-.107-.693-.199-1.579-.378-2.451a8.298 8.298 0 0 0-.368-1.303 3.863 3.863 0 0 0-.737-1.236 3.01 3.01 0 0 0-1.443-.841 4.219 4.219 0 0 0-1.006-.137l.662-6.354.001-.01a3.43 3.43 0 0 0-3.952-3.732l-10.767 1.697a4.352 4.352 0 0 0-3.462 2.983 24.592 24.592 0 0 0-8.895-2.014 11.334 11.334 0 0 0-3.893.632 8.156 8.156 0 0 0-2.544 1.481c-.055-.073-.105-.155-.163-.225a3.648 3.648 0 0 0-1.215-.995 9.515 9.515 0 0 0-1.591-.554 58.943 58.943 0 0 0-9.205-1.326c-1.228-.104-2.528-.19-3.853-.268v-2.652a83.534 83.534 0 0 0 18.957-3.407c11.612-3.671 19.328-9.974 24.026-18.083a42.226 42.226 0 0 0 3.823-8.894c.194.098.41.145.627.135a16.652 16.652 0 0 0 2.33-.36 9.885 9.885 0 0 0 4.136-1.836 6.51 6.51 0 0 0 1.348-1.734 19.333 19.333 0 0 0 1.639-4.043 33.318 33.318 0 0 0 1.103-5.507c.168-1.42.253-2.849.257-4.278a24.754 24.754 0 0 0-.325-4.203 8.805 8.805 0 0 0-1.011-3.04 6.956 6.956 0 0 0-2.113-2.086c-.014-.01-.028-.016-.041-.025a8.348 8.348 0 0 0 1.652-2.86c.62-1.86 1.004-3.79 1.145-5.746Zm-132.366-.244c-.93-9.864-2.46-27.748-2.787-32.73a7.58 7.58 0 0 1-.017-.508c-.011-.5.06-.999.21-1.476.13-.431.401-.807.77-1.068.377-.243.81-.389 1.258-.424.13-.015.26-.022.392-.022a2.506 2.506 0 0 1 1.695.578c.606.61.952 1.43.964 2.29.307 3.168 1.156 13.338 1.926 22.698a14914.266 14914.266 0 0 1 1.437 17.594c-.787.187-1.56.426-2.315.716-.197.077-.405.178-.609.267a3.542 3.542 0 0 1-1.488-1.711 18.01 18.01 0 0 1-1.436-6.204Zm6.505 33.018a7.201 7.201 0 0 1-2.821-1.235 4.125 4.125 0 0 1-.773-1.041A16.833 16.833 0 0 1 33.62 77.7c-.48-1.66-.819-3.356-1.014-5.073a34.53 34.53 0 0 1-.239-3.977 22.2 22.2 0 0 1 .285-3.754 6.51 6.51 0 0 1 .662-2.122c.35-.519.806-.957 1.337-1.285.894-.56 1.86-.997 2.871-1.296.21-.066.404-.121.581-.169a91.12 91.12 0 0 0-.226 6.485 71.43 71.43 0 0 0 1.884 17.183 14.443 14.443 0 0 1-1.145-.228Zm21.865 74.611a3.667 3.667 0 0 1-1.294-.239 7.573 7.573 0 0 1-3.755-3.382 13.202 13.202 0 0 1-1.635-6.678 19.15 19.15 0 0 1 .285-3.235 39.185 39.185 0 0 1 5.31-13.152 22.157 22.157 0 0 1 4.696-5.436 8.548 8.548 0 0 1 5.26-2.086c.297 0 .594.02.888.061l.177-1.288-.176 1.288c.237.024.466.099.671.221.238.161.414.398.498.672.084.241.14.491.166.745a5.3 5.3 0 0 0-1.564.578 6.123 6.123 0 0 0-2.394 2.572 7.61 7.61 0 0 0-.817 3.441 7.169 7.169 0 0 0 .713 3.152c.382.783.919 1.482 1.577 2.053-.273 1.628-.53 3.335-.77 5.121-.44.226-.875.455-1.295.695a24.073 24.073 0 0 0-3.071 2.077 6.564 6.564 0 0 0-2.968 12.296c.084.146.157.303.248.442a3.858 3.858 0 0 1-.75.082Zm3.778-.497a5.375 5.375 0 0 1-1.242-1.703 8.617 8.617 0 0 1-.709-2.612 4.706 4.706 0 0 1-.038-.597 5.774 5.774 0 0 1 1.59-3.762 21.5 21.5 0 0 1 7.401-4.962 57.494 57.494 0 0 1 9.55-3.222l-.312-1.262.312 1.262a17.833 17.833 0 0 1 4.21-.598c.228.001.441.024.66.038-.107.143-.219.287-.322.429-.155.217-.298.431-.444.646a6.563 6.563 0 0 0-4.23 8.584 6.567 6.567 0 0 0 8.83 3.691c.272.022.54.047.827.048a13.786 13.786 0 0 0 1.71-.127 8.777 8.777 0 0 1-1.412 1.421 14.37 14.37 0 0 1-3.009 1.807c-1 .417-2.033.756-3.086 1.014a63.988 63.988 0 0 1-13.754 2.017c-.72.016-1.44-.04-2.149-.166a9.177 9.177 0 0 1-4.383-1.946Zm44.445-24.592c-.354.04-.568.061-.568.061a1.281 1.281 0 0 0-.137.043 45.605 45.605 0 0 0-3.785-2.091l-.042-.019a83.885 83.885 0 0 1 5.177-.163c1.518 0 2.867.044 3.844.116.263.019.492.041.694.063a7.376 7.376 0 0 1-.6 1.203c-.052.019-.11.039-.185.061-.993.247-2.001.432-3.018.554-.537.073-1.026.131-1.38.172Zm-10.436-1.241a7.89 7.89 0 0 1 2.449.571 32.555 32.555 0 0 1 4.638 2.228c.703.401 1.33.783 1.813 1.093.242.155.448.292.607.402.126.087.213.152.265.191.065.126.116.258.151.395.13.498.216 1.006.256 1.519.056.598.08 1.244.08 1.84.004.6-.024 1.199-.087 1.796a.304.304 0 0 1-.106.214c-.261.2-.569.331-.895.379a6.469 6.469 0 0 1-1.302.123h-.031c.07-.163.14-.326.206-.493.18-.448.334-.906.461-1.372.131-.46.201-.935.211-1.413a2.494 2.494 0 0 0-.473-1.549 3.917 3.917 0 0 0-.769-.725 12.782 12.782 0 0 0-1.669-1.005c-1.819-.944-3.965-1.759-3.989-1.769a1.299 1.299 0 0 0-1.65 1.746c.141.315.401.561.724.683l.201.079c.462.182 1.653.662 2.797 1.21.57.273 1.13.565 1.563.83.184.11.361.229.532.358l.132.112.001.03a4.05 4.05 0 0 1-.223 1.088 17.207 17.207 0 0 1-.93 2.222c-.167.341-.326.646-.454.888-.13.245-.222.413-.283.531-.205.45-.494.858-.849 1.201-.206.166-.243.138-.244.143l-.117-.05a1.64 1.64 0 0 1-.465-.502 1.949 1.949 0 0 1-.155-.297l-.028-.081-.002-.005-.006.001c-.003-.026-.017-.047-.022-.072-.012-.084-.02-.176-.034-.254a2.548 2.548 0 0 1-.035-.436c.01-.473.104-.941.278-1.381.057-.15.122-.298.194-.441l.057-.107.011-.02-.001-.001a1.301 1.301 0 0 0-.441-1.78 1.301 1.301 0 0 0-1.782.435c-.184.315-.34.646-.468.988a6.557 6.557 0 0 0-.448 2.307c0 .293.024.584.072.872.046.261.069.526.07.791a5.447 5.447 0 0 1-1.138 3.175 5.752 5.752 0 0 1-2.76 1.839c-1.232.441-2.53.673-3.839.686a5.595 5.595 0 0 1-1.567-.186 5.147 5.147 0 0 1-2.59-1.642 3.653 3.653 0 0 1-.801-2.316 4.659 4.659 0 0 1 .294-1.59 15.414 15.414 0 0 1 2.168-3.627 53.732 53.732 0 0 1 5.567-6.135 48.688 48.688 0 0 1 2.649-2.365 13.87 13.87 0 0 1 1.754-1.283 1.04 1.04 0 0 1 .452-.069Zm55.582-10.611a.85.85 0 0 1 .031.15l-.005.095-1.358 13.039c-.094-.062-.18-.123-.276-.185a75.785 75.785 0 0 0-6.676-3.83 47.787 47.787 0 0 0-2.863-1.357 18.285 18.285 0 0 0-.832-.331l.436-4.3a1.753 1.753 0 0 1 1.472-1.556h.005l9.582-1.543a1.31 1.31 0 0 0 .484-.182Zm-9.242 17.74c.585.4 1.137.792 1.637 1.166a44.257 44.257 0 0 1-3.912-1.131 38.402 38.402 0 0 1-1.444-.522l.175-1.837c1.136.728 2.387 1.533 3.544 2.324Zm-5.304 13.976-.002-.015.004-.089.001-.003.197-1.945a69.347 69.347 0 0 0 2.666 1.6l-2.866.452Zm23.866-7.386a8.999 8.999 0 0 1 1.335 4.439 6.65 6.65 0 0 1-1.231 3.821 6.007 6.007 0 0 1-2.614 2.125 8.6 8.6 0 0 1-3.423.678 8.895 8.895 0 0 1-3.41-.654c.47-.086.928-.225 1.366-.416.146.01.291.023.439.023a6.942 6.942 0 0 0 5.72-2.992 6.937 6.937 0 0 0 .777-6.409c.054-.303.083-.61.088-.918 0-.181-.012-.361-.036-.54l-.001-.003a18.952 18.952 0 0 0-.139-.814c.412.527.789 1.082 1.129 1.66Zm-7.639-14.875.114-.004a1.97 1.97 0 0 1 .484.056.5.5 0 0 1 .211.095c.097.124.173.263.223.413.162.465.278.946.346 1.435.093.569.165 1.186.254 1.77.075.485.237 1.177.452 2.063.32 1.318.755 3.007 1.142 4.603.387 1.588.727 3.103.849 3.964l.011.177a6.29 6.29 0 0 1-.556 2.15 13.937 13.937 0 0 1-2.672 4.119 7.958 7.958 0 0 1-1.756 1.415 3.72 3.72 0 0 1-1.67.533c-.418.018-.814.029-1.19.029a10.894 10.894 0 0 1-2.279-.202 6.147 6.147 0 0 1-1.915-.748c-.505-.303-1.316-.744-2.304-1.292-1.474-.819-3.32-1.862-4.876-2.879a22.298 22.298 0 0 1-2.015-1.455 4.442 4.442 0 0 1-.958-.992 1.663 1.663 0 0 1-.276-.79c.007-.168.045-.333.115-.486a95.833 95.833 0 0 0 5.286 2.718 33.447 33.447 0 0 0 4.912 1.958 1.3 1.3 0 0 0 .689-2.507 24.22 24.22 0 0 1-3.059-1.149c-1.735-.76-3.624-1.715-5.103-2.5a93.298 93.298 0 0 1-1.846-1.006 38.217 38.217 0 0 1-.559-.32l-.158-.094-.023-.014a.748.748 0 0 1-.252-.315 1.347 1.347 0 0 1-.098-.532c.003-.368.101-.729.284-1.049.013-.022.025-.033.038-.053a38.113 38.113 0 0 0 5.786 2.203c1.106.333 2.186.616 3.143.82.812.192 1.641.305 2.474.336a2.81 2.81 0 0 0 .975-.147c.248-.088.471-.236.65-.429a1.5 1.5 0 0 0 .294-1.526 2.909 2.909 0 0 0-.411-.744 7.726 7.726 0 0 0-1.09-1.139 31.16 31.16 0 0 0-2.735-2.08c-1.548-1.074-3.278-2.172-4.684-3.075a81.14 81.14 0 0 1-1.789-1.172 13.666 13.666 0 0 1-.563-.399l-.118-.095c.009-.124.04-.246.09-.36a1.97 1.97 0 0 1 .512-.712.753.753 0 0 1 .439-.219l.024.001h.002c.266.066.526.152.779.258a58.214 58.214 0 0 1 6.606 3.325 59.87 59.87 0 0 1 3.593 2.216 19.425 19.425 0 0 1 2.505 1.929 1.306 1.306 0 0 0 .925.366 1.303 1.303 0 0 0 1.188-.822 1.291 1.291 0 0 0-.016-.995 1.288 1.288 0 0 0-.288-.417 13.212 13.212 0 0 0-.719-.639l.583-5.595Zm-29.143-6.951a8.745 8.745 0 0 1 3-.474c2.945.136 5.836.838 8.515 2.068l-.513 4.874c-.001.018.006.034.005.052-.027.041-.058.08-.084.122a3.9 3.9 0 0 0-.606 1.994 2.508 2.508 0 0 0 .469 1.475 1.305 1.305 0 0 0-.057.17l-.394 3.162a2.401 2.401 0 0 0-.792.394c-.486.39-.862.898-1.095 1.475a4.773 4.773 0 0 0-.382 1.852 3.932 3.932 0 0 0 .317 1.576c.103.232.233.452.385.655-.045.05-.087.103-.124.159a5.297 5.297 0 0 0-.22.508 139.732 139.732 0 0 1-4.961-2.838c-.822-.5-1.559-.971-2.211-1.415a144.25 144.25 0 0 0-.274-1.729 6.516 6.516 0 0 0 1.784-2.209 7.169 7.169 0 0 0 .713-3.153 7.434 7.434 0 0 0-1.44-4.439 5.842 5.842 0 0 0-1.772-1.573 5.307 5.307 0 0 0-2.155-.663c-.085-.223-.172-.427-.258-.634a5.407 5.407 0 0 1 2.15-1.409Zm-14.257-1.327c2.043.2 3.859.436 5.308.698.724.13 1.356.267 1.871.405.392.097.775.228 1.145.391.129.08.242.184.331.306a8.771 8.771 0 0 1 1.19 2.262 49.574 49.574 0 0 1 2.145 7.998 214.578 214.578 0 0 1 3.327 35.176 5.25 5.25 0 0 1-.929.421c-.937.32-1.895.578-2.866.771-.317.024-.622.044-.936.067-.176.006-.354.015-.527.015a17.554 17.554 0 0 1-5.195-.845c-2.546-.77-5.13-1.981-8.154-3.026a32.066 32.066 0 0 0-10.76-1.896 35.134 35.134 0 0 0-13.61 2.974c-1.842.728-3.541 1.435-5.208 1.95-1.627.536-3.327.82-5.04.843a13.97 13.97 0 0 1-1.805-.119 34.612 34.612 0 0 1-3.477-.978c.038-2.476.117-4.992.237-7.509.501.047 1.03.074 1.613.075a58.467 58.467 0 0 0 9.703-1.065 65.497 65.497 0 0 0 4.714-1.038 23.1 23.1 0 0 0 3.504-1.164 15.393 15.393 0 0 0 4.708-3.194 9.572 9.572 0 0 0 1.86-2.726c.083-.184.15-.378.22-.571a7.867 7.867 0 0 0 3.576-2.614 9.28 9.28 0 0 0 1.183-2.284c.358.167.748.255 1.142.257a2.975 2.975 0 0 0 1.924-.759 6.416 6.416 0 0 0 1.481-1.995l.113-.213c.149.079.312.128.479.144.03.003.313.028.739.028a7.98 7.98 0 0 0 2.571-.383 3.885 3.885 0 0 0 1.436-.853 2.926 2.926 0 0 0 .876-1.757c.076-.704.112-1.411.107-2.119a19.928 19.928 0 0 0-.213-3.048 7.731 7.731 0 0 0-.346-1.405c-.019-.05-.042-.101-.063-.151.247-.034.501-.07.76-.109a25.35 25.35 0 0 0 2.138-.402c.307-.071.608-.163.903-.274a2.99 2.99 0 0 0 .438-.211c.208-.12.389-.283.531-.478.311-.45.583-.927.812-1.424.142-.302.263-.612.362-.93.113-.347.173-.709.18-1.074.002-.25-.038-.5-.119-.737a1.822 1.822 0 0 0-.53-.782 1.57 1.57 0 0 0-.403-.25 2.69 2.69 0 0 0-.519-.161 15.876 15.876 0 0 0-2.282-.247 63.116 63.116 0 0 0-3.427-.084 66.205 66.205 0 0 0-11.686.912c-.08.024-.157.056-.23.096a3.07 3.07 0 0 0-.88.317c-.47.273-.918.578-1.345.913a56.459 56.459 0 0 0-6.633 6.231c-.336.368-.666.739-.99 1.115a11.512 11.512 0 0 0-2.563-.279c-1.633.03-3.256.256-4.835.674a61.657 61.657 0 0 0-9.063 2.978l.098-.681c.168-1.133.343-2.227.525-3.282.016-.041.03-.083.043-.126a353.41 353.41 0 0 0 1.11-5.599c.246-1.039.498-2.006.756-2.87.34-1.223.791-2.412 1.347-3.553.168-.337.37-.656.603-.952.09-.122.203-.226.332-.306a7.02 7.02 0 0 1 1.145-.391 57.02 57.02 0 0 1 8.752-1.246l.016-.001a18.059 18.059 0 0 0 11.826 4.326 20.82 20.82 0 0 0 7.17-1.301 15.761 15.761 0 0 0 4.966-2.835c.073-.069.139-.148.194-.232.728.058 1.443.119 2.124.186Zm22.783-15.823c-8.558 5.009-20.769 7.935-37.813 7.934-11.36 0-20.58-1.299-27.994-3.65-11.124-3.539-18.178-9.377-22.564-16.911-4.382-7.537-6.07-16.875-6.068-27.352a68.502 68.502 0 0 1 2.523-19.567c2.69-8.959 7.684-16.453 16.234-21.81 8.553-5.35 20.762-8.552 37.87-8.55 11.401-.001 20.635 1.421 28.051 3.955 11.125 3.812 18.169 10.06 22.546 17.959 4.369 7.901 6.029 17.536 6.027 28.013a64.884 64.884 0 0 1-2.547 19.24 35.073 35.073 0 0 1-16.265 20.739Zm27.37-41.592a22.15 22.15 0 0 1 .285 3.754 34.56 34.56 0 0 1-.239 3.977 28.91 28.91 0 0 1-1.465 6.447c-.258.73-.577 1.436-.952 2.114-.2.385-.461.737-.772 1.04a7.506 7.506 0 0 1-3.026 1.284 15.14 15.14 0 0 1-1.691.28 71.353 71.353 0 0 0 1.902-17.283c0-2.257-.082-4.48-.246-6.668.818.177 1.619.42 2.397.727a9.912 9.912 0 0 1 1.863.957c.51.323.947.748 1.283 1.249.34.664.564 1.382.661 2.122Zm-1.823-8.362c-.214.437-.5.834-.846 1.175-.137.13-.288.244-.449.342a18.836 18.836 0 0 0-.978-.34 16.32 16.32 0 0 0-1.798-.46 1.257 1.257 0 0 0-.34.008l.406-5c.809-9.93 2.487-30.414 2.947-35.173a3.31 3.31 0 0 1 .965-2.29 2.505 2.505 0 0 1 1.694-.578c.131 0 .262.007.392.021a2.426 2.426 0 0 1 1.559.683c.212.233.372.51.469.81.15.477.222.976.21 1.476 0 .16-.005.33-.017.509-.326 4.981-1.856 22.865-2.787 32.729-.096 2.1-.58 4.164-1.427 6.088Z"/><path fill="#191C22" d="M150.354 126.441a1.31 1.31 0 0 0 .976-.193 1.302 1.302 0 0 0 .554-.827l.092-.458a1.296 1.296 0 0 0-1.018-1.533 1.302 1.302 0 0 0-1.531 1.022l-.092.458a1.296 1.296 0 0 0 .551 1.336c.142.095.301.161.468.195Z"/></svg>