<svg xmlns="http://www.w3.org/2000/svg" width="200" height="200" fill="none"><path fill="#FFE632" d="m126.564 55.276-2.916-2.915a4.11 4.11 0 0 0-2.913-1.207 4.117 4.117 0 0 0-2.912 1.207L90.966 79.218 78.808 67.06a4.119 4.119 0 0 0-5.825 0l-2.915 2.914a4.12 4.12 0 0 0 0 5.826l16.758 16.758a5.855 5.855 0 0 0 8.28 0l31.458-31.457a4.121 4.121 0 0 0 0-5.825Zm-1.839 3.987L93.268 90.72a3.255 3.255 0 0 1-4.604 0L71.906 73.962a1.52 1.52 0 0 1 0-2.149l2.915-2.914a1.52 1.52 0 0 1 2.149 0l12.37 12.37a2.298 2.298 0 0 0 3.254-.002L119.66 54.2a1.52 1.52 0 0 1 2.149 0l2.915 2.914a1.52 1.52 0 0 1 0 2.149Z"/><path fill="#BEBEC9" d="M165.498 50.699c.935-9.897 2.462-27.747 2.793-32.804.016-.232.023-.458.023-.677a7.128 7.128 0 0 0-.351-2.318 4.635 4.635 0 0 0-1.751-2.365 5.302 5.302 0 0 0-2.45-.87 6.191 6.191 0 0 0-.679-.038 5.103 5.103 0 0 0-3.413 1.228 5.897 5.897 0 0 0-1.833 3.99c-.408 4.228-1.752 20.545-2.621 31.18-.159-.61-.319-1.22-.499-1.82-2.811-9.427-8.229-17.577-17.346-23.268-9.115-5.696-21.829-8.945-39.248-8.946-11.616 0-21.132 1.445-28.892 4.096-11.64 3.964-19.322 10.707-23.981 19.16a46.832 46.832 0 0 0-4.374 11.37c-.866-10.612-2.253-27.464-2.67-31.772a5.892 5.892 0 0 0-1.832-3.99 5.103 5.103 0 0 0-3.414-1.228 6.18 6.18 0 0 0-.678.038 5.01 5.01 0 0 0-3.169 1.487A4.798 4.798 0 0 0 28.08 14.9a7.129 7.129 0 0 0-.35 2.318c0 .22.007.445.022.677.332 5.057 1.859 22.907 2.793 32.804.133 2.457.708 4.87 1.7 7.123a7.115 7.115 0 0 0 1.38 1.953 6.436 6.436 0 0 0-1.5 1.64 8.825 8.825 0 0 0-1.012 3.043 24.752 24.752 0 0 0-.325 4.205c.003 1.428.089 2.856.256 4.274.264 2.4.803 4.761 1.607 7.038.308.868.689 1.708 1.137 2.512.347.65.803 1.237 1.348 1.734a9.873 9.873 0 0 0 4.134 1.837 17 17 0 0 0 2.258.354l.034.119a37.71 37.71 0 0 0 17.435 22.212c7.601 4.442 17.683 7.229 30.86 8.037v2.346c-2.457.113-4.72.29-6.62.55-.997.128-1.986.311-2.963.546-.763.171-1.5.443-2.192.808-.43.251-.842.53-1.234.835a9.932 9.932 0 0 0-2.434-.871 9.818 9.818 0 0 0-2.058-.216c-1.78.025-3.532.453-5.123 1.252a14.894 14.894 0 0 0-2.7 1.696 1.299 1.299 0 1 0 1.614 2.039 12.214 12.214 0 0 1 2.223-1.396 9.211 9.211 0 0 1 3.986-.991 7.204 7.204 0 0 1 1.515.159c.316.071.627.164.93.278a16.46 16.46 0 0 0-2.074 3.038 1.3 1.3 0 0 0 2.3 1.212 12.006 12.006 0 0 1 4.342-4.776l.005-.003a6.515 6.515 0 0 1 1.533-.543 37.908 37.908 0 0 1 5.75-.817c.048.078.105.15.17.216a18.053 18.053 0 0 0 11.87 4.358 20.828 20.828 0 0 0 7.171-1.299 15.795 15.795 0 0 0 4.969-2.835c.068-.071.126-.151.175-.236 1.843.148 3.557.322 5.058.52 1.324.175 2.486.368 3.418.571.682.129 1.348.327 1.989.592a.99.99 0 0 1 .255.219c.304.364.559.765.759 1.194.269.559.506 1.133.712 1.718-.021.071-.04.142-.058.213a5.114 5.114 0 0 0-1.824 2.469 8.346 8.346 0 0 0-.469 2.827c-.001.477.037.954.115 1.425a9.068 9.068 0 0 0 1.078 2.94 6.197 6.197 0 0 0 2.27 2.373c.075.031.152.055.232.072.34 1.573.783 3.545 1.261 5.61a46.122 46.122 0 0 0-8.659-1.578 24.859 24.859 0 0 0-2.349-.117l-.26.002a1.3 1.3 0 0 0 .034 2.6l.226-.002c.685 0 1.383.037 2.104.106h.005a37.858 37.858 0 0 1 10.95 2.462l.005.002a13.712 13.712 0 0 1 3.982 2.437l.003.003.002.002a7.079 7.079 0 0 1 1.62 2.108c.288.588.478 1.219.562 1.868.03.231.048.464.055.697l.002.257a8.659 8.659 0 0 1-.216 2.042l-.003.013a5.385 5.385 0 0 1-1.561 2.777 9.849 9.849 0 0 1-3.187 1.902l-.061.026c-.077.036-.178.075-.307.125a14.548 14.548 0 0 1-3.283.689c-1.482.16-2.972.238-4.462.231-1.601.002-3.2-.076-4.793-.235a22.249 22.249 0 0 1-3.66-.629l-.002-.001a12.327 12.327 0 0 1-4.616-2.303 6.199 6.199 0 0 1-2.242-4.405c.014.046.03.092.048.137a6.161 6.161 0 0 0 1.794 1.996 6.166 6.166 0 0 0 5.154.931 6.155 6.155 0 0 0 4.003-3.376 6.147 6.147 0 0 0-1.712-7.342 1.305 1.305 0 0 0-1.402-.149 1.296 1.296 0 0 0-.713 1.218 33.914 33.914 0 0 1 .028 1.902v-.003a4.051 4.051 0 0 1-1.223 2.629 4.43 4.43 0 0 1-1.222.894 2.87 2.87 0 0 1-1.236.309 1.992 1.992 0 0 1-1.27-.447l-.229-.193a1.303 1.303 0 0 0-1.668-.009 1.27 1.27 0 0 0-.373.558c.015-.496.065-.991.151-1.48a1.302 1.302 0 0 0-1.053-1.502 1.3 1.3 0 0 0-1.507 1.047 12.78 12.78 0 0 0-.205 2.225 9.305 9.305 0 0 0 .91 4.127 9.7 9.7 0 0 0 3.661 3.925 16.54 16.54 0 0 0 4.206 1.811 24.81 24.81 0 0 0 4.113.717c1.681.167 3.369.25 5.057.248 1.591.007 3.18-.076 4.761-.248a21.644 21.644 0 0 0 2.592-.451c.085 2.507.141 5.002.141 7.434 0 .228-.003.452-.004.679a5.227 5.227 0 0 1-.952.439 28.304 28.304 0 0 1-4.555 1.109c-1.432.254-3.07.488-4.86.698-.666.072-1.335.108-2.004.108-4.497.004-8.392-1.641-12.339-3.398-1.971-.875-3.948-1.771-6.015-2.459a20.608 20.608 0 0 0-6.543-1.163 19.107 19.107 0 0 0-10.162 3.073c-1.267.74-2.387 1.444-3.444 1.937-.96.49-2.018.757-3.095.783a6.207 6.207 0 0 1-1.324-.15 34.506 34.506 0 0 1-2.027-.584 145.195 145.195 0 0 1-.312-8.741 1.297 1.297 0 0 0-.809-1.201 1.298 1.298 0 0 0-1.79 1.219c.009 4.931.297 9.858.862 14.757.224 1.914.546 3.816.965 5.698a17.755 17.755 0 0 0 1.36 4.047 1.304 1.304 0 0 0 1.753.552 1.303 1.303 0 0 0 .552-1.754 15.395 15.395 0 0 1-1.132-3.433 64.28 64.28 0 0 1-1.229-8.36c.38.109.765.217 1.163.319.007.001.012.006.019.008l.056.009a71.729 71.729 0 0 0 9.918 1.654c5.23.515 10.483.762 15.738.741 6.719.016 13.432-.343 20.111-1.076l.019-.002.003-.001.121-.013a69.85 69.85 0 0 0 7.329-1.198c.87-.194 1.728-.44 2.569-.738l.022-.01a120.707 120.707 0 0 1-.81 12.519 1.31 1.31 0 0 0 .263.959 1.307 1.307 0 0 0 1.824.23 1.29 1.29 0 0 0 .493-.864c.62-5.442.91-10.916.866-16.392 0-2.738-.063-5.546-.169-8.365a11.404 11.404 0 0 0 3.174-2.066c.039-.037.072-.083.11-.121a6.589 6.589 0 0 0 2.777.633c.756 0 1.506-.138 2.213-.407a10.158 10.158 0 0 0 5.08-4.503 15.8 15.8 0 0 0 1.992-7.994 21.776 21.776 0 0 0-.321-3.667l-.001-.002a41.724 41.724 0 0 0-5.686-14.113 24.673 24.673 0 0 0-5.275-6.075 11.123 11.123 0 0 0-6.869-2.644 9.11 9.11 0 0 0-1.246.085 4.383 4.383 0 0 0-1.933.728 12.13 12.13 0 0 0-.491-.949 6.72 6.72 0 0 0-.805-1.12 3.481 3.481 0 0 0-1.056-.814l-.002-.001a12.332 12.332 0 0 0-2.554-.786 87.728 87.728 0 0 0-12.094-1.367v-2.646a83.516 83.516 0 0 0 18.956-3.407c11.612-3.671 19.329-9.974 24.027-18.083a42.271 42.271 0 0 0 3.822-8.894c.194.098.409.144.626.135a16.629 16.629 0 0 0 2.331-.36 9.867 9.867 0 0 0 4.135-1.837 6.468 6.468 0 0 0 1.348-1.734 19.344 19.344 0 0 0 1.641-4.043 33.316 33.316 0 0 0 1.103-5.507c.167-1.418.253-2.846.256-4.275a24.678 24.678 0 0 0-.325-4.205 8.793 8.793 0 0 0-1.012-3.042 6.95 6.95 0 0 0-2.112-2.085c-.014-.01-.028-.016-.042-.024a8.333 8.333 0 0 0 1.652-2.861c.62-1.86 1.005-3.79 1.145-5.746ZM82.825 176.12a89.904 89.904 0 0 1-3.136-.381c1.52-.818 2.96-1.777 4.562-2.569a15.073 15.073 0 0 1 6.98-1.697c1.951.031 3.884.379 5.723 1.031 2.842.941 5.705 2.408 8.819 3.673.4.162.806.321 1.216.475a195.81 195.81 0 0 1-8.695.195 151.896 151.896 0 0 1-15.469-.727Zm43.595-49.629a1.79 1.79 0 0 1 .812-.293h.002c.296-.041.595-.061.894-.061a8.54 8.54 0 0 1 5.259 2.086 26.539 26.539 0 0 1 6.62 8.836 37.73 37.73 0 0 1 3.389 9.751c.186 1.066.281 2.146.284 3.228a13.217 13.217 0 0 1-1.637 6.683 7.574 7.574 0 0 1-3.756 3.383l-.002.001a3.622 3.622 0 0 1-1.29.237 3.89 3.89 0 0 1-1.232-.213 8.16 8.16 0 0 0 .457-1.167 5.626 5.626 0 0 0-2.842-10.482c-.081 0-.148.013-.226.017a16.765 16.765 0 0 0-4.279-2.544c-.05-.022-.105-.04-.156-.061a375.97 375.97 0 0 1-1.887-8.388l-.001-.005c-.2-.933-.54-2.23-.832-3.659a22.352 22.352 0 0 1-.526-4.281 5.465 5.465 0 0 1 .456-2.488c.116-.229.285-.428.493-.58ZM33.134 50.454c-.932-9.863-2.46-27.746-2.787-32.729a7.476 7.476 0 0 1-.018-.507c-.01-.5.06-.998.211-1.476.13-.431.4-.807.769-1.068.378-.243.81-.39 1.258-.425a3.59 3.59 0 0 1 .393-.022 2.506 2.506 0 0 1 1.695.579c.606.609.951 1.43.964 2.289.306 3.168 1.155 13.339 1.925 22.699.386 4.681.752 9.163 1.022 12.475l.416 5.119c-.787.186-1.56.425-2.316.716-.197.076-.405.178-.609.266a3.543 3.543 0 0 1-1.487-1.71 18.016 18.016 0 0 1-1.436-6.206Zm6.504 33.02a7.199 7.199 0 0 1-2.82-1.236 4.115 4.115 0 0 1-.773-1.041 16.833 16.833 0 0 1-1.403-3.488c-.48-1.66-.82-3.357-1.015-5.073a34.566 34.566 0 0 1-.239-3.973 22.221 22.221 0 0 1 .285-3.756c.098-.741.322-1.46.663-2.125.35-.518.805-.956 1.336-1.284a11.64 11.64 0 0 1 2.872-1.296c.21-.065.404-.12.58-.168a91.06 91.06 0 0 0-.226 6.485A71.435 71.435 0 0 0 40.782 83.7a14.495 14.495 0 0 1-1.144-.227Zm66.724 38.698a16.76 16.76 0 0 1-1.397.591 18.227 18.227 0 0 1-6.268 1.137 15.436 15.436 0 0 1-7.78-2.048c.079.024.159.04.24.048a1.3 1.3 0 0 0 1.3-1.3v-3.685c1.834.074 3.716.117 5.666.117 2.511 0 4.906-.074 7.225-.197v4.095a1.281 1.281 0 0 0 1.014 1.242Zm29.574-15.674c-8.558 5.01-20.769 7.936-37.813 7.934-11.36 0-20.58-1.298-27.994-3.65-11.124-3.539-18.177-9.377-22.564-16.911-4.381-7.538-6.069-16.876-6.067-27.352A68.504 68.504 0 0 1 44.02 46.95c2.691-8.959 7.684-16.453 16.234-21.81 8.553-5.35 20.762-8.55 37.869-8.55 11.402 0 20.636 1.422 28.052 3.956 11.125 3.812 18.17 10.06 22.546 17.958 4.37 7.901 6.03 17.536 6.028 28.014a64.918 64.918 0 0 1-2.547 19.239 35.078 35.078 0 0 1-16.265 20.741l-.001-.001Zm27.371-41.591c.201 1.241.297 2.498.285 3.755a34.497 34.497 0 0 1-.239 3.974 28.908 28.908 0 0 1-1.465 6.446c-.259.73-.577 1.437-.953 2.115a4.09 4.09 0 0 1-.772 1.04 7.5 7.5 0 0 1-3.026 1.285 15.036 15.036 0 0 1-1.69.279 71.352 71.352 0 0 0 1.902-17.282c0-2.258-.082-4.48-.246-6.668.817.176 1.619.419 2.396.726a9.912 9.912 0 0 1 1.863.957c.51.323.946.748 1.282 1.248.341.665.565 1.384.663 2.125Zm-1.824-8.364c-.214.437-.5.834-.846 1.175a2.74 2.74 0 0 1-.449.342 18.925 18.925 0 0 0-.978-.34c-.59-.187-1.191-.34-1.798-.459a1.257 1.257 0 0 0-.34.007l.406-5c.809-9.93 2.487-30.414 2.947-35.173.013-.86.358-1.68.965-2.29a2.503 2.503 0 0 1 1.693-.578c.132 0 .263.008.393.022a2.425 2.425 0 0 1 1.559.682c.212.234.372.51.469.811.15.477.221.976.21 1.476 0 .16-.006.329-.017.508-.326 4.982-1.855 22.865-2.787 32.728-.096 2.1-.58 4.165-1.427 6.09Z"/><path fill="#FFE632" d="M117.038 127.851a4.01 4.01 0 0 0-1.3-1.686 3.316 3.316 0 0 0-.895-.489 1.296 1.296 0 0 0-.967.059l-11.859 5.614a1.305 1.305 0 0 0-.619 1.732 1.304 1.304 0 0 0 1.732.618l11.209-5.307c.018.019.036.034.054.055.296.374.44.846.405 1.322l-.002.028-6.237 2.957a1.301 1.301 0 0 0 1.114 2.349l6.908-3.276a1.296 1.296 0 0 0 .727-.97c.059-.36.089-.724.09-1.088a4.96 4.96 0 0 0-.36-1.918ZM99.375 136.817l-8.194 3.861-1.285-.191.941-1.286 5.355-2.464a1.3 1.3 0 0 0-1.087-2.362l-5.66 2.605c-.202.092-.376.235-.506.413l-2.413 3.296a1.296 1.296 0 0 0-.15 1.269 1.295 1.295 0 0 0 1.008.784l3.805.565a1.31 1.31 0 0 0 .745-.11l8.55-4.028a1.3 1.3 0 1 0-1.109-2.352ZM68.013 166.431c3.124.074 9.45.221 14.85.221 2.352 0 4.527-.027 6.206-.103a30.631 30.631 0 0 0 2.13-.155c.262-.029.522-.072.78-.127.122-.028.243-.062.362-.103.157-.054.307-.129.445-.223l-.007.005a6.048 6.048 0 0 0 1.736-1.936 12.739 12.739 0 0 0 1.34-3.458c.233-.909.364-1.841.394-2.779 0-.112-.003-.219-.013-.331a2.117 2.117 0 0 0-.067-.384l-.047-.14-.021-.052a1.3 1.3 0 0 0-2.41.978l.021.051 1.205-.488 1.035-.786a28.057 28.057 0 0 1-.308-.43c-2.658-3.736-19.719-28.095-20.533-29.259l-.002-.003a8.51 8.51 0 0 0-2.34-2.161 8.136 8.136 0 0 0-3.065-1.227 6.401 6.401 0 0 0-.619-.051c-.724-.032-1.962-.044-3.56-.045-3.76 0-9.453.073-14.302.159-2.424.043-4.636.089-6.289.131-.827.021-1.514.041-2.021.059-.254.009-.463.018-.627.027l-.216.013c-.067.005-.115.008-.206.021l.193 1.286-.176-1.289c-.23.034-.452.112-.652.231-.261.159-.5.354-.707.579-.389.42-.74.873-1.05 1.354a17.38 17.38 0 0 0-1.437 2.645c-.198.454-.365.92-.5 1.396a5.321 5.321 0 0 0-.216 1.396c-.003.284.036.567.118.84.06.184.136.364.227.535a26.419 26.419 0 0 0 1.587 2.503l.045-3.206c-.007-.217.728-1.428.957-2.015.377-.955.855-1.866 1.426-2.719.208-.319.44-.621.695-.904.053-.059.11-.113.172-.162l-.055-.075.049.078.006-.003-.055-.075.049.078-.412-.664.104.765a.78.78 0 0 0 .308-.101l-.412-.664.104.765.017-.003-.07-.461.045.465.025-.004-.07-.461.045.465c.06-.007.435-.026.95-.043 3.685-.126 15.927-.342 22.352-.342 1.053 0 1.95.006 2.62.019a28.679 28.679 0 0 1 1.072.038l.072.006.018.002a5.629 5.629 0 0 1 2.059.848 5.966 5.966 0 0 1 1.616 1.468l-.002-.003a26961.074 26961.074 0 0 0 17.458 24.898 1763.565 1763.565 0 0 0 3.086 4.377c.183.257.288.404.356.495a1.298 1.298 0 0 0 1.679.344 1.3 1.3 0 0 0 .562-1.619l-.021-.052a1.3 1.3 0 0 0-2.41.978l.021.051 1.205-.488-1.252.348.683-.19-.701.112.018.078.683-.19-.7.112.195-.031-.198.02.002.011.196-.031-.198.02.004.107a8.33 8.33 0 0 1-.135 1.272 12.65 12.65 0 0 1-.806 2.792 4.582 4.582 0 0 1-1.395 1.962l-.007.005.407.587-.24-.678a.708.708 0 0 0-.167.091l.407.587-.24-.678-.012.004a6.74 6.74 0 0 1-1 .139c-1.573.143-4.428.197-7.598.196-3.57 0-7.568-.065-10.759-.13-1.595-.033-2.99-.065-4.03-.09l-.061 2.599Z"/><path fill="#BEBEC9" d="M66.632 164.261a1.301 1.301 0 0 0-1.584.934 9.483 9.483 0 0 1-3.546 5.037 10.58 10.58 0 0 1-6.313 2.176 9.51 9.51 0 0 1-3.433-.641 9.247 9.247 0 0 1-6.07-8.493 8.745 8.745 0 0 1 1.845-5.344 1.293 1.293 0 0 0 .113-1.444 1.298 1.298 0 0 0-2.161-.157 11.344 11.344 0 0 0-2.397 6.945 11.852 11.852 0 0 0 7.73 10.918l.004.001c1.394.539 2.875.815 4.37.815a13.18 13.18 0 0 0 7.878-2.7 12.06 12.06 0 0 0 4.497-6.463 1.3 1.3 0 0 0-.933-1.584Z"/><path fill="#FFE632" d="m56.215 159.633 2.24 3.09a8.91 8.91 0 0 0 7.213 3.677h23.83a3.569 3.569 0 0 0 2.595-1.107 3.624 3.624 0 0 0 1-2.491 3.568 3.568 0 0 0-.65-2.046l-19.8-28.39a8.896 8.896 0 0 0-7.306-3.816h-24.64a3.565 3.565 0 0 0-2.596 1.108 3.621 3.621 0 0 0-.995 2.486c0 .756.243 1.492.69 2.101l-.001-.002 8.67 11.951a1.296 1.296 0 0 0 1.355.5 1.29 1.29 0 0 0 .981-1.06 1.295 1.295 0 0 0-.231-.967l-8.67-11.95-.002-.002a.952.952 0 0 1-.193-.571c.003-.259.104-.508.282-.696a.953.953 0 0 1 .71-.298h24.64a6.297 6.297 0 0 1 5.173 2.703l19.801 28.391a.954.954 0 0 1 .182.558 1.03 1.03 0 0 1-.283.699.942.942 0 0 1-.712.299h-23.83a6.307 6.307 0 0 1-5.109-2.604l-2.239-3.089a1.3 1.3 0 1 0-2.105 1.526Z"/><path fill="#FFE632" d="m55.002 135.427.235.335a1.3 1.3 0 1 0 2.13-1.489l-.234-.336a1.297 1.297 0 0 0-1.81-.321 1.3 1.3 0 0 0-.32 1.811"/><path fill="#BEBEC9" d="M67.998 148.768a5.328 5.328 0 0 0-.413-1.942 3.455 3.455 0 0 0-.563-.942 2.147 2.147 0 0 0-.532-.445 1.74 1.74 0 0 0-.873-.239c-.43.001-1.334.034-2.41.101-.623.04-1.29.092-1.94.155.053-.084.1-.171.142-.262.164-.368.246-.767.242-1.17a3.664 3.664 0 0 0-.478-1.791 2.853 2.853 0 0 0-.627-.766 2.142 2.142 0 0 0-1.068-.491v-.002l-.012-.001-.003-.001a5.667 5.667 0 0 0-.55-.044 18.684 18.684 0 0 0-.706-.011c-1.015 0-2.44.054-3.792.165-.676.055-1.33.124-1.913.211a8.214 8.214 0 0 0-1.54.346 9.19 9.19 0 0 0-1.603.825 23.236 23.236 0 0 0-2.536 1.845c-.396.332-.763.663-1.083.984a6.26 6.26 0 0 0-.816.973l-.004.005c-.25.43-.406.908-.46 1.403-.068.521-.1 1.047-.094 1.573.054 2.112.247 4.217.58 6.302.308 2.103.647 3.906.814 4.641l.003.012a6.486 6.486 0 0 0 1.692 3.144 5.647 5.647 0 0 0 3.406 1.556h.003c.184.02.369.031.554.031a6.987 6.987 0 0 0 3.953-1.411 9.022 9.022 0 0 0 2.394-2.458l.005-.009.008-.01-.002-.001c.28-.453.497-.941.646-1.452a7.191 7.191 0 0 0 .3-1.982l.175-.07c.89-.356 2.402-1.029 3.82-1.673a139.23 139.23 0 0 0 3.149-1.469c.41-.216.76-.529 1.02-.913a5.574 5.574 0 0 0 .748-1.613 7.415 7.415 0 0 0 .295-1.581 1.271 1.271 0 0 0-.113-.588c.126-.295.188-.614.182-.935Zm-3.232 3.213-.084.101v.001c-.385.191-1.671.793-3.043 1.417-1.395.635-2.913 1.309-3.707 1.626-.653.261-1.506.595-2.217.86-.355.132-.676.247-.907.324a4.928 4.928 0 0 1-.257.079l-.026.007-.002.001.004.02a1.282 1.282 0 0 0-.736 2.182 1.3 1.3 0 0 0 .92.381c.109 0 .218-.012.326-.035.255-.059.507-.133.754-.223l.19-.068c-.017.064-.03.126-.049.191l-.001.005c-.083.29-.205.568-.363.826l-.012.019a6.552 6.552 0 0 1-1.69 1.706 4.46 4.46 0 0 1-2.448.931c-.089 0-.178-.004-.266-.014a3.027 3.027 0 0 1-1.873-.825 3.913 3.913 0 0 1-.987-1.892c-.14-.612-.48-2.408-.774-4.428a45.6 45.6 0 0 1-.552-5.926 8.705 8.705 0 0 1 .068-1.2c.014-.112.037-.222.067-.331l.02-.059c.218-.287.462-.551.73-.789a19.942 19.942 0 0 1 2.137-1.706 9.952 9.952 0 0 1 1.865-1.081 6.259 6.259 0 0 1 1.031-.217 43.26 43.26 0 0 1 5.323-.347c.239-.001.446.003.605.009l.108.006a1.08 1.08 0 0 1 .13.478c-.052.02-.104.04-.171.063-.67.23-1.939.544-3.081.822-.575.141-1.124.275-1.582.398-.23.061-.436.119-.621.177-.18.054-.355.121-.524.201v-.001l-.012.006-.01.004v.001a3.577 3.577 0 0 0-.451.276c-.53.399-1.037.831-1.514 1.292a40.425 40.425 0 0 0-.997.973l-.009.014a1.274 1.274 0 0 0 1.267 2.123l.005.02c.13-.033.623-.166 1.353-.359 1.089-.289 2.674-.704 4.15-1.071.739-.183 1.45-.353 2.053-.489.6-.135 1.104-.235 1.375-.273.884-.127 2.06-.226 3.09-.291a57.822 57.822 0 0 1 1.803-.087c.066.153.118.31.156.472.008.033.01.062.017.095-.104.04-.216.082-.341.126-1.525.549-4.448 1.427-6.957 2.156a408.779 408.779 0 0 1-4.63 1.319 1.303 1.303 0 0 0-.905 1.601 1.302 1.302 0 0 0 1.601.904c.004-.001 3.156-.877 6.35-1.823 1.598-.474 3.205-.964 4.448-1.376.073-.024.13-.045.201-.069a3.751 3.751 0 0 1-.089.259 2.459 2.459 0 0 1-.26.508ZM115.466 149.253v-.001a46.56 46.56 0 0 0-.411-4.355 31.73 31.73 0 0 0-.298-1.777 11.054 11.054 0 0 0-.328-1.304 7.996 7.996 0 0 0-.575-1.256 33.934 33.934 0 0 0-3.929-5.433 21.1 21.1 0 0 0-2.341-2.329 7.623 7.623 0 0 0-1.152-.801 3.054 3.054 0 0 0-1.349-.416h-.003a49.68 49.68 0 0 0-1.659-.024 73.39 73.39 0 0 0-4.645.143c-.744.051-1.424.115-1.996.205a7.19 7.19 0 0 0-.796.163 2.402 2.402 0 0 0-.815.37 2.03 2.03 0 0 0-.639.794 2.153 2.153 0 0 0-.182.882c.02.563.177 1.112.459 1.6.2.37.44.716.715 1.032l-.001.001.005.005.009.011.002-.002c.145.163.316.301.506.408.284.154.584.275.895.361.346.101.731.183 1.13.259a4.08 4.08 0 0 1-1.024.837 20.893 20.893 0 0 0-2.214 2.609c-.297.411-.567.841-.808 1.287-.108.203-.2.412-.279.627-.092.248-.141.51-.145.775 0 .156.02.311.063.461.057.198.153.383.284.543a5.5 5.5 0 0 0 1.643 1.246c.02.011.036.016.056.026-.22.339-.429.667-.608.968-.17.286-.316.546-.435.796a3.65 3.65 0 0 0-.161.392 1.807 1.807 0 0 0-.106.589c0 .107.012.213.035.317.08.342.234.662.45.938.307.396.7.717 1.148.941.498.254 1.05.387 1.609.388.29-.003.579-.058.851-.16a5.05 5.05 0 0 0 1.113-.596c.462-.325.901-.681 1.314-1.065.185.038.388.08.617.125l.036.007a18.6 18.6 0 0 0 .946 2.048 15.481 15.481 0 0 0 3.592 4.56l-.007-.005.26.219.036.03a4.614 4.614 0 0 0 2.882 1.006 5.447 5.447 0 0 0 2.367-.568 7.187 7.187 0 0 0 2.728-2.357 6.309 6.309 0 0 0 1.186-3.459v-.003a35.807 35.807 0 0 0-.031-2.058Zm-10.472-15.074h-.002.002Zm7.903 17.09v-.003a4.05 4.05 0 0 1-1.223 2.629 4.394 4.394 0 0 1-1.222.894c-.383.195-.806.3-1.236.309a1.992 1.992 0 0 1-1.27-.447l-.229-.193-.007-.006a12.96 12.96 0 0 1-2.966-3.792 17.683 17.683 0 0 1-.301-.593 1.274 1.274 0 0 0 .455-1.967 1.299 1.299 0 0 0-.874-.475c-.507-.053-1.357-.205-2.049-.342a67.22 67.22 0 0 1-1.244-.26 1.303 1.303 0 0 0-1.216.366l-.014.013a12.4 12.4 0 0 1-1.035.931c-.222.182-.459.345-.707.489-.07.04-.142.074-.216.102a.96.96 0 0 1-.44-.133c.36-.65 1.088-1.747 1.777-2.731a98.722 98.722 0 0 1 1.389-1.938c.282.016.562.052.838.109.574.11 1.241.286 1.812.443.286.079.548.152.777.212.114.03.22.056.324.079.112.027.226.046.341.059a1.3 1.3 0 0 0 1.422-1.149 1.297 1.297 0 0 0-1.138-1.431l.001-.004c-.018 0-.287-.065-.599-.152-.481-.132-1.137-.318-1.813-.474a9.61 9.61 0 0 0-2.038-.295c-.275-.004-.55.03-.815.101a1.802 1.802 0 0 0-.97.643c-.198.262-.7.948-1.284 1.771a6.25 6.25 0 0 1-.657-.351c-.031-.019-.059-.039-.088-.058.023-.043.046-.084.073-.13a17.058 17.058 0 0 1 2.417-3.02c.047-.058.088-.119.124-.184l6.245.3a1.297 1.297 0 0 0 1.362-1.236 3.6 3.6 0 0 0-.706-1.441l-2.01-1.81a1.303 1.303 0 0 0-.783-.331l-.241-.018a53.517 53.517 0 0 1-3.247-.342 17.666 17.666 0 0 1-1.723-.317 3.909 3.909 0 0 1-.485-.151 3.08 3.08 0 0 1-.306-.454c.871-.127 1.75-.209 2.63-.244a75.956 75.956 0 0 1 3.689-.09c.592 0 1.121.008 1.541.021.17.063.33.149.477.256a12.047 12.047 0 0 1 1.814 1.622 34.228 34.228 0 0 1 3.015 3.706c.443.627.831 1.225 1.128 1.735.224.363.414.746.568 1.144l.002.007c.099.323.18.651.242.983.352 1.895.573 3.811.661 5.737a33.832 33.832 0 0 1 .028 1.901Z"/><path fill="#BEBEC9" d="M57.07 157.925a1.292 1.292 0 0 0-1.14.925 3.303 3.303 0 0 1-.363.826l-.011.019a6.556 6.556 0 0 1-1.69 1.706 4.46 4.46 0 0 1-2.448.931 2.36 2.36 0 0 1-.266-.014 3.028 3.028 0 0 1-1.874-.825 1.298 1.298 0 0 0-2.163 1.279 6.005 6.005 0 0 0 7.116 4.247 6.005 6.005 0 0 0 4.586-6.903c-.088-.508-.246-1-.471-1.463a1.298 1.298 0 0 0-1.276-.728ZM139.571 48.509c-3.491-3.99-8.451-7.216-15.219-9.425-6.772-2.21-15.361-3.425-26.228-3.426-9.66 0-17.52.96-23.904 2.726-9.568 2.64-15.852 7.148-19.655 12.887-3.807 5.735-5.107 12.572-5.107 19.783a40.568 40.568 0 0 0 2.116 13.71 27.057 27.057 0 0 0 5.158 8.837c3.505 3.988 8.473 7.213 15.236 9.422 6.766 2.211 15.335 3.426 26.156 3.427 9.618-.001 17.456-.961 23.832-2.727 9.557-2.639 15.856-7.147 19.68-12.884 3.828-5.733 5.153-12.572 5.153-19.785a40.906 40.906 0 0 0-2.091-13.707 26.955 26.955 0 0 0-5.127-8.838Zm2.655 35.378a24.442 24.442 0 0 1-4.664 7.997c-3.158 3.59-7.674 6.567-14.091 8.668-6.414 2.098-14.721 3.299-25.347 3.298-9.446 0-17.06-.947-23.139-2.632-9.126-2.537-14.767-6.676-18.212-11.823-3.442-5.15-4.715-11.431-4.715-18.341-.087-4.359.569-8.7 1.941-12.837a24.356 24.356 0 0 1 4.633-7.995c3.144-3.588 7.648-6.566 14.07-8.666 6.42-2.098 14.748-3.299 25.422-3.298 9.487 0 17.122.947 23.209 2.632 9.138 2.537 14.759 6.675 18.183 11.82 3.422 5.148 4.673 11.43 4.673 18.344.086 4.358-.578 8.7-1.963 12.833ZM78.08 121.031l.001-.001.003-.002-.004.003Z"/><path fill="#BEBEC9" d="M130.729 89.515c-.226.21-.457.416-.692.619a25.396 25.396 0 0 1-3.546 2.535c-.275.164-.555.325-.841.484a1.301 1.301 0 0 0 1.261 2.274c.309-.172.613-.347.911-.524l.002-.001a28.102 28.102 0 0 0 3.906-2.795c.263-.226.519-.454.768-.686a1.297 1.297 0 0 0 .062-1.831 1.301 1.301 0 0 0-1.831-.075ZM81.531 43.989a46.62 46.62 0 0 0-13.3 4.23 1.3 1.3 0 0 0 1.192 2.31 44.05 44.05 0 0 1 12.56-3.98 1.3 1.3 0 0 0-.452-2.56ZM62.072 52.436a24.363 24.363 0 0 0-2.672 2.841 1.302 1.302 0 0 0 1.16 2.104 1.301 1.301 0 0 0 .87-.48 21.76 21.76 0 0 1 2.388-2.54 1.3 1.3 0 1 0-1.746-1.925ZM139.208 162.535l-.001.001.001-.001ZM128.869 145.951l.003.002h.002l-.005-.002ZM117.146 143.295h.002l.002.001-.004-.001ZM111.84 165.16l-.002-.001.002.001ZM94.367 149.261l.001.002v-.002ZM114.428 141.812l.001.004.001.003-.002-.007ZM93.943 144.927l.002.002v-.001l-.002-.001Z"/></svg>