<svg xmlns="http://www.w3.org/2000/svg" width="200" height="200" fill="none"><path fill="#FFD93A" d="M57.832 71c-.474-14.96.5-25.333 28.167-24.667 27.667.667 27.833 6 28.333 18.334.5 12.333-9.166 35.833-28.5 36-19.333.166-27.666-19.167-28-29.667ZM136.625 119.625c-5.854-2.066-4-4.5-3.125-6.625s3.875-7.875 9.125-8.125 11.25 6.75 11.25 6.75 4.625-1.875 6.875-.375c0 0 2.75-8.5 7.25-8s9.125 4.5 11.375 7.5 3.75 4.875 1.625 6-17.5 1-17.5 1l8.125 5.875-.25 35.625-5.5 1.625-1.75 2.375-1.375-3.125-2.5.375-.625-35.5-6.875-6s-11.875 2.125-16.125.625Z"/><path fill="#191C22" d="M109.644 104.411c9.557-2.639 15.856-7.147 19.68-12.884 3.827-5.734 5.152-12.573 5.152-19.786a40.877 40.877 0 0 0-2.09-13.706 26.974 26.974 0 0 0-5.128-8.838c-3.49-3.99-8.45-7.216-15.219-9.425-6.772-2.211-15.36-3.426-26.228-3.426-9.66 0-17.52.96-23.903 2.726-9.569 2.64-15.852 7.148-19.656 12.887-3.806 5.735-5.106 12.572-5.106 19.782a40.568 40.568 0 0 0 2.115 13.71 27.059 27.059 0 0 0 5.159 8.837c3.504 3.989 8.473 7.214 15.236 9.423 6.766 2.211 15.335 3.426 26.155 3.427 9.618-.001 17.457-.961 23.833-2.727Zm-62.31-52.42a24.4 24.4 0 0 1 2.67-2.841 1.3 1.3 0 0 1 1.748 1.925 21.79 21.79 0 0 0-2.387 2.539 1.3 1.3 0 0 1-2.032-1.623ZM70.97 41.756a1.3 1.3 0 0 1-1.054 1.507 44.09 44.09 0 0 0-12.561 3.98 1.3 1.3 0 0 1-1.191-2.31 46.65 46.65 0 0 1 13.3-4.23 1.302 1.302 0 0 1 1.506 1.053ZM60.1 65.154a21.553 21.553 0 0 1 1.18-7.169 11.81 11.81 0 0 1 3.715-5.488 7.43 7.43 0 0 1 4.529-1.56 6.653 6.653 0 0 1 4.05 1.382 10.11 10.11 0 0 1 2.763 3.372 20.7 20.7 0 0 1 2.13 9.472 20.364 20.364 0 0 1-1.11 6.841 10.633 10.633 0 0 1-3.66 5.175 7.6 7.6 0 0 1-4.082 1.396c-.137.006-.273.01-.406.01a7.343 7.343 0 0 1-4.162-1.256 9.34 9.34 0 0 1-2.84-3.167 18.537 18.537 0 0 1-2.106-9.008Zm61.716 28.944c-.248.23-.504.46-.767.685a27.94 27.94 0 0 1-3.906 2.796c-.301.18-.606.354-.915.524a1.296 1.296 0 0 1-1.439-.12 1.3 1.3 0 0 1 .181-2.155c.288-.16.568-.32.84-.482a25.361 25.361 0 0 0 3.546-2.536c.236-.202.466-.408.692-.618a1.3 1.3 0 0 1 1.768 1.906Zm-10.108-28.935a20.356 20.356 0 0 1-1.11 6.841 10.629 10.629 0 0 1-3.66 5.175 7.6 7.6 0 0 1-4.082 1.396c-.137.006-.273.01-.406.01a7.342 7.342 0 0 1-4.162-1.256 9.339 9.339 0 0 1-2.84-3.167 18.538 18.538 0 0 1-2.106-9.008 21.554 21.554 0 0 1 1.18-7.169 11.808 11.808 0 0 1 3.714-5.488 7.43 7.43 0 0 1 4.529-1.56 6.658 6.658 0 0 1 4.051 1.382c1.155.91 2.098 2.06 2.762 3.372a20.697 20.697 0 0 1 2.13 9.472ZM96.246 87.317a1.3 1.3 0 0 1 1.025 1.543 10.55 10.55 0 0 1-1.06 2.686 10.756 10.756 0 0 1-4.429 4.404 12.067 12.067 0 0 1-5.67 1.297 11.413 11.413 0 0 1-5.64-1.355 9.928 9.928 0 0 1-3.31-3.011 11.241 11.241 0 0 1-1.843-4.362 1.302 1.302 0 0 1 1.101-1.482 74.96 74.96 0 0 1 9.566-.598c3.44-.03 6.875.265 10.26.879ZM19.969 12.353ZM60.656 125.262h.001l.001.001-.002-.001Z"/><path fill="#191C22" d="m186.094 120.953-4.37-3.482c.108-.07.216-.14.319-.221.292-.229.537-.513.72-.836.197-.354.301-.753.3-1.159l-.007-.19a1.198 1.198 0 0 0-.049-.175c.027-.148.027-.299.001-.447a9.036 9.036 0 0 0-.255-.918 1.293 1.293 0 0 0-.079-.288l-.002-.008-.003-.007a14.277 14.277 0 0 0-2.554-4.401 25.528 25.528 0 0 0-3.212-3.197 19.501 19.501 0 0 0-3.863-2.64 9.164 9.164 0 0 0-4.07-1.058 6.896 6.896 0 0 0-2.717.555 9.486 9.486 0 0 0-3.655 2.949 21.432 21.432 0 0 0-2.625 4.48 7.268 7.268 0 0 0-2.221-.321c-.292 0-.594.012-.908.038a6.68 6.68 0 0 0-2.135.5c-.261.113-.51.251-.744.411a18.916 18.916 0 0 0-4.758-4.855 10.315 10.315 0 0 0-5.75-1.883 9.962 9.962 0 0 0-6.58 2.664 20.72 20.72 0 0 0-5.104 7.472 3.787 3.787 0 0 0-.329 1.515c.005.737.239 1.455.669 2.054a5.854 5.854 0 0 0 1.888 1.65c.265.152.538.289.818.409l.418 15.02a38.467 38.467 0 0 0-3.164-4.371 25.427 25.427 0 0 0-5.399-4.924 11.639 11.639 0 0 0-6.264-2.1 8.24 8.24 0 0 0-2.376.347h-.001a4.431 4.431 0 0 0-2.66 1.984 5.604 5.604 0 0 0-.687 2.562l-.223.02c-.583.061-1.094.146-1.683.255a21.183 21.183 0 0 0-1.281-3.212 8.012 8.012 0 0 0-.908-1.41 3.648 3.648 0 0 0-1.215-.995 9.861 9.861 0 0 0-1.745-.594 64.176 64.176 0 0 0-9.79-1.344c-.13-.022-.926-.158-2.207-.329v-3.119a83.534 83.534 0 0 0 18.957-3.407c11.612-3.671 19.328-9.974 24.027-18.083a42.319 42.319 0 0 0 3.822-8.893c.193.098.409.144.626.135a16.719 16.719 0 0 0 2.331-.36 9.88 9.88 0 0 0 4.135-1.837 6.474 6.474 0 0 0 1.348-1.734 19.285 19.285 0 0 0 1.64-4.043 33.314 33.314 0 0 0 1.103-5.507c.167-1.42.253-2.847.256-4.277a24.763 24.763 0 0 0-.324-4.203 8.83 8.83 0 0 0-1.012-3.042 6.952 6.952 0 0 0-2.112-2.085c-.014-.01-.028-.016-.042-.025a8.332 8.332 0 0 0 1.652-2.86 23.51 23.51 0 0 0 1.145-5.745c.935-9.898 2.462-27.748 2.793-32.805.015-.232.023-.457.023-.677a7.13 7.13 0 0 0-.351-2.32 4.64 4.64 0 0 0-1.751-2.364 5.302 5.302 0 0 0-2.45-.87 6.11 6.11 0 0 0-.678-.037 5.1 5.1 0 0 0-3.413 1.228 5.89 5.89 0 0 0-1.834 3.99c-.408 4.228-1.752 20.545-2.622 31.181-.159-.61-.319-1.22-.498-1.82-2.812-9.428-8.229-17.578-17.347-23.269-9.114-5.696-21.828-8.946-39.247-8.947-11.617.001-21.132 1.445-28.893 4.096-11.64 3.965-19.322 10.708-23.981 19.162a46.833 46.833 0 0 0-4.373 11.367c-.867-10.611-2.254-27.462-2.67-31.77a5.894 5.894 0 0 0-1.833-3.99 5.103 5.103 0 0 0-3.414-1.228c-.227 0-.453.012-.679.037a5.008 5.008 0 0 0-3.167 1.488 4.798 4.798 0 0 0-1.033 1.747 7.13 7.13 0 0 0-.351 2.319c0 .22.007.445.023.677.331 5.057 1.858 22.907 2.793 32.805.132 2.457.708 4.87 1.699 7.122a7.11 7.11 0 0 0 1.38 1.953 6.436 6.436 0 0 0-1.5 1.64 8.811 8.811 0 0 0-1.012 3.041 24.745 24.745 0 0 0-.325 4.204 37.14 37.14 0 0 0 .257 4.277c.264 2.4.803 4.761 1.606 7.038.309.868.69 1.708 1.137 2.512.348.65.803 1.237 1.348 1.734a9.882 9.882 0 0 0 4.135 1.837c.744.168 1.498.287 2.258.354.012.039.021.08.033.118a37.708 37.708 0 0 0 17.436 22.212c7.602 4.442 17.685 7.229 30.864 8.037v2.675c-.61.084-1.208.194-1.803.307a86.662 86.662 0 0 0-3.57.258 41.502 41.502 0 0 0-4.3.603c-1.05.177-2.067.512-3.017.993a13.18 13.18 0 0 0-3.61 3.203c-.197-.082-.38-.176-.592-.244a9.119 9.119 0 0 0-2.802-.423 17.446 17.446 0 0 0-8.526 2.748 44.06 44.06 0 0 0-11.401 10.122 33.845 33.845 0 0 0-3.753 5.66 11.734 11.734 0 0 0-1.506 5.056l.005.247a7.078 7.078 0 0 0 .82 3.068c.4.734.93 1.388 1.565 1.932a8.482 8.482 0 0 0-1.144 4.372c.012 3.489 1.694 7.479 5.012 11.765a25.22 25.22 0 0 0 5.647 5.653 7.85 7.85 0 0 0 6.12 1.433c.127.377.306.734.531 1.061a4.682 4.682 0 0 0 2.168 1.713 5.554 5.554 0 0 0 2.38.351c.027.25.052.508.081.753.225 2.011.553 4.009.983 5.986.293 1.461.763 2.88 1.4 4.226a1.297 1.297 0 0 0 1.755.556 1.304 1.304 0 0 0 .552-1.757 15.879 15.879 0 0 1-1.17-3.6c-.572-2.703-.97-5.44-1.195-8.194.382.11.767.218 1.166.319.007.002.01.006.017.008.017.004.033.005.05.008l.01.003v.001l.018.003a72.032 72.032 0 0 0 9.896 1.649c5.23.514 10.484.761 15.74.74 6.708.016 13.411-.342 20.079-1.073l.037-.003h.001l.011-.001.004-.001.121-.014a69.83 69.83 0 0 0 7.328-1.198c.871-.193 1.729-.44 2.57-.738l.019-.008a120.375 120.375 0 0 1-.811 12.516 1.304 1.304 0 0 0 1.127 1.453c.342.043.687-.051.96-.262.272-.212.45-.523.493-.865.621-5.432.911-10.898.867-16.365a236.317 236.317 0 0 0-2.336-32.766 164.63 164.63 0 0 0-.217-1.408c.592-.038 1.088-.066 1.522-.092a76.841 76.841 0 0 0 3.413 9.214 16.148 16.148 0 0 0 4.702 6.526 8.561 8.561 0 0 0 5.124 1.786c.138.322.294.636.464.942a21.511 21.511 0 0 0 2.486 3.393 38.14 38.14 0 0 0 5.725 5.302 28.963 28.963 0 0 0 3.485 2.282 13.9 13.9 0 0 0 3.505 1.408c1.228.277 2.482.418 3.741.421a12.09 12.09 0 0 0 6.317-1.616 9.31 9.31 0 0 0 1.765-1.405c.241.158.462.3.607.387.113.061.235.105.362.129.171.154.359.287.561.398.451.236.932.41 1.429.516a7.39 7.39 0 0 0 1.589.182 4.289 4.289 0 0 0 1.768-.333c.149-.068.291-.15.425-.244.04.018.075.036.12.054a4.747 4.747 0 0 0 1.799.357h.027l.005-.001h.016v-.001a6.134 6.134 0 0 0 3.434-.883c.179-.124.335-.281.459-.461a2.4 2.4 0 0 0 .126-.22c.446.199.919.328 1.403.384.333.04.667.06 1.002.061a5.524 5.524 0 0 0 2.554-.544c.21-.113.395-.265.546-.449.199-.248.365-.52.493-.811.243-.547.447-1.111.611-1.687.167-.56.316-1.151.453-1.736l7.858-.97a1.298 1.298 0 0 0 1.141-1.283l.19-38.572c.001-.037-.017-.068-.02-.105a1.305 1.305 0 0 0-.442-1.364Zm-35.1-55.359c.201 1.241.297 2.497.285 3.754a34.525 34.525 0 0 1-.239 3.976 28.906 28.906 0 0 1-1.464 6.446c-.259.73-.578 1.437-.953 2.115a4.141 4.141 0 0 1-.772 1.041 7.512 7.512 0 0 1-3.026 1.284 15.163 15.163 0 0 1-1.691.279 71.35 71.35 0 0 0 1.902-17.282c0-2.257-.082-4.48-.245-6.668.817.176 1.618.419 2.396.726a9.943 9.943 0 0 1 1.863.957c.509.323.946.748 1.282 1.249a6.5 6.5 0 0 1 .662 2.123Zm-5.828-12.637c.809-9.93 2.487-30.415 2.947-35.174a3.31 3.31 0 0 1 .965-2.29 2.505 2.505 0 0 1 1.694-.578c.131 0 .261.007.391.022a2.424 2.424 0 0 1 1.559.682c.213.233.373.51.469.81.151.478.222.977.211 1.477 0 .16-.006.328-.017.508-.326 4.981-1.855 22.865-2.788 32.73-.096 2.1-.58 4.163-1.427 6.087-.214.437-.5.834-.846 1.175-.137.13-.287.244-.448.342a18.743 18.743 0 0 0-.978-.34 16.337 16.337 0 0 0-1.799-.46 1.258 1.258 0 0 0-.34.008l.407-5ZM20.822 51.143c-.932-9.864-2.461-27.748-2.788-32.73a7.76 7.76 0 0 1-.017-.507c-.011-.5.06-.999.21-1.476.13-.432.401-.808.77-1.069.377-.243.81-.389 1.257-.424h.002c.13-.015.26-.022.39-.022a2.507 2.507 0 0 1 1.695.578c.607.61.953 1.43.965 2.29.306 3.168 1.155 13.339 1.926 22.698a15017.254 15017.254 0 0 1 1.437 17.594c-.787.187-1.56.426-2.315.716-.197.077-.406.178-.61.267a3.542 3.542 0 0 1-1.487-1.71 18.014 18.014 0 0 1-1.435-6.205Zm6.504 33.019a7.206 7.206 0 0 1-2.822-1.236 4.124 4.124 0 0 1-.772-1.041 16.835 16.835 0 0 1-1.403-3.488c-.48-1.66-.82-3.357-1.014-5.073a34.522 34.522 0 0 1-.24-3.976 22.19 22.19 0 0 1 .286-3.754c.097-.74.321-1.459.662-2.123.35-.518.805-.957 1.337-1.285a11.64 11.64 0 0 1 2.87-1.296c.21-.066.405-.12.582-.169a91.077 91.077 0 0 0-.227 6.486 71.418 71.418 0 0 0 1.884 17.182 14.413 14.413 0 0 1-1.143-.227Zm30.49 27.307c-11.124-3.539-18.177-9.377-22.564-16.91-4.381-7.538-6.069-16.876-6.067-27.352a68.502 68.502 0 0 1 2.522-19.568c2.691-8.959 7.685-16.453 16.234-21.81 8.553-5.35 20.762-8.551 37.87-8.55 11.401-.001 20.635 1.421 28.052 3.955 11.125 3.812 18.169 10.06 22.546 17.96 4.369 7.9 6.029 17.535 6.027 28.013a64.912 64.912 0 0 1-2.546 19.238 35.075 35.075 0 0 1-16.266 20.74c-8.558 5.009-20.769 7.936-37.813 7.934-11.36 0-20.58-1.298-27.994-3.65Zm-22.01 34.601a25.265 25.265 0 0 1 3.445-5.831 43.979 43.979 0 0 1 8.98-8.829c3.36-2.436 6.868-3.989 9.624-3.971a6.556 6.556 0 0 1 1.903.274c-.18.32-.355.643-.517.98a1.026 1.026 0 0 0-.123.018 6.311 6.311 0 0 0-4.126 4.915 6.318 6.318 0 0 0 2.302 5.991c-.022.243-.05.475-.076.712-.166.226-.334.453-.506.681a111.894 111.894 0 0 1-8.536 9.833 16.369 16.369 0 0 0-.63-.312 5.775 5.775 0 0 0-10.856 1.092 4.295 4.295 0 0 1-.905-1.114 4.474 4.474 0 0 1-.513-1.952l-.003-.132c.04-.811.221-1.608.537-2.355Zm16.818 25.476a1.607 1.607 0 0 1-.208-.775 1.27 1.27 0 0 1 .285-.812c.064.028.13.067.193.092a5.825 5.825 0 0 0 2.093.386c.055 0 .09-.002.135-.003.025.779.056 1.549.092 2.31a1.05 1.05 0 0 0-.158-.015v-.002c-.008 0-.066.005-.16.005a3.277 3.277 0 0 1-1.146-.209 2.1 2.1 0 0 1-1.126-.977Zm2.435-3.71-.072.001c-.391 0-.78-.071-1.146-.208a2.098 2.098 0 0 1-1.124-.977 1.607 1.607 0 0 1-.209-.775c-.005-.331.12-.651.347-.891a1.327 1.327 0 0 1 1.001-.38c.276.005.55.052.81.142.122.033.249.048.376.043-.001.172-.005.346-.005.518 0 .848.009 1.69.022 2.527Zm.252-11.848c-1.65-1.35-3.245-2.653-4.862-3.758 1.404-1.467 3.632-3.847 5.921-6.607-.493 3.241-.843 6.755-1.059 10.365Zm-4.613 18.279c-.014.002-.027-.003-.041 0a6.32 6.32 0 0 1-1.35.158 5.77 5.77 0 0 1-3.295-1.129 22.821 22.821 0 0 1-5.031-5.081c-3.11-3.996-4.478-7.557-4.466-10.171a5.508 5.508 0 0 1 3.347-5.305 6.995 6.995 0 0 1 3.06-.734 9.805 9.805 0 0 1 5.072 1.718 54.501 54.501 0 0 1 5.706 4.306c.386.317.758.641 1.112.972.102.088.217.159.34.21-.037.988-.065 1.976-.084 2.965a5.064 5.064 0 0 0-1.212-.169 3.946 3.946 0 0 0-2.864 1.167 3.865 3.865 0 0 0-1.084 2.703 4.21 4.21 0 0 0 .529 2.025c.084.14.175.274.274.404a3.864 3.864 0 0 0-.895 2.465 4.21 4.21 0 0 0 .528 2.025c.175.315.386.609.63.876-.11.19-.202.389-.276.595Zm4.703 3.166a2.987 2.987 0 0 1-1.063-.186 2.065 2.065 0 0 1-.976-.773 1.568 1.568 0 0 1-.296-.895c.002-.177.04-.352.114-.513.556.171 1.134.26 1.716.266.141.001.282-.006.422-.019.015-.001.025-.01.04-.012.048.723.102 1.432.16 2.126-.04.002-.07.006-.117.006Zm58.927-2.18a28.505 28.505 0 0 1-4.554 1.109 84.902 84.902 0 0 1-4.864.698l-.039.003c-.652.07-1.306.105-1.962.105-4.497.003-8.392-1.641-12.339-3.398-1.971-.875-3.948-1.772-6.015-2.459a20.582 20.582 0 0 0-6.544-1.164 19.104 19.104 0 0 0-10.161 3.074c-1.266.74-2.386 1.444-3.444 1.936a7.17 7.17 0 0 1-3.094.783c-.2-.001-.4-.013-.598-.034a48.086 48.086 0 0 1-.71-.115l-.049-.009a33.923 33.923 0 0 1-1.997-.576c-.21-3.105-.323-6.465-.321-9.897-.076-7.512.54-15.015 1.837-22.415a49.97 49.97 0 0 0 .628-5.896c.062-1.68.277-3.35.642-4.99a13.856 13.856 0 0 1 2.281-4.577 10.877 10.877 0 0 1 3.124-2.871 8.42 8.42 0 0 1 2.25-.703c2.139-.392 4.3-.644 6.472-.754a18.05 18.05 0 0 0 11.516 4.087 20.796 20.796 0 0 0 7.17-1.301 16.401 16.401 0 0 0 4.495-2.46c.282.023.572.045.848.069 2.29.203 4.34.451 5.974.73.817.139 1.53.286 2.109.436.437.103.864.245 1.276.424.128.08.241.184.33.306a8.771 8.771 0 0 1 1.19 2.262 49.586 49.586 0 0 1 2.145 7.999c1.996 10.019 3.36 25.153 3.358 38.507 0 .219-.003.435-.004.653a5.241 5.241 0 0 1-.95.438Zm37.979-58.338c.047.201.091.402.146.602a96.86 96.86 0 0 1-4.327.751 50.73 50.73 0 0 1-7.015.623 14.616 14.616 0 0 1-2.499-.179 3.597 3.597 0 0 1-1.227-.4l-.003-.124c.428-.51.887-.994 1.373-1.45a12.094 12.094 0 0 1 2.218-1.666 6.493 6.493 0 0 1 2.518-.868 21.183 21.183 0 0 1 2.107-.132 6.098 6.098 0 0 1 2.724.543 33.132 33.132 0 0 1 3.636 2.131c.106.059.221.102.339.128l.01.041Zm-14.154 4.356c.366.065.758.103 1.153.138.024.024.035.056.061.079l5.812 5.006.332 35.984-7.095-7.151-.953-34.209c.225.058.455.109.69.153Zm8.779 3.302-3.663-3.155c2.133-.134 4.347-.432 6.201-.727a91.485 91.485 0 0 0 2.723-.476c.054.087.119.167.192.239l4.114 3.412-9.358.829a1.241 1.241 0 0 0-.209-.122Zm13.138-1.023a1.315 1.315 0 0 0-.244-.302l-2.958-2.454c.316.023.641.041.98.041.477.002.953-.03 1.425-.095a8.208 8.208 0 0 0 2.525-.758l-.581-1.163.582 1.163c.34-.18.643-.423.893-.716.292-.008.585-.016.89-.022.076.108.169.203.275.283l4.782 3.264-8.569.759Zm3.869-6.914a44.662 44.662 0 0 1 5.936-3.734 12.613 12.613 0 0 1 5.426-1.585 5.366 5.366 0 0 1 1.733.269 6.799 6.799 0 0 1 1.998.954 3.955 3.955 0 0 1 1.23 1.67c.079.244.145.492.196.744.006.029.026.051.034.079a1.174 1.174 0 0 0-.017.131l-.095.085a3.31 3.31 0 0 1-.909.41 17.156 17.156 0 0 1-3.257.584c-3.506.362-8.288.32-12.275.393Zm1.596-10.581a5.885 5.885 0 0 1 1.736-1.182 4.293 4.293 0 0 1 1.699-.347 6.595 6.595 0 0 1 2.912.786c1.2.628 2.32 1.398 3.337 2.293.337.286.812.698 1.338 1.205a8.512 8.512 0 0 0-1.256-.093c-2.31.107-4.565.743-6.591 1.861a43.572 43.572 0 0 0-5.374 3.292 6.305 6.305 0 0 0-.534-1.593 4.75 4.75 0 0 0-.629-.934 16.293 16.293 0 0 1 3.362-5.288Zm-10.799 7.571a1.62 1.62 0 0 1 .619-.896 3.324 3.324 0 0 1 1.699-.511c.251-.021.482-.03.698-.03a4.18 4.18 0 0 1 1.757.311c.255.114.482.281.667.49.294.363.494.793.583 1.251.134.639.196 1.291.184 1.944l.001.023c0 .315-.01.64-.025.973a.55.55 0 0 1-.284.475 5.623 5.623 0 0 1-1.728.51 7.504 7.504 0 0 1-1.059.069 13.176 13.176 0 0 1-2.189-.204.58.58 0 0 1-.275-.127.584.584 0 0 1-.171-.25 14.78 14.78 0 0 1-.286-.96 8.323 8.323 0 0 1-.319-2.08 3.399 3.399 0 0 1 .128-.988Zm-20.504 2.372a.946.946 0 0 1-.188-.547 1.2 1.2 0 0 1 .114-.481 18.19 18.19 0 0 1 4.429-6.547 7.358 7.358 0 0 1 4.87-2.023 7.717 7.717 0 0 1 4.303 1.443 16.763 16.763 0 0 1 4.411 4.644c.047.055.099.106.155.153-.125.358-.211.73-.256 1.107a22.918 22.918 0 0 0-2.689-1.506 8.738 8.738 0 0 0-3.783-.769c-.793.008-1.586.057-2.374.146a9.1 9.1 0 0 0-3.586 1.222 16.067 16.067 0 0 0-3.746 3.102c-.291.318-.537.61-.743.865-.101-.063-.204-.126-.302-.2a2.653 2.653 0 0 1-.615-.609Zm-7.697 37.566a13.642 13.642 0 0 1-3.895-5.51 65.65 65.65 0 0 1-5.28-17.96 12.74 12.74 0 0 1-.097-1.461 3.586 3.586 0 0 1 .352-1.797 1.82 1.82 0 0 1 1.165-.81l-.373-1.245.374 1.245a5.658 5.658 0 0 1 1.629-.237 9.076 9.076 0 0 1 4.847 1.681 26.573 26.573 0 0 1 6.955 7.225 34.986 34.986 0 0 1 3.189 5.749l.133 4.775a5.626 5.626 0 0 0-6.083 9.001c-.002.065-.015.13-.014.194-.001.123.021.24.027.361a5.928 5.928 0 0 1-2.929-1.211Zm27.923 13.771a9.511 9.511 0 0 1-4.962 1.235 14.554 14.554 0 0 1-3.167-.357 11.384 11.384 0 0 1-2.832-1.153 34.357 34.357 0 0 1-8.481-6.993 19.027 19.027 0 0 1-2.19-2.969 5.452 5.452 0 0 1-.789-2.684 5.826 5.826 0 0 1 .911-2.954 5.213 5.213 0 0 1 2.532-2.226c.052-.023.111-.037.164-.059l.187 6.739c.009.33.144.645.377.879l9.2 9.273c.075.064.157.119.245.164a1.3 1.3 0 0 0 1.347.763l8.021-.989c.156.178.323.355.498.533a7.233 7.233 0 0 1-1.061.798Zm4.195-7.517a2.871 2.871 0 0 0-.799 1.462h-.001c-.101.587-.156 1.18-.164 1.775l-9.562 1.179-.341-36.986 11.054-.979.199 33.223c-.135.1-.265.209-.386.326Zm.936 1.797.8.154.004.001-.804-.155Zm3.074 5.494-.036.009c-.165.03-.333.045-.501.043a4.695 4.695 0 0 1-1.481-.252 2.047 2.047 0 0 1-.181-.077c-.08-.765-.194-2.021-.193-3.209-.011-.619.035-1.237.135-1.848a.634.634 0 0 1 .169-.199c.267-.214.571-.378.897-.484.214-.075.436-.129.661-.162a48.83 48.83 0 0 1 .536 5.853c0 .121-.002.229-.006.326Zm5.898-2.553a15.3 15.3 0 0 1-.346 1.722 3.485 3.485 0 0 1-.124.374 4.091 4.091 0 0 1-1.826.343h-.018c-.28 0-.558-.055-.817-.16a1.334 1.334 0 0 1-.161-.079c-.001-.183-.009-.387-.015-.588a1.29 1.29 0 0 0 1.175-1.323v-.015c.014-.289.052-.578.111-.861.127-.659.3-1.307.518-1.941a6.12 6.12 0 0 1 .299-.726l.049-.086c.076-.02.152-.035.229-.046a4.104 4.104 0 0 1 1.247.02 29.668 29.668 0 0 1-.321 3.366Zm.741-5.934a6.563 6.563 0 0 0-1.102-.09 6.25 6.25 0 0 0-1.221.114 2.822 2.822 0 0 0-1.217.519 2.436 2.436 0 0 0-.541.634 6.16 6.16 0 0 0-.477 1.005 34.16 34.16 0 0 0-.102-.646 7.177 7.177 0 0 0-.111-.532 1.641 1.641 0 0 0-.454-.766 1.949 1.949 0 0 0-.872-.469 3.15 3.15 0 0 0-.768-.089c-.27.006-.539.032-.804.079l-.194-32.317c0-.008-.005-.016-.005-.025l8.842-.783-.04 33.648a4.025 4.025 0 0 0-.934-.282Zm5.247 5.179a14.358 14.358 0 0 1-.52 1.583 3.075 3.075 0 0 1-.15.318 3.51 3.51 0 0 1-1.169.172 6.092 6.092 0 0 1-.701-.043 2.182 2.182 0 0 1-.794-.251l-.171-.109c.033-.19.064-.382.093-.576a1.288 1.288 0 0 0 1.296-1.174 4.89 4.89 0 0 1 .191-.799c.2-.651.447-1.287.738-1.903.114-.245.244-.482.388-.71l.065-.088a2.05 2.05 0 0 1 .332-.021c.385.002.767.057 1.138.163a30.034 30.034 0 0 1-.736 3.438Zm9.223-3.964-5.894.727c.03-.216.048-.433.052-.651l-.007-.19v-.003a1.742 1.742 0 0 0-.3-.828 2.296 2.296 0 0 0-.838-.718 4.798 4.798 0 0 0-1.297-.439 6.947 6.947 0 0 0-1.341-.135 4.802 4.802 0 0 0-.838.068 3.197 3.197 0 0 0-.472.129l.039-32.771 7.165-.634a1.302 1.302 0 0 0 1.181-1.41 1.298 1.298 0 0 0-1.41-1.18l-7.338.649a1.274 1.274 0 0 0-.396-.46l-4.111-2.807c2.339-.028 4.752-.072 6.92-.22a32.44 32.44 0 0 0 3.943-.476l5.126 4.086-.184 37.263Z"/></svg>