<svg xmlns="http://www.w3.org/2000/svg" width="200" height="200" fill="none"><path fill="#BEBEC9" d="M169.919 167.984a22.24 22.24 0 0 0 6.251.898c3.721-.001 7.273-.936 10.246-2.608 2.969-1.67 5.372-4.09 6.708-7.074 1.052-2.352 1.507-4.727 1.508-6.889-.004-2.291-.502-4.346-1.423-5.932-.463-.791-1.038-1.47-1.746-1.971-.703-.499-1.558-.808-2.458-.805-.133 0-.271.006-.413.021l.01-.001c-.85.083-1.577.479-2.171.972-1.04.872-1.832 2.071-2.679 3.385-1.253 1.97-2.583 4.217-4.276 5.908-.846.847-1.772 1.553-2.818 2.048-1.047.495-2.217.789-3.617.791-.592 0-1.226-.055-1.909-.173a1.3 1.3 0 1 0-.443 2.562c.817.142 1.601.211 2.352.211 2.707.006 4.952-.915 6.726-2.251 2.666-2.007 4.376-4.86 5.823-7.139.717-1.14 1.369-2.141 1.953-2.8.29-.33.559-.57.781-.714.225-.146.387-.197.531-.212l.01-.001.14-.007c.324.003.622.096.96.33.501.347 1.043 1.055 1.432 2.063.392 1.005.635 2.289.635 3.715 0 1.797-.382 3.819-1.281 5.827-1.069 2.392-3.048 4.429-5.61 5.87-2.559 1.441-5.688 2.275-8.971 2.274-1.815 0-3.677-.253-5.52-.793a1.3 1.3 0 1 0-.731 2.495ZM154.668 124.101c-.998 8.817-3.336 20.12-5.423 29.193a552.952 552.952 0 0 1-3.603 14.716c-.205.783-.318 1.206-.319 1.208-.121.452.009.931.343 1.261l.034-.035-.034.035.034-.035-.034.035c.033.032.589.599 1.104 1.376.525.773.958 1.758.942 2.466a1.665 1.665 0 0 1-.332 1.033 1.41 1.41 0 0 1-.647.495 2.572 2.572 0 0 1-.936.155 5.266 5.266 0 0 1-1.297-.183 5.914 5.914 0 0 1-.417-.127l-.104-.037-.02-.008-.088.219.091-.218-.003-.001-.088.219.091-.218a1.3 1.3 0 0 0-1.694.697l.453.191-.447-.204-.006.013.453.191-.447-.204a2.782 2.782 0 0 1-.542.734c-.358.34-.818.64-1.566.69l-.252.008c-1.009.001-1.872-.377-2.499-.783a5.45 5.45 0 0 1-.717-.55l-.174-.168-.035-.037-.004-.004-.508.454.513-.448-.005-.006-.508.454.513-.448a1.298 1.298 0 0 0-1.884-.078l.261.269-.255-.275-.006.006.261.269-.255-.275a3.777 3.777 0 0 1-.695.484c-.406.223-.927.41-1.458.408-.468-.005-.964-.118-1.582-.558-.364-.266-.558-.519-.685-.781a2.026 2.026 0 0 1-.186-.89c-.011-.796.392-1.846.848-2.648a10.912 10.912 0 0 1 .82-1.252l.05-.065.011-.014-.058-.047.058.048v-.001l-.058-.047.058.048c.176-.215.28-.485.294-.762 0-.005.081-1.648.229-4.388.445-8.218 1.501-26.265 2.809-38.965a1.3 1.3 0 0 0-2.586-.266c-1.756 17.059-3.048 43.48-3.049 43.491l1.299.064-1.004-.826c-.032.04-.58.706-1.144 1.717-.557 1.014-1.165 2.366-1.177 3.913 0 .655.123 1.352.442 2.015a4.66 4.66 0 0 0 1.506 1.763c1.026.747 2.13 1.056 3.105 1.051 1.194-.003 2.164-.415 2.836-.8.673-.39 1.067-.769 1.121-.82l-.905-.933-.979.855c.055.062.562.638 1.472 1.228.907.585 2.245 1.196 3.91 1.198.134 0 .271-.004.41-.013a5 5 0 0 0 3.353-1.553c.671-.705.946-1.351.987-1.444l-1.198-.504-.496 1.202c.086.027 1.281.541 2.827.55a5.152 5.152 0 0 0 1.892-.337 4.034 4.034 0 0 0 1.787-1.375 4.29 4.29 0 0 0 .836-2.571c-.017-1.633-.769-2.992-1.441-4-.683-1.005-1.34-1.653-1.378-1.692l-.914.925 1.256.336c.003-.01 1.846-6.892 3.944-16.014 2.097-9.124 4.45-20.474 5.473-29.482a1.299 1.299 0 1 0-2.583-.293h-.001ZM98.487 155.584a836.352 836.352 0 0 1 4.068 13.47c.207.709.316 1.091.317 1.092l1.249-.358-.945-.893c-.038.042-.614.653-1.212 1.607-.587.956-1.239 2.257-1.251 3.802a4.5 4.5 0 0 0 1.006 2.867 4.32 4.32 0 0 0 1.829 1.334 5.267 5.267 0 0 0 1.898.332c1.547-.009 2.719-.525 2.807-.555l-.508-1.197-1.167.573c.045.086.358.72 1.062 1.408a5.297 5.297 0 0 0 3.402 1.521c.139.008.276.012.41.012 1.665 0 2.985-.617 3.863-1.213.883-.598 1.359-1.183 1.415-1.252l-1.013-.814-.874.962c.052.046.464.418 1.153.801.688.378 1.667.785 2.859.789.975.006 2.08-.307 3.075-1.07a4.385 4.385 0 0 0 1.342-1.629c.287-.611.4-1.253.4-1.859-.017-1.635-.731-3.051-1.377-4.124-.655-1.068-1.29-1.779-1.323-1.817l-.97.866 1.292-.142c-.002-.014-2.923-26.667-5.874-43.735a1.3 1.3 0 0 0-2.562.443c1.463 8.46 2.928 19.363 4.025 28.141a1275.488 1275.488 0 0 1 1.696 14.259l.131 1.175c.029.271.141.521.322.724l.001.001c.036.04.584.673 1.095 1.525.52.847.958 1.924.944 2.684a1.754 1.754 0 0 1-.154.755c-.105.22-.262.433-.562.664-.566.422-1.032.533-1.501.539-.566.003-1.157-.216-1.598-.463-.22-.122-.4-.246-.518-.334l-.128-.101-.024-.021-.002-.001-.508.571.514-.566-.006-.005-.508.571.514-.566a1.306 1.306 0 0 0-.976-.333 1.295 1.295 0 0 0-.911.481l.579.465-.573-.473-.006.008.579.465-.573-.473-.056.063c-.137.15-.522.529-1.077.85a4.201 4.201 0 0 1-2.125.589l-.253-.007c-.805-.052-1.345-.407-1.746-.791a3.355 3.355 0 0 1-.435-.518l-.095-.152-.016-.029-.376.198.381-.187-.005-.011-.376.198.381-.187a1.3 1.3 0 0 0-1.675-.624l.123.287-.119-.289-.004.002.123.287-.119-.289c-.034.02-.932.358-1.795.35a2.685 2.685 0 0 1-.965-.159 1.693 1.693 0 0 1-.736-.537c-.325-.413-.425-.778-.432-1.237-.012-.736.391-1.694.857-2.425a9.032 9.032 0 0 1 .837-1.133l.051-.057.01-.011-.156-.145.155.146.001-.001-.156-.145.155.146c.316-.335.431-.808.304-1.25a768.08 768.08 0 0 0-4.402-14.618 1.3 1.3 0 1 0-2.482.773Z"/><path fill="#BEBEC9" d="M101.307 172.172c-.623-.037-1.633-.076-2.658-.117a1.3 1.3 0 1 0-.104 2.598c1.024.041 2.038.08 2.605.114a1.3 1.3 0 1 0 .158-2.594l-.001-.001ZM128.687 172.446c-1.965.057-3.764.095-5.868.112a1.3 1.3 0 0 0 .021 2.601c2.124-.018 3.945-.057 5.923-.114a1.3 1.3 0 0 0-.076-2.599ZM161.484 104.308c1.914 8.029 3.791 18.418 5.185 28.376 1.395 9.956 2.306 19.506 2.304 25.798.001 2.023-.095 3.71-.285 4.916-.336 2.111-1.107 3.548-2.192 4.647-.817.822-1.838 1.458-3.046 1.953-1.809.744-4.03 1.152-6.417 1.391-2.389.241-4.939.319-7.426.46a1.3 1.3 0 0 0 .148 2.597c4.343-.255 9.121-.283 13.189-1.514 2.032-.619 3.911-1.561 5.396-3.054 1.488-1.489 2.523-3.519 2.917-6.079.221-1.424.316-3.21.316-5.317-.001-6.523-.925-16.123-2.329-26.158-1.405-10.032-3.29-20.474-5.231-28.619a1.301 1.301 0 0 0-2.529.603Z"/><path fill="#BEBEC9" d="M163.945 103.913c6.618-30.57 8.248-66.354 8.252-66.391a1.301 1.301 0 0 0-1.748-1.28c-1.111.411-2.732 1.143-4.591 2.026-5.562 2.644-13.138 6.615-13.146 6.619l.604 1.151.603-1.151c-2.273-1.19-5.199-2.367-8.334-3.486-9.397-3.347-20.67-6.129-20.691-6.135l-.312 1.263 1.247-.367c-1.058-3.596-2.881-7.93-4.446-11.396a169.903 169.903 0 0 0-2.873-6.052 1.296 1.296 0 0 0-1.06-.71 1.297 1.297 0 0 0-1.157.538c-2.517 3.513-7.149 9.12-12.611 17.782-5.467 8.669-11.784 20.421-17.778 36.345a1.3 1.3 0 1 0 2.433.916c5.931-15.756 12.162-27.338 17.544-35.874 5.388-8.542 9.909-14.01 12.525-17.653l-1.056-.758-1.16.586.222.446a176.487 176.487 0 0 1 3.189 6.82c1.388 3.145 2.869 6.795 3.734 9.743.131.446.485.784.936.895a282.675 282.675 0 0 1 13.355 3.726c5.479 1.683 11.429 3.754 15.086 5.674.378.197.83.197 1.207 0 .002-.002.838-.44 2.162-1.123 1.986-1.026 5.063-2.601 8.021-4.058a191.816 191.816 0 0 1 4.192-2.012c1.261-.584 2.347-1.055 3.055-1.315l-.45-1.22-1.299-.06c0 .002-.025.551-.083 1.584-.399 7.224-2.375 37.896-8.114 64.377a1.3 1.3 0 0 0 2.542.55Z"/><path fill="#BEBEC9" d="M70.406 37.805c10.041 2.97 18.58 7.39 24.594 11.067a101.438 101.438 0 0 1 7.006 4.678 67.065 67.065 0 0 1 2.315 1.773l.115.094.034.029a1.3 1.3 0 1 0 1.67-1.993c-.08-.06-14.343-12.025-34.996-18.141a1.3 1.3 0 1 0-.738 2.494ZM63.24 47.368c10.677.55 20.302 3.825 27.243 6.971a85.132 85.132 0 0 1 8.195 4.252c.963.57 1.707 1.042 2.207 1.368.25.163.44.29.565.375l.139.096.041.028a1.3 1.3 0 0 0 1.5-2.123c-.049-.034-4.43-3.126-11.574-6.364-7.144-3.235-17.055-6.623-28.181-7.2a1.3 1.3 0 1 0-.134 2.597ZM63.725 60.127a47.125 47.125 0 0 1 5.324-.287c7.185-.002 14.674 1.408 20.344 2.826 2.835.708 5.218 1.417 6.887 1.947a85.443 85.443 0 0 1 2.443.817l.167.06a1.3 1.3 0 0 0 .897-2.44c-.032-.012-3.967-1.458-9.764-2.906-5.8-1.447-13.455-2.902-20.974-2.904-1.892 0-3.775.093-5.619.303a1.3 1.3 0 1 0 .295 2.584ZM156.584 74.95c10.888.635 20.299 3.004 26.976 5.213a94.663 94.663 0 0 1 7.807 2.953 61.81 61.81 0 0 1 2.071.938c.233.112.409.198.526.256l.129.065.037.02a1.3 1.3 0 0 0 1.197-2.308c-.097-.047-16.239-8.424-38.592-9.732a1.299 1.299 0 1 0-.151 2.596ZM154.74 80.807c.001 0 .088.02.266.065 1.334.33 7.535 1.921 14.894 4.652 7.356 2.725 15.876 6.616 21.781 11.418a1.3 1.3 0 1 0 1.639-2.018c-6.733-5.457-16.19-9.571-23.997-12.378-7.804-2.799-13.95-4.26-13.981-4.269a1.3 1.3 0 1 0-.601 2.53h-.001ZM153.963 86.705l.039.014c.912.316 17.118 6.263 29.255 19.441a1.3 1.3 0 1 0 1.912-1.763c-13.075-14.154-30.253-20.104-30.352-20.148a1.3 1.3 0 1 0-.854 2.456ZM115.465 59.886c.555-.529.988-.64 1.347-.647.252 0 .482.071.664.177.181.103.3.246.33.31a1.3 1.3 0 0 0 2.301-1.212c-.303-.569-.763-1.016-1.323-1.345a3.921 3.921 0 0 0-1.972-.53c-1.055-.006-2.203.444-3.157 1.38a1.3 1.3 0 1 0 1.81 1.867ZM123.358 69.309c.458.918.969 1.618 1.589 2.12.614.504 1.367.775 2.076.768.533 0 1.021-.136 1.442-.329.633-.292 1.137-.706 1.557-1.129.419-.425.75-.864.999-1.249l-1.092-.704-1.282.217c.015.067.179 1.076.714 2.195.272.56.638 1.159 1.201 1.671.553.51 1.37.92 2.305.913.544 0 1.1-.13 1.648-.37a1.3 1.3 0 0 0-1.043-2.382c-.28.122-.472.151-.605.152-.22-.007-.347-.06-.562-.243-.312-.267-.645-.877-.831-1.422a6.809 6.809 0 0 1-.208-.696l-.046-.202-.009-.047-.001-.008-.48.085.48-.081v-.004l-.48.085.48-.081a1.298 1.298 0 0 0-2.374-.487 5.034 5.034 0 0 1-.935 1.082 2.363 2.363 0 0 1-.518.341.879.879 0 0 1-.36.093c-.115-.006-.212-.014-.444-.191-.224-.179-.551-.563-.892-1.253a1.3 1.3 0 1 0-2.329 1.156ZM144.653 69.784c.206-.065.365-.084.493-.085a.973.973 0 0 1 .493.127c.213.115.425.345.565.562.071.106.123.204.154.268l.03.067.004.008.612-.245-.617.232.005.013.612-.245-.617.232a1.3 1.3 0 0 0 2.434-.914c-.035-.084-.25-.666-.795-1.314a4.097 4.097 0 0 0-1.121-.935 3.583 3.583 0 0 0-1.759-.455c-.41 0-.839.067-1.274.204a1.3 1.3 0 1 0 .782 2.48h-.001ZM44.737 177.372H17.111l-2.603-52.664a1.3 1.3 0 0 0-2.596.129l2.664 53.899a1.299 1.299 0 0 0 1.298 1.236h28.863a1.3 1.3 0 0 0 0-2.6ZM95.022 124.13l-2.387 53.242H64.58a1.3 1.3 0 1 0 0 2.6h29.3c.693 0 1.267-.549 1.298-1.242l2.442-54.483a1.3 1.3 0 1 0-2.597-.117Z"/><path fill="#FFE632" d="M48.808 98.529c-.425-1.461-.691-2.701-.687-3.592 0-.53.085-.92.229-1.22.11-.225.252-.414.481-.608.341-.287.91-.58 1.81-.8.897-.22 2.107-.361 3.66-.392.266-.005.522-.009.768-.009 1.342 0 2.415.08 3.24.222 1.248.21 1.884.562 2.158.845.142.145.224.279.29.464.064.183.105.426.105.742.001.469-.094 1.087-.265 1.809-.17.721-.41 1.545-.665 2.448a1.3 1.3 0 1 0 2.502.707c.251-.89.5-1.74.694-2.56.192-.821.332-1.611.334-2.404 0-.707-.12-1.437-.472-2.113a3.89 3.89 0 0 0-1.134-1.32c-.727-.542-1.63-.886-2.733-1.11-1.106-.224-2.43-.329-4.054-.33-.267 0-.54.004-.822.01-1.493.03-2.75.152-3.828.377-.807.169-1.514.396-2.135.7-.93.452-1.675 1.11-2.135 1.925-.463.812-.629 1.717-.627 2.617.004 1.358.347 2.768.788 4.312a1.3 1.3 0 1 0 2.498-.72Z"/><path fill="#FFE632" d="M48.76 90.806c-2.917-4.684-6.946-8.542-11.185-11.255-4.245-2.707-8.69-4.293-12.588-4.303-2.127 0-4.121.489-5.743 1.627-1.624 1.133-2.796 2.912-3.311 5.18-.474 2.053-1.225 6.107-1.867 9.682-.64 3.57-1.164 6.639-1.164 6.64l1.281.22 1.293.132c.009-.114.25-1.846 1.269-3.453.508-.807 1.195-1.582 2.139-2.176.946-.591 2.158-1.02 3.814-1.086 1.53-.059 2.987-.1 4.385-.1 2.798-.001 5.356.168 7.813.701 2.458.535 4.821 1.427 7.27 2.91a1.3 1.3 0 0 0 1.348-2.224 25.878 25.878 0 0 0-8.067-3.227c-2.712-.588-5.464-.76-8.364-.76-1.45 0-2.94.043-4.484.102-2.133.078-3.878.682-5.226 1.565-2.03 1.327-3.139 3.208-3.745 4.714-.606 1.514-.729 2.688-.738 2.769a1.298 1.298 0 0 0 1.117 1.42 1.298 1.298 0 0 0 1.457-1.068 825.76 825.76 0 0 1 1.655-9.34c.501-2.73 1.013-5.39 1.347-6.837.413-1.757 1.202-2.876 2.273-3.637 1.073-.755 2.509-1.154 4.248-1.154 3.176-.01 7.265 1.377 11.187 3.893 3.928 2.51 7.696 6.125 10.379 10.439a1.3 1.3 0 0 0 2.207-1.374ZM62.652 92.12c6.457-9.648 14.558-13.863 20.64-13.845 2.579.002 4.782.732 6.456 2.073 1.672 1.345 2.863 3.315 3.336 6.015.247 1.43.758 4.497 1.206 7.201.449 2.705.834 5.045.835 5.05a1.3 1.3 0 0 0 2.566-.423c-.001-.002-1.545-9.38-2.045-12.27-.554-3.235-2.076-5.848-4.272-7.602-2.194-1.76-5.014-2.646-8.081-2.644-7.26.018-15.978 4.83-22.801 14.998a1.3 1.3 0 1 0 2.16 1.448Z"/><path fill="#FFE632" d="M62.53 97.04c7.882-3.85 15.663-5.984 21.605-5.976 2.089 0 3.944.26 5.489.772 1.352.447 2.463 1.077 3.333 1.884.87.81 1.513 1.796 1.922 3.041a1.3 1.3 0 0 0 2.472-.806 9.656 9.656 0 0 0-2.625-4.141c-1.188-1.102-2.647-1.906-4.287-2.447-1.88-.62-4.001-.903-6.304-.903-6.54.007-14.593 2.27-22.744 6.24a1.3 1.3 0 1 0 1.14 2.337ZM38.584 81.673l8.271-7.2-.853-.981-1.153.602.044.085c.23.452 1.324 2.65 2.407 5.635 1.086 2.983 2.154 6.757 2.367 10.3a1.3 1.3 0 1 0 2.595-.158c-.26-4.201-1.54-8.43-2.745-11.643-1.206-3.209-2.347-5.39-2.364-5.424a1.296 1.296 0 0 0-.91-.675 1.296 1.296 0 0 0-1.095.297l-8.272 7.201a1.3 1.3 0 1 0 1.708 1.962ZM58.762 90.272c1.054-5.653 2.44-9.851 3.553-12.623a37.899 37.899 0 0 1 1.39-3.089c.172-.338.308-.587.4-.748l.1-.175.024-.039.004-.006-.243-.15.242.15-.242-.15.242.15-1.105-.684-.913.924L70 81.52a1.3 1.3 0 0 0 1.827-1.85l-7.785-7.688a1.302 1.302 0 0 0-2.018.24c-.073.116-3.644 5.915-5.817 17.574a1.3 1.3 0 0 0 2.556.477Z"/><path fill="#BEBEC9" d="M64.88 124.963h33.513a1.3 1.3 0 0 0 0-2.6H64.88a1.3 1.3 0 1 0 0 2.6ZM44.17 98.036H9.3A1.297 1.297 0 0 0 8.002 99.4l1.203 24.328a1.298 1.298 0 0 0 1.298 1.235h33.798a1.3 1.3 0 0 0 0-2.599l-32.56-.001-1.075-21.727H44.17a1.3 1.3 0 0 0 0-2.6Z"/><path fill="#BEBEC9" d="M99.846 123.728 101.05 99.4a1.3 1.3 0 0 0-1.299-1.364H65.52a1.3 1.3 0 0 0 0 2.6h32.866l-1.136 22.963a1.3 1.3 0 0 0 2.597.129Z"/><path fill="#FFE632" d="M49.906 124.963h9.574a1.3 1.3 0 0 0 0-2.6h-9.574a1.3 1.3 0 1 0 0 2.6Z"/><path fill="#FFE632" d="m64.609 99.237-1.3-.015-.954 78.455H47.197l-1.044-77.139 18.456-.001v-1.3l-1.3-.015 1.3.016v-1.3H44.835a1.301 1.301 0 0 0-1.3 1.318l1.08 79.738c.009.71.59 1.283 1.3 1.283h17.724c.71 0 1.291-.575 1.3-1.285l.97-79.739a1.3 1.3 0 0 0-1.3-1.316v1.3Z"/></svg>