<svg xmlns="http://www.w3.org/2000/svg" width="200" height="200" fill="none"><path fill="#FFE632" d="m89.397 64.247-14.85-.045a1.3 1.3 0 0 0-1.304 1.303 20.957 20.957 0 0 0 1.977 9.32 9.46 9.46 0 0 0 2.671 3.293 6.596 6.596 0 0 0 4.005 1.335 6.86 6.86 0 0 0 4.308-1.488 11.068 11.068 0 0 0 3.435-5.352 23.21 23.21 0 0 0 1.055-7.061 1.301 1.301 0 0 0-1.297-1.305ZM86.473 73.5a7.07 7.07 0 0 1-1.873 2.417 4.24 4.24 0 0 1-2.451.928l-.253.007a3.974 3.974 0 0 1-2.45-.819 8.426 8.426 0 0 1-2.639-4.131 19.728 19.728 0 0 1-.916-5.097l12.16.037a17.368 17.368 0 0 1-1.578 6.658ZM128.249 64.63a1.294 1.294 0 0 0-.918-.383l-14.852-.045a1.298 1.298 0 0 0-1.304 1.303 20.968 20.968 0 0 0 1.979 9.32 9.466 9.466 0 0 0 2.671 3.293 6.597 6.597 0 0 0 4.005 1.335 6.86 6.86 0 0 0 4.308-1.488 11.068 11.068 0 0 0 3.435-5.352 23.222 23.222 0 0 0 1.054-7.061 1.29 1.29 0 0 0-.378-.921Zm-3.842 8.871a7.078 7.078 0 0 1-1.873 2.417 4.242 4.242 0 0 1-2.451.928l-.253.007a3.975 3.975 0 0 1-2.45-.819 8.426 8.426 0 0 1-2.639-4.131 19.765 19.765 0 0 1-.917-5.097l12.161.037a17.37 17.37 0 0 1-1.578 6.658ZM105.362 80.336a8.558 8.558 0 0 0-4.432-1.09 8.879 8.879 0 0 0-4.609 1.138 6.929 6.929 0 0 0-2.067 1.88 8.067 8.067 0 0 0-1.314 2.92 7.376 7.376 0 0 0-.203 1.452 1.3 1.3 0 0 0 2.598.047h.001c.064-.9.335-1.772.793-2.55a4.366 4.366 0 0 1 1.59-1.555 6.36 6.36 0 0 1 3.211-.731 5.97 5.97 0 0 1 3.107.726c.483.285.901.667 1.227 1.122a5.35 5.35 0 0 1 .854 1.977c.087.383.135.775.143 1.168v.016a1.299 1.299 0 1 0 2.599.053l.001-.069a8.581 8.581 0 0 0-1.053-3.986 6.724 6.724 0 0 0-2.446-2.518ZM60.97 155.838a1.3 1.3 0 0 0 1.565-.965c.223-.944.507-1.872.85-2.78a1.298 1.298 0 0 0-.753-1.682 1.303 1.303 0 0 0-1.41.329 1.298 1.298 0 0 0-.268.432 25.183 25.183 0 0 0-.95 3.1 1.302 1.302 0 0 0 .965 1.566Z"/><path fill="#BEBEC9" d="M70.849 180.094a1.31 1.31 0 0 0-.897.431 1.301 1.301 0 0 0-.33.939c.132 2.388.334 4.657.598 6.751a1.303 1.303 0 0 0 1.453 1.127 1.3 1.3 0 0 0 1.127-1.452 94.125 94.125 0 0 1-.582-6.569 1.3 1.3 0 0 0-1.37-1.227Z"/><path fill="#FFE632" d="M110.19 169.993h-.011a1.3 1.3 0 0 0-1.186.768 24.48 24.48 0 0 1-1.591 2.97l-4.02-.217a1.303 1.303 0 0 0-1.048.442 7.909 7.909 0 0 1-.342.346c-.638.619-1.879 1.749-2.946 2.711-1.07.963-1.97 1.763-1.972 1.765a1.299 1.299 0 0 0-.434 1.06l.217 3.191a24.666 24.666 0 0 1-30.018-7.511 24.672 24.672 0 0 1-4.524-10.087l-.024.005a1.279 1.279 0 0 0-2.171-.682 1.297 1.297 0 0 0-.38.919v.01l.024.251a27.26 27.26 0 0 0 40.202 18.413 27.262 27.262 0 0 0 11.388-12.498c.087-.173.133-.363.136-.556a1.299 1.299 0 0 0-1.3-1.3Zm-10.82 11.678-.093-1.374c.462-.412 1.203-1.075 1.979-1.777a184.94 184.94 0 0 0 1.832-1.675c.271-.253.513-.482.714-.677l.027-.026 1.765.095a24.73 24.73 0 0 1-6.223 5.434ZM67.502 157a.88.88 0 0 0 .198.602c.024.052.052.103.083.151l.013.013.012.012a12.702 12.702 0 0 0 3.221 2.512c.617.359 1.252.686 1.903.978a1.298 1.298 0 0 0 1.462-.298c2.482-2.62 6.195-6.607 6.196-6.609a1.297 1.297 0 0 0 .339-1.047c-.33-2.376-.8-4.731-1.41-7.051a1.3 1.3 0 0 0-1.373-.957c-.936.104-1.857.305-2.75.6a37.115 37.115 0 0 0-5.44 2.297 1.306 1.306 0 0 0-.574.607 24.958 24.958 0 0 0-1.901 7.994v.003l-.002.023c.003.057.01.114.023.17Zm9.793-8.917c.282 1.174.702 3.087.97 4.96l-1.742 1.865c-1.03 1.101-2.264 2.418-3.364 3.584-.29-.15-.634-.336-1-.553a11.46 11.46 0 0 1-2.03-1.494 23.29 23.29 0 0 1 .888-4.533c.195-.643.382-1.158.518-1.507l.044-.112a38.765 38.765 0 0 1 2.49-1.134 21.56 21.56 0 0 1 3.227-1.076ZM99.05 150.564a1.305 1.305 0 0 0-.448-.224 1.28 1.28 0 0 0-.965.125c-.04.015-.08.032-.118.052-.812.573-2.428 1.784-3.862 2.865-1.43 1.079-2.665 2.02-2.666 2.02a1.295 1.295 0 0 0-.47 1.362c0 .003.458 1.763.985 3.812a461.576 461.576 0 0 1 1.392 5.513 1.295 1.295 0 0 0 1.195.996c.013 0 2.307.124 4.66.124 1.179-.001 2.366-.03 3.335-.129a1.3 1.3 0 0 0 1.109-.913c.002-.006.499-1.63 1.033-3.527.267-.949.543-1.966.773-2.89.205-.783.371-1.576.495-2.375a1.3 1.3 0 0 0-.394-1.111c-.001-.001-4.381-4.16-5.944-5.632a1.454 1.454 0 0 0-.11-.068Zm3.759 7.106c-.081.409-.193.907-.33 1.454a117.475 117.475 0 0 1-1.132 4.142c-.145.498-.275.937-.38 1.29-.671.037-1.44.053-2.214.053a88.129 88.129 0 0 1-3.56-.078 980.863 980.863 0 0 0-1.939-7.583 798.98 798.98 0 0 1 1.969-1.49c1.006-.759 2.11-1.587 2.937-2.195a3048.942 3048.942 0 0 1 4.649 4.407Z"/><path fill="#FFE632" d="M71.926 175.702c-.004.083 0 .166.013.249.04.165.112.322.212.46a11.188 11.188 0 0 0 2.029 2.023 34.619 34.619 0 0 0 5.198 3.301c.245.126.523.169.795.124 2.899-.468 6.351-1.241 6.364-1.243a1.3 1.3 0 0 0 .998-1.491c-.38-2.183-1.333-6.256-1.335-6.269a1.302 1.302 0 0 0-.763-.903 41.856 41.856 0 0 0-5.662-1.704c-1.872-.454-3.375-.754-3.386-.757a1.299 1.299 0 0 0-1.37.605l-2.932 4.877a1.302 1.302 0 0 0-.17.478c-.006.083-.002.167.009.25Zm4.846-3.473a94.9 94.9 0 0 1 3.085.718c1.374.344 2.86.764 3.964 1.167.218.949.623 2.753.92 4.23-1.15.243-2.923.602-4.558.877a36.425 36.425 0 0 1-2.518-1.486 22.522 22.522 0 0 1-1.982-1.429 11.04 11.04 0 0 1-.883-.799l1.972-3.278Z"/><path fill="#BEBEC9" d="M141.582 47.469c-3.49-3.99-8.45-7.216-15.219-9.425-6.772-2.211-15.361-3.426-26.228-3.427-9.66.001-17.52.961-23.903 2.727-9.57 2.639-15.852 7.148-19.656 12.886-3.806 5.736-5.106 12.573-5.106 19.783a40.57 40.57 0 0 0 2.115 13.71 27.057 27.057 0 0 0 5.159 8.837c3.504 3.988 8.473 7.214 15.236 9.423 6.766 2.211 15.334 3.425 26.155 3.426 9.618 0 17.457-.961 23.833-2.726 9.556-2.64 15.855-7.147 19.679-12.884 3.828-5.734 5.153-12.573 5.153-19.786a40.905 40.905 0 0 0-2.091-13.707 26.953 26.953 0 0 0-5.127-8.837Zm3.6 32.15-1.279-4.034c.014-.167.037-.334.07-.499.321-1.42.723-2.82 1.204-4.193.155-.463.302-.892.433-1.267l.585.73a41.591 41.591 0 0 1-1.013 9.262Zm-2.999-17.471a64.364 64.364 0 0 1-.315-3.486c-.029-.443-.05-.816-.066-1.13a32.31 32.31 0 0 0 2.601.093 35.89 35.89 0 0 1 1.706 9.424l-3.926-4.901Zm.127-9.169c.497.852.943 1.733 1.335 2.638a26.246 26.246 0 0 1-1.632-.073 7.672 7.672 0 0 1-.858-.11 1.725 1.725 0 0 1-.191-.05 38.08 38.08 0 0 1-1.011-.877l-.311-.278 2.668-1.25Zm-1.063-1.71-3.217 1.507-.484-.44c-.462-.42-.834-.76-1.064-.972.9-1.154 1.702-2.18 2.361-3.023.878.91 1.682 1.89 2.404 2.928Zm-13.654 8.324a95.946 95.946 0 0 1-4.16-.806 48.526 48.526 0 0 1-.775-.178l7.376-5.688.192 3.244a1184.87 1184.87 0 0 0-2.633 3.428Zm4.525-14.52-4.856 2.435.098-3.94 4.758 1.506Zm-2.347 3.414.122 2.048a.904.904 0 0 0-.11.054l-9.001 6.941a19.002 19.002 0 0 1-.075-.447 51.247 51.247 0 0 1-.353-2.843c-.04-.396-.07-.731-.092-.983l9.509-4.77Zm2.316 5.272-.362-6.104a.966.966 0 0 0-.034-.13l3.963-1.986c.614.455 1.188.927 1.737 1.411-1.301 1.663-3.212 4.11-5.304 6.809Zm-5.391-12.5a1.003 1.003 0 0 0-1.302.93l-.038 1.512-.081-.001a77.276 77.276 0 0 1-3.696-.149 27.072 27.072 0 0 1-3.555-.429 15.422 15.422 0 0 1-.789-.821c-.937-1.033-2.287-2.655-3.64-4.322a67.68 67.68 0 0 1 9.75 1.87c1.168.338 2.293.81 3.351 1.41Zm-15.911-3.58a247.118 247.118 0 0 0 2.76 3.39c-.392.003-.833.005-1.32.005-2.622.001-6.407-.06-8.769-.328a12.68 12.68 0 0 1-.697-.642c-.74-.724-1.714-1.778-2.703-2.886h.079c3.854 0 7.387.163 10.65.462ZM56.011 57.177a24.356 24.356 0 0 1 4.633-7.995c3.144-3.588 7.648-6.565 14.07-8.666 5.86-1.915 13.335-3.071 22.71-3.259.837.96 1.723 1.956 2.538 2.831.502.54.976 1.033 1.397 1.446.35.354.723.684 1.118.986.136.1.296.162.463.183a89.2 89.2 0 0 0 9.285.372c1.708 0 2.924-.023 3.003-.024.18.205.364.416.525.594.367.423.764.82 1.187 1.187.115.092.248.157.39.191 1.83.355 3.687.557 5.55.604.96.044 1.817.064 2.426.074l-.07 2.824c-9.785 4.907-22.028 11.055-23.47 11.797l-.052.028c-.726.43-6.146 3.714-13.12 7.957-1.502.916-3.09 1.88-4.706 2.872-1.213-.096-4.973-.4-8.486-.607-2.038-.12-3.977-.209-5.321-.209-.34 0-.643.006-.908.019l-.202.031a12.15 12.15 0 0 0-1.04.345c-1.476.546-3.981 1.603-6.739 2.8a702.602 702.602 0 0 0-6.673 2.946 46.018 46.018 0 0 1-.45-6.49c-.087-4.358.57-8.7 1.941-12.837Zm2.043 29.962a27.69 27.69 0 0 1-3.186-8.6 664.207 664.207 0 0 1 8.279-3.647 200.612 200.612 0 0 1 4.033-1.694 53.895 53.895 0 0 1 1.444-.563c.327-.121.589-.21.757-.26.198-.007.429-.012.7-.012 1.26 0 3.186.087 5.204.206 1.985.117 4.052.265 5.692.39-1.27.775-2.545 1.555-3.826 2.34-7.351 4.511-14.623 9-19.097 11.84Zm18.942 13.039C68.155 97.72 62.591 93.755 59.12 88.83c4.45-2.825 11.727-7.317 19.077-11.828 2.102-1.288 4.213-2.576 6.263-3.83a.978.978 0 0 0 .488-.297c1.606-.986 3.187-1.946 4.687-2.861 6.905-4.2 12.304-7.472 13.072-7.928 1.121-.576 8.117-4.092 15.636-7.866.033.344.073.732.119 1.147.074.656.164 1.367.269 2.03.087.597.211 1.189.371 1.77a1.006 1.006 0 0 0 .548.625c.671.271 1.363.488 2.069.648 1.484.37 3.3.721 4.511.942a434.33 434.33 0 0 0-2.679 3.562l.001-.002a150.114 150.114 0 0 0-2.14 2.933c-.575.816-.984 1.424-1.222 1.849l-.082.193a25.116 25.116 0 0 0-.62 3.297 183.787 183.787 0 0 0-.598 4.823v.003c-.231 2.09-.453 4.24-.651 6.047-.174 1.582-.332 2.917-.451 3.664-1.016 1.11-3.189 3.483-5.308 5.857a208.148 208.148 0 0 0-3.141 3.588 58.204 58.204 0 0 0-1.185 1.432c-.332.417-.588.756-.773 1.043l-.087.17a11.74 11.74 0 0 0-.503 1.791c-.069.324-.134.663-.194 1.006-2.059.106-4.197.171-6.462.171-9.446.001-17.06-.947-23.139-2.632Zm48.486-.666a70.442 70.442 0 0 1-16.825 3.002c.03-.154.059-.317.09-.463.093-.467.218-.927.373-1.377.12-.18.321-.453.598-.799 1.091-1.37 3.137-3.694 5.097-5.876 1.962-2.184 3.845-4.237 4.646-5.113.126-.139.211-.31.246-.493.147-.801.319-2.265.519-4.087.2-1.816.422-3.965.652-6.046l-.001.004c.195-1.716.394-3.385.591-4.767.12-.972.295-1.936.523-2.888.176-.302.546-.86 1.055-1.579.557-.79 1.278-1.776 2.11-2.891l.001-.002a643.694 643.694 0 0 1 6.702-8.812c.081 1.551.191 3.635.306 5.755.116 2.116.236 4.268.337 5.967.051.849.097 1.584.135 2.147.04.571.067.935.096 1.154l.001.007c.032.182.082.362.148.535.237.656.733 1.74 1.377 3.084a244.22 244.22 0 0 0 3.339 6.638c.55 1.053 1.054 2 1.453 2.727.2.364.374.672.517.915.065.112.123.207.178.294.053.813.089 2.303.109 3.942-.098.116-.181.24-.281.354-3.159 3.59-7.674 6.568-14.092 8.668Zm16.321-11.695a33.654 33.654 0 0 0-.083-1.692 1.003 1.003 0 0 0-.213-.536l-.001-.002c-.051-.069-.239-.38-.472-.796-.83-1.48-2.404-4.496-3.776-7.246a141.119 141.119 0 0 1-1.796-3.71 32.69 32.69 0 0 1-.563-1.276 8.004 8.004 0 0 1-.152-.394l-.033-.105-.001-.005a24.568 24.568 0 0 1-.08-.998c-.133-1.937-.361-6.043-.555-9.656l-.251-4.727-.092-1.775c.518-.668 1.025-1.322 1.514-1.95.389.355 1.046.955 1.747 1.59a222.06 222.06 0 0 0 1.629 1.464c.495.44.894.789 1.141.986l.007.005c.031.704.166 3.459.46 5.688.024.18.097.351.211.494l3.697 4.616c-.16.439-.613 1.696-1.073 3.112a49.524 49.524 0 0 0-.79 2.642c-.11.418-.203.811-.27 1.17-.068.327-.106.66-.114.995a1 1 0 0 0 .046.302l2.225 7.012a25.31 25.31 0 0 1-2.362 4.792Z"/><path fill="#BEBEC9" d="M167.51 49.658c.935-9.896 2.461-27.746 2.793-32.803.015-.233.023-.458.023-.677a7.129 7.129 0 0 0-.351-2.319 4.646 4.646 0 0 0-1.751-2.365 5.3 5.3 0 0 0-2.451-.87 6.16 6.16 0 0 0-.678-.037 5.103 5.103 0 0 0-3.414 1.228 5.891 5.891 0 0 0-1.832 3.99c-.409 4.228-1.753 20.545-2.622 31.182a51.819 51.819 0 0 0-.499-1.822c-2.811-9.428-8.228-17.577-17.346-23.268-9.114-5.696-21.828-8.946-39.248-8.946-11.616 0-21.131 1.445-28.892 4.095-11.64 3.965-19.322 10.708-23.981 19.161a46.838 46.838 0 0 0-4.373 11.369c-.867-10.612-2.254-27.464-2.67-31.772a5.892 5.892 0 0 0-1.833-3.99 5.103 5.103 0 0 0-3.413-1.227 6.16 6.16 0 0 0-.68.037 5.009 5.009 0 0 0-3.167 1.488 4.8 4.8 0 0 0-1.033 1.747 7.134 7.134 0 0 0-.351 2.318c0 .22.008.446.023.678.332 5.057 1.858 22.907 2.793 32.803.132 2.458.708 4.871 1.699 7.124a7.11 7.11 0 0 0 1.38 1.952 6.437 6.437 0 0 0-1.5 1.64 8.818 8.818 0 0 0-1.012 3.042 24.756 24.756 0 0 0-.324 4.205 37.14 37.14 0 0 0 .256 4.276c.264 2.4.803 4.76 1.606 7.038.309.867.69 1.707 1.137 2.512.348.65.804 1.236 1.349 1.734a9.872 9.872 0 0 0 4.134 1.836c.744.169 1.498.287 2.258.355.012.039.021.08.033.118a37.707 37.707 0 0 0 17.436 22.212c7.601 4.442 17.683 7.229 30.86 8.038v2.572c-2.982.187-5.762.436-8.076.75a43.017 43.017 0 0 0-3.48.597c-.846.167-1.672.425-2.462.77a3.995 3.995 0 0 0-1.485 1.344 9.65 9.65 0 0 0-.728 1.246 1.251 1.251 0 0 0-.185-.193 9.375 9.375 0 0 0-5.455-1.727 13.185 13.185 0 0 0-5.542 1.359 29.8 29.8 0 0 0-7.422 5.263 56.904 56.904 0 0 0-5.663 6.184 13.815 13.815 0 0 0-3.106 8.556c.003.437.03.873.08 1.308a16.849 16.849 0 0 0-2.88 4.328 18.82 18.82 0 0 0-1.98 8.245c-.001.548.026 1.095.081 1.64a13.053 13.053 0 0 0 2.79 7.153 9.57 9.57 0 0 0 3.417 2.578 11.934 11.934 0 0 0 4.93.976c.241 0 .486-.006.735-.017 2.228.003 4.41-.638 6.282-1.846v.001l.05-.031.012-.011.03-.019-.004-.004a1.298 1.298 0 0 0 .39-1.775 1.294 1.294 0 0 0-1.768-.418l-.05.03-.092.06c-.308.22-.636.41-.98.568a1.284 1.284 0 0 0-1.258-1.094h-.02a1.214 1.214 0 0 0-.275.029c-.763.167-1.54.257-2.32.267a5.08 5.08 0 0 1-1.318-.149l-.005-.001a3.498 3.498 0 0 1-2.128-1.568 5.324 5.324 0 0 1-.723-2.808 7.356 7.356 0 0 1 .882-3.468 5.155 5.155 0 0 1 2.34-2.287c.686-.306 2.088-.857 3.012-1.212a1.297 1.297 0 0 0 .739-1.675 1.3 1.3 0 0 0-1.67-.752c-.953.366-2.348.912-3.144 1.267l-.004.002a7.738 7.738 0 0 0-3.554 3.409 9.939 9.939 0 0 0-1.2 4.716 7.907 7.907 0 0 0 1.116 4.184c.298.466.658.889 1.07 1.258l-.01-.004a7.183 7.183 0 0 1-3.363-3.143 11.524 11.524 0 0 1-1.321-4.471v-.005c-.047-.459-.07-.919-.07-1.38.025-2.464.61-4.889 1.711-7.093a13.079 13.079 0 0 1 2.779-4.055l.002-.001a5.725 5.725 0 0 1 1.803-1.107 6.801 6.801 0 0 1 2.43-.406c.152 0 .308.003.468.011h.002c1.36.019 2.69.412 3.841 1.137a6.815 6.815 0 0 1 2.34 2.801 1.3 1.3 0 0 0 2.34-1.132 9.41 9.41 0 0 0-3.24-3.834 9.993 9.993 0 0 0-5.158-1.569c-.2-.01-.398-.015-.593-.015a9.402 9.402 0 0 0-3.35.575 7.71 7.71 0 0 0-.57.248 11.312 11.312 0 0 1 2.52-6.381 49.883 49.883 0 0 1 7.571-7.78 23.275 23.275 0 0 1 4.575-2.926 10.612 10.612 0 0 1 4.443-1.116 6.737 6.737 0 0 1 3.703 1.103 5.322 5.322 0 0 0-.66.31 6.125 6.125 0 0 0-2.394 2.573 7.603 7.603 0 0 0-.816 3.44 7.167 7.167 0 0 0 .712 3.153c.383.782.919 1.48 1.577 2.052l-.313 1.882-.017.211v.01a1.301 1.301 0 0 0 1.3 1.3 1.283 1.283 0 0 0 1.26-1.103l.023.004c.143-.869.276-1.701.416-2.508.02-.076.034-.153.04-.231.35-1.999.72-3.833 1.106-5.475l.01-.041.014-.07a35.204 35.204 0 0 1 1.706-5.495 8.58 8.58 0 0 1 .819-1.532 1.63 1.63 0 0 1 .482-.504l.007-.003a9.605 9.605 0 0 1 1.904-.578 65.494 65.494 0 0 1 8.002-1.062 18.06 18.06 0 0 0 11.831 4.328 20.805 20.805 0 0 0 7.171-1.3 15.773 15.773 0 0 0 4.969-2.834c.066-.07.124-.148.172-.232 1.846.146 3.563.319 5.065.517 1.323.174 2.484.367 3.415.569.682.129 1.349.328 1.989.593.203.139.372.321.496.533a13.706 13.706 0 0 1 1.477 3.436 73.441 73.441 0 0 1 2.095 9.488c.582 3.517 1.097 7.513 1.54 11.73a40.872 40.872 0 0 0-10.43 5.081 21.269 21.269 0 0 0-3.493 2.772 13.01 13.01 0 0 0-1.022 1.178 1.22 1.22 0 0 0-.96 1.437 9.36 9.36 0 0 0-.47.998c-.268.666.297 1.179.964 1.446.63.253 1.087.209 1.388-.386.524.452 1.078.867 1.658 1.244.348.212.666.472.942.772l.001.002.002.002a6.111 6.111 0 0 1 1.403 2.742c.082.337.14.678.173 1.023.023.235.037.47.036.705a6.095 6.095 0 0 1-.729 2.998l-.002.002a3.794 3.794 0 0 1-1.083 1.23c-.017.011-.036.017-.053.029a3.599 3.599 0 0 1-1.536.599c-.195.027-.391.04-.588.039a9.04 9.04 0 0 1-2.275-.355 12.08 12.08 0 0 1-.806-.251c-.097-.033-.172-.061-.221-.079l-.053-.021-.01-.004a1.327 1.327 0 0 0-.498-.094 1.31 1.31 0 0 0-1.193.815 1.294 1.294 0 0 0 .01.995 1.307 1.307 0 0 0 .711.696c.448.174.906.324 1.371.45.964.278 1.961.428 2.964.448.325.001.649-.021.971-.068h.001a6.31 6.31 0 0 0 1.931-.617c1.3.641 2.733.968 4.183.954a15.211 15.211 0 0 0 5.711-1.271 20.867 20.867 0 0 0 2.596-1.338c.076 2.671.117 5.273.117 7.746 0 2.717-.048 5.28-.149 7.615a1.296 1.296 0 0 0 .341.935 1.299 1.299 0 0 0 2.257-.824c.102-2.38.151-4.979.151-7.726 0-2.986-.06-6.151-.168-9.397a51.743 51.743 0 0 0 4.353-3.385 22.477 22.477 0 0 0 4.392-4.812l.001-.002c.526-.864.969-1.777 1.321-2.726 3.341-2.041 5.615-6.298 5.614-11.766a21.712 21.712 0 0 0-.322-3.671 41.737 41.737 0 0 0-5.687-14.115 24.65 24.65 0 0 0-5.275-6.074 11.122 11.122 0 0 0-6.869-2.645c-.417 0-.833.029-1.245.086a4.272 4.272 0 0 0-1.555.506c-.474.271-.88.645-1.191 1.093a9.425 9.425 0 0 0-.65-1.139 4.004 4.004 0 0 0-1.52-1.406 12.272 12.272 0 0 0-2.554-.786 86.947 86.947 0 0 0-12.095-1.359v-2.658a83.497 83.497 0 0 0 18.954-3.406c11.613-3.671 19.329-9.974 24.027-18.084a42.222 42.222 0 0 0 3.822-8.893c.194.097.41.144.627.134a16.69 16.69 0 0 0 2.331-.36 9.884 9.884 0 0 0 4.135-1.837c.544-.497 1-1.083 1.348-1.733a19.282 19.282 0 0 0 1.64-4.043 33.312 33.312 0 0 0 1.103-5.507c.168-1.419.253-2.846.257-4.274a24.791 24.791 0 0 0-.325-4.206 8.837 8.837 0 0 0-1.012-3.043 6.954 6.954 0 0 0-2.113-2.085c-.013-.009-.027-.015-.041-.024a8.333 8.333 0 0 0 1.652-2.861c.62-1.86 1.004-3.79 1.145-5.746Zm-94.164 78.595c.18-.234.389-.443.623-.622a58.455 58.455 0 0 0-.543 2.089l-.01.047-.018.088c-.218.929-.43 1.914-.635 2.946a4.626 4.626 0 0 1-.332-1.676 4.847 4.847 0 0 1 .915-2.872Zm56.47 4.784c-.263-1.007-.585-2.157-.844-3.314a21.37 21.37 0 0 1-.382-2.175c.469.345.848.798 1.107 1.319.351.701.534 1.475.532 2.259a4.599 4.599 0 0 1-.413 1.911Zm7.712 30.583a44.829 44.829 0 0 1-5.391 4.467 28.768 28.768 0 0 1-5.033 2.984l-.002.001a12.687 12.687 0 0 1-4.717 1.073 7.148 7.148 0 0 1-1.956-.271c.061-.086.114-.176.171-.263a5.974 5.974 0 0 0 2.826-2.906l.002-.006a5.993 5.993 0 0 0 .113-4.589 5.992 5.992 0 0 0-3.165-3.325l-.017-.008a6.406 6.406 0 0 0-1.1-.344 6.91 6.91 0 0 0-1.173-.921 13.78 13.78 0 0 1-1.421-1.081c-.069-.057-.135-.114-.203-.172.176-.207.362-.412.562-.614a18.644 18.644 0 0 1 3.068-2.424c3.69-2.418 7.872-4.513 11.484-5.202l.003-.001h.003a12.58 12.58 0 0 1 2.274-.255l.02-.001h.03l.25-.003a7.674 7.674 0 0 1 2.991.547 6.037 6.037 0 0 1 2.344 1.749l.016.019c.088.101.175.218.284.367l.017.022a5.855 5.855 0 0 1 1.193 5.826l-.002.011-.004.007a12.3 12.3 0 0 1-1.242 2.651 14.805 14.805 0 0 1-2.225 2.662Zm-8.274-39.478a1.69 1.69 0 0 1 .62-.191l.002-.001c.297-.04.595-.061.894-.061a8.551 8.551 0 0 1 5.26 2.086 26.56 26.56 0 0 1 6.619 8.836 37.772 37.772 0 0 1 3.39 9.753c.186 1.066.281 2.147.284 3.23a12.295 12.295 0 0 1-2.444 7.813 9.093 9.093 0 0 0-1.804-4.443 5.575 5.575 0 0 0-8.662-3.975c-.36.016-.721.038-1.084.082-.78-3.546-1.504-7.924-1.903-10.854a6.53 6.53 0 0 0 1.691-2.139 7.167 7.167 0 0 0 .712-3.152 7.424 7.424 0 0 0-1.44-4.44 5.85 5.85 0 0 0-1.771-1.573 5.291 5.291 0 0 0-.86-.383c.042-.101.095-.197.158-.286.089-.124.205-.227.338-.302ZM35.145 49.414c-.931-9.863-2.46-27.747-2.787-32.73a7.484 7.484 0 0 1-.017-.507c-.011-.5.06-.998.21-1.475.13-.432.401-.808.77-1.068.377-.244.81-.39 1.257-.425.131-.015.262-.022.394-.022a2.506 2.506 0 0 1 1.694.578c.606.609.952 1.43.964 2.289.306 3.169 1.155 13.34 1.926 22.699a14957.744 14957.744 0 0 1 1.437 17.594 18.11 18.11 0 0 0-2.315.716c-.197.076-.406.178-.61.267a3.543 3.543 0 0 1-1.487-1.711 18.02 18.02 0 0 1-1.436-6.205Zm6.504 33.019a7.196 7.196 0 0 1-2.82-1.235 4.117 4.117 0 0 1-.773-1.042 16.827 16.827 0 0 1-1.403-3.487c-.48-1.66-.82-3.357-1.015-5.074a34.546 34.546 0 0 1-.238-3.974 22.214 22.214 0 0 1 .285-3.755c.097-.741.321-1.46.662-2.124a4.4 4.4 0 0 1 1.337-1.285c.894-.56 1.86-.996 2.87-1.296.21-.065.405-.12.582-.168a91.12 91.12 0 0 0-.227 6.485 71.434 71.434 0 0 0 1.884 17.182 14.353 14.353 0 0 1-1.144-.227Zm66.726 38.702c-.438.208-.903.408-1.398.59a18.198 18.198 0 0 1-6.267 1.138 15.447 15.447 0 0 1-7.729-2.016l.083-.005c.037.003.068.021.106.021a1.285 1.285 0 0 0 1.214-.875c.011-.043.02-.086.026-.129a1.25 1.25 0 0 0 .06-.296V115.874c1.833.074 3.715.117 5.664.117 2.512 0 4.907-.074 7.226-.196v4.098a1.287 1.287 0 0 0 1.015 1.242Zm29.573-15.677c-8.559 5.009-20.769 7.935-37.814 7.933-11.36.001-20.58-1.298-27.993-3.65-11.125-3.539-18.178-9.377-22.565-16.91-4.381-7.538-6.069-16.876-6.067-27.353a68.504 68.504 0 0 1 2.523-19.568c2.69-8.958 7.684-16.453 16.233-21.809 8.553-5.35 20.762-8.551 37.869-8.55 11.402-.001 20.636 1.421 28.052 3.955 11.125 3.812 18.17 10.06 22.546 17.959 4.37 7.9 6.03 17.535 6.028 28.013a64.887 64.887 0 0 1-2.547 19.24 35.074 35.074 0 0 1-16.265 20.74Zm27.37-41.591c.202 1.241.297 2.498.286 3.756a34.478 34.478 0 0 1-.239 3.973 28.967 28.967 0 0 1-1.466 6.446c-.258.73-.577 1.437-.952 2.114a4.14 4.14 0 0 1-.772 1.041 7.514 7.514 0 0 1-3.027 1.284 15.082 15.082 0 0 1-1.69.28 71.353 71.353 0 0 0 1.902-17.283c0-2.257-.082-4.48-.246-6.668.818.176 1.619.42 2.397.726a9.943 9.943 0 0 1 1.863.958c.509.322.946.747 1.282 1.248.341.665.565 1.384.662 2.125Zm-1.824-8.364c-.214.436-.5.834-.846 1.175-.137.13-.287.244-.449.341a18.492 18.492 0 0 0-.977-.34 16.337 16.337 0 0 0-1.799-.459 1.254 1.254 0 0 0-.339.008c.064-.789.208-2.574.406-5 .809-9.93 2.487-30.414 2.947-35.174.012-.86.358-1.68.964-2.289a2.503 2.503 0 0 1 1.694-.578c.131 0 .262.007.393.022a2.423 2.423 0 0 1 1.558.682c.213.233.373.51.469.81.151.478.222.976.211 1.477 0 .16-.006.328-.017.507-.327 4.982-1.856 22.866-2.787 32.729a17.069 17.069 0 0 1-1.428 6.089Z"/><path fill="#FFE632" d="M63.489 148.582a1.297 1.297 0 0 0 1.78-.458 24.614 24.614 0 0 1 20.216-12.097l.412 3.048a1.3 1.3 0 0 0 .953 1.082l.233.063c.53.145 1.898.526 3.348.986.724.23 1.47.479 2.134.725.556.198 1.1.428 1.628.689a1.298 1.298 0 0 0 1.267-.036l4.425-2.637a24.677 24.677 0 0 1 10.049 13.01 1.29 1.29 0 0 0 .648.755 1.3 1.3 0 0 0 1.823-1.563 27.253 27.253 0 0 0-22.963-18.598 27.26 27.26 0 0 0-26.412 13.251 1.3 1.3 0 0 0 .459 1.78Zm31.224-8.58a24.18 24.18 0 0 0-1.557-.623c-1.715-.616-3.7-1.195-4.797-1.503l-.246-1.818a24.456 24.456 0 0 1 9.16 2.42l-2.56 1.524Z"/><path fill="#BEBEC9" d="M116.828 160.899a4.541 4.541 0 0 0-.444-1.003 2.272 2.272 0 0 0-.912-.867c.068-.082.125-.173.17-.271.01-.025.197-.486.389-1.127a8.437 8.437 0 0 0 .403-2.303 3.495 3.495 0 0 0-.097-.853 2.309 2.309 0 0 0-.458-.926 3.346 3.346 0 0 0-.699-.607 10.348 10.348 0 0 0-1.485-.798 26.816 26.816 0 0 0-2.652-1.015 16.458 16.458 0 0 0-2.301-.602 2.106 2.106 0 0 0-1.603.41c-.44.354-.768.829-.942 1.366a4.721 4.721 0 0 0-.255 1.558 4.762 4.762 0 0 0 .435 2.024 3.406 3.406 0 0 0 1.621 1.662c.253.118.603.257 1.069.432.159.06.331.123.51.187h-.001c-.314 0-.64.006-.977.019-.434.017-.85.177-1.184.455a2.678 2.678 0 0 0-.815 1.276 4.568 4.568 0 0 0-.202 1.383 4.964 4.964 0 0 0 .538 2.29c.202.39.477.739.81 1.026.373.319.819.539 1.298.641.469.1 1.275.299 2.155.497a44.58 44.58 0 0 0-1.032-.012c-.84-.01-1.68.022-2.516.098-.251.031-.492.12-.703.26-.275.186-.496.44-.642.738a3.4 3.4 0 0 0-.306 1.011 6.334 6.334 0 0 0-.07.973c-.002.38.029.761.092 1.136.031.182.076.361.135.536.082.255.22.488.404.682.259.254.558.464.885.621a9.26 9.26 0 0 0 3.028.841h.001c.463.044 1 .065 1.541.065.49 0 .976-.017 1.41-.058.218-.021.421-.047.622-.086.237-.041.466-.117.68-.226l.001-.001c.212-.115.393-.278.531-.476.137-.198.246-.415.324-.643a6.769 6.769 0 0 0 .354-2.177 4.532 4.532 0 0 0-.235-1.523 2.647 2.647 0 0 0-.441-.788 2.135 2.135 0 0 0-.487-.422l.042.002.189-.003.001-.001a1.973 1.973 0 0 0 1.212-.473 2.61 2.61 0 0 0 .786-1.333c.113-.443.167-.899.161-1.355a7.664 7.664 0 0 0-.338-2.24Zm-8.101-6.127a2.194 2.194 0 0 1-.185-.911 2.11 2.11 0 0 1 .112-.704c.276.061.635.153 1.03.272.929.278 1.84.609 2.731.991.367.157.725.334 1.073.53.11.062.217.131.319.205l.019.016c.006.052.009.104.008.157a5.772 5.772 0 0 1-.249 1.397 39.596 39.596 0 0 1-2.078-.639c-.564-.19-1.098-.38-1.528-.541a14.719 14.719 0 0 1-.875-.351.81.81 0 0 1-.377-.422Zm.703 7.863a1.143 1.143 0 0 1-.292-.484 2.598 2.598 0 0 1-.14-.852 2.05 2.05 0 0 1 .062-.523c.173-.004.351-.01.516-.01a18.95 18.95 0 0 1 3.682.334c.412.082.718.162.914.22l.036.011c.09.186.16.382.207.585.098.4.149.81.151 1.223.003.184-.012.367-.045.548a17.525 17.525 0 0 1-2.288-.368c-1.013-.217-2-.467-2.647-.606l-.156-.078Zm2.586 7.467c-.469 0-.946-.02-1.293-.053a7.308 7.308 0 0 1-1.491-.325 4.727 4.727 0 0 1-.609-.246l-.047-.027c-.005-.031-.011-.054-.014-.088a4.273 4.273 0 0 1-.009-.985 37.957 37.957 0 0 1 3.825.023c.324.02.609.045.817.072l.089.014c.039.18.057.364.054.548a4.637 4.637 0 0 1-.122 1.017l-.158.014c-.3.024-.67.036-1.042.036ZM63.076 152.74a8.33 8.33 0 0 0 .544-.16c.188-.059.37-.139.54-.238a3.39 3.39 0 0 0 1.315-1.604 4.938 4.938 0 0 0 .387-1.911 3.647 3.647 0 0 0-.475-1.883 2.509 2.509 0 0 0-.776-.815 2.428 2.428 0 0 0-1.159-.383c-.099-.007-.195-.01-.288-.01-.552.012-1.1.076-1.64.192-.884.181-1.754.422-2.605.721-.411.145-.795.296-1.139.451a5.498 5.498 0 0 0-.93.514c-.308.23-.552.535-.709.886-.182.415-.3.856-.348 1.307-.05.415-.074.833-.072 1.251.001.594.036 1.187.102 1.777a1.28 1.28 0 0 0 1.229 1.132 7.032 7.032 0 0 0-.685.279l.002.004a2.335 2.335 0 0 0-.84.657 4.02 4.02 0 0 0-.696 1.366c-.15.49-.228.999-.23 1.512a3.384 3.384 0 0 0 .355 1.592c.155.296.374.554.642.756.245.175.526.296.822.354-.099.083-.19.175-.273.273a3.338 3.338 0 0 0-.645 1.408 6.317 6.317 0 0 0-.142 1.372c-.002.438.039.876.123 1.306.04.202.098.401.174.593.047.117.106.231.175.338.11.171.253.319.421.435.161.107.336.192.52.253.27.091.547.161.828.212.94.172 1.893.268 2.848.287.435.004.98.042 1.542.043.364.005.728-.022 1.087-.082a2.598 2.598 0 0 0 1.215-.527c.166-.14.304-.311.406-.503.115-.218.208-.447.277-.683a8.885 8.885 0 0 0 .37-2.409 3.649 3.649 0 0 0-.143-1.088 1.963 1.963 0 0 0-.341-.652 1.616 1.616 0 0 0-.887-.56c-.113-.026-.246-.05-.378-.074a2.195 2.195 0 0 0 1.039-.743c.324-.436.554-.936.675-1.466a6.521 6.521 0 0 0 .191-1.575 4.857 4.857 0 0 0-.313-1.813 2.584 2.584 0 0 0-.57-.876 1.995 1.995 0 0 0-1.155-.562 16.713 16.713 0 0 0-2.012-.123c-.345 0-.668.014-.981.034.422-.083.846-.168 1.247-.252.5-.106.964-.21 1.356-.313Zm-3.949-3.39a16.899 16.899 0 0 1 2.161-.703 8.759 8.759 0 0 1 1.876-.311l.02.001a.561.561 0 0 1 .03.088c.034.131.05.267.048.402a2.37 2.37 0 0 1-.178.892.935.935 0 0 1-.254.382c-.05.019-.156.055-.308.095-.657.182-1.886.43-3.026.652l-1.175.231v-.021a6.264 6.264 0 0 1 .09-1.166c.015-.08.037-.158.064-.234.211-.116.429-.219.652-.308Zm1.352 15.014h-.001a15.442 15.442 0 0 1-1.848-.152 9.568 9.568 0 0 1-.633-.11 4.506 4.506 0 0 1-.035-.562 3.255 3.255 0 0 1 .13-.988l.005-.011c.076-.004.163-.007.265-.006.655-.001 1.728.074 2.721.177a38.997 38.997 0 0 1 1.66.208 6.586 6.586 0 0 1-.231 1.461c-.172.021-.346.03-.52.026-.433.001-.97-.036-1.513-.043Zm2.344-8.419c.059.229.086.464.081.7a3.65 3.65 0 0 1-.187 1.183c-.02.056-.044.111-.071.164-.242.041-.487.07-.732.085-.44.032-.974.047-1.527.047a36.51 36.51 0 0 1-3.172-.138 1.507 1.507 0 0 1-.013-.201 2.68 2.68 0 0 1 .198-.975c.033-.085.077-.165.13-.239l.004-.002.01-.005a9.789 9.789 0 0 1 3.91-.694c.423.001.885.028 1.37.075ZM77.847 120.431l.004-.002.002-.001-.006.003ZM133.313 88.552c-.227.21-.458.418-.692.618l-.002.002a25.423 25.423 0 0 1-3.545 2.535c-.275.164-.555.325-.841.483a1.311 1.311 0 0 0-.619.779 1.307 1.307 0 0 0 .112.988 1.298 1.298 0 0 0 1.284.662c.17-.02.334-.072.484-.155.309-.171.613-.346.911-.524h.002a28.006 28.006 0 0 0 3.905-2.795c.265-.227.521-.456.768-.685a1.3 1.3 0 0 0-1.767-1.908Z"/><path fill="#BEBEC9" d="m134.313 91.144-.001.001-.001.001.002-.002ZM71.65 48.235a44.053 44.053 0 0 1 12.561-3.98 1.3 1.3 0 0 0-.452-2.56 46.621 46.621 0 0 0-13.3 4.229 1.303 1.303 0 0 0-.56 1.751 1.3 1.3 0 0 0 1.751.56ZM63.66 54.606a21.79 21.79 0 0 1 2.387-2.54 1.299 1.299 0 1 0-1.747-1.925 24.415 24.415 0 0 0-2.672 2.841 1.302 1.302 0 0 0 1.16 2.104 1.3 1.3 0 0 0 .871-.48ZM129.523 121.375h.002v-.001l-.002.001ZM128.099 173.474h-.002l-.001.001.003-.001ZM139.77 56.992l-.005-.004.005.004Z"/></svg>