<svg width="200" height="200" viewBox="0 0 200 200" xmlns="http://www.w3.org/2000/svg"><g id="type=plane, mode=dark"><path id="Vector" d="M69.6729 19.0511L79.0587 24.9354C79.3508 25.1185 79.7037 25.1781 80.0398 25.1011C80.3758 25.024 80.6675 24.8166 80.8507 24.5245C81.0338 24.2324 81.0934 23.8795 81.0164 23.5434C80.9393 23.2073 80.7319 22.9157 80.4398 22.7325L71.054 16.8482C70.7619 16.6651 70.409 16.6055 70.0729 16.6825C69.7369 16.7596 69.4452 16.967 69.2621 17.2591C69.0789 17.5512 69.0193 17.9042 69.0964 18.2402C69.1734 18.5763 69.3808 18.868 69.6729 19.0511Z"/><path id="Vector_2" d="M157.455 84.0183L176.785 94.8884C176.934 94.9726 177.098 95.0265 177.268 95.0472C177.437 95.0679 177.61 95.0549 177.774 95.009C177.939 94.9631 178.093 94.8851 178.227 94.7796C178.362 94.674 178.474 94.543 178.558 94.394C178.642 94.245 178.696 94.0809 178.716 93.9111C178.736 93.7414 178.723 93.5693 178.676 93.4047C178.63 93.2401 178.552 93.0863 178.446 92.952C178.34 92.8177 178.209 92.7057 178.06 92.6222L158.73 81.7521C158.429 81.584 158.074 81.542 157.743 81.6353C157.411 81.7285 157.131 81.9494 156.962 82.2495C156.793 82.5495 156.75 82.9043 156.843 83.2359C156.935 83.5675 157.155 83.8489 157.455 84.0183V84.0183Z"/><path id="Vector_3" d="M194.863 102.081L186.707 97.492C186.558 97.4072 186.394 97.3526 186.224 97.3315C186.054 97.3103 185.882 97.323 185.717 97.3687C185.552 97.4144 185.397 97.4924 185.262 97.598C185.127 97.7036 185.015 97.8348 184.931 97.9841C184.847 98.1334 184.793 98.2978 184.773 98.4679C184.753 98.638 184.766 98.8104 184.813 98.9752C184.859 99.1401 184.938 99.2941 185.044 99.4284C185.151 99.5627 185.283 99.6747 185.432 99.7579L193.588 104.347C193.737 104.432 193.901 104.486 194.071 104.507C194.241 104.528 194.413 104.516 194.579 104.47C194.744 104.424 194.898 104.346 195.033 104.241C195.168 104.135 195.28 104.004 195.364 103.855C195.448 103.705 195.502 103.541 195.522 103.371C195.543 103.201 195.529 103.028 195.482 102.863C195.436 102.699 195.357 102.545 195.251 102.41C195.144 102.276 195.013 102.164 194.863 102.081Z"/><path id="Vector_4" d="M16.4599 104.137C16.4934 103.97 16.4935 103.797 16.4604 103.63C16.4272 103.462 16.3614 103.303 16.2667 103.161C16.172 103.019 16.0502 102.897 15.9084 102.802C15.7665 102.707 15.6073 102.641 15.4399 102.608L2.80321 100.082C2.46531 100.015 2.1146 100.084 1.8281 100.276C1.5416 100.467 1.34275 100.764 1.27522 101.102C1.2077 101.44 1.27702 101.791 1.46796 102.077C1.6589 102.364 1.95584 102.563 2.29357 102.631L14.9303 105.157C15.2684 105.225 15.6195 105.155 15.9063 104.964C16.1932 104.773 16.3923 104.475 16.4599 104.137Z"/><path id="Vector_5" d="M21.2174 138.315L47.3019 140.509C47.6455 140.538 47.9865 140.429 48.2498 140.207C48.5132 139.984 48.6774 139.666 48.7063 139.323C48.7352 138.979 48.6264 138.638 48.4039 138.375C48.1814 138.111 47.8634 137.947 47.5198 137.918L21.4353 135.725C21.0918 135.696 20.7508 135.804 20.4874 136.027C20.224 136.249 20.0598 136.567 20.0309 136.911C20.002 137.255 20.1108 137.596 20.3333 137.859C20.5558 138.122 20.8739 138.287 21.2174 138.315Z"/><path id="Vector_6" d="M54.6394 138.537C54.4694 138.521 54.298 138.539 54.1349 138.589C53.9718 138.64 53.8203 138.722 53.689 138.831C53.5577 138.94 53.4491 139.074 53.3696 139.225C53.29 139.376 53.241 139.541 53.2252 139.711C53.2095 139.881 53.2275 140.053 53.278 140.216C53.3285 140.379 53.4107 140.53 53.5198 140.662C53.6289 140.793 53.7628 140.902 53.9138 140.981C54.0649 141.061 54.2301 141.11 54.4001 141.126L67.2312 142.312C67.5745 142.343 67.9163 142.237 68.1815 142.017C68.4467 141.797 68.6136 141.48 68.6453 141.137C68.677 140.793 68.5711 140.451 68.3507 140.186C68.1304 139.921 67.8137 139.754 67.4704 139.723L54.6394 138.537Z"/><path id="Vector_7" d="M169.569 162.888C169.578 163.232 169.724 163.559 169.974 163.796C170.225 164.033 170.559 164.161 170.903 164.152L180.527 163.892C180.872 163.882 181.199 163.737 181.436 163.486C181.673 163.236 181.801 162.902 181.792 162.557C181.783 162.212 181.637 161.886 181.386 161.648C181.136 161.411 180.802 161.283 180.457 161.293L170.833 161.553C170.663 161.558 170.494 161.596 170.339 161.665C170.183 161.735 170.042 161.835 169.925 161.958C169.807 162.082 169.715 162.228 169.654 162.388C169.593 162.547 169.564 162.717 169.569 162.888Z"/><path id="Vector_8" d="M162.918 163.067C162.909 162.723 162.763 162.396 162.513 162.159C162.263 161.922 161.928 161.794 161.584 161.803L136.197 162.489C136.026 162.494 135.858 162.532 135.702 162.601C135.546 162.671 135.405 162.77 135.288 162.894C135.171 163.018 135.079 163.164 135.018 163.324C134.957 163.483 134.928 163.653 134.932 163.824C134.937 163.994 134.975 164.162 135.044 164.318C135.114 164.474 135.214 164.615 135.338 164.732C135.461 164.85 135.607 164.941 135.767 165.003C135.926 165.064 136.096 165.093 136.267 165.088L161.654 164.402C161.825 164.397 161.993 164.359 162.149 164.29C162.304 164.22 162.445 164.121 162.563 163.997C162.68 163.873 162.772 163.727 162.833 163.567C162.894 163.408 162.923 163.238 162.918 163.067Z"/><path id="Vector_9" d="M94.3098 164.656L62.926 165.503C62.5814 165.512 62.2545 165.658 62.0174 165.909C61.7803 166.159 61.6523 166.493 61.6616 166.838C61.6709 167.182 61.8168 167.509 62.067 167.746C62.3173 167.984 62.6516 168.112 62.9962 168.102L94.38 167.255C94.7247 167.245 95.0515 167.099 95.2886 166.849C95.5258 166.599 95.6538 166.265 95.6445 165.92C95.6352 165.575 95.4893 165.248 95.239 165.011C94.9887 164.774 94.6545 164.646 94.3098 164.656Z"/><path id="Vector_10" d="M54.7577 167.024C54.7531 166.854 54.7149 166.686 54.6453 166.53C54.5758 166.374 54.4762 166.233 54.3522 166.116C54.2283 165.998 54.0825 165.907 53.923 165.845C53.7636 165.784 53.5937 165.755 53.423 165.76L17.2902 166.737C16.9456 166.746 16.6187 166.892 16.3816 167.143C16.1445 167.393 16.0165 167.727 16.0259 168.072C16.0352 168.416 16.181 168.743 16.4313 168.98C16.6816 169.217 17.0159 169.345 17.3606 169.336L53.4934 168.359C53.838 168.35 54.1648 168.204 54.4019 167.954C54.6391 167.703 54.767 167.369 54.7577 167.024Z"/><path id="Vector_11" d="M77.3808 174.028L44.9189 176.044C44.5751 176.066 44.254 176.223 44.0262 176.482C43.7983 176.74 43.6823 177.078 43.7037 177.422C43.725 177.766 43.882 178.087 44.14 178.316C44.3981 178.544 44.7362 178.66 45.08 178.639L77.5419 176.623C77.7125 176.613 77.8793 176.569 78.0329 176.494C78.1865 176.419 78.3238 176.315 78.437 176.187C78.5501 176.059 78.637 175.91 78.6925 175.748C78.7481 175.586 78.7712 175.415 78.7606 175.245C78.75 175.074 78.7059 174.908 78.6308 174.754C78.5557 174.601 78.4511 174.464 78.3229 174.35C78.1948 174.237 78.0456 174.151 77.884 174.096C77.7223 174.04 77.5513 174.017 77.3808 174.028L77.3808 174.028Z"/><path id="Vector_12" d="M193.561 166.244L141.799 168.593C141.454 168.609 141.13 168.76 140.898 169.015C140.665 169.27 140.543 169.606 140.559 169.951C140.575 170.295 140.726 170.619 140.981 170.852C141.236 171.084 141.572 171.206 141.917 171.19L193.679 168.841C194.024 168.825 194.348 168.674 194.58 168.419C194.813 168.164 194.935 167.828 194.919 167.483C194.903 167.139 194.752 166.815 194.497 166.582C194.242 166.35 193.906 166.228 193.561 166.244H193.561Z"/><path id="Vector_13" d="M35.711 84.7474C35.9991 85.2896 36.4072 85.7589 36.9042 86.1195C37.3892 86.4603 37.9673 86.6437 38.56 86.6446C39.0342 86.6397 39.5017 86.5332 39.9313 86.3324C40.6618 85.9753 41.3082 85.4669 41.8274 84.8411C42.7036 83.7974 43.3902 82.6084 43.8562 81.3279C44.3859 79.9494 44.6657 78.4876 44.6827 77.011C44.7213 75.4553 44.289 73.9242 43.4423 72.6184C43.1242 72.1322 42.7085 71.7175 42.2216 71.4005C41.7488 71.1001 41.2007 70.9395 40.6406 70.9374C40.1595 70.9417 39.6854 71.0532 39.2527 71.2636C38.5266 71.6348 37.8924 72.1634 37.3965 72.8109C36.5659 73.8847 35.9266 75.0937 35.5068 76.3848C35.0278 77.772 34.7763 79.2276 34.7621 80.6951C34.7284 82.1045 35.0549 83.4992 35.711 84.7471L35.711 84.7474ZM38.6679 75.597C38.9749 74.9908 39.3798 74.4394 39.8662 73.9651C40.0147 73.8244 40.1828 73.706 40.3652 73.6135C40.4503 73.5682 40.5443 73.5422 40.6406 73.5374C40.7136 73.5388 40.7844 73.5624 40.8436 73.6053C41.0245 73.7327 41.1778 73.8953 41.2943 74.0835C41.8452 74.958 42.1199 75.9781 42.0827 77.011C42.0421 78.7675 41.5556 80.4848 40.669 82.0017C40.3327 82.6028 39.9013 83.1455 39.3916 83.6087C39.2306 83.7512 39.0508 83.871 38.8572 83.9646C38.7648 84.0117 38.6636 84.0389 38.56 84.0445C38.4967 84.0449 38.4351 84.0232 38.386 83.9831C38.2151 83.8464 38.0763 83.6736 37.9797 83.4772C37.5427 82.6167 37.3303 81.6597 37.3621 80.6952C37.3923 78.917 37.8396 77.1707 38.6679 75.597Z"/><path id="Vector_14" d="M57.5893 105.661L57.5896 105.661C57.9998 106.109 58.4915 106.476 59.0386 106.741C59.554 106.986 60.1173 107.113 60.6879 107.113C61.7372 107.082 62.7479 106.71 63.5666 106.053C64.851 105.016 65.8691 103.687 66.5361 102.177C67.2861 100.612 67.6905 98.9047 67.7218 97.1699C67.7309 96.3048 67.5928 95.4444 67.3137 94.6255C67.025 93.7864 66.5414 93.0276 65.9026 92.4117C65.1413 91.641 64.1085 91.1992 63.0254 91.1809C61.9716 91.2125 60.9576 91.591 60.1409 92.2578C58.8615 93.3089 57.8508 94.6496 57.1923 96.1689C56.452 97.7391 56.0527 99.4484 56.0209 101.184C56.0131 101.99 56.1317 102.791 56.3724 103.56C56.6179 104.341 57.0335 105.059 57.5893 105.661ZM60.2007 96.0626C60.6028 95.4 61.1164 94.8119 61.7188 94.3243C62.0839 94.0063 62.5425 93.8156 63.0254 93.781C63.2311 93.7893 63.433 93.839 63.6191 93.9271C63.8052 94.0151 63.9716 94.1398 64.1085 94.2935C64.4516 94.6272 64.71 95.0381 64.8622 95.4918C65.0427 96.0325 65.1304 96.5999 65.1218 97.1698C65.0642 98.9785 64.514 100.737 63.5305 102.256C63.1247 102.912 62.6085 103.494 62.0046 103.974C61.6347 104.29 61.1731 104.479 60.6878 104.513C60.5 104.513 60.3146 104.47 60.1457 104.388C59.8958 104.263 59.6721 104.091 59.4862 103.882C59.1918 103.56 58.973 103.176 58.8455 102.758C58.6892 102.248 58.6134 101.717 58.6208 101.184C58.6791 99.3662 59.2247 97.5973 60.2007 96.0626V96.0626Z"/><path id="Vector_15" d="M39.0328 100L39.0318 100C39.0709 99.4724 38.8993 98.9507 38.5544 98.5493C38.2095 98.1479 37.7196 97.8996 37.192 97.8587C36.6644 97.8179 36.1421 97.9879 35.7396 98.3315C35.3371 98.6751 35.0872 99.1642 35.0447 99.6917C35.0411 99.737 35.0273 99.9265 35.0273 100.225C35.0285 101.171 35.1543 102.113 35.4017 103.027C35.7646 104.439 36.5137 105.723 37.5649 106.734L37.5651 106.734C38.1495 107.28 38.8437 107.694 39.6013 107.95C40.2481 108.165 40.9258 108.273 41.6076 108.27C42.1427 108.269 42.676 108.209 43.1979 108.091C43.619 107.999 44.0301 107.866 44.4255 107.694C44.9105 107.479 45.2903 107.08 45.4813 106.585C45.6723 106.091 45.6589 105.54 45.4441 105.055C45.2292 104.57 44.8305 104.19 44.3357 103.999C43.8409 103.808 43.2904 103.822 42.8054 104.037C42.6494 104.102 42.4876 104.153 42.3223 104.188C42.0877 104.241 41.8481 104.269 41.6076 104.27C41.362 104.273 41.1175 104.236 40.8837 104.161C40.6631 104.087 40.4612 103.967 40.2919 103.808C39.7841 103.301 39.4265 102.663 39.2585 101.966C39.1067 101.398 39.029 100.813 39.0273 100.225L39.031 100.035L39.0328 100Z"/><path id="Vector_16" d="M32.7227 92.1825C33.5291 92.983 34.5252 93.5661 35.6179 93.8777H35.618C36.2301 94.0434 36.8612 94.1283 37.4954 94.1302C39.0831 94.065 40.6264 93.5874 41.9733 92.7443C42.5483 92.4291 43.0564 92.1421 43.4959 91.954C43.8417 91.7873 44.2178 91.6929 44.6013 91.6766C45.1117 91.6986 45.5987 91.8971 45.979 92.2382C46.7278 92.796 47.2889 93.5689 47.5872 94.4538C48.0117 96.0878 48.2214 97.7703 48.2109 99.4586C48.261 101.721 48.7606 103.951 49.6806 106.019C50.9721 108.45 52.9536 110.444 55.3757 111.751C57.5524 113.054 60.0028 113.83 62.5322 114.02C62.6564 114.025 62.7803 114.027 62.9037 114.027C64.7211 114.018 66.4992 113.498 68.0343 112.525C70.3524 110.993 72.1898 108.837 73.3343 106.305C74.591 103.677 75.2497 100.802 75.263 97.8885C75.3352 94.8175 74.422 91.804 72.6572 89.2897C68.253 83.6932 63.2776 78.5711 57.8115 74.0062C54.8969 71.4977 51.7692 69.2481 48.4639 67.2828C45.4103 65.5455 42.5353 64.3915 39.9059 64.3762C39.6491 64.3762 39.3948 64.3884 39.1431 64.4127C37.5312 64.6024 36.015 65.2779 34.796 66.3495C32.8225 68.1325 31.3212 70.3763 30.4261 72.8807C29.3797 75.5952 28.8377 78.4779 28.8268 81.387C28.783 83.9285 29.3019 86.4481 30.3462 88.7654C30.9247 90.0391 31.73 91.1969 32.7227 92.1825ZM33.8704 71.6305C34.5291 70.3865 35.4083 69.2726 36.4652 68.3429C37.2833 67.6078 38.3059 67.1395 39.3969 67.0003C39.559 66.9844 39.7286 66.9764 39.9059 66.9762C41.7243 66.961 44.3297 67.899 47.1716 69.5389C52.0009 72.4984 56.4875 75.9837 60.5493 79.9312C64.1789 83.2878 67.529 86.9345 70.5663 90.8351C71.9993 92.9026 72.7339 95.374 72.663 97.8885C72.6524 101.229 71.6499 104.491 69.7828 107.26C68.961 108.479 67.9003 109.518 66.6648 110.315C65.5414 111.033 64.2374 111.419 62.9038 111.427C62.8144 111.427 62.7244 111.426 62.6338 111.422C60.527 111.246 58.4889 110.588 56.6762 109.5C54.7095 108.451 53.0925 106.85 52.0242 104.893C50.8508 102.463 50.8553 99.9412 50.6957 97.3903C50.6513 96.0987 50.4302 94.8192 50.0387 93.5875C49.5706 92.2288 48.7079 91.0406 47.561 90.1748C46.7261 89.4863 45.6834 89.0994 44.6014 89.0767C43.8641 89.0915 43.1378 89.2581 42.4677 89.566C41.5268 89.976 40.7204 90.4993 39.9186 90.8844C39.1721 91.2852 38.3424 91.5063 37.4955 91.5302C37.0872 91.5284 36.681 91.473 36.2872 91.3653L36.2873 91.3654C35.6178 91.166 35.0095 90.8005 34.5192 90.3029C33.7554 89.5352 33.137 88.6356 32.6937 87.6475C31.8167 85.6791 31.3841 83.5416 31.4268 81.387C31.4321 77.984 32.2711 74.6342 33.8704 71.6305L33.8704 71.6305Z"/><path id="Vector_17" d="M66.0156 141.244V141.243H66.0146L66.0156 141.244Z"/><path id="Vector_18" d="M158.666 136.517L158.667 136.518L158.672 136.521L158.666 136.517Z"/><path id="Vector_19" d="M190.368 123.052C189.476 122.529 188.459 122.255 187.425 122.261C185.936 122.291 184.49 122.763 183.271 123.618C181.924 124.546 180.816 125.78 180.037 127.218C179.164 128.774 178.698 130.525 178.681 132.309C178.668 133.522 178.928 134.722 179.442 135.821C179.951 136.905 180.771 137.812 181.798 138.428C182.69 138.951 183.707 139.225 184.741 139.219C186.23 139.189 187.676 138.717 188.895 137.862C190.242 136.934 191.35 135.701 192.13 134.263L192.13 134.262C193.002 132.706 193.469 130.955 193.486 129.171C193.499 127.958 193.239 126.758 192.725 125.659C192.216 124.575 191.395 123.668 190.368 123.052ZM187.442 135.706C186.651 136.27 185.712 136.588 184.741 136.619C184.171 136.625 183.61 136.476 183.119 136.188C182.534 135.833 182.068 135.311 181.783 134.69C181.439 133.944 181.268 133.13 181.281 132.309C181.298 130.964 181.653 129.646 182.313 128.474C182.893 127.397 183.719 126.472 184.725 125.774C185.515 125.21 186.454 124.892 187.425 124.861C187.995 124.855 188.556 125.004 189.048 125.292C189.633 125.647 190.098 126.169 190.384 126.791C190.727 127.537 190.899 128.35 190.885 129.171C190.868 130.516 190.513 131.834 189.853 133.006C189.273 134.083 188.447 135.008 187.442 135.706Z"/><path id="Vector_20" d="M156.669 98.4506C156.136 98.2378 155.568 98.1291 154.994 98.1304C154.07 98.1447 153.165 98.39 152.36 98.8439C152.209 98.9252 152.076 99.0353 151.968 99.168C151.86 99.3006 151.78 99.4533 151.731 99.6172C151.682 99.7812 151.666 99.9531 151.684 100.123C151.702 100.293 151.753 100.458 151.835 100.608C151.916 100.759 152.027 100.891 152.16 100.999C152.293 101.106 152.446 101.187 152.61 101.235C152.774 101.283 152.946 101.299 153.116 101.281C153.286 101.262 153.451 101.211 153.601 101.129C154.025 100.882 154.504 100.745 154.994 100.73C155.236 100.729 155.476 100.774 155.701 100.864C156.238 101.103 156.666 101.533 156.903 102.071C157.266 102.855 157.444 103.713 157.423 104.576C157.413 105.662 157.209 106.736 156.822 107.75C156.372 109.004 155.633 110.135 154.664 111.05C154.031 111.694 153.186 112.087 152.285 112.156C152.043 112.158 151.802 112.112 151.577 112.023C151.118 111.824 150.739 111.478 150.499 111.039C150.152 110.42 149.945 109.733 149.89 109.025C149.875 108.854 149.825 108.688 149.745 108.536C149.665 108.385 149.555 108.25 149.423 108.141C149.291 108.032 149.138 107.95 148.974 107.9C148.81 107.851 148.637 107.834 148.466 107.851C148.296 107.868 148.13 107.919 147.979 108C147.828 108.081 147.695 108.192 147.587 108.325C147.478 108.458 147.398 108.612 147.349 108.776C147.301 108.941 147.285 109.113 147.303 109.284C147.395 110.372 147.724 111.428 148.268 112.375C148.8 113.301 149.624 114.026 150.61 114.436C151.143 114.649 151.711 114.758 152.285 114.756C153.83 114.692 155.297 114.06 156.405 112.981C157.684 111.788 158.661 110.308 159.256 108.663C159.753 107.357 160.013 105.973 160.023 104.576C160.045 103.307 159.772 102.049 159.226 100.903C158.704 99.7985 157.794 98.9254 156.669 98.4506Z"/><path id="Vector_21" d="M197.817 121.278H197.817C196.81 118.076 194.885 115.24 192.281 113.122C189.464 110.781 185.953 109.435 182.293 109.291L182.209 109.291L180.809 109.33L180.802 109.33C178.117 109.477 175.53 110.391 173.349 111.963C170.876 113.711 168.84 116.006 167.398 118.668L167.398 118.669C167.046 119.314 166.727 119.976 166.442 120.653C166.004 120.715 165.581 120.857 165.194 121.072C164.259 121.623 163.422 122.326 162.716 123.15C161.229 124.851 159.954 126.724 158.918 128.731C157.839 130.778 156.942 132.915 156.236 135.118C155.447 134.708 154.535 134.27 153.522 133.847C150.902 132.682 148.083 132.03 145.217 131.927C144.795 131.927 144.373 131.948 143.952 131.991C143.639 130.28 143.184 128.599 142.592 126.964C144.325 126.441 146.029 125.825 147.696 125.119C149.627 124.311 151.279 123.522 152.428 123.03L152.432 123.029C152.784 122.869 153.079 122.604 153.273 122.269C153.473 121.917 153.617 121.535 153.697 121.137C153.761 120.858 153.798 120.557 153.837 120.258C155.433 119.72 156.915 118.889 158.207 117.808C160.662 115.726 162.529 113.037 163.623 110.01C164.449 107.823 164.877 105.506 164.887 103.168C164.924 100.584 164.311 98.0325 163.104 95.747C163.074 95.6914 163.038 95.6394 163.007 95.5844C162.996 95.5091 162.978 95.4351 162.953 95.3632C161.407 92.1755 158.848 89.5909 155.675 88.0145C156.983 86.3986 158.217 84.8457 159.314 83.4245C160.449 81.9538 161.442 80.6205 162.236 79.4836C162.888 78.5883 163.473 77.6458 163.985 76.6639C164.994 74.5907 165.523 72.3168 165.531 70.0112C165.534 68.9256 165.409 67.8435 165.159 66.787C164.989 66.0334 164.727 65.3035 164.378 64.6137C164.105 64.1251 163.74 63.6936 163.304 63.3428C162.64 62.8027 161.893 62.3731 161.092 62.0705C160.287 61.7471 159.429 61.5722 158.561 61.5545C158.033 61.5461 157.509 61.6432 157.019 61.84C153.233 63.4394 148.981 66.3812 144.639 69.9198C140.894 72.9757 137.104 76.4792 133.577 79.9482C131.885 67.7316 125.828 56.5405 116.525 48.4436C101.055 35.0123 85.5885 29.1894 71.8461 29.1897C70.9386 29.1897 70.0412 29.2224 69.1496 29.2726C69.5581 28.2549 69.9206 27.3153 70.2187 26.4855C70.5857 25.5217 70.8829 24.5327 71.1079 23.5263L71.1079 23.5268C71.3007 22.5264 71.3984 21.5101 71.3998 20.4913C71.4061 18.5998 71.0476 16.7247 70.3439 14.9689C69.8965 13.8036 69.2484 12.7256 68.4291 11.7838L68.4289 11.7836C67.948 11.281 67.3582 10.8953 66.7049 10.6564C66.0624 10.4155 65.3816 10.2925 64.6954 10.2933C63.5998 10.2731 62.5289 10.6205 61.6538 11.2801L61.6539 11.28C57.9923 14.1779 54.3841 18.9352 50.9243 24.3249C47.4731 29.7129 44.2032 35.7318 41.3878 41.0978L41.3875 41.0989C37.4589 44.863 34.0481 49.1326 31.2447 53.7956C30.0851 55.7616 29.0504 57.7985 28.1465 59.8944C27.9766 60.2778 27.8036 60.6825 27.6306 61.0884C26.3352 60.3398 24.8969 59.8718 23.4091 59.7148C23.0324 59.2956 22.5994 58.9304 22.1226 58.6298C22.179 58.285 22.2077 57.9362 22.2084 57.5868C22.1785 56.376 21.9445 55.1789 21.5164 54.0458C20.6375 51.7662 19.4513 49.6174 17.9906 47.659C17.8758 47.5093 17.7299 47.3864 17.5629 47.2987C17.3959 47.2109 17.2118 47.1605 17.0234 47.1509L14.6064 47.0298C14.4414 47.0228 14.2765 47.0476 14.1208 47.1028C14.0621 46.9804 13.9847 46.868 13.8913 46.7695C13.6441 46.5232 13.3446 46.3359 13.0149 46.2215C12.6323 46.0891 12.2349 46.0043 11.8315 45.9693C11.4857 45.9352 11.1384 45.9188 10.7909 45.92C10.3298 45.9202 9.99897 45.9448 9.97669 45.9463C9.8044 45.9592 9.63641 46.0063 9.48253 46.0849C9.32865 46.1634 9.19197 46.2718 9.08048 46.4038C8.96899 46.5358 8.88493 46.6887 8.83321 46.8535C8.78148 47.0184 8.76314 47.1919 8.77924 47.3639L8.9079 48.738C8.42444 48.209 7.94171 47.6905 7.51984 47.2679C7.25641 47.0046 7.01892 46.7776 6.79523 46.5877C6.68289 46.491 6.56498 46.4009 6.4421 46.318C6.36587 46.2672 6.2863 46.2215 6.20394 46.1813C6.06492 46.1128 5.91617 46.0662 5.76294 46.0432L5.51813 46.0253C5.26253 46.0276 5.00993 46.0806 4.7749 46.181C4.48165 46.3094 4.2076 46.4779 3.96057 46.6815C3.63911 46.944 3.33516 47.2273 3.05066 47.5295C2.79254 47.7981 2.5705 48.0453 2.47076 48.1476L2.46948 48.1489C2.31028 48.3144 2.1941 48.5165 2.1311 48.7373C2.09164 48.8755 2.07192 49.0187 2.07251 49.1625C2.07479 49.3553 2.10375 49.5469 2.15857 49.7318C2.24404 50.0156 2.35159 50.2923 2.48023 50.5593C2.93879 51.5439 3.71613 52.8583 4.39631 53.9717C4.79585 54.6241 5.15492 55.1917 5.38606 55.5539L5.23158 56.6695C4.98858 56.7498 4.71071 56.846 4.41285 56.959C3.93924 57.1356 3.47626 57.3396 3.02625 57.5698C2.5457 57.8052 2.10514 58.1147 1.72071 58.487C1.53139 58.6844 1.39955 58.9297 1.33942 59.1966C1.30476 59.3477 1.28788 59.5023 1.28913 59.6574C1.29645 59.9646 1.33627 60.2702 1.4079 60.569C1.54969 61.1663 1.72481 61.7552 1.93244 62.3329C2.0089 62.5451 2.13939 62.7336 2.31102 62.8799C2.48265 63.0262 2.68948 63.1252 2.91108 63.1671L8.23682 64.1832C8.44294 64.2541 8.97028 64.4283 9.69007 64.6092C10.7632 64.8936 11.8663 65.0493 12.9761 65.0731L12.9868 65.0725C12.9971 65.1294 13.0015 65.1861 13.0135 65.243L13.0166 65.2573C13.0441 65.38 13.0778 65.51 13.1136 65.641C12.2334 67.4382 11.769 69.4104 11.7546 71.4115C11.7487 72.4266 11.8881 73.4373 12.1684 74.4129L12.1693 74.416C13.5829 79.1375 16.7885 84.0183 19.7651 87.8005L19.7655 87.801C20.002 88.1004 20.2368 88.3661 20.4719 88.6391C20.3597 90.089 20.2941 91.5391 20.2929 92.9803C20.2556 96.6063 20.7083 100.221 21.6388 103.725C23.1365 108.574 25.7331 113.012 29.2265 116.693C35.4019 123.233 42.863 128.424 51.141 131.941C54.2046 133.286 57.3535 134.427 60.5671 135.358C62.2609 137.429 64.0804 139.395 66.0154 141.243C75.2431 150.1 86.5605 153.813 94.4321 155.514C94.9206 156.239 95.4082 156.927 95.8452 157.537C97.0308 159.173 98.3961 160.671 99.9155 162.003C101.527 163.507 103.429 164.666 105.504 165.408C106.26 165.639 107.029 165.829 107.806 165.978C108.666 167.624 109.702 169.172 110.896 170.595C113.736 174.03 117.589 176.479 121.904 177.593C122.232 178.493 122.616 179.427 122.985 180.278C123.62 181.738 124.181 182.893 124.186 182.903C124.316 183.172 124.535 183.388 124.806 183.514C125.076 183.64 125.382 183.669 125.672 183.596C125.683 183.593 126.253 183.451 126.878 183.263C127.192 183.168 127.518 183.064 127.816 182.95C127.967 182.893 128.115 182.829 128.259 182.758L128.5 182.619C128.617 182.542 128.724 182.451 128.819 182.348C129.351 181.738 129.707 180.994 129.846 180.196C129.961 179.546 130.013 178.886 129.999 178.226C129.999 178.013 129.997 177.814 129.997 177.636C129.996 177.533 129.997 177.439 130 177.351C130.508 177.37 131.245 177.453 131.984 177.548C132.77 177.665 133.562 177.74 134.356 177.772C134.519 177.774 134.681 177.764 134.842 177.743C135.159 177.695 135.462 177.575 135.725 177.391C136.079 177.138 136.389 176.828 136.642 176.473C136.834 176.506 137.135 176.557 137.511 176.61C138.197 176.715 138.889 176.774 139.583 176.789C139.87 176.788 140.157 176.76 140.439 176.705C140.508 176.733 140.58 176.754 140.652 176.769C140.675 176.771 141.66 176.866 142.737 176.867C143.147 176.869 143.557 176.851 143.965 176.811C144.386 176.779 144.799 176.682 145.191 176.524C145.531 176.369 145.822 176.125 146.036 175.819C146.309 175.414 146.507 174.964 146.622 174.489C146.775 173.88 146.878 173.259 146.929 172.632C146.976 172.108 146.985 171.734 146.985 171.713C146.992 171.403 146.887 171.1 146.69 170.86C146.341 170.488 145.912 170.199 145.437 170.013C144.307 169.545 143.122 169.225 141.911 169.06C140.521 168.277 138.898 167.419 137.217 166.651C137.285 166.176 137.321 165.697 137.325 165.217C137.326 163.606 136.932 162.019 136.179 160.596C135.004 158.52 133.374 156.738 131.41 155.385C130.967 155.059 130.508 154.748 130.041 154.444C132.244 153.919 134.374 153.124 136.382 152.076C137.081 151.698 137.755 151.275 138.4 150.811C140.549 152.407 143.58 153.402 147.574 153.905C149.087 154.105 150.61 154.211 152.136 154.221C155.541 154.222 157.804 153.575 159.361 152.587C160.132 152.101 160.8 151.467 161.325 150.722C163.222 151.256 165.186 151.519 167.157 151.503C170.13 151.453 173.087 151.072 175.976 150.366C178.653 149.751 180.972 149.037 182.5 148.644L182.512 148.641C182.889 148.533 183.222 148.311 183.467 148.006C183.729 147.674 183.936 147.303 184.08 146.905C184.193 146.615 184.281 146.294 184.369 145.973C186.442 145.612 188.412 144.806 190.144 143.611C192.696 141.851 194.795 139.513 196.269 136.786V136.786C197.927 133.833 198.813 130.511 198.848 127.125C198.857 125.234 198.517 123.358 197.847 121.59C197.85 121.485 197.84 121.38 197.817 121.278ZM174.828 114.101C176.6 112.814 178.703 112.06 180.889 111.929L182.223 111.892C185.067 112.009 187.807 112.992 190.077 114.71C189.366 114.556 188.641 114.476 187.914 114.47C185.166 114.531 182.499 115.408 180.252 116.99C177.7 118.75 175.602 121.088 174.127 123.815C173.87 124.281 173.638 124.753 173.42 125.228C172.836 124.469 172.172 123.776 171.44 123.159C170.667 122.499 169.83 121.918 168.94 121.426C169.163 120.922 169.402 120.42 169.675 119.924C170.923 117.613 172.687 115.621 174.828 114.101ZM161.188 109.1L161.188 109.1C160.252 111.7 158.655 114.01 156.553 115.803C154.874 117.284 152.735 118.138 150.498 118.219C150.115 118.219 149.734 118.188 149.356 118.125C147.913 117.856 146.57 117.202 145.467 116.233C144.431 115.238 143.671 113.992 143.26 112.616C143.206 112.454 143.122 112.304 143.01 112.174C142.898 112.044 142.762 111.938 142.61 111.861C142.457 111.784 142.291 111.738 142.12 111.725C141.949 111.713 141.778 111.734 141.616 111.788C141.453 111.841 141.303 111.927 141.174 112.039C141.044 112.151 140.938 112.287 140.862 112.44C140.785 112.593 140.74 112.76 140.728 112.93C140.716 113.101 140.737 113.272 140.792 113.434C141.342 115.231 142.347 116.854 143.709 118.148C144.588 118.937 145.602 119.563 146.701 119.997C146.772 120.054 146.848 120.104 146.93 120.145C147.534 120.383 148.162 120.557 148.802 120.665L148.823 120.671L148.823 120.672L148.832 120.674L148.841 120.676L148.841 120.675L148.87 120.68C148.88 120.681 148.89 120.685 148.901 120.687L148.901 120.687L148.91 120.689L148.917 120.69L148.917 120.689C148.929 120.691 148.942 120.692 148.954 120.694C149.512 120.818 150.075 120.913 150.643 120.976C149.533 121.472 148.201 122.09 146.692 122.721C145.037 123.423 143.342 124.029 141.617 124.538C139.508 119.987 136.624 115.838 133.094 112.276C133.729 112.251 134.344 112.053 134.875 111.704C135.621 111.22 136.297 110.638 136.886 109.973C139.32 107.354 145.345 100.467 151.127 93.5423C152.134 93.1271 153.211 92.9071 154.299 92.894C155.198 92.8907 156.088 93.0598 156.923 93.3921C158.606 94.1008 159.987 95.3777 160.826 97.0001C161.82 98.9019 162.323 101.022 162.287 103.168C162.277 105.195 161.905 107.204 161.188 109.1ZM120.154 121.736C119.779 121.749 119.409 121.647 119.094 121.445C118.745 121.196 118.482 120.845 118.341 120.441C118.115 119.818 118.008 119.158 118.025 118.495C118.203 115.571 119.155 112.746 120.784 110.31C120.874 110.166 120.935 110.005 120.963 109.836C120.991 109.668 120.986 109.495 120.948 109.329C120.909 109.163 120.838 109.006 120.739 108.867C120.64 108.728 120.515 108.61 120.37 108.519C120.225 108.429 120.064 108.368 119.896 108.339C119.727 108.311 119.555 108.317 119.389 108.355C119.222 108.393 119.065 108.464 118.926 108.563C118.787 108.662 118.669 108.788 118.579 108.933C116.687 111.779 115.597 115.082 115.425 118.495C115.407 119.487 115.577 120.474 115.925 121.403C115.971 121.519 116.031 121.627 116.084 121.74C115.671 121.718 115.257 121.693 114.852 121.657C113.851 121.594 112.86 121.415 111.9 121.121C111.868 121.11 111.835 121.116 111.803 121.107C111.771 121.082 111.754 121.046 111.72 121.023C111.186 120.647 110.78 120.115 110.559 119.501C110.241 118.632 110.089 117.711 110.111 116.786C110.102 113.808 111.359 109.704 113.834 105.757C114.938 103.98 116.247 102.338 117.734 100.866C118.228 101.481 118.839 101.993 119.531 102.372C120.364 102.849 121.305 103.109 122.265 103.129C122.767 103.131 123.266 103.042 123.736 102.865L123.736 102.865C123.757 102.856 123.872 102.817 124.025 102.777C124.77 102.583 125.536 102.483 126.305 102.48C127.055 102.464 127.801 102.596 128.5 102.868C129.185 103.143 129.757 103.639 130.126 104.277C130.187 104.32 130.236 104.377 130.268 104.444C130.3 104.51 130.314 104.584 130.31 104.658C130.6 105.412 130.736 106.216 130.709 107.024C130.597 109.963 129.699 112.819 128.11 115.294C126.995 117.129 125.568 118.754 123.892 120.097C122.847 121.019 121.54 121.592 120.154 121.736V121.736ZM147.112 94.2817C143.952 98.0272 140.845 101.623 138.442 104.349L136.862 94.3744C136.801 93.9894 136.771 93.6001 136.771 93.2103C136.765 91.3128 137.499 89.4876 138.817 88.1225C142.437 84.409 146.122 80.9552 149.226 78.2085C150.778 76.8353 152.186 75.6386 153.364 74.6763C154.541 73.7151 155.496 72.9841 156.11 72.5632C156.913 71.9927 157.745 71.4632 158.602 70.9768C158.814 70.8588 159.035 70.7572 159.262 70.673L159.329 70.654C159.579 71.0915 159.738 71.5755 159.794 72.0763C159.918 72.8943 159.975 73.7209 159.966 74.5481C159.959 75.73 159.888 76.9108 159.755 78.0853C159.749 78.2052 159.759 78.3255 159.787 78.4424C157.046 82.2953 152.008 88.4804 147.112 94.2817L147.112 94.2817ZM141.306 76.2183C144.116 73.6543 147.054 71.2347 150.11 68.969C152.565 67.1017 155.221 65.5142 158.028 64.2363C158.199 64.1754 158.38 64.1476 158.561 64.1545C159.313 64.1916 160.047 64.3925 160.712 64.7431C161.041 64.9059 161.351 65.1051 161.636 65.337C161.813 65.4741 161.964 65.6419 162.082 65.8324L162.082 65.8329C162.326 66.3294 162.511 66.8534 162.631 67.3936C162.833 68.2514 162.934 69.13 162.931 70.0112C162.928 71.065 162.791 72.114 162.522 73.133C162.493 72.6345 162.438 72.1378 162.358 71.6448C162.242 70.7019 161.899 69.8013 161.358 69.0207C161.203 68.8198 161.024 68.639 160.825 68.4825C160.663 68.3552 160.485 68.2514 160.295 68.1742L160.293 68.1737C160.029 68.0711 159.747 68.0191 159.464 68.0205C158.723 68.0681 158.005 68.2966 157.373 68.6858C156.432 69.2165 155.519 69.7954 154.637 70.4202C153.918 70.9153 152.932 71.6727 151.72 72.6624C146.562 76.9478 141.633 81.5025 136.955 86.3074C135.164 88.1579 134.165 90.6345 134.171 93.2103C134.171 93.7363 134.212 94.2616 134.295 94.7811L136.01 105.617C136.038 105.789 136.1 105.954 136.193 106.102C136.287 106.249 136.409 106.377 136.553 106.476C135.931 107.169 135.397 107.755 134.982 108.203C134.554 108.692 134.064 109.122 133.523 109.483C133.412 109.554 133.293 109.612 133.169 109.655L133.107 109.67C133.091 109.657 133.072 109.652 133.055 109.64C133.215 108.777 133.3 107.902 133.309 107.024C133.338 105.855 133.127 104.694 132.689 103.61C132.638 103.512 132.574 103.421 132.499 103.34C132.476 103.208 132.431 103.08 132.368 102.961H132.368C131.713 101.839 130.708 100.964 129.506 100.471C128.489 100.064 127.401 99.8634 126.305 99.8796C125.576 99.8819 124.849 99.9516 124.134 100.088C123.834 100.145 123.571 100.207 123.351 100.266C123.129 100.326 122.958 100.379 122.805 100.437L122.806 100.437C122.633 100.5 122.449 100.531 122.265 100.529C121.561 100.488 120.886 100.233 120.33 99.7991C120.086 99.6222 119.872 99.4081 119.694 99.1645C119.657 99.111 119.625 99.0537 119.6 98.9936C119.672 98.8949 119.777 98.755 119.91 98.5869C120.793 97.4621 122.832 95.0587 125.573 92.0376C129.687 87.5013 135.403 81.5425 141.306 76.2183ZM53.1137 25.7273C56.4859 20.4523 60.0295 15.8617 63.2639 13.3215H63.2639C63.6812 13.0258 64.1842 12.8753 64.6954 12.8933C65.0667 12.8927 65.4352 12.9585 65.7834 13.0876C66.0632 13.1859 66.3173 13.3461 66.5268 13.5562C67.1274 14.2672 67.6033 15.0749 67.934 15.9449C68.5121 17.3906 68.8061 18.9343 68.7998 20.4913C68.7984 21.3463 68.7161 22.1992 68.554 23.0386L68.5539 23.0391C68.3526 23.9119 68.0912 24.7697 67.7718 25.6065C67.3752 26.7104 66.8501 28.0464 66.2359 29.5346C65.0409 29.6774 63.8576 29.8524 62.6973 30.0847C56.9186 31.2068 51.4359 33.5165 46.5963 36.8677C48.6469 33.1082 50.8473 29.2647 53.1137 25.7273L53.1137 25.7273ZM18.2023 60.3738C18.3016 60.3517 18.398 60.354 18.4964 60.3411C18.0764 60.5084 17.6696 60.7071 17.2795 60.9354C16.9032 61.1671 16.5433 61.4245 16.2023 61.7056C16.2166 61.6863 16.2268 61.664 16.2414 61.6451C16.7265 61.0053 17.4203 60.5556 18.2023 60.3738ZM4.33865 49.9561L4.3399 49.9547L4.33865 49.9561ZM9.36325 61.8166C9.24679 61.7799 9.15579 61.7497 9.09567 61.7293L9.02932 61.7064L9.01339 61.7008L8.81631 61.6468L4.14877 60.7563C4.12228 60.6698 4.09549 60.5802 4.06977 60.4893C4.02387 60.3279 3.98646 60.1726 3.9546 60.0293C4.03816 59.9782 4.12837 59.9259 4.22914 59.8747C4.76248 59.6085 5.31426 59.3809 5.8802 59.1938C6.13545 59.1068 6.35737 59.0373 6.51295 58.9905L6.6927 58.9376L6.74897 58.9217C6.99459 58.8549 7.21512 58.7174 7.38307 58.5261C7.55103 58.3348 7.65896 58.0984 7.69343 57.8462L8.02743 55.434C8.06981 55.1244 7.99969 54.8098 7.8298 54.5474C7.82968 54.5473 7.77969 54.4704 7.68911 54.3292C7.37246 53.8359 6.5732 52.5774 5.86477 51.3637C5.51113 50.7583 5.17959 50.1615 4.95071 49.6982C4.90353 49.6029 4.86398 49.5178 4.82663 49.4362C5.02163 49.2297 5.23245 49.0207 5.42288 48.8532L5.43997 48.8691C6.10007 49.5023 7.15697 50.661 8.02359 51.639C8.45859 52.1295 8.84994 52.5781 9.13205 52.9036C9.41416 53.229 9.58493 53.4289 9.58542 53.4294C9.76481 53.6394 10.0064 53.7867 10.2752 53.8502C10.5439 53.9136 10.8259 53.8898 11.0802 53.7822C11.3346 53.6746 11.548 53.4888 11.6897 53.2517C11.8313 53.0147 11.8938 52.7387 11.8681 52.4637L11.5022 48.5551C11.6041 48.5646 11.7115 48.5716 11.7995 48.5861C11.8615 48.5959 11.9149 48.6074 11.9639 48.6188L14.0636 53.1176C14.2094 53.43 14.4734 53.6718 14.7974 53.7896C15.1215 53.9074 15.479 53.8917 15.7915 53.7458C16.1039 53.6 16.3456 53.3361 16.4634 53.012C16.5813 52.688 16.5655 52.3304 16.4197 52.018L15.3232 49.6689L16.2708 49.7164C16.8566 50.5518 17.395 51.4195 17.8834 52.3153C18.3594 53.1779 18.7654 54.0772 19.0974 55.0047C19.4069 55.832 19.5795 56.7041 19.6084 57.5868C19.6084 57.6393 19.5976 57.682 19.5959 57.733C18.94 57.6546 18.2756 57.6897 17.6317 57.8368L17.6246 57.8384C16.2518 58.1552 15.0329 58.9418 14.1787 60.0622C13.6402 60.7761 13.2598 61.5964 13.0625 62.4686C13.0323 62.469 13.0069 62.4732 12.9761 62.4732C12.0799 62.4482 11.1898 62.3188 10.3236 62.0877C9.93117 61.9891 9.59615 61.8899 9.36324 61.8166L9.36325 61.8166ZM14.6622 73.677C14.4525 72.9403 14.3489 72.1775 14.3546 71.4115C14.3705 69.2125 15.0643 67.0718 16.3416 65.2816C16.949 64.432 17.7211 63.7132 18.612 63.168C19.5058 62.6307 20.5189 62.3234 21.5606 62.2736C21.7667 62.2638 21.9942 62.2543 22.2481 62.2543C23.802 62.2386 25.3268 62.6756 26.6364 63.512C23.8722 70.4102 21.9355 77.6118 20.867 84.966C18.3 81.5434 15.7561 77.3823 14.6622 73.677V73.677ZM44.1452 125.402C39.3294 122.57 34.9535 119.049 31.1565 114.951C27.9347 111.568 25.5352 107.489 24.1441 103.03C23.2767 99.7514 22.8559 96.3711 22.8931 92.9803C22.8903 85.2212 24.7537 76.9901 27.0202 70.0882C28.1524 66.6367 29.3834 63.5159 30.5229 60.9494C31.3801 58.9603 32.3605 57.0265 33.4583 55.1594C36.8227 49.4502 41.196 44.3993 46.3651 40.2527C51.3042 36.4275 57.0738 33.8177 63.2078 32.6342C66.0523 32.0683 68.9459 31.7855 71.8462 31.7898C84.8416 31.7902 99.7058 37.2904 114.821 50.4071C124.153 58.5463 130.031 69.9372 131.258 82.2593C129.517 84.0201 127.856 85.7476 126.341 87.3673C123.778 90.1064 121.603 92.5486 120.03 94.3792C119.242 95.2948 118.606 96.0568 118.143 96.6325C117.91 96.9209 117.722 97.1619 117.574 97.3598C117.5 97.4591 117.436 97.5473 117.379 97.6316C117.315 97.7234 117.257 97.8192 117.205 97.9184C117.201 97.9265 117.2 97.9354 117.196 97.9434C117.032 97.9994 116.881 98.0877 116.752 98.2031C114.763 100.011 113.039 102.09 111.63 104.379C108.953 108.678 107.521 113.12 107.512 116.786C107.488 118.042 107.703 119.292 108.146 120.468C108.563 121.57 109.306 122.518 110.276 123.186C110.385 123.251 110.503 123.299 110.627 123.329C110.741 123.431 110.873 123.511 111.015 123.566C112.185 123.938 113.395 124.167 114.62 124.246C114.724 124.255 114.828 124.261 114.933 124.269C107.689 129.68 97.9369 133.569 85.4902 135.13C83.3632 135.394 81.2218 135.525 79.0785 135.522C66.9758 135.527 54.3084 131.514 44.1452 125.402L44.1452 125.402ZM67.8147 139.366C66.8157 138.409 65.884 137.456 65.0087 136.509C69.6256 137.559 74.3436 138.1 79.0783 138.122C81.3297 138.125 83.5791 137.987 85.8134 137.71C100.032 135.928 111.051 131.159 118.935 124.395C119.528 124.388 120.038 124.373 120.414 124.356C120.482 124.345 120.549 124.329 120.614 124.306C122.406 124.064 124.093 123.319 125.478 122.157C126.679 121.207 127.763 120.117 128.707 118.912C131.202 122.716 132.546 127.16 132.579 131.709C132.575 133.526 132.366 135.337 131.958 137.107C131.298 140.249 130.005 143.224 128.157 145.85C126.751 147.789 124.991 149.444 122.969 150.729C122.461 150.529 121.946 150.348 121.425 150.186C120.689 148.303 119.467 146.648 117.883 145.391C114.367 142.869 110.442 140.973 106.281 139.787L106.276 139.785C104.445 139.171 102.532 138.837 100.602 138.795C100.468 138.795 100.337 138.803 100.205 138.807C99.2463 138.322 98.1787 138.093 97.1052 138.14C96.0317 138.188 94.9884 138.51 94.0757 139.077C92.7453 139.911 91.7483 141.184 91.2575 142.675C90.7667 144.166 90.813 145.782 91.3883 147.243C91.3853 147.337 91.3787 147.432 91.3787 147.525C91.4009 148.922 91.6952 150.301 92.245 151.584C92.3618 151.87 92.4892 152.15 92.621 152.425C85.2313 150.571 75.6523 146.903 67.816 139.368L67.8147 139.366ZM101.631 160.05C100.265 158.851 99.0356 157.505 97.967 156.034L97.9626 156.028C97.4321 155.288 96.8536 154.483 96.3043 153.645C95.6596 152.684 95.1064 151.665 94.6521 150.602C94.2303 149.629 94.0016 148.585 93.9788 147.525C93.9788 147.39 93.9833 147.255 93.9925 147.12C94.0683 146.164 94.3667 145.238 94.8639 144.418C95.3787 143.513 96.1235 142.76 97.0228 142.236C97.9398 141.734 98.9605 141.453 100.005 141.413L100.005 141.413H100.005C100.2 141.401 100.399 141.395 100.602 141.395C102.267 141.438 103.916 141.731 105.494 142.265C109.37 143.363 113.028 145.12 116.307 147.459L116.308 147.46C117.022 148.018 117.637 148.692 118.129 149.454C117.521 149.374 116.909 149.332 116.296 149.328C115.95 149.328 115.607 149.36 115.264 149.387C114.095 148.684 112.729 148.381 111.373 148.524C110.017 148.666 108.744 149.247 107.747 150.177L107.744 150.179C106.735 151.114 106.036 152.335 105.742 153.678C105.448 155.022 105.572 156.424 106.099 157.694C106.017 158.21 105.974 158.732 105.971 159.254C105.988 160.529 106.195 161.795 106.585 163.009C106.476 162.977 106.378 162.956 106.267 162.922C104.545 162.284 102.969 161.307 101.631 160.05L101.631 160.05ZM108.2 152.961L108.207 152.953L108.204 152.956L108.2 152.961ZM122.458 167.267C122.455 166.699 122.569 166.137 122.793 165.616C123.017 165.095 123.347 164.625 123.76 164.237C124.121 163.897 124.546 163.632 125.01 163.458C125.474 163.283 125.968 163.203 126.463 163.221C126.959 163.24 127.445 163.357 127.895 163.565C128.345 163.773 128.749 164.069 129.083 164.435C128.199 164.483 127.336 164.718 126.55 165.127C125.355 165.795 124.352 166.761 123.64 167.93C123.383 168.337 123.148 168.758 122.938 169.192C122.626 168.598 122.462 167.938 122.458 167.267L122.458 167.267ZM137.842 174.031C137.859 173.974 137.885 173.918 137.9 173.861C137.982 173.555 138.027 173.24 138.032 172.923C138.034 172.684 137.997 172.445 137.922 172.217C137.812 171.89 137.604 171.604 137.325 171.4C137.123 171.263 136.909 171.144 136.684 171.047C135.91 170.691 134.677 170.243 133.591 169.86C132.512 169.481 131.608 169.182 131.604 169.181C131.442 169.127 131.27 169.106 131.1 169.118C130.93 169.13 130.763 169.176 130.611 169.253C130.458 169.33 130.322 169.436 130.21 169.565C130.099 169.694 130.014 169.844 129.96 170.007C129.906 170.169 129.885 170.34 129.898 170.51C129.91 170.681 129.956 170.847 130.033 171C130.11 171.152 130.216 171.288 130.346 171.4C130.475 171.511 130.625 171.596 130.788 171.649C130.788 171.65 131.075 171.744 131.521 171.896C132.189 172.123 133.211 172.476 134.114 172.813C134.565 172.98 134.987 173.145 135.31 173.282L135.357 173.302C135.34 173.362 135.321 173.425 135.298 173.49C135.133 173.963 134.906 174.412 134.625 174.826C134.541 174.95 134.446 175.066 134.34 175.172C133.96 175.173 133.145 175.076 132.309 174.968C131.472 174.846 130.63 174.771 129.785 174.743C129.693 174.744 129.603 174.751 129.513 174.755L127.886 174.393C127.72 174.355 127.547 174.351 127.379 174.38C127.21 174.409 127.049 174.472 126.905 174.563C126.76 174.655 126.635 174.774 126.537 174.914C126.439 175.054 126.369 175.212 126.332 175.379C126.295 175.545 126.291 175.718 126.321 175.886C126.35 176.055 126.413 176.216 126.505 176.36C126.597 176.504 126.716 176.629 126.856 176.727C126.996 176.825 127.155 176.894 127.322 176.931L127.428 176.954C127.413 177.183 127.398 177.411 127.397 177.636C127.397 177.833 127.399 178.031 127.399 178.226C127.412 178.716 127.377 179.205 127.296 179.688C127.247 179.977 127.134 180.251 126.965 180.49C126.882 180.524 126.775 180.565 126.644 180.609C126.466 180.67 126.265 180.732 126.065 180.792C125.732 180.07 125.269 179.039 124.841 177.989C124.537 177.244 124.253 176.493 124.053 175.862C123.953 175.547 123.874 175.263 123.825 175.037C123.791 174.901 123.77 174.762 123.761 174.622C123.804 174.499 123.844 174.379 123.884 174.243C124.038 173.707 124.234 172.949 124.526 172.105C124.533 172.087 124.546 172.073 124.553 172.055C124.957 170.788 125.584 169.602 126.403 168.555C126.78 168.095 127.242 167.713 127.763 167.427C128.295 167.147 128.888 167.004 129.489 167.011L129.655 167.014C130.129 167.039 130.6 167.106 131.062 167.214L131.081 167.218C132.767 167.62 134.406 168.196 135.973 168.939C137.512 169.634 139.03 170.43 140.359 171.172C140.35 171.209 140.327 171.239 140.321 171.277V171.277C140.195 172.168 140.083 173.067 139.926 173.676C139.885 173.85 139.827 174.02 139.754 174.183C139.702 174.186 139.649 174.189 139.583 174.188C139.012 174.174 138.441 174.123 137.876 174.036L137.842 174.031ZM142.737 174.267C142.643 174.267 142.553 174.263 142.459 174.261C142.529 173.979 142.585 173.692 142.636 173.401C142.724 172.895 142.792 172.384 142.86 171.895C143.367 172.009 143.863 172.169 144.341 172.372C144.317 172.65 144.28 172.975 144.224 173.29C144.178 173.586 144.103 173.877 143.998 174.157L143.985 174.184C143.872 174.205 143.758 174.221 143.643 174.231C143.381 174.256 143.06 174.267 142.737 174.267L142.737 174.267ZM131.513 158.828C132.464 159.676 133.263 160.681 133.874 161.799C134.434 162.851 134.727 164.025 134.725 165.217C134.725 165.343 134.708 165.477 134.702 165.605C133.939 165.318 133.161 165.071 132.372 164.865C132.096 164.122 131.686 163.436 131.164 162.84C130.606 162.188 129.921 161.656 129.151 161.276C128.381 160.896 127.543 160.676 126.686 160.628C125.829 160.581 124.971 160.708 124.164 161.001C123.357 161.293 122.618 161.747 121.991 162.333C120.722 163.527 119.962 165.164 119.868 166.904C119.775 168.643 120.355 170.352 121.488 171.676L121.487 171.677L121.498 171.689L121.504 171.698L121.505 171.697C121.606 171.817 121.713 171.919 121.818 172.026C121.717 172.354 121.628 172.661 121.554 172.923C121.488 173.159 121.432 173.364 121.386 173.522C121.342 173.678 121.303 173.795 121.297 173.808L121.3 173.799C121.202 174.054 121.154 174.325 121.158 174.598C121.159 174.628 121.165 174.656 121.166 174.685C117.944 173.545 115.087 171.558 112.896 168.935L112.896 168.934C111.612 167.424 110.537 165.749 109.699 163.954C108.997 162.484 108.612 160.883 108.571 159.254C108.569 158.759 108.617 158.264 108.711 157.777L108.711 157.77L108.713 157.764C108.927 156.603 109.441 155.518 110.204 154.617L110.211 154.61C110.812 153.872 111.554 153.261 112.393 152.813C113.232 152.364 114.152 152.086 115.099 151.996C115.496 151.95 115.896 151.927 116.296 151.928C117.588 151.942 118.872 152.133 120.112 152.496L120.118 152.498C120.968 152.735 121.801 153.03 122.611 153.379C123.036 153.563 123.454 153.753 123.844 153.948L123.847 153.949C126.614 155.216 129.193 156.858 131.513 158.828L131.513 158.828ZM133.004 150.782C130.964 151.568 128.847 152.138 126.688 152.485C126.369 152.315 126.049 152.155 125.729 151.992C127.464 150.689 128.992 149.133 130.264 147.375C132.316 144.465 133.755 141.168 134.493 137.684C134.945 135.724 135.175 133.72 135.179 131.709C135.129 126.315 133.435 121.064 130.322 116.659C130.772 115.931 131.177 115.177 131.536 114.401C138.971 122.237 141.809 130.202 141.812 136.963C141.819 139.119 141.516 141.265 140.91 143.334C140.488 144.739 139.744 146.026 138.737 147.093C137.12 148.728 135.162 149.988 133.004 150.782L133.004 150.782ZM157.967 150.392C156.957 151.034 155.227 151.62 152.136 151.621C150.719 151.611 149.304 151.512 147.899 151.325L147.897 151.325C145.277 151.118 142.735 150.343 140.445 149.055C140.509 148.988 140.58 148.929 140.643 148.861C141.921 147.502 142.865 145.864 143.402 144.076L143.402 144.075C144.079 141.765 144.419 139.37 144.412 136.963C144.412 136.179 144.367 135.38 144.297 134.573C144.598 134.546 144.903 134.527 145.217 134.527C147.739 134.633 150.218 135.217 152.523 136.248C154.162 136.925 155.74 137.742 157.239 138.69L157.245 138.694C157.457 138.833 157.665 138.987 157.878 139.154C158.797 139.858 159.524 140.782 159.993 141.84C160.37 142.729 160.56 143.686 160.551 144.652C160.547 145.75 160.34 146.837 159.94 147.86L159.939 147.862C159.862 148.055 159.805 148.186 159.768 148.256L159.753 148.284C159.379 149.147 158.757 149.881 157.967 150.392L157.967 150.392ZM175.394 147.832C172.697 148.493 169.934 148.852 167.157 148.903C165.831 148.909 164.507 148.78 163.207 148.519C164.362 147.49 165.129 146.097 165.38 144.571C165.631 143.045 165.351 141.479 164.587 140.135C164.041 139.153 163.247 138.331 162.284 137.752C161.322 137.172 160.224 136.855 159.101 136.832C158.958 136.727 158.829 136.623 158.667 136.518C158.631 136.494 158.582 136.463 158.541 136.437C159.555 133.067 161.069 129.868 163.033 126.947C163.743 125.883 164.573 124.905 165.508 124.032C165.787 123.775 166.095 123.551 166.424 123.362C166.511 123.314 166.602 123.274 166.697 123.243L166.721 123.237C167.981 123.778 169.137 124.536 170.135 125.476C170.57 125.873 170.971 126.306 171.333 126.771C171.452 126.925 171.561 127.088 171.658 127.258L171.734 127.411L171.749 127.45L171.751 127.456C171.844 127.845 171.891 128.243 171.89 128.643C171.878 129.151 171.833 129.658 171.755 130.16C171.679 130.741 171.587 131.421 171.556 132.236C171.543 132.585 171.536 132.929 171.536 133.268C171.512 134.925 171.718 136.577 172.148 138.177C172.735 140.386 174.022 142.346 175.818 143.76C175.899 143.824 175.997 143.874 176.081 143.936C176.437 144.22 176.811 144.48 177.201 144.714C177.717 145.012 178.259 145.263 178.819 145.465C179.635 145.792 180.474 146.06 181.329 146.265C179.755 146.689 177.706 147.302 175.394 147.832L175.394 147.832ZM193.993 135.53C192.717 137.895 190.901 139.926 188.691 141.455C186.873 142.747 184.712 143.469 182.482 143.531C181.555 143.531 180.636 143.367 179.766 143.046C179.5 142.936 179.238 142.824 178.996 142.702C178.595 142.5 178.209 142.271 177.839 142.017C176.398 140.904 175.335 139.374 174.793 137.636C174.469 136.653 174.267 135.633 174.192 134.6C174.183 134.469 174.181 134.33 174.175 134.195C174.163 133.957 174.148 133.72 174.148 133.477C174.183 130.53 174.958 127.639 176.403 125.071C177.679 122.706 179.496 120.676 181.705 119.146C183.523 117.855 185.684 117.132 187.914 117.07C189.305 117.058 190.674 117.423 191.875 118.127C193.285 118.979 194.408 120.233 195.101 121.728C195.883 123.418 196.275 125.262 196.248 127.125C196.213 130.071 195.438 132.962 193.993 135.53Z"/><path id="Vector_22" d="M89.8419 111.49C92.43 106.479 93.5682 100.846 93.1282 95.2233C92.6882 89.601 90.6876 84.2131 87.3515 79.6662C83.1913 73.4706 76.5784 67.5229 70.387 62.813C67.291 60.4608 64.3011 58.4251 61.7729 56.843C59.8853 55.6174 57.9142 54.5256 55.8741 53.5754C52.9044 52.2423 49.7013 51.507 46.4476 51.4113C44.169 51.382 41.917 51.9038 39.8836 52.9324C37.4676 54.2307 35.4568 56.1704 34.0723 58.538C31.0293 63.8037 28.7167 69.4589 27.1982 75.3481C25.4724 81.4019 24.5318 87.6524 24.3994 93.946C24.3995 94.9279 24.4319 95.881 24.4996 96.7995C25.0157 103.716 28.9127 110.108 34.4735 115.09C40.2226 120.198 47.2659 123.627 54.8329 125.001C56.8463 125.348 58.8859 125.522 60.929 125.519C67.1487 125.489 73.2788 124.034 78.8489 121.266C81.2688 120.078 83.5267 118.585 85.5678 116.824C87.3262 115.341 88.778 113.529 89.8419 111.49ZM83.8494 114.873C80.906 117.359 77.5355 119.291 73.902 120.572C69.7473 122.104 65.357 122.898 60.929 122.919C59.0353 122.922 57.145 122.761 55.2789 122.439C48.1918 121.148 41.5952 117.936 36.208 113.153C31.0058 108.497 27.53 102.644 27.0925 96.6086V96.6084C27.03 95.7607 26.9994 94.8704 26.9994 93.946C27.1327 87.8845 28.0423 81.865 29.7058 76.0348C31.1605 70.3848 33.3738 64.958 36.2855 59.9023C37.4222 57.936 39.0812 56.3228 41.0785 55.2415C42.7426 54.404 44.5848 53.9819 46.4476 54.0113C49.3524 54.1093 52.21 54.7744 54.8596 55.9693C56.7724 56.8675 58.6214 57.8958 60.3937 59.047C64.9382 61.9092 69.2789 65.083 73.3845 68.5456C77.862 72.191 81.8329 76.4177 85.1918 81.114C89.1781 87.068 90.6165 92.6005 90.6205 97.6075C90.5703 102.036 89.5049 106.395 87.5062 110.347C86.5917 112.078 85.3498 113.615 83.8494 114.873Z"/><path id="Vector_23" d="M94.0742 139.078L94.0762 139.077L94.0742 139.078Z"/><path id="Vector_24" d="M95.8487 157.542L95.8447 157.537L95.8438 157.536L95.8487 157.542Z"/><path id="Vector_25" d="M117.883 145.391L117.884 145.392L117.883 145.391Z"/><path id="Vector_26" d="M131.162 162.837L131.164 162.84L131.167 162.843L131.162 162.837Z"/><path id="Vector_27" d="M128.822 182.344L128.819 182.348L128.816 182.351L128.822 182.344Z"/><path id="Vector_28" d="M55.846 59.6844C55.6936 59.6071 55.5274 59.5606 55.357 59.5476C55.1866 59.5346 55.0154 59.5553 54.853 59.6085C54.6906 59.6618 54.5403 59.7465 54.4107 59.8579C54.2811 59.9693 54.1747 60.1051 54.0977 60.2576C54.0206 60.4102 53.9744 60.5764 53.9616 60.7468C53.9489 60.9172 53.9699 61.0885 54.0233 61.2508C54.0768 61.4131 54.1618 61.5632 54.2734 61.6927C54.385 61.8221 54.521 61.9283 54.6736 62.0051C55.2863 62.3102 55.8766 62.6584 56.4401 63.0469C56.5798 63.1461 56.7379 63.2167 56.9051 63.2547C57.0723 63.2926 57.2453 63.297 57.4142 63.2678C57.5832 63.2386 57.7446 63.1762 57.8894 63.0843C58.0341 62.9924 58.1592 62.8728 58.2576 62.7324C58.3559 62.592 58.4254 62.4335 58.4623 62.266C58.4991 62.0986 58.5024 61.9255 58.4721 61.7568C58.4417 61.5881 58.3783 61.427 58.2855 61.2829C58.1926 61.1387 58.0722 61.0144 57.9311 60.917C57.2661 60.4573 56.5693 60.0454 55.846 59.6844Z"/><path id="Vector_29" d="M50.3783 57.719C48.8523 57.3465 47.2888 57.1492 45.7181 57.1308C44.1406 57.0696 42.5737 57.4142 41.1674 58.1317C40.8681 58.3028 40.649 58.5859 40.5584 58.9185C40.4678 59.2512 40.513 59.6063 40.6842 59.9056C40.8553 60.2049 41.1384 60.4239 41.471 60.5145C41.8037 60.6052 42.1587 60.5599 42.458 60.3888C43.473 59.9014 44.5936 59.6752 45.7181 59.7308C47.0881 59.7495 48.4515 59.9236 49.7823 60.2497C50.1172 60.3269 50.469 60.2683 50.7609 60.0867C51.0527 59.9052 51.2608 59.6155 51.3396 59.2809C51.4184 58.9464 51.3615 58.5943 51.1813 58.3016C51.0012 58.0088 50.7125 57.7994 50.3783 57.719Z"/></g></svg>