<svg xmlns="http://www.w3.org/2000/svg" width="200" height="200" fill="none"><path fill="#FFD93A" d="M72.25 59.75c1-10.375 6.5-12.125 11.25-12s8.875 6.5 8.875 6.5-3.5 7.5-2.5 14.875a56.932 56.932 0 0 0 6 18.125 47.435 47.435 0 0 0 3.875 6.5l-9.25 5.125-22.25-27.25 4-11.875Z"/><path fill="#191C22" d="M167.477 49.68c.935-9.897 2.462-27.747 2.793-32.804.016-.232.023-.458.023-.677a7.13 7.13 0 0 0-.351-2.319 4.636 4.636 0 0 0-1.751-2.365 5.304 5.304 0 0 0-2.45-.87 6.135 6.135 0 0 0-.678-.037 5.101 5.101 0 0 0-3.413 1.228 5.89 5.89 0 0 0-1.834 3.99c-.408 4.228-1.752 20.545-2.622 31.181-.159-.61-.319-1.22-.498-1.82-2.812-9.428-8.229-17.578-17.347-23.269-9.114-5.696-21.828-8.946-39.247-8.947-11.616 0-21.132 1.445-28.893 4.096-11.64 3.965-19.322 10.708-23.98 19.162a46.84 46.84 0 0 0-4.374 11.369c-.867-10.612-2.254-27.464-2.67-31.772a5.894 5.894 0 0 0-1.833-3.99 5.105 5.105 0 0 0-3.414-1.228c-.227 0-.453.012-.678.037a5.01 5.01 0 0 0-3.168 1.488 4.8 4.8 0 0 0-1.033 1.747 7.133 7.133 0 0 0-.351 2.319c0 .22.007.445.023.677.331 5.056 1.858 22.907 2.793 32.805.132 2.457.708 4.87 1.699 7.122a7.11 7.11 0 0 0 1.38 1.953 6.434 6.434 0 0 0-1.5 1.64 8.811 8.811 0 0 0-1.012 3.041 24.745 24.745 0 0 0-.324 4.204c.003 1.43.088 2.858.256 4.277.264 2.4.803 4.762 1.606 7.038a16.6 16.6 0 0 0 1.137 2.512c.348.65.804 1.237 1.348 1.734a9.88 9.88 0 0 0 4.135 1.837c.744.168 1.498.287 2.258.354.012.04.021.08.034.119a37.712 37.712 0 0 0 17.435 22.212c7.602 4.442 17.685 7.229 30.865 8.037v2.351a91.269 91.269 0 0 0-4.467.302 41.51 41.51 0 0 0-4.3.603c-1.05.177-2.067.512-3.017.993a13.195 13.195 0 0 0-3.611 3.202c-.196-.081-.379-.175-.589-.243h-.001a9.092 9.092 0 0 0-2.803-.424 17.447 17.447 0 0 0-8.525 2.749 44.04 44.04 0 0 0-11.402 10.121 33.9 33.9 0 0 0-3.754 5.66 11.742 11.742 0 0 0-1.506 5.056l.006.248a7.087 7.087 0 0 0 .82 3.068c.4.733.93 1.388 1.565 1.931a8.482 8.482 0 0 0-1.144 4.372c.012 3.49 1.694 7.48 5.01 11.766a25.223 25.223 0 0 0 5.648 5.653 7.85 7.85 0 0 0 6.12 1.433c.128.377.307.734.532 1.061a4.693 4.693 0 0 0 2.167 1.713 5.55 5.55 0 0 0 2.007.363c.136 0 .26-.005.373-.012.028.25.053.507.082.752.225 2.011.553 4.009.983 5.987.293 1.461.763 2.88 1.4 4.226a1.3 1.3 0 0 0 2.307-1.2 15.924 15.924 0 0 1-1.171-3.601c-.57-2.703-.97-5.44-1.194-8.194.382.11.766.217 1.166.319.006.002.01.006.017.008.017.004.034.005.052.009l.009.002v.001l.018.003a71.87 71.87 0 0 0 9.896 1.648c5.23.514 10.484.762 15.74.741 6.719.016 13.434-.344 20.113-1.077h.002l.01-.001h.002l.125-.014a69.83 69.83 0 0 0 7.328-1.198c.87-.193 1.729-.44 2.569-.738l.02-.008a120.651 120.651 0 0 1-.811 12.516 1.303 1.303 0 0 0 1.126 1.453 1.302 1.302 0 0 0 1.453-1.127 134.39 134.39 0 0 0 .867-16.367 239.06 239.06 0 0 0-2.037-30.649c.144.235.288.483.432.712 1.589 2.54 3.112 4.674 3.907 5.821a10.34 10.34 0 0 0 8.448 4.694 8.629 8.629 0 0 0 5.371-1.827 10.776 10.776 0 0 0 3.021-3.596c.338-.676.59-1.392.749-2.131a11.306 11.306 0 0 0 3.277-4.603 36 36 0 0 0 1.68-5.697l-1.266-.296 1.266.296c.289-1.225.436-2.48.44-3.739a11.857 11.857 0 0 0-1.921-6.756 9.418 9.418 0 0 0-3.551-3.086c-.026-.104-.05-.214-.076-.316a50.113 50.113 0 0 0-.818-2.836 26.844 26.844 0 0 0-.338-.995 7.445 7.445 0 0 0-.269-.666 7.477 7.477 0 0 0-1.125-1.725 7.2 7.2 0 0 0-2.204-1.659 60.972 60.972 0 0 0-3.249-1.527 26.49 26.49 0 0 0-2.54-.954 1.252 1.252 0 0 0-.038-.395l-1.045-3.45a36.761 36.761 0 0 0 13.204-15.168 37.19 37.19 0 0 0 4.122-6.06 17.52 17.52 0 0 0 1.169-.22 9.875 9.875 0 0 0 4.135-1.837 6.473 6.473 0 0 0 1.348-1.734 19.338 19.338 0 0 0 1.641-4.043c.522-1.801.89-3.643 1.102-5.507.168-1.42.254-2.847.257-4.276a24.77 24.77 0 0 0-.325-4.204 8.789 8.789 0 0 0-1.012-3.042 6.953 6.953 0 0 0-2.112-2.085c-.014-.01-.028-.016-.041-.025a8.346 8.346 0 0 0 1.651-2.86 23.51 23.51 0 0 0 1.145-5.745Zm-132.364-.244c-.932-9.864-2.461-27.748-2.788-32.73a7.552 7.552 0 0 1-.017-.507c-.011-.5.06-.999.21-1.476.13-.432.401-.808.77-1.068a2.72 2.72 0 0 1 1.257-.425h.001c.13-.015.26-.022.392-.022a2.506 2.506 0 0 1 1.694.578c.607.61.953 1.43.965 2.29.306 3.169 1.155 13.339 1.926 22.699a15056.474 15056.474 0 0 1 1.437 17.593c-.787.187-1.56.426-2.315.716-.197.077-.406.178-.61.267a3.542 3.542 0 0 1-1.487-1.71 18.015 18.015 0 0 1-1.435-6.205Zm6.504 33.018a7.2 7.2 0 0 1-2.821-1.235 4.123 4.123 0 0 1-.773-1.041 16.833 16.833 0 0 1-1.403-3.487c-.48-1.66-.82-3.357-1.014-5.074a34.547 34.547 0 0 1-.24-3.976 22.202 22.202 0 0 1 .286-3.754c.097-.74.321-1.459.662-2.123.35-.519.805-.957 1.337-1.285.894-.56 1.86-.996 2.871-1.296.21-.066.404-.12.581-.169a91.077 91.077 0 0 0-.227 6.486 71.425 71.425 0 0 0 1.885 17.182 14.37 14.37 0 0 1-1.144-.228Zm30.49 27.309c-11.123-3.539-18.177-9.377-22.563-16.911-4.382-7.538-6.07-16.875-6.068-27.352A68.506 68.506 0 0 1 46 45.932c2.69-8.959 7.684-16.453 16.233-21.81 8.553-5.35 20.762-8.551 37.87-8.55 11.401-.001 20.635 1.421 28.052 3.955 11.125 3.812 18.169 10.06 22.546 17.96a40.431 40.431 0 0 1 2.144 4.54 37.135 37.135 0 0 0-44.682-7.138 126.3 126.3 0 0 0-8.06-.25c-9.66 0-17.52.96-23.903 2.726-9.57 2.64-15.853 7.148-19.656 12.887-3.806 5.735-5.106 12.573-5.106 19.783a40.57 40.57 0 0 0 2.115 13.71 27.057 27.057 0 0 0 5.159 8.836c3.504 3.989 8.473 7.214 15.235 9.423 6.767 2.211 15.335 3.426 26.156 3.427 6.157.06 12.308-.438 18.376-1.489a37.09 37.09 0 0 0 13.9.159c.006.022 0 .043.006.065l1.081 3.568c-8.191 3.617-19.072 5.68-33.363 5.679-11.36 0-20.58-1.298-27.994-3.65ZM85.263 40.05a1.3 1.3 0 0 1-1.054 1.507 44.05 44.05 0 0 0-12.561 3.98 1.3 1.3 0 1 1-1.191-2.312 46.617 46.617 0 0 1 13.3-4.229 1.3 1.3 0 0 1 1.506 1.054Zm-19.22 9.319c-.861.78-1.66 1.63-2.386 2.538a1.302 1.302 0 0 1-2.154-.183 1.3 1.3 0 0 1 .122-1.44 24.383 24.383 0 0 1 2.671-2.84 1.299 1.299 0 0 1 2.18 1.023 1.302 1.302 0 0 1-.432.902Zm31.152 43.194a5.49 5.49 0 0 0-1.43.773c-.463.34-.866.756-1.191 1.23l-.003-.001a2.499 2.499 0 0 1-4.314-2.52 8.685 8.685 0 0 1 1.282-1.633 10.669 10.669 0 0 1 3.403-2.315 37.28 37.28 0 0 0 3.258 4.207 5.767 5.767 0 0 0-1.005.26Zm-7.61-32.933a37.253 37.253 0 0 0-.852 7.911c0 .78.032 1.553.08 2.321.087 1.405.255 2.804.5 4.19a8.617 8.617 0 0 1-1.535 1.42 7.603 7.603 0 0 1-4.082 1.396c-.137.006-.273.01-.407.01a7.343 7.343 0 0 1-4.161-1.256 9.34 9.34 0 0 1-2.84-3.167 18.538 18.538 0 0 1-2.106-9.008 21.557 21.557 0 0 1 1.18-7.169 11.81 11.81 0 0 1 3.714-5.487 7.43 7.43 0 0 1 4.078-1.546 6.654 6.654 0 0 1 4.502 1.367 10.112 10.112 0 0 1 2.763 3.372c.174.33.337.67.49 1.018a36.852 36.852 0 0 0-1.323 4.628Zm47.784 43.228 1.215 4.009c.004.014.015.024.02.037l.939 3.1a5.416 5.416 0 0 0-1.104.307 8.08 8.08 0 0 0-1.268.653l-1.13-3.729c-.004-.014-.016-.024-.021-.039l-1.1-3.631a36.582 36.582 0 0 0 2.449-.707Zm-3.107 10.327a4.833 4.833 0 0 0-1.214 1.399 3.593 3.593 0 0 0-.465 1.756 3.83 3.83 0 0 0 .439 1.748c.14.269.304.524.49.763a3.547 3.547 0 0 0-.644 2.004c.002.266.036.531.101.789-.756.015-1.508.108-2.245.277a6.295 6.295 0 0 0-3.516 2.039 15.657 15.657 0 0 0-.51-1.108 8.069 8.069 0 0 0-.908-1.41 3.648 3.648 0 0 0-1.215-.995 9.861 9.861 0 0 0-1.745-.594 66.363 66.363 0 0 0-10.296-1.385c-.843-.064-1.724-.117-2.608-.169v-2.651a83.534 83.534 0 0 0 18.957-3.407 54.896 54.896 0 0 0 5.351-2.004l.555 1.83c.053.174.143.334.263.471-.273.224-.541.446-.791.647h.001Zm-83.257 30.592a25.269 25.269 0 0 1 3.445-5.832 44.004 44.004 0 0 1 8.98-8.829c3.36-2.436 6.869-3.989 9.624-3.971a6.585 6.585 0 0 1 1.902.274c-.18.32-.355.644-.517.981a1.018 1.018 0 0 0-.122.017 6.322 6.322 0 0 0-1.825 10.907c-.022.243-.05.475-.076.712-.167.228-.335.454-.505.68a112.304 112.304 0 0 1-8.536 9.834 16.27 16.27 0 0 0-.631-.312 5.77 5.77 0 0 0-5.816-3.315 5.778 5.778 0 0 0-5.04 4.406 4.275 4.275 0 0 1-.905-1.114 4.474 4.474 0 0 1-.513-1.951l-.003-.133a6.9 6.9 0 0 1 .538-2.354Zm16.818 25.476a1.61 1.61 0 0 1-.209-.775 1.273 1.273 0 0 1 .286-.813c.064.028.13.068.194.093a5.825 5.825 0 0 0 2.093.386c.055 0 .088-.002.133-.003.026.779.056 1.548.093 2.309a1.059 1.059 0 0 0-.16-.015v-.002c-.007 0-.066.005-.16.005-.391 0-.78-.071-1.146-.208a2.098 2.098 0 0 1-1.124-.977Zm2.434-3.71-.07.001c-.392 0-.78-.071-1.147-.208a2.096 2.096 0 0 1-1.125-.977 1.607 1.607 0 0 1-.208-.775c-.005-.331.12-.651.347-.891a1.33 1.33 0 0 1 1.001-.38c.276.004.549.052.81.141.122.033.248.048.375.043 0 .173-.005.346-.005.518 0 .849.01 1.69.022 2.528Zm.253-11.848c-1.65-1.35-3.245-2.653-4.862-3.758 1.404-1.468 3.632-3.848 5.92-6.608-.493 3.242-.843 6.755-1.058 10.366Zm-4.614 18.279c-.014.002-.027-.003-.041 0a6.321 6.321 0 0 1-1.35.158 5.77 5.77 0 0 1-3.295-1.129 22.799 22.799 0 0 1-5.031-5.081c-3.11-3.996-4.477-7.558-4.465-10.172a5.507 5.507 0 0 1 3.347-5.305 6.993 6.993 0 0 1 3.06-.734 9.806 9.806 0 0 1 5.071 1.718 54.666 54.666 0 0 1 5.707 4.307c.385.315.757.641 1.112.972.102.087.216.158.34.209-.037.988-.065 1.976-.084 2.965a5.059 5.059 0 0 0-1.212-.169 3.93 3.93 0 0 0-1.551.291c-.493.2-.94.498-1.314.876a3.868 3.868 0 0 0-1.083 2.704c.003.709.184 1.405.528 2.025v.001c.084.139.176.274.275.403a3.864 3.864 0 0 0-.896 2.465c.003.709.185 1.405.529 2.025.174.315.386.609.63.875-.11.19-.202.39-.277.596Zm4.702 3.165a2.938 2.938 0 0 1-1.062-.186 2.06 2.06 0 0 1-.976-.772 1.568 1.568 0 0 1-.296-.896c.002-.177.041-.351.114-.512.556.17 1.134.26 1.716.265.141.001.283-.005.424-.019.014-.001.024-.01.038-.012.048.723.102 1.432.161 2.127-.041.001-.072.005-.12.005Zm58.929-2.179a28.517 28.517 0 0 1-4.555 1.109 84.337 84.337 0 0 1-4.841.695l-.063.005a18.33 18.33 0 0 1-1.96.105c-4.497.003-8.392-1.641-12.339-3.398-1.971-.874-3.948-1.771-6.016-2.459a20.609 20.609 0 0 0-6.543-1.163 19.105 19.105 0 0 0-10.161 3.074c-1.267.74-2.387 1.444-3.444 1.936a7.17 7.17 0 0 1-3.094.783c-.194 0-.394-.014-.598-.034a47.653 47.653 0 0 1-.71-.115l-.047-.008a34.716 34.716 0 0 1-1.999-.577 147.47 147.47 0 0 1-.322-9.898c-.075-7.512.54-15.015 1.838-22.415.325-1.951.535-3.92.628-5.895.061-1.68.276-3.35.642-4.99a13.846 13.846 0 0 1 2.28-4.577 10.88 10.88 0 0 1 3.125-2.871 8.422 8.422 0 0 1 2.25-.703c1.661-.314 3.338-.53 5.024-.648.054.075.116.144.185.207a18.055 18.055 0 0 0 11.872 4.36 20.796 20.796 0 0 0 7.17-1.3 15.745 15.745 0 0 0 4.965-2.835c.074-.069.14-.148.195-.233.366.03.736.058 1.091.09 2.29.203 4.339.45 5.973.729.817.14 1.53.287 2.109.436.437.103.864.245 1.275.425.129.08.242.184.331.306a8.771 8.771 0 0 1 1.19 2.262c.048.122.096.257.143.386-.192.12-.365.269-.513.441a3.628 3.628 0 0 0-.734 1.564 8.194 8.194 0 0 0-.19 1.847c.009 1.032.129 2.059.359 3.065.28 1.34.769 2.628 1.45 3.816.285.491.644.936 1.063 1.318.214.19.454.348.712.471.237.105.489.17.747.192a231.796 231.796 0 0 1 2.465 33.404c0 .22-.003.436-.003.655-.301.177-.62.324-.95.438Zm18.061-24.381a6.033 6.033 0 0 1-3.758 1.266 7.737 7.737 0 0 1-6.312-3.576c-1.08-1.557-3.366-4.748-5.374-8.285a40.75 40.75 0 0 1-2.6-5.355 13.67 13.67 0 0 1-1.06-4.65 3.686 3.686 0 0 1 .618-2.256 3.615 3.615 0 0 1 2.215-1.271 8.454 8.454 0 0 1 1.947-.224 9.036 9.036 0 0 1 1.682.163c.061.047.119.094.182.14a3.34 3.34 0 0 0-.045.435 4.328 4.328 0 0 0 1.257 2.953c.195.202.41.386.641.547a29.373 29.373 0 0 0-.328 4.424 19.443 19.443 0 0 0 1.854 8.923c.136.256.294.502.451.748a5.792 5.792 0 0 0 5.549 5.53 5.78 5.78 0 0 0 2.778-.585c.151-.076.286-.181.396-.308.11-.128.194-.277.247-.437a9.982 9.982 0 0 0 1.585-.242 8.667 8.667 0 0 1-1.925 2.06Zm6.717-23.009a9.288 9.288 0 0 1 1.463 5.282 13.949 13.949 0 0 1-.372 3.147 24.531 24.531 0 0 1-2.313 6.824 7.07 7.07 0 0 1-2.092 2.307 6.394 6.394 0 0 1-3.25 1.038h.001c-.252.017-.495.025-.729.024a7.091 7.091 0 0 1-3.902-1.013 6.343 6.343 0 0 1-1.842-1.814 11.18 11.18 0 0 1-1.585-3.979 21.968 21.968 0 0 1-.431-4.496 27.4 27.4 0 0 1 .227-3.541c.149.012.298.022.452.021.031 0 .065-.007.096-.007l1.981 6.427c.091.293.282.545.54.711.277.171.569.318.871.439a5.451 5.451 0 0 0 2.034.426 3.913 3.913 0 0 0 2.199-.651 4.472 4.472 0 0 0 1.357-1.483 5.794 5.794 0 0 0 5.321-5.368 5.795 5.795 0 0 0-.449-2.681 19.71 19.71 0 0 0-.223-2.402c.234.247.45.511.646.789Zm-8.312 5.753c.006.013.017.021.023.034l.784 2.508a1.93 1.93 0 0 1-.59.688 1.306 1.306 0 0 1-.756.213 2.93 2.93 0 0 1-1.052-.233l-.069-.031-1.732-5.619 2.116-.513 1.276 2.953Zm-2.201-17.648a59.086 59.086 0 0 1 3.109 1.462 4.615 4.615 0 0 1 1.423 1.059c.296.344.543.728.734 1.14.007.013.081.187.163.416a44.853 44.853 0 0 1 1.277 4.374 25.07 25.07 0 0 1 .8 5.336 6.28 6.28 0 0 1-.067.978 3.443 3.443 0 0 1-.788 1.773 1.348 1.348 0 0 1-.968.509 1.099 1.099 0 0 1-.567-.172 2.574 2.574 0 0 1-.715-.692l-1.524-3.525a1.302 1.302 0 0 0-1.5-.748l-4.191 1.016c-.033.008-.056.03-.087.04a4.307 4.307 0 0 1-.959.129 2.297 2.297 0 0 1-1.726-.662 1.759 1.759 0 0 1-.523-1.142.574.574 0 0 1 .013-.137c.51-.214 1.031-.4 1.56-.558 1.055-.33 2.319-.67 3.312-.925.497-.127.927-.234 1.232-.308l.481-.117a1.298 1.298 0 0 0-.596-2.53c-.008.002-1.32.311-2.857.724a62.14 62.14 0 0 0-2.348.674c-.613.186-1.215.404-1.805.654a3.7 3.7 0 0 1-1.008-.991 1.104 1.104 0 0 1-.199-.597c.01-.245.107-.48.273-.661.127-.157.288-.283.471-.368h.001c.22-.07.772-.217 1.426-.382a262.11 262.11 0 0 1 3.248-.791c1.007-.24 1.762-.416 1.764-.416a1.302 1.302 0 0 0 .971-1.562 1.3 1.3 0 0 0-1.562-.97c-.002 0-1.354.316-2.852.676-.749.181-1.533.372-2.206.542a42.67 42.67 0 0 0-1.406.374 2.35 2.35 0 0 1-.259-.394 1.224 1.224 0 0 1-.154-.563.981.981 0 0 1 .138-.492 2.24 2.24 0 0 1 .57-.637c.82-.661 1.64-1.376 2.416-1.889a6.034 6.034 0 0 1 1.091-.594c.278-.119.576-.184.879-.193.101 0 .202.01.301.03 1.104.268 2.18.64 3.214 1.11Zm-3.395-9.787-.582-1.923a37.044 37.044 0 0 0 6.977-3.737 34.783 34.783 0 0 1-6.395 5.66Zm9.899-11.924a34.54 34.54 0 1 1 10.116-24.423 34.432 34.432 0 0 1-10.116 24.423Zm14.99-28.077c.202 1.242.297 2.498.286 3.755a34.518 34.518 0 0 1-.239 3.975 28.966 28.966 0 0 1-1.465 6.447c-.259.73-.578 1.437-.953 2.114a4.117 4.117 0 0 1-.772 1.041 6.301 6.301 0 0 1-2.178 1.062 37.22 37.22 0 0 0 2.254-22.391c.389.18.765.39 1.123.625.51.323.946.748 1.282 1.249.341.664.565 1.383.662 2.123Zm-1.823-8.362c-.214.436-.5.833-.846 1.175-.138.129-.288.243-.449.341a17.985 17.985 0 0 0-.746-.262 36.854 36.854 0 0 0-1.994-5.165l.03-.364c.809-9.93 2.487-30.415 2.947-35.174a3.31 3.31 0 0 1 .965-2.29 2.505 2.505 0 0 1 1.694-.578c.131 0 .262.007.392.021h.001a2.421 2.421 0 0 1 1.557.683c.213.233.373.51.47.81.15.478.221.977.21 1.477 0 .16-.006.328-.017.507-.326 4.982-1.855 22.866-2.788 32.73-.096 2.1-.58 4.164-1.426 6.089Z"/><path fill="#191C22" d="M125.87 35.068a32.474 32.474 0 1 0 0 64.947 32.474 32.474 0 0 0 0-64.947ZM106.973 62.24c-2.288-1.913-1.865-6.186.944-9.547 2.809-3.36 6.94-4.534 9.228-2.62 2.288 1.911 1.865 6.186-.944 9.546-2.808 3.36-6.94 4.533-9.228 2.621Zm14.72 2.874c-1.204 1.447-3.061 1.889-4.149.984s-.994-2.81.209-4.26c1.204-1.447 3.062-1.888 4.15-.983 1.087.904.994 2.811-.21 4.26Zm24.123 21.657c-1.161-.808-1.23-2.715-.155-4.261 1.076-1.545 2.889-2.143 4.05-1.335 1.161.808 1.231 2.716.155 4.261-1.075 1.545-2.889 2.143-4.05 1.335Z"/><path fill="#FFD93A" d="M140.675 41.82c.097-.008.193-.027.286-.057a29.707 29.707 0 0 0-5.587-2.542h-19.007a29.679 29.679 0 0 0-5.521 2.504c.15.061.31.094.473.096h29.356ZM147.121 47.237c.185-.001.369-.043.536-.123-.219-.234-.437-.47-.664-.696a29.692 29.692 0 0 0-1.951-1.78h-38.344a30.211 30.211 0 0 0-1.951 1.78c-.199.199-.39.407-.583.611.197.13.427.202.664.208h42.293ZM147.742 53.089a1.3 1.3 0 0 0 0-2.6h-30.176a4.486 4.486 0 0 1 1.028 2.6h29.148ZM110.396 50.489h-6.198a1.301 1.301 0 0 0 0 2.6h3.411c.102-.132.2-.266.309-.396a11.09 11.09 0 0 1 2.478-2.204ZM105.889 56.34h-1.759a1.3 1.3 0 1 0 0 2.6h1.382a7.697 7.697 0 0 1 .377-2.6ZM147.809 58.94a1.302 1.302 0 0 0 .92-2.219 1.302 1.302 0 0 0-.92-.38h-29.698c-.34.926-.806 1.8-1.384 2.6h31.082ZM121.922 64.792h25.387a1.298 1.298 0 0 0 1.3-1.3 1.3 1.3 0 0 0-1.3-1.3h-24.684a3.686 3.686 0 0 1-.703 2.6ZM106.973 62.24c-.017-.015-.032-.033-.049-.048h-2.29a1.3 1.3 0 0 0 0 2.6h12.195c-.114-.92.127-1.85.673-2.6h-4.399c-2.236 1.22-4.597 1.33-6.13.048ZM146.17 68.044h-40.382a1.3 1.3 0 0 0 0 2.6h40.382a1.298 1.298 0 0 0 1.3-1.3 1.3 1.3 0 0 0-1.3-1.3ZM144.192 73.895h-36.433a1.3 1.3 0 1 0 0 2.6h36.433a1.298 1.298 0 0 0 1.3-1.3 1.3 1.3 0 0 0-1.3-1.3ZM140.916 79.746h-29.903a1.298 1.298 0 0 0-1.3 1.3 1.3 1.3 0 0 0 1.3 1.3h29.903a1.301 1.301 0 0 0 0-2.6ZM134.46 85.597h-17.121a1.3 1.3 0 0 0 0 2.6h17.121a1.298 1.298 0 0 0 1.3-1.3 1.3 1.3 0 0 0-1.3-1.3Z"/></svg>