<svg xmlns="http://www.w3.org/2000/svg" width="200" height="200" fill="none"><g fill="#BEBEC9"><path d="M123.47 104.593a7.367 7.367 0 0 0 2.172.719c.377.059.757-.049 1.047-.297.289-.247.455-.607.455-.987-.001-1.294-.287-2.337-.9-3.11a2.985 2.985 0 0 0-1.095-.859 2.966 2.966 0 0 0-1.23-.263 3.202 3.202 0 0 0-1.712.498 2.771 2.771 0 0 0-.671.596 2.223 2.223 0 0 0-.441.911c-.081.377.011.773.249 1.076.612.778 1.373 1.328 2.126 1.716ZM93.192 86.027c-.913.004-1.87.332-2.922.981a1.295 1.295 0 0 0-.608.97c-.041.402.103.796.395 1.076a7.368 7.368 0 0 0 1.89 1.289c.764.363 1.663.634 2.652.65.385.005.757-.163 1.007-.456.419-.501.558-1.071.562-1.613a2.922 2.922 0 0 0-.738-1.942c-.505-.58-1.338-.966-2.238-.955ZM110.823 109.794c-1.41-.66-2.13-1.502-2.574-2.375-.437-.872-.56-1.809-.559-2.535a6.479 6.479 0 0 1 .098-1.114l.01-.049a1.3 1.3 0 0 0-2.231-1.174h-.001c-.056.061-.551.564-1.407 1.037a7.407 7.407 0 0 1-3.617.921 8.983 8.983 0 0 1-2.35-.325 1.3 1.3 0 1 0-.679 2.51c1.08.291 2.095.415 3.029.415 1.92.001 3.483-.522 4.626-1.113.097.794.305 1.682.755 2.587.668 1.356 1.891 2.695 3.808 3.575a1.3 1.3 0 0 0 1.092-2.36Z"/><path d="M191.6 100.3C191.599 49.876 150.724 9 100.3 9S9 49.876 9 100.3c0 50.423 40.875 91.299 91.3 91.3 6.197 0 12.249-.621 18.099-1.798.251.024.491-.032.711-.146 41.398-8.672 72.489-45.381 72.49-89.356Zm-13.502 42.631c-3.949-5.567-10.471-10.934-17.681-15.696-4.611-3.037-9.494-5.8-14.166-8.16a431.456 431.456 0 0 0 2.021-7.109c8.211 3.487 15.653 7.261 21.592 10.517a246.056 246.056 0 0 1 10.378 6.013 166.806 166.806 0 0 1 3.426 2.16 88.146 88.146 0 0 1-5.57 12.275ZM163.02 37.579C179.074 53.635 188.999 75.802 189 100.3a88.6 88.6 0 0 1-4.458 27.825c-3.705-2.381-17.849-11.198-35.582-18.691 2.894-10.797 4.241-17.648 4.524-19.144.798-1.015 1.641-2.357 2.512-3.88 2.837-4.974 5.828-11.654 5.838-11.673a1.305 1.305 0 0 0-.1-1.246 1.304 1.304 0 0 0-1.106-.586c-7.069.106-14.887 1.19-20.96 2.244a199.538 199.538 0 0 0-9.908 1.971c-4.802-2.724-10.778-5.587-15.633-7.804a352.104 352.104 0 0 0-8.347-3.682c-6.153-13-13.579-23.433-13.603-23.47a1.299 1.299 0 0 0-2.306.383l-.022.072c-.195.649-1.8 5.579-4.793 10.284V12.91A89.285 89.285 0 0 1 100.3 11.6c24.498.002 46.665 9.927 62.72 25.98ZM11.6 100.3c0-24.498 9.926-46.665 25.98-62.72a88.788 88.788 0 0 1 30.97-20.122V180.34a1.3 1.3 0 1 0 2.6 0V16.507a88.023 88.023 0 0 1 11.306-3.112v173.809c-17.336-3.54-32.827-12.136-44.877-24.184-16.053-16.056-25.978-38.222-25.979-62.72Zm73.456 87.39V57.33c.04-.04.091-.062.127-.108 3.186-4.029 5.246-8.669 6.31-11.449 2.467 3.7 7.693 11.91 12.149 21.417a1.3 1.3 0 0 0 .674.648c.001 0 .232.097.662.28 3.005 1.278 15.637 6.738 23.938 11.51.288.165.626.214.949.137.001 0 .259-.062.75-.173 3.237-.734 16.442-3.563 27.977-4.028a181.585 181.585 0 0 1-2.802 5.74 91.322 91.322 0 0 1-2.392 4.406c-.786 1.345-1.547 2.503-2.134 3.205-.145.174-.24.378-.28.602l-.091.483c-.339 1.768-1.66 8.326-4.357 18.428a188.157 188.157 0 0 0-9.389-3.549 1.3 1.3 0 1 0-.852 2.457 184.765 184.765 0 0 1 9.556 3.619 407.822 407.822 0 0 1-1.968 6.951 132.82 132.82 0 0 0-7.076-3.185 1.3 1.3 0 0 0-.99 2.404c2.279.938 4.756 2.06 7.318 3.306a449.522 449.522 0 0 1-1.442 4.731c-3.654-2.871-7.401-5.557-11.018-7.879a1.3 1.3 0 1 0-1.404 2.188c3.793 2.435 7.751 5.297 11.587 8.351-5.185 16.337-12.686 36.859-23.206 59.476A89.107 89.107 0 0 1 100.3 189a89.243 89.243 0 0 1-15.244-1.31Zm35.786-1.086c9.935-21.582 17.124-41.194 22.186-57.024a142.734 142.734 0 0 1 6.507 5.698c6.174 5.759 11.213 11.65 13.421 16.186a1.3 1.3 0 0 0 2.335-1.142c-2.495-5.076-7.681-11.046-13.981-16.944a146.344 146.344 0 0 0-7.435-6.476 451.56 451.56 0 0 0 1.623-5.292c4.465 2.273 9.114 4.913 13.488 7.797 7.528 4.949 14.212 10.622 17.675 16.037a89.098 89.098 0 0 1-13.641 17.576c-11.42 11.419-25.934 19.733-42.178 23.584Z"/><path d="M47.682 79.705c-.61 0-1.21.056-1.795.166-.116.021-.214.078-.316.127-2.154-1.748-4.78-2.799-7.623-2.798-3.829-.002-7.264 1.898-9.68 4.847-2.425 2.953-3.889 6.97-3.89 11.381.001 4.411 1.465 8.429 3.89 11.382 2.416 2.949 5.851 4.848 9.68 4.846 2.827.002 5.437-1.039 7.584-2.769.043.014.077.044.123.053a9.85 9.85 0 0 0 2.027.212c3.26.001 6.18-1.618 8.225-4.114 2.051-2.499 3.284-5.89 3.286-9.61-.002-3.72-1.235-7.11-3.286-9.61-2.045-2.495-4.965-4.115-8.225-4.113ZM30.276 103.16c-2.016-2.451-3.3-5.898-3.298-9.731-.002-3.833 1.282-7.28 3.298-9.73 2.024-2.454 4.723-3.896 7.671-3.898 2.95.002 5.649 1.444 7.673 3.898 2.016 2.45 3.3 5.897 3.298 9.73.002 3.834-1.282 7.28-3.298 9.731-2.024 2.454-4.724 3.896-7.672 3.898-2.949-.002-5.648-1.444-7.672-3.898Zm23.622-1.772c-1.617 1.96-3.748 3.107-6.07 3.156 2.3-2.927 3.689-6.83 3.69-11.115-.001-4.284-1.39-8.187-3.69-11.114 2.323.049 4.453 1.196 6.07 3.155 1.644 1.997 2.696 4.818 2.695 7.959.001 3.142-1.051 5.962-2.695 7.959Z"/></g></svg>