<svg width="320" height="200" viewBox="0 0 320 200" xmlns="http://www.w3.org/2000/svg"><g id="type=sim, mode=light" clip-path="url(#clip0_1405_4272)"><g id="b"><g id="Group"><path id="Vector" d="M42.4004 98.86L52.0904 75.73L72.3204 66.55L126.12 86.55L123.48 93.11C123.48 93.11 118.97 91.83 117.84 93.03C116.7 94.23 116.83 96.58 116.83 96.58C116.83 96.58 114.92 97.55 114.88 98.76C114.84 99.97 114.88 101.47 114.47 102.33C114.06 103.19 113.69 105.42 114.48 106.85C115.27 108.28 116.5 110.36 116.5 110.36L109.34 127.15L42.4004 98.85V98.86Z"/><g id="Group_2"><path id="Vector_2" d="M149.131 184.91C148.411 184.91 147.831 184.33 147.831 183.61C147.811 166.69 149.091 143.64 151.021 126.23C151.101 125.52 151.741 125 152.461 125.08C153.171 125.16 153.691 125.8 153.611 126.52C151.691 143.83 150.411 166.78 150.431 183.61C150.431 184.33 149.851 184.91 149.131 184.91Z"/><path id="Vector_3" d="M260.221 181.29C260.221 181.29 260.171 181.29 260.151 181.29C259.431 181.25 258.881 180.64 258.931 179.92C259.131 176.45 258.421 168.62 256.831 156.65C256.741 155.94 257.241 155.28 257.951 155.19C258.661 155.09 259.321 155.6 259.411 156.31C261.051 168.61 261.741 176.38 261.531 180.07C261.491 180.76 260.921 181.3 260.231 181.3L260.221 181.29Z"/><path id="Vector_4" d="M255.081 136.9C254.451 136.9 253.901 136.44 253.801 135.8C247.221 92.99 236.311 33.75 234.221 22.5C230.851 25.04 222.171 32.51 214.451 39.38C214.111 39.68 213.641 39.78 213.201 39.65C194.771 33.92 182.681 35.94 182.561 35.96C182.101 36.04 181.631 35.87 181.331 35.5L169.581 21.19C161.951 51.73 156.931 91.1 155.541 102.68C155.451 103.39 154.811 103.89 154.091 103.82C153.381 103.73 152.871 103.09 152.951 102.37C154.381 90.43 159.661 49.07 167.681 18.06C167.801 17.59 168.181 17.22 168.661 17.12C169.141 17.02 169.631 17.19 169.941 17.56L182.861 33.29C185.821 32.92 197.031 32.03 213.251 36.95C219.491 31.4 232.831 19.69 234.781 19.13C235.131 19.03 235.511 19.08 235.821 19.27C236.131 19.46 236.351 19.78 236.411 20.14C236.541 20.81 249.081 88.12 256.351 135.4C256.461 136.11 255.971 136.77 255.261 136.88C255.191 136.89 255.131 136.9 255.061 136.9H255.081Z"/><path id="Vector_5" d="M168.281 60.87C168.061 60.87 167.841 60.84 167.611 60.79C166.751 60.66 166.051 59.78 165.961 58.62C165.861 57.35 166.571 55.81 168.361 55.15C168.611 54.98 169.031 54.73 169.431 54.6C169.561 54.56 169.701 54.55 169.841 54.54C170.411 54.54 170.911 54.89 171.171 55.44C171.631 56.43 171.381 58.61 170.381 59.83C169.831 60.51 169.081 60.87 168.271 60.87H168.281Z"/><path id="Vector_6" d="M178.771 77.1401C178.631 77.1401 178.481 77.1201 178.341 77.0701C175.991 76.2501 174.531 73.7401 173.791 72.0701C172.881 72.4701 171.571 72.8401 169.821 72.8701C169.121 72.9101 168.511 72.3101 168.501 71.5901C168.491 70.8701 169.061 70.2801 169.781 70.2701C172.361 70.2201 173.561 69.2401 173.611 69.1901C173.941 68.9101 174.401 68.8101 174.821 68.9301C175.241 69.0501 175.581 69.3701 175.701 69.7901C176.041 70.9101 177.341 73.9601 179.201 74.6101C179.881 74.8501 180.231 75.5901 180.001 76.2701C179.811 76.8101 179.311 77.1401 178.771 77.1401Z"/><path id="Vector_7" d="M196.051 72.28C195.581 72.28 195.141 72.12 194.801 71.8C193.911 71.03 193.571 69.94 193.861 68.82C194.261 67.3 195.811 65.89 196.881 65.69C197.381 65.59 197.851 65.72 198.191 66.03C198.551 66.32 198.861 66.86 198.781 67.86C199.341 69.61 198.501 71.14 197.421 71.85C196.981 72.14 196.501 72.29 196.051 72.29V72.28Z"/><path id="Vector_8" d="M266.911 98.5601C266.671 98.5601 266.421 98.4901 266.201 98.3501C265.911 98.1601 237.151 79.4501 217.481 76.6001C216.771 76.5001 216.281 75.8401 216.381 75.1301C216.481 74.4201 217.141 73.9201 217.851 74.0301C238.091 76.9601 266.431 95.3901 267.621 96.1701C268.221 96.5601 268.391 97.3701 268.001 97.9701C267.751 98.3501 267.331 98.5601 266.911 98.5601Z"/><path id="Vector_9" d="M249.781 107.15C249.371 107.15 248.961 106.95 248.711 106.59C243.911 99.6401 220.691 83.9101 207.171 81.2701C206.471 81.1301 206.011 80.4501 206.141 79.7401C206.281 79.0301 206.971 78.5801 207.671 78.7101C221.041 81.3301 245.191 96.9101 250.851 105.11C251.261 105.7 251.111 106.51 250.521 106.92C250.291 107.08 250.041 107.15 249.781 107.15Z"/><path id="Vector_10" d="M243.771 118.89C243.331 118.89 242.911 118.67 242.661 118.27C236.041 107.47 217.491 93.96 208.221 90.12C207.561 89.85 207.241 89.08 207.521 88.42C207.791 87.76 208.561 87.44 209.221 87.72C218.801 91.69 238.001 105.7 244.881 116.91C245.261 117.52 245.061 118.32 244.451 118.7C244.241 118.83 244.001 118.89 243.771 118.89Z"/><path id="Vector_11" d="M234.211 173.48C233.641 173.48 233.111 173.1 232.961 172.52C232.771 171.83 233.181 171.11 233.871 170.92C246.421 167.51 262.331 149.96 267.651 142.47C272.241 135.62 274.341 126.95 272.301 123.18C271.621 121.91 270.461 121.3 268.841 121.33C265.741 121.36 262.011 127.45 258.051 133.9C252.581 142.81 245.771 153.9 235.691 158.72C235.041 159.03 234.271 158.76 233.961 158.11C233.651 157.46 233.921 156.69 234.571 156.38C243.951 151.89 250.541 141.16 255.841 132.54C260.561 124.85 264.291 118.78 268.821 118.73C271.421 118.7 273.451 119.81 274.601 121.95C277.491 127.29 274.281 137.28 269.801 143.96C264.051 152.03 247.911 169.81 234.561 173.44C234.451 173.47 234.331 173.49 234.221 173.49L234.211 173.48Z"/><path id="Vector_12" d="M125.711 70.36C125.141 70.36 124.621 69.98 124.461 69.41C124.271 68.72 124.671 68 125.361 67.81C135.861 64.87 146.711 63.14 157.601 62.66C158.321 62.63 158.921 63.18 158.961 63.9C158.991 64.62 158.441 65.22 157.721 65.26C147.031 65.73 136.381 67.43 126.071 70.31C125.951 70.34 125.831 70.36 125.721 70.36H125.711Z"/><path id="Vector_13" d="M124.851 79.9101C124.301 79.9101 123.791 79.5601 123.611 79.0101C123.391 78.3301 123.771 77.5901 124.451 77.3701C135.111 73.9301 146.081 71.0701 157.061 68.8501C157.761 68.7101 158.451 69.1601 158.591 69.8701C158.731 70.5801 158.281 71.2601 157.571 71.4001C146.691 73.6001 135.811 76.4401 125.241 79.8501C125.111 79.8901 124.971 79.9101 124.841 79.9101H124.851Z"/><path id="Vector_14" d="M132.281 88.31C131.831 88.31 131.391 88.07 131.151 87.65C130.801 87.03 131.011 86.23 131.641 85.88C139.651 81.33 148.051 77.3 156.611 73.88C157.281 73.61 158.031 73.94 158.301 74.61C158.571 75.28 158.241 76.03 157.571 76.3C149.131 79.67 140.831 83.65 132.921 88.14C132.721 88.25 132.501 88.31 132.281 88.31Z"/><path id="Vector_15" d="M157.691 127.01C139.181 127.01 119.761 117.75 114.561 108.04C114.071 107.08 113.481 105.76 113.211 103.91C113.041 102.75 113.551 101.8 114.131 101.16C113.961 100.76 113.801 100.19 113.891 99.4501C114.091 97.8801 115.131 97.1501 115.761 96.7101L115.781 96.6901C115.531 95.9301 115.211 94.5501 116.371 93.3901C119.181 90.5801 122.591 91.9101 130.061 94.8301C148.211 101.85 162.151 104.01 171.481 101.25C172.171 101.04 172.891 101.44 173.091 102.13C173.291 102.82 172.901 103.54 172.211 103.74C162.321 106.66 147.821 104.48 129.111 97.2501C121.571 94.3101 119.661 93.7601 118.211 95.2201C118.121 95.3101 118.081 95.4001 118.311 96.0601C118.471 96.5201 118.721 97.2201 118.271 97.8901C117.981 98.3201 117.591 98.5901 117.241 98.8301C116.701 99.2101 116.511 99.3701 116.461 99.7601C116.431 99.9601 116.481 100.07 116.611 100.35C116.771 100.67 117.001 101.16 116.891 101.79C116.831 102.15 116.621 102.46 116.311 102.66C116.311 102.66 115.711 103.09 115.771 103.53C115.991 105 116.441 106.03 116.851 106.84C122.341 117.09 146.491 127.12 165.801 123.74C166.511 123.62 167.181 124.09 167.301 124.8C167.421 125.51 166.951 126.18 166.241 126.3C163.441 126.79 160.561 127.02 157.661 127.02L157.691 127.01Z"/></g><path id="Vector_16" d="M109.761 129.31C109.591 129.31 109.421 129.28 109.261 129.21L83.7505 118.47L40.9205 100.63C40.6005 100.5 40.3505 100.24 40.2205 99.92C40.0905 99.6 40.0905 99.24 40.2205 98.92L50.3605 74.79C50.4905 74.49 50.7305 74.24 51.0305 74.11L71.8005 64.82C72.1105 64.68 72.4705 64.67 72.7905 64.79L127.691 85.37C128.021 85.49 128.291 85.75 128.431 86.07C128.571 86.39 128.571 86.76 128.431 87.09L125.661 93.67C125.381 94.33 124.621 94.64 123.961 94.36C123.301 94.08 122.991 93.32 123.271 92.66L125.521 87.33L72.3905 67.42L52.5805 76.29L43.1505 98.75L84.7805 116.09L109.101 126.33L115.901 110.18C116.181 109.52 116.941 109.21 117.601 109.49C118.261 109.77 118.571 110.53 118.291 111.19L110.981 128.53C110.771 129.03 110.291 129.33 109.781 129.33L109.761 129.31Z"/><g id="Group_3"><g id="Group_4"><path id="Vector_17" d="M106.16 91.87L85.4505 83.22C83.3605 82.4 81.0805 83.37 80.2305 85.24L75.1005 97.79C74.2805 99.88 75.2405 102.16 77.1205 103.01L97.8305 111.66C99.9205 112.48 102.2 111.51 103.05 109.64L108.18 97.09C109.22 94.97 108.25 92.69 106.16 91.87Z"/><path id="Vector_18" d="M99.3805 113.26C98.7105 113.26 98.0205 113.14 97.3505 112.87L76.6205 104.2C74.0205 103.02 72.8405 100 73.9005 97.3L79.0405 84.74C80.2205 82.13 83.2505 80.95 85.9405 82.01L106.661 90.67C108.021 91.21 109.061 92.23 109.571 93.55C110.081 94.87 110.011 96.33 109.351 97.67L104.251 110.14C103.361 112.11 101.431 113.26 99.3805 113.26ZM83.9305 84.23C82.8805 84.23 81.8605 84.81 81.4205 85.78L76.3105 98.28C75.7705 99.65 76.3805 101.24 77.6605 101.83L98.3305 110.47C99.6905 111 101.281 110.4 101.871 109.12L106.981 96.62C107.351 95.87 107.391 95.15 107.141 94.51C106.891 93.87 106.381 93.37 105.691 93.1H105.661L84.9505 84.43C84.6205 84.3 84.2705 84.24 83.9205 84.24L83.9305 84.23Z"/></g><path id="Vector_19" d="M89.9509 108.82C89.0509 108.82 88.141 108.65 87.301 108.29L86.4209 107.99C84.6209 107.31 83.261 106.01 82.551 104.31C81.811 102.54 81.8509 100.56 82.6709 98.73L86.3109 89.93C86.9609 88.21 88.261 86.85 89.971 86.14C91.721 85.41 93.681 85.44 95.501 86.24L96.371 86.54C98.171 87.22 99.531 88.52 100.241 90.22C100.981 91.99 100.941 93.97 100.121 95.8L97.641 101.78L104.361 104.61C105.021 104.89 105.331 105.65 105.051 106.31C104.771 106.97 104.011 107.28 103.351 107L95.441 103.66C94.781 103.38 94.4709 102.62 94.7409 101.96L97.731 94.75C98.261 93.55 98.3009 92.29 97.8409 91.19C97.4109 90.15 96.5709 89.36 95.4909 88.95L94.611 88.65C94.611 88.65 94.541 88.62 94.501 88.61C93.331 88.09 92.071 88.05 90.971 88.51C89.931 88.94 89.141 89.78 88.731 90.86L85.0609 99.73C84.5209 100.93 84.4909 102.19 84.9509 103.29C85.3809 104.33 86.221 105.12 87.301 105.53L88.181 105.83C88.181 105.83 88.2409 105.85 88.2709 105.87C90.1609 106.69 92.141 105.94 93.261 104.84C93.771 104.34 94.591 104.34 95.101 104.86C95.601 105.37 95.601 106.2 95.081 106.7C93.681 108.08 91.801 108.81 89.941 108.81L89.9509 108.82Z"/><path id="Vector_20" d="M84.531 98.9201C84.371 98.9201 84.211 98.8901 84.051 98.8301L76.621 95.8701C75.951 95.6001 75.631 94.8501 75.891 94.1801C76.161 93.5101 76.911 93.1901 77.581 93.4501L85.011 96.4101C85.681 96.6801 86.001 97.4301 85.741 98.1001C85.541 98.6101 85.051 98.9201 84.531 98.9201Z"/><path id="Vector_21" d="M106.31 100.84C106.14 100.84 105.96 100.81 105.8 100.73L98.8101 97.71C98.1501 97.43 97.8501 96.66 98.1301 96C98.4101 95.34 99.1801 95.04 99.8401 95.32L106.83 98.34C107.49 98.62 107.79 99.39 107.51 100.05C107.3 100.54 106.82 100.84 106.32 100.84H106.31Z"/><path id="Vector_22" d="M86.7401 92.48C86.5801 92.48 86.4101 92.45 86.2601 92.39L79.3001 89.59C78.6301 89.32 78.3101 88.56 78.5801 87.9C78.8501 87.23 79.6101 86.91 80.2701 87.18L87.2301 89.98C87.9001 90.25 88.2201 91.01 87.9501 91.67C87.7501 92.18 87.2601 92.48 86.7401 92.48Z"/></g></g></g></g><defs><clipPath id="clip0_1405_4272"><rect width="320" height="200"/></clipPath></defs></svg>