<svg xmlns="http://www.w3.org/2000/svg" width="200" height="200" fill="none"><path fill="#FFD93A" d="m172.375 172.375-.667-.292a44.978 44.978 0 0 1-7.542.458c2.971-2.708 4.58-3.949 6.542-7.5.16-.038 1.055-.502 1.208-.541a1.632 1.632 0 0 0 1.084-1.792 6.274 6.274 0 0 0-.167-1.25c2.225-4.761 2.594-9.35 2.594-14.959a36.664 36.664 0 0 0-62.674-25.609 36.672 36.672 0 0 0-7.843 39.929 36.67 36.67 0 0 0 33.852 22.579 33.99 33.99 0 0 0 20.696-6.607c.484.02 1.658.125 2.167.125a58.087 58.087 0 0 0 10.541-1.041 2.11 2.11 0 0 0 1.292-2.042c-.133-.706-.378-1.592-1.083-1.458Z"/><path fill="#191C22" d="M102.233 149.555a38.602 38.602 0 0 1-.102-1.711 1.281 1.281 0 0 0 1.074-1.247c.01-1.93.177-3.857.5-5.76a1.285 1.285 0 0 0-.921-1.444c.219-1.132.49-2.244.812-3.336a1.29 1.29 0 0 0 1.539-.821 35.89 35.89 0 0 1 2.318-5.299 1.298 1.298 0 0 0-.517-1.749c-.006-.003-.009-.009-.014-.011a1.3 1.3 0 0 0-1.76.53 38.64 38.64 0 0 0-1.599 3.375c-1.014.024-2.023.056-3.049.056-15.848.005-29.758-2.676-40.374-8.025-.05.064-.1.137-.148.2a30.762 30.762 0 0 1-1.549 1.847 27.431 27.431 0 0 1-1.934 1.939c.052 1.042.142 3.297.142 6.382.018 7.394-.515 14.78-1.595 22.095 14.443-4.782 34.193-6.901 47.177-7.021Z"/><path fill="#191C22" d="M17.23 179.239a14.85 14.85 0 0 0 5.197 2.418 21.71 21.71 0 0 0 5.476.687 24.577 24.577 0 0 0 11.918-3.128 22.337 22.337 0 0 0 5.336-4.164 26.44 26.44 0 0 0 4.154-6.55 51.855 51.855 0 0 0 2.115-6.526c.009-.039.019-.076.027-.115 1.78-9.017 2.65-18.19 2.598-27.381a128.014 128.014 0 0 0-.163-6.71 14.309 14.309 0 0 0-.009-.149c-.002-.032.005-.063.006-.095a1.295 1.295 0 0 1 .107-.521c.005-.012.014-.022.02-.034.064-.131.15-.25.255-.351.03-.034.06-.065.092-.095l.011-.009.05-.042a21.656 21.656 0 0 0 1.002-.92c.902-.885 1.74-1.831 2.512-2.83a24.562 24.562 0 0 0 2.798-4.549 18.782 18.782 0 0 0 1.492-4.631c.04-.229.093-.454.125-.687a1.298 1.298 0 0 1 1.095-1.109l1.737-.261a1.307 1.307 0 0 1 .973.235 1.293 1.293 0 0 1 .494 1.365 1.292 1.292 0 0 1-.599.802 1.293 1.293 0 0 1-.481.169l-.821.124a21.314 21.314 0 0 1-1.524 4.786 24.854 24.854 0 0 1-1.077 2.119c.144.023.29.035.435.036a5.6 5.6 0 0 0 3.643-1.798 13.53 13.53 0 0 0 3.03-4.598c.378-1.099.581-2.251.601-3.413a11.112 11.112 0 0 0-1.098-4.788 9.908 9.908 0 0 0-4.012-4.213 1.29 1.29 0 0 0-.324-.205l-.087-.031c-.088-.046-.185-.086-.275-.13-.014-.076-.032-.15-.047-.225a8.308 8.308 0 0 0-2.313-.331c-.149 0-.296.016-.445.024a7.624 7.624 0 0 0-2.884.726 1.3 1.3 0 1 1-1.143-2.336 9.89 9.89 0 0 1 2.631-.838 10.56 10.56 0 0 1 1.84-.176c.439.006.877.037 1.311.095a7.258 7.258 0 0 0-2.657-2.818 9.666 9.666 0 0 0-3.665-1.202 11.448 11.448 0 0 0-.84-.03c-.195 0-.402.022-.601.03a15.096 15.096 0 0 0-5.137 1.127c-.127.048-.26.075-.396.08a1.285 1.285 0 0 1-1.033-2.191 1.3 1.3 0 0 1 .42-.285c.06-.025.122-.04.181-.065a17.559 17.559 0 0 1 4.097-1.093 8.038 8.038 0 0 0-2.242-1.122 12.748 12.748 0 0 0-3.856-.569c-.37 0-.735.015-1.094.043-1.69.132-3.345.55-4.895 1.236-.819.36-1.607.788-2.354 1.28a19.75 19.75 0 0 0-5.574 5.737l-.007-.012a10.135 10.135 0 0 1-.951-4.373 13.174 13.174 0 0 1 3.114-8.322 12.524 12.524 0 0 1 2.3-2.115 11.093 11.093 0 0 1 5.746-2.076 1.3 1.3 0 0 0-.173-2.595 13.56 13.56 0 0 0-4.845 1.258 56.87 56.87 0 0 1 5.014-15.748 54.422 54.422 0 0 1 6.406-10.309c.185-.084.348-.21.474-.37a53.713 53.713 0 0 1 6.284-6.893c.332-.303.662-.609 1.002-.905l.071-.062a64.185 64.185 0 0 1 7.625-5.686 38.928 38.928 0 0 1-.48 2.23 15.973 15.973 0 0 1-1.152 3.264 8.44 8.44 0 0 1-1.896 2.544 1.3 1.3 0 1 0 1.739 1.932c.62-.563 1.172-1.2 1.641-1.895a14.972 14.972 0 0 0 1.957-4.346c.98-3.437 1.242-7.118 2.237-10.128a10.984 10.984 0 0 1 2.105-3.92 9.075 9.075 0 0 1 4.101-2.61c1.23-.426 2.522-.65 3.824-.662 1.85.022 3.666.503 5.284 1.399 2.464 1.283 4.737 3.318 7.158 5.115a21.602 21.602 0 0 0 3.843 2.357c.672.308 1.372.553 2.09.732a9.975 9.975 0 0 0 2.772.291 1.3 1.3 0 1 0-.096-2.598 7.542 7.542 0 0 1-.275.005 8.994 8.994 0 0 1-4.533-1.374 28.245 28.245 0 0 1-3.153-2.186 63.066 63.066 0 0 1 7.925-.512c16.451-.007 32.913 7.31 45.219 18.482a67.176 67.176 0 0 1 14.827 19.156 49.078 49.078 0 0 1 5.581 22.14c0 1.387-.069 2.777-.206 4.168a31.373 31.373 0 0 1-6.264 15.963 36.391 36.391 0 0 1-2.5 2.963 37.907 37.907 0 0 0-4.043-1.982 1.286 1.286 0 0 0-1.59.54 1.24 1.24 0 0 0-.109.162 1.276 1.276 0 0 0 .103 1.153c-1.812 1.55-2.327 4.805.098 6.33 2.193 1.378 5.826-.508 6.254-2.961a1.284 1.284 0 0 0 1.176-.591c.028-.059.051-.12.068-.183a1.27 1.27 0 0 0 .074-.846c.9-.964 1.75-1.973 2.547-3.024a33.964 33.964 0 0 0 6.773-17.267c.147-1.477.22-2.952.219-4.426a51.671 51.671 0 0 0-5.862-23.314 66.795 66.795 0 0 0-8.677-12.953 18.947 18.947 0 0 0 3.087-3.282 21.047 21.047 0 0 0 4.033-12.442 20.338 20.338 0 0 0-1.88-8.615 18.242 18.242 0 0 0-5.714-6.994 19.312 19.312 0 0 0-11.509-3.675 21.01 21.01 0 0 0-16.814 8.248 18.903 18.903 0 0 0-2.557 4.794 64.594 64.594 0 0 0-22.334-4.145 66.033 66.033 0 0 0-10.781.902 45.222 45.222 0 0 0-1.04-.76 21.115 21.115 0 0 0-4.177-2.36 13.189 13.189 0 0 0-5.017-1.01c-1.509.013-3.006.261-4.438.735a21.257 21.257 0 0 0-15.262-6.404 19.31 19.31 0 0 0-11.508 3.675 18.238 18.238 0 0 0-5.714 6.994 20.338 20.338 0 0 0-1.88 8.615 21.046 21.046 0 0 0 4.032 12.443 19.014 19.014 0 0 0 2.76 3.006 56.94 56.94 0 0 0-6.279 10.24 56.06 56.06 0 0 0-5.466 18.406c.002.054.008.108.018.161a15.047 15.047 0 0 0-2.232 2.147 15.757 15.757 0 0 0-3.725 9.996 12.73 12.73 0 0 0 1.204 5.49c.252.52.542 1.02.868 1.497-.117.238-.241.472-.352.714a29.862 29.862 0 0 0-2.637 12.316c0 .45.02.901.041 1.351-7.512 11.182-11.735 20.095-14.137 27.46a67.294 67.294 0 0 0-3.26 18.209 48.7 48.7 0 0 0-.076 2.619c.003 4.193.62 7.94 2.336 10.992a12.544 12.544 0 0 0 3.438 3.932Z"/><path fill="#191C22" d="M70.342 90.087a40.618 40.618 0 0 1 6.25 5.322 26.516 26.516 0 0 1 3.556 4.556 1.305 1.305 0 0 0 1.305.62 1.314 1.314 0 0 0 .854-.51 1.306 1.306 0 0 0 .074-1.443 29.329 29.329 0 0 0-3.969-5.084A16.58 16.58 0 0 0 89.51 81.902a35.108 35.108 0 0 0 .26-16.353 64.35 64.35 0 0 1 1.54.725l.119.06a1.3 1.3 0 0 0 1.747-.574c.025-.068.044-.137.057-.208a1.283 1.283 0 0 0-.631-1.539c-.03-.015-2.911-1.47-7.237-3.103a70.921 70.921 0 0 0-15.944-4.152 1.282 1.282 0 0 0-1.007.324l-.095-.017a24.27 24.27 0 0 0-12.09 15.907 23.229 23.229 0 0 0-.44 7.694 48.991 48.991 0 0 0-2.523-.571 1.3 1.3 0 0 0-.502 2.55c.22.044.43.101.648.148a46.796 46.796 0 0 1 16.931 7.294Zm7.592-4.098c-4.267.078-7.61.096-8.324-2.009-.809-2.383 2.497-6.374 7.243-6.979a2.844 2.844 0 1 0 4.807 1.066c2.216 1.47 3.564 4.011 3.411 5.564-.272 2.754-2.87 2.28-7.137 2.358ZM131.971 56.19l-.044.062a1.282 1.282 0 0 0-1.566-.075c-.001 0-.368.262-.991.697-1.865 1.305-6.01 4.163-9.107 6.017a62.862 62.862 0 0 1-6.115 3.328 11.656 11.656 0 0 1-4.47 1.259 2.736 2.736 0 0 1-1.758-.528 4.076 4.076 0 0 1-1.255-2.021 1.3 1.3 0 0 0-1.645-.822 1.24 1.24 0 0 0-.2.115 1.285 1.285 0 0 0-.622 1.53 6.636 6.636 0 0 0 2.13 3.254 5.346 5.346 0 0 0 3.35 1.072 9.25 9.25 0 0 0 1.842-.227 35.785 35.785 0 0 0 .95 12.052c3.103 12.102 17.758 15.397 26.067 10.627 4.189-2.404 9.62-8.308 7.214-19.558-1.762-8.242-7.71-13.902-13.78-16.781Zm.599 27.79c-.714 2.105-4.057 2.087-8.324 2.01-4.267-.078-6.866.395-7.137-2.359a6.097 6.097 0 0 1 1.701-4.043 2.825 2.825 0 0 0 5.169 1.08 2.832 2.832 0 0 0 .231-2.613 2.833 2.833 0 0 0-.802-1.087c.278-.035.558-.05.838-.047 5.314.077 9.193 4.5 8.324 7.06ZM93.782 84.91c-.874 2.087 2.549 6.913 5.75 8.156.022.934.055 1.852.09 2.67a9.71 9.71 0 0 0-4.17 1.926 8.674 8.674 0 0 0-3.113 6.729 1.297 1.297 0 0 0 1.267 1.332 1.297 1.297 0 0 0 1.333-1.267 6.05 6.05 0 0 1 2.157-4.78 7.934 7.934 0 0 1 5.035-1.6c1.959.013 3.882.523 5.59 1.481a10.592 10.592 0 0 1 4.265 4.342c.159.306.434.536.763.639a1.302 1.302 0 0 0 1.543-1.84 13.204 13.204 0 0 0-5.3-5.41 14.177 14.177 0 0 0-6.778-1.809c-.03-.714-.058-1.493-.078-2.288 3.218-.88 6.642-5.044 6.464-7.892-.233-3.724-13.478-3.582-14.817-.388ZM68.891 51.644a1.3 1.3 0 0 0 1.727-.63c.01-.02.236-.506.484-1.17l.012-.034c.292-.739.494-1.51.601-2.298a1.329 1.329 0 0 0-1.163-1.424 1.302 1.302 0 0 0-1.424 1.163c-.006.07-.023.161-.04.249a9.12 9.12 0 0 1-.422 1.435c-.106.283-.21.534-.285.711l-.09.205-.024.052-.006.014a1.343 1.343 0 0 0 .63 1.727ZM88.883 42.901a3.139 3.139 0 0 1-.785-1.072 1.282 1.282 0 0 0-1.371-.856 1.238 1.238 0 0 0-.273.033c-.12.047-.231.11-.331.19a1.284 1.284 0 0 0-.492 1.455c.319.83.83 1.572 1.493 2.165a8.77 8.77 0 0 0 1.007.83 1.3 1.3 0 0 0 1.47-2.143 6.43 6.43 0 0 1-.718-.602ZM93.939 38.976a9.37 9.37 0 0 1-.741-.397 6.08 6.08 0 0 1-1.035-.744 1.29 1.29 0 0 0-1.838 1.807c.023.035.047.07.074.103a9.985 9.985 0 0 0 2.49 1.61c.43.206.874.386 1.327.539a1.3 1.3 0 0 0 .799-2.474 9.994 9.994 0 0 1-1.076-.444ZM152.755 124.549c-3.5 1.375-2.125 11.125 3.5 9.625s.953-11.375-3.5-9.625ZM147.238 121.217c-.492-3.728-10.286-4.744-10.185 1.077.1 5.821 10.809 3.666 10.185-1.077ZM147.216 109.468a37.46 37.46 0 0 0-6.145-.89 1.289 1.289 0 0 0-1.33 1.045c-.02.057-.035.115-.046.174a1.302 1.302 0 0 0 .728 1.248c.153.074.32.118.49.129.674.041 1.348.109 2.021.189l1.254 1.803a1.294 1.294 0 0 0 1.345.527c.167-.036.325-.105.465-.202a1.279 1.279 0 0 0 .446-1.529c.062.014.125.025.187.039a1.304 1.304 0 0 0 1.559-.974c.007-.063.008-.127.005-.19a1.281 1.281 0 0 0-.979-1.369ZM134.866 108.714c-2.061.215-4.1.598-6.098 1.145a1.286 1.286 0 0 0-.924 1.404c-.001.065.004.129.013.193a1.301 1.301 0 0 0 1.597.911 35.386 35.386 0 0 1 5.682-1.067 1.3 1.3 0 0 0 1.158-1.428 1.253 1.253 0 0 0-.056-.177 1.281 1.281 0 0 0-1.372-.981ZM114.513 118.939c-.02-.02-.046-.028-.067-.047a1.29 1.29 0 0 0-1.771-.007 38.226 38.226 0 0 0-4.155 4.609 1.3 1.3 0 0 0 .236 1.813l.008.01a1.3 1.3 0 0 0 1.822-.244 35.528 35.528 0 0 1 3.872-4.296 1.3 1.3 0 0 0 .055-1.838ZM124.555 112.473a1.282 1.282 0 0 0-1.618-.496 38.233 38.233 0 0 0-5.413 3.034 1.286 1.286 0 0 0-.395 1.701c.018.034.021.071.043.104a1.296 1.296 0 0 0 1.804.352 35.516 35.516 0 0 1 5.044-2.827 1.303 1.303 0 0 0 .64-1.724 1.127 1.127 0 0 0-.105-.144ZM134.695 184.423a37.433 37.433 0 0 0 6.207.065 1.286 1.286 0 0 0 1.185-1.247c.009-.048.015-.095.018-.143a1.301 1.301 0 0 0-1.39-1.204 34.899 34.899 0 0 1-5.778-.06 1.3 1.3 0 0 0-1.416 1.174l.001.009a1.302 1.302 0 0 0 1.173 1.406ZM167.927 122.393a37.315 37.315 0 0 0-4.3-4.481 1.285 1.285 0 0 0-1.684.001 1.203 1.203 0 0 0-.151.115 1.302 1.302 0 0 0 .115 1.835 34.715 34.715 0 0 1 4.001 4.168 1.3 1.3 0 0 0 1.828.191c.048-.049.091-.101.129-.157a1.28 1.28 0 0 0 .062-1.672ZM103.644 152.361a1.278 1.278 0 0 0-1.228-1.069 1.249 1.249 0 0 0-.259-.011 1.304 1.304 0 0 0-1.061.981 1.311 1.311 0 0 0-.019.507 38.17 38.17 0 0 0 1.466 6.028c.109.327.343.598.651.753.308.154.665.18.992.072.089-.038.173-.086.251-.144a1.281 1.281 0 0 0 .574-1.499 35.648 35.648 0 0 1-1.367-5.618ZM117.312 178.232a1.296 1.296 0 0 0 1.803-.359c.029-.057.054-.117.074-.179a1.285 1.285 0 0 0-.432-1.624 33.984 33.984 0 0 1-1.788-1.306c-.057-.307-.144-.8-.224-1.348a15.294 15.294 0 0 1-.19-1.992 1.301 1.301 0 1 0-2.6 0c.001.287.02.594.046.903a1.267 1.267 0 0 0-1.377.04 1.252 1.252 0 0 0-.228.161 1.3 1.3 0 0 0 .056 1.838 37.548 37.548 0 0 0 4.86 3.866ZM108.3 169.748a1.301 1.301 0 0 0 1.821.25c.074-.067.14-.141.196-.223a1.278 1.278 0 0 0 .054-1.599 34.924 34.924 0 0 1-3.1-4.877 1.281 1.281 0 0 0-1.47-.629 1.226 1.226 0 0 0-.285.083 1.31 1.31 0 0 0-.637.765 1.304 1.304 0 0 0 .09.991 37.623 37.623 0 0 0 3.331 5.239ZM122.735 181.248a37.43 37.43 0 0 0 5.847 2.086 1.298 1.298 0 0 0 1.59-.923c.004-.013 0-.027.003-.041a1.297 1.297 0 0 0-.926-1.549 34.732 34.732 0 0 1-5.44-1.941 1.285 1.285 0 0 0-1.633.524c-.032.039-.061.08-.088.123a1.298 1.298 0 0 0 .647 1.721ZM173.261 134.822c.082-.039.161-.087.233-.143a1.283 1.283 0 0 0 .539-1.525 37.923 37.923 0 0 0-2.608-5.632 1.283 1.283 0 0 0-1.561-.558 1.108 1.108 0 0 0-.211.069 1.299 1.299 0 0 0-.49 1.772 35.266 35.266 0 0 1 2.429 5.245c.059.16.149.307.264.433.116.125.255.227.41.299a1.317 1.317 0 0 0 .995.04ZM158.425 122.304a1.298 1.298 0 0 0 .877 1.616l2.25.667a1.303 1.303 0 0 0 1.512-1.867 1.298 1.298 0 0 0-.774-.626l-2.25-.667a1.3 1.3 0 0 0-1.615.877ZM167.416 134.518a1.298 1.298 0 0 0 .233-1.823l-1.65-2.134a1.304 1.304 0 0 0-2.16.147 1.3 1.3 0 0 0 .104 1.444l1.65 2.133a1.298 1.298 0 0 0 1.823.233ZM162.182 138.485a1.325 1.325 0 0 0-.466.201 1.315 1.315 0 0 0-.54.836c-.031.168-.029.34.007.507l.7 3.267a1.295 1.295 0 0 0 .565.819 1.292 1.292 0 0 0 1.445-.022 1.302 1.302 0 0 0 .533-1.342l-.701-3.267a1.297 1.297 0 0 0-1.543-.999ZM149.712 159.095a1.302 1.302 0 0 0-1.619.871l-1 3.334a1.31 1.31 0 0 0 .423 1.381 1.304 1.304 0 0 0 1.438.137 1.302 1.302 0 0 0 .629-.771l1-3.333a1.29 1.29 0 0 0-.423-1.381 1.309 1.309 0 0 0-.448-.238ZM152.556 141.957l-.667 3.95a1.302 1.302 0 0 0 2.037 1.28 1.31 1.31 0 0 0 .527-.847l.666-3.95a1.297 1.297 0 0 0-1.064-1.504 1.321 1.321 0 0 0-.509.015 1.295 1.295 0 0 0-.99 1.056ZM137.741 168.951a1.298 1.298 0 0 0 .959 1.569 1.303 1.303 0 0 0 1.569-.959 270.78 270.78 0 0 1 1.326-5.222 1.302 1.302 0 0 0-.925-1.585 1.3 1.3 0 0 0-1.589.92c-.754 2.848-1.338 5.272-1.34 5.277ZM143.207 153.416a1.297 1.297 0 0 0 1.624-.862l1.583-5.167a1.292 1.292 0 0 0-.411-1.39 1.317 1.317 0 0 0-.448-.242 1.306 1.306 0 0 0-1.626.871l-1.584 5.167a1.298 1.298 0 0 0 .862 1.623ZM148.537 131.738a1.292 1.292 0 0 0-1.346.522c-.098.14-.168.298-.205.464l-.667 3a1.297 1.297 0 0 0 .523 1.347 1.298 1.298 0 0 0 2.015-.782l.667-3a1.3 1.3 0 0 0-.987-1.551ZM140.438 136.88a1.302 1.302 0 0 0-1.709.677l-1.667 3.85a1.3 1.3 0 1 0 2.386 1.033l1.667-3.85a1.3 1.3 0 0 0-.677-1.71ZM135.202 133.196a1.3 1.3 0 0 0 1.826-.219l.153-.194c.296-.373.978-1.226 1.649-2.019a1.29 1.29 0 0 0 .307-.949 1.286 1.286 0 0 0-.14-.489 1.286 1.286 0 0 0-.761-.644 1.29 1.29 0 0 0-.993.084 1.303 1.303 0 0 0-.397.318 90.125 90.125 0 0 0-1.863 2.287 1.29 1.29 0 0 0-.269.958 1.31 1.31 0 0 0 .488.867ZM131.344 139.282a1.292 1.292 0 0 0-.97-.224 1.306 1.306 0 0 0-.844.526 28 28 0 0 0-1.81 3.012 40.542 40.542 0 0 0-.809 1.609 1.298 1.298 0 0 0 .625 1.729 1.303 1.303 0 0 0 1.729-.626l.051-.107c.122-.254.451-.929.879-1.719.437-.823.921-1.62 1.451-2.386a1.302 1.302 0 0 0-.302-1.814ZM132.546 162.44a1.292 1.292 0 0 0 .981-.164 1.313 1.313 0 0 0 .578-.81 62.345 62.345 0 0 1 .66-2.569c.222-.791.479-1.615.697-2.158a1.31 1.31 0 0 0-.009-.997 1.299 1.299 0 0 0-1.71-.684 1.304 1.304 0 0 0-.695.716v-.001a31.194 31.194 0 0 0-1.008 3.234 68.607 68.607 0 0 0-.469 1.874 1.3 1.3 0 0 0 .975 1.559ZM131.222 175.84l.002-.23c.008-.721.057-1.441.149-2.156a1.297 1.297 0 0 0-1.594-1.464 1.307 1.307 0 0 0-.975 1.069 17.488 17.488 0 0 0-.16 1.843c-.022.536-.022.926-.022.938a1.299 1.299 0 1 0 2.6 0ZM122.222 174.139a1.3 1.3 0 0 0 1.249-1.349s-.084-2.167-.167-4.252a1.304 1.304 0 0 0-.414-.908 1.304 1.304 0 0 0-2.107.509 1.325 1.325 0 0 0-.077.503c.083 2.082.167 4.244.167 4.248a1.297 1.297 0 0 0 1.349 1.249ZM122.773 160.035a1.298 1.298 0 0 0 1.511-1.046l.021-.109c.049-.259.188-.953.391-1.766.199-.832.454-1.65.762-2.448a1.287 1.287 0 0 0 .002-1 1.295 1.295 0 0 0-1.209-.802 1.295 1.295 0 0 0-1.199.817 22.938 22.938 0 0 0-.968 3.169c-.226.951-.355 1.658-.358 1.674a1.31 1.31 0 0 0 .21.972c.097.141.221.261.365.353.143.093.304.156.472.186ZM112.784 162.128a1.301 1.301 0 0 0 1.456-1.123 70.611 70.611 0 0 1 .404-2.706c.066-.391.137-.773.206-1.097.067-.322.137-.595.18-.723a1.307 1.307 0 0 0-.069-.995 1.312 1.312 0 0 0-.754-.653 1.294 1.294 0 0 0-1.645.83c-.139.455-.25.919-.334 1.388-.303 1.566-.565 3.61-.567 3.623a1.3 1.3 0 0 0 1.123 1.456ZM120.947 141.031a1.299 1.299 0 0 0-1.961-1.706 13.939 13.939 0 0 0-1.855 3.011c-.452.946-.729 1.685-.738 1.709a1.301 1.301 0 0 0 2.434.914l.008-.024c.052-.135.324-.83.719-1.638.373-.808.841-1.569 1.393-2.266ZM131.869 122.211l-2.583 1a1.304 1.304 0 0 0-.745 1.683 1.3 1.3 0 0 0 1.684.742l2.583-1a1.315 1.315 0 0 0 .721-.687 1.303 1.303 0 0 0-.248-1.424 1.312 1.312 0 0 0-.912-.402 1.293 1.293 0 0 0-.5.088ZM114.752 134.426a1.299 1.299 0 0 0 1.838 0 22.378 22.378 0 0 1 2.714-2.28 23.299 23.299 0 0 1 1.199-.805l.065-.039.016-.01a1.297 1.297 0 0 0 .446-1.775 1.3 1.3 0 0 0-1.771-.462 25.533 25.533 0 0 0-4.507 3.533 1.288 1.288 0 0 0-.381.919 1.3 1.3 0 0 0 .381.919ZM106.565 146.289a1.3 1.3 0 0 0 1.718-.655c.4-.919.886-1.798 1.45-2.626a1.302 1.302 0 0 0-1.755-1.855 1.299 1.299 0 0 0-.367.353v-.001a18.533 18.533 0 0 0-1.7 3.066 1.298 1.298 0 0 0 .654 1.718ZM121.04 123.79l.124-.048.027-.011h.002a1.298 1.298 0 0 0 .115-2.395 1.303 1.303 0 0 0-.99-.054c-.95.362-1.855.829-2.701 1.393a1.3 1.3 0 1 0 1.442 2.163 11.536 11.536 0 0 1 1.981-1.048ZM125.638 115.518a1.3 1.3 0 0 0 .548 2.542c.479-.091.962-.155 1.448-.192a23.947 23.947 0 0 1 .863-.062 1.3 1.3 0 0 0-.132-2.597c-.011.001-.421.022-.959.069-.594.046-1.184.126-1.768.24ZM138.577 116.616a1.3 1.3 0 0 0 1.356-2.219l-1.5-.916a1.299 1.299 0 1 0-1.356 2.218l1.5.917ZM149.25 177.692l-.044.09a34.76 34.76 0 0 1-.715 1.376c-.288.54-.61 1.062-.962 1.563-.366.1-.733.2-1.102.288a1.309 1.309 0 0 0-.806.585 1.293 1.293 0 0 0-.155.983c.023.062.051.122.083.18a1.287 1.287 0 0 0 1.484.781 38.26 38.26 0 0 0 5.895-1.932 1.282 1.282 0 0 0 .756-1.403 1.222 1.222 0 0 0-.061-.299 1.293 1.293 0 0 0-1.205-.797 1.307 1.307 0 0 0-.497.102c-.216.091-.435.172-.652.259.192-.376.32-.64.324-.647a1.313 1.313 0 0 0 .058-.995 1.295 1.295 0 0 0-1.659-.799 1.307 1.307 0 0 0-.742.665ZM143.095 178.108a1.3 1.3 0 0 0 1.72-.65l.7-1.55a1.305 1.305 0 0 0-.234-1.43 1.306 1.306 0 0 0-1.842-.055 1.318 1.318 0 0 0-.294.415l-.7 1.551a1.298 1.298 0 0 0 .65 1.719ZM183.198 147.424a16.887 16.887 0 0 1-2.336-4.998 11.824 11.824 0 0 0-2.582-4.576 7.024 7.024 0 0 0-1.842-1.418 4.739 4.739 0 0 0-2.177-.558c-.126 0-.252.012-.378.024a4.195 4.195 0 0 0-1.668.515 5.5 5.5 0 0 0-1.706 1.539 6.387 6.387 0 0 0-1.29 3.917 12.978 12.978 0 0 0 1.021 4.485c.24.641.469 1.223.626 1.709.127.343.204.703.23 1.069a.484.484 0 0 1-.015.142.469.469 0 0 1-.16.09 2.821 2.821 0 0 1-.719.164 46.627 46.627 0 0 0-7.98 1.598c-.002-.04-.001-.082-.003-.122a1.307 1.307 0 0 0-.88-1.149 1.29 1.29 0 0 0-.995.066 1.301 1.301 0 0 0-.72 1.256c.004.056.007.143.007.248 0 .179-.009.409-.022.661-.561.24-1.109.508-1.642.804a10.088 10.088 0 0 0-3.383 2.935 6.71 6.71 0 0 0-1.222 3.885l.001.017c.056.442.252.854.561 1.175a4.577 4.577 0 0 0 1.701 1.056c1.987.655 4.074.955 6.164.887a38.226 38.226 0 0 0 8.873-1.078 1.304 1.304 0 0 1 1.576.94 1.3 1.3 0 0 1-.935 1.58c-.845.215-1.788.408-2.783.575a41.483 41.483 0 0 1-6.731.583 25.594 25.594 0 0 1-4.607-.387c-.301-.055-.604-.108-.893-.178a12.478 12.478 0 0 1-1.845-.615 1.264 1.264 0 0 1-.232.2l-.001.001-.041.025-.188.122a7.366 7.366 0 0 0-.67.521 7.617 7.617 0 0 0-.463.448c-.396.47-.75.972-1.059 1.502l-.015.027-.01.02a4.417 4.417 0 0 0-.428 1.897c0 .225.017.451.049.674.084.6.344 1.162.747 1.614a5.495 5.495 0 0 0 1.9 1.336c.52.232 1.057.422 1.607.569.318.087.656.165 1.009.237 1.332.259 2.685.402 4.042.429.306.008.614.016.934.016.695 0 1.422-.021 2.177-.063a58.823 58.823 0 0 0 7.677-.975 1.298 1.298 0 0 1 1.514 1.009 1.297 1.297 0 0 1-.988 1.528c-.016.004-.027.015-.043.018a56.435 56.435 0 0 1-10.337 1.083 29.386 29.386 0 0 1-6.184-.601 8.65 8.65 0 0 0-.178 1.66 6.108 6.108 0 0 0 .251 1.757c.176.617.463 1.197.848 1.71a6.309 6.309 0 0 0 2.023 1.705 13.029 13.029 0 0 0 4.13 1.313c1.685.26 3.386.4 5.092.418.329.007.659.011.988.011 6.029-.004 11.878-1.198 16.306-4.714a17.545 17.545 0 0 0 5.268-7.055 27.827 27.827 0 0 0 1.919-10.822 13.357 13.357 0 0 0-2.297-7.935 20.673 20.673 0 0 0-4.222-4.164 12.224 12.224 0 0 1-2.371-2.362Z"/></svg>