<svg xmlns="http://www.w3.org/2000/svg" width="200" height="200" fill="none"><path fill="#BEBEC9" d="M83.9 75.88a4.65 4.65 0 0 0 .274-1.633c-.007-1.116-.288-2.136-.636-2.987a5.972 5.972 0 0 0-.622-1.159c-.13-.179-.27-.356-.498-.551a2.156 2.156 0 0 0-.46-.3c-.2-.096-.475-.19-.829-.191a1.848 1.848 0 0 0-.866.215 1.662 1.662 0 0 0-.41.303c-.271.28-.394.497-.513.704-.17.306-.285.584-.373.805l-.03.08c-.797.934-1.214 2.03-1.204 3.041.003 1.008.34 1.88.836 2.552.252.337.546.631.914.872.367.234.823.438 1.423.443.175 0 .359-.028.54-.072l.002.005c.022-.005.042-.015.064-.02.031-.01.063-.013.094-.023l-.002-.008a3.412 3.412 0 0 0 1.132-.52c.575-.414.959-.997 1.164-1.556ZM117.54 76.674c.423.316.921.55 1.456.695.156.043.293.061.454.061.345 0 .641-.079.887-.18.431-.183.732-.43.992-.695.385-.401.673-.867.891-1.402a4.83 4.83 0 0 0 .352-1.8 4.524 4.524 0 0 0-.396-1.859 4.845 4.845 0 0 0-1.089-1.507 24.55 24.55 0 0 0-.271-.388 14.437 14.437 0 0 0-.344-.465 5.25 5.25 0 0 0-.416-.483 1.725 1.725 0 0 0-.427-.312 1.863 1.863 0 0 0-1.636-.034 2.233 2.233 0 0 0-.712.519 3.873 3.873 0 0 0-.588.854 7.266 7.266 0 0 0-.574 1.51 7.318 7.318 0 0 0-.248 1.84c.002.799.146 1.686.649 2.525.251.416.595.807 1.02 1.121ZM105.885 88.941c.571-.929 1.054-2.034 1.456-3.3a7.897 7.897 0 0 0 3.16-1.08 1.726 1.726 0 0 0-1.748-2.973c-.856.499-1.548.651-2.169.654-.589 0-1.138-.149-1.669-.402-.792-.376-1.512-1.003-2.006-1.542a8.396 8.396 0 0 1-.565-.68l-.135-.188-.028-.041a1.723 1.723 0 0 0-2.982.115 6.732 6.732 0 0 1-1.31 1.578 5.37 5.37 0 0 1-1.375.899c-.524.23-1.1.375-1.78.376a5.523 5.523 0 0 1-1.755-.305 1.725 1.725 0 1 0-1.09 3.273 8.976 8.976 0 0 0 2.844.482c.087 0 .168-.012.254-.015.55 1.771 1.253 3.216 2.154 4.308.515.619 1.098 1.131 1.763 1.498a4.49 4.49 0 0 0 2.173.575 4.565 4.565 0 0 0 2.244-.61c1.025-.581 1.86-1.484 2.564-2.622Zm-4.256-.384c-.237.13-.403.164-.552.166a1.042 1.042 0 0 1-.51-.148c-.317-.171-.766-.574-1.217-1.305-.362-.581-.718-1.37-1.03-2.345a9.219 9.219 0 0 0 2.469-1.862c.121.12.247.24.383.361a9.664 9.664 0 0 0 2.253 1.528c.144.069.299.128.451.19-.431 1.2-.932 2.093-1.406 2.664-.313.382-.607.62-.841.75Z"/><path fill="#BEBEC9" d="M190.156 85.189c-6.994-1.254-17.783-2.195-28.276-2.197-1.667 0-3.323.026-4.957.077-.38-2.469-.775-4.958-1.185-7.46 10.791-1.988 21.382-2.749 29.15-2.749a1.724 1.724 0 1 0-.001-3.45c-7.968.006-18.702.768-29.714 2.796a724.666 724.666 0 0 0-.78-4.555c-3.307-18.88-7.37-37.518-12.044-50.51a1.722 1.722 0 0 0-2.916-.557l-20.217 22.915c-1.983-.025-7.52-.085-14.303-.085-7.468 0-16.411.075-23.772.35a1507.617 1507.617 0 0 1-15.447-16.048 1012.658 1012.658 0 0 1-5.49-5.84l-.384-.414a1.728 1.728 0 0 0-1.667-.506 1.728 1.728 0 0 0-1.258 1.204c-.012.044-6.106 21.387-11.855 54.167-11.233-2.116-22.23-2.911-30.35-2.917a1.725 1.725 0 1 0-.001 3.45c7.915 0 18.762.793 29.764 2.867a713.362 713.362 0 0 0-1.215 7.36 159.41 159.41 0 0 0-5.542-.096c-10.493.003-21.282.945-28.275 2.198a1.725 1.725 0 1 0 .61 3.395c6.697-1.204 17.388-2.145 27.665-2.142 1.684 0 3.357.026 5.002.079a706.908 706.908 0 0 0-1.169 7.847c-2.522.329-5.094.704-7.66 1.123-7.858 1.287-15.565 2.938-21.14 4.669a1.724 1.724 0 1 0 1.023 3.295c5.317-1.654 12.933-3.294 20.675-4.56 2.207-.36 4.422-.688 6.604-.982a680.73 680.73 0 0 0-2.59 21.188c-.661.699-1.085 1.535-1.355 2.377-.336 1.063-.46 2.17-.46 3.231 0 .98.107 1.917.301 2.751.055.233.138.442.208.66-1.5 2.044-15.913 22.43-19.179 56.781a1.725 1.725 0 0 0 3.435.326c1.672-17.614 6.355-31.449 10.609-40.867 2.126-4.709 4.146-8.313 5.626-10.728a61.107 61.107 0 0 1 1.689-2.618c.501.389 1.057.754 1.667 1.107 2.172 1.248 5.038 2.333 8.546 3.309 5.258 1.457 11.957 2.647 19.744 3.5 7.785.852 16.655 1.363 26.22 1.445.953.008 1.232-9.864.28-9.872-15.851-.128-29.695-1.54-39.464-3.711-4.88-1.08-8.745-2.363-11.25-3.688-1.252-.657-2.153-1.326-2.667-1.893a2.88 2.88 0 0 1-.512-.738 1.443 1.443 0 0 1-.096-.28c.006-.034.017-.065.021-.1a675.843 675.843 0 0 1 2.775-22.627c4.163-.491 8.085-.829 11.372-.946a1.725 1.725 0 0 0-.123-3.447c-3.172.113-6.852.417-10.75.86a707.41 707.41 0 0 1 1.09-7.251c3.863.228 7.473.625 10.526 1.233a1.725 1.725 0 0 0 .672-3.384c-3.176-.63-6.81-1.035-10.66-1.272.375-2.331.752-4.617 1.133-6.852 3.32.707 6.63 1.529 9.85 2.494a1.725 1.725 0 0 0 .99-3.305 130.333 130.333 0 0 0-10.252-2.59 702.16 702.16 0 0 1 4.867-25.11 586.157 586.157 0 0 1 4.904-21.166c.478-1.892.885-3.45 1.206-4.657 3.291 3.51 10.271 10.895 19.801 20.648.34.348.817.537 1.303.518 7.41-.297 16.705-.375 24.405-.375a1232.875 1232.875 0 0 1 13.893.08l1.154.015c.505.007.984-.205 1.319-.584l18.783-21.289c4.158 12.478 7.882 29.715 10.933 47.16.27 1.541.532 3.084.792 4.625-3.658.76-7.317 1.657-10.889 2.725a1.724 1.724 0 1 0 .989 3.305c3.419-1.025 6.938-1.889 10.465-2.624.38 2.327.749 4.645 1.104 6.945-4.068.23-7.908.647-11.246 1.31a1.725 1.725 0 0 0 .673 3.383c3.204-.639 7.015-1.048 11.096-1.27.374 2.486.732 4.94 1.074 7.353-4.103-.477-7.983-.807-11.304-.925a1.726 1.726 0 0 0-.123 3.448c3.431.121 7.554.483 11.922 1.01a884.585 884.585 0 0 1 2.793 22.25c.003.022.01.041.013.062-.002.039-.013.077-.013.117a.89.89 0 0 1-.11.407c-.159.338-.624.883-1.461 1.459-1.457 1.021-3.951 2.114-7.202 3.096-4.883 1.484-11.483 2.77-19.158 3.726-7.678.957-16.439 1.589-25.691 1.793-.952.021-.795 9.895.157 9.875 13.979-.297 26.887-1.504 36.974-3.326 5.045-.912 9.383-1.975 12.832-3.178 1.725-.603 3.229-1.24 4.501-1.93a14.984 14.984 0 0 0 1.853-1.18c2.626 3.759 15.166 23.161 18.139 54.525a1.725 1.725 0 0 0 3.435-.326c-3.432-36.107-19.193-56.8-19.315-56.965-.025-.032-.055-.056-.081-.086.042-.139.083-.279.118-.42.174-.747.242-1.532.243-2.329-.003-1.333-.192-2.688-.57-3.875-.195-.595-.431-1.15-.789-1.67a3.852 3.852 0 0 0-.492-.563 894.632 894.632 0 0 0-2.63-21.007c2.004.275 4.034.579 6.055.91 7.742 1.265 15.359 2.905 20.676 4.559a1.726 1.726 0 0 0 1.023-3.295c-5.575-1.73-13.282-3.382-21.142-4.669-2.377-.389-4.76-.738-7.105-1.05a927.296 927.296 0 0 0-1.155-7.934c1.463-.042 2.942-.066 4.434-.065 10.277-.002 20.968.938 27.666 2.142a1.725 1.725 0 1 0 .61-3.395Z"/><path fill="#FFE632" d="M105.185 143.979c.246-.782.404-1.647.509-2.653.122-1.183.171-2.555.171-4.177 0-1.733-.05-3.233-.181-4.542-.098-.981-.242-1.856-.459-2.649a7.833 7.833 0 0 0-.645-1.655c-.407-.761-1.003-1.439-1.769-1.879-.764-.443-1.634-.622-2.493-.619a5.39 5.39 0 0 0-1.514.203 4.374 4.374 0 0 0-2.22 1.492c-.841 1.069-1.231 2.373-1.484 3.934-.245 1.569-.328 3.44-.33 5.715 0 1.619.05 2.988.17 4.169.103.993.258 1.85.498 2.624-5.729 1.996-9.845 7.43-9.846 13.839 0 8.101 6.566 14.667 14.668 14.668 8.102-.001 14.667-6.567 14.668-14.668-.001-6.371-4.069-11.776-9.743-13.802Zm-6.374-.807c-.177-.467-.338-1.202-.439-2.205-.103-1.003-.152-2.271-.151-3.818 0-1.665.05-3.066.163-4.198.085-.849.206-1.546.353-2.08.11-.401.234-.708.352-.926.184-.331.323-.449.463-.534.142-.081.35-.154.766-.156.244 0 .422.028.55.066.222.073.318.133.49.334.25.294.577 1.046.769 2.315.2 1.262.289 2.995.288 5.179 0 1.55-.049 2.82-.153 3.823-.101 1.004-.263 1.739-.44 2.205l-.006.021a14.798 14.798 0 0 0-1.556-.085c-.488 0-.97.027-1.445.074l-.004-.015Zm-6.483 6.677a11.176 11.176 0 0 1 7.932-3.286 11.172 11.172 0 0 1 7.932 3.286 11.174 11.174 0 0 1 3.186 6.51l-.008.011c-.083.123-.446.438-1.06.734-.918.455-2.352.897-4.084 1.2-1.736.305-3.777.484-5.966.484-3.424.003-6.495-.445-8.57-1.108-1.034-.325-1.814-.715-2.215-1.024a1.411 1.411 0 0 1-.324-.311l-.003-.03a11.175 11.175 0 0 1 3.18-6.466Zm15.864 15.864a11.172 11.172 0 0 1-7.932 3.286 11.195 11.195 0 0 1-10.872-8.497c1.184.495 2.572.88 4.15 1.17 1.998.363 4.28.566 6.722.566 3.724-.003 7.069-.464 9.624-1.27.441-.142.851-.297 1.246-.46-.5 2-1.523 3.789-2.938 5.205Z"/><path fill="#BEBEC9" d="M44.505 155.699a1.724 1.724 0 0 0-1.982 1.422c-.006.042-2.261 13.753-2.768 28.554a1.725 1.725 0 0 0 3.448.118c.248-7.265.93-14.306 1.55-19.522.31-2.608.604-4.761.82-6.259a173.683 173.683 0 0 1 .354-2.331 1.725 1.725 0 0 0-1.422-1.982ZM156.061 155.699a1.726 1.726 0 0 0-1.423 1.982s.034.203.095.6c.432 2.776 2.197 14.797 2.63 27.512a1.724 1.724 0 1 0 3.448-.118c-.506-14.801-2.763-28.512-2.768-28.554a1.725 1.725 0 0 0-1.982-1.422Z"/></svg>