<svg xmlns="http://www.w3.org/2000/svg" width="200" height="200" fill="none"><path fill="#BEBEC9" d="M122.479 151.779s.027.145.071.422c.131.83.396 2.774.395 4.684.002 1.088-.09 2.168-.304 2.974-.132.517-.512 1.272-1.405 2.406-1.436 1.827-3.059 3.376-4.808 5.252a1.252 1.252 0 1 0 1.833 1.707c1.68-1.807 3.363-3.404 4.945-5.411.996-1.274 1.585-2.295 1.858-3.317.297-1.14.384-2.39.386-3.611-.002-2.839-.502-5.519-.507-5.56a1.252 1.252 0 0 0-2.464.454ZM111.616 172.174c-2.344 1.823-4.17 2.23-5.855 2.243-2.203-.001-47.568.031-52.623.031-2.031.008-3.23-.259-3.772-.568-.277-.155-.41-.291-.522-.463-.11-.173-.2-.412-.26-.768-.159-.949-.217-2.138-.216-3.262 0-1.043.047-2.035.095-2.761s.095-1.174.094-1.175a1.252 1.252 0 0 0-2.49-.257c-.003.025-.203 1.957-.204 4.193.001 1.208.057 2.502.25 3.672.096.58.276 1.165.617 1.702.51.816 1.372 1.407 2.415 1.727 1.052.329 2.329.463 3.993.465 5.057 0 50.423-.032 52.623-.032 2.154.013 4.697-.637 7.401-2.776a1.253 1.253 0 0 0-1.546-1.971Z"/><path fill="#FFE632" d="M58.492 154.72c.434-.371.865-.734 1.298-1.088l.004-.004c1.805-1.488 3.075-2.198 4.163-2.557 1.086-.357 2.074-.4 3.45-.4h50.805c1.718-.005 2.954.252 3.606.58.33.161.504.323.59.443l.117.38c.027.373-.344 1.312-1.459 2.465-3.421 3.599-6.153 6.954-9.581 9.824-1.461 1.23-2.284 1.913-3.35 2.321-1.07.417-2.605.632-5.49.63H54.25c-2.057.005-3.662-.248-4.593-.638-.467-.19-.75-.404-.885-.567l-.175-.469c-.02-.35.272-1.178 1.237-2.276a87.937 87.937 0 0 1 2.904-3.193 1.252 1.252 0 1 0-1.81-1.731 89.825 89.825 0 0 0-2.986 3.284c-1.143 1.333-1.831 2.57-1.85 3.916a3.19 3.19 0 0 0 .771 2.091c.738.852 1.776 1.322 3.003 1.638 1.233.31 2.697.448 4.384.449h48.395c2.983-.002 4.828-.198 6.392-.797 1.567-.609 2.632-1.548 4.058-2.739 3.66-3.073 6.446-6.513 9.785-10.017 1.307-1.395 2.123-2.715 2.15-4.191a3.132 3.132 0 0 0-.591-1.846c-.585-.801-1.463-1.29-2.494-1.604-1.038-.312-2.273-.456-3.733-.457H67.406c-1.402 0-2.747.034-4.234.526-1.487.491-3.032 1.403-4.972 3.003l.005-.003c-.453.37-.898.745-1.34 1.123a1.253 1.253 0 1 0 1.628 1.904ZM46.089 75.711c-.696-.553-1.51-1.665-2.097-3.032-.594-1.366-.98-2.984-.978-4.554 0-.412.026-.821.08-1.22.27-2.022 1.145-3.876 2.342-5.264 1.196-1.393 2.697-2.297 4.17-2.528a1.253 1.253 0 0 0-.394-2.473c-2.188.353-4.16 1.61-5.675 3.367a12.716 12.716 0 0 0-2.925 6.562 11.58 11.58 0 0 0-.102 1.556c.001 1.973.467 3.893 1.184 5.55.724 1.657 1.68 3.055 2.822 3.985a1.252 1.252 0 0 0 1.573-1.948Z"/><path fill="#BEBEC9" d="M180.364 70.698c-6.601-7.79-16.823-13.315-30.874-13.64a77.486 77.486 0 0 0-1.921-.023c-8.827 0-19.639 1.386-31.8 4.416a1.253 1.253 0 0 0 .606 2.431c11.994-2.99 22.627-4.343 31.194-4.343.631 0 1.251.008 1.86.023 13.43.333 22.852 5.504 29.026 12.757 6.166 7.256 9.043 16.675 9.041 25.43.001 5.411-1.099 10.556-3.145 14.746-2.483 5.072-6.126 8.14-10.353 10.019-4.226 1.872-9.053 2.5-13.717 2.498-2.811 0-5.56-.225-8.073-.53-9.003-1.111-13.849-6.05-16.666-11.229-2.615-4.839-3.282-9.853-3.411-11.704a131.018 131.018 0 0 1 7.923 3.597 1.253 1.253 0 1 0 1.117-2.241c-2.689-1.341-5.701-2.691-8.828-3.974a5.814 5.814 0 0 1 .693-1.61c.589-.92 1.362-1.506 2.267-1.715a4.48 4.48 0 0 1 .998-.103c1.244-.004 2.873.424 4.369 1.33 1.501.905 2.872 2.264 3.744 4.108 1.074 2.267 2.599 4.846 4.98 6.892 2.374 2.05 5.639 3.513 9.901 3.503a22.113 22.113 0 0 0 3.839-.351c4.874-.859 8.582-3.539 10.849-6.549a1.252 1.252 0 1 0-2.001-1.506v-.001c-1.916 2.543-5.086 4.852-9.281 5.589a19.718 19.718 0 0 1-3.406.314c-3.702-.009-6.277-1.201-8.27-2.899-1.986-1.701-3.355-3.962-4.347-6.063a12.095 12.095 0 0 0-4.715-5.183c-1.877-1.126-3.881-1.684-5.662-1.688-.54 0-1.062.052-1.559.166-1.638.374-2.956 1.446-3.821 2.814a8.347 8.347 0 0 0-.907 2.03 143.964 143.964 0 0 0-6.193-2.281 106.38 106.38 0 0 0-8.147-2.414 178.554 178.554 0 0 0-.795-5.138 80.87 80.87 0 0 1 5.301-.189c9.874-.005 19.463 1.672 24.172 3.198a1.252 1.252 0 0 0 .769-2.383c-5.084-1.636-14.771-3.314-24.941-3.32-1.909 0-3.83.082-5.743.214a258.367 258.367 0 0 0-.822-4.359c6.624-1.356 13.677-1.925 19.669-1.922 2.915 0 5.578.129 7.808.352a1.253 1.253 0 0 0 .25-2.491c-2.331-.234-5.069-.365-8.058-.365-6.143.002-13.333.57-20.17 1.972-.112-.541-.217-1.09-.332-1.628a1.252 1.252 0 0 0-2.45.522c.116.545.223 1.1.336 1.648-2.076.497-4.112 1.062-6.046 1.737a1.252 1.252 0 1 0 .828 2.365c1.816-.637 3.745-1.172 5.719-1.647.268 1.347.517 2.686.761 4.03-2.099.22-4.175.517-6.177.946a1.252 1.252 0 1 0 .524 2.45v-.001c1.96-.42 4.013-.714 6.099-.926.25 1.47.478 2.921.687 4.351-1.99-.417-3.89-.746-5.549-.865a1.253 1.253 0 0 0-.176 2.499h-.001c1.743.12 3.814.47 6.068.978.114.897.244 1.814.336 2.68a1.252 1.252 0 0 0 2.491-.263c-.062-.578-.153-1.19-.224-1.78 2.241.59 4.606 1.305 7.01 2.121a141.64 141.64 0 0 1 6.59 2.442c-.002.09-.017.177-.017.267l.012.49c.09 1.767.68 7.453 3.734 13.142 1.498 2.809 3.651 5.613 6.631 7.875h-21.051a1.252 1.252 0 0 0 0 2.505h25.323a25.359 25.359 0 0 0 7.667 2.148c2.583.312 5.429.548 8.374.548 4.882-.002 10.047-.643 14.73-2.712 4.68-2.061 8.863-5.604 11.591-11.212 2.24-4.596 3.397-10.096 3.398-15.844-.002-9.291-3.029-19.263-9.636-27.051Z"/><g fill="#BEBEC9"><path d="M120.528 109.139c-.933-2.538-1.858-4.413-1.87-4.439a1.252 1.252 0 0 0-2.246 1.108l.146.305a49.728 49.728 0 0 1 1.948 4.818c.764 2.215 1.418 4.791 1.411 6.747.002.803-.109 1.489-.308 1.989-.456 1.153-.934 2.027-1.527 2.706-.887 1.005-2.076 1.707-4.318 2.207-2.23.491-5.442.711-10.02.709H74.217c.04-.575.207-1.764.872-3.028a1.253 1.253 0 0 0-2.22-1.16c-.956 1.838-1.124 3.449-1.157 4.188h-.893a24.395 24.395 0 0 1-1.58-.043 7.947 7.947 0 0 1 .87-2.985 1.253 1.253 0 0 0-2.22-1.16 10.31 10.31 0 0 0-1.116 3.712c-.11-.041-.243-.079-.328-.123-.333-.172-.488-.325-.614-.513-.123-.189-.22-.453-.277-.861l-.038-.544c.003-.873.284-1.683.89-2.531 1.052-1.479 3.173-2.958 6.036-4.219 8.598-3.829 23.545-5.777 35.189-5.765.504 0 1.002.004 1.493.011a1.253 1.253 0 0 0 .037-2.504 85.882 85.882 0 0 0-1.53-.011c-9.085.002-19.993 1.119-28.74 3.435-4.377 1.163-8.213 2.615-11.059 4.456-1.422.924-2.603 1.95-3.458 3.132a7.439 7.439 0 0 0-.954 1.782 1.238 1.238 0 0 0-.435-.087l-34.4-.001c.041-.574.208-1.764.872-3.027a1.252 1.252 0 0 0-2.22-1.16v-.001c-.956 1.839-1.124 3.449-1.157 4.188h-.892a23.748 23.748 0 0 1-1.58-.042 7.944 7.944 0 0 1 .87-2.985 1.252 1.252 0 1 0-2.22-1.16v-.001a10.32 10.32 0 0 0-1.117 3.714c-.11-.041-.243-.08-.328-.124-.333-.171-.488-.325-.614-.513-.122-.189-.22-.453-.277-.862l-.016-.226c0-.389.133-.829.475-1.357.592-.922 1.841-2.005 3.539-3.04 4.896-3.018 13.296-5.696 19.962-7.202 1.512 3.507 3.854 5.816 6.396 7.185 3.03 1.642 6.27 2.04 8.797 2.042 2.691-.001 4.6-.458 4.665-.473a1.253 1.253 0 0 0-.585-2.435l-.059.013c-.321.071-1.916.391-4.021.391-2.264.002-5.098-.375-7.601-1.739-2.501-1.373-4.732-3.665-5.975-7.837-.494-1.671-.729-3.822-.727-6.306-.001-.577.033-1.202.056-1.813 1.404-.09 2.81-.16 4.214-.211a1.253 1.253 0 0 0-.09-2.503h-.001c-1.319.048-2.644.118-3.969.2.12-1.467.283-2.991.501-4.588 1.438.19 2.857.412 4.227.705a1.253 1.253 0 0 0 .524-2.449 56.507 56.507 0 0 0-4.381-.733c.195-1.24.41-2.502.645-3.789 1.358.37 2.715.762 4.065 1.202a1.253 1.253 0 0 0 .775-2.382 89.479 89.479 0 0 0-4.377-1.286 346.98 346.98 0 0 1 2.202-10.327l.01-.046a518.344 518.344 0 0 1 3.327-16.22c2.524 2.547 7.617 7.586 12.413 11.711.25.215.574.323.903.3.003 0 1.032-.072 2.727-.144 1.696-.073 4.046-.145 6.655-.145 4.096-.001 8.84.182 12.633.806.38.062.767-.053 1.05-.314l14.971-13.763c.3 1.06.703 2.507 1.186 4.288a1.252 1.252 0 1 0 2.417-.655c-1.052-3.883-1.754-6.273-1.756-6.28a1.255 1.255 0 0 0-.866-.854 1.256 1.256 0 0 0-1.183.285L87.615 63.249c-3.906-.584-8.45-.758-12.417-.759-4.254 0-7.773.187-9.03.262-3.172-2.75-6.48-5.895-9.024-8.39a286.265 286.265 0 0 1-3.223-3.212c-.785-.795-1.234-1.26-1.235-1.262a1.25 1.25 0 0 0-2.12.586c-.004.012-1.917 8.25-3.85 18.533a364.956 364.956 0 0 0-2.183 10.23c-7.128-1.712-14.23-2.517-20.792-2.518-3.19 0-6.252.19-9.128.559a1.252 1.252 0 1 0 .32 2.484 69.35 69.35 0 0 1 8.808-.539c6.393 0 13.353.795 20.324 2.48a158.49 158.49 0 0 0-.702 4.124 80.688 80.688 0 0 0-7.555-.346c-10.17.005-19.858 1.683-24.94 3.319a1.252 1.252 0 1 0 .77 2.383c4.706-1.526 14.295-3.203 24.17-3.198 2.398 0 4.815.1 7.187.32a86.476 86.476 0 0 0-.54 5.078c-9.704.796-19.34 2.752-27.358 7.647a1.252 1.252 0 1 0 1.307 2.137c7.399-4.534 16.535-6.46 25.914-7.261-.018.536-.05 1.091-.051 1.607.001 2.548.238 4.821.786 6.79-5.094 1.169-11.039 2.936-15.94 5.111-2.63 1.172-4.951 2.445-6.692 3.856-.87.708-1.6 1.452-2.137 2.275-.536.819-.883 1.743-.882 2.726l.039.569c.088.65.279 1.299.657 1.882.568.888 1.52 1.481 2.664 1.798 1.156.327 2.571.453 4.425.455h37.798c.014 0 .026-.008.04-.008.007.229.016.459.047.689.09.652.28 1.301.657 1.884.569.887 1.52 1.48 2.664 1.798 1.157.327 2.572.453 4.426.455h32.925c6.208-.008 10.082-.356 12.87-1.459 1.389-.552 2.5-1.329 3.355-2.314.857-.983 1.455-2.135 1.968-3.431.358-.909.483-1.894.485-2.911-.01-2.817-.966-5.993-1.894-8.539Z"/><path d="M63.702 85.213c.258-.006.486.108.53.157a1.252 1.252 0 0 0 1.67-1.866c-.602-.53-1.37-.79-2.2-.796-1.308-.026-2.808.791-3.565 2.444a1.253 1.253 0 0 0 2.263 1.075c.444-.878.896-.988 1.302-1.014ZM76.753 92.76c.492-.336.816-.76 1.087-1.19.252.233.526.461.856.66.497.3 1.115.543 1.832.544.83.01 1.703-.37 2.389-1.049a1.252 1.252 0 0 0-1.742-1.799c-.35.323-.506.335-.647.344-.127.001-.31-.047-.54-.186-.344-.201-.733-.596-1.002-.938l-.317-.435-.08-.124-.016-.028a1.25 1.25 0 0 0-1.277-.61 1.25 1.25 0 0 0-1.03.97c-.085.405-.295 1-.554 1.376l-.356.386-.249.082c-.152.007-.622-.099-1.387-.817a1.252 1.252 0 1 0-1.712 1.828c1.016.95 2.029 1.486 3.1 1.493a2.929 2.929 0 0 0 1.645-.507ZM91.77 85.397l.254.202.058.057a1.252 1.252 0 0 0 1.887-1.648c-.049-.053-.316-.359-.793-.683-.473-.32-1.183-.682-2.104-.686-.714-.006-1.514.252-2.21.802a1.252 1.252 0 1 0 1.539 1.977c.32-.242.5-.269.67-.275l.7.254Z"/></g><path fill="#BEBEC9" d="M60.233 153.574c-.813-.457-1.808-.653-3.009-.657-.3 0-.585.105-.813.3-.013.011-1.62 1.383-2.928 2.687-1.48 1.481-2.96 2.922-2.963 2.925a1.252 1.252 0 0 0 .917 2.149c3.193-.116 5.608-.71 7.32-1.559.855-.428 1.539-.919 2.05-1.496.504-.572.86-1.266.864-2.056.015-.984-.633-1.86-1.438-2.293Zm-3.11 3.838c-.613.254-1.378.482-2.273.665l.403-.4a49.117 49.117 0 0 1 2.394-2.216c.642.046 1.134.163 1.343.288l.17.135-.023.077c-.085.251-.709.926-2.014 1.451Z"/><path fill="#FFE632" d="m92.974 154.15-11.699-.233a1.266 1.266 0 0 0-.768.244l-6.601 4.865a1.255 1.255 0 0 0 .728 2.261l11.882.139a1.252 1.252 0 0 0 .03-2.504l-8.147-.096 3.251-2.396 11.274.224a1.252 1.252 0 0 0 .05-2.504Z"/><path fill="#FFE632" d="m93.157 155.614-.706-1.035a1.479 1.479 0 0 0-.541.682 1.677 1.677 0 0 0-.113.618c.009.464.13.786.273 1.121.224.492.536.964.947 1.386.415.397.924.842 1.813.874.257.001.531-.055.777-.166l.016-.007c.265-.12.543-.342.72-.634.18-.29.244-.613.242-.874-.014-.579-.213-.939-.411-1.277a5.265 5.265 0 0 0-1.143-1.269 4.148 4.148 0 0 0-.705-.466c-.261-.127-.541-.254-.985-.263a1.536 1.536 0 0 0-.98.343l.796.967-.706-1.035.706 1.035.796.966-.612-.743v.971a.98.98 0 0 0 .612-.228l-.612-.743v.971-.506l-.184.481.184.025v-.506l-.184.481c.026-.006.41.249.641.521l.27.356.031.063.43-.144h-.448l.018.144.43-.144h-.448.841l-.712-.439-.13.439h.842l-.712-.439.709.437-.354-.76-.355.323.709.437-.354-.76.529 1.135-.513-1.143.25.555v-.608l-.25.053.25.555v-.608.409l.153-.385-.154-.024v.409l.154-.385-.002.005.002-.005-.002.005.002-.005c-.05-.015-.312-.255-.47-.517l-.186-.354-.03-.09-.257.06h.26l-.003-.06-.257.06h.26-.82l.76.299.06-.299h-.82l.76.299-.956-.376.577.846.379-.47-.956-.376.577.846.091-.068-.796-.966ZM86.786 160.361l-.7-1.039a1.485 1.485 0 0 0-.546.684 1.673 1.673 0 0 0-.114.62c.008.464.13.786.273 1.121.224.491.535.962.946 1.384.415.398.922.843 1.812.875.26.001.534-.056.777-.167l.013-.006c.266-.119.545-.34.723-.633.18-.292.245-.615.243-.876-.014-.579-.214-.94-.412-1.277a5.266 5.266 0 0 0-1.143-1.268 4.143 4.143 0 0 0-.704-.465c-.261-.127-.54-.254-.985-.263a1.543 1.543 0 0 0-.979.343l.796.967-.7-1.039.7 1.039.795.967-.612-.744v.972l.612-.228-.612-.744v.972-.507l-.184.482.184.025v-.507l-.184.482c.026-.007.41.248.642.519l.269.356.03.062.432-.145-.45.001.019.144.431-.145-.45.001h.842l-.712-.439-.13.439h.842l-.712-.439.708.436-.353-.76-.355.324.708.436-.353-.76.528 1.136-.514-1.142.25.557v-.61l-.25.053.25.557v-.61.411l.155-.387-.155-.024v.411l.155-.387-.002.005.003-.005-.003.005.003-.005c-.05-.014-.312-.255-.47-.517l-.186-.354-.03-.09-.26.061h.263l-.003-.061-.26.061h.263-.824l.763.301.061-.301h-.824l.763.301-.957-.379.573.852.384-.473-.957-.378.573.851.096-.072-.795-.967ZM151.699 148.959a5.393 5.393 0 0 0-1.65-2.428c-1.274-1.074-2.856-1.595-4.469-2.028-2.421-.628-4.991-1.059-6.779-2.04-.897-.487-1.588-1.073-2.081-1.871-.491-.8-.813-1.855-.816-3.391 0-.451.029-.942.092-1.476.165-1.419.242-2.737.242-3.97.025-7.422-2.897-11.7-5.587-15.316-1.346-1.821-2.624-3.508-3.554-5.428-.929-1.923-1.54-4.08-1.544-6.968 0-1.13.096-2.372.312-3.751.716-4.58 1.164-8.309 1.165-11.56.004-3.81-.635-6.997-2.213-9.93-1.555-2.895-3.972-5.496-7.4-8.357.256-.876.429-1.803.43-2.807 0-.832-.089-1.697-.276-2.573-.424-1.973-1.264-3.693-2.377-4.975a7.678 7.678 0 0 0-.998-.948c.009-.38.016-.757.016-1.133.003-9.657-3.267-18.093-8.979-24.145-5.706-6.055-13.844-9.692-23.387-9.854-.365-.007-.73-.01-1.094-.01-8.874.002-17.857 1.898-24.806 7.399-6.957 5.5-11.68 14.588-12.127 28.382a1.252 1.252 0 1 0 2.503.085c.349-10.038 2.955-17.164 6.923-22.213a6.385 6.385 0 0 0 3.483 1.032c1.443.004 3.15-.492 4.94-1.8 5.232-3.811 11.962-5.315 18.834-5.313.278 0 .555.002.83.008 5.662.093 10.86 1.28 14.222 4.343 2.068 1.878 4.431 2.403 6.284 2.396a10.795 10.795 0 0 0 3.427-.56c3.908 5.089 6.19 11.664 6.397 19.173-1.281-1.103-2.853-1.699-4.427-1.696-.458 0-.915.048-1.363.144-1.976.419-3.548 1.765-4.569 3.52-1.028 1.763-1.566 3.96-1.567 6.335 0 1.105.118 2.249.365 3.406.597 2.79 1.839 5.208 3.471 6.975 1.626 1.758 3.689 2.905 5.912 2.91a6.2 6.2 0 0 0 1.302-.136c2.394-.49 4.405-2.328 5.06-5.025.006-.022-.001-.043.003-.066.16-.16.321-.315.46-.495 3.007 2.568 5.043 4.834 6.301 7.182 1.346 2.517 1.911 5.195 1.915 8.747.001 3.017-.424 6.641-1.134 11.172a26.712 26.712 0 0 0-.343 4.138c-.004 3.25.721 5.854 1.795 8.061 1.62 3.315 3.919 5.737 5.706 8.558 1.791 2.828 3.173 6.008 3.184 11.093 0 1.128-.07 2.349-.225 3.68-.072.62-.108 1.207-.108 1.766-.022 2.877 1.018 5.023 2.621 6.382 2.396 2.03 5.605 2.499 8.266 3.176 1.332.324 2.527.685 3.386 1.166.867.492 1.37 1.013 1.65 1.827.248.744.361 1.427.361 2.042-.015 1.38-.515 2.442-1.614 3.372-1.102.919-2.88 1.64-5.323 1.922-3.05.354-5.156 1.093-6.664 2.16a7.493 7.493 0 0 0-2.381 2.758c-.747 1.476-1.004 2.917-1.415 4.048-.423 1.146-.861 1.922-1.966 2.577-1.634.941-3.821 1.658-7.86 1.665-.403 0-.866-.025-1.307-.041.037-.095.083-.187.095-.293a1.252 1.252 0 0 0-1.103-1.385c-.024-.003-3.727-.426-6.975-.427-.927-.021-1.797.478-2.235 1.137-.454.654-.601 1.379-.605 2.069.003.676.146 1.336.469 1.941.314.587.894 1.206 1.788 1.35.819.123 2.163.203 3.578.205.812 0 1.633-.028 2.372-.1.747-.081 1.374-.167 1.985-.433.597-.272.862-.952.645-1.558.433.014.889.039 1.293.039 4.323.007 7.073-.812 9.115-2.001 1.546-.881 2.404-2.196 2.894-3.44.733-1.887.946-3.623 1.864-4.879.456-.637 1.065-1.208 2.102-1.722 1.035-.51 2.508-.94 4.6-1.182 2.773-.325 5.017-1.147 6.633-2.482 1.62-1.324 2.533-3.228 2.519-5.3 0-.92-.167-1.87-.489-2.835Zm-36.356-81.32c.002 1.274-.277 2.394-.703 3.163-.434.78-.944 1.166-1.48 1.282l-.344.035c-.634.01-1.483-.395-2.279-1.311-.79-.904-1.479-2.261-1.816-3.852a9.889 9.889 0 0 1-.222-2.054c-.002-1.275.277-2.396.701-3.164.434-.778.942-1.162 1.478-1.277l.349-.037c.635-.01 1.482.394 2.278 1.31.79.904 1.479 2.262 1.816 3.854.151.706.222 1.398.222 2.05Zm-13.505-31.824c-1.423-.007-3.065-.363-4.603-1.749-4.104-3.693-9.912-4.878-15.856-4.99a44.303 44.303 0 0 0-.877-.009c-7.221.002-14.488 1.564-20.306 5.793-1.447 1.045-2.584 1.316-3.468 1.32a3.8 3.8 0 0 1-1.793-.449 26.1 26.1 0 0 1 2.567-2.37c6.313-5.012 14.716-6.859 23.25-6.857.35 0 .7.003 1.047.01 8.94.161 16.372 3.52 21.613 9.069.017.018.032.04.05.059a7.986 7.986 0 0 1-1.624.173Zm8.425 40.126a3.761 3.761 0 0 1-.779.081c-1.317.006-2.782-.71-4.073-2.106-1.287-1.388-2.355-3.418-2.861-5.798-.21-.987-.31-1.957-.31-2.883-.002-1.991.465-3.775 1.225-5.07.768-1.301 1.77-2.087 2.93-2.335.276-.06.557-.09.84-.09a4.25 4.25 0 0 1 2.082.565c-.998.452-1.788 1.262-2.313 2.23-.674 1.235-1.007 2.74-1.009 4.367 0 .834.09 1.7.277 2.577.423 1.972 1.263 3.692 2.377 4.974 1.03 1.18 2.347 2.002 3.833 2.124a3.962 3.962 0 0 1-2.219 1.364Zm8.031 96.318c-.62.061-1.376.088-2.128.088-1.244.002-2.493-.078-3.104-.165l-.123-.22-.104-.606c-.004-.297.086-.549.147-.625l.189-.076c1.518 0 3.203.102 4.497.205.523.041.954.081 1.314.116a1.225 1.225 0 0 0-.112.428 1.22 1.22 0 0 0 .218.743 6.978 6.978 0 0 1-.794.112Z"/></svg>