<svg xmlns="http://www.w3.org/2000/svg" width="200" height="200" fill="none"><path fill="#FFD93A" d="M102.057 110.677c8.903-.513 11.283-11.944 8.746-16.594-5.726.532-12.594-.904-18.006-3.935-1.98 2.15-3.344 5.457-3.47 8.806 12.446-2.152 14.422 7.15 12.73 11.723Z"/><path fill="#191C22" d="M28.727 134.497c.55.269 1.213.119 1.593-.361.07-.083.646-.737 1.735-1.357 1.092-.621 2.686-1.22 4.887-1.221 2.399.001 5.554.718 9.565 3.054a1.303 1.303 0 0 0 1.56-.19c3.22-3.108 6.393-3.948 8.958-3.958 1.48-.001 2.755.298 3.645.636.119.046.242.071.365.08a41.592 41.592 0 0 0 2.006 5.22c-.021.116-.048.232-.036.355.373 3.823 1.176 6.642 1.853 9.081.68 2.448 1.219 4.482 1.219 6.947 0 .806-.058 1.661-.192 2.599-.288 2.023-.701 4.897-1.152 8.149-1.641-2.929-3.357-5.292-3.375-5.318a1.3 1.3 0 0 0-2.288.362l-1.242 3.819c-.989-.781-2.067-1.723-3.337-2.6-1.037-.716-2.237-1.368-3.62-1.814a16.258 16.258 0 0 0-.955-1.186c-1.233-1.389-2.268-2.066-2.341-2.114a1.3 1.3 0 0 0-1.993.91l-.274 1.935a18.88 18.88 0 0 0-3.439.773c-.105.034-.2.081-.302.118-1.49-.548-2.832-.703-3.77-.703-.841 0-1.371.105-1.44.119a1.3 1.3 0 0 0-.923 1.805l1.163 2.59a15.444 15.444 0 0 0-1.677 2.843c-.596 1.332-.827 2.315-.841 2.373a1.3 1.3 0 0 0 2.04 1.339l.002-.001c.039-.029.703-.506 1.726-.964 1.028-.462 2.41-.896 3.862-.893.88 0 1.787.152 2.705.545.918.395 1.857 1.033 2.793 2.06 2.674 2.928 4.377 6.154 6.558 8.955 1.092 1.396 2.32 2.685 3.871 3.701 1.296.85 2.828 1.477 4.613 1.839a91.166 91.166 0 0 0-.264 3.753 1.3 1.3 0 0 0 2.598.115c.163-3.716.879-10.005 1.68-16.216.802-6.216 1.689-12.375 2.196-15.926a20.94 20.94 0 0 0 .218-2.967c0-2.861-.636-5.197-1.314-7.642-.222-.798-.448-1.616-.666-2.474 3.716 5.194 8.188 8.99 12.187 11.632a48.313 48.313 0 0 0 6.041 3.404c1.733.812 3.097 1.314 3.95 1.563.426.123.86.168 1.31.168 1.153-.004 2.443-.293 3.85-.773 2.102-.724 4.439-1.9 6.592-3.385 2.125-1.47 4.069-3.232 5.38-5.233 1.16 3.607 3.025 6.7 5.257 9.018 1.332 1.382 2.794 2.493 4.325 3.268 1.531.774 3.138 1.215 4.74 1.215a8.057 8.057 0 0 0 1.681-.175c.91 2.513 2.235 6.696 3.38 11.208 1.185 4.655 2.171 9.673 2.33 13.482a1.3 1.3 0 0 0 2.598-.111c-.179-4.138-1.202-9.253-2.407-14.011-1.178-4.636-2.528-8.895-3.475-11.507a8.534 8.534 0 0 0 1.585-1.185c1.021-.965 1.704-2.157 2.118-3.424.415-1.271.575-2.622.575-3.987-.005-3.351-.953-6.827-1.881-9.508a47.201 47.201 0 0 0-1.021-2.669c.964-.021 2.137-.092 3.316-.305a11 11 0 0 0 2.114-.584c.675-.274 1.321-.636 1.857-1.185.633-.657 1.177-1.481 1.686-2.394.039-.071.075-.149.114-.221.045-.019.093-.025.136-.049 2.286-1.297 4.176-1.751 5.737-1.752a7.326 7.326 0 0 1 3.404.821c1.442.741 2.542 1.896 3.266 2.877.362.489.63.931.803 1.243.087.156.15.279.189.36l.042.087.007.016.001.001a1.3 1.3 0 0 0 2.482-.382c.106-.962.156-1.9.156-2.814.002-4.724-1.357-8.776-3.276-12.102-1.643-2.847-3.688-5.169-5.662-7.002 2.226-1.112 4.073-2.331 5.577-3.565 4.108-3.365 5.718-6.757 6.226-8.081a21.103 21.103 0 0 0 9.464-4.166c2.145-1.679 3.21-3.186 3.264-3.262a1.302 1.302 0 0 0-.644-1.977l-6.425-2.191a24.297 24.297 0 0 0 2.726-1.56c1.545-1.029 3.138-2.368 4.415-4.098 1.276-1.727 2.227-3.865 2.424-6.383a1.298 1.298 0 0 0-1.505-1.386l-11.8 1.93c2.366-7.148 3.696-13.931 3.697-20.247.001-4.82-.771-9.374-2.439-13.58-2.499-6.313-7.025-11.809-13.795-16.243-6.566-4.304-15.239-7.636-26.313-9.909.501-1.559 1.105-3.047 1.837-4.294.532-.907 1.124-1.688 1.764-2.295.641-.608 1.323-1.042 2.066-1.297.494-.17.836-.614.875-1.134a1.298 1.298 0 0 0-.698-1.25c-.105-.047-2.449-1.275-5.663-1.284-1.535 0-3.277.293-5.003 1.17-1.393.703-2.757 1.793-3.987 3.34l-2.344-1.993a1.294 1.294 0 0 0-.977-.303 1.292 1.292 0 0 0-.893.498c-.059.087-2.135 2.753-3.079 6.715a77.637 77.637 0 0 0-3.694-.097c-7.25 0-13.447 1.09-18.688 3.157-7.866 3.093-13.542 8.415-17.287 15.302-3.608 6.625-5.46 14.68-6.02 23.688L45.78 57.66a1.3 1.3 0 0 0-1.917.713 11.986 11.986 0 0 0-.573 3.664c0 1.99.489 3.84 1.198 5.481 1.006 2.323 2.444 4.224 3.688 5.62l-6.787-.401a1.302 1.302 0 0 0-1.344 1.586c.02.09.437 1.888 1.788 4.254a21.117 21.117 0 0 0 7.113 7.388c-.031.318-.052.662-.052 1.046 0 2.252.62 5.653 2.919 9.535 2.155 3.64 5.782 7.683 11.705 11.59-.079.067-.164.127-.24.197-1.436 1.317-2.433 3.087-3.076 5.107a18.141 18.141 0 0 0-.477 1.902 6.68 6.68 0 0 1-1.533-.948 5.694 5.694 0 0 1-1.748-2.63 5.73 5.73 0 0 1-.287-1.651v-.018h-.001a1.296 1.296 0 0 0-1.464-1.338c-.103.016-5.357.692-11.329 4.052-2.984 1.682-6.148 4.041-8.904 7.334-2.755 3.291-5.092 7.518-6.42 12.872a1.3 1.3 0 0 0 .69 1.481Zm33.77 46.933c-1.359-.306-2.468-.789-3.437-1.421-1.842-1.201-3.241-2.996-4.717-5.161-1.476-2.156-3.016-4.653-5.213-7.069-1.161-1.277-2.42-2.155-3.691-2.699a9.391 9.391 0 0 0-3.73-.756c-1.452.002-2.758.312-3.852.699.031-.055.057-.108.09-.163.479-.821 1.102-1.672 1.881-2.396.78-.726 1.708-1.327 2.837-1.691a17.312 17.312 0 0 1 2.265-.568l-.03.207c-.049.349.049.71.267.986.217.277.545.456.895.49 1.462.139 2.77.77 3.703 1.386.466.307.837.605 1.084.821.124.109.217.196.276.253l.063.062.011.012v-.001c.41.432 1.066.53 1.584.237.52-.295.772-.91.61-1.484a16.358 16.358 0 0 0-.41-1.246c1.102.753 2.131 1.633 3.196 2.48.26.205.532.398.801.593l-.828 2.549a1.3 1.3 0 0 0 .377 1.377c2.664 2.341 5.66 3.99 6.877 4.617-.344 2.751-.658 5.44-.908 7.886Zm72.494-52.352c-.017.27-.145.916-.365 1.67a28.238 28.238 0 0 1-1.476 3.92c-.609 1.318-1.339 2.52-1.918 3.105-.176.186-.508.402-.961.583-.677.275-1.599.466-2.518.572-.92.108-1.84.138-2.55.138-.402 0-.737-.009-.968-.019-.116-.004-.206-.009-.266-.012l-.083-.005a1.303 1.303 0 0 0-1.171.573 1.303 1.303 0 0 0-.084 1.301l.034.07a42.649 42.649 0 0 1 1.876 4.688c.823 2.448 1.578 5.497 1.573 8.172.001 1.161-.139 2.245-.446 3.177-.308.935-.768 1.713-1.434 2.345-1.189 1.113-2.476 1.58-3.905 1.588-1.12.001-2.334-.311-3.566-.935-1.847-.932-3.715-2.565-5.282-4.741-1.569-2.174-2.839-4.882-3.539-7.94a1.255 1.255 0 0 0-.162-.359c1.208-2.29 2.371-4.851 3.341-7.114a162.24 162.24 0 0 0 1.875-4.58c.093.044.187.089.288.134 1.001.444 2.348.916 3.851.921.743 0 1.531-.123 2.294-.453a7.819 7.819 0 0 1 3.168-.655c1.21-.001 2.372.255 3.502.542 1.133.279 2.213.612 3.383.622.181 0 .363-.009.549-.031.396-.045.754-.273.962-.614.208-.341.247-.764.106-1.137-.029-.074-.512-1.342-1.641-2.92a15.283 15.283 0 0 0-2.785-2.967c1.132.029 2.572.34 4.292 1.423.434.274.985.267 1.413-.017.428-.284.648-.79.563-1.297-.019-.09-.32-1.922-1.481-3.936a11.13 11.13 0 0 0-1.011-1.461c.085.032.177.061.261.093 1.001.385 1.814.86 2.199 1.204.198.287.692 1.026 1.149 1.86.262.479.512.99.683 1.442.176.448.257.85.251 1.007l-.001.043ZM54.049 95.222c-2.062-3.48-2.556-6.425-2.556-8.21 0-.553.049-.994.105-1.28a1.295 1.295 0 0 0-.581-1.342 1.268 1.268 0 0 0-.427-.452 18.481 18.481 0 0 1-6.5-6.65 17.27 17.27 0 0 1-.912-1.84l8.317.493a1.297 1.297 0 0 0 1.292-.836 1.298 1.298 0 0 0-.41-1.483l-.01-.008c-.152-.12-1.821-1.49-3.411-3.606-.796-1.057-1.57-2.3-2.138-3.65-.569-1.353-.93-2.808-.929-4.32 0-.398.03-.801.083-1.208l11.998 7.354a1.3 1.3 0 0 0 1.36-2.217l-1.619-.992c.03-.099.072-.194.077-.302.612-12.252 3.647-22.441 9.85-29.51 3.106-3.541 7.008-6.331 11.888-8.257 4.878-1.924 10.743-2.976 17.734-2.976 1.918 0 3.925.084 6.014.246.554.155 1.211.349 1.892.57.7.226 1.423.48 2.075.745.651.263 1.234.541 1.624.784a6.015 6.015 0 0 1 1.805 1.746c.71 1.033 1.153 2.29 1.406 3.514.254 1.222.318 2.4.318 3.245 0 .128-.003.234-.006.346-.04.63-.054 1.01-.054 1.023a1.3 1.3 0 0 0 2.591.184c.004-.03.046-.45.062-1.106.113-1.72.452-5.415 1.36-9.162 14.678 2.987 24.815 7.835 31.247 14.048 3.281 3.168 5.62 6.689 7.153 10.551 1.531 3.863 2.256 8.076 2.256 12.622.002 6.32-1.408 13.277-3.99 20.72l-1.703.279a1.3 1.3 0 1 0 .42 2.566l14.588-2.386a9.943 9.943 0 0 1-1.623 3.364c-1.555 2.117-3.849 3.664-5.763 4.65-.955.494-1.812.85-2.422 1.08-.305.114-.549.198-.713.251l-.183.059-.043.013-.007.002a1.297 1.297 0 0 0-.941 1.217c-.014.57.341 1.079.88 1.263l7.887 2.69c-.43.427-.968.917-1.629 1.427a18.478 18.478 0 0 1-8.444 3.629 1.265 1.265 0 0 0-.648.333 1.29 1.29 0 0 0-.986.904h-.001c-.021.064-1.123 3.797-5.788 7.527-4.668 3.726-12.954 7.523-27.591 7.528-.415 0-.834-.003-1.259-.009-12.241-.184-23.078-1.917-36.802-6.963a23.961 23.961 0 0 0-2.433-2.956c-1.272-1.3-2.658-2.382-4.136-3.152-1.476-.768-3.054-1.224-4.67-1.224a8.37 8.37 0 0 0-2.316.325c-.228.065-.446.15-.665.232-6.3-3.946-9.92-7.967-11.973-11.433Zm48.422 26.675-10.367 10.966a1.447 1.447 0 0 1-1.016.413 1.406 1.406 0 0 1-1.1-.518c-.778-.95-1.836-2.635-2.929-4.784-1.096-2.153-2.244-4.781-3.274-7.676a29.513 29.513 0 0 0-1.452-3.366c7.198 2.472 13.718 4.043 20.138 4.965Zm-39.167-9.25c.473-.974 1.053-1.776 1.729-2.396a5.838 5.838 0 0 1 2.37-1.329 5.764 5.764 0 0 1 1.6-.224c1.122 0 2.289.317 3.47.931 1.77.918 3.546 2.512 5.09 4.531 1.546 2.018 2.863 4.453 3.772 7.01 1.069 3.001 2.256 5.723 3.408 7.984 1.155 2.263 2.259 4.053 3.232 5.249a4.007 4.007 0 0 0 3.114 1.473 4.055 4.055 0 0 0 2.833-1.154l.038-.037 11.701-12.378c3.742.417 7.485.63 11.345.686.437.006.87.009 1.297.009 2.1.001 4.07-.081 5.938-.224.037.007.066.029.103.033 1.268.15 2.225.6 3.015 1.207.913.701 1.581 1.646 2.053 2.551a9.772 9.772 0 0 0-2.899-.457c-2.297.003-3.713.856-3.845.935a1.301 1.301 0 0 0 .134 2.284c2.113.983 3.593 2.539 4.542 3.866.06.084.111.163.167.244a117.75 117.75 0 0 1-.775-.198c-1.173-.295-2.565-.621-4.139-.621a10.43 10.43 0 0 0-4.2.869 3.148 3.148 0 0 1-1.262.239c-.927.006-1.988-.331-2.787-.693a10.495 10.495 0 0 1-1.228-.652l-.062-.039-.011-.007-.001-.001a1.3 1.3 0 0 0-1.945.623s-.059.158-.172.452a154.875 154.875 0 0 1-2.742 6.672c-1.304 2.971-2.89 6.264-4.317 8.479-1.37 2.15-4.007 4.297-6.723 5.826-1.356.768-2.731 1.391-3.958 1.812-1.223.424-2.313.637-3.005.632a2.13 2.13 0 0 1-.581-.064c-.67-.194-1.953-.66-3.573-1.421-4.88-2.286-12.881-7.262-18.396-15.912-3.706-5.791-5.78-13.189-5.772-19.252-.003-2.961.494-5.593 1.442-7.538Z"/><path fill="#191C22" d="M71.85 49.427c3.344-2.727 7.588-3.807 11.786-3.808 4.6-.007 9.109 1.326 11.966 3.015a1.3 1.3 0 0 0 1.318-2.241c-3.344-1.958-8.188-3.367-13.284-3.374-4.628 0-9.494 1.19-13.428 4.393a1.3 1.3 0 1 0 1.643 2.015ZM122.978 54.971a15.575 15.575 0 0 1 3.35-.36c3.848-.002 7.644 1.377 10.866 3.387 3.22 2.002 5.851 4.639 7.345 6.968a1.3 1.3 0 0 0 2.187-1.407c-1.755-2.719-4.616-5.557-8.157-7.768-3.538-2.203-7.769-3.776-12.241-3.78-1.29 0-2.599.133-3.908.42a1.3 1.3 0 1 0 .558 2.54ZM73.618 84.898a5.244 5.244 0 0 0 5.493 1.283c5.272-1.866 9.465-4.373 12.421-7.103 1.477-1.368 2.649-2.793 3.477-4.26.823-1.465 1.315-2.99 1.318-4.537a6.446 6.446 0 0 0-.641-2.84c-.745-1.539-1.974-2.687-3.36-3.394-1.392-.713-2.937-1.024-4.485-1.025-1.663.001-3.342.36-4.892 1.053-.57.256-1.114.575-1.64.926-.74-1.406-1.707-2.565-2.807-3.443-1.797-1.437-3.913-2.15-5.952-2.152-1.95 0-3.89.666-5.292 2.108a7.47 7.47 0 0 0-1.692 2.81c-.356 1.045-.514 2.164-.514 3.326.005 2.637.799 5.515 2.244 8.464 1.45 2.947 3.57 5.96 6.322 8.784Zm4.454-12.523a1.3 1.3 0 0 1 .334 1.808l-.154.222a1.3 1.3 0 1 1-2.141-1.474l.153-.223a1.3 1.3 0 0 1 1.808-.333Zm-7.46-4.579c.303-.742.713-1.475 1.376-2.058.438-.381 1.055-.71 1.789-.71.589-.002 1.172.224 1.642.58.36.265.648.622.825 1.01.178.388.248.794.248 1.174-.009.88-.332 1.647-.77 2.323-.445.672-1.022 1.258-1.73 1.67-.473.272-1.02.473-1.646.476a2.576 2.576 0 0 1-1.284-.338 1.68 1.68 0 0 1-.536-.488 1.948 1.948 0 0 1-.258-.514 2.852 2.852 0 0 1-.132-.903c.005-.725.18-1.472.475-2.222ZM124.556 96.525a5.235 5.235 0 0 0 5.613.562c4.727-2.4 8.418-5.247 10.986-8.167 1.284-1.462 2.288-2.944 2.989-4.424.698-1.48 1.1-2.967 1.103-4.439.004-1.299-.336-2.597-1.065-3.696a7.458 7.458 0 0 0-3.057-2.651c-1.192-.564-2.483-.81-3.767-.81-1.861.003-3.722.507-5.392 1.42a11.46 11.46 0 0 0-2.074 1.477 10.938 10.938 0 0 0-2.753-2.709c-1.781-1.206-3.782-1.776-5.69-1.776a8.656 8.656 0 0 0-3.456.694c-1.07.466-2.043 1.182-2.766 2.154-1.046 1.401-1.498 3.12-1.495 4.875.011 2.805 1.072 5.803 2.915 8.808 1.85 3 4.518 6.002 7.909 8.682Zm3.355-12.99a1.3 1.3 0 0 1 .334 1.807l-.154.223a1.3 1.3 0 1 1-2.141-1.475l.153-.222a1.3 1.3 0 0 1 1.808-.334Zm-7.461-4.58c.303-.742.713-1.474 1.377-2.058.437-.381 1.054-.709 1.788-.709.589-.003 1.173.223 1.644.579.359.265.647.623.824 1.01.178.388.248.794.248 1.174-.009.881-.332 1.647-.769 2.324-.446.672-1.023 1.258-1.731 1.67-.473.272-1.02.473-1.646.476a2.578 2.578 0 0 1-1.285-.338 1.674 1.674 0 0 1-.535-.488 1.946 1.946 0 0 1-.258-.514 2.865 2.865 0 0 1-.132-.904c.005-.725.18-1.472.475-2.221ZM91.84 89.267c-2.327 2.544-3.816 6.329-3.827 10.192-.002 2.527.663 5.109 2.262 7.293 1.595 2.186 4.115 3.913 7.583 4.782 1.26.318 2.452.469 3.575.469 1.99.002 3.762-.481 5.254-1.31 2.243-1.245 3.835-3.226 4.861-5.398a16.108 16.108 0 0 0 1.511-6.767c-.005-1.884-.345-3.642-1.115-5.067a1.304 1.304 0 0 0-1.262-.672 24.78 24.78 0 0 1-2.287.103c-4.933.005-10.515-1.381-14.963-3.878a1.302 1.302 0 0 0-1.591.253Zm18.146 6.175c.297.837.476 1.912.473 3.086.006 2.431-.745 5.25-2.247 7.347-.749 1.052-1.675 1.928-2.786 2.544-1.113.615-2.416.982-3.993.984-.89 0-1.867-.119-2.939-.39-2.986-.759-4.898-2.135-6.121-3.797-1.22-1.664-1.76-3.674-1.76-5.757-.01-2.799 1.017-5.685 2.517-7.68 4.698 2.407 10.205 3.708 15.265 3.713.536 0 1.065-.02 1.591-.05Z"/></svg>