<svg width="200" height="200" viewBox="0 0 200 200" xmlns="http://www.w3.org/2000/svg"><g id="type=robot, mode=light"><g id="robo-cat"><g id="Group 432527046"><path id="Vector" d="M112.841 122.547C104.295 124.399 103.441 126.962 102.586 131.52C101.731 136.077 102.158 151.033 104.579 157.584C107.001 164.136 108.71 162.712 112.698 162.712C116.687 162.712 134.49 158.297 136.769 155.306C139.048 152.315 139.903 149.466 139.903 144.481C139.903 139.496 138.763 125.253 135.345 121.55C131.926 117.847 129.648 119.128 126.799 119.841C123.95 120.553 112.841 122.547 112.841 122.547Z"/><path id="Vector_2" d="M63.4873 123.971L72.3184 126.463L71.1074 137.289L61.707 134.44L63.4873 123.971Z"/><path id="Vector_3" d="M83.1426 147.045C79.0166 147.577 78.0869 154.451 83.7129 155.52C89.3389 156.587 87.5586 146.475 83.1426 147.045Z"/><g id="Group"><path id="Vector_4" d="M135.628 34.8101C135.628 34.8101 125.658 32.104 96.7451 32.104C73.956 32.104 59.2861 34.3833 59.2861 34.3833C57.4346 40.6499 56.2949 47.9136 56.2949 47.9136C56.2949 47.9136 64.5557 45.3501 65.6953 55.4624C66.835 65.5747 66.5498 75.1177 68.5439 83.2358C70.5381 91.355 75.8076 93.064 84.3535 94.2036C92.8994 95.3432 112.84 94.6304 119.818 92.0669C126.798 89.5034 127.652 85.3725 128.222 79.2485C128.792 73.1235 128.079 60.8745 128.507 56.0317C128.934 51.1899 129.646 49.1958 133.064 48.1987C136.482 47.2017 138.477 46.7739 138.477 46.7739L135.628 34.8101ZM81.0082 39.7175C78.1565 39.8682 75.0986 40.1106 72.6599 40.4893L72.66 40.4895C71.9503 40.5994 71.2859 40.1133 71.176 39.4036C71.066 38.6938 71.5521 38.0295 72.2618 37.9197C74.8524 37.519 77.9684 37.2751 80.8707 37.1213C81.5875 37.0832 82.1996 37.6338 82.2375 38.3506C82.2754 39.0674 81.725 39.6794 81.0082 39.7175ZM89.125 39.52C88.2711 39.5203 88.3112 39.5198 86.98 39.5461L86.9801 39.5464C86.2622 39.5605 85.6686 38.9902 85.6543 38.2724C85.6399 37.5547 86.2102 36.9609 86.9281 36.9468C88.2453 36.9204 88.2737 36.9199 89.125 36.9204C89.8428 36.9204 90.4248 37.5022 90.4248 38.2202C90.4248 38.938 89.8428 39.52 89.125 39.52ZM121.276 84.9492C120.476 86.0337 119.259 86.9387 117.619 87.4902L117.619 87.4905C116.939 87.7212 116.201 87.3572 115.97 86.6772C115.739 85.9973 116.103 85.2588 116.783 85.0281C118.004 84.6079 118.703 84.0442 119.189 83.3984C119.671 82.7507 119.943 81.968 120.093 81.0867C120.214 80.3787 120.885 79.9023 121.593 80.0225C122.3 80.1426 122.777 80.8137 122.657 81.5217C122.464 82.6577 122.08 83.8667 121.276 84.9492Z"/></g><path id="Vector_5" d="M190.745 66.7893C190.662 66.7635 174.504 60.8794 154.78 60.8741C150.77 60.8741 146.611 61.1236 142.41 61.7137C142.18 60.2901 141.939 58.8482 141.686 57.3897C150.465 55.2012 158.987 54.5022 166.137 54.503C171.839 54.503 176.669 54.9327 180.066 55.3611C181.764 55.5752 183.104 55.7893 184.015 55.9488C184.471 56.0286 184.82 56.0948 185.052 56.1404C185.169 56.1634 185.256 56.1812 185.313 56.1931L185.394 56.21C186.095 56.3623 186.788 55.917 186.94 55.2156C187.092 54.514 186.647 53.8218 185.946 53.6695C185.882 53.656 177.8 51.9038 166.137 51.9031C158.87 51.9036 150.208 52.5887 141.228 54.8091C138.636 40.5042 134.949 25.1546 129.885 13.7713C129.706 13.3702 129.336 13.0857 128.903 13.0164C128.469 12.9468 128.029 13.1014 127.734 13.4266C127.704 13.4625 120.386 21.5286 114.442 31.3475C109.621 31.1563 104.347 31.0491 98.846 31.0491C92.3387 31.0491 85.5305 31.1981 78.8289 31.5267C73.1006 22.1675 65.9024 13.6775 65.88 13.6487C65.5768 13.291 65.1104 13.1255 64.6498 13.2114C64.1891 13.2976 63.8138 13.6204 63.6602 14.0633C59.0674 27.3067 55.8138 41.2957 53.8011 54.7141C48.6622 53.9131 43.4768 53.6062 38.6029 53.6057C24.5323 53.6074 13.059 56.0633 13.0042 56.0735C12.3019 56.2237 11.8544 56.9146 12.0047 57.617C12.1548 58.3191 12.8459 58.7666 13.5481 58.6165L13.6692 58.5909C14.9195 58.3328 25.6921 56.2041 38.6029 56.2056C43.3811 56.2051 48.4491 56.5096 53.4307 57.2874C53.2313 58.7229 53.0451 60.1504 52.8744 61.5691C51.7127 61.5257 50.5582 61.4991 49.4176 61.4991C27.5157 61.5064 9.88053 69.0774 9.78837 69.1109C9.12834 69.3936 8.82255 70.158 9.10551 70.8181C9.38835 71.4781 10.1527 71.7837 10.8128 71.501L10.8551 71.4827C11.811 71.0757 28.779 64.0923 49.4176 64.0989C50.4583 64.0989 51.5157 64.1338 52.5735 64.1709C52.3516 66.2095 52.1609 68.2234 51.9986 70.2139C32.5735 72.9427 18.9854 80.4883 18.898 80.5315C18.2702 80.8799 18.0437 81.6714 18.3924 82.2993C18.7409 82.927 19.5324 83.1533 20.1602 82.805L20.2011 82.7822C21.0154 82.3338 33.826 75.4937 51.798 72.8653C51.4815 77.4417 51.3176 81.8684 51.3172 86.0681C51.3172 89.4868 51.4211 92.7608 51.6273 95.8562C51.7106 97.1406 52.187 98.3496 52.9478 99.4087C53.3026 99.9011 53.7179 100.364 54.1824 100.804C53.2727 102.839 52.3999 105.53 51.5558 108.724C49.0508 108.816 46.4951 109.927 44.0259 111.754C40.2451 114.563 36.6199 119.097 33.8257 124.78C31.0365 130.463 29.0928 137.303 28.7897 144.713C28.7671 145.263 28.756 145.786 28.756 146.285C28.7591 149.292 29.1446 151.399 29.8671 152.959C30.2287 153.735 30.683 154.371 31.2034 154.865C31.7227 155.36 32.302 155.707 32.8715 155.939C33.5451 156.215 34.246 156.347 34.9331 156.346C36.6767 156.342 38.2652 155.529 39.5407 154.338C40.6314 153.317 41.5065 151.991 42.1199 150.51C42.7073 150.54 43.2476 150.553 43.7139 150.553C44.1441 150.553 44.5128 150.544 44.8175 150.532C44.4763 154.03 44.185 157.486 43.9567 160.819C43.9237 161.293 43.908 161.762 43.908 162.222C43.9065 165.034 44.5116 167.588 45.6105 169.854C47.5363 173.827 50.9237 176.879 55.0582 179.232C61.2695 182.762 69.2258 184.789 77.088 185.972C84.9491 187.15 92.715 187.465 98.5027 187.465C118.206 187.462 132.026 184.24 141.038 179.556C145.542 177.212 148.848 174.496 151.049 171.6C153.248 168.708 154.334 165.617 154.332 162.63C154.332 162.341 154.323 162.053 154.302 161.767C154.053 158.223 153.705 154.452 153.272 150.544C153.496 150.549 153.743 150.554 154.018 150.554C154.484 150.554 155.024 150.54 155.612 150.51C156.225 151.991 157.1 153.317 158.191 154.338C159.466 155.529 161.055 156.342 162.798 156.346C163.486 156.347 164.187 156.215 164.86 155.939C165.43 155.706 166.009 155.36 166.528 154.865C167.312 154.122 167.933 153.07 168.343 151.681C168.754 150.287 168.975 148.542 168.975 146.285C168.975 145.787 168.965 145.263 168.942 144.713C168.536 134.832 165.222 125.97 160.86 119.501C158.676 116.266 156.229 113.626 153.706 111.754C151.214 109.91 148.633 108.793 146.106 108.719C145.287 105.271 144.429 101.954 143.537 98.8348C144.102 98.3404 144.597 97.8328 144.998 97.3008C145.689 96.3807 146.138 95.3523 146.14 94.2503C146.139 93.4405 146.066 92.0408 145.917 90.0928C145.599 85.9324 144.931 79.3277 143.867 71.511C152.325 72.5318 159.644 74.3401 165.179 76.0506C168.713 77.1424 171.522 78.1924 173.441 78.9666C174.401 79.3538 175.138 79.6722 175.633 79.8921C175.88 80.002 176.067 80.0874 176.19 80.1448L176.327 80.209L176.368 80.2283C177.014 80.5406 177.791 80.2698 178.104 79.6236C178.416 78.9771 178.145 78.1998 177.499 77.8875C177.414 77.8494 163.547 71.1514 143.496 68.848C143.284 67.3628 143.056 65.8387 142.817 64.2879C146.866 63.7217 150.89 63.4739 154.78 63.4739C164.384 63.4734 173.176 64.9163 179.553 66.3604C182.742 67.0823 185.328 67.8038 187.112 68.3433C188.003 68.6129 188.694 68.8372 189.16 68.993C189.393 69.0709 189.569 69.1316 189.687 69.1727L189.817 69.2186L189.856 69.2327C190.531 69.4781 191.277 69.1299 191.522 68.4554C191.768 67.7805 191.42 67.0347 190.745 66.7893ZM125.277 20.4151C126.498 18.8733 127.545 17.6184 128.314 16.7171C130.333 21.5662 132.131 27.1077 133.72 32.9571C130.438 32.409 125.8 31.9583 120.227 31.6282C119.316 31.5745 118.373 31.5252 117.416 31.478C120.084 27.2149 122.974 23.3223 125.277 20.4151ZM65.3771 17.1326C67.6142 19.9068 72.0108 25.5581 75.8747 31.6917C70.6697 31.991 65.5806 32.4046 60.7751 32.9475C62.1054 27.6194 63.6448 22.324 65.3771 17.1326ZM60.1317 35.6338C72.0598 34.2317 86.0396 33.6487 98.846 33.649C106.594 33.649 113.911 33.8596 120.074 34.2237C126.232 34.5862 131.255 35.1079 134.338 35.7061C134.375 35.7132 134.41 35.7014 134.447 35.7054C135.286 38.972 136.063 42.3072 136.777 45.6548C135.155 45.8902 133.75 46.1746 132.516 46.6172C131.574 46.9563 130.726 47.3933 129.994 47.9827C128.89 48.864 128.105 50.0879 127.652 51.5728C127.192 53.0623 127.014 54.8211 127.012 56.9925C127.012 57.1978 127.014 57.4065 127.017 57.6187C127.074 61.3262 127.11 64.5901 127.11 67.4676C127.114 75.5938 126.812 80.6497 125.977 83.8328C125.562 85.4268 125.033 86.5374 124.372 87.4097C123.708 88.2808 122.89 88.9475 121.778 89.5945C120.787 90.1709 119.365 90.721 117.648 91.1902C112.487 92.6104 104.714 93.3274 97.1425 93.3237C92.1386 93.324 87.2077 93.0159 83.1488 92.4226C81.1205 92.1267 79.3098 91.7588 77.8321 91.3328C76.3557 90.9109 75.2099 90.4146 74.5556 89.9549C73.0596 88.9124 71.9915 87.5384 71.1729 85.7693C69.9469 83.1226 69.356 79.5855 69.0044 75.417C68.648 71.2491 68.5138 66.46 68.0833 61.2886C67.833 58.291 67.5199 55.9121 67.0979 53.9942C66.7803 52.5557 66.4021 51.3733 65.9196 50.3821C65.2088 48.8999 64.1861 47.8269 62.9294 47.2422C61.6767 46.6538 60.3199 46.5249 58.8449 46.522C58.5103 46.522 58.163 46.5327 57.812 46.5447C58.4915 42.9192 59.2693 39.2744 60.1317 35.6338ZM45.5746 113.842C47.4522 112.446 49.2832 111.631 50.8835 111.392C50.2068 114.22 49.5535 117.369 48.931 120.723C48.0982 120.608 46.7229 120.398 45.2395 120.082C44.186 119.857 43.0837 119.579 42.1117 119.255C41.584 119.081 41.1006 118.889 40.6842 118.694C42.2659 116.702 43.9325 115.058 45.5746 113.842ZM37.7661 152.438C36.8363 153.307 35.8274 153.751 34.9331 153.747C34.5733 153.746 34.2207 153.681 33.856 153.532C33.5397 153.402 33.2625 153.234 32.9953 152.981C32.5993 152.602 32.1991 152.006 31.8817 150.942C31.646 150.149 31.4684 149.102 31.3942 147.753C33.4661 148.861 35.6311 149.539 37.6279 149.949C38.23 150.072 38.8168 150.171 39.3819 150.25C38.9361 151.104 38.3831 151.864 37.7661 152.438ZM45.0799 147.916C44.7747 147.934 44.3196 147.954 43.7139 147.954C42.3543 147.954 40.3411 147.85 38.1493 147.401C35.9565 146.953 33.5913 146.159 31.5047 144.813C31.4688 144.789 31.4276 144.787 31.3905 144.768C31.7788 135.431 34.9405 127.007 39.0271 120.956C39.0585 120.909 39.0911 120.866 39.1226 120.82C39.8463 121.204 40.6556 121.517 41.5121 121.795C43.2937 122.366 45.2608 122.763 46.7996 123.025C47.4541 123.136 48.0219 123.221 48.4688 123.284C47.1289 130.927 45.9593 139.486 45.0799 147.916ZM165.508 151.86C165.264 152.381 165.002 152.727 164.736 152.981C164.469 153.234 164.192 153.402 163.875 153.532C163.511 153.681 163.158 153.746 162.799 153.747C161.904 153.751 160.895 153.307 159.965 152.438C159.348 151.864 158.795 151.104 158.35 150.25C158.915 150.171 159.502 150.072 160.104 149.948C162.099 149.539 164.263 148.862 166.333 147.755C166.225 149.699 165.903 151.02 165.508 151.86ZM161.572 125.926C164.203 131.285 166.048 137.769 166.341 144.768C166.304 144.787 166.263 144.79 166.227 144.813L166.227 144.813C164.14 146.159 161.775 146.953 159.582 147.401C157.391 147.85 155.377 147.954 154.018 147.954C153.589 147.954 153.251 147.943 152.966 147.93C152.018 139.96 150.73 131.521 149.184 123.294C149.978 123.185 151.211 122.997 152.591 122.717C153.763 122.479 155.031 122.176 156.22 121.795C157.074 121.518 157.88 121.206 158.602 120.823C159.662 122.376 160.667 124.078 161.572 125.926ZM152.157 113.842C153.8 115.057 155.464 116.702 157.045 118.693C156.577 118.912 156.027 119.128 155.424 119.319C153.841 119.829 151.962 120.214 150.497 120.462C149.768 120.586 149.141 120.677 148.696 120.738C148.073 117.553 147.411 114.421 146.719 111.37C148.349 111.582 150.229 112.408 152.157 113.842ZM151.709 161.949C151.725 162.174 151.732 162.401 151.732 162.63C151.731 164.984 150.89 167.505 148.978 170.028C146.116 173.805 140.806 177.539 132.536 180.302C124.271 183.068 113.067 184.866 98.5027 184.865C89.8312 184.869 76.5876 184.13 65.6706 180.834C60.2121 179.191 55.3527 176.906 51.9395 173.862C50.2303 172.341 48.8789 170.637 47.9505 168.721C47.0231 166.803 46.5094 164.666 46.508 162.222C46.508 161.821 46.5218 161.413 46.5506 160.997C47.307 149.932 48.7465 137.476 50.5379 126.604C51.4334 121.167 52.4171 116.126 53.4438 111.86C53.7793 110.463 54.1209 109.158 54.4644 107.941C65.6005 113.669 81.387 116.123 96.8889 116.133C106.52 116.133 116.027 115.176 124.214 113.408C131.905 111.74 138.423 109.389 142.85 106.315C147.209 123.732 150.551 145.415 151.709 161.949ZM55.2288 105.409C55.5909 104.293 55.9522 103.298 56.3097 102.442C57.1717 102.99 58.1309 103.497 59.1792 103.972C63.3049 105.827 68.8482 107.174 75.3396 108.081C81.8289 108.985 89.2593 109.436 97.1033 109.437C98.1388 109.437 99.1819 109.429 100.231 109.413C112.987 109.22 124.252 107.213 132.41 104.48C136.017 103.268 139.014 101.921 141.297 100.484C141.585 101.511 141.871 102.554 142.152 103.621C142.137 103.632 142.118 103.634 142.103 103.645C138.23 106.626 131.633 109.154 123.665 110.867C115.695 112.589 106.346 113.534 96.889 113.533C81.4624 113.544 65.7399 110.987 55.2288 105.409ZM143.325 90.2908C143.471 92.1988 143.54 93.5882 143.54 94.2503C143.541 94.6199 143.385 95.117 142.918 95.7405C142.113 96.8299 140.392 98.1528 137.928 99.408C134.231 101.304 128.887 103.108 122.431 104.451C115.973 105.797 108.397 106.69 100.192 106.813C99.1562 106.829 98.126 106.837 97.1033 106.837C85.3064 106.839 74.4743 105.793 66.6366 103.766C62.7204 102.757 59.5568 101.494 57.4392 100.076C56.3792 99.3692 55.5857 98.6294 55.0626 97.8963C54.539 97.1594 54.2747 96.4463 54.2217 95.6834C54.0196 92.6516 53.9171 89.4343 53.9171 86.0681C53.9165 81.772 54.0932 77.2242 54.4309 72.5169C56.2868 72.2957 58.1885 72.1196 60.1352 72.0049C60.8517 71.9624 61.3983 71.3469 61.356 70.6304C61.3135 69.9138 60.6981 69.3672 59.9816 69.4097L59.9815 69.4095C58.1575 69.5181 56.3756 69.6809 54.6309 69.8802C54.7854 68.0454 54.969 66.1858 55.1748 64.3094C56.0175 64.3645 56.8565 64.407 57.7065 64.4886C58.4211 64.5572 59.0561 64.0335 59.1248 63.3189C59.1934 62.6043 58.6698 61.9693 57.9552 61.9007L57.9551 61.9004C57.1249 61.8206 56.2992 61.7571 55.4766 61.7019C55.6358 60.3875 55.8101 59.0642 55.9943 57.7346C57.3947 58.0042 58.7865 58.3028 60.1535 58.6602C60.8479 58.8416 61.5581 58.4258 61.7398 57.7312C61.9213 57.0366 61.5054 56.3264 60.8109 56.145L60.8108 56.1448C59.3445 55.7617 57.8574 55.4434 56.3638 55.1585C56.6611 53.1721 56.99 51.1729 57.343 49.1653C57.8775 49.1407 58.3877 49.1219 58.8449 49.1219C60.015 49.1197 60.9146 49.2315 61.5757 49.489C62.0748 49.6846 62.4606 49.9422 62.8429 50.3723C63.4113 51.0125 63.9612 52.1175 64.4116 53.9273C64.8644 55.7317 65.2183 58.2083 65.4923 61.5047C66.0597 68.2849 66.1016 74.503 66.8787 79.7481C67.2702 82.3714 67.8464 84.7598 68.8115 86.8574C69.7733 88.9519 71.1503 90.7586 73.0726 92.0904C74.1198 92.8118 75.4761 93.356 77.1123 93.8311C79.5632 94.5359 82.6437 95.052 86.0824 95.4007C89.5194 95.7481 93.3092 95.9236 97.1425 95.9236C102.301 95.9234 107.535 95.606 112.092 94.949C114.37 94.6199 116.48 94.2063 118.336 93.6975C120.193 93.1868 121.795 92.5882 123.082 91.8435C124.391 91.0865 125.531 90.1846 126.442 88.9827C127.126 88.0833 127.673 87.0303 128.101 85.792C129.375 82.0706 129.701 76.6846 129.71 67.4676C129.71 64.5689 129.674 61.2932 129.617 57.5789C129.614 57.3785 129.612 57.1829 129.612 56.9925C129.611 55.1929 129.752 53.7886 130.027 52.7261C130.232 51.927 130.506 51.3247 130.841 50.8443C131.347 50.1302 132.003 49.6311 133.039 49.201C134.07 48.7759 135.465 48.4651 137.237 48.2139C137.262 48.2102 137.281 48.1944 137.306 48.1895C137.804 50.6311 138.273 53.0664 138.707 55.4729C137.71 55.7508 136.711 56.0415 135.71 56.3599C135.026 56.5774 134.647 57.3089 134.865 57.9932C135.083 58.6773 135.814 59.0555 136.499 58.8379L136.498 58.8377C137.388 58.5545 138.275 58.3118 139.163 58.0618C139.394 59.3975 139.618 60.7254 139.829 62.0318C139.834 62.0611 139.838 62.0896 139.843 62.1189C139.539 62.1719 139.234 62.22 138.93 62.2769C138.224 62.4087 137.759 63.0879 137.891 63.794C138.023 64.4998 138.702 64.9649 139.408 64.833L139.408 64.8328C139.689 64.7803 139.969 64.7474 140.25 64.6983C140.453 66.0135 140.645 67.3028 140.828 68.5716C139.491 68.4483 138.132 68.3438 136.747 68.2647C136.03 68.2239 135.416 68.772 135.376 69.4891C135.335 70.2059 135.883 70.8201 136.6 70.8609L136.6 70.8607C138.165 70.9495 139.698 71.0721 141.202 71.2186C141.807 75.6097 142.29 79.6382 142.654 83.0704C142.957 85.9282 143.179 88.3784 143.325 90.2908Z"/><path id="Vector_6" d="M92.3797 127.278C82.1905 126.952 72.1019 125.501 63.7024 122.764C63.3401 122.646 62.9383 122.695 62.6146 122.896C62.291 123.096 62.069 123.435 62.0138 123.812L60.5216 133.988C60.4315 134.602 60.7912 135.197 61.3761 135.403C70.3272 138.552 81.1086 140.175 91.9997 140.548C92.3468 140.56 92.6815 140.434 92.9345 140.196C93.1876 139.959 93.3339 139.632 93.3436 139.285L93.6376 128.613C93.6571 127.899 93.0935 127.301 92.3797 127.278ZM70.2842 135.24C67.8364 134.676 65.4851 134.023 63.2534 133.278L64.368 125.677C66.5226 126.328 68.7597 126.901 71.0685 127.396L70.2842 135.24ZM80.4552 137.034C77.8564 136.707 75.3092 136.299 72.8407 135.804L73.6289 127.921C76.0549 128.374 78.542 128.748 81.0694 129.045L80.4552 137.034ZM90.7812 137.886C88.1789 137.773 85.5925 137.586 83.0407 137.321L83.6563 129.316C86.0847 129.55 88.5386 129.715 91.0034 129.817L90.7812 137.886Z"/><path id="Vector_7" d="M71.5548 147.11L72.7334 146.561C72.255 145.534 71.5404 144.692 70.6899 144.098C69.8401 143.506 68.8452 143.156 67.8115 143.155C67.1936 143.154 66.5638 143.284 65.9758 143.558C65.1068 143.961 64.4275 144.634 63.9879 145.421C63.5459 146.21 63.3285 147.112 63.3281 148.038C63.3282 148.909 63.5217 149.806 63.9189 150.661C64.3969 151.688 65.1113 152.53 65.9617 153.124C66.8114 153.716 67.8063 154.066 68.8401 154.067C69.4576 154.068 70.0874 153.938 70.6758 153.665C71.5458 153.261 72.2247 152.588 72.6642 151.801C73.1062 151.012 73.3236 150.11 73.324 149.184C73.3238 148.313 73.1307 147.416 72.7335 146.562L71.5548 147.11ZM70.3971 150.528C70.1917 150.89 69.9226 151.146 69.5791 151.307C69.3458 151.415 69.1028 151.467 68.8401 151.467C68.4061 151.468 67.9124 151.314 67.4491 150.991C66.9866 150.669 66.5637 150.183 66.2766 149.565C66.037 149.05 65.928 148.523 65.9281 148.038C65.9277 147.521 66.052 147.054 66.255 146.694C66.4602 146.332 66.7291 146.077 67.0728 145.916C67.3074 145.807 67.5497 145.755 67.8115 145.755C68.2454 145.754 68.7391 145.907 69.2025 146.231C69.6652 146.553 70.0885 147.039 70.376 147.658C70.6152 148.172 70.7241 148.698 70.724 149.184C70.7244 149.701 70.6 150.168 70.3971 150.528Z"/><path id="Vector_8" d="M86.9367 149.816L88.1154 149.267C87.637 148.24 86.9225 147.398 86.0719 146.804C85.2222 146.212 84.2272 145.862 83.1936 145.861C82.5745 145.86 81.9443 145.991 81.3564 146.265C80.4879 146.667 79.8085 147.34 79.3688 148.127C78.9266 148.916 78.7094 149.818 78.709 150.744C78.7091 151.616 78.9026 152.513 79.2997 153.367C79.778 154.395 80.4924 155.236 81.3428 155.83C82.1925 156.422 83.1874 156.772 84.2213 156.773C84.8395 156.774 85.4695 156.645 86.058 156.37C86.9275 155.967 87.6062 155.293 88.0458 154.507C88.4877 153.718 88.7052 152.816 88.7056 151.89C88.7054 151.019 88.5124 150.122 88.1155 149.268L86.9367 149.816ZM85.7786 153.234C85.5733 153.596 85.3041 153.852 84.9608 154.013C84.7269 154.121 84.4837 154.173 84.2213 154.174C83.7874 154.175 83.2935 154.021 82.8301 153.697C82.3673 153.375 81.9443 152.889 81.6574 152.271C81.4179 151.756 81.3088 151.23 81.309 150.744C81.3086 150.227 81.433 149.76 81.6357 149.4C81.8411 149.039 82.1098 148.783 82.453 148.623C82.6893 148.513 82.9323 148.461 83.1936 148.461C83.6276 148.46 84.1212 148.614 84.5847 148.937C85.0472 149.259 85.4703 149.745 85.7577 150.364C85.997 150.878 86.1057 151.404 86.1056 151.89C86.106 152.407 85.9816 152.874 85.7786 153.234Z"/><path id="Vector_9" d="M138.29 124.859C137.695 123.029 136.955 121.418 135.892 120.175C135.36 119.556 134.738 119.03 134.013 118.661C133.291 118.29 132.469 118.088 131.61 118.09C131.417 118.09 131.219 118.099 131.016 118.12L131.018 118.12C131.017 118.12 131.016 118.12 131.015 118.12C131.014 118.12 131.013 118.12 131.013 118.12L131.014 118.12C128.041 118.42 123.205 119.385 118.791 120.313C116.587 120.777 114.497 121.232 112.83 121.587C111.997 121.765 111.269 121.917 110.689 122.034C110.113 122.149 109.67 122.229 109.469 122.256C108.757 122.351 108.257 123.004 108.352 123.716C108.447 124.428 109.101 124.928 109.813 124.833C110.145 124.788 110.597 124.703 111.199 124.583C113.291 124.164 117.085 123.317 120.987 122.511C124.879 121.706 128.896 120.943 131.276 120.707L131.282 120.707C131.391 120.695 131.5 120.69 131.609 120.69C132.078 120.692 132.46 120.789 132.832 120.977C133.475 121.301 134.115 121.965 134.696 122.998C135.569 124.537 136.252 126.827 136.761 129.418C137.275 132.01 137.631 134.906 137.948 137.714C138.286 140.703 138.443 143.187 138.443 145.25C138.444 148.1 138.14 150.14 137.635 151.608C137.125 153.079 136.453 153.989 135.576 154.742C135.039 155.206 133.941 155.845 132.545 156.474C128.34 158.388 121.374 160.382 116.319 160.994C114.661 161.197 113.263 161.299 112.095 161.298C110.266 161.3 109.02 161.048 108.152 160.625C107.286 160.198 106.708 159.62 106.145 158.649C106.008 158.413 105.829 157.978 105.663 157.424C105.367 156.449 105.092 155.105 104.858 153.605C104.152 149.099 103.797 143.159 103.753 140.471C103.722 138.702 103.633 136.798 103.633 134.974C103.631 133.017 103.742 131.15 104.096 129.715C104.271 128.997 104.505 128.393 104.782 127.935C105.062 127.474 105.37 127.162 105.738 126.946C106.358 126.584 106.567 125.788 106.206 125.168C105.844 124.548 105.048 124.338 104.428 124.7L104.428 124.7C103.63 125.164 103.01 125.835 102.556 126.592C101.873 127.731 101.516 129.062 101.302 130.485C101.092 131.91 101.034 133.437 101.033 134.974C101.033 136.88 101.124 138.802 101.153 140.516C101.19 142.67 101.405 146.637 101.828 150.49C102.041 152.416 102.304 154.309 102.63 155.94C102.794 156.757 102.972 157.509 103.174 158.177C103.378 158.845 103.598 159.428 103.888 159.939C104.619 161.234 105.64 162.307 107.02 162.966C108.397 163.629 110.044 163.897 112.095 163.898C113.412 163.898 114.906 163.786 116.635 163.575C120.245 163.131 124.57 162.083 128.4 160.832C130.315 160.206 132.103 159.529 133.619 158.842C135.138 158.149 136.372 157.471 137.26 156.723C138.474 155.699 139.465 154.307 140.094 152.451C140.729 150.592 141.042 148.279 141.043 145.25C141.043 143.055 140.877 140.481 140.532 137.422C140.042 133.111 139.468 128.516 138.29 124.859Z"/><path id="Vector_10" d="M124.76 152.319C124.743 153.037 125.311 153.633 126.028 153.65C126.746 153.668 127.342 153.1 127.36 152.382C127.36 152.372 127.369 151.982 127.369 151.271C127.369 149.394 127.304 145.278 126.828 140.002C126.206 133.095 125.287 128.395 125.281 128.363C125.143 127.658 124.46 127.199 123.756 127.336C123.051 127.474 122.592 128.158 122.73 128.862L122.729 128.862C122.73 128.862 122.742 128.927 122.768 129.063C122.945 130.019 123.705 134.298 124.239 140.236C124.705 145.413 124.769 149.454 124.769 151.271C124.769 151.615 124.767 151.879 124.765 152.057C124.762 152.234 124.76 152.319 124.76 152.319Z"/><path id="Vector_11" d="M130.563 148.532C131.281 148.512 131.846 147.914 131.826 147.196C131.766 145.061 131.63 142.193 131.329 138.863C131.1 136.308 130.829 134.055 130.578 132.229C130.48 131.517 129.825 131.02 129.114 131.118C128.402 131.215 127.905 131.871 128.002 132.582L128.002 132.582C128.248 134.373 128.514 136.587 128.74 139.096C129.035 142.364 129.168 145.179 129.227 147.269C129.247 147.987 129.845 148.552 130.563 148.532Z"/><path id="Vector_12" d="M121.387 150.629C122.105 150.609 122.671 150.01 122.65 149.293C122.59 147.158 122.454 144.29 122.153 140.959C121.924 138.405 121.653 136.152 121.402 134.325C121.305 133.614 120.649 133.117 119.938 133.214C119.226 133.312 118.729 133.968 118.827 134.679L118.827 134.679C119.072 136.47 119.338 138.683 119.564 141.193C119.859 144.46 119.992 147.276 120.051 149.366C120.071 150.084 120.67 150.649 121.387 150.629Z"/><path id="Vector_13" d="M112.774 152.054C113.492 152.034 114.057 151.435 114.037 150.718C113.977 148.582 113.84 145.715 113.54 142.385C113.31 139.829 113.039 137.577 112.789 135.75C112.692 135.039 112.037 134.541 111.325 134.638C110.614 134.735 110.116 135.391 110.213 136.102L110.213 136.102C110.458 137.895 110.724 140.108 110.951 142.618C111.245 145.885 111.379 148.701 111.438 150.791C111.458 151.508 112.056 152.074 112.774 152.054Z"/><path id="Vector_14" d="M134.638 141.794C135.354 141.744 135.894 141.123 135.844 140.407C135.782 139.52 135.708 138.587 135.62 137.615C135.533 136.645 135.44 135.719 135.344 134.844C135.266 134.13 134.624 133.615 133.911 133.693C133.197 133.771 132.682 134.413 132.76 135.127L132.76 135.127C132.854 135.987 132.945 136.896 133.031 137.847C133.117 138.802 133.189 139.719 133.25 140.588C133.3 141.304 133.922 141.844 134.638 141.794Z"/><path id="Vector_15" d="M116.782 146.072C117.498 146.021 118.038 145.4 117.989 144.684C117.926 143.796 117.852 142.865 117.766 141.893C117.678 140.921 117.584 139.996 117.489 139.121C117.411 138.407 116.769 137.892 116.055 137.97C115.342 138.048 114.826 138.689 114.904 139.403L114.904 139.403C114.998 140.264 115.09 141.173 115.176 142.125C115.261 143.079 115.334 143.995 115.395 144.865C115.445 145.581 116.066 146.121 116.782 146.072Z"/><path id="Vector_16" d="M108.295 146.817C109.01 146.758 109.542 146.13 109.483 145.415L109.092 140.667C109.033 139.951 108.405 139.419 107.689 139.478C106.974 139.537 106.441 140.165 106.501 140.88L106.892 145.629C106.951 146.344 107.579 146.876 108.295 146.817Z"/><path id="Vector_17" d="M76.7585 62.6754C76.9157 62.8156 77.1263 62.8888 77.3366 62.8771L79.1872 62.7716C79.4005 62.7594 79.5964 62.6649 79.7387 62.5055C79.8809 62.3461 79.9525 62.1405 79.9404 61.9274L79.83 59.9957L81.6736 59.8907C81.8868 59.8785 82.0827 59.7841 82.2251 59.6246C82.3673 59.4652 82.4388 59.2596 82.4267 59.0465L82.3154 57.0956C82.323 57.0953 82.33 57.0992 82.3376 57.0987L84.1882 56.9933C84.2131 56.9918 84.2345 56.9789 84.2588 56.975L84.3666 58.8622C84.3784 59.0724 84.4755 59.2733 84.6326 59.4137C84.7898 59.5538 85.0003 59.6271 85.2107 59.6153L87.0613 59.5099C87.0845 59.5087 87.1042 59.4962 87.1269 59.493L87.2338 61.3641C87.2458 61.5775 87.3403 61.7733 87.4999 61.9156C87.6593 62.0577 87.8646 62.1292 88.078 62.1173L89.9276 62.0118C90.3686 61.9864 90.7058 61.6087 90.6808 61.1678L90.5655 59.1317C90.5536 58.9212 90.4567 58.7203 90.2994 58.5802C90.1423 58.4398 89.9316 58.3661 89.7213 58.3783L87.8707 58.4838C87.8472 58.4852 87.828 58.4977 87.805 58.5008L87.6982 56.6295C87.673 56.1883 87.2953 55.8509 86.8541 55.8763L85.0035 55.9818C84.9782 55.9833 84.9575 55.9965 84.9328 56.0004L84.8252 54.1139C84.7999 53.6727 84.4222 53.3353 83.981 53.3607L82.1305 53.4662C81.6892 53.4913 81.3521 53.8693 81.3773 54.3104L81.4887 56.2614C81.4809 56.2616 81.4742 56.2577 81.4664 56.2582L79.6158 56.3637C79.1745 56.3888 78.8375 56.7667 78.8626 57.2079L78.9729 59.1395L77.1295 59.2445C76.6882 59.2697 76.3512 59.6476 76.3763 60.0888L76.4925 62.1239C76.5044 62.3341 76.6014 62.535 76.7585 62.6754Z"/><path id="Vector_18" d="M93.4943 69.9214C93.6447 70.0691 93.8513 70.1524 94.062 70.1507L95.9156 70.1341C96.1292 70.1321 96.3294 70.0472 96.4792 69.8948C96.4965 69.8772 96.5035 69.8533 96.5188 69.8343L96.5332 71.4107C96.5351 71.6211 96.6223 71.8267 96.7726 71.9742C96.923 72.1219 97.1297 72.2051 97.3404 72.2034L99.1939 72.1868C99.4075 72.1849 99.6077 72.0999 99.7575 71.9476C99.9073 71.795 99.9887 71.5933 99.9867 71.3797L99.9729 69.8724C99.9803 69.8802 99.983 69.8907 99.9906 69.8982C100.143 70.0479 100.345 70.1292 100.559 70.1272L102.412 70.1097C102.626 70.1075 102.826 70.0225 102.976 69.8699C103.125 69.7173 103.207 69.5157 103.205 69.302L103.185 67.263C103.181 66.8211 102.819 66.4664 102.377 66.4707L100.525 66.4883C100.083 66.4925 99.7284 66.8536 99.7325 67.2955L99.7461 68.8025C99.7389 68.795 99.7361 68.7845 99.7285 68.7769C99.5761 68.6272 99.3742 68.5457 99.1606 68.5479L97.307 68.5655C97.0603 68.5677 96.8491 68.6878 96.7041 68.8646L96.6899 67.2879C96.6878 67.074 96.6028 66.8738 96.4502 66.7242C96.2978 66.5745 96.0959 66.493 95.8822 66.4952L94.0287 66.5128C93.5868 66.5169 93.2323 66.878 93.2364 67.3199L93.2549 69.358C93.2567 69.5684 93.344 69.774 93.4943 69.9214Z"/><path id="Vector_19" d="M105.156 61.3134L107.005 61.4306C107.446 61.4585 107.826 61.1238 107.854 60.6831L107.973 58.8161C107.998 58.82 108.018 58.8335 108.043 58.8349L109.893 58.9531C110.106 58.9665 110.312 58.8965 110.472 58.7551C110.633 58.614 110.728 58.4187 110.742 58.2055L110.862 56.3171C110.896 56.3237 110.926 56.3415 110.961 56.3437L112.805 56.4614L112.68 58.4113C112.667 58.6245 112.737 58.8305 112.878 58.9909C113.02 59.1513 113.215 59.247 113.428 59.2607L115.267 59.3772L115.143 61.3127C115.115 61.7536 115.45 62.1338 115.891 62.1621L117.74 62.2803C117.954 62.2937 118.159 62.2236 118.32 62.0823C118.48 61.9411 118.576 61.7458 118.59 61.5327L118.72 59.4975C118.747 59.0566 118.413 58.6762 117.972 58.6482L116.133 58.5307L116.257 56.5962C116.285 56.1552 115.95 55.7749 115.509 55.7468L113.665 55.6289L113.79 53.6792C113.818 53.2382 113.483 52.8579 113.042 52.8298L111.193 52.7116C110.752 52.6833 110.371 53.018 110.343 53.4592L110.223 55.3476C110.189 55.3408 110.16 55.3232 110.124 55.321L108.274 55.2029C108.063 55.1894 107.852 55.2617 107.694 55.4009C107.536 55.54 107.438 55.7402 107.424 55.9507L107.306 57.8183C107.282 57.8144 107.262 57.8012 107.237 57.7995L105.386 57.6814C105.176 57.6679 104.965 57.7402 104.807 57.8794C104.648 58.0185 104.55 58.2187 104.537 58.4292L104.408 60.4643C104.394 60.6745 104.467 60.8857 104.606 61.0437C104.745 61.2019 104.945 61.3 105.156 61.3134Z"/></g></g></g></svg>