<svg xmlns="http://www.w3.org/2000/svg" width="200" height="200" fill="none"><path fill="#FFD93A" d="M112.841 122.547c-8.546 1.852-9.4 4.415-10.255 8.973-.855 4.557-.428 19.513 1.993 26.064 2.422 6.552 4.131 5.128 8.119 5.128 3.989 0 21.792-4.415 24.071-7.406 2.279-2.991 3.134-5.84 3.134-10.825 0-4.985-1.14-19.228-4.558-22.931-3.419-3.703-5.697-2.422-8.546-1.709-2.849.712-13.958 2.706-13.958 2.706ZM63.487 123.971l8.831 2.492-1.21 10.826-9.401-2.849 1.78-10.469ZM83.143 147.045c-4.126.532-5.056 7.406.57 8.475 5.626 1.067 3.846-9.045-.57-8.475ZM135.628 34.81s-9.97-2.706-38.883-2.706c-22.789 0-37.459 2.28-37.459 2.28-1.851 6.266-2.991 13.53-2.991 13.53s8.26-2.564 9.4 7.548c1.14 10.113.855 19.656 2.849 27.774 1.994 8.119 7.264 9.828 15.81 10.968 8.545 1.14 28.486.426 35.464-2.137 6.98-2.564 7.834-6.694 8.404-12.818.57-6.125-.143-18.374.285-23.217.427-4.842 1.139-6.836 4.557-7.833 3.418-.997 5.413-1.425 5.413-1.425l-2.849-11.964Zm-54.62 4.907c-2.852.151-5.91.394-8.348.772a1.3 1.3 0 0 1-.398-2.57c2.59-.4 5.706-.644 8.609-.798a1.3 1.3 0 1 1 .137 2.596Zm8.117-.197c-.854 0-.814 0-2.145.026a1.3 1.3 0 0 1-.052-2.6c1.317-.026 1.346-.026 2.197-.026a1.3 1.3 0 1 1 0 2.6Zm32.151 45.43c-.8 1.084-2.017 1.989-3.657 2.54a1.3 1.3 0 0 1-.836-2.462c1.221-.42 1.92-.984 2.406-1.63.482-.647.754-1.43.904-2.311a1.301 1.301 0 0 1 2.564.435c-.193 1.136-.577 2.345-1.381 3.427Z"/><path fill="#191C22" d="M190.745 66.79c-.083-.027-16.241-5.91-35.965-5.916-4.01 0-8.169.25-12.37.84-.23-1.424-.471-2.866-.724-4.324 8.779-2.189 17.301-2.888 24.451-2.887 5.702 0 10.532.43 13.929.858 1.698.214 3.038.428 3.949.588a51.091 51.091 0 0 1 1.298.244l.081.017a1.3 1.3 0 0 0 .552-2.54c-.064-.014-8.146-1.766-19.809-1.767-7.267 0-15.929.686-24.909 2.906-2.592-14.305-6.279-29.654-11.343-41.038a1.302 1.302 0 0 0-2.151-.344c-.03.036-7.348 8.102-13.292 17.92a396.87 396.87 0 0 0-15.596-.298c-6.507 0-13.316.15-20.017.478-5.728-9.36-12.927-17.85-12.949-17.878a1.295 1.295 0 0 0-1.23-.438c-.46.087-.836.41-.99.852-4.593 13.244-7.846 27.233-9.859 40.651-5.139-.8-10.324-1.108-15.198-1.108-14.07.001-25.544 2.457-25.599 2.468a1.3 1.3 0 1 0 .544 2.543l.121-.026c1.25-.258 12.023-2.387 24.934-2.385 4.778 0 9.846.304 14.828 1.081-.2 1.436-.386 2.863-.557 4.282a92.753 92.753 0 0 0-3.456-.07c-21.902.007-39.537 7.578-39.63 7.612a1.3 1.3 0 1 0 1.025 2.39l.042-.018c.956-.407 17.924-7.39 38.563-7.384 1.04 0 2.098.035 3.156.072a224.234 224.234 0 0 0-.575 6.043C32.574 72.943 18.985 80.488 18.898 80.53a1.3 1.3 0 1 0 1.262 2.274l.041-.023c.814-.448 13.625-7.288 31.597-9.917-.317 4.577-.48 9.003-.48 13.203 0 3.419.103 6.693.31 9.788.083 1.285.559 2.494 1.32 3.553.355.492.77.955 1.234 1.395-.91 2.035-1.782 4.726-2.626 7.92-2.505.092-5.06 1.203-7.53 3.03-3.78 2.809-7.406 7.343-10.2 13.026-2.79 5.683-4.733 12.523-5.036 19.933-.023.55-.034 1.073-.034 1.572.003 3.007.389 5.114 1.111 6.674.362.776.816 1.412 1.336 1.906.52.495 1.099.842 1.668 1.074a5.415 5.415 0 0 0 2.062.407c1.744-.004 3.332-.817 4.608-2.008 1.09-1.021 1.966-2.347 2.579-3.828.587.03 1.128.043 1.594.043.43 0 .799-.009 1.104-.021a359.676 359.676 0 0 0-.861 10.287c-.033.474-.049.943-.049 1.403-.002 2.812.604 5.366 1.703 7.632 1.925 3.973 5.313 7.025 9.447 9.378 6.212 3.53 14.168 5.557 22.03 6.74 7.861 1.178 15.627 1.493 21.415 1.493 19.703-.003 33.523-3.225 42.535-7.909 4.504-2.344 7.81-5.06 10.011-7.956 2.199-2.892 3.285-5.983 3.283-8.97 0-.289-.009-.577-.03-.863a282.176 282.176 0 0 0-1.03-11.223c.224.005.471.01.746.01.466 0 1.006-.014 1.594-.044.613 1.481 1.488 2.807 2.579 3.828 1.275 1.191 2.864 2.004 4.607 2.008a5.412 5.412 0 0 0 2.062-.407 5.331 5.331 0 0 0 1.668-1.074c.784-.743 1.405-1.795 1.815-3.184.411-1.394.632-3.139.632-5.396 0-.498-.01-1.022-.033-1.572-.406-9.881-3.72-18.743-8.082-25.212-2.184-3.235-4.631-5.875-7.154-7.747-2.492-1.844-5.073-2.961-7.6-3.035a226.608 226.608 0 0 0-2.569-9.884 10.356 10.356 0 0 0 1.461-1.534c.691-.92 1.14-1.949 1.142-3.05-.001-.81-.074-2.21-.223-4.158-.318-4.16-.986-10.765-2.05-18.582a122.477 122.477 0 0 1 21.312 4.54 105.464 105.464 0 0 1 8.262 2.916c.96.387 1.697.705 2.192.925.247.11.434.195.557.253l.137.064.041.02a1.3 1.3 0 0 0 1.131-2.341c-.085-.039-13.952-6.737-34.003-9.04-.212-1.485-.44-3.01-.679-4.56a86.583 86.583 0 0 1 11.963-.814c9.604 0 18.396 1.442 24.773 2.886 3.189.722 5.775 1.444 7.559 1.983a74.624 74.624 0 0 1 2.575.83l.13.046.039.014a1.3 1.3 0 0 0 .889-2.444Zm-65.468-46.375a131.455 131.455 0 0 1 3.037-3.698c2.019 4.85 3.817 10.39 5.406 16.24-3.282-.548-7.92-.999-13.493-1.329a295.25 295.25 0 0 0-2.811-.15c2.668-4.263 5.558-8.156 7.861-11.063Zm-59.9-3.282c2.237 2.774 6.634 8.425 10.498 14.559-5.205.299-10.294.713-15.1 1.255a213.265 213.265 0 0 1 4.602-15.814Zm-5.245 18.5C72.06 34.233 86.04 33.65 98.846 33.65c7.748 0 15.065.21 21.228.575 6.158.362 11.181.884 14.264 1.482.037.007.072-.005.109 0a248.328 248.328 0 0 1 2.33 9.949c-1.622.235-3.027.52-4.261.962-.942.34-1.79.776-2.522 1.366-1.104.881-1.889 2.105-2.342 3.59-.46 1.49-.638 3.248-.64 5.42 0 .205.002.413.005.626.057 3.707.093 6.971.093 9.849.004 8.126-.298 13.182-1.133 16.365-.415 1.594-.944 2.704-1.605 3.577-.664.87-1.482 1.538-2.594 2.184-.991.577-2.413 1.127-4.13 1.596-5.161 1.42-12.934 2.137-20.505 2.134-5.004 0-9.935-.308-13.994-.901-2.028-.296-3.84-.664-5.317-1.09-1.476-.422-2.622-.918-3.276-1.378-1.496-1.043-2.564-2.417-3.383-4.186-1.226-2.646-1.817-6.184-2.169-10.352-.356-4.168-.49-8.957-.92-14.128-.251-2.998-.564-5.377-.986-7.295-.318-1.438-.696-2.62-1.178-3.612-.711-1.482-1.734-2.555-2.99-3.14-1.253-.588-2.61-.717-4.085-.72-.335 0-.682.01-1.033.023a236.01 236.01 0 0 1 2.32-10.911Zm-14.557 78.209c1.877-1.396 3.708-2.211 5.308-2.45-.676 2.828-1.33 5.977-1.952 9.331a52.983 52.983 0 0 1-3.691-.641 29.955 29.955 0 0 1-3.128-.827 12.997 12.997 0 0 1-1.428-.561c1.582-1.992 3.248-3.636 4.89-4.852Zm-7.809 38.596c-.93.869-1.939 1.313-2.833 1.309a2.815 2.815 0 0 1-1.077-.215 2.7 2.7 0 0 1-.86-.551c-.397-.379-.797-.975-1.114-2.039-.236-.793-.414-1.84-.488-3.189 2.072 1.108 4.237 1.786 6.234 2.196.602.123 1.189.222 1.754.301-.446.854-.999 1.614-1.616 2.188Zm7.314-4.522c-.305.018-.76.038-1.366.038-1.36 0-3.373-.104-5.565-.553-2.193-.448-4.558-1.242-6.644-2.588-.036-.024-.077-.026-.114-.045.388-9.337 3.55-17.761 7.636-23.812l.096-.136c.723.384 1.533.697 2.39.975 1.78.571 3.748.968 5.287 1.23.654.111 1.222.196 1.669.259-1.34 7.643-2.51 16.202-3.39 24.632Zm120.428 3.944c-.244.521-.506.867-.772 1.121a2.692 2.692 0 0 1-.861.551 2.81 2.81 0 0 1-1.076.215c-.895.004-1.904-.44-2.834-1.309-.617-.574-1.17-1.334-1.615-2.188a27.734 27.734 0 0 0 1.754-.302c1.995-.409 4.159-1.086 6.229-2.193-.108 1.944-.43 3.265-.825 4.105Zm-3.936-25.934c2.631 5.359 4.476 11.843 4.769 18.842-.037.019-.078.022-.114.045-2.087 1.346-4.452 2.14-6.645 2.588a28.269 28.269 0 0 1-5.564.553c-.429 0-.767-.011-1.052-.024a375.152 375.152 0 0 0-3.782-24.636 55.297 55.297 0 0 0 3.407-.577 34.79 34.79 0 0 0 3.629-.922c.854-.277 1.66-.589 2.382-.972a41.188 41.188 0 0 1 2.97 5.103Zm-9.415-12.084c1.643 1.215 3.307 2.86 4.888 4.851-.468.219-1.018.435-1.621.626-1.583.51-3.462.895-4.927 1.143a56.66 56.66 0 0 1-1.801.276 321.016 321.016 0 0 0-1.977-9.368c1.63.212 3.51 1.038 5.438 2.472Zm-.448 48.107a9.6 9.6 0 0 1 .023.681c-.001 2.354-.842 4.875-2.754 7.398-2.862 3.777-8.172 7.511-16.442 10.274-8.265 2.766-19.469 4.564-34.033 4.563-8.672.004-21.915-.735-32.832-4.031-5.459-1.643-10.318-3.928-13.732-6.972-1.709-1.521-3.06-3.225-3.989-5.141-.927-1.918-1.44-4.055-1.442-6.499 0-.401.014-.809.043-1.225.756-11.065 2.195-23.521 3.987-34.393.895-5.437 1.88-10.478 2.906-14.744.335-1.397.677-2.702 1.02-3.919 11.136 5.728 26.923 8.182 42.425 8.192 9.631 0 19.138-.957 27.325-2.725 7.691-1.668 14.209-4.019 18.636-7.093 4.359 17.417 7.701 39.1 8.859 55.634Zm-96.48-56.54a39.135 39.135 0 0 1 1.08-2.967 23.188 23.188 0 0 0 2.87 1.53c4.126 1.855 9.67 3.202 16.16 4.109 6.49.904 13.92 1.355 21.764 1.356 1.036 0 2.079-.008 3.128-.024 12.756-.193 24.021-2.2 32.179-4.933 3.607-1.212 6.604-2.559 8.887-3.996.288 1.027.574 2.07.855 3.137-.015.011-.034.013-.049.024-3.873 2.981-10.47 5.509-18.438 7.222-7.97 1.722-17.319 2.667-26.776 2.666-15.427.011-31.15-2.546-41.66-8.124Zm88.096-15.118c.146 1.908.215 3.297.215 3.96.001.369-.155.866-.622 1.49-.805 1.089-2.526 2.412-4.99 3.667-3.697 1.896-9.041 3.7-15.497 5.043-6.458 1.346-14.034 2.239-22.239 2.362-1.036.016-2.066.024-3.089.024-11.797.002-22.629-1.044-30.466-3.071-3.917-1.009-7.08-2.272-9.198-3.69-1.06-.707-1.853-1.447-2.376-2.18-.524-.737-.788-1.45-.841-2.213-.202-3.031-.305-6.249-.305-9.615 0-4.296.176-8.844.514-13.551a95.76 95.76 0 0 1 5.704-.512 1.3 1.3 0 0 0-.153-2.595 98.845 98.845 0 0 0-5.351.47c.154-1.835.338-3.694.544-5.57.843.055 1.681.097 2.532.179a1.3 1.3 0 0 0 .248-2.588c-.83-.08-1.656-.144-2.478-.2.159-1.313.333-2.637.517-3.966 1.4.27 2.792.568 4.16.925a1.3 1.3 0 0 0 .657-2.515 67.97 67.97 0 0 0-4.447-.987c.297-1.986.626-3.985.979-5.993a33.613 33.613 0 0 1 1.502-.043c1.17-.002 2.07.11 2.73.367.5.196.886.453 1.268.883.568.64 1.118 1.745 1.569 3.555.452 1.805.806 4.281 1.08 7.578.568 6.78.61 12.998 1.387 18.243.391 2.623.967 5.012 1.932 7.11.962 2.094 2.34 3.9 4.262 5.232 1.047.722 2.403 1.266 4.04 1.741 2.45.705 5.53 1.221 8.97 1.57 3.436.347 7.226.523 11.06.523 5.158 0 10.392-.318 14.949-.975 2.279-.33 4.388-.743 6.244-1.251 1.857-.511 3.459-1.11 4.746-1.854 1.309-.757 2.449-1.66 3.36-2.861.684-.9 1.231-1.953 1.659-3.191 1.274-3.721 1.6-9.107 1.609-18.324 0-2.9-.036-6.175-.093-9.89-.003-.2-.005-.395-.005-.586-.001-1.8.14-3.203.415-4.266.205-.799.479-1.401.814-1.882.506-.714 1.162-1.213 2.198-1.643 1.031-.425 2.426-.736 4.198-.987.025-.004.044-.02.069-.024a326.18 326.18 0 0 1 1.401 7.283 86.38 86.38 0 0 0-2.997.887 1.3 1.3 0 1 0 .789 2.478h-.001c.89-.284 1.777-.526 2.665-.776.231 1.336.455 2.663.666 3.97l.014.087c-.304.053-.609.101-.913.158a1.3 1.3 0 1 0 .478 2.556c.281-.053.561-.086.842-.135.203 1.316.395 2.605.578 3.874a117.105 117.105 0 0 0-4.081-.307 1.3 1.3 0 0 0-.147 2.596c1.565.088 3.098.211 4.602.358.605 4.39 1.088 8.42 1.452 11.851.303 2.858.525 5.308.671 7.22Z"/><path fill="#191C22" d="M92.38 127.278c-10.19-.326-20.278-1.777-28.678-4.514a1.306 1.306 0 0 0-1.087.132c-.324.2-.546.539-.601.916l-1.492 10.176c-.09.614.27 1.209.854 1.415 8.951 3.149 19.733 4.772 30.624 5.145.347.012.681-.114.934-.352.254-.237.4-.564.41-.911l.294-10.672a1.302 1.302 0 0 0-1.258-1.335Zm-22.096 7.962a76.437 76.437 0 0 1-7.03-1.962l1.114-7.601a84.228 84.228 0 0 0 6.7 1.719l-.784 7.844Zm10.171 1.794a106.285 106.285 0 0 1-7.614-1.23l.788-7.883c2.426.453 4.913.827 7.44 1.124l-.614 7.989Zm10.326.852c-2.602-.113-5.189-.3-7.74-.565l.615-8.005c2.429.234 4.883.399 7.347.501l-.222 8.069ZM71.555 147.11l1.178-.549a6.168 6.168 0 0 0-2.043-2.463c-.85-.592-1.845-.942-2.879-.943a4.332 4.332 0 0 0-1.835.403 4.419 4.419 0 0 0-1.988 1.863 5.345 5.345 0 0 0-.66 2.617c0 .871.194 1.768.59 2.623a6.164 6.164 0 0 0 2.044 2.463c.85.592 1.844.942 2.878.943a4.349 4.349 0 0 0 1.836-.402 4.422 4.422 0 0 0 1.988-1.864c.442-.789.66-1.691.66-2.617 0-.871-.193-1.768-.59-2.622l-1.18.548Zm-1.158 3.418a1.81 1.81 0 0 1-.818.779c-.233.108-.476.16-.739.16-.434.001-.928-.153-1.39-.476a3.565 3.565 0 0 1-1.173-1.426 3.64 3.64 0 0 1-.349-1.527c0-.517.124-.984.327-1.344.205-.362.474-.617.818-.778.234-.109.477-.161.739-.161.433-.001.927.152 1.39.476.463.322.886.808 1.174 1.427.24.514.348 1.04.348 1.526 0 .517-.124.984-.327 1.344ZM86.937 149.816l1.178-.549a6.167 6.167 0 0 0-2.043-2.463c-.85-.592-1.845-.942-2.878-.943-.62-.001-1.25.13-1.838.404a4.413 4.413 0 0 0-1.987 1.862 5.343 5.343 0 0 0-.66 2.617c0 .872.194 1.769.59 2.623a6.16 6.16 0 0 0 2.044 2.463c.85.592 1.844.942 2.878.943a4.322 4.322 0 0 0 1.837-.403 4.421 4.421 0 0 0 1.988-1.863c.442-.789.66-1.691.66-2.617 0-.871-.194-1.768-.59-2.622l-1.18.548Zm-1.158 3.418a1.81 1.81 0 0 1-.818.779c-.234.108-.477.16-.74.161-.434.001-.928-.153-1.39-.477a3.561 3.561 0 0 1-1.174-1.426 3.636 3.636 0 0 1-.348-1.527c0-.517.124-.984.327-1.344.205-.361.474-.617.817-.777.236-.11.48-.162.74-.162.435-.001.928.153 1.392.476.462.322.885.808 1.173 1.427.239.514.348 1.04.348 1.526 0 .517-.124.984-.327 1.344ZM138.29 124.859c-.595-1.83-1.335-3.441-2.398-4.684-.532-.619-1.154-1.145-1.879-1.514a5.227 5.227 0 0 0-2.403-.571c-.193 0-.391.009-.594.03h.002-.005.001c-2.973.3-7.809 1.265-12.223 2.193-2.204.464-4.294.919-5.961 1.274-.833.178-1.561.33-2.141.447a24.94 24.94 0 0 1-1.22.222 1.3 1.3 0 1 0 .344 2.577c.332-.045.784-.13 1.386-.25 2.092-.419 5.886-1.266 9.788-2.072 3.892-.805 7.909-1.568 10.289-1.804h.006c.109-.012.218-.017.327-.017.469.002.851.099 1.223.287.643.324 1.283.988 1.864 2.021.873 1.539 1.556 3.829 2.065 6.42.514 2.592.87 5.488 1.187 8.296.338 2.989.495 5.473.495 7.536.001 2.85-.303 4.89-.808 6.358-.51 1.471-1.182 2.381-2.059 3.134-.537.464-1.635 1.103-3.031 1.732-4.205 1.914-11.171 3.908-16.226 4.52-1.658.203-3.056.305-4.224.304-1.829.002-3.075-.25-3.943-.673-.866-.427-1.444-1.005-2.007-1.976-.137-.236-.316-.671-.482-1.225-.296-.975-.571-2.319-.805-3.819-.706-4.506-1.061-10.446-1.105-13.134-.031-1.769-.12-3.673-.12-5.497-.002-1.957.109-3.824.463-5.259.175-.718.409-1.322.686-1.78.28-.461.588-.773.956-.989a1.301 1.301 0 0 0-1.31-2.246c-.798.464-1.418 1.135-1.872 1.892-.683 1.139-1.04 2.47-1.254 3.893-.21 1.425-.268 2.952-.269 4.489 0 1.906.091 3.828.12 5.542.037 2.154.252 6.121.675 9.974.213 1.926.476 3.819.802 5.45.164.817.342 1.569.544 2.237.204.668.424 1.251.714 1.762.731 1.295 1.752 2.368 3.132 3.027 1.377.663 3.024.931 5.075.932 1.317 0 2.811-.112 4.54-.323 3.61-.444 7.935-1.492 11.765-2.743 1.915-.626 3.703-1.303 5.219-1.99 1.519-.693 2.753-1.371 3.641-2.119 1.214-1.024 2.205-2.416 2.834-4.272.635-1.859.948-4.172.949-7.201 0-2.195-.166-4.769-.511-7.828-.49-4.311-1.064-8.906-2.242-12.563Z"/><path fill="#191C22" d="M124.76 152.319a1.3 1.3 0 0 0 2.6.063c0-.01.009-.4.009-1.111 0-1.877-.065-5.993-.541-11.269-.622-6.907-1.541-11.607-1.547-11.639a1.3 1.3 0 0 0-2.551.499h-.001l.039.201c.177.956.937 5.235 1.471 11.173.466 5.177.53 9.218.53 11.035 0 .344-.002.608-.004.786l-.005.262ZM130.563 148.532a1.3 1.3 0 0 0 1.263-1.336 142.133 142.133 0 0 0-1.248-14.967 1.299 1.299 0 1 0-2.576.353c.246 1.791.512 4.005.738 6.514.295 3.268.428 6.083.487 8.173a1.3 1.3 0 0 0 1.336 1.263ZM121.387 150.629a1.3 1.3 0 0 0 1.263-1.336c-.06-2.135-.196-5.003-.497-8.334-.229-2.554-.5-4.807-.751-6.634a1.3 1.3 0 1 0-2.575.354c.245 1.791.511 4.004.737 6.514.295 3.267.428 6.083.487 8.173a1.3 1.3 0 0 0 1.336 1.263ZM112.774 152.054a1.3 1.3 0 0 0 1.263-1.336c-.06-2.136-.197-5.003-.497-8.333-.23-2.556-.501-4.808-.751-6.635a1.3 1.3 0 1 0-2.576.352c.245 1.793.511 4.006.738 6.516.294 3.267.428 6.083.487 8.173a1.3 1.3 0 0 0 1.336 1.263ZM134.638 141.794a1.3 1.3 0 0 0 1.206-1.387 140.615 140.615 0 0 0-.5-5.563 1.3 1.3 0 1 0-2.584.283 146.572 146.572 0 0 1 .49 5.461 1.3 1.3 0 0 0 1.388 1.206ZM116.782 146.072a1.303 1.303 0 0 0 1.207-1.388c-.063-.888-.137-1.819-.223-2.791a155.64 155.64 0 0 0-.277-2.772 1.3 1.3 0 0 0-2.585.282c.094.861.186 1.77.272 2.722.085.954.158 1.87.219 2.74.05.716.671 1.256 1.387 1.207ZM108.295 146.817a1.3 1.3 0 0 0 1.188-1.402l-.391-4.748a1.3 1.3 0 0 0-2.591.213l.391 4.749a1.3 1.3 0 0 0 1.403 1.188ZM76.758 62.675c.158.14.368.214.579.202l1.85-.105a.795.795 0 0 0 .552-.267.795.795 0 0 0 .201-.578l-.11-1.931 1.844-.105a.795.795 0 0 0 .551-.266.795.795 0 0 0 .202-.578l-.112-1.951c.008 0 .015.003.023.003l1.85-.106c.025-.001.046-.014.07-.018l.109 1.887c.011.21.108.411.266.552.157.14.367.213.578.201l1.85-.105c.023-.001.043-.014.066-.017l.107 1.871a.796.796 0 0 0 .844.753l1.85-.105a.8.8 0 0 0 .753-.844l-.115-2.036a.804.804 0 0 0-.845-.754l-1.85.106c-.024.001-.043.014-.066.017l-.107-1.871a.8.8 0 0 0-.844-.754l-1.85.106c-.026.001-.047.014-.071.018l-.108-1.886a.8.8 0 0 0-.844-.753l-1.85.105a.8.8 0 0 0-.754.844l.112 1.951c-.008 0-.015-.003-.023-.003l-1.85.106a.8.8 0 0 0-.753.844l.11 1.931-1.844.105a.8.8 0 0 0-.753.845l.117 2.035c.011.21.108.411.266.551ZM93.494 69.921c.15.148.357.231.568.23l1.854-.017a.796.796 0 0 0 .563-.24c.017-.017.025-.04.04-.06l.014 1.577c.002.21.09.416.24.563.15.148.357.231.567.23l1.854-.017a.795.795 0 0 0 .793-.807l-.014-1.508c.007.008.01.019.018.026.152.15.354.231.568.23l1.853-.018a.797.797 0 0 0 .793-.808l-.02-2.039a.8.8 0 0 0-.808-.792l-1.852.017a.8.8 0 0 0-.793.808l.014 1.506c-.007-.007-.01-.018-.017-.025a.794.794 0 0 0-.568-.23l-1.854.019a.787.787 0 0 0-.603.299l-.014-1.577a.795.795 0 0 0-.24-.564.794.794 0 0 0-.568-.229l-1.853.018a.8.8 0 0 0-.793.807l.019 2.038c.002.21.089.416.24.563ZM105.156 61.313l1.849.118a.8.8 0 0 0 .849-.748l.119-1.867c.025.004.045.017.07.019l1.85.118a.794.794 0 0 0 .579-.198.794.794 0 0 0 .27-.55l.12-1.888c.034.007.064.025.099.027l1.844.117-.125 1.95a.799.799 0 0 0 .748.85l1.839.116-.124 1.936a.8.8 0 0 0 .748.85l1.849.117a.799.799 0 0 0 .85-.748l.13-2.035a.801.801 0 0 0-.748-.849l-1.839-.117.124-1.935a.8.8 0 0 0-.748-.85l-1.844-.117.125-1.95a.8.8 0 0 0-.748-.85l-1.849-.117a.8.8 0 0 0-.85.747l-.12 1.889c-.034-.007-.063-.025-.099-.027l-1.85-.118a.805.805 0 0 0-.58.198.808.808 0 0 0-.27.55l-.118 1.867c-.024-.004-.044-.017-.069-.018l-1.851-.119a.804.804 0 0 0-.849.748l-.129 2.035a.803.803 0 0 0 .748.85Z"/></svg>