<svg xmlns="http://www.w3.org/2000/svg" width="200" height="200" fill="none"><g fill="#BEBEC9"><path d="M185.574 47.86a1.3 1.3 0 0 0-1.81.319c-2.638 3.77-6.867 6.753-11.772 9.382-4.9 2.632-10.443 4.908-15.63 7.395-5.246 2.51-8.426 4.973-10.864 7.748-2.438 2.775-4.107 5.758-6.542 9.379-1.886 2.812-3.36 4.491-4.457 5.41-.548.461-.997.73-1.347.881-.354.15-.604.189-.825.19-.246 0-.474-.053-.75-.155-.102-.043-.186-.097-.305-.317-.111-.215-.208-.593-.207-1.087-.004-.903.318-2.16 1.07-3.436a1.3 1.3 0 0 0-2.243-1.314c-.951 1.627-1.423 3.273-1.427 4.75.002.808.143 1.576.488 2.263.34.682.933 1.287 1.708 1.574l.003.001c.454.17 1.017.322 1.663.321a4.658 4.658 0 0 0 1.85-.4c.964-.416 1.955-1.143 3.078-2.294 1.123-1.153 2.383-2.74 3.859-4.938 2.496-3.723 4.132-6.614 6.335-9.11 2.205-2.497 5.004-4.703 10.038-7.122 5.093-2.444 10.669-4.73 15.735-7.448 5.06-2.721 9.643-5.875 12.67-10.181a1.3 1.3 0 0 0-.318-1.81ZM173.682 112.062a5.15 5.15 0 0 0 .769-1.194c.193-.429.313-.904.313-1.396 0-.378-.072-.761-.211-1.119-.419-1.069-1.301-1.875-2.411-2.418-.19-.092-.398-.167-.602-.245-1.741-2.761-3.714-5.125-5.813-6.951-1.42-1.235-2.899-2.224-4.414-2.914-1.515-.69-3.072-1.078-4.623-1.079a8.667 8.667 0 0 0-3.878.906 54.542 54.542 0 0 0-3.669-3.108c-2.324-1.787-5.293-3.801-8.211-4.688a1.3 1.3 0 1 0-.747 2.491c2.326.686 5.18 2.553 7.367 4.254a52.883 52.883 0 0 1 2.706 2.244c.134.118.247.221.357.32a8.501 8.501 0 0 0-1.953 2.591c-.629 1.306-.885 2.711-.885 4.112.005 2.472.772 4.951 1.796 7.202a30.864 30.864 0 0 0 3.486 5.782c.275.358.7.509 1.119.482.148.21.306.411.481.59.784.799 1.812 1.306 2.919 1.399a1.3 1.3 0 0 0 .21-2.591c-.422-.031-.915-.258-1.268-.624a1.975 1.975 0 0 1-.576-1.399c.002-.512.178-1.16.787-1.958.607-.793 1.657-1.711 3.317-2.635 3.19-1.782 5.94-2.423 8.001-2.421a8.15 8.15 0 0 1 1.786.187c.395.663.777 1.35 1.143 2.06.136.264.359.442.609.56-.126.14-.265.286-.437.44a9.845 9.845 0 0 1-.719.585l-1.173-1.529a1.3 1.3 0 1 0-2.063 1.582l1.041 1.357c-.179.103-.349.204-.538.308-1.503.822-3.316 1.683-5.342 2.569-.033.014-.053.042-.084.059l-.015-.024c-.928-1.532-1.737-2.832-1.738-2.835a1.3 1.3 0 1 0-2.208 1.372h-.001l.516.835c.474.77 1.208 1.968 1.909 3.138.699 1.167 1.373 2.322 1.697 2.945a1.3 1.3 0 0 0 2.305-1.203 50.581 50.581 0 0 0-1.13-1.997c2.382-1.049 4.492-2.068 6.227-3.084l2.553 3.327a1.3 1.3 0 1 0 2.063-1.583l-2.436-3.174c.652-.491 1.213-.991 1.668-1.528Zm-14.901-4.217c-1.884 1.052-3.22 2.163-4.112 3.323a6.561 6.561 0 0 0-1.042 1.93 27.093 27.093 0 0 1-1.689-3.108c-.93-2.029-1.565-4.206-1.561-6.122.001-1.09.196-2.089.627-2.983.434-.894 1.099-1.704 2.145-2.425 1.126-.771 2.285-1.11 3.541-1.114 1.112 0 2.305.281 3.546.846 1.861.844 3.813 2.331 5.661 4.339a29.741 29.741 0 0 1 2.079 2.567c-2.579.015-5.714.806-9.195 2.747Z"/><path d="M164.594 150.177c-3.353-1.908-7.145-2.659-11.343-2.657-3.099.004-6.437.404-10.059 1.063-1.299-1.625-2.741-3.24-4.367-4.654-1.434-1.245-3.01-2.335-4.756-3.119-1.744-.785-3.661-1.258-5.723-1.257-1.764-.001-3.628.345-5.568 1.102-1.694.66-3.493 1.713-5.469 3.043-3.453 2.326-7.442 5.514-12.052 8.993a263.05 263.05 0 0 1-4.425 3.267c-13.765-.19-28.435-4.045-41.801-14.891-7.391-6.001-12.606-12.269-15.961-18.05-2.809-4.833-4.29-9.323-4.702-13.001a45.636 45.636 0 0 0 10.023 2.508c2.337.31 4.586.442 6.757.442 3.297 0 6.411-.307 9.381-.762a66.682 66.682 0 0 1 6.44 8.344c2.376 3.637 5.103 6.126 7.958 7.687a17.796 17.796 0 0 0 8.63 2.19c3.535-.002 6.822-.976 9.493-2.303a20.242 20.242 0 0 0 3.51-2.202c.99-.784 1.788-1.587 2.357-2.403 1.196-1.726 1.904-3.916 1.908-6.213.005-2.56-.918-5.281-3.1-7.427-2.179-2.151-5.536-3.68-10.24-4.132a31.524 31.524 0 0 0-3.077-.147c-5.339.004-10.529 1.228-15.943 2.414-2.28.502-4.604.992-6.993 1.399-2.157-2.27-4.375-4.288-6.59-5.979-2.5-1.907-4.99-3.417-7.388-4.463-2.398-1.043-4.706-1.628-6.856-1.63-2.026-.004-3.939.542-5.48 1.753-1.189.928-2.079 2.209-2.66 3.711-.38.987-.621 2.08-.75 3.248-2.947-1.443-5.588-3.166-7.811-5.106-5.125-4.464-8.104-9.945-8.289-15.144-.005-.14-.008-.279-.008-.418.004-2.48.813-4.785 2.387-6.977 2.356-3.28 6.489-6.242 11.978-8.599 5.486-2.36 12.306-4.122 19.969-5.118 6.302-.82 12.577-1.294 18.65-1.294 13.851-.004 26.62 2.485 36.357 8.852-.931 2.836-1.533 5.672-1.714 8.484-.024.373-.036.739-.036 1.1.004 2.225.432 4.187 1.236 5.704.405.758.909 1.411 1.547 1.903.633.49 1.428.805 2.27.802.097 0 .189-.02.285-.028a7.39 7.39 0 0 0 .491 1.481c.464 1 1.157 1.853 2.073 2.404a4.628 4.628 0 0 0 2.403.674c1.145-.008 2.136-.396 2.961-.874.487.722 1.149 1.341 1.994 1.732a5.658 5.658 0 0 0 2.408.544c1.479-.005 2.678-.57 3.504-1.099.829-.533 1.31-1.049 1.361-1.103a1.3 1.3 0 0 0-1.906-1.768h-.001a5.18 5.18 0 0 1-.966.75c-.553.34-1.262.623-1.992.62-.408-.001-.832-.08-1.309-.3-.536-.256-.911-.659-1.208-1.307-.291-.643-.453-1.52-.452-2.51-.001-1.314.281-2.813.772-4.19.487-1.38 1.189-2.638 1.942-3.487a1.3 1.3 0 1 0-1.949-1.72c-1.042 1.185-1.86 2.7-2.443 4.336-.58 1.635-.92 3.387-.922 5.06.001.679.063 1.344.191 1.987-.655.434-1.383.737-1.985.729a2.008 2.008 0 0 1-1.065-.304c-.385-.23-.766-.65-1.052-1.267-.285-.614-.467-1.415-.466-2.33.002-2.293 1.122-5.28 4.302-7.924a1.3 1.3 0 0 0-1.661-2c-3.455 2.864-5.009 6.287-5.202 9.283l-.108.011c-.216-.003-.418-.063-.688-.265-.398-.297-.872-.958-1.21-1.925-.341-.963-.556-2.211-.555-3.62 0-.303.01-.615.03-.933.391-6.189 3.068-12.8 7.108-19.332 6.054-9.8 15.133-19.392 23.734-27.247 8.601-7.86 16.723-13.997 20.859-16.962a1.3 1.3 0 0 0-1.515-2.112c-5.605 4.019-18.295 13.675-29.846 25.646-5.775 5.987-11.266 12.55-15.444 19.308-1.945 3.15-3.604 6.345-4.87 9.548-10.288-6.515-23.349-8.948-37.263-8.951-6.208 0-12.592.483-18.986 1.316-10.474 1.366-19.487 4.112-25.993 8.015-3.252 1.955-5.884 4.205-7.727 6.76-1.843 2.55-2.88 5.43-2.877 8.497 0 .17.002.342.01.517.234 6.128 3.654 12.186 9.177 17.005 2.677 2.333 5.865 4.373 9.449 6.002.214 4.436 1.854 9.738 5.144 15.415 3.533 6.086 8.957 12.58 16.571 18.763 12.74 10.348 26.713 14.584 39.93 15.35-5.09 3.498-10.763 6.977-17.061 9.913-9.791 4.563-21.062 7.817-33.973 7.818-8.74 0-18.24-1.492-28.558-5.106a1.3 1.3 0 1 0-.86 2.454c10.578 3.705 20.38 5.253 29.418 5.252 20.354.001 36.764-7.837 49.565-16.209a165.945 165.945 0 0 0 5.8-3.985c.075 0 .152.004.227.004 7.526 0 14.729-1.055 21.259-2.649 7.159-1.755 13.457-3.401 18.975-4.489a92.995 92.995 0 0 1 1.686 2.3c2.266 3.187 4.673 6.815 7.616 9.716 1.473 1.449 3.088 2.719 4.906 3.635 1.816.916 3.841 1.468 6.055 1.466.113 0 .228-.001.346-.004h.004c2.554-.061 4.72-1.036 6.204-2.583 1.488-1.544 2.29-3.626 2.289-5.817.005-3.589-2.146-7.441-6.626-9.974Zm-91.57-39.625c5.436-1.197 10.453-2.357 15.384-2.354.943 0 1.884.042 2.825.135 4.284.417 7.009 1.76 8.666 3.394 1.654 1.638 2.32 3.615 2.326 5.577.003 1.75-.562 3.467-1.442 4.729-.365.527-.998 1.188-1.835 1.847-1.255.993-2.964 1.991-4.926 2.728-1.963.738-4.178 1.218-6.465 1.217-2.428-.001-4.934-.532-7.381-1.87-2.447-1.341-4.85-3.496-7.03-6.829a69.735 69.735 0 0 0-5.613-7.441c1.88-.353 3.71-.743 5.49-1.133Zm-34.1-6.811c.442-1.141 1.065-1.998 1.835-2.6 1.026-.8 2.295-1.199 3.88-1.202 1.667-.003 3.656.471 5.816 1.414 3.242 1.411 6.854 3.863 10.406 7.14.485.448.97.914 1.453 1.392-2.31.294-4.688.481-7.166.481-2.065 0-4.198-.126-6.416-.42a42.645 42.645 0 0 1-10.47-2.772c.067-1.317.292-2.478.662-3.433Zm83.598 49.66c-5.349 1.307-11.158 2.229-17.202 2.491 2.556-1.906 4.928-3.74 7.107-5.402 2.328-1.778 4.442-3.362 6.335-4.636 1.89-1.275 3.563-2.235 4.959-2.776 1.669-.65 3.198-.925 4.625-.925 1.666.001 3.201.375 4.658 1.028 2.182.978 4.182 2.606 5.982 4.506.45.474.887.965 1.313 1.465-5.304 1.102-11.185 2.642-17.777 4.249Zm44.537 10.763c-1.004 1.035-2.452 1.733-4.4 1.788h.004c-.094.002-.189.003-.286.003-1.785-.001-3.379-.431-4.886-1.188-2.256-1.133-4.303-3.035-6.203-5.285-1.901-2.248-3.649-4.826-5.368-7.249-.305-.429-.624-.871-.949-1.317 3.008-.503 5.767-.8 8.28-.796 3.901.002 7.189.688 10.058 2.318 3.821 2.183 5.305 5.168 5.311 7.713-.002 1.564-.562 2.974-1.561 4.013Z"/></g></svg>