<svg width="200" height="200" viewBox="0 0 200 200" xmlns="http://www.w3.org/2000/svg"><g id="type=family, mode=dark"><g id="Layer 5"><path id="Vector" d="M67.3994 53.3217C65.6725 51.7493 63.7503 50.4059 61.6802 49.3247C59.9208 48.3741 57.9645 47.8452 55.9658 47.7798C54.8077 47.7605 53.6612 48.0138 52.619 48.5193C51.5769 49.0248 50.6682 49.7683 49.9663 50.6897V50.6895C48.8116 52.1096 48.182 53.8843 48.1836 55.7145C48.1909 56.6809 48.343 57.6407 48.6348 58.5619C48.7372 58.8903 48.9656 59.1647 49.2699 59.325C49.5743 59.4854 49.9297 59.5186 50.2585 59.4174C50.5872 59.3162 50.8625 59.0888 51.024 58.7851C51.1855 58.4814 51.2201 58.1261 51.1201 57.7969C50.9044 57.1236 50.7909 56.4216 50.7834 55.7146C50.7798 54.4696 51.212 53.2627 52.0051 52.303V52.3029C52.4636 51.6891 53.0625 51.1942 53.7516 50.8596C54.4407 50.525 55.2 50.3605 55.9658 50.3798C57.5582 50.4476 59.1135 50.8812 60.5112 51.647C62.379 52.6272 64.1133 53.843 65.6716 55.2646C65.9295 55.4921 66.267 55.6081 66.6102 55.5873C66.9535 55.5665 67.2745 55.4105 67.503 55.1536C67.7315 54.8966 67.849 54.5596 67.8296 54.2163C67.8102 53.873 67.6556 53.5513 67.3996 53.3217H67.3994Z"/><path id="Vector_2" d="M65.1763 86.4287C64.3436 90.5991 63.9267 94.8418 63.9317 99.0945C63.9317 99.2167 63.9317 99.3441 63.9331 99.4768C63.9373 99.8216 64.0782 100.151 64.3249 100.392C64.5717 100.632 64.904 100.765 65.2488 100.761C65.5936 100.757 65.9226 100.616 66.1635 100.37C66.4044 100.123 66.5374 99.7905 66.5332 99.4457C66.5315 99.3337 66.5315 99.2167 66.5315 99.0945C66.5266 95.0138 66.9265 90.9428 67.7254 86.9411C67.793 86.6032 67.7236 86.2524 67.5327 85.9656C67.3417 85.6789 67.0447 85.4796 66.7069 85.4117C66.3691 85.3438 66.0182 85.4128 65.7313 85.6035C65.4443 85.7942 65.2448 86.091 65.1766 86.4287L65.1763 86.4287Z"/><path id="Vector_3" d="M70.6139 118.698C68.8461 115.014 67.658 111.079 67.0916 107.032L67.0912 107.029C66.6876 104.441 66.4738 101.827 66.4515 99.2076C66.4486 97.7892 66.5318 96.372 66.7008 94.9638C66.7418 94.6219 66.6454 94.2777 66.4328 94.0067C66.2202 93.7358 65.9088 93.5603 65.567 93.5188C65.2251 93.4772 64.8807 93.5731 64.6095 93.7852C64.3382 93.9974 64.1622 94.3086 64.1202 94.6503C63.938 96.1625 63.8484 97.6844 63.8516 99.2076C63.8739 101.953 64.0968 104.693 64.5186 107.407L64.5182 107.403C65.1226 111.714 66.3893 115.906 68.2733 119.83C68.4234 120.14 68.6907 120.378 69.0164 120.491C69.342 120.605 69.6994 120.584 70.0098 120.434C70.3202 120.284 70.5582 120.017 70.6716 119.691C70.7849 119.365 70.7642 119.008 70.6141 118.698L70.6139 118.698Z"/><path id="Vector_4" d="M92.8379 160.242L92.8389 160.24V160.236L92.8379 160.242Z"/><path id="Vector_5" d="M151.509 142.968C151.844 142.736 152.182 142.507 152.51 142.268C161.347 135.779 167.84 126.597 171.013 116.103C171.115 115.773 171.082 115.417 170.921 115.112C170.76 114.807 170.485 114.579 170.155 114.477C169.826 114.375 169.469 114.408 169.165 114.569C168.86 114.73 168.631 115.006 168.53 115.335C165.522 125.295 159.362 134.01 150.976 140.168C142.558 146.318 131.746 149.999 119.012 150.073C118.885 150.074 118.758 150.074 118.632 150.074C103.058 150.069 90.3206 144.633 81.3184 135.826C81.1964 135.707 81.0521 135.612 80.8937 135.549C80.7353 135.485 80.5659 135.453 80.3952 135.455C80.2245 135.457 80.0559 135.492 79.8989 135.559C79.7419 135.626 79.5996 135.724 79.4803 135.846C79.3609 135.968 79.2667 136.112 79.203 136.27C79.1394 136.429 79.1076 136.598 79.1095 136.769C79.1113 136.94 79.1467 137.108 79.2137 137.265C79.2808 137.422 79.378 137.564 79.5 137.684H79.4998C82.0351 140.16 84.8267 142.36 87.8274 144.246C87.8247 144.286 87.806 144.321 87.8069 144.362H87.8067C87.8482 146.698 88.176 149.02 88.7828 151.277L88.7823 151.275C89.3797 153.436 90.2218 155.522 91.292 157.492C90.628 158.329 90.125 159.281 89.8084 160.301C89.429 161.563 89.2445 162.876 89.261 164.193C89.2656 165.218 89.3482 166.241 89.5081 167.252C89.5327 167.366 89.5729 167.475 89.6275 167.578C89.2712 168.233 88.9984 168.93 88.8155 169.653C88.6963 170.16 88.6397 170.68 88.647 171.2C88.6685 172.345 88.8238 173.483 89.1099 174.591C89.5891 176.542 90.3382 178.416 91.3355 180.16C92.2809 181.926 93.661 183.422 95.3453 184.507C96.9947 185.428 98.8578 185.898 100.747 185.87C102.667 185.867 104.563 185.443 106.302 184.629C108.132 183.784 109.713 182.481 110.892 180.845C112.067 179.11 112.665 177.05 112.602 174.955C112.553 172.791 112.165 170.648 111.452 168.603C110.809 166.693 110.018 164.835 109.087 163.047C108.102 160.999 106.835 159.099 105.322 157.403C103.787 155.669 101.664 154.565 99.3636 154.303L99.3609 154.304C98.3672 152.653 97.6005 150.875 97.0816 149.02C97.0653 148.96 97.0553 148.904 97.0396 148.844C103.941 151.434 111.26 152.732 118.632 152.674C118.763 152.674 118.895 152.674 119.026 152.673C127.2 152.705 135.292 151.057 142.802 147.832C142.87 150.374 143.098 152.91 143.484 155.423C142.081 156.297 140.918 157.507 140.101 158.944C139.247 160.486 138.683 162.171 138.439 163.917C138.427 164.036 138.432 164.157 138.455 164.275C137.9 164.782 137.412 165.356 137 165.985C136.611 166.622 136.342 167.324 136.206 168.058C136.048 168.861 135.972 169.679 135.98 170.498C135.999 172.326 136.26 174.143 136.758 175.902C137.231 177.692 137.989 179.394 139.002 180.942C140.044 182.459 141.466 183.675 143.127 184.468C144.749 185.24 146.524 185.637 148.321 185.629C150.945 185.634 153.506 184.815 155.64 183.287C157.388 181.965 158.674 180.125 159.315 178.029C159.968 175.951 160.283 173.781 160.248 171.603C160.238 169.599 160.046 167.601 159.673 165.633C159.302 163.143 158.573 160.72 157.507 158.439C156.934 157.3 156.136 156.29 155.161 155.467C154.227 154.714 153.128 154.192 151.954 153.945C151.577 151.428 151.385 148.887 151.38 146.342L151.38 146.327C151.38 145.077 151.43 143.947 151.509 142.968ZM92.8596 160.122C92.853 160.163 92.8432 160.198 92.8379 160.24C92.674 161.527 92.5947 162.823 92.6003 164.121C92.6073 164.172 92.6175 164.222 92.6308 164.272C92.3762 164.446 92.1286 164.632 91.8882 164.831C91.8792 164.618 91.8608 164.402 91.8608 164.193C91.8448 163.141 91.9888 162.093 92.2878 161.084C92.4105 160.698 92.5683 160.325 92.7593 159.968C92.7927 160.019 92.8259 160.071 92.8596 160.122ZM106.776 164.237C107.644 165.904 108.381 167.635 108.982 169.416C109.607 171.198 109.952 173.067 110.002 174.956C110.064 176.509 109.634 178.043 108.774 179.338C107.854 180.609 106.621 181.621 105.196 182.276C103.803 182.928 102.284 183.267 100.747 183.27C99.318 183.297 97.9071 182.949 96.6548 182.261C95.8245 181.742 95.102 181.068 94.5269 180.275C93.4852 178.854 92.672 177.279 92.1167 175.607C91.6006 174.192 91.3072 172.706 91.2468 171.201C91.2406 170.894 91.2707 170.588 91.3364 170.289C91.5663 169.402 91.9757 168.571 92.5396 167.849C93.1034 167.126 93.8095 166.527 94.6143 166.089C96.2361 165.18 98.065 164.706 99.9238 164.713C101.064 164.678 102.197 164.908 103.234 165.384C103.54 165.544 103.896 165.575 104.225 165.472C104.554 165.369 104.829 165.139 104.988 164.833C105.062 164.28 105.009 163.718 104.833 163.188H104.833C103.924 161.308 102.877 159.498 101.703 157.771C102.34 158.17 102.924 158.649 103.439 159.196C104.78 160.714 105.902 162.411 106.776 164.237V164.237ZM94.5722 149.702L94.5727 149.704C95.4671 152.836 96.9453 155.771 98.9294 158.354L98.9438 158.373C99.8571 159.585 100.674 160.868 101.387 162.208C100.902 162.148 100.413 162.116 99.9238 162.113C98.3239 162.117 96.7369 162.399 95.2339 162.948C95.2641 162.138 95.3147 161.339 95.4155 160.577L95.4162 160.571C95.4314 160.471 95.4556 160.371 95.4887 160.275C95.5488 160.087 95.5654 159.888 95.5373 159.692C95.5092 159.497 95.4371 159.311 95.3264 159.147C93.5145 156.541 92.1508 153.651 91.2917 150.595L91.2912 150.593C90.8674 149.027 90.5963 147.423 90.4819 145.805C91.667 146.456 92.8762 147.078 94.1286 147.643C94.2392 148.301 94.3769 148.981 94.5722 149.702ZM148.809 144.725C148.792 145.239 148.78 145.769 148.78 146.327L148.78 146.342C148.784 150.154 149.19 153.956 149.994 157.683L150.066 157.911C150.779 159.597 151.39 161.17 151.915 162.646C151.599 162.511 151.275 162.385 150.939 162.271C149.398 161.758 147.785 161.497 146.161 161.496C145.852 161.496 145.54 161.517 145.228 161.537C145.403 160.642 145.661 159.765 145.999 158.918L145.998 158.918C146.06 158.778 146.14 158.646 146.237 158.528C146.35 158.381 146.43 158.211 146.472 158.031C146.514 157.85 146.517 157.663 146.481 157.481C145.774 153.905 145.407 150.269 145.387 146.624C146.561 146.031 147.699 145.395 148.809 144.725V144.725ZM142.354 160.241C142.594 159.832 142.87 159.445 143.179 159.085C142.878 160.038 142.654 161.013 142.51 162.001C142.153 162.107 141.801 162.231 141.456 162.372C141.674 161.63 141.975 160.915 142.354 160.241V160.241ZM153.516 157.481C154.594 158.458 155.396 159.701 155.841 161.086C156.406 162.723 156.833 164.405 157.118 166.114C157.461 167.923 157.638 169.761 157.648 171.603C157.682 173.499 157.413 175.388 156.851 177.199C156.383 178.781 155.426 180.174 154.118 181.179C152.426 182.386 150.399 183.033 148.321 183.029C146.916 183.037 145.527 182.728 144.257 182.126C143.006 181.531 141.933 180.617 141.148 179.475C140.297 178.161 139.66 176.719 139.263 175.205C138.829 173.673 138.599 172.09 138.579 170.498C138.573 169.856 138.63 169.216 138.752 168.586C138.825 168.165 138.972 167.76 139.187 167.391C139.909 166.273 140.948 165.397 142.172 164.874C143.434 164.342 144.792 164.077 146.161 164.096C147.503 164.097 148.837 164.313 150.11 164.735C151.125 165.045 152.064 165.561 152.869 166.252C152.981 166.352 153.11 166.432 153.25 166.488C153.436 166.726 153.698 166.891 153.992 166.956C154.287 167.021 154.594 166.982 154.863 166.845C155.131 166.708 155.344 166.482 155.464 166.206C155.584 165.929 155.604 165.62 155.521 165.33H155.52C154.682 162.505 153.678 159.732 152.513 157.026C152.499 156.961 152.487 156.896 152.473 156.83C152.847 157.003 153.197 157.222 153.516 157.481V157.481Z"/><path id="Vector_6" d="M172.053 102.529C171.883 102.517 171.712 102.539 171.55 102.593C171.388 102.647 171.239 102.733 171.11 102.845C170.981 102.957 170.876 103.093 170.799 103.246C170.723 103.399 170.678 103.565 170.666 103.735H170.666C170.535 105.638 170.312 107.775 170.043 109.524C169.343 114.078 167.741 118.446 165.329 122.371C162.917 126.297 159.745 129.7 155.999 132.382C148.567 137.804 138.53 141.12 126.618 142.396C123.477 142.737 120.321 142.91 117.162 142.914C103.336 142.914 91.6747 139.427 83.077 133.298C82.9381 133.198 82.7806 133.126 82.6138 133.086C82.4469 133.047 82.2739 133.041 82.1047 133.069C81.9355 133.097 81.7735 133.158 81.628 133.248C81.4825 133.339 81.3564 133.458 81.2569 133.597C81.1574 133.737 81.0865 133.895 81.0483 134.062C81.0101 134.229 81.0053 134.402 81.0343 134.571C81.0632 134.74 81.1253 134.902 81.2169 135.047C81.3086 135.191 81.428 135.317 81.5683 135.415C90.6974 141.919 102.904 145.514 117.162 145.514C120.413 145.51 123.662 145.332 126.895 144.981C139.12 143.668 149.598 140.262 157.531 134.483C161.547 131.602 164.949 127.949 167.537 123.739C170.126 119.528 171.849 114.844 172.607 109.96L172.61 109.936C172.895 108.086 173.123 105.891 173.26 103.915C173.284 103.571 173.17 103.232 172.944 102.972C172.717 102.712 172.397 102.552 172.053 102.529Z"/><path id="Vector_7" d="M63.8406 91.148C64.261 97.1063 65.9498 102.906 68.7938 108.158C71.6377 113.411 75.5712 117.995 80.3308 121.604C89.7395 128.814 102.503 132.773 117.152 132.774C120.471 132.77 123.787 132.575 127.083 132.191C137.952 130.937 146.807 128.207 153.815 123.994C160.571 120.017 165.977 114.103 169.332 107.018C169.481 106.707 169.5 106.35 169.385 106.025C169.271 105.7 169.031 105.434 168.72 105.285C168.409 105.136 168.052 105.117 167.727 105.232C167.402 105.346 167.136 105.585 166.987 105.896C163.852 112.523 158.796 118.052 152.476 121.766C145.877 125.734 137.392 128.385 126.786 129.608C123.588 129.981 120.371 130.17 117.152 130.174C102.965 130.174 90.7756 126.337 81.9126 119.541C77.4391 116.153 73.7428 111.847 71.0725 106.911C68.4021 101.976 66.8195 96.526 66.4311 90.928C66.417 90.7577 66.3694 90.5919 66.2911 90.44C66.2128 90.2881 66.1052 90.1531 65.9747 90.0428C65.8442 89.9325 65.6932 89.8491 65.5303 89.7972C65.3675 89.7453 65.196 89.726 65.0258 89.7405C64.8555 89.755 64.6897 89.8029 64.538 89.8815C64.3862 89.9601 64.2515 90.0678 64.1414 90.1985C64.0313 90.3293 63.9481 90.4804 63.8966 90.6434C63.845 90.8063 63.826 90.9778 63.8408 91.148L63.8406 91.148Z"/><path id="Vector_8" d="M162.271 32.4196C157.227 25.7105 150.422 20.5306 142.612 17.4553C142.65 17.0857 142.678 16.7036 142.679 16.299C142.698 14.9339 142.387 13.5844 141.773 12.3648C142.605 11.5862 143.179 10.5709 143.415 9.45617V9.45542C143.641 8.37067 143.539 7.24342 143.124 6.21623C142.709 5.18904 141.998 4.30804 141.083 3.68466C140.167 3.06128 139.086 2.72351 137.979 2.71407C136.871 2.70463 135.785 3.02395 134.858 3.63163C133.932 4.23932 133.207 5.10808 132.774 6.12804C132.341 7.14801 132.221 8.27337 132.428 9.3618C132.635 10.4502 133.16 11.4528 133.937 12.2428C134.713 13.0328 135.707 13.5747 136.792 13.8V13.8C137.168 13.8784 137.552 13.9179 137.936 13.9181C138.473 13.9126 139.006 13.8291 139.519 13.6702C139.903 14.4925 140.095 15.3916 140.079 16.299C140.079 16.37 140.072 16.4383 140.071 16.5087C133.909 14.4502 127.448 13.4281 120.951 13.4838C118.433 13.4866 115.916 13.6187 113.411 13.8795C104.304 14.6716 95.4846 17.4653 87.5829 22.0609C87.2221 21.4008 86.7918 20.781 86.2995 20.2122C85.5046 19.307 84.5479 18.558 83.4785 18.0035C83.4299 16.7271 82.9459 15.5059 82.1068 14.5429C81.2678 13.5799 80.1243 12.9331 78.8667 12.7102L78.8659 12.7101C78.1416 12.5821 77.3992 12.5982 76.6811 12.7574C75.963 12.9166 75.2834 13.2157 74.681 13.6378C74.0786 14.0598 73.5654 14.5965 73.1705 15.2171C72.7757 15.8376 72.5071 16.5299 72.38 17.2544C72.2513 17.979 72.2669 18.7219 72.4258 19.4405C72.5848 20.1591 72.884 20.8393 73.3062 21.4421C73.7285 22.0449 74.2656 22.5584 74.8867 22.9532C75.5078 23.3481 76.2007 23.6164 76.9257 23.743C78.1211 23.9551 79.353 23.7702 80.4335 23.2166C81.514 22.663 82.3837 21.7711 82.9098 20.6769C83.4403 21.0263 83.9217 21.4452 84.341 21.9223C84.7447 22.3888 85.0933 22.9002 85.38 23.4464C85.3424 23.4716 85.3014 23.4939 85.264 23.5193C78.1996 28.2251 72.5985 34.8201 69.0985 42.5533C69.0278 42.7093 68.9886 42.8777 68.9831 43.0488C68.9776 43.22 69.006 43.3905 69.0666 43.5507C69.1273 43.7109 69.2189 43.8575 69.3364 43.9821C69.4538 44.1067 69.5947 44.2069 69.751 44.2769C69.9073 44.3469 70.0759 44.3854 70.2471 44.39C70.4183 44.3947 70.5887 44.3655 70.7486 44.3041C70.9084 44.2428 71.0546 44.1504 71.1787 44.0324C71.3027 43.9143 71.4023 43.7729 71.4715 43.6163H71.4713C74.7019 36.4902 79.83 30.3899 86.2948 25.9826C86.3034 26.0252 86.3178 26.0823 86.3248 26.1201C86.35 26.2533 86.3656 26.3561 86.3746 26.4212L86.3834 26.49L86.3846 26.5016L86.3856 26.5014C86.4189 26.8445 86.5871 27.1603 86.8532 27.3794C87.1193 27.5985 87.4615 27.7029 87.8046 27.6696C88.1477 27.6364 88.4635 27.4682 88.6826 27.2021C88.9017 26.936 89.0061 26.5937 88.9728 26.2507C88.8986 25.6548 88.7734 25.0665 88.5985 24.4921C96.2501 19.9693 104.821 17.2262 113.677 16.4659C116.094 16.2142 118.522 16.0867 120.951 16.0839C127.31 16.0309 133.631 17.0582 139.645 19.122C139.596 19.2847 139.55 19.4298 139.513 19.5353L139.442 19.7306L139.425 19.774L139.422 19.7812L139.423 19.7814C139.29 20.0997 139.289 20.4575 139.421 20.7762C139.552 21.095 139.805 21.3485 140.123 21.4811C140.441 21.6136 140.799 21.6143 141.118 21.483C141.436 21.3517 141.69 21.0992 141.822 20.781C141.833 20.7496 141.944 20.4805 142.08 20.0497C149.266 22.9649 155.524 27.7777 160.186 33.9736C160.392 34.2501 160.699 34.4334 161.041 34.4832C161.382 34.533 161.729 34.4452 162.005 34.2391C162.282 34.0331 162.465 33.7256 162.515 33.3844C162.565 33.0432 162.477 32.6961 162.271 32.4196L162.271 32.4196ZM137.936 11.318C137.489 11.3196 137.048 11.2213 136.644 11.0304C136.24 10.8394 135.885 10.5606 135.602 10.2143C135.32 9.86808 135.119 9.46314 135.014 9.02914C134.908 8.59514 134.901 8.14306 134.993 7.70597L134.993 7.70497C135.072 7.31812 135.227 6.95071 135.449 6.62379C135.67 6.29687 135.954 6.01688 136.284 5.79986C136.614 5.58284 136.983 5.43305 137.371 5.35909C137.759 5.28514 138.158 5.28846 138.544 5.36886C138.931 5.44927 139.298 5.60519 139.624 5.82767C139.95 6.05016 140.229 6.33484 140.445 6.6654C140.661 6.99596 140.81 7.3659 140.883 7.75401C140.956 8.14213 140.951 8.54079 140.869 8.92714V8.92637C140.729 9.60113 140.361 10.2071 139.827 10.6426C139.293 11.0781 138.625 11.3166 137.936 11.318H137.936ZM80.8519 18.7479C80.784 19.1361 80.6402 19.5071 80.4287 19.8397C80.2173 20.1723 79.9423 20.4599 79.6195 20.686C79.2967 20.9122 78.9325 21.0724 78.5477 21.1576C78.1629 21.2428 77.7651 21.2513 77.3771 21.1825L77.3763 21.1824C76.682 21.0603 76.0528 20.6978 75.5989 20.1585C75.145 19.6191 74.8953 18.9372 74.8937 18.2322C74.8935 18.0572 74.9089 17.8826 74.9396 17.7104L74.9403 17.7062C75.0625 17.012 75.425 16.383 75.9644 15.9293C76.5038 15.4756 77.1856 15.2262 77.8905 15.2248C78.0668 15.2249 78.2427 15.2404 78.4164 15.271C79.1106 15.3934 79.7397 15.7561 80.1934 16.2957C80.6472 16.8353 80.8966 17.5173 80.8981 18.2222C80.8979 18.3985 80.8825 18.5743 80.852 18.7479H80.8519Z"/><path id="Vector_9" d="M139.077 98.3426C133.767 100.279 128.233 101.535 122.607 102.082C120.134 102.339 117.65 102.469 115.165 102.471C96.9631 102.465 82.7879 95.2501 74.865 84.0529C74.767 83.9121 74.6421 83.7921 74.4975 83.6998C74.3529 83.6075 74.1915 83.5447 74.0225 83.5151C73.8535 83.4855 73.6804 83.4896 73.513 83.5272C73.3456 83.5649 73.1873 83.6352 73.0473 83.7343C72.9073 83.8334 72.7882 83.9592 72.697 84.1045C72.6058 84.2498 72.5442 84.4117 72.5159 84.5809C72.4876 84.75 72.493 84.9232 72.5319 85.0903C72.5708 85.2573 72.6423 85.4151 72.7424 85.5544C81.2158 97.5375 96.2866 105.078 115.165 105.071C117.739 105.069 120.312 104.934 122.873 104.668C128.717 104.099 134.466 102.793 139.981 100.78C140.302 100.658 140.561 100.415 140.703 100.102C140.845 99.7901 140.858 99.4345 140.738 99.113C140.619 98.7914 140.377 98.53 140.066 98.3858C139.755 98.2415 139.4 98.226 139.077 98.3427L139.077 98.3426Z"/><path id="Vector_10" d="M88.9911 69.0881C89.0014 68.1451 89.2545 67.2207 89.7259 66.4039C89.9093 66.1113 90.1515 65.8601 90.4371 65.666C90.738 65.4698 91.0794 65.3442 91.4356 65.2984C91.5553 65.2807 91.676 65.2717 91.797 65.2714C92.3523 65.2725 92.885 65.4916 93.2804 65.8816C93.8296 66.4269 94.2522 67.0863 94.5182 67.8131C94.6475 68.1324 94.8983 68.3872 95.2155 68.5218C95.5326 68.6563 95.8901 68.6594 96.2096 68.5306C96.529 68.4017 96.7843 68.1513 96.9193 67.8344C97.0544 67.5175 97.0581 67.16 96.9298 66.8403C96.5193 65.751 95.8709 64.767 95.0318 63.9601C94.1561 63.1357 92.9997 62.675 91.797 62.6714C91.5512 62.6717 91.3058 62.6897 91.0626 62.7252C90.3256 62.8265 89.6205 63.0912 88.9989 63.4999C88.1329 64.094 87.459 64.9276 87.0594 65.8987C86.6563 66.8714 86.4309 67.9086 86.3941 68.9609C86.3773 69.3053 86.4979 69.6423 86.7295 69.8978C86.9611 70.1532 87.2847 70.3062 87.6291 70.3231C87.7996 70.3315 87.9701 70.3061 88.1309 70.2486C88.2916 70.1911 88.4395 70.1024 88.566 69.9878C88.8214 69.7562 88.9744 69.4326 88.9913 69.0882L88.9911 69.0881Z"/><path id="Vector_11" d="M128.354 65.2996C128.365 64.3566 128.618 63.4321 129.089 62.6153C129.273 62.3228 129.515 62.0715 129.8 61.8774C130.101 61.6812 130.443 61.5556 130.799 61.5098C130.918 61.4921 131.039 61.4831 131.16 61.4828C131.715 61.484 132.248 61.7031 132.643 62.093C133.192 62.6383 133.615 63.2977 133.88 64.0246C134.01 64.3438 134.261 64.5987 134.578 64.7332C134.895 64.8677 135.252 64.8709 135.572 64.742C135.891 64.6131 136.147 64.3628 136.282 64.0459C136.417 63.7289 136.42 63.3714 136.292 63.0517C135.882 61.9625 135.233 60.9786 134.394 60.1716C133.519 59.3472 132.363 58.8864 131.16 58.8828C130.914 58.8831 130.669 58.9011 130.426 58.9367C129.689 59.038 128.984 59.3026 128.362 59.7113C127.496 60.3054 126.822 61.139 126.423 62.1101C126.02 63.0828 125.794 64.12 125.757 65.1723C125.741 65.5167 125.861 65.8537 126.093 66.1091C126.324 66.3646 126.648 66.5176 126.992 66.5345C127.337 66.5514 127.674 66.4307 127.929 66.1991C128.185 65.9675 128.338 65.6439 128.355 65.2995L128.354 65.2996Z"/><path id="Vector_12" d="M104.301 76.43C105.227 77.4309 106.349 78.2305 107.598 78.7789C108.846 79.3273 110.194 79.6128 111.557 79.6176C113.586 79.5993 115.571 79.0295 117.301 77.9691C118.825 77.1081 120.049 75.8016 120.81 74.2249C120.943 73.9073 120.945 73.5498 120.815 73.2308C120.685 72.9118 120.434 72.6574 120.116 72.5235C119.799 72.3897 119.441 72.3873 119.122 72.5169C118.803 72.6464 118.548 72.8974 118.414 73.2146C117.86 74.2833 117.003 75.1644 115.95 75.7474C114.627 76.5596 113.109 76.9986 111.557 77.0176C110.542 77.0144 109.539 76.7999 108.612 76.3875C107.684 75.9752 106.853 75.3742 106.17 74.6228C106.052 74.4987 105.91 74.3993 105.753 74.3302C105.596 74.2612 105.427 74.2238 105.256 74.2204C105.085 74.2169 104.914 74.2474 104.755 74.31C104.595 74.3727 104.449 74.4663 104.326 74.5855C104.203 74.7047 104.104 74.8471 104.036 75.0045C103.968 75.1619 103.932 75.3311 103.93 75.5026C103.927 75.674 103.959 75.8442 104.023 76.0034C104.087 76.1626 104.181 76.3076 104.301 76.43H104.301Z"/><path id="Vector_13" d="M170.976 55.0451V55.0453C170.182 46.9805 167.249 39.2739 162.481 32.7213C162.452 32.6419 162.416 32.5657 162.372 32.4936H162.372C160.308 29.6526 157.65 27.2953 154.583 25.5859C151.817 24.0751 148.717 23.2811 145.566 23.2764C143.909 23.2793 142.26 23.4928 140.657 23.9117V23.9117C137.608 24.7755 134.745 26.1976 132.214 28.1056C128.364 30.8665 124.902 34.2864 121.278 37.081C117.649 39.8837 113.918 42.0334 109.53 42.484C108.904 42.5496 108.276 42.583 107.647 42.5842C105.495 42.6198 103.367 42.1188 101.457 41.1265C98.891 39.7917 96.8492 37.6307 94.6351 35.3955C92.4232 33.1751 90.0145 30.8732 86.6161 29.5869C85.6328 29.2093 84.5889 29.0138 83.5356 29.0102C81.6593 29.047 79.8341 29.628 78.2817 30.6824C75.9995 32.2752 74.0438 34.2908 72.5207 36.62C71.2658 38.4583 70.1476 40.3862 69.175 42.3883C69.1601 42.4188 69.1625 42.4517 69.1501 42.4827C69.1361 42.5089 69.112 42.5256 69.0998 42.5531C66.5075 48.3683 65.1762 54.6665 65.1935 61.0333C65.1935 61.492 65.2004 61.9508 65.214 62.4097C65.2187 62.5807 65.257 62.749 65.3267 62.9051C65.3965 63.0613 65.4964 63.2021 65.6207 63.3195C65.745 63.437 65.8912 63.5288 66.0511 63.5896C66.2109 63.6505 66.3811 63.6792 66.552 63.6741C66.723 63.6691 66.8912 63.6304 67.0472 63.5602C67.2031 63.49 67.3437 63.3898 67.4608 63.2652C67.578 63.1406 67.6694 62.9942 67.7299 62.8342C67.7903 62.6742 67.8186 62.5039 67.8132 62.333H67.8128C67.7999 61.8987 67.7934 61.4655 67.7933 61.0333C67.7761 55.0331 69.03 49.0972 71.4723 43.6165C71.4794 43.6006 71.4769 43.5839 71.4833 43.5679C71.4901 43.5554 71.5021 43.5481 71.5084 43.5352C72.7733 40.8887 74.3376 38.3959 76.1705 36.1058C77.1758 34.858 78.3614 33.767 79.6884 32.8688C80.8215 32.0849 82.1581 31.6475 83.5355 31.61C84.2752 31.6135 85.008 31.7522 85.6978 32.0192C87.5121 32.7458 89.1759 33.8025 90.605 35.1356C92.8328 37.0986 94.8485 39.5524 97.4354 41.59C98.7727 42.6639 100.265 43.5295 101.861 44.1577C103.709 44.8555 105.671 45.2036 107.647 45.184C108.365 45.1829 109.082 45.1449 109.796 45.0702C113.041 44.6903 116.161 43.593 118.93 41.858C123.032 39.3961 126.573 36.0161 130.142 33.0318C133.71 30.0382 137.28 27.4663 141.309 26.4286V26.4285C142.699 26.0648 144.129 25.8792 145.566 25.8763C148.286 25.8807 150.962 26.5675 153.348 27.8739C156.004 29.3597 158.314 31.3936 160.124 33.8405C160.142 33.886 160.163 33.9304 160.187 33.9733H160.187C164.801 40.2132 167.636 47.5877 168.39 55.3115V55.3116C168.534 56.7054 168.607 58.1057 168.607 59.5069C168.601 71.3725 163.358 82.2043 153.75 90.0715C153.618 90.1795 153.508 90.3126 153.428 90.463C153.347 90.6134 153.296 90.7783 153.279 90.9482C153.262 91.118 153.279 91.2896 153.328 91.453C153.378 91.6165 153.459 91.7687 153.567 91.9008C153.675 92.033 153.808 92.1425 153.958 92.2233C154.109 92.304 154.273 92.3543 154.443 92.3714C154.613 92.3884 154.785 92.3718 154.948 92.3225C155.112 92.2732 155.264 92.1922 155.396 92.0842C165.563 83.7787 171.214 72.1518 171.207 59.5069C171.207 58.0167 171.13 56.5275 170.976 55.0451Z"/><path id="Vector_14" d="M5.65725 83.8399L5.65625 83.8369V83.8359L5.65725 83.8399Z"/><path id="Vector_15" d="M77.6668 73.9565V73.9556C77.521 73.0302 77.1368 72.1587 76.5521 71.4268C75.5807 70.2948 74.294 69.4781 72.8563 69.081C72.3578 68.9287 71.8511 68.8049 71.3385 68.7104C71.4359 68.67 71.5418 68.632 71.6339 68.59C72.0725 68.4021 72.4752 68.1395 72.8238 67.8137C73.0155 67.6268 73.1732 67.408 73.2899 67.167C73.4182 66.8982 73.4849 66.6042 73.4852 66.3063C73.483 66.0023 73.4175 65.7021 73.2928 65.4249C73.1232 65.0605 72.8915 64.7284 72.6082 64.4433C72.3073 64.1351 71.9827 63.8508 71.6375 63.5931C69.5945 62.0246 67.0837 61.1882 64.5082 61.218C62.9184 61.2393 61.3401 61.4908 59.8224 61.9643C59.9632 61.6189 60.0384 61.2502 60.0438 60.8771C60.0446 60.4221 59.9211 59.9755 59.6866 59.5855C59.3221 59.0223 58.8011 58.5776 58.1876 58.3061C57.486 57.9849 56.7468 57.7531 55.9874 57.616C54.6145 57.3159 53.2155 57.1515 51.8104 57.1252C50.7253 57.1045 49.6454 57.2795 48.6224 57.6421C47.5255 58.0551 46.5522 58.7415 45.795 59.6362C45.635 59.215 45.4015 58.8254 45.1053 58.4858C44.5853 57.9208 43.9202 57.5094 43.1825 57.2965C42.3553 57.0597 41.4972 56.9487 40.637 56.9673C39.59 56.9799 38.5451 57.0669 37.5103 57.2278C36.0116 57.3714 34.5542 57.8003 33.2166 58.4913C32.6862 58.7952 32.2367 59.2222 31.9061 59.7363C31.5928 60.2482 31.4298 60.8378 31.4356 61.4379C31.4361 61.482 31.4471 61.5238 31.4488 61.5675C30.1121 60.8447 28.618 60.462 27.0985 60.4532C24.6934 60.5605 22.3497 61.2462 20.2662 62.4523C19.5426 62.8032 18.8734 63.2565 18.2791 63.7983C18.0209 64.0441 17.8033 64.3293 17.6343 64.6432C17.4294 65.022 17.3349 65.4506 17.3614 65.8805C17.3879 66.3103 17.5344 66.7241 17.7842 67.0748C17.863 67.1834 17.9479 67.2874 18.0386 67.3863C16.2178 67.4292 14.4215 67.8156 12.7442 68.5253C11.0326 69.2757 9.56903 70.4964 8.52377 72.0457C8.28072 72.3972 8.07123 72.7707 7.89804 73.1614C7.72656 73.5413 7.6338 73.9521 7.62533 74.3689C7.62388 74.6575 7.67981 74.9436 7.78988 75.2104C7.98559 75.6631 8.32422 76.0392 8.75396 76.2812C9.33311 76.5864 9.96779 76.772 10.6202 76.8267L10.6304 76.8274C9.37079 77.3587 8.21567 78.1097 7.21904 79.0455C6.71115 79.5415 6.29447 80.123 5.98804 80.7635C5.69195 81.3926 5.53799 82.0792 5.53711 82.7746C5.53729 83.1321 5.57684 83.4886 5.65503 83.8376C5.74548 84.2728 5.90558 84.6906 6.12915 85.0748C6.46969 85.6503 6.98122 86.1054 7.59253 86.3765C8.19303 86.629 8.84022 86.7514 9.49146 86.7356C10.5546 86.7028 11.6097 86.5405 12.6335 86.2525C12.7488 86.2229 12.8787 86.1828 12.9968 86.1509C12.6523 86.4794 12.3287 86.8292 12.0281 87.1983C11.2168 88.1237 10.7436 89.297 10.6858 90.5263C10.6868 91.2379 10.885 91.9353 11.2583 92.541C11.6573 93.1717 12.1817 93.7135 12.7991 94.1329C13.8166 94.8756 15.0434 95.2766 16.3032 95.278C17.5706 95.2418 18.8142 94.9255 19.9448 94.3518C21.0602 93.8019 22.1267 93.158 23.1328 92.4271C22.7443 93.3113 22.5311 94.2626 22.5051 95.2281C22.4999 95.8208 22.6104 96.4087 22.8306 96.959C23.1868 97.8059 23.7993 98.52 24.5821 99.001C25.4693 99.535 26.4525 99.89 27.4761 100.046C28.0626 100.153 28.6573 100.208 29.2535 100.21C30.7941 100.227 32.3043 99.7816 33.5901 98.9328C35.2069 97.7722 36.5075 96.2254 37.3733 94.4335C37.5516 95.6759 37.9992 96.8644 38.6846 97.9159C39.257 98.7545 40.0414 99.4265 40.9578 99.8636C41.9601 100.319 43.0519 100.544 44.1526 100.521C44.6362 100.519 45.1193 100.487 45.599 100.426C47.4854 100.295 49.2681 99.5138 50.6434 98.2161C51.2142 97.6196 51.6494 96.9069 51.9193 96.1266C52.185 95.342 52.3159 94.518 52.3065 93.6896C52.3044 93.2855 52.279 92.8818 52.2303 92.4806C52.2493 92.5008 52.2684 92.5232 52.2874 92.5432C53.2269 93.5661 54.3121 94.4448 55.5081 95.1507C56.634 95.8075 57.9116 96.1595 59.215 96.1722C60.4881 96.1523 61.7394 95.8385 62.8712 95.2552C63.8795 94.7971 64.7733 94.1204 65.4879 93.2743C66.1163 92.5041 66.4613 91.5415 66.4652 90.5475C66.4274 89.4166 66.062 88.321 65.4134 87.3938C65.2916 87.2071 65.1358 87.0245 64.9969 86.8398C66.6162 87.5184 68.3411 87.9104 70.0946 87.9982C70.9755 88.0133 71.8481 87.8265 72.6456 87.452C73.4545 87.0493 74.1513 86.4529 74.6742 85.7159L74.6744 85.7156C75.3201 84.8939 75.6842 83.8863 75.713 82.8417C75.7106 82.192 75.553 81.5524 75.2535 80.9759C74.6654 79.9314 73.8105 79.0616 72.7762 78.4555C72.619 78.3553 72.4312 78.2667 72.2635 78.1705C73.5054 78.2324 74.7467 78.0381 75.9102 77.5998C76.4609 77.3592 76.9304 76.9646 77.2621 76.4635C77.5824 75.946 77.7461 75.3469 77.7332 74.7385C77.732 74.4764 77.7098 74.2149 77.6668 73.9565ZM75.0733 75.0602C75.0382 75.109 74.9921 75.149 74.9388 75.1769C74.65 75.3264 74.3362 75.4215 74.013 75.4575C73.3877 75.5448 72.7566 75.5837 72.1253 75.574C69.1178 75.5782 64.1378 74.9883 57.3226 74.615C56.9935 74.5885 56.6812 74.5545 56.3448 74.5314C56.0397 74.5085 55.7364 74.5947 55.4888 74.7745C55.2413 74.9544 55.0655 75.2162 54.9929 75.5134C54.9203 75.8107 54.9555 76.124 55.0923 76.3977C55.2291 76.6715 55.4585 76.8878 55.7398 77.0082C55.9043 77.097 56.0862 77.1488 56.2728 77.1598C56.6315 77.1777 56.962 77.199 57.3104 77.2181C61.325 77.4454 65.2896 78.2213 69.0936 79.5243C70.2558 79.9292 71.3349 80.5415 72.2787 81.3313C72.5449 81.5664 72.768 81.8462 72.9379 82.1581C73.0507 82.3684 73.1109 82.603 73.1132 82.8417C73.0821 83.3334 72.8942 83.8022 72.577 84.1792C72.3047 84.5748 71.9378 84.8958 71.5096 85.1133C71.0661 85.3157 70.5819 85.4132 70.0946 85.3982C67.9514 85.1828 65.8651 84.58 63.9373 83.619C61.3912 82.544 58.2874 81.0567 54.5813 79.4164C54.2776 79.2691 53.9873 79.1197 53.6743 78.974C53.5193 78.8997 53.3511 78.857 53.1794 78.8482C53.0077 78.8394 52.8359 78.8648 52.6741 78.9228C52.5123 78.9808 52.3636 79.0704 52.2366 79.1863C52.1096 79.3021 52.0069 79.4421 51.9343 79.5979C51.8618 79.7538 51.8209 79.9225 51.814 80.0942C51.8071 80.266 51.8343 80.4375 51.8941 80.5986C51.9539 80.7598 52.045 80.9075 52.1623 81.0333C52.2796 81.159 52.4206 81.2602 52.5772 81.331H52.577C52.6365 81.3587 52.692 81.3869 52.751 81.4146C52.7935 81.4488 52.8382 81.4802 52.8848 81.5086C53.158 81.6284 53.4205 81.7456 53.6873 81.8639C56.3251 83.0952 58.8043 84.6409 61.0709 86.4675C61.8977 87.1422 62.6252 87.9302 63.2317 88.8083C63.6044 89.3158 63.8242 89.9193 63.8653 90.5476C63.8633 90.9558 63.7161 91.3499 63.45 91.6595C62.9742 92.2007 62.3858 92.6313 61.726 92.921C60.9506 93.3293 60.091 93.5522 59.215 93.5722C58.357 93.5599 57.5173 93.3223 56.7801 92.8832C55.2306 91.8949 53.8737 90.633 52.7758 89.1591C51.4848 87.5754 50.118 85.6116 48.6293 83.4285C48.5187 83.2437 48.4154 83.0603 48.3009 82.8748C48.189 82.7016 48.0366 82.5582 47.8568 82.4572C47.6097 82.2789 47.3076 82.1937 47.0037 82.2164C46.6999 82.2392 46.4138 82.3685 46.196 82.5815C45.9781 82.7945 45.8425 83.0776 45.8129 83.3809C45.7834 83.6842 45.8619 83.9881 46.0345 84.2392C46.1725 84.4417 46.3065 84.6378 46.4425 84.8372C47.3421 86.3109 48.1175 87.8569 48.7609 89.4592C49.3271 90.8013 49.6475 92.2342 49.7067 93.6896C49.7158 94.2251 49.6343 94.7583 49.4657 95.2666C49.2387 95.9312 48.7959 96.5008 48.2079 96.8848C47.3191 97.4302 46.3147 97.7595 45.2755 97.846C44.9032 97.8942 44.5282 97.9191 44.1527 97.9206C43.4394 97.9429 42.7302 97.805 42.0773 97.5169C41.2804 97.1206 40.6686 96.4303 40.371 95.5916C39.9184 94.333 39.7103 92.9996 39.758 91.663C39.7794 90.1409 39.9161 88.6228 40.1669 87.1214C40.3732 86.419 40.5761 85.7017 40.776 84.9641C40.8495 84.6831 40.8254 84.3855 40.7075 84.12C40.5897 83.8545 40.3853 83.6369 40.1276 83.5029C39.9688 83.3638 39.7776 83.2667 39.5717 83.2204C39.4044 83.1864 39.2321 83.1858 39.0645 83.2184C38.897 83.2511 38.7375 83.3164 38.5952 83.4107C38.4529 83.505 38.3306 83.6264 38.2352 83.768C38.1399 83.9096 38.0734 84.0685 38.0394 84.2358C37.8788 85.0286 37.7435 85.7969 37.6232 86.5515C36.9241 89.2229 35.8798 91.7918 34.5167 94.1932C33.9224 95.2075 33.1187 96.0833 32.1591 96.7622C31.2987 97.3323 30.2855 97.628 29.2535 97.6102C28.8108 97.6081 28.3692 97.5667 27.9337 97.4866C27.0928 97.3953 26.295 97.0673 25.6329 96.5408C25.4616 96.3835 25.3267 96.1906 25.2377 95.9756C25.1451 95.7375 25.1 95.4835 25.1051 95.228C25.1357 94.5515 25.3006 93.8879 25.5902 93.2759C26.2971 91.7779 27.2069 90.3843 28.2938 89.1344C29.6202 87.5641 31.0499 86.0841 32.5734 84.7042C32.7216 84.5785 32.8603 84.4595 33.0104 84.3325C33.1554 84.2067 33.2701 84.0497 33.3461 83.8734C33.4893 83.6045 33.533 83.2936 33.4695 82.9955C33.406 82.6975 33.2393 82.4315 32.9988 82.2443C32.7583 82.0572 32.4595 81.9609 32.155 81.9725C31.8505 81.9841 31.5599 82.1029 31.3344 82.3078H31.3341C31.1493 82.4742 30.9723 82.6396 30.7921 82.8054C27.4113 85.6763 24.5797 88.1598 22.2018 89.9037C21.1485 90.7064 20.0219 91.4081 18.837 91.9995C18.0522 92.4082 17.1873 92.6398 16.3033 92.678C15.5817 92.6785 14.8794 92.4446 14.3023 92.0114L14.3018 92.011C13.9755 91.7965 13.6963 91.5179 13.481 91.1922C13.3538 90.9933 13.286 90.7623 13.2857 90.5262C13.3505 89.8852 13.6246 89.2834 14.0655 88.8135C15.4491 87.2812 17.0971 86.0104 18.9307 85.0617C21.6 83.587 24.384 82.3304 27.2557 81.304C27.4237 81.2475 27.5794 81.193 27.7501 81.1361C28.0418 81.0409 28.2902 80.8448 28.4505 80.5831C28.6108 80.3214 28.6727 80.0112 28.6251 79.708C28.5774 79.4048 28.4233 79.1285 28.1904 78.9286C27.9575 78.7287 27.661 78.6183 27.3541 78.6172C27.2733 78.6197 27.1928 78.6296 27.1138 78.6469C27.0512 78.6497 26.9888 78.6574 26.9273 78.6699L26.9022 78.6784C26.8775 78.6857 26.8526 78.6805 26.8282 78.6894H26.828C26.6991 78.7361 26.578 78.7841 26.4505 78.8309C22.1541 80.2752 18.5994 81.6009 15.7784 82.5632C14.3165 83.0623 13.0499 83.4633 11.991 83.733C11.1767 83.9656 10.3377 84.1007 9.49154 84.1356C9.15926 84.1666 8.82536 84.0966 8.53354 83.9347C8.4633 83.884 8.4049 83.8186 8.3624 83.7431C8.28211 83.5983 8.2254 83.4416 8.1944 83.2789L8.1934 83.2744C8.15632 83.1103 8.1374 82.9427 8.137 82.7745C8.13778 82.458 8.20894 82.1456 8.3453 81.86C8.73228 81.1416 9.30427 80.5396 10.002 80.1165C11.8799 78.9772 13.9453 78.1806 16.1019 77.7639C19.3227 77.0711 22.5995 76.6702 25.8924 76.5661C26.0907 76.5633 26.2767 76.5587 26.4784 76.5565C26.8231 76.5526 27.1522 76.4119 27.3933 76.1654C27.6343 75.9189 27.7675 75.5867 27.7636 75.2419C27.7597 74.8972 27.6191 74.5681 27.3725 74.327C27.126 74.086 26.7938 73.9528 26.4491 73.9566C26.2794 73.9586 26.1234 73.9625 25.9559 73.9648C25.9478 73.965 25.9408 73.9607 25.9325 73.961H25.9322C25.8954 73.9626 25.8612 73.9654 25.8246 73.967C20.0941 74.0498 15.7705 74.3421 13.0255 74.3407C12.1166 74.3775 11.2066 74.3067 10.3143 74.1298C10.4175 73.9088 10.54 73.6973 10.6805 73.4979L10.6807 73.4975C11.4542 72.35 12.5398 71.4478 13.8094 70.8972C15.4316 70.2234 17.1778 69.9 18.9337 69.9482C20.9442 69.9766 22.9454 70.2286 24.9002 70.6995C26.1219 71.1145 27.4522 71.5491 28.8717 72.0202C29.0549 72.0788 29.2491 72.0953 29.4396 72.0684C29.6301 72.0415 29.8121 71.972 29.972 71.8649C30.1593 71.8034 30.3298 71.6994 30.4701 71.561C30.6104 71.4225 30.7168 71.2535 30.7808 71.0671C30.8891 70.7398 30.8629 70.3828 30.708 70.0748C30.5531 69.7668 30.2822 69.5329 29.9549 69.4246H29.9547C28.4408 68.9245 27.0025 68.52 25.6317 68.2021C24.2894 67.7448 23.1141 67.3222 22.1766 66.9242C21.4944 66.6594 20.8447 66.3173 20.2403 65.9047C20.1668 65.8501 20.0971 65.7905 20.0318 65.7263C20.1099 65.6408 20.1952 65.5621 20.2867 65.4911C20.6557 65.2104 21.0505 64.9653 21.4657 64.759L21.4662 64.7588C23.1807 63.7492 25.1119 63.1644 27.0985 63.0532C28.4276 63.0591 29.726 63.4534 30.8339 64.1876C32.0423 64.9953 33.128 65.973 34.0575 67.0904C34.3016 67.4396 34.5555 67.7972 34.8248 68.1702C34.9248 68.3086 35.051 68.426 35.1964 68.5156C35.3417 68.6052 35.5032 68.6653 35.6718 68.6925C35.8404 68.7196 36.0126 68.7134 36.1787 68.674C36.3449 68.6346 36.5016 68.5628 36.64 68.4628C36.9237 68.2195 37.1087 67.8808 37.1602 67.5106C37.2117 67.1404 37.1261 66.7641 36.9195 66.4525C36.6561 66.122 36.3951 65.8248 36.1337 65.5213C35.5604 64.698 35.079 63.9625 34.732 63.336C34.3575 62.765 34.1192 62.1156 34.0355 61.438C34.0289 61.3206 34.0576 61.2039 34.118 61.1031C34.1884 60.9978 34.2781 60.9069 34.3824 60.8352C34.7501 60.589 35.1553 60.4038 35.5821 60.287C36.3356 60.0657 37.1051 59.9032 37.8837 59.8009C38.7948 59.6583 39.7149 59.5802 40.6371 59.5674C41.1851 59.5553 41.7324 59.6125 42.266 59.7377C42.4981 59.7931 42.7199 59.8853 42.923 60.0107C43.1249 60.1376 43.2813 60.3254 43.3695 60.547C43.5061 60.9174 43.5683 61.3112 43.5524 61.7057C43.4659 63.1915 43.1973 64.6612 42.7524 66.0815C42.6616 66.4142 42.7068 66.7692 42.8778 67.0686C43.0489 67.368 43.3318 67.5872 43.6645 67.678C44.0244 67.724 44.3892 67.6442 44.697 67.452C45.0048 67.2598 45.2366 66.9671 45.3532 66.6235L45.353 66.6234C46.1367 63.8937 46.988 62.1214 47.9448 61.1355C48.3853 60.6646 48.9291 60.3024 49.5334 60.0773C50.2652 59.8244 51.0365 59.7051 51.8105 59.7253C53.0428 59.7522 54.2696 59.8994 55.4733 60.1647C56.1155 60.2591 56.7351 60.4702 57.3015 60.7873C57.3531 60.819 57.3997 60.8581 57.4399 60.9035C57.4311 60.9543 57.4158 61.0038 57.3942 61.0507C57.2198 61.4074 56.9904 61.7345 56.7143 62.02C55.9532 62.8231 55.1287 63.5635 54.2487 64.2342C53.9247 64.4909 53.5776 64.7574 53.2202 65.0284C52.278 65.6009 51.321 66.2167 50.3327 66.9222C50.1938 67.0214 50.0758 67.1471 49.9855 67.292C49.8951 67.4368 49.8342 67.5981 49.8062 67.7665C49.7782 67.9349 49.7837 68.1072 49.8223 68.2735C49.8609 68.4399 49.9319 68.5969 50.0312 68.7358C50.3018 69.0107 50.6544 69.1902 51.0359 69.2472C51.4174 69.3043 51.8071 69.2358 52.1462 69.052C53.0388 68.404 53.8855 67.7826 54.685 67.1783C58.5453 64.8541 61.838 63.8109 64.5082 63.818C66.5136 63.7862 68.4706 64.4353 70.0594 65.6594C70.2703 65.8171 70.4697 65.9894 70.6563 66.1752C70.0367 66.4534 69.394 66.6771 68.7354 66.8436C66.2962 67.5266 62.2218 68.3368 56.8426 69.7231C56.2953 69.8473 55.7384 69.9796 55.172 70.1203C54.8743 70.1927 54.6121 70.3685 54.432 70.6163C54.252 70.8642 54.1659 71.1679 54.1891 71.4734C54.2122 71.7788 54.3432 72.0661 54.5585 72.284C54.7739 72.5018 55.0597 72.6361 55.3648 72.6628C55.5517 72.6999 55.7444 72.6947 55.9291 72.6478C56.4447 72.51 56.9398 72.382 57.4332 72.2546C60.6771 71.4643 63.9973 71.0297 67.3353 70.9584C69.3224 70.8629 71.3056 71.2144 73.139 71.9869C73.6709 72.2365 74.1422 72.5989 74.5201 73.0489C74.8266 73.4311 75.0267 73.8874 75.1001 74.3718V74.371C75.1209 74.4924 75.132 74.6153 75.1333 74.7385C75.1446 74.8493 75.1238 74.9609 75.0733 75.0602Z"/><path id="Vector_16" d="M25.253 76.983V76.982L25.252 76.98L25.253 76.983Z"/><path id="Vector_17" d="M57.4556 74.0794V74.0787C57.3564 72.7313 56.8623 71.443 56.035 70.3749C54.6494 68.6757 52.815 67.399 50.7403 66.6899C48.2886 65.8024 45.6974 65.3623 43.0901 65.3904C42.2942 65.3904 41.4825 65.4273 40.6592 65.5033C36.8366 65.792 33.1475 67.0352 29.9297 69.1189C28.6036 69.9978 27.4584 71.123 26.5564 72.4335C25.72 73.6452 25.2614 75.0775 25.2383 76.5496C25.2383 76.6938 25.2432 76.8379 25.2529 76.982C25.3517 78.329 25.8453 79.6169 26.6721 80.6848C28.0573 82.3842 29.8914 83.661 31.9661 84.37C34.4176 85.2576 37.0086 85.6977 39.6157 85.6695C40.4119 85.6695 41.2244 85.6326 42.0484 85.5566C45.8707 85.2679 49.5596 84.0248 52.7771 81.9412C54.1033 81.0622 55.2486 79.937 56.1509 78.6264C56.9873 77.4147 57.4461 75.9824 57.4692 74.5102C57.4693 74.3694 57.4651 74.2257 57.4556 74.0794ZM53.982 77.1927C52.7931 78.815 51.203 80.1006 49.3677 80.9235C46.9921 82.0545 44.4315 82.7471 41.8096 82.9676C41.0645 83.0364 40.3316 83.0696 39.6158 83.0696C36.6792 83.1448 33.7709 82.4799 31.1588 81.1359C30.2265 80.6353 29.4065 79.9495 28.7489 79.1205C28.226 78.4568 27.9121 77.6527 27.8472 76.8102L27.847 76.8077L27.8382 76.5496C27.8617 75.5873 28.1706 74.6536 28.7256 73.8671C29.9143 72.2449 31.5041 70.9594 33.3392 70.1367C35.7151 69.0055 38.2758 68.3129 40.898 68.0923C41.6424 68.0236 42.3745 67.9904 43.0901 67.9904C46.027 67.9151 48.9355 68.5801 51.5479 69.9241C52.4803 70.4248 53.3006 71.1107 53.9585 71.9397C54.4817 72.6035 54.7958 73.4077 54.8611 74.2502V74.2495L54.8694 74.5102C54.8459 75.4725 54.537 76.4062 53.982 77.1927Z"/><path id="Vector_18" d="M84.1165 126.155C83.3976 125.303 82.5719 124.546 81.6597 123.905C81.1701 123.527 80.6354 123.211 80.0677 122.965C79.365 122.682 78.613 122.541 77.8555 122.552C77.6888 122.553 77.5161 122.56 77.3409 122.572L77.3413 122.567C77.3315 121.981 77.1119 121.419 76.7224 120.981C76.1227 120.348 75.3791 119.869 74.5547 119.584C73.4498 119.171 72.3061 118.87 71.1409 118.685C70.0729 118.486 68.9899 118.377 67.9036 118.361C67.2732 118.352 66.6439 118.418 66.0288 118.556C65.2043 118.723 64.4597 119.162 63.9146 119.803C63.8897 119.834 63.8748 119.869 63.8514 119.9C63.6839 119.796 63.5102 119.702 63.3311 119.619C62.3743 119.214 61.3426 119.017 60.304 119.04C58.1494 119.103 56.0317 119.616 54.0865 120.545C53.3373 120.853 52.6532 121.301 52.0701 121.864C51.5326 122.381 51.22 123.089 51.2 123.835C51.2084 124.432 51.4161 125.009 51.7903 125.475L51.793 125.478C51.4817 125.571 51.1768 125.684 50.8802 125.817C50.1893 126.121 49.5832 126.59 49.1143 127.182C48.6153 127.841 48.3495 128.647 48.3587 129.473C48.386 130.396 48.6244 131.3 49.0557 132.117C49.5187 133.127 50.2657 133.981 51.2056 134.575C52.0654 135.079 53.0479 135.337 54.0447 135.318C54.6635 135.308 55.2794 135.232 55.8821 135.091C55.7983 135.393 55.7539 135.704 55.7498 136.018C55.7511 136.632 55.9146 137.234 56.2236 137.764C56.7715 138.639 57.568 139.33 58.5112 139.75C59.7693 140.326 61.1099 140.7 62.4841 140.86C62.5071 140.863 62.5276 140.864 62.5506 140.868C62.0457 144.301 61.6631 147.768 61.3884 150.801C56.3608 149.977 51.2762 149.55 46.1817 149.522C46.1965 147.482 46.2063 145.256 46.2063 142.862C46.2063 135.143 46.1077 125.791 45.7791 116.13C46.0621 116.166 46.3467 116.187 46.6318 116.193C47.9492 116.202 49.2424 115.839 50.363 115.147C51.6549 114.308 52.7114 113.154 53.4324 111.792C53.7888 111.158 54.0778 110.489 54.2947 109.795C54.3453 109.618 54.3579 109.433 54.3317 109.251C54.3055 109.069 54.241 108.895 54.1425 108.74C54.0441 108.585 53.9139 108.452 53.7605 108.351C53.6071 108.25 53.434 108.183 53.2527 108.153C52.2812 107.989 51.2982 107.902 50.313 107.894C48.6067 107.81 46.9192 108.282 45.5041 109.239C45.3547 105.969 45.1772 102.7 44.9634 99.4813C44.9388 99.1386 44.7795 98.8196 44.5204 98.594C44.2612 98.3684 43.9233 98.2545 43.5805 98.2773C43.2377 98.3001 42.9178 98.4576 42.6908 98.7156C42.4638 98.9735 42.3482 99.3108 42.3691 99.6538H42.3689C43.2209 112.469 43.5203 126.12 43.5891 137.377C42.8488 136.725 42.0024 136.205 41.0864 135.839C39.4045 135.203 37.6174 134.893 35.8198 134.924C34.3483 134.929 32.8814 135.089 31.4434 135.401C31.2391 135.445 31.0484 135.538 30.8875 135.671C30.7266 135.804 30.6002 135.975 30.519 136.167C30.4378 136.36 30.4043 136.569 30.4212 136.777C30.4381 136.986 30.505 137.187 30.6162 137.364C31.4937 138.689 32.5214 139.908 33.6787 140.997C34.7193 141.997 35.8924 142.849 37.165 143.529C38.5919 144.298 40.1838 144.711 41.8047 144.731C42.4095 144.73 43.0126 144.667 43.6045 144.542C43.6013 146.308 43.5937 147.97 43.5818 149.528C38.7373 149.563 33.902 149.956 29.1155 150.704C29.0405 149.871 28.9587 149.01 28.8682 148.124C28.5293 144.812 28.0779 141.201 27.4809 137.808C27.0278 135.027 26.3656 132.284 25.5002 129.602C25.541 129.596 25.5776 129.595 25.6189 129.589C27.411 129.422 29.1388 128.836 30.6631 127.879C31.2203 127.498 31.688 127 32.0342 126.42C32.349 125.88 32.5155 125.267 32.5168 124.642C32.5111 124.302 32.4585 123.963 32.3606 123.637C32.9995 123.79 33.6533 123.873 34.3103 123.884C35.3291 123.903 36.3334 123.64 37.2122 123.124C38.1735 122.517 38.9376 121.644 39.4114 120.61V120.61C39.8614 119.76 40.1109 118.818 40.1408 117.857C40.1509 117.035 39.8919 116.233 39.4035 115.573C38.6941 114.702 37.7206 114.085 36.6299 113.816C36.6091 113.81 36.5876 113.807 36.5666 113.801C36.5769 113.788 36.5906 113.779 36.6006 113.766C36.9804 113.293 37.1913 112.707 37.1999 112.101C37.1792 111.343 36.8612 110.624 36.3147 110.099C35.7181 109.523 35.0181 109.065 34.2517 108.749C32.2542 107.795 30.0797 107.269 27.8672 107.203C26.8033 107.18 25.7465 107.382 24.7663 107.796C24.5739 107.885 24.3875 107.986 24.2082 108.098C23.8432 107.605 23.3525 107.218 22.7871 106.978C21.9145 106.634 20.9805 106.473 20.043 106.505C18.9274 106.522 17.8154 106.633 16.7187 106.838C15.2017 107.053 13.7264 107.498 12.3437 108.158C11.8339 108.414 11.3766 108.764 10.9956 109.188C10.6004 109.632 10.3775 110.202 10.3674 110.796C10.3674 110.812 10.3723 110.826 10.3726 110.841C10.1766 110.828 9.98511 110.82 9.79956 110.819C9.02485 110.808 8.25571 110.951 7.5371 111.241C6.95631 111.493 6.40926 111.816 5.90868 112.204C4.97156 112.862 4.12332 113.638 3.385 114.513C2.63846 115.373 2.21017 116.464 2.17188 117.602L2.1775 117.802C2.19303 118.237 2.31089 118.661 2.5215 119.041C2.84686 119.593 3.36251 120.008 3.9717 120.207C4.24964 120.301 4.53666 120.367 4.82815 120.403C4.49391 120.961 4.31518 121.598 4.31057 122.248C4.33177 123.21 4.6757 124.137 5.28712 124.88C5.98218 125.728 6.84961 126.418 7.83181 126.904C9.31669 127.684 10.9677 128.094 12.6448 128.1C13.9016 128.117 15.1459 127.85 16.2849 127.318C16.5188 127.202 16.7448 127.071 16.9617 126.925C17.4307 127.863 18.2051 128.614 19.1575 129.053C20.3059 129.555 21.5492 129.803 22.8023 129.78C23.7558 132.539 24.4645 135.376 24.9202 138.259C25.0955 139.255 25.2552 140.276 25.4065 141.303C25.2169 141.194 25.0203 141.098 24.8179 141.016C24.1871 140.791 23.5217 140.679 22.8521 140.686C21.1323 140.768 19.4509 141.222 17.9241 142.018C17.6185 142.163 17.3815 142.422 17.2632 142.739C17.1449 143.056 17.1548 143.407 17.2906 143.717C17.7628 144.74 18.3387 145.713 19.0093 146.619C19.5827 147.411 20.2684 148.115 21.0449 148.709C21.9062 149.384 22.9619 149.763 24.0554 149.79C24.8278 149.784 25.5859 149.582 26.2591 149.203C26.2918 149.186 26.3233 149.162 26.3557 149.143C26.4241 149.836 26.4876 150.514 26.5464 151.173C25.5459 151.377 24.5752 151.591 23.6748 151.827C21.3265 152.375 19.0691 153.258 16.9715 154.447C16.185 154.91 15.4857 155.506 14.9053 156.21C14.3547 156.877 14.0457 157.71 14.0283 158.575C14.0322 158.941 14.0953 159.305 14.215 159.651L17.9563 178.675C17.0356 179.123 16.1858 179.703 15.434 180.398C15.0273 180.784 14.6872 181.235 14.4272 181.732C14.1684 182.232 14.0317 182.787 14.0283 183.35C14.0457 184.215 14.3547 185.048 14.9053 185.715C15.1272 185.989 15.371 186.245 15.6343 186.48C15.6391 186.533 15.6475 186.586 15.6594 186.639L17.5078 191.62L17.5115 191.619C17.7346 192.29 18.1114 192.901 18.6118 193.402C19.7234 194.456 21.0282 195.285 22.4543 195.844C25.4933 197.066 28.6687 197.916 31.9116 198.376C36.2271 199.041 40.5881 199.364 44.9543 199.344C51.1987 199.435 57.4289 198.723 63.4917 197.225C65.5514 196.709 67.5347 195.926 69.3909 194.895C70.1009 194.488 70.7517 193.985 71.3252 193.402C71.8151 192.902 72.1814 192.295 72.3948 191.629L72.3977 191.63L74.4082 186.348C74.6184 186.151 74.8143 185.94 74.9944 185.715C75.5449 185.048 75.854 184.215 75.8714 183.35C75.8682 182.794 75.735 182.247 75.4825 181.752C75.0838 181.007 74.525 180.361 73.8462 179.859C73.2475 179.41 72.6087 179.017 71.9378 178.685L75.6843 159.653C75.8042 159.306 75.8673 158.942 75.8714 158.575C75.8644 157.896 75.6688 157.233 75.3066 156.66C74.7175 155.776 73.9348 155.039 73.0181 154.504C72.4578 154.155 71.8756 153.844 71.2752 153.571C72.173 152.627 72.9539 151.578 73.6011 150.447C73.7673 150.145 73.8067 149.789 73.7107 149.458C73.6146 149.127 73.3911 148.847 73.0891 148.681C71.4006 147.645 69.4825 147.042 67.5051 146.925C66.3466 146.915 65.2155 147.277 64.2785 147.958C64.5132 145.729 64.8027 143.375 65.1487 141.048C66.7761 141.133 68.386 140.677 69.727 139.751C70.2266 139.358 70.6333 138.859 70.9179 138.29C71.1178 138.423 71.3254 138.543 71.5398 138.651C72.6513 139.17 73.8657 139.431 75.0923 139.414C76.7275 139.408 78.3372 139.009 79.7851 138.249C80.7441 137.774 81.591 137.1 82.2695 136.272C82.8684 135.543 83.2052 134.635 83.2258 133.692C83.2208 133.07 83.0531 132.46 82.7395 131.923C83.2056 131.869 83.6564 131.724 84.0659 131.495C84.4363 131.278 84.7438 130.968 84.958 130.596C85.1659 130.222 85.2825 129.804 85.2983 129.377L85.2988 129.368L85.303 129.179C85.2657 128.065 84.8468 126.998 84.1165 126.155ZM46.1555 112.509C46.4127 111.841 46.92 111.301 47.5696 111.002C48.4349 110.63 49.3721 110.457 50.313 110.494C50.5798 110.494 50.8684 110.516 51.154 110.534C50.9694 110.874 50.7598 111.199 50.5268 111.507C50.095 112.092 49.555 112.589 48.936 112.972C48.2401 113.388 47.4426 113.603 46.6318 113.593C46.3843 113.591 46.1372 113.572 45.8921 113.538C45.9385 113.186 46.027 112.84 46.1555 112.509ZM41.8047 142.131C40.6011 142.11 39.4205 141.798 38.3638 141.222C36.8392 140.378 35.477 139.269 34.3411 137.948C34.2385 137.832 34.1606 137.733 34.0674 137.623C34.6495 137.56 35.2344 137.527 35.8198 137.524C37.7074 137.445 39.5795 137.893 41.2273 138.817C41.875 139.218 42.4168 139.77 42.8069 140.424C43.0724 140.892 43.259 141.4 43.3591 141.928C42.8514 142.06 42.3292 142.128 41.8047 142.131ZM25.2566 127.014C24.5085 127.124 23.7537 127.183 22.9976 127.188C21.8754 127.285 20.7525 127.012 19.7991 126.413C19.5581 126.228 19.368 125.985 19.2464 125.706C19.1111 125.377 19.0456 125.024 19.0542 124.669C19.0581 124.313 19.1007 123.958 19.1812 123.612L19.182 123.608C19.2176 123.446 19.2518 123.309 19.287 123.158C19.452 122.626 19.5655 122.191 19.6397 121.867C19.6453 121.809 19.6468 121.752 19.6441 121.695C19.7207 121.365 19.6651 121.019 19.4894 120.73C19.3136 120.441 19.0315 120.232 18.7037 120.148C18.3759 120.065 18.0283 120.113 17.7355 120.282C17.4427 120.452 17.228 120.729 17.1373 121.055C17.0194 121.471 16.9005 121.949 16.7806 122.459C16.6478 122.882 16.4796 123.375 16.2535 123.956C16.0219 124.423 15.6264 124.789 15.1424 124.983C14.3588 125.339 13.5055 125.516 12.6449 125.5C11.3878 125.494 10.1505 125.186 9.03767 124.601C8.38465 124.285 7.80532 123.835 7.33724 123.281C7.08353 122.994 6.93329 122.63 6.91047 122.248C6.91704 121.949 7.04041 121.664 7.25422 121.454C7.66642 121.049 8.17487 120.755 8.73177 120.601C10.3136 120.049 11.9256 119.587 13.5599 119.218C13.7561 119.172 13.9387 119.081 14.0924 118.95C14.3509 118.785 14.5424 118.534 14.6326 118.241C14.7227 117.948 14.7056 117.632 14.5844 117.35C14.4632 117.069 14.2457 116.839 13.9709 116.703C13.696 116.568 13.3818 116.534 13.0843 116.608H13.0841C12.5994 116.726 12.0672 116.843 11.4874 116.959C10.2281 117.21 9.08798 117.438 8.10458 117.6C7.30902 117.746 6.50333 117.832 5.69467 117.854C5.3853 117.874 5.07508 117.832 4.78207 117.731L4.77426 117.674L4.77402 117.668L4.77182 117.602C4.81391 117.054 5.0415 116.536 5.41707 116.135C6.01408 115.439 6.69686 114.822 7.44907 114.298L7.45008 114.298C7.78055 114.037 8.14206 113.818 8.52636 113.646C8.931 113.484 9.36417 113.407 9.79955 113.419C11.268 113.512 12.7128 113.834 14.0818 114.373C14.2168 114.441 14.3398 114.507 14.4778 114.574C14.6407 114.652 14.8182 114.695 14.9988 114.701C15.0933 114.736 15.1792 114.765 15.2764 114.802C15.5991 114.923 15.9568 114.911 16.2708 114.768C16.5848 114.626 16.8293 114.365 16.9506 114.042C17.0719 113.719 17.06 113.361 16.9175 113.047C16.775 112.733 16.5137 112.489 16.1909 112.368C15.8091 112.225 15.446 112.094 15.0964 111.973C14.665 111.755 14.2351 111.536 13.7913 111.31C13.5184 111.181 13.2668 111.012 13.0454 110.807C13.3868 110.527 13.7756 110.311 14.1934 110.169C15.1562 109.816 16.1512 109.558 17.1643 109.4C18.1139 109.221 19.0768 109.122 20.043 109.105C20.4836 109.096 20.9237 109.139 21.3545 109.232C21.6339 109.271 21.8929 109.4 22.0911 109.601C22.2128 109.781 22.2676 109.998 22.2458 110.215C22.2435 110.352 22.2321 110.489 22.2119 110.624C22.0945 110.826 21.9739 111.041 21.8555 111.279C21.7789 111.432 21.7334 111.598 21.7213 111.769C21.7093 111.939 21.731 112.111 21.7853 112.273C21.8396 112.435 21.9253 112.585 22.0376 112.714C22.1499 112.843 22.2865 112.948 22.4397 113.025C22.5928 113.101 22.7595 113.146 22.9301 113.157C23.1008 113.169 23.272 113.147 23.4341 113.092C23.5961 113.037 23.7458 112.951 23.8745 112.839C24.0032 112.726 24.1084 112.589 24.1841 112.436C24.2468 112.309 24.3311 112.173 24.4062 112.041C24.5097 111.918 24.5889 111.777 24.6399 111.625L24.6489 111.609C24.8217 111.332 24.9801 111.047 25.1235 110.754L25.123 110.756C25.2845 110.48 25.5384 110.271 25.8395 110.164C26.483 109.904 27.1735 109.781 27.8671 109.803C29.7134 109.871 31.5258 110.32 33.1899 111.122C33.6529 111.306 34.0788 111.572 34.4472 111.908C34.5051 111.963 34.554 112.027 34.592 112.098C34.5478 112.18 34.4881 112.253 34.4162 112.313C34.0716 112.6 33.6778 112.823 33.2539 112.97C32.5868 113.217 31.8942 113.388 31.1889 113.479C30.2578 113.61 29.4272 113.704 28.6906 113.765C28.347 113.794 28.0288 113.957 27.8059 114.221C27.5831 114.484 27.4739 114.824 27.5024 115.168C27.5177 115.255 27.5423 115.34 27.5756 115.421V115.422L27.5764 115.424C27.665 115.748 27.8661 116.031 28.1437 116.221C28.4214 116.411 28.7576 116.496 29.0922 116.461C30.1547 116.263 31.2412 116.129 32.082 116.054C32.4873 116.018 32.9094 115.998 33.3295 115.998C34.4293 115.959 35.5252 116.148 36.5485 116.553C36.8483 116.678 37.1127 116.876 37.3191 117.127C37.4743 117.338 37.5526 117.595 37.541 117.857C37.5082 118.421 37.3497 118.97 37.0771 119.465V119.464C36.8227 120.051 36.402 120.549 35.8671 120.899C35.394 121.169 34.8549 121.302 34.3102 121.284C33.116 121.217 31.9447 120.928 30.8564 120.432C29.5741 119.908 28.2341 119.205 26.9696 118.54C26.6644 118.38 26.3079 118.347 25.9787 118.45C25.6495 118.552 25.3746 118.781 25.2143 119.087C25.116 119.43 25.1269 119.795 25.2455 120.132C25.3641 120.469 25.5845 120.761 25.8761 120.967H25.8759C27.1156 121.662 28.2689 122.501 29.3119 123.466C29.6579 123.765 29.8746 124.187 29.9169 124.642C29.916 124.811 29.8691 124.977 29.7812 125.122C29.4755 125.567 29.047 125.912 28.548 126.116C27.5039 126.584 26.3935 126.887 25.2566 127.014ZM25.012 146.922C24.7214 147.092 24.392 147.184 24.0554 147.19C23.5167 147.161 23.0016 146.959 22.5859 146.615C21.7484 145.935 21.0393 145.111 20.4919 144.181C20.4169 144.061 20.3572 143.954 20.2915 143.842C21.1066 143.51 21.9729 143.322 22.852 143.286C23.217 143.28 23.5801 143.338 23.9248 143.458C24.4168 143.642 24.8368 143.979 25.1235 144.419C25.4845 144.977 25.7454 145.593 25.8948 146.241C25.6325 146.507 25.3356 146.736 25.012 146.922ZM46.1592 152.122C51.1881 152.148 56.2069 152.575 61.1677 153.4C61.0393 155.024 60.9436 156.441 60.8752 157.556C60.8032 157.544 60.7353 157.53 60.6628 157.518C55.8475 156.755 50.9812 156.359 46.106 156.334C46.1248 155.096 46.1434 153.689 46.1592 152.122ZM30.3997 153.124C34.7584 152.493 39.1549 152.159 43.5588 152.122C43.543 153.689 43.5244 155.102 43.5056 156.337C38.8576 156.376 34.2185 156.75 29.6245 157.458C29.5562 156.334 29.4605 154.911 29.3337 153.296C29.6863 153.238 30.0366 153.179 30.3997 153.124ZM28.5257 161.545C28.8702 161.531 29.1949 161.38 29.4284 161.126C29.662 160.873 29.7852 160.537 29.771 160.192L29.7654 160.066C34.2969 159.354 38.8747 158.977 43.4617 158.937C43.449 159.606 43.4373 160.177 43.427 160.638C43.4072 161.547 43.394 162.03 43.394 162.031C43.3846 162.376 43.5126 162.71 43.7497 162.961C43.9867 163.211 44.3136 163.357 44.6582 163.366C45.0029 163.376 45.3372 163.248 45.5875 163.011C45.8379 162.773 45.9838 162.447 45.9931 162.102C45.9931 162.099 46.0239 160.961 46.062 158.934C50.809 158.957 55.5473 159.341 60.2361 160.083C60.406 160.111 60.5659 160.143 60.7334 160.172L60.7324 160.191C60.7251 160.362 60.7516 160.532 60.8102 160.692C60.8688 160.853 60.9585 161 61.074 161.126C61.1895 161.251 61.3287 161.353 61.4836 161.425C61.6384 161.497 61.8059 161.538 61.9765 161.545C62.2549 161.555 62.5289 161.474 62.7572 161.314C62.9855 161.154 63.1557 160.925 63.2421 160.66C64.8929 161.011 66.5182 161.472 68.1071 162.041C65.3025 162.956 62.4223 163.62 59.5002 164.026C54.6818 164.721 49.8187 165.06 44.9504 165.041C38.0131 165.138 31.0899 164.388 24.3342 162.809C23.414 162.568 22.5639 162.311 21.7859 162.042C23.5627 161.411 25.3828 160.909 27.2319 160.54C27.2964 160.832 27.4611 161.093 27.6974 161.276C27.9337 161.46 28.2267 161.555 28.5256 161.545H28.5257ZM16.9549 159.34C16.8679 159.229 16.7935 159.108 16.7329 158.981L16.6365 158.49C16.6756 158.238 16.786 158.002 16.9549 157.81C17.84 156.885 18.9274 156.177 20.1319 155.742C22.2732 154.874 24.4938 154.216 26.7625 153.777C26.8892 155.415 26.9827 156.832 27.0474 157.925C24.1082 158.444 21.2502 159.347 18.5471 160.612C18.4795 160.572 18.4053 160.533 18.3411 160.493C17.8165 160.191 17.3477 159.801 16.9548 159.34H16.9549ZM18.3411 185.268C17.8166 184.966 17.3477 184.576 16.9549 184.115C16.7619 183.905 16.6466 183.635 16.6282 183.35C16.6315 183.195 16.6723 183.042 16.7471 182.906C16.9836 182.5 17.305 182.151 17.6892 181.881C17.9429 181.688 18.2077 181.511 18.4822 181.35L19.3626 185.827C18.9864 185.642 18.6418 185.455 18.3411 185.268H18.3411ZM69.9678 190.705L69.9238 190.844C69.828 191.137 69.6606 191.402 69.4368 191.614C68.5695 192.417 67.5567 193.047 66.4529 193.47C63.6072 194.604 60.6354 195.391 57.6016 195.815C53.4165 196.453 49.1879 196.764 44.9544 196.744C38.9502 196.833 32.9595 196.149 27.1304 194.707C25.2978 194.248 23.5317 193.556 21.8755 192.648C21.3681 192.361 20.9009 192.009 20.4861 191.6C20.2562 191.384 20.0822 191.116 19.979 190.818L19.9455 190.715L19.1579 188.593C22.6495 189.958 26.2945 190.891 30.0122 191.372C34.9592 192.086 39.9521 192.435 44.9504 192.415C52.1099 192.514 59.2544 191.736 66.2248 190.099C67.7815 189.7 69.3059 189.185 70.7851 188.557L69.9678 190.705ZM72.6699 182.279C72.8653 182.462 73.0295 182.677 73.1563 182.913C73.2288 183.048 73.2683 183.197 73.2715 183.35C73.253 183.635 73.1378 183.905 72.9448 184.115C72.2695 184.85 71.4471 185.434 70.531 185.83L71.4129 181.352C71.8665 181.611 72.2884 181.922 72.6699 182.279H72.6699ZM67.6758 186.874C67.6697 186.905 67.68 186.934 67.6763 186.965C65.0053 187.798 62.2709 188.412 59.5003 188.801C54.6818 189.496 49.8188 189.835 44.9505 189.815C38.0132 189.913 31.09 189.163 24.3343 187.584C23.5877 187.389 22.8907 187.182 22.2366 186.967L17.5262 163.014C18.0149 163.284 18.5311 163.546 19.1019 163.795C22.6098 165.174 26.2742 166.115 30.0123 166.597C34.9593 167.312 39.9522 167.66 44.9505 167.64C52.1099 167.739 59.2545 166.961 66.2249 165.324C68.3622 164.806 70.4277 164.027 72.3745 163.004L67.6758 186.874ZM65.5918 150.204C66.1183 149.74 66.8037 149.497 67.5051 149.525C68.5766 149.581 69.6253 149.855 70.5862 150.332C70.2856 150.756 69.9607 151.162 69.613 151.547C69.1399 152.086 68.5965 152.559 67.9973 152.953C67.5285 153.277 66.9782 153.462 66.4092 153.488C66.0189 153.484 65.6369 153.374 65.3042 153.17C64.9351 152.945 64.6024 152.665 64.3176 152.339C64.5586 151.533 64.9965 150.799 65.5918 150.204H65.5918ZM66.4092 156.088C67.2919 156.073 68.1572 155.839 68.928 155.409C70.1327 155.829 71.2688 156.424 72.2996 157.176C72.608 157.409 72.8746 157.693 73.0879 158.015C73.1841 158.162 73.2433 158.329 73.2605 158.504L73.1665 158.981C73.106 159.109 73.0316 159.229 72.9448 159.34C72.4963 159.858 71.9569 160.291 71.3533 160.616C68.8388 159.427 66.183 158.565 63.4502 158.049C63.4976 157.258 63.5603 156.287 63.6404 155.181C63.7598 155.263 63.8777 155.348 63.9998 155.419C64.729 155.853 65.5608 156.083 66.4092 156.088L66.4092 156.088ZM80.2192 134.673C79.7679 135.207 79.2094 135.641 78.5798 135.945C77.5038 136.51 76.3077 136.808 75.0923 136.814C74.262 136.83 73.4387 136.659 72.6826 136.316C72.221 136.131 71.8435 135.784 71.6221 135.339C71.4067 134.785 71.2429 134.309 71.1152 133.904C71.01 133.456 70.906 133.034 70.8032 132.661C70.7115 132.329 70.4916 132.046 70.1917 131.876C69.8919 131.706 69.5367 131.662 69.2043 131.753C68.8855 131.893 68.6221 132.134 68.4561 132.44C68.2901 132.746 68.2309 133.098 68.2878 133.441H68.2876C68.3596 133.747 68.4634 134.135 68.6079 134.6C68.6409 134.742 68.6729 134.871 68.7063 135.023C68.7832 135.358 68.8238 135.7 68.8274 136.043C68.8356 136.384 68.7732 136.722 68.644 137.037C68.4465 137.468 68.0935 137.81 67.6555 137.993C66.8262 138.337 65.9315 138.494 65.0347 138.454C64.3022 138.449 63.571 138.393 62.8464 138.286C61.5119 138.174 60.2205 137.759 59.0708 137.072C58.8315 136.915 58.6288 136.708 58.4766 136.466C58.3943 136.331 58.3504 136.176 58.3496 136.018C58.391 135.585 58.5978 135.186 58.927 134.902L58.9277 134.901C59.8753 134.018 60.9222 133.248 62.0473 132.607C62.1212 132.552 62.1889 132.49 62.249 132.421C62.2871 132.401 62.3303 132.379 62.3681 132.359C62.6734 132.199 62.9024 131.924 63.005 131.595C63.1075 131.266 63.0751 130.909 62.9148 130.604C62.7546 130.299 62.4796 130.07 62.1504 129.967C61.8213 129.865 61.4649 129.897 61.1596 130.057H61.1594C59.9309 130.703 58.6298 131.386 57.3862 131.894C56.3332 132.374 55.2 132.653 54.0446 132.718C53.5221 132.737 53.0047 132.609 52.5507 132.35C52.0373 132.014 51.6337 131.535 51.3901 130.972L51.3899 130.971C51.1359 130.511 50.9885 129.998 50.9585 129.473C50.9476 129.215 51.0271 128.962 51.1831 128.757C51.5721 128.338 52.0803 128.049 52.6389 127.93C53.4807 127.707 54.3491 127.6 55.2199 127.613C55.6208 127.613 56.0192 127.631 56.4003 127.665C56.4203 127.667 56.4382 127.658 56.458 127.659C56.5488 127.673 56.6279 127.698 56.7204 127.711C57.8239 127.867 58.8034 127.973 59.6743 128.035C60.0173 128.058 60.3554 127.944 60.6147 127.718C60.874 127.492 61.0333 127.173 61.0578 126.83C61.0822 126.487 60.9699 126.149 60.7453 125.888C60.5207 125.628 60.2021 125.467 59.8593 125.441H59.8591C59.06 125.384 58.1372 125.285 57.0827 125.137C56.137 125.032 55.2192 124.751 54.3769 124.309C54.1763 124.201 53.9968 124.057 53.8471 123.885L53.8132 123.831C53.8781 123.729 53.9596 123.639 54.0544 123.564C54.387 123.298 54.7551 123.081 55.1479 122.918C56.7598 122.14 58.5154 121.705 60.3039 121.64C60.9722 121.618 61.6375 121.737 62.2575 121.987C62.5422 122.087 62.7825 122.284 62.936 122.544L62.9367 122.546C63.0634 122.805 63.2034 123.057 63.3561 123.302C63.4025 123.521 63.4497 123.739 63.5017 123.955C63.5625 124.207 63.6974 124.435 63.8891 124.61C64.0807 124.784 64.3203 124.897 64.5769 124.934C64.7433 125.009 64.9237 125.047 65.1062 125.047C65.2887 125.047 65.4689 125.007 65.635 124.932C65.9478 124.787 66.1901 124.523 66.3088 124.199C66.4274 123.876 66.4126 123.518 66.2675 123.205C66.1267 122.903 65.9773 122.636 65.8337 122.389C65.8145 122.261 65.8038 122.131 65.8015 122.002C65.795 121.844 65.8207 121.687 65.8771 121.539C65.9421 121.415 65.9799 121.343 66.268 121.205C66.7918 121.016 67.3476 120.933 67.9035 120.961C68.8406 120.978 69.7745 121.073 70.6955 121.247C71.9011 121.413 73.0754 121.756 74.1801 122.267C74.3474 122.351 74.5033 122.456 74.6442 122.579C74.4402 122.763 74.2099 122.916 73.9609 123.033L73.9621 123.033C73.5253 123.255 73.1052 123.467 72.6823 123.681C72.4035 123.778 72.1186 123.879 71.819 123.99C71.5064 124.103 71.2495 124.332 71.1022 124.631C70.9548 124.929 70.9283 125.272 71.0282 125.589C71.128 125.907 71.3466 126.173 71.6381 126.333C71.9297 126.493 72.2718 126.534 72.593 126.448C72.799 126.46 73.0049 126.421 73.1928 126.336C73.3769 126.247 73.5519 126.157 73.7309 126.068C75.0496 125.549 76.4413 125.24 77.8554 125.152C78.2738 125.141 78.6901 125.215 79.079 125.369C79.4501 125.536 79.7992 125.747 80.1184 125.999C80.8459 126.506 81.5064 127.104 82.0842 127.777C82.4437 128.161 82.662 128.655 82.7031 129.179L82.7014 129.248L82.6975 129.279C82.6412 129.302 82.5828 129.319 82.5231 129.33C82.2992 129.372 82.0715 129.391 81.8437 129.387C81.0603 129.365 80.2797 129.282 79.509 129.14C78.5549 128.983 77.4477 128.761 76.2248 128.518C75.6884 128.411 75.1958 128.303 74.7426 128.194C74.5766 128.154 74.4044 128.147 74.2358 128.174C74.0671 128.2 73.9054 128.26 73.7598 128.349C73.6142 128.438 73.4876 128.555 73.3872 128.693C73.2868 128.831 73.2146 128.988 73.1748 129.154C73.1415 129.523 73.2394 129.892 73.4514 130.196C73.6633 130.499 73.9757 130.719 74.3334 130.815C75.8723 131.17 77.391 131.608 78.8828 132.127C79.4175 132.276 79.9057 132.557 80.3017 132.946C80.5032 133.143 80.6195 133.41 80.6259 133.692C80.6037 134.055 80.4605 134.4 80.2192 134.673Z"/><path id="Vector_19" d="M12.1475 117.389V117.383L12.1465 117.38L12.1475 117.389Z"/><path id="Vector_20" d="M29.7271 115.994L29.7263 115.986C29.6349 115.166 29.3073 114.391 28.7835 113.755C27.9582 112.792 26.8892 112.068 25.6885 111.66C24.331 111.174 22.8981 110.931 21.456 110.943C21.105 110.943 20.7488 110.957 20.3896 110.984C18.3836 111.099 16.4393 111.72 14.7385 112.79C14.0092 113.261 13.3797 113.872 12.886 114.586C12.4001 115.291 12.1351 116.124 12.125 116.98C12.1247 117.115 12.1318 117.249 12.1462 117.384C12.2379 118.201 12.5649 118.975 13.0877 119.611C13.9129 120.574 14.982 121.297 16.1829 121.705C17.5405 122.192 18.9734 122.435 20.4155 122.422C20.7664 122.422 21.1218 122.409 21.4817 122.382C23.4878 122.267 25.4321 121.646 27.1328 120.576C27.8622 120.104 28.4916 119.494 28.9854 118.779C29.4711 118.075 29.7359 117.242 29.7461 116.386C29.7461 116.252 29.7393 116.121 29.7271 115.994ZM26.8215 117.338C26.3023 118.027 25.6104 118.567 24.8157 118.904C23.7023 119.41 22.5066 119.71 21.2864 119.789C20.9915 119.812 20.7012 119.823 20.4155 119.822C18.9703 119.856 17.5388 119.534 16.2466 118.886C15.8156 118.662 15.4323 118.357 15.1179 117.986C14.9068 117.741 14.7727 117.438 14.7322 117.117L14.7312 117.108L14.7248 116.98C14.7352 116.637 14.8483 116.306 15.0495 116.028C15.5688 115.339 16.2608 114.798 17.0556 114.462C18.1692 113.956 19.3651 113.656 20.5854 113.576C20.8794 113.554 21.1702 113.543 21.456 113.543C22.9012 113.51 24.3324 113.831 25.6245 114.48C26.0557 114.704 26.4392 115.009 26.7537 115.38C26.9646 115.625 27.0986 115.927 27.1392 116.248L27.1462 116.386C27.1359 116.729 27.0228 117.06 26.8216 117.338H26.8215Z"/><path id="Vector_21" d="M193.168 93.2592C194.296 93.4833 195.486 93.6622 196.743 93.7888C197.086 93.8233 197.429 93.7202 197.696 93.5021C197.963 93.284 198.132 92.9687 198.167 92.6257C198.201 92.2826 198.098 91.9399 197.88 91.6729C197.662 91.4059 197.347 91.2364 197.004 91.2019C195.827 91.0833 194.719 90.9165 193.674 90.709C193.507 90.6757 193.334 90.6758 193.167 90.7092C193 90.7425 192.84 90.8085 192.698 90.9034C192.557 90.9983 192.435 91.1202 192.34 91.2622C192.245 91.4042 192.179 91.5635 192.146 91.7309C192.113 91.8984 192.113 92.0707 192.146 92.2381C192.18 92.4056 192.246 92.5648 192.34 92.7067C192.435 92.8486 192.557 92.9705 192.699 93.0652C192.841 93.16 193 93.2259 193.168 93.2592L193.168 93.2592Z"/><path id="Vector_22" d="M192.304 87.9706L191.137 95.8041C191.11 95.9736 191.117 96.1468 191.158 96.3136C191.198 96.4803 191.272 96.6374 191.373 96.7757C191.475 96.9141 191.603 97.0309 191.75 97.1195C191.897 97.2081 192.06 97.2668 192.23 97.2921C192.399 97.3174 192.572 97.3088 192.739 97.2669C192.905 97.2249 193.062 97.1505 193.199 97.0477C193.337 96.945 193.452 96.8161 193.54 96.6684C193.627 96.5207 193.685 96.3572 193.708 96.1872L194.875 88.3537C194.902 88.1842 194.895 88.0111 194.854 87.8443C194.814 87.6775 194.741 87.5205 194.639 87.3821C194.538 87.2438 194.41 87.1269 194.263 87.0383C194.116 86.9497 193.953 86.891 193.783 86.8658C193.613 86.8405 193.44 86.849 193.274 86.891C193.107 86.9329 192.951 87.0074 192.813 87.1101C192.676 87.2128 192.56 87.3417 192.473 87.4894C192.385 87.6371 192.328 87.8007 192.304 87.9706Z"/><path id="Vector_23" d="M128.754 125.195H128.752V125.196L128.754 125.195Z"/><path id="Vector_24" d="M160.922 100.884L160.92 100.883L160.918 100.882L160.922 100.884Z"/><path id="Vector_25" d="M170.264 97.2251L170.263 97.2271H170.262L170.264 97.2251Z"/><path id="Vector_26" d="M197.719 86.8355C191.93 86.3211 186.406 84.1766 181.787 80.6507C185.846 79.7511 189.746 78.2406 193.352 76.1707C195.106 75.1524 196.655 73.8182 197.923 72.2358C199.093 70.7702 199.743 68.9572 199.771 67.082C199.768 66.2533 199.642 65.4298 199.397 64.6382V64.6379C198.879 62.8192 197.683 61.2688 196.055 60.3072C194.386 59.3948 192.504 58.9455 190.603 59.0059C186.937 59.1486 183.336 60.0295 180.018 61.5959C176.656 63.0924 173.486 64.988 170.576 67.2419C170.419 66.9828 170.175 66.7871 169.888 66.6891C169.601 66.5912 169.289 66.597 169.006 66.7057C168.723 66.8144 168.487 67.019 168.339 67.2838C168.191 67.5487 168.141 67.857 168.197 68.1551C168.631 70.4464 168.855 72.7727 168.865 75.1048C168.901 79.1506 168.082 83.1584 166.461 86.8655C164.774 90.572 162.384 93.9162 159.424 96.7133C158.529 95.8962 157.741 94.9689 157.08 93.9536L157.079 93.9528C156.431 92.949 155.896 91.8773 155.481 90.7568C155.633 90.6562 155.799 90.5677 155.939 90.4576C156.534 89.9964 157.021 89.4105 157.366 88.7409C157.694 88.0868 157.863 87.3646 157.86 86.6329C157.844 85.7592 157.642 84.8989 157.265 84.1102C157.396 83.5552 157.466 82.9877 157.475 82.4175C157.463 82.0837 157.505 81.7501 157.597 81.4293L157.598 81.4284C157.757 81.0324 157.934 80.5967 158.08 80.1253C158.245 79.6245 158.334 79.1018 158.344 78.5746C158.348 78.1592 158.272 77.7469 158.12 77.3601C158.063 77.232 157.996 77.1081 157.921 76.9895C158.178 76.5162 158.313 75.9867 158.316 75.4483C158.296 74.5355 157.976 73.6548 157.405 72.9418L157.405 72.941C157.029 72.4564 156.526 72.085 155.953 71.8675C155.629 71.7461 155.292 71.6636 154.949 71.6216C154.899 71.4798 154.842 71.3407 154.778 71.2048C154.404 70.4161 153.779 69.7743 153 69.3807C152.276 69.0129 151.475 68.8226 150.664 68.8255C150.016 68.8344 149.374 68.9439 148.759 69.15C148.701 68.909 148.575 68.6898 148.395 68.5185C148.216 68.3473 147.991 68.2311 147.748 68.1839H147.747C147.305 68.0998 146.856 68.0575 146.405 68.0576C145.019 68.0755 143.658 68.4423 142.45 69.1241C140.584 70.1972 139.009 71.7127 137.866 73.5373C136.651 75.3916 135.86 77.4909 135.55 79.6857V79.6852C135.471 80.2775 135.432 80.8744 135.431 81.4719C135.423 83.5615 135.938 85.62 136.929 87.4597C137.141 87.8499 137.374 88.2277 137.629 88.5912C137.5 88.7541 137.387 88.9291 137.292 89.1136C137.082 89.5217 136.973 89.9737 136.972 90.4324C136.985 91.0976 137.192 91.7445 137.569 92.2933C138.039 92.9751 138.626 93.5695 139.301 94.0497C139.336 94.0765 139.374 94.0981 139.41 94.1241C139.194 96.8806 138.689 99.6068 137.904 102.258L137.905 102.257C136.965 105.494 135.416 108.521 133.339 111.175C133.312 111.182 133.285 111.175 133.259 111.183C126.741 113.155 119.968 114.157 113.159 114.158C103.834 114.159 94.8098 112.245 87.4573 108.489C80.0986 104.727 74.4311 99.167 71.6121 91.8115C70.9471 90.0785 70.3963 88.3039 69.9631 86.499C69.9236 86.3327 69.8517 86.1758 69.7516 86.0373C69.6514 85.8989 69.5249 85.7815 69.3792 85.692C69.2336 85.6024 69.0718 85.5425 68.903 85.5156C68.7342 85.4887 68.5618 85.4953 68.3956 85.5351C68.2293 85.5749 68.0726 85.6472 67.9343 85.7476C67.796 85.8481 67.6789 85.9748 67.5897 86.1206C67.5004 86.2664 67.4408 86.4283 67.4142 86.5972C67.3877 86.766 67.3947 86.9385 67.4348 87.1046L67.4346 87.1045C67.8941 89.0197 68.4785 90.9027 69.1841 92.7415C72.2676 100.798 78.4795 106.829 86.2749 110.804C94.0769 114.785 103.481 116.756 113.159 116.757C118.675 116.752 124.173 116.116 129.544 114.861C125.683 117.736 120.645 119.453 113.935 119.466C113.328 119.466 112.706 119.452 112.072 119.422C111.727 119.405 111.39 119.527 111.135 119.759C110.88 119.991 110.728 120.315 110.712 120.659C110.696 121.004 110.817 121.34 111.049 121.595C111.281 121.85 111.605 122.003 111.949 122.019C112.624 122.051 113.286 122.066 113.936 122.066C121.119 122.062 126.809 120.175 131.161 116.903L131.163 116.901C135.649 113.383 138.885 108.514 140.391 103.016L140.392 103.015C141.141 100.486 141.648 97.8913 141.905 95.2664C142.518 95.4143 143.146 95.4887 143.776 95.4878C144.293 95.4819 144.809 95.4331 145.318 95.3419C144.893 100.473 143.49 105.475 141.183 110.077L141.182 110.079C138.312 115.76 133.55 120.263 127.717 122.811L127.715 122.812C123.354 124.638 118.663 125.542 113.936 125.466C113.232 125.466 112.516 125.449 111.79 125.415C111.619 125.406 111.448 125.431 111.287 125.489C111.126 125.546 110.978 125.635 110.851 125.75C110.724 125.865 110.621 126.004 110.548 126.159C110.475 126.313 110.433 126.481 110.425 126.652C110.417 126.823 110.443 126.994 110.501 127.155C110.559 127.316 110.649 127.464 110.764 127.59C110.88 127.717 111.019 127.819 111.174 127.891C111.329 127.964 111.497 128.005 111.668 128.012H111.668C112.434 128.048 113.19 128.066 113.936 128.066C119.02 128.142 124.064 127.164 128.752 125.196C135.132 122.409 140.342 117.488 143.489 111.278L143.488 111.279C143.758 110.761 144.009 110.229 144.256 109.695C147.867 108.053 151.336 106.116 154.629 103.904C155.751 104.82 156.969 105.611 158.262 106.263L158.264 106.264C160.326 107.319 162.603 107.886 164.918 107.924C166.214 107.931 167.5 107.713 168.721 107.281C169.999 106.823 171.169 106.106 172.156 105.175L172.156 105.174L172.163 105.169C173.057 104.28 173.824 103.272 174.442 102.173L174.447 102.166C174.504 102.069 174.554 101.968 174.61 101.87C177.961 105.368 182.098 108.874 187.848 110.733C188.01 110.785 188.181 110.805 188.351 110.792C188.522 110.778 188.687 110.731 188.839 110.653C188.992 110.576 189.127 110.469 189.237 110.339C189.348 110.209 189.432 110.058 189.485 109.896C189.537 109.733 189.557 109.562 189.544 109.392C189.53 109.222 189.483 109.056 189.405 108.904C189.328 108.752 189.221 108.617 189.091 108.506C188.961 108.395 188.81 108.311 188.648 108.259C183.136 106.477 179.208 102.998 175.859 99.403C176.17 98.7135 176.459 98.0293 176.711 97.3771L176.711 97.3764C177.016 96.6508 177.274 95.9064 177.483 95.1479C177.665 94.3714 177.755 93.5764 177.751 92.779C177.751 92.5811 177.745 92.3809 177.734 92.1786C178.89 93.5849 180.122 94.9267 181.425 96.1978C184.361 99.115 187.934 101.311 191.862 102.612C192.19 102.718 192.547 102.69 192.854 102.533C193.161 102.376 193.393 102.103 193.499 101.775C193.605 101.447 193.577 101.09 193.42 100.783C193.263 100.476 192.991 100.244 192.663 100.138C189.109 98.9586 185.878 96.9679 183.227 94.3236C183.155 94.255 183.093 94.1816 183.022 94.1126C187.059 96.3579 191.523 97.7297 196.125 98.1392C196.295 98.1572 196.467 98.1413 196.631 98.0926C196.795 98.0438 196.948 97.9631 197.081 97.855C197.214 97.747 197.324 97.6138 197.406 97.463C197.487 97.3122 197.537 97.1469 197.555 96.9765C197.572 96.8061 197.555 96.634 197.505 96.4701C197.456 96.3061 197.374 96.1536 197.266 96.0213C197.157 95.8889 197.023 95.7794 196.872 95.6989C196.721 95.6184 196.555 95.5686 196.385 95.5523C190.496 95.0249 184.883 92.8181 180.212 89.1941C178.286 87.7791 176.587 86.3373 174.854 85.1178C173.79 84.3521 172.647 83.704 171.444 83.1849C171.268 82.5081 171.091 81.8567 170.923 81.2591C170.918 81.2437 170.907 81.2332 170.902 81.2181C171.182 79.7316 171.358 78.2272 171.427 76.7161C172.588 77.1802 173.685 77.7891 174.693 78.5284C177.088 80.2051 179.722 82.621 183.284 84.7792C187.591 87.3921 192.44 88.9807 197.458 89.4224C197.629 89.4404 197.801 89.4245 197.965 89.3757C198.129 89.327 198.282 89.2463 198.415 89.1382C198.548 89.0302 198.658 88.897 198.74 88.7462C198.821 88.5954 198.871 88.4301 198.889 88.2597C198.906 88.0893 198.889 87.9172 198.839 87.7532C198.79 87.5893 198.708 87.4368 198.6 87.3045C198.491 87.1721 198.357 87.0625 198.206 86.9821C198.055 86.9016 197.889 86.8517 197.719 86.8355L197.719 86.8355ZM168.839 87.9174C169.085 87.3596 169.304 86.7944 169.512 86.2262C169.755 87.282 169.968 88.3195 170.117 89.2363C169.97 89.7277 169.586 91.08 169.146 92.5193C168.923 93.2505 168.686 93.9985 168.466 94.6452C168.249 95.2886 168.039 95.8442 167.906 96.1261L167.905 96.1287C167.605 96.7835 167.268 97.4206 166.895 98.0368L166.89 98.0451C166.759 98.2605 166.618 98.469 166.465 98.6696L166.312 98.8593L166.269 98.9064L166.263 98.9129L166.264 98.9139L166.253 98.9218C166.123 99.0433 165.969 99.1353 165.801 99.1915C165.517 99.2855 165.219 99.3302 164.921 99.3236H164.903C163.915 99.2798 162.948 99.0169 162.074 98.5539L162.07 98.5519C161.898 98.468 161.724 98.3711 161.55 98.2718C164.608 95.3084 167.08 91.7957 168.839 87.9174ZM155.595 79.3593C155.495 79.6874 155.346 80.062 155.187 80.4555L155.187 80.4546C155.025 80.8754 154.93 81.3188 154.905 81.7688C154.865 82.3533 154.874 82.8221 154.807 83.2155C154.748 83.6242 154.581 84.0097 154.324 84.3324C154.112 84.6045 154.017 84.9497 154.06 85.2918C154.103 85.634 154.28 85.9451 154.552 86.1568C154.753 86.3054 154.994 86.3909 155.245 86.4024C155.252 86.4806 155.26 86.5597 155.26 86.633C155.263 86.9587 155.189 87.2806 155.044 87.572C154.737 88.1179 154.268 88.5556 153.703 88.8248C152.961 89.1992 152.166 89.4592 151.347 89.5959C151.316 89.1534 151.24 88.7152 151.119 88.2884C151.199 88.1782 151.286 88.0702 151.352 87.9564C151.948 86.817 152.31 85.5704 152.417 84.2895C152.496 83.6916 152.555 83.1207 152.618 82.6252C152.66 82.2287 152.731 81.8358 152.829 81.4494V81.4489C152.993 80.7376 153.305 80.0688 153.744 79.4864C153.897 79.3075 154.083 79.1599 154.292 79.0518C154.551 78.9245 154.831 78.8444 155.118 78.8152C155.325 78.7893 155.531 78.7482 155.732 78.6922C155.712 78.919 155.666 79.1428 155.595 79.3593V79.3593ZM143.776 92.8878C142.73 92.9125 141.706 92.5901 140.862 91.971C140.432 91.6719 140.055 91.3018 139.748 90.8765C139.648 90.7487 139.587 90.5944 139.572 90.4324L139.609 90.2934C139.675 90.1784 139.763 90.0777 139.869 89.9971L140 89.9025L140.027 89.8864L140.026 89.8848C140.205 89.7894 140.36 89.6532 140.477 89.4873C140.594 89.3213 140.67 89.1301 140.7 88.9291C140.73 88.7282 140.711 88.5231 140.647 88.3304C140.583 88.1377 140.474 87.9628 140.33 87.8198L140.331 87.8192C139.866 87.3074 139.472 86.7353 139.16 86.1183C138.411 84.6846 138.023 83.0896 138.031 81.4719C138.031 80.9876 138.064 80.5039 138.127 80.0239V80.0234C138.484 77.609 139.529 75.3483 141.136 73.5112C141.86 72.6664 142.726 71.9543 143.695 71.4067C144.378 71.0244 145.131 70.7818 145.909 70.6929C144.902 71.4676 143.987 72.3551 143.182 73.3379C143.073 73.4694 142.991 73.621 142.941 73.7842C142.891 73.9473 142.873 74.1187 142.889 74.2887C142.905 74.4587 142.954 74.6239 143.034 74.7749C143.114 74.9258 143.222 75.0596 143.354 75.1685C143.485 75.2775 143.637 75.3595 143.8 75.4098C143.963 75.4601 144.134 75.4779 144.304 75.4619C144.474 75.446 144.64 75.3968 144.791 75.317C144.942 75.2373 145.075 75.1286 145.184 74.9971H145.184C146.007 73.9727 146.979 73.0779 148.068 72.3426C148.829 71.7979 149.729 71.4799 150.664 71.4255C151.066 71.4221 151.463 71.5158 151.822 71.6986C151.93 71.7549 152.031 71.8256 152.12 71.9087C151.594 72.0683 151.083 72.2751 150.594 72.5267C149.304 73.2025 148.177 74.1521 147.292 75.3092C147.188 75.4448 147.112 75.5996 147.068 75.7647C147.024 75.9298 147.013 76.1019 147.035 76.2712C147.058 76.4406 147.114 76.6038 147.199 76.7517C147.285 76.8995 147.399 77.0289 147.535 77.1327C147.67 77.2364 147.825 77.3124 147.99 77.3562C148.155 77.4001 148.328 77.411 148.497 77.3883C148.666 77.3655 148.829 77.3097 148.977 77.2238C149.125 77.138 149.254 77.0239 149.358 76.8881H149.358C150.011 76.0335 150.844 75.3319 151.796 74.832C152.539 74.4231 153.368 74.1937 154.216 74.162C154.483 74.1552 154.75 74.1978 155.002 74.2876C155.133 74.3312 155.248 74.4103 155.336 74.5162L155.336 74.5153C155.56 74.7768 155.694 75.1043 155.716 75.4482C155.719 75.5355 155.704 75.6224 155.672 75.7038C155.641 75.7852 155.593 75.8593 155.532 75.9219C155.331 76.1071 155.072 76.2175 154.799 76.2348C154.208 76.3014 153.633 76.4724 153.102 76.7399C152.358 77.1307 151.735 77.7165 151.298 78.4346C150.871 79.1497 150.546 79.921 150.332 80.7261V80.7256C150.157 81.4211 150.037 82.1293 149.973 82.8437C149.893 83.886 149.712 84.918 149.432 85.9251C149.33 86.2618 149.169 86.5775 148.956 86.857C148.813 87.0395 148.617 87.1722 148.395 87.2363C148.231 87.2843 148.078 87.3641 147.945 87.4711C147.812 87.5781 147.702 87.7103 147.62 87.8601C147.538 88.0099 147.486 88.1744 147.468 88.3441C147.449 88.5138 147.465 88.6856 147.513 88.8494C147.592 89.1147 147.756 89.347 147.978 89.5119C148.201 89.6767 148.471 89.7651 148.748 89.764C148.754 89.8465 148.763 89.9276 148.763 90.012C148.779 90.3882 148.683 90.7607 148.487 91.0821C148.344 91.2594 148.175 91.4143 147.986 91.5418C147.426 91.9345 146.812 92.245 146.164 92.4637C145.397 92.7358 144.59 92.879 143.776 92.8878V92.8878ZM145.677 106.121C146.883 102.535 147.648 98.8148 147.958 95.0436C149.033 97.5355 150.522 99.8272 152.362 101.822C152.454 101.919 152.553 102.004 152.646 102.099C150.406 103.579 148.079 104.922 145.677 106.121V106.121ZM173.32 88.5388C173.955 88.9165 174.439 89.5026 174.691 90.1972C175.007 91.0207 175.164 91.897 175.152 92.7791C175.154 93.3712 175.089 93.9616 174.956 94.5386C174.771 95.1853 174.547 95.8203 174.286 96.4401L174.286 96.4394C173.71 97.9613 173.014 99.4354 172.206 100.848C171.708 101.742 171.089 102.563 170.367 103.288C169.641 103.972 168.781 104.498 167.841 104.834C166.903 105.165 165.915 105.331 164.921 105.324C163.003 105.286 161.119 104.81 159.414 103.932C157.477 102.955 155.732 101.638 154.26 100.044L154.26 100.044C152.427 98.0621 150.983 95.7539 150.003 93.2391C150.243 93.0318 150.457 92.7965 150.641 92.5384C150.697 92.4556 150.73 92.3706 150.778 92.2869C150.833 92.2944 150.889 92.2982 150.944 92.2982C151.674 92.1994 152.394 92.0438 153.099 91.8328C153.574 93.0751 154.179 94.2636 154.905 95.3784L154.904 95.3776C156.39 97.7104 158.465 99.6098 160.92 100.884C162.152 101.527 163.514 101.882 164.903 101.924H164.921C165.521 101.931 166.119 101.833 166.686 101.636L166.691 101.634C167.164 101.463 167.599 101.201 167.971 100.863C167.984 100.853 167.999 100.848 168.011 100.837L168.025 100.823L168.032 100.818L168.031 100.817C168.116 100.738 168.196 100.654 168.272 100.567C168.583 100.201 168.863 99.81 169.11 99.3986L169.106 99.4048L169.11 99.3982L169.111 99.3965V99.3967C169.535 98.6958 169.919 97.9714 170.261 97.2269C170.513 96.6566 170.736 96.074 170.928 95.4813C171.278 94.4523 171.649 93.2356 171.961 92.1888C172.271 91.1457 172.523 90.2615 172.616 89.9554C172.647 89.5953 172.673 89.2347 172.693 88.8737H172.693C172.661 88.675 172.623 88.4672 172.586 88.2612C172.842 88.3199 173.089 88.4133 173.32 88.5388ZM179.124 78.6231C178.127 77.8426 177.16 77.0857 176.187 76.4012C174.751 75.3392 173.145 74.5279 171.438 74.0019C171.399 72.7259 171.296 71.4352 171.129 70.1298C174.149 67.6405 177.491 65.5704 181.065 63.9757C184.054 62.5573 187.298 61.7515 190.603 61.6059C192.039 61.5479 193.464 61.8725 194.734 62.5464C195.803 63.1749 196.584 64.1972 196.909 65.3944V65.3942C197.079 65.9407 197.168 66.5095 197.171 67.0819C197.144 68.39 196.679 69.6513 195.852 70.6645C194.066 72.7337 191.817 74.3521 189.288 75.3878C186.095 76.8086 182.752 77.8656 179.323 78.5387C179.254 78.5609 179.188 78.5892 179.124 78.6231H179.124Z"/><path id="Vector_27" d="M186.175 104.986L189.622 106.571C189.934 106.711 190.29 106.723 190.611 106.603C190.933 106.482 191.193 106.24 191.337 105.928C191.48 105.617 191.494 105.261 191.377 104.939C191.259 104.617 191.018 104.354 190.708 104.208L187.262 102.623C186.949 102.483 186.593 102.471 186.272 102.591C185.951 102.712 185.69 102.954 185.547 103.266C185.403 103.577 185.389 103.933 185.507 104.255C185.625 104.577 185.865 104.84 186.175 104.986Z"/><path id="Vector_28" d="M185.175 107.776L189.098 101.024C189.27 100.726 189.317 100.371 189.229 100.039C189.14 99.7058 188.923 99.4217 188.626 99.2487C188.328 99.0757 187.974 99.0279 187.641 99.1159C187.308 99.2038 187.023 99.4202 186.85 99.7177L182.927 106.47C182.754 106.768 182.707 107.122 182.796 107.455C182.884 107.788 183.101 108.072 183.399 108.245C183.697 108.418 184.051 108.466 184.384 108.378C184.717 108.29 185.001 108.073 185.175 107.776Z"/><path id="Vector_29" d="M58.4609 127.604L58.4619 127.601V127.595L58.4609 127.604Z"/><path id="Vector_30" d="M74.887 126.228C74.1267 125.169 73.0949 124.333 71.9002 123.811C70.5352 123.185 69.0678 122.813 67.5696 122.712C67.2188 122.686 66.8722 122.673 66.53 122.673C64.6941 122.638 62.8783 123.06 61.2454 123.9C60.5311 124.279 59.8983 124.795 59.3831 125.418C58.8709 126.041 58.5504 126.799 58.4605 127.601C58.4464 127.732 58.4394 127.865 58.4395 127.997C58.4493 128.836 58.7088 129.653 59.1848 130.343C59.9453 131.403 60.9771 132.238 62.1719 132.761C63.5371 133.387 65.0046 133.759 66.5029 133.86C66.8523 133.886 67.1981 133.899 67.5405 133.899C69.3768 133.933 71.193 133.512 72.8264 132.672C73.5408 132.293 74.1737 131.777 74.6892 131.154C75.2025 130.53 75.5233 129.77 75.6128 128.967L75.6135 128.958C75.6252 128.835 75.6323 128.707 75.6323 128.574C75.6225 127.736 75.363 126.919 74.887 126.228ZM72.6592 129.529C72.1451 130.1 71.4899 130.526 70.7593 130.763C69.7261 131.129 68.6366 131.31 67.5405 131.299C67.2639 131.299 66.9824 131.288 66.6985 131.267C65.1901 131.186 63.7258 130.729 62.4398 129.937C62.0123 129.665 61.6416 129.314 61.3484 128.901C61.157 128.638 61.0494 128.323 61.0393 127.997L61.0454 127.877L61.0464 127.868C61.085 127.562 61.2125 127.276 61.4131 127.042C61.9269 126.472 62.5819 126.046 63.3123 125.808C64.3452 125.442 65.4344 125.261 66.5301 125.273C66.8067 125.273 67.088 125.284 67.3741 125.305C68.8825 125.385 70.3466 125.842 71.6326 126.635C72.0599 126.906 72.4303 127.257 72.7234 127.67C72.9148 127.934 73.0225 128.249 73.0325 128.574L73.0257 128.705C72.987 129.01 72.8596 129.296 72.6592 129.529Z"/></g></g></svg>