<svg xmlns="http://www.w3.org/2000/svg" width="200" height="200" fill="none"><path fill="#FFE632" d="M78.394 107.549s.342 3.538 6.642 9.962c6.299 6.423 12.32 3.006 12.32 3.006.126-.393.189-.804.182-1.225-.146-9.949-6.644-15.243-19.144-11.743ZM172.921 81.976a6.494 6.494 0 0 0-3.928-1.33c-1.173 0-2.379.321-3.507.973a8.768 8.768 0 0 0-1.627 1.218c-1.301-2.256-3.6-3.607-6.013-3.6-1.618-.005-3.276.608-4.615 1.859a5.91 5.91 0 0 0-1.485 2.208c-.328.844-.484 1.774-.484 2.755.003 2.153.739 4.564 2.197 7.113 1.461 2.548 3.659 5.237 6.664 7.916.341.303.815.406 1.251.271 4.922-1.53 8.495-3.586 10.886-5.903 2.384-2.31 3.593-4.924 3.593-7.443 0-.862-.143-1.705-.417-2.5-.508-1.467-1.389-2.687-2.515-3.537Z"/><path fill="#BEBEC9" d="M74.463 77.956c-1.015-.653-2.132-1.087-3.31-1.377a15.692 15.692 0 0 0-3.708-.426c-3.041.007-6.329.767-9.255 2.547a14.623 14.623 0 0 0-3.944 3.498 13.994 13.994 0 0 0-2.506 5.157 3 3 0 1 0 5.814 1.484 7.976 7.976 0 0 1 1.431-2.962c.951-1.226 2.264-2.159 3.772-2.79 1.5-.63 3.182-.936 4.688-.934.845 0 1.631.095 2.284.255.653.158 1.168.385 1.48.589a3 3 0 0 0 3.254-5.04ZM124.069 73.152a13.944 13.944 0 0 0-5.55-4.479c-2.074-.926-4.256-1.306-6.355-1.306a18.32 18.32 0 0 0-7.315 1.543 15.283 15.283 0 0 0-3.01 1.744c-.905.682-1.71 1.464-2.359 2.39a3 3 0 1 0 4.92 3.435c.198-.287.552-.66 1.045-1.03.737-.557 1.775-1.099 2.95-1.478a12.357 12.357 0 0 1 3.769-.604c1.377 0 2.717.251 3.908.784 1.194.538 2.255 1.337 3.176 2.573a3 3 0 1 0 4.821-3.571ZM112.568 51.612c2.504.897 4.802 2.29 6.647 4.306a1.3 1.3 0 0 0 1.919-1.754c-2.172-2.374-4.858-3.987-7.69-5-2.835-1.013-5.82-1.436-8.66-1.436-3.481.002-6.74.63-9.285 1.66a1.3 1.3 0 1 0 .978 2.41c2.163-.882 5.147-1.473 8.307-1.47 2.581 0 5.282.389 7.784 1.284ZM57.578 60.376c3.721-2.082 7.91-3.098 10.99-3.099a1.3 1.3 0 0 0-.007-2.6c-3.612.015-8.118 1.132-12.249 3.428-4.117 2.296-7.875 5.814-9.677 10.687a1.3 1.3 0 1 0 2.44.9c1.519-4.127 4.77-7.234 8.503-9.316Z"/><path fill="#BEBEC9" d="M165.62 105.514c-.672-.38-1.42-.52-2.252-.527-1.019.002-2.166.25-3.211.92a5.09 5.09 0 0 0-1.443 1.406c-1.03-1.198-1.834-2.11-1.836-2.113a1.298 1.298 0 0 0-1.524-.319c-1.02.471-1.808 1.156-2.301 1.973-.497.815-.686 1.718-.685 2.571.003 1.136.311 2.21.712 3.171.006.016.014.03.021.046a4.015 4.015 0 0 0-1.708 1.017c-.496.487-.917 1.096-1.284 1.808-.147-.013-.294-.036-.439-.036a4.282 4.282 0 0 0-3 1.197c-.793.761-1.306 1.802-1.545 2.99a6.98 6.98 0 0 0-.137 1.377c0 .439.049.837.115 1.212l-7.971 2.162c-.946-.685-2.292-1.789-3.846-3.062.073-1.005.356-1.726.775-2.304.663-.911 1.769-1.529 3.078-1.901 1.299-.372 2.75-.483 3.903-.481.647 0 1.201.033 1.588.065.193.016.345.033.446.044l.111.014.028.004a1.302 1.302 0 0 0 1.138-2.171c-2.698-2.906-6.107-4.455-9.153-5.288a27.988 27.988 0 0 0-7.191-.96c-.645 0-1.026.027-1.053.029a1.298 1.298 0 0 0-1.188 1.089h-.001a5.77 5.77 0 0 1-.712 1.831c-.259.416-.588.791-.986 1.052-.403.26-.873.434-1.563.438-.488 0-1.091-.096-1.832-.357-.129-.046-.26-.051-.39-.056-.21-.097-.41-.2-.625-.294a24.024 24.024 0 0 0-3.627-1.258c10.126-4.304 16.316-9.178 20.03-13.729 4.195-5.14 5.202-9.835 5.199-12.662 0-.364-.017-.692-.046-.996a20.588 20.588 0 0 0 6.922-7.196c1.318-2.308 1.725-4.063 1.746-4.153a1.301 1.301 0 0 0-1.344-1.586l-6.525.386c.337-.381.684-.79 1.037-1.247.9-1.167 1.808-2.572 2.501-4.174.693-1.602 1.169-3.409 1.17-5.353 0-1.158-.171-2.361-.559-3.578a1.3 1.3 0 0 0-1.918-.713l-9.661 5.921c-.708-11.909-3.651-22.137-9.984-29.492-3.235-3.754-7.352-6.729-12.413-8.743-5.062-2.016-11.059-3.078-18.093-3.078-4.983 0-10.496.54-16.573 1.65-.122-1.02-.2-2.034-.198-3.006-.001-1.428.154-2.762.497-3.885.344-1.128.862-2.03 1.583-2.7.38-.352.514-.9.34-1.388a1.303 1.303 0 0 0-1.14-.862 6.031 6.031 0 0 0-.369-.009c-.903.005-3.359.114-5.899 1.443a10.572 10.572 0 0 0-3.602 3.07c-.826 1.111-1.493 2.493-1.927 4.149l-2.845-.84a1.294 1.294 0 0 0-1.015.12c-.31.178-.53.47-.615.817-.017.07-.394 1.615-.395 3.85 0 .954.074 2.037.275 3.183-9.602 3.351-16.61 7.881-21.319 13.47-5.212 6.18-7.537 13.617-7.53 21.83.002 6.142 1.293 12.737 3.587 19.686L25.51 79.117a1.3 1.3 0 0 0-1.506 1.385c.193 2.46 1.122 4.549 2.368 6.234 1.875 2.533 4.427 4.21 6.5 5.286.138.071.267.132.4.198l-6.186 2.11a1.302 1.302 0 0 0-.644 1.977c.054.076 1.094 1.546 3.186 3.184a20.585 20.585 0 0 0 9.216 4.061c.501 1.302 2.074 4.598 6.065 7.867 4.198 3.443 11.047 6.783 21.917 7.778a27.116 27.116 0 0 0-7.227 4.532c-1.584-.12-2.72-.46-3.537-.867-1.231-.62-1.78-1.379-2.083-1.987a3.331 3.331 0 0 1-.262-.746l-.033-.19-.003-.031h-.003a1.3 1.3 0 0 0-1.24-1.226c-.018 0-.082-.003-.19-.003-.846.001-4.527.127-9.148 2.218-4.62 2.088-10.164 6.171-14.62 13.94a1.3 1.3 0 0 0 1.985 1.624v-.001c.055-.047.905-.768 2.21-1.457 1.304-.692 3.052-1.337 4.89-1.333a7.564 7.564 0 0 1 3.236.715c1.11.517 2.258 1.357 3.41 2.697a1.303 1.303 0 0 0 1.982-.011c.97-1.153 2.034-1.862 3.077-2.298a7.61 7.61 0 0 1 2.483-.568 56.65 56.65 0 0 0-1.657 3.591c-1.456 3.472-2.81 7.602-3.807 11.611-.996 4.014-1.641 7.884-1.645 10.919.002 1.177.095 2.233.34 3.166.115.432.318.788.556 1.118.45.612 1.046 1.152 1.76 1.705 1.248.96 2.867 1.93 4.62 2.877 4.502 2.428 9.867 4.66 11.317 5.252-.473 7.95-.8 13.993-.8 13.995a1.3 1.3 0 1 0 2.597.141l.097-1.772c.22-3.969.786-14.019 1.434-24.061.323-5.021.668-10.04 1-14.293.33-4.25.65-7.749.916-9.666a1.3 1.3 0 0 0-2.575-.356c-.236 1.711-.499 4.46-.774 7.82-.068.077-.145.144-.194.238l-4.41 8.359a1.3 1.3 0 0 0 .227 1.524l3.104 3.12c.088.089.195.142.3.2a2129.79 2129.79 0 0 0-.758 12.006c-1.837-.767-5.521-2.353-8.923-4.099-1.858-.953-3.632-1.956-4.94-2.869-.653-.453-1.188-.887-1.543-1.247a3.27 3.27 0 0 1-.39-.458.792.792 0 0 1-.107-.196c-.163-.609-.255-1.474-.254-2.504-.003-2.67.601-6.416 1.568-10.291.964-3.879 2.287-7.91 3.682-11.233 1.667-3.979 3.988-8.396 7.61-12 3.629-3.603 8.526-6.432 15.596-7.29.045-.005.08-.031.124-.041 3.028-.064 5.995-.229 8.953-.529.248.209.485.436.741.631 2.257 1.716 4.87 2.851 7.742 2.85.779 0 1.572-.083 2.374-.256 2.718-.582 4.923-2.045 6.611-3.978.85-.973 1.57-2.067 2.198-3.233a133.247 133.247 0 0 0 5.782-1.919c.092.002.181.021.276.003h-.001a9.084 9.084 0 0 1 1.678-.151c2.08-.003 4.353.645 6.445 1.557 2.093.908 4.004 2.068 5.395 3.012 2.236 1.517 4.563 3.367 6.635 5.055 1.96 1.596 3.661 3.018 4.943 3.949.286.503.866.783 1.45.625l8.654-2.348a9.454 9.454 0 0 0-.079 1.236c0 .585.049 1.266.186 2.025a1.3 1.3 0 0 0 2.559-.459v-.001a8.843 8.843 0 0 1-.145-1.565c0-.526.053-.93.101-1.188.024-.13.047-.223.062-.277l.014-.051.001-.003h-.001a1.302 1.302 0 0 0-.169-1.162l.002-.001c-.019-.019-.652-.994-.644-2.298 0-.272.026-.56.087-.862v-.002c.157-.777.461-1.308.795-1.626.34-.316.697-.467 1.201-.474.046 0 .099.01.147.012.259.531 1.106 2.31 1.612 3.761a1.3 1.3 0 0 0 2.455-.858c-.534-1.521-1.316-3.185-1.655-3.887.321-.721.673-1.243.982-1.542.367-.351.61-.413.782-.416.168.003.399.059.757.387.234.205.606.805.893 1.53.295.725.543 1.567.724 2.295a1.3 1.3 0 1 0 2.523-.628 20.015 20.015 0 0 0-.84-2.648c-.351-.843-.762-1.646-1.399-2.308-.028-.054-.037-.114-.073-.166h-.001a10.627 10.627 0 0 1-1.1-1.972c-.314-.745-.512-1.525-.509-2.166.002-.488.101-.881.306-1.22a2.15 2.15 0 0 1 .382-.452l.149.17c.797.917 2.006 2.32 3.06 3.595a62.507 62.507 0 0 1 1.387 1.728c.185.242.342.456.456.621l.134.203.035.059.007.014c.013.022.085.212.156.463.262.904.619 2.655.91 4.341.289 1.663.523 3.319.578 4.073a1.356 1.356 0 0 1-.171.374c-.223.38-.679.932-1.278 1.529-1.756 1.764-4.686 3.949-7.009 5.623-2.865 1.37-6.788 3.645-10.531 5.609-1.925 1.011-3.794 1.934-5.396 2.591-.8.328-1.533.589-2.159.762-.624.175-1.144.255-1.476.253l-.2-.01c-.457-.049-1.425-.259-2.524-.544-1.661-.428-3.687-1.023-5.29-1.509-.802-.242-1.499-.458-1.995-.614l-.203-.063a127.452 127.452 0 0 0-1.209-5.676 1.3 1.3 0 1 0-2.528.607c4.039 16.792 5.28 40.225 5.299 56.232a1.3 1.3 0 1 0 2.6-.003c-.023-13.599-.901-32.409-3.638-48.275.76.233 1.679.512 2.656.799 1.216.357 2.508.723 3.659 1.02 1.16.296 2.145.524 2.883.61.164.018.327.026.49.026.692-.002 1.403-.136 2.17-.347 2.66-.744 6.091-2.491 9.544-4.341 3.307-1.777 6.596-3.648 8.942-4.77.074-.034.154-.051.223-.101l.03-.021a1.296 1.296 0 0 0 .444-.323c1.783-1.292 3.874-2.843 5.618-4.362.95-.829 1.794-1.641 2.443-2.434.325-.398.603-.791.82-1.21.213-.418.383-.871.388-1.422l-.005-.153-.001-.009c-.078-1.077-.384-3.116-.745-5.111a61.267 61.267 0 0 0-.562-2.776 21.714 21.714 0 0 0-.279-1.095l-.043-.139 2.676-6.622c.243-.6.009-1.285-.551-1.611ZM63.273 155.217l1.373-2.603c-.087 1.211-.174 2.454-.261 3.721l-1.112-1.118Zm-10.126-23.563a8.469 8.469 0 0 0-.974-.068c-1.149 0-2.506.206-3.904.788a10.458 10.458 0 0 0-3.064 1.977c-1.07-1.036-2.182-1.801-3.306-2.323a10.186 10.186 0 0 0-4.334-.958c-1.423.002-2.732.285-3.889.679 3.487-4.466 7.256-7.011 10.496-8.483 3.16-1.433 5.824-1.835 7.188-1.945.177.518.465 1.138.956 1.783.572.749 1.414 1.502 2.586 2.085.68.338 1.481.611 2.39.815a34.27 34.27 0 0 0-4.145 5.65Zm11.492-110.71 2.77.817c.356.105.745.05 1.06-.147.314-.198.531-.526.591-.892.32-1.959.968-3.378 1.76-4.45 1.189-1.6 2.746-2.46 4.19-2.933.284-.093.56-.167.828-.23-.194.422-.37.854-.505 1.302-.442 1.457-.61 3.032-.61 4.643.002 1.573.167 3.182.417 4.748.002.01-.002.02 0 .03.001.007.007.012.008.02.115.71.242 1.414.387 2.096-.832-.659-1.79-1.2-2.89-1.497-.588-.155-1.2-.2-1.846-.202-1.597.003-3.422.306-4.89.6-.445.09-.849.18-1.205.26a16.133 16.133 0 0 1-.065-4.166Zm38.941 89.505c-.807 2.343-1.895 4.438-3.29 6.026-1.4 1.59-3.073 2.686-5.204 3.151a8.678 8.678 0 0 1-1.826.197c-2.48.001-4.814-1.108-6.993-2.989-3.26-2.808-6.013-7.312-7.888-11.521-.94-2.103-1.67-4.132-2.156-5.826a25.057 25.057 0 0 1-.547-2.247c-.12-.635-.174-1.153-.173-1.461l.002-.083v-.003c.036-.976.257-1.686.675-2.324.318-.479.767-.93 1.412-1.374.964-.665 2.367-1.291 4.238-1.883 1.87-.594 4.203-1.158 7.023-1.751l-.268-1.272.268 1.272c5.024-1.06 8.795-1.68 11.398-1.675 1.803-.004 2.99.3 3.688.77.356.238.618.513.843.89.222.376.402.865.519 1.502.089.483.188 1.3.261 2.327.074 1.028.123 2.275.123 3.66.003 4.294-.483 9.931-2.105 14.614Zm7.425-.443.002-.001a137.072 137.072 0 0 1-5.139 1.77 34.572 34.572 0 0 0 1.265-4.426c.878-4.018 1.151-8.15 1.152-11.514 0-1.447-.051-2.751-.129-3.846-.079-1.096-.182-1.974-.298-2.61-.159-.867-.426-1.658-.838-2.357-.613-1.052-1.578-1.845-2.732-2.298-1.157-.46-2.488-.636-4.037-.638-2.99.004-6.849.664-11.933 1.73-5.09 1.077-8.721 2.048-11.287 3.473-1.28.715-2.307 1.57-3.018 2.643-.714 1.071-1.067 2.328-1.107 3.675v-.003l-.003.175c.003.75.138 1.64.378 2.712.845 3.72 3.03 9.525 6.355 14.546a32.596 32.596 0 0 0 2.682 3.52 115.521 115.521 0 0 1-8.706.346c-14.471-.006-22.557-3.817-27.055-7.495-2.25-1.843-3.61-3.667-4.407-5.012a12.643 12.643 0 0 1-.809-1.598 7.38 7.38 0 0 1-.159-.418l-.03-.094-.005-.016h-.002a1.287 1.287 0 0 0-.973-.899 1.261 1.261 0 0 0-.646-.332v-.001a17.965 17.965 0 0 1-8.296-3.594 16.823 16.823 0 0 1-1.457-1.283l7.63-2.603c.538-.183.893-.693.88-1.262a1.298 1.298 0 0 0-.941-1.218l-.018-.005c-.245-.07-2.885-.898-5.45-2.67-1.284-.883-2.544-1.997-3.502-3.339a9.623 9.623 0 0 1-1.466-3.085l15.8 2.585a1.3 1.3 0 0 0 .42-2.565l-3.283-.537c-2.51-7.244-3.882-14.014-3.88-20.16.007-7.74 2.137-14.467 6.918-20.154 4.777-5.674 12.281-10.342 23.165-13.672.286-.06.592-.122.91-.182 1.269-.241 2.739-.448 3.843-.446.504-.001.93.047 1.172.114.923.247 1.782.804 2.56 1.562 1.167 1.132 2.103 2.695 2.717 3.968.183.378.336.725.464 1.032.284.785.474 1.258.48 1.272a1.299 1.299 0 0 0 2.444-.879c-.01-.03-.177-.556-.505-1.348a58.98 58.98 0 0 1-1.326-4.19 49.032 49.032 0 0 1-.88-3.75c5.974-1.094 11.355-1.62 16.169-1.62 6.775 0 12.436 1.025 17.131 2.895 7.039 2.812 11.948 7.493 15.295 13.736 3.341 6.241 5.069 14.073 5.518 23.019.01.194.067.37.151.532l-3.163 1.939a1.3 1.3 0 0 0 1.359 2.217l13.662-8.374c.046.377.075.75.075 1.12 0 1.515-.373 2.972-.956 4.321-.872 2.023-2.22 3.784-3.352 5.019a21.763 21.763 0 0 1-1.438 1.434c-.181.165-.326.29-.423.37l-.108.09-.025.02-.003.003a1.3 1.3 0 0 0 .882 2.319l8.048-.477a17.12 17.12 0 0 1-.977 1.928 17.97 17.97 0 0 1-6.21 6.275 1.268 1.268 0 0 0-.421.438c-.436.28-.684.8-.578 1.34h-.001c.055.275.102.703.102 1.239-.003 2.234-.788 6.326-4.615 11.018-3.828 4.693-10.739 10.015-23.042 14.576Zm20.959 7.46a6.47 6.47 0 0 0-.967 1.983c-1.753-1.406-3.64-2.867-5.519-4.142-.204-.138-.441-.288-.665-.434a5.03 5.03 0 0 0 .759-.421c1.21-.833 1.869-1.988 2.254-2.899.093-.222.17-.432.233-.624 1.28.002 3.754.128 6.456.868 1.727.471 3.534 1.191 5.198 2.268-1.522.095-3.287.38-4.915 1.141-1.062.499-2.073 1.223-2.834 2.26Zm29.834-6.461a92.308 92.308 0 0 0-1.273-1.557c.237-.652.595-1.059 1.042-1.356.473-.31 1.068-.464 1.608-.493l-1.377 3.406Z"/></svg>