<svg xmlns="http://www.w3.org/2000/svg" width="200" height="200" fill="none"><g clip-path="url(#a)"><path fill="#BEBEC9" d="M41.58 186.01h-.15c-.71-.08-1.22-.73-1.14-1.44 2.11-17.74 11.64-81.39 17.14-117.76a1.299 1.299 0 1 1 2.57.39c-5.49 36.35-15.02 99.98-17.13 117.68-.08.66-.64 1.15-1.29 1.15v-.02ZM82.32 51.19c-.29 0-.57-.09-.8-.27l-18.8-14.64c-.57-.44-.67-1.26-.23-1.82.44-.57 1.26-.67 1.82-.23l18.3 14.25c9.24-2.22 25.591-1.37 29.001-1.16l16.05-16.54c.5-.51 1.32-.53 1.84-.03s.53 1.32.03 1.84l-16.47 16.97c-.27.27-.65.42-1.02.39-.2-.01-19.85-1.33-29.39 1.2-.11.03-.22.04-.33.04ZM149.891 183.05c-.69 0-1.26-.54-1.3-1.23-3.17-60.66-9.02-98.86-13.36-120.21-.14-.7.31-1.39 1.01-1.53.7-.14 1.39.31 1.53 1.01 4.37 21.44 10.24 59.77 13.41 120.6a1.3 1.3 0 0 1-1.23 1.37h-.07l.01-.01Z"/><path fill="#BEBEC9" d="M19.08 85.08c-.49 0-.96-.28-1.18-.75-.3-.65-.02-1.42.63-1.73 9.84-4.58 33.56-7.11 48.26-3.38.7.18 1.12.88.94 1.58-.18.7-.89 1.11-1.58.94-13.8-3.5-37.12-1.16-46.53 3.21-.18.08-.36.12-.55.12l.01.01ZM16.95 98.31a1.305 1.305 0 0 1-.54-2.49c12.83-5.92 35.03-10.7 49.6-10.7h.19c.72 0 1.3.59 1.3 1.3 0 .72-.57 1.29-1.3 1.3h-.19c-14.26 0-35.96 4.68-48.51 10.46-.18.08-.36.12-.54.12l-.01.01ZM24.781 105.17c-.49 0-.96-.28-1.18-.75-.31-.65-.03-1.42.62-1.73 12.73-6 27.08-8.99 40.39-8.43.72.03 1.27.64 1.24 1.35-.03.72-.63 1.28-1.35 1.24-12.89-.54-26.81 2.36-39.17 8.18-.18.08-.37.12-.55.12v.02ZM170.56 105.04c-.2 0-.41-.05-.6-.15-12.38-6.49-32.92-9.96-40.19-9.96h-.14c-.71 0-1.3-.58-1.3-1.29 0-.72.57-1.3 1.29-1.31 7.36-.06 28.72 3.54 41.55 10.26a1.3 1.3 0 0 1-.6 2.45h-.01ZM180.771 95.75c-.21 0-.42-.05-.62-.16-12.29-6.64-32.16-7.99-45.44-7.12-.7.05-1.33-.5-1.38-1.21-.05-.72.5-1.33 1.21-1.38 13.62-.89 34.07.53 46.84 7.43.63.34.87 1.13.53 1.76-.23.44-.68.68-1.14.68ZM129.551 81.01a1.299 1.299 0 0 1-.26-2.57c.3-.06 29.85-5.95 53.83-.03a1.298 1.298 0 1 1-.62 2.52c-23.41-5.78-52.4 0-52.69.05-.09.02-.17.03-.26.03ZM119.33 82.23c-.3 0-.6-.1-.85-.31-2.78-2.38-5.99-.58-6.9.02-.6.4-1.41.23-1.8-.37-.4-.6-.23-1.41.37-1.8 2.68-1.78 6.72-2.66 10.03.17a1.297 1.297 0 0 1-.85 2.28v.01ZM77.11 83.94a1.298 1.298 0 0 1-.89-2.25c2.26-2.13 6.03-3.62 9.82-1.45a1.296 1.296 0 1 1-1.29 2.25c-3.22-1.85-5.98.37-6.75 1.09-.25.24-.57.35-.89.35v.01ZM94.5 93.03c-1.09 0-2.26-.35-3.52-1.06-.63-.35-.85-1.14-.5-1.77a1.3 1.3 0 0 1 1.77-.5c1.29.72 2.33.9 3.11.54 1.14-.53 1.7-2.2 1.82-2.8.1-.53.53-.95 1.06-1.03.54-.09 1.07.16 1.34.63.23.4 2.351 3.85 5.331 2.26.63-.34 1.42-.1 1.76.53.34.63.1 1.42-.53 1.76-3.01 1.61-5.61.32-7.29-1.31-.5.88-1.25 1.79-2.38 2.31-.62.29-1.27.43-1.97.43v.01Z"/><path fill="#FFD93A" d="M112.91 180.23H83.53c-5.85 0-10.62-4.76-10.62-10.62v-13.92c0-.72.58-1.3 1.3-1.3.72 0 1.3.58 1.3 1.3v13.92c0 4.42 3.6 8.02 8.02 8.02h29.38c4.42 0 8.02-3.6 8.02-8.02v-18.02c0-.72.58-1.3 1.3-1.3.72 0 1.3.58 1.3 1.3v18.02c0 5.85-4.76 10.62-10.62 10.62ZM74.21 141.79c-.72 0-1.3-.58-1.3-1.3v-25.42c0-5.85 4.76-10.62 10.62-10.62h29.38c5.85 0 10.62 4.76 10.62 10.62v21.01c0 .72-.58 1.3-1.3 1.3-.72 0-1.3-.58-1.3-1.3v-21.01c0-4.42-3.6-8.02-8.02-8.02H83.53c-4.42 0-8.02 3.6-8.02 8.02v25.42c0 .72-.58 1.3-1.3 1.3Z"/><path fill="#BEBEC9" d="M72.67 156.69c-1.08 0-2.12-.08-3.02-.23-8.4-1.4-22.4-9.33-21.64-30.17.03-.72.61-1.29 1.35-1.25.72.03 1.28.63 1.25 1.35-.7 19.04 11.91 26.25 19.47 27.51 2.77.46 6.84.06 8.05-.79.05-.04.1-.07.14-.1a1.09 1.09 0 0 1-.11-.06c-.28-.15-1.02-.54-.94-1.43.05-.52.43-.99.92-1.15.6-.19 1.18-.2 1.69-.21.96-.01 1.25-.04 1.6-.64.08-.14.06-.55-.98-1.68-.31-.34-.6-.66-.61-1.2 0-.81.6-1.24.93-1.47.32-.22.4-.31.42-.41.03-.28.03-.66-.12-.84-.09-.11-.43-.38-1.58-.48-.44-.04-.81-.06-1.12-.08-1.99-.12-2.53-.27-6.28-2.32-13.03-7.12-10.23-24.46-10.11-25.19.12-.71.79-1.18 1.5-1.06.71.12 1.18.79 1.06 1.5-.03.16-2.6 16.25 8.79 22.47 3.49 1.91 3.68 1.92 5.19 2.01.33.02.72.04 1.19.08 1.58.14 2.68.6 3.35 1.42.58.7.82 1.63.7 2.77-.08.79-.45 1.34-.83 1.72.76.96 1.65 2.5.74 4.07-.72 1.25-1.7 1.69-2.58 1.85 0 .04 0 .08.01.13.06.88-.45 1.69-1.5 2.43-1.4.98-4.28 1.46-6.96 1.46l.03-.01ZM121.67 152.52c-1.36 0-2.59-.14-3.64-.4-2.76-.69-6.62-2.88-7.72-4.91-.6-1.09-.7-2.03-.31-2.8.07-.13.14-.24.22-.35-.81-.76-1.6-1.87-1.4-3.6.1-.9.5-2.27 1.9-2.78-.09-.31-.17-.6-.21-.86-.14-1.05.19-1.97.92-2.56.95-.77 2.43-.89 4.07-.33l.7.25c1.95.7 3.5 1.25 6.86.7 11.14-1.8 13-17.84 13.01-18 .08-.71.72-1.24 1.43-1.15a1.3 1.3 0 0 1 1.15 1.43c-.08.74-2.08 18.17-15.18 20.29-4.02.65-6.02-.06-8.14-.82l-.68-.24c-.93-.32-1.48-.2-1.58-.12 0 0 0 .06.01.21.01.11.12.44.18.66.25.82.45 1.47.21 2.08-.16.4-.52.89-1.49.86-.44 0-.51 0-.59.67-.09.83.3 1.21 1.29 1.96.31.23.59.45.83.68.36.35.5.9.34 1.38-.27.81-1.04.9-1.34.94h-.05c.03.07.07.15.12.24.66 1.21 3.73 3.05 6.07 3.63 3.94.98 10.81-.16 16.33-4.25 4.03-2.99 8.96-8.73 9.5-19.15.04-.72.65-1.25 1.37-1.23a1.3 1.3 0 0 1 1.23 1.37c-.59 11.43-6.06 17.78-10.55 21.1-4.92 3.64-10.53 5.09-14.87 5.09l.01.01Z"/><path fill="#FFD93A" d="M83.681 118.65c-1.96 0-3.56-1.6-3.56-3.56s1.6-3.56 3.56-3.56 3.56 1.6 3.56 3.56-1.6 3.56-3.56 3.56Zm0-4.53a.96.96 0 1 0 0 1.92.96.96 0 0 0 0-1.92ZM61.311 68.29c-.35 0-.7-.04-1.04-.12-6.95-1.56-10.87-8.7-9.53-17.38.78-5.06 3.43-9.57 7.08-12.06 2.4-1.64 4.97-2.22 7.43-1.66 4.92 1.1 7.53 8.08 6.21 16.61-.93 6-3.61 11.29-6.83 13.49-1.08.74-2.21 1.11-3.31 1.11l-.01.01Zm2.11-28.82c-1.68 0-3.14.73-4.15 1.41-3.02 2.06-5.31 6.01-5.97 10.31-1.12 7.26 1.98 13.2 7.53 14.44.71.16 1.5-.05 2.32-.61 2.62-1.79 4.92-6.5 5.73-11.74 1.19-7.7-1.21-13-4.21-13.68-.43-.1-.85-.14-1.25-.14v.01Z"/><path fill="#FFD93A" d="M56.98 65.56c-.12 0-.23 0-.35-.01-1.38-.1-2.64-.82-3.66-2.06-2.07-2.53-2.96-7.16-2.33-12.08.96-7.52 5.05-13.15 9.3-12.84 1.38.1 2.64.82 3.66 2.06 2.07 2.53 2.96 7.16 2.33 12.08-.94 7.32-4.83 12.85-8.96 12.85h.01Zm-3.75-13.82c-.53 4.17.16 8.13 1.76 10.1.56.68 1.18 1.06 1.84 1.11 2.43.2 5.7-4.12 6.53-10.58.53-4.17-.16-8.13-1.76-10.1-.56-.68-1.18-1.06-1.84-1.11-2.41-.18-5.7 4.12-6.53 10.58ZM131.561 65.7c-.58 0-1.27-.16-2.02-.65-2.69-1.76-4.99-7.39-5.74-14.01-.97-8.59.97-15.38 4.72-16.53 1.57-.48 3.22-.19 4.78.83 3.21 2.11 5.71 7.18 6.35 12.92.97 8.6-1.97 15.71-7.15 17.3-.26.08-.58.14-.94.14Zm-1.54-28.82c-.25 0-.5.04-.74.11-1.8.55-3.81 5.64-2.9 13.75.72 6.4 2.9 11.02 4.58 12.13.45.29.69.22.78.2 3.9-1.19 6.14-7.3 5.33-14.52-.56-4.93-2.64-9.37-5.2-11.04-.64-.42-1.26-.63-1.85-.63Z"/><path fill="#FFD93A" d="M135.74 62.01c-.49 0-1.16-.15-1.86-.72-1.93-1.58-3.49-6.06-4-11.42-.57-6.07.35-12.78 3.72-13.13.5-.05 1.28.03 2.11.71 1.93 1.58 3.49 6.06 4 11.42.57 6.08-.35 12.78-3.72 13.13-.08 0-.17.01-.26.01h.01Zm-1.88-22.68c-.59.24-1.99 3.78-1.38 10.3.6 6.46 2.61 9.65 3.27 9.78.59-.24 1.99-3.78 1.38-10.3-.6-6.46-2.61-9.65-3.27-9.78Z"/><path fill="#FFD93A" d="M63.08 42.88c-.14 0-.29-.02-.43-.07-.68-.24-1.03-.98-.79-1.66.09-.25 9.03-24.78 34.27-25.83 25.191-1.07 37.021 23.06 37.141 23.3a1.3 1.3 0 0 1-.61 1.73c-.65.31-1.42.04-1.73-.61-.11-.23-11.21-22.78-34.68-21.82-23.45.97-31.84 23.87-31.93 24.1-.19.53-.69.87-1.23.87l-.01-.01Z"/><path fill="#FFD93A" d="M132.8 39.87c-.51 0-1-.3-1.2-.81-.09-.23-9.78-22.97-34.85-22.76-25.09.22-33.02 21.41-33.34 22.31-.24.68-.99 1.03-1.66.78-.67-.24-1.03-.99-.78-1.66.09-.24 8.83-23.8 35.77-24.04h.4c26.62 0 36.79 24.13 36.89 24.38a1.3 1.3 0 0 1-.71 1.69c-.16.07-.33.1-.49.1l-.03.01Z"/><path fill="#BEBEC9" d="M155.37 56.36c-.43 0-.86-.07-1.25-.21-.89-.32-1.56-.98-1.84-1.82-.28-.83-.14-1.77.38-2.56.46-.71 1.19-1.26 2.05-1.54 1.89-.63 3.87.18 4.41 1.81.28.83.14 1.77-.38 2.56-.46.71-1.19 1.26-2.05 1.54-.43.14-.88.22-1.31.22h-.01Zm.65-3.75c-.15 0-.31.02-.49.08-.3.1-.56.29-.7.5-.08.12-.11.24-.09.31.02.07.12.15.26.2.25.09.56.08.86-.02.3-.1.56-.29.7-.5.08-.12.11-.24.09-.31-.04-.12-.29-.26-.63-.26Z"/><path fill="#BEBEC9" d="M157.791 53.55c-.51 0-.99-.3-1.2-.8-1.73-4.17-3.45-8.4-5.11-12.56-.27-.67.06-1.42.73-1.69.67-.26 1.42.06 1.69.73 1.65 4.15 3.37 8.37 5.1 12.52a1.301 1.301 0 0 1-1.2 1.8h-.01Z"/><path fill="#BEBEC9" d="M158.06 43.27c-.51 0-.99-.3-1.2-.79-.32-.75-.91-1.38-1.63-1.74-.14-.07-.26-.12-.36-.15-.46-.12-1.1.02-1.67.15-.7.15-1.39-.29-1.55-.99-.15-.7.29-1.4.99-1.55.77-.17 1.83-.41 2.9-.12.28.07.56.18.86.34a6.07 6.07 0 0 1 2.86 3.05 1.297 1.297 0 0 1-1.2 1.8ZM166.151 40.55c-.19 0-.39-.01-.58-.04-1.97-.27-3.38-1.88-3.15-3.58.24-1.7 2.03-2.87 4-2.6 1.97.27 3.38 1.88 3.15 3.59-.12.87-.66 1.65-1.48 2.13-.57.34-1.25.51-1.95.51l.01-.01Zm-.31-3.66c-.5 0-.82.23-.84.39-.02.18.31.57.93.65.32.04.63 0 .85-.14.12-.07.21-.16.22-.24.02-.18-.31-.57-.93-.65-.08-.01-.15-.02-.23-.02v.01Z"/><path fill="#BEBEC9" d="M168.301 39.03h-.09c-.72-.05-1.26-.67-1.21-1.38.3-4.48.64-9.03 1.01-13.52a1.299 1.299 0 1 1 2.59.21c-.37 4.48-.71 9.02-1 13.48a1.3 1.3 0 0 1-1.3 1.21Z"/><path fill="#BEBEC9" d="M173.11 29.95h-.08a1.3 1.3 0 0 1-1.22-1.38c.05-.81-.2-1.64-.69-2.29-.09-.12-.18-.22-.26-.29-.35-.31-.99-.47-1.56-.61a1.298 1.298 0 1 1 .62-2.52c.81.2 1.82.45 2.65 1.18.22.19.42.42.62.69a6.12 6.12 0 0 1 1.21 4c-.04.69-.61 1.22-1.3 1.22h.01ZM43.51 51.29c-.69 0-1.26-.54-1.3-1.24-.56-11.52 8.36-19.8 8.74-20.14.53-.48 1.35-.45 1.83.08s.45 1.35-.08 1.84c-.08.08-8.39 7.82-7.89 18.1.04.72-.52 1.33-1.24 1.36h-.06ZM147.63 46.88c-.68 0-1.25-.53-1.3-1.22-.66-10.55-7.58-14.94-7.65-14.98a1.3 1.3 0 1 1 1.37-2.21c.33.21 8.14 5.16 8.88 17.03.04.72-.5 1.33-1.22 1.38h-.08ZM37.671 43.06h-.08a1.3 1.3 0 0 1-1.22-1.38c.38-6.14 4.05-9.99 4.2-10.16.5-.52 1.32-.53 1.84-.03s.53 1.32.03 1.84c-.06.06-3.16 3.39-3.48 8.51-.04.69-.61 1.22-1.3 1.22h.01Z"/></g><defs><clipPath id="a"><path fill="#fff" d="M0 0h200v200H0z"/></clipPath></defs></svg>