<svg xmlns="http://www.w3.org/2000/svg" width="200" height="200" fill="none"><path fill="#BEBEC9" d="M156.559 163.798a14.23 14.23 0 0 0-.891-1.356l1.099-2.448a1.3 1.3 0 0 0-.923-1.805c-.069-.014-.582-.116-1.397-.116-.902 0-2.19.148-3.621.673-.095-.034-.181-.078-.277-.109a18.299 18.299 0 0 0-3.277-.74l-.257-1.821a1.301 1.301 0 0 0-1.993-.91c-.074.048-1.072.701-2.262 2.041a15.58 15.58 0 0 0-.907 1.125 12.37 12.37 0 0 0-2.373 1.052c-.898.516-1.687 1.095-2.415 1.669a485.59 485.59 0 0 0-1.901-17.309 1.3 1.3 0 0 0-2.579.33 473.675 473.675 0 0 1 3.522 42.423 1.301 1.301 0 0 0 2.599-.097 468.058 468.058 0 0 0-.369-7.95c.046-.039.1-.06.141-.106 2.408-2.724 4.316-5.931 6.961-8.827.896-.983 1.792-1.591 2.667-1.968a6.491 6.491 0 0 1 2.582-.521c1.43-.002 2.793.44 3.786.898.496.228.898.456 1.17.624.135.083.239.152.304.197l.07.049.014.009a1.3 1.3 0 0 0 2.04-1.339c-.02-.078-.405-1.735-1.513-3.668Zm-9.477 1.361c-1.23.527-2.446 1.375-3.566 2.608-2.151 2.369-3.786 4.806-5.399 6.912-.227-3.628-.49-7.131-.777-10.508.797-.649 1.583-1.303 2.41-1.879-.124.344-.24.698-.344 1.068a1.302 1.302 0 0 0 .61 1.483 1.302 1.302 0 0 0 1.583-.235h.001a8.828 8.828 0 0 1 1.455-1.151c.887-.572 2.102-1.141 3.453-1.27.355-.034.675-.209.895-.49.221-.28.316-.632.266-.985l-.018-.13c.653.12 1.347.288 2.101.53 1.095.353 1.992.94 2.745 1.648.742.697 1.321 1.515 1.777 2.302-1.03-.352-2.24-.632-3.586-.634a9.113 9.113 0 0 0-3.606.731ZM73.912 42.098c-4.902.576-8.816 4.129-9.865 8.64a28.687 28.687 0 0 0-.734 6.45c0 1.804.171 3.385.406 4.653.118.634.252 1.19.39 1.664.141.474.282.86.443 1.19.395.79.847 1.78 1.815 2.592a5.07 5.07 0 0 0 1.778.945c.7.215 1.499.321 2.426.321.282 0 .575-.01.882-.03 2.625-.173 4.188-.36 5.415-.742a5.975 5.975 0 0 0 1.588-.752c.452-.307.819-.647 1.178-1 .64-.633 1.077-1.428 1.42-2.318.508-1.338.804-2.923.991-4.665.184-1.74.25-3.634.25-5.547 0-2.26-.092-4.548-.201-6.622a4.46 4.46 0 0 0-2.226-3.638l-.65 1.126.65-1.127c-1.528-.88-3.146-1.218-4.665-1.216-.439 0-.87.027-1.291.076Zm5.585 4.915c.108 2.051.199 4.296.199 6.486 0 2.468-.118 4.87-.442 6.805-.161.966-.374 1.814-.629 2.479-.252.667-.55 1.138-.813 1.391-.323.318-.569.536-.813.702-.365.242-.773.429-1.645.61-.865.178-2.15.32-4.068.443-.256.017-.494.024-.715.024-.728 0-1.266-.085-1.662-.207-.594-.19-.89-.425-1.186-.766-.29-.341-.544-.83-.838-1.433a5.304 5.304 0 0 1-.281-.776c-.334-1.13-.693-3.129-.692-5.584 0-1.757.18-3.753.669-5.863.778-3.4 3.818-6.206 7.632-6.643.33-.039.66-.06.99-.06 1.148.002 2.274.243 3.366.87.566.327.893.897.928 1.522ZM113.772 46.577a96.154 96.154 0 0 0-.184 5.787c.001 2.777.14 5.574.534 7.978.199 1.203.46 2.308.819 3.281.364.972.816 1.826 1.497 2.496.42.41.895.757 1.422 1.02.794.396 1.667.599 2.687.723 1.023.123 2.215.172 3.731.219.146.004.287.006.424.006.967 0 1.803-.106 2.539-.316 1.104-.309 1.973-.884 2.589-1.557.62-.672 1.004-1.401 1.332-2.056.166-.338.313-.734.46-1.225.435-1.462.842-3.743.843-6.545a28.49 28.49 0 0 0-.678-6.187c-1.009-4.509-4.92-8.015-9.823-8.507a11.182 11.182 0 0 0-1.108-.056c-1.573-.003-3.256.354-4.845 1.293h-.001a4.557 4.557 0 0 0-2.238 3.646Zm3.559-1.407c1.149-.675 2.33-.93 3.525-.933.283 0 .567.015.85.044 3.805.377 6.794 3.108 7.543 6.485.448 2.01.616 3.921.616 5.622 0 1.695-.167 3.182-.386 4.338a14.66 14.66 0 0 1-.348 1.462 5.44 5.44 0 0 1-.298.812c-.399.81-.755 1.388-1.271 1.775a3.062 3.062 0 0 1-1.034.496c-.454.13-1.048.216-1.826.216a12 12 0 0 1-.346-.005c-1.996-.06-3.359-.135-4.264-.323a4.255 4.255 0 0 1-1.069-.346 3.005 3.005 0 0 1-.771-.557c-.268-.254-.597-.783-.873-1.536-.42-1.127-.732-2.722-.921-4.523-.192-1.803-.27-3.818-.27-5.833 0-1.935.072-3.87.179-5.627.04-.629.381-1.224.963-1.566l-.66-1.12.661 1.12ZM81.05 38.208a13.988 13.988 0 0 1 .82 1.4l.038.08.008.015a1.3 1.3 0 0 0 2.361-1.088c-.02-.043-.384-.83-1.063-1.85-.682-1.017-1.669-2.274-3.016-3.242a1.3 1.3 0 1 0-1.511 2.116c.953.676 1.794 1.708 2.364 2.569ZM115.495 33.444c-1.342.973-2.323 2.234-3 3.255-.674 1.022-1.035 1.81-1.055 1.853a1.3 1.3 0 1 0 2.366 1.08h-.001l.001-.001c.02-.044.346-.736.912-1.58.565-.847 1.378-1.84 2.299-2.5a1.3 1.3 0 0 0-1.522-2.108ZM127.153 81.855c.315.168.691.198 1.029.082a1.31 1.31 0 0 0 .765-.694l1.422-3.147c2.19-.407 4.037-.89 5.521-1.45 1.639-.628 2.867-1.315 3.716-2.228a1.3 1.3 0 1 0-1.917-1.756c-.375.424-1.294 1.02-2.719 1.551-1.423.54-3.342 1.042-5.728 1.451a1.305 1.305 0 0 0-.965.746l-1.129 2.5-3.629-1.925a1.29 1.29 0 0 0-.795-.139c-6.04.87-14.152 1.506-24.865 1.546a264.9 264.9 0 0 1-.974.002c-10.18 0-18.068-.62-23.989-1.476a1.287 1.287 0 0 0-.851.17l-3.316 1.977-1.097-2.513a1.304 1.304 0 0 0-.943-.756c-2.624-.508-4.593-1.017-5.933-1.534-.669-.257-1.178-.516-1.528-.753-.352-.237-.534-.443-.62-.588a1.3 1.3 0 0 0-2.229 1.34c.34.563.823 1.017 1.396 1.404.864.579 1.952 1.035 3.333 1.466 1.222.38 2.691.732 4.412 1.08l1.416 3.246c.148.34.44.604.793.717.354.114.745.07 1.064-.12l4.194-2.5c6.012.843 13.864 1.44 23.898 1.44.325 0 .653 0 .983-.002 10.571-.04 18.664-.654 24.804-1.514l4.481 2.377Z"/><path fill="#BEBEC9" d="m104.879 73.912.688-1.462a1.301 1.301 0 0 0-2.353-1.107l-.688 1.462a1.301 1.301 0 0 0 2.353 1.107ZM93.518 74.432a1.3 1.3 0 0 0 .475-1.776l-.71-1.229a1.3 1.3 0 0 0-2.251 1.301l.71 1.23a1.3 1.3 0 0 0 1.776.474ZM61.624 142.458a1.3 1.3 0 0 0-1.404 1.187c-.977 11.754-1.8 26.193-2.42 42.755a1.299 1.299 0 1 0 2.598.097c.62-16.532 1.44-30.937 2.413-42.636a1.3 1.3 0 0 0-1.187-1.403ZM133.705 132.038c2.754-.559 6.422-1.544 9.425-2.392 3-.849 5.321-1.56 5.327-1.561l.188-.074a35.774 35.774 0 0 0 2.911-1.587 1.3 1.3 0 0 0-1.349-2.223c-.828.502-1.703.982-2.619 1.431-.208.063-.704.213-1.412.423-2.837.844-9.053 2.639-12.987 3.435a1.299 1.299 0 1 0 .516 2.548Z"/><path fill="#BEBEC9" d="m161.392 98.197-2.608 1.044-2.725 1.087c.099-.302.219-.59.368-.857.55-.991 1.436-1.764 2.198-2.27a8.837 8.837 0 0 1 1.242-.687l.065-.028.011-.004v-.001c.583-.228.921-.833.806-1.449a1.297 1.297 0 0 0-1.278-1.062c-1.491.002-3.162.234-4.863.57-5.087 1.012-10.435 2.99-10.469 3-.379.14-.671.447-.791.832-.147.478-.496 1.212-1.032 1.995a12.666 12.666 0 0 1-3.612 3.497 11.267 11.267 0 0 1-5.86 1.78c-.093.003-.175.039-.262.06-1.625.003-3.355.017-5.134.047a44.707 44.707 0 0 0 5.443-2.307c3.455-1.762 6.435-3.942 8.826-6.613 2.286-2.55 4.018-5.553 5.121-9.009 5.663-.805 7.59-2.758 7.803-3.013a1.299 1.299 0 0 0 .076-1.612l-3.095-4.31c.605-.233 1.321-.54 2.092-.942 2.001-1.046 4.384-2.724 5.9-5.359.151-.12.283-.267.37-.454a1.3 1.3 0 0 0-.631-1.727c-.177-.08-3.7-1.678-14.971-3.17.414-3.272.638-6.43.638-9.453 0-5.624-.757-10.8-2.439-15.417-2.514-6.927-7.16-12.574-14.227-16.408-6.786-3.69-15.76-5.746-27.276-5.978.069-.5.152-1.007.256-1.514.403-1.973 1.113-3.922 2.229-5.374.351-.459.358-1.09.018-1.556a1.296 1.296 0 0 0-1.486-.46c-.041.016-1.78.635-3.928 1.793-1.933 1.05-4.202 2.517-5.879 4.486l-3.353-.691a1.302 1.302 0 0 0-1.402.648l-1.903 3.468c-5.688.75-10.627 2.01-14.872 3.745-7.402 3.02-12.707 7.51-16.104 13.13-3.401 5.618-4.89 12.305-4.888 19.696 0 3.107.27 6.346.765 9.69-4.795.74-7.82 1.545-9.752 2.256-1.318.486-2.134.93-2.662 1.3-.525.37-.77.677-.888.885a1.298 1.298 0 0 0 .173 1.512c1.943 2.125 4.388 3.601 6.353 4.579.715.353 1.364.638 1.907.86l-3.488 5.307a1.3 1.3 0 0 0-.001 1.426c.099.154.627.878 1.917 1.626 1.182.687 3.004 1.39 5.691 1.75.789 2.771 2.231 5.323 4.204 7.605 3.262 3.772 7.938 6.834 13.569 9.139.424.173.865.334 1.3.499a314.568 314.568 0 0 0-5.837-.077c-.092-.023-.178-.06-.276-.062v-.001c-3.105-.074-5.531-1.323-7.322-2.871a12.668 12.668 0 0 1-2.15-2.406c-.536-.783-.884-1.517-1.032-1.995a1.299 1.299 0 0 0-.79-.831c-.02-.007-2.41-.889-5.503-1.775a62.536 62.536 0 0 0-4.967-1.226c-1.7-.336-3.372-.568-4.863-.57-.628 0-1.163.445-1.278 1.062a1.297 1.297 0 0 0 .808 1.45l.001.001a8.452 8.452 0 0 1 2.2 1.397c.512.452.998 1.007 1.347 1.653.204.379.357.791.456 1.243l-1.106-.44c-1.527-.608-2.865-1.142-3.822-1.525l-1.53-.614a1.3 1.3 0 1 0-.97 2.413v-.001c.001.001 4.095 1.646 8.611 3.432a856.56 856.56 0 0 0 6.637 2.599c2.018.778 3.669 1.399 4.563 1.698.146.048.291.07.446.066l.67-.016c1.308-.029 4.406-.086 8.225-.086 5.947-.001 13.663.141 19.007.737.174.019.343.001.5-.044a80.56 80.56 0 0 0 6.053.81 1.3 1.3 0 0 0 .245-2.588c-9.237-.87-17.467-3.245-23.635-6.749-3.085-1.75-5.652-3.779-7.59-6.022-1.939-2.245-3.25-4.696-3.865-7.34-.1-.428-.41-.736-.788-.89-.036-.02-.08-.027-.118-.044-.056-.017-.107-.043-.166-.052-.076-.023-.143-.062-.224-.07-2.802-.293-4.463-.966-5.395-1.507a5.77 5.77 0 0 1-.449-.29l3.784-5.757a1.301 1.301 0 0 0-.7-1.956l-.009-.002c-.123-.039-1.524-.493-3.282-1.38-1.381-.695-2.969-1.672-4.342-2.881.496-.244 1.203-.54 2.222-.864 2.524-.807 6.872-1.776 14.174-2.564a1.3 1.3 0 0 0-.28-2.585c-1.216.132-2.345.269-3.41.41-.48-3.24-.738-6.36-.738-9.324 0-4.698.63-9.018 1.966-12.886 2.01-5.802 5.576-10.602 11.144-14.27 5.569-3.661 13.185-6.169 23.239-7.157h-.012l.029-.002c.712-.043 1.4-.07 2.054-.07 1.894-.003 3.505.228 4.741.823.622.297 1.16.68 1.642 1.195.48.515.907 1.17 1.267 2.03.25.596.897.918 1.524.756a1.299 1.299 0 0 0 .968-1.399l-.004-.034a26.684 26.684 0 0 1-.102-2.438c0-.404.011-.85.03-1.319 7.408.137 13.674 1.04 18.876 2.62 8.239 2.51 13.835 6.645 17.447 12.116 3.607 5.474 5.245 12.374 5.245 20.467 0 2.9-.216 5.95-.618 9.132a220.019 220.019 0 0 0-3.706-.406 1.3 1.3 0 1 0-.261 2.587c8.062.811 13.219 1.75 16.335 2.476 1.1.256 1.933.483 2.562.671-1.157 1.513-2.758 2.64-4.219 3.398-.907.472-1.746.804-2.349 1.013-.302.105-.545.18-.708.228l-.183.05-.042.011-.007.002c-.418.103-.76.409-.91.812-.149.403-.087.86.164 1.209l3.374 4.7c-.93.52-2.727 1.258-5.876 1.654a1.286 1.286 0 0 0-.891.543c-.267.161-.484.41-.58.733-.99 3.31-2.581 6.106-4.724 8.502-3.213 3.589-7.7 6.284-13.281 8.235-5.578 1.95-12.233 3.145-19.682 3.758a1.3 1.3 0 0 0 .213 2.591c2.262-.187 4.447-.435 6.571-.733.188.072.388.115.601.091 5.343-.596 13.059-.738 19.007-.737a395.246 395.246 0 0 1 8.895.102c.155.004.3-.018.446-.066.894-.299 2.544-.92 4.562-1.698 6.04-2.329 15.245-6.029 15.248-6.031a1.3 1.3 0 1 0-.969-2.412ZM52.642 105.8c-.85-.293-2.396-.874-4.238-1.585a802.774 802.774 0 0 1-6.04-2.362l.002-.043a7.312 7.312 0 0 0-.94-3.608 8.215 8.215 0 0 0-.712-1.06c2.327.476 4.755 1.17 6.611 1.755a87.85 87.85 0 0 1 2.663.885c.266.639.642 1.329 1.133 2.051a15.337 15.337 0 0 0 3.939 3.92c-1.19.019-2.035.038-2.418.047Zm42.63-84.883c-1.413-.42-2.92-.55-4.486-.55-.655 0-1.324.027-2 .065l.564-1.028 3.188.656a1.3 1.3 0 0 0 1.312-.506c1.281-1.771 3.578-3.34 5.552-4.397l.204-.106c-.352.955-.62 1.931-.818 2.892a28.563 28.563 0 0 0-.532 4.512 8.595 8.595 0 0 0-2.983-1.538Zm49.478 83.846a105.84 105.84 0 0 1-2.813 1.037c-.265-.007-.751-.018-1.419-.03.48-.329.937-.672 1.352-1.032a15.273 15.273 0 0 0 2.594-2.905 11.66 11.66 0 0 0 1.133-2.051 87.013 87.013 0 0 1 5.329-1.677 58.818 58.818 0 0 1 3.947-.954 8.132 8.132 0 0 0-.715 1.05 7.329 7.329 0 0 0-.915 3.246c-1.269.502-2.58 1.02-3.852 1.518a571.751 571.751 0 0 1-4.641 1.798ZM62.155 129.638c-2.505-.455-6.352-1.469-9.538-2.365a298.074 298.074 0 0 1-5.62-1.64 34.687 34.687 0 0 1-2.01-1.062 1.3 1.3 0 1 0-1.291 2.257v-.001c.711.408 1.457.804 2.24 1.184l.187.074c.006.002 2.57.786 5.791 1.691 3.226.906 7.088 1.929 9.776 2.42a1.3 1.3 0 0 0 .465-2.558ZM177.714 110.662l-.003.009.004-.01-.001.001ZM16.863 110.661l.004.01-.003-.01Z"/><path fill="#FFE632" d="M118.872 57.385a1.3 1.3 0 0 0 2.451-.868l-.094-.265a1.3 1.3 0 0 0-2.451.869l.094.264ZM121.789 46.84l.002-.002h.002l-.004.001Z"/><path fill="#FFE632" d="M122.382 55.598c.552.4 1.238.697 2.015.698.264 0 .531-.036.789-.106l.006-.002a1.923 1.923 0 0 0 1.052-.767c.311-.451.444-.9.547-1.385.097-.483.14-1.001.141-1.543-.005-1.185-.2-2.477-.707-3.622-.258-.57-.599-1.116-1.105-1.562a2.982 2.982 0 0 0-1.977-.758 3.49 3.49 0 0 0-1.351.287 3.136 3.136 0 0 0-1.592 1.463c-.321.62-.433 1.284-.434 1.931.009 1.368.482 2.733 1.228 3.878.378.57.831 1.084 1.388 1.488ZM70.02 57.796a1.3 1.3 0 1 0 2.451-.868l-.094-.265a1.3 1.3 0 1 0-2.45.869l.093.264ZM72.938 47.25h.002v-.001l-.002.001Z"/><path fill="#FFE632" d="M73.528 56.01c.552.399 1.238.696 2.015.697.264 0 .531-.035.79-.106l.005-.001a1.926 1.926 0 0 0 1.052-.767c.311-.451.445-.901.548-1.385.097-.483.14-1.001.14-1.544-.005-1.184-.2-2.476-.706-3.621-.258-.572-.599-1.117-1.106-1.563a2.981 2.981 0 0 0-1.977-.758 3.5 3.5 0 0 0-1.35.287 3.136 3.136 0 0 0-1.593 1.463c-.32.621-.433 1.284-.434 1.932.01 1.367.482 2.733 1.229 3.878.378.57.83 1.084 1.387 1.487ZM96.871 119.154h.006l.003-.001-.009.001Z"/><path fill="#FFE632" d="M174.332 133.031a17.179 17.179 0 0 0-.933-.846c-1.41-1.214-3.97-3.281-6.192-5.059a825.634 825.634 0 0 0-3.836-3.048l-2.263-5.266 5.308-7.068a1.299 1.299 0 1 0-2.078-1.561l-5.761 7.67c-.28.371-.339.867-.156 1.294l2.691 6.26c.084.195.222.375.39.507l1.545 1.223a690.526 690.526 0 0 1 5.448 4.363c.953.773 1.848 1.508 2.561 2.106.245.207.459.389.655.558l-1.102 1.693c-.449-.259-.99-.578-1.579-.929a542.268 542.268 0 0 1-5.82-3.538 943.08 943.08 0 0 1-3.158-1.951 1.3 1.3 0 0 0-1.961.852l-2.389 12.05-2.204-.426c.055-.552.117-1.206.184-1.94.382-4.198.899-10.655.9-10.657a1.294 1.294 0 0 0-.137-.692l-3.109-6.131a1.299 1.299 0 0 0-.954-.696l-10.55-1.689c-.043-.007-.083.008-.126.005-.026-.001-.05.002-.075.003-.403 0-.765.176-1.007.48l-7.333 7.057a1.3 1.3 0 0 0-.358 1.26l1.686 6.573c.054.213.159.404.309.565a675.986 675.986 0 0 1 6.044 6.549c.821.904 1.592 1.761 2.203 2.457.208.237.39.447.556.642l-1.361 1.527c-.404-.322-.888-.715-1.415-1.148a522.409 522.409 0 0 1-5.202-4.352c-.804-.68-1.508-1.278-2.012-1.706l-.804-.686a1.299 1.299 0 0 0-2.065.542l-4.241 11.575-2.107-.747c.14-.536.302-1.172.482-1.884 1.031-4.094 2.545-10.403 2.546-10.405a1.293 1.293 0 0 0-.028-.706l-2.12-6.51a1.3 1.3 0 0 0-.815-.827l-9.907-3.396c-.094-.032-.187-.027-.282-.037a1.281 1.281 0 0 0-1.043.13l-9.284 5.708a1.3 1.3 0 0 0-.619 1.087l-.11 6.773a1.3 1.3 0 0 0 .153.632c.001.002.361.677.913 1.721a686.478 686.478 0 0 1 3.196 6.113 205.246 205.246 0 0 1 1.479 2.922c.138.281.257.527.366.756l-1.738 1.15c-.303-.41-.665-.907-1.056-1.452a525.12 525.12 0 0 1-3.877-5.501c-.597-.857-1.12-1.611-1.493-2.149l-.596-.863a1.295 1.295 0 0 0-1.063-.562 1.295 1.295 0 0 0-1.069.55l-7.172 10.147-1.826-1.237c.276-.482.6-1.055.961-1.696 2.08-3.7 5.213-9.42 5.215-9.422.115-.212.17-.447.158-.687l-.328-6.821a1.301 1.301 0 0 0-.6-1.033l-9.446-6.032c-.054-.034-.114-.041-.17-.066a1.283 1.283 0 0 0-1.076-.125l-4.52 1.55-5.389 1.839a1.3 1.3 0 0 0-.816.828l-2.12 6.51a1.292 1.292 0 0 0-.028.705c0 .001.673 2.808 1.428 5.891.377 1.542.775 3.153 1.12 4.519.18.712.342 1.347.483 1.883l-2.104.741-4.242-11.574a1.302 1.302 0 0 0-2.067-.54 593.72 593.72 0 0 1-5.416 4.579l-.067.061a315.478 315.478 0 0 1-2.934 2.431c-.374.306-.712.578-1.013.818l-1.364-1.529c1.082-1.261 3.122-3.504 4.96-5.5a740.024 740.024 0 0 1 2.687-2.906l1.153-1.24c.15-.161.254-.35.309-.563l1.69-6.57a1.3 1.3 0 0 0-.356-1.259l-.31-.299-.002-.003-6.92-6.65-.058-.056a1.278 1.278 0 0 0-1.086-.533l-.032-.002c-.047.003-.091-.013-.139-.005l-5.45.87-5.101.82a1.296 1.296 0 0 0-.953.696l-3.11 6.129a1.298 1.298 0 0 0-.137.693c0 .001.23 2.872.497 6.029.133 1.579.275 3.228.403 4.629.067.733.129 1.389.184 1.94l-2.205.429-.098-.495-2.29-11.559a1.303 1.303 0 0 0-.758-.94 1.304 1.304 0 0 0-1.204.089 772.942 772.942 0 0 1-6.94 4.265c-.983.596-1.931 1.165-2.732 1.637-.323.19-.615.36-.882.514l-1.093-1.686c.632-.548 1.554-1.316 2.577-2.152a460.264 460.264 0 0 1 4.467-3.597l.005-.004.1-.08c.86-.692 1.623-1.298 2.17-1.73l.876-.69c.173-.135.307-.309.394-.511l1.39-3.239 1.299-3.02a1.303 1.303 0 0 0-.155-1.294l-5.042-6.712c-.005-.41-.18-.812-.545-1.06l-.415-.282-.245-.232a1.298 1.298 0 0 0-.88-.353c-.004-.134-.004-.258-.013-.401l-.01.405a1.29 1.29 0 0 0-.855.327 1.3 1.3 0 0 0-.173 1.749l5.647 7.518-1.002 2.328-1.26 2.936c-.469.369-1.528 1.204-2.81 2.235l-.1.08.005-.004a461.349 461.349 0 0 0-4.494 3.618c-1.44 1.178-2.658 2.195-3.298 2.794v-.001l-.2.181a1.299 1.299 0 0 0-.22 1.673l2.36 3.639a1.3 1.3 0 0 0 1.721.43l.09-.05c.603-.319 1.585-.892 2.77-1.598a610.66 610.66 0 0 0 7.27-4.436l1.925 9.719.35 1.761c.07.355.28.66.588.851.289.179.629.227.959.156l.002.008.65-.119.014-.003 3.96-.77a1.299 1.299 0 0 0 1.041-1.441 110.09 110.09 0 0 1-.306-3.059c-.19-2.086-.414-4.746-.591-6.881-.128-1.541-.23-2.796-.277-3.384l2.645-5.213 4.446-.715 4.766-.761 6.47 6.218-1.42 5.514c-.532.571-1.991 2.14-3.627 3.917-2.055 2.234-4.342 4.747-5.375 5.987-.177.21-.323.383-.462.59a1.299 1.299 0 0 0 .112 1.587l2.91 3.26a1.3 1.3 0 0 0 1.73.189c.448-.325 1.166-.897 2.06-1.626.89-.727 1.941-1.6 2.994-2.483l.062-.056a576.984 576.984 0 0 0 3.985-3.359l3.992 10.891.033.099a1.304 1.304 0 0 0 1.665.816l4.46-1.571a1.302 1.302 0 0 0 .815-1.594c-.15-.505-.441-1.623-.782-2.975a833.486 833.486 0 0 1-1.656-6.718 1307.95 1307.95 0 0 1-.8-3.305l1.806-5.543 4.775-1.63 3.952-1.355 8.454 5.397.278 5.783-.712 1.297c-.811 1.476-2.056 3.735-3.21 5.807-1.15 2.067-2.222 3.97-2.643 4.658a1.3 1.3 0 0 0 .38 1.754l3.888 2.635a1.297 1.297 0 0 0 1.791-.325l6.836-9.671c.617.89 1.442 2.075 2.313 3.318.887 1.267 1.82 2.588 2.622 3.705.806 1.122 1.466 2.021 1.868 2.513a1.3 1.3 0 0 0 1.723.261l3.67-2.428a1.3 1.3 0 0 0 .499-1.544c-.113-.294-.28-.659-.508-1.139-.793-1.659-2.287-4.546-3.592-7.039a786.34 786.34 0 0 0-2.255-4.275l.092-5.726 8.202-5.043 8.888 3.046 1.806 5.544-.345 1.428c-.393 1.627-.998 4.121-1.565 6.41-.564 2.284-1.098 4.391-1.323 5.159a1.298 1.298 0 0 0 .814 1.589l4.456 1.58a1.297 1.297 0 0 0 1.654-.779l4.042-11.03c.833.707 1.946 1.65 3.119 2.636a391.675 391.675 0 0 0 3.515 2.929c1.075.883 1.951 1.588 2.468 1.962.541.39 1.287.309 1.731-.189l2.906-3.259a1.304 1.304 0 0 0 .083-1.626 16.838 16.838 0 0 0-.791-.973c-1.204-1.406-3.412-3.825-5.332-5.908a822.65 822.65 0 0 0-3.316-3.576l-1.415-5.518 6.46-6.216 9.218 1.475 2.644 5.214-.119 1.462c-.136 1.666-.347 4.219-.551 6.566-.203 2.34-.402 4.501-.505 5.296a1.3 1.3 0 0 0 1.043 1.441l4.65.899a1.303 1.303 0 0 0 1.523-1.023l2.275-11.48c.933.577 2.18 1.345 3.492 2.147a464.53 464.53 0 0 0 3.93 2.378c1.2.715 2.174 1.283 2.74 1.577a1.301 1.301 0 0 0 1.686-.446l2.37-3.639a1.297 1.297 0 0 0-.163-1.622Z"/><path fill="#FFE632" d="m72.313 115.812.002.001.004.001-.007-.002Z"/><path fill="#FFE632" d="m33.617 110.412.097.097L39 115.996a1.299 1.299 0 0 0 2.181-1.275 5.356 5.356 0 0 1-.235-1.528v-.032l-.002-.115c.002-1.19.409-2.105.997-2.735.592-.63 1.364-.97 2.178-.971.465.001.949.11 1.446.367.67.353 1.099.775 1.382 1.227.267.44.392.911.393 1.407 0 .347-.064.707-.195 1.066-.268.728-.814 1.444-1.668 1.99l-.03.02-.003.001c-.281.18-.598.339-.942.467a1.3 1.3 0 0 0-.765 1.672c.056.151.145.279.245.394a1.29 1.29 0 0 0 1.253.795l11.097-.568 9.641 7.273a1.3 1.3 0 0 0 1.962-1.586 6.612 6.612 0 0 1-.276-.682l-.002-.008a5.177 5.177 0 0 1-.292-1.668c.002-1.059.372-1.905.927-2.495a2.885 2.885 0 0 1 2.118-.923c.336 0 .69.056 1.063.184l.007.002c.506.172.89.398 1.196.662l.011.01c.68.579.994 1.317 1 2.143 0 .098-.005.197-.015.296-.073.724-.388 1.479-.993 2.137l-.047.054-.008.01a5.026 5.026 0 0 1-1.22.94 1.3 1.3 0 0 0-.505 1.768c.076.137.18.246.292.342a1.29 1.29 0 0 0 1.37.611l10.743-2.249c.031.019.052.049.086.066l10.267 5.086a1.29 1.29 0 0 0 1.474-.242c.135-.066.266-.147.377-.262a1.3 1.3 0 0 0-.038-1.838c-.991-.953-1.401-2.046-1.403-3.02.002-.792.27-1.498.755-2.032.49-.53 1.201-.923 2.264-1.012l.008-.001c.09-.007.183-.011.275-.011.9.004 1.602.335 2.122.872.515.539.837 1.3.839 2.202-.002.946-.357 2.06-1.324 3.208a1.298 1.298 0 0 0-.039 1.63 1.298 1.298 0 0 0 1.583.387l10.86-5.084 10.985 2.3a1.289 1.289 0 0 0 1.368-.608c.114-.097.219-.208.296-.347a1.3 1.3 0 0 0-.504-1.768c-1.587-.887-2.284-2.252-2.285-3.437a2.762 2.762 0 0 1 .52-1.637c.35-.479.881-.9 1.694-1.183a3.22 3.22 0 0 1 1.061-.185 2.88 2.88 0 0 1 2.118.925c.555.592.925 1.44.927 2.5 0 .696-.163 1.488-.568 2.352a1.301 1.301 0 0 0 1.959 1.591l9.64-7.273 11.1.568a1.287 1.287 0 0 0 1.257-.811c.094-.111.18-.23.234-.373a1.3 1.3 0 0 0-.758-1.675c-1.936-.735-2.845-2.244-2.843-3.541a2.69 2.69 0 0 1 .408-1.433c.278-.444.707-.862 1.366-1.206a3.119 3.119 0 0 1 1.448-.369c.816.001 1.59.343 2.185.976.591.634.999 1.553 1.002 2.745 0 .508-.076 1.066-.252 1.671-.167.573.08 1.189.596 1.488.516.3 1.173.207 1.588-.222l5.13-5.32a1.3 1.3 0 0 0-1.872-1.805l-2.72 2.821c-.237-1.237-.792-2.323-1.574-3.155-1.054-1.129-2.523-1.8-4.083-1.799-.886 0-1.794.218-2.647.662-1.029.534-1.836 1.274-2.373 2.138a5.279 5.279 0 0 0-.801 2.808c.001 1.291.461 2.553 1.286 3.622l-7.951-.407a1.28 1.28 0 0 0-.981.392c-.104.042-.21.075-.304.145l-6.882 5.192c-.049-1.594-.645-3.026-1.624-4.063a5.486 5.486 0 0 0-4.011-1.744c-.628 0-1.274.107-1.909.328-1.26.431-2.274 1.177-2.951 2.115a5.366 5.366 0 0 0-1.015 3.162c0 .991.274 1.977.771 2.885l-7.723-1.617-.018-.003-.042-.009h-.015a1.28 1.28 0 0 0-.921.056l-7.928 3.711c.089-.439.136-.875.136-1.304.001-1.535-.566-2.961-1.561-4-.99-1.041-2.419-1.679-4-1.674-.16 0-.325.006-.492.021-1.639.126-3.034.812-3.976 1.851-.947 1.038-1.436 2.394-1.434 3.784 0 .488.066.98.185 1.467l-7.108-3.521c-.025-.012-.052-.01-.078-.02-.3-.3-.724-.465-1.17-.371l-7.786 1.63c.405-.742.67-1.531.75-2.332v-.002a5.72 5.72 0 0 0 .027-.55 5.357 5.357 0 0 0-1.912-4.12v-.001l-.003-.002-.008-.008-.001.001a6.132 6.132 0 0 0-2.048-1.147 5.88 5.88 0 0 0-1.905-.324 5.489 5.489 0 0 0-4.01 1.74c-.98 1.036-1.577 2.467-1.626 4.061l-6.885-5.194c-.092-.07-.197-.102-.299-.143a1.282 1.282 0 0 0-.981-.392l-7.964.408c.401-.519.725-1.077.941-1.668a5.71 5.71 0 0 0 .354-1.96 5.291 5.291 0 0 0-.774-2.764l-.006-.009c-.536-.866-1.346-1.62-2.392-2.166l-.004-.002a5.736 5.736 0 0 0-2.645-.66 5.583 5.583 0 0 0-4.076 1.793c-.783.834-1.34 1.924-1.574 3.165l-2.897-3.006-.017-.018-.1-.1a1.3 1.3 0 1 0-1.839 1.839v-.001Zm31.577 13.593.001.003.001.004-.002-.007Z"/><path fill="#BEBEC9" d="M178.578 106.416c0-.239-.012-.481-.042-.725a3.286 3.286 0 0 0-.211-.78c-.332-.827-.905-1.689-1.567-2.517-.332-.41-.684-.801-1.046-1.148-.364-.347-.727-.65-1.141-.89a4.973 4.973 0 0 0-.806-.345c-1.052-.367-2.851-.834-4.855-1.23-2.001-.392-4.16-.707-5.924-.71-.661.002-1.269.043-1.838.17-.284.063-.562.15-.837.283-.274.134-.555.32-.795.605a1.291 1.291 0 0 0 1.914 1.734l.004.006c.001-.005.171-.081.45-.124.278-.047.66-.074 1.102-.073 1.664-.004 4.126.374 6.225.825a43.26 43.26 0 0 1 2.768.679c.373.106.691.206.926.289.117.041.214.078.281.106l.076.033.016.008c.149.083.446.316.75.623.464.463.973 1.096 1.349 1.668.188.285.344.557.445.77.051.106.088.197.11.261l.021.07.003.011c.014.116.022.252.022.401.003.658-.167 1.532-.349 2.205-.089.338-.18.629-.247.833l-.08.234-.021.057-.005.013-.004.011c-.083.241-.338.625-.713 1.006-.559.577-1.348 1.151-1.984 1.556-.051.033-.094.058-.142.088a2.531 2.531 0 0 1-.137-.858c0-.345.051-.769.203-1.291.467-1.606.667-2.645.673-2.676a1.3 1.3 0 0 0-2.554-.489l-.007.034c-.027.135-.137.661-.345 1.453-.024.056-.064.102-.081.163v-.001c-.115.436-.398.968-.787 1.491-.58.788-1.379 1.55-2.024 2.094-.095.08-.176.144-.263.214-.007-.013-.013-.02-.02-.034-.227-.46-.484-1.307-.484-2.773 0-.627.047-1.364.162-2.224.084-.627.143-.959.172-1.09.071-.161.114-.337.114-.524a1.3 1.3 0 0 0-1.951-1.126c-.318.193-.413.372-.485.48-.111.197-.131.29-.164.396-.081.293-.146.658-.263 1.519a21.8 21.8 0 0 0-.127 1.229c-.029.048-.071.083-.094.135-.001 0-.097.223-.253.573a60.986 60.986 0 0 1-.942 2.018c-.081.164-.161.322-.237.469l-.027-.039c-.356-.54-.75-1.327-1.065-2.067-.316-.737-.565-1.456-.656-1.812-.202-.773-.246-1.339-.246-1.694 0-.184.012-.311.021-.379l.009-.06-.005-.001a1.297 1.297 0 0 0-2.522-.607c-.025.096-.103.453-.103 1.047 0 .573.073 1.365.33 2.35.113.432.297.971.536 1.58.36.912.834 1.948 1.374 2.828.274.441.558.844.909 1.198.178.176.375.343.627.488.251.141.576.268.974.269.227.001.472-.047.689-.14.219-.093.408-.227.56-.372.223-.221.316-.378.442-.57.066-.107.134-.23.201-.349.143.356.304.669.478.933.59.903 1.29 1.231 1.5 1.299.39.136.819.079 1.16-.153.036-.025 1.015-.691 2.116-1.73.065-.061.132-.136.198-.2.121.313.257.598.405.822.39.599.79.891.892.962.393.269.905.302 1.33.084.035-.019.999-.513 2.097-1.299a12.53 12.53 0 0 0 1.66-1.402c.523-.544 1.004-1.155 1.291-1.925.018-.048.22-.592.428-1.372.21-.8.433-1.826.436-2.874Zm-11.722.143.013.007-.013-.007ZM34.955 103.999a1.295 1.295 0 0 0-.947 1.546l-.006.001c.002.012.03.161.03.443 0 .355-.044.922-.244 1.694-.07.267-.23.751-.44 1.284-.316.802-.754 1.745-1.169 2.416-.049.08-.094.14-.142.211a40.648 40.648 0 0 1-.8-1.65 77.845 77.845 0 0 1-.45-.993l-.18-.41c-.026-.061-.074-.101-.107-.155-.028-.395-.06-.79-.115-1.211v-.005a17.088 17.088 0 0 0-.215-1.327c-.032-.135-.053-.232-.118-.393-.037-.082-.075-.185-.214-.358a1.32 1.32 0 0 0-1.012-.479 1.3 1.3 0 0 0-1.3 1.3c0 .186.041.36.111.52.027.127.089.465.17 1.083.067.506.113.961.13 1.354l.002.025c.018.296.027.569.027.821 0 .251-.009.482-.026.694l-.001.033c-.068 1.077-.282 1.725-.474 2.107a16.751 16.751 0 0 1-1.03-.906 11.247 11.247 0 0 1-1.29-1.45c-.372-.507-.642-1.02-.754-1.442-.016-.057-.054-.099-.077-.152a33.05 33.05 0 0 1-.322-1.339l-.025-.122-.007-.034a1.3 1.3 0 0 0-2.553.489c.006.031.205 1.07.671 2.675.152.523.204.948.204 1.292-.002.371-.06.644-.137.86a15.463 15.463 0 0 1-.902-.608 9.523 9.523 0 0 1-1.258-1.074c-.357-.368-.598-.736-.68-.97l-.003-.01-.005-.014c-.033-.09-.214-.599-.382-1.254-.17-.652-.318-1.46-.315-2.077 0-.148.008-.283.023-.399.004-.047.113-.341.304-.668.284-.501.734-1.126 1.195-1.652.452-.526.956-.964 1.18-1.084a4.39 4.39 0 0 1 .45-.174c.883-.302 2.636-.759 4.507-1.122 1.871-.367 3.902-.646 5.333-.643.538-.002.99.041 1.27.105.139.031.233.067.268.084l.015.008.004-.007a1.29 1.29 0 0 0 1.914-1.734 2.395 2.395 0 0 0-.795-.604c-.414-.199-.83-.297-1.272-.363a9.847 9.847 0 0 0-1.404-.09c-2.014.004-4.552.413-6.768.883a46.164 46.164 0 0 0-2.94.722c-.409.117-.767.228-1.072.335-.31.111-.542.198-.806.346-.47.274-.881.63-1.295 1.04a13.7 13.7 0 0 0-1.681 2.076c-.24.363-.45.723-.62 1.079-.169.362-.308.702-.367 1.138-.03.243-.043.485-.043.724.003 1.048.226 2.075.436 2.875.208.78.41 1.324.428 1.372.287.771.768 1.382 1.291 1.926.79.809 1.71 1.461 2.446 1.934.736.471 1.286.754 1.311.767.424.218.937.185 1.33-.084.102-.071.502-.364.892-.962.148-.225.284-.509.405-.822.345.336.685.645.99.904a17.785 17.785 0 0 0 1.326 1.024c.341.232.773.288 1.163.152.196-.065.813-.352 1.37-1.122.218-.3.415-.689.591-1.13.071.126.143.259.213.372.126.192.22.349.441.569.151.145.34.279.56.372.218.094.462.142.69.141.534-.006.922-.216 1.209-.421.5-.372.83-.817 1.163-1.317.486-.748.915-1.628 1.272-2.461.356-.837.628-1.601.776-2.164.257-.985.33-1.778.33-2.35 0-.593-.078-.949-.102-1.044a1.299 1.299 0 0 0-1.576-.946Zm-1.827-3.142.006-.007-.006.007Zm-4.949 6.159-.01.017.01-.017Zm-.452-.45-.013.008.013-.008Zm6.28-1.017-.004.001.005-.001Z"/></svg>