<svg width="200" height="200" viewBox="0 0 200 200" xmlns="http://www.w3.org/2000/svg"><g id="type=offer-payment, mode=light"><g id="Layer 2"><path id="Vector" d="M40.0417 57.9799L41.1836 66.9044L41.1977 67.0151L37.4535 67.7531L38.596 76.6823L38.6096 76.7883C38.1814 76.8442 39.8508 76.8703 39.8508 76.8703L40.993 85.7978L41.0068 85.9054C40.9299 85.9154 40.8523 85.9228 40.7751 85.9323C42.2658 85.9159 43.1572 85.8756 43.1572 85.8756L44.2992 94.8004C44.5592 94.776 44.8219 94.7469 45.0834 94.72C47.0584 94.7128 48.282 94.6579 48.282 94.6579L49.4229 103.574C50.584 103.468 51.759 103.338 52.948 103.185C53.187 103.154 53.4222 103.119 53.6597 103.087C54.8456 103.068 55.5403 103.037 55.5403 103.037L56.6792 111.938C57.9708 111.825 59.2797 111.687 60.606 111.515C61.7351 111.369 68.4678 110.558 69.5623 110.375L67.5736 113.026L50.9507 116.393L52.0916 125.309L52.1068 125.428C49.6475 125.748 58.366 126.05 58.366 126.05L59.5049 134.951C60.649 134.852 61.8072 134.729 62.9795 134.583C71.7207 151.39 89.22 162.782 112.459 162.782C146.432 162.782 168.149 138.444 168.149 108.421C168.152 103.956 167.7 99.5037 166.798 95.1315C169.904 90.5476 172.078 85.3984 173.199 79.9763C178.327 55.4789 164.115 29.6283 130.186 22.5263C106.923 17.6566 88.6184 24.5807 77.7543 37.31L77.0962 32.1798C76.6868 35.2447 73.5738 37.8048 73.5738 37.8048L49.1795 23.9288C49.1795 23.9288 52.2917 22.7741 43.0455 23.9747C37.0685 24.7099 31.1924 26.1104 25.5264 28.1503C26.6644 27.8769 27.8169 27.6671 28.9783 27.5217L59.1189 44.1684L42.4961 47.5351L43.6369 56.4511L43.684 56.4459L43.652 56.5702C42.508 56.7194 41.3488 56.8059 40.1928 56.8467L40.0417 57.9799ZM20.0507 65.0385L18.9812 56.6794C13.7863 55.7449 10.0407 53.8094 9.60263 50.241C9.43637 48.8871 9.16428 48.564 9.36471 50.1261L9.81625 53.6451L10.5401 59.288C10.5401 59.288 12.3518 65.5768 20.0507 65.0385ZM87.784 102.329L87.6373 102.406L83.8652 104.369L82.7939 96.0187L86.6425 93.4315L87.7793 102.293L87.784 102.329ZM89.7786 84.3899C90.432 85.3361 90.7038 86.4941 90.5399 87.6322C90.1304 90.6972 87.0175 93.2573 87.0175 93.2573L82.9963 90.9699C83.7145 89.966 84.0476 88.7372 83.9348 87.5081L83.0368 80.5087C86.0294 81.3062 88.5295 82.5284 89.7786 84.3899L89.7786 84.3899ZM82.1208 76.0602C82.7741 77.0064 83.0459 78.1644 82.882 79.3025C82.4726 82.3673 79.3596 84.9276 79.3596 84.9276L76.6931 83.4108C77.3223 82.8169 77.8145 82.0929 78.1352 81.2892C78.456 80.4856 78.5977 79.6217 78.5504 78.7577L77.8077 72.9689C79.5201 73.5489 81.0214 74.6249 82.1208 76.0602L82.1208 76.0602ZM74.7419 85.2494L74.5949 85.3258L70.8229 87.2891L69.7517 78.9388L73.6003 76.3515L74.737 85.2126L74.7419 85.2494ZM67.3754 78.3009L66.3041 69.9506L70.1528 67.3634L71.2895 76.2243L71.2942 76.2613L71.1475 76.3376L67.3754 78.3009ZM73.1987 37.9792L74.3354 46.84L74.3403 46.877L74.1936 46.9533L70.4213 48.9167L69.3501 40.5663L73.1987 37.9792ZM70.6057 49.2404L71.6415 57.3144L71.6462 57.3513L71.4997 57.4274L67.7273 59.3909L66.6644 51.1056C68.0086 50.5504 69.3241 49.9279 70.6057 49.2404ZM67.8639 59.7397L68.8103 67.1174L68.8151 67.1542L68.6681 67.2308L64.8961 69.194L63.922 61.6003C65.2663 61.0464 66.5819 60.4254 67.8639 59.7397ZM76.2074 96.0395L75.1361 87.6892L78.9846 85.1019L80.1214 93.9629L80.1262 93.9998L79.9792 94.0763L76.2074 96.0395ZM85.9885 103.556C87.2082 103.873 88.3921 104.315 89.5216 104.874C89.9947 105.112 90.4497 105.384 90.883 105.688C91.5553 106.151 92.1384 106.733 92.6045 107.403C93.2578 108.35 93.5296 109.508 93.3656 110.646C92.956 113.711 89.8432 116.271 89.8432 116.271L85.0497 113.544C85.5924 112.974 86.0107 112.297 86.2781 111.557C86.5456 110.816 86.6564 110.029 86.6034 109.243L85.8821 103.621C85.9167 103.599 85.9541 103.578 85.9885 103.556L85.9885 103.556ZM82.7949 115.735L82.6479 115.811L78.876 117.774L77.8048 109.424L81.6533 106.837L82.7901 115.698L82.7949 115.735ZM98.3435 125.013C100.159 126.616 99.4262 130.412 96.707 133.492C93.9878 136.572 90.3117 137.77 88.4963 136.167C87.9378 135.646 87.5945 134.935 87.5339 134.173C86.9424 134.932 86.2568 135.613 85.4936 136.2C82.8503 138.123 80.1376 137.824 78.5017 136.25C77.7409 136.692 76.9376 137.058 76.1039 137.34C72.7566 138.439 70.7663 136.157 70.6052 133.305C72.8579 132.827 75.0093 132.277 77.0321 131.668C79.4242 130.957 81.769 130.095 84.0527 129.089C86.5993 127.953 86.6909 127.382 86.6909 127.382L85.6196 119.032L89.4682 116.445L90.3133 123.033C90.4219 122.543 90.579 122.065 90.7824 121.606C91.1392 120.889 91.6472 120.257 92.2715 119.755C92.8958 119.253 93.6215 118.892 94.3986 118.698C94.3986 118.698 96.082 117.306 96.6723 118.516C97.1535 118.566 97.6186 118.718 98.0369 118.961C98.4553 119.205 98.8175 119.533 99.0998 119.926C100.306 121.686 99.54 123.546 98.2552 124.948C98.2838 124.971 98.3159 124.989 98.3435 125.013H98.3435Z"/><path id="Vector_2" d="M37.3802 125.334C39.6413 125.566 30.9597 123.451 30.9597 123.451L29.8805 115.017C24.8154 114.066 21.1821 112.135 20.7511 108.624C20.5848 107.27 20.3127 106.947 20.5131 108.51L21.6886 117.671C22.0193 120.249 24.7334 122.314 29.0444 123.701L29.5034 127.28C30.1196 132.082 38.375 133.109 38.375 133.109L37.3802 125.334Z"/><path id="Vector_3" d="M24.738 101.371C25.258 101.582 25.8035 101.782 26.3831 101.968L26.6779 104.266C27.294 109.069 35.5495 110.095 35.5495 110.095L34.7185 103.6C32.4164 102.896 28.2912 101.716 28.2912 101.716L27.3822 94.6121C25.1247 93.6875 23.1663 92.934 23.1663 92.934L22.196 85.3508C20.6039 84.3958 19.8598 83.9285 19.8598 83.9285L18.8558 76.0813C17.7706 75.125 17.4626 74.8115 17.4626 74.8115L16.4028 66.5283C11.0759 65.6118 7.21682 63.6703 6.77147 60.0439C6.60521 58.6899 6.33324 58.3667 6.53368 59.9289L7.70897 69.0908C7.90126 70.2694 8.50315 71.3423 9.40868 72.1208L10.1882 78.1978C10.3488 79.0105 10.6813 79.7795 11.1635 80.4531C11.6457 81.1268 12.2663 81.6895 12.9839 82.1036L13.6357 87.186C13.8984 89.2338 15.6728 90.9563 18.5503 92.2743L19.0201 95.9362C19.3065 98.1687 21.3867 100.015 24.738 101.371Z"/><path id="Vector_4" d="M12.6023 43.8857L13.2343 48.8139C13.8735 53.796 22.5055 54.5938 22.5055 54.5938L21.4262 46.1597C16.3612 45.2083 12.728 43.278 12.2969 39.7669C12.1306 38.413 11.8586 38.0899 12.0591 39.6522L12.6023 43.8857Z"/></g><g id="Layer 45"><path id="Vector_5" d="M137.661 86.5654C142.696 87.6533 147.438 73.1269 140.534 71.6816C133.707 70.2529 132.091 85.3603 137.661 86.5654Z"/><path id="Vector_6" d="M97.5942 78.167C102.298 79.4531 106.451 64.2783 99.8637 63.1806C93.351 62.0947 91.7749 76.5761 97.5942 78.167Z"/><path id="Vector_7" d="M108.405 84.0972C109.322 86.0307 110.808 87.6379 112.664 88.7039C114.28 89.5977 116.099 90.0595 117.946 90.0447C119.406 90.0463 120.853 89.7771 122.214 89.2508C123.427 88.8083 124.516 88.0794 125.387 87.126C125.611 86.8642 125.722 86.524 125.696 86.1803C125.669 85.8366 125.507 85.5174 125.246 85.2931C124.984 85.0689 124.644 84.9577 124.3 84.9843C123.956 85.0108 123.637 85.1728 123.413 85.4346C122.817 86.0622 122.081 86.5403 121.265 86.8301C120.206 87.2376 119.081 87.4459 117.946 87.4448C116.546 87.4593 115.167 87.1128 113.94 86.4387C112.539 85.6296 111.42 84.4096 110.735 82.9438C110.659 82.7904 110.554 82.6535 110.426 82.5408C110.297 82.4281 110.148 82.3419 109.986 82.287C109.824 82.2322 109.653 82.2098 109.482 82.2211C109.312 82.2325 109.145 82.2774 108.992 82.3532C108.839 82.4291 108.702 82.5344 108.589 82.6631C108.477 82.7919 108.391 82.9415 108.336 83.1035C108.282 83.2655 108.26 83.4367 108.272 83.6072C108.283 83.7778 108.329 83.9443 108.405 84.0973L108.405 84.0972Z"/><path id="Vector_8" d="M190.211 109.464L190.207 109.464C189.409 109.58 188.604 109.64 187.797 109.643L187.684 107.97C188.623 107.934 189.559 107.841 190.486 107.69C190.825 107.627 191.125 107.433 191.321 107.149C191.516 106.866 191.591 106.516 191.529 106.177C191.467 105.839 191.273 105.538 190.99 105.342C190.707 105.146 190.357 105.071 190.018 105.132L190.01 105.134C189.182 105.265 188.346 105.345 187.508 105.375L187.396 103.724C189.07 103.591 190.281 103.361 190.314 103.355C190.652 103.29 190.95 103.093 191.143 102.808C191.337 102.523 191.409 102.173 191.344 101.834C191.279 101.496 191.083 101.197 190.798 101.004C190.514 100.81 190.164 100.737 189.825 100.801L189.765 100.812C188.622 101.008 187.467 101.134 186.308 101.19C186.293 101.19 186.281 101.199 186.266 101.2C184.993 101.198 183.728 101.005 182.512 100.627C180.572 99.9738 178.728 99.0636 177.03 97.9205C176.332 97.4798 175.612 96.9982 174.877 96.505C178.151 95.8312 181.304 94.6672 184.23 93.0522C186.553 91.7983 188.606 90.0979 190.27 88.0488C191.364 86.7283 192.134 85.1707 192.519 83.5C192.904 81.8294 192.894 80.0919 192.489 78.4258C192.162 76.7384 191.283 75.2077 189.99 74.0748C188.77 73.1082 187.25 72.6011 185.694 72.6422C183.689 72.7137 181.725 73.2308 179.945 74.1557C178.178 75.0339 176.513 76.104 174.981 77.3466C175.334 74.988 175.514 72.6066 175.518 70.2216C175.522 65.2311 174.721 60.2725 173.148 55.5366C173.143 55.4497 173.135 55.4042 173.131 55.3687C173.113 55.2751 173.091 55.1826 173.063 55.0915C172.866 54.4561 172.637 53.8311 172.377 53.2188C172.121 52.6024 171.789 51.8596 171.375 51.0207C169.536 46.9797 167.128 43.2225 164.225 39.8629C161.85 37.1205 159.185 34.6421 156.278 32.4707C156.455 31.5977 156.77 30.7584 157.211 29.9844C157.52 29.4349 157.937 28.9536 158.437 28.5694C159.193 29.3239 160.194 29.782 161.259 29.8603C162.324 29.9385 163.381 29.6318 164.239 28.9959C165.097 28.36 165.698 27.4373 165.933 26.3956C166.167 25.3539 166.02 24.2626 165.518 23.3203C165.016 22.3781 164.192 21.6475 163.196 21.2616C162.2 20.8757 161.099 20.8601 160.093 21.2178C159.087 21.5754 158.243 22.2824 157.714 23.2101C157.186 24.1378 157.008 25.2245 157.213 26.2724C157.105 26.3415 156.989 26.4023 156.888 26.477C155.724 27.3955 154.834 28.6162 154.315 30.006C154.192 30.3134 154.093 30.599 154.013 30.8574C146.856 26.16 138.854 22.8984 130.453 21.2538C125.592 20.2147 120.637 19.6807 115.666 19.6603C112.769 19.6587 109.876 19.8669 107.01 20.2833C106.785 19.2957 106.421 18.3452 105.929 17.4605C105.236 16.2415 104.296 15.1807 103.169 14.3461C103.311 13.2847 103.068 12.2075 102.484 11.3099C101.9 10.4123 101.014 9.75367 99.986 9.45328C98.9582 9.15289 97.8567 9.23068 96.8813 9.67255C95.9058 10.1144 95.121 10.8911 94.6689 11.8619C94.2169 12.8326 94.1276 13.9332 94.4172 14.9642C94.7069 15.9951 95.3562 16.8882 96.2477 17.4815C97.1391 18.0748 98.2137 18.3292 99.2765 18.1984C100.339 18.0677 101.32 17.5605 102.041 16.7687C102.69 17.3279 103.238 17.9933 103.663 18.7364C104.01 19.3583 104.271 20.0242 104.439 20.7159C98.2787 21.8715 92.3915 24.1793 87.0868 27.5183C87.0224 27.558 86.9533 27.5976 86.8895 27.6374C83.8922 29.4789 81.1302 31.6783 78.6644 34.1872L78.2635 31.0639L78.2631 31.0581H78.2628L78.2631 31.058L78.2619 31.0511L78.2397 30.8784C78.2368 30.855 78.2221 30.8371 78.218 30.8142C77.8974 29.259 77.0328 27.8691 75.7796 26.8939C73.2299 25.0109 70.2805 23.7408 67.1605 23.1823C62.9439 22.2965 58.6432 21.8736 54.3348 21.921C50.5036 21.9302 46.677 22.1854 42.8786 22.6853C35.1156 23.5698 27.54 25.6695 20.4293 28.9075C17.8908 30.0741 15.5539 31.637 13.5063 33.5376C12.7018 34.3109 12.0216 35.2038 11.4898 36.1848C11.0012 37.0868 10.7387 38.0937 10.7248 39.1194C10.7248 39.3526 10.7397 39.5855 10.7694 39.8168L10.7714 39.8275L11.2548 43.5981C11.1052 43.7354 10.9533 43.8722 10.8126 44.0113C10.0081 44.7846 9.3279 45.6776 8.7962 46.6586C8.30762 47.5606 8.04511 48.5676 8.0312 49.5933C8.03119 49.827 8.04615 50.0604 8.076 50.2922L8.07612 50.2929V50.294L8.46943 53.3587C8.30329 53.51 8.13667 53.6611 7.98151 53.8145C7.17706 54.5878 6.49693 55.4807 5.9652 56.4617C5.47662 57.3636 5.21411 58.3706 5.2002 59.3962C5.20019 59.6298 5.21515 59.8632 5.245 60.0949L5.24512 60.096V60.0971L6.4159 69.22C6.61196 70.5374 7.22787 71.7564 8.17208 72.6957L8.8942 78.3273C9.16189 79.9808 10.05 81.4699 11.3775 82.4913C11.4983 82.5923 11.6333 82.6859 11.7609 82.7834L12.3426 87.3157C12.61 88.9691 13.4979 90.4582 14.8252 91.4795C15.602 92.1144 16.4477 92.6597 17.3466 93.1052L17.7262 96.0656C17.9939 97.719 18.882 99.2082 20.2095 100.23C20.9507 100.835 21.7554 101.358 22.6093 101.789C22.384 101.989 22.1679 102.191 21.9612 102.395C21.1567 103.168 20.4765 104.061 19.9449 105.043C19.4562 105.944 19.1936 106.952 19.1797 107.977C19.1797 108.211 19.1946 108.444 19.2243 108.675L19.2245 108.677V108.677L20.3953 117.801C20.6629 119.454 21.551 120.944 22.8785 121.965C23.2577 122.275 23.6555 122.562 24.0698 122.824C24.0639 122.833 24.0566 122.84 24.0509 122.848C23.5136 123.61 23.2231 124.519 23.2186 125.451C23.2264 126.189 23.3947 126.916 23.712 127.581C24.1665 128.518 24.799 129.357 25.5742 130.051C26.1136 130.549 26.7057 130.986 27.34 131.355C28.2509 133.229 29.4193 134.966 30.8115 136.516C31.3594 137.183 32.0448 137.724 32.8209 138.103C33.5969 138.481 34.4455 138.688 35.3087 138.709C36.0329 138.704 36.7491 138.557 37.4165 138.275C37.5991 138.432 37.7821 138.579 37.9647 138.713C39.2652 139.711 40.85 140.269 42.4891 140.305C43.5807 140.309 44.6525 140.013 45.5881 139.451C46.2705 139.814 46.9815 140.12 47.7139 140.367C48.3708 140.59 49.0588 140.707 49.7524 140.713C50.5299 140.719 51.2979 140.541 51.9932 140.193C52.9638 139.686 53.7449 138.88 54.2203 137.893C54.4379 137.45 54.6046 136.983 54.7171 136.503C57.1391 136.427 59.6599 136.234 62.2379 135.937C64.5697 140.272 67.5021 144.256 70.9482 147.771C71.3308 148.161 71.7318 148.533 72.1273 148.911C71.5648 151.287 71.1413 153.694 70.8591 156.12C69.7098 156.264 68.5971 156.619 67.5772 157.168C65.6462 158.279 64.0681 159.912 63.0245 161.88C61.9886 163.775 61.2343 165.812 60.7852 167.925C60.1957 170.455 59.881 173.042 59.8464 175.64C59.8128 177.613 60.1005 179.579 60.6982 181.461C61.2989 183.36 62.4508 185.037 64.0074 186.279C66.5461 188.166 69.6321 189.171 72.7951 189.141C74.4551 189.155 76.1033 188.861 77.6561 188.274C79.1448 187.724 80.4591 186.786 81.4622 185.556C82.6756 183.886 83.5529 181.996 84.0454 179.991C84.5965 177.97 84.8839 175.886 84.9006 173.791C84.9079 172.914 84.8358 172.037 84.6853 171.173C84.5634 170.412 84.3092 169.678 83.9342 169.005C83.7868 168.757 83.6093 168.545 83.4445 168.317C83.4758 168.218 83.4945 168.115 83.5002 168.011C83.4959 166.356 83.2758 164.708 82.8453 163.109C82.3228 161.05 81.0912 159.241 79.367 157.999C78.8693 157.661 78.3398 157.372 77.7861 157.136C77.9182 155.998 78.0738 154.927 78.2468 153.917C87.4167 160.322 99.0259 164.086 112.459 164.082C120.567 164.155 128.612 162.647 136.143 159.644C136.077 160.524 136.012 161.374 135.949 162.163C135.893 162.865 135.84 163.51 135.789 164.122C134.433 164.247 133.105 164.591 131.859 165.142C130.39 165.903 129.157 167.051 128.293 168.463C126.723 170.937 125.538 173.636 124.779 176.467C123.975 179.15 123.53 181.927 123.456 184.727C123.456 184.831 123.457 184.933 123.459 185.033C123.472 186.572 123.825 188.089 124.493 189.475C125.161 190.862 126.128 192.083 127.323 193.052C129.887 195.045 133.06 196.092 136.306 196.017L136.318 196.016L136.335 196.016C137.878 196.038 139.413 195.795 140.873 195.296C143.097 194.508 144.972 192.959 146.166 190.923C147.632 188.259 148.451 185.288 148.555 182.249C148.573 182.003 148.582 181.762 148.582 181.526C148.591 180.16 148.251 178.813 147.595 177.614C147.604 177.582 147.626 177.556 147.632 177.522C147.736 176.831 147.786 176.133 147.779 175.435C147.813 173.031 147.223 170.659 146.068 168.551C145.265 167.21 144.1 166.122 142.706 165.414C142.909 163.009 143.174 159.676 143.418 156.036C147.277 153.747 150.824 150.969 153.971 147.771C161.558 139.971 166.613 130.062 168.473 119.34C169.496 120.408 170.585 121.491 171.773 122.551C173.338 123.959 175.028 125.221 176.822 126.321C178.613 127.405 180.522 128.283 182.511 128.936C183.729 129.444 184.989 129.846 186.277 130.137C186.444 130.17 186.616 130.171 186.784 130.137C186.951 130.104 187.111 130.038 187.253 129.944C187.395 129.849 187.517 129.727 187.612 129.585C187.707 129.444 187.773 129.284 187.806 129.117C187.84 128.95 187.84 128.777 187.807 128.61C187.774 128.442 187.708 128.283 187.613 128.141C187.518 127.999 187.397 127.877 187.255 127.782C187.113 127.687 186.954 127.621 186.786 127.587L186.777 127.585C185.791 127.36 184.823 127.059 183.881 126.687L184.352 125.127C185.294 125.447 186.253 125.712 187.225 125.921C187.562 125.985 187.911 125.913 188.195 125.72C188.479 125.528 188.676 125.231 188.742 124.894C188.808 124.557 188.739 124.208 188.548 123.922C188.357 123.637 188.062 123.438 187.725 123.37L187.714 123.367C186.831 123.174 185.959 122.93 185.104 122.637L185.58 121.058C187.05 121.488 188.144 121.7 188.172 121.706C188.34 121.738 188.512 121.737 188.68 121.703C188.847 121.669 189.006 121.602 189.147 121.506C189.288 121.41 189.41 121.288 189.503 121.145C189.597 121.003 189.662 120.843 189.695 120.675C189.727 120.508 189.726 120.335 189.692 120.168C189.657 120.001 189.59 119.842 189.495 119.701C189.399 119.559 189.276 119.438 189.134 119.344C188.991 119.25 188.832 119.185 188.664 119.153L188.598 119.14C187.403 118.888 186.223 118.564 185.067 118.17C185.054 118.165 185.04 118.168 185.027 118.164C183.727 117.64 182.494 116.962 181.353 116.146C178.875 114.265 176.605 112.124 174.58 109.761C174.24 109.391 173.895 109.014 173.548 108.634C174.408 109.112 175.299 109.58 176.263 110.009C179.373 111.42 182.743 112.165 186.158 112.197C186.666 112.231 187.15 112.246 187.596 112.246C188.621 112.253 189.645 112.179 190.659 112.024C190.997 111.963 191.296 111.77 191.492 111.489C191.688 111.207 191.765 110.859 191.706 110.521C191.647 110.183 191.456 109.883 191.176 109.684C190.896 109.486 190.549 109.407 190.211 109.463L190.211 109.464ZM82.1287 171.646C82.2501 172.354 82.3076 173.072 82.3006 173.791C82.2836 175.655 82.0268 177.51 81.5366 179.308C81.1326 180.977 80.4131 182.553 79.4169 183.951C78.7 184.815 77.7653 185.471 76.7096 185.852C75.4583 186.321 74.1313 186.555 72.7952 186.541C70.2092 186.569 67.6843 185.756 65.6005 184.224C64.4463 183.294 63.5964 182.04 63.1598 180.624C62.6547 179.012 62.4138 177.329 62.4464 175.64C62.4623 173.979 62.6147 172.322 62.902 170.685C63.0297 169.922 63.1687 169.178 63.3225 168.493C63.8079 166.027 64.8193 163.694 66.2877 161.654C66.969 160.755 67.829 160.006 68.8137 159.456C69.3721 159.158 69.9695 158.94 70.5884 158.809C70.5837 158.865 70.5803 158.924 70.5759 158.98C70.3701 159.147 70.1839 159.337 70.0211 159.546C68.6245 161.437 67.5833 163.566 66.9484 165.829C66.5095 166.081 66.0945 166.373 65.7086 166.701C65.4665 166.916 65.3142 167.214 65.282 167.536C65.2498 167.858 65.3399 168.181 65.5346 168.44C65.5571 168.47 65.5644 168.507 65.5898 168.536C65.8174 168.795 66.1385 168.953 66.4826 168.975C66.8267 168.997 67.1656 168.882 67.4246 168.654L67.4245 168.654C68.2386 167.998 69.1757 167.51 70.1807 167.22C71.4439 166.827 72.7593 166.627 74.0824 166.628C75.592 166.607 77.0889 166.906 78.4749 167.505C79.8186 168.09 80.9462 169.08 81.7009 170.336C81.9158 170.746 82.0604 171.188 82.1287 171.646ZM79.7414 162.285C80.2649 163.381 80.5965 164.559 80.7219 165.767C80.3447 165.532 79.9529 165.321 79.5488 165.137C79.0212 164.904 78.4772 164.71 77.9211 164.557C77.8076 163.284 77.664 161.953 77.4793 160.542C77.4933 160.327 77.5102 160.12 77.5258 159.909C78.4765 160.472 79.2455 161.297 79.7414 162.285V162.285ZM145.962 182.058C145.857 183.955 145.489 185.827 144.869 187.623C144.287 189.457 143.102 191.04 141.507 192.116C139.943 193.036 138.148 193.487 136.335 193.417V193.417L136.31 193.417V193.417C133.664 193.492 131.074 192.654 128.974 191.043C128.067 190.314 127.335 189.391 126.831 188.343C126.327 187.295 126.063 186.147 126.059 184.984L126.056 184.727C126.161 181.695 126.714 178.695 127.696 175.824C127.844 175.377 128 174.936 128.164 174.503C128.747 172.894 129.513 171.357 130.445 169.922C131.044 168.915 131.899 168.084 132.922 167.514C133.453 167.283 134.004 167.1 134.568 166.968C134.109 167.779 133.708 168.621 133.366 169.487C132.978 170.462 132.618 171.53 132.294 172.636C131.673 172.789 131.072 173.018 130.507 173.318C130.357 173.401 130.226 173.514 130.121 173.648C130.015 173.783 129.937 173.937 129.891 174.102C129.845 174.266 129.832 174.439 129.853 174.609C129.873 174.778 129.927 174.942 130.012 175.091C130.096 175.24 130.209 175.371 130.343 175.476C130.478 175.582 130.633 175.659 130.798 175.705C130.963 175.75 131.135 175.762 131.305 175.741C131.474 175.72 131.638 175.665 131.787 175.581L131.787 175.581C132.329 175.3 132.911 175.103 133.512 174.997C134.34 174.839 135.181 174.762 136.023 174.767C138.409 174.732 140.764 175.307 142.866 176.437C143.774 176.946 144.551 177.66 145.134 178.521C145.707 179.417 146.002 180.463 145.982 181.527C145.982 181.699 145.976 181.876 145.962 182.058V182.058ZM143.815 169.848C144.655 171.385 145.118 173.1 145.167 174.852C144.402 174.29 143.571 173.821 142.694 173.457C142.633 171.353 142.476 169.609 142.403 168.875C142.416 168.733 142.432 168.55 142.452 168.328C143.001 168.742 143.463 169.258 143.815 169.848V169.848ZM90.1635 127.194C90.5197 127.528 90.9278 127.801 91.3719 128.004C92.0349 128.297 92.7466 128.465 93.4709 128.499C92.873 129.428 92.2036 130.308 91.4687 131.133C91.1851 131.532 90.8118 131.86 90.3788 132.089C89.9457 132.318 89.465 132.442 88.9752 132.452C88.4853 132.461 88.0001 132.356 87.5583 132.144C87.1166 131.932 86.7308 131.62 86.4317 131.232C86.0563 130.804 85.7635 130.31 85.5683 129.776C85.7228 129.703 85.8918 129.633 86.0433 129.559C87.4706 128.869 88.8475 128.078 90.1635 127.194ZM75.7596 106.762C70.7722 108.391 65.6404 109.539 60.4343 110.19C59.1062 110.363 57.801 110.493 56.5089 110.604C54.0245 110.818 51.6083 110.932 49.3127 110.932C44.6421 111.011 39.9815 110.472 35.4521 109.33C34.9189 109.181 34.4085 109.023 33.9251 108.855C32.3394 108.361 30.855 107.587 29.5418 106.57C28.7146 105.968 28.1498 105.071 27.9634 104.065L27.9187 103.717C28.2192 103.793 28.5176 103.87 28.8284 103.941C30.8253 104.382 32.8476 104.698 34.8837 104.888C37.0107 105.095 39.2775 105.202 41.6545 105.202C45.4856 105.193 49.3123 104.938 53.1108 104.439C53.977 104.326 54.8256 104.194 55.6722 104.06L55.6911 104.058C56.9784 103.945 58.2775 103.814 59.5981 103.643C67.361 102.758 74.9365 100.658 82.0472 97.4195C82.3439 97.2739 82.6317 97.1262 82.9172 96.9777C84.2664 96.2881 85.5626 95.4993 86.795 94.6179C87.565 94.0639 88.2921 93.4526 88.9702 92.7892C89.2617 92.5001 89.5263 92.2047 89.7778 91.9061L90.2986 95.967C90.3142 96.0887 90.322 96.2112 90.3219 96.3339C90.3077 96.9416 90.1459 97.5368 89.8504 98.068C89.267 99.0922 88.4971 99.9982 87.5805 100.739C87.2306 101.04 86.8488 101.341 86.4349 101.642C85.5693 102.262 84.6672 102.828 83.7333 103.339C81.1846 104.719 78.5158 105.865 75.7596 106.762ZM84.1119 91.6038C84.2519 91.3849 84.382 91.1635 84.4992 90.9385C84.9879 90.0366 85.2504 89.0297 85.2644 88.0041C85.2645 87.7712 85.2498 87.5386 85.2203 87.3076L84.6181 82.6149C85.6725 83.0454 86.6598 83.6248 87.5499 84.3354C88.3757 84.9374 88.9401 85.8323 89.1276 86.8369L89.1291 86.8476C89.144 86.9669 89.1516 87.0871 89.1517 87.2073C89.1375 87.8151 88.9757 88.4103 88.6802 88.9416C87.866 90.3041 86.7649 91.4729 85.4534 92.3669C85.3868 92.4164 85.3329 92.4662 85.2646 92.5158C83.7548 93.584 82.1506 94.5123 80.4721 95.289C81.1817 94.7693 81.8536 94.2001 82.4828 93.5856C83.097 92.9868 83.6433 92.3222 84.1119 91.6038V91.6038ZM87.1683 112.673C87.6569 111.771 87.9194 110.764 87.9333 109.739C87.9334 109.506 87.9187 109.273 87.8892 109.042L87.4516 105.632C88.5029 106.062 89.4874 106.64 90.3751 107.349C91.2012 107.951 91.7658 108.847 91.9532 109.852L91.9543 109.86C91.9694 109.98 91.9771 110.101 91.9771 110.222C91.963 110.829 91.8012 111.424 91.5057 111.956C90.6916 113.318 89.5907 114.487 88.2795 115.381C88.2127 115.43 88.1586 115.48 88.0901 115.53C84.8022 117.751 81.2052 119.476 77.4149 120.649C76.5334 120.944 75.6137 121.225 74.6745 121.496C75.9243 121.001 77.1264 120.49 78.2288 119.951C80.7673 118.784 83.1042 117.221 85.1518 115.32C85.5137 114.961 85.8541 114.581 86.1711 114.181C86.5507 113.711 86.8846 113.206 87.1683 112.673V112.673ZM165.924 118.815C159.235 133.155 146.287 142.792 120.897 142.792C119.433 142.792 117.927 142.76 116.38 142.695C108.032 142.414 99.7794 140.833 91.9185 138.009C92.7316 137.829 93.5151 137.534 94.2459 137.135C94.6983 136.883 95.1334 136.602 95.5485 136.293C98.5444 137.081 101.592 137.656 104.67 138.013C108.067 138.424 111.486 138.634 114.908 138.643C116.901 138.653 118.894 138.552 120.876 138.34C121.051 138.323 121.165 138.311 121.189 138.308L121.192 138.307L121.214 138.305C121.306 138.294 121.39 138.263 121.479 138.245C121.615 138.222 121.75 138.191 121.883 138.153C122.005 138.107 122.125 138.055 122.242 137.996C122.329 137.955 122.421 137.924 122.505 137.877C122.656 137.788 122.8 137.687 122.936 137.577C122.975 137.546 123.019 137.523 123.057 137.49C123.583 137.041 123.963 136.446 124.15 135.781C124.171 135.708 124.175 135.63 124.191 135.556C124.227 135.409 124.253 135.26 124.269 135.109C124.306 134.643 124.249 134.173 124.102 133.729C124.051 133.589 123.99 133.452 123.921 133.319C123.888 133.249 123.865 133.174 123.826 133.106C123.485 132.505 122.974 132.018 122.357 131.707C122.311 131.684 122.261 131.671 122.214 131.65C122.057 131.576 121.895 131.513 121.729 131.463C121.633 131.436 121.533 131.428 121.435 131.409C121.311 131.38 121.185 131.359 121.058 131.344C120.915 131.338 120.772 131.34 120.629 131.352C120.545 131.355 120.463 131.346 120.378 131.356L120.377 131.355C120.377 131.355 120.298 131.364 120.137 131.379C119.655 131.423 118.474 131.511 116.835 131.511C113.027 131.523 109.234 131.044 105.548 130.088C103.851 129.636 102.194 129.045 100.593 128.323C100.623 128.069 100.639 127.813 100.641 127.558C100.648 126.907 100.535 126.26 100.309 125.649C100.207 125.395 100.081 125.152 99.9315 124.922C100.026 124.785 100.105 124.636 100.191 124.491C107.138 126.441 114.323 127.414 121.539 127.383C140.619 127.383 154.509 122.329 163.037 113.502C163.413 113.886 163.794 114.285 164.181 114.699C164.843 115.406 165.525 116.157 166.23 116.93C166.138 117.562 166.036 118.19 165.924 118.815L165.924 118.815ZM96.8894 127.685C97.2694 127.466 97.6342 127.222 97.9812 126.954C98.0209 127.152 98.0409 127.355 98.0409 127.558C98.0145 128.384 97.8215 129.196 97.4735 129.946C97.0351 130.926 96.4478 131.832 95.7325 132.632H95.7326C94.9588 133.523 94.0362 134.274 93.0058 134.85C92.263 135.286 91.4254 135.536 90.5648 135.578C90.128 135.605 89.6971 135.467 89.3566 135.192C89.307 135.144 89.2612 135.091 89.2195 135.036C90.0283 134.972 90.816 134.746 91.5361 134.372C92.2562 133.998 92.8942 133.484 93.4123 132.86C94.8078 131.306 95.9782 129.564 96.8894 127.685L96.8894 127.685ZM95.9773 119.765C96.4048 119.758 96.8292 119.839 97.2234 120.005C97.5483 120.144 97.8275 120.371 98.0285 120.662C98.2694 120.991 98.401 121.387 98.4045 121.794C98.3963 122.155 98.3098 122.51 98.1509 122.834C97.8386 123.46 97.4091 124.02 96.8859 124.484C96.3816 124.952 95.8131 125.346 95.1976 125.653C94.7726 125.836 94.3134 125.926 93.8508 125.917C93.2344 125.936 92.6264 125.77 92.1051 125.44C91.9146 125.309 91.7585 125.134 91.6499 124.93C91.5225 124.671 91.4606 124.385 91.4697 124.096C91.5007 123.414 91.6715 122.745 91.9715 122.132L90.7824 121.606L91.9717 122.131C92.3179 121.409 92.8826 120.814 93.5859 120.43C94.3127 120.007 95.1362 119.778 95.9772 119.765L95.9773 119.765ZM84.489 132.96C84.8889 133.41 85.349 133.803 85.856 134.127C85.5132 134.502 85.1359 134.844 84.7292 135.148C83.8726 135.822 82.8234 136.206 81.734 136.243C81.2783 136.249 80.8262 136.162 80.4059 135.986C79.9855 135.81 79.606 135.549 79.2911 135.22C78.6425 134.501 78.2832 133.568 78.2827 132.599C80.02 132.051 81.6545 131.46 83.1862 130.827C83.4925 131.609 83.9334 132.33 84.489 132.96ZM76.5185 135.793C76.2341 135.914 75.9581 136.02 75.6993 136.105C75.304 136.241 74.8894 136.314 74.4711 136.321C74.1021 136.328 73.7368 136.246 73.4058 136.082C72.9315 135.827 72.5529 135.425 72.3267 134.936C72.223 134.721 72.1395 134.497 72.0773 134.267C73.3263 133.983 74.5515 133.684 75.7312 133.357C75.8334 134.213 76.1008 135.04 76.5185 135.793ZM175.719 80.0999C177.344 78.6756 179.144 77.4649 181.076 76.497C182.504 75.7449 184.081 75.3164 185.694 75.2421C186.649 75.2005 187.587 75.4995 188.342 76.0859C189.192 76.8584 189.761 77.8918 189.959 79.0233C190.274 80.3122 190.281 81.6575 189.978 82.9494C189.675 84.2413 189.07 85.4432 188.214 86.4571C185.887 89.1584 182.899 91.209 179.541 92.4079C177.263 93.3069 174.89 93.9405 172.468 94.2962C172.908 91.6736 173.127 89.0187 173.123 86.3594C173.123 86.0017 173.106 85.643 173.098 85.2849C173.509 84.0559 173.868 82.8012 174.175 81.5207C174.684 81.0251 175.198 80.5461 175.719 80.0999ZM78.7132 43.8162C79.2019 42.9143 79.4644 41.9073 79.4783 40.8817C79.4784 40.6487 79.4636 40.416 79.4342 40.1849L79.1181 37.7231C80.188 36.5047 81.3256 35.3475 82.5256 34.257C86.4636 30.9892 90.5527 29.453 94.2706 29.4556C97.228 29.4465 100.099 30.4538 102.402 32.3089C104.067 33.6913 105.451 35.3799 106.48 37.2833C108.139 40.128 109.421 43.415 111.612 46.354C112.754 47.9102 114.161 49.2533 115.768 50.322C117.714 51.5686 119.879 52.4339 122.148 52.8719C123.328 53.1219 124.53 53.2491 125.736 53.2513C128.43 53.2192 131.084 52.601 133.514 51.4396C137.043 49.8301 140.137 47.5098 143.296 45.6552C146.46 43.7925 149.624 42.4026 153.332 42.4024C153.604 42.4024 153.881 42.4102 154.162 42.4258C157.745 42.5948 161.182 43.8931 163.981 46.1346C166.564 48.2726 168.583 51.0106 169.863 54.1093C171.888 59.2396 172.924 64.7063 172.918 70.2216C172.915 73.4101 172.583 76.5897 171.927 79.71C169.94 89.4696 164.43 98.1563 156.448 104.113C148.505 110.075 138.041 113.568 125.878 113.57C121.029 113.552 116.195 113.033 111.452 112.022C103.452 110.44 95.8194 107.373 88.9492 102.979C89.3738 102.631 89.7754 102.277 90.1405 101.916C90.9449 101.142 91.6251 100.249 92.1568 99.2685C92.6454 98.3665 92.9079 97.3596 92.9218 96.3339C92.9219 96.1006 92.9071 95.8676 92.8774 95.6362L91.708 86.5159L91.7076 86.5108L91.7072 86.5109V86.5102H91.7074L91.7064 86.5051L91.6841 86.3306C91.681 86.3071 91.6664 86.2889 91.6621 86.2658C91.3415 84.7108 90.477 83.321 89.2239 82.346C87.7325 81.1702 86.0457 80.2662 84.2407 79.6755L84.0497 78.187L84.0493 78.181L84.049 78.1811L84.0489 78.1801L84.0492 78.18L84.048 78.173L84.0258 78.0004C84.0229 77.9769 84.0082 77.9591 84.0041 77.9361C83.6835 76.3812 82.8191 74.9914 81.566 74.0165C80.7894 73.3817 79.9436 72.8364 79.0449 72.3911L78.6422 69.2506C78.6389 69.2249 78.623 69.2053 78.6184 69.1801C78.2967 67.6274 77.4329 66.2399 76.1815 65.2661C76.0608 65.1652 75.926 65.0717 75.7985 64.9743L75.2176 60.4477L75.2172 60.4418H75.2169L75.2172 60.4417L75.216 60.4349L75.1938 60.2622C75.1909 60.2387 75.1762 60.2209 75.1721 60.1979C74.9637 59.0893 74.4538 58.0596 73.6983 57.2219C73.7993 57.1271 73.9058 57.0333 74.0026 56.9376C74.8072 56.1644 75.4874 55.2715 76.0191 54.2906C76.5077 53.3887 76.7702 52.3818 76.7841 51.3562C76.7842 51.123 76.7694 50.8899 76.7397 50.6586L76.2548 46.8764C76.4042 46.7392 76.5561 46.6024 76.6967 46.4634C77.5013 45.6902 78.1815 44.7972 78.7132 43.8162ZM8.99471 68.8893L8.4731 64.8259C10.8733 66.3654 13.5455 67.4324 16.346 67.9696C16.4268 67.9877 16.5128 68.0031 16.5942 68.0211C20.732 68.8686 24.9481 69.2742 29.1716 69.2311C31.855 69.2311 34.6779 69.0937 37.5896 68.8109C38.5932 68.7134 39.6065 68.5987 40.6295 68.4668C42.573 68.214 44.4592 67.8988 46.2967 67.5443C52.3898 66.6988 58.3616 65.1362 64.0879 62.8891C65.1318 62.4626 66.1433 62.0257 67.0799 61.5677C67.4064 61.4077 67.7239 61.2453 68.0366 61.0819C69.1019 60.5296 70.1353 59.918 71.1321 59.2499L71.3298 60.7922C71.3455 60.9139 71.3532 61.0365 71.3531 61.1592C71.339 61.7669 71.1772 62.3621 70.8817 62.8933C70.2983 63.9175 69.5284 64.8235 68.6117 65.5644C68.2619 65.8652 67.88 66.1662 67.4662 66.4674C66.6007 67.0867 65.6985 67.6532 64.7647 68.1636C62.216 69.5441 59.5471 70.6898 56.7909 71.5868C51.8036 73.2159 46.6717 74.3637 41.4656 75.0146C40.442 75.1475 39.429 75.2613 38.4265 75.356C35.6255 75.6253 32.9127 75.7571 30.3425 75.7571C25.9923 75.8141 21.6508 75.3545 17.4089 74.388C16.5383 74.1724 15.7078 73.9402 14.9557 73.6797C13.3702 73.1855 11.8858 72.4116 10.5728 71.3947C9.74572 70.7921 9.18099 69.8955 8.99471 68.8893ZM19.1777 58.1667C23.3945 59.0524 27.6953 59.4754 32.0039 59.4279C34.6112 59.4279 37.3524 59.2946 40.1763 59.028C41.2602 58.9256 42.3537 58.8078 43.4604 58.6642C49.7619 57.8925 55.9509 56.3831 61.9001 54.1672C63.6464 53.6189 65.2898 53.0282 66.8303 52.3954C67.8567 51.9751 68.8514 51.5443 69.7737 51.0935C70.1164 50.9254 70.4513 50.7553 70.7784 50.5833C71.8438 50.0288 72.8769 49.4143 73.8728 48.7429L74.1609 50.9894C74.1765 51.111 74.1843 51.2336 74.1842 51.3562C74.17 51.9639 74.0082 52.5589 73.7129 53.0901C73.1293 54.1143 72.3593 55.0203 71.4426 55.7613C71.0927 56.062 70.711 56.363 70.2972 56.6641C69.4317 57.2834 68.5295 57.8498 67.5957 58.3603C65.047 59.7408 62.3781 60.8867 59.6219 61.7837C54.6346 63.4128 49.5027 64.5607 44.2966 65.2117C43.1894 65.3554 42.0969 65.4717 41.0139 65.5729C38.3005 65.8263 35.6692 65.9539 33.1748 65.9539C28.7361 66.016 24.3065 65.5346 19.9848 64.5205C19.2101 64.322 18.4648 64.1115 17.787 63.8768C16.2014 63.3826 14.7169 62.6087 13.4038 61.5919C12.5768 60.9893 12.0121 60.0928 11.8258 59.0866L11.3042 55.0231C13.7028 56.5616 16.3731 57.628 19.1716 58.1652L19.1777 58.1667ZM79.1148 82.1884C79.6034 81.2865 79.8659 80.2795 79.8798 79.2538C79.8799 79.0206 79.8651 78.7875 79.8354 78.5561L79.4682 75.6924C79.6097 75.7969 79.7663 75.8997 79.8918 76.0058C80.7179 76.6079 81.2824 77.5031 81.4697 78.508L81.4708 78.5158C81.4859 78.6359 81.4935 78.7567 81.4936 78.8777C81.4794 79.4855 81.3176 80.0806 81.0221 80.6119C80.2347 81.932 79.1742 83.0686 77.9117 83.9455C78.3755 83.4054 78.779 82.8162 79.1148 82.1884ZM76.3342 36.454L76.8553 40.5149C76.8707 40.6366 76.8784 40.759 76.8784 40.8816C76.8642 41.4894 76.7024 42.0845 76.4069 42.6158C75.8235 43.6399 75.0536 44.5458 74.137 45.2868C73.787 45.5876 73.4051 45.8886 72.9912 46.1899C72.1256 46.809 71.2235 47.3754 70.2897 47.8859C67.741 49.2664 65.072 50.4122 62.3157 51.3092C57.3285 52.9381 52.1968 54.086 46.9909 54.7371C45.8006 54.8916 44.6286 55.0128 43.4667 55.1183C40.839 55.3567 38.2877 55.4797 35.8676 55.4797C31.3426 55.5474 26.8271 55.0446 22.4279 53.983C21.7451 53.8024 21.0859 53.6122 20.4805 53.4025C18.8949 52.9082 17.4105 52.1344 16.0973 51.1176C15.2703 50.5151 14.7055 49.6187 14.5191 48.6127L13.998 44.5485C16.3218 46.043 18.9056 47.088 21.615 47.629C21.7017 47.6493 21.7836 47.6722 21.8711 47.6921C26.0877 48.578 30.3884 49.001 34.6968 48.9536C37.2297 48.9536 39.8908 48.8247 42.6291 48.5734C43.7922 48.4664 44.9651 48.3439 46.1548 48.1894C53.9175 47.3048 61.4927 45.2052 68.6032 41.9676C68.9003 41.822 69.1882 41.674 69.4738 41.5256C70.8231 40.8359 72.1192 40.047 73.3517 39.1655C74.1214 38.6117 74.8483 38.0006 75.5262 37.3376C75.8178 37.0483 76.0825 36.7528 76.3342 36.454ZM13.7962 37.3853C14.653 35.9534 15.8202 34.732 17.2118 33.8112C20.4999 31.59 24.0969 29.865 27.8874 28.6915C28.5505 28.4695 29.2355 28.2563 29.9315 28.0477C34.2769 26.765 38.7185 25.8341 43.2133 25.2637C45.6802 24.9434 48.0839 24.7419 50.4112 24.6291C51.7462 24.5644 53.0627 24.5211 54.3348 24.5211C59.5416 24.3932 64.7356 25.0943 69.7221 26.5981C71.3078 27.0924 72.7923 27.8663 74.1055 28.8832C74.9317 29.4855 75.4963 30.3809 75.6837 31.3859L75.6848 31.3947C75.6999 31.5145 75.7076 31.6351 75.7076 31.7558C75.6935 32.3635 75.5317 32.9587 75.2362 33.4899C74.4221 34.8522 73.3213 36.0209 72.01 36.9147C71.9432 36.9644 71.8892 37.0144 71.8207 37.064C68.5327 39.2851 64.9357 41.01 61.1454 42.1834C59.9872 42.5712 58.7746 42.9383 57.5187 43.2839C53.6776 44.3289 49.7687 45.1065 45.8201 45.6111C42.132 46.0965 38.4167 46.3446 34.6969 46.3537C29.4902 46.4815 24.2962 45.7803 19.3098 44.2763C17.7242 43.7821 16.2397 43.0081 14.9266 41.9911C14.1012 41.3895 13.5371 40.4952 13.3496 39.4911L13.3493 39.4888L13.3484 39.486L13.3482 39.4859C13.3325 39.3644 13.3247 39.242 13.3248 39.1195C13.3389 38.5117 13.5007 37.9166 13.7962 37.3853V37.3853ZM11.1026 47.8589C11.2712 47.5411 11.4659 47.2379 11.6848 46.9523L11.9401 48.9435C12.2078 50.5968 13.0959 52.0858 14.4233 53.107C15.4196 53.9113 16.52 54.5774 17.6945 55.0872C17.3273 54.9778 16.958 54.8693 16.616 54.7508C15.0304 54.2566 13.546 53.4827 12.2329 52.4659C11.4059 51.8633 10.8412 50.9668 10.6549 49.9606C10.6391 49.8388 10.6312 49.7161 10.6312 49.5933C10.6453 48.9855 10.8071 48.3903 11.1026 47.8589ZM8.27144 57.6622C8.45234 57.3248 8.66215 57.0037 8.89852 56.7026L9.24691 59.4173C9.51437 61.0706 10.4022 62.5597 11.7296 63.5811C11.8635 63.6931 12.0124 63.7972 12.1545 63.9047C11.1664 63.488 10.2401 62.9375 9.40182 62.2686C8.57482 61.666 8.01012 60.7695 7.82382 59.7634C7.80804 59.6416 7.80013 59.519 7.80014 59.3962C7.81428 58.7885 7.97603 58.1934 8.27144 57.6622ZM11.4732 77.9966L11.0656 74.8184C13.1049 75.8616 15.2746 76.6274 17.5169 77.0955C18.0066 77.2062 18.5113 77.3085 19.0258 77.4052C22.7611 78.0671 26.5491 78.3857 30.3425 78.357C30.7348 78.357 31.1408 78.3427 31.539 78.3368C31.5771 78.3368 31.6141 78.3381 31.6523 78.3381C34.3095 78.3381 37.1044 78.2021 39.9858 77.925C41.0168 77.8257 42.0578 77.7088 43.1088 77.5743C50.8715 76.6895 58.4469 74.5897 65.5574 71.3517C65.8544 71.2061 66.1422 71.0582 66.4279 70.9096C67.7771 70.22 69.0733 69.4312 70.3057 68.5496C71.0754 67.9957 71.8023 67.3846 72.4802 66.7215C72.7719 66.4322 73.0365 66.1366 73.2882 65.8378L73.8093 69.8987C73.8248 70.0203 73.8325 70.1428 73.8324 70.2654C73.8182 70.8731 73.6564 71.4683 73.361 71.9996C72.7776 73.0237 72.0077 73.9297 71.0911 74.6707C70.7411 74.9716 70.3591 75.2727 69.9452 75.5739C69.0797 76.1931 68.1777 76.7595 67.2439 77.2699C64.6951 78.6506 62.0261 79.7966 59.2697 80.6937C54.2825 82.3228 49.1509 83.4708 43.945 84.1218C42.893 84.2584 41.8533 84.3717 40.8233 84.4697C38.0523 84.7335 35.3673 84.864 32.8231 84.864C28.4429 84.9226 24.0714 84.4557 19.8023 83.4733C18.9643 83.2633 18.1621 83.0387 17.4351 82.7869C15.8494 82.2926 14.3648 81.5188 13.0515 80.5019C12.2244 79.8994 11.6596 79.0028 11.4732 77.9966ZM16.4994 89.4903C15.6725 88.8877 15.1078 87.9912 14.9214 86.985L14.5956 84.4472C16.3323 85.2129 18.1418 85.8011 19.9968 86.2028C20.7541 86.374 21.5488 86.5241 22.3647 86.6612C25.8228 87.2159 29.3209 87.4844 32.8232 87.4641C34.8612 87.4641 36.9855 87.376 39.1618 87.2145C40.5158 87.1486 41.8898 87.0575 43.2917 86.9248C44.3691 86.8228 45.4561 86.7053 46.5561 86.5626C54.3188 85.6775 61.8941 83.5776 69.0047 80.3398C69.3017 80.1942 69.5895 80.0462 69.8752 79.8977C71.2244 79.2081 72.5206 78.4193 73.753 77.5378C74.5228 76.984 75.2497 76.3729 75.9275 75.7097C76.2192 75.4204 76.4841 75.1246 76.7358 74.8257L77.2565 78.8869C77.2721 79.0086 77.2799 79.1312 77.2798 79.2539C77.2657 79.8616 77.1039 80.4568 76.8084 80.988C76.225 82.0122 75.4551 82.9182 74.5384 83.6592C74.1885 83.9601 73.8067 84.2611 73.3929 84.5622C72.5273 85.1815 71.6251 85.7479 70.6912 86.2585C68.1426 87.6389 65.4737 88.7847 62.7176 89.6817C57.7302 91.3109 52.5984 92.4589 47.3922 93.1102C46.2917 93.253 45.2056 93.3688 44.1292 93.4697C41.4088 93.7243 38.7709 93.8524 36.2704 93.8524C31.8392 93.914 27.417 93.4344 23.102 92.4244C22.3193 92.2244 21.5668 92.0121 20.8826 91.7752C19.297 91.281 17.8126 90.5071 16.4995 89.4903L16.4994 89.4903ZM21.8836 98.2403C21.0565 97.6377 20.4916 96.7411 20.3052 95.7348L20.1152 94.2534C21.2078 94.6238 22.319 94.9368 23.4443 95.1911C24.7273 95.4809 26.102 95.7197 27.5485 95.9114C30.4409 96.2818 33.3545 96.4625 36.2705 96.4523C39.4858 96.4424 42.6983 96.2571 45.8935 95.8974C46.7243 95.8442 47.5673 95.774 48.4152 95.6962C49.578 95.5894 50.7506 95.467 51.9399 95.3126C59.7027 94.4278 67.2783 92.3279 74.3889 89.0899C74.6861 88.9442 74.9741 88.7961 75.26 88.6477C76.6091 87.958 77.9053 87.1691 79.1376 86.2876C79.9073 85.7338 80.6341 85.1227 81.312 84.4597C81.6037 84.1704 81.8684 83.8747 82.1201 83.5759L82.6414 87.638C82.6568 87.7595 82.6645 87.8817 82.6644 88.0041C82.6502 88.6118 82.4884 89.2068 82.1929 89.738C81.6094 90.7624 80.8393 91.6686 79.9223 92.4096C79.5726 92.7104 79.1909 93.0112 78.7773 93.3121C77.9118 93.9313 77.0097 94.4977 76.0759 95.0083C73.5271 96.389 70.858 97.5349 68.1016 98.4319C63.1142 100.061 57.9823 101.209 52.7761 101.86C51.5861 102.015 50.4143 102.136 49.2529 102.241C46.6254 102.479 44.0744 102.602 41.6545 102.602C37.1289 102.67 32.6129 102.167 28.2131 101.105C27.5307 100.925 26.8719 100.735 26.2669 100.525C24.6813 100.031 23.1968 99.2572 21.8836 98.2403L21.8836 98.2403ZM22.2512 106.243C23.003 104.978 24.0104 103.883 25.2092 103.029L25.3846 104.396C25.6522 106.049 26.5402 107.538 27.8677 108.56C30.4174 110.443 33.3667 111.713 36.4866 112.271C40.7034 113.157 45.0041 113.58 49.3126 113.532C53.1438 113.523 56.9704 113.268 60.7689 112.769C62.4508 112.55 64.0836 112.279 65.6874 111.983C66.5492 111.824 67.3982 111.656 68.2344 111.477C67.4979 111.706 66.7462 111.929 65.9736 112.141C62.1322 113.187 58.223 113.965 54.2741 114.47C50.5866 114.955 46.8717 115.203 43.1525 115.212C37.9456 115.34 32.7515 114.638 27.7649 113.135C26.1793 112.64 24.6948 111.867 23.3816 110.85C22.5545 110.247 21.9896 109.35 21.8032 108.344C21.7876 108.223 21.7797 108.1 21.7797 107.977C21.7939 107.369 21.9557 106.774 22.2512 106.243L22.2512 106.243ZM22.9742 117.47L22.4525 113.407C24.7761 114.901 27.3597 115.946 30.069 116.487C30.1562 116.507 30.2384 116.53 30.3265 116.55C34.5432 117.436 38.844 117.859 43.1525 117.812C45.6852 117.812 48.3459 117.683 51.0842 117.431C52.2469 117.325 53.4195 117.202 54.6088 117.048C62.3717 116.163 69.9472 114.063 77.0579 110.825C77.3546 110.679 77.6423 110.531 77.9279 110.383C79.2771 109.693 80.5732 108.905 81.8057 108.023C82.5757 107.469 83.3028 106.858 83.9808 106.195C84.004 106.171 84.0243 106.148 84.0472 106.124C84.317 105.985 84.5796 105.843 84.839 105.701L85.3103 109.372C85.3257 109.494 85.3333 109.616 85.3333 109.739C85.319 110.346 85.1572 110.942 84.8618 111.473C84.2781 112.497 83.508 113.403 82.5911 114.145C82.2413 114.445 81.8597 114.746 81.4462 115.047C80.5804 115.666 79.678 116.233 78.7439 116.744C76.1954 118.124 73.5266 119.27 70.7705 120.167C65.7831 121.796 60.6512 122.944 55.4449 123.596C54.255 123.75 53.0833 123.871 51.9218 123.976C49.2943 124.215 46.7433 124.338 44.3234 124.338C39.7978 124.405 35.2817 123.902 30.882 122.841C30.1996 122.66 29.5408 122.47 28.9358 122.261C27.3502 121.766 25.8657 120.993 24.5525 119.976C23.7254 119.373 23.1606 118.476 22.9742 117.47L22.9742 117.47ZM26.8223 127.613C26.5207 127.276 26.2682 126.898 26.0722 126.49C25.9132 126.167 25.8266 125.812 25.8185 125.451C25.822 125.044 25.9537 124.647 26.1949 124.319C26.263 124.229 26.3394 124.146 26.423 124.071C26.8794 124.269 27.3563 124.456 27.8537 124.633L28.2097 127.409C28.2881 128.014 28.4653 128.602 28.7341 129.149C28.0156 128.747 27.3694 128.228 26.8223 127.613L26.8223 127.613ZM35.3086 136.109C34.8125 136.088 34.3268 135.96 33.8857 135.732C33.4445 135.504 33.0587 135.182 32.7553 134.789C32.0187 133.963 31.3479 133.08 30.7489 132.149C30.955 132.137 31.1603 132.119 31.3683 132.087C33.3251 133.391 35.495 134.343 37.7798 134.899C37.4759 135.262 37.0988 135.558 36.6731 135.767C36.2473 135.975 35.7824 136.092 35.3087 136.109L35.3086 136.109ZM44.9313 136.683C44.6165 137.012 44.2371 137.273 43.8168 137.449C43.3966 137.625 42.9446 137.712 42.489 137.705C41.4619 137.668 40.4704 137.32 39.646 136.706C39.6745 136.675 39.706 136.647 39.7338 136.616C40.0298 136.281 40.2934 135.92 40.5212 135.536C42.0116 135.826 43.6004 136.055 45.2874 136.224C45.1816 136.387 45.0625 136.54 44.9313 136.683L44.9313 136.683ZM51.5911 137.218C51.3859 137.492 51.1213 137.717 50.8172 137.874C50.4864 138.038 50.1213 138.12 49.7523 138.113C49.3342 138.106 48.9198 138.033 48.5246 137.897C48.1957 137.787 47.8725 137.661 47.5563 137.518C47.7709 137.175 47.952 136.812 48.0973 136.434C49.3507 136.502 50.6412 136.539 51.9688 136.544C51.8713 136.784 51.7444 137.01 51.5911 137.218L51.5911 137.218ZM59.3349 133.618C56.851 133.832 54.4352 133.946 52.14 133.946C47.4687 134.025 42.8074 133.486 38.2773 132.343C37.7443 132.194 37.2343 132.036 36.751 131.869C35.1652 131.375 33.6805 130.601 32.3672 129.584C31.54 128.981 30.975 128.085 30.7885 127.079L30.5797 125.45C30.8827 125.527 31.1837 125.605 31.4973 125.676C33.4918 126.117 35.5117 126.432 37.5453 126.622C39.1261 126.777 40.7843 126.875 42.508 126.916C45.314 127.261 48.139 127.429 50.9662 127.42C53.3744 127.42 55.9013 127.299 58.4972 127.072C59.7912 126.959 61.0968 126.828 62.4244 126.655C70.187 125.771 77.7623 123.671 84.8727 120.433C85.1698 120.288 85.4577 120.14 85.7433 119.991C87.0925 119.302 88.3886 118.513 89.621 117.631C90.3908 117.078 91.1178 116.466 91.7957 115.803C92.0873 115.514 92.352 115.219 92.6037 114.92L92.978 117.836C92.7404 117.939 92.5082 118.054 92.2823 118.181C91.3438 118.718 90.5516 119.478 89.9755 120.394C89.8323 120.614 89.7045 120.843 89.5931 121.081H89.5932C89.1452 122.025 88.8988 123.052 88.8697 124.096C88.8712 124.358 88.8945 124.619 88.9393 124.876C88.172 125.409 87.3776 125.901 86.5593 126.352C84.0105 127.732 81.3415 128.878 78.5852 129.775C73.598 131.405 68.4664 132.553 63.2604 133.204C61.9322 133.376 60.6272 133.507 59.3349 133.618L59.3349 133.618ZM112.459 161.482C95.7831 161.477 82.2299 155.527 72.8018 145.948C69.7589 142.846 67.136 139.359 65.0005 135.575C65.5984 135.488 66.2024 135.407 66.7902 135.31C76.6284 147.018 93.21 154.642 114.321 155.406C115.665 155.455 116.989 155.479 118.293 155.479C131.323 155.479 142.337 153.015 150.613 147.401C141.27 156.121 128.272 161.477 112.459 161.482Z"/></g></g></svg>