<svg xmlns="http://www.w3.org/2000/svg" width="200" height="200" fill="none"><g fill="#FFD93A"><path d="m40.042 57.98 1.142 8.924.014.111-3.745.738 1.143 8.93.014.105c-.429.056 1.24.082 1.24.082l1.143 8.928.014.107c-.077.01-.155.018-.232.027a77.37 77.37 0 0 0 2.382-.056L44.3 94.8c.26-.024.523-.053.784-.08 1.975-.007 3.199-.062 3.199-.062l1.14 8.916a96.04 96.04 0 0 0 3.526-.389c.239-.031.474-.066.712-.098 1.186-.019 1.88-.05 1.88-.05l1.14 8.901c1.29-.113 2.6-.251 3.926-.423 1.13-.146 7.862-.957 8.956-1.14l-1.988 2.651-16.623 3.367 1.14 8.916.016.119c-2.46.32 6.259.622 6.259.622l1.139 8.901a92.98 92.98 0 0 0 3.474-.368c8.742 16.807 26.241 28.199 49.48 28.199 33.973 0 55.69-24.338 55.69-54.361a65.55 65.55 0 0 0-1.351-13.29 42.274 42.274 0 0 0 6.401-15.155c5.128-24.497-9.084-50.348-43.013-57.45-23.263-4.87-41.568 2.055-52.432 14.784l-.658-5.13c-.41 3.065-3.522 5.625-3.522 5.625L49.179 23.929s3.113-1.155-6.134.046a80.861 80.861 0 0 0-17.519 4.175 31.561 31.561 0 0 1 3.452-.628l30.14 16.646-16.622 3.367 1.14 8.916.048-.005-.032.124c-1.144.15-2.303.236-3.46.277l-.15 1.133ZM20.05 65.039l-1.07-8.36c-5.195-.934-8.94-2.87-9.378-6.438-.167-1.354-.439-1.677-.238-.115l.451 3.52.724 5.642s1.812 6.289 9.51 5.75Zm67.733 37.29-.147.077-3.772 1.963-1.071-8.35 3.849-2.588 1.136 8.862.005.036Zm1.995-17.94c.653.947.925 2.105.76 3.243-.409 3.065-3.522 5.625-3.522 5.625l-4.02-2.287a5.142 5.142 0 0 0 .938-3.462l-.898-7c2.992.798 5.492 2.02 6.742 3.882ZM82.12 76.06c.653.946.925 2.104.761 3.242-.41 3.065-3.522 5.626-3.522 5.626l-2.667-1.517a5.95 5.95 0 0 0 1.857-4.653l-.742-5.79a9.117 9.117 0 0 1 4.313 3.092Zm-7.38 9.19-.146.076-3.772 1.963-1.071-8.35 3.848-2.587 1.137 8.86.005.037Zm-7.366-6.95-1.07-8.35 3.848-2.587 1.136 8.861.005.037-.147.077-3.772 1.963ZM73.2 37.98l1.136 8.86.005.037-.146.076-3.773 1.964-1.07-8.35 3.848-2.588Zm-2.593 11.26 1.035 8.074.005.037-.146.076-3.773 1.964-1.063-8.285a43.328 43.328 0 0 0 3.942-1.866Zm-2.742 10.5.946 7.377.005.037-.147.077-3.772 1.963-.974-7.594a43.472 43.472 0 0 0 3.942-1.86Zm8.343 36.3-1.07-8.35 3.848-2.588 1.136 8.86.005.038-.147.076-3.772 1.964Zm9.782 7.516c1.22.317 2.403.759 3.533 1.318.473.238.928.51 1.361.814a6.791 6.791 0 0 1 1.722 1.715c.653.947.925 2.105.76 3.243-.409 3.065-3.522 5.625-3.522 5.625l-4.793-2.727a5.683 5.683 0 0 0 1.553-4.301l-.72-5.622.106-.065Zm-3.194 12.179-.147.076-3.772 1.963-1.071-8.35 3.848-2.587 1.137 8.861.005.037Zm15.549 9.278c1.815 1.603 1.082 5.399-1.637 8.479-2.72 3.08-6.395 4.278-8.21 2.675a3.058 3.058 0 0 1-.963-1.994 11.39 11.39 0 0 1-2.04 2.027c-2.644 1.923-5.356 1.624-6.992.05-.761.442-1.564.808-2.398 1.09-3.347 1.099-5.338-1.183-5.499-4.035a79.813 79.813 0 0 0 6.427-1.637 59.39 59.39 0 0 0 7.02-2.579c2.547-1.136 2.639-1.707 2.639-1.707l-1.071-8.35 3.848-2.587.845 6.588a7.56 7.56 0 0 1 .47-1.427 5.546 5.546 0 0 1 3.616-2.908s1.683-1.392 2.273-.182a3.421 3.421 0 0 1 2.428 1.41c1.206 1.76.44 3.62-.845 5.022.029.023.06.041.089.065ZM37.38 125.334c2.261.232-6.42-1.883-6.42-1.883l-1.08-8.434c-5.065-.951-8.698-2.882-9.129-6.393-.166-1.354-.438-1.677-.238-.114l1.176 9.161c.33 2.578 3.044 4.643 7.355 6.03l.46 3.579c.616 4.802 8.871 5.829 8.871 5.829l-.995-7.775ZM24.738 101.371c.52.211 1.066.411 1.645.597l.295 2.298c.616 4.803 8.872 5.829 8.872 5.829l-.831-6.495c-2.303-.704-6.428-1.884-6.428-1.884l-.909-7.104c-2.257-.924-4.216-1.678-4.216-1.678l-.97-7.583c-1.592-.955-2.336-1.422-2.336-1.422l-1.004-7.848c-1.085-.956-1.393-1.27-1.393-1.27l-1.06-8.283c-5.327-.916-9.186-2.858-9.632-6.484-.166-1.354-.438-1.677-.237-.115l1.175 9.162a5.073 5.073 0 0 0 1.7 3.03l.78 6.077a5.81 5.81 0 0 0 2.795 3.906l.652 5.082c.262 2.048 2.037 3.77 4.914 5.088l.47 3.662c.287 2.233 2.367 4.079 5.718 5.435ZM12.602 43.886l.632 4.928c.64 4.982 9.272 5.78 9.272 5.78l-1.08-8.434c-5.065-.952-8.698-2.882-9.13-6.393-.165-1.354-.437-1.677-.237-.115l.543 4.234Z"/></g><g fill="#191C22"><path d="M137.661 86.565c5.035 1.088 9.777-13.438 2.873-14.883-6.827-1.43-8.443 13.678-2.873 14.883ZM97.594 78.167c4.704 1.286 8.857-13.889 2.27-14.986-6.513-1.086-8.09 13.395-2.27 14.986ZM108.405 84.097a10.503 10.503 0 0 0 4.259 4.607 10.735 10.735 0 0 0 5.282 1.34c1.46.002 2.907-.267 4.268-.793a8.022 8.022 0 0 0 3.173-2.125 1.304 1.304 0 0 0-.141-1.833 1.3 1.3 0 0 0-1.833.142 5.501 5.501 0 0 1-2.148 1.395 9.216 9.216 0 0 1-3.319.615 8.143 8.143 0 0 1-4.006-1.006 7.897 7.897 0 0 1-3.205-3.495 1.314 1.314 0 0 0-.749-.657 1.303 1.303 0 0 0-1.65.816 1.304 1.304 0 0 0 .069.994Z"/><path d="M190.211 109.464h-.004c-.798.116-1.603.176-2.41.179l-.113-1.673a22.882 22.882 0 0 0 2.802-.28 1.303 1.303 0 0 0 1.043-1.513 1.303 1.303 0 0 0-1.511-1.045l-.008.002a20.77 20.77 0 0 1-2.502.241l-.112-1.651c1.674-.133 2.885-.363 2.918-.369a1.297 1.297 0 0 0 1.03-1.521 1.298 1.298 0 0 0-1.519-1.033l-.06.011a28.635 28.635 0 0 1-3.457.378c-.015 0-.027.009-.042.01a12.711 12.711 0 0 1-3.754-.573 22.904 22.904 0 0 1-5.482-2.706 93.98 93.98 0 0 1-2.153-1.416 33.207 33.207 0 0 0 9.353-3.453 20.048 20.048 0 0 0 6.04-5.003 11.002 11.002 0 0 0 2.219-9.623 7.743 7.743 0 0 0-2.499-4.351 6.635 6.635 0 0 0-4.296-1.433 13.514 13.514 0 0 0-5.749 1.514 26.852 26.852 0 0 0-4.964 3.19c.353-2.358.533-4.74.537-7.124.004-4.99-.797-9.95-2.37-14.685-.005-.087-.013-.133-.017-.168a2.636 2.636 0 0 0-.068-.277 19.772 19.772 0 0 0-.686-1.873 37.536 37.536 0 0 0-1.002-2.198 46.569 46.569 0 0 0-7.15-11.158 50.46 50.46 0 0 0-7.947-7.392 8.39 8.39 0 0 1 .933-2.487c.309-.55.726-1.03 1.226-1.415a4.457 4.457 0 1 0-1.224-2.297c-.108.07-.224.13-.325.205a8.109 8.109 0 0 0-2.573 3.529c-.123.307-.222.593-.302.851a66.071 66.071 0 0 0-23.56-9.603 72.152 72.152 0 0 0-14.787-1.594 59.974 59.974 0 0 0-8.656.623 10.697 10.697 0 0 0-1.081-2.823 10.065 10.065 0 0 0-2.76-3.114 4.478 4.478 0 1 0-1.128 2.423 7.533 7.533 0 0 1 1.622 1.967 7.88 7.88 0 0 1 .776 1.98 49.816 49.816 0 0 0-17.352 6.802c-.065.04-.134.08-.198.12a43.352 43.352 0 0 0-8.225 6.55l-.4-3.124v-.006h-.001l-.001-.007-.022-.173c-.003-.023-.018-.04-.022-.064a6.675 6.675 0 0 0-2.438-3.92 20.627 20.627 0 0 0-8.62-3.712 59.217 59.217 0 0 0-12.825-1.261c-3.831.01-7.658.264-11.456.764a74.528 74.528 0 0 0-22.45 6.223 26.35 26.35 0 0 0-6.923 4.63 10.833 10.833 0 0 0-2.016 2.647 6.341 6.341 0 0 0-.765 2.934c0 .234.015.467.044.698l.002.01.484 3.771c-.15.137-.302.274-.442.413a10.83 10.83 0 0 0-2.017 2.648 6.342 6.342 0 0 0-.765 2.934c0 .234.015.467.045.7v.001l.393 3.065c-.166.151-.332.302-.487.456a10.831 10.831 0 0 0-2.017 2.647 6.341 6.341 0 0 0-.765 2.934c0 .234.015.467.045.699v.002l1.17 9.123a6.187 6.187 0 0 0 1.757 3.476l.722 5.631a6.58 6.58 0 0 0 2.483 4.164c.121.101.256.195.384.292l.582 4.533a6.58 6.58 0 0 0 2.482 4.163c.777.635 1.623 1.18 2.522 1.626l.38 2.96a6.583 6.583 0 0 0 2.482 4.165 13.207 13.207 0 0 0 2.4 1.559c-.225.2-.441.402-.648.606a10.807 10.807 0 0 0-2.016 2.648 6.337 6.337 0 0 0-.765 2.934c0 .234.015.467.044.698v.002l1.171 9.124a6.58 6.58 0 0 0 2.483 4.164c.38.31.777.597 1.192.859-.006.009-.013.016-.02.024a4.556 4.556 0 0 0-.831 2.603 5.07 5.07 0 0 0 .493 2.13 8.003 8.003 0 0 0 1.862 2.47c.54.498 1.132.935 1.766 1.304a22.335 22.335 0 0 0 3.471 5.161 6.016 6.016 0 0 0 4.498 2.193 5.512 5.512 0 0 0 2.108-.434c.182.157.365.304.548.438a7.71 7.71 0 0 0 4.524 1.592 5.977 5.977 0 0 0 3.1-.854c.681.363 1.392.669 2.125.916.657.223 1.345.34 2.038.346a4.922 4.922 0 0 0 2.241-.52 5.083 5.083 0 0 0 2.227-2.3 6.54 6.54 0 0 0 .497-1.39 90.878 90.878 0 0 0 7.52-.566 52.28 52.28 0 0 0 8.711 11.834c.383.39.784.762 1.18 1.14a62.757 62.757 0 0 0-1.269 7.209 9.385 9.385 0 0 0-3.282 1.048 11.83 11.83 0 0 0-4.552 4.712 22.246 22.246 0 0 0-2.24 6.045 36.12 36.12 0 0 0-.939 7.715 18.207 18.207 0 0 0 .852 5.821 10.035 10.035 0 0 0 3.31 4.818 14.5 14.5 0 0 0 8.787 2.862c1.66.014 3.308-.28 4.861-.867a8.883 8.883 0 0 0 3.806-2.718 15.933 15.933 0 0 0 2.583-5.565c.552-2.021.839-4.105.856-6.2a14.556 14.556 0 0 0-.216-2.618 6.599 6.599 0 0 0-.75-2.168c-.148-.248-.326-.46-.49-.688.03-.099.05-.202.055-.306a19.047 19.047 0 0 0-.655-4.902 9.038 9.038 0 0 0-3.478-5.11 9.315 9.315 0 0 0-1.58-.863 60.09 60.09 0 0 1 .46-3.219c9.17 6.405 20.779 10.169 34.212 10.165a62.428 62.428 0 0 0 23.684-4.438 531.995 531.995 0 0 1-.354 4.478 12.572 12.572 0 0 0-3.93 1.02 9.073 9.073 0 0 0-3.566 3.321 28.911 28.911 0 0 0-3.514 8.004 31.69 31.69 0 0 0-1.323 8.26c0 .104.001.206.003.306a10.434 10.434 0 0 0 3.864 8.019 14.106 14.106 0 0 0 8.983 2.965l.012-.001h.017a13.438 13.438 0 0 0 4.538-.72 10.014 10.014 0 0 0 5.293-4.373 19.365 19.365 0 0 0 2.389-8.674c.018-.246.027-.487.027-.723a8.042 8.042 0 0 0-.987-3.912c.009-.032.031-.058.037-.092a13.14 13.14 0 0 0 .147-2.087 13.918 13.918 0 0 0-1.711-6.884 8.3 8.3 0 0 0-3.362-3.137c.203-2.405.468-5.738.712-9.378a52.087 52.087 0 0 0 10.553-8.265 54.017 54.017 0 0 0 14.502-28.431 58.503 58.503 0 0 0 3.3 3.211 34.556 34.556 0 0 0 5.049 3.77 27.64 27.64 0 0 0 5.689 2.615c1.218.508 2.478.91 3.766 1.201a1.291 1.291 0 0 0 .976-.193 1.305 1.305 0 0 0 .554-1.334 1.29 1.29 0 0 0-.552-.828 1.31 1.31 0 0 0-.469-.195l-.009-.002a20 20 0 0 1-2.896-.898l.471-1.56c.942.32 1.901.585 2.873.794a1.299 1.299 0 0 0 .5-2.551l-.011-.003a23.596 23.596 0 0 1-2.61-.73l.476-1.579c1.47.43 2.564.642 2.592.648a1.286 1.286 0 0 0 1.331-.561 1.308 1.308 0 0 0 .189-.977 1.305 1.305 0 0 0-1.028-1.015l-.066-.013a30.38 30.38 0 0 1-3.531-.97c-.013-.005-.027-.002-.04-.006a17.678 17.678 0 0 1-3.674-2.018 43.786 43.786 0 0 1-6.773-6.385l-1.032-1.127c.86.478 1.751.946 2.715 1.375a24.503 24.503 0 0 0 9.895 2.188c.508.034.992.049 1.438.049a19.392 19.392 0 0 0 3.063-.222 1.297 1.297 0 0 0 1.047-1.503 1.302 1.302 0 0 0-1.495-1.058v.001ZM82.129 171.646c.121.708.179 1.426.172 2.145a21.732 21.732 0 0 1-.764 5.517 13.456 13.456 0 0 1-2.12 4.643 6.293 6.293 0 0 1-2.707 1.901 10.83 10.83 0 0 1-3.915.689 11.928 11.928 0 0 1-7.195-2.317 7.438 7.438 0 0 1-2.44-3.6 15.658 15.658 0 0 1-.714-4.984c.016-1.661.169-3.318.456-4.955a41.16 41.16 0 0 1 .42-2.192 17.489 17.489 0 0 1 2.966-6.839 8.168 8.168 0 0 1 2.526-2.198 6.73 6.73 0 0 1 1.774-.647l-.012.171a3.495 3.495 0 0 0-.555.566 19.395 19.395 0 0 0-3.073 6.283 8.283 8.283 0 0 0-1.24.872 1.288 1.288 0 0 0-.173 1.739c.022.03.03.067.055.096a1.299 1.299 0 0 0 1.835.118 7.872 7.872 0 0 1 2.756-1.434 13.1 13.1 0 0 1 3.901-.592c1.51-.021 3.007.278 4.393.877a7.045 7.045 0 0 1 3.226 2.831c.215.41.36.852.428 1.31Zm-2.388-9.361c.524 1.096.856 2.274.98 3.482a10.261 10.261 0 0 0-1.172-.63 11.735 11.735 0 0 0-1.628-.58 97.616 97.616 0 0 0-.442-4.015c.014-.215.031-.422.047-.633a5.769 5.769 0 0 1 2.215 2.376Zm66.221 19.773a20.527 20.527 0 0 1-1.093 5.565 8.534 8.534 0 0 1-3.362 4.493 9.479 9.479 0 0 1-5.172 1.301h-.025a11.52 11.52 0 0 1-7.336-2.374 7.803 7.803 0 0 1-2.915-6.059l-.003-.257a30.804 30.804 0 0 1 1.64-8.903c.148-.447.304-.888.468-1.321a22.458 22.458 0 0 1 2.281-4.581 6.647 6.647 0 0 1 2.477-2.408 9.626 9.626 0 0 1 1.646-.546 20.11 20.11 0 0 0-1.202 2.519 35.879 35.879 0 0 0-1.072 3.149 7.782 7.782 0 0 0-1.787.682 1.3 1.3 0 1 0 1.28 2.263 6.021 6.021 0 0 1 1.725-.584 12.985 12.985 0 0 1 2.511-.23c2.386-.035 4.741.54 6.843 1.67a6.69 6.69 0 0 1 2.268 2.084c.573.896.868 1.942.848 3.006 0 .172-.006.349-.02.531Zm-2.147-12.21a11.08 11.08 0 0 1 1.352 5.004 11.856 11.856 0 0 0-2.473-1.395 67.589 67.589 0 0 0-.291-4.582l.049-.547c.549.414 1.011.93 1.363 1.52Zm-53.651-42.654c.356.334.764.607 1.208.81a5.875 5.875 0 0 0 2.099.495 21.247 21.247 0 0 1-2.002 2.634 3.138 3.138 0 0 1-2.494 1.319 3.141 3.141 0 0 1-2.543-1.22 4.608 4.608 0 0 1-.864-1.456c.155-.073.324-.143.475-.217a33.686 33.686 0 0 0 4.12-2.365ZM75.76 106.762a82.217 82.217 0 0 1-15.326 3.428 89.729 89.729 0 0 1-3.925.414c-2.484.214-4.9.328-7.196.328-4.67.079-9.332-.46-13.86-1.602a25.88 25.88 0 0 1-1.528-.475 13.922 13.922 0 0 1-4.383-2.285 4 4 0 0 1-1.579-2.505l-.044-.348c.3.076.599.153.91.224 1.996.441 4.019.757 6.055.947 2.127.207 4.394.314 6.77.314a89.574 89.574 0 0 0 11.457-.763 94.526 94.526 0 0 0 2.561-.379l.02-.002a95.016 95.016 0 0 0 3.906-.415 74.53 74.53 0 0 0 22.45-6.224c.296-.145.584-.293.87-.441a30.629 30.629 0 0 0 3.877-2.36 18.867 18.867 0 0 0 2.175-1.829c.292-.289.556-.584.808-.883l.52 4.061c.016.122.024.244.024.367a3.747 3.747 0 0 1-.472 1.734 9.445 9.445 0 0 1-2.27 2.671c-.35.301-.731.602-1.145.903a26.4 26.4 0 0 1-2.702 1.697 47.844 47.844 0 0 1-7.973 3.423Zm8.352-15.158c.14-.22.27-.44.387-.665a6.34 6.34 0 0 0 .765-2.935 5.48 5.48 0 0 0-.044-.696l-.602-4.693c1.055.43 2.042 1.01 2.932 1.72a4.005 4.005 0 0 1 1.578 2.502l.001.01c.015.12.023.24.023.36a3.748 3.748 0 0 1-.472 1.735 10.932 10.932 0 0 1-3.227 3.425c-.066.05-.12.1-.188.149a30.407 30.407 0 0 1-4.793 2.773c.71-.52 1.382-1.089 2.01-1.703a11.678 11.678 0 0 0 1.63-1.982Zm3.056 21.069a6.341 6.341 0 0 0 .765-2.934c0-.233-.014-.466-.044-.697l-.437-3.41a11.908 11.908 0 0 1 2.923 1.717 4.006 4.006 0 0 1 1.578 2.503l.001.008a2.9 2.9 0 0 1 .023.362 3.75 3.75 0 0 1-.471 1.734 10.937 10.937 0 0 1-3.227 3.425c-.066.049-.12.099-.189.149a40.419 40.419 0 0 1-10.675 5.119c-.882.295-1.801.576-2.74.847a50.507 50.507 0 0 0 3.554-1.545 26.354 26.354 0 0 0 6.923-4.631 12.82 12.82 0 0 0 1.02-1.139c.379-.47.713-.975.996-1.508Zm78.756 6.142c-6.689 14.34-19.637 23.977-45.027 23.977-1.464 0-2.97-.032-4.517-.097a80.345 80.345 0 0 1-24.462-4.686 8.85 8.85 0 0 0 2.328-.874c.452-.252.887-.533 1.303-.842a65.541 65.541 0 0 0 9.121 1.72 87.15 87.15 0 0 0 10.238.63 53.593 53.593 0 0 0 6.281-.335l.003-.001.022-.002c.092-.011.176-.042.265-.06.136-.023.271-.054.404-.092a3.68 3.68 0 0 0 .359-.157c.088-.041.179-.072.263-.119.151-.089.295-.19.431-.3.039-.031.083-.054.121-.087a3.488 3.488 0 0 0 1.093-1.709c.021-.073.025-.151.041-.225a3.37 3.37 0 0 0 .078-.447 3.51 3.51 0 0 0-.167-1.38 3.474 3.474 0 0 0-.181-.41c-.033-.07-.056-.145-.095-.213a3.501 3.501 0 0 0-1.469-1.399c-.046-.023-.096-.036-.143-.057a3.519 3.519 0 0 0-.485-.187c-.096-.027-.196-.035-.294-.054a3.413 3.413 0 0 0-.377-.065 3.413 3.413 0 0 0-.429.008c-.084.003-.166-.006-.251.004l-.001-.001s-.079.009-.24.024c-.482.044-1.663.132-3.302.132a44.4 44.4 0 0 1-11.287-1.423 32.237 32.237 0 0 1-4.955-1.765c.03-.254.046-.51.048-.765a5.338 5.338 0 0 0-.332-1.909 4.213 4.213 0 0 0-.377-.727c.094-.137.173-.286.259-.431a77.757 77.757 0 0 0 21.348 2.892c19.08 0 32.97-5.054 41.498-13.881.376.384.757.783 1.144 1.197.662.707 1.344 1.458 2.049 2.231a58.27 58.27 0 0 1-.306 1.885Zm-69.035 8.87c.38-.219.745-.463 1.092-.731.04.198.06.401.06.604a6.139 6.139 0 0 1-.567 2.388 10.403 10.403 0 0 1-1.742 2.686 10.213 10.213 0 0 1-2.726 2.218 5.336 5.336 0 0 1-2.441.728 1.751 1.751 0 0 1-1.208-.386 1.364 1.364 0 0 1-.138-.156 6.064 6.064 0 0 0 4.193-2.176 22.325 22.325 0 0 0 3.477-5.175Zm-.912-7.92a3.08 3.08 0 0 1 1.246.24c.325.139.605.366.805.657.241.329.373.725.376 1.132a2.49 2.49 0 0 1-.253 1.04 5.468 5.468 0 0 1-1.265 1.65 7.22 7.22 0 0 1-1.688 1.169 3.246 3.246 0 0 1-1.347.264 3.086 3.086 0 0 1-1.746-.477 1.44 1.44 0 0 1-.455-.51 1.763 1.763 0 0 1-.18-.834 4.984 4.984 0 0 1 .502-1.964l-1.19-.526 1.19.525a3.82 3.82 0 0 1 1.614-1.701 4.905 4.905 0 0 1 2.391-.665ZM84.49 132.96c.4.45.86.843 1.367 1.167-.343.375-.72.717-1.127 1.021a5.126 5.126 0 0 1-2.995 1.095 3.325 3.325 0 0 1-2.443-1.023 3.915 3.915 0 0 1-1.008-2.621 60.478 60.478 0 0 0 4.903-1.772 7.186 7.186 0 0 0 1.303 2.133Zm-7.97 2.833c-.285.121-.56.227-.82.312a3.98 3.98 0 0 1-1.228.216 2.301 2.301 0 0 1-1.065-.239 2.486 2.486 0 0 1-1.08-1.146 3.86 3.86 0 0 1-.249-.669 80.83 80.83 0 0 0 3.654-.91c.102.856.37 1.683.788 2.436Zm99.2-55.693a25.36 25.36 0 0 1 5.357-3.603 10.997 10.997 0 0 1 4.618-1.255 4.03 4.03 0 0 1 2.648.844 5.175 5.175 0 0 1 1.617 2.937 8.418 8.418 0 0 1-1.745 7.434 20.58 20.58 0 0 1-8.673 5.95 31.89 31.89 0 0 1-7.073 1.89c.44-2.623.659-5.278.655-7.938 0-.357-.017-.716-.025-1.074.411-1.23.77-2.484 1.077-3.764a33.001 33.001 0 0 1 1.544-1.421ZM78.713 43.816a6.34 6.34 0 0 0 .765-2.934c0-.233-.014-.466-.044-.697l-.316-2.462a43.199 43.199 0 0 1 3.408-3.466c3.938-3.268 8.027-4.804 11.745-4.801a12.9 12.9 0 0 1 8.131 2.853 16.93 16.93 0 0 1 4.078 4.974c1.659 2.845 2.941 6.132 5.132 9.071a16.462 16.462 0 0 0 4.156 3.968 18.235 18.235 0 0 0 6.38 2.55c1.18.25 2.382.377 3.588.38a18.549 18.549 0 0 0 7.778-1.812c3.529-1.61 6.623-3.93 9.782-5.785 3.164-1.863 6.328-3.252 10.036-3.253.272 0 .549.008.83.024a16.988 16.988 0 0 1 9.819 3.709 20.522 20.522 0 0 1 5.882 7.974 43.754 43.754 0 0 1 3.055 16.113 46.33 46.33 0 0 1-.991 9.488 40.541 40.541 0 0 1-15.479 24.403c-7.943 5.962-18.407 9.455-30.57 9.457a70.451 70.451 0 0 1-14.426-1.548 65.261 65.261 0 0 1-22.503-9.043c.425-.348.826-.702 1.192-1.063a10.856 10.856 0 0 0 2.016-2.647 6.341 6.341 0 0 0 .765-2.935c0-.233-.015-.466-.045-.698l-1.169-9.12v-.005l-.002-.006-.022-.174c-.003-.024-.018-.042-.022-.065a6.674 6.674 0 0 0-2.438-3.92 16.174 16.174 0 0 0-4.983-2.67l-.191-1.489v-.006h-.001v-.001l-.001-.007-.022-.173c-.003-.023-.018-.04-.022-.064a6.674 6.674 0 0 0-2.438-3.92 13.344 13.344 0 0 0-2.521-1.625l-.403-3.14c-.003-.026-.019-.046-.024-.07a6.675 6.675 0 0 0-2.436-3.915c-.121-.1-.256-.194-.383-.292l-.581-4.526v-.006h-.001l-.001-.007-.022-.173c-.003-.023-.018-.041-.022-.064a6.136 6.136 0 0 0-1.474-2.976c.101-.095.208-.189.305-.284a10.827 10.827 0 0 0 2.016-2.647 6.34 6.34 0 0 0 .765-2.935c0-.233-.015-.466-.044-.697l-.485-3.783c.15-.137.301-.274.442-.413a10.826 10.826 0 0 0 2.016-2.647ZM8.995 68.89l-.522-4.063a22.398 22.398 0 0 0 7.873 3.144c.08.018.167.033.248.051a59.649 59.649 0 0 0 12.578 1.21c2.683 0 5.506-.137 8.418-.42a97.498 97.498 0 0 0 3.04-.344 93.609 93.609 0 0 0 5.667-.923 78.083 78.083 0 0 0 17.79-4.655 49.41 49.41 0 0 0 2.993-1.321c.326-.16.644-.323.957-.486a32.08 32.08 0 0 0 3.095-1.832l.198 1.542c.016.122.023.244.023.367a3.746 3.746 0 0 1-.471 1.734 9.445 9.445 0 0 1-2.27 2.671c-.35.301-.732.602-1.146.903a26.41 26.41 0 0 1-2.701 1.697 47.796 47.796 0 0 1-7.974 3.423 82.198 82.198 0 0 1-15.325 3.428 87.561 87.561 0 0 1-3.04.341 84.8 84.8 0 0 1-8.084.401 54.977 54.977 0 0 1-12.933-1.369 28.581 28.581 0 0 1-2.453-.708 13.926 13.926 0 0 1-4.383-2.285 4.001 4.001 0 0 1-1.578-2.506Zm10.183-10.722a59.221 59.221 0 0 0 12.826 1.26c2.607 0 5.348-.132 8.172-.399a94.678 94.678 0 0 0 3.284-.364 81.058 81.058 0 0 0 18.44-4.497 61.344 61.344 0 0 0 4.93-1.772 49.255 49.255 0 0 0 2.944-1.302c.342-.168.677-.338 1.004-.51a31.796 31.796 0 0 0 3.095-1.84l.288 2.246c.016.122.023.245.023.367a3.749 3.749 0 0 1-.471 1.734 9.452 9.452 0 0 1-2.27 2.671c-.35.301-.732.602-1.146.903a26.427 26.427 0 0 1-2.701 1.696 47.805 47.805 0 0 1-7.974 3.424 82.207 82.207 0 0 1-15.325 3.428c-1.108.143-2.2.26-3.283.36a84.684 84.684 0 0 1-7.84.382 54.406 54.406 0 0 1-13.19-1.433 28.199 28.199 0 0 1-2.197-.644 13.93 13.93 0 0 1-4.383-2.285 4.001 4.001 0 0 1-1.578-2.505l-.522-4.064a22.39 22.39 0 0 0 7.868 3.142l.006.002Zm59.937 24.021a6.341 6.341 0 0 0 .765-2.934c0-.233-.015-.467-.045-.698l-.367-2.864c.142.105.298.208.424.314a4.004 4.004 0 0 1 1.578 2.502v.008c.016.12.023.24.024.362a3.748 3.748 0 0 1-.472 1.734 10.787 10.787 0 0 1-3.11 3.334c.463-.54.867-1.13 1.203-1.758Zm-2.78-45.734.52 4.06c.016.123.023.245.023.368a3.748 3.748 0 0 1-.471 1.734 9.45 9.45 0 0 1-2.27 2.67c-.35.302-.732.603-1.146.904a26.47 26.47 0 0 1-2.701 1.696 47.803 47.803 0 0 1-7.974 3.423 82.225 82.225 0 0 1-15.325 3.428c-1.19.155-2.362.276-3.524.381a84.52 84.52 0 0 1-7.6.362 53.857 53.857 0 0 1-13.44-1.497c-.682-.18-1.341-.37-1.947-.58a13.932 13.932 0 0 1-4.383-2.285 4.001 4.001 0 0 1-1.578-2.505l-.521-4.065a22.072 22.072 0 0 0 7.617 3.081c.087.02.169.043.256.063a59.21 59.21 0 0 0 12.826 1.262c2.533 0 5.194-.13 7.932-.38a94.56 94.56 0 0 0 3.526-.385 74.537 74.537 0 0 0 22.448-6.221c.297-.146.585-.294.87-.442a30.632 30.632 0 0 0 3.879-2.36 18.882 18.882 0 0 0 2.174-1.828c.292-.29.556-.585.808-.884Zm-62.539.931a11.152 11.152 0 0 1 3.416-3.574 40.432 40.432 0 0 1 10.675-5.12 67.546 67.546 0 0 1 2.044-.643 84.48 84.48 0 0 1 13.282-2.784c2.467-.32 4.87-.522 7.198-.635a81.586 81.586 0 0 1 3.924-.108c5.207-.128 10.4.573 15.387 2.077a13.93 13.93 0 0 1 4.384 2.285 4.006 4.006 0 0 1 1.578 2.503v.009c.016.12.024.24.024.36a3.746 3.746 0 0 1-.472 1.735 10.93 10.93 0 0 1-3.226 3.425c-.067.05-.12.1-.19.149a40.431 40.431 0 0 1-10.675 5.12c-1.158.387-2.37.754-3.626 1.1A86.175 86.175 0 0 1 45.82 45.61a86.871 86.871 0 0 1-11.123.743 49.112 49.112 0 0 1-15.387-2.078 13.926 13.926 0 0 1-4.383-2.285 4.003 4.003 0 0 1-1.577-2.5v-.002l-.002-.003a2.841 2.841 0 0 1-.023-.366 3.746 3.746 0 0 1 .471-1.735ZM11.103 47.86a6.49 6.49 0 0 1 .582-.907l.255 1.992a6.58 6.58 0 0 0 2.483 4.163c.997.804 2.097 1.47 3.272 1.98-.368-.11-.737-.218-1.079-.336a13.929 13.929 0 0 1-4.383-2.285 4.001 4.001 0 0 1-1.578-2.505 2.855 2.855 0 0 1-.024-.368 3.748 3.748 0 0 1 .472-1.734ZM8.27 57.662c.181-.337.391-.658.628-.96l.348 2.715a6.58 6.58 0 0 0 2.483 4.164c.133.112.282.216.425.324a11.707 11.707 0 0 1-2.753-1.636 4.001 4.001 0 0 1-1.578-2.506 2.856 2.856 0 0 1-.024-.367 3.747 3.747 0 0 1 .471-1.734Zm3.202 20.335-.407-3.179a25.696 25.696 0 0 0 6.45 2.278c.49.11.995.212 1.51.31 3.735.661 7.523.98 11.317.951.392 0 .798-.014 1.196-.02l.113.001c2.657 0 5.452-.136 8.334-.413 1.03-.1 2.072-.216 3.123-.35a74.534 74.534 0 0 0 22.448-6.223c.297-.146.585-.294.87-.442a30.607 30.607 0 0 0 3.879-2.36 18.884 18.884 0 0 0 2.174-1.828c.292-.29.556-.585.808-.884l.521 4.06c.016.122.023.245.023.367A3.75 3.75 0 0 1 73.361 72a9.45 9.45 0 0 1-2.27 2.67c-.35.302-.732.603-1.146.904a26.422 26.422 0 0 1-2.701 1.696 47.799 47.799 0 0 1-7.974 3.424 82.203 82.203 0 0 1-15.325 3.428c-1.052.136-2.092.25-3.122.348a84.765 84.765 0 0 1-8 .394 54.793 54.793 0 0 1-13.02-1.39c-.839-.21-1.64-.435-2.368-.687a13.932 13.932 0 0 1-4.383-2.285 4.001 4.001 0 0 1-1.579-2.505ZM16.5 89.49a4.002 4.002 0 0 1-1.578-2.505l-.325-2.538a28.163 28.163 0 0 0 5.4 1.756c.758.171 1.553.321 2.369.458 3.458.555 6.956.823 10.458.803 2.038 0 4.163-.088 6.339-.25a90.284 90.284 0 0 0 7.394-.651 74.55 74.55 0 0 0 22.449-6.223c.297-.146.585-.294.87-.442a30.618 30.618 0 0 0 3.878-2.36 18.847 18.847 0 0 0 2.174-1.828c.292-.29.557-.585.809-.884l.52 4.06c.016.123.024.245.024.368a3.746 3.746 0 0 1-.472 1.734 9.447 9.447 0 0 1-2.27 2.671c-.35.301-.731.602-1.145.903a26.448 26.448 0 0 1-2.702 1.697 47.81 47.81 0 0 1-7.973 3.423 82.225 82.225 0 0 1-15.326 3.428c-1.1.143-2.186.259-3.263.36-2.72.254-5.358.382-7.859.382a54.459 54.459 0 0 1-13.168-1.428c-.783-.2-1.535-.412-2.22-.649A13.927 13.927 0 0 1 16.5 89.49Zm5.385 8.75a4.002 4.002 0 0 1-1.579-2.505l-.19-1.482a33.08 33.08 0 0 0 3.33.938c1.282.29 2.657.529 4.104.72 2.892.37 5.806.552 8.721.541a88.481 88.481 0 0 0 9.623-.555c.831-.053 1.674-.123 2.522-.2a94.265 94.265 0 0 0 3.525-.384 74.536 74.536 0 0 0 22.449-6.223c.297-.146.585-.294.871-.442a30.635 30.635 0 0 0 3.878-2.36 18.881 18.881 0 0 0 2.174-1.828c.292-.29.556-.585.808-.884l.521 4.062c.016.121.023.244.023.366a3.747 3.747 0 0 1-.471 1.734 9.445 9.445 0 0 1-2.27 2.672c-.35.3-.732.601-1.146.902a26.46 26.46 0 0 1-2.701 1.696 47.79 47.79 0 0 1-7.974 3.424 82.209 82.209 0 0 1-15.326 3.428c-1.19.155-2.362.276-3.523.381a84.647 84.647 0 0 1-7.599.361 53.838 53.838 0 0 1-13.44-1.497c-.683-.18-1.342-.37-1.947-.58a13.924 13.924 0 0 1-4.383-2.285Zm.367 8.003a10.587 10.587 0 0 1 2.958-3.214l.176 1.367a6.583 6.583 0 0 0 2.483 4.164 20.619 20.619 0 0 0 8.619 3.711 59.17 59.17 0 0 0 12.826 1.261 89.573 89.573 0 0 0 16.374-1.549c.862-.159 1.711-.327 2.547-.506-.736.229-1.488.452-2.26.664a86.1 86.1 0 0 1-11.7 2.329 86.9 86.9 0 0 1-11.121.742 49.138 49.138 0 0 1-15.388-2.077 13.943 13.943 0 0 1-4.383-2.285 4.005 4.005 0 0 1-1.579-2.506 2.875 2.875 0 0 1-.023-.367 3.745 3.745 0 0 1 .471-1.734Zm.723 11.227-.521-4.063a22.077 22.077 0 0 0 7.616 3.08c.087.02.17.043.258.063a59.233 59.233 0 0 0 12.826 1.262 86.92 86.92 0 0 0 7.931-.381 93.432 93.432 0 0 0 3.525-.383 74.543 74.543 0 0 0 22.449-6.223c.297-.146.584-.294.87-.442a30.614 30.614 0 0 0 3.878-2.36 18.892 18.892 0 0 0 2.175-1.828l.066-.071c.27-.139.533-.281.792-.423l.471 3.671c.016.122.023.244.023.367a3.751 3.751 0 0 1-.471 1.734 9.471 9.471 0 0 1-2.27 2.672c-.35.3-.732.601-1.146.902a26.585 26.585 0 0 1-2.702 1.697 47.837 47.837 0 0 1-7.974 3.423 82.298 82.298 0 0 1-15.325 3.429c-1.19.154-2.362.275-3.523.38a84.29 84.29 0 0 1-7.599.362 53.931 53.931 0 0 1-13.441-1.497 28.082 28.082 0 0 1-1.946-.58 13.943 13.943 0 0 1-4.384-2.285 4.005 4.005 0 0 1-1.578-2.506Zm3.848 10.143a4.801 4.801 0 0 1-.75-1.123 2.48 2.48 0 0 1-.253-1.039 1.94 1.94 0 0 1 .376-1.132 1.76 1.76 0 0 1 .228-.248c.456.198.933.385 1.43.562l.357 2.776c.078.605.255 1.193.524 1.74a7.384 7.384 0 0 1-1.912-1.536Zm8.487 8.496a3.412 3.412 0 0 1-2.554-1.32 21.207 21.207 0 0 1-2.006-2.64c.206-.012.411-.03.62-.062a20.157 20.157 0 0 0 6.41 2.812 3.386 3.386 0 0 1-2.471 1.21Zm9.622.574a3.315 3.315 0 0 1-2.442 1.022 5.064 5.064 0 0 1-2.843-.999c.029-.031.06-.059.088-.09.296-.335.56-.696.787-1.08 1.49.29 3.08.519 4.766.688a3.486 3.486 0 0 1-.356.459Zm6.66.535c-.205.274-.47.499-.774.656-.33.164-.696.246-1.065.239a3.978 3.978 0 0 1-1.227-.216 10.2 10.2 0 0 1-.969-.379c.215-.343.396-.706.541-1.084 1.254.068 2.544.105 3.872.11-.098.24-.225.466-.378.674Zm7.744-3.6c-2.484.214-4.9.328-7.195.328a53.001 53.001 0 0 1-13.863-1.603 26.66 26.66 0 0 1-1.526-.474 13.924 13.924 0 0 1-4.384-2.285 4.003 4.003 0 0 1-1.578-2.505l-.21-1.629c.304.077.605.155.918.226a49.22 49.22 0 0 0 6.048.946c1.581.155 3.24.253 4.963.294a67.55 67.55 0 0 0 8.458.504c2.408 0 4.935-.121 7.531-.348a92.65 92.65 0 0 0 3.927-.417 74.508 74.508 0 0 0 22.449-6.222c.297-.145.585-.293.87-.442a30.49 30.49 0 0 0 3.878-2.36 18.796 18.796 0 0 0 2.175-1.828 13.2 13.2 0 0 0 .808-.883l.374 2.916a6.594 6.594 0 0 0-3.002 2.558c-.144.22-.272.449-.383.687a7.522 7.522 0 0 0-.723 3.015 4.7 4.7 0 0 0 .07.78 27.091 27.091 0 0 1-2.38 1.476 47.848 47.848 0 0 1-7.975 3.423 82.132 82.132 0 0 1-15.325 3.429 91.284 91.284 0 0 1-3.925.414Zm53.124 27.864c-16.676-.005-30.23-5.955-39.657-15.534A49.682 49.682 0 0 1 65 135.575c.598-.087 1.202-.168 1.79-.265 9.838 11.708 26.42 19.332 47.531 20.096 1.344.049 2.668.073 3.972.073 13.03 0 24.044-2.464 32.32-8.078-9.343 8.72-22.341 14.076-38.154 14.081Z"/></g></svg>