<svg width="200" height="200" viewBox="0 0 200 200" xmlns="http://www.w3.org/2000/svg"><g id="type=offer-payment, mode=dark"><g id="Layer 32"><path id="Vector" d="M165.727 116.23C162.603 123.797 157.951 130.057 150.848 134.486C143.742 138.912 134.11 141.524 120.965 141.525C119.519 141.525 118.032 141.493 116.503 141.429C105.253 140.96 95.1699 139.407 87.0063 135.54C86.852 135.467 86.6848 135.425 86.5143 135.416C86.3438 135.408 86.1733 135.433 86.0125 135.491C85.8518 135.548 85.7039 135.637 85.5774 135.751C85.4509 135.866 85.3482 136.005 85.2752 136.159C85.2022 136.313 85.1603 136.48 85.152 136.651C85.1436 136.821 85.1689 136.992 85.2264 137.153C85.2839 137.313 85.3725 137.461 85.4871 137.588C85.6017 137.714 85.7402 137.817 85.8945 137.89C94.5686 141.989 104.978 143.544 116.394 144.027C117.958 144.093 119.482 144.125 120.965 144.125C134.444 144.126 144.599 141.441 152.222 136.693C159.847 131.949 164.864 125.16 168.131 117.221C168.261 116.902 168.26 116.545 168.128 116.227C167.995 115.909 167.742 115.657 167.423 115.526C167.105 115.395 166.747 115.395 166.429 115.527C166.111 115.659 165.859 115.912 165.727 116.23L165.727 116.23Z"/><path id="Vector_2" d="M161.443 135.721C161.295 135.635 161.132 135.579 160.963 135.556C160.794 135.533 160.622 135.543 160.457 135.587C160.292 135.63 160.137 135.706 160.001 135.809C159.865 135.912 159.751 136.041 159.665 136.189C155.188 143.878 148.718 150.217 140.939 154.537C132.224 159.26 122.44 161.663 112.529 161.515C102.375 161.674 92.3604 159.145 83.4992 154.186C75.5865 149.643 69.0851 143 64.7143 134.991C64.5486 134.688 64.2696 134.464 63.9387 134.368C63.6077 134.271 63.252 134.31 62.9497 134.475C62.6473 134.641 62.4232 134.92 62.3266 135.251C62.23 135.582 62.2688 135.938 62.4345 136.24L62.4343 136.24C64.8673 140.675 67.9315 144.733 71.531 148.286C70.8856 150.926 70.4106 153.605 70.1088 156.305C68.8637 156.572 67.6857 157.089 66.6464 157.824C65.026 159.032 63.7144 160.607 62.8186 162.418C61.928 164.173 61.2679 166.035 60.8544 167.958C60.265 170.489 59.9502 173.076 59.9157 175.674C59.8821 177.647 60.1697 179.613 60.7673 181.494C61.3678 183.393 62.5194 185.07 64.0756 186.313C66.6146 188.199 69.7006 189.204 72.8637 189.175C74.5237 189.188 76.1718 188.894 77.7246 188.307C79.2131 187.758 80.5273 186.819 81.5304 185.59C82.7439 183.919 83.6212 182.029 84.1137 180.023C84.6648 178.002 84.9522 175.918 84.9689 173.823C84.9762 172.946 84.9043 172.07 84.7541 171.206C84.6323 170.445 84.3783 169.712 84.0036 169.039C83.8559 168.79 83.6781 168.577 83.5128 168.349C83.544 168.251 83.5627 168.148 83.5685 168.045C83.608 165.76 83.1603 163.494 82.255 161.396C81.484 159.763 80.2115 158.42 78.6232 157.563C78.744 156.474 78.883 155.437 79.0419 154.466C80.0666 155.156 81.1198 155.814 82.2016 156.439C91.4575 161.625 101.92 164.274 112.528 164.115C120.336 164.18 128.087 162.787 135.384 160.008C135.328 160.746 135.273 161.463 135.22 162.134C135.159 162.896 135.101 163.605 135.046 164.26C133.971 164.427 132.923 164.735 131.928 165.175C130.459 165.936 129.225 167.084 128.361 168.496C126.791 170.971 125.606 173.67 124.847 176.501C124.043 179.183 123.598 181.961 123.524 184.76C123.524 184.866 123.525 184.969 123.527 185.069V185.065C123.54 186.604 123.893 188.122 124.561 189.508C125.23 190.895 126.196 192.116 127.392 193.085C129.956 195.078 133.129 196.126 136.375 196.05L136.386 196.05L136.404 196.05C137.947 196.072 139.482 195.828 140.942 195.33C143.166 194.541 145.041 192.992 146.235 190.956C147.701 188.293 148.52 185.321 148.625 182.283C148.643 182.036 148.651 181.796 148.651 181.561C148.66 180.194 148.32 178.848 147.664 177.649C147.673 177.615 147.695 177.589 147.701 177.555C147.805 176.865 147.854 176.168 147.848 175.471C147.881 173.066 147.292 170.694 146.137 168.584C145.494 167.496 144.604 166.573 143.539 165.892C143.756 163.339 144.055 159.605 144.323 155.532C151.575 151.054 157.615 144.861 161.91 137.499C162.084 137.201 162.132 136.847 162.044 136.513C161.957 136.18 161.74 135.895 161.443 135.721ZM81.6049 179.341C81.2007 181.01 80.4811 182.586 79.4851 183.985C78.7681 184.848 77.8334 185.504 76.7778 185.885C75.5267 186.354 74.1997 186.588 72.8637 186.575C70.2777 186.602 67.7526 185.789 65.6686 184.258C64.5149 183.327 63.6653 182.074 63.2287 180.658C62.724 179.046 62.4832 177.363 62.5156 175.674C62.5507 173.267 62.8445 170.87 63.3918 168.526C63.8493 166.269 64.73 164.118 65.9875 162.188C66.5742 161.321 67.3064 160.562 68.1518 159.944C68.5231 159.683 68.9191 159.458 69.3342 159.273C67.8922 161.266 66.8209 163.502 66.1713 165.874C66.1202 166.062 66.113 166.259 66.1501 166.45C66.0263 166.546 65.8935 166.634 65.7778 166.735C65.6495 166.848 65.5448 166.985 65.4694 167.138C65.394 167.291 65.3496 167.458 65.3386 167.628C65.3276 167.799 65.3503 167.969 65.4053 168.131C65.4604 168.293 65.5467 168.442 65.6594 168.57C65.7721 168.698 65.9089 168.803 66.0621 168.879C66.2153 168.954 66.3818 168.998 66.5522 169.009C66.7226 169.02 66.8935 168.998 67.0551 168.943C67.2167 168.888 67.3659 168.801 67.4941 168.689L67.4939 168.688C68.3079 168.031 69.245 167.544 70.2502 167.254C71.5134 166.86 72.829 166.66 74.1521 166.661C75.6616 166.641 77.1583 166.939 78.5442 167.538C79.8878 168.124 81.0155 169.113 81.7702 170.37C81.9847 170.779 82.1291 171.221 82.1972 171.678C82.3185 172.387 82.376 173.104 82.3691 173.823C82.352 175.687 82.0952 177.542 81.6049 179.341ZM79.9106 162.52C80.3726 163.561 80.6696 164.667 80.7907 165.8C80.4137 165.565 80.022 165.355 79.6181 165.17C79.3561 165.052 79.0844 164.963 78.8159 164.865C78.6994 163.503 78.5497 162.077 78.353 160.561L78.3571 160.507C79.0133 161.059 79.5432 161.745 79.9106 162.52H79.9106ZM75.7497 160.503L75.758 160.756C75.9169 161.968 76.0397 163.106 76.1457 164.211C75.4852 164.116 74.8192 164.066 74.152 164.061C72.5622 164.06 70.9814 164.301 69.4641 164.776C69.3918 164.799 69.3254 164.828 69.254 164.852C69.8039 163.357 70.5676 161.949 71.5214 160.672C71.6256 160.543 71.7482 160.43 71.8854 160.337C72.0393 160.227 72.1672 160.084 72.2599 159.919C72.3527 159.754 72.4081 159.571 72.4222 159.382C72.6467 156.346 73.0834 153.329 73.7291 150.354C74.6842 151.195 75.6774 151.998 76.6993 152.772C76.2278 155.328 75.9107 157.91 75.7497 160.503H75.7497ZM141.61 157.127C141.213 162.836 140.784 167.588 140.674 168.792L140.675 169.041C140.736 169.642 140.868 171.085 140.939 172.861C139.36 172.424 137.729 172.202 136.091 172.201C135.514 172.202 134.937 172.234 134.363 172.295C134.599 171.56 134.845 170.844 135.106 170.187C135.453 169.286 135.873 168.416 136.364 167.585C136.5 167.368 136.685 167.186 136.903 167.052C137.072 166.945 137.213 166.8 137.317 166.629C137.421 166.458 137.485 166.265 137.502 166.066C137.59 165.045 137.697 163.779 137.812 162.339C137.896 161.272 137.986 160.102 138.076 158.875C139.284 158.331 140.462 157.748 141.61 157.127H141.61ZM146.031 182.093C145.926 183.989 145.558 185.861 144.938 187.656C144.356 189.49 143.171 191.073 141.575 192.149C140.012 193.069 138.217 193.521 136.404 193.45V193.45L136.379 193.45V193.45C133.733 193.525 131.143 192.687 129.042 191.076C128.136 190.347 127.404 189.425 126.899 188.376C126.395 187.328 126.131 186.18 126.127 185.017V185.014L126.124 184.76C126.259 181.259 126.971 177.805 128.232 174.536C128.816 172.927 129.581 171.39 130.513 169.955C131.112 168.948 131.967 168.118 132.99 167.548C133.167 167.469 133.358 167.416 133.541 167.347C133.241 167.943 132.957 168.56 132.692 169.222L132.691 169.225C132.225 170.403 131.82 171.606 131.478 172.826C131.473 172.869 131.469 172.913 131.468 172.956C131.162 173.067 130.863 173.198 130.575 173.351C130.426 173.435 130.295 173.547 130.189 173.682C130.083 173.816 130.005 173.97 129.959 174.135C129.913 174.3 129.9 174.472 129.921 174.642C129.942 174.812 129.996 174.976 130.08 175.125C130.164 175.274 130.277 175.404 130.412 175.51C130.547 175.615 130.701 175.693 130.866 175.738C131.031 175.783 131.203 175.796 131.373 175.775C131.543 175.753 131.707 175.699 131.855 175.614L131.855 175.614C132.397 175.333 132.979 175.137 133.58 175.031C134.408 174.873 135.249 174.796 136.091 174.801C138.477 174.766 140.833 175.341 142.934 176.471C143.842 176.98 144.619 177.693 145.202 178.555C145.776 179.451 146.071 180.497 146.051 181.561C146.051 181.734 146.045 181.911 146.031 182.093ZM145.236 174.886C144.712 174.498 144.155 174.157 143.572 173.865C143.525 171.769 143.378 169.983 143.291 169.078C143.515 169.325 143.713 169.594 143.883 169.88C144.723 171.419 145.187 173.134 145.236 174.886L145.236 174.886Z"/><path id="Vector_3" d="M64.4174 136.662C74.4931 149.013 91.6425 156.954 113.343 157.738C114.57 157.783 115.784 157.805 116.984 157.805C128.892 157.804 139.478 155.606 147.962 150.836C156.642 146.04 163.126 138.066 166.052 128.591L164.816 128.189L166.039 128.628C167.29 125.113 168.187 121.482 168.717 117.79C168.765 117.449 168.675 117.103 168.468 116.827C168.262 116.552 167.954 116.37 167.613 116.322C167.272 116.273 166.926 116.362 166.65 116.568C166.375 116.775 166.192 117.082 166.143 117.423C165.638 120.941 164.783 124.401 163.592 127.75L163.579 127.788C160.857 136.644 154.8 144.096 146.687 148.57C138.723 153.054 128.578 155.206 116.984 155.205C115.816 155.205 114.633 155.183 113.437 155.14C92.3048 154.374 75.921 146.66 66.4323 135.019C66.2143 134.752 65.8992 134.582 65.5562 134.547C65.2132 134.512 64.8704 134.615 64.6033 134.833C64.3361 135.051 64.1665 135.366 64.1317 135.709C64.0968 136.052 64.1997 136.395 64.4176 136.662L64.4174 136.662Z"/><path id="Vector_4" d="M156.021 24.2642L156.022 24.2612L156.021 24.2642Z"/><path id="Vector_5" d="M173.056 55.0647C170.176 46.832 165.072 39.5573 158.312 34.0464C157.679 33.5229 157.009 33.0241 156.342 32.523L156.343 32.5191L156.344 32.5192L156.344 32.5174L156.345 32.5163L156.344 32.5161C156.444 32.0135 156.59 31.5213 156.782 31.0459C156.994 30.5077 157.274 29.9983 157.613 29.5296C158.347 30.2669 159.267 30.7917 160.275 31.0481C161.283 31.3044 162.342 31.2829 163.339 30.9856C164.336 30.6883 165.233 30.1265 165.936 29.3598C166.64 28.5932 167.122 27.6503 167.332 26.6315L167.332 26.6298C167.414 26.2393 167.455 25.8415 167.455 25.4427C167.46 24.6048 167.283 23.7759 166.936 23.0134C166.589 22.2508 166.08 21.5728 165.445 21.0264C164.81 20.48 164.064 20.0783 163.258 19.849C162.452 19.6198 161.606 19.5685 160.778 19.6987C159.95 19.8289 159.161 20.1376 158.465 20.6032C157.768 21.0689 157.181 21.6805 156.744 22.3955C156.308 23.1106 156.032 23.912 155.936 24.7443C155.84 25.5766 155.926 26.4199 156.188 27.2156C155.377 28.0724 154.744 29.0816 154.326 30.1849C154.226 30.4462 154.142 30.6919 154.073 30.9149C146.921 26.2076 138.922 22.9374 130.521 21.2869C125.66 20.248 120.705 19.714 115.735 19.6937C112.838 19.6902 109.946 19.8968 107.079 20.3116C107.004 19.9892 106.916 19.6606 106.805 19.3261C106.31 17.8345 105.474 16.4787 104.365 15.3659C104.746 14.0078 104.616 12.557 104 11.2881C103.384 10.0192 102.324 9.02012 101.021 8.48C99.7174 7.93987 98.2615 7.89613 96.9283 8.35704C95.5951 8.81796 94.4771 9.75156 93.7858 10.9812C93.0945 12.2108 92.8779 13.6512 93.1769 15.0298C93.476 16.4083 94.27 17.6295 95.4087 18.4621C96.5473 19.2947 97.9517 19.6811 99.3561 19.5482C100.76 19.4152 102.067 18.7721 103.03 17.7405C103.608 18.4554 104.052 19.2701 104.337 20.1443C104.405 20.3483 104.456 20.5501 104.506 20.7515C93.8966 22.6559 84.2421 28.0909 77.1106 36.174C76.9982 36.3028 76.9123 36.4525 76.8578 36.6145C76.8034 36.7766 76.7814 36.9477 76.7931 37.1183C76.8049 37.2888 76.8501 37.4554 76.9263 37.6084C77.0025 37.7615 77.1081 37.898 77.2371 38.0101C77.3661 38.1223 77.516 38.2079 77.6781 38.2621C77.8403 38.3163 78.0115 38.338 78.182 38.3259C78.3525 38.3139 78.519 38.2683 78.6719 38.1918C78.8248 38.1154 78.9611 38.0095 79.073 37.8803L79.0728 37.8802C85.7715 30.2865 94.8292 25.166 104.79 23.3422C104.78 23.7297 104.755 24.0697 104.727 24.3024C104.709 24.4425 104.692 24.5494 104.681 24.6173L104.668 24.6888L104.666 24.6973L104.665 24.7013L104.666 24.7014C104.594 25.0382 104.659 25.3898 104.846 25.6789C105.033 25.968 105.327 26.1711 105.664 26.2434C106.001 26.3158 106.352 26.2516 106.642 26.0648C106.931 25.8781 107.134 25.5841 107.207 25.2475C107.34 24.5438 107.404 23.8288 107.397 23.1126C107.397 23.0444 107.391 22.9648 107.39 22.894C110.153 22.4925 112.942 22.2918 115.735 22.2935C120.526 22.314 125.303 22.8294 129.988 23.8317C141.04 26.1457 149.908 30.4657 156.654 36.0492C163.047 41.2557 167.874 48.1313 170.598 55.9134C170.654 56.0752 170.74 56.2244 170.854 56.3526C170.967 56.4808 171.104 56.5854 171.258 56.6604C171.411 56.7354 171.578 56.7794 171.749 56.7898C171.92 56.8002 172.091 56.7768 172.252 56.721C172.414 56.6652 172.563 56.5781 172.691 56.4646C172.819 56.3511 172.923 56.2135 172.998 56.0596C173.073 55.9058 173.116 55.7387 173.126 55.568C173.136 55.3973 173.112 55.2263 173.056 55.0647L173.056 55.0647ZM158.566 24.7992L158.566 24.7963C158.727 24.0271 159.167 23.3448 159.802 22.8812C160.436 22.4176 161.22 22.2054 162.002 22.2858C162.784 22.3661 163.508 22.7332 164.035 23.3162C164.562 23.8993 164.854 24.6568 164.855 25.4427C164.855 25.6636 164.832 25.8838 164.787 26.1C164.625 26.8688 164.184 27.5505 163.55 28.0135C162.915 28.4766 162.132 28.6883 161.35 28.6078C160.569 28.5272 159.845 28.1602 159.318 27.5774C158.791 26.9946 158.499 26.2374 158.498 25.4518C158.498 25.2325 158.52 25.0138 158.566 24.7992ZM98.8094 16.9739C98.1146 16.9737 97.439 16.746 96.8858 16.3256C96.3326 15.9052 95.9322 15.3153 95.7459 14.6459C95.5595 13.9766 95.5974 13.2646 95.8538 12.6189C96.1101 11.9731 96.5709 11.429 97.1656 11.0698C97.7603 10.7105 98.4563 10.5558 99.1472 10.6293C99.8381 10.7028 100.486 11.0005 100.992 11.4769C101.497 11.9533 101.833 12.5821 101.948 13.2674C102.063 13.9527 101.95 14.6566 101.627 15.2718C101.36 15.7874 100.955 16.2191 100.458 16.5194C99.9606 16.8198 99.3902 16.9771 98.8094 16.9739Z"/><path id="Vector_6" d="M144.38 72.9331C144.018 72.3127 143.532 71.7734 142.952 71.3489C142.33 70.902 141.619 70.5931 140.867 70.4425C140.487 70.3615 140.099 70.3202 139.709 70.3193C138.606 70.3201 137.533 70.6764 136.649 71.3352C135.382 72.3427 134.436 73.6968 133.925 75.2325C133.352 76.8212 133.061 78.4978 133.065 80.1866C133.031 81.8163 133.356 83.4334 134.017 84.9235C134.342 85.6244 134.799 86.2559 135.364 86.7831C135.952 87.3241 136.673 87.699 137.454 87.8694L137.455 87.8696C137.723 87.9273 137.997 87.9564 138.271 87.9564C139.384 87.922 140.449 87.4975 141.28 86.7572C142.59 85.577 143.6 84.1019 144.227 82.4539C144.948 80.7279 145.332 78.88 145.359 77.0097C145.401 75.5879 145.063 74.1808 144.38 72.9331ZM141.17 82.8074C140.771 83.5422 140.247 84.2015 139.621 84.7553C139.255 85.1063 138.777 85.3189 138.271 85.3565C138.181 85.3565 138.091 85.3469 138.003 85.3278C137.669 85.2547 137.361 85.0926 137.112 84.8587C136.612 84.3542 136.252 83.7291 136.065 83.0439C135.789 82.1171 135.654 81.1538 135.665 80.1866C135.644 78.3865 136.06 76.6081 136.878 75.0042C137.195 74.3933 137.64 73.8578 138.183 73.4342C138.622 73.0996 139.158 72.9187 139.709 72.9193C139.919 72.9203 140.129 72.9431 140.334 72.9872C140.726 73.0623 141.098 73.2208 141.424 73.4519C141.877 73.7972 142.218 74.2689 142.405 74.8076C142.654 75.5143 142.774 76.2603 142.759 77.0096C142.714 79.0435 142.168 81.0348 141.17 82.8074L141.17 82.8074Z"/><path id="Vector_7" d="M102.273 62.8164C101.645 62.3564 100.915 62.053 100.146 61.9315C99.8484 61.8812 99.5474 61.8558 99.2458 61.8555C98.1771 61.8559 97.1362 62.196 96.2734 62.8265C95.0368 63.7908 94.1099 65.0963 93.6071 66.5817C93.0415 68.1289 92.7549 69.7641 92.7607 71.4114C92.7298 73.0941 93.0739 74.7626 93.768 76.2957C94.1123 77.0267 94.5885 77.6878 95.1726 78.2461C95.7784 78.8181 96.5152 79.2328 97.3186 79.4541L97.3198 79.4544C97.6165 79.5355 97.9226 79.5767 98.2302 79.5769C98.7668 79.5734 99.2962 79.4522 99.781 79.2219C100.602 78.8092 101.315 78.2094 101.862 77.4708C102.768 76.256 103.453 74.8922 103.888 73.4411C104.377 71.9149 104.634 70.3237 104.648 68.721C104.693 67.244 104.366 65.7794 103.696 64.4622C103.345 63.8179 102.86 63.2566 102.273 62.8164ZM100.652 74.5278C100.315 75.2363 99.857 75.881 99.2995 76.4334C99.1175 76.6076 98.9099 76.7529 98.684 76.8644C98.5429 76.935 98.3879 76.9734 98.2302 76.9769L98.0036 76.9457C97.6074 76.8363 97.2445 76.6302 96.9475 76.346C96.4006 75.7909 96.0018 75.1075 95.7873 74.3583C95.4943 73.4038 95.3504 72.4098 95.3605 71.4114C95.3369 69.6761 95.7414 67.9616 96.538 66.4197C96.8439 65.8415 97.271 65.3361 97.7902 64.9382C98.2104 64.6239 98.7211 64.4545 99.2458 64.4554C99.4036 64.4557 99.5612 64.4692 99.7167 64.4958C100.082 64.5495 100.429 64.6907 100.728 64.9074C101.183 65.2714 101.518 65.7636 101.69 66.3202C101.943 67.0947 102.065 67.9063 102.049 68.721C102.02 70.7363 101.543 72.72 100.652 74.5278L100.652 74.5278Z"/><path id="Vector_8" d="M123.48 85.4681C122.884 86.0957 122.148 86.5739 121.333 86.8638C120.274 87.2713 119.149 87.4796 118.014 87.4785C116.614 87.493 115.234 87.1465 114.007 86.4723C112.606 85.6634 111.487 84.4436 110.802 82.978C110.727 82.8246 110.622 82.6877 110.493 82.575C110.364 82.4623 110.215 82.3761 110.053 82.3212C109.891 82.2663 109.72 82.244 109.55 82.2553C109.379 82.2667 109.212 82.3116 109.059 82.3874C108.906 82.4632 108.769 82.5685 108.657 82.6973C108.544 82.826 108.458 82.9757 108.404 83.1377C108.349 83.2997 108.327 83.4709 108.339 83.6414C108.351 83.8119 108.396 83.9785 108.472 84.1315L108.472 84.1314C109.389 86.0648 110.876 87.6719 112.731 88.7377C114.348 89.6314 116.167 90.0932 118.014 90.0784C119.473 90.08 120.92 89.8108 122.282 89.2845C123.495 88.8418 124.583 88.1127 125.454 87.159C125.678 86.897 125.788 86.5572 125.761 86.2141C125.734 85.8709 125.572 85.5525 125.311 85.3287C125.049 85.1048 124.71 84.9937 124.366 85.0199C124.023 85.046 123.704 85.2072 123.48 85.4681L123.48 85.4681Z"/><path id="Vector_9" d="M190.374 109.537C189.539 109.597 188.735 109.619 187.946 109.625L187.871 108.005L190.333 107.881C190.504 107.873 190.671 107.831 190.825 107.758C190.979 107.685 191.118 107.582 191.232 107.455C191.347 107.329 191.435 107.181 191.492 107.02C191.55 106.859 191.575 106.689 191.566 106.518C191.558 106.347 191.516 106.18 191.443 106.026C191.369 105.872 191.267 105.733 191.14 105.619C191.013 105.504 190.865 105.416 190.705 105.359C190.544 105.301 190.373 105.276 190.203 105.285L187.75 105.408L187.662 103.512C188.428 103.466 189.21 103.398 190.025 103.288C190.367 103.242 190.676 103.062 190.884 102.788C191.093 102.514 191.185 102.168 191.139 101.827C191.093 101.486 190.913 101.176 190.639 100.967C190.366 100.758 190.02 100.666 189.679 100.712C188.468 100.879 187.248 100.966 186.025 100.97C183.695 100.989 181.38 100.593 179.188 99.801C177.174 99.0354 175.257 98.034 173.478 96.8177C178.073 96.0966 182.457 94.3884 186.328 91.8107C188.162 90.5749 189.744 89 190.987 87.1708C192.199 85.3676 192.854 83.247 192.868 81.0741C192.866 80.1934 192.761 79.316 192.557 78.4595C192.229 76.7719 191.35 75.2411 190.057 74.1082C188.838 73.1416 187.317 72.6346 185.761 72.6757C183.508 72.7719 181.31 73.4055 179.351 74.5236C176.964 75.8215 174.763 77.4353 172.806 79.3212C172.619 79.4991 172.488 79.7292 172.432 79.9817C172.376 80.2343 172.397 80.4978 172.492 80.7384C172.24 80.842 172.026 81.0233 171.884 81.2562C171.741 81.4891 171.676 81.7614 171.699 82.0336C171.827 83.4879 171.892 84.944 171.892 86.3927C171.962 91.7695 170.982 97.1083 169.006 102.11C167.864 100.759 166.66 99.4064 165.361 98.0874C165.241 97.9653 165.098 97.868 164.941 97.8011C164.783 97.7342 164.614 97.699 164.443 97.6975C164.272 97.6961 164.103 97.7284 163.944 97.7926C163.786 97.8569 163.641 97.9517 163.52 98.0718C163.398 98.1919 163.301 98.3349 163.234 98.4925C163.168 98.6501 163.133 98.8192 163.132 98.9902C163.131 99.1613 163.164 99.3308 163.229 99.4891C163.294 99.6474 163.389 99.7914 163.509 99.9129L163.509 99.9127C167.784 104.243 171.106 109.115 174.765 113.197C176.512 115.221 178.513 117.013 180.719 118.526C181.576 119.092 182.477 119.588 183.413 120.011C183.402 120.038 183.38 120.057 183.37 120.085L181.375 126C180.348 125.559 179.352 125.051 178.392 124.479C174.536 121.97 171.063 118.918 168.079 115.417C164.858 111.871 161.749 108.026 158.361 104.587C158.118 104.345 157.789 104.209 157.446 104.208C157.103 104.207 156.774 104.341 156.529 104.582C156.285 104.823 156.146 105.15 156.142 105.493C156.139 105.836 156.271 106.167 156.509 106.413L156.509 106.413C158.431 108.36 160.291 110.484 162.165 112.638C157.631 117.176 152.081 120.567 145.975 122.53C138.104 125.057 129.871 126.269 121.607 126.117C114.435 126.152 107.293 125.177 100.393 123.22C100.228 123.171 100.056 123.155 99.8849 123.173C99.7143 123.191 99.5489 123.243 99.3984 123.325C99.2478 123.407 99.115 123.519 99.0076 123.652C98.9002 123.786 98.8204 123.94 98.7728 124.105C98.7252 124.27 98.7106 124.442 98.73 124.613C98.7494 124.783 98.8024 124.948 98.8858 125.098C98.9693 125.248 99.0816 125.38 99.2163 125.486C99.351 125.593 99.5054 125.671 99.6706 125.718C106.806 127.742 114.19 128.752 121.607 128.717C130.159 128.87 138.678 127.61 146.819 124.989C153.241 122.911 159.084 119.352 163.876 114.599C165.7 116.684 167.558 118.759 169.524 120.693C171.789 122.983 174.314 125 177.048 126.705C179.856 128.434 182.971 129.606 186.223 130.158C186.562 130.212 186.91 130.13 187.188 129.929C187.467 129.728 187.655 129.425 187.711 129.086C187.767 128.747 187.687 128.399 187.487 128.12C187.288 127.84 186.986 127.65 186.647 127.593C185.688 127.427 184.742 127.197 183.814 126.906L184.428 125.085L187.139 125.911C187.469 126.01 187.824 125.975 188.128 125.812C188.432 125.65 188.658 125.374 188.759 125.045C188.859 124.715 188.824 124.36 188.663 124.056C188.501 123.752 188.226 123.524 187.896 123.423L185.259 122.62L185.834 120.915C185.836 120.908 185.834 120.901 185.836 120.894C186.629 121.123 187.437 121.296 188.253 121.412C188.422 121.436 188.594 121.427 188.76 121.384C188.925 121.341 189.08 121.267 189.217 121.164C189.353 121.061 189.468 120.933 189.555 120.786C189.641 120.639 189.698 120.476 189.722 120.307C189.746 120.138 189.737 119.966 189.694 119.8C189.651 119.635 189.577 119.48 189.474 119.343C189.371 119.207 189.243 119.092 189.096 119.005C188.949 118.919 188.786 118.862 188.617 118.838C186.3 118.509 184.089 117.659 182.147 116.353C179.682 114.615 177.475 112.538 175.59 110.184C179.451 111.57 183.526 112.265 187.628 112.237C188.577 112.237 189.555 112.201 190.562 112.13C190.905 112.104 191.224 111.943 191.449 111.682C191.674 111.422 191.786 111.083 191.761 110.74C191.736 110.396 191.577 110.077 191.317 109.851C191.057 109.626 190.718 109.513 190.375 109.537L190.374 109.537ZM180.562 76.8242C182.149 75.9063 183.931 75.3757 185.761 75.2756C186.716 75.234 187.655 75.5331 188.41 76.1194C189.26 76.8919 189.828 77.9254 190.026 79.0569C190.185 79.7177 190.266 80.3946 190.268 81.0741C190.254 82.7428 189.746 84.3701 188.809 85.7505C187.098 88.1273 184.812 90.0309 182.165 91.2826C179.554 92.5989 176.771 93.5413 173.898 94.0821C174.297 91.5385 174.496 88.9674 174.492 86.3927C174.492 84.8667 174.424 83.3345 174.289 81.8046C174.271 81.6867 174.237 81.5719 174.188 81.4635C174.337 81.4051 174.475 81.3193 174.593 81.2103L174.593 81.2102C176.377 79.4874 178.385 78.0122 180.562 76.8242ZM172.698 99.4092C174.457 100.557 176.336 101.508 178.302 102.246C180.474 103.023 182.754 103.457 185.06 103.53L185.34 109.56C180.576 109.346 175.941 107.947 171.855 105.49C171.815 105.472 171.774 105.456 171.733 105.442C171.448 105.086 171.161 104.729 170.871 104.371C171.594 102.761 172.205 101.103 172.698 99.4092L172.698 99.4092Z"/><path id="Vector_10" d="M173.18 55.4509C173.177 55.3712 173.166 55.2919 173.148 55.2143L173.148 55.2141C171.757 50.8888 169.166 47.0477 165.676 44.1385C162.453 41.5591 158.499 40.0628 154.376 39.8628C154.048 39.8445 153.723 39.8354 153.402 39.8356C150.664 39.8641 147.965 40.481 145.487 41.6444C141.908 43.2534 138.797 45.5777 135.659 47.4339C132.514 49.299 129.409 50.685 125.806 50.6846C124.779 50.6823 123.754 50.5735 122.75 50.3601C120.24 49.9089 117.892 48.8126 115.935 47.179C113.466 45.0634 112.008 42.1769 110.447 39.0995C108.885 36.0414 107.212 32.7873 104.085 30.304C101.321 28.0859 97.8818 26.8806 94.3384 26.8887C88.7042 26.892 82.744 29.7996 77.5472 35.538C77.4324 35.6645 77.3437 35.8124 77.2861 35.9732C77.2285 36.1341 77.2032 36.3047 77.2115 36.4753C77.2199 36.6459 77.2618 36.8132 77.3348 36.9676C77.4079 37.122 77.5107 37.2606 77.6373 37.3752C77.7639 37.4899 77.9118 37.5785 78.0727 37.636C78.2335 37.6935 78.4042 37.7187 78.5748 37.7102C78.7454 37.7017 78.9127 37.6597 79.067 37.5866C79.2214 37.5134 79.3598 37.4105 79.4744 37.2839C84.315 31.9423 89.6253 29.4854 94.3384 29.4887C97.2959 29.4795 100.167 30.4869 102.47 32.3419C104.135 33.7243 105.519 35.4129 106.549 37.3163C108.208 40.1612 109.49 43.448 111.681 46.387C112.823 47.9431 114.23 49.2863 115.837 50.355C117.783 51.6016 119.948 52.4669 122.217 52.9049C123.397 53.1551 124.6 53.2823 125.806 53.2846C128.499 53.2525 131.153 52.6343 133.583 51.4729C137.112 49.8634 140.206 47.543 143.365 45.6884C146.53 43.8257 149.694 42.4358 153.402 42.4356C153.675 42.4356 153.951 42.4433 154.231 42.4589C157.814 42.6279 161.251 43.9261 164.05 46.1676C167.076 48.7011 169.337 52.0269 170.579 55.7725C170.583 55.8198 170.589 55.8669 170.598 55.9135L170.598 55.9134C172.187 60.528 172.994 65.3754 172.987 70.2558C172.983 73.444 172.651 76.6234 171.996 79.7434C170.009 89.5029 164.499 98.1894 156.517 104.146C148.573 110.108 138.11 113.601 125.947 113.603C121.098 113.585 116.264 113.066 111.521 112.055C103.154 110.411 95.1936 107.13 88.0981 102.4C87.9572 102.303 87.7984 102.234 87.6308 102.198C87.4632 102.161 87.29 102.159 87.1214 102.19C86.9527 102.221 86.7919 102.285 86.6481 102.378C86.5043 102.472 86.3805 102.593 86.2836 102.734C86.1868 102.876 86.119 103.035 86.084 103.203C86.049 103.371 86.0476 103.544 86.0798 103.713C86.112 103.881 86.1773 104.041 86.2718 104.185C86.3662 104.328 86.4881 104.451 86.6303 104.546C94.0081 109.469 102.286 112.886 110.988 114.6C115.906 115.648 120.919 116.185 125.947 116.203C138.605 116.204 149.645 112.557 158.078 106.225C166.564 99.8889 172.424 90.6529 174.541 80.2759C175.233 76.9807 175.583 73.6229 175.586 70.2558C175.591 65.2231 174.778 60.2231 173.18 55.4509Z"/><path id="Vector_11" d="M94.4426 136.842C97.7825 137.783 101.193 138.451 104.641 138.841C108.071 139.255 111.521 139.467 114.976 139.476C117.004 139.487 119.031 139.384 121.048 139.167C121.391 139.127 121.703 138.953 121.918 138.683C122.132 138.413 122.23 138.069 122.191 137.727C122.151 137.384 121.978 137.071 121.707 136.857C121.437 136.643 121.093 136.544 120.751 136.584C118.833 136.79 116.905 136.887 114.976 136.876C111.626 136.867 108.279 136.662 104.953 136.259C101.648 135.887 98.3784 135.248 95.1763 134.348C95.0122 134.299 94.84 134.282 94.6696 134.3C94.4992 134.317 94.334 134.368 94.1834 134.45C94.0328 134.532 93.8998 134.642 93.7921 134.776C93.6844 134.909 93.604 135.062 93.5557 135.226C93.5074 135.391 93.492 135.563 93.5105 135.733C93.529 135.903 93.5809 136.068 93.6634 136.219C93.7458 136.369 93.8571 136.501 93.9909 136.608C94.1247 136.715 94.2783 136.795 94.4429 136.842L94.4426 136.842Z"/><path id="Vector_12" d="M120.353 130.594L120.353 130.594C119.206 130.702 118.055 130.752 116.903 130.744L116.872 130.743C113.145 130.753 109.432 130.284 105.824 129.349C104.065 128.88 102.351 128.258 100.701 127.489C100.7 126.873 100.59 126.261 100.378 125.682C100.276 125.428 100.149 125.185 100 124.955C100.221 124.64 100.415 124.306 100.579 123.958C100.897 123.292 101.065 122.565 101.073 121.828C101.068 120.896 100.778 119.987 100.241 119.225C99.7684 118.538 99.1136 117.998 98.3504 117.663C97.6234 117.349 96.8385 117.19 96.0464 117.199C95.6567 117.199 95.2678 117.232 94.8838 117.298C94.7152 117.327 94.5539 117.388 94.4091 117.479C94.2642 117.57 94.1387 117.688 94.0397 117.828C93.9408 117.967 93.8702 118.124 93.8322 118.291C93.7942 118.458 93.7894 118.63 93.8181 118.799C93.8468 118.967 93.9085 119.129 93.9996 119.273C94.0907 119.418 94.2095 119.543 94.349 119.642C94.4886 119.741 94.6463 119.811 94.813 119.848C94.9798 119.886 95.1523 119.891 95.3208 119.861C95.5604 119.82 95.8032 119.799 96.0464 119.798C96.4737 119.791 96.8978 119.873 97.2917 120.038C97.6164 120.177 97.8952 120.404 98.0959 120.694C98.3373 121.023 98.4692 121.42 98.4729 121.828C98.4648 122.189 98.3782 122.543 98.2193 122.867C97.9069 123.493 97.4775 124.053 96.9541 124.517C96.4498 124.985 95.8813 125.379 95.2657 125.686C94.8404 125.869 94.3812 125.959 93.9185 125.95C93.4759 125.955 93.0365 125.875 92.6233 125.717C92.2987 125.599 92.0156 125.388 91.8086 125.112C91.6111 124.829 91.3095 124.636 90.97 124.576C90.6305 124.516 90.281 124.593 89.9983 124.791C89.7157 124.988 89.5231 125.29 89.4629 125.629C89.4027 125.969 89.4798 126.318 89.6773 126.601L89.677 126.601C90.1717 127.29 90.8564 127.82 91.6475 128.127C92.2495 128.364 92.8862 128.501 93.5325 128.534C92.9366 129.461 92.2693 130.341 91.5366 131.166C91.233 131.559 90.8471 131.881 90.4058 132.109C89.9646 132.337 89.4787 132.466 88.9824 132.486C88.1674 132.465 87.3899 132.139 86.8032 131.573C86.098 130.913 85.6178 130.048 85.4302 129.101C85.3958 128.934 85.3288 128.775 85.233 128.634C85.1372 128.492 85.0145 128.371 84.8719 128.277C84.7293 128.184 84.5697 128.119 84.402 128.086C84.2344 128.054 84.062 128.055 83.8948 128.09C83.7276 128.124 83.5688 128.191 83.4276 128.287C83.2863 128.383 83.1652 128.506 83.0713 128.648C82.9775 128.791 82.9126 128.95 82.8804 129.118C82.8482 129.286 82.8494 129.458 82.8838 129.625L82.8836 129.625C83.1814 131.11 83.9391 132.463 85.0494 133.492C85.3196 133.74 85.6107 133.964 85.9192 134.161C85.5764 134.534 85.2008 134.876 84.7969 135.182C83.9407 135.856 82.8919 136.239 81.803 136.276C81.3571 136.283 80.9145 136.199 80.5016 136.031C80.0887 135.862 79.7141 135.612 79.4002 135.295C78.72 134.574 78.3408 133.621 78.3401 132.629C78.3351 132.459 78.2965 132.291 78.2266 132.135C78.1566 131.979 78.0565 131.839 77.9322 131.721C77.8079 131.604 77.6617 131.513 77.502 131.452C77.3423 131.392 77.1722 131.363 77.0015 131.368C76.8307 131.373 76.6627 131.412 76.507 131.482C76.3512 131.552 76.2108 131.653 76.0938 131.777C75.9768 131.901 75.8854 132.048 75.825 132.207C75.7645 132.367 75.7362 132.537 75.7415 132.708C75.7666 133.801 76.0563 134.872 76.586 135.828C76.3008 135.95 76.0252 136.054 75.7657 136.139C75.371 136.275 74.9573 136.348 74.5399 136.355C74.2477 136.364 73.9566 136.315 73.6839 136.209C73.4112 136.104 73.1623 135.946 72.952 135.743C72.4888 135.263 72.1797 134.656 72.0643 134C71.9934 133.662 71.7916 133.367 71.5032 133.179C71.2148 132.99 70.8635 132.924 70.5263 132.995C70.1891 133.065 69.8936 133.266 69.7048 133.555C69.516 133.843 69.4493 134.194 69.5193 134.531C69.7405 135.701 70.3089 136.776 71.1504 137.617C72.061 138.49 73.2783 138.971 74.5398 138.955C75.233 138.948 75.9208 138.831 76.5774 138.609C77.2059 138.396 77.8185 138.139 78.4107 137.84C79.4104 138.521 80.5934 138.883 81.803 138.876C83.4419 138.84 85.0266 138.282 86.3272 137.284C86.6209 137.065 86.9022 136.829 87.1697 136.579C87.3272 136.795 87.5065 136.995 87.7049 137.175C88.5201 137.869 89.5629 138.238 90.6334 138.211C91.9275 138.172 93.1919 137.814 94.3143 137.168C95.6124 136.447 96.7752 135.505 97.7505 134.386C98.6449 133.383 99.3784 132.247 99.9249 131.019C100.052 130.728 100.164 130.436 100.261 130.145C101.845 130.839 103.478 131.412 105.149 131.86C108.977 132.854 112.917 133.353 116.872 133.344L116.903 133.344C118.152 133.352 119.4 133.297 120.643 133.177C120.984 133.137 121.296 132.964 121.509 132.695C121.723 132.426 121.821 132.083 121.783 131.741C121.745 131.4 121.573 131.088 121.305 130.872C121.037 130.657 120.695 130.557 120.353 130.594L120.353 130.594ZM97.5418 129.979C97.1036 130.959 96.5165 131.865 95.8013 132.665C95.0273 133.556 94.1047 134.307 93.0743 134.883C92.3315 135.319 91.4939 135.569 90.6334 135.611C90.1968 135.638 89.766 135.5 89.4256 135.225C89.3751 135.177 89.3284 135.125 89.2857 135.07C90.0948 135.005 90.8829 134.78 91.6033 134.406C92.3238 134.032 92.962 133.517 93.4803 132.893C94.8025 131.424 95.9266 129.789 96.824 128.029C96.8599 127.939 96.8853 127.846 96.8997 127.751C97.3007 127.523 97.685 127.268 98.0496 126.986C98.0895 127.185 98.1095 127.388 98.1094 127.59C98.083 128.417 97.89 129.229 97.5418 129.979H97.5418Z"/><path id="Vector_13" d="M53.8338 134.721C53.6664 134.688 53.4941 134.688 53.3266 134.721C53.1592 134.755 53 134.821 52.8581 134.916C52.7162 135.011 52.5944 135.132 52.4996 135.274C52.4048 135.416 52.3389 135.576 52.3057 135.743C52.1948 136.411 51.8862 137.031 51.4197 137.522C51.2093 137.729 50.959 137.891 50.6842 137.998C50.4093 138.106 50.1155 138.156 49.8206 138.147C49.4023 138.14 48.9877 138.067 48.5924 137.93C48.3126 137.838 48.0108 137.72 47.7017 137.586C48.0138 137.144 48.2703 136.666 48.4654 136.161C48.589 135.839 48.5799 135.482 48.44 135.167C48.3002 134.852 48.0411 134.606 47.7196 134.482C47.3981 134.358 47.0406 134.367 46.7256 134.506C46.4106 134.646 46.1639 134.905 46.0396 135.226C45.755 135.959 45.2643 136.594 44.6268 137.054C44.0198 137.497 43.2862 137.734 42.5345 137.728C41.5123 137.693 40.5253 137.346 39.7056 136.734C40.2366 136.165 40.6703 135.512 40.9893 134.801C41.0586 134.645 41.0965 134.477 41.1008 134.306C41.1051 134.136 41.0758 133.966 41.0144 133.807C40.9531 133.647 40.861 133.502 40.7434 133.378C40.6258 133.254 40.4849 133.155 40.3289 133.086C40.1729 133.016 40.0048 132.978 39.8341 132.974C39.6635 132.97 39.4937 132.999 39.3343 133.061C39.175 133.122 39.0294 133.214 38.9057 133.332C38.7819 133.449 38.6826 133.59 38.6133 133.746L38.6131 133.746C38.3081 134.448 37.8237 135.057 37.2085 135.513C36.6797 135.911 36.0385 136.131 35.3768 136.143C34.8805 136.122 34.3948 135.994 33.9536 135.766C33.5124 135.537 33.1265 135.216 32.823 134.822C29.5081 131.094 28.3826 127.454 28.3855 124.926C28.3836 124.517 28.4157 124.108 28.4815 123.704C28.5388 123.364 28.4586 123.016 28.2588 122.735C28.0589 122.454 27.7556 122.264 27.4157 122.207C27.0758 122.149 26.727 122.23 26.4461 122.429C26.1652 122.629 25.9753 122.933 25.918 123.273C25.8279 123.819 25.7836 124.372 25.7857 124.926C25.8019 126.172 25.9882 127.409 26.3394 128.604C25.8689 128.484 25.4358 128.249 25.0794 127.919C24.8591 127.686 24.6878 127.41 24.5756 127.11C24.4634 126.809 24.4126 126.489 24.4261 126.168C24.4508 125.265 24.7419 124.39 25.2628 123.652C25.4566 123.368 25.5298 123.018 25.4663 122.68C25.4029 122.342 25.208 122.042 24.9243 121.848C24.6406 121.653 24.2913 121.579 23.953 121.641C23.6146 121.704 23.3148 121.898 23.1192 122.181C22.2997 123.351 21.8494 124.74 21.8262 126.168C21.813 126.828 21.9303 127.484 22.1715 128.098C22.4127 128.713 22.7731 129.273 23.2317 129.748C24.3692 130.806 25.8629 131.399 27.4165 131.407C28.3262 133.274 29.4916 135.004 30.8792 136.549C31.4271 137.217 32.1125 137.758 32.8887 138.137C33.6648 138.515 34.5135 138.722 35.3767 138.743C36.1572 138.735 36.9272 138.562 37.636 138.235C37.7216 138.437 37.8582 138.614 38.0325 138.747L38.0323 138.746C39.3263 139.74 40.9036 140.294 42.5345 140.328C43.6294 140.327 44.7039 140.031 45.6453 139.472C46.3306 139.84 47.0451 140.15 47.7815 140.4C48.4385 140.623 49.1268 140.74 49.8206 140.747C50.4516 140.755 51.0779 140.638 51.6639 140.404C52.2499 140.17 52.7841 139.823 53.2359 139.383C54.0793 138.525 54.6439 137.433 54.8555 136.25C54.9226 135.911 54.8527 135.56 54.6611 135.274C54.4695 134.987 54.1719 134.789 53.8338 134.721Z"/><path id="Vector_14" d="M95.771 118.683L94.6018 109.566L94.6013 109.559L94.5999 109.55L94.5777 109.377C94.5745 109.354 94.5598 109.336 94.5557 109.313C94.2348 107.757 93.37 106.367 92.1164 105.392C91.0713 104.55 89.9128 103.858 88.675 103.338C88.7625 103.271 88.8408 103.192 88.908 103.104C89.3752 102.726 89.8113 102.341 90.2082 101.949C91.0128 101.176 91.693 100.283 92.2246 99.3015C92.7133 98.3996 92.9758 97.3926 92.9897 96.367C92.9899 96.1343 92.9753 95.9019 92.946 95.671L91.7751 86.5492L91.7749 86.5433L91.7737 86.5368L91.7515 86.3637C91.7485 86.3405 91.7341 86.3229 91.73 86.3002C91.4136 84.7593 90.5616 83.3804 89.3252 82.408C87.8269 81.2174 86.1283 80.3037 84.3091 79.7096L84.0942 78.0337C84.0813 77.9864 84.0656 77.9399 84.0471 77.8944C83.8141 76.7358 83.2564 75.6674 82.439 74.8139C81.4788 73.8293 80.3529 73.0212 79.1128 72.4265L78.7337 69.4712L78.7332 69.4651L78.732 69.459L78.7095 69.2836C78.7059 69.2553 78.6885 69.2336 78.6832 69.206C78.5346 68.3807 78.2105 67.5969 77.7329 66.9076C77.2151 66.1767 76.5847 65.5323 75.8653 64.9986L75.2864 60.4836L75.2859 60.4765L75.2854 60.4736L75.2844 60.4688L75.2622 60.2955C75.2578 60.2612 75.2371 60.2346 75.2302 60.2012C75.0551 59.2617 74.6575 58.3779 74.0705 57.6237C73.9709 57.4968 73.8484 57.3897 73.7092 57.308C73.8301 57.1955 73.9556 57.084 74.0705 56.9704C74.8751 56.1972 75.5552 55.3043 76.0869 54.3233C76.5755 53.4214 76.8381 52.4145 76.852 51.3889C76.8522 51.1563 76.8376 50.924 76.8083 50.6933L76.323 46.909C76.4722 46.772 76.6238 46.6356 76.7642 46.4968C77.5687 45.7235 78.2489 44.8306 78.7807 43.8495C79.2692 42.9476 79.5317 41.9406 79.5456 40.915C79.5458 40.6817 79.5311 40.4486 79.5014 40.2172L78.3323 31.0998L78.3318 31.0927H78.3313L78.3311 31.0913L78.3316 31.0911L78.3301 31.0837L78.3081 30.9117C78.3052 30.8884 78.2905 30.8705 78.2864 30.8476C77.9658 29.2923 77.1012 27.9022 75.8479 26.9271C73.298 25.0442 70.3486 23.7742 67.2285 23.2155C63.0117 22.3297 58.7109 21.9068 54.4023 21.9543C50.5712 21.9634 46.7445 22.2187 42.946 22.7186C35.1833 23.603 27.608 25.7026 20.4976 28.9406C17.959 30.1072 15.6221 31.6702 13.5745 33.5708C12.7699 34.3441 12.0897 35.2372 11.5579 36.2183C11.0694 37.1203 10.8069 38.1273 10.793 39.153C10.793 39.3863 10.808 39.6193 10.8376 39.8507L10.8379 39.8523V39.8529L11.3232 43.6361C11.3118 43.6461 11.2966 43.6488 11.2854 43.6592C10.3733 44.4716 9.59497 45.4228 8.97925 46.4777C8.41975 47.4341 8.11644 48.5187 8.09863 49.6266C8.09871 49.8599 8.11363 50.093 8.14331 50.3244L8.146 50.339L8.54663 53.4647C8.44119 53.5125 8.34285 53.5746 8.25439 53.6492C7.39501 54.4429 6.66501 55.3661 6.09082 56.3853C5.56647 57.3156 5.28345 58.3624 5.26758 59.4302C5.26765 59.6633 5.28258 59.8962 5.31226 60.1275L5.31519 60.143L6.48319 69.254C6.68489 70.5997 7.32246 71.842 8.29812 72.7905C8.28384 72.8723 8.27787 72.9553 8.2803 73.0384L8.96267 78.3605C9.23019 80.0139 10.1182 81.5031 11.4456 82.5245C11.5864 82.6423 11.7427 82.7521 11.8926 82.8652C11.8747 82.9599 11.8678 83.0563 11.8721 83.1526L12.4099 87.3488C12.6774 89.0022 13.5654 90.4913 14.8928 91.5127C15.6699 92.1479 16.516 92.6935 17.4153 93.1391L17.7947 96.0988C18.0619 97.7521 18.9497 99.2413 20.2771 100.263C21.0209 100.87 21.8285 101.395 22.6858 101.828C21.9006 102.505 21.1984 103.274 20.594 104.117C19.7564 105.245 19.2864 106.604 19.2478 108.009C19.2478 108.243 19.2629 108.477 19.293 108.71V108.711L20.4626 117.834C20.7301 119.488 21.6181 120.977 22.9455 121.998C24.4479 123.181 26.1476 124.09 27.9663 124.681C27.9551 124.751 27.9501 124.822 27.9512 124.893L28.2781 127.443C28.5456 129.096 29.4336 130.585 30.761 131.606C33.3106 133.489 36.2599 134.759 39.3799 135.318C43.5966 136.204 47.8975 136.627 52.206 136.579C52.7615 136.579 53.3335 136.562 53.9004 136.551C54.0788 136.61 54.2682 136.63 54.4551 136.608C54.5258 136.591 54.595 136.567 54.6616 136.538C57.5466 136.452 60.5627 136.218 63.6626 135.815C71.4252 134.93 79.0004 132.83 86.1108 129.593C87.8887 128.742 89.5822 127.725 91.1687 126.555C91.3946 126.466 91.5903 126.315 91.7329 126.118C92.2004 125.74 92.6367 125.355 93.0337 124.963C93.8383 124.189 94.5185 123.296 95.0503 122.315C95.5388 121.413 95.8012 120.406 95.8152 119.381C95.8154 119.147 95.8006 118.914 95.771 118.683ZM92.0215 109.885L92.0227 109.894C92.0377 110.013 92.0452 110.134 92.0452 110.254C92.0309 110.862 91.8691 111.457 91.5738 111.988C90.7169 113.42 89.5496 114.642 88.158 115.563C84.8699 117.784 81.2729 119.509 77.4825 120.683C76.6021 120.977 75.6839 121.257 74.7461 121.528C75.9944 121.034 77.1953 120.523 78.2964 119.985C80.0744 119.133 81.7681 118.116 83.3548 116.946C83.5803 116.857 83.7759 116.706 83.9185 116.51C84.386 116.132 84.8223 115.747 85.2195 115.354C86.0239 114.581 86.704 113.688 87.2359 112.707C87.7243 111.805 87.9868 110.798 88.0008 109.772C88.001 109.539 87.9862 109.306 87.9566 109.075L87.5191 105.665C88.5703 106.095 89.5547 106.673 90.4424 107.382C91.269 107.984 91.834 108.88 92.0215 109.885ZM32.3028 123.207L31.4314 116.799C32.2408 116.96 33.0808 117.102 33.9517 117.226L34.8291 123.675C33.9507 123.536 33.1011 123.383 32.3028 123.207ZM49.8548 117.571L50.2849 120.93C50.3053 121.1 50.3593 121.265 50.4437 121.414C50.528 121.564 50.6411 121.695 50.7765 121.8C50.9118 121.906 51.0667 121.983 51.2322 122.029C51.3978 122.074 51.5706 122.086 51.7408 122.064C51.911 122.043 52.0753 121.987 52.224 121.902C52.3728 121.816 52.5031 121.702 52.6075 121.566C52.7119 121.43 52.7883 121.274 52.8323 121.108C52.8763 120.942 52.887 120.769 52.8638 120.599L52.4458 117.335C53.186 117.257 53.9268 117.178 54.6772 117.081C60.5079 116.353 66.2403 114.984 71.7705 112.998C73.2888 112.437 74.7058 111.841 76.0354 111.22L76.3503 113.673C76.3721 113.843 76.427 114.006 76.5119 114.154C76.5968 114.302 76.71 114.432 76.8451 114.537C76.9802 114.641 77.1346 114.718 77.2993 114.762C77.4641 114.807 77.636 114.819 77.8054 114.797C77.9747 114.775 78.1381 114.72 78.2862 114.636C78.4343 114.551 78.5643 114.437 78.6686 114.302C78.773 114.167 78.8497 114.013 78.8944 113.848C78.9391 113.683 78.951 113.511 78.9292 113.342L78.4978 109.983C79.2617 109.564 79.9724 109.133 80.6453 108.695L81.4685 115.112C78.1918 117.317 74.6106 119.031 70.8384 120.201C65.8511 121.83 60.7194 122.978 55.5134 123.629C52.9382 123.963 50.4304 124.17 48.0087 124.278L47.1718 117.739C48.0559 117.697 48.9502 117.641 49.8548 117.571V117.571ZM24.5205 92.7762L23.7685 86.8996C24.5822 87.0138 25.4172 87.1143 26.279 87.196L27.0515 93.2328C26.1697 93.0992 25.3237 92.9477 24.5205 92.7762ZM10.6402 71.4283C9.81321 70.8258 9.24847 69.9294 9.06203 68.9234L8.53737 64.8321C10.6072 66.161 12.8967 67.1115 15.2991 67.6393L16.1199 74.0553C15.7461 73.9442 15.3709 73.8335 15.023 73.713C13.4375 73.2189 11.9532 72.4451 10.6402 71.4283ZM41.4007 48.7128L41.8904 52.5399C41.9108 52.7103 41.9647 52.875 42.0491 53.0244C42.1335 53.1739 42.2466 53.3051 42.3819 53.4106C42.5173 53.5161 42.6722 53.5938 42.8377 53.6391C43.0032 53.6845 43.1761 53.6966 43.3463 53.6748C43.5165 53.653 43.6807 53.5977 43.8295 53.5122C43.9782 53.4266 44.1086 53.3124 44.2129 53.1762C44.3173 53.04 44.3937 52.8845 44.4377 52.7186C44.4817 52.5527 44.4924 52.3798 44.4693 52.2097L43.9915 48.4767C44.7317 48.3984 45.472 48.32 46.2222 48.2226C53.5879 47.3609 60.7887 45.4298 67.5972 42.4902L67.8953 44.8156C67.9163 44.9855 67.9707 45.1496 68.0553 45.2984C68.1399 45.4472 68.2531 45.5778 68.3884 45.6828C68.5236 45.7877 68.6782 45.865 68.8434 45.91C69.0085 45.955 69.181 45.967 69.3508 45.9452C69.5206 45.9235 69.6844 45.8684 69.8329 45.7831C69.9813 45.6979 70.1115 45.5841 70.2158 45.4484C70.3202 45.3128 70.3968 45.1578 70.4411 44.9924C70.4854 44.8271 70.4967 44.6546 70.4742 44.4849L70.0708 41.3384C70.0684 41.3194 70.0564 41.3049 70.053 41.2861C70.8184 40.8737 71.5384 40.4505 72.2132 40.0164L73.0135 46.2543C69.7368 48.4591 66.1556 50.1734 62.3833 51.3428C57.3961 52.972 52.2643 54.12 47.0583 54.7713C44.4831 55.1054 41.9753 55.3124 39.5537 55.4208L38.7175 48.8805C39.6016 48.8386 40.496 48.7826 41.4007 48.7128ZM82.7088 87.6711C82.7243 87.7928 82.732 87.9153 82.7319 88.038C82.7178 88.6457 82.556 89.2409 82.2605 89.7721C81.9567 90.3252 81.5851 90.8382 81.1543 91.2992L80.3872 85.3192C80.7332 85.0327 81.0659 84.7433 81.3706 84.4478C81.6641 84.1623 81.9302 83.87 82.1834 83.5742L82.7088 87.6711ZM59.3318 100.798C59.2986 100.802 59.2732 100.822 59.2409 100.829C57.1848 101.247 55.0473 101.607 52.8445 101.893C50.2695 102.228 47.7617 102.435 45.3403 102.543L44.5134 96.0854C45.3943 96.0021 46.2849 95.902 47.1809 95.7917L47.6091 99.1385C47.6308 99.3078 47.6856 99.4712 47.7704 99.6194C47.8552 99.7675 47.9684 99.8975 48.1034 100.002C48.2385 100.106 48.3928 100.183 48.5575 100.228C48.7223 100.273 48.8942 100.285 49.0635 100.263C49.2329 100.241 49.3963 100.186 49.5444 100.102C49.6926 100.017 49.8226 99.9036 49.927 99.7686C50.0314 99.6335 50.1082 99.4792 50.153 99.3145C50.1977 99.1497 50.2096 98.9778 50.188 98.8085L49.7561 95.432C50.6985 95.2894 51.6273 95.1346 52.5427 94.9675C59.7032 94.0954 66.7092 92.2398 73.3625 89.4531L73.6814 91.9378C73.7031 92.1071 73.758 92.2705 73.8428 92.4186C73.9277 92.5668 74.0409 92.6967 74.176 92.8011C74.3111 92.9055 74.4655 92.9822 74.6302 93.0269C74.795 93.0716 74.9669 93.0835 75.1363 93.0618C75.3056 93.04 75.469 92.9852 75.6171 92.9003C75.7652 92.8154 75.8952 92.7022 75.9996 92.5671C76.1039 92.432 76.1807 92.2777 76.2254 92.1129C76.2701 91.9481 76.282 91.7762 76.2602 91.6069L75.8327 88.2741C76.5954 87.8734 77.3133 87.4619 77.9865 87.0395L78.7996 93.3774C75.523 95.5821 71.9419 97.2962 68.1697 98.4656C65.3253 99.4058 62.4278 100.177 59.4925 100.775C59.4385 100.782 59.386 100.791 59.3318 100.798H59.3318ZM34.833 102.292L34.0852 96.4487C34.8255 96.4704 35.5738 96.4854 36.3379 96.4855C36.4544 96.4855 36.5759 96.48 36.6929 96.4795L37.4646 102.508C36.5611 102.454 35.6839 102.382 34.833 102.292ZM29.7161 93.5729L28.9248 87.3895C29.7791 87.4352 30.6509 87.466 31.5403 87.4816L32.3452 93.7704C31.4465 93.7199 30.5647 93.6574 29.7161 93.5729ZM64.9334 53.1989L65.201 55.289C65.2214 55.4594 65.2753 55.6241 65.3597 55.7735C65.444 55.923 65.5571 56.0542 65.6925 56.1597C65.8278 56.2652 65.9827 56.3429 66.1482 56.3882C66.3138 56.4336 66.4866 56.4457 66.6568 56.4239C66.827 56.4021 66.9913 56.3468 67.14 56.2612C67.2888 56.1757 67.4191 56.0615 67.5235 55.9253C67.6279 55.7891 67.7043 55.6335 67.7483 55.4677C67.7923 55.3018 67.803 55.1289 67.7798 54.9588L67.4287 52.2178C68.1878 51.8976 68.9164 51.5684 69.6145 51.2303L70.3194 56.7282C67.0427 58.9328 63.4616 60.6471 59.6895 61.8167C54.7021 63.4459 49.5702 64.5938 44.364 65.2449C41.8748 65.5681 39.4495 65.7704 37.1023 65.8825L36.2649 59.3427C37.1487 59.2985 38.0427 59.2402 38.9468 59.1677L39.3435 62.2646C39.3639 62.435 39.4179 62.5997 39.5022 62.7491C39.5866 62.8986 39.6997 63.0298 39.8351 63.1353C39.9704 63.2408 40.1253 63.3185 40.2908 63.3638C40.4563 63.4092 40.6292 63.4213 40.7994 63.3995C40.9696 63.3777 41.1338 63.3224 41.2826 63.2369C41.4313 63.1513 41.5617 63.0371 41.6661 62.9009C41.7705 62.7647 41.8469 62.6092 41.8909 62.4433C41.9348 62.2774 41.9456 62.1045 41.9224 61.9344L41.5369 58.9243C42.1987 58.8525 42.8589 58.7843 43.5288 58.6974C50.2265 57.9508 56.8028 56.3601 63.1013 53.9632C63.2511 53.8999 63.3875 53.8088 63.5034 53.6947C63.9841 53.5309 64.4695 53.3693 64.9334 53.1989ZM51.6736 92.4676C51.615 92.4829 51.5577 92.5024 51.502 92.526C50.1819 92.7577 48.8345 92.9635 47.4597 93.1434C45.9295 93.342 44.4277 93.4876 42.9463 93.6054C42.9251 93.6071 42.906 93.5983 42.8848 93.601C42.8713 93.6027 42.8611 93.6112 42.8479 93.6134C41.9597 93.683 41.0831 93.7384 40.218 93.7798L39.3806 87.2352C40.2634 87.1682 41.1546 87.088 42.054 86.9945L42.4744 90.28C42.5181 90.622 42.696 90.9326 42.9687 91.1435C43.1038 91.2479 43.2581 91.3247 43.4228 91.3695C43.5875 91.4142 43.7595 91.4261 43.9288 91.4045C44.0981 91.3828 44.2615 91.328 44.4097 91.2432C44.5578 91.1584 44.6878 91.0452 44.7922 90.9101C44.8967 90.7751 44.9734 90.6208 45.0182 90.456C45.063 90.2913 45.0749 90.1194 45.0532 89.95L44.6362 86.6908C45.6511 86.5555 46.6565 86.4093 47.6438 86.2456C54.6436 85.3557 61.488 83.5085 67.9851 80.756L68.2966 83.1875C68.3173 83.3577 68.3715 83.5221 68.4559 83.6713C68.5404 83.8205 68.6535 83.9515 68.7888 84.0568C68.9241 84.1621 69.0789 84.2395 69.2443 84.2848C69.4097 84.33 69.5823 84.342 69.7524 84.3202C69.9224 84.2985 70.0865 84.2432 70.2351 84.1578C70.3837 84.0723 70.514 83.9584 70.6184 83.8224C70.7228 83.6864 70.7992 83.5311 70.8434 83.3654C70.8875 83.1998 70.8984 83.027 70.8755 82.8571L70.4539 79.5668C71.2165 79.1628 71.9342 78.7479 72.6067 78.3222L73.4151 84.6264C70.1384 86.8312 66.5573 88.5455 62.7852 89.7151C59.3464 90.8477 55.833 91.7394 52.2703 92.3836C52.0706 92.4108 51.8743 92.4416 51.6736 92.4676ZM24.0181 75.4975L23.1697 68.8657C24.0242 68.9339 24.8989 68.9867 25.7937 69.0242L26.646 75.6861C25.7478 75.6386 24.867 75.5785 24.0181 75.4975ZM62.1904 63.6897L62.3699 65.0917C62.3903 65.2621 62.4442 65.4268 62.5286 65.5762C62.613 65.7257 62.7261 65.8569 62.8614 65.9625C62.9968 66.068 63.1517 66.1456 63.3172 66.191C63.4827 66.2363 63.6556 66.2484 63.8258 66.2266C63.996 66.2048 64.1602 66.1496 64.309 66.064C64.4577 65.9784 64.588 65.8642 64.6924 65.728C64.7968 65.5918 64.8732 65.4363 64.9172 65.2704C64.9612 65.1045 64.9719 64.9316 64.9487 64.7615L64.6863 62.7109C65.4451 62.3916 66.1738 62.0633 66.8723 61.7261L67.4883 66.5314C64.2117 68.7361 60.6306 70.4503 56.8584 71.6197C51.871 73.2488 46.7391 74.3967 41.533 75.0477C39.1299 75.3597 36.7874 75.5583 34.5161 75.6733L33.655 68.9453C34.5381 68.8965 35.4315 68.8336 36.3352 68.7567L36.7537 72.0262C36.7974 72.3682 36.9753 72.6788 37.248 72.8897C37.5208 73.1005 37.8661 73.1944 38.2081 73.1506C38.5501 73.1069 38.8607 72.9291 39.0716 72.6563C39.2824 72.3835 39.3763 72.0382 39.3326 71.6962L38.9239 68.5029C39.514 68.4371 40.1004 68.3781 40.6968 68.3007C40.7693 68.2832 40.8401 68.2591 40.9082 68.2287C42.1577 68.1176 43.4182 67.9894 44.6988 67.8233C50.6624 67.0864 56.5278 65.7003 62.1904 63.6897ZM73.8767 69.9328C73.8922 70.0544 73.9 70.1769 73.8999 70.2996C73.8857 70.9072 73.724 71.5023 73.4285 72.0335C73.1246 72.5865 72.753 73.0994 72.3223 73.5605L71.5605 67.6229C71.907 67.3322 72.2402 67.0385 72.5451 66.7389C72.8371 66.4511 73.1023 66.1567 73.3542 65.8591L73.8767 69.9328ZM46.2888 83.8172C46.2644 83.8204 46.2458 83.8354 46.2222 83.8399C45.4929 83.9526 44.7564 84.0576 44.0125 84.1551C41.5801 84.4708 39.2097 84.6706 36.9124 84.7845L36.0696 78.1963C36.9519 78.1374 37.844 78.0642 38.7459 77.9767L39.1375 81.0407C39.1591 81.2101 39.2139 81.3735 39.2987 81.5216C39.3835 81.6698 39.4967 81.7998 39.6317 81.9042C39.7668 82.0087 39.921 82.0855 40.0858 82.1303C40.2505 82.1751 40.4224 82.187 40.5918 82.1653C40.7611 82.1437 40.9245 82.0889 41.0727 82.0041C41.2208 81.9193 41.3508 81.8061 41.4552 81.6711C41.5597 81.536 41.6365 81.3818 41.6813 81.217C41.7261 81.0523 41.738 80.8804 41.7163 80.711L41.3299 77.6872C41.51 77.6648 41.6868 77.6494 41.8677 77.626C42.1936 77.5835 42.5083 77.529 42.8316 77.4836C42.9449 77.5076 43.061 77.5158 43.1766 77.5079C50.5351 76.648 57.7315 74.7328 64.544 71.8213L64.8494 74.1997C64.8933 74.5417 65.0713 74.8522 65.3442 75.063C65.4793 75.1673 65.6336 75.244 65.7984 75.2887C65.9632 75.3335 66.1351 75.3453 66.3044 75.3235C66.4738 75.3018 66.6372 75.2469 66.7853 75.162C66.9334 75.0771 67.0633 74.9639 67.1677 74.8288C67.2721 74.6937 67.3488 74.5393 67.3935 74.3746C67.4382 74.2098 67.45 74.0378 67.4283 73.8685L67.0113 70.6219C67.7732 70.2143 68.4905 69.7962 69.1631 69.3674L69.9676 75.6386C66.6908 77.8433 63.1097 79.5575 59.3374 80.7271C55.2397 82.0713 51.0399 83.0816 46.7791 83.7481C46.6148 83.7702 46.4539 83.7958 46.2888 83.8172ZM30.4094 75.7903C30.0127 75.7905 29.6294 75.7787 29.2395 75.7726C29.2492 75.7089 29.2538 75.6445 29.2534 75.58L28.4224 69.0845C28.5838 69.0855 28.7415 69.0899 28.9041 69.0899C29.6065 69.0899 30.3269 69.0718 31.0479 69.0534L31.9068 75.7649C31.4065 75.7745 30.8997 75.7903 30.4094 75.7903ZM71.3982 60.8255C71.4135 60.947 71.4212 61.0693 71.4212 61.1917C71.4069 61.7994 71.2451 62.3946 70.9497 62.9259C70.6458 63.4792 70.2741 63.9924 69.843 64.4535L69.3335 60.4781C69.3321 60.4671 69.325 60.4588 69.3233 60.4479C69.9868 60.0682 70.6125 59.6797 71.2003 59.2824L71.3982 60.8255ZM33.2424 65.9871C32.7637 65.9874 32.2996 65.9747 31.8308 65.9657C31.8382 65.913 31.842 65.8598 31.8423 65.8066L31.0288 59.4491C31.376 59.4538 31.72 59.4611 32.072 59.4611C32.591 59.4611 33.1262 59.4445 33.6555 59.4343L34.4917 65.966C34.0757 65.9726 33.6516 65.9871 33.2424 65.9871ZM28.3977 59.3706L29.2295 65.871C28.3306 65.8201 27.449 65.7569 26.6001 65.6722L25.7705 59.1862C26.6262 59.2631 27.5 59.3263 28.3977 59.3707L28.3977 59.3706ZM30.843 78.383C31.7048 78.3783 32.579 78.3602 33.4656 78.3285L34.3027 84.8733C33.8313 84.8818 33.353 84.8973 32.8906 84.8973C32.4658 84.8974 32.0547 84.8853 31.6379 84.8783C31.6467 84.8184 31.651 84.7578 31.6509 84.6972L30.843 78.383ZM34.1607 87.4757C35.0217 87.4623 35.8948 87.4351 36.7798 87.394L37.6077 93.864C37.1848 93.8709 36.7537 93.8855 36.3379 93.8855C35.866 93.8858 35.408 93.8732 34.9458 93.8645C34.9533 93.8107 34.9572 93.7564 34.9575 93.702L34.1607 87.4757ZM77.325 78.9202C77.3403 79.0417 77.3479 79.164 77.3479 79.2864C77.3336 79.8942 77.1718 80.4893 76.8765 81.0207C76.5726 81.574 76.2008 82.0872 75.7698 82.5485L75.0061 76.5898C75.3518 76.3012 75.6848 76.0099 75.9895 75.7124C76.2822 75.4257 76.5481 75.1322 76.8008 74.8354L77.325 78.9202ZM20.5862 58.4782C21.3963 58.6332 22.2422 58.7673 23.1111 58.8864L23.9356 65.3311C23.054 65.1972 22.2073 65.0456 21.4046 64.8736L20.5862 58.4782ZM18.8174 74.726C18.8159 74.7101 18.823 74.6957 18.8208 74.6796L17.9937 68.2143C18.8059 68.3593 19.6443 68.4892 20.5144 68.5984L21.3557 75.174C20.4703 75.0441 19.6241 74.8948 18.8174 74.726V74.726ZM28.2185 78.3555L29.0415 84.789C28.1433 84.7404 27.262 84.6797 26.4133 84.5976L25.5989 78.2323C26.4534 78.2887 27.3266 78.3298 28.2185 78.3555ZM40.0735 102.611C40.0787 102.569 40.0817 102.527 40.0825 102.484L39.3074 96.4282C40.168 96.3972 41.0374 96.3562 41.9197 96.298L42.7287 102.619C42.3943 102.623 42.051 102.636 41.7212 102.636C41.1624 102.636 40.6184 102.623 40.0735 102.611ZM36.1072 48.9643L36.9424 55.4965C36.6084 55.5007 36.2659 55.5135 35.9365 55.5135C35.3772 55.5138 34.8328 55.5007 34.2874 55.4886C34.2926 55.4464 34.2956 55.4039 34.2964 55.3613L33.4787 48.9723C33.905 48.9794 34.3303 48.9871 34.7639 48.9871C35.2044 48.987 35.6594 48.9716 36.1072 48.9643ZM30.8462 48.882L31.6785 55.3859C30.7752 55.3314 29.898 55.2592 29.0469 55.1695L28.2181 48.6913C29.0723 48.7714 29.9483 48.835 30.8462 48.882H30.8462ZM25.5569 48.3771L26.3811 54.8184C25.5002 54.6797 24.6487 54.5265 23.8484 54.3495L23.03 47.9522C23.8411 48.1126 24.6855 48.2533 25.5569 48.3771H25.5569ZM20.3276 47.3171L21.1338 53.6188C20.9409 53.5573 20.7344 53.5007 20.5488 53.4363C18.9632 52.9421 17.4787 52.1683 16.1655 51.1514C15.3385 50.5488 14.7737 49.6522 14.5874 48.646L14.0659 44.5822C15.9829 45.8425 18.1004 46.7673 20.3277 47.3171H20.3276ZM17.8865 57.8639L18.6936 64.1716C18.4124 64.0849 18.1209 64.0021 17.8548 63.9099C16.2691 63.4158 14.7846 62.642 13.4715 61.625C12.6443 61.0225 12.0795 60.1259 11.8931 59.1197L11.3721 55.0566C13.3643 56.3631 15.5687 57.313 17.8865 57.8639ZM22.948 77.9997L23.75 84.2674C22.8665 84.1363 22.0217 83.986 21.2158 83.8166C21.2151 83.8097 21.218 83.8036 21.2173 83.7968L20.4336 77.6708C21.2439 77.7986 22.0869 77.9055 22.948 77.9997ZM31.448 96.3228L32.167 101.941C31.2864 101.802 30.4346 101.649 29.6345 101.472L28.9473 96.1029C29.7605 96.1909 30.5941 96.2642 31.448 96.3228ZM28.8955 103.974C30.4564 104.321 32.0339 104.587 33.6218 104.773L34.1555 108.939C34.1033 108.922 34.0442 108.906 33.9924 108.889C32.4068 108.394 30.9223 107.62 29.6091 106.604C28.782 106.001 28.2172 105.104 28.0308 104.098L27.9861 103.75C28.2866 103.826 28.5847 103.903 28.8955 103.974ZM36.8748 109.705L36.2764 105.034C37.092 105.096 37.9285 105.142 38.78 105.175C38.7815 105.198 38.7722 105.218 38.7752 105.241L39.4102 110.206C38.5242 110.058 37.6755 109.892 36.8748 109.705L36.8748 109.705ZM42.0784 110.573L41.395 105.232C41.5047 105.233 41.6111 105.236 41.7212 105.236C42.4739 105.236 43.2432 105.219 44.0164 105.197C44.0181 105.235 44.0037 105.269 44.0086 105.307L44.7127 110.813C43.8054 110.752 42.9317 110.669 42.0784 110.573L42.0784 110.573ZM46.6008 105.083C47.449 105.034 48.3069 104.97 49.1731 104.895L49.978 110.956C49.7808 110.957 49.5764 110.966 49.3806 110.966C48.687 110.966 48.0076 110.953 47.3352 110.935C47.3335 110.91 47.3435 110.888 47.3404 110.863L46.6008 105.083ZM52.5928 110.893L51.7615 104.633C52.2341 104.579 52.7024 104.534 53.1792 104.472C53.6101 104.416 54.0271 104.345 54.4534 104.284L54.8689 107.527C54.8896 107.698 54.9437 107.862 55.0282 108.011C55.1126 108.16 55.2258 108.291 55.3611 108.397C55.4964 108.502 55.6512 108.579 55.8166 108.625C55.9819 108.67 56.1546 108.682 56.3246 108.66C56.4947 108.638 56.6587 108.583 56.8074 108.498C56.956 108.412 57.0862 108.298 57.1906 108.162C57.295 108.026 57.3715 107.871 57.4156 107.705C57.4597 107.54 57.4707 107.367 57.4478 107.197L57.0232 103.883C58.0117 103.714 58.9868 103.532 59.9426 103.336C67.192 102.471 74.2858 100.603 81.02 97.7831L81.3386 100.268C81.3597 100.438 81.4141 100.602 81.4987 100.751C81.5833 100.899 81.6965 101.03 81.8317 101.135C81.9669 101.24 82.1216 101.317 82.2867 101.362C82.4519 101.407 82.6243 101.419 82.7941 101.397C82.9639 101.376 83.1277 101.321 83.2762 101.235C83.4247 101.15 83.5548 101.036 83.6592 100.901C83.7636 100.765 83.8401 100.61 83.8844 100.445C83.9288 100.279 83.94 100.107 83.9175 99.9371L83.4902 96.6042C84.2532 96.2034 84.9714 95.7918 85.6448 95.3693L86.4578 101.706C83.1809 103.911 79.5996 105.626 75.8272 106.795C70.8401 108.424 65.7085 109.572 60.5027 110.223C57.7847 110.576 55.1377 110.791 52.5928 110.893L52.5928 110.893ZM85.3777 109.406C85.3932 109.527 85.4009 109.65 85.4009 109.772C85.3866 110.38 85.2248 110.975 84.9294 111.507C84.6256 112.06 84.254 112.573 83.8232 113.034L83.0408 106.934C83.1382 106.851 83.2466 106.771 83.3408 106.688C83.4058 106.62 83.4629 106.545 83.5109 106.465C83.9921 106.225 84.4573 105.982 84.9064 105.734L85.3777 109.406ZM44.5615 117.822L45.3972 124.354C45.0632 124.358 44.7209 124.371 44.3913 124.371C43.8313 124.371 43.2861 124.358 42.74 124.346C42.7455 124.299 42.7484 124.252 42.7485 124.205L41.8596 117.829C42.3103 117.837 42.7615 117.845 43.2204 117.845C43.6602 117.845 44.1145 117.83 44.5615 117.822ZM39.2214 117.735L40.1289 124.243C39.2268 124.189 38.3509 124.117 37.5012 124.027L36.6191 117.545C37.4646 117.625 38.3338 117.687 39.2215 117.735L39.2214 117.735ZM41.5242 126.913C41.4834 127.067 41.4718 127.228 41.49 127.387L42.2366 133.219C41.3498 133.071 40.501 132.906 39.6999 132.718L38.9382 126.768C39.7801 126.832 40.6443 126.879 41.5242 126.913L41.5242 126.913ZM44.0769 127.119C44.938 127.205 45.8264 127.272 46.7327 127.325C46.7272 127.368 46.7241 127.41 46.7234 127.453L47.5388 133.826C46.6316 133.766 45.758 133.683 44.9045 133.587L44.0769 127.119ZM89.9185 98.1011C89.6147 98.6541 89.2432 99.167 88.8125 99.6281L88.0454 93.6489C88.3914 93.3625 88.7241 93.0731 89.0288 92.7774C89.322 92.4921 89.5882 92.1999 89.8413 91.9042L90.367 96.0003C90.3823 96.1219 90.3899 96.2444 90.3899 96.367C90.3756 96.9747 90.2139 97.5698 89.9185 98.1011ZM87.6422 84.3898C88.456 84.99 89.0112 85.877 89.1954 86.8713L89.1966 86.8801C89.2116 86.9996 89.2191 87.1199 89.2193 87.2404C89.2058 87.8406 89.0449 88.4282 88.7508 88.9515C87.8949 90.3612 86.7299 91.558 85.3438 92.4516C84.0335 93.3598 82.6506 94.1586 81.2093 94.84C81.2254 94.8198 81.2349 94.7963 81.2498 94.7752C81.7171 94.3972 82.1534 94.0125 82.5503 93.6198C83.3549 92.8466 84.0351 91.9536 84.5669 90.9726C85.0554 90.0706 85.3179 89.0637 85.3318 88.038C85.332 87.8047 85.3173 87.5717 85.2876 87.3403L84.6855 82.6452C85.7506 83.0799 86.7466 83.6677 87.6421 84.3898L87.6422 84.3898ZM80.5325 76.5818C81.068 77.1125 81.4202 77.8001 81.5379 78.5447C81.5534 78.6663 81.5611 78.7887 81.5611 78.9112C81.5476 79.5112 81.3867 80.0988 81.0926 80.622C80.3483 81.8578 79.3524 82.9231 78.1695 83.7488C78.5557 83.2734 78.8951 82.7617 79.1829 82.221C79.6714 81.319 79.9338 80.3121 79.9478 79.2864C79.9479 79.0538 79.9333 78.8215 79.9041 78.5907L79.535 75.7143C79.8938 75.9717 80.2278 76.2621 80.5325 76.5818L80.5325 76.5818ZM73.7808 53.1227C73.4769 53.676 73.1051 54.1892 72.6741 54.6503L72.105 50.2096C72.0861 50.1273 72.0589 50.047 72.0237 49.9701C72.7029 49.5814 73.3421 49.1832 73.9412 48.7758L74.2293 51.0226C74.2446 51.1441 74.2523 51.2664 74.2522 51.3888C74.238 51.9965 74.0762 52.5916 73.7808 53.1227ZM76.4744 42.6491C76.1706 43.2021 75.799 43.7151 75.3682 44.1762L74.6092 38.2604C74.9559 37.9674 75.2891 37.6718 75.594 37.3703C75.8855 37.081 76.1502 36.7854 76.4019 36.4867L76.9226 40.548C76.9381 40.6697 76.9459 40.7923 76.9458 40.915C76.9317 41.5227 76.7699 42.1179 76.4744 42.6491H76.4744ZM13.8643 37.4186C14.7212 35.9867 15.8884 34.7652 17.28 33.8443C20.5681 31.6231 24.1651 29.898 27.9556 28.7245C32.9429 27.0955 38.0747 25.9477 43.2808 25.2968C46.9683 24.8115 50.6831 24.5635 54.4024 24.5543C59.6093 24.4263 64.8034 25.1274 69.7901 26.6313C71.3759 27.1255 72.8605 27.8994 74.1739 28.9164C75 29.5187 75.5646 30.4141 75.752 31.4191L75.7527 31.4257C75.768 31.546 75.7757 31.6671 75.7757 31.7884C75.7614 32.3961 75.5996 32.9913 75.3042 33.5226C74.4473 34.9545 73.2801 36.1759 71.8885 37.0967C68.6005 39.3179 65.0034 41.0429 61.2129 42.2163C56.2255 43.8454 51.0936 44.9933 45.8875 45.6443C42.1994 46.1298 38.4839 46.3778 34.7639 46.387C29.5574 46.5149 24.3637 45.8137 19.3775 44.3098C17.792 43.8156 16.3077 43.0418 14.9946 42.0249C14.1677 41.4225 13.603 40.5261 13.4165 39.5201C13.4008 39.3983 13.3929 39.2757 13.3928 39.153C13.407 38.5452 13.5688 37.95 13.8643 37.4186ZM11.2488 47.7463C11.4002 47.4831 11.5689 47.2302 11.7537 46.9892L12.0086 48.9769C12.2761 50.6302 13.1641 52.1193 14.4915 53.1407C15.4869 53.9443 16.5861 54.61 17.7595 55.1196C17.3933 55.0104 17.0249 54.9021 16.6838 54.784C15.0982 54.2898 13.6137 53.5159 12.3005 52.4991C11.4752 51.8973 10.911 51.0029 10.7234 49.9989L10.7232 49.9966L10.7222 49.9938V49.9937C10.7064 49.872 10.6985 49.7493 10.6985 49.6266C10.7169 48.9629 10.9064 48.3152 11.2488 47.7463ZM8.37868 57.6209C8.55096 57.3098 8.74719 57.0126 8.96559 56.7319L9.31422 59.4504C9.58171 61.1038 10.4697 62.593 11.7971 63.6144C11.8789 63.6829 11.9719 63.7455 12.0569 63.8123C11.1172 63.4139 10.2359 62.8899 9.43703 62.2548C8.62685 61.6652 8.07392 60.7871 7.89235 59.8018L7.89211 59.7994L7.89111 59.7966V59.7965C7.87536 59.6751 7.86745 59.5527 7.86743 59.4303C7.88369 58.7939 8.05948 58.1717 8.37868 57.6209ZM11.134 74.8525C13.173 75.8954 15.3423 76.661 17.5842 77.129C17.6375 77.1411 17.6941 77.1511 17.7473 77.1628L18.5115 83.1347C18.1697 83.0319 17.8228 82.9309 17.503 82.8201C15.9173 82.3259 14.4329 81.5521 13.1197 80.5352C12.2926 79.9326 11.7279 79.036 11.5415 78.0298L11.134 74.8525ZM14.9888 87.0181L14.6633 84.4801C16.4 85.246 18.2096 85.8342 20.0645 86.236C20.3983 86.3114 20.7444 86.3799 21.0897 86.4488L21.8099 92.0766C21.5213 91.988 21.223 91.9028 20.9503 91.8084C19.3646 91.3142 17.8802 90.5404 16.567 89.5235C15.7399 88.9208 15.1752 88.0243 14.9888 87.0181V87.0181ZM20.3735 95.7684L20.1836 94.2868C21.2758 94.6571 22.3867 94.9701 23.5117 95.2243C24.3943 95.4237 25.3198 95.599 26.2815 95.7524L26.9199 100.741C26.7266 100.68 26.5198 100.623 26.3342 100.559C24.7487 100.064 23.2644 99.2905 21.9514 98.2735C21.1244 97.671 20.5597 96.7745 20.3735 95.7684ZM22.7307 105.598C23.4473 104.628 24.3052 103.771 25.2759 103.056L25.4519 104.429C25.7194 106.082 26.6073 107.571 27.9348 108.593C30.4846 110.476 33.434 111.746 36.5542 112.304C40.771 113.19 45.072 113.613 49.3806 113.566C53.2119 113.557 57.0387 113.301 60.8374 112.802C63.1352 112.503 65.3628 112.125 67.5095 111.686C63.207 112.991 58.8025 113.933 54.3425 114.503C50.6549 114.988 46.9399 115.236 43.2205 115.245C38.0136 115.373 32.8195 114.672 27.8328 113.168C26.2472 112.674 24.7627 111.9 23.4495 110.883C22.6225 110.28 22.0578 109.384 21.8716 108.378C21.8557 108.255 21.8477 108.132 21.8477 108.009C21.8881 107.134 22.1963 106.292 22.7307 105.598L22.7307 105.598ZM23.0415 117.503L22.5202 113.44C24.4188 114.689 26.5151 115.608 28.7202 116.157L29.5789 122.473C29.3892 122.413 29.1858 122.357 29.0032 122.294C27.4176 121.8 25.9331 121.026 24.6199 120.009C23.7928 119.406 23.2279 118.51 23.0415 117.503H23.0415ZM32.435 129.617C31.608 129.015 31.0433 128.118 30.8569 127.112L30.6479 125.484C30.9509 125.56 31.2517 125.638 31.5649 125.71C33.1264 126.056 34.7044 126.322 36.2929 126.509C36.2944 126.524 36.2878 126.538 36.2897 126.554L36.9807 131.953C36.9287 131.935 36.8698 131.92 36.8183 131.902C35.2327 131.408 33.7483 130.634 32.4351 129.617H32.435ZM50.1614 133.948C50.1596 133.924 50.1697 133.902 50.1665 133.877L49.342 127.433C49.9009 127.445 50.4646 127.453 51.0364 127.453C51.3428 127.453 51.6611 127.441 51.9709 127.437L52.8069 133.969C52.6086 133.971 52.4028 133.979 52.2061 133.979C51.5127 133.98 50.8333 133.967 50.1614 133.948H50.1614ZM78.6528 129.809C73.6656 131.438 68.5338 132.586 63.3278 133.237C60.6105 133.59 57.9643 133.805 55.4201 133.907L54.5832 127.367C55.4675 127.329 56.3626 127.278 57.2685 127.212L57.6638 130.303C57.7075 130.645 57.8853 130.956 58.158 131.167C58.293 131.271 58.4473 131.348 58.6121 131.393C58.7768 131.438 58.9487 131.45 59.118 131.428C59.2874 131.406 59.4508 131.352 59.5989 131.267C59.7471 131.182 59.8771 131.069 59.9815 130.934C60.086 130.799 60.1628 130.644 60.2076 130.48C60.2524 130.315 60.2643 130.143 60.2426 129.974L59.861 126.989C60.7316 126.901 61.6069 126.804 62.4916 126.69C69.8574 125.827 77.0581 123.896 83.8665 120.956L84.1649 123.282C84.2087 123.624 84.3867 123.934 84.6595 124.145C84.9324 124.356 85.2778 124.449 85.6198 124.406C85.9617 124.362 86.2723 124.184 86.4831 123.911C86.6938 123.638 86.7876 123.293 86.7437 122.951L86.3323 119.747C87.0941 119.336 87.8109 118.914 88.4827 118.482L89.283 124.72C86.0063 126.925 82.4251 128.639 78.6528 129.809H78.6528ZM92.7439 121.115C92.4401 121.668 92.0685 122.181 91.6377 122.642L90.8787 116.726C91.2254 116.433 91.5586 116.138 91.8636 115.836C92.1551 115.547 92.4197 115.251 92.6714 114.953L93.1922 119.014C93.2077 119.136 93.2154 119.258 93.2154 119.381C93.2012 119.989 93.0394 120.584 92.7439 121.115Z"/></g></g></svg>