<svg xmlns="http://www.w3.org/2000/svg" width="200" height="200" fill="none"><path fill="#BEBEC9" d="M67.4 53.322a27.195 27.195 0 0 0-5.72-3.997 12.91 12.91 0 0 0-5.714-1.545 7.387 7.387 0 0 0-6 2.91 7.954 7.954 0 0 0-1.782 5.025c.007.966.159 1.926.45 2.847a1.3 1.3 0 0 0 2.486-.765 7.072 7.072 0 0 1-.337-2.082 5.331 5.331 0 0 1 1.222-3.412 4.793 4.793 0 0 1 3.96-1.923c1.593.068 3.148.501 4.546 1.267a24.659 24.659 0 0 1 5.16 3.618 1.3 1.3 0 0 0 1.729-1.943ZM65.176 86.429a64.3 64.3 0 0 0-1.243 13.048 1.302 1.302 0 0 0 2.23.893c.241-.247.374-.58.37-.924-.002-.112-.002-.23-.002-.352a61.699 61.699 0 0 1 1.194-12.153 1.3 1.3 0 0 0-2.548-.512Z"/><path fill="#FFE632" d="M70.614 118.698a39.677 39.677 0 0 1-3.522-11.666v-.003a53.727 53.727 0 0 1-.64-7.821c-.003-1.419.08-2.836.249-4.244a1.3 1.3 0 0 0-2.58-.314 37.44 37.44 0 0 0-.27 4.558c.023 2.745.246 5.485.668 8.199v-.004a42.273 42.273 0 0 0 3.754 12.427 1.299 1.299 0 0 0 1.737.604 1.299 1.299 0 0 0 .604-1.736Z"/><path fill="#BEBEC9" d="M92.838 160.242v-.006.006ZM151.509 142.968c.335-.232.673-.461 1.001-.7a50.649 50.649 0 0 0 18.503-26.165 1.3 1.3 0 1 0-2.483-.768 48.04 48.04 0 0 1-17.554 24.833c-8.418 6.15-19.23 9.831-31.964 9.905l-.38.001c-15.574-.005-28.311-5.441-37.314-14.248a1.296 1.296 0 0 0-.923-.371 1.303 1.303 0 0 0-1.192.815 1.303 1.303 0 0 0 .297 1.414 50.003 50.003 0 0 0 8.327 6.562c-.002.04-.021.075-.02.116.041 2.336.369 4.658.976 6.915v-.002a29.479 29.479 0 0 0 2.509 6.217 8.64 8.64 0 0 0-1.484 2.809 12.957 12.957 0 0 0-.547 3.892c.005 1.025.087 2.048.247 3.059.025.114.065.223.12.326a8.92 8.92 0 0 0-.813 2.075 6.372 6.372 0 0 0-.168 1.547c.021 1.145.177 2.283.463 3.391a21.593 21.593 0 0 0 2.225 5.569 11.791 11.791 0 0 0 4.01 4.347 10.753 10.753 0 0 0 5.402 1.363 13.152 13.152 0 0 0 5.555-1.241 11.706 11.706 0 0 0 4.59-3.784 9.967 9.967 0 0 0 1.71-5.89 20.717 20.717 0 0 0-1.15-6.352 38.918 38.918 0 0 0-2.365-5.556 24.298 24.298 0 0 0-3.765-5.644 9.375 9.375 0 0 0-5.958-3.1l-.003.001a21.462 21.462 0 0 1-2.28-5.284c-.016-.06-.026-.116-.041-.176a60.107 60.107 0 0 0 21.592 3.83l.394-.001a59.662 59.662 0 0 0 23.776-4.841c.068 2.542.296 5.078.682 7.591a9.932 9.932 0 0 0-3.383 3.521 14.368 14.368 0 0 0-1.662 4.973 1.23 1.23 0 0 0 .016.358 8.975 8.975 0 0 0-1.455 1.71 6.113 6.113 0 0 0-.794 2.073 12.033 12.033 0 0 0-.226 2.44c.019 1.828.28 3.645.778 5.404a17.256 17.256 0 0 0 2.244 5.04 10.484 10.484 0 0 0 4.125 3.526 11.961 11.961 0 0 0 5.194 1.161 12.533 12.533 0 0 0 7.319-2.342 10.409 10.409 0 0 0 3.675-5.258c.653-2.078.968-4.248.933-6.426a32.939 32.939 0 0 0-.575-5.97 26.061 26.061 0 0 0-2.166-7.194 9.442 9.442 0 0 0-2.346-2.972 7.605 7.605 0 0 0-3.207-1.522 52.015 52.015 0 0 1-.574-7.603v-.015c0-1.25.05-2.38.129-3.359Zm-58.65 17.154c-.006.041-.016.076-.021.118a29.701 29.701 0 0 0-.238 3.881c.007.051.018.101.03.151-.254.174-.501.36-.742.559-.009-.213-.027-.429-.027-.638-.016-1.052.128-2.1.427-3.109.123-.386.28-.759.471-1.116l.1.154Zm13.917 4.115a36.438 36.438 0 0 1 2.206 5.179c.625 1.782.97 3.651 1.02 5.54a7.39 7.39 0 0 1-1.228 4.382 9.119 9.119 0 0 1-3.578 2.938 10.545 10.545 0 0 1-4.449.994 8.178 8.178 0 0 1-4.092-1.009 7.612 7.612 0 0 1-2.128-1.986 16.91 16.91 0 0 1-2.41-4.668 14.561 14.561 0 0 1-.87-4.406 3.883 3.883 0 0 1 .09-.912 6.692 6.692 0 0 1 3.277-4.2 10.776 10.776 0 0 1 5.31-1.376 7.392 7.392 0 0 1 3.31.671 1.3 1.3 0 0 0 1.754-.551 3.672 3.672 0 0 0-.155-1.645 42.695 42.695 0 0 0-3.13-5.417 8.803 8.803 0 0 1 1.736 1.425 21.882 21.882 0 0 1 3.337 5.041Zm-12.204-14.535v.002a25.854 25.854 0 0 0 4.357 8.65l.015.019a29.039 29.039 0 0 1 2.443 3.835 12.55 12.55 0 0 0-1.463-.095c-1.6.004-3.187.286-4.69.835.03-.81.08-1.609.181-2.371l.001-.006c.015-.1.04-.2.073-.296a1.305 1.305 0 0 0-.163-1.128 28.483 28.483 0 0 1-4.034-8.552v-.002a25.12 25.12 0 0 1-.81-4.788 51.93 51.93 0 0 0 3.647 1.838c.11.658.248 1.338.443 2.059Zm54.237-4.977a48.076 48.076 0 0 0-.029 1.602v.015c.004 3.812.41 7.614 1.214 11.341l.072.228a87.12 87.12 0 0 1 1.849 4.735c-.316-.135-.64-.261-.976-.375a15.155 15.155 0 0 0-4.778-.775c-.309 0-.621.021-.933.041.175-.895.433-1.772.771-2.619h-.001c.062-.14.142-.272.239-.39a1.301 1.301 0 0 0 .244-1.047 57.614 57.614 0 0 1-1.094-10.857 51.911 51.911 0 0 0 3.422-1.899Zm-6.455 15.516a7.96 7.96 0 0 1 .825-1.156 18.579 18.579 0 0 0-.669 2.916c-.357.106-.709.23-1.054.371.218-.742.519-1.457.898-2.131Zm11.162-2.76a8.286 8.286 0 0 1 2.325 3.605 31.082 31.082 0 0 1 1.277 5.028c.343 1.809.52 3.647.53 5.489a17.803 17.803 0 0 1-.797 5.596 7.815 7.815 0 0 1-2.733 3.98 9.949 9.949 0 0 1-5.797 1.85 9.364 9.364 0 0 1-4.064-.903 7.879 7.879 0 0 1-3.109-2.651 14.731 14.731 0 0 1-1.885-4.27 18.106 18.106 0 0 1-.684-4.707 9.58 9.58 0 0 1 .173-1.912c.073-.421.22-.826.435-1.195a6.674 6.674 0 0 1 2.985-2.517 9.914 9.914 0 0 1 3.989-.778c1.342.001 2.676.217 3.949.639a7.677 7.677 0 0 1 2.759 1.517c.112.1.241.18.381.236a1.296 1.296 0 0 0 1.613.357 1.301 1.301 0 0 0 .658-1.515h-.001a74.78 74.78 0 0 0-3.007-8.304l-.04-.196c.374.173.724.392 1.043.651Z"/><path fill="#FFE632" d="M172.053 102.529a1.302 1.302 0 0 0-1.387 1.206 73.534 73.534 0 0 1-.623 5.789 34.567 34.567 0 0 1-14.044 22.858c-7.432 5.422-17.469 8.738-29.381 10.014a88.646 88.646 0 0 1-9.456.518c-13.826 0-25.487-3.487-34.085-9.616a1.303 1.303 0 0 0-2.043 1.273 1.303 1.303 0 0 0 .534.844c9.13 6.504 21.336 10.099 35.594 10.099 3.251-.004 6.5-.182 9.733-.533 12.225-1.313 22.703-4.719 30.636-10.498a37.198 37.198 0 0 0 15.076-24.523l.003-.024c.285-1.85.513-4.045.65-6.021a1.3 1.3 0 0 0-1.207-1.386Z"/><path fill="#FFE632" d="M63.84 91.148a41.918 41.918 0 0 0 16.49 30.456c9.41 7.21 22.173 11.169 36.822 11.17a86.724 86.724 0 0 0 9.931-.583c10.869-1.254 19.724-3.984 26.732-8.197a39.134 39.134 0 0 0 15.517-16.976 1.296 1.296 0 0 0-.612-1.733 1.296 1.296 0 0 0-1.733.611 36.522 36.522 0 0 1-14.511 15.87c-6.599 3.968-15.084 6.619-25.69 7.842a84.066 84.066 0 0 1-9.634.566c-14.187 0-26.376-3.837-35.24-10.633a39.301 39.301 0 0 1-15.48-28.613 1.299 1.299 0 1 0-2.591.22Z"/><path fill="#BEBEC9" d="M162.271 32.42a45.41 45.41 0 0 0-19.659-14.965c.038-.37.066-.751.067-1.156a8.486 8.486 0 0 0-.906-3.934 5.563 5.563 0 0 0 1.642-2.909 5.599 5.599 0 0 0-5.436-6.742 5.606 5.606 0 0 0-5.205 3.414 5.598 5.598 0 0 0 1.163 6.115 5.624 5.624 0 0 0 3.999 1.675 5.54 5.54 0 0 0 1.583-.248c.384.822.576 1.722.56 2.629 0 .071-.007.14-.008.21a58.754 58.754 0 0 0-19.12-3.025 73.61 73.61 0 0 0-7.54.396 62.072 62.072 0 0 0-25.828 8.18c-.36-.66-.791-1.279-1.284-1.848a9.691 9.691 0 0 0-2.82-2.209 5.591 5.591 0 0 0-4.612-5.293h-.001a5.595 5.595 0 0 0-6.486 4.544 5.594 5.594 0 0 0 4.546 6.489 5.562 5.562 0 0 0 5.984-3.066c.53.35 1.012.768 1.431 1.245.404.467.752.978 1.039 1.524-.038.026-.079.048-.116.073a45.327 45.327 0 0 0-16.165 19.034 1.302 1.302 0 0 0 1.65 1.751 1.3 1.3 0 0 0 .723-.688 42.66 42.66 0 0 1 14.823-17.633c.008.042.023.1.03.137.025.133.04.236.05.301l.008.069.002.012a1.3 1.3 0 0 0 2.588-.251c-.074-.596-.2-1.184-.374-1.759a59.243 59.243 0 0 1 25.078-8.026 71.02 71.02 0 0 1 7.274-.382 56.155 56.155 0 0 1 18.694 3.038c-.049.163-.095.308-.132.413l-.071.196-.017.043-.003.007h.001a1.3 1.3 0 1 0 2.399 1c.011-.031.122-.3.258-.731a42.789 42.789 0 0 1 18.106 13.924 1.299 1.299 0 0 0 2.329-.59 1.3 1.3 0 0 0-.244-.964Zm-24.335-21.102a2.998 2.998 0 0 1-2.943-3.612v-.001a2.99 2.99 0 0 1 1.291-1.905 3 3 0 0 1 4.585 3.127 3.002 3.002 0 0 1-2.933 2.391Zm-57.084 7.43a2.997 2.997 0 0 1-3.475 2.434 3.003 3.003 0 0 1-2.437-3.472v-.004a3.002 3.002 0 1 1 5.912 1.042Z"/><path fill="#FFE632" d="M139.077 98.343a66.996 66.996 0 0 1-16.47 3.739 72.563 72.563 0 0 1-7.442.389c-18.202-.006-32.377-7.22-40.3-18.418a1.3 1.3 0 1 0-2.123 1.501c8.474 11.983 23.545 19.524 42.423 19.517a75.18 75.18 0 0 0 7.708-.403 69.555 69.555 0 0 0 17.108-3.888 1.298 1.298 0 0 0 .085-2.394 1.3 1.3 0 0 0-.989-.043Z"/><path fill="#BEBEC9" d="M88.991 69.088a5.49 5.49 0 0 1 .735-2.684c.183-.293.425-.544.711-.738.301-.196.642-.322.999-.368.12-.017.24-.026.361-.027.555.001 1.088.22 1.483.61.55.546.972 1.205 1.238 1.932a1.3 1.3 0 0 0 2.412-.973 7.823 7.823 0 0 0-1.898-2.88 4.74 4.74 0 0 0-3.97-1.235A4.994 4.994 0 0 0 89 63.5a5.402 5.402 0 0 0-1.94 2.399 8.802 8.802 0 0 0-.665 3.062 1.3 1.3 0 0 0 2.597.127ZM128.354 65.3a5.502 5.502 0 0 1 .735-2.685c.184-.292.426-.544.711-.738.301-.196.643-.321.999-.367a2.5 2.5 0 0 1 .361-.027c.555.001 1.088.22 1.483.61a5.266 5.266 0 0 1 1.237 1.932 1.304 1.304 0 0 0 1.692.717 1.302 1.302 0 0 0 .72-1.69 7.82 7.82 0 0 0-1.898-2.88 4.736 4.736 0 0 0-3.968-1.235 4.998 4.998 0 0 0-2.064.774 5.396 5.396 0 0 0-1.939 2.4 8.81 8.81 0 0 0-.666 3.061 1.302 1.302 0 0 0 1.235 1.362 1.299 1.299 0 0 0 1.363-1.235h-.001ZM104.301 76.43a9.93 9.93 0 0 0 7.256 3.188 11.183 11.183 0 0 0 5.744-1.649 8.586 8.586 0 0 0 3.509-3.744 1.302 1.302 0 0 0-1.688-1.708 1.3 1.3 0 0 0-.708.698 6.108 6.108 0 0 1-2.464 2.532 8.598 8.598 0 0 1-4.393 1.27 7.302 7.302 0 0 1-5.387-2.394 1.296 1.296 0 0 0-1.415-.313 1.296 1.296 0 0 0-.825 1.193 1.302 1.302 0 0 0 .371.927Z"/><path fill="#FFE632" d="M170.976 55.045a45.523 45.523 0 0 0-8.495-22.324 1.277 1.277 0 0 0-.109-.227 24.176 24.176 0 0 0-7.789-6.908 18.87 18.87 0 0 0-9.017-2.31 19.548 19.548 0 0 0-4.909.636 25.634 25.634 0 0 0-8.443 4.194c-3.85 2.76-7.312 6.18-10.936 8.975-3.629 2.803-7.36 4.952-11.748 5.403-.626.066-1.254.099-1.883.1a12.963 12.963 0 0 1-6.19-1.458c-2.566-1.334-4.608-3.495-6.822-5.73-2.212-2.22-4.62-4.523-8.019-5.81a8.676 8.676 0 0 0-3.08-.576 9.69 9.69 0 0 0-5.254 1.672 21.77 21.77 0 0 0-5.761 5.938 45.476 45.476 0 0 0-3.346 5.768c-.015.03-.013.064-.025.095-.014.026-.038.043-.05.07a45.087 45.087 0 0 0-3.906 18.48c0 .459.006.918.02 1.377a1.303 1.303 0 0 0 1.338 1.264 1.299 1.299 0 0 0 1.261-1.341c-.013-.434-.02-.867-.02-1.3a42.49 42.49 0 0 1 3.68-17.416c.006-.016.004-.033.01-.05.007-.012.02-.019.025-.032a38.368 38.368 0 0 1 4.663-7.43 16.124 16.124 0 0 1 3.517-3.236 7.101 7.101 0 0 1 3.847-1.259 6.07 6.07 0 0 1 2.163.41 15.812 15.812 0 0 1 4.907 3.116c2.228 1.963 4.243 4.416 6.83 6.454a17.03 17.03 0 0 0 4.426 2.568 15.932 15.932 0 0 0 5.786 1.026c.718-.001 1.435-.04 2.149-.114a22.027 22.027 0 0 0 9.134-3.212c4.102-2.462 7.643-5.842 11.212-8.826 3.568-2.994 7.138-5.566 11.167-6.603a16.95 16.95 0 0 1 4.257-.553 16.26 16.26 0 0 1 7.782 1.998 21.461 21.461 0 0 1 6.776 5.966c.018.046.039.09.063.133a42.9 42.9 0 0 1 8.203 21.339c.144 1.393.217 2.794.217 4.195-.006 11.866-5.249 22.697-14.857 30.565a1.296 1.296 0 0 0 .208 2.152 1.304 1.304 0 0 0 1.438-.14c10.167-8.305 15.818-19.932 15.811-32.577 0-1.49-.077-2.98-.231-4.462Z"/><path fill="#BEBEC9" d="M5.657 83.84v-.004.004ZM77.667 73.957v-.001a5.397 5.397 0 0 0-1.115-2.53 7.502 7.502 0 0 0-3.696-2.345 13.688 13.688 0 0 0-1.517-.37c.097-.04.203-.079.295-.121.439-.188.841-.45 1.19-.776.192-.187.35-.406.466-.647.128-.269.195-.563.195-.86a2.187 2.187 0 0 0-.192-.882 3.47 3.47 0 0 0-.685-.982 8.275 8.275 0 0 0-.97-.85 11.489 11.489 0 0 0-7.13-2.375c-1.59.021-3.168.273-4.686.746.141-.345.216-.714.222-1.087 0-.455-.123-.902-.357-1.291a3.448 3.448 0 0 0-1.5-1.28 9.221 9.221 0 0 0-2.2-.69 21.439 21.439 0 0 0-4.177-.49 9.027 9.027 0 0 0-3.188.516 6.88 6.88 0 0 0-2.827 1.994 3.807 3.807 0 0 0-.69-1.15 4.194 4.194 0 0 0-1.922-1.19 8.576 8.576 0 0 0-2.546-.329 22.08 22.08 0 0 0-3.127.26 11.81 11.81 0 0 0-4.293 1.264c-.53.304-.98.731-1.31 1.245a3.2 3.2 0 0 0-.471 1.702c0 .044.011.086.013.13a9.259 9.259 0 0 0-4.35-1.115 14.97 14.97 0 0 0-6.833 2 8.37 8.37 0 0 0-1.987 1.345 3.376 3.376 0 0 0-.645.845 2.303 2.303 0 0 0 .15 2.432c.079.108.164.212.255.311a14.46 14.46 0 0 0-5.295 1.14 9.873 9.873 0 0 0-4.22 3.52 6.824 6.824 0 0 0-.626 1.115c-.171.38-.264.791-.273 1.208-.001.288.055.575.165.841.196.453.534.83.964 1.071.58.305 1.214.491 1.866.546h.01a11.53 11.53 0 0 0-3.411 2.219 6.052 6.052 0 0 0-1.231 1.717 4.737 4.737 0 0 0-.333 3.075c.09.435.25.853.474 1.237.34.575.852 1.03 1.464 1.301a4.61 4.61 0 0 0 1.898.36 13.094 13.094 0 0 0 3.143-.484c.115-.03.245-.07.363-.101-.345.328-.668.678-.969 1.047a5.436 5.436 0 0 0-1.342 3.328c0 .712.199 1.41.572 2.015a5.44 5.44 0 0 0 1.541 1.592 5.955 5.955 0 0 0 3.504 1.145 8.59 8.59 0 0 0 3.642-.926 21.902 21.902 0 0 0 3.188-1.925 7.463 7.463 0 0 0-.628 2.801c-.005.593.105 1.18.326 1.731a4.398 4.398 0 0 0 1.751 2.042c.887.534 1.87.889 2.894 1.045.587.107 1.181.162 1.777.164a7.718 7.718 0 0 0 4.337-1.277 11.925 11.925 0 0 0 3.783-4.5 8.62 8.62 0 0 0 1.312 3.483 5.749 5.749 0 0 0 2.273 1.948 7.352 7.352 0 0 0 3.195.657c.483-.002.966-.034 1.446-.095a8.176 8.176 0 0 0 5.044-2.21 5.733 5.733 0 0 0 1.276-2.09 7.338 7.338 0 0 0 .388-2.436 10.486 10.486 0 0 0-.077-1.21c.02.02.038.043.057.063a14.114 14.114 0 0 0 3.221 2.608 7.502 7.502 0 0 0 3.707 1.021 8.263 8.263 0 0 0 3.656-.917 7.47 7.47 0 0 0 2.617-1.98 4.34 4.34 0 0 0 .977-2.728 5.842 5.842 0 0 0-1.052-3.153c-.121-.187-.277-.37-.416-.554a15.15 15.15 0 0 0 5.098 1.158 5.769 5.769 0 0 0 2.55-.546c.81-.403 1.506-1 2.03-1.736a4.868 4.868 0 0 0 1.038-2.874 4.08 4.08 0 0 0-.46-1.866 6.773 6.773 0 0 0-2.477-2.52c-.157-.1-.345-.19-.513-.285a9.065 9.065 0 0 0 3.647-.571c.55-.24 1.02-.635 1.352-1.136a3.15 3.15 0 0 0 .471-1.725 4.9 4.9 0 0 0-.066-.782Zm-2.594 1.103a.387.387 0 0 1-.134.117c-.289.15-.603.244-.926.28-.625.088-1.256.127-1.888.117-3.007.004-7.987-.586-14.802-.959-.33-.026-.642-.06-.978-.084a1.292 1.292 0 0 0-.605 2.477c.164.089.346.14.533.152.358.018.689.039 1.037.058a44.046 44.046 0 0 1 11.784 2.306 10.184 10.184 0 0 1 3.185 1.807c.266.235.489.515.659.827.113.21.173.445.175.684-.03.491-.219.96-.536 1.337-.272.396-.64.717-1.067.934-.444.203-.928.3-1.415.285a17.789 17.789 0 0 1-6.158-1.779c-2.546-1.075-5.65-2.562-9.356-4.203-.303-.147-.594-.296-.907-.442a1.299 1.299 0 0 0-1.78 1.625 1.3 1.3 0 0 0 .683.732l.174.084c.043.034.087.065.134.094l.802.355a36.105 36.105 0 0 1 7.384 4.603 11.338 11.338 0 0 1 2.16 2.341c.373.508.593 1.111.634 1.74-.002.408-.149.802-.415 1.111a4.94 4.94 0 0 1-1.724 1.262 5.669 5.669 0 0 1-2.511.651 4.895 4.895 0 0 1-2.435-.689 15.156 15.156 0 0 1-4.004-3.724c-1.291-1.584-2.658-3.547-4.147-5.73-.11-.185-.214-.369-.328-.554a1.268 1.268 0 0 0-.444-.418 1.293 1.293 0 0 0-1.822 1.782l.408.598c.9 1.474 1.675 3.02 2.318 4.622.566 1.342.886 2.775.946 4.23a4.753 4.753 0 0 1-.241 1.578 3.148 3.148 0 0 1-1.258 1.618 6.664 6.664 0 0 1-2.932.961 9.026 9.026 0 0 1-1.123.075 4.771 4.771 0 0 1-2.076-.404 3.432 3.432 0 0 1-1.706-1.925 10.503 10.503 0 0 1-.613-3.929c.021-1.522.158-3.04.409-4.542.206-.702.41-1.42.609-2.157a1.281 1.281 0 0 0-.648-1.461 1.265 1.265 0 0 0-.556-.283 1.3 1.3 0 0 0-1.533 1.016c-.16.793-.296 1.56-.416 2.316a31.778 31.778 0 0 1-3.106 7.641 8.266 8.266 0 0 1-2.358 2.57c-.86.57-1.873.865-2.905.847a7.492 7.492 0 0 1-1.32-.123 4.472 4.472 0 0 1-2.301-.946 1.596 1.596 0 0 1-.395-.565 1.955 1.955 0 0 1-.133-.748c.03-.676.196-1.34.485-1.952a18.052 18.052 0 0 1 2.704-4.142 46.202 46.202 0 0 1 4.28-4.43l.436-.371c.145-.126.26-.283.336-.46a1.294 1.294 0 0 0-2.012-1.565c-.185.166-.362.332-.542.497-3.38 2.871-6.212 5.355-8.59 7.099A21.09 21.09 0 0 1 18.837 92c-.785.408-1.65.64-2.534.678a3.33 3.33 0 0 1-2-.667h-.001a2.881 2.881 0 0 1-.821-.819 1.239 1.239 0 0 1-.195-.666 2.934 2.934 0 0 1 .78-1.712 17.211 17.211 0 0 1 4.865-3.752 56.629 56.629 0 0 1 8.325-3.758c.168-.056.323-.111.494-.168a1.291 1.291 0 0 0-.396-2.519c-.08.003-.161.013-.24.03-.063.003-.125.01-.187.023l-.025.008c-.024.008-.05.002-.074.011-.129.047-.25.095-.377.142-4.297 1.444-7.852 2.77-10.673 3.732-1.462.5-2.728.9-3.787 1.17-.814.233-1.653.368-2.5.403a1.657 1.657 0 0 1-.957-.201.598.598 0 0 1-.172-.192 1.559 1.559 0 0 1-.168-.464v-.005a2.135 2.135 0 0 1 .152-1.414 4.578 4.578 0 0 1 1.656-1.743 18.542 18.542 0 0 1 6.1-2.353 54.79 54.79 0 0 1 9.79-1.198l.586-.01a1.3 1.3 0 0 0-.029-2.6c-.17.003-.326.007-.493.009-.008 0-.015-.004-.023-.004l-.108.006c-5.73.083-10.054.375-12.8.374a11.54 11.54 0 0 1-2.71-.211c.103-.221.225-.433.366-.632a7.253 7.253 0 0 1 3.128-2.6 12.467 12.467 0 0 1 5.125-.95c2.01.029 4.011.28 5.966.752 1.222.415 2.552.85 3.972 1.32a1.278 1.278 0 0 0 1.1-.155 1.276 1.276 0 0 0 .809-.798 1.3 1.3 0 0 0-.826-1.642 49.306 49.306 0 0 0-4.323-1.223c-1.343-.457-2.518-.88-3.455-1.278a9.588 9.588 0 0 1-1.937-1.02 1.99 1.99 0 0 1-.208-.178c.078-.085.163-.164.255-.235.369-.28.764-.526 1.179-.732a12.474 12.474 0 0 1 5.633-1.706c1.329.006 2.627.4 3.735 1.135a15.129 15.129 0 0 1 3.223 2.902c.245.35.498.707.768 1.08a1.3 1.3 0 0 0 1.815.293 1.533 1.533 0 0 0 .28-2.01c-.264-.331-.525-.628-.786-.932-.574-.823-1.055-1.559-1.402-2.185a4.457 4.457 0 0 1-.697-1.898.587.587 0 0 1 .083-.335.998.998 0 0 1 .264-.268 4.103 4.103 0 0 1 1.2-.548 15.19 15.19 0 0 1 2.302-.486c.91-.143 1.83-.22 2.753-.234a6.502 6.502 0 0 1 1.629.17c.232.056.454.148.657.274.202.127.358.314.447.536a3 3 0 0 1 .182 1.159 18.172 18.172 0 0 1-.8 4.376 1.3 1.3 0 0 0 .912 1.596 1.573 1.573 0 0 0 1.69-1.054h-.001c.784-2.73 1.635-4.503 2.592-5.488.44-.471.984-.834 1.588-1.059a6.456 6.456 0 0 1 2.277-.352c1.233.027 2.46.174 3.663.44a5.33 5.33 0 0 1 1.828.622c.052.032.099.071.139.117a.594.594 0 0 1-.046.147 3.787 3.787 0 0 1-.68.969 20.604 20.604 0 0 1-2.465 2.214c-.324.257-.671.523-1.029.794-.942.573-1.899 1.189-2.887 1.894a1.298 1.298 0 0 0-.302 1.814 1.779 1.779 0 0 0 2.115.316c.893-.648 1.74-1.27 2.539-1.874 3.86-2.324 7.153-3.367 9.823-3.36a8.865 8.865 0 0 1 5.551 1.841c.211.158.41.33.597.516-.62.278-1.262.502-1.92.669-2.44.683-6.514 1.493-11.893 2.88-.548.123-1.105.256-1.671.396a1.292 1.292 0 0 0 .193 2.543c.187.037.38.032.564-.015.516-.138 1.01-.266 1.504-.393a45.981 45.981 0 0 1 9.902-1.297c1.987-.095 3.97.256 5.804 1.029a4.05 4.05 0 0 1 1.381 1.062c.307.382.507.838.58 1.323v-.001c.02.121.032.244.033.368a.58.58 0 0 1-.06.321Z"/><path fill="#FFE632" d="M25.253 76.983v-.001l-.001-.002.001.003ZM57.456 74.08v-.001a6.873 6.873 0 0 0-1.421-3.704 11.725 11.725 0 0 0-5.295-3.685 21.786 21.786 0 0 0-7.65-1.3c-.796 0-1.608.037-2.43.113a22.915 22.915 0 0 0-10.73 3.616 12.434 12.434 0 0 0-3.374 3.314 7.451 7.451 0 0 0-1.318 4.117c0 .144.005.288.015.432a6.87 6.87 0 0 0 1.42 3.703 11.719 11.719 0 0 0 5.293 3.685 21.778 21.778 0 0 0 7.65 1.3c.796 0 1.608-.037 2.432-.113a22.913 22.913 0 0 0 10.73-3.616 12.44 12.44 0 0 0 3.373-3.315 7.452 7.452 0 0 0 1.318-4.116c0-.14-.004-.284-.013-.43Zm-3.474 3.113a11.61 11.61 0 0 1-4.614 3.73 21.842 21.842 0 0 1-7.558 2.045c-.745.068-1.478.102-2.194.102a17.505 17.505 0 0 1-8.457-1.934 7.764 7.764 0 0 1-2.41-2.015 4.262 4.262 0 0 1-.902-2.31v-.003l-.009-.258a4.858 4.858 0 0 1 .888-2.683 11.606 11.606 0 0 1 4.613-3.73 21.843 21.843 0 0 1 7.559-2.045 23.866 23.866 0 0 1 2.192-.102c2.937-.075 5.845.59 8.458 1.934a7.771 7.771 0 0 1 2.41 2.016c.524.663.838 1.468.903 2.31l.008.26a4.858 4.858 0 0 1-.887 2.683Z"/><path fill="#BEBEC9" d="M84.117 126.155a12.982 12.982 0 0 0-2.457-2.25 7.457 7.457 0 0 0-1.592-.94 5.7 5.7 0 0 0-2.212-.413 8.29 8.29 0 0 0-.515.02v-.005a2.447 2.447 0 0 0-.619-1.586 5.43 5.43 0 0 0-2.167-1.397 17.658 17.658 0 0 0-3.414-.899 19.22 19.22 0 0 0-3.237-.324 8.04 8.04 0 0 0-1.875.195 3.753 3.753 0 0 0-2.114 1.247c-.025.031-.04.066-.064.097a4.863 4.863 0 0 0-.52-.281 7.348 7.348 0 0 0-3.027-.579 15.477 15.477 0 0 0-6.218 1.505 6.416 6.416 0 0 0-2.016 1.319 2.84 2.84 0 0 0-.87 1.971 2.68 2.68 0 0 0 .59 1.64l.003.003a7.424 7.424 0 0 0-.913.339 4.635 4.635 0 0 0-1.766 1.365 3.727 3.727 0 0 0-.755 2.291c.027.923.265 1.827.697 2.644a5.736 5.736 0 0 0 2.15 2.458c.86.504 1.842.762 2.839.743a8.681 8.681 0 0 0 1.837-.227 3.642 3.642 0 0 0-.132.927 3.48 3.48 0 0 0 .474 1.746 5.188 5.188 0 0 0 2.287 1.986c1.258.576 2.599.95 3.973 1.11.023.003.044.004.067.008a182.87 182.87 0 0 0-1.163 9.933 97.328 97.328 0 0 0-15.206-1.279c.014-2.04.024-4.266.024-6.66 0-7.719-.098-17.071-.427-26.732.283.036.568.057.853.063a7.011 7.011 0 0 0 3.731-1.046 9.047 9.047 0 0 0 3.07-3.355c.356-.634.645-1.303.862-1.997a1.302 1.302 0 0 0-1.042-1.642 18.567 18.567 0 0 0-2.94-.259 7.892 7.892 0 0 0-4.809 1.345c-.15-3.27-.327-6.539-.54-9.758a1.3 1.3 0 0 0-2.595.173c.852 12.815 1.151 26.466 1.22 37.723a8.632 8.632 0 0 0-2.503-1.538 14.197 14.197 0 0 0-5.266-.915 20.977 20.977 0 0 0-4.377.477 1.304 1.304 0 0 0-1.022 1.376 1.3 1.3 0 0 0 .195.587 20.629 20.629 0 0 0 3.063 3.633c1.04 1 2.213 1.852 3.486 2.532a10.042 10.042 0 0 0 4.64 1.202 8.78 8.78 0 0 0 1.8-.189c-.004 1.766-.011 3.428-.023 4.986-4.845.035-9.68.428-14.466 1.176a215.83 215.83 0 0 0-.248-2.58c-.339-3.312-.79-6.923-1.387-10.316a56.1 56.1 0 0 0-1.98-8.206c.04-.006.077-.007.118-.013a11.492 11.492 0 0 0 5.044-1.71 4.661 4.661 0 0 0 1.371-1.459c.315-.54.482-1.153.483-1.778a3.715 3.715 0 0 0-.156-1.005 9.02 9.02 0 0 0 1.95.247 5.528 5.528 0 0 0 2.901-.76 5.86 5.86 0 0 0 2.2-2.514c.45-.85.699-1.792.729-2.753a3.761 3.761 0 0 0-.737-2.284 5.176 5.176 0 0 0-2.774-1.757c-.02-.006-.042-.009-.063-.015.01-.013.024-.022.034-.035.38-.473.59-1.059.599-1.665a2.885 2.885 0 0 0-.885-2.002 6.583 6.583 0 0 0-2.063-1.35 15.915 15.915 0 0 0-6.385-1.546 7.55 7.55 0 0 0-3.1.593c-.193.089-.38.19-.559.302a3.442 3.442 0 0 0-1.42-1.12 6.845 6.845 0 0 0-2.745-.473 19.727 19.727 0 0 0-3.324.333c-1.517.215-2.993.66-4.375 1.32-.51.256-.967.606-1.348 1.03a2.481 2.481 0 0 0-.629 1.608c0 .016.005.03.006.045a9.458 9.458 0 0 0-.573-.022 5.824 5.824 0 0 0-2.263.422 7.586 7.586 0 0 0-1.628.963 13.308 13.308 0 0 0-2.524 2.309 4.968 4.968 0 0 0-1.213 3.089l.006.2c.015.435.133.859.344 1.239.325.552.84.967 1.45 1.166.278.094.565.16.856.196a3.64 3.64 0 0 0-.517 1.845c.02.962.365 1.889.976 2.632a7.713 7.713 0 0 0 2.545 2.024 10.43 10.43 0 0 0 4.813 1.196 8.334 8.334 0 0 0 3.64-.782c.234-.116.46-.247.677-.393a4.616 4.616 0 0 0 2.195 2.128 8.701 8.701 0 0 0 3.645.727 49.724 49.724 0 0 1 2.118 8.479c.175.996.335 2.017.486 3.044a4.938 4.938 0 0 0-.588-.287 5.675 5.675 0 0 0-1.966-.33c-1.72.082-3.401.536-4.928 1.332a1.302 1.302 0 0 0-.633 1.699 16.506 16.506 0 0 0 1.718 2.902c.574.792 1.26 1.496 2.036 2.09a5.084 5.084 0 0 0 3.01 1.081 4.564 4.564 0 0 0 2.204-.587c.033-.017.064-.041.097-.06.068.693.132 1.371.19 2.03-1 .204-1.97.418-2.871.654a25.215 25.215 0 0 0-6.704 2.62 7.814 7.814 0 0 0-2.066 1.763c-.55.667-.86 1.5-.877 2.365.004.366.067.73.187 1.076l3.741 19.024a10.45 10.45 0 0 0-2.522 1.723 5.096 5.096 0 0 0-1.007 1.334 3.568 3.568 0 0 0-.399 1.618c.018.865.327 1.698.877 2.365.222.274.466.53.73.765.004.053.013.106.024.159l1.849 4.981.004-.001c.223.672.6 1.282 1.1 1.783a11.891 11.891 0 0 0 3.842 2.442 40.653 40.653 0 0 0 9.458 2.532c4.315.665 8.676.988 13.042.968a72.856 72.856 0 0 0 18.538-2.119 24.32 24.32 0 0 0 5.899-2.33c.71-.407 1.36-.91 1.934-1.493.49-.5.856-1.107 1.07-1.773l.003.001 2.01-5.282c.21-.197.406-.408.586-.633.55-.667.86-1.5.877-2.365a3.561 3.561 0 0 0-.388-1.598 5.698 5.698 0 0 0-1.637-1.893 12.198 12.198 0 0 0-1.908-1.174l3.746-19.032c.12-.347.183-.711.187-1.078a3.654 3.654 0 0 0-.564-1.915 6.974 6.974 0 0 0-2.289-2.156c-.56-.349-1.142-.66-1.743-.933a16.23 16.23 0 0 0 2.326-3.124 1.3 1.3 0 0 0-.512-1.766 12.037 12.037 0 0 0-5.584-1.756 5.409 5.409 0 0 0-3.227 1.033c.235-2.229.525-4.583.87-6.91a7.38 7.38 0 0 0 4.579-1.297c.5-.393.906-.892 1.19-1.461.2.133.408.253.623.361a8.13 8.13 0 0 0 3.552.763 10.177 10.177 0 0 0 4.693-1.165 7.536 7.536 0 0 0 2.484-1.977 4.208 4.208 0 0 0 .957-2.58 3.565 3.565 0 0 0-.486-1.769 3.555 3.555 0 0 0 1.326-.428 2.47 2.47 0 0 0 .892-.899c.208-.374.325-.792.34-1.219v-.009l.005-.189a4.867 4.867 0 0 0-1.186-3.024Zm-37.962-13.646a2.744 2.744 0 0 1 1.415-1.507 6.316 6.316 0 0 1 2.743-.508c.267 0 .555.022.841.04a7.71 7.71 0 0 1-.627.973 5.712 5.712 0 0 1-1.591 1.465 4.385 4.385 0 0 1-2.304.621 5.721 5.721 0 0 1-.74-.055c.046-.352.135-.698.264-1.029Zm-4.35 29.622a7.462 7.462 0 0 1-3.441-.909 14.688 14.688 0 0 1-4.023-3.274c-.102-.116-.18-.215-.274-.325a17.1 17.1 0 0 1 1.753-.099c1.887-.079 3.76.369 5.407 1.293.648.401 1.19.953 1.58 1.607.265.468.452.976.552 1.504-.508.132-1.03.2-1.554.203Zm-16.548-15.117c-.748.11-1.503.169-2.26.174a5.175 5.175 0 0 1-3.198-.775 1.795 1.795 0 0 1-.553-.707 2.563 2.563 0 0 1-.192-1.037c.004-.356.047-.711.127-1.057l.001-.004c.036-.162.07-.299.105-.45.165-.532.279-.967.353-1.291.005-.058.007-.115.004-.172a1.294 1.294 0 0 0-2.507-.64c-.118.416-.236.894-.356 1.404-.133.423-.301.916-.527 1.497a2.122 2.122 0 0 1-1.112 1.027 5.779 5.779 0 0 1-2.497.517 7.832 7.832 0 0 1-3.607-.899 5.181 5.181 0 0 1-1.7-1.32 1.715 1.715 0 0 1-.428-1.033c.007-.299.13-.584.344-.794.412-.405.92-.699 1.478-.853a44.2 44.2 0 0 1 4.828-1.383c.196-.046.379-.137.532-.268a1.292 1.292 0 0 0-1.008-2.342c-.485.118-1.017.235-1.597.351-1.259.251-2.399.479-3.382.641-.796.146-1.602.232-2.41.254-.31.02-.62-.022-.913-.123l-.008-.057v-.006l-.002-.066c.042-.548.27-1.066.645-1.467a10.84 10.84 0 0 1 2.032-1.837h.001c.33-.261.692-.48 1.076-.652a3.188 3.188 0 0 1 1.274-.227c1.468.093 2.913.415 4.282.954.135.068.258.134.396.201.163.078.34.121.52.127.095.035.181.064.278.101a1.299 1.299 0 0 0 1.675-.76 1.301 1.301 0 0 0-.76-1.674 46.203 46.203 0 0 0-1.095-.395l-1.305-.663a2.956 2.956 0 0 1-.746-.503c.342-.28.73-.496 1.148-.638a15.626 15.626 0 0 1 2.971-.769c.95-.179 1.913-.278 2.879-.295.44-.009.88.034 1.312.127.279.039.538.168.736.369a.93.93 0 0 1 .155.614 3.122 3.122 0 0 1-.034.409c-.117.202-.238.417-.357.655a1.297 1.297 0 0 0 1.075 1.878 1.287 1.287 0 0 0 .945-.318c.128-.113.233-.25.31-.403.062-.127.146-.263.221-.395.104-.123.183-.264.234-.416l.009-.016a9.53 9.53 0 0 0 .474-.855v.002c.162-.276.415-.485.716-.592a4.99 4.99 0 0 1 2.028-.361c1.846.068 3.659.517 5.323 1.319.463.184.889.45 1.257.786a.75.75 0 0 1 .145.19.734.734 0 0 1-.176.215c-.344.287-.738.51-1.162.657a9.418 9.418 0 0 1-2.065.509c-.931.131-1.762.225-2.498.286a1.3 1.3 0 0 0-1.189 1.403c.016.087.04.172.074.253v.003a1.42 1.42 0 0 0 1.516 1.037 32.901 32.901 0 0 1 2.99-.407c.405-.036.827-.056 1.248-.056 1.1-.039 2.195.15 3.218.555.3.125.565.323.771.574.155.211.234.468.222.73a3.788 3.788 0 0 1-.464 1.608v-.001a3.267 3.267 0 0 1-1.21 1.435 2.945 2.945 0 0 1-1.557.385 9.629 9.629 0 0 1-3.454-.852c-1.282-.524-2.622-1.227-3.886-1.892a1.3 1.3 0 0 0-1.756.547 1.72 1.72 0 0 0 .662 1.88 18.075 18.075 0 0 1 3.436 2.499c.346.299.563.721.605 1.176a.936.936 0 0 1-.136.48c-.305.445-.734.79-1.233.994a11.045 11.045 0 0 1-3.291.898Zm-.245 19.908c-.29.17-.62.262-.957.268a2.518 2.518 0 0 1-1.47-.575 9.045 9.045 0 0 1-2.093-2.434c-.075-.12-.135-.227-.2-.339a7.613 7.613 0 0 1 2.56-.556c.365-.006.728.052 1.073.172a2.46 2.46 0 0 1 1.198.961c.361.558.622 1.174.772 1.822a4.13 4.13 0 0 1-.883.681Zm21.147 5.2a94.464 94.464 0 0 1 15.009 1.278 237.88 237.88 0 0 0-.293 4.156l-.212-.038a96.166 96.166 0 0 0-14.557-1.184c.019-1.238.037-2.645.053-4.212Zm-15.76 1.002a97.565 97.565 0 0 1 13.16-1.002c-.016 1.567-.035 2.98-.053 4.215a96.445 96.445 0 0 0-13.881 1.121 238.52 238.52 0 0 0-.291-4.162c.352-.058.703-.117 1.066-.172Zm-1.873 8.421a1.298 1.298 0 0 0 1.245-1.353l-.006-.126a93.49 93.49 0 0 1 13.697-1.129l-.035 1.701c-.02.909-.033 1.392-.033 1.393a1.302 1.302 0 0 0 1.264 1.335 1.297 1.297 0 0 0 1.335-1.264c0-.003.03-1.141.069-3.168 4.747.023 9.485.407 14.174 1.149.17.028.33.06.497.089v.019a1.295 1.295 0 0 0 .75 1.234 1.28 1.28 0 0 0 1.758-.765c1.652.351 3.277.812 4.866 1.381a49.882 49.882 0 0 1-8.607 1.985 99.205 99.205 0 0 1-14.55 1.015 85.341 85.341 0 0 1-20.616-2.232c-.92-.241-1.77-.498-2.548-.767a39.192 39.192 0 0 1 5.446-1.502 1.28 1.28 0 0 0 1.294 1.005Zm-11.571-2.205a1.93 1.93 0 0 1-.222-.359l-.096-.491c.039-.252.149-.488.318-.68a8.299 8.299 0 0 1 3.177-2.068 35.707 35.707 0 0 1 6.63-1.965c.127 1.638.22 3.055.285 4.148a34.003 34.003 0 0 0-8.5 2.687c-.067-.04-.142-.079-.206-.119a5.288 5.288 0 0 1-1.386-1.153Zm1.386 25.928a5.287 5.287 0 0 1-1.386-1.153 1.25 1.25 0 0 1-.327-.765.966.966 0 0 1 .12-.444c.236-.406.557-.755.941-1.025.254-.193.519-.37.793-.531l.88 4.477a11.88 11.88 0 0 1-1.02-.559Zm51.627 5.437-.044.139a1.855 1.855 0 0 1-.487.77 9.28 9.28 0 0 1-2.984 1.856 38.189 38.189 0 0 1-8.851 2.345 81.37 81.37 0 0 1-12.648.929 69.908 69.908 0 0 1-17.824-2.037 22.1 22.1 0 0 1-5.255-2.059 6.62 6.62 0 0 1-1.389-1.048 1.947 1.947 0 0 1-.507-.782l-.034-.103-.787-2.122a46.032 46.032 0 0 0 10.854 2.779c4.947.714 9.94 1.063 14.938 1.043a87.745 87.745 0 0 0 21.275-2.316 31.997 31.997 0 0 0 4.56-1.542l-.817 2.148Zm2.702-8.426c.195.183.36.398.486.634a.964.964 0 0 1 .115.437 1.25 1.25 0 0 1-.326.765 7.106 7.106 0 0 1-2.414 1.715l.882-4.478c.454.259.875.57 1.257.927Zm-4.994 4.595c-.006.031.004.06 0 .091a51.523 51.523 0 0 1-8.176 1.836 99.067 99.067 0 0 1-14.55 1.014 85.29 85.29 0 0 1-20.616-2.231 35.17 35.17 0 0 1-2.097-.617l-4.71-23.953c.488.27 1.004.532 1.575.781a45.846 45.846 0 0 0 10.91 2.802c4.947.715 9.94 1.063 14.938 1.043a87.746 87.746 0 0 0 21.275-2.316 26.78 26.78 0 0 0 6.15-2.32l-4.7 23.87Zm-2.084-36.67a2.73 2.73 0 0 1 1.913-.679 7.85 7.85 0 0 1 3.081.807c-.3.424-.625.83-.973 1.215a7.993 7.993 0 0 1-1.616 1.406 3.036 3.036 0 0 1-1.588.535 2.157 2.157 0 0 1-1.105-.318 4.24 4.24 0 0 1-.986-.831 5.074 5.074 0 0 1 1.274-2.135Zm.817 5.884a5.358 5.358 0 0 0 2.519-.679c1.205.42 2.34 1.015 3.372 1.767.308.233.575.517.788.839.096.147.155.314.172.489l-.094.477c-.06.128-.134.248-.221.359a5.648 5.648 0 0 1-1.592 1.276 32.663 32.663 0 0 0-7.903-2.567c.048-.791.11-1.762.19-2.868.12.082.238.167.36.238.73.434 1.56.664 2.41.669Zm13.81-21.415a4.986 4.986 0 0 1-1.64 1.272 7.582 7.582 0 0 1-3.487.869 5.574 5.574 0 0 1-2.41-.498 2.024 2.024 0 0 1-1.06-.977c-.215-.554-.38-1.03-.507-1.435-.105-.448-.209-.87-.312-1.243a1.3 1.3 0 0 0-1.599-.908 1.567 1.567 0 0 0-.916 1.688c.072.306.175.694.32 1.159.033.142.065.271.098.423.077.335.118.677.121 1.02.009.341-.054.679-.183.994a1.89 1.89 0 0 1-.989.956 6.127 6.127 0 0 1-2.62.461 15.714 15.714 0 0 1-2.189-.168 8.794 8.794 0 0 1-3.775-1.214 1.996 1.996 0 0 1-.594-.606.87.87 0 0 1-.127-.448c.041-.433.248-.832.577-1.116v-.001a16.71 16.71 0 0 1 3.12-2.294 1.28 1.28 0 0 0 .202-.186l.12-.062a1.3 1.3 0 1 0-1.21-2.302c-1.228.646-2.53 1.329-3.773 1.837a9.317 9.317 0 0 1-3.341.824 2.81 2.81 0 0 1-1.494-.368 3.135 3.135 0 0 1-1.16-1.378l-.001-.001a3.517 3.517 0 0 1-.431-1.498c-.011-.258.068-.511.224-.716a2.776 2.776 0 0 1 1.456-.827 9.524 9.524 0 0 1 2.58-.317c.402 0 .8.018 1.181.052.02.002.038-.007.058-.006.09.014.17.039.262.052 1.104.156 2.083.262 2.954.324a1.299 1.299 0 0 0 1.071-2.147 1.301 1.301 0 0 0-.886-.447c-.799-.057-1.722-.156-2.776-.304a7.638 7.638 0 0 1-2.706-.828c-.2-.108-.38-.252-.53-.424l-.034-.054c.065-.102.147-.192.241-.267a4.53 4.53 0 0 1 1.094-.646 12.943 12.943 0 0 1 5.156-1.278 4.802 4.802 0 0 1 1.953.347c.285.1.526.297.679.557v.002c.127.259.267.511.42.756.047.219.094.437.146.653a1.3 1.3 0 0 0 1.075.979 1.287 1.287 0 0 0 1.058-.002 1.301 1.301 0 0 0 .632-1.727c-.14-.302-.29-.569-.433-.816a2.973 2.973 0 0 1-.032-.387c-.007-.158.019-.315.075-.463.065-.124.103-.196.391-.334a4.196 4.196 0 0 1 1.635-.244c.938.017 1.871.112 2.792.286 1.206.166 2.38.509 3.485 1.02.167.084.323.189.464.312a2.795 2.795 0 0 1-.683.454h.001l-1.28.648c-.279.097-.563.198-.863.309a1.285 1.285 0 0 0-.79 1.599 1.288 1.288 0 0 0 1.564.859c.206.012.412-.027.6-.112.184-.089.359-.179.538-.268a13.562 13.562 0 0 1 4.124-.916c.419-.011.835.063 1.224.217.371.167.72.378 1.04.63a10.519 10.519 0 0 1 1.965 1.778c.36.384.578.878.62 1.402l-.003.069-.003.031a.885.885 0 0 1-.175.051 3.365 3.365 0 0 1-.68.057 15.248 15.248 0 0 1-2.334-.247c-.954-.157-2.061-.379-3.284-.622a38.849 38.849 0 0 1-1.482-.324 1.291 1.291 0 0 0-.983.155 1.298 1.298 0 0 0-.585.805 1.574 1.574 0 0 0 1.158 1.661c1.54.355 3.058.793 4.55 1.312a3.28 3.28 0 0 1 1.419.819c.201.197.317.464.324.746a1.631 1.631 0 0 1-.407.981Z"/><path fill="#FFE632" d="M12.148 117.389v-.006l-.002-.003.002.009Z"/><path fill="#FFE632" d="M29.727 115.994v-.008a4.25 4.25 0 0 0-.944-2.231 7.075 7.075 0 0 0-3.095-2.095 12.255 12.255 0 0 0-4.232-.717c-.351 0-.707.014-1.066.041a11.89 11.89 0 0 0-5.652 1.806 6.62 6.62 0 0 0-1.852 1.796 4.307 4.307 0 0 0-.761 2.394c0 .135.007.269.021.404.092.817.419 1.591.942 2.227a7.071 7.071 0 0 0 3.095 2.094c1.358.487 2.79.73 4.233.717.35 0 .706-.013 1.066-.04a11.89 11.89 0 0 0 5.65-1.806 6.624 6.624 0 0 0 1.853-1.797c.486-.704.75-1.537.761-2.393 0-.134-.007-.265-.019-.392Zm-2.905 1.344a4.913 4.913 0 0 1-2.006 1.566c-1.114.506-2.31.806-3.53.885-.295.023-.585.034-.87.033a8.837 8.837 0 0 1-4.17-.936 3.737 3.737 0 0 1-1.128-.9 1.648 1.648 0 0 1-.386-.869v-.009l-.007-.128a1.71 1.71 0 0 1 .325-.952 4.905 4.905 0 0 1 2.006-1.566 10.135 10.135 0 0 1 3.53-.886c.293-.022.584-.033.87-.033a8.836 8.836 0 0 1 4.169.937c.43.224.814.529 1.129.9.21.245.345.547.385.868l.007.138a1.71 1.71 0 0 1-.324.952Z"/><path fill="#BEBEC9" d="M193.168 93.26c1.128.223 2.318.402 3.575.529a1.301 1.301 0 0 0 .261-2.587 35.209 35.209 0 0 1-3.33-.493 1.297 1.297 0 0 0-1.528 1.022 1.312 1.312 0 0 0 .194.976 1.3 1.3 0 0 0 .828.552Z"/><path fill="#BEBEC9" d="m192.304 87.97-1.167 7.834a1.286 1.286 0 0 0 .236.972 1.305 1.305 0 0 0 1.366.49 1.297 1.297 0 0 0 .969-1.079l1.167-7.833a1.286 1.286 0 0 0-.236-.972 1.29 1.29 0 0 0-.856-.516 1.297 1.297 0 0 0-1.31.623 1.293 1.293 0 0 0-.169.482M128.754 125.195h-.002v.001l.002-.001ZM160.922 100.884l-.002-.001-.002-.001.004.002ZM170.264 97.225l-.001.002h-.001l.002-.002Z"/><path fill="#BEBEC9" d="M197.719 86.835a30.74 30.74 0 0 1-15.932-6.184c4.059-.9 7.959-2.41 11.565-4.48a16.425 16.425 0 0 0 4.571-3.935 8.464 8.464 0 0 0 1.848-5.154 8.367 8.367 0 0 0-.374-2.444 7.376 7.376 0 0 0-3.342-4.33 10.66 10.66 0 0 0-5.452-1.302 27.283 27.283 0 0 0-10.585 2.59 45.905 45.905 0 0 0-9.442 5.646 1.293 1.293 0 0 0-2.237.042 1.296 1.296 0 0 0-.142.871c.434 2.291.658 4.618.668 6.95a28.717 28.717 0 0 1-2.404 11.76 31.507 31.507 0 0 1-7.037 9.848 14.308 14.308 0 0 1-2.344-2.76h-.001a16.381 16.381 0 0 1-1.598-3.196c.152-.1.318-.19.458-.3a5.165 5.165 0 0 0 1.427-1.716 4.66 4.66 0 0 0 .494-2.108 6.108 6.108 0 0 0-.595-2.523 7.911 7.911 0 0 0 .21-1.692c-.012-.334.03-.668.122-.989h.001c.159-.397.336-.832.482-1.304.165-.5.254-1.023.264-1.55a3.235 3.235 0 0 0-.224-1.215 2.902 2.902 0 0 0-.199-.37 3.267 3.267 0 0 0 .395-1.542 4.155 4.155 0 0 0-.911-2.506v-.001a3.337 3.337 0 0 0-1.452-1.073 4.378 4.378 0 0 0-1.004-.246 3.929 3.929 0 0 0-1.949-2.24 5.118 5.118 0 0 0-2.336-.556 6.263 6.263 0 0 0-1.905.324 1.287 1.287 0 0 0-1.011-.966h-.001a7.169 7.169 0 0 0-1.342-.126 8.266 8.266 0 0 0-3.955 1.066 13.138 13.138 0 0 0-4.584 4.413 15.062 15.062 0 0 0-2.316 6.149c-.079.591-.118 1.188-.119 1.786a12.525 12.525 0 0 0 1.498 5.988c.212.39.445.768.7 1.131a3.206 3.206 0 0 0-.337.523c-.21.408-.319.86-.32 1.318.013.666.22 1.313.597 1.861a7.108 7.108 0 0 0 1.732 1.757c.035.026.073.048.109.074a39.526 39.526 0 0 1-1.506 8.134l.001-.001a26.426 26.426 0 0 1-4.566 8.918c-.027.007-.054 0-.08.008a69.447 69.447 0 0 1-20.1 2.975c-9.325.001-18.35-1.913-25.702-5.669-7.358-3.762-13.026-9.322-15.845-16.678a42.543 42.543 0 0 1-1.649-5.312 1.302 1.302 0 0 0-1.567-.964 1.3 1.3 0 0 0-.961 1.57 45.112 45.112 0 0 0 1.75 5.636c3.083 8.057 9.294 14.088 17.09 18.063 7.802 3.981 17.206 5.952 26.884 5.953a72.303 72.303 0 0 0 16.385-1.896c-3.861 2.875-8.899 4.592-15.609 4.605-.607 0-1.229-.014-1.863-.044a1.298 1.298 0 0 0-1.023 2.173 1.3 1.3 0 0 0 .9.424c.675.032 1.337.047 1.987.047 7.183-.004 12.873-1.891 17.225-5.163l.002-.002a26.566 26.566 0 0 0 9.228-13.885l.001-.001a41.541 41.541 0 0 0 1.513-7.749 7.928 7.928 0 0 0 1.871.222 9.35 9.35 0 0 0 1.542-.146 40.303 40.303 0 0 1-4.135 14.735l-.001.002a27.354 27.354 0 0 1-13.465 12.732l-.002.001a34.25 34.25 0 0 1-13.779 2.654c-.704 0-1.42-.017-2.146-.051a1.285 1.285 0 0 0-.939.335 1.298 1.298 0 0 0 .323 2.141c.155.073.323.114.494.121.766.036 1.522.054 2.268.054a36.854 36.854 0 0 0 14.816-2.87 29.972 29.972 0 0 0 14.737-13.918l-.001.001c.27-.518.521-1.05.768-1.584a72.2 72.2 0 0 0 10.373-5.791 19.943 19.943 0 0 0 3.633 2.359l.002.001a15.156 15.156 0 0 0 6.654 1.66 11.218 11.218 0 0 0 3.803-.643 9.848 9.848 0 0 0 3.435-2.106v-.001l.007-.005a13.684 13.684 0 0 0 2.279-2.996l.005-.007c.057-.097.107-.198.163-.296 3.351 3.498 7.488 7.004 13.238 8.863a1.298 1.298 0 0 0 1.389-.394 1.31 1.31 0 0 0 .307-.947 1.303 1.303 0 0 0-.896-1.133c-5.512-1.782-9.44-5.261-12.789-8.856.311-.69.6-1.374.852-2.026.305-.726.563-1.47.772-2.23.182-.776.272-1.57.268-2.368 0-.198-.006-.398-.017-.6a49.736 49.736 0 0 0 3.691 4.019 26.735 26.735 0 0 0 10.437 6.414 1.3 1.3 0 0 0 .801-2.474 24.118 24.118 0 0 1-9.436-5.814c-.072-.069-.134-.142-.205-.211a32.969 32.969 0 0 0 13.103 4.026 1.298 1.298 0 0 0 1.38-1.669 1.3 1.3 0 0 0-1.12-.918 30.876 30.876 0 0 1-16.173-6.358c-1.926-1.415-3.625-2.857-5.358-4.076a18.145 18.145 0 0 0-3.41-1.933c-.176-.677-.353-1.328-.521-1.926-.005-.015-.016-.026-.021-.04.28-1.487.456-2.992.525-4.503a14.828 14.828 0 0 1 3.266 1.812c2.395 1.677 5.029 4.093 8.591 6.251a32.886 32.886 0 0 0 14.174 4.643 1.3 1.3 0 1 0 .261-2.587Zm-28.88 1.082c.246-.557.465-1.123.673-1.69.243 1.055.456 2.093.605 3.01-.147.49-.531 1.843-.971 3.282a72.51 72.51 0 0 1-.68 2.126c-.217.644-.427 1.2-.56 1.481l-.001.003a18.83 18.83 0 0 1-1.01 1.908l-.005.008a7.179 7.179 0 0 1-.425.625l-.153.19-.043.046-.006.007h.001l-.011.009c-.13.121-.284.213-.452.27a2.618 2.618 0 0 1-.88.132h-.018a6.677 6.677 0 0 1-2.829-.77l-.004-.002a9.223 9.223 0 0 1-.52-.28 33.937 33.937 0 0 0 7.289-10.355Zm-13.244-8.558c-.1.328-.249.703-.408 1.097v-.001c-.162.42-.257.864-.282 1.314-.04.584-.031 1.053-.098 1.447a2.327 2.327 0 0 1-.483 1.116 1.298 1.298 0 0 0 .228 1.825c.201.148.442.234.693.245.007.079.015.158.015.231.003.326-.071.648-.216.939a3.038 3.038 0 0 1-1.341 1.253 8.245 8.245 0 0 1-2.356.77 6.444 6.444 0 0 0-.228-1.307c.08-.11.167-.218.233-.332a9.643 9.643 0 0 0 1.065-3.666c.079-.598.138-1.17.201-1.665a8.37 8.37 0 0 1 .211-1.176c.164-.711.476-1.38.915-1.963.153-.178.339-.326.548-.434.259-.128.539-.208.826-.237.207-.026.413-.067.614-.123-.02.227-.066.45-.137.667Zm-11.819 13.529a4.737 4.737 0 0 1-2.914-.917c-.43-.3-.807-.67-1.114-1.095a.847.847 0 0 1-.176-.444l.037-.139a.992.992 0 0 1 .26-.296l.131-.094.027-.017-.001-.001a1.3 1.3 0 0 0 .674-.956 1.294 1.294 0 0 0-.37-1.11h.001a7.69 7.69 0 0 1-1.171-1.7 9.929 9.929 0 0 1-1.129-4.647c0-.484.033-.968.096-1.448a12.717 12.717 0 0 1 3.009-6.513 9.572 9.572 0 0 1 2.559-2.104 5.907 5.907 0 0 1 2.214-.714 16.643 16.643 0 0 0-2.727 2.645 1.293 1.293 0 0 0-.293.95 1.298 1.298 0 0 0 1.415 1.174 1.303 1.303 0 0 0 .88-.465 13.11 13.11 0 0 1 2.884-2.654 4.954 4.954 0 0 1 2.596-.918c.402-.003.799.09 1.158.274.108.056.209.127.298.21a9.13 9.13 0 0 0-1.526.618 9.999 9.999 0 0 0-3.302 2.782 1.297 1.297 0 0 0 .243 1.824 1.291 1.291 0 0 0 .962.255 1.303 1.303 0 0 0 .861-.5 7.395 7.395 0 0 1 2.438-2.056 5.441 5.441 0 0 1 2.42-.67c.267-.007.534.036.786.126a.736.736 0 0 1 .334.228c.224.26.358.588.38.932a.638.638 0 0 1-.184.474c-.201.185-.46.296-.733.313a5.023 5.023 0 0 0-1.697.505 4.635 4.635 0 0 0-1.804 1.695 8.958 8.958 0 0 0-.966 2.291 13.684 13.684 0 0 0-.359 2.118 16.104 16.104 0 0 1-.541 3.081 2.946 2.946 0 0 1-.476.932 1.1 1.1 0 0 1-.561.38 1.301 1.301 0 0 0-.882 1.612 1.283 1.283 0 0 0 1.235.915c.006.083.015.164.015.248a1.9 1.9 0 0 1-.276 1.07 2.286 2.286 0 0 1-.501.46 7.165 7.165 0 0 1-1.822.922 7.381 7.381 0 0 1-2.388.424Zm1.901 13.233a46.773 46.773 0 0 0 2.281-11.077 24.045 24.045 0 0 0 4.404 6.778c.092.097.191.182.284.277a66.597 66.597 0 0 1-6.969 4.022Zm27.643-17.582a3.198 3.198 0 0 1 1.371 1.658c.316.824.473 1.7.461 2.582a7.716 7.716 0 0 1-.196 1.76 16.82 16.82 0 0 1-.67 1.901 30.933 30.933 0 0 1-2.08 4.408 11.143 11.143 0 0 1-1.839 2.44 7.233 7.233 0 0 1-2.526 1.546 8.593 8.593 0 0 1-2.92.49 12.573 12.573 0 0 1-5.507-1.392 18.127 18.127 0 0 1-5.154-3.888 21.541 21.541 0 0 1-4.257-6.805c.24-.207.454-.443.638-.7.056-.083.089-.168.137-.252.055.007.111.011.166.011.73-.099 1.45-.254 2.155-.465a18.8 18.8 0 0 0 1.806 3.545h-.001a15.718 15.718 0 0 0 6.016 5.506 9.21 9.21 0 0 0 3.983 1.04h.018c.6.007 1.198-.091 1.765-.288l.005-.002a3.85 3.85 0 0 0 1.28-.771c.013-.01.028-.015.04-.026l.014-.014.007-.005-.001-.001c.085-.079.165-.163.241-.25.311-.366.591-.757.838-1.168l-.004.006.004-.007.001-.001c.424-.701.808-1.426 1.15-2.17.252-.57.475-1.153.667-1.746.35-1.029.721-2.245 1.033-3.292.31-1.043.562-1.927.655-2.234.031-.36.057-.72.077-1.081-.032-.199-.07-.407-.107-.613.256.059.503.152.734.278Zm5.804-9.916c-.997-.78-1.964-1.537-2.937-2.222a15.824 15.824 0 0 0-4.749-2.4 40.175 40.175 0 0 0-.309-3.871 43.469 43.469 0 0 1 9.936-6.154 24.796 24.796 0 0 1 9.538-2.37 8.113 8.113 0 0 1 4.131.94 4.747 4.747 0 0 1 2.175 2.848c.17.547.259 1.115.262 1.688a5.858 5.858 0 0 1-1.319 3.583 17.364 17.364 0 0 1-6.564 4.723 46.584 46.584 0 0 1-9.965 3.15c-.069.023-.135.051-.199.085Z"/><path fill="#BEBEC9" d="m186.175 104.986 3.447 1.585a1.303 1.303 0 0 0 1.715-.643 1.304 1.304 0 0 0-.629-1.72l-3.446-1.585a1.302 1.302 0 0 0-1.087 2.363"/><path fill="#BEBEC9" d="m185.175 107.776 3.923-6.752a1.304 1.304 0 0 0-.472-1.775 1.3 1.3 0 0 0-1.776.469l-3.923 6.752a1.297 1.297 0 0 0 1.457 1.908c.333-.088.617-.305.791-.602"/><path fill="#FFE632" d="m58.46 127.604.002-.003v-.006l-.001.009Z"/><path fill="#FFE632" d="M74.887 126.228a7.254 7.254 0 0 0-2.987-2.417 12.387 12.387 0 0 0-4.33-1.099c-.351-.026-.698-.039-1.04-.039a11.09 11.09 0 0 0-5.285 1.227 6.169 6.169 0 0 0-1.862 1.518 4.168 4.168 0 0 0-.922 2.183 3.686 3.686 0 0 0-.021.396c.01.839.269 1.656.745 2.346a7.258 7.258 0 0 0 2.987 2.418 12.39 12.39 0 0 0 4.33 1.099c.35.026.696.039 1.038.039a11.108 11.108 0 0 0 5.286-1.227 6.173 6.173 0 0 0 1.863-1.518 4.17 4.17 0 0 0 .924-2.187v-.009c.012-.123.02-.251.02-.384a4.223 4.223 0 0 0-.746-2.346Zm-2.228 3.301a4.373 4.373 0 0 1-1.9 1.234 9.358 9.358 0 0 1-3.219.536c-.276 0-.558-.011-.842-.032a9.046 9.046 0 0 1-4.258-1.33 3.913 3.913 0 0 1-1.092-1.036 1.621 1.621 0 0 1-.309-.904l.006-.12.001-.009c.039-.306.166-.592.367-.826a4.388 4.388 0 0 1 1.9-1.234 9.328 9.328 0 0 1 3.217-.535c.277 0 .558.011.844.032a9.023 9.023 0 0 1 4.259 1.33c.427.271.797.622 1.09 1.035.192.264.3.579.31.904l-.007.131a1.565 1.565 0 0 1-.367.824Z"/></svg>