<svg width="200" height="200" viewBox="0 0 200 200" xmlns="http://www.w3.org/2000/svg"><g id="type=empty, mode=light"><g id="Layer 2"><path id="Vector" d="M84.0006 89.4717H36.8073L99.9012 55.8051L163.011 89.4717H127.25L127.376 95.1384H173.633L184.568 100.972C187.735 93.1384 186.235 88.4717 179.901 84.4717C173.568 80.4717 167.235 80.4717 152.901 74.6384C138.568 68.8051 126.068 56.6384 121.235 49.6384C116.401 42.6384 110.735 35.9718 102.068 35.6384C93.4013 35.3051 86.9012 38.1384 79.068 48.9717C71.2347 59.8051 63.4012 66.4717 47.7346 74.1384C32.068 81.8051 28.4012 80.1384 19.068 85.3051C9.7347 90.4717 15.568 100.805 15.568 100.805L26.1876 95.1384H83.2508L84.0006 89.4717Z"/></g><g id="Layer 45"><path id="Vector_2" d="M15.1057 102.205C15.2731 102.26 15.4501 102.281 15.6258 102.266C15.8015 102.25 15.9723 102.2 16.1277 102.116L26.8635 96.3624C26.9826 96.4058 27.1076 96.4311 27.2343 96.4373H63.8593C62.642 99.0794 61.5867 101.793 60.6993 104.563C60.0533 106.401 59.5707 108.293 59.2569 110.215C59.0897 111.341 59.0263 112.34 58.9562 113.448C58.8507 115.111 58.7314 117.056 58.2423 120.262C57.753 123.465 56.8923 127.917 55.3045 134.5C51.1315 151.805 50.5606 161.72 50.5605 165.856C50.5605 167.113 50.613 167.828 50.6335 168.062C50.6331 172.14 49.9104 176.739 49.9054 181.16C49.824 183.839 50.2496 186.51 51.1599 189.032C51.2879 189.351 51.5374 189.607 51.8535 189.743C52.1697 189.878 52.5268 189.883 52.8466 189.756C53.1664 189.629 53.4228 189.381 53.5596 189.065C53.6964 188.749 53.7024 188.392 53.5764 188.072C52.7894 185.855 52.4261 183.511 52.5054 181.16C52.501 177.529 53.0569 173.547 53.2007 169.68C53.9945 169.956 54.8026 170.188 55.6214 170.377C56.4866 170.581 57.5109 170.782 58.7044 170.968C58.5083 172.572 58.4147 174.186 58.4241 175.802C58.4256 179.78 58.7987 184.009 58.7969 187.42C58.8139 188.624 58.7424 189.828 58.583 191.021C58.5317 191.362 58.6176 191.709 58.8218 191.986C59.026 192.263 59.3318 192.448 59.6722 192.5C60.0126 192.552 60.3597 192.467 60.6373 192.264C60.915 192.06 61.1006 191.755 61.1533 191.414L61.1532 191.414C61.333 190.091 61.4144 188.755 61.3969 187.42C61.395 183.836 61.0226 179.624 61.0241 175.802C61.0135 174.3 61.0991 172.799 61.2804 171.308C63.0257 171.501 65.057 171.656 67.4097 171.749C67.343 175.638 66.7903 179.704 66.7863 183.586C66.725 185.953 67.0545 188.315 67.7614 190.575C67.8731 190.901 68.1098 191.169 68.4195 191.321C68.7291 191.473 69.0863 191.495 69.4125 191.383C69.7387 191.272 70.0071 191.035 70.1588 190.725C70.3104 190.416 70.3328 190.058 70.2211 189.732L70.2209 189.732C69.6084 187.743 69.3264 185.667 69.3862 183.586C69.382 179.964 69.9321 175.91 70.0078 171.823C70.7894 171.836 71.5935 171.845 72.4382 171.846C73.4629 171.846 74.5365 171.834 75.6591 171.811C75.4243 173.766 75.315 175.734 75.3318 177.702C75.3333 182.762 75.8394 188.125 75.837 191.802C75.837 191.951 75.8363 192.096 75.8348 192.238C75.8311 192.583 75.9645 192.915 76.2056 193.161C76.4468 193.408 76.7759 193.548 77.1207 193.552C77.4655 193.556 77.7976 193.422 78.044 193.181C78.2904 192.94 78.4309 192.611 78.4347 192.266L78.4345 192.266C78.4362 192.114 78.437 191.959 78.437 191.802C78.4345 187.919 77.9301 182.603 77.9317 177.702C77.9121 175.708 78.0362 173.714 78.3029 171.737C78.6926 171.723 79.0779 171.711 79.4786 171.694C81.0779 171.629 82.6401 171.599 84.1782 171.588C84.2229 172.342 84.2486 173.098 84.2486 173.855C84.2522 178.015 83.6556 182.191 83.6513 186.132C83.6099 188.149 83.8499 190.162 84.3645 192.113C84.4115 192.277 84.4904 192.43 84.5966 192.564C84.7029 192.698 84.8344 192.809 84.9837 192.892C85.133 192.975 85.2972 193.027 85.4668 193.047C85.6364 193.066 85.8082 193.052 85.9723 193.005C86.1364 192.958 86.2897 192.879 86.4233 192.773C86.5569 192.666 86.6683 192.535 86.7511 192.385C86.8339 192.236 86.8865 192.072 86.9059 191.902C86.9252 191.733 86.911 191.561 86.864 191.397L86.8638 191.397C86.417 189.679 86.2108 187.907 86.2513 186.132C86.247 182.457 86.845 178.252 86.8486 173.855C86.8486 173.105 86.8195 172.348 86.7778 171.588C88.8264 171.61 90.8078 171.676 92.7154 171.775C92.7072 171.811 92.6845 171.841 92.6796 171.879C92.3655 174.499 92.2179 177.136 92.2376 179.774C92.2544 184.346 92.5463 188.913 93.1116 193.45C93.1551 193.792 93.3326 194.102 93.6052 194.314C93.8778 194.525 94.2231 194.619 94.5651 194.575C94.9072 194.532 95.2179 194.354 95.4291 194.082C95.6402 193.809 95.7344 193.464 95.691 193.122L95.6909 193.122C95.1394 188.694 94.8545 184.237 94.8376 179.774C94.8182 177.248 94.9585 174.724 95.2578 172.216C95.2624 172.119 95.2556 172.022 95.2376 171.926C95.5126 171.945 95.7844 171.965 96.0559 171.985L100.968 172.446C101.057 173.518 101.101 174.6 101.101 175.692C101.104 180.105 100.498 184.586 100.494 188.631C100.465 190.316 100.625 191.998 100.97 193.647C101.047 193.984 101.254 194.275 101.547 194.458C101.839 194.642 102.192 194.701 102.528 194.624C102.864 194.547 103.155 194.34 103.339 194.048C103.522 193.756 103.581 193.403 103.504 193.067L103.504 193.067C103.204 191.608 103.066 190.12 103.094 188.631C103.09 184.845 103.698 180.33 103.701 175.692C103.701 174.713 103.66 173.727 103.593 172.741C105.665 173.003 107.567 173.287 109.263 173.573C109.323 173.583 109.379 173.593 109.438 173.603L109.438 173.604C109.268 176.261 109.138 179.153 109.138 182.052C109.043 186.288 109.47 190.52 110.411 194.651C110.454 194.816 110.53 194.971 110.633 195.107C110.736 195.243 110.865 195.357 111.013 195.443C111.16 195.529 111.323 195.585 111.493 195.608C111.662 195.631 111.834 195.621 111.999 195.577C112.164 195.534 112.319 195.458 112.455 195.355C112.591 195.251 112.705 195.122 112.791 194.975C112.877 194.827 112.933 194.664 112.956 194.495C112.979 194.326 112.969 194.154 112.925 193.989L112.925 193.989C112.043 190.073 111.645 186.065 111.738 182.052C111.738 179.336 111.857 176.607 112.015 174.067C113.706 174.389 115.113 174.693 116.182 174.941C116.841 175.093 117.366 175.223 117.764 175.325C117.902 176.626 117.971 177.934 117.973 179.243C117.977 183.653 117.31 187.727 117.304 191.544C117.293 192.76 117.385 193.976 117.579 195.177C117.607 195.345 117.669 195.506 117.76 195.651C117.851 195.795 117.969 195.92 118.108 196.019C118.248 196.118 118.405 196.188 118.571 196.226C118.738 196.264 118.91 196.269 119.078 196.24C119.247 196.212 119.408 196.15 119.552 196.059C119.697 195.968 119.822 195.85 119.921 195.711C120.02 195.571 120.09 195.414 120.128 195.248C120.166 195.081 120.171 194.909 120.142 194.74L120.142 194.74C119.973 193.683 119.894 192.614 119.904 191.544C119.898 188.04 120.569 183.905 120.573 179.243C120.578 177.629 120.485 176.016 120.292 174.413C120.29 174.397 120.28 174.385 120.278 174.369C120.279 174.347 120.285 174.326 120.285 174.303C120.285 162.81 119.78 151.829 119.147 142.068L119.174 142.07C119.121 141.187 119.068 140.319 119.014 139.459C118.595 132.688 118.173 126.633 117.833 121.489C117.41 115.08 117.114 110.076 117.114 106.741C117.1 105.721 117.146 104.701 117.253 103.686C117.528 101.477 117.909 98.5263 118.222 95.5245C118.385 93.9605 118.527 92.3834 118.628 90.8944C118.646 90.6166 118.664 90.3406 118.68 90.0698C118.74 89.0088 118.776 88.0058 118.775 87.1039C118.775 86.7729 118.769 86.4617 118.759 86.1607C118.729 85.6061 118.64 85.0564 118.492 84.521C118.372 84.0823 118.154 83.6764 117.855 83.3335C117.672 83.1326 117.452 82.9697 117.206 82.8542C116.944 82.7334 116.66 82.6712 116.372 82.6718C114.743 82.7433 113.155 83.2016 111.738 84.0088C110.957 84.4249 110.206 84.895 109.49 85.4156C108.885 85.9411 108.362 86.5537 107.937 87.2334C107.843 87.3934 107.761 87.5527 107.677 87.7121C106.878 89.2218 106.467 90.9065 106.481 92.6145C106.484 93.3334 106.543 94.051 106.656 94.7609L106.656 94.7609C106.71 95.1016 106.625 95.4494 106.422 95.7278C106.218 96.0062 105.913 96.1925 105.572 96.2456C105.232 96.2911 104.888 96.2038 104.612 96.0017C104.335 95.7996 104.147 95.4984 104.087 95.1611C103.953 94.3188 103.884 93.4674 103.881 92.6145C103.876 90.2573 104.503 87.9419 105.699 85.9105C105.981 85.448 106.302 85.0106 106.659 84.6031C106.56 84.598 106.473 84.5769 106.37 84.577C106.233 84.577 106.09 84.5816 105.944 84.591C105.122 84.6604 104.31 84.8189 103.522 85.0638C102.8 85.2773 102.096 85.5349 101.452 85.7916C100.507 86.2562 99.6345 86.8549 98.8611 87.5691C98.2695 88.1269 97.7797 88.7837 97.4139 89.5099C97.2385 89.8503 97.0955 90.2065 96.9868 90.5738C96.8934 90.9057 96.6721 91.1869 96.3713 91.3556C96.0706 91.5243 95.7152 91.5666 95.3833 91.4732C95.0514 91.3799 94.7702 91.1585 94.6015 90.8578C94.4328 90.5571 94.3905 90.2017 94.4839 89.8698C94.5132 89.7649 94.5608 89.6667 94.5941 89.5632C94.902 88.619 95.3663 87.7332 95.9675 86.9426C95.3714 86.9548 94.771 86.9691 94.1983 86.9691C92.8407 86.9841 91.4834 86.9211 90.133 86.7805C89.6459 86.7269 89.1631 86.6397 88.6881 86.5195C88.409 86.4547 88.1406 86.3501 87.8912 86.209C87.2401 85.8111 86.5552 85.4715 85.8443 85.194C83.094 84.0783 80.168 83.458 77.2015 83.362C76.4007 83.3524 75.6016 83.4374 74.8208 83.6153C74.065 83.781 73.3559 84.1141 72.7458 84.5899C71.3164 85.7661 70.0031 87.0768 68.8239 88.5038H41.5272L100.066 57.1311L158.605 88.5038H150.866C150.857 88.4758 150.846 88.4431 150.837 88.4173C150.658 87.9157 150.367 87.4614 149.987 87.0891C149.321 86.4729 148.525 86.0151 147.658 85.7499C146.183 85.2972 144.661 85.0171 143.122 84.9154C141.465 84.7679 139.705 84.7135 138.017 84.6722C137.887 84.6688 137.757 84.6673 137.629 84.6673C134.576 84.7116 131.579 85.4946 128.895 86.9494C128.618 86.7808 128.278 86.5825 127.893 86.3803C127.369 86.1014 126.826 85.8603 126.268 85.6586C125.67 85.4327 125.037 85.3085 124.397 85.291L124.141 85.3002C123.196 85.3296 122.257 85.4585 121.339 85.6846C121.36 86.1364 121.374 86.6036 121.375 87.1039C121.375 87.5221 121.359 87.9767 121.346 88.4235C121.28 90.6834 121.072 93.2512 120.808 95.7937C120.491 98.8363 120.107 101.807 119.833 104.008C119.74 104.916 119.7 105.828 119.713 106.741C119.713 109.931 120.005 114.925 120.427 121.318C120.771 126.528 121.201 132.688 121.627 139.588C121.68 140.447 121.733 141.317 121.786 142.199L123.792 142.298C123.5 144.208 123.366 146.139 123.39 148.072C123.392 152.05 123.765 156.247 123.763 159.657C123.78 160.868 123.708 162.078 123.549 163.278C123.499 163.619 123.585 163.966 123.79 164.242C123.995 164.519 124.301 164.703 124.642 164.755C124.982 164.806 125.329 164.72 125.606 164.516C125.884 164.312 126.068 164.006 126.12 163.665L126.12 163.665C126.299 162.337 126.38 160.998 126.363 159.657C126.361 156.073 125.989 151.894 125.99 148.072C125.963 146.181 126.107 144.292 126.419 142.428L132.385 142.722C132.361 146.763 131.757 151.064 131.753 155.11C131.687 157.455 132.018 159.795 132.732 162.03C132.789 162.191 132.877 162.339 132.991 162.466C133.105 162.593 133.243 162.696 133.397 162.77C133.551 162.843 133.718 162.886 133.889 162.895C134.059 162.904 134.23 162.88 134.391 162.823C134.552 162.766 134.7 162.678 134.827 162.564C134.954 162.449 135.057 162.311 135.131 162.157C135.205 162.003 135.247 161.836 135.256 161.666C135.265 161.495 135.241 161.325 135.184 161.164L135.184 161.164C134.57 159.207 134.289 157.16 134.353 155.11C134.349 151.357 134.941 147.089 134.982 142.85L140.563 143.126C140.378 144.9 140.289 146.683 140.299 148.467C140.3 153.527 140.806 158.846 140.804 162.522C140.804 162.67 140.803 162.815 140.802 162.958C140.798 163.303 140.931 163.635 141.172 163.881C141.414 164.127 141.743 164.268 142.087 164.272C142.432 164.275 142.764 164.142 143.011 163.901C143.257 163.66 143.398 163.331 143.401 162.986L143.401 162.986C143.403 162.833 143.404 162.679 143.404 162.522C143.401 158.638 142.897 153.367 142.898 148.467C142.887 146.726 142.975 144.985 143.161 143.254L149.206 143.553C149.207 143.646 149.215 143.739 149.215 143.832C149.218 147.991 148.622 152.219 148.618 156.157C148.574 158.158 148.815 160.155 149.334 162.089C149.382 162.252 149.462 162.405 149.569 162.538C149.676 162.671 149.808 162.781 149.958 162.863C150.108 162.945 150.273 162.996 150.442 163.014C150.612 163.033 150.784 163.017 150.948 162.969C151.111 162.921 151.264 162.841 151.397 162.734C151.53 162.627 151.64 162.494 151.722 162.344C151.804 162.195 151.855 162.03 151.874 161.86C151.892 161.691 151.876 161.519 151.828 161.355L151.828 161.355C151.38 159.66 151.175 157.91 151.218 156.157C151.214 152.483 151.811 148.227 151.815 143.832C151.815 143.782 151.81 143.731 151.81 143.681L157.407 143.958C157.455 146.541 157.468 149.369 157.514 152.153C157.521 155.655 157.71 159.155 158.079 162.637C158.123 162.979 158.301 163.29 158.573 163.501C158.846 163.711 159.192 163.805 159.534 163.761C159.876 163.717 160.186 163.539 160.397 163.266C160.608 162.994 160.701 162.648 160.658 162.306L160.657 162.306C160.302 158.919 160.12 155.516 160.114 152.11C160.063 149.035 160.05 145.899 159.985 143.052C160.02 142.932 160.036 142.807 160.035 142.681C160.034 142.676 159.909 138.669 159.658 133.826C159.406 128.977 159.035 123.321 158.521 119.903C158.284 118.339 157.747 115.794 157.055 112.764C156.018 108.226 154.636 102.637 153.429 97.94C153.297 97.4257 153.168 96.9276 153.041 96.4373H173.301C173.329 96.4373 173.352 96.4232 173.379 96.4215L184.005 102.116C184.16 102.199 184.331 102.25 184.507 102.265C184.683 102.281 184.86 102.26 185.027 102.205C185.194 102.149 185.349 102.06 185.481 101.943C185.613 101.826 185.72 101.684 185.795 101.524C186.891 99.319 187.485 96.8983 187.534 94.4362C187.549 92.2045 186.932 90.014 185.755 88.1176C184.495 86.1599 182.789 84.529 180.776 83.3587C178.974 82.2758 177.041 81.4248 175.025 80.8258C172.095 79.9123 168.929 79.2578 164.343 77.6765C157.746 75.3141 151.356 72.4099 145.238 68.9935C131.916 61.7834 125.657 53.3622 120.245 46.5055C117.539 43.0803 115.05 40.0221 111.936 37.7724C108.929 35.5983 105.347 34.3618 101.64 34.2187L101.64 33.151C101.639 30.5608 102.526 28.0485 104.151 26.0316L108.013 21.237C108.801 20.2636 109.389 19.1443 109.744 17.9433C110.098 16.7423 110.212 15.4832 110.08 14.238C109.947 12.9928 109.57 11.786 108.97 10.6867C108.371 9.58739 107.56 8.61719 106.585 7.83164C105.61 7.04609 104.489 6.46061 103.287 6.10874C102.085 5.75686 100.826 5.6455 99.581 5.78103C98.3361 5.91656 97.1302 6.29631 96.0323 6.89855C94.9343 7.50079 93.966 8.31368 93.1827 9.29068L89.721 13.5873C89.5047 13.8558 89.4039 14.1992 89.4408 14.542C89.4777 14.8848 89.6492 15.1989 89.9177 15.4153C90.1862 15.6316 90.5296 15.7324 90.8724 15.6955C91.2152 15.6586 91.5294 15.487 91.7457 15.2185L91.7455 15.2185L95.2075 10.9216C96.3591 9.49199 98.0315 8.57842 99.8567 8.38186C101.682 8.18531 103.51 8.72187 104.94 9.87352C106.37 11.0252 107.283 12.6976 107.48 14.5228C107.676 16.348 107.14 18.1766 105.988 19.6062L102.126 24.4004C100.129 26.8794 99.0395 29.9673 99.0397 33.151V34.2004C95.144 34.2484 91.3577 35.4957 88.1962 37.7724C85.8358 39.574 83.7163 41.671 81.8895 44.0119C75.93 51.2397 69.8812 60.8812 54.8945 68.9936C43.5462 75.124 36.6508 77.5329 31.6319 78.9928C29.119 79.7234 27.0589 80.2163 25.1062 80.8258C23.0902 81.4248 21.1579 82.2758 19.3551 83.3587C17.3425 84.5289 15.6362 86.1597 14.3763 88.1173C13.1997 90.0135 12.5831 92.2038 12.5979 94.4355C12.647 96.898 13.2412 99.3191 14.3377 101.525C14.4127 101.684 14.5195 101.827 14.6516 101.944C14.7836 102.061 14.9381 102.149 15.1057 102.205ZM66.8729 91.1038C66.2667 92.0009 65.7071 92.912 65.194 93.8372H31.5753L36.7373 91.0708C36.7908 91.0855 36.8453 91.0965 36.9003 91.1038L66.8729 91.1038ZM152.36 93.8372C152.167 93.1116 151.982 92.4195 151.816 91.8081C151.747 91.5549 151.686 91.3346 151.623 91.1038H163.234C163.289 91.0966 163.343 91.0857 163.396 91.0712L168.557 93.8373L152.36 93.8372ZM16.586 89.4875C17.6303 87.8783 19.0413 86.5398 20.7033 85.5818C22.3263 84.6077 24.0663 83.8434 25.8818 83.3075C28.6253 82.4475 31.9105 81.7623 36.6358 80.1347C43.3671 77.7262 49.8877 74.7649 56.1306 71.281C69.9135 63.8426 76.5572 54.9304 81.9288 48.1157C84.6146 44.7052 86.9876 41.8433 89.7165 39.8817C92.6878 37.7403 96.2859 36.6459 99.9462 36.7703C99.9841 36.7543 100.025 36.7461 100.066 36.7461C100.107 36.7461 100.148 36.7543 100.185 36.7703C103.846 36.6459 107.444 37.7403 110.416 39.8817C112.594 41.5543 114.551 43.4983 116.237 45.6666C122.026 52.6776 128.495 62.9138 144.002 71.2809C155.475 77.4836 162.612 79.9912 167.774 81.4895C170.352 82.2379 172.42 82.7347 174.25 83.3075C176.065 83.8434 177.805 84.6077 179.428 85.5818C181.09 86.5399 182.501 87.8786 183.546 89.4878C184.468 90.9724 184.95 92.6885 184.934 94.4362C184.903 96.0524 184.577 97.6493 183.971 99.1479L100.799 54.5744C100.325 54.4082 99.8072 54.4083 99.3322 54.5745L16.1616 99.148C15.5554 97.6492 15.2288 96.052 15.1979 94.4355C15.1823 92.6879 15.6637 90.9719 16.586 89.4875Z"/></g></g></svg>