<svg xmlns="http://www.w3.org/2000/svg" width="200" height="200" fill="none"><path fill="#FFD93A" d="M84 89.472H36.808l63.094-33.667 63.11 33.667H127.25l.126 5.666h46.257l10.935 5.834c3.167-7.834 1.667-12.5-4.667-16.5-6.333-4-12.666-4-27-9.834-14.333-5.833-26.833-18-31.666-25-4.834-7-10.5-13.666-19.167-14-8.667-.333-15.167 2.5-23 13.334-7.833 10.833-15.667 17.5-31.333 25.166-15.667 7.667-19.334 6-28.667 11.167-9.333 5.167-3.5 15.5-3.5 15.5l10.62-5.667H83.25l.75-5.666Z"/><path fill="#191C22" d="M15.106 102.205a1.31 1.31 0 0 0 1.022-.089l10.735-5.754c.12.044.245.07.371.075H63.86a71.677 71.677 0 0 0-3.16 8.126 33.164 33.164 0 0 0-1.442 5.652c-.167 1.126-.23 2.125-.3 3.233-.106 1.663-.226 3.608-.715 6.814-.489 3.203-1.35 7.655-2.938 14.238-4.172 17.305-4.743 27.22-4.744 31.356 0 1.257.053 1.972.073 2.206 0 4.078-.723 8.677-.728 13.098a21.284 21.284 0 0 0 1.255 7.872 1.302 1.302 0 0 0 1.687.724 1.298 1.298 0 0 0 .73-1.684 18.768 18.768 0 0 1-1.072-6.912c-.004-3.631.552-7.613.696-11.48.794.276 1.602.508 2.42.697a41.1 41.1 0 0 0 3.083.591 38.005 38.005 0 0 0-.28 4.834c.002 3.978.375 8.207.373 11.618a24.575 24.575 0 0 1-.214 3.601 1.3 1.3 0 0 0 2.57.393c.18-1.323.261-2.659.244-3.994-.002-3.584-.374-7.796-.373-11.618-.01-1.502.075-3.003.256-4.494a87.38 87.38 0 0 0 6.13.441c-.067 3.889-.62 7.955-.624 11.837a21.546 21.546 0 0 0 .975 6.989 1.3 1.3 0 0 0 2.46-.843 19.025 19.025 0 0 1-.835-6.146c-.004-3.622.546-7.676.622-11.763.781.013 1.586.022 2.43.023 1.025 0 2.099-.012 3.221-.035a46.106 46.106 0 0 0-.327 5.891c.001 5.06.507 10.423.505 14.1 0 .149 0 .294-.002.436a1.298 1.298 0 0 0 2.209.943 1.3 1.3 0 0 0 .39-.915c.002-.152.003-.307.003-.464-.002-3.883-.507-9.199-.505-14.1-.02-1.994.104-3.988.37-5.965.39-.014.776-.026 1.177-.043 1.599-.065 3.161-.095 4.7-.106.044.754.07 1.51.07 2.267.003 4.16-.593 8.336-.598 12.277-.041 2.017.199 4.03.714 5.981a1.305 1.305 0 0 0 1.102.934 1.307 1.307 0 0 0 .956-.274 1.305 1.305 0 0 0 .441-1.376 19.18 19.18 0 0 1-.613-5.265c-.004-3.675.594-7.88.598-12.277 0-.75-.03-1.507-.071-2.267 2.048.022 4.03.088 5.937.187-.008.036-.03.066-.035.104a62.411 62.411 0 0 0-.442 7.895c.016 4.572.308 9.139.874 13.676a1.302 1.302 0 0 0 1.453 1.125 1.3 1.3 0 0 0 1.126-1.453 111.408 111.408 0 0 1-.853-13.348c-.02-2.526.12-5.05.42-7.558a1.25 1.25 0 0 0-.02-.29l.818.059 4.912.461c.089 1.072.133 2.154.133 3.246.003 4.413-.603 8.894-.607 12.939a22.593 22.593 0 0 0 .476 5.016c.077.337.284.628.577.811a1.296 1.296 0 0 0 1.792-.41 1.3 1.3 0 0 0 .165-.981 20.147 20.147 0 0 1-.41-4.436c-.004-3.786.604-8.301.607-12.939 0-.979-.041-1.965-.108-2.951 2.072.262 3.974.546 5.67.832l.175.03v.001c-.17 2.657-.3 5.549-.3 8.448a51.527 51.527 0 0 0 1.273 12.599 1.3 1.3 0 1 0 2.514-.662 49.139 49.139 0 0 1-1.187-11.937c0-2.716.119-5.445.277-7.985 1.691.322 3.098.626 4.167.874.659.152 1.184.282 1.582.384.138 1.301.207 2.609.209 3.918.004 4.41-.663 8.484-.669 12.301a21.565 21.565 0 0 0 .275 3.633 1.292 1.292 0 0 0 .529.842 1.306 1.306 0 0 0 1.444.04 1.302 1.302 0 0 0 .59-1.319 19.11 19.11 0 0 1-.238-3.196c-.006-3.504.665-7.639.669-12.301a39.384 39.384 0 0 0-.281-4.83c-.002-.016-.012-.028-.014-.044.001-.022.007-.043.007-.066 0-11.493-.505-22.474-1.138-32.235l.027.002c-.053-.883-.106-1.751-.16-2.611-.419-6.771-.841-12.826-1.181-17.97-.423-6.409-.719-11.413-.719-14.748-.014-1.02.032-2.04.139-3.055.275-2.209.656-5.16.969-8.162.163-1.564.305-3.14.406-4.63.018-.277.036-.553.052-.824.06-1.061.096-2.064.095-2.966 0-.331-.006-.642-.016-.943a7.718 7.718 0 0 0-.267-1.64 3.02 3.02 0 0 0-.637-1.188 1.98 1.98 0 0 0-1.483-.662 10.27 10.27 0 0 0-4.634 1.338c-.781.416-1.532.886-2.248 1.407a8.084 8.084 0 0 0-1.553 1.817c-.094.16-.176.32-.26.48a10.3 10.3 0 0 0-1.196 4.902c.003.718.062 1.436.175 2.146a1.297 1.297 0 0 1-1.084 1.485 1.327 1.327 0 0 1-1.485-1.085 16.58 16.58 0 0 1-.206-2.546 13.157 13.157 0 0 1 1.818-6.704c.282-.463.603-.9.96-1.308-.099-.005-.186-.026-.289-.026-.137 0-.28.005-.426.014-.822.07-1.634.228-2.422.473a24.09 24.09 0 0 0-2.07.728 10.921 10.921 0 0 0-2.59 1.777 6.989 6.989 0 0 0-1.448 1.94c-.175.341-.319.698-.427 1.065a1.3 1.3 0 0 1-2.503-.704c.03-.105.077-.203.11-.307a8.875 8.875 0 0 1 1.374-2.62c-.597.012-1.197.026-1.77.026a35.472 35.472 0 0 1-4.065-.188c-.487-.054-.97-.141-1.445-.262a2.993 2.993 0 0 1-.797-.31 12.969 12.969 0 0 0-2.047-1.015 25.156 25.156 0 0 0-8.642-1.832c-.801-.01-1.6.075-2.381.253a5.177 5.177 0 0 0-2.075.975 28.953 28.953 0 0 0-3.922 3.914H41.527l58.539-31.373 58.539 31.373h-7.739a3.513 3.513 0 0 0-.879-1.415 6.024 6.024 0 0 0-2.329-1.34 19.94 19.94 0 0 0-4.536-.834c-1.657-.147-3.417-.202-5.105-.243-.13-.003-.26-.005-.388-.005-3.053.045-6.05.828-8.734 2.282a18.26 18.26 0 0 0-1.002-.569 12.509 12.509 0 0 0-1.625-.721 5.74 5.74 0 0 0-1.871-.368l-.256.01c-.945.029-1.884.157-2.802.384.021.451.035.919.036 1.419 0 .418-.016.873-.029 1.32-.066 2.26-.274 4.827-.538 7.37-.317 3.042-.701 6.013-.975 8.214-.093.908-.133 1.82-.12 2.733 0 3.19.292 8.184.714 14.577.344 5.21.774 11.37 1.2 18.27l.159 2.611 2.006.099a35.305 35.305 0 0 0-.402 5.774c.002 3.978.375 8.175.373 11.585a24.904 24.904 0 0 1-.214 3.621 1.3 1.3 0 0 0 2.571.387c.179-1.328.26-2.667.243-4.008-.002-3.584-.374-7.763-.373-11.585-.027-1.891.117-3.78.429-5.644l5.966.294c-.024 4.041-.628 8.342-.632 12.388a20.817 20.817 0 0 0 .979 6.92 1.304 1.304 0 0 0 1.157.865 1.3 1.3 0 0 0 1.295-1.731 18.317 18.317 0 0 1-.831-6.054c-.004-3.753.588-8.021.629-12.26l5.581.276a48.855 48.855 0 0 0-.264 5.341c.001 5.06.507 10.379.505 14.055l-.002.436a1.297 1.297 0 0 0 1.285 1.314 1.297 1.297 0 0 0 1.314-1.286c.002-.153.003-.307.003-.464-.003-3.884-.507-9.155-.506-14.055a46.077 46.077 0 0 1 .263-5.213l6.045.299c.001.093.009.186.009.279.003 4.159-.593 8.387-.597 12.325a21.096 21.096 0 0 0 .716 5.932 1.306 1.306 0 0 0 .624.774 1.296 1.296 0 0 0 .99.106 1.306 1.306 0 0 0 .926-1.109 1.308 1.308 0 0 0-.046-.505 18.56 18.56 0 0 1-.61-5.198c-.004-3.674.593-7.93.597-12.325 0-.05-.005-.101-.005-.151l5.597.277c.048 2.583.061 5.411.107 8.195.007 3.502.196 7.002.565 10.484.044.342.222.653.494.864a1.305 1.305 0 0 0 1.824-.235c.211-.272.304-.618.261-.96h-.001a99.492 99.492 0 0 1-.543-10.196c-.051-3.075-.064-6.211-.129-9.058.035-.12.051-.245.05-.371-.001-.005-.126-4.012-.377-8.855-.252-4.849-.623-10.505-1.137-13.923-.237-1.564-.774-4.109-1.466-7.139-1.037-4.538-2.419-10.127-3.626-14.824l-.388-1.503h20.26c.028 0 .051-.014.078-.016l10.626 5.695a1.298 1.298 0 0 0 1.476-.173c.132-.117.239-.259.314-.419a16.67 16.67 0 0 0 1.739-7.088 11.832 11.832 0 0 0-1.779-6.318 14.718 14.718 0 0 0-4.979-4.76 24.977 24.977 0 0 0-5.751-2.532c-2.93-.914-6.096-1.568-10.682-3.15a127.015 127.015 0 0 1-19.105-8.683c-13.322-7.21-19.581-15.63-24.993-22.487-2.706-3.426-5.195-6.484-8.309-8.734a18.811 18.811 0 0 0-10.296-3.553V33.15a11.342 11.342 0 0 1 2.511-7.12l3.862-4.794a9.526 9.526 0 0 0 2.067-6.999 9.524 9.524 0 0 0-16.897-4.947l-3.462 4.296a1.3 1.3 0 0 0 2.025 1.632l3.462-4.297a6.922 6.922 0 1 1 10.78 8.684l-3.862 4.794a13.948 13.948 0 0 0-3.086 8.751v1.05a18.955 18.955 0 0 0-10.844 3.571 34.723 34.723 0 0 0-6.306 6.24c-5.96 7.228-12.009 16.87-26.995 24.982-11.349 6.13-18.244 8.539-23.263 9.999-2.513.73-4.573 1.223-6.526 1.833a24.993 24.993 0 0 0-5.75 2.533 14.72 14.72 0 0 0-4.98 4.758 11.835 11.835 0 0 0-1.778 6.319c.049 2.462.643 4.883 1.74 7.089a1.302 1.302 0 0 0 .768.68Zm51.767-11.101a36.492 36.492 0 0 0-1.679 2.733H31.575l5.162-2.766c.054.014.108.026.163.033h29.973Zm85.487 2.733c-.193-.725-.378-1.418-.544-2.029l-.193-.704h11.611c.055-.007.109-.018.162-.033l5.161 2.766H152.36Zm-135.774-4.35a12.13 12.13 0 0 1 4.117-3.905 22.369 22.369 0 0 1 5.179-2.274c2.743-.86 6.028-1.546 10.754-3.173A129.601 129.601 0 0 0 56.13 71.28c13.782-7.438 20.426-16.35 25.798-23.165 2.686-3.41 5.059-6.273 7.787-8.234a16.536 16.536 0 0 1 10.23-3.112.309.309 0 0 1 .239 0 16.54 16.54 0 0 1 10.231 3.112 32.275 32.275 0 0 1 5.821 5.785c5.789 7.01 12.258 17.247 27.765 25.614 11.473 6.203 18.61 8.71 23.772 10.209 2.578.748 4.646 1.245 6.476 1.818 1.815.535 3.555 1.3 5.178 2.274a12.14 12.14 0 0 1 4.118 3.906 9.22 9.22 0 0 1 1.388 4.948 13.245 13.245 0 0 1-.963 4.712l-83.172-44.574a2.22 2.22 0 0 0-1.467 0l-83.17 44.574a13.243 13.243 0 0 1-.964-4.712 9.22 9.22 0 0 1 1.388-4.949Z"/></svg>