<svg width="200" height="200" viewBox="0 0 200 200" xmlns="http://www.w3.org/2000/svg"><g id="type=confirmation, mode=dark"><g id="Layer 7"><path id="Vector" d="M142.876 124.648C150.624 135.803 155.177 149.345 157.762 160.084C159.056 165.454 159.862 170.122 160.343 173.442C160.584 175.102 160.744 176.425 160.843 177.33C160.893 177.782 160.927 178.13 160.949 178.363C160.96 178.48 160.968 178.568 160.973 178.626L160.98 178.71C160.994 178.88 161.041 179.046 161.118 179.198C161.196 179.35 161.303 179.485 161.433 179.596C161.563 179.706 161.713 179.79 161.876 179.843C162.038 179.895 162.209 179.915 162.38 179.902C162.55 179.888 162.716 179.841 162.868 179.764C163.02 179.686 163.155 179.579 163.265 179.449C163.376 179.319 163.46 179.169 163.513 179.006C163.565 178.844 163.585 178.673 163.572 178.502C162.929 172.09 161.832 165.732 160.29 159.475C157.653 148.548 153.04 134.74 145.012 123.166C144.815 122.883 144.514 122.691 144.176 122.63C143.837 122.57 143.488 122.646 143.205 122.842C142.923 123.038 142.729 123.338 142.668 123.677C142.606 124.016 142.681 124.365 142.876 124.648L142.876 124.648Z"/><path id="Vector_2" d="M135.394 115.741C136.575 116.888 137.704 118.089 138.782 119.344C139.007 119.606 139.327 119.767 139.671 119.792C140.015 119.818 140.355 119.706 140.616 119.481C140.877 119.256 141.038 118.936 141.064 118.592C141.089 118.248 140.977 117.909 140.752 117.647C139.626 116.34 138.444 115.083 137.206 113.876C136.959 113.636 136.626 113.503 136.281 113.508C135.937 113.513 135.608 113.655 135.368 113.902C135.127 114.15 134.995 114.482 135 114.827C135.005 115.172 135.147 115.5 135.394 115.741H135.394Z"/><path id="Vector_3" d="M41.0848 177.362C42.2307 181.44 43.6115 185.449 45.2204 189.368C45.2882 189.525 45.3861 189.667 45.5087 189.786C45.6313 189.905 45.7761 189.998 45.9349 190.061C46.0936 190.124 46.2631 190.155 46.4338 190.152C46.6045 190.149 46.773 190.113 46.9297 190.045C47.0864 189.978 47.2282 189.88 47.347 189.757C47.4658 189.634 47.5593 189.49 47.6222 189.331C47.685 189.172 47.716 189.003 47.7133 188.832C47.7107 188.661 47.6744 188.493 47.6066 188.336L47.5869 188.29C46.0343 184.486 44.6975 180.596 43.583 176.641C43.4865 176.311 43.2631 176.033 42.9617 175.867C42.6603 175.701 42.3054 175.662 41.9749 175.757C41.6444 175.852 41.3651 176.075 41.1983 176.376C41.0315 176.676 40.9906 177.031 41.0848 177.362L41.0848 177.362Z"/><path id="Vector_4" d="M100.679 182.778C100.91 184.999 101.609 187.147 102.727 189.081C103.231 189.996 103.817 190.864 104.477 191.674C104.603 191.821 104.76 191.938 104.937 192.017C105.114 192.095 105.306 192.133 105.5 192.128C105.693 192.123 105.883 192.074 106.056 191.986C106.228 191.898 106.379 191.773 106.497 191.619C107.127 190.757 107.678 189.839 108.143 188.878C109.166 186.894 109.728 184.704 109.788 182.473C109.799 181.18 109.55 179.898 109.055 178.703C108.561 177.509 107.831 176.426 106.909 175.52C106.666 175.276 106.337 175.138 105.992 175.136C105.648 175.135 105.318 175.27 105.073 175.512C104.828 175.754 104.689 176.083 104.687 176.427C104.685 176.771 104.819 177.102 105.06 177.348C105.745 178.012 106.287 178.809 106.653 179.69C107.019 180.572 107.201 181.519 107.188 182.473C107.126 184.306 106.655 186.103 105.81 187.731C105.521 188.318 105.199 188.888 104.845 189.438C104.715 189.64 104.607 189.796 104.534 189.898L104.453 190.011L104.435 190.035L104.432 190.039L104.794 190.315L104.433 190.038L104.432 190.039L104.794 190.315L104.433 190.038L105.465 190.829L106.452 189.983L106.072 190.309L106.454 189.985L106.452 189.983L106.072 190.309L106.454 189.985C105.89 189.285 105.39 188.535 104.96 187.746C104.044 186.153 103.468 184.387 103.269 182.56C103.255 182.39 103.208 182.224 103.13 182.072C103.052 181.92 102.944 181.785 102.814 181.674C102.683 181.564 102.532 181.48 102.37 181.428C102.207 181.376 102.035 181.357 101.865 181.371C101.695 181.385 101.529 181.433 101.377 181.512C101.225 181.59 101.09 181.698 100.98 181.828C100.87 181.959 100.787 182.11 100.735 182.273C100.683 182.436 100.664 182.607 100.679 182.778L100.679 182.778Z"/><path id="Vector_5" d="M100.19 171.592C99.9153 173.321 99.3484 174.99 98.5139 176.529L98.5084 176.538C98.2937 176.921 97.9988 177.253 97.6439 177.511L98.3426 178.607L97.6578 177.502C97.5633 177.565 97.4605 177.613 97.3523 177.647C97.2155 177.683 97.0744 177.7 96.9331 177.697L96.9491 178.997L96.9589 177.697C96.8173 177.705 96.6761 177.675 96.5499 177.61L96.5583 177.614C96.3632 177.51 96.1882 177.372 96.0415 177.207L96.0361 177.201C95.35 176.388 94.8049 175.465 94.4234 174.472L94.4211 174.466C94.3566 174.317 94.2923 174.163 94.2288 174.006C94.1651 173.848 94.0708 173.703 93.9512 173.581C93.8316 173.459 93.6891 173.362 93.5319 173.295C93.3747 173.228 93.2058 173.193 93.035 173.191C92.8641 173.189 92.6946 173.221 92.5362 173.285C92.3777 173.349 92.2334 173.444 92.1115 173.564C91.9897 173.683 91.8926 173.826 91.8259 173.983C91.7591 174.141 91.7241 174.31 91.7227 174.48C91.7213 174.651 91.7536 174.821 91.8178 174.979C91.8891 175.156 91.9614 175.329 92.0347 175.498L92.0324 175.493C92.5343 176.782 93.258 177.973 94.1707 179.012L94.1652 179.007C94.5253 179.396 94.9523 179.717 95.4258 179.955L95.4342 179.959C95.9039 180.184 96.4184 180.299 96.9392 180.297L96.965 180.297C97.3411 180.297 97.7153 180.245 98.0774 180.144C98.4124 180.044 98.7321 179.899 99.0274 179.712L99.0414 179.704C99.7243 179.239 100.295 178.629 100.713 177.916L100.707 177.925C101.721 176.116 102.409 174.142 102.741 172.095C102.805 171.758 102.733 171.409 102.541 171.125C102.349 170.841 102.052 170.644 101.716 170.577C101.379 170.511 101.03 170.58 100.744 170.77C100.458 170.961 100.259 171.256 100.19 171.592L100.19 171.592Z"/><path id="Vector_6" d="M86.9401 175.805C87.5382 177.514 88.3351 179.147 89.3143 180.67L89.3178 180.675C90.1192 181.913 91.1637 182.976 92.3881 183.798L92.3828 183.795C93.7299 184.675 95.3036 185.144 96.9126 185.147L96.9506 185.147H96.9464H96.9793C98.4561 185.151 99.9094 184.777 101.201 184.061L101.197 184.064C102.259 183.462 103.196 182.663 103.958 181.709L103.96 181.706C105.202 180.087 106.128 178.248 106.688 176.286L106.689 176.282C107.33 174.121 107.779 171.908 108.031 169.668C108.053 169.498 108.041 169.325 107.996 169.16C107.951 168.994 107.874 168.839 107.769 168.704C107.664 168.568 107.533 168.455 107.384 168.37C107.235 168.285 107.071 168.231 106.901 168.21C106.731 168.189 106.558 168.202 106.393 168.248C106.228 168.294 106.073 168.372 105.939 168.478C105.804 168.584 105.691 168.715 105.607 168.865C105.524 169.014 105.47 169.179 105.45 169.349C105.217 171.436 104.801 173.498 104.206 175.511L104.207 175.508C103.744 177.158 102.974 178.707 101.937 180.073L101.939 180.07C101.386 180.767 100.706 181.351 99.9335 181.791L99.9296 181.794C99.0262 182.292 98.0107 182.551 96.9793 182.547H96.9548H96.9506L96.9126 182.547C95.8106 182.544 94.7329 182.222 93.8094 181.621L93.8042 181.618C92.8733 180.985 92.0806 180.17 91.4741 179.222L91.4775 179.227C90.612 177.874 89.9081 176.424 89.38 174.907C89.3218 174.746 89.2323 174.597 89.1166 174.471C89.0009 174.345 88.8614 174.242 88.706 174.17C88.5507 174.098 88.3825 174.057 88.2113 174.05C88.0401 174.043 87.8691 174.069 87.7083 174.129C87.5475 174.188 87.4 174.278 87.2742 174.395C87.1485 174.511 87.047 174.651 86.9756 174.807C86.9042 174.963 86.8643 175.131 86.8582 175.302C86.8522 175.474 86.88 175.644 86.9402 175.805L86.9401 175.805Z"/><path id="Vector_7" d="M36.9703 121.381C28.293 127.775 23.2086 137.464 23.2033 147.161C23.1879 151.964 24.4868 156.679 26.9592 160.797C29.8554 165.463 33.9278 169.285 38.7677 171.88C38.9167 171.964 39.0808 172.018 39.2507 172.039C39.4205 172.059 39.5928 172.046 39.7577 172C39.9225 171.954 40.0766 171.876 40.2112 171.77C40.3457 171.665 40.4581 171.534 40.5418 171.384C40.6256 171.235 40.679 171.071 40.6991 170.901C40.7191 170.731 40.7055 170.559 40.6588 170.394C40.6122 170.229 40.5335 170.075 40.4272 169.941C40.321 169.807 40.1893 169.695 40.0397 169.612C35.5945 167.239 31.8522 163.737 29.1887 159.459C26.9584 155.746 25.7876 151.493 25.8033 147.161C25.798 138.384 30.4487 129.409 38.512 123.475C38.6506 123.374 38.7678 123.247 38.857 123.1C38.9463 122.954 39.0057 122.792 39.0319 122.622C39.0581 122.453 39.0505 122.28 39.0097 122.114C38.9689 121.947 38.8955 121.791 38.7939 121.653C38.6923 121.515 38.5645 121.398 38.4177 121.31C38.2709 121.221 38.108 121.163 37.9386 121.138C37.7691 121.112 37.5963 121.121 37.4301 121.163C37.2639 121.205 37.1077 121.279 36.9703 121.381L36.9703 121.381Z"/><path id="Vector_8" d="M108.267 161.941C109.997 161.654 111.661 161.053 113.176 160.168C113.734 159.839 114.26 159.459 114.748 159.033C115.129 158.707 115.467 158.333 115.754 157.921C115.943 157.634 116.011 157.284 115.943 156.947C115.875 156.61 115.676 156.314 115.39 156.123C115.104 155.933 114.754 155.863 114.416 155.93C114.079 155.997 113.782 156.194 113.59 156.48C113.427 156.703 113.237 156.907 113.026 157.085C111.528 158.303 109.731 159.096 107.821 159.379C107.482 159.438 107.179 159.63 106.981 159.912C106.783 160.194 106.704 160.543 106.763 160.883C106.822 161.222 107.014 161.525 107.296 161.723C107.578 161.921 107.927 162 108.267 161.941L108.267 161.941Z"/><path id="Vector_9" d="M63.1725 147.368C65.4075 147.946 67.6885 148.327 69.9897 148.509C70.1605 148.523 70.3323 148.503 70.4953 148.45C70.6583 148.397 70.8092 148.312 70.9394 148.201C71.0696 148.09 71.1765 147.954 71.2539 147.801C71.3314 147.648 71.3779 147.481 71.3907 147.311C71.4036 147.14 71.3825 146.968 71.3287 146.805C71.275 146.643 71.1896 146.492 71.0775 146.363C70.9654 146.233 70.8288 146.127 70.6756 146.05C70.5223 145.974 70.3555 145.928 70.1845 145.916C68.0342 145.746 65.9027 145.389 63.8142 144.849C63.4801 144.764 63.1259 144.815 62.8294 144.991C62.533 145.167 62.3187 145.454 62.2336 145.788C62.1485 146.122 62.1996 146.476 62.3757 146.773C62.5518 147.069 62.8384 147.283 63.1725 147.368L63.1725 147.368Z"/><path id="Vector_10" d="M48.3304 140.363C48.6722 140.713 49.045 141.031 49.4443 141.314C51.4854 142.729 53.6689 143.927 55.9592 144.888C56.1159 144.957 56.2845 144.994 56.4555 144.997C56.6266 145.001 56.7965 144.97 56.9558 144.908C57.115 144.845 57.2604 144.752 57.3835 144.634C57.5067 144.515 57.6052 144.373 57.6734 144.216C57.7417 144.059 57.7783 143.891 57.7812 143.72C57.7841 143.548 57.7532 143.379 57.6903 143.22C57.6274 143.06 57.5337 142.915 57.4146 142.793C57.2956 142.67 57.1534 142.572 56.9964 142.504C55.4309 141.83 53.9111 141.055 52.4466 140.183C51.858 139.827 51.3634 139.498 50.9837 139.219C50.7173 139.032 50.467 138.823 50.2356 138.594C50.0008 138.342 49.6756 138.193 49.3314 138.181C48.9872 138.168 48.6521 138.293 48.3997 138.527C48.1473 138.761 47.9983 139.086 47.9853 139.431C47.9723 139.775 48.0964 140.11 48.3304 140.363H48.3304Z"/><path id="Vector_11" d="M55.3184 150.878L55.3194 150.877L55.3204 150.876L55.3184 150.878Z"/><path id="Vector_12" d="M59.9609 140.679L59.9619 140.678H59.9629L59.9609 140.679Z"/><path id="Vector_13" d="M116.94 154.009C116.95 152.549 116.487 151.124 115.62 149.948C115.643 149.876 115.672 149.802 115.693 149.732C115.833 149.508 115.899 149.246 115.883 148.983C116.015 148.396 116.084 147.797 116.089 147.196C116.098 146.066 115.818 144.952 115.273 143.962C114.634 142.847 113.718 141.915 112.614 141.256C112.108 140.939 111.568 140.681 111.004 140.487C110.841 140.435 110.67 140.416 110.5 140.43C110.33 140.444 110.164 140.492 110.013 140.57C109.706 140.728 109.475 141.001 109.371 141.33C109.266 141.658 109.296 142.014 109.454 142.321C109.612 142.627 109.885 142.858 110.213 142.963L110.213 142.964C110.849 143.2 111.439 143.544 111.959 143.98C112.393 144.339 112.755 144.778 113.026 145.272C113.339 145.864 113.498 146.526 113.489 147.196C113.482 147.66 113.421 148.121 113.308 148.571C113.194 148.698 113.074 148.818 112.947 148.933C111.469 150.185 109.672 151.004 107.756 151.297C107.588 151.326 107.427 151.388 107.283 151.479C107.139 151.571 107.014 151.69 106.916 151.829C106.818 151.969 106.748 152.126 106.71 152.293C106.673 152.46 106.669 152.632 106.698 152.8C106.728 152.968 106.79 153.129 106.881 153.273C106.972 153.418 107.091 153.542 107.231 153.641C107.371 153.739 107.528 153.809 107.695 153.846C107.861 153.883 108.034 153.887 108.202 153.858L108.202 153.858C109.946 153.566 111.618 152.944 113.129 152.026C113.317 151.909 113.479 151.79 113.649 151.671C114.105 152.365 114.346 153.179 114.34 154.009C114.354 154.953 114.06 155.875 113.501 156.636C113.362 156.808 113.269 157.013 113.232 157.231C113.195 157.449 113.214 157.673 113.288 157.882C113.453 158.346 113.537 158.835 113.538 159.328C113.418 161.065 112.633 162.689 111.344 163.861C109.005 166.344 104.58 168.953 97.8613 171.1C91.1438 173.255 82.1421 174.974 70.6469 175.835C68.7884 175.974 67.0011 176.043 65.285 176.042C56.9234 176.041 50.2402 174.446 45.0418 171.811C44.8895 171.734 44.7233 171.687 44.5527 171.673C44.3822 171.66 44.2107 171.68 44.048 171.733C43.8854 171.786 43.7347 171.87 43.6048 171.982C43.4749 172.093 43.3682 172.229 43.2908 172.381C43.2135 172.534 43.167 172.7 43.1541 172.871C43.1412 173.041 43.162 173.213 43.2155 173.375C43.269 173.538 43.354 173.688 43.4657 173.818C43.5774 173.947 43.7135 174.054 43.8663 174.13L43.8663 174.13C49.4923 176.982 56.5958 178.642 65.285 178.642C67.0695 178.642 68.9215 178.57 70.8412 178.428C86.3779 177.26 97.5275 174.559 104.906 171.185C108.004 169.879 110.829 168.001 113.232 165.649C114.981 163.997 116.022 161.731 116.138 159.328C116.13 158.771 116.054 158.216 115.912 157.678C116.586 156.573 116.942 155.303 116.94 154.009Z"/><path id="Vector_14" d="M83.421 145.462V145.462C83.2183 145.2 83.0096 144.942 82.7949 144.689C81.2454 142.827 79.3287 141.304 77.1646 140.215C76.6432 139.96 76.1082 139.735 75.562 139.539C75.5533 139.515 75.5569 139.491 75.5467 139.467C74.6099 137.195 72.8735 135.345 70.6654 134.267C68.8392 133.424 66.846 133.006 64.8352 133.043C63.0594 133.045 61.2924 133.293 59.5849 133.781C59.3919 133.841 59.2157 133.946 59.0704 134.087C58.9251 134.228 58.8146 134.4 58.7478 134.591C58.6809 134.782 58.6596 134.986 58.6855 135.187C58.7113 135.388 58.7836 135.579 58.8967 135.747C59.943 137.204 61.1923 138.503 62.6066 139.605C61.7013 139.9 60.8181 140.258 59.9635 140.678C57.6754 141.827 55.5997 143.356 53.8253 145.202C50.9013 148.379 48.4562 151.965 46.5674 155.847L46.566 155.85C43.6311 161.513 41.2795 167.376 38.3528 171.308C36.3967 174.089 33.7271 176.292 30.6249 177.684C28.9883 178.406 27.225 178.798 25.4364 178.837H25.4353C25.2074 178.834 24.9806 178.87 24.765 178.945C24.5706 179.013 24.3929 179.122 24.2439 179.265C24.0031 179.495 23.8553 179.806 23.8286 180.138C23.8019 180.47 23.8981 180.801 24.0989 181.067C24.2332 181.245 24.4043 181.392 24.6005 181.499C24.7285 181.569 24.8629 181.627 25.0019 181.672L25.003 181.673C25.7499 181.904 26.5147 182.074 27.2895 182.18C28.3802 182.34 29.4811 182.42 30.5834 182.42C32.6219 182.438 34.6503 182.131 36.5922 181.51C38.7878 180.815 40.757 179.544 42.2951 177.83C44.9421 174.799 47.18 171.434 48.9515 167.821L48.9531 167.818C49.4269 166.87 49.8937 165.921 50.3534 164.97C50.5773 166.644 51.2752 168.219 52.3648 169.51C52.9948 170.262 53.7775 170.872 54.6611 171.299C54.9315 171.415 55.233 171.436 55.5167 171.358C55.8005 171.281 56.0496 171.11 56.2236 170.873C56.827 170.006 57.3497 169.085 57.7853 168.123C58.7601 166.09 59.2886 163.872 59.3353 161.618C59.3429 160.212 59.0835 158.818 58.5709 157.509C58.0372 156.197 57.2644 154.997 56.2919 153.968C56.6456 153.447 57.0053 152.944 57.375 152.468L57.3768 152.465C58.762 150.575 60.506 148.976 62.5093 147.76C64.5988 146.572 66.9637 145.953 69.3675 145.965L69.3695 145.965L69.3744 145.964L69.3759 145.965L69.5578 145.963C71.2612 145.921 72.9436 146.347 74.4221 147.194C74.9929 147.531 75.5275 147.926 76.0174 148.372C76.144 148.487 76.292 148.576 76.4529 148.634C76.6139 148.692 76.7847 148.717 76.9555 148.709C77.1263 148.7 77.2937 148.658 77.4483 148.585C77.6028 148.512 77.7415 148.409 77.8562 148.282C77.9709 148.155 78.0594 148.007 78.1167 147.846C78.174 147.685 78.199 147.514 78.1902 147.343C78.1814 147.173 78.139 147.005 78.0654 146.851C77.9918 146.697 77.8885 146.558 77.7613 146.444C77.1386 145.877 76.4592 145.376 75.7338 144.949L75.7298 144.947C73.8553 143.871 71.7241 143.323 69.5632 143.363L69.5469 143.363L69.3501 143.365V143.365L69.3477 143.365L69.3224 143.365C66.4793 143.362 63.6845 144.1 61.2135 145.506L61.2114 145.507C58.9133 146.892 56.9109 148.717 55.3187 150.877C51.8956 155.308 49.3861 161.161 46.6295 166.652C44.9577 170.067 42.8441 173.248 40.343 176.112C39.1091 177.481 37.5304 178.493 35.7717 179.043C34.6785 179.395 33.5491 179.623 32.4049 179.722C35.6057 178.126 38.3655 175.768 40.4416 172.856C43.666 168.488 45.9988 162.563 48.8723 157.05C50.6449 153.394 52.9397 150.015 55.6846 147.019C57.2535 145.384 59.0895 144.028 61.1138 143.01L61.1153 143.009C63.6634 141.772 66.4576 141.124 69.2902 141.116L69.2915 141.115C69.3869 141.113 69.4748 141.113 69.5598 141.113L69.5714 141.113H69.5802C71.8066 141.087 74.0088 141.578 76.0138 142.546L76.0154 142.547C77.8604 143.479 79.4936 144.781 80.8129 146.372C81.0005 146.593 81.1841 146.82 81.3636 147.052C81.5746 147.324 81.885 147.502 82.2267 147.545C82.5683 147.589 82.9133 147.495 83.1858 147.284C83.4583 147.074 83.6362 146.763 83.6802 146.422C83.7243 146.08 83.6311 145.735 83.421 145.462L83.421 145.462ZM56.1534 158.466C56.5455 159.47 56.743 160.54 56.7354 161.618C56.6872 163.495 56.2404 165.341 55.4246 167.033C55.2047 167.51 54.9866 167.922 54.7911 168.267C54.4923 168.003 54.2248 167.704 53.9937 167.379C53.1747 166.16 52.7635 164.713 52.8193 163.246C52.8558 161.595 53.1644 159.961 53.7326 158.411C53.7473 158.343 53.7564 158.274 53.7596 158.205C54.1187 157.54 54.4831 156.893 54.8528 156.263C55.394 156.928 55.8324 157.671 56.1534 158.466ZM65.9407 138.726H65.9406C64.6023 137.95 63.3873 136.98 62.336 135.845L62.3312 135.84C63.1597 135.711 63.9968 135.645 64.8353 135.643C66.4513 135.607 68.0547 135.936 69.5266 136.604C70.5382 137.093 71.4215 137.812 72.1059 138.704C71.2694 138.582 70.4255 138.519 69.5803 138.513L69.5598 138.513V138.513L69.5489 138.513L69.5422 138.513C69.4559 138.513 69.3511 138.513 69.2264 138.516L69.2032 138.516L69.1954 138.518C68.1308 138.536 67.0687 138.628 66.0167 138.791C65.9881 138.772 65.971 138.743 65.9406 138.726H65.9407Z"/><path id="Vector_15" d="M77.1641 140.214V140.215H77.1651L77.1641 140.214Z"/><path id="Vector_16" d="M70.2416 148.562C71.8095 148.68 73.3238 148.732 74.7753 148.732C80.9427 148.808 87.0782 147.835 92.9192 145.854C93.291 145.53 93.633 145.173 93.9411 144.788L93.9431 144.789C94.6904 143.708 95.6357 142.778 96.7291 142.049C98.0141 141.165 99.5479 140.713 101.107 140.761C101.746 140.763 102.383 140.818 103.012 140.927C103.181 140.956 103.353 140.952 103.52 140.914C103.687 140.876 103.845 140.806 103.985 140.707C104.124 140.609 104.243 140.483 104.334 140.338C104.425 140.194 104.487 140.032 104.516 139.864C104.544 139.695 104.54 139.523 104.501 139.356C104.463 139.189 104.393 139.031 104.293 138.892C104.194 138.753 104.069 138.634 103.923 138.544C103.778 138.453 103.617 138.392 103.448 138.364C102.675 138.231 101.892 138.163 101.107 138.161C98.997 138.112 96.9266 138.738 95.1971 139.948C93.7906 140.888 92.5908 142.105 91.6714 143.525C91.6679 143.531 91.6686 143.538 91.6652 143.544C86.211 145.309 80.5077 146.183 74.7752 146.131C73.3858 146.131 71.9365 146.082 70.4366 145.969C70.0928 145.943 69.7528 146.055 69.4914 146.28C69.23 146.504 69.0686 146.824 69.0427 147.168C69.0169 147.512 69.1286 147.852 69.3535 148.113C69.5783 148.374 69.8977 148.536 70.2416 148.562L70.2416 148.562Z"/><path id="Vector_17" d="M177.775 77.6949C177.134 76.6282 176.274 75.709 175.253 74.9973C174.269 74.327 173.181 73.8246 172.033 73.5105C172.114 72.5705 172.189 71.6273 172.242 70.6699C172.253 70.4988 172.23 70.3273 172.174 70.1652C172.118 70.0031 172.03 69.8537 171.916 69.7256C171.802 69.5975 171.664 69.4932 171.51 69.4187C171.355 69.3442 171.187 69.301 171.016 69.2915C170.845 69.2821 170.674 69.3066 170.512 69.3637C170.35 69.4208 170.202 69.5093 170.074 69.6241C169.947 69.7389 169.843 69.8778 169.77 70.0327C169.697 70.1877 169.655 70.3556 169.646 70.5269C169.269 78.9338 167.497 87.2195 164.402 95.0451C161.064 103.415 155.821 110.892 149.089 116.882C138.456 126.282 126.014 132.454 118.673 135.786C118 136.092 117.016 136.602 115.863 137.223C114.139 138.152 112.062 139.321 110.308 140.337C109.431 140.845 108.635 141.314 108.001 141.698C107.684 141.89 107.408 142.061 107.179 142.206C106.948 142.354 106.772 142.469 106.62 142.582C106.101 142.978 105.547 143.324 104.963 143.615C104.62 143.8 104.242 143.912 103.854 143.943C103.796 143.946 103.738 143.938 103.684 143.92C103.554 143.872 103.439 143.792 103.348 143.689C103.273 143.601 103.235 143.489 103.241 143.374C103.249 143.179 103.299 142.988 103.385 142.813C103.564 142.438 103.794 142.091 104.069 141.78C104.298 141.543 104.547 141.328 104.815 141.136C105.506 140.612 106.552 139.927 107.743 139.2C109.532 138.108 111.658 136.91 113.526 135.902C115.389 134.895 117.017 134.066 117.744 133.737C120.162 132.641 123.134 131.233 126.407 129.504C134.006 125.58 141.119 120.778 147.599 115.196C154.071 109.436 159.111 102.246 162.318 94.1978C165.265 86.7458 166.973 78.8615 167.373 70.8577C167.393 70.5143 167.275 70.1772 167.047 69.9202C166.818 69.6632 166.497 69.5073 166.153 69.4866C165.81 69.4659 165.473 69.5822 165.215 69.8098C164.957 70.0375 164.8 70.3581 164.778 70.7014H164.778C164.395 78.4223 162.75 86.0284 159.909 93.2179C159.198 94.9664 158.403 96.6395 157.552 98.2609C156.571 98.0002 155.561 97.8651 154.546 97.8589C152.665 97.8617 150.817 98.3504 149.18 99.2778C147.206 100.434 145.51 102.009 144.209 103.891C143.578 104.761 143.03 105.688 142.57 106.659C142.492 106.836 142.453 107.028 142.459 107.222C142.464 107.415 142.512 107.605 142.6 107.778C142.688 107.95 142.814 108.101 142.968 108.219C143.121 108.336 143.299 108.418 143.489 108.458C144.613 108.669 145.756 108.772 146.9 108.766C148.182 108.77 149.46 108.626 150.708 108.337C149.208 110.08 147.594 111.721 145.876 113.249C139.55 118.693 132.609 123.377 125.193 127.205C121.979 128.903 119.056 130.288 116.671 131.369C116.018 131.665 114.927 132.215 113.595 132.917C111.601 133.969 109.096 135.352 106.924 136.656C105.837 137.309 104.834 137.941 104.01 138.512C103.597 138.798 103.228 139.068 102.909 139.326C102.611 139.558 102.335 139.818 102.085 140.101C101.65 140.599 101.288 141.156 101.01 141.756C100.774 142.263 100.649 142.814 100.641 143.374C100.637 144.091 100.885 144.788 101.341 145.342C101.717 145.792 102.202 146.138 102.75 146.346C103.103 146.48 103.477 146.546 103.854 146.543C104.629 146.516 105.39 146.318 106.08 145.963C106.817 145.599 107.517 145.166 108.17 144.669C108.238 144.618 108.48 144.457 108.799 144.259C109.933 143.552 112.17 142.249 114.369 141.015C115.47 140.397 116.564 139.795 117.511 139.289C118.456 138.784 119.264 138.373 119.748 138.154C122.222 137.029 125.281 135.578 128.656 133.797C128.582 133.987 128.51 134.178 128.446 134.368C127.896 136.075 127.623 137.859 127.639 139.653C127.631 140.772 127.729 141.889 127.93 142.99C127.97 143.18 128.051 143.358 128.169 143.513C128.286 143.667 128.436 143.793 128.609 143.882C128.781 143.97 128.971 144.019 129.165 144.025C129.359 144.03 129.552 143.993 129.729 143.914C131.24 143.198 132.647 142.281 133.913 141.189C135.069 140.213 136.058 139.055 136.84 137.76C137.738 136.265 138.217 134.556 138.225 132.813C138.206 131.425 137.918 130.054 137.379 128.775C142.117 125.828 146.61 122.503 150.811 118.83C157.843 112.574 163.321 104.766 166.811 96.0244C168.436 91.9945 169.694 87.8262 170.571 83.5701C171.542 85.2478 172.821 86.7271 174.341 87.9304C175.102 88.5485 175.92 89.0936 176.783 89.5585C176.952 89.6441 177.137 89.6918 177.326 89.6984C177.515 89.7049 177.703 89.6702 177.877 89.5966C178.051 89.523 178.207 89.4123 178.334 89.2722C178.461 89.1321 178.556 88.966 178.612 88.7855C179.068 87.1754 179.301 85.5102 179.304 83.8368C179.36 81.6889 178.831 79.5662 177.775 77.6949ZM154.669 103.043C153.742 104.229 152.475 105.104 151.037 105.55C149.7 105.975 148.303 106.183 146.9 106.166C146.518 106.166 146.163 106.152 145.836 106.131C146.325 105.359 146.878 104.631 147.49 103.953C148.354 102.981 149.371 102.158 150.502 101.518C151.737 100.825 153.13 100.461 154.546 100.459C155.11 100.468 155.671 100.529 156.224 100.641C155.763 101.422 155.286 102.187 154.791 102.935C154.748 102.968 154.707 103.004 154.669 103.043ZM135.625 132.813C135.617 134.094 135.262 135.349 134.597 136.444C133.648 137.954 132.389 139.246 130.905 140.234C130.682 140.389 130.472 140.525 130.269 140.653C130.251 140.345 130.239 140.013 130.239 139.653C130.224 138.141 130.45 136.637 130.911 135.197C131.421 133.578 132.397 132.145 133.717 131.078C133.768 131.027 133.814 130.973 133.856 130.914C134.279 130.667 134.708 130.408 135.136 130.151C135.451 131.004 135.616 131.904 135.625 132.813V132.813ZM172.587 81.8809C171.979 80.6877 171.661 79.3678 171.66 78.0287C171.664 77.4074 171.731 76.7881 171.859 76.1801C172.533 76.408 173.173 76.7266 173.762 77.1273C174.832 77.8766 175.646 78.9362 176.095 80.1629C176.518 81.3408 176.724 82.5854 176.704 83.8368C176.701 84.6638 176.633 85.4893 176.5 86.3056C175.862 85.8432 175.262 85.3303 174.706 84.7718C173.852 83.9257 173.137 82.9501 172.587 81.8809V81.8809Z"/><path id="Vector_18" d="M154.017 14.1583C157.475 22.9571 160.29 31.9954 162.439 41.2021C162.517 41.5379 162.725 41.8291 163.017 42.0115C163.31 42.1939 163.663 42.2526 163.999 42.1747C164.335 42.0967 164.626 41.8886 164.808 41.596C164.991 41.3034 165.049 40.9503 164.971 40.6145C162.793 31.2764 159.937 22.1093 156.428 13.1856C156.365 13.0263 156.271 12.8812 156.151 12.7584C156.032 12.6356 155.889 12.5377 155.732 12.4703C155.574 12.4028 155.405 12.3671 155.234 12.3653C155.062 12.3635 154.892 12.3955 154.734 12.4596C154.575 12.5238 154.43 12.6186 154.308 12.7388C154.186 12.859 154.089 13.0022 154.022 13.16C153.956 13.3179 153.921 13.4873 153.92 13.6587C153.919 13.83 153.952 13.9998 154.017 14.1583L154.017 14.1583Z"/><path id="Vector_19" d="M158.38 12.0467C161.981 21.3651 164.907 30.931 167.133 40.6699C167.168 40.8369 167.236 40.9954 167.333 41.1362C167.429 41.277 167.553 41.3975 167.696 41.4907C167.839 41.5838 167.999 41.6479 168.166 41.6793C168.334 41.7106 168.507 41.7086 168.674 41.6733C168.841 41.6381 168.999 41.5702 169.14 41.4737C169.281 41.3772 169.401 41.2539 169.494 41.1109C169.588 40.9678 169.652 40.8078 169.683 40.64C169.714 40.4722 169.712 40.2998 169.677 40.1328C167.424 30.2642 164.461 20.5711 160.812 11.129C160.69 10.807 160.445 10.5466 160.131 10.405C159.817 10.2634 159.46 10.2522 159.138 10.3737C158.816 10.4953 158.555 10.7397 158.413 11.0534C158.271 11.3671 158.259 11.7243 158.38 12.0468L158.38 12.0467Z"/><path id="Vector_20" d="M66.1759 58.9196C64.5963 57.5067 62.6117 56.6273 60.504 56.4064C60.2438 56.3863 59.9791 56.3763 59.7101 56.3765C57.3759 56.4469 55.0812 56.9972 52.969 57.9931C49.0744 59.7568 45.679 62.4605 43.0879 65.8612C40.0695 69.7816 38.4281 74.588 38.418 79.5357L38.4179 79.5995C38.2753 84.3938 39.707 89.1028 42.4942 93.0062C44.4409 95.6965 47.1607 97.7301 50.2917 98.8365L50.6917 97.5995L50.2918 98.8365C51.9231 99.3516 53.6248 99.6086 55.3355 99.5982C59.9567 99.5603 64.432 97.9754 68.0471 95.0965C69.9988 93.5718 71.5953 91.6407 72.7258 89.4372C73.8564 87.2337 74.4939 84.8106 74.5941 82.336C74.6149 81.8458 74.6252 81.3564 74.6251 80.868C74.6514 75.1642 73.2668 69.5425 70.5946 64.5033C69.472 62.3899 67.9748 60.4979 66.1759 58.9196ZM71.9963 82.2254C71.9132 84.3303 71.3708 86.3915 70.4073 88.2648C69.4438 90.138 68.0824 91.7779 66.4185 93.0698C63.2643 95.5762 59.364 96.9586 55.3354 96.9982C53.8963 97.0085 52.4645 96.794 51.0916 96.3625C48.4745 95.4202 46.2038 93.708 44.5779 91.4511C42.1255 87.997 40.8748 83.8333 41.0179 79.5995L41.018 79.5424C41.0424 76.6908 41.6636 73.876 42.8418 71.279C44.0199 68.6821 45.7287 66.3607 47.8583 64.4642C49.6804 62.7751 51.7637 61.3918 54.0274 60.3679C55.8073 59.5224 57.7409 59.0489 59.7101 58.9765C59.9153 58.9765 60.1133 58.9839 60.304 58.9987C61.8698 59.1792 63.339 59.848 64.5034 60.9102C66.9211 63.1471 68.7557 65.9407 69.8475 69.0482C71.2866 72.8228 72.0246 76.8283 72.025 80.8679C72.025 81.32 72.0155 81.7725 71.9963 82.2254L71.9963 82.2254Z"/><path id="Vector_21" d="M116.028 50.4105C112.272 48.3514 108.064 47.2594 103.781 47.233C101.195 47.157 98.6295 47.7061 96.3014 48.8338C94.1615 50.0936 92.5325 52.0654 91.6991 54.4046C90.6871 57.0956 90.194 59.954 90.2459 62.8286C90.2929 68.1795 91.5487 73.4506 93.9196 78.2478C95.4488 81.384 97.9162 83.9664 100.979 85.6368C103.84 87.1687 107.039 87.959 110.283 87.9352C114.861 88.0124 119.313 86.4355 122.821 83.4939L121.955 82.5249L122.821 83.4938C124.35 82.082 125.575 80.3732 126.42 78.472C127.518 76.041 128.079 73.4019 128.064 70.7345C128.022 67.383 127.272 64.0783 125.862 61.0373C123.845 56.5079 120.387 52.772 116.028 50.4105ZM124.055 77.3912C123.358 78.9658 122.349 80.3825 121.088 81.5557C118.055 84.0681 114.221 85.4091 110.283 85.3353C107.475 85.3587 104.706 84.6783 102.228 83.3562C99.6318 81.9426 97.5419 79.7536 96.25 77.0948C94.0573 72.6557 92.8937 67.7794 92.846 62.8285C92.7953 60.2875 93.2242 57.7596 94.1102 55.3774C94.719 53.6026 95.9305 52.0973 97.534 51.123C99.4845 50.2032 101.626 49.761 103.781 49.833C107.625 49.8603 111.401 50.841 114.772 52.6874C118.637 54.7747 121.701 58.0829 123.487 62.0954C124.748 64.8034 125.422 67.7476 125.464 70.7346C125.479 73.0289 124.998 75.2994 124.055 77.3912L124.055 77.3912Z"/><path id="Vector_22" d="M60.8122 77.9987C55.7849 79.1394 52.9914 84.1144 54.3298 86.3693C55.4304 88.2238 58.5993 87.5353 62.633 86.6052C66.6662 85.675 69.2277 85.6022 68.9328 82.9343C68.6862 80.7077 64.8894 77.0739 60.8122 77.9987ZM62.0695 85.5783C61.5381 85.6908 60.9852 85.6431 60.4808 85.4413C59.9764 85.2395 59.5432 84.8927 59.2359 84.4447C58.9287 83.9967 58.7611 83.4677 58.7545 82.9245C58.7479 82.3813 58.9025 81.8483 59.1988 81.393C59.4951 80.9377 59.9198 80.5804 60.4191 80.3665C60.9184 80.1525 61.47 80.0914 62.004 80.1909C62.5381 80.2903 63.0307 80.546 63.4194 80.9254C63.8082 81.3048 64.0757 81.791 64.1882 82.3225C64.339 83.0352 64.2005 83.7786 63.8032 84.3892C63.4058 84.9997 62.7822 85.4275 62.0695 85.5783H62.0695Z"/><path id="Vector_23" d="M104.763 68.7014C100.66 69.5066 98.6601 74.367 99.3364 76.5022C100.147 79.0613 102.519 78.0906 106.583 77.3074C110.648 76.5247 113.824 75.8709 114.08 73.7298C114.39 71.1258 109.821 67.7083 104.763 68.7014ZM106.683 76.1404C106.151 76.2529 105.598 76.2052 105.094 76.0034C104.59 75.8016 104.156 75.4548 103.849 75.0068C103.542 74.5588 103.374 74.0298 103.368 73.4866C103.361 72.9435 103.516 72.4105 103.812 71.9552C104.109 71.5 104.533 71.1428 105.032 70.9288C105.532 70.7149 106.083 70.6538 106.617 70.7534C107.151 70.8529 107.644 71.1085 108.033 71.488C108.421 71.8674 108.689 72.3536 108.801 72.8851C108.952 73.5977 108.813 74.341 108.416 74.9515C108.019 75.562 107.395 75.9897 106.683 76.1404V76.1404Z"/><path id="Vector_24" d="M97.7676 89.5149C97.5535 89.4155 97.3164 89.3762 97.0817 89.4013C96.847 89.4264 96.6235 89.5149 96.4354 89.6574C95.6256 90.188 94.755 90.6193 93.8423 90.9419C91.9794 91.6488 90.0706 92.2286 88.1293 92.6773L88.0765 92.4806C87.844 91.6123 87.4446 90.0867 87.0823 88.5648C89.9442 87.0654 92.3355 82.45 91.5979 79.7936C90.6291 76.3063 78.0881 79.1002 77.4582 82.4C77.0487 84.5466 81.2266 88.4124 84.5079 88.9754C84.9019 90.6466 85.3395 92.3114 85.5821 93.2166C83.5048 93.6267 81.3949 93.8491 79.2778 93.8813C78.497 93.8876 77.7168 93.8347 76.944 93.7232C76.7157 93.6879 76.4821 93.714 76.2673 93.799C76.0525 93.8839 75.8642 94.0245 75.7218 94.2064C75.5794 94.3882 75.488 94.6047 75.457 94.8336C75.4261 95.0625 75.4567 95.2955 75.5456 95.5087C76.3244 97.2565 77.3191 98.8999 78.5065 100.4C79.5409 101.737 80.785 102.896 82.1904 103.835C83.7617 104.886 85.6055 105.456 87.4959 105.475C88.0399 105.474 88.5829 105.427 89.1187 105.333C91.1027 105.013 92.9447 104.104 94.4051 102.724C96.1725 100.928 97.3931 98.6666 97.9245 96.2034C98.321 94.5623 98.524 92.8804 98.5295 91.192C98.5295 90.8477 98.5192 90.6452 98.5181 90.6248C98.5055 90.3891 98.4291 90.1612 98.2968 89.9657C98.1646 89.7702 97.9816 89.6143 97.7676 89.5149ZM91.9256 94.3423C91.8463 94.7198 91.6812 95.074 91.4431 95.3775C91.1346 95.7586 90.7503 96.0715 90.3146 96.2964C89.5858 96.6706 88.8013 96.9244 87.9915 97.0479C87.4871 97.1396 86.9757 97.1874 86.4631 97.1906C85.4226 97.2579 84.3947 96.9326 83.5822 96.2791C83.5438 96.2454 83.5208 96.2139 83.4865 96.1804C85.7135 95.8834 87.9193 95.445 90.0907 94.8679C90.724 94.7001 91.3324 94.523 91.9256 94.3423H91.9256ZM92.6129 100.84C91.525 101.868 90.1507 102.542 88.6717 102.771C88.2835 102.84 87.8901 102.874 87.4959 102.875C86.1053 102.856 84.7507 102.43 83.5996 101.65C81.9132 100.472 80.4883 98.9587 79.4141 97.2045C79.2492 96.9486 79.1027 96.706 78.9646 96.4713C79.0706 96.4727 79.1707 96.4813 79.2778 96.4813C79.6996 96.4809 80.1299 96.47 80.5686 96.4487C80.5913 96.5087 80.6146 96.5661 80.6428 96.6318C81.0252 97.4246 81.6083 98.1036 82.3342 98.6014C83.5522 99.42 84.9963 99.836 86.4631 99.7907C87.1266 99.7875 87.7885 99.7266 88.4414 99.6087C89.529 99.4369 90.5814 99.0895 91.5575 98.58C92.6309 98.0282 93.5049 97.1545 94.057 96.0813C94.411 95.3645 94.5953 94.5759 94.5954 93.7765C94.5954 93.6499 94.5901 93.5398 94.5832 93.4397C94.6495 93.4143 94.7224 93.3894 94.7876 93.3639C95.1625 93.2162 95.5111 93.0699 95.843 92.9234C95.7091 94.4813 95.3576 96.0129 94.7986 97.4733C94.3207 98.7398 93.5752 99.8882 92.613 100.84L92.6129 100.84Z"/><path id="Vector_25" d="M185.214 59.3338C184.77 52.3628 182.944 47.4797 180.054 44.3022C178.681 42.7846 176.974 41.6079 175.067 40.8652C173.192 40.1563 171.2 39.8049 169.196 39.8292C168.773 39.8292 168.348 39.8424 167.921 39.8688C165.191 39.923 162.517 40.6545 160.14 41.9978C159.205 42.5701 158.412 43.3484 157.824 44.2734C157.264 45.1814 156.969 46.2281 156.974 47.2948C157.01 48.5771 157.358 49.8312 157.989 50.9483C157.945 50.987 157.896 51.0225 157.853 51.0617C157.069 51.7209 156.434 52.54 155.992 53.4642C155.55 54.3884 155.31 55.3964 155.289 56.4208C155.268 57.4451 155.465 58.4622 155.869 59.404C156.272 60.3457 156.872 61.1905 157.629 61.8816C157.329 62.5306 157.174 63.2372 157.176 63.9521C157.187 64.7435 157.333 65.5272 157.609 66.2691C157.979 67.2646 158.631 68.1306 159.486 68.7609C159.793 68.9937 160.117 69.2042 160.454 69.3908C160.418 69.4675 160.389 69.5479 160.37 69.6304V69.6304C159.713 74.6035 157.53 79.2507 154.122 82.9317C152.341 84.8494 150.297 86.5053 148.051 87.8504C148.359 85.955 148.515 84.038 148.517 82.1177C148.516 80.6941 148.437 79.2716 148.28 77.8566C146.786 64.2637 139.412 52.2885 128.926 43.4318C130.059 42.1124 130.999 40.6395 131.719 39.0567C132.9 36.4366 133.507 33.5945 133.5 30.7207C133.509 27.0946 132.553 23.5315 130.729 20.3974C128.869 17.1909 126.059 14.6409 122.687 13.0994C120.309 12.0261 117.728 11.4754 115.118 11.4845C111.267 11.5081 107.5 12.605 104.238 14.6521C100.938 16.6773 98.307 19.6308 96.6758 23.1431C95.9527 24.74 95.4614 26.4319 95.2168 28.1677C93.1599 27.8513 91.0874 27.6186 89.0028 27.497C88.7533 27.483 88.3356 27.4739 87.8948 27.4646C87.4922 27.4563 87.0895 27.4489 86.8644 27.4428C85.7326 26.3495 84.4612 25.4107 83.0832 24.6507C80.152 23.1789 76.9592 22.2997 73.6877 22.0636C70.1781 21.6716 66.8881 21.846 63.9814 21.7236C62.621 21.6897 61.2666 21.5303 59.9355 21.2474C58.7299 20.9878 57.5807 20.5143 56.5422 19.8493C56.3136 19.6996 56.0437 19.6258 55.7707 19.6383C55.4978 19.6508 55.2358 19.7489 55.0218 19.9188C54.8078 20.0887 54.6528 20.3216 54.5787 20.5846C54.5047 20.8476 54.5154 21.1272 54.6093 21.3838C55.3687 23.1255 56.5287 24.6633 57.9948 25.8719C59.7558 27.3648 61.7913 28.4995 63.987 29.2127C63.1852 29.1887 62.461 29.135 61.8985 29.0811C61.5204 29.0449 61.2148 29.0088 61.0062 28.9821C60.9019 28.9688 60.8219 28.9578 60.7692 28.9503L60.6959 28.9397C60.4374 28.8999 60.1729 28.939 59.937 29.0519C59.7011 29.1648 59.5047 29.3462 59.3735 29.5724C59.2423 29.7987 59.1824 30.0593 59.2016 30.3201C59.2209 30.5809 59.3183 30.8299 59.4813 31.0345C59.9559 31.5996 60.4721 32.1285 61.0255 32.6168C58.4605 33.7776 55.9729 35.1025 53.5781 36.5831C52.6951 35.231 51.638 34.0011 50.4339 32.9251C46.7408 29.719 42.0035 27.9729 37.1131 28.0152C34.3868 27.9758 31.6829 28.5132 29.1788 29.5921C26.6747 30.671 24.4269 32.267 22.5829 34.2756C19.6244 37.634 18.0125 41.968 18.0576 46.4435C18.062 49.3136 18.6676 52.151 19.8354 54.7729C21.0031 57.3947 22.7071 59.7429 24.8376 61.6661C25.9372 62.643 27.1498 63.4847 28.4496 64.1731C24.5888 71.916 22.5454 80.4375 22.4748 89.0892C22.4691 94.1387 23.2233 99.1602 24.712 103.985C25.9917 108.392 28.1295 112.503 31.0025 116.082C33.8755 119.66 37.4272 122.636 41.4535 124.838C49.3524 129.234 59.2058 131.185 70.2327 131.187C78.8254 131.097 87.3859 130.119 95.7773 128.267C111.676 124.902 124.796 119.148 134.014 111.334C138.436 107.685 142.079 103.184 144.726 98.0995C145.834 95.9046 146.707 93.5995 147.333 91.2221C150.598 89.5788 153.544 87.368 156.035 84.6932C159.707 80.715 162.092 75.7202 162.876 70.3634C163.222 70.4624 163.572 70.555 163.929 70.6334C165.601 70.9774 167.305 71.1452 169.012 71.134C170.815 71.1528 172.614 70.9652 174.374 70.5749C174.54 70.5348 174.697 70.4622 174.835 70.3613C174.974 70.2604 175.091 70.1331 175.18 69.9868C175.269 69.8405 175.328 69.678 175.354 69.5087C175.38 69.3394 175.373 69.1666 175.332 69.0003C175.291 68.834 175.217 68.6774 175.116 68.5396C175.014 68.4017 174.886 68.2853 174.74 68.197C174.593 68.1087 174.43 68.0503 174.261 68.0251C174.091 67.9999 173.918 68.0084 173.752 68.0502C172.195 68.3894 170.605 68.5517 169.012 68.534C167.025 68.5677 165.044 68.2966 163.139 67.7301C162.397 67.5025 161.698 67.1542 161.07 66.6993C160.613 66.3741 160.261 65.9216 160.059 65.3981C159.883 64.9358 159.787 64.4468 159.776 63.9522C159.764 63.4585 159.916 62.9748 160.207 62.5766C160.867 61.8137 161.744 61.2714 162.722 61.023C164.211 60.5803 165.753 60.3368 167.307 60.2988C167.478 60.292 167.646 60.2515 167.801 60.1796C167.956 60.1078 168.096 60.006 168.212 59.88C168.328 59.7541 168.418 59.6065 168.476 59.4458C168.535 59.2851 168.561 59.1143 168.554 58.9434C168.547 58.7724 168.505 58.6046 168.433 58.4496C168.361 58.2946 168.258 58.1554 168.132 58.04C168.006 57.9246 167.858 57.8352 167.697 57.7771C167.536 57.719 167.365 57.6932 167.194 57.7013V57.7012C164.866 57.7186 162.567 58.2128 160.438 59.1532C160.037 59.3561 159.655 59.594 159.296 59.8643C158.826 59.4125 158.457 58.8654 158.215 58.2596C157.972 57.6538 157.862 57.0032 157.892 56.3514C157.921 55.6996 158.09 55.0616 158.386 54.4801C158.682 53.8987 159.099 53.3872 159.608 52.9799C161.29 51.5932 163.348 50.7423 165.518 50.537C165.687 50.5135 165.851 50.4567 165.998 50.37C166.146 50.2832 166.275 50.1682 166.378 50.0314C166.48 49.8947 166.555 49.739 166.598 49.5733C166.641 49.4075 166.65 49.235 166.626 49.0655C166.602 48.8961 166.544 48.7331 166.457 48.5859C166.37 48.4387 166.254 48.3102 166.117 48.2078C165.98 48.1054 165.824 48.0311 165.658 47.9891C165.492 47.9471 165.319 47.9383 165.15 47.9632C163.409 48.1873 161.717 48.7021 160.147 49.4862C159.793 48.8083 159.597 48.0592 159.574 47.295C159.569 46.7085 159.73 46.1326 160.039 45.6342C160.703 44.684 161.644 43.9628 162.735 43.5702C164.443 42.907 166.249 42.5332 168.08 42.4642C168.456 42.4411 168.829 42.4295 169.196 42.4294C170.876 42.4053 172.546 42.6961 174.12 43.2869C176.532 44.2477 178.529 46.0252 179.764 48.3089C181.257 50.8941 182.305 54.5426 182.62 59.4992C182.825 62.7281 182.937 65.9217 182.937 69.0719C182.937 82.0652 181.036 94.3077 176.023 105.286C171.007 116.264 162.893 126.012 150.3 134.071C150.156 134.163 150.032 134.283 149.934 134.423C149.837 134.563 149.767 134.721 149.731 134.887C149.694 135.054 149.691 135.227 149.721 135.395C149.75 135.563 149.813 135.723 149.905 135.867C149.997 136.011 150.117 136.135 150.257 136.233C150.397 136.331 150.555 136.4 150.721 136.436C150.888 136.473 151.06 136.476 151.228 136.447C151.396 136.417 151.557 136.354 151.701 136.262C164.674 127.97 173.179 117.788 178.389 106.366C183.603 94.9428 185.537 82.3131 185.537 69.0719C185.537 65.86 185.423 62.6115 185.214 59.3338ZM99.0432 24.218C100.463 21.1724 102.748 18.6126 105.614 16.8584C108.463 15.069 111.754 14.1086 115.118 14.0846C117.357 14.0755 119.571 14.5468 121.612 15.4669C124.497 16.7867 126.9 18.9706 128.488 21.7162C130.077 24.4508 130.909 27.5585 130.9 30.7207C130.907 33.2237 130.379 35.6992 129.352 37.9815C128.724 39.3635 127.901 40.648 126.908 41.7956C118.362 35.184 108.384 30.6683 97.7769 28.6112C97.984 27.0932 98.4105 25.6133 99.0432 24.218ZM26.5668 59.7245C24.7108 58.0448 23.2263 55.9956 22.2086 53.7085C21.191 51.4214 20.6626 48.9468 20.6575 46.4435C20.612 42.6055 21.9896 38.8868 24.5245 36.0048C26.1248 34.2704 28.0735 32.8936 30.2429 31.9648C32.4123 31.036 34.7535 30.5761 37.1131 30.6152C41.3658 30.5737 45.4874 32.0855 48.7047 34.8668C49.7339 35.7863 50.6382 36.8367 51.3945 37.9911C44.5825 42.5722 38.6515 48.3428 33.8856 55.0267C32.3313 57.2163 30.9129 59.4993 29.6385 61.8627C28.5337 61.274 27.5026 60.5562 26.5668 59.7245ZM142.406 96.9267C138.961 103.745 133.045 109.703 125.034 114.583C117.027 119.462 106.936 123.25 95.2393 125.724C87.0247 127.538 78.6446 128.497 70.2327 128.587C59.5076 128.589 50.088 126.674 42.7187 122.566C38.9809 120.527 35.6846 117.767 33.0202 114.446C30.3558 111.125 28.3763 107.309 27.1961 103.218C25.7842 98.6414 25.069 93.8785 25.0747 89.0892C25.0734 77.5712 29.1305 66.1983 36.0043 56.5335C42.9353 46.7832 52.4164 39.1289 63.4087 34.4091C65.4701 35.7485 67.8673 36.4795 70.3252 36.5182C70.5259 36.5182 70.7287 36.5129 70.9335 36.5022C71.1047 36.4943 71.2726 36.4526 71.4276 36.3795C71.5827 36.3064 71.7217 36.2034 71.8368 36.0764C71.9518 35.9493 72.0406 35.8008 72.0981 35.6393C72.1555 35.4778 72.1804 35.3066 72.1714 35.1354C72.1625 34.9643 72.1197 34.7966 72.0457 34.642C71.9716 34.4875 71.8677 34.349 71.74 34.2348C71.6123 34.1205 71.4632 34.0326 71.3014 33.9762C71.1395 33.9197 70.9682 33.8958 70.7971 33.9059H70.797C70.6382 33.9142 70.481 33.9184 70.3252 33.9183C68.1155 33.8601 65.9767 33.1266 64.1965 31.8163C64.4082 31.8207 64.619 31.8258 64.8394 31.8259C66.0814 31.835 67.322 31.7408 68.5484 31.5443C69.7964 31.3628 71.0005 30.9533 72.1005 30.3363C72.3403 30.1921 72.5272 29.9744 72.6334 29.7155C72.7396 29.4566 72.7594 29.1703 72.6899 28.8992C72.6204 28.6282 72.4653 28.3868 72.2476 28.2109C72.03 28.0351 71.7613 27.9341 71.4817 27.9231C65.3651 27.6756 61.7978 25.7272 59.7024 23.9114C59.6704 23.8835 59.646 23.8565 59.6146 23.8287C61.7882 24.229 63.9964 24.4113 66.2062 24.373C68.6064 24.3397 71.0066 24.4313 73.3973 24.6473C76.3339 24.8477 79.2022 25.6245 81.8386 26.9335C84.2413 28.3389 86.3084 30.2518 87.8957 32.5385C88.1042 32.8131 88.4132 32.9937 88.7548 33.0405C89.0964 33.0872 89.4426 32.9964 89.7172 32.788C89.9918 32.5795 90.1724 32.2705 90.2192 31.9289C90.266 31.5873 90.1752 31.2411 89.9667 30.9665C89.7474 30.6772 89.5284 30.4018 89.3092 30.1288C102.996 31.0761 116.052 36.2461 126.676 44.9261C137.058 53.4827 144.262 65.0779 145.696 78.1404C145.842 79.4612 145.916 80.7889 145.917 82.1177C145.937 87.2626 144.734 92.3386 142.406 96.9267Z"/></g></g></svg>