<svg width="200" height="200" viewBox="0 0 200 200" xmlns="http://www.w3.org/2000/svg"><g id="type=loading-1, mode=light"><g id="Frame" clip-path="url(#clip0_3220_9576)"><path id="Vector" d="M84.9993 19.8245L84.832 26.1579L90.8101 26.0534L90.8728 19.5109L84.9993 19.8245Z"/><path id="Vector_2" d="M61.9004 94.0425C70.72 89.7228 68.74 76.0434 78.2796 79.8233C87.5617 83.5011 95.5587 82.1631 97.1786 72.9836C98.7986 63.8041 115.718 78.5633 119.497 72.6236C123.277 66.6839 116.54 58.4777 110.858 56.6044C94.4788 51.2047 62.2604 59.4843 61.9004 94.0425Z"/><path id="Vector_3" d="M143.69 35.7492C138.875 35.7492 134.695 32.1076 134.173 27.4582C133.819 24.301 134.629 21.1389 136.397 18.7824C136.829 18.2092 137.641 18.0901 138.217 18.5227C138.792 18.9533 138.908 19.7688 138.477 20.343C137.103 22.174 136.476 24.6623 136.757 27.1682C137.127 30.467 140.237 33.1496 143.69 33.1496C144.878 33.1496 145.962 32.8488 146.827 32.2785C149.695 30.3879 150.53 27.9143 150.538 27.8899C150.759 27.2112 151.487 26.8352 152.171 27.051C152.851 27.2688 153.23 27.9904 153.017 28.6731C152.974 28.8088 151.937 32.0237 148.257 34.4494C146.966 35.3 145.387 35.7492 143.69 35.7492Z"/><path id="Vector_4" d="M145.781 32.383C140.659 32.383 136.072 28.385 135.554 23.4699C135.317 21.2151 135.959 19.0422 137.361 17.3508C137.819 16.7981 138.638 16.7209 139.191 17.1789C139.745 17.6369 139.821 18.4563 139.363 19.009C138.411 20.1574 137.977 21.6457 138.14 23.1985C138.522 26.8293 141.95 29.7834 145.781 29.7834C147.639 29.7834 149.288 29.0891 150.422 27.8293C151.478 26.6565 151.964 25.1086 151.792 23.4699C151.41 19.8391 147.983 16.884 144.152 16.884C143.434 16.884 142.852 16.302 142.852 15.5842C142.852 14.8664 143.434 14.2844 144.152 14.2844C149.273 14.2844 153.861 18.2834 154.377 23.1985C154.627 25.5793 153.91 27.842 152.354 29.5686C150.72 31.384 148.386 32.383 145.781 32.383V32.383Z"/><g id="Group"><path id="Vector_5" d="M49.7309 24.0435C49.5562 25.7061 50.8265 27.0539 52.5682 27.0539C54.31 27.0539 55.8636 25.7061 56.0384 24.0435C56.2131 22.3809 54.9428 21.0331 53.2011 21.0331C51.4593 21.0331 49.9057 22.3809 49.7309 24.0435Z"/><path id="Vector_6" d="M52.5674 28.3535C51.3448 28.3535 50.1993 27.8594 49.4229 26.998C48.6661 26.1572 48.3165 25.0596 48.4376 23.9082C48.6837 21.5674 50.7755 19.7334 53.2003 19.7334C54.4229 19.7334 55.5684 20.2275 56.3438 21.0889C57.1007 21.9297 57.4512 23.0273 57.3301 24.1797C57.0841 26.5205 54.9923 28.3535 52.5674 28.3535V28.3535ZM53.2003 22.333C52.1251 22.333 51.129 23.1787 51.0235 24.1797C50.9795 24.5957 51.0948 24.9678 51.3555 25.2578C51.6436 25.5781 52.0733 25.7539 52.5674 25.7539C53.6426 25.7539 54.6387 24.9082 54.7442 23.9082C54.7881 23.4922 54.6729 23.1191 54.4122 22.8291C54.1241 22.5088 53.6944 22.333 53.2003 22.333Z"/></g><path id="Vector_7" d="M63.96 27.8791C62.7383 27.8791 61.5928 27.385 60.8164 26.5227C60.0596 25.6818 59.709 24.5842 59.8301 23.4328C60.0762 21.092 62.168 19.258 64.5928 19.258C65.8155 19.258 66.961 19.7522 67.7373 20.6145C68.4942 21.4553 68.8447 22.553 68.7237 23.7043C68.4776 26.0451 66.3848 27.8791 63.96 27.8791H63.96ZM64.5928 21.8576C63.5186 21.8576 62.5215 22.7033 62.416 23.7043C62.3721 24.1203 62.4873 24.4934 62.7481 24.7834C63.0361 25.1028 63.4668 25.2795 63.96 25.2795C65.0352 25.2795 66.0322 24.4338 66.1377 23.4328C66.1816 23.0168 66.0664 22.6438 65.8057 22.3537C65.5176 22.0344 65.0869 21.8576 64.5928 21.8576H64.5928Z"/><path id="Vector_8" d="M84.6825 27.4533C84.3338 27.4533 83.9989 27.3137 83.7547 27.0637C83.5057 26.8098 83.3709 26.465 83.3836 26.1096L83.6024 19.6437C83.6258 18.9504 84.1893 18.3977 84.8827 18.3879C95.1385 18.2434 105.135 18.2228 114.596 18.3244C115.293 18.3322 115.859 18.8869 115.882 19.5842L116.083 26.0422C116.094 26.3957 115.96 26.7395 115.712 26.9924C115.463 27.2443 115.098 27.3908 114.769 27.382C105.148 27.2785 95.034 27.3029 84.701 27.4533H84.6825L84.6825 27.4533ZM86.159 20.9709L86.0282 24.8342C95.4246 24.7082 104.634 24.6848 113.441 24.7687L113.321 20.9113C104.636 20.8303 95.5096 20.8478 86.159 20.9709Z"/><g id="Group_2"><path id="Vector_9" d="M90.8946 22.0401L90.8633 23.7959" stroke-width="2.6" stroke-linecap="round" stroke-linejoin="round"/><path id="Vector_10" d="M96.8899 22.0053L96.8516 23.7123" stroke-width="2.6" stroke-linecap="round" stroke-linejoin="round"/><path id="Vector_11" d="M102.885 21.9705L102.84 23.6287" stroke-width="2.6" stroke-linecap="round" stroke-linejoin="round"/><path id="Vector_12" d="M108.88 21.9356L108.828 23.5451" stroke-width="2.6" stroke-linecap="round" stroke-linejoin="round"/></g><path id="Vector_13" d="M144.463 41.2717C141.12 41.2717 137.126 40.3576 132.537 37.7434C130.222 36.4231 127.615 35.6926 125 35.6291C104.896 35.1408 75.2287 34.9455 48.0675 36.7824C47.3517 36.8313 46.7306 36.2903 46.6827 35.5735C46.6339 34.8567 47.1759 34.2366 47.8917 34.1887C75.1505 32.3449 104.902 32.5412 125.063 33.0295C128.108 33.1037 131.137 33.9524 133.824 35.4836C147.157 43.0803 154.428 34.7317 154.501 34.6467C154.964 34.0989 155.784 34.0285 156.333 34.4924C156.882 34.9553 156.95 35.7756 156.487 36.3244C156.428 36.3957 152.183 41.2707 144.463 41.2717Z"/><g id="Group_3"><path id="Vector_14" d="M90.7704 100.522C90.7704 100.522 95.5757 99.8786 100.431 99.6731C100.471 98.5224 100.245 97.3698 99.5779 96.2027C96.4476 90.7248 92.8381 96.7276 86.8008 95.8836C88.1333 97.1978 89.5453 98.7665 90.7704 100.522V100.522Z"/><path id="Vector_15" d="M75.6181 121.966C76.7633 112.475 78.5897 101.046 81.3025 93.445C72.5509 88.7215 61.4826 97.4638 63.1002 105.322C62.6248 105.084 68.2768 116.389 75.6181 121.966Z"/></g><path id="Vector_16" d="M130.056 70.0437C133.416 80.1232 120.696 78.6833 123.816 87.8029C125.449 92.5744 121.693 93.078 117.707 94.843C118.75 99.3642 120.592 107.86 122.321 118.37C127.146 117.681 132.038 114.692 134.136 110.602C138.936 101.242 140.855 82.5231 130.056 70.0437V70.0437Z"/><path id="Vector_17" d="M75.4541 123.348C75.5606 122.432 75.672 121.5 75.7916 120.547C67.7706 114.34 62.9121 104.816 62.9121 93.5627C62.9121 72.842 79.4473 55.9846 99.7705 55.9846C120.094 55.9846 136.628 72.842 136.628 93.5627C136.628 105.258 131.376 115.08 122.785 121.257C122.925 122.147 123.062 123.052 123.198 123.965C133.043 117.317 139.228 106.396 139.228 93.5627C139.228 71.4084 121.527 53.385 99.7705 53.385C78.0137 53.385 60.3125 71.4084 60.3125 93.5627C60.3125 106.006 66.1272 116.651 75.4541 123.348Z"/><path id="Vector_18" d="M155.407 79.7285C154.989 78.4053 153.717 74.3779 149.561 74.1562L146.327 73.9834C145.232 73.9248 144.279 73.2832 143.839 72.3086C135.93 54.8154 119.565 44.7832 98.9373 44.7832C72.7469 44.7832 52.4979 65.1318 50.7889 93.1689C50.0291 105.648 54.2254 117.426 62.6043 126.33C65.9691 129.906 69.9205 132.912 74.2798 135.278C74.347 134.445 74.4272 133.491 74.5225 132.422C70.8018 130.28 67.4119 127.646 64.4979 124.549C56.6151 116.172 52.6688 105.083 53.3846 93.3271C55.0067 66.7051 74.1639 47.3828 98.9373 47.3828C118.499 47.3828 134.001 56.8584 141.47 73.3789C142.312 75.2432 144.12 76.4697 146.188 76.5791L149.423 76.7519C150.589 76.8144 151.917 77.3096 152.929 80.5117C153.674 82.8711 154.551 98.8535 154.116 102.159C153.655 105.674 152.074 106.199 150.588 106.25L148.786 106.312C146.55 106.387 144.594 107.795 143.804 109.898C140.254 119.351 133.259 127.104 124.33 132.198C124.445 133.121 124.557 134.052 124.666 134.988C134.566 129.614 142.346 121.177 146.237 110.812C146.657 109.696 147.691 108.949 148.874 108.909L150.676 108.848C153.052 108.768 156.025 107.601 156.694 102.497C157.138 99.125 156.327 82.6396 155.407 79.7285Z"/><path id="Vector_19" d="M161.07 36.7063C161.04 36.3821 161.272 35.8674 161.498 35.3694C161.842 34.6057 162.233 33.7405 162.137 32.7434C161.988 31.1946 161.836 29.5168 161.68 27.8049C161.344 24.0969 160.997 20.2629 160.631 17.1877C160.233 13.8498 157.401 11.3 153.897 11.1252C103.994 8.63205 48.6013 11.0451 46.2673 11.1477C42.7351 11.3049 39.8816 13.8537 39.4821 17.2092C39.1257 20.2111 38.7858 23.9572 38.4567 27.5803C38.3015 29.2971 38.1482 30.9797 37.9987 32.5295C37.904 33.5119 38.3044 34.3518 38.6579 35.093C38.8796 35.5569 39.1081 36.0363 39.0817 36.3166C37.281 55.9221 34.7634 92.5871 33.0026 155.919C32.8991 159.62 35.8513 162.698 39.7233 162.928C43.0612 163.126 52.5007 163.623 68.029 163.945C68.1315 163.947 68.2368 163.948 68.3396 163.951C68.4221 163.281 68.5125 162.587 68.6193 161.839C68.642 161.681 68.6674 161.518 68.6916 161.357C68.4902 161.353 68.2845 161.349 68.0837 161.345C52.6003 161.025 43.1999 160.531 39.8777 160.332C37.4157 160.187 35.5378 158.28 35.6023 155.991C37.3601 92.7278 39.8728 56.1223 41.6716 36.5549C41.7624 35.5627 41.3601 34.718 41.0046 33.9739C40.7966 33.5373 40.5613 33.0432 40.5866 32.7785C40.737 31.2248 40.8904 29.5373 41.0466 27.8157C41.3738 24.2102 41.7116 20.4826 42.0642 17.5159C42.3122 15.4309 44.1286 13.845 46.3825 13.7453C47.9236 13.677 72.6501 12.5989 103.627 12.5989C119.461 12.5989 136.928 12.8801 153.767 13.7229C156.002 13.8342 157.801 15.4202 158.049 17.4944C158.411 20.5344 158.757 24.3498 159.092 28.0393C159.247 29.7561 159.4 31.4387 159.55 32.9934C159.579 33.301 159.349 33.8078 159.128 34.299C158.781 35.0666 158.388 35.9358 158.48 36.9436C160.262 56.4309 162.756 92.8977 164.512 155.953C164.577 158.252 162.695 160.159 160.227 160.295C156.422 160.505 145.731 161.028 128.924 161.358C129.035 162.248 129.136 163.117 129.222 163.952C145.934 163.621 156.571 163.1 160.37 162.891C164.255 162.678 167.216 159.598 167.112 155.881C165.352 92.7639 162.855 56.2307 161.07 36.7063H161.07Z"/><path id="Vector_20" d="M85.5434 183.03C85.4975 183.03 85.4516 183.028 85.4047 183.023C69.7544 181.368 66.6167 176.229 66.7192 169.021C66.8374 160.783 72.0034 140.922 72.4926 139.06C75.0014 108.491 80.6469 91.049 80.7036 90.8762C80.8393 90.4631 81.1733 90.1457 81.5932 90.0295C82.0092 89.9143 82.4614 90.0149 82.7905 90.3C85.8432 92.9455 89.9887 97.55 91.354 99.0891C98.4917 98.3352 104.605 98.4162 108.526 98.6213C109.243 98.6584 109.793 99.2707 109.755 99.9875C109.718 100.703 109.127 101.279 108.389 101.217C104.444 101.01 98.2192 100.935 90.9692 101.746C90.5512 101.79 90.1264 101.631 89.8452 101.31C89.8003 101.258 85.9028 96.8049 82.5932 93.6428C81.0952 98.9543 77.0757 114.905 75.0747 139.386C75.0679 139.463 75.0552 139.538 75.0356 139.613C74.98 139.824 69.435 160.913 69.3188 169.058C69.2466 174.136 70.4429 178.826 85.6782 180.437C86.3921 180.512 86.9097 181.153 86.8345 181.866C86.7642 182.533 86.1997 183.03 85.5434 183.03L85.5434 183.03Z"/><path id="Vector_21" d="M106.657 183.538C105.98 183.538 105.408 183.015 105.361 182.329C105.311 181.613 105.851 180.991 106.567 180.942C125.784 179.596 128.301 174.179 128.228 169.058C128.111 160.875 123.833 139.752 123.789 139.539C123.781 139.5 123.776 139.46 123.771 139.419C121.031 113.911 117.538 98.8303 116.207 93.674C113.012 96.6994 109.531 100.618 109.49 100.664C109.013 101.203 108.19 101.251 107.655 100.775C107.117 100.298 107.068 99.4768 107.544 98.9396C107.742 98.716 112.431 93.4397 116.053 90.3C116.386 90.0119 116.844 89.9123 117.266 90.0334C117.69 90.1564 118.022 90.4846 118.149 90.9065C118.197 91.0627 122.88 106.825 126.35 139.081C126.654 140.582 130.709 160.736 130.827 169.021C130.954 177.884 123.528 182.36 106.748 183.535C106.717 183.537 106.687 183.538 106.656 183.538L106.657 183.538Z"/><path id="Vector_22" d="M120.832 109.055C120.231 109.056 119.692 108.636 119.562 108.025C119.413 107.322 119.861 106.632 120.564 106.484C125.321 105.474 133.787 104.933 138.918 105.022C139.636 105.033 140.208 105.624 140.197 106.343C140.185 107.053 139.606 107.621 138.897 107.621H138.875C133.879 107.546 125.538 108.086 121.103 109.027C121.012 109.046 120.921 109.055 120.832 109.055Z"/><path id="Vector_23" d="M137.137 115.233C137.014 115.233 136.89 115.215 136.767 115.179C130.949 113.457 125.285 113.219 121.568 113.326C120.842 113.332 120.251 112.781 120.231 112.064C120.211 111.346 120.777 110.747 121.494 110.727C125.413 110.619 131.359 110.867 137.505 112.685C138.194 112.889 138.586 113.613 138.383 114.301C138.215 114.866 137.698 115.233 137.137 115.233H137.137Z"/><path id="Vector_24" d="M133.892 122.411C133.649 122.411 133.404 122.344 133.186 122.202C129.651 119.909 125.136 118.527 121.971 117.771C121.273 117.604 120.842 116.903 121.009 116.204C121.176 115.507 121.878 115.074 122.575 115.241C125.939 116.045 130.756 117.527 134.6 120.021C135.203 120.411 135.375 121.217 134.984 121.819C134.735 122.202 134.318 122.411 133.892 122.411H133.892Z"/><path id="Vector_25" d="M77.3791 109.055C77.2902 109.055 77.1994 109.046 77.1086 109.027C72.8117 108.114 66.1623 107.53 60.9211 107.621H60.8996C60.1906 107.621 59.6115 107.053 59.5998 106.343C59.5881 105.624 60.1603 105.033 60.8781 105.022C66.301 104.933 73.1818 105.535 77.6476 106.484C78.3508 106.632 78.799 107.322 78.6496 108.025C78.5197 108.636 77.9806 109.055 77.3791 109.055Z"/><path id="Vector_26" d="M61.075 115.233C60.5145 115.233 59.9969 114.866 59.8289 114.301C59.6258 113.613 60.0184 112.889 60.7069 112.685C66.8563 110.867 72.8094 110.618 76.7186 110.727C77.4354 110.747 78.0008 111.346 77.9813 112.064C77.9608 112.781 77.3709 113.327 76.6444 113.326C72.9295 113.218 67.2655 113.457 61.4451 115.179C61.3221 115.215 61.1971 115.233 61.075 115.233H61.075Z"/><path id="Vector_27" d="M64.3207 122.411C63.8949 122.411 63.4779 122.202 63.2289 121.819C62.8382 121.217 63.0101 120.411 63.6127 120.021C67.4584 117.527 72.2738 116.045 75.6371 115.241C76.3402 115.073 77.0365 115.507 77.2035 116.204C77.3705 116.903 76.9388 117.604 76.2406 117.771C73.0765 118.527 68.5629 119.908 65.0267 122.202C64.8089 122.344 64.5628 122.411 64.3207 122.411Z"/><path id="Vector_28" d="M104.109 185.519C103.613 185.519 103.139 185.233 102.922 184.751C102.627 184.097 102.919 183.327 103.575 183.032C104.397 182.662 105.806 181.814 106.002 180.289C106.234 178.5 104.727 176.196 101.761 173.8C101.202 173.349 101.115 172.53 101.566 171.972C102.017 171.413 102.836 171.326 103.394 171.777C107.197 174.849 108.942 177.824 108.581 180.622C108.32 182.652 106.883 184.394 104.641 185.404C104.468 185.482 104.286 185.519 104.109 185.519H104.109Z"/><path id="Vector_29" d="M98.0535 194.405C91.5184 194.405 87.0047 193.169 84.615 190.72C83.2186 189.288 82.5887 187.492 82.741 185.384C83.076 180.759 87.3104 178.69 90.7127 177.028C92.5555 176.126 94.4617 175.195 94.7791 174.245C94.8162 174.135 94.9295 173.799 94.5779 173.108C94.2527 172.467 94.5086 171.685 95.1482 171.36C95.7869 171.035 96.5711 171.29 96.8963 171.93C97.4559 173.032 97.574 174.09 97.2449 175.071C96.5818 177.052 94.285 178.175 91.8543 179.363C88.7606 180.875 85.5613 182.439 85.3348 185.571C85.2361 186.926 85.6102 188.016 86.4764 188.904C88.5887 191.069 93.6414 192.076 100.716 191.738C105.838 191.495 108.022 190.393 108.337 189.524C108.514 189.03 108.086 188.247 107.189 187.428C104.39 184.868 97.8143 184.077 97.7479 184.07C97.035 183.987 96.5232 183.342 96.6063 182.629C96.6893 181.916 97.3318 181.406 98.0467 181.488C98.3494 181.522 105.523 182.381 108.943 185.509C111.303 187.665 111.108 189.503 110.782 190.406C109.939 192.74 106.594 194.063 100.839 194.336C99.8738 194.382 98.9441 194.404 98.0535 194.404V194.405Z"/></g></g><defs><clipPath id="clip0_3220_9576"><rect width="134.115" height="184.405" transform="translate(33 10)"/></clipPath></defs></svg>