<svg width="200" height="200" viewBox="0 0 200 200" xmlns="http://www.w3.org/2000/svg"><g id="type=loading-1, mode=dark"><g id="Frame" clip-path="url(#clip0_3220_9612)"><path id="Vector" d="M61.9011 95.343C61.4207 95.343 60.9588 95.0744 60.7322 94.6145C60.4168 93.969 60.6834 93.1906 61.3279 92.8742C64.7547 91.1965 66.3719 87.9211 67.9353 84.7541C69.9529 80.6662 72.2449 76.0354 78.7576 78.6145C84.1531 80.7522 88.7869 81.0002 91.8084 79.3137C93.9666 78.1067 95.3426 75.9016 95.8972 72.758C96.1902 71.0959 96.9422 69.9074 98.1306 69.2268C100.797 67.7004 104.8 69.1877 109.035 70.76C112.866 72.1838 117.209 73.799 118.4 71.925C119.759 69.7912 119.37 67.4553 118.804 65.8713C117.533 62.3069 114.065 58.7922 110.738 57.6945C110.056 57.4699 109.686 56.7346 109.911 56.053C110.135 55.3713 110.871 54.9983 111.553 55.2258C115.634 56.5715 119.713 60.6809 121.253 64.9973C122.344 68.052 122.115 70.9309 120.594 73.3215C118.275 76.9641 113.117 75.051 108.131 73.1975C104.802 71.9611 101.03 70.5598 99.4236 71.4826C99.242 71.5871 98.6883 71.9035 98.4578 73.2092C97.7605 77.1604 95.95 79.9777 93.076 81.5832C89.3064 83.6877 84.0222 83.4973 77.8006 81.0324C73.6834 79.3967 72.5164 81.3479 70.2664 85.9045C68.6756 89.1291 66.6941 93.1418 62.4724 95.2102C62.2879 95.3 62.0935 95.343 61.9011 95.343L61.9011 95.343Z"/><path id="Vector_2" d="M143.69 35.7492C138.875 35.7492 134.695 32.1076 134.173 27.4582C133.819 24.301 134.629 21.1389 136.397 18.7824C136.829 18.2092 137.641 18.0901 138.217 18.5227C138.792 18.9533 138.908 19.7688 138.477 20.343C137.103 22.174 136.476 24.6623 136.757 27.1682C137.127 30.467 140.237 33.1496 143.69 33.1496C144.878 33.1496 145.962 32.8488 146.827 32.2785C149.695 30.3879 150.53 27.9143 150.538 27.8899C150.759 27.2112 151.487 26.8352 152.171 27.051C152.851 27.2688 153.23 27.9905 153.017 28.6731C152.974 28.8088 151.937 32.0237 148.257 34.4494C146.966 35.3 145.387 35.7492 143.69 35.7492Z"/><path id="Vector_3" d="M145.731 32.2746C140.61 32.2746 136.022 28.2766 135.505 23.3615C135.268 21.1067 135.91 18.9338 137.312 17.2424C137.77 16.6897 138.589 16.6115 139.142 17.0705C139.696 17.5285 139.772 18.3479 139.314 18.9006C138.362 20.049 137.928 21.5373 138.091 23.0901C138.473 26.7209 141.9 29.675 145.731 29.675C147.589 29.675 149.238 28.9807 150.373 27.7209C151.428 26.549 151.915 25.0012 151.743 23.3615C151.361 19.7307 147.933 16.7766 144.102 16.7766C143.384 16.7766 142.802 16.1945 142.802 15.4768C142.802 14.759 143.384 14.177 144.102 14.177C149.224 14.177 153.811 18.175 154.329 23.0901C154.579 25.4719 153.86 27.7346 152.304 29.4611C150.67 31.2756 148.336 32.2746 145.731 32.2746H145.731Z"/><path id="Vector_4" d="M52.5674 28.3538C51.3448 28.3538 50.1993 27.8596 49.4229 26.9983C48.6661 26.1575 48.3165 25.0598 48.4376 23.9084C48.6837 21.5676 50.7755 19.7336 53.2003 19.7336C54.4229 19.7336 55.5684 20.2278 56.3438 21.0891C57.1007 21.9299 57.4512 23.0276 57.3301 24.1799C57.0841 26.5208 54.9923 28.3538 52.5674 28.3538V28.3538ZM53.2003 22.3332C52.1251 22.3332 51.129 23.1789 51.0235 24.1799C50.9795 24.5959 51.0948 24.968 51.3555 25.258C51.6436 25.5784 52.0733 25.7541 52.5674 25.7541C53.6426 25.7541 54.6387 24.9084 54.7442 23.9084C54.7881 23.4924 54.6729 23.1194 54.4122 22.8293C54.1241 22.509 53.6944 22.3332 53.2003 22.3332Z"/><path id="Vector_5" d="M114.783 27.3821H114.77C107.134 27.302 99.1133 27.299 90.9288 27.3781H90.9161C90.2042 27.3781 89.6231 26.8049 89.6163 26.091C89.6094 25.3733 90.1856 24.7854 90.9034 24.7785C98.6241 24.7043 106.199 24.7014 113.441 24.7688L113.321 20.9113C106.113 20.841 98.5655 20.843 90.8692 20.9172H90.8565C90.1436 20.9172 89.5635 20.344 89.5567 19.6301C89.5499 18.9123 90.126 18.3244 90.8438 18.3176C99.004 18.2395 106.996 18.2404 114.596 18.3244C115.293 18.3322 115.859 18.8869 115.882 19.5842L116.083 26.0422C116.094 26.3957 115.96 26.7395 115.712 26.9924C115.467 27.2414 115.133 27.3821 114.783 27.3821V27.3821Z"/><path id="Vector_6" d="M63.96 27.8791C62.7383 27.8791 61.5928 27.385 60.8164 26.5227C60.0596 25.6819 59.709 24.5842 59.8301 23.4328C60.0762 21.092 62.168 19.258 64.5928 19.258C65.8155 19.258 66.961 19.7522 67.7373 20.6145C68.4942 21.4553 68.8447 22.553 68.7237 23.7043C68.4776 26.0451 66.3848 27.8791 63.96 27.8791H63.96ZM64.5928 21.8576C63.5186 21.8576 62.5215 22.7033 62.416 23.7043C62.3721 24.1203 62.4873 24.4934 62.7481 24.7834C63.0361 25.1028 63.4668 25.2795 63.96 25.2795C65.0352 25.2795 66.0322 24.4338 66.1377 23.4328C66.1816 23.0168 66.0664 22.6438 65.8057 22.3537C65.5176 22.0344 65.0869 21.8576 64.5928 21.8576H64.5928Z"/><path id="Vector_7" d="M84.6825 27.4534C84.3338 27.4534 83.9989 27.3137 83.7547 27.0637C83.5057 26.8098 83.3709 26.4651 83.3836 26.1096L83.6024 19.6438C83.6258 18.9504 84.1893 18.3977 84.8827 18.3879C86.8202 18.3606 88.8104 18.3372 90.8436 18.3176H90.8563C91.5692 18.3176 92.1493 18.8909 92.1561 19.6047C92.1629 20.3225 91.5868 20.9104 90.869 20.9172C89.2704 20.9329 87.6991 20.9504 86.159 20.9709L86.0282 24.8342C87.6209 24.8137 89.2469 24.7942 90.9032 24.7786H90.9159C91.6278 24.7786 92.2088 25.3518 92.2157 26.0657C92.2225 26.7834 91.6463 27.3713 90.9286 27.3782C88.8006 27.3987 86.7225 27.4241 84.701 27.4534H84.6825L84.6825 27.4534Z"/><g id="Group"><path id="Vector_8" d="M90.8625 25.0959H90.8391C90.1213 25.0832 89.55 24.4905 89.5627 23.7727L89.594 22.0168C89.6067 21.2991 90.1848 20.7346 90.9172 20.7405C91.635 20.7532 92.2063 21.3459 92.1936 22.0637L92.1623 23.8196C92.1496 24.5295 91.5705 25.0959 90.8625 25.0959Z"/><path id="Vector_9" d="M96.8519 25.0119H96.8216C96.1038 24.9953 95.5355 24.4006 95.5511 23.6828L95.5892 21.9758C95.6048 21.2678 96.1839 20.7053 96.888 20.7053H96.9183C97.6361 20.7219 98.2044 21.3166 98.1888 22.0344L98.1507 23.7414C98.1351 24.4494 97.556 25.0119 96.8519 25.0119Z"/><path id="Vector_10" d="M102.84 24.9289H102.804C102.086 24.9094 101.52 24.3117 101.54 23.594L101.584 21.9348C101.604 21.2287 102.182 20.6701 102.883 20.6701H102.919C103.637 20.6897 104.204 21.2873 104.184 22.0051L104.139 23.6643C104.12 24.3703 103.541 24.9289 102.84 24.9289Z"/><path id="Vector_11" d="M108.83 24.8449C108.815 24.8449 108.801 24.8449 108.786 24.844C108.069 24.8205 107.506 24.2199 107.53 23.5022L107.583 21.8928C107.605 21.175 108.205 20.5852 108.925 20.6369C109.641 20.6604 110.205 21.2609 110.18 21.9787L110.128 23.5881C110.105 24.2912 109.528 24.8449 108.83 24.8449Z"/></g><path id="Vector_12" d="M144.463 41.2717C141.12 41.2717 137.126 40.3576 132.537 37.7434C130.222 36.4231 127.615 35.6926 125 35.6291C104.896 35.1408 75.2287 34.9455 48.0675 36.7824C47.3429 36.8313 46.7306 36.2902 46.6827 35.5735C46.6339 34.8567 47.1759 34.2365 47.8917 34.1887C75.1495 32.3449 104.902 32.5412 125.063 33.0295C128.108 33.1037 131.137 33.9524 133.824 35.4836C147.158 43.0803 154.428 34.7317 154.501 34.6467C154.963 34.0988 155.783 34.0285 156.333 34.4924C156.882 34.9553 156.95 35.7756 156.487 36.3244C156.428 36.3957 152.183 41.2707 144.463 41.2717Z"/><g id="Group_2"><path id="Vector_13" d="M74.7757 121.347C74.3479 121.923 74.4681 122.738 75.0452 123.165C75.1772 123.263 75.3106 123.351 75.4429 123.446C75.5418 122.594 75.6448 121.727 75.7552 120.841C75.3809 120.86 75.0169 121.022 74.7757 121.347H74.7757Z"/><path id="Vector_14" d="M69.6262 95.4153C73.2721 92.9743 77.4184 92.7215 80.8743 94.6869C81.159 93.8176 81.4564 93.0007 81.7622 92.2224C77.552 90.0309 72.4736 90.3799 68.1799 93.2551C63.7483 96.2219 61.3694 101.118 62.259 105.441C62.4045 106.143 63.0862 106.591 63.7951 106.451C64.4983 106.306 64.9504 105.619 64.8059 104.915C64.1262 101.618 66.0637 97.801 69.6262 95.4153H69.6262Z"/><path id="Vector_15" d="M88.1345 97.2649C90.2548 97.2334 92.0661 96.5412 93.5806 95.9553C96.355 94.885 97.2066 94.6731 98.4497 96.8469C98.9944 97.8 99.1775 98.7568 99.1287 99.7376C99.9951 99.688 100.876 99.6503 101.746 99.6291C101.78 98.3025 101.502 96.948 100.708 95.5578C98.2993 91.342 95.1626 92.5568 92.644 93.5305C90.2725 94.4466 87.832 95.3824 84.6172 93.873C85.6616 94.7691 86.8983 95.9187 88.1345 97.2649L88.1345 97.2649Z"/></g><g id="Group_3"><path id="Vector_16" d="M134.443 109.3C133.807 108.976 133.021 109.224 132.693 109.864C130.814 113.53 126.422 116.289 122.092 116.979C122.233 117.819 122.374 118.676 122.514 119.543C127.644 118.72 132.744 115.464 135.007 111.05C135.334 110.411 135.082 109.628 134.443 109.3V109.3Z"/><path id="Vector_17" d="M119.042 92.884C118.526 93.089 117.975 93.3086 117.408 93.5553C117.576 94.2648 117.776 95.1275 118.004 96.1357C118.669 95.8328 119.342 95.5618 120.001 95.3C123.202 94.0285 126.829 92.5871 125.048 87.382C123.809 83.7619 125.445 82.3576 127.708 80.4133C130.193 78.2775 133.286 75.6193 131.291 69.633C131.064 68.9524 130.333 68.5852 129.646 68.8107C128.965 69.0383 128.597 69.7736 128.824 70.4553C130.267 74.7854 128.389 76.3986 126.013 78.4406C123.681 80.4445 120.78 82.9377 122.587 88.2238C123.525 90.9641 122.554 91.4885 119.042 92.884V92.884Z"/></g><path id="Vector_18" d="M75.4541 123.348C75.5606 122.432 75.672 121.5 75.7916 120.547C67.7706 114.34 62.9121 104.816 62.9121 93.5627C62.9121 72.842 79.4473 55.9846 99.7705 55.9846C120.094 55.9846 136.628 72.842 136.628 93.5627C136.628 105.258 131.376 115.08 122.785 121.257C122.925 122.147 123.062 123.052 123.198 123.965C133.043 117.317 139.228 106.396 139.228 93.5627C139.228 71.4084 121.527 53.385 99.7705 53.385C78.0137 53.385 60.3125 71.4084 60.3125 93.5627C60.3125 106.006 66.1272 116.651 75.4541 123.348Z"/><path id="Vector_19" d="M155.407 79.7288C154.989 78.4055 153.717 74.3782 149.561 74.1565L146.327 73.9836C145.232 73.925 144.279 73.2834 143.839 72.3088C135.93 54.8157 119.565 44.7834 98.9373 44.7834C72.7469 44.7834 52.4979 65.1321 50.7889 93.1692C50.0291 105.649 54.2254 117.426 62.6043 126.33C65.9691 129.907 69.9205 132.912 74.2798 135.279C74.347 134.445 74.4272 133.491 74.5225 132.422C70.8018 130.28 67.4119 127.646 64.4979 124.549C56.6151 116.172 52.6688 105.083 53.3846 93.3274C55.0067 66.7053 74.1639 47.383 98.9373 47.383C118.499 47.383 134.001 56.8586 141.47 73.3791C142.312 75.2434 144.12 76.47 146.188 76.5793L149.423 76.7522C150.589 76.8147 151.917 77.3098 152.929 80.512C153.674 82.8713 154.551 98.8538 154.116 102.159C153.655 105.674 152.074 106.199 150.588 106.25L148.786 106.312C146.55 106.387 144.594 107.795 143.804 109.899C140.254 119.352 133.259 127.104 124.33 132.199C124.445 133.121 124.557 134.052 124.666 134.988C134.566 129.614 142.346 121.177 146.237 110.813C146.657 109.697 147.691 108.949 148.874 108.909L150.676 108.848C153.052 108.768 156.025 107.601 156.694 102.497C157.138 99.1252 156.327 82.6399 155.407 79.7288Z"/><path id="Vector_20" d="M161.07 36.7063C161.04 36.3821 161.272 35.8674 161.498 35.3694C161.842 34.6057 162.233 33.7405 162.137 32.7434C161.988 31.1946 161.836 29.5168 161.68 27.8049C161.344 24.0969 160.997 20.2629 160.631 17.1877C160.233 13.8498 157.401 11.3 153.897 11.1252C103.994 8.63205 48.6013 11.0451 46.2673 11.1477C42.7351 11.3049 39.8816 13.8537 39.4821 17.2092C39.1257 20.2111 38.7858 23.9572 38.4567 27.5803C38.3015 29.2971 38.1482 30.9797 37.9987 32.5295C37.904 33.5119 38.3044 34.3518 38.6579 35.093C38.8796 35.5568 39.1081 36.0363 39.0817 36.3166C37.281 55.9221 34.7634 92.5871 33.0026 155.919C32.8991 159.62 35.8513 162.698 39.7233 162.928C43.1169 163.129 52.6561 163.629 68.3396 163.951C68.4221 163.281 68.5125 162.587 68.6193 161.839C68.642 161.681 68.6672 161.519 68.6914 161.358C52.879 161.037 43.2795 160.534 39.8776 160.332C37.4157 160.187 35.5378 158.28 35.6023 155.991C37.3601 92.7278 39.8728 56.1223 41.6716 36.5549C41.7624 35.5627 41.3601 34.718 41.0046 33.9739C40.7966 33.5373 40.5612 33.0432 40.5866 32.7786C40.737 31.2248 40.8903 29.5373 41.0466 27.8157C41.3737 24.2102 41.7116 20.4827 42.0642 17.5159C42.3122 15.4309 44.1286 13.845 46.3825 13.7454C47.9236 13.677 72.6501 12.5989 103.627 12.5989C119.461 12.5989 136.928 12.8801 153.767 13.7229C156.002 13.8342 157.801 15.4202 158.049 17.4944C158.411 20.5344 158.757 24.3498 159.092 28.0393C159.247 29.7561 159.4 31.4387 159.55 32.9934C159.579 33.301 159.349 33.8078 159.128 34.2991C158.781 35.0666 158.388 35.9358 158.48 36.9436C160.262 56.4309 162.756 92.8977 164.512 155.953C164.577 158.252 162.695 160.159 160.227 160.295C156.422 160.505 145.731 161.028 128.924 161.358C129.035 162.248 129.136 163.117 129.222 163.952C145.934 163.621 156.571 163.1 160.37 162.891C164.255 162.678 167.216 159.598 167.112 155.881C165.352 92.7639 162.855 56.2307 161.07 36.7063V36.7063Z"/><path id="Vector_21" d="M85.5434 183.03C85.4975 183.03 85.4516 183.028 85.4047 183.023C69.7544 181.368 66.6167 176.229 66.7192 169.021C66.8374 160.783 72.0034 140.922 72.4926 139.06C75.0014 108.491 80.6469 91.049 80.7036 90.8762C80.8393 90.4631 81.1733 90.1457 81.5932 90.0295C82.0092 89.9143 82.4614 90.0149 82.7905 90.3C85.8432 92.9455 89.9887 97.55 91.354 99.0891C98.4917 98.3352 104.605 98.4162 108.526 98.6213C109.243 98.6584 109.793 99.2707 109.755 99.9875C109.718 100.703 109.119 101.279 108.389 101.217C104.444 101.01 98.2202 100.935 90.9692 101.746C90.5503 101.79 90.1264 101.631 89.8452 101.31C89.8003 101.258 85.9028 96.8049 82.5932 93.6428C81.0952 98.9543 77.0757 114.905 75.0747 139.386C75.0679 139.463 75.0552 139.538 75.0356 139.613C74.98 139.824 69.435 160.913 69.3188 169.058C69.2466 174.136 70.4429 178.826 85.6782 180.437C86.3921 180.512 86.9097 181.153 86.8345 181.866C86.7642 182.533 86.1997 183.03 85.5434 183.03L85.5434 183.03Z"/><path id="Vector_22" d="M106.657 183.538C105.98 183.538 105.408 183.015 105.361 182.329C105.311 181.613 105.851 180.991 106.567 180.942C125.784 179.596 128.301 174.179 128.228 169.058C128.111 160.875 123.833 139.752 123.789 139.539C123.781 139.5 123.776 139.46 123.771 139.419C121.031 113.911 117.538 98.8303 116.207 93.674C113.012 96.6994 109.531 100.618 109.49 100.664C109.013 101.203 108.19 101.251 107.655 100.775C107.117 100.298 107.068 99.4768 107.544 98.9397C107.742 98.716 112.431 93.4397 116.053 90.3C116.386 90.0119 116.843 89.9123 117.266 90.0334C117.69 90.1565 118.022 90.4846 118.149 90.9065C118.197 91.0627 122.88 106.825 126.35 139.081C126.654 140.582 130.709 160.736 130.827 169.021C130.954 177.884 123.528 182.36 106.748 183.535C106.717 183.537 106.687 183.538 106.656 183.538L106.657 183.538Z"/><path id="Vector_23" d="M120.832 109.055C120.231 109.056 119.692 108.636 119.562 108.025C119.413 107.322 119.861 106.632 120.564 106.484C125.322 105.474 133.796 104.933 138.918 105.022C139.636 105.033 140.208 105.624 140.197 106.343C140.185 107.053 139.606 107.621 138.897 107.621H138.875C133.882 107.546 125.538 108.086 121.103 109.027C121.012 109.046 120.921 109.055 120.832 109.055Z"/><path id="Vector_24" d="M137.137 115.233C137.014 115.233 136.89 115.215 136.767 115.179C130.949 113.457 125.286 113.219 121.568 113.326C120.883 113.332 120.252 112.781 120.231 112.064C120.211 111.346 120.777 110.747 121.494 110.727C125.413 110.619 131.359 110.867 137.505 112.685C138.194 112.889 138.586 113.613 138.383 114.301C138.215 114.866 137.698 115.233 137.137 115.233H137.137Z"/><path id="Vector_25" d="M133.892 122.411C133.649 122.411 133.404 122.344 133.186 122.202C129.651 119.909 125.136 118.527 121.971 117.771C121.273 117.604 120.842 116.903 121.009 116.204C121.176 115.507 121.877 115.074 122.575 115.241C125.939 116.045 130.756 117.527 134.6 120.021C135.203 120.411 135.375 121.217 134.984 121.819C134.735 122.202 134.318 122.411 133.892 122.411H133.892Z"/><path id="Vector_26" d="M77.3791 109.055C77.2902 109.055 77.1994 109.046 77.1086 109.027C72.8107 108.114 66.1584 107.53 60.9211 107.621H60.8996C60.1906 107.621 59.6115 107.053 59.5998 106.343C59.5881 105.624 60.1603 105.033 60.8781 105.022C66.301 104.933 73.1818 105.535 77.6476 106.484C78.3508 106.632 78.799 107.322 78.6496 108.025C78.5197 108.636 77.9806 109.055 77.3791 109.055Z"/><path id="Vector_27" d="M61.075 115.233C60.5145 115.233 59.9969 114.866 59.8289 114.301C59.6258 113.613 60.0184 112.889 60.7069 112.685C66.8563 110.867 72.8065 110.618 76.7186 110.727C77.4354 110.747 78.0008 111.346 77.9813 112.064C77.9598 112.781 77.3475 113.327 76.6444 113.326C72.9276 113.218 67.2655 113.457 61.4451 115.179C61.3221 115.215 61.1971 115.233 61.075 115.233H61.075Z"/><path id="Vector_28" d="M64.3207 122.411C63.8949 122.411 63.4779 122.202 63.2289 121.819C62.8382 121.217 63.0101 120.411 63.6127 120.021C67.4584 117.527 72.2738 116.045 75.6371 115.241C76.3392 115.073 77.0365 115.507 77.2035 116.204C77.3705 116.903 76.9388 117.604 76.2406 117.771C73.0765 118.527 68.5629 119.908 65.0267 122.202C64.8089 122.344 64.5628 122.411 64.3207 122.411Z"/><path id="Vector_29" d="M104.109 185.519C103.613 185.519 103.139 185.233 102.922 184.751C102.627 184.097 102.919 183.327 103.575 183.032C104.397 182.662 105.806 181.814 106.002 180.289C106.234 178.5 104.727 176.196 101.761 173.8C101.202 173.349 101.115 172.53 101.566 171.972C102.017 171.413 102.836 171.326 103.394 171.777C107.197 174.849 108.942 177.824 108.581 180.622C108.32 182.652 106.883 184.394 104.641 185.404C104.468 185.482 104.286 185.519 104.109 185.519H104.109Z"/><path id="Vector_30" d="M98.0535 194.405C91.5184 194.405 87.0047 193.169 84.615 190.72C83.2186 189.288 82.5887 187.492 82.741 185.384C83.076 180.759 87.3104 178.69 90.7127 177.028C92.5555 176.126 94.4617 175.195 94.7791 174.245C94.8162 174.135 94.9295 173.799 94.5779 173.108C94.2527 172.467 94.5086 171.685 95.1482 171.36C95.7859 171.035 96.5701 171.29 96.8963 171.93C97.4559 173.032 97.574 174.09 97.2449 175.071C96.5818 177.052 94.285 178.175 91.8543 179.363C88.7606 180.875 85.5613 182.439 85.3348 185.571C85.2361 186.926 85.6102 188.016 86.4764 188.904C88.5877 191.069 93.6414 192.076 100.716 191.738C105.838 191.495 108.022 190.393 108.337 189.524C108.514 189.03 108.086 188.247 107.189 187.428C104.39 184.868 97.8143 184.077 97.7479 184.07C97.035 183.987 96.5232 183.342 96.6063 182.629C96.6893 181.916 97.3387 181.406 98.0467 181.488C98.3494 181.522 105.523 182.381 108.943 185.509C111.303 187.665 111.108 189.503 110.782 190.406C109.939 192.74 106.594 194.063 100.839 194.336C99.8738 194.382 98.9441 194.404 98.0535 194.404V194.405Z"/></g></g><defs><clipPath id="clip0_3220_9612"><rect width="134.115" height="184.405" transform="translate(33 10)"/></clipPath></defs></svg>