<svg width="200" height="200" viewBox="0 0 200 200" xmlns="http://www.w3.org/2000/svg"><g id="type=success, mode=light"><g id="Layer 2"><path id="Vector" d="M40.8205 44.2446C41.9576 44.2446 42.8793 43.3228 42.8793 42.1858C42.8793 41.0487 41.9576 40.127 40.8205 40.127C39.6835 40.127 38.7617 41.0487 38.7617 42.1858C38.7617 43.3228 39.6835 44.2446 40.8205 44.2446Z"/><path id="Vector_2" d="M34.0167 38.3341C35.351 38.3341 36.4328 37.2524 36.4328 35.918C36.4328 34.5837 35.351 33.502 34.0167 33.502C32.6823 33.502 31.6006 34.5837 31.6006 35.918C31.6006 37.2524 32.6823 38.3341 34.0167 38.3341Z"/><path id="Vector_3" d="M43.9456 35.0128C45.4279 35.0128 46.6295 33.8112 46.6295 32.3289C46.6295 30.8466 45.4279 29.645 43.9456 29.645C42.4633 29.645 41.2617 30.8466 41.2617 32.3289C41.2617 33.8112 42.4633 35.0128 43.9456 35.0128Z"/><path id="Vector_4" d="M155.571 41.4945C156.708 41.4945 157.629 40.5728 157.629 39.4357C157.629 38.2987 156.708 37.377 155.571 37.377C154.433 37.377 153.512 38.2987 153.512 39.4357C153.512 40.5728 154.433 41.4945 155.571 41.4945Z"/><path id="Vector_5" d="M151.739 33.7355C153.073 33.7355 154.155 32.6539 154.155 31.3196C154.155 29.9854 153.073 28.9038 151.739 28.9038C150.405 28.9038 149.323 29.9854 149.323 31.3196C149.323 32.6539 150.405 33.7355 151.739 33.7355Z"/><path id="Vector_6" d="M164.571 36.1378C166.053 36.1378 167.255 34.9362 167.255 33.4539C167.255 31.9716 166.053 30.77 164.571 30.77C163.088 30.77 161.887 31.9716 161.887 33.4539C161.887 34.9362 163.088 36.1378 164.571 36.1378Z"/><path id="Vector_7" d="M148.384 112.225C150.365 106.686 151.257 100.816 151.011 94.9378C150.743 87.0419 149.097 79.2537 146.146 71.9249C148.442 67.4504 149.59 62.4754 149.487 57.4472C149.487 34.9133 132.194 14.7544 100.985 14.7544C69.7758 14.7544 52.4824 34.9132 52.4824 57.4472C52.393 62.2749 53.4477 67.0551 55.5605 71.3969C52.1853 79.8212 50.5573 88.8436 50.7756 97.9163C50.88 102.756 51.7373 107.551 53.3168 112.127C39.1571 117.638 30.2686 125.583 30.2686 134.415C30.2686 151.056 61.815 164.546 100.73 164.546C139.644 164.546 171.19 151.056 171.19 134.415C171.19 125.634 162.4 117.732 148.384 112.225ZM54.8648 144.195C52.8289 147.526 49.9065 148.111 45.9065 146.361C40.982 144.207 38.9201 135.785 38.6379 131.236C38.452 129.318 39.0334 127.403 40.2549 125.912C41.4764 124.421 43.2387 123.474 45.1565 123.278C51.0731 122.695 53.5295 125.106 55.3637 130.004C56.9523 134.246 56.2398 141.945 54.8648 144.195L54.8648 144.195ZM162.294 131.236C162.012 135.785 159.95 144.207 155.026 146.361C151.026 148.111 148.103 147.526 146.067 144.195C144.692 141.945 143.98 134.246 145.568 130.004C147.403 125.106 149.859 122.695 155.776 123.278C157.693 123.474 159.456 124.421 160.677 125.912C161.899 127.403 162.48 129.318 162.294 131.236Z"/></g><g id="Layer 45"><path id="Vector_8" d="M12.88 153.657C14.0112 154.255 15.1965 154.743 16.4199 155.117C16.2026 155.361 16.0076 155.623 15.8372 155.902C15.3778 156.672 15.1369 157.553 15.1405 158.45C15.1585 159.426 15.3926 160.385 15.8261 161.259C16.7261 162.995 17.9684 164.531 19.4781 165.773C22.2634 168.112 25.424 169.962 28.8263 171.246C32.5319 172.723 36.4769 173.509 40.4659 173.565C42.3337 173.572 44.1951 173.348 46.0076 172.897C45.9879 173.099 45.9566 173.299 45.9564 173.504C45.9578 174.62 46.2717 175.713 46.8626 176.66C48.0267 178.351 49.6331 179.69 51.5065 180.53C54.3119 181.867 57.2656 182.868 60.3062 183.51C65.0548 184.708 69.9241 185.362 74.8204 185.46C80.3718 185.461 84.1151 184.275 86.603 182.528C87.666 181.791 88.5787 180.859 89.2923 179.78C89.3336 179.88 89.3618 179.984 89.4071 180.082C89.9214 181.2 90.677 182.189 91.6197 182.98C92.6126 183.797 93.7326 184.445 94.9352 184.9V193.1C94.9352 193.444 95.0722 193.775 95.316 194.019C95.5598 194.263 95.8904 194.4 96.2352 194.4C96.58 194.4 96.9106 194.263 97.1544 194.019C97.3982 193.775 97.5352 193.444 97.5352 193.1V185.71C97.6202 185.731 97.7 185.754 97.7863 185.774C98.9754 186.041 100.179 186.24 101.39 186.372V196.821C101.39 197.166 101.527 197.496 101.771 197.74C102.015 197.984 102.345 198.121 102.69 198.121C103.035 198.121 103.366 197.984 103.609 197.74C103.853 197.496 103.99 197.166 103.99 196.821V186.592C105.229 186.665 106.553 186.705 107.985 186.705C109.035 186.705 110.14 186.685 111.3 186.645C119.133 186.365 124.402 185.383 127.897 183.712C129.454 183.027 130.809 181.952 131.831 180.591C132.16 180.115 132.426 179.598 132.623 179.054C132.641 179.065 132.657 179.077 132.675 179.088C135.982 180.929 139.726 181.841 143.509 181.726C148.92 181.584 154.262 180.479 159.284 178.461C162.645 177.35 165.775 175.633 168.517 173.394C169.443 172.588 170.215 171.622 170.796 170.541C171.295 169.593 171.559 168.539 171.565 167.468C171.56 167.022 171.511 166.578 171.417 166.142C173.874 165.957 176.288 165.388 178.57 164.458C181.983 163.014 185.06 160.879 187.606 158.186C188.905 156.9 190 155.424 190.855 153.809C191.537 152.521 191.906 151.09 191.932 149.633C191.934 148.543 191.692 147.466 191.225 146.482C190.974 145.97 190.671 145.485 190.32 145.036C190.868 144.669 191.383 144.256 191.859 143.8C192.889 142.8 193.703 141.6 194.25 140.273C194.797 138.946 195.066 137.521 195.039 136.086C194.974 133.489 194.316 130.942 193.114 128.639C191.526 125.652 188.886 123.361 185.705 122.208C185.297 122.042 184.881 121.887 184.456 121.743C184.685 121.18 184.802 120.577 184.803 119.969C184.743 118.562 184.253 117.208 183.399 116.088C181.95 114.18 180.186 112.532 178.183 111.217C176.139 109.806 173.973 108.581 171.71 107.557C167.673 105.666 163.287 104.638 158.83 104.538C158.295 104.538 157.758 104.563 157.221 104.601C156.946 103.879 156.56 103.205 156.076 102.604C155.015 101.334 153.715 100.286 152.248 99.5209C152.301 98.5538 152.336 97.5774 152.335 96.5828C152.335 96.0256 152.327 95.4645 152.31 94.8996C152.296 94.4383 152.264 93.9741 152.241 93.511C152.982 93.9628 153.72 94.388 154.449 94.7629C156.717 96.0461 159.251 96.785 161.853 96.9213C163.028 96.9403 164.19 96.6803 165.245 96.1628C166.327 95.6043 167.24 94.7661 167.888 93.7354C168.662 92.5544 169.073 91.1723 169.069 89.7604C169.043 88.3743 168.718 87.0101 168.115 85.7617C166.844 83.2457 165.084 81.0076 162.939 79.1779C161.974 78.3136 160.966 77.4991 159.918 76.7376C159.953 76.6929 159.995 76.6479 160.029 76.6032C161.369 74.8079 162.57 72.9127 163.621 70.9341C163.664 70.9348 163.708 70.9422 163.751 70.9422C165.133 70.9532 166.495 70.6207 167.716 69.9745C168.274 69.6763 168.769 69.2715 169.172 68.7827C169.603 68.2612 169.844 67.6084 169.854 66.9317C169.854 66.8807 169.835 66.8304 169.832 66.7792C172.653 65.7575 175.085 63.881 176.788 61.4115C177.724 60.0966 178.253 58.5352 178.308 56.922C178.334 55.6744 177.887 54.4631 177.056 53.5321C176.711 53.1653 176.304 52.8621 175.854 52.6365C175.858 52.6087 175.874 52.586 175.876 52.5576H175.876C175.883 52.454 175.886 52.3527 175.886 52.2539C175.897 51.7633 175.804 51.276 175.612 50.8243C175.42 50.3727 175.135 49.9669 174.774 49.634C174.119 49.0537 173.272 48.7363 172.397 48.7428C171.789 48.7411 171.189 48.8925 170.655 49.183L170.646 49.1887C170.581 49.1087 170.512 49.0324 170.439 48.9599C169.819 48.4148 169.019 48.118 168.193 48.1265C167.46 48.1278 166.743 48.346 166.134 48.7535C165.46 49.2102 164.942 49.8628 164.651 50.6232C164.228 51.6592 163.691 52.6447 163.049 53.5613C162.771 53.9659 162.466 54.3515 162.136 54.7156C161.9 53.9683 161.501 53.2821 160.97 52.7056C160.621 52.34 160.202 52.0493 159.737 51.8512C159.272 51.6532 158.772 51.552 158.266 51.5537C157.167 51.5871 156.107 51.9713 155.242 52.6503C154.925 52.8765 154.657 53.1633 154.452 53.4941C154.246 53.8362 154.136 54.2279 154.135 54.6274C154.137 54.9228 154.194 55.2153 154.302 55.4902C154.456 55.8642 154.665 56.213 154.922 56.5248C155.255 56.9429 155.588 57.29 155.791 57.5604C155.863 57.6507 155.926 57.7477 155.98 57.8499C155.917 58.0813 155.812 58.4248 155.713 58.8365C155.576 59.3811 155.504 59.9399 155.497 60.5014C155.488 61.4807 155.773 62.4402 156.316 63.2552C156.575 63.6289 156.879 63.9698 157.22 64.2704L157.212 64.2796C156.893 64.8125 156.723 65.4217 156.722 66.0429C156.736 66.8643 157.024 67.6575 157.54 68.2969C156.728 69.7865 155.812 71.217 154.799 72.578C154.666 72.752 154.477 72.9715 154.265 73.2074C152.881 72.4678 151.454 71.7758 149.99 71.1566C149.741 71.0513 149.487 70.9568 149.236 70.8555C149.118 70.2554 148.988 69.6529 148.849 69.0478C150.175 65.3257 150.832 61.3979 150.787 57.4467C150.836 51.7116 149.712 46.027 147.485 40.7416C145.258 35.4563 141.975 30.6815 137.837 26.7103C136.523 25.462 135.131 24.2981 133.669 23.2256C134.152 22.2508 134.857 21.403 135.727 20.7507C136.208 20.4031 136.732 20.1195 137.286 19.9071C137.925 20.618 138.795 21.079 139.743 21.2078C140.69 21.3367 141.652 21.1251 142.458 20.6108C143.263 20.0964 143.86 19.3127 144.142 18.3993C144.424 17.4858 144.372 16.502 143.996 15.6231C143.621 14.7442 142.945 14.0273 142.09 13.6001C141.235 13.1729 140.256 13.0632 139.327 13.2906C138.399 13.5179 137.581 14.0675 137.02 14.8414C136.459 15.6153 136.191 16.5633 136.263 17.5164C135.526 17.8054 134.829 18.1879 134.189 18.6546C133.085 19.4747 132.175 20.5261 131.521 21.7351C123.57 16.5587 113.304 13.4506 100.984 13.4544C88.6689 13.4509 78.4069 16.5563 70.4573 21.7292C69.8033 20.5227 68.8939 19.4735 67.7926 18.6547C67.1527 18.1881 66.4554 17.8056 65.718 17.5167C65.7899 16.5656 65.5218 15.6199 64.9616 14.848C64.4014 14.0761 63.5854 13.5281 62.6589 13.3016C61.7324 13.0751 60.7556 13.1848 59.9024 13.6111C59.0493 14.0375 58.3751 14.7528 58.0001 15.6298C57.625 16.5067 57.5734 17.4883 57.8544 18.3997C58.1355 19.3112 58.7309 20.0933 59.5346 20.6067C60.3384 21.1202 61.2983 21.3318 62.2434 21.2037C63.1885 21.0756 64.0575 20.6161 64.6956 19.9072C65.2495 20.1197 65.7735 20.4033 66.2543 20.7509C67.1109 21.3926 67.8069 22.2242 68.2878 23.1804C67.5637 23.6901 66.8659 24.2362 66.1971 24.8166C64.9697 25.8142 63.8223 26.9063 62.7654 28.0831L62.7624 28.0882C55.2482 36.0069 51.0972 46.5308 51.1823 57.4469C51.1402 61.3502 51.7806 65.2308 53.0747 68.9137C52.8775 69.5908 52.6809 70.2662 52.496 70.939C50.4558 71.7774 48.4708 72.7442 46.5528 73.8336L46.5133 73.795C46.1294 73.4105 45.768 73.0044 45.4306 72.5785C44.5921 71.4594 43.8247 70.2887 43.1329 69.0733C43.2329 68.9906 43.345 68.914 43.4366 68.827C43.8298 68.4756 44.1466 68.0472 44.3676 67.5685C44.5886 67.0897 44.7089 66.5707 44.7213 66.0435C44.7198 65.4227 44.5508 64.8138 44.2321 64.281L44.223 64.271C44.5645 63.9703 44.8683 63.6292 45.1276 63.2553C45.6706 62.4404 45.9558 61.4809 45.9462 60.5017C45.9399 59.9401 45.8674 59.3812 45.7302 58.8366C45.6314 58.4267 45.5266 58.0846 45.4644 57.8533C45.5225 57.7376 45.5935 57.6289 45.6762 57.5293C45.89 57.2498 46.2293 56.8982 46.5634 56.4697C46.7489 56.2357 46.9096 55.9831 47.043 55.7159C47.2124 55.3779 47.3027 55.0058 47.3073 54.6277C47.3061 54.2283 47.1966 53.8366 46.9903 53.4946C46.7857 53.1639 46.5175 52.877 46.2013 52.6506C45.336 51.9717 44.2762 51.5874 43.1768 51.5539C42.6715 51.5522 42.1712 51.6534 41.7064 51.8514C41.2416 52.0495 40.822 52.3402 40.4732 52.7058C39.9419 53.2823 39.5437 53.9685 39.3067 54.7158C38.9774 54.3517 38.6727 53.9661 38.3945 53.5616C37.7527 52.6446 37.2151 51.6589 36.7917 50.6227C36.5005 49.8626 35.9829 49.2102 35.3089 48.7537C34.6994 48.3462 33.983 48.128 33.2499 48.1267C32.424 48.1182 31.6241 48.4151 31.0036 48.9602C30.9306 49.0327 30.8617 49.1091 30.797 49.189L30.7877 49.1831C30.2529 48.8927 29.6538 48.7414 29.0452 48.743C28.17 48.7365 27.3234 49.0539 26.6682 49.6342C26.3078 49.9672 26.0223 50.373 25.8307 50.8247C25.639 51.2763 25.5455 51.7636 25.5564 52.2541C25.5564 52.3559 25.56 52.4578 25.5673 52.56C25.5693 52.5878 25.5849 52.6101 25.5886 52.6374C25.1388 52.8629 24.7322 53.1659 24.3875 53.5325C23.5565 54.4637 23.1091 55.6751 23.1355 56.9228C23.1904 58.5358 23.7189 60.097 24.6549 61.4117C26.3562 63.8782 28.784 65.7531 31.6005 66.7755C31.5975 66.828 31.5891 66.8803 31.5892 66.9325C31.5998 67.6091 31.8405 68.2618 32.2716 68.7833C32.8976 69.5149 33.7059 70.0678 34.6147 70.386C35.2446 70.6215 35.9003 70.7813 36.5679 70.8623C37.6296 72.8664 38.8439 74.7859 40.2002 76.6036C40.4378 76.911 40.7034 77.2218 40.9813 77.5345C39.2895 78.8342 37.7364 80.305 36.3466 81.9236C35.3451 83.0862 34.5028 84.377 33.8419 85.7619C33.2391 87.0103 32.9139 88.3745 32.8886 89.7606C32.8844 91.1726 33.2949 92.5548 34.0692 93.7356C34.7178 94.7663 35.6307 95.6044 36.7129 96.1629C37.7675 96.6805 38.9298 96.9404 40.1044 96.9215C42.7062 96.7851 45.2408 96.0462 47.5083 94.763C48.1668 94.4244 48.8328 94.0415 49.5013 93.6398C49.4699 94.4602 49.4483 95.2792 49.4482 96.0941C49.4482 96.7161 49.4575 97.3365 49.4759 97.9551C49.5045 98.9465 49.5671 99.9189 49.647 100.881C44.8873 101.215 40.2255 102.396 35.8807 104.369C33.8383 105.283 31.9622 106.532 30.3292 108.062C29.6663 108.702 29.1047 109.438 28.6635 110.247C28.2986 110.926 28.0829 111.674 28.031 112.443C24.5645 112.738 21.2034 113.781 18.1794 115.501C15.1555 117.221 12.5408 119.577 10.5158 122.406C9.4661 123.831 8.86398 125.536 8.78607 127.304C8.78133 128.33 9.05596 129.338 9.5805 130.22C9.9473 130.815 10.4054 131.348 10.938 131.801C9.41347 132.514 8.06109 133.548 6.97344 134.832C5.62895 136.508 4.91624 138.603 4.9599 140.751C4.98034 142.229 5.21985 143.695 5.67059 145.102C6.23899 146.938 7.16992 148.641 8.40826 150.11C9.6466 151.58 11.1672 152.786 12.88 153.657ZM47.2081 169.413C47.1143 169.573 47.0387 169.738 46.9535 169.9C44.8693 170.629 42.6739 170.99 40.4659 170.965C34.9412 170.828 29.5469 169.259 24.8111 166.41C22.8536 165.287 21.0828 163.866 19.5618 162.198C19.0106 161.58 18.5448 160.891 18.177 160.149C17.9084 159.622 17.7593 159.042 17.7405 158.45C17.7361 158.021 17.8509 157.599 18.0722 157.23C18.3813 156.746 18.7977 156.339 19.2891 156.041C24.8871 152.529 31.2123 150.34 37.7838 149.64C42.739 153.595 49.5174 156.966 57.6218 159.612C55.013 161.406 52.5546 163.409 50.271 165.601C49.0944 166.738 48.0654 168.019 47.2081 169.413ZM54.2626 86.1006C55.0372 86.1808 55.8149 85.9819 56.456 85.5397C60.1548 89.9334 64.8157 93.4164 70.0774 95.7186C78.6217 99.6639 89.41 101.726 101.445 101.727H101.554C111.789 101.726 120.804 100.22 128.273 97.3444C128.888 98.8812 129.643 100.358 130.529 101.757C131.181 103.056 131.943 104.298 132.807 105.467C132.911 105.602 133.042 105.715 133.19 105.8C133.338 105.884 133.502 105.939 133.671 105.96C133.841 105.982 134.012 105.969 134.177 105.924C134.342 105.879 134.496 105.802 134.631 105.698C134.766 105.593 134.879 105.463 134.963 105.314C135.048 105.166 135.102 105.003 135.124 104.833C135.145 104.664 135.133 104.492 135.088 104.327C135.043 104.163 134.966 104.008 134.861 103.874L134.854 103.864C134.348 103.179 133.884 102.465 133.463 101.725L134.677 100.989C135.481 102.272 136.12 103.088 136.141 103.116C136.246 103.25 136.377 103.362 136.526 103.446C136.674 103.529 136.838 103.583 137.008 103.603C137.177 103.624 137.349 103.611 137.514 103.565C137.678 103.519 137.832 103.441 137.966 103.335C138.1 103.23 138.212 103.099 138.296 102.95C138.38 102.801 138.433 102.637 138.454 102.468C138.474 102.298 138.461 102.127 138.415 101.962C138.369 101.798 138.291 101.644 138.185 101.51L138.178 101.5C138.106 101.408 137.565 100.697 136.901 99.6403L138.115 98.9043C138.945 100.142 139.64 101.07 139.649 101.083C139.856 101.358 140.164 101.54 140.505 101.589C140.846 101.637 141.193 101.548 141.468 101.342C141.744 101.135 141.926 100.828 141.975 100.487C142.024 100.146 141.936 99.799 141.73 99.5231L141.677 99.4525C141.429 99.1183 140.341 97.6302 139.385 96.0785C139.372 96.0574 139.35 96.0465 139.336 96.0264C138.717 95.0234 138.17 93.9773 137.7 92.896L138.728 92.3537C139.454 93.6821 140.044 94.5346 140.063 94.5631C140.259 94.8464 140.56 95.0399 140.9 95.1012C141.239 95.1626 141.589 95.0866 141.872 94.89C142.155 94.6934 142.349 94.3924 142.41 94.0531C142.471 93.7138 142.395 93.3641 142.199 93.0808L142.192 93.0705C142.125 92.9742 141.628 92.2335 141.028 91.1395L142.284 90.4766C143.039 91.7614 143.677 92.7282 143.686 92.7417C143.78 92.8849 143.901 93.0082 144.042 93.1045C144.184 93.2008 144.343 93.2682 144.511 93.3028C144.678 93.3374 144.851 93.3386 145.019 93.3062C145.187 93.2739 145.347 93.2086 145.49 93.1143C145.633 93.0199 145.756 92.8982 145.851 92.7563C145.947 92.6143 146.014 92.4549 146.048 92.2871C146.082 92.1193 146.082 91.9465 146.049 91.7785C146.016 91.6106 145.95 91.4508 145.855 91.3084L145.807 91.2348C145.579 90.8865 144.581 89.3366 143.719 87.7313C143.713 87.7194 143.701 87.713 143.694 87.7015C143.627 87.5753 143.565 87.4505 143.501 87.3249C143.896 86.8842 144.276 86.4323 144.643 85.9725C145.071 86.1048 145.521 86.1484 145.966 86.1007C146.71 86.0131 147.441 85.8385 148.144 85.5806C148.318 85.5184 148.489 85.4454 148.66 85.3764C149.043 87.4708 149.339 89.566 149.513 91.6491C144.043 109.293 121.38 114.849 102.347 114.849C83.1841 114.849 57.8782 110.93 52.2172 91.6092C52.3556 89.688 52.5818 87.7611 52.8957 85.8286C53.3436 85.9546 53.8006 86.0455 54.2626 86.1007L54.2626 86.1006ZM102.347 127.65C120.85 127.65 142.211 121.421 149.078 104.523C147.888 112.35 144.176 119.574 138.505 125.097C137.927 124.761 137.26 124.609 136.593 124.663C135.927 124.716 135.292 124.972 134.775 125.396C134.258 125.819 133.882 126.391 133.699 127.034C133.516 127.677 133.533 128.36 133.748 128.993C125.834 134.488 115.172 137.668 102.308 138.05C101.461 138.075 100.623 138.087 99.7938 138.087C86.4241 138.087 75.3206 134.833 67.2186 128.856C67.3964 128.252 67.3971 127.61 67.2207 127.006C67.0444 126.402 66.6983 125.862 66.2237 125.449C65.7491 125.036 65.1659 124.767 64.5434 124.676C63.9208 124.585 63.2851 124.674 62.7119 124.933C57.7564 119.792 54.4009 113.322 53.0532 106.309C60.7383 123.225 83.5003 127.65 102.347 127.65L102.347 127.65ZM60.5871 126.482C59.2344 127.597 57.9467 128.788 56.7306 130.049C56.6776 129.885 56.6397 129.707 56.5806 129.548C55.9071 127.419 54.7063 125.495 53.0896 123.955C52.2772 123.258 51.3339 122.729 50.3148 122.4C49.1783 122.045 47.9926 121.874 46.8022 121.892C46.2374 121.892 45.6461 121.923 45.0283 121.984C42.9778 122.189 41.0701 123.127 39.6556 124.625C38.1255 126.269 37.2889 128.439 37.3202 130.684C37.3202 130.893 37.3268 131.104 37.3401 131.318C37.5565 134.353 38.2246 137.338 39.3223 140.176C39.9134 141.725 40.7134 143.186 41.7 144.519C42.6509 145.826 43.9191 146.87 45.385 147.552C46.7826 148.212 48.3011 148.577 49.846 148.624C51.0746 148.638 52.282 148.304 53.3284 147.66C54.4172 146.952 55.3235 145.997 55.9735 144.872C56.2715 144.358 56.506 143.809 56.6717 143.238C57.0339 141.987 57.2778 140.706 57.4002 139.411C58.5542 137.859 59.8008 136.379 61.1334 134.978C62.5179 133.504 64.0182 132.143 65.62 130.908C74.2828 137.32 85.9847 140.688 99.7938 140.687C100.649 140.687 101.513 140.674 102.385 140.649C115.727 140.252 126.979 136.927 135.428 130.99C137.567 132.679 139.538 134.573 141.311 136.643C142.143 137.601 142.894 138.544 143.535 139.41C143.6 140.025 143.677 140.625 143.776 141.187C143.895 141.88 144.056 142.565 144.26 143.238C144.425 143.809 144.66 144.358 144.958 144.872C145.608 145.997 146.514 146.952 147.603 147.66C148.649 148.304 149.856 148.638 151.085 148.624C152.63 148.577 154.149 148.212 155.546 147.552C157.012 146.87 158.28 145.826 159.231 144.519C160.685 142.494 161.764 140.225 162.416 137.819C163.04 135.7 163.434 133.52 163.591 131.317V131.315C163.604 131.104 163.611 130.893 163.611 130.684C163.642 128.439 162.806 126.269 161.276 124.625C159.861 123.127 157.953 122.189 155.903 121.984C155.284 121.923 154.693 121.892 154.129 121.892C152.939 121.874 151.753 122.046 150.616 122.4C149.091 122.897 147.745 123.831 146.745 125.085C145.71 126.433 144.902 127.94 144.351 129.548L144.351 129.548C144.292 129.706 144.255 129.882 144.202 130.046C143.061 128.862 141.858 127.738 140.599 126.681C144.277 123.054 147.175 118.714 149.116 113.927C149.423 114.054 149.74 114.176 150.041 114.305C156.308 116.982 161.332 120.163 164.729 123.601C168.133 127.05 169.889 130.683 169.89 134.415C169.889 138.147 168.133 141.78 164.729 145.229C159.635 150.393 150.873 154.949 139.764 158.151C127.05 161.642 113.914 163.356 100.729 163.246C81.4245 163.249 63.9508 159.889 51.4173 154.526C45.1507 151.848 40.1272 148.668 36.7299 145.229C33.3255 141.78 31.5696 138.147 31.5684 134.415C31.5696 130.683 33.3255 127.05 36.7299 123.601C40.329 119.953 45.7663 116.61 52.562 113.832C54.3804 118.535 57.1073 122.833 60.5871 126.482L60.5871 126.482ZM54.9698 136.234C54.9729 137.741 54.8474 139.247 54.5947 140.733C54.495 141.319 54.3593 141.898 54.1884 142.467C54.0849 142.833 53.9394 143.185 53.7549 143.517C53.3163 144.293 52.7009 144.956 51.9585 145.45C51.3239 145.84 50.5906 146.039 49.846 146.024C48.6601 145.975 47.4968 145.685 46.4272 145.17C45.3653 144.664 44.4493 143.896 43.7649 142.939C42.5068 141.167 41.5741 139.185 41.0103 137.087C40.4411 135.154 40.0806 133.166 39.9351 131.156C39.925 130.996 39.9202 130.839 39.9202 130.684C39.8877 129.102 40.4713 127.569 41.5479 126.408C42.532 125.367 43.8581 124.715 45.2836 124.572C45.8272 124.518 46.3334 124.491 46.8022 124.492C47.7176 124.474 48.63 124.602 49.5053 124.871C50.5596 125.211 51.4882 125.859 52.1725 126.73C53.0263 127.859 53.6926 129.119 54.1458 130.46L55.3632 130.004L54.1458 130.46C54.7424 132.325 55.0209 134.276 54.9698 136.234L54.9698 136.234ZM159.192 139.218C158.688 140.544 158.007 141.796 157.166 142.939C156.482 143.896 155.566 144.664 154.504 145.17C153.434 145.685 152.271 145.975 151.085 146.024C150.34 146.039 149.607 145.84 148.973 145.45C148.23 144.956 147.615 144.294 147.177 143.517C146.992 143.185 146.846 142.833 146.743 142.467C146.197 140.435 145.934 138.338 145.961 136.234C145.91 134.276 146.189 132.325 146.786 130.46L145.568 130.004L146.786 130.46C147.31 128.744 148.256 127.186 149.536 125.928C150.088 125.452 150.731 125.093 151.426 124.871C152.301 124.602 153.214 124.474 154.129 124.492C154.598 124.492 155.104 124.518 155.647 124.572C157.073 124.715 158.399 125.367 159.383 126.408C160.46 127.569 161.044 129.102 161.011 130.684C161.011 130.838 161.006 130.996 160.996 131.157V131.156C160.796 133.918 160.188 136.634 159.192 139.218ZM88.0947 176.072C87.6902 177.844 86.621 179.394 85.1075 180.401C83.188 181.752 80.0153 182.86 74.8205 182.86C70.1237 182.762 65.4532 182.131 60.8987 180.979C56.1176 179.864 52.9117 178.551 51.0184 177.226C50.2471 176.725 49.5873 176.07 49.0803 175.303C48.7385 174.765 48.5568 174.141 48.5565 173.504C48.6039 172.516 48.9126 171.558 49.4511 170.728C50.688 168.831 52.214 167.139 53.9739 165.713C56.1432 163.883 58.4103 162.171 60.7652 160.586C60.8353 160.607 60.9031 160.629 60.9734 160.649C70.4664 163.303 80.217 164.93 90.0574 165.503C89.5448 168.963 88.8198 172.79 88.0947 176.072H88.0947ZM129.703 179.097C129.183 179.801 128.523 180.391 127.764 180.83C125.88 181.879 123.83 182.6 121.703 182.961C118.241 183.609 114.731 183.972 111.209 184.047C110.076 184.086 109.001 184.106 107.985 184.105C105.04 184.152 102.098 183.921 99.197 183.416C97.7691 183.165 96.3796 182.73 95.0632 182.122C93.7582 181.558 92.6682 180.59 91.9528 179.361C91.3487 178.157 91.0604 176.819 91.1151 175.473C91.1134 175.008 91.1431 174.516 91.1864 174.013C91.6909 171.533 92.1674 168.911 92.5474 166.421C92.6032 166.158 92.6587 165.899 92.7142 165.633C95.3502 165.76 98.0147 165.846 100.729 165.846C108.619 165.857 116.499 165.282 124.303 164.126C125.704 165.994 127.005 167.935 128.202 169.94C129.655 172.437 130.513 174.711 130.5 176.464C130.522 177.404 130.242 178.326 129.703 179.097L129.703 179.097ZM168.484 169.352C167.714 170.67 166.635 171.781 165.34 172.589C163.165 174.012 160.826 175.166 158.374 176.025C153.643 177.933 148.609 178.983 143.509 179.126C140.194 179.24 136.909 178.455 134.004 176.853C133.674 176.658 133.374 176.453 133.088 176.246C132.842 173.534 131.937 170.923 130.453 168.639C129.512 167.011 128.378 165.345 127.172 163.663C135.369 162.341 143.386 160.077 151.064 156.916C151.957 156.534 152.823 156.139 153.671 155.736C153.936 155.816 154.21 155.886 154.465 155.981C158.142 157.271 161.614 159.084 164.775 161.363C165.977 162.243 167.034 163.305 167.909 164.51C168.553 165.366 168.921 166.397 168.965 167.468C168.959 168.125 168.794 168.772 168.484 169.352L168.484 169.352ZM188.532 152.64C187.797 154.018 186.856 155.276 185.743 156.371C183.446 158.809 180.668 160.744 177.584 162.052C175.296 162.983 172.862 163.508 170.394 163.603C170.282 163.416 170.18 163.224 170.055 163.042C168.404 160.848 166.325 159.011 163.945 157.642C161.678 156.267 159.298 155.088 156.831 154.119C160.402 152.246 163.685 149.868 166.577 147.058C168.195 145.453 169.562 143.614 170.632 141.603C171.407 141.562 172.174 141.54 172.929 141.54C176.092 141.487 179.245 141.929 182.272 142.851C184.21 143.425 185.999 144.416 187.513 145.755C188.075 146.279 188.536 146.901 188.873 147.591C189.177 148.229 189.334 148.927 189.333 149.633C189.306 150.684 189.032 151.714 188.532 152.64L188.532 152.64ZM184.72 124.614C187.31 125.527 189.47 127.369 190.78 129.783C191.805 131.73 192.373 133.886 192.439 136.086C192.467 137.172 192.27 138.252 191.859 139.258C191.448 140.264 190.833 141.174 190.053 141.93C189.564 142.395 189.024 142.802 188.442 143.144C188.299 143.031 188.165 142.91 188.016 142.803C186.505 141.751 184.843 140.935 183.087 140.382C179.797 139.372 176.37 138.886 172.929 138.94C172.537 138.94 172.138 138.96 171.742 138.971C172.229 137.501 172.481 135.964 172.49 134.415C172.376 130.366 170.825 126.489 168.115 123.477C170.302 123.093 172.518 122.898 174.739 122.894C178.145 122.828 181.532 123.412 184.72 124.614L184.72 124.614ZM158.83 107.138C162.918 107.24 166.94 108.189 170.641 109.927C173.462 111.191 176.112 112.806 178.528 114.735C179.562 115.557 180.483 116.512 181.267 117.575C181.812 118.261 182.138 119.096 182.203 119.969C182.204 120.332 182.112 120.689 181.937 121.007C181.931 121.017 181.923 121.028 181.917 121.039C179.558 120.531 177.151 120.281 174.739 120.294C171.809 120.305 168.888 120.623 166.025 121.242C162.122 117.498 156.667 114.21 150.021 111.482C150.289 110.681 150.535 109.866 150.758 109.037C150.847 108.99 150.934 108.937 151.023 108.892C153.45 107.699 156.126 107.098 158.83 107.138ZM154.04 104.22C154.224 104.454 154.388 104.702 154.53 104.963C153.494 105.174 152.478 105.472 151.492 105.853C151.704 104.73 151.869 103.581 152.002 102.414C152.769 102.909 153.456 103.518 154.04 104.22V104.22ZM157.03 54.9965C156.956 54.9075 156.886 54.8146 156.822 54.7182C157.235 54.3872 157.739 54.1902 158.266 54.1539C158.424 54.1504 158.581 54.181 158.725 54.2437C158.87 54.3064 158.999 54.3996 159.105 54.517C159.542 55.0485 159.818 55.6936 159.902 56.3767C160.003 56.9824 160.225 57.5615 160.556 58.0792C160.738 58.3483 160.951 58.595 161.19 58.8144C161.342 58.9342 161.478 59.0726 161.595 59.2264C161.703 59.4505 161.753 59.6976 161.742 59.9458C161.751 60.1163 161.793 60.2835 161.866 60.4379C161.939 60.5922 162.041 60.7306 162.168 60.8452C162.294 60.9599 162.442 61.0485 162.603 61.106C162.764 61.1635 162.934 61.1888 163.105 61.1804C163.275 61.172 163.443 61.1301 163.597 61.0571C163.751 60.9841 163.89 60.8814 164.004 60.7549C164.119 60.6284 164.208 60.4805 164.265 60.3198C164.322 60.159 164.348 59.9885 164.339 59.818C164.329 59.2066 164.185 58.6049 163.918 58.0548C163.755 57.7462 163.544 57.4654 163.293 57.2228L163.289 57.2188C164.006 56.5755 164.641 55.8468 165.181 55.049C165.939 53.9667 166.572 52.8025 167.069 51.5783C167.165 51.3103 167.343 51.079 167.577 50.9167C167.759 50.7942 167.973 50.7281 168.193 50.7268C168.377 50.7193 168.558 50.7789 168.702 50.8946C168.765 50.9555 168.813 51.03 168.843 51.1125C168.873 51.195 168.883 51.2832 168.874 51.3703L168.872 51.4063C168.169 52.9749 167.369 54.4986 166.478 55.9688C166.389 56.1142 166.329 56.2759 166.302 56.4444C166.275 56.613 166.282 56.7853 166.321 56.9513C166.361 57.1174 166.433 57.274 166.533 57.4123C166.633 57.5505 166.76 57.6677 166.905 57.7571C167.05 57.8465 167.212 57.9064 167.381 57.9333C167.549 57.9603 167.722 57.9537 167.888 57.9141C168.054 57.8745 168.21 57.8025 168.349 57.7024C168.487 57.6022 168.604 57.4758 168.693 57.3303C169.752 55.5312 170.719 53.6791 171.588 51.7812C171.659 51.646 171.769 51.5353 171.904 51.4634C172.056 51.383 172.225 51.3416 172.397 51.343C172.629 51.3375 172.855 51.4163 173.033 51.5649C173.118 51.6481 173.184 51.7485 173.227 51.8593C173.27 51.9701 173.288 52.0887 173.282 52.2074C173.047 52.2609 172.823 52.3538 172.619 52.482C172.319 52.677 172.07 52.9399 171.891 53.2493C171.66 53.6734 171.508 54.1365 171.443 54.6155C171.339 55.2553 171.302 55.8717 171.21 56.3744C171.176 56.7223 171.055 57.056 170.858 57.3446C170.746 57.4733 170.66 57.6228 170.606 57.7846C170.551 57.9464 170.529 58.1173 170.541 58.2877C170.552 58.458 170.597 58.6244 170.673 58.7773C170.749 58.9302 170.854 59.0667 170.983 59.179C171.112 59.2912 171.261 59.377 171.423 59.4315C171.585 59.4859 171.756 59.508 171.926 59.4964C172.096 59.4848 172.263 59.4398 172.416 59.3639C172.569 59.288 172.705 59.1827 172.817 59.054H172.817C173.278 58.4923 173.587 57.8223 173.716 57.1076C173.816 56.6363 173.866 56.1899 173.911 55.7962C173.941 55.4464 173.993 55.0989 174.067 54.7555C174.479 54.8003 174.862 54.992 175.146 55.2957C175.533 55.7465 175.734 56.3282 175.708 56.9222C175.651 58.0249 175.272 59.0867 174.62 59.9773C173.87 61.0805 172.926 62.0377 171.833 62.8018C170.464 63.7864 168.911 64.4842 167.266 64.8534C167.099 64.8903 166.941 64.9597 166.801 65.0576C166.661 65.1555 166.542 65.28 166.45 65.424C166.359 65.5679 166.296 65.7286 166.266 65.8967C166.237 66.0648 166.241 66.2372 166.277 66.4038C166.323 66.5991 166.414 66.7807 166.543 66.9342C166.672 67.0876 166.836 67.2084 167.02 67.2869C166.695 67.5839 166.313 67.8121 165.898 67.9582C165.211 68.2139 164.484 68.344 163.751 68.3424C163.259 68.3445 162.769 68.2818 162.293 68.1562C161.377 67.9611 160.522 67.5459 159.802 66.9465C159.663 66.8378 159.549 66.7013 159.466 66.5457C159.384 66.3901 159.334 66.2189 159.322 66.0431C159.324 65.9051 159.361 65.7698 159.429 65.6494C159.726 65.7487 160.049 65.7359 160.338 65.6133C160.627 65.4907 160.861 65.2669 160.996 64.9839C161.142 64.6716 161.158 64.3141 161.04 63.99C160.923 63.6658 160.682 63.4016 160.369 63.2553H160.369C159.619 62.9558 158.965 62.4565 158.478 61.8116C158.219 61.4246 158.086 60.9671 158.097 60.5017C158.098 60.3346 158.111 60.1678 158.135 60.0025C158.161 59.8165 158.197 59.6287 158.241 59.4421C158.327 59.083 158.437 58.7423 158.527 58.3853L158.528 58.3833C158.572 58.2061 158.594 58.0243 158.594 57.8417C158.579 57.2973 158.406 56.769 158.096 56.3213C157.766 55.8597 157.41 55.4174 157.03 54.9965V54.9965ZM156.419 80.3007C157.047 79.7548 157.626 79.2094 158.165 78.6727C160.177 80.0863 162.009 81.7395 163.62 83.596C164.472 84.581 165.189 85.6746 165.753 86.8482C166.199 87.7561 166.443 88.7496 166.469 89.7606C166.474 90.6709 166.209 91.5623 165.707 92.3217C165.308 92.9675 164.742 93.4935 164.069 93.8439C163.379 94.1765 162.619 94.3402 161.853 94.3215C159.665 94.1797 157.539 93.5396 155.637 92.45C154.381 91.7942 153.165 91.0639 151.996 90.2628C151.791 88.2344 151.491 86.203 151.097 84.1685C151.273 84.0664 151.449 83.9663 151.624 83.8594C153.316 82.8046 154.92 81.6145 156.419 80.3007L156.419 80.3007ZM152.316 75.1112C151.398 75.9268 150.435 76.6903 149.431 77.3981C149.419 77.3587 149.409 77.3189 149.397 77.2794C149.597 76.458 149.696 75.6153 149.692 74.77C149.692 74.4628 149.675 74.1537 149.655 73.844C150.558 74.2409 151.445 74.6633 152.316 75.1112ZM64.8687 29.6566C65.3355 29.1906 65.792 28.738 66.2319 28.315C67.5071 27.1248 68.8575 26.018 70.2749 25.0014C70.5545 24.8088 70.8441 24.6152 71.1436 24.4205C73.0842 23.3198 75.2865 22.7649 77.517 22.8147C77.9569 22.8147 78.4164 22.8318 78.8956 22.8661C81.0018 22.9821 83.0813 23.3933 85.0731 24.0875C86.1803 24.4993 87.2578 24.9869 88.2978 25.547C89.9371 26.4768 91.6553 27.2598 93.4326 27.8868C96.0353 28.6842 98.7492 29.0584 101.471 28.9949C103.964 29.0395 106.452 28.7496 108.869 28.1328C111.226 27.4286 113.47 26.3897 115.533 25.0478C117.434 23.8425 119.57 23.0531 121.798 22.7314C122.558 22.6193 123.325 22.5614 124.094 22.558C125.472 22.5447 126.84 22.7871 128.129 23.273C129.962 24.256 131.729 25.3566 133.42 26.5678C134.38 27.3267 135.394 28.1654 136.522 29.0798L136.533 29.086C140.267 32.7984 143.222 37.2197 145.223 42.09C147.225 46.9604 148.232 52.1817 148.187 57.447C148.295 62.3179 147.173 67.1374 144.926 71.4601C141.743 77.3359 136.314 81.6825 128.86 84.6008C121.413 87.5136 111.967 88.9504 100.984 88.9487C86.3366 88.9545 74.437 86.3878 66.3377 81.2027C62.4533 78.8084 59.2521 75.4528 57.0433 71.4601C54.7959 67.1373 53.6744 62.3178 53.7823 57.447C53.6956 47.0891 57.6763 37.1107 64.8687 29.6566ZM51.8333 74.0622C51.7683 74.5409 51.7326 75.0231 51.7266 75.5061C51.7218 76.2619 51.8239 77.0146 52.0297 77.7418C51.992 77.8757 51.9537 78.0095 51.9168 78.1435C50.7477 77.4021 49.6313 76.5808 48.5755 75.6854C49.6324 75.109 50.7184 74.568 51.8333 74.0622ZM34.9893 67.7015C34.783 67.5904 34.594 67.45 34.4281 67.2847C34.6113 67.2057 34.7735 67.0849 34.9016 66.9319C35.0297 66.7789 35.1201 66.598 35.1656 66.4038C35.2025 66.2371 35.2062 66.0648 35.1766 65.8966C35.1469 65.7285 35.0844 65.5679 34.9926 65.4239C34.9009 65.28 34.7816 65.1555 34.6418 65.0576C34.5019 64.9597 34.3441 64.8903 34.1774 64.8534C32.5326 64.4843 30.9792 63.7865 29.6107 62.8021C28.5174 62.038 27.5727 61.0807 26.8233 59.9771C26.1709 59.0868 25.7928 58.0252 25.7356 56.9228C25.7092 56.3287 25.9103 55.7468 26.2981 55.2958C26.5804 54.993 26.9619 54.8014 27.3734 54.7559C27.425 54.9658 27.4625 55.1789 27.4859 55.3938C27.5459 55.8633 27.5909 56.4548 27.7235 57.0876C27.8509 57.8094 28.1615 58.4864 28.6255 59.0536C28.7377 59.1823 28.8742 59.2876 29.0271 59.3636C29.18 59.4395 29.3463 59.4846 29.5166 59.4963C29.687 59.5079 29.8579 59.4859 30.0197 59.4315C30.1815 59.3771 30.3311 59.2913 30.4597 59.1791C30.5884 59.067 30.6937 58.9305 30.7697 58.7776C30.8456 58.6247 30.8907 58.4584 30.9024 58.288C30.914 58.1177 30.892 57.9468 30.8376 57.785C30.7832 57.6231 30.6975 57.4736 30.5853 57.3449H30.5852C30.4187 57.1128 30.3105 56.844 30.2698 56.5613C30.2043 56.2587 30.1599 55.8929 30.1163 55.5035C30.0744 54.8541 29.9433 54.2136 29.7269 53.5999C29.567 53.1961 29.3021 52.8425 28.9595 52.5757C28.7216 52.3989 28.4497 52.2734 28.1609 52.207C28.1543 52.0884 28.173 51.9698 28.216 51.859C28.2589 51.7483 28.325 51.648 28.4098 51.5648C28.5877 51.4163 28.8136 51.3374 29.0453 51.3429C29.2172 51.3415 29.3868 51.3829 29.5387 51.4634C29.6735 51.5354 29.7836 51.6462 29.8549 51.7814C30.7245 53.6792 31.6908 55.5313 32.7499 57.3303C32.8392 57.4757 32.9564 57.6021 33.0947 57.7023C33.2329 57.8024 33.3895 57.8744 33.5556 57.914C33.7217 57.9536 33.8939 57.9602 34.0625 57.9332C34.2311 57.9063 34.3927 57.8464 34.5381 57.757C34.6836 57.6676 34.81 57.5505 34.9101 57.4122C35.0103 57.274 35.0822 57.1173 35.1219 56.9513C35.1615 56.7852 35.168 56.613 35.1411 56.4444C35.1142 56.2758 35.0543 56.1142 34.9649 55.9688C34.0739 54.4986 33.2744 52.9748 32.5712 51.4061L32.5693 51.3703C32.5597 51.2831 32.5702 51.1949 32.6 51.1125C32.6298 51.03 32.678 50.9554 32.7411 50.8945C32.8848 50.7789 33.0656 50.7193 33.2499 50.7268C33.4696 50.7282 33.6839 50.7943 33.8663 50.9168C34.1002 51.0792 34.2776 51.3105 34.3739 51.5784C34.871 52.8025 35.5044 53.9666 36.262 55.049C36.8041 55.85 37.4428 56.5813 38.1637 57.2261C37.9118 57.4735 37.6127 57.7482 37.2828 58.1004C36.9681 58.4353 36.7044 58.8147 36.5001 59.2263C36.2616 59.7246 36.1267 60.2661 36.1038 60.818C36.0868 61.1624 36.2074 61.4994 36.4389 61.7549C36.6704 62.0104 36.9939 62.1634 37.3383 62.1804C37.6827 62.1973 38.0197 62.0768 38.2752 61.8453C38.5307 61.6138 38.6838 61.2902 38.7007 60.9459C38.7057 60.6803 38.7852 60.4215 38.9302 60.199C39.2898 59.7455 39.69 59.3256 40.1258 58.9446C40.443 58.6285 40.7225 58.2768 40.9589 57.8964C41.2427 57.429 41.44 56.9142 41.5412 56.3768C41.6247 55.6936 41.9013 55.0485 42.3386 54.517C42.4439 54.3996 42.5733 54.3064 42.718 54.2437C42.8627 54.181 43.0192 54.1504 43.1769 54.1539C43.7042 54.1902 44.2077 54.3869 44.62 54.7177C44.4757 54.9373 44.1523 55.2988 43.795 55.7202C43.5695 55.9836 43.3698 56.2679 43.1987 56.5694C42.9765 56.9572 42.8561 57.3949 42.8486 57.8417C42.8486 58.025 42.8711 58.2075 42.9156 58.3852C43.0063 58.7424 43.1164 59.0833 43.2018 59.4423C43.2467 59.6289 43.2827 59.8166 43.3083 60.0025C43.3323 60.1678 43.345 60.3346 43.3462 60.5017C43.3571 60.9672 43.224 61.4247 42.9653 61.8117C42.4787 62.4566 41.8249 62.9559 41.0746 63.2554C40.92 63.3278 40.7812 63.4299 40.666 63.556C40.5509 63.682 40.4617 63.8295 40.4036 63.99C40.3454 64.1506 40.3195 64.3209 40.3272 64.4915C40.3349 64.6621 40.3761 64.8294 40.4485 64.984C40.5835 65.2668 40.8172 65.4905 41.1055 65.6131C41.3939 65.7357 41.7172 65.7487 42.0145 65.6497C42.0818 65.7702 42.1185 65.9055 42.1213 66.0435C42.1088 66.2193 42.0596 66.3904 41.9768 66.546C41.8941 66.7016 41.7797 66.8381 41.641 66.9467C40.9212 67.546 40.0665 67.9611 39.1504 68.1561C38.6742 68.2818 38.1836 68.3444 37.6911 68.3424C36.7518 68.3516 35.8244 68.1316 34.9893 67.7015H34.9893ZM46.3208 92.45C44.4184 93.5395 42.2921 94.1797 40.1044 94.3215C39.3384 94.3402 38.579 94.1766 37.8887 93.844C37.2154 93.4935 36.6495 92.9673 36.2509 92.3214C35.7486 91.5622 35.4833 90.6709 35.4887 89.7606C35.5146 88.7496 35.7586 87.7562 36.2041 86.8482C37.3308 84.654 38.879 82.7034 40.7601 81.108C41.3978 80.5318 42.094 79.9657 42.8191 79.4078C44.4618 80.9432 46.2362 82.3315 48.1217 83.5567C48.8638 84.0296 49.6314 84.4612 50.4211 84.8494C50.1024 86.7122 49.8612 88.5755 49.6977 90.4394C48.6105 91.1722 47.4831 91.8434 46.3208 92.45ZM30.9654 111.456C31.6349 110.345 32.5426 109.396 33.623 108.678C36.1167 106.98 38.8762 105.709 41.7879 104.919C44.4434 104.151 47.1712 103.659 49.9277 103.453C50.2824 106.143 50.8751 108.797 51.6989 111.383C51.2638 111.56 50.8199 111.733 50.395 111.914C48.3656 112.783 46.4679 113.71 44.6828 114.681C40.2209 113.2 35.5619 112.397 30.8615 112.299C30.7968 112.299 30.7341 112.305 30.6695 112.305C30.7247 112.009 30.8244 111.722 30.9654 111.456ZM12.6732 123.857C13.8449 122.217 15.2491 120.756 16.8415 119.521C20.8221 116.372 25.7889 114.735 30.8615 114.899C34.4887 114.959 38.0926 115.493 41.5813 116.487C39.1571 117.992 36.9097 119.765 34.8813 121.773C32.7107 123.879 31.0177 126.428 29.9168 129.245C28.6792 129.188 27.4185 129.152 26.1486 129.152C21.9847 129.057 17.8291 129.567 13.8114 130.664C13.6213 130.56 13.4417 130.453 13.2777 130.343C12.6872 129.977 12.1876 129.481 11.8165 128.893C11.5294 128.413 11.3804 127.863 11.386 127.304C11.4683 126.054 11.9158 124.855 12.6732 123.857ZM8.99418 136.468C10.3552 134.771 12.7817 133.541 15.8433 132.79C19.2259 132.042 22.6847 131.693 26.1487 131.752C27.1802 131.751 28.2108 131.775 29.2285 131.815C29.0635 132.672 28.9764 133.542 28.9684 134.415C28.9672 139.003 31.1546 143.297 34.8814 147.058C34.9907 147.168 35.1101 147.275 35.2221 147.385C29.5159 148.26 24.0276 150.21 19.0488 153.133C17.3285 152.778 15.6664 152.184 14.1112 151.367C12.6968 150.658 11.4403 149.67 10.4172 148.463C9.39411 147.256 8.62544 145.855 8.15736 144.343C7.78201 143.182 7.58068 141.972 7.5599 140.751C7.51393 139.199 8.02238 137.68 8.99416 136.468H8.99418Z"/><path id="Vector_9" d="M80.5353 44.6943C85.6711 44.6675 89.4348 33.8662 83.1555 33.8662C76.8049 33.8662 75.8918 44.7187 80.5353 44.6943Z"/><path id="Vector_10" d="M121.797 44.6871C127.16 44.4264 126.142 34.069 120.158 33.8746C114.109 33.6783 117.461 44.8976 121.797 44.6871Z"/><path id="Vector_11" d="M97.3307 52.6412C97.8247 53.1792 98.4223 53.612 99.0876 53.9136C99.7528 54.2152 100.472 54.3795 101.202 54.3965C102.714 54.3496 104.147 53.7147 105.197 52.6269C106.483 51.3106 107.456 49.7211 108.043 47.9768C108.163 47.6532 108.148 47.2956 108.004 46.9827C107.859 46.6697 107.596 46.427 107.272 46.3079C107.192 46.2869 107.109 46.2741 107.026 46.2698C106.853 46.1873 106.665 46.1445 106.474 46.1445H106.474L95.974 46.2695C95.7717 46.2719 95.5728 46.3215 95.393 46.4144C95.2133 46.5072 95.0577 46.6407 94.9386 46.8042C94.8195 46.9677 94.7402 47.1568 94.707 47.3564C94.6739 47.5559 94.6877 47.7605 94.7475 47.9537C95.2251 49.6988 96.1104 51.3054 97.3307 52.6412Z"/></g></g></svg>