<svg width="200" height="200" viewBox="0 0 200 200" xmlns="http://www.w3.org/2000/svg"><g id="type=search, mode=dark"><path id="Vector" d="M100.973 42.0408C93.0103 42.0409 85.3701 45.1861 79.7153 50.7919C74.0605 56.3976 70.8488 64.0101 70.7793 71.9723C70.8136 72.0567 70.8133 72.1512 70.7783 72.2354C70.7783 78.2073 72.5491 84.0452 75.867 89.0107C79.1848 93.9763 83.9006 97.8464 89.418 100.132C94.9354 102.417 101.007 103.015 106.864 101.85C112.721 100.685 118.101 97.8093 122.324 93.5864C126.547 89.3636 129.423 83.9834 130.588 78.1262C131.753 72.2689 131.155 66.1977 128.869 60.6804C126.584 55.163 122.714 50.4472 117.748 47.1294C112.783 43.8116 106.945 42.0407 100.973 42.0408H100.973ZM120.485 91.7476C115.441 96.7937 108.637 99.6888 101.503 99.8248C94.3686 99.9608 87.4593 97.3272 82.2258 92.4771L85.1148 89.5881C88.6179 92.7945 93.0125 94.8609 97.7163 95.5135C97.9415 96.1996 98.3776 96.797 98.9624 97.2206C99.5472 97.6442 100.251 97.8722 100.973 97.8722C101.695 97.8722 102.399 97.6442 102.983 97.2206C103.568 96.797 104.004 96.1996 104.229 95.5135C107.512 95.0549 110.661 93.9072 113.469 92.1457C116.277 90.3842 118.681 88.0487 120.522 85.2925C122.364 82.5363 123.602 79.4218 124.155 76.1535C124.707 72.8851 124.563 69.5368 123.73 66.3283C122.897 63.1198 121.395 60.1237 119.323 57.5367C117.25 54.9498 114.654 52.8304 111.704 51.3177C108.755 49.805 105.519 48.9333 102.209 48.7597C98.8984 48.5861 95.5889 49.1147 92.4973 50.3106C92.0125 49.877 91.4145 49.59 90.773 49.483C90.1314 49.376 89.4727 49.4534 88.8734 49.7062C88.2741 49.959 87.759 50.3768 87.3879 50.911C87.0168 51.4451 86.805 52.0737 86.7772 52.7235C86.7759 52.7522 86.7892 52.777 86.7898 52.8055C86.788 52.8338 86.7734 52.858 86.7734 52.8868C86.7734 53.8017 87.1369 54.6792 87.7838 55.3262C88.4308 55.9732 89.3083 56.3367 90.2233 56.3367C91.1383 56.3367 92.0157 55.9732 92.6627 55.3262C93.3097 54.6792 93.6732 53.8017 93.6732 52.8868C93.6731 52.8075 93.655 52.7334 93.6498 52.6556C96.3944 51.6234 99.3255 51.1804 102.253 51.3553C105.18 51.5303 108.037 52.3192 110.639 53.6709C113.241 55.0226 115.53 56.9067 117.356 59.2009C119.183 61.495 120.506 64.1478 121.239 66.9868C121.973 69.8258 122.101 72.7874 121.615 75.6792C121.13 78.5709 120.041 81.3281 118.419 83.7714C116.798 86.2147 114.681 88.2895 112.205 89.8609C109.729 91.4322 106.951 92.465 104.05 92.8921C103.767 92.3162 103.329 91.8311 102.784 91.4917C102.24 91.1524 101.611 90.9725 100.97 90.9724C100.328 90.9723 99.6996 91.152 99.1551 91.4912C98.6106 91.8303 98.1721 92.3153 97.8893 92.8911C93.8196 92.2893 90.02 90.4936 86.9713 87.7314L89.8607 84.8422C92.0736 86.7993 94.7636 88.1384 97.6592 88.7242C100.555 89.31 103.554 89.1218 106.353 88.1787C109.153 87.2356 111.655 85.5709 113.606 83.3525C115.557 81.1341 116.888 78.4404 117.466 75.5432C118.19 75.3444 118.829 74.9133 119.285 74.3161C119.741 73.7188 119.988 72.9885 119.988 72.2373C119.988 71.4861 119.742 70.7555 119.287 70.1579C118.832 69.5603 118.193 69.1286 117.469 68.9292C117.009 66.641 116.079 64.4733 114.738 62.5636C113.396 60.654 111.672 59.0441 109.675 57.8362C109.529 57.7477 109.367 57.689 109.198 57.6631C109.029 57.6373 108.857 57.645 108.691 57.6858C108.526 57.7265 108.369 57.7995 108.232 57.9006C108.094 58.0017 107.978 58.1289 107.89 58.2749C107.801 58.4209 107.742 58.583 107.717 58.7517C107.691 58.9205 107.698 59.0927 107.739 59.2585C107.78 59.4243 107.853 59.5804 107.954 59.718C108.055 59.8555 108.182 59.9719 108.328 60.0603L108.328 60.0602C109.985 61.0632 111.421 62.3939 112.546 63.9706C113.671 65.5474 114.463 67.3372 114.873 69.2305C114.358 69.5126 113.924 69.9221 113.612 70.4197C113.3 70.9174 113.121 71.4866 113.092 72.0731C113.091 72.1017 113.104 72.1262 113.105 72.1544C113.103 72.1826 113.088 72.2066 113.088 72.2353C113.09 72.8496 113.256 73.4522 113.57 73.9804C113.883 74.5086 114.333 74.943 114.871 75.2385C114.353 77.6492 113.216 79.8835 111.573 81.7216C109.929 83.5597 107.835 84.9383 105.497 85.7217C103.159 86.5052 100.658 86.6665 98.2385 86.1898C95.8192 85.7132 93.5657 84.6149 91.6997 83.0032L94.5943 80.1085C95.8545 81.1296 97.3414 81.8333 98.9301 82.1605C100.519 82.4877 102.163 82.4288 103.724 81.9888C105.285 81.5488 106.718 80.7405 107.902 79.6318C109.086 78.5232 109.986 77.1466 110.528 75.6177C111.069 74.0888 111.236 72.4522 111.014 70.8455C110.791 69.2388 110.187 67.7089 109.251 66.3844C108.314 65.0599 107.074 63.9794 105.634 63.2338C104.193 62.4881 102.595 62.0991 100.973 62.0994C100.628 62.0994 100.297 62.2363 100.054 62.4801C99.8097 62.7239 99.6727 63.0546 99.6727 63.3994C99.6727 63.7442 99.8097 64.0749 100.054 64.3187C100.297 64.5625 100.628 64.6995 100.973 64.6995V64.6993C102.168 64.6971 103.347 64.9793 104.412 65.5227C105.477 66.066 106.397 66.8549 107.097 67.8242C107.797 68.7935 108.256 69.9154 108.436 71.0972C108.617 72.279 108.514 73.4867 108.135 74.6208C107.757 75.7548 107.114 76.7825 106.26 77.619C105.406 78.4556 104.365 79.0769 103.224 79.4317C102.082 79.7866 100.872 79.8647 99.6945 79.6597C98.5168 79.4547 97.4047 78.9724 96.4501 78.2527L99.4088 75.2941C99.8914 75.5476 100.428 75.6818 100.973 75.6857C101.648 75.6857 102.309 75.4874 102.872 75.1155C103.436 74.7436 103.878 74.2144 104.144 73.5935C104.41 72.9726 104.488 72.2874 104.368 71.6227C104.248 70.9581 103.935 70.3433 103.469 69.8546C103.003 69.3658 102.404 69.0247 101.745 68.8735C101.087 68.7222 100.399 68.7676 99.7662 69.0038C99.1334 69.24 98.5839 69.6568 98.1859 70.2024C97.7878 70.748 97.5586 71.3985 97.5268 72.0731C97.5254 72.1017 97.5388 72.1262 97.5393 72.1544C97.5374 72.1826 97.5229 72.2067 97.5229 72.2353C97.5277 72.6026 97.5916 72.9668 97.7122 73.3137L80.403 90.6228C75.8711 85.5714 73.3689 79.0217 73.3783 72.2354C73.362 72.1973 73.3537 72.1562 73.3539 72.1148C73.3541 72.0734 73.3627 72.0325 73.3793 71.9945L73.3792 71.9944C73.4187 67.4667 74.5716 63.0183 76.7364 59.0415C78.9012 55.0647 82.0113 51.6817 85.7925 49.1909C89.5736 46.7 93.9096 45.1778 98.4179 44.7586C102.926 44.3393 107.469 45.0359 111.644 46.7869C115.82 48.5378 119.5 51.2894 122.361 54.7988C125.222 58.3083 127.176 62.4678 128.049 66.9106C128.923 71.3533 128.69 75.9428 127.371 80.2742C126.052 84.6056 123.687 88.5459 120.485 91.7476H120.485Z"/><path id="Vector_2" d="M150.053 72.2357V72.2297C150.144 67.4531 149.418 62.696 147.907 58.1637C146.748 54.834 144.962 51.7567 142.647 49.0975C139.066 45.0049 133.977 41.6937 127.03 39.4252C120.085 37.1565 111.275 35.9083 100.131 35.9026V35.9025L100.117 35.9023L100.1 35.9021V35.9022L100.07 35.902C90.1542 35.9025 82.0875 36.8885 75.5364 38.701C65.7168 41.4102 59.2732 46.0363 55.3721 51.9222C51.4677 57.8045 50.132 64.8197 50.1304 72.2213V72.2111L50.1304 72.2335C50.0408 77.0132 50.7753 81.7727 52.3016 86.3031C53.4732 89.6337 55.2695 92.7103 57.5941 95.3679C61.1892 99.4591 66.2869 102.769 73.2289 105.038C80.1744 107.309 88.9725 108.558 100.084 108.561L100.104 108.56V108.56H100.117C109.989 108.56 118.034 107.574 124.577 105.761C134.383 103.052 140.842 98.4272 144.764 92.5431C148.69 86.6626 150.052 79.6463 150.053 72.2424L150.053 72.2356L150.053 72.2357ZM145.433 85.4342C144.372 88.456 142.744 91.2475 140.636 93.6586C137.388 97.3508 132.745 100.413 126.152 102.572C119.562 104.728 111.029 105.961 100.117 105.96L100.084 105.961V105.961C90.3804 105.959 82.5565 104.984 76.3077 103.251C66.9273 100.643 61.1238 96.3857 57.5798 91.0913C54.039 85.7933 52.7306 79.3346 52.7304 72.2335V72.222C52.6414 67.7415 53.3169 63.2786 54.728 59.0252C55.7776 56.0051 57.3954 53.2138 59.4941 50.8018C62.7275 47.1109 67.3588 44.0496 73.958 41.8908C80.5536 39.7343 89.1082 38.5011 100.07 38.502V38.5017L100.099 38.5021C109.847 38.5037 117.692 39.4792 123.949 41.2121C133.341 43.8209 139.124 48.0766 142.647 53.3693C146.167 58.6656 147.453 65.1257 147.453 72.2298V72.2358L147.453 72.2419C147.541 76.7226 146.858 81.1851 145.433 85.4342Z"/><path id="Vector_3" d="M169.28 51.3314C170.243 41.1643 171.815 22.8254 172.157 17.6312C172.173 17.3923 172.18 17.1603 172.18 16.9351C172.193 16.1308 172.071 15.33 171.822 14.5653C171.504 13.5892 170.877 12.743 170.036 12.1544C169.29 11.656 168.431 11.3512 167.537 11.2676C167.306 11.2417 167.074 11.2287 166.842 11.2286C165.567 11.2054 164.328 11.6511 163.359 12.4811C162.234 13.5478 161.564 15.0075 161.488 16.5563C161.065 20.9259 159.666 37.8684 158.771 48.7896C158.592 48.0914 158.407 47.3961 158.202 46.711C155.315 37.0348 149.756 28.6741 140.398 22.8328C131.05 16.9896 118.007 13.6515 100.137 13.6427L100.132 13.6426L100.105 13.6424V13.6425L100.075 13.6422C88.15 13.6427 78.3824 15.1261 70.4173 17.8468C58.4705 21.9171 50.5893 28.8367 45.807 37.5116C43.7759 41.2507 42.2488 45.2422 41.2654 49.3821C40.3785 38.4937 38.9416 20.9837 38.5123 16.5304C38.4371 14.981 37.7668 13.5203 36.6411 12.453C35.6725 11.6224 34.4327 11.1764 33.157 11.1996C32.9258 11.1997 32.6947 11.2126 32.4649 11.2383C31.2399 11.3385 30.0921 11.8769 29.2319 12.7548C28.7575 13.2672 28.3982 13.8751 28.178 14.5378C27.9283 15.3031 27.8071 16.1045 27.8192 16.9095C27.8192 17.1331 27.8269 17.3634 27.8423 17.6005C28.1824 22.7946 29.7467 41.1344 30.7052 51.3026C30.8402 53.8227 31.4296 56.2975 32.445 58.6079C32.8048 59.3603 33.292 60.0449 33.885 60.6314C33.2672 61.1022 32.7374 61.6783 32.3199 62.3333C31.787 63.2994 31.4359 64.3552 31.2839 65.448C31.0501 66.8747 30.9386 68.3188 30.9506 69.7645C30.9539 71.2293 31.0415 72.6927 31.2131 74.1474C31.4831 76.6102 32.0354 79.0339 32.8592 81.3706C33.1755 82.26 33.5652 83.1216 34.0244 83.9463C34.3794 84.6109 34.8448 85.2102 35.4009 85.7186C36.6475 86.6642 38.0964 87.3077 39.6338 87.5985C40.4041 87.7737 41.1856 87.8959 41.9726 87.9641C41.9888 88.0166 42.0016 88.0711 42.018 88.1234C44.8059 97.7517 51.2207 105.923 59.9121 110.917C67.9238 115.599 78.6225 118.493 92.6951 119.235V120.419C89.4635 120.635 86.1036 121 83.2288 121.428C81.6076 121.67 80.1422 121.93 78.9309 122.198C78.3248 122.332 77.7824 122.467 77.3084 122.607C76.8848 122.725 76.471 122.877 76.071 123.059C75.6168 123.29 75.217 123.615 74.8982 124.012C74.6367 124.336 74.4036 124.681 74.2017 125.044C74.0146 124.969 73.8407 124.879 73.6419 124.815C72.7123 124.522 71.7427 124.376 70.7681 124.382C67.684 124.54 64.6956 125.506 62.1028 127.183C57.6884 129.923 53.7938 133.423 50.5994 137.521C49.1515 139.322 47.889 141.264 46.831 143.317C45.9499 144.91 45.4358 146.679 45.3263 148.496C45.3263 148.616 45.3299 148.735 45.3372 148.853C45.3959 149.95 45.7006 151.019 46.2286 151.982C46.6571 152.743 47.2205 153.42 47.8911 153.979C47.1437 155.294 46.7599 156.785 46.7793 158.297C46.7929 161.912 48.5885 166.064 52.1271 170.536C53.7747 172.763 55.7608 174.718 58.0134 176.33C59.4369 177.338 61.1307 177.894 62.8746 177.926C63.202 177.925 63.5292 177.905 63.8542 177.865C63.9879 178.236 64.1705 178.587 64.3973 178.91C64.9511 179.696 65.7257 180.3 66.6229 180.645C67.1976 180.864 67.8047 180.986 68.4193 181.006C68.6083 185.223 68.9396 189.19 69.4422 192.685C69.4913 193.026 69.6739 193.334 69.95 193.541C70.226 193.747 70.5728 193.836 70.9141 193.787C71.2553 193.738 71.5631 193.555 71.7697 193.279C71.9764 193.003 72.0649 192.656 72.0158 192.315L72.0157 192.315C71.4238 187.907 71.0662 183.471 70.9443 179.026C75.009 180.194 79.1769 180.967 83.3901 181.335C88.822 181.863 94.2771 182.117 99.7346 182.095C106.762 182.113 113.785 181.739 120.771 180.974C123.348 180.673 125.607 180.32 127.497 179.926C127.595 179.916 127.691 179.912 127.79 179.901C127.896 179.881 128 179.847 128.098 179.8C128.183 179.781 128.281 179.763 128.365 179.744C129.262 179.546 130.147 179.293 131.014 178.987C131.054 178.972 131.084 178.955 131.123 178.94C131.123 179.032 131.126 179.127 131.126 179.219C131.154 183.607 130.95 187.993 130.514 192.359C130.476 192.702 130.577 193.045 130.793 193.314C131.009 193.583 131.322 193.755 131.665 193.792C132.008 193.83 132.352 193.729 132.62 193.513C132.889 193.298 133.061 192.984 133.098 192.641V192.641C133.545 188.181 133.754 183.701 133.726 179.219C133.678 169.571 133.06 159.935 131.875 150.36C132.521 150.716 133.153 151.039 133.766 151.32C135.354 152.073 137.087 152.474 138.844 152.496C140.572 152.522 142.266 152.027 143.709 151.077C143.75 151.086 143.793 151.093 143.835 151.098C144.588 151.073 145.335 150.952 146.057 150.74C147.681 150.294 149.116 149.335 150.149 148.007C151.144 146.657 151.666 145.017 151.636 143.341C151.558 141.002 150.853 138.727 149.596 136.754C148.323 134.751 146.664 133.021 144.716 131.665C142.765 130.264 140.678 129.064 138.486 128.084C138.148 127.715 137.811 127.346 137.465 126.992C135.697 125.147 133.726 123.51 131.587 122.112C129.891 120.913 127.899 120.201 125.827 120.055C125.531 120.057 125.236 120.083 124.945 120.132C124.907 119.73 124.87 119.298 124.833 118.797C124.816 118.56 124.808 118.325 124.808 118.093C124.81 117.686 124.836 117.28 124.884 116.876C130.986 115.526 136.809 113.131 142.095 109.797C148.771 105.488 153.93 99.1977 156.851 91.8081C157.375 90.5176 157.822 89.1839 158.235 87.8309C158.44 87.9468 158.673 88.0031 158.908 87.9936C159.713 87.9273 160.511 87.8041 161.298 87.625C162.835 87.3348 164.285 86.6917 165.532 85.7465C166.088 85.2384 166.554 84.6393 166.909 83.9749C167.624 82.661 168.189 81.2702 168.591 79.8293C169.127 77.9805 169.506 76.0897 169.724 74.1772C169.897 72.7178 169.985 71.2496 169.989 69.7801C170.001 68.3373 169.889 66.8962 169.656 65.4723C169.505 64.3815 169.154 63.3277 168.623 62.3632C168.065 61.5053 167.328 60.7779 166.463 60.231C166.438 60.2139 166.411 60.2012 166.385 60.1845C167.153 59.3251 167.738 58.3182 168.105 57.2251C168.741 55.3173 169.136 53.3373 169.28 51.3314ZM33.2937 51.0586C32.3381 40.924 30.7716 22.551 30.4369 17.4307C30.4249 17.2474 30.419 17.0737 30.4192 16.9094C30.4076 16.3913 30.4814 15.8748 30.6377 15.3806C30.7737 14.9295 31.0565 14.5368 31.4413 14.2649C31.8343 14.0115 32.2841 13.8595 32.7503 13.8225L32.7533 13.8222C32.8874 13.8071 33.0222 13.7996 33.1571 13.7996C33.7994 13.7766 34.4277 13.9915 34.9214 14.4031C35.5513 15.0353 35.9109 15.8876 35.9243 16.7799C36.2383 20.0353 37.1083 30.4838 37.8978 40.0997C38.2928 44.9093 38.6679 49.5141 38.9444 52.9165C39.1618 55.5923 39.3164 57.5015 39.3733 58.2058C38.5562 58.3984 37.753 58.646 36.9693 58.9469C36.7623 59.0271 36.5434 59.1333 36.3292 59.2268C35.6266 58.8224 35.0784 58.1958 34.7709 57.4457C33.9031 55.4213 33.4029 53.2585 33.2937 51.0586ZM39.9953 85.013C38.9438 84.8024 37.9504 84.3668 37.0831 83.7361C36.7606 83.4208 36.4902 83.0564 36.2819 82.6564C35.6679 81.5171 35.1835 80.3126 34.8378 79.0654C34.3442 77.3583 33.9956 75.6126 33.7956 73.8468C33.6357 72.4919 33.5539 71.1289 33.5506 69.7645C33.5389 68.4696 33.6373 67.176 33.8447 65.8977C33.9455 65.1317 34.1775 64.3888 34.5307 63.7017C34.8925 63.1649 35.3644 62.7113 35.9151 62.371C36.8363 61.7939 37.8317 61.3448 38.8739 61.0359C39.1096 60.9624 39.326 60.9013 39.5207 60.8494C39.3622 63.0511 39.2828 65.2866 39.2826 67.556L39.2825 67.5817C39.2102 73.5299 39.8627 79.4648 41.2256 85.2552C40.8696 85.2 40.4467 85.1227 39.9953 85.013ZM100.082 119.432H100.096L100.152 119.432C102.314 119.432 104.405 119.387 106.427 119.297C106.467 119.295 106.499 119.274 106.538 119.269L106.684 119.31C106.142 120.248 105.842 121.306 105.811 122.389C105.812 123.303 106.093 124.195 106.616 124.946C106.547 125.335 106.504 125.728 106.487 126.122C106.456 126.127 106.427 126.118 106.396 126.125C105.183 126.392 103.943 126.522 102.701 126.513C98.5797 126.487 94.5455 125.325 91.042 123.154C92.0597 123.07 93.0749 122.994 94.0663 122.94C94.3983 122.921 94.7106 122.777 94.9392 122.535C95.1677 122.294 95.295 121.974 95.295 121.642V119.345C96.8553 119.396 98.4416 119.431 100.082 119.432H100.082ZM103.009 114.261C103.593 114.183 104.182 114.148 104.771 114.155C109.32 114.283 113.807 115.243 118.01 116.987C118.33 117.115 118.688 117.11 119.005 116.973C119.321 116.837 119.571 116.58 119.698 116.26C119.803 115.991 119.814 115.695 119.729 115.419C119.644 115.143 119.468 114.904 119.23 114.74C119.44 114.214 119.685 113.702 119.964 113.208C120.242 112.694 120.596 112.224 121.014 111.814C121.157 111.678 121.32 111.564 121.497 111.475C121.609 111.42 121.732 111.39 121.857 111.387L122.003 111.402C122.357 111.502 122.681 111.69 122.944 111.947C123.065 112.056 123.174 112.179 123.269 112.312C123.24 112.427 123.196 112.591 123.139 112.781C122.569 114.496 122.255 116.286 122.208 118.093C122.208 118.385 122.218 118.683 122.24 118.986C122.291 119.679 122.344 120.276 122.396 120.796C120.009 121.604 117.904 123.079 116.329 125.046C114.995 126.725 114.134 128.73 113.835 130.853C112.603 130.51 111.43 129.984 110.355 129.293C109.896 128.998 109.542 128.566 109.345 128.058C109.158 127.561 109.067 127.033 109.076 126.502C109.077 126.134 109.111 125.766 109.176 125.404C109.2 125.266 109.225 125.157 109.242 125.088L109.26 125.014L109.264 125.002L109.263 125.002C109.326 124.785 109.332 124.555 109.279 124.335C109.227 124.115 109.118 123.912 108.963 123.747C108.784 123.57 108.643 123.358 108.549 123.124C108.454 122.891 108.407 122.641 108.411 122.389C108.455 121.669 108.68 120.972 109.065 120.363C109.211 120.111 109.373 119.869 109.548 119.637L109.7 119.444L109.737 119.4L109.743 119.393L109.743 119.393C109.89 119.227 109.993 119.026 110.04 118.809C110.088 118.592 110.08 118.367 110.015 118.154C109.951 117.942 109.834 117.749 109.674 117.595C109.514 117.441 109.318 117.33 109.103 117.273C109.102 117.273 108.742 117.178 108.177 117.024C107.33 116.793 106.026 116.431 104.824 116.07C104.224 115.89 103.648 115.709 103.176 115.548C102.955 115.474 102.755 115.402 102.589 115.338C102.605 115.052 102.679 114.772 102.808 114.515C102.851 114.428 102.909 114.349 102.98 114.282L103.009 114.261ZM68.2562 168.537C67.9614 168.511 67.6715 168.445 67.3946 168.34C66.8809 168.151 66.4521 167.784 66.1866 167.306C66.036 167.049 65.9549 166.757 65.9512 166.459C65.9448 166.122 66.0708 165.796 66.3021 165.552C66.4371 165.42 66.5978 165.318 66.7742 165.252C66.9506 165.186 67.1387 165.157 67.3268 165.167C67.6157 165.171 67.902 165.221 68.1755 165.314C68.225 165.323 68.275 165.328 68.3253 165.331C68.2953 166.401 68.2723 167.47 68.2562 168.537ZM66.1797 172.334C66.0291 172.077 65.948 171.785 65.9443 171.487C65.9454 171.186 66.0535 170.896 66.2494 170.667C66.3172 170.697 66.3871 170.738 66.4538 170.764C67.0229 170.982 67.6223 171.11 68.2308 171.145C68.2294 171.461 68.2256 171.779 68.2255 172.095C68.2256 172.587 68.2316 173.074 68.2349 173.564C67.9449 173.537 67.66 173.471 67.3877 173.368C66.874 173.18 66.4453 172.813 66.1797 172.334ZM68.7305 156.414L68.7155 156.401C66.9664 154.99 65.2772 153.628 63.569 152.48C65.0072 150.95 67.3167 148.436 69.6719 145.523C69.2861 148.968 68.9686 152.639 68.7305 156.414ZM71.26 134.724C71.1939 135.067 71.1307 135.428 71.0663 135.783C71.0495 135.754 71.0242 135.73 71.0083 135.701C70.7228 135.197 70.5712 134.628 70.5677 134.049L70.5686 133.974L70.5687 133.971C70.5655 133.515 70.6528 133.063 70.8257 132.641C70.9985 132.219 71.2534 131.835 71.5756 131.512C71.72 131.369 71.8774 131.24 72.0457 131.125C71.7715 132.235 71.5096 133.435 71.26 134.724ZM48.4697 146.044C49.3498 143.901 50.5146 141.887 51.9327 140.056C54.4946 136.624 57.5436 133.584 60.9834 131.033C64.3802 128.548 67.9368 126.964 70.7682 126.982C71.4732 126.976 72.1749 127.08 72.8479 127.291C72.9553 127.325 73.0515 127.362 73.1484 127.399C73.075 127.602 73.0028 127.813 72.9311 128.027C71.5441 128.266 70.2859 128.987 69.3782 130.063C68.4705 131.139 67.9717 132.5 67.9695 133.908L67.9677 134.049C67.9713 135.069 68.2351 136.072 68.7342 136.961C69.1848 137.764 69.794 138.466 70.5246 139.026C70.4549 139.481 70.3859 139.939 70.3189 140.408C70.1788 140.603 70.0376 140.798 69.8952 140.992C67.2295 144.53 64.3568 147.907 61.2921 151.106C61.1215 151.017 60.9508 150.929 60.7787 150.847C60.7758 150.81 60.7887 150.776 60.7825 150.738V150.738C60.5633 149.563 59.9613 148.493 59.0704 147.695C58.0178 146.736 56.6421 146.21 55.2184 146.221L54.9941 146.225C54.2009 146.241 53.4198 146.423 52.7016 146.76C51.9834 147.097 51.344 147.581 50.825 148.181C49.9505 149.203 49.4541 150.494 49.419 151.839C49.0558 151.517 48.7462 151.14 48.5019 150.72C48.1616 150.096 47.9669 149.402 47.9323 148.692L47.9264 148.496C47.9649 147.653 48.1487 146.824 48.4697 146.044ZM57.4524 149.76C56.9287 149.67 56.3986 149.623 55.8672 149.621C54.729 149.626 53.601 149.836 52.537 150.241C52.8011 149.802 53.1755 149.44 53.6231 149.192C54.0706 148.943 54.5755 148.816 55.0874 148.824L55.0948 148.823L55.2183 148.821C55.994 148.808 56.7453 149.092 57.3182 149.615C57.3679 149.66 57.4065 149.712 57.4524 149.76H57.4524ZM59.4399 174.156C57.421 172.694 55.6411 170.928 54.1639 168.92C50.834 164.737 49.3658 161.009 49.3794 158.297C49.3314 157.175 49.626 156.065 50.2239 155.115C50.8219 154.165 51.6949 153.419 52.7271 152.976C53.7022 152.487 54.7765 152.229 55.8673 152.221C57.7528 152.317 59.5755 152.93 61.1355 153.994C63.211 155.341 65.1974 156.821 67.0825 158.424C67.4862 158.75 67.8748 159.084 68.2445 159.425C68.3364 159.5 68.4385 159.562 68.5478 159.609C68.496 160.636 68.4508 161.667 68.4123 162.702C68.0563 162.618 67.6924 162.573 67.3268 162.567C66.7914 162.557 66.2596 162.656 65.7634 162.857C65.2672 163.059 64.8167 163.358 64.4391 163.738C63.7353 164.468 63.3448 165.445 63.3511 166.459C63.3549 167.206 63.5521 167.939 63.9236 168.586C64.0167 168.738 64.1185 168.883 64.2284 169.023C63.6578 169.718 63.3453 170.588 63.3442 171.487C63.348 172.234 63.5452 172.967 63.9167 173.615C64.0341 173.812 64.1658 174.001 64.3108 174.179C64.0777 174.505 63.8974 174.865 63.7768 175.246C63.4785 175.296 63.1769 175.322 62.8746 175.326C61.6372 175.295 60.4388 174.887 59.4399 174.156H59.4399ZM67.5627 178.221C67.1392 178.06 66.7743 177.775 66.516 177.403C66.3062 177.12 66.1902 176.779 66.1844 176.427C66.1876 176.191 66.2568 175.961 66.3843 175.763C66.4049 175.771 66.4264 175.784 66.4468 175.792C67.0298 176.015 67.6446 176.144 68.2682 176.174C68.2823 176.918 68.3001 177.656 68.3216 178.388C68.0622 178.368 67.8068 178.311 67.5627 178.221H67.5627ZM83.6575 178.748C83.5354 178.736 83.4178 178.721 83.2964 178.708C85.7435 177.864 88.0999 176.795 90.6796 175.901C93.9251 174.719 97.3511 174.109 100.805 174.099C105.325 174.176 109.784 175.153 113.923 176.972C115.386 177.542 116.819 178.122 118.283 178.626C112.852 179.166 106.327 179.496 99.7346 179.495C94.3664 179.517 89.0006 179.267 83.6575 178.748H83.6575ZM131.095 176.095C130.785 176.279 130.458 176.43 130.118 176.546C129.144 176.88 128.149 177.148 127.139 177.348C126.641 177.395 126.153 177.424 125.678 177.424C123.856 177.403 122.047 177.11 120.312 176.553C117.677 175.76 115.001 174.515 111.878 173.443C108.324 172.17 104.58 171.512 100.805 171.499C96.0065 171.57 91.2715 172.609 86.8836 174.553C85.0041 175.3 83.2706 176.027 81.5666 176.556C79.8974 177.109 78.1532 177.401 76.3952 177.423C75.7724 177.423 75.1503 177.382 74.5328 177.302C73.3147 177.028 72.1116 176.691 70.9284 176.292C70.9092 176.286 70.8898 176.29 70.8705 176.285C70.8432 174.903 70.8254 173.508 70.8255 172.095C70.8141 161.683 71.4953 151.282 72.8647 140.962C73.3447 137.211 74.0849 133.498 75.0798 129.851C75.3925 128.717 75.8108 127.614 76.3291 126.558C76.485 126.248 76.6727 125.955 76.8894 125.684C76.9732 125.572 77.0773 125.477 77.1965 125.403C77.471 125.282 77.7542 125.181 78.0437 125.101C80.2728 124.527 82.5374 124.102 84.8226 123.827C85.5939 123.722 86.3963 123.623 87.2131 123.529C87.2531 123.589 87.2983 123.646 87.3482 123.698V123.698C91.6985 127.201 97.1156 129.112 102.701 129.113C104.085 129.12 105.466 128.978 106.82 128.689C106.858 128.803 106.888 128.915 106.933 129.029C107.33 130.03 108.029 130.883 108.932 131.469C110.446 132.455 112.123 133.162 113.886 133.557C113.931 133.83 113.995 134.1 114.076 134.365C114.328 135.036 114.673 135.667 115.101 136.241C116.109 137.604 117.228 138.88 118.448 140.056C120.767 142.333 123.237 144.45 125.842 146.394C126.905 147.188 127.978 147.943 129.04 148.639C130.235 157.746 130.921 166.912 131.095 176.095L131.095 176.095ZM143.179 133.762C144.844 134.912 146.265 136.38 147.36 138.082C148.377 139.654 148.956 141.47 149.036 143.341C149.067 144.451 148.729 145.541 148.075 146.439C147.622 147.021 147.043 147.491 146.381 147.815C146.827 146.733 147.05 145.574 147.039 144.404C147.018 142.917 146.742 141.444 146.223 140.051C145.341 137.727 144.178 135.519 142.762 133.476C142.899 133.573 143.044 133.663 143.179 133.762L143.179 133.762ZM125.323 122.698C125.489 122.668 125.658 122.654 125.827 122.655C127.406 122.812 128.915 123.383 130.201 124.312C133.233 126.358 135.935 128.856 138.213 131.719C140.554 134.465 142.433 137.574 143.775 140.924C144.193 142.038 144.418 143.215 144.439 144.404C144.472 145.15 144.35 145.895 144.078 146.592C143.807 147.288 143.393 147.919 142.864 148.446C141.76 149.428 140.321 149.948 138.844 149.896C137.461 149.873 136.098 149.553 134.85 148.957C130.728 146.841 126.893 144.208 123.436 141.123C121.778 139.709 120.207 138.196 118.732 136.593C118.195 136.006 117.692 135.388 117.226 134.743C116.946 134.373 116.716 133.968 116.541 133.537C116.399 133.078 116.331 132.6 116.339 132.119C116.404 130.125 117.117 128.207 118.371 126.655C120.114 124.516 122.593 123.104 125.322 122.698L125.09 121.419L125.323 122.698ZM151.125 97.2234C148.413 101.387 144.851 104.93 140.673 107.62C135.993 110.576 130.861 112.745 125.48 114.041C125.551 113.795 125.62 113.561 125.681 113.35C125.735 113.161 125.783 112.987 125.823 112.81C125.872 112.611 125.899 112.407 125.902 112.202L125.89 111.994C125.831 111.593 125.677 111.212 125.442 110.881C125.115 110.409 124.712 109.995 124.248 109.656C123.733 109.264 123.138 108.989 122.505 108.851C122.291 108.809 122.074 108.788 121.857 108.787C121.336 108.79 120.823 108.91 120.356 109.139C119.632 109.514 119.003 110.049 118.516 110.703C117.877 111.551 117.35 112.478 116.946 113.46C116.897 113.574 116.859 113.671 116.817 113.776C112.947 112.396 108.88 111.647 104.771 111.555C104.049 111.547 103.326 111.593 102.61 111.692C102.124 111.769 101.669 111.98 101.296 112.301C100.832 112.712 100.482 113.235 100.277 113.82C100.087 114.332 99.9876 114.873 99.984 115.42C99.9793 115.762 100.031 116.104 100.138 116.429C100.189 116.569 100.253 116.703 100.331 116.83C100.27 116.83 100.212 116.832 100.152 116.832L100.081 116.832C88.4111 116.83 78.9378 115.494 71.3182 113.076C59.8851 109.438 52.6307 103.435 48.1199 95.6892C43.615 87.9404 41.8807 78.3443 41.8824 67.5816L41.8823 67.5705L41.8824 67.5598C41.7731 60.7667 42.6476 53.9936 44.4786 47.451C47.2453 38.243 52.3806 30.5363 61.1686 25.0304C69.96 19.5298 82.5044 16.2414 100.075 16.2422H100.09L100.104 16.2423C111.818 16.2445 121.306 17.7074 128.928 20.3127C140.363 24.2318 147.608 30.6558 152.107 38.7757C156.6 46.8978 158.306 56.798 158.304 67.5621V67.5845C158.303 79.0684 156.329 89.2175 151.125 97.2234L151.125 97.2234ZM167.095 65.9218C167.302 67.1973 167.4 68.488 167.389 69.78C167.385 71.1488 167.303 72.5162 167.142 73.8755C166.894 76.1362 166.388 78.3611 165.633 80.5066C165.367 81.2582 165.039 81.9865 164.652 82.684C164.443 83.0839 164.173 83.4482 163.85 83.7632C162.92 84.4308 161.853 84.8835 160.726 85.0888C160.167 85.2148 159.658 85.2939 159.295 85.3401C159.138 85.3601 159.015 85.3733 158.919 85.3826C160.308 79.5539 160.974 73.5766 160.904 67.5853V67.5622C160.904 65.2361 160.819 62.9457 160.65 60.6908C161.507 60.8732 162.348 61.1268 163.164 61.4489C163.837 61.7094 164.48 62.0404 165.084 62.4363C165.612 62.7707 166.064 63.2114 166.411 63.7303C166.763 64.4161 166.995 65.1575 167.095 65.9219L167.095 65.9218ZM165.22 57.3548C164.999 57.8067 164.703 58.2179 164.344 58.5713C164.196 58.7097 164.034 58.8318 163.86 58.9353C163.504 58.8006 163.158 58.6789 162.843 58.5802C162.238 58.3885 161.622 58.2315 160.999 58.1101C160.873 58.0935 160.744 58.0963 160.618 58.1183C160.683 57.3263 160.834 55.4702 161.04 52.9426C161.874 42.7402 163.602 21.6964 164.076 16.8069C164.089 15.915 164.449 15.0633 165.079 14.4315C165.572 14.0202 166.2 13.8055 166.842 13.8286C166.978 13.8286 167.114 13.8362 167.249 13.8514L167.251 13.8517C167.86 13.8853 168.436 14.1381 168.873 14.5633C169.095 14.8065 169.262 15.0948 169.362 15.4084C169.518 15.9018 169.592 16.4176 169.581 16.935C169.581 17.1002 169.575 17.2755 169.563 17.4609C169.226 22.5807 167.652 40.9527 166.692 51.0863C166.592 53.2486 166.093 55.3739 165.221 57.3549L165.22 57.3548Z"/><path id="Vector_4" d="M167.536 11.267L167.537 11.268H167.539L167.536 11.267Z"/></g></svg>