<svg xmlns="http://www.w3.org/2000/svg" width="200" height="200" fill="none"><path fill="#FFE632" d="M127.632 59.284a4.023 4.023 0 0 0-.737-1.452 4.999 4.999 0 0 0-2.97-1.689l3.412-2.28c.056-1.079.102-2.155.139-3.227a498.126 498.126 0 0 0-9.268-1.386c-.056 1.01-.118 2.025-.184 3.047 2.104.288 4.194.588 6.27.9a2170.62 2170.62 0 0 0-4.829 3.207c.334.603.666 1.206.996 1.81a3.555 3.555 0 0 1 1.902-.243 2.244 2.244 0 0 1 2.166 2.48 2.07 2.07 0 0 1-.854 1.591 2.073 2.073 0 0 1-1.777.32 2.644 2.644 0 0 1-2.504-2.346c-.965-.125-1.934-.248-2.905-.368a5.454 5.454 0 0 0 5.165 5.96c3.155.375 5.828-1.278 6.123-4.515a5.404 5.404 0 0 0 .006-.947 4.752 4.752 0 0 0-.151-.862ZM103.074 40.29c.857.074 1.713.152 2.569.234a1.902 1.902 0 0 1 2.161-1.595 1.547 1.547 0 0 1 1.48 1.09c.066.21.086.43.059.648-.094 1.142-.891 1.783-3.001 2.974-2.221 1.258-3.417 2.032-3.543 3.363-.052.55-.104 1.104-.154 1.662 2.938.273 5.87.587 8.797.943l.189-2.603a330.413 330.413 0 0 0-5.736-.644c.387-.262.919-.564 1.658-.972 2.913-1.628 4.463-2.401 4.624-4.82.139-2.23-1.385-3.889-4.007-4.143a4.468 4.468 0 0 0-5.096 3.863ZM65.21 50.157a135.516 135.516 0 0 0-.306 3.238c2.921-.277 5.895-.464 8.923-.562.089-1.107.19-2.2.303-3.277-.942.035-1.88.078-2.814.13a103.76 103.76 0 0 1 2.059-12.553 150.42 150.42 0 0 0-7.215 3.242c-.21 1.041-.404 2.1-.584 3.175a139.823 139.823 0 0 1 3.677-1.736c-.47 2.594-.854 5.29-1.15 8.085-.97.076-1.935.162-2.893.258ZM97.14 33.617a212.52 212.52 0 0 0-15.16-.123 84.582 84.582 0 0 0-1.121 4.464c3.44-.075 6.897-.056 10.37.057a234.422 234.422 0 0 0-8.674 5.889c.487.874.986 1.764 1.497 2.67a6.724 6.724 0 0 1 3.25-.746c2.362.068 3.823 1.389 3.585 3.7-.24 2.357-1.992 3.691-4.534 3.611-2.616-.074-3.921-1.418-4.212-3.435-1.623-.01-3.236.002-4.841.035-.31 5.611 3.316 8.843 8.77 8.993 5.437.18 9.938-3.069 10.45-8.562.417-4.442-2.06-7.105-6.365-7.524a342.998 342.998 0 0 1 6.153-4.098c.259-1.682.536-3.325.832-4.93ZM92.397 62.716a305.03 305.03 0 0 0-2.16-.105 161.217 161.217 0 0 0-6.997 10.024c.002.913.008 1.833.017 2.759 2.04.057 4.084.123 6.13.199a448.63 448.63 0 0 0-.004 3.117l2.618.095c.006-1.045.016-2.082.03-3.11.52.02 1.04.042 1.56.064.017-1.01.038-2.014.061-3.009l-1.574-.07c.066-3.414.172-6.735.32-9.964Zm-2.97 10.412a538.84 538.84 0 0 0-3.302-.116 150.57 150.57 0 0 1 3.407-5.113c-.049 1.716-.084 3.46-.106 5.229ZM107.135 61.194a7.292 7.292 0 0 0-3.276.363c.217-1.252.436-2.489.659-3.71 2.638.25 5.269.528 7.894.832.105-1.337.206-2.661.304-3.972-3.523-.426-7.069-.81-10.617-1.13a393.564 393.564 0 0 0-1.836 10.676c.904.411 1.805.824 2.705 1.24a4.065 4.065 0 0 1 3.264-.964 3.14 3.14 0 0 1-.432 6.261 3.204 3.204 0 0 1-3.119-3.059 454.156 454.156 0 0 0-3.67-.26c-.01 4.595 2.617 7.584 6.494 7.806a7.06 7.06 0 0 0 7.675-6.799c.409-4.528-2.429-6.915-6.045-7.284ZM71.287 59.85c-4.306.192-6.834 3.67-6.863 7.592-.026 3.985 2.32 6.785 6.152 6.79a6.104 6.104 0 0 0 1.351-.16 420.418 420.418 0 0 0-4.578 7.346c1.353.04 2.708.08 4.065.122a296.685 296.685 0 0 1 3.308-5.516c1.995-3.22 3.195-5.59 3.225-8.66.055-4.347-2.313-7.687-6.66-7.515Zm-.19 10.904c-1.743.02-2.943-1.319-2.933-3.302a3.111 3.111 0 0 1 2.976-3.388c1.78-.056 2.922 1.232 2.903 3.25-.016 2.022-1.173 3.42-2.946 3.44ZM57.373 56.734a6.123 6.123 0 0 0-2.417.924c.168-.994.345-1.984.53-2.97 1.928-.363 3.89-.674 5.888-.934.102-1.075.216-2.138.342-3.19-2.687.366-5.317.825-7.89 1.377a174.687 174.687 0 0 0-1.496 8.46c.65.125 1.305.26 1.966.402a3.784 3.784 0 0 1 2.406-1.334c1.395-.215 2.215.559 2.143 2.092a2.649 2.649 0 0 1-2.373 2.74 1.904 1.904 0 0 1-2.376-1.772 99.49 99.49 0 0 0-2.68.474 9.197 9.197 0 0 0 .02.605c.013.195.035.384.063.565.053.344.14.682.26 1.01a3.88 3.88 0 0 0 1.003 1.529 4.499 4.499 0 0 0 3.623.998 6.27 6.27 0 0 0 5.667-6.334c.166-3.675-1.988-5.072-4.679-4.642Z"/><path fill="#BEBEC9" d="m111.688 14.218.001.001h.003l-.004-.001Z"/><path fill="#BEBEC9" d="M183.308 25.29a4.122 4.122 0 0 0-1.816-.394 8.773 8.773 0 0 0-4.038 1.228 40.202 40.202 0 0 0-6.254 4.565 99.472 99.472 0 0 0-10.641 10.598 43.907 43.907 0 0 0-3.888 5.194 15.476 15.476 0 0 0-1.184 2.276c-.1.25-.182.495-.255.739-.142-.062-.275-.133-.421-.19a9.38 9.38 0 0 0-1.445-.434 48.821 48.821 0 0 0-2.126-5.89c-.052-.129-.092-.219-.12-.29l-.017-.04a44.667 44.667 0 0 0-14.176-17.907c-6.499-4.892-14.839-8.536-25.238-10.526l-.097-.02h-.006a105.162 105.162 0 0 0-19.643-1.714c-12.738 0-23.016 1.744-31.257 4.917a9.07 9.07 0 0 0-.421.154l-.19.069-.03.012a46.67 46.67 0 0 0-11.531 6.5 17.659 17.659 0 0 0-1.273-4.236 8.006 8.006 0 0 0-1.452-2.142 3.982 3.982 0 0 0-1.061-.77 3.114 3.114 0 0 0-1.365-.319 3.703 3.703 0 0 0-1.995.636 10.093 10.093 0 0 0-2.722 2.911 39.289 39.289 0 0 0-3.005 5.553 79.515 79.515 0 0 0-4.314 12.942c-1.169 4.574-2.075 9.097-2.72 12.612-.012.105-.01.211.006.316-.42.312-.689.534-.705.547a1.288 1.288 0 0 0-.301.378 1.206 1.206 0 0 0-.106.074 7.297 7.297 0 0 0-1.263 1.934 23.1 23.1 0 0 0-1.788 9.378c0 .232.003.466.009.702.043 2.378.358 4.744.94 7.05.24.938.564 1.853.967 2.733a6.99 6.99 0 0 0 1.354 2.022c.006.006.015.008.021.014.064.151.155.29.27.406a16.173 16.173 0 0 0 5.033 3.265c.062.016.126.026.19.032a45.819 45.819 0 0 0 3.892 11.103l.003.007c.124.238.258.493.408.752l.01.02.013.023a36.541 36.541 0 0 0 5.718 7.933l.02.022.024.027c.12.136.245.272.378.407l.13.14.028.03a44.21 44.21 0 0 0 17.064 10.418v.001l.05.019.04.015a82.756 82.756 0 0 0 21.523 4.108c.024.384.087.764.186 1.135l.024.077.09.26-.003-.01c.19.549.474 1.061.84 1.513-2.31.086-4.467.226-6.35.432a35.724 35.724 0 0 0-3.765.585 9.804 9.804 0 0 0-2.691.926 13.194 13.194 0 0 0-3.604 3.199c-.197-.082-.382-.177-.593-.245a9.115 9.115 0 0 0-2.802-.423 17.448 17.448 0 0 0-8.526 2.748 44.08 44.08 0 0 0-11.402 10.121 33.893 33.893 0 0 0-3.753 5.66 11.733 11.733 0 0 0-1.506 5.056l.006.248a7.09 7.09 0 0 0 .82 3.068c.4.733.93 1.388 1.565 1.932a8.476 8.476 0 0 0-1.144 4.371c.012 3.49 1.694 7.48 5.011 11.766a25.226 25.226 0 0 0 5.648 5.654 7.848 7.848 0 0 0 6.12 1.433c.127.376.306.733.532 1.06a4.683 4.683 0 0 0 2.167 1.713 5.554 5.554 0 0 0 2.38.351c.028.252.053.51.082.756.225 2.011.553 4.008.983 5.985.292 1.46.762 2.879 1.4 4.225a1.305 1.305 0 0 0 1.267.697 1.303 1.303 0 0 0 1.183-1.411 1.3 1.3 0 0 0-.144-.487 15.892 15.892 0 0 1-1.17-3.599 65.42 65.42 0 0 1-1.194-8.196c.38.109.763.217 1.16.318.008.002.014.008.022.009.021.005.042.007.064.011a71.62 71.62 0 0 0 9.91 1.652c5.23.515 10.484.762 15.74.741 6.713.016 13.423-.343 20.097-1.075l.031-.002.004-.002.12-.013a69.806 69.806 0 0 0 7.329-1.198c.87-.194 1.728-.44 2.569-.739l.021-.009a119.6 119.6 0 0 1-.816 12.519 1.303 1.303 0 0 0 1.126 1.454 1.303 1.303 0 0 0 1.453-1.126c.626-5.439.918-10.91.874-16.384-.001-7.83-.466-16.211-1.249-23.877.637.119 1.283.183 1.93.191a9.441 9.441 0 0 0 2.349-.285 10.43 10.43 0 0 0 6.088-4.194 11.338 11.338 0 0 0 1.982-6.414 10.497 10.497 0 0 0-.393-2.879 14.995 14.995 0 0 0-4.496-7.485 14.375 14.375 0 0 0-8.417-3.243 12.89 12.89 0 0 0-1.038-.044 9.826 9.826 0 0 0-1.927.202 43.949 43.949 0 0 0-5.717-6.595 30.466 30.466 0 0 0-3.599-2.908 76.102 76.102 0 0 0 19.766-5.179 44.481 44.481 0 0 0 15.938-11.125l.015-.017c.239-.278.495-.564.756-.88l.03-.037.093-.121.111-.138-.008.01c.179-.22.366-.447.557-.692l.046-.063.111-.16a40.953 40.953 0 0 0 7.388-15.8 14.27 14.27 0 0 0 2.818-1.424 16.329 16.329 0 0 0 2.441-1.922c.178-.185.294-.421.334-.675a6.27 6.27 0 0 0 .941-1.236 15.487 15.487 0 0 0 1.597-4.421c.161-.73.29-1.512.398-2.32a7.132 7.132 0 0 0 2.516-.671 9.034 9.034 0 0 0 3.366-2.87c1.514-2.045 4.5-6.545 7.442-11.319a189.83 189.83 0 0 0 4.164-7.062 57.766 57.766 0 0 0 2.911-5.81c1.704-4.206 2.544-7.6 2.551-10.22a6.47 6.47 0 0 0-.984-3.787 3.69 3.69 0 0 0-1.399-1.195ZM38.004 26.855a29.48 29.48 0 0 1 3.561-6.212c.34-.44.746-.827 1.203-1.145.173-.13.379-.21.595-.227.08.001.159.02.23.058.232.132.433.313.59.53.283.372.526.771.726 1.193.62 1.481 1.04 3.038 1.25 4.63.025.112.066.22.121.322a39.1 39.1 0 0 0-5 5.387 45.183 45.183 0 0 0-7.956 17.781 1.296 1.296 0 0 0-.511.081c-.436.167-.862.358-1.278.57.6-3.12 1.37-6.783 2.311-10.466a77.097 77.097 0 0 1 4.158-12.502Zm-6.982 49.172a14.326 14.326 0 0 1-1.11-.927l-.054-.052-.01-.01c-.007-.007-.016-.008-.023-.015a1.295 1.295 0 0 0-.286-.421 4.533 4.533 0 0 1-.822-1.273 16.34 16.34 0 0 1-1.13-3.72 30.428 30.428 0 0 1-.537-5.657c-.01-2.054.246-4.1.76-6.087.196-.748.456-1.477.778-2.18.197-.452.463-.872.788-1.244.057-.072.106-.149.146-.23.018-.014.041-.017.059-.032l.015-.014c.1-.082.647-.526 1.416-1.036.559-.372 1.14-.71 1.74-1.01a76.691 76.691 0 0 0-1.029 12.897c0 2.32.09 4.585.272 6.795l.003.063c.147 1.766.358 3.498.633 5.197-.56-.311-1.097-.66-1.61-1.044Zm49.154 23.953.06-.033.004-.001.017-.001a9.975 9.975 0 0 1 .638 0l.02.001a33.92 33.92 0 0 1 11.215 2.751l.068.031a43.482 43.482 0 0 1 3.796 1.777 1.299 1.299 0 0 0 1.758-.54 1.28 1.28 0 0 0-.35-1.601c.33-.624.71-1.221 1.133-1.786a6.496 6.496 0 0 1 1.212-1.246c.271-.232.609-.373.965-.403.088 0 .176.014.26.04l.005.002a2.3 2.3 0 0 1 .879.607c.133.14.251.294.353.458l.057.107c-.047.124-.122.31-.217.532-.145.339-.331.768-.524 1.262a16.437 16.437 0 0 0-1.221 5.227c-.04.837-.06 1.558-.061 2.182v.02c-.004.277-.006.532-.006.763 0 1.168.044 1.768.065 1.988 0 .089-.004.279-.013.539-.102.033-.219.058-.317.092-.01.003-.02.002-.031.005-.03.01-.057.024-.086.034l-.013.005a8.683 8.683 0 0 0-.656.256c-.009.004-.019.002-.028.006a12.758 12.758 0 0 0-6.445 5.703l-.013.022-.011.02a8.836 8.836 0 0 0-.379.748l-.006.014c-.02.047-.039.101-.06.148a10.72 10.72 0 0 1-3.035-.841c-.016-.007-.035-.004-.051-.011l.002-.006a8.246 8.246 0 0 1-.385-.171l-.128-.06a12.82 12.82 0 0 1-.67-.357l-.005-.002a13.227 13.227 0 0 1-1.737-1.182l-.02-.016-.119-.093a2.485 2.485 0 0 1-.801-1.141l-.004-.01-.07-.2a3.554 3.554 0 0 1-.118-.934c0-.181.011-.363.032-.543l.016-.141a6.91 6.91 0 0 1 .456-1.604l.038-.086.008-.016v-.001a1.296 1.296 0 0 0-.13-1.347 2.525 2.525 0 0 1-.374-.71c-.002-.008-.001-.016-.004-.024a2.188 2.188 0 0 1-.096-.652c.04-.723.268-1.423.661-2.03l.015-.026a7.76 7.76 0 0 1 .959-1.269l.063-.065.012-.013a1.298 1.298 0 0 0-.445-2.147 175.963 175.963 0 0 1-3.948-1.557l-.007-.004a50.95 50.95 0 0 1-1.974-.839c-.329-.148-.616-.288-.841-.403.032-.219.095-.431.186-.632.09-.228.237-.429.427-.584l.019-.012Zm3.186 20.809c1.174-.047 2.399-.078 3.65-.096.16.086.321.177.48.256l.029.014.15.07c.155.073.326.152.515.229.008.003.016.002.024.005 1.038.455 2.13.777 3.25.957a9.704 9.704 0 0 0-.151 1.346 15.235 15.235 0 0 1-7.947-2.781Zm-22.296 49.751v-.003a3.276 3.276 0 0 1-1.305-.203 2.094 2.094 0 0 1-1.125-.977 1.603 1.603 0 0 1-.208-.775 1.269 1.269 0 0 1 .285-.812c.064.028.13.068.194.092a5.847 5.847 0 0 0 2.093.387c.055 0 .089-.003.135-.004.025.779.055 1.549.092 2.309a1.236 1.236 0 0 0-.161-.014Zm.005-4.893-.07.002c-.392 0-.78-.071-1.147-.208a2.102 2.102 0 0 1-1.126-.978 1.608 1.608 0 0 1-.208-.775c-.005-.331.12-.651.347-.891a1.345 1.345 0 0 1 1-.38c.277.004.55.052.81.141.123.034.25.049.377.044 0 .175-.004.352-.004.527 0 .846.009 1.684.022 2.518Zm.254-11.847c-1.65-1.351-3.246-2.654-4.864-3.759 1.404-1.468 3.634-3.85 5.924-6.612-.494 3.243-.845 6.758-1.06 10.371Zm2.293-20.464a3.695 3.695 0 0 1 .284-2.494 35.124 35.124 0 0 0-.284 2.494Zm-21.8 10.545a25.261 25.261 0 0 1 3.445-5.832 44.004 44.004 0 0 1 8.98-8.829c3.36-2.435 6.869-3.988 9.624-3.97a6.559 6.559 0 0 1 1.904.274c-.181.319-.356.643-.518.979-.041.004-.083.01-.124.018a6.322 6.322 0 0 0-1.824 10.907c-.022.243-.05.475-.075.711-.168.23-.336.456-.504.678l-.002.003a112.304 112.304 0 0 1-8.536 9.834 16.25 16.25 0 0 0-.63-.312 5.776 5.776 0 0 0-9.04-1.916 5.777 5.777 0 0 0-1.816 3.008 4.282 4.282 0 0 1-.906-1.115 4.477 4.477 0 0 1-.513-1.952l-.003-.132a6.9 6.9 0 0 1 .538-2.354Zm10.206 27.226a22.776 22.776 0 0 1-5.032-5.081c-3.11-3.995-4.477-7.558-4.465-10.172a5.503 5.503 0 0 1 3.347-5.305 7.009 7.009 0 0 1 3.06-.733 9.805 9.805 0 0 1 5.072 1.717 54.634 54.634 0 0 1 5.706 4.306c.386.318.758.643 1.111.973.103.088.218.159.343.211-.038.987-.066 1.975-.084 2.964a5.128 5.128 0 0 0-1.214-.17 3.946 3.946 0 0 0-2.865 1.168 3.865 3.865 0 0 0-1.083 2.703 4.21 4.21 0 0 0 .528 2.025c.084.139.176.274.275.404a3.864 3.864 0 0 0-.895 2.465 4.21 4.21 0 0 0 .528 2.025c.175.316.386.61.63.876-.11.19-.202.389-.277.595-.014.003-.027-.002-.041.001-.443.1-.895.153-1.349.158a5.77 5.77 0 0 1-3.295-1.13Zm9.389 4.137a2.988 2.988 0 0 1-1.063-.186 2.06 2.06 0 0 1-.976-.774 1.561 1.561 0 0 1-.297-.895 1.27 1.27 0 0 1 .114-.512c.556.171 1.134.26 1.716.266.142 0 .284-.006.425-.019.014-.002.024-.01.038-.012.048.723.102 1.431.161 2.126-.041.002-.072.006-.118.006Zm14.205-.039a89.944 89.944 0 0 1-3.136-.381c1.52-.818 2.96-1.777 4.562-2.569a15.072 15.072 0 0 1 6.98-1.697c1.95.031 3.883.379 5.723 1.031 2.841.941 5.705 2.408 8.819 3.673.4.163.805.321 1.215.475-2.818.126-5.75.195-8.694.195a151.912 151.912 0 0 1-15.469-.727Zm45.678-3.248c0 .224-.003.444-.004.667a5.231 5.231 0 0 1-.952.44 28.517 28.517 0 0 1-4.555 1.109 84.025 84.025 0 0 1-4.867.698c-.663.072-1.33.108-1.997.108-4.497.003-8.391-1.642-12.339-3.399-1.97-.874-3.948-1.771-6.015-2.459a20.609 20.609 0 0 0-6.544-1.163 19.107 19.107 0 0 0-10.162 3.074c-1.266.74-2.386 1.444-3.444 1.937a7.17 7.17 0 0 1-3.094.782 6.137 6.137 0 0 1-1.316-.149 34.678 34.678 0 0 1-2.036-.585c-.21-3.102-.322-6.459-.321-9.888-.076-7.514.54-15.02 1.838-22.421v-.003c.323-1.952.532-3.92.625-5.896.063-1.68.278-3.351.642-4.993a13.87 13.87 0 0 1 2.283-4.571 10.91 10.91 0 0 1 3.121-2.871 7.609 7.609 0 0 1 1.96-.643 42.428 42.428 0 0 1 5.57-.73c.23.312.497.596.794.846v.001l.008.006.004.005v-.001a17.975 17.975 0 0 0 11.165 4.327 7.67 7.67 0 0 0 .895 1.668 28.935 28.935 0 0 0 3.2 3.723 68.336 68.336 0 0 0 7.095 6.173 44.139 44.139 0 0 0 7.638 4.797 11.846 11.846 0 0 0 4.946 1.149l.033-.002a10.297 10.297 0 0 0 3.697 3.224c.255.133.522.238.786.352a238.978 238.978 0 0 1 1.346 24.688Zm2.123-38.019c.478.748.696 1.633.619 2.517a4.026 4.026 0 0 1-1.047 2.371 8.811 8.811 0 0 0 .57-3.192 11.206 11.206 0 0 0-.142-1.696Zm-1.942-7.576a11.777 11.777 0 0 1 6.936 2.625 12.408 12.408 0 0 1 3.69 6.226c.197.704.296 1.433.293 2.165a8.762 8.762 0 0 1-1.519 4.934 7.82 7.82 0 0 1-4.597 3.155 6.836 6.836 0 0 1-1.703.204 9.273 9.273 0 0 1-4.209-1.058 8.243 8.243 0 0 1-1.95-1.417 8.113 8.113 0 0 0 1.057-.459c.169.013.337.04.508.04a6.662 6.662 0 0 0 2.151-12.968 30.404 30.404 0 0 0-1.812-3.47c.109-.004.215-.012.331-.012.26 0 .534.011.824.035Zm-4.38-.246a29.37 29.37 0 0 1 2.883 5.242l.005.013c.148.351.276.69.385 1.017l.003.009c.372 1.039.571 2.133.588 3.237.02.992-.21 1.974-.671 2.854a4.739 4.739 0 0 1-1.727 1.8c-.008.005-.017.006-.025.011a5.74 5.74 0 0 1-2.507.771l-.005.001c-.193.016-.39.024-.592.024a9.286 9.286 0 0 1-3.857-.909 51.736 51.736 0 0 1-10.956-7.609 51.018 51.018 0 0 1-4.494-4.402 19.296 19.296 0 0 1-1.428-1.794 4.94 4.94 0 0 1-.636-1.157l-.002-.004a3.64 3.64 0 0 1-.114-.517 4.892 4.892 0 0 1-.056-.756 7.758 7.758 0 0 1 .433-2.444l.003-.006c.086-.26.209-.553.352-.879.082-.185.174-.366.274-.543l.024-.042a10.153 10.153 0 0 1 5.171-4.575v-.001c.016-.006.035-.009.051-.017.136-.061.284-.115.433-.169 1.441-.084 2.84-.192 4.212-.316.112.038.235.077.327.115l.026.01a20.335 20.335 0 0 1 6.036 4.154 41.47 41.47 0 0 1 5.864 6.882Zm27.631-31.629-.045.062-.084.121a38.86 38.86 0 0 1-.502.623l-.008.01-.12.15-.017.022-.081.105c-.213.257-.45.523-.701.814a41.878 41.878 0 0 1-15.021 10.464 77.72 77.72 0 0 1-23.072 5.464 7.09 7.09 0 0 0-1.808-.267c-.124 0-.244.024-.366.032v-.03l-.01-.159v-.002c-.007-.066-.056-.587-.056-1.767 0-.223.001-.47.006-.743v-.02c0-.571.019-1.262.058-2.077a13.876 13.876 0 0 1 1.041-4.394l.002-.005c.213-.545.422-1.016.592-1.421.085-.204.161-.391.226-.583.087-.237.135-.487.141-.739l-.009-.152-.02-.17-.015-.096a3.227 3.227 0 0 0-.427-1.042 5.51 5.51 0 0 0-.678-.887l-.009-.01a4.806 4.806 0 0 0-2.014-1.307 3.47 3.47 0 0 0-1.019-.154 4.245 4.245 0 0 0-2.507.91 9.022 9.022 0 0 0-1.73 1.752l-.006.007a16.45 16.45 0 0 0-1.373 2.163 44.827 44.827 0 0 0-1.84-.807l-.01-.005-.097-.045a36.383 36.383 0 0 0-12.158-2.956h-.013l-.006-.001a8.715 8.715 0 0 0-.824 0h-.004l-.015.001v.002a2.708 2.708 0 0 0-1.4.471l-.006.004-.013.007.002.002c-.597.42-1.065 1-1.351 1.67-.273.59-.42 1.231-.432 1.88-.004.294.04.586.131.865a1.8 1.8 0 0 0 .715.948l.02.012c.49.287.995.543 1.516.77.62.281 1.341.587 2.076.883.824.338 1.65.665 2.341.937-.08.121-.161.247-.241.381l-.047.085-.01.02h.001a6.6 6.6 0 0 0-.982 3.276c0 .479.07.957.211 1.415.004.014.002.028.007.042.096.287.218.566.364.831-.078.215-.16.471-.24.765a80.37 80.37 0 0 1-20.904-3.97l-.023-.009-.038-.014a41.636 41.636 0 0 1-16.111-9.801l-.109-.117-.034-.036a6.229 6.229 0 0 1-.324-.348l-.044-.05a33.937 33.937 0 0 1-5.374-7.455l-.024-.042c-.118-.203-.239-.433-.367-.68a49.11 49.11 0 0 1-4.849-18.42l-.001-.032a80.744 80.744 0 0 1-.266-6.624 73.218 73.218 0 0 1 1.099-13.146l.01-.069.005-.033a43.66 43.66 0 0 1 7.91-18.801 40.11 40.11 0 0 1 17.648-12.91l.167-.06.035-.014c.12-.048.233-.088.37-.134l.053-.02c7.859-3.027 17.82-4.743 30.323-4.743 6.424-.045 12.838.513 19.157 1.668l-.006-.002.1.02h.005c10.08 1.931 18.025 5.431 24.165 10.052a42.05 42.05 0 0 1 13.358 16.873c.043.107.079.19.104.252l.017.04a46.069 46.069 0 0 1 1.852 5.014 3.77 3.77 0 0 0-.476.24 6.424 6.424 0 0 0-2.086 2.271 19.418 19.418 0 0 0-2.04 5.568 39.314 39.314 0 0 0-.88 7.537 52.01 52.01 0 0 0-.014 1.112c-.059 3.44.414 6.87 1.402 10.166.367 1.208.94 2.344 1.694 3.356.341.44.757.814 1.23 1.106.489.3 1.051.46 1.624.464h.062c.06-.002.117-.011.177-.014a37.88 37.88 0 0 1-6.66 13.678Zm15.697-29.898a24.83 24.83 0 0 1-1.25 7.597 7.07 7.07 0 0 1-1.066 2.036c-.113.145-.249.27-.403.37-.095.053-.119.048-.128.05l-.106-.044a2.352 2.352 0 0 1-.697-.856 11.791 11.791 0 0 1-1.111-3.41 27.259 27.259 0 0 1-.445-5.069c0-.265.003-.532.01-.801a1.304 1.304 0 0 0-1.267-1.324 1.301 1.301 0 0 0-1.332 1.258c-.008.292-.012.58-.011.867a25.758 25.758 0 0 0 1.11 7.955 8.726 8.726 0 0 0 1.37 2.681c.191.233.407.446.642.634-.062.041-.121.083-.185.124a8.908 8.908 0 0 1-4.397 1.566h-.01a.56.56 0 0 1-.292-.097 3.28 3.28 0 0 1-1.014-1.23 15.793 15.793 0 0 1-1.466-4.54 36.067 36.067 0 0 1-.578-6.625c0-.346.005-.696.014-1.049a31.72 31.72 0 0 1 1.651-9.9 9.49 9.49 0 0 1 1.457-2.731c.181-.228.398-.425.642-.583.12-.08.259-.13.403-.14h.003l.102-.003a5.165 5.165 0 0 1 1.798.405c.985.406 1.922.919 2.795 1.528.382.26.698.496.915.663.109.084.192.15.248.195l.061.05.015.012c.018.015.04.019.058.032.04.082.089.16.146.23.325.373.591.792.788 1.245a20.649 20.649 0 0 1 1.538 8.267c0 .21-.002.423-.008.637Zm6.109-1.452a6.43 6.43 0 0 1-2.39 2.068c-.37.175-.761.3-1.163.372.016-.307.036-.61.044-.924.005-.235.008-.469.008-.701a26.4 26.4 0 0 0-.851-6.766 15.82 15.82 0 0 0-.936-2.612 7.306 7.306 0 0 0-1.263-1.934 1.307 1.307 0 0 0-.106-.074 1.286 1.286 0 0 0-.302-.378c-.625-.51-1.28-.984-1.961-1.418a4.921 4.921 0 0 1 .538-1.607 29.733 29.733 0 0 1 3.656-5.315 93.188 93.188 0 0 1 8.879-9.239 75.506 75.506 0 0 1 4.474-3.794 27.46 27.46 0 0 1 3.525-2.4 6.351 6.351 0 0 1 2.806-.918c.234-.008.466.038.68.133.283.151.5.403.606.706.093.226.161.46.203.7-.269.03-.534.092-.789.186a8.472 8.472 0 0 0-1.848 1.06 32.93 32.93 0 0 0-3.759 3.288 71.965 71.965 0 0 0-6.019 6.838 32.607 32.607 0 0 0-4.159 6.569 12.536 12.536 0 0 0-.922 4.846 19.516 19.516 0 0 0 1.349 6.785 2.73 2.73 0 0 0 1.709 1.65 85.625 85.625 0 0 1-2.009 2.879Zm11.423-18.098c-1.824 3.278-4.143 7.08-6.275 10.424-.391.613-.772 1.204-1.147 1.78a1.281 1.281 0 0 0-.954.506l-.128.067-.115-.034-.074-.098a16.96 16.96 0 0 1-1.179-5.861 9.955 9.955 0 0 1 .722-3.846 25.787 25.787 0 0 1 2.861-4.706 68.58 68.58 0 0 1 6.931-8.036 30.615 30.615 0 0 1 3.152-2.763 8.19 8.19 0 0 1 1.118-.71c.045-.023.082-.038.121-.056a31.897 31.897 0 0 1-2.259 7.809 55.341 55.341 0 0 1-2.774 5.524Z"/><path fill="#BEBEC9" d="M121.773 29.498c-7.691-4.015-18.33-6.34-32.827-6.343-9.661.001-17.508.976-23.886 2.763-9.56 2.67-15.844 7.229-19.736 12.988-3.895 5.755-5.385 12.596-5.742 19.781a48.71 48.71 0 0 0-.06 2.396A33.144 33.144 0 0 0 42 74.317c2.6 6.043 7.48 11.026 15.106 14.398 7.63 3.382 17.998 5.23 31.84 5.232a98.254 98.254 0 0 0 24.008-2.536c9.722-2.467 16.282-6.695 20.355-12.222 4.076-5.523 5.6-12.23 5.598-19.463a39.541 39.541 0 0 0-2.301-13.912 29.924 29.924 0 0 0-14.833-16.316Zm12.385 42.834a23.395 23.395 0 0 1-4.963 7.7c-3.328 3.437-8.045 6.26-14.622 8.234-6.573 1.973-14.994 3.082-25.627 3.081a96.642 96.642 0 0 1-22.654-2.3c-9.152-2.233-15.14-5.946-18.875-10.672-3.731-4.728-5.291-10.565-5.295-17.292 0-.746.019-1.502.057-2.267.133-4.4.954-8.751 2.435-12.896A26.144 26.144 0 0 1 57.75 31.503c6.946-3.58 16.963-5.75 31.196-5.747 9.48-.001 17.191 1.018 23.398 2.811 9.317 2.697 15.231 7.087 18.889 12.455 3.653 5.37 5.073 11.814 5.074 18.704.09 4.3-.639 8.579-2.149 12.606Z"/><path fill="#BEBEC9" d="M121.716 76.677c-.227.21-.457.416-.691.616l-.002.002a25.454 25.454 0 0 1-3.545 2.536c-.277.163-.557.324-.841.482-.15.083-.281.194-.387.328a1.288 1.288 0 0 0-.275.956 1.29 1.29 0 0 0 .482.87 1.303 1.303 0 0 0 1.44.12c.31-.171.613-.345.909-.521l.004-.003a28.046 28.046 0 0 0 3.906-2.795c.265-.227.521-.456.768-.686a1.3 1.3 0 1 0-1.768-1.905ZM122.719 79.267l-.001.001-.001.001.002-.002ZM73.599 30.512a46.635 46.635 0 0 0-13.3 4.23 1.301 1.301 0 1 0 1.191 2.311 44.064 44.064 0 0 1 12.56-3.98 1.3 1.3 0 0 0-.451-2.56ZM54.14 38.96a24.407 24.407 0 0 0-2.672 2.84 1.3 1.3 0 0 0 2.031 1.624 21.788 21.788 0 0 1 2.388-2.539 1.3 1.3 0 0 0-1.747-1.925ZM101.729 96.481l.002.001h.003l-.005-.001ZM101.521 101.941l.002-.005-.002.005ZM81.386 104.861l-.007-.003.007.003Z"/></svg>