<svg width="200" height="200" viewBox="0 0 200 200" xmlns="http://www.w3.org/2000/svg"><g id="type=lost-connection, mode=dark"><path id="Vector" d="M57.3262 94.5019C60.9427 98.6183 66.0711 101.949 73.0558 104.231C80.044 106.514 88.8968 107.77 100.078 107.771C110.017 107.77 118.115 106.778 124.701 104.954C134.573 102.227 141.073 97.573 145.019 91.6518C148.969 85.7341 150.338 78.6729 150.338 71.2202C150.339 63.3459 148.84 55.8889 144.356 49.7807C144.152 49.5028 143.846 49.3174 143.505 49.2652C143.164 49.213 142.817 49.2984 142.539 49.5025C142.261 49.7066 142.075 50.0127 142.023 50.3535C141.971 50.6943 142.056 51.0419 142.26 51.3198V51.3197C146.296 56.8122 147.738 63.6549 147.738 71.2202C147.828 75.7317 147.14 80.225 145.706 84.5035C144.639 87.5464 143 90.3573 140.877 92.7852C137.607 96.5029 132.931 99.5859 126.292 101.759C119.656 103.93 111.065 105.171 100.078 105.171C90.3119 105.171 82.4381 104.191 76.149 102.448C66.7083 99.824 60.8664 95.5387 57.299 90.2079C53.7348 84.8737 52.4181 78.3701 52.4179 71.2202C52.4187 63.6858 53.8591 56.8804 57.8495 51.3948C58.0504 51.1159 58.1326 50.7687 58.0782 50.4293C58.0237 50.0899 57.8371 49.7859 57.559 49.5837C57.281 49.3816 56.9342 49.2978 56.5946 49.3507C56.2549 49.4035 55.95 49.5888 55.7466 49.8659C51.3172 55.9604 49.817 63.3747 49.8179 71.2202C49.7277 76.0307 50.4666 80.8208 52.0021 85.3805C53.1805 88.7319 54.9876 91.8277 57.3262 94.5019Z"/><path id="Vector_2" d="M124.557 121.637V121.638H124.559L124.557 121.637Z"/><path id="Vector_3" d="M77.7949 121.639L77.7999 121.637L77.8019 121.636L77.7949 121.639Z"/><path id="Vector_4" d="M109.152 124.821L109.147 124.823L109.143 124.825L109.152 124.821Z"/><path id="Vector_5" d="M107.34 125.54L107.335 125.541L107.328 125.544L107.34 125.54Z"/><path id="Vector_6" d="M130.243 96.2353C130.551 96.0642 130.856 95.8892 131.156 95.7105C132.535 94.8923 133.842 93.9575 135.062 92.9163L135.065 92.9146C135.327 92.6889 135.582 92.4601 135.829 92.2312C135.955 92.1155 136.057 91.976 136.129 91.8206C136.202 91.6653 136.242 91.4972 136.25 91.326C136.257 91.1549 136.23 90.984 136.17 90.8233C136.111 90.6625 136.021 90.5151 135.904 90.3894C135.788 90.2637 135.648 90.1623 135.492 90.0909C135.337 90.0195 135.168 89.9796 134.997 89.9735C134.826 89.9674 134.655 89.9951 134.495 90.0552C134.334 90.1153 134.187 90.2064 134.062 90.3235V90.3234C133.835 90.5336 133.604 90.7409 133.37 90.9426C132.262 91.8874 131.076 92.7354 129.824 93.4775L129.823 93.4782C129.55 93.641 129.269 93.8021 128.982 93.961C128.833 94.0437 128.702 94.1551 128.595 94.2887C128.489 94.4223 128.41 94.5755 128.363 94.7396C128.316 94.9037 128.302 95.0755 128.321 95.2451C128.34 95.4147 128.393 95.5789 128.475 95.7282C128.558 95.8775 128.669 96.0091 128.803 96.1154C128.937 96.2217 129.09 96.3007 129.254 96.3478C129.418 96.3948 129.59 96.4092 129.759 96.3899C129.929 96.3706 130.093 96.318 130.243 96.2353H130.243Z"/><path id="Vector_7" d="M131.155 95.71L131.154 95.711L131.155 95.71Z"/><path id="Vector_8" d="M53.166 145.937L53.167 145.935V145.934L53.166 145.937Z"/><path id="Vector_9" d="M71.3965 122.185L71.3975 122.186H71.4005L71.3965 122.185Z"/><path id="Vector_10" d="M130.918 122.186H130.92L130.921 122.185L130.918 122.186Z"/><path id="Vector_11" d="M124.157 70.0551L124.154 70.0571L124.152 70.0591L124.157 70.0551Z"/><path id="Vector_12" d="M104.856 87.141H104.855L104.854 87.142L104.856 87.141Z"/><path id="Vector_13" d="M114.997 78.223L114.996 78.224L114.997 78.223Z"/><path id="Vector_14" d="M133.327 61.8929L133.325 61.8939L133.324 61.8959L133.327 61.8929Z"/><path id="Vector_15" d="M147.538 47.616L147.535 47.617L147.531 47.618L147.538 47.616Z"/><path id="Vector_16" d="M149.177 47.113L149.172 47.115L149.168 47.117L149.177 47.113Z"/><path id="Vector_17" d="M101.696 93.2302C101.546 92.6946 101.45 92.2314 101.393 91.9086C101.364 91.7472 101.345 91.6209 101.334 91.5382L101.322 91.4477L101.319 91.4289L101.319 91.4287C101.285 91.1071 101.131 90.81 100.889 90.5954C100.647 90.3808 100.334 90.2642 100.011 90.2684C99.6872 90.2726 99.3769 90.3973 99.1405 90.618C98.9041 90.8388 98.7585 91.1398 98.7323 91.4621L98.7313 91.462C98.4288 93.4626 97.6805 95.3695 96.5416 97.0418C96.3577 97.3204 96.2889 97.6594 96.3497 97.9876C96.4104 98.3158 96.5959 98.6077 96.8673 98.802C97.1387 98.9963 97.4748 99.078 97.805 99.0297C98.1353 98.9815 98.434 98.8072 98.6385 98.5434L98.6282 98.8179C98.621 98.9889 98.6477 99.1597 98.7067 99.3205C98.7656 99.4812 98.8558 99.6287 98.9719 99.7545C99.0881 99.8803 99.228 99.9819 99.3835 100.054C99.539 100.125 99.7072 100.165 99.8783 100.172C100.049 100.178 100.22 100.151 100.381 100.091C100.541 100.031 100.688 99.9404 100.813 99.8237C100.939 99.707 101.04 99.5666 101.11 99.4108C101.181 99.2549 101.221 99.0866 101.226 98.9154L101.249 98.3224C101.457 98.5915 101.763 98.7676 102.101 98.8128C102.439 98.8579 102.78 98.7683 103.052 98.5635C103.324 98.3586 103.505 98.0549 103.555 97.7181C103.604 97.3812 103.52 97.0383 103.319 96.7635C102.577 95.6884 102.028 94.4929 101.696 93.2302Z"/><path id="Vector_18" d="M113.565 84.7384C113.415 84.2027 113.319 83.7395 113.262 83.4168C113.233 83.2554 113.214 83.1291 113.202 83.0463L113.19 82.9558L113.188 82.937V82.9368C113.153 82.6152 113 82.3181 112.758 82.1036C112.516 81.889 112.202 81.7725 111.879 81.7767C111.556 81.781 111.245 81.9057 111.009 82.1265C110.773 82.3473 110.627 82.6483 110.601 82.9707L110.6 82.9706C110.298 84.971 109.55 86.8779 108.411 88.5501C108.227 88.8286 108.158 89.1675 108.219 89.4957C108.279 89.8238 108.465 90.1157 108.736 90.31C109.007 90.5044 109.343 90.5861 109.674 90.5381C110.004 90.49 110.303 90.3159 110.507 90.0523L110.497 90.3261C110.49 90.4972 110.516 90.668 110.575 90.8288C110.634 90.9895 110.724 91.137 110.841 91.2628C110.957 91.3886 111.097 91.4902 111.252 91.5618C111.408 91.6334 111.576 91.6736 111.747 91.68C111.918 91.6864 112.089 91.659 112.249 91.5993C112.41 91.5395 112.557 91.4487 112.682 91.332C112.807 91.2152 112.908 91.0749 112.979 90.9191C113.05 90.7632 113.089 90.5949 113.095 90.4237L113.117 89.8302C113.326 90.0992 113.632 90.2754 113.969 90.3205C114.307 90.3657 114.649 90.2762 114.921 90.0715C115.193 89.8667 115.373 89.5631 115.423 89.2264C115.473 88.8896 115.389 88.5467 115.188 88.2718C114.447 87.1966 113.897 86.0011 113.565 84.7384Z"/><path id="Vector_19" d="M124.696 79.5147C123.91 78.3329 123.282 77.0532 122.829 75.7082C122.718 75.3691 122.626 75.0239 122.554 74.6742C122.531 74.5605 122.518 74.4778 122.511 74.4288L122.504 74.3809L122.504 74.3765L122.502 74.3766C122.47 74.0559 122.32 73.7584 122.081 73.542C121.843 73.3256 121.532 73.2058 121.209 73.2058C120.887 73.2058 120.576 73.3257 120.337 73.5421C120.098 73.7585 119.948 74.056 119.917 74.3768L119.917 74.3784C119.83 75.0725 119.693 75.7595 119.508 76.4338C119.19 77.6998 118.652 78.9 117.919 79.9796C117.718 80.2557 117.633 80.6 117.685 80.9377C117.736 81.2755 117.918 81.5794 118.192 81.7835C118.466 81.9877 118.809 82.0755 119.148 82.0279C119.486 81.9803 119.792 81.8012 119.999 81.5295L120.011 81.8529C120.016 82.0241 120.056 82.1926 120.126 82.3485C120.197 82.5045 120.298 82.645 120.423 82.7618C120.549 82.8787 120.696 82.9696 120.856 83.0294C121.017 83.0892 121.188 83.1167 121.359 83.1102C121.53 83.1038 121.698 83.0636 121.854 82.992C122.009 82.9204 122.149 82.8187 122.266 82.6928C122.382 82.5669 122.472 82.4193 122.531 82.2585C122.59 82.0976 122.616 81.9267 122.609 81.7556L122.581 80.9976C122.781 81.267 123.079 81.4475 123.411 81.5008C123.743 81.5541 124.083 81.476 124.358 81.283C124.633 81.0901 124.822 80.7975 124.885 80.4674C124.948 80.1372 124.88 79.7955 124.696 79.5148L124.696 79.5147Z"/><path id="Vector_20" d="M132.406 67.7956C132.256 67.2364 132.16 66.7491 132.102 66.4079C132.073 66.2374 132.054 66.1033 132.042 66.0149L132.03 65.9177L132.027 65.8969L132.027 65.8958C131.994 65.5734 131.842 65.2749 131.6 65.059C131.359 64.843 131.045 64.7251 130.721 64.7283C130.397 64.7316 130.086 64.8559 129.849 65.0767C129.612 65.2976 129.466 65.5991 129.439 65.9221L129.438 65.9219C129.136 67.9227 128.387 69.8298 127.249 71.5024C127.065 71.7809 126.996 72.1199 127.057 72.4481C127.117 72.7762 127.303 73.0681 127.574 73.2624C127.846 73.4567 128.182 73.5383 128.512 73.4901C128.842 73.4419 129.141 73.2676 129.345 73.0038L129.335 73.2779C129.328 73.449 129.354 73.6199 129.413 73.7808C129.472 73.9416 129.562 74.0892 129.679 74.2151C129.795 74.341 129.935 74.4427 130.09 74.5143C130.246 74.586 130.414 74.6262 130.585 74.6326C130.757 74.639 130.927 74.6115 131.088 74.5517C131.248 74.4919 131.395 74.401 131.521 74.2841C131.646 74.1673 131.747 74.0268 131.818 73.8709C131.889 73.7149 131.928 73.5465 131.933 73.3752L131.949 72.962C132.156 73.233 132.462 73.4112 132.8 73.458C133.138 73.5048 133.481 73.4164 133.755 73.2121C134.028 73.0078 134.21 72.7039 134.26 72.3664C134.311 72.029 134.227 71.6851 134.026 71.4094C133.277 70.31 132.728 69.0864 132.406 67.7956Z"/><path id="Vector_21" d="M142.069 59.3987C141.92 58.863 141.824 58.3995 141.766 58.0767C141.738 57.9153 141.719 57.7889 141.707 57.7061L141.695 57.6156L141.693 57.5967V57.5965C141.659 57.2785 141.508 56.9842 141.271 56.7701C141.033 56.556 140.725 56.4371 140.405 56.4363C140.085 56.4354 139.776 56.5527 139.537 56.7655C139.298 56.9783 139.146 57.2718 139.111 57.5897L139.109 57.5894C138.717 59.3472 137.97 61.0065 136.915 62.4662C136.73 62.7482 136.663 63.0915 136.727 63.4228C136.791 63.754 136.983 64.047 137.26 64.2392C137.537 64.4314 137.879 64.5075 138.212 64.4513C138.544 64.3951 138.842 64.2111 139.041 63.9386L139.002 64.9863C138.994 65.1574 139.021 65.3282 139.08 65.4889C139.139 65.6497 139.229 65.7972 139.345 65.923C139.461 66.0488 139.601 66.1504 139.757 66.222C139.912 66.2936 140.081 66.3337 140.252 66.3401C140.423 66.3466 140.593 66.3191 140.754 66.2594C140.914 66.1997 141.061 66.1089 141.187 65.9921C141.312 65.8754 141.413 65.7351 141.484 65.5792C141.555 65.4234 141.594 65.255 141.6 65.0839L141.622 64.4904C141.831 64.7596 142.137 64.9359 142.474 64.9812C142.812 65.0264 143.154 64.9369 143.426 64.732C143.698 64.5272 143.878 64.2234 143.928 63.8865C143.978 63.5496 143.893 63.2066 143.692 62.9317C142.951 61.8568 142.402 60.6614 142.069 59.3987Z"/><path id="Vector_22" d="M153.299 53.9888C152.513 52.807 151.886 51.5273 151.432 50.1824C151.321 49.8433 151.229 49.498 151.157 49.1484C151.134 49.0347 151.121 48.9519 151.114 48.9029L151.108 48.855L151.107 48.8506L151.105 48.8508C151.074 48.53 150.924 48.2325 150.685 48.0161C150.446 47.7997 150.135 47.6799 149.813 47.6799C149.49 47.68 149.179 47.7998 148.941 48.0162C148.702 48.2327 148.552 48.5302 148.52 48.8509L148.52 48.8525C148.433 49.5467 148.297 50.2336 148.111 50.908C147.793 52.1739 147.256 53.3742 146.522 54.4537C146.321 54.7298 146.237 55.074 146.288 55.4117C146.339 55.7494 146.522 56.0533 146.795 56.2574C147.069 56.4614 147.413 56.5493 147.751 56.5017C148.089 56.4542 148.395 56.2752 148.602 56.0036L148.614 56.327C148.62 56.4982 148.659 56.6667 148.73 56.8227C148.801 56.9786 148.901 57.1191 149.027 57.2359C149.152 57.3528 149.299 57.4437 149.46 57.5035C149.62 57.5633 149.791 57.5908 149.962 57.5844C150.133 57.5779 150.302 57.5378 150.457 57.4661C150.613 57.3945 150.753 57.2928 150.869 57.1669C150.985 57.041 151.075 56.8934 151.134 56.7326C151.193 56.5717 151.22 56.4008 151.212 56.2297L151.184 55.4717C151.385 55.741 151.683 55.9215 152.015 55.9748C152.346 56.0281 152.686 55.9499 152.961 55.757C153.236 55.5641 153.426 55.2716 153.489 54.9415C153.552 54.6114 153.484 54.2697 153.299 53.9889L153.299 53.9888Z"/><path id="Vector_23" d="M89.7892 85.2965C89.6397 84.7608 89.5438 84.2976 89.4864 83.9749C89.4576 83.8135 89.4385 83.6872 89.4269 83.6044L89.4149 83.5139L89.4126 83.4951V83.4949C89.378 83.1733 89.2246 82.8762 88.9825 82.6617C88.7405 82.4471 88.4271 82.3306 88.1037 82.3348C87.7802 82.3391 87.47 82.4638 87.2336 82.6846C86.9973 82.9054 86.8517 83.2064 86.8255 83.5288L86.8245 83.5287C86.5224 85.5291 85.7742 87.436 84.6354 89.1083C84.4515 89.3868 84.3827 89.7258 84.4434 90.054C84.5041 90.3822 84.6897 90.6741 84.961 90.8684C85.2324 91.0627 85.5685 91.1444 85.8988 91.0962C86.229 91.0479 86.5278 90.8736 86.7323 90.6098L86.722 90.8844C86.7147 91.0555 86.7412 91.2264 86.8002 91.3873C86.8591 91.5481 86.9493 91.6957 87.0654 91.8216C87.1816 91.9475 87.3215 92.0492 87.4771 92.1208C87.6327 92.1925 87.8009 92.2326 87.9721 92.2391C88.1433 92.2455 88.3141 92.218 88.4746 92.1582C88.6351 92.0984 88.7822 92.0075 88.9075 91.8906C89.0328 91.7738 89.1337 91.6333 89.2045 91.4774C89.2753 91.3214 89.3146 91.1529 89.3201 90.9817L89.3423 90.3887C89.551 90.6577 89.8572 90.8337 90.1946 90.8787C90.532 90.9238 90.8736 90.8342 91.1456 90.6295C91.4175 90.4247 91.5979 90.1211 91.6478 89.7844C91.6978 89.4476 91.6132 89.1048 91.4123 88.8299C90.6712 87.7548 90.122 86.5592 89.7892 85.2965Z"/><path id="Vector_24" d="M80.3257 76.8839C80.1752 76.3128 80.0785 75.8134 80.0204 75.4629C79.9914 75.2877 79.9719 75.1497 79.9601 75.0586L79.9477 74.958L79.9453 74.9363L79.9451 74.9347C79.9133 74.614 79.7634 74.3165 79.5244 74.1001C79.2855 73.8837 78.9746 73.7639 78.6523 73.7639C78.3299 73.7639 78.0191 73.8838 77.7802 74.1003C77.5413 74.3167 77.3914 74.6142 77.3596 74.935L77.358 74.9348L77.3456 75.024C76.9676 76.8368 76.2264 78.5542 75.1668 80.0727C74.9815 80.3534 74.9131 80.6953 74.9759 81.0257C75.0387 81.3561 75.2278 81.6489 75.5032 81.8421C75.7785 82.0352 76.1182 82.1134 76.4503 82.06C76.7823 82.0066 77.0804 81.8258 77.2813 81.5561L77.2529 82.3135C77.2457 82.4845 77.2723 82.6554 77.3313 82.8161C77.3903 82.9768 77.4804 83.1243 77.5966 83.2501C77.7128 83.3759 77.8526 83.4776 78.0081 83.5491C78.1637 83.6207 78.3318 83.6609 78.5029 83.6673C78.674 83.6738 78.8447 83.6463 79.0052 83.5866C79.1656 83.5269 79.3127 83.436 79.438 83.3193C79.5633 83.2026 79.6642 83.0623 79.7351 82.9064C79.806 82.7505 79.8454 82.5822 79.851 82.4111L79.8632 82.0871C80.0695 82.3605 80.3757 82.5412 80.7148 82.5897C81.0539 82.6381 81.3984 82.5505 81.6731 82.3459C81.9478 82.1413 82.1305 81.8364 82.1811 81.4976C82.2318 81.1588 82.1464 80.8137 81.9435 80.5377C81.1906 79.426 80.6427 78.1886 80.3257 76.8839Z"/><path id="Vector_25" d="M70.955 68.3537C70.8049 67.7945 70.7084 67.3072 70.6506 66.966C70.6217 66.7955 70.6024 66.6614 70.5906 66.573L70.5783 66.4758L70.576 66.455L70.5758 66.4539C70.5429 66.1315 70.3908 65.8331 70.1492 65.6171C69.9076 65.4011 69.594 65.2832 69.2699 65.2864C68.9459 65.2897 68.6348 65.414 68.3976 65.6348C68.1604 65.8557 68.0143 66.1572 67.988 66.4802L67.987 66.48C67.6845 68.4808 66.9362 70.3879 65.7974 72.0605C65.6135 72.339 65.5448 72.678 65.6056 73.0061C65.6663 73.3343 65.8518 73.6262 66.1232 73.8204C66.3945 74.0147 66.7306 74.0963 67.0608 74.0481C67.3911 73.9999 67.6898 73.8256 67.8943 73.5619L67.884 73.8359C67.8767 74.007 67.9034 74.1778 67.9624 74.3385C68.0214 74.4992 68.1115 74.6468 68.2277 74.7726C68.3438 74.8983 68.4837 75 68.6392 75.0716C68.7948 75.1431 68.9629 75.1833 69.134 75.1897C69.3051 75.1962 69.4758 75.1687 69.6363 75.109C69.7967 75.0493 69.9438 74.9584 70.0691 74.8417C70.1943 74.725 70.2953 74.5847 70.3662 74.4288C70.4371 74.2729 70.4765 74.1046 70.4821 73.9335L70.4976 73.5202C70.7051 73.7911 71.0111 73.9692 71.3491 74.016C71.6871 74.0628 72.0299 73.9744 72.3032 73.7701C72.5765 73.5658 72.7582 73.2619 72.809 72.9245C72.8597 72.5871 72.7754 72.2432 72.5743 71.9676C71.8253 70.8681 71.277 69.6445 70.955 68.3537Z"/><path id="Vector_26" d="M61.2842 59.9568C61.1347 59.4211 61.0388 58.9577 60.9813 58.6348C60.9526 58.4734 60.9334 58.347 60.9218 58.2642L60.9098 58.1737L60.9075 58.1548V58.1546C60.8734 57.8366 60.7231 57.5423 60.4854 57.3282C60.2477 57.1141 59.9394 56.9952 59.6195 56.9944C59.2997 56.9935 58.9907 57.1108 58.7519 57.3236C58.5131 57.5364 58.3612 57.8299 58.3254 58.1478L58.3234 58.1475C57.9314 59.9053 57.1852 61.5646 56.1303 63.0243C55.945 63.3063 55.8774 63.6496 55.9417 63.9809C56.0061 64.3121 56.1974 64.6051 56.4748 64.7973C56.7522 64.9895 57.0937 65.0656 57.4264 65.0094C57.7592 64.9533 58.0568 64.7692 58.2558 64.4967L58.2164 65.5444C58.2092 65.7155 58.2358 65.8863 58.2948 66.047C58.3538 66.2078 58.444 66.3553 58.5601 66.4811C58.6763 66.6069 58.8161 66.7085 58.9717 66.7801C59.1272 66.8517 59.2953 66.8918 59.4664 66.8983C59.6375 66.9047 59.8082 66.8772 59.9687 66.8175C60.1292 66.7578 60.2763 66.667 60.4015 66.5502C60.5268 66.4335 60.6277 66.2932 60.6986 66.1373C60.7695 65.9815 60.8089 65.8131 60.8145 65.642L60.8368 65.0485C61.0454 65.3177 61.3516 65.494 61.6892 65.5393C62.0267 65.5845 62.3685 65.495 62.6406 65.2901C62.9127 65.0853 63.0932 64.7816 63.1431 64.4446C63.1929 64.1077 63.1082 63.7647 62.9071 63.4898C62.1659 62.4149 61.6168 61.2195 61.2842 59.9568Z"/><path id="Vector_27" d="M51.7202 51.358C51.5698 50.7868 51.473 50.2874 51.4149 49.937C51.3859 49.7617 51.3665 49.6238 51.3546 49.5326L51.3422 49.432L51.3399 49.4103L51.3397 49.4087C51.3078 49.088 51.1579 48.7905 50.919 48.5741C50.68 48.3577 50.3692 48.2379 50.0468 48.2379C49.7244 48.2379 49.4136 48.3578 49.1747 48.5743C48.9358 48.7907 48.7859 49.0882 48.7542 49.409L48.7525 49.4088L48.7401 49.498C48.3621 51.3108 47.6209 53.0282 46.5613 54.5467C46.3761 54.8274 46.3076 55.1693 46.3704 55.4997C46.4332 55.8301 46.6224 56.1229 46.8977 56.3161C47.173 56.5092 47.5128 56.5874 47.8448 56.534C48.1768 56.4806 48.475 56.2998 48.6758 56.0301L48.6474 56.7875C48.6402 56.9585 48.6668 57.1294 48.7258 57.2901C48.7848 57.4508 48.875 57.5983 48.9911 57.7241C49.1073 57.8499 49.2471 57.9516 49.4027 58.0231C49.5582 58.0947 49.7264 58.1349 49.8975 58.1413C50.0686 58.1478 50.2392 58.1203 50.3997 58.0606C50.5602 58.0009 50.7073 57.91 50.8325 57.7933C50.9578 57.6766 51.0588 57.5363 51.1296 57.3804C51.2005 57.2245 51.2399 57.0562 51.2456 56.8851L51.2577 56.5611C51.4641 56.8345 51.7702 57.0152 52.1093 57.0637C52.4484 57.1121 52.7929 57.0245 53.0676 56.8199C53.3424 56.6153 53.525 56.3103 53.5757 55.9716C53.6263 55.6328 53.5409 55.2877 53.3381 55.0117C52.5851 53.9001 52.0372 52.6626 51.7202 51.358Z"/><path id="Vector_28" d="M53.004 36.9632L52.5909 37.4754C52.4822 37.6081 52.4009 37.761 52.3517 37.9253C52.3024 38.0896 52.2861 38.262 52.3038 38.4326C52.3214 38.6032 52.3727 38.7686 52.4545 38.9193C52.5364 39.07 52.6473 39.203 52.7808 39.3107C52.9143 39.4183 53.0678 39.4985 53.2324 39.5466C53.397 39.5947 53.5696 39.6097 53.74 39.5908C53.9105 39.572 54.0755 39.5195 54.2256 39.4366C54.3758 39.3536 54.508 39.2418 54.6147 39.1075L55.0278 38.5953C55.1364 38.4626 55.2177 38.3097 55.2669 38.1454C55.3162 37.9811 55.3325 37.8087 55.3148 37.6381C55.2972 37.4675 55.246 37.3021 55.1641 37.1514C55.0822 37.0007 54.9713 36.8677 54.8378 36.76C54.7043 36.6523 54.5509 36.5721 54.3862 36.5241C54.2216 36.476 54.0491 36.4609 53.8786 36.4798C53.7081 36.4987 53.5431 36.5511 53.393 36.6341C53.2429 36.717 53.1107 36.8289 53.004 36.9632Z"/><path id="Vector_29" d="M62.2696 45.1038L61.8565 45.616C61.7479 45.7487 61.6666 45.9016 61.6173 46.0659C61.568 46.2302 61.5518 46.4026 61.5694 46.5732C61.5871 46.7438 61.6383 46.9092 61.7202 47.0599C61.802 47.2106 61.9129 47.3436 62.0464 47.4513C62.1799 47.559 62.3334 47.6392 62.498 47.6872C62.6627 47.7353 62.8352 47.7504 63.0056 47.7315C63.1761 47.7126 63.3412 47.6602 63.4913 47.5772C63.6414 47.4943 63.7736 47.3824 63.8803 47.2481L64.2934 46.7359C64.402 46.6032 64.4833 46.4503 64.5326 46.286C64.5818 46.1217 64.5981 45.9493 64.5805 45.7787C64.5628 45.6081 64.5116 45.4427 64.4297 45.292C64.3478 45.1413 64.237 45.0083 64.1035 44.9006C63.97 44.793 63.8165 44.7128 63.6518 44.6647C63.4872 44.6166 63.3147 44.6016 63.1442 44.6205C62.9738 44.6393 62.8087 44.6918 62.6586 44.7747C62.5085 44.8577 62.3763 44.9695 62.2696 45.1038Z"/><path id="Vector_30" d="M71.5352 53.2444L71.1221 53.7566C71.0135 53.8893 70.9322 54.0423 70.8829 54.2065C70.8337 54.3708 70.8174 54.5432 70.835 54.7138C70.8527 54.8844 70.9039 55.0498 70.9858 55.2005C71.0677 55.3512 71.1785 55.4843 71.312 55.5919C71.4455 55.6996 71.599 55.7798 71.7637 55.8279C71.9283 55.8759 72.1008 55.891 72.2713 55.8721C72.4417 55.8532 72.6068 55.8008 72.7569 55.7178C72.907 55.6349 73.0392 55.523 73.1459 55.3888L73.559 54.8766C73.6676 54.7438 73.7489 54.5909 73.7982 54.4266C73.8475 54.2624 73.8638 54.09 73.8461 53.9194C73.8284 53.7488 73.7772 53.5833 73.6953 53.4326C73.6135 53.2819 73.5026 53.1489 73.3691 53.0412C73.2356 52.9336 73.0821 52.8534 72.9175 52.8053C72.7528 52.7572 72.5803 52.7422 72.4099 52.7611C72.2394 52.78 72.0743 52.8324 71.9242 52.9153C71.7741 52.9983 71.6419 53.1101 71.5352 53.2444Z"/><path id="Vector_31" d="M80.8008 61.385L80.3877 61.8972C80.2791 62.03 80.1978 62.1829 80.1486 62.3472C80.0993 62.5114 80.083 62.6838 80.1007 62.8544C80.1183 63.025 80.1695 63.1904 80.2514 63.3412C80.3333 63.4919 80.4441 63.6249 80.5777 63.7326C80.7112 63.8402 80.8646 63.9204 81.0293 63.9685C81.1939 64.0166 81.3664 64.0316 81.5369 64.0127C81.7074 63.9938 81.8724 63.9414 82.0225 63.8585C82.1726 63.7755 82.3048 63.6637 82.4115 63.5294L82.8246 63.0172C82.9333 62.8845 83.0145 62.7315 83.0638 62.5673C83.1131 62.403 83.1294 62.2306 83.1117 62.06C83.0941 61.8894 83.0428 61.724 82.961 61.5733C82.8791 61.4226 82.7682 61.2895 82.6347 61.1819C82.5012 61.0742 82.3477 60.994 82.1831 60.9459C82.0185 60.8979 81.8459 60.8828 81.6755 60.9017C81.505 60.9206 81.34 60.973 81.1899 61.056C81.0397 61.1389 80.9075 61.2508 80.8008 61.385Z"/><path id="Vector_32" d="M90.0674 69.5257L89.6543 70.0379C89.5455 70.1706 89.4639 70.3236 89.4145 70.4879C89.365 70.6523 89.3486 70.8248 89.3662 70.9955C89.3838 71.1663 89.435 71.3318 89.5169 71.4827C89.5988 71.6335 89.7097 71.7666 89.8433 71.8744C89.9769 71.9821 90.1305 72.0624 90.2953 72.1104C90.4601 72.1585 90.6327 72.1735 90.8033 72.1545C90.9739 72.1355 91.139 72.0829 91.2892 71.9997C91.4393 71.9166 91.5715 71.8045 91.6781 71.67L92.0912 71.1578C92.1998 71.0251 92.2811 70.8722 92.3304 70.7079C92.3797 70.5436 92.396 70.3712 92.3783 70.2006C92.3607 70.03 92.3094 69.8646 92.2275 69.7139C92.1457 69.5632 92.0348 69.4302 91.9013 69.3225C91.7678 69.2148 91.6143 69.1346 91.4497 69.0866C91.285 69.0385 91.1125 69.0234 90.9421 69.0423C90.7716 69.0612 90.6066 69.1136 90.4564 69.1966C90.3063 69.2795 90.1741 69.3914 90.0674 69.5257L90.0674 69.5257Z"/><path id="Vector_33" d="M147.145 36.9643C147.038 36.8313 146.906 36.7207 146.756 36.6388C146.606 36.5568 146.442 36.5052 146.272 36.4868C146.102 36.4684 145.931 36.4837 145.767 36.5316C145.603 36.5796 145.45 36.6594 145.317 36.7664C145.184 36.8734 145.073 37.0055 144.992 37.1553C144.91 37.3051 144.858 37.4695 144.84 37.6393C144.821 37.809 144.836 37.9807 144.884 38.1445C144.932 38.3084 145.012 38.4611 145.119 38.5942L145.531 39.1064C145.638 39.2394 145.77 39.35 145.92 39.432C146.07 39.5139 146.234 39.5655 146.404 39.5839C146.574 39.6023 146.746 39.5871 146.909 39.5391C147.073 39.4911 147.226 39.4114 147.359 39.3043C147.492 39.1973 147.603 39.0652 147.685 38.9154C147.767 38.7656 147.818 38.6012 147.837 38.4314C147.855 38.2617 147.84 38.09 147.792 37.9262C147.744 37.7624 147.664 37.6096 147.557 37.4765L147.145 36.9643Z"/><path id="Vector_34" d="M137.879 45.105C137.772 44.972 137.64 44.8613 137.49 44.7794C137.341 44.6974 137.176 44.6458 137.006 44.6274C136.837 44.609 136.665 44.6243 136.501 44.6722C136.337 44.7202 136.185 44.8 136.051 44.907C135.918 45.014 135.808 45.1462 135.726 45.2959C135.644 45.4457 135.592 45.6102 135.574 45.7799C135.556 45.9496 135.571 46.1213 135.619 46.2851C135.667 46.449 135.747 46.6018 135.854 46.7348L136.266 47.247C136.373 47.38 136.505 47.4906 136.655 47.5726C136.804 47.6545 136.969 47.7061 137.139 47.7245C137.308 47.7429 137.48 47.7277 137.644 47.6797C137.808 47.6317 137.96 47.552 138.093 47.445C138.226 47.3379 138.337 47.2058 138.419 47.056C138.501 46.9062 138.553 46.7418 138.571 46.5721C138.589 46.4023 138.574 46.2307 138.526 46.0668C138.478 45.903 138.398 45.7502 138.291 45.6172L137.879 45.105Z"/><path id="Vector_35" d="M128.614 53.2456C128.398 52.977 128.084 52.8052 127.741 52.7681C127.398 52.7309 127.055 52.8315 126.786 53.0476C126.517 53.2638 126.345 53.5777 126.308 53.9205C126.271 54.2633 126.372 54.6068 126.588 54.8754L127 55.3876C127.107 55.5206 127.239 55.6313 127.389 55.7132C127.539 55.7951 127.703 55.8468 127.873 55.8652C128.043 55.8835 128.214 55.8683 128.378 55.8203C128.542 55.7724 128.695 55.6926 128.828 55.5856C128.961 55.4786 129.071 55.3464 129.153 55.1966C129.235 55.0469 129.287 54.8824 129.305 54.7127C129.324 54.543 129.308 54.3713 129.261 54.2074C129.213 54.0436 129.133 53.8908 129.026 53.7578L128.614 53.2456Z"/><path id="Vector_36" d="M119.348 61.3862C119.241 61.2532 119.109 61.1426 118.959 61.0606C118.809 60.9787 118.645 60.9271 118.475 60.9087C118.305 60.8903 118.134 60.9055 117.97 60.9535C117.806 61.0015 117.653 61.0812 117.52 61.1882C117.387 61.2953 117.277 61.4274 117.195 61.5772C117.113 61.727 117.061 61.8914 117.043 62.0611C117.024 62.2309 117.04 62.4025 117.088 62.5664C117.135 62.7302 117.215 62.883 117.322 63.016L117.734 63.5282C117.951 63.7969 118.265 63.9686 118.607 64.0058C118.95 64.0429 119.294 63.9423 119.562 63.7262C119.831 63.5101 120.003 63.1961 120.04 62.8533C120.077 62.5105 119.976 62.1671 119.76 61.8984L119.348 61.3862Z"/><path id="Vector_37" d="M110.082 69.5269C109.866 69.2582 109.552 69.0864 109.21 69.0493C108.867 69.0122 108.523 69.1127 108.255 69.3289C107.986 69.545 107.814 69.859 107.777 70.2018C107.74 70.5445 107.841 70.888 108.057 71.1567L108.469 71.6689C108.685 71.9375 108.999 72.1093 109.342 72.1464C109.684 72.1835 110.028 72.083 110.297 71.8668C110.565 71.6507 110.737 71.3367 110.774 70.994C110.811 70.6512 110.711 70.3077 110.495 70.0391L110.082 69.5269Z"/><path id="Vector_38" d="M99.9152 75.3044C99.5705 75.3044 99.2398 75.4414 98.996 75.6852C98.7522 75.929 98.6152 76.2597 98.6152 76.6044V77.2543C98.6152 77.5991 98.7522 77.9298 98.996 78.1736C99.2398 78.4174 99.5705 78.5543 99.9152 78.5543C100.26 78.5543 100.591 78.4174 100.834 78.1736C101.078 77.9298 101.215 77.5991 101.215 77.2543V76.6044C101.215 76.2597 101.078 75.929 100.834 75.6852C100.591 75.4414 100.26 75.3044 99.9152 75.3044Z"/><path id="Vector_39" d="M98.3382 59.83C98.4531 59.7038 98.5421 59.5562 98.6 59.3956C98.6579 59.235 98.6837 59.0646 98.6757 58.894C98.6678 58.7235 98.6263 58.5562 98.5537 58.4017C98.4811 58.2472 98.3788 58.1085 98.2525 57.9935L94.1905 54.2933C94.0645 54.1772 93.9168 54.0872 93.7559 54.0284C93.595 53.9696 93.424 53.9432 93.2529 53.9507C93.0817 53.9582 92.9137 53.9995 92.7585 54.0721C92.6034 54.1448 92.4641 54.2474 92.3487 54.374C92.2333 54.5007 92.1441 54.6489 92.0862 54.8101C92.0283 54.9714 92.0029 55.1425 92.0113 55.3136C92.0198 55.4847 92.062 55.6525 92.1355 55.8072C92.209 55.962 92.3124 56.1007 92.4397 56.2154L96.5017 59.9156C96.7566 60.1478 97.0933 60.2692 97.4377 60.2531C97.7821 60.2371 98.106 60.0849 98.3382 59.83Z"/><path id="Vector_40" d="M103.398 62.485C103.151 62.2446 102.818 62.1123 102.473 62.1171C102.128 62.1219 101.8 62.2635 101.559 62.5106C101.319 62.7578 101.187 63.0904 101.192 63.4351C101.196 63.7799 101.338 64.1086 101.585 64.349L104.773 67.449C104.895 67.5681 105.04 67.6618 105.199 67.7249C105.357 67.7881 105.527 67.8193 105.698 67.8169C105.868 67.8145 106.037 67.7786 106.194 67.711C106.35 67.6435 106.492 67.5458 106.611 67.4234C106.73 67.301 106.824 67.1563 106.887 66.9977C106.95 66.8391 106.982 66.6696 106.979 66.4989C106.977 66.3282 106.941 66.1596 106.873 66.0028C106.806 65.846 106.708 65.7041 106.586 65.585L103.398 62.485Z"/><path id="Vector_41" d="M94.4068 51.7837L98.669 47.9878C98.9265 47.7585 99.0823 47.4363 99.1022 47.0921C99.1222 46.7479 99.0045 46.4099 98.7752 46.1524C98.5459 45.895 98.2237 45.7391 97.8795 45.7192C97.5353 45.6993 97.1972 45.8169 96.9398 46.0463L92.6776 49.8422C92.5501 49.9557 92.4462 50.0932 92.3719 50.2469C92.2975 50.4006 92.2542 50.5674 92.2444 50.7379C92.2345 50.9083 92.2583 51.079 92.3144 51.2403C92.3705 51.4015 92.4579 51.5501 92.5714 51.6776C92.6849 51.8051 92.8225 51.9089 92.9762 51.9833C93.1299 52.0576 93.2967 52.1009 93.4671 52.1108C93.6376 52.1206 93.8083 52.0968 93.9695 52.0407C94.1307 51.9846 94.2793 51.8973 94.4068 51.7837Z"/><path id="Vector_42" d="M103.517 43.8006L107.779 39.7044C107.903 39.5863 108.002 39.4448 108.071 39.2883C108.14 39.1317 108.177 38.9631 108.181 38.792C108.185 38.621 108.154 38.4509 108.092 38.2915C108.03 38.1321 107.937 37.9865 107.818 37.8632C107.7 37.7398 107.558 37.6411 107.401 37.5726C107.245 37.5041 107.076 37.4673 106.905 37.4642C106.734 37.4611 106.564 37.4918 106.404 37.5545C106.245 37.6173 106.1 37.7108 105.977 37.8298L101.715 41.926C101.591 42.0442 101.492 42.1856 101.423 42.3421C101.354 42.4987 101.316 42.6673 101.313 42.8384C101.309 43.0095 101.339 43.1796 101.401 43.339C101.464 43.4983 101.557 43.6439 101.675 43.7673C101.794 43.8906 101.936 43.9894 102.092 44.0578C102.249 44.1263 102.418 44.1631 102.589 44.1662C102.76 44.1693 102.93 44.1386 103.089 44.0759C103.248 44.0131 103.394 43.9196 103.517 43.8006L103.517 43.8006Z"/><path id="Vector_43" d="M112.72 35.4967L117.083 31.5006C117.336 31.2674 117.486 30.9435 117.5 30.5997C117.515 30.256 117.392 29.9205 117.16 29.6668C116.928 29.4131 116.604 29.2619 116.261 29.2462C115.917 29.2306 115.581 29.3518 115.327 29.5833L110.964 33.5794C110.711 33.8126 110.561 34.1366 110.546 34.4803C110.532 34.8241 110.654 35.1595 110.886 35.4132C111.119 35.6669 111.442 35.8182 111.786 35.8338C112.129 35.8495 112.465 35.7283 112.72 35.4967Z"/><path id="Vector_44" d="M121.767 27.5374L126.442 23.1663C126.693 22.9306 126.84 22.6051 126.851 22.2611C126.862 21.9172 126.736 21.583 126.501 21.3316C126.266 21.0803 125.941 20.9323 125.597 20.9202C125.253 20.9081 124.919 21.0329 124.667 21.2671L119.991 25.6382C119.741 25.874 119.594 26.1995 119.583 26.5434C119.572 26.8873 119.697 27.2216 119.932 27.4729C120.167 27.7243 120.492 27.8722 120.836 27.8843C121.18 27.8964 121.515 27.7716 121.767 27.5374Z"/><path id="Vector_45" d="M87.8148 37.6962L83.5526 41.4921C83.4251 41.6056 83.3212 41.7431 83.2469 41.8968C83.1725 42.0505 83.1292 42.2173 83.1194 42.3878C83.1095 42.5582 83.1333 42.7289 83.1894 42.8902C83.2455 43.0514 83.3329 43.2 83.4464 43.3275C83.5599 43.455 83.6975 43.5588 83.8512 43.6332C84.0049 43.7075 84.1717 43.7508 84.3421 43.7607C84.5126 43.7706 84.6833 43.7467 84.8445 43.6906C85.0057 43.6345 85.1543 43.5472 85.2818 43.4336L89.544 39.6377C89.8015 39.4084 89.9573 39.0862 89.9772 38.742C89.9972 38.3978 89.8795 38.0598 89.6502 37.8023C89.4209 37.5449 89.0987 37.389 88.7545 37.3691C88.4103 37.3492 88.0722 37.4668 87.8148 37.6962Z"/><path id="Vector_46" d="M96.8519 29.4797L92.5897 33.5759C92.4656 33.694 92.366 33.8354 92.2967 33.992C92.2274 34.1487 92.1897 34.3175 92.1859 34.4887C92.182 34.66 92.2121 34.8303 92.2742 34.9899C92.3364 35.1495 92.4296 35.2953 92.5482 35.4188C92.6669 35.5423 92.8089 35.6411 92.9659 35.7096C93.1229 35.778 93.2919 35.8148 93.4632 35.8178C93.6345 35.8207 93.8046 35.7898 93.9639 35.7267C94.1232 35.6637 94.2684 35.5698 94.3913 35.4505L98.6535 31.3543C98.7773 31.2362 98.8765 31.0948 98.9455 30.9382C99.0145 30.7816 99.0519 30.613 99.0556 30.4419C99.0593 30.2709 99.0292 30.1008 98.967 29.9414C98.9048 29.782 98.8118 29.6364 98.6932 29.5131C98.5747 29.3897 98.4329 29.291 98.2761 29.2225C98.1193 29.154 97.9505 29.1172 97.7795 29.1141C97.6084 29.111 97.4384 29.1417 97.2792 29.2044C97.1201 29.2672 96.9748 29.3607 96.8519 29.4797H96.8519Z"/><path id="Vector_47" d="M103.595 27.1466L107.958 23.1505C108.211 22.9173 108.361 22.5934 108.375 22.2496C108.39 21.9059 108.267 21.5704 108.035 21.3167C107.803 21.063 107.479 20.9118 107.136 20.8961C106.792 20.8805 106.456 21.0017 106.202 21.2332L101.839 25.2293C101.586 25.4625 101.436 25.7865 101.421 26.1302C101.407 26.474 101.529 26.8094 101.761 27.0631C101.994 27.3168 102.317 27.4681 102.661 27.4837C103.004 27.4994 103.34 27.3782 103.595 27.1466Z"/><path id="Vector_48" d="M113.024 18.902L114.887 17.2189C115.015 17.1048 115.12 16.9666 115.194 16.812C115.268 16.6575 115.312 16.4898 115.321 16.3185C115.33 16.1472 115.306 15.9758 115.248 15.8141C115.191 15.6524 115.102 15.5036 114.987 15.3764C114.872 15.2491 114.733 15.1458 114.578 15.0725C114.423 14.9992 114.255 14.9574 114.084 14.9493C113.912 14.9413 113.741 14.9672 113.58 15.0256C113.419 15.0841 113.271 15.1738 113.144 15.2898L111.281 16.9729C111.153 17.087 111.049 17.2252 110.974 17.3798C110.9 17.5343 110.857 17.702 110.848 17.8733C110.838 18.0446 110.863 18.216 110.92 18.3777C110.977 18.5394 111.066 18.6882 111.181 18.8154C111.296 18.9427 111.435 19.046 111.59 19.1193C111.745 19.1926 111.913 19.2344 112.085 19.2425C112.256 19.2505 112.427 19.2246 112.589 19.1662C112.75 19.1077 112.898 19.018 113.024 18.902L113.024 18.902Z"/><path id="Vector_49" d="M78.5648 29.4213L74.3026 33.2172C74.1751 33.3307 74.0712 33.4682 73.9969 33.6219C73.9225 33.7756 73.8792 33.9424 73.8694 34.1129C73.8595 34.2833 73.8833 34.454 73.9394 34.6153C73.9955 34.7765 74.0829 34.9251 74.1964 35.0526C74.3099 35.1801 74.4475 35.2839 74.6012 35.3583C74.7549 35.4326 74.9217 35.4759 75.0921 35.4858C75.2626 35.4956 75.4333 35.4718 75.5945 35.4157C75.7557 35.3596 75.9043 35.2723 76.0318 35.1587L80.294 31.3628C80.5515 31.1335 80.7073 30.8113 80.7272 30.4671C80.7472 30.1229 80.6295 29.7849 80.4002 29.5274C80.1709 29.27 79.8487 29.1141 79.5045 29.0942C79.1603 29.0743 78.8222 29.1919 78.5648 29.4213Z"/><path id="Vector_50" d="M85.1426 27.1756L89.4048 23.0794C89.5286 22.9613 89.6278 22.8199 89.6968 22.6633C89.7658 22.5067 89.8032 22.3381 89.8069 22.167C89.8106 21.996 89.7805 21.8259 89.7183 21.6665C89.6561 21.5071 89.5631 21.3615 89.4445 21.2382C89.326 21.1148 89.1842 21.0161 89.0274 20.9476C88.8706 20.8791 88.7018 20.8423 88.5308 20.8392C88.3597 20.8361 88.1897 20.8668 88.0305 20.9295C87.8714 20.9923 87.7261 21.0858 87.6032 21.2048L83.341 25.301C83.2166 25.419 83.1168 25.5604 83.0472 25.7171C82.9777 25.8739 82.9399 26.0428 82.9359 26.2142C82.9319 26.3856 82.9619 26.5561 83.0241 26.7159C83.0863 26.8756 83.1795 27.0215 83.2983 27.1451C83.4171 27.2688 83.5591 27.3676 83.7163 27.4361C83.8735 27.5046 84.0427 27.5413 84.2141 27.5441C84.3855 27.547 84.5558 27.5159 84.7152 27.4526C84.8745 27.3894 85.0198 27.2952 85.1426 27.1756Z"/><path id="Vector_51" d="M94.3814 18.8367L96.9566 16.2864C97.0793 16.1666 97.1771 16.0237 97.2443 15.8659C97.3116 15.7082 97.3469 15.5387 97.3484 15.3672C97.3498 15.1957 97.3173 15.0256 97.2527 14.8668C97.1881 14.7079 97.0928 14.5634 96.9721 14.4415C96.8514 14.3197 96.7078 14.2229 96.5496 14.1568C96.3914 14.0907 96.2216 14.0565 96.0501 14.0563C95.8786 14.056 95.7088 14.0898 95.5504 14.1554C95.392 14.2211 95.2481 14.3175 95.1272 14.4391L92.5519 16.9894C92.4292 17.1092 92.3315 17.2521 92.2642 17.4098C92.197 17.5676 92.1616 17.7371 92.1602 17.9086C92.1588 18.0801 92.1913 18.2501 92.2558 18.409C92.3204 18.5679 92.4158 18.7124 92.5365 18.8342C92.6571 18.9561 92.8007 19.0529 92.959 19.119C93.1172 19.1851 93.2869 19.2193 93.4584 19.2195C93.6299 19.2197 93.7998 19.186 93.9582 19.1203C94.1166 19.0546 94.2604 18.9582 94.3814 18.8367Z"/><path id="Vector_52" d="M66.6568 27.1338L70.919 23.3379C71.0465 23.2244 71.1504 23.0869 71.2247 22.9332C71.2991 22.7795 71.3424 22.6127 71.3522 22.4422C71.3621 22.2718 71.3383 22.1011 71.2822 21.9398C71.2261 21.7786 71.1387 21.63 71.0252 21.5025C70.9117 21.375 70.7741 21.2712 70.6204 21.1968C70.4667 21.1225 70.2999 21.0792 70.1295 21.0693C69.959 21.0594 69.7883 21.0833 69.6271 21.1394C69.4659 21.1955 69.3173 21.2828 69.1898 21.3964L64.9276 25.1923C64.6701 25.4216 64.5143 25.7438 64.4944 26.088C64.4744 26.4322 64.5921 26.7702 64.8214 27.0277C65.0507 27.2851 65.3729 27.441 65.7171 27.4609C66.0613 27.4808 66.3993 27.3632 66.6568 27.1338Z"/><path id="Vector_53" d="M107.843 54.3304C107.723 54.2087 107.581 54.1118 107.423 54.0452C107.266 53.9786 107.097 53.9436 106.927 53.9422C106.756 53.9408 106.587 53.973 106.428 54.0371C106.27 54.1011 106.126 54.1957 106.004 54.3154L101.942 58.3115C101.82 58.4311 101.722 58.5736 101.655 58.731C101.588 58.8884 101.553 59.0574 101.551 59.2285C101.549 59.3996 101.581 59.5694 101.645 59.728C101.709 59.8867 101.804 60.0311 101.924 60.1531C102.044 60.2751 102.187 60.3722 102.345 60.4388C102.502 60.5054 102.671 60.5403 102.842 60.5414C103.013 60.5425 103.183 60.5098 103.342 60.4452C103.5 60.3806 103.644 60.2854 103.766 60.165L107.828 56.1689C107.949 56.0492 108.046 55.9066 108.113 55.7495C108.18 55.5923 108.215 55.4235 108.216 55.2528C108.217 55.0821 108.185 54.9128 108.121 54.7545C108.057 54.5962 107.962 54.4521 107.843 54.3304Z"/><path id="Vector_54" d="M117.148 46.1121C116.915 45.8583 116.59 45.7077 116.246 45.6933C115.901 45.6789 115.565 45.8019 115.311 46.0353L110.749 50.2311C110.622 50.3463 110.519 50.4855 110.446 50.6407C110.373 50.7958 110.331 50.964 110.324 51.1353C110.316 51.3067 110.342 51.4779 110.401 51.6391C110.459 51.8003 110.549 51.9483 110.665 52.0746C110.782 52.2008 110.922 52.3029 111.077 52.3748C111.233 52.4467 111.401 52.4871 111.573 52.4936C111.744 52.5001 111.915 52.4727 112.076 52.4128C112.237 52.3529 112.384 52.2618 112.509 52.1447L117.071 47.9489C117.197 47.8334 117.299 47.6942 117.371 47.5393C117.443 47.3845 117.483 47.217 117.49 47.0464C117.497 46.8759 117.471 46.7056 117.412 46.5452C117.354 46.3849 117.264 46.2377 117.148 46.1121Z"/><path id="Vector_55" d="M126.385 37.7997C126.155 37.5428 125.832 37.3879 125.488 37.3689C125.143 37.3499 124.806 37.4685 124.549 37.6985L120.087 41.6946C119.83 41.9246 119.675 42.2473 119.656 42.5915C119.637 42.9358 119.756 43.2735 119.986 43.5303C120.216 43.7872 120.539 43.9421 120.883 43.9611C121.227 43.98 121.565 43.8615 121.822 43.6314L126.284 39.6354C126.54 39.4053 126.695 39.0827 126.714 38.7384C126.733 38.3942 126.615 38.0565 126.385 37.7997Z"/><path id="Vector_56" d="M135.626 29.5641C135.393 29.3097 135.068 29.1583 134.724 29.1431C134.38 29.1279 134.043 29.2501 133.789 29.4829L129.014 33.854C128.76 34.0868 128.608 34.4111 128.593 34.7556C128.578 35.1 128.7 35.4364 128.933 35.6907C129.166 35.945 129.49 36.0965 129.834 36.1117C130.179 36.1269 130.515 36.0046 130.77 35.7718L135.545 31.4007C135.799 31.1679 135.95 30.8436 135.965 30.4992C135.981 30.1547 135.858 29.8184 135.626 29.5641Z"/><path id="Vector_57" d="M89.2352 54.4607C89.1179 54.3367 88.9772 54.2371 88.8213 54.1674C88.6655 54.0978 88.4974 54.0596 88.3267 54.0549C88.1561 54.0503 87.9862 54.0793 87.8267 54.1403C87.6673 54.2013 87.5214 54.2931 87.3974 54.4105L84.5722 57.0853C84.4482 57.2026 84.3486 57.3433 84.279 57.4992C84.2094 57.655 84.1712 57.8231 84.1665 57.9938C84.1618 58.1644 84.1908 58.3343 84.2518 58.4938C84.3128 58.6532 84.4046 58.7991 84.522 58.9231C84.6394 59.047 84.78 59.1467 84.9359 59.2163C85.0918 59.2859 85.2599 59.3241 85.4305 59.3288C85.6012 59.3334 85.7711 59.3044 85.9305 59.2434C86.09 59.1824 86.2359 59.0906 86.3598 58.9733L89.185 56.2985C89.4354 56.0614 89.5813 55.7346 89.5907 55.39C89.6002 55.0453 89.4723 54.711 89.2352 54.4607Z"/><path id="Vector_58" d="M98.5106 62.7859C98.3933 62.6619 98.2526 62.5623 98.0967 62.4926C97.9409 62.423 97.7728 62.3848 97.6021 62.3801C97.4315 62.3755 97.2616 62.4045 97.1021 62.4655C96.9427 62.5265 96.7968 62.6183 96.6728 62.7356L93.8476 65.4104C93.7236 65.5278 93.624 65.6685 93.5544 65.8243C93.4848 65.9802 93.4466 66.1483 93.4419 66.3189C93.4372 66.4896 93.4662 66.6595 93.5272 66.819C93.5882 66.9784 93.68 67.1243 93.7974 67.2482C93.9148 67.3722 94.0554 67.4718 94.2113 67.5415C94.3672 67.6111 94.5353 67.6493 94.7059 67.654C94.8766 67.6586 95.0465 67.6296 95.2059 67.5686C95.3654 67.5076 95.5112 67.4158 95.6352 67.2984L98.4604 64.6236C98.7108 64.3866 98.8567 64.0598 98.8661 63.7152C98.8756 63.3705 98.7477 63.0362 98.5106 62.7859Z"/><path id="Vector_59" d="M80.0481 43.3084C80.1635 43.1825 80.2529 43.0352 80.3114 42.8748C80.3699 42.7144 80.3962 42.5441 80.3888 42.3735C80.3815 42.203 80.3406 42.0355 80.2685 41.8808C80.1964 41.726 80.0946 41.587 79.9688 41.4716L75.7442 37.5966C75.49 37.3639 75.1539 37.2417 74.8097 37.2567C74.4654 37.2718 74.1413 37.4228 73.9084 37.6768C73.6755 37.9307 73.5529 38.2667 73.5676 38.6109C73.5823 38.9552 73.733 39.2795 73.9867 39.5126L78.2113 43.3876C78.4654 43.6207 78.8017 43.7433 79.1461 43.7284C79.4906 43.7135 79.815 43.5624 80.0481 43.3084Z"/><path id="Vector_60" d="M70.7517 34.9938C70.9875 34.7423 71.1138 34.4074 71.1028 34.0628C71.0917 33.7182 70.9443 33.3921 70.6928 33.1562L66.6679 29.3813C66.5434 29.2646 66.3971 29.1734 66.2373 29.1132C66.0776 29.0529 65.9075 29.0247 65.7369 29.0302C65.5663 29.0357 65.3984 29.0747 65.2428 29.145C65.0873 29.2154 64.9471 29.3157 64.8303 29.4402C64.7135 29.5647 64.6224 29.711 64.5622 29.8708C64.5019 30.0305 64.4737 30.2005 64.4792 30.3712C64.4846 30.5418 64.5237 30.7097 64.594 30.8652C64.6644 31.0208 64.7647 31.161 64.8892 31.2778L68.9141 35.0527C69.1656 35.2885 69.5005 35.4148 69.8451 35.4038C70.1897 35.3927 70.5158 35.2452 70.7517 34.9938Z"/><path id="Vector_61" d="M89.219 51.5744C89.4496 51.3181 89.5689 50.9807 89.5507 50.6364C89.5325 50.2921 89.3783 49.9691 89.122 49.7386L85.0224 46.0506C84.8956 45.9357 84.7474 45.847 84.5862 45.7895C84.4251 45.732 84.2541 45.707 84.0833 45.7157C83.9124 45.7244 83.7449 45.7668 83.5905 45.8404C83.436 45.914 83.2976 46.0173 83.1831 46.1445C83.0687 46.2717 82.9805 46.4203 82.9236 46.5816C82.8667 46.743 82.8422 46.914 82.8515 47.0848C82.8609 47.2557 82.9038 47.423 82.978 47.5772C83.0521 47.7314 83.1559 47.8695 83.2835 47.9835L87.3831 51.6715C87.6395 51.9021 87.9769 52.0214 88.3212 52.0032C88.6655 51.985 88.9884 51.8308 89.219 51.5744Z"/><path id="Vector_62" d="M103.492 46.1684C103.366 46.0525 103.219 45.9626 103.058 45.904C102.897 45.8453 102.726 45.819 102.555 45.8266C102.384 45.8341 102.216 45.8754 102.061 45.9481C101.906 46.0207 101.767 46.1232 101.652 46.2498C101.536 46.3764 101.447 46.5245 101.389 46.6856C101.331 46.8468 101.306 47.0177 101.314 47.1888C101.322 47.3598 101.364 47.5275 101.438 47.6822C101.511 47.8369 101.614 47.9756 101.741 48.0903L105.803 51.7905C105.929 51.9065 106.077 51.9963 106.238 52.055C106.398 52.1136 106.569 52.1399 106.74 52.1324C106.911 52.1248 107.079 52.0835 107.234 52.0109C107.389 51.9383 107.529 51.8357 107.644 51.7092C107.759 51.5826 107.848 51.4345 107.906 51.2733C107.964 51.1122 107.99 50.9412 107.981 50.7702C107.973 50.5992 107.931 50.4315 107.858 50.2768C107.784 50.122 107.681 49.9833 107.554 49.8686L103.492 46.1684Z"/><path id="Vector_63" d="M112.697 54.36C112.449 54.1196 112.117 53.9873 111.772 53.9921C111.427 53.9969 111.099 54.1385 110.858 54.3856C110.618 54.6328 110.486 54.9654 110.49 55.3101C110.495 55.6549 110.637 55.9836 110.884 56.224L114.072 59.3241C114.194 59.4431 114.339 59.5368 114.498 59.5999C114.656 59.6631 114.826 59.6943 114.996 59.6919C115.167 59.6895 115.336 59.6536 115.492 59.586C115.649 59.5185 115.791 59.4208 115.91 59.2984C116.029 59.176 116.123 59.0313 116.186 58.8727C116.249 58.7141 116.281 58.5446 116.278 58.3739C116.276 58.2032 116.24 58.0346 116.172 57.8778C116.105 57.721 116.007 57.5791 115.885 57.46L112.697 54.36Z"/><path id="Vector_64" d="M87.5129 35.2628C87.7671 35.4955 88.1032 35.6178 88.4475 35.6028C88.7918 35.5878 89.116 35.4367 89.3489 35.1827C89.5818 34.9287 89.7044 34.5926 89.6896 34.2483C89.6749 33.9041 89.524 33.5797 89.2702 33.3466L85.0451 29.4716C84.791 29.2389 84.4548 29.1166 84.1105 29.1316C83.7662 29.1466 83.442 29.2977 83.2091 29.5517C82.9762 29.8057 82.8536 30.1418 82.8684 30.486C82.8831 30.8303 83.034 31.1547 83.2878 31.3878L87.5129 35.2628Z"/><path id="Vector_65" d="M78.2149 26.9277C78.3394 27.0445 78.4857 27.1356 78.6454 27.1958C78.8052 27.2561 78.9752 27.2843 79.1458 27.2788C79.3165 27.2733 79.4844 27.2343 79.6399 27.164C79.7955 27.0936 79.9356 26.9933 80.0524 26.8688C80.1692 26.7443 80.2603 26.598 80.3206 26.4382C80.3808 26.2785 80.409 26.1085 80.4036 25.9378C80.3981 25.7672 80.3591 25.5993 80.2887 25.4438C80.2184 25.2882 80.1181 25.148 79.9936 25.0312L75.9687 21.2563C75.8441 21.1396 75.6978 21.0484 75.5381 20.9882C75.3784 20.9279 75.2083 20.8997 75.0377 20.9052C74.8671 20.9107 74.6992 20.9497 74.5436 21.02C74.3881 21.0904 74.2479 21.1907 74.1311 21.3152C74.0143 21.4397 73.9232 21.586 73.8629 21.7458C73.8027 21.9055 73.7745 22.0755 73.78 22.2462C73.7854 22.4168 73.8245 22.5847 73.8948 22.7402C73.9651 22.8958 74.0654 23.036 74.19 23.1528L78.2149 26.9277Z"/><path id="Vector_66" d="M98.5202 43.4494C98.7508 43.1931 98.8701 42.8556 98.8518 42.5113C98.8336 42.167 98.6794 41.8441 98.423 41.6135L94.3229 37.9255C94.1962 37.8103 94.0479 37.7212 93.8867 37.6635C93.7254 37.6057 93.5543 37.5804 93.3832 37.589C93.2121 37.5976 93.0444 37.64 92.8898 37.7136C92.7351 37.7872 92.5965 37.8907 92.4819 38.018C92.3674 38.1454 92.2791 38.2941 92.2222 38.4557C92.1653 38.6173 92.1409 38.7885 92.1504 38.9595C92.1599 39.1305 92.2032 39.298 92.2776 39.4523C92.352 39.6066 92.4562 39.7446 92.5842 39.8585L96.6843 43.5465C96.8112 43.6607 96.9594 43.7487 97.1203 43.8057C97.2813 43.8626 97.4519 43.8872 97.6224 43.8782C97.7928 43.8692 97.9599 43.8267 98.1139 43.7531C98.268 43.6795 98.406 43.5763 98.5202 43.4494Z"/><path id="Vector_67" d="M112.767 37.7933C112.641 37.6772 112.493 37.5872 112.332 37.5284C112.171 37.4696 112 37.4432 111.829 37.4507C111.658 37.4582 111.49 37.4995 111.335 37.5721C111.18 37.6448 111.04 37.7474 110.925 37.874C110.81 38.0007 110.72 38.1489 110.662 38.3101C110.605 38.4714 110.579 38.6425 110.588 38.8136C110.596 38.9847 110.638 39.1525 110.712 39.3072C110.785 39.462 110.889 39.6007 111.016 39.7154L115.078 43.4156C115.204 43.5316 115.352 43.6217 115.513 43.6805C115.673 43.7393 115.844 43.7657 116.016 43.7582C116.187 43.7507 116.355 43.7094 116.51 43.6368C116.665 43.5641 116.804 43.4615 116.92 43.3348C117.035 43.2082 117.124 43.06 117.182 42.8987C117.24 42.7375 117.266 42.5664 117.257 42.3953C117.249 42.2241 117.206 42.0564 117.133 41.9016C117.059 41.7469 116.956 41.6082 116.829 41.4935L112.767 37.7933Z"/><path id="Vector_68" d="M121.972 45.985C121.725 45.7446 121.392 45.6123 121.047 45.6171C120.703 45.6219 120.374 45.7635 120.134 46.0106C119.893 46.2578 119.761 46.5904 119.766 46.9351C119.771 47.2799 119.912 47.6086 120.159 47.849L123.347 50.9491C123.47 51.0681 123.614 51.1618 123.773 51.2249C123.932 51.2881 124.101 51.3193 124.272 51.3169C124.443 51.3145 124.611 51.2786 124.768 51.211C124.925 51.1435 125.067 51.0458 125.186 50.9234C125.305 50.801 125.398 50.6563 125.462 50.4977C125.525 50.3391 125.556 50.1696 125.554 49.9989C125.551 49.8282 125.515 49.6596 125.448 49.5028C125.38 49.346 125.282 49.2041 125.16 49.085L121.972 45.985Z"/><path id="Vector_69" d="M96.7883 26.8878C97.0424 27.1205 97.3786 27.2428 97.7229 27.2278C98.0672 27.2128 98.3914 27.0617 98.6243 26.8077C98.8572 26.5537 98.9798 26.2176 98.965 25.8734C98.9503 25.5291 98.7994 25.2047 98.5456 24.9716L94.3205 21.0966C94.0664 20.8639 93.7302 20.7416 93.3859 20.7566C93.0416 20.7716 92.7174 20.9227 92.4845 21.1767C92.2516 21.4307 92.129 21.7668 92.1438 22.111C92.1585 22.4553 92.3094 22.7797 92.5632 23.0128L96.7883 26.8878Z"/><path id="Vector_70" d="M103.598 29.5505C103.472 29.4353 103.323 29.3462 103.162 29.2885C103.001 29.2307 102.83 29.2054 102.659 29.214C102.488 29.2226 102.32 29.265 102.165 29.3386C102.01 29.4122 101.872 29.5157 101.757 29.643C101.643 29.7704 101.555 29.9191 101.498 30.0807C101.441 30.2423 101.416 30.4135 101.426 30.5845C101.435 30.7555 101.479 30.923 101.553 31.0773C101.627 31.2316 101.732 31.3696 101.86 31.4835L105.96 35.1715C106.086 35.2867 106.235 35.3758 106.396 35.4335C106.557 35.4913 106.728 35.5166 106.899 35.508C107.07 35.4994 107.238 35.4571 107.393 35.3834C107.548 35.3098 107.686 35.2064 107.801 35.079C107.915 34.9517 108.004 34.8029 108.06 34.6413C108.117 34.4798 108.142 34.3085 108.132 34.1375C108.123 33.9665 108.079 33.799 108.005 33.6447C107.931 33.4904 107.826 33.3524 107.698 33.2385L103.598 29.5505Z"/><path id="Vector_71" d="M124.281 35.2422C124.536 35.4738 124.873 35.5945 125.218 35.5778C125.562 35.561 125.886 35.4081 126.117 35.1527C126.349 34.8973 126.47 34.5604 126.453 34.216C126.436 33.8716 126.283 33.548 126.028 33.3164L121.453 29.1665C121.326 29.0518 121.178 28.9631 121.018 28.9055C120.857 28.8479 120.687 28.8226 120.516 28.8309C120.346 28.8392 120.178 28.881 120.024 28.9539C119.87 29.0269 119.731 29.1295 119.616 29.256C119.502 29.3824 119.413 29.5302 119.355 29.6909C119.298 29.8517 119.273 30.0221 119.281 30.1927C119.289 30.3632 119.331 30.5304 119.404 30.6848C119.477 30.8391 119.579 30.9776 119.706 31.0923L124.281 35.2422Z"/><path id="Vector_72" d="M131.173 37.8101C130.926 37.5698 130.593 37.4374 130.249 37.4423C129.904 37.4471 129.575 37.5887 129.335 37.8358C129.094 38.083 128.962 38.4156 128.967 38.7603C128.972 39.1051 129.113 39.4338 129.36 39.6741L132.548 42.7742C132.671 42.8933 132.816 42.987 132.974 43.0501C133.133 43.1133 133.302 43.1445 133.473 43.1421C133.644 43.1397 133.812 43.1038 133.969 43.0362C134.126 42.9687 134.268 42.8709 134.387 42.7486C134.506 42.6262 134.6 42.4815 134.663 42.3229C134.726 42.1643 134.757 41.9948 134.755 41.8241C134.752 41.6534 134.716 41.4848 134.649 41.328C134.581 41.1712 134.483 41.0293 134.361 40.9102L131.173 37.8101Z"/><path id="Vector_73" d="M105.966 18.6934C106.089 18.8115 106.235 18.9042 106.394 18.9662C106.553 19.0282 106.722 19.0582 106.893 19.0546C107.064 19.0509 107.232 19.0137 107.388 18.9451C107.545 18.8764 107.686 18.7776 107.804 18.6543C107.922 18.5311 108.015 18.3858 108.077 18.2267C108.139 18.0676 108.169 17.8979 108.165 17.7272C108.162 17.5565 108.124 17.3882 108.056 17.2319C107.987 17.0756 107.888 16.9344 107.765 16.8163L105.373 14.5243C105.124 14.2857 104.791 14.1558 104.446 14.1631C104.102 14.1705 103.774 14.3144 103.535 14.5633C103.297 14.8123 103.167 15.1458 103.174 15.4905C103.181 15.8352 103.325 16.1629 103.574 16.4014L105.966 18.6934Z"/><path id="Vector_74" d="M115.158 26.9966C115.285 27.1118 115.433 27.2008 115.594 27.2585C115.755 27.3162 115.926 27.3415 116.097 27.3329C116.269 27.3242 116.436 27.2819 116.591 27.2083C116.745 27.1347 116.884 27.0313 116.999 26.904C117.113 26.7767 117.201 26.628 117.258 26.4665C117.315 26.305 117.34 26.1338 117.33 25.9628C117.321 25.7918 117.278 25.6244 117.203 25.4701C117.129 25.3158 117.025 25.1777 116.897 25.0638L112.797 21.3753C112.671 21.2602 112.522 21.1712 112.361 21.1135C112.2 21.0558 112.029 21.0305 111.858 21.0391C111.687 21.0477 111.519 21.09 111.364 21.1636C111.21 21.2372 111.071 21.3407 110.957 21.468C110.842 21.5953 110.754 21.744 110.697 21.9055C110.64 22.067 110.616 22.2382 110.625 22.4092C110.634 22.5802 110.678 22.7476 110.752 22.9019C110.826 23.0562 110.93 23.1942 111.058 23.3081L115.158 26.9966Z"/><path id="Vector_75" d="M133.478 26.9405C133.604 27.0565 133.752 27.1466 133.913 27.2054C134.074 27.2642 134.245 27.2906 134.416 27.2831C134.587 27.2756 134.755 27.2343 134.91 27.1617C135.065 27.089 135.205 26.9864 135.32 26.8598C135.435 26.7331 135.525 26.5849 135.583 26.4236C135.64 26.2624 135.666 26.0913 135.657 25.9202C135.649 25.749 135.607 25.5813 135.533 25.4265C135.46 25.2718 135.356 25.1331 135.229 25.0184L131.167 21.3182C131.041 21.2021 130.893 21.1121 130.732 21.0533C130.572 20.9945 130.401 20.9681 130.229 20.9756C130.058 20.9831 129.89 21.0244 129.735 21.097C129.58 21.1697 129.441 21.2723 129.325 21.3989C129.21 21.5256 129.121 21.6738 129.063 21.835C129.005 21.9963 128.979 22.1674 128.988 22.3385C128.996 22.5096 129.039 22.6774 129.112 22.8321C129.186 22.9869 129.289 23.1256 129.416 23.2403L133.478 26.9405Z"/><path id="Vector_76" d="M140.372 29.5099C140.125 29.2695 139.793 29.1372 139.448 29.142C139.103 29.1468 138.774 29.2884 138.534 29.5355C138.294 29.7827 138.161 30.1153 138.166 30.46C138.171 30.8048 138.313 31.1335 138.56 31.3739L141.748 34.474C141.995 34.7143 142.327 34.8467 142.672 34.8418C143.017 34.837 143.346 34.6954 143.586 34.4483C143.826 34.2011 143.959 33.8685 143.954 33.5238C143.949 33.179 143.808 32.8503 143.56 32.61L140.372 29.5099Z"/><path id="Vector_77" d="M80.0731 46.3229C79.9557 46.199 79.815 46.0993 79.6592 46.0297C79.5033 45.9601 79.3352 45.9219 79.1645 45.9172C78.9939 45.9126 78.824 45.9416 78.6645 46.0026C78.5051 46.0636 78.3592 46.1554 78.2352 46.2728L75.4101 48.9481C75.2861 49.0655 75.1865 49.2061 75.1169 49.362C75.0473 49.5179 75.009 49.686 75.0044 49.8566C74.9997 50.0273 75.0287 50.1972 75.0898 50.3566C75.1508 50.5161 75.2426 50.6619 75.36 50.7859C75.4774 50.9099 75.618 51.0095 75.7739 51.0791C75.9298 51.1487 76.0978 51.1869 76.2685 51.1916C76.4392 51.1962 76.6091 51.1672 76.7685 51.1062C76.9279 51.0452 77.0738 50.9534 77.1978 50.836L80.023 48.1607C80.2733 47.9236 80.4192 47.5968 80.4286 47.2522C80.438 46.9075 80.3101 46.5733 80.0731 46.3229Z"/><path id="Vector_78" d="M70.8973 38.048C70.7799 37.9241 70.6393 37.8244 70.4834 37.7548C70.3275 37.6852 70.1594 37.647 69.9888 37.6423C69.8181 37.6377 69.6482 37.6667 69.4887 37.7277C69.3293 37.7887 69.1834 37.8805 69.0595 37.9979L66.2343 40.6732C65.9839 40.9103 65.838 41.2371 65.8286 41.5817C65.8192 41.9264 65.9471 42.2607 66.1842 42.511C66.4213 42.7613 66.7481 42.9073 67.0927 42.9167C67.4374 42.9261 67.7716 42.7981 68.022 42.5611L70.8472 39.8858C71.0975 39.6487 71.2435 39.3219 71.2529 38.9773C71.2623 38.6326 71.1344 38.2984 70.8973 38.048Z"/><path id="Vector_79" d="M61.7235 29.7732C61.6062 29.6492 61.4655 29.5496 61.3096 29.4799C61.1538 29.4103 60.9857 29.3721 60.815 29.3674C60.6444 29.3628 60.4745 29.3918 60.315 29.4528C60.1555 29.5138 60.0097 29.6056 59.8857 29.723L57.0605 32.3978C56.9365 32.5152 56.8369 32.6558 56.7673 32.8117C56.6977 32.9676 56.6594 33.1356 56.6548 33.3063C56.6501 33.4769 56.6791 33.6468 56.7401 33.8063C56.8011 33.9657 56.8929 34.1116 57.0103 34.2356C57.1277 34.3595 57.2683 34.4592 57.4242 34.5288C57.5801 34.5984 57.7481 34.6366 57.9188 34.6413C58.0895 34.646 58.2594 34.617 58.4188 34.556C58.5783 34.495 58.7241 34.4032 58.8481 34.2858L61.6733 31.611C61.7973 31.4936 61.8969 31.353 61.9665 31.1971C62.0362 31.0412 62.0744 30.8731 62.0791 30.7025C62.0837 30.5318 62.0547 30.3619 61.9937 30.2025C61.9327 30.043 61.8409 29.8971 61.7235 29.7732Z"/><path id="Vector_80" d="M167.457 50.8674C168.391 40.9707 169.918 23.1201 170.25 18.063C170.265 17.8308 170.273 17.6051 170.273 17.386C170.284 16.599 170.166 15.8156 169.922 15.0674C169.61 14.1099 168.995 13.2799 168.171 12.7025C167.439 12.2138 166.597 11.9149 165.721 11.8329C165.496 11.8078 165.269 11.7953 165.043 11.7952C163.793 11.7727 162.579 12.2096 161.63 13.023C160.527 14.0671 159.87 15.4966 159.796 17.0133C159.387 21.2457 158.04 37.5935 157.171 48.2288C156.46 45.4289 155.498 42.6988 154.297 40.0717C154.225 39.9169 154.123 39.7778 153.997 39.6624C153.872 39.5469 153.724 39.4574 153.564 39.3988C153.24 39.2806 152.882 39.2959 152.57 39.4414C152.257 39.5868 152.015 39.8505 151.897 40.1744C151.779 40.4983 151.794 40.8559 151.94 41.1685L151.939 41.1684C155.379 48.557 156.709 57.2897 156.708 66.6904C156.828 73.1942 155.969 79.6792 154.161 85.9278C151.642 94.6927 145.808 102.132 137.896 106.667C129.336 111.676 117.125 114.602 100.078 114.6C88.7189 114.601 79.4997 113.302 72.0865 110.95C60.9632 107.411 53.9106 101.573 49.5242 94.04C45.1435 86.5031 43.4561 77.166 43.4577 66.6904C43.4563 57.26 44.7962 48.508 48.2562 41.1C48.3286 40.9452 48.3698 40.7777 48.3774 40.6071C48.3851 40.4364 48.359 40.2659 48.3007 40.1053C48.2424 39.9447 48.1531 39.7972 48.0377 39.6712C47.9224 39.5451 47.7833 39.4431 47.6285 39.3708C47.4737 39.2986 47.3061 39.2576 47.1355 39.2501C46.9648 39.2427 46.7943 39.2689 46.6338 39.3274C46.4733 39.3859 46.3258 39.4754 46.1999 39.5909C46.0741 39.7064 45.9722 39.8456 45.9001 40.0005C44.5984 42.832 43.5727 45.7825 42.8371 48.8108C41.9706 38.2005 40.5818 21.3244 40.165 17.013C40.0908 15.4964 39.4339 14.067 38.3314 13.023C37.3823 12.2095 36.1677 11.7726 34.9178 11.7951C34.6915 11.7952 34.4653 11.8078 34.2404 11.8328C33.0398 11.9315 31.9151 12.4595 31.0721 13.32C30.6072 13.8222 30.2551 14.4179 30.0393 15.0673C29.7951 15.8155 29.6765 16.5989 29.6883 17.3859C29.6883 17.6052 29.6959 17.8309 29.7111 18.0629C30.0429 23.12 31.5696 40.9706 32.5041 50.8672C32.6366 53.3246 33.2121 55.7379 34.203 57.9906C34.5496 58.7146 35.0161 59.3748 35.583 59.9432C34.9918 60.3988 34.4844 60.9537 34.0834 61.5832C33.5628 62.527 33.2198 63.5582 33.0712 64.6257C32.8435 66.0159 32.7348 67.4231 32.7465 68.8317C32.7496 70.2601 32.8352 71.687 33.0027 73.1055C33.2669 75.5052 33.8058 77.8666 34.609 80.1433C34.9177 81.0108 35.298 81.851 35.746 82.6553C36.0936 83.3057 36.5496 83.8921 37.0942 84.3893C38.3118 85.3134 39.7273 85.9422 41.2292 86.2262C41.9732 86.3948 42.7276 86.5131 43.4875 86.5804C43.4997 86.6201 43.5094 86.6612 43.5217 86.7008C46.237 96.0828 52.4869 104.045 60.9553 108.911C68.5565 113.354 78.639 116.141 91.8172 116.949V119.52C88.8337 119.706 86.0541 119.956 83.7398 120.27C82.4229 120.448 81.2527 120.646 80.26 120.866C79.4141 121.033 78.5888 121.292 77.7986 121.637C77.1974 121.951 76.6862 122.414 76.3134 122.981C75.7519 123.822 75.2937 124.728 74.9486 125.679C74.8798 125.688 74.8087 125.689 74.7408 125.701C74.6642 124.945 74.4002 124.221 73.9728 123.594C73.6846 123.191 73.3101 122.858 72.8767 122.619C72.4195 122.373 71.9159 122.225 71.3981 122.186C70.9952 122.149 70.5925 122.131 70.19 122.131C68.2004 122.123 66.2385 122.598 64.4719 123.513C61.3814 125.256 58.9081 127.915 57.3931 131.123C55.1446 135.781 53.7149 140.792 53.1665 145.935C53.0295 146.937 53.2322 147.955 53.7421 148.829C54.252 149.702 55.0398 150.379 55.9796 150.752C55.8469 150.802 55.7097 150.848 55.5818 150.903C55.0797 151.117 54.6082 151.396 54.1798 151.734C53.7468 152.074 53.3908 152.503 53.1355 152.991L53.1322 152.997C52.7253 153.878 52.4338 154.807 52.2647 155.762C51.7143 159.165 51.4669 162.61 51.5254 166.057C51.5255 168.3 51.5952 169.903 51.5957 169.917L51.5964 169.93C51.619 171.025 51.9977 172.083 52.6751 172.944C53.4067 173.788 54.4198 174.338 55.5261 174.491L55.5313 174.492C55.82 174.54 56.1371 174.584 56.4673 174.626C56.4005 174.79 56.3684 174.967 56.3729 175.145C56.4115 175.784 56.5083 176.418 56.662 177.04C56.8969 178.08 57.2364 179.251 57.5577 180.265C57.7184 180.772 57.8743 181.238 58.0109 181.627C58.1486 182.018 58.2621 182.322 58.3586 182.549C58.6628 183.191 59.108 183.756 59.661 184.202C60.4758 184.87 61.3586 185.451 62.2948 185.935C63.1883 186.416 64.0345 186.808 64.5572 187.059L64.558 187.059C65.1866 187.328 65.8667 187.455 66.5499 187.431C67.4 187.416 68.2467 187.32 69.0786 187.145C69.4093 187.079 69.6869 187.014 69.8971 186.962C69.9792 187.803 70.0669 188.63 70.1673 189.424C70.2106 189.766 70.388 190.077 70.6605 190.288C70.933 190.499 71.2782 190.594 71.6203 190.55C71.9623 190.507 72.2732 190.33 72.4845 190.057C72.6957 189.785 72.7901 189.44 72.7468 189.097V189.097C72.138 183.764 71.8546 178.399 71.8982 173.032C71.8982 172.897 71.9003 172.76 71.9005 172.625C75.8461 173.764 79.8931 174.517 83.9844 174.874C89.2687 175.389 94.5757 175.636 99.8849 175.615C106.733 175.632 113.576 175.267 120.384 174.523C122.899 174.23 125.106 173.886 126.954 173.502C127.047 173.493 127.139 173.489 127.233 173.478C127.334 173.458 127.431 173.426 127.524 173.383C127.612 173.363 127.712 173.345 127.798 173.326C128.677 173.132 129.543 172.886 130.392 172.588C130.417 172.578 130.436 172.568 130.461 172.559C130.461 172.727 130.463 172.898 130.463 173.066C130.507 178.422 130.224 183.776 129.617 189.098C129.596 189.267 129.608 189.439 129.653 189.604C129.698 189.768 129.775 189.922 129.879 190.057C130.091 190.33 130.402 190.507 130.744 190.55C131.086 190.594 131.431 190.499 131.703 190.288C131.838 190.183 131.951 190.053 132.036 189.905C132.121 189.757 132.175 189.593 132.197 189.424C132.297 188.633 132.384 187.809 132.466 186.972C132.672 187.022 132.931 187.082 133.243 187.145C134.075 187.32 134.922 187.416 135.772 187.432C136.455 187.455 137.135 187.328 137.764 187.059L137.765 187.059C138.464 186.723 139.727 186.144 140.933 185.421C141.542 185.064 142.12 184.656 142.661 184.202C143.214 183.756 143.659 183.191 143.963 182.549C144.09 182.251 144.254 181.8 144.453 181.214C144.749 180.341 145.104 179.207 145.395 178.113C145.54 177.565 145.67 177.028 145.768 176.53C145.865 176.074 145.926 175.611 145.949 175.145C145.953 174.967 145.921 174.79 145.854 174.626C146.183 174.584 146.499 174.54 146.787 174.492L146.792 174.492C147.899 174.338 148.912 173.788 149.643 172.944C150.321 172.084 150.7 171.026 150.722 169.931L150.723 169.917C150.724 169.904 150.793 168.3 150.793 166.057C150.793 164.041 150.738 161.513 150.521 159.139C150.425 158.006 150.269 156.879 150.054 155.762C149.885 154.807 149.594 153.878 149.187 152.997C148.934 152.507 148.579 152.077 148.147 151.735C147.604 151.313 146.998 150.98 146.351 150.748C147.287 150.373 148.071 149.697 148.58 148.827C149.09 147.956 149.295 146.942 149.164 145.942L149.163 145.936C148.032 137.593 145.82 131.713 142.844 127.827C141.517 126.038 139.811 124.564 137.847 123.513C136.08 122.598 134.118 122.124 132.128 122.131C131.726 122.131 131.323 122.149 130.92 122.186C130.368 122.227 129.832 122.393 129.352 122.67C128.686 123.075 128.175 123.69 127.898 124.419C127.739 124.831 127.632 125.262 127.58 125.7C127.522 125.691 127.461 125.69 127.402 125.682C127.286 125.384 127.171 125.086 127.051 124.816C126.766 124.149 126.412 123.514 125.995 122.92C125.629 122.38 125.135 121.939 124.558 121.638C123.737 121.283 122.88 121.02 122.003 120.854C121.885 120.594 121.744 120.346 121.581 120.112C121.295 119.704 120.932 119.355 120.512 119.087C119.978 118.754 119.363 118.576 118.735 118.573L118.742 118.573L118.687 118.573C117.824 118.562 116.984 118.849 116.309 119.386C116.111 119.551 115.934 119.74 115.782 119.948C113.972 119.764 111.991 119.609 109.907 119.491V116.835C116.335 116.434 122.696 115.291 128.861 113.429C140.475 109.758 148.191 103.455 152.889 95.3458C154.5 92.5374 155.783 89.5531 156.712 86.4518C156.905 86.5495 157.121 86.5958 157.338 86.5863C158.122 86.5215 158.901 86.4012 159.669 86.2263C161.17 85.9422 162.586 85.3134 163.803 84.3892C164.348 83.892 164.803 83.3057 165.151 82.6554C165.849 81.374 166.399 80.0177 166.791 78.6125C167.313 76.8113 167.682 74.9692 167.894 73.1059C168.062 71.6867 168.147 70.259 168.151 68.83C168.162 67.4217 168.054 66.0151 167.826 64.6253C167.678 63.5581 167.335 62.5271 166.815 61.5835C166.269 60.7443 165.548 60.0329 164.702 59.4981C164.688 59.4891 164.674 59.4824 164.66 59.4735C165.396 58.6396 165.957 57.667 166.312 56.6128C166.932 54.753 167.316 52.8228 167.457 50.8674ZM35.0926 50.6227C34.1609 40.7597 32.632 22.8758 32.3056 17.8929C32.2939 17.7144 32.2881 17.5454 32.2884 17.3859C32.2771 16.8858 32.3482 16.3872 32.499 15.9101C32.6288 15.4783 32.8994 15.1024 33.2675 14.842C33.6454 14.5987 34.0776 14.4527 34.5257 14.4171L34.5267 14.417C34.6566 14.4025 34.7872 14.3952 34.9179 14.3952C35.5347 14.3728 36.1381 14.5787 36.6124 14.9736C37.2188 15.5827 37.5647 16.4036 37.5771 17.2629C37.8836 20.4315 38.7325 30.602 39.503 39.9618C39.8884 44.6432 40.2545 49.1253 40.5242 52.4371C40.7329 54.999 40.8825 56.8432 40.9403 57.5558C40.1534 57.7425 39.3799 57.9817 38.625 58.2718C38.428 58.3482 38.2192 58.4497 38.0154 58.5385C37.3459 58.1464 36.8235 57.5455 36.5286 56.8278C35.6853 54.8611 35.199 52.7599 35.0926 50.6227ZM41.5965 83.642C40.5783 83.4384 39.6161 83.0169 38.7761 82.4066L38.7758 82.4064C38.465 82.1021 38.2042 81.7506 38.0033 81.3649C37.4068 80.2585 36.9361 79.0887 36.6 77.8775C36.1198 76.2179 35.7803 74.5207 35.5851 72.8041C35.4293 71.4857 35.3496 70.1593 35.3465 68.8317C35.3351 67.5738 35.4306 66.3172 35.632 65.0754C35.7294 64.3345 35.9535 63.6158 36.2945 62.9509C36.6438 62.4325 37.0995 61.9945 37.6312 61.666C38.525 61.1059 39.4908 60.67 40.5021 60.3702C40.7149 60.304 40.9121 60.2478 41.0911 60.1996C40.9394 62.3314 40.8616 64.495 40.8577 66.6904C40.788 72.4718 41.4205 78.2404 42.7413 83.8694C42.406 83.8162 42.0132 83.7432 41.5965 83.642ZM60.5388 149.788C60.5932 149.759 60.6489 149.729 60.7148 149.699C61.1688 149.498 61.6609 149.398 62.1573 149.404C62.3672 149.405 62.5769 149.42 62.7847 149.449L62.7854 149.45C63.5588 149.546 64.3021 149.809 64.9644 150.22C65.0575 150.279 65.1324 150.334 65.2034 150.387L65.1339 151.743C64.5625 151.904 63.971 151.983 63.3774 151.976C63.1477 151.976 62.9018 151.966 62.6395 151.943C61.9148 151.903 61.2074 151.706 60.5667 151.366C60.539 151.349 60.5237 151.337 60.4992 151.322L60.5388 149.788ZM70.2795 151.829L70.259 151.815L70.2817 151.804L70.2795 151.829ZM72.3776 132.334C72.3696 131.304 72.6902 130.298 73.2928 129.462C73.4724 129.229 73.6817 129.02 73.9153 128.841C73.7307 129.502 73.5493 130.192 73.373 130.927L73.3627 130.974L73.3451 131.062C73.1267 131.991 72.9155 132.978 72.7103 134.012C72.4961 133.478 72.3833 132.909 72.3776 132.334V132.334ZM55.7426 146.286L55.743 146.283C56.8234 138.223 58.9588 132.764 61.5387 129.41C62.6323 127.924 64.042 126.698 65.6663 125.822C67.0636 125.098 68.616 124.723 70.19 124.731C70.5137 124.731 70.8395 124.746 71.1675 124.775L71.1712 124.775C71.3286 124.784 71.4826 124.825 71.623 124.897C71.7828 124.99 71.9067 125.134 71.9752 125.306C72.1131 125.636 72.1889 125.988 72.1989 126.346C72.2113 126.497 72.2505 126.644 72.3146 126.782C71.5946 127.352 71.0076 128.073 70.5944 128.894C70.0557 129.961 69.7758 131.139 69.7776 132.334C69.7721 133.426 70.0158 134.504 70.4902 135.486C70.8731 136.27 71.4097 136.968 72.068 137.54C71.5605 140.569 71.1064 143.896 70.721 147.408C70.663 147.524 70.6232 147.648 70.6028 147.776C70.543 148.268 70.2969 148.719 69.9149 149.036C69.5201 149.372 69.0188 149.558 68.5 149.561L68.3393 149.555L67.777 149.5C67.732 149.312 67.6455 149.138 67.5238 148.989C67.184 148.615 66.7931 148.292 66.3627 148.028C65.3856 147.417 64.2881 147.023 63.145 146.875C62.8178 146.828 62.4877 146.805 62.1573 146.805C61.198 146.796 60.2507 147.017 59.3947 147.45C59.0049 147.643 58.6463 147.894 58.3312 148.194C58.2315 148.299 58.1502 148.42 58.0906 148.552L57.3947 148.483C56.9335 148.407 56.5136 148.172 56.2083 147.818C55.9031 147.464 55.7319 147.014 55.7248 146.547L55.7426 146.286ZM54.6734 171.281C54.3562 170.85 54.1875 170.327 54.1928 169.792C54.1922 169.778 54.1887 169.696 54.1829 169.532C54.1639 168.993 54.1254 167.699 54.1254 166.057C54.1252 164.091 54.1812 161.624 54.3872 159.376C54.4752 158.336 54.6176 157.3 54.8137 156.275C54.9393 155.548 55.1546 154.84 55.4546 154.167C55.5444 154.007 55.6667 153.867 55.8137 153.756C56.2289 153.449 56.6945 153.217 57.1895 153.07C57.5312 152.96 57.8788 152.868 58.2307 152.796C58.5267 153.124 58.8748 153.4 59.2607 153.614C60.2292 154.146 61.3026 154.459 62.4053 154.532C62.7465 154.563 63.0708 154.576 63.3773 154.576C64.6572 154.624 65.9275 154.338 67.064 153.748C67.2189 153.651 67.3514 153.523 67.453 153.371C67.9972 153.55 68.518 153.794 69.0044 154.097C69.2577 154.254 69.4814 154.454 69.6651 154.689C69.7571 154.802 69.8134 154.941 69.8267 155.086C69.8381 155.267 69.8875 155.443 69.9715 155.603C69.5714 160.982 69.3362 166.523 69.305 171.844C69.1272 171.916 68.9436 171.972 68.7563 172.013C67.9998 172.171 67.2325 172.272 66.461 172.317C65.5261 172.385 64.4629 172.417 63.3671 172.417C60.8899 172.433 58.4148 172.269 55.9612 171.928C55.4667 171.879 55.0079 171.648 54.6733 171.281L54.6734 171.281ZM69.5875 184.357L69.5753 184.361C69.4943 184.383 69.0423 184.505 68.4537 184.618C67.8268 184.746 67.1896 184.817 66.5499 184.831C66.2552 184.847 65.9602 184.807 65.6803 184.714L65.6812 184.714C64.9552 184.367 63.7762 183.822 62.7266 183.191C62.2457 182.911 61.7889 182.591 61.361 182.235C61.1119 182.043 60.9041 181.803 60.7499 181.529L60.7494 181.528C60.6787 181.364 60.5144 180.923 60.3308 180.379C60.0522 179.558 59.7103 178.463 59.4399 177.445C59.3047 176.937 59.1872 176.446 59.1045 176.027C59.0364 175.712 58.992 175.393 58.9719 175.072C58.9618 175 58.9455 174.93 58.9231 174.861C60.3311 174.96 61.8669 175.016 63.3671 175.017C65.012 175.035 66.6562 174.942 68.2886 174.739C68.6519 174.686 68.9886 174.625 69.3068 174.552C69.3211 176.39 69.3609 178.191 69.4298 179.939C69.0358 179.992 68.639 180.02 68.2416 180.024C67.9929 180.029 67.7445 180.007 67.5009 179.957C67.2704 179.425 66.9693 178.692 66.7138 178.059C66.4223 177.336 66.1935 176.755 66.193 176.753C66.131 176.594 66.038 176.448 65.9195 176.325C65.801 176.201 65.6593 176.102 65.5025 176.033C65.3457 175.965 65.1769 175.928 65.0057 175.925C64.8346 175.921 64.6645 175.952 64.5052 176.015C64.3459 176.077 64.2005 176.171 64.0775 176.29C63.9545 176.409 63.8561 176.551 63.7882 176.708C63.7202 176.865 63.6839 177.034 63.6814 177.206C63.679 177.377 63.7103 177.547 63.7737 177.706V177.706C63.7778 177.715 64.6968 180.053 65.2202 181.232C65.3745 181.573 65.6202 181.865 65.93 182.074C66.2894 182.31 66.6947 182.467 67.1191 182.534C67.4898 182.597 67.8655 182.627 68.2416 182.624C68.6814 182.62 69.1208 182.593 69.5578 182.543C69.5932 183.154 69.6324 183.756 69.6754 184.351C69.6459 184.357 69.617 184.349 69.5875 184.357L69.5875 184.357ZM84.2523 172.288C84.1967 172.282 84.1434 172.275 84.088 172.27C86.4359 171.455 88.7073 170.438 91.1843 169.585C94.3516 168.437 97.6931 167.844 101.062 167.832C105.44 167.904 109.759 168.854 113.764 170.625C115.124 171.159 116.457 171.704 117.82 172.181C112.551 172.699 106.248 173.016 99.8849 173.015C94.6651 173.036 89.4476 172.793 84.2523 172.288V172.288ZM141.783 149.788L141.791 150.093L141.791 150.098L141.791 150.1L141.823 151.324C141.167 151.694 140.434 151.905 139.682 151.943C139.42 151.966 139.174 151.976 138.944 151.976C138.351 151.983 137.759 151.904 137.188 151.742L137.127 150.564L137.128 150.555L137.127 150.549L137.118 150.386C137.833 149.875 138.664 149.553 139.536 149.45L139.537 149.449C139.745 149.42 139.955 149.405 140.165 149.404C140.71 149.396 141.249 149.518 141.737 149.762C141.755 149.771 141.766 149.779 141.783 149.789V149.788ZM129.633 133.948C129.38 132.688 129.118 131.492 128.85 130.393L128.848 130.386C128.715 129.853 128.58 129.343 128.443 128.851C128.848 129.187 129.178 129.604 129.412 130.076C129.763 130.777 129.945 131.55 129.944 132.334C129.937 132.886 129.832 133.433 129.633 133.948V133.948ZM143.35 175.072V175.072C143.314 175.543 143.238 176.01 143.124 176.468C142.916 177.392 142.592 178.516 142.286 179.48C142.133 179.962 141.984 180.406 141.858 180.766C141.733 181.123 141.624 181.408 141.572 181.528C141.418 181.802 141.21 182.043 140.961 182.235C140.288 182.778 139.562 183.251 138.793 183.646C137.982 184.084 137.187 184.453 136.641 184.714L136.641 184.714C136.362 184.807 136.067 184.847 135.772 184.831C135.093 184.815 134.417 184.736 133.752 184.595C133.449 184.534 133.188 184.473 133.007 184.428C132.916 184.406 132.845 184.387 132.798 184.375L132.747 184.361L132.734 184.357C132.719 184.353 132.703 184.358 132.688 184.354C132.731 183.76 132.77 183.158 132.805 182.547C133.228 182.595 133.654 182.621 134.08 182.624C134.588 182.634 135.096 182.573 135.588 182.444C135.874 182.365 136.145 182.24 136.391 182.074C136.701 181.865 136.947 181.573 137.101 181.232C137.624 180.053 138.544 177.715 138.548 177.706C138.611 177.547 138.641 177.377 138.638 177.207C138.635 177.036 138.599 176.867 138.531 176.711C138.462 176.554 138.364 176.413 138.241 176.294C138.119 176.176 137.974 176.082 137.815 176.02C137.656 175.957 137.486 175.927 137.316 175.93C137.145 175.933 136.976 175.969 136.82 176.037C136.663 176.105 136.522 176.204 136.403 176.326C136.285 176.449 136.191 176.594 136.129 176.753V176.753C136.128 176.754 135.899 177.336 135.608 178.058C135.352 178.692 135.051 179.424 134.821 179.956C134.771 179.969 134.721 179.979 134.671 179.987C134.475 180.013 134.277 180.026 134.08 180.024C133.696 180.019 133.313 179.992 132.933 179.941C133.002 178.192 133.041 176.39 133.055 174.552C133.884 174.729 134.725 174.846 135.571 174.903C136.614 174.982 137.768 175.017 138.951 175.017C140.453 175.016 141.99 174.96 143.399 174.861C143.376 174.93 143.36 175 143.35 175.072V175.072ZM146.862 154.162C147.163 154.837 147.379 155.546 147.505 156.275C148.019 159.509 148.25 162.782 148.193 166.057C148.193 167.151 148.176 168.092 148.159 168.756C148.151 169.089 148.142 169.352 148.136 169.532C148.13 169.695 148.127 169.776 148.126 169.792C148.131 170.327 147.963 170.85 147.645 171.281C147.311 171.648 146.852 171.879 146.357 171.928C143.904 172.27 141.428 172.433 138.951 172.417C137.43 172.435 135.91 172.351 134.4 172.166C133.954 172.112 133.515 172.015 133.088 171.875L133.056 171.862C133.024 166.505 132.786 160.925 132.38 155.511C132.442 155.377 132.48 155.233 132.492 155.086C132.505 154.941 132.562 154.803 132.653 154.689C132.983 154.299 133.397 153.989 133.864 153.783C134.189 153.623 134.523 153.484 134.865 153.367C134.967 153.52 135.101 153.65 135.257 153.748C136.394 154.339 137.664 154.624 138.944 154.576C139.251 154.576 139.575 154.563 139.916 154.532C141.019 154.459 142.093 154.146 143.061 153.614C143.446 153.4 143.792 153.126 144.088 152.8C144.641 152.907 145.181 153.07 145.702 153.285C145.99 153.405 146.262 153.563 146.509 153.755C146.654 153.864 146.774 154.003 146.862 154.162V154.162ZM130.115 126.6C130.09 126.1 130.198 125.603 130.427 125.158C130.489 125.055 130.575 124.969 130.677 124.907C130.822 124.828 130.983 124.783 131.147 124.775L131.151 124.775C131.479 124.746 131.805 124.731 132.128 124.731C133.703 124.723 135.255 125.098 136.652 125.822C139.268 127.321 141.355 129.594 142.625 132.328C144.733 136.718 146.073 141.437 146.586 146.28L146.602 146.534C146.597 147.004 146.426 147.458 146.119 147.814C145.812 148.171 145.389 148.408 144.925 148.483L144.232 148.551C144.172 148.419 144.091 148.298 143.991 148.193C143.676 147.894 143.317 147.643 142.927 147.45C142.071 147.017 141.124 146.796 140.165 146.804C139.834 146.805 139.504 146.828 139.177 146.875C138.034 147.023 136.936 147.416 135.959 148.028C135.529 148.292 135.138 148.615 134.798 148.988C134.676 149.138 134.59 149.312 134.545 149.5L133.98 149.555L133.82 149.561C133.302 149.557 132.801 149.371 132.407 149.035C132.024 148.719 131.776 148.267 131.716 147.774C131.701 147.711 131.681 147.649 131.656 147.588C131.265 143.998 130.803 140.597 130.286 137.509C130.929 136.943 131.454 136.256 131.831 135.486C132.306 134.503 132.549 133.425 132.544 132.334C132.553 130.738 132.048 129.181 131.104 127.895C130.8 127.504 130.45 127.153 130.062 126.847C130.088 126.767 130.106 126.684 130.115 126.6ZM123.437 123.984C123.621 124.106 123.777 124.266 123.894 124.452C124.396 125.213 124.799 126.035 125.092 126.899C125.578 128.245 125.989 129.618 126.324 131.01C126.749 132.756 127.165 134.749 127.548 136.916C127.536 137.111 127.57 137.307 127.647 137.487C129.347 148.151 130.278 158.924 130.433 169.722C130.136 169.893 129.824 170.034 129.501 170.145C128.55 170.469 127.58 170.73 126.595 170.925C126.109 170.97 125.632 170.998 125.169 170.998C123.405 170.979 121.654 170.694 119.974 170.153C117.429 169.383 114.845 168.172 111.821 167.127C108.369 165.884 104.73 165.243 101.062 165.232C96.3724 165.305 91.7448 166.316 87.4522 168.206C85.6101 168.933 83.9107 169.64 82.2443 170.155C80.6169 170.691 78.9172 170.976 77.2039 170.998C76.5998 170.998 75.9963 170.958 75.3973 170.88C74.2236 170.615 73.0645 170.289 71.9248 169.903C72.0694 158.989 73.0102 148.1 74.7396 137.322C74.7571 137.255 74.769 137.186 74.7751 137.117C75.1263 135.116 75.4959 133.27 75.8825 131.628L75.8917 131.586L75.9058 131.516C76.3233 129.641 76.8937 127.803 77.6114 126.021C77.8318 125.484 78.1063 124.971 78.4307 124.49C78.5534 124.289 78.7181 124.117 78.9133 123.985L78.9195 123.982C79.5329 123.725 80.1713 123.531 80.8245 123.404C83.4668 122.886 86.1385 122.532 88.8245 122.342C89.9592 123.307 91.2062 124.13 92.5386 124.795L92.5448 124.798C93.0998 125.072 93.6695 125.316 94.2512 125.527L94.251 125.528L94.257 125.53L94.2676 125.534L94.2678 125.533C96.3147 126.292 98.4812 126.678 100.664 126.671C102.935 126.663 105.188 126.282 107.335 125.541C107.952 125.335 108.557 125.095 109.147 124.823C110.471 124.247 111.7 123.477 112.796 122.537C112.863 122.466 112.921 122.388 112.97 122.303C113.752 122.365 114.503 122.433 115.231 122.505C115.347 123.062 115.561 123.593 115.863 124.075C115.802 124.13 115.724 124.196 115.625 124.268C115.199 124.561 114.788 124.875 114.394 125.21C114.134 125.443 113.912 125.713 113.735 126.012C113.516 126.386 113.401 126.81 113.399 127.242C113.406 127.709 113.53 128.166 113.761 128.572C114.007 129.004 114.315 129.396 114.675 129.739C114.941 129.986 115.171 130.27 115.357 130.582C115.422 130.682 115.459 130.796 115.466 130.915C115.452 131.065 115.401 131.21 115.316 131.335C115.128 131.687 114.695 132.214 114.255 132.927C113.711 133.78 113.386 134.754 113.306 135.762C113.292 135.966 113.286 136.17 113.286 136.374C113.294 137.11 113.356 137.844 113.47 138.571L112.293 138.589L112.269 138.588C111.036 138.591 109.854 139.079 108.979 139.948C108.104 140.817 107.607 141.996 107.596 143.229V143.247L107.632 148.699C107.296 148.72 106.98 148.871 106.754 149.122C106.528 149.372 106.408 149.701 106.421 150.038C106.434 150.375 106.578 150.694 106.822 150.926C107.067 151.159 107.392 151.287 107.73 151.282L110.052 151.264L110.087 155.781C110.09 156.125 110.23 156.455 110.475 156.697C110.721 156.939 111.053 157.073 111.397 157.07C111.742 157.068 112.072 156.928 112.314 156.682C112.556 156.437 112.69 156.105 112.687 155.76L112.652 151.244L117.196 151.209L117.313 155.89C117.322 156.235 117.467 156.562 117.717 156.799C117.967 157.037 118.301 157.166 118.645 157.157C118.99 157.148 119.317 157.003 119.555 156.753C119.792 156.503 119.921 156.169 119.912 155.825L119.796 151.189L122.282 151.17C122.626 151.167 122.956 151.028 123.198 150.782C123.44 150.536 123.574 150.205 123.572 149.86C123.567 149.545 123.447 149.243 123.234 149.011C123.021 148.779 122.731 148.633 122.418 148.6L122.274 143.195L122.274 143.184L122.273 143.18L122.273 143.175H122.273C122.269 141.944 121.779 140.764 120.911 139.891C120.043 139.018 118.866 138.522 117.635 138.511L117.606 138.511L116.095 138.533C115.969 137.82 115.899 137.098 115.886 136.374C115.886 136.223 115.89 136.079 115.9 135.946C115.988 135.146 116.307 134.387 116.816 133.764C117.094 133.388 117.352 132.998 117.59 132.596C117.89 132.086 118.055 131.507 118.066 130.915C118.059 130.365 117.915 129.826 117.645 129.346C117.338 128.806 116.952 128.315 116.501 127.888C116.323 127.724 116.169 127.535 116.043 127.328L116.018 127.27L116.039 127.24C116.399 126.908 116.787 126.607 117.197 126.34C117.504 126.118 117.782 125.859 118.023 125.567C118.356 125.164 118.542 124.659 118.549 124.136C118.541 123.674 118.402 123.224 118.147 122.839C119.161 122.974 120.086 123.119 120.873 123.272C121.751 123.413 122.61 123.651 123.435 123.983L123.437 123.984ZM117.618 141.111C118.164 141.118 118.685 141.339 119.07 141.727C119.454 142.115 119.671 142.638 119.674 143.184L119.674 143.201L119.674 143.244L119.816 148.589L111.396 148.654C111.373 148.653 111.354 148.641 111.331 148.641C111.308 148.642 111.289 148.654 111.266 148.655L110.232 148.663L110.196 143.247C110.203 142.7 110.424 142.179 110.812 141.794C111.199 141.409 111.723 141.191 112.269 141.188L112.278 141.188L112.315 141.188L117.618 141.111ZM108.307 122.34C108.226 122.378 108.153 122.419 108.07 122.456L108.062 122.46C107.555 122.694 107.035 122.9 106.506 123.077L106.494 123.081C104.618 123.729 102.649 124.063 100.664 124.071C98.7867 124.078 96.9232 123.747 95.1631 123.093L95.1465 123.087C94.6507 122.907 94.1652 122.699 93.6924 122.465C93.4354 122.337 93.1795 122.2 92.9245 122.054L93.011 122.049C93.0478 122.052 93.0796 122.07 93.1172 122.07C93.3855 122.069 93.6467 121.984 93.8643 121.827C94.082 121.671 94.2453 121.45 94.3314 121.196C94.3423 121.153 94.3511 121.109 94.3577 121.066C94.3894 120.97 94.4094 120.871 94.4172 120.771V117.083C96.2492 117.157 98.1301 117.2 100.078 117.2C102.591 117.2 104.987 117.126 107.307 117.004V121.101C107.309 121.39 107.41 121.669 107.591 121.894C107.773 122.119 108.025 122.276 108.307 122.34ZM165.265 65.0746C165.467 66.3161 165.562 67.5724 165.551 68.83C165.547 70.1583 165.468 71.4854 165.312 72.8046C165.071 75.0022 164.579 77.165 163.846 79.2506C163.588 79.9804 163.269 80.6876 162.894 81.3649C162.693 81.7507 162.432 82.1022 162.121 82.4064C161.22 83.0527 160.187 83.4911 159.096 83.6901C158.553 83.8126 158.059 83.8895 157.707 83.9346C157.586 83.95 157.49 83.9606 157.406 83.9693C158.742 78.3087 159.381 72.506 159.308 66.6905C159.307 64.4336 159.226 62.21 159.065 60.0198C159.881 60.196 160.681 60.4387 161.458 60.7453C162.111 60.9978 162.736 61.3187 163.321 61.7027C163.831 62.0251 164.267 62.4503 164.603 62.9511C164.944 63.6158 165.168 64.3341 165.265 65.0747V65.0746ZM163.441 56.7116C163.227 57.148 162.941 57.5452 162.595 57.8865C162.458 58.0157 162.307 58.1302 162.146 58.2281C161.803 58.0992 161.471 57.9827 161.169 57.8878C160.578 57.7009 159.978 57.5479 159.37 57.4293C159.257 57.4163 159.143 57.4188 159.03 57.4366C159.094 56.648 159.239 54.8633 159.437 52.4371C160.246 42.5064 161.924 22.0222 162.384 17.2631C162.396 16.4037 162.742 15.5827 163.348 14.9736C163.823 14.5787 164.426 14.3727 165.043 14.3951C165.174 14.3952 165.304 14.4025 165.434 14.4169L165.435 14.417C166.02 14.4488 166.573 14.6912 166.993 15.0993C167.206 15.3327 167.366 15.6092 167.462 15.9101C167.613 16.3871 167.684 16.8857 167.673 17.3858C167.673 17.5454 167.667 17.7145 167.655 17.8931C167.329 22.8758 165.8 40.7596 164.868 50.6227C164.772 52.723 164.288 54.7873 163.441 56.7117V56.7116Z"/><path id="Vector_81" d="M154.433 37.2606L154.432 37.2575C154.318 36.7007 154.15 36.1563 153.931 35.6317L153.932 35.6314L153.929 35.6248L153.926 35.6174L153.925 35.6177C153.707 35.0917 153.44 34.5876 153.127 34.1121L153.106 34.0812L153.096 34.0575L152.982 33.848C147.863 26.2266 140.593 20.2987 132.098 16.817C123.252 13.0363 112.59 11.16 100.185 11.1594C85.1003 11.1581 73.7759 14.1839 65.3237 18.5274C58.2951 22.0506 52.2453 27.255 47.7118 33.6785L47.6677 33.7562C47.4938 33.9668 47.3207 34.1818 47.1577 34.419L47.1422 34.4422C46.8261 34.9218 46.5568 35.4305 46.3378 35.9615L46.3344 35.9697C46.1209 36.4922 45.9585 37.034 45.8495 37.5877L45.8482 37.5875L45.846 37.6022L45.8425 37.6162L45.8437 37.6164C45.612 38.7403 45.612 39.8997 45.8437 41.0237L45.8425 41.0239L45.8458 41.0377L45.8482 41.0529L45.8496 41.0525C45.9585 41.6063 46.1208 42.1482 46.3342 42.6706L46.3378 42.6794C46.5568 43.2102 46.8261 43.7188 47.1422 44.1982L47.1564 44.2195C47.4794 44.6942 47.8458 45.1377 48.2509 45.5445L48.2522 45.5459C48.6589 45.9513 49.1048 46.3153 49.5834 46.6327L49.583 46.6332L49.5887 46.6366L49.5944 46.6408L49.5948 46.6403C50.0676 46.9547 50.5692 47.2233 51.0928 47.4427L51.0944 47.4434C51.6231 47.6625 52.1714 47.8308 52.732 47.9462L52.7374 47.9473C53.3076 48.0622 53.8882 48.1185 54.4699 48.1153C54.5814 48.1153 54.6967 48.104 54.8097 48.1001C54.9769 50.3674 56.0184 52.4811 57.7144 53.995L57.7169 53.9972C59.3291 55.4334 61.4137 56.2257 63.5729 56.223C63.6839 56.223 63.7942 56.2091 63.9049 56.205C64.0767 58.4706 65.1193 60.5817 66.814 62.0951L66.8163 62.0972C68.4232 63.5297 70.5013 64.3202 72.654 64.318C72.7711 64.318 72.8875 64.3033 73.0044 64.2987C73.1757 66.5662 74.2183 68.6793 75.9137 70.1948L75.9167 70.1975C77.5305 71.6334 79.6161 72.4254 81.7762 72.4228C81.8862 72.4228 81.9953 72.4091 82.1052 72.405C82.2773 74.6704 83.3198 76.7812 85.0142 78.2948L85.0169 78.2972C86.6286 79.733 88.7119 80.5261 90.8703 80.5255C90.9827 80.5255 91.0928 80.5105 91.2046 80.506C91.2298 80.8478 91.2763 81.1877 91.3437 81.5238L91.3425 81.524L91.3458 81.5374L91.3482 81.5529L91.3496 81.5526C91.4587 82.109 91.6239 82.6528 91.8429 83.1758L91.8422 83.176L91.8456 83.1832L91.8493 83.1936L91.8503 83.1932C92.0672 83.7211 92.3365 84.2259 92.6542 84.7001C92.9678 85.1802 93.3313 85.6259 93.7386 86.0297L93.7373 86.0309L93.7513 86.0436L93.764 86.0576L93.7653 86.0563C94.1656 86.4605 94.6074 86.8213 95.0834 87.1328L95.0831 87.1333L95.0887 87.1367L95.0945 87.1409L95.0949 87.1404C95.5686 87.4604 96.0741 87.7305 96.6035 87.9464L96.6032 87.9471L96.6107 87.9498L96.6163 87.9524L96.6165 87.9519C97.1404 88.1708 97.6852 88.3359 98.2425 88.4449L98.2421 88.4463L98.2591 88.449L98.2734 88.4525L98.2736 88.4512C98.8317 88.5667 99.4001 88.6249 99.97 88.6251C100.543 88.6245 101.114 88.5664 101.675 88.4515L101.675 88.4526L101.687 88.4496L101.702 88.4473L101.702 88.446C102.258 88.3383 102.801 88.1726 103.323 87.9516L103.323 87.9524L103.333 87.948L103.345 87.9437L103.344 87.9427C103.872 87.7259 104.378 87.4575 104.853 87.1413C105.338 86.8227 105.789 86.4552 106.199 86.0446C106.601 85.6371 106.964 85.1932 107.283 84.7187L107.297 84.6983C107.609 84.2239 107.877 83.7218 108.098 83.1984L108.109 83.1716C108.318 82.6468 108.483 82.1052 108.602 81.5526L108.608 81.5242C108.673 81.1625 108.717 80.7973 108.74 80.4305C108.873 80.437 109.004 80.4552 109.139 80.4552C111.366 80.4574 113.51 79.6133 115.138 78.0938C116.766 76.5742 117.756 74.4928 117.907 72.271C118.038 72.2768 118.168 72.2936 118.299 72.2936C120.527 72.2914 122.67 71.445 124.298 69.9248C125.926 68.4047 126.918 66.3239 127.072 64.1018C127.207 64.108 127.341 64.1252 127.476 64.1252C129.704 64.1253 131.848 63.2791 133.475 61.7579C135.102 60.2366 136.09 58.1541 136.239 55.9318C136.374 55.938 136.509 55.9552 136.645 55.9552C138.87 55.9569 141.012 55.1128 142.638 53.5939C144.264 52.075 145.252 49.9948 145.401 47.7749C145.534 47.7812 145.668 47.7955 145.8 47.7955C146.383 47.7957 146.964 47.7358 147.534 47.6167C148.095 47.5033 148.643 47.3353 149.171 47.1149C149.7 46.8959 150.206 46.6269 150.684 46.3117L150.685 46.3113C151.161 45.9927 151.606 45.63 152.015 45.2281L152.041 45.2021C152.443 44.7936 152.806 44.3482 153.125 43.8718L153.127 43.8688C153.44 43.3932 153.708 42.8889 153.925 42.3627L153.926 42.3629L153.929 42.3559L153.932 42.3494L153.931 42.3491C154.15 41.8245 154.318 41.2801 154.432 40.7233L154.433 40.7196C154.668 39.5786 154.668 38.4017 154.433 37.2606L154.433 37.2606ZM151.888 40.1891C151.807 40.5859 151.688 40.974 151.532 41.3479L151.527 41.3614C151.371 41.7385 151.179 42.0997 150.954 42.4401C150.507 43.1143 149.929 43.6922 149.255 44.1397C148.914 44.3652 148.552 44.5574 148.174 44.7139L148.165 44.7177C147.792 44.8731 147.404 44.9913 147.008 45.0707L147.001 45.0721C146.215 45.2361 145.404 45.2366 144.618 45.0735L144.398 45.0183C144.193 44.9671 143.98 44.9662 143.775 45.0157C143.571 45.0652 143.381 45.1636 143.223 45.3024C143.065 45.4413 142.943 45.6165 142.868 45.813C142.792 46.0094 142.766 46.2213 142.79 46.4303C142.818 46.6727 142.833 46.9166 142.833 47.1606C142.833 47.9738 142.674 48.7791 142.363 49.5306C142.053 50.2821 141.597 50.965 141.023 51.5404C140.448 52.1157 139.766 52.5721 139.014 52.8835C138.263 53.1949 137.458 53.3552 136.645 53.3552C136.164 53.3552 135.685 53.2997 135.217 53.1899C135.014 53.1422 134.803 53.1441 134.601 53.1953C134.399 53.2466 134.212 53.3457 134.056 53.4842C133.9 53.6228 133.78 53.7968 133.706 53.9916C133.631 54.1863 133.605 54.3961 133.628 54.6033C133.656 54.8418 133.669 55.0816 133.669 55.3217C133.672 56.1966 133.489 57.0621 133.132 57.8606C132.774 58.6591 132.251 59.3723 131.596 59.9529L131.593 59.9553C130.462 60.9692 128.996 61.5284 127.477 61.5251C126.995 61.5251 126.516 61.4697 126.047 61.3598C125.844 61.312 125.632 61.314 125.429 61.3657C125.227 61.4173 125.039 61.517 124.884 61.6564C124.728 61.7957 124.608 61.9706 124.534 62.1662C124.46 62.3617 124.435 62.5722 124.459 62.7798C124.577 63.7665 124.454 64.767 124.1 65.6956C123.747 66.6242 123.173 67.4533 122.429 68.1117L122.424 68.1158C121.683 68.7798 120.793 69.2551 119.83 69.5013C118.866 69.7475 117.857 69.7573 116.888 69.53C116.685 69.4821 116.474 69.4838 116.271 69.5349C116.069 69.5861 115.882 69.6852 115.726 69.8238C115.57 69.9625 115.45 70.1367 115.376 70.3316C115.301 70.5266 115.275 70.7365 115.299 70.9438C115.412 71.9321 115.287 72.9331 114.932 73.8626C114.578 74.7921 114.006 75.623 113.264 76.2851L113.263 76.2858C112.129 77.3006 110.66 77.8596 109.139 77.8551C108.657 77.8526 108.177 77.7943 107.709 77.6816C107.505 77.6338 107.293 77.6357 107.091 77.6873C106.888 77.7388 106.701 77.8384 106.545 77.9777C106.389 78.117 106.269 78.2918 106.195 78.4873C106.121 78.6828 106.096 78.8933 106.12 79.1009C106.151 79.3411 106.168 79.5829 106.17 79.8251C106.168 80.2298 106.13 80.6334 106.054 81.0311C105.967 81.4299 105.847 81.8209 105.696 82.2002C105.384 82.9485 104.931 83.6296 104.361 84.2061C104.076 84.4915 103.762 84.747 103.425 84.9684L103.423 84.9696C103.088 85.1943 102.73 85.3849 102.357 85.5385L102.336 85.5473C101.972 85.7038 101.592 85.8206 101.203 85.8958L101.176 85.9011C100.779 85.9834 100.375 86.025 99.9699 86.0251C99.5693 86.0255 99.1698 85.9842 98.7778 85.9021L98.7466 85.8959C98.3517 85.8188 97.9659 85.7009 97.5955 85.5439L97.5823 85.5385C97.2147 85.3883 96.8639 85.2001 96.5355 84.9768L96.5241 84.9692C96.1908 84.7534 95.882 84.5022 95.6029 84.2199L95.5762 84.1933C95.2936 83.9136 95.0419 83.6042 94.8257 83.2705C94.6013 82.9385 94.411 82.5847 94.2578 82.2145L94.2506 82.1969C94.0934 81.8266 93.9753 81.441 93.8981 81.0462L93.8923 81.0173C93.7658 80.4139 93.737 79.7941 93.8073 79.1816C93.8302 78.9758 93.8037 78.7674 93.7298 78.5739C93.6559 78.3804 93.5369 78.2074 93.3826 78.0692C93.2283 77.931 93.0433 77.8317 92.8428 77.7795C92.6424 77.7273 92.4324 77.7238 92.2303 77.7692C91.2703 77.9851 90.2728 77.9694 89.3201 77.7235C88.3674 77.4775 87.4869 77.0083 86.7514 76.3547C86.0159 75.7011 85.4466 74.8818 85.0905 73.9645C84.7344 73.0473 84.6017 72.0585 84.7034 71.0798C84.7247 70.8751 84.6971 70.6683 84.6228 70.4763C84.5486 70.2844 84.4298 70.1128 84.2764 69.9757C84.1229 69.8386 83.939 69.7399 83.7399 69.6877C83.5408 69.6355 83.3322 69.6314 83.1312 69.6756C82.6862 69.7734 82.2318 69.8228 81.7762 69.8228C80.9068 69.8218 80.0473 69.6384 79.2532 69.2843C78.4591 68.9303 77.7482 68.4136 77.1663 67.7677C76.5845 67.1217 76.1446 66.3608 75.8752 65.5342C75.6058 64.7076 75.5129 63.8336 75.6024 62.9688C75.6235 62.7639 75.5956 62.5569 75.521 62.3648C75.4465 62.1727 75.3273 62.0012 75.1734 61.8642C75.0194 61.7272 74.8352 61.6288 74.6358 61.5771C74.4363 61.5253 74.2275 61.5217 74.0264 61.5665C73.5758 61.6671 73.1157 61.7179 72.6541 61.718C71.7873 61.7161 70.9306 61.5325 70.1392 61.1789C69.3478 60.8253 68.6394 60.3097 68.0598 59.6653C67.4801 59.0209 67.0421 58.262 66.7739 57.4378C66.5058 56.6135 66.4136 55.7422 66.5032 54.8801C66.5245 54.6755 66.4969 54.4688 66.4228 54.2769C66.3486 54.085 66.23 53.9135 66.0766 53.7764C65.9233 53.6393 65.7396 53.5405 65.5406 53.4882C65.3417 53.4359 65.1331 53.4316 64.9322 53.4756C64.4858 53.5735 64.0301 53.6229 63.5731 53.623C62.7588 53.6245 61.9523 53.4653 61.1998 53.1544C60.4472 52.8435 59.7635 52.3871 59.1877 51.8114C58.6119 51.2357 58.1555 50.552 57.8445 49.7995C57.5335 49.047 57.3742 48.2405 57.3756 47.4263C57.3756 47.2053 57.3873 46.9844 57.4106 46.7647C57.4327 46.5567 57.4043 46.3465 57.3278 46.1519C57.2513 45.9572 57.129 45.7839 56.9713 45.6467C56.8135 45.5094 56.625 45.4122 56.4217 45.3633C56.2183 45.3145 56.0062 45.3154 55.8033 45.366L55.6532 45.4034C55.2636 45.4812 54.8671 45.5187 54.4699 45.5153C54.0656 45.5184 53.662 45.4803 53.2654 45.4014C52.8684 45.3202 52.4798 45.2018 52.1049 45.0478C51.7311 44.8919 51.373 44.7007 51.0355 44.4769L51.0241 44.4692C50.6878 44.2463 50.3746 43.9905 50.0889 43.7057C49.8009 43.4154 49.5403 43.0992 49.3103 42.761C49.0883 42.4242 48.8987 42.067 48.7442 41.6943C48.5916 41.3238 48.4757 40.9393 48.3981 40.5461L48.3924 40.5172C48.229 39.7276 48.229 38.9129 48.3924 38.1232L48.3981 38.0945C48.4757 37.7015 48.5915 37.317 48.7441 36.9466C48.8988 36.5732 49.0886 36.2153 49.3111 35.8778C49.4427 35.6874 49.5875 35.5005 49.7473 35.3122C49.7818 35.2649 49.8131 35.2153 49.841 35.1638L49.8443 35.1661C52.3936 31.5283 55.4831 28.301 59.0062 25.5955C59.0079 25.9037 59.1208 26.2009 59.3239 26.4325L59.8117 26.9745C59.9259 27.1014 60.064 27.2046 60.2181 27.2781C60.3722 27.3517 60.5392 27.3941 60.7097 27.4031C60.8802 27.4121 61.0508 27.3874 61.2117 27.3304C61.3727 27.2735 61.5208 27.1854 61.6477 27.0712C61.7746 26.957 61.8778 26.8189 61.9513 26.6648C62.0248 26.5107 62.0673 26.3437 62.0763 26.1732C62.0852 26.0027 62.0606 25.8321 62.0036 25.6712C61.9467 25.5103 61.8586 25.3621 61.7444 25.2352L61.2566 24.6932C61.1036 24.5312 60.9105 24.4126 60.6969 24.3492C62.5522 23.0472 64.4952 21.8746 66.5119 20.84C68.8193 19.6625 71.2057 18.6465 73.6537 17.7992C73.5762 18.015 73.5579 18.2477 73.6007 18.4729C73.6435 18.6982 73.7459 18.9079 73.8972 19.0802C74.0111 19.2074 74.149 19.3109 74.3029 19.3847C74.4568 19.4586 74.6237 19.5015 74.7942 19.5108C74.9647 19.5202 75.1353 19.4959 75.2964 19.4393C75.4574 19.3827 75.6058 19.2949 75.7329 19.181L76.0801 18.87C76.3369 18.6399 76.4918 18.3173 76.5107 17.973C76.5296 17.6288 76.4109 17.2911 76.1809 17.0343C76.1656 17.0173 76.1441 17.0111 76.1282 16.995C79.2465 16.0594 82.4257 15.3397 85.6429 14.8408C85.5722 14.8835 85.5059 14.9332 85.4451 14.9891C85.2156 15.2464 85.0977 15.5843 85.1174 15.9285C85.137 16.2727 85.2926 16.595 85.5499 16.8245L87.5118 18.5745C87.6391 18.6888 87.7877 18.7769 87.9491 18.8336C88.1105 18.8904 88.2815 18.9147 88.4523 18.9052C88.6231 18.8958 88.7904 18.8527 88.9445 18.7784C89.0987 18.7042 89.2366 18.6003 89.3505 18.4726C89.4644 18.3449 89.5519 18.196 89.6082 18.0345C89.6644 17.8729 89.6882 17.7018 89.6781 17.531C89.6681 17.3602 89.6245 17.1931 89.5497 17.0392C89.475 16.8854 89.3706 16.7477 89.2425 16.6343L87.2806 14.8843C87.1648 14.7852 87.0322 14.7077 86.8891 14.6553C91.2946 14.045 95.7377 13.7456 100.185 13.7594C108.245 13.6495 116.282 14.6553 124.066 16.7482C123.859 16.9962 123.752 17.3133 123.767 17.6365C123.782 17.9596 123.918 18.2653 124.148 18.4927L124.319 18.6597C124.441 18.779 124.586 18.8731 124.744 18.9366C124.903 19.0001 125.072 19.0318 125.243 19.0298C125.413 19.0278 125.582 18.9923 125.739 18.9251C125.896 18.858 126.038 18.7606 126.158 18.6384C126.299 18.4899 126.403 18.3095 126.46 18.1124C126.516 17.9153 126.525 17.7074 126.485 17.5063C128.065 18.0264 129.609 18.5804 131.076 19.2076C134.276 20.5669 137.318 22.2697 140.151 24.2858C139.961 24.2657 139.769 24.2882 139.589 24.3518C139.41 24.4154 139.246 24.5184 139.111 24.6533L138.511 25.2661C138.27 25.5125 138.137 25.8445 138.14 26.1893C138.144 26.5341 138.284 26.8633 138.531 27.1045C138.777 27.3458 139.109 27.4793 139.454 27.4757C139.799 27.472 140.128 27.3316 140.369 27.0853L140.969 26.4725C141.14 26.2965 141.257 26.0756 141.307 25.8355C141.357 25.5954 141.338 25.3461 141.251 25.1166C144.957 27.9316 148.17 31.3416 150.76 35.2078L150.774 35.2402C150.813 35.3348 150.865 35.4241 150.926 35.506L150.96 35.5514C151.182 35.8887 151.372 36.2463 151.527 36.6194L151.533 36.6334C151.688 37.0072 151.807 37.3952 151.888 37.7919C152.05 38.5828 152.05 39.3982 151.888 40.1891L151.888 40.1891Z"/></g></svg>