<svg xmlns="http://www.w3.org/2000/svg" width="200" height="200" fill="none"><path fill="#FFD93A" d="M24.97 142.711c9.07 9.458 21.503 2.102 21.503 2.102l-1.132 2.586s11.316 1.132 16.974-8.73c5.659-9.861 3.88-21.501 3.88-21.501s15.036 3.071 20.21-2.749l12.124 4.527s.647 4.365 3.234 4.85a3.802 3.802 0 0 0 3.88-1.778s3.394 1.455 4.364 0a3.938 3.938 0 0 0 .485-3.072s1.779-4.689-.646-5.982a7.919 7.919 0 0 0-4.527-.97s-7.275-5.496-8.084-8.406c-.808-2.911-4.203-15.036.971-31.04a51.984 51.984 0 0 1 16.328-24.25l11.64-2.264 4.849 1.617s2.264-2.425 0-4.688c0 0 2.911.646 2.749-.809-.162-1.455 0-3.88-2.749-3.718h-1.616s.324-2.748-2.748-2.425c-3.072.323-3.233 1.617-3.233 1.617l-14.332 1.05s3.921-3.111 4.728-6.668c0 0 3.396-2.021 2.426-7.033-.971-5.012-9.821-6.426-9.821-6.426s.403-4.203-3.153-3.395c-3.557.808-4.123 2.062-4.123 2.062s-2.222-2.264-10.79.97c0 0-.365-4.447-4.73-2.668-4.364 1.778-.242 7.032-.242 7.032l-2.667 3.395-1.334 4.365-12.546 4.244s-2.102-1.778-4.203-1.132c0 0-2.263-1.616-3.718-.647a2.404 2.404 0 0 0-1.132 2.426s-3.395.161-3.072 1.94a8.371 8.371 0 0 0 2.102 3.556S36.45 54.28 32.084 75.296c-4.365 21.017-.388 35.082 11.575 41.063 0 0-2.36 5.497-5.917 11.963-3.556 6.467-5.82 11.317-12.771 14.389Z"/><path fill="#191C22" d="M26.52 170.311c-3.779 5.532 1.549 9.729 6.199 10.051.34.024.68.017 1.018-.02.146-4.689.424-9.368.814-13.961.525-6.194 1.255-12.225 2.17-17.869.9-.013 1.797-.09 2.686-.231a243.568 243.568 0 0 0-2.817 26.381c-.039.72-.083 1.438-.116 2.159-.142 3.152-.219 6.31-.242 9.456a1.277 1.277 0 0 0 2.02.311 1.3 1.3 0 0 0 .397-.913l.011-.564c.031-1.307.131-4.8.397-9.586a8.18 8.18 0 0 1 1.425-3.031c1.619-2.233 4.543-4.395 8.471-6.297 5.888-2.863 13.985-5.163 23.117-6.753a186.218 186.218 0 0 1 29.403-2.595c.773-.008 1.546-.012 2.319-.012 14.711-.003 29.36 1.535 40.374 4.911 5.506 1.683 10.094 3.831 13.309 6.392a16.055 16.055 0 0 1 3.773 4.122c.704 1.14 1.191 2.4 1.438 3.717.095 1.742.169 3.314.224 4.648a281.42 281.42 0 0 1 .161 5.048 1.303 1.303 0 0 0 .823 1.188c.159.062.328.093.499.09a1.285 1.285 0 0 0 1.106-.693v-.021c0-3.09-.068-6.045-.188-8.88-.028-.667-.057-1.334-.091-1.987a156.086 156.086 0 0 0-3.349-25.691 110.523 110.523 0 0 0-1.062-4.352 67.763 67.763 0 0 0-5.325-14.401 1.312 1.312 0 0 1-.103-.99 1.295 1.295 0 0 1 .627-.772 1.35 1.35 0 0 1 1.762.523 49.13 49.13 0 0 1 2.379 5.186 94.96 94.96 0 0 1 4.26 14.24 148.539 148.539 0 0 1 2.765 17.647c.414 4.178.709 8.686.843 13.541.417.07.841.09 1.262.059 4.651-.322 9.978-4.519 6.2-10.051 6.98-5.508 13.102-13.879 11.88-23.477-1.216-9.555-13.944-25.697-34.695-31.294a39.49 39.49 0 0 0 4.194-5.169 36.244 36.244 0 0 0 6.094-16.913l-1.294-.129 1.294.129c.154-1.55.23-3.096.229-4.638-.004-11.96-4.544-23.464-11.989-33.088a18.395 18.395 0 0 0 3.587-3.662 20.45 20.45 0 0 0 3.919-12.092c.01-2.891-.613-5.75-1.828-8.373a17.727 17.727 0 0 0-5.554-6.8 18.772 18.772 0 0 0-11.187-3.571 20.415 20.415 0 0 0-16.341 8.015 18.449 18.449 0 0 0-2.451 4.57 63.875 63.875 0 0 0-5.555-1.776 6.796 6.796 0 0 0 1.546-2.372 9.82 9.82 0 0 0 .587-3.496c0-.327-.012-.63-.029-.898a2.862 2.862 0 0 0-.586-1.455 11.31 11.31 0 0 0-2.039-2.044 31.816 31.816 0 0 0-4.378-2.946 24.071 24.071 0 0 0-2.247-1.12 11.378 11.378 0 0 0-1.5-.521 7.634 7.634 0 0 0-.153-.436 4.791 4.791 0 0 0-1.345-1.934 3.96 3.96 0 0 0-2.585-.9c-.23 0-.46.016-.688.046a3.844 3.844 0 0 0-1.601.646 6.057 6.057 0 0 0-1.073.93 43.473 43.473 0 0 0-3.403-.154 19.508 19.508 0 0 0-5.557.692c-.616.184-1.22.41-1.805.676a4.214 4.214 0 0 0-1.541-2.15 4.384 4.384 0 0 0-2.527-.75 5.54 5.54 0 0 0-1.803.305c-.53.17-1.016.454-1.423.834a4.52 4.52 0 0 0-1.265 3.21c-.002.974.28 1.929.812 2.746.26.392.58.743.945 1.04-.354.404-.705.814-1.039 1.243a20.728 20.728 0 0 0-3.28 5.835c-.318.071-.722.17-1.2.3-.028-.04-.053-.081-.081-.12a20.417 20.417 0 0 0-16.342-8.016 18.768 18.768 0 0 0-11.186 3.572 17.728 17.728 0 0 0-5.555 6.799 19.766 19.766 0 0 0-1.828 8.373c.001 3.576.933 7.09 2.704 10.196A66.408 66.408 0 0 0 38.1 57.93a52.674 52.674 0 0 0-9.48 29.987A57.27 57.27 0 0 0 29.94 99.98a27.776 27.776 0 0 0 4.83 10.24 25.293 25.293 0 0 0 4.735 4.935c-15.507 7.828-23.817 23.448-24.865 31.678-1.221 9.598 4.9 17.97 11.88 23.477Zm134.061-81.49c0 1.455-.072 2.915-.217 4.38a33.62 33.62 0 0 1-5.659 15.712c-4.687 6.925-12.049 12.45-21.441 16.246-9.388 3.795-20.792 5.851-33.462 5.85-12.315.003-23.415-1.672-32.638-5.002.297-1.878.452-3.774.462-5.675 0-.516-.013-1.011-.038-1.486a47.94 47.94 0 0 0 5.805.377c4.489-.006 9.266-.745 13.154-3.207l11.225 4.082c.203.675.47 1.329.797 1.953a6.74 6.74 0 0 0 1.539 1.983 4.185 4.185 0 0 0 2.737 1.037 5.647 5.647 0 0 0 3.007-.985c.272-.175.468-.447.549-.761.43.134.878.204 1.328.207a4.406 4.406 0 0 0 2.077-.527 3.082 3.082 0 0 0 1.133-.975c.277-.406.424-.887.423-1.379a2.884 2.884 0 0 0-.039-.37c.081-.047.159-.1.232-.159.456-.391.781-.911.933-1.492a5.949 5.949 0 0 0 .221-1.673 8.088 8.088 0 0 0-.519-2.842 4.054 4.054 0 0 0-1.322-1.781 5.99 5.99 0 0 0-2.679-1.065c-.889-.151-1.746-.188-2.439-.247a1.301 1.301 0 0 1-.364-.132 8.216 8.216 0 0 1-1.513-1.048 35.651 35.651 0 0 1-4.79-5.095 6.603 6.603 0 0 1-.734-1.591 41.676 41.676 0 0 1-1.753-12.75c0-.074.005-.153.006-.227a6.633 6.633 0 0 0 2.155 1.12c.08.86.184 1.714.29 2.473.079.572.158 1.087.225 1.507a1.282 1.282 0 0 0-.596 2.154 1.3 1.3 0 0 0 .92.38h.071l.815-.001a14.168 14.168 0 0 1 4.163.433c.564.168 1.09.444 1.548.813.482.405.86.919 1.104 1.499a1.286 1.286 0 0 0 .721.686 1.292 1.292 0 0 0 1.409-.315 1.3 1.3 0 0 0 .248-1.423 6.584 6.584 0 0 0-1.822-2.448 7.845 7.845 0 0 0-3.698-1.601 16.196 16.196 0 0 0-2.255-.219 67.08 67.08 0 0 1-.352-2.373 49.086 49.086 0 0 1-.196-1.761c2.956-1.131 5.906-4.874 5.743-7.481-.146-2.328-5.531-3.096-9.69-2.52a55.002 55.002 0 0 1 9.789-23.234 51.145 51.145 0 0 1 5.791-6.673 35.927 35.927 0 0 1 1.832-1.653c.189-.158.333-.274.442-.36a261.456 261.456 0 0 1 6.666-1.372 84.513 84.513 0 0 1 2.635-.466c.374-.059.706-.105.974-.136.265-.03.474-.044.555-.044h.014c.255.055.504.132.745.231.562.212 1.275.53 1.97.807.349.139.695.267 1.04.37.355.114.726.177 1.099.187.215.002.429-.03.634-.095.282-.091.535-.256.732-.477l.002-.003a4.478 4.478 0 0 0 1.272-2.923 3.24 3.24 0 0 0-.246-1.221c.197-.08.385-.18.561-.3.131-.098.253-.208.364-.328a65.753 65.753 0 0 1 7.883 6.257c11.235 10.449 18.427 24.548 18.422 39.151Zm-39.838-52.444c-2.173.124-5.143.3-8.136.502a13.65 13.65 0 0 0 1.602-2.444l.056-.114a61.964 61.964 0 0 1 6.478 2.056ZM83.471 16.834l-.001-.003.002.003c.149-.105.314-.184.49-.235.289-.093.591-.142.896-.143.367-.014.73.085 1.039.283.356.274.592.674.66 1.119.019.052.042.103.069.152-.098.063-.197.119-.294.183-.843.578-1.64 1.22-2.384 1.923a2.123 2.123 0 0 1-.595-.591 2.423 2.423 0 0 1-.386-1.32 1.938 1.938 0 0 1 .504-1.37Zm-46.612 91.841a25.234 25.234 0 0 1-4.378-9.24 54.675 54.675 0 0 1-1.26-11.519 50.063 50.063 0 0 1 9.029-28.524A72.735 72.735 0 0 1 59.171 40.8a1.3 1.3 0 0 0-1.473-2.142c-.232.16-.468.338-.701.501a5.873 5.873 0 0 1-.563-.966 2.307 2.307 0 0 1-.231-.914.85.85 0 0 1 .088-.404.937.937 0 0 1 .415-.386c.193-.1.406-.155.624-.16l.15.016a1.299 1.299 0 0 0 1.71-1.06h.001l.014-.078a3.01 3.01 0 0 1 .376-.975c.092-.151.212-.283.354-.39a.964.964 0 0 1 .473-.173l.17-.01a.47.47 0 0 1 .165.02c.012.007.021-.003.117.113.148.209.278.43.39.66a1.296 1.296 0 0 0 1.883.47h.001l.015-.009c.31-.181.66-.281 1.018-.29.343 0 .676.112.95.318-.072.052-.143.1-.215.153a1.3 1.3 0 0 0 1.567 2.076 32.441 32.441 0 0 1 8.627-4.603 30.033 30.033 0 0 1 2.883-.869c.346-.085.615-.142.795-.178l.2-.039.045-.008.009-.001a1.3 1.3 0 0 0 1.045-.944 17.206 17.206 0 0 1 3.067-5.7 21.022 21.022 0 0 1 4.635-4.471 13.155 13.155 0 0 1 3.686-1.781 16.942 16.942 0 0 1 4.827-.587c.606 0 1.26.02 1.956.059a5.437 5.437 0 0 0 .415 4.215 7.44 7.44 0 0 0 2.1 2.372 1.3 1.3 0 0 0 1.576-2.069 4.853 4.853 0 0 1-1.384-1.532 2.814 2.814 0 0 1-.352-1.357 3.77 3.77 0 0 1 1.607-2.9c.149-.11.318-.19.499-.232.115-.016.232-.024.348-.024.333-.02.661.087.92.297.421.427.701.972.802 1.562a8.465 8.465 0 0 1 .2 2.187l-.003.074-.001.013v.002a1.301 1.301 0 0 0 2.149 1.072 1.3 1.3 0 0 0 .444-.89 8.585 8.585 0 0 0 .014-.746c.331.14.679.296 1.046.482a29.888 29.888 0 0 1 4.666 2.957c.573.435 1.109.917 1.602 1.442.139.148.262.308.37.48l.032.06c.011.206.021.425.021.662a7.278 7.278 0 0 1-.415 2.567 4.02 4.02 0 0 1-1.725 2.089c-.277.167-.482.43-.576.74l-.001.002a12.253 12.253 0 0 1-1.333 2.772 8.261 8.261 0 0 1-1.662 1.907 4.886 4.886 0 0 1-1.951.988c-.594.047-1.171.095-1.72.143a1.299 1.299 0 1 0 .228 2.59h-.001l1.306-.11c.112.019.226.022.339.01.076-.013.144-.039.218-.054 3.107-.246 6.728-.481 9.763-.664 1.833-.11 3.45-.202 4.609-.266 1.159-.064 1.856-.1 1.858-.1a1.297 1.297 0 0 0 1.139-.83c.223-.297.499-.55.815-.745a1.04 1.04 0 0 1 1.057-.038c.283.148.526.361.711.622.034.051.064.105.09.16-.356.163-.72.352-1.091.568a1.297 1.297 0 0 0-.468 1.778 1.301 1.301 0 0 0 1.778.467 5.937 5.937 0 0 1 2.841-.963 1.345 1.345 0 0 1 1.024.342c.241.286.36.656.331 1.03l-.005.168a.67.67 0 0 1-.052.254l-.006.01-.004.004a.97.97 0 0 1-.477.082 4.438 4.438 0 0 1-1.107-.174 6.173 6.173 0 0 1-.403-.124l-.09-.033-.09-.034a1.3 1.3 0 1 0-.846 2.46c.348.14.678.325.978.55.187.138.35.305.482.496a.76.76 0 0 1 .138.422 1.549 1.549 0 0 1-.339.834 5.001 5.001 0 0 1-.405-.13c-.53-.187-1.209-.485-1.869-.757a17.43 17.43 0 0 0-.982-.377 5.065 5.065 0 0 0-.987-.248 2.609 2.609 0 0 0-.326-.019c-.397.01-.792.044-1.184.102-1.605.213-4.198.72-6.427 1.177-2.223.456-4.06.86-4.064.862-.178.04-.347.116-.494.225a46.896 46.896 0 0 0-8.826 9.404A57.69 57.69 0 0 0 94.326 84.29a56.658 56.658 0 0 0-.33 6.115c-.016 3.394.307 6.78.963 10.111a27.64 27.64 0 0 0 .936 3.498c.256.815.629 1.587 1.108 2.294a40.302 40.302 0 0 0 3.751 4.213c.727.722 1.506 1.39 2.331 1.998a8.23 8.23 0 0 0 1.165.709c.4.206.836.337 1.284.385.956.032 1.908.152 2.842.359.325.082.632.225.905.421.22.167.388.394.482.655.227.611.344 1.257.346 1.909a3.47 3.47 0 0 1-.105.896 12.03 12.03 0 0 0-1.014-.98c-.543-.464-.969-.758-.994-.776a1.307 1.307 0 0 0-.973-.208 1.293 1.293 0 0 0-.835.541 1.292 1.292 0 0 0-.022 1.444c.093.143.213.267.354.364l.001.001c.458.327.89.688 1.293 1.08.277.264.525.558.741.875.07.105.128.216.175.333l.02.077a1.792 1.792 0 0 1-1.021.328 2.235 2.235 0 0 1-.923-.22 4.713 4.713 0 0 1-1.259-.89 5.856 5.856 0 0 1-.375-.394l-.091-.109-.018-.023-.002-.002a1.3 1.3 0 0 0-2.077 1.564c.349.439.742.842 1.172 1.202a2.848 2.848 0 0 1-1.311.411 1.574 1.574 0 0 1-1.056-.421 5.148 5.148 0 0 1-1.264-1.953 9.2 9.2 0 0 1-.384-1.181l-.015-.064-.002-.013h-.001a1.293 1.293 0 0 0-.827-.953l-12.449-4.527a1.296 1.296 0 0 0-1.19.157c-3.288 2.315-7.832 3.113-12.264 3.107a46.178 46.178 0 0 1-6.037-.423c-.016-.003-.031.004-.047.003a16.675 16.675 0 0 0-1.329-4.46 8.164 8.164 0 0 0-1.859-2.683 1.299 1.299 0 0 0-1.686 1.974l-.003.002.002.002a6.538 6.538 0 0 1 1.321 2.092 17.825 17.825 0 0 1 1.271 7.202 44.525 44.525 0 0 1-2.02 12.316c-1.839 6.297-4.66 9.684-7.43 11.567a13.256 13.256 0 0 1-8.353 2.245l.359-1.703a1.3 1.3 0 0 0-1.902-1.405 18.845 18.845 0 0 1-9.205 2.568 16.519 16.519 0 0 1-8.233-2.243 17.775 17.775 0 0 1-1.328-.845 19.29 19.29 0 0 0 7.685-6.163c3.654-4.761 5.828-10.816 8.412-16.152a37.476 37.476 0 0 1 4.317-7.205 15.554 15.554 0 0 1 5.962-4.72 1.3 1.3 0 0 0-.038-2.401 1.3 1.3 0 0 0-.995.016 19.778 19.778 0 0 0-8.682 7.885c-.089.138-.168.285-.256.425a19.434 19.434 0 0 1-6.46-5.842Z"/><path fill="#191C22" d="M118.47 55.554c-6.922 2.031-10.535 14.974-7.524 26.713 3.01 11.74 17.225 14.936 25.284 10.31 4.064-2.333 9.331-9.03 6.998-19.941-2.934-13.725-17.834-19.114-24.758-17.082Zm11.875 26.789c-.693 2.042-3.935 2.024-8.074 1.949-4.138-.075-6.66.384-6.924-2.288-.082-.838.656-1.945 1.832-2.998a2.733 2.733 0 0 0 1.662 1.531 2.742 2.742 0 0 0 3.034-4.28 8.97 8.97 0 0 1 3.02-.556c5.156.075 6.293 4.158 5.45 6.642ZM81.633 14.997ZM108.106 28.094c.147.154.32.28.51.373.227.11.475.167.726.167.227 0 .451-.047.658-.137.307-.138.568-.362.75-.645.182-.289.305-.611.361-.948.051-.288.076-.58.074-.873a6.127 6.127 0 0 0-.205-1.583 2.92 2.92 0 0 0-.323-.766 1.759 1.759 0 0 0-.401-.452 1.483 1.483 0 0 0-.914-.32 1.765 1.765 0 0 0-1.19.468 2.424 2.424 0 0 0-.671 1.184 4.786 4.786 0 0 0 .129 2.726c.11.299.278.573.496.806Z"/></svg>