<svg width="200" height="200" viewBox="0 0 200 200" xmlns="http://www.w3.org/2000/svg"><g id="type=error, mode=dark"><g id="Layer 11"><path id="Vector" d="M81.6328 14.9971V14.9961H81.6338L81.6328 14.9971Z"/><path id="Vector_2" d="M108.106 28.0941C108.253 28.2478 108.426 28.3741 108.616 28.4673C108.843 28.5769 109.091 28.6339 109.342 28.6342C109.569 28.6343 109.793 28.5875 110 28.4967C110.307 28.3591 110.568 28.1353 110.75 27.8524C110.932 27.5633 111.055 27.2408 111.111 26.9038C111.162 26.6156 111.187 26.3233 111.185 26.0306C111.186 25.4963 111.117 24.9641 110.98 24.4478C110.909 24.1783 110.801 23.9204 110.657 23.6818C110.55 23.5091 110.415 23.3562 110.256 23.2299C109.996 23.0238 109.674 22.9108 109.342 22.9092C108.901 22.9111 108.476 23.0782 108.152 23.3777C107.82 23.7001 107.587 24.1111 107.481 24.562C107.259 25.4638 107.303 26.4108 107.61 27.2877C107.72 27.5869 107.888 27.8611 108.106 28.0941Z"/><path id="Vector_3" d="M74.4301 30.791C74.5314 30.9285 74.6587 31.0447 74.8048 31.133C74.951 31.2213 75.1131 31.2799 75.2819 31.3055C75.4506 31.3311 75.6228 31.3233 75.7886 31.2824C75.9543 31.2414 76.1104 31.1683 76.2479 31.0671C76.3854 30.9658 76.5016 30.8385 76.5898 30.6924C76.6781 30.5462 76.7367 30.3841 76.7624 30.2153C76.788 30.0465 76.7801 29.8744 76.7392 29.7086C76.6983 29.5428 76.6251 29.3868 76.5239 29.2493C74.6055 26.7403 72.1313 24.7106 69.2957 23.3197C66.4601 21.9289 63.3405 21.2148 60.1822 21.2337C56.1675 21.1973 52.2468 22.4493 48.9962 24.8059C46.6036 26.5705 44.6933 28.9085 43.4409 31.6048C42.2266 34.2287 41.6028 37.0871 41.6134 39.9783C41.61 43.445 42.4803 46.8567 44.1439 49.8982C44.3108 50.199 44.5902 50.4215 44.9208 50.5167C45.2514 50.612 45.6063 50.5723 45.9077 50.4064C46.2091 50.2404 46.4324 49.9617 46.5287 49.6314C46.625 49.3011 46.5865 48.9461 46.4215 48.6442L46.4214 48.6441C44.9695 45.9867 44.2101 43.0065 44.2134 39.9783C44.2029 37.4682 44.7429 34.9863 45.7954 32.7075C46.8636 30.4041 48.4945 28.4068 50.5378 26.8995C53.3417 24.8719 56.7222 23.7973 60.1822 23.8337C62.9328 23.816 65.6502 24.4348 68.1219 25.6418C70.5936 26.8487 72.7527 28.6111 74.4301 30.791Z"/><path id="Vector_4" d="M116.872 92.6419C120.198 94.7886 124.076 95.924 128.035 95.9104C131.124 95.9526 134.17 95.1924 136.877 93.7041L136.23 92.5767L136.878 93.704C139.159 92.3285 141.057 90.4004 142.396 88.0977C144.216 84.9894 145.152 81.4429 145.102 77.8414C145.095 75.9993 144.893 74.1631 144.5 72.3634C143.264 66.6663 139.892 61.6596 135.076 58.3739C131.159 55.5697 126.497 53.9912 121.682 53.8383C120.473 53.8242 119.269 53.9816 118.105 54.3058C116.528 54.7961 115.106 55.6893 113.98 56.8974C112.11 58.9634 110.739 61.4308 109.972 64.1098C109.026 67.2202 108.556 70.4559 108.577 73.707C108.575 76.7027 108.948 79.6869 109.687 82.59C110.727 86.7278 113.294 90.3189 116.872 92.6419ZM113.387 62.4496C113.992 61.0728 114.824 59.8073 115.848 58.7058C116.661 57.8213 117.691 57.1646 118.837 56.8006C119.763 56.5466 120.721 56.4247 121.682 56.4383C125.962 56.5945 130.102 58.0084 133.585 60.5033C137.863 63.4113 140.86 67.8518 141.957 72.907C142.312 74.528 142.495 76.182 142.502 77.8414C142.552 80.9727 141.744 84.058 140.165 86.7627C139.053 88.683 137.478 90.2942 135.583 91.4493C133.27 92.7104 130.669 93.3515 128.035 93.3104C124.585 93.3232 121.205 92.3371 118.303 90.471C115.263 88.5049 113.083 85.457 112.205 81.9442C111.521 79.2521 111.175 76.4849 111.177 73.7071C111.115 69.8411 111.868 66.0053 113.387 62.4496L113.387 62.4496Z"/><path id="Vector_5" d="M122.271 84.2915C126.41 84.3667 129.652 84.3843 130.345 82.3423C131.188 79.8594 130.05 75.7754 124.895 75.7002C123.863 75.7109 122.841 75.8993 121.874 76.2573C122.243 76.7321 122.444 77.316 122.446 77.9175C122.446 78.5494 122.228 79.162 121.829 79.652C121.43 80.142 120.875 80.4794 120.256 80.6072C119.637 80.7351 118.993 80.6456 118.433 80.3539C117.872 80.0622 117.429 79.5861 117.179 79.0059C116.003 80.0586 115.265 81.1655 115.348 82.0039C115.611 84.6753 118.131 84.2163 122.271 84.2915Z"/><path id="Vector_6" d="M99.0463 93.7721C99.1257 94.3439 99.2046 94.8583 99.2723 95.2784C98.9954 95.3463 98.749 95.5046 98.5721 95.7282C98.3953 95.9518 98.298 96.228 98.2957 96.5131C98.2957 96.8579 98.4327 97.1886 98.6765 97.4324C98.9203 97.6762 99.2509 97.8131 99.5957 97.8131H99.6674C99.9367 97.8131 100.209 97.8118 100.482 97.8118C101.883 97.7493 103.286 97.8952 104.645 98.2448C105.209 98.4126 105.735 98.6887 106.193 99.0576C106.675 99.4631 107.053 99.9768 107.297 100.557C107.437 100.872 107.696 101.119 108.017 101.243C108.339 101.368 108.697 101.359 109.012 101.22C109.328 101.08 109.575 100.821 109.699 100.5C109.823 100.178 109.815 99.8201 109.675 99.5048C109.268 98.5576 108.644 97.7191 107.853 97.0565C106.781 96.2101 105.506 95.6582 104.155 95.4557C103.409 95.3301 102.656 95.257 101.9 95.2368C101.807 94.6775 101.672 93.8238 101.547 92.8634C101.474 92.299 101.407 91.6977 101.352 91.1024C104.308 89.9716 107.258 86.229 107.095 83.6216C106.938 81.1192 100.723 80.4165 96.4873 81.2515L95.6328 89.3677C96.5061 90.2532 97.5772 90.9186 98.758 91.3091C98.8369 92.1662 98.9417 93.0154 99.0463 93.7721Z"/><path id="Vector_7" d="M39.5166 113.543H39.5165C36.1108 114.993 32.95 116.961 30.1461 119.377C25.4624 123.326 21.4443 128.003 18.2459 133.228C15.1356 138.366 13.1031 143.711 13.0918 148.505C13.0905 149.144 13.1299 149.782 13.2098 150.416C14.0723 155.929 16.44 161.097 20.052 165.35C21.4035 167.018 22.8866 168.575 24.4871 170.005C24.4208 170.075 24.3544 170.145 24.2871 170.221C23.8566 170.71 23.501 171.26 23.2322 171.853C22.9041 172.582 22.7342 173.372 22.7339 174.171C22.7395 175.299 23.0473 176.406 23.6252 177.375C24.2032 178.344 25.0301 179.14 26.0201 179.681C27.593 180.541 29.3133 181.099 31.0918 181.325C31.8861 181.445 32.6867 181.518 33.4895 181.545C33.4457 182.71 33.4225 183.715 33.4222 184.516C33.4223 185.027 33.4309 185.461 33.4514 185.824C33.4611 185.994 33.5042 186.161 33.5784 186.315C33.6526 186.469 33.7563 186.606 33.8837 186.72C34.0111 186.834 34.1596 186.921 34.3207 186.978C34.4819 187.034 34.6526 187.058 34.8231 187.048C34.9935 187.039 35.1604 186.995 35.3142 186.921C35.468 186.847 35.6056 186.743 35.7193 186.616C35.833 186.489 35.9205 186.34 35.9768 186.179C36.033 186.018 36.057 185.847 36.0473 185.677C36.0309 185.391 36.0221 184.996 36.0222 184.516C36.0213 181.749 36.3127 176.223 36.8625 169.576C37.4121 162.923 38.2195 155.125 39.2469 147.736C39.2925 147.395 39.2013 147.051 38.9934 146.777C38.7855 146.503 38.4777 146.323 38.1374 146.276C37.7971 146.229 37.4518 146.318 37.1772 146.524C36.9025 146.731 36.7208 147.038 36.6717 147.378L36.6716 147.378C35.6356 154.83 34.8244 162.667 34.2713 169.362C33.9732 172.973 33.7508 176.241 33.6082 178.948C32.3587 178.907 31.1166 178.738 29.9019 178.441C28.979 178.225 28.093 177.875 27.2724 177.4C26.5849 177.02 26.0322 176.436 25.6904 175.729C25.4641 175.24 25.3427 174.71 25.3339 174.171C25.3341 173.738 25.4269 173.309 25.606 172.914C25.8458 172.402 26.1848 171.943 26.6033 171.563C26.7402 171.436 26.8846 171.317 27.0356 171.206L27.1518 171.126L27.174 171.111L27.1735 171.111C27.3546 171.001 27.5061 170.849 27.6149 170.667C27.7237 170.485 27.7864 170.28 27.7976 170.068C27.8088 169.857 27.7682 169.646 27.6792 169.454C27.5903 169.262 27.4557 169.094 27.2873 168.966L27.2676 168.951C25.2512 167.305 23.4231 165.442 21.8165 163.394C18.6449 159.582 16.5623 154.984 15.7889 150.085C15.723 149.561 15.6906 149.034 15.6919 148.505C15.8103 145.369 16.5649 142.29 17.9099 139.454C20.3225 134.228 23.6015 129.447 27.6082 125.314C31.6608 121.068 36.272 117.635 40.4822 115.957C40.8003 115.828 41.0541 115.578 41.1884 115.262C41.3227 114.945 41.3265 114.589 41.199 114.27C41.0715 113.951 40.823 113.696 40.5078 113.56C40.1926 113.424 39.8363 113.418 39.5166 113.543L39.5166 113.543Z"/><path id="Vector_8" d="M185.565 138.219C182.153 132.495 177.537 127.582 172.038 123.818C166.349 119.782 160.013 116.745 153.303 114.84C154.595 113.439 155.783 111.945 156.858 110.371C160.278 105.335 162.374 99.5179 162.952 93.4578C163.106 91.9074 163.182 90.3614 163.181 88.8201C163.071 79.1951 160.327 69.7842 155.246 61.6086C154.011 59.5717 152.661 57.6071 151.202 55.7244C152.558 54.6788 153.763 53.4489 154.779 52.0704C157.337 48.5581 158.709 44.3227 158.698 39.978C158.709 37.0868 158.085 34.2285 156.871 31.6047C155.618 28.9086 153.708 26.5707 151.316 24.8059C148.065 22.4494 144.145 21.1973 140.13 21.2337C136.971 21.2147 133.852 21.9287 131.016 23.3196C128.181 24.7105 125.707 26.7403 123.788 29.2494C122.759 30.6503 121.933 32.19 121.336 33.8226C119.076 32.9787 116.77 32.2626 114.43 31.6777C114.264 31.6359 114.091 31.6273 113.922 31.6524C113.753 31.6775 113.59 31.7357 113.443 31.8238C113.296 31.9119 113.169 32.0281 113.067 32.1658C112.965 32.3034 112.892 32.4598 112.85 32.626C112.809 32.7921 112.801 32.9647 112.827 33.134C112.853 33.3032 112.912 33.4656 113.001 33.612C113.089 33.7584 113.206 33.8858 113.344 33.987C113.482 34.0881 113.639 34.161 113.805 34.2015H113.805C117.205 35.0463 120.528 36.1763 123.738 37.5794C124.054 37.7159 124.411 37.7216 124.731 37.5954C125.051 37.4692 125.308 37.2212 125.446 36.9059C125.583 36.5905 125.59 36.2335 125.465 35.9131C125.34 35.5926 125.093 35.3349 124.778 35.1963C124.44 35.0488 124.095 34.9164 123.754 34.7745C124.269 33.3517 124.985 32.0102 125.882 30.7912C127.559 28.6111 129.718 26.8487 132.19 25.6417C134.662 24.4347 137.379 23.8159 140.13 23.8337C143.59 23.7973 146.97 24.8719 149.774 26.8995C151.817 28.4068 153.448 30.4041 154.516 32.7074C155.569 34.9861 156.109 37.468 156.098 39.978C156.109 43.7678 154.914 47.4629 152.686 50.5286C151.798 51.7328 150.745 52.8051 149.556 53.7133C145.297 48.6459 140.319 44.2293 134.78 40.6041C134.637 40.5094 134.477 40.4439 134.309 40.4114C134.141 40.3789 133.968 40.3799 133.8 40.4145C133.632 40.4491 133.472 40.5165 133.331 40.6129C133.189 40.7093 133.068 40.8328 132.974 40.9762C132.88 41.1196 132.816 41.2802 132.784 41.4486C132.753 41.6171 132.755 41.7901 132.79 41.9578C132.826 42.1254 132.894 42.2843 132.992 42.4255C133.089 42.5666 133.213 42.6871 133.357 42.78L133.357 42.7799C141.331 47.9574 148.049 54.8496 153.021 62.9538C157.856 70.7237 160.471 79.6694 160.581 88.82C160.581 90.2754 160.509 91.7357 160.365 93.201C159.829 98.831 157.883 104.235 154.705 108.913C153.375 110.864 151.862 112.684 150.187 114.348C149.939 114.47 149.738 114.67 149.615 114.917C144.866 119.34 139.316 122.816 133.264 125.159C123.876 128.955 112.473 131.01 99.802 131.009C87.3513 131.01 76.1273 129.31 66.8455 125.902C66.6853 125.843 66.515 125.817 66.3444 125.824C66.1738 125.831 66.0063 125.871 65.8514 125.943C65.6965 126.015 65.5572 126.116 65.4415 126.242C65.3259 126.367 65.2361 126.515 65.1772 126.675C65.1184 126.835 65.0918 127.005 65.0987 127.176C65.1057 127.347 65.1463 127.514 65.218 127.669C65.2897 127.824 65.3913 127.963 65.5168 128.079C65.6424 128.194 65.7895 128.284 65.9498 128.343C75.6054 131.885 87.1158 133.608 99.802 133.609C117.068 133.606 132.155 129.891 143.32 123.012C146.156 121.275 148.805 119.249 151.224 116.966C160.368 119.309 168.8 123.854 175.785 130.205C178.754 132.891 181.287 136.021 183.294 139.485C184.925 142.199 185.842 145.282 185.96 148.446C185.96 148.614 185.957 148.781 185.95 148.949C185.723 154.679 182.94 159.706 180.158 163.299C179.002 164.792 177.735 166.196 176.368 167.5C175.856 167.988 175.432 168.362 175.14 168.611C174.994 168.736 174.881 168.829 174.806 168.89L174.723 168.957L174.701 168.974C174.528 169.108 174.392 169.284 174.306 169.485C174.219 169.686 174.184 169.905 174.205 170.123C174.226 170.341 174.301 170.55 174.424 170.73C174.548 170.911 174.714 171.058 174.909 171.157L174.909 171.158L174.997 171.209C175.427 171.473 175.808 171.81 176.123 172.205C176.617 172.812 176.884 173.572 176.879 174.355C176.876 174.719 176.829 175.082 176.738 175.435C176.589 175.98 176.287 176.472 175.869 176.852C175.009 177.608 173.989 178.159 172.886 178.464C171.69 178.831 170.446 179.021 169.195 179.028C168.507 179.045 167.821 178.957 167.16 178.767C167.02 178.725 166.874 178.707 166.728 178.714C166.633 163.772 163.578 147.229 157.728 130.325C157.615 129.999 157.377 129.731 157.067 129.581C156.757 129.43 156.4 129.409 156.074 129.522C155.748 129.635 155.481 129.872 155.33 130.182C155.179 130.492 155.158 130.85 155.271 131.175H155.271C161.134 148.111 164.138 164.649 164.137 179.424C164.137 181.544 164.075 183.627 163.951 185.672C163.941 185.842 163.964 186.013 164.019 186.175C164.075 186.337 164.162 186.486 164.275 186.614C164.388 186.742 164.526 186.846 164.679 186.921C164.833 186.996 165 187.04 165.17 187.051C165.341 187.061 165.512 187.037 165.674 186.982C165.835 186.926 165.984 186.839 166.112 186.725C166.24 186.612 166.344 186.474 166.419 186.32C166.493 186.166 166.537 185.999 166.547 185.829C166.636 184.351 166.683 182.849 166.709 181.335C167.522 181.538 168.357 181.637 169.195 181.628C171.231 181.625 173.244 181.207 175.113 180.4C176.057 179.992 176.924 179.424 177.676 178.722C178.444 178.003 178.993 177.083 179.26 176.066C179.403 175.506 179.476 174.932 179.479 174.355C179.479 172.789 178.872 171.284 177.786 170.156C177.712 170.078 177.639 170.008 177.566 169.937C179.257 168.39 180.813 166.702 182.215 164.889C185.183 161.045 188.275 155.573 188.548 149.053L188.548 149.051C188.556 148.851 188.56 148.649 188.56 148.446C188.444 144.838 187.413 141.319 185.565 138.219Z"/><path id="Vector_9" d="M134.016 38.3407C133.636 37.9657 133.184 37.6719 132.687 37.4772C132.19 37.2825 131.658 37.1909 131.125 37.2081C130.951 37.2086 130.771 37.2376 130.593 37.2544C130.545 37.1237 130.502 36.9906 130.44 36.8651C130.116 36.2312 129.651 35.6801 129.08 35.2543C128.417 34.7434 127.606 34.4613 126.769 34.4503C126.122 34.4545 125.487 34.627 124.928 34.9506C124.363 35.2838 123.864 35.7163 123.454 36.2273C121.793 36.3164 117.231 36.5672 112.607 36.8788C113.227 36.1238 113.764 35.3046 114.209 34.4352C114.489 33.8874 114.734 33.323 114.945 32.7452C116.026 31.9793 116.856 30.9092 117.328 29.6709C117.734 28.551 117.933 27.3666 117.915 26.1754C117.915 25.8482 117.903 25.5459 117.887 25.2768C117.83 24.7467 117.628 24.2428 117.301 23.8218C116.711 23.0562 116.025 22.3692 115.261 21.7775C113.886 20.6762 112.422 19.6911 110.883 18.8323C110.154 18.4197 109.404 18.0455 108.636 17.7111C108.149 17.503 107.648 17.329 107.137 17.1905C107.09 17.0456 107.041 16.9004 106.983 16.7551C106.703 16.0085 106.24 15.3437 105.638 14.8209C104.911 14.223 103.995 13.9039 103.054 13.9206C102.823 13.9211 102.594 13.9366 102.366 13.9671C101.79 14.0579 101.242 14.2787 100.764 14.6126C100.371 14.8794 100.011 15.1916 99.6911 15.5427C98.4563 15.4447 97.3221 15.3887 96.2882 15.3887C94.4121 15.3509 92.5403 15.5841 90.7308 16.0809C90.1148 16.265 89.512 16.4909 88.9267 16.7569C88.6568 15.8933 88.1163 15.1395 87.385 14.6069C86.6396 14.1033 85.7574 13.8412 84.8579 13.8561C84.2441 13.8573 83.6348 13.9605 83.0548 14.1615C82.5249 14.3311 82.0391 14.6161 81.6326 14.9961C80.8032 15.8566 80.3483 17.0106 80.3675 18.2056C80.3654 19.1805 80.6477 20.1349 81.1796 20.9519C81.4401 21.3442 81.7584 21.6949 82.1238 21.992C81.7698 22.3957 81.419 22.8058 81.0855 23.235C79.6831 24.9893 78.5752 26.96 77.8051 29.0698C74.0177 29.9662 70.4062 31.4872 67.1185 33.5703C67.0495 33.2692 66.8739 33.0032 66.6242 32.8214H66.624C65.9091 32.3041 65.0496 32.0245 64.167 32.0222C63.7447 32.0243 63.3248 32.0869 62.9202 32.2081C62.8179 32.0762 62.7069 31.9513 62.5878 31.8342C62.3294 31.5846 62.0242 31.3883 61.6899 31.2567C61.335 31.1216 60.9579 31.0544 60.5782 31.0585C60.426 31.0588 60.2739 31.0675 60.1226 31.0845C59.412 31.1592 58.74 31.4452 58.1935 31.9055C57.6209 32.4069 57.1858 33.0461 56.9295 33.7628C56.2034 33.8352 55.5115 34.1076 54.9309 34.5496C54.5122 34.8697 54.1741 35.2832 53.9436 35.7571C53.713 36.231 53.5965 36.7523 53.6032 37.2793C53.6154 37.9579 53.7693 38.6265 54.055 39.2423C54.285 39.7482 54.5644 40.2302 54.8891 40.6813C48.3843 45.4708 42.7121 51.2985 38.1001 57.9304C31.9605 66.7273 28.6533 77.1891 28.6206 87.9166C28.6316 91.9734 29.0736 96.0176 29.9392 99.981C30.8288 103.69 32.4727 107.175 34.7684 110.221C36.6644 112.918 39.1407 115.156 42.0154 116.771C39.6305 121.178 37.8079 126.071 35.5341 130.33C34.2918 132.804 32.6927 135.081 30.7878 137.09C28.9126 139.016 26.5613 140.412 23.9724 141.136C23.7557 141.197 23.5585 141.313 23.4001 141.473C23.2416 141.633 23.1274 141.831 23.0686 142.048C23.0098 142.265 23.0084 142.494 23.0645 142.712C23.1207 142.93 23.2325 143.13 23.3889 143.291C24.4562 144.321 25.6521 145.208 26.947 145.931C29.8414 147.614 33.127 148.506 36.4748 148.52C39.2352 148.496 41.9622 147.915 44.4925 146.812L44.3911 147.293C44.3218 147.624 44.3841 147.969 44.5647 148.255C44.7453 148.541 45.0301 148.745 45.3588 148.825C46.2649 149.014 47.189 149.103 48.1145 149.091C51.294 149.098 54.4021 148.149 57.0355 146.368C60.3585 144.122 63.5481 140.118 65.5033 133.374C66.8207 129.148 67.5356 124.758 67.6267 120.332C67.6269 119.816 67.613 119.321 67.5885 118.846C69.514 119.089 71.4524 119.215 73.3932 119.223C77.8818 119.217 82.6588 118.478 86.5477 116.016L97.7726 120.098C97.9756 120.773 98.2425 121.427 98.5697 122.051C98.9536 122.802 99.4754 123.475 100.108 124.034C100.866 124.698 101.838 125.066 102.846 125.071C103.921 125.036 104.964 124.694 105.852 124.086C106.124 123.911 106.321 123.639 106.401 123.325C106.832 123.459 107.279 123.529 107.729 123.532C108.454 123.53 109.168 123.349 109.806 123.005C110.258 122.778 110.647 122.443 110.939 122.03C111.216 121.624 111.363 121.143 111.362 120.651C111.357 120.527 111.344 120.404 111.323 120.281C111.404 120.234 111.482 120.181 111.556 120.122C112.011 119.731 112.336 119.211 112.488 118.63C112.641 118.086 112.716 117.522 112.709 116.957C112.708 115.986 112.532 115.023 112.19 114.115C111.924 113.41 111.466 112.793 110.869 112.334C110.076 111.766 109.156 111.401 108.189 111.269C107.3 111.118 106.443 111.081 105.75 111.022C105.623 110.996 105.5 110.952 105.386 110.89C104.844 110.598 104.337 110.247 103.873 109.842C102.113 108.305 100.509 106.598 99.0832 104.747C98.7691 104.252 98.5222 103.717 98.3492 103.156C97.1081 99.0222 96.5167 94.7207 96.5961 90.4053C96.5958 88.4562 96.7008 86.5085 96.9108 84.5707C97.9265 74.9193 101.474 65.7076 107.194 57.8678C108.928 55.4806 110.866 53.2478 112.985 51.1946C113.753 50.4561 114.384 49.905 114.817 49.5421C115.006 49.3838 115.15 49.268 115.259 49.1813C115.518 49.1249 115.933 49.035 116.49 48.9158C117.873 48.6204 119.992 48.1767 121.925 47.809C122.891 47.6252 123.811 47.4604 124.56 47.3435C124.935 47.2851 125.267 47.2386 125.534 47.208C125.799 47.177 126.008 47.1635 126.089 47.1644L126.103 47.1646C126.358 47.2188 126.608 47.2959 126.849 47.3949C127.41 47.6066 128.123 47.9254 128.818 48.202C129.167 48.3404 129.513 48.4692 129.858 48.5713C130.214 48.6857 130.584 48.7489 130.957 48.7591C131.172 48.761 131.386 48.7287 131.591 48.6635C131.873 48.5728 132.126 48.4081 132.323 48.1864L132.325 48.1836C133.093 47.3982 133.546 46.3582 133.597 45.261C133.595 44.8418 133.512 44.427 133.351 44.0397C133.549 43.9603 133.737 43.8597 133.912 43.7395C134.26 43.4941 134.543 43.1678 134.736 42.7887C134.935 42.3888 135.048 41.952 135.069 41.5059L135.069 41.5044C135.076 41.3951 135.079 41.2868 135.079 41.1797C135.11 40.1307 134.728 39.1114 134.016 38.3407ZM83.4711 16.8345L83.47 16.8315L83.472 16.8339C83.6211 16.7294 83.7865 16.6502 83.9615 16.5995C84.2511 16.5059 84.5535 16.4575 84.8579 16.456C85.225 16.4422 85.5876 16.5409 85.897 16.7388C86.253 17.0126 86.4893 17.4135 86.5564 17.8575C86.5761 17.9099 86.5993 17.9608 86.626 18.0099C86.5286 18.0727 86.4297 18.1286 86.3327 18.1934C85.489 18.771 84.6918 19.4137 83.9483 20.1156C83.7124 19.9601 83.51 19.7592 83.3528 19.5245C83.0998 19.1312 82.9659 18.6732 82.9674 18.2056C82.9501 17.7003 83.1308 17.2083 83.4711 16.8345ZM128.384 45.2078C128.053 45.0715 127.724 44.941 127.403 44.8311C127.083 44.7154 126.752 44.6322 126.415 44.5827C126.307 44.5698 126.198 44.5636 126.089 44.5644C125.693 44.5741 125.297 44.6081 124.905 44.6662C123.301 44.8793 120.707 45.3858 118.478 45.8426C116.255 46.299 114.418 46.7039 114.415 46.7047C114.236 46.7444 114.068 46.821 113.92 46.9298C110.559 49.6431 107.589 52.808 105.094 56.3345C99.1058 64.5423 95.3911 74.1859 94.3259 84.29C94.1059 86.321 93.9958 88.3625 93.9961 90.4053C93.9804 93.799 94.3029 97.1858 94.959 100.516C95.1942 101.701 95.5069 102.87 95.8949 104.014C96.1508 104.829 96.5242 105.601 97.0032 106.308C98.1535 107.798 99.4068 109.206 100.754 110.521C101.481 111.243 102.26 111.911 103.085 112.519C103.453 112.787 103.843 113.024 104.25 113.228C104.65 113.434 105.086 113.565 105.534 113.613C106.49 113.645 107.442 113.765 108.376 113.972C108.702 114.054 109.008 114.197 109.281 114.393C109.501 114.56 109.669 114.787 109.763 115.048C109.99 115.659 110.107 116.305 110.109 116.957C110.114 117.259 110.079 117.56 110.004 117.853C109.686 117.507 109.347 117.18 108.99 116.873C108.447 116.409 108.021 116.115 107.996 116.097C107.856 116 107.697 115.932 107.53 115.896C107.363 115.861 107.191 115.858 107.023 115.889C106.855 115.92 106.695 115.983 106.552 116.076C106.408 116.169 106.285 116.289 106.188 116.43C106.091 116.57 106.023 116.728 105.987 116.895C105.951 117.062 105.949 117.235 105.979 117.402C106.01 117.57 106.074 117.731 106.167 117.874C106.259 118.017 106.379 118.141 106.52 118.238L106.522 118.239C106.979 118.566 107.411 118.927 107.814 119.319C108.091 119.583 108.34 119.877 108.555 120.194C108.625 120.299 108.683 120.41 108.73 120.527L108.75 120.604C108.701 120.644 108.647 120.679 108.59 120.707C108.327 120.853 108.031 120.931 107.729 120.932C107.409 120.926 107.095 120.85 106.806 120.712C106.34 120.486 105.915 120.186 105.547 119.822C105.385 119.666 105.256 119.525 105.172 119.428L105.081 119.319L105.063 119.296L105.062 119.294L105.061 119.294C104.853 119.02 104.545 118.839 104.204 118.791C103.864 118.744 103.518 118.833 103.243 119.04C102.968 119.247 102.786 119.555 102.738 119.896C102.69 120.236 102.778 120.582 102.985 120.858H102.985C103.334 121.297 103.726 121.7 104.156 122.06C103.76 122.302 103.31 122.443 102.846 122.471C102.453 122.467 102.076 122.317 101.789 122.05C101.225 121.504 100.793 120.836 100.525 120.097C100.405 119.798 100.3 119.493 100.212 119.183C100.179 119.067 100.156 118.976 100.142 118.916L100.126 118.852L100.124 118.839L100.124 118.839C100.078 118.623 99.9787 118.422 99.8338 118.255C99.689 118.088 99.5039 117.961 99.296 117.886L86.8478 113.359C86.6516 113.287 86.4409 113.264 86.2337 113.291C86.0265 113.318 85.829 113.395 85.6581 113.516C82.3691 115.831 77.8247 116.629 73.3932 116.623C71.3738 116.614 69.3571 116.473 67.3562 116.2C67.3398 116.198 67.3252 116.204 67.3091 116.203C67.0767 114.661 66.6294 113.16 65.9803 111.743C65.5478 110.733 64.9156 109.82 64.1217 109.06C63.8597 108.839 63.5207 108.73 63.1788 108.758C62.837 108.785 62.52 108.947 62.2972 109.208C62.0743 109.469 61.9638 109.807 61.9896 110.149C62.0154 110.491 62.1756 110.809 62.435 111.034L62.4326 111.036L62.4346 111.038C63.0041 111.645 63.4524 112.355 63.7555 113.13C64.6725 115.417 65.1053 117.869 65.0268 120.332C64.935 124.512 64.255 128.658 63.0069 132.648C61.1675 138.945 58.3457 142.332 55.5767 144.215C53.3739 145.705 50.7739 146.498 48.1145 146.491C47.7854 146.491 47.4877 146.478 47.2235 146.46L47.5819 144.757C47.6332 144.513 47.6134 144.26 47.5248 144.027C47.4363 143.794 47.2827 143.592 47.0824 143.444C46.882 143.296 46.6434 143.208 46.3948 143.192C46.1463 143.176 45.8983 143.231 45.6803 143.352C42.8835 144.985 39.713 145.869 36.4749 145.92C33.5815 145.906 30.7425 145.133 28.2421 143.677C27.7399 143.388 27.2973 143.1 26.9143 142.832C29.9661 141.477 32.614 139.354 34.5989 136.669C38.2531 131.908 40.427 125.853 43.0116 120.517C44.1759 117.961 45.624 115.545 47.3286 113.312C48.8944 111.27 50.9429 109.648 53.2902 108.592C53.6065 108.455 53.8556 108.198 53.9824 107.878C54.1093 107.557 54.1036 107.199 53.9666 106.883C53.8296 106.567 53.5725 106.318 53.252 106.191C52.9314 106.064 52.5735 106.07 52.2572 106.207L52.257 106.207C48.6329 107.897 45.6061 110.646 43.5756 114.092C43.4866 114.23 43.4069 114.377 43.3198 114.517C40.7521 113.084 38.5431 111.086 36.8591 108.675C34.7844 105.926 33.2945 102.781 32.481 99.4343C31.6541 95.6505 31.2315 91.7896 31.2205 87.9165C31.2524 77.7102 34.4031 67.7575 40.2503 59.3921C45.3643 52.0874 51.7779 45.7854 59.1713 40.8003C59.4523 40.6038 59.6444 40.3041 59.7055 39.9666C59.7666 39.6291 59.6918 39.2812 59.4975 38.9985C59.3032 38.7159 59.0051 38.5215 58.6681 38.4577C58.3311 38.3939 57.9825 38.4658 57.6984 38.6579L57.6982 38.6578C57.4661 38.8175 57.23 38.9956 56.9968 39.1594C56.7788 38.8559 56.5903 38.5323 56.4338 38.193C56.2948 37.9075 56.2163 37.5965 56.2031 37.2792C56.1988 37.1394 56.229 37.0007 56.291 36.8754C56.386 36.7067 56.531 36.5716 56.7059 36.4886C56.8991 36.3887 57.1125 36.3342 57.3299 36.3294L57.4803 36.3453C57.6625 36.408 57.8564 36.4293 58.0478 36.4078C58.2393 36.3863 58.4235 36.3224 58.5873 36.2208C58.751 36.1193 58.89 35.9826 58.9944 35.8206C59.0987 35.6586 59.1657 35.4755 59.1905 35.2844L59.1915 35.2845L59.2051 35.2071C59.2724 34.8626 59.3996 34.5325 59.5808 34.2318C59.6729 34.0806 59.7932 33.9485 59.9351 33.8425C60.0746 33.7436 60.238 33.6836 60.4084 33.6687L60.5781 33.6584C60.634 33.6551 60.6899 33.6618 60.7434 33.6782C60.7552 33.6862 60.7645 33.6757 60.8599 33.7916C61.0079 34.0006 61.1384 34.2215 61.25 34.452C61.335 34.6145 61.4535 34.7572 61.5976 34.8706C61.7418 34.984 61.9083 35.0656 62.0863 35.1099C62.2643 35.1543 62.4497 35.1604 62.6302 35.1278C62.8107 35.0953 62.9823 35.0248 63.1335 34.9211L63.1345 34.9224L63.1491 34.9133C63.4584 34.7319 63.8086 34.6317 64.167 34.6222C64.5098 34.623 64.8431 34.7347 65.1172 34.9405C65.0457 34.9935 64.9741 35.0405 64.9026 35.0943C64.6274 35.302 64.446 35.6106 64.3983 35.952C64.3506 36.2935 64.4404 36.64 64.6482 36.9152C64.8559 37.1904 65.1644 37.3718 65.5059 37.4195C65.8474 37.4672 66.1938 37.3773 66.469 37.1696C69.0958 35.2083 72.0046 33.6564 75.0965 32.5669C76.0422 32.2293 77.0043 31.9393 77.979 31.6981C78.325 31.6135 78.5945 31.5556 78.774 31.5196L78.9737 31.4812L79.0196 31.473L79.0279 31.4716C79.2744 31.4312 79.5041 31.3207 79.6895 31.1533C79.8749 30.9859 80.0082 30.7687 80.0735 30.5276C80.726 28.4511 81.7665 26.5173 83.1398 24.8286C84.446 23.1087 86.0094 21.6003 87.775 20.3566C88.9035 19.5743 90.1474 18.9734 91.4617 18.5759C93.0339 18.1491 94.6595 17.9513 96.2882 17.9886C96.8938 17.9886 97.5476 18.0098 98.244 18.0478C98.0829 18.5759 98.0003 19.1248 97.9988 19.6768C98.0008 20.5802 98.2279 21.4688 98.6594 22.2624C99.1809 23.1949 99.8972 24.004 100.759 24.6348C101.034 24.8438 101.38 24.9352 101.721 24.8889C102.063 24.8427 102.372 24.6627 102.581 24.3884C102.79 24.1141 102.882 23.7681 102.835 23.4264C102.789 23.0847 102.609 22.7754 102.335 22.5665H102.335C101.769 22.1607 101.297 21.638 100.951 21.0337C100.721 20.6182 100.6 20.1515 100.599 19.6768C100.628 19.1029 100.788 18.5433 101.067 18.0407C101.345 17.538 101.735 17.1056 102.206 16.7763C102.355 16.6665 102.525 16.5877 102.705 16.5448C102.82 16.5292 102.937 16.5211 103.053 16.5206C103.387 16.5015 103.715 16.6076 103.973 16.8181C104.394 17.2446 104.674 17.7898 104.776 18.3804C104.915 18.9986 104.983 19.6305 104.981 20.2641C104.981 20.3949 104.978 20.4988 104.975 20.5667L104.972 20.6407L104.971 20.6544V20.6555H104.971C104.947 20.9994 105.06 21.3389 105.286 21.5992C105.513 21.8595 105.833 22.0193 106.177 22.0435C106.521 22.0677 106.86 21.9543 107.12 21.7282C107.381 21.5021 107.541 21.1818 107.565 20.8379C107.566 20.8129 107.581 20.6006 107.581 20.264C107.58 20.2117 107.579 20.1496 107.578 20.0917C107.909 20.2315 108.257 20.3879 108.624 20.5743C110.268 21.4135 111.83 22.4032 113.29 23.5308C113.863 23.9661 114.399 24.4483 114.893 24.9725C115.031 25.1205 115.155 25.2812 115.263 25.4525L115.294 25.5131C115.306 25.7193 115.315 25.9384 115.315 26.1754C115.332 27.0488 115.191 27.9181 114.9 28.7416C114.584 29.6168 113.975 30.3553 113.175 30.8308C112.898 30.9979 112.693 31.2616 112.6 31.5709L112.599 31.5708L112.598 31.5731C112.272 32.5494 111.824 33.4808 111.265 34.3453C110.812 35.0624 110.252 35.7056 109.603 36.2523C109.036 36.7248 108.369 37.0624 107.652 37.24C107.058 37.2874 106.481 37.3352 105.932 37.3833C105.589 37.4134 105.272 37.5788 105.05 37.8429C104.828 38.1071 104.721 38.4485 104.751 38.792C104.781 39.1354 104.947 39.4529 105.211 39.6744C105.475 39.896 105.816 40.0035 106.16 39.9734L106.16 39.9733C106.579 39.9365 107.017 39.8997 107.466 39.8631C107.577 39.8818 107.691 39.8852 107.804 39.8733C107.88 39.8604 107.948 39.8344 108.022 39.8192C111.129 39.5728 114.75 39.3376 117.785 39.1547C119.618 39.0442 121.235 38.9527 122.394 38.8887C123.553 38.8247 124.25 38.7887 124.252 38.7885C124.502 38.7749 124.742 38.6895 124.944 38.5424C125.146 38.3953 125.302 38.1929 125.392 37.9596C125.614 37.6625 125.89 37.4098 126.206 37.2145C126.363 37.1142 126.544 37.0577 126.73 37.0509C126.915 37.0441 127.1 37.0872 127.263 37.1758C127.546 37.3242 127.79 37.5374 127.974 37.798C128.008 37.8493 128.038 37.9029 128.065 37.9583C127.708 38.1212 127.344 38.3104 126.973 38.5257C126.675 38.6995 126.458 38.9845 126.371 39.3179C126.283 39.6514 126.331 40.006 126.505 40.3038C126.679 40.6016 126.964 40.8181 127.297 40.9058C127.631 40.9935 127.986 40.9451 128.283 40.7713C129.132 40.2123 130.111 39.8806 131.125 39.808C131.309 39.7911 131.496 39.8127 131.672 39.8715C131.848 39.9302 132.01 40.0249 132.148 40.1495C132.39 40.4359 132.509 40.8061 132.479 41.1796L132.474 41.3484C132.474 41.4354 132.456 41.5216 132.423 41.6019L132.416 41.6128L132.412 41.6158C132.263 41.6831 132.099 41.7114 131.935 41.6982C131.56 41.6872 131.188 41.6288 130.828 41.5243C130.661 41.4788 130.52 41.4326 130.425 41.3995L130.335 41.3669C130.291 41.3498 130.256 41.3369 130.245 41.3328C129.925 41.2194 129.573 41.2359 129.264 41.3788C128.956 41.5217 128.716 41.7797 128.595 42.0974C128.475 42.4151 128.484 42.7674 128.62 43.0788C128.756 43.3902 129.008 43.6359 129.323 43.7634C129.332 43.7667 129.358 43.7771 129.399 43.7927C129.748 43.9327 130.077 44.1178 130.378 44.3434C130.564 44.4806 130.727 44.6481 130.859 44.8389C130.947 44.9624 130.995 45.1096 130.997 45.261C130.969 45.5663 130.851 45.8565 130.658 46.0946C130.542 46.0627 130.404 46.021 130.253 45.9657C129.723 45.7781 129.044 45.4801 128.384 45.2078L128.384 45.2078Z"/></g></g></svg>