<svg xmlns="http://www.w3.org/2000/svg" width="200" height="200" fill="none"><path fill="#FFD93A" d="m80.606 159.811-2.58 5.324s-1.453 2.097 1.451 3.871c2.904 1.776 34.365 20.006 34.365 20.006s1.774 2.098 4.516-.968c2.743-3.065 21.78-38.558 21.78-38.558s-1.774-5.809 1.129-10.649c2.905-4.839 8.551-4.033 8.551-4.033l4.841-9.196s1.774-2.904-1.452-5.001c-3.227-2.098-28.718-16.617-28.718-16.617l-12.745 3.226-20.813 34.202s4.68 2.905 4.518 8.39c-.161 5.485-3.066 11.132-14.843 10.003Z"/><path fill="#191C22" d="M171.063 94.858c-5.21-3.638-11.755-7.352-18.57-10.408a107.62 107.62 0 0 0-7.414-3.004 857.974 857.974 0 0 1 4.443-25.642 767.972 767.972 0 0 1 1.969-10.068c.242-1.19.433-2.115.564-2.741.131-.627.201-.952.201-.953a1.302 1.302 0 0 0-1.634-1.52l-27.105 7.885c-4.549-3.37-10.787-6.384-16.018-8.62a156.087 156.087 0 0 0-9.185-3.584L89.21 12.828a1.305 1.305 0 0 0-.877-.784 1.305 1.305 0 0 0-1.15.244c-.06.051-12.908 10.414-27.548 30.121a188.733 188.733 0 0 0-3.736-1.957c-10.152-5.167-23.662-10.889-37.232-13.069a1.3 1.3 0 1 0-.411 2.568c13.136 2.103 26.458 7.719 36.463 12.818 1.17.596 2.291 1.184 3.366 1.76a220.138 220.138 0 0 0-4.35 6.234 141.659 141.659 0 0 0-10.353-3.63c-8.15-2.491-16.955-4.327-25.014-4.33a46.91 46.91 0 0 0-4.31.191 1.3 1.3 0 1 0 .24 2.59 44.218 44.218 0 0 1 4.07-.18c7.664-.003 16.268 1.77 24.253 4.216 3.365 1.03 6.608 2.18 9.643 3.36a218.725 218.725 0 0 0-3.804 6.002c-7.313-1.458-15.59-2.57-23.073-2.572-1.72 0-3.397.06-5.014.187a1.3 1.3 0 1 0 .206 2.593 60.89 60.89 0 0 1 4.808-.18c6.927-.001 14.687 1.002 21.652 2.346A214.664 214.664 0 0 0 33.89 87.37v.003c-13.426 32.082-15.193 63.663-15.197 78.205 0 5.252.233 8.282.235 8.311a1.3 1.3 0 1 0 2.592-.2l-.009-.128c-.042-.619-.218-3.455-.218-7.983-.003-14.331 1.765-45.608 14.994-77.2A211.911 211.911 0 0 1 49.74 61.902c3.347.708 6.456 1.477 9.097 2.228 2.88.819 5.226 1.619 6.728 2.264a1.3 1.3 0 0 0 1.025-2.39c-1.675-.717-4.089-1.534-7.042-2.374a140.409 140.409 0 0 0-8.384-2.084 216.868 216.868 0 0 1 3.562-5.584 127.526 127.526 0 0 1 8.503 3.835 1.3 1.3 0 0 0 1.163-2.325c-2.36-1.18-5.144-2.45-8.193-3.714a217.879 217.879 0 0 1 4.19-5.975 183.47 183.47 0 0 1 6.431 3.729c1.461.888 2.608 1.617 3.388 2.122.39.253.688.45.888.582l.225.15.072.05a1.3 1.3 0 0 0 1.465-2.148c-.025-.017-4.218-2.873-10.921-6.598a212.617 212.617 0 0 1 8.25-10.382c5.305-6.26 9.974-11.014 13.31-14.198a121.123 121.123 0 0 1 3.92-3.59l.031-.028 8.66 22.234c.14.36.43.636.795.76a152.09 152.09 0 0 1 10.587 4.149c5.116 2.227 11.018 5.18 14.986 8.246.33.255.757.336 1.157.22l25.636-7.459c-1.075 5.216-3.932 19.512-6.687 36.964-3.541-1.164-7.022-2.059-10.296-2.563a1.3 1.3 0 1 0-.395 2.57c3.218.492 6.708 1.401 10.285 2.597a712.917 712.917 0 0 0-.793 5.252l-.001.011c-.053.378-.09.765-.134 1.148-3.855-2.175-7.57-4.04-10.926-5.445a1.3 1.3 0 1 0-1.003 2.399c3.525 1.473 7.514 3.5 11.667 5.887a79.626 79.626 0 0 0-.181 5.44c0 .692.022 1.407.036 2.112-4.05-2.306-8.335-4.352-12.835-6.03a1.3 1.3 0 1 0-.908 2.436c4.872 1.816 9.496 4.082 13.835 6.656.128 3.044.344 6.202.604 9.481l-11.112-6.449c1.578-.211 2.576-.602 2.65-.63a1.3 1.3 0 0 0-.965-2.414c-.094.037-1.574.581-3.661.579a11.905 11.905 0 0 1-3.76-.605 1.279 1.279 0 0 0-1.069.129 3.346 3.346 0 0 0-.381.092l-.001-.004-10.025 2.255a2.807 2.807 0 0 0-.968.257c-.414-.019-.829.136-1.098.492l-.001-.001c-.024.034-.638.815-1.686 1.553-1.052.743-2.501 1.43-4.275 1.43a7.633 7.633 0 0 1-2.416-.409 1.3 1.3 0 0 0-.822 2.466c1.136.379 2.225.543 3.238.542a9.426 9.426 0 0 0 3.101-.531c-4.257 7.303-11 18.751-17.256 29.384a17.038 17.038 0 0 0-2.828-1.356l-.014-.005c-5.782-2.09-13.078-5.89-19.587-10.572-6.516-4.675-12.238-10.265-14.965-15.745a1.3 1.3 0 1 0-2.326 1.163c3.068 6.109 9.06 11.856 15.773 16.693 6.713 4.824 14.15 8.705 20.206 10.9 2.562.963 4.19 2.251 5.196 3.634.353.489.61.997.825 1.513-1.54-.418-3.91-1.023-5.855-1.349a1.3 1.3 0 1 0-.427 2.565v-.001c1.44.24 3.245.674 4.672 1.047a91.268 91.268 0 0 1 2.198.6c0 .019.004.038.004.056.002 1.132-.235 2.271-.637 3.317-.1-.018-.197-.049-.304-.043l-.07.003c-.152.007-.541.022-1.077.022-1.421.006-3.922-.124-5.672-.717a1.3 1.3 0 0 0-.822 2.467c2.268.747 4.899.843 6.466.85-.833 1.028-1.805 1.733-2.623 1.958-1.32.348-2.855.527-4.553.526-6.383.01-14.994-2.527-23.155-6.975-8.17-4.44-15.907-10.778-20.743-18.203a1.3 1.3 0 0 0-2.177 1.42c5.164 7.91 13.21 14.456 21.678 19.067 6.396 3.472 13.021 5.848 18.912 6.81-.808 1.449-1.448 2.651-1.994 3.371l-.122.197a4.621 4.621 0 0 0-.493 2.072c0 1.454.695 2.858 1.975 3.643v.001c8.11 5.069 25.737 15.141 35.067 20.437l.061.032a4.633 4.633 0 0 0 2.07.492c1.461-.001 2.874-.701 3.656-1.994l.016-.026a2655.239 2655.239 0 0 1 21.492-37.068c.183.152.36.307.558.447.998.71 2.202 1.147 3.506 1.317.112 3.113.17 6.542.17 10.097 0 3.764-.063 7.656-.188 11.419a1.299 1.299 0 1 0 2.598.087c.126-3.795.19-7.713.19-11.506 0-3.552-.058-6.982-.169-10.111 3.9-.52 8.165-3.287 10.696-8.878l.005-.01c.869-1.96 1.48-4.296 1.482-6.72.001-1.816-.35-3.688-1.226-5.434-.806-1.61-2.09-3.083-3.851-4.284.453-.765.873-1.457 1.243-2.048l.06-.108a5.066 5.066 0 0 0 .55-2.248c0-.688-.16-1.388-.52-2.015a3.803 3.803 0 0 0-1.55-1.47l.002-.003-10.285-5.969c.069-.177.11-.367.093-.569a317.84 317.84 0 0 1-.607-8.762c7.563 4.842 14.165 10.6 19.508 16.539a1.3 1.3 0 1 0 1.933-1.738 98.79 98.79 0 0 0-21.583-17.963 111.382 111.382 0 0 1-.063-3.663 81.2 81.2 0 0 1 .099-3.964 171.304 171.304 0 0 1 9.26 5.985c8.128 5.625 15.882 12.011 21.196 17.823a1.3 1.3 0 0 0 1.919-1.755c-5.52-6.03-13.386-12.493-21.635-18.206a172.94 172.94 0 0 0-10.542-6.745c.071-.747.155-1.483.255-2.208.235-1.602.474-3.187.714-4.75 4.481 1.646 9.031 3.7 13.3 5.94 4.253 2.227 8.234 4.635 11.602 6.988 3.368 2.35 6.127 4.656 7.912 6.623a1.3 1.3 0 0 0 1.924-1.749c-1.994-2.19-4.873-4.577-8.347-7.006Zm-14.911 38.492c.665 1.324.95 2.781.95 4.267.002 1.977-.515 3.994-1.257 5.662-2.495 5.454-6.566 7.436-9.697 7.444-1.314.001-2.446-.357-3.225-.917-1.723-1.245-2.529-2.947-2.542-4.909 0-.111.021-.228.026-.341.139.173.273.346.429.515.948 1.018 2.229 1.952 3.847 2.28a1.3 1.3 0 0 0 .51-2.549v-.001c-.901-.175-1.762-.754-2.452-1.499-.682-.727-1.172-1.614-1.35-2.156.118-.227.226-.453.367-.679l.007-.011c.216-.353.436-.673.657-.978a7.957 7.957 0 0 0 1.744 1.34 8.026 8.026 0 0 0 4.668 1.01 1.3 1.3 0 0 0-.233-2.589l-.001-.001a5.421 5.421 0 0 1-4.423-1.677c.213-.178.426-.349.639-.49 1.037-.688 2.057-.986 3.122-.989a6.25 6.25 0 0 1 2.106.385v-.001a8.086 8.086 0 0 0 1.828.505c.545.078 1.004.076 1.38.076a1.3 1.3 0 1 0 0-2.6c-.379 0-.676-.002-1.012-.05a5.282 5.282 0 0 1-1.102-.296 186.308 186.308 0 0 1 2.178-3.946c1.329.941 2.243 2.02 2.836 3.195Zm-3.047-11.094.071.039c.268.136.416.291.527.479.109.189.174.429.175.721 0 .318-.086.692-.267 1.061-1.276 2.047-3.029 5.058-5.032 8.813-.024.045-.024.094-.042.14a8.572 8.572 0 0 0-.599-.027c-1.577-.003-3.147.476-4.565 1.426-1.419.947-2.695 2.344-3.819 4.181h-.001l-.004.007-.003.005h.001c-1.159 1.858-1.766 3.855-1.766 5.796a8.482 8.482 0 0 0 1.278 4.521c-.007.011-.019.017-.026.028a2651.866 2651.866 0 0 0-21.917 37.787c-.246.418-.789.731-1.426.73-.294 0-.599-.067-.898-.214-9.326-5.294-26.922-15.351-34.923-20.351l-.02-.013c-.42-.245-.733-.79-.732-1.427 0-.286.066-.582.205-.872.823-1.148 1.547-2.597 2.499-4.255.029-.051.031-.108.053-.161a31.14 31.14 0 0 0 2.737.129c1.884 0 3.641-.195 5.232-.616l.024-.006c1.874-.551 3.467-1.984 4.663-3.818 1.188-1.842 1.97-4.132 1.973-6.543.003-2.007-.564-4.104-1.913-5.959a10.942 10.942 0 0 0-1.469-1.626c.008-.013.022-.02.03-.033 7.539-12.818 15.827-26.881 19.626-33.465.208-.312.388-.514.491-.59.113-.077.094-.064.178-.073.094 0 .193-.011.285-.031l10.078-2.268.127-.035a.789.789 0 0 1 .246-.038c.214-.004.515.09.76.213l28.163 16.345Z"/><path fill="#191C22" d="M87.421 56.961c-1.25-.85-2.815-1.464-4.599-1.462-.807 0-1.652.125-2.517.396a1.3 1.3 0 1 0 .776 2.481 5.809 5.809 0 0 1 1.741-.278c1.185.002 2.223.396 3.14 1.016.913.616 1.68 1.464 2.216 2.27a1.3 1.3 0 0 0 2.163-1.442c-.697-1.043-1.664-2.127-2.92-2.98ZM119.289 74.578c.947.786 1.643 1.844 2.038 2.738a1.3 1.3 0 0 0 2.376-1.056c-.538-1.204-1.421-2.568-2.75-3.68a8.175 8.175 0 0 0-5.317-1.935c-.353 0-.715.022-1.084.065a1.3 1.3 0 1 0 .305 2.583c.272-.033.531-.048.779-.048 1.534.005 2.697.545 3.653 1.333ZM99.537 71.667a1.296 1.296 0 0 0-1.482.05c-.016.012-.507.37-1.227.707-.718.34-1.66.646-2.539.642-.486 0-.951-.085-1.403-.288-.451-.206-.903-.532-1.36-1.09a1.3 1.3 0 1 0-2.017 1.64v-.001c.683.843 1.477 1.447 2.306 1.82.83.375 1.68.52 2.474.519 1.207-.004 2.276-.318 3.144-.676.083.916.332 1.982 1.016 2.97a4.85 4.85 0 0 0 1.912 1.605c.826.392 1.817.6 2.97.599.376 0 .768-.022 1.18-.065a1.3 1.3 0 0 0-.272-2.586c-.331.035-.634.051-.908.051-.848 0-1.437-.15-1.855-.348-.618-.301-.934-.706-1.17-1.246-.229-.535-.312-1.198-.31-1.762a6.744 6.744 0 0 1 .094-1.108l.011-.055.001-.008a1.298 1.298 0 0 0-.565-1.37ZM116.862 137.394c-.987-.64-2.084-.964-3.156-.962-1.998-.005-3.882 1.1-4.91 2.943l-.001-.001-13.101 22.424-.014.024a6.145 6.145 0 0 0-.78 2.992c.001 2.01.99 3.942 2.739 5.04l.042.025 13.604 7.811.017.009a6.153 6.153 0 0 0 2.991.779c2.011-.001 3.942-.989 5.04-2.738l.021-.033 13.102-22.423.014-.025a6.16 6.16 0 0 0 .779-2.992c-.001-2.011-.989-3.943-2.739-5.04l-.041-.025-13.606-7.811-.001.003Zm-17.849 30.252c-.935-.583-1.513-1.672-1.513-2.832 0-.578.141-1.166.45-1.724l3.116-5.333a7.494 7.494 0 0 0 3.554 4.485l-3.687 6.506-1.92-1.102Zm4.175 2.397 3.678-6.492 4.57 2.646-3.649 6.487-4.599-2.641Zm13.939 4.322c-.583.935-1.673 1.514-2.834 1.513a3.56 3.56 0 0 1-1.729-.452l-2.522-1.448 3.645-6.478.618.357.001-.001c1.331.812 2.793 1.214 4.222 1.213a7.466 7.466 0 0 0 1.827-.229l-3.228 5.525Zm12.009-26.93c.935.581 1.514 1.671 1.513 2.832a3.553 3.553 0 0 1-.45 1.725l-3.675 6.289a8.438 8.438 0 0 0-1.458-3.162 1.3 1.3 0 0 0-2.08 1.56 5.85 5.85 0 0 1 1.157 3.458 5.097 5.097 0 0 1-.728 2.651l-.047.088-.49.978c-.929 1.708-2.566 2.607-4.35 2.616-.955-.001-1.948-.266-2.891-.845l-.03-.018-9.574-5.543-.035-.019c-1.712-.93-2.613-2.568-2.622-4.353.001-.955.266-1.948.845-2.89l.056-.101.489-.978c.93-1.709 2.567-2.608 4.35-2.616.955 0 1.948.265 2.891.845l.029.017 7.81 4.535c.618.358 1.412.15 1.774-.465l4.801-8.163 2.715 1.559Zm-4.969-2.853-4.133 7.024-4.543-2.637 4.18-6.968 4.496 2.581Zm-10.928 3.086c-1.306-.773-2.729-1.162-4.123-1.161a7.431 7.431 0 0 0-1.583.181l3.507-6.002.014-.025c.601-1.071 1.596-1.625 2.652-1.629.581.001 1.188.169 1.789.568l.074.046 1.847 1.06-4.177 6.962ZM193.766 72.384a4.357 4.357 0 0 0-1.339-1.015 3.486 3.486 0 0 0-1.5-.34c-.87.003-1.623.31-2.249.69-.862.53-1.529 1.215-2.037 1.81-1.089-.88-2.379-1.308-3.586-1.307-.961.002-1.903.26-2.669.85a3.315 3.315 0 0 0-.939 1.135 3.37 3.37 0 0 0-.349 1.515c.001.9.319 1.815.905 2.735.589.922 1.454 1.868 2.654 2.862a1.3 1.3 0 1 0 1.657-2.003c-1.046-.865-1.725-1.636-2.118-2.256-.397-.622-.5-1.075-.498-1.338a.757.757 0 0 1 .074-.35c.065-.128.176-.25.393-.362.214-.11.527-.19.89-.189.859.001 1.916.425 2.644 1.459.25.355.667.563 1.101.55a1.303 1.303 0 0 0 1.066-.616h.001a9.657 9.657 0 0 1 1.158-1.448c.325-.333.694-.643 1.039-.846.347-.207.647-.293.863-.29a.873.873 0 0 1 .387.089c.142.067.321.189.535.422.124.15.141.201.151.396.002.167-.054.445-.211.791-.267.608-.825 1.387-1.518 2.154-1.039 1.158-2.367 2.31-3.426 3.156a42.177 42.177 0 0 1-1.702 1.29l-.1.07-.03.022a1.3 1.3 0 0 0 1.48 2.138c.028-.02 1.948-1.348 3.91-3.138.982-.897 1.976-1.907 2.764-2.971a9.104 9.104 0 0 0 .996-1.66c.256-.575.435-1.189.437-1.852a3.134 3.134 0 0 0-.834-2.153ZM20.878 77.453a39.373 39.373 0 0 1-1.677 1.8l-.102.1-.031.031a1.3 1.3 0 1 0 1.81 1.867c.024-.024 1.542-1.495 3.09-3.444.774-.976 1.557-2.07 2.17-3.197.605-1.131 1.076-2.283 1.087-3.52 0-.449-.07-.913-.248-1.36a3.262 3.262 0 0 0-.835-1.204c-.779-.727-1.729-1.126-2.642-1.118-.914.002-1.695.354-2.319.783-.88.612-1.523 1.397-2.001 2.066-1.08-.774-2.252-1.161-3.361-1.162-.971 0-1.906.293-2.633.906A3.354 3.354 0 0 0 12 72.594c.002 1.012.4 2.04 1.138 3.04.742 1.004 1.833 2.002 3.35 2.999a1.3 1.3 0 0 0 1.427-2.173c-1.327-.87-2.187-1.691-2.684-2.369-.503-.68-.633-1.195-.63-1.497.009-.31.09-.448.265-.609.177-.152.501-.29.953-.29.718 0 1.727.355 2.678 1.424.286.321.716.481 1.142.425.427-.057.8-.323.993-.707v-.001c.025-.053.455-.87 1.07-1.602.306-.366.657-.705.984-.922.33-.22.605-.305.814-.304.215.008.454.052.885.435a.656.656 0 0 1 .176.25c.037.092.064.218.064.397.012.49-.261 1.356-.772 2.278-.755 1.395-1.964 2.93-2.976 4.085ZM167.869 65a1.3 1.3 0 0 0 1.506-2.119c-5.052-3.59-6.663-7.47-6.658-10.05-.001-1.04.261-1.866.613-2.394.361-.533.753-.767 1.18-.828.117-.016.228-.023.336-.023.569 0 1.121.194 1.679.549.833.526 1.607 1.422 2.133 2.188a12.045 12.045 0 0 1 .763 1.26l.036.07.007.014a1.3 1.3 0 0 0 2.279.123h.001l.001-.001c.012-.023.668-1.061 1.667-2.037.499-.49 1.083-.961 1.684-1.29.604-.332 1.209-.518 1.797-.518.505.003 1.018.125 1.619.486.288.188.44.371.556.599.112.23.182.53.183.93.012.962-.469 2.438-1.285 3.994-1.214 2.348-3.105 4.907-4.684 6.849a69.461 69.461 0 0 1-2.619 3.038l-.161.174-.053.056a1.3 1.3 0 1 0 1.889 1.788c.021-.023 2.336-2.469 4.678-5.623 1.171-1.58 2.35-3.335 3.258-5.085.901-1.756 1.564-3.49 1.577-5.191 0-.705-.127-1.418-.449-2.075a4.094 4.094 0 0 0-1.5-1.653l-.02-.012c-.977-.601-2.013-.878-2.989-.875-1.157.001-2.202.367-3.091.862-1.304.731-2.316 1.741-3.044 2.584-.208-.296-.443-.61-.709-.928-.566-.673-1.263-1.366-2.123-1.918-.856-.548-1.901-.958-3.08-.958-.225 0-.452.016-.68.046-1.258.163-2.327.932-3.005 1.972-.687 1.044-1.042 2.362-1.044 3.828.006 3.643 2.199 8.225 7.752 12.168Z"/></svg>