<svg width="200" height="200" viewBox="0 0 200 200" xmlns="http://www.w3.org/2000/svg"><g id="type=esim-manual, mode=light"><g id="esim-manual"><g id="Group 432527099"><path id="Vector" d="M117.438 50.8372C96.9912 50.0188 80.6328 50.0188 60.3896 51.6546C33.6133 53.8186 14.3008 72.4368 14.3008 98.0715C14.3008 123.706 32.8584 141.3 60.3896 144.16C76.1348 145.796 96.9912 145.78 116.417 143.735C123.714 142.967 131.354 141.055 137.109 138.582L131.943 131.249C123.984 133.952 112.248 134.729 103.563 131.493C84.3037 124.319 74.0498 104.115 81.2246 84.8557C88.3994 65.595 109.601 56.4114 128.86 63.5862C141.637 68.345 151.526 79.7493 152.943 94.4153L162.859 102.415C162.894 101.638 162.833 98.8655 162.833 98.0715C162.833 72.4368 145.478 51.9583 117.438 50.8372Z"/><path id="Vector_2" d="M163.946 101.951C164.013 101.803 164.056 101.642 164.063 101.47C164.107 100.328 164.132 99.1903 164.132 98.0715C164.134 84.9629 159.688 73.1006 151.603 64.3784C143.523 55.6526 131.813 50.1057 117.49 49.5381C109.01 49.1988 101.225 49 93.5708 49C82.7427 48.9999 72.1763 49.3986 60.2842 50.3597C46.6243 51.462 34.8001 56.7732 26.3865 65.1398C17.9707 73.5011 12.9946 84.926 13 98.0715C12.9927 111.202 17.7786 122.387 26.1079 130.582C34.4341 138.784 46.2495 143.999 60.2544 145.453C67.708 146.227 76.2759 146.633 85.2927 146.633C95.4634 146.633 106.204 146.117 116.552 145.028C121.664 144.49 126.44 143.518 130.845 142.136C131.53 141.921 131.911 141.192 131.697 140.507C131.482 139.822 130.752 139.441 130.067 139.655L130.067 139.655C125.842 140.981 121.235 141.921 116.28 142.443C106.033 143.521 95.3753 144.033 85.2927 144.033C76.3543 144.033 67.8665 143.63 60.5232 142.867C46.9968 141.461 35.7678 136.449 27.9324 128.73C20.1001 121.005 15.6072 110.575 15.5999 98.0715C15.605 85.5821 20.2854 74.8806 28.22 66.9834C36.1567 59.0914 47.377 54.012 60.4934 52.9513C72.3206 51.9956 82.8064 51.6001 93.5708 51.6C101.18 51.6 108.928 51.7976 117.386 52.1361C131.101 52.6906 142.088 57.9435 149.696 66.1456C157.299 74.3514 161.53 85.5453 161.532 98.0715C161.532 98.6387 161.51 99.2244 161.497 99.8025C155.776 94.9464 151.491 92.3584 150.388 91.7206C143.8 81.5004 135.851 77.8873 134.212 77.229C133.682 76.6646 132.226 75.2238 129.858 73.7644C126.898 71.9392 122.51 70.1117 116.885 70.1125C115.219 70.1125 113.447 70.2727 111.577 70.6373C111.049 70.7403 109.975 70.9127 109.034 71.0892C108.56 71.1787 108.12 71.2679 107.753 71.3634C107.566 71.4133 107.404 71.4589 107.213 71.5372C107.115 71.5804 107.011 71.623 106.845 71.7408C106.763 71.803 106.66 71.8844 106.539 72.0455C106.424 72.2008 106.279 72.4774 106.279 72.8379C106.277 73.0554 106.338 73.2782 106.426 73.446C106.585 73.7449 106.773 73.8818 106.902 73.9679C107.101 74.0921 107.225 74.125 107.333 74.1583C107.439 74.188 107.528 74.2047 107.618 74.219C108.302 74.328 108.796 74.5408 109.213 74.8236C109.834 75.2459 110.31 75.8721 110.74 76.6586C110.926 76.9979 111.098 77.3698 111.271 77.7469C109.383 77.414 107.403 77.2156 105.365 77.213C102.25 77.2127 99.0047 77.6771 95.7905 78.8302C95.2842 79.0118 94.9444 79.4818 94.9302 80.0193C94.9158 80.5569 95.2302 81.044 95.7261 81.2524C97.1734 81.8598 98.0984 82.4037 98.7132 82.8891C99.1756 83.2551 99.4702 83.5836 99.7197 83.9344C100.092 84.4551 100.365 85.0797 100.79 85.9028C100.927 86.1681 101.091 86.4548 101.27 86.7505C100.926 86.7327 100.582 86.7134 100.234 86.7132C96.439 86.7091 92.3975 87.81 88.5462 90.545C88.0945 90.8651 87.8953 91.4357 88.0493 91.9674C88.2034 92.4991 88.6765 92.8745 89.2295 92.9038C90.7024 92.9896 91.52 93.3393 92.2012 93.8428C92.7112 94.2261 93.157 94.7416 93.634 95.3978C94.3503 96.3758 95.113 97.6578 96.3074 98.9622C97.5015 100.268 99.1399 101.567 101.536 102.593C103.677 103.514 105.214 104.576 106.41 105.701C107.424 106.655 108.193 107.663 108.858 108.694C107.477 108.236 106.248 108.041 105.145 108.042C103.51 108.041 102.19 108.447 101.116 108.799C100.033 109.159 99.2041 109.431 98.4382 109.426C97.9949 109.424 97.5488 109.349 96.9932 109.12C96.4397 108.89 95.7791 108.495 94.9871 107.842C94.5598 107.49 93.9592 107.446 93.4861 107.733C93.0127 108.02 92.7737 108.573 92.8887 109.115C93.9412 114.081 96.8443 118.621 101.237 121.9C105.628 125.183 111.504 127.202 118.481 127.2C120.79 127.2 123.225 126.968 125.764 126.501C126.422 127.183 127.743 128.584 129.471 130.571C125.618 131.81 121.492 132.466 117.262 132.465C114.153 132.465 110.99 132.116 107.843 131.394C91.0251 127.539 79.6138 112.853 79.6162 96.7685C79.6162 94.2341 79.8987 91.664 80.4888 89.0928C82.3455 81.0008 86.9299 74.2361 93.1045 69.479C99.2788 64.7236 107.038 61.9894 115.218 61.9896C117.959 61.9896 120.747 62.2961 123.541 62.9372C134.958 65.5494 144.216 73.884 148.994 84.1831C149.296 84.8344 150.069 85.1175 150.72 84.8154C151.372 84.5131 151.655 83.7402 151.353 83.0888C146.264 72.13 136.424 63.2301 124.123 60.403C121.136 59.7179 118.152 59.3896 115.218 59.3896C106.457 59.3899 98.144 62.3161 91.5181 67.4191C84.8921 72.5204 79.949 79.8118 77.9546 88.5113C77.3203 91.2745 77.0164 94.0409 77.0164 96.7686C77.0188 114.091 89.2769 129.802 107.262 133.928C110.601 134.694 113.958 135.065 117.262 135.065C122.015 135.065 126.658 134.296 130.975 132.82C131.08 132.785 131.161 132.718 131.249 132.66C133.066 134.837 135.156 137.476 137.32 140.483C143.273 148.745 149.75 159.754 152.542 171.24C152.711 171.938 153.415 172.366 154.112 172.196C154.81 172.026 155.238 171.323 155.068 170.625C152.045 158.234 145.06 146.667 138.845 138.158C132.627 129.652 127.164 124.214 127.131 124.181C126.823 123.875 126.385 123.743 125.959 123.828C123.32 124.356 120.823 124.6 118.481 124.6C112.002 124.599 106.704 122.739 102.793 119.818C99.8333 117.605 97.6682 114.782 96.3896 111.664C97.0984 111.91 97.7896 112.027 98.4382 112.026C99.79 112.02 100.894 111.601 101.924 111.27C102.963 110.93 103.938 110.644 105.145 110.642C106.556 110.645 108.358 111.033 110.941 112.466C110.973 112.484 111.009 112.483 111.041 112.498C111.3 112.946 111.57 113.39 111.864 113.822C112.462 114.699 113.167 115.537 114.078 116.241C114.645 116.681 115.462 116.577 115.901 116.009C116.341 115.441 116.237 114.624 115.669 114.185C114.825 113.533 114.171 112.667 113.522 111.588C112.546 109.979 111.628 107.918 110.037 105.849C108.448 103.779 106.156 101.742 102.562 100.204C100.721 99.4109 99.5068 98.5035 98.5637 97.5605C97.147 96.1504 96.362 94.5952 95.1665 93.1299C94.5674 92.4047 93.8381 91.7098 92.8779 91.2001C92.8098 91.1636 92.7329 91.1362 92.6628 91.1018C95.2219 89.8331 97.7703 89.3164 100.234 89.3132C103.594 89.312 106.803 90.2937 109.528 91.7273C112.25 93.1559 114.48 95.0445 115.842 96.7372C116.292 97.296 117.111 97.3838 117.67 96.9331C118.229 96.4823 118.316 95.6639 117.866 95.1051L117.865 95.105C116.237 93.0897 113.771 91.0244 110.738 89.4261C108.951 88.4868 106.961 87.7207 104.839 87.243C104.791 87.1584 104.757 87.0681 104.688 86.9935C103.978 86.2187 103.567 85.5729 103.222 84.9407C102.964 84.4664 102.747 83.9914 102.478 83.4815C102.079 82.7203 101.536 81.8803 100.635 81.1048C100.362 80.8685 100.047 80.6386 99.709 80.4109C101.606 79.9978 103.503 79.8132 105.365 79.813C110.269 79.811 114.93 81.073 118.588 82.5963C120.416 83.3567 121.994 84.1813 123.218 84.9316C124.438 85.6748 125.322 86.3733 125.679 86.7565C126.173 87.2772 126.996 87.2988 127.517 86.8047C128.038 86.3104 128.06 85.4874 127.565 84.9667L127.565 84.9665C126.921 84.2947 125.928 83.5471 124.577 82.7147C122.15 81.2327 118.592 79.5513 114.399 78.4407C114.377 78.3223 114.36 78.2026 114.303 78.0896L114.303 78.0895C113.795 77.0933 113.312 75.7232 112.422 74.4384C112.147 74.0437 111.82 73.66 111.444 73.3038C111.679 73.2627 111.896 73.224 112.074 73.1893C113.782 72.8563 115.385 72.7125 116.885 72.7125C121.939 72.7134 125.839 74.3446 128.495 75.9784C129.821 76.7947 130.83 77.6108 131.5 78.2148C131.835 78.5168 132.085 78.7656 132.247 78.9343L132.425 79.124L132.463 79.1675L132.47 79.1752L132.47 79.1751C132.617 79.3463 132.813 79.4811 133.026 79.5562V79.5564C133.127 79.5934 141.569 82.6434 148.383 93.3955C148.5 93.5814 148.663 93.7338 148.856 93.8396L148.867 93.8457C149.481 94.1831 173.32 107.594 188.847 139.595C189.161 140.241 189.938 140.511 190.584 140.197C191.23 139.884 191.5 139.106 191.187 138.46C182.888 121.374 172.299 109.488 163.946 101.951Z"/></g></g></g></svg>