<svg width="320" height="200" viewBox="0 0 320 200" xmlns="http://www.w3.org/2000/svg"><g id="type=ppap, mode=light"><g id="ppap-cat"><g id="Group 432527043"><path id="Vector" d="M134.3 101.785C133.101 100.641 131.579 99.3398 129.802 98.1426C125.332 95.1289 118.819 93.5547 118.819 93.5547L119.402 86.168C114.348 88.4033 110.753 90.25 110.947 93.0693C111.141 95.8877 114.154 96.082 113.571 99.8721C112.988 103.663 112.307 105.121 113.862 107.162C113.862 107.162 115.87 104.17 122.787 103.836C129.703 103.503 134.3 101.785 134.3 101.785Z"/><path id="Vector_2" d="M120.083 123.977C120.666 131.46 120.958 154.106 120.472 159.549C119.987 164.992 119.792 166.936 122.805 168.199C125.818 169.463 126.79 167.519 131.164 167.519C135.538 167.519 135.634 168.588 139.037 169.365C142.438 170.143 143.021 167.907 146.423 167.13C149.825 166.353 151.963 169.56 153.226 167.228C154.49 164.895 153.226 146.914 150.796 137.389C148.367 127.864 145.645 117.95 143.702 115.034C143.702 115.034 139.328 119.116 132.039 121.547C124.749 123.977 119.987 124.073 120.083 123.977Z"/><path id="Vector_3" d="M207.168 85.9736C203.961 85.0019 202.211 84.71 202.211 84.71L203.086 93.9434C196.671 95.207 190.451 100.164 185.008 105.51C179.565 110.855 174.608 118.048 172.471 129.128C170.332 140.208 169.943 157.994 170.234 164.604C170.526 171.212 173.345 169.56 174.317 169.657C175.289 169.754 178.205 166.158 181.509 166.936C184.813 167.713 185.202 169.074 188.312 168.782C191.423 168.491 191.617 165.575 195.408 166.45C199.198 167.324 201.239 166.645 201.531 164.992C201.822 163.34 202.229 152.537 201.822 147.011C201.045 136.417 201.239 117.756 202.406 113.091C203.572 108.426 208.043 103.371 209.89 102.691L210.667 89.667"/><path id="Vector_4" d="M244.579 96.4191C244.581 93.7751 243.729 91.5764 242.454 90.0117C241.179 88.4501 239.495 87.4899 237.765 87.3486C237.765 87.3483 237.765 87.3486 237.765 87.3483C237.819 86.3244 237.893 85.0722 237.965 83.8325C238.068 82.0429 238.164 80.299 238.179 79.2573L238.18 79.2543L238.181 79.0519C238.18 78.0778 238.076 77.2014 237.83 76.4057C237.472 75.2143 236.729 74.2067 235.713 73.581C234.7 72.9492 233.501 72.6647 232.142 72.56C230.486 72.4343 227.692 72.2028 224.816 72.0029C221.937 71.8032 218.986 71.6335 216.945 71.633L216.85 71.6335H216.858C215.75 71.6362 214.776 71.8051 213.93 72.1362C212.658 72.6269 211.716 73.5087 211.13 74.5085C210.537 75.5097 210.258 76.6052 210.112 77.6667C210.061 78.0478 210.007 78.7343 209.935 79.7609C209.813 81.5046 209.656 84.1567 209.488 87.2453C209.128 86.9584 208.744 86.6703 208.321 86.384C206.974 85.4775 205.315 84.6403 203.467 84.1262C202.909 78.7221 202.262 73.5405 201.562 68.6225C205.668 68.103 210.14 67.8332 214.717 67.8337C222.448 67.833 230.466 68.5903 237.461 70.1242C238.162 70.2778 238.855 69.8339 239.009 69.1328C239.163 68.4313 238.719 67.7382 238.017 67.5847L238.017 67.5844C230.794 66.0021 222.618 65.2346 214.717 65.2338C210.022 65.2343 205.432 65.5099 201.189 66.0495C200.858 63.8217 200.518 61.6532 200.171 59.5488C202.643 59.0947 205.522 58.6157 208.62 58.1733C215.351 57.2114 223.117 56.4218 229.927 56.4225C233.73 56.4216 237.235 56.6706 240.06 57.2509C240.763 57.395 241.45 56.9416 241.595 56.2385C241.739 55.5351 241.285 54.8481 240.582 54.704L240.582 54.7038C237.492 54.0717 233.843 53.8237 229.927 53.8227C222.921 53.8234 215.065 54.6269 208.252 55.5996C205.13 56.0459 202.237 56.5263 199.741 56.9838C199.468 55.3906 199.193 53.8444 198.916 52.3335C199.014 52.3012 199.108 52.2692 199.207 52.2373C208.385 49.2492 222.145 46.1789 232.237 46.187C233.269 46.187 234.262 46.219 235.205 46.2849C235.921 46.3349 236.542 45.7949 236.592 45.0788C236.642 44.3628 236.102 43.7417 235.386 43.6916L235.386 43.6914C234.375 43.6206 233.322 43.5871 232.237 43.5871C225.177 43.5898 216.682 44.9836 209.004 46.8095C205.18 47.7202 201.564 48.7392 198.436 49.7541C194.966 31.4389 191.505 19.9589 191.495 19.924C191.373 19.5202 191.06 19.1987 190.66 19.0659C190.26 18.9331 189.817 19.0036 189.478 19.2544C188.235 20.1736 186.529 21.5818 184.641 23.1955C179.736 27.3896 173.652 32.9424 172.12 34.3447L148.885 34.5429L132.889 19.5578C132.562 19.2517 132.099 19.1355 131.666 19.2502C131.233 19.3652 130.889 19.6962 130.757 20.124C130.749 20.1587 126.651 33.4707 123.02 52.5344C114.771 50.541 103.598 48.7768 94.1267 48.7734C91.4706 48.7734 88.9471 48.913 86.6487 49.2329C85.9375 49.3317 85.4413 49.9885 85.5403 50.6997C85.6393 51.4106 86.2961 51.9069 87.0072 51.8081L87.0071 51.8078C89.1501 51.5095 91.5625 51.3733 94.1267 51.3733C100.703 51.3723 108.271 52.2666 114.999 53.497C117.69 53.9887 120.235 54.5344 122.543 55.0952C122.26 56.6384 121.982 58.2089 121.71 59.8159C120.665 59.706 119.575 59.5976 118.43 59.4946C113.193 59.0234 107.028 58.6528 100.994 58.6528C94.1446 58.6564 87.4838 59.1203 82.4491 60.5117C81.7571 60.7036 81.3518 61.4201 81.5437 62.112C81.7356 62.8039 82.4522 63.2094 83.1442 63.0175L83.1441 63.0173C87.7557 61.7329 94.2743 61.249 100.994 61.2526C106.922 61.2526 113.021 61.6181 118.197 62.0842C119.273 62.1809 120.297 62.2827 121.284 62.3857C120.93 64.579 120.589 66.822 120.268 69.1074C119.072 69.0644 117.861 69.0373 116.627 69.0373C106.466 69.0392 95.1596 70.4775 85.6577 73.2509C84.9684 73.4521 84.5728 74.174 84.7742 74.8635C84.9755 75.5527 85.6975 75.9482 86.3868 75.747L86.3868 75.7468C95.5882 73.0563 106.713 71.6352 116.627 71.6372C117.742 71.6372 118.838 71.6572 119.917 71.6931C119.337 76.0739 118.834 80.5908 118.44 85.186C118.298 85.2065 118.154 85.2385 118.019 85.3095L118.019 85.3093C115.478 86.6503 113.555 87.7912 112.169 89.0058C111.478 89.6152 110.915 90.2517 110.514 90.9682C110.112 91.6813 109.89 92.4834 109.893 93.2976C109.893 94.0681 110.079 94.831 110.397 95.5857C110.716 96.342 111.165 97.1001 111.733 97.9023C112.141 98.4846 112.305 99.1157 112.31 99.8986C112.311 100.597 112.159 101.395 111.915 102.223C111.748 102.787 111.674 103.351 111.674 103.895C111.676 105.23 112.109 106.418 112.653 107.412C111.535 108.793 110.54 110.645 110.176 113.049C110.078 113.685 110.033 114.299 110.033 114.889C110.032 118.083 111.356 120.515 112.646 122.093C113.181 122.748 113.705 123.259 114.149 123.647C114.145 123.666 114.133 123.681 114.13 123.701L114.13 123.701C113.722 126.661 112.73 132.387 111.811 138.311C111.674 139.199 111.54 140.09 111.407 140.978C109.507 140.272 107.679 139.13 105.927 137.74C102.83 135.289 100.002 132.104 97.339 129.469C96.0033 128.151 94.7085 126.966 93.3826 126.073C92.0608 125.188 90.6719 124.558 89.153 124.552C88.9118 124.552 88.6668 124.569 88.4201 124.605C87.7089 124.707 87.0653 124.897 86.4963 125.187C85.641 125.616 84.971 126.293 84.5729 127.081C84.17 127.869 84.0193 128.734 84.0189 129.606C84.0277 131.459 84.6682 133.422 85.5538 135.36C86.445 137.293 87.6038 139.184 88.7509 140.763C90.6507 143.372 93.684 146.415 97.493 148.969C101.058 151.355 105.313 153.294 109.937 153.94C109.932 154.058 109.922 154.191 109.918 154.306C109.886 155.34 109.864 156.347 109.864 157.33C109.867 161.071 110.167 164.467 111.456 167.511C112.42 169.791 113.962 171.838 116.235 173.551C119.651 176.125 124.638 177.993 131.985 179.317C139.336 180.637 149.075 181.403 162.046 181.648C162.969 181.665 163.882 181.674 164.785 181.674C179.057 181.669 190.768 179.525 199.057 175.472C203.199 173.443 206.495 170.924 208.773 167.91C211.052 164.902 212.281 161.386 212.276 157.55C212.276 156.985 212.25 156.413 212.198 155.835C211.268 145.586 209.628 132.862 207.778 121.213C208.206 121.048 208.67 120.851 209.103 120.676C209.551 120.492 209.983 120.337 210.165 120.297C210.178 120.294 210.186 120.284 210.199 120.281C211.259 121.415 212.712 122.085 214.32 122.304C215.746 122.501 218.496 122.73 221.415 122.916C224.331 123.102 227.376 123.241 229.346 123.241C229.464 123.241 229.579 123.241 229.693 123.24C230.724 123.23 231.654 123.081 232.483 122.787C233.727 122.351 234.731 121.556 235.383 120.547C236.04 119.539 236.358 118.358 236.44 117.117C236.551 115.415 236.69 112.496 236.857 108.836C239.313 107.899 240.989 106.457 242.073 104.86C243.187 103.228 243.712 101.488 244.104 99.9797C244.429 98.7228 244.579 97.5319 244.579 96.4191ZM110.109 151.342C106.054 150.74 102.207 148.999 98.9399 146.809C95.399 144.441 92.5412 141.56 90.854 139.235C89.7982 137.783 88.7152 136.011 87.9153 134.273C87.1099 132.539 86.6101 130.822 86.6189 129.606C86.621 128.835 86.7952 128.32 87.0768 127.974C87.2217 127.797 87.4038 127.643 87.6751 127.504C87.9458 127.366 88.3095 127.247 88.791 127.178L88.795 127.178C88.9101 127.161 89.0288 127.152 89.1529 127.152C89.657 127.152 90.2312 127.298 90.8925 127.622C92.0489 128.182 93.4121 129.291 94.8756 130.699C97.08 132.809 99.5274 135.562 102.283 138.054C104.864 140.38 107.735 142.489 111.03 143.59C110.638 146.381 110.308 149.046 110.109 151.342ZM112.493 93.2976C112.496 92.9289 112.576 92.6149 112.783 92.2365C113.092 91.6747 113.749 90.9868 114.828 90.215C115.693 89.5922 116.83 88.9121 118.204 88.1625C118.108 89.4516 118.021 90.7446 117.945 92.0422C117.305 91.9697 116.92 91.9636 116.876 91.9636C116.158 91.9636 115.576 92.5456 115.576 93.2636C115.576 93.9814 116.158 94.5637 116.876 94.5637V94.5634L116.878 94.5637C117.003 94.5656 118.909 94.613 121.837 95.6081C124.473 96.5041 127.94 98.1767 131.706 101.277C131.506 101.324 131.311 101.377 131.107 101.42C129.077 101.846 126.789 102.099 123.704 102.472C119.792 102.947 117.299 103.892 117.226 103.919C117.141 103.953 115.992 104.399 114.613 105.479C114.403 104.955 114.273 104.418 114.274 103.895C114.274 103.585 114.315 103.276 114.409 102.957C114.694 101.985 114.908 100.959 114.91 99.8986C114.914 98.7267 114.627 97.4843 113.855 96.3998C113.361 95.7038 113.01 95.0939 112.794 94.5776C112.576 94.0595 112.493 93.645 112.493 93.2976ZM112.633 114.889C112.633 114.431 112.668 113.949 112.746 113.441C113.16 110.754 114.506 109.014 115.782 107.884C116.418 107.324 117.034 106.93 117.48 106.681C117.703 106.557 117.883 106.469 118.002 106.414L118.131 106.357L118.154 106.348L118.166 106.343C118.373 106.267 120.612 105.465 124.017 105.053C127.084 104.68 129.427 104.427 131.64 103.965C133.851 103.504 135.916 102.823 138.302 101.642C139.515 101.036 141.025 100.098 142.126 98.9118C143.503 97.4079 144.787 96.3 145.932 95.5949C147.08 94.886 148.064 94.5886 148.893 94.5898C149.42 94.5923 149.905 94.7097 150.4 94.9536C149.374 95.446 148.141 96.1901 147.063 97.353C146.576 97.8803 146.609 98.7028 147.136 99.1902C147.663 99.6775 148.486 99.645 148.973 99.1176L148.973 99.1174C149.806 98.2129 150.874 97.5798 151.734 97.1916C152.111 97.0207 152.432 96.9035 152.684 96.8191C153.153 97.3164 153.619 97.8808 154.013 98.4907C152.638 99.2834 151.372 100.186 150.331 101.15C149.804 101.638 149.773 102.46 150.261 102.987C150.749 103.514 151.572 103.545 152.098 103.057L152.098 103.057C152.903 102.31 153.923 101.56 155.043 100.892C155.094 101.158 155.121 101.422 155.12 101.68C155.119 102.229 155.009 102.764 154.735 103.325C154.46 103.885 154.012 104.478 153.294 105.092C151.237 106.848 150.097 107.836 147.982 109.865C144.874 112.851 140.118 115.997 134.885 118.357C129.652 120.724 123.93 122.305 118.921 122.3C118.07 122.3 117.244 122.248 116.44 122.155C116.02 121.851 115.074 121.084 114.239 119.892C113.374 118.655 112.635 117.011 112.633 114.889ZM148.291 88.4982L148.335 88.4204L150.26 84.4646C151.573 84.2172 156.224 83.2871 161.322 82.2668C166.509 81.2285 172.136 80.101 175.072 79.5256L175.078 79.5244L175.227 79.51C175.594 79.5105 175.932 79.7734 176.002 80.1557L178.849 95.111C178.87 95.2307 178.879 95.3379 178.879 95.4296C178.873 95.738 178.804 95.8662 178.702 95.9885C178.595 96.1064 178.39 96.247 177.979 96.3274C173.142 97.248 162.643 99.2609 157.554 100.23C157.426 99.6333 157.235 99.06 156.993 98.5229C156.341 97.0842 155.38 95.8615 154.455 94.8991C153.991 94.4187 153.536 94.0046 153.123 93.6655C152.708 93.3256 152.345 93.0642 152.025 92.8723C151.082 92.3044 150.028 92.0024 148.953 91.9941L148.291 88.4982ZM208.953 97.8061C208.894 99.0737 208.836 100.332 208.782 101.564C208.628 101.617 208.48 101.698 208.35 101.812C205.212 104.572 203.027 108.269 201.636 112.586C200.634 115.695 200.041 119.135 199.783 122.822C199.609 122.781 199.425 122.77 199.238 122.807L196.471 123.353C195.766 123.492 195.308 124.176 195.447 124.88C195.586 125.585 196.27 126.043 196.974 125.904L199.656 125.375C199.639 125.991 199.628 126.611 199.628 127.239C199.628 128.356 199.655 129.491 199.707 130.644C199.866 134.152 199.995 138.534 200.098 142.975L197.359 142.504C196.651 142.382 195.979 142.857 195.857 143.565C195.736 144.272 196.211 144.945 196.918 145.066L199.969 145.591C200.033 145.602 200.093 145.584 200.156 145.585C200.203 147.864 200.245 150.117 200.28 152.233C200.338 155.753 200.379 158.898 200.406 161.162C200.433 163.426 200.445 164.805 200.445 164.809C200.451 165.527 201.038 166.104 201.756 166.098C202.474 166.091 203.051 165.504 203.045 164.787L203.045 164.786C203.045 164.778 202.851 142.625 202.304 130.526C202.254 129.411 202.228 128.315 202.228 127.239C202.227 122.058 202.826 117.361 204.11 113.384C205.154 110.15 206.649 107.41 208.626 105.21C208.456 109.376 208.342 112.876 208.341 114.671C208.342 115.119 208.347 115.458 208.366 115.728C208.422 116.543 208.591 117.3 208.842 118C208.443 118.143 208.043 118.302 207.645 118.464C207.33 118.594 207.031 118.717 206.788 118.809C206.551 118.902 206.346 118.96 206.341 118.958C206.287 118.968 206.245 119 206.194 119.017C206.165 119.019 206.139 119.009 206.11 119.013C205.401 119.127 204.919 119.794 205.033 120.503C206.946 132.393 208.656 145.573 209.608 156.07C209.654 156.571 209.676 157.065 209.676 157.55C209.671 160.838 208.661 163.736 206.698 166.343C203.758 170.246 198.572 173.462 191.443 175.667C184.32 177.875 175.291 179.075 164.785 179.074C163.899 179.074 163.002 179.066 162.094 179.049C150.636 178.832 141.755 178.204 134.915 177.166C129.785 176.389 125.805 175.379 122.752 174.163C120.462 173.251 118.697 172.227 117.334 171.106C115.293 169.421 114.121 167.537 113.401 165.276C112.685 163.019 112.462 160.37 112.464 157.33C112.464 156.386 112.485 155.404 112.517 154.387C112.629 150.71 113.466 144.6 114.381 138.709C115.228 133.244 116.137 127.957 116.602 124.781C117.366 124.853 118.137 124.9 118.921 124.9C119.003 124.9 119.086 124.892 119.168 124.891L118.802 165.719C118.796 166.437 119.373 167.024 120.091 167.03C120.809 167.037 121.396 166.46 121.402 165.742L121.769 124.741C126.484 124.283 131.398 122.78 135.955 120.726C138.497 119.577 140.915 118.257 143.126 116.851C143.453 117.544 143.949 118.6 144.7 120.21C148.232 127.762 150.121 138.809 151.071 148.323C152.029 157.843 152.083 165.854 152.082 167.479C152.082 167.681 152.082 167.782 152.082 167.782C152.077 168.5 152.655 169.086 153.373 169.091C154.091 169.096 154.677 168.518 154.682 167.8L154.682 167.8C154.682 167.797 154.682 167.687 154.682 167.479C154.682 165.797 154.629 157.716 153.658 148.063C152.679 138.403 150.816 127.196 147.056 119.112C146.163 117.197 145.63 116.064 145.313 115.393C146.987 114.204 148.496 112.973 149.781 111.742C151.866 109.743 152.924 108.827 154.983 107.07C155.926 106.265 156.619 105.39 157.069 104.47C157.333 103.934 157.502 103.386 157.604 102.839C157.653 102.835 157.699 102.85 157.748 102.841L157.748 102.84C162.724 101.893 173.541 99.8186 178.465 98.8813C179.3 98.7241 180.074 98.3508 180.634 97.7273C181.199 97.1081 181.486 96.2678 181.479 95.4296C181.479 95.174 181.455 94.9172 181.41 94.6596L181.407 94.6416L178.556 79.6699C178.245 78.0437 176.829 76.9096 175.227 76.9101C175.013 76.9101 174.791 76.9301 174.566 76.9753C171.617 77.5537 165.996 78.6796 160.812 79.7172C155.628 80.7548 150.868 81.7065 149.707 81.923C149.026 82.0483 148.434 82.4609 148.074 83.0334L148.004 83.1594L145.997 87.2824L146.008 87.2876C145.805 87.6552 145.685 88.0603 145.685 88.4782C145.685 88.6294 145.699 88.7832 145.728 88.936L146.4 92.4853C145.786 92.7155 145.174 93.0073 144.566 93.3825C143.136 94.2671 141.699 95.5307 140.209 97.1545C139.494 97.9482 138.138 98.831 137.151 99.3105C136.266 99.7468 135.457 100.086 134.665 100.383C130.012 96.2197 125.617 94.1047 122.364 93.0432C121.694 92.8242 121.086 92.6589 120.52 92.5197C120.926 85.447 121.637 78.4763 122.523 71.8188C124.601 71.9489 126.59 72.1462 128.445 72.4196C129.155 72.5241 129.816 72.0334 129.92 71.3232C130.025 70.613 129.534 69.9523 128.824 69.8479C126.944 69.5708 124.95 69.3676 122.876 69.2334C123.191 67.0029 123.525 64.8144 123.872 62.6723C126.439 62.9748 128.523 63.2744 129.858 63.5104C130.564 63.6352 131.239 63.1633 131.364 62.4565C131.489 61.7495 131.017 61.0751 130.31 60.9504C128.925 60.706 126.842 60.4062 124.297 60.1047C124.549 58.6203 124.807 57.1689 125.068 55.7392C127.421 56.3747 129.408 57.0136 130.833 57.5876C131.499 57.8554 132.256 57.5329 132.524 56.8671C132.792 56.2011 132.469 55.4438 131.803 55.176C130.188 54.5261 128.052 53.8471 125.545 53.1755C126.231 49.5644 126.934 46.1511 127.623 43.0043C129.094 36.2944 130.5 30.759 131.538 26.9045C131.989 25.2312 132.364 23.8969 132.651 22.8984L147.487 36.7963C147.729 37.0234 148.055 37.1501 148.387 37.1474L172.642 36.9404C172.963 36.9375 173.273 36.8151 173.51 36.5974C173.511 36.5969 173.71 36.4143 174.07 36.0852C175.329 34.9331 178.547 32.0012 181.965 28.9765C184.654 26.5971 187.471 24.1618 189.532 22.5063C190.629 26.4316 193.291 36.4961 195.95 50.5971C193.885 51.3291 192.115 52.0432 190.744 52.7067C190.097 53.0195 189.827 53.7971 190.14 54.4436C190.453 55.0898 191.231 55.3598 191.877 55.0471C193.038 54.4839 194.597 53.8479 196.43 53.1875C196.683 54.5805 196.935 56.0078 197.186 57.4704C195.398 57.8252 193.925 58.1499 192.864 58.4128C192.167 58.5857 191.743 59.2907 191.916 59.9878C192.088 60.6845 192.793 61.1096 193.49 60.9367C194.484 60.6899 195.895 60.3786 197.617 60.0358C197.957 62.102 198.291 64.2329 198.616 66.4184C197.274 66.6318 195.966 66.8684 194.72 67.1399C194.018 67.2927 193.574 67.9853 193.727 68.687C193.879 69.3886 194.572 69.8332 195.274 69.6804C196.457 69.4221 197.707 69.1963 198.992 68.9912C200.039 76.3552 200.969 84.3227 201.651 92.7221C197.798 94.0595 190.173 97.6347 181.818 106.657C176.21 112.714 172.983 120.468 171.147 128.822C169.311 137.181 168.858 146.167 168.857 154.799C168.857 159.218 168.977 163.544 169.096 167.64C169.116 168.357 169.715 168.923 170.433 168.902C171.15 168.881 171.715 168.283 171.695 167.565L171.695 167.565C171.576 163.471 171.457 159.171 171.457 154.799C171.456 146.26 171.913 137.444 173.686 129.38C174.39 126.177 175.311 123.104 176.476 120.204L179.201 121.411C179.857 121.702 180.625 121.405 180.916 120.749C181.207 120.093 180.91 119.325 180.254 119.034L177.506 117.817C179.133 114.349 181.172 111.18 183.726 108.424C189.439 102.258 194.74 98.7849 198.587 96.8515C200.511 95.885 202.071 95.3039 203.138 94.9668C203.671 94.7981 204.081 94.6904 204.35 94.6259C204.485 94.5937 204.585 94.5725 204.647 94.5598L204.713 94.5468L204.725 94.5446V94.5444L204.831 94.5219C205.282 94.405 205.686 94.3105 205.974 94.2461C206.118 94.2138 206.233 94.1889 206.312 94.1726L206.428 94.1484C207.132 94.0068 207.588 93.3215 207.446 92.6176C207.304 91.9138 206.619 91.458 205.915 91.5996C205.9 91.6025 205.179 91.7478 204.233 91.9914C204.224 91.9929 204.209 91.9961 204.198 91.998C204.057 90.29 203.904 88.6045 203.744 86.9338C204.89 87.3579 205.962 87.9287 206.869 88.5405C207.984 89.2866 208.842 90.0883 209.308 90.6325C209.188 92.944 209.067 95.3845 208.953 97.8061ZM213.75 75.3156C214.038 75.0036 214.386 74.7517 214.878 74.5571C215.37 74.3645 216.014 74.2356 216.864 74.2334H216.872L216.945 74.2329C218.85 74.2324 221.785 74.3981 224.636 74.5966C226.324 74.7143 227.981 74.8422 229.404 74.9541L229.297 76.1374C229.232 76.8522 229.759 77.4846 230.474 77.5495C231.189 77.6142 231.821 77.0871 231.886 76.372L231.996 75.1591C232.709 75.2165 233.294 75.3335 233.74 75.4985C234.429 75.7629 234.794 76.0715 235.09 76.572C235.373 77.0625 235.568 77.8344 235.577 78.9653L212.806 77.3776C212.988 76.5268 213.291 75.8085 213.75 75.3156ZM233.515 118.524C233.246 119.187 232.867 119.657 232.284 120.02C231.701 120.378 230.864 120.628 229.669 120.64C229.568 120.641 229.46 120.642 229.346 120.642C227.49 120.642 224.458 120.505 221.581 120.322C218.707 120.139 215.946 119.906 214.677 119.729C213.522 119.565 212.682 119.138 212.077 118.489C211.5 117.862 211.101 116.969 210.981 115.696L233.831 117.049C233.786 117.61 233.681 118.109 233.515 118.524ZM233.986 114.454L210.961 113.09C211.041 109.231 211.354 101.863 211.697 94.8713C211.897 90.81 212.106 86.8689 212.286 83.798C212.375 82.2736 212.457 80.9653 212.527 79.9643L235.486 81.5651C235.452 82.2314 235.411 82.9533 235.369 83.6831C235.287 85.1167 235.199 86.5676 235.144 87.6865C234.175 88.0283 233.31 88.5971 232.616 89.3352C231.445 90.5727 230.706 92.2419 230.449 94.1049C230.38 94.6052 230.347 95.0964 230.347 95.5744C230.341 98.9795 232.069 101.724 234.522 102.964C234.308 107.62 234.13 111.664 233.986 114.454ZM241.587 99.3286C241.22 100.753 240.765 102.17 239.927 103.392C239.261 104.355 238.365 105.224 236.989 105.932C237.037 104.885 237.086 103.798 237.138 102.673C237.148 102.469 237.1 102.28 237.024 102.104C237.029 101.564 236.709 101.056 236.17 100.866L236.17 100.866C234.9 100.42 233.744 99.2636 233.23 97.5483C233.294 97.5446 233.352 97.5341 233.419 97.5341C234.247 97.5354 235.169 97.8203 235.865 98.5305C236.368 99.0422 237.191 99.049 237.703 98.5459C238.215 98.0424 238.222 97.2194 237.719 96.7077L237.719 96.7075C236.45 95.4211 234.825 94.9331 233.419 94.9343C233.272 94.9345 233.133 94.956 232.989 94.9663C233.002 94.7968 233.001 94.6347 233.025 94.4599C233.039 94.3571 233.068 94.2658 233.086 94.1655C233.596 93.8718 234.423 93.5905 235.205 93.5986C235.673 93.5988 236.119 93.686 236.52 93.8791C237.167 94.1904 237.943 93.9187 238.255 93.2719C238.566 92.625 238.295 91.8481 237.648 91.5368L237.648 91.5366C236.84 91.1477 235.996 90.9985 235.205 90.9987C234.993 91 234.793 91.0298 234.589 91.0493C235.316 90.3303 236.177 89.9341 237.24 89.9275C237.348 89.9275 237.453 89.9314 237.558 89.9402L237.564 89.9404C238.431 90 239.554 90.56 240.437 91.6521C241.32 92.7409 241.977 94.3293 241.979 96.4192C241.979 97.2993 241.861 98.2695 241.587 99.3286Z"/><path id="Vector_5" d="M220.973 90.8213L227.784 86.5088C228.39 86.1248 228.571 85.3216 228.187 84.7151C227.802 84.1084 226.999 83.928 226.393 84.3123L219.582 88.6248C218.976 89.0088 218.795 89.8121 219.179 90.4185C219.563 91.0252 220.367 91.2056 220.973 90.8213Z"/><path id="Vector_6" d="M226.606 102.825L219.794 107.137C219.188 107.522 219.007 108.324 219.391 108.931C219.775 109.538 220.578 109.718 221.185 109.334L227.997 105.022C228.603 104.637 228.784 103.835 228.4 103.228C228.015 102.621 227.212 102.441 226.606 102.825Z"/><path id="Vector_7" d="M223.959 92.8177C223.575 92.211 222.772 92.0306 222.165 92.4148L215.354 96.7273C214.747 97.1114 214.567 97.9144 214.951 98.521C215.335 99.1277 216.138 99.3082 216.745 98.9239L223.556 94.6114C224.163 94.2273 224.343 93.4244 223.959 92.8177Z"/><path id="Vector_8" d="M174.566 76.9753H174.567L174.573 76.9741L174.566 76.9753Z"/><path id="Vector_9" d="M161.778 94.3482C162.032 95.6572 163.171 96.5686 164.463 96.5684C164.633 96.5684 164.805 96.5527 164.977 96.52L164.98 96.5195L173.034 94.9746C174.344 94.7192 175.255 93.5798 175.255 92.2891C175.255 92.1179 175.238 91.9446 175.205 91.7722L173.967 85.3154C173.712 84.0049 172.572 83.0942 171.281 83.0942C171.107 83.0942 170.933 83.1113 170.764 83.144L162.71 84.6897C161.4 84.9431 160.489 86.083 160.489 87.374C160.489 87.5456 160.506 87.7192 160.539 87.8918L161.778 94.3482ZM172.652 92.262L172.655 92.2891L172.543 92.4214L169.817 92.9443L169.407 90.7769L172.257 90.2041L172.652 92.262ZM171.255 85.6973L171.281 85.6941L171.414 85.8054L171.768 87.6504L168.923 88.2222L168.543 86.2175L171.255 85.6973ZM163.2 87.2432L165.99 86.7078L167.264 93.4341L164.492 93.9656L164.463 93.9685L164.331 93.8584L163.092 87.4011L163.089 87.374L163.199 87.2434L162.955 85.9665L163.2 87.2432Z"/><path id="Vector_10" d="M186.594 62.3981C186.906 61.8898 187.077 61.3192 187.129 60.754L187.132 60.7101L187.184 59.8468H187.183L187.191 59.6583C187.193 59.1749 187.042 58.7062 186.802 58.3319C186.439 57.7657 185.918 57.3937 185.356 57.1485C184.79 56.9049 184.163 56.7845 183.505 56.7838L183.468 56.7852V56.7845C181.963 56.7955 180.363 56.8043 178.778 56.8141C178.849 56.5431 178.895 56.2572 178.895 55.9525C178.896 55.4962 178.8 55.006 178.578 54.5372C178.403 54.1661 178.131 53.8248 177.811 53.5123C177.767 53.4315 177.712 53.3326 177.644 53.2208C177.567 53.0948 177.477 52.9569 177.358 52.807C177.234 52.6649 177.117 52.5021 176.793 52.3092L176.794 52.3063C176.789 52.3033 176.782 52.3024 176.777 52.2994C176.768 52.2938 176.762 52.2889 176.752 52.2833L176.75 52.2882C176.549 52.1803 176.308 52.1192 176.106 52.1222C175.832 52.1234 175.624 52.1983 175.474 52.2711C175.196 52.4147 175.068 52.5545 174.952 52.6781C174.762 52.8961 174.64 53.1009 174.519 53.3316C174.175 54.0162 173.883 54.9107 173.872 55.9278C173.873 56.2218 173.903 56.5338 173.982 56.85C171.859 56.8705 170.019 56.8983 168.826 56.9415C168.115 56.9701 167.462 57.1397 166.888 57.4425C165.778 56.6627 164.794 56.0477 163.862 55.61C162.823 55.1224 161.817 54.8426 160.804 54.8431C159.783 54.8404 158.809 55.1349 157.892 55.6197C156.973 56.1036 156.083 56.7679 155.091 57.5902C154.614 57.4022 154.099 57.2809 153.543 57.2599C152.368 57.2174 150.537 57.1898 148.422 57.1693C148.447 56.9886 148.462 56.8101 148.462 56.639C148.457 55.7901 148.233 55.0345 147.962 54.4146C147.822 54.1036 147.672 53.8319 147.481 53.5767C147.382 53.4483 147.276 53.3221 147.107 53.1839C147.021 53.1153 146.918 53.0423 146.77 52.9732C146.624 52.9064 146.425 52.8387 146.164 52.8377C145.94 52.8336 145.657 52.9112 145.425 53.0601L145.421 53.0536C145.409 53.0619 145.402 53.0689 145.39 53.0772C145.385 53.0804 145.379 53.0811 145.375 53.0846L145.376 53.0875C145.087 53.2926 144.981 53.4542 144.866 53.6012C144.703 53.8324 144.592 54.0431 144.504 54.2135C144.478 54.264 144.462 54.2992 144.442 54.3397C143.774 55.0667 143.432 55.9478 143.441 56.7506C143.442 56.8822 143.458 57.0069 143.473 57.1327C141.864 57.1229 140.246 57.1138 138.738 57.1029V57.1031L138.723 57.1024H138.701H138.7C137.823 57.1058 137.001 57.3113 136.306 57.7562C135.96 57.9805 135.643 58.2721 135.403 58.6493C135.163 59.0233 135.012 59.492 135.014 59.9757L135.023 60.1637H135.021L135.072 61.0269L135.076 61.0723C135.128 61.6378 135.298 62.2083 135.611 62.7166C136.08 63.4859 136.84 64.0589 137.753 64.4195C138.672 64.7843 139.763 64.9742 141.084 65.0279C142.597 65.0868 145.052 65.141 147.248 65.141C148.654 65.1407 149.943 65.12 150.846 65.0604C152.72 64.9288 154.013 64.6514 155.037 64.0306C155.543 63.7208 155.959 63.3077 156.248 62.8526C156.538 62.3973 156.706 61.9212 156.82 61.4654L156.842 61.3546L156.982 60.4747L156.974 60.4735C157.002 60.3304 157.027 60.1854 157.027 60.0372C157.028 59.8299 156.994 59.629 156.941 59.4373C157.781 58.7503 158.496 58.2379 159.101 57.9215C159.76 57.5784 160.269 57.4456 160.804 57.443C161.335 57.4434 161.946 57.5843 162.759 57.9642C163.473 58.2979 164.336 58.8285 165.356 59.5438C165.351 59.6021 165.342 59.6595 165.342 59.7188C165.342 59.8646 165.368 60.0108 165.396 60.1549L165.388 60.1563L165.527 61.0362L165.55 61.147C165.664 61.6029 165.831 62.0789 166.122 62.5343C166.555 63.2257 167.273 63.7835 168.155 64.117C169.044 64.4593 170.115 64.6458 171.524 64.7418C172.425 64.8016 173.69 64.8224 175.066 64.8226C177.214 64.8226 179.608 64.7684 181.12 64.7095C182.88 64.6351 184.242 64.3304 185.308 63.6702C185.837 63.3402 186.283 62.9073 186.594 62.3981ZM154.287 60.8685C154.218 61.1344 154.141 61.3207 154.057 61.4513C153.922 61.6476 153.777 61.8065 153.272 62.0121C152.773 62.2088 151.932 62.3841 150.673 62.4662C149.89 62.5187 148.622 62.5414 147.248 62.5411C145.096 62.5411 142.654 62.4874 141.186 62.43C139.688 62.3753 138.742 62.0856 138.277 61.7857C138.041 61.6361 137.915 61.4977 137.827 61.3573C137.743 61.2171 137.688 61.0602 137.665 60.8348L137.618 60.023L137.656 59.9845C137.781 59.87 138.191 59.6959 138.7 59.7023H138.708L138.719 59.7027C144.023 59.7406 150.71 59.7582 153.449 59.8583C153.876 59.871 154.215 60.0001 154.366 60.1058L154.403 60.1354L154.287 60.8685ZM184.539 60.5162C184.516 60.7421 184.462 60.899 184.377 61.0392C184.248 61.2445 184.022 61.4689 183.487 61.6866C182.958 61.9 182.14 62.0687 181.018 62.1117C179.549 62.1691 177.17 62.2228 175.066 62.2228C173.722 62.223 172.48 62.2003 171.696 62.1476C170.014 62.0419 169.093 61.7552 168.699 61.5003C168.496 61.3722 168.402 61.2696 168.312 61.1329C168.228 61.0023 168.151 60.816 168.083 60.5499L167.967 59.8185C168.016 59.7784 168.092 59.7262 168.222 59.6756C168.398 59.6053 168.641 59.5497 168.921 59.5399C171.66 59.4398 178.181 59.4222 183.487 59.3844L183.505 59.3836C183.947 59.3802 184.318 59.5062 184.486 59.6202L184.588 59.7081L184.539 60.5162Z"/><path id="Vector_11" d="M136.47 49.2861L136.47 49.2858C137.199 48.2331 138.557 47.1305 140.621 46.2905C142.683 45.4491 145.441 44.8696 148.908 44.8151C149.625 44.8036 150.198 44.2126 150.187 43.4946C150.175 42.7768 149.584 42.204 148.867 42.2155C145.134 42.2751 142.063 42.8957 139.64 43.883C137.219 44.8715 135.435 46.2258 134.336 47.8012C133.925 48.3906 134.071 49.2006 134.66 49.6108C135.25 50.0207 136.06 49.8754 136.47 49.2861Z"/><path id="Vector_12" d="M170.579 44.8156C174.046 44.8698 176.804 45.4494 178.866 46.2907C180.93 47.1308 182.288 48.2333 183.017 49.2861C183.427 49.8754 184.237 50.0209 184.827 49.611C185.416 49.2011 185.561 48.391 185.152 47.8017L185.152 47.8014C184.052 46.2262 182.268 44.8717 179.847 43.8832C177.424 42.8959 174.353 42.2753 170.621 42.2155C169.903 42.204 169.311 42.7768 169.3 43.4948C169.289 44.2128 169.861 44.8041 170.579 44.8156Z"/><path id="Vector_13" d="M166.401 66.6687C165.69 67.0952 165.181 67.206 164.821 67.2068C164.477 67.2038 164.226 67.114 163.966 66.9509C163.583 66.7109 163.226 66.2554 162.998 65.8442C162.883 65.6409 162.798 65.4534 162.744 65.3244L162.688 65.1799L162.678 65.1501L162.677 65.1474L162.676 65.1477C162.515 64.6501 162.075 64.2986 161.554 64.2527C161.032 64.2065 160.537 64.4765 160.292 64.9394L160.291 64.9389C160.284 64.957 159.933 65.5869 159.376 66.1452C159.099 66.4253 158.775 66.685 158.44 66.8613C158.102 67.0385 157.765 67.1364 157.396 67.1372C157.11 67.1362 156.793 67.0798 156.406 66.9091C155.749 66.6179 154.981 66.914 154.69 67.5705C154.399 68.2268 154.695 68.9948 155.351 69.2861L155.351 69.2859C156.042 69.5932 156.739 69.738 157.396 69.737C158.278 69.738 159.068 69.4809 159.715 69.1274C160.351 68.7785 160.854 68.3457 161.266 67.9214C161.592 68.3452 162.007 68.7812 162.56 69.1377C163.163 69.5295 163.945 69.8096 164.821 69.8066C165.746 69.8074 166.731 69.5066 167.743 68.8957C168.358 68.5251 168.556 67.7263 168.185 67.1116C167.815 66.4966 167.016 66.2981 166.401 66.6687Z"/><path id="Vector_14" d="M134.153 149.62C134.863 149.729 135.526 149.242 135.636 148.533L136.065 145.745C136.175 145.035 135.688 144.371 134.979 144.262C134.269 144.153 133.605 144.639 133.496 145.349L133.066 148.137C132.957 148.846 133.443 149.51 134.153 149.62Z"/><path id="Vector_15" d="M126.652 135.277L129.457 135.049C130.173 134.991 130.706 134.364 130.648 133.649C130.59 132.933 129.962 132.4 129.247 132.458L126.442 132.685C125.726 132.744 125.193 133.371 125.251 134.086C125.309 134.802 125.937 135.335 126.652 135.277Z"/><path id="Vector_16" d="M139.943 159.969C140.176 160.648 140.915 161.011 141.594 160.778L144.524 159.777C145.203 159.544 145.565 158.805 145.333 158.126C145.101 157.446 144.362 157.084 143.682 157.316L140.753 158.318C140.073 158.551 139.711 159.29 139.943 159.969Z"/><path id="Vector_17" d="M138.373 127.179C138.768 127.779 139.574 127.945 140.174 127.551C140.774 127.156 140.94 126.35 140.546 125.75L139.13 123.597C138.735 122.997 137.929 122.831 137.329 123.225C136.729 123.62 136.563 124.426 136.957 125.026L138.373 127.179Z"/><path id="Vector_18" d="M144.353 143.445L147.203 143.734C147.917 143.806 148.554 143.285 148.627 142.571C148.699 141.857 148.178 141.219 147.464 141.147L144.614 140.859C143.9 140.786 143.263 141.307 143.19 142.021C143.118 142.736 143.639 143.373 144.353 143.445Z"/><path id="Vector_19" d="M123.154 158.698L124.685 159.233C125.362 159.47 126.104 159.112 126.341 158.435C126.578 157.757 126.221 157.015 125.543 156.778L124.013 156.243C123.335 156.006 122.593 156.364 122.356 157.041C122.119 157.719 122.477 158.46 123.154 158.698Z"/><path id="Vector_20" d="M188.997 155.748C189.672 155.994 190.418 155.648 190.665 154.973L191.634 152.324C191.88 151.649 191.533 150.903 190.859 150.657C190.185 150.41 189.438 150.757 189.192 151.431L188.223 154.08C187.976 154.755 188.323 155.501 188.997 155.748Z"/><path id="Vector_21" d="M190.178 114.231L192.611 115.659C193.23 116.023 194.026 115.816 194.39 115.197C194.754 114.578 194.546 113.781 193.927 113.417L191.495 111.989C190.876 111.625 190.079 111.832 189.715 112.451C189.352 113.071 189.559 113.867 190.178 114.231Z"/><path id="Vector_22" d="M198.96 99.9325C198.242 99.9154 197.646 100.484 197.629 101.201L197.568 103.788C197.551 104.506 198.119 105.102 198.836 105.119C199.554 105.136 200.15 104.568 200.167 103.85L200.229 101.263C200.246 100.545 199.678 99.9496 198.96 99.9325Z"/><path id="Vector_23" d="M186.468 134.507C186.641 135.204 187.345 135.629 188.042 135.457C188.739 135.284 189.164 134.579 188.992 133.882L188.248 130.877C188.075 130.18 187.37 129.754 186.673 129.927C185.977 130.099 185.551 130.804 185.724 131.501L186.468 134.507Z"/><path id="Vector_24" d="M176.699 146.528L179.433 145.073C180.066 144.736 180.307 143.948 179.969 143.314C179.632 142.681 178.845 142.44 178.211 142.778L175.477 144.233C174.844 144.57 174.603 145.358 174.941 145.991C175.278 146.625 176.065 146.865 176.699 146.528Z"/><path id="Vector_25" d="M176.1 162.561C176.147 163.278 176.766 163.82 177.483 163.773L180.573 163.568C181.289 163.52 181.831 162.901 181.784 162.184C181.736 161.468 181.117 160.926 180.4 160.973L177.311 161.178C176.594 161.226 176.052 161.845 176.1 162.561Z"/><path id="Vector_26" d="M119.033 101.146C119.591 101.597 120.41 101.51 120.861 100.952C121.312 100.393 121.225 99.5744 120.667 99.1232L119.137 97.8879C118.579 97.4367 117.76 97.5238 117.309 98.0822C116.858 98.6408 116.945 99.4594 117.504 99.9106L119.033 101.146Z"/><path id="Vector_27" d="M189.682 167.115C189.263 167.364 188.886 167.566 188.557 167.694C188.226 167.824 187.954 167.881 187.7 167.881C187.401 167.877 187.098 167.813 186.656 167.556C184.373 166.203 182.625 165.63 181.071 165.627C180.216 165.625 179.453 165.812 178.8 166.079C177.818 166.482 177.073 167.016 176.341 167.422C175.605 167.832 174.904 168.144 173.94 168.265C173.227 168.352 172.72 169 172.807 169.713C172.893 170.425 173.542 170.933 174.254 170.846L174.254 170.846C176.122 170.622 177.427 169.811 178.425 169.211C178.928 168.908 179.364 168.655 179.777 168.488C180.192 168.322 180.58 168.229 181.071 168.227C181.946 168.223 183.261 168.563 185.33 169.792C186.102 170.254 186.922 170.484 187.7 170.481C188.581 170.48 189.356 170.21 190.033 169.883C191.051 169.385 191.923 168.752 192.816 168.281C193.711 167.806 194.578 167.488 195.612 167.486C196.251 167.487 196.971 167.608 197.837 167.946C198.506 168.208 199.26 167.879 199.522 167.211C199.784 166.542 199.455 165.788 198.787 165.526C197.655 165.081 196.593 164.885 195.612 164.886C194.547 164.885 193.592 165.116 192.76 165.443C191.512 165.936 190.521 166.621 189.682 167.115Z"/><path id="Vector_28" d="M149.444 166.18C148.818 165.906 147.924 165.632 146.834 165.631C145.509 165.625 143.912 166.062 142.332 167.27C141.774 167.694 141.29 167.957 140.866 168.115C140.441 168.273 140.073 168.331 139.705 168.332C139.032 168.335 138.307 168.113 137.429 167.736C136.554 167.366 135.553 166.853 134.361 166.437C134.327 166.425 134.295 166.417 134.261 166.406L134.073 164.15C134.014 163.434 133.386 162.903 132.67 162.962C131.955 163.022 131.423 163.65 131.482 164.365L131.608 165.874C131.513 165.87 131.414 165.86 131.322 165.86C129.839 165.853 128.729 166.373 127.941 166.769C127.541 166.969 127.209 167.137 126.914 167.243C126.616 167.35 126.361 167.405 126.048 167.407C125.641 167.406 125.096 167.306 124.28 166.924C123.63 166.62 122.856 166.9 122.551 167.55C122.246 168.2 122.526 168.974 123.177 169.279L123.176 169.278C124.236 169.777 125.181 170.007 126.048 170.006C126.708 170.008 127.3 169.87 127.801 169.687C128.555 169.408 129.117 169.065 129.641 168.839C130.169 168.611 130.64 168.464 131.322 168.46C131.869 168.46 132.567 168.565 133.506 168.892C134.491 169.233 135.42 169.704 136.409 170.128C137.395 170.546 138.468 170.93 139.705 170.932C140.371 170.933 141.071 170.814 141.774 170.552C142.478 170.289 143.184 169.889 143.905 169.341C145.084 168.453 146.045 168.237 146.834 168.231C147.481 168.231 148.024 168.396 148.401 168.562C148.588 168.644 148.733 168.725 148.822 168.78L148.913 168.839H148.914C149.482 169.278 150.299 169.173 150.737 168.605C151.176 168.037 151.071 167.22 150.503 166.782C150.44 166.733 150.072 166.456 149.444 166.18Z"/><path id="Vector_29" d="M88.418 124.605L88.4205 124.605L88.4219 124.604L88.418 124.605Z"/><path id="Vector_30" d="M87.7254 109.196C88.2995 109.465 89.0977 109.852 89.8102 110.201C90.7674 110.671 91.5833 111.077 91.5851 111.078C91.9544 111.262 92.3844 111.261 92.7525 111.074C93.1208 110.888 93.3762 110.542 93.4461 110.135C93.5044 109.778 93.5114 109.435 93.5136 109.021C93.5124 107.924 93.4087 106.449 93.3429 105.615C93.4727 105.491 93.6046 105.363 93.7456 105.221C94.7503 104.213 95.9742 102.855 95.9817 102.847C96.2491 102.551 96.3653 102.149 96.2977 101.756C96.2301 101.363 95.9866 101.023 95.6355 100.833C95.2262 100.613 94.7432 100.413 94.2094 100.208C93.1129 99.7893 91.8408 99.3838 91.145 99.1685C90.8066 98.5481 90.3724 97.7993 89.9798 97.1331C89.4782 96.2822 89.0582 95.5906 89.0564 95.5877C88.8376 95.2271 88.4536 94.9937 88.033 94.9654C87.6123 94.9368 87.2005 95.1165 86.9351 95.4441C86.6812 95.7593 86.4223 96.1465 86.141 96.5864C85.6114 97.4182 85.0348 98.4116 84.6822 99.0298C84.3969 99.0618 84.0444 99.1033 83.6542 99.155C82.6998 99.283 81.5721 99.4548 80.6934 99.7027C80.3007 99.8145 79.9876 100.099 79.8389 100.48C79.6903 100.86 79.7273 101.281 79.94 101.63C80.4095 102.397 81.1344 103.391 81.7593 104.226C82.0531 104.618 82.3202 104.967 82.5233 105.23C82.3908 105.919 82.2688 106.75 82.1638 107.505C82.0265 108.502 81.93 109.331 81.9293 109.337C81.88 109.76 82.0394 110.177 82.3581 110.46C82.6769 110.742 83.1102 110.85 83.5244 110.751C83.8622 110.667 84.2483 110.531 84.7378 110.355C85.7348 109.991 87.0203 109.48 87.7254 109.196ZM83.375 102.04C83.3267 101.974 83.2794 101.908 83.2313 101.842C83.4917 101.802 83.7506 101.764 83.9952 101.732C84.4436 101.673 84.8491 101.626 85.1408 101.595C85.4327 101.563 85.6052 101.547 85.6056 101.547C86.034 101.507 86.4109 101.261 86.6202 100.885C86.6204 100.884 86.7226 100.701 86.8908 100.405C87.1319 99.9817 87.506 99.3335 87.8874 98.7044C87.964 98.835 88.0411 98.9666 88.1184 99.0996C88.4993 99.7544 88.8788 100.426 89.0936 100.847C89.2563 101.165 89.5381 101.399 89.8803 101.501C89.8809 101.501 90.0912 101.563 90.4339 101.67C90.9479 101.83 91.7508 102.086 92.5274 102.36C92.6192 102.392 92.7085 102.426 92.7996 102.459C92.6639 102.603 92.5257 102.748 92.387 102.892C91.899 103.401 91.3918 103.9 91.1678 104.082C90.8357 104.355 90.6618 104.772 90.7002 105.2C90.7002 105.201 90.7133 105.347 90.7334 105.595C90.7738 106.087 90.84 106.981 90.8799 107.83C89.929 107.365 88.8741 106.854 88.2838 106.592C87.9616 106.449 87.593 106.444 87.2668 106.577C87.2662 106.577 87.0408 106.669 86.6855 106.812C86.2012 107.007 85.4796 107.293 84.7816 107.561C84.8025 107.413 84.8236 107.265 84.8457 107.116C84.9557 106.369 85.0851 105.614 85.1831 105.22C85.2785 104.833 85.1893 104.42 84.9424 104.106C84.9421 104.105 84.8196 103.95 84.6188 103.69C84.3177 103.3 83.8452 102.682 83.375 102.04Z"/><path id="Vector_31" d="M263.127 137.097C262.067 136.609 260.598 136.16 259.342 135.803C258.726 135.629 258.17 135.482 257.762 135.377C257.618 134.978 257.42 134.435 257.195 133.847C256.969 133.254 256.717 132.615 256.466 132.026C256.213 131.434 255.969 130.902 255.719 130.468C255.512 130.11 255.146 129.872 254.736 129.827C254.326 129.782 253.916 129.935 253.637 130.239C253.633 130.243 252.892 131.05 252.011 132.047C251.273 132.883 250.464 133.822 249.864 134.589C249.4 134.658 248.679 134.77 247.871 134.911C247.185 135.031 246.441 135.171 245.745 135.322C245.047 135.475 244.407 135.635 243.874 135.822C243.497 135.954 243.203 136.252 243.075 136.63C242.947 137.008 242.999 137.423 243.217 137.757C243.22 137.762 243.802 138.655 244.507 139.69C244.861 140.208 245.244 140.761 245.606 141.26C245.787 141.51 245.96 141.744 246.124 141.957C245.985 142.421 245.792 143.076 245.597 143.79C245.413 144.462 245.229 145.178 245.086 145.834C245.015 146.162 244.954 146.475 244.909 146.767C244.864 147.062 244.833 147.329 244.832 147.61L244.833 147.672C244.843 148.075 245.038 148.447 245.363 148.686C245.689 148.924 246.101 148.998 246.49 148.887C246.492 148.887 247.706 148.54 249.116 148.141C250.26 147.817 251.528 147.46 252.372 147.229C252.811 147.482 253.506 147.881 254.257 148.305C254.881 148.656 255.539 149.022 256.116 149.331C256.7 149.644 257.172 149.89 257.54 150.044C257.934 150.207 258.379 150.168 258.738 149.939C259.097 149.71 259.32 149.322 259.337 148.897C259.338 148.888 259.428 146.707 259.428 144.788C259.428 144.267 259.42 143.774 259.403 143.33C259.727 143.024 260.195 142.579 260.721 142.069C261.693 141.124 262.828 139.99 263.571 139.118C263.835 138.807 263.938 138.396 263.85 137.997C263.763 137.599 263.498 137.268 263.127 137.097ZM258.91 140.203C258.437 140.663 258.005 141.074 257.692 141.369C257.379 141.664 257.187 141.842 257.187 141.842C256.894 142.113 256.742 142.506 256.775 142.904C256.812 143.333 256.828 144.037 256.828 144.788C256.828 145.437 256.817 146.124 256.802 146.745C256.091 146.355 255.307 145.913 254.651 145.539C253.824 145.067 253.209 144.71 253.207 144.709C252.907 144.534 252.556 144.487 252.22 144.576C251.305 144.82 249.293 145.387 247.758 145.823C247.902 145.226 248.072 144.582 248.236 144.003C248.388 143.463 248.532 142.976 248.638 142.625C248.744 142.275 248.81 142.065 248.81 142.064C248.947 141.629 248.846 141.155 248.544 140.814C248.363 140.611 248.049 140.202 247.712 139.736C247.283 139.143 246.807 138.451 246.396 137.843C247.339 137.64 248.414 137.451 249.258 137.315C249.695 137.244 250.07 137.186 250.335 137.147C250.6 137.107 250.752 137.086 250.752 137.086C251.101 137.037 251.414 136.849 251.622 136.565C252.097 135.912 253.1 134.739 253.959 133.768C254.059 133.656 254.147 133.557 254.242 133.45C254.538 134.169 254.837 134.951 255.072 135.589C255.212 135.969 255.33 136.297 255.413 136.529C255.495 136.761 255.542 136.894 255.542 136.895C255.687 137.314 256.035 137.628 256.466 137.732C256.466 137.732 256.522 137.746 256.632 137.773C257.014 137.868 258.008 138.12 259.092 138.436C259.495 138.553 259.908 138.682 260.309 138.812C259.851 139.28 259.361 139.766 258.91 140.203Z"/><path id="Vector_32" d="M71.5977 143.296C71.0384 142.378 70.1438 141.158 69.3701 140.132C68.9752 139.609 68.6163 139.145 68.358 138.813C68.4307 138.511 68.5029 138.186 68.576 137.83C68.9672 135.914 69.3513 133.408 69.3532 133.397C69.4137 133.003 69.2903 132.603 69.0175 132.312C68.7447 132.02 68.3544 131.87 67.9566 131.905C67.3574 131.958 66.6563 132.091 65.8932 132.258C64.218 132.627 62.2876 133.174 61.3805 133.438C60.5006 132.963 59.3473 132.384 58.3159 131.878C57.0889 131.276 56.0763 130.795 56.0731 130.793C55.6922 130.612 55.2436 130.628 54.8764 130.835C54.5093 131.043 54.2639 131.418 54.2219 131.838C54.1601 132.468 54.1446 133.307 54.1437 134.207C54.1438 135.477 54.1806 136.825 54.2056 137.599C53.8748 137.872 53.4127 138.258 52.8986 138.702C51.8989 139.569 50.7295 140.625 49.936 141.542C49.6723 141.847 49.5653 142.265 49.6491 142.66C49.7328 143.055 50.0001 143.393 50.3653 143.566C51.4603 144.082 53.0546 144.682 54.4077 145.17C55.161 145.441 55.8248 145.672 56.2727 145.825C56.6436 146.747 57.1711 147.89 57.6609 148.92C58.2597 150.176 58.7782 151.207 58.7807 151.212C58.9718 151.593 59.3343 151.854 59.7559 151.915C60.1775 151.976 60.5991 151.829 60.8905 151.518C61.1625 151.226 61.5078 150.8 61.9219 150.276C62.8281 149.127 63.9893 147.577 64.5381 146.84C65.4552 146.694 66.8651 146.48 68.1351 146.289C69.6744 146.058 71.0011 145.862 71.004 145.862C71.4034 145.803 71.7547 145.56 71.9508 145.207C72.1469 144.854 72.1675 144.427 72.0064 144.057C71.8943 143.802 71.7592 143.563 71.5977 143.296ZM63.5956 144.359C63.2628 144.414 62.9649 144.597 62.7644 144.868C62.7639 144.869 62.5772 145.121 62.2818 145.517C61.8389 146.11 61.154 147.022 60.5055 147.863C60.4068 147.992 60.3123 148.112 60.2164 148.236C60.0079 147.803 59.7822 147.329 59.5615 146.853C59.1167 145.896 58.6884 144.919 58.4885 144.354C58.3548 143.977 58.0542 143.682 57.6755 143.556C57.6748 143.556 57.4116 143.468 56.979 143.319C56.3303 143.096 55.3082 142.738 54.268 142.35C53.9039 142.214 53.5418 142.075 53.1884 141.936C53.6491 141.504 54.1441 141.061 54.5996 140.669C55.078 140.255 55.5152 139.889 55.8316 139.628C55.9898 139.498 56.1179 139.393 56.2058 139.322L56.3396 139.214C56.6618 138.956 56.8425 138.56 56.8262 138.148C56.8261 138.146 56.8056 137.628 56.785 136.872C56.7643 136.116 56.7437 135.127 56.7437 134.207C56.7437 134.138 56.7446 134.072 56.7448 134.004C57.1705 134.211 57.6368 134.44 58.1041 134.674C59.049 135.144 60.0036 135.635 60.59 135.967C60.9005 136.144 61.2641 136.184 61.606 136.082C61.6068 136.081 61.9018 135.993 62.3831 135.854C63.1046 135.647 64.2359 135.331 65.3551 135.054C65.7421 134.958 66.1236 134.871 66.4919 134.79C66.4082 135.283 66.3136 135.824 66.2136 136.359C66.0337 137.331 65.8279 138.297 65.6939 138.725C65.5673 139.136 65.6506 139.578 65.9181 139.915C65.9185 139.916 66.1204 140.17 66.4364 140.578C66.9104 141.188 67.6361 142.137 68.2862 143.04C68.4191 143.224 68.5452 143.404 68.6687 143.581C66.9708 143.834 64.6292 144.187 63.5956 144.359Z"/><path id="Vector_33" d="M26.4459 120.549C25.7279 120.546 25.1431 121.125 25.1397 121.843L25.126 124.686C25.1225 125.404 25.7017 125.989 26.4197 125.992C27.1377 125.995 27.7225 125.416 27.7259 124.698L27.7396 121.855C27.7431 121.137 27.1638 120.553 26.4459 120.549Z"/><path id="Vector_34" d="M26.4459 130.099C25.7279 130.096 25.1431 130.675 25.1397 131.393L25.126 134.236C25.1225 134.954 25.7017 135.538 26.4197 135.542C27.1377 135.545 27.7225 134.966 27.7259 134.248L27.7396 131.405C27.7431 130.687 27.1638 130.103 26.4459 130.099Z"/><path id="Vector_35" d="M32.6988 126.752L29.856 126.739C29.1381 126.735 28.5532 127.314 28.5498 128.032C28.5463 128.751 29.1256 129.335 29.8435 129.339L32.6863 129.352C33.4043 129.356 33.9891 128.777 33.9925 128.059C33.996 127.341 33.4168 126.756 32.6988 126.752Z"/><path id="Vector_36" d="M23.149 126.752L20.3062 126.739C19.5883 126.735 19.0034 127.314 19 128.032C18.9965 128.751 19.5758 129.335 20.2937 129.339L23.1365 129.352C23.8545 129.356 24.4393 128.777 24.4427 128.059C24.4462 127.341 23.867 126.756 23.149 126.752Z"/><path id="Vector_37" d="M294.053 133.685C293.335 133.682 292.75 134.261 292.747 134.979L292.733 137.822C292.73 138.54 293.309 139.124 294.027 139.128C294.745 139.131 295.33 138.552 295.333 137.834L295.347 134.991C295.35 134.273 294.771 133.688 294.053 133.685Z"/><path id="Vector_38" d="M294.053 124.156C293.335 124.152 292.75 124.731 292.747 125.449L292.733 128.292C292.73 129.01 293.309 129.595 294.027 129.598C294.745 129.602 295.33 129.023 295.333 128.305L295.347 125.462C295.35 124.744 294.771 124.159 294.053 124.156Z"/><path id="Vector_39" d="M300.306 130.338L297.463 130.325C296.745 130.321 296.161 130.9 296.157 131.618C296.154 132.336 296.733 132.921 297.451 132.925L300.294 132.938C301.012 132.942 301.597 132.363 301.6 131.645C301.603 130.927 301.024 130.342 300.306 130.338Z"/><path id="Vector_40" d="M290.757 130.338L287.915 130.325C287.197 130.321 286.612 130.9 286.608 131.618C286.605 132.336 287.184 132.921 287.902 132.925L290.745 132.938C291.463 132.942 292.048 132.363 292.051 131.645C292.055 130.927 291.475 130.342 290.757 130.338Z"/><path id="Vector_41" d="M96.4758 27.2498C97.1937 27.2529 97.7784 26.6736 97.7816 25.9556L97.7943 23.1128C97.7975 22.395 97.2181 21.8103 96.5001 21.8071C95.7822 21.804 95.1975 22.3833 95.1943 23.1013L95.1817 25.9441C95.1784 26.6619 95.7578 27.2466 96.4758 27.2498Z"/><path id="Vector_42" d="M96.4758 36.7986C97.1937 36.8018 97.7784 36.2224 97.7816 35.5044L97.7943 32.6616C97.7975 31.9439 97.2181 31.3591 96.5001 31.356C95.7822 31.3528 95.1975 31.9321 95.1943 32.6502L95.1817 35.4929C95.1784 36.2107 95.7578 36.7954 96.4758 36.7986Z"/><path id="Vector_43" d="M100.031 30.5964L102.874 30.6101C103.592 30.6135 104.177 30.0344 104.18 29.3164C104.183 28.5984 103.604 28.0137 102.886 28.0103L100.044 27.9966C99.3256 27.9932 98.7407 28.5723 98.7373 29.2903C98.7338 30.0083 99.3131 30.593 100.031 30.5964Z"/><path id="Vector_44" d="M90.4822 30.5964L93.325 30.6101C94.0429 30.6135 94.6278 30.0344 94.6312 29.3164C94.6347 28.5984 94.0554 28.0137 93.3375 28.0103L90.4947 27.9966C89.7767 27.9932 89.1919 28.5723 89.1885 29.2903C89.185 30.0083 89.7642 30.593 90.4822 30.5964Z"/><path id="Vector_45" d="M271.018 102.885C271.736 102.887 272.32 102.307 272.323 101.589L272.346 94.7219C272.349 94.0039 271.768 93.4199 271.051 93.4175C270.333 93.415 269.749 93.9951 269.746 94.7129L269.723 101.58C269.72 102.298 270.3 102.882 271.018 102.885Z"/><path id="Vector_46" d="M271.051 110.482C270.333 110.48 269.749 111.06 269.746 111.777L269.723 118.645C269.72 119.363 270.3 119.947 271.018 119.949C271.736 119.951 272.32 119.371 272.323 118.654L272.346 111.786C272.349 111.068 271.768 110.484 271.051 110.482Z"/><path id="Vector_47" d="M283.142 105.395L276.276 105.372C275.558 105.369 274.974 105.949 274.972 106.667C274.969 107.385 275.549 107.969 276.267 107.971L283.133 107.995C283.851 107.997 284.435 107.417 284.438 106.699C284.44 105.981 283.86 105.397 283.142 105.395Z"/><path id="Vector_48" d="M266.079 105.395L259.212 105.372C258.494 105.369 257.91 105.949 257.907 106.667C257.905 107.385 258.485 107.969 259.203 107.971L266.07 107.995C266.788 107.997 267.372 107.417 267.374 106.699C267.377 105.981 266.797 105.397 266.079 105.395Z"/><path id="Vector_49" d="M271.11 105.244C270.392 105.244 269.81 105.826 269.81 106.544V106.849C269.81 107.567 270.392 108.149 271.11 108.149C271.828 108.149 272.41 107.567 272.41 106.849V106.544C272.41 105.826 271.828 105.244 271.11 105.244Z"/><path id="Vector_50" d="M54.8629 104.285C55.5809 104.288 56.1654 103.709 56.1684 102.99L56.1918 97.4465C56.1948 96.7285 55.6153 96.1441 54.8974 96.1411C54.1793 96.138 53.5949 96.7175 53.5918 97.4356L53.5684 102.98C53.5654 103.698 54.1449 104.282 54.8629 104.285Z"/><path id="Vector_51" d="M54.8629 117.382C55.5809 117.385 56.1654 116.805 56.1684 116.087L56.1918 110.543C56.1948 109.825 55.6153 109.241 54.8974 109.238C54.1793 109.235 53.5949 109.814 53.5918 110.532L53.5684 116.076C53.5654 116.794 54.1449 117.379 54.8629 117.382Z"/><path id="Vector_52" d="M58.524 108.05L64.0689 108.073C64.7869 108.076 65.3714 107.497 65.3745 106.779C65.3775 106.061 64.7979 105.476 64.08 105.473L58.535 105.45C57.817 105.447 57.2326 106.026 57.2295 106.744C57.2265 107.462 57.806 108.047 58.524 108.05Z"/><path id="Vector_53" d="M52.2778 106.779C52.2808 106.061 51.7012 105.476 50.9833 105.473L45.4384 105.45C44.7203 105.447 44.1359 106.026 44.1328 106.744C44.1298 107.462 44.7094 108.047 45.4273 108.05L50.9722 108.073C51.6903 108.076 52.2747 107.497 52.2778 106.779Z"/></g></g></g></svg>