<svg xmlns="http://www.w3.org/2000/svg" width="200" height="200" fill="none"><path fill="#FFE632" d="M79.036 105.168c-.15 5.76-1.81 14.08-9.86 15.79-1.25.271-2.43.33-3.53.24-.11-.19-.21-.389-.31-.589.27.019.55.019.83.009-2.64-10.349 9.93-15.15 12.13-15.91.25.141.5.29.74.46ZM123.898 44.155l-14.928-15.74a1.3 1.3 0 0 0-1.887 1.79l14.928 15.74a1.3 1.3 0 0 0 1.887-1.79ZM134.849 55.702l-3.948-4.162a1.3 1.3 0 1 0-1.886 1.79l3.947 4.162a1.3 1.3 0 0 0 1.887-1.79ZM190.243 114.108l-10.958-11.554a1.3 1.3 0 1 0-1.886 1.789l10.958 11.554a1.3 1.3 0 1 0 1.886-1.789ZM132.726 168.767l15.647 2.628a1.3 1.3 0 1 0 .431-2.565l-15.648-2.628a1.3 1.3 0 0 0-.43 2.565ZM66.503 157.645l6.401 1.075a1.3 1.3 0 0 0 .431-2.564l-6.401-1.076a1.301 1.301 0 0 0-.431 2.565ZM29.799 151.481l27.127 4.555a1.3 1.3 0 1 0 .43-2.564l-27.127-4.556a1.3 1.3 0 0 0-.43 2.565ZM41.668 19.321 55.608 30.3a1.3 1.3 0 0 0 1.609-2.043L43.277 17.28a1.3 1.3 0 0 0-1.61 2.042ZM173.977 163.461l-6.023-1.74a1.3 1.3 0 0 0-.722 2.498l6.023 1.74a1.3 1.3 0 0 0 .722-2.498ZM5.8 85.19l6.156 2.564a1.3 1.3 0 0 0 1-2.4L6.8 82.79a1.3 1.3 0 1 0-1 2.4Z"/><path fill="#BEBEC9" d="M41.414 69.738a6.626 6.626 0 0 0-3.932 1.023c-1.456.925-2.377 2.226-2.964 3.276-.584 1.055-.831 1.883-.85 1.944a1.3 1.3 0 1 0 2.492.742 8.66 8.66 0 0 1 1.246-2.375c.412-.547.924-1.06 1.521-1.424a4.005 4.005 0 0 1 2.137-.595l.209.005a1.3 1.3 0 0 0 .141-2.596ZM80.423 66.112l.004-.001c.056-.04 2.401-1.423 5.65-1.416 2.642.012 5.89.849 9.338 4.142a1.3 1.3 0 0 0 1.8-1.876c-3.88-3.741-7.915-4.877-11.138-4.865-4.125.008-6.904 1.74-7.023 1.806a1.3 1.3 0 0 0 1.37 2.21ZM95.582 82.9c-2.304-.958-4.837-1.442-7.412-1.444-2.177 0-4.389.35-6.51 1.093a17.561 17.561 0 0 0-5.922 3.47 3 3 0 1 0 4.001 4.471c1.136-1.017 2.464-1.773 3.906-2.279a13.736 13.736 0 0 1 4.525-.755c1.812-.001 3.592.351 5.106.983 1.517.632 2.753 1.532 3.588 2.58a3 3 0 0 0 4.685-3.749c-1.576-1.967-3.666-3.41-5.967-4.37ZM79.834 98.795c-.38-.601-.904-1.075-1.496-1.442-.89-.55-1.939-.889-3.1-1.11-1.163-.217-2.445-.311-3.805-.311-4.262.004-9.303.92-13.382 2.245-2.041.667-3.834 1.428-5.203 2.289-.684.434-1.269.89-1.732 1.43-.23.272-.432.567-.583.903-.15.335-.246.716-.246 1.116 0 .094.005.187.016.279v.003c.05.43.158.971.327 1.643.594 2.336 1.942 6.166 4.303 9.625 1.183 1.727 2.623 3.361 4.379 4.636 1.753 1.274 3.837 2.18 6.216 2.392l.014.002a13.446 13.446 0 0 0 3.905-.266c2.212-.468 4.043-1.414 5.492-2.664 2.179-1.878 3.489-4.386 4.275-6.938.786-2.556 1.06-5.183 1.12-7.425l-1.299-.034 1.3.033c.009-.344.013-.68.013-1.008 0-2.841-.323-4.863-.33-4.91a1.323 1.323 0 0 0-.184-.488Zm-3.94 15.226c-.659 1.379-1.523 2.602-2.652 3.573-1.13.971-2.526 1.706-4.338 2.093l-.004.001a10.826 10.826 0 0 1-3.146.215c-2.122-.194-3.93-1.069-5.523-2.376-2.387-1.958-4.21-4.915-5.423-7.631a30.87 30.87 0 0 1-1.386-3.713c-.316-1.047-.49-1.893-.534-2.27 0-.027.087-.232.37-.505.486-.485 1.484-1.112 2.78-1.688 3.898-1.76 10.452-3.2 15.395-3.189 1.65-.001 3.119.16 4.21.475.545.156.992.35 1.322.555.242.15.402.303.53.454a33.435 33.435 0 0 1 .24 5.12c-.068 2.772-.52 6.135-1.84 8.886Z"/><path fill="#BEBEC9" d="M69.45 122.229h-.003l-.002.001.005-.001Z"/><path fill="#BEBEC9" d="M189.881 130.398c-.628-.875-1.579-1.686-2.821-2.51-1.861-1.225-4.378-2.426-7.324-3.336-2.945-.908-6.317-1.52-9.859-1.521-.488.005-.896.12-1.318.268-.729.264-1.49.669-2.27 1.131-1.929 1.15-3.919 2.663-4.555 3.154-.206-.135-.404-.276-.617-.406-.118-.071-.249-.132-.369-.202.124-.359.323-.718.616-1.103.569-.75 1.492-1.553 2.591-2.433 1.096-.884 2.361-1.853 3.592-3.026.857-.814 1.432-1.707 1.778-2.583a6.693 6.693 0 0 0 .466-2.476c-.006-1.711-.594-2.881-.643-2.989a1.301 1.301 0 0 0-2.283-.077c-.258.438-.647.845-1.188 1.23-.779.559-1.882 1.043-3.157 1.471l-.066-1.329a1.299 1.299 0 0 0-2.079-.975c-.085.067-1.681 1.267-3.039 3.571-.031.053-.045.113-.068.169-.841.211-1.681.436-2.519.674l-.786-2.831a1.297 1.297 0 0 0-.82-.878 1.292 1.292 0 0 0-1.188.168c-.05.036-1.281.917-2.703 2.456-1.239 1.347-2.64 3.198-3.478 5.477a11.048 11.048 0 0 1-.179-.048c-1.762-.475-2.985-1.176-3.762-1.742a7.6 7.6 0 0 1-.483-.382c5.147-3.847 10.08-8.132 14.176-11.926a227.395 227.395 0 0 0 10.078-9.92c.461.076.927.109 1.395.11 1.293-.002 2.596-.218 3.602-.427 1.003-.211 1.701-.42 1.726-.427.428-.129.758-.464.878-.895.121-.431.013-.89-.287-1.221l-1.65-1.827a14.275 14.275 0 0 0 2.271-1.11c1.204-.723 2.001-1.402 2.038-1.432.337-.288.504-.721.445-1.16a1.295 1.295 0 0 0-.732-1.004l-4.426-2.097a11.65 11.65 0 0 0 1.32-1.635c.692-1.032 1.053-1.874 1.075-1.924a1.297 1.297 0 0 0-1.104-1.808 36.635 36.635 0 0 0-2.566-.087c-5.462.001-11.724 1.123-18.194 3.334.034-2.727 1.19-4.797 2.392-6.241a12.046 12.046 0 0 1 1.675-1.647c.226-.182.412-.317.537-.404l.138-.093.03-.019a1.301 1.301 0 0 0 .517-1.625c-.491-1.137-.698-2.332-.699-3.563-.009-2.904 1.209-5.99 2.471-8.313a29.827 29.827 0 0 1 1.729-2.81c.236-.338.431-.602.565-.779l.152-.198.038-.047.008-.01a1.302 1.302 0 0 0 .059-1.562 1.302 1.302 0 0 0-1.483-.49c-6.579 2.222-12.816 6.143-17.442 9.505-4.622 3.364-7.623 6.177-7.651 6.203a1.3 1.3 0 0 0-.315 1.437v.002h.001c.025.05.785 2.026.778 4.158 0 1.026-.171 2.072-.615 2.977-.449.907-1.141 1.704-2.37 2.34-.054.028-.088.075-.136.108a28.363 28.363 0 0 0-6.147-.802c-.244-14.389-5.142-25.34-13.025-32.658-7.841-7.29-18.534-10.945-30.257-11.157-2.15-3.345-5.11-5.196-7.725-6.157-2.79-1.028-5.202-1.121-6.064-1.123-.2 0-.318.005-.338.006a1.3 1.3 0 0 0-1.225 1.152l-.507 4.465c-2.576-1.358-5.552-1.82-8.461-1.823-3.739.002-7.42.746-10.19 1.483-2.767.738-4.617 1.474-4.652 1.487a1.297 1.297 0 0 0-.819 1.24c.014.546.364 1.022.88 1.199 3.535 1.211 6.064 3.011 7.89 4.907-8.342 3.77-13.958 8.272-17.579 13.107-4.4 5.859-5.826 12.155-5.82 17.92.002 5.567 1.302 10.682 2.486 14.629-5.468-1.344-9.666-1.739-9.709-1.743a1.3 1.3 0 0 0-.502 2.534l-.001.003.035.012c.198.076 1.2.492 2.469 1.833 1.222 1.293 2.699 3.469 3.905 7.066a16.21 16.21 0 0 0-1.396 1.027c-1.696 1.4-2.497 2.647-2.551 2.731a1.3 1.3 0 0 0 .24 1.673l3.033 2.665-1.862 6.14a1.29 1.29 0 0 0-.035.538 35.16 35.16 0 0 0-5.763 2.75c-1.214.729-2.353 1.527-3.34 2.387-.985.862-1.824 1.782-2.42 2.796a1.3 1.3 0 0 0 1.022 1.953l3.115.241c-.27.903-.571 2.097-.744 3.412-.049.373.064.743.312 1.026.248.282.6.442.977.442.102-.001.143-.007.19-.011.157-.019.304-.046.52-.085.857-.159 2.575-.52 3.842-.789l.044 2.279c.009.473.271.9.688 1.122.418.223.919.202 1.316-.055.006-.004 2.566-1.654 4.222-2.767 1.639.994 5.935 3.466 11.973 5.949 7.76 3.189 18.382 6.392 29.889 6.395.274 0 .55-.008.825-.012.758 1.805 2.852 6.05 7.257 10.318 3.775 3.666 9.285 7.298 17 9.354.225.26 1.893 2.158 4.699 4.096 2.97 2.048 7.228 4.141 12.335 4.145.706 0 1.427-.041 2.16-.127 5.364-.621 8.781-3.047 10.765-5.328 1.705-1.952 2.397-3.761 2.585-4.32a60.213 60.213 0 0 0 8.412-3.765c.251-.137.491-.273.734-.409.118.068.24.132.38.161.044.006 9.861 2.007 18.972 2.011 4.076-.008 8.007-.382 11.01-1.643 2.517-1.074 4.577-3.125 6.322-5.52 2.611-3.601 4.529-8.051 5.825-11.622.155-.428.3-.841.436-1.24l.181.002c.826 0 2.366-.104 4.231-.74 1.863-.634 4.05-1.809 6.109-3.914a2.1 2.1 0 0 0 .6-1.472c-.011-.716-.298-1.265-.647-1.769Zm-23.913-14.021c.422-.221.818-.474 1.2-.745-.025.396-.09.81-.261 1.242-.212.532-.557 1.088-1.153 1.658-1.472 1.405-3.108 2.57-4.531 3.795-.712.615-1.373 1.247-1.924 1.967a6.725 6.725 0 0 0-.859 1.47c-1.956-.929-4.023-1.711-5.968-2.35a83.713 83.713 0 0 0-3.07-.937c.797-.773 1.925-1.432 3.316-1.98 2.599-1.036 5.949-1.678 8.991-2.533 1.525-.432 2.979-.919 4.259-1.587Zm-13.966.549.211.757c-.405.119-.875.274-1.381.467.11-.126.221-.254.33-.371a18.6 18.6 0 0 1 .84-.853Zm18.868-35.525Zm-34.253.085c.669-1.373.877-2.814.878-4.118-.006-1.784-.385-3.339-.668-4.26a91.3 91.3 0 0 1 7.211-5.746c3.501-2.52 7.896-5.287 12.524-7.338-.131.227-.262.455-.393.7-1.365 2.538-2.775 5.94-2.784 9.548 0 1.191.167 2.406.548 3.6a14.641 14.641 0 0 0-2.141 2.084c-1.481 1.765-3.004 4.475-3.004 8.026 0 .263.026.54.043.813a77.332 77.332 0 0 0-18.479 10.204c-.035.027-.053.067-.085.096l-1.795-.367 8.754-7.841a1.301 1.301 0 0 0-.181-2.073c-.055-.033-.82-.499-2.19-1.042.765-.687 1.363-1.462 1.762-2.286ZM47.335 39.019c.514-.15 1.072-.306 1.674-.46 2.562-.655 5.837-1.265 9.016-1.264 3.321-.004 6.48.67 8.71 2.45a1.299 1.299 0 0 0 2.1-.872l.606-5.34c1 .074 2.572.293 4.278.925 1.85.688 3.822 1.836 5.466 3.788a33.527 33.527 0 0 0-8.946 1.95c-2.537.94-5.225 2.315-7.737 4.33a25.053 25.053 0 0 0-5.092 5.535 20.966 20.966 0 0 0-1.565-3.165c-1.609-2.67-4.275-5.702-8.51-7.877ZM31.304 94.162c.342 1.114.569 2.104.708 2.985-1.54.365-2.703.84-3.527 1.264-1.057-2.794-2.297-4.784-3.479-6.199 1.644.3 3.606.71 5.722 1.266.125.033.247.025.37.022l.206.662Zm-5.95 10.504a12.53 12.53 0 0 1 1.664-1.532c1.202-.925 2.874-1.885 5.078-2.458-.199 1.568-.704 2.857-1.28 4.35-.734 1.898-1.551 4.116-1.545 7.214 0 .162.013.339.018.506l-2.276.497 1.463-4.82a1.3 1.3 0 0 0-.386-1.354l-2.736-2.403Zm97.263 58.436c-1.668 1.819-4.378 3.736-8.953 4.282a15.97 15.97 0 0 1-1.858.109c-4.372.004-8.157-1.818-10.859-3.685-.45-.311-.857-.619-1.244-.922 2.729.428 5.677.677 8.886.674.73 0 1.473-.012 2.228-.037 4.753-.158 9.133-.962 13.07-2.098-.326.52-.736 1.092-1.27 1.677Zm60.362-28.009a11.178 11.178 0 0 1-2.728.572c.445-1.477.672-2.405.677-2.424a1.3 1.3 0 1 0-2.526-.616l-.011.046c-.127.51-1.33 5.181-3.52 10.101-1.093 2.459-2.434 4.978-3.977 7.056-1.541 2.083-3.283 3.695-5.084 4.451-2.397 1.027-6.1 1.444-9.996 1.437-4.37 0-9.002-.489-12.526-.98a128.626 128.626 0 0 1-3.573-.551c3.528-2.285 5.491-4.092 5.534-4.132a1.3 1.3 0 0 0-1.763-1.91l-.005.004c-.149.137-3.522 3.187-9.266 6.268-5.746 3.083-13.849 6.191-23.483 6.51-.728.023-1.443.035-2.143.035-14.781-.012-23.688-5.196-29.009-10.33-2.656-2.571-4.404-5.141-5.482-7.057a24.138 24.138 0 0 1-1.144-2.298c-.117-.273-.2-.484-.252-.623l-.056-.153-.011-.033-.001-.003-.001-.003a1.297 1.297 0 0 0-1.27-.892c-.561.015-1.118.024-1.673.024-11.02.002-21.346-3.091-28.9-6.199a92.551 92.551 0 0 1-8.995-4.269 67.699 67.699 0 0 1-2.455-1.399c-.28-.168-.491-.299-.632-.387l-.157-.099-.047-.031a1.306 1.306 0 0 0-1.45.021c-.684.475-1.873 1.259-2.898 1.929l-.029-1.516a1.295 1.295 0 0 0-.493-.994 1.294 1.294 0 0 0-1.081-.251c-.003 0-1.37.296-2.778.591l-1.146.238a21.755 21.755 0 0 1 .679-2.294c.04-.113.074-.201.096-.257l.024-.063.006-.014a1.293 1.293 0 0 0-.099-1.173 1.293 1.293 0 0 0-1.005-.613l-2.29-.178c.394-.375.823-.75 1.309-1.116 1.048-.796 2.284-1.545 3.575-2.221l-.152 3.885c-.017.434.182.845.533 1.101.351.256.802.32 1.21.172.045-.017.804-.293 1.753-.828.947-.543 2.102-1.318 2.916-2.51a1.301 1.301 0 0 0-2.157-1.451c-.328.502-.945 1.01-1.57 1.412l.118-3.02c.18-.075.36-.162.54-.232a26.972 26.972 0 0 1 3.349-1.091c.924-.23 1.733-.35 2.33-.369.59 2.154 1.666 4.068 3.109 5.705 3.056 3.469 7.622 5.793 12.684 7.335 5.068 1.536 10.659 2.278 15.84 2.432a1.3 1.3 0 0 0 .078-2.599c-6.65-.192-14.026-1.422-19.699-4.015-2.838-1.293-5.24-2.919-6.95-4.868-1.709-1.956-2.75-4.206-2.943-6.937-.029-.415-.042-.806-.042-1.179.005-2.651.647-4.392 1.372-6.279.667-1.731 1.42-3.615 1.525-6.099a2.992 2.992 0 0 0 3.904-1.294c.081-.153.818-1.376 1.978-2.427.577-.529 1.25-1.013 1.975-1.349a5.57 5.57 0 0 1 2.385-.54c1.034.004 2.282.269 3.887 1.173a3 3 0 0 0 2.958-5.22c-2.358-1.342-4.694-1.957-6.845-1.953a11.625 11.625 0 0 0-5.195 1.234c-2.198 1.097-3.747 2.635-4.79 3.882-.364.44-.663.844-.906 1.193a27.986 27.986 0 0 0-.33-1.164l-.001-.003c-1.295-4.17-3.456-10.483-3.454-17.355.006-5.355 1.287-11.001 5.302-16.36 3.363-4.49 8.691-8.8 16.948-12.472l-.004.002c.095-.042.185-.08.28-.12a18.034 18.034 0 0 1 2.479 4.889c.155.477.255.863.314 1.121.03.13.05.227.062.289l.012.065.002.012a1.3 1.3 0 0 0 2.437.395c1.63-3.132 3.709-5.496 5.963-7.306 3.38-2.713 7.174-4.17 10.374-4.941 3.198-.771 5.79-.853 6.713-.852l.28.002.065.002h.013c.027.002.052-.006.079-.006 11.482.08 21.755 3.576 29.179 10.478 7.312 6.807 11.945 16.965 12.196 30.8-2.473.151-5.215.604-8.189 1.527a1.3 1.3 0 0 0 .771 2.484c3.503-1.087 6.627-1.473 9.313-1.473 3.431 0 6.148.63 7.996 1.253.423.143.795.285 1.125.419l-9.231 8.268a1.305 1.305 0 0 0-.387 1.308c.128.473.515.836.994.934l7.163 1.466a57.56 57.56 0 0 1-2.533 1.936c-1.14.821-2.398 1.653-3.64 2.346-1.24.693-2.469 1.242-3.505 1.51a1.31 1.31 0 0 0-.771.564l-.009.015c-.129.2-1.487 2.277-3.848 4.757-2.359 2.481-5.721 5.355-9.815 7.194a1.3 1.3 0 0 0 1.067 2.372c4.673-2.106 8.346-5.333 10.872-8.028 1.897-2.027 3.145-3.759 3.661-4.515 1.293-.401 2.603-1.02 3.887-1.752 4.329-2.48 8.355-6.142 8.393-6.172.362-.329.51-.835.381-1.306a1.302 1.302 0 0 0-.994-.93l-2.031-.417c5.732-4.025 11.816-7.1 17.725-9.2a64.659 64.659 0 0 1 8.117-2.31c.038.024.063.06.104.08l2.621 1.308c-.664.344-1.617.67-3.03.723a1.3 1.3 0 0 0 .095 2.6v-.001c2.23-.08 3.824-.738 4.845-1.422 1.025-.684 1.478-1.371 1.552-1.49a1.298 1.298 0 0 0-.524-1.85l-1.393-.694c2.018-.268 3.959-.412 5.779-.411.091 0 .174.008.264.009-.545.768-1.285 1.562-2.062 1.96a1.299 1.299 0 0 0 .046 2.326l4.321 2.048-.053.032c-1.002.598-2.299 1.162-3.366 1.235a1.295 1.295 0 0 0-1.107.815c-.185.462-.091.983.242 1.353l1.636 1.811c-.797.146-1.709.267-2.511.265-.578.002-1.094-.066-1.421-.177a1.3 1.3 0 0 0-1.363.35l-.19.203c-.954 1.014-5.413 5.704-11.452 11.218-6.035 5.514-13.663 11.854-20.884 16.153a1.3 1.3 0 0 0 1.331 2.234c2.06-1.228 4.136-2.609 6.193-4.076.789.769 2.606 2.231 5.706 3.066 1.949.524 5.784 1.476 9.549 2.924 1.879.722 3.734 1.568 5.297 2.52 1.565.949 2.824 2.012 3.553 3.082a1.3 1.3 0 1 0 2.144-1.471c-.446-.646-.994-1.231-1.594-1.783a53.167 53.167 0 0 1 2.533-1.795c.759-.503 1.55-.985 2.217-1.322.333-.169.635-.301.868-.381.116-.04.214-.067.284-.082l.107-.016c4.937-.003 9.615 1.317 12.999 2.906 1.691.791 3.059 1.654 3.946 2.401.443.371.763.715.938.963.036.051.062.094.086.135l-.228.219c-.094-.007-.184-.029-.281-.015h-.003a8.984 8.984 0 0 1-1.155.069c-.702.002-1.606-.082-2.336-.343a1.3 1.3 0 1 0-.865 2.452 8.08 8.08 0 0 0 1.013.274c-.347.154-.687.289-1.012.401Z"/><path fill="#FFE632" d="m171.798 140.673 9.433 5.395a1.3 1.3 0 1 0 1.291-2.257l-9.433-5.395a1.3 1.3 0 1 0-1.291 2.257ZM64.222 77.346l5.506 3.149a1.3 1.3 0 0 0 1.29-2.257l-5.505-3.15a1.3 1.3 0 0 0-1.29 2.258ZM16.91 50.277l36.007 20.6a1.3 1.3 0 1 0 1.291-2.256l-36.006-20.6a1.3 1.3 0 1 0-1.292 2.256Z"/></svg>