<svg width="200" height="200" viewBox="0 0 200 200" xmlns="http://www.w3.org/2000/svg"><g id="type=interested, mode=dark"><g id="Layer 21"><path id="Vector" d="M101.468 129.802C97.9321 126.158 85.5469 120.749 80.688 121.907C78.373 122.459 76.5513 124.743 75.5566 127.396C75.5566 127.396 84.1865 129.603 101.468 129.802Z"/><path id="Vector_2" d="M94.9388 112.529C93.4442 114.151 89.955 119.965 94.3246 120.947C98.6937 121.929 98.6278 117.6 98.1517 114.523C97.5868 110.871 100.567 112.055 102.385 108.597C104.203 105.139 101.856 103.278 99.1971 103.841C98.218 104.038 97.346 104.59 96.7475 105.389C96.149 106.189 95.866 107.181 95.9525 108.176C96.0355 109.605 96.4437 110.898 94.9388 112.529Z"/><path id="Vector_3" d="M112.01 25.9219C110.133 24.7651 103.757 22.4546 103.63 26.9306C103.503 31.4072 107.739 30.5132 110.669 29.4565C114.144 28.2031 113.554 31.355 117.296 32.4765C121.038 33.5981 122.414 30.9389 121.353 28.437C120.972 27.5138 120.264 26.7635 119.364 26.3292C118.465 25.895 117.437 25.8074 116.476 26.083C115.09 26.438 113.899 27.0859 112.01 25.9219Z"/><path id="Vector_4" d="M112.957 112.934C116.225 110.816 118.361 113.779 117.968 115.288C117.574 116.796 115.38 120.395 112.589 119.625C109.798 118.854 110.031 114.83 112.957 112.934Z"/><path id="Vector_5" d="M104.372 128.838C106.836 130.878 111.452 125.684 109.227 122.866C107.003 120.048 100.454 125.594 104.372 128.838Z"/><path id="Vector_6" d="M82.3207 112.168C82.7908 112.937 83.0532 113.815 83.0824 114.716C83.1116 115.616 82.9065 116.509 82.4872 117.307C81.2587 119.514 78.8744 120.157 77.8412 117.491C76.8075 114.825 77.5038 111.989 78.8383 110.975C80.2118 109.93 81.7235 111.187 82.3207 112.168Z"/><path id="Vector_7" d="M78.5483 103.946C79.5576 99.8928 83.04 100.342 84.5654 101.91C86.0913 103.478 85.0639 105.965 83.4809 107.465C80.9951 109.82 77.7685 107.077 78.5483 103.946Z"/><path id="Vector_8" d="M140.234 83.6514C141.001 84.6904 141.989 85.5456 143.128 86.1548C144.266 86.7639 145.526 87.1117 146.815 87.1729C152.868 87.7031 150.711 80.9463 149.094 78.8003C147.477 76.6548 150.133 76.7583 153.197 80.0947C156.147 83.3057 160.902 78.7925 158.035 74.6025C156.066 71.7261 150.128 67.3223 144.985 64.9473C144.985 64.9473 148.47 77.8857 140.234 83.6514Z"/><path id="Vector_9" d="M155.856 54.8438C155.567 55.4957 155.109 56.0584 154.529 56.4731C152.781 57.8174 148.357 62.957 152.496 64.665C156.636 66.373 157.305 62.0957 157.357 58.9814C157.333 58.3739 157.467 57.7704 157.745 57.23L155.856 54.8438Z"/><path id="Vector_10" d="M137.689 53.4051C137.993 52.9098 138.418 52.4996 138.923 52.2127C140.454 51.4158 141.73 52.9109 142.152 53.9793C142.485 54.8166 142.596 55.7261 142.472 56.6187C142.348 57.5113 141.995 58.3565 141.446 59.0716L137.689 53.4051Z"/><path id="Vector_11" d="M139.828 45.2367C141.51 41.413 144.866 42.4457 146.103 44.2499C147.342 46.0536 145.908 48.3305 144.094 49.5409C141.245 51.4408 138.529 48.1908 139.828 45.2367Z"/><path id="Vector_12" d="M57.8024 38.5288C58.6887 39.4869 59.2478 40.7017 59.3991 41.998C59.8102 46.9755 52.5924 58.4018 48.4567 61.3476C44.321 64.2929 41.1017 60.5971 42.8752 56.6132C46.4382 48.6094 57.8024 38.5288 57.8024 38.5288Z"/><path id="Vector_13" d="M48.9702 64.3627C46.9815 66.1342 49.7246 70.1381 52.5005 70.4047C53.0586 70.4584 55.1514 65.9662 53.3511 64.4154C52.7764 63.8289 51.9927 63.494 51.1716 63.4841C50.3505 63.4742 49.5589 63.7902 48.9702 64.3627Z"/><path id="Vector_14" d="M68.78 45.0826C67.949 45.4312 67.0417 45.5581 66.147 45.4509C65.2523 45.3438 64.4007 45.0062 63.6755 44.4713C61.6799 42.924 61.403 40.4693 64.1945 39.8507C66.986 39.2316 69.6847 40.3483 70.486 41.8204C71.3112 43.3361 69.8405 44.6403 68.78 45.0826Z"/><path id="Vector_15" d="M73.253 46.939C71.2999 44.1265 74.4991 41.3511 77.4766 42.5942C79.9971 43.647 80.4546 45.4546 79.9718 46.9351L73.253 46.939Z"/><path id="Vector_16" d="M37.6124 76.7544C34.8209 78.0562 33.1915 73.0845 34.4127 70.5103C35.6339 67.9361 35.9166 64.8848 37.9518 64.8775C39.9874 64.8697 40.7008 66.5137 41.4059 68.8169C42.1471 71.2378 40.0744 75.606 37.6124 76.7544Z"/><path id="Vector_17" d="M35.041 162.321C36.522 166.683 45.1372 169.877 49.0044 166.717C52.8716 163.556 56.0825 150.428 55.3301 145.406C55.247 144.62 54.9544 143.871 54.4827 143.238C54.011 142.604 53.3777 142.108 52.6489 141.803C52.6489 141.803 51.125 149.25 45.5 153.625C42.1921 156.217 38.5825 158.4 34.75 160.125L35.041 162.321Z"/><path id="Vector_18" d="M65.9723 141.956C64.0031 141.188 57.5934 140.105 58.2433 144.348C58.8937 148.592 62.7345 147.02 65.3156 145.52C68.3776 143.74 68.3625 146.815 72.0846 147.229C75.8067 147.643 76.6471 144.899 75.2164 142.722C74.6981 141.917 73.9014 141.331 72.9784 141.076C72.0555 140.821 71.0711 140.915 70.213 141.34C68.9665 141.913 67.9543 142.729 65.9723 141.956Z"/><path id="Vector_19" d="M71.6162 165.224C75.4956 165.572 76.0029 161.955 74.9512 160.805C73.8994 159.654 70.2793 157.493 68.1699 159.477C66.06 161.46 68.1435 164.911 71.6162 165.224Z"/><path id="Vector_20" d="M58.2787 156.516C59.5067 153.563 66.0126 156.004 65.3588 159.534C64.7049 163.064 56.326 161.213 58.2787 156.516Z"/><path id="Vector_21" d="M53.7533 168.076C51.2533 167.715 49.2953 169.22 50.7885 171.658C52.2811 174.097 54.9887 175.361 56.5741 174.817C58.16 174.274 57.8554 178.69 61.9862 179.312C66.1171 179.933 67.5761 177.926 67.2548 175.762C66.9335 173.598 64.2162 171.479 62.1146 172.062C60.0126 172.645 58.5155 173.835 57.6766 172.011C56.8168 170.141 55.2714 168.296 53.7533 168.076Z"/><path id="Vector_22" d="M135.579 157.339C139.319 159.58 135.859 165.148 131.177 163.186C126.494 161.223 116.937 151.666 116.242 146.72C115.548 141.773 122.749 136.066 127.245 137.064C130.333 137.749 129.757 141.55 132.052 143.025C134.348 144.501 139.48 143.838 141.223 149.659C142.964 155.479 135.911 154.731 133.482 153.581C131.055 152.43 131.692 155.011 135.579 157.339Z"/><path id="Vector_23" d="M128.602 174.072C130.281 172.788 134.532 167.871 130.568 166.224C126.603 164.578 125.953 168.677 125.896 171.662C125.828 175.203 123.208 173.595 120.923 176.56C118.637 179.527 120.547 181.671 123.151 181.577C124.108 181.551 125.022 181.174 125.719 180.518C126.415 179.861 126.846 178.971 126.928 178.017C127.085 176.654 126.912 175.365 128.602 174.072Z"/><path id="Vector_24" d="M105.785 166.823C103.473 169.958 106.303 172.269 107.832 171.967C109.362 171.665 113.087 169.692 112.486 166.86C111.886 164.027 107.853 164.017 105.785 166.823Z"/><path id="Vector_25" d="M120.149 159.94C122.037 162.522 116.574 166.817 113.896 164.426C111.217 162.035 117.148 155.833 120.149 159.94Z"/><path id="Vector_26" d="M112.615 150.074C114.221 148.125 113.951 145.67 111.091 145.681C108.232 145.691 105.746 147.35 105.387 148.987C105.029 150.624 101.413 148.072 98.7377 151.281C96.0629 154.49 97.0214 156.778 99.038 157.627C101.055 158.476 104.277 157.252 104.869 155.153C105.461 153.054 105.22 151.156 107.215 151.386C109.259 151.621 111.639 151.258 112.615 150.074Z"/><path id="Vector_27" d="M144.612 176.228C147.686 176.411 147.914 171.843 146.156 169.601C144.398 167.359 143.45 164.444 141.464 164.885C139.476 165.326 140.594 166.955 139.736 169.714C139.154 171.584 142.032 176.074 144.612 176.228Z"/><path id="Vector_28" d="M60.9587 86.2446L60.3114 87.372C63.1507 88.9329 66.3466 89.7301 69.5864 89.6856C73.7403 89.6999 77.8092 88.5086 81.2995 86.2561C85.0526 83.82 87.7449 80.0539 88.8356 75.7144C89.6117 72.6641 90.0034 69.5287 90.0015 66.3811C90.0682 61.926 89.1922 57.5072 87.4309 53.4145C86.6685 51.6907 85.6211 50.1076 84.3329 48.7317C83.1557 47.4685 81.6693 46.5344 80.0205 46.0216C78.9238 45.7148 77.789 45.5656 76.6503 45.5784C72.3309 45.589 67.0498 47.3592 62.3961 50.7711C57.2759 54.4331 53.6878 59.8565 52.3202 66.0011C51.9103 67.8648 51.6981 69.7664 51.6871 71.6745C51.6162 75.2958 52.6125 78.8579 54.5518 81.9169C56.0151 84.1636 57.9886 86.0328 60.3115 87.3721L60.9587 86.2446L61.6058 85.1171C59.6406 83.9829 57.9707 82.401 56.7318 80.4999C55.0658 77.863 54.2154 74.7928 54.2872 71.6745C54.2981 69.9491 54.4911 68.2296 54.8628 66.5446C56.0971 61.0219 59.3288 56.1502 63.9369 52.8655C68.1537 49.7517 73.046 48.1678 76.6504 48.1784C77.5412 48.166 78.4293 48.2798 79.2883 48.5163C80.5053 48.9027 81.6003 49.6003 82.4648 50.5401C84.143 52.4188 85.3711 54.6552 86.0558 57.0794C86.9699 60.0946 87.4235 63.2305 87.4014 66.3811C87.4033 69.3108 87.039 72.2293 86.3171 75.0686C85.3885 78.783 83.0835 82.006 79.8686 84.0852C76.8027 86.057 73.2316 87.0991 69.5864 87.0856C66.8009 87.1291 64.0516 86.451 61.6059 85.1172L60.9587 86.2446Z"/><path id="Vector_29" d="M137.641 86.2446L136.994 85.1172C134.548 86.451 131.799 87.1291 129.013 87.0856C125.368 87.0991 121.797 86.057 118.731 84.0852C115.516 82.006 113.211 78.7831 112.282 75.0686C111.561 72.2295 111.197 69.3112 111.198 66.3818C111.133 62.3016 111.928 58.2534 113.531 54.5008C114.171 53.0442 115.051 51.7054 116.135 50.5401C116.999 49.6005 118.094 48.9029 119.311 48.5164C120.17 48.2798 121.058 48.166 121.949 48.1784C125.554 48.1678 130.446 49.7517 134.663 52.8655C139.271 56.1502 142.503 61.0219 143.737 66.5446C144.109 68.2296 144.302 69.9492 144.313 71.6747C144.385 74.793 143.534 77.8631 141.868 80.5C140.629 82.4009 138.959 83.9828 136.994 85.1172L137.641 86.2446L138.289 87.372C140.611 86.0326 142.585 84.1635 144.048 81.9169C145.987 78.858 146.984 75.296 146.913 71.6747C146.902 69.7665 146.69 67.8648 146.28 66.0011C144.912 59.8565 141.324 54.4331 136.204 50.7711C131.55 47.3592 126.269 45.589 121.949 45.5784C120.811 45.5656 119.676 45.7149 118.579 46.0216C116.93 46.5344 115.444 47.4686 114.266 48.7318C112.306 50.8994 110.868 53.4879 110.064 56.2982C109.07 59.5663 108.576 62.9659 108.598 66.3818C108.597 69.529 108.988 72.6642 109.764 75.7144C110.854 80.054 113.547 83.8201 117.3 86.2561C120.79 88.5086 124.859 89.6999 129.013 89.6856C132.253 89.7301 135.449 88.9329 138.289 87.372L137.641 86.2446Z"/><path id="Vector_30" d="M75.7574 70.3044C70.3307 70.3835 66.3697 74.8991 67.2574 77.5134C67.8053 79.1276 69.8668 79.5192 72.7052 79.5803C72.5346 79.1429 72.473 78.6707 72.5257 78.2042C72.5784 77.7378 72.7439 77.2911 73.0078 76.9029C73.2716 76.5147 73.6261 76.1965 74.0404 75.9759C74.4547 75.7552 74.9165 75.6387 75.3859 75.6364C75.8553 75.6342 76.3183 75.7461 76.7347 75.9627C77.1512 76.1793 77.5087 76.494 77.7764 76.8796C78.044 77.2653 78.2138 77.7102 78.2711 78.1762C78.3284 78.6421 78.2714 79.1149 78.1051 79.5539C81.0567 79.5485 82.8224 79.4206 83.0455 77.1569C83.277 74.8097 80.1578 70.2404 75.7574 70.3044Z"/><path id="Vector_31" d="M123.048 70.3044C118.647 70.2404 115.529 74.8097 115.76 77.1569C115.983 79.4206 117.748 79.5485 120.701 79.5539C120.535 79.1153 120.479 78.6429 120.536 78.1777C120.594 77.7124 120.764 77.2681 121.031 76.8831C121.299 76.4981 121.656 76.184 122.072 75.9678C122.488 75.7516 122.951 75.6398 123.419 75.6421C123.888 75.6444 124.35 75.7607 124.763 75.9809C125.177 76.2012 125.531 76.5188 125.795 76.9063C126.059 77.2939 126.225 77.7399 126.278 78.2057C126.331 78.6715 126.27 79.1433 126.1 79.5803C128.938 79.5193 131 79.1276 131.548 77.5134C132.435 74.8991 128.474 70.3835 123.048 70.3044Z"/><path id="Vector_32" d="M110.467 90.4078C110.247 90.1432 109.931 89.9765 109.589 89.9441C109.247 89.9117 108.906 90.0163 108.64 90.235L108.64 90.2342C108.639 90.2343 108.589 90.2759 108.482 90.3537C106.16 91.9351 103.456 92.8624 100.652 93.0382C100.652 93.0158 100.662 92.9963 100.661 92.9737C100.661 92.9728 100.644 92.6549 100.618 92.1243C100.563 90.9897 100.47 88.8865 100.421 86.9314C103.721 86.0643 107.255 81.7834 107.072 78.8598C106.834 75.0576 93.3093 75.2026 91.9416 78.4639C91.0478 80.5951 94.5456 85.5258 97.8159 86.7925C97.8804 89.5207 98.0351 92.5394 98.0609 93.037C96.1752 92.9067 94.3274 92.4433 92.6034 91.6682C91.998 91.3943 91.4149 91.0735 90.8594 90.7087C90.667 90.581 90.5252 90.4772 90.4359 90.4091L90.3416 90.3352L90.3245 90.3212L90.324 90.3219C90.062 90.0979 89.7218 89.9871 89.3782 90.0139C89.0346 90.0407 88.7157 90.2029 88.4916 90.4648C88.2676 90.7268 88.1568 91.067 88.1836 91.4106C88.2104 91.7542 88.3726 92.0731 88.6346 92.2971C89.5179 92.9984 90.4887 93.5819 91.5224 94.0329C93.9879 95.1427 96.6637 95.7081 99.3674 95.6906C102.107 95.6994 104.817 95.1223 107.315 93.9981C108.377 93.5362 109.379 92.9451 110.296 92.2384C110.561 92.0182 110.728 91.7017 110.76 91.3584C110.792 91.0151 110.687 90.6732 110.467 90.4078Z"/><path id="Vector_33" d="M153.035 49.7138C153.107 49.6875 153.176 49.6545 153.242 49.6153L153.242 49.6152C154.756 48.4801 156.094 47.1284 157.215 45.6037C159.898 41.918 161.339 37.4736 161.327 32.9145C161.338 29.8809 160.683 26.8818 159.409 24.1286C158.096 21.3008 156.092 18.8486 153.583 16.9978C150.173 14.5255 146.06 13.2121 141.848 13.2503C138.534 13.2305 135.26 13.9797 132.285 15.4391C129.309 16.8985 126.713 19.0282 124.7 21.6609C123.59 23.1703 122.706 24.8331 122.074 26.5971C114.835 23.8151 107.15 22.3741 99.3942 22.3446C91.8625 22.3602 84.387 23.6433 77.2812 26.1402C76.6666 24.5453 75.8431 23.0391 74.8321 21.661C72.819 19.0283 70.2227 16.8985 67.2473 15.4391C64.2718 13.9798 60.9983 13.2305 57.6843 13.2504C53.4724 13.2121 49.3592 14.5256 45.949 16.9978C43.4396 18.8486 41.436 21.3007 40.1225 24.1286C38.8485 26.8817 38.1941 29.8808 38.2052 32.9144C38.1936 37.4737 39.6339 41.9183 42.3176 45.604C43.2139 46.8184 44.2491 47.9238 45.4022 48.8977C37.3496 58.9519 32.8979 71.4142 32.7578 84.2948C32.7578 85.9178 32.8325 87.5521 32.9819 89.1976C33.0427 89.8646 33.1172 90.5238 33.2055 91.1751C33.2283 91.3443 33.2843 91.5073 33.3701 91.6549C33.456 91.8024 33.5701 91.9316 33.7058 92.0351C33.8416 92.1386 33.9965 92.2143 34.1615 92.258C34.3266 92.3016 34.4986 92.3123 34.6678 92.2895C34.837 92.2666 35 92.2107 35.1476 92.1248C35.2951 92.039 35.4243 91.9249 35.5278 91.7891C35.6313 91.6533 35.707 91.4985 35.7507 91.3334C35.7943 91.1684 35.805 90.9964 35.7822 90.8272L35.7821 90.8271C35.6992 90.2127 35.6288 89.5907 35.5712 88.9613C35.4279 87.3952 35.3568 85.8397 35.3578 84.2948C35.3561 68.2577 42.92 53.4286 54.7376 42.5865C66.9177 31.3673 82.835 25.0791 99.3942 24.9447C116.134 24.9409 132.077 32.1777 143.816 43.3176C155.56 54.4566 163.055 69.4563 163.049 84.875C163.049 86.4297 162.972 87.9883 162.818 89.5509C162.801 89.7207 162.818 89.8923 162.868 90.0557C162.917 90.2191 162.998 90.3712 163.106 90.5032C163.215 90.6353 163.348 90.7448 163.498 90.8254C163.649 90.906 163.814 90.9561 163.983 90.973C164.153 90.9899 164.325 90.9731 164.488 90.9237C164.652 90.8743 164.804 90.7932 164.936 90.685C165.068 90.5768 165.177 90.4436 165.258 90.2931C165.339 90.1426 165.389 89.9777 165.406 89.8079C165.569 88.1599 165.65 86.5156 165.649 84.8751C165.645 72.2189 160.875 59.9715 153.035 49.7138ZM52.9801 40.6704C50.8689 42.611 48.8834 44.6841 47.0356 46.877C46.0556 46.0426 45.175 45.0981 44.4111 44.0622C42.0568 40.8229 40.794 36.9187 40.8053 32.9143C40.7942 30.2619 41.3649 27.6393 42.4771 25.2313C43.6064 22.7963 45.3306 20.6847 47.4907 19.0914C50.4542 16.9481 54.0271 15.8121 57.6843 15.8504C60.5907 15.8317 63.4619 16.4857 66.0736 17.7612C68.6852 19.0367 70.9663 20.899 72.7385 23.2026C73.608 24.3875 74.3173 25.6818 74.8483 27.0522C66.7839 30.2091 59.3707 34.8257 52.9801 40.6704ZM145.606 41.4314C139.45 35.5849 132.299 30.8857 124.49 27.5554C125.039 25.9987 125.815 24.5319 126.794 23.2026C128.566 20.899 130.847 19.0366 133.458 17.7612C136.07 16.4857 138.941 15.8317 141.848 15.8504C145.505 15.8121 149.078 16.9481 152.041 19.0914C154.201 20.6848 155.926 22.7963 157.055 25.2314C158.167 27.6394 158.738 30.2621 158.727 32.9145C158.738 36.919 157.475 40.8231 155.121 44.0623C154.151 45.3821 152.993 46.552 151.683 47.5345C151.609 47.5999 151.543 47.6739 151.486 47.7549C149.657 45.5288 147.694 43.417 145.606 41.4314V41.4314Z"/><path id="Vector_34" d="M146.118 121.707C141.776 122.116 141.267 115.58 146.203 114.389C151.139 113.197 164.499 115.239 167.988 118.813C171.476 122.388 169.053 131.251 164.839 133.109C161.946 134.386 160.159 130.982 157.435 131.152C154.713 131.322 150.969 134.896 146.118 131.237C141.267 127.578 147.394 124.004 150.032 123.493C152.671 122.983 150.628 121.281 146.118 121.707Z"/><path id="Vector_35" d="M185.69 128.58C183.415 124.942 180.504 121.742 177.096 119.134C177.47 118.433 177.869 117.652 178.269 116.812C179.15 114.984 179.897 113.094 180.505 111.158C181.149 109.177 181.5 107.113 181.547 105.031C181.547 104.872 181.544 104.715 181.539 104.559C181.58 102.739 180.98 100.962 179.845 99.5387C179.372 99.0066 178.79 98.5821 178.14 98.2941C177.489 98.0062 176.783 97.8614 176.072 97.8695C174.918 97.8809 173.79 98.2116 172.813 98.8249C171.824 99.4222 171.035 100.299 170.545 101.346C169.655 103.307 168.645 105.212 167.523 107.05C167.029 107.868 166.483 108.653 165.888 109.401C165.708 109.622 165.514 109.832 165.308 110.03C165.257 109.664 165.234 109.294 165.238 108.925C165.298 107.004 165.508 105.091 165.864 103.202C166.408 100.514 166.742 97.7866 166.862 95.0462C166.918 93.6613 166.657 92.2817 166.099 91.0129C165.801 90.4 165.372 89.86 164.843 89.4311C164.276 88.986 163.615 88.6766 162.91 88.5269C162.319 88.3907 161.714 88.3203 161.107 88.3171C160.14 88.3093 159.185 88.5235 158.315 88.9432C157.025 89.6122 155.955 90.637 155.231 91.896C154.388 93.3411 153.76 94.9019 153.369 96.5286C152.673 99.1864 152.138 102.056 151.645 104.255C151.471 105.037 151.3 105.73 151.138 106.284C150.593 104.944 150.15 103.566 149.813 102.16C149.31 100.207 148.781 97.7399 148.247 94.7571C148.011 93.2832 147.262 91.9401 146.132 90.9654C145 90.0144 143.545 89.5371 142.07 89.6331C140.595 89.7291 139.214 90.391 138.216 91.4807C136.93 92.9562 136.222 94.8476 136.223 96.8049C136.21 97.1114 136.204 97.4279 136.205 97.7545C136.327 101.596 136.734 105.423 137.422 109.205C137.608 110.321 137.793 111.358 137.961 112.263C137.763 112.129 137.562 111.994 137.35 111.859C136.253 111.15 135.092 110.547 133.88 110.058C132.588 109.522 131.207 109.231 129.808 109.201C128.248 109.177 126.725 109.684 125.491 110.639C124.772 111.179 124.17 111.86 123.723 112.64C123.316 113.368 123.103 114.188 123.102 115.022C123.115 115.898 123.323 116.76 123.711 117.545C124.38 118.85 125.293 120.016 126.4 120.98C127.723 122.161 129.166 123.202 130.705 124.085C120.592 127.343 110.018 128.941 99.394 128.814C88.9995 128.957 78.6397 127.582 68.6419 124.734C69.4022 124.138 70.1118 123.479 70.7636 122.766C71.4019 122.069 71.938 121.285 72.3559 120.437C72.7443 119.652 72.9523 118.79 72.9648 117.915C72.9645 117.081 72.7509 116.261 72.3443 115.533C71.8969 114.753 71.2954 114.072 70.5765 113.533C69.3418 112.578 67.8194 112.071 66.2587 112.095C64.8599 112.125 63.4789 112.416 62.1866 112.952C60.7499 113.537 59.3816 114.277 58.1059 115.16C58.274 114.255 58.4593 113.216 58.645 112.098C59.3329 108.317 59.7398 104.49 59.8627 100.648C59.8627 100.322 59.8566 100.006 59.8443 99.6988C59.8457 97.7413 59.1378 95.8497 57.8517 94.374C56.8531 93.2843 55.4722 92.6224 53.9972 92.5263C52.5222 92.4303 51.0671 92.9076 49.9356 93.8587C48.8051 94.8335 48.0557 96.1767 47.82 97.6508C47.2677 101.036 46.4925 104.381 45.4995 107.664C45.2996 108.273 45.1065 108.773 44.9292 109.179C44.8458 108.894 44.7597 108.573 44.6732 108.222C44.1121 105.956 43.5143 102.537 42.6984 99.4221C42.2313 97.2996 41.2988 95.3073 39.968 93.5892C39.3584 92.8583 38.6041 92.2617 37.7526 91.8368C36.882 91.4171 35.9268 91.2029 34.9604 91.2107C34.3535 91.2139 33.7487 91.2843 33.1572 91.4206C32.4523 91.5702 31.7912 91.8795 31.2245 92.3246C30.4399 92.9774 29.8731 93.854 29.5999 94.8374C29.3167 95.8465 29.1838 96.8918 29.2056 97.9396C29.3255 100.68 29.659 103.407 30.2031 106.096C30.5594 107.984 30.7686 109.898 30.8287 111.819C30.8337 112.188 30.8104 112.557 30.759 112.922C30.4447 112.616 30.1551 112.285 29.893 111.933C28.1882 109.517 26.7242 106.94 25.5219 104.239C25.032 103.193 24.2426 102.315 23.2538 101.718C22.2768 101.105 21.1489 100.774 19.9953 100.763C19.2836 100.754 18.5784 100.899 17.9275 101.187C17.2765 101.475 16.6951 101.9 16.2224 102.432C15.087 103.854 14.4872 105.631 14.5279 107.45C14.5224 107.607 14.5198 107.765 14.5198 107.922C14.5664 110.005 14.9175 112.069 15.5617 114.05C16.8394 117.936 18.5824 121.652 20.7527 125.119C20.6723 125.642 20.6203 126.168 20.5967 126.697C20.574 126.72 20.5438 126.73 20.5226 126.755L20.5225 126.755C18.1609 129.538 16.1933 132.633 14.6748 135.953C13.138 139.175 12.2947 142.685 12.1994 146.253C12.1541 148.863 12.82 151.436 14.1258 153.696C15.6596 156.176 17.8875 158.152 20.5334 159.378C23.6628 160.982 27.1221 161.838 30.6386 161.877C31.7556 161.878 32.8707 161.784 33.9717 161.596C33.162 170.137 32.7478 177.735 32.5416 182.49C32.5266 182.834 32.6491 183.17 32.8822 183.425C33.1152 183.679 33.4396 183.83 33.7841 183.845C34.1285 183.86 34.4648 183.737 34.719 183.504C34.9731 183.271 35.1243 182.947 35.1392 182.602C35.3511 177.711 35.7852 169.784 36.6466 160.939C40.4874 159.661 43.9418 157.431 46.6877 154.457C51.189 149.742 54.6861 143.035 56.7653 134.867C56.774 134.833 56.7645 134.8 56.7703 134.766C57.4619 133.938 58.1187 133.137 58.8045 132.366C60.6641 130.224 62.8697 128.409 65.3297 126.997C65.538 126.875 65.7247 126.748 65.926 126.624C75.6247 129.843 86.9725 131.413 99.3941 131.414C110.875 131.572 122.296 129.743 133.153 126.007C133.236 125.969 133.314 125.921 133.386 125.865C134.799 126.931 136.098 128.14 137.263 129.474C138.899 131.312 140.357 133.314 142.569 135.484C143.47 136.341 144.515 137.032 145.656 137.526C149.17 142.768 153.478 147.431 158.426 151.348C160.102 152.631 161.894 153.754 163.778 154.704C165.19 166.75 165.747 177.973 165.954 183.498C165.967 183.843 166.117 184.168 166.369 184.402C166.622 184.637 166.958 184.761 167.302 184.748C167.647 184.735 167.972 184.586 168.207 184.333C168.441 184.081 168.566 183.745 168.553 183.401C168.352 178.056 167.828 167.446 166.527 155.856C168.631 156.639 170.854 157.053 173.098 157.081C176.9 157.059 180.587 155.772 183.576 153.421C185.59 151.947 187.224 150.014 188.343 147.783C189.321 145.75 189.819 143.52 189.8 141.264C189.624 136.739 188.202 132.349 185.69 128.58ZM56.8606 130.64C55.1146 132.609 53.7209 134.522 51.6784 136.521C50.2499 137.762 48.511 138.592 46.6475 138.921C44.8481 139.3 43.0133 139.485 41.1746 139.473C40.5133 139.473 39.9655 139.451 39.5873 139.43C39.3982 139.419 39.2514 139.408 39.154 139.401L39.0456 139.392L39.0164 139.389C38.8465 139.372 38.6749 139.389 38.5115 139.438C38.3481 139.488 38.1961 139.569 38.0641 139.677C37.932 139.785 37.8226 139.919 37.742 140.069C37.6615 140.22 37.6113 140.385 37.5945 140.554C37.5777 140.724 37.5945 140.896 37.6439 141.059C37.6934 141.223 37.7746 141.375 37.8828 141.507C37.991 141.639 38.1242 141.748 38.2747 141.829C38.4252 141.909 38.5901 141.96 38.76 141.976C38.7923 141.979 39.7392 142.072 41.1746 142.073C43.2046 142.085 45.23 141.879 47.216 141.458C49.2317 141.064 51.134 140.225 52.7841 139.002C51.11 144.063 48.3927 148.716 44.8078 152.661C40.6839 156.967 35.8404 159.273 30.6385 159.277C27.522 159.238 24.4573 158.475 21.6864 157.048C19.49 156.044 17.6377 154.416 16.3605 152.367C15.2937 150.509 14.754 148.395 14.7995 146.254C14.8963 143.054 15.6611 139.909 17.0447 137.022C18.0876 134.741 19.3623 132.572 20.8487 130.551C20.9951 131.44 21.2074 132.316 21.4841 133.174C21.5913 133.501 21.8242 133.773 22.1317 133.929C22.4391 134.085 22.796 134.112 23.1237 134.005C23.4514 133.898 23.7232 133.665 23.8791 133.358C24.0351 133.05 24.0626 132.693 23.9554 132.366L23.9554 132.366C23.4416 130.798 23.1784 129.16 23.1753 127.51C23.1735 126.92 23.2111 126.33 23.2879 125.744C23.3155 125.54 23.3426 125.385 23.3617 125.286L23.3832 125.181L23.3877 125.161L23.3871 125.161C23.4292 124.988 23.4352 124.808 23.4047 124.632C23.3743 124.457 23.308 124.29 23.21 124.141L23.1959 124.119C22.0079 122.244 20.9411 120.294 20.0021 118.283C18.5097 115.109 17.1074 111.131 17.1199 107.922C17.1199 107.793 17.122 107.666 17.1263 107.541C17.0707 106.328 17.4377 105.133 18.1647 104.16C18.3926 103.901 18.6747 103.695 18.9911 103.557C19.3075 103.419 19.6503 103.353 19.9953 103.363C20.6645 103.375 21.3175 103.57 21.8834 103.927C22.4317 104.253 22.8724 104.732 23.1509 105.306C24.088 107.371 25.1505 109.376 26.3326 111.311C26.8878 112.229 27.5024 113.109 28.1725 113.947C28.4575 114.3 28.7685 114.63 29.1028 114.937C29.4196 115.234 29.7859 115.475 30.1853 115.646C30.4706 115.764 30.7757 115.826 31.0843 115.83C31.5729 115.83 32.0447 115.651 32.4102 115.327C32.8521 114.9 33.1476 114.343 33.2545 113.738C33.3819 113.106 33.4403 112.463 33.4287 111.819C33.37 109.753 33.1486 107.694 32.7667 105.662C32.25 103.116 31.9287 100.535 31.8057 97.9396C31.7547 96.9571 31.922 95.9754 32.2955 95.0652C32.4246 94.791 32.613 94.5488 32.8471 94.3562C33.1054 94.1571 33.4065 94.0206 33.7266 93.9574C34.1312 93.8632 34.545 93.814 34.9605 93.8107C35.5324 93.8025 36.0985 93.927 36.6142 94.1744C37.4593 94.6284 38.1564 95.3152 38.6228 96.1535C39.3303 97.3805 39.856 98.7038 40.1835 100.082C40.8484 102.615 41.3778 105.447 41.8848 107.715C42.0907 108.706 42.3525 109.685 42.6691 110.646C42.7973 111.029 42.967 111.398 43.1753 111.744C43.2917 111.932 43.4328 112.104 43.5948 112.255C43.8163 112.461 44.0872 112.606 44.3814 112.677C44.5076 112.706 44.6366 112.721 44.7661 112.721C45.0331 112.719 45.2964 112.659 45.5369 112.543C45.8862 112.366 46.19 112.112 46.4249 111.799C46.8443 111.226 47.1842 110.6 47.4353 109.937C48.7872 106.096 49.7729 102.136 50.3793 98.1091C50.5072 97.2337 50.943 96.4325 51.6083 95.8492C52.1713 95.3748 52.8839 95.1145 53.6202 95.1143C54.0599 95.116 54.4946 95.2091 54.8964 95.3877C55.2983 95.5664 55.6586 95.8266 55.9546 96.1519C56.8126 97.1736 57.2715 98.4715 57.2465 99.8054C57.2574 100.071 57.2626 100.353 57.2626 100.648C57.1383 104.347 56.7431 108.031 56.0802 111.672C55.7828 113.462 55.4848 115.055 55.2617 116.199C55.1501 116.771 55.0572 117.23 54.9923 117.546C54.9274 117.862 54.8914 118.03 54.8913 118.031C54.8336 118.301 54.8633 118.582 54.9762 118.834C55.0891 119.086 55.2793 119.296 55.5193 119.432C55.7592 119.569 56.0364 119.626 56.3107 119.594C56.585 119.563 56.8422 119.445 57.0449 119.257L57.0534 119.25C58.0629 118.358 59.1443 117.55 60.2868 116.836C62.0547 115.61 64.1145 114.872 66.2587 114.695C67.2409 114.669 68.2017 114.983 68.9791 115.584C69.4197 115.908 69.7901 116.318 70.0679 116.789C70.2628 117.132 70.3652 117.52 70.3648 117.915C70.3519 118.405 70.2297 118.885 70.0073 119.322C69.48 120.324 68.7686 121.217 67.9104 121.956C66.7123 123.021 65.4064 123.959 64.014 124.755C61.3195 126.306 58.902 128.295 56.8606 130.64ZM186.006 146.643C185.067 148.507 183.697 150.119 182.009 151.347C179.472 153.358 176.335 154.461 173.098 154.481C168.851 154.486 164.366 152.585 159.995 149.275C156.123 146.235 152.678 142.689 149.751 138.731C151.45 139.03 153.171 139.18 154.896 139.18C156.329 139.18 157.275 139.087 157.307 139.084C157.648 139.047 157.961 138.877 158.177 138.611C158.394 138.345 158.496 138.004 158.462 137.663C158.429 137.322 158.261 137.008 157.997 136.789C157.733 136.571 157.393 136.465 157.051 136.496L157.022 136.499C156.86 136.514 156.052 136.58 154.896 136.58C153.057 136.592 151.221 136.407 149.422 136.029C147.558 135.699 145.818 134.869 144.389 133.627C142.346 131.628 140.953 129.716 139.206 127.747C137.165 125.402 134.747 123.413 132.053 121.862C130.271 120.872 128.65 119.618 127.244 118.143C126.771 117.63 126.372 117.054 126.06 116.43C125.837 115.993 125.715 115.512 125.702 115.022C125.702 114.627 125.804 114.239 125.999 113.896C126.277 113.425 126.648 113.015 127.088 112.691C127.866 112.09 128.826 111.776 129.808 111.801C130.882 111.833 131.94 112.062 132.93 112.478C134.45 113.109 135.887 113.925 137.207 114.908C137.772 115.318 138.233 115.689 138.549 115.953C138.707 116.085 138.828 116.191 138.909 116.262L138.998 116.342L139.022 116.364C139.225 116.551 139.482 116.669 139.757 116.701C140.031 116.732 140.308 116.675 140.548 116.539C140.788 116.402 140.978 116.193 141.091 115.941C141.204 115.689 141.234 115.407 141.176 115.137C141.176 115.137 141.14 114.969 141.075 114.653C140.848 113.548 140.277 110.68 139.765 107.404C139.219 104.214 138.898 100.989 138.805 97.7545C138.805 97.4596 138.81 97.1779 138.821 96.9119C138.796 95.578 139.255 94.2802 140.113 93.2586C140.409 92.9333 140.769 92.6731 141.171 92.4945C141.573 92.3159 142.008 92.2228 142.447 92.2211C143.183 92.2213 143.896 92.4815 144.459 92.9559C145.124 93.5391 145.56 94.3401 145.688 95.2154C146.261 98.7217 147.066 102.186 148.098 105.586C148.392 106.548 148.785 107.477 149.27 108.358C149.463 108.699 149.706 109.011 149.99 109.281C150.151 109.43 150.333 109.554 150.53 109.649C150.77 109.765 151.034 109.826 151.301 109.827C151.429 109.827 151.558 109.813 151.683 109.784C151.978 109.714 152.25 109.568 152.472 109.362C152.756 109.086 152.983 108.757 153.139 108.393C153.43 107.716 153.661 107.016 153.83 106.299C154.457 103.866 155.064 100.31 155.884 97.1882C156.256 95.4466 157.004 93.8072 158.076 92.3849C158.453 91.9255 158.922 91.5495 159.453 91.2809C159.969 91.0335 160.535 90.909 161.107 90.9172C161.522 90.9205 161.936 90.9697 162.341 91.0639C162.661 91.127 162.962 91.2635 163.22 91.4628C163.595 91.7896 163.861 92.2239 163.982 92.7069C164.188 93.4691 164.282 94.2571 164.262 95.0463C164.139 97.6412 163.817 100.223 163.301 102.769C162.918 104.8 162.697 106.859 162.638 108.925C162.606 109.763 162.721 110.601 162.976 111.4C163.115 111.795 163.349 112.15 163.657 112.434C164.023 112.758 164.495 112.937 164.983 112.936C165.292 112.933 165.597 112.871 165.882 112.753C166.282 112.581 166.648 112.341 166.965 112.043C167.569 111.471 168.112 110.838 168.584 110.153C170.255 107.706 171.705 105.116 172.916 102.413C173.195 101.839 173.635 101.36 174.183 101.035C174.749 100.677 175.402 100.482 176.072 100.47C176.417 100.46 176.759 100.527 177.076 100.664C177.392 100.802 177.674 101.008 177.902 101.267C178.629 102.24 178.996 103.434 178.94 104.647C178.945 104.774 178.947 104.902 178.947 105.031C178.899 106.855 178.586 108.663 178.019 110.398C177.181 113.004 176.101 115.526 174.791 117.93C174.25 118.942 173.762 119.778 173.412 120.357C173.237 120.647 173.096 120.872 173 121.024L172.891 121.195L172.857 121.247C172.759 121.396 172.693 121.563 172.662 121.739C172.632 121.914 172.638 122.094 172.68 122.267L172.679 122.267C172.831 123.041 172.903 123.829 172.892 124.618C172.889 126.267 172.625 127.905 172.111 129.472C172.004 129.8 172.032 130.156 172.188 130.464C172.343 130.771 172.615 131.004 172.943 131.112C173.271 131.219 173.627 131.191 173.935 131.036C174.242 130.88 174.475 130.608 174.583 130.28L174.583 130.28C175.182 128.452 175.489 126.541 175.492 124.618C175.495 123.818 175.436 123.018 175.314 122.228C175.44 122.026 175.613 121.741 175.805 121.419C178.839 123.8 181.437 126.689 183.484 129.957C185.735 133.315 187.02 137.226 187.199 141.264C187.219 143.125 186.811 144.965 186.006 146.643H186.006Z"/><path id="Vector_36" d="M141.716 102.762C141.124 104.792 140.609 111.272 144.779 110.251C148.949 109.229 147.045 105.542 145.324 103.102C143.281 100.209 146.345 99.9539 146.43 96.2097C146.515 92.4656 143.707 91.8699 141.665 93.4866C140.909 94.0738 140.395 94.919 140.222 95.8608C140.049 96.8027 140.23 97.7752 140.728 98.5926C141.409 99.784 142.311 100.72 141.716 102.762Z"/><path id="Vector_37" d="M164.442 94.0358C164.447 90.1408 160.801 89.9543 159.746 91.1032C158.692 92.2521 156.859 96.048 159.02 97.9748C161.182 99.9015 164.437 97.5222 164.442 94.0358Z"/><path id="Vector_38" d="M156.953 109.223C153.904 108.261 155.762 101.565 159.336 101.905C162.91 102.246 161.804 110.756 156.953 109.223Z"/><path id="Vector_39" d="M169.047 112.795C168.908 115.063 170.579 116.698 172.876 115.168C175.174 113.637 176.196 111.111 175.515 109.734C174.833 108.356 179.259 108.28 179.514 104.53C179.769 100.781 177.642 99.6327 175.515 100.092C173.387 100.551 171.515 103.153 172.281 104.989C173.047 106.826 174.365 108.073 172.621 108.969C170.834 109.888 169.132 111.418 169.047 112.795Z"/><path id="Vector_40" d="M127.151 111.785C124.565 113.459 127.087 117.274 129.831 118.04C132.575 118.806 135.065 120.593 136.405 119.062C137.745 117.529 135.879 116.879 134.937 114.147C134.299 112.296 129.321 110.382 127.151 111.785Z"/><path id="Vector_41" d="M49.9507 124.599C54.292 125.01 54.8008 118.472 49.8653 117.281C44.9297 116.09 31.5699 118.133 28.0811 121.707C24.5918 125.28 27.0157 134.143 31.2295 136.003C34.1226 137.279 35.9097 134.896 38.6329 135.066C41.356 135.237 45.1001 137.79 49.9507 134.131C54.8008 130.471 48.6739 126.897 46.0362 126.387C43.398 125.876 45.4405 124.175 49.9507 124.599Z"/><path id="Vector_42" d="M35.1215 105.666C34.7236 107.835 34.8798 114.615 39.0981 113.111C43.3163 111.608 40.9482 107.983 38.9018 105.635C36.4745 102.851 39.6264 102.259 39.3158 98.3649C39.0053 94.4703 35.3236 92.0807 33.3764 93.9762C31.4296 95.8712 32.8198 100.281 33.6533 101.444C34.4863 102.609 35.5219 103.484 35.1215 105.666Z"/><path id="Vector_43" d="M50.8421 96.804C52.4744 93.2674 55.8621 94.6316 56.3352 96.117C56.8088 97.6028 56.8757 101.818 54.1047 102.657C51.3337 103.497 49.3806 99.9695 50.8421 96.804Z"/><path id="Vector_44" d="M51.8053 114.916C54.9777 115.324 56.1061 108.468 52.7203 107.275C49.3346 106.08 46.7604 114.267 51.8053 114.916Z"/><path id="Vector_45" d="M24.9518 113.622C25.5672 113.924 26.0933 114.381 26.4781 114.948C26.8629 115.515 27.0932 116.173 27.1462 116.857C27.2858 119.378 25.6144 121.196 23.3166 119.494C21.0192 117.792 20.7839 116.044 21.3703 114.474C21.9733 112.857 23.9479 113.065 24.9518 113.622Z"/><path id="Vector_46" d="M17.2174 107.932C15.9054 103.966 19.0895 102.485 21.2169 102.996C23.3444 103.507 23.8038 106.158 23.2667 108.273C22.424 111.591 18.2306 110.995 17.2174 107.932Z"/><path id="Vector_47" d="M70.1084 115.867C72.9214 117.121 70.2359 121.611 67.4917 122.377C64.7471 123.142 62.2583 124.93 60.918 123.397C59.5777 121.866 60.3511 120.249 61.628 118.207C62.9698 116.059 67.627 114.761 70.1084 115.867Z"/></g></g></svg>