<svg width="200" height="200" viewBox="0 0 200 200" xmlns="http://www.w3.org/2000/svg"><g id="type=sad, mode=light"><g id="Layer 8"><path id="Vector" d="M172.375 172.375L171.708 172.083C169.212 172.447 166.689 172.6 164.166 172.541C167.137 169.833 168.746 168.592 170.708 165.041C170.868 165.003 171.763 164.539 171.916 164.5C172.279 164.376 172.586 164.128 172.784 163.801C172.982 163.473 173.058 163.086 173 162.708C172.986 162.287 172.931 161.868 172.833 161.458C175.058 156.697 175.427 152.108 175.427 146.499C175.38 139.257 173.19 132.191 169.134 126.193C165.077 120.194 159.334 115.531 152.63 112.792C145.927 110.053 138.562 109.36 131.465 110.801C124.368 112.242 117.857 115.753 112.753 120.89C107.649 126.027 104.18 132.561 102.784 139.666C101.388 146.772 102.128 154.133 104.91 160.819C107.692 167.505 112.392 173.217 118.416 177.236C124.441 181.254 131.52 183.398 138.762 183.398C146.198 183.519 153.468 181.198 159.458 176.791C159.942 176.811 161.116 176.916 161.625 176.916C165.163 176.891 168.692 176.542 172.166 175.875C172.565 175.708 172.903 175.422 173.134 175.057C173.365 174.692 173.478 174.265 173.458 173.833C173.325 173.127 173.08 172.241 172.375 172.375Z"/><path id="Vector_2" d="M102.233 149.555C102.186 148.988 102.153 148.418 102.131 147.844C102.428 147.795 102.698 147.643 102.894 147.415C103.091 147.187 103.2 146.898 103.205 146.597V146.597C103.215 144.667 103.382 142.74 103.705 140.837C103.756 140.525 103.69 140.206 103.52 139.939C103.35 139.673 103.088 139.478 102.784 139.393C103.003 138.261 103.274 137.149 103.596 136.057C103.909 136.138 104.241 136.098 104.526 135.946C104.811 135.794 105.028 135.541 105.135 135.236C105.764 133.41 106.539 131.638 107.453 129.937C107.614 129.636 107.65 129.284 107.553 128.956C107.456 128.629 107.234 128.353 106.936 128.188C106.93 128.185 106.927 128.179 106.922 128.177C106.618 128.014 106.262 127.978 105.932 128.077C105.602 128.177 105.325 128.403 105.162 128.707C104.567 129.816 104.039 130.943 103.563 132.082C102.549 132.106 101.54 132.138 100.514 132.138C84.6659 132.143 70.756 129.462 60.1395 124.113C60.0904 124.177 60.0407 124.25 59.9918 124.313C59.4533 125.01 58.9289 125.624 58.4434 126.16C57.8315 126.838 57.1858 127.485 56.5089 128.099C56.5606 129.141 56.6507 131.396 56.6507 134.481C56.669 141.875 56.1358 149.261 55.0557 156.576C69.4994 151.794 89.2494 149.675 102.233 149.555Z"/><path id="Vector_3" d="M17.2295 179.239C18.7884 180.375 20.5537 181.196 22.4268 181.657C24.2156 182.118 26.0561 182.349 27.9034 182.344C32.0772 182.33 36.1789 181.254 39.8214 179.216C41.8011 178.107 43.6003 176.703 45.1569 175.052C46.8559 173.085 48.2557 170.878 49.3111 168.502C50.1593 166.376 50.8659 164.196 51.4262 161.976C51.4346 161.937 51.4447 161.9 51.453 161.861C53.2333 152.844 54.1037 143.671 54.051 134.48C54.051 131.305 53.9536 129.021 53.9055 128.088C53.8983 127.949 53.8926 127.846 53.8882 127.77C53.8827 127.674 53.8793 127.621 53.8792 127.621C53.8771 127.589 53.8842 127.558 53.8845 127.526C53.8847 127.493 53.8871 127.462 53.8899 127.429C53.8996 127.283 53.934 127.139 53.9915 127.005C53.9969 126.993 54.0058 126.983 54.0115 126.971C54.0764 126.84 54.1629 126.721 54.2674 126.62C54.2964 126.586 54.3271 126.555 54.3594 126.525L54.3701 126.516L54.4206 126.474C54.467 126.435 54.5384 126.374 54.6313 126.292C54.8173 126.128 55.0898 125.879 55.4226 125.554C56.3235 124.669 57.1627 123.723 57.9342 122.724C59.0294 121.314 59.9676 119.788 60.7319 118.175C61.428 116.702 61.9295 115.145 62.2236 113.544C62.2648 113.314 62.3172 113.09 62.3489 112.857C62.387 112.579 62.5142 112.321 62.7116 112.121C62.909 111.921 63.1658 111.79 63.4436 111.748L65.1814 111.487C65.351 111.46 65.5243 111.467 65.6912 111.507C65.8582 111.547 66.0156 111.62 66.1542 111.722C66.2928 111.823 66.41 111.951 66.4989 112.098C66.5878 112.245 66.6468 112.408 66.6723 112.578C66.6978 112.748 66.6894 112.921 66.6476 113.087C66.6058 113.254 66.5314 113.411 66.4287 113.548C66.3261 113.686 66.1971 113.802 66.0493 113.889C65.9016 113.977 65.7379 114.034 65.5679 114.058L64.7467 114.182C64.4291 115.832 63.9176 117.438 63.2227 118.968C62.8872 119.711 62.528 120.42 62.1461 121.087C62.2899 121.11 62.4353 121.122 62.581 121.123C63.9775 121.001 65.2773 120.359 66.224 119.325C67.5384 118.016 68.5696 116.451 69.2535 114.727C69.632 113.628 69.835 112.476 69.855 111.314C69.855 111.151 69.8505 110.989 69.8415 110.827C69.7728 109.335 69.4041 107.872 68.7574 106.526C67.8717 104.752 66.474 103.284 64.7451 102.313C64.6482 102.229 64.5389 102.16 64.4211 102.108C64.4099 102.104 64.3796 102.093 64.3336 102.077C64.2462 102.031 64.1488 101.991 64.0588 101.947C64.0446 101.871 64.0273 101.797 64.0119 101.722C63.2601 101.503 62.4814 101.392 61.6986 101.391C61.5501 101.391 61.4025 101.407 61.2543 101.415C60.4979 101.453 59.7514 101.604 59.0395 101.862C58.8118 101.944 58.5884 102.036 58.3702 102.141V102.141C58.2168 102.216 58.0502 102.26 57.8798 102.27C57.7094 102.281 57.5386 102.258 57.3771 102.203C57.2156 102.147 57.0666 102.061 56.9386 101.948C56.8106 101.835 56.7061 101.698 56.6311 101.544C56.5561 101.391 56.512 101.224 56.5014 101.054C56.4908 100.883 56.5138 100.713 56.5692 100.551C56.6246 100.39 56.7112 100.241 56.8242 100.113C56.9372 99.9846 57.0743 99.8801 57.2276 99.8051C58.061 99.4042 58.9465 99.1221 59.8583 98.9672C60.4654 98.8549 61.0812 98.7961 61.6986 98.7914C62.137 98.7966 62.5747 98.8281 63.0094 98.8857C62.3951 97.7232 61.4765 96.7494 60.3518 96.0683C59.2234 95.4255 57.9769 95.0166 56.687 94.8662C56.4135 94.8477 56.1347 94.8351 55.8462 94.8367C55.6517 94.8365 55.4454 94.8581 55.2458 94.8667C53.481 94.9388 51.7425 95.32 50.1094 95.9931V95.9931C49.9825 96.0408 49.8488 96.0678 49.7133 96.0732C49.4416 96.0998 49.1686 96.0391 48.9336 95.9001C48.6987 95.761 48.5141 95.5509 48.4066 95.2999C48.3403 95.1426 48.3056 94.9738 48.3046 94.803C48.3035 94.6323 48.3361 94.4631 48.4005 94.305C48.4649 94.1468 48.5597 94.0029 48.6797 93.8815C48.7997 93.76 48.9424 93.6634 49.0998 93.5971C49.1594 93.572 49.2216 93.5561 49.2815 93.5318C50.598 93.0033 51.9736 92.6363 53.3783 92.4388C52.694 91.9497 51.9372 91.571 51.1355 91.3166C49.8871 90.9306 48.5868 90.7388 47.2801 90.748C46.9105 90.748 46.5448 90.7626 46.186 90.7906C44.4963 90.9232 42.8413 91.3414 41.2914 92.0274C40.472 92.387 39.6844 92.8151 38.9369 93.307C36.7071 94.8193 34.8103 96.7718 33.3632 99.0444L33.3563 99.0319C32.7173 97.6635 32.3923 96.1697 32.4048 94.6595C32.4478 91.6085 33.5485 88.6671 35.5189 86.3374C36.1942 85.5391 36.9667 84.8285 37.8186 84.2222C39.5019 83.0057 41.493 82.2861 43.5652 82.1455C43.9088 82.122 44.229 81.9631 44.4555 81.7038C44.6821 81.4444 44.7965 81.1057 44.7736 80.7621C44.7507 80.4185 44.5923 80.098 44.3334 79.871C44.0744 79.644 43.7359 79.529 43.3923 79.5513L43.3922 79.5512C41.7132 79.6662 40.0703 80.0927 38.5475 80.8089C39.4428 75.3435 41.1317 70.0381 43.5606 65.0609C45.305 61.3965 47.4538 57.9387 49.967 54.752C50.1522 54.6683 50.3146 54.5413 50.4405 54.3817C52.3314 51.9062 54.4341 49.5999 56.7247 47.4889C57.0571 47.1857 57.3871 46.8804 57.7265 46.584C57.7504 46.5628 57.7744 46.5428 57.7983 46.5217C60.1958 44.4406 62.7444 42.5401 65.4232 40.8361C65.2774 41.5997 65.1246 42.3505 64.9435 43.0663C64.6785 44.1926 64.2919 45.2868 63.7905 46.3296C63.3251 47.2899 62.6818 48.1532 61.8947 48.8738C61.6384 49.1044 61.4843 49.4274 61.4661 49.7717C61.448 50.116 61.5674 50.4534 61.7981 50.7097C62.0287 50.966 62.3517 51.1202 62.696 51.1383C63.0403 51.1564 63.3777 51.037 63.634 50.8064L63.634 50.8063C64.2549 50.2425 64.806 49.6061 65.2753 48.9109C66.1555 47.5761 66.8162 46.1088 67.2323 44.5649C68.2127 41.1277 68.4735 37.447 69.4688 34.4367C69.8958 33 70.6123 31.6659 71.5742 30.5165C72.6785 29.2899 74.0965 28.3876 75.6754 27.9069C76.9055 27.4806 78.1968 27.2572 79.4986 27.2452C81.3487 27.267 83.1645 27.7476 84.7832 28.6439C87.2468 29.9274 89.5202 31.9617 91.9407 33.7587C93.1359 34.6763 94.4238 35.4663 95.7835 36.1159C96.4563 36.4242 97.1563 36.6693 97.8746 36.8478C98.6595 37.0442 99.4655 37.1444 100.275 37.1461C100.398 37.1461 100.522 37.1438 100.646 37.1392C100.817 37.1336 100.985 37.0943 101.141 37.0235C101.297 36.9527 101.437 36.8518 101.554 36.7266C101.671 36.6014 101.762 36.4544 101.821 36.294C101.881 36.1336 101.909 35.963 101.902 35.7919C101.896 35.6209 101.856 35.4527 101.785 35.2972C101.713 35.1416 101.612 35.0017 101.486 34.8855C101.36 34.7693 101.213 34.679 101.052 34.6199C100.892 34.5607 100.721 34.5339 100.55 34.541C100.457 34.5444 100.365 34.5461 100.275 34.5461C98.6682 34.5012 97.1033 34.0267 95.7424 33.172C94.6429 32.5155 93.5893 31.785 92.5889 30.9855C95.2173 30.6485 97.8643 30.4775 100.514 30.4735C116.965 30.4667 133.427 37.7835 145.733 48.9563C151.795 54.3899 156.819 60.8806 160.56 68.1117C164.135 74.9501 166.047 82.5352 166.141 90.2512C166.141 91.6394 166.072 93.029 165.935 94.42C165.37 100.219 163.201 105.747 159.671 110.383C158.891 111.414 158.057 112.403 157.171 113.346C155.864 112.606 154.514 111.944 153.128 111.364C152.842 111.248 152.524 111.239 152.232 111.338C151.94 111.437 151.693 111.638 151.538 111.904C151.497 111.955 151.461 112.01 151.429 112.066C151.354 112.253 151.324 112.455 151.342 112.655C151.36 112.855 151.425 113.049 151.532 113.219C149.72 114.769 149.205 118.024 151.63 119.549C153.823 120.927 157.456 119.041 157.884 116.588C158.115 116.605 158.347 116.559 158.554 116.455C158.761 116.35 158.936 116.192 159.06 115.997C159.088 115.938 159.111 115.877 159.128 115.814C159.249 115.549 159.275 115.25 159.202 114.968C160.102 114.004 160.952 112.995 161.749 111.944C165.565 106.928 167.91 100.95 168.522 94.6771C168.669 93.2002 168.742 91.7249 168.741 90.2512C168.647 82.1269 166.639 74.1392 162.879 66.9367C160.502 62.2949 157.59 57.9476 154.202 53.9836C155.358 53.0165 156.394 51.9151 157.289 50.7025C159.921 47.0885 161.333 42.7304 161.322 38.2598C161.333 35.2851 160.691 32.3443 159.442 29.6447C158.153 26.8713 156.189 24.4664 153.728 22.6512C150.383 20.2269 146.35 18.9389 142.219 18.9764C138.97 18.9569 135.76 19.6915 132.842 21.1226C129.925 22.5536 127.379 24.642 125.405 27.2235C124.326 28.6904 123.465 30.3054 122.848 32.0183C115.707 29.3283 108.145 27.925 100.514 27.8735C96.9019 27.8788 93.2961 28.1804 89.733 28.7755C89.3914 28.5191 89.0457 28.2645 88.6928 28.015C87.3949 27.0721 85.9936 26.2802 84.5163 25.6546C82.9257 24.9937 81.2211 24.6508 79.4987 24.6452C77.9902 24.6584 76.493 24.9061 75.0607 25.3795C73.0743 23.346 70.7001 21.7315 68.0787 20.6317C65.4572 19.5319 62.6419 18.969 59.7991 18.9764C55.6687 18.9389 51.6352 20.2269 48.2909 22.6511C45.8299 24.4664 43.8648 26.8713 42.5765 29.6448C41.3273 32.3445 40.6855 35.2854 40.6964 38.2601C40.6849 42.7306 42.0972 47.0887 44.7287 50.7027C45.5382 51.801 46.4635 52.8091 47.4887 53.7093C45.0407 56.8917 42.9362 60.3241 41.2102 63.9493C38.3432 69.7245 36.4939 75.9511 35.7438 82.355C35.7462 82.4092 35.7522 82.4631 35.7618 82.5165C34.9461 83.1533 34.1982 83.8725 33.5301 84.6628C31.1638 87.4605 29.8465 90.9955 29.8049 94.6595C29.7923 96.5563 30.2035 98.432 31.0087 100.149C31.2611 100.669 31.5514 101.169 31.8773 101.646C31.7596 101.884 31.636 102.118 31.5249 102.36C29.7803 106.231 28.8813 110.43 28.8879 114.676C28.8879 115.126 28.9085 115.577 28.929 116.027C21.4166 127.209 17.1944 136.122 14.7923 143.487C12.8721 149.378 11.7748 155.506 11.5313 161.696C11.4822 162.588 11.4571 163.461 11.4561 164.315C11.4592 168.508 12.0758 172.255 13.7921 175.307C14.6492 176.844 15.8204 178.184 17.2295 179.239Z"/><path id="Vector_4" d="M70.3423 90.0866C72.5999 91.6452 74.6938 93.4285 76.5919 95.4092C77.9397 96.7936 79.1322 98.3212 80.1481 99.9648C80.2356 100.111 80.3512 100.239 80.4881 100.341C80.6251 100.443 80.7807 100.517 80.9463 100.559C81.1118 100.601 81.2839 100.609 81.4529 100.585C81.6218 100.56 81.7842 100.502 81.9308 100.415C82.0773 100.327 82.2053 100.212 82.3072 100.075C82.4091 99.9377 82.4831 99.782 82.5249 99.6165C82.5667 99.451 82.5754 99.2788 82.5507 99.1099C82.5259 98.941 82.4681 98.7786 82.3806 98.632C81.2488 96.7967 79.918 95.0918 78.4124 93.5482C81.0984 92.7083 83.5264 91.1986 85.4678 89.1612C87.4092 87.1238 88.8 84.6258 89.5094 81.9024C90.882 76.5478 90.9709 70.9448 89.7687 65.5493C90.2622 65.7738 90.6619 65.9618 90.9409 66.0957C91.1032 66.1735 91.2268 66.234 91.3089 66.2744L91.4279 66.3336C91.5802 66.4106 91.7463 66.4569 91.9165 66.4697C92.0867 66.4826 92.2578 66.4618 92.42 66.4085C92.5822 66.3552 92.7323 66.2705 92.8618 66.1592C92.9913 66.048 93.0975 65.9123 93.1746 65.7599C93.1997 65.6924 93.2189 65.6228 93.2318 65.5519C93.3266 65.2623 93.3151 64.9484 93.1995 64.6664C93.0839 64.3845 92.8716 64.1529 92.6008 64.0132C92.5708 63.9982 89.6898 62.5425 85.3639 60.9102C80.2287 58.9114 74.8781 57.5178 69.4203 56.7578C69.239 56.7371 69.0554 56.7553 68.8816 56.8113C68.7079 56.8672 68.5481 56.9596 68.413 57.0822L68.3182 57.0647C65.2895 58.7063 62.645 60.974 60.5606 63.7167C58.4761 66.4595 56.9994 69.6146 56.2287 72.9723C55.6542 75.4944 55.5051 78.0949 55.7874 80.6662C54.9604 80.4574 54.1217 80.2635 53.2653 80.0947C53.0978 80.0617 52.9254 80.062 52.758 80.0956C52.5906 80.1292 52.4315 80.1955 52.2897 80.2906C52.148 80.3857 52.0263 80.5077 51.9317 80.6499C51.8371 80.792 51.7714 80.9513 51.7384 81.1188C51.7054 81.2863 51.7057 81.4587 51.7393 81.6261C51.7729 81.7935 51.8391 81.9526 51.9342 82.0944C52.0293 82.2362 52.1514 82.3578 52.2935 82.4524C52.4357 82.547 52.595 82.6127 52.7625 82.6457L52.7625 82.6457C52.9827 82.6891 53.1931 82.7464 53.4113 82.7927C59.4828 84.0773 65.2381 86.5567 70.3423 90.0866ZM77.9338 85.9893C73.6672 86.0665 70.3244 86.085 69.6096 83.98C68.8011 81.5974 72.1069 77.6059 76.8527 77.0013C76.5153 77.3692 76.2806 77.8195 76.1724 78.3069C76.0641 78.7942 76.0861 79.3015 76.2361 79.7776C76.3861 80.2538 76.6588 80.6821 77.0268 81.0194C77.3948 81.3568 77.8452 81.5913 78.3326 81.6993C78.82 81.8074 79.3272 81.7853 79.8033 81.6351C80.2794 81.485 80.7076 81.2122 81.0448 80.844C81.3821 80.4759 81.6164 80.0255 81.7243 79.5381C81.8323 79.0507 81.81 78.5434 81.6597 78.0673C83.8765 79.5366 85.2241 82.0783 85.071 83.6309C84.7995 86.3849 82.2009 85.9117 77.9338 85.9894V85.9893Z"/><path id="Vector_5" d="M131.971 56.1905L131.927 56.2516C131.711 56.0675 131.44 55.9603 131.157 55.9468C130.874 55.9332 130.594 56.0141 130.361 56.1768C130.36 56.1775 129.993 56.4388 129.37 56.8743C127.505 58.1792 123.36 61.0372 120.263 62.8913C118.288 64.1128 116.246 65.2239 114.148 66.2195C112.758 66.9343 111.238 67.3622 109.678 67.4777C109.049 67.5096 108.428 67.3232 107.92 66.9501C107.31 66.4161 106.873 65.7125 106.665 64.929C106.556 64.6019 106.321 64.3315 106.013 64.1774C105.704 64.0232 105.347 63.9978 105.02 64.1068C104.95 64.1387 104.883 64.1772 104.82 64.2216C104.553 64.3625 104.344 64.5931 104.23 64.8729C104.116 65.1528 104.105 65.4638 104.198 65.7512C104.567 67.0244 105.309 68.1579 106.328 69.0055C107.292 69.7307 108.473 70.1087 109.678 70.0778C110.299 70.0639 110.916 69.9878 111.52 69.8506C111.151 73.8927 111.472 77.9683 112.47 81.9026C115.573 94.0047 130.228 97.3001 138.537 92.5305C142.726 90.1257 148.157 84.2215 145.751 72.9724C143.989 64.7302 138.041 59.0703 131.971 56.1905ZM132.57 83.9803C131.856 86.0853 128.513 86.0667 124.246 85.9895C119.979 85.9119 117.38 86.385 117.109 83.6311C117.155 82.1192 117.761 80.6782 118.81 79.5883C118.882 80.0393 119.063 80.4659 119.336 80.8318C119.609 81.1977 119.967 81.492 120.379 81.6894C120.791 81.8867 121.244 81.9814 121.701 81.9652C122.157 81.949 122.603 81.8224 122.999 81.5964C123.396 81.3703 123.732 81.0514 123.979 80.6671C124.226 80.2827 124.375 79.8443 124.416 79.3894C124.456 78.9345 124.385 78.4767 124.21 78.055C124.034 77.6334 123.759 77.2606 123.408 76.9685C123.686 76.9334 123.966 76.9174 124.246 76.9207C129.56 76.9978 133.439 81.4202 132.57 83.9803V83.9803Z"/><path id="Vector_6" d="M93.7825 84.9107C92.9076 86.9972 96.3307 91.8232 99.5325 93.0656C99.5544 94.0005 99.5871 94.9184 99.6224 95.7366C98.0985 96.0356 96.6686 96.6957 95.4526 97.6616C94.4686 98.4835 93.679 99.5132 93.1406 100.677C92.6023 101.84 92.3286 103.109 92.3393 104.391C92.3306 104.736 92.4593 105.07 92.6969 105.319C92.9345 105.569 93.2617 105.714 93.6064 105.723C93.951 105.732 94.285 105.603 94.5349 105.365C94.7847 105.128 94.9299 104.801 94.9385 104.456V104.456C94.9166 103.548 95.0992 102.647 95.4727 101.82C95.8463 100.993 96.4012 100.26 97.0964 99.6761C98.5427 98.5833 100.32 98.0187 102.131 98.0763C104.09 98.0894 106.013 98.5989 107.721 99.5571C109.537 100.556 111.02 102.066 111.986 103.899C112.145 104.205 112.42 104.435 112.749 104.538C113.077 104.642 113.434 104.611 113.74 104.451C114.045 104.292 114.275 104.018 114.379 103.689C114.483 103.36 114.451 103.003 114.292 102.698C113.091 100.416 111.249 98.5353 108.992 97.2886C106.92 96.1271 104.589 95.5048 102.214 95.479C102.184 94.7647 102.156 93.9862 102.136 93.1912C105.354 92.3119 108.778 88.1468 108.6 85.2988C108.367 81.5748 95.1218 81.7169 93.7825 84.9107Z"/><path id="Vector_7" d="M68.8913 51.6437C69.2039 51.7892 69.5615 51.8046 69.8854 51.6864C70.2093 51.5683 70.473 51.3263 70.6185 51.0138C70.6278 50.9933 70.8537 50.5082 71.1018 49.8445L71.1138 49.8105C71.4058 49.0713 71.6078 48.2996 71.7154 47.5121C71.7424 47.1706 71.6365 46.8319 71.4198 46.5666C71.2031 46.3013 70.8924 46.1299 70.5524 46.0881C70.3825 46.071 70.211 46.0875 70.0475 46.1366C69.884 46.1858 69.7318 46.2667 69.5996 46.3747C69.4673 46.4827 69.3577 46.6157 69.2769 46.766C69.196 46.9164 69.1456 47.0813 69.1285 47.2511L69.1284 47.2511C69.1223 47.3218 69.1046 47.4121 69.0883 47.4999C68.9871 47.989 68.8458 48.469 68.666 48.935C68.5603 49.2182 68.4567 49.4691 68.3809 49.6461L68.2909 49.8514L68.2674 49.9033L68.2614 49.9165C68.1272 50.2305 68.1176 50.5839 68.2346 50.9047C68.3517 51.2255 68.5865 51.4898 68.8913 51.6437V51.6437Z"/><path id="Vector_8" d="M88.8834 42.9011C88.5481 42.6038 88.2803 42.2382 88.0981 41.8288C88.0026 41.5503 87.8142 41.3132 87.5645 41.1573C87.3148 41.0014 87.019 40.9363 86.7269 40.9728C86.6349 40.9738 86.5433 40.9851 86.4538 41.0064C86.3345 41.0526 86.2228 41.1167 86.1227 41.1964C85.8951 41.3536 85.7244 41.58 85.6359 41.8421C85.5474 42.1041 85.5458 42.3877 85.6315 42.6507H85.6314C85.9496 43.4809 86.4612 44.2233 87.1239 44.8161C87.4384 45.1174 87.7749 45.3948 88.1306 45.6461C88.4149 45.8411 88.765 45.9152 89.1038 45.8521C89.2716 45.8208 89.4316 45.7568 89.5747 45.6637C89.7177 45.5707 89.8411 45.4503 89.9376 45.3096C90.0342 45.1688 90.102 45.0104 90.1374 44.8434C90.1727 44.6765 90.1748 44.5042 90.1436 44.3364C90.1123 44.1686 90.0483 44.0086 89.9552 43.8655C89.8621 43.7225 89.7418 43.5991 89.601 43.5026L89.6014 43.5021C89.3478 43.3195 89.1078 43.1186 88.8834 42.9011Z"/><path id="Vector_9" d="M93.9387 38.9764C93.7033 38.865 93.4492 38.7274 93.1975 38.5787C92.8277 38.3677 92.4811 38.1185 92.1634 37.8351C91.9205 37.607 91.5989 37.4817 91.2657 37.4854C90.9325 37.4892 90.6138 37.6217 90.3761 37.8552C90.1385 38.0887 90.0004 38.4051 89.9908 38.7382C89.9812 39.0712 90.1008 39.3951 90.3246 39.6419C90.3476 39.6774 90.3724 39.7118 90.3989 39.7448C91.1439 40.4027 91.983 40.9458 92.8884 41.3559C93.3199 41.5611 93.7632 41.7408 94.2159 41.8939C94.5437 41.9989 94.8998 41.9696 95.2061 41.8124C95.5123 41.6551 95.7437 41.3829 95.8494 41.0553C95.9551 40.7277 95.9266 40.3715 95.7701 40.0649C95.6136 39.7583 95.3418 39.5264 95.0145 39.4199L95.0146 39.4196C94.6477 39.2929 94.2884 39.1449 93.9387 38.9764Z"/><path id="Vector_10" d="M152.755 124.549C149.255 125.924 150.63 135.674 156.255 134.174C161.88 132.674 157.208 122.799 152.755 124.549Z"/><path id="Vector_11" d="M147.238 121.217C146.746 117.489 136.952 116.473 137.053 122.294C137.153 128.115 147.862 125.96 147.238 121.217Z"/><path id="Vector_12" d="M147.216 109.468C145.196 109.002 143.141 108.704 141.071 108.578C140.761 108.562 140.455 108.659 140.21 108.851C139.965 109.043 139.799 109.317 139.741 109.623C139.721 109.68 139.706 109.738 139.695 109.797C139.684 109.968 139.708 110.138 139.763 110.3C139.819 110.461 139.906 110.61 140.019 110.738C140.132 110.866 140.269 110.97 140.423 111.045C140.576 111.119 140.743 111.163 140.913 111.174C141.587 111.215 142.261 111.283 142.934 111.363L144.188 113.166C144.286 113.306 144.41 113.425 144.554 113.518C144.697 113.61 144.858 113.673 145.026 113.703C145.194 113.733 145.366 113.73 145.533 113.693C145.7 113.657 145.858 113.588 145.998 113.491C146.234 113.324 146.406 113.082 146.487 112.804C146.568 112.527 146.553 112.23 146.444 111.962C146.506 111.976 146.569 111.987 146.631 112.001C146.967 112.079 147.32 112.02 147.612 111.837C147.904 111.654 148.112 111.363 148.19 111.027C148.197 110.964 148.198 110.9 148.195 110.837C148.224 110.529 148.141 110.221 147.961 109.97C147.781 109.718 147.517 109.54 147.216 109.468Z"/><path id="Vector_13" d="M134.866 108.714C132.805 108.929 130.766 109.312 128.768 109.859C128.471 109.943 128.214 110.131 128.044 110.389C127.875 110.647 127.804 110.957 127.844 111.263C127.843 111.328 127.848 111.392 127.857 111.456C127.948 111.789 128.168 112.071 128.467 112.242C128.767 112.413 129.122 112.458 129.454 112.367C131.316 111.857 133.216 111.5 135.136 111.3C135.478 111.264 135.793 111.094 136.01 110.826C136.227 110.558 136.329 110.215 136.294 109.872C136.28 109.812 136.261 109.753 136.238 109.695C136.167 109.394 135.988 109.128 135.736 108.948C135.484 108.767 135.175 108.684 134.866 108.714Z"/><path id="Vector_14" d="M114.513 118.939C114.493 118.919 114.467 118.911 114.446 118.892C114.207 118.665 113.891 118.538 113.562 118.537C113.233 118.536 112.916 118.66 112.675 118.885C111.167 120.306 109.778 121.848 108.52 123.494C108.312 123.767 108.221 124.11 108.265 124.449C108.309 124.789 108.485 125.097 108.756 125.307L108.764 125.317C109.038 125.526 109.384 125.618 109.725 125.572C110.067 125.526 110.377 125.347 110.586 125.073V125.073C111.758 123.538 113.053 122.101 114.458 120.777C114.709 120.54 114.856 120.214 114.866 119.869C114.877 119.525 114.749 119.19 114.513 118.939Z"/><path id="Vector_15" d="M124.555 112.473C124.391 112.208 124.137 112.012 123.839 111.921C123.541 111.829 123.221 111.849 122.937 111.977C121.053 112.84 119.243 113.855 117.524 115.011C117.257 115.194 117.068 115.47 116.994 115.785C116.921 116.1 116.969 116.431 117.129 116.712C117.147 116.746 117.15 116.783 117.172 116.816C117.364 117.102 117.662 117.3 118.001 117.366C118.339 117.432 118.69 117.361 118.976 117.168C120.578 116.09 122.264 115.145 124.02 114.341C124.333 114.197 124.577 113.935 124.697 113.612C124.817 113.288 124.804 112.931 124.66 112.617C124.629 112.567 124.594 112.518 124.555 112.473Z"/><path id="Vector_16" d="M134.695 184.423C135.859 184.532 137.023 184.586 138.187 184.586C139.094 184.586 139.999 184.553 140.902 184.488C141.218 184.463 141.515 184.322 141.733 184.091C141.952 183.861 142.078 183.558 142.087 183.241C142.096 183.193 142.102 183.146 142.105 183.098C142.08 182.754 141.92 182.434 141.659 182.208C141.398 181.983 141.059 181.87 140.715 181.894C139.875 181.955 139.032 181.985 138.187 181.985C137.105 181.985 136.021 181.935 134.937 181.834C134.593 181.802 134.251 181.908 133.986 182.128C133.721 182.348 133.553 182.664 133.521 183.008L133.522 183.017C133.493 183.359 133.599 183.698 133.819 183.962C134.039 184.225 134.354 184.391 134.695 184.423Z"/><path id="Vector_17" d="M167.927 122.393C166.621 120.782 165.182 119.284 163.627 117.912C163.393 117.71 163.094 117.598 162.785 117.598C162.476 117.598 162.177 117.71 161.943 117.913C161.89 117.947 161.839 117.986 161.792 118.028C161.564 118.286 161.448 118.625 161.469 118.969C161.491 119.313 161.648 119.635 161.907 119.863V119.863C163.354 121.138 164.692 122.533 165.908 124.031C166.125 124.299 166.44 124.469 166.783 124.505C167.125 124.541 167.469 124.439 167.736 124.222C167.784 124.173 167.827 124.121 167.865 124.065C168.074 123.84 168.195 123.547 168.206 123.24C168.217 122.934 168.118 122.633 167.927 122.393Z"/><path id="Vector_18" d="M103.644 152.361C103.595 152.068 103.446 151.802 103.222 151.607C102.998 151.411 102.713 151.3 102.416 151.292C102.33 151.279 102.243 151.276 102.157 151.281C101.988 151.308 101.826 151.368 101.681 151.457C101.535 151.546 101.409 151.663 101.309 151.801C101.208 151.94 101.136 152.096 101.096 152.262C101.057 152.428 101.05 152.6 101.077 152.769C101.401 154.815 101.892 156.831 102.543 158.797C102.652 159.124 102.886 159.395 103.194 159.55C103.502 159.704 103.859 159.73 104.186 159.622C104.275 159.584 104.359 159.536 104.437 159.478C104.689 159.331 104.884 159.102 104.988 158.83C105.092 158.557 105.1 158.257 105.011 157.979C104.404 156.147 103.947 154.268 103.644 152.361Z"/><path id="Vector_19" d="M117.312 178.232C117.599 178.423 117.95 178.493 118.288 178.426C118.626 178.359 118.924 178.16 119.115 177.873C119.144 177.816 119.169 177.756 119.189 177.694C119.324 177.417 119.355 177.1 119.275 176.802C119.196 176.504 119.012 176.244 118.757 176.07H118.757C118.138 175.657 117.553 175.211 116.969 174.764C116.912 174.457 116.825 173.964 116.745 173.416C116.638 172.757 116.575 172.091 116.555 171.424C116.555 171.079 116.418 170.748 116.174 170.504C115.93 170.261 115.6 170.124 115.255 170.124C114.91 170.124 114.579 170.261 114.336 170.504C114.092 170.748 113.955 171.079 113.955 171.424C113.956 171.711 113.975 172.018 114.001 172.327C113.792 172.2 113.551 172.136 113.307 172.143C113.062 172.15 112.825 172.228 112.624 172.367C112.542 172.412 112.466 172.466 112.396 172.528C112.279 172.652 112.188 172.798 112.127 172.958C112.067 173.118 112.038 173.288 112.044 173.458C112.049 173.629 112.087 173.797 112.158 173.953C112.228 174.108 112.328 174.249 112.452 174.366C113.962 175.786 115.588 177.08 117.312 178.232Z"/><path id="Vector_20" d="M108.3 169.748C108.508 170.022 108.817 170.203 109.159 170.25C109.5 170.297 109.846 170.206 110.121 169.998C110.195 169.931 110.261 169.857 110.317 169.775C110.506 169.554 110.615 169.275 110.624 168.985C110.634 168.694 110.545 168.409 110.371 168.176C109.205 166.639 108.168 165.008 107.271 163.299C107.134 163.043 106.914 162.842 106.647 162.727C106.379 162.613 106.081 162.592 105.801 162.67C105.703 162.686 105.607 162.714 105.516 162.753C105.365 162.832 105.231 162.941 105.121 163.072C105.012 163.203 104.93 163.355 104.879 163.518C104.828 163.681 104.81 163.852 104.826 164.022C104.841 164.192 104.89 164.357 104.969 164.509C105.933 166.344 107.047 168.096 108.3 169.748Z"/><path id="Vector_21" d="M122.735 181.248C124.623 182.104 126.579 182.802 128.582 183.334C128.915 183.423 129.27 183.375 129.568 183.202C129.867 183.029 130.084 182.745 130.172 182.411C130.176 182.398 130.172 182.384 130.175 182.37C130.252 182.043 130.199 181.697 130.026 181.408C129.853 181.119 129.575 180.909 129.249 180.821C127.385 180.326 125.565 179.677 123.809 178.88C123.52 178.751 123.193 178.733 122.892 178.83C122.591 178.927 122.336 179.131 122.176 179.404C122.144 179.443 122.115 179.484 122.088 179.527C121.945 179.841 121.934 180.198 122.055 180.521C122.176 180.844 122.421 181.105 122.735 181.248Z"/><path id="Vector_22" d="M173.261 134.822C173.343 134.783 173.422 134.735 173.494 134.679C173.745 134.525 173.936 134.29 174.034 134.012C174.133 133.734 174.132 133.431 174.033 133.154C173.319 131.209 172.447 129.325 171.425 127.522C171.273 127.26 171.033 127.059 170.747 126.957C170.461 126.855 170.148 126.857 169.864 126.964C169.791 126.98 169.721 127.003 169.653 127.033C169.504 127.117 169.374 127.23 169.269 127.364C169.164 127.499 169.087 127.653 169.041 127.817C168.996 127.982 168.983 128.154 169.004 128.323C169.025 128.493 169.079 128.656 169.163 128.805C170.115 130.484 170.927 132.238 171.592 134.05C171.651 134.21 171.741 134.357 171.856 134.483C171.972 134.608 172.111 134.71 172.266 134.782C172.421 134.853 172.589 134.894 172.759 134.901C172.93 134.908 173.1 134.881 173.261 134.822Z"/><path id="Vector_23" d="M158.425 122.304C158.327 122.635 158.364 122.991 158.529 123.294C158.693 123.597 158.971 123.822 159.302 123.92L161.552 124.587C161.882 124.684 162.238 124.647 162.541 124.483C162.844 124.318 163.07 124.04 163.168 123.709C163.266 123.379 163.228 123.023 163.064 122.72C162.899 122.417 162.621 122.191 162.29 122.094L160.04 121.427C159.71 121.329 159.354 121.367 159.051 121.531C158.748 121.696 158.523 121.974 158.425 122.304Z"/><path id="Vector_24" d="M167.416 134.518C167.551 134.414 167.664 134.284 167.749 134.136C167.834 133.987 167.889 133.824 167.91 133.655C167.932 133.485 167.92 133.313 167.875 133.149C167.83 132.984 167.754 132.83 167.649 132.695L165.999 130.561C165.895 130.426 165.765 130.312 165.617 130.226C165.469 130.141 165.305 130.086 165.135 130.064C164.965 130.042 164.793 130.053 164.628 130.098C164.463 130.143 164.308 130.22 164.173 130.324C164.037 130.429 163.924 130.559 163.839 130.708C163.754 130.857 163.7 131.021 163.678 131.19C163.657 131.36 163.669 131.533 163.715 131.698C163.76 131.863 163.837 132.017 163.943 132.152L165.593 134.285C165.803 134.558 166.114 134.736 166.456 134.779C166.798 134.823 167.143 134.729 167.416 134.518Z"/><path id="Vector_25" d="M162.182 138.485C162.015 138.521 161.857 138.59 161.716 138.686C161.576 138.783 161.456 138.907 161.363 139.05C161.27 139.194 161.206 139.354 161.176 139.522C161.145 139.69 161.147 139.862 161.183 140.029L161.883 143.296C161.919 143.463 161.987 143.621 162.084 143.761C162.181 143.902 162.305 144.022 162.448 144.115C162.592 144.207 162.752 144.271 162.92 144.302C163.088 144.333 163.26 144.33 163.427 144.294C163.594 144.259 163.752 144.19 163.893 144.093C164.033 143.996 164.153 143.873 164.246 143.729C164.339 143.586 164.402 143.426 164.433 143.258C164.464 143.09 164.461 142.918 164.426 142.751L163.725 139.484C163.653 139.147 163.45 138.852 163.16 138.665C162.871 138.478 162.519 138.413 162.182 138.485Z"/><path id="Vector_26" d="M149.712 159.095C149.381 158.996 149.025 159.032 148.722 159.195C148.418 159.359 148.192 159.636 148.093 159.966L147.093 163.3C147.044 163.464 147.027 163.635 147.045 163.805C147.062 163.975 147.113 164.14 147.193 164.29C147.274 164.44 147.384 164.573 147.516 164.681C147.649 164.789 147.801 164.87 147.965 164.919C148.128 164.968 148.3 164.984 148.469 164.967C148.639 164.95 148.804 164.899 148.954 164.818C149.105 164.737 149.238 164.627 149.346 164.495C149.453 164.363 149.534 164.211 149.583 164.047L150.583 160.714C150.632 160.55 150.649 160.379 150.631 160.209C150.614 160.039 150.564 159.874 150.483 159.724C150.402 159.573 150.292 159.44 150.16 159.333C150.027 159.225 149.875 159.144 149.712 159.095Z"/><path id="Vector_27" d="M152.556 141.957L151.889 145.907C151.86 146.076 151.864 146.249 151.902 146.416C151.94 146.583 152.01 146.74 152.109 146.88C152.208 147.02 152.334 147.139 152.478 147.23C152.623 147.321 152.785 147.382 152.954 147.411C153.123 147.439 153.295 147.434 153.462 147.396C153.629 147.357 153.787 147.286 153.926 147.187C154.065 147.087 154.183 146.961 154.274 146.816C154.364 146.671 154.425 146.509 154.453 146.34L155.119 142.39C155.149 142.221 155.144 142.049 155.107 141.882C155.069 141.715 154.998 141.557 154.9 141.417C154.801 141.277 154.675 141.158 154.53 141.067C154.385 140.976 154.224 140.915 154.055 140.886C153.886 140.858 153.713 140.863 153.546 140.901C153.38 140.94 153.222 141.011 153.083 141.11C152.943 141.21 152.825 141.336 152.735 141.481C152.644 141.627 152.583 141.788 152.556 141.957Z"/><path id="Vector_28" d="M137.741 168.951C137.66 169.287 137.716 169.64 137.896 169.934C138.076 170.229 138.365 170.439 138.7 170.52C139.035 170.601 139.389 170.545 139.683 170.366C139.977 170.186 140.188 169.896 140.269 169.561C140.269 169.56 140.413 168.963 140.652 168.009C140.89 167.055 141.222 165.748 141.595 164.339C141.682 164.006 141.633 163.652 141.46 163.355C141.286 163.058 141.002 162.842 140.67 162.754C140.337 162.666 139.983 162.713 139.685 162.886C139.388 163.058 139.17 163.341 139.081 163.674V163.674C138.327 166.522 137.743 168.946 137.741 168.951Z"/><path id="Vector_29" d="M143.207 153.416C143.37 153.466 143.542 153.484 143.712 153.467C143.882 153.451 144.047 153.402 144.198 153.322C144.348 153.242 144.482 153.133 144.591 153.001C144.699 152.869 144.781 152.718 144.831 152.554L146.414 147.387C146.466 147.224 146.484 147.052 146.469 146.881C146.453 146.71 146.404 146.544 146.324 146.392C146.244 146.241 146.135 146.106 146.003 145.997C145.871 145.888 145.719 145.806 145.555 145.755C145.391 145.705 145.219 145.688 145.048 145.704C144.878 145.721 144.712 145.771 144.561 145.852C144.41 145.933 144.276 146.043 144.167 146.176C144.059 146.308 143.978 146.461 143.929 146.626L142.345 151.793C142.244 152.122 142.278 152.478 142.44 152.783C142.601 153.087 142.878 153.315 143.207 153.416Z"/><path id="Vector_30" d="M148.537 131.738C148.371 131.7 148.198 131.697 148.03 131.726C147.862 131.756 147.701 131.818 147.557 131.91C147.413 132.001 147.289 132.12 147.191 132.26C147.093 132.4 147.023 132.558 146.986 132.724L146.319 135.724C146.282 135.891 146.278 136.063 146.308 136.232C146.337 136.4 146.4 136.56 146.491 136.704C146.583 136.848 146.702 136.973 146.842 137.071C146.982 137.169 147.139 137.239 147.306 137.276C147.473 137.313 147.645 137.317 147.813 137.287C147.981 137.257 148.142 137.195 148.286 137.103C148.43 137.012 148.555 136.893 148.653 136.753C148.751 136.613 148.82 136.455 148.857 136.289L149.524 133.289C149.599 132.952 149.537 132.6 149.352 132.309C149.167 132.018 148.874 131.812 148.537 131.738Z"/><path id="Vector_31" d="M140.438 136.88C140.281 136.813 140.113 136.776 139.942 136.774C139.771 136.771 139.602 136.802 139.443 136.865C139.284 136.928 139.14 137.021 139.017 137.14C138.894 137.259 138.796 137.4 138.729 137.557L137.062 141.407C136.925 141.724 136.919 142.081 137.046 142.402C137.173 142.723 137.422 142.98 137.739 143.117C138.055 143.254 138.413 143.259 138.734 143.132C139.054 143.005 139.311 142.756 139.448 142.44L141.115 138.59C141.252 138.273 141.257 137.916 141.13 137.595C141.003 137.274 140.754 137.017 140.438 136.88Z"/><path id="Vector_32" d="M135.202 133.196C135.473 133.409 135.818 133.506 136.16 133.464C136.503 133.423 136.815 133.248 137.028 132.977C137.028 132.976 137.082 132.907 137.181 132.783C137.477 132.41 138.159 131.557 138.83 130.764C138.942 130.633 139.026 130.482 139.078 130.32C139.131 130.157 139.151 129.985 139.137 129.815C139.123 129.644 139.076 129.478 138.997 129.326C138.919 129.174 138.812 129.038 138.681 128.928C138.55 128.817 138.399 128.734 138.236 128.682C138.073 128.63 137.901 128.61 137.731 128.625C137.56 128.639 137.395 128.687 137.243 128.766C137.091 128.845 136.956 128.953 136.846 129.084L136.846 129.084C135.909 130.191 134.988 131.364 134.983 131.371C134.877 131.505 134.799 131.659 134.753 131.823C134.707 131.988 134.694 132.159 134.714 132.329C134.735 132.498 134.788 132.662 134.872 132.811C134.956 132.96 135.068 133.091 135.202 133.196Z"/><path id="Vector_33" d="M131.344 139.282C131.205 139.183 131.048 139.112 130.881 139.074C130.715 139.035 130.543 139.03 130.374 139.058C130.206 139.086 130.045 139.147 129.9 139.237C129.755 139.328 129.629 139.446 129.53 139.584L129.53 139.584C128.864 140.549 128.26 141.555 127.72 142.596C127.237 143.509 126.917 144.192 126.911 144.205C126.765 144.517 126.748 144.874 126.866 145.199C126.983 145.523 127.224 145.787 127.536 145.934C127.848 146.08 128.206 146.096 128.53 145.979C128.854 145.862 129.119 145.621 129.265 145.308L129.316 145.201C129.438 144.947 129.767 144.272 130.195 143.482C130.632 142.659 131.116 141.862 131.646 141.096C131.846 140.815 131.927 140.466 131.87 140.126C131.814 139.786 131.624 139.483 131.344 139.282Z"/><path id="Vector_34" d="M132.546 162.44C132.712 162.479 132.884 162.484 133.053 162.456C133.221 162.427 133.382 162.366 133.527 162.276C133.672 162.185 133.797 162.067 133.897 161.928C133.996 161.789 134.066 161.632 134.105 161.466C134.105 161.465 134.15 161.272 134.229 160.948C134.347 160.462 134.542 159.691 134.765 158.897C134.987 158.106 135.244 157.282 135.462 156.739C135.526 156.581 135.558 156.411 135.557 156.24C135.555 156.069 135.52 155.9 135.453 155.742C135.386 155.585 135.288 155.442 135.166 155.323C135.043 155.203 134.899 155.109 134.74 155.045C134.581 154.982 134.411 154.95 134.24 154.952C134.069 154.954 133.9 154.99 133.743 155.058C133.586 155.126 133.443 155.224 133.324 155.347C133.205 155.469 133.111 155.614 133.048 155.774V155.773C132.654 156.832 132.317 157.911 132.04 159.007C131.764 160.049 131.573 160.872 131.571 160.881C131.494 161.217 131.553 161.57 131.736 161.862C131.918 162.155 132.21 162.363 132.546 162.44Z"/><path id="Vector_35" d="M131.222 175.84C131.222 175.84 131.222 175.759 131.224 175.61C131.232 174.889 131.281 174.169 131.373 173.454C131.4 173.285 131.393 173.112 131.353 172.946C131.312 172.78 131.24 172.623 131.139 172.485C131.038 172.347 130.911 172.23 130.764 172.141C130.618 172.052 130.456 171.993 130.287 171.967C130.118 171.941 129.945 171.949 129.779 171.99C129.613 172.031 129.456 172.104 129.318 172.205C129.181 172.307 129.064 172.434 128.976 172.581C128.888 172.727 128.829 172.89 128.804 173.059V173.059C128.718 173.67 128.665 174.285 128.644 174.902C128.622 175.438 128.622 175.828 128.622 175.84C128.622 176.185 128.759 176.515 129.003 176.759C129.247 177.003 129.577 177.14 129.922 177.14C130.267 177.14 130.598 177.003 130.841 176.759C131.085 176.515 131.222 176.185 131.222 175.84H131.222Z"/><path id="Vector_36" d="M122.222 174.139C122.566 174.126 122.892 173.976 123.126 173.723C123.36 173.47 123.484 173.135 123.471 172.79C123.471 172.79 123.387 170.623 123.304 168.538C123.298 168.367 123.259 168.199 123.188 168.043C123.116 167.887 123.015 167.747 122.89 167.63C122.764 167.514 122.617 167.423 122.456 167.364C122.295 167.304 122.124 167.277 121.953 167.284C121.782 167.291 121.614 167.332 121.459 167.404C121.303 167.476 121.163 167.578 121.048 167.704C120.932 167.83 120.842 167.978 120.783 168.139C120.725 168.3 120.699 168.471 120.706 168.642C120.789 170.724 120.873 172.886 120.873 172.89C120.879 173.061 120.92 173.229 120.991 173.384C121.062 173.539 121.163 173.678 121.289 173.794C121.414 173.91 121.561 174 121.721 174.06C121.881 174.119 122.051 174.146 122.222 174.139Z"/><path id="Vector_37" d="M122.773 160.035C123.112 160.097 123.462 160.022 123.745 159.825C124.029 159.629 124.222 159.328 124.284 158.989L124.305 158.88C124.354 158.621 124.493 157.927 124.696 157.114C124.895 156.282 125.15 155.464 125.458 154.666C125.525 154.507 125.559 154.337 125.559 154.166C125.559 153.994 125.526 153.824 125.46 153.666C125.394 153.507 125.298 153.363 125.176 153.242C125.055 153.121 124.91 153.026 124.751 152.961C124.593 152.896 124.422 152.863 124.251 152.864C124.079 152.865 123.91 152.9 123.752 152.967C123.594 153.034 123.45 153.132 123.33 153.254C123.21 153.377 123.116 153.522 123.052 153.681L123.052 153.681C122.653 154.713 122.33 155.772 122.084 156.85C121.858 157.801 121.729 158.508 121.726 158.524C121.696 158.692 121.698 158.864 121.734 159.031C121.77 159.198 121.839 159.356 121.936 159.496C122.033 159.637 122.157 159.757 122.301 159.849C122.444 159.942 122.605 160.005 122.773 160.035Z"/><path id="Vector_38" d="M112.784 162.128C112.954 162.15 113.126 162.138 113.29 162.093C113.455 162.049 113.609 161.972 113.745 161.868C113.88 161.763 113.993 161.633 114.078 161.485C114.163 161.337 114.218 161.174 114.24 161.005C114.24 161.004 114.268 160.785 114.317 160.433C114.39 159.904 114.51 159.082 114.644 158.299C114.71 157.908 114.781 157.526 114.85 157.202C114.917 156.88 114.987 156.607 115.03 156.479C115.085 156.317 115.106 156.145 115.095 155.975C115.083 155.804 115.037 155.637 114.961 155.484C114.884 155.331 114.778 155.195 114.649 155.083C114.52 154.97 114.369 154.885 114.207 154.831C114.044 154.777 113.873 154.756 113.702 154.769C113.532 154.781 113.365 154.827 113.212 154.904C113.059 154.981 112.923 155.088 112.812 155.218C112.7 155.348 112.615 155.498 112.562 155.661L112.562 155.661C112.423 156.116 112.312 156.58 112.228 157.049C111.925 158.615 111.663 160.659 111.661 160.672C111.617 161.014 111.711 161.36 111.921 161.633C112.132 161.906 112.442 162.084 112.784 162.128Z"/><path id="Vector_39" d="M120.947 141.031C121.171 140.77 121.282 140.432 121.257 140.09C121.232 139.748 121.073 139.429 120.814 139.204C120.555 138.979 120.217 138.865 119.875 138.888C119.532 138.91 119.213 139.067 118.986 139.325V139.325C118.242 140.246 117.619 141.258 117.131 142.336C116.679 143.282 116.402 144.021 116.393 144.045C116.271 144.367 116.283 144.725 116.426 145.039C116.568 145.353 116.83 145.597 117.153 145.719C117.475 145.84 117.833 145.828 118.147 145.685C118.461 145.543 118.705 145.281 118.827 144.959L118.835 144.935C118.887 144.8 119.159 144.105 119.554 143.297C119.927 142.489 120.395 141.728 120.947 141.031Z"/><path id="Vector_40" d="M131.869 122.211L129.286 123.211C129.126 123.273 128.981 123.365 128.857 123.483C128.733 123.6 128.634 123.742 128.564 123.898C128.495 124.054 128.458 124.223 128.453 124.393C128.449 124.564 128.479 124.734 128.541 124.894C128.603 125.053 128.695 125.199 128.813 125.322C128.931 125.446 129.072 125.545 129.229 125.614C129.385 125.683 129.554 125.72 129.725 125.724C129.895 125.728 130.065 125.698 130.225 125.636L132.808 124.636C132.967 124.574 133.113 124.482 133.237 124.364C133.361 124.246 133.46 124.105 133.529 123.949C133.598 123.793 133.636 123.624 133.64 123.453C133.644 123.283 133.615 123.113 133.553 122.953C133.491 122.794 133.399 122.648 133.281 122.525C133.162 122.401 133.021 122.302 132.865 122.233C132.708 122.164 132.54 122.127 132.369 122.123C132.198 122.119 132.028 122.149 131.869 122.211Z"/><path id="Vector_41" d="M114.752 134.426C114.996 134.67 115.326 134.807 115.671 134.807C116.016 134.807 116.347 134.67 116.59 134.426V134.426C117.433 133.595 118.341 132.833 119.304 132.146C119.69 131.869 120.017 131.652 120.243 131.506C120.356 131.433 120.445 131.377 120.503 131.341L120.568 131.302L120.584 131.292C120.877 131.115 121.089 130.829 121.172 130.496C121.256 130.164 121.205 129.812 121.03 129.517C120.855 129.222 120.571 129.008 120.239 128.921C119.907 128.835 119.555 128.883 119.259 129.055C117.629 130.06 116.117 131.245 114.752 132.588C114.631 132.708 114.535 132.852 114.47 133.009C114.405 133.167 114.371 133.336 114.371 133.507C114.371 133.678 114.405 133.847 114.47 134.004C114.535 134.162 114.631 134.305 114.752 134.426Z"/><path id="Vector_42" d="M106.565 146.289C106.88 146.43 107.238 146.44 107.56 146.317C107.882 146.194 108.142 145.949 108.283 145.634C108.683 144.715 109.169 143.836 109.733 143.008C109.832 142.869 109.904 142.711 109.943 142.544C109.981 142.377 109.987 142.204 109.958 142.035C109.93 141.866 109.868 141.704 109.777 141.559C109.686 141.414 109.567 141.288 109.427 141.189C109.288 141.09 109.13 141.02 108.962 140.982C108.795 140.944 108.622 140.94 108.453 140.969C108.284 140.999 108.123 141.061 107.978 141.153C107.834 141.245 107.709 141.365 107.611 141.506L107.611 141.505C106.949 142.471 106.379 143.498 105.911 144.571C105.77 144.885 105.759 145.243 105.882 145.565C106.005 145.887 106.251 146.148 106.565 146.289Z"/><path id="Vector_43" d="M121.04 123.79L121.164 123.742L121.191 123.731L121.193 123.731C121.515 123.613 121.779 123.373 121.925 123.062C122.071 122.751 122.088 122.395 121.972 122.072C121.857 121.748 121.618 121.484 121.308 121.336C120.998 121.188 120.642 121.169 120.318 121.282C119.368 121.644 118.463 122.111 117.617 122.675C117.33 122.866 117.131 123.163 117.063 123.501C116.996 123.839 117.065 124.19 117.256 124.477C117.447 124.764 117.745 124.964 118.083 125.031C118.421 125.099 118.772 125.03 119.059 124.838L119.059 124.838C119.539 124.521 120.042 124.24 120.564 123.998C120.765 123.904 120.93 123.835 121.04 123.79Z"/><path id="Vector_44" d="M125.638 115.518C125.301 115.591 125.007 115.794 124.82 116.084C124.633 116.374 124.569 116.726 124.642 117.063C124.714 117.4 124.918 117.694 125.207 117.881C125.497 118.068 125.849 118.132 126.186 118.06L126.186 118.06C126.665 117.969 127.148 117.905 127.634 117.868C127.878 117.846 128.097 117.831 128.253 117.821C128.409 117.81 128.497 117.806 128.497 117.806C128.84 117.786 129.16 117.631 129.389 117.376C129.618 117.12 129.737 116.785 129.72 116.442C129.702 116.099 129.55 115.777 129.296 115.546C129.042 115.315 128.707 115.194 128.365 115.209C128.354 115.21 127.944 115.231 127.406 115.278C126.812 115.324 126.222 115.404 125.638 115.518Z"/><path id="Vector_45" d="M138.577 116.616C138.872 116.796 139.225 116.851 139.56 116.77C139.726 116.73 139.883 116.658 140.021 116.557C140.159 116.457 140.275 116.33 140.364 116.184C140.453 116.039 140.513 115.877 140.539 115.708C140.566 115.54 140.559 115.367 140.519 115.201C140.479 115.035 140.406 114.879 140.306 114.741C140.205 114.603 140.079 114.486 139.933 114.397L138.433 113.481C138.139 113.301 137.785 113.245 137.45 113.326C137.115 113.407 136.826 113.618 136.646 113.912C136.466 114.206 136.41 114.56 136.491 114.895C136.572 115.23 136.783 115.52 137.077 115.699L138.577 116.616Z"/><path id="Vector_46" d="M149.25 177.692V177.692L149.206 177.782C149.103 177.993 148.825 178.55 148.491 179.158C148.203 179.698 147.881 180.22 147.529 180.721C147.163 180.821 146.796 180.921 146.427 181.009C146.261 181.049 146.104 181.121 145.966 181.221C145.828 181.322 145.711 181.448 145.621 181.594C145.532 181.739 145.472 181.901 145.446 182.07C145.419 182.238 145.426 182.411 145.466 182.577C145.489 182.639 145.517 182.699 145.549 182.757C145.662 183.043 145.874 183.28 146.146 183.423C146.418 183.566 146.733 183.607 147.033 183.538C149.047 183.055 151.019 182.408 152.928 181.606C153.194 181.492 153.413 181.291 153.55 181.036C153.688 180.781 153.734 180.488 153.684 180.203C153.676 180.101 153.656 180.001 153.623 179.904C153.557 179.746 153.461 179.604 153.339 179.483C153.218 179.363 153.074 179.268 152.916 179.204C152.758 179.139 152.589 179.107 152.418 179.107C152.247 179.108 152.079 179.143 151.921 179.209V179.209C151.705 179.3 151.486 179.381 151.269 179.468C151.461 179.092 151.589 178.828 151.593 178.821C151.667 178.667 151.711 178.5 151.721 178.329C151.731 178.158 151.707 177.987 151.651 177.826C151.595 177.664 151.507 177.515 151.393 177.388C151.279 177.26 151.141 177.156 150.987 177.082C150.833 177.008 150.666 176.965 150.495 176.955C150.324 176.946 150.153 176.97 149.992 177.027C149.831 177.083 149.682 177.171 149.555 177.286C149.428 177.4 149.324 177.538 149.25 177.692V177.692Z"/><path id="Vector_47" d="M143.095 178.108C143.41 178.25 143.767 178.261 144.09 178.139C144.412 178.017 144.673 177.772 144.815 177.458L145.515 175.908C145.586 175.752 145.626 175.584 145.632 175.413C145.638 175.242 145.61 175.071 145.549 174.911C145.489 174.75 145.398 174.603 145.281 174.478C145.164 174.354 145.023 174.253 144.867 174.183C144.711 174.112 144.543 174.073 144.371 174.068C144.2 174.063 144.03 174.092 143.87 174.152C143.71 174.213 143.563 174.305 143.439 174.423C143.315 174.541 143.215 174.682 143.145 174.838L142.445 176.389C142.303 176.703 142.292 177.061 142.414 177.383C142.536 177.706 142.781 177.966 143.095 178.108Z"/><path id="Vector_48" d="M183.198 147.424C182.151 145.897 181.361 144.209 180.862 142.426C180.355 140.726 179.473 139.162 178.28 137.85C177.749 137.278 177.126 136.799 176.438 136.432C175.768 136.074 175.021 135.883 174.261 135.874C174.135 135.874 174.009 135.886 173.883 135.898C173.297 135.951 172.729 136.126 172.215 136.413C171.544 136.8 170.963 137.325 170.509 137.952C169.658 139.079 169.204 140.456 169.219 141.869C169.29 143.413 169.635 144.932 170.24 146.354C170.48 146.995 170.709 147.577 170.866 148.063C170.993 148.406 171.07 148.766 171.096 149.132C171.098 149.18 171.093 149.228 171.081 149.274C171.034 149.314 170.98 149.345 170.921 149.364C170.689 149.45 170.448 149.505 170.202 149.528C167.5 149.827 164.83 150.362 162.222 151.126C162.22 151.086 162.221 151.044 162.219 151.004C162.208 150.833 162.163 150.666 162.088 150.513C162.013 150.359 161.908 150.222 161.779 150.109C161.65 149.996 161.501 149.91 161.339 149.855C161.177 149.8 161.005 149.777 160.835 149.789C160.664 149.8 160.497 149.845 160.344 149.921C160.191 149.997 160.054 150.102 159.941 150.231C159.829 150.36 159.743 150.51 159.689 150.672C159.634 150.835 159.612 151.006 159.624 151.177C159.628 151.233 159.631 151.32 159.631 151.425C159.631 151.604 159.622 151.834 159.609 152.086C159.048 152.326 158.5 152.594 157.967 152.89C156.633 153.603 155.477 154.606 154.584 155.825C153.784 156.962 153.357 158.32 153.362 159.71L153.363 159.727C153.419 160.169 153.615 160.581 153.924 160.902C154.406 161.375 154.987 161.736 155.625 161.958C157.612 162.613 159.699 162.913 161.789 162.845C164.779 162.834 167.756 162.472 170.662 161.767L170.662 161.767C170.995 161.684 171.348 161.736 171.644 161.912C171.939 162.088 172.153 162.374 172.238 162.707C172.323 163.041 172.272 163.394 172.097 163.69C171.922 163.986 171.636 164.201 171.303 164.287C170.458 164.502 169.515 164.695 168.52 164.862C166.296 165.239 164.045 165.434 161.789 165.445C160.245 165.455 158.703 165.326 157.182 165.058C156.881 165.003 156.578 164.95 156.289 164.88C155.659 164.723 155.042 164.518 154.444 164.265C154.375 164.341 154.297 164.408 154.212 164.465L154.211 164.466L154.17 164.491L153.982 164.613C153.748 164.774 153.525 164.948 153.312 165.134C153.163 165.265 153.006 165.418 152.849 165.582C152.453 166.052 152.099 166.554 151.79 167.084C151.785 167.094 151.779 167.102 151.775 167.111L151.765 167.131C151.483 167.724 151.337 168.372 151.337 169.028C151.337 169.253 151.354 169.479 151.386 169.702C151.47 170.302 151.73 170.864 152.133 171.316C152.664 171.892 153.312 172.347 154.033 172.652C154.553 172.884 155.09 173.074 155.64 173.221C155.958 173.308 156.296 173.386 156.649 173.458C157.981 173.717 159.334 173.86 160.691 173.887C160.997 173.895 161.305 173.903 161.625 173.903C162.32 173.903 163.047 173.882 163.802 173.84C166.38 173.684 168.944 173.358 171.479 172.865L171.479 172.865C171.813 172.801 172.159 172.87 172.443 173.059C172.726 173.248 172.923 173.541 172.993 173.874C173.062 174.208 172.997 174.555 172.812 174.841C172.627 175.127 172.337 175.328 172.005 175.402C171.989 175.406 171.978 175.417 171.962 175.42C168.557 176.098 165.096 176.461 161.625 176.503C159.548 176.522 157.475 176.32 155.441 175.902C155.328 176.448 155.269 177.004 155.263 177.562C155.261 178.157 155.345 178.749 155.514 179.319C155.69 179.936 155.977 180.516 156.362 181.029C156.908 181.734 157.598 182.315 158.385 182.734C159.679 183.399 161.074 183.843 162.515 184.047C164.2 184.307 165.901 184.447 167.607 184.465C167.936 184.472 168.266 184.476 168.595 184.476C174.624 184.472 180.473 183.278 184.901 179.762C187.228 177.897 189.041 175.468 190.169 172.707C191.522 169.263 192.174 165.584 192.088 161.885C192.18 159.064 191.376 156.286 189.791 153.95C188.591 152.366 187.169 150.964 185.569 149.786C184.674 149.111 183.876 148.316 183.198 147.424Z"/></g></g></svg>