<svg xmlns="http://www.w3.org/2000/svg" width="200" height="200" fill="none"><g fill="#BEBEC9" clip-path="url(#a)"><path d="M136.871 57.29c-.62 0-1.17-.45-1.28-1.08-3.01-17.61-5.27-27.78-6.15-30.38-1.84.88-6.49 5.36-9.38 8.14-5.99 5.76-7.67 7.21-9.07 7.08-3.83-.34-10.88-.14-16.54.01-8.62.24-8.92.19-9.51-.38-5.37-5.26-12.15-11.58-16.31-14.8-2.53 9.1-4.92 17.8-6.94 29.18-.13.71-.8 1.18-1.51 1.05a1.29 1.29 0 0 1-1.05-1.51c2.1-11.83 4.58-20.76 7.22-30.21l.29-1.03c.11-.4.41-.73.81-.87.4-.14.83-.09 1.18.15 4.88 3.35 14.59 12.71 17.87 15.92 1.08.08 4.68-.01 7.88-.1 5.66-.16 12.69-.35 16.69-.02 1.05-.44 4.59-3.84 7.19-6.35 7.62-7.33 10.69-9.99 12.66-8.72.52.33 1.01.65 2.89 9.35.89 4.13 2.37 11.48 4.34 23.04a1.295 1.295 0 0 1-1.28 1.52v.01ZM184.051 63.38c-.09 0-.19 0-.28-.03-12.1-2.7-29.75-3.41-40.21-2.71-.72.04-1.34-.49-1.38-1.21-.05-.72.49-1.34 1.21-1.38 10.92-.73 28.49-.02 40.96 2.76.7.16 1.14.85.99 1.55-.13.61-.67 1.02-1.27 1.02h-.02ZM180.321 77.16c-.19 0-.39-.04-.57-.13-7.85-3.88-17.03-6.08-28.08-6.75a1.3 1.3 0 0 1-1.22-1.38 1.3 1.3 0 0 1 1.38-1.22c11.4.69 20.91 2.98 29.07 7.01.64.32.91 1.1.59 1.74-.23.46-.69.72-1.17.72v.01Z"/><path d="M145.241 128.39c-.72 0-1.3-.58-1.3-1.3v-4.48c0-.47.25-.9.66-1.13 9.62-5.48 14.27-22.79 13.24-32.3-.72-8.44-8.03-24.37-17.84-30.16-4.31-2.54-8.66-2.87-12.93-.97-.65.29-1.42 0-1.72-.66-.29-.66 0-1.42.66-1.72 5.09-2.26 10.24-1.89 15.31 1.11 10.67 6.3 18.32 22.98 19.1 32.15 1.1 10.21-3.66 27.98-13.89 34.42v3.75c0 .72-.58 1.3-1.3 1.3l.01-.01Z"/><path d="M136.871 96.79a1.305 1.305 0 0 1-1.09-2.01c3.37-5.21 1.53-12.2-1.31-17-2.56-4.33-6.14-7.34-8.56-7.17-.72.04-1.34-.49-1.39-1.2-.05-.71.49-1.34 1.2-1.39 3.47-.25 7.8 3.06 10.98 8.44 3.24 5.47 5.27 13.53 1.26 19.73-.25.39-.67.59-1.09.59v.01Z"/><path d="M115.341 78.19c-8.43 0-15.29-6.84-15.29-15.26s6.86-15.26 15.29-15.26c4.96 0 9.63 2.42 12.5 6.47.42.59.28 1.4-.31 1.81-.59.41-1.4.28-1.81-.31a12.742 12.742 0 0 0-10.38-5.37c-7 0-12.69 5.68-12.69 12.66s5.69 12.66 12.69 12.66c4.17 0 8.08-2.05 10.46-5.48a1.301 1.301 0 0 1 2.14 1.48c-2.86 4.13-7.57 6.6-12.59 6.6h-.01Z"/><path d="M124.891 65.23c-.64 0-1.2-.48-1.29-1.13-.3-2.29.26-4.21 1.56-5.42 1.53-1.41 3.97-1.77 7.24-1.08.7.15 1.15.84 1 1.54a1.3 1.3 0 0 1-1.54 1c-2.36-.51-4.07-.35-4.93.45-.9.83-.86 2.34-.75 3.17.09.71-.41 1.36-1.12 1.46-.06 0-.11.01-.17.01Z"/><path d="M125.642 70.15c-.51 0-.99-.3-1.2-.8-.41-.99-1.52-3.62-.03-5.59 1.17-1.55 3.47-2.1 7.03-1.67.71.08 1.22.73 1.14 1.44-.08.71-.72 1.22-1.44 1.14-3.44-.41-4.4.32-4.65.66-.59.78.12 2.46.35 3.02.28.66-.03 1.42-.7 1.7-.16.07-.33.1-.5.1ZM49.812 123.11c-.23 0-.47-.06-.68-.19-9.98-6.13-15.12-18.06-14.49-33.6.64-11.91 9.25-26.39 19.19-32.28 5.66-3.36 11.41-3.8 16.62-1.3.65.31.92 1.09.61 1.73-.31.65-1.09.92-1.73.61-4.46-2.14-9.22-1.74-14.17 1.2-9.13 5.41-17.33 19.22-17.92 30.16-.6 14.54 4.11 25.65 13.25 31.26.61.38.8 1.18.43 1.79-.25.4-.67.62-1.11.62Z"/><path d="M57.68 98.12c-.44 0-.87-.22-1.12-.63-4.2-6.98-1.55-15.56 2-20.78 3.42-5.04 7.87-7.77 11.61-7.15a1.302 1.302 0 1 1-.43 2.57c-2.64-.44-6.28 1.99-9.04 6.05-3.12 4.59-5.49 12.05-1.92 17.98.37.62.17 1.41-.44 1.78-.21.13-.44.19-.67.19l.01-.01Z"/><path d="M81.491 78.19c-5.03 0-9.74-2.47-12.59-6.6a1.301 1.301 0 0 1 2.14-1.48c2.37 3.43 6.28 5.48 10.46 5.48 7 0 12.69-5.68 12.69-12.66s-5.69-12.66-12.69-12.66c-4.12 0-8 2.01-10.38 5.37-.41.59-1.23.72-1.81.31-.59-.42-.73-1.23-.31-1.81a15.33 15.33 0 0 1 12.5-6.47c8.43 0 15.29 6.85 15.29 15.26s-6.86 15.26-15.29 15.26h-.01Z"/><path d="M70.371 66.43a1.297 1.297 0 0 1-1.05-2.07c.6-.82.81-2.43.16-3.42-.89-1.35-3.14-1.07-4.41-.78-.7.16-1.4-.28-1.56-.97-.16-.7.28-1.4.98-1.56 4.47-1.03 6.41.73 7.16 1.88 1.32 2 .92 4.81-.23 6.39-.25.35-.65.53-1.05.53Z"/><path d="M69.961 72.14c-.18 0-.37-.04-.55-.12-.65-.3-.93-1.08-.63-1.73 1.17-2.51.84-3.37.64-3.63-.2-.25-1.15-1.02-5.07-.26-.71.14-1.39-.33-1.52-1.03-.14-.71.33-1.39 1.03-1.52 3.9-.75 6.39-.35 7.62 1.21 1.64 2.1.15 5.28-.34 6.33-.22.47-.69.75-1.18.75ZM102.151 59.55c-.34 0-.68-.13-.93-.4-.91-.95-1.88-1.46-2.79-1.4-1.56.03-2.77 1.35-2.78 1.36-.48.53-1.3.58-1.83.1s-.58-1.29-.11-1.83c.08-.09 1.95-2.17 4.65-2.24 1.69-.04 3.29.7 4.74 2.19.5.52.49 1.34-.03 1.84-.25.24-.58.37-.9.37l-.02.01ZM101.351 64.58c-.39 0-.78-.18-1.04-.51-.45-.59-1.12-1.31-1.87-1.28-.84.01-1.66.9-1.9 1.24-.41.58-1.22.72-1.81.32-.59-.41-.73-1.21-.33-1.8.16-.24 1.66-2.31 3.97-2.36 1.46-.06 2.82.75 4.01 2.31.43.57.32 1.39-.25 1.82-.23.18-.51.26-.79.26h.01ZM84.7 63.46c-.26 0-.53-.08-.76-.25-2.93-2.11-5.86-.31-5.99-.23-.6.38-1.41.21-1.79-.4-.39-.6-.22-1.4.38-1.79.18-.12 4.52-2.86 8.91.31a1.299 1.299 0 0 1-.77 2.35l.02.01ZM110.951 63.35c-.41 0-.81-.19-1.06-.55-.41-.58-.28-1.39.3-1.8.18-.13 4.39-3.06 8.92-.1.6.39.77 1.2.38 1.8-.39.6-1.2.77-1.8.38-3.02-1.98-5.87-.04-5.99.04-.23.16-.49.23-.74.23h-.01ZM177.78 68.98c-.14 0-.29-.02-.43-.08-11.7-4.13-29.53-4.22-29.71-4.23-.72 0-1.3-.58-1.3-1.3 0-.72.58-1.3 1.3-1.3.75 0 18.44.09 30.57 4.37.68.24 1.03.98.79 1.66-.19.53-.69.87-1.23.87l.01.01ZM17.042 66.76a1.3 1.3 0 0 1-.42-2.53c13.97-4.8 32.21-4.46 32.98-4.45.72.02 1.29.61 1.27 1.33-.02.72-.6 1.28-1.33 1.27-.18 0-18.55-.34-32.08 4.31-.14.05-.28.07-.42.07Z"/><path d="M15.42 75.32c-.47 0-.92-.25-1.15-.7-.33-.64-.09-1.42.55-1.75 17.11-8.94 30.21-9.04 30.76-9.04.72 0 1.3.58 1.3 1.3 0 .72-.58 1.3-1.3 1.3-.13 0-13.06.12-29.56 8.74-.19.1-.4.15-.6.15ZM22.62 80.59c-.32 0-.64-.12-.89-.35-.52-.49-.55-1.31-.06-1.84 6.31-6.73 19.66-8.89 20.22-8.98.71-.11 1.37.37 1.49 1.08.11.71-.37 1.37-1.08 1.49-.13.02-13.03 2.12-18.73 8.19-.26.27-.6.41-.95.41ZM93.521 78.18c-.62 0-1.17-.45-1.28-1.08a1.3 1.3 0 0 1 1.06-1.5c.3-.06 2.91-.63 3.31-3.69.09-.71.75-1.22 1.46-1.12.71.09 1.21.75 1.12 1.46-.53 4.04-3.79 5.63-5.44 5.91-.07.01-.15.02-.22.02h-.01Z"/><path d="M101.131 77.4a1.3 1.3 0 0 1-.73-.22c-.11-.08-2.78-1.91-3.59-4.73a1.3 1.3 0 0 1 2.5-.72c.54 1.89 2.53 3.29 2.55 3.3.59.4.75 1.21.34 1.81-.25.37-.66.57-1.08.57l.01-.01ZM81.22 73.98c-6.09 0-11.05-4.96-11.05-11.05 0-6.09 4.96-11.05 11.05-11.05 6.09 0 11.05 4.96 11.05 11.05 0 6.09-4.96 11.05-11.05 11.05Zm0-19.5c-4.66 0-8.45 3.79-8.45 8.45 0 4.66 3.79 8.45 8.45 8.45 4.66 0 8.45-3.79 8.45-8.45 0-4.66-3.79-8.45-8.45-8.45ZM115.071 73.98c-6.09 0-11.05-4.96-11.05-11.05 0-6.09 4.96-11.05 11.05-11.05 6.09 0 11.05 4.96 11.05 11.05 0 6.09-4.96 11.05-11.05 11.05Zm0-19.5c-4.66 0-8.45 3.79-8.45 8.45 0 4.66 3.79 8.45 8.45 8.45 4.66 0 8.45-3.79 8.45-8.45 0-4.66-3.79-8.45-8.45-8.45ZM38.72 180.06c-.64 0-1.2-.48-1.29-1.13l-6.79-52.32c-.09-.66.34-1.28.99-1.43l31.3-7.43c.67-.16 1.36.24 1.55.91l7.11 25.23a1.3 1.3 0 0 1-.9 1.6c-.69.2-1.41-.21-1.6-.9l-6.77-24.03-28.95 6.88 6.64 51.16c.09.71-.41 1.36-1.12 1.46-.06 0-.11.01-.17.01v-.01Z"/><path d="M130.251 179.33c-.69 0-1.26-.54-1.3-1.23l-1.34-24.69h-71.07v24.62c0 .72-.58 1.3-1.3 1.3-.72 0-1.3-.58-1.3-1.3v-25.92c0-.72.58-1.3 1.3-1.3h73.6c.69 0 1.26.54 1.3 1.23l1.41 25.92a1.3 1.3 0 0 1-1.23 1.37h-.07Z"/><path d="M55.24 153.41a1.3 1.3 0 0 1-1.17-.73c-.31-.65-.04-1.42.6-1.74l16.25-7.87c.19-.09.4-.12.59-.13l53.35 1.1c.45 0 .86.25 1.09.64l3.99 6.76c.36.62.16 1.42-.46 1.78-.62.37-1.42.16-1.78-.46l-3.63-6.14-52.32-1.08-15.97 7.73c-.18.09-.38.13-.57.13l.03.01Z"/><path d="M74.68 144.72c-.56 0-1.08-.37-1.25-.93L68.14 126l-5.85-6.1c-.5-.52-.48-1.34.04-1.84s1.34-.48 1.84.04l6.07 6.32c.14.15.25.33.31.53l5.38 18.09c.2.69-.19 1.41-.88 1.62-.12.04-.25.05-.37.05v.01ZM150.611 179.33c-.7 0-1.28-.56-1.3-1.27l-1.25-49.08-38.94 1.39v13.86c0 .72-.58 1.3-1.3 1.3-.72 0-1.3-.58-1.3-1.3v-15.12c0-.7.55-1.27 1.25-1.3l41.51-1.48c.35-.02.68.11.94.35.25.24.4.57.41.91l1.28 50.39c.02.72-.55 1.31-1.27 1.33h-.03v.02ZM84.71 178.59c-.72 0-1.3-.58-1.3-1.3V152.1c0-.27.09-.54.24-.76l5.38-7.48a1.298 1.298 0 0 1 2.11 1.51L86 152.51v24.77c0 .72-.58 1.3-1.3 1.3l.01.01Z"/><path d="M89.35 178.59c-.72 0-1.3-.58-1.3-1.3V152.1c0-.22.06-.44.17-.64l4.16-7.41c.35-.63 1.14-.85 1.77-.5.63.35.85 1.14.5 1.77l-4 7.12v24.85c0 .72-.58 1.3-1.3 1.3ZM84.711 169.79h-29.47c-.72 0-1.3-.58-1.3-1.3 0-.72.58-1.3 1.3-1.3h29.47c.72 0 1.3.58 1.3 1.3 0 .72-.58 1.3-1.3 1.3Z"/><path d="M89.35 169.79c-.71 0-1.29-.57-1.3-1.29 0-.72.57-1.31 1.29-1.31l40.361-.42h.01c.71 0 1.29.57 1.3 1.29 0 .72-.57 1.31-1.29 1.31l-40.36.42h-.01ZM55.241 166.37c-.71 0-1.29-.57-1.3-1.29 0-.72.57-1.31 1.29-1.31l29.47-.33h.01c.71 0 1.29.57 1.3 1.29 0 .72-.57 1.31-1.29 1.31l-29.47.33h-.01ZM89.35 166.37c-.71 0-1.28-.56-1.3-1.27a1.31 1.31 0 0 1 1.27-1.33l39.861-.81c.7 0 1.31.56 1.33 1.27.01.72-.56 1.31-1.27 1.33l-39.86.81h-.03ZM170.661 177.29c-.69 0-1.26-.54-1.3-1.23l-1.24-23.38h-17.51c-.72 0-1.3-.58-1.3-1.3 0-.72.58-1.3 1.3-1.3h18.75c.69 0 1.26.54 1.3 1.23l1.3 24.62a1.3 1.3 0 0 1-1.23 1.37h-.07v-.01Z"/></g><defs><clipPath id="a"><path fill="#fff" d="M0 0h200v200H0z"/></clipPath></defs></svg>