<svg xmlns="http://www.w3.org/2000/svg" width="200" height="200" fill="none"><path fill="#FFE632" d="M127.993 113.254c-.173-.157-.136-.453-.131-.514.031-.393-2.338-3.533-2.439-3.339-.12.231-.851.077-.96.053-.656-.193-3.224-.868-6.066.412-2.793 1.256-3.994 3.563-4.293 4.188l.069.12a45.958 45.958 0 0 0 14.39-.848c-.172.039-.418.065-.57-.072ZM54.875 163.929v.001l.002.001-.002-.002Z"/><path fill="#FFE632" d="M55.752 165.197c-.027-.077-.097-.282-.228-.511a2.564 2.564 0 0 0-.648-.756c-.061-.048-.128-.081-.192-.122-.053-.084-.093-.174-.168-.246v-.001c-.735-.714-1.66-1.179-2.661-1.479-1.005-.299-2.098-.433-3.225-.434-.816.002-1.647.098-2.475.237l-1.852-7.973c.327-.443.84-1.142 1.402-1.935.472-.665.975-1.393 1.427-2.082.453-.692.85-1.336 1.13-1.891l.004-.006c.15-.299.208-.621.207-.908-.012-.676-.25-1.195-.552-1.722-.542-.91-1.39-1.844-2.501-2.825-1.666-1.46-3.92-2.981-6.535-4.207-2.614-1.224-5.59-2.154-8.686-2.371a44.644 44.644 0 0 0-3.093-.123c-1.13.002-2.156.057-3.036.261-.443.108-.859.241-1.278.532a2.06 2.06 0 0 0-.585.618 1.84 1.84 0 0 0-.265.951c0 .398.123.741.277 1.024.157.286.351.527.577.762a1.294 1.294 0 0 0 2.125-1.407c.085-.015.17-.031.267-.041a15.176 15.176 0 0 1 1.918-.101c.908 0 1.92.048 2.911.118 4.1.278 8.2 2.066 11.214 4.065 1.506.994 2.744 2.041 3.563 2.926.41.439.713.84.888 1.14.082.138.133.249.161.326-.206.382-.52.897-.886 1.455a79.688 79.688 0 0 1-2.03 2.92c-.308.424-.575.786-.765 1.042l-.3.403a1.296 1.296 0 0 0-.229 1.076l2.003 8.619c-.655.237-1.294.507-1.89.84a1.3 1.3 0 1 0 1.276 2.266c1.565-.888 3.703-1.394 5.608-1.389.493 0 .967.036 1.413.099-.74.378-1.476.818-2.183 1.259-1.005.631-1.95 1.262-2.643 1.663-1.962 1.132-4.742 2.137-8.918 2.141-1.887 0-4.067-.216-6.566-.724a53.769 53.769 0 0 1-1.55-1.758c-1.986-2.357-3.464-4.498-4.448-5.812-.58-.769-1.393-1.556-2.316-2.374-1.38-1.219-2.996-2.471-4.268-3.446-.634-.486-1.184-.903-1.559-1.199a9.53 9.53 0 0 1-.402-.329l-.021-.019a1.287 1.287 0 0 0-.826-.476 1.302 1.302 0 0 0-1.43.932c-.002.006-.375 1.318-.751 2.79a57.878 57.878 0 0 0-.523 2.196c-.073.343-.134.662-.18.951-.045.292-.078.54-.08.818.001.106.003.229.04.412l.001.008c.001.003 0 .005.002.008v-.001c.053.224.112.35.173.482.119.242.26.471.434.737.604.914 1.614 2.21 2.635 3.406a33.29 33.29 0 0 0 1.482 1.637c.233.238.454.453.666.641.214.189.41.351.642.499a1.304 1.304 0 0 0 1.465-.055l.966-.713c.483.619 1.15 1.472 1.895 2.407 1.494 1.874 3.28 4.067 4.543 5.431 1.32 1.419 3.608 3.357 6.593 4.985 2.974 1.617 6.646 2.919 10.68 2.927h.04l.018.001c3.898-.008 6.207-.62 7.631-1.345 1.424-.717 1.92-1.603 2.019-1.887l.063-.221.702-3.692a1.29 1.29 0 0 0 .003-.413c.07-.259.115-.52.115-.778-.013-1.226-.654-2.33-1.648-3.157l-.06-.047c-.18-.129-.358-.259-.536-.388.378-.306.794-.658 1.216-1.051.636-.596 1.278-1.272 1.796-2.022.509-.751.942-1.588.954-2.612 0-.313-.047-.64-.156-.959l-.001-.003ZM15.313 153.99l.013-.006-.013.006Zm-.105-.175.008-.006-.008.006Zm28.446 27.357-.019-.001-.015.001c-3.472.002-6.754-1.137-9.462-2.612-2.703-1.468-4.829-3.279-5.928-4.469-1.16-1.249-2.944-3.433-4.416-5.283-.737-.926-1.4-1.772-1.878-2.386-.478-.613-.77-.992-.77-.993a1.297 1.297 0 0 0-1.803-.254l-1.158.855c-.72-.707-1.754-1.895-2.62-2.986a31.351 31.351 0 0 1-1.231-1.642 8.451 8.451 0 0 1-.354-.547l-.012-.022c.008-.073.02-.173.039-.284.124-.792.475-2.237.79-3.438l.072-.272c.08.061.154.117.237.182 1.05.802 2.412 1.844 3.655 2.883 1.239 1.029 2.372 2.093 2.874 2.772.93 1.24 2.47 3.471 4.54 5.928 2.075 2.46 4.693 5.166 7.856 7.417 3.133 2.217 6.976 2.798 10.355 2.804 2.692-.002 5.12-.38 6.733-.71l-.28 1.466c-.136.149-.539.515-1.573.872-1.085.372-2.858.715-5.632.719Zm9.16-13.876c-.531.779-1.452 1.659-2.25 2.317a21.227 21.227 0 0 1-1.538 1.168c-.067.045-.107.11-.162.164-.054.053-.12.089-.165.152-.006.009-.007.02-.013.029-.055.08-.083.17-.118.26-.028.069-.069.134-.084.207-.015.072-.004.146-.007.219-.003.094-.016.185 0 .277.01.059.044.114.063.172.035.104.065.206.125.299.005.008.005.018.01.026.04.058.098.092.144.141.057.062.1.134.171.186.636.46 1.272.922 1.908 1.385.462.377.654.818.678 1.058-1.34.319-4.115.871-7.17.869-3.084.005-6.405-.573-8.847-2.322a32.88 32.88 0 0 1-2.597-2.08c1.182.126 2.295.187 3.337.187 4.599.005 7.9-1.142 10.221-2.491 1.079-.628 2.404-1.546 3.685-2.297.637-.374 1.258-.703 1.792-.924.53-.225.978-.323 1.18-.317l.094.009.021.051.018.118c.012.169-.132.621-.496 1.137Z"/><path fill="#FFE632" d="M31.439 154.816a1.3 1.3 0 0 0-1.3 1.3v.63a1.3 1.3 0 1 0 2.6 0v-.63a1.3 1.3 0 0 0-1.3-1.3ZM31.271 162.167v.63a1.3 1.3 0 1 0 2.6 0v-.63a1.3 1.3 0 1 0-2.6 0ZM13.316 130.777c1.349.122 2.121.695 2.649 1.262.258.283.438.564.547.764.055.1.092.179.113.227l.02.046v.003l.003-.001a1.298 1.298 0 0 0 2.442-.887c-.04-.103-.353-.964-1.202-1.902-.838-.935-2.286-1.935-4.354-2.103a1.3 1.3 0 0 0-.218 2.591ZM12.675 140.464a1.07 1.07 0 0 1 .308-.039c.4-.008 1.026.181 1.506.404.241.109.45.221.593.302l.161.096.037.022.006.004a1.3 1.3 0 0 0 1.422-2.176c-.038-.025-.482-.316-1.148-.617-.67-.296-1.55-.627-2.577-.635-.338 0-.696.04-1.057.149a1.3 1.3 0 1 0 .75 2.49ZM52.1 140.688c.172-.204.332-.304.514-.377.18-.07.39-.102.598-.101a2.5 2.5 0 0 1 .543.062l.15.04.028.009v-.002a1.3 1.3 0 0 0 .903-2.436c-.09-.03-.715-.269-1.624-.273-.454 0-.985.064-1.537.277a3.846 3.846 0 0 0-1.573 1.136 1.301 1.301 0 0 0 1.998 1.665Z"/><path fill="#BEBEC9" d="M189.115 140.302c-.029-.079-1.594-4.512-5.577-10.308-3.981-5.793-10.389-12.957-20.095-18.434a1.296 1.296 0 0 0-1.118-.076 1.293 1.293 0 0 0-.76.817c-.002.016-.652 1.986-2.45 3.881a11.561 11.561 0 0 1-3.625 2.592c-1.547.704-3.464 1.182-5.881 1.184l-.15-.001c-.069 0-.135.016-.202.027a38.783 38.783 0 0 0-1.841-2.528 36.06 36.06 0 0 0-2.203-2.534c-.723-.749-1.402-1.374-2.042-1.829a10.18 10.18 0 0 0-1.734-.982c5.312-1.814 9.464-4.093 12.562-6.223 3.982-2.736 6.226-5.215 7.002-6.146.767-.185 2.376-.63 4.301-1.507 2.641-1.208 5.886-3.229 8.199-6.572a1.302 1.302 0 0 0-.923-2.03l-5.906-.674c.55-.4 1.129-.85 1.715-1.366 1.26-1.112 2.54-2.495 3.524-4.168.982-1.67 1.663-3.648 1.661-5.867 0-.566-.044-1.144-.135-1.732a1.302 1.302 0 0 0-1.812-.99l-6.577 2.916c1.071-6.776 1.596-12.841 1.596-18.268.002-11.777-2.445-20.629-6.995-27.3-4.547-6.672-11.144-11.066-19.148-14.085-4.357-1.645-10.603-3.158-17.616-3.928a6.894 6.894 0 0 0-1.374-2.049c-1.033-1.076-2.256-1.812-3.227-2.307-.972-.492-1.699-.734-1.742-.749a1.302 1.302 0 0 0-1.624.771l-1.386 3.638c-1.548-1.565-3.34-2.514-4.962-3.071a15.56 15.56 0 0 0-4.924-.84 7.11 7.11 0 0 0-.436.01 1.295 1.295 0 0 0-.994.57 1.295 1.295 0 0 0-.158 1.134l1.031 3.127c-4.595.693-9.098 1.9-13.236 3.805-4.605 2.119-8.762 5.107-12.035 9.18-2.895 3.596-4.754 7.536-5.882 11.538-1.129 4.003-1.531 8.068-1.532 11.958 0 5.13.702 9.961 1.393 13.951l.075.42-4.89-3.291a1.304 1.304 0 0 0-1.381-.044c-.43.25-.68.729-.64 1.225.23 2.858 1.293 5.536 2.28 7.533.467.94.916 1.718 1.268 2.292l-1.55 1.21c-.389.303-.573.804-.473 1.288.022.1.263 1.225 1.117 2.645.777 1.294 2.101 2.835 4.198 3.968-.504 2.104-.972 4.43-.97 7.472.007 2.604 1.032 6.292 3.873 10.131 2.178 2.938 5.433 5.934 10.097 8.52-1.383.338-2.908.917-4.171 2.019a6.804 6.804 0 0 1-2.972-1.266c-1.503-1.117-2.57-2.805-3.23-4.23-.33-.71-.56-1.349-.706-1.802a12.361 12.361 0 0 1-.156-.527l-.035-.133-.007-.03v-.004a1.293 1.293 0 0 0-.684-.87 1.295 1.295 0 0 0-1.108-.028c-.022.01-1.907.842-4.624 2.281a1.262 1.262 0 0 0-.47.459 180.65 180.65 0 0 0-2.481-2.261c-10.078-8.98-21.536-17.111-33.29-21.127a1.298 1.298 0 0 0-1.203 2.268l.382.29c.45.345 1.294.996 2.442 1.901.36.846.51 1.609.511 2.338.002 1.433-.588 2.826-1.611 4.27-1.525 2.164-3.978 4.292-6.12 6.49-1.07 1.106-2.067 2.235-2.828 3.465-.757 1.224-1.287 2.582-1.287 4.068 0 .677.112 1.373.348 2.062.527 1.541 1.432 3.02 2.538 4.416-.172.055-.358.096-.523.156-.948.349-1.79.791-2.465 1.424a3.885 3.885 0 0 0-.84 1.121 3.25 3.25 0 0 0-.328 1.425c0 .657.196 1.307.532 1.916.378.669.909 1.151 1.544 1.668 1.111.887 2.597 1.81 4.234 2.882 2.451 1.6 5.219 3.515 7.318 5.805 1.05 1.144 1.932 2.375 2.546 3.696.614 1.323.967 2.731.969 4.289-.002 2.084-.638 4.471-2.301 7.258a1.3 1.3 0 0 0 2.232 1.334c1.85-3.093 2.67-5.964 2.669-8.592.002-2.991-1.063-5.601-2.616-7.792-2.334-3.292-5.737-5.745-8.67-7.698-1.468-.973-2.822-1.819-3.85-2.539-.514-.36-.945-.688-1.256-.967-.314-.275-.498-.51-.54-.595-.173-.317-.21-.526-.211-.665a.637.637 0 0 1 .068-.29c.08-.174.3-.433.72-.697.594-.382 1.56-.735 2.709-.977a28.928 28.928 0 0 0 5.13 4.027c1.216.745 2.432 1.357 3.596 1.791 1.166.433 2.275.698 3.333.701.467 0 .926-.054 1.372-.187.666-.196 1.31-.605 1.746-1.213.44-.607.653-1.351.688-2.14v-.006l.004-.176a3.772 3.772 0 0 0-.36-1.613c-.41-.864-1.09-1.523-1.877-2.044-1.189-.779-2.666-1.29-4.287-1.637-1.62-.344-3.385-.51-5.127-.51a25.427 25.427 0 0 0-3.296.218c-1.375-1.525-2.443-3.148-2.94-4.628a3.732 3.732 0 0 1-.21-1.223c0-.572.134-1.146.401-1.761.464-1.073 1.36-2.241 2.487-3.442 1.686-1.81 3.853-3.688 5.655-5.775.9-1.046 1.714-2.152 2.317-3.362.581-1.168.954-2.448.978-3.814a382.558 382.558 0 0 1 15.43 13.158 328.549 328.549 0 0 1 8.416 7.842c-4.041 2.654-8.226 5.967-10.767 9.772a1.298 1.298 0 0 0 .107 1.578 1.298 1.298 0 0 0 1.551.307c2.4-1.184 4.645-1.642 6.739-1.644 4.202-.005 7.868 1.898 10.497 3.861a25.685 25.685 0 0 1 3.064 2.695c.355.366.626.669.805.877.03.034.04.049.065.077-1.564 1.746-2.903 3.534-3.905 5.24-.615 1.049-1.109 2.066-1.457 3.038-.346.972-.554 1.899-.556 2.797l.003.177v.003c.177 4.888 1.12 8.477 2.953 11.086a10.82 10.82 0 0 0 3.354 3.103c1.303.776 2.766 1.3 4.358 1.645.297.064.59.118.88.166-3.498 18.338-3.661 32.101-3.662 34.521 0 .246.002.377.002.383a1.3 1.3 0 0 0 2.6-.041v-.082l-.002-.26c0-2.313.16-16.042 3.663-34.286.066 0 .133.005.198.005 3.375.003 6.129-1.081 8.448-2.342.36.69.885 1.271 1.504 1.827.947.84 2.13 1.603 3.363 2.236 1.236.629 2.51 1.124 3.68 1.374.13.027.252.04.379.059.032.133.07.265.147.387.451.717 1.043 1.763 1.52 2.629a159.745 159.745 0 0 1 .796 1.466l.094.175.015-.008c.12.237.272.441.434.569.34.266.654.364.956.436a4.2 4.2 0 0 0 .918.093 6.995 6.995 0 0 0 3.214-.823 4.75 4.75 0 0 0 1.459-1.189 3.578 3.578 0 0 0 .786-1.937 1.304 1.304 0 0 0-.171-.767l-.323-.555.241.079c3.295 1.06 9.115 2.606 15.5 3.899 6.386 1.291 13.306 2.328 18.84 2.331.288 0 .563-.01.844-.016-.08.186-.131.387-.114.603.737 9.401 2.413 20.307 3.611 26.384a1.3 1.3 0 0 0 2.551-.503c-1.177-5.958-2.847-16.833-3.57-26.084a1.308 1.308 0 0 0-.163-.524 19.943 19.943 0 0 0 2.471-.372c1.629-.37 3.027-.938 4.046-1.964 1.553-1.594 2.546-3.815 3.191-6.393.641-2.582.924-5.545.924-8.677a60.207 60.207 0 0 0-.372-6.46c.066-.019.133-.036.196-.066 2.075-.973 3.983-1.492 5.577-1.489 1.199.003 2.212.274 3.118.853.902.582 1.729 1.5 2.437 2.925a1.301 1.301 0 0 0 2.269.106h.001c.006-.014.841-1.335 2.331-2.601a11.086 11.086 0 0 1 2.686-1.711 8.685 8.685 0 0 1 3.522-.752c1.283.001 2.718.281 4.336 1.022 1.617.742 3.415 1.952 5.375 3.815a1.3 1.3 0 0 0 2.122-1.374ZM30.198 114.01c2.397-.004 4.87.365 6.606 1.034.868.329 1.54.736 1.929 1.121.197.193.324.375.402.541.078.168.113.321.114.508l-.001.064a1.727 1.727 0 0 1-.115.587.587.587 0 0 1-.288.32c-.143.078-.408.152-.806.152-.799.007-2.053-.319-3.427-.956-1.66-.76-3.507-1.948-5.197-3.354.26-.009.52-.017.783-.017Zm77.524-101.149c1.804.626 3.731 1.76 5.138 3.893a1.3 1.3 0 0 0 2.301-.252l1.708-4.485c.35.168.746.376 1.15.628.581.36 1.169.803 1.635 1.298.148.156.277.317.398.48-1.513.617-3.964 1.874-6.454 4.232-3.458 3.265-6.916 8.683-7.919 17.202a13.491 13.491 0 0 0-.989-.992c-2.182-1.966-5.739-3.872-11.131-4.31a14.07 14.07 0 0 1 2.099-2.634 13.923 13.923 0 0 1 4.238-2.862c1.789-.777 3.986-1.303 6.709-1.304.16 0 .318.002.476.006a1.303 1.303 0 0 0 1.268-1.707l-3.228-9.79c.74.093 1.646.267 2.601.597ZM72.438 79.443a8.262 8.262 0 0 1-2.608-2.67 7.46 7.46 0 0 1-.548-1.106l1.765-1.377a1.302 1.302 0 0 0 .259-1.78l-.005-.007c-.078-.11-.94-1.354-1.816-3.152-.5-1.02-.995-2.223-1.365-3.485l4.27 2.876c.038.024.08.028.119.048.083.46.161.902.232 1.318.255 1.488.414 2.7.41 3.457 0 2.31-.31 4.112-.713 5.878Zm4.354 18.694c-2.542-3.415-3.367-6.657-3.36-8.582.002-3.199.543-5.431 1.122-7.79.579-2.35 1.2-4.832 1.198-8.2-.003-1.07-.188-2.353-.448-3.893-.784-4.594-2.301-11.438-2.3-18.786 0-3.71.386-7.539 1.434-11.253 1.049-3.715 2.753-7.316 5.406-10.614 2.988-3.717 6.79-6.464 11.096-8.447 3.995-1.84 8.421-3.006 12.976-3.658l1.411 4.28c-2.551.144-4.736.713-6.569 1.525a16.627 16.627 0 0 0-6.635 5.317c-1.313 1.772-1.834 3.189-1.866 3.273a1.3 1.3 0 0 0 1.209 1.744c6.037.072 9.479 1.96 11.488 3.748a10.454 10.454 0 0 1 2.026 2.435c.193.325.321.59.398.764l.079.19.014.037.001.002h.001a1.3 1.3 0 0 0 2.53-.38c.279-10.223 3.9-15.984 7.384-19.307a18.957 18.957 0 0 1 4.758-3.315 14.462 14.462 0 0 1 1.388-.589c7.239.7 13.744 2.264 18.049 3.893 7.683 2.905 13.737 6.99 17.919 13.119 4.18 6.13 6.541 14.4 6.543 25.834 0 5.612-.572 11.978-1.775 19.197-.017.103.003.2.01.299l-5.134 2.276a1.3 1.3 0 1 0 1.054 2.377l12.742-5.65c-.08 1.51-.544 2.882-1.273 4.126-1.191 2.039-3.062 3.707-4.641 4.836-.788.565-1.5.997-2.009 1.284a16.15 16.15 0 0 1-.595.322l-.153.077-.035.017-.006.003a1.3 1.3 0 0 0 .406 2.468l7.275.83c-1.751 1.818-3.853 3.088-5.688 3.923a22.772 22.772 0 0 1-3.013 1.126c-.38.112-.684.19-.888.237-.102.025-.18.042-.229.052l-.054.011-.009.002a1.293 1.293 0 0 0-.8.502c-.066.087-2.224 2.913-6.924 6.098-4.702 3.185-11.941 6.737-22.227 8.292l-.004.001c-.319.049-.656.086-.981.131-.088-.3-.212-.679-.389-1.118-.411-1.018-1.088-2.336-2.203-3.556-.026-.027-.055-.048-.083-.073a9.358 9.358 0 0 0-2.729-2.053c-1.15-.569-2.522-.941-4.101-.996-6.951-.243-16.663-1.386-21.699-2.49l.003.001a9.282 9.282 0 0 0-2.013-.227c-1.493 0-2.837.391-3.915 1.075-1.035.657-1.818 1.597-2.227 2.695-.023.05-.054.096-.07.147a4.786 4.786 0 0 0-.243 1.502c0 .127.021.256.032.384-6.288-2.772-10.25-6.223-12.664-9.475Zm49.67 14.497a75.553 75.553 0 0 1-7.493.373c-1.523 0-3.095-.042-4.718-.131l-.112-.008-.032-.001c-.169-.012-.283-.013-.33-.018l-.026-.002c-7.424-.454-13.533-1.57-18.549-3.105-.007-.003-.013-.001-.02-.004a49.733 49.733 0 0 1-2.55-.847c-.024-.043-.031-.093-.061-.134-.401-.552-.545-1.057-.547-1.529 0-.226.039-.447.108-.663.002-.008.008-.015.01-.023.183-.538.586-1.062 1.216-1.463.63-.399 1.48-.669 2.52-.67.45 0 .936.051 1.454.165l.003.001c5.304 1.156 15.012 2.292 22.161 2.549 1.23.044 2.218.322 3.042.728a6.798 6.798 0 0 1 2.031 1.546c.011.013.026.021.037.033.821.904 1.363 1.937 1.686 2.742.067.168.12.317.17.461Zm-55.007-8.302c.317.878.816 2.043 1.558 3.246.748 1.208 1.747 2.459 3.09 3.464a9.526 9.526 0 0 0 2.72 1.421c-.37.602-.713 1.236-1.024 1.902l-.007.013-.04.078c-.075.162-.147.334-.221.5a215.913 215.913 0 0 0-9.03-9.134 90.6 90.6 0 0 1 2.954-1.49Zm-20.758-7.327a387.179 387.179 0 0 0-11.723-9.982c8.177 4.245 16.174 10.237 23.453 16.732 9.82 8.756 18.343 18.396 24.372 25.795 0 .138-.052.397-.188.686a3.624 3.624 0 0 1-1.026 1.279c-.442.346-.906.521-1.3.519a1.501 1.501 0 0 1-.563-.131c-2.477-3.407-5.235-6.814-8.151-10.164l-.021-.024c-7.906-9.079-16.977-17.723-24.853-24.71Zm18.42 23.408c-2.893-2.156-7.05-4.371-12.051-4.377-1.063 0-2.162.109-3.285.333 2.2-2.159 4.907-4.176 7.565-5.886 3.946 3.881 7.888 7.982 11.578 12.172l-.429.728a28.321 28.321 0 0 0-3.378-2.97ZM86.05 149.57c-1.82.864-3.784 1.469-6.124 1.471-.97 0-2.006-.105-3.13-.348-1.382-.299-2.57-.737-3.578-1.337-1.51-.905-2.654-2.156-3.519-4.075-.859-1.916-1.396-4.518-1.518-7.973v.004l-.002-.091c-.002-.476.124-1.145.404-1.921.83-2.345 2.994-5.578 5.872-8.53l-.007.007c.362-.368.686-.775.992-1.197 2.275 2.699 4.429 5.42 6.386 8.131.106.147.251.277.409.367.655.377 1.37.558 2.05.555.75 0 1.447-.207 2.051-.521.91-.475 1.635-1.18 2.169-1.964.526-.79.885-1.656.895-2.609 0-.337-.05-.687-.182-1.033a1.34 1.34 0 0 0-.206-.357c-.33-.405-.67-.82-1.014-1.238.134-.073.27-.156.399-.216.504-.238.953-.348 1.21-.344.152.001.231.026.291.055l.004.002c.345.162 1.032.714 1.75 1.482.477.504.984 1.108 1.491 1.752.009.035.002.069.013.103.106.312.15.607.15.904 0 .495-.13 1-.355 1.496-.335.742-.885 1.439-1.352 1.927a9.038 9.038 0 0 1-.59.568l-.17.143-.038.032-.005.003-.002.002a1.3 1.3 0 0 0 1.581 2.064c.052-.042.876-.67 1.734-1.734a9.13 9.13 0 0 0 1.209-1.93c.045-.1.084-.208.126-.313.675 1.069 1.25 2.094 1.632 2.92-.001.078-.022.153-.009.233l.01.133c.003.181-.06.467-.223.802-.24.505-.697 1.102-1.256 1.624-.556.524-1.214.98-1.81 1.262a1.3 1.3 0 1 0 1.119 2.348c1.116-.537 2.174-1.351 3.039-2.305-.03 1.049-.259 2.06-.743 2.885-.527.884-1.305 1.601-2.634 2.066-1.19.41-2.297 1.027-3.4 1.696-1.65 1.006-3.302 2.136-5.12 2.999Zm18.773 9.336c-.208.268-.639.559-1.155.749a4.493 4.493 0 0 1-1.488.287c-.071 0-.132-.003-.187-.008l-.152-.283a99.048 99.048 0 0 0-1.656-2.963c.342-.074.666-.155.962-.233.761-.201 1.383-.355 2.037-.354.091.001.187.009.282.015l1.493 2.566a1.137 1.137 0 0 1-.136.224Zm47.247-4.822c-.569 2.304-1.447 4.11-2.524 5.2-.452.475-1.395.949-2.756 1.247-1.356.304-3.094.45-5.064.449-5.964.004-14.019-1.315-20.981-2.838a171.553 171.553 0 0 1-9.263-2.286 89.055 89.055 0 0 1-3.3-.981c-.898-.288-1.589-.539-1.971-.705-1.103-.479-2.118-.671-3.027-.669-1.063.001-1.944.244-2.696.44-.758.2-1.387.355-2.066.354-.3 0-.613-.029-.963-.103-.622-.128-1.383-.394-2.163-.737.394-.174.766-.354 1.09-.534 1.038-.582 1.692-1.127 1.735-1.161a1.3 1.3 0 0 0-1.663-1.998h-.002c-.03.026-.593.481-1.42.934-.803.445-1.854.866-2.854.956-.45-.343-.835-.687-1.104-.994-.195-.22-.33-.42-.401-.562l-.051-.127c.659-.411 1.295-.813 1.894-1.177 1.041-.634 2.003-1.154 2.893-1.457 1.871-.636 3.227-1.82 4.034-3.213.813-1.393 1.11-2.95 1.111-4.429a11.737 11.737 0 0 0-.734-4.047 4.171 4.171 0 0 1 1.135-.16c.917-.002 1.92.287 2.91.77 1.484.72 2.907 1.862 3.93 2.823a23.066 23.066 0 0 1 1.535 1.584l.079.093.018.021.003.004c.244.298.603.47.989.474.002 0 .952.011 2.464.034 4.529.066 14.132.235 18.053.497a1.303 1.303 0 0 0 1.384-1.23c.001-.017.066-1.26.066-3.147-.005-3.372-.193-8.757-1.382-13.03a1.3 1.3 0 0 0-2.503.701c1.07 3.801 1.29 9.078 1.285 12.329 0 .662-.008 1.238-.019 1.707-2.87-.142-7.171-.25-11.01-.327-3.452-.068-6.5-.11-7.727-.126a24.965 24.965 0 0 0-2.741-2.602c-.944-.765-2.053-1.541-3.286-2.142-1.232-.599-2.597-1.031-4.048-1.033a6.64 6.64 0 0 0-2.258.404 34.406 34.406 0 0 0-.424-.744 41.592 41.592 0 0 0-3.48-5.007c-.63-.77-1.26-1.472-1.877-2.061-.62-.588-1.208-1.068-1.858-1.396a3.093 3.093 0 0 0-1.11-.295c.224-1.042.58-2.501 1.018-3.633a1.3 1.3 0 0 0-2.427-.932v-.001c-.459 1.197-.802 2.541-1.043 3.606a41.634 41.634 0 0 0-.322 1.576c-.298.145-.591.301-.874.471a257.267 257.267 0 0 0-6.839-7.823 1.27 1.27 0 0 0 .431-.423l1.22-2.061.023-.043 1.309-2.231c.052-.089.09-.183.12-.28.866-.673 2.069-1.131 3.222-1.368a14.707 14.707 0 0 1 2.873-.303l.115.001H88.804c.107.004.205-.029.306-.05.118.05.23.101.35.151a51.094 51.094 0 0 0 4.974 1.785c.008.002.015.001.022.003 5.235 1.601 11.533 2.742 19.11 3.208v.001h.012a.066.066 0 0 0 .014.001c.172.012.287.013.335.018l.023.001.124.009.026.002c1.673.092 3.296.135 4.869.135 4.171 0 7.999-.308 11.501-.847h-.004a66.346 66.346 0 0 0 4.394-.818c.168.029.344.027.52-.015v.001l.005-.001h.001a7.693 7.693 0 0 1 1.553-.142c1.281 0 3.088.266 4.731 1.431.417.293 1.022.835 1.671 1.51a35.658 35.658 0 0 1 3.035 3.658c.96 1.32 1.785 2.661 2.216 3.645 2.604 5.888 4.333 14.569 4.325 22.005.001 2.973-.274 5.749-.847 8.05Zm30.633-18.586c-1.925-.885-3.752-1.26-5.421-1.259a11.285 11.285 0 0 0-4.631 1c-2.003.897-3.51 2.209-4.53 3.292a15.44 15.44 0 0 0-.368.405c-.673-.925-1.44-1.692-2.312-2.251-1.36-.878-2.92-1.269-4.523-1.266-1.664.003-3.385.404-5.146 1.083-.114-.61-.248-1.312-.404-2.076-.325-1.582-.742-3.422-1.268-5.227-.77-2.638-1.845-5.13-2.599-6.738 1.983-.195 3.701-.686 5.157-1.362a14.32 14.32 0 0 0 5.821-4.965c.395-.582.699-1.118.933-1.577 8.585 5.133 14.344 11.615 17.984 16.91a55.773 55.773 0 0 1 3.042 4.956 18.167 18.167 0 0 0-1.735-.925Z"/><path fill="#FFE632" d="m42.067 163.513-2.758-.804-2.112-9.577c.251-.405.635-1.03 1.027-1.698.331-.564.665-1.151.932-1.668.133-.26.25-.501.346-.731.048-.116.09-.229.13-.354.037-.128.076-.258.091-.476v-.01c.004-.066.016-.2.016-.378a2.946 2.946 0 0 0-.203-1.098c-.247-.63-.755-1.221-1.5-1.717-.753-.502-1.764-.958-3.21-1.405-3.729-1.149-6.506-2.662-8.34-3.877a22.52 22.52 0 0 1-2.045-1.514 13.605 13.605 0 0 1-.491-.431l-.113-.107-.023-.023-.001-.001a1.3 1.3 0 0 0-2.165.514l-2.186 6.813-1.115.345c-.35.108-.643.365-.797.698l-3.41 7.407a1.3 1.3 0 1 0 2.361 1.088l3.168-6.88 1.208-.374c.407-.126.724-.439.854-.845l1.798-5.606c1.853 1.422 5.348 3.679 10.531 5.277 1.723.526 2.556 1.045 2.857 1.339.155.147.186.222.202.258l.02.139c0 .03-.002.077-.005.134-.047.134-.227.52-.46.945-.365.68-.86 1.513-1.258 2.169a90.927 90.927 0 0 1-.701 1.132 1.302 1.302 0 0 0-.171.976l2.392 10.848c.103.466.448.835.906.968l3.497 1.02a1.3 1.3 0 0 0 .728-2.496Zm-4.94-15.462v.01-.01Z"/><path fill="#BEBEC9" d="m91.063 124.081.001.001.002.001-.004-.002ZM89.467 110.446l-.006-.002-.002-.001.008.003ZM119.197 98.414c1.535.161 3.136.226 4.746.243a2.987 2.987 0 0 0 1.987 1.818l.683.191a3 3 0 0 0 3.695-2.085c.011-.04.012-.08.021-.121 3.855-.265 7.331-.726 9.55-1.06a2.25 2.25 0 0 0-.671-4.449c-3.154.477-9.045 1.222-14.611 1.22-1.709 0-3.386-.07-4.93-.233a2.25 2.25 0 1 0-.47 4.476ZM89.885 96.028a2.996 2.996 0 0 0 3.168-1.173c2.254.57 3.811.923 3.826.926a2.25 2.25 0 0 0 .997-4.388l-.468-.108c-1.069-.25-3.843-.913-6.95-1.764-3.102-.848-6.56-1.899-8.883-2.862a2.25 2.25 0 1 0-1.72 4.159c1.532.632 3.337 1.245 5.208 1.824.754.232 1.518.459 2.276.677a2.992 2.992 0 0 0 2.246 2.634l.3.075ZM82.252 72.674a1.3 1.3 0 0 0 1.668-.775c.882-2.38 2.192-3.566 3.501-4.26 1.31-.685 2.665-.822 3.467-.82.234 0 .418.01.538.02l.13.014.024.003v-.001a1.3 1.3 0 0 0 .394-2.569 7.488 7.488 0 0 0-1.086-.067c-1.075.001-2.839.166-4.668 1.115-1.828.94-3.674 2.723-4.742 5.672a1.3 1.3 0 0 0 .774 1.668ZM128.316 70.45c2.567.182 4.636.856 6.23 1.963 1.592 1.11 2.757 2.657 3.494 4.788a1.301 1.301 0 0 0 2.459-.846c-.882-2.579-2.407-4.65-4.47-6.078-2.061-1.43-4.614-2.215-7.53-2.421a1.3 1.3 0 1 0-.183 2.594Z"/></svg>