<svg xmlns="http://www.w3.org/2000/svg" width="320" height="200" fill="none"><g fill="#BEBEC9"><path d="M66.76 62.432a385.533 385.533 0 0 1 .622 4.06 1.3 1.3 0 0 0 2.573-.374c0-.006-.442-3.044-1.043-6.657a224.9 224.9 0 0 0-.986-5.551c-.346-1.795-.695-3.423-1.027-4.624a1.3 1.3 0 1 0-2.506.694c.298 1.072.642 2.664.98 4.422a261.04 261.04 0 0 1 1.387 8.03ZM87.32 50.096a77.877 77.877 0 0 1-6.604-1.015c-3.343-.656-7.35-1.687-10.49-3.152a1.301 1.301 0 0 0-1.727 1.729c.009.019.964 2.063 2.344 4.509a50.849 50.849 0 0 0 2.331 3.776c.849 1.23 1.736 2.364 2.671 3.232a1.3 1.3 0 0 0 1.766-1.907c-.702-.648-1.514-1.66-2.295-2.798-1.089-1.582-2.123-3.393-2.924-4.888 2.883.993 5.924 1.694 8.504 2.181 3.582.674 6.26.93 6.287.932a1.3 1.3 0 0 0 .247-2.588l-.11-.011ZM130.301 48.584l5.037-1.768a1.3 1.3 0 1 0-.861-2.453l-5.037 1.767a1.3 1.3 0 0 0 .861 2.454ZM69.035 72.843a1.3 1.3 0 0 0-1.154 1.43l.755 7.074a1.3 1.3 0 0 0 2.586-.276l-.756-7.073a1.3 1.3 0 0 0-1.43-1.155ZM78.491 142.128a1.3 1.3 0 0 0 1.3-1.3v-15.409a1.3 1.3 0 1 0-2.6 0v15.409a1.3 1.3 0 0 0 1.3 1.3ZM79.035 116.577v-3.536a1.3 1.3 0 1 0-2.6 0v3.536a1.3 1.3 0 0 0 2.6 0ZM99.438 140.069v-6.315a1.3 1.3 0 0 0-2.6 0v6.315a1.3 1.3 0 1 0 2.6 0ZM104.393 101.277a1.3 1.3 0 0 0-1.935-1.736 4.256 4.256 0 0 0-.892 1.587 5.664 5.664 0 0 0-.24 1.685c.008 1.602.52 3.134 1.002 4.316.29.702.575 1.269.764 1.624a12.264 12.264 0 0 0-.105 1.51c.002 2.892 1.021 5.315 2.014 7.011.998 1.699 1.984 2.692 2.037 2.746a1.3 1.3 0 0 0 1.841-1.835v-.001c-.055-.055-.902-.939-1.713-2.361-.815-1.424-1.581-3.367-1.579-5.56 0-.505.04-1.024.128-1.557a1.3 1.3 0 0 0-.162-.873l-.001-.002a15.3 15.3 0 0 1-.86-1.79c-.407-.99-.773-2.249-.766-3.228 0-.349.043-.658.122-.91.08-.254.19-.452.345-.626ZM112.791 116.904c2.315 1.116 4.91 1.683 4.96 1.698a1.3 1.3 0 1 0 .565-2.538l-.039-.009a25.785 25.785 0 0 1-2.59-.765c-1.25-.435-2.652-1.09-3.344-1.713a1.3 1.3 0 1 0-1.715 1.954v-.001c.64.559 1.389.996 2.163 1.374ZM165.988 56.595a2.11 2.11 0 0 0-.404-.392 1.522 1.522 0 0 0-.902-.304c-.202-.002-.46.05-.683.175a1.294 1.294 0 0 0-.293.221c-.269.276-.415.52-.541.724-.058.096-.104.18-.139.244-.602.685-.92 1.502-.913 2.259.003.724.242 1.36.616 1.854.189.248.414.466.696.64.28.172.628.307 1.049.31.149 0 .309-.032.466-.074l.003.01c.019-.004.037-.014.057-.019.009-.003.017-.001.026-.004l-.001-.005c.638-.172 1.208-.603 1.51-1.125.322-.544.408-1.104.41-1.607a5.258 5.258 0 0 0-.471-2.087 3.856 3.856 0 0 0-.486-.82ZM184.866 63.536c-1.21-.332-1.99-.812-2.464-1.186a3.919 3.919 0 0 1-.487-.452l-.09-.107-.009-.013-.002.002a1.297 1.297 0 0 0-2.183.067c-.004.01-.545.894-1.354 1.75-.402.427-.871.845-1.343 1.147-.474.305-.938.484-1.344.52a1.3 1.3 0 1 0 .237 2.59v-.001c.973-.09 1.822-.474 2.545-.942 1.085-.709 1.925-1.625 2.525-2.37l.038-.049c.723.547 1.772 1.15 3.245 1.552a1.3 1.3 0 1 0 .686-2.508ZM194.345 54.988a2.614 2.614 0 0 0-.324-.511 1.732 1.732 0 0 0-.369-.336 1.577 1.577 0 0 0-.433-.186 1.403 1.403 0 0 0-.439-.08c-.431.007-.7.165-.88.288-.311.228-.456.439-.606.663a4.638 4.638 0 0 0-.504 1.127c-.127.42-.215.884-.216 1.385.002.54.104 1.153.473 1.728.344.55.959.973 1.646 1.146l-.002.005c.011.003.022.002.032.005.027.006.053.02.081.025l.003-.012c.136.033.274.064.413.064a1.858 1.858 0 0 0 1.078-.357c.404-.293.654-.655.839-1.056.181-.402.285-.853.286-1.342.01-.758-.31-1.612-.959-2.293a4.259 4.259 0 0 0-.119-.263Z"/><path d="M259.028 54.664c-.039-.005-13.96-2.261-28.64-2.263-4 .002-8.047.177-11.905.608-.442-2.43-.884-4.766-1.324-7.004l3.135 1.295v-.002a4.982 4.982 0 0 0 1.946.393 5.19 5.19 0 0 0 2.648-.724 4.578 4.578 0 0 0 1.883-2.127l.012-.029c.625-1.597.587-3.255.596-4.523l-.013-.183c-.146-1.018-.443-1.972-1-2.791a4.604 4.604 0 0 0-2.317-1.763l.001-.004-5.53-2.248c-.157-.09-.305-.188-.475-.263a1.27 1.27 0 0 0-.382-.086l-2.932-1.192a1.266 1.266 0 0 0-.607-.075c-2.109-9.238-3.664-14.718-3.669-14.738a1.294 1.294 0 0 0-.618-.78 1.294 1.294 0 0 0-.99-.114c-.199.059-.325.122-.458.19-.25.132-.497.292-.791.495-1.084.752-2.761 2.098-4.726 3.733a415.096 415.096 0 0 0-5.37 4.566c-.059-.034-.104-.082-.169-.107l-17.712-6.87a8.623 8.623 0 0 0-.888-.442 1.269 1.269 0 0 0-.619-.081c-.036-.004-.071-.02-.106-.021l-9.478-.244-.967-.582a1.3 1.3 0 0 0-1.341 2.228l1.038.624 6.396 8.636c.147.198.353.355.584.442l9.807 3.709c-1.631-.013-3.357-.02-5.102-.02-6.712 0-13.585.082-15.536.106l-14.47-15.005a1.3 1.3 0 0 0-2.171.5c-2.15 6.594-3.908 13.447-5.354 20.338-.669-.5-2.267-1.64-4.435-2.827-2.868-1.564-6.719-3.224-10.8-3.503-1.514-.101-4.133-.18-7.447-.234a718.854 718.854 0 0 0-11.52-.085c-6.664 0-13.875.075-19.8.247-2.963.086-5.604.196-7.703.335-1.05.07-1.965.146-2.725.231-.765.088-1.36.177-1.847.304-2.595.687-5.347 2.08-7.936 3.885-2.577 1.801-4.984 4.015-6.842 6.403-.003.002-.004.005-.006.008l-.015.017h.002c-.226.303-.285.51-.36.733-.127.419-.206.89-.284 1.502-.265 2.111-.433 5.816-.543 10.69C59.045 60.817 59 66.823 59 73.42c0 14.78.226 32.523.472 46.983.123 7.23.251 13.639.359 18.447.108 4.814.194 7.998.236 8.861a1.3 1.3 0 0 0 2.597-.129c-.039-.774-.127-3.995-.234-8.79-.322-14.406-.83-43.24-.83-65.372 0-8.027.067-15.173.233-20.416.083-2.62.19-4.768.324-6.29.067-.76.14-1.365.213-1.77.034-.188.067-.327.09-.404 1.659-2.122 3.872-4.165 6.23-5.81 2.385-1.669 4.921-2.929 7.11-3.504.247-.066.778-.156 1.475-.233 2.463-.279 7.072-.483 12.477-.611a762.884 762.884 0 0 1 17.46-.186c4.202 0 8.184.03 11.477.084 3.29.054 5.903.134 7.317.229 3.475.226 7.053 1.723 9.725 3.19a37.366 37.366 0 0 1 3.224 1.983 28.6 28.6 0 0 1 1.119.81l.055.042.013.01c.223.177.486.246.75.258a266.683 266.683 0 0 0-2.002 11.388c-4.544-.65-10.357-1.232-16.602-1.233-6.159 0-12.739.566-18.945 2.22a1.3 1.3 0 1 0 .67 2.513c5.905-1.576 12.276-2.134 18.275-2.134 6.079 0 11.768.57 16.218 1.207a314.612 314.612 0 0 0-.816 6.053c-3.237-.395-6.851-.613-10.59-.613-4.146 0-8.418.255-12.407.801-3.99.549-7.695 1.382-10.735 2.574a1.3 1.3 0 0 0 .95 2.42c2.753-1.082 6.289-1.891 10.138-2.417 3.85-.528 8.015-.778 12.054-.778 3.644 0 7.163.213 10.276.593a363.857 363.857 0 0 0-.917 8.744c-.48-.012-.976-.02-1.485-.026-.047-1.12-.202-2.512-.699-3.85-.315-.834-.772-1.66-1.49-2.326a4.47 4.47 0 0 0-2.783-1.174v-.004c-.013-.001-.028 0-.041-.002l-.018-.002v.001a3.988 3.988 0 0 0-.346-.018 3.882 3.882 0 0 0-2.225.706c-.757.53-1.243 1.194-1.588 1.778-.638-.31-1.454-.611-2.431-.617a3.953 3.953 0 0 0-2.652.997l-.062.059a3.126 3.126 0 0 0-.745 1.202 3.873 3.873 0 0 0-.197 1.248c.006.73.166 1.393.361 1.973a6.71 6.71 0 0 0-1.606.342c-.477.174-.969.43-1.395.857a2.766 2.766 0 0 0-.241.282 83.967 83.967 0 0 0-8.2 1.842 1.3 1.3 0 1 0 .703 2.504 80.751 80.751 0 0 1 6.947-1.614c.13.613.411 1.151.74 1.585.515.676 1.141 1.174 1.723 1.553a6.036 6.036 0 0 0-.863 1.09c-.31.519-.567 1.156-.569 1.901-.002.456.106.94.328 1.383l.001.001c.337.677.868 1.201 1.469 1.593.907.589 1.985.928 3.177 1.151 1.193.22 2.506.309 3.876.31.464 0 .938-.024 1.411-.044 1.872 1.988 4.275 3.672 6.834 5.544.204.15.437.207.671.224-.074 1.635-.14 3.222-.197 4.74-.001.051.02.094.024.143a812.648 812.648 0 0 0-7.921-1.242 20.077 20.077 0 0 0-.883-3.237c-.403-1.07-.939-2.179-1.746-3.103a5.197 5.197 0 0 0-1.461-1.18 4.157 4.157 0 0 0-2.458-.458v-.002l-.011.002-.017.001v.003c-.967.099-1.772.6-2.298 1.19-.761.85-1.106 1.83-1.322 2.64a6.056 6.056 0 0 0-1.496-.203c-.554 0-1.166.09-1.769.363a3.79 3.79 0 0 0-1.57 1.344h-.002l-.009.015-.015.02.003.001a3.287 3.287 0 0 0-.572 1.896c.013 1.053.378 1.945.762 2.68a9.095 9.095 0 0 0-.402.118c-.636.213-1.318.509-1.925 1.033a3.363 3.363 0 0 0-.79.997 3.005 3.005 0 0 0-.325 1.373c0 .108.005.218.016.327.095 1.003.623 1.82 1.227 2.368.729.661 1.562 1.045 2.31 1.307a6.547 6.547 0 0 0-.455.851c-.221.514-.393 1.106-.394 1.769a3.468 3.468 0 0 0 .524 1.843c.509.819 1.303 1.362 2.155 1.67.858.312 1.798.427 2.801.428 1.678-.002 3.556-.343 5.484-.873 1.127.752 2.522 1.48 4.168 2.213 1.665.739 3.568 1.477 5.627 2.205-.003.016-.014.029-.016.045-.93 6.107-1.687 13.347-2.22 20.558a1.28 1.28 0 0 0-.043.562c-.535 7.381-.832 14.7-.832 20.709 0 2.789.064 5.296.2 7.407.047.728.106 1.388.17 2.018a4.56 4.56 0 0 1-.874.085c-.763.003-1.625-.168-2.242-.447a2.589 2.589 0 0 1-.706-.443c-.155-.146-.212-.258-.236-.34l-.043-.126a3.129 3.129 0 0 1-.117-.43c-.187-.845-.367-2.502-.504-4.42-.21-2.889-.347-6.432-.431-9.244a386.472 386.472 0 0 1-.115-4.895c0-.014-.008-.025-.008-.039.288-.044.585-.068.896-.069.411.001.85.042 1.333.139a1.3 1.3 0 1 0 .514-2.548 9.175 9.175 0 0 0-1.847-.19 8.962 8.962 0 0 0-3.156.587c-1.393.521-2.528 1.238-3.602 1.766-1.081.534-2.058.89-3.232.892-.835-.002-1.802-.181-3.018-.702h.001c-1.457-.629-2.773-.889-3.952-.887-1.791-.002-3.202.592-4.313 1.09-.559.251-1.05.48-1.484.632-.436.154-.803.231-1.152.231a2.47 2.47 0 0 1-.991-.213c-.38-.161-.837-.438-1.38-.901h.001a5.917 5.917 0 0 0-2.116-1.156 7.807 7.807 0 0 0-2.309-.322c-2.233.009-4.529.706-6.754 1.349-2.214.654-4.357 1.254-6.007 1.246-.679 0-1.264-.095-1.759-.287a3.212 3.212 0 0 1-1.31-.937c-.553-.647-1.115-1.14-1.722-1.483a3.817 3.817 0 0 0-1.892-.519c-.938.002-1.733.357-2.394.769-.993.628-1.803 1.426-2.562 2.007-.376.292-.73.527-1.043.675-.315.149-.575.212-.821.212-.334-.006-.722-.098-1.333-.573a1.3 1.3 0 1 0-1.614 2.038c.933.748 1.958 1.141 2.947 1.135a4.32 4.32 0 0 0 1.558-.311l-.463 15.8a3.033 3.033 0 0 0 .42 1.796c.424.698 1.08 1.131 1.742 1.381.67.252 1.38.348 2.098.349a8.362 8.362 0 0 0 3.333-.703 5.787 5.787 0 0 0 1.434-.894c.427-.371.804-.833 1.035-1.409.193-.496.305-1.042.42-1.725.173-1.075.312-2.471.428-3.982.343.096.693.146 1.032.145 1.062-.006 2.093-.37 2.987-.984.886-.616 1.656-1.516 1.98-2.689l.007-.027c.098-.404.14-.828.184-1.37.119-1.549.166-3.973.339-6.675.571-.159 1.14-.325 1.706-.489 2.214-.653 4.361-1.253 6.024-1.245.58 0 1.094.068 1.543.207.45.139.835.344 1.194.649v.001c.698.594 1.374 1.029 2.054 1.317.678.288 1.361.42 2.004.418.742 0 1.414-.166 2.017-.379.906-.323 1.686-.74 2.47-1.048.784-.311 1.551-.525 2.462-.527.803.002 1.739.168 2.924.676l.001.001c1.478.636 2.82.914 4.044.912.173.001.337-.015.505-.026.094 1.592.151 3.083.206 4.322.032.716.064 1.349.105 1.886.044.542.087.966.184 1.371l.007.026c.324 1.173 1.094 2.073 1.98 2.689.894.614 1.926.978 2.987.984a3.79 3.79 0 0 0 1.076-.155c.03.424.061.846.095 1.242.084.988.178 1.877.287 2.622.055.373.113.711.179 1.014.057.258.121.488.201.714l-.001.001.008.02c.013.035.021.071.035.105l.003-.001c.188.563.522 1.035.913 1.401.636.591 1.408.963 2.218 1.217a8.59 8.59 0 0 0 2.508.376 7.327 7.327 0 0 0 1.253-.118c.032.154.061.32.096.463h-.001l.003.008.005.025.002-.001c.327 1.436 1.153 2.688 2.273 3.751 1.986 1.875 4.901 3.288 8.401 4.471 5.248 1.762 11.837 2.952 18.504 3.759 6.666.804 13.4 1.216 18.887 1.383h.001c.933.028 1.923.043 2.961.043 8.856-.004 21.189-1.078 31.574-4.3 5.193-1.616 9.908-3.764 13.468-6.674 1.779-1.456 3.268-3.11 4.349-4.989a14.048 14.048 0 0 0 1.874-6.273c.057-1.013.084-2.097.084-3.245-.001-2.887-.173-6.192-.46-9.719 4.638-1.83 8.64-4.916 11.829-8.292 3.478-3.688 6.002-7.698 7.339-10.908a37.112 37.112 0 0 0 1.707-5.145c.452-1.813.753-3.655.754-5.363-.006-1.624-.258-3.158-1.088-4.425a4.47 4.47 0 0 0-1.705-1.53c-.711-.361-1.534-.536-2.423-.535-.279 0-.565.017-.857.05-1.086.119-2.076.539-2.93 1.14-1.499 1.058-2.641 2.617-3.735 4.395-1.629 2.672-3.136 5.896-5.033 8.887-1.542 2.436-3.332 4.684-5.579 6.384a515.587 515.587 0 0 0-1.654-11.189 642.325 642.325 0 0 0-3.813-21.636c-.71-9.721-1.772-19.117-2.999-27.882 2.597.47 5.32 1.068 8.028 1.776 7.262 1.889 14.462 4.6 18.887 7.648a1.3 1.3 0 0 0 1.472-2.144c-4.891-3.346-12.258-6.07-19.703-8.02a111.488 111.488 0 0 0-9.073-1.962 494.06 494.06 0 0 0-.826-5.45c6.266.022 13.508.84 19.841 2.064 3.211.62 6.19 1.344 8.682 2.11 2.489.763 4.502 1.586 5.71 2.326a1.301 1.301 0 0 0 1.353-2.22c-1.539-.934-3.688-1.784-6.299-2.59-7.816-2.4-19.733-4.288-29.557-4.294-.05 0-.098.003-.148.003a496.43 496.43 0 0 0-1.025-6.025c3.682-.403 7.582-.573 11.447-.572 7.209 0 14.278.558 19.536 1.116 2.629.279 4.805.558 6.322.767a134.268 134.268 0 0 1 2.366.346 1.3 1.3 0 0 0 .416-2.566ZM77.188 163.683c-.066.547-.138 1.029-.212 1.41a4.797 4.797 0 0 1-.195.766c-.037.096-.133.243-.324.409-.281.248-.762.509-1.319.684a5.853 5.853 0 0 1-1.744.276c-.632.006-1.168-.137-1.41-.291a.572.572 0 0 1-.205-.184c-.027-.049-.05-.096-.053-.237l.003-.076.004-.061.504-17.178c.003-.13-.032-.25-.064-.37.34-.286.664-.564.969-.803.372-.295.716-.533 1.008-.678.295-.147.519-.2.709-.201.173.003.346.036.614.184.265.148.614.428 1.023.908a5.84 5.84 0 0 0 1.451 1.221c-.004.225-.02 1.036-.053 2.206-.06 2.075-.171 5.249-.361 8.122a73.28 73.28 0 0 1-.344 3.893Zm6.553-9.494a58.706 58.706 0 0 1-.1 1.801 7.367 7.367 0 0 1-.11.923c-.117.436-.461.89-.949 1.226-.482.34-1.088.527-1.505.521-.31-.001-.48-.081-.562-.152-.078-.076-.181-.175-.223-.603-.004-.047-.029-.086-.038-.132.04-.755.075-1.508.106-2.235.092-2.203.144-4.153.17-5.226.336.039.674.063 1.012.063a13.73 13.73 0 0 0 2.39-.239c-.087 1.51-.14 2.906-.19 4.053Zm38.034 3.716c-.042.428-.146.527-.224.603-.082.071-.252.151-.561.152-.418.006-1.023-.181-1.506-.521-.487-.336-.831-.789-.948-1.226a7.332 7.332 0 0 1-.112-.924c-.108-1.395-.159-3.834-.332-6.566l.017-.005c1.307-.498 2.387-1.166 3.424-1.684.028 1.449.099 4.626.238 7.989.026.627.056 1.259.087 1.889-.032.097-.075.188-.083.293Zm101.374-119.92c.505.176.802.414 1.069.794.252.367.451.907.56 1.618.006 1.22-.04 2.53-.405 3.432-.162.371-.44.678-.818.905a2.597 2.597 0 0 1-1.315.357c-.328 0-.649-.063-.938-.187l-.016-.007-2.098-.867c.787-.536 1.363-1.29 1.744-2.128.414-.92.62-1.943.621-2.985a7.49 7.49 0 0 0-.185-1.653l1.703.692.078.029Zm-5.69-2.31c.424.286.744.662.993 1.118.33.61.502 1.368.501 2.124.004.922-.263 1.825-.661 2.4a2.06 2.06 0 0 1-.64.628 1.412 1.412 0 0 1-.743.201c-.154 0-.334-.025-.539-.08a477.215 477.215 0 0 0-1.595-7.483l2.684 1.091Zm-23.843-7.262c-.091-.07-.176-.146-.287-.192l-9.822-4.04a1.3 1.3 0 1 0-.989 2.404l8.974 3.692-1.655 1.46-11.138-4.213c.175-.13.348-.26.494-.407.375-.38.637-.811.791-1.233.156-.421.207-.826.207-1.174-.001-.13-.015-.24-.026-.355.13-.123.27-.263.414-.422a5.51 5.51 0 0 0 .792-1.122c.17-.33.315-.71.382-1.138l13.56 5.26c-.585.508-1.157 1.007-1.697 1.48Zm-16.076-4.036-.004.002.004-.002Zm-6.757-4.448 6.933.178.786.305c.253.16.427.306.521.416.168.207.161.265.17.362.001.086-.031.234-.129.421-.142.28-.425.612-.672.843a4.937 4.937 0 0 1-.312.273l-.086.067-.017.013h-.002l.001.002a1.295 1.295 0 0 0-.436 1.567l-.005.002c.009.018.058.175.056.332a.784.784 0 0 1-.046.275c-.055.132-.133.287-.449.507-.302.206-.853.444-1.744.605l-4.569-6.168Zm-45.962 49.715c.221.118.408.238.533.325l.138.1.029.022a1.297 1.297 0 0 0 2.064-.62l.001.001a5.05 5.05 0 0 1 .625-1.227c.196-.277.43-.522.661-.675.235-.153.443-.227.725-.23l.142.008.06.005c.567.039.897.207 1.221.496.48.428.878 1.276 1.094 2.257.155.675.228 1.388.259 2.02-2.789.039-5.892.198-9.216.55-.042-.072-.25-.43-.452-.916-.225-.527-.414-1.196-.408-1.647 0-.175.024-.311.057-.405a.512.512 0 0 1 .102-.178c.305-.247.556-.315.897-.323.447-.007 1.026.197 1.468.437Zm4.266 15.007a1.294 1.294 0 0 0-1.055-.443 32.72 32.72 0 0 1-1.884.058c-1.669.001-3.2-.156-4.315-.477-.557-.158-1.005-.356-1.315-.56-.312-.205-.476-.399-.565-.576a.467.467 0 0 1-.056-.225c-.003-.114.047-.312.199-.563.219-.373.643-.803 1.01-1.102.183-.151.35-.274.467-.355l.133-.09.03-.02.002-.001.003-.002a1.299 1.299 0 0 0-.227-2.321 7.997 7.997 0 0 1-1.571-.855c-.357-.253-.681-.55-.88-.826a1.474 1.474 0 0 1-.224-.434 96.596 96.596 0 0 1 13.656-1.135c.123.243.316.449.571.577.039.019 1.096.548 2.689 1.08.11.037.22.034.33.041a442.717 442.717 0 0 0-.882 13.318c-2.482-1.805-4.655-3.406-6.116-5.09Zm8.379 12.776c.069-1.875.151-3.845.249-5.894.465.745.793 1.716.979 2.713.204 1.077.259 2.163.259 2.967 0 .383-.012.697-.025.923-.534-.09-1.059-.176-1.57-.26.058-.14.102-.289.108-.449Zm-14.128 11.533a1.294 1.294 0 0 0-1.139-.2c-1.975.584-3.882.93-5.351.927-.794.002-1.453-.101-1.908-.27-.461-.173-.694-.372-.841-.603a.837.837 0 0 1-.131-.468c-.002-.194.057-.454.18-.736.181-.424.5-.876.773-1.198a6.96 6.96 0 0 1 .344-.381l.097-.095.021-.021a1.3 1.3 0 0 0-.724-2.251 8.377 8.377 0 0 1-1.925-.519c-.439-.182-.842-.422-1.089-.661-.252-.249-.348-.435-.378-.689l-.003-.071a.383.383 0 0 1 .043-.193c.044-.095.191-.261.478-.425.423-.249 1.09-.443 1.629-.541.269-.051.508-.083.674-.101l.189-.018.045-.003.008-.001c.488-.028.922-.33 1.117-.778a1.304 1.304 0 0 0-.191-1.35 8.389 8.389 0 0 1-.714-1.058c-.343-.583-.613-1.32-.598-1.733.003-.218.041-.322.111-.424l.024-.036c.171-.25.324-.362.507-.45.183-.083.416-.13.692-.13.425-.002.928.12 1.303.255.188.066.344.133.448.18l.114.055.023.012h.002a1.3 1.3 0 0 0 1.911-1.063c0-.048.084-.968.394-1.77.151-.4.357-.76.564-.975.216-.218.374-.305.645-.339l.028-.003.211-.012c.281.001.505.062.743.186.411.212.861.678 1.252 1.331.591.972 1.025 2.3 1.282 3.363a19.286 19.286 0 0 1 .335 1.708l.014.096.003.025c.07.58.522 1.044 1.1 1.13l1.057.158c4.795.727 24.953 3.85 39.649 7.15a1.299 1.299 0 1 0 .57-2.536 342.103 342.103 0 0 0-8.487-1.781c.367-.593.871-1.24 1.514-1.892 1.409-1.436 3.417-2.879 5.719-3.94 2.304-1.065 4.898-1.75 7.5-1.75 3.418.011 6.837 1.136 9.927 4.223 3.157 3.164 5.027 7.102 6.104 10.993 1.077 3.886 1.353 7.707 1.352 10.543 0 1.418-.068 2.59-.135 3.401-.021.244-.04.444-.058.62-1.806.972-8.279 4.056-17.664 4.055-5.734-.126-10.278-.564-13.381-.968a76.993 76.993 0 0 1-3.544-.54l-.367-.067-.795-3.989c8.016 2.004 14.267 3.333 14.278 3.336a1.3 1.3 0 0 0 .541-2.543c-.002-.001-.588-.126-1.641-.358-3.684-.814-13.03-2.939-22.366-5.543-4.666-1.302-9.332-2.724-13.27-4.154-1.968-.715-3.755-1.432-5.261-2.13-1.505-.696-2.732-1.381-3.554-1.99Zm10.737 14.334a1.5 1.5 0 0 1 .338.966c0 .423-.162.863-.489 1.207a2.03 2.03 0 0 1-.464.347c.102-.943.208-1.872.317-2.791.116.085.218.175.298.271Zm32.429 24.385c.007 1.606.039 3.25.114 4.73-6.702-.253-13.265-1.065-19.206-2.578-5.884-1.498-11.147-3.687-15.351-6.659.074-1.338.156-2.687.247-4.045 4.197 2.612 9.118 4.534 14.463 5.896 6.163 1.569 12.891 2.396 19.733 2.656Zm7.135-5.797c.176.683.453 1.814.719 3.185.391 1.996.752 4.484.75 6.695.008 1.619-.212 3.08-.632 4.028a5.105 5.105 0 0 1-.797.145c-.422.048-.923.074-1.434.074a13.383 13.383 0 0 1-1.91-.128 5.768 5.768 0 0 1-.705-.143c-.016-.004-.024-.009-.039-.013a7.654 7.654 0 0 1-.175-.952c-.241-1.803-.317-4.955-.315-7.788 0-1.696.025-3.291.049-4.46l.019-.817a15.009 15.009 0 0 1 1.716-.117c1.076 0 1.944.123 2.531.241.085.018.15.034.223.05Zm55.927 19.334a11.435 11.435 0 0 1-1.532 5.125c-1.557 2.716-4.28 5.044-7.8 6.968-5.272 2.89-12.279 4.837-19.375 6.033-7.097 1.198-14.289 1.658-19.962 1.658-1.012 0-1.977-.015-2.885-.042h.002c-8.26-.25-19.423-1.072-28.683-2.943-4.626-.932-8.779-2.135-11.802-3.605-1.511-.733-2.735-1.531-3.594-2.35-.864-.824-1.354-1.638-1.536-2.461l-.008-.034c-.246-.977-.451-2.592-.581-4.619-.131-2.032-.194-4.492-.194-7.24-.001-3.461.103-7.386.292-11.507 4.283 2.742 9.346 4.745 14.863 6.151 6.19 1.576 12.949 2.405 19.822 2.661.083.003.156-.027.235-.038.037.293.074.588.121.845.065.348.139.659.247.96.055.151.119.301.211.462.095.159.216.336.435.515l.144.1c.313.186.617.293.941.386.961.265 2.141.364 3.318.368.782 0 1.545-.049 2.218-.159.339-.056.654-.126.96-.232.306-.113.612-.231.954-.559.086-.087.157-.182.216-.288.394-.723.652-1.52.823-2.36 1.049-.002 2.273-.016 3.468-.185.035 1.111.078 2.2.142 3.203.088 1.389.206 2.637.37 3.671.083.519.176.984.292 1.401.115.402.241.756.455 1.113l-.003.002.013.018.012.024.005-.002c.203.331.461.584.735.785.504.364 1.071.596 1.713.792.961.289 2.102.477 3.384.602 1.28.124 2.698.181 4.177.181 3.292 0 6.885-.282 9.879-.781 1.499-.251 2.845-.553 3.957-.921a9.681 9.681 0 0 0 1.501-.623c.444-.24.843-.505 1.184-.916l.046-.06c.296-.418.445-.841.576-1.313.187-.706.298-1.533.373-2.491.017-.219.025-.467.037-.7.106.002.22.003.349.003 1.429-.003 4.236-.083 6.83-.743 1.299-.336 2.558-.808 3.596-1.598a4.895 4.895 0 0 0 1.312-1.482c.335-.595.525-1.3.523-2.038 0-1.554-.071-3.921-.244-6.509 1.813-.745 3.414-1.55 4.748-2.409a16.164 16.164 0 0 0 1.785-1.326c.154 1.432.295 2.842.419 4.222a1.28 1.28 0 0 0-.174 1.129c.065.194.179.353.313.49.287 3.5.458 6.759.457 9.569 0 1.107-.026 2.144-.08 3.097Zm-12.496-27.238c.068.065.239.271.407.631.376.763.753 2.082 1.049 3.639a50.41 50.41 0 0 1 .533 3.511 1.28 1.28 0 0 0-.32.816l-.002-.001a.433.433 0 0 1-.104.143c-.15.166-.518.422-1.039.651-.782.35-1.89.657-3.096.86a22.773 22.773 0 0 1-3.736.316 17.71 17.71 0 0 1-1.662-.078l-.071-.697a99.72 99.72 0 0 0-.687-5.227 32.085 32.085 0 0 0-.346-1.825c-.01-.044-.021-.077-.031-.12a50.776 50.776 0 0 1 3.522-1.43 30.038 30.038 0 0 1 2.78-.869c.9-.229 1.742-.364 2.322-.362.208 0 .363.019.481.042Zm10.602.791c.204 1.539.399 3.077.581 4.602-.072.064-.153.115-.211.197-.485.687-1.373 1.491-2.605 2.282-.982.634-2.186 1.263-3.558 1.864a82.365 82.365 0 0 0-.271-2.542 59.14 59.14 0 0 0-.318-2.187c.016-.007.032-.004.047-.011 1.696-.787 3.213-1.643 4.471-2.563a13.09 13.09 0 0 0 1.864-1.642Zm-7.93 18.184a1.515 1.515 0 0 1-.194.771c-.214.394-.694.817-1.435 1.177-1.101.544-2.695.9-4.21 1.086a31.876 31.876 0 0 1-4.103.225 81.076 81.076 0 0 0-.056-2.808c.487.036.988.055 1.5.055 2.203-.003 4.567-.313 6.517-.921a10.26 10.26 0 0 0 1.968-.857c.009.47.013.899.013 1.272Zm-.329-7.599c.072.923.132 1.832.179 2.699-.181.199-.318.44-.347.728l-.052.097c-.091.14-.404.414-.907.664-.75.384-1.882.731-3.133.96-1.252.233-2.63.358-3.909.357-.572 0-1.119-.027-1.629-.076a139.87 139.87 0 0 0-.267-3.691c.461.031.931.052 1.414.052 2.23-.003 4.636-.313 6.601-.921.753-.237 1.442-.514 2.05-.869Zm-15.222-8.794c.197 1.312.334 2.713.333 4.083.007 2.354-.413 4.574-1.415 6.063a5.066 5.066 0 0 1-1.981 1.767c-.852.427-1.949.696-3.398.697-.321 0-.66-.013-1.016-.041l-.029-.002c-1.956-.116-3.392-.854-4.585-1.957-1.781-1.65-2.902-4.218-3.515-6.388a23.64 23.64 0 0 1-.713-3.493 44.092 44.092 0 0 1 4.415-.68 66.228 66.228 0 0 1 6.819-.361c1.863 0 3.542.092 4.749.261.118.016.227.033.336.051Zm-18.851 1.417c.167 1.216.597 3.592 1.637 6.069.742 1.754 1.795 3.569 3.349 5.024a9.696 9.696 0 0 0 6.184 2.65v.001h.017l.013.002v-.001c.409.031.806.048 1.19.048 1.771.001 3.294-.335 4.564-.972 1.913-.954 3.166-2.576 3.874-4.374.157-.394.282-.801.395-1.212l.051.506c.34 3.529.588 7.444.587 10.594.001 1.488-.056 2.808-.176 3.805a9.045 9.045 0 0 1-.215 1.213c-.04.148-.081.267-.114.347l-.035.076-.071.061c-.252.2-.976.531-1.942.801-1.457.419-3.481.778-5.679 1.021a62.925 62.925 0 0 1-6.79.381c-2.149.001-4.143-.131-5.612-.395-.732-.13-1.332-.297-1.721-.463a2.14 2.14 0 0 1-.408-.217l-.064-.054-.013-.022a2.14 2.14 0 0 1-.168-.461c-.138-.492-.273-1.283-.379-2.242-.322-2.89-.42-7.317-.419-11.361a324.676 324.676 0 0 1 .135-9.144l.021-.681a1.25 1.25 0 0 1 .323-.299c.3-.218.816-.466 1.466-.701Zm-4.517 14.232c-.914.165-2.056.198-3.127.201.006-.215.011-.431.012-.648 0-1.357-.118-2.751-.29-4.079 1.023-.002 2.213-.015 3.38-.172-.001.425-.003.855-.003 1.291 0 1.121.011 2.267.028 3.407Zm55.49-21.906c2.597-3.517 4.397-7.43 6.148-10.43.87-1.5 1.728-2.764 2.588-3.623.87-.866 1.673-1.31 2.582-1.414.206-.023.395-.034.568-.034.56.001.951.105 1.246.254.434.226.736.567.989 1.177.246.605.383 1.46.381 2.459.002 1.399-.258 3.066-.676 4.733a34.69 34.69 0 0 1-1.586 4.777c-1.181 2.853-3.569 6.674-6.828 10.122-2.819 2.988-6.289 5.695-10.176 7.376-.298-3.15-.675-6.435-1.099-9.739 2.384-1.526 4.282-3.521 5.863-5.658Zm-9.087 1.196a1.29 1.29 0 0 0-.764.599c-.362.644-1.115 1.434-2.189 2.215-.948.695-2.147 1.388-3.5 2.044a21.736 21.736 0 0 0-.291-1.111c-.25-.835-.53-1.571-.894-2.203a4.376 4.376 0 0 0-.649-.874 2.656 2.656 0 0 0-.977-.647l-.1-.032a4.802 4.802 0 0 0-1.273-.154c-.998.003-2.067.209-3.163.494-3.264.859-6.75 2.501-6.787 2.515-.078.036-.131.098-.198.146a6.028 6.028 0 0 0-1.024-.34c-.769-.179-1.696-.299-2.764-.381a46.975 46.975 0 0 0-3.547-.122c-3.581.001-7.763.312-11.177.971-1.711.333-3.225.744-4.434 1.3-.605.282-1.14.598-1.595 1.019-.448.414-.844.988-.934 1.708l-.009.116c0 .007-.09 2.599-.135 6.121-1.051.187-2.412.203-3.603.201-.073 0-.135.029-.205.041a51.891 51.891 0 0 0-1.064-4.659 1.294 1.294 0 0 0-.803-.861c-.105-.038-1.714-.613-4.262-.614-.955 0-2.041.082-3.225.305a1.3 1.3 0 0 0-1.059 1.234c0 .007-.065 1.974-.09 4.546-6.665-.257-13.19-1.068-19.099-2.573-5.675-1.443-10.765-3.537-14.892-6.35.19-2.525.407-5.049.65-7.521 1.071-.202 1.991-.685 2.64-1.376a4.354 4.354 0 0 0 1.203-2.996 4.115 4.115 0 0 0-.928-2.616c-.485-.594-1.164-1.058-1.969-1.341.162-1.242.33-2.453.505-3.619 1.329.441 2.698.877 4.101 1.306 4.427 1.351 9.124 2.628 13.463 3.739a1.276 1.276 0 0 0-.166.91l1.007 5.053c.1.503.491.902.992 1.014.069.015 6.952 1.544 18.64 1.8h.029c11.932-.005 19.448-4.668 19.575-4.744.324-.202.544-.539.6-.915.006-.048.293-2.015.293-5.017-.001-3.002-.285-7.04-1.446-11.237-1.162-4.193-3.209-8.563-6.769-12.135-3.553-3.579-7.763-4.997-11.768-4.986-4.078.004-7.949 1.405-11.053 3.307-1.552.953-2.915 2.035-4.02 3.16-1.019 1.04-1.811 2.109-2.333 3.194-.814-.156-1.629-.311-2.443-.464 1.136-3.115 3.765-6.102 7.226-8.332 3.763-2.435 8.448-3.961 12.947-3.957 1.67 0 3.314.207 4.884.647 2.477.692 4.889 2.11 7.097 3.883 3.313 2.656 6.152 6.093 8.139 8.858a59.807 59.807 0 0 1 2.311 3.459 42.113 42.113 0 0 1 .758 1.278l.047.084c.209.381.598.634 1.032.67.031.003.777.064 2.071.064 3.958-.003 13.058-.575 22.477-5.224l.048.249a656.343 656.343 0 0 1 4.194 24.527c.229 1.523.453 3.07.672 4.624Zm-9.887-69.848c-2.638.108-5.068.379-7.167.86a1.3 1.3 0 1 0 .583 2.534c1.955-.45 4.354-.712 7.002-.807.26 1.633.514 3.298.763 4.986-3.094-.443-5.939-.692-8.278-.694-.281 0-.554.004-.82.011a1.299 1.299 0 1 0 .07 2.6c.243-.007.493-.01.75-.01 2.356-.003 5.356.268 8.666.772 1.228 8.65 2.294 17.93 3.021 27.537-.073.023-.149.026-.219.062-9.074 4.648-18.087 5.224-21.875 5.221-.489 0-.886-.009-1.189-.02a60.962 60.962 0 0 0-5.28-7.523c-1.757-2.133-3.866-4.374-6.262-6.298-2.397-1.92-5.085-3.534-8.023-4.359-1.819-.51-3.7-.743-5.585-.743-5.081.004-10.191 1.684-14.358 4.373-3.952 2.56-7.07 6.048-8.394 10.04a738.612 738.612 0 0 0-9.238-1.625c.018-.248.046-.718.047-1.355-.003-1.225-.1-3.002-.62-4.767-.262-.882-.633-1.765-1.182-2.568a6.078 6.078 0 0 0-1.858-1.771c.23-4.171.532-8.624.935-13.273a88.17 88.17 0 0 1 3.355.232c1 .09 1.782.178 2.31.245.264.033.465.06.598.08l.148.021.044.007a1.3 1.3 0 1 0 .405-2.568c-.036-.006-2.531-.396-6.627-.609.259-2.773.554-5.606.892-8.484 2.641.446 4.835 1.04 6.241 1.702a1.3 1.3 0 0 0 1.102-2.354c-1.791-.834-4.198-1.46-7.03-1.93.249-1.991.518-3.997.81-6.016 1.894.31 3.474.613 4.599.847a77.675 77.675 0 0 1 1.891.417l.125.03a1.3 1.3 0 0 0 .626-2.523c-.028-.006-2.643-.656-6.856-1.346 1.638-10.642 3.923-21.529 7.122-31.8l13.345 13.838c.247.257.596.402.953.397l1.398-.017c2.666-.032 8.742-.095 14.666-.095 3.948 0 7.831.028 10.575.112.332.01.656-.108.904-.328l.769-.683a819.034 819.034 0 0 1 10.133-8.832c2.041-1.743 4.023-3.404 5.575-4.646a60.9 60.9 0 0 1 1.517-1.179c1.17 4.372 4.378 16.925 7.484 33.991-2.293.34-4.501.776-6.547 1.353a1.3 1.3 0 1 0 .707 2.502c1.937-.549 4.066-.968 6.298-1.295.329 1.869.656 3.786.979 5.748Z"/><path d="M147.347 124.12a3.535 3.535 0 0 0-1.358-.254c-.589 0-1.138.092-1.632.285a3.313 3.313 0 0 0-1.688 1.43 3.801 3.801 0 0 0-.489 1.916 4.71 4.71 0 0 0 .793 2.607c.257.378.579.724.991.993a2.71 2.71 0 0 0 1.483.452c.19 0 .38-.021.564-.061l.01-.002c.532-.118 1-.364 1.388-.671a4.587 4.587 0 0 0 1.303-1.691 4.906 4.906 0 0 0 .463-2.034c-.001-.739-.193-1.541-.759-2.201a2.856 2.856 0 0 0-1.069-.769Zm-1.159 4.214c-.12.186-.258.337-.387.438a.88.88 0 0 1-.343.176l-.011.001-.066-.032c-.091-.054-.269-.242-.395-.516a2.19 2.19 0 0 1-.206-.904c.001-.358.101-.6.227-.733a.77.77 0 0 1 .295-.191 1.9 1.9 0 0 1 .687-.107c.191 0 .301.031.36.055l.139.125c.04.071.087.226.087.444.005.365-.143.874-.387 1.244Z"/></g></svg>