<svg width="200" height="200" viewBox="0 0 200 200" xmlns="http://www.w3.org/2000/svg"><g id="type=confirmation, mode=dark"><g id="Group 432527101"><path id="Vector" d="M131.464 61.1339C131.652 61.8271 132.365 62.237 133.059 62.0497C133.752 61.8622 134.162 61.1486 133.974 60.4555L133.893 60.1557C133.706 59.4626 132.992 59.0527 132.299 59.2399C131.606 59.4274 131.196 60.141 131.383 60.8342L131.464 61.1339Z"/><path id="Vector_2" d="M135.642 59.5865C136.213 60.0145 136.934 60.3265 137.74 60.326C137.937 60.3263 138.136 60.3077 138.334 60.2706L138.342 60.2692C138.652 60.2093 138.919 60.0699 139.123 59.9127C139.482 59.6322 139.686 59.315 139.851 58.9962C140.092 58.5152 140.237 57.9962 140.341 57.4293C140.443 56.8639 140.494 56.2543 140.494 55.6266C140.489 54.4059 140.312 53.1254 139.796 51.9952C139.534 51.4325 139.177 50.8949 138.652 50.4698C138.134 50.0436 137.422 49.7679 136.68 49.7745C136.283 49.7743 135.88 49.8446 135.481 49.9769C134.611 50.2528 133.927 50.8876 133.555 51.6053C133.174 52.3263 133.041 53.1095 133.039 53.8863C133.047 55.317 133.487 56.7755 134.232 57.9962C134.609 58.6044 135.067 59.1551 135.642 59.5865Z"/><path id="Vector_3" d="M135.479 49.9775L135.481 49.9768L135.484 49.9758L135.479 49.9775Z"/><path id="Vector_4" d="M77.8805 57.3896C78.0685 58.0827 78.7826 58.4919 79.4755 58.3041C80.1686 58.1161 80.5778 57.402 80.3901 56.7092L80.309 56.4103C80.121 55.7172 79.4069 55.308 78.714 55.4958C78.0209 55.6838 77.6118 56.3979 77.7995 57.0908L77.8805 57.3896Z"/><path id="Vector_5" d="M81.8945 46.2322L81.8984 46.2312L81.8989 46.231L81.8945 46.2322Z"/><path id="Vector_6" d="M82.0598 55.8412C82.6299 56.2692 83.3516 56.5814 84.1575 56.5809C84.3538 56.5812 84.5535 56.5626 84.7517 56.5253L84.7588 56.524C85.0686 56.4642 85.3357 56.3248 85.54 56.1678C85.8992 55.8873 86.103 55.5699 86.2683 55.2511C86.5093 54.7701 86.6545 54.2511 86.7585 53.6842C86.8599 53.1185 86.9114 52.5087 86.9116 51.881C86.9065 50.6603 86.7293 49.3798 86.2131 48.2496C85.9512 47.6871 85.594 47.1495 85.0691 46.7245C84.5503 46.2982 83.8381 46.0228 83.0964 46.0294C82.7007 46.0292 82.2979 46.0995 81.8992 46.2313C81.0286 46.5072 80.3445 47.1424 79.9727 47.8607C79.5916 48.5817 79.4587 49.3644 79.457 50.141C79.4646 51.5714 79.905 53.0299 80.6494 54.2506C81.0261 54.859 81.4844 55.4098 82.0598 55.8412Z"/><path id="Vector_7" d="M83.3719 40.6753C78.006 40.8836 73.4554 44.4072 71.9363 49.2097C70.8441 52.6768 70.4906 55.9187 70.4902 58.5415C70.4904 59.9295 70.5894 61.1441 70.7346 62.1375C70.8835 63.1363 71.064 63.8911 71.2876 64.4624C71.4839 64.9531 71.6934 65.4878 71.9934 66.0352C72.4354 66.8528 73.1337 67.7071 74.2028 68.2761C75.2694 68.8499 76.6237 69.147 78.4066 69.1717C78.8358 69.1768 79.2386 69.18 79.62 69.18C81.9877 69.177 83.4637 69.0747 84.67 68.7515C85.2697 68.5899 85.7953 68.3623 86.2565 68.0864C86.7194 67.8106 87.1117 67.499 87.504 67.1704C88.5617 66.2673 89.2269 64.9805 89.7628 63.4739C90.5534 61.2095 91.0087 58.3765 91.306 55.3877C91.6005 52.4024 91.7252 49.2708 91.7972 46.4834L91.7975 46.46L91.7982 46.3569C91.8007 44.8311 91.0665 43.3333 89.7259 42.4148L88.9908 43.4871L89.7255 42.4146C87.8473 41.125 85.7753 40.6624 83.8512 40.6655C83.6888 40.6656 83.5292 40.669 83.3719 40.6753ZM89.1984 46.357L89.1979 46.4182C89.1039 50.0945 88.9135 54.3421 88.3778 57.9258C88.1117 59.7161 87.757 61.3401 87.3092 62.6138C86.869 63.8921 86.3114 64.7915 85.8324 65.179C85.4784 65.4763 85.1981 65.6912 84.9266 65.8523C84.5201 66.0901 84.1051 66.2549 83.298 66.3867C82.4969 66.5149 81.3334 66.5808 79.62 66.5801C79.2535 66.5801 78.8605 66.5769 78.4401 66.5718C77.4323 66.5586 76.681 66.44 76.1305 66.2713C75.3036 66.0091 74.9218 65.6887 74.5834 65.2647C74.2499 64.8384 73.994 64.24 73.7032 63.501C73.6019 63.2547 73.4296 62.6148 73.3072 61.7605C73.181 60.9009 73.09 59.8045 73.0902 58.5415C73.0897 56.1519 73.4149 53.1663 74.4161 49.991C75.5787 46.2754 79.2001 43.4283 83.4723 43.2735C83.6017 43.2683 83.7272 43.2654 83.8512 43.2654C85.3788 43.2686 86.8722 43.614 88.2555 44.5591C88.8685 44.9805 89.1959 45.6492 89.1984 46.357Z"/><path id="Vector_8" d="M126.803 48.897C126.299 52.4946 125.876 56.7644 125.875 60.6103C125.876 62.6567 125.993 64.5818 126.3 66.2534C126.455 67.0898 126.656 67.864 126.929 68.5669C127.202 69.2686 127.545 69.9043 128.016 70.4429C128.434 70.9206 128.913 71.3315 129.456 71.6575C130.274 72.1494 131.198 72.4424 132.298 72.6643C133.401 72.886 134.702 73.042 136.359 73.2236C136.875 73.2798 137.357 73.3069 137.811 73.3069C139.572 73.3145 140.959 72.8691 141.98 72.1165C143.003 71.3677 143.61 70.4153 144.115 69.5772C144.359 69.1653 144.589 68.6484 144.831 67.9841C145.542 66.0051 146.286 62.7546 146.289 58.7798C146.289 57.4009 146.198 55.9373 145.982 54.4158C145.272 49.446 141.329 45.3066 136.051 44.3567C135.381 44.2368 134.685 44.1668 133.971 44.1668C132.521 44.1655 130.99 44.4587 129.497 45.1902C127.994 45.9255 127.021 47.3415 126.803 48.897ZM130.64 47.5259C131.753 46.9824 132.863 46.7678 133.971 46.7666C134.515 46.7666 135.058 46.8201 135.592 46.916C139.784 47.6653 142.869 50.9595 143.408 54.7812C143.605 56.1733 143.689 57.5154 143.689 58.7798C143.689 61.2075 143.381 63.3511 142.992 65.01C142.799 65.8389 142.585 66.5469 142.385 67.1018C142.187 67.654 141.992 68.0635 141.884 68.2419C141.418 69.0234 140.995 69.6201 140.449 70.0151C139.901 70.4062 139.179 70.6995 137.811 70.707C137.461 70.707 137.072 70.6858 136.641 70.6389C134.455 70.4023 132.963 70.2021 131.97 69.9145C131.472 69.7717 131.103 69.614 130.797 69.4299C130.491 69.2446 130.238 69.0317 129.97 68.728C129.767 68.4992 129.546 68.1279 129.353 67.6259C129.059 66.8742 128.83 65.843 128.686 64.6421C128.54 63.4402 128.475 62.0673 128.475 60.6103C128.474 56.9536 128.885 52.7702 129.378 49.2583C129.481 48.5329 129.932 47.8711 130.639 47.5261L130.068 46.3581L130.64 47.5259Z"/><path id="Vector_9" d="M91.6409 36.8316C91.9205 37.3311 92.1324 37.7755 92.2718 38.0894C92.3416 38.2462 92.3934 38.3705 92.4266 38.4527L92.4625 38.5435L92.4701 38.5631L92.4705 38.5643C92.7196 39.2376 93.4674 39.5814 94.141 39.3324C94.8143 39.0831 95.158 38.3353 94.909 37.662L94.9088 37.6617C94.8922 37.6175 94.5621 36.7289 93.9102 35.5623C93.255 34.3968 92.2879 32.9461 90.9139 31.786C90.3641 31.3238 89.5443 31.3949 89.0824 31.9447C88.6202 32.4942 88.6912 33.314 89.241 33.7762C90.2457 34.6158 91.0848 35.8311 91.6409 36.8316Z"/><path id="Vector_10" d="M129.757 34.7405C128.223 35.6795 127.047 36.9675 126.223 38.0205C125.403 39.0752 124.942 39.9033 124.919 39.9446C124.571 40.5725 124.798 41.364 125.426 41.7122C126.054 42.0601 126.845 41.8333 127.194 41.2053L127.193 41.2051L127.194 41.2039C127.222 41.1533 127.642 40.4182 128.342 39.533C129.039 38.6465 130.024 37.6179 131.11 36.9602C131.723 36.5864 131.917 35.7866 131.543 35.1738C131.169 34.5608 130.37 34.3667 129.757 34.7405Z"/><path id="Vector_11" d="M63.9681 73.7745C63.5921 73.4761 63.3958 73.2213 63.3033 73.0338C62.9827 72.3912 62.2021 72.1302 61.5598 72.4508C60.9173 72.7713 60.6563 73.5518 60.9769 74.1944C61.2895 74.8192 61.7657 75.3448 62.3502 75.8099C63.2313 76.5067 64.3747 77.0965 65.8454 77.6851C67.1611 78.2093 68.7581 78.7269 70.6403 79.2625L71.936 83.0049C72.0574 83.356 72.3273 83.6417 72.6711 83.7825C73.0148 83.9236 73.4077 83.9095 73.7407 83.7449L78.5891 81.347C85.3171 82.8367 94.2348 84.2068 105.77 85.0667C112.718 85.5836 118.711 85.7986 123.861 85.7986C127.315 85.7986 130.378 85.6998 133.109 85.5328L137.856 88.5491C138.157 88.7405 138.53 88.7999 138.876 88.711C139.222 88.6221 139.52 88.3904 139.692 88.0777L141.553 84.6912C144.012 84.4337 146.094 84.0601 147.774 83.5716C149.613 83.0289 151.003 82.3846 151.987 81.4793C152.512 80.9893 152.54 80.1668 152.05 79.6422C151.56 79.1173 150.738 79.0889 150.213 79.5789L150.213 79.5787C149.739 80.0338 148.665 80.6112 147.047 81.0753C145.429 81.5469 143.275 81.9344 140.619 82.1788C140.191 82.2181 139.806 82.4703 139.599 82.8475L138.081 85.6114L134.151 83.1143C133.916 82.9652 133.647 82.8963 133.37 82.9144C130.598 83.0936 127.441 83.1988 123.861 83.1988C118.783 83.1988 112.854 82.9866 105.963 82.4737C94.2788 81.6029 85.3364 80.2061 78.7082 78.711C78.415 78.6448 78.1152 78.6807 77.8459 78.814L73.9099 80.7606L72.8762 77.7737C72.7368 77.3712 72.405 77.0596 71.9946 76.9461C69.1584 76.1624 67.0385 75.4344 65.6026 74.7464C64.8851 74.4041 64.3414 74.0723 63.9681 73.7745Z"/><path id="Vector_12" d="M113.939 77.9727L114.819 76.4297C115.175 75.8062 114.958 75.0123 114.334 74.6566C113.71 74.3009 112.916 74.5181 112.561 75.1419L111.681 76.6849C111.325 77.3084 111.542 78.1024 112.166 78.4581C112.79 78.8138 113.584 78.5965 113.939 77.9727Z"/><path id="Vector_13" d="M101.497 77.5131C102.145 77.2035 102.419 76.4274 102.109 75.7797L101.436 74.3724C101.126 73.7245 100.35 73.4505 99.7025 73.7604C99.0546 74.0699 98.7806 74.8461 99.0904 75.4938L99.7633 76.901C100.073 77.549 100.849 77.8229 101.497 77.5131Z"/><path id="Vector_14" d="M29.1852 152.809C29.3913 153.276 29.7301 153.651 30.1018 153.92C30.6647 154.326 31.2976 154.541 31.9804 154.683C32.6648 154.822 33.4094 154.878 34.2088 154.879C37.2942 154.872 41.2547 154.034 44.5784 152.812C46.2391 152.195 47.73 151.488 48.8893 150.674C49.469 150.263 49.9711 149.827 50.3688 149.309C50.7604 148.797 51.0681 148.16 51.0702 147.418C51.0702 147.264 51.0566 147.108 51.0281 146.952C50.8951 146.236 50.5746 144.834 50.1193 142.92C49.7246 141.263 49.2289 139.229 48.6813 137.006C51.59 137.859 54.3026 138.402 56.5444 138.743C59.0085 139.118 60.9381 139.27 61.9029 139.378C61.9737 139.386 62.0658 139.39 62.1424 139.398C55.5646 146.838 52.3471 154.331 52.311 154.406C52.0813 154.94 52.2356 155.565 52.6872 155.93C53.1389 156.296 53.7823 156.316 54.2566 155.981L54.2608 155.977C54.3335 155.926 55.1966 155.329 56.3074 154.766C56.8617 154.484 57.4775 154.211 58.0715 154.017C58.6644 153.821 59.2362 153.709 59.6716 153.711C60.131 153.715 60.3909 153.814 60.5685 153.96C60.661 154.038 60.7511 154.141 60.8435 154.322C60.9347 154.501 61.0234 154.761 61.0804 155.122C61.1623 155.642 61.5467 156.059 62.0576 156.183C62.5648 156.306 63.0926 156.114 63.4047 155.697L63.4059 155.698L63.4163 155.685C63.4794 155.604 63.8246 155.2 64.3822 154.842C64.9443 154.481 65.6918 154.163 66.6598 154.162C66.7921 154.162 66.9354 154.177 67.0775 154.19C66.5316 155.721 65.9996 157.23 65.5118 158.641C64.5611 161.392 63.7789 163.758 63.3653 165.255C62.9503 166.763 62.5035 168.907 62.0542 171.31C60.7101 178.509 59.3738 187.976 59.3723 187.986C59.2719 188.697 59.7667 189.355 60.4777 189.455C61.1885 189.555 61.8463 189.06 61.9468 188.35C61.9472 188.347 62.0945 187.303 62.3414 185.64C62.7117 183.145 63.3046 179.267 63.9515 175.483C64.5964 171.706 65.3046 167.997 65.8717 165.947C66.25 164.574 67.0267 162.215 67.969 159.491C69.3837 155.4 71.1775 150.456 72.6163 146.539C73.3358 144.58 73.9667 142.878 74.4179 141.665C74.8688 140.452 75.1385 139.733 75.1393 139.731C75.2015 139.565 75.2262 139.394 75.2201 139.228C75.485 139.213 75.7521 139.199 76.0114 139.183C77.6915 139.081 79.2384 138.96 80.4833 138.823C81.1063 138.755 81.6532 138.682 82.1154 138.603C82.5836 138.519 82.9413 138.447 83.3121 138.304C83.9789 138.038 84.3036 137.282 84.0377 136.615C83.7716 135.948 83.0155 135.623 82.3488 135.889C82.3329 135.9 82.0514 135.979 81.6747 136.04C80.3168 136.276 77.5746 136.503 74.5929 136.659C71.6036 136.817 68.3368 136.912 65.8115 136.912C64.521 136.912 63.4169 136.885 62.6793 136.835C62.692 136.825 62.7074 136.815 62.7199 136.805C63.9261 135.838 64.3759 134.86 64.4346 134.728C64.7222 134.07 64.422 133.303 63.7643 133.016C63.1126 132.731 62.3571 133.025 62.0635 133.671L62.0601 133.669C62.0415 133.707 61.7354 134.309 60.9462 134.89C60.1527 135.468 58.877 136.068 56.7113 136.074C56.6524 136.074 56.6019 136.1 56.5451 136.107C54.2439 135.744 51.5026 135.186 48.5765 134.272C48.3815 134.211 48.1862 134.209 47.9967 134.238C47.7655 133.306 47.5293 132.357 47.2897 131.396C47.3629 131.356 47.4425 131.333 47.5092 131.278C47.5563 131.237 48.5247 130.434 49.5239 129.13C50.0231 128.476 50.5314 127.696 50.9263 126.803C51.3197 125.911 51.6027 124.899 51.6034 123.803C51.6034 123.708 51.6015 123.61 51.5967 123.51C51.5099 121.722 51.1137 119.536 50.4779 117.501L63.9951 117.809L64.2246 117.794C68.3465 117.152 72.017 116.065 75.3204 115.159C78.6234 114.248 81.5563 113.534 84.1664 113.538C84.7343 113.538 85.2885 113.571 85.8307 113.641C87.9184 113.912 89.8742 114.484 91.7106 115.557C93.546 116.633 95.2812 118.218 96.8971 120.603C97.2992 121.198 98.1073 121.354 98.7023 120.952C99.297 120.549 99.453 119.741 99.0509 119.147L99.0507 119.146C97.2516 116.484 95.2147 114.593 93.0238 113.313C90.8339 112.031 88.5089 111.365 86.1637 111.063C85.5016 110.977 84.8356 110.938 84.1664 110.938C83.4884 110.939 82.8075 110.984 82.1234 111.055C69.8899 107.593 63.0739 102.8 59.3159 98.4986C57.432 96.3417 56.3091 94.3021 55.6541 92.5868C54.9988 90.8746 54.8158 89.4735 54.8172 88.6554C54.8172 88.5357 54.8212 88.4286 54.8275 88.3363C54.8456 88.0731 54.7638 87.8358 54.6432 87.6219C54.4816 87.2252 54.1487 86.9066 53.6961 86.8231L53.6959 86.8228C50.6349 86.2579 48.8541 85.3712 47.8624 84.6866C47.6298 84.5257 47.4437 84.3773 47.2907 84.244L52.0099 78.1607C52.26 77.838 52.3444 77.4161 52.2369 77.0221C52.1297 76.6283 51.8429 76.307 51.4635 76.1561L51.4543 76.1524C51.3175 76.0973 49.8156 75.4764 47.9564 74.3477C46.4491 73.4356 44.7178 72.1795 43.2794 70.6627C43.8527 70.4205 44.7046 70.1253 45.9818 69.8267C48.8291 69.1551 53.6884 68.4654 61.7732 68.2269C62.4907 68.2057 63.0552 67.6065 63.0341 66.889C63.0128 66.1715 62.4138 65.607 61.6963 65.6283C60.3016 65.6698 59.0101 65.7254 57.7938 65.7909C57.6628 63.933 57.589 62.1124 57.589 60.3416C57.5886 54.4889 58.3221 49.1361 59.89 44.4054C62.25 37.308 66.4402 31.6058 72.9952 27.5269C79.5524 23.4537 88.5436 21.0194 100.471 20.7496C100.475 20.7494 100.479 20.7472 100.483 20.7469C103.033 20.7821 105.291 20.9854 107.018 21.6402C108.001 22.0101 108.814 22.5067 109.492 23.1964C110.169 23.888 110.727 24.786 111.14 26.034C111.342 26.6488 111.963 27.0204 112.6 26.9078C113.238 26.7953 113.694 26.2332 113.674 25.5863L113.673 25.5719C113.672 25.5338 113.67 25.4264 113.67 25.2589C113.67 24.6244 113.703 23.1261 113.932 21.285C129.532 22.7791 140.205 27.0352 146.958 33.3143C150.428 36.5399 152.898 40.3021 154.518 44.5812C156.137 48.8592 156.901 53.661 156.901 58.9273C156.901 63.516 156.313 68.4581 155.224 73.6878C153.922 73.4293 152.546 73.1668 151.074 72.901C150.367 72.7735 149.691 73.243 149.564 73.9498C149.436 74.6563 149.906 75.3326 150.612 75.4601L150.612 75.4598C159.384 77.0421 164.961 78.5145 168.32 79.5802C169.606 79.9876 170.561 80.3343 171.252 80.6056C169.824 82.2601 167.893 83.411 166.166 84.1407C165.124 84.5836 164.17 84.8768 163.486 85.0563C163.144 85.1461 162.869 85.2076 162.684 85.246C162.591 85.265 162.521 85.2784 162.476 85.2867L162.428 85.2953L162.42 85.2967C161.995 85.3658 161.629 85.6444 161.449 86.035C161.268 86.4256 161.294 86.8851 161.517 87.2533L164.888 92.8182C163.845 93.3221 161.772 94.0267 158.124 94.1991C158.105 94.2 158.089 94.2108 158.07 94.2125C158.043 94.2064 158.021 94.1886 157.992 94.1844C157.284 94.0807 156.627 94.5694 156.52 95.2765L156.518 95.2762C156.505 95.347 155.861 99.2933 151.538 103.648C147.213 107.999 139.159 112.839 124.053 114.524C119.8 114.996 115.693 115.259 111.543 115.259C111.219 115.259 110.896 115.258 110.573 115.254C109.855 115.247 109.268 115.824 109.261 116.542C109.254 117.26 109.83 117.848 110.548 117.855L110.548 117.854C110.881 117.858 111.213 117.859 111.543 117.859C114.525 117.859 117.483 117.72 120.473 117.475C120.375 117.768 120.307 118.073 120.308 118.396C120.307 118.904 120.446 119.409 120.683 119.858C121.04 120.537 121.591 121.114 122.309 121.661C123.031 122.207 123.932 122.723 125.047 123.234C125.486 123.434 126.168 123.835 126.967 124.369C129.786 126.246 134.109 129.741 137.686 132.743C139.478 134.246 141.089 135.629 142.252 136.635C142.833 137.138 143.303 137.547 143.626 137.83C143.95 138.114 144.126 138.269 144.126 138.269C144.296 138.42 144.506 138.524 144.728 138.569L159.378 141.537L159.495 141.556C161.443 141.769 162.913 142.283 164.058 142.96C165.77 143.977 166.805 145.377 167.519 146.915C167.856 147.644 168.108 148.398 168.312 149.139L165.695 148.131C165.358 148.002 165.002 148.022 164.697 148.159C164.641 148.169 164.586 148.172 164.533 148.189L155.921 148.865C155.911 148.866 155.903 148.872 155.893 148.873C155.872 148.875 155.851 148.872 155.83 148.875C155.829 148.875 155.732 148.89 155.543 148.917C154.228 149.106 148.589 149.866 144.436 149.863C143.648 149.863 142.916 149.836 142.293 149.776C141.671 149.718 141.154 149.622 140.83 149.516C139.467 149.081 137.702 148.384 136.297 147.8C135.593 147.508 134.976 147.244 134.537 147.053C134.097 146.862 133.839 146.747 133.838 146.746C133.733 146.7 133.623 146.692 133.515 146.674C132.974 140.889 131.842 135.404 130.129 130.508C129.891 129.83 129.15 129.473 128.472 129.711C127.794 129.948 127.437 130.689 127.675 131.367L127.675 131.367C130.029 138.087 131.29 146.079 131.289 154.462C131.289 162.596 130.103 171.098 127.611 179.173C127.499 179.537 127.55 179.927 127.754 180.249L132.801 188.267C133.184 188.874 133.986 189.057 134.594 188.674C135.202 188.292 135.384 187.489 135.002 186.881L130.264 179.355C132.716 171.187 133.889 162.653 133.889 154.462C133.889 152.802 133.826 151.163 133.732 149.537C134.157 149.721 134.692 149.949 135.3 150.202C136.743 150.8 138.541 151.513 140.038 151.993C140.641 152.184 141.307 152.292 142.046 152.364C142.783 152.434 143.588 152.463 144.436 152.463C148.044 152.461 152.462 151.948 154.723 151.652V153.131C154.723 153.616 154.992 154.059 155.422 154.284C155.852 154.508 156.37 154.474 156.768 154.196L159.906 152.001L161.462 154.426C161.708 154.809 162.143 155.038 162.599 155.023C163.055 155.007 163.474 154.751 163.694 154.351L165.607 150.884L169.659 152.442C170.1 152.612 170.602 152.528 170.964 152.223C171.326 151.919 171.493 151.438 171.401 150.975C171.023 149.108 170.491 146.402 168.831 143.965C168.002 142.748 166.877 141.606 165.382 140.723C163.915 139.853 162.097 139.243 159.894 138.989L145.585 136.089C144.674 135.29 141.429 132.458 137.771 129.429C135.612 127.642 133.313 125.79 131.262 124.247C130.236 123.475 129.272 122.78 128.41 122.205C127.545 121.63 126.794 121.176 126.129 120.87C124.808 120.268 123.925 119.684 123.442 119.22C123.199 118.989 123.058 118.793 122.988 118.656C122.917 118.517 122.909 118.446 122.908 118.396C122.911 118.326 122.922 118.221 123.118 117.989C123.309 117.766 123.682 117.476 124.213 117.202C124.258 117.178 124.286 117.137 124.327 117.109C124.331 117.109 124.336 117.109 124.34 117.108C140.128 115.359 148.864 110.153 153.609 105.25C157.024 101.727 158.344 98.4154 158.828 96.7594C165.09 96.3656 167.339 94.4007 167.57 94.1634C168.002 93.7401 168.085 93.0785 167.772 92.5616L164.662 87.4271C165.373 87.222 166.237 86.9349 167.183 86.5335C169.461 85.5609 172.206 83.9295 174.073 81.1859C174.239 81.076 174.388 80.9395 174.492 80.7547C174.845 80.1292 174.624 79.3363 173.998 78.9837C173.827 78.8905 170.09 76.8236 157.773 74.2113C158.891 68.8441 159.5 63.7337 159.5 58.9273C159.5 53.4117 158.702 48.2904 156.95 43.661C154.329 36.7139 149.532 30.908 142.29 26.6519C135.329 22.5548 126.132 19.8573 114.363 18.7105C114.93 16.0057 115.982 13.1087 117.736 11.1688C118.122 10.7391 118.178 10.1107 117.876 9.61898C117.573 9.12752 116.987 8.89461 116.43 9.04549C116.388 9.05745 114.434 9.58553 111.989 10.6663C109.769 11.6561 107.141 13.0824 105.147 15.1055L101.455 14.0379C100.908 13.8797 100.319 14.0977 100.007 14.574L97.5911 18.2589C90.6409 18.6256 84.6417 19.7493 79.5125 21.5692C70.7967 24.6541 64.5889 29.7894 60.6439 36.4549C56.6932 43.1187 54.9893 51.2427 54.989 60.3416C54.989 62.1719 55.0653 64.0469 55.1993 65.9549C49.8137 66.3536 46.4023 66.982 44.2191 67.5965C42.7404 68.0142 41.8191 68.4263 41.221 68.7801C40.6252 69.1331 40.3458 69.4363 40.2131 69.6338C39.9006 70.1002 39.9223 70.712 40.2671 71.1553C42.1985 73.6316 44.7405 75.4532 46.8023 76.6876C47.6161 77.1732 48.3507 77.5623 48.9518 77.8611L44.5756 83.5018C44.2583 83.9107 44.214 84.4693 44.4629 84.9234C44.5494 85.0845 45.0521 85.9068 46.3843 86.8255C47.5803 87.6526 49.4435 88.553 52.2442 89.1766C52.3058 90.3101 52.5641 91.7789 53.2249 93.514C54.3684 96.5142 56.6958 100.214 61.1095 103.81C64.7447 106.774 69.7909 109.667 76.7503 112.089C76.0526 112.267 75.3482 112.455 74.6322 112.651C71.3228 113.561 67.7953 114.596 63.923 115.207L49.4327 114.876C49.2887 114.587 49.1525 114.288 48.9914 114.023C48.4518 113.148 47.829 112.383 46.9393 111.899C46.3456 111.587 45.7142 111.439 45.0404 111.34C44.3674 111.244 43.6517 111.21 42.9249 111.209C42.7489 111.21 42.5721 111.212 42.3951 111.216C42.3226 110.931 42.2799 110.763 42.2798 110.762C42.1473 110.242 41.7178 109.876 41.2185 109.798C40.9757 109.362 40.5279 108.705 39.7673 108.049C39.3744 107.708 38.886 107.378 38.3174 107.083C38.1183 106.503 37.6428 105.183 36.9582 103.705C36.5011 102.719 35.9524 101.664 35.3124 100.697C34.6677 99.732 33.947 98.846 33.0342 98.211C32.905 98.1221 32.763 98.0708 32.6195 98.034C32.2455 97.6773 31.8142 97.3914 31.3569 97.1809C30.4921 96.784 29.5238 96.6033 28.5301 96.6018C27.1454 96.6045 25.6964 96.9563 24.4388 97.7486C23.1859 98.5323 22.1335 99.8218 21.7677 101.52C21.7677 101.521 21.7677 101.521 21.7677 101.521C21.7676 101.521 21.7674 101.521 21.7674 101.522H21.7676C21.712 101.774 21.6824 102.028 21.6824 102.281C21.6808 102.748 21.7894 103.21 21.9875 103.606C22.3376 104.307 22.9058 104.767 23.473 105.079C23.9879 105.359 24.5265 105.536 25.0583 105.666L25.5167 107.902C23.6019 108.869 22.3834 110.032 21.6334 110.879C21.5668 110.954 21.5344 111.043 21.4882 111.128C21.4208 111.106 21.3607 111.08 21.2919 111.059C20.9342 110.951 20.5687 110.895 20.2091 110.895C19.5441 110.894 18.9133 111.087 18.3854 111.4C17.5895 111.872 17.0083 112.582 16.6117 113.381C16.2167 114.182 16.0013 115.087 16 116.02C15.9998 116.998 16.2435 118.019 16.8224 118.927C17.3274 119.725 18.1117 120.397 19.0996 120.849C18.9938 120.955 18.8866 121.065 18.7784 121.183C18.3086 121.699 17.8258 122.327 17.446 123.078C17.068 123.826 16.7924 124.709 16.7922 125.685C16.791 126.407 16.9471 127.171 17.291 127.919C17.6222 128.646 18.1462 129.222 18.7328 129.644C19.6179 130.28 20.6337 130.611 21.6388 130.812C22.4576 130.972 23.2611 131.027 24.0168 131.047L29.1083 152.581L29.1852 152.809ZM65.0377 140.084L71.3967 139.967L67.3697 151.609C67.1293 151.585 66.889 151.562 66.6598 151.562C65.0519 151.561 63.7782 152.123 62.9 152.708C62.5624 152.213 62.1214 151.814 61.6272 151.558C60.9934 151.226 60.3161 151.111 59.6716 151.111C58.8084 151.114 57.9759 151.308 57.1872 151.571C56.9686 151.645 56.7567 151.729 56.545 151.813C58.2264 148.805 61.0592 144.351 65.0377 140.084ZM62.0632 133.671H62.0631L62.0598 133.669L62.0632 133.671ZM101.655 16.8021L105.184 17.8228C105.673 17.9644 106.2 17.8072 106.532 17.4207C108.112 15.5638 110.778 14.0369 113.041 13.044C113.228 12.9615 113.406 12.8875 113.586 12.8118C112.674 14.6951 112.105 16.7105 111.733 18.5689C111.539 19.5506 111.406 20.4817 111.308 21.3387C109.842 19.8616 107.968 19.0633 105.963 18.6419C104.329 18.2986 102.582 18.1878 100.768 18.1556L101.655 16.8021ZM42.9249 113.809C43.5661 113.809 44.1738 113.842 44.6715 113.913C45.1682 113.981 45.5545 114.102 45.7167 114.194C45.9607 114.313 46.3795 114.72 46.7702 115.374C47.3669 116.349 47.9181 117.807 48.3072 119.319C48.7003 120.831 48.943 122.408 48.9996 123.632L49.0034 123.803C49.0041 124.441 48.8341 125.105 48.5478 125.752C48.122 126.722 47.4366 127.632 46.8574 128.276C46.7596 128.385 46.672 128.475 46.5826 128.568C45.8076 125.474 45.0321 122.398 44.3485 119.694C44.2864 119.448 44.1432 119.255 43.9729 119.092C43.8292 118.786 43.5698 118.535 43.2253 118.415L43.2252 118.415C40.7644 117.552 39.6406 116.353 39.0394 115.331C38.7889 114.9 38.6395 114.493 38.5465 114.145C39.6673 113.995 41.3788 113.808 42.9249 113.809ZM32.9242 103.039C33.0661 102.847 33.1948 102.634 33.3134 102.409C34.0484 103.575 34.7032 104.968 35.1653 106.096C35.1704 106.108 35.1747 106.119 35.1798 106.132C34.6616 106.063 34.1175 106.016 33.5256 106.018C33.2843 106.018 33.014 106.048 32.7602 106.06L32.1698 103.887C32.4353 103.633 32.692 103.353 32.9242 103.039ZM25.4529 103.087C24.9924 102.958 24.6258 102.771 24.4608 102.622L24.3168 102.451C24.2969 102.407 24.2839 102.373 24.2823 102.281L24.3071 102.079L23.0375 101.8L24.3074 102.077C24.5281 101.1 25.063 100.44 25.8301 99.9451C26.5929 99.4576 27.5972 99.199 28.5301 99.2017C29.1971 99.2003 29.8199 99.3331 30.2674 99.5418C30.7222 99.7527 30.9713 100.011 31.0804 100.247C31.1575 100.415 31.1778 100.534 31.1791 100.653C31.181 100.866 31.0873 101.149 30.8318 101.496C30.4585 102.013 29.7577 102.563 29.1566 102.936C28.8566 103.125 28.5829 103.276 28.3891 103.376C28.359 103.392 28.3456 103.398 28.3196 103.411C28.2789 103.411 28.246 103.412 28.197 103.412C27.6013 103.416 26.3749 103.358 25.4529 103.087ZM27.2123 109.969C27.9064 109.66 28.7145 109.375 29.6611 109.141C30.5633 108.918 31.3808 108.776 32.1192 108.697C32.6251 108.642 33.0932 108.618 33.5256 108.618C35.899 108.626 37.209 109.318 37.9994 109.964L25.0013 113.156C24.682 112.844 24.3108 112.546 23.8934 112.266C24.5836 111.549 25.583 110.7 27.2123 109.969ZM19.0139 117.528C18.737 117.096 18.6002 116.571 18.6 116.02C18.5957 115.324 18.8353 114.606 19.1765 114.143C19.3451 113.909 19.5317 113.741 19.7044 113.64C19.8796 113.539 20.0331 113.497 20.2091 113.495C20.3042 113.495 20.4101 113.509 20.5368 113.547L20.9144 112.304L20.5371 113.547C22.5617 114.173 23.4325 115.127 23.9145 115.956C24.2975 116.628 24.3912 117.259 24.4127 117.554C24.3353 117.723 24.186 118.005 23.9459 118.259C23.7692 118.448 23.5543 118.62 23.2818 118.749C23.008 118.876 22.6729 118.968 22.2052 118.97C21.7479 118.97 21.1598 118.876 20.4138 118.599C19.7057 118.332 19.2947 117.961 19.0139 117.528ZM25.9676 128.411C25.5665 128.442 25.0781 128.468 24.5427 128.468C23.5151 128.47 22.3308 128.367 21.4038 128.077C20.9399 127.935 20.5455 127.748 20.2564 127.538C19.9654 127.325 19.7795 127.105 19.655 126.836C19.4629 126.414 19.3934 126.045 19.3922 125.685C19.3921 125.203 19.5279 124.724 19.7671 124.249C20.1217 123.54 20.7146 122.876 21.2212 122.414C21.4736 122.182 21.7024 122 21.8626 121.879L21.8665 121.876L22.2252 123.375C22.3197 123.77 22.5926 124.063 22.9317 124.227C23.0931 124.375 23.2787 124.498 23.5077 124.55C24.0833 124.682 24.4784 124.892 24.7872 125.141C25.2447 125.514 25.5366 126.015 25.7241 126.603C25.9099 127.186 25.9703 127.833 25.9692 128.354C25.9692 128.375 25.9678 128.391 25.9676 128.411ZM27.8221 124.877C27.5078 124.251 27.0547 123.633 26.4282 123.124C25.9259 122.714 25.3111 122.387 24.6085 122.163L24.3563 121.109C24.4068 121.085 24.4621 121.066 24.5108 121.042C25.4686 120.555 26.0725 119.841 26.4354 119.269C26.7995 118.692 26.9389 118.239 26.9637 118.16C26.9906 118.069 27.0106 117.955 27.016 117.861L27.0196 117.707C27.018 117.362 26.9693 116.497 26.5467 115.453L35.8005 113.181C35.8022 113.714 35.8958 115.087 36.7894 116.634C37.633 118.106 39.2374 119.667 41.9198 120.695C43.1451 125.543 44.6448 131.506 45.9074 136.617C46.5542 139.234 47.1384 141.626 47.5899 143.523C48.0399 145.41 48.3613 146.827 48.4701 147.418L48.451 147.485C48.4155 147.582 48.2772 147.801 48.0038 148.056C47.5301 148.509 46.6825 149.052 45.6279 149.554C44.0441 150.314 41.9951 151.007 39.9402 151.497C37.8866 151.99 35.8137 152.281 34.2089 152.279C33.3142 152.281 32.5654 152.184 32.1003 152.034C31.8675 151.961 31.7107 151.877 31.634 151.819L31.5909 151.782L26.6677 130.959C27.09 130.917 27.3561 130.877 27.3752 130.874C27.9222 130.79 28.3569 130.367 28.456 129.822C28.4654 129.768 28.5687 129.192 28.5692 128.354C28.5653 127.416 28.449 126.135 27.8221 124.877Z"/><path id="Vector_15" d="M162.653 172.741C163.791 171.177 163.446 168.988 161.883 167.851L161.882 167.851C160.546 166.88 158.772 165.738 156.626 164.425C152.878 162.135 148.02 159.355 142.818 156.456C132.821 150.887 121.569 144.895 114.769 141.305C118.076 139.911 122.194 138.311 126.58 136.679C134.209 133.839 142.648 130.893 149.171 128.661C150.04 128.363 150.872 128.08 151.667 127.81V133.571C151.667 134.289 152.249 134.871 152.967 134.871C153.685 134.871 154.267 134.289 154.267 133.571V126.928C155.146 126.632 155.947 126.362 156.659 126.123V128.628C156.659 129.345 157.241 129.927 157.959 129.927C158.677 129.927 159.259 129.345 159.259 128.628V125.255C159.333 125.23 159.414 125.203 159.48 125.181C160.013 125.004 160.296 124.911 160.297 124.91C161.742 124.434 162.713 123.08 162.701 121.558C162.689 120.036 161.696 118.698 160.243 118.245C160.021 118.181 159.439 118.003 158.519 117.997C157.949 117.999 157.228 118.072 156.425 118.382C155.896 118.582 155.343 118.916 154.839 119.351C150.761 120.717 143.347 123.226 135.399 126.04C129.427 128.154 123.157 130.439 117.761 132.546C116.44 133.062 115.175 133.566 113.974 134.056C113.762 127.03 113.609 119.948 113.61 114.154C113.609 111.617 113.64 109.328 113.705 107.417C113.823 107.177 113.933 106.934 114.017 106.684C114.218 106.092 114.315 105.478 114.314 104.904C114.315 103.863 114.008 103.003 113.696 102.422C113.38 101.834 113.063 101.486 112.889 101.308C111.932 100.34 110.49 100.015 109.21 100.478C107.929 100.941 107.029 102.114 106.913 103.47C106.691 106.088 106.611 109.771 106.61 114.154C106.61 120.856 106.808 129.141 107.066 137.105C106.376 137.447 105.733 137.78 105.172 138.103C104.069 138.739 103.394 139.937 103.421 141.21C103.448 142.482 104.173 143.651 105.302 144.239C105.304 144.24 105.974 144.589 107.175 145.219C107.23 145.248 107.298 145.283 107.355 145.313C107.378 145.94 107.402 146.562 107.426 147.174C107.833 157.68 108.24 165.795 108.241 165.804C108.324 167.473 109.566 168.805 111.148 169.074V173.418C111.148 174.135 111.73 174.717 112.448 174.717C113.166 174.717 113.748 174.135 113.748 173.418V168.483C114.695 167.814 115.294 166.696 115.232 165.453L115.232 165.453C115.232 165.452 115.207 164.951 115.162 164.03C115.042 161.528 114.781 155.944 114.507 149.086C116.046 149.902 117.724 150.794 119.501 151.743V158.858C119.501 159.576 120.083 160.158 120.801 160.158C121.519 160.158 122.101 159.576 122.101 158.858V153.134C125.454 154.932 129.05 156.874 132.65 158.842C137.962 161.746 143.268 164.701 147.746 167.296C149.985 168.594 152.016 169.801 153.729 170.861C155.293 171.828 156.578 172.67 157.497 173.323C157.424 173.485 157.381 173.661 157.381 173.849V179.242C157.381 179.96 157.963 180.542 158.681 180.542C159.398 180.542 159.981 179.96 159.981 179.242V174.162C161.006 174.115 162.002 173.635 162.653 172.741Z"/><path id="Vector_16" d="M94.0413 153.832C94.844 152.161 95.4185 150.383 95.74 148.539C97.4851 148.33 98.8382 146.857 98.8264 145.058C98.8069 142.957 98.3369 140.497 97.2661 137.851C95.6634 133.902 92.6353 129.568 87.6231 126.263C82.6165 122.952 75.708 120.747 66.6227 120.755C65.8963 120.754 65.1559 120.769 64.4014 120.797C60.9533 120.927 57.4297 121.33 54.0157 122.168C51.4558 122.798 48.9552 123.674 46.6083 124.883C43.0932 126.689 39.908 129.284 37.5885 132.826C35.2627 136.363 33.857 140.783 33.6194 146C33.6048 146.308 33.5977 146.613 33.5977 146.914C33.5925 150.425 34.572 153.73 36.284 156.574C37.783 159.067 39.8159 161.201 42.2094 162.993L42.2705 176.305C42.2738 177.023 42.8585 177.603 43.5764 177.599C44.2945 177.596 44.8738 177.012 44.8705 176.293L44.8174 164.728C45.7953 165.302 46.8089 165.838 47.8673 166.314C52.7729 168.516 58.5061 169.688 64.5743 169.69L64.8133 169.69H64.8206C72.9348 169.641 80.3455 167.235 85.981 163.176L86.0469 173.395C86.0515 174.113 86.6372 174.691 87.3553 174.686C88.0733 174.682 88.6514 174.096 88.6468 173.378L88.5696 161.408C88.5691 161.311 88.5332 161.225 88.5122 161.133C89.6023 160.14 90.5943 159.07 91.481 157.932L91.5196 163.889C91.5242 164.607 92.1099 165.185 92.8279 165.18C93.5459 165.176 94.1241 164.59 94.1194 163.872L94.055 153.897C94.055 153.874 94.0427 153.855 94.0413 153.832ZM89.0393 145.198C89.0367 147.447 88.4446 149.584 87.3098 151.616C85.6131 154.656 82.6377 157.432 78.7249 159.436C74.8184 161.441 70.006 162.664 64.7834 162.69H64.7907L64.5742 162.69C57.694 162.699 51.4589 160.871 47.1842 157.964C45.0412 156.514 43.39 154.815 42.2878 152.975C41.1867 151.128 40.6027 149.149 40.5976 146.914C40.5976 146.72 40.6021 146.526 40.6114 146.334L40.6116 146.329C40.7886 142.611 41.6503 139.764 42.9365 137.493C43.9057 135.789 45.1254 134.39 46.5845 133.2C48.7682 131.419 51.5219 130.118 54.6376 129.242C57.7484 128.365 61.2007 127.92 64.6642 127.792C65.3342 127.767 65.9865 127.754 66.6227 127.754C67.1963 127.755 67.7508 127.769 68.2984 127.788L68.3233 131.624C68.3279 132.342 68.9137 132.92 69.6317 132.916C70.3496 132.911 70.9279 132.325 70.9232 131.607L70.8997 127.959C74.2529 128.281 77.0752 128.968 79.4343 129.885C83.9876 131.666 86.8941 134.263 88.8013 136.931C87.9505 137.885 87.6436 139.263 88.1436 140.535L88.1433 140.534C88.7217 142.008 89.0276 143.531 89.0393 145.119V145.198Z"/></g></g></svg>