<svg xmlns="http://www.w3.org/2000/svg" width="200" height="200" fill="none"><path fill="#BEBEC9" d="M96.838 116.654h6.325a2.3 2.3 0 0 0 2.3-2.3v-5.161h5.16a2.3 2.3 0 0 0 2.3-2.3v-6.324a2.298 2.298 0 0 0-2.3-2.3h-6.324a2.299 2.299 0 0 0-2.3 2.3v5.16h-3.997v-5.16a2.3 2.3 0 0 0-2.3-2.3h-6.325a2.3 2.3 0 0 0-2.3 2.3v6.324a2.3 2.3 0 0 0 2.3 2.3h5.161v5.161a2.3 2.3 0 0 0 2.3 2.3Zm-2-10.061h-5.16v-5.725h5.724v5.161c.003.23.041.458.113.677a2.258 2.258 0 0 0-.677-.113Zm9.648.113c.071-.218.11-.447.113-.677v-5.161h5.724v5.725h-5.16c-.23.003-.459.041-.677.113Zm-6.784 1.623h4.597a2.26 2.26 0 0 0 .677-.113 2.26 2.26 0 0 0-.113.677v5.161h-5.725v-5.161a2.283 2.283 0 0 0-.113-.677c.218.072.447.11.677.113ZM67.859 93.409h4.597a2.3 2.3 0 0 0 2.3-2.3V86.51a2.3 2.3 0 0 0-2.3-2.3h-4.597a2.3 2.3 0 0 0-2.3 2.3v4.598a2.3 2.3 0 0 0 2.3 2.3Zm.3-2.6V86.81h3.997v3.997h-3.997Z"/><path fill="#BEBEC9" d="M66.994 60.965a2.3 2.3 0 0 0-2.3 2.3v5.16h-5.16a2.301 2.301 0 0 0-2.3 2.3v28.707a2.3 2.3 0 0 0 2.3 2.3h21.245a2.301 2.301 0 0 0 2.3-2.3V63.265a2.3 2.3 0 0 0-2.3-2.3H66.995Zm.3 7.76v-5.16H80.48v35.567H59.833V71.026h5.16a2.3 2.3 0 0 0 2.3-2.3ZM127.544 84.21a2.299 2.299 0 0 0-2.3 2.3v4.599a2.301 2.301 0 0 0 2.3 2.3h4.597a2.3 2.3 0 0 0 2.3-2.3V86.51a2.302 2.302 0 0 0-2.3-2.3h-4.597Zm4.297 2.6v3.999h-3.997V86.81h3.997Z"/><path fill="#BEBEC9" d="M133.006 60.965H119.22a2.3 2.3 0 0 0-2.3 2.3v36.167a2.3 2.3 0 0 0 2.3 2.3h21.246a2.3 2.3 0 0 0 2.3-2.3V70.726a2.301 2.301 0 0 0-2.3-2.3h-5.16v-5.161a2.3 2.3 0 0 0-2.3-2.3Zm2 10.06h5.16v28.107H119.52V63.565h13.186v5.16a2.3 2.3 0 0 0 2.3 2.3Z"/><path fill="#BEBEC9" d="M170.309 49.507a2.3 2.3 0 0 0 2.3-2.3V25.961a2.301 2.301 0 0 0-2.3-2.3h-5.161v-5.16a2.302 2.302 0 0 0-2.3-2.3h-21.246a2.3 2.3 0 0 0-2.3 2.3v5.16h-5.161a2.3 2.3 0 0 0-2.3 2.3v5.161h-3.996v-5.16a2.302 2.302 0 0 0-2.3-2.3h-51.09a2.3 2.3 0 0 0-2.3 2.3v5.16h-3.997v-5.16a2.3 2.3 0 0 0-2.3-2.3h-5.16V18.5a2.3 2.3 0 0 0-2.3-2.3H37.152a2.3 2.3 0 0 0-2.3 2.3v5.161H29.69a2.3 2.3 0 0 0-2.3 2.3v21.246a2.3 2.3 0 0 0 2.3 2.3h5.16v33.84h-5.16a2.3 2.3 0 0 0-2.3 2.3v28.707a2.3 2.3 0 0 0 2.3 2.3h5.16v5.161a2.303 2.303 0 0 0 2.3 2.3h5.161v5.16a2.3 2.3 0 0 0 2.3 2.3h12.622v3.997H44.612a2.302 2.302 0 0 0-2.3 2.3v5.161h-5.16a2.302 2.302 0 0 0-2.3 2.3v13.785a2.3 2.3 0 0 0 2.3 2.3h5.16V181.5a2.299 2.299 0 0 0 2.3 2.3h7.325a1.3 1.3 0 0 0 1.3-1.3v-13.621h12.621a2.297 2.297 0 0 0 2.3-2.3v-5.161h5.161a2.3 2.3 0 0 0 2.3-2.3v-13.785a2.299 2.299 0 0 0-2.3-2.3h-5.16v-3.997h63.682v3.997h-5.16a2.3 2.3 0 0 0-2.3 2.3v13.785a2.3 2.3 0 0 0 2.3 2.3h5.16v5.161a2.3 2.3 0 0 0 2.3 2.3h12.622V181.5a2.3 2.3 0 0 0 2.3 2.3h6.324a2.3 2.3 0 0 0 2.3-2.3v-20.082h5.161a2.3 2.3 0 0 0 2.3-2.3v-13.785a2.3 2.3 0 0 0-2.3-2.3h-5.161v-5.161a2.3 2.3 0 0 0-2.3-2.3H149.5a1.301 1.301 0 1 0 0 2.6h5.587v5.161a2.305 2.305 0 0 0 2.3 2.3h5.161v13.185h-5.161a2.3 2.3 0 0 0-2.3 2.3V181.2h-5.724v-12.621a2.3 2.3 0 0 0-2.3-2.3h-12.622v-5.161a2.3 2.3 0 0 0-2.3-2.3h-5.16v-13.185h5.16c.61 0 1.195-.242 1.626-.674a2.296 2.296 0 0 0 .674-1.626v-4.597a2.3 2.3 0 0 0-2.3-2.3H67.858a2.3 2.3 0 0 0-2.3 2.3v4.597a2.3 2.3 0 0 0 2.3 2.3h5.161v13.185h-5.16a2.302 2.302 0 0 0-2.3 2.3v5.161H52.936a2.302 2.302 0 0 0-2.3 2.3V181.2h-5.724v-20.082a2.3 2.3 0 0 0-2.3-2.3h-5.161v-13.185h5.16a2.297 2.297 0 0 0 2.3-2.3v-5.161h12.622a2.297 2.297 0 0 0 2.3-2.3v-4.596a2.278 2.278 0 0 0-.113-.678c.218.072.447.11.677.113h72.018a1.294 1.294 0 0 0 1.204-.801 1.296 1.296 0 0 0-.705-1.701 1.313 1.313 0 0 0-.499-.098H60.698v-5.161a2.301 2.301 0 0 0-2.3-2.3H45.776v-5.16a2.303 2.303 0 0 0-2.3-2.3h-5.16V86.81h5.16a2.301 2.301 0 0 0 2.3-2.3V56.968h5.16a2.3 2.3 0 0 0 2.3-2.3v-5.16h5.162a2.3 2.3 0 0 0 2.3-2.3v-5.16h12.621a2.3 2.3 0 0 0 2.3-2.3v-5.16h48.762v5.16a2.297 2.297 0 0 0 2.3 2.3h12.621v5.16a2.297 2.297 0 0 0 2.3 2.3h5.161v5.16a2.3 2.3 0 0 0 2.3 2.3h5.161v27.544a2.297 2.297 0 0 0 2.3 2.3h5.16v26.379h-5.16a2.3 2.3 0 0 0-2.3 2.3v5.16h-5.508a1.3 1.3 0 0 0 0 2.6h5.808a2.26 2.26 0 0 0 .677-.113c-.072.219-.11.447-.114.678v5.16h-5.421a1.299 1.299 0 0 0-.919 2.22c.244.244.574.381.919.381v-.001h5.721c.61 0 1.195-.242 1.627-.673a2.303 2.303 0 0 0 .673-1.626v-5.161h5.161a2.305 2.305 0 0 0 2.3-2.3v-5.161h5.161a2.3 2.3 0 0 0 2.3-2.3V85.647a2.301 2.301 0 0 0-2.3-2.3h-5.161v-33.84h5.161ZM35.152 114.054H29.99V85.947h5.16c.23-.004.459-.042.678-.114-.072.22-.11.448-.114.678v26.979c.004.23.042.458.113.677a2.257 2.257 0 0 0-.676-.113Zm7.46 7.461h-5.16v-5.161a2.286 2.286 0 0 0-.114-.677c.219.072.447.11.677.113h5.161v5.16c.004.231.042.459.113.678a2.259 2.259 0 0 0-.677-.113Zm2.864 1.735h12.622v5.161c.003.231.041.459.113.678a2.258 2.258 0 0 0-.677-.113H44.913v-5.161a2.278 2.278 0 0 0-.114-.678c.219.072.447.11.677.113Zm12.622-81.504v5.161h-5.161a2.3 2.3 0 0 0-2.3 2.3v5.16h-5.16a2.3 2.3 0 0 0-2.3 2.3v27.544h-5.162c-.23.003-.458.041-.677.113.072-.219.11-.447.114-.677v-34.44a2.3 2.3 0 0 0-2.3-2.3H29.99V26.261h5.16a2.3 2.3 0 0 0 2.3-2.3v-5.16h20.647v5.16a2.3 2.3 0 0 0 2.3 2.3h5.16v5.161a2.3 2.3 0 0 0 2.3 2.3h4.597c.23-.003.459-.041.677-.113-.071.219-.11.447-.113.677v5.16H60.398a2.3 2.3 0 0 0-2.3 2.3Zm66.583-9.76H75.319c-.23.004-.458.042-.677.113.072-.218.11-.447.113-.677v-5.16h50.49v5.16c.003.23.041.459.113.677a2.276 2.276 0 0 0-.677-.113Zm29.843 22.381h-5.161v-5.16a2.302 2.302 0 0 0-2.3-2.3h-5.161v-5.16a2.302 2.302 0 0 0-2.3-2.3h-12.621v-5.16a2.294 2.294 0 0 0-.113-.678c.218.072.447.11.677.113h4.596a2.3 2.3 0 0 0 2.3-2.3v-5.16h5.161a2.3 2.3 0 0 0 2.3-2.3V18.8h20.646v5.161a2.297 2.297 0 0 0 2.3 2.3h5.161v20.646h-5.161a2.3 2.3 0 0 0-2.3 2.3v34.44c.003.23.041.458.113.677a2.283 2.283 0 0 0-.677-.113h-5.16V56.667a2.3 2.3 0 0 0-2.3-2.3Zm2.186 67.261c.072-.219.11-.447.114-.678v-5.16h5.16a2.26 2.26 0 0 0 .677-.113 2.26 2.26 0 0 0-.113.677v5.161h-5.161a2.26 2.26 0 0 0-.677.113Zm7.461-7.461a2.26 2.26 0 0 0 .113-.677V86.51a2.261 2.261 0 0 0-.113-.677c.218.072.447.11.677.114h5.161v28.107h-5.161a2.26 2.26 0 0 0-.677.113Z"/><path fill="#FFE632" d="M147.926 120.65h-5.16v-5.161a2.308 2.308 0 0 0-.674-1.626 2.308 2.308 0 0 0-1.626-.674h-5.161v-5.16a2.3 2.3 0 0 0-2.3-2.3h-6.324a2.305 2.305 0 0 0-2.3 2.3v13.786a2.305 2.305 0 0 0 2.3 2.3h5.16v12.844a1.297 1.297 0 0 0 1.3 1.3h15.785a1.301 1.301 0 0 0 1.3-1.3V122.95a2.301 2.301 0 0 0-2.3-2.3Zm-13.485 15.009v-11.844c0-.61-.242-1.195-.673-1.627a2.303 2.303 0 0 0-1.627-.673h-5.16v-13.186h5.724v5.16a2.3 2.3 0 0 0 2.3 2.3h5.161v5.161c0 .61.242 1.195.673 1.627a2.303 2.303 0 0 0 1.627.673h5.161v12.409h-13.186Z"/></svg>