<svg width="200" height="200" viewBox="0 0 200 200" xmlns="http://www.w3.org/2000/svg"><g id="type=wallet-intro, mode=dark"><g id="Layer 26"><path id="Vector" d="M96.838 116.654H103.163C103.773 116.654 104.358 116.411 104.789 115.98C105.22 115.549 105.463 114.964 105.463 114.354V109.193H110.623C111.233 109.193 111.818 108.95 112.249 108.519C112.681 108.088 112.923 107.503 112.923 106.893V100.569C112.923 99.9586 112.681 99.3736 112.249 98.9423C111.818 98.511 111.233 98.2686 110.623 98.2686H104.299C103.689 98.2686 103.104 98.5109 102.673 98.9422C102.241 99.3736 101.999 99.9586 101.999 100.569V105.729H98.0018V100.569C98.0017 99.9586 97.7594 99.3736 97.3281 98.9423C96.8967 98.511 96.3118 98.2686 95.7018 98.2686H89.3771C88.7672 98.2686 88.1822 98.511 87.7509 98.9423C87.3196 99.3736 87.0772 99.9586 87.0771 100.569V106.893C87.0772 107.503 87.3196 108.088 87.7509 108.519C88.1822 108.95 88.7672 109.193 89.3771 109.193H94.538V114.354C94.5381 114.964 94.7805 115.549 95.2118 115.98C95.6431 116.411 96.2281 116.654 96.838 116.654ZM94.838 106.593H89.6771V100.868H95.4018V106.029C95.4052 106.259 95.4434 106.487 95.515 106.706C95.2964 106.634 95.0681 106.596 94.838 106.593ZM104.486 106.706C104.557 106.488 104.596 106.259 104.599 106.029V100.868H110.323V106.593H105.163C104.933 106.596 104.704 106.634 104.486 106.706ZM97.7018 108.329H102.299C102.529 108.326 102.757 108.288 102.976 108.216C102.904 108.435 102.866 108.663 102.863 108.893V114.054H97.138V108.893C97.1346 108.663 97.0965 108.435 97.0248 108.216C97.2435 108.288 97.4717 108.326 97.7018 108.329Z"/><path id="Vector_2" d="M67.8586 93.4085H72.4558C73.0657 93.4084 73.6506 93.166 74.0819 92.7347C74.5132 92.3034 74.7556 91.7185 74.7558 91.1086V86.5109C74.7557 85.901 74.5134 85.316 74.082 84.8847C73.6507 84.4533 73.0657 84.211 72.4558 84.2109H67.8586C67.2486 84.211 66.6636 84.4533 66.2323 84.8847C65.801 85.316 65.5587 85.901 65.5586 86.5109V91.1086C65.5588 91.7185 65.8012 92.3034 66.2325 92.7347C66.6637 93.166 67.2487 93.4084 67.8586 93.4085ZM68.1586 90.8085V86.8109H72.1558V90.8085L68.1586 90.8085Z"/><path id="Vector_3" d="M66.9938 60.9648C66.3839 60.9649 65.7989 61.2073 65.3676 61.6386C64.9363 62.0699 64.6939 62.6549 64.6939 63.2648V68.4257H59.5334C58.9235 68.4259 58.3385 68.6683 57.9072 69.0996C57.4759 69.5309 57.2336 70.1158 57.2334 70.7257V99.4319C57.2335 100.042 57.4758 100.627 57.9071 101.058C58.3385 101.489 58.9234 101.732 59.5334 101.732H80.7795C81.3895 101.732 81.9744 101.489 82.4057 101.058C82.8371 100.627 83.0794 100.042 83.0795 99.4319V63.2649C83.0794 62.6549 82.8371 62.0699 82.4058 61.6386C81.9744 61.2073 81.3895 60.965 80.7795 60.9649L66.9938 60.9648ZM67.2938 68.7258V63.5648H80.4795V99.1318H59.8334V71.0258H64.9938C65.6038 71.0257 66.1888 70.7834 66.6201 70.3521C67.0514 69.9208 67.2938 69.3358 67.2938 68.7258L67.2938 68.7258Z"/><path id="Vector_4" d="M127.544 84.2109C126.934 84.211 126.349 84.4533 125.918 84.8847C125.487 85.316 125.244 85.901 125.244 86.5109V91.1086C125.244 91.7186 125.487 92.3035 125.918 92.7348C126.349 93.166 126.934 93.4084 127.544 93.4086H132.141C132.751 93.4084 133.336 93.166 133.767 92.7348C134.198 92.3035 134.441 91.7186 134.441 91.1086V86.511C134.441 85.901 134.198 85.316 133.767 84.8847C133.336 84.4534 132.751 84.211 132.141 84.211L127.544 84.2109ZM131.841 86.8109V90.8086H127.844V86.8109L131.841 86.8109Z"/><path id="Vector_5" d="M133.006 60.9648H119.22C118.61 60.9649 118.025 61.2073 117.594 61.6386C117.162 62.0699 116.92 62.6549 116.92 63.2648V99.4318C116.92 100.042 117.162 100.627 117.594 101.058C118.025 101.489 118.61 101.732 119.22 101.732H140.466C141.076 101.732 141.661 101.489 142.092 101.058C142.524 100.627 142.766 100.042 142.766 99.4318V70.7258C142.766 70.1159 142.523 69.531 142.092 69.0997C141.661 68.6684 141.076 68.426 140.466 68.4258H135.306V63.2649C135.305 62.6549 135.063 62.0699 134.632 61.6386C134.201 61.2073 133.616 60.9649 133.006 60.9648ZM135.006 71.0258H140.166V99.1318H119.52V63.5648H132.706V68.7258C132.706 69.3358 132.948 69.9208 133.379 70.3521C133.811 70.7834 134.396 71.0257 135.006 71.0258Z"/><path id="Vector_6" d="M170.309 49.5072C170.919 49.5071 171.504 49.2648 171.935 48.8335C172.366 48.4022 172.609 47.8172 172.609 47.2073V25.9611C172.609 25.3512 172.366 24.7663 171.935 24.335C171.504 23.9037 170.919 23.6613 170.309 23.6611H165.148V18.5002C165.148 17.8902 164.905 17.3052 164.474 16.8739C164.043 16.4426 163.458 16.2003 162.848 16.2002H141.602C140.992 16.2003 140.407 16.4426 139.975 16.8739C139.544 17.3052 139.302 17.8902 139.302 18.5002V23.6611H134.141C133.531 23.6613 132.946 23.9036 132.515 24.3349C132.084 24.7662 131.841 25.3511 131.841 25.9611V31.122H127.845V25.9611C127.844 25.3512 127.602 24.7663 127.171 24.335C126.739 23.9037 126.155 23.6613 125.545 23.6611H74.4553C73.8453 23.6613 73.2604 23.9037 72.8291 24.335C72.3978 24.7663 72.1554 25.3512 72.1553 25.9611V31.122H68.1581V25.9611C68.1579 25.3512 67.9155 24.7663 67.4842 24.335C67.0529 23.9037 66.468 23.6613 65.8581 23.6611H60.6976V18.5002C60.6976 17.8902 60.4552 17.3052 60.0239 16.8739C59.5926 16.4426 59.0076 16.2003 58.3976 16.2002H37.1516C36.5416 16.2003 35.9566 16.4426 35.5253 16.8739C35.094 17.3052 34.8516 17.8902 34.8516 18.5002V23.6611H29.6906C29.0807 23.6613 28.4958 23.9036 28.0645 24.3349C27.6332 24.7662 27.3908 25.3511 27.3906 25.9611V47.2072C27.3907 47.8172 27.6331 48.4021 28.0644 48.8334C28.4957 49.2647 29.0807 49.5071 29.6906 49.5071H34.8516V83.3466H29.6906C29.0807 83.3468 28.4958 83.5892 28.0645 84.0205C27.6332 84.4518 27.3908 85.0367 27.3906 85.6466V114.354C27.3907 114.964 27.6331 115.549 28.0644 115.98C28.4957 116.411 29.0807 116.654 29.6906 116.654H34.8516V121.815C34.8518 122.424 35.0941 123.009 35.5254 123.441C35.9567 123.872 36.5416 124.114 37.1516 124.115H42.3125V129.275C42.3127 129.885 42.5551 130.47 42.9864 130.902C43.4177 131.333 44.0026 131.575 44.6125 131.575H57.2339V135.572H44.6125C44.0025 135.572 43.4175 135.815 42.9862 136.246C42.5549 136.677 42.3126 137.262 42.3125 137.872V143.033H37.1516C36.5416 143.033 35.9566 143.276 35.5253 143.707C35.094 144.138 34.8516 144.723 34.8516 145.333V159.118C34.8517 159.728 35.0941 160.313 35.5254 160.744C35.9567 161.176 36.5416 161.418 37.1516 161.418H42.3125V181.5C42.3126 182.11 42.5549 182.695 42.9863 183.126C43.4176 183.558 44.0025 183.8 44.6125 183.8H51.9367C52.2815 183.8 52.6121 183.663 52.8559 183.419C53.0997 183.176 53.2367 182.845 53.2367 182.5V168.879H65.8581C66.468 168.879 67.0529 168.637 67.4842 168.205C67.9155 167.774 68.1579 167.189 68.1581 166.579V161.418H73.3191C73.929 161.418 74.5139 161.176 74.9453 160.745C75.3766 160.313 75.6189 159.728 75.619 159.118V145.333C75.619 144.723 75.3767 144.138 74.9454 143.707C74.514 143.276 73.929 143.033 73.3191 143.033H68.1581V139.036H131.841V143.033H126.681C126.071 143.033 125.486 143.276 125.055 143.707C124.623 144.138 124.381 144.723 124.381 145.333V159.118C124.381 159.728 124.623 160.313 125.055 160.745C125.486 161.176 126.071 161.418 126.681 161.418H131.841V166.579C131.841 167.189 132.084 167.774 132.515 168.205C132.946 168.637 133.531 168.879 134.141 168.879H146.763V181.5C146.763 182.11 147.005 182.695 147.436 183.126C147.868 183.558 148.453 183.8 149.063 183.8H155.387C155.997 183.8 156.582 183.558 157.014 183.126C157.445 182.695 157.687 182.11 157.687 181.5V161.418H162.848C163.458 161.418 164.043 161.176 164.474 160.744C164.905 160.313 165.148 159.728 165.148 159.118V145.333C165.148 144.723 164.905 144.138 164.474 143.707C164.043 143.276 163.458 143.033 162.848 143.033H157.687V137.872C157.687 137.262 157.445 136.677 157.014 136.246C156.582 135.815 155.997 135.572 155.387 135.572H149.5C149.155 135.572 148.824 135.709 148.58 135.953C148.337 136.197 148.2 136.528 148.2 136.872C148.2 137.217 148.337 137.548 148.58 137.792C148.824 138.035 149.155 138.172 149.5 138.172L155.087 138.172V143.333C155.088 143.943 155.33 144.528 155.761 144.959C156.193 145.391 156.777 145.633 157.387 145.633H162.548V158.818H157.387C156.777 158.818 156.192 159.061 155.761 159.492C155.33 159.923 155.087 160.508 155.087 161.118V181.2H149.363V168.579C149.363 167.969 149.12 167.384 148.689 166.953C148.258 166.522 147.673 166.279 147.063 166.279H134.441V161.118C134.441 160.508 134.199 159.923 133.768 159.492C133.336 159.061 132.751 158.818 132.141 158.818H126.981V145.633H132.141C132.751 145.633 133.336 145.391 133.767 144.959C134.199 144.528 134.441 143.943 134.441 143.333V138.736C134.441 138.126 134.199 137.541 133.767 137.109C133.336 136.678 132.751 136.436 132.141 136.436H67.8581C67.2482 136.436 66.6632 136.678 66.2319 137.109C65.8007 137.541 65.5583 138.126 65.5581 138.736V143.333C65.5583 143.943 65.8007 144.528 66.232 144.959C66.6633 145.391 67.2482 145.633 67.8581 145.633H73.0191V158.818H67.8581C67.2481 158.818 66.6631 159.061 66.2318 159.492C65.8005 159.923 65.5582 160.508 65.5581 161.118V166.279H52.9367C52.3267 166.279 51.7418 166.522 51.3104 166.953C50.8791 167.384 50.6368 167.969 50.6367 168.579V181.2H44.9125V161.118C44.9124 160.508 44.6701 159.923 44.2388 159.492C43.8074 159.061 43.2225 158.818 42.6125 158.818H37.4515V145.633H42.6125C43.2224 145.633 43.8073 145.391 44.2386 144.959C44.6699 144.528 44.9123 143.943 44.9125 143.333V138.172H57.5339C58.1438 138.172 58.7287 137.93 59.16 137.498C59.5913 137.067 59.8337 136.482 59.8339 135.872V131.276C59.8306 131.045 59.7924 130.817 59.7206 130.598C59.9393 130.67 60.1676 130.708 60.3977 130.711H132.416C132.587 130.712 132.757 130.678 132.915 130.613C133.073 130.548 133.217 130.453 133.338 130.332C133.459 130.211 133.555 130.068 133.62 129.91C133.686 129.752 133.72 129.582 133.72 129.411C133.72 129.24 133.686 129.071 133.62 128.913C133.555 128.755 133.459 128.612 133.338 128.491C133.217 128.37 133.073 128.274 132.915 128.209C132.757 128.144 132.587 128.111 132.416 128.111V128.111H60.6976V122.95C60.6975 122.34 60.4551 121.756 60.0238 121.324C59.5925 120.893 59.0076 120.651 58.3976 120.65H45.7763V115.49C45.7762 114.881 45.5338 114.296 45.1025 113.864C44.6712 113.433 44.0862 113.191 43.4763 113.19H38.3153V86.8109H43.4763C44.0862 86.8107 44.6711 86.5683 45.1024 86.1371C45.5337 85.7058 45.7761 85.1209 45.7763 84.5109V56.9671H50.9367C51.5467 56.9671 52.1317 56.7248 52.563 56.2935C52.9944 55.8622 53.2367 55.2772 53.2367 54.6672V49.5072H58.3977C59.0076 49.5071 59.5926 49.2648 60.0239 48.8335C60.4552 48.4022 60.6976 47.8172 60.6977 47.2073V42.0462H73.3191C73.929 42.0461 74.5139 41.8037 74.9453 41.3724C75.3766 40.9411 75.6189 40.3562 75.619 39.7463V34.5863H124.381V39.7463C124.381 40.3562 124.623 40.9411 125.055 41.3724C125.486 41.8037 126.071 42.0461 126.681 42.0462H139.302V47.2072C139.302 47.8172 139.544 48.4021 139.976 48.8334C140.407 49.2647 140.992 49.5071 141.602 49.5071H146.763V54.6671C146.763 55.2771 147.005 55.8621 147.436 56.2934C147.868 56.7247 148.453 56.967 149.063 56.9671H154.224V84.5109C154.224 85.1209 154.466 85.7058 154.898 86.1371C155.329 86.5683 155.914 86.8107 156.524 86.8109H161.684V113.19H156.524C155.914 113.19 155.329 113.433 154.897 113.864C154.466 114.295 154.224 114.88 154.224 115.49V120.65H148.716C148.372 120.65 148.041 120.787 147.797 121.031C147.553 121.275 147.416 121.606 147.416 121.95C147.416 122.295 147.553 122.626 147.797 122.87C148.041 123.113 148.372 123.25 148.716 123.25L154.524 123.25C154.754 123.247 154.982 123.209 155.201 123.137C155.129 123.356 155.091 123.584 155.087 123.815V128.975H149.666C149.321 128.975 148.991 129.112 148.747 129.356C148.503 129.6 148.366 129.931 148.366 130.276C148.366 130.62 148.503 130.951 148.747 131.195C148.991 131.439 149.321 131.576 149.666 131.576V131.575H155.387C155.997 131.575 156.582 131.333 157.014 130.902C157.445 130.47 157.687 129.885 157.687 129.276V124.115H162.848C163.458 124.114 164.043 123.872 164.474 123.441C164.905 123.009 165.148 122.425 165.148 121.815V116.654H170.309C170.919 116.654 171.504 116.411 171.935 115.98C172.366 115.549 172.609 114.964 172.609 114.354V85.6467C172.609 85.0367 172.366 84.4518 171.935 84.0205C171.504 83.5892 170.919 83.3469 170.309 83.3467H165.148V49.5072H170.309ZM35.1516 114.054H29.9906V85.9466H35.1516C35.3817 85.9434 35.61 85.9052 35.8286 85.8335C35.7568 86.0523 35.7186 86.2807 35.7153 86.5109V113.49C35.7186 113.72 35.7567 113.948 35.8283 114.167C35.6097 114.095 35.3816 114.057 35.1516 114.054ZM42.6125 121.515H37.4515V116.354C37.4481 116.124 37.41 115.896 37.3384 115.677C37.557 115.749 37.7853 115.787 38.0153 115.79H43.1763V120.95C43.1796 121.181 43.2177 121.409 43.2895 121.628C43.0708 121.556 42.8426 121.518 42.6125 121.515L42.6125 121.515ZM45.4763 123.25H58.0977V128.411C58.101 128.642 58.1392 128.87 58.2109 129.089C57.9923 129.017 57.764 128.979 57.5339 128.976H44.9125V123.815C44.9092 123.584 44.871 123.356 44.7992 123.137C45.0179 123.209 45.2462 123.247 45.4763 123.25H45.4763ZM58.0977 41.7463V46.9072H52.9367C52.3267 46.9073 51.7418 47.1496 51.3104 47.5809C50.8791 48.0122 50.6368 48.5972 50.6367 49.2072V54.3671H45.4763C44.8663 54.3673 44.2814 54.6097 43.8501 55.041C43.4188 55.4722 43.1764 56.0572 43.1763 56.6671V84.2108H38.0153C37.7853 84.214 37.557 84.2521 37.3383 84.3238C37.4101 84.1051 37.4483 83.8767 37.4516 83.6466V49.2072C37.4515 48.5972 37.2091 48.0122 36.7778 47.5809C36.3465 47.1496 35.7615 46.9073 35.1516 46.9072H29.9906V26.2611H35.1516C35.7615 26.261 36.3465 26.0187 36.7778 25.5874C37.2091 25.1561 37.4515 24.5711 37.4516 23.9611V18.8001H58.0977V23.9611C58.0978 24.5711 58.3401 25.1561 58.7715 25.5874C59.2028 26.0187 59.7877 26.261 60.3977 26.2611H65.5582V31.4221C65.5582 32.032 65.8006 32.617 66.2319 33.0483C66.6632 33.4796 67.2482 33.7219 67.8582 33.722H72.4553C72.6854 33.7187 72.9137 33.6806 73.1324 33.6088C73.0606 33.8276 73.0224 34.0561 73.0191 34.2863V39.4462H60.3977C59.7877 39.4463 59.2027 39.6886 58.7714 40.12C58.3401 40.5513 58.0977 41.1363 58.0977 41.7463L58.0977 41.7463ZM124.681 31.9863H75.319C75.089 31.9896 74.8607 32.0277 74.642 32.0993C74.7138 31.8806 74.752 31.6523 74.7553 31.4221V26.2611H125.245V31.4221C125.248 31.6523 125.286 31.8806 125.358 32.0993C125.139 32.0276 124.911 31.9895 124.681 31.9863L124.681 31.9863ZM154.524 54.3672H149.363V49.2072C149.363 48.5972 149.12 48.0122 148.689 47.5809C148.258 47.1496 147.673 46.9073 147.063 46.9072H141.902V41.7463C141.902 41.1363 141.659 40.5513 141.228 40.12C140.797 39.6887 140.212 39.4464 139.602 39.4463H126.981V34.2863C126.978 34.0561 126.939 33.8276 126.868 33.6088C127.086 33.6806 127.315 33.7188 127.545 33.722H132.141C132.751 33.7219 133.336 33.4796 133.768 33.0483C134.199 32.617 134.441 32.032 134.441 31.4221V26.2611H139.602C140.212 26.261 140.797 26.0187 141.228 25.5874C141.659 25.1561 141.902 24.5711 141.902 23.9611V18.8001H162.548V23.9611C162.548 24.5711 162.79 25.1561 163.222 25.5874C163.653 26.0187 164.238 26.261 164.848 26.2611H170.009V46.9072H164.848C164.238 46.9073 163.653 47.1496 163.222 47.5809C162.79 48.0122 162.548 48.5972 162.548 49.2072V83.6467C162.551 83.8768 162.589 84.1052 162.661 84.3239C162.442 84.2523 162.214 84.2142 161.984 84.2109H156.824V56.6672C156.824 56.0572 156.581 55.4723 156.15 55.041C155.719 54.6097 155.134 54.3673 154.524 54.3671V54.3672ZM156.71 121.628C156.782 121.409 156.82 121.181 156.824 120.95V115.79H161.984C162.214 115.787 162.442 115.749 162.661 115.677C162.589 115.896 162.551 116.124 162.548 116.354V121.515H157.387C157.157 121.518 156.929 121.556 156.71 121.628V121.628ZM164.171 114.167C164.243 113.948 164.281 113.72 164.284 113.49V86.5109C164.281 86.2807 164.243 86.0523 164.171 85.8335C164.389 85.9052 164.618 85.9434 164.848 85.9466H170.009V114.054H164.848C164.618 114.057 164.39 114.095 164.171 114.167V114.167Z"/><path id="Vector_7" d="M147.926 120.65H142.766V115.489C142.765 114.88 142.523 114.295 142.092 113.863C141.66 113.432 141.075 113.19 140.466 113.189H135.305V108.029C135.305 107.42 135.063 106.835 134.631 106.403C134.2 105.972 133.615 105.73 133.005 105.729H126.681C126.071 105.73 125.486 105.972 125.055 106.403C124.623 106.834 124.381 107.419 124.381 108.029V121.815C124.381 122.425 124.623 123.01 125.055 123.441C125.486 123.872 126.071 124.114 126.681 124.115H131.841V136.959C131.841 137.304 131.978 137.635 132.222 137.878C132.466 138.122 132.797 138.259 133.141 138.259H148.926C149.271 138.259 149.602 138.122 149.846 137.878C150.089 137.635 150.226 137.304 150.226 136.959V122.95C150.226 122.34 149.984 121.756 149.553 121.324C149.121 120.893 148.536 120.651 147.926 120.65ZM134.441 135.659V123.815C134.441 123.205 134.199 122.62 133.768 122.188C133.336 121.757 132.751 121.515 132.141 121.515H126.981V108.329H132.705V113.489C132.705 114.099 132.948 114.684 133.379 115.116C133.81 115.547 134.395 115.789 135.005 115.789H140.166V120.95C140.166 121.56 140.408 122.145 140.839 122.577C141.271 123.008 141.856 123.25 142.466 123.25H147.627V135.659L134.441 135.659Z"/></g></g></svg>