<svg xmlns="http://www.w3.org/2000/svg" width="200" height="200" fill="none"><g fill="#BEBEC9"><path d="M136.98 52.112a23.773 23.773 0 0 0-6.172-3.498 17.227 17.227 0 0 0-5.993-1.2 9.826 9.826 0 0 0-2.92.409 8.527 8.527 0 0 0-3.73 2.483c-1.68 1.98-2.9 4.31-3.57 6.82a32.175 32.175 0 0 0-1.239 9.045c-.002 2.82.329 5.63.985 8.371a15.98 15.98 0 0 0 6.412 9.513 17.586 17.586 0 0 0 10.016 3.113 15.31 15.31 0 0 0 7.949-2.106 14.913 14.913 0 0 0 4.914-4.94 17.37 17.37 0 0 0 2.429-9.212 25.85 25.85 0 0 0-.535-5.092 23.119 23.119 0 0 0-8.546-13.706Zm4.434 26.653a12.318 12.318 0 0 1-4.05 4.077c-2 1.164-4.28 1.76-6.595 1.726a14.996 14.996 0 0 1-8.525-2.643 13.366 13.366 0 0 1-5.376-7.993 33.252 33.252 0 0 1-.912-7.76 27.34 27.34 0 0 1 1.96-10.605 12.685 12.685 0 0 1 2.17-3.509 5.937 5.937 0 0 1 2.583-1.753 7.263 7.263 0 0 1 2.146-.29c1.738.04 3.456.389 5.073 1.03a21.535 21.535 0 0 1 8.018 5.432 20.246 20.246 0 0 1 5.071 9.854 23.25 23.25 0 0 1 .483 4.58 14.751 14.751 0 0 1-2.046 7.854ZM112.147 77.342c-.211-3.405-12.214-3.275-13.428-.355-.78 1.876 2.21 6.17 5.07 7.39.049 1.834.151 3.685.197 4.456l-3.559.549a1.3 1.3 0 1 0 .397 2.57l8.844-1.366a1.3 1.3 0 1 0-.396-2.57l-2.705.418-.001-.026c-.048-.826-.127-2.356-.171-3.878 2.884-.865 5.912-4.617 5.752-7.188Z"/><path d="m132.303 73.95-9.704.533a1.3 1.3 0 1 0 .142 2.596l9.704-.533a1.3 1.3 0 0 0-.142-2.596ZM32.25 61.002A13.487 13.487 0 0 0 21.97 56a13.486 13.486 0 0 0-10.282 5.002 18.844 18.844 0 0 0 0 23.61 13.485 13.485 0 0 0 10.282 5.001 13.487 13.487 0 0 0 10.281-5.001 18.844 18.844 0 0 0 0-23.61Zm-1.984 21.93a10.881 10.881 0 0 1-8.297 4.081 10.883 10.883 0 0 1-8.298-4.082 16.248 16.248 0 0 1 0-20.248 10.884 10.884 0 0 1 8.298-4.083 10.881 10.881 0 0 1 8.297 4.082 16.248 16.248 0 0 1 0 20.25Z"/><path d="M21.969 61.95a8.463 8.463 0 0 0-4.925 1.605 10.394 10.394 0 0 0-3.342 4.08 1.299 1.299 0 0 0 1.62 1.774 1.3 1.3 0 0 0 .734-.67v-.001a7.8 7.8 0 0 1 2.494-3.064 5.858 5.858 0 0 1 3.419-1.124 1.3 1.3 0 0 0 0-2.6ZM28.89 78.197a1.3 1.3 0 0 0-1.79.418 7.6 7.6 0 0 1-1.84 2.048 1.3 1.3 0 0 0 1.573 2.07 10.197 10.197 0 0 0 2.475-2.746 1.299 1.299 0 0 0-.419-1.79Z"/><path d="M199.413 150.034a9.496 9.496 0 0 0-.786-3.615 10.856 10.856 0 0 0-4.087-4.957 11.252 11.252 0 0 0-3.84-1.585 38.78 38.78 0 0 0-14.878-22.889 41.59 41.59 0 0 0-23.374-8.077 38.092 38.092 0 0 0 5.917-6.827 34.405 34.405 0 0 0 5.705-15.97c.144-1.463.215-2.922.214-4.376-.003-11.264-4.234-22.098-11.173-31.168a17.36 17.36 0 0 0 3.31-3.42 19.45 19.45 0 0 0 3.675-11.436 18.818 18.818 0 0 0-1.714-7.919 16.747 16.747 0 0 0-5.214-6.436 17.522 17.522 0 0 0-10.505-3.384 19.107 19.107 0 0 0-15.339 7.588 17.49 17.49 0 0 0-2.268 4.245 57.658 57.658 0 0 0-19.374-3.674c-.031-.002-.059-.018-.091-.018-.121 0-.242.005-.363.006-.08 0-.16-.006-.24-.006-.021 0-.038.01-.059.012a57.73 57.73 0 0 0-19.359 3.655 17.464 17.464 0 0 0-2.259-4.22 19.104 19.104 0 0 0-15.338-7.588 17.524 17.524 0 0 0-10.506 3.384 16.754 16.754 0 0 0-5.214 6.436 18.827 18.827 0 0 0-1.713 7.919 19.454 19.454 0 0 0 3.674 11.435 17.364 17.364 0 0 0 3.27 3.387c-.475.62-.937 1.247-1.385 1.883a6.563 6.563 0 0 0-3.91-1.339 6.31 6.31 0 0 0-2.466.52c-.175-.186-.348-.372-.537-.55a7.96 7.96 0 0 0-5.557-2.21 9.058 9.058 0 0 0-3.435.676c-.195-.132-.385-.272-.588-.386a8.941 8.941 0 0 0-4.366-1.131 8.555 8.555 0 0 0-3.636.794 7.568 7.568 0 0 0-2.75 2.202 17.92 17.92 0 0 0-7.8-1.795 18.972 18.972 0 0 0-14.378 6.895 25.884 25.884 0 0 0 0 32.81 19.882 19.882 0 0 0 8.692 5.956 71.748 71.748 0 0 0-3.436 20.876 41.56 41.56 0 0 0 1.441 11.292 26.53 26.53 0 0 0 5.442 10.326 28.217 28.217 0 0 0 12.015 8.117c3.9 1.334 8 1.997 12.123 1.961 1.468 0 2.84-.078 4.093-.193l-1.534 35.203a1.3 1.3 0 0 0 2.598.113l1.6-36.713a1.298 1.298 0 0 0-1.461-1.346 42.625 42.625 0 0 1-5.296.336 33.897 33.897 0 0 1-11.256-1.812 25.598 25.598 0 0 1-10.923-7.376 23.923 23.923 0 0 1-4.9-9.326 38.985 38.985 0 0 1-1.342-10.582c.05-4.863.64-9.704 1.76-14.436.441-1.91.882-3.48 1.211-4.565.16-.528.292-.937.386-1.22 1.045.189 2.104.284 3.165.284a18.764 18.764 0 0 0 13.462-5.903c.13.022.262.024.392.005.003 0 1.605-.305 4.025-.78.064.66.275 1.297.616 1.865a7.426 7.426 0 0 0 2.614 2.561c.618.365 1.28.647 1.972.838a93.665 93.665 0 0 0-.294 7.373 75.168 75.168 0 0 0 1.076 13.497 1.3 1.3 0 1 0 2.549-.513l-.01-.048c-.036-.19-.173-.938-.334-2.135a39.61 39.61 0 0 0 7.818-1.225 81.766 81.766 0 0 0 4.521-1.218c.01-.002.016-.01.026-.013a48.658 48.658 0 0 0 8.96 5.94c9.853 5.114 22.387 7.883 36.501 7.967.014 0 .026.008.04.008.096 0 .191-.004.288-.004.106 0 .209.003.315.003.016 0 .028-.008.044-.008 15.873-.096 29.75-3.585 40.058-9.991a47.097 47.097 0 0 0 3.604-2.476c.65-.035 1.302-.056 1.955-.056a38.988 38.988 0 0 1 23.023 7.59 36.137 36.137 0 0 1 13.682 20.536c-.956.012-1.908.121-2.842.324a7.051 7.051 0 0 0-2.514-3.856 7.2 7.2 0 0 0-4.355-1.389 9.108 9.108 0 0 0-3.312.656c-.084-.139-.164-.28-.256-.414a7.423 7.423 0 0 0-2.402-2.263 6.74 6.74 0 0 0-3.401-.888 8.78 8.78 0 0 0-2.519.388 5.352 5.352 0 0 0-2.116 1.188 6.285 6.285 0 0 0-1.72 2.874 11.381 11.381 0 0 0-.433 3.267c.003.859.069 1.716.196 2.564.041.271.103.548.16.823-.01.075-.014.151-.011.226l.805 5.263a28.96 28.96 0 0 0-4.883-.608 793.814 793.814 0 0 0-.612-7.548 1.3 1.3 0 0 0-2.59.226c.172 1.965.379 4.544.604 7.454a8.384 8.384 0 0 0-2.438.69c-.709.33-1.33.824-1.811 1.44a4.599 4.599 0 0 0-.897 2.333c-.042.395-.063.791-.064 1.187a8.672 8.672 0 0 0 .838 3.834 8.32 8.32 0 0 0 3.445 3.578c.623.35 1.281.635 1.962.853.393 5.448.767 10.745 1.042 14.691l.333 4.783.124 1.8a1.301 1.301 0 0 0 2.277.765c.226-.26.34-.599.317-.943 0-.001-.678-9.884-1.448-20.558.467.058.929.142 1.386.253a7.934 7.934 0 0 1 2.28.999c.903.541 2.07 1.362 3.788 2.58a11.804 11.804 0 0 0 6.883 1.952 20.065 20.065 0 0 0 5.455-.796c1.819.365 3.669.556 5.525.568a16.045 16.045 0 0 0 4.742-.634 7.315 7.315 0 0 0 4.013-2.802 10.587 10.587 0 0 0 1.864-5.954c0-1.044-.158-2.082-.466-3.079a5.33 5.33 0 0 0 3.001-1.454 5.455 5.455 0 0 0 1.15-1.825c.259-.678.38-1.401.356-2.127ZM129.424 27.096a16.516 16.516 0 0 1 13.239-6.52 14.925 14.925 0 0 1 8.955 2.87 14.14 14.14 0 0 1 4.406 5.444c.98 2.141 1.482 4.47 1.472 6.824a16.865 16.865 0 0 1-3.175 9.902 14.73 14.73 0 0 1-2.832 2.923 62.705 62.705 0 0 0-5.213-5.538 63.847 63.847 0 0 0-18.803-12.24 14.892 14.892 0 0 1 1.951-3.665Zm-73.11 18.52a16.86 16.86 0 0 1-3.174-9.902 16.228 16.228 0 0 1 1.471-6.824 14.147 14.147 0 0 1 4.407-5.443 14.923 14.923 0 0 1 8.955-2.872 16.521 16.521 0 0 1 13.239 6.521 14.864 14.864 0 0 1 1.944 3.648 63.758 63.758 0 0 0-24.05 17.762 14.757 14.757 0 0 1-2.792-2.89ZM66.506 72.81a15.755 15.755 0 0 1-3.71 10.34 11.58 11.58 0 0 1-8.747 4.19c-.22 0-.436-.014-.652-.027a9.67 9.67 0 0 0-.157-1.157c.977-.218 1.917-.434 2.794-.641 2.517-.66 4.69-2.25 6.08-4.45a14.775 14.775 0 0 0 2.355-8.19 13.816 13.816 0 0 0-1.98-7.488 12.07 12.07 0 0 0-3.61-3.65c.28-.653.445-1.348.49-2.057 4.156 2.297 7.14 7.276 7.137 13.13Zm13.552-4.19.62.143.018.004c.346.076.674.216.968.414a1.3 1.3 0 1 0 1.438-2.167 5.424 5.424 0 0 0-1.843-.784v-.001l-.642-.148-.045-.01-1.216-.233c.8-.493 1.72-.757 2.659-.763a5.51 5.51 0 0 1 4.202 2.08 8.513 8.513 0 0 1 0 10.58 5.51 5.51 0 0 1-4.202 2.079 5.007 5.007 0 0 1-1.587-.281 1.25 1.25 0 0 0 .296-.122c.025-.003.05.006.075 0a5.67 5.67 0 0 0 3.188-1.913 7.052 7.052 0 0 0 1.584-3.525A1.3 1.3 0 0 0 83 73.58a4.46 4.46 0 0 1-.989 2.226 3.072 3.072 0 0 1-1.718 1.055c-.104.028-.203.07-.296.124-.025.003-.047-.006-.072-.001L67.99 79.28a19.348 19.348 0 0 0-.01-12.985l12.079 2.324Zm-3.411 11.643a7.936 7.936 0 0 0 5.368 2.151 8.115 8.115 0 0 0 6.185-3 11.109 11.109 0 0 0 0-13.94 7.85 7.85 0 0 0-12.123-.267l-7.76-1.493a20.778 20.778 0 0 1 7.534-10.067 17.893 17.893 0 0 1 9.858-3.633 7.225 7.225 0 0 1 2.14.291c.999.344 1.888.949 2.575 1.752a15.023 15.023 0 0 1 2.992 5.807 29.623 29.623 0 0 1 1.129 8.307 33.331 33.331 0 0 1-.91 7.761 13.368 13.368 0 0 1-5.364 7.994 14.934 14.934 0 0 1-8.504 2.642 12.672 12.672 0 0 1-6.578-1.725 12.03 12.03 0 0 1-1.976-1.534l5.434-1.046Zm-39.666 6.591A25.494 25.494 0 0 0 41.294 72.5a26.335 26.335 0 0 0-1.5-8.795 7.315 7.315 0 0 0 1.763-.96c.25.259.516.502.796.729a7.372 7.372 0 0 0 1.63 1.011c.702.318 1.462.485 2.231.49a5.591 5.591 0 0 0 3.353-1.18c.139-.103.262-.216.392-.324a7.02 7.02 0 0 0 4.088 1.434 5.26 5.26 0 0 0 3.24-1.104 9.525 9.525 0 0 1 3 2.968 11.21 11.21 0 0 1 1.582 6.106 12.186 12.186 0 0 1-1.92 6.748 7.675 7.675 0 0 1-4.516 3.362c-3.935.934-9.195 2.026-13.463 2.883-1.948.392-3.67.73-4.989.986ZM52.19 53.68a4.193 4.193 0 0 1 3.005 1.396 6.052 6.052 0 0 1 1.617 4.096 3.292 3.292 0 0 1-.823 2.338 2.617 2.617 0 0 1-1.942.795 4.368 4.368 0 0 1-2.395-.831c.056-.099.121-.194.172-.294.49-.968.742-2.039.737-3.123a8.718 8.718 0 0 0-1.21-4.271 3.61 3.61 0 0 1 .839-.106Zm-6.716-1.93a5.5 5.5 0 0 1 1.935 1.199 7.305 7.305 0 0 1 2.552 5.108 4.249 4.249 0 0 1-.455 1.945 4.866 4.866 0 0 1-1.486 1.703 2.98 2.98 0 0 1-1.806.67 2.894 2.894 0 0 1-1.176-.267 5.266 5.266 0 0 1-1.467-1.025 6.197 6.197 0 0 1-.276-.285 6.79 6.79 0 0 0 .89-3.414 10.763 10.763 0 0 0-1.297-4.849 8.01 8.01 0 0 0-.582-.955 6.416 6.416 0 0 1 1.323-.14c.628-.002 1.252.102 1.845.31Zm-12.763-.604a5.964 5.964 0 0 1 2.529-.547 6.346 6.346 0 0 1 3.092.797c.96.533 1.74 1.34 2.24 2.319a8.197 8.197 0 0 1 1.013 3.669 4.06 4.06 0 0 1-.797 2.527 4.324 4.324 0 0 1-1.983 1.396 23.442 23.442 0 0 0-3.373-5.212A20.85 20.85 0 0 0 31.14 52.3a5.001 5.001 0 0 1 1.57-1.153ZM21.054 93.2a16.37 16.37 0 0 1-12.408-5.992 23.287 23.287 0 0 1 0-29.416A16.368 16.368 0 0 1 21.054 51.8a16.37 16.37 0 0 1 12.408 5.992 23.287 23.287 0 0 1 0 29.416A16.369 16.369 0 0 1 21.054 93.2Zm20.74-3.523a1.79 1.79 0 0 1-.284-.834l.007-.089a1.229 1.229 0 0 0 0-.143 626.435 626.435 0 0 0 9.186-1.898c.082.403.126.812.133 1.223a3.816 3.816 0 0 1-1.228 2.991 5.027 5.027 0 0 1-3.212 1.148l-.174.003a5.425 5.425 0 0 1-3.445-1.271c-.389-.318-.721-.7-.982-1.13Zm11.599 19.349a33.025 33.025 0 0 1-6.478.94l-.09-.002a86.173 86.173 0 0 1-.384-8.205c0-2.176.082-4.566.281-7.11a8.69 8.69 0 0 0 1.628-.262 35.643 35.643 0 0 0 8.872 13.671 81.82 81.82 0 0 1-3.829.968Zm82.821 6.887c-8.703 3.549-19.268 5.478-31.006 5.501-13.885-.048-26.118-2.77-35.563-7.677-9.338-4.855-15.928-11.795-18.919-20.425.213-.137.418-.285.614-.446a6.154 6.154 0 0 0 1.828-2.962c.292.019.585.035.881.035a14.184 14.184 0 0 0 10.709-5.083 17.016 17.016 0 0 0 1.908-2.705c.054.004.109.004.163.001l1.368-.263c.005.006.005.014.01.02a14.737 14.737 0 0 0 3.626 3.152 15.258 15.258 0 0 0 7.934 2.107 17.525 17.525 0 0 0 9.997-3.114 15.984 15.984 0 0 0 6.398-9.513c.655-2.742.985-5.551.983-8.37a29.934 29.934 0 0 0-2.168-11.636 15.26 15.26 0 0 0-2.63-4.227 8.504 8.504 0 0 0-3.723-2.485 9.795 9.795 0 0 0-2.915-.409 20.406 20.406 0 0 0-11.38 4.125 23.416 23.416 0 0 0-8.311 10.889 15.363 15.363 0 0 0-6.991-5.79l-.015-.003a8.617 8.617 0 0 0-1.088-2.297C68.23 39.44 86.196 28.846 105.222 28.722c14.741.063 28.853 6.394 39.275 16.175 10.482 9.833 17.192 23.101 17.187 36.841 0 1.37-.067 2.743-.202 4.122a31.778 31.778 0 0 1-5.276 14.775c-4.368 6.51-11.231 11.706-19.992 15.278Zm42.032 21.379a4.612 4.612 0 0 1 2.795.868 4.52 4.52 0 0 1 1.651 2.713c.367 1.502.57 3.04.605 4.586a5.99 5.99 0 0 1-.641 3.055 2.13 2.13 0 0 1-.758.754 2.92 2.92 0 0 1-1.318.351c-.168.009-.33.014-.486.014a5.41 5.41 0 0 1-2.007-.336 3.271 3.271 0 0 1-1.597-1.303 4.784 4.784 0 0 1-.664-1.857 1.18 1.18 0 0 0-.088-.239 11.74 11.74 0 0 0 .763-4.648 12.361 12.361 0 0 0-.516-3.523 6.483 6.483 0 0 1 2.261-.435Zm-12.978-.991c.174-.387.422-.736.73-1.027a2.747 2.747 0 0 1 1.1-.611l-.371-1.246.371 1.246a6.194 6.194 0 0 1 1.777-.28 4.124 4.124 0 0 1 2.104.541 5.398 5.398 0 0 1 2.139 2.524 9.351 9.351 0 0 1 .783 3.802c.017.906-.067 1.812-.253 2.699a3.635 3.635 0 0 1-1.211 2.158 5.457 5.457 0 0 1-2.795.978 4.372 4.372 0 0 1-.536.035 3.137 3.137 0 0 1-1.614-.418 4.646 4.646 0 0 1-1.727-1.999 10.187 10.187 0 0 1-.91-3.018 15.068 15.068 0 0 1-.168-2.185 7.708 7.708 0 0 1 .581-3.199Zm30.799 15.848a3.08 3.08 0 0 1-2.278.78 6.755 6.755 0 0 1-1.245-.124 6.598 6.598 0 0 1-4.093-2.14 1.31 1.31 0 0 0-.877-.471 1.307 1.307 0 0 0-.952.288 1.302 1.302 0 0 0-.422 1.382c.05.163.131.315.239.447a9.191 9.191 0 0 0 5.625 3.049l.047.007c.015.035.014.071.031.105h-.001l.024.05c.406.947.613 1.967.607 2.997a7.963 7.963 0 0 1-1.424 4.507 4.742 4.742 0 0 1-2.634 1.769c-1.288.367-2.622.54-3.961.514a25.854 25.854 0 0 1-3.718-.29 25.471 25.471 0 0 1-1.475-.264l-.077-.017-.02-.004a1.315 1.315 0 0 0-.717.036l-.013.004a17.451 17.451 0 0 1-4.96.763 9.247 9.247 0 0 1-5.379-1.473 41.93 41.93 0 0 0-4.96-3.244 9.646 9.646 0 0 0-1.974-.735c-.731-.174-1.472-.3-2.219-.377a8.042 8.042 0 0 1-4.079-1.657 5.391 5.391 0 0 1-1.44-1.806 6.071 6.071 0 0 1-.576-2.695c.001-.305.017-.61.05-.914a1.98 1.98 0 0 1 .381-1.032 2.894 2.894 0 0 1 1.541-.926 9.687 9.687 0 0 1 2.684-.321c1.493.023 2.98.181 4.444.473a30.436 30.436 0 0 1 1.932.434l.107.028.03.009a1.285 1.285 0 0 0 1.495-.687c.035-.056.065-.115.09-.176.005-.013.015-.022.019-.036v-.003c.126-.234.175-.5.141-.763l-.131-.857c.087.056.168.119.258.171a5.74 5.74 0 0 0 2.919.769c.288 0 .576-.018.862-.055a9.468 9.468 0 0 0 2.91-.79c.309-.145.605-.318.884-.515a6.296 6.296 0 0 0 1.259 1.951 5.909 5.909 0 0 0 2.109 1.404 7.998 7.998 0 0 0 2.964.519c.206 0 .418-.006.635-.019a5.509 5.509 0 0 0 2.473-.696 5.024 5.024 0 0 0 2.165-2.666 9.757 9.757 0 0 0 .53-3.393 19.91 19.91 0 0 0-.254-2.976 11.573 11.573 0 0 1 2.461-.275 9.055 9.055 0 0 1 5.011 1.429 8.262 8.262 0 0 1 3.111 3.777c.364.827.564 1.717.587 2.62a2.87 2.87 0 0 1-.745 2.115h-.001Z"/></g></svg>