<svg width="200" height="200" viewBox="0 0 200 200" xmlns="http://www.w3.org/2000/svg"><g id="type=search, mode=dark"><g id="Layer 58"><path id="Vector" d="M136.98 52.1116C135.109 50.6436 133.029 49.4647 130.808 48.614C128.898 47.8601 126.868 47.4537 124.815 47.4142C123.826 47.4029 122.842 47.5407 121.895 47.823C120.453 48.3032 119.165 49.1607 118.165 50.3065C116.485 52.2868 115.265 54.6159 114.595 57.1253C113.754 60.0663 113.337 63.1124 113.356 66.1713C113.354 68.9905 113.685 71.8002 114.341 74.542C115.227 78.3973 117.512 81.7868 120.753 84.0551C123.697 86.0873 127.192 87.1732 130.769 87.1677C133.561 87.2037 136.31 86.4755 138.718 85.0617L138.718 85.0616C140.723 83.8262 142.407 82.1335 143.632 80.122C145.284 77.338 146.126 74.1471 146.061 70.91C146.052 69.1992 145.872 67.4935 145.526 65.8181C144.418 60.3704 141.384 55.5043 136.98 52.1116ZM141.414 78.7648C140.404 80.424 139.017 81.821 137.364 82.8417C135.364 84.0062 133.084 84.6029 130.769 84.5678C127.725 84.5726 124.752 83.6508 122.244 81.925C119.521 80.0213 117.604 77.1717 116.868 73.9318C116.26 71.3898 115.954 68.785 115.956 66.1713C115.899 62.5415 116.565 58.9367 117.916 55.5672C118.443 54.287 119.176 53.1017 120.086 52.0583C120.775 51.2541 121.667 50.6488 122.669 50.3052C123.366 50.1015 124.089 50.0034 124.815 50.0142C126.553 50.0546 128.271 50.4039 129.888 51.0457C132.938 52.2236 135.68 54.0808 137.906 56.4766C140.48 59.2256 142.236 62.6385 142.977 66.3313C143.289 67.8378 143.451 69.3716 143.46 70.9101C143.526 73.6682 142.817 76.3895 141.414 78.7648H141.414Z"/><path id="Vector_2" d="M112.147 77.3416C111.936 73.9373 99.9333 74.0672 98.7195 76.9871C97.9397 78.8634 100.929 83.1565 103.789 84.3767C103.838 86.2107 103.94 88.0619 103.986 88.8325L100.427 89.382C100.086 89.4346 99.7803 89.6204 99.5766 89.8985C99.3728 90.1766 99.2879 90.5243 99.3405 90.865C99.3931 91.2057 99.5789 91.5116 99.857 91.7154C100.135 91.9191 100.483 92.004 100.824 91.9514L109.668 90.5862C109.837 90.5602 109.999 90.5011 110.145 90.4125C110.291 90.3239 110.418 90.2074 110.519 90.0697C110.62 89.932 110.692 89.7758 110.733 89.6099C110.773 89.4441 110.781 89.2719 110.755 89.1032C110.729 88.9345 110.67 88.7725 110.581 88.6266C110.492 88.4807 110.376 88.3537 110.238 88.2528C110.1 88.1519 109.944 88.0792 109.778 88.0387C109.613 87.9982 109.44 87.9907 109.272 88.0168L106.567 88.4342L106.566 88.408C106.518 87.5818 106.439 86.052 106.395 84.53C109.279 83.6653 112.307 79.9133 112.147 77.3416Z"/><path id="Vector_3" d="M132.303 73.95L122.599 74.4832C122.428 74.4921 122.26 74.5346 122.106 74.6083C121.952 74.682 121.813 74.7854 121.699 74.9126C121.585 75.0399 121.497 75.1884 121.44 75.3497C121.383 75.5111 121.359 75.682 121.368 75.8528C121.378 76.0236 121.421 76.1908 121.495 76.345C121.569 76.4991 121.673 76.6371 121.8 76.751C121.928 76.8649 122.077 76.9526 122.238 77.0089C122.4 77.0653 122.571 77.0892 122.741 77.0793L132.445 76.5461C132.789 76.5262 133.111 76.3709 133.34 76.1142C133.569 75.8576 133.687 75.5205 133.668 75.1769C133.649 74.8333 133.495 74.5112 133.239 74.2812C132.983 74.0512 132.646 73.9321 132.303 73.95Z"/><path id="Vector_4" d="M32.2502 61.0019C31.0075 59.4661 29.4424 58.222 27.6658 57.3577C25.8892 56.4935 23.9444 56.0301 21.9689 56.0005C19.9934 56.0301 18.0486 56.4935 16.2719 57.3577C14.4952 58.2219 12.9301 59.466 11.6873 61.0018C8.9975 64.3485 7.53125 68.5133 7.53125 72.8069C7.53125 77.1005 8.9975 81.2653 11.6873 84.6119C12.9301 86.1478 14.4952 87.3918 16.2719 88.256C18.0486 89.1202 19.9934 89.5835 21.9689 89.6132C23.9444 89.5835 25.8892 89.1202 27.6658 88.256C29.4424 87.3917 31.0074 86.1477 32.2502 84.6119C34.9399 81.2653 36.4061 77.1005 36.4061 72.8069C36.4061 68.5134 34.9399 64.3486 32.2502 61.0019V61.0019ZM30.2664 82.9311C29.268 84.1791 28.0069 85.1919 26.5728 85.8974C25.1388 86.6029 23.5669 86.9838 21.9689 87.0131C20.3709 86.9838 18.799 86.6029 17.3648 85.8974C15.9307 85.1919 14.6695 84.1792 13.671 82.9311C11.3792 80.0543 10.1312 76.485 10.1312 72.8069C10.1312 69.1287 11.3792 65.5594 13.671 62.6826C14.6695 61.4346 15.9306 60.4218 17.3648 59.7162C18.7989 59.0107 20.3709 58.6298 21.9689 58.6005C23.5669 58.6298 25.1388 59.0108 26.5728 59.7163C28.0069 60.4218 29.268 61.4345 30.2664 62.6825C32.5582 65.5593 33.8062 69.1286 33.8062 72.8068C33.8062 76.4849 32.5582 80.0543 30.2664 82.9311V82.9311Z"/><path id="Vector_5" d="M21.969 61.9497C20.1998 61.9567 18.4774 62.518 17.0438 63.5546C15.5977 64.6046 14.4468 66.0096 13.7021 67.6342C13.6296 67.7887 13.5883 67.956 13.5805 68.1266C13.5726 68.2971 13.5985 68.4675 13.6565 68.6281C13.7146 68.7887 13.8037 68.9362 13.9187 69.0623C14.0338 69.1884 14.1725 69.2907 14.3271 69.3632C14.4817 69.4356 14.649 69.477 14.8196 69.4848C14.9901 69.4926 15.1605 69.4668 15.3211 69.4087C15.4816 69.3507 15.6292 69.2616 15.7553 69.1466C15.8814 69.0315 15.9836 68.8927 16.0561 68.7382V68.738C16.6108 67.5194 17.4697 66.4641 18.5504 65.6736C19.5437 64.9496 20.7397 64.5563 21.969 64.5496C22.3131 64.5487 22.6428 64.4113 22.8858 64.1676C23.1288 63.9239 23.2653 63.5939 23.2653 63.2497C23.2653 62.9056 23.1288 62.5755 22.8858 62.3318C22.6428 62.0881 22.3131 61.9507 21.969 61.9498V61.9497Z"/><path id="Vector_6" d="M28.8894 78.1972C28.7444 78.1071 28.5831 78.0465 28.4146 78.0187C28.2462 77.991 28.0739 77.9967 27.9077 78.0356C27.7414 78.0744 27.5845 78.1456 27.4458 78.2451C27.3071 78.3446 27.1893 78.4705 27.0992 78.6155V78.6154C26.6157 79.4042 25.9922 80.0981 25.2594 80.663C24.986 80.8721 24.8066 81.181 24.7607 81.5221C24.7147 81.8632 24.8059 82.2086 25.0142 82.4826C25.2225 82.7566 25.531 82.9368 25.8719 82.9837C26.2129 83.0306 26.5586 82.9404 26.8331 82.7328C27.8183 81.976 28.657 81.0456 29.3077 79.9873C29.3978 79.8423 29.4585 79.681 29.4862 79.5126C29.5139 79.3441 29.5082 79.1719 29.4693 79.0056C29.4305 78.8394 29.3593 78.6824 29.2598 78.5437C29.1603 78.405 29.0344 78.2873 28.8894 78.1972Z"/><path id="Vector_7" d="M199.413 150.034C199.391 148.789 199.123 147.561 198.627 146.419C197.796 144.392 196.371 142.664 194.54 141.462C193.369 140.7 192.067 140.162 190.7 139.877C188.679 130.696 183.391 122.562 175.822 116.988C169.03 111.988 160.878 109.171 152.448 108.911C154.684 106.878 156.671 104.586 158.365 102.084C161.569 97.3199 163.531 91.8302 164.07 86.1145C164.214 84.6513 164.285 83.1925 164.284 81.7383C164.281 70.4739 160.05 59.6397 153.111 50.5696C154.366 49.5869 155.48 48.436 156.421 47.1493C158.822 43.8205 160.108 39.8178 160.096 35.7138C160.106 32.9812 159.522 30.279 158.382 27.7951C157.21 25.2473 155.418 23.0344 153.168 21.3594C150.122 19.1292 146.438 17.9423 142.663 17.9753C139.692 17.9605 136.759 18.6386 134.096 19.9558C131.434 21.273 129.115 23.193 127.324 25.5633C126.376 26.8667 125.613 28.2951 125.056 29.8078C118.857 27.4799 112.303 26.2372 105.682 26.1343C105.651 26.132 105.623 26.1159 105.591 26.1159V26.1158C105.47 26.1158 105.349 26.1214 105.228 26.1222C105.148 26.1219 105.068 26.1158 104.988 26.1158C104.967 26.1158 104.95 26.1265 104.929 26.1275C98.3145 26.2279 91.766 27.4646 85.57 29.7835C85.0144 28.2798 84.2544 26.8597 83.3114 25.5633C81.5207 23.1931 79.2019 21.2731 76.5392 19.9559C73.8766 18.6387 70.9434 17.9605 67.9728 17.9753C64.1978 17.9423 60.5131 19.1292 57.4672 21.3594C55.2179 23.0344 53.4251 25.2473 52.2531 27.7951C51.114 30.279 50.5293 32.9812 50.5396 35.7138C50.5277 39.8178 51.814 43.8204 54.2144 47.1491C55.1454 48.4212 56.2453 49.5606 57.4838 50.5359C57.0091 51.1554 56.5475 51.7831 56.099 52.419C54.9741 51.5634 53.6031 51.0938 52.1899 51.08C51.3412 51.0854 50.5023 51.262 49.7234 51.5992C49.5485 51.4139 49.3746 51.2278 49.1862 51.0508C47.6915 49.62 45.6985 48.8273 43.6294 48.8408C42.4512 48.8402 41.2842 49.0695 40.1938 49.5158C39.9991 49.384 39.8089 49.2436 39.6056 49.1297C38.2709 48.386 36.7679 47.9967 35.24 47.999C33.9846 47.9938 32.7434 48.265 31.6045 48.7933C30.5272 49.3007 29.5848 50.0552 28.854 50.9954C26.4226 49.8164 23.7561 49.2025 21.054 49.1997C18.3006 49.2368 15.5882 49.8728 13.1053 51.0636C10.6224 52.2543 8.42849 53.9713 6.67584 56.0951C2.88499 60.7217 0.813477 66.5184 0.813477 72.4997C0.813477 78.481 2.88499 84.2778 6.67584 88.9044C8.98482 91.6356 11.9878 93.6935 15.3683 94.8611C13.1975 101.612 12.0394 108.647 11.9319 115.737C11.8921 119.549 12.3772 123.349 13.3733 127.029C14.3978 130.832 16.2566 134.359 18.8147 137.355C22.0442 141.061 26.1859 143.859 30.8297 145.472C34.7308 146.806 38.8299 147.469 42.9527 147.433C44.421 147.433 45.7925 147.355 47.0463 147.24L45.512 182.443C45.4973 182.787 45.6199 183.123 45.8528 183.377C46.0858 183.631 46.41 183.782 46.7542 183.797C47.0985 183.812 47.4346 183.69 47.6887 183.457C47.9429 183.225 48.0942 182.901 48.1096 182.556L49.7097 145.843C49.7179 145.654 49.6848 145.466 49.6126 145.291C49.5405 145.116 49.431 144.959 49.292 144.831C49.1529 144.703 48.9874 144.606 48.8073 144.549C48.6271 144.491 48.4365 144.473 48.2488 144.497C46.4921 144.719 44.7233 144.831 42.9527 144.833C39.1253 144.869 35.3195 144.256 31.6967 143.021C27.4744 141.558 23.7086 139.015 20.7737 135.645C18.468 132.939 16.7945 129.753 15.8747 126.319C14.9444 122.87 14.4926 119.309 14.532 115.737C14.5824 110.874 15.1729 106.033 16.2926 101.301C16.7334 99.3903 17.1741 97.8219 17.5032 96.736C17.6632 96.208 17.7951 95.7995 17.8894 95.5155C18.9337 95.7048 19.9928 95.7999 21.054 95.7998C23.5797 95.7727 26.0738 95.2359 28.3871 94.2217C30.7003 93.2075 32.785 91.7367 34.5162 89.8975C34.6458 89.9193 34.778 89.9208 34.9081 89.902V89.9019C34.9115 89.9012 36.5132 89.5972 38.9332 89.1221C38.9973 89.7816 39.2076 90.4186 39.5488 90.9866C40.193 92.0452 41.0919 92.9258 42.1635 93.548C42.7807 93.9133 43.4435 94.1951 44.1347 94.3861C43.9257 97.0266 43.8413 99.5035 43.8413 101.759C43.793 106.281 44.1529 110.798 44.9167 115.256C44.9846 115.594 45.1841 115.891 45.4712 116.082C45.7583 116.273 46.1095 116.342 46.4475 116.274C46.7855 116.206 47.0827 116.007 47.2736 115.72C47.4646 115.433 47.5336 115.081 47.4657 114.743L47.4562 114.695C47.4198 114.505 47.2832 113.757 47.122 112.56C49.7625 112.414 52.3817 112.003 54.9404 111.335C57.4762 110.727 59.4445 110.123 59.4613 110.117C59.471 110.115 59.4772 110.107 59.4868 110.104C62.245 112.409 65.25 114.401 68.4468 116.044C78.2999 121.159 90.8338 123.927 104.948 124.011C104.962 124.011 104.974 124.019 104.988 124.019C105.084 124.019 105.179 124.015 105.276 124.015C105.382 124.015 105.485 124.018 105.591 124.018C105.607 124.018 105.619 124.01 105.635 124.01C121.508 123.914 135.385 120.425 145.693 114.019C146.95 113.238 148.151 112.412 149.297 111.543C149.947 111.508 150.599 111.487 151.252 111.487C159.538 111.506 167.602 114.165 174.275 119.077C181.104 124.105 185.947 131.374 187.957 139.613C187.001 139.625 186.049 139.734 185.115 139.937C184.732 138.407 183.847 137.049 182.601 136.081C181.339 135.157 179.81 134.67 178.246 134.692C177.111 134.702 175.988 134.925 174.934 135.348C174.85 135.209 174.77 135.068 174.678 134.934C174.057 134.009 173.236 133.235 172.276 132.671C171.24 132.079 170.067 131.773 168.875 131.783C168.021 131.789 167.172 131.92 166.356 132.171V132.171C165.569 132.4 164.845 132.806 164.24 133.359C163.417 134.144 162.823 135.137 162.52 136.233C162.218 137.295 162.072 138.396 162.087 139.5C162.09 140.359 162.156 141.216 162.283 142.064C162.324 142.335 162.386 142.612 162.443 142.887C162.433 142.962 162.429 143.038 162.432 143.113L163.237 148.376C161.63 148.035 159.996 147.832 158.354 147.768C158.126 144.824 157.917 142.215 157.742 140.22C157.711 139.877 157.545 139.561 157.281 139.34C157.017 139.12 156.677 139.013 156.334 139.043C155.992 139.073 155.675 139.237 155.453 139.5C155.232 139.763 155.123 140.103 155.152 140.446C155.324 142.411 155.531 144.99 155.756 147.9C154.913 148.005 154.091 148.238 153.318 148.59C152.609 148.92 151.988 149.414 151.507 150.03C150.998 150.71 150.688 151.518 150.61 152.363C150.568 152.758 150.547 153.154 150.546 153.55C150.529 154.875 150.815 156.187 151.384 157.384C152.141 158.899 153.343 160.148 154.829 160.962C155.452 161.312 156.11 161.597 156.791 161.815C157.184 167.263 157.558 172.56 157.833 176.506C157.972 178.495 158.086 180.141 158.166 181.289C158.245 182.438 158.29 183.087 158.29 183.089C158.313 183.433 158.473 183.753 158.732 183.98C158.992 184.206 159.332 184.32 159.676 184.297C160.02 184.273 160.34 184.114 160.567 183.854C160.793 183.594 160.907 183.255 160.884 182.911C160.884 182.91 160.206 173.027 159.436 162.353C159.903 162.411 160.365 162.495 160.822 162.606C161.63 162.817 162.399 163.154 163.102 163.605C164.005 164.146 165.172 164.967 166.89 166.185C168.927 167.532 171.332 168.214 173.773 168.137C175.619 168.124 177.455 167.856 179.228 167.341C181.047 167.706 182.897 167.897 184.753 167.909C186.356 167.936 187.955 167.722 189.495 167.275C191.114 166.83 192.532 165.84 193.508 164.473C194.713 162.721 195.363 160.646 195.372 158.519C195.372 157.475 195.214 156.437 194.906 155.44C196.036 155.289 197.088 154.779 197.907 153.986C198.408 153.46 198.799 152.84 199.057 152.161C199.316 151.483 199.437 150.76 199.413 150.034ZM129.424 27.0964C130.974 25.0576 132.977 23.4071 135.275 22.2754C137.572 21.1436 140.102 20.5616 142.663 20.5752C145.879 20.5422 149.02 21.5494 151.618 23.4467C153.52 24.8632 155.035 26.735 156.024 28.8901C157.004 31.031 157.506 33.3594 157.496 35.7138C157.507 39.2666 156.396 42.7322 154.321 45.616C153.517 46.7165 152.564 47.7002 151.489 48.5391C149.865 46.5892 148.124 44.7396 146.276 43.0008C140.78 37.8432 134.414 33.6994 127.473 30.7614C127.949 29.4544 128.606 28.2207 129.424 27.0964ZM56.3142 45.6158C54.2392 42.732 53.1281 39.2665 53.1396 35.7138C53.1294 33.3594 53.6316 31.031 54.6114 28.8901C55.6007 26.735 57.1158 24.8633 59.0175 23.4467C61.6151 21.5494 64.7563 20.5422 67.9728 20.5753C70.534 20.5617 73.0632 21.1437 75.3608 22.2754C77.6583 23.4072 79.6613 25.0576 81.2115 27.0964C82.0263 28.2159 82.6807 29.4437 83.1557 30.7443C73.8446 34.6751 65.6015 40.7631 59.106 48.5062C58.048 47.6745 57.1086 46.7021 56.3142 45.6158ZM66.5059 72.8104C66.5497 76.5906 65.2328 80.2606 62.7954 83.1505C61.727 84.4395 60.3918 85.4815 58.8818 86.2047C57.3719 86.9279 55.723 87.315 54.049 87.3394C53.8293 87.3394 53.613 87.326 53.3967 87.3131C53.368 86.9246 53.3158 86.5383 53.2405 86.1561C54.2168 85.9378 55.1575 85.7225 56.0338 85.5146C58.5512 84.8554 60.7242 83.2647 62.1133 81.0642C63.6858 78.625 64.5052 75.7767 64.4691 72.8748C64.5365 70.2411 63.8494 67.643 62.4889 65.3868C61.5613 63.9256 60.3304 62.681 58.8795 61.7374C59.1587 61.0845 59.3242 60.3887 59.3688 59.68C63.5251 61.9766 66.5098 66.9556 66.5059 72.8104ZM80.0577 68.6204L80.6782 68.7629L80.696 68.7669C81.0419 68.8427 81.3703 68.9831 81.6641 69.1806C81.8063 69.2761 81.966 69.3427 82.1341 69.3763C82.3021 69.4099 82.4751 69.41 82.6431 69.3765C82.8112 69.343 82.9709 69.2767 83.1132 69.1813C83.2556 69.0858 83.3776 68.9632 83.4723 68.8204C83.5671 68.6777 83.6327 68.5176 83.6654 68.3494C83.698 68.1812 83.6971 68.0082 83.6627 67.8403C83.6282 67.6725 83.561 67.5131 83.4647 67.3713C83.3685 67.2296 83.2452 67.1083 83.1019 67.0143C82.5416 66.6409 81.9168 66.375 81.2593 66.2303L81.2597 66.2288L80.6171 66.0813L80.572 66.0718L79.3559 65.8379C80.1555 65.3448 81.0754 65.0809 82.0148 65.0751C82.825 65.0914 83.6216 65.2862 84.3479 65.6456C85.0741 66.0051 85.7122 66.5202 86.2166 67.1545C87.4101 68.6594 88.0596 70.5237 88.0596 72.4444C88.0596 74.3651 87.41 76.2294 86.2165 77.7343C85.7122 78.3686 85.0741 78.8838 84.3479 79.2433C83.6216 79.6028 82.825 79.7976 82.0148 79.814C81.4741 79.8066 80.9382 79.7117 80.4278 79.5329C80.5312 79.5052 80.6307 79.4644 80.7237 79.4114C80.7494 79.408 80.7735 79.4169 80.7993 79.4118C82.0467 79.1501 83.1695 78.4758 83.9866 77.4977C84.8326 76.4932 85.3813 75.2723 85.5708 73.9727C85.6208 73.6329 85.5342 73.2872 85.33 73.011C85.1259 72.7348 84.8207 72.5507 84.4812 72.4987C84.1417 72.4468 83.7954 72.5313 83.518 72.7339C83.2407 72.9364 83.0547 73.2405 83.0008 73.5797V73.5795C82.8843 74.3989 82.5421 75.1698 82.0125 75.8057C81.5747 76.341 80.9692 76.7129 80.2938 76.8613C80.1902 76.8895 80.0907 76.931 79.9978 76.9847C79.9734 76.9879 79.9507 76.9793 79.9263 76.9839L67.9893 79.2813C69.4816 75.081 69.4779 70.4943 67.9787 66.2964L80.0577 68.6204ZM76.647 80.2627C78.102 81.6294 80.0187 82.3975 82.0148 82.414C83.2025 82.3973 84.3721 82.1201 85.4409 81.6019C86.5098 81.0836 87.4518 80.337 88.2004 79.4148C89.7918 77.4401 90.6596 74.9803 90.6596 72.4442C90.6595 69.9081 89.7917 67.4483 88.2003 65.4736C87.4838 64.5622 86.5743 63.8207 85.5371 63.3026C84.5 62.7844 83.3609 62.5025 82.2018 62.477C81.0427 62.4515 79.8923 62.6831 78.8334 63.1551C77.7744 63.6272 76.8332 64.3279 76.0773 65.207L68.3163 63.7139C69.7278 59.6608 72.3597 56.1442 75.8505 53.6474C78.6991 51.4771 82.1333 50.2115 85.7089 50.0143C86.4325 50.0035 87.1537 50.1015 87.8482 50.305C88.8477 50.6487 89.737 51.2537 90.4236 52.0573C91.835 53.75 92.8567 55.7325 93.4162 57.8643C94.1843 60.5656 94.5644 63.3625 94.545 66.1708C94.547 68.7848 94.2415 71.3899 93.6348 73.9325C92.9015 77.1706 90.9895 80.0199 88.271 81.9258C85.771 83.6508 82.8045 84.5724 79.7672 84.5679C77.4581 84.603 75.1833 84.0063 73.1886 82.8425C72.4785 82.4013 71.8163 81.8872 71.2128 81.3087L76.647 80.2627ZM36.9815 86.8543C39.8249 82.6097 41.3275 77.6087 41.2943 72.4998C41.2983 69.5042 40.7912 66.5299 39.7948 63.7049C40.4235 63.4674 41.0165 63.1443 41.557 62.7449C41.8076 63.0035 42.0734 63.2469 42.3531 63.4739C42.8503 63.8806 43.3986 64.2205 43.9839 64.4851C44.6848 64.8031 45.4446 64.9702 46.2142 64.9757C47.4304 64.9572 48.6073 64.5427 49.5666 63.7949C49.7058 63.6922 49.8293 63.5793 49.9592 63.4707C51.1366 64.3677 52.5674 64.8696 54.0472 64.9047C55.2201 64.9084 56.3606 64.5199 57.2874 63.8009C58.4965 64.5536 59.5213 65.5678 60.2866 66.769C61.3876 68.6108 61.9369 70.73 61.8692 72.8748C61.9046 75.2637 61.237 77.6103 59.9494 79.6228C58.9243 81.2751 57.3103 82.4767 55.4334 82.9849C51.4983 83.9189 46.238 85.0115 41.9701 85.8683C40.0215 86.2596 38.3 86.5977 36.9815 86.8543ZM52.1899 53.68C52.7594 53.6962 53.3196 53.8284 53.8363 54.0683C54.3531 54.3083 54.8155 54.651 55.1954 55.0756C56.1264 56.0795 56.6895 57.3695 56.7927 58.7348C56.8055 58.8857 56.8118 59.0316 56.8116 59.1724C56.8522 60.029 56.557 60.8675 55.9887 61.5097C55.7374 61.769 55.4352 61.9735 55.1011 62.1103C54.767 62.2471 54.4081 62.3133 54.0472 62.3047C53.184 62.2706 52.3503 61.9814 51.6515 61.4735C51.7078 61.3751 51.7731 61.2803 51.824 61.1798C52.3132 60.2117 52.5658 59.1413 52.561 58.0565C52.5328 56.5524 52.1158 55.0812 51.3506 53.7859C51.6253 53.7178 51.907 53.6823 52.1899 53.68ZM45.4735 51.7491C46.1952 52.0095 46.8545 52.4181 47.4088 52.9485C48.1554 53.585 48.7662 54.3652 49.2046 55.2428C49.6431 56.1204 49.9003 57.0774 49.9609 58.0565C49.9661 58.7321 49.81 59.3992 49.5057 60.0025C49.151 60.6785 48.6422 61.2616 48.0204 61.7046C47.5093 62.1221 46.874 62.3581 46.2142 62.3757C45.8077 62.3702 45.4068 62.2791 45.0378 62.1083C44.4938 61.8527 43.9976 61.5059 43.5706 61.0828C43.4628 60.9786 43.3736 60.8843 43.2953 60.7985C43.8875 59.7585 44.1943 58.5805 44.1846 57.3837C44.1406 55.6879 43.6964 54.0265 42.8882 52.535C42.7167 52.2035 42.5222 51.8845 42.3062 51.5801C42.7412 51.488 43.1847 51.4413 43.6294 51.4409C44.2572 51.4375 44.8809 51.5418 45.4735 51.7491ZM32.7105 51.1464C33.5034 50.781 34.3669 50.5942 35.2399 50.5991C36.3217 50.597 37.386 50.8715 38.3318 51.3964C39.2925 51.9288 40.0723 52.7361 40.5712 53.7146C41.1922 54.8412 41.5394 56.0981 41.5846 57.3837C41.6093 58.2916 41.3289 59.1816 40.7882 59.9114C40.2737 60.5563 39.5855 61.0406 38.8047 61.3071C37.9165 59.4279 36.7823 57.6752 35.432 56.0951C34.1828 54.6381 32.7384 53.3605 31.1397 52.2986C31.5827 51.8153 32.1164 51.4238 32.7105 51.1464ZM21.0539 93.1998C18.6745 93.163 16.3318 92.6078 14.1889 91.573C12.046 90.5382 10.1545 89.0485 8.64618 87.2079C5.2616 83.0533 3.41345 77.8585 3.41345 72.4997C3.41345 67.141 5.2616 61.9462 8.64618 57.7916C10.1545 55.9509 12.046 54.4613 14.1889 53.4265C16.3317 52.3917 18.6745 51.8365 21.0539 51.7997C23.4333 51.8366 25.776 52.3917 27.9189 53.4265C30.0618 54.4614 31.9533 55.951 33.4616 57.7916C36.8462 61.9462 38.6943 67.141 38.6943 72.4997C38.6943 77.8585 36.8462 83.0533 33.4616 87.2079C31.9533 89.0485 30.0618 90.5382 27.9189 91.573C25.776 92.6078 23.4333 93.163 21.0539 93.1998ZM41.7948 89.6768C41.6317 89.427 41.5337 89.1403 41.5096 88.8429L41.5172 88.7542C41.5199 88.7064 41.5198 88.6584 41.5169 88.6106C44.2823 88.0589 47.5729 87.3875 50.7034 86.7126C50.7846 87.1156 50.8291 87.5251 50.8364 87.9361C50.8631 88.4942 50.7668 89.0514 50.5545 89.5682C50.3422 90.0851 50.0189 90.5489 49.6075 90.9271C48.7035 91.6724 47.5675 92.0786 46.3958 92.0754L46.2222 92.0782C44.961 92.0678 43.7429 91.6183 42.7773 90.807C42.388 90.4888 42.0557 90.1066 41.7948 89.6768ZM53.393 109.026C51.2703 109.553 49.1004 109.868 46.9154 109.966C46.883 109.966 46.856 109.964 46.8244 109.964C46.6178 107.815 46.4412 105.023 46.4413 101.759C46.4413 99.5828 46.5228 97.1929 46.7224 94.6481C47.2721 94.613 47.8173 94.5257 48.3505 94.3874C50.2122 99.5683 53.2488 104.247 57.2222 108.058C56.2465 108.329 54.8827 108.69 53.393 109.026L53.393 109.026ZM136.214 115.913C127.511 119.462 116.946 121.391 105.208 121.414C91.3234 121.366 79.0901 118.644 69.645 113.737C60.3066 108.882 53.7166 101.942 50.7264 93.3115C50.9394 93.1752 51.1442 93.0265 51.3397 92.8662C52.2216 92.0753 52.8566 91.0467 53.1683 89.9038C53.4604 89.9229 53.7531 89.9394 54.049 89.9394C56.095 89.9146 58.1115 89.4475 59.9599 88.57C61.8084 87.6925 63.4451 86.4255 64.7578 84.8559C65.4802 84.0184 66.1194 83.1124 66.666 82.1508C66.7202 82.1548 66.7746 82.1553 66.8288 82.1523L68.1966 81.889C68.2017 81.8953 68.2025 81.9034 68.2076 81.9096V81.9095C69.2355 83.1512 70.4602 84.2159 71.8329 85.0611C74.2355 86.475 76.9796 87.2037 79.7671 87.1679C83.3388 87.1731 86.8268 86.0868 89.764 84.0545C92.9997 81.7838 95.2793 78.3946 96.1624 74.5415C96.8173 71.7995 97.1471 68.99 97.145 66.1708C97.2038 62.1866 96.4666 58.2307 94.9765 54.5351C94.3373 52.9915 93.449 51.5634 92.347 50.3078C91.35 49.162 90.0643 48.3041 88.6235 47.8233C87.6781 47.541 86.6955 47.4031 85.7089 47.4144C81.5857 47.6067 77.6177 49.045 74.3288 51.5392C70.535 54.2592 67.6407 58.051 66.0176 62.4278C64.3238 59.8377 61.8873 57.8194 59.027 56.6375L59.0123 56.6348C58.7651 55.8198 58.3983 55.0459 57.9241 54.3384C68.2294 39.4393 86.1957 28.8459 105.222 28.722C119.963 28.7847 134.075 35.1158 144.497 44.8969C154.979 54.7297 161.689 67.9984 161.684 81.7383C161.684 83.1075 161.617 84.4813 161.482 85.8597C160.986 91.1481 159.172 96.2278 156.206 100.635C151.838 107.145 144.975 112.341 136.214 115.913V115.913ZM178.246 137.292C179.247 137.27 180.228 137.575 181.041 138.16C181.901 138.835 182.488 139.798 182.692 140.873C183.059 142.375 183.262 143.913 183.297 145.459C183.357 146.516 183.136 147.57 182.656 148.514C182.472 148.825 182.211 149.085 181.898 149.268C181.493 149.487 181.041 149.608 180.58 149.619C180.412 149.628 180.25 149.633 180.094 149.633C179.41 149.649 178.729 149.535 178.087 149.297C177.428 149.046 176.868 148.589 176.49 147.994C176.142 147.428 175.916 146.795 175.826 146.137C175.805 146.054 175.776 145.974 175.738 145.898C176.304 144.416 176.563 142.835 176.501 141.25C176.5 140.057 176.326 138.87 175.985 137.727C176.707 137.448 177.473 137.301 178.246 137.292L178.246 137.292ZM165.268 136.301C165.442 135.914 165.69 135.565 165.998 135.274C166.312 134.988 166.689 134.779 167.098 134.663L166.727 133.417L167.098 134.663C167.674 134.484 168.272 134.389 168.875 134.383C169.612 134.372 170.339 134.559 170.979 134.924C171.939 135.521 172.687 136.404 173.118 137.448C173.642 138.647 173.909 139.942 173.901 141.25C173.918 142.156 173.834 143.062 173.648 143.949C173.509 144.788 173.081 145.551 172.437 146.107C171.614 146.684 170.646 147.023 169.642 147.085C169.464 147.108 169.285 147.119 169.106 147.12C168.54 147.129 167.982 146.984 167.492 146.702C166.735 146.217 166.135 145.522 165.765 144.703C165.307 143.751 165 142.732 164.855 141.685C164.746 140.962 164.69 140.232 164.687 139.5C164.651 138.405 164.849 137.314 165.268 136.301L165.268 136.301ZM196.067 152.149C195.759 152.425 195.399 152.636 195.007 152.77C194.616 152.904 194.202 152.958 193.789 152.929C193.371 152.926 192.954 152.885 192.544 152.805C190.966 152.608 189.513 151.848 188.451 150.665C188.343 150.533 188.21 150.423 188.06 150.342C187.909 150.262 187.744 150.211 187.574 150.194C187.404 150.177 187.233 150.194 187.069 150.243C186.906 150.293 186.754 150.374 186.622 150.482C186.49 150.59 186.38 150.723 186.299 150.874C186.219 151.024 186.168 151.189 186.151 151.359C186.134 151.529 186.151 151.7 186.2 151.864C186.25 152.027 186.331 152.179 186.439 152.311C187.888 153.968 189.884 155.05 192.064 155.36C192.08 155.363 192.095 155.364 192.111 155.367C192.126 155.402 192.125 155.438 192.142 155.472L192.141 155.472L192.165 155.522C192.571 156.469 192.778 157.489 192.772 158.519C192.764 160.131 192.268 161.703 191.348 163.026C190.699 163.901 189.769 164.525 188.714 164.795C187.426 165.162 186.092 165.335 184.753 165.309C183.508 165.302 182.266 165.205 181.035 165.019C180.545 164.946 180.146 164.873 179.872 164.819C179.735 164.792 179.629 164.77 179.56 164.755L179.483 164.738L179.463 164.734C179.225 164.679 178.977 164.692 178.746 164.77L178.733 164.774C177.125 165.266 175.454 165.523 173.773 165.537C171.871 165.611 169.992 165.097 168.394 164.064C166.819 162.867 165.162 161.783 163.434 160.82C162.805 160.504 162.143 160.257 161.46 160.085C160.729 159.911 159.988 159.785 159.241 159.708C157.754 159.546 156.341 158.972 155.162 158.051C154.557 157.56 154.066 156.944 153.722 156.245C153.326 155.403 153.129 154.481 153.146 153.55C153.147 153.245 153.163 152.94 153.196 152.636C153.223 152.263 153.355 151.905 153.577 151.604C153.979 151.14 154.519 150.815 155.118 150.678C155.994 150.446 156.897 150.338 157.802 150.357C159.295 150.38 160.782 150.538 162.246 150.83C162.87 150.949 163.394 151.069 163.758 151.158C163.94 151.202 164.083 151.239 164.178 151.264L164.285 151.292L164.315 151.301C164.605 151.38 164.914 151.354 165.187 151.229C165.46 151.103 165.681 150.886 165.81 150.614C165.845 150.558 165.875 150.499 165.9 150.438C165.905 150.425 165.915 150.416 165.919 150.402L165.919 150.399C166.045 150.165 166.094 149.899 166.06 149.636L165.929 148.779C166.016 148.835 166.097 148.898 166.187 148.95C167.074 149.462 168.082 149.728 169.106 149.719C169.394 149.719 169.682 149.701 169.968 149.664C170.974 149.558 171.956 149.291 172.878 148.874C173.187 148.729 173.483 148.556 173.762 148.359C174.057 149.082 174.484 149.743 175.021 150.31C175.614 150.925 176.334 151.404 177.13 151.714C178.076 152.073 179.082 152.249 180.094 152.233C180.3 152.233 180.512 152.227 180.729 152.214C181.596 152.18 182.444 151.942 183.202 151.518C184.214 150.911 184.981 149.968 185.367 148.852C185.743 147.762 185.922 146.613 185.897 145.459C185.887 144.462 185.802 143.467 185.643 142.483C186.451 142.304 187.276 142.211 188.104 142.208C189.878 142.183 191.621 142.68 193.115 143.637C194.51 144.553 195.594 145.87 196.226 147.414C196.59 148.241 196.79 149.131 196.813 150.034C196.837 150.419 196.783 150.804 196.655 151.167C196.527 151.53 196.327 151.864 196.068 152.149L196.067 152.149Z"/></g></g></svg>