<svg width="200" height="200" viewBox="0 0 200 200" xmlns="http://www.w3.org/2000/svg"><g id="type=pointer, mode=dark"><g id="Layer 58"><path id="Vector" d="M98.0645 40.0024C98.9811 36.0024 103.881 29.9357 109.131 30.6024C111.068 30.8209 112.874 31.69 114.254 33.0677" stroke-width="2.6" stroke-miterlimit="10" stroke-linecap="round"/><path id="Vector_2" d="M111.531 41.5358C112.548 37.0149 116.962 25.3089 122.339 19.4935C124.891 16.7332 127.571 15.8269 130.365 16.7025C137.237 18.8565 133.356 28.1749 129.348 37.8207C127.105 43.3013 125.19 48.9108 123.615 54.6191" stroke-width="2.6" stroke-miterlimit="10" stroke-linecap="round"/><path id="Vector_3" d="M64.8643 175.328C64.9893 185.828 112.296 186.705 111.989 175.953C111.468 157.14 112.095 138.314 113.864 119.578C115.372 103.743 117.793 88.0083 121.114 72.4526C121.114 72.4526 128.375 70.5003 130.625 64.2503C131.94 60.1428 134.161 56.3835 137.125 53.2503C139.625 50.2503 140.5 45.6253 138.625 43.1253C135.907 39.5018 127.864 42.3276 126.489 44.4526C126.489 44.4526 138.375 21.2503 130.75 17.1253C123.125 13.0003 115.25 31.7503 114.25 34.1253C113.426 33.032 112.302 32.2018 111.015 31.7357C109.728 31.2696 108.333 31.1879 107 31.5003C102.375 32.6253 101.625 33.8753 101.625 33.8753C100.747 32.9069 99.5927 32.2316 98.3183 31.941C97.0439 31.6503 95.7109 31.7583 94.4999 32.2503C89.9999 33.8753 83.3324 40.7215 81.6249 50.6253C80.9999 54.2503 82.9893 62.5776 82.9893 62.5776C82.9893 62.5776 78.1143 77.7026 71.7393 105.703C65.3643 133.703 64.8643 175.328 64.8643 175.328Z"/><path id="Vector_4" d="M102.25 33.1251C94.125 28.7501 85.9023 34.9914 82.375 46.3751C80.7493 51.811 80.8366 57.6155 82.625 63.0001C82.625 63.0001 64.75 114.25 64.75 178.875" stroke-width="2.6" stroke-linecap="round" stroke-linejoin="round"/><path id="Vector_5" d="M112.25 179.25C112.25 179.25 110.625 114.125 120.375 73.1251C120.375 73.1251 127.654 72.3032 131.417 63.0001C136 51.6668 141.417 51.7502 139.75 44.6668C138.528 39.4727 130.083 39.8335 127.417 44.0001" stroke-width="2.6" stroke-linecap="round" stroke-linejoin="round"/><path id="Vector_6" d="M97.875 39.7503C97.875 39.7503 100.875 30.7503 108.25 31.3753C110.272 31.5277 112.239 32.1097 114.019 33.0825" stroke-width="2.6" stroke-linecap="round" stroke-linejoin="round"/><path id="Vector_7" d="M111.25 41.5003C111.25 41.5003 118.875 15.5003 129.375 16.5003C139.875 17.5003 129 35.8753 123.5 54.7503" stroke-width="2.6" stroke-linecap="round" stroke-linejoin="round"/></g></g></svg>