<svg xmlns="http://www.w3.org/2000/svg" width="200" height="200" fill="none"><path fill="#FFD93A" d="M150.837 73.928a6.474 6.474 0 0 0-4.507-5.91v-53.24a1.3 1.3 0 0 0-2.6 0v53.175c-1.925.906-2.342 4.112-2.108 6.668.253 2.772 2.959 5.928 5.412 5.774 2.451-.154 3.973-1.77 3.803-6.467Z"/><path fill="#191C22" d="M166.493 141.033a122.068 122.068 0 0 1 2.422 9.818 155.576 155.576 0 0 1 2.675 19.547c1.794-.674 4.896-2.397 6.002-7.386a27.48 27.48 0 0 0 .598-3.717 7.977 7.977 0 0 1 1.691-4.28c1.736-2.22 3.831-5.808 1.626-8.182-3.393-3.654-9.264 4.958-9.264 4.958s4.697-12.004-.522-13.178c-2.382-.536-4.081.805-5.228 2.42Z"/><path fill="#191C22" d="M20.35 167.187c4.902 1.863 3.728 3.933 8.817 5.368 5.088 1.435 5.014.13 10.102 1.305 2.403.554 7.07.643 12.372-.243a30.434 30.434 0 0 0-2.68 12.059c-.007.615.024 1.23.092 1.841a1.298 1.298 0 0 0 2.32.619c.21-.273.303-.619.257-.961v-.002a13.103 13.103 0 0 1-.069-1.497 28.31 28.31 0 0 1 3.26-12.696 43.028 43.028 0 0 0 9.04-3.174c.111-.135.249-.245.404-.325a45.84 45.84 0 0 0 5.133-3.1c.047-.036.096-.07.142-.107l2.612-1.975c.119-.097.236-.195.353-.293a44.27 44.27 0 0 0 3.475-3.236 43.545 43.545 0 0 0 4.179-5.042 34.154 34.154 0 0 0 4.325-7.944v-.002a1.3 1.3 0 0 1 2.47.816 36.032 36.032 0 0 1-4.517 8.411 46.343 46.343 0 0 1-5.083 6.072c17.966-5.056 43.162-9.754 62.141-9.748 6.667-.002 12.563.583 17.043 1.885a19.695 19.695 0 0 1 5.568 2.459 8.559 8.559 0 0 1 3.07 3.406c.063.123.145.234.243.33a168.469 168.469 0 0 1 1.325 20.974c0 1.545-.023 2.772-.046 3.611-.012.42-.024.742-.032.959l-.014.322a1.3 1.3 0 1 0 2.597.133c0-.019.095-1.884.095-5.025a175.091 175.091 0 0 0-.413-11.784l.069.019c-.184-2.49-.443-4.917-.734-7.31a153.4 153.4 0 0 0-.321-2.625c-.446-3.226-.97-6.353-1.577-9.314a118.805 118.805 0 0 0-2.193-8.992 67.042 67.042 0 0 0-7.412-16.96 41.561 41.561 0 0 0-4.759-6.166 27.181 27.181 0 0 0 9.093-5.916 39.45 39.45 0 0 0 11.491-24.17l-1.294-.13 1.294.129c.165-1.665.247-3.325.246-4.98-.005-16.618-8.144-32.44-20.685-44.107a73.52 73.52 0 0 0-5.82-4.855v3.287a70.504 70.504 0 0 1 4.049 3.472c12.106 11.26 19.861 26.455 19.856 42.203 0 1.569-.078 3.143-.234 4.723a36.83 36.83 0 0 1-10.755 22.603c-3.96 4.02-9.547 6.383-16.293 7.721-6.737 1.339-14.584 1.641-22.891 1.64-6.396 0-13.066-.176-19.729-.176a25.593 25.593 0 0 1-9.74-1.897 25.963 25.963 0 0 0-9.56-2.105l-.408-.001c-4.221.005-9.412.579-13.807 3.533a36.776 36.776 0 0 1-8.9-2.471 24.217 24.217 0 0 1-7.564-5.101 37.415 37.415 0 0 1-10.89-23.736 51.954 51.954 0 0 1-.219-4.772c0-1.669.1-3.32.257-4.96a14.839 14.839 0 0 0 6.19 9.04c7.177 4.98 14.21 1.519 16.89-11.114 2.68-12.633 5.089-26.54-1.076-28.725-2.842-1.008-7.193.13-11.314 3.09a65.628 65.628 0 0 1 8.872-9.986 68.222 68.222 0 0 1 45.667-18.041 61.52 61.52 0 0 1 7.966.539 15.72 15.72 0 0 0-.609 2.676c-.049.35-.074.703-.075 1.057-.011.647.102 1.29.331 1.896.27.7.766 1.29 1.409 1.677 1.898 1.122 4.132 2.035 6.449 3.645a22.606 22.606 0 0 1 6.923 7.757 8.121 8.121 0 0 0 1.825 2.312 3.58 3.58 0 0 0 2.272.886 3.313 3.313 0 0 0 1.727-.505 5.763 5.763 0 0 0 1.794-1.871c.491-.794.887-1.643 1.181-2.53a30.781 30.781 0 0 0 1.543-8.525 70.932 70.932 0 0 1 6.263 4.064v-3.178a73.48 73.48 0 0 0-6.264-3.86 26.032 26.032 0 0 0-1.339-7.262 15.002 15.002 0 0 0-4.524-6.813 9.556 9.556 0 0 0-6.084-2.218 12.611 12.611 0 0 0-8.786 4.1 17.164 17.164 0 0 0-3.012 4.205 64.487 64.487 0 0 0-8.99-.652 68.816 68.816 0 0 0-24.967 4.767 25.623 25.623 0 0 0-2.895-4.663 17.022 17.022 0 0 0-4.418-4.02 9.917 9.917 0 0 0-5.132-1.547c-.354 0-.708.023-1.059.069a10.235 10.235 0 0 0-7.115 4.337 16.468 16.468 0 0 0-2.686 9.641 28.2 28.2 0 0 0 .45 4.89 33.023 33.023 0 0 0 1.166 4.578c-.254.226-.518.443-.768.673-12.54 11.5-20.66 27.333-20.662 44.571 0 1.658.077 3.328.23 5.009a40.038 40.038 0 0 0 11.64 25.337 26.788 26.788 0 0 0 8.365 5.646 37.038 37.038 0 0 0 7.464 2.29 27.158 27.158 0 0 0-10.115 11.816 35.152 35.152 0 0 1-4.445 7.515c-.233.297-.447.556-.652.798.054.114.12.213.169.334.333.832.567 1.702.694 2.589.052.33.096.677.131 1.039.046.475.066.947.066 1.415a22.581 22.581 0 0 1-.57 4.728c-.31 1.44-.677 2.72-.905 3.68-.12.437-.198.884-.231 1.336l.002.063c.013.085.09.394.191.78.103.393.232.886.357 1.449.311 1.33.477 2.69.493 4.056l-.002.228a1.298 1.298 0 0 1-1.32 1.28 1.302 1.302 0 0 1-1.28-1.321l.002-.187a19.3 19.3 0 0 0-.765-4.847c-.102-.396-.186-.699-.24-1.011a2.99 2.99 0 0 1-.038-.49c.028-.656.13-1.307.302-1.94.167-.701.38-1.48.59-2.322.49-1.788.763-3.628.814-5.482 0-.392-.017-.782-.054-1.166a14.256 14.256 0 0 0-.307-1.859 5.584 5.584 0 0 0-.77-1.841 2.42 2.42 0 0 0-1.442-1.034 3.616 3.616 0 0 0-.517-.091 5.03 5.03 0 0 0-1.033.049 4.346 4.346 0 0 0-1.966 1.039c-.248.237-.47.499-.665.781a12.318 12.318 0 0 0-1.49 4.177c-.135.922-.201 1.853-.2 2.785 0 .955.066 1.633.08 1.768l.003.03a1.23 1.23 0 0 1-.011.135 1.274 1.274 0 0 1-2.528.294 1.19 1.19 0 0 1-.044-.134v-.005l-.002-.011-.004-.041a67.07 67.07 0 0 1-.342-6.6c0-.492.007-.994.023-1.5-.02-.288-.041-.572-.057-.881-.337-6.45-3.226-7.277-5.684-7.013a3.654 3.654 0 0 0-1.642.606c-.257.184-.488.4-.688.645a5.191 5.191 0 0 0-.924 3.35c.033 1.429.238 2.848.613 4.228a25.794 25.794 0 0 0 1.42 4.017c.41.947.88 1.867 1.406 2.755a1.298 1.298 0 0 1-1.4 1.952 1.31 1.31 0 0 1-.808-.58 26.792 26.792 0 0 1-1.576-3.076 28.305 28.305 0 0 1-1.564-4.436 20.622 20.622 0 0 1-.68-4.599 3.893 3.893 0 0 0-5.3-.98c-4.176 2.479-1.944 9.827 1.838 13.874 3.15 3.369 3.708 4.807 2.655 5.308-1.961.934-3.956-1.831-6.452-1.568-2.413.254-3.756 1.568-3.914 3.392-.31 3.611 2.622 3.898 6.786 5.48Zm34.523-97.339a3.817 3.817 0 0 1 2.942 1.636c-.051-.004-.1-.018-.152-.018a3.009 3.009 0 0 0 0 5.911 2.38 2.38 0 0 0 2.059-1.371c.034.28.045.564.03.847-.185 2.875-1.962 2.38-4.88 2.461-2.916.082-5.201.1-5.69-2.097-.594-2.672 2.058-7.288 5.69-7.369Z"/><path fill="#191C22" d="M91.607 48.39c-6.164 2.185-9.38 16.114-6.7 28.746 2.68 12.632 15.337 16.072 22.513 11.094 3.618-2.51 8.309-9.718 6.232-21.46-2.613-14.768-15.88-20.567-22.045-18.38Zm10.574 28.827c-.617 2.197-3.505 2.178-7.19 2.097-3.685-.08-5.93.413-6.165-2.462-.195-2.399 2.443-7.07 6.165-7.004a7.461 7.461 0 0 1 4.437 1.625 3.011 3.011 0 0 0 .058 5.904 2.679 2.679 0 0 0 2.423-2.697c.363.794.459 1.684.272 2.537ZM72.543 103.141a2.842 2.842 0 0 0 1.523 1.298c.51.184 1.049.274 1.591.266.336 0 .671-.027 1.003-.081a3.944 3.944 0 0 0 2.352-1.237 5.766 5.766 0 0 0 1.303-3.397c.03-.313.046-.644.046-.993a13.84 13.84 0 0 0-.947-5.031 6.486 6.486 0 0 0-1.425-2.205 3.945 3.945 0 0 0-1.13-.772 3.483 3.483 0 0 0-1.421-.301l-.11.002c-.112.003-.222.005-.33.005a4.499 4.499 0 0 1-2.652-.609 1.394 1.394 0 0 1-.453-.551 2.132 2.132 0 0 1-.168-.897c.024-.642.151-1.275.377-1.877 2.716-1.06 5.523-5.27 5.373-8.167-.2-3.887-11.64-3.74-12.797-.405-.737 2.123 2.053 6.954 4.756 8.398a7.74 7.74 0 0 0-.309 2.051c-.01.681.129 1.357.404 1.98a4.189 4.189 0 0 0 2.147 2.07c.499.22 1.023.376 1.56.465l-.028.122c-.212 1.006-.428 2.581-.616 4.151a86.74 86.74 0 0 0-.391 3.956c-.006.091-.01.182-.01.271a3.11 3.11 0 0 0 .352 1.488ZM143.729 66.572a3.88 3.88 0 0 0-1.677.997 5.949 5.949 0 0 0-1.429 2.703c-.249 1-.37 2.028-.36 3.059 0 .191.019.373.026.561l-3.471-5.183a95.338 95.338 0 0 1-.232-.665c-.259-.748-.647-1.9-.965-2.956a27.348 27.348 0 0 1-.398-1.436 7.987 7.987 0 0 1-.108-.512l-.023-.16-.004-.043-.001-.01a1.303 1.303 0 0 0-1.3-1.3 1.301 1.301 0 0 0-1.3 1.3c.008.293.043.583.105.869.291 1.25.646 2.485 1.064 3.7.407 1.233.766 2.233.768 2.24.036.1.084.196.143.284l4.34 6.482.052.072c.003.004.391.506.956 1.212l-3.569-.531a1.305 1.305 0 0 0-.4.002l-4.509.733a1.301 1.301 0 0 0-.09 2.549 1.3 1.3 0 0 0 .507.018l4.309-.7 4.704.7 1.1 1.012a4.872 4.872 0 0 0-.109 1.014c0 .247.02.494.06.737.038.18.087.355.148.528-.062.05-.118.106-.169.166l-1.684 2.5-4.227 4.388-.091.063a66.045 66.045 0 0 1-3.046 1.946c-1.38.855-2.824 1.6-4.321 2.228a1.292 1.292 0 0 0-.72.686 1.3 1.3 0 0 0 1.657 1.74 35.88 35.88 0 0 0 5.335-2.797 65.7 65.7 0 0 0 2.773-1.802l.195-.165 4.396-4.566.142-.175 1.253-1.86c.414.438.874.83 1.371 1.17l.647 2.814-3.106 6.186-.496.73c-.499.734-1.272 1.864-2.018 2.927a99.216 99.216 0 0 1-1.057 1.484c-.317.436-.593.8-.76 1.002a1.297 1.297 0 0 0 .174 1.83 1.296 1.296 0 0 0 1.83-.174c.311-.377.725-.94 1.202-1.604 1.421-1.983 3.323-4.805 3.327-4.81l.084-.144 3.353-6.679c.135-.27.172-.58.105-.874l-.567-2.47c.097-.061.189-.127.278-.199.178-.149.342-.313.49-.491.594.387 1.351.887 2.107 1.407a38.91 38.91 0 0 1 2.13 1.554l.106.485c.186.855.471 2.201.728 3.571.217 1.153.409 2.316.511 3.199l-.149.199c-.836 1.123-2.677 3.567-3.808 4.908a1.299 1.299 0 1 0 1.987 1.676c.815-.967 1.896-2.368 2.785-3.539.887-1.17 1.576-2.105 1.578-2.108.188-.253.276-.567.249-.88-.124-1.443-.51-3.533-.866-5.311-.355-1.772-.682-3.204-.683-3.21a1.304 1.304 0 0 0-.419-.697 25.146 25.146 0 0 0-1.693-1.3 61.744 61.744 0 0 0-.82-.577c1.095.309 2.172.678 3.226 1.108l4.198 5.817a45.54 45.54 0 0 1-.451 4.692 1.291 1.291 0 0 0 .238.966 1.299 1.299 0 0 0 2.332-.574c.27-1.807.436-3.628.496-5.454a1.3 1.3 0 0 0-.245-.79l-4.679-6.482a1.325 1.325 0 0 0-.528-.428 38.897 38.897 0 0 0-6.012-1.926 65.385 65.385 0 0 0-.888-.212 8.612 8.612 0 0 0-.03-.482c.538-.157 1.133-.327 1.636-.47l.87-.246 3.222.663 1.686 1.328a1.3 1.3 0 1 0 1.609-2.042l-1.927-1.518a1.277 1.277 0 0 0-.542-.252l-3.251-.67c1.598-1.162 2.936-2.212 2.946-2.22l.191-.185c.176-.214.34-.438.492-.67.59-.88 1.348-2.198 1.979-3.322.628-1.12 1.117-2.033 1.119-2.037.072-.132.119-.276.14-.425.207-1.512.316-3.035.326-4.56a16.825 16.825 0 0 0-.22-2.905 1.3 1.3 0 0 0-2.559.461c.13.808.19 1.626.179 2.444 0 1.062-.074 2.119-.15 2.903a31.32 31.32 0 0 1-.103.94l-.016.12a121.835 121.835 0 0 1-1.819 3.25c-.284.486-.563.95-.806 1.332a10.79 10.79 0 0 1-.478.702c-.032.025-.058.046-.104.08-.39.304-1.255.968-2.26 1.708.121-.76.179-1.529.174-2.298 0-.24-.005-.486-.014-.739a7.592 7.592 0 0 0-.887-3.348 7.936 7.936 0 0 0-3.086-3.111 8.275 8.275 0 0 0-1.834-.767 6.048 6.048 0 0 0-1.572-.238 3.618 3.618 0 0 0-.802.084c-.078.018-.15.047-.226.07Zm.514 1.198.289 1.268c.074-.015.15-.021.225-.02.451.019.895.114 1.313.283a5.74 5.74 0 0 1 2.311 1.618 4.871 4.871 0 0 1 1.157 3.057c.008.223.012.438.012.645a6.216 6.216 0 0 1-.785 3.625 1.847 1.847 0 0 1-.714.598 2.97 2.97 0 0 1-1.099.254l-.093.003a2.402 2.402 0 0 1-1.158-.355 5.748 5.748 0 0 1-1.862-1.822 5.49 5.49 0 0 1-.922-2.42c-.035-.38-.054-.775-.054-1.173a8.38 8.38 0 0 1 .489-3.046c.123-.328.309-.63.548-.887.17-.18.39-.305.632-.36l-.289-1.268Z"/></svg>