<svg xmlns="http://www.w3.org/2000/svg" width="200" height="200" fill="none"><path fill="#FFD93A" d="M111.071 145.856c17.491-.385 34.405.576 48.243.961 13.839.384 19.974-6.193 15.377-16.722-5.959-13.647-21.719-9.995-29.023-4.805 0 0 3.357-13.2-10.571-16.914-5.766-1.538-13.093.739-16.685 3.886l-7.341 33.594ZM91.084 125.285c-9.61 1.922-14.8 20.566 4.036 19.99l-4.036-19.99Z"/><path fill="#191C22" d="M172.278 84.994c-.093-1.97-.495-3.73-1.75-5.048-.621-.645-1.421-1.112-2.312-1.392-.894-.284-1.883-.4-2.994-.401-1.047 0-2.246.13-3.556.329-1.762-1.835-7.37-6.282-19.647-6.255-3.267 0-7.005.308-11.272 1.05-3.354.585-7.315 1.401-11.592 2.35-.066-.109-.119-.223-.214-.316-1.658-1.625-4.543-3.974-8.104-6.727-10.66-8.238-27.237-19.907-32.023-23.26-1.222-.855-2.674-1.435-4.251-1.52h-.002a15.902 15.902 0 0 0-.83-.02c-1.874.001-3.656.298-4.933.57h-.002A3.524 3.524 0 0 0 66 47.798l.057.633c.682 3.738 2.78 9.964 4.98 16.191 2.195 6.203 4.494 12.362 5.509 15.58a1.538 1.538 0 0 0 2.932-.926c-1.066-3.375-3.354-9.496-5.542-15.68-2.185-6.16-4.266-12.427-4.853-15.71l-.008-.088.366-.438h-.002c1.14-.244 2.747-.502 4.29-.5l.67.016c.918.049 1.824.39 2.65.968v-.001c3.179 2.227 11.602 8.154 19.998 14.28 4.198 3.062 8.389 6.174 11.909 8.894 2.745 2.12 5.067 3.999 6.655 5.407-10.139 2.33-21.795 5.317-32.485 8.16-5.065 1.346-11.317 2.98-17.022 4.271-4.093.932-7.928 1.674-10.763 2.017-.319-.315-.917-.95-1.613-1.725-1.354-1.499-3.178-3.58-4.89-5.505-1.718-1.93-3.298-3.682-4.281-4.628-1.143-1.105-2.563-1.611-3.87-1.606-1.158.003-2.24.369-3.094 1.034a4.041 4.041 0 0 0-.91 1.02 7.49 7.49 0 0 0-1.125-.693c-.88-.437-1.96-.718-3.21-.714-1.273 0-2.719.272-4.434.874-1.86.658-3.181 1.302-4.16 2.107-.977.776-1.614 1.925-1.592 3.075.002.768.229 1.444.516 2.052.202.422.533.993 1.02 1.802 1.692 2.797 5.154 8.117 8.834 13.392 3.69 5.281 7.533 10.456 10.16 13.093.036.036.085.05.124.082a161.49 161.49 0 0 0 1.74 10.236 3.04 3.04 0 0 0 2.948 2.422h.002l.113.001c1.471-.005 2.859-.374 3.843-.684a4.194 4.194 0 0 0 2.633-2.437c.422-1.051.897-2.46 1.392-4.054 7.907-.942 23.747-4.821 23.786-4.827a1.537 1.537 0 1 0-.73-2.987c-.002.001-1.04.254-2.724.649-4.5 1.058-13.633 3.116-19.371 3.937.288-1.015.579-2.071.868-3.155 1.135-4.251 2.234-8.845 2.981-12.458a1.538 1.538 0 1 0-3.011-.623c-.731 3.536-1.82 8.093-2.94 12.288-1.117 4.187-2.282 8.049-3.104 10.08-.14.33-.363.539-.713.657h-.002c-.809.263-1.983.544-2.908.539l-.058-.001c-.553-2.682-2.01-10.302-2.64-18.735a1.537 1.537 0 1 0-3.066.229c.092 1.224.203 2.422.323 3.599-2.564-3.162-5.77-7.608-8.668-11.844a318.426 318.426 0 0 1-5.374-8.1 140.241 140.241 0 0 1-1.806-2.89c-.462-.76-.787-1.34-.873-1.527-.173-.363-.223-.612-.22-.736.022-.162-.021-.257.48-.709.5-.421 1.54-.987 3.216-1.571 1.479-.52 2.587-.702 3.415-.701.817.003 1.365.162 1.851.398.485.238.917.58 1.385 1.01.31.283 1.148 1.142 2.225 2.207 1.629 1.61 3.866 3.75 6.206 5.582 2.366 1.82 4.733 3.395 7.145 3.75.424.056.874.079 1.362.079 3.258-.01 8.466-.996 14.261-2.302 5.775-1.308 12.056-2.949 17.133-4.299 16.62-4.42 35.676-9.217 47.357-11.248 4.11-.715 7.672-1.005 10.745-1.005 3.525.001 6.403.382 8.739.943-.722.233-1.451.435-2.027.567h-.001a2.72 2.72 0 0 0-2.111 2.65l.113.779.732 2.479a3.745 3.745 0 0 0 3.595 2.686l.349-.016c3.396-.312 7.425-1.283 11.087-3.81.052-.035.08-.089.126-.13.984-.133 1.883-.223 2.601-.222.89 0 1.573.1 2.063.256.737.252 1.048.528 1.354 1.038.296.514.514 1.378.567 2.612l.007.288c-.015 1.54-.533 2.642-1.559 3.713-1.535 1.593-4.376 2.876-7.75 3.857-3.37.994-7.236 1.732-10.837 2.537-9.308 2.088-19.552 5.441-28.241 7.348l1.236-6.178a1.537 1.537 0 1 0-3.015-.603l-10.409 52.016c-.189.945-.703 1.765-1.405 2.223-2.222 1.484-5.233 1.969-7.18 2.07l.002-.001-.057.002c-.435.002-.834-.31-.942-.78L87.97 102.338a1.539 1.539 0 0 0-3 .675l11.086 49.288c.412 1.84 2.036 3.179 3.942 3.18l.225-.006h.002c2.233-.134 5.703-.61 8.703-2.574 1.494-.992 2.397-2.55 2.725-4.185l8.513-42.541c9.216-1.906 20.023-5.509 29.573-7.645 4.718-1.06 10.105-2.016 14.479-3.766 2.187-.882 4.146-1.965 5.634-3.479 1.49-1.5 2.45-3.523 2.436-5.863l-.01-.428ZM47.544 124.115h-.001.001Zm.513-34.666c-2.094-1.354-4.412-3.376-6.322-5.184a124.001 124.001 0 0 1-2.631-2.572c.023-.107.064-.207.064-.32l.323-.51c.262-.21.71-.383 1.197-.38.555.006 1.147.187 1.74.75 1.101 1.052 3.552 3.81 5.835 6.395a539.315 539.315 0 0 0 2.953 3.322c-.814-.185-1.946-.706-3.16-1.501Zm103.068-7.12-.066.002a.668.668 0 0 1-.645-.48l-.63-2.135a24.278 24.278 0 0 0 2.711-.802 10.433 10.433 0 0 0 2.415-1.28c.494.219.959.44 1.368.662 1.24.672 2.066 1.317 2.628 1.818-2.588 1.344-5.327 1.99-7.78 2.214h-.001Z"/><path fill="#191C22" d="m42.089 65.731 13.581-3.075a1.538 1.538 0 0 0-.679-3L41.41 62.733a1.538 1.538 0 1 0 .68 3ZM73.627 136.843a1.538 1.538 0 0 0-1.81-1.205l-33.188 6.663a1.537 1.537 0 1 0 .605 3.015l33.188-6.663a1.537 1.537 0 0 0 1.205-1.81ZM71.534 146.485l-6.552 2.691a1.537 1.537 0 1 0 1.168 2.844l6.552-2.69a1.538 1.538 0 0 0-1.168-2.845ZM51.469 126.508l-.003.001-.001.001.004-.002ZM151.41 85.387h-.004.004Z"/></svg>