<svg xmlns="http://www.w3.org/2000/svg" width="200" height="200" fill="none"><path fill="#FFD93A" d="M162.505 170.408v-10.112s-4.425 1.106-4.899-7.9c0 0-14.536-10.903-13.114-26.861 0 0-2.37 2.054-7.584 1.422-5.215-.632-7.268-.632-10.902 3.318-3.635 3.951-7.269 4.424-9.165 3.634 0 0-5.688 6.32-27.65 15.485-21.963 9.164-32.392 6.952-37.448 6.003-5.056-.947-9.954-5.529-10.587-8.847l.79 22.91c-1.58 15.485 44.084 13.589 62.097 12.957 24.168-.849 56.25-3.477 58.462-12.009Z"/><path fill="#191C22" d="M81.607 71.488a5.29 5.29 0 0 0 .15-1.31 9.824 9.824 0 0 0-.383-2.589 6.213 6.213 0 0 0-.37-1.001 2.441 2.441 0 0 0-.295-.475 1.592 1.592 0 0 0-.326-.305 1.373 1.373 0 0 0-1.656.05c-.093.077-.18.17-.248.27-.16.238-.224.407-.294.583-.126.335-.214.66-.263.858a4.977 4.977 0 0 0-.74 2.57c.002.788.18 1.481.47 2.054.148.287.322.548.574.79.128.119.277.235.473.334.194.097.443.178.739.178.168.001.342-.037.508-.095l.002.008c.022-.007.04-.022.062-.03.028-.01.06-.016.088-.03l-.005-.009c.319-.128.61-.314.828-.546.38-.406.572-.867.686-1.305ZM115.664 72.711c.197.112.411.168.639.168.229 0 .433-.057.588-.128a1.58 1.58 0 0 0 .558-.43 2.49 2.49 0 0 0 .384-.655c.259-.636.412-1.426.418-2.345-.003-.817-.146-1.727-.581-2.599a24.614 24.614 0 0 0-.308-.89 4.948 4.948 0 0 0-.173-.418 1.344 1.344 0 0 0-1.197-.747 1.34 1.34 0 0 0-.599.142c-.288.151-.398.298-.484.401-.147.199-.194.32-.249.445a4.805 4.805 0 0 0-.205.658c-.17.707-.31 1.68-.312 2.698.001.64.053 1.292.237 1.93.094.32.223.638.424.948.199.307.482.61.86.822ZM106.491 77.78c-.891.368-1.692.505-2.423.506-1.382.001-2.555-.507-3.396-1.038a7.497 7.497 0 0 1-.965-.724 5.322 5.322 0 0 1-.24-.226l-.051-.053-.008-.009a1.298 1.298 0 0 0-1.998.084l-.074.086c-.176.2-.667.7-1.44 1.137-.778.438-1.824.819-3.2.82a8.33 8.33 0 0 1-1.91-.232 1.3 1.3 0 1 0-.596 2.531c.89.21 1.728.301 2.506.301 2.21.002 3.913-.746 5.032-1.496.293-.197.547-.392.766-.575.228.176.49.364.789.553 1.119.708 2.759 1.439 4.785 1.44a8.868 8.868 0 0 0 3.419-.704 1.3 1.3 0 0 0-.996-2.401Z"/><path fill="#191C22" d="M66.387 66.041c.052.002.1.022.153.016.14-.014.274-.02.405-.02.518.001.898.098 1.222.254.556.27 1.019.774 1.433 1.583.619 1.201 1.01 2.988 1.362 4.793.179.904.354 1.816.572 2.683.22.868.476 1.693.86 2.442a6.078 6.078 0 0 0 2.453 2.55c1.016.566 2.171.835 3.352.835 2.663-.005 5.49-1.342 7.573-3.902.849-1.044 1.663-1.982 3.117-2.766 1.455-.78 3.619-1.414 7.156-1.54a1.3 1.3 0 0 0-.091-2.598c-3.802.133-6.395.83-8.293 1.847-1.898 1.012-3.034 2.337-3.908 3.418-1.626 2.008-3.776 2.946-5.554 2.941-.79 0-1.498-.179-2.085-.506a3.464 3.464 0 0 1-1.408-1.47c-.368-.702-.673-1.86-.94-3.17-.414-1.972-.756-4.273-1.618-6.248-.434-.982-1.016-1.906-1.88-2.612 1.22-.745 2.2-1.649 3.01-2.548 1.144-1.275 2.018-2.53 2.86-3.363.497-.496 1.155-.79 2.057-.999 1.344-.319 3.116-.348 4.944-.82.913-.241 1.85-.61 2.72-1.229.868-.615 1.648-1.48 2.25-2.613 1.425-2.674 2.029-4.546 2.606-5.686.288-.573.544-.947.88-1.265.336-.317.788-.61 1.548-.915 1.498-.603 3.207-.774 4.527-.771.449 0 .846.019 1.181.043.077.723.246 1.695.635 2.737.334.889.834 1.83 1.601 2.663a6.823 6.823 0 0 0 3.119 1.93c2.555.754 4.721.661 6.305.81.795.07 1.429.193 1.944.425.516.235.952.56 1.426 1.212 1.458 2.023 2.463 3.545 3.719 4.793a9.553 9.553 0 0 0 2.125 1.6c.804.444 1.709.79 2.765 1.07a6.59 6.59 0 0 1 2.121 1.005c.365.254.716.55 1.066.864a5.285 5.285 0 0 0-1.76 1.727c-.807 1.267-1.242 2.788-1.552 4.368-.306 1.58-.466 3.226-.606 4.702-.148 1.506-.628 2.332-1.183 2.833-.558.5-1.293.737-2.167.74-1.304.014-2.826-.612-3.689-1.418-1.901-1.734-3.935-3.319-6.212-4.483-2.274-1.163-4.803-1.895-7.6-1.893-.122 0-.241.002-.356.004a1.3 1.3 0 1 0 .059 2.6c.103-.003.202-.004.297-.004 2.345.002 4.434.599 6.417 1.61 1.981 1.01 3.843 2.443 5.642 4.086 1.411 1.271 3.395 2.084 5.442 2.098 1.353.003 2.775-.394 3.901-1.401 1.128-1.004 1.858-2.553 2.038-4.528.205-2.229.475-4.723 1.099-6.499.306-.888.697-1.574 1.107-1.975.206-.204.411-.343.638-.44.174-.073.376-.114.604-.134.906.827 1.942 1.648 3.294 2.19a1.3 1.3 0 0 0 .965-2.414c-.704-.282-1.321-.687-1.931-1.188-.916-.748-1.794-1.721-2.868-2.664-1.071-.938-2.377-1.846-4.101-2.3-.901-.238-1.593-.511-2.175-.832-.871-.483-1.532-1.079-2.293-1.984-.757-.902-1.585-2.105-2.694-3.65-.698-.98-1.559-1.664-2.477-2.07-1.387-.608-2.773-.649-4.161-.73-1.397-.073-2.828-.155-4.41-.624a4.2 4.2 0 0 1-1.946-1.199c-.724-.778-1.151-1.838-1.372-2.784a9.066 9.066 0 0 1-.242-1.943l.001-.038a1.301 1.301 0 0 0-1.076-1.323c-.053-.009-1.111-.192-2.64-.192-1.53.002-3.534.177-5.492.957-.966.385-1.745.848-2.368 1.438a6.31 6.31 0 0 0-1.134 1.46c-.895 1.578-1.351 3.338-2.86 6.158-.582 1.076-1.244 1.65-2.036 2.066-1.183.62-2.764.778-4.454.993-.844.113-1.713.248-2.576.532-.86.282-1.725.729-2.45 1.455-.722.724-1.34 1.526-1.977 2.31-.955 1.177-1.942 2.303-3.238 3.13-1.298.824-2.91 1.4-5.315 1.406-.935 0-1.988-.091-3.177-.3a1.3 1.3 0 1 0-.449 2.562c1.319.23 2.522.338 3.626.338.941 0 1.812-.079 2.617-.225ZM107.44 159.87a1.297 1.297 0 0 0-1.355-.463l-.084.022a1.28 1.28 0 0 0-.096-.683 1.304 1.304 0 0 0-1.461-.72c-.003.001-1.192.265-2.544.583-.676.159-1.393.332-2.027.493a25.64 25.64 0 0 0-1.562.435 1.3 1.3 0 0 0 .823 2.467c.152-.052.42-.128.741-.215-.052.269-.027.553.1.815.272.557.896.844 1.496.688l2.084-.541c-.022.388.108.78.424 1.055a1.3 1.3 0 0 0 1.834-.129c1.131-1.303 1.702-2.322 1.735-2.379a1.299 1.299 0 0 0-.108-1.428ZM123.322 170.306c.4.177.699.198.805.205.442.023.872-.184 1.128-.545l.01-.014c.15.241.372.437.65.54a1.303 1.303 0 0 0 1.478-.422c.002-.002.531-.682 1.155-1.504.627-.826 1.339-1.776 1.748-2.38a1.3 1.3 0 1 0-2.154-1.456c-.113.168-.277.397-.457.645a1.287 1.287 0 0 0-.732-.673 1.3 1.3 0 0 0-1.485.476l-1.237 1.74c-.209-.368-.574-.638-1.028-.666a1.299 1.299 0 0 0-1.378 1.217l-.009.265c-.001.518.102.998.303 1.405.3.619.81.997 1.203 1.167ZM83.023 167.808a1.302 1.302 0 0 0-1.466 0l-1.47 1.003a1.285 1.285 0 0 0-.497-.867 1.3 1.3 0 0 0-1.489-.045c-1.386.913-2.282 1.628-2.866 2.175l-.091-.084a1.3 1.3 0 1 0-1.762 1.912l1.075.99c.307.283.736.402 1.145.317.377-.078.694-.326.875-.663l.006.004a2.45 2.45 0 0 1 .257-.303 1.297 1.297 0 0 0 1.964.657l1.73-1.181a1.287 1.287 0 0 0 1.404 1.021l2.38-.253a1.3 1.3 0 0 0-.275-2.585l-.568.061.182-.795a1.302 1.302 0 0 0-.534-1.364ZM121.668 148.573a1.3 1.3 0 0 0 .994-.757l.875-1.97.839.099a1.3 1.3 0 0 0 .305-2.582l-1.79-.211a1.299 1.299 0 0 0-1.34.762l-.439.986-.134-.154a1.301 1.301 0 0 0-2.279.856v3.581a1.3 1.3 0 1 0 2.6 0v-.612c.122.016.245.021.369.002ZM57.69 163.596a1.297 1.297 0 0 0-1.59.536l-.502.83a1.3 1.3 0 0 0-1.151.146l-2.12 1.422a1.3 1.3 0 1 0 1.45 2.159l.668-.449c.2.323.537.55.925.604a1.304 1.304 0 0 0 1.29-.615l.438-.723c.206.214.363.349.388.371a1.3 1.3 0 0 0 1.676-1.986l.001-.001-.132-.124a3.137 3.137 0 0 1-.409-.492l-.116-.219-.015-.051v-.002l-.005.001a1.29 1.29 0 0 0-.795-1.407Zm.8 1.42h-.004.005ZM142.635 152.273l.305-.771.022.014a1.298 1.298 0 0 0 2.014-.814l.527-2.633a1.301 1.301 0 0 0-2.55-.51l-.146.731a1.31 1.31 0 0 0-.852-.035c-.378.115-.687.4-.832.767l-.471 1.193-.589-.172a1.299 1.299 0 1 0-.729 2.495l1.728.505a1.3 1.3 0 0 0 1.573-.77ZM136.289 134.668l.843-.949a1.3 1.3 0 0 0-.109-1.835 1.288 1.288 0 0 0-1.487-.154 1.3 1.3 0 0 0-.704-.173c-.537.026-1 .377-1.17.888l-.737 2.212a1.3 1.3 0 1 0 2.466.823l.133-.4c.291-.047.563-.185.765-.412ZM149.488 166.794a1.3 1.3 0 0 0 1.081-1.487l-.317-2.001a1.298 1.298 0 0 0-2.391-.478l-1.686 2.739a1.301 1.301 0 0 0 2.215 1.363l.205-.333c.258.163.567.249.893.197Z"/><path fill="#191C22" d="M8.671 81.222c3.064-.913 7.715-1.876 13.184-2.603 5.472-.727 11.773-1.222 18.183-1.222.937 0 1.876.015 2.816.037-.38 2.658-.739 5.3-1.077 7.921-3.42.558-6.832 1.22-10.062 1.946-4.109.924-7.917 1.943-11.072 2.962a56.61 56.61 0 0 0-4.205 1.522c-1.215.505-2.224.996-3.022 1.502a1.3 1.3 0 1 0 1.396 2.194c.593-.38 1.495-.828 2.621-1.294 3.955-1.641 10.641-3.517 17.937-5.012a170.53 170.53 0 0 1 6.065-1.128 617.06 617.06 0 0 0-.826 6.936c-.045.038-.1.058-.14.103-1.087 1.198-2.204 2.922-3.072 5.065a20.155 20.155 0 0 0-1.473 7.53c0 1.082.09 2.203.288 3.352.312 1.832.933 3.163 1.811 4.095.23.245.474.447.723.633-2.687 2.17-4.954 4.925-6.864 7.952-3.338 5.294-5.606 11.422-7.059 16.817a72.489 72.489 0 0 0-1.585 7.353c-.298 1.88-.452 3.439-.488 4.64-.237.283-.563.697-.906 1.231-.608.966-1.288 2.264-1.303 3.812a4.198 4.198 0 0 0 .925 2.663 4.19 4.19 0 0 0 1.603 1.244c.59.257 1.196.352 1.76.351 1.15-.006 2.144-.364 2.906-.713.031.056.058.11.093.167.285.472.695.979 1.27 1.411a5.214 5.214 0 0 0 2.193.941c.244.046.487.067.723.067.95 0 1.779-.342 2.449-.777.938-.614 1.623-1.413 2.129-2.098l.046.041c.4.323.886.657 1.462.921a4.79 4.79 0 0 0 1.997.459c.022 0 .045-.004.067-.004.217 7.522.67 12.633.672 12.652a1.3 1.3 0 1 0 2.59-.23l-.033-.39c-.148-1.812-.743-9.757-.743-19.75 0-.831.005-1.679.014-2.536 1.787 2.094 4.319 3.454 7.211 4.302 2.934.857 6.265 1.202 9.734 1.203 8.932-.008 18.774-2.29 24.79-4.72 17.184-6.969 32.875-17.129 32.913-17.151.16-.104.284-.238.381-.388.524.108 1.069.18 1.643.183 1.309.006 2.721-.381 4.092-1.302 2.427-1.622 3.945-3.359 5.34-4.529.698-.591 1.353-1.044 2.083-1.356.732-.311 1.554-.498 2.66-.5.609 0 1.303.06 2.101.196.795.135 1.566.201 2.313.201a11.705 11.705 0 0 0 5.183-1.188c-.001.065-.008.132-.008.198 0 3.75.887 7.278 2.195 10.448 1.966 4.756 4.877 8.722 7.296 11.518a46.522 46.522 0 0 0 3.979 4.088c.127 1.52.352 3.21.89 4.704.306.835.708 1.622 1.339 2.267.316.321.694.601 1.132.796.436.196.928.301 1.43.3l-.006 10.161a1.3 1.3 0 1 0 2.6.002l.006-10.832a5.866 5.866 0 0 0 1.786-1.344c.018-.02.032-.039.049-.059.061.046.109.09.174.136.908.646 2.269 1.327 3.988 1.329l.079-.001c.835-.008 1.59-.213 2.199-.586a3.69 3.69 0 0 0 1.096-1.024c.411-.578.627-1.196.751-1.759.042-.195.062-.374.085-.555.31.048.647.083 1.012.085a5.422 5.422 0 0 0 2.751-.723 3.075 3.075 0 0 0 1.278-1.462c.245-.577.324-1.174.325-1.767-.005-1.186-.315-2.409-.72-3.619-.408-1.207-.925-2.389-1.398-3.394a5.217 5.217 0 0 1-.21-.594c-.359-1.157-.91-3.455-1.767-6.245-1.29-4.196-3.283-9.57-6.557-14.384-3.013-4.433-7.17-8.415-12.853-10.398.039-.027.078-.044.117-.072 1.209-.848 2.373-2.173 3.315-4.234.522-1.14.729-2.389.729-3.662-.008-2.815-.986-5.801-2.291-8.388a22.536 22.536 0 0 0-2.172-3.487c-.647-.84-1.308-1.544-1.996-2.095.013-.11.036-.219.02-.335h-.001c-.198-1.4-.401-2.81-.605-4.223 3.785.586 7.595 1.307 11.169 2.111 4.044.91 7.788 1.913 10.843 2.9 1.527.494 2.882.983 4.01 1.45 1.126.466 2.028.915 2.621 1.294a1.3 1.3 0 0 0 1.396-2.194c-.798-.506-1.808-.997-3.022-1.502-4.237-1.752-10.993-3.633-18.409-5.157a171.737 171.737 0 0 0-9.001-1.597c-.339-2.31-.685-4.61-1.035-6.878a127.38 127.38 0 0 1 6.988-.193c6.027 0 11.882.404 16.956 1.046 5.072.641 9.375 1.528 12.238 2.458a1.3 1.3 0 0 0 .802-2.473c-3.114-1.008-7.524-1.906-12.713-2.564-5.186-.657-11.14-1.067-17.283-1.067-2.447 0-4.923.07-7.393.21-.344-2.17-.691-4.29-1.041-6.341 8.598-1.432 16.812-1.985 23.186-1.984 4.249 0 7.693.246 9.818.615a1.3 1.3 0 0 0 .443-2.562c-2.375-.409-5.906-.651-10.261-.653-6.523.002-14.868.561-23.63 2.022-.09-.512-.181-1.008-.272-1.507.021-.016.047-.02.068-.038.089-.076.507-.448.912-1.169.406-.717.788-1.793.786-3.181 0-.96-.18-2.064-.625-3.3-.486-1.37-1.414-2.36-2.424-3.035a10.473 10.473 0 0 0-1.109-.637c.071-.21.108-.432.06-.665-4.815-23.56-9.222-38.18-9.231-38.21a1.301 1.301 0 0 0-2.148-.56c-.006.006-7.29 7.049-18.105 18.04-.309-.151-.619-.3-.941-.417-1.692-.616-3.553-.827-5.44-.828-3.47.002-7.065.724-9.816 1.306-2.958.627-4.741 1.403-5.839 2.091a7.373 7.373 0 0 0-.346.231c-.807-.84-1.7-1.49-2.659-1.938-1.35-.632-2.796-.881-4.25-.88-3.483.012-7.08 1.36-10.491 2.628-.956.358-1.89.709-2.8 1.032a1.278 1.278 0 0 0-.234-.365l-16.8-17.334a1.302 1.302 0 0 0-2.157.464c-3.213 8.927-5.978 19.686-8.325 31.129-.003.014.002.026 0 .04-.928.453-1.713.987-2.344 1.614-1.211 1.194-1.807 2.738-1.796 4.274.008 1.876.792 3.708 2.006 5.404-.009.033-.03.06-.037.094a482.239 482.239 0 0 0-.907 5.352c-8.418-1.33-16.346-1.858-22.51-1.859-3.97.001-7.197.216-9.424.6a1.3 1.3 0 1 0 .443 2.562c1.976-.344 5.114-.563 8.981-.562 6.017-.001 13.823.52 22.094 1.825a536.705 536.705 0 0 0-.917 5.976c-1.066-.028-2.13-.047-3.192-.047-6.544 0-12.949.504-18.525 1.245-5.58.742-10.321 1.718-13.583 2.688a1.3 1.3 0 1 0 .741 2.492Zm31.426 78.422c-.286 0-.595-.077-.914-.224-.477-.215-.952-.588-1.284-.909a6.053 6.053 0 0 1-.387-.403l-.095-.113-.018-.023-.001-.001a1.302 1.302 0 0 0-2.194.204v.001a9.224 9.224 0 0 1-1.124 1.634c-.325.374-.702.723-1.067.951-.369.231-.699.337-.999.336l-.244-.022c-.503-.096-.844-.268-1.112-.467a2.498 2.498 0 0 1-.786-1.028 2.781 2.781 0 0 1-.14-.409l-.022-.101a1.3 1.3 0 0 0-2.04-.886h-.001c-.01.008-.416.289-.981.552-.563.266-1.287.494-1.858.489a1.814 1.814 0 0 1-.724-.136 1.583 1.583 0 0 1-.61-.484c-.264-.34-.348-.638-.355-1.039-.015-.692.402-1.664.891-2.408a9.865 9.865 0 0 1 .878-1.162l.055-.06.01-.011v-.001c.23-.24.36-.565.36-.897-.003-1.366.26-3.869.855-6.903.89-4.562 2.523-10.377 5.057-15.796 2.491-5.344 5.87-10.27 10.157-13.316.564.184 1.082.345 1.515.552.372.173.689.368.977.63l.078.078c-.122.143-.22.306-.272.499-2.928 10.875-3.648 24.581-3.652 35.75 0 1.784.02 3.491.052 5.122l-.005.001Zm43.325-9.283c-5.634 2.291-15.332 4.538-23.813 4.529-4.392.005-8.455-.606-11.424-1.999-1.487-.695-2.696-1.573-3.594-2.647-.896-1.076-1.501-2.35-1.762-3.951-.005-.032-.025-.056-.033-.087.306-8.462 1.15-17.506 3.005-25.135.773 1.045 1.64 1.847 2.552 2.445 2.067 1.355 4.228 1.734 5.986 2.263.884.26 1.668.547 2.337.944.669.401 1.234.898 1.741 1.667.696 1.061 1.664 1.858 2.735 2.459 1.611.901 3.473 1.395 5.294 1.687 1.82.289 3.604.368 5.044.368 1.854 0 3.139-.131 3.17-.134l.072-.01.108-.016c.524-.077 2.904-.4 5.56-.399 1.515-.001 3.121.107 4.49.402 1.376.289 2.48.788 3.052 1.375.795.792 1.815 1.263 2.917 1.551 1.108.287 2.322.396 3.602.397 2.586-.002 5.453-.453 8.104-1.027a74.514 74.514 0 0 0 6.725-1.81c.439-.141.853-.2 1.274-.2 1.159-.009 2.438.487 3.875 1.091l.225.092c-3.994 2.49-17.174 10.444-31.242 16.145Zm70.448-34.096c4.055 1.117 7.293 3.341 9.938 6.149 3.964 4.207 6.536 9.742 8.208 14.501.838 2.379 1.454 4.56 1.925 6.29.236.865.435 1.617.611 2.236.181.625.319 1.09.512 1.509.448.952.928 2.057 1.287 3.119.362 1.059.589 2.088.584 2.787.001.35-.054.604-.116.743-.067.142-.103.179-.199.241a2.81 2.81 0 0 1-1.44.368 4.259 4.259 0 0 1-1.241-.198 4.193 4.193 0 0 1-.37-.133l-.085-.038-.014-.006v.001a1.305 1.305 0 0 0-1.342.108 1.304 1.304 0 0 0-.524 1.246h-.001c.004.022.035.261.034.587.007.502-.092 1.201-.331 1.609a1.188 1.188 0 0 1-.421.456c-.177.105-.428.2-.879.208h-.048c-1.008.002-1.859-.405-2.482-.848a5.484 5.484 0 0 1-.711-.603l-.173-.185-.035-.042-.001.001a1.294 1.294 0 0 0-2.248.374l-.003-.001a2.75 2.75 0 0 1-.573.848c-.414.421-1.037.87-2.15 1.047l-.217.017a.88.88 0 0 1-.373-.075c-.182-.08-.399-.258-.628-.613-.345-.524-.652-1.404-.854-2.396-.206-.994-.324-2.098-.393-3.106a1.303 1.303 0 0 0-.462-.907l-.029-.024c-.342-.291-3.619-3.147-6.772-7.565-3.163-4.421-6.162-10.378-6.154-16.836 0-.531.02-1.065.062-1.601.008-.114-.021-.219-.041-.326.091-.079.187-.151.275-.232 2.051-1.873 3.44-4.312 4.201-6.755.336-1.041.709-1.458 1.189-1.813.366-.263.849-.473 1.459-.699l.229-.084c.163.303.439.543.796.641Zm-21.298-95.052a923.172 923.172 0 0 1 3.53-3.47c1.331 4.698 4.713 17.18 8.37 34.92-.282-.11-.564-.22-.828-.336-.705-.304-1.332-.632-1.837-1.019-.506-.389-.894-.822-1.187-1.402-.979-1.934-1.519-3.963-2.633-5.749-.56-.887-1.305-1.715-2.325-2.3-1.019-.588-2.266-.912-3.761-.958-2.623-.083-4.593-.345-6.227-1.11-1.633-.766-3.068-2.045-4.632-4.503a7.47 7.47 0 0 0-1.142-1.37c5.202-5.284 9.575-9.642 12.672-12.703Zm-74.844.047 14.758 15.226c-1.286.356-2.471.577-3.467.575-.206 0-.402-.009-.59-.026h.003a10.843 10.843 0 0 0-1.01-.045c-2.016.002-4.098.521-5.987 1.502-1.886.982-3.586 2.435-4.763 4.335a10.974 10.974 0 0 0-1.163 2.557c-.158.5-.264.867-.37 1.096-.082.175-.149.28-.26.4-.165.174-.482.412-1.165.697-.678.285-1.695.602-3.152.957-.02.005-.037.012-.058.017 2.087-9.966 4.498-19.331 7.224-27.291ZM46.71 69.296c4.16.732 8.4 1.663 12.558 2.829a1.3 1.3 0 0 0 .701-2.504c-4.265-1.194-8.6-2.146-12.843-2.891.293-1.781.592-3.56.904-5.33a1.264 1.264 0 0 0-.088-.684c.122-.387.085-.817-.177-1.166-1.104-1.464-1.673-2.93-1.665-4.098.011-.92.29-1.677 1.033-2.433.746-.75 2.037-1.472 4.044-1.96 1.813-.443 3.057-.837 4.006-1.292.708-.34 1.27-.734 1.69-1.22a4.09 4.09 0 0 0 .687-1.118c.447-1.113.488-1.883 1.322-3.234.894-1.446 2.228-2.604 3.752-3.396 1.52-.793 3.225-1.21 4.787-1.21.263 0 .52.012.768.035h.004c.274.026.55.037.825.037 1.557-.003 3.163-.356 4.813-.85 2.47-.746 5.051-1.826 7.57-2.703 2.513-.881 4.96-1.543 7.047-1.538 1.164 0 2.207.195 3.147.635.94.443 1.8 1.13 2.602 2.231a1.29 1.29 0 0 0 2.16-.099l.006.005.043-.051c.215-.244 1.472-1.393 5.675-2.282 2.711-.578 6.165-1.252 9.276-1.25 1.689-.001 3.267.2 4.547.67 1.286.476 2.258 1.177 2.941 2.248 1.717 2.722 3.563 4.465 5.73 5.469 2.164 1.005 4.512 1.261 7.241 1.352 1.182.04 1.963.277 2.548.612.439.254.786.573 1.112.99.486.622.899 1.481 1.325 2.511.428 1.028.873 2.216 1.493 3.458.648 1.302 1.659 2.2 2.711 2.832 1.583.947 3.288 1.42 4.62 2.04.668.305 1.234.634 1.665 1.015.432.384.742.802.959 1.397.354.985.471 1.782.471 2.419-.002.92-.239 1.523-.452 1.908a2.483 2.483 0 0 1-.117.184c-.113-.01-.225-.027-.342-.005a1.3 1.3 0 0 0-1.039 1.516c.165.89.331 1.81.496 2.743a125.637 125.637 0 0 0-10.89 2.506 1.3 1.3 0 1 0 .701 2.504 122.36 122.36 0 0 1 10.633-2.448c.335 1.962.667 3.99.997 6.069-3.654.29-7.266.754-10.716 1.433a1.3 1.3 0 0 0 .503 2.552c3.395-.67 6.98-1.125 10.618-1.408.322 2.085.642 4.2.955 6.326-3.663-.481-7.243-.812-10.516-.921a1.3 1.3 0 1 0-.087 2.599c3.379.111 7.143.478 10.995 1.004.242 1.666.482 3.33.716 4.98.022.154.081.292.149.421a1.293 1.293 0 0 0 .523 1.375c.496.336 1.16.992 1.817 1.852.993 1.29 1.994 3.036 2.728 4.875.737 1.837 1.201 3.774 1.197 5.417.001.992-.165 1.867-.491 2.576-.71 1.538-1.449 2.404-2.177 2.988-.548.438-1.108.725-1.715.976-.903.381-1.928.634-2.982 1.266a5.332 5.332 0 0 0-1.472 1.31c-.436.565-.784 1.256-1.039 2.08-.635 2.051-1.823 4.107-3.469 5.604-1.654 1.499-3.72 2.464-6.32 2.47-.594 0-1.219-.052-1.876-.164a15.062 15.062 0 0 0-2.538-.233c-1.41-.002-2.628.256-3.682.709-1.589.683-2.759 1.741-3.918 2.821-1.163 1.089-2.332 2.229-3.926 3.292-1.001.66-1.818.859-2.649.865-1.18.008-2.465-.488-3.9-1.091-1.432-.587-3.012-1.281-4.872-1.29a6.692 6.692 0 0 0-2.071.325 71.847 71.847 0 0 1-6.48 1.744c-2.539.553-5.27.97-7.552.968-1.127.001-2.141-.103-2.947-.313-.81-.21-1.386-.522-1.734-.873-1.155-1.14-2.707-1.72-4.343-2.079-1.641-.351-3.402-.459-5.038-.46-3.049.001-5.66.385-6.029.441l-.02.002c-.233.021-1.345.116-2.86.116-1.79.002-4.15-.137-6.242-.658-1.046-.259-2.022-.613-2.823-1.064-.804-.451-1.422-.989-1.833-1.617-.964-1.483-2.256-2.401-3.56-2.978-1.963-.865-3.944-1.128-5.637-1.815-.85-.339-1.629-.763-2.353-1.388-.723-.626-1.404-1.458-2.02-2.673-.669-1.343-1.66-2.212-2.642-2.724-.736-.39-1.452-.612-2.082-.817-.956-.305-1.678-.572-2.204-1.051a3.229 3.229 0 0 1-.742-1.005c-.227-.46-.433-1.08-.578-1.923-.172-.998-.25-1.97-.25-2.91 0-2.452.53-4.689 1.284-6.556.751-1.865 1.738-3.362 2.584-4.29.052-.056.073-.126.113-.188.338-.201.592-.533.639-.954.298-2.648.62-5.345.963-8.072 4.557-.686 9.056-1.16 13.028-1.292a1.3 1.3 0 0 0-.087-2.598c-3.89.13-8.212.57-12.595 1.208.32-2.455.658-4.927 1.014-7.413 4.33.202 8.618.657 12.638 1.45a1.3 1.3 0 0 0 .503-2.551c-4.096-.808-8.417-1.27-12.765-1.483.279-1.88.568-3.763.868-5.646Z"/></svg>