<svg xmlns="http://www.w3.org/2000/svg" width="200" height="200" fill="none"><path fill="#FFD93A" d="M190.437 121.568c-5.058-2.366-73.308-10.782-73.308-10.782l-9.207-10.005c-2.704-2-7.675 3.709-9.204 8.146-1.53 4.439-2.835 10.298-.556 11.113 2.278.816 15.066 1.572 15.066 1.572s.955 1.131 2.587 3.054c-5.652 3.747-8.155 7.271-6.159 11.535l5.179-.832s-.525-2.361 5.132-5.82a2513.955 2513.955 0 0 0 14.885 17.319c-.099.108-.199.217-.299.338-4.013 4.824-7.932 5.039-10.153 3.939-2.222-1.102-4.178-1.512-6.912 1.551 0 0 .302 1.469 4.505 3.87 4.203 2.4 9.502 2.368 13.972-.305 1.694-1.013 2.962-2.368 3.884-3.66 9.605 10.964 18.686 20.994 21.083 22.557 5.603 3.65 16.85-6.651 24.347-20.971 7.496-14.32 10.216-30.253 5.158-32.619Z"/><path fill="#191C22" d="M79.227 70.87a1.3 1.3 0 0 0-1.698-.705c-1.818.758-3.485 2.013-4.745 3.08-1.255 1.068-2.084 1.953-2.107 1.977A1.3 1.3 0 1 0 72.575 77l.028-.03c.158-.165.969-1 2.084-1.928 1.11-.928 2.54-1.942 3.836-2.473a1.3 1.3 0 0 0 .704-1.698ZM110.136 73.245c-1.26-1.067-2.927-2.322-4.745-3.08a1.3 1.3 0 1 0-.994 2.403c1.383.566 2.915 1.683 4.055 2.657a27.954 27.954 0 0 1 1.767 1.644l.098.1.027.03a1.301 1.301 0 0 0 1.899-1.776c-.023-.025-.852-.91-2.107-1.978ZM77.974 91.023c.17-.458.223-.91.224-1.343-.005-.927-.242-1.79-.534-2.504a4.969 4.969 0 0 0-.516-.962 2.37 2.37 0 0 0-.398-.442 1.66 1.66 0 0 0-.357-.232 1.463 1.463 0 0 0-.634-.147 1.358 1.358 0 0 0-.968.392c-.213.22-.313.396-.411.566a5.765 5.765 0 0 0-.31.672c-.016.038-.024.061-.036.094-.677.781-1.024 1.692-1.016 2.529.002.826.279 1.54.684 2.089a2.9 2.9 0 0 0 .74.707c.295.188.656.347 1.125.352.135 0 .28-.031.423-.066l.003.013c.027-.006.052-.019.08-.026.012-.004.023-.002.035-.005l-.001-.006c.333-.088.654-.225.927-.424.463-.334.772-.802.94-1.257ZM109.836 85.782c-.09-.125-.189-.261-.292-.394a4.552 4.552 0 0 0-.341-.397 1.307 1.307 0 0 0-.296-.222 1.403 1.403 0 0 0-.674-.173c-.249 0-.451.064-.601.132a1.733 1.733 0 0 0-.554.405 3.145 3.145 0 0 0-.478.695 6.306 6.306 0 0 0-.688 2.803c.002.665.122 1.396.533 2.08.403.686 1.138 1.252 2.025 1.483.117.032.22.046.341.046.541-.01.909-.222 1.192-.434.423-.332.714-.743.943-1.227a3.99 3.99 0 0 0 .37-1.668c.013-.903-.378-1.928-1.199-2.724a19.444 19.444 0 0 0-.281-.405ZM94.756 95.113a22.602 22.602 0 0 1-1.081-1.02l-.057-.059-.014-.015a1.296 1.296 0 0 0-1.074-.4c-.402.04-.759.262-.973.603-.018.03-.4.624-1.035 1.307-.633.686-1.52 1.449-2.482 1.867-.585.257-.86.892-.715 1.492-.006.205.02.412.117.609.63 1.284 1.409 2.251 2.309 2.904.896.654 1.915.969 2.887.965 1.345-.003 2.56-.56 3.493-1.378.935-.823 1.623-1.925 1.883-3.173.015-.074-.002-.144 0-.217.173-.566-.034-1.192-.568-1.5-.994-.573-1.975-1.354-2.69-1.985Zm-2.118 5.653c-.439-.004-.875-.122-1.361-.47-.334-.242-.69-.617-1.04-1.146a11.552 11.552 0 0 0 2.266-1.934c.111-.122.214-.24.311-.354a21.863 21.863 0 0 0 2.484 1.955c-.19.447-.496.881-.881 1.216-.536.471-1.18.736-1.779.733Z"/><path fill="#191C22" d="m190.761 119.866.001.001a5.608 5.608 0 0 0-1.57-.535 1.315 1.315 0 0 0-.502-.173c-9.688-1.186-27.421-3.557-42.725-5.631l-4.239-.575a607.5 607.5 0 0 0-.981-8.469c9.836.999 21.597 3.251 30.477 6.802a1.3 1.3 0 1 0 .963-2.415c-9.432-3.752-21.63-6.052-31.774-7.033a574.128 574.128 0 0 0-.808-6.065c2.043-.123 4.098-.185 6.144-.184 6.173 0 12.243.517 17.513 1.278 5.267.76 9.746 1.768 12.692 2.72a1.3 1.3 0 1 0 .799-2.473c-3.156-1.019-7.733-2.041-13.12-2.82-5.384-.777-11.566-1.305-17.884-1.305-2.162 0-4.339.065-6.507.2a553.048 553.048 0 0 0-.907-6.072c8.033-1.573 16.509-2.217 23.74-2.215 3.643 0 6.971.161 9.761.442a1.3 1.3 0 0 0 .26-2.587c-2.895-.291-6.301-.455-10.021-.455-7.355.003-15.931.642-24.144 2.245-4.625-28.957-9.707-45.58-9.721-45.628a1.303 1.303 0 0 0-2.147-.554c-.006.007-7.776 7.518-18.956 18.947-1.755-.061-3.639-.09-5.603-.09-11.535.001-25.61.911-28.783 1.126L56.46 38.993a1.302 1.302 0 0 0-2.218.396c-4.22 11.733-7.531 28.237-10.05 44.814-7.328-1.448-14.558-2.136-21.323-2.137-3.966 0-7.773.236-11.347.694a1.3 1.3 0 1 0 .33 2.58c3.455-.444 7.154-.674 11.017-.674 6.627 0 13.737.682 20.939 2.114-.224 1.52-.443 3.04-.654 4.554-.082.593-.16 1.183-.24 1.774a107.14 107.14 0 0 0-5.01-.12c-6.318.001-12.5.529-17.885 1.306-5.386.779-9.963 1.801-13.119 2.82a1.3 1.3 0 1 0 .8 2.474c2.944-.953 7.423-1.961 12.691-2.72 5.27-.762 11.34-1.28 17.513-1.28 1.551 0 3.109.036 4.662.105-.337 2.56-.654 5.092-.953 7.583-10.487 1.221-20.71 3.762-29.385 9.058a1.3 1.3 0 0 0 1.357 2.219c8.031-4.92 17.672-7.398 27.714-8.625-1.533 13.186-2.526 24.919-3.016 32.359-.177 1.16-3.907 25.759-4.125 50.666a1.3 1.3 0 0 0 2.6.023v-.001c.11-12.627 1.135-25.225 2.134-34.658.5-4.717.992-8.643 1.36-11.388.184-1.372.336-2.449.443-3.182.106-.733.166-1.117.166-1.118l.012-.114c.494-7.502 1.506-19.468 3.077-32.882 3.464-.348 6.962-.564 10.447-.688a1.3 1.3 0 0 0-.094-2.598v-.001c-3.334.122-6.694.328-10.038.648.285-2.351.585-4.736.903-7.146 3.473.253 6.893.697 10.13 1.391a1.3 1.3 0 0 0 .544-2.542c-3.327-.713-6.808-1.168-10.327-1.43.072-.525.141-1.048.215-1.575.2-1.45.41-2.904.624-4.36a109.48 109.48 0 0 1 10.032 2.72 1.3 1.3 0 0 0 .804-2.472 112.279 112.279 0 0 0-10.454-2.825c2.358-15.543 5.424-31.013 9.21-42.332l15.206 18.104a1.3 1.3 0 0 0 1.088.46c.003 0 1.015-.072 2.747-.182 5.192-.327 16.813-.983 26.514-.982 2.154 0 4.212.032 6.079.107.366.015.725-.128.982-.39a1224.738 1224.738 0 0 1 13.921-14.02 831.165 831.165 0 0 1 3.832-3.773c1.466 5.251 5.408 20.398 9.065 43.33-3.088.687-6.1 1.517-8.948 2.513a1.3 1.3 0 1 0 .859 2.454c2.687-.943 5.548-1.736 8.495-2.396.287 1.861.572 3.78.853 5.737-3.008.274-5.976.7-8.832 1.312a1.299 1.299 0 1 0 .545 2.542c2.777-.595 5.687-1.01 8.651-1.275.257 1.845.51 3.72.758 5.644-2.772-.213-5.354-.325-7.611-.327-.278 0-.551.002-.818.005a1.3 1.3 0 1 0 .031 2.6c.258-.003.52-.005.787-.005 2.321-.002 5.025.122 7.942.359.337 2.712.663 5.495.976 8.352a14620.415 14620.415 0 0 1-19.037-2.604l-1.769-.243c-.68-.779-2.359-2.693-4.164-4.675a132.643 132.643 0 0 0-3.434-3.66 35.407 35.407 0 0 0-1.41-1.367 10.961 10.961 0 0 0-.581-.495 3.719 3.719 0 0 0-.577-.385 3.008 3.008 0 0 0-1.387-.329c-.924.007-1.751.355-2.543.843-1.186.743-2.333 1.864-3.434 3.217a27.863 27.863 0 0 0-3.008 4.619c-1.616 3.121-2.489 6.453-2.498 9.095.003 1.016.126 1.94.469 2.766.173.411.407.801.734 1.136.324.334.75.604 1.224.741.437.128.96.233 1.588.34 2.179.367 5.572.708 8.454.964 1.943.172 3.624.302 4.525.37a19.71 19.71 0 0 0 1.163 1.743c-1.169.973-2.404 2.136-3.439 3.469-.62.801-1.168 1.661-1.571 2.584-.401.922-.658 1.915-.658 2.953-.001.446.049.9.152 1.351-.736.222-1.436.41-2.061.513-1.869.313-4.065.459-6.491.459-5.682.001-12.619-.801-19.739-2.013-7.122-1.212-14.434-2.83-20.91-4.448a1.3 1.3 0 1 0-.63 2.522c6.527 1.631 13.896 3.263 21.104 4.489 7.21 1.226 14.254 2.049 20.175 2.05 2.53 0 4.857-.15 6.919-.494 1.525-.259 3.061-.805 4.511-1.263 1.443-.464 2.801-.824 3.764-.816.354 0 .649.044.886.122.354.122.595.283.857.647.17.241.336.604.472 1.092a7.995 7.995 0 0 0-.74-.041c-.737 0-1.546.092-2.441.286a1.3 1.3 0 0 0 .553 2.541 8.97 8.97 0 0 1 1.888-.227c.901.002 1.48.188 1.887.418.306.175.525.383.702.619.264.348.424.771.509 1.145l-.013-.001c-1.02 0-2.1.158-3.201.513a1.3 1.3 0 1 0 .797 2.475 7.846 7.846 0 0 1 2.404-.388c1.315-.001 2.456.362 3.237.854.391.244.689.518.88.768.193.253.275.472.295.627.02.147.028.281.028.404a2.1 2.1 0 0 1-.223.99c-.052.099-.1.166-.127.201l-.021.025.005.005-.005.007a4.675 4.675 0 0 0-1.437-.24c-.849.001-1.641.225-2.385.547-1.117.487-2.165 1.192-3.304 1.941-1.136.751-2.355 1.552-3.746 2.257-7.09 3.609-17.803 5.295-29.545 5.287-9.128 0-18.884-1-28.096-2.805a1.3 1.3 0 1 0-.5 2.551c9.374 1.837 19.28 2.854 28.596 2.854 11.99-.008 22.995-1.663 30.721-5.568 1.323-.672 2.46-1.395 3.476-2.062 3.588 4.056 7.933 6.11 11.787 6.12.685 0 1.352-.074 1.997-.208 3.594 3.093 7.263 4.268 10.333 4.264.372 0 .736-.017 1.09-.05l4.253 25.296a1.3 1.3 0 0 0 2.564-.431l-4.275-25.424c.096-.034.199-.062.292-.099a7.636 7.636 0 0 0 2.025-1.167 688.539 688.539 0 0 0 12.92 13.502c.016.016.037.021.053.036.342.306.708.585 1.123.801.847.445 1.791.652 2.752.651 1.809-.006 3.679-.687 5.607-1.828 2.89-1.722 5.944-4.532 8.966-8.17 3.018-3.638 5.99-8.107 8.632-13.148 2.451-4.68 4.336-9.312 5.612-13.593 1.276-4.283 1.949-8.208 1.95-11.516-.001-2.078-.263-3.918-.863-5.471-.594-1.544-1.575-2.835-2.976-3.567Zm-68.782 14.468c-.747.05-1.472.21-2.137.492a5.44 5.44 0 0 0-1.277.766c-.402-.666-.929-1.204-1.549-1.557-.057-.033-.117-.054-.175-.084.022-.025.037-.046.061-.071a10.069 10.069 0 0 1 2.873-2.136l2.204 2.59Zm.716 9.02a8.337 8.337 0 0 0-.932-.335 6.24 6.24 0 0 0-.159-1.02 2.65 2.65 0 0 1 1.061-.353 1.3 1.3 0 0 0-.23-2.589 5.217 5.217 0 0 0-1.994.614 4.893 4.893 0 0 0-.985-.87c.03-.146.046-.297.023-.452-.003-.02-.009-.037-.012-.056.148-.085.282-.2.391-.345.2-.268.543-.536 1-.729a4.123 4.123 0 0 1 1.585-.308c.826.002 1.654.229 2.344.713a663.998 663.998 0 0 0 8.471 9.707c-1.055 1.043-2.103 1.868-3.095 2.421-1.107.617-2.13.908-3.051.907a4.221 4.221 0 0 1-1.657-.354c.045-.074.09-.144.135-.231.269-.51.521-1.26.52-2.196 0-.24-.016-.491-.051-.752a3.569 3.569 0 0 0-.238-.86l.276-.024a1.3 1.3 0 0 0-.23-2.589c-.258.025-.607.032-1.057.148a3.777 3.777 0 0 0-.776.313 7.398 7.398 0 0 0-1.339-.76Zm-3.559 9.094c.436-.26.85-.492 1.214-.649.533-.231.971-.333 1.352-.333.245.001.473.039.728.131.073.027.148.021.222.035 1.34 1.08 2.892 1.633 4.46 1.627 1.471 0 2.924-.46 4.317-1.237 1.396-.779 2.747-1.879 4.058-3.236a1.27 1.27 0 0 0 .3-.558c.002-.003.006-.003.008-.005a1.3 1.3 0 0 0 .102-1.836 625.748 625.748 0 0 1-8.237-9.409 1.281 1.281 0 0 0-.259-.477 6.22 6.22 0 0 0-.791-.746c-2.554-2.983-4.804-5.643-6.611-7.756a1.3 1.3 0 1 0-1.976 1.69l.023.027a12.63 12.63 0 0 0-3.141 2.495c-.442.49-.766.928-.986 1.257-1.191.091-2.378.407-3.552.77a3.438 3.438 0 0 1-.051-.564c-.001-.604.15-1.245.442-1.915.435-1.003 1.19-2.051 2.081-3.019.89-.969 1.91-1.862 2.846-2.598.123-.098.215-.218.293-.345l.007-.004a1.3 1.3 0 0 0 .15-1.832 17.144 17.144 0 0 1-1.842-2.651l-.09-.166-.02-.038-.003-.006v-.001l-.013-.019a1.909 1.909 0 0 1-.058-.517c-.002-.484.108-1.188.346-1.981.237-.796.598-1.687 1.071-2.589a1.3 1.3 0 0 0-2.303-1.207 17.343 17.343 0 0 0-1.259 3.053c-.256.862-.406 1.67-.44 2.425l-.359-.028c-1.778-.14-4.512-.37-7.047-.638a100.81 100.81 0 0 1-3.502-.425c-1.01-.144-1.843-.3-2.23-.417l-.096-.063c-.072-.07-.206-.275-.303-.638-.098-.36-.16-.859-.16-1.447-.008-2.06.76-5.137 2.204-7.894 1.056-2.033 2.402-3.945 3.695-5.292.644-.673 1.276-1.204 1.815-1.538.539-.341.974-.457 1.169-.45.1.001.145.016.192.039.007.003.093.06.209.154.47.374 1.36 1.242 2.354 2.279 1.501 1.563 3.295 3.546 4.708 5.133.707.794 1.32 1.49 1.755 1.986.436.497.692.792.693.793.207.239.491.392.804.436.004 0 42.753 5.897 65.053 8.746l-.077.043c-2.889 1.722-5.944 4.531-8.965 8.169-3.018 3.639-5.991 8.108-8.633 13.15-2.451 4.678-4.335 9.311-5.612 13.592-1.275 4.282-1.948 8.208-1.95 11.515 0 .634.034 1.238.086 1.826-6.108-6.325-11.616-12.268-17.342-18.61a1.3 1.3 0 1 0-1.93 1.742l.107.117a44.318 44.318 0 0 1-3.6 2.553c-1.325.848-2.652 1.577-3.486 1.887-.696.262-1.495.404-2.37.404-2.837.009-6.454-1.552-9.57-4.94Zm24.872 8.469c-.807.318-1.82.528-2.972.528-2.127-.003-4.737-.704-7.508-2.74a33.044 33.044 0 0 0 2.432-1.415 46.929 46.929 0 0 0 3.938-2.802c.005-.004.007-.01.012-.015 1.77 1.95 3.531 3.873 5.301 5.786a5.188 5.188 0 0 1-1.203.658Zm46.151-21.24c-1.223 4.102-3.046 8.591-5.424 13.129-3.415 6.519-7.404 12.04-11.203 15.879-1.898 1.92-3.748 3.418-5.421 4.41-1.672.999-3.157 1.47-4.278 1.464-.601-.002-1.099-.122-1.546-.354a2.958 2.958 0 0 1-.527-.356h-.001c-.157-.16-.306-.315-.463-.474-.29-.36-.547-.811-.768-1.375-.441-1.129-.689-2.676-.687-4.531-.002-2.953.617-6.672 1.842-10.772 1.223-4.102 3.045-8.591 5.423-13.129 3.415-6.519 7.405-12.04 11.204-15.88 1.897-1.919 3.747-3.417 5.42-4.41 1.672-.999 3.157-1.469 4.279-1.463.601.001 1.098.121 1.544.354h.001c.723.381 1.313 1.067 1.759 2.205.441 1.129.689 2.676.687 4.53.002 2.954-.617 6.673-1.841 10.773Z"/></svg>