<svg xmlns="http://www.w3.org/2000/svg" width="200" height="200" fill="none"><path fill="#FFD93A" d="m159.588 118.628 3.354-4.452-2.939-4.65-4.868 5.01c.601-3.129-.842-9.387-6.619-5.415-5.777 3.971.722 7.822.722 7.822l-11.072-.12-9.988 7.341c1.925-2.769-.482-9.628-5.898-6.499-5.415 3.129-.12 7.822-.12 7.822l-10.951-1.805-11.434 5.055c1.686-2.046 3.852-8.906-3.008-7.582-6.86 1.324-2.166 7.944-2.166 7.944l-10.832-5.417-11.312 2.046c1.324-.963 5.656-7.34-.963-8.423-6.619-1.084-4.933 6.377-4.933 6.377l-9.87-6.859-11.432.24c1.805-.721 6.86-6.257.361-8.063-6.499-1.805-6.017 5.416-6.017 5.416l-4.703-4.562-3.208 4.28 3.217 4.735-1.806 5.776-11.552 8.786 2.527 4.211 11.313-6.739 2.887 12.997 4.453-1.203-1.323-13.358 3.25-6.499 10.95-1.203 6.86 6.619-1.444 6.619-9.146 10.349 2.647 3.491 10.11-7.824 4.693 12.156 4.453-1.445-3.25-13.598 2.287-6.499 9.989-3.249 9.266 5.896.602 6.981-6.74 11.673 3.852 2.768 8.064-10.35 7.461 10.11 3.73-2.287-6.258-12.516.12-6.379 9.267-5.896 10.229 3.249 1.806 6.499-3.249 13.117 4.212 2.046 5.055-12.396 10.349 8.304 2.648-3.249-9.027-10.35-2.046-6.739 7.944-7.1 9.868 1.203 3.49 6.619-1.324 13.358 4.573 1.204 2.769-13.599 11.191 7.22 2.769-4.211-10.951-8.666-2.889-6.137Z"/><path fill="#191C22" d="M64.11 63.504c.14.474.281.86.442 1.19.395.79.848 1.78 1.815 2.592.48.401 1.078.732 1.778.945.701.216 1.5.322 2.427.322.28 0 .575-.01.882-.03 2.624-.173 4.188-.36 5.415-.742a5.967 5.967 0 0 0 1.587-.752c.452-.307.819-.647 1.179-1 .64-.634 1.077-1.428 1.42-2.318.508-1.338.804-2.923.99-4.666.184-1.74.25-3.634.25-5.547 0-2.26-.092-4.547-.2-6.62a4.458 4.458 0 0 0-2.227-3.64l-.65 1.127.65-1.127c-1.528-.88-3.145-1.218-4.665-1.216-.438 0-.87.027-1.292.076-4.9.576-8.816 4.129-9.864 8.64a28.685 28.685 0 0 0-.734 6.447c0 1.805.171 3.386.406 4.654.118.635.252 1.192.391 1.665Zm7.236-14.792a3.138 3.138 0 0 1 1.59-1.464h.002a3.5 3.5 0 0 1 1.35-.286 2.982 2.982 0 0 1 1.977.757c.507.446.848.992 1.106 1.563.507 1.146.702 2.438.707 3.622 0 .542-.044 1.06-.14 1.543-.104.485-.237.934-.548 1.385-.206.293-.54.623-1.052.767l-.004.002c-.26.07-.527.106-.791.106-.777 0-1.463-.298-2.015-.698-.557-.403-1.01-.918-1.388-1.488-.746-1.145-1.219-2.51-1.228-3.878 0-.648.113-1.31.434-1.931Zm-.634 7.161a1.3 1.3 0 0 1 1.662.786l.095.265a1.3 1.3 0 1 1-2.448.876l-.094-.264a1.3 1.3 0 0 1 .785-1.663ZM116.01 42.93a4.555 4.555 0 0 0-2.238 3.647 96.149 96.149 0 0 0-.184 5.787c.001 2.776.14 5.574.534 7.977.199 1.203.46 2.309.819 3.282.364.971.816 1.825 1.497 2.495.42.41.894.758 1.421 1.02.794.396 1.667.599 2.687.723 1.023.123 2.216.172 3.732.218.146.005.288.007.426.007.967 0 1.803-.106 2.538-.315 1.103-.31 1.971-.884 2.587-1.557.62-.672 1.005-1.401 1.332-2.056.167-.339.313-.736.461-1.227.434-1.462.841-3.742.843-6.546 0-1.871-.185-3.97-.678-6.186-1.01-4.507-4.92-8.015-9.824-8.506a11.192 11.192 0 0 0-1.11-.056c-1.572-.002-3.255.354-4.843 1.292Zm4.189 5.37a3.134 3.134 0 0 1 1.591-1.462l.001-.001h.001a3.497 3.497 0 0 1 1.349-.286 2.981 2.981 0 0 1 1.977.757c.507.446.848.992 1.106 1.563.507 1.145.702 2.437.707 3.621a7.943 7.943 0 0 1-.141 1.544c-.103.484-.237.934-.547 1.385-.206.292-.54.623-1.052.767l-.004.001a3.013 3.013 0 0 1-.792.107c-.776-.001-1.463-.299-2.015-.698-.556-.404-1.009-.918-1.387-1.488-.746-1.145-1.219-2.51-1.229-3.878.001-.648.114-1.31.435-1.931Zm-.629 7.16c.677-.239 1.42.115 1.659.792l.094.265a1.3 1.3 0 1 1-2.451.868l-.093-.265a1.3 1.3 0 0 1 .791-1.66ZM81.05 38.207a13.989 13.989 0 0 1 .82 1.401l.039.078.007.017a1.3 1.3 0 0 0 2.361-1.09c-.02-.043-.385-.83-1.063-1.848-.682-1.018-1.669-2.275-3.015-3.242a1.3 1.3 0 1 0-1.513 2.114c.954.678 1.794 1.71 2.365 2.57ZM112.083 40.274a1.3 1.3 0 0 0 1.723-.643h-.001.001c.02-.044.346-.736.913-1.581.564-.847 1.377-1.839 2.298-2.5a1.3 1.3 0 1 0-1.523-2.107c-1.341.974-2.322 2.235-2.999 3.256-.674 1.021-1.035 1.81-1.055 1.853a1.3 1.3 0 0 0 .643 1.722ZM127.153 81.855c.315.168.691.197 1.029.082.338-.115.618-.37.765-.695l1.422-3.146c2.19-.407 4.037-.89 5.521-1.451 1.639-.627 2.867-1.314 3.716-2.227a1.301 1.301 0 0 0-1.918-1.756c-.375.424-1.293 1.02-2.718 1.55-1.423.54-3.342 1.043-5.728 1.452a1.302 1.302 0 0 0-.964.746l-1.13 2.5-3.63-1.927a1.29 1.29 0 0 0-.795-.138c-6.039.87-14.151 1.507-24.864 1.547a264.8 264.8 0 0 1-.974.002c-10.18 0-18.068-.62-23.989-1.476a1.288 1.288 0 0 0-.851.17l-3.317 1.976-1.097-2.512a1.304 1.304 0 0 0-.943-.756c-2.624-.508-4.593-1.017-5.932-1.535-.67-.257-1.178-.516-1.528-.753-.352-.237-.534-.443-.62-.588a1.3 1.3 0 1 0-2.229 1.34c.34.563.822 1.016 1.395 1.403.864.58 1.952 1.036 3.334 1.468 1.221.379 2.69.731 4.41 1.08l1.418 3.245c.148.34.44.603.794.717.353.114.743.07 1.063-.12l4.194-2.5c6.012.844 13.864 1.44 23.898 1.44h.983c10.571-.041 18.664-.657 24.802-1.516l4.483 2.378Z"/><path fill="#191C22" d="M103.149 74.534a1.3 1.3 0 0 0 1.73-.622l.688-1.462a1.3 1.3 0 1 0-2.352-1.108l-.688 1.462a1.3 1.3 0 0 0 .622 1.73ZM91.74 73.956a1.3 1.3 0 1 0 2.25-1.302l-.709-1.227a1.3 1.3 0 1 0-2.25 1.302l.71 1.227ZM96.877 119.153h.004-.004Z"/><path fill="#191C22" d="M178.327 104.911c-.332-.827-.905-1.689-1.568-2.518-.331-.409-.684-.8-1.045-1.147-.364-.347-.727-.65-1.141-.891a4.973 4.973 0 0 0-.806-.345c-1.052-.367-2.852-.834-4.855-1.23-2.002-.392-4.161-.707-5.925-.71-.354.002-.69.017-1.016.048a1.275 1.275 0 0 0-.58.078l-.03.012c-.069.013-.143.016-.211.031-.285.064-.563.15-.838.284a2.655 2.655 0 0 0-.457.289l-1.072.428c-.785.315-1.718.687-2.724 1.087.099-.302.219-.59.367-.857.551-.99 1.436-1.764 2.198-2.269a8.7 8.7 0 0 1 1.241-.687l.066-.028.011-.005c.583-.228.92-.833.806-1.45a1.297 1.297 0 0 0-1.278-1.06c-1.491 0-3.163.233-4.863.57-5.087 1.011-10.436 2.99-10.47 3-.379.14-.671.446-.791.832-.147.477-.495 1.211-1.031 1.994a12.667 12.667 0 0 1-3.612 3.497 11.258 11.258 0 0 1-4.968 1.725l-.463.027-.356.022-.101.007-.041.003-.04.004-.068.009-.129.027a.793.793 0 0 1-.051.016c-1.597.003-3.294.017-5.038.047a44.85 44.85 0 0 0 5.442-2.307c3.455-1.762 6.434-3.942 8.826-6.613 2.285-2.55 4.017-5.553 5.12-9.009 5.664-.806 7.592-2.758 7.804-3.013a1.297 1.297 0 0 0 .076-1.612l-3.094-4.31c.604-.233 1.321-.541 2.091-.942 2.002-1.046 4.385-2.725 5.901-5.36.15-.12.282-.266.368-.453a1.3 1.3 0 0 0-.63-1.727c-.177-.08-3.701-1.68-14.975-3.17.415-3.27.639-6.426.639-9.449 0-5.667-.77-10.88-2.479-15.524-2.554-6.968-7.276-12.632-14.457-16.451-6.755-3.6-15.637-5.609-27.002-5.836.069-.498.152-1.004.256-1.51.403-1.973 1.113-3.922 2.229-5.375a1.299 1.299 0 0 0-1.469-2.014c-.041.015-1.78.634-3.927 1.792-1.933 1.05-4.203 2.516-5.88 4.485l-3.353-.691a1.302 1.302 0 0 0-1.402.648l-1.898 3.46c-3.593.475-6.888 1.151-9.896 2.024-9.18 2.659-15.74 7.16-19.945 13.114-4.21 5.951-6.032 13.27-6.03 21.44 0 3.107.27 6.347.765 9.692-4.794.74-7.82 1.545-9.75 2.256-1.319.486-2.134.929-2.662 1.3-.526.37-.771.677-.888.884a1.298 1.298 0 0 0 .172 1.513c1.943 2.125 4.389 3.601 6.354 4.579a29.28 29.28 0 0 0 1.907.86l-3.488 5.307a1.3 1.3 0 0 0 0 1.426c.098.154.627.878 1.916 1.625 1.182.688 3.004 1.39 5.692 1.752.788 2.77 2.23 5.322 4.203 7.604 3.262 3.771 7.938 6.834 13.569 9.138.424.174.865.334 1.3.499a312.807 312.807 0 0 0-5.746-.076.219.219 0 0 1-.025-.009c-.1-.028-.127-.03-.155-.036l-.101-.013c-.067-.006-.102-.007-.205-.014a2.642 2.642 0 0 1-.08-.005c-3.007-.122-5.37-1.343-7.123-2.857a12.667 12.667 0 0 1-2.15-2.406c-.535-.783-.884-1.517-1.031-1.995a1.299 1.299 0 0 0-.791-.831c-.02-.007-2.41-.889-5.502-1.775a62.525 62.525 0 0 0-4.968-1.226c-1.7-.336-3.371-.568-4.863-.57-.628 0-1.163.445-1.278 1.062a1.297 1.297 0 0 0 .808 1.45c.062.022 1.18.491 2.202 1.398.512.452.997 1.006 1.346 1.653.204.378.357.791.456 1.242l-1.106-.44c-1.525-.607-2.862-1.14-3.818-1.524a2.66 2.66 0 0 0-.456-.288 4.058 4.058 0 0 0-1.06-.32l-.018-.007c-.06-.024-.12-.019-.181-.034l-.012-.002h-.003a1.281 1.281 0 0 0-.396-.04c-.323-.03-.654-.049-1.005-.05-2.014.004-4.552.413-6.768.883a45.991 45.991 0 0 0-2.94.722c-.408.117-.767.228-1.071.335-.31.111-.543.198-.806.346-.472.274-.883.631-1.296 1.041a13.682 13.682 0 0 0-1.681 2.076c-.24.363-.45.723-.62 1.079-.169.362-.307.702-.367 1.138-.03.243-.043.485-.043.725.003 1.049.226 2.075.436 2.874.209.781.41 1.325.428 1.372.287.77.768 1.382 1.291 1.925.79.81 1.71 1.461 2.447 1.934.735.471 1.285.754 1.31.767.425.218.937.185 1.33-.085.102-.07.502-.363.892-.961.148-.224.283-.507.404-.819.345.336.684.644.99.903.741.626 1.299 1.006 1.325 1.025a1.3 1.3 0 0 0 1.16.152c.21-.068.91-.396 1.5-1.299.13-.197.252-.423.366-.671l3.969 5.284-2.263 5.256c-.694.549-2.694 2.132-4.806 3.827a354.188 354.188 0 0 0-3.767 3.061c-.556.459-1.05.874-1.454 1.222-.407.351-.71.621-.933.845a1.302 1.302 0 0 0-.164 1.619l2.364 3.648a1.302 1.302 0 0 0 1.687.448c.568-.294 1.543-.862 2.744-1.578 2.37-1.413 5.54-3.363 7.421-4.526l2.275 11.481c.14.704.82 1.16 1.525 1.023l4.65-.908a1.3 1.3 0 0 0 1.04-1.442c-.067-.523-.18-1.67-.306-3.057a897.09 897.09 0 0 1-.59-6.881c-.127-1.541-.229-2.796-.276-3.384l1.207-2.376c.563.312 1.128.623 1.733.917l.187.074c.007.001 2.57.786 5.792 1.691 2.796.785 6.067 1.657 8.64 2.195l-.653 2.549a826.19 826.19 0 0 0-4.152 4.485 345.082 345.082 0 0 0-3.248 3.577 95.625 95.625 0 0 0-1.248 1.421c-.347.407-.605.718-.79.973a1.302 1.302 0 0 0 .083 1.626l2.905 3.26a1.3 1.3 0 0 0 1.732.189c.517-.375 1.392-1.079 2.468-1.963.73-.6 1.546-1.278 2.37-1.967-.891 11.285-1.644 24.861-2.22 40.278a1.3 1.3 0 0 0 2.598.098c.618-16.532 1.439-30.938 2.413-42.637.002-.028-.01-.053-.01-.08.552-.466 1.053-.891 1.483-1.256l4.041 11.03a1.297 1.297 0 0 0 1.655.778l4.456-1.579c.65-.23 1.007-.927.814-1.589-.149-.507-.439-1.624-.78-2.977a892.066 892.066 0 0 1-1.654-6.716l-.8-3.305 1.806-5.543 8.72-2.989 8.46 5.403.276 5.782-.712 1.297c-.81 1.476-2.055 3.735-3.208 5.807-1.15 2.067-2.223 3.97-2.644 4.657a1.3 1.3 0 0 0 .38 1.755l3.889 2.635c.584.396 1.383.25 1.79-.326l6.835-9.67c.618.89 1.443 2.075 2.313 3.318.888 1.266 1.821 2.588 2.623 3.705.807 1.122 1.466 2.02 1.868 2.512a1.301 1.301 0 0 0 1.723.261l3.67-2.427a1.3 1.3 0 0 0 .499-1.544 17.17 17.17 0 0 0-.508-1.14c-.792-1.658-2.286-4.546-3.591-7.038a904.798 904.798 0 0 0-2.256-4.276l.092-5.725 8.202-5.043 8.889 3.046 1.805 5.543-.345 1.429c-.393 1.627-.998 4.12-1.565 6.41-.564 2.284-1.098 4.391-1.323 5.159a1.298 1.298 0 0 0 .814 1.589l4.456 1.579a1.297 1.297 0 0 0 1.655-.778l4.041-11.03 1.923 1.629a473.114 473.114 0 0 1 3.512 42.344 1.3 1.3 0 1 0 2.598-.098 458.168 458.168 0 0 0-.368-7.951c.046-.038.1-.06.141-.105 2.409-2.724 4.317-5.93 6.962-8.828.895-.982 1.792-1.59 2.667-1.966a6.487 6.487 0 0 1 2.581-.521c1.431-.003 2.794.44 3.787.898.496.227.898.456 1.17.623.135.084.238.152.304.197l.07.049.014.01a1.3 1.3 0 0 0 2.04-1.339c-.02-.078-.406-1.735-1.513-3.668a13.997 13.997 0 0 0-.892-1.356l1.1-2.449c.162-.36.151-.773-.029-1.124a1.297 1.297 0 0 0-.895-.682c-.069-.014-.581-.114-1.393-.114-.903 0-2.192.148-3.625.672-.094-.033-.18-.077-.277-.108a18.177 18.177 0 0 0-3.276-.739l-.257-1.823a1.3 1.3 0 0 0-1.993-.91c-.074.048-1.072.701-2.262 2.041a15.39 15.39 0 0 0-.909 1.126 12.41 12.41 0 0 0-2.371 1.051c-.899.516-1.687 1.096-2.415 1.669a482.692 482.692 0 0 0-1.544-14.442c.621.518 1.227 1.021 1.784 1.478 1.075.884 1.951 1.588 2.468 1.963a1.3 1.3 0 0 0 1.732-.189l2.905-3.26a1.304 1.304 0 0 0 .083-1.627 17.693 17.693 0 0 0-.791-.972c-1.204-1.405-3.412-3.824-5.332-5.908-1.504-1.631-2.814-3.037-3.315-3.575l-.674-2.625c2.661-.574 5.983-1.467 8.749-2.249 2.999-.849 5.321-1.56 5.327-1.561l.187-.074a34.596 34.596 0 0 0 2.028-1.079l1.289 2.538-.118 1.462c-.136 1.667-.346 4.22-.55 6.567-.202 2.34-.402 4.501-.504 5.293-.088.68.366 1.31 1.04 1.442l4.65.908a1.3 1.3 0 0 0 1.525-1.023l2.275-11.481c.932.576 2.179 1.345 3.491 2.147 1.335.817 2.734 1.666 3.93 2.379 1.201.716 2.176 1.284 2.744 1.578a1.302 1.302 0 0 0 1.687-.448l2.364-3.648a1.303 1.303 0 0 0-.164-1.619 17.666 17.666 0 0 0-.933-.845c-1.409-1.213-3.968-3.281-6.19-5.059a944.863 944.863 0 0 0-3.837-3.051l-2.263-5.256 3.74-4.979c.07.13.143.252.218.366.59.903 1.29 1.231 1.5 1.299.39.137.819.08 1.161-.152.035-.026 1.014-.691 2.116-1.73.065-.062.132-.137.197-.201.122.313.258.597.405.822.391.598.791.891.893.961a1.3 1.3 0 0 0 1.329.085c.035-.019.999-.513 2.097-1.299a12.33 12.33 0 0 0 1.66-1.402c.523-.544 1.005-1.156 1.291-1.927.02-.052.221-.593.428-1.37.211-.8.433-1.826.437-2.874 0-.239-.013-.481-.043-.725a3.231 3.231 0 0 0-.21-.779Zm-38.577 57.38c-.124.344-.24.698-.344 1.068a1.302 1.302 0 0 0 .61 1.483 1.302 1.302 0 0 0 1.583-.235 8.803 8.803 0 0 1 1.456-1.151c.887-.572 2.102-1.141 3.452-1.269a1.31 1.31 0 0 0 .896-.489 1.31 1.31 0 0 0 .266-.986l-.018-.13c.653.12 1.347.288 2.101.53 1.095.353 1.992.94 2.745 1.648.742.697 1.321 1.515 1.777 2.301-1.03-.351-2.24-.631-3.587-.633a9.078 9.078 0 0 0-3.606.731c-1.229.526-2.445 1.374-3.565 2.606-2.151 2.371-3.787 4.807-5.399 6.913-.227-3.628-.49-7.131-.777-10.509.797-.648 1.582-1.302 2.41-1.878Zm-87.133-35.018a296.55 296.55 0 0 1-4.066-1.174c-.78-.231-1.329-.398-1.554-.466a33.796 33.796 0 0 1-1.619-.856l.261-.514 9.216-1.479 6.461 6.219-.115.448c-2.464-.51-5.78-1.389-8.584-2.178Zm94.97-1.641c-.207.063-.704.213-1.411.423-2.71.806-8.498 2.478-12.441 3.32l-.095-.372 6.461-6.219 9.215 1.478.178.35c-.615.353-1.246.696-1.907 1.02Zm10.99-7.775a1.302 1.302 0 0 0-.155 1.294l2.69 6.251c.085.196.222.375.39.507.001.001.609.481 1.545 1.224a654.116 654.116 0 0 1 5.449 4.365c.952.773 1.847 1.507 2.56 2.105.245.207.459.389.655.558l-1.101 1.699c-.449-.259-.99-.577-1.578-.929a532.828 532.828 0 0 1-5.821-3.539c-.901-.555-1.69-1.042-2.254-1.392l-.903-.559a1.304 1.304 0 0 0-1.204-.089c-.39.17-.674.522-.757.94l-2.388 12.049-2.204-.43c.055-.551.117-1.206.184-1.94.382-4.199.897-10.657.897-10.66a1.296 1.296 0 0 0-.137-.692l-3.11-6.124a1.296 1.296 0 0 0-.953-.695l-10.548-1.692c-.047-.008-.09.008-.136.005l-.052.002a1.274 1.274 0 0 0-1.031.491l-7.324 7.049a1.298 1.298 0 0 0-.358 1.259l1.686 6.574c.054.213.159.404.309.565a677.647 677.647 0 0 1 6.044 6.549c.821.904 1.591 1.76 2.203 2.456.208.238.39.447.556.642l-1.361 1.528a150.94 150.94 0 0 1-1.415-1.148 522.643 522.643 0 0 1-5.203-4.353 714.47 714.47 0 0 1-2.816-2.391 1.298 1.298 0 0 0-2.065.542l-4.24 11.574-2.108-.747c.141-.535.303-1.171.482-1.883a1184.842 1184.842 0 0 0 2.547-10.405 1.298 1.298 0 0 0-.028-.707l-2.12-6.509a1.3 1.3 0 0 0-.815-.828l-9.908-3.395c-.093-.032-.186-.027-.28-.037a1.284 1.284 0 0 0-1.044.129l-9.284 5.709a1.3 1.3 0 0 0-.619 1.087l-.109 6.773a1.3 1.3 0 0 0 .152.632c.001.002.361.677.913 1.721a672.907 672.907 0 0 1 3.196 6.113 205.246 205.246 0 0 1 1.479 2.922c.138.28.257.527.366.756l-1.738 1.149c-.303-.409-.664-.907-1.056-1.452a524.916 524.916 0 0 1-3.877-5.5c-.597-.858-1.12-1.611-1.493-2.15l-.597-.862a1.295 1.295 0 0 0-1.063-.562 1.296 1.296 0 0 0-1.069.549l-7.171 10.147-1.826-1.237c.277-.481.6-1.054.961-1.695 2.08-3.7 5.213-9.421 5.214-9.423.115-.211.17-.446.158-.687l-.327-6.819a1.3 1.3 0 0 0-.599-1.033l-9.447-6.034c-.05-.032-.106-.037-.157-.061a1.28 1.28 0 0 0-1.09-.135l-9.907 3.395a1.3 1.3 0 0 0-.815.828l-2.12 6.509a1.298 1.298 0 0 0-.028.707c0 .001.674 2.806 1.428 5.888.377 1.541.775 3.152 1.118 4.517.18.712.343 1.348.483 1.883l-2.108.747-4.24-11.574a1.302 1.302 0 0 0-2.065-.542 757.596 757.596 0 0 1-6.322 5.337c-.888.741-1.74 1.445-2.452 2.023-.24.195-.456.369-.66.531l-1.362-1.528.004-.005c1.149-1.341 3.36-3.765 5.27-5.836a805.988 805.988 0 0 1 3.53-3.805c.15-.161.255-.352.31-.565l1.685-6.574a1.298 1.298 0 0 0-.358-1.259l-7.327-7.052a1.27 1.27 0 0 0-1.026-.487l-.055-.003c-.046.003-.089-.013-.135-.005L44.574 121.8a1.296 1.296 0 0 0-.953.695l-3.11 6.124a1.295 1.295 0 0 0-.137.692c0 .001.23 2.873.495 6.031.133 1.579.275 3.229.402 4.629.067.734.129 1.389.184 1.94l-2.204.43-2.388-12.049a1.303 1.303 0 0 0-.758-.94 1.304 1.304 0 0 0-1.203.089c-.002.001-.602.374-1.538.952a788.067 788.067 0 0 1-5.543 3.397c-.993.602-1.945 1.174-2.739 1.641-.267.157-.509.298-.736.429l-1.102-1.7.01-.008c1.345-1.159 3.908-3.231 6.118-4.999a874.52 874.52 0 0 1 2.872-2.286l1.21-.958a1.32 1.32 0 0 0 .39-.507l2.69-6.251a1.303 1.303 0 0 0-.155-1.294l-2.921-3.89c.31-.3.553-.637.797-1.003.24-.371.468-.775.679-1.189l4.068 4.219a1.304 1.304 0 0 0 1.588.222c.516-.299.762-.916.595-1.489a5.957 5.957 0 0 1-.252-1.667c.003-1.192.41-2.111 1.001-2.745.595-.632 1.37-.974 2.184-.975.465.001.949.111 1.447.369.66.345 1.09.764 1.368 1.208.277.446.407.927.408 1.433.002 1.296-.905 2.8-2.839 3.531a1.3 1.3 0 0 0-.76 1.674c.054.144.14.264.234.375.202.499.69.845 1.258.816l11.101-.568 9.639 7.272a1.302 1.302 0 0 0 1.96-1.591c-.406-.864-.569-1.655-.569-2.351.002-1.059.373-1.908.927-2.5a2.883 2.883 0 0 1 2.117-.925c.336.001.69.057 1.063.185.813.282 1.344.704 1.693 1.183.346.481.518 1.035.52 1.636-.001 1.186-.698 2.551-2.285 3.438a1.3 1.3 0 0 0-.504 1.768c.078.139.183.251.298.349a1.29 1.29 0 0 0 1.367.606l10.743-2.249c.031.019.052.049.086.066l10.267 5.086a1.29 1.29 0 0 0 1.473-.241 1.28 1.28 0 0 0 .378-.262 1.3 1.3 0 0 0-.038-1.838c-.99-.954-1.4-2.047-1.402-3.021.001-.792.27-1.498.755-2.032.49-.53 1.201-.923 2.263-1.012h.004a3.32 3.32 0 0 1 .28-.012c.9.004 1.602.335 2.121.872.515.54.838 1.3.839 2.202-.001.946-.356 2.06-1.323 3.208a1.298 1.298 0 0 0-.04 1.63 1.298 1.298 0 0 0 1.584.387l10.86-5.084 10.984 2.3a1.288 1.288 0 0 0 1.367-.608c.114-.098.22-.209.297-.347a1.3 1.3 0 0 0-.505-1.768c-1.586-.887-2.283-2.252-2.284-3.437a2.763 2.763 0 0 1 .521-1.637c.349-.479.88-.901 1.693-1.183a3.274 3.274 0 0 1 1.062-.185 2.882 2.882 0 0 1 2.117.925c.555.592.926 1.441.927 2.5 0 .696-.162 1.487-.568 2.351a1.302 1.302 0 0 0 1.96 1.591l9.639-7.272 11.1.568a1.289 1.289 0 0 0 1.259-.816c.094-.111.18-.231.234-.375a1.3 1.3 0 0 0-.761-1.674c-1.934-.731-2.841-2.235-2.839-3.531a2.68 2.68 0 0 1 .408-1.432c.279-.445.709-.864 1.368-1.209a3.128 3.128 0 0 1 1.448-.369c.814.001 1.589.343 2.183.975.59.634.999 1.553 1.001 2.745 0 .507-.076 1.064-.252 1.668-.167.572.08 1.189.596 1.488a1.304 1.304 0 0 0 1.588-.222l3.823-3.965c.131.246.268.488.409.718.274.441.558.844.91 1.198.078.077.162.152.25.224l-2.769 3.688Zm17.054-9.238c-.09.338-.181.63-.249.833-.033.102-.061.181-.079.234l-.021.057-.005.014-.004.011c-.083.242-.339.626-.714 1.006-.557.577-1.346 1.151-1.983 1.556-.051.033-.093.058-.142.088a2.56 2.56 0 0 1-.136-.858c0-.344.051-.768.203-1.291.467-1.605.666-2.644.672-2.675a1.299 1.299 0 1 0-2.553-.489l-.007.034c-.027.135-.137.658-.343 1.446-.026.058-.068.105-.085.169v-.001c-.115.436-.397.969-.786 1.492-.58.788-1.379 1.55-2.024 2.094-.094.079-.176.144-.262.214l-.02-.035c-.228-.461-.485-1.308-.485-2.775 0-.626.047-1.363.162-2.223.083-.626.143-.957.172-1.087.071-.161.115-.337.115-.525a1.3 1.3 0 0 0-1.951-1.127c-.317.193-.413.371-.485.48-.111.197-.131.29-.165.396-.08.293-.146.657-.263 1.518-.058.435-.097.84-.128 1.232-.028.047-.07.082-.093.134v-.001a59.843 59.843 0 0 1-1.194 2.591c-.081.165-.162.323-.238.47l-.027-.039c-.356-.54-.749-1.327-1.064-2.067-.317-.737-.566-1.456-.657-1.812-.202-.774-.246-1.341-.246-1.696 0-.183.012-.309.021-.378l.009-.06-.005-.001a1.297 1.297 0 0 0-2.523-.605c-.024.095-.102.452-.102 1.044 0 .573.073 1.366.33 2.352.083.316.215.704.367 1.12l-2.151 2.231c-.238-1.235-.792-2.32-1.573-3.152-1.054-1.128-2.522-1.799-4.081-1.798-.886 0-1.796.218-2.649.664-1.028.533-1.835 1.274-2.373 2.138a5.289 5.289 0 0 0-.802 2.808c.001 1.29.461 2.551 1.285 3.618l-7.951-.407a1.281 1.281 0 0 0-.98.39c-.104.041-.211.075-.305.146l-6.882 5.192c-.05-1.594-.646-3.025-1.624-4.062a5.486 5.486 0 0 0-4.011-1.744c-.629 0-1.274.107-1.91.327-1.26.432-2.274 1.178-2.951 2.116a5.358 5.358 0 0 0-1.014 3.162c-.001.99.273 1.977.77 2.885l-7.723-1.617-.019-.004-.04-.008-.014-.001a1.286 1.286 0 0 0-.923.057v-.001l-7.928 3.712a6.42 6.42 0 0 0 .136-1.304c.002-1.534-.565-2.961-1.56-3.999-.99-1.042-2.419-1.679-4-1.675-.161 0-.325.007-.491.02-1.64.126-3.035.812-3.977 1.852-.947 1.038-1.436 2.394-1.434 3.784 0 .488.066.98.184 1.467l-7.108-3.521c-.025-.012-.052-.01-.077-.02-.3-.3-.724-.465-1.17-.371l-7.784 1.629c.498-.908.772-1.895.772-2.886a5.365 5.365 0 0 0-1.014-3.161c-.677-.938-1.691-1.684-2.952-2.116a5.839 5.839 0 0 0-1.91-.327 5.487 5.487 0 0 0-4.01 1.744c-.979 1.037-1.575 2.468-1.624 4.061l-6.882-5.191c-.094-.071-.2-.105-.305-.147a1.284 1.284 0 0 0-.98-.389l-7.952.407c.824-1.067 1.284-2.328 1.285-3.618a5.286 5.286 0 0 0-.801-2.808c-.538-.864-1.345-1.605-2.374-2.139a5.734 5.734 0 0 0-2.648-.663c-1.56-.001-3.028.67-4.082 1.798-.78.832-1.335 1.917-1.572 3.152l-2.423-2.513c.107-.308.198-.594.263-.838.257-.987.33-1.781.33-2.353 0-.59-.077-.946-.101-1.041a1.3 1.3 0 0 0-1.576-.947 1.296 1.296 0 0 0-.948 1.546l-.006.002c.003.011.03.159.03.44 0 .355-.044.923-.245 1.697-.07.266-.23.751-.44 1.283-.315.802-.754 1.746-1.169 2.417-.049.08-.094.14-.142.211a40.915 40.915 0 0 1-.8-1.65 76.752 76.752 0 0 1-.63-1.404c-.022-.052-.065-.087-.094-.135-.03-.391-.069-.795-.127-1.229a16.196 16.196 0 0 0-.218-1.342c-.032-.137-.055-.237-.123-.401-.039-.084-.08-.189-.22-.36a1.305 1.305 0 0 0-1.001-.465 1.3 1.3 0 0 0-1.3 1.3c0 .187.042.364.114.525.026.123.09.462.171 1.086.115.862.162 1.6.162 2.226 0 1.512-.27 2.354-.504 2.809a16.349 16.349 0 0 1-1.033-.909c-.458-.438-.92-.941-1.29-1.449-.37-.508-.639-1.021-.75-1.443-.017-.062-.058-.108-.083-.166a32.964 32.964 0 0 1-.319-1.326l-.025-.122-.006-.034a1.3 1.3 0 0 0-2.554.489c.006.031.205 1.07.67 2.674.152.524.204.95.204 1.293-.001.371-.06.644-.136.859a15.463 15.463 0 0 1-.902-.608 9.514 9.514 0 0 1-1.258-1.074c-.356-.368-.598-.736-.679-.97l-.004-.011-.005-.013c-.033-.09-.214-.599-.382-1.253-.17-.651-.318-1.459-.315-2.076 0-.148.008-.283.023-.4.004-.047.114-.342.304-.668a10.81 10.81 0 0 1 1.195-1.653c.452-.525.955-.964 1.18-1.084.025-.015.207-.092.451-.174.882-.302 2.635-.759 4.506-1.122 1.871-.367 3.902-.646 5.333-.643.346-.001.65.018.9.047l.96.385c.035.018.07.027.106.042 1.568.628 4.326 1.73 7.272 2.896 2.259.893 4.623 1.822 6.637 2.599 2.018.778 3.668 1.399 4.562 1.698.147.048.292.07.446.066.001 0 .236-.007.672-.016a386.16 386.16 0 0 1 8.24-.087c5.945-.001 13.652.142 18.99.737.175.019.343.001.502-.045a80.07 80.07 0 0 0 6.052.811 1.3 1.3 0 0 0 .245-2.589c-9.237-.869-17.468-3.244-23.636-6.747-3.084-1.75-5.652-3.78-7.59-6.022-1.938-2.245-3.25-4.696-3.863-7.34-.1-.429-.41-.736-.79-.89-.035-.02-.076-.026-.113-.043-.058-.017-.11-.044-.17-.053-.076-.023-.143-.062-.225-.07-2.801-.294-4.462-.967-5.394-1.508a5.695 5.695 0 0 1-.448-.29l3.784-5.756a1.301 1.301 0 0 0-.702-1.956l-.008-.002c-.123-.04-1.524-.493-3.282-1.38-1.381-.695-2.97-1.672-4.342-2.882.495-.243 1.203-.54 2.221-.863 2.525-.807 6.874-1.776 14.175-2.564a1.3 1.3 0 0 0-.28-2.585 148.84 148.84 0 0 0-3.411.41c-.48-3.242-.74-6.361-.74-9.326 0-5.196.771-9.927 2.415-14.099 2.473-6.254 6.87-11.289 13.835-14.885 5.152-2.655 11.737-4.49 19.938-5.316.774-.049 1.525-.083 2.233-.083 1.895-.003 3.506.228 4.743.822a5.37 5.37 0 0 1 1.642 1.195c.48.515.907 1.17 1.267 2.03.25.596.897.918 1.524.756a1.297 1.297 0 0 0 .968-1.399l-.003-.034a26.285 26.285 0 0 1-.102-2.438c0-.404.01-.85.03-1.317 7.229.132 13.37.995 18.496 2.506 8.38 2.477 14.069 6.613 17.739 12.105 3.666 5.495 5.328 12.44 5.329 20.595 0 2.898-.215 5.949-.618 9.127a218.695 218.695 0 0 0-3.703-.405 1.3 1.3 0 1 0-.26 2.587c8.061.81 13.218 1.75 16.334 2.475 1.1.257 1.933.484 2.562.672-1.156 1.513-2.758 2.64-4.219 3.397-.907.473-1.745.804-2.349 1.014-.302.105-.544.18-.708.227l-.182.051-.042.011-.008.002c-.417.103-.76.409-.909.812-.149.403-.088.86.163 1.209l3.375 4.7c-.931.52-2.727 1.258-5.878 1.654a1.284 1.284 0 0 0-.89.543c-.268.161-.484.41-.581.733-.989 3.31-2.581 6.106-4.724 8.502-3.212 3.589-7.699 6.284-13.28 8.234-5.578 1.951-12.232 3.145-19.682 3.758a1.3 1.3 0 1 0 .214 2.591c2.262-.187 4.447-.435 6.572-.732.187.071.386.114.599.09 5.338-.595 13.045-.738 18.989-.737a395.06 395.06 0 0 1 8.241.087c.436.009.671.016.672.016.154.004.299-.018.446-.066.894-.299 2.544-.92 4.562-1.698 4.645-1.792 11.147-4.388 13.911-5.495.034-.015.069-.023.103-.041l.949-.381c.255-.031.556-.053.912-.052 1.665-.004 4.127.374 6.226.825a43.26 43.26 0 0 1 2.768.679c.373.106.691.206.926.289.117.041.214.077.281.106l.076.033.014.007c.15.083.447.317.751.624.464.464.974 1.096 1.35 1.669.188.285.344.557.445.77.051.106.088.197.109.26l.022.071.002.011c.015.116.023.251.023.4.003.658-.167 1.531-.349 2.204ZM177.715 110.659l-.004.012.004-.012Z"/><path fill="#191C22" d="m16.867 110.67-.003-.009v-.002l.003.011Z"/></svg>