<svg xmlns="http://www.w3.org/2000/svg" width="200" height="200" fill="none"><path fill="#FFD93A" d="M106.004 176.46c.068-.198.143-.388.206-.59a42.928 42.928 0 0 0 1.541-8.094l-7.437 3.193c-.494 3.017-1.054 5.201-2 6.687-.468.749-2.906 1.427-4.281-3.094-.157-.517-.243-1.082-.448-1.646l-6.528 1.728a25.13 25.13 0 0 0 2.675 5.662 10.512 10.512 0 0 0 2.956 3.021 7.67 7.67 0 0 0 4.22 1.246 8.053 8.053 0 0 0 3.957-1.006 8.276 8.276 0 0 0 1.126-.767 16.341 16.341 0 0 0 3.475 8.028s6.416-8.38.538-14.368ZM159.573 11.688l-4.512 1.779a173.387 173.387 0 0 1 8.562 28.093l4.725-1.102a178.473 178.473 0 0 0-8.775-28.77ZM82.703 144.23a21.567 21.567 0 0 0-5.619-4.396 12.902 12.902 0 0 0-2.629-1.098c.07-.029.14-.051.21-.081-3.146-9.799-14.61-5.7-14.61-5.7a16.714 16.714 0 0 0 5.902 5.441 21.498 21.498 0 0 0-5.519 1.648 22.53 22.53 0 0 0-6.021 4.29 45.71 45.71 0 0 0-7.333 10.583c-2.904 5.588-5.341 11.1-8.417 15.25-5.479 7.391-11.358 7.91-13.417 7.917-.395.001-1.332.53-1.416.916l.686.496a.837.837 0 0 0 .555.973c2.33.773 10.99 2.166 17.176-4.719a42.624 42.624 0 0 0 6.166-9.833c1.243-2.483 2.576-5 3.96-7.409-2.948 9.201 2.797 11.597 2.797 11.597s6.586-8.999-.228-15.68a47.965 47.965 0 0 1 2.721-4.008 17.185 17.185 0 0 1 5.25-4.75c2.087-1.198 9.807-1.721 11.334-.833.357.209 1.1.701 1.786 1.184a59.696 59.696 0 0 0 7.566-.626 21.62 21.62 0 0 0-.9-1.162ZM171.227 73.326c.058-.735.109-1.477.155-2.224-.886.1-1.776.15-2.667.15a24.845 24.845 0 0 1-2.668-.153c-.562 8.386-3.252 15.738-5.963 22.401a55.04 55.04 0 0 1-2.893 6.035c-9.064-2.4-13.532 7.652-13.532 7.652s5.096 1.079 9.126-1.01a55.33 55.33 0 0 1-7.034 7.49 101.605 101.605 0 0 1-20.083 13.833c-3.244 1.714-6.266 2.911-8.667 4-2.407 1.092-4.376 2.149-5.5 2.667-2.261 1.048-7.703 4.504-9.25 6.333-2.043 2.414-.468 4.763.583 5.167 1.051.404 3.355-.59 4.917-1.75a64.829 64.829 0 0 1 6.583-4.167c.977-.452 2.961-1.053 5.417-2.167 2.997-1.361 6.962-3.183 11.328-5.493-3.174 4.457-1.875 10.636-1.875 10.636s10.549-4.672 6.979-13.473a96.028 96.028 0 0 0 14.985-10.67c6.758-5.975 11.657-14.329 15.25-23.166a70.845 70.845 0 0 0 4.574-19.56c.953 7.447 9.791 9.691 9.791 9.691s.466-11.952-9.556-12.222Z"/><path fill="#191C22" d="M50.69 97.6c8.843 2.858 22.088-3.211 22.604-15.32.515-12.107-5.697-24.023-12.891-24.577-7.194-.555-20.656 7.8-20.686 21.836-.024 11.157 6.515 16.62 10.974 18.06Zm10.122-19.601c4.077-.925 7.874 2.709 8.12 4.935.296 2.668-2.266 2.741-6.3 3.671-4.033.93-7.202 1.619-8.302-.236-1.339-2.255 1.455-7.23 6.482-8.37ZM121.954 82.525c3.492-3.124 7.26-10.766 2.72-20.959-5.711-12.82-21.404-15.008-27.757-11.587-6.353 3.42-7.208 16.83-1.833 27.692 5.374 10.862 19.943 11.048 26.87 4.854Zm-17.192-13.823c5.058-.993 9.627 2.424 9.317 5.028-.256 2.141-3.432 2.795-7.497 3.578-4.064.783-6.436 1.754-7.246-.806-.677-2.135 1.323-6.995 5.426-7.8Z"/><path fill="#191C22" d="M62.07 85.578a2.747 2.747 0 1 0-1.137-5.374 2.747 2.747 0 0 0 1.137 5.374ZM106.682 76.14a2.746 2.746 0 1 0-1.137-5.376 2.746 2.746 0 0 0 1.137 5.377ZM78.507 100.4a15.647 15.647 0 0 0 3.683 3.435 9.72 9.72 0 0 0 5.306 1.64 9.491 9.491 0 0 0 1.623-.142 10.02 10.02 0 0 0 5.286-2.609 13.293 13.293 0 0 0 3.52-6.52c.396-1.642.6-3.324.605-5.012 0-.344-.01-.547-.012-.567a1.3 1.3 0 0 0-2.083-.968c-.81.531-1.68.962-2.593 1.285a44.094 44.094 0 0 1-5.713 1.735l-.053-.196c-.232-.869-.631-2.394-.994-3.916 2.862-1.5 5.254-6.115 4.516-8.771-.969-3.488-13.51-.694-14.14 2.606-.41 2.147 3.769 6.012 7.05 6.575.394 1.672.832 3.336 1.074 4.242-2.077.41-4.187.632-6.304.664a15.47 15.47 0 0 1-2.334-.158 1.3 1.3 0 0 0-1.398 1.786 22.896 22.896 0 0 0 2.96 4.891Zm1.93-4.079c5.364-.432 11.22-1.69 14.088-3.025.014.05.024.102.031.154.1.666.057 3.36-6.66 4.722-5.398 1.096-7.141-1.148-7.421-1.72-.042-.086-.053-.135-.037-.13Z"/><path fill="#191C22" d="M183.413 50.157h-.001v-.002l-.003-.01a15.866 15.866 0 0 0-12.716-10.73 211.465 211.465 0 0 0-8.798-28.703 1.301 1.301 0 0 0-2.405-.08 1.301 1.301 0 0 0-.028.998l.033.089a212.732 212.732 0 0 1 8.514 27.581c-.399.024-.798.06-1.194.123a14.743 14.743 0 0 0-3.278.927 197.521 197.521 0 0 0-8.408-26.91l-.034-.088a1.3 1.3 0 1 0-2.411.973h-.001a183.952 183.952 0 0 1 6.51 19.542c.738 2.681 1.298 4.92 1.673 6.487.113.475.208.88.287 1.224-.244.156-.481.315-.709.48a11.106 11.106 0 0 0-2.205 2.076 5.876 5.876 0 0 0-1.203 2.43c-.035.178-.031.362.01.538a4.6 4.6 0 0 0-.042.62 5.16 5.16 0 0 0 .885 2.829c.062.095.137.182.205.274.075-.057.144-.119.221-.174a12.585 12.585 0 0 1 2.028-1.156 20.901 20.901 0 0 1 5.158-1.532 1.302 1.302 0 0 1 1.289 2.031 1.302 1.302 0 0 1-.845.53 20.192 20.192 0 0 0-3.361.871c-.542.188-1.072.41-1.585.664a6.391 6.391 0 0 0-2.682 2.279 3.59 3.59 0 0 0-.294.648 4.316 4.316 0 0 0-.168 1.19c.003.207.019.414.046.619.033.197.078.393.135.585.014.077.022.156.022.235a4.885 4.885 0 0 0 1.282 2.13 21.835 21.835 0 0 1 2.834-1.09 21.436 21.436 0 0 1 5.183-.93 1.296 1.296 0 0 1 1.242.737c.074.154.116.321.125.492a1.102 1.102 0 0 1-.028.189 1.287 1.287 0 0 1-1.201 1.178c-2.355.13-4.666.697-6.813 1.672a1.293 1.293 0 0 1-.228.15l.005.007-.002.002-.085.085a2.372 2.372 0 0 0-.308.485 3.817 3.817 0 0 0-.38 1.633c.002.188.02.376.055.561a2.8 2.8 0 0 0 .329.925c.283.462.67.852 1.13 1.137.118.077.234.155.372.23.696.362 1.432.643 2.192.835.365.098.75.183 1.146.259 1.255.237 2.53.354 3.807.35a20.769 20.769 0 0 0 4.438-.475 1.3 1.3 0 0 1 1.557.977 1.333 1.333 0 0 1-.978 1.557c-.063.015-.129.024-.192.038-.87.187-1.751.32-2.637.398a80.38 80.38 0 0 1-3.261 18.654 67.706 67.706 0 0 1-2.036 5.734 59.277 59.277 0 0 1-15.656 22.322 98.528 98.528 0 0 1-10.425 7.985 142.54 142.54 0 0 1-20.314 11.128c-1.535.696-2.854 1.271-3.866 1.715a87.94 87.94 0 0 0-1.471.654 63.578 63.578 0 0 0-6.479 4.287c-.179.133-.358.259-.536.38-.055.038-.111.073-.166.109a11.273 11.273 0 0 1-.559.346 8.255 8.255 0 0 1-.352.194l-.176.091c-.136.067-.27.126-.402.181l-.105.045a4.768 4.768 0 0 1-.482.159c-.042.011-.082.017-.124.027-.11.026-.221.047-.333.061-.053.007-.104.01-.156.013a2.174 2.174 0 0 1-.291 0c-.041-.003-.082-.004-.121-.01a1.564 1.564 0 0 1-.375-.089 2.147 2.147 0 0 1-.578-.329c-.786-.626-1.221-1.901.438-3.863a14.731 14.731 0 0 1 2.263-1.992l.122-.089c.263-.195.536-.392.815-.588a42.349 42.349 0 0 1 5.565-3.336c.843-.389 2.085-.92 3.67-1.623.528-.234 1.093-.487 1.696-.76a157.088 157.088 0 0 0 8.592-4.198 108.029 108.029 0 0 0 20.937-14.132 54.418 54.418 0 0 0 14.377-20.515 72.001 72.001 0 0 0 4.937-22.609 20.094 20.094 0 0 1-2.573-.448l-.058-.014a14.216 14.216 0 0 1-2.483-.854 19.367 19.367 0 0 1-2.111 5.74 37.368 37.368 0 0 1-8.264 9.788 50.279 50.279 0 0 1-2.428 1.974c.252-1.71.379-3.438.383-5.167a39.134 39.134 0 0 0-.237-4.261c-1.494-13.593-8.868-25.568-19.354-34.425a18.426 18.426 0 0 0 2.793-4.375 20.165 20.165 0 0 0 1.781-8.336 20.422 20.422 0 0 0-2.771-10.323 17.9 17.9 0 0 0-8.042-7.298 18.244 18.244 0 0 0-7.569-1.615 20.705 20.705 0 0 0-10.88 3.167 19.699 19.699 0 0 0-7.562 8.491 18.414 18.414 0 0 0-1.46 5.025 66.246 66.246 0 0 0-6.213-.67c-.25-.015-.667-.024-1.108-.033-.403-.009-.805-.016-1.03-.022a17.847 17.847 0 0 0-3.782-2.792 24.942 24.942 0 0 0-9.395-2.587c-3.51-.392-6.8-.218-9.707-.34a22.094 22.094 0 0 1-4.046-.477 10.32 10.32 0 0 1-3.393-1.398 1.3 1.3 0 0 0-1.933 1.535c.76 1.742 1.92 3.28 3.386 4.488a17.744 17.744 0 0 0 5.992 3.34 32.284 32.284 0 0 1-2.98-.23 16.72 16.72 0 0 1-.238-.032l-.073-.01a1.3 1.3 0 0 0-1.215 2.095c.475.565.991 1.094 1.544 1.582a65.592 65.592 0 0 0-7.447 3.966 18.4 18.4 0 0 0-3.144-3.658 20.055 20.055 0 0 0-13.32-4.91 19.345 19.345 0 0 0-14.531 6.26 18.131 18.131 0 0 0-4.525 12.169 20.549 20.549 0 0 0 6.78 15.222 18.42 18.42 0 0 0 3.612 2.507 56.877 56.877 0 0 0-5.975 24.916 50.329 50.329 0 0 0 2.237 14.896 34.972 34.972 0 0 0 11.926 17.656c-8.47 6.394-13.43 15.95-13.435 25.52a26.327 26.327 0 0 0 3.756 13.636 30.305 30.305 0 0 0 9.354 9.567c-4.571 5.411-9.507 5.869-10.982 5.873a2.729 2.729 0 0 0-.838 5.369c1.945.567 3.964.841 5.99.814 3.243 0 7.587-.652 11.068-3.481a106.027 106.027 0 0 0 3.669 10.429 1.303 1.303 0 0 0 1.213.784 1.303 1.303 0 0 0 1.28-1.32 1.3 1.3 0 0 0-.107-.496l-.022-.051a109.046 109.046 0 0 1-3.944-11.448 45.459 45.459 0 0 0 1.645-2.048 48.189 48.189 0 0 0 20 3.853c1.784 0 3.636-.072 5.556-.214 5.565-.419 10.558-1.037 15.026-1.809a23.686 23.686 0 0 0 2.365 4.772 12.106 12.106 0 0 0 3.447 3.498 9.656 9.656 0 0 0 5.233 1.558h.052a10.002 10.002 0 0 0 4.239-.949 18.366 18.366 0 0 0 3.275 6.176 1.307 1.307 0 0 0 1.022.454 1.293 1.293 0 0 0 .997-.509 17.782 17.782 0 0 0 1.647-2.741 14.847 14.847 0 0 0 1.644-6.405 9.208 9.208 0 0 0-1.876-5.755c.005-.015.011-.027.015-.043a36.371 36.371 0 0 0 1.155-5.189c.124-.799.237-1.628.333-2.506.008-.07.018-.132.025-.202.003-.019-.003-.037-.001-.057a20.828 20.828 0 0 0 3.792-3.072c.43-.451.826-.931 1.188-1.438a5.475 5.475 0 0 0 1.136-3.045 2.99 2.99 0 0 0-.703-1.945c-.126.096-.25.195-.38.285-.33.231-.674.43-1.016.63a24.405 24.405 0 0 1-4.299 1.92 1.279 1.279 0 0 1-1.202-.22 1.262 1.262 0 0 1-.449-.588 1.283 1.283 0 0 1 .062-.993 1.293 1.293 0 0 1 .746-.659 22.624 22.624 0 0 0 3.522-1.511 8.622 8.622 0 0 0 2.793-2.261c.026-.035.062-.068.086-.104a3.344 3.344 0 0 0 .642-1.872l.001-.081a2.68 2.68 0 0 0-.227-1.148 2.064 2.064 0 0 0-.485-.66 2.39 2.39 0 0 0-.832-.49l.001-.002c-.026-.006-.049-.019-.073-.027-.057.041-.121.081-.179.122-.174.121-.341.244-.535.364a13.907 13.907 0 0 1-4.927 1.832 1.3 1.3 0 0 1-.445-2.562 10.467 10.467 0 0 0 5.191-2.364 3.91 3.91 0 0 0 .532-.574c.012-.017.037-.045.046-.059a1.24 1.24 0 0 1 .178-.177c.117-.424.179-.861.184-1.301a3.17 3.17 0 0 0-.466-1.718 3.953 3.953 0 0 0-1.112-1.138 5.317 5.317 0 0 0-.341-.22 52.65 52.65 0 0 1 2.33-1.518c.498.409.931.89 1.284 1.429.602.945.916 2.044.905 3.165a8.358 8.358 0 0 1-.562 2.877 4.682 4.682 0 0 1 1.604 1.802 5.23 5.23 0 0 1 .529 2.367l-.001.132v.003a5.96 5.96 0 0 1-1.106 3.3c-.045.065-.098.123-.145.186.133.149.259.304.376.466.255.36.468.749.634 1.158.29.681.439 1.414.439 2.154.001.136-.008.275-.017.414 4.396-.474 8.814-.72 13.235-.739 8.689-.003 15.815 1.073 20.752 2.935a17.062 17.062 0 0 1 5.677 3.269 6.7 6.7 0 0 1 2.061 3.326 123.939 123.939 0 0 1 .934 6.543c.067.585.113 1.037.142 1.342l.032.343.01.111a1.301 1.301 0 0 0 1.399 1.192c.344-.028.662-.191.886-.453.224-.262.334-.603.306-.947-.002-.029-.243-3.031-1.026-7.844-.001-.014.005-.027.003-.042a8.074 8.074 0 0 0-.141-.788 151.68 151.68 0 0 0-3.38-15.223 122.763 122.763 0 0 0-6.778-18.677 1.24 1.24 0 0 0 .286-.109c12.342-7.754 20.702-18.949 25.961-30.941a90.985 90.985 0 0 0 7.446-35.915 63.996 63.996 0 0 0-2.53-18.805v-.001Zm-85.08 123.517a9.384 9.384 0 0 1-.915 2.157c-.11.188-.244.362-.396.518l-.043-.043a7.657 7.657 0 0 1-1.15-1.892c.863-.24 1.7-.486 2.504-.74Zm-28.879-37.76c-.098 0-.217 0-.352.003a24.38 24.38 0 0 0-4.043.396 15.466 15.466 0 0 1-2.416-2.146c-.144-.157-.257-.297-.38-.443a15.65 15.65 0 0 1 3.06-.32 9.377 9.377 0 0 1 4.675 1.102 6.866 6.866 0 0 1 1.835 1.548c-.78-.093-1.566-.14-2.352-.14h-.027Zm-16.659 7.079c-.069.071-.13.145-.199.216a27.718 27.718 0 0 1-3.13-1.89 7.807 7.807 0 0 1-1.136-.956 1.3 1.3 0 0 1 1.905-1.77c.231.227.482.433.749.616.385.278.89.605 1.49.959.614.363 1.333.753 2.134 1.153a26.181 26.181 0 0 0-1.813 1.672Zm98.701-37.669c-.162.066-.319.143-.484.201-1.36.442-2.783.659-4.212.641-.382 0-.737-.014-1.064-.035.489-.771 1.042-1.5 1.655-2.178a11.816 11.816 0 0 1 3.011-2.435 8.303 8.303 0 0 1 4.044-1.059c.117 0 .245.021.365.026a51.984 51.984 0 0 1-3.315 4.839Zm-124.3-2.106a47.728 47.728 0 0 1-2.121-14.129c-.002-11.518 4.056-22.89 10.93-32.556A65.17 65.17 0 0 1 63.408 34.41a13.073 13.073 0 0 0 6.916 2.11c.2 0 .404-.006.608-.017a1.3 1.3 0 1 0-.136-2.596 8.821 8.821 0 0 1-.472.012 10.126 10.126 0 0 1-4.778-1.275 13.386 13.386 0 0 1-1.35-.827c.211.005.422.01.642.01 1.242.01 2.483-.085 3.71-.282a10.288 10.288 0 0 0 3.551-1.208 1.3 1.3 0 0 0-.618-2.413c-6.117-.247-9.684-2.196-11.78-4.011-.032-.028-.056-.055-.087-.083 2.173.4 4.381.582 6.591.544 2.4-.033 4.8.058 7.191.274 2.937.2 5.805.978 8.442 2.287a15.093 15.093 0 0 1 2.991 2.163 25.771 25.771 0 0 1 3.066 3.441 1.3 1.3 0 0 0 2.07-1.571c-.219-.29-.438-.565-.657-.838a66.295 66.295 0 0 1 37.367 14.797c10.382 8.557 17.586 20.152 19.02 33.215.146 1.32.22 2.648.221 3.977a32.45 32.45 0 0 1-3.511 14.809c-3.445 6.818-9.361 12.776-17.372 17.656-8.007 4.879-18.098 8.667-29.795 11.141a122.023 122.023 0 0 1-25.006 2.863c-10.725.002-20.145-1.912-27.514-6.021a32.211 32.211 0 0 1-15.523-19.348Zm14.023 72.453c-2.889 3.284-7.232 4.149-10.736 4.149a18.117 18.117 0 0 1-5.172-.681c-.286-.095-.34-.202-.217-.259a.59.59 0 0 1 .245-.043c2.059-.006 8.479-.663 13.957-8.055 3.076-4.15 5.418-10.044 8.323-15.632a43.16 43.16 0 0 1 7.035-10.338 21.25 21.25 0 0 1 5.784-4.268c.62-.306 1.258-.578 1.908-.814l.057-.023c.242-.087.49-.164.739-.243.1-.031.197-.068.299-.098.209-.062.424-.114.637-.17.145-.038.287-.081.435-.116h.001c.172-.041.35-.073.525-.109.195-.041.387-.086.586-.122.143-.025.29-.043.436-.065.235-.037.469-.077.708-.107.127-.015.257-.023.385-.036.264-.028.527-.057.796-.075.1-.007.203-.007.303-.013.304-.016.608-.032.918-.037h-.018c.116-.002.218-.002.306-.002.34-.001.663.034.994.052.309.017.626.017.927.05.282.031.548.093.824.137.33.053.666.092.986.165.296.067.575.165.862.248.28.081.57.147.843.243.198.07.381.165.575.243.343.138.691.267 1.019.429a16.325 16.325 0 0 1 5.214 4.149c.35.414.677.848.997 1.288.95-.126 1.838-.266 2.662-.415a44.972 44.972 0 0 0 6.305-1.563l.005-.015c.92-1.42 2.12-2.637 3.526-3.577a9.91 9.91 0 0 1 5.91-1.787c.36 0 .702.018 1.033.044-.372.329-.723.682-1.049 1.056a8.694 8.694 0 0 0-1.068 1.561 6.84 6.84 0 0 0-3.294 1.227 10.403 10.403 0 0 0-2.786 2.74l-.002-.001a7.89 7.89 0 0 1-1.034 1.071 46.998 46.998 0 0 1-8.7 2.071 62.317 62.317 0 0 1-8.07.685c-.416.009-.828.02-1.255.02-1.484 0-3.034-.053-4.64-.173a40.855 40.855 0 0 1-6.72-1.103 12.57 12.57 0 0 1 5.765-1.394l.193-.001c.123 0 .235.016.355.02a1.26 1.26 0 0 1 .601-.115 59.125 59.125 0 0 0 6.23.14 10.79 10.79 0 0 0-1.69-1.238 10.634 10.634 0 0 0-5.518-1.408l-.197.002h.009-.026a15.048 15.048 0 0 0-7.485 1.969 19.139 19.139 0 0 0-5.513 5.038c-3.278 4.231-5.785 10.031-8.557 15.565a44.715 44.715 0 0 1-6.471 9.734Zm14.934-17.205a8.497 8.497 0 0 1 .582 3.152 13.243 13.243 0 0 1-1.311 5.415c-.223.484-.445.901-.642 1.25a5.1 5.1 0 0 1-.794-.869 6.771 6.771 0 0 1-1.17-4.08c.012-.854.11-1.704.291-2.538a97.098 97.098 0 0 1 2.111-4.041c.376.533.689 1.106.933 1.711Zm44.412 24.462c-.268.15-.546.282-.832.396-.085.033-.175.054-.261.085-.206.073-.41.148-.624.202-.14.036-.284.054-.425.082-.168.032-.332.073-.502.094-.147.019-.298.019-.446.028-.166.011-.33.032-.498.032h-.065c-.216 0-.427-.028-.64-.048-.124-.012-.25-.01-.373-.028-.217-.032-.427-.09-.638-.142-.12-.029-.243-.046-.36-.081-.209-.063-.407-.15-.607-.231-.11-.045-.227-.078-.334-.128-.3-.139-.588-.3-.865-.481a9.594 9.594 0 0 1-2.7-2.759 20.398 20.398 0 0 1-1.934-3.806c1.688-.33 3.293-.682 4.815-1.058a10.529 10.529 0 0 0 1.828 3.022c.253.277.554.507.889.678.298.145.625.217.957.212.493.013.978-.123 1.393-.39.52-.361.953-.832 1.268-1.38a15.178 15.178 0 0 0 1.68-4.565c1.288-.476 2.5-.968 3.614-1.478a40.798 40.798 0 0 0 1.723-.843 35.342 35.342 0 0 1-1.181 5.556 14.934 14.934 0 0 1-2.5 4.993 9.465 9.465 0 0 1-.516.585c-.514.537-1.101 1-1.743 1.375-.042.025-.08.054-.123.078Zm6.623-.455a12.32 12.32 0 0 1-1.378 5.258c-.137.279-.273.533-.405.77a16.339 16.339 0 0 1-.596-1.036 14.167 14.167 0 0 1-1.305-3.433 11.48 11.48 0 0 0 1.462-1.504 14.654 14.654 0 0 0 1.721-2.72c.335.849.505 1.753.501 2.665ZM173.21 74.881c.9.212 1.75.6 2.501 1.139a7.56 7.56 0 0 1 2.043 2.295 12.706 12.706 0 0 1 1.466 4.156c.078.433.132.837.171 1.206a15.784 15.784 0 0 1-2.918-1.591 10.802 10.802 0 0 1-2.969-3.007 8.494 8.494 0 0 1-.634-1.24c.131-.976.24-1.965.34-2.958Zm-37.726 56.585c.088.444.135.894.141 1.347a7.08 7.08 0 0 1-1.028 3.631 12.625 12.625 0 0 1-3.692 3.79c-.223.155-.434.292-.637.42-.017-.299-.029-.62-.029-.967a13.02 13.02 0 0 1 1.116-5.512c.08-.168.171-.331.262-.495a133.957 133.957 0 0 0 3.867-2.214Z"/></svg>