<svg xmlns="http://www.w3.org/2000/svg" width="200" height="200" fill="none"><path fill="#BEBEC9" d="M142.876 124.648c7.748 11.155 12.301 24.697 14.886 35.436 1.294 5.37 2.1 10.038 2.581 13.358.241 1.66.401 2.983.5 3.888a63.708 63.708 0 0 1 .13 1.296l.007.084a1.31 1.31 0 0 0 .896 1.133c.162.052.333.072.504.059a1.293 1.293 0 0 0 .885-.453 1.3 1.3 0 0 0 .307-.947 136.388 136.388 0 0 0-3.282-19.027c-2.637-10.927-7.25-24.735-15.278-36.309a1.3 1.3 0 0 0-2.136 1.482ZM135.394 115.741a54.741 54.741 0 0 1 3.388 3.603 1.298 1.298 0 0 0 2.282-.752 1.304 1.304 0 0 0-.312-.945 59.533 59.533 0 0 0-3.546-3.771 1.301 1.301 0 0 0-2.206.951c.005.345.147.673.394.914ZM41.085 177.362a109.887 109.887 0 0 0 4.135 12.006 1.301 1.301 0 0 0 1.71.677 1.302 1.302 0 0 0 .677-1.709l-.02-.046a109.232 109.232 0 0 1-4.004-11.649 1.3 1.3 0 0 0-2.498.721Z"/><path fill="#FFE632" d="M100.679 182.778a15.88 15.88 0 0 0 2.048 6.303c.504.915 1.09 1.783 1.75 2.593a1.307 1.307 0 0 0 1.023.454 1.302 1.302 0 0 0 .997-.509c.63-.862 1.181-1.78 1.646-2.741a14.849 14.849 0 0 0 1.645-6.405 9.636 9.636 0 0 0-2.879-6.953 1.302 1.302 0 0 0-1.849 1.828 7.004 7.004 0 0 1 2.128 5.125 12.32 12.32 0 0 1-1.378 5.258 17.15 17.15 0 0 1-.965 1.707c-.13.202-.238.358-.311.46l-.081.113-.018.024-.003.004.362.276-.361-.277-.001.001.362.276-.361-.277 1.032.791.987-.846-.38.326.382-.324-.002-.002-.38.326.382-.324c-.564-.7-1.064-1.45-1.494-2.239a13.291 13.291 0 0 1-1.691-5.186 1.303 1.303 0 0 0-.899-1.132 1.31 1.31 0 0 0-.993.084 1.296 1.296 0 0 0-.698 1.266ZM100.19 171.592a15.438 15.438 0 0 1-1.676 4.937l-.006.009c-.214.383-.51.715-.864.973l.699 1.096-.685-1.105a1.194 1.194 0 0 1-.306.145 1.52 1.52 0 0 1-.419.05l.016 1.3.01-1.3a.795.795 0 0 1-.41-.087l.01.004a1.867 1.867 0 0 1-.517-.407l-.006-.006a9.533 9.533 0 0 1-1.613-2.729l-.002-.006a20.671 20.671 0 0 1-.192-.46 1.304 1.304 0 0 0-1.194-.815 1.291 1.291 0 0 0-.923.373 1.293 1.293 0 0 0-.294 1.415c.071.177.143.35.217.519l-.003-.005a11.843 11.843 0 0 0 2.139 3.519l-.006-.005c.36.389.787.71 1.26.948l.01.004c.469.225.983.34 1.504.338h.026c.376 0 .75-.052 1.112-.153.335-.1.655-.245.95-.432l.014-.008a5.572 5.572 0 0 0 1.672-1.788l-.006.009a17.73 17.73 0 0 0 2.034-5.83 1.3 1.3 0 0 0-2.551-.503Z"/><path fill="#FFE632" d="M86.94 175.805a23.114 23.114 0 0 0 2.374 4.865l.004.005a10.887 10.887 0 0 0 3.07 3.123l-.005-.003a8.31 8.31 0 0 0 4.53 1.352h.038-.005.033a8.66 8.66 0 0 0 4.222-1.086l-.004.003a9.578 9.578 0 0 0 2.761-2.355l.002-.003a16.22 16.22 0 0 0 2.728-5.42l.001-.004a38.322 38.322 0 0 0 1.342-6.614 1.299 1.299 0 0 0-1.638-1.42 1.291 1.291 0 0 0-.786.617 1.312 1.312 0 0 0-.157.484 35.72 35.72 0 0 1-1.244 6.162l.001-.003a13.649 13.649 0 0 1-2.27 4.565l.002-.003a6.951 6.951 0 0 1-2.005 1.721l-.004.003a6.062 6.062 0 0 1-2.95.753h-.067a5.719 5.719 0 0 1-3.104-.926l-.005-.003a8.32 8.32 0 0 1-2.33-2.396l.004.005a20.562 20.562 0 0 1-2.098-4.32 1.298 1.298 0 0 0-2.106-.512 1.292 1.292 0 0 0-.416.907c-.006.172.022.342.082.503Z"/><path fill="#BEBEC9" d="M36.97 121.381c-8.677 6.394-13.761 16.083-13.767 25.78a26.326 26.326 0 0 0 3.756 13.636 31.313 31.313 0 0 0 11.809 11.083 1.311 1.311 0 0 0 .99.12 1.296 1.296 0 0 0 .941-1.099 1.302 1.302 0 0 0-.66-1.289 28.71 28.71 0 0 1-10.85-10.153 23.716 23.716 0 0 1-3.386-12.298c-.005-8.777 4.646-17.752 12.709-23.686a1.295 1.295 0 0 0 .52-.853 1.298 1.298 0 0 0-1.093-1.484 1.31 1.31 0 0 0-.968.243ZM108.267 161.941a14.409 14.409 0 0 0 4.909-1.773 10.498 10.498 0 0 0 1.572-1.135c.381-.326.719-.7 1.006-1.112.189-.287.257-.637.189-.974a1.3 1.3 0 0 0-2.353-.467 3.478 3.478 0 0 1-.564.605 10.747 10.747 0 0 1-5.205 2.294 1.3 1.3 0 0 0 .446 2.562ZM63.172 147.368a39.74 39.74 0 0 0 6.818 1.141 1.293 1.293 0 0 0 .95-.308 1.292 1.292 0 0 0 .45-.89 1.302 1.302 0 0 0-1.206-1.395 37.142 37.142 0 0 1-6.37-1.067 1.3 1.3 0 0 0-.642 2.519ZM48.33 140.363c.342.35.715.668 1.114.951a35.637 35.637 0 0 0 6.515 3.574 1.296 1.296 0 0 0 1.822-1.168 1.296 1.296 0 0 0-.785-1.216 39.164 39.164 0 0 1-4.55-2.321 20.036 20.036 0 0 1-1.462-.964 5.804 5.804 0 0 1-.748-.625 1.298 1.298 0 0 0-1.836-.067 1.299 1.299 0 0 0-.07 1.836Z"/><path fill="#FFE632" d="m55.318 150.878.001-.001.001-.001-.002.002ZM59.96 140.679l.002-.001-.001.001Z"/><path fill="#BEBEC9" d="M116.94 154.009a6.766 6.766 0 0 0-1.32-4.061c.023-.072.052-.146.073-.216.14-.224.206-.486.19-.749a8.466 8.466 0 0 0 .206-1.787 6.597 6.597 0 0 0-.816-3.234 7.489 7.489 0 0 0-2.659-2.706 7.829 7.829 0 0 0-1.61-.769 1.305 1.305 0 0 0-.991.083 1.299 1.299 0 0 0 .2 2.393v.001c.636.236 1.226.58 1.746 1.016.434.359.796.798 1.067 1.292.313.592.472 1.254.463 1.924a6.016 6.016 0 0 1-.181 1.375 4.931 4.931 0 0 1-.361.362 10.484 10.484 0 0 1-5.191 2.364 1.3 1.3 0 1 0 .446 2.561 13.914 13.914 0 0 0 4.927-1.832c.188-.117.35-.236.52-.355.456.694.697 1.508.691 2.338a4.327 4.327 0 0 1-.839 2.627 1.291 1.291 0 0 0-.213 1.246c.165.464.249.953.25 1.446a6.755 6.755 0 0 1-2.194 4.533c-2.339 2.483-6.764 5.092-13.483 7.239-6.717 2.155-15.719 3.874-27.214 4.735a71.404 71.404 0 0 1-5.362.207c-8.362-.001-15.045-1.596-20.243-4.231a1.308 1.308 0 0 0-1.437.171 1.303 1.303 0 0 0-.39 1.393 1.302 1.302 0 0 0 .651.755c5.626 2.852 12.73 4.512 21.419 4.512 1.785 0 3.636-.072 5.556-.214 15.537-1.168 26.687-3.869 34.065-7.243a26.77 26.77 0 0 0 8.326-5.536 9.313 9.313 0 0 0 2.906-6.321 6.857 6.857 0 0 0-.226-1.65 7.026 7.026 0 0 0 1.028-3.669Z"/><path fill="#FFE632" d="M83.421 145.462c-.203-.262-.411-.52-.626-.773a17.641 17.641 0 0 0-5.63-4.474 15.769 15.769 0 0 0-1.603-.676c-.009-.024-.005-.048-.015-.072a10.049 10.049 0 0 0-4.882-5.2 13.325 13.325 0 0 0-5.83-1.224c-1.776.002-3.543.25-5.25.738a1.288 1.288 0 0 0-.837.81 1.3 1.3 0 0 0 .149 1.156 18.771 18.771 0 0 0 3.71 3.858c-.906.295-1.789.653-2.643 1.073a22.547 22.547 0 0 0-6.139 4.524 44.413 44.413 0 0 0-7.258 10.645l-.001.003c-2.935 5.663-5.287 11.526-8.213 15.458a18.917 18.917 0 0 1-7.728 6.376 13.59 13.59 0 0 1-5.189 1.153 1.96 1.96 0 0 0-.671.108 1.438 1.438 0 0 0-.521.32 1.358 1.358 0 0 0-.145 1.802c.134.178.305.325.502.432.128.07.262.128.4.173l.002.001a14.3 14.3 0 0 0 2.287.507c1.09.16 2.191.24 3.293.24a19.171 19.171 0 0 0 6.01-.91 12.89 12.89 0 0 0 5.702-3.68 46.01 46.01 0 0 0 6.657-10.009l.001-.003c.474-.948.94-1.897 1.4-2.848a8.86 8.86 0 0 0 2.012 4.54 6.929 6.929 0 0 0 2.296 1.789 1.299 1.299 0 0 0 1.563-.426 17.325 17.325 0 0 0 1.561-2.75 15.803 15.803 0 0 0 1.55-6.505c.008-1.406-.252-2.8-.764-4.109a11.418 11.418 0 0 0-2.28-3.541c.355-.521.714-1.024 1.084-1.5l.002-.003a17.842 17.842 0 0 1 5.132-4.705 13.737 13.737 0 0 1 6.859-1.795h.002l.004-.001.002.001.182-.002a9.324 9.324 0 0 1 4.864 1.231c.57.337 1.106.732 1.595 1.178a1.307 1.307 0 0 0 .939.337 1.316 1.316 0 0 0 .9-.427 1.301 1.301 0 0 0-.095-1.838 12.215 12.215 0 0 0-2.027-1.495l-.004-.002a11.944 11.944 0 0 0-6.167-1.584h-.016l-.197.002H69.322a16.362 16.362 0 0 0-8.108 2.141l-.003.001a20.407 20.407 0 0 0-5.892 5.37c-3.423 4.431-5.933 10.284-8.69 15.775a43.378 43.378 0 0 1-6.286 9.46 10.287 10.287 0 0 1-4.571 2.931c-1.093.352-2.223.58-3.367.679a21.839 21.839 0 0 0 8.037-6.866c3.224-4.368 5.557-10.293 8.43-15.806a41.925 41.925 0 0 1 6.813-10.031 19.942 19.942 0 0 1 5.429-4.009l.001-.001a18.842 18.842 0 0 1 8.175-1.893l.001-.001c.096-.002.184-.002.269-.002H69.58a14.411 14.411 0 0 1 6.433 1.433l.001.001a15.044 15.044 0 0 1 4.798 3.825c.188.221.371.448.55.68a1.298 1.298 0 0 0 2.317-.63 1.3 1.3 0 0 0-.259-.96Zm-27.268 13.004a8.501 8.501 0 0 1 .582 3.152 13.252 13.252 0 0 1-1.31 5.415c-.22.477-.438.889-.634 1.234a5.227 5.227 0 0 1-.797-.888 6.939 6.939 0 0 1-1.175-4.133c.037-1.651.345-3.285.914-4.835a1.25 1.25 0 0 0 .027-.206c.359-.665.723-1.312 1.093-1.942a8.58 8.58 0 0 1 1.3 2.203Zm9.788-19.74a15.529 15.529 0 0 1-3.605-2.881l-.005-.005a16.533 16.533 0 0 1 2.504-.197c1.616-.036 3.22.293 4.692.961a7.201 7.201 0 0 1 2.579 2.1 18.404 18.404 0 0 0-2.526-.191h-.038c-.086 0-.19 0-.316.003h-.023l-.008.002c-1.064.018-2.126.11-3.178.273-.029-.019-.046-.048-.076-.065Z"/><path fill="#FFE632" d="M77.164 140.214v.001h.001v-.001Z"/><path fill="#BEBEC9" d="M70.242 148.562c1.567.118 3.082.17 4.533.17a54.403 54.403 0 0 0 18.144-2.878 8.258 8.258 0 0 0 1.022-1.066l.002.001a10.403 10.403 0 0 1 2.786-2.74 7.328 7.328 0 0 1 4.378-1.288c.639.002 1.276.057 1.905.166a1.297 1.297 0 0 0 1.322-.589 1.305 1.305 0 0 0 .167-.982 1.28 1.28 0 0 0-.208-.464 1.288 1.288 0 0 0-.845-.528 14.016 14.016 0 0 0-2.341-.203 9.908 9.908 0 0 0-5.91 1.787 12.424 12.424 0 0 0-3.526 3.577c-.003.006-.002.013-.006.019a53.289 53.289 0 0 1-16.89 2.587c-1.39 0-2.839-.049-4.338-.162a1.299 1.299 0 0 0-1.084 2.144c.225.261.545.423.889.449Z"/><path fill="#FFE632" d="M177.775 77.695a8.84 8.84 0 0 0-2.522-2.698 10.766 10.766 0 0 0-3.22-1.487c.081-.94.156-1.883.209-2.84a1.291 1.291 0 0 0-.732-1.251 1.308 1.308 0 0 0-.998-.055 1.305 1.305 0 0 0-.866 1.163 75.912 75.912 0 0 1-5.244 24.518 57.978 57.978 0 0 1-15.313 21.837c-10.633 9.4-23.075 15.572-30.416 18.904-.673.306-1.657.816-2.81 1.437a220.813 220.813 0 0 0-5.555 3.114c-.877.508-1.673.977-2.307 1.361-.317.192-.593.363-.822.508a9.965 9.965 0 0 0-.559.376c-.519.396-1.073.742-1.657 1.033a2.809 2.809 0 0 1-1.109.328.464.464 0 0 1-.17-.023.835.835 0 0 1-.336-.231.448.448 0 0 1-.107-.315c.008-.195.058-.386.144-.561.179-.375.409-.722.684-1.033.229-.237.478-.452.746-.644.691-.524 1.737-1.209 2.928-1.936a131.802 131.802 0 0 1 5.783-3.298c1.863-1.007 3.491-1.836 4.218-2.165a159.23 159.23 0 0 0 8.663-4.233 109.33 109.33 0 0 0 21.192-14.308 55.724 55.724 0 0 0 14.719-20.998 73.435 73.435 0 0 0 5.055-23.34 1.3 1.3 0 0 0-2.595-.157 70.815 70.815 0 0 1-4.869 22.517 57.209 57.209 0 0 1-2.357 5.043 11.989 11.989 0 0 0-3.006-.402 10.918 10.918 0 0 0-5.366 1.419 15.674 15.674 0 0 0-4.971 4.613 17.406 17.406 0 0 0-1.639 2.768 1.3 1.3 0 0 0 .919 1.799c1.124.211 2.267.314 3.411.308a16.65 16.65 0 0 0 3.808-.429 51.743 51.743 0 0 1-4.832 4.912 106.827 106.827 0 0 1-20.683 13.956 156.502 156.502 0 0 1-8.522 4.164c-.653.296-1.744.846-3.076 1.548a146.712 146.712 0 0 0-6.671 3.739 54.995 54.995 0 0 0-2.914 1.856c-.413.286-.782.556-1.101.814a6.103 6.103 0 0 0-.824.775 6.97 6.97 0 0 0-1.075 1.655 3.966 3.966 0 0 0-.369 1.618 3.072 3.072 0 0 0 .7 1.968c.376.45.861.796 1.409 1.004.353.134.727.2 1.104.197a5.27 5.27 0 0 0 2.226-.58 12.834 12.834 0 0 0 2.09-1.294c.068-.051.31-.212.629-.41 1.134-.707 3.371-2.01 5.57-3.244 1.101-.618 2.195-1.22 3.142-1.726a43.974 43.974 0 0 1 2.237-1.135 168.342 168.342 0 0 0 8.908-4.357c-.074.19-.146.381-.21.571a16.745 16.745 0 0 0-.807 5.285c-.008 1.119.09 2.236.291 3.337a1.305 1.305 0 0 0 1.235 1.035c.194.005.387-.032.564-.111a18.602 18.602 0 0 0 4.184-2.725 13.875 13.875 0 0 0 2.927-3.429 9.695 9.695 0 0 0 1.385-4.947 10.779 10.779 0 0 0-.846-4.038 103.276 103.276 0 0 0 13.432-9.945 60.597 60.597 0 0 0 16-22.806 72.34 72.34 0 0 0 3.76-12.454 15.4 15.4 0 0 0 3.77 4.36 15.636 15.636 0 0 0 2.442 1.628 1.301 1.301 0 0 0 1.829-.773c.456-1.61.689-3.275.692-4.948a11.868 11.868 0 0 0-1.529-6.142Zm-23.106 25.348a7.388 7.388 0 0 1-3.632 2.507 13.132 13.132 0 0 1-4.137.616c-.382 0-.737-.014-1.064-.035.489-.772 1.042-1.5 1.654-2.178a11.817 11.817 0 0 1 3.012-2.435 8.289 8.289 0 0 1 4.044-1.059c.564.009 1.125.07 1.678.182a52.656 52.656 0 0 1-1.433 2.294 1.135 1.135 0 0 0-.122.108Zm-19.044 29.77a7.08 7.08 0 0 1-1.028 3.631 12.625 12.625 0 0 1-3.692 3.79c-.223.155-.433.291-.636.419-.018-.308-.03-.64-.03-1a14.151 14.151 0 0 1 .672-4.456 8.63 8.63 0 0 1 2.806-4.119c.051-.051.097-.105.139-.164.423-.247.852-.506 1.28-.763.315.853.48 1.753.489 2.662Zm36.962-50.932a8.5 8.5 0 0 1-.927-3.852c.004-.622.071-1.24.199-1.849a7.858 7.858 0 0 1 1.903.947 6.385 6.385 0 0 1 2.333 3.036c.423 1.178.629 2.422.609 3.674a15.706 15.706 0 0 1-.204 2.469 14.723 14.723 0 0 1-1.794-1.534 11.428 11.428 0 0 1-2.119-2.891ZM154.017 14.158a195.31 195.31 0 0 1 8.422 27.044 1.302 1.302 0 0 0 1.56.973 1.298 1.298 0 0 0 .972-1.56 197.611 197.611 0 0 0-8.543-27.43 1.29 1.29 0 0 0-.696-.715 1.302 1.302 0 0 0-1.812 1.189c-.001.171.032.34.097.5ZM158.38 12.047a207.963 207.963 0 0 1 8.753 28.623 1.288 1.288 0 0 0 .563.82 1.304 1.304 0 0 0 1.444-.016 1.294 1.294 0 0 0 .543-.834c.031-.168.029-.34-.006-.507a210.32 210.32 0 0 0-8.865-29.004 1.3 1.3 0 0 0-2.432.918Z"/><path fill="#BEBEC9" d="M66.176 58.92a10.084 10.084 0 0 0-5.672-2.514c-.26-.02-.525-.03-.794-.03a17.01 17.01 0 0 0-6.741 1.617 25.806 25.806 0 0 0-9.881 7.868 22.49 22.49 0 0 0-4.67 13.675v.064a21.948 21.948 0 0 0 4.076 13.406 16.348 16.348 0 0 0 7.798 5.83l.4-1.236-.4 1.237c1.631.515 3.333.772 5.044.761a20.678 20.678 0 0 0 12.711-4.501 17.069 17.069 0 0 0 6.547-12.761c.02-.49.031-.98.031-1.468a34.59 34.59 0 0 0-4.03-16.365 19.76 19.76 0 0 0-4.42-5.583Zm5.82 23.305a14.45 14.45 0 0 1-5.578 10.845 18.1 18.1 0 0 1-11.083 3.928c-1.439.01-2.87-.204-4.243-.636a13.783 13.783 0 0 1-6.514-4.91 19.343 19.343 0 0 1-3.56-11.852v-.058a20.424 20.424 0 0 1 6.84-15.078 23.043 23.043 0 0 1 6.17-4.096 14.484 14.484 0 0 1 5.682-1.392c.205 0 .403.008.594.023 1.566.18 3.035.849 4.2 1.911a20.217 20.217 0 0 1 5.343 8.138 33.188 33.188 0 0 1 2.15 13.177ZM116.028 50.41a25.805 25.805 0 0 0-12.247-3.177 16.073 16.073 0 0 0-7.48 1.6 10.588 10.588 0 0 0-4.602 5.572 22.764 22.764 0 0 0-1.453 8.424 35.505 35.505 0 0 0 3.674 15.419 16.807 16.807 0 0 0 7.059 7.389 19.41 19.41 0 0 0 9.304 2.298c4.578.077 9.03-1.5 12.538-4.441l-.866-.97.866.97a15.286 15.286 0 0 0 3.599-5.022 18.544 18.544 0 0 0 1.644-7.737 23.76 23.76 0 0 0-2.202-9.698 22.495 22.495 0 0 0-9.834-10.627Zm8.027 26.981a12.72 12.72 0 0 1-2.967 4.165 16.455 16.455 0 0 1-10.805 3.78 16.814 16.814 0 0 1-8.055-1.98 14.191 14.191 0 0 1-5.978-6.261 32.93 32.93 0 0 1-3.404-14.267 20.218 20.218 0 0 1 1.264-7.45 8.025 8.025 0 0 1 3.424-4.255 13.583 13.583 0 0 1 6.247-1.29 23.22 23.22 0 0 1 10.991 2.854 19.879 19.879 0 0 1 8.715 9.408 21.17 21.17 0 0 1 1.977 8.64 15.944 15.944 0 0 1-1.409 6.656Z"/><path fill="#BEBEC9" d="M60.812 77.999c-5.027 1.14-7.82 6.115-6.482 8.37 1.1 1.855 4.27 1.166 8.303.236 4.033-.93 6.595-1.003 6.3-3.67-.247-2.227-4.044-5.861-8.12-4.936Zm1.258 7.58a2.746 2.746 0 1 1-1.138-5.374 2.746 2.746 0 0 1 1.137 5.373ZM104.763 68.701c-4.103.806-6.103 5.666-5.427 7.801.811 2.56 3.183 1.589 7.247.805 4.065-.782 7.241-1.436 7.497-3.577.31-2.604-4.259-6.022-9.317-5.029Zm1.92 7.44a2.746 2.746 0 1 1-1.138-5.374 2.746 2.746 0 0 1 1.138 5.373ZM97.768 89.515a1.3 1.3 0 0 0-1.333.142c-.81.531-1.68.962-2.593 1.285a44.089 44.089 0 0 1-5.713 1.735l-.053-.196c-.232-.869-.631-2.394-.994-3.916 2.862-1.5 5.254-6.115 4.516-8.771-.969-3.488-13.51-.694-14.14 2.606-.41 2.147 3.769 6.012 7.05 6.575.394 1.672.832 3.336 1.074 4.242-2.077.41-4.187.632-6.304.664a15.47 15.47 0 0 1-2.334-.158 1.3 1.3 0 0 0-1.398 1.786 22.896 22.896 0 0 0 2.96 4.891 15.645 15.645 0 0 0 3.684 3.435 9.719 9.719 0 0 0 5.306 1.64 9.492 9.492 0 0 0 1.623-.142 10.02 10.02 0 0 0 5.286-2.609 13.293 13.293 0 0 0 3.52-6.52c.396-1.642.599-3.324.605-5.012 0-.344-.01-.547-.012-.567a1.3 1.3 0 0 0-.75-1.11Zm-5.842 4.827c-.08.378-.245.732-.483 1.035a3.542 3.542 0 0 1-1.128.92 7.592 7.592 0 0 1-2.323.75 8.854 8.854 0 0 1-1.529.144 4.168 4.168 0 0 1-2.88-.912c-.04-.034-.062-.065-.096-.099a52.976 52.976 0 0 0 8.439-1.838Zm.687 6.498a7.384 7.384 0 0 1-3.941 1.931 6.816 6.816 0 0 1-1.176.104 7.12 7.12 0 0 1-3.896-1.225 14.94 14.94 0 0 1-4.186-4.446 20.937 20.937 0 0 1-.45-.733c.107.002.207.01.314.01.422 0 .852-.011 1.29-.032.023.06.047.117.075.183a5.047 5.047 0 0 0 1.691 1.97 7.014 7.014 0 0 0 4.13 1.189 11.443 11.443 0 0 0 1.977-.182 10.16 10.16 0 0 0 3.117-1.029 5.785 5.785 0 0 0 2.499-2.499 5.206 5.206 0 0 0 .526-2.641c.067-.026.14-.05.205-.076.374-.148.723-.294 1.055-.44a16.737 16.737 0 0 1-1.044 4.55 9.407 9.407 0 0 1-2.186 3.366Z"/><path fill="#BEBEC9" d="M185.214 59.334c-.444-6.971-2.27-11.854-5.16-15.032a13.17 13.17 0 0 0-4.987-3.437 16.054 16.054 0 0 0-5.871-1.036c-.423 0-.848.013-1.275.04a16.48 16.48 0 0 0-7.781 2.129 7.195 7.195 0 0 0-2.316 2.275 5.705 5.705 0 0 0-.85 3.022 7.877 7.877 0 0 0 1.015 3.653c-.044.039-.093.075-.136.114a7.196 7.196 0 0 0-.224 10.82 4.902 4.902 0 0 0-.453 2.07 6.92 6.92 0 0 0 .433 2.317 5.457 5.457 0 0 0 1.877 2.492c.307.233.631.443.968.63a1.2 1.2 0 0 0-.084.24 24.255 24.255 0 0 1-6.248 13.3 27.727 27.727 0 0 1-6.071 4.92c.308-1.896.464-3.813.466-5.733a38.887 38.887 0 0 0-.237-4.261c-1.494-13.593-8.868-25.569-19.354-34.425a18.426 18.426 0 0 0 2.793-4.375 20.166 20.166 0 0 0 1.781-8.336 20.422 20.422 0 0 0-2.771-10.324 17.9 17.9 0 0 0-8.042-7.298 18.244 18.244 0 0 0-7.569-1.614 20.705 20.705 0 0 0-10.88 3.167 19.699 19.699 0 0 0-7.562 8.491 18.411 18.411 0 0 0-1.46 5.025 66.253 66.253 0 0 0-6.213-.671 39.13 39.13 0 0 0-1.108-.032c-.403-.009-.805-.016-1.03-.022a17.85 17.85 0 0 0-3.782-2.792 24.939 24.939 0 0 0-9.395-2.587c-3.51-.392-6.8-.218-9.707-.34a22.112 22.112 0 0 1-4.046-.477 10.321 10.321 0 0 1-3.393-1.398 1.3 1.3 0 0 0-1.933 1.535c.76 1.741 1.92 3.28 3.386 4.488a17.742 17.742 0 0 0 5.992 3.34 32.292 32.292 0 0 1-2.98-.23 16.663 16.663 0 0 1-.238-.032l-.073-.01a1.3 1.3 0 0 0-1.215 2.095c.475.565.991 1.094 1.544 1.582a65.576 65.576 0 0 0-7.447 3.966 18.393 18.393 0 0 0-3.144-3.658 20.055 20.055 0 0 0-13.32-4.91 19.345 19.345 0 0 0-14.531 6.26 18.131 18.131 0 0 0-4.525 12.169 20.55 20.55 0 0 0 6.78 15.222c1.1.977 2.312 1.819 3.612 2.507a56.877 56.877 0 0 0-5.975 24.916 50.33 50.33 0 0 0 2.237 14.896 34.848 34.848 0 0 0 16.741 20.853c7.9 4.396 17.753 6.347 28.78 6.349a124.582 124.582 0 0 0 25.544-2.92c15.899-3.365 29.019-9.119 38.237-16.933A42.758 42.758 0 0 0 144.726 98.1a35.083 35.083 0 0 0 2.607-6.878 30.833 30.833 0 0 0 8.702-6.529 26.863 26.863 0 0 0 6.841-14.33c.346.1.696.192 1.053.27a24.43 24.43 0 0 0 5.083.501 23.628 23.628 0 0 0 5.362-.56 1.298 1.298 0 0 0 .98-1.065 1.3 1.3 0 0 0-1.602-1.459c-1.557.34-3.147.502-4.74.484a19.449 19.449 0 0 1-5.873-.804 7.052 7.052 0 0 1-2.069-1.03 2.862 2.862 0 0 1-1.011-1.302 4.335 4.335 0 0 1-.283-1.446 2.24 2.24 0 0 1 .431-1.375 4.93 4.93 0 0 1 2.515-1.554 17.6 17.6 0 0 1 4.585-.724 1.297 1.297 0 0 0 1.169-.853 1.303 1.303 0 0 0-.344-1.406 1.295 1.295 0 0 0-.938-.339 17.035 17.035 0 0 0-6.756 1.452c-.401.203-.783.441-1.142.711a4.587 4.587 0 0 1-.91-5.384 4.588 4.588 0 0 1 1.222-1.5 10.904 10.904 0 0 1 5.91-2.443 1.3 1.3 0 1 0-.368-2.574 15.68 15.68 0 0 0-5.003 1.523 5.063 5.063 0 0 1-.573-2.191 3.101 3.101 0 0 1 .465-1.66 5.603 5.603 0 0 1 2.696-2.065 16.48 16.48 0 0 1 5.345-1.106c.376-.023.749-.035 1.116-.035 1.68-.024 3.35.267 4.924.858a11.076 11.076 0 0 1 5.644 5.022c1.493 2.585 2.541 6.234 2.856 11.19a151.2 151.2 0 0 1 .317 9.573c0 12.993-1.901 25.236-6.914 36.214-5.016 10.978-13.13 20.726-25.723 28.785a1.305 1.305 0 0 0-.579 1.324 1.282 1.282 0 0 0 .536.838 1.311 1.311 0 0 0 1.444.029c12.973-8.292 21.478-18.474 26.688-29.896 5.214-11.423 7.148-24.053 7.148-37.294 0-3.212-.114-6.46-.323-9.738Zm-86.17-35.116a17.098 17.098 0 0 1 6.57-7.36 18.112 18.112 0 0 1 9.504-2.773c2.239-.01 4.453.462 6.494 1.382a15.292 15.292 0 0 1 6.876 6.25 17.82 17.82 0 0 1 2.412 9.004 17.575 17.575 0 0 1-1.548 7.26 15.85 15.85 0 0 1-2.444 3.815A69.112 69.112 0 0 0 97.777 28.61a15.814 15.814 0 0 1 1.266-4.393ZM26.566 59.725a17.964 17.964 0 0 1-5.91-13.282 15.527 15.527 0 0 1 3.867-10.438 16.752 16.752 0 0 1 12.59-5.39 17.464 17.464 0 0 1 11.59 4.252c1.03.92 1.934 1.97 2.69 3.124a68.35 68.35 0 0 0-17.508 17.036 65.59 65.59 0 0 0-4.248 6.836 15.83 15.83 0 0 1-3.071-2.139Zm115.839 37.202c-3.445 6.818-9.361 12.776-17.372 17.656-8.007 4.879-18.098 8.667-29.795 11.141a122.023 122.023 0 0 1-25.006 2.863c-10.725.002-20.145-1.913-27.514-6.021a32.21 32.21 0 0 1-15.523-19.348 47.735 47.735 0 0 1-2.121-14.129c-.002-11.518 4.056-22.89 10.93-32.556A65.169 65.169 0 0 1 63.408 34.41a13.072 13.072 0 0 0 6.916 2.11c.2 0 .404-.006.608-.017a1.299 1.299 0 0 0 .807-2.267 1.299 1.299 0 0 0-.943-.33 8.927 8.927 0 0 1-.472.013 10.82 10.82 0 0 1-6.129-2.102c.212.005.423.01.643.01 1.242.009 2.483-.085 3.71-.282a10.288 10.288 0 0 0 3.551-1.208 1.3 1.3 0 0 0-.618-2.413c-6.117-.247-9.684-2.196-11.78-4.012-.032-.027-.056-.055-.087-.082 2.173.4 4.381.582 6.591.544 2.4-.033 4.8.058 7.191.274 2.937.2 5.805.978 8.442 2.287a19.133 19.133 0 0 1 6.057 5.604 1.3 1.3 0 0 0 2.07-1.571c-.219-.29-.438-.565-.657-.838a66.295 66.295 0 0 1 37.367 14.797c10.382 8.557 17.586 20.152 19.02 33.214.146 1.321.22 2.649.221 3.978a32.449 32.449 0 0 1-3.511 14.809Z"/></svg>