<svg xmlns="http://www.w3.org/2000/svg" width="200" height="200" fill="none"><g clip-path="url(#a)"><path fill="#FFDF00" d="m85 19.825-.168 6.333 5.978-.105.063-6.542-5.874.314ZM61.9 94.043c8.82-4.32 6.84-18 16.38-14.22 9.282 3.678 17.279 2.34 18.899-6.84 1.62-9.179 18.539 5.58 22.318-.36 3.78-5.94-2.957-14.145-8.639-16.019-16.38-5.4-48.598 2.88-48.958 37.439Z"/><path fill="#191C22" d="M143.69 35.75c-4.815 0-8.995-3.642-9.517-8.292-.354-3.157.456-6.32 2.224-8.676a1.3 1.3 0 1 1 2.08 1.561c-1.374 1.831-2.001 4.32-1.72 6.825.37 3.299 3.48 5.982 6.933 5.982 1.188 0 2.272-.301 3.137-.871 2.868-1.891 3.703-4.365 3.711-4.39a1.304 1.304 0 0 1 1.633-.838c.68.218 1.059.94.846 1.622-.043.136-1.08 3.35-4.76 5.776-1.291.851-2.87 1.3-4.567 1.3Z"/><path fill="#191C22" d="M145.781 32.383c-5.122 0-9.709-3.998-10.227-8.913-.237-2.255.405-4.428 1.807-6.12a1.3 1.3 0 1 1 2.002 1.659c-.952 1.148-1.386 2.637-1.223 4.19.382 3.63 3.81 6.584 7.641 6.584 1.858 0 3.507-.694 4.641-1.954 1.056-1.172 1.542-2.72 1.37-4.36-.382-3.63-3.809-6.585-7.64-6.585a1.3 1.3 0 1 1 0-2.6c5.121 0 9.709 4 10.225 8.914.25 2.381-.467 4.644-2.023 6.37-1.634 1.816-3.968 2.815-6.573 2.815Z"/><path fill="#FFDF00" d="M49.73 24.044c-.174 1.662 1.097 3.01 2.838 3.01 1.742 0 3.296-1.348 3.47-3.01.175-1.663-1.095-3.01-2.837-3.01-1.742 0-3.295 1.347-3.47 3.01Z"/><path fill="#000" d="M52.567 28.354c-1.222 0-2.368-.495-3.144-1.356-.757-.84-1.107-1.938-.985-3.09.246-2.34 2.337-4.175 4.762-4.175 1.223 0 2.368.494 3.144 1.356.757.84 1.107 1.938.986 3.09-.246 2.341-2.338 4.175-4.763 4.175Zm.633-6.021c-1.075 0-2.071.846-2.177 1.847-.044.416.072.788.332 1.078.289.32.718.496 1.212.496 1.076 0 2.072-.846 2.177-1.846a1.356 1.356 0 0 0-.332-1.079c-.288-.32-.718-.496-1.212-.496ZM63.96 27.88c-1.222 0-2.367-.495-3.144-1.357a3.942 3.942 0 0 1-.986-3.09c.246-2.341 2.338-4.175 4.763-4.175 1.222 0 2.368.494 3.144 1.357.757.84 1.108 1.938.987 3.09-.246 2.34-2.34 4.174-4.764 4.174Zm.633-6.022c-1.074 0-2.072.845-2.177 1.846-.044.416.071.79.332 1.08.288.319.719.495 1.212.495 1.075 0 2.072-.845 2.178-1.846a1.356 1.356 0 0 0-.332-1.08c-.288-.319-.72-.495-1.213-.495Z"/><path fill="#191C22" d="M84.683 27.453a1.296 1.296 0 0 1-1.3-1.343l.22-6.466a1.3 1.3 0 0 1 1.28-1.256c10.255-.145 20.252-.165 29.713-.064a1.301 1.301 0 0 1 1.286 1.26l.201 6.458a1.3 1.3 0 0 1-.371.95 1.329 1.329 0 0 1-.943.39c-9.621-.104-19.735-.08-30.068.071h-.018Zm1.476-6.482-.13 3.863c9.396-.126 18.605-.15 27.412-.065l-.12-3.858c-8.685-.08-17.811-.063-27.162.06Z"/><g stroke="#191C22" stroke-linecap="round" stroke-linejoin="round" stroke-width="2.6"><path d="m90.895 22.04-.032 1.756M96.89 22.005l-.038 1.707M102.885 21.97l-.045 1.659M108.88 21.936l-.052 1.61"/></g><path fill="#191C22" d="M144.463 41.272c-3.343 0-7.337-.914-11.926-3.529A16.062 16.062 0 0 0 125 35.63c-20.104-.488-49.771-.683-76.933 1.153a1.3 1.3 0 1 1-.175-2.593c27.258-1.844 57.01-1.648 77.171-1.16 3.045.075 6.074.923 8.761 2.455 13.333 7.596 20.604-.752 20.677-.837a1.3 1.3 0 1 1 1.986 1.677c-.059.072-4.304 4.947-12.024 4.948Z"/><g fill="#FFDF00"><path d="M90.77 100.522s4.806-.643 9.661-.849a6.354 6.354 0 0 0-.853-3.47c-3.13-5.478-6.74.525-12.777-.32 1.332 1.315 2.744 2.883 3.97 4.639ZM75.618 121.966c1.145-9.491 2.972-20.92 5.684-28.521-8.751-4.723-19.82 4.019-18.202 11.877-.475-.238 5.177 11.067 12.518 16.644Z"/></g><path fill="#FFDF00" d="M130.056 70.044c3.36 10.08-9.36 8.64-6.24 17.759 1.633 4.771-2.123 5.275-6.109 7.04 1.043 4.521 2.885 13.017 4.614 23.527 4.825-.689 9.717-3.678 11.815-7.768 4.8-9.36 6.719-28.079-4.08-40.558Z"/><path fill="#191C22" d="M75.454 123.348c.107-.916.218-1.848.338-2.801-8.021-6.207-12.88-15.731-12.88-26.984 0-20.721 16.535-37.578 36.858-37.578 20.324 0 36.858 16.857 36.858 37.578 0 11.695-5.252 21.517-13.843 27.694a337 337 0 0 1 .413 2.708c9.845-6.648 16.03-17.569 16.03-30.402 0-22.155-17.701-40.178-39.458-40.178-21.756 0-39.457 18.023-39.457 40.178 0 12.443 5.814 23.088 15.141 29.785Z"/><path fill="#191C22" d="M155.407 79.728c-.418-1.323-1.69-5.35-5.846-5.572l-3.234-.173c-1.095-.058-2.048-.7-2.488-1.674-7.909-17.494-24.274-27.526-44.902-27.526-26.19 0-46.44 20.349-48.148 48.386-.76 12.479 3.436 24.257 11.815 33.161 3.365 3.576 7.317 6.582 11.676 8.948.067-.833.147-1.787.242-2.856-3.72-2.142-7.11-4.776-10.024-7.873-7.883-8.377-11.83-19.466-11.113-31.222 1.622-26.622 20.779-45.944 45.552-45.944 19.562 0 35.064 9.475 42.533 25.996.842 1.864 2.65 3.09 4.718 3.2l3.235.173c1.166.062 2.494.558 3.506 3.76.745 2.36 1.622 18.341 1.187 21.647-.461 3.515-2.042 4.04-3.528 4.091l-1.802.062a5.51 5.51 0 0 0-4.982 3.586c-3.55 9.453-10.545 17.206-19.474 22.3.115.923.227 1.854.336 2.79 9.9-5.374 17.68-13.811 21.571-24.176a2.92 2.92 0 0 1 2.637-1.903l1.802-.061c2.376-.08 5.349-1.247 6.018-6.351.444-3.372-.367-19.857-1.287-22.769Z"/><path fill="#191C22" d="M161.07 36.706c-.03-.324.202-.839.428-1.337.344-.763.735-1.629.639-2.626-.149-1.548-.301-3.226-.457-4.938-.336-3.708-.683-7.542-1.049-10.617-.398-3.338-3.23-5.888-6.734-6.063-49.903-2.493-105.296-.08-107.63.023-3.532.157-6.385 2.706-6.785 6.061-.356 3.002-.696 6.748-1.025 10.371a847.3 847.3 0 0 1-.458 4.95c-.095.982.305 1.822.659 2.563.222.464.45.943.424 1.224-1.801 19.605-4.319 56.27-6.08 119.602-.103 3.701 2.85 6.779 6.721 7.009 3.338.198 12.778.695 28.306 1.017.103.002.208.003.31.006.083-.67.174-1.364.28-2.112l.073-.482-.608-.012c-15.484-.32-24.884-.815-28.206-1.013-2.462-.145-4.34-2.052-4.276-4.341 1.758-63.263 4.27-99.869 6.07-119.436.09-.992-.312-1.837-.667-2.581-.208-.437-.444-.93-.418-1.195.15-1.554.303-3.242.46-4.963.327-3.606.665-7.333 1.017-10.3.248-2.085 2.065-3.671 4.319-3.77 1.54-.069 26.267-1.147 57.244-1.147 15.834 0 33.301.281 50.14 1.124 2.235.111 4.034 1.697 4.282 3.771.362 3.04.708 6.856 1.043 10.545.155 1.717.308 3.4.458 4.954.029.308-.201.815-.422 1.306-.347.768-.74 1.637-.648 2.645 1.782 19.487 4.276 55.954 6.032 119.009.065 2.299-1.817 4.206-4.285 4.342-3.805.21-14.496.733-31.303 1.063.111.89.212 1.759.298 2.594 16.712-.331 27.349-.852 31.148-1.061 3.885-.213 6.846-3.293 6.742-7.01-1.76-63.117-4.257-99.65-6.042-119.175Z"/><path fill="#191C22" d="M85.543 183.03c-.046 0-.091-.002-.138-.007-15.65-1.655-18.788-6.794-18.686-14.002.118-8.238 5.284-28.099 5.774-29.961 2.508-30.569 8.154-48.011 8.21-48.184a1.3 1.3 0 0 1 2.087-.576c3.053 2.645 7.199 7.25 8.564 8.79a110.836 110.836 0 0 1 17.172-.469c.717.037 1.267.65 1.229 1.367-.037.715-.628 1.291-1.366 1.229a108.288 108.288 0 0 0-17.42.529 1.316 1.316 0 0 1-1.124-.436c-.045-.052-3.942-4.505-7.252-7.667-1.498 5.311-5.517 21.262-7.518 45.743-.007.077-.02.152-.04.227-.055.211-5.6 21.3-5.716 29.445-.072 5.078 1.124 9.768 16.36 11.379a1.3 1.3 0 0 1-.136 2.593Z"/><path fill="#191C22" d="M106.657 183.538a1.299 1.299 0 0 1-.09-2.596c19.217-1.346 21.734-6.763 21.661-11.884-.117-8.183-4.395-29.306-4.439-29.519a2.158 2.158 0 0 1-.018-.12c-2.74-25.508-6.233-40.589-7.564-45.745-3.195 3.025-6.676 6.944-6.717 6.99a1.3 1.3 0 1 1-1.946-1.724c.198-.224 4.887-5.5 8.509-8.64a1.299 1.299 0 0 1 2.096.606c.048.157 4.731 15.919 8.201 48.175.304 1.501 4.359 21.655 4.477 29.94.127 8.863-7.299 13.339-24.079 14.514a1.413 1.413 0 0 1-.092.003h.001Z"/><path fill="#191C22" d="M120.832 109.055a1.3 1.3 0 0 1-.268-2.571c4.757-1.01 13.223-1.551 18.354-1.462a1.3 1.3 0 0 1-.021 2.599h-.022c-4.996-.075-13.337.465-17.772 1.406a1.327 1.327 0 0 1-.271.028ZM137.137 115.233c-.123 0-.247-.018-.37-.054-5.818-1.722-11.482-1.96-15.199-1.853-.726.006-1.317-.545-1.337-1.262a1.301 1.301 0 0 1 1.263-1.337c3.919-.108 9.865.14 16.011 1.958a1.301 1.301 0 0 1-.368 2.548ZM133.892 122.411c-.243 0-.488-.067-.706-.209-3.535-2.293-8.05-3.675-11.215-4.431a1.3 1.3 0 0 1 .604-2.53c3.364.804 8.181 2.286 12.025 4.78a1.3 1.3 0 0 1-.708 2.39ZM77.38 109.055c-.09 0-.18-.009-.271-.028-4.297-.913-10.947-1.497-16.188-1.406H60.9a1.3 1.3 0 0 1-.022-2.599c5.423-.089 12.304.513 16.77 1.462a1.3 1.3 0 0 1-.269 2.571ZM61.075 115.233a1.302 1.302 0 0 1-.368-2.548c6.15-1.818 12.102-2.067 16.012-1.958.716.02 1.282.619 1.262 1.337-.02.717-.61 1.263-1.337 1.262-3.715-.108-9.379.131-15.199 1.853a1.32 1.32 0 0 1-.37.054ZM64.32 122.411a1.3 1.3 0 0 1-.707-2.39c3.845-2.494 8.66-3.976 12.024-4.78a1.3 1.3 0 0 1 .603 2.53c-3.163.756-7.677 2.137-11.213 4.431a1.29 1.29 0 0 1-.706.209ZM104.109 185.519a1.302 1.302 0 0 1-.534-2.487c.822-.37 2.231-1.218 2.427-2.743.232-1.789-1.275-4.093-4.241-6.489a1.3 1.3 0 1 1 1.633-2.023c3.803 3.072 5.548 6.047 5.187 8.845-.261 2.03-1.698 3.772-3.94 4.782a1.295 1.295 0 0 1-.532.115Z"/><path fill="#191C22" d="M98.053 194.405c-6.535 0-11.048-1.236-13.438-3.685-1.396-1.432-2.026-3.228-1.874-5.336.335-4.625 4.57-6.694 7.972-8.356 1.843-.902 3.749-1.833 4.066-2.783.037-.11.15-.446-.201-1.137a1.3 1.3 0 0 1 2.318-1.178c.56 1.102.678 2.16.349 3.141-.663 1.981-2.96 3.104-5.39 4.292-3.094 1.512-6.294 3.076-6.52 6.208-.099 1.355.275 2.445 1.141 3.333 2.113 2.165 7.165 3.172 14.24 2.834 5.122-.243 7.306-1.345 7.621-2.214.177-.494-.251-1.277-1.148-2.096-2.799-2.56-9.375-3.351-9.441-3.358a1.3 1.3 0 0 1 .299-2.582c.302.034 7.476.893 10.896 4.021 2.36 2.156 2.165 3.994 1.839 4.897-.843 2.334-4.188 3.657-9.943 3.93-.965.046-1.895.068-2.785.068v.001Z"/></g><defs><clipPath id="a"><path fill="#fff" d="M33 10h134.115v184.405H33z"/></clipPath></defs></svg>