<svg width="200" height="200" viewBox="0 0 200 200" xmlns="http://www.w3.org/2000/svg"><g id="type=ppap, mode=dark"><path id="Vector" d="M59.5285 153.738C61.5674 153.491 63.4495 152.519 64.8308 150.999C66.5411 149.081 67.8057 146.808 68.5337 144.344C68.9247 143.162 69.2861 142.057 69.6187 141.01C69.6591 140.882 69.6796 140.75 69.6796 140.616V140.606C69.6796 140.435 69.646 140.266 69.5807 140.108C69.5153 139.95 69.4196 139.807 69.2989 139.686C69.1781 139.566 69.0348 139.47 68.8771 139.404C68.7194 139.339 68.5503 139.306 68.3796 139.306C68.2089 139.306 68.0399 139.339 67.8821 139.404C67.7244 139.47 67.5811 139.566 67.4604 139.686C67.3397 139.807 67.2439 139.95 67.1786 140.108C67.1132 140.266 67.0796 140.435 67.0796 140.606V140.616H68.3796L67.1405 140.223C66.8129 141.255 66.4546 142.35 66.0652 143.527C65.4565 145.624 64.3941 147.56 62.9535 149.2C61.997 150.278 60.6813 150.972 59.2512 151.153C58.9084 151.19 58.5942 151.361 58.3778 151.629C58.1614 151.898 58.0605 152.241 58.0973 152.584C58.134 152.927 58.3055 153.241 58.5739 153.457C58.8423 153.674 59.1857 153.775 59.5285 153.738L59.5285 153.738Z"/><path id="Vector_2" d="M139.483 129.259C139.391 129.114 139.273 128.989 139.133 128.891C138.993 128.793 138.836 128.723 138.669 128.686C138.503 128.648 138.33 128.644 138.162 128.673C137.994 128.702 137.833 128.764 137.689 128.856L130.878 133.169C130.734 133.261 130.609 133.379 130.511 133.519C130.412 133.659 130.342 133.816 130.305 133.983C130.268 134.149 130.263 134.322 130.293 134.49C130.322 134.658 130.384 134.819 130.475 134.963C130.567 135.107 130.685 135.232 130.825 135.33C130.965 135.429 131.122 135.499 131.289 135.536C131.455 135.573 131.628 135.578 131.796 135.548C131.964 135.519 132.125 135.457 132.269 135.366L139.08 131.052C139.371 130.868 139.577 130.575 139.653 130.239C139.728 129.902 139.667 129.55 139.483 129.259Z"/><path id="Vector_3" d="M131.315 155.462L138.126 151.149C138.417 150.965 138.623 150.672 138.699 150.335C138.774 149.999 138.713 149.646 138.529 149.355C138.344 149.064 138.052 148.858 137.715 148.782C137.379 148.707 137.026 148.768 136.735 148.952L129.924 153.266C129.633 153.45 129.426 153.743 129.351 154.079C129.275 154.416 129.337 154.768 129.521 155.06C129.706 155.351 129.998 155.557 130.335 155.633C130.671 155.708 131.024 155.647 131.315 155.462Z"/><path id="Vector_4" d="M136.005 137.945C135.82 137.654 135.528 137.448 135.191 137.372C134.855 137.297 134.502 137.358 134.211 137.542L127.4 141.855C127.255 141.946 127.129 142.064 127.03 142.204C126.931 142.344 126.86 142.501 126.822 142.668C126.784 142.835 126.78 143.008 126.809 143.177C126.838 143.346 126.9 143.507 126.992 143.652C127.083 143.797 127.203 143.922 127.343 144.02C127.483 144.119 127.641 144.188 127.808 144.226C127.975 144.263 128.148 144.266 128.317 144.237C128.486 144.207 128.647 144.144 128.791 144.051L135.602 139.739C135.746 139.648 135.871 139.529 135.969 139.389C136.068 139.25 136.137 139.092 136.175 138.925C136.212 138.759 136.217 138.587 136.187 138.418C136.158 138.25 136.096 138.089 136.005 137.945Z"/><path id="Vector_5" d="M165.412 152.565C165.157 150.589 164.418 148.706 163.26 147.085C162.097 145.414 160.636 143.973 158.95 142.831C158.809 142.734 158.65 142.665 158.482 142.629C158.315 142.594 158.142 142.592 157.973 142.623C157.804 142.655 157.644 142.719 157.5 142.813C157.357 142.907 157.233 143.029 157.137 143.17C157.04 143.312 156.973 143.472 156.939 143.64C156.904 143.808 156.903 143.981 156.936 144.149C156.969 144.318 157.035 144.478 157.129 144.621C157.224 144.763 157.347 144.886 157.489 144.982H157.489C158.908 145.942 160.138 147.155 161.119 148.559C162.032 149.826 162.618 151.298 162.827 152.845C162.864 153.192 162.883 153.54 162.883 153.888C162.89 156.142 162.089 158.324 160.625 160.038C159.201 161.715 157.189 162.783 155.002 163.023C154.693 163.055 154.384 163.071 154.074 163.071C151.872 163.026 149.726 162.368 147.879 161.169C147.735 161.077 147.574 161.014 147.406 160.985C147.237 160.955 147.065 160.958 146.898 160.995C146.731 161.032 146.573 161.101 146.433 161.199C146.293 161.297 146.174 161.422 146.082 161.566C145.99 161.71 145.927 161.871 145.898 162.039C145.868 162.207 145.872 162.38 145.909 162.547C145.946 162.713 146.016 162.871 146.114 163.011C146.212 163.151 146.337 163.27 146.481 163.362C148.746 164.828 151.376 165.627 154.074 165.671C154.475 165.671 154.877 165.65 155.276 165.608L155.279 165.608C158.123 165.297 160.741 163.911 162.596 161.734C164.466 159.548 165.49 156.764 165.483 153.888C165.483 153.447 165.459 153.006 165.412 152.568L165.412 152.565Z"/><path id="Vector_6" d="M167.503 49.7434C168.438 39.8467 169.964 21.9961 170.296 16.9396C170.311 16.7073 170.319 16.4817 170.319 16.2626C170.331 15.4757 170.212 14.6923 169.968 13.9442C169.656 12.9868 169.042 12.1568 168.217 11.5794C167.485 11.0909 166.644 10.7921 165.768 10.71C165.542 10.6847 165.315 10.672 165.087 10.672C163.838 10.6494 162.623 11.0865 161.674 11.9003C160.573 12.9445 159.916 14.3736 159.842 15.8898C159.433 20.1177 158.09 36.4348 157.221 47.071C157.061 46.4607 156.901 45.8507 156.722 45.2507C153.911 35.8227 148.493 27.6732 139.376 21.982C130.261 16.2855 117.547 13.0358 100.127 13.035C88.5114 13.0355 78.9959 14.4802 71.2353 17.1307C59.5952 21.0957 51.9132 27.8394 47.2543 36.2928C45.308 39.8758 43.8378 43.6977 42.8813 47.6615C42.0145 37.0498 40.6275 20.1975 40.2114 15.8896C40.1373 14.3735 39.4809 12.9444 38.3791 11.9002C37.4303 11.0864 36.2157 10.6494 34.9659 10.672C34.7386 10.672 34.5115 10.6847 34.2857 10.71C33.0854 10.8087 31.961 11.3367 31.1183 12.197C30.6533 12.6991 30.3011 13.2948 30.0853 13.9442C29.8411 14.6924 29.7224 15.4758 29.7342 16.2628C29.7342 16.482 29.7418 16.7077 29.757 16.9398C30.0888 21.9962 31.6155 39.8467 32.55 49.7434C32.6825 52.2008 33.2581 54.6141 34.249 56.8669C34.5956 57.5911 35.0623 58.2513 35.6293 58.8198C35.0378 59.2756 34.53 59.8309 34.1288 60.4607C33.6086 61.4043 33.2658 62.4352 33.1174 63.5025C32.8898 64.8924 32.7812 66.2992 32.7929 67.7076C32.796 69.136 32.8816 70.563 33.0491 71.9816C33.3133 74.3814 33.8523 76.7428 34.6554 79.0196C34.9641 79.8871 35.3445 80.7273 35.7925 81.5317C36.1401 82.1822 36.5961 82.7687 37.1408 83.2659C38.3582 84.1898 39.7735 84.8184 41.2752 85.1024C42.019 85.2709 42.7733 85.3892 43.533 85.4565C43.5451 85.4958 43.5548 85.5365 43.567 85.5756C46.2826 94.9582 52.5329 102.921 61.002 107.787C68.6047 112.23 78.6893 115.017 91.8705 115.825V118.397C88.8864 118.588 86.1047 118.839 83.7896 119.152C82.4725 119.331 81.3024 119.528 80.3107 119.747C79.4704 119.912 78.6502 120.167 77.8642 120.506L77.864 120.506L77.8601 120.508L77.8501 120.512L77.8508 120.514C77.1533 120.889 76.5727 121.45 76.1728 122.133C76.0793 122.276 76.0148 122.436 75.983 122.604C75.9513 122.772 75.9529 122.944 75.9877 123.111C76.0226 123.278 76.09 123.437 76.1861 123.578C76.2823 123.719 76.4053 123.84 76.5481 123.933C76.6909 124.027 76.8508 124.091 77.0185 124.123C77.1863 124.155 77.3586 124.153 77.5257 124.118C77.6929 124.083 77.8515 124.016 77.9926 123.92C78.1336 123.824 78.2544 123.701 78.3479 123.558L78.3478 123.558C78.4973 123.285 78.7051 123.048 78.9565 122.865L78.9703 122.859C79.583 122.603 80.2202 122.411 80.8721 122.285C83.5159 121.77 86.1886 121.415 88.8754 121.223C92.1714 124.037 96.3692 125.571 100.703 125.547C103.151 125.538 105.579 125.098 107.875 124.247C109.69 123.613 111.373 122.652 112.841 121.411C112.907 121.341 112.965 121.263 113.013 121.179C114.644 121.31 116.179 121.461 117.548 121.632C118.826 121.791 119.966 121.966 120.919 122.152C121.67 122.285 122.41 122.474 123.133 122.717L123.287 122.774C123.61 122.894 123.968 122.881 124.281 122.738C124.595 122.594 124.839 122.332 124.959 122.009C125.079 121.686 125.066 121.328 124.922 121.015C124.779 120.701 124.517 120.457 124.194 120.337L124.033 120.278L124.026 120.275C123.174 119.984 122.301 119.758 121.415 119.599C117.622 118.954 113.794 118.54 109.95 118.359V115.711C116.38 115.311 122.741 114.168 128.908 112.305C140.52 108.634 148.237 102.331 152.935 94.221C154.545 91.4128 155.828 88.4287 156.757 85.3276C156.951 85.4254 157.166 85.4717 157.383 85.4622C158.167 85.3974 158.946 85.2771 159.714 85.1023C161.216 84.8183 162.631 84.1897 163.849 83.2659C164.394 82.7686 164.85 82.1822 165.197 81.5317C165.895 80.2503 166.445 78.8939 166.838 77.4886C167.36 75.6873 167.729 73.8452 167.941 71.9818C168.108 70.563 168.194 69.1357 168.197 67.707C168.209 66.2987 168.1 64.8919 167.872 63.5021C167.724 62.4347 167.381 61.4036 166.86 60.4602C166.314 59.6211 165.594 58.9097 164.748 58.3748C164.734 58.3658 164.72 58.3591 164.706 58.3501C165.442 57.5161 166.004 56.5433 166.358 55.489C166.978 53.6291 167.363 51.6989 167.503 49.7434ZM35.1385 49.4988C34.2068 39.6358 32.6778 21.7519 32.3515 16.7694C32.3397 16.591 32.3339 16.4221 32.3342 16.2627C32.323 15.7627 32.3941 15.2642 32.5448 14.7872C32.6748 14.3554 32.9454 13.9794 33.3136 13.7191C33.6914 13.4758 34.1236 13.3298 34.5716 13.2942L34.5733 13.2939C34.7037 13.2794 34.8348 13.2721 34.966 13.272C35.5824 13.2496 36.1855 13.4555 36.6595 13.8503C37.2655 14.4595 37.6112 15.2803 37.6235 16.1395C37.9298 19.3082 38.7787 29.4784 39.5492 38.8381C39.9346 43.5195 40.3008 48.0016 40.5706 51.3133C40.7793 53.8751 40.9289 55.7193 40.9867 56.4319C40.1997 56.6187 39.4262 56.858 38.6712 57.1482C38.4742 57.2245 38.2654 57.3261 38.0615 57.415C37.3919 57.0229 36.8695 56.4219 36.5745 55.7042C35.7311 53.7374 35.2449 51.6361 35.1385 49.4988ZM41.6425 82.5181C40.6244 82.3146 39.6623 81.8932 38.8223 81.283C38.5114 80.9788 38.2506 80.6272 38.0496 80.2414C37.4531 79.1349 36.9825 77.9651 36.6464 76.7538C36.1662 75.0941 35.8267 73.3969 35.6315 71.6801C35.4756 70.3616 35.3959 69.0352 35.3928 67.7076C35.3814 66.4498 35.4769 65.1934 35.6781 63.9519C35.7754 63.2113 35.9993 62.4929 36.34 61.8282C36.6895 61.3096 37.1453 60.8714 37.6772 60.5426C38.5711 59.9823 39.537 59.5462 40.5484 59.2464C40.7583 59.1809 40.9524 59.1258 41.1295 59.0779C40.9778 61.2073 40.9022 63.3692 40.9026 65.5635C40.8328 71.3459 41.4654 77.1155 42.7866 82.7454C42.4516 82.6923 42.059 82.6193 41.6425 82.5181ZM108.368 121.219C107.931 121.427 107.466 121.627 106.972 121.809C104.965 122.553 102.843 122.938 100.703 122.946C97.9939 122.964 95.3283 122.269 92.9731 120.931L93.0687 120.925C93.1041 120.928 93.1344 120.945 93.1705 120.945C93.4666 120.965 93.7589 120.871 93.9891 120.684C94.2193 120.497 94.3703 120.23 94.4119 119.936C94.4429 119.842 94.4626 119.744 94.4705 119.646H94.4705V115.959C96.3013 116.033 98.1807 116.076 100.127 116.076C102.638 116.076 105.032 116.002 107.35 115.88V119.976C107.353 120.268 107.455 120.55 107.64 120.776C107.826 121.003 108.082 121.159 108.368 121.219H108.368ZM137.941 105.543C129.383 110.552 117.172 113.478 100.128 113.476C88.7676 113.477 79.5477 112.178 72.1339 109.826C61.0098 106.287 53.9566 100.449 49.5698 92.9153C45.1887 85.3779 43.501 76.0401 43.5027 65.5635C43.3949 58.9535 44.2445 52.3626 46.0251 45.996C48.7159 37.0375 53.7092 29.5428 62.2586 24.1865C70.8113 18.8353 83.0203 15.6342 100.127 15.635C111.529 15.6345 120.763 17.0569 128.18 19.5911C139.305 23.4032 146.35 29.6513 150.726 37.5502C155.096 45.4515 156.755 55.086 156.754 65.5635C156.874 72.068 156.015 78.5534 154.207 84.8026C151.688 93.5677 145.853 101.007 137.941 105.543H137.941ZM165.311 63.9519C165.513 65.1932 165.608 66.4495 165.597 67.707C165.594 69.035 165.514 70.3618 165.358 71.6806C165.117 73.8783 164.626 76.0411 163.893 78.1269C163.634 78.8567 163.315 79.5639 162.94 80.2413C162.739 80.6271 162.478 80.9787 162.168 81.2829C161.266 81.9289 160.232 82.3672 159.141 82.5661C158.599 82.6886 158.105 82.7655 157.752 82.8106C157.632 82.826 157.535 82.8367 157.452 82.8453C158.788 77.1838 159.426 71.3801 159.354 65.5635C159.354 63.3064 159.272 61.0836 159.108 58.8951C159.925 59.0713 160.727 59.3143 161.504 59.6214C162.157 59.874 162.781 60.195 163.367 60.579C163.876 60.9016 164.313 61.327 164.648 61.8279C164.99 62.4926 165.214 63.2111 165.311 63.9519ZM163.487 55.588C163.274 56.0245 162.988 56.4217 162.642 56.763C162.504 56.8922 162.354 57.0066 162.193 57.1044C161.85 56.9754 161.518 56.8589 161.215 56.764C160.625 56.577 160.024 56.4239 159.416 56.3053C159.303 56.2924 159.189 56.2949 159.077 56.3127C159.141 55.5241 159.286 53.7394 159.483 51.3132C160.292 41.3827 161.97 20.8987 162.43 16.1397C162.443 15.2804 162.788 14.4595 163.394 13.8501C163.868 13.4554 164.471 13.2495 165.087 13.272C165.219 13.272 165.35 13.2793 165.48 13.2939L165.482 13.2941C166.066 13.3259 166.62 13.5683 167.04 13.9764C167.252 14.2097 167.412 14.4862 167.508 14.787C167.659 15.2639 167.73 15.7624 167.719 16.2625C167.719 16.422 167.713 16.5911 167.702 16.77C167.375 21.7519 165.846 39.6357 164.915 49.4988C164.818 51.5992 164.334 53.6636 163.487 55.588L163.487 55.588Z"/><path id="Vector_7" d="M133.05 166.626C133.05 166.455 133.016 166.286 132.951 166.128C132.885 165.971 132.789 165.827 132.669 165.707C132.548 165.586 132.405 165.49 132.247 165.425C132.089 165.36 131.92 165.326 131.75 165.326C131.579 165.326 131.41 165.36 131.252 165.425C131.094 165.49 130.951 165.586 130.83 165.707C130.71 165.827 130.614 165.971 130.548 166.128C130.483 166.286 130.45 166.455 130.45 166.626V166.826L130.45 166.856C130.489 168.534 130.509 170.199 130.509 171.837C130.509 172.088 130.505 172.333 130.504 172.583C130.2 172.761 129.879 172.908 129.545 173.022C128.614 173.34 127.662 173.596 126.697 173.789C126.193 173.838 125.695 173.875 125.216 173.875C123.452 173.856 121.7 173.571 120.021 173.03C117.475 172.26 114.891 171.048 111.866 170.004C108.415 168.761 104.776 168.119 101.107 168.108C96.4174 168.181 91.79 169.192 87.4975 171.082C85.6554 171.809 83.9559 172.516 82.2895 173.031C80.6622 173.567 78.9625 173.852 77.2493 173.874C76.6433 173.874 76.038 173.834 75.4372 173.755C74.2621 173.49 73.1016 173.163 71.9606 172.777L71.9452 172.775C71.9439 172.489 71.9403 172.206 71.9403 171.919C71.962 161.937 72.6159 151.966 73.898 142.067C73.9426 141.726 73.85 141.381 73.6406 141.108C73.4312 140.835 73.122 140.656 72.7809 140.61C72.4397 140.565 72.0945 140.657 71.8208 140.865C71.5471 141.074 71.3673 141.383 71.3208 141.724C70.0234 151.737 69.3619 161.822 69.3402 171.919C69.2965 177.391 69.5869 182.862 70.2099 188.299C70.2543 188.64 70.4321 188.949 70.7043 189.16C70.9765 189.37 71.321 189.464 71.6622 189.421C72.0034 189.377 72.3136 189.201 72.5248 188.929C72.7361 188.658 72.8312 188.314 72.7893 187.972L72.7892 187.972C72.3028 183.836 72.0318 179.676 71.9774 175.511C75.9131 176.645 79.9491 177.395 84.0291 177.751C89.3129 178.265 94.6193 178.512 99.928 178.491C106.776 178.508 113.62 178.144 120.428 177.4C122.942 177.106 125.148 176.763 126.995 176.379C127.09 176.37 127.183 176.366 127.278 176.355C127.38 176.335 127.48 176.303 127.574 176.258C127.66 176.239 127.758 176.222 127.843 176.202C128.721 176.009 129.588 175.763 130.437 175.464C130.45 175.46 130.459 175.454 130.472 175.45C130.418 179.635 130.147 183.815 129.66 187.972C129.616 188.315 129.711 188.66 129.922 188.932C130.133 189.205 130.444 189.382 130.786 189.425C131.128 189.469 131.473 189.374 131.746 189.163C132.018 188.952 132.196 188.641 132.239 188.299C132.863 182.834 133.153 177.337 133.109 171.837C133.109 170.186 133.088 168.51 133.05 166.822L133.05 166.626ZM84.297 175.165C84.241 175.159 84.1873 175.152 84.1315 175.146C86.4798 174.332 88.7519 173.314 91.2295 172.461C94.3967 171.313 97.7382 170.72 101.107 170.708C105.485 170.78 109.805 171.73 113.809 173.502C115.17 174.035 116.503 174.58 117.866 175.058C112.597 175.576 106.292 175.892 99.928 175.891C94.7088 175.912 89.4918 175.67 84.297 175.165L84.297 175.165Z"/><path id="Vector_8" d="M92.5736 63.5195C92.6246 60.238 91.8945 56.9914 90.4436 54.0477C89.7789 52.736 88.8361 51.5851 87.6809 50.6752C86.5196 49.7811 85.0957 49.2954 83.6302 49.2935C83.4807 49.2935 83.3302 49.2984 83.1786 49.3082V49.3083C81.6954 49.4041 80.2749 49.9426 79.1009 50.8542C77.3645 52.2916 76.0757 54.1959 75.3867 56.3422C74.5907 58.6478 74.1918 61.0717 74.2069 63.5108C74.1362 66.6433 74.8606 69.7425 76.3124 72.5191C77.0029 73.7791 77.9749 74.8629 79.1527 75.6859C80.3813 76.5147 81.832 76.9523 83.314 76.9411C83.4478 76.9411 83.5834 76.9378 83.7207 76.9313C85.1876 76.8701 86.6055 76.3855 87.8029 75.5359C89.5208 74.2229 90.7977 72.4176 91.4634 70.3604C92.2217 68.1603 92.5972 65.8465 92.5736 63.5195ZM88.2884 71.0951C87.8071 72.0071 87.1274 72.7997 86.2996 73.4146C85.5069 73.9786 84.5666 74.2983 83.5945 74.3344C83.5003 74.3389 83.4068 74.3411 83.314 74.3411C82.3491 74.3535 81.4036 74.0701 80.6046 73.5291C79.2889 72.5356 78.313 71.1592 77.8109 69.5888C77.1246 67.6368 76.7849 65.5798 76.8069 63.5108C76.7569 60.7241 77.3746 57.9659 78.6084 55.4667C79.1119 54.4813 79.8178 53.6134 80.6799 52.9198C81.4457 52.3188 82.3758 51.9642 83.3472 51.9027L83.2632 50.6054L83.3478 51.9027C83.4435 51.8964 83.5377 51.8933 83.6303 51.8934C84.5323 51.8938 85.4082 52.1965 86.1182 52.753C87.446 53.8889 88.4207 55.3815 88.9267 57.054C89.6329 59.1359 89.9868 61.321 89.9737 63.5194C90.0416 66.1446 89.4629 68.7462 88.2884 71.0951Z"/><path id="Vector_9" d="M123.685 54.0477C123.02 52.736 122.077 51.5851 120.922 50.6752C119.761 49.7811 118.337 49.2954 116.871 49.2935C116.722 49.2935 116.571 49.2984 116.42 49.3082V49.3083C114.937 49.4041 113.516 49.9426 112.342 50.8542C110.606 52.2916 109.317 54.1959 108.628 56.3422C107.832 58.6478 107.433 61.0717 107.448 63.5108C107.377 66.6433 108.102 69.7425 109.554 72.5191C110.244 73.7791 111.216 74.8629 112.394 75.6859C113.622 76.5147 115.073 76.9523 116.555 76.9411C116.689 76.9411 116.825 76.9378 116.962 76.9313C118.429 76.8701 119.847 76.3855 121.044 75.5359C122.762 74.2229 124.039 72.4176 124.705 70.3604C125.463 68.1602 125.838 65.8464 125.815 63.5194C125.866 60.238 125.136 56.9914 123.685 54.0477ZM121.53 71.0951C121.048 72.0071 120.369 72.7997 119.541 73.4146C118.748 73.9786 117.808 74.2983 116.836 74.3344C116.741 74.3389 116.648 74.3411 116.555 74.3411C115.59 74.3535 114.645 74.0701 113.846 73.5291C112.53 72.5356 111.554 71.1592 111.052 69.5888C110.366 67.6368 110.026 65.5798 110.048 63.5108C109.998 60.7241 110.616 57.9659 111.85 55.4667C112.353 54.4813 113.059 53.6134 113.921 52.9198C114.687 52.3188 115.617 51.9642 116.588 51.9027L116.504 50.6054L116.589 51.9027C116.685 51.8964 116.779 51.8933 116.871 51.8934C117.773 51.8938 118.649 52.1965 119.359 52.753C120.687 53.8889 121.662 55.3815 122.168 57.054C122.874 59.1359 123.228 61.321 123.215 63.5194C123.283 66.1446 122.704 68.7462 121.53 71.0951Z"/><path id="Vector_10" d="M110.351 85.674C106.966 85.0603 103.53 84.7661 100.09 84.7953C96.892 84.7905 93.6969 84.9904 90.5244 85.3937C90.3544 85.418 90.1909 85.4757 90.0434 85.5635C89.8958 85.6513 89.7671 85.7675 89.6647 85.9053C89.5623 86.0431 89.4882 86.1999 89.4467 86.3665C89.4052 86.5331 89.3972 86.7063 89.423 86.876C89.7207 88.4442 90.349 89.931 91.2661 91.2374C92.1259 92.4798 93.2579 93.5096 94.5759 94.2483C96.3081 95.1785 98.2512 95.6454 100.217 95.6037C102.185 95.6401 104.131 95.1949 105.887 94.3067C107.767 93.3092 109.308 91.7766 110.316 89.9029C110.791 89.0601 111.148 88.1559 111.376 87.2158C111.411 87.0472 111.412 86.8733 111.38 86.7041C111.347 86.535 111.281 86.374 111.186 86.2305C111.09 86.0871 110.968 85.964 110.824 85.8685C110.681 85.7729 110.52 85.7068 110.351 85.674H110.351ZM104.575 92.0576C103.218 92.7133 101.724 93.0376 100.217 93.0037C98.6941 93.0456 97.1864 92.6918 95.8412 91.977C94.4571 91.1834 93.3546 89.9785 92.6868 88.5295C92.5618 88.2694 92.4603 88.0232 92.3735 87.7934C94.9373 87.5308 97.5128 87.398 100.09 87.3954C102.859 87.3857 105.625 87.5834 108.364 87.9868C108.048 88.7016 107.638 89.3714 107.146 89.979C106.447 90.8467 105.57 91.5553 104.575 92.0575L104.575 92.0576Z"/><path id="Vector_11" d="M85.9971 124.087C83.1208 123.224 77.6188 121.598 72.5455 120.098C67.4764 118.599 62.8218 117.221 61.6942 116.872C61.369 116.771 61.0265 116.738 60.6881 116.777C60.3498 116.815 60.0231 116.923 59.7285 117.093L59.6102 117.171L55.9119 119.883L55.9153 119.888C55.4327 120.201 55.0748 120.672 54.9034 121.221L54.902 121.226L53.047 127.353C52.9471 127.683 52.9824 128.039 53.145 128.343C53.3077 128.647 53.5845 128.874 53.9145 128.974C54.2445 129.074 54.6007 129.038 54.9046 128.876C55.2086 128.713 55.4355 128.436 55.5355 128.106L57.3755 122.028L57.4498 121.98L60.9974 119.377C62.2709 119.77 66.8208 121.116 71.8082 122.591C76.8808 124.092 82.3844 125.718 85.2498 126.577C85.4129 126.626 85.5558 126.727 85.6574 126.863C85.7591 127 85.814 127.166 85.8141 127.336L85.7788 127.57L81.3241 142.128C81.2639 142.363 81.1353 142.576 80.9543 142.738C80.8209 142.84 80.6555 142.89 80.488 142.881C80.3174 142.878 80.1483 142.849 79.986 142.797C75.191 141.329 64.6539 138.12 59.8139 136.638C59.4842 136.537 59.1279 136.571 58.8234 136.733C58.5189 136.895 58.2911 137.171 58.1901 137.5C58.0892 137.83 58.1234 138.186 58.2851 138.491C58.4469 138.795 58.723 139.023 59.0527 139.124V139.124C63.8963 140.607 74.4334 143.816 79.2255 145.283C79.6342 145.411 80.0597 145.478 80.4879 145.481C81.2402 145.489 81.9729 145.242 82.5657 144.778C83.1529 144.297 83.5826 143.651 83.7996 142.923L83.8053 142.905L88.2653 128.33C88.3963 127.902 88.4415 127.453 88.3983 127.008C88.355 126.563 88.2243 126.131 88.0135 125.737C87.8027 125.342 87.5161 124.994 87.17 124.711C86.824 124.427 86.4254 124.216 85.9971 124.087V124.087ZM57.389 121.984L57.3904 121.979L57.389 121.984Z"/><path id="Vector_12" d="M76.2448 139.295C76.9385 139.506 77.6877 139.433 78.3275 139.091C78.9674 138.75 79.4456 138.169 79.6572 137.475L81.5721 131.184C81.677 130.841 81.7132 130.48 81.6784 130.122C81.6437 129.764 81.5389 129.417 81.3698 129.1C81.2008 128.783 80.9709 128.503 80.6933 128.274C80.4157 128.046 80.0958 127.875 79.752 127.771L71.9064 125.381V125.381C71.5627 125.277 71.2018 125.241 70.8442 125.275C70.4865 125.31 70.1393 125.415 69.8222 125.584C69.5051 125.753 69.2245 125.983 68.9963 126.26C68.768 126.538 68.5967 126.857 68.4921 127.201L66.577 133.491C66.4721 133.835 66.436 134.196 66.4709 134.554C66.5058 134.912 66.6109 135.259 66.7802 135.576C66.9495 135.894 67.1797 136.174 67.4577 136.402C67.7356 136.63 68.0557 136.801 68.3998 136.905L76.2431 139.294L76.2448 139.295ZM77.04 136.813L76.999 136.807L77.0007 136.807L74.3441 135.998L74.9914 133.89L77.7806 134.712L77.1702 136.717L77.04 136.813ZM79.0912 130.387L79.0849 130.427L78.5377 132.224L75.7547 131.405L76.3538 129.454L78.9951 130.258L79.0912 130.387ZM69.153 134.417L69.058 134.289L69.0639 134.25L70.9794 127.959L71.1094 127.863L71.1484 127.868L71.5277 126.625L71.149 127.869L73.8666 128.696L71.8569 135.24L69.1555 134.418L69.153 134.417Z"/><path id="Vector_13" d="M149.877 121.532C149.541 120.363 148.788 119.357 147.76 118.707C146.67 118.083 145.444 117.732 144.188 117.687C142.532 117.562 139.735 117.33 136.858 117.13C133.976 116.93 131.024 116.76 128.984 116.759L128.905 116.76C127.906 116.744 126.913 116.914 125.977 117.262C124.802 117.713 123.814 118.549 123.177 119.635C122.63 120.609 122.283 121.682 122.158 122.792C122.108 123.174 122.053 123.861 121.981 124.888C121.734 128.45 121.336 135.788 121 142.934C120.664 150.085 120.388 157.004 120.388 159.798C120.388 160.246 120.394 160.585 120.412 160.855C120.475 162.527 121.112 164.126 122.216 165.382C123.318 166.529 124.787 167.254 126.367 167.431C127.792 167.628 130.539 167.857 133.455 168.043C136.368 168.228 139.411 168.367 141.382 168.368C141.505 168.368 141.624 168.367 141.739 168.366C142.688 168.371 143.631 168.218 144.53 167.913C145.718 167.511 146.739 166.723 147.43 165.675C148.072 164.641 148.436 163.46 148.487 162.244C148.504 161.95 148.418 161.658 148.245 161.419C148.072 161.18 147.821 161.009 147.536 160.933C147.704 160.733 147.806 160.486 147.827 160.225C147.837 160.055 147.814 159.884 147.758 159.723C147.702 159.562 147.615 159.413 147.502 159.285C147.388 159.158 147.251 159.053 147.097 158.979C146.944 158.904 146.777 158.861 146.606 158.851L123.025 157.455C123.127 153.438 123.422 146.552 123.744 139.999C123.944 135.938 124.153 131.996 124.333 128.925C124.398 127.812 124.459 126.819 124.514 125.971L147.505 127.574C147.441 129.111 147.358 131.051 147.265 133.171C147.257 133.341 147.283 133.512 147.342 133.672C147.4 133.832 147.489 133.98 147.605 134.106C147.72 134.232 147.859 134.334 148.014 134.406C148.168 134.478 148.336 134.519 148.506 134.526C148.677 134.534 148.847 134.508 149.008 134.449C149.168 134.391 149.315 134.302 149.441 134.186C149.567 134.071 149.669 133.932 149.741 133.777C149.814 133.623 149.855 133.455 149.862 133.285C149.961 131.038 150.049 128.978 150.114 127.399C150.18 125.815 150.221 124.74 150.226 124.385L150.228 124.178C150.244 123.283 150.126 122.391 149.877 121.532ZM146.142 161.428C146 161.616 145.914 161.84 145.892 162.074V162.074C145.865 162.614 145.754 163.146 145.562 163.651C145.331 164.273 144.897 164.8 144.331 165.146C143.531 165.586 142.627 165.801 141.715 165.766C141.61 165.767 141.498 165.768 141.382 165.768C139.524 165.768 136.495 165.632 133.62 165.449C130.749 165.266 127.992 165.033 126.724 164.856C125.739 164.762 124.818 164.322 124.124 163.615C123.422 162.793 123.027 161.752 123.006 160.671C122.998 160.56 122.991 160.343 122.989 160.057L146.142 161.428ZM147.627 124.348C147.625 124.447 147.619 124.663 147.608 124.975L124.708 123.378C124.718 123.276 124.728 123.193 124.735 123.143C124.809 122.156 125.179 121.215 125.797 120.442C126.109 120.105 126.495 119.845 126.925 119.683C127.562 119.453 128.235 119.344 128.912 119.36L128.984 119.359C130.888 119.359 133.824 119.525 136.677 119.724C138.368 119.841 140.027 119.969 141.451 120.081L141.344 121.263C141.327 121.434 141.344 121.606 141.395 121.77C141.445 121.934 141.527 122.086 141.636 122.218C141.745 122.35 141.88 122.459 142.031 122.539C142.183 122.619 142.349 122.669 142.52 122.684C142.69 122.7 142.863 122.681 143.026 122.63C143.19 122.579 143.342 122.496 143.473 122.386C143.604 122.275 143.713 122.14 143.792 121.988C143.871 121.836 143.919 121.67 143.933 121.499L144.043 120.286C144.637 120.321 145.223 120.435 145.787 120.625C146.355 120.801 146.837 121.184 147.137 121.699C147.51 122.469 147.679 123.323 147.628 124.178L147.627 124.348Z"/><path id="Vector_14" d="M159.522 143.76C159.529 143.214 159.478 142.668 159.37 142.132L159.369 142.128C159.059 141.021 158.529 139.988 157.811 139.09C156.678 137.601 155.402 136.227 154.001 134.987C153.445 134.482 152.863 134.005 152.259 133.559C152.03 133.39 151.791 133.234 151.544 133.092C151.427 133.025 151.306 132.965 151.181 132.914C151.006 132.84 150.82 132.794 150.63 132.779C150.496 132.77 150.367 132.769 150.199 132.768C149.334 132.769 147.539 132.84 145.845 132.943C145 132.995 144.187 133.055 143.532 133.12C143.204 133.153 142.916 133.186 142.669 133.224C142.545 133.243 142.432 133.263 142.317 133.289C142.173 133.318 142.032 133.364 141.898 133.423L141.896 133.424C141.629 133.548 141.401 133.743 141.234 133.986C141.07 134.233 140.958 134.512 140.908 134.804C140.866 135.033 140.846 135.266 140.848 135.498C140.855 136.049 140.927 136.596 141.061 137.13C141.121 137.376 141.198 137.617 141.293 137.852C141.343 137.975 141.401 138.095 141.468 138.209C141.564 138.374 141.685 138.522 141.828 138.648C141.929 138.735 142.041 138.809 142.161 138.866C142.288 138.926 142.419 138.975 142.554 139.011C143.069 139.139 143.592 139.236 144.118 139.301C145.429 139.487 147.123 139.659 148.01 139.744L149.215 141.462C149.414 141.742 149.716 141.932 150.054 141.99C150.392 142.049 150.74 141.971 151.021 141.773C151.302 141.576 151.494 141.276 151.554 140.938C151.615 140.6 151.539 140.252 151.344 139.969L149.793 137.759C149.685 137.605 149.543 137.476 149.38 137.381C149.216 137.286 149.034 137.228 148.846 137.211C148.845 137.211 148.497 137.18 147.965 137.127C147.166 137.049 145.956 136.923 144.929 136.788C144.417 136.721 143.948 136.651 143.62 136.589L143.607 136.586C143.584 136.504 143.562 136.416 143.543 136.322C143.504 136.131 143.478 135.937 143.464 135.743C144.251 135.652 145.561 135.559 146.829 135.491C148.214 135.416 149.58 135.368 150.199 135.368C150.234 135.368 150.259 135.369 150.288 135.369C150.375 135.42 150.515 135.508 150.679 135.625C152 136.624 153.225 137.744 154.338 138.97C154.951 139.629 155.516 140.331 156.027 141.072C156.655 141.823 156.975 142.783 156.922 143.76C156.878 145.209 156.659 146.647 156.27 148.043C156.265 148.058 156.256 148.071 156.252 148.086C155.888 149.492 155.395 150.861 154.78 152.176C154.369 153.138 153.784 154.017 153.054 154.766C152.649 155.102 152.184 155.357 151.683 155.519C151.147 155.703 150.587 155.81 150.02 155.837L150.004 155.838L149.744 155.846C149.48 155.847 149.216 155.82 148.957 155.766C148.79 155.729 148.617 155.724 148.449 155.754C148.28 155.783 148.118 155.846 147.974 155.938C147.829 156.03 147.705 156.15 147.606 156.29C147.508 156.431 147.439 156.589 147.402 156.757C147.366 156.924 147.363 157.097 147.393 157.265C147.423 157.434 147.487 157.595 147.58 157.739C147.672 157.883 147.793 158.007 147.934 158.105C148.075 158.202 148.234 158.27 148.401 158.306L148.401 158.306C148.842 158.4 149.293 158.447 149.744 158.446C149.874 158.446 150.006 158.441 150.138 158.434V158.434L150.143 158.434L150.155 158.433L150.155 158.432C150.964 158.393 151.764 158.24 152.53 157.977C153.348 157.707 154.106 157.282 154.763 156.726L154.765 156.724C155.767 155.746 156.568 154.582 157.126 153.298C157.805 151.849 158.35 150.341 158.753 148.792C158.759 148.773 158.771 148.756 158.776 148.737C159.228 147.115 159.479 145.444 159.522 143.76Z"/><path id="Vector_15" d="M147.745 150.85C147.574 150.842 147.404 150.868 147.243 150.926C147.083 150.984 146.935 151.073 146.809 151.188C146.683 151.303 146.581 151.442 146.509 151.597C146.436 151.751 146.395 151.919 146.387 152.089V152.089C146.183 156.572 146.018 160.158 145.892 162.073C145.87 162.417 145.985 162.756 146.212 163.016C146.44 163.275 146.761 163.433 147.105 163.455C147.449 163.478 147.788 163.363 148.047 163.135C148.306 162.908 148.464 162.587 148.487 162.243C148.615 160.275 148.78 156.695 148.984 152.208C148.992 152.037 148.966 151.867 148.908 151.706C148.85 151.546 148.761 151.398 148.646 151.272C148.531 151.146 148.392 151.044 148.237 150.971C148.083 150.899 147.915 150.857 147.745 150.85Z"/><path id="Vector_16" d="M141.575 47.5536C138.084 43.564 133.124 40.3375 126.356 38.1285C119.584 35.9172 110.994 34.7028 100.127 34.7019C90.4676 34.7025 82.6083 35.6627 76.2242 37.4285C66.6554 40.0677 60.3719 44.5769 56.5686 50.3157C52.7621 56.0508 51.4621 62.8885 51.4622 70.0987C51.3749 74.7563 52.0905 79.3942 53.5776 83.809C54.7195 87.0557 56.4704 90.0548 58.7362 92.6453C62.2406 96.6335 67.2092 99.859 73.9721 102.068C80.7383 104.279 89.3071 105.493 100.127 105.494C109.746 105.494 117.584 104.533 123.96 102.768C133.517 100.128 139.816 95.621 143.64 89.8841C147.467 84.1507 148.793 77.3117 148.793 70.0987C148.881 65.444 148.174 60.8084 146.702 56.3917C145.572 53.1458 143.831 50.146 141.575 47.5536ZM144.23 82.9318C143.199 85.87 141.616 88.5842 139.566 90.9285C136.408 94.5179 131.892 97.496 125.475 99.5965C119.061 101.695 110.754 102.895 100.127 102.894C90.6822 102.895 83.0683 101.947 76.9889 100.262C67.8626 97.7256 62.2218 93.5865 58.7769 88.44C55.3352 83.29 54.0624 77.0089 54.0622 70.0986C53.9745 65.7404 54.6308 61.3992 56.0028 57.2617C57.023 54.3253 58.5958 51.6113 60.6364 49.2663C63.7801 45.678 68.2842 42.7006 74.7066 40.6C81.1253 38.5017 89.4535 37.301 100.127 37.302C109.615 37.3014 117.25 38.2494 123.337 39.9344C132.475 42.4713 138.096 46.609 141.52 51.7541C144.942 56.9026 146.193 63.1854 146.193 70.0987C146.279 74.4573 145.615 78.7984 144.23 82.9318H144.23Z"/><path id="Vector_17" d="M132.222 88.5304L132.221 88.5304C131.996 88.7396 131.765 88.9456 131.53 89.1485C130.423 90.0932 129.236 90.9412 127.984 91.6829C127.71 91.8465 127.43 92.0077 127.143 92.1665C126.993 92.2493 126.862 92.3606 126.755 92.4942C126.649 92.6278 126.57 92.781 126.523 92.9451C126.476 93.1092 126.462 93.281 126.481 93.4506C126.5 93.6203 126.553 93.7844 126.636 93.9338C126.718 94.0831 126.83 94.2147 126.963 94.321C127.097 94.4273 127.25 94.5062 127.414 94.5533C127.578 94.6004 127.75 94.6147 127.92 94.5954C128.089 94.5761 128.253 94.5236 128.403 94.4408C128.712 94.2696 129.016 94.0946 129.316 93.9158C130.696 93.098 132.003 92.1632 133.223 91.1217C133.486 90.8954 133.742 90.667 133.99 90.4363C134.239 90.201 134.386 89.8767 134.397 89.534C134.408 89.1913 134.284 88.858 134.051 88.6067C133.817 88.3554 133.494 88.2063 133.152 88.192C132.809 88.1778 132.475 88.2994 132.222 88.5305L132.222 88.5304Z"/><path id="Vector_18" d="M84.4974 41.5763C79.877 42.311 75.3935 43.7369 71.1976 45.8063C70.8912 45.9642 70.66 46.2375 70.5549 46.5659C70.4499 46.8943 70.4797 47.251 70.6376 47.5575C70.7956 47.8639 71.0688 48.0951 71.3972 48.2001C71.7256 48.3052 72.0823 48.2754 72.3888 48.1175V48.1174C76.3524 46.1683 80.5867 44.8264 84.9495 44.1366C85.2866 44.0741 85.5854 43.881 85.7809 43.5993C85.9763 43.3175 86.0525 42.97 85.9929 42.6323C85.9332 42.2946 85.7426 41.9942 85.4625 41.7964C85.1824 41.5986 84.8355 41.5195 84.4974 41.5763V41.5763Z"/><path id="Vector_19" d="M65.0371 50.0238C64.0724 50.8982 63.1793 51.8484 62.3663 52.8654C62.2597 52.9988 62.1805 53.1519 62.1331 53.3159C62.0857 53.4799 62.0711 53.6516 62.0901 53.8213C62.1091 53.991 62.1613 54.1552 62.2437 54.3047C62.3262 54.4542 62.4373 54.586 62.5707 54.6925C62.7041 54.7991 62.8572 54.8783 63.0212 54.9257C63.1852 54.9731 63.3569 54.9877 63.5266 54.9687C63.6962 54.9497 63.8605 54.8975 64.01 54.8151C64.1595 54.7326 64.2912 54.6215 64.3978 54.4881V54.488C65.1244 53.5793 65.9225 52.7302 66.7846 51.9488C67.0361 51.7161 67.1855 51.3936 67.2004 51.0513C67.2153 50.7089 67.0945 50.3746 66.8642 50.1209C66.6339 49.8672 66.3128 49.7147 65.9706 49.6965C65.6285 49.6784 65.293 49.796 65.0371 50.0238L65.0371 50.0238Z"/><path id="Vector_20" d="M151.383 159.29C152.174 159.615 153.018 159.792 153.873 159.812C154.029 159.813 154.186 159.805 154.342 159.789L154.35 159.788C156.087 159.598 157.686 158.751 158.821 157.422C159.957 156.094 160.58 154.402 160.575 152.654C160.575 152.385 160.561 152.115 160.532 151.847C160.417 151.015 160.154 150.21 159.754 149.471C159.41 148.802 158.999 148.169 158.527 147.584C158.413 147.445 158.273 147.331 158.113 147.25C157.954 147.168 157.78 147.12 157.601 147.109C157.422 147.098 157.243 147.123 157.075 147.185C156.907 147.246 156.753 147.341 156.623 147.465L156.613 147.475C156.438 147.641 156.313 147.853 156.252 148.086C155.888 149.492 155.396 150.861 154.78 152.176C154.369 153.138 153.784 154.016 153.054 154.767C152.649 155.102 152.184 155.357 151.684 155.519C151.147 155.703 150.587 155.81 150.02 155.837C149.749 155.849 149.488 155.946 149.275 156.114C149.062 156.283 148.906 156.513 148.831 156.774C148.755 157.035 148.763 157.313 148.854 157.569C148.944 157.825 149.113 158.046 149.335 158.202C149.973 158.643 150.661 159.008 151.383 159.29ZM154.766 156.724C155.767 155.746 156.568 154.582 157.126 153.298C157.38 152.766 157.613 152.201 157.835 151.623C157.888 151.786 157.925 151.954 157.947 152.124C157.966 152.3 157.975 152.477 157.975 152.654C157.98 153.78 157.581 154.87 156.85 155.726C156.162 156.533 155.198 157.054 154.147 157.188C154.362 157.047 154.568 156.893 154.763 156.726L154.766 156.724Z"/><path id="Vector_21" d="M61.8125 149.174L61.8115 149.176V149.177L61.8125 149.174Z"/><path id="Vector_22" d="M59.741 139.661C59.8997 139.442 60.0312 139.205 60.1326 138.955C60.3187 138.48 60.4128 137.975 60.41 137.466C60.4163 137.046 60.348 136.629 60.2082 136.233C60.1293 136.031 60.0125 135.846 59.8638 135.687C59.6821 135.496 59.4798 135.326 59.2607 135.179C59.0313 135.02 58.7663 134.861 58.4867 134.7C58.6882 134.421 58.8496 134.115 58.9664 133.791C59.1512 133.264 59.245 132.71 59.2439 132.151C59.2476 131.738 59.1895 131.326 59.0715 130.93C58.9407 130.468 58.677 130.055 58.3133 129.741C57.008 128.737 55.5949 127.881 54.1002 127.189C53.4425 126.85 52.7141 126.671 51.9743 126.668C50.9022 126.666 49.8679 127.064 49.0741 127.784C48.7659 128.073 48.499 128.402 48.2809 128.763C48.1762 128.863 48.0893 128.98 48.0239 129.11C48.0111 129.138 47.7103 129.778 47.4027 130.67C47.1213 131.46 46.9241 132.278 46.8143 133.11C45.6933 133.458 44.7154 134.161 44.0277 135.112C43.54 135.827 43.2131 136.64 43.0696 137.494C41.6257 138.569 40.3685 139.875 39.3484 141.359C38.2303 142.953 37.5192 144.797 37.2774 146.73C37.2306 147.168 37.2071 147.609 37.2071 148.05C37.1989 150.927 38.2232 153.712 40.094 155.898C41.9501 158.074 44.5678 159.459 47.4113 159.768C47.8148 159.811 48.2202 159.832 48.626 159.832C51.7096 159.776 54.6943 158.735 57.1433 156.86C58.3754 155.939 59.4329 154.804 60.2661 153.511C61.1084 152.204 61.6378 150.72 61.8128 149.176C62.1683 145.863 61.4414 142.525 59.7409 139.661L59.741 139.661ZM51.9743 129.268C52.3047 129.271 52.6296 129.353 52.9223 129.507C53.7196 129.912 54.3489 130.247 54.8762 130.55C54.9067 130.588 54.9396 130.625 54.9745 130.659C55.0999 130.749 55.2405 130.815 55.3894 130.855C55.8048 131.106 56.2036 131.385 56.5833 131.688C56.6271 131.838 56.6475 131.994 56.6439 132.151C56.6481 132.476 56.5786 132.798 56.4408 133.093L56.4194 133.126C55.8544 132.938 55.2024 132.796 54.4674 132.634C53.3239 132.417 52.198 132.115 51.0991 131.732C50.7605 131.613 50.4427 131.441 50.1574 131.224L50.095 131.161C50.168 130.611 50.4227 130.101 50.8187 129.712C51.1341 129.423 51.5468 129.265 51.9743 129.268ZM47.9318 135.474C48.0127 135.462 48.1568 135.441 48.3629 135.412C48.8385 135.346 49.5947 135.247 50.3819 135.165C51.1663 135.083 51.9919 135.02 52.5531 135.021C52.7147 135.021 52.8529 135.026 52.9497 135.034L53.0577 135.047L53.0748 135.05C53.23 135.093 53.6867 135.265 54.2051 135.489C54.9994 135.829 56.0024 136.302 56.7934 136.73C57.1876 136.942 57.5319 137.146 57.7485 137.295C57.7696 137.309 57.7826 137.32 57.8011 137.333C57.8066 137.377 57.8096 137.421 57.8101 137.466C57.8168 137.691 57.764 137.914 57.6571 138.112L57.4973 138.282C57.3902 138.35 57.2699 138.396 57.144 138.415C57.1313 138.418 57.1222 138.427 57.1097 138.429C56.5554 138.15 55.9841 137.907 55.3989 137.7C54.952 137.542 54.497 137.407 54.0359 137.297C53.6624 137.2 53.2795 137.145 52.8939 137.133L52.7982 137.135V137.135L52.789 137.135L52.775 137.136L52.7751 137.137C52.6021 137.146 52.4604 137.166 52.2787 137.193C51.6381 137.29 50.6232 137.493 49.7392 137.676C48.8596 137.858 48.1291 138.017 48.1263 138.018C47.7895 138.091 47.4955 138.296 47.3093 138.586C47.123 138.876 47.0596 139.228 47.133 139.565C47.2065 139.902 47.4107 140.196 47.7009 140.382C47.991 140.568 48.3433 140.632 48.6802 140.558C48.6822 140.558 49.623 140.353 50.6437 140.145C51.1536 140.04 51.6828 139.936 52.1148 139.857C52.3304 139.818 52.5221 139.785 52.6684 139.763L52.8469 139.739L52.8967 139.733L52.8995 139.733L52.9355 139.735C53.1673 139.765 53.3968 139.81 53.6221 139.872C54.7136 140.155 55.756 140.601 56.7139 141.195C56.7376 141.254 56.7565 141.315 56.7704 141.376C56.8073 141.532 56.8261 141.691 56.8265 141.851C56.826 141.927 56.8189 142.004 56.8055 142.08C56.1215 142.063 55.4393 142.004 54.7626 141.903C54.4362 141.857 54.1504 141.812 53.9482 141.778C53.8471 141.761 53.7669 141.746 53.7128 141.737L53.634 141.722C53.3988 141.678 53.1559 141.699 52.9322 141.785L49.0743 143.251C48.9147 143.311 48.7687 143.403 48.6444 143.52C48.5202 143.637 48.4202 143.777 48.3503 143.933C48.2803 144.089 48.2417 144.257 48.2366 144.427C48.2316 144.598 48.2602 144.768 48.3208 144.928C48.3815 145.087 48.473 145.233 48.5901 145.358C48.7072 145.482 48.8476 145.582 49.0033 145.652C49.159 145.722 49.327 145.76 49.4976 145.765C49.6683 145.77 49.8383 145.742 49.9978 145.681H49.9978L53.5216 144.342C53.743 144.38 54.0497 144.429 54.4041 144.478C54.5807 144.502 54.7685 144.527 54.9631 144.55C54.8512 144.863 54.7185 145.168 54.5658 145.463C53.9962 146.581 53.1455 147.531 52.0972 148.22C51.3403 148.746 50.4473 149.042 49.526 149.072C48.89 149.085 48.2683 148.882 47.7626 148.496C47.1922 148.024 46.7916 147.379 46.622 146.658C45.9904 144.235 45.6266 141.75 45.5372 139.248C45.5306 139.129 45.5274 139.014 45.5274 138.901C45.4941 138.091 45.7124 137.291 46.1524 136.61C46.581 136.021 47.2165 135.615 47.9318 135.474ZM59.2281 148.895L59.2278 148.898C59.0953 150.047 58.6988 151.15 58.0695 152.12C57.0386 153.68 55.6271 154.953 53.9681 155.817C52.3287 156.715 50.4952 157.201 48.626 157.232C48.3129 157.232 48.0001 157.216 47.6887 157.183C45.5018 156.944 43.4892 155.878 42.0644 154.201C40.5998 152.487 39.7989 150.304 39.8072 148.05C39.8072 147.7 39.8258 147.352 39.8629 147.004C40.0607 145.495 40.6234 144.057 41.5023 142.815C41.9596 142.144 42.4776 141.515 43.0499 140.939C43.1121 141.718 43.1872 142.498 43.2942 143.285C43.1832 143.4 43.0948 143.535 43.0334 143.683V143.683C42.7868 144.303 42.6266 144.954 42.5575 145.617C42.5286 145.885 42.5142 146.154 42.5141 146.424C42.5095 148.172 43.1322 149.864 44.2689 151.192C45.4036 152.521 47.0027 153.367 48.7399 153.558L48.7429 153.558C48.9828 153.584 49.2239 153.597 49.4652 153.597C51.1483 153.57 52.7674 152.947 54.0355 151.84C55.3036 150.733 56.1387 149.213 56.3927 147.549C56.3958 147.531 56.3886 147.513 56.3908 147.495C56.5888 147.187 56.7701 146.869 56.9338 146.542C57.2492 145.92 57.4945 145.265 57.665 144.588C57.8896 144.533 58.1035 144.442 58.2986 144.318C58.4779 144.196 58.6383 144.049 58.7744 143.88C59.1217 145.069 59.2989 146.301 59.3009 147.539C59.3011 147.992 59.2768 148.445 59.2281 148.895H59.2281Z"/><path id="Vector_23" d="M141.827 138.647L141.829 138.649L141.828 138.648L141.827 138.647Z"/><path id="Vector_24" d="M140.82 141.328L140.821 141.324L140.819 141.33L140.82 141.328Z"/><path id="Vector_25" d="M152.518 144.63C152.516 144.63 151.922 144.593 151.014 144.523C149.654 144.419 147.596 144.242 145.866 144.02C145.003 143.91 144.218 143.787 143.677 143.666C143.54 143.636 143.419 143.605 143.32 143.577C143.305 143.521 143.289 143.47 143.278 143.404C143.243 143.201 143.224 142.997 143.221 142.791C143.943 142.643 145.116 142.47 146.205 142.335C146.81 142.26 147.394 142.195 147.873 142.148C148.349 142.102 148.739 142.073 148.881 142.07L148.931 142.07C149.615 142.102 150.296 142.176 150.97 142.293C151.341 142.351 151.681 142.409 151.927 142.452C152.172 142.496 152.318 142.524 152.319 142.524C152.656 142.586 153.004 142.511 153.287 142.318C153.57 142.124 153.765 141.826 153.829 141.489C153.894 141.152 153.822 140.803 153.631 140.519C153.439 140.234 153.143 140.037 152.806 139.97C152.797 139.968 152.16 139.847 151.37 139.724C150.564 139.584 149.749 139.499 148.931 139.469L148.816 139.471C148.458 139.481 147.91 139.53 147.21 139.603C146.169 139.713 144.852 139.878 143.755 140.054C143.204 140.143 142.713 140.233 142.31 140.33C142.116 140.374 141.925 140.43 141.737 140.499C141.62 140.542 141.507 140.596 141.4 140.661C141.309 140.715 141.225 140.78 141.148 140.852C141.006 140.986 140.894 141.148 140.82 141.328C140.735 141.546 140.68 141.776 140.656 142.009C140.629 142.238 140.616 142.469 140.617 142.7C140.617 143.093 140.651 143.486 140.72 143.873C140.794 144.317 140.941 144.745 141.155 145.141C141.257 145.319 141.392 145.474 141.554 145.599C141.722 145.728 141.909 145.832 142.107 145.907C141.869 146.179 141.698 146.503 141.607 146.852C141.527 147.158 141.488 147.473 141.491 147.789C141.494 148.431 141.621 149.066 141.865 149.659C141.991 149.971 142.162 150.263 142.373 150.525C142.628 150.847 142.968 151.093 143.354 151.235C143.601 151.316 143.854 151.377 144.111 151.42C145.07 151.596 146.606 151.763 148.112 151.896C149.614 152.027 151.023 152.119 151.773 152.121V152.121L151.797 152.121C152.14 152.121 152.47 151.985 152.714 151.743C152.957 151.5 153.095 151.171 153.096 150.828C153.097 150.484 152.963 150.154 152.721 149.909C152.48 149.665 152.151 149.526 151.807 149.523V149.521L151.783 149.521C151.473 149.522 150.855 149.494 150.128 149.445C149.034 149.372 147.664 149.254 146.494 149.124C145.909 149.059 145.373 148.991 144.955 148.926C144.747 148.894 144.567 148.862 144.433 148.834L144.342 148.814C144.281 148.707 144.233 148.594 144.198 148.475C144.13 148.253 144.094 148.022 144.091 147.789L144.091 147.786C144.143 147.78 144.195 147.773 144.252 147.766C145.328 147.638 147.416 147.499 149.2 147.397C150.095 147.346 150.919 147.303 151.52 147.273C152.12 147.243 152.494 147.227 152.495 147.226C152.827 147.211 153.141 147.069 153.371 146.83C153.602 146.591 153.733 146.272 153.736 145.939C153.738 145.607 153.614 145.286 153.387 145.042C153.161 144.799 152.85 144.651 152.518 144.63L152.518 144.63Z"/></g></svg>