<svg xmlns="http://www.w3.org/2000/svg" width="200" height="200" fill="none"><g fill="#BEBEC9"><path d="m147.358 84.418-15.119.122c.527-5.184.794-10.364.794-15.353 0-1.402-.019-2.788-.058-4.154a1.298 1.298 0 0 0-1.303-1.264l-7.86.02a247.134 247.134 0 0 0-.802-8.024 53.23 53.23 0 0 1 5.585 1.714c3.879 1.44 6.715 3.077 8.353 4.355a1.3 1.3 0 0 0 1.597-2.052c-1.92-1.49-4.949-3.215-9.044-4.74a56.24 56.24 0 0 0-6.833-2.04c-.124-.963-.25-1.907-.38-2.83 7.245.307 14.365 2.01 19.114 4.295a1.3 1.3 0 0 0 1.124-2.344c-5.297-2.532-12.87-4.3-20.621-4.566-.1-.656-.201-1.3-.303-1.932a117.01 117.01 0 0 1 4.245-.087c4.999 0 9.315.317 12.374.634 1.53.158 2.746.316 3.576.434a57.279 57.279 0 0 1 1.186.181l.076.013a1.3 1.3 0 0 0 .448-2.56c-.051-.01-7.443-1.302-17.66-1.302-1.499 0-3.071.037-4.677.101-2.078-12.02-4.311-19.086-4.326-19.132a1.301 1.301 0 0 0-1.878-.74c-.888.505-1.938 1.296-3.087 2.226-2.794 2.27-6.074 5.358-7.191 6.421-.652-.015-1.456-.021-2.36-.021-3.936 0-9.682.117-11.484.157-5.441-5.74-9.79-8.567-9.855-8.61a1.304 1.304 0 0 0-1.123-.14c-.374.127-.674.421-.807.793-1.821 5.095-3.249 12.2-4.296 19.243-2.3-.203-5.013-.36-7.906-.361-3.838 0-7.984.276-11.888 1.11a1.3 1.3 0 1 0 .543 2.543c3.65-.782 7.633-1.054 11.345-1.053 2.741 0 5.326.148 7.535.34-.093.687-.183 1.371-.269 2.05-5.39.236-13.04.925-20.4 2.855a1.3 1.3 0 1 0 .661 2.516c6.891-1.814 14.175-2.505 19.425-2.755-.1.88-.192 1.744-.278 2.59-.34.044-.685.09-1.042.14-4.625.655-10.627 1.922-16.202 4.435a1.3 1.3 0 1 0 1.07 2.37c5.232-2.363 11.026-3.601 15.496-4.231.147-.021.28-.036.425-.056-.283 3.223-.447 6.051-.487 8.187l-11.623.03a1.3 1.3 0 0 0-1.297 1.264 153.258 153.258 0 0 0-.056 4.17c.001 5.088.263 10.078.758 14.914l-15.623.124a1.296 1.296 0 0 0-1.289 1.348c.008.09.3 8.219 3.99 16.981 1.846 4.38 4.552 8.927 8.541 12.666 3.951 3.707 9.184 6.591 15.944 7.669 2.544 4.168 5.462 7.695 8.761 10.389 3.507 2.868 7.466 4.778 11.775 5.507-.166 5.372-1.083 11.416-2.211 16.684a109.008 109.008 0 0 1-1.817 7.309c-.595 2.063-1.17 3.745-1.626 4.816-1.902.386-3.76.877-5.539 1.488-4.954 1.705-9.327 4.306-12.349 7.963a1.3 1.3 0 0 0 .998 2.127l53.6.176c.468.002.898-.246 1.131-.653a1.295 1.295 0 0 0-.007-1.307c-2.18-3.678-6.17-6.338-10.998-8.126-2.405-.887-5.03-1.556-7.776-2.007a1.283 1.283 0 0 0-.096-.417c-.416-.92-.953-2.458-1.507-4.39-1.647-5.725-3.505-14.971-4.023-23.624 5.328-.823 9.951-3.32 13.822-6.987 2.677-2.536 5.013-5.619 7.049-9.101 6.7-1.349 11.829-4.35 15.665-8.088 5.817-5.67 8.707-12.944 10.175-18.777 1.465-5.838 1.504-10.266 1.506-10.335a1.304 1.304 0 0 0-1.311-1.311Zm-8.382 7.609c-.025 2.045-.363 6.415-2.384 10.917-1.061 2.368-2.579 4.773-4.757 6.931-1.684 1.667-3.768 3.188-6.359 4.436 1.252-3.158 2.332-6.5 3.254-9.959 1.06-3.984 1.899-8.128 2.554-12.325h7.692ZM75.918 55.416a69.867 69.867 0 0 1 2.414-.2 53.6 53.6 0 0 1 1.965-.091l.13-.003a1.3 1.3 0 0 0-.026-2.6c-.029.001-1.653.02-4.226.258.082-.785.17-1.584.263-2.395 1.06-.027 1.991-.038 2.734-.037a77.574 77.574 0 0 1 1.98.025l.134.004a1.3 1.3 0 0 0 .1-2.597c-.014-.001-.82-.032-2.214-.032-.672 0-1.494.01-2.416.03.072-.566.147-1.136.225-1.706l.014.001a84.374 84.374 0 0 1 3.956.544l.216.038.068.012a1.3 1.3 0 0 0 .466-2.558c-.023-.004-1.693-.308-4.353-.613.918-6.153 2.146-12.34 3.61-16.985 1.706 1.28 4.822 3.814 8.39 7.638.254.271.61.42.981.412.004 0 1.831-.042 4.248-.084 2.417-.042 5.42-.084 7.751-.084 1.164 0 2.164.01 2.813.036.357.014.697-.116.954-.363l.318-.304c.719-.686 2.569-2.433 4.557-4.184a78.448 78.448 0 0 1 2.953-2.492c.326-.26.635-.495.932-.716.752 2.69 2.256 8.528 3.7 16.806-1.532.098-3.086.219-4.673.392a1.3 1.3 0 1 0 .282 2.585c1.639-.18 3.246-.303 4.826-.4.095.582.188 1.175.281 1.777a52.687 52.687 0 0 0-3.099.12 1.3 1.3 0 1 0 .183 2.593 51.091 51.091 0 0 1 3.3-.12c.108.76.215 1.531.319 2.32a67.58 67.58 0 0 0-5.823-.836 1.3 1.3 0 1 0-.256 2.588c2.288.225 4.428.556 6.422.958.331 2.733.631 5.62.887 8.642l-45.812.114c.04-2.16.22-5.118.526-8.493Zm-8.107 59.119a20.545 20.545 0 0 1-7.165-5.141c-3.393-3.763-5.168-8.414-6.07-12.135a35.694 35.694 0 0 1-.807-4.628c-.02-.177-.03-.32-.044-.472h7.886c1.343 8.204 3.43 15.783 6.2 22.376Zm-9.841-1.019c-5.471-5.117-8.433-12.083-9.99-17.792a53.942 53.942 0 0 1-1.447-7.192 44.901 44.901 0 0 1-.173-1.525l14.5-.115c.11.893.22 1.785.346 2.666H52.34a1.302 1.302 0 0 0-1.3 1.317c.005.09.068 5.289 2.325 11.267 1.13 2.988 2.816 6.177 5.349 8.992 2.53 2.814 5.92 5.242 10.364 6.664.067.021.134.012.201.022.038.078.072.16.11.237.34.7.692 1.38 1.05 2.052-5.22-1.209-9.267-3.598-12.469-6.593Zm63.152 63.417-47.911-.157c2.446-2.138 5.576-3.828 9.113-5.042 4.63-1.593 9.93-2.374 15.154-2.373 5.54-.001 10.997.878 15.476 2.533 3.436 1.264 6.261 2.989 8.168 5.039Zm-20.875-20.615a103.196 103.196 0 0 0 1.729 7.041c.421 1.462.827 2.705 1.213 3.71a54.477 54.477 0 0 0-5.711-.308c-2.501 0-5.016.178-7.484.523.365-1.021.75-2.215 1.148-3.592 1.825-6.334 3.831-16 4.123-24.434.445.024.886.06 1.338.06.33 0 .662-.007.997-.02l-.052-1.299.053 1.299c.089-.003.176-.012.265-.016.36 5.862 1.296 11.906 2.381 17.036Zm12.241-26.178c-4.195 3.953-9.105 6.314-14.993 6.56-.298.012-.595.018-.892.018-5.217-.005-9.882-1.857-14.062-5.261-6.261-5.099-11.336-13.76-14.796-24.595-3.465-10.831-5.331-23.81-5.33-37.482 0-.941.02-1.89.038-2.838l67.941-.17c.018.934.039 1.865.039 2.815.005 15.026-2.323 31.855-7.67 44.906-2.669 6.526-6.088 12.095-10.275 16.047Zm22.35-16.841c-3.041 2.859-6.892 5.206-11.844 6.565.346-.687.68-1.389 1.006-2.099 4.07-1.51 7.238-3.636 9.665-6.044 3.657-3.623 5.633-7.852 6.695-11.54 1.061-3.692 1.218-6.86 1.219-8.453 0-.677-.029-1.07-.031-1.1a1.303 1.303 0 0 0-1.297-1.201h-8.594c.104-.762.215-1.522.306-2.285l14.041-.113c-.183 2.608-.89 8.725-3.566 15.03-1.668 3.938-4.093 7.939-7.6 11.24Z"/><path d="M89.523 44.11a1.3 1.3 0 0 0-2.4-.347c-.015.026-.207.367-.41.84-.101.239-.206.51-.292.807a3.652 3.652 0 0 0-.16 1.004c.004.345.059.812.422 1.268.178.222.432.407.693.51.263.108.524.144.762.144l.088-.001.025-.001c.37-.009.777-.204 1.003-.443.349-.365.423-.686.483-.938.053-.257.064-.48.065-.7a9.085 9.085 0 0 0-.141-1.434c-.068-.403-.134-.692-.138-.71ZM107.183 43.504a1.297 1.297 0 0 0-1.422-.401 1.297 1.297 0 0 0-.879 1.187c0 .011-.005.154-.005.375 0 .329.009.828.063 1.346.027.26.065.525.129.796.069.272.143.547.36.883a1.3 1.3 0 0 0 1.733.404c.095-.058.344-.21.605-.539.261-.322.518-.864.514-1.51 0-.404-.095-.829-.278-1.25a5.461 5.461 0 0 0-.82-1.29ZM102.26 48.84a1.412 1.412 0 0 1-.464.087.978.978 0 0 1-.472-.121c-.225-.116-.457-.344-.613-.554a2.707 2.707 0 0 1-.174-.26l-.036-.065-.004-.009-.002.001a1.298 1.298 0 0 0-2.379.096h-.001l-.004.01c-.028.072-.215.46-.497.756a1.7 1.7 0 0 1-.46.357 1.2 1.2 0 0 1-.56.132 1.62 1.62 0 0 1-.28-.025 1.3 1.3 0 1 0-.434 2.565c.242.04.48.06.713.06.72.002 1.37-.2 1.885-.493.382-.217.694-.473.95-.733.199.163.42.322.679.46a3.593 3.593 0 0 0 1.689.423c.43 0 .875-.078 1.318-.233a1.3 1.3 0 0 0-.854-2.455ZM109.849 92.734c-1.529-.208-3.855-.371-5.832-.488-1.137-.067-2.14-.117-2.797-.148l-3.42-7.202a1.301 1.301 0 0 0-2.349.001l-3.755 7.926c-4.602.609-7.898 1.517-7.938 1.527-.435.12-.78.462-.904.897-.124.434-.011.907.295 1.239.241.26.72.736 1.345 1.352a707.538 707.538 0 0 0 4.446 4.323c-.314 3.127-.623 8.112-.623 8.123-.03.467.198.918.592 1.173.394.254.899.275 1.313.056.185-.098.41-.23.699-.403 1.558-.936 4.816-3.027 6.147-3.884l7.793 3.47a1.3 1.3 0 0 0 1.799-1.466l-1.706-7.798 5.701-6.558a1.3 1.3 0 0 0-.806-2.14Zm-7.286 7.485c-.27.312-.377.728-.288 1.131l1.296 5.924-6.087-2.71a1.3 1.3 0 0 0-1.235.096 568.273 568.273 0 0 1-4.514 2.885l-.658.413.053-.738c.129-1.795.3-3.965.462-5.41.044-.402-.1-.8-.39-1.08l-.856-.826a867.652 867.652 0 0 1-3.678-3.574 68.227 68.227 0 0 1 6.055-1.018c.444-.054.826-.33 1.018-.734l2.886-6.09 2.58 5.432c.207.434.64.721 1.121.741a213.224 213.224 0 0 1 5.044.275c.566.038 1.128.08 1.675.126l-4.484 5.157ZM38.703 71.79a3.493 3.493 0 0 1-.119-.961c0-.27.022-.519.044-.693l.03-.198.008-.044v-.002a1.298 1.298 0 0 0-2.276-1.088l-.002-.002-.12.122c-.121.11-.327.271-.585.394-.26.124-.565.215-.94.215-.161 0-.335-.016-.528-.058a1.298 1.298 0 0 0-1.455 1.815c.212.451.298 1.035.296 1.573a6.28 6.28 0 0 1-.14 1.3l-.017.069-.003.011h.001a1.302 1.302 0 0 0 .651 1.49 1.303 1.303 0 0 0 1.598-.315c.065-.083.268-.236.575-.36.456-.191 1.099-.316 1.604-.371.253-.03.474-.044.626-.051l.174-.006h.046a1.299 1.299 0 0 0 .843-2.29c-.115-.097-.228-.269-.311-.55Zm-3.066.57c-.007-.101-.019-.204-.03-.308.17-.032.326-.079.482-.125.017.104.039.21.064.318-.169.033-.34.07-.516.115ZM11.544 101.429l-.022-.046a6.642 6.642 0 0 1-.547-2.61l.006-.254a1.297 1.297 0 0 0-1.932-1.195h-.001c-.083.05-1.39.72-2.87.85a1.303 1.303 0 0 0-1.052.735c-.196.412-.161.9.091 1.28.065.093.153.298.208.559.057.261.086.572.086.865 0 .256-.022.5-.052.678l-.045.202-.012.037.004.002a1.296 1.296 0 0 0 1.768 1.73l.002-.001c.02-.01.431-.225 1.047-.446.618-.224 1.442-.449 2.246-.5a1.3 1.3 0 0 0 1.074-1.885v-.001Zm-3.456-.299a6.587 6.587 0 0 0-.079-.652c.177-.046.346-.094.506-.144.04.229.085.443.135.643-.198.047-.38.1-.562.153ZM60.83 147.57a4.072 4.072 0 0 1-.095-.932c0-.265.019-.508.037-.677l.025-.195.007-.044v-.008a1.3 1.3 0 0 0-2.037-1.281c-.58.408-1.265.674-2.364.681l-.152-.002a1.303 1.303 0 0 0-1.26 1.693 7.044 7.044 0 0 1 .286 2.785l-.021.165-.006.032v.002h.001a1.298 1.298 0 0 0 2.01 1.319 4.808 4.808 0 0 1 2.63-.834l.101.002h.001a1.3 1.3 0 0 0 1.072-2.184c-.065-.065-.169-.246-.234-.522Zm-2.577.305c-.126.03-.259.07-.392.109-.012-.136-.023-.269-.043-.414.126-.024.249-.053.37-.083.015.126.041.257.065.388ZM143.227 132.955v-.002a2.397 2.397 0 0 1-.623-.116 1.522 1.522 0 0 1-.394-.192.763.763 0 0 1-.236-.253 1.298 1.298 0 0 0-1.632-.557 1.297 1.297 0 0 0-.75 1.551l.03.209c0 .14-.043.27-.11.376l-.101.124-.039.032-.012.008c-.566.27-.859.911-.693 1.516a1.3 1.3 0 0 0 1.343.949v.004h.015c.069-.002.296.016.475.095.185.087.313.165.45.442a1.3 1.3 0 0 0 2.47-.399 4.36 4.36 0 0 1 .181-.763c.059-.177.136-.35.21-.471a.661.661 0 0 1 .153-.192c.462-.326.661-.916.491-1.455a1.3 1.3 0 0 0-1.228-.906ZM197.372 108.675l-.026-.041a4.622 4.622 0 0 1-.37-.745c-.142-.359-.25-.792-.248-1.178a1.888 1.888 0 0 1 .046-.434 1.303 1.303 0 0 0-.486-1.335 1.302 1.302 0 0 0-1.413-.094l-.001-.001s-.066.038-.19.095c-.371.178-1.245.504-2.051.497-.147 0-.298-.01-.449-.032a1.301 1.301 0 0 0-1.327 1.902c.29.527.452 1.31.447 1.9.005.353-.067.645-.086.672a1.3 1.3 0 0 0 1.976 1.551l.001.002c.013-.009.287-.207.735-.393a4.684 4.684 0 0 1 1.788-.362c.15 0 .296.007.442.023a1.3 1.3 0 0 0 1.211-2.027h.001Zm-3.531-.337c-.017-.136-.043-.272-.068-.409.169-.03.33-.063.485-.101.029.136.059.267.095.393a7.024 7.024 0 0 0-.512.117ZM181.218 70.384l-.065-.132a4.496 4.496 0 0 1-.365-1.823c0-.256.019-.532.067-.826a1.3 1.3 0 0 0-2.085-1.227l-.001-.002a3.962 3.962 0 0 1-2.22.694l-.196-.003a1.303 1.303 0 0 0-1.125.593c-.245.38-.276.861-.08 1.269.17.34.302.969.296 1.506.012.47-.117.884-.147.902a1.3 1.3 0 0 0 1.901 1.707l.044-.03c.109-.077.413-.275.808-.442.395-.169.873-.3 1.326-.298.159 0 .31.014.456.044a1.298 1.298 0 0 0 1.384-1.931l.002-.001Zm-3.203-.532c-.009-.117-.027-.233-.043-.35.101-.023.195-.047.29-.073.016.122.031.247.052.36-.101.02-.203.039-.299.063ZM37.902 36.956l.001.001.002.001-.003-.002Z"/><path d="M33.234 42.88c.718.565 1.58.848 2.43.847a3.733 3.733 0 0 0 2.944-1.413l.001-.002a3.708 3.708 0 0 0 .793-2.298c0-1.15-.525-2.29-1.498-3.057a3.911 3.911 0 0 0-2.43-.85 3.732 3.732 0 0 0-2.944 1.414 3.697 3.697 0 0 0-.794 2.3c0 1.15.525 2.291 1.498 3.059Zm1.102-3.06c.002-.255.077-.487.235-.687a1.13 1.13 0 0 1 .902-.425c.282 0 .567.09.819.289l.002.002c.342.268.507.651.508 1.015a1.103 1.103 0 0 1-.236.69 1.13 1.13 0 0 1-.902.423c-.28 0-.567-.09-.82-.29l-.805 1.022.805-1.022a1.3 1.3 0 0 1-.508-1.017ZM9.5 72.79l.002-.002.001-.002-.003.004ZM12.703 72.437l.002.002-.002-.002Z"/><path d="M12.704 72.44a2.314 2.314 0 0 0-1.437-.503 2.244 2.244 0 0 0-1.765.85 2.227 2.227 0 0 0-.48 1.386c0 .687.313 1.361.884 1.812l.002.002c.418.328.927.498 1.433.497a2.246 2.246 0 0 0 1.766-.85l.004-.005c.318-.405.477-.902.475-1.38a2.31 2.31 0 0 0-.882-1.81Zm-1.188 1.503-.175.222v-.004l.173-.22.002.002Zm-.45.08.19.15h-.004l.015.012v.002l-.204-.16.003-.004ZM33.99 105.03l.003-.002.003-.003-.006.005ZM37.19 105.396v.001l.002.001-.002-.002Z"/><path d="M35.417 104.535c-.502 0-1.007.167-1.424.493a2.304 2.304 0 0 0-.895 1.818c-.002.475.154.971.472 1.376l.002.003a2.25 2.25 0 0 0 1.772.857 2.317 2.317 0 0 0 1.425-.491l.003-.002a2.314 2.314 0 0 0 .891-1.817 2.232 2.232 0 0 0-.472-1.375 2.243 2.243 0 0 0-1.774-.862Zm.203 2.088-.191.149h-.005l.194-.151.002.002Zm-.276.144-.176-.225.002-.002.174.222v-.28.285ZM25.415 131.213a3.97 3.97 0 0 0-2.438.844v.001h-.001a3.94 3.94 0 0 0-1.529 3.102 3.74 3.74 0 0 0 .79 2.306 3.77 3.77 0 0 0 2.986 1.443 3.958 3.958 0 0 0 2.44-.844 3.945 3.945 0 0 0 1.529-3.103 3.733 3.733 0 0 0-.79-2.305 3.771 3.771 0 0 0-2.987-1.444Zm.647 4.802a1.357 1.357 0 0 1-.839.294 1.167 1.167 0 0 1-.936-.442 1.136 1.136 0 0 1-.24-.707c0-.379.174-.777.527-1.051l-.798-1.026.8 1.025c.26-.203.554-.294.84-.295.38.003.711.155.936.443.163.209.238.446.24.706 0 .378-.174.776-.53 1.053ZM133.023 151.874a3.963 3.963 0 0 0-2.52.899l.003-.002a3.981 3.981 0 0 0-1.451 3.096c-.001.935.32 1.885.959 2.664l1.005-.824-1.004.825a4.18 4.18 0 0 0 3.226 1.54 3.962 3.962 0 0 0 2.518-.895l.003-.003a3.994 3.994 0 0 0 1.447-3.095c0-.935-.32-1.885-.961-2.664a4.177 4.177 0 0 0-3.225-1.541Zm1.088 5.292a1.359 1.359 0 0 1-.87.306 1.582 1.582 0 0 1-1.217-.59 1.597 1.597 0 0 1-.369-1.015c.002-.433.173-.817.497-1.084l.002-.001c.254-.208.55-.306.869-.308.437.001.891.194 1.215.59.254.309.37.667.371 1.015a1.396 1.396 0 0 1-.498 1.087ZM167.971 125.108l.002-.001.002-.002-.004.003Z"/><path d="M169.466 124.573a2.35 2.35 0 0 0-2.353 2.363c0 .547.188 1.099.557 1.55l.002.003c.476.577 1.17.892 1.879.892a2.346 2.346 0 0 0 1.491-.53l.007-.005a2.365 2.365 0 0 0 .854-1.827 2.439 2.439 0 0 0-.557-1.55 2.436 2.436 0 0 0-1.88-.896Zm.085 2.363v-.155.155Zm-.154-.098.08.098-.011-.013v.012l-.076-.091.007-.006Zm.069.181v.155-.155Zm.09-.083.122-.101.003.003-.12.098h.152-.157ZM175.163 98.612a2.333 2.333 0 0 0-1.485.53 2.348 2.348 0 0 0-.856 1.822 2.434 2.434 0 0 0 .554 1.543l.003.002a2.425 2.425 0 0 0 1.869.888 2.345 2.345 0 0 0 1.487-.53l.004-.003a2.357 2.357 0 0 0 .85-1.818 2.434 2.434 0 0 0-.554-1.543 2.426 2.426 0 0 0-1.872-.891Zm.223 2.245-.13.107h-.004l.132-.11.002.003Zm-.138.107v-.167.167Zm-.163-.106.078.095v.007l-.082-.099.004-.003Z"/><path d="m173.676 99.144.002-.001.002-.003-.004.004ZM148.071 62.34c-.582 0-1.176.13-1.728.398-1.44.7-2.255 2.158-2.251 3.651 0 .624.14 1.26.429 1.855l1.169-.568-1.169.568c.719 1.475 2.181 2.365 3.725 2.366.58 0 1.175-.128 1.729-.397 1.44-.703 2.255-2.16 2.251-3.653 0-.623-.139-1.258-.428-1.853-.719-1.477-2.183-2.367-3.727-2.367Zm.767 5.534a1.35 1.35 0 0 1-.592.136c-.537 0-1.105-.32-1.387-.902a1.64 1.64 0 0 1-.167-.719c0-.285.077-.56.213-.785a1.35 1.35 0 0 1 1.166-.664c.539 0 1.105.319 1.388.904.115.236.167.479.167.716-.004.575-.3 1.077-.788 1.314ZM158.77 40.209v-.001l-.008-.002-.008-.004-.001.001a2.362 2.362 0 0 0-2.112.275 2.292 2.292 0 0 0-1.002 1.89 2.36 2.36 0 0 0 1.599 2.218l.007.002c.25.086.513.13.778.13.476 0 .937-.142 1.327-.408.39-.263.711-.661.877-1.142l.001-.006c.083-.24.125-.494.125-.743a2.355 2.355 0 0 0-1.583-2.21Zm-.689 1.918.007.002-.066.188.001-.2v.18l.058-.17Zm-.311.188.157.054h-.016l-.142-.049.001-.005Zm.211.125.126.185-.126-.185Z"/><path d="m155.764 41.622.002-.004.001-.003-.003.007Z"/></g></svg>