<svg xmlns="http://www.w3.org/2000/svg" width="200" height="200" fill="none"><g fill="#191C22"><path d="m147.358 84.418-15.119.122c.528-5.185.794-10.366.795-15.356 0-1.4-.02-2.785-.059-4.152a1.298 1.298 0 0 0-1.302-1.263l-7.861.02a247.141 247.141 0 0 0-.802-8.024 53.181 53.181 0 0 1 5.585 1.714c3.88 1.44 6.716 3.078 8.354 4.355a1.3 1.3 0 0 0 1.597-2.052c-1.92-1.491-4.95-3.215-9.044-4.74a56.348 56.348 0 0 0-6.833-2.04 240.68 240.68 0 0 0-.381-2.83c7.245.307 14.365 2.01 19.115 4.295a1.3 1.3 0 0 0 1.124-2.344c-5.297-2.532-12.871-4.3-20.622-4.566-.1-.657-.201-1.3-.303-1.932a117.01 117.01 0 0 1 4.245-.087c4.999 0 9.315.317 12.375.634 1.529.158 2.745.316 3.575.434a57.279 57.279 0 0 1 1.187.181l.075.013a1.3 1.3 0 0 0 .448-2.56c-.051-.01-7.443-1.302-17.66-1.302-1.498 0-3.071.037-4.677.101-2.078-12.02-4.311-19.086-4.326-19.132a1.303 1.303 0 0 0-.763-.817 1.304 1.304 0 0 0-1.116.078c-.887.504-1.936 1.294-3.085 2.225-2.795 2.27-6.074 5.358-7.192 6.421-.652-.016-1.456-.021-2.36-.021-3.936 0-9.681.117-11.483.156-5.442-5.74-9.791-8.566-9.856-8.61a1.304 1.304 0 0 0-1.123-.139c-.374.127-.674.421-.807.793-1.821 5.095-3.249 12.2-4.296 19.243-2.3-.203-5.012-.36-7.905-.361-3.839 0-7.984.276-11.89 1.11a1.3 1.3 0 1 0 .544 2.542c3.65-.78 7.634-1.053 11.346-1.052 2.74 0 5.325.148 7.535.339-.094.688-.184 1.372-.27 2.05-5.39.237-13.04.926-20.399 2.856a1.3 1.3 0 1 0 .66 2.515c6.892-1.813 14.175-2.504 19.426-2.754-.1.88-.193 1.744-.279 2.59-.34.043-.685.09-1.042.14-4.625.655-10.627 1.921-16.202 4.435a1.3 1.3 0 1 0 1.07 2.37c5.232-2.363 11.027-3.601 15.496-4.231.148-.021.281-.036.426-.056-.283 3.223-.447 6.05-.487 8.187l-11.624.029a1.3 1.3 0 0 0-1.296 1.265 154.065 154.065 0 0 0-.056 4.17c0 5.088.262 10.078.758 14.913l-15.624.125a1.296 1.296 0 0 0-1.289 1.348c.008.09.3 8.219 3.99 16.981 1.847 4.38 4.552 8.927 8.542 12.666 3.95 3.708 9.183 6.591 15.944 7.67 2.544 4.167 5.461 7.693 8.761 10.388 3.507 2.868 7.466 4.778 11.774 5.507-.166 5.372-1.083 11.416-2.21 16.684a109.073 109.073 0 0 1-1.818 7.309c-.594 2.064-1.17 3.745-1.625 4.816-1.902.385-3.76.877-5.54 1.488-4.953 1.705-9.326 4.306-12.348 7.963-.32.387-.387.926-.174 1.38.213.454.671.745 1.173.747l53.598.176c.469.002.899-.246 1.132-.653a1.297 1.297 0 0 0-.007-1.307c-2.18-3.679-6.17-6.338-10.998-8.126-2.406-.887-5.031-1.557-7.778-2.007a1.262 1.262 0 0 0-.095-.417c-.416-.92-.952-2.458-1.507-4.39-1.647-5.725-3.504-14.971-4.022-23.624 5.328-.824 9.951-3.321 13.822-6.988 2.677-2.535 5.012-5.619 7.049-9.1 6.7-1.349 11.828-4.35 15.664-8.089 5.817-5.669 8.707-12.943 10.175-18.776 1.465-5.838 1.504-10.266 1.506-10.335a1.301 1.301 0 0 0-1.311-1.311Zm-8.382 7.608c-.025 2.045-.363 6.416-2.384 10.918-1.061 2.369-2.578 4.773-4.756 6.931-1.684 1.667-3.769 3.189-6.36 4.437 1.252-3.16 2.332-6.502 3.255-9.962 1.059-3.983 1.899-8.126 2.554-12.323h7.691Zm-63.057-36.61a70.077 70.077 0 0 1 2.413-.2 53.597 53.597 0 0 1 1.965-.091l.13-.003a1.3 1.3 0 0 0-.026-2.6c-.029.001-1.653.02-4.225.257.081-.784.169-1.583.263-2.395 1.06-.026 1.99-.037 2.734-.036a78.318 78.318 0 0 1 2.114.029 1.3 1.3 0 0 0 .1-2.598 61.33 61.33 0 0 0-2.215-.031c-.671 0-1.494.009-2.416.029.072-.566.148-1.135.225-1.706l.015.002a84.374 84.374 0 0 1 3.956.544c.095.016.168.03.216.037l.068.013a1.3 1.3 0 0 0 .465-2.558c-.023-.004-1.692-.308-4.353-.613.918-6.153 2.146-12.34 3.61-16.986 1.707 1.282 4.822 3.814 8.39 7.638.254.272.61.421.981.413.004 0 1.831-.042 4.248-.084 2.417-.042 5.42-.084 7.751-.084 1.164 0 2.164.01 2.813.036.357.014.697-.116.954-.364l.318-.303c.719-.686 2.569-2.433 4.557-4.184a79.35 79.35 0 0 1 2.953-2.492c.327-.26.636-.496.932-.716.752 2.69 2.257 8.528 3.7 16.806-1.531.097-3.085.219-4.673.392a1.3 1.3 0 1 0 .283 2.585c1.638-.18 3.245-.303 4.825-.4.095.582.188 1.175.281 1.777a52.62 52.62 0 0 0-3.098.12 1.3 1.3 0 1 0 .183 2.593 50.988 50.988 0 0 1 3.299-.12c.108.76.215 1.53.32 2.319a67.7 67.7 0 0 0-5.824-.836 1.3 1.3 0 1 0-.255 2.588 64.78 64.78 0 0 1 6.422.959c.33 2.733.63 5.62.886 8.642l-45.811.114c.04-2.16.22-5.118.526-8.493Zm-8.107 59.119a20.52 20.52 0 0 1-7.165-5.141c-3.393-3.763-5.168-8.414-6.07-12.136a35.696 35.696 0 0 1-.808-4.627c-.018-.177-.03-.32-.043-.473h7.885c1.344 8.205 3.43 15.783 6.201 22.377Zm-9.842-1.019c-5.47-5.117-8.433-12.083-9.99-17.792a53.939 53.939 0 0 1-1.447-7.192 44.588 44.588 0 0 1-.173-1.526l14.5-.114c.11.893.222 1.785.347 2.666h-8.866a1.302 1.302 0 0 0-1.3 1.317c.005.09.068 5.289 2.325 11.267 1.13 2.988 2.816 6.177 5.348 8.991 2.53 2.814 5.92 5.243 10.364 6.664.067.022.134.013.202.023.037.078.072.16.11.237.34.699.692 1.38 1.049 2.051-5.22-1.208-9.267-3.598-12.469-6.592Zm63.153 63.417-47.911-.158c2.446-2.137 5.576-3.827 9.113-5.041 4.63-1.593 9.93-2.374 15.153-2.373 5.541-.002 10.998.878 15.476 2.533 3.437 1.264 6.262 2.988 8.169 5.039Zm-20.876-20.615a102.966 102.966 0 0 0 1.73 7.04c.421 1.462.826 2.706 1.212 3.711a54.464 54.464 0 0 0-5.71-.308c-2.501 0-5.016.178-7.485.523a60.66 60.66 0 0 0 1.149-3.593c1.824-6.334 3.83-15.999 4.122-24.434.445.025.887.061 1.338.06.33 0 .662-.006.997-.019.09-.003.177-.012.266-.017.36 5.863 1.297 11.907 2.381 17.037Zm12.242-26.178c-4.195 3.953-9.105 6.314-14.994 6.56-.298.012-.595.017-.892.017-5.216-.005-9.882-1.857-14.061-5.26-6.262-5.099-11.336-13.76-14.796-24.596-3.465-10.83-5.332-23.81-5.33-37.481 0-.941.02-1.89.038-2.838l67.94-.17c.018.933.04 1.863.04 2.812.004 15.026-2.323 31.857-7.67 44.907-2.669 6.527-6.088 12.096-10.275 16.049Zm22.349-16.841c-3.041 2.859-6.892 5.205-11.844 6.564.346-.686.68-1.387 1.006-2.098 4.071-1.51 7.238-3.636 9.666-6.044 3.656-3.623 5.633-7.851 6.694-11.54 1.061-3.692 1.218-6.86 1.219-8.453 0-.678-.029-1.071-.031-1.1a1.303 1.303 0 0 0-1.297-1.202h-8.594c.104-.76.215-1.521.306-2.284l14.041-.113c-.183 2.608-.89 8.725-3.566 15.03-1.668 3.938-4.093 7.939-7.6 11.24Z"/><path d="M89.525 44.11a1.3 1.3 0 0 0-2.4-.347c-.015.026-.207.367-.41.84-.101.239-.206.51-.292.807a3.652 3.652 0 0 0-.16 1.004c.004.345.059.812.422 1.269.179.22.432.405.694.51.262.106.523.143.762.143l.087-.002h.03c.37-.01.774-.206 1-.445.347-.364.421-.685.482-.936a3.43 3.43 0 0 0 .064-.7 9.071 9.071 0 0 0-.141-1.434 13.356 13.356 0 0 0-.138-.71ZM107.182 43.504a1.297 1.297 0 0 0-1.422-.401 1.297 1.297 0 0 0-.878 1.188 13.303 13.303 0 0 0 .058 1.717c.027.26.065.526.129.797.069.273.143.548.36.884a1.3 1.3 0 0 0 1.733.404 2.19 2.19 0 0 0 .606-.538c.26-.322.518-.864.513-1.51 0-.404-.094-.83-.278-1.25a5.462 5.462 0 0 0-.821-1.291ZM102.26 48.839a1.41 1.41 0 0 1-.464.088.978.978 0 0 1-.472-.121c-.225-.116-.458-.345-.613-.554a2.65 2.65 0 0 1-.174-.26l-.036-.066-.004-.008-.002.001a1.298 1.298 0 0 0-2.38.097c-.01.03-.189.426-.475.736-.141.156-.303.29-.47.378-.17.087-.34.139-.577.14a1.63 1.63 0 0 1-.278-.025 1.3 1.3 0 1 0-.434 2.565c.241.04.48.06.712.06.72.002 1.37-.2 1.885-.493.382-.217.694-.473.95-.734.199.164.42.322.679.46a3.594 3.594 0 0 0 1.689.424c.43 0 .876-.079 1.318-.233a1.3 1.3 0 0 0-.854-2.455ZM109.849 92.734c-1.528-.209-3.855-.372-5.832-.488a236.183 236.183 0 0 0-2.796-.148L97.8 84.896a1.302 1.302 0 0 0-2.35.001l-3.755 7.926c-4.6.609-7.897 1.517-7.936 1.527-.436.12-.78.462-.905.897-.124.434-.011.906.295 1.238.241.26.719.736 1.344 1.353a708.797 708.797 0 0 0 4.447 4.323c-.314 3.126-.623 8.112-.624 8.123-.029.467.2.918.593 1.173.394.254.898.275 1.313.056.184-.098.41-.23.698-.403 1.559-.937 4.817-3.027 6.148-3.884l7.794 3.469c.447.199.97.13 1.35-.179.379-.309.553-.808.448-1.286l-1.705-7.798 5.7-6.558a1.3 1.3 0 0 0-.806-2.14Zm-7.285 7.485a1.295 1.295 0 0 0-.289 1.131l1.296 5.924-6.087-2.71a1.3 1.3 0 0 0-1.235.096 568.273 568.273 0 0 1-4.514 2.885l-.658.413.052-.738c.13-1.795.301-3.965.462-5.411.044-.401-.1-.8-.39-1.079l-.856-.826a892.5 892.5 0 0 1-3.677-3.574 68.26 68.26 0 0 1 6.055-1.018c.444-.055.826-.33 1.017-.734l2.887-6.091 2.58 5.433c.207.434.64.721 1.122.741a212.458 212.458 0 0 1 5.043.275c.566.038 1.129.08 1.675.126l-4.483 5.157ZM38.703 71.79a3.506 3.506 0 0 1-.119-.963c0-.27.023-.518.045-.692l.029-.197.008-.045v-.002a1.297 1.297 0 0 0-2.276-1.087l-.002-.002-.12.121c-.121.112-.326.272-.585.395-.26.124-.565.215-.94.215-.16 0-.335-.016-.528-.058a1.298 1.298 0 0 0-1.454 1.816c.211.45.298 1.033.296 1.57a6.27 6.27 0 0 1-.142 1.302l-.016.068-.002.012a1.303 1.303 0 0 0 .65 1.489 1.304 1.304 0 0 0 1.599-.313c.065-.084.268-.237.575-.36.456-.192 1.1-.317 1.605-.372a9.15 9.15 0 0 1 .626-.051l.173-.007h.047a1.298 1.298 0 0 0 .843-2.29c-.115-.096-.228-.269-.312-.55Zm-3.066.57c-.006-.101-.018-.204-.03-.309.171-.031.327-.078.482-.124.018.104.04.21.064.318-.169.033-.34.07-.516.114ZM11.544 101.429l-.021-.047a6.643 6.643 0 0 1-.548-2.609l.006-.257a1.296 1.296 0 0 0-.616-1.163 1.295 1.295 0 0 0-1.317-.03v.001c-.083.05-1.39.72-2.87.85a1.304 1.304 0 0 0-1.052.735c-.196.412-.161.902.092 1.281.064.092.153.298.208.559.057.26.086.571.086.864 0 .256-.022.5-.052.678l-.045.202-.012.037.004.001a1.297 1.297 0 0 0 1.768 1.731l.002-.001c.032-.026 1.682-.853 3.293-.946a1.3 1.3 0 0 0 1.074-1.885v-.001Zm-3.534-.951c.177-.046.345-.095.505-.144.04.229.086.443.135.643-.197.047-.38.1-.561.153a6.517 6.517 0 0 0-.079-.652ZM60.831 147.57a4.08 4.08 0 0 1-.096-.933c0-.264.019-.507.037-.677l.025-.194.007-.045v-.007a1.3 1.3 0 0 0-2.038-1.281c-.578.407-1.264.674-2.363.68l-.152-.001a1.304 1.304 0 0 0-1.064.523c-.25.335-.323.772-.197 1.17a7.04 7.04 0 0 1 .322 2.109c0 .289-.018.523-.035.675l-.022.166-.005.031v.003a1.297 1.297 0 0 0 2.011 1.319 4.81 4.81 0 0 1 2.63-.834l.101.002h.001a1.3 1.3 0 0 0 1.072-2.185c-.065-.064-.169-.245-.234-.521Zm-2.578.305a6.36 6.36 0 0 0-.392.109c-.012-.136-.023-.269-.043-.414.126-.024.249-.053.37-.084.015.126.042.258.065.389ZM143.228 132.955v-.002a2.395 2.395 0 0 1-.624-.116 1.522 1.522 0 0 1-.394-.192.763.763 0 0 1-.236-.253 1.297 1.297 0 0 0-1.631-.557 1.297 1.297 0 0 0-.751 1.551l.03.209a.71.71 0 0 1-.109.376l-.102.124-.038.032-.012.007c-.567.27-.86.912-.694 1.517a1.3 1.3 0 0 0 1.343.949v.004h.016c.068-.002.295.016.474.095.185.087.313.165.45.442a1.301 1.301 0 0 0 2.47-.4v.001c.005-.042.059-.407.181-.763.06-.177.136-.35.21-.472a.685.685 0 0 1 .153-.191 1.3 1.3 0 0 0-.736-2.361ZM197.372 108.675l-.026-.041a4.622 4.622 0 0 1-.37-.745c-.142-.36-.25-.792-.248-1.178 0-.153.015-.299.047-.435a1.3 1.3 0 0 0-1.9-1.428l-.001-.001s-.066.037-.19.095c-.371.178-1.245.504-2.051.497-.147 0-.298-.011-.449-.032a1.301 1.301 0 0 0-1.327 1.903c.291.526.452 1.309.447 1.899.005.353-.067.644-.086.673a1.298 1.298 0 0 0 1.977 1.55l.001.002c.012-.01.286-.207.734-.393a4.684 4.684 0 0 1 1.788-.362c.15 0 .296.007.442.023a1.3 1.3 0 0 0 1.211-2.027h.001Zm-3.53-.338c-.017-.135-.043-.271-.069-.408.169-.03.33-.063.485-.101.029.136.059.267.095.393a7.43 7.43 0 0 0-.511.116ZM181.219 70.383l-.065-.131a4.474 4.474 0 0 1-.365-1.822c0-.256.019-.532.066-.826a1.3 1.3 0 0 0-2.084-1.228l-.001-.002a3.957 3.957 0 0 1-2.22.694l-.196-.003a1.301 1.301 0 0 0-1.205 1.862c.17.34.301.968.296 1.507.011.47-.118.885-.147.9a1.3 1.3 0 0 0 1.9 1.708h.001l.044-.03c.108-.077.413-.275.807-.442.395-.169.873-.3 1.327-.298.158 0 .309.014.455.044a1.298 1.298 0 0 0 1.385-1.932h.002Zm-3.203-.531c-.01-.117-.027-.233-.043-.35.1-.023.195-.047.289-.073.017.122.031.246.052.36-.101.02-.202.039-.298.063ZM33.235 42.88c.717.565 1.58.848 2.43.847a3.733 3.733 0 0 0 2.943-1.413l.001-.002a3.707 3.707 0 0 0 .793-2.297c0-1.15-.525-2.29-1.496-3.057a3.918 3.918 0 0 0-2.432-.85 3.732 3.732 0 0 0-2.943 1.412 3.698 3.698 0 0 0-.795 2.3c0 1.15.525 2.292 1.498 3.059Zm1.336-3.748.001-.001c.218-.275.537-.42.902-.423.281 0 .567.09.819.289l.001.001c.342.27.507.653.508 1.017a1.099 1.099 0 0 1-.236.69 1.13 1.13 0 0 1-.902.422c-.28 0-.567-.09-.82-.29a1.303 1.303 0 0 1-.508-1.017c.002-.255.077-.487.235-.688Z"/><path d="M32.531 37.521h.001v-.001.001ZM37.904 36.957h.002v.001l-.002-.001ZM9.502 72.789l.002-.002.002-.003-.004.005ZM12.703 72.437l.002.002.002.001-.004-.003Z"/><path d="M12.706 72.439a2.312 2.312 0 0 0-1.436-.502 2.246 2.246 0 0 0-1.766.85c-.325.409-.482.908-.48 1.385-.001.688.312 1.361.882 1.812l.005.003c.418.328.925.498 1.432.497a2.245 2.245 0 0 0 1.766-.851l.002-.002c.32-.406.479-.904.477-1.382a2.31 2.31 0 0 0-.882-1.81Zm-1.188 1.505-.175.221v-.006l.17-.219.005.004Zm-.45.08.19.148h-.004l-.188-.147.002-.002Zm.275.148h.28-.28ZM35.417 104.535c-.502 0-1.008.167-1.424.493a2.305 2.305 0 0 0-.895 1.819c-.002.474.153.968.47 1.374l.004.005a2.25 2.25 0 0 0 1.772.856 2.316 2.316 0 0 0 1.425-.491l.004-.003c.571-.449.89-1.125.89-1.817a2.234 2.234 0 0 0-2.246-2.236Zm.203 2.09-.203.158v-.003l.012-.009h-.006l.193-.152.004.006Zm-.276.136v.008l-.177-.226.004-.003.173.221Zm.073.086v-.001l.28.001h-.28Z"/><path d="m33.99 105.029.002-.001.002-.002-.004.003ZM22.977 132.058l.001-.001-.001.001ZM28.402 132.657a3.77 3.77 0 0 0-2.987-1.444c-.85 0-1.716.281-2.437.844a3.938 3.938 0 0 0-1.53 3.103 3.74 3.74 0 0 0 .789 2.306v.001a3.772 3.772 0 0 0 2.986 1.442 3.96 3.96 0 0 0 2.439-.844l.001-.001a3.946 3.946 0 0 0 1.529-3.102 3.739 3.739 0 0 0-.79-2.306v.001Zm-2.34 3.358a1.36 1.36 0 0 1-.84.294 1.169 1.169 0 0 1-.935-.442 1.137 1.137 0 0 1-.24-.707c0-.38.175-.777.527-1.051l.002-.001a1.36 1.36 0 0 1 .84-.295c.38.003.71.155.935.442l.001.001c.162.208.238.446.24.706-.001.378-.174.774-.53 1.053ZM133.023 151.874a3.958 3.958 0 0 0-2.519.899 3.983 3.983 0 0 0-1.449 3.094c-.001.936.32 1.886.96 2.665l1.005-.825-1.005.825a4.183 4.183 0 0 0 3.226 1.54 3.962 3.962 0 0 0 2.518-.896l.002-.002a3.99 3.99 0 0 0 1.448-3.094 4.193 4.193 0 0 0-.96-2.664 4.18 4.18 0 0 0-3.226-1.542Zm1.086 5.293a1.36 1.36 0 0 1-.868.305 1.583 1.583 0 0 1-1.216-.59 1.6 1.6 0 0 1-.37-1.015 1.38 1.38 0 0 1 .498-1.084l.002-.002c.253-.207.549-.305.868-.307a1.58 1.58 0 0 1 1.216.59l.001.002c.252.308.369.664.369 1.014a1.39 1.39 0 0 1-.5 1.087Z"/><path d="M136.248 153.415v.001h.001l-.001-.001ZM130.504 152.773h.001l.001-.002-.002.002ZM167.973 125.108l.003-.002.001-.002-.004.004Z"/><path d="M169.466 124.573a2.356 2.356 0 0 0-2.353 2.363c0 .547.188 1.1.558 1.55l.002.003a2.436 2.436 0 0 0 1.878.892 2.35 2.35 0 0 0 1.491-.53l.005-.004c.568-.467.86-1.157.857-1.828a2.44 2.44 0 0 0-.558-1.55 2.436 2.436 0 0 0-1.88-.896Zm.215 2.265-.12.098h-.004l.122-.101.002.003Zm-.13.098v-.155.155Zm-.154-.098.08.098h-.001l-.01-.013v.008l-.074-.089.005-.004ZM177.035 99.503l.001.001-.001-.001ZM173.676 99.144l.002-.001.002-.003-.004.004Z"/><path d="M175.164 98.612a2.338 2.338 0 0 0-2.342 2.351c0 .544.187 1.095.555 1.543l.002.003a2.429 2.429 0 0 0 1.87.888 2.343 2.343 0 0 0 1.486-.53l.004-.003a2.353 2.353 0 0 0 .851-1.818 2.427 2.427 0 0 0-.555-1.543 2.422 2.422 0 0 0-1.871-.891Zm.085 2.351v-.166.166Zm-.163-.106.078.095v.008l-.082-.1.004-.003Zm.166.106.132-.109.003.003-.129.106h.164-.17ZM148.072 62.34a3.95 3.95 0 0 0-1.729.398c-1.44.7-2.255 2.158-2.251 3.651 0 .623.14 1.26.429 1.855l1.169-.568-1.169.569c.72 1.474 2.182 2.364 3.725 2.364.581.001 1.175-.127 1.729-.396l.002-.001c1.438-.703 2.253-2.16 2.249-3.652a4.215 4.215 0 0 0-.429-1.853c-.718-1.477-2.182-2.366-3.725-2.367Zm.767 5.534a1.353 1.353 0 0 1-.593.135c-.537.001-1.105-.32-1.387-.902a1.634 1.634 0 0 1-.167-.718c0-.285.077-.559.213-.785a1.356 1.356 0 0 1 1.167-.664c.538-.001 1.105.318 1.387.903.115.238.167.48.167.717-.003.575-.299 1.077-.787 1.314ZM158.769 40.21l.001-.002-.009-.003c-.003 0-.005-.002-.008-.003l-.001.001a2.36 2.36 0 0 0-2.111.275 2.293 2.293 0 0 0-1.002 1.891c.002.998.64 1.884 1.598 2.217l.007.002c.251.085.513.13.778.13.477 0 .938-.142 1.328-.408.39-.264.71-.662.876-1.143l.002-.007c.083-.24.124-.493.124-.742a2.353 2.353 0 0 0-1.583-2.209Zm-.681 1.919-.066.189v-.02l.059-.171.007.002Zm-.076.217-.126-.185.126.185Zm-.243-.03.155.053h-.018l-.139-.047.002-.006Zm.212.124.126.185-.126-.185Zm.047-.07-.001-.001h.212-.211Z"/><path d="m155.766 41.623.001-.004.002-.004-.003.008Z"/></g></svg>