<svg xmlns="http://www.w3.org/2000/svg" width="200" height="200" fill="none"><path fill="#BEBEC9" d="M154.125 132.996a1.31 1.31 0 0 0-.994-.027 1.299 1.299 0 0 0-.723.684 38.992 38.992 0 0 1-14.87 17.117c-6.798 4.359-15.461 7.293-25.975 8.47a66.872 66.872 0 0 1-7.525.428c-2.747 0-5.386-.169-8.186-.431a72 72 0 0 1-10.409-1.717c-.697-.171-2.087 3.493-1.787 4.145a57.95 57.95 0 0 0 3.606 6.531c2.236 3.556 4.903 7.203 7.02 9.939a17.655 17.655 0 0 0-7.697 4.136 12.52 12.52 0 0 0-4.052 8.94c0 .181.005.363.015.547.032.58.211 1.143.52 1.635a5.45 5.45 0 0 0 2.246 1.895 17.336 17.336 0 0 0 5.09 1.443 43.59 43.59 0 0 0 6.417.435c4.089.026 8.166-.435 12.147-1.371a16.971 16.971 0 0 0 4.435-1.701 5.907 5.907 0 0 0 1.41-1.158c.582.022 1.165.039 1.762.039 1.737 0 3.555-.068 5.559-.068a19.236 19.236 0 0 0 7.093-.928 5.207 5.207 0 0 0 2.313-1.779 5.32 5.32 0 0 0 .905-2.895c.005-.124.007-.249.007-.376a11.742 11.742 0 0 0-.627-3.677 12.174 12.174 0 0 0-4.162-5.837 15.881 15.881 0 0 0-8.719-2.978 92.206 92.206 0 0 0 8.852-4.223 6.691 6.691 0 0 0 3.238-3.91c.26-.83.388-1.695.381-2.564v-.004a14.02 14.02 0 0 0-.675-4.032l-.001-.006a26.24 26.24 0 0 0-.795-2.183 51.586 51.586 0 0 0 8.997-4.556 41.616 41.616 0 0 0 15.841-18.245 1.305 1.305 0 0 0-.657-1.718Zm-58.515 28.83c2.847.266 5.574.442 8.428.442a69.39 69.39 0 0 0 7.814-.444 78.615 78.615 0 0 0 9.848-1.741c.312.69.583 1.397.811 2.12l.002.004c.096.31.175.626.235.945a79.525 79.525 0 0 1-7.376 3.455c-2.049.819-3.389 1.225-4.546 1.612l-.03.012a1.256 1.256 0 0 0-.314-.149 7.296 7.296 0 0 0-1.735-.203 10.35 10.35 0 0 0-5.153 1.493 9.787 9.787 0 0 0-3.049 2.764 133.402 133.402 0 0 1-3.004-4.054c-1.497-2.104-2.978-4.357-4.225-6.51.757.092 1.518.182 2.294.254Zm1.334 15.497c-2.152-2.739-5.1-6.723-7.48-10.51a55.538 55.538 0 0 1-3.445-6.233 1.254 1.254 0 0 0-.233-.319c1.398.32 2.825.612 4.297.855.095.18.186.358.285.539a81.692 81.692 0 0 0 5.053 7.933 146.009 146.009 0 0 0 5.861 7.66c-.076-.001-.144-.009-.22-.009-.552 0-1.12.019-1.706.058a28.25 28.25 0 0 0-2.299.251 1.224 1.224 0 0 0-.113-.225Zm16.111 13.562c-.004.046-.011.124-.157.31a5.21 5.21 0 0 1-1.964 1.232 27.407 27.407 0 0 1-6.234 1.566 54.388 54.388 0 0 1-7.88.573c-2.891.06-5.779-.257-8.589-.943a7.67 7.67 0 0 1-2.452-1.086 1.991 1.991 0 0 1-.502-.516.817.817 0 0 1-.133-.402v-.003a7.12 7.12 0 0 1-.01-.405 9.924 9.924 0 0 1 3.247-7.06c2.27-2.167 5.85-3.904 11.148-4.26a22.654 22.654 0 0 1 1.533-.052c1.997-.044 3.983.31 5.843 1.039a9.517 9.517 0 0 1 4.779 4.191 11.208 11.208 0 0 1 1.371 5.816Zm14.532-9.974a9.677 9.677 0 0 1 1.773 3.168c.314.918.48 1.88.492 2.85 0 .094-.002.184-.005.268a2.734 2.734 0 0 1-.434 1.508 2.307 2.307 0 0 1-.788.681 7.16 7.16 0 0 1-2.47.708 30.013 30.013 0 0 1-4.021.213c-2.062 0-3.892.069-5.559.068-.319 0-.612-.014-.92-.02a13.304 13.304 0 0 0-3.178-8.643 12.325 12.325 0 0 0-4.574-3.235 15.443 15.443 0 0 0-2.933-.869 123.654 123.654 0 0 1-2.707-3.281 6.637 6.637 0 0 1 2.653-2.717 8.365 8.365 0 0 1 2.187-.897 6.366 6.366 0 0 0-.681.979 4.29 4.29 0 0 0 1.416 5.65 4.288 4.288 0 0 0 5.742-.976c.223-.075.485-.16.782-.258a9.636 9.636 0 0 0 3.785.877c4.92.211 7.734 1.923 9.44 3.926Zm.97-15.399a4.22 4.22 0 0 1-.945 1.617l-.004.004a4.138 4.138 0 0 1-1.042.79 88.47 88.47 0 0 1-8.965 4.254c-2.248.9-3.839 1.385-4.872 1.732l-.007.003a2.698 2.698 0 0 0-.633.305l-.047.036c-.04.028-.078.057-.114.088l-.049.038-.058.053-.003.004.007.008a1.251 1.251 0 0 0-.193.192l-.006.015c-.003.006-.01.008-.013.014a1.708 1.708 0 0 1-1.425.774 1.696 1.696 0 0 1-1.48-2.507 4.06 4.06 0 0 1 .763-.958 5.798 5.798 0 0 1 2.177-1.289c1.106-.37 2.555-.811 4.689-1.664a84.532 84.532 0 0 0 8.384-3.968 1.296 1.296 0 0 0 .687-1.101l.006-.166v-.05l.001-.022-.001-.007v-.004a5.873 5.873 0 0 0-.106-1.008c-.079-.422-.182-.84-.31-1.25a20.93 20.93 0 0 0-.762-2.026 65.1 65.1 0 0 0 3.261-1.019c.285.693.548 1.381.755 2.058.346 1.061.536 2.168.562 3.284.008.6-.079 1.197-.257 1.77Z"/><path fill="#BEBEC9" d="m124.996 161.443.001.002v.002l-.001-.004ZM129.494 168.923l-.002.001-.002.003.004-.004ZM160.078 104.856l.002.001v.001l-.002-.002ZM167.945 112.425l.002.003.002.002-.004-.005Z"/><path fill="#BEBEC9" d="m174.471 112.29-.003-.016a6.27 6.27 0 0 0-.568-1.633l-.009-.018a13.091 13.091 0 0 0-1.331-2.043l-.005-.006a38.163 38.163 0 0 0-3.246-3.599 57.257 57.257 0 0 0-6.385-5.48l-.002-.002a30.73 30.73 0 0 0-3.41-2.185l-.008-.004a12.912 12.912 0 0 0-3.713-1.402 1.3 1.3 0 1 0-.484 2.555 10.35 10.35 0 0 1 2.972 1.14 28.224 28.224 0 0 1 3.114 1.999 54.635 54.635 0 0 1 6.084 5.224 35.942 35.942 0 0 1 3.02 3.342c.408.511.768 1.059 1.074 1.636.16.305.276.63.343.968.038.21.058.423.057.637a4.496 4.496 0 0 1-.238 1.403 7.513 7.513 0 0 1-.566 1.282 15.984 15.984 0 0 1-1.756 2.502 48.742 48.742 0 0 1-4.947 4.968 96.926 96.926 0 0 1-3.517 2.975 10.01 10.01 0 0 0-2.236-2.565c1.815-1.464 4.072-3.379 5.984-5.282l.002-.001a24.736 24.736 0 0 0 3.13-3.64h.001l.005-.008.006-.008h-.001c.194-.288.365-.591.513-.906a1.293 1.293 0 0 0-.102-1.272 10.116 10.116 0 0 0-.302-.424 26.633 26.633 0 0 0-1.974-2.285 52.646 52.646 0 0 0-5.893-5.285 32.985 32.985 0 0 0-2.122-1.498 1.301 1.301 0 0 0-1.406 2.188v-.001c.608.391 1.275.861 1.95 1.377l.001.002a49.99 49.99 0 0 1 5.587 5.01c.621.65 1.149 1.256 1.528 1.733a22.79 22.79 0 0 1-2.75 3.169l-.002.002-.001.001v-.001a78.307 78.307 0 0 1-5.935 5.227 1.287 1.287 0 0 0-.395 1.451c-.124.09-.231.202-.316.33a1.284 1.284 0 0 0-.183.473 1.294 1.294 0 0 0 .584 1.322v-.001c.984.67 1.79 1.57 2.347 2.622.568.977.89 2.076.938 3.205a3.39 3.39 0 0 1-.051.604 5.031 5.031 0 0 1-1.805 3.11 5.107 5.107 0 0 1-.965.618 2.685 2.685 0 0 1-.217.096c-.005.002-.011 0-.016.002l-1.207.403a1.292 1.292 0 0 0-.213 2.367c.297.162.647.2.973.107.004.049.013.09.013.144a2.377 2.377 0 0 1-.05.468.613.613 0 0 1-.177.285 2.846 2.846 0 0 1-1.143.631 6.608 6.608 0 0 1-4.329-.169 1.301 1.301 0 0 0-1.001 2.4 8.919 8.919 0 0 0 3.411.654 8.36 8.36 0 0 0 3.535-.734c.52-.24.994-.57 1.398-.977.426-.429.721-.971.851-1.562.069-.328.104-.661.105-.996a4.233 4.233 0 0 0-.153-1.136 7.66 7.66 0 0 0 3.548-5.245c.063-.353.094-.711.093-1.07a8.411 8.411 0 0 0-.428-2.506 102.924 102.924 0 0 0 4.116-3.462 51.274 51.274 0 0 0 5.217-5.247l.002-.002a18.657 18.657 0 0 0 2.035-2.913l.001-.002c.305-.55.559-1.127.757-1.724l.002-.005c.236-.71.359-1.454.364-2.202a6.132 6.132 0 0 0-.1-1.115ZM53.09 92.841a38.227 38.227 0 0 0-4.271 14.669 73.611 73.611 0 0 0-.187 2.276 1.3 1.3 0 0 0 2.594.172 68.64 68.64 0 0 1 .18-2.194 35.62 35.62 0 0 1 3.969-13.682 1.3 1.3 0 0 0-2.285-1.24ZM153.484 42.828a45.676 45.676 0 0 0-16.821-18.282 52.646 52.646 0 0 0-6.535-3.448 7.396 7.396 0 0 1 2.096-2.483 5.588 5.588 0 1 0-.735-2.744c0 .036.006.072.007.108l-.008.002a9.95 9.95 0 0 0-3.765 4.11 66.48 66.48 0 0 0-19.341-4.226 74.423 74.423 0 0 0-5.535-.207 63.836 63.836 0 0 0-13.298 1.356 10.876 10.876 0 0 0-.386-1.513 9.57 9.57 0 0 0-2.661-4.056 5.642 5.642 0 1 0-1.239 2.433 7.041 7.041 0 0 1 1.44 2.462c.138.417.244.844.316 1.277-12.098 3.15-21.444 9.897-27.465 18.69a1.3 1.3 0 1 0 2.145 1.471c5.58-8.128 14.155-14.447 25.415-17.502-.005.04-.01.092-.014.116l-.008.05-.001.008a1.3 1.3 0 0 0 2.56.454c.064-.424.1-.853.11-1.282a61.628 61.628 0 0 1 13.086-1.364c1.739 0 3.52.067 5.344.2a63.873 63.873 0 0 1 18.623 4.07 10.618 10.618 0 0 0-.336 2.058 1.299 1.299 0 0 0 2.597.096h.001v-.002c.028-.382.084-.762.168-1.135 2.084.929 4.102 2 6.04 3.205a43.066 43.066 0 0 1 15.875 17.242 1.303 1.303 0 0 0 1.743.576 1.3 1.3 0 0 0 .582-1.74Zm-17.066-29.896a3.017 3.017 0 0 1 3.641 2.245 3.03 3.03 0 0 1-.365 2.288 3.038 3.038 0 0 1-1.878 1.359 3.025 3.025 0 0 1-3.644-2.25v-.002a3.025 3.025 0 0 1 1.171-3.15 3.026 3.026 0 0 1 1.075-.49Zm-55.402.287a3.028 3.028 0 1 1 2.742-1.74 3.01 3.01 0 0 1-2.742 1.74ZM129.14 58.662a5.364 5.364 0 0 0-1.674-1.783 5.178 5.178 0 0 0-2.48-.815 5.47 5.47 0 0 0-.424-.017 4.992 4.992 0 0 0-2.799.832 6.702 6.702 0 0 0-2.458 3.336 13.41 13.41 0 0 0 .492 9.891 6.602 6.602 0 0 0 1.632 2.122 4.466 4.466 0 0 0 2.511 1.045h.005c.098.008.198.012.299.012a4.208 4.208 0 0 0 2.735-1.08 9.069 9.069 0 0 0 2.442-3.858 14.89 14.89 0 0 0 .851-4.907 9.45 9.45 0 0 0-1.132-4.778Zm-2.663 9.963a5.299 5.299 0 0 1-1.184 1.6c-.282.277-.655.44-1.049.46l-.097-.004a1.85 1.85 0 0 1-1.058-.454 4.978 4.978 0 0 1-1.365-2.238 11.032 11.032 0 0 1-.536-3.463 8.95 8.95 0 0 1 .966-4.298c.253-.47.612-.876 1.049-1.184a2.372 2.372 0 0 1 1.359-.396l.228.008h.004c.444.023.875.16 1.25.4.559.4.975.968 1.187 1.622.309.887.458 1.822.441 2.762a11.896 11.896 0 0 1-1.195 5.185ZM85.613 53.806a4.73 4.73 0 0 0-2.553-.817l-.182-.003a4.912 4.912 0 0 0-2.722.796 6.491 6.491 0 0 0-2.414 3.223 12.019 12.019 0 0 0-.71 4.195 12.553 12.553 0 0 0 1.274 5.667c.419.835.998 1.58 1.705 2.191a5.033 5.033 0 0 0 2.576 1.158h.003c.15.02.301.03.453.03a3.726 3.726 0 0 0 2.536-1.068 8.53 8.53 0 0 0 2.114-3.685c.469-1.519.707-3.1.707-4.688a10.772 10.772 0 0 0-1.114-5.095 5.438 5.438 0 0 0-1.673-1.904ZM84.796 65.8a4.716 4.716 0 0 1-.984 1.472c-.198.22-.474.354-.769.375l-.11-.008a2.421 2.421 0 0 1-1.252-.574 5.407 5.407 0 0 1-1.485-2.37 10.777 10.777 0 0 1-.564-3.495 8.449 8.449 0 0 1 .94-4.123 3.272 3.272 0 0 1 1.007-1.118 2.296 2.296 0 0 1 1.299-.374l.087.002h.01c.416.004.823.13 1.168.363a3.48 3.48 0 0 1 1.202 1.784c.318.992.472 2.03.455 3.07a12.518 12.518 0 0 1-1.004 4.996ZM110.991 73.629a1.31 1.31 0 0 0-.979-.18 1.303 1.303 0 0 0-.819.563 5.681 5.681 0 0 1-2.308 1.826 8.92 8.92 0 0 1-3.772.854 7.427 7.427 0 0 1-3.352-.77 7.74 7.74 0 0 1-2.95-2.673 1.298 1.298 0 0 0-2.362.473 1.3 1.3 0 0 0 .204.978 10.348 10.348 0 0 0 3.941 3.546 10.028 10.028 0 0 0 4.519 1.046c1.69-.005 3.36-.382 4.888-1.106a8.178 8.178 0 0 0 3.373-2.76 1.298 1.298 0 0 0-.383-1.797Z"/><path fill="#BEBEC9" d="M188.729 103.705a30.74 30.74 0 0 1-2.867.136c-6.524-.004-11.311-2.164-15.785-4.434-2.233-1.134-4.377-2.296-6.607-3.193a18.833 18.833 0 0 0-7.101-1.524 15.4 15.4 0 0 0-.567.01 1.28 1.28 0 0 0-.526.14 49.64 49.64 0 0 0-2.724-5.505 26.769 26.769 0 0 1 1.718-.064c2.556-.01 5.096.411 7.513 1.244 3.3 1.121 6.126 2.851 9.225 4.371a23.631 23.631 0 0 0 10.78 2.793c.153 0 .307-.002.461-.005a1.299 1.299 0 1 0-.047-2.6 18.744 18.744 0 0 1-7.076-1.23 47.046 47.046 0 0 1-5.508-2.59 25.556 25.556 0 0 0 7.29-4.09 12.971 12.971 0 0 0 3.094-3.68 9.479 9.479 0 0 0 1.137-5.45 7.784 7.784 0 0 0-.887-3.072 6.72 6.72 0 0 0-3.268-2.933 11.543 11.543 0 0 0-4.659-.862c-2.9.08-5.769.623-8.497 1.61a48.574 48.574 0 0 0-9.238 4.344 1.307 1.307 0 0 0-.593.8 1.294 1.294 0 0 0 .146.985 1.304 1.304 0 0 0 1.308.617c.169-.026.331-.084.478-.172h-.001a46.011 46.011 0 0 1 8.736-4.112 24.6 24.6 0 0 1 7.661-1.472c1.563-.089 3.117.3 4.455 1.114.495.344.903.8 1.191 1.328.333.637.53 1.337.578 2.054a6.858 6.858 0 0 1-.832 3.98 12.18 12.18 0 0 1-4.281 4.245 29.634 29.634 0 0 1-7.032 3.135c-.117-.056-.231-.114-.35-.17a26.725 26.725 0 0 0-11.784-2.782c-1.02.001-2.038.055-3.053.16-.409.3-.86.54-1.338.712a1.3 1.3 0 0 0-.36 1.803l.011.016a42.952 42.952 0 0 1 3.025 5.728 45.837 45.837 0 0 1 2.491 7.136 20.717 20.717 0 0 1-6.889 4.559 71.661 71.661 0 0 1-17.809 4.734 150.047 150.047 0 0 1-22.259 1.588c-1.657 0-3.31-.024-4.958-.074-10.47-.29-20.888-1.6-31.104-3.91a68.55 68.55 0 0 1-12.265-3.991 18.696 18.696 0 0 1-6.654-4.526 20.306 20.306 0 0 1 2.818-7.198 42.704 42.704 0 0 1 4.555-6.151 1.3 1.3 0 1 0-1.95-1.72A46.028 46.028 0 0 0 54 91.581a44.677 44.677 0 0 1-15.626-4.158 16.152 16.152 0 0 1-5.086-3.856 7.288 7.288 0 0 1-1.812-4.727c0-.212.01-.429.03-.65a5.07 5.07 0 0 1 .584-2.045 4.181 4.181 0 0 1 2.087-1.808 9.375 9.375 0 0 1 3.693-.644 24.83 24.83 0 0 1 7.495 1.38c2.956.989 5.8 2.283 8.486 3.862a1.3 1.3 0 0 0 1.309-2.246 47.391 47.391 0 0 0-8.986-4.087 27.348 27.348 0 0 0-8.304-1.508 10.54 10.54 0 0 0-6.04 1.582 6.524 6.524 0 0 0-2.011 2.203 7.66 7.66 0 0 0-.903 3.08c-.027.296-.04.59-.04.88a9.904 9.904 0 0 0 2.405 6.381c2.24 2.707 5.703 4.693 9.673 6.16a51.408 51.408 0 0 0 11.664 2.649 19.875 19.875 0 0 0-2.167 6.813 1.3 1.3 0 0 0 .235.889c1.65 2.288 4.44 4.134 7.998 5.767 5.343 2.433 12.481 4.331 20.272 5.701a172.982 172.982 0 0 0 24.097 2.433c1.673.05 3.352.075 5.037.075 9.903.078 19.786-.888 29.485-2.884a61.812 61.812 0 0 0 11.642-3.663 26.086 26.086 0 0 0 6.466-3.934c.143.833.267 1.675.347 2.533.195 2.09.293 4.132.293 6.126 0 .54-.007 1.076-.021 1.608a1.3 1.3 0 1 0 2.599.07c.015-.557.022-1.116.022-1.678a68.32 68.32 0 0 0-.304-6.368 41.58 41.58 0 0 0-2.383-10.225l.134-.002c2.111.043 4.194.496 6.131 1.336 3.062 1.225 6.227 3.154 9.962 4.809a32.185 32.185 0 0 0 13.4 3.006c1 0 2.036-.047 3.109-.147a1.298 1.298 0 0 0 .702-2.29 1.3 1.3 0 0 0-.944-.299Z"/><path fill="#FFE632" d="M158.809 114.876a1.308 1.308 0 0 0-.296-.73 1.305 1.305 0 0 0-1.449-.389 1.302 1.302 0 0 0-.622.483 20.04 20.04 0 0 1-6.721 5.604 65.797 65.797 0 0 1-18.34 6.378 118.87 118.87 0 0 1-24.129 2.42c-1.284 0-2.572-.021-3.863-.061a187.076 187.076 0 0 1-26.585-2.615 1.299 1.299 0 0 0-1.295 2.023c.197.283.499.476.838.537a189.7 189.7 0 0 0 26.96 2.654c1.319.041 2.634.062 3.945.062a114.95 114.95 0 0 0 31.852-4.283A57.933 57.933 0 0 0 151 122.107a28.083 28.083 0 0 0 5.169-3.668 46.772 46.772 0 0 1-3.875 15.517c-1.226 1.741-3.551 3.404-6.726 4.813-4.834 2.159-11.55 3.754-18.963 4.784a172.174 172.174 0 0 1-23.239 1.515 179.667 179.667 0 0 1-18.843-.964 1.288 1.288 0 0 0-.505.047 1.29 1.29 0 0 0-.924 1.11 1.3 1.3 0 0 0 1.157 1.429c6.35.661 12.73.987 19.115.978a159.776 159.776 0 0 0 30.901-2.787 61.259 61.259 0 0 0 12.36-3.738c3.465-1.552 6.216-3.409 7.872-5.796l.119-.212a48.082 48.082 0 0 0 4.23-18.896c0-.853-.037-1.333-.039-1.363ZM153.633 43.15a1.16 1.16 0 0 0-.063-.23 23.519 23.519 0 0 0-7.92-9.245 18.861 18.861 0 0 0-10.489-3.137c-.521 0-1.045.02-1.571.061a22.573 22.573 0 0 0-7.941 2.129c-3.452 1.614-6.264 3.758-9.203 5.425a19.324 19.324 0 0 1-10.008 2.905c-.487 0-.989-.019-1.507-.056a20.01 20.01 0 0 1-7.114-1.68 20.18 20.18 0 0 1-6.375-5.13 31.567 31.567 0 0 0-7.2-6.304 15.056 15.056 0 0 0-7.759-2.166 17.234 17.234 0 0 0-9.007 2.691 27.206 27.206 0 0 0-8.032 7.893c-.101.148-.17.316-.203.493a45.831 45.831 0 0 0-7.513 22.126 57.051 57.051 0 0 0-.144 4.166 77 77 0 0 0 .351 7.198A29.946 29.946 0 0 0 72.088 95.82c8.095 2.757 18.252 4.551 30.006 5.418 3.181.234 6.315.346 9.374.346 7.691.055 15.365-.737 22.884-2.362a29.698 29.698 0 0 0 22.821-24.381c.448-2.85.761-5.636.942-8.08.086-1.18.13-2.358.13-3.531a45.45 45.45 0 0 0-4.612-20.08Zm1.889 23.42a98.122 98.122 0 0 1-.918 7.867 27.092 27.092 0 0 1-20.829 22.25 102.234 102.234 0 0 1-22.307 2.297c-2.995 0-6.066-.11-9.183-.34-11.6-.852-21.566-2.628-29.358-5.285a27.345 27.345 0 0 1-18.403-23.315 74.45 74.45 0 0 1-.34-6.953c0-1.391.045-2.729.137-3.975a43.198 43.198 0 0 1 7.377-21.338c.072-.115.125-.24.158-.371a24.37 24.37 0 0 1 6.978-6.776 14.635 14.635 0 0 1 7.65-2.31 12.45 12.45 0 0 1 6.428 1.8 22.804 22.804 0 0 1 4.673 3.769c2 2.024 3.732 4.252 6.285 6.11a20.143 20.143 0 0 0 10.87 3.595c.581.043 1.147.064 1.698.063 2.747.007 5.467-.54 7.998-1.609 3.485-1.452 6.317-3.573 9.279-5.335a22.273 22.273 0 0 1 10.076-3.523c.46-.035.917-.053 1.37-.053a16.254 16.254 0 0 1 9.058 2.707 20.821 20.821 0 0 1 6.903 8.011c.01.046.022.092.037.136a42.83 42.83 0 0 1 4.486 19.238c0 1.109-.041 2.222-.123 3.34ZM76.514 151.067c.105 1.123.158 2.265.159 3.426a34.165 34.165 0 0 1-5.236 18.516 23.656 23.656 0 0 1-12.933 10.185 1.298 1.298 0 0 0-.257 2.388c.303.165.659.204.99.106a26.244 26.244 0 0 0 14.384-11.267 36.759 36.759 0 0 0 5.652-19.928c0-1.24-.057-2.462-.17-3.667a1.306 1.306 0 0 0-.464-.881 1.311 1.311 0 0 0-.951-.294 1.3 1.3 0 0 0-1.173 1.417v-.001ZM40.616 116.297h-6.294a1.3 1.3 0 1 0 0 2.6h6.294a1.303 1.303 0 0 0 1.3-1.3 1.301 1.301 0 0 0-1.3-1.3M69.106 121.884v-.001.001Z"/><path fill="#FFE632" d="M70.688 119.819a1.29 1.29 0 0 0-.961-.256 1.3 1.3 0 0 0-.62 2.32c8.724 6.675 14.645 18.764 14.64 32.61.002 10.634-3.486 20.238-9.064 27.14-5.587 6.907-13.201 11.096-21.572 11.097-8.37-.001-15.985-4.19-21.571-11.097-5.578-6.902-9.067-16.506-9.066-27.14a44.53 44.53 0 0 1 6.158-22.983 31.802 31.802 0 0 1 15.449-13.564 1.297 1.297 0 0 0 .746-1.68 1.299 1.299 0 0 0-1.68-.746 30.89 30.89 0 0 0-8.387 4.913H32.02a27.153 27.153 0 0 1 5.777-2.808 1.304 1.304 0 0 0 .877-1.149 1.297 1.297 0 0 0-1.22-1.378c-.17-.01-.342.013-.503.069-7.065 2.433-13.125 7.631-17.416 14.52a47.007 47.007 0 0 0-6.824 24.806 45.865 45.865 0 0 0 9.642 28.774c5.973 7.403 14.327 12.065 23.594 12.063h7.165c9.268.002 17.622-4.66 23.594-12.063a45.868 45.868 0 0 0 9.642-28.774c-.004-14.58-6.198-27.413-15.66-34.674Zm-38.342 68.93h2.316c.096-.008.191-.027.284-.057.697.56 1.409 1.096 2.142 1.592h-1.921a27.708 27.708 0 0 1-2.82-1.535Zm-13.92-17.45h4.392a44.617 44.617 0 0 0 1.752 4.137h-4.245a41.414 41.414 0 0 1-1.898-4.137Zm-.964-30.817h4.442a47.772 47.772 0 0 0-1.17 4.845H16.21a44.848 44.848 0 0 1 1.252-4.845Zm2.76-6.737h4.277a44.704 44.704 0 0 0-1.745 4.137h-4.38a41.783 41.783 0 0 1 1.847-4.137Zm-.318 22.175a50.18 50.18 0 0 0 .432 5.334h-4.539a47.448 47.448 0 0 1-.459-5.334h4.566Zm.401-7.993a50.434 50.434 0 0 0-.392 5.393H15.35c.036-1.804.174-3.605.414-5.393h4.542Zm.456 15.927a47.72 47.72 0 0 0 1.182 4.845h-4.437a44.768 44.768 0 0 1-1.266-4.845h4.521Zm7.814-40.845c.039.01.078.018.118.024h3.221a37.521 37.521 0 0 0-2.03 2.243h-3.685a32.811 32.811 0 0 1 2.376-2.267Zm-4.604 4.86c.012 0 .022.007.034.007H27.9a42.48 42.48 0 0 0-1.493 2.289c-.192.318-.361.656-.546.98h-4.167c.016-.027.03-.057.048-.084a37.432 37.432 0 0 1 2.23-3.192Zm-2.15 50.167h4.135a41.112 41.112 0 0 0 2.089 3.269h-3.923a37.093 37.093 0 0 1-2.3-3.269Zm4.566 5.869h3.585c.026 0 .048-.013.073-.015.663.786 1.35 1.542 2.066 2.259h-3.335a32.41 32.41 0 0 1-2.389-2.244Z"/><path fill="#FFE632" d="M32.462 134.785a37.874 37.874 0 0 0 .87 40.713c.198.281.5.472.84.531a1.302 1.302 0 0 0 1.502-1.061c.059-.34-.02-.689-.22-.97v-.001a33.873 33.873 0 0 1-5.903-19.504 34.222 34.222 0 0 1 5.106-18.314 23.87 23.87 0 0 1 12.655-10.262 19.12 19.12 0 0 1 5.8-.902 1.292 1.292 0 0 0 1.303-1.3 1.298 1.298 0 0 0-1.303-1.299 21.684 21.684 0 0 0-6.587 1.023 26.454 26.454 0 0 0-14.063 11.346Z"/><path fill="#BEBEC9" d="M53.067 110.04a356.537 356.537 0 0 0-12.657-1.049l-.083 1.298.88.958a45.659 45.659 0 0 1 2.136-1.832l.001-.001a95.35 95.35 0 0 1 8.465-6.034 1.298 1.298 0 0 0 .396-1.793 1.302 1.302 0 0 0-1.793-.399 97.735 97.735 0 0 0-8.705 6.206l.001-.001a48.322 48.322 0 0 0-2.26 1.938 1.3 1.3 0 0 0 .797 2.255c4.91.312 9.506.734 12.562 1.041a1.3 1.3 0 0 0 .26-2.587Z"/><path fill="#BEBEC9" d="M52.836 92.79a83.549 83.549 0 0 0-3.834 2.206 105.194 105.194 0 0 0-11.33 7.947 39.4 39.4 0 0 0-4.242 3.927l-.003.003a13.6 13.6 0 0 0-1.562 2.055l-.005.007c-.255.421-.47.865-.64 1.327l-.001.005a5.712 5.712 0 0 0-.354 1.945l1.3.004-1.3-.024v.044c0 .795.19 1.579.552 2.287l-.004-.009a4.98 4.98 0 0 0 1.177 1.501 5.424 5.424 0 0 0 2.002 1.083l.006.002c.54.157 1.098.248 1.66.271 4.885.237 9.81.642 13.499.988a1.307 1.307 0 0 0 .952-.292 1.302 1.302 0 0 0-.222-2.152 1.318 1.318 0 0 0-.487-.144c-3.717-.349-8.673-.757-13.614-.997a4.303 4.303 0 0 1-1.051-.168l.005.002a2.81 2.81 0 0 1-1.053-.563 2.418 2.418 0 0 1-.556-.708l-.005-.009a2.45 2.45 0 0 1-.26-1.092v-.004l-.62-.003.62.012v-.009l-.62-.003.62.012v-.02c.002-.368.07-.733.2-1.077l-.001.005c.114-.307.257-.603.428-.882l-.004.007c.37-.594.797-1.152 1.273-1.665l-.002.003a36.942 36.942 0 0 1 3.959-3.658 102.709 102.709 0 0 1 11.035-7.737 81.123 81.123 0 0 1 3.713-2.137 1.3 1.3 0 0 0-1.231-2.29Z"/><path fill="#BEBEC9" d="M64.473 124.28a4.054 4.054 0 0 0 3.732 2.998 3.22 3.22 0 0 0 2.413-1.079 4.345 4.345 0 0 0 1.015-2.815l.001-.103a7.122 7.122 0 0 0-.489-2.262 21.123 21.123 0 0 0-2.004-4.025 16.541 16.541 0 0 0-3.08-3.703 18.113 18.113 0 0 0-3.407-2.31 8.5 8.5 0 0 0-3.734-1.064 4.27 4.27 0 0 0-1.195.161l.361 1.249.722-1.081a5.917 5.917 0 0 0-4.718-.637 7.887 7.887 0 0 0-3.43 2.117 6.132 6.132 0 0 0-1.785 4.217c0 .292.023.584.067.873.064.422.225.824.47 1.173.272.382.63.694 1.045.913.195.105.401.189.615.248l.328-1.258-1.297.083c.073.738.276 1.457.597 2.125a7.39 7.39 0 0 0 3.373 3.463l.597-1.155-1.297.078c.053 1.589.24 3.171.56 4.729.17.811.492 1.583.947 2.275.253.365.58.673.957.905.42.252.902.384 1.392.382.111 0 .222-.006.333-.019h.005a3.38 3.38 0 0 0 1.972-.918 5.035 5.035 0 0 0 1.322-2.551c.188-.87.277-1.758.267-2.648 0-.889-.066-1.777-.195-2.657l-1.283.208-1.261.316c.002.009.247.986.592 2.195a32.172 32.172 0 0 0 1.222 3.641 3.501 3.501 0 0 0 1.39 1.564c.596.366 1.28.56 1.979.563a3.412 3.412 0 0 0 2.426-.993 4.615 4.615 0 0 0 1.236-2.851c.027-.25.04-.501.04-.752a14.223 14.223 0 0 0-2.325-6.963 1.304 1.304 0 0 0-1.776-.446 1.3 1.3 0 0 0-.46 1.773 11.792 11.792 0 0 1 1.96 5.636c0 .159-.007.317-.024.474-.01.47-.18.923-.483 1.283a.794.794 0 0 1-.594.239 1.215 1.215 0 0 1-.62-.18.916.916 0 0 1-.369-.393 30.316 30.316 0 0 1-1.102-3.309 75.789 75.789 0 0 1-.41-1.497c-.102-.383-.16-.615-.16-.616a1.298 1.298 0 0 0-2.331-.422c-.19.276-.267.615-.213.946l.005.033c.102.732.154 1.47.156 2.208a7.862 7.862 0 0 1-.367 2.623 1.878 1.878 0 0 1-.416.695.76.76 0 0 1-.475.216l.005-.001-.046.003-.058-.013a1.29 1.29 0 0 1-.382-.556 9.172 9.172 0 0 1-.584-2.438c-.127-.971-.186-1.993-.237-2.84a1.307 1.307 0 0 0-.7-1.077 4.763 4.763 0 0 1-2.21-2.249 4.441 4.441 0 0 1-.311-.91 3.122 3.122 0 0 1-.045-.246l-.005-.049v-.003l-.776.063.776-.05v-.013l-.776.063.776-.05a1.298 1.298 0 0 0-.969-1.175l-.14.538.173-.528-.033-.01-.14.538.173-.528-.169-.095-.08-.13a3.096 3.096 0 0 1-.037-.476 3.533 3.533 0 0 1 1.07-2.426 5.325 5.325 0 0 1 2.263-1.409c.294-.086.598-.129.904-.129a3.485 3.485 0 0 1 1.585.392l.072.04.008.005.365-.574-.378.566.013.008.365-.574-.378.566a1.303 1.303 0 0 0 1.083.168c.154-.042.313-.062.473-.059a6.069 6.069 0 0 1 2.55.779 15.567 15.567 0 0 1 2.905 1.973 15.857 15.857 0 0 1 3.286 4.341c.4.734.747 1.497 1.035 2.282.179.444.293.912.338 1.389v.02c.021.417-.103.827-.352 1.162a.607.607 0 0 1-.477.215c-.353.002-.953-.275-1.257-1.195a1.305 1.305 0 0 0-.645-.759 1.301 1.301 0 0 0-1.83 1.556ZM172.803 112.661a37.1 37.1 0 0 0 13.366 2.41c1.167 0 2.387-.05 3.66-.15a1.302 1.302 0 0 0 .74-2.286 1.301 1.301 0 0 0-.947-.306 43.152 43.152 0 0 1-3.453.142 34.44 34.44 0 0 1-12.455-2.246 1.303 1.303 0 0 0-1.673.763 1.302 1.302 0 0 0 .763 1.673h-.001ZM176.435 96.837l-.75 5.937a1.299 1.299 0 0 0 1.634 1.423 1.295 1.295 0 0 0 .945-1.097l.75-5.938a1.298 1.298 0 0 0-2.42-.809c-.084.15-.138.314-.159.484"/><path fill="#BEBEC9" d="m177.734 101.412 3.625.5a1.297 1.297 0 0 0 1.442-1.617 1.292 1.292 0 0 0-.605-.794 1.302 1.302 0 0 0-.481-.164l-3.625-.5a1.301 1.301 0 0 0-.356 2.575M183.991 105.957l.5 7.875a1.297 1.297 0 0 0 1.38 1.215 1.3 1.3 0 0 0 1.215-1.38l-.5-7.875a1.303 1.303 0 0 0-1.38-1.215 1.3 1.3 0 0 0-1.215 1.38"/><path fill="#BEBEC9" d="m186.199 110.921 3.312-.25a1.31 1.31 0 0 0 .888-.449 1.3 1.3 0 0 0-.138-1.833 1.308 1.308 0 0 0-.946-.311l-3.312.25a1.292 1.292 0 0 0-.888.449 1.308 1.308 0 0 0-.311.946 1.3 1.3 0 0 0 1.395 1.198"/></svg>