<svg xmlns="http://www.w3.org/2000/svg" width="200" height="200" fill="none"><path fill="#191C22" d="M44.507 47.459c-.282.417-.56.882-.773 1.42a4.88 4.88 0 0 0-.355 1.809c-.002 1.305.547 2.684 1.703 4.153a1.3 1.3 0 1 0 2.046-1.604c-.932-1.195-1.148-1.986-1.15-2.55.002-.392.104-.741.307-1.146.3-.604.856-1.268 1.413-2.051.276-.395.552-.826.77-1.328.217-.5.372-1.08.37-1.71a4.369 4.369 0 0 0-.409-1.81c-.273-.605-.676-1.2-1.215-1.814-.41-.466-.654-.868-.798-1.212a2.35 2.35 0 0 1-.194-.927c0-.368.088-.758.26-1.202.253-.666.7-1.422 1.127-2.287.42-.862.832-1.87.836-3.069.002-.796-.2-1.648-.64-2.476-.44-.832-1.103-1.647-2.024-2.482a1.3 1.3 0 0 0-1.747 1.926c.758.686 1.213 1.28 1.472 1.77.258.494.336.88.339 1.262 0 .381-.09.778-.262 1.227-.253.672-.7 1.427-1.125 2.286-.418.857-.833 1.856-.836 3.045a4.966 4.966 0 0 0 .395 1.93c.272.65.685 1.29 1.245 1.926.41.466.658.858.798 1.167.14.313.178.537.179.74 0 .282-.084.567-.288.943-.299.561-.877 1.234-1.444 2.064ZM52.692 22.24c.758.687 1.213 1.28 1.472 1.772.258.494.336.878.338 1.261 0 .381-.09.778-.26 1.227-.255.672-.7 1.427-1.126 2.286-.418.857-.833 1.856-.836 3.045a4.966 4.966 0 0 0 .395 1.93c.272.65.685 1.29 1.245 1.926.41.467.658.858.798 1.168.14.312.178.537.18.74 0 .089-.01.178-.027.272a1.3 1.3 0 1 0 2.554.486 4.05 4.05 0 0 0 .072-.759 4.372 4.372 0 0 0-.41-1.81c-.273-.604-.676-1.2-1.215-1.814-.41-.466-.654-.868-.798-1.212a2.35 2.35 0 0 1-.194-.927c0-.368.088-.757.26-1.202.253-.666.7-1.422 1.127-2.287.42-.862.832-1.87.835-3.069a5.244 5.244 0 0 0-.64-2.476c-.44-.832-1.103-1.647-2.023-2.482a1.3 1.3 0 0 0-1.747 1.926ZM151.41 24.556c.409.466.653.868.797 1.212.143.345.193.634.194.927 0 .369-.088.758-.26 1.203-.253.666-.7 1.421-1.127 2.286-.419.862-.831 1.87-.835 3.068a5.246 5.246 0 0 0 .641 2.477c.44.832 1.103 1.647 2.024 2.483a1.3 1.3 0 1 0 1.747-1.926c-.758-.687-1.214-1.28-1.473-1.772-.258-.494-.336-.879-.339-1.262 0-.38.09-.777.262-1.226.253-.672.699-1.427 1.124-2.286.418-.857.833-1.856.836-3.045a4.963 4.963 0 0 0-.395-1.93c-.272-.65-.684-1.29-1.243-1.925-.411-.467-.659-.858-.799-1.168-.139-.312-.178-.537-.179-.74 0-.092.009-.178.026-.264a1.3 1.3 0 0 0-2.551-.502c-.049.249-.075.506-.075.767-.001.589.136 1.206.41 1.809.273.605.676 1.2 1.215 1.814ZM86.755 122.4a2 2 0 1 0-3.563 1.818l.098.193a2 2 0 1 0 3.563-1.818l-.098-.193ZM78.669 121.991a2 2 0 1 0-3.563 1.817l.098.194a2 2 0 0 0 3.563-1.818l-.098-.193ZM83.403 130.184a2 2 0 1 0-3.563 1.817l.099.194a2 2 0 0 0 3.563-1.818l-.099-.193ZM92.77 134.763a2 2 0 0 0-3.563 1.817l.099.194a2 2 0 0 0 3.563-1.818l-.099-.193ZM98.955 129.314a2 2 0 0 0-3.558 1.828l.1.194a2 2 0 1 0 3.558-1.828l-.1-.194ZM114.028 131.796a2 2 0 1 0-3.556 1.832l.1.193a2 2 0 1 0 3.556-1.832l-.1-.193ZM119.598 116.645a2 2 0 0 0-2.575 3.061l.166.14a2 2 0 1 0 2.575-3.062l-.166-.139ZM103.54 133.941a2.001 2.001 0 0 0-3.563 1.818l.098.193a2 2 0 0 0 3.563-1.817l-.098-.194ZM106.389 127.619a2 2 0 1 0-3.563 1.818l.099.193a2 2 0 1 0 3.563-1.817l-.099-.194ZM95.775 125.579a2 2 0 0 0-2.682-.9l-.194.097a2 2 0 1 0 1.781 3.581l.195-.096a2 2 0 0 0 .9-2.682Z"/><path fill="#191C22" d="M157.974 115.328a29.675 29.675 0 0 0-11.722-2.484c-.973 0-1.546.058-1.585.062a1.299 1.299 0 0 0-1.155 1.145c-.005.066-.227 1.552-1.317 2.984a7.131 7.131 0 0 1-2.381 2.013c-1 .531-2.31.935-4.011 1.082-1.358-1.739-2.726-3.311-4.168-4.649a21.767 21.767 0 0 0-1.861-1.541c9.432-1.971 15.434-6.266 19.061-10.211 3.043-3.305 4.437-6.333 4.923-7.566a25.252 25.252 0 0 1 1.747-.65c1.109-.373 2.457-.7 3.361-.692.495-.006.812.106.876.16.636.436 1.364.6 2.019.597 1.349-.016 2.49-.574 3.364-1.069.868-.504 1.45-.99 1.487-1.019a1.3 1.3 0 0 0-.885-2.297h-.076c-.26.004-1.153-.037-1.977-.349a3.519 3.519 0 0 1-1.12-.65 2.577 2.577 0 0 1-.739-1.119 4.262 4.262 0 0 0-1.112-1.731c-.719-.674-1.573-1.036-2.386-1.244a8.13 8.13 0 0 0-1.032-.18c.699-.27 1.575-.514 2.476-.787 1.175-.37 2.416-.777 3.446-1.669.271-.238.58-.399.943-.508a4.188 4.188 0 0 1 1.194-.158c.691 0 1.4.134 1.921.273.261.069.475.138.618.188l.16.058.035.014.006.002a1.298 1.298 0 0 0 1.669-1.756c-.028-.055-.553-1.18-1.505-2.37-.479-.596-1.065-1.212-1.795-1.712-.725-.495-1.627-.884-2.662-.885a4.303 4.303 0 0 0-1.901.454c-1.274.631-2.143.874-2.611.864a1.224 1.224 0 0 1-.448-.076c-.188-.072-.4-.208-.681-.513-.278-.302-.603-.765-.968-1.384a4.02 4.02 0 0 0-1.7-1.599c-.663-.322-1.351-.43-1.984-.43a6.794 6.794 0 0 0-1.525.187c.476-2.34 1.063-6.217 1.063-11.179 0-1.77-.074-3.677-.256-5.698-.678-7.592-3.612-13.52-7.604-18.032-5.992-6.774-14.267-10.413-21.018-12.403-5.031-1.48-9.233-2.038-11.079-2.23.037-.116.102-.261.22-.447.246-.381.738-.918 1.663-1.545a4.595 4.595 0 0 0 1.6-1.838 4.953 4.953 0 0 0 .454-2.138c-.01-1.605-.598-3.066-1.143-4.177-.552-1.106-1.09-1.85-1.117-1.888a1.302 1.302 0 0 0-1.491-.462 1.302 1.302 0 0 0-.86 1.3l.003.152c.007.392-.073 1.475-.496 2.28-.209.407-.478.74-.85.983-.374.24-.876.424-1.685.427-.088 0-.179-.002-.273-.007a8.09 8.09 0 0 0-4.111.85c-1.541.775-2.617 1.898-3.322 2.816-.067.087-.127.17-.187.253l-2.056-1.828a1.297 1.297 0 0 0-1.408-.209c-1.005.455-1.726 1.216-2.118 2.027-.398.812-.509 1.641-.51 2.37.002.376.032.73.076 1.05-8.417.421-15.128 2.176-20.421 4.816-8.447 4.204-13.28 10.617-15.929 16.937-2.657 6.325-3.192 12.56-3.194 16.64 0 1.303.056 2.372.117 3.17a8.03 8.03 0 0 0-2.658.613c-1.225.515-2.526 1.46-3.536 3.01-.52.794-.99 1.233-1.38 1.472a2.006 2.006 0 0 1-1.1.313c-.415.002-.912-.113-1.47-.306-.558-.19-1.166-.453-1.828-.68a3.504 3.504 0 0 0-1.13-.173c-1.037.009-2.005.325-2.863.647-.845.323-1.587.687-1.907.823a1.302 1.302 0 0 0-.69 1.684c.259.639.974.953 1.622.733l.002.008s.112-.034.315-.034c.29.003.755.06 1.396.427.638.368 1.462 1.065 2.371 2.402a5.637 5.637 0 0 0 2.716 2.13c1.105.42 2.344.571 3.75.573.609 0 1.252-.03 1.931-.084-.483.493-1.272 1.01-2.696 1.344-1.396.32-2.455.703-3.314 1.175-1.296.704-2.064 1.636-2.67 2.478-.618.851-1.134 1.64-2.15 2.574a1.299 1.299 0 0 0 1.394 2.152l.018-.008a16.13 16.13 0 0 1 1.691-.583c.895-.258 2.02-.489 2.99-.486.47 0 .898.053 1.242.157.502.153.799.312 1.053.483.19.13.36.275.565.456.304.267.697.634 1.273.946.386.21.842.376 1.369.498.417 3.452 2.305 6.941 5.206 10.119 3.035 3.316 7.19 6.299 12.077 8.455 3.593 1.583 7.851 2.892 13.126 3.866-.052.039-.11.071-.16.11a1.988 1.988 0 0 0-.382.4 174.785 174.785 0 0 0-5.668 1.616c-.806.255-1.647.712-2.616 1.319-.346.219-.715.47-1.087.726-.32.03-.626.05-.9.05-1.044-.001-1.748-.196-2.239-.446-.726-.376-1.066-.886-1.286-1.425a3.577 3.577 0 0 1-.239-1.235v-.039a1.296 1.296 0 0 0-1.53-1.36c-.066.012-2.423.444-5.582 1.778-3.157 1.335-7.128 3.573-10.367 7.253a1.301 1.301 0 0 0 1.357 2.102l.002-.001c.084-.027 1.291-.365 2.674-.362 1.14-.003 2.35.232 3.215.875.439.323.817.744 1.124 1.362.29.589.508 1.375.584 2.413a318.338 318.338 0 0 0-4.61 4.281 66.773 66.773 0 0 0-9.715-10.579 10 10 0 0 0-.227-.783c-.238-.697-.608-1.585-1.267-2.392-.408-.487-.908-.852-1.481-1.201-1.147-.681-2.615-1.262-4.092-1.67a6.508 6.508 0 0 0 .57-1.72c.112-.597.127-1.027.129-1.073a1.3 1.3 0 0 0-1.302-1.342l-2.762.005-.05-.092a1.3 1.3 0 0 0-.335-.393 4.132 4.132 0 0 0-.907-.513 5.652 5.652 0 0 0-2.214-.442c-.14 0-.29.015-.437.025a3.471 3.471 0 0 0-.352-.593 3.383 3.383 0 0 0-1.147-.967c-.369-.193-.814-.309-1.292-.38l-.045-2.259a5.76 5.76 0 0 0 .085-1.014c0-.732-.122-1.743-.637-2.81-.106-.221-.104-.302-.105-.318l.03-.095c.045-.118.228-.382.453-.802.202-.382.396-.926.436-1.56.008-.068.036-.13.033-.2l-.001-.087a1.99 1.99 0 0 1 .085-.634c.036-.113.084-.22.16-.37.108-.219.292-.536.446-.98.155-.444.255-.991.253-1.634V95.803c.004-.666-.262-1.325-.72-1.761a2.344 2.344 0 0 0-1.635-.658c-.54 0-1.09.185-1.54.55-.449.362-.776.898-.922 1.501a3.44 3.44 0 0 0-.104.825 3.152 3.152 0 0 0 .353 1.439c.299.574.623.927.789 1.194.172.276.212.382.218.597v.02c-.004.17-.03.279-.074.399-.063.178-.196.385-.399.73-.193.333-.463.872-.46 1.554-.002.485.133.976.364 1.451a3.864 3.864 0 0 1 .345 2.161l-.018.112-.003.016h.002a1.344 1.344 0 0 0-.036.321l.044 2.213c-.067.027-.136.049-.199.087-.01.006-.965.588-1.992 1.281-.515.348-1.046.721-1.502 1.08a8.84 8.84 0 0 0-.629.536c-.19.19-.362.353-.546.672v.001a2.74 2.74 0 0 0-.208.507c-.168.552-.27 1.22-.355 1.986-.082.76-.13 1.586-.131 2.339 0 .412.014.8.05 1.159.043.364.083.678.24 1.065.17.399.426.697.688.931.464.406.973.656 1.489.866.772.307 1.572.499 2.197.625.13.026.247.048.36.068.33.839.857 1.622 1.625 2.229a45.394 45.394 0 0 0 4.088 2.896c1.509.935 3.154 1.807 4.764 2.304.59 1.63 2.3 6.317 4.247 11.303 1.207 3.091 2.504 6.294 3.687 8.965a67.523 67.523 0 0 0 1.67 3.536c.521 1.003.972 1.785 1.44 2.369 1.245 1.536 2.37 2.542 3.454 3.179 1.078.639 2.133.879 3.038.874.384 0 .74-.039 1.06-.092.509-.088 1.221-.279 2.11-.53 1.87-.533 4.37-1.322 5.667-1.735a165.147 165.147 0 0 0-1.407 21.356c0 2.599.064 5.226.197 7.875a1.3 1.3 0 0 0 2.597-.131 153.55 153.55 0 0 1-.194-7.744c0-15.388 2.264-29.785 5.458-41.693a1.3 1.3 0 0 0-2.512-.673 162.145 162.145 0 0 0-3.752 18.222c-.108.006-.216.002-.324.037 0 0-.429.139-1.1.352-1.004.32-2.55.806-3.979 1.233-.714.214-1.4.413-1.968.569a15.72 15.72 0 0 1-1.22.297 3.828 3.828 0 0 1-.633.057c-.489-.005-.996-.097-1.722-.516-.72-.421-1.639-1.201-2.75-2.574-.246-.297-.676-1.001-1.15-1.925-.84-1.625-1.878-3.965-2.948-6.537-1.606-3.861-3.293-8.256-4.576-11.682a541.04 541.04 0 0 1-2.163-5.88 1.302 1.302 0 0 0-.935-.829c-1.298-.288-3.084-1.191-4.68-2.193a42.834 42.834 0 0 1-3.84-2.721c-.487-.398-.742-.804-.937-1.425-.189-.617-.266-1.451-.264-2.485 0-.36.008-.745.021-1.15l.001-.007a3.85 3.85 0 0 1 .406-1.305c.33-.637.874-1.34 1.939-1.878.607-.303 1.122-.437 1.562-.486-1.043.862-1.695 1.95-2.116 2.84-.441.945-.626 1.681-.64 1.735a1.3 1.3 0 1 0 2.521.632 8.336 8.336 0 0 1 .93-2.103c.304-.481.68-.922 1.085-1.216.413-.295.826-.46 1.365-.469l1.953-.004a2.598 2.598 0 0 1-.25.544c-.123.186-.23.27-.313.307-.748.341-1.172.53-1.403.631l-.217.094-.027.011.001.002c-.406.158-.708.51-.8.937l-.483 2.261a1.3 1.3 0 1 0 2.543.543l.343-1.607.213-.095c.01.002.017.009.027.01 1.144.164 2.548.556 3.732 1.038.592.24 1.132.502 1.552.755.42.248.717.503.813.626.349.417.639 1.049.81 1.566.086.258.147.487.185.645l.04.179.007.041.001.006c.052.295.203.562.429.758 7.157 6.216 11.15 12.326 13.914 16.866a1.3 1.3 0 1 0 2.221-1.352 98.122 98.122 0 0 0-2.868-4.469l.575-.545c1.61-1.523 5.712-5.36 9.921-8.964 2.103-1.802 4.235-3.545 6.077-4.902.167-.123.316-.224.478-.34l.295-.168.108-.06.033-.018c.16-.087.288-.209.395-.345.422-.288.82-.546 1.184-.767.72-.44 1.33-.733 1.68-.838 1.473-.456 3.307-.974 5.133-1.47.1.096.207.186.327.259.246.151.491.291.737.435a1.997 1.997 0 0 0 2.447 3.042l.195-.097c.153-.077.287-.175.41-.283a1.995 1.995 0 0 0 2.392.509c.145.005.291-.003.44-.031.438.419.932.751 1.452 1.032-.03.076-.064.15-.085.232a2 2 0 1 0 3.874.997c.017-.066.02-.131.03-.197.681.048 1.357.044 2.012-.004.006.045.004.089.013.134a2 2 0 0 0 2.358 1.562l.008-.002c.03.221.087.44.194.65l.099.193a1.996 1.996 0 0 0 3.586-1.757c.295.305.683.526 1.135.594a2 2 0 0 0 2.277-1.678c.008-.052.003-.103.007-.154a9.825 9.825 0 0 0 1.992-.203c.032.091.062.183.107.272.091.176.21.326.341.462a2 2 0 0 0-1.61 2.9l.098.193a2 2 0 0 0 2.691.873 1.985 1.985 0 0 0 1.028-1.323 2 2 0 0 0 2.736-2.672l-.099-.193a1.992 1.992 0 0 0-1.417-1.043 1.988 1.988 0 0 0-.21-1.026 2.176 2.176 0 0 0-.179-.276 6.948 6.948 0 0 0 1.054-1.353 1.988 1.988 0 0 0 1.493-.847c.253-.365.361-.785.349-1.198l.267-.321c.478-.571.907-1.047 1.415-1.474 1.283-.591 2.899-1.041 4.883-1.042a10.441 10.441 0 0 1 2.003.187l.441.112c.274.07.558.143.848.214.483.155.959.333 1.426.557 1.979.954 3.857 2.549 5.742 4.66 1.885 2.107 3.77 4.716 5.788 7.622.361.515.849 1.065 1.458 1.722 1.063 1.142 2.489 2.577 4.039 4.262 2.325 2.525 4.922 5.606 6.913 8.973 1.997 3.368 3.367 6.999 3.363 10.623 0 .841-.073 1.683-.227 2.529-.008.054-.06.214-.188.428-.236.407-.721.988-1.382 1.62-1.158 1.115-2.841 2.415-4.693 3.705-2.782 1.94-5.953 3.876-8.421 5.321a178.185 178.185 0 0 1-4.226 2.398 1.3 1.3 0 1 0 1.237 2.286c.006-.003.562-.304 1.472-.815l1.408.616-2.692 1.648a1.298 1.298 0 0 0-.007 2.213l1.827 1.135c-1.009.108-2.09.191-3.029.19-.631.001-1.194-.039-1.576-.113a2.147 2.147 0 0 1-.402-.111l-.02-.01c-.173-.2-.464-.671-.749-1.306-.464-1.014-.955-2.429-1.398-3.978a58.533 58.533 0 0 1-1.155-4.835l-.001-.002-.007-.105c-.005-.222.092-.721.319-1.33.391-1.077 1.136-2.509 2.027-4.002 1.337-2.245 3.002-4.651 4.327-6.486a133.036 133.036 0 0 1 2.136-2.872l.171-.221a1.3 1.3 0 0 0-.183-1.79l-.366-.313c-.827-.709-2.95-2.542-5.231-4.61-2.279-2.064-4.73-4.381-6.158-5.987a1.3 1.3 0 0 0-1.942 1.729 54.797 54.797 0 0 0 2.554 2.63c-.026.088-.066.169-.073.264a32.266 32.266 0 0 0-.071 2.152c.004 5.226 1.169 10.368 1.994 15.236-.174.309-.35.62-.509.922-.452.861-.836 1.684-1.118 2.454-.279.775-.471 1.486-.477 2.224 0 .196.015.398.056.606v-.003c.433 2.226 1.027 4.601 1.692 6.639a26.51 26.51 0 0 0 1.047 2.757c.372.804.736 1.47 1.221 2.014.281.307.594.485.897.616.306.128.62.204.94.264.571 3.021.962 5.767.981 8.08a1.3 1.3 0 1 0 2.6-.023c-.023-2.397-.389-5.056-.91-7.907 1.379-.039 2.833-.19 4.017-.347a53.268 53.268 0 0 0 2.358-.362 1.299 1.299 0 0 0 .453-2.383l-3.079-1.912 3.019-1.849c.414-.253.651-.713.618-1.198a1.298 1.298 0 0 0-.776-1.102l-1.927-.843c1.572-.92 3.425-2.036 5.301-3.236 2.424-1.552 4.878-3.237 6.818-4.839.971-.803 1.815-1.583 2.477-2.349.331-.383.618-.764.851-1.16.232-.396.418-.809.505-1.28.184-1.005.27-2.006.27-2.997-.001-3.263-.926-6.395-2.306-9.295-2.075-4.35-5.182-8.21-7.967-11.305-.059-.065-.116-.125-.174-.19a7.74 7.74 0 0 1 1.605-.17c1.539.012 3.401.438 5.316 2.293a1.301 1.301 0 0 0 1.718.088c4.75-3.77 8.493-4.692 11.129-4.697 1.566 0 2.761.332 3.556.653.397.16.693.317.88.428.094.055.16.099.199.125l.037.025.002.002.001-.001c.479.36 1.147.347 1.61-.036a1.302 1.302 0 0 0 .332-1.585c-3.668-7.315-8.969-11.373-13.88-13.531Zm-133.285-2.147c-.027 1.018-.077 2.026-.135 2.477-.017.134.006.26.028.385-.07.358-.083.595-.086.649v.014c-.015.429-.024.845-.024 1.252 0 .319.008.632.023.94a8.882 8.882 0 0 1-.407-.111c-.43-.126-.845-.286-1.116-.44a1.472 1.472 0 0 1-.278-.19l-.012-.012a3.101 3.101 0 0 1-.057-.427 10.104 10.104 0 0 1-.025-.762c0-.73.057-1.612.148-2.342.045-.364.098-.693.15-.933.026-.12.052-.218.07-.278l.002-.004a2.2 2.2 0 0 1 .179-.171c.342-.303.953-.746 1.565-1.162-.007.365-.015.74-.025 1.115Zm111.768-29.62-.648 1.16a1.3 1.3 0 1 1-2.27-1.267l.648-1.16a1.3 1.3 0 0 1 2.27 1.267Zm-13.006-43.22c.084-.025 1.917-.555 4.664-.556 1.818 0 4.039.234 6.403 1.02 2.364.784 4.869 2.126 7.214 4.309a1.3 1.3 0 0 1-1.771 1.903c-2.06-1.915-4.215-3.064-6.262-3.745a17.744 17.744 0 0 0-5.584-.887c-2.333-.001-3.917.445-3.937.452a1.3 1.3 0 0 1-.727-2.497Zm-52.82-.54c3.553-2.476 8.16-3.633 12.28-3.641 2.644.006 5.097.472 7.003 1.54a1.3 1.3 0 0 1-1.278 2.264c-1.321-.755-3.402-1.21-5.724-1.204-3.628-.008-7.82 1.079-10.789 3.171a1.3 1.3 0 1 1-1.491-2.13Zm3.933 39.482-1.02.852a1.3 1.3 0 0 1-1.668-1.994l1.019-.852a1.3 1.3 0 0 1 1.669 1.994Zm4.364 1.101-1.019.853a1.3 1.3 0 1 1-1.669-1.994l1.019-.853a1.3 1.3 0 1 1 1.669 1.994ZM81.41 73c-2.914-.002-5.86-.745-8.234-2.564a17.458 17.458 0 0 1-4.291-4.845c-1.183-1.993-2.019-4.365-2.02-6.96-.008-2.555.845-5.284 2.79-7.821 1.383-1.817 3.067-3.114 4.84-3.932a12.841 12.841 0 0 1 5.393-1.168c1.81.002 3.528.362 5.035.985 1.504.628 2.81 1.508 3.762 2.686.766.958 1.44 2.07 1.932 3.305.49 1.235.8 2.6.8 4.04a9.71 9.71 0 0 1-.685 3.594 9.693 9.693 0 0 1-3.561 4.46c-1.528 1.035-3.307 1.603-5.112 1.605-1.924.006-3.901-.676-5.441-2.121-.953-.89-1.664-1.857-2.131-2.861a7.134 7.134 0 0 1-.688-3.023c0-1.109.274-2.146.735-3.036a6.112 6.112 0 0 1 1.903-2.2c1.066-.753 2.252-1.132 3.365-1.128 1.189 0 2.238.408 3.041.98.806.58 1.404 1.301 1.768 2.167a4.51 4.51 0 0 1 .329 1.72c-.009 1.056-.296 1.744-.344 1.883a1.998 1.998 0 0 1-3.723-1.453h-.004l.002-.007.026-.09c.022-.089.044-.224.043-.333a.556.556 0 0 0-.028-.198c-.013-.05-.167-.281-.383-.427a1.249 1.249 0 0 0-.727-.242c-.251.005-.574.063-1.07.405h-.002a2.13 2.13 0 0 0-.644.763 2.597 2.597 0 0 0-.287 1.196c0 .4.084.839.313 1.333.23.492.612 1.044 1.237 1.628.77.714 1.686 1.038 2.71 1.044.952.002 1.976-.31 2.864-.915a5.687 5.687 0 0 0 2.09-2.625 5.697 5.697 0 0 0 .404-2.12c0-.86-.186-1.73-.517-2.56a9.044 9.044 0 0 0-1.337-2.283c-.392-.498-1.163-1.079-2.172-1.492a9.26 9.26 0 0 0-3.504-.68c-1.24 0-2.514.245-3.714.8-1.2.556-2.336 1.415-3.337 2.725-1.458 1.926-1.963 3.698-1.971 5.396-.002 1.718.56 3.405 1.46 4.917a13.492 13.492 0 0 0 3.29 3.717c1.48 1.147 3.554 1.737 5.795 1.735 1.82.002 3.725-.39 5.388-1.093 1.666-.698 3.077-1.706 3.984-2.836a2 2 0 0 1 3.113 2.512c-1.432 1.769-3.383 3.098-5.545 4.011a18.08 18.08 0 0 1-6.94 1.406Zm39.868 10.435a1.3 1.3 0 0 1-1.791.414c-.697-.445-1.804-.745-2.758-.738-.608-.003-1.146.118-1.469.288-1.078.55-2.187.936-3.369.94-1.123.008-2.268-.392-3.244-1.18-.403-.32-.723-.518-.987-.63a1.88 1.88 0 0 0-.779-.16c-.453-.003-1.144.145-2.176.52a7.867 7.867 0 0 1-2.651.455 7.382 7.382 0 0 1-2.29-.352c-.715-.236-1.377-.587-1.921-1.106a3.203 3.203 0 0 0-1.025-.68 3.105 3.105 0 0 0-1.178-.214c-.573 0-1.263.127-2.073.41-.837.291-1.61.455-2.37.455a5.22 5.22 0 0 1-2.257-.522c-.69-.325-1.322-.757-2.009-1.264a1.3 1.3 0 1 1 1.545-2.09c.635.47 1.145.803 1.567 1 .426.196.748.273 1.153.276.381 0 .86-.082 1.515-.31 1.008-.352 1.979-.554 2.929-.555.74 0 1.468.128 2.148.402.68.272 1.303.687 1.853 1.214.183.179.509.376.934.514.424.14.941.223 1.479.222.592 0 1.208-.098 1.77-.301 1.147-.41 2.093-.67 3.057-.673a4.509 4.509 0 0 1 1.803.368c.564.243 1.07.581 1.581.987.598.464 1.067.605 1.626.613.585.003 1.317-.207 2.184-.653.825-.419 1.736-.572 2.654-.574 1.439.006 2.916.38 4.135 1.132a1.3 1.3 0 0 1 .414 1.792Zm.982-9.026a17.65 17.65 0 0 1-3.492-4.745c-.943-1.88-1.591-4.046-1.592-6.365a11.868 11.868 0 0 1 .862-4.46c.599-1.488 1.533-2.94 2.823-4.295 1.365-1.435 2.912-2.46 4.509-3.11a12.71 12.71 0 0 1 4.81-.933c2.101.002 4.08.494 5.767 1.301 1.684.815 3.101 1.93 4.027 3.37 1.137 1.798 1.969 4.038 1.975 6.487a9.78 9.78 0 0 1-1.134 4.611 9.706 9.706 0 0 1-3.605 3.806 9.283 9.283 0 0 1-4.738 1.327 8.273 8.273 0 0 1-3.294-.67 7.799 7.799 0 0 1-2.823-2.083c-1.492-1.724-2.206-3.637-2.2-5.414a6.637 6.637 0 0 1 .925-3.398 6.16 6.16 0 0 1 2.308-2.261c.95-.524 1.949-.788 2.897-.786 1.32-.002 2.474.5 3.306 1.183.837.691 1.413 1.531 1.702 2.5.125.433.169.847.169 1.218a5.223 5.223 0 0 1-.272 1.633c-.133.4-.265.655-.305.73a1.997 1.997 0 0 1-3.542-1.851l-.003-.001.006-.012.047-.124c.039-.114.071-.276.069-.375l-.012-.108c-.007-.057-.158-.335-.382-.506a1.212 1.212 0 0 0-.783-.287c-.23.002-.533.054-.973.293a2.18 2.18 0 0 0-.793.797 2.638 2.638 0 0 0-.364 1.355c.006.733.261 1.663 1.234 2.806.401.466.862.794 1.38 1.02.517.224 1.095.34 1.703.341a5.295 5.295 0 0 0 2.689-.762 5.703 5.703 0 0 0 2.119-2.243 5.765 5.765 0 0 0 .669-2.74c.006-1.5-.549-3.084-1.352-4.34-.373-.605-1.227-1.364-2.38-1.909a9.456 9.456 0 0 0-4.037-.908 8.71 8.71 0 0 0-3.299.637c-1.083.443-2.136 1.13-3.122 2.164-.975 1.024-1.609 2.038-2.011 3.033a7.863 7.863 0 0 0-.573 2.964c-.001 1.56.446 3.134 1.168 4.57a13.68 13.68 0 0 0 2.687 3.654c.815.783 1.854 1.384 3.054 1.791 1.198.407 2.55.613 3.928.612a14.243 14.243 0 0 0 4.757-.815c1.472-.527 2.744-1.295 3.641-2.19a2 2 0 1 1 2.82 2.837c-1.41 1.399-3.183 2.424-5.109 3.117a18.232 18.232 0 0 1-6.109 1.051c-1.77 0-3.543-.258-5.212-.823-1.667-.566-3.238-1.444-4.54-2.694Zm6.809 9.577.647-1.16a1.3 1.3 0 1 1 2.271 1.265l-.647 1.16a1.3 1.3 0 1 1-2.271-1.265Zm.131 60.427c.782.722 1.566 1.435 2.316 2.108a264.13 264.13 0 0 0 3.748 3.294 128.017 128.017 0 0 0-3.929 5.506c-.234.348-.466.704-.698 1.06-.723-3.995-1.443-7.993-1.44-11.878l.003-.09Z"/><path fill="#FFD93A" d="M27.012 84.358c-.41-.466-.655-.868-.799-1.212a2.354 2.354 0 0 1-.194-.927c0-.368.088-.758.26-1.202.254-.667.7-1.422 1.127-2.287.42-.862.832-1.87.835-3.068a5.246 5.246 0 0 0-.64-2.477c-.44-.832-1.103-1.647-2.023-2.482a1.3 1.3 0 0 0-1.747 1.926c.758.686 1.213 1.28 1.472 1.77.258.495.336.88.338 1.263 0 .38-.09.777-.26 1.226-.255.672-.7 1.426-1.126 2.286-.418.857-.832 1.856-.836 3.045a4.964 4.964 0 0 0 .395 1.93c.273.65.686 1.29 1.245 1.926.41.466.659.857.798 1.167.14.312.178.537.18.739 0 .09-.01.178-.028.273a1.3 1.3 0 1 0 2.554.488c.046-.242.073-.497.073-.761a4.368 4.368 0 0 0-.41-1.81c-.273-.604-.675-1.2-1.214-1.813Z"/></svg>