<svg width="200" height="200" viewBox="0 0 200 200" xmlns="http://www.w3.org/2000/svg"><g id="type=benefits, mode=light"><g id="Layer 8"><path id="Vector" d="M171.592 133.634C170.663 131.621 158.588 121.094 158.588 121.094C158.588 121.094 177.938 98.4927 178.558 96.4805C180.018 91.7363 159.362 87.6563 159.362 87.6563C159.348 92.3345 158.881 97.0004 157.969 101.589C156.58 108.947 146.668 120.785 143.881 121.404C141.095 122.023 118.803 124.345 116.635 124.5C114.468 124.655 111.789 133.645 111.789 133.645C111.789 133.645 109.05 128.68 93.7241 125.274C78.3984 121.868 55.7969 121.714 55.7969 121.714C38.9229 113.664 40.3159 87.3467 40.3159 87.3467C32.5756 88.2754 20.5009 92.9199 20.5009 95.3965C20.5009 97.8735 40.1611 121.714 40.1611 121.714C40.1611 121.714 30.7177 131.312 29.4795 133.789C28.2412 136.266 20.501 162.892 17.8691 177.444C17.8691 177.444 38.8452 186.5 101.929 186.5C165.012 186.5 184.286 178.218 184.286 178.218C182.273 163.511 172.521 135.646 171.592 133.634Z"/><path id="Vector_2" d="M153.092 55.4633L148.031 43.7168C143.845 46.6406 140.441 48.9746 139.508 49.4966C136.606 51.122 125.924 51.8188 125.924 51.8188L126.157 50.0771L125.692 46.3618C125.692 46.3618 127.55 38.8149 139.276 33.3579C140.156 32.9487 141.074 32.5786 142.017 32.2373L140.94 30.2231C140.94 30.2231 134.046 17.3999 123.743 16.5415C113.44 15.6826 107.062 21.4472 101.91 20.7114C96.759 19.9756 91.2395 15.3149 82.4084 15.8056C73.5774 16.2959 67.9358 18.9946 61.4348 29.1748C56.8609 36.6794 52.8435 44.5093 49.4148 52.6015C49.4148 52.6015 27.7053 48.0634 21.0818 57.2627C16.3445 63.8418 25.988 69.1601 37.0266 71.6128C48.0657 74.0659 75.2502 74.2188 95.7781 70.8769C113.281 68.1455 130.478 63.7188 147.124 57.6591L147.339 57.5859C150.318 61.6761 152.972 65.9939 155.275 70.4995C155.275 70.4995 180.353 70.6543 181.902 57.0317C182.759 49.4863 163.361 53.0605 153.092 55.4633Z"/><path id="Vector_3" d="M78.4249 84.1697C79.8774 84.1697 81.0549 82.9922 81.0549 81.5397C81.0549 80.0872 79.8774 78.9097 78.4249 78.9097C76.9724 78.9097 75.7949 80.0872 75.7949 81.5397C75.7949 82.9922 76.9724 84.1697 78.4249 84.1697Z"/><path id="Vector_4" d="M122.089 84.1697C123.541 84.1697 124.719 82.9922 124.719 81.5397C124.719 80.0872 123.541 78.9097 122.089 78.9097C120.636 78.9097 119.459 80.0872 119.459 81.5397C119.459 82.9922 120.636 84.1697 122.089 84.1697Z"/><path id="Vector_5" d="M89.8437 97.1282C91.4039 97.6791 93.0225 98.0485 94.6672 98.2291C96.4894 98.4486 98.3233 98.5552 100.159 98.5483C102.263 98.5527 104.365 98.4238 106.453 98.1623C107.384 98.0404 108.233 97.8935 108.976 97.7217C109.634 97.5821 110.277 97.3754 110.893 97.105C111.203 96.9573 111.443 96.6927 111.558 96.3691C111.674 96.0455 111.657 95.6892 111.511 95.3781C111.365 95.067 111.101 94.8266 110.778 94.7092C110.455 94.5919 110.099 94.6072 109.787 94.752C109.337 94.9428 108.868 95.0891 108.389 95.1887C106.194 95.6343 103.962 95.8796 101.722 95.9215L101.482 95.9213L101.482 95.9085C101.437 95.0709 101.36 93.4849 101.32 91.9113C104.282 91.0418 107.397 87.2207 107.234 84.6023C107.017 81.1433 94.7146 81.2752 93.4704 84.242C92.6664 86.1596 95.77 90.5628 98.716 91.7738C98.7527 93.3847 98.8303 95.0033 98.8787 95.9193L98.5611 95.9191C97.3389 95.8785 96.1284 95.7931 94.9929 95.6496C93.5516 95.4937 92.1329 95.174 90.7641 94.6966C90.4417 94.5745 90.0839 94.5856 89.7696 94.7273C89.4553 94.869 89.2101 95.1297 89.0881 95.4522C88.966 95.7747 88.9771 96.1324 89.1188 96.4467C89.2605 96.761 89.5212 97.0062 89.8437 97.1282L89.8437 97.1282Z"/><path id="Vector_6" d="M17.5194 179.658C17.6882 179.684 17.8604 179.676 18.0261 179.635C18.1919 179.594 18.3479 179.521 18.4853 179.419C18.6228 179.318 18.7389 179.191 18.8272 179.044C18.9154 178.898 18.974 178.736 18.9995 178.567C19.0293 178.37 19.0667 178.143 19.1063 177.908C19.4385 175.934 20.106 172.657 20.9714 168.768C22.4253 162.231 24.4359 153.947 26.3593 147.016C27.3206 143.552 28.2612 140.424 29.0917 138.038C29.5063 136.846 29.8944 135.839 30.2333 135.086C30.4022 134.709 30.5591 134.396 30.6925 134.164C30.7721 134.015 30.8664 133.875 30.9739 133.745C34.0162 130.468 41.2076 122.348 41.2117 122.343C41.417 122.112 41.5328 121.814 41.5382 121.504C41.5436 121.195 41.4383 120.893 41.2413 120.654C41.2407 120.653 41.0035 120.366 40.5777 119.846C39.0875 118.029 35.3034 113.389 31.4662 108.501C30.0031 106.637 28.5341 104.739 27.181 102.947C31.6136 105.911 36.634 108.91 37.888 109.654C38.2876 110.347 39.3714 112.194 40.7513 114.276C41.6223 115.589 42.6058 116.988 43.6107 118.242C44.4965 119.407 45.5234 120.457 46.668 121.369C46.9088 121.539 47.1735 121.672 47.4535 121.765C48.011 121.943 48.5841 122.069 49.1652 122.14C51.4657 122.463 55.1258 122.572 59.6394 122.729C64.1442 122.884 69.4671 123.077 74.9384 123.536C81.7293 124.106 89.2148 125.274 94.2938 126.215C95.8531 126.498 97.3957 126.867 98.9148 127.318C100.29 127.932 101.541 128.793 102.604 129.86C103.591 130.961 104.304 132.279 104.687 133.707C104.985 134.683 105.57 136.306 106.31 138.269C107.417 141.208 108.862 144.873 110.121 147.974C110.75 149.525 111.333 150.934 111.807 152.043C112.043 152.598 112.252 153.078 112.428 153.467C112.605 153.859 112.741 154.149 112.864 154.375C113.048 154.7 113.319 154.968 113.647 155.148C114.109 155.393 114.607 155.563 115.123 155.651C116.066 155.822 117.02 155.928 117.977 155.967C119.059 156.026 120.253 156.048 121.48 156.048C123.424 156.048 125.448 155.993 127.191 155.938C128.93 155.883 130.402 155.829 131.179 155.829C131.406 155.828 131.579 155.835 131.621 155.84C132.274 155.871 132.911 156.051 133.485 156.365C133.732 156.519 133.947 156.719 134.118 156.955L134.128 156.976L134.147 157.02L134.15 157.027L134.151 157.027C134.191 157.102 134.239 157.173 134.294 157.239C134.384 157.411 134.459 157.591 134.518 157.777C134.525 157.799 134.542 157.814 134.55 157.836C135.901 161.945 136.858 166.172 137.409 170.462C137.896 174.156 138.004 177.002 138.094 178.454C138.209 180.288 138.266 182.014 138.295 183.279C138.309 183.911 138.317 184.428 138.32 184.786C138.324 185.144 138.324 185.338 138.324 185.339C138.324 185.366 138.338 185.389 138.339 185.416C138.358 185.753 138.507 186.07 138.756 186.298C139.004 186.526 139.332 186.648 139.669 186.638C140.007 186.628 140.327 186.487 140.561 186.244C140.795 186.001 140.926 185.676 140.924 185.339L140.924 185.24C140.922 184.689 140.902 181.696 140.689 178.292C140.602 176.897 140.489 173.928 139.986 170.122C139.404 165.572 138.38 161.09 136.928 156.74C136.897 156.673 136.86 156.609 136.818 156.549C136.713 156.286 136.586 156.031 136.44 155.788C135.856 154.528 135.048 153.384 134.056 152.412C133.47 151.859 131.971 150.494 129.981 148.695C129.086 147.886 128.087 146.984 127.04 146.041C128.096 145.577 128.994 144.815 129.625 143.849C130.256 142.883 130.592 141.755 130.593 140.601L130.591 140.462C130.556 138.91 129.915 137.434 128.805 136.348C127.694 135.263 126.204 134.655 124.651 134.654L124.512 134.656C123.272 134.685 122.073 135.1 121.082 135.844C120.09 136.589 119.356 137.624 118.983 138.806C116.57 136.646 114.401 134.712 112.932 133.411C113.558 131.651 114.272 129.924 115.072 128.236C115.398 127.589 115.837 127.004 116.368 126.51C116.811 126.113 117.366 125.862 117.957 125.79C118.271 125.758 125.546 125.014 133.439 123.96C137.472 123.421 141.66 122.803 145.168 122.154C146.923 121.829 148.508 121.498 149.83 121.16C150.922 120.914 151.984 120.551 152.998 120.079C153.651 119.718 154.25 119.266 154.777 118.738C155.822 117.68 156.761 116.522 157.58 115.28C159.3 112.675 160.841 109.956 162.19 107.141C163.281 106.638 166.304 105.228 169.513 103.566C170.547 103.03 171.598 102.468 172.613 101.901C172.519 102.022 172.427 102.141 172.331 102.263C169.232 106.223 165.394 110.819 162.335 114.419C160.806 116.22 159.47 117.772 158.518 118.874C157.565 119.976 156.998 120.624 156.997 120.626C156.882 120.757 156.794 120.91 156.74 121.076C156.685 121.242 156.665 121.417 156.679 121.591C156.694 121.765 156.744 121.934 156.825 122.089C156.907 122.243 157.019 122.38 157.154 122.49C157.155 122.49 157.308 122.615 157.586 122.843C158.558 123.639 161.034 125.679 163.59 127.869C164.868 128.964 166.166 130.096 167.302 131.126C168.437 132.154 169.416 133.086 170.026 133.745C170.197 133.959 170.345 134.191 170.466 134.437C171.009 135.517 171.485 136.629 171.893 137.767C173.804 142.86 176.343 151.547 178.506 159.705C179.589 163.786 180.58 167.74 181.359 171.059C182.137 174.374 182.704 177.073 182.929 178.568C182.942 178.611 182.958 178.654 182.976 178.696C183.057 179.018 183.259 179.297 183.54 179.473C183.822 179.65 184.16 179.711 184.486 179.645C184.811 179.578 185.098 179.388 185.287 179.115C185.476 178.842 185.552 178.506 185.5 178.178C185.195 176.173 184.408 172.574 183.344 168.18C181.749 161.598 179.536 153.287 177.432 146.294C176.379 142.797 175.355 139.631 174.441 137.16C173.983 135.923 173.554 134.861 173.153 134.002C172.952 133.572 172.758 133.193 172.563 132.86C172.385 132.544 172.173 132.247 171.931 131.976C171.12 131.103 169.917 129.976 168.541 128.743C165.501 126.019 161.649 122.819 159.834 121.325C161.271 119.669 164.298 116.16 167.593 112.214C169.878 109.479 172.287 106.539 174.379 103.866C176.133 101.691 177.771 99.4247 179.288 97.0777C179.291 97.0723 179.291 97.0661 179.294 97.0607C179.571 96.6325 179.718 96.1338 179.718 95.6243C179.712 95.1404 179.597 94.6641 179.382 94.2305C178.923 93.3645 178.271 92.6159 177.476 92.0426C175.574 90.684 173.474 89.6255 171.251 88.9042C167.709 87.6871 164.08 86.7365 160.395 86.0602C160.038 81.2798 158.931 76.5852 157.116 72.1481C165.18 71.6303 171.594 69.5031 176.088 66.7822C178.182 65.5676 180.041 63.9888 181.58 62.1203C182.796 60.7182 183.512 58.9521 183.616 57.099C183.621 56.3998 183.474 55.7079 183.186 55.0707C182.717 54.0846 181.945 53.2735 180.984 52.7547C179.857 52.1534 178.619 51.787 177.346 51.6777C175.948 51.5262 174.543 51.452 173.137 51.4555C167.328 51.46 160.9 52.6005 153.782 54.3176C153.774 54.2886 153.779 54.2593 153.769 54.2305C152.645 50.9013 151.341 47.6356 149.863 44.4479C157.548 39.5082 166.452 33.7131 172.143 29.9994C172.648 29.6748 173.061 29.226 173.343 28.696C173.6 28.2053 173.733 27.6595 173.732 27.1057C173.732 26.2155 173.399 25.3575 172.8 24.699C172.477 24.345 172.082 24.063 171.642 23.8712C171.202 23.6794 170.727 23.5822 170.247 23.5858L170.008 23.5933C160.85 24.2869 151.851 26.3664 143.317 29.761C143.015 29.8843 142.719 30.0144 142.42 30.1415C139.773 26.3529 136.636 22.9311 133.091 19.965C131.369 18.5394 129.475 17.335 127.453 16.3799C125.604 15.4926 123.587 15.012 121.537 14.9708C121.435 14.9708 121.333 14.9722 121.231 14.975C115.012 15.1442 110.486 16.7904 105.953 18.3123C104.883 18.671 103.809 19.0226 102.709 19.3531C102.668 19.3546 102.63 19.3394 102.589 19.3448C102.219 19.3935 101.847 19.418 101.474 19.4181C100.215 19.3952 98.9705 19.1459 97.7998 18.6822C95.9287 18.001 93.9048 16.8936 91.381 15.9351C88.3822 14.7748 85.1926 14.1863 81.9771 14.1999C80.764 14.2022 79.552 14.2737 78.3471 14.4141C74.582 14.9724 71.0595 16.6102 68.2061 19.1291C63.5374 22.9698 59.4265 28.6664 55.8853 34.9774C53.0398 40.1333 50.5613 45.4833 48.4682 50.9877C45.2908 50.5101 42.0831 50.2628 38.87 50.2476C33.48 50.2523 28.7878 51.0061 25.2954 52.5744C23.6621 53.2572 22.2072 54.3054 21.0425 55.6385C19.9706 56.9095 19.3836 58.5192 19.3857 60.1819C19.4003 61.3033 19.6238 62.4121 20.0447 63.4515C20.4638 64.4807 21.1016 65.4064 21.9139 66.1646C23.6466 67.7048 25.6646 68.8903 27.8536 69.6536C32.3839 71.2571 37.0876 72.3207 41.8671 72.8224C42.2622 72.872 42.6697 72.9157 43.0725 72.9617C41.4225 77.1266 40.3119 81.4854 39.7674 85.932C32.2611 87.359 27.3491 88.9828 24.2167 90.5764C22.93 91.1857 21.751 92.0001 20.7257 92.9878C20.3529 93.3626 20.0392 93.7919 19.7953 94.261C19.5681 94.6978 19.4462 95.1817 19.4393 95.6741C19.4397 96.1659 19.5815 96.6472 19.8477 97.0607C19.8509 97.0661 19.8506 97.0723 19.8538 97.0776H19.8538C20.8889 98.7806 22.5973 101.171 24.6018 103.845C29.5812 110.483 36.3555 118.797 38.5296 121.449C38.3977 121.598 38.2556 121.758 38.0946 121.939C35.932 124.373 31.3128 129.559 29.0686 131.975C28.7408 132.354 28.4639 132.773 28.2449 133.223C27.6651 134.407 27.1635 135.628 26.7433 136.878C24.8803 142.154 22.556 150.855 20.562 159.065C19.566 163.167 18.6551 167.141 17.9324 170.488C17.2094 173.839 16.6761 176.548 16.4287 178.178C16.4032 178.347 16.4111 178.519 16.4521 178.685C16.4931 178.85 16.5663 179.006 16.6676 179.144C16.7688 179.281 16.8962 179.397 17.0424 179.486C17.1885 179.574 17.3506 179.632 17.5194 179.658ZM121.306 140.675L121.305 140.596C121.305 139.723 121.647 138.884 122.258 138.26C122.868 137.636 123.699 137.275 124.572 137.255L124.651 137.254C125.525 137.255 126.363 137.597 126.987 138.207C127.612 138.818 127.972 139.648 127.992 140.522L127.993 140.601C127.993 141.474 127.65 142.312 127.04 142.937C126.429 143.561 125.599 143.922 124.726 143.942L124.711 143.945C123.576 142.924 122.417 141.884 121.273 140.858C121.289 140.798 121.3 140.737 121.306 140.675L121.306 140.675ZM121.296 144.372C123.786 146.608 126.253 148.829 128.238 150.623C129.389 151.664 130.373 152.558 131.108 153.23C130.227 153.233 128.806 153.286 127.109 153.339C125.375 153.394 123.376 153.448 121.48 153.448C119.872 153.466 118.265 153.402 116.664 153.256C116.174 153.211 115.688 153.125 115.212 152.998C115.145 152.979 115.094 152.96 115.051 152.943C114.951 152.736 114.799 152.408 114.621 152.001C113.735 149.989 112.101 145.986 110.578 142.11C109.816 140.171 109.08 138.261 108.476 136.642C107.873 135.026 107.398 133.688 107.174 132.95C106.983 132.328 106.751 131.719 106.479 131.127C107.68 132.102 108.633 133.097 109.749 134.072C111.234 135.362 116.318 139.902 121.296 144.372H121.296ZM173.884 92.8515C174.881 93.3251 175.793 93.9593 176.585 94.7288C176.766 94.9132 176.918 95.1236 177.037 95.3531C177.083 95.4366 177.111 95.5291 177.118 95.6242L177.108 95.6632C176.801 96.042 176.445 96.3783 176.049 96.6636C174.749 97.6252 173.387 98.499 171.971 99.2793C169.517 100.679 166.686 102.107 164.477 103.181C163.372 103.717 162.422 104.166 161.748 104.48C161.412 104.637 161.145 104.76 160.962 104.844C160.779 104.928 160.683 104.972 160.683 104.972C160.4 105.1 160.171 105.326 160.04 105.609L159.987 105.721C159.717 106.293 158.435 108.957 156.799 111.673C156.011 113.008 155.138 114.29 154.185 115.513C153.535 116.409 152.724 117.177 151.792 117.776C150.955 118.151 150.082 118.44 149.187 118.641C148.931 118.706 148.66 118.772 148.379 118.838C151.651 115.777 154.346 112.153 156.336 108.139C159.192 102.159 160.619 95.5979 160.507 88.9723C160.507 88.8907 160.5 88.8094 160.499 88.7278C167.078 90.0492 171.334 91.5249 173.884 92.8515H173.884ZM177.06 54.2619C178.198 54.3164 179.295 54.7024 180.216 55.3723C180.473 55.5795 180.679 55.8429 180.818 56.1423C180.956 56.4417 181.025 56.769 181.017 57.0989C180.905 58.3684 180.385 59.5675 179.534 60.5161C177.251 63.1312 174.366 65.1512 171.127 66.4015C166.322 68.364 161.205 69.4543 156.017 69.6213C154.098 65.5525 151.687 61.7349 148.837 58.2542C158.165 55.7884 166.27 54.0497 173.137 54.0555C174.448 54.052 175.757 54.1209 177.06 54.2619H177.06ZM148.207 47.0377C148.166 47.0573 148.127 47.0767 148.081 47.097C147.21 47.4536 146.314 47.7429 145.399 47.9623C144.894 48.0936 144.341 48.2263 143.746 48.36C144.977 47.5779 146.287 46.7413 147.66 45.8617C147.853 46.2647 148.035 46.6567 148.207 47.0377H148.207ZM126.775 48.1307C126.733 47.7746 126.702 47.4834 126.704 47.3151L126.709 47.1993L126.712 47.1742L126.713 47.1721C127.122 45.7443 127.763 44.3934 128.61 43.1729L128.501 48.5199C127.939 49.0401 127.376 49.5735 126.815 50.12C126.845 49.8783 126.86 49.6351 126.862 49.3915C126.857 48.9699 126.828 48.5489 126.774 48.1306L126.775 48.1307ZM150.05 30.1063C150.374 30.0035 150.696 29.8929 151.022 29.7942C157.253 27.8894 163.676 26.68 170.173 26.1881L170.248 26.1857C170.366 26.181 170.485 26.2025 170.594 26.2487C170.704 26.2948 170.802 26.3645 170.881 26.4527C171.042 26.6326 171.131 26.8647 171.132 27.1056C171.134 27.238 171.103 27.3686 171.042 27.4861C170.966 27.624 170.856 27.7398 170.722 27.822C169.86 28.3846 168.911 29.0035 167.916 29.6518C159.586 35.0808 147.164 43.1452 139.744 47.8159C138.134 48.8788 136.323 49.5991 134.423 49.9321C133.064 50.1688 131.761 50.1929 130.348 50.3541C138.395 43.0056 147.683 37.1449 157.78 33.0451C158.096 32.9093 158.345 32.6538 158.473 32.3347C158.601 32.0156 158.598 31.6588 158.463 31.3423C158.329 31.0259 158.074 30.7757 157.756 30.6463C157.437 30.517 157.08 30.5191 156.763 30.6523C149.203 33.7634 142.057 37.8003 135.49 42.6705V41.7178C135.49 41.373 135.353 41.0424 135.11 40.7986C134.866 40.5548 134.535 40.4178 134.19 40.4178C133.846 40.4178 133.515 40.5548 133.271 40.7986C133.027 41.0424 132.89 41.373 132.89 41.7178V44.4811C132.898 44.5477 132.911 44.6135 132.93 44.6779C132.337 45.1589 131.744 45.6526 131.15 46.1589L131.274 40.0501C131.771 39.5722 132.29 39.101 132.85 38.6442C137.273 35.0308 143.548 32.1647 150.05 30.1063ZM61.7658 30.3797C64.0168 26.9357 66.7403 23.8248 69.8564 21.1383C72.3241 18.9388 75.3757 17.5006 78.6427 16.9972C79.7496 16.8681 80.863 16.8022 81.9773 16.7999C85.6914 16.8114 89.3545 17.6649 92.6911 19.2961C93.8817 19.8269 95.0234 20.357 96.1875 20.8265C94.1788 21.1206 92.1514 21.2677 90.1213 21.2667C87.9586 21.2598 85.7983 21.1239 83.6518 20.8597C83.3095 20.8187 82.9649 20.9154 82.6939 21.1286C82.4228 21.3417 82.2476 21.6537 82.2066 21.9961C82.1656 22.3384 82.2624 22.683 82.4755 22.954C82.6886 23.2251 83.0006 23.4003 83.343 23.4413C85.5919 23.7178 87.8554 23.8598 90.1213 23.8667C95.8132 23.8255 101.453 22.7796 106.781 20.777C111.369 19.2353 115.516 17.7355 121.303 17.574L121.537 17.5708C123.215 17.6129 124.865 18.0136 126.375 18.7461C129.184 20.1311 131.744 21.973 133.949 24.1966C136.161 26.3622 138.182 28.7148 139.989 31.2284C136.859 32.6746 133.911 34.4876 131.207 36.6292C130.561 37.1561 129.956 37.708 129.374 38.273C129.17 38.3838 129.001 38.5477 128.883 38.7473C126.692 40.8859 125.083 43.5474 124.206 46.4806C124.135 46.7529 124.1 47.0336 124.104 47.3151C124.112 47.6856 124.141 48.0553 124.191 48.4226C124.233 48.744 124.256 49.0675 124.262 49.3916C124.268 49.6922 124.226 49.9919 124.138 50.2793C124.037 50.5838 123.87 50.8624 123.649 51.0954C123.594 51.1682 123.546 51.247 123.508 51.3304C115.267 52.1582 106.109 52.7233 97.6981 52.7231C87.1006 52.7338 76.5125 52.0905 65.9942 50.7969C62.5247 50.3879 59.0829 49.7705 55.6875 48.9481C54.7664 48.727 53.8681 48.4198 53.0046 48.0305C52.8798 47.971 52.7602 47.9013 52.647 47.8221C52.6367 47.7813 52.6165 47.7466 52.6024 47.7073C55.0932 41.6505 58.1619 35.8478 61.7658 30.3797ZM49.5961 55.4088C50.1995 53.7132 50.8679 51.9665 51.5726 50.2057C52.2554 50.569 52.9727 50.8632 53.7139 51.084C56.0906 51.7782 58.511 52.3127 60.9589 52.684C73.1212 54.4897 85.4027 55.3719 97.6981 55.323C109.357 55.2465 121 54.436 132.558 52.8965C137.633 52.2144 141.981 51.4595 145.11 50.7133C146.391 50.4297 147.651 50.0523 148.877 49.5841C148.999 49.5332 149.104 49.4796 149.216 49.4279C149.905 51.1686 150.498 52.8777 151.26 54.9401C148.544 55.6284 145.73 56.3883 142.815 57.1912C142.661 57.2337 142.499 57.2792 142.344 57.3219C135.883 58.4214 114.795 61.5879 100.652 61.5834C100.386 61.5834 100.122 61.5823 99.8607 61.58C82.148 61.4277 69.2997 60.5168 60.9557 59.1888C57.847 58.7808 54.7918 58.0364 51.8437 56.9688C51.1453 56.7113 50.4924 56.3439 49.9096 55.8807C49.7935 55.7843 49.6942 55.6694 49.6158 55.5405L49.5846 55.4577L49.5961 55.4088ZM34.4231 68.9041C31.5617 68.3159 28.7907 67.3517 26.1823 66.0365C25.2883 65.568 24.4607 64.9825 23.7214 64.2953C23.1793 63.7979 22.7518 63.1886 22.4684 62.5096C22.1644 61.7704 22.0008 60.981 21.986 60.1819C21.9816 59.1213 22.3596 58.0946 23.0507 57.2901C24.6235 55.6647 26.6395 54.5376 28.8478 54.049C32.1185 53.1948 35.4904 52.7906 38.8702 52.8476C41.7686 52.8624 44.6625 53.0751 47.5319 53.4842C47.404 53.8346 47.2703 54.1897 47.1468 54.5366C47.0141 54.9021 46.9618 55.2919 46.9937 55.6795C47.0255 56.067 47.1407 56.4431 47.3314 56.782C47.7831 57.5263 48.4242 58.1373 49.1894 58.5526C51.1117 59.5767 53.1733 60.3145 55.3088 60.7428C60.9408 61.9445 66.6527 62.7352 72.3994 63.1087C79.7807 63.7038 88.8911 64.0851 99.8382 64.1799C100.107 64.1822 100.378 64.1834 100.652 64.1834C108.033 64.0701 115.403 63.5665 122.731 62.6746C116.486 64.2896 109.888 65.8582 102.892 67.1999C88.8981 69.8524 74.6902 71.2118 60.4475 71.261C50.3129 71.2625 41.2098 70.4668 34.4231 68.9041ZM129.496 83.3771C128.833 85.3327 125.728 85.3156 121.764 85.2433C117.802 85.1715 115.387 85.611 115.136 83.0529C114.925 80.9181 117.762 76.7614 121.764 76.82C126.701 76.8917 130.304 80.9991 129.496 83.3771ZM85.3778 83.0529C85.1253 85.611 82.7113 85.1715 78.7484 85.2433C74.785 85.3156 71.68 85.3327 71.0164 83.3771C70.2098 80.9991 73.8123 76.8917 78.7484 76.8199C82.7513 76.7613 85.5882 80.9181 85.3778 83.0528V83.0529ZM45.775 73.2405C49.8051 73.6079 54.1612 73.8095 58.7373 73.85C58.7197 73.9281 58.6973 74.003 58.6805 74.0816C56.4466 84.5299 61.4906 90.943 65.3817 93.1768C73.099 97.607 86.7108 94.546 89.5931 83.3048C90.5456 79.5556 90.8357 75.6688 90.4503 71.8198C94.7963 71.2471 99.1312 70.5684 103.381 69.7534C105.859 69.2782 108.27 68.7683 110.65 68.2457C109.565 73.2178 109.657 78.3748 110.92 83.3048C113.803 94.546 127.414 97.6071 135.131 93.1769C139.022 90.943 144.066 84.5299 141.832 74.0817C140.82 69.3768 138.176 65.1817 134.368 62.2389C137.525 61.3635 140.572 60.5067 143.506 59.6977C144.377 59.457 145.235 59.2224 146.087 58.991C153.583 67.8125 157.912 78.4376 157.907 88.9723C158.02 95.1988 156.683 101.366 154.004 106.988C151.481 112.041 147.793 116.421 143.243 119.767C143.209 119.801 143.178 119.836 143.148 119.874C142.316 120.018 141.455 120.161 140.571 120.301C135.511 121.104 129.779 121.831 125.317 122.357C123.085 122.62 121.171 122.833 119.815 122.979C118.46 123.126 117.667 123.206 117.665 123.207L117.632 123.211C116.531 123.348 115.497 123.813 114.664 124.546C113.539 125.626 112.667 126.941 112.11 128.398C111.653 129.451 111.261 130.544 110.864 131.579C109.424 130.125 107.842 128.819 106.143 127.679C104.19 126.472 102.083 125.534 99.8796 124.892L99.8415 124.872C99.7686 124.846 99.6933 124.827 99.6168 124.816C98.0225 124.342 96.4036 123.956 94.7673 123.658C89.6179 122.705 82.0799 121.527 75.156 120.945C68.3913 120.378 61.8944 120.213 56.8968 120.032C56.0485 120.002 55.2621 119.969 54.507 119.936C54.4266 119.788 54.3182 119.657 54.1876 119.551H54.1876C50.3426 116.492 47.2746 112.568 45.2337 108.099C42.9926 102.948 41.8905 97.3746 42.003 91.7589C42.0443 85.3996 43.3256 79.1093 45.775 73.2405ZM22.1203 95.4251C22.428 94.9173 22.8422 94.4823 23.3344 94.1501C25.0754 92.9539 26.9825 92.0195 28.9947 91.3767C32.4273 90.2091 35.9401 89.2924 39.5054 88.6337C39.4379 89.6736 39.4038 90.7154 39.403 91.7589C39.2903 97.7464 40.4721 103.688 42.8676 109.176C44.6709 113.129 47.2275 116.693 50.3944 119.668C49.7571 119.603 49.2207 119.528 48.8305 119.446C48.6552 119.412 48.4822 119.367 48.3126 119.311L48.1974 119.264L48.1945 119.263C47.2404 118.485 46.3826 117.597 45.6392 116.616C44.2402 114.823 42.9408 112.955 41.7468 111.02C41.2136 110.169 40.7694 109.428 40.4594 108.903C40.3045 108.64 40.1831 108.43 40.1008 108.287C40.0186 108.145 39.9774 108.072 39.9773 108.071C39.8644 107.872 39.7013 107.706 39.5042 107.59C39.5035 107.589 39.2616 107.447 38.8283 107.188C37.312 106.284 33.4804 103.975 29.8181 101.575C27.9878 100.376 26.1988 99.1521 24.776 98.082C24.0651 97.5477 23.4457 97.0511 22.9672 96.626C22.6262 96.3402 22.3155 96.0201 22.04 95.6706C22.0489 95.584 22.0763 95.5003 22.1203 95.4251Z"/><path id="Vector_7" d="M79.4811 175.261C80.6568 175.261 81.8061 174.913 82.7836 174.259C83.7612 173.606 84.5231 172.678 84.9731 171.592C85.423 170.506 85.5408 169.31 85.3115 168.157C85.0822 167.004 84.5161 165.945 83.6848 165.114C82.8535 164.282 81.7944 163.716 80.6413 163.487C79.4882 163.257 78.293 163.375 77.2068 163.825C76.1206 164.275 75.1922 165.037 74.539 166.014C73.8858 166.992 73.5372 168.141 73.5371 169.317C73.5372 170.893 74.1634 172.405 75.2781 173.52C76.3928 174.635 77.9046 175.261 79.4811 175.261ZM79.4811 165.973C80.1426 165.972 80.7892 166.169 81.3392 166.536C81.8892 166.903 82.3179 167.426 82.571 168.037C82.8242 168.648 82.8904 169.32 82.7614 169.969C82.6324 170.618 82.3138 171.214 81.8461 171.682C81.3784 172.149 80.7825 172.468 80.1337 172.597C79.485 172.726 78.8125 172.66 78.2014 172.407C77.5903 172.153 77.068 171.725 76.7006 171.175C76.3331 170.625 76.137 169.978 76.137 169.317C76.1383 168.43 76.491 167.58 77.1179 166.953C77.7447 166.326 78.5946 165.974 79.4811 165.973V165.973Z"/><path id="Vector_8" d="M131.172 169.317C131.172 168.141 130.823 166.992 130.17 166.014C129.517 165.037 128.588 164.275 127.502 163.825C126.416 163.375 125.221 163.257 124.068 163.487C122.915 163.716 121.856 164.282 121.024 165.114C120.193 165.945 119.627 167.004 119.397 168.157C119.168 169.31 119.286 170.505 119.736 171.591C120.186 172.678 120.947 173.606 121.925 174.259C122.902 174.912 124.052 175.261 125.227 175.261C126.804 175.261 128.316 174.635 129.431 173.52C130.545 172.405 131.172 170.893 131.172 169.317ZM121.883 169.317C121.883 168.655 122.079 168.009 122.447 167.459C122.814 166.909 123.337 166.48 123.948 166.227C124.559 165.974 125.231 165.908 125.88 166.037C126.529 166.166 127.125 166.484 127.592 166.952C128.06 167.42 128.379 168.016 128.508 168.665C128.637 169.313 128.57 169.986 128.317 170.597C128.064 171.208 127.635 171.73 127.085 172.098C126.535 172.465 125.889 172.661 125.227 172.661C124.341 172.66 123.491 172.307 122.864 171.68C122.237 171.053 121.884 170.203 121.883 169.317Z"/><path id="Vector_9" d="M79.5246 146.179C80.7003 146.179 81.8495 145.83 82.827 145.177C83.8045 144.523 84.5664 143.595 85.0162 142.509C85.4661 141.423 85.5838 140.227 85.3544 139.074C85.1249 137.921 84.5588 136.862 83.7274 136.031C82.896 135.2 81.8368 134.634 80.6838 134.404C79.5307 134.175 78.3355 134.293 77.2493 134.743C76.1632 135.193 75.2348 135.955 74.5817 136.932C73.9286 137.91 73.58 139.059 73.5801 140.235C73.5802 141.811 74.2066 143.323 75.3214 144.438C76.4362 145.552 77.9481 146.179 79.5246 146.179ZM79.5246 136.89C80.186 136.89 80.8325 137.086 81.3823 137.454C81.9322 137.821 82.3608 138.344 82.6138 138.955C82.8669 139.566 82.9331 140.238 82.804 140.887C82.675 141.535 82.3565 142.131 81.8888 142.599C81.4212 143.066 80.8254 143.385 80.1767 143.514C79.528 143.643 78.8557 143.577 78.2446 143.324C77.6336 143.071 77.1113 142.642 76.7438 142.092C76.3763 141.542 76.1801 140.896 76.1801 140.235C76.1813 139.348 76.5341 138.498 77.161 137.871C77.788 137.244 78.638 136.891 79.5246 136.89V136.89Z"/><path id="Vector_10" d="M40.1319 182.605L40.1051 182.898C40.0735 183.242 40.1797 183.584 40.4002 183.849C40.6206 184.114 40.9374 184.28 41.2807 184.312C41.6241 184.343 41.9659 184.237 42.2309 184.017C42.496 183.796 42.6626 183.48 42.6942 183.136L42.708 182.985C43.8137 170.932 45.6362 149.38 45.6364 149.379C45.6507 149.207 45.6309 149.034 45.5779 148.87C45.525 148.706 45.4401 148.554 45.3281 148.423L43.4707 146.256C43.3596 146.127 43.224 146.02 43.0718 145.943C42.9195 145.866 42.7535 145.819 42.5833 145.806C42.4131 145.793 42.242 145.814 42.0797 145.867C41.9174 145.92 41.7672 146.004 41.6376 146.115C41.508 146.226 41.4015 146.362 41.3243 146.514C41.247 146.666 41.2005 146.832 41.1874 147.003C41.1744 147.173 41.1949 147.344 41.248 147.506C41.301 147.668 41.3855 147.819 41.4966 147.948H41.4965L42.9998 149.702C42.9496 150.294 42.8602 151.346 42.7413 152.742C42.1788 159.347 40.9586 173.583 40.1319 182.605Z"/><path id="Vector_11" d="M161.736 146.115C161.606 146.004 161.456 145.92 161.294 145.867C161.131 145.814 160.96 145.793 160.79 145.806C160.62 145.819 160.454 145.866 160.302 145.943C160.149 146.02 160.014 146.127 159.903 146.256L159.903 146.256L158.045 148.423C157.823 148.683 157.711 149.02 157.736 149.362C157.736 149.366 159.283 171.096 160.389 183.136C160.401 183.189 160.417 183.241 160.436 183.292C160.502 183.612 160.687 183.894 160.953 184.082C161.219 184.27 161.547 184.349 161.87 184.304C162.192 184.26 162.486 184.094 162.691 183.841C162.896 183.587 162.997 183.266 162.974 182.941C162.973 182.926 162.98 182.913 162.978 182.898C162.428 176.906 161.765 168.471 161.241 161.54C160.978 158.074 160.75 154.983 160.588 152.758C160.486 151.354 160.41 150.299 160.367 149.71L161.877 147.948C161.988 147.819 162.072 147.668 162.126 147.506C162.179 147.344 162.199 147.173 162.186 147.003C162.173 146.832 162.126 146.666 162.049 146.514C161.972 146.362 161.865 146.226 161.736 146.115Z"/></g></g></svg>