<svg xmlns="http://www.w3.org/2000/svg" width="200" height="200" fill="none"><path fill="#BEBEC9" d="M57.408 73.81a25.118 25.118 0 0 0-.578 5.257 18.982 18.982 0 0 0 2.599 9.85 15.235 15.235 0 0 0 5.305 5.387c2.6 1.43 5.527 2.16 8.494 2.12a19.641 19.641 0 0 0 10.72-3.138 16.233 16.233 0 0 0 6.904-9.658 34.456 34.456 0 0 0 .84-12.407 1.3 1.3 0 1 0-2.582.301 31.86 31.86 0 0 1-.777 11.46 13.616 13.616 0 0 1-5.816 8.133 17.056 17.056 0 0 1-9.289 2.71 14.565 14.565 0 0 1-7.2-1.776 12.666 12.666 0 0 1-4.368-4.468 16.372 16.372 0 0 1-2.23-8.514c.007-1.585.182-3.165.52-4.713a1.3 1.3 0 0 0-2.542-.544ZM131.657 61.906a19.421 19.421 0 0 1 8.903 12.447c.339 1.549.514 3.129.521 4.714a16.367 16.367 0 0 1-2.23 8.514 12.67 12.67 0 0 1-4.368 4.468 14.564 14.564 0 0 1-7.2 1.775 17.057 17.057 0 0 1-9.288-2.71 13.614 13.614 0 0 1-5.816-8.132 31.865 31.865 0 0 1-.983-7.873 29.147 29.147 0 0 1 .881-7.245 1.303 1.303 0 0 0-.935-1.578 1.3 1.3 0 0 0-1.582.927 31.746 31.746 0 0 0-.964 7.896 34.469 34.469 0 0 0 1.064 8.519c1 3.975 3.466 7.425 6.904 9.657a19.643 19.643 0 0 0 10.719 3.14c2.967.04 5.894-.69 8.495-2.12a15.229 15.229 0 0 0 5.304-5.389 18.97 18.97 0 0 0 2.599-9.85 25.118 25.118 0 0 0-.578-5.256 22.022 22.022 0 0 0-10.061-14.104 1.301 1.301 0 0 0-1.385 2.2Z"/><path fill="#BEBEC9" d="M78.747 76.82c-4.936.072-8.538 4.18-7.731 6.557.663 1.955 3.768 1.939 7.731 1.866 3.964-.071 6.377.368 6.63-2.19.21-2.135-2.627-6.292-6.63-6.233Zm-.324 7.35a2.63 2.63 0 1 1 0-5.261 2.63 2.63 0 0 1 0 5.26ZM121.765 76.82c-4.003-.059-6.839 4.098-6.629 6.233.252 2.558 2.666 2.118 6.629 2.19 3.963.073 7.068.09 7.732-1.866.807-2.378-2.796-6.485-7.732-6.557Zm.324 7.35a2.63 2.63 0 1 1 0-5.26 2.63 2.63 0 0 1 0 5.26ZM111.515 95.375a1.303 1.303 0 0 0-1.73-.623 7.48 7.48 0 0 1-1.397.437 37.5 37.5 0 0 1-6.907.741l-.001-.022c-.045-.837-.122-2.423-.162-3.997 2.962-.87 6.077-4.69 5.914-7.309-.217-3.459-12.52-3.327-13.763-.36-.804 1.918 2.3 6.32 5.245 7.532.037 1.618.115 3.243.163 4.157a39.7 39.7 0 0 1-3.886-.281 19.066 19.066 0 0 1-4.229-.953 1.3 1.3 0 1 0-.92 2.431c1.56.551 3.178.92 4.823 1.101 1.822.22 3.656.326 5.492.32a49.789 49.789 0 0 0 6.294-.387 26.78 26.78 0 0 0 2.523-.44 9.859 9.859 0 0 0 1.917-.617 1.3 1.3 0 0 0 .624-1.73Z"/><path fill="#FFE632" d="M39.824 85.921c-7.539 1.43-12.467 3.058-15.607 4.655a13.137 13.137 0 0 0-3.491 2.412 5.222 5.222 0 0 0-.93 1.273c-.228.437-.35.92-.357 1.413a2.566 2.566 0 0 0 .457 1.469 1.3 1.3 0 1 0 2.138-1.48l-.03.02.034-.01-.004-.01-.03.02.034-.01-.004.001h.005l-.001-.001-.004.001h.005a.609.609 0 0 1 .081-.249 4.105 4.105 0 0 1 1.214-1.275 21.605 21.605 0 0 1 5.66-2.773 76.894 76.894 0 0 1 11.313-2.901 1.3 1.3 0 0 0-.483-2.555ZM155.854 72.236c8.67-.362 15.504-2.59 20.233-5.454a20.313 20.313 0 0 0 5.492-4.662 8.387 8.387 0 0 0 2.037-5.021 4.857 4.857 0 0 0-.431-2.029 5.144 5.144 0 0 0-2.202-2.316 9.444 9.444 0 0 0-3.638-1.077 1.297 1.297 0 0 0-1.282.666 1.292 1.292 0 0 0 .124 1.439 1.286 1.286 0 0 0 .872.48 5.843 5.843 0 0 1 3.156 1.11 2.147 2.147 0 0 1 .8 1.727 5.885 5.885 0 0 1-1.482 3.417 21.379 21.379 0 0 1-8.407 5.885 43.807 43.807 0 0 1-15.38 3.237 1.3 1.3 0 1 0 .108 2.598Z"/><path fill="#BEBEC9" d="M54.187 119.55a31.176 31.176 0 0 1-8.954-11.452 38.99 38.99 0 0 1-3.231-16.34 48.884 48.884 0 0 1 3.7-18.393 1.3 1.3 0 0 0-2.408-.98 51.484 51.484 0 0 0-3.892 19.374 41.587 41.587 0 0 0 3.465 17.417 33.798 33.798 0 0 0 9.686 12.397 1.301 1.301 0 0 0 2.11-1.149 1.302 1.302 0 0 0-.476-.874Z"/><path fill="#FFE632" d="M159.205 88.475c7.321 1.384 11.965 2.965 14.678 4.376.997.474 1.91 1.108 2.701 1.877.181.185.334.395.452.625a.648.648 0 0 1 .081.27l-.01.04a1.303 1.303 0 0 0-.023 1.444 1.286 1.286 0 0 0 .818.566 1.297 1.297 0 0 0 1.343-.53 2.65 2.65 0 0 0 .472-1.52 3.227 3.227 0 0 0-.335-1.393 6.394 6.394 0 0 0-1.907-2.188 22.83 22.83 0 0 0-6.224-3.138 76.936 76.936 0 0 0-11.562-2.983 1.297 1.297 0 0 0-1.33.565 1.296 1.296 0 0 0 .376 1.8c.143.093.303.158.47.19Z"/><path fill="#BEBEC9" d="M145.881 58.747c7.627 8.871 12.028 19.592 12.025 30.225a40.184 40.184 0 0 1-3.902 18.016 35.618 35.618 0 0 1-10.762 12.78 1.297 1.297 0 0 0-.259 1.82 1.3 1.3 0 0 0 1.82.259 38.22 38.22 0 0 0 11.532-13.708 42.78 42.78 0 0 0 4.171-19.167c-.002-11.357-4.68-22.644-12.654-31.92a1.295 1.295 0 0 0-1.394-.393 1.304 1.304 0 0 0-.893 1.14 1.31 1.31 0 0 0 .316.948Z"/><path fill="#FFE632" d="M177.345 51.678a38.207 38.207 0 0 0-4.209-.223c-5.809.005-12.237 1.145-19.354 2.863-.009-.03-.003-.059-.014-.087a89.323 89.323 0 0 0-4.276-10.543 1.299 1.299 0 0 0-2.322 1.168h-.001a84.566 84.566 0 0 1 4.09 10.084c-2.716.688-5.53 1.448-8.445 2.251l-.471.13c-6.461 1.1-27.55 4.267-41.692 4.262-.267 0-.53 0-.791-.003-17.713-.152-30.561-1.063-38.905-2.391a43.313 43.313 0 0 1-9.112-2.22 7.001 7.001 0 0 1-1.935-1.088 1.365 1.365 0 0 1-.293-.34l-.032-.083.012-.05c2.944-8.27 7.133-17.63 12.17-25.028a43.949 43.949 0 0 1 8.09-9.242 17.124 17.124 0 0 1 8.787-4.14c1.107-.13 2.22-.196 3.334-.198 3.714.011 7.377.865 10.714 2.496 1.19.53 2.332 1.061 3.496 1.53a41.744 41.744 0 0 1-6.066.44 54.378 54.378 0 0 1-6.47-.406 1.3 1.3 0 1 0-.308 2.581c2.249.277 4.512.419 6.778.426a48.349 48.349 0 0 0 16.66-3.09c4.588-1.542 8.735-3.042 14.522-3.203l.234-.003a11.76 11.76 0 0 1 4.838 1.175 28.278 28.278 0 0 1 7.574 5.45 54.629 54.629 0 0 1 6.699 7.933 1.302 1.302 0 0 0 2.341-.52 1.3 1.3 0 0 0-.21-.97 53.016 53.016 0 0 0-9.688-10.674 26.771 26.771 0 0 0-5.638-3.585 14.335 14.335 0 0 0-5.916-1.41c-.102 0-.204.002-.306.005-6.219.17-10.745 1.815-15.278 3.337-1.07.359-2.144.71-3.244 1.041-.041.002-.079-.014-.12-.008-.37.049-.742.073-1.115.073a10.495 10.495 0 0 1-3.674-.736c-1.871-.681-3.895-1.788-6.419-2.747a25.758 25.758 0 0 0-9.404-1.735 31.889 31.889 0 0 0-3.63.214 19.687 19.687 0 0 0-10.14 4.715c-4.67 3.84-8.78 9.537-12.322 15.848a125.342 125.342 0 0 0-7.417 16.01 66.695 66.695 0 0 0-9.598-.74c-5.39.005-10.082.76-13.575 2.327a11.577 11.577 0 0 0-4.252 3.065 7.033 7.033 0 0 0-1.657 4.543 9.022 9.022 0 0 0 .659 3.27 7.664 7.664 0 0 0 1.869 2.713 17.723 17.723 0 0 0 5.94 3.489 61.124 61.124 0 0 0 14.013 3.168 151.615 151.615 0 0 0 18.58 1.039 234.793 234.793 0 0 0 42.934-4.108c15.173-2.91 28.516-6.854 40.125-10.055 11.605-3.206 21.486-5.65 29.631-5.643 1.31-.003 2.62.066 3.923.207a1.299 1.299 0 1 0 .286-2.584ZM102.891 67.2a232.231 232.231 0 0 1-42.445 4.061c-10.134.002-19.237-.794-26.024-2.357a33.113 33.113 0 0 1-8.24-2.867 11.362 11.362 0 0 1-2.462-1.742 5.077 5.077 0 0 1-1.253-1.785 6.436 6.436 0 0 1-.482-2.328 4.41 4.41 0 0 1 1.065-2.892 11.534 11.534 0 0 1 5.797-3.241 37.185 37.185 0 0 1 10.022-1.202c2.898.015 5.792.228 8.662.637-.128.35-.262.706-.385 1.053a2.701 2.701 0 0 0 .184 2.245 4.918 4.918 0 0 0 1.858 1.77 22.375 22.375 0 0 0 6.12 2.19 118.837 118.837 0 0 0 17.09 2.367c7.382.595 16.492.976 27.44 1.07.268.003.539.004.813.004a209.364 209.364 0 0 0 22.079-1.508c-6.245 1.615-12.843 3.183-19.839 4.525Z"/><path fill="#BEBEC9" d="M172.799 24.699a3.415 3.415 0 0 0-2.553-1.114l-.239.008a90.754 90.754 0 0 0-26.691 6.168 48.056 48.056 0 0 0-12.11 6.868 28.724 28.724 0 0 0-1.834 1.644c-.203.11-.373.274-.49.474a18.017 18.017 0 0 0-4.677 7.733 3.09 3.09 0 0 0-.102.835c.008.37.037.74.087 1.107.042.322.065.645.071.97.006.3-.036.6-.124.887a2.186 2.186 0 0 1-.489.816 1.316 1.316 0 0 0-.34.935 1.294 1.294 0 0 0 .42.902 1.283 1.283 0 0 0 1.667.044c.043.083.095.16.155.231a1.31 1.31 0 0 0 .922.376 1.305 1.305 0 0 0 .917-.386 90.96 90.96 0 0 1 30.39-20.152 1.3 1.3 0 0 0-1.017-2.393 98.894 98.894 0 0 0-21.273 12.018v-.952a1.3 1.3 0 1 0-2.6 0v2.763a1.2 1.2 0 0 0 .04.197c-.593.48-1.187.974-1.781 1.48l.125-6.108c.497-.478 1.016-.95 1.576-1.406 4.644-3.794 11.326-6.775 18.172-8.85a88.312 88.312 0 0 1 19.151-3.606l.075-.002a.809.809 0 0 1 .633.267c.161.18.25.412.251.652a.811.811 0 0 1-.09.38.907.907 0 0 1-.32.337c-8.082 5.274-22.672 14.765-30.978 19.994a15.778 15.778 0 0 1-4.788 2.097 1.294 1.294 0 0 0-.804.586 1.299 1.299 0 0 0 1.416 1.94 18.389 18.389 0 0 0 5.561-2.423c8.338-5.249 22.926-14.739 31.014-20.017a3.508 3.508 0 0 0 1.2-1.303 3.4 3.4 0 0 0 .389-1.59c0-.89-.333-1.749-.932-2.407Zm-45.985 25.42c.03-.24.045-.484.047-.728a10.85 10.85 0 0 0-.088-1.26 8.486 8.486 0 0 1-.071-.816l.006-.116.003-.025v-.002a13.596 13.596 0 0 1 1.898-4l-.109 5.348a88.368 88.368 0 0 0-1.686 1.6Z"/><path fill="#FFE632" d="m50.103 47.97-.015.226c.001.3.078.597.222.861.224.389.542.715.924.951.775.467 1.61.83 2.48 1.076a55.556 55.556 0 0 0 7.245 1.6 243.597 243.597 0 0 0 36.74 2.64 277.807 277.807 0 0 0 34.859-2.427c5.075-.682 9.423-1.437 12.552-2.183a26.76 26.76 0 0 0 3.767-1.13 5.74 5.74 0 0 0 1.234-.658c.203-.147.381-.324.528-.526.208-.285.321-.628.325-.98a1.668 1.668 0 0 0-.037-.339 1.295 1.295 0 0 0-1.039-1.011 1.302 1.302 0 0 0-1.502 1.563l.985-.214h-1.008l.023.214.985-.214h-.11l-.74-.527a.924.924 0 0 0-.158.527h.898l-.74-.527.375.267-.322-.33-.053.063.375.267-.322-.33.031.031-.029-.033-.002.002.031.031-.029-.033c-.154.108-.32.2-.495.27-.871.357-1.767.646-2.682.866a158.259 158.259 0 0 1-20.315 3.21 269.24 269.24 0 0 1-27.386 1.55 257.577 257.577 0 0 1-31.704-1.926 87.102 87.102 0 0 1-10.306-1.849 15.106 15.106 0 0 1-2.683-.917 2.101 2.101 0 0 1-.455-.281l-.003-.004-.314.29.382-.18-.068-.11-.314.29.382-.18-.72.34h.793a.806.806 0 0 0-.073-.34l-.72.34h-.068l.854.112.007-.112h-.86l.853.112a1.3 1.3 0 0 0-2.578-.339ZM84.169 140.235h-1.3a3.346 3.346 0 0 1-3.997 3.279 3.341 3.341 0 0 1-2.437-4.56 3.34 3.34 0 0 1 3.09-2.064 3.347 3.347 0 0 1 3.344 3.345h2.6a5.947 5.947 0 0 0-7.104-5.831 5.944 5.944 0 1 0 7.104 5.831h-1.3Z"/><path fill="#FFE632" d="M183.344 168.18c-1.595-6.582-3.808-14.893-5.912-21.886-1.053-3.497-2.077-6.663-2.991-9.134-.458-1.237-.887-2.299-1.288-3.158-.201-.43-.395-.809-.59-1.142a5.046 5.046 0 0 0-.632-.884c-.811-.873-2.014-2-3.39-3.233-3.04-2.724-6.892-5.924-8.707-7.418a656.994 656.994 0 0 0 7.759-9.111c2.285-2.735 4.694-5.675 6.786-8.348a79.94 79.94 0 0 0 4.909-6.788c.031-.067.056-.136.074-.206.038-.078.067-.16.088-.243.009-.083.011-.166.003-.249a.765.765 0 0 0-.101-.477 1.318 1.318 0 0 0-.104-.225 1.314 1.314 0 0 0-.179-.186 1.254 1.254 0 0 0-.152-.158c-.011-.008-.025-.008-.036-.015-.012-.008-.018-.02-.03-.027a1.237 1.237 0 0 0-.205-.075 1.3 1.3 0 0 0-.244-.087 1.243 1.243 0 0 0-.247-.003.763.763 0 0 0-.477.101 1.25 1.25 0 0 0-.226.104 1.29 1.29 0 0 0-.186.18c-.057.045-.11.096-.158.151a5.535 5.535 0 0 1-1.059 1 36.377 36.377 0 0 1-4.078 2.616c-2.455 1.4-5.285 2.828-7.494 3.902a191.34 191.34 0 0 1-3.515 1.663l-.279.128a1.295 1.295 0 0 0-.643.637l-.053.112a73.102 73.102 0 0 1-3.188 5.953 36.093 36.093 0 0 1-2.614 3.839 8.905 8.905 0 0 1-2.393 2.263c-.837.375-1.71.664-2.606.865-2.165.554-5.244 1.125-8.615 1.66-5.06.803-10.792 1.531-15.254 2.056a564.184 564.184 0 0 1-7.652.85l-.034.004a5.525 5.525 0 0 0-2.967 1.335 10.572 10.572 0 0 0-2.554 3.852c-.457 1.053-.849 2.146-1.246 3.182a30.79 30.79 0 0 0-4.721-3.901 25.463 25.463 0 0 0-6.264-2.787l-.038-.02a1.24 1.24 0 0 0-.224-.056 45.568 45.568 0 0 0-4.85-1.157c-5.15-.954-12.687-2.132-19.611-2.713-6.767-.568-13.513-.733-18.762-.914-2.622-.09-4.873-.185-6.535-.332a20.031 20.031 0 0 1-1.998-.256 4.745 4.745 0 0 1-.552-.138l-.119-.046a15.5 15.5 0 0 1-2.55-2.644 62.115 62.115 0 0 1-3.893-5.596 91.66 91.66 0 0 1-1.646-2.732l-.124-.216a1.324 1.324 0 0 0-.44-.463 259.98 259.98 0 0 1-9.095-6.014c-1.724-1.199-3.412-2.422-4.763-3.492a30.296 30.296 0 0 1-1.725-1.459 6.947 6.947 0 0 1-.92-.98 1.226 1.226 0 0 0-.158-.152 1.3 1.3 0 0 0-.186-.18 1.26 1.26 0 0 0-.225-.104.765.765 0 0 0-.478-.101 1.257 1.257 0 0 0-.247.003 1.3 1.3 0 0 0-.244.088c-.07.018-.14.043-.205.074-.012.007-.018.02-.03.027-.011.007-.025.007-.036.015-.055.048-.106.101-.152.158a1.29 1.29 0 0 0-.179.186 1.257 1.257 0 0 0-.104.227.763.763 0 0 0-.101.477c-.008.082-.006.164.003.247.02.084.05.165.088.243.018.07.043.14.074.206 1.023 1.684 2.666 4.073 4.574 6.743 4.78 6.686 11.193 15.082 13.171 17.661l-.405.525c-.939 1.215-2.42 3.115-3.943 5.01-1.521 1.892-3.095 3.789-4.182 4.959a5.73 5.73 0 0 0-.824 1.247 30.168 30.168 0 0 0-1.502 3.655c-1.863 5.276-4.187 13.977-6.181 22.187a471.722 471.722 0 0 0-2.63 11.423c-.723 3.351-1.256 6.061-1.503 7.69a1.3 1.3 0 0 0 2.57.39c.28-1.848 1.004-5.446 1.972-9.8 1.454-6.537 3.465-14.821 5.388-21.751.961-3.465 1.902-6.593 2.733-8.979.414-1.191.802-2.198 1.141-2.952.17-.376.326-.689.46-.922.079-.149.173-.289.28-.419 1.567-1.689 3.87-4.536 5.809-6.987a368.347 368.347 0 0 0 3.49-4.488 1.296 1.296 0 0 0-.004-1.582l-.621-.808a913.418 913.418 0 0 1-8.566-11.35 482.584 482.584 0 0 1-3.918-5.357c4.094 2.886 8.58 5.745 9.715 6.464.39.678 1.48 2.538 2.873 4.639.871 1.314 1.855 2.713 2.86 3.966a17.678 17.678 0 0 0 3.057 3.127c.248.175.522.31.811.401a9.928 9.928 0 0 0 1.78.371c2.416.322 6.304.432 11.016.589 4.702.154 10.194.348 15.663.807 6.791.569 14.277 1.737 19.356 2.678 1.559.284 3.102.652 4.62 1.104a12.26 12.26 0 0 1 3.69 2.541 9.417 9.417 0 0 1 2.083 3.847c.297.976.883 2.599 1.623 4.563a435.458 435.458 0 0 0 3.811 9.705 265.34 265.34 0 0 0 1.685 4.069c.237.555.446 1.035.622 1.424.177.392.313.681.436.908.184.325.455.592.783.772.462.246.96.415 1.476.504.943.171 1.897.276 2.854.316 1.082.059 2.276.081 3.503.081 1.944 0 3.968-.056 5.711-.111 1.739-.055 3.211-.109 3.988-.109.227 0 .4.006.442.011.653.032 1.29.211 1.864.525.247.154.462.355.633.591l.01.021.019.043.003.008h.001c.04.075.088.146.143.211.09.173.165.353.224.538.007.023.024.038.032.059a68.272 68.272 0 0 1 2.859 12.627c.487 3.694.595 6.54.685 7.991a123.92 123.92 0 0 1 .23 6.885 1.301 1.301 0 1 0 2.6 0c0-.016 0-3.286-.235-7.047-.087-1.395-.2-4.364-.703-8.169a70.555 70.555 0 0 0-3.058-13.383 1.297 1.297 0 0 0-.089-.153 5.953 5.953 0 0 0-.399-.799 11.49 11.49 0 0 0-2.384-3.375 366.764 366.764 0 0 0-4.075-3.718l-2.941-2.654a5.943 5.943 0 0 0 3.553-5.44l-.002-.138a5.941 5.941 0 0 0-5.94-5.808l-.139.001a5.944 5.944 0 0 0-5.529 4.15c-2.413-2.16-4.582-4.094-6.051-5.395a55.417 55.417 0 0 1 2.14-5.174 6.12 6.12 0 0 1 1.295-1.726 2.9 2.9 0 0 1 1.59-.72c.314-.032 7.589-.776 15.482-1.83 4.033-.539 8.221-1.158 11.729-1.806 1.755-.325 3.339-.657 4.662-.995a15.605 15.605 0 0 0 3.168-1.081 7.89 7.89 0 0 0 1.778-1.341 22.665 22.665 0 0 0 2.804-3.458 68.401 68.401 0 0 0 4.61-8.138 186.488 186.488 0 0 0 7.322-3.576 112.275 112.275 0 0 0 3.101-1.664l-.282.362c-3.099 3.959-6.937 8.555-9.996 12.156a671.739 671.739 0 0 1-5.339 6.206 1.301 1.301 0 0 0-.171 1.463c.082.155.194.291.329.401l.432.353c.971.796 3.448 2.837 6.004 5.027a181.428 181.428 0 0 1 3.712 3.256c1.135 1.028 2.114 1.961 2.724 2.619.171.214.319.446.44.692a29.819 29.819 0 0 1 1.427 3.331c1.911 5.093 4.45 13.78 6.613 21.937a413.548 413.548 0 0 1 2.852 11.355c.778 3.315 1.345 6.013 1.571 7.508.052.341.237.647.514.852a1.3 1.3 0 0 0 2.057-1.242c-.305-2.005-1.092-5.604-2.156-9.998Zm-62.038-27.505-.001-.079a3.341 3.341 0 0 1 3.267-3.341h.079a3.343 3.343 0 0 1 3.341 3.267l.001.079a3.346 3.346 0 0 1-3.267 3.341l-.015.003-3.438-3.087c.016-.06.027-.121.033-.183Zm-.01 3.697c2.49 2.236 4.957 4.457 6.941 6.251a693.192 693.192 0 0 1 2.871 2.607c-.882.003-2.302.056-3.999.109-1.734.055-3.733.109-5.63.109a47.197 47.197 0 0 1-4.815-.192 8.712 8.712 0 0 1-1.452-.258 1.629 1.629 0 0 1-.161-.055c-.1-.207-.252-.535-.43-.942-.886-2.012-2.52-6.015-4.043-9.891a349.57 349.57 0 0 1-2.102-5.468c-.603-1.616-1.078-2.954-1.302-3.692a14.866 14.866 0 0 0-.695-1.823c1.2.975 2.154 1.97 3.27 2.945 1.485 1.29 6.569 5.83 11.547 10.3Z"/><path fill="#FFE632" d="M79.482 163.373a5.945 5.945 0 0 0-5.83 7.103 5.941 5.941 0 0 0 4.67 4.671 5.947 5.947 0 0 0 6.102-2.528 5.943 5.943 0 0 0-4.942-9.246Zm0 9.288a3.348 3.348 0 0 1-3.09-2.064 3.344 3.344 0 1 1 3.09 2.064ZM125.227 163.373a5.944 5.944 0 1 0-.002 11.887 5.944 5.944 0 0 0 .002-11.887Zm0 9.288a3.342 3.342 0 0 1-3.089-2.064 3.346 3.346 0 1 1 6.434-1.28 3.352 3.352 0 0 1-3.345 3.344ZM43.47 146.256a1.305 1.305 0 0 0-1.39-.389 1.299 1.299 0 0 0-.583 2.081L43 149.702l-.259 3.04c-.568 6.675-1.809 21.153-2.636 30.156a1.3 1.3 0 1 0 2.59.238c1.103-12.024 2.941-33.756 2.941-33.757a1.304 1.304 0 0 0-.308-.956l-1.857-2.167ZM160.588 152.758l-.221-3.049 1.51-1.761a1.306 1.306 0 0 0 .314-.948 1.296 1.296 0 0 0-.894-1.14 1.295 1.295 0 0 0-.995.08 1.29 1.29 0 0 0-.399.316l-1.858 2.167a1.3 1.3 0 0 0-.309.938c0 .005 1.547 21.735 2.653 33.775a1.314 1.314 0 0 0 .463.881 1.317 1.317 0 0 0 .951.295 1.297 1.297 0 0 0 1.122-.909c.051-.163.069-.335.053-.505-.55-5.992-1.213-14.427-1.737-21.359-.263-3.466-.491-6.557-.653-8.781Z"/></svg>