<svg xmlns="http://www.w3.org/2000/svg" width="200" height="200" fill="none"><path fill="#FFD93A" d="M117.438 50.837c-20.447-.818-36.805-.818-57.048.818C33.613 53.819 14.3 72.437 14.3 98.07c0 25.635 18.558 43.229 46.09 46.089 15.745 1.636 36.601 1.62 56.027-.425 7.297-.768 14.937-2.68 20.692-5.153l-5.166-7.333c-7.959 2.703-19.695 3.48-28.38.244-19.26-7.174-29.513-27.378-22.338-46.637 7.174-19.261 28.376-28.445 47.635-21.27 12.777 4.759 22.666 16.163 24.083 30.83l9.916 7.999c.035-.777-.026-3.55-.026-4.344 0-25.634-17.355-46.113-45.395-47.234Z"/><path fill="#191C22" d="M163.946 101.951c.067-.148.11-.309.117-.481.044-1.142.069-2.28.069-3.398.002-13.11-4.444-24.971-12.529-33.694-8.08-8.725-19.79-14.272-34.113-14.84-8.48-.34-16.265-.538-23.92-.538-10.827 0-21.394.399-33.286 1.36-13.66 1.102-25.484 6.413-33.898 14.78C17.971 73.5 12.995 84.926 13 98.07c-.007 13.131 4.779 24.316 13.108 32.511 8.326 8.202 20.141 13.417 34.146 14.871 7.454.774 16.022 1.18 25.039 1.18 10.17 0 20.911-.516 31.259-1.605 5.112-.538 9.888-1.51 14.293-2.892a1.3 1.3 0 0 0-.778-2.481c-4.225 1.326-8.832 2.266-13.787 2.788-10.247 1.078-20.905 1.59-30.987 1.59-8.939 0-17.427-.403-24.77-1.166-13.526-1.406-24.755-6.418-32.59-14.137-7.833-7.725-12.326-18.155-12.333-30.658.005-12.49 4.685-23.191 12.62-31.089 7.937-7.892 19.157-12.971 32.273-14.032 11.828-.955 22.313-1.35 33.078-1.351 7.609 0 15.357.198 23.815.536 13.715.555 24.702 5.807 32.31 14.01 7.603 8.205 11.834 19.4 11.836 31.925 0 .568-.022 1.153-.035 1.731-5.721-4.856-10.006-7.444-11.109-8.081-6.588-10.22-14.537-13.834-16.176-14.492-.53-.564-1.986-2.005-4.354-3.465a24.565 24.565 0 0 0-12.973-3.651c-1.666 0-3.438.16-5.308.524-.528.103-1.602.276-2.543.452-.474.09-.914.179-1.281.274a4.16 4.16 0 0 0-.54.174c-.098.043-.202.086-.368.204a1.427 1.427 0 0 0-.306.305 1.333 1.333 0 0 0 .363 1.922c.199.124.323.157.431.19.106.03.195.047.285.061.684.109 1.178.322 1.595.605.621.422 1.097 1.048 1.527 1.835.186.339.358.71.531 1.088a34.285 34.285 0 0 0-5.906-.534c-3.115 0-6.36.464-9.575 1.617a1.296 1.296 0 0 0-.86 1.19c-.014.537.3 1.024.796 1.232 1.447.608 2.372 1.152 2.987 1.637.463.366.757.695 1.007 1.045.372.521.645 1.146 1.07 1.969.137.265.301.552.48.847-.344-.017-.688-.037-1.036-.037-3.795-.004-7.837 1.097-11.688 3.832a1.3 1.3 0 0 0 .683 2.359c1.473.086 2.291.435 2.972.939.51.383.956.899 1.433 1.555.716.978 1.479 2.26 2.673 3.564 1.194 1.306 2.833 2.605 5.229 3.631 2.141.921 3.678 1.983 4.874 3.108 1.014.954 1.783 1.962 2.448 2.993-1.381-.458-2.61-.653-3.713-.652-1.635-.001-2.955.405-4.029.757-1.083.36-1.912.632-2.678.627-.443-.002-.89-.077-1.445-.306-.553-.23-1.214-.625-2.006-1.278a1.299 1.299 0 0 0-2.098 1.273c1.052 4.966 3.955 9.506 8.348 12.785 4.391 3.283 10.267 5.302 17.244 5.3 2.309 0 4.744-.232 7.283-.699.658.682 1.979 2.083 3.707 4.07a39.89 39.89 0 0 1-12.209 1.894c-3.109 0-6.272-.349-9.419-1.071-16.818-3.855-28.23-18.541-28.227-34.626 0-2.534.283-5.104.873-7.675 1.856-8.092 6.44-14.857 12.615-19.614 6.175-4.755 13.934-7.49 22.114-7.49 2.741 0 5.529.307 8.323.948 11.417 2.612 20.675 10.947 25.453 21.246a1.3 1.3 0 1 0 2.359-1.094c-5.089-10.959-14.929-19.859-27.23-22.686a39.806 39.806 0 0 0-8.905-1.013c-8.761 0-17.074 2.926-23.7 8.03-6.626 5.1-11.569 12.392-13.563 21.091a36.875 36.875 0 0 0-.939 8.258c.003 17.322 12.26 33.033 30.246 37.159a44.733 44.733 0 0 0 10 1.137c4.753 0 9.396-.769 13.713-2.245.105-.035.186-.102.274-.16a138.69 138.69 0 0 1 6.071 7.823c5.953 8.262 12.43 19.271 15.222 30.757a1.3 1.3 0 1 0 2.526-.615c-3.023-12.391-10.008-23.958-16.223-32.467-6.218-8.506-11.681-13.944-11.714-13.977a1.3 1.3 0 0 0-1.172-.353c-2.639.528-5.136.772-7.478.772-6.479-.001-11.777-1.861-15.688-4.782-2.96-2.213-5.125-5.036-6.403-8.154.708.246 1.4.363 2.048.362 1.352-.006 2.456-.425 3.486-.756 1.039-.34 2.014-.626 3.221-.628 1.411.003 3.213.391 5.796 1.824.032.018.068.017.1.032.259.448.529.892.823 1.324.598.877 1.303 1.715 2.214 2.419a1.3 1.3 0 1 0 1.591-2.056c-.844-.652-1.498-1.518-2.147-2.597-.976-1.609-1.894-3.67-3.485-5.739-1.589-2.07-3.881-4.107-7.475-5.645-1.841-.793-3.055-1.7-3.998-2.643-1.417-1.41-2.202-2.966-3.397-4.431-.6-.725-1.329-1.42-2.29-1.93-.067-.036-.144-.064-.214-.098a16.882 16.882 0 0 1 7.571-1.789c3.36-.001 6.569.98 9.294 2.414 2.722 1.429 4.952 3.317 6.314 5.01a1.3 1.3 0 0 0 2.024-1.632h-.001c-1.628-2.015-4.094-4.08-7.127-5.679a24.11 24.11 0 0 0-5.899-2.183c-.048-.085-.082-.175-.151-.25a9.85 9.85 0 0 1-1.466-2.052c-.258-.475-.475-.95-.744-1.46-.399-.76-.942-1.6-1.843-2.376a9.732 9.732 0 0 0-.926-.694 26.57 26.57 0 0 1 5.656-.598c4.904-.002 9.565 1.26 13.223 2.783a33.922 33.922 0 0 1 4.63 2.336c1.22.743 2.104 1.441 2.461 1.825a1.3 1.3 0 0 0 1.886-1.79c-.644-.672-1.637-1.42-2.988-2.252-2.427-1.482-5.985-3.164-10.178-4.274-.022-.119-.039-.238-.096-.351-.508-.997-.991-2.367-1.881-3.652a7.375 7.375 0 0 0-.978-1.134c.235-.041.451-.08.63-.115a25.086 25.086 0 0 1 4.811-.476c5.054 0 8.954 1.632 11.61 3.265a20.813 20.813 0 0 1 3.005 2.237c.335.302.585.55.747.72l.178.189.038.044.007.007c.147.171.343.306.556.381.101.037 8.543 3.087 15.357 13.84.117.185.28.338.473.444l.011.006c.614.337 24.453 13.748 39.98 45.749a1.3 1.3 0 1 0 2.34-1.135c-8.299-17.086-18.888-28.972-27.241-36.509Z"/></svg>