<svg width="200" height="200" viewBox="0 0 200 200" xmlns="http://www.w3.org/2000/svg"><g id="type=thanks, mode=dark"><g id="Group 432527106"><path id="Vector" d="M89.4633 98.9381L89.3227 99.1275C89.2026 103.848 91.5629 108.608 98.1733 110.278C99.643 110.648 100.993 110.768 102.203 110.677L102.213 110.668L102.053 110.677C103.733 106.128 101.793 96.8775 89.4633 98.9381Z"/><path id="Vector_2" d="M76.2604 72.7116L76.1081 72.9343C75.7026 73.5268 75.8544 74.3356 76.447 74.7412C77.0395 75.1467 77.8483 74.9948 78.2539 74.4023L78.4062 74.1796C78.8117 73.5871 78.6599 72.7783 78.0673 72.3727C77.4748 71.9672 76.666 72.1191 76.2604 72.7116Z"/><path id="Vector_3" d="M76.2429 66.618C76.0669 66.2305 75.7783 65.8733 75.4194 65.6084H75.4197C75.4194 65.6082 75.4192 65.6082 75.4189 65.6079C74.9482 65.252 74.365 65.0249 73.7761 65.0284C73.042 65.0284 72.4248 65.3562 71.9871 65.7378C71.3232 66.3216 70.9136 67.054 70.6099 67.7969C70.3149 68.5464 70.1401 69.2935 70.1348 70.0186C70.1365 70.3064 70.1609 70.5957 70.2671 70.9212C70.3215 71.0835 70.3989 71.2574 70.5242 71.4346C70.6482 71.6106 70.8276 71.7908 71.0591 71.9229C71.4653 72.1565 71.9224 72.2623 72.3445 72.2603C72.9709 72.2576 73.5178 72.0562 73.9905 71.7857C74.699 71.3726 75.2759 70.7871 75.7217 70.1145C76.1587 69.4385 76.4822 68.6724 76.4907 67.7918C76.4912 67.4119 76.4211 67.0061 76.2429 66.618Z"/><path id="Vector_4" d="M125.212 85.8618C125.804 86.2686 126.613 86.1184 127.02 85.5266L127.172 85.3049C127.579 84.7134 127.429 83.9041 126.837 83.4973C126.246 83.0906 125.436 83.2407 125.03 83.8325L124.877 84.0542C124.47 84.6458 124.621 85.4551 125.212 85.8618Z"/><path id="Vector_5" d="M122.757 82.9082C123.466 82.4949 124.043 81.9097 124.489 81.2369C124.926 80.5608 125.249 79.7945 125.258 78.9139C125.258 78.534 125.188 78.1282 125.01 77.74C124.834 77.3526 124.545 76.9954 124.186 76.7305L124.187 76.7303C123.715 76.3741 123.131 76.1475 122.543 76.1509C121.809 76.1509 121.192 76.4786 120.754 76.8601C120.091 77.4436 119.681 78.1761 119.377 78.919C119.083 79.6685 118.908 80.4156 118.902 81.1407C118.904 81.4285 118.928 81.7181 119.034 82.0435C119.089 82.2058 119.166 82.3797 119.292 82.5572C119.416 82.7332 119.595 82.9136 119.826 83.0454C120.233 83.2793 120.689 83.385 121.111 83.3831C121.738 83.3804 122.285 83.179 122.757 82.9082Z"/><path id="Vector_6" d="M71.8499 49.4272L71.8497 49.427C75.1925 46.7002 79.4359 45.6194 83.6334 45.6189C88.234 45.6116 92.743 46.9453 95.6009 48.6345C96.2196 48.9985 97.0162 48.792 97.3805 48.1733C97.7445 47.5544 97.5379 46.7578 96.9193 46.3938C93.5748 44.4353 88.7298 43.0264 83.6334 43.019C79.006 43.0186 74.1405 44.2097 70.2074 47.4116C69.6507 47.865 69.5672 48.6841 70.0209 49.2407C70.4742 49.7971 71.2933 49.8806 71.8499 49.4272Z"/><path id="Vector_7" d="M138.568 55.791C135.029 53.5874 130.799 52.0149 126.328 52.012C125.037 52.012 123.728 52.1448 122.418 52.4329C121.716 52.5869 121.273 53.2805 121.427 53.9819C121.581 54.6831 122.275 55.1265 122.976 54.9724L122.976 54.9722C124.095 54.7261 125.214 54.6118 126.328 54.6118C130.175 54.6089 133.971 55.9875 137.192 57.9973C140.412 59.9993 143.043 62.6365 144.537 64.9659C144.926 65.5696 145.73 65.7439 146.334 65.3555C146.938 64.9668 147.112 64.1624 146.724 63.5586C144.969 60.8401 142.108 58.0022 138.568 55.791Z"/><path id="Vector_8" d="M166.786 89.3718C168.062 87.6453 169.013 85.5073 169.21 82.9888C169.242 82.5906 169.088 82.1997 168.795 81.9294C168.501 81.6592 168.099 81.5386 167.705 81.6033L155.907 83.5337C158.272 76.3855 159.602 69.6038 159.603 63.2886C159.604 58.4678 158.832 53.9143 157.163 49.708C154.664 43.3948 150.138 37.8984 143.367 33.4641C136.801 29.1606 128.128 25.8291 117.054 23.5573C117.554 21.9973 118.159 20.5078 118.891 19.2607C119.423 18.353 120.015 17.5722 120.655 16.9653C121.297 16.3574 121.978 15.9231 122.721 15.6675C123.215 15.4981 123.557 15.0542 123.596 14.5339C123.634 14.0137 123.361 13.5239 122.898 13.2839C122.793 13.2366 120.45 12.009 117.236 12C115.701 11.999 113.959 12.2932 112.233 13.1692C110.84 13.8733 109.476 14.9631 108.246 16.5102L105.902 14.5175C105.63 14.2861 105.28 14.178 104.925 14.2153C104.57 14.2524 104.25 14.4304 104.032 14.7131C103.973 14.7993 101.897 17.4651 100.952 21.4258C99.6995 21.3659 98.4663 21.3266 97.272 21.3266C90.0186 21.3266 83.8194 22.4172 78.5762 24.4836C70.7083 27.5766 65.0314 32.8994 61.2868 39.7871C57.6779 46.4133 55.8277 54.4692 55.2686 63.479L45.7785 57.6616C45.438 57.4529 45.0205 57.4121 44.6463 57.5512C44.272 57.6904 43.9822 57.9939 43.8607 58.3742C43.4623 59.6206 43.2876 60.8525 43.288 62.0373C43.2882 64.0278 43.7766 65.8786 44.4857 67.5193C45.492 69.8423 46.9297 71.7429 48.1742 73.1399L41.3867 72.7388C40.979 72.7146 40.5822 72.8845 40.3181 73.196C40.0542 73.5076 39.9518 73.927 40.0425 74.3252C40.0639 74.4158 40.48 76.2134 41.8307 78.5789C43.1425 80.8762 45.3636 83.7129 48.9439 85.9666C48.9124 86.2847 48.8921 86.6287 48.892 87.0125C48.8919 89.2649 49.511 92.6653 51.8102 96.5474C53.9657 100.188 57.5922 104.23 63.5158 108.137C63.4373 108.205 63.3522 108.264 63.2762 108.334C61.8404 109.651 60.8432 111.421 60.2 113.441C60.0066 114.05 59.8545 114.689 59.7226 115.343C59.1082 115.061 58.5984 114.74 58.1892 114.394C57.2141 113.566 56.7123 112.598 56.4414 111.762C56.1722 110.931 56.153 110.247 56.154 110.113L56.1541 110.093H56.1531C56.1664 109.711 56.0158 109.348 55.7343 109.09C55.4503 108.829 55.0716 108.708 54.6891 108.758C54.5865 108.774 49.3327 109.45 43.361 112.81C40.377 114.492 37.2128 116.851 34.4578 120.144C31.7025 123.435 29.3653 127.662 28.0385 133.016C27.8909 133.611 28.1779 134.227 28.7274 134.497C29.2771 134.766 29.9398 134.616 30.3197 134.136L30.3205 134.135C30.3899 134.053 30.9657 133.399 32.0546 132.779C33.1465 132.158 34.7399 131.56 36.9402 131.558C39.3394 131.559 42.4949 132.276 46.5059 134.613C47.0111 134.907 47.6456 134.83 48.0656 134.423C51.2858 131.313 54.4586 130.474 57.0243 130.464C58.5032 130.463 59.7786 130.761 60.6687 131.1C60.7868 131.145 60.9072 131.15 61.0271 131.16C61.5755 132.937 62.2481 134.695 63.0398 136.4C63.0186 136.517 62.9915 136.632 63.0037 136.755L63.0036 136.755C63.377 140.578 64.1791 143.397 64.8562 145.837C65.5362 148.284 66.0755 150.319 66.0757 152.784C66.0756 153.589 66.0177 154.445 65.8843 155.384C65.6016 157.363 65.2001 160.158 64.7609 163.324C64.2522 162.512 63.7334 161.712 63.2576 160.995C62.2056 159.411 61.3711 158.233 61.3661 158.226C61.0808 157.823 60.5974 157.617 60.1096 157.692C59.6218 157.766 59.2215 158.106 59.0689 158.575L57.8277 162.392C57.1172 161.832 56.3653 161.199 55.5285 160.554C54.2476 159.571 52.7385 158.603 50.8863 158.003C50.5584 157.553 50.23 157.149 49.9147 156.794C48.6811 155.405 47.6459 154.728 47.5725 154.68C47.2002 154.439 46.7299 154.405 46.3267 154.589C45.9235 154.773 45.6413 155.151 45.5794 155.59L45.3078 157.518C44.239 157.652 43.0919 157.904 41.864 158.3L41.8521 158.304C41.7552 158.337 41.6513 158.373 41.547 158.41C40.0628 157.866 38.7272 157.713 37.7936 157.713C36.9535 157.713 36.4246 157.818 36.3554 157.832C35.9687 157.912 35.6407 158.162 35.4611 158.513C35.2814 158.865 35.271 159.277 35.4326 159.637L36.5874 162.209C35.7854 163.282 35.2185 164.371 34.8283 165.272C34.2981 166.501 34.0901 167.388 34.0768 167.444C33.9535 167.976 34.1748 168.527 34.6315 168.825C35.0874 169.124 35.6801 169.106 36.1177 168.781L36.1178 168.782C36.1499 168.758 36.8172 168.277 37.8445 167.817C38.8722 167.355 40.2528 166.921 41.7039 166.924C42.5844 166.924 43.4905 167.076 44.4084 167.47C45.3258 167.865 46.2644 168.503 47.2005 169.532L47.2022 169.534C49.8803 172.46 51.5841 175.685 53.7641 178.485C54.8561 179.881 56.0837 181.17 57.6346 182.186C58.9298 183.037 60.4618 183.665 62.2476 184.028C62.125 185.423 62.0315 186.698 61.9831 187.776C61.951 188.493 62.5064 189.101 63.2237 189.133C63.9408 189.165 64.5484 188.61 64.5805 187.893C64.7453 184.176 65.4612 177.886 66.2628 171.676C67.0642 165.46 67.9507 159.301 68.4583 155.751C68.6082 154.697 68.6758 153.715 68.6756 152.784C68.6758 149.922 68.0391 147.586 67.3616 145.142C67.1402 144.343 66.9136 143.525 66.6953 142.667C70.4109 147.861 74.8836 151.657 78.8826 154.3C81.1126 155.772 83.1949 156.891 84.9239 157.703C86.6561 158.515 88.0208 159.017 88.8726 159.266C89.2989 159.389 89.7322 159.433 90.1824 159.434C91.3357 159.429 92.626 159.14 94.0325 158.661C96.135 157.936 98.4725 156.76 100.626 155.276C102.751 153.806 104.694 152.044 106.005 150.043C107.166 153.65 109.031 156.743 111.262 159.061C112.595 160.443 114.056 161.554 115.588 162.329C117.118 163.103 118.725 163.543 120.327 163.544C120.892 163.546 121.455 163.484 122.009 163.368C122.919 165.882 124.244 170.065 125.389 174.578C126.574 179.233 127.56 184.25 127.719 188.06C127.75 188.777 128.356 189.333 129.073 189.303C129.791 189.273 130.347 188.666 130.317 187.949C130.138 183.81 129.115 178.696 127.909 173.938C126.732 169.301 125.382 165.042 124.435 162.43C124.991 162.104 125.525 161.716 126.02 161.245C127.041 160.28 127.724 159.089 128.138 157.821C128.553 156.551 128.713 155.2 128.713 153.835C128.708 150.483 127.76 147.008 126.832 144.327C126.473 143.296 126.116 142.39 125.811 141.657C126.774 141.637 127.946 141.565 129.124 141.353C129.844 141.222 130.562 141.04 131.24 140.768C131.915 140.494 132.561 140.132 133.098 139.583C133.731 138.926 134.275 138.103 134.784 137.189C134.824 137.117 134.861 137.038 134.9 136.964C134.945 136.945 134.992 136.944 135.034 136.92L135.034 136.92C137.321 135.622 139.211 135.168 140.772 135.167C142.1 135.168 143.211 135.493 144.175 135.988C145.617 136.728 146.717 137.884 147.441 138.865C147.803 139.354 148.071 139.796 148.244 140.108C148.331 140.264 148.394 140.387 148.433 140.468L148.475 140.555L148.482 140.571L148.483 140.572L148.483 140.572C148.721 141.11 149.288 141.421 149.869 141.332C150.451 141.243 150.9 140.775 150.964 140.19C151.071 139.228 151.12 138.29 151.12 137.378C151.122 132.653 149.763 128.6 147.844 125.275C146.201 122.427 144.156 120.105 142.182 118.273C144.409 117.161 146.255 115.941 147.76 114.707C151.869 111.342 153.478 107.949 153.985 106.626C158.196 105.904 161.353 104.102 163.45 102.46C165.595 100.781 166.66 99.2737 166.714 99.198C166.949 98.8635 167.012 98.4365 166.886 98.0483C166.759 97.6602 166.456 97.3528 166.069 97.2212L159.645 95.0303C160.485 94.6174 161.42 94.1021 162.371 93.4707C163.916 92.4414 165.509 91.1025 166.786 89.3718ZM57.0243 127.864C54.0708 127.855 50.43 128.843 46.9644 131.9C43.0215 129.75 39.6731 128.957 36.9402 128.958C34.781 128.956 33.0218 129.443 31.6753 130.056C32.9134 126.764 34.5767 124.055 36.4519 121.812C40.2246 117.3 44.8808 114.669 48.6049 113.174C50.4652 112.427 52.0885 111.964 53.2372 111.69C53.4157 111.648 53.5603 111.618 53.715 111.584C53.8416 112.218 54.0663 112.987 54.4787 113.807C54.9147 114.669 55.5646 115.578 56.5078 116.377C57.263 117.019 58.2131 117.578 59.3557 118.003C59.2988 118.717 59.2608 119.441 59.2605 120.186C59.2637 122.76 59.6033 125.503 60.2403 128.262C59.3009 128.029 58.2266 127.865 57.0243 127.864ZM62.4962 181.434C61.1369 181.127 60.0279 180.644 59.0592 180.011C57.2173 178.809 55.8181 177.014 54.3417 174.85C52.8653 172.694 51.3246 170.197 49.123 167.781L49.1247 167.783C47.9646 166.505 46.7061 165.626 45.4344 165.081C44.1629 164.534 42.8877 164.323 41.7039 164.324C40.2537 164.326 38.9491 164.636 37.8561 165.022C38.2744 164.281 38.804 163.506 39.4684 162.816C40.1621 162.096 40.9887 161.471 41.9807 161.041V161.041L42.0626 161.006L42.1026 160.986C42.1582 160.962 42.219 160.948 42.2703 160.917C42.385 160.871 42.5125 160.825 42.6666 160.773C43.4758 160.513 44.2251 160.333 44.9284 160.209L44.8997 160.413C44.8504 160.761 44.9476 161.121 45.1655 161.398C45.3833 161.675 45.7105 161.854 46.0611 161.888C47.5225 162.027 48.8297 162.658 49.7639 163.275C50.2302 163.581 50.6011 163.88 50.8485 164.096C50.9723 164.204 51.0653 164.291 51.1244 164.348L51.187 164.41L51.1985 164.422L51.1989 164.422C51.6089 164.854 52.2644 164.951 52.7826 164.658C53.3015 164.363 53.5542 163.748 53.3923 163.174C53.2681 162.733 53.1255 162.317 52.9752 161.912C53.3042 162.136 53.6265 162.372 53.9453 162.616C54.9602 163.392 55.9273 164.249 56.9771 165.009L56.1509 167.55C55.9907 168.042 56.1392 168.584 56.5276 168.927C59.1917 171.269 62.189 172.918 63.4046 173.545C63.0603 176.297 62.7466 178.987 62.4962 181.434ZM63.7567 170.784C62.532 170.104 60.6447 168.96 58.8931 167.524L60.7261 161.886C60.9661 162.244 61.2215 162.627 61.4868 163.032C62.4246 164.462 63.4649 166.122 64.1757 167.451C64.1804 167.46 64.1892 167.465 64.1941 167.473C64.0479 168.563 63.9013 169.671 63.7567 170.784ZM104.985 18.0881C105.111 17.8513 105.229 17.6489 105.343 17.4546L107.63 19.3992C107.913 19.6397 108.291 19.7485 108.658 19.6951C109.026 19.6419 109.357 19.4302 109.561 19.1194C110.782 17.2532 112.104 16.1521 113.409 15.488C114.714 14.8269 116.026 14.6008 117.236 14.5999C117.94 14.5994 118.598 14.6817 119.192 14.7959C119.023 14.9424 118.853 15.0876 118.694 15.2456C117.12 16.8176 115.998 18.9075 115.135 21.1455C114.343 23.2129 113.779 25.4175 113.373 27.4856C113.203 27.1689 113.022 26.8557 112.813 26.5513C112.167 25.6065 111.317 24.7353 110.232 24.0647C109.555 23.6475 108.752 23.2888 107.9 22.9558C106.38 22.3648 104.71 21.8731 103.604 21.5701C103.977 20.197 104.504 18.9924 104.985 18.0881ZM103.869 148.565C102.499 150.715 99.8623 152.861 97.1458 154.39C95.7893 155.158 94.4146 155.78 93.1873 156.202C91.9644 156.626 90.8743 156.838 90.1824 156.834C89.9151 156.835 89.7122 156.803 89.5996 156.77C88.9312 156.575 87.6487 156.11 86.0284 155.349C81.149 153.063 73.147 148.088 67.6333 139.437C63.9269 133.646 61.8523 126.249 61.8605 120.186C61.8578 117.224 62.3548 114.593 63.3033 112.647C63.7764 111.673 64.3559 110.871 65.0325 110.251C65.7108 109.631 66.4838 109.187 67.4031 108.922C67.9336 108.77 68.4642 108.698 69.0013 108.698C70.1233 108.698 71.2903 109.015 72.4717 109.629C74.2417 110.546 76.0174 112.141 77.5611 114.16C79.107 116.178 80.4239 118.613 81.3333 121.171C82.4017 124.172 83.5894 126.894 84.7413 129.155C85.8968 131.418 87.001 133.208 87.9742 134.403C88.7691 135.378 89.9356 135.879 91.0865 135.876C92.1018 135.877 93.1321 135.491 93.9204 134.723L93.9588 134.685L105.659 122.308C109.402 122.725 113.145 122.938 117.005 122.993C117.443 122.999 117.875 123.002 118.302 123.002C120.4 123.002 122.368 122.92 124.236 122.778C124.273 122.786 124.304 122.808 124.342 122.812L124.342 122.812C125.611 122.962 126.568 123.412 127.357 124.019C128.27 124.72 128.939 125.664 129.41 126.569C128.353 126.242 127.372 126.11 126.511 126.112C124.215 126.115 122.798 126.968 122.667 127.047C122.261 127.298 122.025 127.753 122.053 128.229C122.081 128.705 122.369 129.129 122.801 129.331C124.913 130.315 126.393 131.871 127.343 133.198C127.402 133.281 127.453 133.36 127.509 133.441C127.262 133.379 127.005 133.313 126.735 133.243C125.561 132.948 124.169 132.622 122.594 132.621C121.294 132.619 119.868 132.851 118.395 133.491C118.017 133.655 117.596 133.729 117.134 133.73C116.207 133.735 115.146 133.399 114.346 133.036C113.946 132.857 113.61 132.676 113.379 132.542C113.264 132.476 113.176 132.421 113.119 132.385L113.057 132.346L113.046 132.339V132.339C112.716 132.115 112.303 132.056 111.922 132.177C111.542 132.299 111.24 132.586 111.1 132.96C111.1 132.961 111.041 133.119 110.928 133.413C110.533 134.444 109.494 137.11 108.186 140.085C106.881 143.056 105.295 146.35 103.869 148.565ZM82.3308 116.932C89.5291 119.405 96.0496 120.976 102.47 121.897L92.1036 132.862C91.8133 133.142 91.4534 133.275 91.0865 133.276C90.6663 133.273 90.2722 133.105 89.9878 132.758C89.2088 131.809 88.1509 130.123 87.0576 127.974C85.9607 125.822 84.813 123.193 83.7827 120.299C83.3706 119.143 82.8784 118.019 82.3308 116.932ZM134.988 129.081C134.972 129.351 134.844 129.996 134.625 130.749C134.295 131.894 133.766 133.347 133.149 134.668C132.54 135.987 131.81 137.188 131.231 137.773C131.055 137.959 130.722 138.175 130.269 138.356C129.591 138.631 128.669 138.823 127.749 138.929C126.828 139.037 125.908 139.067 125.198 139.067C124.797 139.067 124.463 139.057 124.232 139.048C124.116 139.043 124.027 139.039 123.968 139.036L123.885 139.031C123.421 138.999 122.973 139.218 122.714 139.604C122.456 139.99 122.423 140.489 122.629 140.905L122.664 140.975C122.846 141.354 123.721 143.212 124.54 145.663C125.363 148.111 126.118 151.16 126.113 153.835C126.114 154.995 125.973 156.079 125.667 157.011C125.359 157.946 124.899 158.724 124.233 159.356C123.044 160.469 121.757 160.936 120.327 160.944C119.208 160.945 117.993 160.633 116.761 160.009C114.914 159.077 113.046 157.443 111.479 155.268C109.911 153.094 108.641 150.386 107.941 147.329C107.911 147.196 107.845 147.082 107.779 146.969C108.986 144.68 110.149 142.119 111.119 139.856C111.911 138.006 112.567 136.368 112.995 135.274C113.088 135.319 113.182 135.364 113.283 135.409C114.284 135.853 115.631 136.324 117.134 136.33C117.876 136.33 118.664 136.208 119.428 135.877C120.558 135.389 121.592 135.222 122.594 135.221C123.804 135.22 124.967 135.477 126.097 135.764C127.231 136.043 128.311 136.376 129.481 136.386C129.66 136.386 129.842 136.377 130.027 136.357C130.428 136.312 130.781 136.087 130.991 135.743C131.202 135.398 131.241 134.982 131.098 134.604C131.069 134.531 130.585 133.262 129.457 131.684C128.781 130.741 127.863 129.682 126.671 128.717C127.803 128.746 129.243 129.057 130.962 130.14C131.397 130.414 131.949 130.407 132.376 130.123C132.804 129.839 133.023 129.332 132.939 128.826C132.92 128.736 132.619 126.904 131.458 124.891C131.177 124.406 130.841 123.91 130.446 123.428C130.533 123.46 130.625 123.489 130.709 123.522C131.71 123.906 132.523 124.382 132.908 124.725C133.106 125.013 133.599 125.751 134.056 126.585C134.318 127.064 134.568 127.575 134.739 128.027C134.915 128.475 134.996 128.876 134.99 129.034L134.988 129.081ZM145.591 126.573C147.136 129.257 148.251 132.401 148.473 136.052C147.67 135.201 146.646 134.337 145.367 133.677C144.082 133.013 142.535 132.566 140.772 132.567C139.452 132.566 138.021 132.818 136.489 133.378C136.556 133.195 136.628 133.009 136.69 132.83C136.936 132.118 137.14 131.445 137.292 130.845C137.444 130.242 137.547 129.729 137.582 129.259L137.584 129.24L137.59 129.034C137.583 128.296 137.376 127.637 137.122 126.979C136.733 126.002 136.194 125.053 135.747 124.325C135.538 123.984 135.352 123.701 135.209 123.487C135.21 123.45 135.212 123.418 135.212 123.378C135.211 122.953 135.144 122.359 134.881 121.717L140.056 119.853C141.993 121.596 144.016 123.838 145.591 126.573ZM155.502 96.3645L163.389 99.054C162.959 99.4805 162.42 99.9712 161.76 100.481C159.88 101.932 157.082 103.511 153.316 104.11C153.058 104.151 152.847 104.282 152.667 104.445C152.21 104.542 151.817 104.868 151.682 105.348L151.68 105.348C151.659 105.412 150.558 109.144 145.893 112.874C141.225 116.6 132.939 120.396 118.302 120.402C117.887 120.402 117.467 120.399 117.042 120.393C104.802 120.21 93.9649 118.477 80.241 113.431C79.4883 112.361 78.6763 111.363 77.8076 110.474C76.5354 109.174 75.1494 108.092 73.6717 107.322C72.1956 106.554 70.6172 106.098 69.0012 106.098C68.2295 106.098 67.4524 106.203 66.6874 106.423C66.4583 106.488 66.2403 106.573 66.021 106.656C59.7207 102.709 56.1013 98.6882 54.0473 95.2222C51.9856 91.7424 51.4921 88.7981 51.492 87.0125C51.4916 86.4592 51.5408 86.0183 51.5974 85.7322C51.7035 85.1914 51.4539 84.6687 51.0153 84.3901C50.9102 84.2136 50.7769 84.0527 50.589 83.939L50.5889 83.9388C47.2768 81.929 45.2729 79.3601 44.0882 77.2888C43.6961 76.6028 43.4026 75.982 43.1768 75.4493L51.4941 75.9407C52.0623 75.9742 52.5837 75.637 52.7859 75.1048C52.9882 74.5728 52.8225 73.9742 52.3754 73.6219L52.3655 73.614C52.2144 73.4942 50.5447 72.1243 48.9546 70.0076C48.159 68.9505 47.3842 67.7087 46.8168 66.3574C46.2484 65.0049 45.8877 63.5496 45.888 62.0374C45.8882 61.6396 45.9187 61.2363 45.9715 60.8293L57.9695 68.1838C58.5815 68.5591 59.3818 68.367 59.7571 67.7551C60.1324 67.1431 59.9404 66.3428 59.3284 65.9675L57.7137 64.9775C57.7441 64.8777 57.7857 64.7822 57.7912 64.6731L57.7911 64.6729C58.4026 52.4192 61.4357 42.2293 67.6402 35.1594C70.7459 31.6187 74.6487 28.8286 79.5298 26.9026C84.41 24.9788 90.2769 23.9265 97.272 23.9265C99.1761 23.9265 101.166 24.0063 103.238 24.1665C103.799 24.324 104.47 24.5212 105.165 24.7461C105.864 24.9724 106.588 25.2266 107.24 25.491C107.891 25.7541 108.474 26.0327 108.864 26.2756C109.611 26.7383 110.195 27.3313 110.669 28.021C111.378 29.0527 111.821 30.3103 112.074 31.5332C112.328 32.7544 112.393 33.9324 112.392 34.7776C112.392 34.9058 112.389 35.0122 112.387 35.124C112.346 35.7549 112.332 36.1362 112.332 36.1487C112.31 36.8464 112.843 37.437 113.539 37.4866C114.235 37.5361 114.846 37.0269 114.923 36.333C114.927 36.3025 114.969 35.8838 114.985 35.2285C115.098 33.5108 115.436 29.8159 116.345 26.0686C131.023 29.0537 141.16 33.9016 147.592 40.1143C150.874 43.2825 153.213 46.8035 154.747 50.6665C156.278 54.5293 157.003 58.743 157.003 63.2886C157.004 69.6072 155.594 76.5645 153.013 84.0071L151.309 84.2859C150.6 84.4016 150.12 85.0701 150.236 85.7788C150.352 86.4873 151.02 86.9676 151.729 86.8518L166.317 84.4646C165.984 85.7222 165.423 86.8367 164.693 87.8291C163.139 89.9461 160.845 91.4937 158.931 92.4793C157.976 92.9734 157.119 93.3296 156.509 93.5594C156.204 93.6741 155.96 93.7576 155.796 93.8113L155.613 93.8697L155.57 93.8824L155.563 93.8848C155.015 94.0418 154.636 94.5332 154.622 95.1023C154.608 95.6714 154.963 96.1807 155.502 96.3645Z"/><path id="Vector_9" d="M94.3972 74.4753C95.1775 73.0879 95.6238 71.6746 95.6255 70.282C95.6265 69.4041 95.4412 68.5374 95.0552 67.7473C94.3787 66.3533 93.2749 65.3184 92.0039 64.6687C90.7305 64.0154 89.293 63.7222 87.8401 63.7214C86.279 63.7224 84.6921 64.0603 83.2341 64.7136C82.4526 65.0645 81.7124 65.5154 81.0342 66.052C80.3054 64.3945 79.2681 63.0674 78.063 62.104C76.3896 60.7651 74.4221 60.1069 72.5481 60.106C70.7529 60.1052 69.0046 60.7185 67.7585 62.001C67.061 62.7197 66.5524 63.5935 66.2266 64.5508C65.8999 65.5093 65.7502 66.552 65.75 67.6497C65.7537 70.1411 66.5121 72.9304 67.9231 75.8057C69.3369 78.679 71.4146 81.636 74.1177 84.4106C74.9878 85.3015 76.1668 85.7786 77.3701 85.7788C77.8743 85.7788 78.3848 85.6951 78.8772 85.521C84.0711 83.6836 88.186 81.2151 91.0554 78.5647C92.4895 77.2378 93.6143 75.864 94.3972 74.4753ZM87.1438 78.4084C84.7637 80.1389 81.6916 81.7691 78.011 83.0696C77.803 83.1431 77.5869 83.179 77.3701 83.179C76.8545 83.1792 76.3455 82.9722 75.9792 82.5957C73.457 80.0078 71.5351 77.2598 70.2561 74.658C68.9744 72.0581 68.3462 69.6018 68.3498 67.6497C68.3496 66.7891 68.469 66.0293 68.6873 65.3904C68.9065 64.7498 69.219 64.2307 69.6255 63.8105C70.2915 63.1196 71.3308 62.7066 72.5481 62.7058C73.8105 62.7048 75.2229 63.1587 76.4373 64.1333C77.6511 65.1094 78.687 66.5952 79.2112 68.7417C79.3293 69.229 79.7146 69.6028 80.2053 69.7068C80.696 69.8105 81.1995 69.6248 81.5051 69.2273C82.2026 68.3186 83.1819 67.5862 84.2986 67.0857C85.4131 66.5845 86.6594 66.3203 87.8401 66.3213C88.9412 66.3206 89.9783 66.5496 90.8152 66.9812C91.6545 67.4165 92.2971 68.0293 92.718 68.8865C92.9214 69.3057 93.0247 69.7598 93.0256 70.282C93.0273 71.103 92.751 72.1021 92.1318 73.1995C91.2085 74.8452 89.5251 76.6804 87.1438 78.4084Z"/><path id="Vector_10" d="M140.825 74.3423C139.74 73.8293 138.553 73.6003 137.358 73.6003C135.627 73.6021 133.872 74.0754 132.303 74.9346C131.374 75.4443 130.522 76.1089 129.775 76.8877C128.943 75.5271 127.9 74.448 126.746 73.668C125.083 72.542 123.216 72.0125 121.448 72.012C120.33 72.0122 119.246 72.2236 118.272 72.6484C117.298 73.0725 116.429 73.7168 115.787 74.5786C114.848 75.8372 114.429 77.3945 114.432 79.0352C114.439 81.6541 115.445 84.5505 117.241 87.4751C119.043 90.397 121.658 93.3438 124.989 95.9766C125.807 96.6211 126.802 96.9514 127.804 96.9514C128.502 96.9517 129.206 96.7908 129.853 96.4626C134.511 94.0989 138.133 91.2969 140.629 88.4578C143.114 85.6143 144.529 82.7388 144.546 80.0571C144.549 78.873 144.244 77.7219 143.598 76.7463C142.882 75.6589 141.909 74.853 140.825 74.3423ZM138.676 86.7417C136.447 89.2817 133.078 91.9126 128.677 94.1438C128.403 94.2827 128.104 94.3513 127.804 94.3516C127.373 94.3516 126.946 94.2087 126.6 93.9358C123.492 91.4812 121.075 88.741 119.455 86.1111C117.83 83.4839 117.024 80.9636 117.031 79.0352C117.034 77.8176 117.33 76.8604 117.872 76.1318C118.211 75.677 118.697 75.2998 119.311 75.0315C119.924 74.7637 120.659 74.6116 121.448 74.6118C122.697 74.6113 124.065 74.991 125.287 75.8201C126.51 76.6514 127.6 77.9226 128.319 79.7812C128.499 80.2493 128.929 80.57 129.429 80.6098C129.929 80.6494 130.405 80.4001 130.656 79.9665C131.319 78.8232 132.352 77.872 133.553 77.2141C134.751 76.5549 136.11 76.1985 137.358 76.2002C138.221 76.2002 139.026 76.3669 139.713 76.6924C140.4 77.02 140.975 77.4951 141.427 78.1782C141.766 78.6948 141.944 79.2996 141.947 80.0571C141.964 81.7556 140.918 84.2058 138.676 86.7417Z"/><path id="Vector_11" d="M109.449 108.479L109.449 108.479L109.447 108.481L109.449 108.479Z"/><path id="Vector_12" d="M112.209 94.0044L112.21 94.0083L112.214 94.0149L112.209 94.0044Z"/><path id="Vector_13" d="M113.041 97.8275C113.041 97.8258 113.04 97.8241 113.04 97.8224C113.04 97.8197 113.04 97.8168 113.04 97.8141H113.04C113.018 97.3559 112.974 96.9057 112.908 96.4713L112.907 96.4677C112.84 96.0341 112.75 95.6064 112.634 95.1955C112.519 94.7841 112.379 94.3864 112.209 94.0082C112.133 93.8344 112.047 93.6461 111.932 93.444C111.68 93.0011 111.191 92.746 110.684 92.7926C109.943 92.8605 109.18 92.8949 108.401 92.8949C103.462 92.8998 97.8762 91.5114 93.4282 89.0135C92.9041 88.7198 92.2483 88.8231 91.8398 89.2635C91.5723 89.5521 91.3191 89.862 91.0808 90.1825L91.0791 90.1811C91.0703 90.1916 91.0642 90.2025 91.0557 90.213C91.0491 90.2221 91.041 90.2296 91.0344 90.2387L91.0359 90.2397C90.9375 90.3632 90.8452 90.4877 90.7622 90.6122L90.7615 90.6117C90.7583 90.6166 90.7549 90.622 90.7517 90.6269C90.7502 90.6288 90.7485 90.6308 90.7471 90.633L90.7476 90.6332C90.5005 90.994 90.2505 91.3898 90.0215 91.8109L90.021 91.8107C90.0181 91.8156 90.0166 91.8195 90.0137 91.8246C90.0083 91.8341 90.0024 91.8429 89.9973 91.8527L89.9983 91.8532C89.8833 92.0536 89.7847 92.2458 89.6995 92.4159L89.6982 92.4184C89.6111 92.5937 89.5154 92.7853 89.4214 92.9953L89.4209 92.995C89.4202 92.9967 89.4194 92.9987 89.4187 93.0004C89.4175 93.0033 89.4163 93.0053 89.415 93.0082L89.4155 93.0084C89.2407 93.3908 89.0874 93.7848 88.9502 94.1876L88.9485 94.1869C88.9392 94.2101 88.9348 94.2265 88.9263 94.2489C88.9241 94.2553 88.9209 94.2611 88.9187 94.2677L88.9192 94.268C88.8357 94.4879 88.7815 94.6718 88.7385 94.7982L88.7278 94.8326L88.6975 94.9333L88.698 94.9335C88.637 95.1278 88.5842 95.3231 88.5383 95.5214L88.5371 95.5211C88.5332 95.536 88.5298 95.5531 88.5256 95.5683C88.5252 95.5705 88.5244 95.5727 88.5239 95.5749H88.5242C88.4805 95.7401 88.4382 95.914 88.3994 96.0905L88.3813 96.1547L88.3606 96.2397C88.321 96.4279 88.2771 96.6361 88.24 96.8646C88.1655 97.31 88.1138 97.7404 88.0725 98.1701H88.0718C88.0713 98.1735 88.0715 98.1771 88.071 98.1806C88.0703 98.1884 88.0688 98.1962 88.0681 98.204H88.0696C88.0469 98.3986 88.0327 98.5961 88.033 98.7973V98.9152L88.0247 99.0453L88.0229 99.0849C88.0186 99.2184 88.0176 99.3459 88.0176 99.4669C88.0164 101.992 88.6792 104.574 90.2766 106.757C91.8699 108.942 94.3877 110.668 97.8542 111.538C99.1094 111.854 100.302 112.006 101.422 112.006C101.708 112.006 101.99 111.995 102.269 111.975V111.976C102.271 111.976 102.274 111.975 102.277 111.975C102.284 111.975 102.291 111.975 102.298 111.975L102.298 111.973C102.508 111.961 102.74 111.936 102.983 111.893L102.984 111.898C103.01 111.894 103.035 111.888 103.061 111.884C103.067 111.883 103.072 111.883 103.078 111.882L103.078 111.881C104.372 111.708 105.549 111.313 106.592 110.735L106.677 110.698C107.386 110.31 108.024 109.84 108.6 109.312L108.601 109.313C108.605 109.309 108.609 109.305 108.613 109.302C108.616 109.298 108.621 109.296 108.624 109.292L108.623 109.291C108.917 109.031 109.191 108.757 109.448 108.479C109.594 108.321 109.727 108.163 109.853 108.004L109.856 107.999C109.968 107.856 110.081 107.712 110.204 107.542L110.207 107.537C110.312 107.392 110.412 107.25 110.511 107.113L110.533 107.079C110.756 106.746 110.953 106.417 111.134 106.098L111.142 106.083C111.34 105.723 111.5 105.378 111.649 105.06L111.662 105.032C111.735 104.867 111.804 104.706 111.873 104.55L111.894 104.498C112.098 103.973 112.279 103.441 112.438 102.91L112.44 102.903C112.5 102.696 112.543 102.512 112.582 102.346H112.583C112.583 102.344 112.584 102.341 112.584 102.339C112.585 102.335 112.586 102.33 112.587 102.326L112.587 102.326C112.813 101.426 112.954 100.528 113.019 99.6427L113.022 99.5473V99.5133C113.044 99.1845 113.059 98.8549 113.059 98.5236C113.059 98.2926 113.053 98.0605 113.041 97.8275H113.041ZM110.426 99.4157L110.424 99.4696C110.368 100.212 110.251 100.961 110.062 101.709L110.057 101.729C110.017 101.898 109.982 102.043 109.946 102.168C109.807 102.632 109.649 103.094 109.475 103.545C109.412 103.688 109.351 103.828 109.292 103.963C109.143 104.279 109.007 104.569 108.867 104.824C108.711 105.099 108.55 105.365 108.377 105.626C108.282 105.759 108.189 105.89 108.099 106.015C108.004 106.145 107.916 106.26 107.81 106.395C107.717 106.512 107.631 106.615 107.538 106.715L107.536 106.717C107.321 106.951 107.102 107.169 106.883 107.361L106.86 107.382C106.425 107.784 105.956 108.127 105.437 108.412L105.383 108.435C104.589 108.883 103.701 109.187 102.66 109.318L102.566 109.333C102.46 109.355 102.31 109.371 102.136 109.38L102.106 109.381C101.886 109.398 101.658 109.406 101.422 109.406C100.538 109.406 99.5574 109.286 98.49 109.017C95.5061 108.257 93.5962 106.882 92.3748 105.221C91.1577 103.558 90.6187 101.549 90.6175 99.4669C90.6175 99.3664 90.6187 99.2729 90.6211 99.1855L90.6304 99.0392L90.6328 98.9574V98.7973C90.6331 98.6913 90.6387 98.5998 90.6526 98.4848L90.6563 98.4508C90.6944 98.0526 90.7405 97.6745 90.8045 97.2921L90.8062 97.2826C90.8277 97.1459 90.8614 96.985 90.8977 96.8109L90.9036 96.7902L90.9243 96.7052C90.9575 96.5475 91.002 96.3676 91.0486 96.1942L91.0618 96.1405C91.0923 96.0036 91.1316 95.8595 91.1824 95.6979L91.187 95.6825L91.2124 95.5983C91.2791 95.3932 91.3238 95.2445 91.356 95.1691L91.3858 95.0883C91.5005 94.7433 91.6333 94.4076 91.784 94.0797L91.7898 94.0666C91.8535 93.9232 91.9351 93.7592 92.0254 93.5778C92.1131 93.402 92.1922 93.2477 92.2639 93.1254L92.2876 93.0834C92.4681 92.7475 92.6839 92.4047 92.9043 92.0841L92.9187 92.0629L93.0867 91.8332L93.1277 91.7802C97.8262 94.1867 103.336 95.4901 108.401 95.4948C108.936 95.4948 109.463 95.4748 109.987 95.4452C110.038 95.5883 110.086 95.7392 110.131 95.8976L110.132 95.9025C110.214 96.1913 110.285 96.5214 110.338 96.8654C110.39 97.2074 110.426 97.5724 110.443 97.9484L110.444 97.9618C110.455 98.1447 110.459 98.3319 110.459 98.5236C110.459 98.8114 110.448 99.1085 110.426 99.4157Z"/><path id="Vector_14" d="M88.2383 96.8723L88.2398 96.8647L88.24 96.8628L88.2383 96.8723Z"/><path id="Vector_15" d="M112.634 95.1919L112.635 95.1956L112.635 95.1968L112.634 95.1919Z"/></g></g></svg>