<svg xmlns="http://www.w3.org/2000/svg" width="320" height="200" fill="none"><g fill="#BEBEC9"><path d="M144.198 37.09a1.3 1.3 0 0 0-1.027 1.524l.023.12a1.3 1.3 0 0 0 2.552-.497l-.023-.12a1.3 1.3 0 0 0-1.525-1.028ZM304.797 188.801c-.658-.081-2.08-.347-4.015-.753-6.801-1.422-20.166-4.564-34.084-7.888-13.921-3.325-28.404-6.835-37.488-9.004-10.218-2.441-16.437-6.014-20.465-9.749-4.026-3.742-5.908-7.673-7.339-11.084a1.3 1.3 0 1 0-2.398 1.005c1.466 3.506 3.557 7.896 7.968 11.984 4.41 4.095 11.093 7.861 21.63 10.374 10.373 2.476 27.811 6.707 43.405 10.413 7.797 1.853 15.133 3.574 20.9 4.88a467.05 467.05 0 0 0 7.339 1.614c1.97.411 3.388.682 4.225.788a1.3 1.3 0 1 0 .322-2.58ZM239.557 133.284h.003-.003Z"/><path d="M313.953 151.366c-.28-.787-.774-1.599-1.626-2.131a6.76 6.76 0 0 0-3.604-1.018c-.453.002-.87.049-1.259.113.021-.226.034-.463.035-.712.005-1.39-.398-3.128-1.666-4.811-1.292-1.726-2.833-2.682-4.138-3.177a8.778 8.778 0 0 0-1.389-.401c.173-.896.345-2.094.349-3.323-.005-1.04-.115-2.115-.563-3.115a3.923 3.923 0 0 0-1.003-1.372 3.557 3.557 0 0 0-1.665-.794 6.408 6.408 0 0 0-4.069.538c-1.488.726-2.664 1.916-3.633 3.237-1.423 1.953-2.411 4.229-3.078 6.063a3.647 3.647 0 0 0-.816-.506c-.627-.278-1.344-.419-2.124-.42-1.174-.001-2.501.334-3.777 1.139-.793.498-1.551 1.201-2.247 2.078a3.42 3.42 0 0 0-1.18-1.231 4.527 4.527 0 0 0-2.399-.707c-.891 0-1.688.272-2.356.633-.203.11-.388.232-.57.355a7.586 7.586 0 0 0-.363-1.831 4.746 4.746 0 0 0-.728-1.371 3.693 3.693 0 0 0-1.318-1.071 5.217 5.217 0 0 0-2.279-.512 6.28 6.28 0 0 0-1.434.181 3.341 3.341 0 0 0-.939-1.205c-.463-.372-1.112-.623-1.814-.647v-.003l-.038-.001-.014-.001v.001l-.078-.002c-.818.004-1.5.315-2.056.678a7.313 7.313 0 0 0-1.392 1.234c-.125-.134-.249-.269-.411-.392a2.81 2.81 0 0 0-2.13-.547c-.983.147-1.811.606-2.498 1.143-.911.718-1.6 1.588-2.122 2.348a6.215 6.215 0 0 0-.796-.676c-.863-.599-1.883-.964-2.955-.964a4.48 4.48 0 0 0-1.744.352 8.543 8.543 0 0 0-.938-2.369c-.465-.78-1.123-1.516-2.012-2.044-.887-.53-1.986-.83-3.239-.827-.107 0-.213.002-.32.006-1.467.054-2.695.417-3.67 1.004-1.472.88-2.291 2.216-2.71 3.423a8.572 8.572 0 0 0-.365 1.486 3.857 3.857 0 0 0-.869-.104c-.683 0-1.333.173-1.929.447-.895.413-1.687 1.045-2.405 1.793-.292.305-.562.642-.827.983-.365-.552-.775-1.034-1.239-1.417-.762-.629-1.675-1.023-2.64-1.023a3.36 3.36 0 0 0-1.04.161v-43.88c5.255.165 9.776.303 13.285.404 4.283.124 7.053.194 7.939.194l.184-.001h.005c2.526-.054 4.876-.836 6.678-2.28a8.54 8.54 0 0 0 3.212-6.104c.146-1.906.193-4.104.193-6.379 0-3.079-.087-6.297-.142-9.072-.049-2.674-.912-5.017-2.506-6.694-1.584-1.677-3.857-2.62-6.455-2.672v-.001h-.023l-.202-.003c-.965 0-4.046.076-8.784.208-3.597.1-8.14.234-13.384.393V37.065a5.114 5.114 0 0 0 3.33 1.26 5.121 5.121 0 0 0 3.628-1.503c1-1 1.505-2.32 1.504-3.63a5.122 5.122 0 0 0-1.504-3.628l-5.902-5.902 5.902-5.902c1-.999 1.505-2.32 1.504-3.629a5.122 5.122 0 0 0-1.504-3.629A5.12 5.12 0 0 0 225.193 9a5.118 5.118 0 0 0-3.628 1.503l-5.902 5.902-5.903-5.902A5.122 5.122 0 0 0 206.131 9a5.121 5.121 0 0 0-3.628 1.503A5.124 5.124 0 0 0 201 14.13a5.127 5.127 0 0 0 1.503 3.629l5.902 5.902-5.902 5.902A5.125 5.125 0 0 0 201 33.193a5.127 5.127 0 0 0 1.503 3.628c.999 1 2.32 1.505 3.628 1.504a5.125 5.125 0 0 0 3.629-1.503l1.76-1.76c-.015.077-.047.15-.047.232V64.47a27384.46 27384.46 0 0 0-53.521 1.727c-.012-.642-.042-2.082-.109-3.797-.091-2.326-.245-5.13-.52-7.159-.008-.055-.038-.098-.052-.15a8.6 8.6 0 0 0 1.149-.876 7.409 7.409 0 0 0 1.465-1.814c.185-.329.336-.665.448-1.008 1.19-.2 3.65-.627 6.173-1.135 1.757-.354 3.538-.745 4.962-1.133a18.216 18.216 0 0 0 1.852-.593c.26-.104.493-.209.722-.343.114-.068.229-.143.35-.245.12-.102.253-.23.382-.44.582-.974.771-2.044.772-3.05-.005-1.587-.454-3.082-.881-4.216-.431-1.13-.855-1.893-.876-1.93a1.301 1.301 0 0 0-1.615-.576c-.009.004-2.642 1.05-5.962 2.502-3.267 1.43-7.177 3.24-9.973 4.88a8.38 8.38 0 0 0-1.005-.52c-1.148-.494-2.358-.769-3.302-.936a20.771 20.771 0 0 0-.538-.086 71.652 71.652 0 0 0-.431-3.605c-.179-1.207-.401-2.45-.688-3.511a9.607 9.607 0 0 0-.506-1.46 4.148 4.148 0 0 0-.357-.639 2.37 2.37 0 0 0-.582-.6 5.854 5.854 0 0 0-3.351-1.068c-1.454-.007-2.979.587-4.153 1.83-.458.48-.843 1.076-1.185 1.733-3.844.46-6.032 1.83-6.153 1.907a1.304 1.304 0 0 0-.586 1.207c.044.48.35.897.794 1.083l.025.01c.148.064.927.405 1.887.94.902.5 1.957 1.181 2.79 1.922.2 2.815 1.083 5.816 2.852 8.306 1.015 1.423 2.332 2.671 3.972 3.557 1.637.888 3.589 1.4 5.808 1.399.145 0 .296-.01.443-.014.099.893.143 1.994.142 3.13 0 1.677-.085 3.426-.172 4.75-.027.42-.054.793-.079 1.112l-.511.034a1.3 1.3 0 0 0-1.139.86l-1.271.042a17072.88 17072.88 0 0 0-44.321 1.533c-5.992.217-11.041.408-14.786.56-3.753.152-6.165.263-6.992.33-1.867.152-3.417.511-4.711 1.081-1.945.845-3.28 2.225-4.045 3.83-.773 1.603-1.04 3.379-1.153 5.214-.027.458-.04.903-.04 1.332 0 1.886.257 3.508.746 4.895.727 2.08 2.009 3.616 3.559 4.589 1.55.978 3.322 1.415 5.093 1.527a166 166 0 0 0 2.5.11c10.066.396 47.946 1.71 84.155 2.926 15.202.51 30.097 1.002 42.525 1.402v38.332c-.771-.92-1.404-1.449-1.448-1.486a1.297 1.297 0 0 0-1.828.172c-.052.062-.647.788-1.243 2.05a12.703 12.703 0 0 0-1.016 3.32 87.711 87.711 0 0 1-.529-.711 42.416 42.416 0 0 1-1.431-2.062 12.897 12.897 0 0 1-.484-.811 2.928 2.928 0 0 1-.207-.444 1.301 1.301 0 0 0-2.402-.205c-.063.126-1.676 3.354-1.678 8.608 0 1.6.151 3.388.542 5.327a1.3 1.3 0 1 0 2.548-.513 24.362 24.362 0 0 1-.49-4.814c0-2.003.264-3.64.562-4.883.086.125.163.244.252.371 1.563 2.225 3.577 4.705 3.587 4.718a1.303 1.303 0 0 0 1.545.365c.536-.242.844-.82.746-1.401a9.64 9.64 0 0 1-.135-1.602 9.78 9.78 0 0 1 .942-4.155c.041-.087.08-.151.121-.231.092.109.182.208.279.332.688.872 1.429 2.082 1.767 3.439v18.156c-.002.666.17 1.309.487 1.842.478.806 1.222 1.326 1.996 1.637.78.312 1.617.439 2.451.44 1.217-.004 2.431-.266 3.465-.827.516-.285.993-.651 1.367-1.148a3.03 3.03 0 0 0 .624-1.829v-14.513c.181-.336.371-.542.533-.656a.845.845 0 0 1 .507-.168c.241 0 .586.102.986.43.397.326.826.871 1.171 1.645a62.516 62.516 0 0 1 1.49 3.594c.151.403.257.706.325.906l.073.22.016.051.003.011a1.301 1.301 0 0 0 2.487-.761c-.013-.041-.402-1.295-1.371-3.587.584-.946 1.273-1.797 1.958-2.38a4.675 4.675 0 0 1 1.057-.701c.327-.15.608-.211.845-.211.186.001.35.034.53.113.179.08.38.212.603.44a1.3 1.3 0 0 0 2.221-1.047h.001c-.001-.012-.017-.182-.017-.45-.007-.679.121-1.971.707-2.96.291-.5.676-.932 1.237-1.271.563-.336 1.325-.591 2.433-.635h.003l.216-.005c.856.003 1.446.19 1.91.463.688.408 1.163 1.083 1.49 1.935.325.843.468 1.82.512 2.61a1.3 1.3 0 0 0 2.286.771c.595-.68 1.151-.88 1.735-.891.472 0 .987.164 1.473.501.484.336.925.838 1.228 1.457.219.447.68.731 1.177.727a1.303 1.303 0 0 0 1.165-.743l.001-.001c.008-.02.478-.987 1.213-1.935.367-.476.8-.943 1.241-1.283.442-.344.876-.548 1.253-.601l.049-.005.134.055c.113.075.302.334.414.585.058.124.101.24.128.319l.027.086.004.014h.001c.132.506.557.885 1.075.959a1.304 1.304 0 0 0 1.303-.629 9.073 9.073 0 0 1 1.003-1.334c.278-.304.592-.586.869-.762.281-.181.498-.237.602-.233h.011c.211.012.255.049.324.095.094.065.229.284.297.531.036.12.057.235.068.312l.009.081h.001a1.296 1.296 0 0 0 1.941 1.071v.001c.008-.012.814-.424 1.666-.414.38.001.762.068 1.15.254.158.077.277.175.397.328.179.225.341.592.441 1.049.102.456.145.988.144 1.499a11.968 11.968 0 0 1-.177 2.001l-.022.12-.005.027-.001.003c-.13.614.201 1.236.783 1.473.581.236 1.251.02 1.587-.509a8.1 8.1 0 0 1 1.142-1.346 5.086 5.086 0 0 1 1.09-.8c.38-.2.744-.302 1.085-.302.314.003.629.073 1.032.319a.802.802 0 0 1 .336.388c.08.178.139.453.138.816.003.569-.147 1.329-.401 2.112a18.44 18.44 0 0 1-.946 2.322 1.3 1.3 0 1 0 2.342 1.128c.386-.801.777-1.712 1.08-2.656.153-.479.284-.965.377-1.455.301-.105.567-.312.727-.615.772-1.461 1.666-2.356 2.527-2.9.862-.543 1.706-.738 2.391-.738.454-.002.833.089 1.065.195l.002.001c.182.082.298.178.402.301.155.181.271.449.334.721.065.27.077.529.076.635v.048l-.001.004h.002a1.298 1.298 0 0 0 2.563.366l.006-.026c.071-.305.821-3.305 2.26-6.121.715-1.407 1.606-2.76 2.596-3.7.494-.471 1.009-.838 1.531-1.083a3.797 3.797 0 0 1 2.39-.3h.002a.948.948 0 0 1 .46.21c.17.144.348.422.475.872.126.444.189 1.028.188 1.646.001.974-.148 2.026-.3 2.816a19.11 19.11 0 0 1-.207.958c-.028.115-.052.204-.067.262l-.018.065-.004.016c-.115.406-.024.848.242 1.175.263.324.672.501 1.088.476v.002l.068-.002c.231 0 .992.034 1.912.386.922.355 2.003 1.004 2.984 2.307.912 1.226 1.14 2.328 1.146 3.251 0 .63-.12 1.17-.237 1.541a4.157 4.157 0 0 1-.154.417l-.043.092-.006.013.001.001a1.3 1.3 0 0 0 .237 1.54 1.3 1.3 0 0 0 1.549.2l.001.001.044-.023c.222-.119 1.261-.59 2.432-.583a4.14 4.14 0 0 1 2.232.627c.197.12.396.368.548.794.151.416.227.968.225 1.481.001.332-.03.648-.074.896a1.3 1.3 0 1 0 2.56.454 7.76 7.76 0 0 0 .114-1.35c-.001-.746-.094-1.558-.375-2.353ZM250.618 72.97c.055 2.789.141 5.99.141 9.021 0 2.237-.047 4.383-.185 6.18-.148 1.827-.961 3.234-2.247 4.276-1.288 1.035-3.08 1.666-5.106 1.708h.005-.139c-.847 0-3.978-.079-8.738-.218l-3.771-.112c1.015-1.762 3.388-5.887 6.042-10.547 3.454-6.064 7.371-13.01 9.412-16.872 1.142.3 2.07.85 2.793 1.608 1.077 1.137 1.747 2.793 1.793 4.956Zm-14.431-6.638c3.324-.092 5.741-.152 7.031-.173-2.113 3.932-5.685 10.264-8.857 15.832a2683.305 2683.305 0 0 1-4.601 8.042c-1.199 2.086-1.955 3.395-1.956 3.398-.057.097-.075.203-.103.306-4.637-.142-10.115-.316-16.187-.511l.726-1.533a542.04 542.04 0 0 1 2.399-5c.629.163 1.285.26 1.965.26a7.815 7.815 0 0 0 7.814-7.814 7.788 7.788 0 0 0-2.524-5.739l.089-.157c.882-1.566 2.779-4.913 3.715-6.458.029-.047.033-.101.055-.151 4.047-.12 7.579-.224 10.434-.302ZM190.8 92.549l.944-1.963c2.613-5.425 8.225-16.973 11.615-23.26 5.81-.184 11.258-.354 16.161-.503l3.192-.097a452.495 452.495 0 0 0-2.998 5.246 7.815 7.815 0 0 0-10.924 7.167 7.807 7.807 0 0 0 3.472 6.495 700.157 700.157 0 0 0-3.579 7.5c-5.582-.18-11.601-.377-17.883-.585Zm9.561-25.129c-2.208 4.183-5.059 9.924-7.475 14.86a1299.997 1299.997 0 0 0-4.914 10.156c-.003.007-.002.013-.005.02l-17.786-.593c.976-1.973 3.284-6.6 5.809-11.41a281.191 281.191 0 0 1 3.907-7.222c1.203-2.134 2.317-3.994 3.181-5.257 5.959-.193 11.766-.379 17.283-.554Zm12.557 15.405a5.192 5.192 0 0 1-1.528-3.686 5.191 5.191 0 0 1 1.528-3.687 5.19 5.19 0 0 1 3.686-1.527c1.444 0 2.739.582 3.687 1.527a5.195 5.195 0 0 1 1.527 3.687 5.195 5.195 0 0 1-1.527 3.686 5.193 5.193 0 0 1-3.687 1.528 5.19 5.19 0 0 1-3.686-1.528Zm-4.997-47.842a2.517 2.517 0 0 1-1.79.742 2.514 2.514 0 0 1-1.789-.742 2.522 2.522 0 0 1-.742-1.79 2.518 2.518 0 0 1 .742-1.79l6.821-6.821a1.31 1.31 0 0 0 .381-.92 1.31 1.31 0 0 0-.381-.92l-6.821-6.82a2.522 2.522 0 0 1-.742-1.79 2.519 2.519 0 0 1 .742-1.79 2.515 2.515 0 0 1 1.789-.742 2.515 2.515 0 0 1 1.79.741l6.823 6.822c.242.242.576.38.919.38.342 0 .677-.138.919-.38l6.821-6.822a2.519 2.519 0 0 1 1.79-.741 2.519 2.519 0 0 1 1.79.741c.497.498.74 1.138.742 1.79a2.524 2.524 0 0 1-.742 1.79l-6.822 6.822c-.242.242-.38.577-.38.92 0 .342.138.676.38.918l6.822 6.822c.497.497.74 1.137.742 1.79a2.524 2.524 0 0 1-.742 1.79 2.52 2.52 0 0 1-1.79.742 2.518 2.518 0 0 1-1.79-.742l-6.821-6.822a1.3 1.3 0 0 0-1.839 0l-6.822 6.822Zm4.852-.989c-.083 0-.155.032-.233.047l3.123-3.122 3.61 3.61c-.001.018-.01.032-.01.05v29.65l-5.19.16V35.294a1.3 1.3 0 0 0-1.3-1.3Zm-32.859 34.082c-.861 1.383-1.822 3.046-2.833 4.862-4.443 7.994-9.724 18.773-9.729 18.783-.008.015-.006.031-.012.046-6.027-.202-12.084-.407-18.042-.61.351-.906.932-2.302 1.656-3.958a251.904 251.904 0 0 1 4.857-10.453c.874-1.765 1.739-3.439 2.526-4.86.736-1.333 1.406-2.435 1.928-3.165a30436.025 30436.025 0 0 1 19.649-.645ZM155.245 62.5c.045 1.144.073 2.169.09 2.906l.003.123a1.29 1.29 0 0 0-.642.775l-.284.01c.099-1.18.303-3.936.303-6.616-.001-1.21-.043-2.393-.162-3.447.089-.022.18-.041.267-.065.21 1.818.346 4.263.425 6.314ZM138.99 40.01l-.01.097a21.064 21.064 0 0 0-1.205-.747 16.12 16.12 0 0 1 1.41-.335c-.068.325-.147.635-.195.985Zm7.968 12.886c-1.875-1.013-3.245-2.668-4.161-4.622-.914-1.948-1.347-4.178-1.345-6.177 0-.605.039-1.19.114-1.735.278-2.037.934-3.31 1.642-4.052.715-.74 1.486-1.015 2.271-1.022.633 0 1.271.205 1.808.568.043.064.14.242.231.495.204.538.412 1.372.586 2.283.263 1.372.464 2.933.596 4.141.066.604.115 1.122.148 1.486.032.365.047.572.048.572a1.3 1.3 0 0 0 1.2 1.199l.035.003c.207.017 1.293.124 2.467.418.586.146 1.192.338 1.709.572.517.232.936.51 1.168.76a1.3 1.3 0 0 0 1.838.05c.157-.15.254-.333.319-.525 2.607-1.522 6.434-3.301 9.622-4.695a218.513 218.513 0 0 1 4.755-2.012c.084.197.173.415.26.65.356.945.681 2.162.676 3.2.001.614-.122 1.129-.338 1.553-.031.016-.057.03-.098.047-.265.116-.704.269-1.239.425-1.883.553-4.938 1.182-7.487 1.659-1.276.24-2.431.443-3.266.587-.835.143-1.346.226-1.347.226-.095.016-.173.064-.258.098a1.243 1.243 0 0 0-.185.07c-.02.011-.041.02-.06.034-.39.198-.682.57-.719 1.037-.015.214-.113.557-.327.934-.319.568-.885 1.206-1.652 1.718a6.532 6.532 0 0 1-2.866 1.044 13.28 13.28 0 0 1-1.573.097c-1.825-.002-3.318-.41-4.572-1.086Zm10.141 15.93A74.021 74.021 0 0 0 155 72.604c-1.832 3.501-3.855 7.789-5.475 11.4-.81 1.805-1.518 3.44-2.052 4.725-.267.644-.49 1.199-.662 1.65-.102.27-.179.487-.246.685-5.282-.18-10.463-.356-15.453-.528.346-.092.655-.315.829-.66.002-.005 1.937-3.858 4.09-8.374a284.04 284.04 0 0 0 3.183-6.877c.916-2.065 1.679-3.898 2.151-5.272 5.147-.174 10.42-.35 15.734-.527Zm-18.532.622a88.983 88.983 0 0 1-1.729 4.123c-1.439 3.244-3.247 7.034-4.692 10.007a583.149 583.149 0 0 1-2.529 5.13 1.3 1.3 0 0 0 .578 1.746c.069.034.142.037.213.058-5.875-.202-11.469-.396-16.632-.576.713-1.52 2.159-4.606 3.726-7.965 2.165-4.643 4.542-9.77 5.524-11.991 4.944-.172 10.159-.35 15.541-.532Zm-56.11 19.345c-.97-.062-1.891-.24-2.711-.555-1.233-.478-2.238-1.227-2.993-2.437-.75-1.213-1.258-2.947-1.258-5.425 0-.376.011-.768.036-1.176l-1.298-.078 1.298.078c.066-1.118.2-2.137.444-3.018.376-1.328.952-2.313 1.979-3.094 1.03-.776 2.616-1.375 5.102-1.578.39-.032 1.379-.085 2.83-.151a1734 1734 0 0 1 12.346-.493c-.38.8-.875 1.811-1.433 2.931-1.373 2.76-3.13 6.2-4.541 8.946a1503.762 1503.762 0 0 1-2.48 4.8c-.279.538-.128 1.164.304 1.551l-1.367-.05c-3.568-.133-5.813-.223-6.258-.251Zm9.285.362c.138-.11.257-.246.344-.413 0-.002 1.901-3.66 3.987-7.743a675.402 675.402 0 0 0 3.054-6.044c.891-1.79 1.617-3.286 2.018-4.197 5.467-.201 11.912-.43 18.987-.677a1226.12 1226.12 0 0 1-4.987 10.791c-1.105 2.37-2.152 4.609-2.924 6.254l-1.265 2.7c-.002.003-.001.008-.003.012a19295.645 19295.645 0 0 1-19.21-.683ZM219.16 158.08c-.127.181-.484.451-.996.635a5.2 5.2 0 0 1-1.756.301c-.746.004-1.44-.176-1.82-.424a1.137 1.137 0 0 1-.388-.376.98.98 0 0 1-.126-.52V95.909l4.245.135.945.03v61.738c-.004.09-.016.145-.104.269Z"/><path d="M285.828 139.957h.001l.001.001-.002-.001ZM297.424 130.625h.002-.002ZM142.485 153.603l-.144.086a1.3 1.3 0 1 0 1.336 2.23l.143-.086a1.3 1.3 0 1 0-1.335-2.23ZM95.263 172.188a1.3 1.3 0 0 0-1.156 1.429l.017.166a1.3 1.3 0 1 0 2.586-.273l-.017-.166a1.3 1.3 0 0 0-1.43-1.156ZM160.151 164.744a1.3 1.3 0 0 0-1.025 1.526l.032.164a1.3 1.3 0 0 0 2.552-.501l-.033-.164a1.3 1.3 0 0 0-1.526-1.025ZM251.731 187.599a1.3 1.3 0 0 0-1.025 1.526l.033.164a1.3 1.3 0 0 0 2.551-.501l-.033-.164a1.298 1.298 0 0 0-1.526-1.025ZM197.61 168.574l-.144.086a1.3 1.3 0 1 0 1.336 2.231l.143-.086a1.3 1.3 0 1 0-1.335-2.231ZM75.274 178.84a1.299 1.299 0 0 0-1.132 1.446l-.004.012-.016.023a1.296 1.296 0 0 0-.096 2.592l.138.003a2.543 2.543 0 0 0 1.862-.822 2.664 2.664 0 0 0 .696-2.122 1.3 1.3 0 0 0-1.448-1.132ZM61.709 185.122v.001l.002.001-.002-.002Z"/><path d="M61.71 185.123a1.773 1.773 0 0 0-.776-.37 2.872 2.872 0 0 0-.617-.061 5.28 5.28 0 0 0-1.313.184c-.68.182-1.4.477-2.046.986-.321.256-.625.573-.859.976a2.826 2.826 0 0 0-.384 1.419c0 .695.256 1.377.686 1.997.266.384.573.712.955.957.377.246.841.391 1.29.388.365.001.706-.088.997-.219.512-.232.89-.572 1.208-.937.473-.552.82-1.186 1.078-1.825.252-.645.418-1.268.425-1.923a2.5 2.5 0 0 0-.1-.728c-.08-.26-.231-.578-.543-.844Zm-3.035 3.819c-.037-.039-.078-.083-.133-.163-.213-.312-.226-.469-.227-.522.004-.054.002-.076.081-.184.111-.155.454-.398.86-.55.113-.045.23-.081.346-.113-.145.441-.402.942-.655 1.256a1.602 1.602 0 0 1-.272.276ZM225.762 174.785a2.549 2.549 0 0 0-1.22-.32c-.082 0-.173.004-.271.016a1.3 1.3 0 0 0-1.133 1.449 1.293 1.293 0 0 0 1.366 1.126l-.001.005.01.004a.642.642 0 0 1 .217.23.818.818 0 0 1 .119.407.534.534 0 0 1-.064.261.944.944 0 0 1-.318.323c-.198.129-.294.139-.367.142-.075-.001-.167-.02-.32-.122-.224-.148-.525-.507-.735-.977a3.807 3.807 0 0 1-.339-1.527 2.411 2.411 0 0 1 .122-.795 1.3 1.3 0 1 0-2.451-.865v-.001a5.007 5.007 0 0 0-.272 1.661 6.342 6.342 0 0 0 .993 3.372c.319.489.713.932 1.21 1.275.494.342 1.115.58 1.792.579.629.002 1.27-.211 1.821-.587a3.53 3.53 0 0 0 1.153-1.246c.26-.48.376-1.002.375-1.493a3.424 3.424 0 0 0-.797-2.177 3.087 3.087 0 0 0-.89-.74ZM240 180.953a1.297 1.297 0 0 0-1.477 1.071h-.003l-.036.066c-.022-.02-.035-.028-.061-.054a1.3 1.3 0 0 0-1.839 1.838c.279.279.577.508.911.674.333.165.706.262 1.076.261.434.002.839-.133 1.149-.319.47-.283.76-.648.969-.993.206-.354.334-.68.398-1.061a1.3 1.3 0 0 0-1.087-1.483ZM112.035 152.886c-3.634 4.31-9.651 8.355-17.213 12.018-11.344 5.504-26.133 10.179-41.528 14.107-15.396 3.931-31.403 7.124-45.232 9.707a1.3 1.3 0 0 0 .477 2.556c18.473-3.452 40.859-7.991 60.595-13.954 9.87-2.983 19.078-6.321 26.822-10.077 7.744-3.761 14.035-7.921 18.065-12.679a1.3 1.3 0 0 0-1.986-1.678ZM58.367 141.718h.002l.002-.001-.004.001ZM63.738 140.645h.002-.002ZM89.643 138.497h.002-.002Z"/><path d="M116.778 141.374a4.455 4.455 0 0 0-2.032-.495c-.886 0-1.682.264-2.354.614-.34.177-.642.381-.928.59a13.007 13.007 0 0 0-.214-1.371c-.142-.631-.338-1.26-.662-1.848-.321-.579-.798-1.156-1.524-1.489a5.445 5.445 0 0 0-2.27-.49 6.13 6.13 0 0 0-1.558.214 3.79 3.79 0 0 0-.316-.47 2.812 2.812 0 0 0-2.247-1.096l-.066.001h-.001l-.02.001v.001a4.226 4.226 0 0 0-2.159.685 6.028 6.028 0 0 0-1.195 1.019 3.035 3.035 0 0 0-2.18-1.031v-.002l-.028-.001h-.005l-.09-.002c-.508 0-.983.119-1.406.296-.743.313-1.355.793-1.896 1.312-.655.633-1.2 1.334-1.633 1.956a5.467 5.467 0 0 0-2.35-1.271 4.506 4.506 0 0 0-1.122-.142c-.74.003-1.376.18-1.921.405a8.834 8.834 0 0 0-.65-1.897c-.424-.877-1.077-1.777-2.059-2.451-.98-.677-2.268-1.09-3.8-1.086-.102 0-.201.002-.299.006-1.514.046-2.778.453-3.758 1.1a6.115 6.115 0 0 0-1.724 1.719c-.634.948-.956 1.945-1.133 2.79-.019.094-.03.178-.046.268a4.305 4.305 0 0 0-.616-.053c-1.007-.001-2.089.345-3.111 1.069-.764.54-1.497 1.286-2.18 2.261-.082-.114-.147-.242-.233-.351-.314-.39-.662-.75-1.094-1.042-.428-.289-.971-.514-1.587-.514a2.54 2.54 0 0 0-.571.066 3.621 3.621 0 0 0-1.76.963c-.34.341-.59.717-.776 1.096a4.868 4.868 0 0 0-.333-.269c-.572-.413-1.334-.733-2.199-.73-.1 0-.2.004-.303.013-1.154.096-2.139.604-2.945 1.224a9.287 9.287 0 0 0-.95.862c-.088-3.954-.986-6.87-1.923-8.815-.986-2.048-1.994-3.032-2.087-3.12a1.3 1.3 0 0 0-1.888.103 11.643 11.643 0 0 0-2.294 4.314 12.741 12.741 0 0 0-.345 1.605l-3.316-4.552a1.303 1.303 0 0 0-1.226-.523 1.304 1.304 0 0 0-1.042.832 25.875 25.875 0 0 0-1.609 8.912c0 .5.022 1.015.055 1.537-.052-.02-.094-.028-.148-.051-.728-.302-1.599-.834-2.59-1.325-.993-.485-2.142-.944-3.478-.947-.234 0-.471.014-.71.045-.774.1-1.448.313-2.014.63a3.984 3.984 0 0 0-1.731 1.896 4.487 4.487 0 0 0-.299.995c-.06-.021-.115-.043-.177-.064-.918-.305-2.013-.568-3.187-.569-.21 0-.422.009-.635.028-2.213.197-3.91 1.162-5.033 2.055-.167.133-.318.263-.461.391-.053-.066-.103-.131-.16-.198a5.709 5.709 0 0 0-1.685-1.329 5.665 5.665 0 0 0-2.607-.611c-.444 0-.91.046-1.398.143-1.79.347-3.189 1.273-4.076 2.462-.893 1.187-1.294 2.595-1.295 3.946.004 1.376.41 2.723 1.262 3.781a1.3 1.3 0 0 0 2.018-1.64c-.408-.494-.683-1.29-.68-2.141 0-.837.255-1.699.771-2.382.522-.683 1.285-1.229 2.504-1.476.333-.065.63-.093.894-.093.6.002 1.045.134 1.419.324.557.284.963.737 1.226 1.136.13.198.223.378.28.5l.056.133.01.024v-.001c.16.458.565.794 1.046.862.482.068.966-.143 1.246-.541.01-.016.482-.666 1.327-1.317.85-.656 2.046-1.304 3.567-1.439.132-.012.267-.017.404-.017.773-.002 1.623.186 2.364.435.742.248 1.374.549 1.746.739a1.304 1.304 0 0 0 1.413-.15c.396-.323.565-.852.433-1.345a3.171 3.171 0 0 1-.076-.702c-.002-.409.088-.847.302-1.143.11-.153.248-.29.482-.423.234-.131.574-.255 1.077-.32.127-.017.252-.025.377-.025.475 0 .97.113 1.506.317.804.304 1.668.816 2.594 1.297.464.24.947.471 1.469.651.314.108.65.185.997.239.061.326.12.651.198.982a1.3 1.3 0 0 0 2.532-.592 20.662 20.662 0 0 1-.535-4.707 23.13 23.13 0 0 1 .702-5.594l4.125 5.663a1.3 1.3 0 0 0 2.324-1.028 9.023 9.023 0 0 1-.127-1.609c0-.82.09-1.875.412-2.985.188-.65.466-1.316.836-1.975.212.345.44.754.67 1.249.799 1.722 1.603 4.371 1.604 8.143 0 1.168-.078 2.444-.258 3.834a1.298 1.298 0 0 0 .941 1.419 1.298 1.298 0 0 0 1.539-.73l.002-.005c.042-.097.602-1.312 1.476-2.46.434-.574.946-1.127 1.47-1.518.528-.396 1.042-.618 1.523-.655l.004-.001.085-.004c.24.003.44.074.685.245.362.251.74.76.981 1.212.123.225.216.431.276.575l.064.164.014.036v.001c.21.629.86 1 1.508.86a1.3 1.3 0 0 0 1.018-1.403 4.466 4.466 0 0 1-.014-.385c-.004-.417.058-1.1.258-1.59.098-.247.22-.438.35-.567.132-.126.265-.21.501-.27a.65.65 0 0 1 .226.137c.26.202.639.678.98 1.272.519.892.986 2.031 1.308 2.929a27.22 27.22 0 0 1 .473 1.436l.024.082.006.024a1.3 1.3 0 0 0 2.505-.7c-.011-.033-.451-1.609-1.196-3.321.055-.064.12-.113.164-.189.718-1.264 1.457-2.048 2.102-2.503.648-.456 1.195-.592 1.61-.593.427 0 .724.146.884.295.388.36.961.447 1.44.22.478-.226.771-.724.74-1.251l-.002-.15c-.007-.449.08-1.793.659-2.875.287-.546.673-1.025 1.227-1.39.556-.363 1.302-.636 2.416-.675l.212-.004c1.092.005 1.796.267 2.33.629.399.275.71.623.962 1.026.378.602.605 1.328.723 1.954.119.625.132 1.143.132 1.314v.066a1.298 1.298 0 0 0 2.211.962l.001.001.04-.037c.104-.094.397-.336.775-.536.379-.202.828-.352 1.257-.35.157 0 .313.018.474.06h.003a2.885 2.885 0 0 1 1.496.935c.154.179.264.349.33.464l.065.125.01.019.001-.001a1.3 1.3 0 0 0 2.347.104l.003-.005a15.25 15.25 0 0 1 1.446-2.164c.4-.495.855-.963 1.274-1.268.421-.314.773-.427.958-.42H96.947c.146.01.185.033.276.098.13.093.308.369.406.645.05.135.086.262.106.348l.02.093.003.016h.001a1.298 1.298 0 0 0 2.463.345v.001c.008-.023.323-.666.816-1.234.244-.284.529-.545.809-.717.284-.173.543-.259.815-.265l.013-.001.107.02c.024.011.098.063.194.23.095.161.191.418.258.704a1.3 1.3 0 0 0 1.947.806 3.55 3.55 0 0 1 1.613-.408c.376.001.772.066 1.193.257.047.018.175.108.327.382.228.4.427 1.13.528 1.89.106.762.135 1.556.135 2.142 0 .285-.007.522-.013.684l-.008.185-.004.055a1.3 1.3 0 0 0 2.376.813l.001-.001c.025-.04.497-.711 1.179-1.321a5.37 5.37 0 0 1 1.122-.792c.391-.198.767-.301 1.116-.301.273.002.538.056.853.214.239.127.324.232.414.398.084.166.145.426.145.776.01.808-.359 1.988-.766 2.901a15.396 15.396 0 0 1-.734 1.461l-.047.08-.01.018-.002.002a1.301 1.301 0 0 0 2.22 1.354c.02-.034.483-.792.956-1.875.468-1.089.972-2.478.983-3.941-.001-.634-.103-1.301-.418-1.936a3.473 3.473 0 0 0-1.562-1.556Z"/></g></svg>