<svg xmlns="http://www.w3.org/2000/svg" width="200" height="200" fill="none"><path fill="#BEBEC9" d="M86.833 58.7a8.018 8.018 0 0 0-4.255-1.278 7.793 7.793 0 0 0-4.31 1.346 10.728 10.728 0 0 0-3.216 3.437 1.3 1.3 0 1 0 2.226 1.343 8.143 8.143 0 0 1 2.424-2.611 5.19 5.19 0 0 1 2.876-.915 5.412 5.412 0 0 1 2.882.886 1.3 1.3 0 1 0 1.373-2.208ZM79.23 76.226a1.28 1.28 0 0 0-.08-.233 1.254 1.254 0 0 0-.098-.228 1.303 1.303 0 0 0-.171-.192 1.227 1.227 0 0 0-.14-.157 8.686 8.686 0 0 1-2.641-3.96 1.3 1.3 0 0 0-2.479.786 11.423 11.423 0 0 0 2.661 4.435 108.385 108.385 0 0 0-4.52 8.198 87.187 87.187 0 0 0-7.446 20.53 1.3 1.3 0 0 0 2.546.524 84.679 84.679 0 0 1 7.228-19.895 110.405 110.405 0 0 1 3.49-6.463 81.408 81.408 0 0 1 1.37-2.257l.097-.153c.032-.064.059-.13.08-.2.04-.077.071-.157.095-.24.012-.082.016-.165.012-.248a1.272 1.272 0 0 0-.004-.247Z"/><path fill="#FFE632" d="M45.524 49.669c.7.642 1.535 1.405 2.413 2.196 1.139 1.028 2.343 2.1 3.399 3.006.528.454 1.018.866 1.45 1.215.433.349.799.63 1.117.843.46.289.935.553 1.423.793 2.146 1.09 6.08 2.849 9.985 4.357 1.952.752 3.89 1.44 5.6 1.948.855.254 1.653.462 2.377.61.647.145 1.307.226 1.97.242.113 0 .225-.004.336-.012.564-.04 1.774-.154 3.484-.323 1.707-.168 3.9-.391 6.382-.647a1.3 1.3 0 0 0-.266-2.586c-2.48.255-4.67.478-6.371.646-1.698.168-2.92.282-3.413.317l-.152.005a8.652 8.652 0 0 1-1.721-.247 73.594 73.594 0 0 1-10.535-3.684 124.296 124.296 0 0 1-4.958-2.193 54.15 54.15 0 0 1-1.747-.857c-.465-.24-.815-.44-.952-.533-.194-.128-.527-.38-.926-.703-1.409-1.136-3.677-3.158-5.573-4.88a414.113 414.113 0 0 1-3.433-3.156 1.3 1.3 0 0 0-2.17.746 30.646 30.646 0 0 0-.366 4.03 7.57 7.57 0 0 0 .097 1.32c.045.224.116.442.214.648.184.385.396.756.636 1.11a59.39 59.39 0 0 0 3.661 4.735c.477.57.924 1.094 1.297 1.528a10.221 10.221 0 0 0-2.475 1.91c-.46.492-1.305 1.294-2.283 2.184a253.841 253.841 0 0 1-4.688 4.137 423.072 423.072 0 0 1-2.158 1.851L8.389 72.701a1.3 1.3 0 0 0 .003 2.59l4.355.367c3.937.332 9.883.838 15.01 1.285 2.563.224 4.922.433 6.72.6.9.082 1.659.154 2.23.212.566.056.973.103 1.071.118.1.015.2.023.3.023.282-.005.56-.051.827-.139.49-.166.962-.381 1.408-.643a62.13 62.13 0 0 0 6.081-4.273c1.057-.805 2.072-1.585 2.936-2.225a21.991 21.991 0 0 1 1.968-1.352c.955-.534 1.724-1.113 2.486-1.514a5.056 5.056 0 0 1 2.494-.663 9.185 9.185 0 0 1 3.568.873 78.719 78.719 0 0 0 8.29 3.009c2.208.699 4.478 1.18 6.779 1.439.204.016.425.02.694.021 1.67-.001 5.239-.228 9.594-.55a1.3 1.3 0 0 0-.193-2.593c-4.32.322-7.925.545-9.401.543-.227 0-.402-.006-.484-.013a33.225 33.225 0 0 1-6.249-1.34 76.107 76.107 0 0 1-8.011-2.908 11.73 11.73 0 0 0-4.587-1.081 7.681 7.681 0 0 0-3.716.968c-.992.533-1.778 1.126-2.526 1.537-.437.252-.86.526-1.27.822-1.662 1.171-4.079 3.094-6.295 4.723-1.105.812-2.159 1.549-3.002 2.06-.34.211-.693.402-1.057.57-.1.045-.203.084-.309.116l-.03.007c-.149-.02-.327-.04-.583-.068-2.01-.214-7.822-.726-13.721-1.234l14.045-1.208a1.29 1.29 0 0 0 .73-.303c.002-.003 1.882-1.595 4.023-3.465 1.07-.936 2.206-1.94 3.208-2.852 1.004-.916 1.865-1.728 2.429-2.328a7.312 7.312 0 0 1 3.213-2.016 1.3 1.3 0 0 0 .894-1.606 1.28 1.28 0 0 0-.74-.82l-.06-.067a134.152 134.152 0 0 1-3.466-4.126 45.509 45.509 0 0 1-1.81-2.392 11.417 11.417 0 0 1-.558-.873 2.948 2.948 0 0 1-.133-.262l-.014-.037a5.241 5.241 0 0 1-.053-.83c0-.349.019-.741.047-1.134ZM124.584 66.31a867.72 867.72 0 0 1-3.991.248l-6.766.404a1.297 1.297 0 0 0-1.219 1.376 1.301 1.301 0 0 0 1.376 1.22h-.001c2.233-.135 4.493-.27 6.764-.405 1.354-.08 2.688-.163 4.004-.248a1.3 1.3 0 1 0-.167-2.595ZM128.559 53.827a686.924 686.924 0 0 1-9.956-4.405 192.413 192.413 0 0 1-4.553-2.126 45.938 45.938 0 0 1-1.55-.786l-.205-.113c.031-1.833.108-6.754.108-10.706 0-1.238-.007-2.38-.026-3.309-.01-.464-.023-.874-.039-1.22a10.824 10.824 0 0 0-.067-.868 18.667 18.667 0 0 0-.536-2.324c-.749-2.658-1.98-6.114-1.984-6.128a1.302 1.302 0 0 0-2.134-.494 1.295 1.295 0 0 0-.38.763l-2.32 17.863a804.27 804.27 0 0 1-2.284-3.037 311.455 311.455 0 0 1-1.458-1.964 66.526 66.526 0 0 1-.48-.661l-.146-.209-.041-.061-.01-.016a1.432 1.432 0 0 0-.325-.372 1.787 1.787 0 0 0-.423-.251 4.37 4.37 0 0 0-.645-.209c-.843-.213-2.16-.423-3.748-.644-4.265-.591-10.292-1.195-11.46-1.31l-9.083-4.141a1.3 1.3 0 0 0-1.553 1.997c.002.002 1.539 1.915 3.2 3.935a213 213 0 0 0 2.41 2.888c.359.422.683.794.955 1.096.137.15.26.284.372.4.114.118.21.214.327.315.116.098.245.183.382.25.206.101.419.186.638.254 1.197.346 2.41.63 3.637.849 3.758.735 8.892 1.526 10.576 1.78.543.807 1.715 2.543 2.958 4.364.85 1.244 1.729 2.523 2.46 3.565.365.52.694.982.965 1.354.276.376.477.645.658.853.164.177.347.336.546.473.359.261.838.566 1.437.929 2.083 1.26 5.569 3.172 8.555 4.782.635.343 1.244.67 1.813.974l-5.421.577a1.302 1.302 0 0 0-1.156 1.43 1.31 1.31 0 0 0 .476.874 1.298 1.298 0 0 0 .954.281c5.464-.58 9.35-.995 9.35-.995.481-.103.907-.38 1.195-.78a1.316 1.316 0 0 0 .091-.99 1.294 1.294 0 0 0-.637-.765c-.002-.001-.913-.48-2.3-1.218a493.41 493.41 0 0 1-7.93-4.3 129.997 129.997 0 0 1-3.528-2.025c-.467-.28-.857-.525-1.134-.712a6.238 6.238 0 0 1-.317-.225l-.057-.046c-.074-.086-.261-.33-.495-.65-.9-1.233-2.571-3.664-4.004-5.771a817.479 817.479 0 0 1-2.64-3.904 1.298 1.298 0 0 0-.89-.561c-.001 0-.88-.13-2.222-.34a288.772 288.772 0 0 1-7.665-1.289 73.6 73.6 0 0 1-3.396-.697 15.011 15.011 0 0 1-1.06-.285 3.161 3.161 0 0 1-.213-.076l-.082-.08c-.317-.328-.929-1.03-1.63-1.861a223.008 223.008 0 0 1-1.65-1.98l4.226 1.926c.13.06.27.097.413.111.002 0 .959.094 2.407.244 2.172.227 5.442.583 8.19.944 1.374.18 2.62.362 3.512.525.423.077.761.151.976.209.281.4.765 1.058 1.367 1.867 1.912 2.57 4.88 6.482 4.881 6.483a1.3 1.3 0 0 0 2.325-.618l1.99-15.323c.117.4.228.79.321 1.143.124.446.223.9.297 1.357.013.098.033.338.047.648.045.94.063 2.567.062 4.406 0 2.456-.03 5.308-.06 7.543-.03 2.236-.06 3.851-.061 3.855a1.302 1.302 0 0 0 .508 1.055c.153.115.313.22.479.318.651.388 1.681.905 2.992 1.533 3.914 1.872 10.208 4.63 13.863 6.217a1.302 1.302 0 0 0 1.722-1.67 1.301 1.301 0 0 0-.687-.715ZM168.538 71.979a224.63 224.63 0 0 1 2.658-4.455c.464-.752.9-1.44 1.239-1.938.109-.16.202-.291.285-.405l8.578-.256c.261-.009.513-.095.724-.248l6.96-5.049a1.304 1.304 0 0 0 .471-1.46 1.3 1.3 0 0 0-1.249-.892l-4.258.046 5.639-1.88a1.301 1.301 0 0 0 .17-2.396l-3.76-1.88 2.572-5.255a1.298 1.298 0 0 0-1.74-1.739c-.001 0-.431.212-1.134.552-2.103 1.017-6.667 3.194-9.147 4.184a4.17 4.17 0 0 1-.459.134c-.927.233-2.83.568-5.279.939-7.37 1.12-19.859 2.64-28.927 3.704a1.299 1.299 0 1 0 .303 2.582c6.457-.758 14.641-1.745 21.504-2.659 3.432-.457 6.533-.895 8.931-1.278 1.2-.191 2.224-.37 3.036-.531.406-.081.759-.158 1.062-.234a6.35 6.35 0 0 0 .795-.242c1.763-.706 4.358-1.903 6.537-2.932l.534-.253-1.49 3.044a1.298 1.298 0 0 0 .587 1.734l2.105 1.053-10.532 3.51a1.301 1.301 0 0 0 .425 2.534l8.474-.093-3.332 2.418-8.742.26c-.222.008-.439.071-.63.185-.11.067-.213.146-.305.236-.119.117-.23.242-.332.375-.377.48-.853 1.209-1.409 2.092-1.652 2.63-3.867 6.491-3.872 6.499a1.314 1.314 0 0 0-.163.802l.622 5.16-.311-.557c-.623-1.128-1.209-2.245-1.626-3.145a13.269 13.269 0 0 1-.477-1.142 3.555 3.555 0 0 1-.106-.35l-.013-.063c.03-.2.069-.397.119-.593.268-1.113.907-3.052 1.471-4.667.282-.81.547-1.548.74-2.081.194-.534.316-.86.316-.86a1.295 1.295 0 0 0-.197-1.26 1.31 1.31 0 0 0-1.179-.485l-.872.103a631.77 631.77 0 0 1-11.94 1.261 1.3 1.3 0 0 0 .251 2.588c4.92-.477 8.633-.883 10.78-1.127-.188.526-.394 1.113-.604 1.729a76.027 76.027 0 0 0-.948 2.93c-.136.455-.253.88-.345 1.258a7.14 7.14 0 0 0-.188 1.036l-.007.168c.004.252.04.502.106.745.132.473.299.935.501 1.383a68.64 68.64 0 0 0 3.286 6.196c1.175 2.02 2.168 3.622 2.172 3.629a1.3 1.3 0 0 0 2.395-.84L168 72.905l.538-.927ZM24.216 30.218c.27.247.566.502.883.755-.026.264-.049.59-.049.986a9.322 9.322 0 0 0 .885 4.071 7.504 7.504 0 0 0 4.286 3.772c1.281.462 2.634.692 3.995.68 2.386-.06 4.74-.564 6.94-1.49a28.829 28.829 0 0 0 2.223-1.005c.27-.136.487-.249.628-.32l.136-.068-.005-.011a1.284 1.284 0 0 0 .197-2.323 1.298 1.298 0 0 0-.506-.167 3.524 3.524 0 0 1-1.813-.855 30.844 30.844 0 0 1-3.083-3.307 12.387 12.387 0 0 0-4.386-3.409 6.25 6.25 0 0 0-2.403-.463 9.976 9.976 0 0 0-4.55 1.27c-.36.192-.673.379-.945.55a12.39 12.39 0 0 1-.67-.578 15.85 15.85 0 0 1-1.467-1.551l-.076-.095-.017-.022-.002-.002a1.3 1.3 0 1 0-2.067 1.576 17.178 17.178 0 0 0 1.866 2.006Zm19.925 7.381-.004-.01.004.01Zm-11.997-7.935c.483-.006.962.084 1.41.265a7.817 7.817 0 0 1 2.357 1.613c1.11 1.045 2.117 2.387 3.258 3.59.442.462.92.888 1.43 1.275-.394.166-.812.334-1.272.497-1.637.608-3.364.939-5.11.978a8.88 8.88 0 0 1-3.094-.519 4.875 4.875 0 0 1-2.853-2.477 6.396 6.396 0 0 1-.596-2.334c.37.161.75.294 1.14.399a1.3 1.3 0 0 0 .64-2.52c-.045-.011-.09-.03-.136-.042a6.927 6.927 0 0 1 2.826-.726ZM52.571 15.671l-.007.01c.025.018.187.159.394.339a26.722 26.722 0 0 0 4.236 3.05 14.763 14.763 0 0 0 7.178 2.135c.397 0 .794-.022 1.188-.067a7.687 7.687 0 0 0 4.003-1.604 8.456 8.456 0 0 0 2.688-4.073c.176-.548.306-1.11.39-1.678a17.206 17.206 0 0 0 3.326-2.026 1.3 1.3 0 0 0-1.633-2.024l-.002.002a15 15 0 0 1-2.02 1.308c-.216.118-.45.229-.684.339-.385-.4-.793-.777-1.222-1.13a10.778 10.778 0 0 0-2.253-1.438 7.048 7.048 0 0 0-2.966-.697c-.302 0-.604.023-.903.069a10.24 10.24 0 0 0-3.423 1.233c-1.525.85-2.823 1.9-4.002 2.68-.52.36-1.073.671-1.651.928-.442.2-.92.31-1.406.32-.112 0-.225-.006-.336-.02v.003c-.023-.003-.037-.008-.063-.01a1.3 1.3 0 0 0-1.393 1.164 1.286 1.286 0 0 0 .561 1.187Zm.058.05-.002.003.002-.003Zm.223.09-.008.021.008-.022Zm.35.099v.002-.002Zm3.736-.827c1.352-.8 2.661-1.67 3.922-2.608a9.574 9.574 0 0 1 3.816-1.72c.17-.025.34-.038.511-.038.65.014 1.288.17 1.87.455a8.043 8.043 0 0 1 1.618 1.033c-.044.002-.093.014-.137.014a1.3 1.3 0 0 0 .022 2.6 8.067 8.067 0 0 0 1.201-.116 6.877 6.877 0 0 1-.445 1.08 5.252 5.252 0 0 1-1.438 1.768c-.76.572-1.665.92-2.612 1.004-.297.033-.595.05-.894.05a13.236 13.236 0 0 1-6.928-2.428c-.413-.27-.789-.537-1.137-.796a9.66 9.66 0 0 0 .63-.298ZM194.8 100.119v-.004a1.28 1.28 0 0 0-.368-.902c-.004-.005-.006-.012-.011-.017l-.414-.278a1.29 1.29 0 0 0-.331-.07 1.242 1.242 0 0 0-.165-.035 3.524 3.524 0 0 1-1.894-.656 30.849 30.849 0 0 1-3.417-2.96 12.39 12.39 0 0 0-4.724-2.923 6.098 6.098 0 0 0-1.722-.244 9.246 9.246 0 0 0-4.885 1.642c-.428.278-.797.551-1.102.793a12.423 12.423 0 0 1-.728-.503 15.818 15.818 0 0 1-1.623-1.387l-.086-.087-.019-.02-.003-.002a1.3 1.3 0 1 0-1.887 1.788 17.24 17.24 0 0 0 3.026 2.453c.01 1.399.313 2.78.889 4.054a7.52 7.52 0 0 0 1.836 2.481 7.81 7.81 0 0 0 3.31 1.698c.878.219 1.781.328 2.686.325a17.433 17.433 0 0 0 7.658-2.066 27.797 27.797 0 0 0 2.425-1.388c.294-.187.53-.343.684-.445l.152-.097.002-.001-.006-.01c.05-.029.098-.061.144-.096a1.29 1.29 0 0 0 .187-.124l.003-.004c.244-.243.381-.572.383-.915Zm-13.682 2.3a5.218 5.218 0 0 1-2.227-1.127 5.306 5.306 0 0 1-1.536-2.527 7.11 7.11 0 0 1-.177-.762c.384.12.777.213 1.175.275a1.298 1.298 0 0 0 1.464-1.104 1.298 1.298 0 0 0-1.096-1.47c-.046-.006-.094-.02-.14-.027a6.427 6.427 0 0 1 3.173-1.047 3.48 3.48 0 0 1 .989.139 7.82 7.82 0 0 1 2.517 1.352c1.215.922 2.359 2.148 3.621 3.223.49.413 1.012.787 1.561 1.117a15.823 15.823 0 0 1-7.274 2.204 8.334 8.334 0 0 1-2.05-.246Z"/><path fill="#BEBEC9" d="M50.636 155.017c-.57 0-1.141.033-1.708.099a23.87 23.87 0 0 0-11.04 3.812 13.358 13.358 0 0 0-3.62 3.737 11.534 11.534 0 0 0-1.723 4.933c-.039.354-.059.709-.059 1.064a10.86 10.86 0 0 0 3.811 8.054 14.662 14.662 0 0 0 9.852 3.506c.986-.002 1.97-.08 2.943-.233a17.506 17.506 0 0 0 9.56-4.792 16.297 16.297 0 0 0 2.692-3.418 9.685 9.685 0 0 0 1.25-3.243c.094-.594.14-1.194.14-1.795a11.72 11.72 0 0 0-3.273-8.117 12.028 12.028 0 0 0-8.825-3.607Zm9.39 13.115a7.188 7.188 0 0 1-.93 2.34 14.334 14.334 0 0 1-3.861 4.223 14.824 14.824 0 0 1-6.542 2.725c-.842.132-1.692.2-2.544.202a12.07 12.07 0 0 1-8.125-2.85 8.26 8.26 0 0 1-2.938-6.11c0-.259.015-.518.044-.775a8.924 8.924 0 0 1 1.335-3.832 11.987 11.987 0 0 1 4.938-4.197 23.808 23.808 0 0 1 7.821-2.159c.469-.054.94-.082 1.412-.082a9.424 9.424 0 0 1 6.954 2.812 9.123 9.123 0 0 1 2.545 6.312c0 .466-.037.931-.109 1.391ZM39.648 139.849a26.393 26.393 0 0 0 8.68 2.413c.568.065 1.138.098 1.709.098a12.03 12.03 0 0 0 8.825-3.606 11.724 11.724 0 0 0 3.273-8.118c0-.6-.046-1.2-.14-1.794a9.677 9.677 0 0 0-1.25-3.243 16.922 16.922 0 0 0-4.568-5.011 17.429 17.429 0 0 0-7.684-3.199 18.962 18.962 0 0 0-2.943-.233 14.666 14.666 0 0 0-9.852 3.505 10.86 10.86 0 0 0-3.811 8.055c0 .355.02.71.059 1.063.19 1.755.778 3.443 1.723 4.934a14.57 14.57 0 0 0 5.98 5.136Zm-2.224-17.244a12.063 12.063 0 0 1 8.126-2.849c.851.001 1.702.069 2.543.202a14.9 14.9 0 0 1 8.143 4.083c.878.85 1.639 1.813 2.261 2.865.445.719.76 1.512.93 2.34.072.46.108.925.108 1.39a9.128 9.128 0 0 1-2.544 6.313 9.44 9.44 0 0 1-6.954 2.811c-.472 0-.944-.027-1.413-.082a21.314 21.314 0 0 1-9.833-3.351 10.773 10.773 0 0 1-2.926-3.004 8.927 8.927 0 0 1-1.335-3.832 7 7 0 0 1-.043-.775 8.273 8.273 0 0 1 2.937-6.111Z"/><path fill="#BEBEC9" d="M51.873 160.515a5.441 5.441 0 0 0-5.023 3.357 5.438 5.438 0 1 0 5.023-3.357Zm.147 7.264a1.885 1.885 0 0 1-1.778-1.096 1.878 1.878 0 1 1 1.778 1.096ZM50.782 136.627a5.442 5.442 0 0 0 5.024-3.357 5.439 5.439 0 1 0-5.024 3.357Zm.068-7.207a1.876 1.876 0 0 1 1.924 2.177 1.884 1.884 0 0 1-1.422 1.53 1.882 1.882 0 0 1-1.957-.728 1.883 1.883 0 0 1 .147-2.381 1.894 1.894 0 0 1 1.308-.598ZM66.422 154.181c-.479-.992-.89-2.016-1.231-3.064a20.63 20.63 0 0 1-1.13-6.274c0-.431.021-.863.065-1.292a1.298 1.298 0 0 0-1.666-1.386 1.304 1.304 0 0 0-.92 1.119 15.21 15.21 0 0 0-.078 1.559c.004.805.06 1.608.168 2.405l-.138.013c-.635.057-1.772.152-2.876.218-.88-1.967-3.472-3.843-5.23-3.669-2.464.245-2.048 9.028.102 9.839 1.309.493 4.101-1.542 5.084-3.563 1.506-.085 3.06-.226 3.54-.271.206.834.439 1.611.671 2.302a26.25 26.25 0 0 0 1.328 3.255 1.298 1.298 0 0 0 1.747.561 1.301 1.301 0 0 0 .568-1.745l-.004-.007Z"/><path fill="#BEBEC9" d="M188.69 151.221a68.082 68.082 0 0 0-9.276-26.995c-4.219-7.272-8.84-13.134-11.758-18.385a150.463 150.463 0 0 1-8.743-20.049 187.077 187.077 0 0 1-5.866-18.648c-1.28-5.405-3.993-9.066-7.254-11.287a19.312 19.312 0 0 0-18.048-1.453 9.049 9.049 0 0 0-3.818 3.266 8.102 8.102 0 0 0-1.217 4.378 12.87 12.87 0 0 0 1.427 5.586 21.088 21.088 0 0 0 3.566 5.074 157.742 157.742 0 0 0-1.363 20.99c0 3.603.117 7.313.371 11.069-1.21.111-2.41.243-3.602.396-.56-5.423-1.264-10.766-2.168-15.84a114.65 114.65 0 0 0-4.262-17.115 44.343 44.343 0 0 0-6.522-12.834 7.374 7.374 0 0 0-2.485-2.099 5.797 5.797 0 0 0-2.606-.613 7.444 7.444 0 0 0-3.501.955c-.17.093-.316.182-.458.27a6.537 6.537 0 0 0-1.143-.725 5.906 5.906 0 0 0-2.593-.625 4.96 4.96 0 0 0-2.62.736 5.424 5.424 0 0 0-1.22 1.043c-.031-.02-.054-.04-.086-.062a6.229 6.229 0 0 0-3.396-1.087c-.78.002-1.55.172-2.258.498a6.188 6.188 0 0 0-3.09 2.824 4.88 4.88 0 0 0-.539 2.132l.003.128a1.297 1.297 0 0 0 .545.976l-.002.002c.194.168.36.367.488.59.358.613.567 1.304.61 2.014.016.19.024.369.024.534a2.725 2.725 0 0 1-.654 2.028 1.74 1.74 0 0 1-.882.49 1.3 1.3 0 0 0-1.048 1.595c.314 1.134.808 2.21 1.463 3.187a8.32 8.32 0 0 0 2.241 2.29 6.793 6.793 0 0 0 2.53 1.033c.433 4.313.636 8.646.608 12.98a183.856 183.856 0 0 1-1.14 20.093 617.04 617.04 0 0 1-.607 5.284 1.27 1.27 0 0 0-.474.137 43.748 43.748 0 0 0-6.347 3.906 37.573 37.573 0 0 0-5.296-7.343c-5.342-5.729-12.021-8.785-18.871-8.782a38.332 38.332 0 0 0-18.4 4.457 37.576 37.576 0 0 0-8.083 5.885 9.704 9.704 0 0 0-3.08-3.49 10.901 10.901 0 0 0-6.219-1.926c-2.117.003-4.19.603-5.982 1.731a10.768 10.768 0 0 0-3.931 4.282 12.207 12.207 0 0 0-1.277 5.544 16.667 16.667 0 0 0 8.331 13.953 51.057 51.057 0 0 0-2.435 15.161c0 1.058.038 2.093.115 3.107.625 8.128 1.858 14.523 4.175 19.492a18.433 18.433 0 0 0-8.663 2.786 11.806 11.806 0 0 0-2.96 2.65 5.116 5.116 0 0 0-1.198 3.012 3.471 3.471 0 0 0 .68 2.074c.39.514.882.942 1.446 1.256a10.997 10.997 0 0 0 3.619 1.186c1.953.309 3.93.45 5.906.423 5.29-.091 10.567-.531 15.798-1.317a1.33 1.33 0 0 0 .15-.053c.572.146 1.139.296 1.739.416a90.201 90.201 0 0 0 16.466 1.249c7.508.076 15.007-.531 22.404-1.815h.003c.422-.087.826-.187 1.217-.297.213-.06.414-.128.619-.194.155-.05.313-.099.464-.153.27-.095.529-.199.783-.305.058-.025.118-.049.175-.075.293-.126.576-.26.848-.4 5.174 1.405 12.341 2.279 20.34 2.819 8.058.542 16.938.736 25.338.736 5.574 0 10.936-.086 15.705-.212 15.498-.416 27.257-2.935 35.3-7.883a25.297 25.297 0 0 0 9.144-9.308 26.325 26.325 0 0 0 3.061-12.893 39.212 39.212 0 0 0-.261-4.44Zm-62.217-84.728a10.32 10.32 0 0 1-1.163-4.445 5.49 5.49 0 0 1 .815-2.99 5.851 5.851 0 0 1 1.617-1.638c.166 1.129.454 2.237.861 3.303.231.621.496 1.23.794 1.82a1.298 1.298 0 0 0 1.754.552 1.301 1.301 0 0 0 .551-1.754l-.009-.018a16.025 16.025 0 0 1-.722-1.693 11.762 11.762 0 0 1-.718-3.061 1.25 1.25 0 0 0-.093-.34 17.087 17.087 0 0 1 6.191-.78 1.309 1.309 0 0 0-.016.14c.197 1.994.612 3.96 1.238 5.862a1.298 1.298 0 0 0 1.655.8 1.298 1.298 0 0 0 .801-1.654l-.007-.02a25.564 25.564 0 0 1-1.049-4.798 14.636 14.636 0 0 1 5.352 2.223c2.719 1.87 5.021 4.872 6.193 9.745 2.158 9.012 8.758 28.37 14.866 39.359.239.427.501.86.757 1.291.007.048.017.097.03.144a54.473 54.473 0 0 1 4.901 23.051 75.04 75.04 0 0 1-.119 4.148 15.456 15.456 0 0 1-4.443 10.489 13.744 13.744 0 0 1-9.703 3.796 18.019 18.019 0 0 1-6.723-1.364 26.122 26.122 0 0 1-12.759-11.366c-3.243-5.429-5.495-12.502-6.773-21.053-1.09-7.465-1.629-15-1.612-22.544-.032-8.125.597-16.24 1.882-24.262a1.3 1.3 0 0 0-2.564-.432c-.015.088-.028.184-.043.273a17.258 17.258 0 0 1-1.742-2.784Zm-38.5 52.379c-.62 4.963-1.14 8.564-1.54 11.435-.077.544-.148 1.063-.216 1.561a51.984 51.984 0 0 0-3.478-9.625 35.156 35.156 0 0 1 5.233-3.371Zm-74.992 1.374a9.61 9.61 0 0 1 .995-4.366 8.164 8.164 0 0 1 2.992-3.256 8.662 8.662 0 0 1 4.603-1.335 8.31 8.31 0 0 1 4.733 1.459 6.997 6.997 0 0 1 2.592 3.365 45.758 45.758 0 0 0-7.128 10.465 51.762 51.762 0 0 0-2.197 5.105 14.021 14.021 0 0 1-6.59-11.437Zm6.416 62.5c-4.129.006-6.58-.482-7.811-1.049a2.593 2.593 0 0 1-1.063-.752.85.85 0 0 1-.177-.538 2.708 2.708 0 0 1 .665-1.434 10.783 10.783 0 0 1 4.023-2.987 16.849 16.849 0 0 1 6.889-1.479c.017.029.033.059.051.088a19.834 19.834 0 0 0 6.193 6.377c.611.392 1.243.751 1.892 1.077a98.452 98.452 0 0 1-10.662.697Zm18.197-.903a22.87 22.87 0 0 1-8.02-3.057 18.869 18.869 0 0 1-7.32-9.469c-1.705-4.327-2.73-9.953-3.269-17.047a38.304 38.304 0 0 1-.108-2.91 49.124 49.124 0 0 1 9.346-28.357 36.567 36.567 0 0 1 11.961-10.493 35.713 35.713 0 0 1 17.169-4.147c6.068.003 12.034 2.678 16.971 7.957 4.93 5.277 8.799 13.174 10.493 23.522.116.707.223 1.413.327 2.118.142.962.276 1.922.396 2.877.61 4.722.926 9.477.948 14.238.003 6.172-.635 11.582-1.9 15.425a17.672 17.672 0 0 1-1.76 3.975c-.27.431-.57.842-.9 1.229a11.018 11.018 0 0 1-6.5 3.576 121.507 121.507 0 0 1-21.878 1.761 87.835 87.835 0 0 1-15.956-1.198Zm55.906.107a1.251 1.251 0 0 0-.242.049 96.621 96.621 0 0 1-10.349-1.579c.166-.154.33-.31.483-.469.18-.184.355-.371.517-.562a17.502 17.502 0 0 0 3.148-6.078c.309-.942.574-1.96.809-3.026a45.64 45.64 0 0 0 .73-4.311c.34-2.954.505-5.926.492-8.899a100.908 100.908 0 0 0-.083-3.899 113.79 113.79 0 0 0-.169-3.273v-.002a124.273 124.273 0 0 0-.344-4.045 132.62 132.62 0 0 0-.394-3.502v-.001c.014-.058.024-.117.029-.176a45.452 45.452 0 0 1-.034-1.72c.066-3.281.372-6.553.914-9.79.596-4.261 1.461-10.188 2.524-19.821a186.378 186.378 0 0 0 1.157-20.378 112 112 0 0 0-.752-14.336 1.302 1.302 0 0 0-1.25-1.116 4.217 4.217 0 0 1-2.288-.72 6.436 6.436 0 0 1-2.045-2.463c-.08-.156-.14-.299-.202-.44.323-.19.62-.419.885-.683a5.322 5.322 0 0 0 1.394-3.845c0-.245-.012-.498-.034-.759a7.008 7.008 0 0 0-1.122-3.363 5.136 5.136 0 0 0-.442-.561c.044-.183.109-.36.193-.527a3.576 3.576 0 0 1 1.842-1.623c.37-.173.773-.264 1.182-.265a3.661 3.661 0 0 1 1.967.66c.218.143.426.303.62.478l.155.147.032.033.003.004v-.001a1.298 1.298 0 0 0 2.106-.258 3.413 3.413 0 0 1 1.182-1.343 2.35 2.35 0 0 1 1.257-.35c.503.008.997.13 1.446.358.452.222.857.53 1.188.91a1.3 1.3 0 0 0 1.844.131l.002-.001c.332-.268.69-.5 1.07-.694a4.797 4.797 0 0 1 2.145-.579 3.19 3.19 0 0 1 1.447.34 4.769 4.769 0 0 1 1.599 1.378 41.838 41.838 0 0 1 6.11 12.077c2.553 7.38 4.353 16.493 5.593 26.162 1.241 9.671 1.928 19.901 2.285 29.545.018.49.027.973.026 1.448a32.616 32.616 0 0 1-2.747 13.384c-2.501 5.713-6.378 10.275-10.02 14.828a66.129 66.129 0 0 0-5.043 6.987 25.89 25.89 0 0 0-3.271 7.92 13.197 13.197 0 0 1-3.282 6.668 6.1 6.1 0 0 1-4.263 1.951Zm90.112-14.65c-2.719 4.935-7.483 8.723-14.516 11.392-7.024 2.663-16.264 4.147-27.719 4.454-4.748.126-10.088.211-15.636.211-8.36 0-17.191-.194-25.164-.73-.577-.039-1.14-.083-1.708-.126.249-.206.492-.424.729-.661a15.75 15.75 0 0 0 3.988-7.958 26.03 26.03 0 0 1 4.419-9.371c3.104-4.463 7.25-8.803 10.666-14.145a36.068 36.068 0 0 0 6.055-20.154c0-.508-.009-1.022-.028-1.544-.253-6.807-.674-13.907-1.333-20.918a92.941 92.941 0 0 1 3.544-.39c.26 3.079.61 6.178 1.072 9.267 1.315 8.78 3.634 16.171 7.112 22a28.742 28.742 0 0 0 14.02 12.446 20.628 20.628 0 0 0 7.694 1.552 16.357 16.357 0 0 0 11.513-4.529 18.06 18.06 0 0 0 5.229-12.212c.083-1.49.124-2.921.123-4.292a56.827 56.827 0 0 0-1.699-14.254c1.721 2.562 3.496 5.263 5.192 8.192a65.463 65.463 0 0 1 8.941 25.985c.16 1.376.242 2.76.245 4.146a23.717 23.717 0 0 1-2.739 11.639Z"/></svg>