<svg xmlns="http://www.w3.org/2000/svg" width="200" height="200" fill="none"><path fill="#BEBEC9" d="M166.174 174.309c.404 5.663.622 10.412.735 13.466a1.32 1.32 0 0 0 .415.905 1.293 1.293 0 0 0 .933.346 1.292 1.292 0 0 0 .904-.415 1.296 1.296 0 0 0 .347-.933 405.196 405.196 0 0 0-.741-13.554 1.299 1.299 0 1 0-2.593.185Z"/><path fill="#FFE632" d="m31.578 70.822.001-.042c.04-.989.132-1.975.277-2.954.21-1.639.642-3.242 1.282-4.766a7.21 7.21 0 0 1 1.936-2.719 2.61 2.61 0 0 1 1.642-.631c.344.002.684.078.997.223a1.3 1.3 0 0 0 1.076-2.367 5.003 5.003 0 0 0-2.073-.456 5.22 5.22 0 0 0-3.254 1.19 9.741 9.741 0 0 0-2.688 3.678 21.287 21.287 0 0 0-1.536 5.797 28.956 28.956 0 0 0-.26 2.993 1.297 1.297 0 0 0 1.273 1.327 1.301 1.301 0 0 0 1.327-1.273Z"/><path fill="#BEBEC9" d="M37.354 64.15c7.772-17.762 24.624-31.814 44.35-37.03a1.3 1.3 0 0 0-.665-2.514C60.562 30.034 43.111 44.55 34.972 63.107a1.301 1.301 0 0 0 2.382 1.043ZM113.994 130.645a115.373 115.373 0 0 1-15.474 1.008c-18.309.004-34.163-3.4-45.648-10.211a41.778 41.778 0 0 1-13.79-12.752 38.353 38.353 0 0 1-6.142-17.997 52.234 52.234 0 0 1-.155-7.38 1.3 1.3 0 0 0-2.597-.128 54.965 54.965 0 0 0 .163 7.745 40.962 40.962 0 0 0 6.565 19.197c5.444 8.206 13.902 14.244 24.442 18.217 10.545 3.975 23.192 5.908 37.162 5.909 5.291.011 10.578-.333 15.823-1.031a1.303 1.303 0 0 0 1.105-1.462 1.301 1.301 0 0 0-1.454-1.115ZM153.946 50.136a19.81 19.81 0 0 0 3.926-3.993 22.006 22.006 0 0 0 4.216-13.01 21.244 21.244 0 0 0-1.966-9.009 19.058 19.058 0 0 0-5.972-7.31 20.185 20.185 0 0 0-12.031-3.841 21.97 21.97 0 0 0-17.582 8.622 19.78 19.78 0 0 0-2.67 5.005 70.622 70.622 0 0 0-5.222-1.717 1.298 1.298 0 0 0-1.609.893 1.291 1.291 0 0 0 .115.99 1.299 1.299 0 0 0 .781.617 70.657 70.657 0 0 1 34.339 22.338c8.738 10.411 14.067 23.12 14.065 36.216 0 1.577-.078 3.159-.235 4.746a36.535 36.535 0 0 1-7.467 18.881 1.294 1.294 0 0 0 .239 1.824 1.29 1.29 0 0 0 .962.257 1.301 1.301 0 0 0 .862-.499 39.14 39.14 0 0 0 7.991-20.206c.166-1.673.249-3.34.248-5.003-.002-12.935-4.919-25.397-12.99-35.8Zm-29.661-22.584a17.168 17.168 0 0 1 2.346-4.415 19.38 19.38 0 0 1 15.488-7.564c3.763-.04 7.44 1.13 10.489 3.335a16.453 16.453 0 0 1 5.16 6.319 18.678 18.678 0 0 1 1.72 7.905 19.407 19.407 0 0 1-3.71 11.47 17.186 17.186 0 0 1-3.463 3.512l-.052-.064a73.566 73.566 0 0 0-27.978-20.498ZM59.05 87.9l-.648 1.127A19.19 19.19 0 0 0 67.91 91.4a22.01 22.01 0 0 0 12.01-3.516 18.157 18.157 0 0 0 7.725-10.806 38.745 38.745 0 0 0 1.196-9.576c.068-4.57-.83-9.103-2.637-13.302a17.204 17.204 0 0 0-3.175-4.799 10.156 10.156 0 0 0-4.413-2.774 12.305 12.305 0 0 0-3.451-.453c-4.427.01-9.845 1.826-14.618 5.325a26.202 26.202 0 0 0-10.334 15.62 27.831 27.831 0 0 0-.65 5.819 18.915 18.915 0 0 0 2.937 10.5 17.443 17.443 0 0 0 5.903 5.59l.647-1.127.648-1.128a14.85 14.85 0 0 1-5.018-4.753 16.303 16.303 0 0 1-2.517-9.082c.011-1.774.21-3.543.592-5.275a23.598 23.598 0 0 1 9.333-14.07c4.336-3.2 9.366-4.83 13.077-4.82a9.735 9.735 0 0 1 2.719.349 7.564 7.564 0 0 1 3.278 2.087 17.065 17.065 0 0 1 3.695 6.73c.94 3.1 1.407 6.323 1.384 9.563a36.148 36.148 0 0 1-1.115 8.93 15.54 15.54 0 0 1-6.637 9.28A19.424 19.424 0 0 1 67.91 88.8a16.612 16.612 0 0 1-8.213-2.027L59.05 87.9Z"/><path fill="#BEBEC9" d="m137.8 87.9-.647-1.127a16.614 16.614 0 0 1-8.214 2.026 19.427 19.427 0 0 1-10.579-3.087 15.541 15.541 0 0 1-6.637-9.28 36.143 36.143 0 0 1-1.114-8.93 29.885 29.885 0 0 1 2.398-12.216c.66-1.5 1.566-2.878 2.681-4.077a7.564 7.564 0 0 1 3.278-2.088 9.722 9.722 0 0 1 2.719-.348c3.711-.01 8.74 1.618 13.077 4.82a23.597 23.597 0 0 1 9.332 14.069c.382 1.732.581 3.501.592 5.276a16.304 16.304 0 0 1-2.516 9.082 14.866 14.866 0 0 1-5.017 4.753l.647 1.127.647 1.127a17.444 17.444 0 0 0 5.903-5.59 18.913 18.913 0 0 0 2.936-10.5 27.85 27.85 0 0 0-.649-5.82 26.201 26.201 0 0 0-10.335-15.619c-4.773-3.5-10.191-5.315-14.617-5.325a12.299 12.299 0 0 0-3.451.453 10.156 10.156 0 0 0-4.414 2.774 19.597 19.597 0 0 0-4.308 7.757 34.791 34.791 0 0 0-1.503 10.345 38.7 38.7 0 0 0 1.196 9.575 18.155 18.155 0 0 0 7.725 10.806 22.006 22.006 0 0 0 12.009 3.516 19.192 19.192 0 0 0 9.508-2.372L137.8 87.9ZM74.246 71.53c-5.573.082-9.64 4.719-8.73 7.403.75 2.208 4.255 2.189 8.73 2.108 4.475-.082 7.2.414 7.484-2.474.238-2.41-2.965-7.103-7.484-7.037Zm-.366 8.298a2.969 2.969 0 1 1-.001-5.937 2.969 2.969 0 0 1 0 5.937Z"/><path fill="#BEBEC9" d="M122.812 71.53c-4.519-.066-7.722 4.627-7.485 7.037.285 2.888 3.011 2.392 7.485 2.474 4.474.08 7.98.1 8.729-2.108.911-2.684-3.157-7.322-8.729-7.403Zm.365 8.298a2.967 2.967 0 0 1-2.743-1.833 2.972 2.972 0 0 1 2.164-4.049 2.971 2.971 0 0 1 3.323 4.05 2.963 2.963 0 0 1-1.607 1.606 2.97 2.97 0 0 1-1.137.226ZM90.866 79.91c-1.057 2.522 3.873 8.868 7.534 8.868 3.661 0 8.215-5.108 8.005-8.461-.244-3.905-14.134-3.756-15.539-.407Z"/><path fill="#BEBEC9" d="M96.911 85.638a45.29 45.29 0 0 0-.005.69c0 3.186.285 7.575.285 7.589a1.299 1.299 0 1 0 2.595-.167l-.044-.726c-.079-1.367-.236-4.412-.236-6.695 0-.226.002-.443.005-.65a1.3 1.3 0 0 0-2.6-.041ZM139.589 132.641a8.099 8.099 0 0 0-4.13 2.79 6.168 6.168 0 0 0-1.168 3.674c.004.82.14 1.635.404 2.412.204.63.504 1.225.89 1.763a1.301 1.301 0 0 0 2.08-1.56 3.919 3.919 0 0 1-.506-1.033 5.037 5.037 0 0 1-.268-1.582 3.56 3.56 0 0 1 .669-2.143 5.528 5.528 0 0 1 2.851-1.854 1.289 1.289 0 0 0 .757-.651 1.294 1.294 0 0 0 .072-.996 1.306 1.306 0 0 0-.655-.753 1.305 1.305 0 0 0-.996-.067ZM192.212 164.093a20.65 20.65 0 0 0 1.335-7.474c-.009-6.991-3.027-14.354-7.528-20.891a54.265 54.265 0 0 0-16.743-15.853 1.296 1.296 0 0 0-1.771.477 1.3 1.3 0 0 0 .468 1.773 51.707 51.707 0 0 1 15.905 15.079c4.302 6.227 7.079 13.19 7.069 19.415a18.044 18.044 0 0 1-1.16 6.538 1.302 1.302 0 0 0 1.739 1.657 1.3 1.3 0 0 0 .686-.721Z"/><path fill="#FFE632" d="m114.805 97.385.002-.003.002-.006-.004.009ZM176.904 117.031a4.55 4.55 0 0 0-1.354-1.367 20.02 20.02 0 0 0-3.873-1.963 109.425 109.425 0 0 0-18.154-4.989c.201-1.317.529-3.557.858-6.143.59-4.221.942-8.472 1.056-12.733a17.316 17.316 0 0 0-.247-3.295 4.276 4.276 0 0 0-.451-1.283 2.22 2.22 0 0 0-.499-.604 1.82 1.82 0 0 0-.869-.4 2.137 2.137 0 0 0-.345-.028c-.39.007-.775.094-1.13.256a7.559 7.559 0 0 0-1.822 1.219 31.153 31.153 0 0 0-3.498 3.702 84.89 84.89 0 0 0-5.526 7.604 62.863 62.863 0 0 0-3.41 5.843 83.756 83.756 0 0 0-11.669-4.401 75.218 75.218 0 0 0-5.572-1.452 34.447 34.447 0 0 0-2.136-.397 11.445 11.445 0 0 0-1.608-.146 3.23 3.23 0 0 0-.766.078c-.174.04-.34.107-.494.198-.257.152-.462.38-.587.651a1.65 1.65 0 0 0-.143.7c.003.23.032.46.086.684a16.105 16.105 0 0 0 1.278 3.238 44.67 44.67 0 0 0 11.109 13.99 65.18 65.18 0 0 0-10.199 10.204 58.106 58.106 0 0 0-3.993 5.468 20.047 20.047 0 0 0-1.187 2.111 7.296 7.296 0 0 0-.356.887 3.057 3.057 0 0 0-.163.918c-.004.318.078.631.239.905.133.219.315.403.533.538.23.14.485.234.75.278.221.037.444.055.667.053a10.98 10.98 0 0 0 1.914-.217 73.38 73.38 0 0 0 10.608-3.217c3.694-1.366 7.637-3.015 11.105-4.715 1 2.923 2.275 5.745 3.808 8.428a1.298 1.298 0 0 0 2.386-.274 1.31 1.31 0 0 0-.113-.989 40.672 40.672 0 0 1-3.998-9.329 1.305 1.305 0 0 0-1.294-1c-.197.004-.39.053-.566.144a118.372 118.372 0 0 1-13.972 5.927c-2.287.806-4.413 1.476-6.155 1.939-.87.231-1.644.411-2.283.53a13.4 13.4 0 0 1-.661.106 24.742 24.742 0 0 1 1.636-2.703c3.03-4.474 8.933-11.286 14.161-14.871a1.305 1.305 0 0 0 .429-1.646 1.32 1.32 0 0 0-.392-.47 40.348 40.348 0 0 1-9.544-10.409 36.184 36.184 0 0 1-2.476-4.448 16.77 16.77 0 0 1-.424-1.008c.092.012.184.024.284.039a63.96 63.96 0 0 1 8.879 2.24 75.215 75.215 0 0 1 10.903 4.342 1.305 1.305 0 0 0 1.029.065 1.302 1.302 0 0 0 .752-.705 45.02 45.02 0 0 1 2.884-5.271 83.627 83.627 0 0 1 6.419-8.987 28.695 28.695 0 0 1 2.915-3.091c.301-.27.624-.516.966-.731.161.925.23 1.863.208 2.802-.115 4.15-.461 8.292-1.035 12.405a259.371 259.371 0 0 1-.951 6.742c-.056.365-.088.562-.088.562a1.296 1.296 0 0 0 1.045 1.486 124.716 124.716 0 0 1 16.087 4.05 34.841 34.841 0 0 1 5.292 2.178c.378.2.738.431 1.079.69-.607.257-1.23.472-1.867.642a113.366 113.366 0 0 1-12.665 2.357 300.002 300.002 0 0 1-7.913 1.012c-.339.037-.65.207-.865.472a1.297 1.297 0 0 0-.286.943c0 .001.035.372.092 1.032.171 1.98.534 6.533.696 11.138a1.303 1.303 0 0 0 .843 1.175 1.301 1.301 0 0 0 1.755-1.266c-.159-4.528-.506-8.956-.685-11.056 2.057-.244 6.348-.777 10.682-1.472 3.001-.482 6.011-1.038 8.342-1.641a19.29 19.29 0 0 0 2.954-.969 4.836 4.836 0 0 0 1.075-.631c.181-.143.34-.312.472-.5a1.79 1.79 0 0 0 .312-.831l.001-.011.01-.193a2.245 2.245 0 0 0-.315-1.119ZM153.369 84.253h.004-.004Z"/><path fill="#FFE632" d="M150.087 94.612a1.301 1.301 0 0 0 .498-2.5 1.3 1.3 0 1 0-.498 2.5ZM141.179 109.618a1.3 1.3 0 0 0 2.424.939 1.293 1.293 0 0 0-.314-1.41 1.31 1.31 0 0 0-.928-.359 1.297 1.297 0 0 0-1.182.83Zm2.339-5.745a1.305 1.305 0 0 0 .266 1.42 1.307 1.307 0 0 0 1.414.297 1.301 1.301 0 0 0 .711-.696 1.297 1.297 0 0 0-.687-1.7 1.301 1.301 0 0 0-1.704.679Zm2.55-5.665a1.303 1.303 0 0 0 .613 1.734 1.3 1.3 0 0 0 1.734-.614 1.3 1.3 0 1 0-2.347-1.12ZM124.27 125.71a1.304 1.304 0 0 0-.301 1.814 1.3 1.3 0 0 0 1.814.301 1.297 1.297 0 0 0 .296-1.809 1.3 1.3 0 0 0-1.809-.306Zm5.355-3.767a1.299 1.299 0 1 0 1.835 1.77 1.296 1.296 0 0 0-.026-1.444 1.315 1.315 0 0 0-.837-.538 1.31 1.31 0 0 0-.972.212Zm5.378-3.712a1.304 1.304 0 0 0-.542.835 1.305 1.305 0 0 0 1.043 1.515 1.3 1.3 0 0 0 .973-.208 1.299 1.299 0 0 0-1.474-2.141v-.001ZM119.765 131.928a1.3 1.3 0 1 0 0-2.6 1.3 1.3 0 0 0 0 2.6ZM122.318 103.949a1.297 1.297 0 0 0 1.275-1.047 1.295 1.295 0 0 0-.778-1.454 1.295 1.295 0 0 0-1.791 1.328 1.3 1.3 0 0 0 1.294 1.173M135.712 112.701a1.307 1.307 0 0 0 .957.29 1.291 1.291 0 0 0 .879-.475 1.31 1.31 0 0 0 .282-.959 1.29 1.29 0 0 0-.481-.876v.001a1.298 1.298 0 0 0-1.822.196 1.296 1.296 0 0 0 .185 1.823Zm-4.456-3.202a1.302 1.302 0 0 0 1.918-.599 1.304 1.304 0 0 0-.962-1.765 1.305 1.305 0 0 0-1.33.564 1.302 1.302 0 0 0 .374 1.8Zm-4.726-2.929a1.3 1.3 0 0 0 1.325-2.238 1.3 1.3 0 0 0-1.325 2.238ZM162.409 117.96a1.303 1.303 0 0 0 1.266-.695 1.303 1.303 0 0 0-.158-1.436 1.289 1.289 0 0 0-.882-.459h-.001a1.31 1.31 0 0 0-.95.298 1.31 1.31 0 0 0-.46.884 1.308 1.308 0 0 0 .3.95 1.288 1.288 0 0 0 .885.458Zm-5.504-.398a1.301 1.301 0 0 0 1.049-2.161 1.303 1.303 0 0 0-2.009.079 1.299 1.299 0 0 0 .96 2.082Zm-5.52-.266a1.302 1.302 0 0 0 1.23-.756 1.3 1.3 0 1 0-1.23.756Zm-5.529-.159a1.3 1.3 0 0 0 .052-2.6 1.308 1.308 0 0 0-.927.363 1.3 1.3 0 0 0 .875 2.237ZM168.04 118.551a1.298 1.298 0 0 0 1.147-1.913 1.3 1.3 0 1 0-1.147 1.913M141.545 115.356a1.302 1.302 0 0 0-.295-.495 1.309 1.309 0 0 0-1.417-.282 1.324 1.324 0 0 0-.422.282c-.14.148-.244.327-.301.523a1.296 1.296 0 0 0 .281 1.417c.027.028.067.039.097.065l.001.002a1.306 1.306 0 0 0 1.417.282 1.299 1.299 0 0 0 .802-1.201 1.271 1.271 0 0 0-.163-.593ZM143.47 126.502a1.3 1.3 0 0 0 2.456-.853 1.297 1.297 0 0 0-1.654-.802 1.302 1.302 0 0 0-.802 1.655Zm-1.899-5.099a1.297 1.297 0 0 0 2.117.438 1.292 1.292 0 0 0 .388-.917 1.293 1.293 0 0 0-.793-1.21 1.294 1.294 0 0 0-.997-.008 1.31 1.31 0 0 0-.71.7 1.31 1.31 0 0 0-.005.997ZM146.427 132.609a1.301 1.301 0 1 0-.002-2.602 1.301 1.301 0 0 0 .002 2.602ZM117.58 26.115a21.266 21.266 0 0 0-4.463-4.776 12.015 12.015 0 0 0-7.319-2.41 18.906 18.906 0 0 0-7.155 1.59c-.073-.05-.14-.114-.214-.161A8.657 8.657 0 0 0 93.7 19.04c-1.21.015-2.412.2-3.572.547a36.269 36.269 0 0 0-8.613-1.105 18.412 18.412 0 0 0-9.9 2.45 1.3 1.3 0 1 0 1.404 2.189 15.907 15.907 0 0 1 8.496-2.04c1.95.013 3.897.199 5.815.556a32.607 32.607 0 0 1 2.289.504l.12.033.034.01c.245.07.506.067.75-.009a10.715 10.715 0 0 1 3.177-.535 6.05 6.05 0 0 1 3.329.909 7.303 7.303 0 0 1 2.594 3.14 12.196 12.196 0 0 1 1.33 5.312 13.588 13.588 0 0 1-1.452 5.635c-.383.87-.786 1.726-1.108 2.618a8.372 8.372 0 0 0-.566 2.843 6.36 6.36 0 0 0 1.409 3.917 49.12 49.12 0 0 1 3.126 4.367 6.82 6.82 0 0 1 1.119 3.519 7.224 7.224 0 0 1-.694 2.917 20.854 20.854 0 0 1-2.504 4.058 36.562 36.562 0 0 0-4.28 6.849 13.091 13.091 0 0 0-.633 1.72l-.016-.023a4.133 4.133 0 0 1-.404-2.021 25.18 25.18 0 0 1 .409-3.675c.255-1.406.402-2.83.44-4.258.006-.702-.06-1.403-.197-2.092a8.482 8.482 0 0 0-1.886-3.601c-1.282-1.559-2.847-2.929-4.032-4.404a10.111 10.111 0 0 1-1.436-2.273 6.264 6.264 0 0 1-.544-2.557c.013-.93.185-1.85.51-2.722a15.084 15.084 0 0 0-2.17-13.995 11.184 11.184 0 0 0-3.534-3.01 9.814 9.814 0 0 0-4.642-1.155 11.378 11.378 0 0 0-3.52.58 1.3 1.3 0 0 0 .802 2.472 8.782 8.782 0 0 1 2.718-.452 7.207 7.207 0 0 1 3.42.85 9.252 9.252 0 0 1 3.741 3.917 12.633 12.633 0 0 1 1.423 5.85 12.217 12.217 0 0 1-.689 4.075 10.715 10.715 0 0 0-.66 3.59 9.145 9.145 0 0 0 1.285 4.629 26.54 26.54 0 0 0 4.096 4.894c.62.625 1.192 1.295 1.712 2.005.409.546.701 1.17.86 1.834.1.516.149 1.04.143 1.566a25.742 25.742 0 0 1-.409 3.855 27.25 27.25 0 0 0-.44 4.077 6.654 6.654 0 0 0 .735 3.29 5.172 5.172 0 0 0 2.907 2.33 1.287 1.287 0 0 0 1.66-1.614l.01-.002-.002-.025-.005-.106a6.58 6.58 0 0 1 .722-2.487 34.134 34.134 0 0 1 3.98-6.344 23.275 23.275 0 0 0 2.811-4.581 9.795 9.795 0 0 0 .913-3.961 9.406 9.406 0 0 0-1.476-4.834 50.88 50.88 0 0 0-3.297-4.622 3.74 3.74 0 0 1-.881-2.347 5.84 5.84 0 0 1 .412-1.961c.394-1.102 1.054-2.378 1.637-3.876.16-.412.31-.847.449-1.297a9.237 9.237 0 0 0 2.725 1.759c1.881.825 3.939 1.306 5.768 2.036.884.335 1.728.77 2.513 1.298a7.24 7.24 0 0 1 1.93 1.94 1.299 1.299 0 0 0 2.309-.293 28.408 28.408 0 0 0 1.403-8.318 12.33 12.33 0 0 0-1.994-7.27Zm-3.735 10.88c-2.332-1.163-4.8-1.693-6.685-2.458a7.8 7.8 0 0 1-2.298-1.309 3.817 3.817 0 0 1-1.2-1.964 1.233 1.233 0 0 0-.11-.222c0-.014.003-.027.003-.04a14.81 14.81 0 0 0-1.584-6.431 11.544 11.544 0 0 0-1.266-2.057 15.3 15.3 0 0 1 5.093-.985 9.39 9.39 0 0 1 5.775 1.902 18.788 18.788 0 0 1 3.901 4.21 9.818 9.818 0 0 1 1.5 5.745 24.02 24.02 0 0 1-.633 5.185l-.019.078a11.863 11.863 0 0 0-2.477-1.654Z"/><path fill="#BEBEC9" d="M45.566 48.175a17.213 17.213 0 0 1-3.539-3.573 19.415 19.415 0 0 1-3.71-11.47 18.666 18.666 0 0 1 1.72-7.905 16.454 16.454 0 0 1 5.16-6.32 17.586 17.586 0 0 1 10.49-3.335 19.384 19.384 0 0 1 15.488 7.565 17.212 17.212 0 0 1 2.424 4.619 1.301 1.301 0 0 0 2.398.149 1.298 1.298 0 0 0 .062-.994 19.817 19.817 0 0 0-2.79-5.316 21.969 21.969 0 0 0-17.582-8.622 20.185 20.185 0 0 0-12.032 3.841 19.06 19.06 0 0 0-5.972 7.31 21.263 21.263 0 0 0-1.966 9.008 22.009 22.009 0 0 0 4.217 13.011 19.815 19.815 0 0 0 4.072 4.112 1.3 1.3 0 1 0 1.56-2.08Z"/><path fill="#FFE632" d="M43.067 79.448a25.993 25.993 0 0 0-3.72-11.393c-.807-1.441-1.568-2.708-2.1-3.847a7.285 7.285 0 0 1-.83-3.065c0-.534.096-1.064.282-1.565a1.3 1.3 0 1 0-2.443-.889 7.115 7.115 0 0 0-.44 2.454 9.812 9.812 0 0 0 1.076 4.167c.931 1.977 2.23 3.916 3.333 6.19a21.319 21.319 0 0 1 2.248 8.12c.048.727.07 1.408.07 2.045a16.106 16.106 0 0 1-1.132 6.55c-.029-.068-.053-.14-.084-.207a8.958 8.958 0 0 0-2.653-3.112c-1.597-1.269-3.426-2.313-4.844-3.488a9.004 9.004 0 0 1-1.748-1.834 4.833 4.833 0 0 1-.831-2.132 7.282 7.282 0 0 1-.063-.95 6.68 6.68 0 0 1 1.002-3.53c.2-.326.429-.634.683-.92.09-.102.163-.175.208-.22l.047-.043a1.301 1.301 0 0 0-1.259-2.218 1.301 1.301 0 0 0-.44.25 8.082 8.082 0 0 0-1.453 1.788 9.287 9.287 0 0 0-1.388 4.894c0 .43.029.86.085 1.288a7.992 7.992 0 0 0 2.362 4.592 46.031 46.031 0 0 0 5.614 4.243 9.03 9.03 0 0 1 1.954 1.868c.433.57.667 1.267.668 1.984a4.16 4.16 0 0 1-.094.858 1.3 1.3 0 0 0 1.897 1.408 6.372 6.372 0 0 0 2.199-2.43c.98-1.698 1.872-4.425 1.87-8.639 0-.697-.025-1.437-.076-2.217Z"/><path fill="#BEBEC9" d="m86.993 92.902-.46 1.216a24.87 24.87 0 0 0 5.566 1.27c2.111.254 4.237.377 6.364.37 2.44.004 4.878-.145 7.299-.448a30.904 30.904 0 0 0 2.916-.51c.752-.159 1.485-.394 2.189-.703l-.553-1.176-1.284-.201-.004.02a20.76 20.76 0 0 1-2.217 6.162 11.843 11.843 0 0 1-3.2 3.756 8.28 8.28 0 0 1-5.041 1.616c-.12 0-.242-.003-.367-.007a7.621 7.621 0 0 1-4.687-1.816 15.364 15.364 0 0 1-4.11-6.108 24.208 24.208 0 0 1-.882-2.639 19.085 19.085 0 0 1-.24-.986l-.01-.048-.001-.01-1.278.242-.46 1.216.46-1.216-1.277.242a25.333 25.333 0 0 0 2.405 6.59 15.788 15.788 0 0 0 3.74 4.724 10.241 10.241 0 0 0 6.249 2.407c.153.006.306.009.458.009 2.435.026 4.81-.763 6.744-2.243a16.551 16.551 0 0 0 5.074-7.237 22.727 22.727 0 0 0 1.213-4.273 1.304 1.304 0 0 0-1.153-1.494 1.301 1.301 0 0 0-.685.117 8.916 8.916 0 0 1-1.669.523c-3.17.63-6.397.927-9.629.89a48.99 48.99 0 0 1-6.039-.35 22.383 22.383 0 0 1-4.97-1.12 1.3 1.3 0 0 0-1.738 1.457l1.277-.242Z"/><path fill="#BEBEC9" d="m103.986 94.56.44-.009h-.44v.01l.44-.01h-.44c-.007.17-.032.34-.075.504a2.9 2.9 0 0 1-1.016 1.582 5.972 5.972 0 0 1-3.862 1.03h-.087.006c-2.48-.027-3.681-.758-4.35-1.409a3.114 3.114 0 0 1-.647-.91 1.945 1.945 0 0 1-.108-.29l-.011-.049-.633.107h.64a.633.633 0 0 0-.008-.107l-.632.107h.64-1.182l1.143.293c.026-.095.038-.194.038-.293h-1.18l1.142.293-1.238-.317 1.029.758c.098-.132.169-.281.21-.44l-1.24-.318 1.03.758-1.041-.767.661 1.111a1.29 1.29 0 0 0 .38-.344l-1.041-.767.661 1.111-.663-1.113v1.295c.234 0 .462-.063.663-.182l-.663-1.113-.382 1.238c.124.038.253.057.382.057v-1.295l-.382 1.238.382-1.236-.705 1.084c.1.066.21.116.323.152l.382-1.236-.705 1.084a1.298 1.298 0 0 0 2.008-1.077 1.298 1.298 0 0 0-.918-1.255 1.304 1.304 0 0 0-1.48.536 1.32 1.32 0 0 0-.203.557l-.012.189c0 .11.01.22.03.327.086.446.242.876.46 1.273a6.087 6.087 0 0 0 2.298 2.357 9.579 9.579 0 0 0 4.905 1.193h.098a9.97 9.97 0 0 0 4.097-.76 5.72 5.72 0 0 0 2.982-2.894c.297-.648.458-1.35.474-2.061l-.001-.045a1.302 1.302 0 0 0-1.326-1.262 1.298 1.298 0 0 0-1.273 1.316ZM70.116 157.612a14.89 14.89 0 0 0-3.183-5.516 20.946 20.946 0 0 0-6.257-4.633 22.194 22.194 0 0 0-3.067-1.261 46.857 46.857 0 0 0-5.618-3.675c-3.432-1.902-7.913-3.862-12.373-3.876-.412 0-.824.017-1.234.054a1.298 1.298 0 0 0-1.035 1.898 1.29 1.29 0 0 0 1.268.691c.328-.029.662-.044 1.001-.043 3.671-.014 7.881 1.737 11.107 3.547a46.341 46.341 0 0 1 5.079 3.295l.291.223.072.057.02.016c.137.109.294.19.463.238l.012.003a20.552 20.552 0 0 1 4.885 2.309 16.826 16.826 0 0 1 3.556 3.012 12.236 12.236 0 0 1 2.532 4.436c.406 1.238.623 2.53.644 3.833a5.805 5.805 0 0 1-1.072 3.684 2.882 2.882 0 0 1-2.322 1.132 4.438 4.438 0 0 1-2.208-.661 1.19 1.19 0 0 0-.201-.068 13.223 13.223 0 0 0-1.176-5.428 15.925 15.925 0 0 0-3.904-5.232 14.966 14.966 0 0 0-2.38-1.778 1.297 1.297 0 0 0-1.893 1.475 1.3 1.3 0 0 0 .61.785h-.001a14.07 14.07 0 0 1 3.149 2.684 11.293 11.293 0 0 1 2.997 7.535c0 .336-.015.68-.047 1.034a8.606 8.606 0 0 1-1.537 4.581 2.898 2.898 0 0 1-2.279 1.248 3.15 3.15 0 0 1-1.9-.711 6.592 6.592 0 0 1-1.867-2.437 1.293 1.293 0 0 0-.27-.358 17.619 17.619 0 0 0-1.95-6.064 16.45 16.45 0 0 0-1.984-2.972 7.84 7.84 0 0 0-2.337-1.957 1.3 1.3 0 1 0-1.163 2.325 5.41 5.41 0 0 1 1.523 1.321 15.139 15.139 0 0 1 2.368 4.01 12.95 12.95 0 0 1 1.035 4.729 5.55 5.55 0 0 1-.78 3.053 4.536 4.536 0 0 1-2.682 1.852 4.72 4.72 0 0 1-1.345.208 3.757 3.757 0 0 1-2.621-1.091 10.877 10.877 0 0 1-2.537-4.311 19.437 19.437 0 0 1-.687-2.499l-.028-.148-.006-.034-.001-.006a1.299 1.299 0 0 0-1.323-1.087l-.13.002c-.092.002-.23.003-.41.003a48.931 48.931 0 0 1-14.517-2.255 23.485 23.485 0 0 1-8.39-4.66 14.08 14.08 0 0 1-4.561-8.489 24.342 24.342 0 0 1-.29-3.71 22.436 22.436 0 0 1 2.43-10.177c2.369-4.72 6.405-8.906 11.71-12.382a64.169 64.169 0 0 1 19.187-8.107 1.294 1.294 0 0 0 .94-1.582 1.3 1.3 0 0 0-1.585-.937c-10.078 2.581-18.834 6.783-25.138 12.39a31.954 31.954 0 0 0-7.437 9.451 25.051 25.051 0 0 0-2.706 11.344c.001 1.375.108 2.747.319 4.106a16.704 16.704 0 0 0 5.377 10.012c4.04 3.679 9.458 5.529 14.223 6.517 1.608.33 3.14.559 4.529.719-.6 7.122-.932 13.337-1.111 17.464a1.299 1.299 0 1 0 2.597.113c.178-4.098.508-10.271 1.103-17.338 1.192.081 2.166.11 2.852.118a20.593 20.593 0 0 0 1.337 3.841 11.472 11.472 0 0 0 2.493 3.557 6.38 6.38 0 0 0 4.381 1.776 7.354 7.354 0 0 0 2.079-.313 7.15 7.15 0 0 0 4.129-2.933 7.036 7.036 0 0 0 .802-1.783c.269.284.559.548.868.788a5.738 5.738 0 0 0 3.474 1.242 5.506 5.506 0 0 0 4.317-2.234 10.208 10.208 0 0 0 1.877-4.531 6.66 6.66 0 0 0 2.676.59 5.505 5.505 0 0 0 4.346-2.101 8.364 8.364 0 0 0 1.648-5.315 15.533 15.533 0 0 0-.763-4.608ZM191.468 162.412a1.292 1.292 0 0 0-.995.024 1.302 1.302 0 0 0-.686.721 11.496 11.496 0 0 1-2.885 4.295 16.834 16.834 0 0 1-7.288 3.769 38.135 38.135 0 0 1-9.739 1.118 86.026 86.026 0 0 1-22.882-3.586 24.37 24.37 0 0 1-10.206-5.58c-2.23-2.177-3.234-4.462-3.224-6.225a3.99 3.99 0 0 1 1.535-3.232 26.589 26.589 0 0 0 3.981 2.554 58.239 58.239 0 0 0 6.967 3.073 1.296 1.296 0 0 0 1.674-.764 1.296 1.296 0 0 0-.334-1.406 1.298 1.298 0 0 0-.432-.267 47.162 47.162 0 0 1-8.694-4.125 13.653 13.653 0 0 1-3.062-2.551 3.704 3.704 0 0 1-1.029-2.323c.003-.385.092-.764.26-1.111.27-.64.744-1.173 1.349-1.515a4.569 4.569 0 0 1 2.224-.479 14.1 14.1 0 0 1 3.848.673c.134.069.28.112.43.13.455.143.917.296 1.395.472a68.421 68.421 0 0 1 7.111 3.207 1.313 1.313 0 0 0 .995.08 1.305 1.305 0 0 0 .896-1.138 1.291 1.291 0 0 0-.312-.948 1.3 1.3 0 0 0-.402-.312 70.862 70.862 0 0 0-7.39-3.329 34.836 34.836 0 0 0-1.566-.529 2.429 2.429 0 0 1-.546-.77 3.564 3.564 0 0 1-.301-1.454 3.632 3.632 0 0 1 1.191-2.712 6.558 6.558 0 0 1 4.584-1.405c.286 0 .584.01.896.03a20.61 20.61 0 0 1 9.147 2.451 7.364 7.364 0 0 1 2.227 1.948c.416.542.649 1.201.667 1.883a2.765 2.765 0 0 1-.061.567 3.637 3.637 0 0 1-1.002 1.873 4.84 4.84 0 0 1-1.566 1.015 1.3 1.3 0 0 0 1.001 2.4 7.424 7.424 0 0 0 2.404-1.577 6.262 6.262 0 0 0 1.609-2.835 32.577 32.577 0 0 0 9.009 1.124 46.955 46.955 0 0 0 5.914-.359 1.3 1.3 0 0 0-.361-2.575l-.097.013a45.634 45.634 0 0 1-5.456.321 28.663 28.663 0 0 1-8.967-1.235 6.17 6.17 0 0 0-.975-2.121 11.576 11.576 0 0 0-5.074-3.709 26.003 26.003 0 0 0-8.248-1.779 15.657 15.657 0 0 0-1.067-.035 9.113 9.113 0 0 0-6.342 2.089 6.239 6.239 0 0 0-1.857 6.085 12.747 12.747 0 0 0-1.734-.139 7.135 7.135 0 0 0-3.478.801 5.765 5.765 0 0 0-2.454 2.7 5.216 5.216 0 0 0-.501 2.204 6.266 6.266 0 0 0 1.633 3.99l.014.015a6.69 6.69 0 0 0-1.598 2.085 6.764 6.764 0 0 0-.655 2.951c.01 2.718 1.431 5.556 4.005 8.082a26.92 26.92 0 0 0 11.289 6.217 88.51 88.51 0 0 0 23.618 3.692 35.702 35.702 0 0 0 13.515-2.254 17.427 17.427 0 0 0 5.294-3.339 14.11 14.11 0 0 0 3.529-5.253 1.3 1.3 0 0 0-.745-1.681Z"/></svg>