<svg width="200" height="200" viewBox="0 0 200 200" xmlns="http://www.w3.org/2000/svg"><g id="type=error, mode=light"><g id="Type1/Robot"><g id="Group"><path id="Vector" d="M91.1912 51.1789C91.7412 51.7216 92.1318 52.09 92.1389 52.0974C92.6618 52.5891 93.4844 52.5642 93.9764 52.0412C94.4683 51.5183 94.4432 50.6955 93.9203 50.2038L93.8324 50.1203C93.6943 49.9895 93.3934 49.6999 93.019 49.3303C93.2734 49.0815 93.4982 48.8637 93.6587 48.7089C93.8273 48.5463 93.9262 48.4521 93.9264 48.4519C94.4461 47.9565 94.4658 47.1337 93.9705 46.614C93.4752 46.0942 92.6524 46.0747 92.1327 46.57V46.5698C92.1298 46.5727 91.7389 46.945 91.2098 47.4631C90.9588 47.1901 90.7128 46.9172 90.49 46.6552C90.0244 46.1086 89.2039 46.0429 88.6573 46.5085C88.1107 46.9741 88.045 47.7946 88.5106 48.3413L88.5106 48.341C88.7845 48.6623 89.0802 48.9887 89.3787 49.3117C89.3668 49.3242 89.3533 49.3376 89.3416 49.3501C88.9554 49.7612 88.634 50.1145 88.3906 50.4431C87.9659 51.0219 88.0909 51.8354 88.6697 52.2602C89.2486 52.6848 90.0622 52.56 90.4869 51.9812C90.5799 51.8513 90.8591 51.531 91.1912 51.1789Z"/><path id="Vector_2" d="M107.216 50.1206C107.078 49.9895 106.778 49.7001 106.403 49.3303C106.658 49.0813 106.882 48.8635 107.043 48.7087C107.211 48.5461 107.31 48.4521 107.31 48.4518C107.83 47.9562 107.85 47.1335 107.354 46.6137C106.859 46.0942 106.036 46.0744 105.516 46.57L105.516 46.5698C105.513 46.5727 105.123 46.945 104.594 47.4629C104.343 47.1899 104.098 46.9172 103.875 46.6552C103.409 46.1086 102.589 46.0429 102.042 46.5085C101.495 46.9741 101.43 47.7946 101.895 48.3413L101.895 48.341C102.169 48.6621 102.465 48.9887 102.763 49.3115C102.751 49.3239 102.738 49.3376 102.726 49.3501C102.34 49.7612 102.019 50.1147 101.775 50.4431C101.351 51.0219 101.476 51.8354 102.054 52.2602C102.633 52.6848 103.447 52.56 103.872 51.9812C103.965 51.851 104.244 51.5312 104.575 51.1792C105.125 51.7214 105.515 52.0898 105.522 52.0971C106.045 52.5891 106.868 52.5642 107.36 52.0415C107.852 51.5188 107.827 50.696 107.304 50.2041L107.216 50.1206Z"/><path id="Vector_3" d="M105.201 61.4388C99.1335 61.377 90.9997 61.3028 90.9994 61.3028C90.2814 61.2962 89.6941 61.8729 89.6876 62.5909C89.681 63.3089 90.2577 63.8963 90.9758 63.9029V63.9027C90.9806 63.9027 93.009 63.9212 95.8006 63.9476C98.5922 63.9737 102.142 64.0076 105.175 64.0384C105.892 64.0455 106.48 63.4695 106.488 62.7518C106.495 62.0337 105.919 61.4459 105.201 61.4388Z"/><path id="Vector_4" d="M88.6797 114.49L88.6815 114.49H88.6826L88.6797 114.49Z"/><path id="Vector_5" d="M155.747 86.1169C157.204 81.1697 157.836 77.0679 157.836 73.6917C157.837 69.2507 156.749 66.0168 154.97 63.8621C153.195 61.7043 150.752 60.7344 148.429 60.7436C147.767 60.7436 147.111 60.8196 146.476 60.9636C144.759 61.3435 143.31 62.2366 142.217 63.5093C140.571 65.4248 139.643 68.0666 138.94 71.3496C138.259 74.5666 137.815 78.4372 137.331 82.9272L135.569 84.2234C135.58 83.9668 135.602 83.7051 135.602 83.4529C135.602 82.6103 135.543 81.7939 135.418 81.01C135.104 79.0376 134.382 77.4426 133.392 76.2319L133.618 65.6431C133.618 65.6357 133.614 65.6294 133.615 65.6221C133.615 65.4807 133.597 65.3386 133.55 65.1997C133.546 65.187 133.537 65.1775 133.532 65.165C133.517 65.1242 133.493 65.0911 133.474 65.0525C133.424 64.9509 133.367 64.8572 133.294 64.7734C133.261 64.7346 133.226 64.7016 133.188 64.6672C133.109 64.5945 133.023 64.5347 132.928 64.4836C132.886 64.4609 132.848 64.4363 132.804 64.4182C132.661 64.3603 132.511 64.3196 132.351 64.3157L123.728 64.0998L124.456 26.4343C124.463 26.0869 124.331 25.7532 124.089 25.5039C123.847 25.2546 123.518 25.113 123.17 25.1094L102.257 24.8865C101.938 22.9758 101.725 20.6977 101.725 18.1125C101.725 16.4375 101.819 14.6323 102.021 12.7304C102.297 12.6777 102.573 12.6094 102.845 12.511C103.826 12.1565 104.645 11.5478 105.228 10.7851C105.81 10.0239 106.162 9.09691 106.163 8.11839C106.163 7.66868 106.087 7.21092 105.927 6.77H105.927C105.927 6.76976 105.927 6.76951 105.927 6.76927C105.927 6.76903 105.927 6.76903 105.927 6.76903C105.608 5.8806 104.987 5.16869 104.239 4.70482C103.488 4.23779 102.609 4.00049 101.701 4C101.1 4 100.486 4.10498 99.8873 4.32153C98.9075 4.67529 98.0879 5.28393 97.5048 6.04638C96.923 6.80785 96.5708 7.73486 96.57 8.71386C96.5698 9.16381 96.6462 9.62231 96.8059 10.0637C97.1249 10.9519 97.7455 11.6631 98.4942 12.1269C98.7858 12.3083 99.101 12.4443 99.4255 12.5559C99.2211 14.5137 99.1248 16.3762 99.1248 18.1125C99.1249 20.6426 99.3212 22.8974 99.6231 24.8582L92.2182 24.7793C91.9233 24.7761 91.6334 24.8745 91.4015 25.0569L81.4491 32.8721C81.0491 33.0862 80.7639 33.488 80.7533 33.9748L80.0665 65.5378L71.4171 70.6887C71.3625 70.7212 71.3236 70.7688 71.2754 70.8079C71.2319 70.843 71.1879 70.8735 71.1493 70.9141C71.0643 71.0027 70.9977 71.1023 70.9417 71.2097C70.9263 71.239 70.904 71.2624 70.8908 71.293C70.8284 71.4382 70.7949 71.5933 70.7886 71.7534C70.7882 71.7632 70.7827 71.7712 70.7825 71.781V71.7808L70.4887 87.0908C70.4876 87.092 70.4859 87.0925 70.4848 87.094V87.0938C70.0903 87.5762 69.3937 88.1907 68.5543 88.8081C67.2936 89.74 65.7129 90.7012 64.264 91.5244C62.8463 92.3306 61.5674 93.001 60.7769 93.4307C59.8569 92.6846 58.68 92.1504 57.3464 91.7456C55.8601 91.3047 54.2035 91.0474 52.6043 91.0462C51.8497 91.0462 51.108 91.1045 50.3991 91.2371C47.8302 91.717 45.7545 92.9876 44.3126 94.5112C43.5907 95.2749 43.0231 96.1033 42.6266 96.9517C42.2319 97.8005 42.002 98.6707 42 99.5378C41.9981 100.343 42.2132 101.17 42.7362 101.85C43.0761 102.294 43.5093 102.649 43.9899 102.875C44.4701 103.103 44.9856 103.2 45.4807 103.199C46.341 103.196 47.1442 102.928 47.8892 102.535C48.6342 102.139 49.3277 101.605 49.9482 100.986C50.4173 100.512 51.0673 100.259 51.6262 100.262C52.0256 100.264 52.3599 100.376 52.6265 100.588C52.8906 100.804 53.1311 101.132 53.2657 101.756C53.3007 101.923 53.3145 102.068 53.3145 102.193C53.3088 102.533 53.2307 102.722 53.0795 102.932C52.8574 103.24 52.3502 103.568 51.6591 103.78C50.9761 103.995 50.1484 104.096 49.4265 104.094C49.0911 104.094 48.7779 104.073 48.5169 104.039L48.5222 104.04C48.1923 103.995 47.8778 103.974 47.5783 103.974C46.642 103.974 45.7646 104.187 45.076 104.763C44.7368 105.047 44.4687 105.417 44.3034 105.817C44.1363 106.218 44.0669 106.641 44.0671 107.056C44.0672 107.384 44.1095 107.709 44.1839 108.034C44.3514 108.755 44.7152 109.4 45.1928 109.975C45.9131 110.835 46.9032 111.555 48.0795 112.079C49.2558 112.601 50.624 112.923 52.0945 112.923C53.7824 112.925 55.6055 112.492 57.361 111.461C58.9118 110.553 60.4008 109.186 61.7285 107.288C62.3806 107.468 63.0542 107.566 63.7276 107.567C64.2689 107.567 64.8091 107.508 65.3366 107.389L65.3382 107.389C67.1102 106.982 68.9429 106.272 70.1303 105.768L69.6927 128.567C69.6788 129.285 70.2454 129.875 70.9632 129.892L82.1719 130.144C80.5493 132.031 79.0297 134.214 77.7884 136.375C76.9352 137.863 76.2161 139.338 75.6943 140.708C75.1757 142.082 74.8416 143.338 74.81 144.491L74.8082 144.643C74.8129 145.787 75.0591 147.376 75.4766 149.353C76.1054 152.304 77.1361 156.044 78.4091 159.779C79.554 163.135 80.8893 166.473 82.3232 169.239C81.3176 170.171 80.4537 171.164 79.797 172.227C78.9743 173.56 78.4667 175.021 78.4667 176.548C78.4666 177.056 78.5231 177.567 78.6392 178.075C78.7895 178.739 79.1944 179.269 79.6446 179.635C80.3293 180.187 81.1362 180.481 82.0035 180.686C82.8715 180.885 83.8081 180.974 84.7424 180.974C85.671 180.974 86.5939 180.886 87.4401 180.707C91.4691 179.852 94.2963 178.435 96.1591 176.921C97.0902 176.162 97.7804 175.382 98.2558 174.615C98.7262 173.845 99.0032 173.1 99.0107 172.317C99.0105 172.054 98.9756 171.784 98.8857 171.513C98.5774 170.597 98.0975 169.77 97.6936 169.137C97.4001 168.681 97.1486 168.34 97.0237 168.176C96.1591 166.569 95.2869 164.46 94.4812 162.161C93.2525 158.661 92.1683 154.725 91.3895 151.39C90.9999 149.722 90.6863 148.204 90.4683 146.97C90.2496 145.744 90.1296 144.773 90.1201 144.322L90.12 144.318L90.1198 144.299C90.1163 144.128 90.1795 143.76 90.342 143.301C90.6217 142.491 91.1763 141.401 91.8925 140.227C92.9667 138.461 94.4008 136.488 95.8158 134.733C97.2279 132.98 98.6353 131.432 99.6067 130.537C99.6071 130.537 99.6072 130.537 99.6076 130.536L103.984 130.635C103.459 134.356 102.844 138.445 102.34 142.432C101.791 146.771 101.377 150.961 101.376 154.413C101.376 154.737 101.379 155.055 101.387 155.366C101.431 157.114 101.661 159.799 101.979 162.893C102.762 170.478 104.086 180.439 104.541 183.806C102.779 184.55 101.446 185.873 100.519 187.246C100 188.018 99.6029 188.813 99.3274 189.574C99.054 190.337 98.8938 191.055 98.8903 191.749C98.8904 191.915 98.9003 192.081 98.9243 192.249C99.0427 193.025 99.4637 193.625 99.9824 194.128C100.773 194.879 101.867 195.466 103.231 195.903C104.594 196.335 106.229 196.6 108.079 196.6C108.964 196.6 109.896 196.539 110.869 196.407C114.021 195.974 116.304 195.148 117.888 194.246C118.681 193.795 119.298 193.325 119.767 192.862C120.235 192.39 120.564 191.957 120.758 191.402C120.872 191.045 120.905 190.741 120.935 190.395C120.962 190.053 120.971 189.687 120.971 189.31C120.97 187.809 120.821 186.111 120.82 186.092C120.814 186.022 120.779 185.964 120.763 185.898C120.812 185.725 120.838 185.545 120.812 185.361C120.811 185.357 120.6 183.868 120.279 181.545C119.798 178.06 119.073 172.71 118.454 167.75C118.145 165.271 117.863 162.888 117.652 160.89C117.44 158.896 117.3 157.268 117.275 156.37C117.266 156.049 117.261 155.713 117.261 155.364C117.259 151.054 117.957 144.835 118.66 139.736C119.011 137.183 119.362 134.905 119.625 133.266C119.757 132.447 119.867 131.787 119.943 131.333C119.965 131.2 119.984 131.091 120 130.995L122.302 131.047C122.304 131.047 122.305 131.046 122.307 131.046C122.308 131.046 122.309 131.047 122.311 131.047C122.321 131.047 122.329 131.042 122.339 131.042C122.488 131.041 122.631 131.012 122.769 130.962C122.819 130.944 122.861 130.918 122.907 130.895C122.963 130.867 123.023 130.85 123.075 130.813L131.824 124.706C132.166 124.467 132.371 124.084 132.38 123.667L132.797 103.856C133.341 103.481 134.513 102.669 135.767 101.772C136.291 101.398 136.817 101.014 137.327 100.637C137.681 103.785 138.857 106.383 140.537 108.268C142.555 110.537 145.274 111.787 148.003 111.787C149.757 111.789 151.514 111.263 153.029 110.184C154.546 109.107 155.807 107.489 156.638 105.381C157.797 102.447 158.214 99.5921 158.213 97.0205C158.206 91.6404 156.423 87.5022 155.747 86.1169ZM99.17 8.71387C99.1691 8.37036 99.2974 7.98291 99.5708 7.625C99.8428 7.26831 100.253 6.95337 100.771 6.76685C101.088 6.6521 101.404 6.59986 101.701 6.59986C102.152 6.59937 102.56 6.72095 102.863 6.91114C103.169 7.10426 103.37 7.34766 103.481 7.65211L104.704 7.21119L103.482 7.65308C103.537 7.80616 103.563 7.95874 103.563 8.11841C103.564 8.46143 103.435 8.84888 103.162 9.20679C102.89 9.56348 102.48 9.87891 101.962 10.0654C101.646 10.1797 101.33 10.2317 101.032 10.2317C100.58 10.2322 100.173 10.1106 99.8692 9.92041C99.5636 9.72729 99.3623 9.48389 99.2514 9.18091C99.196 9.02686 99.1702 8.87354 99.17 8.71387ZM95.974 111.674C95.7452 110.554 95.1851 109.618 94.4116 109.006C93.6408 108.389 92.7008 108.11 91.7892 108.112C90.503 108.115 89.2354 108.638 88.2724 109.597C87.8159 110.054 87.307 110.437 86.8331 110.688C86.3591 110.942 85.9269 111.052 85.6439 111.049C85.478 111.048 85.3633 111.019 85.2652 110.974C85.1675 110.926 85.0742 110.86 84.9599 110.714C84.8531 110.574 84.7653 110.355 84.7633 109.987C84.7614 109.599 84.878 109.071 85.1458 108.501C85.544 107.644 86.271 106.703 87.2721 105.925C88.2738 105.145 89.5418 104.522 91.0406 104.242C91.5058 104.155 91.9973 104.113 92.5003 104.113C93.7141 104.111 94.9949 104.361 96.1057 104.761C97.1245 105.123 97.9846 105.622 98.5251 106.09C98.0306 107.263 97.7938 108.509 97.7924 109.698C97.7924 110.024 97.8102 110.347 97.8463 110.663C98.029 112.232 98.5397 113.771 99.5047 115.005C99.6127 115.142 99.729 115.274 99.8491 115.403C98.5714 117.393 97.197 118.683 95.8565 119.48C94.4844 120.294 93.1395 120.608 91.9037 120.61C90.533 120.612 89.2932 120.208 88.3918 119.641C87.4808 119.08 86.9665 118.344 86.8815 117.902C86.8444 117.74 86.8304 117.605 86.8306 117.505C86.8308 117.375 86.8516 117.303 86.8664 117.268C86.8942 117.218 86.8834 117.215 86.9863 117.154C87.0882 117.099 87.3313 117.023 87.7407 117.024C87.9137 117.024 88.1136 117.037 88.3391 117.067L88.342 117.067C88.7297 117.118 89.1482 117.144 89.5888 117.144C90.8532 117.139 92.2979 116.942 93.5889 116.32C94.2313 116.006 94.8457 115.571 95.3176 114.948C95.7911 114.33 96.0831 113.513 96.0775 112.642C96.0775 112.325 96.0424 112.002 95.974 111.674ZM101.149 112.786C100.782 112.114 100.531 111.262 100.43 110.368C100.405 110.155 100.392 109.929 100.392 109.698C100.391 108.819 100.58 107.846 100.955 107.004C101.316 106.189 101.841 105.512 102.5 105.058C102.437 105.521 102.396 105.984 102.396 106.442C102.4 108.697 103.095 110.831 104.096 112.528C104.495 113.201 104.957 113.782 105.448 114.3C104.926 114.403 104.457 114.472 104.068 114.503C103.972 114.511 103.876 114.515 103.781 114.515C103.276 114.513 102.875 114.406 102.515 114.221C101.981 113.944 101.517 113.462 101.149 112.786ZM108.579 113.426C108.339 113.356 107.976 113.157 107.587 112.797C106.953 112.22 106.279 111.269 105.793 110.143C105.304 109.017 104.995 107.72 104.996 106.442C104.996 105.494 105.162 104.558 105.535 103.677C105.548 103.646 105.544 103.613 105.555 103.581C105.836 103.437 106.126 103.286 106.432 103.119C108.581 101.944 111.326 100.132 114.127 97.2996C114.291 97.7891 114.512 98.2727 114.777 98.7524C115.625 100.26 116.923 101.734 118.453 102.89C119.697 103.818 121.1 104.548 122.595 104.799C121.566 105.793 120.48 106.728 119.333 107.571C115.992 110.026 112.862 111.708 110.217 112.802C109.646 113.039 109.102 113.242 108.579 113.426ZM125.727 101.324C125.399 101.697 125.073 101.927 124.736 102.078C124.399 102.228 124.043 102.299 123.642 102.3C122.95 102.303 122.119 102.066 121.274 101.617C120.005 100.951 118.729 99.8218 117.823 98.6465C117.369 98.0608 117.006 97.4646 116.769 96.9329C116.529 96.4019 116.427 95.936 116.431 95.6489C116.431 95.4744 116.461 95.3716 116.489 95.314L116.62 95.169C117.005 94.9075 117.536 94.7564 118.222 94.7556C118.977 94.7537 119.892 94.9492 120.815 95.3115C122.201 95.8501 123.6 96.761 124.589 97.7517C125.084 98.2451 125.476 98.7564 125.727 99.2234C125.98 99.6917 126.086 100.104 126.085 100.417C126.077 100.752 126.001 100.998 125.727 101.324ZM128.053 98.0727C127.907 97.7939 127.746 97.5215 127.565 97.2595C126.574 95.8438 125.102 94.6172 123.458 93.6936C121.847 92.8001 120.076 92.1951 118.344 92.1614C120.323 89.2844 122.185 85.7668 123.743 81.4778C123.819 81.4451 123.9 81.4299 123.971 81.3816V81.3813C124.638 80.9263 125.499 80.6961 126.475 80.6958C127.983 80.6885 129.713 81.2761 130.969 82.168C131.599 82.6099 132.109 83.1211 132.439 83.625C132.765 84.1221 132.914 84.5915 132.921 85.0315C132.874 85.529 132.805 86.04 132.715 86.5618C132.64 86.7341 132.607 86.914 132.611 87.1013C132.066 89.8865 130.958 92.9421 129.328 95.9272C128.936 96.6494 128.503 97.3638 128.053 98.0727ZM131.106 77.5276C131.686 78.117 132.205 78.9719 132.555 80.126C132.099 79.7976 131.622 79.492 131.111 79.2351C129.687 78.5264 128.081 78.0984 126.475 78.0959C126.088 78.0959 125.7 78.1294 125.314 78.1843C125.575 77.8504 125.846 77.5496 126.13 77.3157C126.913 76.6743 127.747 76.3889 128.548 76.3875C129.442 76.3916 130.322 76.7363 131.106 77.5276ZM128.548 73.7876C127.11 73.7861 125.678 74.3181 124.478 75.3079C124.466 75.3181 124.455 75.3318 124.443 75.342L124.456 73.5857L130.959 68.3713L130.834 74.2524C130.102 73.9463 129.328 73.7856 128.548 73.7876ZM122.713 71.6506L116.252 71.5044L122.284 66.6453C122.318 66.6487 122.346 66.6663 122.381 66.6672L128.73 66.8259L122.713 71.6506ZM83.3247 35.3159L112.598 35.6194L112.206 71.4128L82.5538 70.742L83.3247 35.3159ZM121.125 64.2402L114.829 69.312L115.206 34.938L121.8 29.3032L121.125 64.2402ZM92.6476 27.3838L100.124 27.4636C100.432 28.7566 100.786 29.8584 101.166 30.7285C101.455 31.386 102.221 31.6851 102.879 31.3967C103.536 31.1082 103.836 30.3415 103.547 29.6841C103.303 29.1282 103.05 28.3779 102.813 27.4922L119.706 27.6724L113.438 33.0281L85.8244 32.7419L92.6476 27.3838ZM79.9998 68.6038L79.9545 70.6833L76.6336 70.6081L79.9998 68.6038ZM70.099 90.8994C70.2095 90.8174 70.313 90.7349 70.4204 90.6526L70.1853 102.902C70.0621 102.96 69.8452 103.059 69.5622 103.182C69.4817 103.132 69.4109 103.07 69.3175 103.037C69.0108 102.932 68.555 102.676 68.0871 102.288C67.3802 101.707 66.6366 100.839 66.0924 99.8122C65.5454 98.7839 65.1937 97.6064 65.1942 96.3652C65.1947 95.5923 65.328 94.7903 65.6457 93.9553C65.6771 93.8728 65.6733 93.7888 65.6873 93.7051C66.1441 93.4441 66.6123 93.1716 67.0827 92.8879C68.1195 92.2625 69.1632 91.5903 70.099 90.8994ZM56.0463 109.218C54.6897 110.012 53.3464 110.322 52.0945 110.323C50.6448 110.325 49.3147 109.892 48.3426 109.284C47.8569 108.983 47.4635 108.639 47.1901 108.31C46.9146 107.981 46.7664 107.671 46.7179 107.452C46.6808 107.291 46.6669 107.157 46.6671 107.056C46.6672 106.926 46.6881 106.854 46.703 106.818C46.7308 106.768 46.7203 106.765 46.8236 106.704C46.9255 106.649 47.1688 106.573 47.5783 106.574C47.7528 106.574 47.9512 106.586 48.1737 106.616L48.179 106.617C48.5662 106.668 48.9851 106.694 49.4265 106.694C50.6908 106.689 52.1353 106.493 53.4262 105.871C54.0684 105.556 54.6828 105.122 55.1546 104.499C55.6281 103.881 55.9201 103.064 55.9144 102.193C55.9144 101.876 55.8793 101.552 55.8109 101.225C55.5821 100.104 55.022 99.1687 54.2486 98.5562C53.4778 97.9399 52.5378 97.6604 51.6262 97.6621C50.3401 97.6655 49.0726 98.1887 48.1096 99.1475C47.6532 99.605 47.144 99.988 46.67 100.239C46.1959 100.493 45.7636 100.603 45.4807 100.6C45.3149 100.599 45.2001 100.57 45.1021 100.524C45.0044 100.477 44.9111 100.411 44.7968 100.264C44.6898 100.125 44.6019 99.9053 44.6 99.5378C44.5981 99.1501 44.7147 98.6216 44.9825 98.0515C45.3807 97.1943 46.1078 96.2529 47.1088 95.4751C48.1104 94.6951 49.3783 94.0725 50.8769 93.7927C51.3966 93.6951 51.9854 93.646 52.6043 93.646C53.9182 93.6448 55.367 93.8679 56.6049 94.2375C57.5116 94.5007 58.3024 94.863 58.8339 95.2068C58.5285 95.6316 58.2504 96.0828 58.023 96.5708C57.4204 97.8799 57.0842 99.3894 57.0825 100.93C57.0825 101.448 57.1214 101.97 57.2044 102.489C57.4451 104.031 58.2824 105.279 59.3623 106.118C58.2903 107.569 57.1607 108.565 56.0463 109.218ZM64.7619 104.854L64.7636 104.853C64.4309 104.928 64.0805 104.967 63.7276 104.967C62.7827 104.969 61.8224 104.686 61.1135 104.187C60.4019 103.68 59.9281 103.018 59.7717 102.078C59.7117 101.703 59.6824 101.318 59.6824 100.93C59.6807 99.7774 59.9466 98.6023 60.3833 97.6611C60.8155 96.7139 61.4224 96.0305 61.9577 95.7478C62.1499 95.6428 62.3913 95.5132 62.6544 95.3723C62.618 95.7066 62.594 96.0388 62.5942 96.3652C62.5967 98.6814 63.4576 100.728 64.5815 102.297C65.1459 103.083 65.7792 103.755 66.4335 104.294C66.461 104.317 66.4889 104.336 66.5165 104.358C65.931 104.551 65.3319 104.725 64.7619 104.854ZM73.357 73.135L121.851 74.2319L121.816 79.0237C121.815 79.0718 121.837 79.1128 121.842 79.1594C121.79 79.2952 121.727 79.4175 121.679 79.5576H121.679C118.448 89.0339 113.756 94.5212 109.696 97.8127C107.664 99.457 105.788 100.548 104.314 101.297C103.576 101.671 102.94 101.959 102.423 102.193C102.164 102.31 101.935 102.413 101.73 102.511C101.523 102.611 101.346 102.699 101.15 102.825C100.686 103.129 100.292 103.496 99.9325 103.888C99.1094 103.249 98.1085 102.72 96.9843 102.313C95.6071 101.82 94.0615 101.514 92.5003 101.513C91.8531 101.513 91.2031 101.566 90.5626 101.686C87.9935 102.166 85.9177 103.437 84.4759 104.961C83.754 105.724 83.1865 106.553 82.7899 107.401C82.3952 108.25 82.1652 109.12 82.1633 109.987C82.1614 110.792 82.3764 111.62 82.8994 112.299C83.2393 112.743 83.6724 113.098 84.1531 113.324C84.6333 113.552 85.1488 113.649 85.6439 113.649C86.5042 113.646 87.3074 113.377 88.0524 112.984C88.7974 112.588 89.4907 112.054 90.1111 111.435C90.5798 110.961 91.23 110.708 91.7892 110.711C92.1886 110.713 92.523 110.826 92.7897 111.038C93.0538 111.253 93.2942 111.582 93.4288 112.205C93.4637 112.372 93.4775 112.517 93.4775 112.642C93.4718 112.982 93.3938 113.172 93.2424 113.382C93.0202 113.689 92.5127 114.018 91.8215 114.229C91.1384 114.445 90.3107 114.546 89.5887 114.544C89.2538 114.544 88.9416 114.524 88.6817 114.49C88.3548 114.447 88.0418 114.424 87.7407 114.424C86.8049 114.425 85.9277 114.637 85.2393 115.212C84.9001 115.497 84.632 115.867 84.4668 116.267C84.2998 116.667 84.2304 117.09 84.2306 117.505C84.2307 117.833 84.273 118.159 84.3475 118.483C84.6854 119.883 85.693 121.006 87.0095 121.843C88.3358 122.674 90.0289 123.208 91.9037 123.21C93.5886 123.211 95.4172 122.767 97.1849 121.715C98.9105 120.69 100.568 119.091 102.026 116.823C102.572 117.01 103.162 117.115 103.781 117.114C103.942 117.114 104.108 117.108 104.277 117.095C105.996 116.952 108.362 116.38 111.211 115.205C114.055 114.029 117.363 112.245 120.873 109.666C121.037 109.545 121.192 109.411 121.355 109.287L121.052 128.418L72.3171 127.321L73.357 73.135ZM87.5322 144.546C87.5538 145.007 87.6122 145.549 87.7111 146.22C87.741 146.421 87.78 146.65 87.8165 146.87C87.7783 146.919 87.7274 146.952 87.6956 147.007C87.3392 147.632 86.6183 148.307 85.6822 148.794C84.7482 149.285 83.615 149.592 82.4755 149.59C81.6179 149.59 80.758 149.422 79.9395 149.043C79.158 148.68 78.4091 148.118 77.7211 147.29C77.5141 146.122 77.4049 145.184 77.4082 144.643L77.4092 144.555L77.4093 144.551C77.4159 144.117 77.5327 143.504 77.7359 142.801C78.3508 142.398 79.2898 142.175 80.3914 142.178C81.8184 142.175 83.468 142.542 84.8224 143.042C85.4996 143.291 86.1054 143.572 86.5681 143.837C87.0293 144.096 87.3515 144.367 87.4141 144.452C87.4479 144.492 87.4949 144.511 87.5322 144.546ZM94.2456 168.447C93.9201 168.726 93.2407 169.096 92.372 169.357C91.4571 169.638 90.3424 169.82 89.1969 169.819C87.7755 169.82 86.3222 169.531 85.0775 168.882C84.7181 168.234 84.3619 167.52 84.0088 166.781C85.0704 167.086 86.1239 167.21 87.112 167.208C89.7329 167.198 91.9473 166.404 93.1134 165.892C93.4806 166.795 93.858 167.654 94.2456 168.447ZM96.0454 173.246C95.6057 173.961 94.7091 174.909 93.2259 175.81C91.7432 176.712 89.6749 177.575 86.9003 178.164C86.267 178.299 85.5029 178.375 84.7424 178.374C83.7236 178.377 82.7008 178.233 82.0141 177.99C81.671 177.872 81.4187 177.729 81.2933 177.624L81.1837 177.512L81.1737 177.495C81.1012 177.177 81.0668 176.864 81.0667 176.548C81.0667 175.606 81.3778 174.619 82.0103 173.592C82.4909 172.81 83.1597 172.017 83.9778 171.245C85.6562 172.091 87.4809 172.418 89.1969 172.419C90.614 172.418 91.9622 172.2 93.1329 171.843C94.0857 171.546 94.9109 171.169 95.5928 170.681C95.9052 171.177 96.2373 171.796 96.4105 172.313L96.4107 172.317C96.4182 172.402 96.3437 172.775 96.0454 173.246ZM90.2655 157.423C90.8451 159.46 91.4916 161.517 92.1864 163.459C91.2637 163.871 89.2749 164.618 87.112 164.608C85.5948 164.605 84.0202 164.267 82.5377 163.257C82.5127 163.24 82.4832 163.239 82.4575 163.223C81.4361 160.675 80.4931 157.932 79.7134 155.326C79.2892 153.91 78.918 152.547 78.5968 151.268C78.6807 151.31 78.7622 151.363 78.8468 151.402C80.0335 151.952 81.2769 152.191 82.4755 152.19C84.0733 152.189 85.5942 151.775 86.8893 151.097C87.4506 150.801 87.962 150.447 88.4285 150.057C88.8965 152.247 89.5219 154.802 90.2655 157.423ZM94.8367 131.838C93.1833 133.785 91.4042 136.127 90.0115 138.328C89.3151 139.429 88.7151 140.494 88.273 141.481C88.2295 141.58 88.194 141.675 88.1532 141.772C88.0528 141.709 87.9674 141.644 87.8605 141.581C86.9345 141.052 85.7644 140.566 84.4734 140.196C83.1831 139.828 81.7786 139.58 80.3914 139.579C79.9196 139.58 79.4495 139.623 78.9834 139.689C79.6275 138.363 80.423 136.955 81.3315 135.579C82.6438 133.589 84.1632 131.688 85.651 130.222L96.0557 130.456C95.6611 130.889 95.2559 131.345 94.8367 131.838ZM118.117 184.873C117.074 185.434 114.87 186.399 112.096 186.392L111.872 186.39C109.869 186.347 108.721 185.741 108.024 185.196C107.678 184.921 107.449 184.655 107.313 184.47C107.277 184.421 107.264 184.397 107.24 184.362C107.206 184.109 107.148 183.679 107.07 183.104C108.352 183.602 109.613 183.82 110.794 183.817C113.38 183.814 115.55 182.85 117.073 181.92C117.279 181.794 117.472 181.668 117.654 181.544C117.853 182.99 118.015 184.146 118.117 184.873ZM115.596 179.775C114.342 180.525 112.651 181.221 110.794 181.218C109.516 181.214 108.144 180.9 106.659 180.016C106.22 176.676 105.619 171.978 105.095 167.447C104.827 165.125 104.582 162.855 104.389 160.838C105.066 160.97 105.752 161.033 106.434 161.033C108.505 161.03 110.549 160.519 112.288 159.859C113.157 159.527 113.949 159.157 114.63 158.78C114.7 158.741 114.755 158.702 114.823 158.664C114.934 159.953 115.1 161.531 115.302 163.301C115.841 168.023 116.627 173.997 117.251 178.592C116.89 178.899 116.324 179.342 115.596 179.775ZM114.665 155.652C114.655 155.661 114.642 155.663 114.631 155.671C114.386 155.885 113.938 156.194 113.373 156.505C111.671 157.454 108.882 158.445 106.434 158.433C105.616 158.433 104.845 158.322 104.149 158.097C104.063 156.994 104.004 156.03 103.986 155.302C103.979 155.013 103.976 154.717 103.976 154.413C103.976 154.278 103.98 154.133 103.982 153.994C104.449 153.7 104.99 153.459 105.624 153.304C106.375 153.119 107.223 153.036 108.092 153.036C109.632 153.035 111.239 153.297 112.508 153.627C113.141 153.791 113.693 153.972 114.1 154.134C114.302 154.214 114.469 154.29 114.583 154.35L114.679 154.404C114.673 154.725 114.662 155.057 114.661 155.364C114.661 155.463 114.665 155.555 114.665 155.652ZM117.856 191.093C116.96 191.94 114.693 193.264 110.517 193.83C109.659 193.947 108.844 194 108.079 194C105.947 194.002 104.2 193.585 103.04 193.051C102.461 192.787 102.031 192.493 101.782 192.251C101.657 192.132 101.577 192.027 101.537 191.959L101.501 191.887L101.498 191.878L101.49 191.749C101.487 191.494 101.571 191.005 101.772 190.458C102.07 189.632 102.613 188.657 103.339 187.84C103.929 187.172 104.635 186.623 105.418 186.266C105.661 186.56 105.984 186.896 106.408 187.233C107.506 188.112 109.289 188.95 111.825 188.989C111.919 188.991 112.009 188.991 112.096 188.991C114.512 188.991 116.533 188.405 117.957 187.82C118.085 187.768 118.202 187.715 118.321 187.663C118.348 188.18 118.372 188.772 118.371 189.31C118.371 189.641 118.362 189.951 118.343 190.19C118.334 190.31 118.322 190.411 118.31 190.483L118.295 190.564L118.293 190.574C118.285 190.601 118.147 190.826 117.856 191.093ZM116.084 139.381C115.555 143.236 115.024 147.703 114.788 151.62C114.665 151.574 114.551 151.528 114.417 151.482C112.817 150.945 110.492 150.44 108.092 150.436C107.06 150.436 106.014 150.531 105.005 150.779C104.696 150.854 104.393 150.95 104.093 151.057C104.249 148.515 104.549 145.68 104.919 142.759C105.432 138.707 106.066 134.513 106.601 130.694L117.373 130.936C117.138 132.334 116.612 135.545 116.084 139.381ZM123.671 127.226L123.99 107.066C126.444 104.77 128.556 102.146 130.29 99.3997L129.795 122.952L123.671 127.226ZM133.63 100.102C133.363 100.291 133.109 100.47 132.865 100.642L132.996 94.3831C132.996 94.3706 132.99 94.3601 132.99 94.3479C133.973 92.1287 134.696 89.9121 135.127 87.7766L138.414 85.3577C138.692 85.5232 139.045 85.7781 139.403 86.1714C140.081 86.9228 140.807 88.1472 141.011 90.3298C141.034 90.5815 141.045 90.8227 141.045 91.0542C141.04 92.739 140.499 93.9102 139.877 94.8008C139.566 95.2432 139.233 95.6062 138.933 95.9026C138.783 96.0513 138.642 96.1831 138.511 96.3049C138.38 96.4287 138.262 96.5356 138.133 96.6731C138.075 96.7383 137.883 96.916 137.632 97.1238C136.736 97.8694 135.058 99.0911 133.63 100.102ZM154.22 104.426C153.545 106.129 152.593 107.302 151.523 108.065C150.45 108.825 149.247 109.186 148.003 109.188C146.075 109.188 144.045 108.299 142.479 106.54C140.92 104.784 139.813 102.163 139.806 98.6689C139.886 98.5937 139.967 98.5188 140.039 98.4421C140.06 98.4182 140.157 98.3249 140.285 98.2058C140.745 97.7756 141.597 96.9927 142.32 95.8181C143.047 94.644 143.648 93.0447 143.645 91.0542C143.645 90.7434 143.63 90.4236 143.601 90.0945C143.341 87.1372 142.169 85.2038 141.004 84.0901C140.621 83.7204 140.249 83.4446 139.913 83.2297C140.557 77.219 141.144 72.3979 142.213 69.0757C142.751 67.3882 143.407 66.1037 144.182 65.2119C144.964 64.3208 145.836 63.7803 147.049 63.4997L147.051 63.4992C147.502 63.397 147.965 63.3435 148.429 63.3435C150.066 63.3528 151.676 63.9707 152.966 65.5188C154.25 67.0698 155.235 69.6599 155.236 73.6916C155.237 76.8518 154.626 80.8769 153.112 85.8733C153.01 86.2094 153.05 86.5769 153.221 86.884L153.221 86.8842C153.244 86.9131 155.622 91.2607 155.613 97.0205C155.613 99.314 155.245 101.831 154.22 104.426Z"/><path id="Vector_6" d="M146.475 60.9639L146.476 60.9636L146.477 60.9634L146.475 60.9639Z"/><path id="Vector_7" d="M145.038 82.1753C145.504 82.3621 145.986 82.4363 146.452 82.4363C147.492 82.4307 148.468 82.0906 149.348 81.6121C150.599 80.9349 151.605 79.8645 152.201 78.4671C152.804 77.0691 153.052 75.3887 153.055 73.3042C153.05 71.4478 152.841 69.8018 152.308 68.4659C152.037 67.7994 151.679 67.1946 151.148 66.7134C150.625 66.231 149.881 65.9129 149.116 65.9212C148.703 65.9209 148.292 66.0027 147.896 66.1475C146.836 66.5342 146.011 67.2815 145.364 68.1538C144.393 69.472 143.762 71.1204 143.336 72.8123C142.915 74.5049 142.714 76.2376 142.713 77.7281L142.715 77.9764C142.737 79.3345 143.062 80.4598 143.776 81.2811C144.13 81.6863 144.572 81.9903 145.038 82.1753ZM146.285 72.0159C146.608 71.105 147.012 70.295 147.453 69.7017C147.896 69.1028 148.355 68.7439 148.782 68.5918L148.786 68.5906C148.94 68.5345 149.046 68.5213 149.116 68.521C149.24 68.5293 149.271 68.535 149.41 68.647C149.609 68.8104 149.927 69.336 150.129 70.1631C150.338 70.9849 150.456 72.0743 150.455 73.304C150.457 75.18 150.215 76.5186 149.816 77.4322C149.409 78.3462 148.9 78.8799 148.095 79.334C147.506 79.6622 146.876 79.8421 146.452 79.8365C146.26 79.8365 146.114 79.8059 146.005 79.7622C145.845 79.6907 145.741 79.6202 145.599 79.3726C145.463 79.1258 145.325 78.667 145.315 77.9344L145.313 77.7281C145.31 76.0562 145.635 73.8365 146.285 72.0159Z"/><path id="Vector_8" d="M147.893 66.1479L147.894 66.1475L147.896 66.1467L147.893 66.1479Z"/><path id="Vector_9" d="M151.992 93.4005C151.688 92.847 151.284 92.3702 150.768 92.0403C150.254 91.7081 149.649 91.5547 149.081 91.5584C148.457 91.5601 147.874 91.7183 147.312 91.949L147.312 91.9493C146.493 92.286 145.803 92.7593 145.257 93.3209C144.434 94.1644 143.948 95.1807 143.672 96.1854C143.395 97.1937 143.317 98.2042 143.316 99.1321C143.316 99.8206 143.361 100.465 143.411 101.024C143.534 102.334 143.961 103.763 144.689 104.992C145.057 105.604 145.504 106.17 146.082 106.619C146.654 107.066 147.398 107.393 148.226 107.391C148.636 107.392 149.056 107.311 149.456 107.157C150.094 106.912 150.677 106.579 151.173 106.135C151.921 105.471 152.424 104.577 152.706 103.573C152.992 102.564 153.093 101.429 153.095 100.096C153.095 99.4305 153.068 98.7144 153.02 97.9395C152.891 95.9566 152.596 94.5147 151.992 93.4005ZM149.995 103.432C149.839 103.762 149.664 103.995 149.439 104.198C149.213 104.399 148.926 104.575 148.524 104.73C148.398 104.778 148.307 104.791 148.226 104.791C148.074 104.789 147.912 104.744 147.671 104.562C147.316 104.297 146.887 103.706 146.58 102.992C146.266 102.283 146.059 101.459 146.001 100.793C145.954 100.274 145.916 99.7076 145.916 99.1321C145.914 98.0967 146.047 97.0421 146.408 96.2176C146.588 95.8033 146.818 95.4444 147.119 95.1358C147.42 94.8279 147.794 94.564 148.304 94.3524L147.808 93.1507L148.305 94.3521C148.653 94.2069 148.922 94.1566 149.081 94.1583C149.232 94.1619 149.287 94.1834 149.367 94.2308C149.426 94.2691 149.507 94.3372 149.609 94.4835C149.762 94.7003 149.947 95.0972 150.096 95.699C150.246 96.2999 150.364 97.0985 150.425 98.0997C150.47 98.8353 150.495 99.5001 150.495 100.096C150.499 101.692 150.308 102.78 149.995 103.432Z"/></g></g></g></svg>