<svg xmlns="http://www.w3.org/2000/svg" width="200" height="200" fill="none"><path fill="#FFE632" d="M78.404 95.185h23.075a1.651 1.651 0 0 0 0-3.3H78.404a1.65 1.65 0 0 0 0 3.3ZM107.404 91.885a1.651 1.651 0 0 0 0 3.3h5.125a1.651 1.651 0 0 0 0-3.3h-5.125ZM78.404 88.185h6.7a1.65 1.65 0 1 0 0-3.3h-6.7a1.65 1.65 0 0 0 0 3.3ZM91.029 84.885a1.65 1.65 0 0 0 0 3.3h4.5a1.65 1.65 0 1 0 0-3.3h-4.5ZM123.304 86.535a1.65 1.65 0 0 0-1.65-1.65H101.58a1.65 1.65 0 1 0 0 3.3h20.074a1.644 1.644 0 0 0 1.524-1.019c.083-.2.126-.414.126-.63ZM78.404 81.185h23.125a1.651 1.651 0 0 0 0-3.3H78.404a1.65 1.65 0 0 0 0 3.3ZM107.58 81.185h14.074a1.651 1.651 0 0 0 0-3.3H107.58a1.65 1.65 0 1 0 0 3.3ZM85.95 67.355a16.105 16.105 0 0 0 3.079 4.406 1.65 1.65 0 1 0 2.344-2.322 11.413 11.413 0 0 1-2.898-7.965v-.07a11.401 11.401 0 0 1 3.029-8.062 1.65 1.65 0 0 0-2.299-2.367 15.942 15.942 0 0 0-3.188 4.424 13.9 13.9 0 0 0-1.44 5.947h-.002v.098a13.861 13.861 0 0 0 1.375 5.911ZM79.536 59.612a2.733 2.733 0 1 0 0-5.466 2.733 2.733 0 0 0 0 5.466ZM79.536 68.612a2.733 2.733 0 1 0 0-5.466 2.733 2.733 0 0 0 0 5.466Z"/><path fill="#BEBEC9" d="M58.685 94.575c3.505 3.988 8.474 7.213 15.236 9.422 6.766 2.211 15.335 3.426 26.156 3.427 9.618-.001 17.456-.961 23.832-2.727 9.557-2.639 15.856-7.147 19.68-12.884 3.828-5.733 5.153-12.572 5.153-19.785a40.906 40.906 0 0 0-2.091-13.707 26.955 26.955 0 0 0-5.127-8.838c-3.491-3.99-8.451-7.216-15.219-9.425-6.772-2.211-15.361-3.425-26.228-3.426-9.66 0-17.52.96-23.903 2.726-9.57 2.64-15.853 7.148-19.656 12.887-3.807 5.735-5.107 12.573-5.107 19.783a40.57 40.57 0 0 0 2.116 13.71 27.058 27.058 0 0 0 5.158 8.837ZM55.953 59.19a24.355 24.355 0 0 1 4.634-7.995c3.143-3.588 7.647-6.566 14.07-8.666 6.419-2.099 14.747-3.3 25.421-3.298 9.487 0 17.122.947 23.209 2.632 9.138 2.537 14.759 6.674 18.184 11.82 3.421 5.148 4.672 11.43 4.672 18.344.086 4.358-.578 8.7-1.963 12.833a24.441 24.441 0 0 1-4.664 7.997c-3.158 3.59-7.674 6.567-14.091 8.668-6.414 2.098-14.721 3.298-25.347 3.298-9.446 0-17.06-.948-23.139-2.633-9.126-2.536-14.767-6.675-18.212-11.822-3.441-5.15-4.714-11.43-4.715-18.341-.087-4.358.569-8.7 1.941-12.837Z"/><path fill="#BEBEC9" d="M29.705 18.869c.332 5.057 1.86 22.907 2.793 32.804.133 2.457.709 4.87 1.7 7.123a7.116 7.116 0 0 0 1.38 1.953 6.433 6.433 0 0 0-1.5 1.64 8.817 8.817 0 0 0-1.013 3.042 24.761 24.761 0 0 0-.324 4.205c.003 1.429.089 2.857.256 4.275.265 2.4.804 4.761 1.607 7.038.309.868.69 1.708 1.137 2.512a6.49 6.49 0 0 0 1.349 1.734 9.87 9.87 0 0 0 4.134 1.837c.744.168 1.498.287 2.257.354.012.039.022.08.034.118a37.707 37.707 0 0 0 17.435 22.212c7.602 4.443 17.686 7.23 30.866 8.038v2.571c-2.984.187-5.764.437-8.078.75a43.017 43.017 0 0 0-3.48.597c-.846.167-1.672.425-2.463.771a3.635 3.635 0 0 0-1.214.994 11.085 11.085 0 0 0-1.608 2.97l-.028.077c-.07.009-.144.011-.213.023a4.734 4.734 0 0 0-.624-1.895 3.357 3.357 0 0 0-1.12-1.118 3.693 3.693 0 0 0-1.594-.504 13.5 13.5 0 0 0-1.206-.054 12.341 12.341 0 0 0-5.719 1.382 17.141 17.141 0 0 0-7.08 7.609 45.078 45.078 0 0 0-4.233 14.814 4.525 4.525 0 0 0 2.825 4.817c-.485.174-.95.399-1.387.673a4.122 4.122 0 0 0-1.467 1.575c-.407.882-.699 1.813-.868 2.77a58.61 58.61 0 0 0-.739 10.32c0 2.228.069 3.818.07 3.831v.016a5.05 5.05 0 0 0 1.08 3.008 4.58 4.58 0 0 0 2.857 1.543c.289.048.606.092.937.134-.068.165-.101.343-.097.522.039.64.136 1.274.29 1.896.235 1.04.574 2.211.896 3.225.16.507.316.973.453 1.362.137.392.25.696.346.922l.001.002c.304.641.75 1.206 1.303 1.651a15.08 15.08 0 0 0 2.633 1.733c.894.481 1.74.873 2.264 1.124a4.647 4.647 0 0 0 1.992.372c.85-.015 1.696-.111 2.528-.287.329-.065.604-.129.813-.181.082.84.17 1.666.27 2.46a1.303 1.303 0 0 0 1.453 1.123 1.299 1.299 0 0 0 1.127-1.449 132.012 132.012 0 0 1-.847-16.033l.003-.44a63.412 63.412 0 0 0 12.087 2.251c5.284.514 10.59.761 15.9.74 6.847.017 13.691-.348 20.499-1.092 2.514-.293 4.72-.637 6.568-1.02.094-.01.187-.014.282-.025.101-.019.2-.052.294-.096.086-.019.185-.037.27-.056.879-.193 1.745-.44 2.594-.738l.063-.027.003.483a132.058 132.058 0 0 1-.847 16.053 1.31 1.31 0 0 0 .263.96 1.296 1.296 0 0 0 1.37.457 1.293 1.293 0 0 0 .786-.61c.085-.148.14-.312.161-.481.1-.791.187-1.615.269-2.453.207.05.469.111.784.174a13.35 13.35 0 0 0 2.528.287 4.638 4.638 0 0 0 1.993-.373c.7-.335 1.962-.914 3.168-1.637a12.606 12.606 0 0 0 1.728-1.219 4.724 4.724 0 0 0 1.303-1.651v-.002c.127-.298.291-.749.49-1.335.295-.873.65-2.006.941-3.101.145-.547.275-1.085.374-1.583.097-.456.158-.92.181-1.386a1.298 1.298 0 0 0-.097-.522c.331-.042.649-.086.938-.134a4.576 4.576 0 0 0 2.856-1.543 5.038 5.038 0 0 0 1.079-3.008l.001-.016c.001-.013.069-1.603.069-3.831 0-2.016-.055-4.551-.272-6.932a32.494 32.494 0 0 0-.467-3.388 11.238 11.238 0 0 0-.868-2.771 4.125 4.125 0 0 0-1.467-1.574 7.146 7.146 0 0 0-1.371-.68 4.53 4.53 0 0 0 2.809-4.809c-1.128-8.344-3.34-14.224-6.316-18.11a15.084 15.084 0 0 0-4.997-4.314 12.342 12.342 0 0 0-5.719-1.382c-.401 0-.803.018-1.205.054a3.693 3.693 0 0 0-1.595.504 3.527 3.527 0 0 0-1.454 1.798 5.274 5.274 0 0 0-.294 1.214c-.058-.01-.118-.011-.176-.019a17.03 17.03 0 0 0-.729-1.641 7.96 7.96 0 0 0-.909-1.41 3.645 3.645 0 0 0-1.215-.994 12.237 12.237 0 0 0-2.55-.786 87.471 87.471 0 0 0-12.1-1.367v-2.648a83.558 83.558 0 0 0 18.961-3.407c11.613-3.671 19.329-9.974 24.028-18.084a42.318 42.318 0 0 0 3.822-8.893c.193.098.409.144.625.135a16.68 16.68 0 0 0 2.332-.36 9.875 9.875 0 0 0 4.135-1.837 6.51 6.51 0 0 0 1.348-1.734 19.335 19.335 0 0 0 1.64-4.043 33.416 33.416 0 0 0 1.104-5.506c.167-1.419.252-2.845.255-4.273a24.796 24.796 0 0 0-.324-4.207 8.836 8.836 0 0 0-1.011-3.043 6.946 6.946 0 0 0-2.114-2.085c-.013-.01-.027-.016-.041-.025a8.35 8.35 0 0 0 1.652-2.86c.62-1.86 1.004-3.79 1.145-5.746.934-9.897 2.461-27.747 2.793-32.804v-.003c.015-.23.022-.454.023-.673a7.158 7.158 0 0 0-.351-2.32 4.642 4.642 0 0 0-1.751-2.364 5.3 5.3 0 0 0-2.451-.87 6.205 6.205 0 0 0-.677-.038 5.104 5.104 0 0 0-3.414 1.228 5.884 5.884 0 0 0-1.833 3.99c-.409 4.228-1.753 20.544-2.622 31.18-.159-.61-.319-1.22-.498-1.82-2.812-9.428-8.229-17.577-17.347-23.268-9.114-5.696-21.829-8.946-39.248-8.946-11.616 0-21.132 1.445-28.892 4.095-11.64 3.965-19.322 10.708-23.981 19.162a46.828 46.828 0 0 0-4.373 11.367c-.867-10.612-2.254-27.463-2.67-31.77a5.891 5.891 0 0 0-1.834-3.99 5.106 5.106 0 0 0-3.414-1.228c-.226 0-.452.013-.677.037a5.009 5.009 0 0 0-3.169 1.488 4.801 4.801 0 0 0-1.033 1.748 7.136 7.136 0 0 0-.35 2.319c0 .218.007.444.022.677v-.001Zm11.886 65.579a7.197 7.197 0 0 1-2.82-1.236 4.12 4.12 0 0 1-.773-1.041 16.84 16.84 0 0 1-1.403-3.488c-.48-1.66-.82-3.357-1.015-5.073a34.535 34.535 0 0 1-.239-3.974 22.208 22.208 0 0 1 .285-3.755 6.51 6.51 0 0 1 .663-2.124 4.4 4.4 0 0 1 1.336-1.285c.894-.56 1.86-.996 2.871-1.296.21-.066.405-.12.582-.169a91.067 91.067 0 0 0-.227 6.486 71.438 71.438 0 0 0 1.884 17.182 14.472 14.472 0 0 1-1.144-.227Zm28.684 68.188-.02-.014.023-.012-.003.026Zm3.231-21.623c-.056.298-.119.623-.18.939a85.83 85.83 0 0 0-.621 2.864 4.628 4.628 0 0 1-.333-1.676 4.849 4.849 0 0 1 .915-2.873c.135-.179.287-.345.453-.495l-.234 1.241Zm-17.773 16.076c1.083-8.061 3.22-13.521 5.802-16.874a12.49 12.49 0 0 1 4.129-3.588 9.73 9.73 0 0 1 4.524-1.091c.322 0 .647.015.974.044.168.008.332.055.48.137.179.12.311.299.373.506.137.407.2.835.187 1.263 0 .061-.006.128-.008.19a6.372 6.372 0 0 0-1.605 2.023 7.605 7.605 0 0 0-.817 3.44 7.17 7.17 0 0 0 .713 3.153c.383.783.92 1.482 1.579 2.054a177.425 177.425 0 0 0-1.35 9.874 1.254 1.254 0 0 0-.115.358 1.956 1.956 0 0 1-.692 1.264 2.193 2.193 0 0 1-1.408.527l-.16-.007-.563-.055a1.284 1.284 0 0 0-.253-.513 5.342 5.342 0 0 0-1.162-.962 8.006 8.006 0 0 0-3.22-1.154 7.034 7.034 0 0 0-.984-.069 5.991 5.991 0 0 0-2.767.648c-.39.194-.75.446-1.065.747a1.296 1.296 0 0 0-.233.349l-.701-.069a1.986 1.986 0 0 1-1.675-1.936l.017-.259Zm-1.065 24.999a2.48 2.48 0 0 1-.482-1.488l-.01-.255c-.018-.534-.056-1.818-.056-3.449 0-1.966.056-4.441.262-6.696.088-1.044.23-2.083.426-3.112.126-.73.342-1.442.644-2.118a1.57 1.57 0 0 1 .568-.565 6.684 6.684 0 0 1 2.263-.82 16.758 16.758 0 0 1 3.3-.301c2.025-.022 4.04.288 5.965.919.654.213 1.266.54 1.807.964.147.121.273.265.373.427.055.09.087.191.095.297.01.18.06.355.143.515a240.804 240.804 0 0 0-.669 16.249 3.451 3.451 0 0 1-.535.164 15.68 15.68 0 0 1-2.284.303c-.931.067-1.99.099-3.082.099a51.634 51.634 0 0 1-7.445-.492 1.984 1.984 0 0 1-1.283-.641Zm14.914 13.075-.012.003c-.081.022-.533.144-1.122.257-.627.128-1.264.2-1.903.214a2.331 2.331 0 0 1-.87-.118c-.725-.346-1.904-.892-2.954-1.522-.48-.28-.938-.6-1.366-.956a2.344 2.344 0 0 1-.611-.706 19.638 19.638 0 0 1-.418-1.149 48.606 48.606 0 0 1-.892-2.935 23.029 23.029 0 0 1-.335-1.419 6.372 6.372 0 0 1-.133-.955 1.226 1.226 0 0 0-.05-.214c1.42.1 2.968.157 4.48.158a36.362 36.362 0 0 0 4.903-.277c.356-.052.687-.111.999-.182.014 1.836.053 3.637.122 5.384-.392.052-.788.08-1.184.084a3.348 3.348 0 0 1-.74-.067 88.13 88.13 0 0 1-.787-1.899c-.292-.722-.52-1.304-.521-1.305a1.297 1.297 0 0 0-1.686-.733 1.303 1.303 0 0 0-.733 1.685c.003.01.923 2.348 1.446 3.527.154.341.4.633.71.842.36.236.764.393 1.189.46.37.063.746.093 1.122.09.439-.003.876-.03 1.312-.081.035.611.074 1.213.117 1.807-.028.006-.055-.001-.083.007Zm14.665-12.069-.166-.018c2.348-.815 4.62-1.832 7.097-2.685a29.294 29.294 0 0 1 9.878-1.753 32.74 32.74 0 0 1 12.703 2.793c1.361.534 2.694 1.079 4.056 1.556-5.269.518-11.573.835-17.937.834a154.82 154.82 0 0 1-15.631-.727Zm44.607-41.827-.049-.254-.231-1.228c.341.312.623.684.832 1.097.352.7.534 1.474.532 2.257a4.615 4.615 0 0 1-.312 1.618 80.94 80.94 0 0 0-.772-3.49Zm14.491 44.61a8.476 8.476 0 0 1-.227 1.397 39.06 39.06 0 0 1-.838 3.012c-.153.482-.302.926-.428 1.286-.125.357-.233.641-.285.763a2.356 2.356 0 0 1-.612.706 12.637 12.637 0 0 1-2.168 1.411c-.811.437-1.605.806-2.151 1.067-.28.094-.575.134-.87.118a10.88 10.88 0 0 1-2.019-.237 16.096 16.096 0 0 1-.953-.22l-.052-.014-.012-.003c-.018-.005-.036 0-.054-.004.043-.594.082-1.196.117-1.807.425.049.853.075 1.281.078a5.524 5.524 0 0 0 1.509-.18c.286-.079.557-.204.803-.369.31-.21.555-.502.71-.843.523-1.179 1.442-3.517 1.446-3.527a1.3 1.3 0 0 0-2.419-.952c-.001.001-.229.583-.521 1.305a83.16 83.16 0 0 1-.787 1.898 1.476 1.476 0 0 1-.15.031 4.026 4.026 0 0 1-.591.037 9.658 9.658 0 0 1-1.153-.084c.069-1.748.108-3.55.123-5.388a17.59 17.59 0 0 0 2.503.35c1.039.078 2.189.113 3.369.113a65.5 65.5 0 0 0 4.478-.158c-.023.07-.039.142-.049.214Zm3.514-20.907c.301.676.518 1.388.643 2.118a56.5 56.5 0 0 1 .688 9.808 111.047 111.047 0 0 1-.056 3.449l-.01.256a2.472 2.472 0 0 1-.481 1.487c-.333.366-.79.595-1.282.641a51.652 51.652 0 0 1-7.445.492 33.99 33.99 0 0 1-4.533-.25 6.844 6.844 0 0 1-1.304-.289l-.033-.014a240.616 240.616 0 0 0-.673-16.334c.065-.14.104-.29.116-.444a.646.646 0 0 1 .095-.296c.229-.336.536-.61.895-.799a10.426 10.426 0 0 1 3.134-1.103 20.598 20.598 0 0 1 4.115-.408c1.422-.024 2.84.154 4.212.529a5.3 5.3 0 0 1 1.351.592c.235.136.43.331.568.565Zm-16.447-28.989a.773.773 0 0 1 .257-.264 1.09 1.09 0 0 1 .479-.137c.327-.029.652-.044.974-.044a9.734 9.734 0 0 1 4.525 1.091 14.572 14.572 0 0 1 5.971 6.506 42.545 42.545 0 0 1 3.959 13.956l.018.259a1.99 1.99 0 0 1-1.675 1.936l-.699.069a1.276 1.276 0 0 0-.233-.349 4.336 4.336 0 0 0-1.064-.747 5.996 5.996 0 0 0-2.768-.648c-.329 0-.658.023-.984.069a8.006 8.006 0 0 0-3.22 1.154c-.43.264-.821.588-1.161.962-.122.15-.208.325-.253.513l-.566.055-.16.007a2.193 2.193 0 0 1-1.409-.527 1.954 1.954 0 0 1-.691-1.264 1.18 1.18 0 0 0-.067-.206 191.921 191.921 0 0 0-.927-7.281c-.142-.952-.289-1.872-.44-2.773a6.5 6.5 0 0 0 1.548-2.026 7.168 7.168 0 0 0 .712-3.153 7.42 7.42 0 0 0-1.44-4.439 6.096 6.096 0 0 0-.982-1.004c-.002-.069-.008-.142-.008-.209a2.983 2.983 0 0 1 .304-1.506Zm-8.97-1.785c.68.129 1.344.327 1.983.593l.003.001c.129.08.241.184.332.307a8.76 8.76 0 0 1 1.19 2.26c.546 1.45 1 2.933 1.357 4.44.373 1.963.834 4.337 1.238 6.271.022.104.057.205.103.301a225.001 225.001 0 0 1 2.774 32.162c-.295.169-.605.31-.927.42-.951.325-1.922.585-2.907.78a15.47 15.47 0 0 1-1.423.073 17.559 17.559 0 0 1-5.195-.845c-2.545-.77-5.129-1.981-8.154-3.026a32.042 32.042 0 0 0-10.76-1.895 35.149 35.149 0 0 0-13.61 2.973c-1.842.728-3.541 1.435-5.208 1.95-1.627.536-3.327.82-5.04.843a14.02 14.02 0 0 1-1.809-.119 34.553 34.553 0 0 1-3.473-.977c.147-9.78.91-19.542 2.282-29.226.168-1.138.344-2.237.527-3.297.013-.04.032-.076.04-.117.357-1.707.758-3.758 1.104-5.566.248-1.05.503-2.028.763-2.9.34-1.223.792-2.413 1.348-3.554.168-.337.37-.656.603-.952.09-.122.202-.226.331-.307l.004-.001a9.608 9.608 0 0 1 1.905-.578 65.46 65.46 0 0 1 7.999-1.062 18.544 18.544 0 0 0 11.814 4.331l.27-.002a18.215 18.215 0 0 0 8.161-2.076 18.578 18.578 0 0 0 3.475-2.33c2.007.155 3.868.341 5.483.555 1.325.174 2.486.367 3.417.57Zm-14.14-2.259c0 .011-.006.021-.005.032.012.075.03.149.056.22.012.085.033.169.063.25.039.073.086.142.139.206.076.149.2.267.353.336.025.016.048.036.074.05-.039.021-.075.043-.115.063a15.597 15.597 0 0 1-6.999 1.783l-.232.001a15.682 15.682 0 0 1-7.585-1.976l.267-.042c.05-.015.1-.034.147-.055a1.2 1.2 0 0 0 .764-.598 1.25 1.25 0 0 0 .1-.206l.014-.037c.02-.076.035-.154.042-.233.013-.051.024-.103.03-.155V117.888a135.61 135.61 0 0 0 12.88-.079V121.906c0 .011.006.02.007.031Zm57.958-56.056c.201 1.242.297 2.5.285 3.757a34.688 34.688 0 0 1-.238 3.972 28.96 28.96 0 0 1-1.466 6.446 14.1 14.1 0 0 1-.952 2.114 4.122 4.122 0 0 1-.773 1.042 7.5 7.5 0 0 1-3.026 1.284 15.036 15.036 0 0 1-1.69.279 71.352 71.352 0 0 0 1.902-17.282c0-2.257-.082-4.48-.245-6.668.817.176 1.618.419 2.396.726a9.954 9.954 0 0 1 1.863.957c.509.323.946.748 1.282 1.249a6.51 6.51 0 0 1 .662 2.124Zm-2.881-47.812c.012-.86.357-1.68.964-2.29a2.506 2.506 0 0 1 1.695-.578c.131 0 .262.007.393.022a2.424 2.424 0 0 1 1.557.682c.213.234.373.51.469.811.151.478.222.976.21 1.477 0 .159-.005.328-.017.508l.001-.002c-.327 4.982-1.856 22.866-2.787 32.73a17.07 17.07 0 0 1-1.428 6.088c-.214.437-.5.834-.846 1.175-.137.13-.288.244-.449.342a18.825 18.825 0 0 0-.978-.34c-.59-.187-1.19-.34-1.798-.459a1.258 1.258 0 0 0-.34.007l.407-5c.808-9.93 2.486-30.414 2.947-35.173ZM62.207 26.116c8.553-5.351 20.762-8.552 37.869-8.551 11.402 0 20.636 1.421 28.052 3.955 11.125 3.813 18.17 10.06 22.547 17.959 4.369 7.901 6.029 17.536 6.028 28.014a64.947 64.947 0 0 1-2.547 19.238 35.08 35.08 0 0 1-16.266 20.741c-8.559 5.009-20.77 7.935-37.814 7.933-11.36.001-20.58-1.298-27.994-3.65-11.124-3.539-18.177-9.377-22.564-16.911-4.381-7.537-6.069-16.875-6.067-27.351a68.504 68.504 0 0 1 2.522-19.568c2.691-8.959 7.684-16.453 16.234-21.81Zm-29.714-9.4c.13-.432.4-.808.769-1.068.378-.244.81-.39 1.258-.425.13-.015.261-.022.392-.022a2.509 2.509 0 0 1 1.695.578 3.31 3.31 0 0 1 .965 2.29c.306 3.168 1.155 13.339 1.926 22.698a15548.096 15548.096 0 0 1 1.438 17.594c-.788.187-1.562.426-2.317.717-.197.076-.405.177-.609.266a3.542 3.542 0 0 1-1.487-1.71 18.023 18.023 0 0 1-1.436-6.206c-.931-9.863-2.46-27.746-2.787-32.73v-.001a7.608 7.608 0 0 1-.018-.504c-.01-.5.06-1 .211-1.477ZM124.545 122.442l.002.001-.002-.001Z"/><path fill="#BEBEC9" d="m77.793 122.444.002-.001.001-.001-.003.002ZM128.204 96.32c.309-.171.612-.345.909-.521l.004-.003a28.055 28.055 0 0 0 3.904-2.794c.266-.227.521-.457.769-.686a1.3 1.3 0 0 0-1.767-1.908c-.227.21-.458.418-.692.618l-.002.002a25.468 25.468 0 0 1-3.544 2.535c-.277.164-.557.325-.842.483a1.3 1.3 0 1 0 1.261 2.274ZM133.023 93l-.002.002.002-.002ZM72.84 50.88A44.063 44.063 0 0 1 85.4 46.9a1.3 1.3 0 0 0-.453-2.56 46.628 46.628 0 0 0-13.299 4.23 1.3 1.3 0 1 0 1.191 2.31ZM64.847 57.252a21.83 21.83 0 0 1 2.387-2.54 1.3 1.3 0 1 0-1.747-1.925 24.441 24.441 0 0 0-2.671 2.841 1.3 1.3 0 1 0 2.031 1.624Z"/></svg>