<svg xmlns="http://www.w3.org/2000/svg" width="200" height="200" fill="none"><path fill="#191C22" d="M112.448 93.643a609.865 609.865 0 0 1 5.308-5.854 62.35 62.35 0 0 0 .337-2.623c.15-1.319.317-2.911.494-4.567l.13-1.201c.05-.462-2.603-5.603-1.216-9.46 1.23-3.422 6.519-5.633 6.546-5.669.668-.893 1.397-1.857 2.154-2.854-1.211-.22-3.03-.572-4.515-.942a13.53 13.53 0 0 1-2.069-.648 1.006 1.006 0 0 1-.548-.625 14.64 14.64 0 0 1-.371-1.771 48.356 48.356 0 0 1-.269-2.03 79.128 79.128 0 0 1-.119-1.144c-7.523 3.776-14.531 7.298-15.634 7.867-.386.227-2.071 1.243-4.575 2.761-2.1 1.273-4.783 2.905-7.777 4.73-4.886 5.887-12.307 7.52-13.09 8a2582.647 2582.647 0 0 0-12.27 7.568 807.509 807.509 0 0 0-5.877 3.682c-.837.53-1.576 1.003-2.193 1.403a26.2 26.2 0 0 0 1.817 2.326c3.504 3.988 8.472 7.214 15.235 9.423 6.767 2.211 15.335 3.426 26.156 3.427 2.115-.001 4.13-.055 6.077-.146.101-.794.233-1.726.393-2.626.042-.234.084-.466.13-.692.129-.713.316-1.414.561-2.096l.087-.173c.184-.288.441-.628.772-1.046.331-.415.732-.899 1.185-1.432a198.131 198.131 0 0 1 3.141-3.588ZM55.79 75.955c4.082-1.818 8.798-3.883 11.417-4.903a17.924 17.924 0 0 1 1.736-.608l.197-.03c.27-.014.579-.02.927-.02.965 0 2.245.047 3.638.118.875.045 16.004-2.868 16.897-3.412 1.296-.79 2.522-1.535 3.652-2.222 4.081-2.48 6.913-4.19 7.435-4.496l.045-.024c1.226-.635 10.173-5.129 18.833-9.474 1.572-.789 3.131-1.572 4.635-2.325l.07-2.822c-.61-.01-1.467-.032-2.427-.075a33.343 33.343 0 0 1-5.554-.611 1 1 0 0 1-.389-.191 10.284 10.284 0 0 1-1.002-.986 44.668 44.668 0 0 1-.71-.795c-.121.003-1.384.027-3.134.027a87.634 87.634 0 0 1-9.154-.368 1.002 1.002 0 0 1-.464-.183 9.99 9.99 0 0 1-.991-.867c-.37-.358-.784-.783-1.225-1.252-.88-.937-1.871-2.048-2.803-3.116l-.028-.032a235.63 235.63 0 0 1-2.182-2.54 83.207 83.207 0 0 0-19.011 2.628c-9.57 2.639-15.853 7.148-19.656 12.887-3.806 5.735-5.106 12.572-5.106 19.782-.01 2.545.182 5.087.577 7.601a1077.946 1077.946 0 0 1 3.777-1.691Zm14.665-32.719a46.615 46.615 0 0 1 13.3-4.23 1.298 1.298 0 0 1 1.296 2.028 1.3 1.3 0 0 1-.844.533 44.045 44.045 0 0 0-12.561 3.98 1.3 1.3 0 1 1-1.191-2.311Zm-8.832 7.06a24.38 24.38 0 0 1 2.671-2.842 1.3 1.3 0 0 1 1.748 1.925c-.862.781-1.66 1.63-2.388 2.539a1.3 1.3 0 1 1-2.031-1.623ZM141.907 76.048a.997.997 0 0 1-.047-.302c.008-.335.046-.669.114-.997.068-.36.161-.753.27-1.17.219-.835.505-1.766.79-2.642a99.664 99.664 0 0 1 1.074-3.114l-3.696-4.62a1.015 1.015 0 0 1-.21-.492c-.296-2.228-.434-4.98-.467-5.684a36.663 36.663 0 0 1-1.146-.992 489.834 489.834 0 0 1-3.374-3.052l-1.511 1.947.106 2.05c.072 1.389.171 3.269.277 5.234.211 3.927.453 8.218.564 9.56.014.163.026.28.031.316l.001.006.033.105c.033.094.085.23.151.393.134.327.327.765.562 1.274.47 1.021 1.108 2.334 1.794 3.71 1.372 2.75 2.946 5.765 3.778 7.246.233.416.422.728.473.796v.001c.123.155.198.342.216.538.035.408.062.993.084 1.681.027.862.046 1.89.06 2.98l.014 1.352a26.221 26.221 0 0 0 1.766-2.341 26.846 26.846 0 0 0 1.713-2.975l-1.2-3.791-2.22-7.017ZM138.525 48.737c-.6.768-1.306 1.672-2.078 2.663l1.062.968.488.444 3.215-1.513 2.382-1.121a26.124 26.124 0 0 0-2.046-2.677c-.355-.407-.736-.8-1.123-1.19l-1.615 2.062-.285.364Z"/><path fill="#191C22" d="M126.906 59.51c.274.05.494.088.658.116a940.879 940.879 0 0 1 2.629-3.424l-.193-3.25-7.376 5.69c.253.06.51.119.775.177 1.278.281 2.632.535 3.507.691ZM139.608 54.264l.31.276c.446.397.819.722 1.011.88.068.02.138.038.208.05.299.055.6.092.903.112.46.037 1.005.058 1.572.07.349.006.704.01 1.058.01.612 0 1.208-.009 1.742-.02a28.023 28.023 0 0 0-1.78-3.791.972.972 0 0 1-.179.133l-2.179 1.025-2.666 1.255ZM60.692 85.488c2.995-1.876 6.703-4.172 10.656-6.606 1.498-.922 3.031-1.864 4.574-2.81.737-.453-.759-3.478-1.679-3.529-1.627-.088-3.128-.15-4.175-.15-.28 0-.516.006-.718.014-.192.056-.51.164-.91.314-.47.176-1.054.408-1.72.68-1.332.544-2.99 1.252-4.75 2.017a735.234 735.234 0 0 0-7.135 3.154c-.882.395-1.703.764-2.438 1.095a32.897 32.897 0 0 0 1.155 4.089 28.124 28.124 0 0 0 2.26 4.828c.626-.406 1.367-.88 2.209-1.414.807-.511 1.697-1.072 2.671-1.682ZM133.216 46.777l-1.559.781a.821.821 0 0 1 .034.129l.362 6.108a1799.809 1799.809 0 0 1 6.907-8.856c-.253-.221-.515-.437-.78-.651-.242.12-.619.31-1.146.574l-1.414.71c-.703.352-1.505.753-2.404 1.205ZM129.738 48.521a32070.104 32070.104 0 0 0-9.509 4.77c.021.252.052.587.091.981.084.838.206 1.915.353 2.843l.075.447 9.001-6.941a.966.966 0 0 1 .11-.054l-.121-2.046ZM145.577 69.66c-.132.375-.279.804-.434 1.267a38.132 38.132 0 0 0-1.204 4.193 4.452 4.452 0 0 0-.07.501l1.278 4.038 1.392 4.398a37.228 37.228 0 0 0 2.114-10.552l-2.492-3.115-.584-.73ZM127.326 43.6l-.098 3.942 4.856-2.435-4.758-1.506ZM113.559 38.01c1.441 1.772 2.877 3.494 3.813 4.509.249.272.465.49.617.634 1.174.223 2.362.368 3.556.433 1.418.096 2.813.134 3.699.15l.079.001.037-1.516a.998.998 0 0 1 .844-.963c.153-.024.31-.012.458.035l1.695.536.045-.224.519-2.596a46.337 46.337 0 0 0-2.591-.933 69.696 69.696 0 0 0-15.08-2.936l.697.873c.52.65 1.066 1.327 1.612 1.997ZM100.024 37.25c1.041 1.169 2.064 2.275 2.814 3 .237.23.429.4.589.533 2.321.262 6.015.324 8.63.323.539 0 1.024-.003 1.453-.006a242.253 242.253 0 0 1-2.29-2.799l-.475-.59a475.847 475.847 0 0 1-2.216-2.783 125.108 125.108 0 0 0-8.428-.279c-.792 0-1.553.017-2.322.03l.469.544c.565.655 1.174 1.352 1.776 2.027ZM139.829 90.51c-.022-1.628-.059-3.112-.114-3.925a10.636 10.636 0 0 1-.179-.296 35.693 35.693 0 0 1-.518-.916c-.4-.727-.905-1.675-1.454-2.728a239.822 239.822 0 0 1-3.339-6.639c-.643-1.343-1.138-2.427-1.375-3.083a2.842 2.842 0 0 1-.147-.536 7.875 7.875 0 0 1-.045-.447c-.016-.191-.034-.43-.053-.712-.039-.563-.086-1.3-.137-2.149a1254.67 1254.67 0 0 1-.336-5.966c-.115-2.12-.224-4.204-.305-5.755a805.273 805.273 0 0 0-5.286 6.919c-.698.926-5.714 14.213-5.814 15.126-.207 1.902-.405 3.804-.582 5.402-.179 1.608-.332 2.89-.469 3.625-.035.184-.12.354-.246.492-.802.875-2.686 2.927-4.648 5.112-1.961 2.18-4.006 4.504-5.095 5.874-.273.343-.472.612-.592.792-.2.603-.356 1.219-.466 1.845-.062.316-.121.642-.174.973a54.183 54.183 0 0 0-.245 1.662 78.246 78.246 0 0 0 15.724-2.465c6.92-1.911 12.124-4.806 15.925-8.434a406.29 406.29 0 0 0-.025-3.436l-.005-.334Zm-3.72 1.89c-.25.233-.507.462-.769.688a28.024 28.024 0 0 1-3.907 2.794c-.299.179-.604.354-.915.526a1.302 1.302 0 0 1-1.877-1.5 1.303 1.303 0 0 1 .621-.777c.285-.157.565-.318.839-.482a25.413 25.413 0 0 0 3.545-2.534c.237-.203.468-.41.692-.618a1.3 1.3 0 0 1 1.771 1.904ZM134.562 43.793c.026.008.043.028.068.038l1.762-.884a34.946 34.946 0 0 0-5.59-3.142l-.525 2.62-.002.011.076.024 4.211 1.333Z"/><path fill="#FFD93A" d="M64.213 147.762a25.76 25.76 0 0 1 46.568 4.31s-2.864-1.322-3.364 1.095c-.5 2.416 3.5 4.833 3.5 4.833s-3.167 1.083-3 3.667c.167 2.583 4 3.916 4 3.916s-4.583 1.25-4.5 3.084c.083 1.833 2.537 2.645 2.537 2.645a25.759 25.759 0 0 1-48.625-5.192s2.672-.37 2.755-1.62a3.227 3.227 0 0 0-2.5-3.583s2.5-1 2.416-3.334c-.083-2.333-1.25-3.25-2.166-3.166l.416-2.584a3.601 3.601 0 0 0 1.963-4.071Z"/><path fill="#191C22" d="m144.67 57.663-.3-.003a33.062 33.062 0 0 1-2.605-.097c.017.314.038.686.067 1.129.069 1.036.176 2.334.32 3.485l3.923 4.904 2.686 3.358c.001-.131.005-.262.005-.394.062-4.2-.502-8.386-1.673-12.42-.673.02-1.531.037-2.423.038Z"/><path fill="#191C22" d="M167.477 49.691c.935-9.897 2.462-27.748 2.793-32.804.015-.232.023-.458.023-.677a7.13 7.13 0 0 0-.351-2.32 4.642 4.642 0 0 0-1.751-2.364 5.302 5.302 0 0 0-2.45-.87 6.184 6.184 0 0 0-.678-.038 5.106 5.106 0 0 0-3.414 1.229 5.894 5.894 0 0 0-1.833 3.99c-.408 4.228-1.753 20.545-2.622 31.181-.159-.61-.319-1.22-.498-1.82-2.812-9.429-8.229-17.578-17.347-23.27-9.114-5.695-21.828-8.945-39.247-8.946-11.617 0-21.132 1.445-28.893 4.096-11.64 3.965-19.322 10.708-23.98 19.162a46.837 46.837 0 0 0-4.374 11.368c-.867-10.612-2.254-27.464-2.67-31.771a5.894 5.894 0 0 0-1.834-3.99 5.104 5.104 0 0 0-3.413-1.229c-.227 0-.453.013-.678.038a5.01 5.01 0 0 0-3.168 1.487 4.798 4.798 0 0 0-1.033 1.748 7.133 7.133 0 0 0-.351 2.319c0 .22.007.445.023.677.331 5.056 1.858 22.907 2.793 32.804.132 2.457.708 4.87 1.699 7.123a7.115 7.115 0 0 0 1.38 1.953 6.434 6.434 0 0 0-1.5 1.64 8.813 8.813 0 0 0-1.012 3.041 24.733 24.733 0 0 0-.324 4.204c.003 1.43.088 2.858.256 4.277.264 2.4.803 4.761 1.606 7.038.309.867.69 1.707 1.137 2.512.348.65.804 1.237 1.348 1.734a9.878 9.878 0 0 0 4.135 1.837c.744.168 1.498.286 2.258.354.012.039.021.08.034.118a37.708 37.708 0 0 0 17.435 22.212c7.602 4.443 17.685 7.229 30.865 8.038v2.571c-1.694.106-3.321.234-4.832.381-2.092.205-3.965.447-5.516.727-.776.14-1.471.29-2.081.453a9.434 9.434 0 0 0-1.592.554c-.472.24-.887.579-1.214.995a8.485 8.485 0 0 0-.998 1.601 1.244 1.244 0 0 0-.19-.198 9.378 9.378 0 0 0-5.451-1.726 13.182 13.182 0 0 0-5.541 1.36 29.82 29.82 0 0 0-7.42 5.263 57.163 57.163 0 0 0-5.664 6.185 13.807 13.807 0 0 0-3.11 8.553c.002.437.03.874.08 1.308a16.866 16.866 0 0 0-2.885 4.333 18.877 18.877 0 0 0-1.976 8.263c0 .536.026 1.076.079 1.618a13.073 13.073 0 0 0 2.792 7.157 9.567 9.567 0 0 0 3.42 2.579 11.94 11.94 0 0 0 4.935.976c.24 0 .482-.006.73-.017 1.625-.04 3.23-.38 4.732-1.001a27.272 27.272 0 0 0 9.478 14.381c.138 2.17.323 4.237.566 6.157a1.303 1.303 0 0 0 .946 1.094 1.294 1.294 0 0 0 .989-.125 1.304 1.304 0 0 0 .61-.788 1.3 1.3 0 0 0 .034-.507 89.918 89.918 0 0 1-.4-3.918 27.255 27.255 0 0 0 21.4 2.944 27.258 27.258 0 0 0 16.825-13.548c.104.089.222.162.349.214.45.173.908.323 1.373.448a11.58 11.58 0 0 0 2.965.448c.321.001.642-.021.96-.067a6.196 6.196 0 0 0 1.953-.615 9.205 9.205 0 0 0 4.164.951 15.255 15.255 0 0 0 5.708-1.268 21.023 21.023 0 0 0 2.597-1.339c.076 2.647.117 5.227.117 7.679 0 2.74-.049 5.325-.149 7.678a1.3 1.3 0 0 0 1.243 1.355 1.312 1.312 0 0 0 .935-.342 1.301 1.301 0 0 0 .419-.902c.102-2.398.152-5.018.152-7.789a283.425 283.425 0 0 0-.166-9.331 51.796 51.796 0 0 0 4.355-3.387 22.531 22.531 0 0 0 4.394-4.811c.524-.862.967-1.771 1.322-2.715a10.673 10.673 0 0 0 3.619-3.786 15.796 15.796 0 0 0 1.99-7.988 21.873 21.873 0 0 0-.323-3.675 41.637 41.637 0 0 0-5.682-14.115 24.658 24.658 0 0 0-5.276-6.075 11.12 11.12 0 0 0-6.869-2.645c-.415 0-.83.028-1.241.084l-.001.001a4.22 4.22 0 0 0-1.715.603 3.655 3.655 0 0 0-1.032 1.004 8.637 8.637 0 0 0-.831-1.394 3.764 3.764 0 0 0-1.343-1.16 9.426 9.426 0 0 0-1.591-.554 58.943 58.943 0 0 0-9.205-1.326c-1.228-.104-2.528-.19-3.853-.268v-2.652a83.477 83.477 0 0 0 18.957-3.406c11.612-3.671 19.328-9.974 24.027-18.084a42.27 42.27 0 0 0 3.822-8.893c.193.098.409.144.626.135a16.666 16.666 0 0 0 2.331-.36 9.873 9.873 0 0 0 4.135-1.837 6.468 6.468 0 0 0 1.348-1.734 19.282 19.282 0 0 0 1.64-4.043 33.319 33.319 0 0 0 1.103-5.507c.168-1.42.253-2.847.257-4.276a24.77 24.77 0 0 0-.325-4.204 8.79 8.79 0 0 0-1.012-3.042 6.951 6.951 0 0 0-2.112-2.085c-.014-.01-.028-.016-.042-.025a8.332 8.332 0 0 0 1.652-2.86c.62-1.86 1.004-3.79 1.145-5.746Zm-132.364-.245c-.933-9.863-2.462-27.747-2.788-32.73a7.484 7.484 0 0 1-.017-.506c-.011-.5.06-1 .21-1.476.13-.432.401-.808.77-1.069a2.72 2.72 0 0 1 1.257-.425c.13-.014.261-.021.393-.021a2.507 2.507 0 0 1 1.694.578c.607.61.953 1.43.965 2.29.306 3.168 1.155 13.338 1.926 22.698A15454.459 15454.459 0 0 1 40.96 56.38c-.787.187-1.56.426-2.315.716-.197.077-.406.178-.61.267a3.542 3.542 0 0 1-1.487-1.711 18.017 18.017 0 0 1-1.435-6.205Zm6.504 33.02a7.202 7.202 0 0 1-2.821-1.236 4.12 4.12 0 0 1-.773-1.042 16.828 16.828 0 0 1-1.403-3.487c-.48-1.66-.82-3.357-1.014-5.073a34.503 34.503 0 0 1-.24-3.976 22.192 22.192 0 0 1 .286-3.754c.097-.74.321-1.459.662-2.123.35-.519.805-.957 1.337-1.285a11.64 11.64 0 0 1 2.871-1.297c.21-.065.404-.12.581-.168a91.061 91.061 0 0 0-.227 6.485 71.429 71.429 0 0 0 1.884 17.182 14.534 14.534 0 0 1-1.143-.227Zm11.762 53.088a49.923 49.923 0 0 1 7.572-7.78 23.275 23.275 0 0 1 4.574-2.928 10.62 10.62 0 0 1 4.442-1.116 6.727 6.727 0 0 1 3.702 1.104 5.34 5.34 0 0 0-.66.31 6.123 6.123 0 0 0-2.394 2.572 7.61 7.61 0 0 0-.817 3.441 7.167 7.167 0 0 0 .712 3.153c.18.356.391.695.632 1.013-1.417 2.15-2.907 4.564-4.865 7.056a27.388 27.388 0 0 0-1.499 1.809 23.183 23.183 0 0 1-1.467 1.517 9.064 9.064 0 0 0-3.08-3.194 10.109 10.109 0 0 0-4.86-1.382 14.085 14.085 0 0 0-.577-.014 9.155 9.155 0 0 0-3.938.82 11.308 11.308 0 0 1 2.523-6.381Zm9.85 13.305a2.368 2.368 0 0 1-.178.892.936.936 0 0 1-.254.383 3.782 3.782 0 0 1-.307.095c-.657.182-1.886.429-3.026.652-.413.08-.805.158-1.175.231v-.022a6.272 6.272 0 0 1 .09-1.166c.015-.08.036-.158.064-.234.21-.116.428-.219.652-.308a17.065 17.065 0 0 1 2.162-.703 8.762 8.762 0 0 1 1.875-.31h.02a.61.61 0 0 1 .03.087c.033.132.05.267.047.403Zm-12.422 16.518a7.18 7.18 0 0 1-3.367-3.145 11.549 11.549 0 0 1-1.323-4.474 13.667 13.667 0 0 1-.066-1.363c.023-2.47.607-4.902 1.707-7.112a12.973 12.973 0 0 1 2.826-4.098 6.01 6.01 0 0 1 4.21-1.47c.148 0 .3.004.457.011a7.517 7.517 0 0 1 3.63 1.006c.62.39 1.166.887 1.613 1.468-.55.144-1.097.303-1.608.481-.41.145-.795.296-1.138.451a5.434 5.434 0 0 0-.93.515 2.245 2.245 0 0 0-.71.885c-.182.415-.3.855-.348 1.306a9.317 9.317 0 0 0-.066 1.031c-.82.317-1.718.672-2.311.939a7.746 7.746 0 0 0-3.553 3.411 9.936 9.936 0 0 0-1.2 4.715 7.906 7.906 0 0 0 1.115 4.183c.3.47.664.896 1.08 1.267l-.018-.007Zm5.805-5.029.13-1.07-.13 1.07Zm-.277-6.069.002.004a2.333 2.333 0 0 0-.84.657 4.02 4.02 0 0 0-.696 1.366c-.15.49-.228.999-.23 1.512a3.384 3.384 0 0 0 .355 1.592c.155.296.374.554.641.755.246.176.526.297.822.354-.098.083-.19.175-.272.273a3.337 3.337 0 0 0-.646 1.408 6.317 6.317 0 0 0-.141 1.372c.001.297.022.593.06.887a5.188 5.188 0 0 1-1.312-.151 3.495 3.495 0 0 1-2.126-1.566 5.328 5.328 0 0 1-.723-2.808 7.352 7.352 0 0 1 .882-3.467 5.155 5.155 0 0 1 2.34-2.289c.377-.17.992-.419 1.618-.665a1.223 1.223 0 0 0 .951.487 7.04 7.04 0 0 0-.685.279Zm.835 3.539a2.68 2.68 0 0 1 .197-.975c.034-.085.078-.165.13-.239l.005-.002.01-.005a9.792 9.792 0 0 1 3.91-.695c.423 0 .885.028 1.368.075.06.229.087.464.082.7a3.65 3.65 0 0 1-.187 1.183c-.02.056-.044.111-.072.164-.242.041-.488.07-.734.085-.44.032-.975.047-1.53.047a36.415 36.415 0 0 1-3.166-.137 1.49 1.49 0 0 1-.013-.201Zm5.31 6.596a3.92 3.92 0 0 1-.52.026c-.434 0-.97-.037-1.514-.043a15.664 15.664 0 0 1-1.848-.152 9.537 9.537 0 0 1-.633-.111 4.525 4.525 0 0 1-.036-.562 3.255 3.255 0 0 1 .131-.988l.005-.011c.076-.003.162-.006.265-.006.654-.001 1.727.074 2.72.178.5.051.982.109 1.39.167.095.013.184.027.27.04a6.574 6.574 0 0 1-.23 1.462Zm44.898 9.345-2.978-.262a1.278 1.278 0 0 0-.599.088c-.19.076-.359.196-.493.351-.035.04-.191.204-.396.41-.73.734-2.177 2.131-3.43 3.333a839.307 839.307 0 0 1-2.325 2.22 1.301 1.301 0 0 0-.403.991l.08 2.167a24.67 24.67 0 0 1-20.836-.059 24.664 24.664 0 0 1-13.356-15.992c.134-.012.267-.023.405-.048a2.6 2.6 0 0 0 1.216-.528c.166-.14.303-.311.405-.503.115-.217.208-.446.277-.682a8.887 8.887 0 0 0 .37-2.409 3.656 3.656 0 0 0-.143-1.089 1.962 1.962 0 0 0-.341-.652 1.616 1.616 0 0 0-.887-.56c-.113-.026-.246-.05-.379-.074a2.189 2.189 0 0 0 1.04-.743c.325-.436.554-.936.675-1.466a6.509 6.509 0 0 0 .192-1.575 4.859 4.859 0 0 0-.314-1.813 2.582 2.582 0 0 0-.57-.875 1.99 1.99 0 0 0-1.154-.563c-.177-.021-.344-.031-.516-.047.066-.213.141-.422.212-.632.161-.044.316-.087.457-.134.188-.059.37-.139.54-.238a3.392 3.392 0 0 0 1.316-1.605 4.941 4.941 0 0 0 .386-1.911 4.005 4.005 0 0 0-.216-1.315 24.62 24.62 0 0 1 19.838-11.497l.413 3.06a1.303 1.303 0 0 0 .954 1.082l.232.063c.53.145 1.898.526 3.348.986.724.23 1.47.479 2.134.726.556.197 1.1.427 1.628.688a1.295 1.295 0 0 0 1.27-.037l3.667-2.201c.228-.143.405-.356.505-.607a24.6 24.6 0 0 1 9.385 10.806c-.093-.018-.19-.039-.277-.053a2.106 2.106 0 0 0-1.604.41c-.44.354-.768.828-.942 1.366a4.684 4.684 0 0 0-.254 1.557c-.006.698.143 1.39.434 2.024.33.727.904 1.315 1.623 1.663.252.117.602.256 1.068.431l.509.187h-.006c-.313 0-.637.006-.972.018-.434.017-.85.178-1.184.456a2.688 2.688 0 0 0-.815 1.276 4.594 4.594 0 0 0-.201 1.383 4.952 4.952 0 0 0 .538 2.29c.202.39.477.739.81 1.026.373.319.819.539 1.298.641.247.053.597.136.993.229l.005.257a24.127 24.127 0 0 0-2.39.097c-.252.031-.493.12-.704.259a1.902 1.902 0 0 0-.642.739c-.155.318-.258.66-.306 1.011a6.334 6.334 0 0 0-.071.973c-.001.381.029.761.093 1.136.031.182.076.361.135.536.081.255.219.488.404.682.258.254.557.464.884.621.283.137.575.257.874.357a24.26 24.26 0 0 1-.909 1.574Zm2.274-20.297c.928.277 1.84.608 2.73.991.368.156.726.333 1.074.529.11.063.216.131.319.205l.019.016c.006.052.008.104.008.157a5.772 5.772 0 0 1-.249 1.397 38.39 38.39 0 0 1-2.078-.639c-.564-.19-1.098-.38-1.528-.541a14.719 14.719 0 0 1-.875-.351.818.818 0 0 1-.378-.421 2.185 2.185 0 0 1-.184-.912 2.098 2.098 0 0 1 .111-.703c.276.06.636.153 1.031.272Zm3.531 16.622c-.05.005-.101.011-.156.014-.3.024-.67.036-1.041.036-.47 0-.948-.02-1.296-.054a7.23 7.23 0 0 1-1.49-.324 4.534 4.534 0 0 1-.609-.246l-.048-.027c-.005-.03-.01-.053-.014-.088a4.466 4.466 0 0 1-.009-.985 37.85 37.85 0 0 1 3.827.023c.324.02.609.045.815.072.039.005.057.01.089.015.039.18.057.363.054.548a4.517 4.517 0 0 1-.122 1.016Zm.349-1.846.047-.12h-.001l.312-.785-.358.905Zm.957-4.518a17.498 17.498 0 0 1-2.288-.368c-1.014-.217-2-.468-2.647-.606l-.156-.079a1.155 1.155 0 0 1-.293-.484 2.624 2.624 0 0 1-.14-.852 2.11 2.11 0 0 1 .062-.524c.171-.003.347-.009.511-.009a18.998 18.998 0 0 1 3.686.334c.412.082.719.163.915.22l.036.011c.091.187.16.383.207.585.099.401.149.811.152 1.223a2.97 2.97 0 0 1-.045.549Zm3.877 6.561a3.526 3.526 0 0 1-2.511 1.587c-.192.027-.387.04-.581.039l-.059-.003.012-.016c.137-.198.247-.415.325-.643a6.772 6.772 0 0 0 .353-2.177 4.51 4.51 0 0 0-.235-1.524 2.647 2.647 0 0 0-.441-.788 2.16 2.16 0 0 0-.487-.422l.043.002.188-.003-.046-1.299.048 1.299a1.98 1.98 0 0 0 1.212-.474c.391-.355.664-.82.786-1.333a5.29 5.29 0 0 0 .161-1.355 7.935 7.935 0 0 0-.092-1.161 5.143 5.143 0 0 1 1.541 1.922c.45.964.681 2.016.678 3.079a5.932 5.932 0 0 1-.895 3.27Zm21.357-9.295a14.834 14.834 0 0 1-2.228 2.664 44.77 44.77 0 0 1-5.393 4.467 28.884 28.884 0 0 1-5.037 2.988 12.733 12.733 0 0 1-4.714 1.071 7.091 7.091 0 0 1-1.954-.272c.042-.059.089-.115.129-.175.011-.017.018-.037.029-.054a5.987 5.987 0 0 0-1.347-11.228 6.842 6.842 0 0 0-1.157-.905 9.289 9.289 0 0 1-.835-.601 26.99 26.99 0 0 1-.782-.642 16.6 16.6 0 0 1 3.62-3.049l-.711-1.089.711 1.088a44.034 44.034 0 0 1 7.209-3.876 18.573 18.573 0 0 1 6.811-1.59 7.84 7.84 0 0 1 3.024.547c.92.381 1.731.984 2.362 1.754a8.668 8.668 0 0 1 1.418 2.275c.268.65.407 1.346.409 2.049a9.111 9.111 0 0 1-1.564 4.578Zm-10.903-36.412c.087-.15.209-.278.356-.372a1.65 1.65 0 0 1 .671-.222l-.176-1.288.177 1.288c.294-.04.591-.06.889-.06a8.546 8.546 0 0 1 5.259 2.086 26.543 26.543 0 0 1 6.62 8.837 37.629 37.629 0 0 1 3.385 9.752 19.06 19.06 0 0 1 .285 3.235 13.21 13.21 0 0 1-1.635 6.678 9.41 9.41 0 0 1-.799 1.161 8.103 8.103 0 0 0-.564-2.283 10.429 10.429 0 0 0-1.216-2.169 5.625 5.625 0 0 0-6.019-4.932 5.639 5.639 0 0 0-2.679.922c-.357.019-.717.048-1.078.092-.781-3.548-1.503-7.925-1.903-10.85a6.53 6.53 0 0 0 1.691-2.139 7.168 7.168 0 0 0 .712-3.153 7.42 7.42 0 0 0-1.44-4.439 5.853 5.853 0 0 0-1.771-1.574 5.363 5.363 0 0 0-.856-.38 1.74 1.74 0 0 1 .091-.19Zm-16.007-3.215c.074-.07.14-.148.195-.233.728.058 1.443.119 2.124.186 2.043.2 3.858.436 5.307.698.724.13 1.357.267 1.872.405a7.12 7.12 0 0 1 1.145.39c.156.102.29.234.393.389a10.762 10.762 0 0 1 1.336 2.833 65.109 65.109 0 0 1 2.271 9.807c.612 3.621 1.152 7.761 1.611 12.149-.946.28-1.877.609-2.79.984a46.586 46.586 0 0 0-7.645 4.106 25.1 25.1 0 0 0-2.285 1.678c-.013-.081-.021-.16-.042-.243a2.302 2.302 0 0 0-.458-.926 3.33 3.33 0 0 0-.7-.608 10.394 10.394 0 0 0-1.485-.798 24.108 24.108 0 0 0-1.491-.605 27.262 27.262 0 0 0-15.237-16.064 27.266 27.266 0 0 0-22.135.539c.357-1.711.758-3.759 1.102-5.563.246-1.037.498-2.003.755-2.866.341-1.223.792-2.412 1.348-3.553.168-.337.37-.656.603-.952.09-.122.203-.226.331-.306.37-.163.753-.294 1.146-.391a57.02 57.02 0 0 1 8.752-1.246l.014-.001a18.06 18.06 0 0 0 11.828 4.326 20.81 20.81 0 0 0 7.169-1.3 15.758 15.758 0 0 0 4.966-2.835Zm41.368-36.61a35.08 35.08 0 0 1-16.266 20.741c-8.559 5.009-20.769 7.935-37.814 7.933-11.36.001-20.58-1.298-27.993-3.65-11.125-3.539-18.178-9.377-22.565-16.91-4.38-7.538-6.068-16.876-6.067-27.353A68.504 68.504 0 0 1 46 45.943c2.69-8.959 7.684-16.453 16.233-21.81 8.553-5.35 20.762-8.552 37.87-8.55 11.401-.001 20.635 1.421 28.051 3.955 11.126 3.812 18.17 10.06 22.547 17.959 4.369 7.901 6.029 17.535 6.027 28.013a64.916 64.916 0 0 1-2.546 19.24Zm11.104-20.85c.202 1.24.297 2.496.286 3.754a34.74 34.74 0 0 1-.239 3.975 28.912 28.912 0 0 1-1.466 6.446c-.258.73-.577 1.437-.952 2.114a4.14 4.14 0 0 1-.772 1.042 7.506 7.506 0 0 1-3.027 1.283 15.092 15.092 0 0 1-1.69.28 71.353 71.353 0 0 0 1.902-17.283c0-2.257-.082-4.48-.246-6.668.818.177 1.619.42 2.397.727a9.943 9.943 0 0 1 1.863.957c.509.322.946.748 1.282 1.248.341.665.565 1.383.662 2.124Zm-1.824-8.364a4.3 4.3 0 0 1-.845 1.175c-.138.13-.288.244-.449.342a18.842 18.842 0 0 0-.978-.34 16.337 16.337 0 0 0-1.799-.46 1.258 1.258 0 0 0-.34.008l.407-5c.809-9.93 2.487-30.414 2.947-35.173a3.31 3.31 0 0 1 .965-2.29 2.504 2.504 0 0 1 1.694-.579c.131 0 .262.008.392.022a2.424 2.424 0 0 1 1.558.683c.213.233.373.51.469.81.151.478.222.977.211 1.477 0 .16-.006.328-.017.507-.327 4.982-1.855 22.866-2.788 32.73-.096 2.1-.58 4.164-1.427 6.088Z"/><path fill="#191C22" d="M74.361 161.002c2.482-2.619 6.194-6.607 6.195-6.608a1.298 1.298 0 0 0 .339-1.047 60.241 60.241 0 0 0-1.41-7.052 1.3 1.3 0 0 0-1.373-.956c-.935.104-1.857.305-2.75.599a37.224 37.224 0 0 0-5.44 2.296 1.312 1.312 0 0 0-.574.608 24.965 24.965 0 0 0-1.903 8.02c-.022.336.088.667.305.923a12.648 12.648 0 0 0 3.246 2.537c.617.359 1.252.685 1.903.978a1.305 1.305 0 0 0 1.462-.298ZM99.127 150.664a1.302 1.302 0 0 0-1.64-.115c-.813.574-2.43 1.784-3.863 2.866a749.071 749.071 0 0 0-2.666 2.02 1.297 1.297 0 0 0-.47 1.361c0 .004.458 1.763.984 3.812a465.426 465.426 0 0 1 1.393 5.515 1.297 1.297 0 0 0 1.195.994c.013.001 2.307.124 4.66.124 1.179 0 2.366-.029 3.335-.129a1.299 1.299 0 0 0 1.109-.912c.002-.006.499-1.631 1.033-3.528.267-.949.543-1.966.772-2.889.206-.783.372-1.576.496-2.376a1.296 1.296 0 0 0-.394-1.11c-.001-.001-4.381-4.161-5.944-5.633ZM85.404 171.984a42.009 42.009 0 0 0-5.663-1.703 95.843 95.843 0 0 0-3.385-.756 1.299 1.299 0 0 0-1.37.605l-2.932 4.876a1.304 1.304 0 0 0 .064 1.437 11.153 11.153 0 0 0 2.028 2.023 34.617 34.617 0 0 0 5.199 3.301c.245.125.523.169.795.124 2.898-.467 6.351-1.24 6.364-1.242a1.303 1.303 0 0 0 .997-1.492c-.38-2.182-1.332-6.256-1.334-6.269a1.302 1.302 0 0 0-.763-.904ZM107.619 165.872h.001v-.001l-.001.001Z"/><path fill="#FFD93A" d="m88.397 70.786-1.162.71-2.314 1.412a.976.976 0 0 1-.486.297 4787.236 4787.236 0 0 0-7.2 4.408 6.596 6.596 0 0 0 4.629 1.871 6.859 6.859 0 0 0 4.308-1.488 11.068 11.068 0 0 0 3.434-5.35 20.19 20.19 0 0 0 .717-3.034l-1.926 1.174ZM90.282 64.663a1.292 1.292 0 0 0-.918-.384l-14.852-.045a1.3 1.3 0 0 0-1.304 1.303c0 1.671.167 3.337.497 4.975.875.045 1.79.098 2.71.156.777.05 1.554.102 2.3.154 2.298.162 4.301.323 5.14.393a5855.175 5855.175 0 0 1 6.748-4.115c.03-.504.055-1.009.057-1.516a1.292 1.292 0 0 0-.378-.921ZM78.575 72.817a338.299 338.299 0 0 0-4.332-.274c.252.795.567 1.569.944 2.313.22.42.465.826.735 1.215a3931.195 3931.195 0 0 1 5.027-3.08 429.36 429.36 0 0 0-2.374-.174ZM112.446 64.234a1.303 1.303 0 0 0-1.206.804 1.296 1.296 0 0 0-.098.5 20.954 20.954 0 0 0 1.979 9.318 9.442 9.442 0 0 0 2.671 3.294 6.608 6.608 0 0 0 2.924 1.248c.095-.871.192-1.745.29-2.595.234-2.025.476-3.91.717-5.277.086-.53.202-1.054.347-1.57l.083-.196c.255-.455.708-1.122 1.347-2.022.192-.271.406-.567.629-.874a239.41 239.41 0 0 1 1.742-2.362l.175-.233-11.6-.035ZM128.216 64.663a1.289 1.289 0 0 0-.919-.384l-.756-.002c-.698.926-1.352 1.801-1.938 2.594-.559.756-1.057 1.44-1.473 2.026-.569.798-.983 1.416-1.173 1.741-.181.73-.322 1.468-.423 2.212a117.345 117.345 0 0 0-.487 3.714l-.015.136c-.103.879-.205 1.79-.304 2.703a6.86 6.86 0 0 0 3.376-1.406 11.068 11.068 0 0 0 3.435-5.352 23.19 23.19 0 0 0 1.054-7.061 1.291 1.291 0 0 0-.377-.921ZM105.328 80.368a8.559 8.559 0 0 0-4.432-1.089 8.876 8.876 0 0 0-4.608 1.137 6.928 6.928 0 0 0-2.068 1.881 8.068 8.068 0 0 0-1.314 2.918 7.376 7.376 0 0 0-.204 1.453 1.3 1.3 0 0 0 2.599.047c.065-.9.336-1.772.794-2.549a4.367 4.367 0 0 1 1.59-1.556 6.359 6.359 0 0 1 3.211-.73 5.968 5.968 0 0 1 3.107.725c.483.285.901.667 1.228 1.122.415.595.705 1.267.853 1.977.087.384.135.775.143 1.168v.016h.001a1.297 1.297 0 0 0 1.272 1.325 1.297 1.297 0 0 0 1.326-1.272l.001-.069a8.566 8.566 0 0 0-1.053-3.986 6.724 6.724 0 0 0-2.446-2.518Z"/></svg>