<svg xmlns="http://www.w3.org/2000/svg" width="200" height="200" fill="none"><path fill="#BEBEC9" d="M92.535 119.595a31.725 31.725 0 0 0 2.778-5.018l-.004.008c1.085-2.152 2-4.386 2.735-6.681a1.298 1.298 0 0 0-.874-1.617 1.302 1.302 0 0 0-1.617.873 43.88 43.88 0 0 1-2.606 6.339l-.004.008a29.2 29.2 0 0 1-2.542 4.602 1.313 1.313 0 0 0-.213.972 1.299 1.299 0 0 0 2.347.515v-.001ZM165.003 136.634a1.3 1.3 0 0 0-1.774.483v-.001a45.447 45.447 0 0 1-18.844 17.959 53.57 53.57 0 0 1-24.677 5.647c-13.546-.003-24.856-4.282-33.274-11.346l-.004-.003a43.762 43.762 0 0 1-5.303-5.253 1.3 1.3 0 0 0-1.979 1.686c.79.928 1.618 1.823 2.482 2.687a58.667 58.667 0 0 0-1.336 7.512 8.777 8.777 0 0 0-2.942 1.357 11.907 11.907 0 0 0-3.542 4.261A21.15 21.15 0 0 0 72 166.738a33.32 33.32 0 0 0-.865 7.116 16.898 16.898 0 0 0 .791 5.403 9.358 9.358 0 0 0 3.086 4.493 13.475 13.475 0 0 0 8.161 2.659 12.444 12.444 0 0 0 4.513-.807 8.263 8.263 0 0 0 3.546-2.537 14.727 14.727 0 0 0 2.399-5.157c.51-1.869.776-3.797.79-5.735a13.52 13.52 0 0 0-.2-2.435 6.182 6.182 0 0 0-.705-2.031 7.986 7.986 0 0 0-.427-.646c.02-.073.033-.147.04-.222a15.03 15.03 0 0 0-1.164-6.055 7.937 7.937 0 0 0-3.16-3.527c.102-.917.215-1.802.346-2.628 8.298 5.494 18.66 8.696 30.558 8.693a57.974 57.974 0 0 0 20.701-3.654c-.045.589-.09 1.156-.133 1.698-.055.698-.108 1.346-.158 1.943a11.78 11.78 0 0 0-2.574.793l-.007.003a8.447 8.447 0 0 0-3.326 3.093 26.765 26.765 0 0 0-3.251 7.401 29.227 29.227 0 0 0-1.224 7.633c0 .093 0 .19.002.293v-.009a9.72 9.72 0 0 0 3.597 7.469 13.08 13.08 0 0 0 8.341 2.757H141.712a12.53 12.53 0 0 0 4.21-.669 9.328 9.328 0 0 0 4.928-4.074 17.96 17.96 0 0 0 2.214-8.041c.017-.227.025-.449.025-.668a7.545 7.545 0 0 0-.898-3.629c.004-.016.015-.028.018-.045h-.001c.098-.644.145-1.296.139-1.948a12.95 12.95 0 0 0-1.581-6.382 7.503 7.503 0 0 0-2.155-2.331c.202-2.376.484-5.896.735-9.741a47.949 47.949 0 0 0 16.14-16.806 1.298 1.298 0 0 0-.483-1.774Zm-73.882 40.591a12.244 12.244 0 0 1-1.934 4.233l-.002.003a5.694 5.694 0 0 1-2.448 1.72 9.883 9.883 0 0 1-3.565.628 10.902 10.902 0 0 1-6.568-2.114 6.762 6.762 0 0 1-2.217-3.275 14.366 14.366 0 0 1-.653-4.566c.032-2.205.301-4.4.802-6.548a16.733 16.733 0 0 1 2.365-5.789 8.27 8.27 0 0 1 1.96-2.039c.09-.063.184-.116.276-.175a19.822 19.822 0 0 0-2.46 5.444 1.25 1.25 0 0 0-.028.334c-.01.008-.024.014-.035.021l-.007.005a6.887 6.887 0 0 0-.724.555 1.303 1.303 0 0 0-.105 1.836 1.3 1.3 0 0 0 1.835.105 4.26 4.26 0 0 1 .452-.342 8.797 8.797 0 0 1 2.594-1.1 13.58 13.58 0 0 1 3.44-.442c1.209-.012 2.412.172 3.563.545a6.411 6.411 0 0 1 3.615 2.768l.004.006c.192.367.322.764.382 1.174.112.648.164 1.304.158 1.961a19.895 19.895 0 0 1-.7 5.052Zm-.774-12.589c-.431-.247-.88-.462-1.343-.644a88.614 88.614 0 0 0-.386-3.604c.404.442.737.945.987 1.489.38.879.63 1.808.742 2.759Zm-4.387-4.758.008.254c.145 1.103.258 2.143.355 3.149a15.057 15.057 0 0 0-2.225-.162 16.119 16.119 0 0 0-4.106.529c-.074.02-.144.045-.218.066a15.258 15.258 0 0 1 2.048-3.748c.092-.114.198-.215.316-.302a1.3 1.3 0 0 0 .497-.924c.208-2.754.605-5.49 1.188-8.19.312.275.621.552.94.819a47.56 47.56 0 0 0 2.036 1.607 60.062 60.062 0 0 0-.84 6.902Zm64.511 19.89a18.865 18.865 0 0 1-1 5.102 7.753 7.753 0 0 1-3.055 4.09 8.63 8.63 0 0 1-4.711 1.182h-.028a10.5 10.5 0 0 1-6.691-2.165 7.105 7.105 0 0 1-2.648-5.509v-.01l-.003-.226c.126-3.211.78-6.38 1.938-9.378a20.625 20.625 0 0 1 2.09-4.197 6.135 6.135 0 0 1 2.166-2.138c-.194.413-.38.835-.558 1.278l-.001.003a33.792 33.792 0 0 0-1.07 3.148 1.296 1.296 0 0 0-.034.416 6.975 6.975 0 0 0-.568.271 1.306 1.306 0 0 0-.665 1.285 1.315 1.315 0 0 0 .484.872 1.299 1.299 0 0 0 1.441.117c.15-.082.304-.155.462-.219a9.705 9.705 0 0 1 3.404-.529 13.246 13.246 0 0 1 5.687 1.226l.003.002a6.57 6.57 0 0 1 2.455 1.96 4.84 4.84 0 0 1 .92 2.941c0 .155-.006.314-.018.478Zm-.748-6.828a10.265 10.265 0 0 0-1.075-.67 62.615 62.615 0 0 0-.196-3.778c.018.03.041.058.059.088a10.005 10.005 0 0 1 1.212 4.36Zm-3.948-5.425.001.249c.056.559.172 1.849.238 3.436a16.886 16.886 0 0 0-4.59-.639c-.572.003-1.143.038-1.711.104.213-.663.436-1.309.672-1.902.322-.838.713-1.647 1.17-2.419.124-.199.287-.37.481-.502a1.303 1.303 0 0 0 .559-.961 515.264 515.264 0 0 0 .503-6.318c.838-.374 1.667-.76 2.474-1.175.363-.186.705-.399 1.062-.593a508.18 508.18 0 0 1-.859 10.72Z"/><path fill="#BEBEC9" d="m84.766 151.371-.002-.002-.002-.001.004.003ZM93.514 167.706v.002l.004.004-.004-.006ZM91.233 183.064l-.002.001v.002l.002-.003Z"/><path fill="#FFE632" d="M165.475 138.427a41.5 41.5 0 0 0 6.231-18.555c.01-.345-.117-.68-.354-.93a1.296 1.296 0 0 0-.907-.408c-.721.086-1.4.385-1.951.858-2.898 6.861-7.18 12.526-13.688 16.536-6.509 4.006-15.317 6.373-27.32 6.374-1.332 0-2.703-.029-4.113-.088a73.904 73.904 0 0 1-26.755-6.153 1.31 1.31 0 0 0-.998-.023 1.303 1.303 0 0 0-.04 2.407 76.495 76.495 0 0 0 27.684 6.366c1.446.061 2.853.091 4.222.091 12.334.001 21.659-2.437 28.683-6.76a35.244 35.244 0 0 0 11.82-12.044 42.52 42.52 0 0 1-4.741 10.988l-.007.012c-4.155 6.97-10.369 11.525-18.434 14.158a63.538 63.538 0 0 1-19.67 2.736 98.66 98.66 0 0 1-3.66-.069c-13.55-.482-24.97-4.078-33.597-9.842l-.014-.01a41.304 41.304 0 0 1-2.074-1.454 1.286 1.286 0 0 0-.966-.24 1.293 1.293 0 0 0-1.069.971 1.3 1.3 0 0 0 .489 1.359 43.79 43.79 0 0 0 2.19 1.536l.008.005.007.005v-.001c9.093 6.071 20.987 9.772 34.931 10.27 1.269.046 2.521.07 3.755.07a66.1 66.1 0 0 0 20.476-2.864c8.528-2.766 15.372-7.746 19.855-15.289l.002-.002.006-.01h-.001Z"/><path fill="#BEBEC9" d="M197.476 92.019a7.765 7.765 0 0 0 2.322-5.299 7.193 7.193 0 0 0-.508-2.608 7.462 7.462 0 0 0-3.733-4.047 13.027 13.027 0 0 0-5.821-1.185c-4.263.006-9.278 1.355-14.224 3.588a1.297 1.297 0 0 0-.765 1.227 1.304 1.304 0 0 0 1.343 1.258c.171-.006.339-.046.494-.116 4.689-2.128 9.443-3.363 13.152-3.357a10.49 10.49 0 0 1 4.658.91 4.843 4.843 0 0 1 2.472 2.66c.214.532.326 1.098.332 1.67a5.181 5.181 0 0 1-1.623 3.525c-1.646 1.778-4.592 3.464-8.192 4.813a62.357 62.357 0 0 1-10.915 2.888 45.49 45.49 0 0 0 .43-6.334c0-1.575-.083-3.147-.236-4.725a1.295 1.295 0 0 0-.915-1.118 1.297 1.297 0 0 0-1.622.865c-.05.163-.067.334-.05.504h-.001c.146 1.502.224 2.99.224 4.474a41.713 41.713 0 0 1-.678 7.67l-.001.003a34.963 34.963 0 0 1-1.33 5.084l-.001.003a31.013 31.013 0 0 1-1.222 2.995 59.533 59.533 0 0 0-4.769-3.614 1.3 1.3 0 1 0-1.449 2.16c4.481 3 8.569 7.049 12.732 10.477a39.522 39.522 0 0 0 6.417 4.455c.535.285 1.079.545 1.63.782l-1.31 5.794a29.313 29.313 0 0 1-4.247-1.979 66.494 66.494 0 0 1-11.31-8.719c-1.691-1.508-3.307-2.944-4.907-4.156a18.347 18.347 0 0 0-4.85-2.794 1.3 1.3 0 0 0-.861 2.453 19.865 19.865 0 0 1 5.656 3.621c.252.209.509.432.765.651a37.631 37.631 0 0 1-14.229 8.368 69.32 69.32 0 0 1-22.256 3.246 68.013 68.013 0 0 1-24.993-4.528 1.3 1.3 0 0 0-.477-.091h-.01a1.295 1.295 0 0 0-.467 2.506l-.001.003a70.593 70.593 0 0 0 25.948 4.71 71.884 71.884 0 0 0 23.093-3.385 40.114 40.114 0 0 0 15.355-9.111c2.386 2.124 4.993 4.502 7.932 6.666a31.98 31.98 0 0 0 14.603 6.406 1.302 1.302 0 0 0 1.463-1.111 1.302 1.302 0 0 0-1.108-1.465 23.648 23.648 0 0 1-2.61-.514l.41-1.809 2.687.717a1.312 1.312 0 0 0 .987-.131 1.29 1.29 0 0 0 .606-.79 1.293 1.293 0 0 0-.132-.987 1.286 1.286 0 0 0-.791-.605l-2.784-.742.31-1.368c.976.262 1.976.423 2.985.482a1.301 1.301 0 0 0 1.04-2.165 1.3 1.3 0 0 0-.897-.431 14.446 14.446 0 0 1-6.01-1.82 40.512 40.512 0 0 1-6.881-4.915 39.475 39.475 0 0 0 4.094 1.711 28.179 28.179 0 0 0 9.388 1.476c.923 0 1.897-.034 2.929-.107a1.302 1.302 0 0 0 .757-2.276 1.303 1.303 0 0 0-.94-.318c-.974.069-1.885.101-2.743.101l-.093-1.653 3.009-.188a1.29 1.29 0 0 0 1.157-.874 1.294 1.294 0 0 0-.372-1.402 1.31 1.31 0 0 0-.948-.319l-2.992.187-.091-1.63a14.729 14.729 0 0 0 2.809-.413 1.3 1.3 0 0 0-.623-2.524c-.946.237-1.918.357-2.893.358a17.096 17.096 0 0 1-7.298-1.946c-2.044-.958-4.169-2.169-6.47-3.336a56.837 56.837 0 0 0 14.886-4.549 19.545 19.545 0 0 0 5.574-3.913Zm-8.596 16.211.33 5.873a24.787 24.787 0 0 1-8.1-2.06c-1.384-.598-2.685-1.259-4.056-1.881a27.005 27.005 0 0 0-3.766-1.414 33.634 33.634 0 0 0 1.459-3.532c.289-.84.541-1.702.772-2.576 2.341 1.172 4.579 2.456 6.861 3.53a21.96 21.96 0 0 0 6.5 2.06Z"/><path fill="#BEBEC9" d="m174.748 105.214-.001.002v.001l.001-.003ZM159.678 34.356v-.001l.001-.003-.001.004Z"/><path fill="#BEBEC9" d="M175.25 61.838a43.799 43.799 0 0 0-13.7-18.856 48.82 48.82 0 0 0-2.406-1.822 13.364 13.364 0 0 1 1.919-1.976 5.388 5.388 0 0 0 2.815 1.593 5.422 5.422 0 0 0 6.421-4.199v-.001c.077-.367.115-.74.116-1.114a5.428 5.428 0 0 0-9.262-3.821 5.425 5.425 0 0 0-1.591 3.829c.006.488.078.973.215 1.44a15.267 15.267 0 0 0-2.801 2.803 61.595 61.595 0 0 0-20.671-8.184 66.593 66.593 0 0 0-13.631-1.467 55.38 55.38 0 0 0-7.91.558 10.115 10.115 0 0 0-.237-.845 9.435 9.435 0 0 0-2.224-3.622 5.417 5.417 0 0 0-9.935-4.1 5.417 5.417 0 0 0 8.58 6.473 6.903 6.903 0 0 1 1.113 2.072c.052.154.088.306.128.458A44.2 44.2 0 0 0 87.395 44.84a1.3 1.3 0 0 0 1.938 1.734 41.535 41.535 0 0 1 23.14-12.926 9.44 9.44 0 0 1-.053.753 5.694 5.694 0 0 1-.042.285l-.011.064-.003.01h.002a1.299 1.299 0 0 0 2.541.546c.124-.655.184-1.322.177-1.989 0-.035-.003-.077-.004-.114a53.213 53.213 0 0 1 7.594-.54 63.98 63.98 0 0 1 13.098 1.413 59.066 59.066 0 0 1 19.714 7.77c-.382.62-.597 1.033-.61 1.056a1.319 1.319 0 0 0-.085.992 1.307 1.307 0 0 0 1.128.903 1.305 1.305 0 0 0 1.266-.698l.002-.005c.023-.045.189-.353.464-.804a46.89 46.89 0 0 1 2.263 1.714 41.188 41.188 0 0 1 12.897 17.738 1.3 1.3 0 0 0 2.439-.903Zm-13.028-26.946.001-.004a2.825 2.825 0 1 1-.001.004Zm-55.152-7.334a2.828 2.828 0 1 1 2.505-1.512 2.797 2.797 0 0 1-2.505 1.512Z"/><path fill="#FFE632" d="M175.733 63.215c-.009-.027-.03-.045-.041-.071a1.263 1.263 0 0 0-.039-.287 22.183 22.183 0 0 0-6.916-10.25 18.164 18.164 0 0 0-10.469-3.961 16.528 16.528 0 0 0-.904-.026 17.694 17.694 0 0 0-7.334 1.676c-3.31 1.489-6.179 3.633-9.064 5.339-2.892 1.715-5.734 2.98-9.026 2.98a13.605 13.605 0 0 1-2.794-.296 13.431 13.431 0 0 1-6.232-2.908c-2.254-1.932-3.593-4.576-5.031-7.413-1.439-2.817-2.987-5.832-5.889-8.136a14.396 14.396 0 0 0-9.043-3.17c-5.227.004-10.743 2.7-15.545 8.002a1.299 1.299 0 0 0-.261.438 43.187 43.187 0 0 0-8.118 13.725 1.28 1.28 0 0 0-.079.445v.01a1.292 1.292 0 0 0 2.513.433l.008.003a40.564 40.564 0 0 1 7.863-13.176c.087-.104.156-.222.205-.348 4.39-4.751 9.174-6.935 13.414-6.932a11.78 11.78 0 0 1 7.428 2.608 15.502 15.502 0 0 1 3.733 4.553c1.524 2.612 2.705 5.644 4.734 8.367a15.276 15.276 0 0 0 3.855 3.68 16.901 16.901 0 0 0 5.913 2.364c1.093.231 2.208.35 3.326.351a17.198 17.198 0 0 0 7.208-1.678c3.264-1.49 6.117-3.63 9.021-5.334 2.91-1.713 5.805-2.982 9.195-2.983.249 0 .502.008.759.022a15.55 15.55 0 0 1 8.988 3.394 19.59 19.59 0 0 1 6.086 9.073c.008.024.027.039.036.062.002.088.012.177.032.263a40.338 40.338 0 0 1 2.037 12.711 42.367 42.367 0 0 1-.538 6.701v.004a47.264 47.264 0 0 1-.369 2.02c-.086.408-.181.818-.285 1.215l-.006.024a36.943 36.943 0 0 1-5.4 12.25l-.03.046a5.31 5.31 0 0 1-.253.374l-.028.037c-7.369 10.523-20.218 17.159-36.321 17.167a64.725 64.725 0 0 1-13.267-1.423 62.96 62.96 0 0 1-16.392-5.788l-.002-.001a57.408 57.408 0 0 1-2.405-1.34 1.3 1.3 0 1 0-1.316 2.242c.814.478 1.653.949 2.514 1.4l-.002-.001a65.497 65.497 0 0 0 17.069 6.032 67.321 67.321 0 0 0 13.801 1.479c16.793.008 30.525-6.973 38.423-18.239l.001.001.008-.013.019-.025-.001-.001c.124-.167.231-.327.328-.482l.001.001a39.561 39.561 0 0 0 5.775-13.085l.003-.013.003-.012c.113-.433.216-.876.309-1.317l.001-.008c.142-.702.275-1.41.39-2.135a45.03 45.03 0 0 0 .57-7.11 42.924 42.924 0 0 0-2.169-13.53Z"/><path fill="#BEBEC9" d="M90.2 68.369a17.641 17.641 0 0 0-5.9-7.999 1.3 1.3 0 1 0-1.582 2.064 15.04 15.04 0 0 1 5.038 6.822 1.3 1.3 0 0 0 2.444-.887ZM149.767 77.288a4.93 4.93 0 0 0-1.343-1.49 5.062 5.062 0 0 0-1.96-.853 5.284 5.284 0 0 0-1.088-.115 4.828 4.828 0 0 0-2.88.955 7.784 7.784 0 0 0-2.544 3.638 13.43 13.43 0 0 0-.799 4.599 10.319 10.319 0 0 0 .887 4.408c.304.657.734 1.25 1.264 1.744.555.51 1.236.864 1.973 1.025h.002c.254.055.512.083.772.083a4.472 4.472 0 0 0 2.837-1.128 10.331 10.331 0 0 0 2.745-4.004 13.606 13.606 0 0 0 1.05-5.055 7.472 7.472 0 0 0-.916-3.807Zm-3.134 9.097a6.476 6.476 0 0 1-1.404 1.767 1.915 1.915 0 0 1-1.178.53l-.225-.024a1.642 1.642 0 0 1-.774-.408 3.695 3.695 0 0 1-.936-1.627 8.774 8.774 0 0 1-.364-2.601 10.173 10.173 0 0 1 1.105-4.725 4.314 4.314 0 0 1 1.173-1.413c.387-.295.86-.455 1.346-.454.186 0 .372.02.555.06.347.066.676.206.965.41.401.307.703.725.868 1.203.225.64.333 1.314.32 1.992a11.31 11.31 0 0 1-1.451 5.29ZM110.948 67.937a4.614 4.614 0 0 0-2.004-.834 5.104 5.104 0 0 0-.846-.071 4.75 4.75 0 0 0-2.798.913 7.496 7.496 0 0 0-2.492 3.507 12.925 12.925 0 0 0-.787 4.485 10.545 10.545 0 0 0 .939 4.545 6.167 6.167 0 0 0 1.316 1.827 4.805 4.805 0 0 0 2.02 1.137h.001c.283.078.574.117.866.117a3.48 3.48 0 0 0 1.472-.337 5.51 5.51 0 0 0 1.955-1.642 12.06 12.06 0 0 0 1.882-3.745 14.8 14.8 0 0 0 .706-4.38 8.203 8.203 0 0 0-.891-3.973 4.803 4.803 0 0 0-1.339-1.549Zm-1.645 10.826a6.188 6.188 0 0 1-1.224 1.726c-.16.154-.343.282-.541.38a.885.885 0 0 1-.375.094l-.181-.025a2.187 2.187 0 0 1-.931-.529 4.19 4.19 0 0 1-1.041-1.788 8.84 8.84 0 0 1-.389-2.684 9.627 9.627 0 0 1 1.072-4.548 4.08 4.08 0 0 1 1.124-1.332 2.13 2.13 0 0 1 1.281-.425c.14 0 .279.012.416.035.321.047.626.171.889.361.403.324.699.76.85 1.254.23.703.34 1.439.325 2.178a12.402 12.402 0 0 1-1.275 5.303ZM115.882 89.577a9.785 9.785 0 0 0 3.966 4.287 9.997 9.997 0 0 0 4.917 1.249 10.977 10.977 0 0 0 3.969-.739 7.488 7.488 0 0 0 2.963-1.986 1.302 1.302 0 0 0-.141-1.833 1.301 1.301 0 0 0-1.833.141 4.974 4.974 0 0 1-1.938 1.258 8.39 8.39 0 0 1-3.02.559 7.4 7.4 0 0 1-3.641-.914 7.166 7.166 0 0 1-2.912-3.176 1.298 1.298 0 0 0-1.742-.588 1.296 1.296 0 0 0-.72 1.252c.011.17.056.337.132.49ZM15.779 122.47a26.13 26.13 0 0 0 1.327 5.493l.002.004a24.961 24.961 0 0 0 3.154 6.003 1.31 1.31 0 0 0 .845.525 1.295 1.295 0 0 0 1.316-.596 1.305 1.305 0 0 0-.048-1.444 22.34 22.34 0 0 1-2.825-5.379l.002.004a23.549 23.549 0 0 1-1.195-4.946 1.3 1.3 0 0 0-2.578.336Z"/><path fill="#BEBEC9" d="M25.042 135.499c-.9-.839-1.719-1.759-2.448-2.75a1.309 1.309 0 0 0-.854-.521 1.305 1.305 0 0 0-1.314.618 1.307 1.307 0 0 0 .078 1.45 22.424 22.424 0 0 0 2.77 3.109 1.297 1.297 0 0 0 1.427.229 1.299 1.299 0 0 0 .341-2.135ZM13.626 128.42l.004-.003h.001l-.005.003ZM18.278 134.398l.001-.001.001-.002-.002.003Z"/><path fill="#BEBEC9" d="M28.954 139.115c-.802.378-1.653.746-2.553 1.094a8.826 8.826 0 0 1-3.14.586 6.559 6.559 0 0 1-3.414-.859 2.759 2.759 0 0 1-.854-.789 1.335 1.335 0 0 1-.242-.754l.008-.136.002-.02c.037-.286.137-.561.291-.805a4.67 4.67 0 0 1 .944-1.084l.003-.002a21.507 21.507 0 0 1 2.273-1.744l-.724-1.08-.724-1.08a24.109 24.109 0 0 0-2.545 1.954 7.23 7.23 0 0 0-1.46 1.706 5.044 5.044 0 0 0-.305.609 5.006 5.006 0 0 1-2.379-1.055 2.95 2.95 0 0 1-1.158-2.215 2.504 2.504 0 0 1 .474-1.434l.004-.006a4.683 4.683 0 0 1 1.51-1.353l.005-.003a25.652 25.652 0 0 1 3.836-1.914l-.478-1.209.533-1.186a1.303 1.303 0 0 0-1.01-.023 28.178 28.178 0 0 0-4.221 2.104 8 8 0 0 0-1.465 1.119 4.414 4.414 0 0 1-1.73-3.247 2.414 2.414 0 0 1 .67-1.731 3.688 3.688 0 0 1 2.376-.972l-.002-.017a1.287 1.287 0 0 0 1.19-1.277l-1.311-1.3-.124.006a6.256 6.256 0 0 0-3.994 1.749 5.023 5.023 0 0 0-1.406 3.542 7.017 7.017 0 0 0 2.876 5.413 4.935 4.935 0 0 0-.333 1.739 5.548 5.548 0 0 0 2.084 4.205 7.634 7.634 0 0 0 3.81 1.655c.11.455.296.888.553 1.279a5.905 5.905 0 0 0 2.688 2.099 9.73 9.73 0 0 0 3.749.716 11.448 11.448 0 0 0 4.07-.758l.006-.002c.96-.372 1.868-.764 2.725-1.167a1.304 1.304 0 0 0 .746-1.162l-1.854-1.191Z"/><path fill="#BEBEC9" d="m28.692 141.337.037.019.2.1.58-1.164-.554-1.176.554 1.176.579-1.164-.2-.1-.58 1.164.617-1.145M48.57 35.117h-.002v.003l.001-.003ZM36.024 40.767v-.001l.001-.003v.004Z"/><path fill="#BEBEC9" d="M95.374 26.866a1.538 1.538 0 0 0-.25-.47 1.405 1.405 0 0 0-.693-.476 2.219 2.219 0 0 0-.648-.09 4.593 4.593 0 0 0-2.011.569 15.072 15.072 0 0 0-2.895 2 11.455 11.455 0 0 1-4.863 2.18 96.717 96.717 0 0 1-9.955 1.634 15.553 15.553 0 0 0-6.177 2.09A16.021 16.021 0 0 0 63.062 39c.277-1.037.54-2.02.773-2.915.433-1.664.765-3.016.917-3.982a15.56 15.56 0 0 0 .198-2.38 9.54 9.54 0 0 0-1.063-4.544 13.399 13.399 0 0 0-2.997-3.661l.002.002a8.23 8.23 0 0 1-2.269-3.42 7.372 7.372 0 0 1-.308-1.198 4.7 4.7 0 0 1-.042-.318l-.006-.069a1.3 1.3 0 0 0-2.596-.04 3.658 3.658 0 0 1-.363 1.472c-.16.305-.366.584-.61.828a13.131 13.131 0 0 1-1.81 1.457c-.795.566-1.777 1.232-2.92 2.09a7.157 7.157 0 0 0-1.655 1.73 1.23 1.23 0 0 0-.169.12c-.744.792-1.74 1.993-2.862 3.413a196.28 196.28 0 0 0-5.26 7.004 115.132 115.132 0 0 0-2.148 3.09c-.512.769-.898 1.38-1.164 1.87a4.115 4.115 0 0 0-.687 1.217l-.003.01a19.617 19.617 0 0 0-4.437-2.397 79.767 79.767 0 0 0-9.195-2.953c-1.476-.396-2.843-.74-3.973-1.028-1.126-.286-2.027-.52-2.512-.673a16.93 16.93 0 0 1-3.137-1.464c-.476-.268-.911-.52-1.324-.726a5.64 5.64 0 0 0-.628-.275 2.375 2.375 0 0 0-.796-.152 1.566 1.566 0 0 0-1.436.874 1.844 1.844 0 0 0-.18.824c.001.187.02.374.057.558 0 .006.006.01.007.017v.01l.01.05.003.012.005.022c.012.062.028.135.05.229l.004.019.002.006.002.008.012.049.03.11.003.01.001.003c.418 1.561 2.175 5.61 8.447 9.395 3 1.851 5.506 4.404 7.3 7.44a33.158 33.158 0 0 1 1.859 3.554c.48 1.051.827 1.914 1.16 2.573v.001l.006.011h.001c.175.344.377.674.606.985a1.3 1.3 0 0 0 2.101-1.532 4.413 4.413 0 0 1-.387-.624l-.006-.012c-.244-.474-.614-1.378-1.115-2.479a26.34 26.34 0 0 0-10.178-12.14c-.066-.04-.123-.08-.188-.12.834.263 1.605.495 2.248.713a41.76 41.76 0 0 1 7.967 3.844c3.11 1.919 6.144 4.44 7.677 7.174.025.032.052.063.08.092a38.66 38.66 0 0 0 1.539 4.482 1.3 1.3 0 0 0 2.405-.988 27.16 27.16 0 0 1-2.334-10.22c0-.711.052-1.421.154-2.125.036-.125.053-.255.049-.384.108-.65.273-1.288.493-1.908l.001-.004c.084-.23.22-.438.396-.608a5.386 5.386 0 0 1 1.728-1.03c1.175-.496 2.698-.926 4.168-1.59a10.035 10.035 0 0 0 2.126-1.263 6.114 6.114 0 0 0 1.677-2.028 9.444 9.444 0 0 0 .931-3.437c.149-1.64.047-3.11.248-4.293a4.78 4.78 0 0 1 .52-1.588 4.442 4.442 0 0 1 1.262-1.399c1.936-1.457 3.42-2.342 4.61-3.406.22-.206.43-.423.626-.652a10.862 10.862 0 0 0 2.379 3.102l.001.001c.98.828 1.806 1.824 2.44 2.94.53 1.03.793 2.178.765 3.336-.005.664-.06 1.326-.167 1.981-.117.758-.438 2.094-.864 3.727-1.281 4.926-3.512 12.623-4.31 18.395a1.3 1.3 0 0 0 1.112 1.466c.06 0 .122-.003.182-.012.052.062.11.118.173.168a1.3 1.3 0 0 0 1.796-.393 20.849 20.849 0 0 1 2.783-3.173 32.806 32.806 0 0 0 3.623-4.125 72.498 72.498 0 0 1 6.486-7.937 37.218 37.218 0 0 1 3.985-3.65 15.649 15.649 0 0 1 3.87-2.302c.03-.01.048-.034.075-.047a49.18 49.18 0 0 0 3.548-.718 14 14 0 0 0 5.913-2.716 14.957 14.957 0 0 1 1.858-1.37 18.283 18.283 0 0 1-4.903 5.958 136.816 136.816 0 0 0-10.033 9.831c-1.656 1.779-3.178 3.494-4.387 4.957a42.64 42.64 0 0 0-1.561 1.989 11.684 11.684 0 0 0-.998 1.56c-.26.525-.486 1.022-.683 1.488a1.3 1.3 0 0 0 2.396 1.01c.176-.418.38-.866.615-1.338.227-.415.485-.812.77-1.188a95.219 95.219 0 0 1 6.995-8.028c2.944-3.096 6.16-6.24 8.576-8.305a23.068 23.068 0 0 0 4.942-5.635c.41-.68.75-1.399 1.013-2.147.192-.523.3-1.073.318-1.629a2.113 2.113 0 0 0-.099-.673ZM29.78 43.308a44.24 44.24 0 0 0-8.507-4.098 53.978 53.978 0 0 1-6.216-2.197 10.35 10.35 0 0 1-2.586-1.668 5.912 5.912 0 0 1-.532-.57c.182.1.371.203.567.306.838.452 1.715.829 2.62 1.125.922.288 2.558.683 4.594 1.208a96.458 96.458 0 0 1 10.1 3.061 23.19 23.19 0 0 1 4.012 1.919c.428.262.824.572 1.18.924.124.125.233.262.327.41a17.59 17.59 0 0 0-.162 2.33c0 .459.023.941.056 1.435a32.299 32.299 0 0 0-5.453-4.185Zm16.469-9.363-.002.002a4.128 4.128 0 0 1-1.738 1.678c-.93.492-1.901.902-2.903 1.224a192.54 192.54 0 0 1 5.392-7.24 55.61 55.61 0 0 1-.011.424 8.852 8.852 0 0 1-.738 3.912Zm18.31 12.306a30.44 30.44 0 0 1-3.35 3.8c-.282.286-.564.57-.84.854 1.629-4.464 3.173-8.22 5.181-10.918a12.289 12.289 0 0 1 8.847-5.196l.413-.055A63.603 63.603 0 0 0 64.558 46.25ZM94.43 25.92h.003-.003ZM91.255 143.004l-.002.001-.002.003.004-.004Z"/><path fill="#BEBEC9" d="M123.419 137.355a37.95 37.95 0 0 1-6.902.615 48.212 48.212 0 0 1-12.901-1.853 46.932 46.932 0 0 1-3.876-1.271 32.966 32.966 0 0 1-.754-.298 16.399 16.399 0 0 0 1.314-5.586c.087-.051.171-.11.256-.163a36.866 36.866 0 0 0 20.073 6.359c.943.007 1.884-.053 2.818-.179a1.3 1.3 0 0 0-.37-2.574 17.58 17.58 0 0 1-2.448.153 34.335 34.335 0 0 1-18.011-5.514 7.308 7.308 0 0 0 1.091-1.565 5.44 5.44 0 0 0-.123-5.214 6.426 6.426 0 0 0-4.376-3.222 1.293 1.293 0 0 0-1.325.575 1.304 1.304 0 0 0 .024 1.444 1.288 1.288 0 0 0 .837.539 3.84 3.84 0 0 1 2.564 1.92 2.838 2.838 0 0 1 .07 2.802 5.072 5.072 0 0 1-.962 1.3 7.194 7.194 0 0 1-1.96 1.376l-.022.011-.146.073a4.557 4.557 0 0 1-1.82.406 2.385 2.385 0 0 1-1.256-.302l-.153-.098a1.303 1.303 0 0 0-1.796.39 1.3 1.3 0 0 0 .39 1.797l.169.109.018.012a4.96 4.96 0 0 0 2.627.692 6.69 6.69 0 0 0 1.13-.108 15.533 15.533 0 0 1-1.672 4.988 23.73 23.73 0 0 1-.923 1.581l-.007.011-.01.014a3.65 3.65 0 0 1-1.205 1.208c-.37.219-.792.334-1.223.333l-.216-.009h-.006l-.024-.002a2.759 2.759 0 0 1-.901-.227l-.003-.001a4.063 4.063 0 0 1-2.267-2.948 1.298 1.298 0 0 0-2.004-.812 1.294 1.294 0 0 0-.543 1.338 6.659 6.659 0 0 0 3.633 4.732c-.238.346-.507.67-.802.968l-.005.005a4.338 4.338 0 0 1-3.015 1.431c-.324 0-.647-.053-.955-.156-.014-.005-.027-.015-.042-.02a2.472 2.472 0 0 1-.682-.349l-.007-.005a3.179 3.179 0 0 1-.82-.866 4.115 4.115 0 0 1-.613-2.205v.002-.045l-.002-.106a5.08 5.08 0 0 1 .043-.625 1.299 1.299 0 1 0-2.58-.327 7.554 7.554 0 0 0-.063.952l.002.153v.021l.001.006v.015h.001c0 1.262.355 2.498 1.024 3.567l.007.01c.073.113.168.208.249.316-.206.124-.413.251-.607.352a3.382 3.382 0 0 1-1.294.383l-.121.004a1.865 1.865 0 0 1-1.203-.426c-.401-.341-.706-.78-.886-1.275l-.004.002a1.296 1.296 0 0 0-2.506.463v.01c0 .163.03.324.09.475a5.622 5.622 0 0 0 1.68 2.354c.8.647 1.8.999 2.829.997l.257-.007h.004a5.988 5.988 0 0 0 2.314-.653l.02-.01c.526-.279 1.032-.592 1.515-.938.137.064.275.123.418.174.04.021.08.041.122.058a5.62 5.62 0 0 0 1.81.299 6.927 6.927 0 0 0 4.846-2.186 11.494 11.494 0 0 0 1.737-2.316 5.034 5.034 0 0 0 2.095-.656 6.236 6.236 0 0 0 2.074-2.03l.02-.029.018-.027c.226-.358.419-.713.623-1.068a51.267 51.267 0 0 0 18.697 3.691 40.535 40.535 0 0 0 7.375-.658 1.295 1.295 0 0 0 .834-.542 1.3 1.3 0 0 0-1.307-2.015Z"/><path fill="#FFE632" d="M44.76 62.05c.132-.374.346-.713.626-.994a4.836 4.836 0 0 1 1.933-1.14 9.019 9.019 0 0 1 2.865-.438c1.37.004 2.73.254 4.012.738a1.3 1.3 0 0 0 .92-2.432 14.039 14.039 0 0 0-4.932-.905 10.856 10.856 0 0 0-4.794 1.027 6.828 6.828 0 0 0-1.87 1.34 5.285 5.285 0 0 0-1.217 1.954 1.298 1.298 0 0 0 1.306 1.725 1.302 1.302 0 0 0 1.151-.875ZM80.557 79.34h.005-.005Z"/><path fill="#FFE632" d="M100.51 108.485a10.542 10.542 0 0 0-1.8-3.408c.257-1.36.388-2.741.394-4.126a20.514 20.514 0 0 0-.82-5.78c.034-.045.066-.09.094-.138a20.08 20.08 0 0 0 1.656-7.941 22.024 22.024 0 0 0-1.438-7.671 25.471 25.471 0 0 0-8.092-10.861 1.25 1.25 0 0 0-.289-.143l-.016-.052a17.64 17.64 0 0 0-5.868-7.969l-.01-.008-.022-.018-.001.001a10.024 10.024 0 0 0-.736-.543v-.001l-.016-.011-.007-.006a27.782 27.782 0 0 0-2.605-1.603c-.022-.014-.039-.033-.062-.045a24.377 24.377 0 0 0-11.396-3.171c-.95-.01-1.898.087-2.827.288-.61.13-1.196.35-1.742.65a31.576 31.576 0 0 0-5.08-2.717 25.554 25.554 0 0 0-9.749-2.209 15.015 15.015 0 0 0-4.848.76 14.108 14.108 0 0 0-6.86 4.61 30.797 30.797 0 0 0-6.537-.695c-5.621.005-11.39 1.477-15.786 4.76a26.098 26.098 0 0 0-6.897 8.355 25.981 25.981 0 0 0-3.267 12.17 19.794 19.794 0 0 0 1.203 6.873c.092.23.248.428.45.57A17.199 17.199 0 0 0 4.99 92.24a22.239 22.239 0 0 0-1.777 4.866 23.426 23.426 0 0 0-.531 5.046 29.428 29.428 0 0 0 5.646 16.922 14.302 14.302 0 0 0 5.354 4.879 8.185 8.185 0 0 0 2.503.784 25.78 25.78 0 0 0 .922 3.227l.001.004a24.974 24.974 0 0 0 3.154 6.002l.044.057.181.245.017.023a22.426 22.426 0 0 0 2.752 3.091v.001l.011.01.008.008v-.001a24.503 24.503 0 0 0 5.418 3.933l.033.017.2.1a10.513 10.513 0 0 0 4.759 1.036c.08 0 .159-.008.239-.01a29.642 29.642 0 0 0 10.03 6.388 26.81 26.81 0 0 0 9.349 1.868 13.46 13.46 0 0 0 2.982-.298 5.647 5.647 0 0 0 1.876-.76c.118.048.224.102.344.15a14.225 14.225 0 0 0 13.529-1.352 23.395 23.395 0 0 0 5.635-5.229c.01-.012.013-.028.023-.041.277-.342.532-.685.76-1.013l.008-.011.006-.008a25.932 25.932 0 0 0 1.568-2.466 16.503 16.503 0 0 0 7.61-2.773 29.668 29.668 0 0 0 8.163-8.579 34.403 34.403 0 0 0 3.957-8.029 26.854 26.854 0 0 0 1.334-7.71 13.8 13.8 0 0 0-.587-4.132Zm-4.957-1.325a43.89 43.89 0 0 1-2.606 6.339l-.003.008a29.237 29.237 0 0 1-2.54 4.599 12.592 12.592 0 0 1-2.8 2.976 5.605 5.605 0 0 1-3.326 1.174 5.548 5.548 0 0 1-1.197-.146c-.845-.568-4.084-2.729-7.044-4.503-.013-.008-.028-.01-.041-.018a52.188 52.188 0 0 0-2.86-1.605 16.297 16.297 0 0 0-1.207-.563 7.09 7.09 0 0 0-.533-.196c.227-.875.39-1.765.49-2.664a37.6 37.6 0 0 0 .243-4.419 44.188 44.188 0 0 0-1.03-9.568l-.003-.023a19.442 19.442 0 0 0-3.292-7.671 12.803 12.803 0 0 0-2.582-2.416 16.72 16.72 0 0 1 12.458-6.613l.055-.004c.141-.013.264-.02.381-.02l.12.003.081.002.234-.002c.576 0 1.151.03 1.724.094l.005.001c.778.079 1.548.225 2.3.437l.034.009a15.929 15.929 0 0 1 5.276 2.477c.01.007.022.01.032.017a20.682 20.682 0 0 1 3.807 3.588l-.002-.002a19.134 19.134 0 0 1 4.778 12.5 21.891 21.891 0 0 1-.953 6.212v-.003Zm-44.48 17.962a3.85 3.85 0 0 1-1.852-.401 13.268 13.268 0 0 1-3.632-3.449 44.165 44.165 0 0 1-5.143-8.782 36.21 36.21 0 0 1-1.616-4.257 11.412 11.412 0 0 1-.57-2.966 2.232 2.232 0 0 1 .022-.34l.002-.008c.57-3.11 1.591-6.12 3.03-8.936a21.753 21.753 0 0 1 3.239-4.78 11.236 11.236 0 0 1 4.316-3.041l.004-.002a7.825 7.825 0 0 1 1.551-.33 20.403 20.403 0 0 1 2.616-.157 22.606 22.606 0 0 1 6.848 1.025 12.225 12.225 0 0 1 5.886 3.806 17.01 17.01 0 0 1 2.785 6.62l.002.018c.649 2.956.973 5.974.968 9a31.499 31.499 0 0 1-.388 5.236 10.818 10.818 0 0 1-.423 1.714c-.074.248-.19.482-.341.693-.12.119-.259.257-.416.407l-.13.106-.04.036a52.037 52.037 0 0 1-7.563 5.4 34.055 34.055 0 0 1-4.894 2.422 12.431 12.431 0 0 1-4.26.966Zm-15.07-22.086a19.586 19.586 0 0 0-8.098-1.842c-1.922-.02-3.83.323-5.624 1.01a23.11 23.11 0 0 1-3.78-3.763 17.73 17.73 0 0 1-4.132-11.04v-.093a27.859 27.859 0 0 1 5.334-15.818 20.3 20.3 0 0 1 5.786-5.414 13.231 13.231 0 0 1 10.016-1.707c.043.76.163 1.515.358 2.252a57.646 57.646 0 0 0 4.968 11.542 79.144 79.144 0 0 0 3.154 5.354c.499.768.973 1.455 1.413 2.043.287.382.553.704.813 1a14.912 14.912 0 0 0-3.571 2.882 27.234 27.234 0 0 0-4.921 8.17 36.258 36.258 0 0 0-1.715 5.424Zm60.154-22.713a19.418 19.418 0 0 1 1.277 6.769 17.097 17.097 0 0 1-.6 4.404 24.884 24.884 0 0 0-3.105-4.703l-.002-.003a23.411 23.411 0 0 0-3.978-3.799l-.253-.74a17.142 17.142 0 0 0 1.69-9.595 22.41 22.41 0 0 1 4.971 7.667ZM69.477 57.59c3.55.106 7.02 1.079 10.108 2.832.016.01.028.023.045.032.842.454 1.658.956 2.443 1.503l.024.016c.206.137.402.282.589.434l.032.026a15.04 15.04 0 0 1 5.038 6.822l.002.005a15.33 15.33 0 0 1 .94 5.287 14.508 14.508 0 0 1-1.645 6.774 18.22 18.22 0 0 0-3.758-1.459v-.001l-.016-.004-.017-.005v.001a16.22 16.22 0 0 0-2.703-.514 18.118 18.118 0 0 0-2.265-.108l-.178-.004c-.195 0-.38.012-.559.027v-.001l-.025.002-.03.002c-1.096.058-2.185.21-3.254.457a20.002 20.002 0 0 0-4.508 1.64c.509-2.415.753-4.878.729-7.345 0-3.465-.371-6.92-1.108-10.304a24.621 24.621 0 0 0-1.22-3.994 9.542 9.542 0 0 0-1.019-1.87l.109-.03a10.218 10.218 0 0 1 2.245-.221Zm-28.73-.03a11.861 11.861 0 0 1 5.32-3.336 12.423 12.423 0 0 1 4.011-.622 23.02 23.02 0 0 1 8.731 2.001 25.674 25.674 0 0 1 5.912 3.408 4.874 4.874 0 0 1 1.022 1.704 27.19 27.19 0 0 1 1.514 5.79c.403 2.481.608 4.99.612 7.504a25.546 25.546 0 0 1-1.43 9.283 1.216 1.216 0 0 0-.033.172 16.644 16.644 0 0 0-3.426 3.66c-.003.006-.003.013-.007.018-.739-.356-1.5-.662-2.28-.918a25.167 25.167 0 0 0-7.653-1.152 22.99 22.99 0 0 0-2.954.18c-.471.06-.938.146-1.4.257a1.271 1.271 0 0 0-.229-.34 12.312 12.312 0 0 1-1.15-1.402A74.454 74.454 0 0 1 41.4 73.582a55.937 55.937 0 0 1-2.398-5.602 22.243 22.243 0 0 1-.692-2.297 7.547 7.547 0 0 1-.232-1.631c-.004-.15.01-.299.043-.445l.001-.004c.178-.673.335-1.428.587-2.243a10.189 10.189 0 0 1 2.038-3.8ZM11.44 70.026a23.572 23.572 0 0 1 6.166-7.507c3.796-2.852 9.058-4.247 14.228-4.242a28.42 28.42 0 0 1 5.1.465c-.276.6-.513 1.219-.708 1.85-.134.434-.24.838-.333 1.208a15.714 15.714 0 0 0-11.74 2.045 24.918 24.918 0 0 0-8.983 10.048 30.479 30.479 0 0 0-3.351 12.166 1.258 1.258 0 0 0-.348-.024 5.265 5.265 0 0 0-1.997.734 17.24 17.24 0 0 1-.99-5.807 23.406 23.406 0 0 1 2.956-10.936Zm-.98 47.56a26.822 26.822 0 0 1-5.178-15.435 20.85 20.85 0 0 1 .47-4.483 20.193 20.193 0 0 1 2.38-5.74 10.883 10.883 0 0 1 1.882-2.35 3.496 3.496 0 0 1 1.797-.965l.003-.002a20.666 20.666 0 0 0 4.767 11.589 26.03 26.03 0 0 0 3.729 3.755 25.763 25.763 0 0 0-4.76 15.022c.004 1.002.065 2.004.181 3a6.627 6.627 0 0 1-.912-.363 11.729 11.729 0 0 1-4.359-4.028Zm19.459 21.456a21.93 21.93 0 0 1-4.857-3.526l-.02-.018c-.899-.839-1.718-1.76-2.448-2.75a8.502 8.502 0 0 0-.22-.294h.001a22.345 22.345 0 0 1-2.823-5.377 23.523 23.523 0 0 1-1.194-4.944v-.002a24.055 24.055 0 0 1-.208-3.154 23.06 23.06 0 0 1 4.81-14.242c1.567-.649 3.25-.97 4.946-.942 2.528.027 5.02.617 7.292 1.726.154.072.321.113.492.12.038.67.136 1.336.29 1.989a43.05 43.05 0 0 0 4.581 10.784 37.839 37.839 0 0 0 3.509 5.116 14.395 14.395 0 0 0 3.906 3.474c.157.085.32.149.483.218l-3.757 9.173a32.597 32.597 0 0 1-3.556 1.738 20.483 20.483 0 0 1-7.462 1.758 7.94 7.94 0 0 1-3.59-.759l-.175-.088Zm23.384 9.093a24.257 24.257 0 0 1-8.417-1.695 27.289 27.289 0 0 1-7.525-4.377 28.599 28.599 0 0 0 5.009-1.626 35.92 35.92 0 0 0 2.863-1.368 22.606 22.606 0 0 0 2.415 3.248 27.746 27.746 0 0 0 7.156 5.734c-.498.057-1 .085-1.501.084Zm17.33-1.85a11.635 11.635 0 0 1-11.16 1.129 25.925 25.925 0 0 1-9.878-6.82 20.406 20.406 0 0 1-2.083-2.778 13.834 13.834 0 0 1-.342-.588l3.892-9.504v-.004l.013.001a14.899 14.899 0 0 0 5.194-1.139 50.589 50.589 0 0 0 13.226-8.285l.16-.132.07-.061c.203-.193.373-.364.504-.494l.013-.014.009-.01c.06.028.12.051.184.069v-.001c.175.042.345.099.51.172a33.3 33.3 0 0 1 3.748 2.012c.011.006.024.009.035.015 1.664.997 3.442 2.135 4.802 3.023.684.446 1.262.83 1.67 1.101l.172.116c.03.299.044.599.042.9-.012.965-.09 1.929-.232 2.884a35.74 35.74 0 0 1-1.224 5.346 28.652 28.652 0 0 1-1.888 4.661l-.029.057c-.029.063-.083.161-.165.311l.004-.009c-.462.84-.974 1.65-1.535 2.427l-.013.019c-.216.31-.446.623-.688.918-.008.01-.01.023-.019.032a20.85 20.85 0 0 1-4.992 4.646Zm26.645-26.72a27.272 27.272 0 0 1-1.97 4.529 33.299 33.299 0 0 1-6.265 8.413 16.708 16.708 0 0 1-7.637 4.348 36.34 36.34 0 0 0 1.032-2.853l.002-.005a38.296 38.296 0 0 0 1.316-5.749v-.007a23.94 23.94 0 0 0 .258-3.248c0-.055-.006-.102-.006-.155.09.003.182.017.27.017a8.202 8.202 0 0 0 4.851-1.667 15.153 15.153 0 0 0 3.404-3.589l.003-.005a31.725 31.725 0 0 0 2.778-5.018l-.003.007a50.102 50.102 0 0 0 2.495-5.935c.08.201.158.403.223.611.325 1.089.483 2.221.47 3.357a24.381 24.381 0 0 1-1.221 6.949Z"/><path fill="#FFE632" d="m90.198 68.363.001.003.001.003-.002-.006ZM28.924 68.125a13.09 13.09 0 0 0-6.058 3.843 19.129 19.129 0 0 0-4.357 9.14 1.3 1.3 0 1 0 2.544.533 16.54 16.54 0 0 1 3.736-7.923 10.493 10.493 0 0 1 4.849-3.094 1.3 1.3 0 1 0-.714-2.5ZM72.37 62.907c.321-.054.647-.08.974-.08.963.004 1.913.23 2.777.657.678.32 1.284.775 1.779 1.34a1.3 1.3 0 1 0 2.012-1.648 8.01 8.01 0 0 0-2.646-2.027 8.932 8.932 0 0 0-3.922-.923c-.47 0-.94.039-1.402.116a1.3 1.3 0 1 0 .428 2.565ZM10.656 93.925a1.3 1.3 0 0 0-1.7.7c-.256.638-.478 1.29-.666 1.95a15.59 15.59 0 0 0-.667 4.16c-.01.725.088 1.447.29 2.144a1.298 1.298 0 0 0 1.622.865 1.3 1.3 0 0 0 .864-1.623 4.822 4.822 0 0 1-.176-1.386c.034-1.167.225-2.324.566-3.44a19.201 19.201 0 0 1 .524-1.564l.034-.084.009-.022a1.3 1.3 0 0 0-.7-1.7ZM29.662 106.1a8.053 8.053 0 0 0-1.58-.162 6.368 6.368 0 0 0-2.592.53 6.588 6.588 0 0 0-2.894 2.586 11.25 11.25 0 0 0-1.472 4.101 1.302 1.302 0 0 0 2.033 1.282c.281-.2.472-.502.53-.842a7.572 7.572 0 0 1 1.635-3.853c.34-.381.755-.687 1.22-.896a3.755 3.755 0 0 1 1.54-.308c.36.002.717.039 1.068.112a1.3 1.3 0 0 0 .512-2.55ZM58.212 93.668a1.3 1.3 0 0 0-.639-1.724 8.875 8.875 0 0 0-3.721-.819 9.989 9.989 0 0 0-6.115 2.2 13.125 13.125 0 0 0-4.176 5.85 1.3 1.3 0 0 0 2.44.901H46a10.534 10.534 0 0 1 3.334-4.7 7.394 7.394 0 0 1 4.518-1.65c.91 0 1.81.198 2.636.58a1.3 1.3 0 0 0 1.724-.638ZM59.176 128.345a13.12 13.12 0 0 0-2.945.977 10.55 10.55 0 0 0-2.42 1.532 7.256 7.256 0 0 0-1.975 2.634 1.3 1.3 0 1 0 2.39 1.024c.291-.653.73-1.23 1.281-1.687a8.86 8.86 0 0 1 2.719-1.516 11.024 11.024 0 0 1 1.329-.388l.069-.014.013-.003a1.3 1.3 0 0 0-.46-2.559ZM81.213 85.768A8.249 8.249 0 0 0 77 84.558a6.867 6.867 0 0 0-2.843.607 7.86 7.86 0 0 0-2.742 2.117 1.3 1.3 0 0 0 1.98 1.686 5.256 5.256 0 0 1 1.832-1.434 4.26 4.26 0 0 1 1.773-.375 5.687 5.687 0 0 1 2.849.823 1.3 1.3 0 0 0 1.363-2.214Z"/></svg>