<svg width="200" height="200" viewBox="0 0 200 200" xmlns="http://www.w3.org/2000/svg"><g id="type=love, mode=light"><g id="Group 432527076"><path id="Vector" d="M160.122 101.087C160.462 101.39 160.936 101.493 161.372 101.358C166.294 99.8284 169.867 97.7722 172.258 95.4559C174.642 93.1464 175.851 90.5316 175.851 88.0123C175.851 87.1506 175.708 86.3079 175.434 85.5125C174.927 84.0451 174.046 82.826 172.92 81.9755C171.796 81.1243 170.425 80.6456 168.992 80.6468C167.819 80.6459 166.613 80.9673 165.484 81.619C164.92 81.9444 164.375 82.3507 163.858 82.8377C162.556 80.5812 160.258 79.2306 157.845 79.2366C156.227 79.2328 154.569 79.846 153.229 81.0955C152.573 81.704 152.071 82.4606 151.744 83.3045C151.417 84.149 151.26 85.0781 151.26 86.0591C151.263 88.2129 151.999 90.6233 153.457 93.1722C154.919 95.7204 157.116 98.4093 160.122 101.087Z"/><path id="Vector_2" d="M106.579 89.6135C105.629 84.428 100.623 84.5578 88.5862 87.0881C78.4857 89.2121 75.344 90.841 75.1898 95.4895C75.159 96.4195 75.4432 98.0758 76.0118 100.098C93.0674 92.3805 97.3924 109.372 97.5394 119.292C97.5394 119.295 97.5386 119.298 97.5389 119.301C108.162 114.598 107.373 93.938 106.579 89.6135Z"/><path id="Vector_3" d="M58.1877 78.7C56.7295 79.5914 55.3686 80.7493 54.2439 82.1983C53.1186 83.6448 52.2399 85.3831 51.7385 87.355C51.3286 88.9605 52.2981 90.5941 53.9035 91.0039C55.509 91.4136 57.1425 90.4443 57.5525 88.8388L57.5522 88.8387C57.8557 87.6562 58.3476 86.6995 58.9834 85.8776C59.9343 84.651 61.2473 83.7182 62.7548 83.0875C64.2558 82.4569 65.9375 82.1508 67.4433 82.1533C68.2873 82.1527 69.0737 82.2479 69.726 82.4081C70.3794 82.566 70.8938 82.7931 71.2055 82.997C72.5974 83.8958 74.4543 83.4961 75.353 82.1042C76.2519 80.7123 75.8523 78.8554 74.4604 77.9566C73.4455 77.3039 72.3288 76.8693 71.1506 76.5797C69.9719 76.2921 68.7265 76.1539 67.4433 76.1533C64.4016 76.1601 61.1145 76.9205 58.1877 78.7Z"/><path id="Vector_4" d="M112.163 67.3667C109.539 67.3701 107.03 67.9498 104.847 68.91C103.755 69.3925 102.743 69.9728 101.837 70.654C100.931 71.3366 100.126 72.1184 99.478 73.0444C98.5295 74.403 98.8618 76.2733 100.22 77.2217C101.579 78.1702 103.449 77.8377 104.398 76.4791C104.596 76.1921 104.95 75.8182 105.443 75.4492C106.18 74.8921 107.218 74.3502 108.393 73.9714C109.568 73.5894 110.877 73.3656 112.163 73.3666C113.539 73.3664 114.879 73.6182 116.071 74.1512C117.264 74.689 118.325 75.4871 119.246 76.7236C120.233 78.0548 122.112 78.3344 123.443 77.348C124.774 76.3615 125.053 74.4827 124.067 73.1515L124.067 73.1514C122.538 71.0814 120.59 69.594 118.518 68.673C116.443 67.7472 114.262 67.3669 112.163 67.3667Z"/><path id="Vector_5" d="M96.4773 51.7975C98.6404 50.916 101.623 50.3255 104.783 50.3281C107.364 50.3275 110.066 50.7168 112.567 51.6127C115.071 52.5093 117.37 53.9033 119.216 55.9189C119.7 56.4485 120.522 56.4849 121.052 56.0002C121.582 55.5155 121.618 54.6932 121.134 54.1636L121.133 54.1635C118.961 51.79 116.275 50.1774 113.443 49.1647C110.609 48.1512 107.623 47.7286 104.783 47.728C101.303 47.7306 98.0439 48.3578 95.4988 49.3885C94.8335 49.6587 94.5132 50.417 94.7834 51.0823C95.0537 51.7475 95.812 52.0678 96.4773 51.7975Z"/><path id="Vector_6" d="M47.4052 70.4611C48.0788 70.7095 48.8263 70.3648 49.0749 69.6912L49.0746 69.6912C50.5934 65.5637 53.8439 62.4576 57.578 60.3755C61.2987 58.2938 65.4867 57.2786 68.5661 57.2777C69.2838 57.2761 69.8646 56.6928 69.8629 55.9748C69.8615 55.2568 69.278 54.6761 68.5602 54.6777C64.9489 54.6924 60.4425 55.8086 56.3117 58.1046C52.1942 60.4001 48.4359 63.9181 46.6354 68.7916C46.3869 69.4652 46.7316 70.2127 47.4052 70.4611Z"/><path id="Vector_7" d="M32.8718 92.0223C33.009 92.0933 33.1382 92.1545 33.271 92.2202L27.0867 94.3292C26.7002 94.461 26.397 94.7684 26.2703 95.1566C26.1438 95.5447 26.2073 95.9717 26.4419 96.306C26.4959 96.3818 27.5352 97.8522 29.6277 99.4906C31.6712 101.091 34.7446 102.845 38.843 103.552C39.3457 104.857 40.9192 108.152 44.9087 111.419C49.1059 114.862 55.9539 118.202 66.8208 119.199C64.023 120.4 61.6272 121.951 59.5991 123.729C58.0154 123.608 56.8784 123.268 56.0613 122.861C54.8306 122.241 54.2808 121.482 53.9788 120.875C53.8311 120.571 53.7544 120.305 53.7163 120.128L53.6834 119.938L53.6802 119.907L53.6768 119.907C53.6382 119.239 53.105 118.708 52.4338 118.682C52.4172 118.681 52.354 118.679 52.2476 118.679C51.4009 118.68 47.7204 118.805 43.0986 120.897C38.4785 122.984 32.935 127.068 28.4785 134.836C28.1618 135.387 28.2908 136.087 28.7827 136.49C29.2749 136.892 29.9866 136.88 30.4641 136.46L30.4646 136.459C30.5188 136.412 31.3689 135.691 32.6731 135.003C33.9785 134.311 35.7258 133.666 37.5645 133.669C38.6113 133.671 39.6912 133.869 40.8013 134.384C41.9102 134.901 43.0591 135.742 44.2119 137.081C44.4602 137.37 44.824 137.536 45.2048 137.533C45.5857 137.531 45.9475 137.362 46.1926 137.07C47.1633 135.918 48.2273 135.209 49.2693 134.774C50.1443 134.408 51.0005 134.249 51.7512 134.205C51.1336 135.429 50.582 136.637 50.0955 137.795C48.6392 141.267 47.2861 145.397 46.2883 149.406C45.2927 153.419 44.6472 157.289 44.644 160.325C44.6452 161.503 44.7392 162.559 44.9836 163.493C45.0989 163.923 45.3018 164.28 45.5396 164.61C45.9895 165.223 46.5857 165.762 47.2996 166.315C48.5471 167.275 50.1668 168.246 51.9192 169.192C56.4214 171.62 61.7861 173.851 63.2363 174.444C62.7634 182.394 62.4368 188.436 62.4365 188.439C62.3977 189.156 62.9475 189.768 63.6646 189.807C64.3816 189.846 64.9944 189.296 65.0332 188.579C65.033 188.577 65.0674 187.942 65.1301 186.808C65.3496 182.839 65.916 172.789 66.5642 162.747C66.8882 157.726 67.2327 152.707 67.5642 148.454C67.895 144.204 68.2156 140.705 68.4815 138.789C68.5796 138.077 68.083 137.421 67.3718 137.323C66.6607 137.224 66.0044 137.721 65.9063 138.432L65.906 138.432C65.6699 140.142 65.4072 142.891 65.1323 146.25C65.064 146.327 64.9868 146.394 64.9368 146.489L60.5264 154.85C60.2605 155.353 60.353 155.969 60.7547 156.373L63.8591 159.493C63.9473 159.582 64.0542 159.635 64.1585 159.693C63.8906 163.735 63.6326 167.868 63.4009 171.699C61.5628 170.932 57.8791 169.346 54.4778 167.6C52.6196 166.648 50.8454 165.644 49.5378 164.732C48.885 164.278 48.3498 163.844 47.9944 163.485C47.8166 163.306 47.6848 163.146 47.6042 163.026C47.5224 162.907 47.4973 162.831 47.4978 162.831C47.3352 162.221 47.2427 161.355 47.2439 160.325C47.2407 157.654 47.8447 153.909 48.8113 150.034C49.7759 146.155 51.0979 142.125 52.4931 138.801C54.1604 134.823 56.4814 130.406 60.1035 126.802C63.7322 123.2 68.6298 120.37 75.6994 119.512C75.7407 119.507 75.7734 119.484 75.8132 119.475C78.852 119.409 81.8256 119.248 84.7875 118.952C85.0317 119.158 85.2656 119.381 85.5173 119.573C87.7744 121.289 90.387 122.423 93.2595 122.423C94.0381 122.423 94.8316 122.339 95.6336 122.166C98.3513 121.584 100.556 120.122 102.244 118.189C103.091 117.219 103.809 116.129 104.436 114.968C106.314 114.396 108.25 113.741 110.226 113.037C110.318 113.039 110.407 113.058 110.501 113.04L110.501 113.04C111.043 112.938 111.604 112.89 112.18 112.89C114.258 112.886 116.531 113.534 118.623 114.446C120.716 115.355 122.626 116.514 124.018 117.459C126.253 118.975 128.581 120.825 130.653 122.513C132.613 124.108 134.313 125.531 135.595 126.461C135.881 126.964 136.461 127.245 137.046 127.087L145.7 124.738C145.655 125.081 145.621 125.492 145.621 125.973C145.621 126.559 145.67 127.241 145.807 128C145.934 128.707 146.609 129.177 147.316 129.05C148.023 128.923 148.493 128.247 148.366 127.541L148.366 127.541C148.258 126.939 148.22 126.412 148.22 125.973C148.22 125.448 148.273 125.045 148.321 124.786C148.345 124.656 148.368 124.563 148.383 124.509L148.398 124.458L148.399 124.455L148.397 124.455C148.528 124.064 148.466 123.632 148.229 123.294L148.23 123.293C148.211 123.275 147.577 122.298 147.586 120.995C147.586 120.722 147.612 120.435 147.673 120.132C147.83 119.354 148.135 118.823 148.469 118.505C148.808 118.189 149.166 118.038 149.669 118.031C149.715 118.031 149.769 118.041 149.817 118.044C150.078 118.577 150.923 120.354 151.43 121.805C151.667 122.483 152.409 122.839 153.086 122.602C153.764 122.365 154.121 121.623 153.884 120.945C153.349 119.425 152.567 117.759 152.229 117.058C152.55 116.338 152.901 115.817 153.21 115.518C153.578 115.166 153.821 115.104 153.994 115.101C154.161 115.104 154.393 115.16 154.751 115.488C154.985 115.692 155.356 116.293 155.643 117.018C155.938 117.742 156.186 118.585 156.367 119.313C156.54 120.01 157.245 120.434 157.942 120.261C158.639 120.088 159.063 119.382 158.89 118.685C158.688 117.878 158.416 116.935 158.05 116.036C157.699 115.193 157.287 114.388 156.648 113.725C156.621 113.672 156.612 113.614 156.577 113.564L156.577 113.564C156.208 113.044 155.788 112.336 155.477 111.591C155.163 110.847 154.965 110.066 154.968 109.426C154.97 108.938 155.068 108.545 155.274 108.206C155.369 108.052 155.494 107.901 155.657 107.753C155.707 107.811 155.751 107.861 155.805 107.923C156.602 108.84 157.811 110.243 158.865 111.517C159.391 112.154 159.879 112.759 160.251 113.245C160.437 113.488 160.594 113.701 160.707 113.866L160.841 114.069L160.876 114.128L160.883 114.142C160.896 114.165 160.968 114.355 161.039 114.606C161.302 115.509 161.659 117.261 161.95 118.947C162.239 120.61 162.473 122.267 162.527 123.02C162.525 123.041 162.482 123.186 162.356 123.394C162.133 123.774 161.677 124.326 161.078 124.924C159.323 126.686 156.395 128.869 154.073 130.544C151.208 131.913 147.283 134.19 143.539 136.155C141.614 137.166 139.745 138.089 138.143 138.746C137.343 139.074 136.61 139.336 135.984 139.508C135.36 139.683 134.84 139.763 134.508 139.761L134.308 139.751C133.851 139.702 132.883 139.492 131.784 139.207C130.122 138.779 128.096 138.184 126.493 137.698C125.691 137.456 124.994 137.239 124.498 137.084C124.422 137.061 124.361 137.041 124.295 137.021C123.921 135.073 123.523 133.167 123.086 131.345C122.918 130.647 122.216 130.217 121.518 130.385C120.82 130.552 120.39 131.254 120.558 131.952L120.558 131.952C124.597 148.743 125.839 172.177 125.858 188.185C125.858 188.902 126.441 189.484 127.159 189.483C127.877 189.482 128.458 188.899 128.458 188.181C128.436 174.581 127.557 155.772 124.819 139.906C125.579 140.139 126.498 140.418 127.476 140.705C128.691 141.062 129.983 141.428 131.135 141.724C132.294 142.021 133.28 142.249 134.018 142.335C134.182 142.353 134.345 142.361 134.508 142.361C135.2 142.359 135.911 142.225 136.678 142.014C139.338 141.27 142.769 139.523 146.222 137.673C149.528 135.896 152.815 134.027 155.16 132.905C155.236 132.87 155.317 132.853 155.387 132.802C155.397 132.795 155.408 132.787 155.417 132.78C155.426 132.776 155.436 132.771 155.444 132.767C155.608 132.691 155.747 132.584 155.86 132.458C157.643 131.167 159.734 129.616 161.478 128.096C162.428 127.267 163.272 126.455 163.921 125.663C164.246 125.265 164.524 124.872 164.741 124.453C164.954 124.034 165.124 123.581 165.129 123.03L165.124 122.878L165.123 122.869C165.084 122.322 164.988 121.556 164.857 120.659C164.661 119.317 164.384 117.706 164.101 116.301C163.959 115.598 163.815 114.948 163.676 114.4C163.615 114.161 163.555 113.949 163.494 113.748L166.171 107.125C166.414 106.525 166.179 105.84 165.62 105.514C164.948 105.135 164.2 104.995 163.368 104.987C162.348 104.989 161.202 105.237 160.157 105.907C159.616 106.25 159.12 106.726 158.713 107.312C157.684 106.114 156.88 105.203 156.878 105.2C156.496 104.767 155.876 104.637 155.353 104.881C154.334 105.353 153.546 106.038 153.052 106.855C152.555 107.669 152.366 108.573 152.368 109.426C152.371 110.561 152.679 111.635 153.079 112.596C153.086 112.612 153.093 112.626 153.1 112.642C152.462 112.825 151.876 113.181 151.393 113.659C150.897 114.146 150.476 114.755 150.108 115.468C149.962 115.454 149.814 115.432 149.669 115.432C148.538 115.425 147.458 115.863 146.67 116.627C145.876 117.389 145.363 118.43 145.124 119.618C145.027 120.098 144.987 120.561 144.987 120.995C144.987 121.433 145.036 121.832 145.102 122.206L137.133 124.369C136.188 123.685 134.841 122.58 133.286 121.307C133.359 120.302 133.642 119.581 134.061 119.003C134.724 118.091 135.831 117.473 137.14 117.101C138.44 116.729 139.89 116.619 141.043 116.621C141.689 116.621 142.243 116.653 142.63 116.686C142.823 116.702 142.975 116.718 143.075 116.73L143.187 116.743L143.215 116.747C143.759 116.825 144.295 116.55 144.55 116.063C144.805 115.576 144.726 114.979 144.352 114.576C141.654 111.67 138.245 110.122 135.2 109.289C132.149 108.456 129.434 108.33 128.009 108.329C127.363 108.329 126.982 108.356 126.955 108.358C126.354 108.401 125.863 108.853 125.767 109.448L125.766 109.447L125.765 109.452H125.765C125.759 109.508 125.57 110.46 125.054 111.278C124.796 111.694 124.467 112.069 124.068 112.33C123.666 112.59 123.197 112.764 122.506 112.768C122.018 112.768 121.414 112.672 120.674 112.41C120.543 112.364 120.41 112.357 120.278 112.353C120.07 112.257 119.872 112.154 119.659 112.062C118.507 111.562 117.286 111.12 116.027 110.802C126.152 106.499 132.342 101.628 136.058 97.079C140.255 91.9415 141.265 87.2477 141.262 84.4188C141.262 84.0527 141.244 83.722 141.215 83.4166C144.697 81.22 146.859 78.4577 148.137 76.2199C149.455 73.9118 149.861 72.1576 149.882 72.067C149.973 71.6688 149.87 71.2493 149.606 70.9379C149.342 70.6265 148.945 70.4566 148.538 70.4808L142.012 70.8672C142.35 70.4854 142.697 70.0763 143.05 69.6196C143.95 68.452 144.858 67.0478 145.551 65.4452C146.244 63.8439 146.72 62.0367 146.721 60.0924C146.721 58.9348 146.55 57.7316 146.162 56.5146C146.04 56.1342 145.751 55.8301 145.376 55.6909C145.002 55.5517 144.584 55.5923 144.244 55.801L134.584 61.7228C133.879 49.8154 130.936 39.5878 124.601 32.2323C121.365 28.4774 117.247 25.5023 112.185 23.4884C107.121 21.4724 101.123 20.4094 94.0861 20.4094C89.1054 20.4096 83.5952 20.9487 77.5205 22.0566C77.3984 21.0385 77.3215 20.0258 77.3225 19.0546C77.3217 17.6268 77.4768 16.2923 77.82 15.1685C78.164 14.041 78.6818 13.1383 79.4033 12.4686C79.7856 12.1136 79.9187 11.5692 79.7429 11.0779C79.5673 10.5867 79.1191 10.2499 78.5983 10.2181C78.5747 10.2167 78.447 10.2095 78.2351 10.2095C77.333 10.2142 74.8769 10.3238 72.3359 11.6526C71.069 12.3179 69.7854 13.3022 68.7324 14.7228C67.9067 15.8336 67.2392 17.2154 66.8049 18.8716L63.9602 18.0316C63.6176 17.9305 63.2541 17.9733 62.9445 18.1512C62.6347 18.3292 62.4145 18.6216 62.3295 18.9686C62.3132 19.0389 61.9367 20.5831 61.9357 22.8159C61.936 23.7697 62.009 24.8516 62.2099 25.9962C54.1328 28.819 47.8969 32.4703 43.3114 36.8908C39.8669 40.2129 37.3656 43.9676 35.7406 48.0688C34.1137 52.17 33.3615 56.6093 33.362 61.3082C33.363 67.4491 34.6537 74.0414 36.9477 80.9871L25.51 79.1166C25.1157 79.0521 24.7138 79.1725 24.4199 79.4428C24.1262 79.7132 23.9724 80.1039 24.0041 80.5021C24.1967 82.962 25.1259 85.0508 26.372 86.7365C28.2459 89.2698 30.7976 90.9464 32.8718 92.0223ZM63.272 155.217L64.6465 152.611C64.5591 153.824 64.4717 155.067 64.3848 156.335L63.272 155.217ZM161.566 108.092C162.04 107.782 162.635 107.628 163.175 107.599L161.798 111.005C161.41 110.518 160.976 109.989 160.525 109.448C160.761 108.796 161.12 108.389 161.566 108.092ZM103.579 110.45C102.772 112.792 101.684 114.887 100.289 116.475C98.8885 118.065 97.2163 119.16 95.0855 119.625C94.4597 119.76 93.8533 119.823 93.2595 119.823C90.7796 119.823 88.4456 118.714 86.2666 116.834C83.0056 114.026 80.2529 109.522 78.3777 105.313C77.4373 103.21 76.709 101.181 76.2217 99.4871C75.9783 98.6408 75.7949 97.8782 75.6751 97.2405C75.5547 96.6052 75.5007 96.0869 75.502 95.7789L75.5037 95.6965V95.6936C75.5403 94.717 75.761 94.007 76.1799 93.3683C76.4976 92.8896 76.947 92.4385 77.5918 91.9948C78.5554 91.3296 79.958 90.703 81.8294 90.111C83.7 89.5171 86.0332 88.9528 88.8528 88.3602C93.8775 87.3007 97.6484 86.6818 100.251 86.686C102.053 86.6821 103.241 86.986 103.939 87.4564C104.294 87.6935 104.556 87.9684 104.781 88.3452C105.003 88.7215 105.183 89.2106 105.3 89.8477C105.389 90.3319 105.489 91.149 105.562 92.1759C105.635 93.2049 105.685 94.4522 105.685 95.8382C105.688 100.132 105.202 105.768 103.579 110.45ZM42.7066 84.5633C43.4151 84.6792 44.0833 84.1989 44.1992 83.4904C44.3152 82.7818 43.835 82.1134 43.1265 81.9975L39.8416 81.4603C37.3311 74.2203 35.9609 67.4529 35.9619 61.3082C35.9624 56.8844 36.6675 52.7851 38.1575 49.0273C40.396 43.3942 44.3916 38.4934 50.6157 34.4063C54.729 31.708 59.8276 29.3816 65.9995 27.4862C66.2996 27.4224 66.6201 27.3573 66.9553 27.2941C68.2232 27.0531 69.6934 26.8465 70.7979 26.8486C71.302 26.8469 71.728 26.8949 71.9717 26.9626C72.8938 27.2087 73.7534 27.7658 74.5313 28.5242C75.6978 29.6558 76.634 31.2192 77.2471 32.4911C77.4307 32.8699 77.583 33.2167 77.7114 33.5239C77.9946 34.3084 78.1851 34.7814 78.1904 34.7952C78.4531 35.4421 79.1773 35.7653 79.8345 35.5292C80.4915 35.2932 80.8442 34.5831 80.6355 33.9169C80.6253 33.8872 80.4585 33.3597 80.1299 32.5682C79.7803 31.5939 79.2827 30.1175 78.8042 28.38C78.4839 27.2209 78.1768 25.9422 77.9236 24.6261C83.8953 23.5336 89.2742 23.0093 94.0862 23.0095C100.863 23.0095 106.526 24.0335 111.223 25.9039C118.264 28.7164 123.174 33.3986 126.522 39.6417C129.863 45.8834 131.591 53.7153 132.038 62.6609C132.047 62.8539 132.104 63.0308 132.188 63.1917L129.026 65.1301C128.414 65.5053 128.222 66.3057 128.597 66.9178C128.972 67.5299 129.773 67.722 130.385 67.3467L144.046 58.972C144.092 59.3493 144.121 59.7234 144.121 60.0923C144.121 61.6072 143.748 63.0644 143.165 64.4138C142.293 66.4365 140.945 68.1973 139.813 69.4322C139.248 70.0502 138.739 70.5377 138.376 70.8664C138.194 71.0307 138.049 71.1554 137.952 71.237L137.844 71.3267L137.819 71.3464L137.816 71.3492C137.368 71.7017 137.203 72.3001 137.405 72.8322C137.608 73.3644 138.129 73.7015 138.697 73.6679L146.746 73.1913C146.508 73.7467 146.191 74.4036 145.769 75.12C144.604 77.0998 142.679 79.5022 139.559 81.3955C139.375 81.5076 139.242 81.6647 139.137 81.8373C138.702 82.1169 138.455 82.6384 138.561 83.1772L138.561 83.1772C138.615 83.4525 138.663 83.8808 138.662 84.4187C138.66 86.653 137.873 90.744 134.044 95.4343C130.214 100.125 123.301 105.445 110.999 110.005C109.238 110.657 107.54 111.234 105.867 111.778C106.388 110.348 106.802 108.856 107.133 107.351C108.01 103.334 108.284 99.2024 108.284 95.8382C108.284 94.3904 108.233 93.0854 108.155 91.9905C108.076 90.8935 107.973 90.015 107.857 89.3795C107.698 88.5122 107.432 87.7209 107.019 87.0226C106.407 85.9702 105.441 85.1772 104.287 84.7237C103.131 84.2631 101.799 84.0878 100.251 84.086C97.262 84.0903 93.4026 84.7497 88.3179 85.8158C83.2285 86.8925 79.5964 87.8632 77.0303 89.288C75.7512 90.0029 74.7236 90.8589 74.0125 91.9321C73.2986 93.0028 72.9458 94.2598 72.9053 95.6074V95.6044L72.9021 95.7789C72.9048 96.5291 73.0403 97.4194 73.2798 98.4908C74.1253 102.21 76.3096 108.016 79.6355 113.037C80.4592 114.276 81.354 115.466 82.3208 116.561C79.8652 116.752 77.3882 116.86 74.8494 116.897C74.4356 116.903 74.0266 116.906 73.6223 116.906C59.1445 116.9 51.0557 113.087 46.5564 109.408C44.3054 107.564 42.9451 105.74 42.148 104.394C41.7498 103.721 41.4932 103.169 41.3391 102.795C41.262 102.609 41.2107 102.467 41.1804 102.377L41.1497 102.283L41.1448 102.267L41.1436 102.268C41.0086 101.791 40.6201 101.467 40.1677 101.368C39.9885 101.208 39.7796 101.079 39.5249 101.039L39.5247 101.038C35.8052 100.447 33.0576 98.8718 31.23 97.4429C30.6441 96.9846 30.1653 96.5479 29.7725 96.1603L37.4014 93.5587C37.9402 93.3749 38.2954 92.8655 38.2815 92.2964C38.2676 91.7272 37.8877 91.2357 37.3406 91.0787L37.3235 91.0736C37.0779 91.0029 34.4383 90.1754 31.8731 88.4037C30.5894 87.5202 29.3291 86.4059 28.3709 85.0645C27.7173 84.1478 27.2163 83.1233 26.9056 81.9792L42.7066 84.5633Z"/></g></g></svg>