<svg xmlns="http://www.w3.org/2000/svg" width="200" height="200" fill="none"><path fill="#FFD93A" d="M128.291 87.683c-4.339-1.059-8.551-.19-13.97 4.868-.077.072-.146.153-.22.227l-.414.329.053.046c-2.673 3.051-3.151 8.011-.477 11.675.059.081.129.152.192.231.514.931 1.183 1.748 2.057 2.256a6.842 6.842 0 0 0 2.919.922 17.8 17.8 0 0 0 4.145.824c.318-2.011 3.281-2.434 3.281-2.434s-.846-1.164.318-2.434c.039-.043.085-.076.126-.116l1.99 1.73 1.436-2.965a12.566 12.566 0 0 1 2.903.187s2.117-1.376 2.012-6.139c-.107-4.762-2.012-8.148-6.351-9.207ZM96.54 130.651s-2.063-6.35-6.826-10.477c-7.128-6.178-18.098-11.272-25.876-10.16-14.446 4.92-12.7 25.241-12.7 25.241s3.175 3.175 2.064 5.397c-1.111 2.223-4.604 2.064-4.604 2.064s.317 3.174-2.223 4.128c-2.54.952-4.286-.794-4.286-.794s.318 2.698-3.81 2.063c-4.127-.635-3.016-7.461-3.016-7.461-2.54-3.651-4.604-11.748-4.604-11.748-3.651 4.128-1.11 14.288-1.11 14.288s-6.827 5.874-3.652 9.525c3.175 3.651 8.096-.476 8.096-.476 6.033 6.191 15.716 9.049 15.716 9.049s-2.064 7.937 1.905 9.842c3.969 1.905 8.414-4.762 8.414-4.762 7.462 5.556 21.59 4.127 21.59 4.127s.476 7.303 5.398 6.032c4.92-1.269 2.698-8.889 2.698-8.889s2.7-.794 5.874-6.986c3.175-6.19 3.175-19.208 3.175-19.208s8.414-3.969 7.62-7.937c-.794-3.969-9.843-2.858-9.843-2.858Z"/><path fill="#191C22" d="M110.377 80.73a1.3 1.3 0 0 0-1.831.168c-.329.394-.634.624-.906.76a1.704 1.704 0 0 1-.778.189c-.537.007-1.193-.276-1.755-.76-.561-.467-.988-1.128-1.104-1.525a1.3 1.3 0 0 0-2.298-.365l-.001.001c-.027.04-.525.709-1.249 1.32a5.696 5.696 0 0 1-1.197.798c-.42.202-.834.312-1.225.311-.47-.007-.94-.13-1.548-.613a1.3 1.3 0 0 0-1.635 2.022c.998.817 2.132 1.198 3.183 1.191.902 0 1.718-.255 2.415-.599.856-.424 1.546-.978 2.088-1.49.264.327.552.642.885.93.9.762 2.072 1.371 3.441 1.379a4.307 4.307 0 0 0 1.943-.464c.632-.317 1.219-.795 1.739-1.421a1.3 1.3 0 0 0-.167-1.831Z"/><path fill="#191C22" d="M191.7 80.94c-3.354-1.083-8.225-2.172-13.957-3-5.73-.827-12.309-1.39-19.033-1.39-1.827 0-3.665.048-5.5.137a589.11 589.11 0 0 0-.678-5.144c-.08-.58-.163-1.162-.245-1.743 7.715-1.542 15.333-2.28 22.431-2.28 4.118 0 8.061.246 11.744.719a1.3 1.3 0 0 0 .332-2.579c-3.804-.488-7.854-.74-12.076-.74-7.231.001-14.965.743-22.8 2.3-2.499-17.156-5.947-34.642-10.679-47.797a1.302 1.302 0 0 0-2.219-.396L121.682 39.67c-3.288-.224-18.35-1.2-30.684-1.201-2.105 0-4.123.03-6.001.096C73.08 26.38 64.796 18.372 64.789 18.365a1.3 1.3 0 0 0-2.146.554c-.015.049-5.435 17.776-10.363 48.658-8.763-1.717-17.922-2.402-25.774-2.404-3.96 0-7.584.174-10.664.483a1.3 1.3 0 1 0 .26 2.587c2.975-.299 6.522-.47 10.404-.47 7.728-.003 16.788.686 25.37 2.374-.332 2.15-.663 4.35-.988 6.62-2.331-.146-4.673-.216-6.998-.216-6.724 0-13.303.561-19.033 1.388-5.732.83-10.603 1.918-13.956 3a1.3 1.3 0 1 0 .799 2.474c3.143-1.016 7.916-2.09 13.529-2.9 5.616-.811 12.083-1.363 18.66-1.363 2.21 0 4.43.067 6.636.202-.3 2.155-.593 4.36-.881 6.614-10.809 1.04-23.826 3.49-33.877 7.49a1.3 1.3 0 1 0 .964 2.415c9.498-3.798 22.078-6.201 32.579-7.26a629.642 629.642 0 0 0-1.025 8.826c-7.072 3.369-11.813 7.661-14.77 12.291-3.052 4.774-4.197 9.871-4.195 14.574 0 1.208.082 2.386.218 3.533-.034.047-.08.079-.108.131-.046.102-2.273 4.203-2.285 9.472 0 1.802.274 3.747 1.008 5.687-2.905 2.095-4.264 4.779-4.263 7.201 0 1.394.446 2.699 1.299 3.678a4.629 4.629 0 0 0 3.539 1.591c.938 0 1.92-.257 2.897-.766.743-.388 1.487-.921 2.226-1.607 2.582 2.791 5.706 4.915 8.478 6.464-.01.045-.035.082-.04.128l-1.581 15.271a1.3 1.3 0 0 0 2.586.268l1.49-14.385c1.41.681 2.61 1.176 3.43 1.493-.218.902-.46 2.199-.464 3.612.003 1.103.147 2.284.648 3.397a5.17 5.17 0 0 0 2.748 2.695 5.43 5.43 0 0 0 2.114.441c1.185.001 2.233-.416 3.085-.974 1.283-.843 2.2-1.997 2.835-2.939.146-.218.274-.423.388-.613a53.307 53.307 0 0 0 4.694 1.629c3.506 1.042 8.246 2.091 13.254 2.093 1.02 0 2.052-.051 3.086-.148.302 1.172.801 2.41 1.572 3.499.477.668 1.061 1.28 1.788 1.741a4.732 4.732 0 0 0 3.117.721h.004a4.278 4.278 0 0 0 2.02-.778c.865-.624 1.45-1.512 1.823-2.485.373-.977.544-2.057.545-3.168a11.11 11.11 0 0 0-.454-3.094c1.564-1.211 2.864-2.711 3.928-4.36 2.662-4.136 3.976-9.205 4.668-13.462.589-3.65.705-6.701.727-8.044a39.06 39.06 0 0 0 3.375-2.45c1.005-.824 2.023-1.757 2.835-2.765a8.246 8.246 0 0 0 1.032-1.594c.268-.562.456-1.174.458-1.84a3.146 3.146 0 0 0-.217-1.162c-.294-.752-.833-1.331-1.431-1.737-.904-.611-1.952-.914-3.025-1.105-1.074-.187-2.182-.244-3.194-.244-1.015 0-1.932.059-2.6.118-1.695-5.337-5.028-9.705-9.535-13.044-1.948-1.444-4.117-2.695-6.458-3.78a12.226 12.226 0 0 0-1.98-.901c-.05-.017-.1-.009-.152-.02a49.59 49.59 0 0 0-1.089-.418 12.74 12.74 0 0 0-1.082-.436c-.07-.024-.142-.017-.213-.028a57.585 57.585 0 0 0-6.873-1.874 1.3 1.3 0 0 0-.53 2.546 53.364 53.364 0 0 1 7.71 2.198 8.151 8.151 0 0 1 2.102 1.391c1.145 1.057 1.82 2.333 2.219 3.612.397 1.277.502 2.544.501 3.48a11.934 11.934 0 0 1-.082 1.402l-.01.067-.002.013c-.102.622.258 1.23.854 1.439l2.55.891c.37.129.773.086 1.106-.117.333-.203.556-.542.61-.928.008-.048.087-.628.088-1.538-.003-1.211-.144-3.014-.827-4.917l.008.006c4.416 3.284 7.497 7.47 8.914 12.702.171.632.788 1.039 1.437.948l.058-.008a27.195 27.195 0 0 1 3.276-.204c1.212-.003 2.55.102 3.559.385.504.138.919.321 1.193.511.278.193.406.362.478.541a.55.55 0 0 1 .037.211c.002.151-.05.401-.204.72-.262.559-.822 1.281-1.523 1.986-1.052 1.065-2.403 2.111-3.479 2.873a38.831 38.831 0 0 1-1.732 1.159l-.1.062-.031.019a1.303 1.303 0 0 0-.627 1.132v.038l.001.13c.002 1.027-.08 6.611-1.576 12.387-.744 2.887-1.842 5.816-3.409 8.238-1.57 2.427-3.573 4.33-6.18 5.339-2.876 1.113-5.993 1.545-9.064 1.544-4.642.002-9.167-.988-12.513-1.985a51.813 51.813 0 0 1-4.007-1.367 36.57 36.57 0 0 1-1.099-.446l-.28-.122-.07-.03-.017-.008a1.29 1.29 0 0 0-.997-.037 1.29 1.29 0 0 0-.728.678l-.001.002a11.42 11.42 0 0 1-1.414 2.208c-.435.529-.953 1.032-1.49 1.376-.544.347-1.08.535-1.64.535a2.835 2.835 0 0 1-1.106-.238c-.71-.309-1.092-.741-1.388-1.371-.287-.626-.418-1.46-.416-2.324 0-.999.167-2.023.338-2.78a14.793 14.793 0 0 1 .307-1.15l.019-.058.004-.012a1.3 1.3 0 0 0-.826-1.658l-.024-.008c-.286-.096-3.109-1.064-6.473-2.929-3.367-1.861-7.258-4.633-9.722-8.211a1.3 1.3 0 1 0-2.139 1.478c.112.161.238.308.354.466-.631.602-1.229 1.033-1.764 1.312-.667.347-1.234.472-1.696.472-.693-.008-1.182-.256-1.58-.699-.389-.446-.658-1.126-.658-1.97 0-1.597.976-3.793 3.947-5.615.566-.345.781-1.06.5-1.66-.874-1.871-1.192-3.794-1.193-5.614 0-1.831.33-3.533.722-4.922.188.67.39 1.324.612 1.949.967 2.717 2.207 4.971 3.51 6.588-.379 1.046-.568 2.036-.568 2.949-.005 1.676.611 3.086 1.517 4.047.907.962 2.07 1.513 3.25 1.569h.005l.18.004a3.852 3.852 0 0 0 2.155-.634c.57-.38.956-.846 1.24-1.293.776.501 1.671.747 2.557.746a4.888 4.888 0 0 0 3.274-1.247c.789-.704 1.339-1.735 1.541-2.946.16.016.32.034.476.034a5.25 5.25 0 0 0 2.26-.523c.678-.328 1.273-.78 1.717-1.382.58-.808.766-1.743.77-2.66a6.792 6.792 0 0 0-.72-3.015 5.264 5.264 0 0 0-.906-1.289 4.112 4.112 0 0 0-.704-.57c.024-1.861.242-7.194 1.723-12.324.805-2.804 1.99-5.531 3.642-7.585.826-1.029 1.764-1.891 2.832-2.542a9.291 9.291 0 0 1 3.667-1.283 1.3 1.3 0 0 0-.341-2.577c-3.513.456-6.233 2.325-8.186 4.775-2.94 3.682-4.365 8.639-5.128 12.942-.754 4.304-.811 7.967-.812 9.033 0 .196.002.304.002.312.009.419.227.77.539 1.002.13.138.283.255.472.327.124.047.272.14.43.302.235.239.474.63.637 1.084.164.452.255.961.254 1.408.004.535-.137.956-.271 1.127-.124.175-.396.408-.742.572a2.677 2.677 0 0 1-1.135.266c-.427-.003-.797-.11-1.127-.358-.326-.252-.66-.672-.897-1.479a1.3 1.3 0 0 0-2.497.724c.32 1.119.887 2.005 1.608 2.63-.021.083-.06.159-.064.248-.055.895-.369 1.436-.782 1.817a2.3 2.3 0 0 1-1.532.578c-.552-.001-1.062-.194-1.424-.543-.358-.354-.64-.873-.648-1.804 0-.085.003-.173.009-.264a1.3 1.3 0 1 0-2.595-.158v-.001a6.966 6.966 0 0 0-.014.423 5.528 5.528 0 0 0 .324 1.89h-.002l-.02.083c-.05.193-.226.676-.499 1.012-.135.17-.285.303-.448.392a1.274 1.274 0 0 1-.634.15l-.08-.001h.004c-.405-.011-1.004-.252-1.461-.748-.459-.498-.811-1.213-.816-2.271 0-.68.155-1.511.573-2.498a1.287 1.287 0 0 0-.017-1.034 1.265 1.265 0 0 0-.29-.713c-1.135-1.29-2.406-3.47-3.358-6.161a28.064 28.064 0 0 1-1.608-9.293c.002-4.289 1.032-8.861 3.786-13.174 2.758-4.311 7.255-8.397 14.333-11.647.415-.19.702-.59.75-1.042.374-3.46.767-6.81 1.172-10.07 3.134-.257 6.038-.391 8.529-.389.285 0 .566.002.842.006a1.3 1.3 0 0 0 .032-2.6 73.34 73.34 0 0 0-.874-.006c-2.427.003-5.21.125-8.197.356.272-2.11.55-4.17.83-6.192 3.187.282 6.317.725 9.302 1.365a1.3 1.3 0 0 0 .545-2.542c-3.066-.657-6.253-1.112-9.485-1.402.31-2.154.624-4.24.94-6.285 3.17.707 6.25 1.558 9.14 2.571a1.3 1.3 0 0 0 .859-2.453c-3.053-1.068-6.284-1.956-9.596-2.69 1.737-10.898 3.535-20.16 5.133-27.563 1.461-6.767 2.756-11.991 3.683-15.52.354-1.343.653-2.437.89-3.28 2.965 2.9 9.963 9.794 19.005 19.046.256.263.616.406.982.39 1.99-.08 4.182-.113 6.477-.113 6.887 0 14.685.31 20.754.62 3.035.155 5.639.31 7.482.426 1.844.116 2.922.193 2.925.194.416.03.82-.142 1.088-.461l16.29-19.392c4.271 12.65 7.484 29.126 9.835 45.317a119.68 119.68 0 0 0-11.169 3.016 1.3 1.3 0 0 0 .805 2.473c3.56-1.159 7.151-2.11 10.731-2.908.072.514.147 1.03.217 1.543.228 1.66.443 3.31.653 4.952-3.741.278-7.441.762-10.978 1.519a1.3 1.3 0 1 0 .545 2.542c3.439-.737 7.071-1.21 10.759-1.48.325 2.632.627 5.224.909 7.766a182.343 182.343 0 0 0-10.595-.68 1.3 1.3 0 0 0-.094 2.598c3.662.13 7.336.358 10.977.719a724.303 724.303 0 0 1 2.488 28.753l.02.16c.001.001.087.453.242 1.31 1.084 5.992 5.442 31.559 5.644 55.058a1.3 1.3 0 0 0 2.6-.022v-.001c-.233-26.42-5.61-55.124-5.917-56.754a725.623 725.623 0 0 0-2.432-28.213c10.819 1.291 21.219 3.93 29.875 9.232a1.3 1.3 0 0 0 1.356-2.218c-9.294-5.675-20.266-8.376-31.517-9.664-.295-2.68-.613-5.418-.956-8.2 1.724-.08 3.453-.123 5.175-.123 6.579 0 13.045.552 18.661 1.363 5.613.81 10.386 1.883 13.529 2.9a1.3 1.3 0 0 0 .8-2.474ZM87.519 170.082c.408-.158.803-.334 1.185-.525.107.545.167 1.096.167 1.626.004 1.118-.247 2.135-.638 2.797a2.368 2.368 0 0 1-.648.745c-.234.166-.48.266-.8.306a2.12 2.12 0 0 1-1.434-.335c-.552-.344-1.098-.999-1.517-1.801a8.727 8.727 0 0 1-.639-1.604 24.454 24.454 0 0 0 4.324-1.209Z"/><path fill="#191C22" d="M118.959 67.247c-.019-.004-.032-.01-.052-.015l-.001.004a1.48 1.48 0 0 0-.277-.032 1.44 1.44 0 0 0-.883.307c-.334.275-.431.506-.527.707a3.652 3.652 0 0 0-.241.897c-.047.31-.072.645-.072 1.002.006.922.148 1.986.666 2.983a3.71 3.71 0 0 0 1.163 1.343c.525.366 1.204.58 1.912.576.112 0 .227-.005.345-.015h.003a1.96 1.96 0 0 0 1.053-.431c.402-.327.638-.722.804-1.14.162-.421.246-.878.246-1.36a4.048 4.048 0 0 0-.654-2.208c-.416-.644-1.065-1.201-1.891-1.592a9.32 9.32 0 0 0-.352-.313 5.429 5.429 0 0 0-.496-.376 2.925 2.925 0 0 0-.322-.186 2.14 2.14 0 0 0-.371-.136l.001-.004c-.019-.005-.035-.006-.054-.01ZM84.932 67.318a6.856 6.856 0 0 0-.565.577c-.695.398-1.24.927-1.589 1.522a4.039 4.039 0 0 0-.555 2.058c.003.739.183 1.41.511 1.985.168.287.375.555.662.786a1.99 1.99 0 0 0 1.157.45h.002l.16.002a3.246 3.246 0 0 0 1.731-.471c.751-.468 1.182-1.183 1.419-1.865.24-.69.315-1.39.317-2.049a7.562 7.562 0 0 0-.25-1.962 3.532 3.532 0 0 0-.325-.815 1.863 1.863 0 0 0-.36-.454 1.513 1.513 0 0 0-.372-.251 1.421 1.421 0 0 0-.609-.138c-.098 0-.224.018-.356.053l-.002-.005c-.023.006-.037.014-.059.02-.016.006-.032.007-.048.013l.001.004c-.152.052-.274.11-.373.167-.21.126-.358.25-.497.373ZM78.034 145.33c-1.185.001-2.33.177-3.37.603-1.036.422-1.972 1.116-2.622 2.095a1.299 1.299 0 1 0 2.163 1.442c.335-.499.8-.864 1.446-1.132.642-.265 1.46-.409 2.383-.408 2.365-.011 5.36.966 7.635 2.521 1.14.774 2.103 1.684 2.753 2.633.653.954.994 1.921.995 2.894 0 .342-.042.687-.133 1.045a3.672 3.672 0 0 1-.65 1.371c-.429.549-1.019.959-1.795 1.248-.772.286-1.723.434-2.766.434-2.542.008-5.604-.89-7.909-2.232-1.154-.667-2.118-1.441-2.75-2.203-.638-.768-.917-1.479-.914-2.073l.009-.18a1.3 1.3 0 1 0-2.589-.243 4.5 4.5 0 0 0-.02.423c.004 1.402.625 2.665 1.516 3.735 1.348 1.61 3.352 2.905 5.592 3.853 2.242.94 4.723 1.517 7.065 1.52 1.707-.003 3.358-.308 4.766-1.104a6.202 6.202 0 0 0 1.848-1.583 6.278 6.278 0 0 0 1.118-2.327 6.838 6.838 0 0 0 .211-1.684c0-1.598-.569-3.085-1.45-4.366-1.33-1.925-3.35-3.457-5.578-4.548-2.232-1.086-4.679-1.73-6.954-1.734Z"/><path fill="#191C22" d="m79.474 154.769.14-.185a1.3 1.3 0 0 0-2.078-1.564l-.14.186a1.3 1.3 0 1 0 2.078 1.563ZM86.974 157.143l.14-.187a1.3 1.3 0 0 0-2.082-1.558l-.14.186a1.3 1.3 0 0 0 2.082 1.559ZM71.975 132.916a1.3 1.3 0 0 0-.907 1.6v-.001c.163.586.219 1.268.217 1.831a9.571 9.571 0 0 1-.065 1.109l-.008.057-.001.011a1.3 1.3 0 0 0 2.57.399c.006-.046.104-.68.104-1.576 0-.719-.06-1.607-.311-2.522a1.3 1.3 0 0 0-1.6-.908ZM88.145 141.892l-.047.161-.011.038-.002.007a1.3 1.3 0 0 0 2.474.797c.01-.028.14-.436.273-1.035.131-.602.27-1.389.271-2.221 0-.167-.006-.336-.02-.507a1.299 1.299 0 1 0-2.591.207c.007.093.01.194.01.3.003.531-.1 1.173-.209 1.659-.054.244-.108.451-.148.594ZM134.325 103.46c-.064-.062-.127-.127-.193-.186a11.116 11.116 0 0 0 1.86-6.152c.001-1.88-.48-3.79-1.486-5.532a11.078 11.078 0 0 0-9.606-5.542c-1.864 0-3.758.475-5.489 1.465l-.001-.002-2.22 1.176c-.047.024-.075.066-.117.096-3.937 1.7-6.693 5.612-6.694 10.174.001 6.081 4.899 11.011 10.965 11.075.012.516.102 1.045.28 1.58.001.004.005.006.006.01-.258.247-.48.518-.645.806a4.091 4.091 0 0 0-.532 2.04c0 .284.028.562.082.831.201 1.012.798 1.796 1.454 2.339.993.82 2.15 1.235 3.073 1.498a12.03 12.03 0 0 0 1.569.33c6.569 8.588 16.03 19.028 16.043 19.043a1.3 1.3 0 1 0 1.926-1.746l-.434-.482c-1.97-2.193-10.25-11.49-15.905-18.965a1.288 1.288 0 0 0-1.418-.446 9.67 9.67 0 0 1-1.936-.524c-.494-.195-.964-.453-1.282-.73-.323-.283-.481-.538-.541-.827a1.705 1.705 0 0 1-.031-.321c0-.362.116-.707.318-.924a1.16 1.16 0 0 1 .438-.295c.205-.083.494-.148.903-.148.451-.001 1.045.082 1.789.306a1.3 1.3 0 0 0 .748-2.49c-.936-.281-1.774-.416-2.537-.416-.237 0-.457.031-.68.058a2.677 2.677 0 0 1-.097-.636c.001-.296.061-.518.161-.715.149-.291.408-.547.816-.751.405-.202.951-.331 1.565-.33.872-.001 1.87.256 2.788.826a1.3 1.3 0 0 0 1.369-2.21v-.001a7.987 7.987 0 0 0-3.608-1.175c-.001-.02-.01-.049-.01-.067a.7.7 0 0 1 .113-.389c.115-.188.385-.427.816-.607.426-.181.992-.295 1.588-.294 1.165-.003 2.385.424 3.147 1.267.162.177.378.31.61.374 4.547 1.247 8.741 4.645 13.291 7.899a1.3 1.3 0 0 0 1.508-2.119c-4.366-3.091-8.632-6.627-13.764-8.171Zm-2.071-10.57a8.429 8.429 0 0 1 1.138 4.232 8.52 8.52 0 0 1-1.111 4.2c.167-.764.261-1.554.261-2.365 0-4.643-2.858-8.613-6.908-10.262 2.668.233 5.181 1.701 6.62 4.195Zm-6.082 9.616c-.484.307-.92.708-1.242 1.219a3.31 3.31 0 0 0-.514 1.775c0 .12.013.239.025.358a5.15 5.15 0 0 0-1.462.749 4.245 4.245 0 0 0-.917.998 1.268 1.268 0 0 0-.601-.167 8.448 8.448 0 0 1-5.998-2.484 8.45 8.45 0 0 1-2.484-5.997 8.45 8.45 0 0 1 2.484-5.997 8.451 8.451 0 0 1 5.998-2.484 8.45 8.45 0 0 1 5.997 2.484 8.445 8.445 0 0 1 2.484 5.997c0 .923-.147 1.808-.418 2.637-.002.006 0 .011-.002.017-1.213.005-2.381.285-3.35.895ZM67.661 117.729c-1.192-.741-2.307-1.216-3.48-1.227a3.328 3.328 0 0 0-1.845.532c-.413.27-.756.632-1.027 1.043-.405.619-.662 1.344-.832 2.176-.168.833-.245 1.781-.246 2.866 0 1.342.121 2.894.363 4.683a1.3 1.3 0 0 0 2.577-.349c-.231-1.703-.34-3.149-.34-4.334-.007-1.703.244-2.866.542-3.427.148-.284.282-.413.386-.482.107-.067.207-.104.421-.108.382-.011 1.137.216 2.097.828.961.604 2.122 1.553 3.417 2.815a1.3 1.3 0 0 0 1.814-1.862c-1.384-1.347-2.656-2.403-3.847-3.154Z"/></svg>