<svg width="200" height="200" viewBox="0 0 200 200" xmlns="http://www.w3.org/2000/svg"><g id="type=offer-payment, mode=light"><g id="paymentOffer"><path id="Vector" d="M128.291 87.683C123.952 86.6244 119.74 87.4935 114.321 92.5511C114.244 92.6234 114.175 92.7035 114.101 92.7782L113.687 93.1068L113.74 93.1532C111.067 96.2042 110.589 101.164 113.263 104.828C113.322 104.909 113.392 104.98 113.455 105.059C113.969 105.99 114.638 106.807 115.512 107.315C116.533 107.909 117.531 108.164 118.431 108.237C120.646 108.962 122.576 109.061 122.576 109.061C122.894 107.05 125.857 106.627 125.857 106.627C125.857 106.627 125.011 105.463 126.175 104.193C126.214 104.15 126.26 104.117 126.301 104.077L128.291 105.807L129.727 102.842C131.271 102.751 132.63 103.029 132.63 103.029C132.63 103.029 134.747 101.653 134.642 96.89C134.535 92.1283 132.63 88.7416 128.291 87.683Z"/><path id="Vector_2" d="M96.5403 130.651C96.5403 130.651 94.4768 124.301 89.7141 120.174C82.5862 113.996 71.6164 108.902 63.8381 110.014C49.3918 114.934 51.1379 135.255 51.1379 135.255C51.1379 135.255 54.3127 138.43 53.2019 140.652C52.0905 142.875 48.5979 142.716 48.5979 142.716C48.5979 142.716 48.9153 145.89 46.3752 146.844C43.8357 147.796 42.0891 146.05 42.0891 146.05C42.0891 146.05 42.4065 148.748 38.279 148.113C34.1516 147.478 35.2629 140.652 35.2629 140.652C32.7229 137.001 30.6594 128.904 30.6594 128.904C27.008 133.032 29.5481 143.192 29.5481 143.192C29.5481 143.192 22.7219 149.066 25.8967 152.717C29.0715 156.368 33.9929 152.241 33.9929 152.241C40.0256 158.432 49.7092 161.29 49.7092 161.29C49.7092 161.29 47.6452 169.227 51.614 171.132C55.5827 173.037 60.028 166.37 60.028 166.37C67.4895 171.926 81.6183 170.497 81.6183 170.497C81.6183 170.497 82.0939 177.8 87.0158 176.529C91.9367 175.26 89.7141 167.64 89.7141 167.64C89.7141 167.64 92.4133 166.846 95.5881 160.654C98.7629 154.464 98.7629 141.446 98.7629 141.446C98.7629 141.446 107.177 137.477 106.383 133.509C105.589 129.54 96.5403 130.651 96.5403 130.651Z"/><path id="Vector_3" d="M110.377 80.7309C109.825 80.2714 109.006 80.3464 108.546 80.8982V80.8979C108.217 81.2922 107.912 81.5219 107.64 81.6586C107.366 81.7941 107.121 81.8452 106.862 81.8466C106.325 81.8537 105.669 81.5705 105.107 81.0878C104.546 80.6203 104.119 79.9592 104.003 79.5617C103.855 79.091 103.453 78.7456 102.966 78.6684C102.479 78.5913 101.992 78.7959 101.705 79.197L101.704 79.1982C101.677 79.238 101.179 79.9067 100.455 80.5178C100.094 80.8251 99.6779 81.1157 99.2584 81.3159C98.8372 81.518 98.4235 81.6276 98.0327 81.6272C97.5631 81.6201 97.0935 81.497 96.4851 81.0141C95.9269 80.5625 95.1083 80.6489 94.6566 81.207C94.205 81.7651 94.2914 82.5839 94.8496 83.0356C95.8481 83.8527 96.9822 84.2341 98.0327 84.227C98.9353 84.2265 99.7511 83.9719 100.448 83.6284C101.304 83.2041 101.994 82.6496 102.536 82.1389C102.8 82.4653 103.088 82.78 103.421 83.0673C104.321 83.8298 105.493 84.4394 106.862 84.4465C107.503 84.448 108.174 84.3007 108.805 83.9829C109.437 83.6665 110.024 83.1877 110.544 82.5617C111.004 82.01 110.929 81.1901 110.377 80.7309Z"/><path id="Vector_4" d="M191.7 80.9392C188.346 79.8567 183.475 78.7681 177.743 77.9395C172.013 77.1126 165.434 76.5508 158.71 76.5505C156.883 76.5505 155.045 76.5977 153.21 76.687C152.992 74.9817 152.768 73.2683 152.532 71.543C152.452 70.9634 152.369 70.3811 152.287 69.8001C160.002 68.2576 167.62 67.5203 174.718 67.5208C178.836 67.5208 182.779 67.7659 186.462 68.2388C187.174 68.3301 187.826 67.8269 187.917 67.115C188.009 66.4028 187.506 65.7515 186.794 65.6602C182.99 65.1719 178.94 64.9209 174.718 64.9209C167.487 64.9214 159.753 65.6628 151.918 67.22C149.419 50.0637 145.971 32.5784 141.239 19.4231C141.081 18.9861 140.701 18.6653 140.244 18.5835C139.787 18.502 139.319 18.6716 139.02 19.0274L121.682 39.6685C118.394 39.4453 103.332 38.4683 90.9975 38.4678C88.8931 38.4678 86.8751 38.4978 84.997 38.5642C73.08 26.3804 64.7958 18.3716 64.7893 18.3652C64.4644 18.051 63.9983 17.9282 63.5609 18.0413C63.1234 18.1541 62.775 18.4873 62.6428 18.9194C62.6281 18.968 57.2081 36.6948 52.2802 67.5769C43.5171 65.8596 34.3582 65.1753 26.5065 65.1726C22.5469 65.1726 18.9218 65.3469 15.8425 65.6558C15.1279 65.7273 14.6069 66.3647 14.6785 67.0791C14.7502 67.7937 15.3875 68.3147 16.1021 68.2432C19.0768 67.9443 22.624 67.7725 26.5065 67.7725C34.234 67.7698 43.2943 68.459 51.8767 70.1467C51.5435 72.2974 51.2128 74.4978 50.8875 76.7678C48.557 76.6206 46.2151 76.5508 43.8899 76.5505C37.1664 76.5508 30.5869 77.1125 24.8574 77.9395C19.1254 78.7681 14.2543 79.8567 10.9008 80.939C10.2175 81.1597 9.84259 81.8923 10.0633 82.5754C10.284 83.2588 11.0168 83.6338 11.7 83.4131C14.843 82.3965 19.6158 81.3223 25.2289 80.5129C30.8445 79.7019 37.3115 79.1502 43.8899 79.1504C46.0986 79.1502 48.3192 79.2168 50.5249 79.3518C50.2256 81.5066 49.9316 83.7112 49.6436 85.9661C38.8353 87.0061 25.8184 89.4566 15.7675 93.4558C15.1006 93.7217 14.7756 94.478 15.0416 95.1448C15.3076 95.8118 16.0638 96.1367 16.7307 95.8709C26.2293 92.073 38.8092 89.6699 49.3099 88.6113C48.9564 91.4766 48.6143 94.4202 48.2853 97.4368C41.2125 100.806 36.4717 105.098 33.5156 109.728C30.4631 114.502 29.3181 119.599 29.32 124.302C29.3202 125.51 29.4016 126.688 29.5383 127.835C29.5045 127.882 29.4576 127.914 29.4296 127.966C29.3844 128.068 27.157 132.169 27.1445 137.438C27.1442 139.24 27.4186 141.185 28.1531 143.125C25.2476 145.22 23.8888 147.904 23.8897 150.326C23.8895 151.72 24.3364 153.025 25.189 154.004C26.0342 154.986 27.3146 155.603 28.7276 155.595C29.6664 155.595 30.6489 155.338 31.6254 154.829C32.3685 154.441 33.1116 153.908 33.8507 153.222C36.4329 156.013 39.5568 158.137 42.3292 159.686C42.3196 159.731 42.2938 159.768 42.289 159.814L40.708 175.085C40.634 175.799 41.153 176.438 41.8671 176.512C42.5813 176.586 43.2202 176.067 43.2941 175.353L44.7835 160.968C46.1931 161.649 47.3931 162.144 48.2139 162.461C47.9957 163.363 47.7546 164.66 47.7504 166.073C47.7526 167.176 47.897 168.357 48.3975 169.47C48.8887 170.579 49.8079 171.611 51.1464 172.165C51.8564 172.464 52.5737 172.607 53.2601 172.606C54.4449 172.607 55.4934 172.19 56.3454 171.632C57.6278 170.789 58.5444 169.635 59.1802 168.693C59.3259 168.475 59.4542 168.27 59.5684 168.08C60.5727 168.485 62.194 169.094 64.262 169.709C67.7684 170.751 72.5081 171.8 77.5162 171.802C78.536 171.802 79.5679 171.751 80.6023 171.654C80.9042 172.826 81.4031 174.064 82.1743 175.153C82.6514 175.821 83.2352 176.433 83.9618 176.894C84.6846 177.355 85.5649 177.65 86.5176 177.647C86.7049 177.647 86.892 177.636 87.0786 177.615H87.0829C87.8342 177.53 88.5297 177.251 89.1029 176.837C89.9675 176.213 90.553 175.325 90.9261 174.352C91.2991 173.375 91.47 172.295 91.471 171.184C91.4704 170.16 91.3147 169.11 91.0167 168.09C92.5806 166.879 93.881 165.379 94.9445 163.73C97.6073 159.594 98.9211 154.525 99.6132 150.268C100.202 146.618 100.318 143.567 100.34 142.224C101.079 141.745 102.38 140.865 103.715 139.774C104.72 138.95 105.738 138.017 106.55 137.009C106.956 136.504 107.312 135.979 107.582 135.415C107.85 134.853 108.038 134.241 108.04 133.575C108.041 133.191 107.973 132.792 107.823 132.413C107.529 131.661 106.99 131.082 106.392 130.676C105.488 130.065 104.44 129.762 103.367 129.571C102.293 129.384 101.185 129.327 100.173 129.327C99.1584 129.327 98.2409 129.386 97.5733 129.445C95.8778 124.108 92.5451 119.74 88.0375 116.401C86.0903 114.957 83.9208 113.706 81.5797 112.621C80.9746 112.281 80.3235 111.972 79.5999 111.72C79.5497 111.703 79.4991 111.711 79.4483 111.7C79.0898 111.556 78.7248 111.419 78.359 111.282C78.0137 111.125 77.6553 110.978 77.2767 110.846C77.2064 110.822 77.1355 110.829 77.0645 110.818C74.8817 110.072 72.5891 109.444 70.1907 108.944C69.4877 108.798 68.7992 109.249 68.6529 109.952C68.5067 110.655 68.958 111.344 69.661 111.49C72.3954 112.058 74.969 112.797 77.3707 113.688C78.2187 114.083 78.906 114.557 79.4732 115.079C80.6175 116.136 81.2931 117.412 81.6915 118.691C82.0888 119.968 82.1941 121.235 82.1933 122.171C82.1933 122.637 82.1679 123.021 82.1433 123.281C82.1311 123.41 82.1191 123.51 82.1107 123.573L82.1012 123.64L82.0993 123.653H82.0997C81.9969 124.275 82.3575 124.883 82.953 125.092L85.5038 125.983C85.8721 126.112 86.2758 126.069 86.609 125.866C86.9422 125.663 87.1654 125.324 87.2199 124.938C87.2265 124.89 87.3064 124.31 87.3066 123.4C87.3042 122.189 87.163 120.386 86.4801 118.483C86.4826 118.485 86.4856 118.487 86.4881 118.489C90.9044 121.773 93.985 125.959 95.4023 131.191C95.573 131.823 96.1903 132.23 96.839 132.139L96.897 132.131C97.1926 132.092 98.5787 131.926 100.173 131.927C101.385 131.924 102.723 132.029 103.732 132.312C104.236 132.45 104.651 132.633 104.925 132.823C105.203 133.016 105.331 133.185 105.403 133.364C105.427 133.425 105.439 133.484 105.44 133.575C105.442 133.726 105.39 133.976 105.236 134.295C104.974 134.854 104.414 135.576 103.713 136.281C102.661 137.346 101.31 138.392 100.234 139.154C99.6955 139.536 99.2248 139.849 98.8913 140.065C98.7245 140.173 98.592 140.257 98.5024 140.313L98.4013 140.375L98.3708 140.394C97.977 140.632 97.7373 141.065 97.7442 141.526L97.7445 141.564L97.745 141.694C97.7472 142.721 97.6645 148.305 96.1695 154.081C95.4252 156.968 94.3268 159.897 92.7604 162.319C91.1897 164.746 89.1868 166.649 86.5809 167.658C83.7037 168.771 80.5874 169.203 77.5163 169.202C72.8735 169.204 68.3488 168.214 65.0035 167.217C63.3305 166.72 61.9516 166.222 60.9965 165.85C60.5188 165.664 60.1471 165.511 59.8974 165.404C59.7725 165.351 59.6781 165.309 59.6162 165.282L59.5479 165.252L59.5299 165.244C59.2142 165.099 58.8588 165.085 58.5333 165.207C58.2086 165.328 57.9491 165.569 57.8052 165.885H57.8048L57.8039 165.887C57.7952 165.91 57.2614 167.044 56.3898 168.095C55.9548 168.624 55.4373 169.127 54.8991 169.471C54.3565 169.818 53.8207 170.006 53.2601 170.006C52.9263 170.005 52.5689 169.941 52.1542 169.768C51.4436 169.459 51.0625 169.027 50.766 168.397C50.4788 167.771 50.3482 166.937 50.3504 166.073C50.3493 165.074 50.5166 164.05 50.6877 163.293C50.7729 162.913 50.8581 162.6 50.9207 162.386C50.952 162.279 50.9776 162.196 50.9948 162.143L51.0136 162.085L51.0176 162.073C51.1304 161.745 51.1067 161.382 50.9519 161.071C50.797 160.76 50.5218 160.522 50.1916 160.415L50.1683 160.407C49.8818 160.311 47.0592 159.343 43.695 157.478C40.3277 155.617 36.4373 152.845 33.9729 149.267C33.5645 148.676 32.7548 148.528 32.1642 148.936C31.5735 149.345 31.4257 150.154 31.834 150.745C31.9456 150.906 32.0725 151.053 32.1882 151.211C31.5566 151.813 30.9594 152.244 30.4243 152.523C29.7574 152.87 29.1897 152.995 28.7276 152.995C28.0346 152.987 27.5461 152.739 27.1488 152.296C26.759 151.85 26.4899 151.17 26.4897 150.326C26.4907 148.729 27.4663 146.533 30.4371 144.711C31.0029 144.366 31.2183 143.651 30.9374 143.051C30.0627 141.18 29.7449 139.257 29.7445 137.437C29.7435 135.606 30.0735 133.904 30.4656 132.515C30.6536 133.185 30.8561 133.839 31.0779 134.464C32.0455 137.181 33.2852 139.435 34.5883 141.052C34.2092 142.098 34.0199 143.088 34.02 144.001C34.0153 145.677 34.631 147.087 35.537 148.048C36.4442 149.01 37.6062 149.561 38.7874 149.617H38.792L38.9729 149.621C39.8072 149.625 40.5582 149.369 41.1274 148.987C41.6965 148.607 42.0825 148.141 42.3675 147.694C43.1429 148.195 44.0384 148.441 44.9236 148.44C46.0899 148.44 47.2697 148.029 48.1983 147.193C48.9867 146.489 49.537 145.458 49.739 144.247C49.8985 144.263 50.0585 144.281 50.2148 144.281C51.0276 144.28 51.7968 144.083 52.4752 143.758C53.1525 143.43 53.7481 142.978 54.1916 142.376C54.7712 141.568 54.9581 140.633 54.9627 139.716C54.9594 138.681 54.7125 137.636 54.2417 136.701C54.0046 136.235 53.7082 135.796 53.3355 135.412C53.1289 135.199 52.8905 135.011 52.6324 134.842C52.6563 132.981 52.874 127.648 54.355 122.518C55.1599 119.714 56.3442 116.987 57.9969 114.933C58.8228 113.904 59.7605 113.042 60.8286 112.391C61.8982 111.74 63.0986 111.294 64.4958 111.108C65.2074 111.014 65.708 110.36 65.6139 109.649C65.5197 108.937 64.8665 108.437 64.1549 108.531C60.6421 108.987 57.9223 110.856 55.9692 113.306C53.0292 116.988 51.6042 121.945 50.841 126.248C50.0869 130.552 50.0299 134.215 50.0292 135.281C50.0292 135.477 50.0312 135.585 50.0314 135.593C50.0396 136.012 50.2575 136.363 50.5696 136.595C50.6997 136.733 50.8534 136.85 51.0424 136.922C51.1664 136.969 51.314 137.062 51.4712 137.224C51.7068 137.463 51.946 137.854 52.1086 138.308C52.2735 138.76 52.3637 139.269 52.3627 139.716C52.3673 140.251 52.226 140.672 52.0915 140.843C51.968 141.018 51.6961 141.251 51.3497 141.415C51.0044 141.582 50.5938 141.682 50.2148 141.681C49.7882 141.678 49.4181 141.571 49.0885 141.323C48.7616 141.071 48.4286 140.651 48.1911 139.844C47.9913 139.155 47.2703 138.758 46.5807 138.958C45.891 139.157 45.494 139.878 45.6938 140.568C46.0145 141.687 46.5807 142.573 47.302 143.198C47.2806 143.281 47.2429 143.357 47.2381 143.446C47.1832 144.341 46.8692 144.882 46.4565 145.263C46.0414 145.64 45.4792 145.841 44.9236 145.841C44.3717 145.84 43.8619 145.647 43.4999 145.298C43.1421 144.944 42.8606 144.425 42.8525 143.494C42.8525 143.409 42.8551 143.321 42.8607 143.23C42.9043 142.513 42.3588 141.897 41.6422 141.853C40.9256 141.809 40.3092 142.355 40.2655 143.072V143.071C40.2568 143.214 40.2524 143.355 40.2524 143.494C40.2488 144.176 40.3728 144.807 40.5769 145.382C40.5768 145.383 40.5762 145.384 40.5761 145.384H40.5741L40.5531 145.467C40.5031 145.66 40.3281 146.143 40.0552 146.479C39.92 146.649 39.7703 146.782 39.6067 146.871C39.4406 146.959 39.2596 147.019 38.9729 147.021L38.8927 147.02H38.8974C38.4922 147.009 37.8929 146.768 37.4356 146.272C36.977 145.774 36.6247 145.059 36.62 144.001C36.6201 143.321 36.7746 142.49 37.193 141.503C37.3396 141.157 37.3179 140.787 37.1759 140.469C37.1474 140.214 37.0673 139.963 36.8856 139.756C35.7506 138.466 34.4797 136.286 33.5282 133.595C32.5719 130.902 31.9193 127.694 31.92 124.302C31.9218 120.013 32.952 115.441 35.7065 111.128C38.464 106.817 42.9615 102.731 50.0393 99.4805C50.4537 99.2903 50.7408 98.8919 50.7896 98.4385C51.1628 94.9797 51.5558 91.6292 51.9611 88.3687C55.0947 88.1123 57.9987 87.978 60.4897 87.9802C60.7751 87.9802 61.0559 87.9822 61.3319 87.9856C62.0498 87.9941 62.6388 87.4194 62.6476 86.7014C62.6563 85.9837 62.0815 85.3945 61.3636 85.386V85.3857C61.0782 85.3823 60.7868 85.3804 60.4897 85.3804C58.0627 85.3826 55.2807 85.5046 52.2931 85.7358C52.5647 83.6255 52.8421 81.5652 53.1234 79.544C56.3095 79.8264 59.4397 80.2693 62.4251 80.9089C63.1271 81.0591 63.818 80.6121 63.9684 79.9102C64.1187 79.2083 63.6716 78.5171 62.9696 78.367V78.3667C59.9043 77.7105 56.7167 77.2554 53.4854 76.9646C53.7947 74.811 54.1089 72.7246 54.4253 70.6795C57.5956 71.3872 60.6744 72.238 63.5646 73.2515C64.2421 73.4885 64.9837 73.1318 65.221 72.4541C65.4583 71.7766 65.1014 71.0349 64.4239 70.7979V70.7976C61.3714 69.7302 58.1401 68.8425 54.8282 68.1079C56.5647 57.2105 58.3626 47.948 59.9612 40.5447C61.4223 33.7778 62.7166 28.554 63.6444 25.0256C63.9978 23.6821 64.297 22.5881 64.5331 21.7449C67.4991 24.645 74.4973 31.5393 83.5391 40.7915C83.7954 41.0537 84.1547 41.1965 84.5212 41.1819C86.5107 41.1018 88.7033 41.0676 90.9975 41.0676C97.885 41.0676 105.683 41.3774 111.752 41.6875C114.787 41.8428 117.391 41.9978 119.234 42.114C121.078 42.2302 122.156 42.3074 122.159 42.3076C122.575 42.3372 122.979 42.1663 123.247 41.8469L139.537 22.4548C143.808 35.1047 147.021 51.5808 149.372 67.7722C145.648 68.5957 141.912 69.5825 138.203 70.7883C137.521 71.0103 137.147 71.7439 137.369 72.4268C137.591 73.1094 138.325 73.4829 139.008 73.261V73.2607C142.568 72.1023 146.159 71.1501 149.739 70.3525C149.811 70.8669 149.886 71.3831 149.956 71.8962C150.184 73.5564 150.399 75.2056 150.609 76.8479C146.868 77.1257 143.168 77.6096 139.631 78.3667C138.929 78.5169 138.482 79.208 138.632 79.9102C138.783 80.6121 139.474 81.0593 140.176 80.9092V80.9089C143.615 80.1719 147.247 79.699 150.935 79.4299C151.26 82.0613 151.562 84.6531 151.844 87.1951C148.315 86.8591 144.769 86.6433 141.249 86.5144C140.532 86.4883 139.929 87.0491 139.903 87.7666C139.877 88.4841 140.438 89.0869 141.155 89.113V89.1128C144.817 89.2437 148.491 89.4705 152.132 89.8318C153.355 101.277 154.151 111.464 154.62 118.585L154.64 118.745C154.641 118.746 154.727 119.198 154.882 120.055C155.966 126.047 160.324 151.614 160.526 175.113C160.533 175.831 161.12 176.408 161.838 176.402C162.555 176.396 163.132 175.808 163.126 175.091V175.09C162.893 148.67 157.516 119.966 157.209 118.336C156.745 111.306 155.967 101.339 154.777 90.1226C165.596 91.4143 175.996 94.0532 184.652 99.3552C185.264 99.7297 186.064 99.5369 186.439 98.9246C186.814 98.312 186.621 97.512 186.008 97.1375C176.714 91.4617 165.742 88.7607 154.491 87.4732C154.196 84.7937 153.878 82.0547 153.535 79.273C155.259 79.1921 156.988 79.1502 158.71 79.1504C165.289 79.1502 171.755 79.7019 177.371 80.5129C182.984 81.3223 187.757 82.3965 190.9 83.4128C191.583 83.6336 192.316 83.2586 192.537 82.5757C192.757 81.8926 192.383 81.1599 191.7 80.9392ZM87.5188 170.083C87.9269 169.925 88.3217 169.749 88.7042 169.558C88.8113 170.103 88.8713 170.654 88.871 171.184C88.8745 172.302 88.6243 173.319 88.2332 173.981C88.039 174.314 87.8181 174.559 87.5855 174.726C87.351 174.892 87.1058 174.992 86.7857 175.032C86.6905 175.042 86.6011 175.047 86.5176 175.047C86.0844 175.045 85.7243 174.929 85.352 174.697C84.7991 174.353 84.2534 173.698 83.8337 172.896C83.5656 172.39 83.3547 171.834 83.1951 171.292C84.6533 171.019 86.1031 170.63 87.5188 170.083Z"/><path id="Vector_5" d="M118.959 67.2471C118.94 67.2427 118.927 67.2366 118.907 67.2324L118.906 67.2364C118.798 67.2146 118.698 67.2039 118.629 67.2041C118.255 67.2019 117.934 67.3599 117.746 67.511C117.412 67.7862 117.315 68.0169 117.219 68.2176C117.09 68.5203 117.028 68.8013 116.978 69.1148C116.931 69.4256 116.906 69.7605 116.906 70.1167C116.912 71.0391 117.054 72.1035 117.572 73.0999C117.833 73.5943 118.206 74.0781 118.735 74.4429C119.26 74.8094 119.939 75.0235 120.647 75.0191C120.759 75.0191 120.874 75.0144 120.992 75.0044L120.995 75.0042C121.419 74.9678 121.782 74.7871 122.048 74.5728C122.45 74.2456 122.686 73.8506 122.852 73.4324C123.014 73.0117 123.098 72.5555 123.098 72.073C123.099 71.3609 122.908 70.5799 122.444 69.865C122.028 69.221 121.379 68.6638 120.553 68.2732C120.463 68.1892 120.342 68.0784 120.201 67.9595C120.057 67.8386 119.894 67.7095 119.705 67.5843C119.609 67.5215 119.507 67.459 119.383 67.3982C119.283 67.3499 119.161 67.3025 119.012 67.262L119.013 67.2581C118.994 67.2525 118.978 67.2517 118.959 67.2471Z"/><path id="Vector_6" d="M84.9322 67.3179C84.6908 67.5354 84.4965 67.7468 84.367 67.8948C83.6725 68.2932 83.1264 68.8215 82.778 69.4165C82.381 70.0889 82.2222 70.812 82.2227 71.4746C82.2261 72.2136 82.4057 72.8855 82.7343 73.4602C82.9018 73.7473 83.1086 74.0149 83.3958 74.2459C83.6791 74.4727 84.0707 74.6738 84.5529 74.6951H84.5551L84.7155 74.698C85.3419 74.7009 85.9511 74.5371 86.446 74.2268C87.1972 73.7588 87.6279 73.044 87.865 72.3623C88.1043 71.6716 88.1799 70.9714 88.1815 70.313C88.1799 69.5852 88.0864 68.916 87.9315 68.3511C87.8502 68.0654 87.762 67.8103 87.6068 67.5361C87.5252 67.3984 87.4302 67.2507 87.2477 67.0815C87.1553 66.998 87.0375 66.908 86.8746 66.8306C86.7137 66.7537 86.5005 66.6926 86.2665 66.6934C86.1683 66.6931 86.0422 66.7114 85.9099 66.7461L85.9084 66.7405C85.8851 66.7468 85.8707 66.7549 85.8491 66.7615C85.8326 66.7669 85.8175 66.7678 85.8008 66.7739L85.8024 66.7783C85.6498 66.8303 85.5276 66.8884 85.4291 66.9453C85.2198 67.0708 85.0714 67.1951 84.9322 67.3179Z"/><path id="Vector_7" d="M78.0338 145.33C76.8493 145.331 75.7046 145.507 74.6645 145.933C73.6277 146.355 72.6915 147.049 72.0419 148.028C71.6436 148.625 71.805 149.432 72.4024 149.83C72.9998 150.229 73.807 150.067 74.2053 149.47H74.2052C74.5403 148.971 75.0058 148.606 75.6512 148.338C76.2935 148.073 77.1115 147.929 78.0338 147.93C80.3991 147.919 83.3933 148.896 85.6687 150.451C86.8095 151.225 87.7715 152.135 88.422 153.084C89.0752 154.038 89.416 155.005 89.4165 155.978C89.4164 156.32 89.3748 156.665 89.2843 157.023C89.1409 157.584 88.9189 158.025 88.6334 158.394C88.2052 158.943 87.6153 159.353 86.8393 159.642C86.0667 159.928 85.1163 160.076 84.0726 160.076C81.5307 160.084 78.4694 159.186 76.1644 157.844C75.0103 157.177 74.0461 156.403 73.4149 155.641C72.7764 154.873 72.4971 154.162 72.5004 153.568L72.5087 153.388C72.5759 152.673 72.0508 152.039 71.336 151.972C70.6212 151.905 69.9873 152.43 69.9202 153.145C69.9068 153.287 69.9004 153.428 69.9004 153.568C69.9036 154.97 70.5255 156.233 71.4159 157.303C72.7639 158.913 74.7675 160.208 77.0078 161.156C79.2503 162.096 81.7313 162.673 84.0726 162.676C85.7804 162.673 87.431 162.368 88.8391 161.572C89.5405 161.174 90.1757 160.647 90.6868 159.989C91.1988 159.331 91.5815 158.544 91.8045 157.662C91.9476 157.098 92.0166 156.533 92.0165 155.978C92.0169 154.38 91.447 152.893 90.5653 151.612C89.2361 149.687 87.2161 148.155 84.9882 147.064C82.7557 145.978 80.3091 145.334 78.0338 145.33Z"/><path id="Vector_8" d="M79.4736 154.769L79.6132 154.584C80.045 154.01 79.9299 153.195 79.3562 152.763C78.7826 152.332 77.9676 152.447 77.5358 153.02L77.3962 153.206C76.9644 153.779 77.0794 154.595 77.6531 155.026C78.2268 155.458 79.0418 155.343 79.4736 154.769Z"/><path id="Vector_9" d="M86.9735 157.143L87.1132 156.956C87.5435 156.382 87.4264 155.567 86.8517 155.136C86.2769 154.706 85.4622 154.823 85.0319 155.398L84.8922 155.584C84.4619 156.159 84.579 156.974 85.1538 157.404C85.7285 157.835 86.5432 157.717 86.9735 157.143Z"/><path id="Vector_10" d="M71.9749 132.916C71.2828 133.107 70.8767 133.823 71.0677 134.516V134.515C71.231 135.101 71.2866 135.783 71.2854 136.346C71.2855 136.697 71.2655 137.003 71.246 137.214C71.2363 137.32 71.2267 137.402 71.22 137.455L71.2124 137.512L71.2109 137.523H71.2113C71.1019 138.232 71.5865 138.895 72.2952 139.006C73.0047 139.116 73.6695 138.631 73.7802 137.922C73.7869 137.876 73.8849 137.242 73.8854 136.346C73.8841 135.627 73.8249 134.739 73.574 133.824C73.383 133.131 72.6671 132.725 71.9749 132.916Z"/><path id="Vector_11" d="M88.145 141.892L88.0982 142.053L88.0865 142.091L88.0845 142.098C87.8643 142.781 88.2398 143.513 88.9232 143.734C89.6066 143.954 90.3391 143.578 90.5593 142.895C90.5681 142.867 90.6991 142.459 90.8317 141.86C90.9634 141.258 91.1013 140.471 91.103 139.639C91.103 139.472 91.0972 139.303 91.0836 139.132C91.0264 138.416 90.3998 137.882 89.6842 137.94C88.9685 137.997 88.4346 138.623 88.4918 139.339C88.4992 139.432 88.5029 139.533 88.5029 139.639C88.5046 140.17 88.402 140.812 88.293 141.298C88.2392 141.542 88.1848 141.749 88.145 141.892Z"/><path id="Vector_12" d="M134.325 103.46C134.261 103.398 134.198 103.333 134.132 103.274C135.346 101.449 135.992 99.3049 135.992 97.1221C135.993 95.2419 135.512 93.3311 134.506 91.5898C132.454 88.0371 128.727 86.0459 124.9 86.0479C123.036 86.0474 121.142 86.5232 119.411 87.5132L119.41 87.5112L117.19 88.687C117.143 88.7114 117.115 88.7534 117.073 88.7825C113.136 90.4824 110.38 94.3955 110.379 98.957C110.38 105.038 115.278 109.968 121.344 110.032C121.356 110.548 121.446 111.077 121.624 111.612C121.625 111.616 121.629 111.618 121.63 111.622C121.372 111.869 121.15 112.14 120.985 112.428C120.603 113.094 120.454 113.805 120.453 114.468C120.453 114.752 120.481 115.03 120.535 115.299C120.736 116.311 121.333 117.095 121.989 117.638C122.982 118.458 124.139 118.873 125.062 119.136C125.815 119.345 126.411 119.437 126.631 119.466C133.2 128.054 142.661 138.494 142.674 138.509C143.156 139.041 143.978 139.081 144.51 138.599C145.042 138.117 145.082 137.295 144.6 136.763C144.6 136.762 144.448 136.595 144.166 136.281C142.196 134.088 133.916 124.791 128.261 117.316C127.922 116.867 127.351 116.712 126.843 116.87C126.494 116.813 125.683 116.658 124.907 116.346C124.413 116.151 123.943 115.893 123.625 115.616C123.302 115.333 123.144 115.078 123.084 114.789C123.065 114.691 123.053 114.581 123.053 114.468C123.053 114.106 123.169 113.761 123.371 113.544C123.475 113.431 123.604 113.333 123.809 113.249C124.014 113.166 124.303 113.101 124.712 113.101C125.163 113.1 125.757 113.183 126.501 113.407C127.189 113.613 127.914 113.223 128.12 112.536C128.327 111.848 127.937 111.124 127.249 110.917C126.313 110.636 125.475 110.501 124.712 110.501C124.475 110.501 124.255 110.532 124.032 110.559C123.971 110.32 123.935 110.103 123.935 109.923C123.936 109.627 123.996 109.405 124.096 109.208C124.245 108.917 124.504 108.661 124.912 108.457C125.317 108.255 125.863 108.126 126.477 108.127C127.349 108.126 128.347 108.383 129.265 108.953C129.876 109.331 130.677 109.142 131.055 108.532C131.433 107.922 131.244 107.12 130.634 106.743V106.742C129.477 106.027 128.231 105.657 127.026 105.567C127.025 105.547 127.016 105.518 127.016 105.5C127.019 105.343 127.051 105.24 127.129 105.111C127.244 104.923 127.514 104.684 127.945 104.504C128.371 104.323 128.937 104.209 129.533 104.21C130.698 104.207 131.918 104.634 132.68 105.477C132.842 105.654 133.058 105.787 133.29 105.851C137.837 107.098 142.031 110.496 146.581 113.75C147.166 114.166 147.978 114.029 148.394 113.444C148.81 112.859 148.674 112.048 148.089 111.631C143.723 108.54 139.457 105.004 134.325 103.46ZM132.254 92.8901C133.027 94.2292 133.392 95.6826 133.392 97.1221C133.393 98.5923 133.006 100.043 132.281 101.322C132.448 100.558 132.542 99.7681 132.542 98.957C132.542 94.3135 129.684 90.3442 125.634 88.6953C128.302 88.9282 130.815 90.396 132.254 92.8901ZM126.172 102.506C125.688 102.813 125.252 103.214 124.93 103.725C124.607 104.232 124.414 104.854 124.416 105.5C124.416 105.62 124.429 105.739 124.441 105.858C123.917 106.035 123.42 106.275 122.979 106.607C122.622 106.878 122.322 107.225 122.062 107.605C121.88 107.508 121.682 107.438 121.461 107.438C119.115 107.438 117.002 106.491 115.463 104.954C113.926 103.415 112.98 101.303 112.979 98.957C112.98 96.6106 113.926 94.4985 115.463 92.9597C117.002 91.4228 119.115 90.4763 121.461 90.4756C123.807 90.4763 125.919 91.4229 127.458 92.9597C128.995 94.4985 129.942 96.6106 129.942 98.957C129.942 99.8796 129.795 100.765 129.524 101.594C129.522 101.6 129.524 101.605 129.522 101.611C128.309 101.616 127.141 101.896 126.172 102.506Z"/><path id="Vector_13" d="M67.6614 117.729C66.4691 116.988 65.3538 116.513 64.1803 116.502C63.5423 116.498 62.8849 116.671 62.3356 117.034C61.9229 117.304 61.5795 117.666 61.3094 118.077C60.9036 118.696 60.6467 119.421 60.4772 120.253C60.3094 121.086 60.2319 122.034 60.2314 123.119C60.2317 124.461 60.3521 126.013 60.5943 127.802C60.6907 128.513 61.3456 129.012 62.0571 128.916C62.7686 128.819 63.2671 128.164 63.1708 127.453H63.1707C62.9398 125.75 62.8312 124.304 62.8315 123.119C62.8245 121.416 63.0746 120.253 63.3734 119.692C63.5206 119.408 63.6548 119.279 63.7592 119.21C63.8664 119.143 63.9662 119.106 64.1803 119.102C64.5616 119.091 65.3172 119.318 66.277 119.93C67.2384 120.534 68.3992 121.483 69.6943 122.745C70.2086 123.246 71.0315 123.235 71.5324 122.721C72.0333 122.207 72.0225 121.384 71.5082 120.883C70.1243 119.536 68.8519 118.48 67.6614 117.729Z"/></g></g></svg>