<svg xmlns="http://www.w3.org/2000/svg" width="200" height="200" fill="none"><path fill="#FFD93A" d="M132.885 98.467a4.235 4.235 0 0 0-1.963 3.806l.981 18.272a4.237 4.237 0 0 0 4.456 4.002l18.272-.98a4.234 4.234 0 0 0 4.002-4.456l-.524-9.786-2.37-5.231s-2.614-.253-4.383-2.36c-1.771-2.107-.337-2.95-3.878-3.708-3.54-.76-9.715-.718-14.593.441ZM164.53 159.997h-23.564a1.603 1.603 0 0 1-1.603-1.603V134.83c0-.885.718-1.603 1.603-1.603h23.564c.885 0 1.603.718 1.603 1.603v23.564c0 .885-.718 1.603-1.603 1.603ZM148.78 186.952h-23.564a1.603 1.603 0 0 1-1.603-1.602v-23.564c0-.885.718-1.603 1.603-1.603h23.564c.885 0 1.603.718 1.603 1.603v23.564c0 .885-.718 1.602-1.603 1.602ZM175.734 186.921h-23.563a1.602 1.602 0 0 1-1.603-1.602v-23.565c0-.884.717-1.602 1.603-1.602h23.563c.886 0 1.603.718 1.603 1.602v23.565c0 .885-.717 1.602-1.603 1.602Z"/><path fill="#191C22" d="M90.305 53.213c-.331.067-.993.73-.993.73-2.475 1.01-1.873 3.731-.954 3.81 2.86.248 2.516-4.654 1.947-4.54Z"/><path fill="#191C22" d="m90.304 53.213-.256-1.275c-.204.043-.339.103-.456.16-.388.198-.623.408-.839.59-.205.18-.349.324-.363.338l.92.918-.49-1.204c-.869.35-1.542.914-1.964 1.568a3.7 3.7 0 0 0-.598 2.017c.003.588.13 1.133.405 1.625.14.245.319.48.574.686.252.203.6.377 1.008.412.11.01.217.014.319.014a3.076 3.076 0 0 0 1.762-.532c.735-.513 1.128-1.236 1.358-1.916a6.38 6.38 0 0 0 .309-1.995 5.34 5.34 0 0 0-.153-1.331 2.376 2.376 0 0 0-.27-.655 1.588 1.588 0 0 0-.374-.42 1.424 1.424 0 0 0-.873-.303c-.104 0-.26.012-.437.072l.418 1.231-.256-1.275.256 1.275.418 1.23-.398-1.173v1.24c.09 0 .234-.01.398-.066l-.398-1.174v1.24-1.177l-.726.93c.137.112.406.25.725.247v-1.177l-.725.93.534-.685-.81.352c.02.025.032.128.276.334l.534-.686-.81.352.19-.083-.195.074.004.01.191-.084-.195.074.016.057c.029.117.06.365.06.64.006.512-.114 1.134-.299 1.466a.829.829 0 0 1-.242.304c-.068.041-.116.07-.288.074l-.094-.004-.061.712.452-.565a.733.733 0 0 0-.39-.147l-.062.712.452-.565-.196.244.262-.177-.066-.067-.196.244.262-.177-.01-.022a.838.838 0 0 1-.06-.325 1.1 1.1 0 0 1 .178-.6c.13-.193.333-.397.767-.578.16-.065.307-.163.43-.286v-.001c.02-.02.17-.165.318-.287l.182-.137.016-.01-.31-.543.122.604c.168-.038.186-.064.188-.061l-.31-.543.122.605.162-.044-.418-1.23ZM119.346 51.793c-.318.084-.895.791-.895.791-2.313 1.145-1.438 3.884-.53 3.921 2.824.114 1.97-4.855 1.425-4.712Z"/><path fill="#191C22" d="m119.345 51.793-.332-1.257c-.21.057-.345.13-.461.197a2.966 2.966 0 0 0-.459.345c-.365.33-.626.658-.649.684l1.007.822-.577-1.165c-.751.368-1.332.914-1.692 1.529a3.677 3.677 0 0 0-.508 1.88 3.65 3.65 0 0 0 .469 1.816c.154.265.346.514.617.732.267.214.641.407 1.106.428h.005l.144.002a3.003 3.003 0 0 0 1.598-.436c.697-.434 1.092-1.095 1.307-1.713.217-.627.284-1.255.285-1.843a6.729 6.729 0 0 0-.224-1.757 3.221 3.221 0 0 0-.3-.75 1.777 1.777 0 0 0-.345-.436 1.49 1.49 0 0 0-.366-.246 1.378 1.378 0 0 0-1.06-.057l.435 1.225-.332-1.257.332 1.257.435 1.225-.412-1.16v1.231c.128 0 .268-.02.412-.07l-.412-1.16v1.23-1.191l-.508 1.078c.127.06.307.114.508.113v-1.191l-.508 1.078.445-.943-.825.647c.051.06.138.176.38.296l.445-.943-.825.647.426-.334-.484.248.058.086.426-.334-.484.248.002.003c.017.034.077.216.115.44.04.225.067.502.066.777.007.496-.103.983-.229 1.187a.42.42 0 0 1-.134.16c-.033.017-.069.043-.227.046h-.045.005l-.029.682.435-.546a.701.701 0 0 0-.406-.137l-.029.683.435-.546-.161.202.192-.174-.031-.028-.161.202.192-.174-.018.017.019-.015-.001-.002-.018.017.019-.015c-.022-.01-.149-.28-.139-.545 0-.197.045-.387.146-.558.104-.17.262-.347.607-.52a1.33 1.33 0 0 0 .431-.344c.017-.02.146-.174.274-.3l.151-.139.009-.006-.388-.568.174.657c.18-.053.208-.09.214-.09l-.388-.567.174.657.102-.032-.435-1.225ZM97.94 65.14a5.852 5.852 0 0 0 2.283.474c1.545-.002 2.831-.631 3.771-1.35a7.552 7.552 0 0 0 1.184-1.13 5.16 5.16 0 0 0 .73-1.108l-1.18-.545-1.163.581c.042.078.438.871 1.28 1.712.423.418.962.85 1.637 1.184a5.378 5.378 0 0 0 2.399.563c.981.001 2.052-.266 3.162-.853a1.3 1.3 0 1 0-1.214-2.3c-.8.42-1.432.552-1.948.553a2.766 2.766 0 0 1-1.247-.294c-.546-.267-1.006-.71-1.313-1.094a4.961 4.961 0 0 1-.342-.482l-.077-.131-.014-.026-.001-.002-.69.354.694-.347-.004-.007-.69.354.694-.347a1.305 1.305 0 0 0-1.183-.718 1.305 1.305 0 0 0-1.16.754 2.71 2.71 0 0 1-.363.529 4.878 4.878 0 0 1-1.261 1.063c-.519.3-1.09.487-1.701.487a3.25 3.25 0 0 1-1.274-.27 1.3 1.3 0 1 0-1.008 2.397Z"/><path fill="#191C22" d="M100.39 64.758c.225 1.276.56 2.563 1.198 3.666.322.549.73 1.06 1.282 1.454a3.41 3.41 0 0 0 2.294.625l.012-.001a3.898 3.898 0 0 0 2.006-.764c.831-.62 1.375-1.46 1.763-2.324a9.62 9.62 0 0 0 .723-2.624 1.3 1.3 0 1 0-2.578-.336c-.104.826-.394 1.788-.805 2.448-.204.332-.43.585-.648.745-.222.16-.42.24-.677.263h.012l-.108.004a.786.786 0 0 1-.489-.156c-.24-.162-.557-.574-.815-1.199-.26-.618-.466-1.415-.608-2.243a1.3 1.3 0 1 0-2.562.442ZM122.431 176.925c-2.256.402-6.102.844-10.324 1.231a352.53 352.53 0 0 1-12.718.93 154.9 154.9 0 0 1-8.13.2c-.97 0-1.966-.008-2.985-.024a1.3 1.3 0 1 0-.041 2.6c1.032.016 2.042.024 3.025.024 3.086 0 5.898-.078 8.27-.204 3.91-.209 8.555-.546 12.817-.937 4.265-.392 8.128-.832 10.541-1.26a1.299 1.299 0 1 0-.455-2.559v-.001ZM150.754 124.653c.324 1.697 1.176 5.913 1.485 7.688a1.3 1.3 0 1 0 2.562-.445c-.323-1.85-1.173-6.056-1.493-7.731a1.3 1.3 0 1 0-2.554.488Z"/><path fill="#191C22" d="M147.533 91.045c-4.464-37.776-14.955-79.036-14.961-79.065a1.3 1.3 0 0 0-2.116-.658c-.972.85-2.539 2.33-4.37 4.096-5.486 5.289-13.277 13.08-13.28 13.083l.919.92.152-1.292c-2.88-.338-6.329-.46-9.897-.461-10.538 0-22.104 1.078-22.125 1.08l.12 1.294 1.035-.788c-2.563-3.36-6.24-7.201-9.292-10.23a192.793 192.793 0 0 0-5.48-5.23 1.296 1.296 0 0 0-1.243-.285c-.437.13-.772.475-.888.916-2.877 10.963-11.634 50.55-14.427 86.954l1.296.099-1.256-.337c-.01.046-7.48 27.892-9.172 55.757-.03.488-.044.968-.044 1.441-.008 4.852 1.57 8.917 4.263 12.071 2.691 3.159 6.442 5.416 10.767 6.915 2 .691 4.534 1.286 7.262 1.809a1.3 1.3 0 0 0 .489-2.553c-2.657-.508-5.107-1.091-6.9-1.713-4.007-1.388-7.334-3.434-9.638-6.143-2.3-2.715-3.636-6.084-3.643-10.386 0-.419.013-.846.04-1.284.833-13.758 3.106-27.585 5.171-37.959a344.403 344.403 0 0 1 2.735-12.54 247.256 247.256 0 0 1 1.1-4.431l.081-.311.041-.237c2.766-36.13 11.514-75.701 14.35-86.492l-1.257-.33-.875.962.416.382c.946.873 3.392 3.157 6.135 5.926 2.742 2.766 5.786 6.028 7.9 8.805.272.356.71.548 1.155.507 0 0 .176-.017.51-.046 2.333-.204 12.3-1.024 21.374-1.023 3.505 0 6.879.123 9.593.443.396.047.789-.09 1.071-.371a1370.756 1370.756 0 0 1 10.37-10.256c2.973-2.906 5.804-5.626 7.154-6.806l-.856-.978-1.26.32c0 .002.162.638.456 1.836 2.061 8.38 10.564 44.048 14.443 76.894a1.3 1.3 0 0 0 2.583-.305h-.001Z"/><path fill="#191C22" d="M42.96 155.168c-2.106.617-4.18.905-6.167.905-3.597 0-6.913-.942-9.635-2.576-2.723-1.636-4.848-3.959-6.094-6.742-1.027-2.296-1.464-4.607-1.464-6.665-.004-2.178.499-4.07 1.231-5.315.364-.624.778-1.081 1.18-1.363.406-.283.78-.403 1.185-.405l.178.009.009.001c.247.023.57.151.997.502.746.602 1.655 1.831 2.642 3.325 1.496 2.241 3.216 5.066 5.581 7.39 1.184 1.162 2.54 2.2 4.12 2.949 1.577.75 3.38 1.201 5.39 1.199.825 0 1.684-.074 2.578-.23a1.3 1.3 0 0 0-.446-2.561 12.46 12.46 0 0 1-2.131.192c-2.476-.006-4.421-.809-6.15-2.081-2.586-1.904-4.571-4.935-6.337-7.632-.89-1.349-1.724-2.61-2.636-3.628-.459-.509-.94-.961-1.488-1.321-.545-.358-1.174-.625-1.868-.692l.009.001a4.273 4.273 0 0 0-.448-.023c-.981-.003-1.912.332-2.684.88-1.163.827-2.015 2.088-2.605 3.594-.587 1.509-.906 3.284-.907 5.209 0 2.423.511 5.088 1.691 7.727 1.477 3.302 3.986 6.022 7.128 7.909 3.143 1.887 6.923 2.946 10.974 2.946a24.55 24.55 0 0 0 6.898-1.008 1.3 1.3 0 0 0-.73-2.495v-.001ZM68.642 135.954c-1.208 7.095-1.573 14.421-1.573 20.738 0 9.931.905 17.365.91 17.4l1.29-.157-.832-1c-.037.032-1.163.968-2.325 2.362-.581.699-1.174 1.513-1.64 2.416-.463.903-.816 1.905-.82 2.999a4.367 4.367 0 0 0 .965 2.764 4.11 4.11 0 0 0 1.9 1.316c.69.238 1.385.312 2.038.313 1.962-.01 3.644-.661 3.72-.682l-.454-1.218-1.18.548c.04.08.39.832 1.163 1.651.387.409.885.834 1.514 1.178a5.373 5.373 0 0 0 2.257.651c.153.01.301.014.445.014 1.808.007 3.154-.728 3.959-1.462.815-.736 1.153-1.446 1.203-1.549l-1.179-.548-.558 1.174c.04.018.53.25 1.278.484.75.233 1.756.475 2.869.477a6.04 6.04 0 0 0 1.81-.26 4.64 4.64 0 0 0 1.758-1.004c.55-.505.97-1.067 1.244-1.666.275-.598.399-1.227.398-1.826-.002-1.012-.329-1.922-.755-2.711-.645-1.185-1.536-2.142-2.268-2.836-.732-.69-1.311-1.107-1.344-1.131l-.758 1.057 1.3.033c0-.001.006-.266.022-.773.113-3.553.678-18.861 2.472-35.477a1.3 1.3 0 0 0-2.586-.279c-2.063 19.114-2.507 36.441-2.508 36.462-.01.43.192.839.542 1.09l.252-.352-.254.351.002.001.252-.352-.254.351c.014.008.912.665 1.753 1.598.421.465.826.997 1.105 1.521.282.525.43 1.027.427 1.447a1.74 1.74 0 0 1-.162.742c-.115.252-.307.529-.638.835a2.022 2.022 0 0 1-.78.438 3.446 3.446 0 0 1-1.03.141c-.718.003-1.507-.173-2.093-.358a8.925 8.925 0 0 1-.704-.252l-.187-.078-.042-.019-.007-.003-.18.383.182-.382-.002-.001-.18.383.182-.382a1.301 1.301 0 0 0-1.736.625l.445.207-.438-.223-.007.016.445.207-.438-.223a2.84 2.84 0 0 1-.675.801c-.453.368-1.082.716-2.137.723-.094 0-.19-.003-.287-.009a2.761 2.761 0 0 1-1.17-.339c-.505-.273-.918-.697-1.19-1.058a4.32 4.32 0 0 1-.3-.449l-.065-.119-.012-.022-.355.173.359-.166-.004-.007-.355.173.359-.166a1.3 1.3 0 0 0-1.634-.671l.129.346-.127-.346h-.002l.129.346-.127-.346c-.02.014-1.498.527-2.813.518-.447.001-.865-.057-1.186-.169-.325-.115-.543-.263-.718-.479a1.747 1.747 0 0 1-.398-1.145c-.004-.499.183-1.14.53-1.807.512-1.001 1.354-2.027 2.063-2.771a18.99 18.99 0 0 1 1.17-1.127l.067-.059.017-.014c.341-.283.513-.716.46-1.156 0-.001-.014-.107-.038-.324-.169-1.516-.854-8.209-.853-16.761 0-6.216.362-13.414 1.537-20.302a1.3 1.3 0 0 0-2.563-.437ZM159.112 108.798l-.315-1.261-.07.01-.044-.021c-.085-.045-.326-.337-.514-.805-.295-.697-.499-1.699-.604-2.497a16.846 16.846 0 0 1-.107-.999l-.019-.287-.004-.072-.001-.018a1.299 1.299 0 0 0-1.863-1.122l.207.43-.19-.437-.017.007.207.43-.19-.437c-.021.011-.43.176-.961.174-.51-.006-1.114-.12-1.816-.667-.734-.581-1.097-1.114-1.297-1.546a2.407 2.407 0 0 1-.235-.998c0-.094.008-.16.012-.193l.004-.023-.638-.132.63.166.008-.034-.638-.132.63.166c.114-.433 0-.89-.305-1.217a1.297 1.297 0 0 0-1.192-.393l.006.032-.006-.032.006.032-.006-.032c-.042.009-.74.129-1.575.128-.672.003-1.43-.086-1.956-.297a1.863 1.863 0 0 1-.608-.363 1.085 1.085 0 0 1-.301-.488 1.213 1.213 0 0 1-.055-.365c-.001-.256.077-.563.251-.89.255-.488.731-.997 1.274-1.349.54-.357 1.136-.545 1.559-.54.214.001.382.04.523.106a1.3 1.3 0 0 0 1.428-.212l.001-.001a6.488 6.488 0 0 1 1.291-.826c.756-.374 1.775-.717 2.943-.716 1.204.005 2.586.34 4.173 1.483 1.378 1 2.188 2.016 2.673 2.98.483.964.647 1.893.648 2.753a7.403 7.403 0 0 1-.447 2.476 6.946 6.946 0 0 1-.304.721l-.091.177-.02.036.083.048-.083-.05-.001.002.084.048-.083-.05a1.303 1.303 0 0 0 .13 1.521c.064.078.116.173.121.44.002.265-.083.666-.266 1.098-.268.651-.744 1.367-1.241 1.901a4.82 4.82 0 0 1-.712.642 1.52 1.52 0 0 1-.434.234l.317 1.261.316 1.261c.66-.173 1.185-.518 1.694-.936.752-.633 1.44-1.467 1.981-2.398.532-.935.935-1.955.945-3.063.005-.714-.205-1.51-.753-2.139l-.984.849 1.114.671c.058-.112 1.223-2.019 1.234-4.75a8.668 8.668 0 0 0-.924-3.92c-.683-1.363-1.802-2.711-3.472-3.919-1.985-1.445-3.976-1.982-5.698-1.977-1.79.001-3.267.55-4.295 1.088-1.031.54-1.628 1.076-1.687 1.128l.874.963.555-1.175a3.813 3.813 0 0 0-1.633-.354c-1.446.014-2.77.673-3.818 1.61a6.16 6.16 0 0 0-1.312 1.66c-.334.63-.553 1.344-.554 2.108 0 .375.055.76.171 1.135.197.643.56 1.196.999 1.608.663.622 1.452.945 2.204 1.133a9.047 9.047 0 0 0 2.146.237c1.143-.001 2.004-.164 2.054-.172l-.239-1.278-1.257-.332a3.45 3.45 0 0 0-.094.846c0 .525.097 1.265.472 2.081.373.817 1.023 1.696 2.049 2.504 1.181.939 2.451 1.232 3.427 1.226 1.183-.004 1.961-.374 2.072-.424l-.564-1.171-1.299.05c.004.046.058 1.584.444 3.224.199.824.468 1.677.947 2.442.243.381.546.748.965 1.043.413.294.964.494 1.535.49.233 0 .469-.03.699-.088l-.314-1.261Z"/><path fill="#191C22" d="M144.496 95.967c-.011 0-2.509.064-5.24.248-1.366.092-2.789.213-4.008.376-.61.082-1.169.174-1.66.284-.496.117-.905.224-1.336.457a4.861 4.861 0 0 0-1.981 2.008c-.448.857-.644 1.846-.648 2.927v.044c0 .55.037 1.797.098 3.441.091 2.461.237 5.769.399 8.675a191.3 191.3 0 0 0 .249 3.903 53.3 53.3 0 0 0 .125 1.444c.042.411.082.736.131 1.007a6.198 6.198 0 0 0 1.899 3.467c.981.899 2.28 1.474 3.726 1.594.415.034.983.045 1.721.046 2.211 0 5.847-.121 9.225-.309 1.689-.095 3.31-.206 4.657-.33a45.48 45.48 0 0 0 1.796-.194c.52-.069.942-.138 1.302-.228 1.426-.36 2.647-1.001 3.532-1.981.888-.977 1.371-2.261 1.449-3.658.022-.377.03-.824.031-1.33-.001-3.02-.312-8.181-.312-8.194a1.3 1.3 0 0 0-2.596.155l.048.847c.087 1.581.26 5.042.26 7.192 0 .475-.009.885-.027 1.174-.061.934-.33 1.562-.784 2.072-.457.507-1.166.929-2.239 1.202a9.52 9.52 0 0 1-1.004.171c-1.643.218-4.567.425-7.518.572-2.953.148-5.961.239-7.82.239a20.51 20.51 0 0 1-1.503-.037c-.905-.078-1.633-.416-2.19-.923-.556-.508-.942-1.195-1.096-2.02a15.948 15.948 0 0 1-.141-1.203c-.185-2.036-.392-5.825-.55-9.3-.079-1.74-.146-3.404-.193-4.741a105.314 105.314 0 0 1-.075-2.753v-.032c.004-.784.143-1.337.352-1.735.212-.398.488-.682.945-.942l.044-.02c.124-.053.447-.146.859-.226 1.465-.291 4.047-.5 6.205-.621a146.29 146.29 0 0 1 3.934-.169 1.3 1.3 0 0 0-.066-2.599ZM161.896 159.997v-1.3h-18.299a2.226 2.226 0 0 1-1.003-.231c-.445-.22-.86-.613-1.206-1.148a5.828 5.828 0 0 1-.759-1.847 8.377 8.377 0 0 1-.115-.989c-.116-1.516-.17-4.217-.17-7.006 0-2.144.031-4.351.086-6.156.027-.902.061-1.704.098-2.34a15.14 15.14 0 0 1 .116-1.301c.151-.879.455-1.526.932-2.031.48-.501 1.177-.909 2.293-1.15.218-.047.666-.107 1.231-.154 1.711-.146 4.548-.221 7.401-.22 1.98 0 3.976.035 5.633.102.828.033 1.572.075 2.18.123.606.047 1.088.105 1.334.154 1.049.209 1.695.605 2.186 1.13.487.527.825 1.239 1.031 2.124.026.1.078.482.114.974.116 1.504.17 4.19.17 6.971 0 2.138-.031 4.343-.086 6.153a88.89 88.89 0 0 1-.098 2.358c-.037.64-.083 1.139-.117 1.341-.142.895-.53 1.728-1.047 2.281-.526.555-1.115.854-1.905.862v2.599c1.549.008 2.897-.691 3.813-1.695.926-1.005 1.487-2.29 1.706-3.633.062-.397.104-.917.145-1.604.119-2.039.189-5.416.189-8.662 0-1.879-.024-3.708-.076-5.204a49.39 49.39 0 0 0-.101-1.965c-.045-.56-.088-.983-.174-1.364-.277-1.192-.78-2.351-1.652-3.298-.868-.949-2.098-1.633-3.602-1.92-.432-.083-.964-.141-1.624-.194-1.964-.155-5-.233-8.019-.233-1.933 0-3.853.032-5.464.1-.806.034-1.535.076-2.157.129-.625.054-1.131.113-1.554.203-1.501.317-2.741.958-3.634 1.9-.896.94-1.402 2.131-1.612 3.39-.065.392-.106.9-.147 1.58-.119 2.017-.189 5.394-.189 8.65 0 1.884.024 3.722.076 5.226.026.752.059 1.421.102 1.977.044.564.088.99.173 1.372.284 1.226.824 2.467 1.716 3.479a5.38 5.38 0 0 0 1.628 1.265 4.814 4.814 0 0 0 2.158.501h18.299v-1.299Z"/><path fill="#191C22" d="m146.147 186.952-.241-1.278c-.172.034-.629.085-1.216.125-1.784.124-4.896.202-7.958.201-2.043 0-4.072-.034-5.68-.109a36.155 36.155 0 0 1-2.033-.141 10.474 10.474 0 0 1-.648-.086l-.189-.039-.048-.012-.009-.003-.032.096.036-.095-.004-.001-.032.096.036-.095c-.752-.285-1.42-.682-1.973-1.214-.553-.535-1.003-1.204-1.314-2.103-.022-.051-.091-.359-.136-.766-.151-1.25-.219-3.519-.217-5.96 0-2.285.054-4.744.134-6.78.04-1.018.086-1.93.135-2.658.047-.723.101-1.283.138-1.505.125-.778.523-1.499 1.103-2.067a4.055 4.055 0 0 1 2.08-1.096 6.74 6.74 0 0 1 .64-.059c.99-.061 2.767-.086 4.787-.085 2.698 0 5.854.041 8.332.082 2.478.041 4.275.083 4.279.083h.03a2.94 2.94 0 0 1 2.935 2.935v.024c0 .004.032 1.765.064 4.208.032 2.443.064 5.563.064 8.264 0 1.35-.008 2.596-.028 3.594-.018.991-.054 1.768-.091 2.053-.117.919-.465 1.559-.99 2.068-.526.504-1.27.871-2.194 1.045l.24 1.278.24 1.277c1.325-.249 2.554-.808 3.51-1.72.958-.907 1.603-2.173 1.775-3.635.06-.511.088-1.28.11-2.314.02-1.027.028-2.286.028-3.646 0-5.44-.128-12.515-.128-12.519l-1.3.023h1.3a5.536 5.536 0 0 0-5.535-5.535v1.3l.029-1.3c-.005 0-7.225-.165-12.67-.165-1.362 0-2.614.01-3.623.036-.504.014-.948.031-1.322.053a8.46 8.46 0 0 0-.944.097 6.64 6.64 0 0 0-3.437 1.796c-.937.917-1.627 2.127-1.851 3.511-.065.409-.114.981-.166 1.747-.15 2.278-.274 6.119-.274 9.61 0 1.661.028 3.24.097 4.539.034.651.079 1.231.138 1.729.063.503.125.903.259 1.304.436 1.27 1.126 2.32 1.97 3.13.844.812 1.832 1.386 2.857 1.773.248.092.461.136.711.182.85.146 2.105.23 3.654.291 1.541.058 3.343.084 5.157.084 2.072 0 4.156-.034 5.875-.095.86-.031 1.627-.068 2.263-.113.64-.045 1.127-.091 1.517-.163l-.24-1.277Z"/><path fill="#191C22" d="m173.101 186.921-.081-1.297c-.789.049-2.88.114-5.361.165-2.486.05-5.385.088-7.862.088-1.247 0-2.387-.01-3.307-.032-.915-.02-1.635-.058-1.94-.098-.953-.124-1.573-.48-1.999-.97-.421-.493-.68-1.174-.683-2.091v-18.299a2.94 2.94 0 0 1 2.935-2.936h.031c.004 0 1.757-.042 4.192-.083 2.434-.042 5.546-.084 8.244-.084 1.348 0 2.594.01 3.592.036.499.013.937.03 1.29.05.35.02.624.046.75.066 1.071.165 1.798.487 2.258.92.234.221.418.476.57.817.15.341.263.774.311 1.327.055.614.105 2.035.136 3.772a333.017 333.017 0 0 1 .003 11.149 88.151 88.151 0 0 1-.058 1.962c-.023.535-.052.951-.076 1.144-.107.872-.442 1.63-.934 2.158-.499.526-1.135.871-2.093.939l.082 1.297.082 1.298c1.569-.092 2.915-.764 3.834-1.765.926-.999 1.445-2.279 1.609-3.609.041-.339.068-.779.094-1.349.073-1.698.106-4.478.106-7.349 0-2.058-.017-4.158-.05-5.923-.033-1.77-.078-3.179-.145-3.951-.068-.783-.237-1.502-.521-2.147a5.042 5.042 0 0 0-1.964-2.275c-.845-.529-1.811-.824-2.848-.985-.28-.042-.6-.068-.996-.092-1.176-.067-2.987-.09-5.032-.09-5.446 0-12.493.168-12.498.168l.031 1.3v-1.3a5.534 5.534 0 0 0-5.535 5.535v18.299c-.004 1.422.431 2.764 1.311 3.786.877 1.026 2.168 1.676 3.65 1.855.511.062 1.241.094 2.199.118.953.023 2.109.032 3.369.032 2.502 0 5.414-.038 7.915-.089 2.507-.051 4.578-.114 5.47-.17l-.081-1.297ZM147.726 103.406c-1.253.021-2.269.029-3.118.065-.638.027-1.18.068-1.678.154a4.341 4.341 0 0 0-1.072.313 2.695 2.695 0 0 0-.737.489 2.535 2.535 0 0 0-.687 1.141 4.242 4.242 0 0 0-.149 1.202c0 .341.024.694.06 1.08.048.509.08.958.141 1.393.047.326.107.648.234.988.096.254.236.521.442.763.306.368.75.629 1.18.754.434.13.866.166 1.344.167.339 0 .701-.021 1.103-.055l.004-.001a7.48 7.48 0 0 1 .655-.031c.645 0 1.097.099 1.408.225.462.194.649.414.8.685.145.269.208.621.206.916 0 .127-.011.241-.023.321v-.004c-.045.292-.281.788-.942 1.229-.657.439-1.751.829-3.435.829-.294 0-.606-.012-.936-.037a1.3 1.3 0 0 0-.197 2.593c.391.029.769.044 1.133.044 2.08 0 3.704-.483 4.879-1.267 1.172-.783 1.884-1.863 2.065-2.977l.001-.004c.034-.218.055-.461.055-.727-.002-.809-.192-1.905-1.004-2.862a4.165 4.165 0 0 0-1.633-1.152c-.677-.272-1.467-.412-2.377-.412-.284 0-.579.014-.887.042l.005-.001c-.356.031-.651.046-.88.046-.389.003-.592-.05-.612-.062l-.003.008.004-.008h-.001l-.003.008.004-.008-.115.209.202-.127-.087-.082-.115.209.202-.127-.039.024.041-.021-.002-.003-.039.024.041-.021c-.007-.003-.066-.163-.105-.468-.043-.302-.076-.733-.125-1.262a9.412 9.412 0 0 1-.049-.838c0-.202.015-.345.032-.421l.017-.064.003-.008-.119-.054.092.09.027-.036-.119-.054.092.09-.081-.079.068.09.013-.011-.081-.079.068.09.051-.026c.14-.07.645-.175 1.455-.214.812-.046 1.926-.055 3.365-.078a1.3 1.3 0 0 0-.042-2.599v-.001ZM148.806 152.861c.612.44 1.302.715 1.992.917.693.196 1.368.307 1.99.31H152.861c1.391-.016 2.561-.503 3.373-1.227a4.883 4.883 0 0 0 1.64-3.68c0-.44-.057-.935-.228-1.451a4.008 4.008 0 0 0-1.691-2.137c-.887-.558-2.041-.863-3.501-.888l-.023 1.3.052 1.299c.088-.009 1.224-.041 2.507-.595.639-.28 1.331-.705 1.889-1.389.561-.68.935-1.635.928-2.718 0-.12-.005-.237-.012-.353v-.004a4.213 4.213 0 0 0-.498-1.757 4.034 4.034 0 0 0-1.807-1.685 5.228 5.228 0 0 0-2.271-.497c-1.354.009-2.727.446-3.741 1.445a1.301 1.301 0 0 0 1.842 1.836c.364-.384 1.141-.69 1.899-.681.572-.002 1.096.161 1.418.404.164.122.286.259.38.429.093.171.163.381.183.679v-.004l.007.188c-.008.537-.143.817-.347 1.079-.3.387-.911.694-1.488.849a5.321 5.321 0 0 1-.945.173l-.047.003h-.001a1.302 1.302 0 0 0-1.248 1.314 1.302 1.302 0 0 0 1.278 1.285c.751.013 1.3.121 1.686.261.579.217.802.461.96.714.153.255.22.579.219.901a2.295 2.295 0 0 1-.758 1.729c-.365.313-.853.558-1.697.578l.021 1.3.018-1.3h-.07c-.28.003-.793-.069-1.273-.209-.483-.135-.951-.349-1.178-.52a1.3 1.3 0 1 0-1.531 2.102ZM134.511 171.159l1.831-1.349-.167 10.762a1.3 1.3 0 0 0 2.6.041l.207-13.385a1.302 1.302 0 0 0-2.071-1.067l-3.943 2.905a1.3 1.3 0 0 0 1.543 2.094v-.001Z"/><path fill="#191C22" d="M160.559 166.836c-.128 1.306-.727 3.376-1.299 5.046a62.176 62.176 0 0 1-1.012 2.761l-.09.224a1.3 1.3 0 0 0 1.218 1.79l7.175-.078a1.3 1.3 0 1 0-.028-2.599l-7.175.077.014 1.3 1.205.49c.006-.016.558-1.373 1.155-3.128.595-1.766 1.241-3.889 1.424-5.617a1.3 1.3 0 0 0-2.586-.266h-.001Z"/><path fill="#191C22" d="m165.626 168.857-.389 12.139a1.3 1.3 0 0 0 2.599.083l.388-12.139a1.3 1.3 0 0 0-2.598-.083ZM29.44 53.127c2.852-.222 5.646-.32 8.354-.32 9.88 0 18.616 1.304 24.87 2.609 3.127.652 5.633 1.304 7.353 1.791a71.183 71.183 0 0 1 2.471.749l.124.04.037.013a1.3 1.3 0 0 0 .848-2.457c-.085-.027-15.486-5.342-35.704-5.346-2.77 0-5.63.1-8.555.33a1.3 1.3 0 1 0 .202 2.591ZM25.696 66.14c9.044-2.935 18.076-3.835 25.713-3.834 5.922 0 11.004.54 14.595 1.079 1.796.27 3.22.538 4.19.739a46.408 46.408 0 0 1 1.383.307l.086.021a1.3 1.3 0 0 0 .642-2.519c-.07-.017-8.736-2.226-20.896-2.227-7.84 0-17.136.919-26.516 3.962a1.3 1.3 0 1 0 .803 2.473ZM31.339 79.442c7.868-4.091 17.758-6.263 25.652-7.375a132.09 132.09 0 0 1 9.857-1.017 103.777 103.777 0 0 1 3.65-.172l.257-.005a1.3 1.3 0 0 0-.034-2.6c-.038.001-6.038.08-14.094 1.22-8.059 1.143-18.168 3.329-26.486 7.641a1.3 1.3 0 1 0 1.198 2.308ZM135.516 57.552c14.645-4.646 27.957-5.53 35.913-5.529 2.423 0 4.349.082 5.665.163a56.58 56.58 0 0 1 1.88.147l.119.013a1.3 1.3 0 0 0 .294-2.583c-.041-.005-2.995-.34-7.958-.34-8.147.001-21.711.898-36.699 5.65a1.3 1.3 0 1 0 .786 2.479ZM135.963 64.481l.385-.048c1.794-.22 9.662-1.105 19.114-1.105 8.548-.004 18.404.736 26.148 3.279a1.3 1.3 0 0 0 .81-2.471c-8.21-2.685-18.257-3.404-26.958-3.407-10.985 0-19.805 1.17-19.841 1.175a1.3 1.3 0 0 0 .342 2.577ZM137.546 71.028h.041c.091-.003.331-.008.706-.008 3.812-.007 21.552.495 38.166 8.745a1.3 1.3 0 0 0 1.155-2.33c-17.237-8.537-35.293-9.008-39.321-9.015-.528 0-.816.01-.828.01a1.3 1.3 0 1 0 .081 2.599Z"/></svg>