<svg width="200" height="200" viewBox="0 0 200 200" xmlns="http://www.w3.org/2000/svg"><g id="type=sad, mode=light"><path id="Vector" d="M112.448 93.6426C114.565 91.2709 116.737 88.9008 117.756 87.7894C117.849 87.2164 117.965 86.2979 118.093 85.1664C118.243 83.8472 118.41 82.2547 118.587 80.599C118.63 80.2012 118.673 79.7999 118.717 79.398C118.767 78.9362 116.114 73.7954 117.501 69.9376C118.731 66.516 124.02 64.3045 124.047 64.2693C124.715 63.3757 125.444 62.4118 126.201 61.4151C124.99 61.1945 123.171 60.8434 121.686 60.4726C120.98 60.3122 120.288 60.0955 119.617 59.8245C119.486 59.7656 119.37 59.6794 119.275 59.5717C119.181 59.4639 119.111 59.3372 119.069 59.2C118.909 58.6179 118.785 58.0263 118.698 57.4286C118.593 56.7661 118.504 56.0558 118.429 55.3999C118.383 54.9853 118.343 54.5983 118.31 54.2549C110.787 58.0311 103.779 61.5533 102.676 62.1225C102.29 62.3485 100.605 63.3648 98.1014 64.8832C96.0019 66.1564 93.3176 67.7879 90.3236 69.6121C85.438 75.5 78.0169 77.1332 77.2347 77.6131C72.8888 80.2792 68.6072 82.9168 64.9638 85.1811C62.7183 86.5766 60.7145 87.831 59.0869 88.8627C58.2496 89.3934 57.5108 89.8658 56.8936 90.2659C57.4551 91.0748 58.0617 91.8513 58.7106 92.5919C62.2149 96.5802 67.1835 99.8059 73.9463 102.015C80.7125 104.226 89.2813 105.441 100.102 105.442C102.217 105.441 104.232 105.387 106.179 105.296C106.28 104.502 106.412 103.57 106.572 102.67C106.614 102.436 106.656 102.204 106.702 101.978C106.831 101.265 107.018 100.564 107.263 99.8816L107.35 99.7092C107.534 99.421 107.791 99.0812 108.122 98.6635C108.453 98.2481 108.854 97.7642 109.307 97.2314C110.211 96.1664 111.319 94.9067 112.448 93.6426Z"/><path id="Vector_2" d="M55.7898 75.9549C59.8717 74.1374 64.5875 72.0724 67.2074 71.0517C67.7752 70.8196 68.3546 70.6169 68.9432 70.4442L69.1404 70.4139C69.4097 70.3998 69.7189 70.3938 70.0673 70.3938C71.0315 70.3941 72.3122 70.4415 73.7053 70.5122C74.5796 70.5566 89.7088 67.644 90.6024 67.0998C91.8983 66.3108 93.1241 65.5652 94.2544 64.8783C98.335 62.3988 101.167 60.6872 101.689 60.3822L101.734 60.3578C102.96 59.7234 111.907 55.2292 120.567 50.8835C122.139 50.0951 123.698 49.3125 125.202 48.5585L125.272 45.7365C124.662 45.7263 123.805 45.7055 122.845 45.6616C120.98 45.6138 119.122 45.4095 117.291 45.0509C117.149 45.0164 117.016 44.9513 116.902 44.86C116.546 44.5545 116.211 44.2251 115.9 43.8739C115.684 43.6387 115.443 43.3686 115.19 43.0793C115.069 43.0818 113.806 43.1058 112.056 43.1058C109 43.143 105.945 43.0203 102.902 42.7383C102.735 42.7174 102.575 42.6543 102.438 42.5548C102.089 42.288 101.758 41.9984 101.447 41.6879C101.077 41.3299 100.663 40.9049 100.222 40.4363C99.3413 39.4995 98.3509 38.3883 97.4187 37.3199L97.3907 37.2877C96.5748 36.3522 95.8148 35.4625 95.209 34.7474C88.7917 34.8873 82.4122 35.7692 76.1976 37.3757C66.6289 40.015 60.3454 44.5241 56.5422 50.2628C52.7358 55.9979 51.4358 62.8354 51.436 70.0454C51.4254 72.5904 51.6183 75.1321 52.0129 77.6464C52.7673 77.3068 53.6007 76.9326 54.485 76.5372C54.9106 76.3469 55.3455 76.1528 55.7898 75.9549ZM70.4548 43.236C74.6507 41.1667 79.1342 39.7409 83.7546 39.0064C83.9231 38.9755 84.0962 38.9783 84.2637 39.0146C84.4312 39.0509 84.5898 39.12 84.7306 39.2178C84.8713 39.3157 84.9912 39.4404 85.0836 39.5848C85.1759 39.7292 85.2388 39.8904 85.2686 40.0592C85.2984 40.2279 85.2945 40.4009 85.2572 40.5682C85.2199 40.7355 85.1499 40.8937 85.0512 41.0338C84.9524 41.1739 84.827 41.2932 84.6821 41.3846C84.5371 41.4761 84.3755 41.538 84.2066 41.5667C79.8438 42.2562 75.6096 43.598 71.646 45.5471V45.5471C71.3395 45.7051 70.9828 45.7348 70.6544 45.6298C70.326 45.5248 70.0528 45.2936 69.8948 44.9871C69.7369 44.6806 69.7071 44.324 69.8121 43.9956C69.9172 43.6672 70.1483 43.3939 70.4548 43.236ZM61.623 50.2951C62.4362 49.2782 63.3295 48.3281 64.2944 47.4539C64.55 47.2243 64.8861 47.1053 65.2292 47.1228C65.5723 47.1403 65.8946 47.293 66.1255 47.5474C66.3564 47.8018 66.4773 48.1372 66.4616 48.4804C66.4459 48.8236 66.295 49.1467 66.0419 49.379C65.1796 50.1601 64.3813 51.0091 63.6545 51.9177V51.9177C63.4394 52.1871 63.126 52.36 62.7833 52.3983C62.4407 52.4367 62.0968 52.3373 61.8274 52.1222C61.5581 51.907 61.3852 51.5936 61.3468 51.2509C61.3085 50.9083 61.4079 50.5645 61.623 50.2951H61.623Z"/><path id="Vector_3" d="M141.907 76.0478C141.876 75.9502 141.86 75.8484 141.86 75.7461C141.868 75.4109 141.906 75.0772 141.974 74.7489C142.042 74.3899 142.135 73.9962 142.244 73.5783C142.463 72.7435 142.749 71.8128 143.034 70.9366C143.496 69.5176 143.949 68.2591 144.108 67.8235L140.412 63.2037C140.299 63.0615 140.227 62.8914 140.202 62.7113C139.906 60.4828 139.768 57.7312 139.735 57.0269L139.735 57.0267C139.49 56.8301 139.088 56.4781 138.589 56.0349C138.093 55.594 137.513 55.0716 136.96 54.5704C136.26 53.9368 135.604 53.3386 135.215 52.9829C134.726 53.6118 134.223 54.2609 133.704 54.9303C133.722 55.2794 133.759 56.0032 133.81 56.9802C133.882 58.3686 133.981 60.2486 134.087 62.2144C134.298 66.1413 134.54 70.4322 134.651 71.7745C134.665 71.9369 134.677 72.0531 134.682 72.0903L134.683 72.096L134.716 72.2005C134.749 72.2953 134.801 72.431 134.867 72.594C135.001 72.9209 135.194 73.3587 135.429 73.8684C135.899 74.8892 136.537 76.2017 137.223 77.5774C138.595 80.3275 140.169 83.3434 141.001 84.8239C141.234 85.2401 141.423 85.5518 141.474 85.6201L141.474 85.6215C141.597 85.7757 141.672 85.9625 141.69 86.1586C141.725 86.567 141.752 87.1516 141.774 87.8405C141.801 88.7016 141.82 89.7291 141.834 90.8207C141.839 91.2657 141.844 91.7191 141.848 92.1715C142.48 91.425 143.069 90.6436 143.614 89.8308C144.248 88.8766 144.82 87.8829 145.327 86.8557L144.127 83.065L141.907 76.0478Z"/><path id="Vector_4" d="M138.525 48.7372C137.925 49.5052 137.219 50.4094 136.447 51.3995C136.678 51.6107 137.048 51.949 137.509 52.3682C137.664 52.509 137.83 52.6598 137.997 52.8115L141.212 51.2987L143.594 50.1777C142.97 49.2422 142.287 48.3481 141.548 47.5009C141.193 47.0945 140.812 46.7017 140.425 46.3115C140.138 46.6779 139.574 47.3968 138.81 48.3733C138.716 48.4932 138.625 48.6097 138.525 48.7372Z"/><path id="Vector_5" d="M126.906 59.5103C127.18 59.5594 127.4 59.598 127.564 59.6261C128.429 58.4944 129.311 57.3451 130.193 56.2021L130 52.9528L122.624 58.6412C122.877 58.7011 123.134 58.761 123.399 58.8192C124.677 59.1003 126.031 59.3536 126.906 59.5103Z"/><path id="Vector_6" d="M139.608 54.2638C139.712 54.3565 139.82 54.4535 139.918 54.5403C140.364 54.937 140.737 55.2617 140.929 55.4191C140.997 55.4405 141.067 55.4577 141.137 55.4708C141.436 55.5246 141.737 55.5618 142.04 55.5824C142.5 55.619 143.045 55.6398 143.612 55.6513C143.961 55.6583 144.316 55.6626 144.67 55.6625C145.282 55.6625 145.878 55.6534 146.412 55.6415C145.914 54.3352 145.319 53.0681 144.632 51.8508C144.578 51.902 144.517 51.9467 144.453 51.984L142.274 53.0091L139.608 54.2638Z"/><path id="Vector_7" d="M60.692 85.488C63.6874 83.6119 67.3953 81.3163 71.3484 78.8823C72.8463 77.96 74.3794 77.0179 75.9222 76.0713C76.6593 75.619 75.1633 72.5936 74.2434 72.5433C72.6163 72.4547 71.1153 72.3934 70.0677 72.3938C69.7887 72.3938 69.5517 72.399 69.35 72.4075C69.158 72.4633 68.8407 72.5709 68.4406 72.7213C67.9705 72.8974 67.3862 73.1288 66.7205 73.4009C65.3885 73.9453 63.7301 74.6527 61.9703 75.4175C59.5945 76.4501 57.042 77.5839 54.8353 78.5719C53.9526 78.9672 53.1321 79.3359 52.3975 79.667C52.6937 81.0533 53.0793 82.419 53.5517 83.7556C54.1503 85.4331 54.9068 87.0499 55.8112 88.5843C56.4378 88.178 57.1795 87.7035 58.0207 87.1704C58.8281 86.6587 59.7185 86.0979 60.692 85.488Z"/><path id="Vector_8" d="M133.216 46.7767L131.657 47.5582C131.672 47.6002 131.683 47.6432 131.691 47.6869L132.053 53.7948C134.143 51.097 136.057 48.6454 137.358 46.9829C138.172 45.9428 138.738 45.2211 138.96 44.9387C138.707 44.718 138.445 44.5021 138.18 44.2875C137.938 44.4088 137.561 44.5981 137.034 44.8622C136.638 45.061 136.154 45.3033 135.62 45.5712C134.917 45.9237 134.115 46.3255 133.216 46.7767Z"/><path id="Vector_9" d="M129.738 48.521C127.212 49.7878 124.359 51.2187 121.465 52.6711C121.053 52.8776 120.641 53.0844 120.229 53.2914C120.25 53.5428 120.281 53.8776 120.32 54.272C120.404 55.1103 120.526 56.1869 120.673 57.1154C120.698 57.2689 120.723 57.4187 120.748 57.5624L129.749 50.6207C129.785 50.6003 129.821 50.5822 129.859 50.5666L129.738 48.521Z"/><path id="Vector_10" d="M145.577 69.6597C145.445 70.0353 145.298 70.4636 145.143 70.9269C144.662 72.3004 144.26 73.7005 143.939 75.1201C143.906 75.2857 143.883 75.4531 143.869 75.6215L145.147 79.6586L146.539 84.0569C147.751 80.6608 148.463 77.1065 148.653 73.5054L146.161 70.3896L145.577 69.6597Z"/><path id="Vector_11" d="M127.326 43.6008L127.228 47.5424C128.998 46.6542 130.646 45.8281 132.084 45.1067L127.326 43.6008Z"/><path id="Vector_12" d="M113.559 38.0102C115 39.7822 116.436 41.5035 117.372 42.5185C117.621 42.7911 117.837 43.0099 117.989 43.1525C119.163 43.376 120.351 43.5206 121.545 43.5855C122.963 43.6815 124.358 43.7204 125.244 43.7358L125.323 43.737L125.36 42.2211C125.364 42.0661 125.404 41.9141 125.477 41.7772C125.55 41.6402 125.653 41.5221 125.779 41.432C125.906 41.342 126.051 41.2825 126.204 41.2583C126.357 41.2341 126.514 41.2459 126.662 41.2927L128.357 41.8292L128.402 41.6046L128.921 39.0094C128.087 38.6815 127.227 38.3684 126.33 38.0758C121.427 36.5444 116.369 35.5597 111.25 35.1398C111.476 35.423 111.709 35.715 111.947 36.0127C112.467 36.6627 113.013 37.3396 113.559 38.0102Z"/><path id="Vector_13" d="M100.024 37.2503C101.065 38.4185 102.088 39.5253 102.838 40.2507C103.075 40.4804 103.267 40.6502 103.427 40.7828C105.748 41.0454 109.442 41.1071 112.057 41.1058C112.596 41.1058 113.081 41.1034 113.51 41.1001C112.768 40.2084 111.984 39.2483 111.22 38.3013C111.061 38.1031 110.902 37.9063 110.745 37.7108C109.931 36.697 109.162 35.7289 108.529 34.9282C105.88 34.7496 103.084 34.6494 100.101 34.6492C99.309 34.6492 98.5476 34.6658 97.7793 34.6786C97.9323 34.857 98.0872 35.0373 98.2478 35.2233C98.8133 35.8784 99.4217 36.5745 100.024 37.2503Z"/><path id="Vector_14" d="M139.829 90.5107C139.807 88.8824 139.77 87.398 139.715 86.5852C139.66 86.4978 139.602 86.4021 139.536 86.2893C139.392 86.0453 139.218 85.7369 139.018 85.373C138.618 84.6458 138.113 83.6985 137.564 82.645C136.465 80.5383 135.187 78.0114 134.225 76.0063C133.582 74.6628 133.087 73.5793 132.85 72.9233C132.784 72.7499 132.734 72.5704 132.703 72.3873C132.686 72.268 132.674 72.1335 132.658 71.9399C132.642 71.749 132.624 71.5102 132.605 71.2282C132.566 70.6645 132.519 69.9286 132.468 69.0791C132.367 67.3804 132.247 65.2281 132.132 63.1125C132.017 60.9921 131.908 58.9091 131.827 57.358C130.005 59.7194 128.154 62.1372 126.541 64.2767C125.843 65.203 120.827 78.4903 120.727 79.4031C120.52 81.3051 120.322 83.2075 120.145 84.8052C119.966 86.4133 119.813 87.6945 119.676 88.4303C119.641 88.6137 119.556 88.7838 119.43 88.9217C118.628 89.7968 116.744 91.8494 114.782 94.0335C112.821 96.2149 110.776 98.5382 109.687 99.9085C109.414 100.251 109.215 100.52 109.095 100.7C108.895 101.303 108.739 101.919 108.629 102.545C108.567 102.861 108.508 103.187 108.455 103.518C108.362 104.083 108.28 104.652 108.21 105.18C113.521 104.895 118.79 104.069 123.934 102.715C130.854 100.804 136.058 97.9087 139.859 94.2809C139.855 93.1827 139.848 91.9866 139.834 90.8451C139.832 90.7324 139.831 90.6224 139.829 90.5107ZM136.109 92.4007C135.859 92.6332 135.602 92.8623 135.34 93.0878C134.12 94.1294 132.813 95.0642 131.433 95.8822C131.134 96.0607 130.829 96.236 130.518 96.4079C130.368 96.4904 130.204 96.5426 130.034 96.5615C129.865 96.5805 129.693 96.5659 129.529 96.5185C129.365 96.4711 129.212 96.3918 129.078 96.2853C128.945 96.1787 128.834 96.0469 128.751 95.8974C128.669 95.7479 128.617 95.5837 128.598 95.414C128.579 95.2443 128.593 95.0726 128.641 94.9086C128.688 94.7446 128.768 94.5915 128.874 94.4581C128.981 94.3247 129.112 94.2136 129.262 94.1312C129.547 93.9738 129.827 93.8132 130.101 93.6494C131.353 92.9077 132.539 92.0598 133.646 91.115C133.883 90.9115 134.114 90.7055 134.338 90.4968V90.4969C134.591 90.2651 134.925 90.1427 135.268 90.1564C135.611 90.1701 135.934 90.3188 136.168 90.57C136.402 90.8213 136.527 91.1547 136.515 91.4976C136.504 91.8405 136.358 92.1651 136.109 92.4007H136.109Z"/><path id="Vector_15" d="M134.562 43.7927C134.588 43.8009 134.605 43.8205 134.63 43.8305C135.334 43.4773 135.922 43.1829 136.392 42.9473C134.629 41.7305 132.757 40.6786 130.802 39.8048L130.277 42.4258L130.275 42.4362L130.351 42.4601L134.562 43.7927Z"/><path id="Vector_16" d="M64.2125 147.762C66.6784 143.506 70.3113 140.045 74.6817 137.788C79.0522 135.531 83.9774 134.573 88.8752 135.026C93.773 135.48 98.4387 137.326 102.321 140.346C106.203 143.367 109.138 147.436 110.781 152.072C110.781 152.072 107.917 150.75 107.417 153.167C106.917 155.583 110.917 158 110.917 158C110.917 158 107.75 159.083 107.917 161.667C108.084 164.25 111.917 165.583 111.917 165.583C111.917 165.583 107.334 166.833 107.417 168.667C107.5 170.5 109.954 171.312 109.954 171.312C107.715 176.241 103.979 180.339 99.2785 183.025C94.5777 185.71 89.1502 186.846 83.7671 186.271C78.3839 185.696 73.3187 183.44 69.2908 179.823C65.2629 176.205 62.4771 171.411 61.3291 166.12C61.3291 166.12 64.0005 165.75 64.0838 164.5C64.1923 163.698 63.9955 162.885 63.5325 162.221C63.0694 161.557 62.3739 161.092 61.5838 160.917C61.5838 160.917 64.0838 159.917 64.0005 157.583C63.9171 155.25 62.7505 154.333 61.8338 154.417L62.2505 151.833C62.9927 151.48 63.592 150.884 63.9488 150.143C64.3057 149.403 64.3987 148.563 64.2125 147.762Z"/><path id="Vector_17" d="M144.67 57.6625C144.57 57.6624 144.47 57.6605 144.37 57.66C143.453 57.6554 142.543 57.6308 141.765 57.5629C141.782 57.8774 141.803 58.2491 141.832 58.692C141.901 59.7281 142.008 61.0257 142.152 62.1768L146.075 67.0811L148.761 70.4391C148.762 70.3077 148.766 70.1771 148.766 70.0454C148.828 65.8451 148.264 61.659 147.093 57.6248C146.42 57.6442 145.562 57.6624 144.67 57.6625Z"/><path id="Vector_18" d="M167.477 49.6911C168.412 39.7939 169.939 21.9434 170.27 16.8868C170.285 16.6547 170.293 16.429 170.293 16.2098C170.305 15.4228 170.186 14.6392 169.942 13.8909C169.63 12.9335 169.016 12.1033 168.191 11.5258C167.459 11.037 166.617 10.738 165.741 10.656C165.516 10.6311 165.29 10.6186 165.063 10.6185C163.813 10.5959 162.599 11.0329 161.649 11.8465C160.547 12.8908 159.89 14.3202 159.816 15.8369C159.408 20.0646 158.063 36.3818 157.194 47.018C157.035 46.4076 156.875 45.7975 156.696 45.1973C153.884 35.7693 148.467 27.62 139.349 21.9289C130.235 16.2326 117.521 12.983 100.102 12.9822C88.4855 12.9827 78.9699 14.4273 71.2093 17.0778C59.569 21.0426 51.887 27.7861 47.2281 36.2395C45.2817 39.8226 43.8115 43.6445 42.8549 47.6082C41.9881 36.9964 40.6012 20.1444 40.1851 15.8369C40.1108 14.3202 39.4539 12.8908 38.3515 11.8465C37.4023 11.0329 36.1876 10.5959 34.9377 10.6185C34.7113 10.6186 34.485 10.6311 34.26 10.656C33.0595 10.7548 31.9347 11.2829 31.0919 12.1435C30.6269 12.6456 30.2747 13.2414 30.0589 13.8909C29.8147 14.6392 29.6961 15.4228 29.7078 16.2098C29.7078 16.4291 29.7154 16.6549 29.7307 16.887C30.0624 21.9434 31.5891 39.7939 32.5241 49.6911C32.6564 52.1482 33.2318 54.5612 34.2226 56.8137C34.5692 57.5378 35.036 58.1981 35.603 58.7665C35.0116 59.2221 34.504 59.7772 34.1029 60.4069C33.5826 61.3503 33.2396 62.3812 33.0911 63.4484C32.8635 64.8378 32.7549 66.2442 32.7666 67.6522C32.7697 69.0815 32.8554 70.5095 33.0232 71.9289C33.287 74.3287 33.8258 76.6902 34.6291 78.9669C34.9378 79.8343 35.3182 80.6745 35.7663 81.4789C36.1139 82.1292 36.5698 82.7155 37.1143 83.2127C38.3319 84.1366 39.7473 84.7654 41.2492 85.0495C41.9929 85.218 42.7472 85.3364 43.5068 85.4037C43.5189 85.4428 43.5284 85.4832 43.5405 85.5223C46.2562 94.9049 52.5066 102.868 60.9757 107.734C68.5777 112.177 78.6612 114.963 91.8407 115.772V118.343C90.147 118.449 88.52 118.577 87.0094 118.724C84.9171 118.929 83.044 119.171 81.4932 119.451C80.7172 119.591 80.0219 119.741 79.4119 119.904C78.866 120.041 78.3334 120.226 77.8204 120.458C77.348 120.698 76.9334 121.037 76.6056 121.453C76.2146 121.948 75.88 122.485 75.6081 123.054C75.5523 122.981 75.4886 122.915 75.4182 122.856C73.825 121.727 71.9193 121.124 69.9668 121.13C68.0428 121.173 66.1516 121.638 64.426 122.49C61.6979 123.854 59.1953 125.63 57.0056 127.753C54.9686 129.673 53.0756 131.741 51.3418 133.938C49.3681 136.356 48.2717 139.371 48.2316 142.491C48.2345 142.928 48.2611 143.365 48.3114 143.799C47.1317 145.085 46.1587 146.547 45.4271 148.132C44.149 150.7 43.4731 153.526 43.4506 156.395C43.4506 156.931 43.4769 157.471 43.5296 158.013C43.7225 160.624 44.6953 163.118 46.3219 165.17C47.2524 166.277 48.4217 167.159 49.742 167.749C51.2991 168.421 52.9816 168.754 54.6773 168.725C54.9165 168.725 55.1594 168.719 55.4062 168.708C57.0319 168.668 58.6363 168.328 60.1392 167.707C61.6618 173.398 64.9869 178.444 69.6166 182.088C69.7546 184.258 69.94 186.325 70.1825 188.245C70.2034 188.414 70.2577 188.578 70.3421 188.727C70.4265 188.876 70.5395 189.007 70.6745 189.112C70.8095 189.217 70.9639 189.294 71.1288 189.339C71.2938 189.384 71.466 189.397 71.6357 189.375C71.8054 189.354 71.9692 189.299 72.1177 189.214C72.2662 189.129 72.3965 189.016 72.5011 188.881C72.6058 188.745 72.6826 188.591 72.7274 188.426C72.7722 188.261 72.7839 188.088 72.762 187.919V187.919C72.6052 186.679 72.4733 185.366 72.3615 184.001C75.5398 185.924 79.0776 187.177 82.7576 187.683C86.4376 188.189 90.1822 187.938 93.7617 186.945C97.3412 185.952 100.68 184.238 103.573 181.908C106.467 179.579 108.853 176.682 110.587 173.397C110.691 173.486 110.809 173.559 110.936 173.611C111.386 173.784 111.844 173.934 112.309 174.059C113.274 174.336 114.27 174.487 115.274 174.507C115.595 174.508 115.916 174.486 116.234 174.44C116.914 174.345 117.574 174.137 118.187 173.825C119.481 174.464 120.908 174.79 122.351 174.776C124.318 174.725 126.256 174.295 128.059 173.508C128.955 173.122 129.823 172.675 130.656 172.169C130.732 174.816 130.773 177.396 130.773 179.848C130.773 182.588 130.724 185.173 130.624 187.526C130.616 187.697 130.643 187.867 130.701 188.028C130.76 188.188 130.849 188.335 130.965 188.461C131.08 188.587 131.219 188.688 131.374 188.76C131.529 188.832 131.697 188.873 131.867 188.881C132.038 188.888 132.208 188.861 132.368 188.803C132.529 188.744 132.676 188.655 132.802 188.539C132.927 188.424 133.029 188.285 133.101 188.13C133.173 187.975 133.214 187.808 133.221 187.637V187.637C133.323 185.239 133.373 182.619 133.373 179.848C133.372 176.882 133.315 173.741 133.207 170.517C134.718 169.466 136.171 168.336 137.562 167.13C139.252 165.748 140.732 164.127 141.956 162.319C142.48 161.457 142.923 160.548 143.278 159.604C144.78 158.662 146.024 157.361 146.897 155.818C148.255 153.378 148.941 150.622 148.887 147.83C148.883 146.598 148.775 145.369 148.564 144.155C147.553 139.141 145.627 134.356 142.882 130.04C141.468 127.74 139.685 125.687 137.606 123.965C135.682 122.329 133.26 121.396 130.737 121.32C130.322 121.32 129.907 121.348 129.496 121.404V121.404L129.495 121.405H129.495V121.405C128.886 121.479 128.301 121.685 127.78 122.008C127.373 122.271 127.022 122.612 126.748 123.012C126.515 122.522 126.237 122.055 125.917 121.618C125.568 121.13 125.108 120.732 124.574 120.458C124.061 120.226 123.529 120.041 122.983 119.904C119.954 119.22 116.876 118.777 113.778 118.578C112.55 118.474 111.25 118.388 109.925 118.31V115.658C116.354 115.258 122.715 114.115 128.882 112.252C140.494 108.581 148.21 102.278 152.909 94.1679C154.519 91.3597 155.802 88.3758 156.731 85.2747C156.924 85.3726 157.14 85.4191 157.357 85.4096C158.142 85.3448 158.92 85.2245 159.688 85.0496C161.19 84.7655 162.606 84.1367 163.823 83.2127C164.368 82.7156 164.824 82.1293 165.171 81.479C165.869 80.1976 166.419 78.8414 166.811 77.4362C167.333 75.6348 167.702 73.7925 167.914 71.929C168.082 70.5098 168.167 69.082 168.171 67.6529C168.182 66.2448 168.074 64.8383 167.846 63.4487C167.698 62.3814 167.355 61.3504 166.834 60.4069C166.288 59.5678 165.568 58.8565 164.722 58.3217C164.708 58.3127 164.694 58.3062 164.68 58.2973C165.416 57.4634 165.978 56.4907 166.332 55.4364C166.952 53.5766 167.336 51.6465 167.477 49.6911ZM35.1126 49.4465C34.1804 39.5829 32.6515 21.6992 32.3251 16.7167C32.3133 16.5383 32.3075 16.3694 32.3078 16.2098C32.2965 15.7096 32.3677 15.2109 32.5185 14.7338C32.6484 14.3019 32.919 13.9258 33.2872 13.6654C33.665 13.422 34.0972 13.276 34.5452 13.2404C34.6755 13.2259 34.8065 13.2186 34.9376 13.2185C35.5544 13.1961 36.1578 13.4021 36.6322 13.7969C37.2387 14.4062 37.5847 15.2273 37.5972 16.0869C37.9034 19.2551 38.7523 29.4254 39.5229 38.7852C39.9082 43.4666 40.2744 47.9487 40.5442 51.2604C40.753 53.8223 40.9026 55.6666 40.9604 56.3792C40.1734 56.5658 39.3999 56.8051 38.6449 57.0952C38.448 57.1715 38.2395 57.273 38.0357 57.3618C37.3658 56.9699 36.8432 56.3689 36.5481 55.651C35.705 53.6845 35.2189 51.5835 35.1126 49.4465ZM41.6165 82.4653C40.5982 82.2616 39.636 81.8401 38.7959 81.2297C38.485 80.9256 38.2243 80.5741 38.0233 80.1884C37.4268 79.082 36.9561 77.9123 36.6201 76.7012C36.1399 75.0416 35.8005 73.3444 35.6057 71.6277C35.4495 70.3082 35.3696 68.9808 35.3665 67.6522C35.3551 66.395 35.4506 65.1391 35.6519 63.898C35.7492 63.1575 35.9732 62.4393 36.314 61.7747C36.6634 61.2562 37.1192 60.8181 37.651 60.4895C38.5449 59.9294 39.5107 59.4934 40.522 59.1935C40.732 59.1281 40.9261 59.073 41.1032 59.0251C40.9516 61.1543 40.8759 63.316 40.8763 65.5102C40.8065 71.2928 41.4391 77.0625 42.7604 82.6925C42.4254 82.6393 42.033 82.5664 41.6165 82.4653ZM53.3788 135.554C55.6128 132.693 58.1519 130.084 60.9511 127.774C62.3563 126.623 63.8915 125.64 65.5252 124.846C66.907 124.155 68.4227 123.775 69.9668 123.73C71.2822 123.728 72.5692 124.112 73.669 124.834C73.4423 124.922 73.2219 125.026 73.0094 125.144C71.9769 125.749 71.1443 126.643 70.6145 127.716C70.0758 128.783 69.796 129.962 69.7978 131.157C69.7922 132.249 70.036 133.327 70.5105 134.31C70.6897 134.666 70.9013 135.005 71.1424 135.323C69.7253 137.473 68.2347 139.887 66.277 142.379C65.7514 142.959 65.2533 143.564 64.7785 144.188C64.2818 144.749 63.7925 145.252 63.3112 145.705C62.5653 144.402 61.5071 143.304 60.2319 142.511C58.7549 141.646 57.0822 141.171 55.371 141.129C55.1763 141.12 54.984 141.116 54.7942 141.115C53.4369 141.093 52.0916 141.373 50.8558 141.935C51.0157 139.598 51.8973 137.368 53.3788 135.554H53.3788ZM63.2295 148.859C63.2282 149.165 63.1675 149.468 63.0509 149.751C62.9995 149.898 62.9123 150.029 62.7972 150.134C62.7461 150.153 62.6415 150.188 62.4903 150.229C61.8332 150.411 60.6037 150.658 59.4638 150.881C59.051 150.961 58.6594 151.039 58.2889 151.112L58.2884 151.09C58.2822 150.699 58.3125 150.309 58.3789 149.924C58.3938 149.844 58.415 149.766 58.4425 149.69C58.6534 149.574 58.8713 149.471 59.095 149.382C59.799 149.1 60.5211 148.865 61.2566 148.679C61.8686 148.508 62.4974 148.404 63.1319 148.369L63.1512 148.369C63.1638 148.397 63.1743 148.427 63.1824 148.456C63.2155 148.588 63.2314 148.723 63.2295 148.859ZM50.8067 165.377C49.3699 164.727 48.187 163.622 47.4405 162.232C46.6995 160.846 46.2492 159.324 46.117 157.758C46.0721 157.304 46.05 156.849 46.0506 156.395C46.0736 153.925 46.6576 151.493 47.7584 149.283C48.427 147.747 49.3865 146.356 50.584 145.185C51.7469 144.173 53.2542 143.647 54.7942 143.715C54.9419 143.715 55.0941 143.719 55.2506 143.726C56.5263 143.748 57.7754 144.094 58.8802 144.732C59.5008 145.122 60.0472 145.619 60.4937 146.2C59.9441 146.344 59.3966 146.503 58.8864 146.681C58.4756 146.826 58.0914 146.977 57.748 147.132C57.4219 147.273 57.1102 147.445 56.8175 147.647C56.5097 147.876 56.2657 148.181 56.1088 148.532C55.9263 148.947 55.8087 149.387 55.7601 149.838C55.719 150.18 55.697 150.524 55.694 150.869C54.8748 151.186 53.9761 151.541 53.383 151.808C51.8589 152.528 50.6114 153.726 49.8298 155.219C49.0451 156.667 48.6326 158.287 48.6294 159.934C48.6049 161.405 48.9912 162.854 49.745 164.117C50.0452 164.587 50.4087 165.013 50.8252 165.384L50.8067 165.377ZM56.6123 160.348L56.6121 160.348L56.7422 159.278L56.6123 160.348ZM56.3346 154.279L56.3365 154.283C56.0096 154.434 55.7221 154.659 55.4963 154.94C55.1792 155.346 54.9431 155.81 54.8008 156.306C54.6505 156.796 54.5729 157.305 54.5702 157.818C54.5572 158.37 54.6792 158.916 54.9258 159.41C55.0811 159.706 55.3003 159.964 55.5674 160.165C55.813 160.341 56.0933 160.462 56.3895 160.519C56.2909 160.602 56.1996 160.693 56.1168 160.792C55.7941 161.204 55.5729 161.687 55.4712 162.2C55.374 162.651 55.3265 163.111 55.3295 163.572C55.3313 163.869 55.3518 164.165 55.3909 164.459C54.9486 164.465 54.5073 164.414 54.0777 164.308C53.1915 164.084 52.4284 163.522 51.9517 162.742C51.456 161.891 51.206 160.919 51.2293 159.934C51.2333 158.723 51.536 157.532 52.1107 156.467C52.6217 155.47 53.4435 154.666 54.4519 154.178C54.8277 154.008 55.4427 153.759 56.0694 153.513C56.1802 153.661 56.3235 153.782 56.4884 153.867C56.6532 153.951 56.8351 153.997 57.0203 154C56.787 154.081 56.5581 154.174 56.3347 154.279H56.3346ZM57.1703 157.818C57.1745 157.484 57.2415 157.153 57.3675 156.843C57.4012 156.758 57.4448 156.678 57.4973 156.604L57.5019 156.602L57.5021 156.602L57.5129 156.597C58.7549 156.101 60.0855 155.864 61.4224 155.902C61.8453 155.902 62.3069 155.93 62.7901 155.977C62.8491 156.206 62.8765 156.441 62.8716 156.677C62.8748 157.079 62.8117 157.479 62.6847 157.86C62.6647 157.916 62.6409 157.971 62.6135 158.024C62.3705 158.065 62.1254 158.094 61.8792 158.109C61.4381 158.141 60.9035 158.156 60.349 158.156C59.1964 158.157 57.9372 158.092 57.1831 158.019C57.1743 157.952 57.17 157.885 57.1703 157.818H57.1703ZM62.4794 164.414C62.307 164.434 62.1335 164.443 61.9599 164.44C61.5258 164.44 60.9899 164.403 60.4464 164.397C59.8278 164.383 59.2106 164.332 58.5981 164.245C58.357 164.211 58.145 164.172 57.9645 164.134C57.9412 163.948 57.9295 163.76 57.9295 163.572C57.922 163.238 57.9661 162.905 58.0601 162.584L58.0649 162.573C58.1405 162.57 58.2272 162.567 58.3296 162.567C58.9841 162.566 60.0573 162.641 61.0509 162.745C61.5491 162.796 62.0318 162.854 62.4405 162.912C62.5346 162.925 62.6242 162.939 62.7101 162.952C62.693 163.352 62.6395 163.749 62.5502 164.139C62.5273 164.239 62.5028 164.333 62.4794 164.414H62.4794ZM107.378 173.759L104.4 173.497C104.196 173.478 103.991 173.508 103.801 173.585C103.611 173.661 103.442 173.781 103.308 173.936C103.273 173.976 103.117 174.14 102.912 174.346C102.182 175.08 100.735 176.477 99.4811 177.679C98.2254 178.883 97.1593 179.897 97.157 179.899C97.0236 180.026 96.9187 180.18 96.8491 180.351C96.7796 180.522 96.747 180.705 96.7536 180.89L96.834 183.057C93.567 184.568 90.009 185.346 86.4095 185.336C82.81 185.326 79.2564 184.528 75.9981 182.998C72.7398 181.469 69.8558 179.244 67.5485 176.482C65.2412 173.719 63.5666 170.485 62.6421 167.006C62.7757 166.994 62.9089 166.983 63.0472 166.958C63.4913 166.89 63.9101 166.708 64.2629 166.43C64.4288 166.29 64.5662 166.119 64.6678 165.927C64.7829 165.71 64.8757 165.481 64.9448 165.245C65.1781 164.462 65.3026 163.652 65.3145 162.836C65.3222 162.468 65.2742 162.101 65.1722 161.747C65.1006 161.51 64.9847 161.289 64.8308 161.095C64.6059 160.815 64.2938 160.618 63.9441 160.535C63.8307 160.509 63.6976 160.485 63.5654 160.461C63.978 160.322 64.3398 160.064 64.6049 159.718C64.9295 159.282 65.1595 158.782 65.2804 158.252C65.4081 157.737 65.4723 157.208 65.4716 156.677C65.4836 156.058 65.3773 155.443 65.1584 154.864C65.0297 154.536 64.8355 154.239 64.5877 153.989C64.2759 153.679 63.8703 153.481 63.4342 153.426C63.2566 153.405 63.0904 153.395 62.9183 153.379C62.9843 153.166 63.059 152.957 63.1305 152.747C63.2911 152.703 63.4458 152.66 63.5871 152.613C63.7753 152.554 63.9564 152.474 64.1271 152.375C64.7226 151.991 65.1828 151.429 65.4429 150.77C65.6974 150.165 65.8289 149.515 65.8295 148.859C65.8313 148.412 65.7582 147.967 65.6131 147.544C67.7388 144.162 70.6556 141.347 74.1118 139.344C77.568 137.341 81.4598 136.21 85.4512 136.047L85.8644 139.107C85.8986 139.361 86.0073 139.6 86.177 139.793C86.3467 139.985 86.5697 140.123 86.8178 140.189C86.818 140.189 86.8987 140.211 87.0503 140.252C87.5805 140.397 88.9483 140.778 90.398 141.238C91.1224 141.468 91.8674 141.717 92.5322 141.964C93.0877 142.161 93.6312 142.391 94.1598 142.652C94.3571 142.755 94.5775 142.806 94.7999 142.799C95.0222 142.792 95.2392 142.729 95.4301 142.615L99.0966 140.414C99.3251 140.271 99.502 140.058 99.6015 139.807C103.732 142.399 106.999 146.161 108.987 150.613C108.894 150.595 108.797 150.574 108.71 150.56C108.601 150.543 108.491 150.534 108.38 150.534C107.919 150.536 107.472 150.689 107.106 150.97C106.666 151.324 106.338 151.798 106.164 152.336C105.992 152.837 105.906 153.363 105.91 153.893C105.904 154.591 106.053 155.283 106.344 155.917C106.674 156.644 107.248 157.232 107.967 157.58C108.219 157.697 108.569 157.836 109.035 158.011C109.193 158.07 109.365 158.133 109.544 158.198L109.538 158.198C109.225 158.198 108.901 158.204 108.566 158.216C108.132 158.233 107.716 158.394 107.382 158.672C106.994 159.01 106.711 159.453 106.567 159.948C106.43 160.396 106.362 160.862 106.366 161.331C106.359 162.126 106.543 162.912 106.904 163.621C107.106 164.011 107.381 164.36 107.714 164.647C108.087 164.966 108.533 165.186 109.012 165.288C109.259 165.341 109.609 165.424 110.005 165.517L110.01 165.774C109.212 165.766 108.414 165.799 107.62 165.871C107.368 165.902 107.128 165.991 106.916 166.13C106.641 166.316 106.42 166.571 106.274 166.869C106.119 167.187 106.016 167.529 105.968 167.88C105.919 168.202 105.896 168.527 105.897 168.853C105.896 169.234 105.926 169.614 105.99 169.989C106.021 170.171 106.066 170.35 106.125 170.525C106.206 170.78 106.344 171.013 106.529 171.207C106.787 171.461 107.086 171.671 107.413 171.828C107.696 171.965 107.988 172.085 108.287 172.185C108.003 172.722 107.7 173.247 107.378 173.759H107.378ZM109.652 153.462C110.58 153.739 111.492 154.07 112.382 154.453C112.75 154.609 113.108 154.786 113.456 154.982C113.566 155.045 113.672 155.113 113.775 155.187L113.794 155.203C113.8 155.255 113.802 155.307 113.802 155.36C113.777 155.834 113.693 156.303 113.553 156.757C112.899 156.578 112.165 156.351 111.475 156.118C110.911 155.928 110.377 155.738 109.947 155.577C109.522 155.418 109.18 155.278 109.072 155.226C108.9 155.135 108.766 154.986 108.694 154.805C108.568 154.517 108.505 154.207 108.51 153.893C108.507 153.654 108.544 153.416 108.621 153.19C108.897 153.25 109.257 153.343 109.652 153.462H109.652ZM113.183 170.084C113.133 170.089 113.082 170.094 113.027 170.098C112.727 170.122 112.357 170.134 111.986 170.134C111.516 170.134 111.038 170.114 110.69 170.08C110.183 170.025 109.684 169.916 109.2 169.756C108.991 169.689 108.787 169.606 108.591 169.51L108.543 169.483C108.538 169.453 108.533 169.43 108.529 169.395C108.507 169.215 108.497 169.034 108.497 168.853C108.496 168.705 108.504 168.557 108.52 168.41C108.959 168.388 109.533 168.372 110.139 168.373C110.895 168.373 111.699 168.393 112.347 168.433C112.671 168.453 112.956 168.478 113.162 168.505C113.201 168.51 113.219 168.514 113.251 168.52C113.29 168.7 113.308 168.883 113.305 169.068C113.303 169.41 113.262 169.751 113.183 170.084L113.183 170.084ZM113.532 168.238L113.532 168.238L113.579 168.118L113.578 168.118L113.89 167.333L113.532 168.238ZM114.489 163.72C113.719 163.648 112.954 163.525 112.201 163.352C111.187 163.135 110.201 162.884 109.554 162.746L109.398 162.667C109.262 162.533 109.161 162.366 109.105 162.183C109.012 161.909 108.964 161.621 108.965 161.331C108.964 161.155 108.984 160.979 109.027 160.807C109.198 160.804 109.374 160.798 109.538 160.798C110.774 160.789 112.009 160.901 113.224 161.132C113.636 161.214 113.943 161.295 114.139 161.352L114.175 161.363C114.266 161.55 114.335 161.746 114.382 161.948C114.481 162.349 114.531 162.759 114.534 163.171C114.536 163.355 114.521 163.539 114.489 163.72H114.489ZM118.366 170.281C118.088 170.712 117.72 171.078 117.286 171.352C116.852 171.626 116.364 171.802 115.855 171.868C115.663 171.895 115.468 171.908 115.274 171.907C115.255 171.907 115.234 171.904 115.215 171.904L115.227 171.888C115.364 171.69 115.474 171.473 115.552 171.245C115.788 170.543 115.907 169.808 115.905 169.068C115.915 168.55 115.835 168.035 115.67 167.544C115.569 167.258 115.42 166.991 115.229 166.756C115.089 166.592 114.925 166.45 114.742 166.334C114.756 166.334 114.771 166.336 114.785 166.336L114.973 166.333L114.927 165.034L114.975 166.333C115.421 166.316 115.848 166.149 116.187 165.859C116.578 165.504 116.851 165.039 116.973 164.526C117.085 164.083 117.139 163.628 117.134 163.171C117.132 162.783 117.101 162.395 117.042 162.01C117.704 162.517 118.233 163.176 118.583 163.932C119.033 164.896 119.264 165.948 119.261 167.011C119.287 168.165 118.976 169.302 118.366 170.281H118.366ZM139.723 160.986C139.087 161.958 138.34 162.852 137.495 163.65C135.817 165.277 134.014 166.771 132.102 168.117C130.529 169.281 128.841 170.282 127.065 171.105C125.577 171.76 123.976 172.123 122.351 172.176C121.69 172.177 121.032 172.085 120.397 171.904C120.439 171.845 120.486 171.789 120.526 171.729C120.537 171.712 120.544 171.692 120.555 171.675C121.672 171.129 122.59 170.249 123.184 169.157C123.778 168.066 124.018 166.816 123.87 165.582C123.722 164.348 123.193 163.191 122.358 162.271C121.523 161.351 120.422 160.713 119.208 160.447C118.856 160.105 118.468 159.801 118.051 159.542C117.762 159.357 117.483 159.157 117.216 158.941C116.96 158.74 116.692 158.518 116.434 158.299C117.489 157.115 118.708 156.088 120.054 155.25L119.343 154.161L120.054 155.249C122.332 153.736 124.745 152.438 127.263 151.373C129.413 150.416 131.724 149.877 134.074 149.783C135.108 149.764 136.136 149.95 137.098 150.33C138.018 150.711 138.829 151.314 139.46 152.084C140.048 152.764 140.526 153.532 140.878 154.359C141.146 155.009 141.285 155.705 141.287 156.408C141.188 158.047 140.647 159.629 139.723 160.986H139.723ZM128.82 124.574C128.907 124.424 129.029 124.296 129.176 124.202C129.381 124.08 129.61 124.005 129.847 123.98L129.671 122.692L129.848 123.98C130.142 123.94 130.439 123.92 130.737 123.92C132.676 123.998 134.531 124.734 135.996 126.006C138.798 128.455 141.053 131.466 142.616 134.843C144.187 137.923 145.326 141.204 146.001 144.595C146.188 145.663 146.283 146.745 146.286 147.83C146.34 150.161 145.776 152.465 144.651 154.508C144.414 154.914 144.147 155.303 143.852 155.669C143.776 154.885 143.586 154.115 143.288 153.386C142.971 152.617 142.562 151.889 142.072 151.217C141.956 150.264 141.599 149.357 141.033 148.581C140.468 147.805 139.713 147.187 138.842 146.786C137.97 146.384 137.01 146.212 136.053 146.285C135.096 146.359 134.174 146.677 133.374 147.207C133.017 147.226 132.657 147.255 132.296 147.299C131.515 143.751 130.793 139.374 130.393 136.449C131.101 135.863 131.677 135.134 132.084 134.31C132.558 133.327 132.802 132.249 132.796 131.157C132.806 129.561 132.301 128.005 131.356 126.718C130.879 126.078 130.276 125.542 129.585 125.144C129.311 124.993 129.025 124.865 128.729 124.764C128.755 124.699 128.786 124.636 128.82 124.574H128.82ZM112.813 121.359C112.887 121.289 112.953 121.211 113.008 121.126C113.736 121.184 114.451 121.245 115.132 121.312C117.175 121.512 118.99 121.748 120.439 122.01C121.163 122.14 121.796 122.277 122.311 122.415C122.703 122.512 123.086 122.643 123.456 122.805C123.612 122.907 123.746 123.039 123.849 123.194C124.43 124.068 124.88 125.022 125.185 126.027C126.194 129.232 126.953 132.511 127.456 135.834C128.068 139.455 128.608 143.595 129.067 147.983C128.121 148.263 127.19 148.592 126.277 148.967C123.607 150.095 121.047 151.469 118.632 153.073V153.073C117.84 153.588 117.077 154.149 116.347 154.751C116.334 154.67 116.326 154.591 116.305 154.508C116.224 154.168 116.068 153.852 115.847 153.582C115.644 153.348 115.408 153.143 115.147 152.974C114.675 152.669 114.178 152.402 113.662 152.176C113.191 151.963 112.683 151.762 112.171 151.571C110.896 147.977 108.881 144.69 106.256 141.923C103.632 139.156 100.456 136.97 96.9337 135.507C93.4117 134.044 89.6219 133.336 85.8093 133.429C81.9966 133.522 78.2458 134.413 74.7992 136.046C75.1564 134.335 75.5567 132.287 75.9015 130.483C76.1473 129.446 76.399 128.48 76.6564 127.617C76.9972 126.394 77.4483 125.205 78.0042 124.064C78.172 123.727 78.3742 123.408 78.6073 123.112C78.6972 122.99 78.8095 122.886 78.9382 122.806C79.3082 122.643 79.6914 122.512 80.0837 122.415C82.9645 121.774 85.8906 121.357 88.8358 121.169L88.8505 121.168C92.146 123.982 96.3439 125.518 100.678 125.494C103.126 125.486 105.553 125.045 107.847 124.194C109.662 123.559 111.345 122.599 112.813 121.359H112.813ZM154.181 84.7493C151.661 93.5144 145.827 100.954 137.915 105.49C129.356 110.499 117.146 113.425 100.101 113.423C88.7415 113.424 79.5215 112.125 72.1076 109.773C60.9835 106.234 53.9302 100.396 49.5433 92.8621C45.1622 85.3247 43.4746 75.9869 43.4762 65.5103C43.3685 58.9002 44.2181 52.3093 45.9988 45.9426C48.6895 36.9841 53.6829 29.4896 62.2323 24.1334C70.7851 18.7824 82.9942 15.5814 100.102 15.5822C111.503 15.5817 120.737 17.004 128.153 19.5381C139.279 23.3501 146.323 29.5981 150.7 37.4969C155.069 45.398 156.729 55.0325 156.727 65.5102C156.847 72.0147 155.989 78.5001 154.181 84.7493H154.181ZM165.285 63.8982C165.487 65.1394 165.582 66.3954 165.571 67.6528C165.567 68.9813 165.488 70.3085 165.332 71.6278C165.091 73.8255 164.6 75.9884 163.866 78.0742C163.608 78.8039 163.289 79.5111 162.914 80.1883C162.713 80.574 162.452 80.9254 162.142 81.2296C161.24 81.8759 160.207 82.3143 159.115 82.5133C158.573 82.6358 158.079 82.7127 157.726 82.7578C157.605 82.7732 157.509 82.7839 157.425 82.7926C158.761 77.1309 159.4 71.327 159.327 65.5102C159.327 63.2532 159.245 61.0305 159.081 58.8422C159.899 59.0185 160.7 59.2614 161.478 59.5685C162.131 59.821 162.755 60.142 163.341 60.5259C163.85 60.8484 164.287 61.2737 164.623 61.7745C164.964 62.4391 165.188 63.1575 165.285 63.8982H165.285ZM163.461 55.5353C163.248 55.9718 162.962 56.369 162.616 56.7103C162.478 56.8395 162.328 56.9539 162.167 57.0518C161.824 56.9228 161.492 56.8062 161.189 56.7112C160.598 56.5243 159.998 56.3712 159.39 56.2526C159.277 56.2397 159.163 56.2421 159.05 56.26C159.114 55.4714 159.259 53.6867 159.457 51.2604C160.266 41.3298 161.944 20.8457 162.404 16.0869C162.416 15.2273 162.762 14.4062 163.369 13.7969C163.843 13.4021 164.446 13.1961 165.063 13.2185C165.194 13.2186 165.325 13.2259 165.455 13.2403C166.04 13.2721 166.593 13.5146 167.013 13.9228C167.226 14.1562 167.386 14.4328 167.482 14.7338C167.633 15.2109 167.704 15.7096 167.693 16.2098C167.693 16.3693 167.687 16.5385 167.676 16.7172C167.349 21.6992 165.821 39.583 164.888 49.4465C164.792 51.5467 164.308 53.611 163.461 55.5353Z"/><path id="Vector_19" d="M74.361 161.002C76.8428 158.383 80.555 154.395 80.5563 154.394C80.6859 154.255 80.7835 154.089 80.842 153.908C80.9004 153.727 80.9185 153.536 80.8948 153.347C80.5658 150.97 80.095 148.616 79.4851 146.295C79.4055 146 79.2241 145.742 78.9729 145.567C78.7218 145.392 78.417 145.311 78.1121 145.339C77.177 145.443 76.2552 145.644 75.3617 145.938C73.4902 146.558 71.671 147.326 69.9214 148.234C69.669 148.369 69.4676 148.582 69.3478 148.842C68.2736 151.391 67.6307 154.102 67.4452 156.862C67.4231 157.198 67.5325 157.529 67.7501 157.785C68.6862 158.803 69.7826 159.659 70.9956 160.322C71.6126 160.681 72.2479 161.007 72.899 161.3C73.1438 161.406 73.4154 161.434 73.6769 161.381C73.9384 161.328 74.1772 161.195 74.361 161.002Z"/><path id="Vector_20" d="M99.1272 150.664C98.9087 150.459 98.6263 150.336 98.3274 150.315C98.0285 150.294 97.7316 150.376 97.4865 150.549C96.6739 151.123 95.0573 152.333 93.6236 153.415C92.193 154.494 90.959 155.434 90.9579 155.435C90.7537 155.59 90.6001 155.802 90.5164 156.044C90.4327 156.287 90.4227 156.548 90.4876 156.796C90.4886 156.8 90.9456 158.559 91.4723 160.608C91.9985 162.656 92.5949 164.996 92.865 166.123C92.9299 166.395 93.0814 166.64 93.2968 166.819C93.5121 166.998 93.7798 167.103 94.0597 167.117C94.0725 167.118 96.3669 167.241 98.7195 167.241C99.8989 167.241 101.086 167.212 102.055 167.112C102.309 167.086 102.55 166.985 102.747 166.823C102.944 166.661 103.089 166.444 103.164 166.2C103.166 166.194 103.663 164.569 104.197 162.672C104.464 161.723 104.74 160.706 104.969 159.783C105.175 159 105.341 158.207 105.465 157.407C105.492 157.204 105.47 156.998 105.402 156.805C105.333 156.612 105.22 156.437 105.071 156.297C105.07 156.296 100.69 152.136 99.1272 150.664Z"/><path id="Vector_21" d="M85.4036 171.984C83.5585 171.284 81.6663 170.715 79.7412 170.281C77.8697 169.828 76.3667 169.527 76.3557 169.525C76.093 169.472 75.8204 169.502 75.5753 169.61C75.3302 169.719 75.1246 169.9 74.9867 170.13L72.0536 175.006C71.922 175.226 71.858 175.479 71.8695 175.734C71.8809 175.99 71.9673 176.237 72.118 176.443C72.7046 177.202 73.3863 177.882 74.1462 178.466C75.7776 179.719 77.5173 180.823 79.3446 181.767C79.5895 181.892 79.8681 181.936 80.1396 181.891C83.0383 181.424 86.4911 180.651 86.5042 180.649C86.8303 180.576 87.1158 180.38 87.3015 180.103C87.4872 179.825 87.5589 179.486 87.5015 179.157C87.121 176.975 86.1695 172.901 86.167 172.888C86.1203 172.688 86.0268 172.501 85.8941 172.344C85.7613 172.187 85.5933 172.064 85.4036 171.984Z"/><path id="Vector_22" d="M107.619 165.872H107.62V165.871L107.619 165.872Z"/><path id="Vector_23" d="M88.3968 70.7862C88.0181 71.0171 87.621 71.2598 87.2351 71.4952C86.4728 71.9603 85.7056 72.4286 84.9208 72.908C84.792 73.0531 84.6228 73.1564 84.435 73.2049C82.84 74.1794 81.218 75.1714 79.5822 76.1735C78.799 76.6533 78.0164 77.1332 77.2344 77.6131C77.4327 77.803 77.641 77.9822 77.8584 78.1499C79.0112 79.0215 80.4183 79.4904 81.8634 79.4845C81.9933 79.4845 82.1243 79.4809 82.2565 79.4739C83.6834 79.4013 85.052 78.8849 86.1712 77.9968C87.8148 76.5873 89.0089 74.7266 89.6056 72.6451C89.9226 71.6541 90.1625 70.6401 90.3232 69.6121C89.6925 69.9963 89.053 70.386 88.3968 70.7862Z"/><path id="Vector_24" d="M90.2819 64.6629C90.1618 64.5414 90.0188 64.4449 89.8611 64.379C89.7035 64.3131 89.5343 64.2791 89.3635 64.2791L74.5119 64.2341C74.3406 64.2336 74.1709 64.267 74.0125 64.3323C73.8541 64.3976 73.7102 64.4935 73.589 64.6146C73.4679 64.7357 73.3718 64.8796 73.3064 65.0379C73.2411 65.1962 73.2076 65.3659 73.208 65.5372C73.2082 67.208 73.3748 68.8745 73.7054 70.5122C74.5797 70.5566 75.4948 70.6096 76.4144 70.6681C77.192 70.7174 77.9689 70.7699 78.7159 70.8224C81.0132 70.9841 83.0161 71.1455 83.8556 71.2146C85.2138 70.385 86.5462 69.5718 87.8291 68.7896C88.7825 68.2083 89.707 67.6451 90.6025 67.0999C90.6327 66.5963 90.6575 66.0912 90.6596 65.5839C90.6607 65.413 90.6278 65.2436 90.563 65.0855C90.4981 64.9275 90.4026 64.7838 90.2819 64.6629Z"/><path id="Vector_25" d="M78.5754 72.8175C78.083 72.7828 77.5753 72.7484 77.0643 72.7147C76.1191 72.6522 75.163 72.5935 74.2432 72.5433C74.4948 73.3384 74.8103 74.1118 75.1867 74.856C75.4069 75.2757 75.6524 75.6815 75.9219 76.0713C76.6591 75.619 77.3974 75.1663 78.137 74.7132C79.0775 74.1369 80.0148 73.563 80.949 72.9916C80.2241 72.9365 79.4244 72.8773 78.5754 72.8175Z"/><path id="Vector_26" d="M112.446 64.2341C112.274 64.2336 112.105 64.267 111.946 64.3323C111.788 64.3976 111.644 64.4935 111.523 64.6146C111.402 64.7357 111.306 64.8796 111.24 65.0379C111.175 65.1962 111.141 65.3659 111.142 65.5372C111.077 68.7542 111.755 71.9428 113.121 74.856C113.75 76.142 114.663 77.2682 115.792 78.1498C116.65 78.7975 117.654 79.2259 118.716 79.398C118.811 78.5266 118.908 77.653 119.006 76.8032C119.24 74.7781 119.482 72.8926 119.723 71.5259C119.809 70.9965 119.925 70.4724 120.07 69.956L120.153 69.7604C120.408 69.3046 120.861 68.6379 121.5 67.738C121.692 67.467 121.906 67.1709 122.129 66.8635C122.643 66.1566 123.227 65.3648 123.871 64.5018C123.926 64.4279 123.99 64.3441 124.046 64.2692L112.446 64.2341Z"/><path id="Vector_27" d="M128.216 64.6628C128.096 64.5413 127.953 64.4448 127.795 64.3789C127.637 64.313 127.468 64.2791 127.297 64.279L126.541 64.2767C125.843 65.203 125.189 66.078 124.603 66.8709C124.044 67.6273 123.546 68.3115 123.13 68.8972C122.561 69.6952 122.147 70.3128 121.957 70.6382C121.776 71.3674 121.635 72.1057 121.534 72.85C121.373 73.9084 121.209 75.1922 121.047 76.5635L121.032 76.7002C120.929 77.579 120.827 78.4903 120.728 79.4032C121.96 79.2485 123.127 78.7624 124.104 77.9968C125.748 76.5873 126.942 74.7266 127.539 72.6451C128.253 70.3599 128.608 67.9779 128.593 65.5838C128.595 65.413 128.562 65.2436 128.497 65.0855C128.432 64.9274 128.337 64.7838 128.216 64.6628Z"/><path id="Vector_28" d="M105.328 80.3682C103.976 79.6106 102.444 79.2341 100.896 79.2791C99.2849 79.2327 97.692 79.6257 96.2876 80.4159C95.4776 80.896 94.774 81.536 94.2197 82.2971C93.5913 83.1723 93.1447 84.1646 92.906 85.2153C92.79 85.6917 92.7217 86.1785 92.7023 86.6684C92.697 87.0124 92.8283 87.3445 93.0675 87.5918C93.3067 87.8392 93.6342 87.9816 93.9782 87.9877C94.3222 87.9939 94.6547 87.8635 94.9026 87.6249C95.1505 87.3863 95.2937 87.0592 95.3008 86.7152L95.3019 86.7153C95.3656 85.8156 95.6372 84.943 96.0954 84.1661C96.4823 83.5189 97.0303 82.9829 97.6858 82.6103C98.6731 82.089 99.7801 81.8368 100.896 81.8791C101.978 81.8346 103.052 82.0857 104.003 82.6054C104.486 82.8902 104.904 83.2723 105.231 83.7273C105.646 84.3217 105.936 84.9943 106.084 85.7042C106.171 86.0878 106.219 86.4792 106.227 86.8724L106.227 86.8877H106.228C106.221 87.2321 106.351 87.5651 106.59 87.8135C106.828 88.0619 107.156 88.2054 107.5 88.2125C107.845 88.2196 108.178 88.0897 108.426 87.8513C108.675 87.6129 108.819 87.2855 108.826 86.9411L108.827 86.8724C108.806 85.4778 108.444 84.1096 107.774 82.8864C107.196 81.8452 106.352 80.9762 105.328 80.3682Z"/></g></svg>