<svg xmlns="http://www.w3.org/2000/svg" width="200" height="200" fill="none"><path fill="#FFD93A" d="M93.644 101.377c-.12.92.416 2.552 1.427 4.309 9.035-4.594 13.415 1.657 13.787 6.032 4.392-3.469 5.832-12.833 4.359-15.063-1.779-2.692-19.028.507-19.573 4.722ZM97.055 139.732c3.682-.559 6.91-.972 9.004-1.225l-.241-.761s-3.619-3.842-6.682-5.784c-2.121-.08-5.194-.083-9.124.206.273.246.543.482.821.739a56.645 56.645 0 0 1 6.222 6.825ZM61.242 137.923c-6.536 2.049-11.794 4.172-16.368 6.263a74.012 74.012 0 0 1 3.112 3.746c1.757 2.268 3.102 4.171 4.12 5.715 5.642-2.667 11.966-5.167 17.593-7.167a46.548 46.548 0 0 0-2.982-3.348 119.707 119.707 0 0 0-5.475-5.209ZM67.36 136.138a75.314 75.314 0 0 1 7.44 8.6c3.549-1.161 6.533-2.022 8.463-2.466 2.47-.566 5.087-1.08 7.666-1.538a72.406 72.406 0 0 0-7.82-7.835c-3.065.418-6.452.998-10.148 1.803-1.961.472-3.82.951-5.6 1.436ZM82.404 147.346a90.026 90.026 0 0 0-4.817 1.377 78.447 78.447 0 0 1 4.592 7.952c1.643-.229 3.21-.358 4.44-.315 3.395.118 6.673-2.341 8.663-4.097.59-.52 1.395-1.038 2.278-1.521-.856-1.923-2.037-3.921-3.445-5.918-3.42.603-7.357 1.417-11.71 2.522ZM40.065 146.502a82.628 82.628 0 0 0-7.64 4.441c2.325 1.444 4.87 3.156 6.196 4.481 1.486 1.486 3.172 2.307 4.93 2.777a72.21 72.21 0 0 1 4.129-2.347c-1.763-2.708-4.551-6.124-7.615-9.352ZM86.257 128.056a33.037 33.037 0 0 0-1.98-.397c.264.174.527.346.795.534.415-.052.807-.097 1.185-.137ZM102.749 148.559c.229-.067.438-.122.61-.16 1.207-.257 2.727-3.492 3.448-5.183-1.411.092-3.719.287-6.778.692a53.53 53.53 0 0 1 2.72 4.651ZM63.22 132.376a289.013 289.013 0 0 1 15.195-3.145 39.043 39.043 0 0 0-3.92-2.446c-3.95-.248-8.306-.394-11.524-.16-2.573.186-5.219.281-7.71.424 2.195 1.103 4.744 2.692 7.476 4.922.163.133.32.27.483.405ZM29.02 137.207c-1.513 1.439-2.808 2.764-2.808 2.764.612 2.145 1.137 6.698 1.26 7.821 2.489-1.685 5.552-3.405 8.797-5.045-2.57-2.378-5.119-4.383-7.25-5.54ZM56.708 134.123c-3.273-2.559-6.62-4.745-9.675-6.011-.408.117-.8.242-1.154.386-3.662 1.487-10.668 4.202-12.621 5.198 2.213 1.366 5.083 3.763 7.993 6.651 6.052-2.785 12.01-5.097 15.457-6.224ZM54.713 158.061c.124.25.201.419.246.522 1.776-.014 3.743.102 6.021.587 5.503 1.171 10.186.351 13.23-.702a33.297 33.297 0 0 1 3.057-.864 100.653 100.653 0 0 0-4.613-7.208c-6.802 2.464-13.334 5.433-17.941 7.665Z"/><path fill="#191C22" d="M134.385 59.764c-2.066-2.259-4.622-3.793-7.315-4.755-2.695-.964-5.531-1.365-8.229-1.365-3.308.002-6.404.598-8.827 1.578a1.3 1.3 0 0 0 .979 2.41c2.04-.832 4.861-1.391 7.848-1.388 2.439-.001 4.992.367 7.354 1.213 2.364.846 4.532 2.162 6.273 4.062a1.3 1.3 0 1 0 1.917-1.755ZM70.105 66.928C73.621 64.96 77.582 64 80.487 64a1.3 1.3 0 0 0-.006-2.6c-3.437.014-7.716 1.074-11.642 3.256-3.912 2.181-7.487 5.526-9.202 10.165a1.3 1.3 0 1 0 2.44.9c1.432-3.893 4.5-6.826 8.028-8.794ZM72.934 35.381v-.004.004ZM115.519 82.63c.412 1.758.903 3.394 1.511 4.777a11.27 11.27 0 0 0 1.024 1.877c.385.555.822 1.041 1.363 1.415a5.217 5.217 0 0 0 3.084.94c1.382-.007 2.901-.38 5.065-1.014 2.006-.599 3.296-1.113 4.286-1.842.49-.363.889-.79 1.189-1.248.302-.457.507-.93.686-1.407.167-.456.29-1.007.388-1.713.096-.701.158-1.541.158-2.496 0-2.429-.401-5.605-1.724-8.981-1.589-4.018-5.782-6.705-10.551-6.709-.141 0-.283.003-.428.008-1.901.062-3.957.565-5.788 1.894l.764 1.053-.764-1.052c-1.158.837-1.822 2.14-1.819 3.48 0 .09.003.19.012.296h-.001c.232 3.213.725 7.21 1.545 10.722Zm5.541-11.432a3.091 3.091 0 0 1 1.284-1.282h.001a3.53 3.53 0 0 1 1.681-.453c.823-.003 1.561.344 2.095.805.543.463.933 1.033 1.241 1.634a8.674 8.674 0 0 1 .906 3.744c0 .364-.029.714-.105 1.061-.08.346-.196.698-.465 1.054-.177.234-.445.47-.793.607-.377.15-.776.22-1.16.219-.57 0-1.102-.148-1.576-.37a5.32 5.32 0 0 1-1.287-.87 7.126 7.126 0 0 1-1.773-2.518c-.261-.635-.429-1.306-.431-2.006 0-.537.105-1.1.382-1.625Zm.091 7.066a1.3 1.3 0 0 1 1.765.516l.129.235a1.3 1.3 0 0 1-2.281 1.25l-.129-.236a1.3 1.3 0 0 1 .516-1.765ZM68.683 95.03c.44 1.067.907 1.971 1.344 2.694.442.727.833 1.26 1.22 1.65.507.51 1.08.999 1.832 1.328.752.33 1.61.47 2.634.468.837 0 1.803-.088 3.002-.256 2.048-.291 3.509-.562 4.711-1.039a5.886 5.886 0 0 0 1.597-.924c.463-.383.84-.844 1.14-1.346.636-1.085.8-2.36.81-3.789-.004-2.271-.498-4.987-1.192-7.744a78.513 78.513 0 0 0-2.45-7.824c-.499-1.355-1.704-2.386-3.211-2.688a9.555 9.555 0 0 0-1.909-.192c-1.503 0-2.9.35-4.145.867-4.397 1.83-7.218 5.88-7.228 10.143 0 .17.005.337.014.504a25.005 25.005 0 0 0 1.831 8.149Zm6.087-14.233a3.096 3.096 0 0 1 1.284-1.281h.001v-.001a3.529 3.529 0 0 1 1.681-.452c.823-.004 1.562.344 2.096.805.542.463.933 1.033 1.24 1.634a8.68 8.68 0 0 1 .907 3.745c0 .363-.03.713-.105 1.06-.08.346-.197.698-.465 1.054-.177.233-.444.47-.793.606-.377.15-.776.22-1.16.22a3.72 3.72 0 0 1-1.577-.37 5.314 5.314 0 0 1-1.286-.87 7.12 7.12 0 0 1-1.773-2.519c-.262-.634-.43-1.306-.432-2.006 0-.537.105-1.1.382-1.625Zm.091 7.067a1.3 1.3 0 0 1 1.765.515l.129.236a1.3 1.3 0 0 1-2.28 1.249l-.13-.236a1.3 1.3 0 0 1 .516-1.764ZM100.769 113.385c1.427.73 2.933 1.176 4.442 1.178a6.805 6.805 0 0 0 1.935-.271c1.32-.393 2.45-1.212 3.413-2.238 1.442-1.545 2.547-3.583 3.324-5.736.772-2.154 1.21-4.42 1.212-6.46-.003-1.37-.192-2.646-.699-3.75-.228-.49-.6-.852-.989-1.106-.592-.38-1.247-.576-1.972-.71-.724-.13-1.522-.185-2.383-.186-3.104.006-7.051.71-10.347 1.81-1.648.555-3.125 1.2-4.28 1.974-.578.39-1.081.812-1.481 1.326-.395.507-.7 1.151-.7 1.887l.011.235c.31 3.412 2.135 6.637 4.53 9.075 1.202 1.218 2.557 2.24 3.984 2.972Zm-5.925-12.284c0-.005.002-.091.156-.294.265-.36.994-.912 2.007-1.406 1.519-.755 3.646-1.446 5.83-1.928 2.184-.485 4.439-.768 6.215-.766.994-.003 1.84.093 2.382.247.271.075.461.165.551.225l.062.048c.276.598.452 1.53.448 2.631.006 2.218-.678 5.075-1.833 7.416-.574 1.172-1.263 2.216-2 3.002-.739.79-1.515 1.306-2.252 1.522-.374.11-.773.165-1.199.166-.981.001-2.112-.305-3.257-.892-1.717-.877-3.442-2.377-4.748-4.163-1.31-1.785-2.194-3.846-2.361-5.802v-.006ZM92.255 101.342v-.004l-.001-.004v.008ZM43.615 159.388c1.476.27 3.104.332 4.812.333 1.914 0 3.926-.082 5.885-.081 2.614-.004 5.13.154 7.104.771 1.297.403 2.67.557 4.079.558 3.36-.005 6.962-.87 10.42-1.699 2.291-.556 4.517-1.088 6.508-1.385.089.002.175-.021.264-.037.909-.127 1.77-.207 2.555-.205.207 0 .41.005.607.016.184.009.366.014.547.014 1.846.002 3.467-.5 4.901-1.224 2.155-1.093 3.945-2.639 5.876-3.951 1.933-1.32 3.961-2.421 6.61-2.812a4.1 4.1 0 0 0 2.172-1.017c.856-.78 1.325-1.78 1.666-2.778.33-.985.53-1.999.716-2.915.285-.895.422-1.681.422-2.387.002-.755-.159-1.422-.443-1.965a3.403 3.403 0 0 0-2.02-1.685c-2.075-2.644-5.12-4.747-8.93-6.405a5.052 5.052 0 0 0-.684-1c-.651-.744-1.548-1.438-2.64-1.973a8.685 8.685 0 0 0-3.788-.898 7.922 7.922 0 0 0-2.831.536 4.347 4.347 0 0 0-.581-.044c-.377.003-.605.034-.787.031-.047 0-.095-.003-.144-.006-2.018-1.715-4.511-2.419-6.733-2.421-.917 0-1.794.118-2.596.348a6.447 6.447 0 0 0-1.646.751c-.194-.014-.393-.025-.588-.038-.01-.002-.019-.006-.028-.007-.02-.004-.037.004-.056.001a136.824 136.824 0 0 0-5.52-.278 109.986 109.986 0 0 0-3.186-.045c-3.548 0-6.935.163-9.742.397-1.17-.527-2.483-.978-3.927-.982a6.048 6.048 0 0 0-2.677.606c-.76.368-1.476.927-2.135 1.657-6.337 1.362-10.605 3.35-13.763 5.063-.466-.125-.936-.214-1.41-.214-1.098-.01-2.23.408-3.035 1.269-.71.751-1.14 1.774-1.343 2.983-1.894 1.762-2.638 3.097-2.697 3.208-.236.444-.174.956.093 1.343.692 1.588.618 3.124.657 4.735.03.829.085 1.698.467 2.579.19.436.471.863.844 1.23a4.74 4.74 0 0 0 1.35.916c3.164 1.462 8.397 4.502 11.487 7.383 1.058.974 2.418 1.451 3.888 1.724Zm10.464-2.6c-.124.066-.22.161-.312.256-1.84.013-3.66.077-5.332.077 5.905-3.521 12.735-6.516 20.48-9.21l.002-.001c.488.592.965 1.18 1.42 1.755-5.773 2.106-11.348 4.516-16.258 7.123Zm13.05-10.997c-5.11 1.811-9.852 3.765-14.213 5.935a116.43 116.43 0 0 0-5.863-7.342c4.373-1.92 9.046-3.682 13.76-5.217.003.003.004.007.007.009a95.17 95.17 0 0 1 6.309 6.615Zm8.178 10.951c-3.443.833-6.906 1.632-9.812 1.627-1.218 0-2.332-.137-3.309-.441-1.047-.323-2.151-.527-3.284-.661 4.079-1.964 8.525-3.8 13.091-5.439 1.378 1.849 2.524 3.529 3.373 4.9l-.06.014Zm2.718-.644c-1.237-2.096-3.175-4.905-5.617-8.005-2.49-3.159-5.496-6.6-8.778-9.815.976-.298 1.951-.588 2.924-.865.056.102.106.207.192.294a102.482 102.482 0 0 1 8.753 10.185c2.072 2.764 3.812 5.433 4.999 7.68-.814.155-1.64.334-2.473.526Zm-8.7-19.45c4.628-1.226 9.132-2.187 13.25-2.812l.003-.001c2.037 1.802 4.085 3.867 5.947 5.948-4.594.992-9.247 2.18-13.41 3.408a105.516 105.516 0 0 0-5.79-6.543ZM91.9 153.072c-.895.601-1.766 1.104-2.659 1.452a7.716 7.716 0 0 1-3.26.538 13.783 13.783 0 0 0-.739-.019 20.3 20.3 0 0 0-2.031.122c-.883-1.79-2.088-3.784-3.52-5.882 4.688-1.421 9.357-2.601 13.737-3.471.025.046.03.097.062.142v-.001c.609.87 1.124 1.673 1.518 2.367.395.691.668 1.282.794 1.676.026.082.081.143.122.216-1.47.988-2.77 2.022-4.024 2.86Zm6.245-4.202a13.103 13.103 0 0 0-.877-1.835 29.995 29.995 0 0 0-1.085-1.735c.99-.171 1.963-.327 2.912-.462.722 1.125 1.289 2.148 1.637 2.923a17.23 17.23 0 0 0-2.587 1.109Zm6.729-3.093c-.203.434-.43.755-.659.96a1.472 1.472 0 0 1-.81.376c-.044.007-.083.018-.126.025-.317-.797-.766-1.679-1.35-2.66a63.953 63.953 0 0 1 3.478-.282c-.151.593-.323 1.14-.533 1.581Zm1.143-5.931c.006.012.013.02.019.034.062.141.123.356.123.709.001.25-.039.578-.128.973-7.65.308-17.659 2.331-27.735 5.426-.064.019-.11.063-.168.091-.182-.248-.36-.496-.547-.746-.233-.311-.489-.626-.73-.938a188.378 188.378 0 0 1 14.852-3.62c5.382-1.075 10.508-1.811 14.314-1.929Zm-11.359-6.789c.942.036 1.804.093 2.344.16 2.606 1.203 4.7 2.611 6.256 4.194-1.83.154-3.813.398-5.904.719-.044-.093-.076-.191-.145-.275a70.582 70.582 0 0 0-4.337-4.846c.594.01 1.204.025 1.786.048Zm-4.404-3.794c1.26-.003 2.473.452 3.383 1.054.056.036.099.076.152.114a80.718 80.718 0 0 0-2.14-.033c-.41 0-.791.004-1.13.011-.112.003-.212.042-.315.071-.415-.364-.83-.717-1.244-1.05.439-.11.87-.167 1.294-.167Zm-11.076-1.904c1.789-.003 3.824.61 5.303 2.011.1.093.211.165.33.222.062.058.11.127.184.173 2.94 1.827 6.473 5.297 9.46 8.849-1.016.18-2.044.372-3.086.578a1.283 1.283 0 0 0-.206-.361c-2.58-2.953-5.565-5.952-8.49-8.342-1.465-1.195-2.914-2.238-4.31-3.048l-.048-.026c.278-.032.564-.057.863-.056Zm-.732 3.207c.484.328.979.686 1.481 1.07-10.85 1.895-23.705 5.8-34.678 10.698-.005.003-.008.008-.013.01-.422-.463-.84-.936-1.267-1.385-.133-.14-.267-.275-.4-.413 11.392-4.925 24.518-8.645 34.877-9.98Zm-12.888-2.475c1.03 0 2.07.014 3.11.044 1.82.052 3.584.147 5.313.266.164.032.335.072.518.126-3.553.601-7.322 1.433-11.169 2.453a52.428 52.428 0 0 0-3.537-2.747c1.819-.088 3.767-.142 5.765-.142Zm-15.21-.241a3.439 3.439 0 0 1 1.54-.344c.886-.005 1.89.309 2.885.762.1.088.203.174.333.23 1.45.619 3.237 1.817 5.15 3.329-1.003.29-2.008.594-3.014.907-.056-.063-.096-.136-.165-.189-2.33-1.78-4.72-3.317-7.123-4.47.133-.086.264-.161.395-.225Zm-2.948 1.905c.034.018.057.048.094.063 2.204.902 4.493 2.247 6.766 3.879a145.733 145.733 0 0 0-12.654 4.869c-1.91-1.854-3.809-3.491-5.636-4.795 2.803-1.42 6.384-2.907 11.43-4.016Zm-16.644 5.322c.31-.315.632-.449 1.148-.459.296 0 .653.067 1.042.205.056.05.098.113.165.154 2.684 1.66 5.86 4.488 8.972 7.771 3.017 3.18 5.98 6.785 8.49 10.189-.77.411-1.529.829-2.273 1.256-2.108-2.792-4.957-6.321-8.162-9.684-3.082-3.23-6.478-6.295-9.915-8.414.147-.478.338-.815.533-1.018Zm-2.567 10.578c-.022-.543-.022-1.182-.048-1.908-.042-1.047-.197-2.271-.681-3.553.294-.406.8-1.029 1.574-1.778 1.653 1.035 3.343 2.344 5.01 3.816a82.076 82.076 0 0 0-5.855 3.423Zm1.223 2.305a80.846 80.846 0 0 1 6.655-3.861c.62.599 1.232 1.214 1.834 1.838a77.628 77.628 0 0 0-5.757 3.409 53.102 53.102 0 0 0-2.732-1.386Zm10.325-.06a114.985 114.985 0 0 1 6.311 7.627c-.684.424-1.361.851-2.022 1.291-1.18-.221-2.036-.593-2.53-1.06-1.923-1.777-4.407-3.496-6.82-4.954a79.79 79.79 0 0 1 5.061-2.904Z"/><path fill="#191C22" d="M50.346 174.953c.15 1.779.585 3.086 1.282 4.02a4.131 4.131 0 0 0 2.541 1.607l.004.001c.122.024.241.034.355.034.492-.006.847-.168 1.145-.334.514-.301.913-.688 1.308-1.11.582-.631 1.112-1.349 1.511-1.921l.094-.137c.12.319.257.667.41 1.023.268.62.573 1.254.943 1.812.188.279.39.543.659.789.136.122.29.241.484.345.192.103.429.191.705.219l.194.01c.43-.004.767-.125 1.063-.265.07-.034.127-.083.193-.12-.113 2.176-.337 4.531-.56 6.511a164.636 164.636 0 0 1-.593 4.673 1.3 1.3 0 1 0 2.572.379c.001-.01.3-2.036.605-4.763.306-2.728.62-6.148.649-8.992a1.274 1.274 0 0 0-.083-.43c.082-.119.175-.232.251-.352.237-.377.447-.757.617-1.137.106-.24.19-.481.26-.728.363-.007.729-.008 1.088-.018.006.01.005.021.011.031.014.022.526.898 1.242 1.879.36.492.768 1.01 1.213 1.474.453.462.909.886 1.56 1.17.23.095.484.147.728.146.553-.003.984-.232 1.288-.465.536-.421.86-.919 1.172-1.45.453-.794.81-1.679 1.07-2.386.172-.473.293-.847.36-1.057 4.588-.564 8.87-1.439 12.695-2.581 6.887-2.065 12.339-4.921 15.657-8.362 1.859-1.942 3.303-4.368 4.315-6.323a36.554 36.554 0 0 0 1.582-3.471c.021-.055.015-.111.028-.167 1.084-.682 2.151-1.431 3.085-2.316 1.021-.971 1.855-2.026 2.443-3.165.587-1.137.924-2.364.924-3.625.004-1.69-.616-3.396-1.833-4.943-.606-.777-.985-1.535-1.335-2.377-.524-1.253-.955-2.726-1.969-4.333-1.014-1.608-2.6-3.27-5.295-4.982-3.546-2.26-6.437-3.295-8.867-4.029l-.364-.108a89.379 89.379 0 0 0 4.273-.461 1.3 1.3 0 0 0-.349-2.576h-.001c-3.106.422-6.62.68-9.807.805-.026.001-.047.015-.073.018-2.87-1.591-6.433-2.116-9.773-2.123-1.964 0-3.85.188-5.475.489a4.243 4.243 0 0 1-.778.068c-1.174.01-2.66-.451-4.454-.985a36.923 36.923 0 0 0-2.427-.625c-.067-.045-.12-.104-.198-.137-4.864-2.098-7.686-4.764-9.311-6.876a14.551 14.551 0 0 1-1.624-2.618 8.964 8.964 0 0 1-.311-.734l-.06-.177-.012-.034v-.003h-.002a1.285 1.285 0 0 0-.955-.892 1.258 1.258 0 0 0-.633-.32 16.96 16.96 0 0 1-7.83-3.394c-.515-.402-.94-.786-1.297-1.133l7.126-2.431c.538-.184.894-.693.88-1.262a1.298 1.298 0 0 0-.941-1.218l-.016-.004c-.228-.066-2.725-.849-5.146-2.522-1.212-.834-2.4-1.885-3.303-3.148a9.09 9.09 0 0 1-1.347-2.8l14.868 2.431a1.3 1.3 0 0 0 .42-2.565l-3.073-.503c-2.37-6.842-3.662-13.236-3.66-19.038 0-4.186.667-8.062 2.076-11.615 2.116-5.326 5.892-9.958 11.781-13.826 3.439-2.256 7.608-4.238 12.562-5.907.028-.005.054.004.082-.003l.024-.005c.264-.065 2.822-.626 5.082-.622.864-.002 1.68.086 2.248.263 2.782.863 4.205 2.432 5.024 3.813.403.69.64 1.331.772 1.789.066.228.107.41.13.528l.021.126.004.023a1.3 1.3 0 0 0 2.421.483c.024-.041.678-1.2 1.338-2.96.657-1.761 1.33-4.124 1.334-6.628 0-.324-.013-.65-.038-.978 3.644-.48 7.027-.713 10.158-.713 6.417 0 11.775.97 16.217 2.739 6.659 2.66 11.299 7.084 14.466 12.99 3.16 5.903 4.797 13.316 5.22 21.788.008.17.054.328.12.474l-2.942 1.804a1.299 1.299 0 1 0 1.358 2.217l12.857-7.881c.036.319.059.635.059.948 0 1.424-.351 2.796-.9 4.069-.822 1.907-2.096 3.57-3.166 4.737a20.579 20.579 0 0 1-1.358 1.355c-.171.155-.308.273-.399.35l-.102.084-.023.018-.003.003c-.447.352-.612.95-.41 1.483.202.532.724.869 1.292.835l7.517-.445c-.22.503-.503 1.084-.877 1.719a16.966 16.966 0 0 1-5.862 5.924c-.179.108-.31.26-.415.426-.427.281-.667.8-.562 1.334.05.256.095.657.095 1.163-.003 2.102-.743 5.963-4.362 10.397-3.62 4.434-10.161 9.47-21.813 13.789a119.662 119.662 0 0 1-8.32 2.759 1.3 1.3 0 1 0 .724 2.498 116.8 116.8 0 0 0 5.068-1.604c.016.001.029.01.045.01 4.922.111 9.547 1.515 13.452 3.411 3.902 1.893 7.083 4.284 9.073 6.277.425.423 1.006 1.165 1.643 2.116 2.247 3.346 5.245 9.258 7.637 14.843 1.198 2.794 2.251 5.514 2.995 7.794.373 1.14.668 2.169.865 3.031.199.858.295 1.559.292 1.969.011.982-.46 2.447-1.324 4.029-1.284 2.382-3.383 5.042-5.529 7.265a37.973 37.973 0 0 1-3.15 2.937c-.991.816-1.901 1.443-2.563 1.784-.193.101-.336.25-.452.416-.298.304-.458.732-.359 1.178l.61 2.731c.121.544.572.948 1.127 1.009l5.002.55a7.791 7.791 0 0 1-.513.556c-1.068 1.039-2.65 2.066-5.061 2.237-.633.044-1.325.122-2 .121-.841.004-1.602-.13-2.107-.447a2.013 2.013 0 0 1-.666-.663c-.194-.306-.369-.734-.475-1.351-.012-.067-.05-.119-.07-.181a358.682 358.682 0 0 0-.425-13.06c.023-.085.062-.162.067-.253.039-.637.24-1.235.568-1.858.487-.933 1.267-1.87 1.994-2.884.362-.51.712-1.044.986-1.644.273-.596.471-1.272.471-2.01 0-.439-.071-.893-.22-1.34a5.356 5.356 0 0 0-.504-1.04c-.715-1.185-1.896-2.606-2.925-3.792a75.031 75.031 0 0 0-1.867-2.062c-.55-4.354-1.257-8.527-2.169-12.208a1.3 1.3 0 1 0-2.523.626h-.001c1.761 7.092 2.769 16.331 3.323 25.058.556 8.731.667 16.961.667 22.104 0 1.686-.012 3.04-.024 3.972-.011.932-.023 1.435-.023 1.437a1.3 1.3 0 1 0 2.6.06c0-.009.047-2.073.047-5.469l-.002-1.118c.227.126.459.234.692.318.892.329 1.784.404 2.586.405.861 0 1.638-.092 2.177-.127 3.209-.215 5.464-1.701 6.838-3.107 1.383-1.41 1.953-2.735 1.996-2.832.162-.379.135-.81-.074-1.166a1.296 1.296 0 0 0-.98-.636l-1.408-.154c.264-.266.503-.526.693-.768.641-.814.892-1.438.929-1.535.132-.346.11-.738-.062-1.067a1.309 1.309 0 0 0-.842-.66l-1.88-.462c2.114-1.951 4.336-4.408 6.104-6.931.942-1.348 1.755-2.711 2.347-4.045.588-1.335.97-2.64.974-3.923-.003-.851-.176-1.823-.458-2.974-.995-3.994-3.436-10.088-6.112-15.735-1.338-2.819-2.732-5.515-4.038-7.76-.12-.207-.236-.39-.355-.589.571-.304 1.11-.63 1.671-.884.648-.294 1.303-.494 2.074-.495 1.068.004 2.466.381 4.426 1.858.284.215.65.305 1.002.245s.667-.264.865-.562c1.641-2.465 3.342-3.951 4.964-4.838a9.5 9.5 0 0 1 4.62-1.185c1.609-.001 3.042.392 4.064.79.51.198.916.396 1.188.54.135.072.237.13.302.169l.068.041.012.008.001-.001a1.302 1.302 0 0 0 1.673-.223 1.302 1.302 0 0 0 .04-1.69c-4.457-5.469-9.736-8.703-14.787-10.545-5.055-1.845-9.883-2.317-13.536-2.318-3.923.001-6.496.546-6.563.56a1.303 1.303 0 0 0-.824.571 1.299 1.299 0 0 0-.173.954l-.006.001.005.044.006.143c-.004.322-.067.992-.674 1.862-.61.867-1.806 1.968-4.214 2.987a1.268 1.268 0 0 0-.276.169 36.841 36.841 0 0 0-8.103-2.591c10.73-4.264 17.136-9.203 20.891-13.8 3.988-4.881 4.95-9.346 4.948-12.042a10.687 10.687 0 0 0-.04-.917 19.598 19.598 0 0 0 6.546-6.82c1.253-2.195 1.64-3.864 1.661-3.954a1.304 1.304 0 0 0-.275-1.13 1.305 1.305 0 0 0-1.069-.456l-6.022.356c.287-.33.581-.677.879-1.063.855-1.11 1.719-2.445 2.379-3.971.659-1.524 1.114-3.246 1.114-5.1a11.161 11.161 0 0 0-.533-3.411 1.3 1.3 0 0 0-1.918-.714l-9.059 5.553c-.681-11.246-3.474-20.913-9.471-27.878-3.074-3.567-6.987-6.393-11.795-8.306-4.809-1.914-10.503-2.923-17.179-2.923-.185 0-.377.007-.564.008-.113-.46-.279-1.006-.439-1.547a36.434 36.434 0 0 1-.18-.613c.592-.218 1.57-.62 2.617-1.238.825-.489 1.694-1.111 2.442-1.92.744-.806 1.377-1.82 1.613-3.049.058-.303.084-.606.084-.905-.004-1.204-.41-2.341-1.022-3.314-.619-.97-1.449-1.793-2.468-2.295-.092-.045-.189-.053-.285-.074a8.625 8.625 0 0 0 .187-1.746 8.63 8.63 0 0 0-.501-2.88c-.609-1.726-1.837-3.093-3.342-4.008-1.509-.918-3.306-1.407-5.163-1.408a10.35 10.35 0 0 0-6.285 2.128 7.041 7.041 0 0 0-.715-.557C91.96 6.6 89.893 6 87.154 6c-.108 0-.215.001-.323.003-3.28.058-6.385 1.02-8.753 2.666-1.182.826-2.183 1.83-2.898 3-.097.158-.174.327-.26.492a9.995 9.995 0 0 0-2.23-.277 9.75 9.75 0 0 0-6.638 2.614c-1.708 1.592-2.81 3.792-2.813 6.18 0 .1.002.21.008.324v.015h.001c.04.97.26 1.815.601 2.531-.158.14-.496.462-.852.994a5.245 5.245 0 0 0-.89 2.913c-.005 1.345.533 2.903 1.858 4.495 1.169 1.41 2.742 2.174 4.237 2.598 1.502.423 2.961.52 4.056.52.236 0 .451-.005.65-.012.01.108.008.215.026.324.075.443.219.929.363 1.446.094.328.185.654.25.91-5.897 2.448-10.606 5.437-14.233 8.933-3.271 3.155-5.648 6.722-7.191 10.619-1.546 3.896-2.26 8.112-2.26 12.573.002 5.798 1.213 12.016 3.367 18.565L42.5 86.67a1.3 1.3 0 0 0-1.505 1.386c.183 2.345 1.07 4.338 2.257 5.944 1.785 2.413 4.212 4.006 6.183 5.03.08.04.155.075.234.115l-5.707 1.947a1.302 1.302 0 0 0-.645 1.977c.054.075 1.043 1.474 3.033 3.032a19.59 19.59 0 0 0 8.728 3.855c.293.756.943 2.164 2.24 3.852 1.218 1.589 3.02 3.405 5.578 5.107a17.45 17.45 0 0 0-3.548.822c-1.108.386-2.444.613-3.894.767l-.005-.005c-1.209-.853-1.817-1.658-2.146-2.305-.326-.648-.378-1.157-.379-1.444 0-.102.007-.174.012-.21l.004-.027-.006-.001a1.294 1.294 0 0 0-.954-1.536c-.073-.018-2.915-.712-7.176-.713-3.542.001-8.07.481-12.79 2.259-4.717 1.776-9.622 4.867-13.834 10.025a1.3 1.3 0 0 0 1.709 1.916c.038-.033 2.323-1.429 5.182-1.416.8.001 1.647.122 2.521.384-1.888 1.002-3.493 2.16-4.79 3.615-1.423 1.593-2.47 3.514-3.214 5.833-.662 2.038-1.304 2.874-2 4.005-.345.561-.7 1.197-.978 1.994-.28.799-.482 1.743-.59 2.945-.014.142-.02.289-.02.439.003.907.211 1.936.608 3.07.598 1.695 1.636 3.604 3.19 5.36.52.587 1.104 1.152 1.743 1.687.044.259.232 1.185.953 3.256.852 2.438 2.636 4.648 5.1 6.615 3.702 2.949 8.979 5.391 15.386 7.125a74.588 74.588 0 0 0 7.366 1.577Zm97.209 3.04c-.017.009-.026.025-.043.034l-.98-.107-.215-.965c.436-.269.889-.576 1.36-.931l1.9.467a7.472 7.472 0 0 1-2.022 1.502Zm-9.477-22.251.272.325c.505.608.996 1.232 1.376 1.772.379.53.645 1.021.682 1.157.062.189.086.352.087.519.001.359-.129.778-.429 1.306-.323.578-.838 1.235-1.388 1.978a234.185 234.185 0 0 0-.6-7.057ZM90.188 32.885c-5.305 1.043-10.026 2.345-14.205 3.892l-.184-.66c-.143-.495-.278-1.002-.298-1.15v-.005a2.09 2.09 0 0 1-.029-.341c.006-.555.209-1.069.774-1.696.839-.93 2.51-1.917 4.753-2.782 2.24-.874 5.04-1.655 8.145-2.359 3.484-.791 6.569-1.207 8.982-1.206 1.8-.004 3.219.24 4.102.638.444.196.748.42.948.643.2.227.314.451.377.764.094.47.263 1.03.435 1.611.091.304.182.608.26.877-4.298.197-8.97.775-14.06 1.774Zm-16.732-.466c-.26.022-.672.05-1.198.05-.934 0-2.18-.09-3.348-.423-1.174-.331-2.232-.89-2.941-1.753-1.03-1.254-1.257-2.17-1.262-2.838 0-.628.22-1.116.456-1.474.117-.176.235-.312.316-.396l.047-.046c.33.232.666.424.995.567a1.3 1.3 0 0 0 1.04-2.384c-.437-.191-.826-.462-1.127-.874-.299-.415-.545-.995-.59-1.956v-.015l-.005-.2c-.003-1.564.736-3.11 1.986-4.277a7.152 7.152 0 0 1 4.865-1.916c.464 0 .942.063 1.425.16-.042.315-.07.635-.07.96 0 1.303.35 2.655 1.065 3.983a1.3 1.3 0 1 0 2.291-1.229c-.537-1.003-.754-1.914-.755-2.753.001-.918.26-1.77.753-2.582.738-1.214 2.037-2.317 3.704-3.11 1.663-.795 3.678-1.276 5.772-1.31l.28-.003c1.578 0 2.782.23 3.69.575 1.362.524 2.088 1.27 2.557 2.098.462.828.626 1.782.625 2.597a5.301 5.301 0 0 1-.158 1.34 1.3 1.3 0 1 0 2.506.693 7.819 7.819 0 0 0 .252-2.033c0-.765-.098-1.631-.379-2.521a7.156 7.156 0 0 0-.47-1.136 7.744 7.744 0 0 1 4.684-1.573c1.396-.001 2.742.376 3.81 1.028 1.072.655 1.857 1.562 2.243 2.653.254.72.352 1.389.353 2.015.002 1.329-.462 2.492-.947 3.327a7.65 7.65 0 0 1-.658.964 5.38 5.38 0 0 1-.205.241l-.048.053-.008.008a1.3 1.3 0 0 0 1.843 1.834c.055-.057.686-.693 1.327-1.798.086-.148.171-.307.256-.472.471.225 1.02.727 1.408 1.348.395.618.624 1.338.62 1.924 0 .148-.013.287-.038.417-.12.629-.458 1.218-.97 1.773-.761.832-1.899 1.524-2.841 1.972-.47.225-.889.393-1.185.503-.021.007-.036.012-.055.02-.081-.112-.162-.223-.254-.325-.616-.684-1.419-1.147-2.329-1.475l.364-.33a1.3 1.3 0 1 0-1.748-1.925l-1.681 1.528c-.037.033-.053.079-.085.115a20.59 20.59 0 0 0-1.508-.06c-.91 0-1.9.07-2.925.169.012-.728.041-1.772.114-2.49a1.3 1.3 0 0 0-2.587-.256c-.1 1.014-.125 2.356-.132 3.081a61.137 61.137 0 0 0-4.027.767c-4.243.965-7.984 2.065-10.783 3.47-.033.018-.063.036-.097.053-.02.002-.037-.006-.057-.004v-.002s-.112.012-.305.012c-.543.004-1.67-.108-2.658-.748a1.3 1.3 0 1 0-1.403 2.188c.458.292.914.505 1.355.67-.095.094-.2.182-.29.279-.351.377-.636.803-.875 1.252ZM55.59 176.8c-.32.403-.664.782-.93 1.014a2.048 2.048 0 0 1-.196.155c-.264-.085-.495-.224-.755-.557-.262-.347-.553-.985-.71-2.071 1.111.145 2.24.274 3.39.379-.229.33-.505.713-.8 1.08Zm8.529-.64c-.344.63-.89 1.37-1.401 1.89a4.378 4.378 0 0 1-.578.506 4.498 4.498 0 0 1-.29-.478c-.326-.596-.654-1.4-.888-2.036l-.008-.024c1.052.045 2.117.074 3.195.084l-.03.058Zm9.252.675c-.209.457-.445.882-.64 1.144a3.736 3.736 0 0 1-.345-.326c-.458-.476-.96-1.151-1.352-1.724.945-.057 1.876-.13 2.799-.214-.132.354-.29.746-.462 1.12Zm-44.155-12.617c-2.204-1.756-3.638-3.624-4.266-5.438l-.095-.279c.393.186.795.363 1.216.52 1.176.438 2.166.857 2.859 1.165.346.154.618.281.802.367l.207.1.064.031a1.3 1.3 0 1 0 1.16-2.327c-.03-.015-1.712-.851-4.185-1.773-2.925-1.087-5.025-3.077-6.404-5.133a13.469 13.469 0 0 1-1.513-2.982c-.325-.915-.463-1.724-.46-2.207l.009-.203c.095-1.043.258-1.757.455-2.321.294-.84.688-1.408 1.244-2.294.55-.878 1.197-2.02 1.756-3.769.66-2.051 1.526-3.603 2.678-4.898 1.155-1.294 2.621-2.348 4.548-3.313 1.819-.915 4.194-1.46 6.683-2.044 2.488-.591 5.095-1.225 7.415-2.508.87-.486 2.017-.825 3.337-1.049 1.98-.34 4.326-.426 6.674-.579 2.35-.159 4.705-.375 6.795-1.089 1.755-.603 3.307-.82 4.732-.821 2.085 0 3.913.472 5.659.984 1.744.504 3.396 1.08 5.184 1.09.413 0 .831-.033 1.252-.111a27.94 27.94 0 0 1 5.002-.446c3.112-.007 6.378.543 8.629 1.854 2.237 1.285 4.39 1.77 6.71 2.479 2.332.709 4.904 1.625 8.226 3.735 1.636 1.041 2.735 1.997 3.519 2.884 1.173 1.333 1.678 2.516 2.198 3.853.516 1.324 1.03 2.829 2.23 4.363.92 1.183 1.277 2.275 1.281 3.341-.001.798-.209 1.605-.635 2.433-.425.826-1.072 1.664-1.922 2.472-1.384 1.321-3.414 2.47-5.359 3.585-.973.561-1.925 1.118-2.779 1.723-.852.607-1.618 1.257-2.185 2.081-.957 1.391-1.882 2.362-3.187 3.059-1.306.694-3.079 1.139-5.767 1.214-1.447.041-2.466.139-3.338.344a7.35 7.35 0 0 0-1.715.632c-.763.392-1.395.832-2.375 1.386-.979.556-2.316 1.244-4.422 2.104-1.607.654-3.151.891-4.707.893-2.057.001-4.13-.432-6.242-.895-2.111-.458-4.26-.951-6.491-.954-1.098 0-2.217.124-3.338.441-3.021.852-5.508 1.177-7.607 1.177-3.418-.005-5.823-.842-7.967-1.821-2.141-.97-3.998-2.157-6.28-2.655a1.3 1.3 0 1 0-.54 2.543c1.66.338 3.423 1.403 5.736 2.476 2.31 1.064 5.193 2.062 9.051 2.057 2.369 0 5.1-.368 8.314-1.275a9.616 9.616 0 0 1 2.63-.343c1.836-.003 3.817.429 5.938.895 2.12.461 4.38.952 6.796.954 1.824.001 3.74-.289 5.69-1.086 1.953-.797 3.322-1.475 4.353-2.043.772-.425 1.353-.787 1.824-1.071.716-.432 1.128-.658 1.735-.829.608-.172 1.493-.289 3.027-.331 2.931-.081 5.139-.573 6.916-1.517 1.778-.942 3.038-2.313 4.111-3.887.284-.421.822-.92 1.544-1.429.443-.315.962-.637 1.511-.965-.088.174-.178.349-.274.531-.929 1.758-2.223 3.833-3.699 5.367-2.803 2.936-7.916 5.705-14.525 7.671-6.61 1.975-14.71 3.181-23.513 3.18-10.65.002-20.12-1.759-27.215-4.527-3.546-1.382-6.496-3.016-8.695-4.772Z"/></svg>