<svg width="200" height="200" viewBox="0 0 200 200" xmlns="http://www.w3.org/2000/svg"><g id="type=warning, mode=light"><path id="Vector" d="M5.16699 77V67.167L86.75 57.75L135.667 52.083L136.333 56.417L113.083 66.417L132.833 68.25L132.667 82.25L107.5 97.833L82.5 99L63.083 73.417L6.33299 87.167L5.16699 77Z"/><path id="Vector_2" d="M151.333 56.75L194.833 77.667V72.417L187.417 57.083L153.5 52.083L151.333 56.75Z"/><path id="Vector_3" d="M5.125 117.438V122.188L9.5 138.438L46.25 147.688L44.938 142.313L5.125 117.438Z"/><path id="Vector_4" d="M61.875 141.5L63.438 146L194.875 130.25V120.25L185.563 111.063L61.875 141.5Z"/><path id="Vector_5" d="M194.831 128.946C194.781 128.938 194.73 128.934 194.679 128.933H194.679L186.655 129.878L167.162 116.923L182.822 113.035L194.831 121.441L195 121.56L194.994 110.014L195.144 109.977C195.476 109.892 195.762 109.679 195.937 109.384C196.113 109.09 196.166 108.738 196.083 108.405C196 108.072 195.789 107.785 195.496 107.607C195.203 107.429 194.851 107.374 194.518 107.454L157.279 116.697C158.584 112.749 159.61 108.714 160.348 104.622C160.454 103.982 160.507 103.334 160.508 102.686C160.518 100.483 159.835 98.3337 158.555 96.5411C158.603 96.4237 158.656 96.3117 158.701 96.1907C159.679 93.3471 160.374 90.4139 160.777 87.4338C161.234 87.2071 161.665 86.9307 162.061 86.6097C162.596 86.1214 163.044 85.5456 163.386 84.9069C164.069 83.6522 164.608 82.3241 164.992 80.9481C165.503 79.1853 165.864 77.3824 166.071 75.5588C166.235 74.1708 166.319 72.7745 166.322 71.3768C166.333 69.9981 166.227 68.621 166.004 67.2604C165.884 66.5373 165.691 65.8282 165.429 65.1437L194.25 79.5539C194.558 79.7081 194.915 79.7335 195.242 79.6245C195.569 79.5154 195.84 79.2809 195.994 78.9726C196.148 78.6642 196.173 78.3072 196.064 77.9801C195.955 77.653 195.721 77.3826 195.412 77.2284L194.831 76.9377L180.287 69.6657L172.565 56.0269L184.921 57.7729L194.831 73.1442L194.953 73.3335L194.831 61.3865L194.808 59.1381C194.816 59.1383 194.823 59.1367 194.831 59.1367C195.142 59.1409 195.443 59.0323 195.68 58.831C195.917 58.6298 196.072 58.3496 196.118 58.0423C196.166 57.7009 196.077 57.3544 195.87 57.0788C195.663 56.8033 195.354 56.6214 195.013 56.5731H195.013L165.773 52.4412C166.691 42.5695 168.065 26.4635 168.374 21.7445L168.374 21.7431C168.389 21.5165 168.396 21.2953 168.396 21.0797C168.408 20.3071 168.291 19.538 168.052 18.8036C167.745 17.8618 167.14 17.0453 166.329 16.4774C165.609 15.9968 164.782 15.703 163.92 15.6224C163.699 15.5979 163.477 15.5855 163.254 15.5855C162.025 15.5634 160.831 15.9932 159.898 16.7934C158.815 17.8192 158.169 19.2233 158.096 20.7133C157.72 24.6049 156.534 38.9694 155.687 49.3157C155.447 49.1776 155.2 49.065 154.954 48.9498C152.301 39.6893 146.306 31.7425 138.131 26.6476C129.214 21.0746 116.778 17.897 99.744 17.8963C88.3849 17.8967 79.0786 19.3094 71.4874 21.9019C60.1013 25.7799 52.5838 32.3784 48.0257 40.6492C46.1488 44.1033 44.7253 47.7851 43.7903 51.6034C42.9419 41.2192 41.5986 24.902 41.1943 20.7134C41.1208 19.2235 40.4753 17.8194 39.3924 16.7935C38.4594 15.9932 37.2651 15.5633 36.0362 15.5854C35.8135 15.5855 35.591 15.5978 35.3697 15.6224C34.1892 15.7195 33.0832 16.2387 32.2544 17.0849C31.7969 17.5788 31.4503 18.1647 31.2378 18.8035C30.998 19.538 30.8814 20.3072 30.8929 21.0797C30.8929 21.2947 30.9004 21.5165 30.9155 21.7451C31.2396 26.6902 32.7325 44.1409 33.646 53.8171C33.7759 56.223 34.3395 58.5856 35.3098 60.791C35.5047 61.1883 35.7338 61.5678 35.9946 61.9253L5.0193 65.3671C4.84962 65.386 4.68531 65.4381 4.53576 65.5204C4.38621 65.6028 4.25434 65.7138 4.14769 65.8471C4.04105 65.9804 3.96171 66.1334 3.9142 66.2974C3.8667 66.4614 3.85196 66.6331 3.87083 66.8028C3.90805 67.1182 4.06061 67.4087 4.29914 67.6183C4.53767 67.828 4.84532 67.942 5.16288 67.9385C5.21046 67.9456 5.25842 67.9499 5.3065 67.9513L10.459 67.3787L30.8256 80.704L16.9436 84.0186L5.16292 76.5394L5.10628 76.5034L5.1581 86.8326L4.86098 86.9035C4.69493 86.9432 4.53831 87.0151 4.40007 87.1153C4.26183 87.2155 4.14468 87.3419 4.0553 87.4874C3.96592 87.6328 3.90606 87.7944 3.87915 87.963C3.85224 88.1316 3.85879 88.3038 3.89844 88.4699C3.93809 88.636 4.01006 88.7926 4.11023 88.9308C4.21041 89.069 4.33683 89.1862 4.48229 89.2756C4.62774 89.365 4.78937 89.4248 4.95796 89.4517C5.12654 89.4787 5.29878 89.4721 5.46483 89.4324V89.4324L35.6342 82.2289C35.6589 82.2985 35.6807 82.3781 35.7057 82.4465C36.0081 83.2962 36.3807 84.1191 36.8197 84.9069C37.1613 85.5458 37.6094 86.1217 38.1447 86.6099C39.3384 87.5163 40.7264 88.133 42.1991 88.4115C42.9211 88.5751 43.6531 88.6904 44.3904 88.7565C44.4003 88.7887 44.4082 88.8222 44.4182 88.8544C47.0753 98.0344 53.1907 105.825 61.4769 110.587C68.9092 114.93 78.7632 117.655 91.6383 118.447V120.906C89.992 121.01 88.4101 121.134 86.941 121.277C84.8949 121.478 83.063 121.714 81.5458 121.988C80.7865 122.125 80.1059 122.272 79.5087 122.431C78.9732 122.566 78.4508 122.748 77.9477 122.975C77.4819 123.211 77.0732 123.546 76.75 123.955C76.0788 124.84 75.5472 125.821 75.1737 126.867C75.0015 127.305 74.8339 127.783 74.669 128.283C74.5111 128.256 74.3278 128.223 74.1377 128.19C73.7173 128.108 73.2909 128.062 72.8629 128.05C72.7416 128.051 72.6205 128.058 72.5 128.071C72.4181 127.723 72.3043 127.383 72.1602 127.056C71.729 126.112 71.0421 125.307 70.1773 124.732C69.1547 124.04 67.9453 123.676 66.7105 123.689C65.1835 123.738 63.6873 124.132 62.334 124.841C59.4583 126.388 56.8426 128.377 54.5821 130.734C51.7001 133.633 49.035 136.74 46.6081 140.03C45.9578 140.266 45.3266 140.551 44.7199 140.883L5.87501 115.449C5.7322 115.354 5.57211 115.289 5.40394 115.257C5.23578 115.224 5.06286 115.225 4.89511 115.26C4.72736 115.294 4.56809 115.362 4.42646 115.458C4.28483 115.554 4.16362 115.678 4.0698 115.821C3.97599 115.964 3.91141 116.125 3.87978 116.293C3.84815 116.461 3.8501 116.634 3.8855 116.802C3.92091 116.969 3.98908 117.128 4.0861 117.269C4.18312 117.411 4.30707 117.531 4.45083 117.624H4.45076L5.16292 118.091L18.8958 127.082L25.8261 141.136L13.0804 137.798L5.16292 121.416L5.08092 121.246L5.00192 135.782C4.70216 135.819 4.42459 135.959 4.21708 136.179C4.00957 136.398 3.88511 136.683 3.86518 136.984C3.84524 137.286 3.93106 137.584 4.10786 137.829C4.28465 138.074 4.54134 138.25 4.83365 138.325L38.6114 147.172C38.5601 147.396 38.5277 147.624 38.5147 147.853L38.5091 148.089C38.5219 148.865 38.675 149.632 38.9612 150.354C38.6785 151.149 38.3972 151.98 38.139 152.858C37.778 154.075 37.4868 155.311 37.2668 156.561C37.1764 157.086 37.1001 157.613 37.0457 158.14C36.9777 158.774 36.9421 159.412 36.939 160.05C36.911 161.534 37.1673 163.01 37.6939 164.398C38.2519 165.821 39.2167 167.048 40.4677 167.926C42.262 169.208 44.4088 169.903 46.6136 169.916C48.0125 169.919 49.3959 169.623 50.6716 169.049C52.2183 168.308 53.5667 167.209 54.6059 165.845C54.8488 165.539 55.0606 165.209 55.2821 164.886C56.39 163.496 57.3563 161.999 58.1666 160.417C58.4528 159.872 59.028 158.825 59.7744 157.477C59.9804 157.504 60.1877 157.52 60.3954 157.523C60.706 157.529 61.0149 157.477 61.3067 157.371L61.3089 157.37C61.5843 157.257 61.8389 157.098 62.062 156.901C62.4341 156.582 62.7496 156.203 62.995 155.779C63.3125 155.244 63.4836 154.636 63.4911 154.015C63.4906 153.551 63.3878 153.093 63.1901 152.673C63.0829 152.446 62.952 152.231 62.7995 152.032C63.7598 150.302 64.7648 148.486 65.7228 146.739L71.2519 146.088C70.1843 155.11 69.6379 164.186 69.6154 173.271C69.5726 178.619 69.856 183.965 70.4638 189.278C70.4853 189.447 70.5398 189.611 70.6244 189.759C70.709 189.907 70.822 190.037 70.9569 190.142C71.0918 190.247 71.246 190.324 71.4107 190.369C71.5754 190.414 71.7473 190.426 71.9167 190.405C72.086 190.383 72.2495 190.329 72.3978 190.244C72.5461 190.159 72.6763 190.046 72.7809 189.911C72.8855 189.777 72.9625 189.622 73.0075 189.458C73.0526 189.293 73.0647 189.121 73.0433 188.952L73.0433 188.952C72.7881 186.936 72.5986 184.726 72.4635 182.39C72.36 180.6 72.29 178.735 72.2522 176.813C76.0904 177.914 80.0256 178.644 84.0033 178.992C89.1706 179.495 94.3601 179.737 99.5518 179.716C106.248 179.733 112.939 179.376 119.596 178.649C122.053 178.362 124.21 178.026 126.017 177.651C126.083 177.644 126.147 177.641 126.213 177.634L126.242 177.632L126.242 177.631C126.259 177.629 126.275 177.629 126.292 177.627C126.394 177.607 126.494 177.575 126.588 177.532C126.671 177.513 126.766 177.496 126.847 177.477C127.705 177.289 128.55 177.048 129.378 176.757C129.299 180.872 129.073 184.735 128.683 188.12C128.651 188.397 128.621 188.681 128.587 188.952C128.565 189.121 128.578 189.293 128.623 189.458C128.668 189.622 128.745 189.777 128.849 189.911C128.954 190.046 129.084 190.159 129.232 190.244C129.381 190.329 129.544 190.383 129.714 190.405C129.883 190.426 130.055 190.414 130.22 190.369C130.384 190.324 130.538 190.247 130.673 190.142C130.808 190.037 130.921 189.907 131.006 189.759C131.09 189.611 131.145 189.447 131.166 189.278H131.166C131.774 183.966 132.057 178.622 132.014 173.275C131.996 162.637 131.244 152.013 129.763 141.478C130.253 141.4 130.897 141.329 131.496 141.222C131.625 141.199 131.751 141.173 131.877 141.144C132.138 141.638 132.47 142.089 132.864 142.483C133.427 143.025 134.095 143.444 134.827 143.715L135.287 142.499L134.827 143.715C135.903 144.131 137.045 144.347 138.197 144.354C140.724 144.283 143.135 143.277 144.963 141.53C146.431 140.189 147.705 138.651 148.751 136.96L194.983 131.515C195.325 131.475 195.637 131.3 195.851 131.03C196.065 130.759 196.162 130.415 196.122 130.072C196.083 129.759 195.929 129.47 195.691 129.263C195.453 129.055 195.147 128.942 194.831 128.946ZM157.908 102.686C157.907 103.194 157.865 103.702 157.782 104.204C156.954 108.696 155.791 113.118 154.302 117.436L136.317 121.9C136.806 119.89 137.33 117.762 137.843 115.697C139.15 110.439 140.381 105.592 140.747 104.144C141.196 102.208 141.908 100.342 142.862 98.599C142.874 98.579 142.885 98.5627 142.897 98.543C143.128 98.9392 143.388 99.318 143.675 99.6761C143.93 99.9838 144.206 100.273 144.503 100.54C144.797 101.603 145.394 102.557 146.221 103.286C147.047 104.016 148.069 104.489 149.16 104.648C150.493 104.841 151.853 104.553 152.994 103.837C154.136 103.12 154.985 102.021 155.392 100.736C156.018 100.263 156.583 99.713 157.072 99.0989C157.627 100.213 157.913 101.441 157.908 102.686ZM122.252 137.463L111.544 130.728L127.163 126.851L139.593 135.421L122.252 137.463ZM90.0121 141.26L83.7832 137.619L99.3436 133.757L107.392 139.213L90.0121 141.26ZM124.88 123.956C124.557 123.546 124.149 123.211 123.683 122.975C123.18 122.748 122.657 122.566 122.122 122.431C119.159 121.763 116.148 121.329 113.117 121.134C111.925 121.034 110.663 120.949 109.377 120.873V118.336C115.656 117.943 121.868 116.825 127.89 115.006C130.752 114.111 133.529 112.967 136.19 111.584C135.733 113.406 135.243 115.375 134.757 117.344C134.313 119.143 133.877 120.925 133.472 122.606L125.358 124.62C125.213 124.389 125.053 124.167 124.88 123.956H124.88ZM154.093 60.7028C153.605 61.1022 153.075 61.4474 152.513 61.7322C152.104 61.9475 151.66 62.0897 151.203 62.1525C150.63 62.2088 150.065 62.2303 149.493 62.2303C147.825 62.2327 146.081 62.0377 144.015 62.0358C143.929 62.0358 143.831 62.0441 143.744 62.0449C143.967 61.9686 144.204 61.8985 144.409 61.8156C145.12 61.5187 145.685 60.9547 145.983 60.2449C146.233 59.6484 146.357 59.0066 146.346 58.3601C146.345 58.1961 146.318 58.0436 146.306 57.8843L146.308 57.883C146.493 57.7591 146.661 57.6108 146.806 57.4421C147.137 57.5483 147.476 57.6273 147.82 57.6781C148.329 57.7471 148.842 57.781 149.356 57.7795C149.757 57.7777 150.157 57.7535 150.556 57.707L154.966 59.912C154.689 60.1911 154.398 60.4551 154.093 60.7028H154.093ZM104.706 94.5457C103.98 94.7017 103.243 94.7988 102.501 94.8362C101.625 94.8983 100.635 94.9317 99.6835 94.9318C98.6157 94.9509 97.5482 94.8859 96.4907 94.7374C95.7278 94.6051 95.0365 94.2066 94.5398 93.6127C94.0431 93.0188 93.7732 92.2679 93.778 91.4937C93.7691 90.7124 94.0418 89.954 94.5464 89.3573C95.0509 88.7607 95.7534 88.3657 96.5253 88.2447C96.9373 88.1837 97.4667 88.1437 98.1025 88.1131C98.7349 88.0833 99.4595 88.0666 100.199 88.0665C101.424 88.0509 102.65 88.1159 103.867 88.2609C104.188 88.3026 104.505 88.374 104.813 88.4741C105.418 88.6776 105.96 89.0363 106.383 89.5146C106.86 90.0635 107.121 90.7666 107.119 91.4936C107.122 92.2194 106.869 92.9228 106.405 93.4809C105.965 94.0058 105.371 94.3784 104.706 94.5456L104.385 93.2861L104.706 94.5457ZM64.1337 56.0097C64.0271 56.1431 63.8953 56.2542 63.7458 56.3366C63.5963 56.4191 63.4321 56.4713 63.2624 56.4902C63.0927 56.5092 62.921 56.4946 62.757 56.4472C62.593 56.3997 62.4399 56.3205 62.3065 56.2139C62.1732 56.1074 62.0621 55.9756 61.9796 55.8261C61.8972 55.6766 61.845 55.5123 61.826 55.3427C61.807 55.173 61.8217 55.0013 61.8691 54.8372C61.9165 54.6732 61.9958 54.5202 62.1023 54.3868C62.8986 53.3916 63.7732 52.4616 64.7176 51.6056C64.9734 51.3775 65.3089 51.2597 65.6512 51.2777C65.9934 51.2957 66.3147 51.4481 66.5451 51.7018C66.7756 51.9555 66.8965 52.29 66.8816 52.6324C66.8667 52.9748 66.7172 53.2974 66.4656 53.5302C65.6235 54.2933 64.8437 55.1224 64.1336 56.0097L64.1337 56.0097ZM71.9371 49.789C71.6306 49.9469 71.2739 49.9766 70.9455 49.8715C70.6171 49.7665 70.3439 49.5353 70.186 49.2288C70.0281 48.9223 69.9984 48.5656 70.1034 48.2372C70.2085 47.9088 70.4397 47.6356 70.7462 47.4777C74.8511 45.4537 79.2372 44.0587 83.7571 43.3395C84.0955 43.2821 84.4429 43.3609 84.7234 43.5586C85.004 43.7564 85.195 44.057 85.2547 44.3951C85.3144 44.7331 85.238 45.081 85.0422 45.3629C84.8463 45.6448 84.547 45.8378 84.2094 45.8998C79.9469 46.574 75.8099 47.885 71.937 49.7889L71.9371 49.789ZM104.032 56.9811L111.042 61.5509L97.1194 64.8751L87.366 58.833L104.032 56.9811ZM123.812 58.5017L118.609 55.3613L134.697 53.5736C134.694 54.1483 134.726 54.7227 134.793 55.2935C134.819 55.4821 134.855 55.6691 134.901 55.854L123.812 58.5017ZM108.424 71.9829C108.425 71.6589 108.546 71.3467 108.764 71.1072C108.982 70.8678 109.282 70.7185 109.605 70.6884C109.631 70.6862 113.751 70.3056 119.065 70.3054C121.733 70.3055 124.703 70.4013 127.616 70.6928C127.936 70.7252 128.234 70.8754 128.45 71.1144C128.666 71.3534 128.786 71.6641 128.786 71.9863V78.3032C128.786 78.6204 128.669 78.9265 128.459 79.164C128.249 79.4016 127.96 79.5543 127.645 79.5935C124.018 80.0051 120.37 80.2011 116.72 80.1803C112.63 80.1802 109.657 79.978 109.636 79.9767C109.308 79.9539 109 79.8074 108.775 79.5668C108.55 79.3261 108.425 79.0091 108.424 78.6797L108.424 71.9829ZM128.238 97.2382C128.518 97.0833 128.792 96.9262 129.059 96.767C130.282 96.0421 131.44 95.2136 132.521 94.2907C132.753 94.0918 132.978 93.8912 133.195 93.6889L133.195 93.6889C133.32 93.572 133.467 93.4809 133.627 93.4207C133.787 93.3606 133.957 93.3326 134.128 93.3383C134.299 93.3441 134.467 93.3835 134.623 93.4543C134.778 93.5251 134.918 93.626 135.035 93.751C135.151 93.8761 135.242 94.0229 135.302 94.1831C135.362 94.3432 135.389 94.5136 135.383 94.6845C135.377 94.8554 135.337 95.0233 135.266 95.1788C135.195 95.3342 135.094 95.4741 134.968 95.5904C134.723 95.8196 134.471 96.044 134.215 96.2637C133.021 97.2835 131.741 98.199 130.391 99.0001C130.098 99.1746 129.8 99.3455 129.498 99.5128C129.196 99.6799 128.84 99.7202 128.509 99.625C128.178 99.5298 127.898 99.3069 127.731 99.0053C127.564 98.7036 127.523 98.348 127.618 98.0166C127.714 97.6852 127.937 97.4052 128.238 97.2382ZM137.915 58.551C137.906 58.3246 137.945 58.0987 138.031 57.8888C138.097 57.7799 138.076 57.8118 138.124 57.7865V57.7864C138.883 57.5666 139.662 57.4166 140.449 57.3382C141.307 57.2346 142.17 57.1787 143.035 57.1709C143.236 57.1708 143.406 57.1767 143.548 57.1851C143.581 57.2697 143.608 57.3563 143.63 57.4445C143.706 57.7438 143.745 58.0513 143.746 58.36C143.755 58.6439 143.707 58.9267 143.606 59.1921C143.518 59.3704 143.486 59.3786 143.432 59.4061C142.706 59.6875 141.958 59.9076 141.196 60.0641C140.462 60.2295 139.714 60.3227 138.962 60.3422C138.778 60.3461 138.593 60.3316 138.412 60.2992C138.286 60.1192 138.188 59.9216 138.12 59.7127C137.99 59.3391 137.92 58.9468 137.915 58.551ZM151.901 49.872C151.91 49.9569 151.913 50.0422 151.913 50.1274C151.9 50.6523 151.837 51.1748 151.727 51.6881C151.549 52.5853 151.275 53.4606 150.908 54.2985C150.789 54.574 150.64 54.8355 150.464 55.0781L150.436 55.11C150.078 55.1581 149.717 55.1814 149.356 55.1794C148.828 55.1852 148.302 55.1346 147.785 55.0286C147.82 54.7328 147.872 54.3746 147.94 53.9838C148.128 52.8996 148.422 51.5623 148.71 50.4732C148.853 49.9295 148.997 49.4449 149.117 49.1006L149.133 49.0564C149.284 49.0729 149.458 49.098 149.655 49.1392C150.2 49.2546 150.736 49.4092 151.259 49.6017C151.503 49.6919 151.721 49.7836 151.878 49.8595L151.901 49.872ZM145.687 51.9529C145.538 52.6513 145.407 53.3399 145.31 53.9539C145.246 54.3583 145.204 54.7112 145.174 55.0428C145.004 54.9034 144.811 54.7961 144.603 54.7261C144.359 54.6562 144.108 54.6134 143.855 54.5987C143.606 54.5791 143.333 54.5711 143.035 54.571C142.871 54.571 142.695 54.5755 142.517 54.5805C142.627 53.659 142.762 52.5488 142.912 51.505C143.032 50.6718 143.163 49.8811 143.29 49.2954C143.353 49.004 143.417 48.7624 143.465 48.615L143.478 48.5803C143.624 48.4976 143.781 48.4353 143.944 48.3952C144.3 48.3038 144.667 48.2587 145.035 48.2608C145.42 48.2551 145.804 48.3096 146.172 48.4223C146.278 48.4556 146.379 48.5025 146.473 48.5618L146.473 48.562C146.477 48.5843 146.48 48.6026 146.483 48.6328C146.487 48.673 146.49 48.7234 146.493 48.7748C146.216 49.673 145.932 50.8103 145.687 51.9529V51.9529ZM140.209 52.0737C140.078 53.0632 139.963 54.0336 139.874 54.7924C139.191 54.8749 138.515 54.9989 137.847 55.1638C137.805 55.1556 137.754 55.1511 137.714 55.1423C137.589 55.1156 137.483 55.087 137.389 55.059C137.316 54.5153 137.284 53.967 137.293 53.4185C137.293 52.6272 137.335 51.7508 137.391 51.0215C137.419 50.657 137.451 50.3284 137.481 50.0689C137.51 49.8136 137.544 49.61 137.554 49.5717L137.613 49.5017C137.89 49.3211 138.205 49.2047 138.533 49.1612C139.047 49.0712 139.568 49.0288 140.09 49.0347C140.3 49.0346 140.499 49.0413 140.687 49.0497C140.508 49.939 140.352 51.0072 140.209 52.0737V52.0737ZM72.84 60.447L84.3039 67.935L70.4022 71.2543L56.1315 62.3037L72.84 60.447ZM85.3911 70.3485C87.2581 70.3992 89.1955 70.5006 91.1157 70.6928C91.4363 70.7252 91.7335 70.8754 91.9498 71.1144C92.166 71.3534 92.2859 71.6641 92.2862 71.9863V78.3032C92.2857 78.6204 92.1695 78.9265 91.9594 79.164C91.7492 79.4016 91.4596 79.5543 91.1449 79.5935C87.5181 80.0051 83.8701 80.2011 80.2201 80.1803C76.1306 80.1802 73.1575 79.978 73.1371 79.9767C72.8085 79.9539 72.5008 79.8074 72.2759 79.5668C72.051 79.3261 71.9258 79.0091 71.9254 78.6797V73.5637L85.3911 70.3485ZM158.429 85.4762C158.057 88.8118 157.332 92.0986 156.265 95.2811C155.747 96.7796 154.75 98.0655 153.427 98.9395C152.348 99.6305 151.094 99.9995 149.812 100.003C149.145 100.013 148.482 99.8935 147.859 99.6524C147.01 99.305 146.263 98.7475 145.689 98.0323C144.852 96.9234 144.27 95.6434 143.985 94.2837C143.715 93.064 143.52 91.829 143.4 90.5855C143.311 89.8665 143.195 88.2956 143.078 86.3512C142.725 80.5058 142.338 71.0813 142.301 68.573C142.298 68.4015 142.297 68.2327 142.297 68.0668C142.292 66.9363 142.364 65.8068 142.511 64.6861C143.026 64.6556 143.53 64.6358 144.015 64.6358C144.518 64.6353 145.008 64.6494 145.493 64.6693C146.391 65.8318 147.706 66.6001 149.16 66.8122C150.476 67.0023 151.818 66.7255 152.952 66.0297C154.086 65.3339 154.94 64.2631 155.367 63.0031C156.103 62.4469 156.782 61.8176 157.391 61.1247L158.426 61.642C158.621 62.2449 158.753 62.8669 158.818 63.4975C159.112 66.4891 159.256 69.4936 159.249 72.4997C159.253 76.8382 158.979 81.1726 158.429 85.4762ZM163.489 75.2579C163.254 77.4043 162.774 79.5167 162.058 81.5537C161.841 82.1566 161.585 82.7445 161.291 83.3139C161.661 79.721 161.847 76.1115 161.849 72.4997C161.849 69.7623 161.734 67.0331 161.506 64.4034C161.522 64.4134 161.54 64.4213 161.555 64.4314C162.049 64.7444 162.473 65.1571 162.799 65.6432C163.131 66.2902 163.349 66.9893 163.443 67.7101C163.64 68.9222 163.733 70.1489 163.722 71.3768C163.719 72.6739 163.641 73.9697 163.489 75.2579L163.489 75.2579ZM152.957 56.0009C153.027 55.8766 153.094 55.749 153.16 55.6174C153.495 54.9034 153.765 54.1611 153.969 53.3992L161.527 54.4672L165.724 62.3841L152.957 56.0009ZM160.683 20.9633C160.695 20.1304 161.03 19.3345 161.617 18.7437C162.075 18.3623 162.658 18.1635 163.254 18.1854C163.382 18.1855 163.509 18.1926 163.636 18.2066C164.2 18.237 164.734 18.4707 165.14 18.8645C165.345 19.0896 165.499 19.3564 165.592 19.6465C165.738 20.1098 165.807 20.594 165.796 21.0797C165.796 21.2351 165.791 21.4006 165.78 21.5761L165.78 21.5747C165.477 26.203 164.112 42.2208 163.195 52.077L158.163 51.3659C158.152 51.353 158.142 51.3392 158.131 51.3263C158.981 40.9262 160.29 25.0406 160.683 20.9633V20.9633ZM46.877 50.1582C49.5064 41.4049 54.3835 34.085 62.7357 28.8522C71.0912 23.6245 83.022 20.4955 99.744 20.4963C110.889 20.4958 119.913 21.8862 127.16 24.3623C138.031 28.0875 144.911 34.1904 149.186 41.9066C150.078 43.53 150.855 45.2137 151.512 46.9453C151.404 46.9115 151.299 46.8766 151.189 46.8442C150.434 46.6066 149.651 46.4693 148.86 46.4359C148.627 46.4332 148.395 46.4589 148.169 46.5125C148.143 46.5193 148.114 46.5293 148.088 46.5371C147.761 46.2864 147.395 46.0911 147.004 45.9593C146.368 45.7549 145.703 45.6541 145.035 45.6608C144.397 45.6574 143.763 45.744 143.15 45.9178C142.691 46.0445 142.258 46.2525 141.872 46.5319C141.28 46.4679 140.685 46.4354 140.09 46.4346C139.158 46.4157 138.228 46.5338 137.331 46.7852C136.832 46.9314 136.367 47.1723 135.96 47.4948C135.919 47.5278 135.882 47.5701 135.842 47.6064C132.655 45.3408 129.129 43.594 125.396 42.4309C118.771 40.2677 110.371 39.0803 99.7439 39.0794C90.2977 39.0799 82.6113 40.0189 76.3665 41.7461C67.0065 44.3276 60.8559 48.7402 57.1334 54.3574C55.9908 56.087 55.0514 57.9426 54.334 59.8874L44.8193 60.9446C45.1622 57.2921 45.8512 53.6804 46.877 50.1582ZM33.5099 21.5747L33.5098 21.5734C33.4983 21.4002 33.493 21.2358 33.493 21.0797C33.482 20.5941 33.551 20.1099 33.6973 19.6467C33.8224 19.2305 34.0831 18.868 34.438 18.6171C34.8035 18.382 35.2215 18.241 35.6547 18.2067C35.7813 18.1926 35.9086 18.1855 36.0361 18.1854C36.6317 18.1636 37.2145 18.3623 37.6727 18.7437C38.2599 19.3346 38.5946 20.1305 38.6062 20.9635C38.9053 24.0606 39.7353 34.0041 40.4887 43.1547C40.8655 47.7316 41.2236 52.1137 41.4874 55.3515C41.6885 57.8201 41.834 59.6124 41.8923 60.3308C41.1299 60.5127 40.3804 60.745 39.6488 61.0262C39.46 61.0994 39.2598 61.197 39.0645 61.2818C38.4215 60.9001 37.9199 60.3198 37.6354 59.6283C36.8127 57.7088 36.3383 55.6582 36.2344 53.5724C35.3237 43.9296 33.8285 26.4447 33.5099 21.5747ZM24.9014 65.7739L41.6502 63.9128L57.5653 74.3194L43.6758 77.6358L24.9014 65.7739ZM42.5713 85.8284C41.5804 85.6305 40.644 85.2206 39.8262 84.6269C39.5246 84.3317 39.2717 83.9905 39.0767 83.6162C38.725 82.9761 38.4248 82.309 38.179 81.6212L42.5826 80.5698C42.8554 82.4396 43.2052 84.2667 43.6451 86.0437C43.3278 85.9924 42.9594 85.9227 42.5713 85.8284ZM72.3837 112.527C61.5134 109.069 54.6251 103.366 50.3397 96.0069C47.578 91.0474 45.8036 85.5998 45.1146 79.9653L52.3384 78.2404C52.5807 81.2704 53.2083 84.2571 54.2061 87.1282C55.3237 90.3059 57.0373 93.2412 59.2549 95.7767C62.6848 99.6804 67.5476 102.837 74.1632 104.998C80.7824 107.161 89.1629 108.348 99.744 108.349C109.149 108.349 116.815 107.41 123.052 105.682C131.646 103.309 137.544 99.3864 141.349 94.4065C141.441 94.8323 141.546 95.2676 141.677 95.7103C140.006 98.0454 138.831 100.699 138.227 103.506C138.036 104.259 137.609 105.941 137.061 108.119C136.938 108.192 136.822 108.27 136.699 108.342C128.337 113.236 116.405 116.096 99.744 116.094C88.6396 116.095 79.6284 114.825 72.3837 112.527ZM76.8498 130.009C77.1825 128.815 77.6228 127.654 78.1654 126.54C78.3286 126.212 78.525 125.902 78.7517 125.615C78.837 125.499 78.9435 125.4 79.0654 125.323C79.4255 125.164 79.7986 125.037 80.1805 124.943C82.9952 124.316 85.8542 123.909 88.732 123.725L88.7348 123.725C91.9605 126.476 96.0673 127.977 100.307 127.954C102.704 127.946 105.08 127.515 107.327 126.681C109.104 126.059 110.753 125.118 112.191 123.903C112.26 123.837 112.322 123.764 112.375 123.684C113.081 123.741 113.774 123.8 114.436 123.865C116.433 124.06 118.207 124.291 119.623 124.547C120.33 124.675 120.947 124.808 121.45 124.943C121.827 125.037 122.196 125.162 122.552 125.317L75.2253 137.064C75.644 134.686 76.1862 132.331 76.8498 130.009ZM53.2616 135.928C55.4491 133.366 57.8961 131.037 60.5635 128.979C61.6072 128.189 62.7343 127.514 63.9248 126.969C64.7973 126.555 65.7453 126.323 66.7105 126.289C67.4246 126.275 68.1255 126.482 68.7167 126.883L68.7168 126.883C69.1862 127.188 69.5591 127.62 69.792 128.129C70.0157 128.657 70.124 129.227 70.1096 129.801C70.0542 131.073 69.789 132.327 69.3248 133.513C68.8805 134.759 68.3546 135.88 68.0209 136.722C67.9067 137.013 67.6382 137.588 67.2728 138.314C67.1458 138.567 66.998 138.854 66.8485 139.144L62.316 140.269C62.1797 140.128 62.0313 140 61.8725 139.886C61.2202 139.455 60.4821 139.171 59.7093 139.055C59.0908 138.949 58.4644 138.897 57.837 138.9C57.3185 138.9 56.9703 138.932 56.9407 138.934L56.9421 138.95C56.6882 138.97 56.4449 139.06 56.2392 139.21C56.2177 139.228 56.2059 139.243 56.1866 139.26C55.8582 138.968 55.4647 138.758 55.0388 138.649C54.6454 138.546 54.24 138.496 53.8334 138.5C52.9942 138.506 52.1632 138.666 51.3815 138.971C51.2481 139.024 51.12 139.088 50.991 139.15C50.8624 139.137 50.7324 139.129 50.6017 139.122C51.4697 138.034 52.3546 136.958 53.2616 135.928H53.2616ZM46.156 143.115L46.155 143.115L45.6161 142.634L46.156 143.115ZM46.9985 143.29C47.4532 143.079 47.9229 142.902 48.4037 142.76C48.6449 142.686 48.8902 142.627 49.1383 142.582C49.3668 143.273 49.5558 143.976 49.7045 144.687C49.8499 145.345 49.9777 146.007 50.0737 146.546C49.9078 146.602 49.7384 146.647 49.5664 146.679C49.1583 146.761 48.7433 146.803 48.3272 146.806L48.263 146.804C48.1296 146.681 48.0105 146.543 47.908 146.393C47.5623 145.886 47.2809 145.339 47.0702 144.763C46.8992 144.334 46.7871 143.883 46.7369 143.424C46.8115 143.382 46.8983 143.336 46.9985 143.29ZM51.8485 142.504C51.7891 142.248 51.7528 141.986 51.7401 141.723C51.7848 141.683 51.8326 141.647 51.8831 141.616C52.4792 141.282 53.1502 141.104 53.8334 141.1C54.0082 141.097 54.1827 141.116 54.3526 141.157L54.3854 141.169C54.4096 141.22 54.4382 141.282 54.4687 141.359C54.819 142.319 55.1006 143.302 55.3112 144.301C55.4408 144.881 55.553 145.46 55.6324 145.968C55.6894 146.329 55.7276 146.654 55.7466 146.907C55.5777 146.985 55.4004 147.043 55.2183 147.08C54.8259 147.164 54.4256 147.206 54.0243 147.205C53.9786 147.205 53.9397 147.202 53.8959 147.201C53.647 146.915 53.4333 146.601 53.2595 146.264C52.8255 145.452 52.4652 144.602 52.1829 143.725C52.1183 143.527 52.0612 143.334 52.0089 143.146C51.989 143.067 51.9687 142.99 51.9483 142.912C51.9124 142.772 51.8752 142.631 51.8485 142.504H51.8485ZM59.6623 145.715C59.1586 144.909 58.7949 144.023 58.5863 143.095C58.4559 142.574 58.3601 142.045 58.2993 141.512C58.7765 141.528 59.2503 141.598 59.7121 141.719C59.9455 141.779 60.1677 141.876 60.3698 142.008C60.4574 142.059 60.5265 142.137 60.5674 142.23C60.6723 142.511 60.9121 143.22 61.1131 143.961C61.2141 144.332 61.3063 144.715 61.3703 145.054C61.4103 145.259 61.4383 145.466 61.4541 145.674C61.3702 145.708 61.2845 145.736 61.1974 145.76C60.9172 145.839 60.6277 145.881 60.3365 145.885C60.156 145.89 59.9761 145.863 59.8048 145.806C59.6931 145.76 59.6785 145.735 59.6622 145.715H59.6623ZM59.852 148.448C60.0148 148.464 60.1786 148.484 60.3365 148.485C60.8745 148.479 61.4091 148.399 61.9249 148.246C61.6583 148.728 61.3916 149.21 61.127 149.687C61.0181 149.884 60.91 150.079 60.8018 150.274C60.5674 150.108 60.3141 149.944 60.0409 149.779C60.005 149.332 59.9419 148.887 59.852 148.448H59.852ZM37.0372 144.072L33.8204 136.854L44.1593 143.624C44.1973 144.124 44.2912 144.619 44.439 145.098C44.544 145.438 44.6864 145.776 44.829 146.113L37.0372 144.072ZM54.8465 160.371C54.2501 161.743 53.4867 163.037 52.5736 164.223C51.79 165.266 50.7707 166.108 49.5992 166.681C48.6604 167.102 47.6426 167.318 46.6136 167.316C44.9434 167.303 43.3182 166.773 41.9617 165.798C41.1214 165.21 40.4753 164.385 40.106 163.428C39.7044 162.348 39.512 161.201 39.539 160.05C39.6032 157.857 39.9715 155.683 40.6334 153.591C40.6673 153.476 40.7057 153.367 40.7405 153.252C41.1366 153.716 41.5714 154.146 42.0402 154.536C42.7471 155.111 43.5353 155.578 44.3793 155.922C44.8186 156.605 45.3992 157.185 46.0819 157.625C46.7647 158.064 47.5338 158.352 48.3373 158.469C48.6075 158.508 48.88 158.527 49.153 158.527C50.0415 158.524 50.9169 158.313 51.7091 157.91C52.5012 157.508 53.1879 156.925 53.7142 156.209C54.0332 156.245 54.35 156.298 54.663 156.369C55.2367 156.504 55.7379 156.622 56.208 156.732C55.8271 157.971 55.3724 159.186 54.8465 160.371V160.371ZM60.6285 154.651C60.5551 154.749 60.4716 154.839 60.3792 154.919L60.3747 154.922C59.8648 154.881 59.3592 154.798 58.8631 154.673C58.024 154.492 56.8554 154.212 55.2563 153.838C54.3547 153.629 53.4319 153.527 52.5066 153.532C50.5556 153.54 48.929 153.9 47.4533 153.891C47.1745 153.891 46.9003 153.88 46.6276 153.854C45.1404 153.616 43.7884 152.852 42.818 151.7C42.3023 151.138 41.874 150.503 41.5473 149.814C41.2808 149.276 41.1314 148.688 41.1091 148.089L41.1118 147.976C41.1165 147.928 41.1239 147.88 41.1337 147.833L45.896 149.08C46.0554 149.121 46.2212 149.132 46.3848 149.112L46.939 149.044C47.0036 149.085 47.0651 149.127 47.1368 149.164C47.4 149.301 47.6892 149.38 47.9854 149.397C48.0978 149.403 48.2117 149.406 48.3271 149.406C49.1516 149.405 49.9718 149.287 50.7632 149.057C51.0964 148.953 51.4159 148.81 51.7147 148.63C51.7681 148.699 51.8154 148.776 51.8713 148.841C52.0553 149.059 52.2659 149.252 52.4983 149.417C52.5473 149.451 52.6139 149.478 52.6689 149.51C52.6943 149.597 52.7164 149.674 52.7323 149.731L52.763 149.842L52.7717 149.874C52.8499 150.171 53.0302 150.43 53.2808 150.607C53.5314 150.783 53.8363 150.866 54.1417 150.839C54.3424 150.822 54.5396 150.813 54.7333 150.814C55.9893 150.828 57.2216 151.158 58.3166 151.774C59.1139 152.216 59.854 152.755 60.5205 153.377C60.6504 153.488 60.7572 153.623 60.8351 153.775C60.8719 153.849 60.891 153.931 60.8912 154.014C60.8714 154.249 60.7797 154.471 60.6286 154.651L60.6285 154.651ZM63.8763 144.339C63.756 143.763 63.6007 143.179 63.4473 142.667L71.5471 140.656L75.1609 143.01L63.8763 144.339ZM128.495 174.312C127.581 174.624 126.647 174.875 125.7 175.064C125.381 175.088 125.074 175.108 124.757 175.132C124.583 175.138 124.408 175.147 124.237 175.147C122.513 175.129 120.802 174.851 119.162 174.322C116.687 173.57 114.185 172.386 111.239 171.363C107.86 170.142 104.295 169.514 100.703 169.507C96.1141 169.578 91.586 170.567 87.3856 172.416C85.5843 173.128 83.9232 173.819 82.2958 174.321C80.7075 174.845 79.0486 175.122 77.3765 175.144C76.7874 175.144 76.1989 175.105 75.6148 175.029C74.4674 174.77 73.3343 174.451 72.2201 174.073C72.219 173.805 72.2155 173.541 72.2155 173.271C72.2384 164.08 72.8041 154.899 73.9096 145.775L126.836 139.541C128.542 150.705 129.404 161.982 129.414 173.275C129.414 173.484 129.411 173.688 129.411 173.896C129.12 174.064 128.813 174.204 128.495 174.312L128.495 174.312ZM143.245 139.579C141.892 140.907 140.092 141.683 138.198 141.754C137.359 141.747 136.528 141.588 135.746 141.282C135.347 141.138 134.983 140.912 134.676 140.618C134.244 140.177 133.935 139.629 133.781 139.031C133.754 138.938 133.745 138.827 133.722 138.73L145.288 137.368C144.677 138.167 143.993 138.907 143.245 139.579ZM154.46 133.67L139.345 123.828L154.992 119.944L171.783 131.63L154.46 133.67Z"/></g></svg>