<svg width="200" height="200" viewBox="0 0 200 200" xmlns="http://www.w3.org/2000/svg"><g id="type=error, mode=dark"><g id="error"><path id="Vector" d="M86.5237 126.919C86.5237 126.201 85.9416 125.619 85.2239 125.619H67.0442C66.3261 125.619 65.7441 126.201 65.7441 126.919C65.7441 127.637 66.3261 128.219 67.0442 128.219H85.2239C85.9416 128.219 86.5237 127.637 86.5237 126.919Z"/><path id="Vector_2" d="M103.724 178.543C103.721 178.543 99.0232 178.49 96.4456 178.49C95.6011 178.484 94.8577 178.687 94.2991 179.058C93.8816 179.331 93.5977 179.657 93.396 179.912C93.0942 180.308 92.9385 180.519 92.8245 180.597C92.7656 180.64 92.7151 180.67 92.605 180.705C92.4956 180.739 92.321 180.771 92.0452 180.772C91.833 180.77 91.7102 180.738 91.6108 180.697C91.4456 180.627 91.2854 180.496 91.0659 180.192C90.7332 179.747 90.4055 178.978 89.7971 178.192C89.4885 177.802 89.084 177.405 88.5461 177.115C88.0107 176.823 87.3596 176.66 86.6614 176.663C86.2156 176.662 85.7842 176.763 85.416 176.932C84.7664 177.23 84.3208 177.684 83.968 178.114C83.4453 178.765 83.0779 179.424 82.76 179.824C82.606 180.025 82.4727 180.151 82.4072 180.194L82.3647 180.218C82.0159 180.211 81.9539 180.161 81.8813 180.123C81.8262 180.088 81.7461 180.02 81.6082 179.867C81.4033 179.65 81.0791 179.228 80.5049 178.872C79.9294 178.513 79.1628 178.307 78.2551 178.313C76.6526 178.313 74.7175 178.313 74.7141 178.313C73.9961 178.313 73.4141 178.895 73.4141 179.613C73.4141 180.33 73.9961 180.913 74.7141 180.913V180.912C74.7175 180.912 76.6523 180.912 78.2551 180.912C78.7598 180.915 78.97 180.997 79.0977 181.061C79.1951 181.113 79.2703 181.172 79.3906 181.295C79.5715 181.468 79.8186 181.826 80.3159 182.2C80.5632 182.383 80.875 182.55 81.2261 182.658C81.5776 182.767 81.9614 182.819 82.3723 182.819C82.8125 182.821 83.2385 182.7 83.582 182.517C84.1885 182.191 84.5652 181.743 84.8823 181.329C85.3477 180.701 85.7036 180.078 86.0308 179.7C86.1904 179.51 86.331 179.389 86.4268 179.333C86.5266 179.277 86.5659 179.266 86.6614 179.263C86.9109 179.264 87.0713 179.302 87.198 179.35C87.4114 179.436 87.5815 179.574 87.8062 179.867C88.1455 180.3 88.4653 181.042 89.0327 181.816C89.3213 182.2 89.6978 182.599 90.2144 182.9C90.7283 183.203 91.3684 183.375 92.0452 183.371C92.8933 183.377 93.6379 183.176 94.1995 182.806C94.6191 182.534 94.9058 182.208 95.1091 181.951C95.4133 181.553 95.5703 181.339 95.6829 181.262C95.741 181.219 95.7893 181.19 95.8965 181.155C96.0027 181.123 96.1733 181.09 96.4456 181.09C97.719 181.09 99.5337 181.103 101.027 181.116C102.521 181.13 103.692 181.143 103.695 181.143C104.412 181.151 105.001 180.575 105.009 179.858C105.017 179.14 104.442 178.551 103.724 178.543Z"/><path id="Vector_3" d="M30.9554 146.512C31.3233 146.279 31.5752 146.012 31.7581 145.813C32.035 145.503 32.1683 145.359 32.3006 145.282C32.4317 145.207 32.6206 145.111 33.1907 145.106C33.541 145.106 33.7622 145.106 33.9102 145.106C33.9107 145.106 33.9109 145.106 33.9114 145.106H34.1531C34.4952 145.106 34.8301 144.967 35.0721 144.725C35.3142 144.483 35.4529 144.148 35.4529 143.806C35.4529 143.463 35.3143 143.129 35.0723 142.887C34.8301 142.645 34.4954 142.506 34.1531 142.506C34.1531 142.506 34.0845 142.506 33.9114 142.506C33.7635 142.506 33.5418 142.506 33.1907 142.506C32.3819 142.503 31.6912 142.66 31.1385 142.953C30.7256 143.169 30.4148 143.445 30.1927 143.674C29.8592 144.028 29.6895 144.236 29.5943 144.295L29.45 144.368C29.3833 144.388 29.271 144.412 29.0735 144.412L28.8509 144.366C28.7188 144.312 28.5093 144.157 28.2613 143.875C27.8833 143.459 27.4695 142.812 26.9034 142.18C26.616 141.865 26.2801 141.547 25.8431 141.29C25.4099 141.033 24.8587 140.853 24.2718 140.856C23.7391 140.856 23.2356 140.946 22.7879 141.122C21.9964 141.429 21.4356 141.98 21.0496 142.497C20.4732 143.281 20.148 144.032 19.8218 144.446C19.6636 144.657 19.5313 144.775 19.4119 144.845C19.2896 144.911 19.1665 144.96 18.888 144.964C18.3943 144.959 18.1844 144.875 18 144.776C17.8619 144.698 17.7254 144.586 17.5454 144.409C17.2757 144.152 16.9273 143.726 16.3379 143.335C15.7495 142.941 14.9283 142.675 13.9749 142.684C11.3933 142.684 10.262 142.737 10.2383 142.738C9.52103 142.772 8.96732 143.381 9.0015 144.098C9.03544 144.815 9.64457 145.369 10.3619 145.335C10.3619 145.335 10.4195 145.332 10.5581 145.327C10.9744 145.313 12.0655 145.283 13.9749 145.283C14.4615 145.289 14.6651 145.371 14.8472 145.47C14.9834 145.547 15.1197 145.659 15.3003 145.837C15.5708 146.096 15.9222 146.524 16.5149 146.915C17.107 147.308 17.93 147.572 18.888 147.564C19.4036 147.565 19.897 147.469 20.3311 147.285C21.0996 146.962 21.6197 146.406 21.9807 145.898C22.5193 145.127 22.8389 144.404 23.1729 144.001C23.336 143.796 23.4764 143.675 23.6228 143.596C23.7715 143.518 23.9431 143.459 24.2718 143.456L24.4588 143.497C24.5769 143.546 24.784 143.702 25.0303 143.986C25.4065 144.406 25.8238 145.061 26.4031 145.697C26.6968 146.013 27.042 146.332 27.4871 146.586C27.9283 146.841 28.4834 147.015 29.0735 147.012C29.7981 147.019 30.4644 146.831 30.9554 146.512Z"/><path id="Vector_4" d="M191.218 143.81C190.976 143.568 190.642 143.43 190.299 143.43H190.282H190.265C190.142 143.43 189.568 143.43 187.293 143.43C186.633 143.428 186.346 143.329 186.205 143.26C186.096 143.203 186.031 143.153 185.899 143.02C185.801 142.923 185.675 142.778 185.495 142.598C185.229 142.33 184.815 141.996 184.272 141.786C183.728 141.572 183.095 141.47 182.323 141.471C181.891 141.469 181.472 141.561 181.11 141.718C180.47 141.995 180.031 142.425 179.686 142.818C179.173 143.417 178.807 143.986 178.464 144.32C178.296 144.489 178.148 144.598 178.01 144.665C177.871 144.73 177.74 144.768 177.522 144.771C176.955 144.769 176.734 144.689 176.63 144.64C176.548 144.599 176.492 144.561 176.355 144.437C176.16 144.264 175.782 143.856 175.155 143.562C174.529 143.267 173.752 143.119 172.713 143.12C171.11 143.12 170.123 143.12 170.12 143.12C169.402 143.12 168.82 143.702 168.82 144.42C168.82 145.138 169.402 145.72 170.12 145.72C170.123 145.72 171.11 145.72 172.713 145.72C173.429 145.72 173.796 145.812 173.982 145.886C174.124 145.945 174.187 145.988 174.302 146.084C174.387 146.155 174.497 146.263 174.659 146.408C174.897 146.624 175.276 146.914 175.77 147.097C176.264 147.284 176.833 147.371 177.522 147.37C178.435 147.379 179.248 147.034 179.817 146.587C180.25 146.254 180.574 145.882 180.848 145.542C181.255 145.028 181.571 144.576 181.823 144.337C181.947 144.216 182.043 144.15 182.112 144.117C182.183 144.085 182.225 144.073 182.323 144.071C182.977 144.072 183.256 144.17 183.394 144.239C183.5 144.294 183.565 144.345 183.698 144.479C183.796 144.577 183.924 144.724 184.105 144.904C184.374 145.174 184.791 145.507 185.336 145.715C185.881 145.928 186.517 146.03 187.293 146.03C189.562 146.03 190.139 146.03 190.264 146.03C190.264 146.03 190.264 146.03 190.265 146.03H190.282C190.293 146.03 190.299 146.03 190.299 146.03C190.641 146.03 190.976 145.891 191.218 145.649C191.46 145.407 191.599 145.072 191.599 144.73C191.599 144.387 191.46 144.053 191.218 143.81Z"/><path id="Vector_5" d="M86.3801 39.2495V39.2493C86.3826 39.2493 87.3711 39.2493 88.9739 39.2493C89.6897 39.2493 90.0569 39.3408 90.2427 39.4153C90.3848 39.4744 90.4473 39.5176 90.563 39.6131C90.6482 39.6841 90.7581 39.7925 90.9199 39.9375C91.1582 40.1531 91.5364 40.4434 92.0303 40.6265C92.5244 40.813 93.0942 40.8999 93.7825 40.8997C94.6958 40.9085 95.5088 40.563 96.0774 40.1165C96.5105 39.7835 96.8345 39.4116 97.1089 39.0708C97.5154 38.5571 97.832 38.105 98.0835 37.8667C98.2073 37.7456 98.3042 37.6797 98.3728 37.6467C98.4438 37.6145 98.4858 37.6018 98.5842 37.5999C99.2373 37.6013 99.5164 37.6997 99.6541 37.7681C99.76 37.823 99.8249 37.8738 99.958 38.0076C100.056 38.1062 100.183 38.2529 100.365 38.4331C100.634 38.7029 101.051 39.0359 101.596 39.2446C102.141 39.4578 102.777 39.5589 103.553 39.5589C105.822 39.5589 106.399 39.5589 106.523 39.5589C106.524 39.5589 106.524 39.5591 106.525 39.5591L106.542 39.5589C106.553 39.5589 106.559 39.5589 106.559 39.5589C106.901 39.5589 107.236 39.4202 107.478 39.1782C107.72 38.9363 107.859 38.6013 107.859 38.2591C107.859 37.9165 107.72 37.5818 107.478 37.3396C107.236 37.0977 106.901 36.959 106.559 36.959H106.542H106.525C106.402 36.959 105.828 36.959 103.553 36.959C102.893 36.9578 102.606 36.8584 102.465 36.7888C102.356 36.7327 102.291 36.6819 102.159 36.5498C102.061 36.4522 101.935 36.3069 101.755 36.1275C101.489 35.8594 101.075 35.5257 100.532 35.3157C99.989 35.1013 99.3555 34.9998 98.5842 35C98.1521 34.9986 97.7324 35.0903 97.3704 35.2471C96.7312 35.5242 96.2915 35.9539 95.9463 36.3474C95.4338 36.9463 95.0681 37.5149 94.7251 37.8491C94.5566 38.0183 94.4085 38.1272 94.2712 38.1939C94.1316 38.2595 94.0005 38.2976 93.7825 38.2998C93.2158 38.2981 92.9949 38.218 92.8904 38.1692C92.8088 38.1287 92.7532 38.0899 92.6162 37.9663C92.4209 37.7935 92.0427 37.3858 91.4163 37.0916C90.7895 36.7964 90.0132 36.6487 88.9739 36.6494C87.3713 36.6494 86.3826 36.6494 86.3801 36.6494C85.6621 36.6494 85.0801 37.2315 85.0801 37.9495C85.0801 38.6673 85.6621 39.2495 86.3801 39.2495Z"/><path id="Vector_6" d="M105.698 62.4656C105.481 62.4656 105.263 62.4661 105.046 62.4668C104.328 62.469 103.748 63.0533 103.75 63.7713C103.752 64.489 104.336 65.0691 105.054 65.0669V65.0667C105.271 65.0659 105.485 65.0655 105.698 65.0655C107.792 65.0655 109.792 65.096 111.607 65.1692C111.973 65.1839 112.333 65.041 112.589 64.7788C115.938 61.3523 119.864 57.6424 123.359 54.3909C126.21 51.7381 128.753 49.4087 130.501 47.7481C130.835 48.5503 130.931 49.0852 130.927 49.4153C130.919 49.8526 130.822 50.0542 130.592 50.5066C130.478 50.7268 130.329 50.9961 130.197 51.3455C130.065 51.6927 129.961 52.1265 129.963 52.6021C129.962 53.0835 130.063 53.5928 130.261 54.124C130.478 54.7215 130.822 55.2051 131.17 55.5513C131.7 56.0718 132.155 56.3291 132.403 56.5681C132.653 56.8118 132.792 56.9634 132.941 57.5095C132.99 57.7078 133.004 57.8477 133.004 57.9485C133.001 58.0928 132.984 58.1524 132.946 58.2478C132.894 58.3872 132.73 58.6089 132.483 59.0156C132.241 59.4136 131.972 60.0515 131.98 60.7945C131.98 61.012 132.001 61.2366 132.04 61.4666C132.152 62.1663 132.461 62.7678 132.817 63.1973C133.36 63.8438 133.899 64.167 134.19 64.4519C134.341 64.5918 134.439 64.7076 134.512 64.8301C134.584 64.9539 134.642 65.0906 134.68 65.3267L134.698 65.5342C134.694 65.6939 134.672 65.7615 134.62 65.874C134.546 66.0401 134.333 66.2854 134.022 66.6978C133.871 66.9053 133.701 67.1626 133.567 67.4881C133.432 67.8118 133.342 68.2044 133.344 68.6165C133.344 68.9739 133.406 69.3418 133.524 69.7117C133.756 70.4568 134.234 71.0393 134.75 71.4282C135.53 72.0159 136.38 72.2573 137.088 72.3958C137.797 72.5291 138.378 72.5423 138.63 72.5427L138.737 72.5423H147.261C147.979 72.5423 148.561 71.9602 148.561 71.2425C148.561 70.5244 147.979 69.9426 147.261 69.9426L138.716 69.9424H138.695L138.63 69.9429C138.442 69.9458 137.717 69.9182 137.095 69.7256C136.783 69.6326 136.506 69.5003 136.327 69.3618C136.146 69.2183 136.061 69.1016 136.003 68.9292V68.9263C135.952 68.7678 135.944 68.6738 135.944 68.6165C135.948 68.5313 135.951 68.5171 135.999 68.419C136.066 68.2749 136.313 68.0042 136.637 67.5528C136.795 67.3255 136.964 67.0435 137.091 66.7005C137.219 66.3582 137.299 65.9575 137.297 65.5342C137.297 65.3374 137.282 65.1358 137.25 64.9304C137.143 64.2073 136.85 63.5852 136.494 63.128C135.955 62.44 135.384 62.0916 135.079 61.805C134.921 61.6641 134.821 61.5515 134.753 61.4453C134.687 61.3374 134.638 61.2327 134.604 61.0359L134.603 61.031C134.586 60.9309 134.58 60.855 134.58 60.7945C134.583 60.6533 134.6 60.5965 134.637 60.502C134.689 60.3638 134.854 60.1406 135.102 59.732C135.345 59.3318 135.613 58.6924 135.604 57.9485C135.604 57.6111 135.558 57.2564 135.465 56.8836C135.3 56.2066 135.014 55.6387 134.672 55.2031C134.154 54.5462 133.597 54.2117 133.283 53.9534C132.955 53.6834 132.838 53.5694 132.699 53.2219C132.586 52.9153 132.564 52.7293 132.563 52.6021C132.565 52.4761 132.582 52.3936 132.631 52.2593C132.699 52.0618 132.884 51.7593 133.104 51.292C133.321 50.8289 133.532 50.1802 133.527 49.4153C133.522 48.229 133.093 46.8743 132.029 44.9888C131.675 44.3638 130.882 44.1441 130.257 44.4978C130.193 44.5342 130.152 44.5921 130.097 44.637C129.974 44.697 129.853 44.7622 129.75 44.8631C128.162 46.4268 125.091 49.2283 121.588 52.4876C118.217 55.6238 114.448 59.1883 111.138 62.552C109.433 62.4922 107.604 62.4656 105.698 62.4656Z"/><path id="Vector_7" d="M80.7134 65.9422L80.7131 65.9419C84.7143 65.6802 91.8647 65.2854 99.0351 65.1309C99.7527 65.1155 100.322 64.521 100.307 63.8035C100.291 63.0857 99.697 62.5164 98.9795 62.5318C91.7512 62.6875 84.5754 63.0838 80.5434 63.3474C79.8269 63.3943 79.2839 64.0132 79.331 64.7298C79.3779 65.4461 79.9968 65.989 80.7134 65.9422Z"/><path id="Vector_8" d="M152.211 151.12H152.21C151.842 150.021 151.297 148.461 150.746 146.979C150.508 146.337 150.27 145.72 150.042 145.15H156.105C156.823 145.15 157.405 144.568 157.405 143.85C157.405 143.132 156.823 142.55 156.105 142.55H148.062C147.61 142.55 147.191 142.784 146.954 143.169C146.718 143.554 146.698 144.034 146.902 144.438C147.059 144.746 147.283 145.256 147.526 145.857C148.262 147.669 149.207 150.342 149.745 151.947C149.973 152.627 150.71 152.994 151.391 152.766C152.072 152.538 152.439 151.801 152.211 151.12Z"/><path id="Vector_9" d="M157.934 180.869C157.858 180.155 157.217 179.638 156.504 179.715C155.79 179.791 155.273 180.431 155.349 181.145C155.638 183.848 155.857 186.502 155.993 189.037C156.031 189.754 156.643 190.304 157.361 190.265C158.078 190.227 158.628 189.615 158.59 188.898L158.589 188.897C158.45 186.311 158.227 183.613 157.934 180.869Z"/><path id="Vector_10" d="M18.4466 170.48H10.5208C9.80273 170.48 9.2207 171.063 9.2207 171.781C9.2207 172.498 9.80273 173.08 10.5208 173.08H18.4466C19.1643 173.08 19.7464 172.498 19.7464 171.781C19.7464 171.063 19.1643 170.48 18.4466 170.48Z"/><path id="Vector_11" d="M136.28 170.053H130.917C130.199 170.053 129.617 170.635 129.617 171.353C129.617 172.071 130.199 172.653 130.917 172.653H136.28C136.997 172.653 137.579 172.071 137.579 171.353C137.579 170.635 136.997 170.053 136.28 170.053Z"/><path id="Vector_12" d="M122.395 125.106H114.47C113.752 125.106 113.17 125.689 113.17 126.407C113.17 127.124 113.752 127.706 114.47 127.706H122.395C123.113 127.706 123.695 127.124 123.695 126.407C123.695 125.689 123.113 125.106 122.395 125.106Z"/><path id="Vector_13" d="M41.7095 183.664H34.9927C34.314 183.664 33.7486 184.187 33.6963 184.864C33.6153 185.923 33.552 187.937 33.5 188.897C33.4614 189.614 34.0112 190.227 34.7285 190.265C35.4456 190.304 36.0581 189.754 36.0967 189.037H36.0964C36.1323 188.359 36.1741 187.224 36.2197 186.264H41.7095C42.4273 186.264 43.0093 185.682 43.0093 184.964C43.0093 184.246 42.4273 183.664 41.7095 183.664Z"/><path id="Vector_14" d="M178.566 88.959C178.688 88.2515 178.214 87.5789 177.507 87.4568C175.699 87.1448 173.236 86.9302 170.247 86.8404C169.529 86.8189 168.93 87.3836 168.909 88.1014C168.887 88.8189 169.452 89.418 170.17 89.4395V89.4393C173.071 89.5252 175.448 89.7383 177.064 90.0184C177.771 90.1404 178.444 89.6663 178.566 88.959Z"/><path id="Vector_15" d="M177.396 117.564C177.745 116.936 177.519 116.145 176.892 115.796C172.536 113.379 166.545 111.468 159.276 109.811C158.575 109.651 157.879 110.09 157.72 110.79C157.56 111.49 157.999 112.187 158.699 112.346C165.842 113.968 171.655 115.854 175.628 118.068C176.255 118.417 177.047 118.191 177.396 117.564Z"/><path id="Vector_16" d="M42.2101 87.7727C35.5529 86.9378 29.7704 86.5899 25.0939 86.5899C21.3496 86.5906 18.3198 86.8101 16.0771 87.1966C15.3693 87.3186 14.895 87.9915 15.0173 88.6992C15.1393 89.4068 15.8122 89.8811 16.52 89.7591C18.5388 89.409 21.4562 89.189 25.0939 89.1897C29.6423 89.1897 35.3261 89.5293 41.8867 90.3526C42.5988 90.4419 43.2487 89.9368 43.3383 89.2246C43.4277 88.5122 42.9226 87.8623 42.2104 87.773L42.2101 87.7727Z"/><path id="Vector_17" d="M64.487 99.2513L64.4868 99.251C63.4411 99.045 62.3818 98.8614 61.311 98.6975C60.601 98.5889 59.938 99.0765 59.8296 99.7864C59.7209 100.496 60.2085 101.159 60.9184 101.268C61.9548 101.426 62.9775 101.604 63.9846 101.802C64.6889 101.941 65.3723 101.482 65.5112 100.778C65.6499 100.073 65.1914 99.3899 64.487 99.2513Z"/><path id="Vector_18" d="M18.2776 118.029C18.8836 117.641 19.8059 117.183 20.9576 116.708C22.1104 116.231 23.4959 115.731 25.0576 115.228C25.7408 115.007 26.116 114.275 25.8958 113.592C25.6753 112.908 24.9429 112.533 24.2598 112.753H24.2596C22.6475 113.273 21.2024 113.793 19.9637 114.305C18.7237 114.819 17.6934 115.32 16.8816 115.835C16.2757 116.22 16.0972 117.024 16.4827 117.63C16.868 118.236 17.6717 118.414 18.2776 118.029Z"/><path id="Vector_19" d="M61.1146 106.147H61.1144C57.6652 106.263 53.8788 106.621 50.0104 107.141C50.3893 104.685 50.7789 102.275 51.1769 99.9236C52.63 100.016 54.0773 100.128 55.5055 100.284C56.2191 100.361 56.8605 99.8457 56.9384 99.1321C57.016 98.4182 56.5004 97.7769 55.7868 97.6992L55.7865 97.699C54.4083 97.5491 53.016 97.4395 51.62 97.347C51.9435 95.4876 52.2697 93.6663 52.5963 91.8824C56.1998 92.5574 59.8707 93.3631 63.3705 94.3438C64.0616 94.5374 64.7792 94.1341 64.973 93.4429C65.1666 92.7515 64.7633 92.034 64.0722 91.8404L64.0719 91.8401C60.4774 90.8335 56.7345 90.0125 53.069 89.3257C53.7443 85.7115 54.4147 82.2608 55.0534 79.0128C55.1286 78.6299 55.0297 78.2376 54.7819 77.9361C54.5341 77.6348 54.1681 77.462 53.778 77.462H46.3873C45.6693 77.462 45.0873 78.044 45.0873 78.762C45.0873 79.4798 45.6693 80.0621 46.3873 80.0621V80.0618H52.1984C51.65 82.8621 51.0827 85.7996 50.5099 88.8646C49.5472 88.7 48.5812 88.533 47.643 88.3882C46.9332 88.2789 46.2692 88.7654 46.16 89.4751C46.0507 90.1846 46.5372 90.8487 47.247 90.958C48.1605 91.0989 49.1007 91.2615 50.0372 91.4217C49.692 93.3059 49.3478 95.2337 49.006 97.2034C47.2907 97.1306 45.5731 97.0889 43.8644 97.0889C37.2299 97.0889 30.7367 97.5994 25.0824 98.3511C19.4259 99.1038 14.619 100.093 11.3126 101.076C10.6244 101.28 10.2323 102.004 10.4371 102.692C10.6417 103.38 11.3656 103.772 12.0538 103.568C15.1622 102.642 19.8786 101.665 25.4249 100.928C30.9738 100.19 37.3634 99.6888 43.8644 99.6888C45.4279 99.6888 46.9972 99.7269 48.5634 99.7884C48.1388 102.305 47.7233 104.887 47.3214 107.524C41.1198 108.469 34.8534 109.793 29.5394 111.21C28.8456 111.395 28.4332 112.107 28.6185 112.801C28.8036 113.495 29.516 113.907 30.2098 113.722C35.193 112.391 41.0761 111.141 46.9186 110.221C45.9794 116.639 45.1356 123.367 44.4855 130.337C44.4186 131.052 44.944 131.686 45.6591 131.753C46.3739 131.819 47.0075 131.294 47.0743 130.579C47.7457 123.38 48.6246 116.432 49.6044 109.818C53.6681 109.25 57.6415 108.863 61.2011 108.746C61.9183 108.722 62.4806 108.121 62.4569 107.403C62.433 106.686 61.8319 106.124 61.1146 106.147Z"/><path id="Vector_20" d="M36.4739 72.2071C35.7558 72.2071 35.1738 72.7891 35.1738 73.5071C35.1738 74.2249 35.7558 74.8069 36.4739 74.8069H61.5754C62.2932 74.8069 62.8752 74.2249 62.8752 73.5071C62.8752 72.7891 62.2932 72.2071 61.5754 72.2071H56.636C58.6621 62.7483 60.4944 55.3321 61.7014 50.6619L74.677 64.0486C75.1767 64.564 75.9997 64.5769 76.5154 64.0772C77.0307 63.5774 77.0437 62.7544 76.5439 62.2388L62.0918 47.3287C61.592 46.8133 60.769 46.8003 60.2534 47.3001C60.1316 47.418 60.0429 47.5562 59.9775 47.7019C59.8266 47.8572 59.6994 48.0372 59.6406 48.2615L59.6404 48.2613C58.4428 52.812 56.3327 61.1599 53.977 72.2071H36.4739Z"/><path id="Vector_21" d="M132.04 61.4693V61.4666L132.039 61.4644L132.04 61.4693Z"/><path id="Vector_22" d="M133.524 69.7146L133.523 69.7117L133.524 69.7146Z"/><path id="Vector_23" d="M120.297 154.618C120.297 154.618 118.531 154.618 116.564 154.618C114.597 154.618 112.43 154.618 111.629 154.618C111.407 154.613 111.37 154.589 111.29 154.553C111.232 154.523 111.144 154.464 110.999 154.349C110.785 154.184 110.442 153.888 109.933 153.653C109.423 153.416 108.78 153.272 108.025 153.275C107.364 153.27 106.758 153.461 106.308 153.72C105.629 154.114 105.256 154.535 104.952 154.742C104.801 154.851 104.677 154.921 104.54 154.971C104.402 155.021 104.242 155.057 103.991 155.058C103.422 155.049 103.228 154.943 103.049 154.824C102.916 154.728 102.78 154.58 102.61 154.345C102.352 154.002 102.064 153.458 101.487 152.917C101.198 152.651 100.826 152.4 100.387 152.234C99.9479 152.065 99.4545 151.982 98.9247 151.983L98.8447 151.984V151.983C98.8426 151.983 98.8405 151.984 98.8383 151.984L98.8009 151.985L98.8012 151.989C98.3156 152.001 97.842 152.116 97.4408 152.326C97.0784 152.514 96.7802 152.765 96.5434 153.027C96.1286 153.49 95.8783 153.978 95.665 154.421C95.3552 155.086 95.1083 155.671 94.8796 155.963C94.7677 156.112 94.6806 156.183 94.6078 156.224C94.5329 156.263 94.4582 156.295 94.2609 156.298C93.9794 156.297 93.7922 156.25 93.6335 156.182C93.3644 156.064 93.1222 155.846 92.8561 155.449C92.4543 154.86 92.1176 153.947 91.6386 153.043C91.3923 152.591 91.101 152.125 90.6506 151.714C90.2084 151.302 89.5541 150.977 88.842 150.941C88.707 150.932 88.5737 150.928 88.4435 150.928C87.9206 150.928 87.4389 150.999 87.0019 151.155C86.2267 151.421 85.6745 151.974 85.3539 152.448C85.1051 152.807 84.9428 153.129 84.7941 153.383C84.5688 153.772 84.4103 153.977 84.1745 154.132C83.9374 154.284 83.5256 154.454 82.6193 154.457C81.4945 154.457 79.7267 154.457 78.2402 154.457C76.7533 154.457 75.5507 154.457 75.548 154.457C74.83 154.457 74.248 155.039 74.248 155.757C74.248 156.475 74.83 157.057 75.548 157.057C75.5507 157.057 76.7533 157.057 78.2402 157.057C79.7267 157.057 81.4945 157.057 82.6193 157.057C83.8735 157.061 84.8735 156.794 85.6291 156.287C86.193 155.912 86.5734 155.436 86.8361 155.028C87.0346 154.719 87.1781 154.444 87.3014 154.232C87.4872 153.906 87.6144 153.755 87.7133 153.687C87.8129 153.622 87.9467 153.535 88.4435 153.528L88.6779 153.536L88.8405 153.589C88.9418 153.647 89.1684 153.912 89.4008 154.372C89.7648 155.054 90.1195 156.067 90.7868 157.028C91.1242 157.507 91.5617 157.983 92.153 158.338C92.7416 158.695 93.4738 158.901 94.2609 158.898C94.7702 158.899 95.2653 158.793 95.6921 158.589C96.4494 158.228 96.923 157.632 97.2438 157.098C97.7204 156.288 97.9831 155.506 98.2634 155.061C98.3974 154.837 98.5138 154.716 98.5873 154.665C98.6652 154.617 98.6977 154.592 98.884 154.583H98.9059H98.9247C99.4057 154.595 99.5163 154.676 99.6713 154.784C99.7851 154.872 99.922 155.029 100.096 155.279C100.36 155.644 100.679 156.221 101.306 156.759C101.619 157.024 102.013 157.263 102.469 157.42C102.925 157.579 103.435 157.658 103.991 157.658C104.696 157.661 105.328 157.495 105.827 157.244C106.578 156.864 107.015 156.391 107.321 156.164C107.474 156.045 107.584 155.978 107.678 155.939C107.774 155.901 107.858 155.877 108.025 155.875C108.433 155.877 108.644 155.934 108.792 155.992C109.008 156.075 109.159 156.216 109.584 156.54C109.793 156.694 110.074 156.877 110.428 157.011C110.782 157.145 111.194 157.22 111.629 157.218C113.231 157.218 120.297 157.218 120.297 157.218C121.015 157.218 121.597 156.636 121.597 155.918C121.597 155.2 121.015 154.618 120.297 154.618Z"/><path id="Vector_24" d="M173.879 171.381C172.606 171.381 171.049 171.368 169.813 171.355C168.576 171.342 167.662 171.329 167.66 171.329C166.942 171.319 166.352 171.893 166.342 172.611C166.331 173.329 166.905 173.919 167.623 173.929C167.626 173.929 171.3 173.981 173.879 173.981C174.597 173.981 175.179 173.399 175.179 172.681C175.179 171.963 174.597 171.381 173.879 171.381Z"/><path id="Vector_25" d="M153.056 165.844L153.055 165.841V165.84L153.056 165.844Z"/><path id="Vector_26" d="M156.126 176.318C156.818 176.129 157.227 175.414 157.038 174.722C156.979 174.507 156.963 174.356 156.963 174.244C156.966 174.072 156.991 173.984 157.055 173.84C157.144 173.628 157.394 173.314 157.706 172.804C158.014 172.301 158.326 171.548 158.318 170.648C158.318 170.442 158.304 170.228 158.274 170.006C158.174 169.225 157.908 168.562 157.568 168.052C157.052 167.283 156.48 166.869 156.17 166.533C156.009 166.365 155.9 166.226 155.817 166.074C155.735 165.922 155.669 165.75 155.628 165.471L155.627 165.467C155.607 165.33 155.6 165.219 155.6 165.124C155.602 164.905 155.632 164.779 155.682 164.636C155.753 164.425 155.925 164.16 156.161 163.703C156.394 163.253 156.63 162.589 156.623 161.806C156.623 161.45 156.582 161.069 156.494 160.659C156.338 159.916 156.074 159.301 155.747 158.815C155.253 158.081 154.693 157.682 154.377 157.381C154.051 157.068 153.904 156.911 153.739 156.428C153.522 155.743 152.791 155.364 152.107 155.581C151.422 155.798 151.043 156.529 151.26 157.213C151.462 157.862 151.784 158.392 152.123 158.786C152.641 159.38 153.097 159.683 153.351 159.967C153.608 160.255 153.789 160.491 153.951 161.2C154.006 161.457 154.024 161.653 154.024 161.806C154.022 162.028 153.991 162.157 153.941 162.301C153.87 162.513 153.699 162.777 153.463 163.233C153.231 163.68 152.993 164.343 153 165.124C153 165.353 153.018 165.593 153.055 165.841C153.158 166.59 153.437 167.231 153.779 167.713C154.3 168.439 154.843 168.823 155.14 169.16C155.295 169.328 155.403 169.473 155.492 169.646C155.579 169.819 155.653 170.026 155.697 170.347C155.712 170.46 155.718 170.56 155.718 170.648C155.715 170.898 155.676 171.045 155.609 171.21C155.512 171.454 155.291 171.742 154.99 172.211C154.844 172.445 154.685 172.728 154.563 173.073C154.44 173.416 154.362 173.817 154.363 174.244C154.363 174.615 154.419 175.003 154.529 175.406C154.718 176.098 155.433 176.507 156.126 176.318Z"/><path id="Vector_27" d="M44.1391 154.974C43.7742 155.242 43.5942 155.36 43.0901 155.439C42.3784 155.535 41.8789 156.189 41.9746 156.901C42.0701 157.612 42.7246 158.112 43.4363 158.016H43.436C44.1103 157.928 44.6877 157.704 45.1345 157.438C45.8086 157.03 46.1853 156.633 46.5098 156.431C46.8371 156.228 47.1015 156.09 47.8281 156.052H47.8325L47.9761 156.049C48.4106 156.052 48.6218 156.116 48.7898 156.189C48.9165 156.246 49.0312 156.32 49.1887 156.442C49.4226 156.617 49.7439 156.925 50.2546 157.215C50.7641 157.506 51.4473 157.716 52.2429 157.735L52.2837 157.736H57.9663C58.6841 157.736 59.2661 157.154 59.2661 156.436C59.2661 155.718 58.6841 155.136 57.9663 155.136H52.3179C51.9289 155.12 51.748 155.055 51.5862 154.979C51.4641 154.918 51.343 154.835 51.1758 154.702C50.9277 154.51 50.5796 154.186 50.0386 153.906C49.4983 153.624 48.7956 153.444 47.9761 153.449L47.7317 153.454C46.9726 153.481 46.3227 153.634 45.7873 153.872C44.979 154.233 44.4902 154.715 44.1391 154.974Z"/><path id="Vector_28" d="M40.1555 145.564C39.9248 145.829 39.478 146.085 38.8716 146.566C38.5747 146.809 38.2517 147.12 37.9702 147.525C37.6873 147.929 37.4534 148.42 37.2979 148.989C37.1628 149.479 37.0974 149.938 37.0977 150.368C37.0964 150.837 37.178 151.264 37.2876 151.62C37.4556 152.158 37.6536 152.533 37.7668 152.84C37.8826 153.151 37.948 153.389 37.9514 153.775C37.9514 153.902 37.9424 154.047 37.9204 154.218C37.8279 154.93 38.3303 155.582 39.0425 155.674C39.7544 155.767 40.4065 155.264 40.499 154.552C40.5339 154.282 40.5513 154.024 40.5513 153.775C40.5576 152.766 40.2388 151.986 40.0193 151.482C39.9084 151.225 39.8247 151.028 39.7744 150.861C39.7241 150.693 39.6987 150.555 39.6975 150.368C39.6978 150.198 39.7217 149.981 39.8047 149.679C39.9228 149.263 40.0571 149.053 40.2209 148.861C40.4602 148.574 40.8748 148.328 41.4644 147.877C41.7524 147.65 42.0725 147.361 42.3569 146.977C42.6423 146.593 42.8816 146.12 43.0366 145.574L43.0376 145.57C43.1648 145.122 43.2256 144.698 43.2251 144.303C43.2273 143.515 42.979 142.903 42.8289 142.516C42.6714 142.111 42.6111 141.931 42.6089 141.668C42.6096 141.49 42.6406 141.244 42.7798 140.856C42.9458 140.401 43.1089 140.158 43.272 139.971C43.511 139.695 43.8315 139.51 44.3635 139.148C44.8838 138.797 45.5601 138.203 45.9895 137.272C46.2971 136.623 46.021 135.847 45.3726 135.54C44.7239 135.232 43.9485 135.508 43.6409 136.157H43.6406C43.4905 136.466 43.3596 136.617 43.188 136.774C42.9402 137.009 42.501 137.23 41.9119 137.691C41.3257 138.15 40.7097 138.899 40.3345 139.973C40.113 140.583 40.0083 141.148 40.009 141.668C40.0068 142.456 40.2546 143.069 40.4053 143.458C40.5632 143.863 40.623 144.043 40.6252 144.303C40.6248 144.438 40.6062 144.61 40.5364 144.86C40.4292 145.219 40.3144 145.386 40.1555 145.564Z"/><path id="Vector_29" d="M171.823 138.236C171.823 137.518 171.241 136.936 170.524 136.936H148.304C147.376 126.783 146.241 117.884 144.988 109.793C147.357 110.103 149.731 110.47 152.065 110.891C152.771 111.018 153.448 110.549 153.575 109.843C153.703 109.136 153.233 108.46 152.527 108.332C149.902 107.859 147.23 107.453 144.567 107.119C144.204 104.87 143.831 102.691 143.452 100.557C146.347 100.358 149.266 100.26 152.148 100.26C158.26 100.26 164.197 100.67 169.343 101.321C174.486 101.971 178.85 102.87 181.754 103.814C182.437 104.035 183.17 103.661 183.392 102.979C183.614 102.295 183.239 101.562 182.557 101.341C179.401 100.319 174.93 99.4092 169.67 98.7417C164.412 98.0762 158.376 97.6602 152.148 97.6602C149.117 97.6604 146.041 97.7664 142.987 97.9837C142.591 95.8262 142.189 93.7156 141.782 91.6502C149.378 90.2166 156.425 89.5533 162.829 89.4209C163.546 89.406 164.116 88.8123 164.102 88.0948C164.087 87.377 163.493 86.8069 162.775 86.8218C156.23 86.9568 149.029 87.6355 141.277 89.1004C140.379 84.6438 139.466 80.3606 138.559 76.1385C138.408 75.4363 137.717 74.9895 137.015 75.1404C136.313 75.291 135.866 75.9822 136.017 76.6844V76.6841C136.921 80.8982 137.831 85.1634 138.723 89.594C135.73 90.2188 132.659 90.9612 129.51 91.843C128.818 92.0366 128.415 92.7539 128.609 93.4456C128.802 94.137 129.52 94.5406 130.211 94.347V94.3467C133.295 93.4832 136.301 92.7561 139.23 92.1438C139.619 94.1214 140.003 96.1394 140.383 98.199C137.236 98.4964 134.13 98.9197 131.147 99.5078C130.442 99.6468 129.984 100.331 130.123 101.035C130.262 101.74 130.946 102.198 131.65 102.059C134.604 101.476 137.7 101.057 140.849 100.766C141.199 102.734 141.544 104.744 141.881 106.808C138.758 106.474 135.672 106.245 132.723 106.147C132.005 106.123 131.404 106.686 131.381 107.403C131.357 108.121 131.919 108.722 132.637 108.746H132.636C135.733 108.849 138.998 109.096 142.304 109.466C143.585 117.635 144.745 126.631 145.692 136.936H128.866C128.148 136.936 127.566 137.518 127.566 138.236C127.566 138.953 128.148 139.535 128.866 139.535H170.524C171.241 139.535 171.823 138.953 171.823 138.236Z"/><path id="Vector_30" d="M59.0129 178.111H37.0149C37.2524 176.074 37.6233 172.844 38.0151 169.609C38.4802 165.765 38.9792 161.907 39.292 160.225C39.3621 159.846 39.2598 159.454 39.0134 159.157C38.7668 158.861 38.3994 158.689 38.0139 158.689H32.6516C31.9336 158.689 31.3516 159.271 31.3516 159.989C31.3516 160.706 31.9336 161.289 32.6516 161.289L36.4836 161.288C36.1741 163.334 35.7981 166.297 35.4341 169.297C35.022 172.699 34.6316 176.108 34.3975 178.111H29.2122C28.4941 178.111 27.9121 178.693 27.9121 179.411C27.9121 180.129 28.4941 180.711 29.2122 180.711H59.0129C59.7307 180.711 60.3127 180.129 60.3127 179.411C60.3127 178.693 59.7307 178.111 59.0129 178.111Z"/><path id="Vector_31" d="M10.6282 54.5816V54.5813C10.6301 54.5813 11.0283 54.5813 12.6311 54.5813C13.2815 54.5826 13.647 54.6775 13.8914 54.7786C14.0762 54.857 14.2075 54.9431 14.365 55.0691C14.6006 55.25 14.8789 55.5662 15.3809 55.9058C15.8802 56.2476 16.615 56.4991 17.4329 56.4876C17.9334 56.4895 18.4221 56.3736 18.8352 56.1675C19.5664 55.8025 20.0247 55.2364 20.3665 54.7193C20.8721 53.9346 21.2012 53.1605 21.5342 52.7015C21.6956 52.4705 21.8391 52.3316 21.9458 52.2637C22.0567 52.1976 22.1245 52.1673 22.3186 52.1624C22.5239 52.1646 22.6314 52.1995 22.7356 52.2508C22.9085 52.335 23.1311 52.5545 23.3748 52.9825C23.7476 53.6148 24.0681 54.5902 24.6013 55.5389C24.8743 56.0125 25.2176 56.5001 25.7366 56.899C26.2498 57.3004 26.9607 57.5609 27.7024 57.553C28.5969 57.5623 29.3941 57.2903 29.9658 56.8948C30.3975 56.6028 30.7078 56.2779 30.9651 56.004C31.3511 55.5853 31.6231 55.2891 31.93 55.1009C32.2376 54.9161 32.6045 54.7657 33.385 54.7591C34.658 54.7591 36.2146 54.7723 37.451 54.7855C38.6875 54.7986 39.6013 54.8118 39.6035 54.8118C40.3213 54.8221 40.9117 54.2486 40.9221 53.5308C40.9324 52.8128 40.3589 52.2225 39.6411 52.2122C39.6377 52.212 35.9639 52.1592 33.385 52.1592C32.3496 52.1556 31.481 52.3797 30.7991 52.7523C30.2881 53.0279 29.8965 53.369 29.5901 53.6749C29.1316 54.1409 28.8333 54.5059 28.5916 54.6822C28.4705 54.774 28.3701 54.8301 28.2434 54.8748C28.1167 54.9183 27.9551 54.9525 27.7024 54.9532C27.5384 54.9503 27.4722 54.9246 27.3924 54.8836C27.3242 54.846 27.2415 54.7818 27.1397 54.6622C26.961 54.4566 26.75 54.0801 26.5388 53.6126C26.2115 52.911 25.8963 52.0259 25.313 51.1895C25.0186 50.7735 24.6387 50.3614 24.1262 50.0511C23.617 49.7391 22.9812 49.5586 22.3186 49.5625C21.8128 49.5608 21.3218 49.6729 20.9021 49.8745C20.1594 50.2315 19.6812 50.7976 19.3294 51.3196C18.8076 52.1111 18.4768 52.8956 18.1472 53.3607C17.9881 53.5945 17.8467 53.7347 17.75 53.7979C17.6485 53.8594 17.6023 53.8821 17.4329 53.8878C17.0781 53.8807 16.9883 53.8316 16.8611 53.7654C16.7666 53.7117 16.6438 53.6138 16.4573 53.4451C16.1812 53.1993 15.7591 52.7918 15.115 52.4793C14.4707 52.1641 13.6524 51.9788 12.6311 51.9815C11.0283 51.9815 10.6301 51.9815 10.6282 51.9815C9.91015 51.9815 9.32812 52.5635 9.32812 53.2816C9.32817 53.9993 9.91015 54.5816 10.6282 54.5816Z"/><path id="Vector_32" d="M148.607 64.9546C148.607 64.9544 151.635 64.9544 153.884 64.9544C155.171 64.9622 156.237 64.6159 157.01 64.0382C157.59 63.6112 157.987 63.0985 158.287 62.6391C158.73 61.943 159.017 61.3592 159.273 61.0821C159.399 60.9392 159.494 60.867 159.608 60.8118C159.722 60.7591 159.876 60.7112 160.17 60.7095C160.242 60.7095 160.327 60.7132 160.422 60.7217C160.48 60.73 160.505 60.7342 160.597 60.7982C160.754 60.9022 161.042 61.2665 161.329 61.8068C161.775 62.6132 162.224 63.7389 162.951 64.7704C163.319 65.2853 163.772 65.7881 164.376 66.1746C164.977 66.5626 165.736 66.8046 166.551 66.8002C167.051 66.8014 167.531 66.7042 167.952 66.5299C168.697 66.2227 169.227 65.7152 169.63 65.2296C170.231 64.494 170.634 63.757 171.016 63.3068C171.203 63.0798 171.37 62.9318 171.507 62.8503C171.647 62.7697 171.751 62.7326 171.951 62.7248L171.979 62.7238L172.024 62.7235C172.528 62.7313 172.682 62.8168 172.828 62.9058C172.938 62.9784 173.059 63.0961 173.229 63.3012C173.483 63.5976 173.825 64.1073 174.459 64.5614C174.774 64.7851 175.159 64.9792 175.595 65.1051C176.031 65.2326 176.514 65.2955 177.05 65.2952C177.752 65.2987 178.382 65.1352 178.88 64.8881C179.63 64.5126 180.068 64.0441 180.374 63.8205C180.527 63.7028 180.637 63.6363 180.732 63.5972C180.829 63.5589 180.915 63.5353 181.083 63.5336C181.487 63.5353 181.691 63.5936 181.834 63.6517C182.045 63.7349 182.2 63.8835 182.624 64.2192C182.833 64.3791 183.114 64.5694 183.471 64.7091C183.828 64.8504 184.247 64.9289 184.688 64.9272C186.29 64.9272 188.229 64.9272 188.229 64.9272C188.947 64.9272 189.529 64.3451 189.529 63.6274C189.529 62.9093 188.947 62.3275 188.229 62.3275V62.3273C188.229 62.3273 186.29 62.3273 184.688 62.3273C184.472 62.3217 184.444 62.299 184.366 62.2634C184.309 62.2336 184.22 62.1713 184.076 62.0527C183.862 61.8808 183.521 61.575 183.008 61.3294C182.496 61.0812 181.844 60.9306 181.083 60.9338C180.425 60.9284 179.822 61.1168 179.372 61.3714C178.694 61.7608 178.32 62.1779 178.016 62.382C177.865 62.4902 177.741 62.5593 177.603 62.6096C177.464 62.6586 177.302 62.6945 177.05 62.6955C176.451 62.6906 176.204 62.5848 176.026 62.4815C175.89 62.3993 175.77 62.2889 175.607 62.1004C175.362 61.8285 175.061 61.3548 174.478 60.8924C174.188 60.6656 173.824 60.4596 173.407 60.3253C172.989 60.1896 172.527 60.1234 172.024 60.1236L171.895 60.1259V60.1254C171.894 60.1254 171.892 60.1259 171.891 60.1259L171.866 60.1264V60.1288C171.387 60.1417 170.926 60.2497 170.528 60.4323C169.81 60.7607 169.314 61.2718 168.929 61.7528C168.358 62.482 167.96 63.2004 167.575 63.633C167.387 63.8513 167.219 63.9924 167.07 64.0737C166.919 64.154 166.788 64.1972 166.551 64.2004C166.29 64.1987 166.109 64.1516 165.935 64.0715C165.638 63.935 165.323 63.6413 165 63.1628C164.51 62.4516 164.081 61.4084 163.535 60.4226C163.255 59.9289 162.942 59.4374 162.491 59.0014C162.048 58.5686 161.403 58.1935 160.653 58.1322C160.49 58.1178 160.33 58.1097 160.17 58.1097C159.626 58.1087 159.113 58.2021 158.658 58.3898C157.853 58.7189 157.317 59.3102 156.961 59.8285C156.689 60.223 156.488 60.5969 156.297 60.916C156.01 61.4008 155.758 61.7381 155.454 61.9549C155.148 62.1676 154.747 62.3475 153.884 62.3546C151.635 62.3546 148.612 62.3546 148.607 62.3546C147.889 62.3546 147.307 62.9366 147.307 63.6546C147.307 64.3724 147.889 64.9546 148.607 64.9546Z"/><path id="Vector_33" d="M79.8796 95.3924C80.1694 95.5777 80.526 95.7359 80.9908 95.7403C81.1285 95.7405 81.2711 95.71 81.4105 95.6761L81.4132 95.688C81.4378 95.6826 81.4608 95.6707 81.4852 95.6646C81.4971 95.6612 81.5101 95.6629 81.5218 95.659L81.5201 95.6531C81.8494 95.5674 82.1661 95.4321 82.4368 95.2346C82.8922 94.9065 83.1964 94.4456 83.3604 93.9993C83.5274 93.5496 83.5789 93.107 83.5799 92.6853C83.5745 91.7796 83.3443 90.9405 83.0594 90.2447C82.9129 89.8958 82.756 89.5894 82.5549 89.3047C82.4511 89.1616 82.3402 89.0218 82.1627 88.8697C82.0723 88.7945 81.9637 88.7141 81.8089 88.6392C81.6554 88.566 81.4455 88.4944 81.1772 88.4934C80.9655 88.4934 80.7269 88.5413 80.4947 88.6712C80.3885 88.7307 80.2957 88.8008 80.21 88.8872C80.0003 89.1035 79.9022 89.2764 79.8065 89.4424C79.6707 89.6883 79.5755 89.916 79.5037 90.0965C79.4901 90.1311 79.483 90.1521 79.4715 90.1824C78.8136 90.9439 78.4749 91.8333 78.4825 92.6519C78.4852 93.4605 78.7555 94.1607 79.1524 94.6983C79.3538 94.9681 79.589 95.2024 79.8796 95.3924Z"/><path id="Vector_34" d="M114.2 88.8872C114.113 88.7654 114.016 88.6331 113.916 88.5039C113.812 88.3728 113.716 88.252 113.579 88.1133C113.492 88.0274 113.393 87.9529 113.286 87.8946C113.061 87.7669 112.788 87.719 112.614 87.7229C112.365 87.7234 112.164 87.7862 112.014 87.8538C111.733 87.9859 111.589 88.1285 111.464 88.2557C111.257 88.481 111.125 88.6963 110.996 88.9378C110.629 89.6529 110.335 90.597 110.326 91.6702C110.327 92.3189 110.445 93.034 110.847 93.7051C111.243 94.378 111.965 94.9334 112.832 95.1587C112.949 95.1907 113.052 95.2044 113.174 95.2044C113.711 95.1956 114.074 94.9849 114.353 94.7759C114.769 94.449 115.053 94.0464 115.278 93.5725C115.497 93.0991 115.639 92.5479 115.64 91.9402C115.653 91.0589 115.271 90.0569 114.472 89.2791C114.42 89.2022 114.322 89.0572 114.2 88.8872Z"/><path id="Vector_35" d="M101.737 98.1499C101.573 97.4507 100.873 97.0169 100.174 97.1809C100.111 97.1971 99.9456 97.2159 99.7225 97.2146C99.2911 97.2168 98.6649 97.1541 97.9676 97.1524C97.4991 97.1531 96.9903 97.1819 96.4578 97.3113C95.9283 97.4397 95.3651 97.6807 94.8748 98.1009C94.264 98.6204 93.8087 99.23 93.5196 99.8738C93.2288 100.518 93.1048 101.187 93.1055 101.822C93.1112 103.081 93.5596 104.199 94.1756 105.061C94.4876 105.492 94.8453 105.864 95.264 106.158C95.6824 106.445 96.1756 106.68 96.8018 106.687C97.0396 106.688 97.2991 106.647 97.5511 106.549C98.1829 106.301 98.6275 105.853 98.9476 105.387C99.4273 104.678 99.6934 103.871 99.877 103.033C100.056 102.197 100.136 101.33 100.137 100.524C100.136 100.273 100.12 100.037 100.104 99.8001C100.317 99.7876 100.534 99.7659 100.768 99.7122C101.467 99.5481 101.9 98.8489 101.737 98.1499ZM97.181 103.077C97.0674 103.442 96.9259 103.74 96.8033 103.916L96.7286 104.005C96.5548 103.878 96.2891 103.602 96.0924 103.237C95.856 102.814 95.7032 102.298 95.7054 101.822C95.7061 101.517 95.762 101.227 95.8897 100.943C96.0189 100.658 96.2208 100.372 96.5631 100.078C96.6873 99.9732 96.8389 99.8958 97.0755 99.837C97.1981 99.8064 97.3431 99.7854 97.502 99.7715C97.524 99.9966 97.5372 100.253 97.5364 100.524C97.5386 101.362 97.4139 102.347 97.181 103.077Z"/><path id="Vector_36" d="M110.181 65.0669V65.0667C110.397 65.0659 110.612 65.0655 110.825 65.0655C112.919 65.0655 114.919 65.096 116.735 65.1692C117.101 65.1839 117.461 65.041 117.717 64.7788C121.065 61.3523 124.991 57.6424 128.486 54.3909C131.337 51.7381 133.88 49.4087 135.628 47.7481C135.962 48.5503 136.058 49.0852 136.054 49.4153C136.046 49.8526 135.949 50.0542 135.719 50.5066C135.605 50.7268 135.456 50.9961 135.323 51.3455C135.192 51.6927 135.088 52.1265 135.09 52.6021C135.089 53.0835 135.19 53.5928 135.388 54.124C135.605 54.7215 135.949 55.2051 136.297 55.5513C136.827 56.0718 137.282 56.3291 137.53 56.5682C137.78 56.8118 137.919 56.9634 138.068 57.5096C138.117 57.7078 138.131 57.8477 138.131 57.9485C138.128 58.0928 138.111 58.1524 138.073 58.2479C138.021 58.3873 137.857 58.6089 137.61 59.0157C137.368 59.4136 137.099 60.0516 137.107 60.7945C137.107 61.012 137.128 61.2366 137.167 61.4666C137.279 62.1663 137.588 62.7679 137.944 63.1973C138.487 63.8438 139.026 64.167 139.317 64.452C139.468 64.5918 139.566 64.7076 139.639 64.8301C139.711 64.9539 139.769 65.0906 139.807 65.3267L139.824 65.5342C139.821 65.6939 139.799 65.7615 139.747 65.874C139.673 66.0401 139.46 66.2854 139.149 66.6978C138.998 66.9053 138.828 67.1626 138.694 67.4881C138.559 67.8118 138.469 68.2044 138.471 68.6165C138.47 68.9739 138.533 69.3418 138.651 69.7117C138.883 70.4568 139.361 71.0393 139.876 71.4282C140.657 72.0159 141.507 72.2573 142.215 72.3958C142.924 72.5291 143.505 72.5423 143.757 72.5427L143.864 72.5423H152.388C153.106 72.5423 153.688 71.9602 153.688 71.2425C153.688 70.5244 153.106 69.9426 152.388 69.9426L143.843 69.9424H143.822L143.757 69.9429C143.569 69.9458 142.844 69.9182 142.222 69.7256C141.91 69.6326 141.633 69.5003 141.454 69.3618C141.273 69.2183 141.188 69.1016 141.13 68.9292V68.9263C141.079 68.7678 141.071 68.6738 141.071 68.6165C141.075 68.5313 141.078 68.5171 141.126 68.419C141.193 68.2749 141.44 68.0042 141.764 67.5528C141.922 67.3255 142.091 67.0435 142.218 66.7005C142.346 66.3582 142.426 65.9575 142.424 65.5342C142.424 65.3374 142.408 65.1358 142.377 64.9304C142.27 64.2073 141.977 63.5852 141.621 63.128C141.082 62.44 140.511 62.0916 140.206 61.805C140.048 61.6641 139.948 61.5515 139.88 61.4453C139.813 61.3374 139.765 61.2327 139.73 61.0359V61.0311C139.713 60.931 139.707 60.855 139.707 60.7945C139.71 60.6534 139.727 60.5965 139.764 60.502C139.816 60.3638 139.981 60.1407 140.229 59.732C140.472 59.3318 140.74 58.6924 140.731 57.9485C140.731 57.6111 140.685 57.2564 140.592 56.8836C140.427 56.2066 140.141 55.6387 139.799 55.2032C139.281 54.5462 138.724 54.2117 138.41 53.9534C138.082 53.6834 137.965 53.5694 137.826 53.2219C137.713 52.9153 137.691 52.7293 137.69 52.6021C137.692 52.4761 137.709 52.3936 137.758 52.2593C137.826 52.0618 138.011 51.7593 138.23 51.292C138.448 50.8289 138.659 50.1802 138.654 49.4153C138.649 48.229 138.22 46.8743 137.156 44.9888C136.802 44.3638 136.009 44.1441 135.384 44.4978C135.32 44.5342 135.279 44.5921 135.224 44.637C135.101 44.697 134.98 44.7622 134.877 44.8631C133.289 46.4268 130.218 49.2283 126.715 52.4876C123.344 55.6238 119.575 59.1885 116.266 62.552C114.56 62.4922 112.731 62.4656 110.825 62.4656C110.608 62.4656 110.39 62.4661 110.173 62.4668C109.455 62.469 108.875 63.0533 108.877 63.7713C108.879 64.489 109.463 65.0691 110.181 65.0669Z"/><path id="Vector_37" d="M85.8402 65.9422L85.84 65.9419C89.8412 65.6802 96.9916 65.2854 104.162 65.1309C104.879 65.1155 105.449 64.521 105.434 63.8035C105.418 63.0857 104.824 62.5164 104.106 62.5318C96.8781 62.6875 89.7023 63.0838 85.6703 63.3474C84.9537 63.3943 84.4108 64.0132 84.4579 64.7298C84.5048 65.4461 85.1237 65.989 85.8402 65.9422Z"/><path id="Vector_38" d="M157.338 151.12C156.97 150.021 156.425 148.461 155.874 146.979C155.636 146.337 155.399 145.72 155.171 145.15H161.233C161.951 145.15 162.533 144.568 162.533 143.85C162.533 143.132 161.951 142.55 161.233 142.55H153.191C152.739 142.55 152.32 142.784 152.083 143.169C151.847 143.554 151.827 144.034 152.031 144.437C152.188 144.746 152.411 145.256 152.655 145.857C153.39 147.669 154.335 150.342 154.873 151.947C155.101 152.627 155.838 152.994 156.519 152.766C157.2 152.538 157.567 151.801 157.338 151.12Z"/><path id="Vector_39" d="M163.061 180.869C162.985 180.155 162.344 179.638 161.631 179.715C160.917 179.791 160.4 180.431 160.476 181.145C160.765 183.848 160.984 186.502 161.12 189.037C161.158 189.754 161.77 190.304 162.488 190.265C163.205 190.227 163.755 189.615 163.716 188.898V188.897C163.577 186.311 163.354 183.613 163.061 180.869Z"/><path id="Vector_40" d="M23.5735 170.48H15.6477C14.9297 170.48 14.3477 171.063 14.3477 171.781C14.3477 172.498 14.9297 173.08 15.6477 173.08H23.5735C24.2913 173.08 24.8733 172.498 24.8733 171.781C24.8733 171.063 24.2913 170.48 23.5735 170.48Z"/><path id="Vector_41" d="M127.522 125.106H119.597C118.879 125.106 118.297 125.689 118.297 126.407C118.297 127.124 118.879 127.706 119.597 127.706H127.522C128.239 127.706 128.822 127.124 128.822 126.407C128.822 125.689 128.239 125.106 127.522 125.106Z"/><path id="Vector_42" d="M46.8363 183.664H40.1195C39.4408 183.664 38.8754 184.187 38.8232 184.864C38.7421 185.923 38.6789 187.937 38.6269 188.897C38.5883 189.614 39.1381 190.227 39.8554 190.265C40.5724 190.304 41.185 189.754 41.2235 189.037H41.2233C41.2592 188.359 41.3009 187.224 41.3466 186.264H46.8363C47.5541 186.264 48.1361 185.682 48.1361 184.964C48.1362 184.246 47.5541 183.664 46.8363 183.664Z"/><path id="Vector_43" d="M174.036 88.1014C174.014 88.8189 174.579 89.418 175.297 89.4395L175.296 89.4393C178.198 89.5252 180.575 89.7383 182.191 90.0184C182.898 90.1404 183.571 89.6663 183.693 88.959C183.815 88.2515 183.341 87.5789 182.634 87.4568C180.826 87.1448 178.363 86.9302 175.374 86.8404C174.656 86.8189 174.057 87.3836 174.036 88.1014Z"/><path id="Vector_44" d="M182.523 117.564C182.872 116.936 182.646 116.145 182.019 115.796C177.663 113.379 171.672 111.468 164.403 109.811C163.702 109.651 163.006 110.09 162.847 110.79C162.687 111.49 163.126 112.187 163.826 112.346C170.968 113.968 176.782 115.854 180.755 118.068C181.382 118.417 182.174 118.191 182.523 117.564Z"/><path id="Vector_45" d="M47.3371 87.7727C40.6799 86.9378 34.8974 86.5899 30.2209 86.5899C26.4765 86.5906 23.4467 86.8101 21.204 87.1966C20.4963 87.3186 20.0219 87.9915 20.1442 88.6992C20.2663 89.4068 20.9391 89.8811 21.6469 89.7591C23.6657 89.409 26.5832 89.189 30.2209 89.1897C34.7692 89.1897 40.4531 89.5293 47.0136 90.3526C47.7258 90.4419 48.3757 89.9368 48.4653 89.2246C48.5546 88.5122 48.0495 87.8623 47.3373 87.773L47.3371 87.7727Z"/><path id="Vector_46" d="M69.614 99.2513L69.6137 99.251C68.5681 99.045 67.5088 98.8614 66.438 98.6975C65.728 98.5889 65.0649 99.0765 64.9565 99.7864C64.8479 100.496 65.3354 101.159 66.0454 101.268C67.0818 101.426 68.1045 101.604 69.1115 101.802C69.8159 101.941 70.4992 101.482 70.6381 100.778C70.7768 100.073 70.3183 99.3899 69.614 99.2513Z"/><path id="Vector_47" d="M29.3868 112.753H29.3865C27.7744 113.273 26.3294 113.793 25.0906 114.305C23.8506 114.819 22.8203 115.32 22.0086 115.835C21.4026 116.22 21.2242 117.024 21.6097 117.63C21.9949 118.236 22.7986 118.414 23.4046 118.029C24.0105 117.641 24.9329 117.183 26.0845 116.708C27.2373 116.231 28.6228 115.731 30.1846 115.228C30.8677 115.007 31.243 114.275 31.0227 113.592C30.8023 112.908 30.0699 112.533 29.3868 112.753Z"/><path id="Vector_48" d="M66.2416 106.147H66.2413C62.7921 106.263 59.0057 106.621 55.1373 107.141C55.5162 104.685 55.9059 102.275 56.3038 99.9236C57.757 100.016 59.2042 100.128 60.6325 100.284C61.3461 100.361 61.9874 99.8457 62.0653 99.1321C62.143 98.4182 61.6273 97.7769 60.9137 97.6992L60.9135 97.699C59.5353 97.5491 58.1429 97.4395 56.747 97.347C57.0704 95.4876 57.3966 93.6663 57.7233 91.8824C61.3268 92.5574 64.9977 93.3631 68.4974 94.3438C69.1886 94.5374 69.9061 94.1341 70.1 93.4429C70.2936 92.7515 69.8903 92.034 69.1991 91.8404L69.1989 91.8401C65.6044 90.8335 61.8615 90.0125 58.1959 89.3257C58.8712 85.7115 59.5416 82.2608 60.1803 79.0128C60.2555 78.6299 60.1566 78.2376 59.9088 77.9361C59.661 77.6348 59.2951 77.462 58.9049 77.462H51.5143C50.7963 77.462 50.2142 78.044 50.2142 78.762C50.2142 79.4798 50.7963 80.0621 51.5143 80.0621V80.0618H57.3253C56.777 82.8621 56.2096 85.7996 55.6368 88.8646C54.6742 88.7 53.7081 88.533 52.7699 88.3882C52.0602 88.2789 51.3961 88.7654 51.287 89.4751C51.1776 90.1846 51.6642 90.8487 52.3739 90.958C53.2875 91.0989 54.2277 91.2615 55.1642 91.4217C54.819 93.3059 54.4747 95.2337 54.1329 97.2034C52.4176 97.1306 50.7001 97.0889 48.9913 97.0889C42.3568 97.0889 35.8637 97.5994 30.2094 98.3511C24.5529 99.1038 19.746 100.093 16.4396 101.076C15.7514 101.28 15.3593 102.004 15.5641 102.692C15.7687 103.38 16.4926 103.772 17.1808 103.568C20.2892 102.642 25.0055 101.665 30.5519 100.928C36.1007 100.19 42.4904 99.6888 48.9913 99.6888C50.5548 99.6888 52.1242 99.7269 53.6903 99.7884C53.2658 102.305 52.8502 104.887 52.4484 107.524C46.2467 108.469 39.9804 109.793 34.6664 111.21C33.9725 111.395 33.5602 112.107 33.7455 112.801C33.9306 113.495 34.643 113.907 35.3368 113.722C40.32 112.391 46.203 111.141 52.0455 110.221C51.1063 116.639 50.2626 123.367 49.6124 130.337C49.5455 131.052 50.0709 131.686 50.786 131.753C51.5009 131.819 52.1344 131.294 52.2013 130.579C52.8727 123.38 53.7516 116.432 54.7313 109.818C58.7951 109.25 62.7684 108.863 66.328 108.746C67.0453 108.722 67.6076 108.121 67.5839 107.403C67.56 106.686 66.9589 106.124 66.2416 106.147Z"/><path id="Vector_49" d="M41.6028 72.2071C40.8848 72.2071 40.3027 72.7891 40.3027 73.5071C40.3027 74.2249 40.8848 74.8069 41.6028 74.8069H66.7034C67.4211 74.8069 68.0032 74.2249 68.0032 73.5071C68.0032 72.7891 67.4211 72.2071 66.7034 72.2071H61.7639C63.79 62.7483 65.6223 55.3321 66.8293 50.6619L79.8049 64.0486C80.3047 64.564 81.1277 64.5769 81.6433 64.0772C82.1587 63.5774 82.1716 62.7544 81.6719 62.2388L67.2197 47.3287C66.72 46.8133 65.897 46.8003 65.3813 47.3001C65.2595 47.418 65.1709 47.5562 65.1055 47.7019C64.9546 47.8572 64.8274 48.0372 64.7686 48.2615L64.7683 48.2613C63.5708 52.812 61.4607 61.1599 59.105 72.2071H41.6028Z"/><path id="Vector_50" d="M138.651 69.7146L138.65 69.7117L138.651 69.7146Z"/><path id="Vector_51" d="M137.167 61.4693V61.4666L137.166 61.4644L137.167 61.4693Z"/><path id="Vector_52" d="M125.422 154.618C125.422 154.618 123.655 154.618 121.689 154.618C119.722 154.618 117.555 154.618 116.754 154.618C116.532 154.613 116.495 154.589 116.415 154.553C116.357 154.523 116.269 154.464 116.124 154.349C115.91 154.184 115.567 153.888 115.058 153.653C114.548 153.416 113.905 153.272 113.15 153.275C112.489 153.27 111.883 153.461 111.433 153.72C110.754 154.114 110.381 154.535 110.077 154.742C109.926 154.851 109.802 154.921 109.665 154.971C109.527 155.021 109.367 155.057 109.116 155.058C108.547 155.049 108.353 154.943 108.174 154.824C108.041 154.728 107.905 154.58 107.735 154.345C107.477 154.002 107.189 153.458 106.612 152.917C106.323 152.651 105.951 152.4 105.512 152.234C105.073 152.065 104.58 151.982 104.05 151.983L103.97 151.984V151.983C103.968 151.983 103.966 151.984 103.963 151.984L103.926 151.985V151.989C103.441 152.001 102.967 152.116 102.566 152.326C102.203 152.514 101.905 152.765 101.668 153.027C101.254 153.49 101.003 153.978 100.79 154.421C100.48 155.086 100.233 155.671 100.005 155.963C99.8928 156.112 99.8056 156.183 99.7329 156.224C99.6579 156.263 99.5832 156.295 99.386 156.298C99.1045 156.297 98.9172 156.25 98.7585 156.182C98.4895 156.064 98.2473 155.846 97.9812 155.449C97.5793 154.86 97.2426 153.947 96.7636 153.043C96.5173 152.591 96.2262 152.125 95.7757 151.714C95.3336 151.302 94.6792 150.977 93.967 150.941C93.832 150.932 93.6987 150.928 93.5686 150.928C93.0456 150.928 92.5639 150.999 92.1269 151.155C91.3518 151.421 90.7996 151.974 90.479 152.448C90.2302 152.807 90.0678 153.129 89.9192 153.383C89.6938 153.772 89.5354 153.977 89.2995 154.132C89.0625 154.284 88.6506 154.454 87.7444 154.457C86.6196 154.457 84.8518 154.457 83.3652 154.457C81.8784 154.457 80.6758 154.457 80.6731 154.457C79.9551 154.457 79.373 155.039 79.373 155.757C79.373 156.475 79.9551 157.057 80.6731 157.057C80.6758 157.057 81.8784 157.057 83.3652 157.057C84.8518 157.057 86.6196 157.057 87.7444 157.057C88.9985 157.061 89.9985 156.794 90.7541 156.287C91.3181 155.912 91.6985 155.436 91.9612 155.028C92.1596 154.719 92.3032 154.444 92.4265 154.232C92.6123 153.906 92.7395 153.755 92.8384 153.687C92.938 153.622 93.0718 153.535 93.5686 153.528L93.803 153.536L93.9656 153.589C94.0669 153.647 94.2934 153.912 94.5259 154.372C94.8899 155.054 95.2446 156.067 95.9118 157.028C96.2493 157.507 96.6867 157.983 97.2781 158.338C97.8667 158.695 98.5989 158.901 99.386 158.898C99.8952 158.899 100.39 158.793 100.817 158.589C101.574 158.228 102.048 157.632 102.369 157.098C102.845 156.288 103.108 155.506 103.388 155.061C103.522 154.837 103.639 154.716 103.712 154.665C103.79 154.617 103.823 154.592 104.009 154.583H104.031H104.05C104.531 154.595 104.641 154.676 104.796 154.784C104.91 154.872 105.047 155.029 105.221 155.279C105.485 155.644 105.804 156.221 106.431 156.759C106.744 157.024 107.138 157.263 107.594 157.42C108.05 157.579 108.56 157.658 109.116 157.658C109.821 157.661 110.453 157.495 110.952 157.244C111.703 156.864 112.14 156.391 112.446 156.164C112.599 156.045 112.709 155.978 112.803 155.939C112.899 155.901 112.983 155.877 113.15 155.875C113.558 155.877 113.769 155.934 113.916 155.992C114.133 156.075 114.284 156.216 114.709 156.54C114.918 156.694 115.199 156.877 115.553 157.011C115.906 157.145 116.319 157.22 116.754 157.218C118.356 157.218 125.422 157.218 125.422 157.218C126.14 157.218 126.722 156.636 126.722 155.918C126.722 155.2 126.14 154.618 125.422 154.618Z"/><path id="Vector_53" d="M189.831 170.422C188.986 170.415 188.229 170.658 187.672 171.021C187.252 171.29 186.943 171.596 186.695 171.859C186.324 172.26 186.07 172.551 185.847 172.702C185.62 172.85 185.447 172.942 184.945 172.952C184.427 172.939 184.263 172.838 184.035 172.661C183.869 172.521 183.688 172.293 183.487 171.98C183.18 171.517 182.862 170.873 182.274 170.246C181.979 169.935 181.601 169.634 181.135 169.424C180.669 169.211 180.13 169.099 179.561 169.101C178.709 169.095 177.966 169.299 177.397 169.618C176.97 169.853 176.651 170.124 176.393 170.349C176.002 170.694 175.748 170.923 175.431 171.083C175.115 171.24 174.694 171.377 173.878 171.381C173.16 171.381 172.578 171.963 172.578 172.681C172.578 173.399 173.16 173.981 173.878 173.981C174.882 173.983 175.704 173.81 176.37 173.514C176.869 173.295 177.265 173.015 177.576 172.762C178.042 172.375 178.33 172.085 178.57 171.943C178.812 171.802 179.005 171.71 179.561 171.7C179.782 171.701 179.917 171.734 180.022 171.775C180.198 171.846 180.348 171.964 180.563 172.242C180.888 172.648 181.217 173.372 181.834 174.12C182.146 174.49 182.557 174.865 183.09 175.135C183.621 175.406 184.258 175.554 184.945 175.552C185.805 175.558 186.569 175.323 187.141 174.962C187.571 174.696 187.89 174.387 188.145 174.12C188.525 173.712 188.783 173.412 188.999 173.262C189.22 173.115 189.364 173.033 189.831 173.022C190.549 173.022 191.131 172.44 191.131 171.722C191.131 171.004 190.549 170.422 189.831 170.422Z"/><path id="Vector_54" d="M161.253 176.318C161.945 176.129 162.354 175.414 162.165 174.722C162.106 174.507 162.09 174.356 162.09 174.244C162.093 174.072 162.118 173.984 162.182 173.84C162.271 173.628 162.521 173.314 162.833 172.804C163.141 172.301 163.453 171.548 163.445 170.648C163.445 170.442 163.431 170.228 163.401 170.006C163.301 169.225 163.035 168.563 162.695 168.052C162.18 167.283 161.607 166.869 161.298 166.533C161.137 166.365 161.028 166.226 160.945 166.075C160.863 165.922 160.797 165.751 160.756 165.471L160.755 165.467C160.735 165.331 160.728 165.218 160.728 165.123C160.73 164.904 160.76 164.778 160.81 164.635C160.88 164.424 161.053 164.159 161.289 163.702C161.521 163.253 161.757 162.589 161.75 161.806C161.751 161.45 161.709 161.069 161.621 160.659C161.465 159.916 161.201 159.301 160.874 158.815C160.379 158.081 159.82 157.682 159.504 157.381C159.178 157.068 159.031 156.911 158.866 156.428C158.649 155.743 157.918 155.364 157.234 155.581C156.549 155.798 156.17 156.529 156.387 157.213C156.589 157.862 156.91 158.392 157.25 158.786C157.768 159.38 158.223 159.683 158.478 159.967C158.735 160.255 158.916 160.491 159.078 161.2C159.133 161.457 159.15 161.653 159.15 161.806C159.149 162.028 159.118 162.158 159.068 162.302C158.997 162.514 158.826 162.777 158.59 163.232C158.358 163.68 158.121 164.342 158.128 165.123C158.128 165.353 158.146 165.593 158.183 165.843C158.286 166.591 158.565 167.231 158.906 167.713C159.427 168.439 159.97 168.823 160.267 169.16C160.421 169.327 160.53 169.473 160.619 169.646C160.706 169.819 160.78 170.026 160.824 170.347C160.839 170.461 160.845 170.56 160.845 170.649C160.842 170.899 160.803 171.045 160.736 171.21C160.639 171.454 160.418 171.743 160.117 172.211C159.971 172.445 159.812 172.728 159.69 173.073C159.567 173.416 159.489 173.817 159.49 174.244C159.49 174.615 159.546 175.003 159.656 175.406C159.845 176.098 160.56 176.507 161.253 176.318Z"/><path id="Vector_55" d="M158.185 165.844V165.843L158.184 165.839L158.185 165.844Z"/><path id="Vector_56" d="M49.2662 154.974C48.9012 155.242 48.7213 155.36 48.2171 155.439C47.5055 155.535 47.0059 156.189 47.1016 156.901C47.1971 157.612 47.8516 158.112 48.5633 158.016H48.5631C49.2374 157.928 49.8148 157.704 50.2616 157.438C50.9356 157.03 51.3123 156.633 51.6368 156.431C51.9642 156.228 52.2286 156.09 52.9552 156.052H52.9596L53.1031 156.049C53.5377 156.052 53.7489 156.116 53.9168 156.189C54.0435 156.246 54.1583 156.32 54.3158 156.442C54.5496 156.617 54.8709 156.925 55.3817 157.215C55.8912 157.506 56.5743 157.716 57.37 157.735L57.4107 157.736H63.0933C63.8111 157.736 64.3932 157.154 64.3932 156.436C64.3932 155.718 63.8111 155.136 63.0933 155.136H57.4449C57.056 155.12 56.8751 155.055 56.7132 154.979C56.5911 154.918 56.4701 154.835 56.3028 154.702C56.0548 154.51 55.7066 154.186 55.1656 153.906C54.6253 153.624 53.9227 153.444 53.1031 153.449L52.8587 153.454C52.0997 153.481 51.4498 153.634 50.9144 153.872C50.106 154.233 49.6173 154.715 49.2662 154.974Z"/><path id="Vector_57" d="M45.2825 145.564C45.0518 145.829 44.605 146.085 43.9985 146.566C43.7017 146.809 43.3787 147.12 43.0972 147.525C42.8142 147.929 42.5803 148.42 42.4248 148.989C42.2898 149.479 42.2244 149.938 42.2246 150.368C42.2234 150.837 42.3049 151.264 42.4146 151.62C42.5825 152.158 42.7805 152.533 42.8938 152.84C43.0095 153.151 43.075 153.389 43.0784 153.775C43.0784 153.902 43.0693 154.047 43.0474 154.218C42.9548 154.93 43.4573 155.582 44.1694 155.674C44.8813 155.767 45.5334 155.264 45.626 154.552C45.6609 154.282 45.6782 154.024 45.6782 153.775C45.6846 152.766 45.3657 151.986 45.1462 151.482C45.0354 151.225 44.9517 151.028 44.9014 150.861C44.8511 150.693 44.8257 150.555 44.8245 150.368C44.8247 150.198 44.8486 149.981 44.9316 149.679C45.0498 149.263 45.1841 149.053 45.3479 148.861C45.5872 148.574 46.0017 148.328 46.5913 147.877C46.8794 147.65 47.1995 147.361 47.4839 146.977C47.7693 146.593 48.0085 146.12 48.1636 145.574L48.1646 145.57C48.2918 145.122 48.3525 144.698 48.3521 144.303C48.3543 143.515 48.106 142.903 47.9558 142.516C47.7983 142.111 47.738 141.931 47.7358 141.668C47.7366 141.49 47.7676 141.244 47.9067 140.856C48.0728 140.401 48.2358 140.158 48.3989 139.971C48.6379 139.695 48.9585 139.51 49.4905 139.148C50.0107 138.797 50.687 138.203 51.1165 137.272C51.4241 136.623 51.1479 135.847 50.4995 135.54C49.8508 135.232 49.0754 135.508 48.7678 136.157H48.7676C48.6174 136.466 48.4866 136.617 48.3149 136.774C48.0671 137.009 47.6279 137.23 47.0388 137.691C46.4526 138.15 45.8367 138.899 45.4614 139.973C45.24 140.583 45.1353 141.148 45.136 141.668C45.1338 142.456 45.3816 143.069 45.5322 143.458C45.6902 143.863 45.75 144.043 45.7522 144.303C45.7517 144.438 45.7332 144.61 45.6633 144.86C45.5561 145.219 45.4414 145.386 45.2825 145.564Z"/><path id="Vector_58" d="M176.95 138.236C176.95 137.518 176.368 136.936 175.651 136.936H153.432C152.504 126.783 151.368 117.884 150.115 109.793C152.484 110.103 154.858 110.47 157.192 110.891C157.898 111.018 158.575 110.549 158.702 109.843C158.83 109.136 158.36 108.46 157.654 108.332C155.029 107.859 152.357 107.453 149.695 107.119C149.331 104.87 148.958 102.691 148.579 100.556C151.474 100.358 154.394 100.26 157.275 100.26C163.387 100.26 169.324 100.67 174.47 101.321C179.613 101.971 183.977 102.87 186.881 103.814C187.564 104.035 188.297 103.661 188.519 102.979C188.74 102.295 188.366 101.562 187.684 101.341C184.528 100.319 180.057 99.4092 174.797 98.7417C169.539 98.0762 163.503 97.6602 157.275 97.6602C154.244 97.6604 151.168 97.7664 148.114 97.9837C147.718 95.8262 147.316 93.7156 146.91 91.6502C154.505 90.2166 161.552 89.5533 167.956 89.4209C168.673 89.406 169.243 88.8123 169.228 88.0948C169.214 87.377 168.62 86.8069 167.902 86.8218C161.357 86.9568 154.156 87.6355 146.404 89.1001C145.506 84.6438 144.593 80.3606 143.686 76.1385C143.535 75.4363 142.844 74.9895 142.142 75.1404C141.44 75.291 140.993 75.9822 141.144 76.6844V76.6841C142.049 80.8982 142.958 85.1634 143.851 89.594C140.858 90.2188 137.787 90.9612 134.637 91.843C133.945 92.0366 133.542 92.7539 133.736 93.4456C133.929 94.137 134.646 94.5406 135.338 94.347V94.3467C138.422 93.4832 141.428 92.7559 144.357 92.1438C144.746 94.1211 145.131 96.1394 145.51 98.199C142.363 98.4964 139.258 98.9197 136.274 99.5078C135.569 99.6468 135.111 100.331 135.25 101.035C135.389 101.74 136.073 102.198 136.777 102.059C139.731 101.476 142.828 101.057 145.976 100.766C146.327 102.734 146.672 104.744 147.009 106.808C143.885 106.474 140.799 106.245 137.85 106.147C137.132 106.123 136.531 106.686 136.508 107.403C136.484 108.121 137.046 108.722 137.764 108.746H137.763C140.861 108.849 144.125 109.096 147.432 109.466C148.712 117.635 149.872 126.631 150.82 136.936H142.325C141.607 136.936 141.025 137.518 141.025 138.236C141.025 138.953 141.607 139.535 142.325 139.535H175.651C176.368 139.535 176.95 138.953 176.95 138.236Z"/><path id="Vector_59" d="M64.1399 178.111H42.1418C42.3794 176.074 42.7502 172.844 43.1421 169.609C43.6072 165.765 44.1062 161.907 44.4189 160.225C44.489 159.846 44.3867 159.454 44.1404 159.157C43.8938 158.861 43.5264 158.689 43.1409 158.689H37.7786C37.0605 158.689 36.4785 159.271 36.4785 159.989C36.4785 160.706 37.0605 161.289 37.7786 161.289L41.6106 161.288C41.301 163.334 40.925 166.297 40.561 169.297C40.1489 172.699 39.7585 176.108 39.5244 178.111H34.3391C33.6211 178.111 33.0391 178.693 33.0391 179.411C33.0391 180.129 33.6211 180.711 34.3391 180.711H64.1399C64.8577 180.711 65.4397 180.129 65.4397 179.411C65.4397 178.693 64.8577 178.111 64.1399 178.111Z"/><path id="Vector_60" d="M15.7532 54.5816V54.5813C15.7551 54.5813 16.1533 54.5813 17.7561 54.5813C18.4065 54.5826 18.772 54.6775 19.0163 54.7786C19.2011 54.857 19.3325 54.9431 19.49 55.0691C19.7256 55.25 20.0039 55.5662 20.5058 55.9058C21.0051 56.2476 21.74 56.4991 22.5578 56.4876C23.0583 56.4895 23.5471 56.3736 23.9602 56.1675C24.6914 55.8025 25.1496 55.2364 25.4914 54.7193C25.9971 53.9346 26.3262 53.1605 26.6592 52.7015C26.8205 52.4705 26.9641 52.3316 27.0708 52.2637C27.1816 52.1976 27.2495 52.1673 27.4436 52.1624C27.6489 52.1646 27.7563 52.1995 27.8606 52.2508C28.0334 52.335 28.2561 52.5545 28.4997 52.9825C28.8725 53.6148 29.1931 54.5902 29.7263 55.5389C29.9992 56.0125 30.3425 56.5001 30.8615 56.899C31.3747 57.3004 32.0857 57.5609 32.8274 57.553C33.7219 57.5623 34.519 57.2903 35.0908 56.8948C35.5224 56.6028 35.8327 56.2779 36.0901 56.004C36.4761 55.5853 36.748 55.2891 37.0549 55.1009C37.3625 54.9161 37.7295 54.7657 38.51 54.7591C39.7829 54.7591 41.3396 54.7723 42.5759 54.7855C43.8125 54.7986 44.7263 54.8118 44.7285 54.8118C45.4463 54.8221 46.0366 54.2486 46.0471 53.5308C46.0573 52.8128 45.4839 52.2225 44.7661 52.2122C44.7627 52.212 41.0888 52.1592 38.51 52.1592C37.4746 52.1556 36.6059 52.3797 35.924 52.7523C35.4131 53.0279 35.0215 53.369 34.7151 53.6749C34.2566 54.1409 33.9582 54.5059 33.7165 54.6822C33.5954 54.774 33.4951 54.8301 33.3684 54.8748C33.2417 54.9183 33.0801 54.9525 32.8274 54.9532C32.6633 54.9503 32.5972 54.9246 32.5173 54.8836C32.4492 54.846 32.3664 54.7818 32.2646 54.6622C32.0859 54.4566 31.875 54.0801 31.6638 53.6126C31.3364 52.911 31.0212 52.0259 30.438 51.1895C30.1435 50.7735 29.7636 50.3614 29.2512 50.0511C28.7419 49.7391 28.1062 49.5586 27.4436 49.5625C26.9377 49.5608 26.4467 49.6729 26.0271 49.8745C25.2844 50.2315 24.8061 50.7976 24.4543 51.3196C23.9326 52.1111 23.6018 52.8956 23.2722 53.3607C23.113 53.5945 22.9717 53.7347 22.875 53.7979C22.7734 53.8594 22.7273 53.8821 22.5578 53.8878C22.2031 53.8807 22.1133 53.8316 21.9861 53.7654C21.8916 53.7117 21.7688 53.6138 21.5823 53.4451C21.3061 53.1993 20.884 52.7918 20.24 52.4793C19.5957 52.1641 18.7773 51.9788 17.7561 51.9815C16.1533 51.9815 15.7551 51.9815 15.7532 51.9815C15.0351 51.9815 14.4531 52.5635 14.4531 53.2816C14.4532 53.9993 15.0351 54.5816 15.7532 54.5816Z"/><path id="Vector_61" d="M153.734 64.8589V64.8587C153.734 64.8587 156.762 64.8587 159.011 64.8587C160.252 64.8614 161.24 64.6189 162.009 64.1831C162.584 63.8604 163.007 63.4471 163.319 63.0794C163.785 62.5176 164.057 62.0957 164.284 61.9121C164.397 61.815 164.489 61.7571 164.633 61.7036C164.776 61.6521 164.985 61.6065 165.322 61.606L165.574 61.6145L165.583 61.615C165.935 61.6453 166.1 61.7259 166.368 61.9226C166.563 62.0713 166.788 62.3015 167.056 62.5925C167.459 63.0239 167.96 63.5991 168.716 64.0774C169.469 64.5588 170.475 64.886 171.678 64.8792H173.578C174.296 64.8792 174.878 64.2971 174.878 63.5794C174.878 62.8614 174.296 62.2796 173.578 62.2796L171.678 62.2793C170.985 62.2752 170.578 62.1399 170.229 61.9527C169.71 61.6758 169.286 61.1656 168.671 60.5147C168.361 60.1963 167.995 59.8482 167.508 59.5586C167.025 59.2683 166.417 59.0598 165.748 59.0203C165.597 59.01 165.454 59.0061 165.322 59.0061C164.808 59.0059 164.336 59.0708 163.908 59.2051C163.152 59.4351 162.579 59.8968 162.202 60.3199C161.913 60.6389 161.706 60.9341 161.52 61.1714C161.237 61.5327 161.029 61.7525 160.718 61.9263C160.405 62.0965 159.925 62.2564 159.011 62.2588C156.762 62.2588 153.739 62.2588 153.734 62.2588C153.016 62.2588 152.434 62.8408 152.434 63.5589C152.434 64.2766 153.016 64.8589 153.734 64.8589Z"/><path id="Vector_62" d="M165.746 59.0201L165.748 59.0203L165.754 59.0205L165.746 59.0201Z"/><path id="Vector_63" d="M85.0064 95.3924C85.2962 95.5777 85.6529 95.7359 86.1178 95.7403C86.2555 95.7405 86.398 95.71 86.5374 95.6761L86.5401 95.688C86.5648 95.6826 86.5877 95.6707 86.6121 95.6646C86.6241 95.6612 86.637 95.6629 86.6488 95.659L86.6471 95.6531C86.9764 95.5674 87.2931 95.4321 87.5638 95.2346C88.0191 94.9065 88.3233 94.4456 88.4874 93.9993C88.6544 93.5496 88.7059 93.107 88.7069 92.6853C88.7015 91.7796 88.4713 90.9405 88.1864 90.2447C88.0399 89.8958 87.8829 89.5894 87.6817 89.3047C87.578 89.1616 87.4671 89.0218 87.2896 88.8697C87.1993 88.7945 87.0907 88.7141 86.9359 88.6392C86.7823 88.566 86.5723 88.4944 86.304 88.4934C86.0924 88.4934 85.8538 88.5413 85.6217 88.6712C85.5155 88.7307 85.4227 88.8008 85.337 88.8872C85.1273 89.1035 85.0291 89.2764 84.9334 89.4424C84.7977 89.6883 84.7025 89.916 84.6307 90.0965C84.617 90.1311 84.6099 90.1521 84.5985 90.1824C83.9405 90.9439 83.6019 91.8333 83.6095 92.6519C83.6121 93.4605 83.8824 94.1607 84.2794 94.6983C84.4808 94.9681 84.7159 95.2024 85.0064 95.3924Z"/><path id="Vector_64" d="M119.327 88.8872C119.24 88.7654 119.143 88.6331 119.042 88.5039C118.939 88.3728 118.843 88.252 118.706 88.1133C118.619 88.0274 118.52 87.9529 118.413 87.8946C118.188 87.7669 117.915 87.719 117.74 87.7229C117.491 87.7234 117.291 87.7862 117.141 87.8538C116.86 87.9859 116.716 88.1285 116.591 88.2557C116.384 88.481 116.252 88.6963 116.123 88.9378C115.756 89.6529 115.462 90.597 115.453 91.6702C115.454 92.3189 115.572 93.034 115.974 93.7051C116.37 94.378 117.092 94.9334 117.959 95.1587C118.076 95.1907 118.179 95.2044 118.301 95.2044C118.838 95.1956 119.201 94.9849 119.48 94.7759C119.896 94.449 120.18 94.0464 120.405 93.5725C120.624 93.0991 120.766 92.5479 120.767 91.9402C120.78 91.0589 120.398 90.0569 119.599 89.2791C119.547 89.2022 119.448 89.0572 119.327 88.8872Z"/><path id="Vector_65" d="M104.85 97.2146C104.418 97.2168 103.792 97.1541 103.095 97.1524C102.626 97.1531 102.117 97.1819 101.585 97.3113C101.055 97.4397 100.492 97.6807 100.002 98.1009C99.3908 98.6204 98.9355 99.23 98.6465 99.8738C98.3557 100.518 98.2317 101.187 98.2324 101.822C98.238 103.081 98.6865 104.199 99.3025 105.061C99.6145 105.492 99.9721 105.864 100.391 106.158C100.81 106.445 101.303 106.68 101.929 106.687C102.167 106.688 102.426 106.647 102.678 106.549C103.31 106.301 103.755 105.853 104.075 105.387C104.554 104.678 104.821 103.871 105.004 103.033C105.183 102.197 105.263 101.33 105.263 100.524C105.263 100.273 105.247 100.037 105.231 99.8001C105.444 99.7876 105.661 99.7659 105.895 99.7122C106.594 99.5481 107.027 98.8489 106.864 98.1499C106.699 97.4507 106 97.0169 105.301 97.1809C105.238 97.1971 105.073 97.2159 104.85 97.2146ZM102.308 103.077C102.195 103.442 102.053 103.74 101.93 103.916L101.856 104.005C101.682 103.878 101.416 103.602 101.22 103.237C100.983 102.814 100.83 102.298 100.833 101.822C100.833 101.517 100.889 101.227 101.017 100.943C101.146 100.658 101.348 100.372 101.69 100.078C101.814 99.9732 101.966 99.8958 102.203 99.837C102.325 99.8064 102.47 99.7854 102.629 99.7715C102.651 99.9966 102.664 100.253 102.664 100.524C102.666 101.362 102.541 102.347 102.308 103.077Z"/></g></g></svg>