<svg xmlns="http://www.w3.org/2000/svg" width="200" height="200" fill="none"><path fill="#FFE632" d="M86.524 126.919a1.3 1.3 0 0 0-1.3-1.3h-18.18a1.3 1.3 0 1 0 0 2.6h18.18a1.3 1.3 0 0 0 1.3-1.3ZM103.724 178.543c-.003 0-4.7-.053-7.278-.053-.845-.006-1.588.197-2.147.568a3.795 3.795 0 0 0-.903.854c-.302.396-.457.607-.572.685a.664.664 0 0 1-.219.108c-.11.034-.284.066-.56.067a1.1 1.1 0 0 1-.434-.075c-.165-.07-.326-.201-.545-.505-.333-.445-.66-1.214-1.269-2a4.063 4.063 0 0 0-1.25-1.077 3.911 3.911 0 0 0-1.886-.452c-.445-.001-.877.1-1.245.269-.65.298-1.095.752-1.448 1.182-.523.651-.89 1.31-1.208 1.71a1.818 1.818 0 0 1-.353.37l-.042.024c-.35-.007-.411-.057-.484-.095a1.465 1.465 0 0 1-.273-.256c-.205-.217-.529-.639-1.103-.995-.576-.359-1.342-.565-2.25-.559h-3.54a1.3 1.3 0 1 0 0 2.6v-.001h3.54c.505.003.715.085.843.149.097.052.172.111.293.234.18.173.428.531.925.905.247.183.559.35.91.458.352.109.735.161 1.146.161a2.59 2.59 0 0 0 1.21-.302c.607-.326.983-.774 1.3-1.188.466-.628.822-1.251 1.149-1.629.16-.19.3-.311.396-.367.1-.056.139-.067.234-.07.25.001.41.039.537.087.213.086.384.224.608.517.34.433.66 1.175 1.227 1.949.288.384.665.783 1.181 1.084a3.585 3.585 0 0 0 1.831.471c.848.006 1.593-.195 2.154-.565.42-.272.707-.598.91-.855.304-.398.461-.612.574-.689a.648.648 0 0 1 .213-.107c.107-.032.277-.065.55-.065 1.273 0 3.088.013 4.581.026 1.494.014 2.665.027 2.668.027a1.3 1.3 0 0 0 .029-2.6ZM30.955 146.512c.368-.233.62-.5.803-.699.277-.31.41-.454.543-.531.13-.075.32-.171.89-.176h.962c.342 0 .677-.139.92-.381.241-.242.38-.577.38-.919 0-.343-.139-.677-.38-.919a1.31 1.31 0 0 0-.92-.381h-.962c-.81-.003-1.5.154-2.053.447a3.735 3.735 0 0 0-.945.721c-.334.354-.504.562-.599.621l-.144.073c-.067.02-.179.044-.377.044l-.222-.046c-.132-.054-.342-.209-.59-.491-.378-.416-.791-1.063-1.358-1.695a4.562 4.562 0 0 0-1.06-.89 3.09 3.09 0 0 0-1.571-.434c-.533 0-1.036.09-1.484.266-.792.307-1.352.858-1.738 1.375-.577.784-.902 1.535-1.228 1.949-.158.211-.29.329-.41.399-.122.066-.245.115-.524.119-.494-.005-.704-.089-.888-.188a2.22 2.22 0 0 1-.455-.367c-.27-.257-.618-.683-1.207-1.074-.589-.394-1.41-.66-2.363-.651-2.582 0-3.713.053-3.737.054a1.3 1.3 0 1 0 .124 2.597l.196-.008c.416-.014 1.508-.044 3.417-.044.486.006.69.088.872.187.136.077.273.189.453.367.27.259.622.687 1.215 1.078.592.393 1.415.657 2.373.649a3.689 3.689 0 0 0 1.443-.279c.769-.323 1.289-.879 1.65-1.387.538-.771.858-1.494 1.192-1.897.163-.205.303-.326.45-.405.148-.078.32-.137.649-.14l.187.041c.118.049.325.205.571.489.377.42.794 1.075 1.373 1.711a4.57 4.57 0 0 0 1.084.889c.441.255.996.429 1.587.426.724.007 1.39-.181 1.881-.5ZM191.218 143.81a1.306 1.306 0 0 0-.919-.38h-3.006c-.66-.002-.947-.101-1.088-.17a1.097 1.097 0 0 1-.306-.24c-.098-.097-.224-.242-.404-.422a3.566 3.566 0 0 0-1.223-.812c-.544-.214-1.177-.316-1.949-.315a3.04 3.04 0 0 0-1.213.247c-.64.277-1.079.707-1.424 1.1-.513.599-.879 1.168-1.222 1.502a1.709 1.709 0 0 1-.454.345 1.08 1.08 0 0 1-.488.106c-.567-.002-.788-.082-.892-.131a1.1 1.1 0 0 1-.275-.203c-.195-.173-.573-.581-1.2-.875-.626-.295-1.403-.443-2.442-.442h-2.593a1.3 1.3 0 1 0 0 2.6h2.593c.716 0 1.083.092 1.269.166.142.059.205.102.32.198.085.071.195.179.357.324.238.216.617.506 1.111.689.494.187 1.063.274 1.752.273a3.703 3.703 0 0 0 2.295-.783c.433-.333.757-.705 1.031-1.045.407-.514.723-.966.975-1.205.124-.121.22-.187.289-.22a.448.448 0 0 1 .211-.046c.654.001.933.099 1.071.168.106.055.171.106.304.24.098.098.226.245.407.425.269.27.686.603 1.231.811.545.213 1.181.315 1.957.315h3.006c.342 0 .677-.139.919-.381s.381-.577.381-.919c0-.343-.139-.677-.381-.92ZM86.38 39.25h2.594c.716 0 1.083.09 1.269.165.142.06.204.103.32.198.085.071.195.18.357.325a3.49 3.49 0 0 0 1.11.688c.494.187 1.064.274 1.752.274a3.706 3.706 0 0 0 2.295-.783c.433-.334.758-.705 1.032-1.046.406-.514.723-.966.975-1.204.123-.121.22-.187.289-.22a.445.445 0 0 1 .211-.047c.653.001.932.1 1.07.168.106.055.17.106.304.24.098.098.225.245.407.425.269.27.686.603 1.231.812.545.213 1.181.314 1.957.314h3.006c.342 0 .677-.139.919-.38.242-.243.381-.578.381-.92a1.31 1.31 0 0 0-.381-.92 1.31 1.31 0 0 0-.919-.38h-3.006c-.66-.001-.947-.1-1.088-.17a1.09 1.09 0 0 1-.306-.24c-.098-.097-.224-.242-.404-.422a3.565 3.565 0 0 0-1.223-.811C99.989 35.1 99.356 35 98.584 35a3.056 3.056 0 0 0-1.214.247c-.639.277-1.079.707-1.424 1.1-.512.6-.878 1.168-1.22 1.502-.17.17-.317.278-.455.345-.14.066-.27.104-.489.106-.566-.002-.787-.082-.892-.13a1.104 1.104 0 0 1-.274-.204c-.195-.172-.573-.58-1.2-.874-.626-.296-1.403-.443-2.442-.443H86.38a1.3 1.3 0 0 0 0 2.6ZM105.698 62.466h-.652a1.3 1.3 0 0 0 .008 2.6h.644c2.094 0 4.094.03 5.909.103.366.015.726-.128.982-.39 3.349-3.427 7.275-7.137 10.77-10.388 2.851-2.653 5.394-4.982 7.142-6.643.334.802.43 1.337.426 1.667-.008.438-.105.64-.335 1.092-.114.22-.263.49-.395.839a3.525 3.525 0 0 0-.234 1.256c-.001.482.1.99.298 1.522a3.92 3.92 0 0 0 .909 1.427c.53.52.985.778 1.233 1.017.25.244.389.395.538.942.049.198.063.338.063.439a.71.71 0 0 1-.058.299c-.052.14-.216.36-.463.768a3.431 3.431 0 0 0-.503 1.779c0 .217.021.442.06.672.112.7.421 1.3.777 1.73.543.647 1.082.97 1.373 1.255.151.14.249.256.322.378.072.124.13.26.168.497l.018.207a.713.713 0 0 1-.078.34c-.074.166-.287.411-.598.824a3.757 3.757 0 0 0-.455.79 2.934 2.934 0 0 0-.223 1.129c0 .357.062.725.18 1.095.232.745.71 1.327 1.226 1.716.78.588 1.63.83 2.338.968.709.133 1.29.146 1.542.147H147.261a1.3 1.3 0 1 0 0-2.6h-8.631c-.188.003-.913-.025-1.535-.217-.312-.093-.589-.226-.768-.364-.181-.144-.266-.26-.324-.433v-.003a.999.999 0 0 1-.059-.31.365.365 0 0 1 .055-.197c.067-.144.314-.415.638-.866a3.8 3.8 0 0 0 .454-.852c.128-.343.208-.743.206-1.167a3.92 3.92 0 0 0-.047-.604 3.88 3.88 0 0 0-.756-1.802c-.539-.688-1.11-1.036-1.415-1.323a1.787 1.787 0 0 1-.326-.36 1.042 1.042 0 0 1-.149-.41l-.001-.004a1.416 1.416 0 0 1-.023-.236.701.701 0 0 1 .057-.293c.052-.138.217-.361.465-.77.243-.4.511-1.04.502-1.783 0-.338-.046-.693-.139-1.065a4.41 4.41 0 0 0-.793-1.68c-.518-.658-1.075-.992-1.389-1.25-.328-.27-.445-.385-.584-.732-.113-.307-.135-.493-.136-.62a.922.922 0 0 1 .068-.343c.068-.197.253-.5.473-.967a4.374 4.374 0 0 0 .423-1.877c-.005-1.186-.434-2.54-1.498-4.426a1.3 1.3 0 0 0-1.772-.491c-.064.036-.105.094-.16.139-.123.06-.244.125-.347.226-1.588 1.564-4.659 4.365-8.162 7.625-3.371 3.136-7.14 6.7-10.45 10.064a156.55 156.55 0 0 0-5.44-.086ZM80.713 65.942c4.001-.262 11.152-.657 18.322-.811a1.3 1.3 0 0 0-.055-2.6c-7.229.157-14.405.553-18.437.816a1.3 1.3 0 1 0 .17 2.595ZM152.211 151.12h-.001a142.565 142.565 0 0 0-1.464-4.141 77.393 77.393 0 0 0-.704-1.829h6.063a1.3 1.3 0 1 0 0-2.6h-8.043a1.3 1.3 0 0 0-1.16 1.888c.157.308.381.818.624 1.419.736 1.812 1.681 4.485 2.219 6.09a1.3 1.3 0 0 0 2.466-.827ZM157.934 180.869a1.299 1.299 0 1 0-2.585.276c.289 2.703.508 5.357.644 7.892a1.3 1.3 0 0 0 2.597-.139l-.001-.001a153.754 153.754 0 0 0-.655-8.028ZM18.447 170.48H10.52a1.3 1.3 0 0 0 0 2.6h7.926a1.3 1.3 0 1 0 0-2.6ZM136.28 170.053h-5.363a1.3 1.3 0 1 0 0 2.6h5.363a1.3 1.3 0 0 0 0-2.6ZM122.395 125.106h-7.925a1.3 1.3 0 0 0 0 2.6h7.925a1.3 1.3 0 1 0 0-2.6ZM41.71 183.664h-6.717a1.3 1.3 0 0 0-1.297 1.2c-.08 1.059-.144 3.073-.196 4.033a1.3 1.3 0 1 0 2.597.14c.035-.678.077-1.813.123-2.773h5.49a1.3 1.3 0 0 0 0-2.6ZM178.566 88.959a1.3 1.3 0 0 0-1.059-1.502c-1.808-.312-4.271-.527-7.26-.617a1.3 1.3 0 1 0-.077 2.6c2.901.085 5.278.298 6.894.578a1.3 1.3 0 0 0 1.502-1.059ZM177.396 117.564a1.3 1.3 0 0 0-.504-1.768c-4.356-2.417-10.347-4.328-17.616-5.985a1.299 1.299 0 1 0-.577 2.535c7.143 1.622 12.956 3.508 16.929 5.722a1.3 1.3 0 0 0 1.768-.504ZM42.21 87.773c-6.657-.835-12.44-1.183-17.116-1.183-3.744 0-6.774.22-9.017.607a1.3 1.3 0 1 0 .443 2.562c2.019-.35 4.936-.57 8.574-.57 4.548 0 10.232.34 16.793 1.164a1.3 1.3 0 0 0 .323-2.58ZM64.487 99.251a75.667 75.667 0 0 0-3.176-.553 1.3 1.3 0 1 0-.393 2.57c1.037.158 2.06.336 3.067.534a1.3 1.3 0 0 0 .502-2.55ZM18.278 118.029c.606-.388 1.528-.846 2.68-1.321a55.14 55.14 0 0 1 4.1-1.48 1.3 1.3 0 0 0-.798-2.475 58.095 58.095 0 0 0-4.296 1.552c-1.24.514-2.27 1.015-3.082 1.53a1.3 1.3 0 1 0 1.396 2.194Z"/><path fill="#FFE632" d="M61.115 106.147c-3.45.116-7.236.474-11.105.994.38-2.456.769-4.866 1.167-7.217 1.453.092 2.9.204 4.328.36a1.3 1.3 0 0 0 .282-2.585c-1.379-.15-2.771-.26-4.167-.352.324-1.86.65-3.68.976-5.465 3.604.675 7.275 1.481 10.775 2.462a1.3 1.3 0 0 0 .701-2.504c-3.595-1.007-7.338-1.828-11.003-2.514.675-3.614 1.346-7.065 1.984-10.313a1.296 1.296 0 0 0-.271-1.077 1.296 1.296 0 0 0-1.004-.474h-7.39a1.3 1.3 0 1 0 0 2.6h5.81c-.548 2.8-1.115 5.738-1.688 8.803-.963-.165-1.929-.332-2.867-.477a1.3 1.3 0 1 0-.396 2.57c.913.14 1.854.303 2.79.464-.345 1.884-.69 3.812-1.031 5.781a121.393 121.393 0 0 0-5.142-.114c-6.634 0-13.127.51-18.782 1.262-5.656.753-10.463 1.742-13.77 2.725a1.299 1.299 0 1 0 .742 2.492c3.108-.926 7.825-1.903 13.37-2.64 5.55-.738 11.94-1.24 18.44-1.24 1.564 0 3.133.039 4.7.1-.425 2.517-.84 5.099-1.243 7.736-6.201.945-12.468 2.269-17.782 3.686a1.3 1.3 0 1 0 .67 2.512c4.984-1.331 10.867-2.581 16.71-3.501a387.306 387.306 0 0 0-2.433 20.116 1.3 1.3 0 1 0 2.588.242 386.778 386.778 0 0 1 2.53-20.761c4.064-.568 8.038-.955 11.597-1.072a1.3 1.3 0 0 0-.086-2.599ZM36.474 72.207a1.3 1.3 0 1 0 0 2.6h25.101a1.3 1.3 0 0 0 0-2.6h-4.939a532.154 532.154 0 0 1 5.065-21.545l12.976 13.387a1.3 1.3 0 0 0 1.867-1.81l-14.452-14.91a1.3 1.3 0 0 0-1.839-.029c-.121.118-.21.256-.276.402-.15.155-.278.335-.336.56-1.198 4.55-3.308 12.898-5.664 23.945H36.474ZM132.04 61.47v-.003l-.001-.003.001.005ZM133.524 69.715l-.001-.003.001.003ZM120.297 154.618h-8.668c-.222-.005-.259-.029-.339-.065a2.008 2.008 0 0 1-.291-.204c-.214-.165-.557-.461-1.066-.696-.51-.237-1.153-.381-1.908-.378a3.446 3.446 0 0 0-1.717.445c-.679.394-1.052.815-1.356 1.022a1.656 1.656 0 0 1-.412.229 1.54 1.54 0 0 1-.549.087c-.569-.009-.763-.115-.942-.234-.133-.096-.269-.244-.439-.479-.258-.343-.546-.887-1.123-1.428a3.43 3.43 0 0 0-1.1-.683 4.043 4.043 0 0 0-1.462-.251l-.08.001v-.001l-.007.001-.037.001v.004a3.12 3.12 0 0 0-1.36.337c-.363.188-.66.439-.898.701-.414.463-.665.951-.878 1.394-.31.665-.557 1.25-.785 1.542a.903.903 0 0 1-.272.261c-.075.039-.15.071-.347.074a1.53 1.53 0 0 1-.627-.116c-.27-.118-.512-.336-.778-.733-.402-.589-.738-1.502-1.217-2.406-.247-.452-.538-.918-.988-1.329a2.935 2.935 0 0 0-1.809-.773 5.996 5.996 0 0 0-.398-.013c-.523 0-1.005.071-1.442.227-.775.266-1.328.819-1.648 1.293-.249.359-.411.681-.56.935-.225.389-.384.594-.62.749-.237.152-.648.322-1.555.325h-7.071a1.3 1.3 0 1 0 0 2.6h7.072c1.254.004 2.254-.263 3.01-.77a4.24 4.24 0 0 0 1.206-1.259c.199-.309.342-.584.465-.796.186-.326.313-.477.412-.545.1-.065.234-.152.73-.159l.235.008.163.053c.1.058.327.323.56.783.364.682.719 1.695 1.386 2.656.337.479.775.955 1.366 1.31.589.357 1.32.563 2.108.56a3.32 3.32 0 0 0 1.431-.309c.757-.361 1.231-.957 1.552-1.491.476-.81.74-1.592 1.02-2.037.133-.224.25-.345.323-.396.078-.048.11-.073.297-.082H98.925c.48.012.591.093.746.201.114.088.251.245.425.495.264.365.583.942 1.21 1.48a3.65 3.65 0 0 0 1.163.661c.456.159.966.238 1.522.238a4.07 4.07 0 0 0 1.836-.414c.751-.38 1.188-.853 1.494-1.08.153-.119.263-.186.357-.225a.853.853 0 0 1 .347-.064c.408.002.619.059.767.117.216.083.367.224.792.548.209.154.49.337.844.471.354.134.766.209 1.201.207h8.668a1.3 1.3 0 1 0 0-2.6ZM173.879 171.381c-1.273 0-2.83-.013-4.066-.026-1.237-.013-2.151-.026-2.153-.026a1.3 1.3 0 0 0-.037 2.6c.003 0 3.677.052 6.256.052a1.3 1.3 0 1 0 0-2.6ZM153.056 165.844l-.001-.003v-.001l.001.004Z"/><path fill="#FFE632" d="M156.126 176.318a1.3 1.3 0 0 0 .912-1.596 1.798 1.798 0 0 1-.075-.478.883.883 0 0 1 .092-.404c.089-.212.339-.526.651-1.036.308-.503.62-1.256.612-2.156 0-.206-.014-.42-.044-.642a4.57 4.57 0 0 0-.706-1.954c-.516-.769-1.088-1.183-1.398-1.519a2.143 2.143 0 0 1-.353-.459 1.712 1.712 0 0 1-.189-.603l-.001-.004a2.353 2.353 0 0 1-.027-.343 1.36 1.36 0 0 1 .082-.488c.071-.211.243-.476.479-.933a4.09 4.09 0 0 0 .462-1.897 5.46 5.46 0 0 0-.129-1.147c-.156-.743-.42-1.358-.747-1.844-.494-.734-1.054-1.133-1.37-1.434-.326-.313-.473-.47-.638-.953a1.3 1.3 0 1 0-2.479.785c.202.649.524 1.179.863 1.573.518.594.974.897 1.228 1.181.257.288.438.524.6 1.233a2.9 2.9 0 0 1 .073.606 1.39 1.39 0 0 1-.083.495c-.071.212-.242.476-.478.932a4.072 4.072 0 0 0-.463 1.891c0 .229.018.469.055.717.103.749.382 1.39.724 1.872.521.726 1.064 1.11 1.361 1.447.155.168.263.313.352.486.087.173.161.38.205.701.015.113.021.213.021.301-.003.25-.042.397-.109.562-.097.244-.318.532-.619 1.001a4.35 4.35 0 0 0-.427.862 3.47 3.47 0 0 0-.2 1.171c0 .371.056.759.166 1.162a1.301 1.301 0 0 0 1.597.912ZM44.14 154.974c-.366.268-.546.386-1.05.465a1.3 1.3 0 0 0 .346 2.577 4.464 4.464 0 0 0 1.699-.578c.674-.408 1.05-.805 1.375-1.007.327-.203.592-.341 1.318-.379h.005l.143-.003c.435.003.646.067.814.14.127.057.241.131.399.253.234.175.555.483 1.066.773.51.291 1.192.501 1.988.52l.04.001h5.683a1.3 1.3 0 0 0 0-2.6h-5.648c-.39-.016-.57-.081-.732-.157a2.346 2.346 0 0 1-.41-.277c-.248-.192-.596-.516-1.137-.796-.54-.282-1.243-.462-2.063-.457l-.244.005c-.76.027-1.41.18-1.945.418-.808.361-1.297.843-1.648 1.102ZM40.156 145.564c-.231.265-.678.521-1.284 1.002-.297.243-.62.554-.902.959a4.71 4.71 0 0 0-.672 1.464c-.135.49-.2.949-.2 1.379-.002.469.08.896.19 1.252.168.538.366.913.479 1.22.116.311.181.549.184.935 0 .127-.009.272-.03.443a1.3 1.3 0 1 0 2.578.334c.035-.27.052-.528.052-.777.007-1.009-.312-1.789-.532-2.293a6.274 6.274 0 0 1-.245-.621 1.622 1.622 0 0 1-.077-.493c0-.17.025-.387.108-.689.118-.416.252-.626.416-.818.24-.287.654-.533 1.243-.984.288-.227.608-.516.893-.9.285-.384.525-.857.68-1.403v-.004c.128-.448.189-.872.188-1.267.002-.788-.246-1.4-.396-1.787-.158-.405-.218-.585-.22-.848 0-.178.032-.424.17-.812.167-.455.33-.698.493-.885.239-.276.56-.461 1.092-.823.52-.351 1.196-.945 1.626-1.876a1.3 1.3 0 0 0-2.35-1.115 1.82 1.82 0 0 1-.452.617c-.248.235-.687.456-1.276.917-.586.459-1.202 1.208-1.578 2.282-.221.61-.326 1.175-.325 1.695-.002.788.246 1.401.396 1.79.158.405.218.585.22.845 0 .135-.019.307-.089.557-.107.359-.222.526-.38.704ZM171.823 138.236a1.3 1.3 0 0 0-1.299-1.3h-22.22c-.928-10.153-2.063-19.052-3.316-27.143 2.369.31 4.743.677 7.077 1.098a1.3 1.3 0 0 0 .462-2.559 151.006 151.006 0 0 0-7.96-1.213 421.414 421.414 0 0 0-1.115-6.562 127.21 127.21 0 0 1 8.696-.297c6.112 0 12.049.41 17.195 1.061 5.143.65 9.507 1.549 12.411 2.493a1.3 1.3 0 1 0 .803-2.473c-3.156-1.022-7.627-1.932-12.887-2.6-5.258-.665-11.294-1.08-17.522-1.08-3.031 0-6.107.105-9.161.323a494.422 494.422 0 0 0-1.205-6.334c7.596-1.433 14.643-2.097 21.047-2.23a1.301 1.301 0 0 0-.054-2.598c-6.545.135-13.746.813-21.498 2.278-.898-4.456-1.811-8.74-2.718-12.962a1.3 1.3 0 1 0-2.542.546c.904 4.214 1.814 8.48 2.706 12.91a140.963 140.963 0 0 0-9.213 2.249 1.3 1.3 0 1 0 .701 2.504c3.084-.864 6.09-1.59 9.019-2.203.389 1.977.773 3.995 1.153 6.055-3.147.297-6.253.72-9.236 1.309a1.3 1.3 0 1 0 .503 2.551c2.954-.583 6.05-1.002 9.199-1.293.35 1.968.695 3.978 1.032 6.042a126.107 126.107 0 0 0-9.158-.661 1.299 1.299 0 1 0-.086 2.599h-.001c3.097.103 6.362.35 9.668.72 1.281 8.169 2.441 17.165 3.388 27.47h-16.826a1.3 1.3 0 1 0 0 2.599h41.658a1.3 1.3 0 0 0 1.299-1.299ZM59.013 178.111H37.015c.237-2.037.608-5.267 1-8.502.465-3.844.964-7.702 1.277-9.384a1.303 1.303 0 0 0-.279-1.068 1.303 1.303 0 0 0-1-.468h-5.361a1.3 1.3 0 1 0 0 2.6l3.832-.001c-.31 2.046-.686 5.009-1.05 8.009-.412 3.402-.802 6.811-1.036 8.814h-5.186a1.3 1.3 0 1 0 0 2.6h29.8a1.3 1.3 0 0 0 0-2.6ZM10.628 54.582h2.003c.65 0 1.016.096 1.26.197.185.078.316.164.474.29.236.181.514.497 1.016.837.5.342 1.234.593 2.052.582.5.002.99-.114 1.402-.32.731-.365 1.19-.932 1.531-1.449.506-.784.835-1.559 1.168-2.017.162-.231.305-.37.412-.438a.621.621 0 0 1 .373-.102.87.87 0 0 1 .417.089c.172.084.395.303.639.732.373.632.693 1.607 1.226 2.556.273.474.617.961 1.136 1.36a3.19 3.19 0 0 0 1.965.654c.895.01 1.692-.263 2.264-.658.431-.292.742-.617 1-.891.385-.419.657-.715.964-.903.308-.185.675-.335 1.455-.342 1.273 0 2.83.013 4.066.026 1.236.014 2.15.027 2.152.027a1.3 1.3 0 0 0 .038-2.6c-.003 0-3.677-.053-6.256-.053-1.035-.003-1.904.22-2.586.593a5.204 5.204 0 0 0-1.209.923c-.458.466-.757.83-.998 1.007a1.208 1.208 0 0 1-.349.193 1.617 1.617 0 0 1-.54.078.598.598 0 0 1-.31-.07.93.93 0 0 1-.253-.22c-.179-.206-.39-.583-.601-1.05-.328-.702-.643-1.587-1.226-2.423a4.004 4.004 0 0 0-1.187-1.139 3.45 3.45 0 0 0-1.807-.489 3.27 3.27 0 0 0-1.417.313c-.743.356-1.22.923-1.573 1.445-.521.791-.852 1.576-1.182 2.04-.159.234-.3.375-.397.438a.509.509 0 0 1-.317.09c-.355-.007-.445-.056-.572-.123a2.579 2.579 0 0 1-.404-.32c-.276-.246-.698-.653-1.342-.966-.644-.315-1.463-.5-2.484-.498h-2.003a1.3 1.3 0 1 0 0 2.6ZM148.607 64.955h5.277c1.287.007 2.353-.34 3.126-.917.58-.427.977-.94 1.277-1.399.443-.696.73-1.28.986-1.557.126-.143.221-.215.335-.27.114-.053.268-.1.562-.102.072 0 .157.003.252.012.058.008.083.012.175.076.157.104.445.468.732 1.009.446.806.895 1.932 1.622 2.963.368.515.821 1.018 1.425 1.405.601.388 1.36.63 2.175.625.5.001.98-.096 1.401-.27.745-.307 1.275-.815 1.678-1.3.601-.736 1.004-1.473 1.386-1.923.187-.227.354-.375.491-.457a.835.835 0 0 1 .444-.125l.028-.001h.045c.504.007.658.093.804.182.11.072.231.19.401.395.254.297.596.806 1.23 1.26.315.224.7.418 1.136.544.436.128.919.19 1.455.19a4.096 4.096 0 0 0 1.83-.407c.75-.375 1.188-.844 1.494-1.068.153-.117.263-.184.358-.223a.865.865 0 0 1 .351-.063c.404.001.608.06.751.118.211.083.366.231.79.567.209.16.49.35.847.49a3.3 3.3 0 0 0 1.217.218h3.541a1.3 1.3 0 1 0 0-2.6h-3.541c-.216-.005-.244-.028-.322-.064a1.937 1.937 0 0 1-.29-.21c-.214-.172-.555-.478-1.068-.724-.512-.248-1.164-.398-1.925-.395a3.472 3.472 0 0 0-1.711.437c-.678.39-1.052.807-1.356 1.011a1.67 1.67 0 0 1-.413.228 1.593 1.593 0 0 1-.553.086c-.599-.005-.846-.111-1.024-.215-.136-.082-.256-.192-.419-.38-.245-.273-.546-.746-1.129-1.209a3.488 3.488 0 0 0-1.071-.567 4.46 4.46 0 0 0-1.383-.201l-.129.002h-.029v.003c-.479.013-.94.12-1.338.303-.718.329-1.214.84-1.599 1.32-.571.73-.969 1.448-1.354 1.881-.188.218-.356.36-.505.44-.151.081-.282.124-.519.127a1.405 1.405 0 0 1-.616-.129c-.297-.136-.612-.43-.935-.908-.49-.711-.919-1.755-1.465-2.74-.28-.494-.593-.986-1.044-1.422-.443-.432-1.088-.807-1.838-.869a5.473 5.473 0 0 0-.483-.022 3.942 3.942 0 0 0-1.512.28c-.805.329-1.341.92-1.697 1.438-.272.395-.473.769-.664 1.088-.287.485-.539.822-.843 1.039-.306.213-.707.392-1.57.4h-5.277a1.3 1.3 0 1 0 0 2.6ZM79.88 95.392c.29.186.646.344 1.11.348.139 0 .281-.03.42-.064l.003.012c.025-.005.048-.017.072-.023.012-.004.025-.002.037-.006l-.002-.006a2.71 2.71 0 0 0 .917-.418 2.66 2.66 0 0 0 .923-1.236c.167-.45.219-.892.22-1.314-.005-.905-.236-1.745-.52-2.44a4.847 4.847 0 0 0-.505-.94 2.345 2.345 0 0 0-.392-.435 1.67 1.67 0 0 0-.354-.23 1.457 1.457 0 0 0-.632-.147c-.212 0-.45.048-.682.178-.107.06-.2.13-.285.216-.21.216-.308.39-.403.555a5.619 5.619 0 0 0-.303.655c-.014.034-.021.055-.032.085-.658.762-.997 1.651-.99 2.47.003.808.273 1.509.67 2.046.202.27.437.504.728.694ZM114.2 88.887a12.555 12.555 0 0 0-.284-.383 4.428 4.428 0 0 0-.337-.39 1.314 1.314 0 0 0-.293-.22 1.407 1.407 0 0 0-.672-.171c-.249 0-.45.063-.6.13a1.738 1.738 0 0 0-.55.403c-.207.225-.339.44-.468.682a6.145 6.145 0 0 0-.67 2.732c.001.649.119 1.364.521 2.035.396.673 1.118 1.228 1.985 1.454.117.032.22.045.342.045.537-.008.9-.22 1.179-.428.416-.327.7-.73.925-1.203a3.892 3.892 0 0 0 .362-1.633c.013-.881-.369-1.883-1.168-2.66-.052-.078-.15-.223-.272-.393ZM101.737 98.15a1.3 1.3 0 0 0-1.563-.97 2.173 2.173 0 0 1-.452.035c-.43.002-1.057-.06-1.754-.063-.469.001-.978.03-1.51.16a3.79 3.79 0 0 0-1.583.789 5.07 5.07 0 0 0-1.355 1.773 4.719 4.719 0 0 0-.414 1.948c.005 1.259.454 2.377 1.07 3.239.312.431.67.803 1.088 1.097.418.287.912.522 1.538.529.238.001.497-.04.75-.138.63-.248 1.075-.696 1.396-1.162.48-.709.745-1.516.929-2.354.179-.836.259-1.703.26-2.509-.001-.251-.017-.487-.033-.724a3.93 3.93 0 0 0 .664-.088 1.3 1.3 0 0 0 .969-1.562Zm-4.556 4.927c-.114.365-.255.663-.378.839l-.074.089a2.442 2.442 0 0 1-.637-.768c-.236-.423-.389-.939-.387-1.415.001-.305.057-.595.185-.879.129-.285.33-.571.673-.865.124-.105.276-.182.513-.241.122-.03.267-.052.426-.066.022.226.035.482.034.753.003.838-.122 1.823-.355 2.553Z"/><path fill="#BEBEC9" d="m110.181 65.067.644-.001c2.094 0 4.094.03 5.91.103.366.015.726-.128.982-.39 3.348-3.427 7.274-7.137 10.769-10.388 2.851-2.653 5.394-4.982 7.142-6.643.334.802.43 1.337.426 1.667-.008.438-.105.64-.335 1.092-.114.22-.263.49-.396.839a3.548 3.548 0 0 0-.233 1.256c-.001.482.1.99.298 1.522a3.92 3.92 0 0 0 .909 1.427c.53.52.985.778 1.233 1.017.25.244.389.395.538.942.049.198.063.338.063.439a.711.711 0 0 1-.058.299c-.052.14-.216.36-.463.768a3.43 3.43 0 0 0-.503 1.779c0 .217.021.442.06.672.112.7.421 1.3.777 1.73.543.647 1.082.97 1.373 1.255a1.7 1.7 0 0 1 .322.378c.072.124.13.26.168.497l.017.207a.702.702 0 0 1-.077.34c-.074.166-.287.411-.598.824a3.757 3.757 0 0 0-.455.79 2.934 2.934 0 0 0-.223 1.129c-.001.357.062.725.18 1.095.232.745.71 1.327 1.225 1.716.781.588 1.631.83 2.339.968.709.133 1.29.146 1.542.147H152.388a1.3 1.3 0 1 0 0-2.6h-8.631c-.188.003-.913-.025-1.535-.217-.312-.093-.589-.226-.768-.364-.181-.144-.266-.26-.324-.433v-.003a.999.999 0 0 1-.059-.31.365.365 0 0 1 .055-.197c.067-.144.314-.415.638-.866a3.8 3.8 0 0 0 .454-.852c.128-.343.208-.743.206-1.167 0-.197-.016-.398-.047-.604a3.88 3.88 0 0 0-.756-1.802c-.539-.688-1.11-1.036-1.415-1.323a1.787 1.787 0 0 1-.326-.36 1.04 1.04 0 0 1-.15-.41v-.004a1.417 1.417 0 0 1-.023-.236.701.701 0 0 1 .057-.293c.052-.138.217-.361.465-.77.243-.4.511-1.04.502-1.783 0-.338-.046-.693-.139-1.065a4.409 4.409 0 0 0-.793-1.68c-.518-.658-1.075-.992-1.389-1.25-.328-.27-.445-.385-.584-.732-.113-.307-.135-.493-.136-.62a.922.922 0 0 1 .068-.343c.068-.197.253-.5.472-.967a4.359 4.359 0 0 0 .424-1.877c-.005-1.186-.434-2.54-1.498-4.426a1.3 1.3 0 0 0-1.772-.491c-.064.036-.105.094-.16.139-.123.06-.244.125-.347.226-1.588 1.564-4.659 4.365-8.162 7.625-3.371 3.136-7.14 6.7-10.449 10.064a156.65 156.65 0 0 0-6.093-.085 1.3 1.3 0 0 0 .008 2.6ZM85.84 65.942c4.001-.262 11.152-.657 18.322-.811a1.301 1.301 0 0 0-.056-2.6c-7.228.157-14.404.553-18.436.816a1.3 1.3 0 1 0 .17 2.595ZM157.338 151.12a142.565 142.565 0 0 0-1.464-4.141 77.523 77.523 0 0 0-.703-1.829h6.062a1.3 1.3 0 1 0 0-2.6h-8.042a1.3 1.3 0 0 0-1.16 1.887c.157.309.38.819.624 1.42.735 1.812 1.68 4.485 2.218 6.09a1.3 1.3 0 0 0 2.465-.827ZM163.061 180.869a1.299 1.299 0 1 0-2.585.276c.289 2.703.508 5.357.644 7.892.038.717.65 1.267 1.368 1.228a1.298 1.298 0 0 0 1.228-1.367v-.001a153.754 153.754 0 0 0-.655-8.028ZM23.573 170.48h-7.925a1.3 1.3 0 0 0 0 2.6h7.925a1.3 1.3 0 1 0 0-2.6ZM127.522 125.106h-7.925a1.3 1.3 0 0 0 0 2.6h7.925a1.3 1.3 0 0 0 0-2.6ZM46.836 183.664H40.12a1.3 1.3 0 0 0-1.297 1.2c-.08 1.059-.144 3.073-.196 4.033a1.3 1.3 0 1 0 2.596.14c.036-.678.078-1.813.124-2.773h5.49a1.3 1.3 0 0 0 0-2.6ZM174.036 88.101a1.3 1.3 0 0 0 1.261 1.338h-.001c2.902.086 5.279.3 6.895.58a1.3 1.3 0 0 0 .443-2.562c-1.808-.312-4.271-.527-7.26-.617a1.3 1.3 0 0 0-1.338 1.261ZM182.523 117.564a1.3 1.3 0 0 0-.504-1.768c-4.356-2.417-10.347-4.328-17.616-5.985a1.299 1.299 0 1 0-.577 2.535c7.142 1.622 12.956 3.508 16.929 5.722a1.3 1.3 0 0 0 1.768-.504ZM47.337 87.773c-6.657-.835-12.44-1.183-17.116-1.183-3.744 0-6.774.22-9.017.607a1.3 1.3 0 1 0 .443 2.562c2.019-.35 4.936-.57 8.574-.57 4.548 0 10.232.34 16.793 1.164a1.3 1.3 0 0 0 .323-2.58ZM69.614 99.251a75.634 75.634 0 0 0-3.176-.553 1.3 1.3 0 1 0-.393 2.57c1.037.158 2.06.336 3.067.534a1.3 1.3 0 0 0 .502-2.55ZM29.387 112.753a58.112 58.112 0 0 0-4.296 1.552c-1.24.514-2.27 1.015-3.082 1.53a1.3 1.3 0 1 0 1.396 2.194c.605-.388 1.528-.846 2.68-1.321a55.128 55.128 0 0 1 4.1-1.48 1.3 1.3 0 0 0-.798-2.475Z"/><path fill="#BEBEC9" d="M66.242 106.147c-3.45.116-7.236.474-11.105.994.38-2.456.769-4.866 1.167-7.217 1.453.092 2.9.204 4.328.36a1.3 1.3 0 0 0 .282-2.585c-1.379-.15-2.771-.26-4.167-.352.323-1.86.65-3.68.976-5.465 3.604.675 7.275 1.481 10.774 2.462a1.3 1.3 0 0 0 .702-2.504c-3.595-1.007-7.337-1.828-11.003-2.514.675-3.614 1.346-7.065 1.984-10.313a1.296 1.296 0 0 0-.271-1.077 1.295 1.295 0 0 0-1.004-.474h-7.39a1.3 1.3 0 1 0 0 2.6h5.81c-.548 2.8-1.115 5.738-1.688 8.803-.963-.165-1.929-.332-2.867-.477a1.3 1.3 0 1 0-.396 2.57c.913.14 1.854.303 2.79.464-.345 1.884-.69 3.812-1.031 5.781a121.389 121.389 0 0 0-5.142-.114c-6.634 0-13.127.51-18.782 1.262-5.656.753-10.463 1.742-13.77 2.725a1.299 1.299 0 1 0 .742 2.492c3.108-.926 7.825-1.903 13.37-2.64 5.55-.738 11.94-1.24 18.44-1.24 1.564 0 3.133.039 4.7.1-.425 2.517-.84 5.099-1.243 7.736-6.201.945-12.468 2.269-17.782 3.686a1.3 1.3 0 1 0 .67 2.512c4.984-1.331 10.867-2.581 16.71-3.501a387.415 387.415 0 0 0-2.434 20.116 1.3 1.3 0 1 0 2.59.242 386.882 386.882 0 0 1 2.53-20.761c4.063-.568 8.036-.955 11.596-1.072a1.3 1.3 0 0 0-.086-2.599ZM41.603 72.207a1.3 1.3 0 1 0 0 2.6h25.1a1.3 1.3 0 0 0 0-2.6h-4.94a532.154 532.154 0 0 1 5.066-21.545l12.976 13.387a1.3 1.3 0 0 0 1.867-1.81L67.22 47.329a1.3 1.3 0 0 0-1.839-.029c-.121.118-.21.256-.275.402-.151.155-.279.335-.337.56-1.198 4.55-3.308 12.898-5.664 23.945H41.603ZM138.651 69.715l-.001-.003.001.003ZM137.167 61.47v-.003l-.001-.003.001.005ZM125.422 154.618h-8.668c-.222-.005-.259-.029-.339-.065a2.008 2.008 0 0 1-.291-.204c-.214-.165-.557-.461-1.066-.696-.51-.237-1.153-.381-1.908-.378a3.446 3.446 0 0 0-1.717.445c-.679.394-1.052.815-1.356 1.022a1.656 1.656 0 0 1-.412.229 1.54 1.54 0 0 1-.549.087c-.569-.009-.763-.115-.942-.234-.133-.096-.269-.244-.439-.479-.258-.343-.546-.887-1.123-1.428a3.43 3.43 0 0 0-1.1-.683 4.04 4.04 0 0 0-1.462-.251l-.08.001v-.001l-.007.001-.037.001v.004a3.12 3.12 0 0 0-1.36.337 3.206 3.206 0 0 0-.898.701c-.414.463-.665.951-.878 1.394-.31.665-.557 1.25-.785 1.542a.907.907 0 0 1-.272.261c-.075.039-.15.071-.347.074a1.53 1.53 0 0 1-.627-.116c-.27-.118-.512-.336-.778-.733-.402-.589-.738-1.502-1.217-2.406-.247-.452-.538-.918-.988-1.329a2.935 2.935 0 0 0-1.809-.773 5.996 5.996 0 0 0-.398-.013c-.523 0-1.005.071-1.442.227-.775.266-1.328.819-1.648 1.293-.249.359-.411.681-.56.935-.225.389-.384.594-.62.749-.237.152-.648.322-1.555.325h-7.071a1.3 1.3 0 1 0 0 2.6h7.072c1.254.004 2.254-.263 3.01-.77a4.239 4.239 0 0 0 1.206-1.259c.199-.309.342-.584.466-.796.185-.326.313-.477.411-.545.1-.065.234-.152.73-.159l.235.008.163.053c.1.058.327.323.56.783.364.682.719 1.695 1.386 2.656.337.479.775.955 1.366 1.31.589.357 1.32.563 2.108.56a3.32 3.32 0 0 0 1.431-.309c.757-.361 1.231-.957 1.552-1.491.476-.81.739-1.592 1.019-2.037.134-.224.251-.345.324-.396.078-.048.111-.073.297-.082H104.05c.481.012.591.093.746.201.114.088.251.245.425.495.264.365.583.942 1.21 1.48a3.65 3.65 0 0 0 1.163.661c.456.159.966.238 1.522.238a4.07 4.07 0 0 0 1.836-.414c.751-.38 1.188-.853 1.494-1.08.153-.119.263-.186.357-.225a.853.853 0 0 1 .347-.064c.408.002.619.059.766.117.217.083.368.224.793.548.209.154.49.337.844.471a3.37 3.37 0 0 0 1.201.207h8.668a1.3 1.3 0 1 0 0-2.6ZM189.831 170.422c-.845-.007-1.602.236-2.159.599a5.13 5.13 0 0 0-.977.838c-.371.401-.625.692-.848.843-.227.148-.4.24-.902.25-.518-.013-.682-.114-.91-.291-.166-.14-.347-.368-.548-.681-.307-.463-.625-1.107-1.213-1.734a3.642 3.642 0 0 0-1.139-.822 3.761 3.761 0 0 0-1.574-.323c-.852-.006-1.595.198-2.164.517a5.601 5.601 0 0 0-1.004.731c-.391.345-.645.574-.962.734-.316.157-.737.294-1.553.298a1.3 1.3 0 1 0 0 2.6c1.004.002 1.826-.171 2.492-.467a5.242 5.242 0 0 0 1.206-.752c.466-.387.754-.677.994-.819.242-.141.435-.233.991-.243.221.001.356.034.461.075.176.071.326.189.541.467.325.406.654 1.13 1.271 1.878.312.37.723.745 1.256 1.015a4.06 4.06 0 0 0 1.855.417c.86.006 1.624-.229 2.196-.59.43-.266.749-.575 1.004-.842.38-.408.638-.708.854-.858.221-.147.365-.229.832-.24a1.3 1.3 0 1 0 0-2.6ZM161.253 176.318a1.3 1.3 0 0 0 .912-1.596 1.798 1.798 0 0 1-.075-.478.883.883 0 0 1 .092-.404c.089-.212.339-.526.651-1.036.308-.503.62-1.256.612-2.156 0-.206-.014-.42-.044-.642a4.575 4.575 0 0 0-.706-1.954c-.515-.769-1.088-1.183-1.397-1.519a2.165 2.165 0 0 1-.353-.458 1.719 1.719 0 0 1-.189-.604l-.001-.004a2.355 2.355 0 0 1-.027-.344 1.36 1.36 0 0 1 .082-.488c.07-.211.243-.476.479-.933a4.095 4.095 0 0 0 .461-1.896 5.395 5.395 0 0 0-.129-1.147c-.156-.743-.42-1.358-.747-1.844-.495-.734-1.054-1.133-1.37-1.434-.326-.313-.473-.47-.638-.953a1.3 1.3 0 1 0-2.479.785c.202.649.523 1.179.863 1.573.518.594.973.897 1.228 1.181.257.288.438.524.6 1.233.055.257.072.453.072.606a1.377 1.377 0 0 1-.082.496c-.071.212-.242.475-.478.93a4.075 4.075 0 0 0-.462 1.891c0 .23.018.47.055.72a4.26 4.26 0 0 0 .723 1.87c.521.726 1.064 1.11 1.361 1.447.154.167.263.313.352.486.087.173.161.38.205.701.015.114.021.213.021.302a1.38 1.38 0 0 1-.109.561c-.097.244-.318.533-.619 1.001a4.35 4.35 0 0 0-.427.862 3.47 3.47 0 0 0-.2 1.171c0 .371.056.759.166 1.162a1.301 1.301 0 0 0 1.597.912Z"/><path fill="#BEBEC9" d="M158.185 165.844v-.001l-.001-.004.001.005ZM49.266 154.974c-.365.268-.545.386-1.049.465a1.3 1.3 0 0 0 .346 2.577 4.464 4.464 0 0 0 1.699-.578c.674-.408 1.05-.805 1.375-1.007.327-.203.592-.341 1.318-.379h.005l.143-.003c.435.003.646.067.814.14.127.057.241.131.399.253.234.175.555.483 1.066.773.51.291 1.192.501 1.988.52l.04.001h5.683a1.3 1.3 0 0 0 0-2.6h-5.648c-.389-.016-.57-.081-.732-.157a2.35 2.35 0 0 1-.41-.277c-.248-.192-.596-.516-1.137-.796-.54-.282-1.243-.462-2.063-.457l-.244.005c-.76.027-1.41.18-1.945.418-.808.361-1.297.843-1.648 1.102ZM45.282 145.564c-.23.265-.677.521-1.283 1.002-.297.243-.62.554-.902.959a4.709 4.709 0 0 0-.672 1.464c-.135.49-.2.949-.2 1.379-.002.469.08.896.19 1.252.168.538.366.913.479 1.22.116.311.181.549.184.935 0 .127-.009.272-.03.443a1.3 1.3 0 1 0 2.578.334c.035-.27.052-.528.052-.777.007-1.009-.312-1.789-.532-2.293a6.294 6.294 0 0 1-.245-.621 1.622 1.622 0 0 1-.077-.493c0-.17.025-.387.108-.689.118-.416.252-.626.416-.818.24-.287.654-.533 1.243-.984.288-.227.608-.516.893-.9a4.34 4.34 0 0 0 .68-1.403v-.004a4.63 4.63 0 0 0 .188-1.267c.002-.788-.246-1.4-.396-1.787-.158-.405-.218-.585-.22-.848 0-.178.032-.424.17-.812.167-.455.33-.698.493-.885.239-.276.56-.461 1.091-.823.52-.351 1.197-.945 1.627-1.876a1.3 1.3 0 0 0-2.35-1.115 1.82 1.82 0 0 1-.452.617c-.248.235-.687.456-1.276.917-.586.459-1.202 1.208-1.578 2.282-.221.61-.326 1.175-.325 1.695-.002.788.246 1.401.396 1.79.158.405.218.585.22.845 0 .135-.019.307-.089.557-.107.359-.222.526-.38.704ZM176.95 138.236a1.3 1.3 0 0 0-1.299-1.3h-22.219c-.928-10.153-2.064-19.052-3.317-27.143 2.369.31 4.743.677 7.077 1.098a1.3 1.3 0 0 0 .462-2.559 151.128 151.128 0 0 0-7.959-1.213 435.736 435.736 0 0 0-1.116-6.563c2.895-.198 5.815-.296 8.696-.296 6.112 0 12.049.41 17.195 1.061 5.143.65 9.507 1.549 12.411 2.493a1.3 1.3 0 0 0 .803-2.473c-3.156-1.022-7.627-1.932-12.887-2.6-5.258-.665-11.294-1.08-17.522-1.08-3.031 0-6.107.105-9.161.323a512.611 512.611 0 0 0-1.204-6.334c7.595-1.433 14.642-2.097 21.046-2.23a1.3 1.3 0 0 0-.054-2.598c-6.545.135-13.746.813-21.498 2.278a1027.79 1027.79 0 0 0-2.718-12.962 1.3 1.3 0 1 0-2.542.546c.905 4.214 1.814 8.48 2.707 12.91a141.145 141.145 0 0 0-9.214 2.249 1.3 1.3 0 1 0 .701 2.504c3.084-.864 6.09-1.591 9.019-2.203.389 1.977.774 3.995 1.153 6.055-3.147.297-6.252.72-9.236 1.309a1.3 1.3 0 1 0 .503 2.551c2.954-.583 6.051-1.002 9.199-1.293.351 1.968.696 3.978 1.033 6.042-3.124-.334-6.21-.563-9.159-.661a1.299 1.299 0 1 0-.086 2.599h-.001c3.098.103 6.362.35 9.669.72 1.28 8.169 2.44 17.165 3.388 27.47h-8.495a1.3 1.3 0 1 0 0 2.599h33.326a1.3 1.3 0 0 0 1.299-1.299ZM64.14 178.111H42.142c.237-2.037.608-5.267 1-8.502.465-3.844.964-7.702 1.277-9.384a1.304 1.304 0 0 0-.279-1.068 1.303 1.303 0 0 0-1-.468H37.78a1.3 1.3 0 1 0 0 2.6l3.832-.001c-.31 2.046-.686 5.009-1.05 8.009-.412 3.402-.803 6.811-1.037 8.814H34.34a1.3 1.3 0 1 0 0 2.6h29.8a1.3 1.3 0 0 0 0-2.6ZM15.753 54.582h2.003c.65 0 1.016.096 1.26.197.185.078.317.164.474.29.236.181.514.497 1.016.837.5.342 1.234.593 2.052.582.5.002.99-.114 1.402-.32.731-.365 1.19-.932 1.531-1.449.506-.784.835-1.559 1.168-2.017.162-.231.305-.37.412-.438a.621.621 0 0 1 .373-.102.87.87 0 0 1 .417.089c.172.084.395.303.639.732.372.632.693 1.607 1.226 2.556.273.474.617.961 1.136 1.36a3.19 3.19 0 0 0 1.965.654c.895.01 1.692-.263 2.264-.658.431-.292.742-.617 1-.891.385-.419.657-.715.964-.903.307-.185.675-.335 1.455-.342 1.273 0 2.83.013 4.066.026 1.236.014 2.15.027 2.152.027a1.3 1.3 0 0 0 .038-2.6c-.003 0-3.677-.053-6.256-.053-1.035-.003-1.904.22-2.586.593-.51.276-.902.617-1.209.923-.458.466-.757.83-.998 1.007a1.208 1.208 0 0 1-.349.193 1.617 1.617 0 0 1-.54.078.598.598 0 0 1-.31-.07.931.931 0 0 1-.253-.22c-.18-.206-.39-.583-.601-1.05-.328-.702-.643-1.587-1.226-2.423a4.006 4.006 0 0 0-1.187-1.139 3.45 3.45 0 0 0-1.807-.489 3.27 3.27 0 0 0-1.417.313c-.743.356-1.22.923-1.573 1.445-.521.791-.852 1.576-1.182 2.04-.159.234-.3.375-.397.438a.51.51 0 0 1-.317.09c-.355-.007-.445-.056-.572-.123a2.579 2.579 0 0 1-.404-.32c-.276-.246-.698-.653-1.342-.966-.644-.315-1.463-.5-2.484-.498h-2.003a1.3 1.3 0 1 0 0 2.6ZM153.734 64.859h5.277c1.241.002 2.229-.24 2.998-.676a4.809 4.809 0 0 0 1.31-1.104c.466-.561.738-.983.965-1.167.113-.097.205-.155.349-.208.143-.052.352-.098.689-.098l.252.008.009.001c.352.03.517.11.785.308.195.148.42.378.688.67.403.43.904 1.006 1.66 1.484.753.482 1.759.809 2.962.802h1.9a1.3 1.3 0 1 0 0-2.6h-1.9c-.693-.004-1.1-.14-1.449-.326-.519-.277-.943-.787-1.558-1.438-.31-.319-.676-.667-1.163-.956a3.886 3.886 0 0 0-1.76-.539 6.263 6.263 0 0 0-.426-.014c-.514 0-.986.065-1.414.2a3.8 3.8 0 0 0-1.706 1.114c-.289.319-.496.614-.682.851-.283.362-.491.581-.802.755-.313.17-.793.33-1.707.333h-5.277a1.3 1.3 0 1 0 0 2.6ZM165.746 59.02h.008-.008ZM85.006 95.392c.29.186.647.344 1.112.348.138 0 .28-.03.42-.064l.002.012c.025-.005.048-.017.072-.023.012-.004.025-.002.037-.006l-.002-.006a2.71 2.71 0 0 0 .917-.418c.455-.329.76-.79.923-1.236.167-.45.219-.892.22-1.314-.005-.905-.236-1.745-.52-2.44a4.842 4.842 0 0 0-.505-.94 2.34 2.34 0 0 0-.392-.435 1.667 1.667 0 0 0-.354-.23 1.459 1.459 0 0 0-.632-.147c-.212 0-.45.048-.682.178-.106.06-.2.13-.285.216-.21.216-.308.39-.404.555-.135.246-.23.474-.302.655-.014.034-.021.055-.032.085-.659.762-.997 1.651-.99 2.47.003.808.273 1.509.67 2.046.202.27.437.504.727.694ZM119.327 88.887a11.148 11.148 0 0 0-.285-.383 4.247 4.247 0 0 0-.336-.39 1.314 1.314 0 0 0-.293-.22 1.408 1.408 0 0 0-1.272-.04 1.738 1.738 0 0 0-.55.402c-.207.225-.339.44-.468.682a6.145 6.145 0 0 0-.67 2.732c.001.649.119 1.364.521 2.035.396.673 1.118 1.228 1.985 1.454.117.032.22.045.342.045.537-.008.9-.22 1.179-.428.416-.327.7-.73.925-1.203a3.892 3.892 0 0 0 .362-1.633c.013-.881-.369-1.883-1.168-2.66a20.367 20.367 0 0 0-.272-.393ZM104.85 97.215c-.432.002-1.058-.06-1.755-.063-.469.001-.978.03-1.51.16-.53.128-1.093.369-1.583.789a5.066 5.066 0 0 0-1.355 1.773 4.719 4.719 0 0 0-.415 1.948c.006 1.259.454 2.377 1.07 3.239.313.431.67.803 1.089 1.097.419.287.912.522 1.538.529.238.001.497-.04.749-.138.632-.248 1.077-.696 1.397-1.162.479-.709.746-1.516.929-2.354a12.15 12.15 0 0 0 .259-2.509c0-.251-.016-.487-.032-.724a3.93 3.93 0 0 0 .664-.088 1.3 1.3 0 0 0-.594-2.531 2.168 2.168 0 0 1-.451.034Zm-2.542 5.862c-.113.365-.255.663-.378.839l-.074.089a2.43 2.43 0 0 1-.636-.768c-.237-.423-.39-.939-.387-1.415 0-.305.056-.595.184-.879.129-.285.331-.571.673-.865.124-.105.276-.182.513-.241.122-.03.267-.052.426-.066.022.226.035.482.035.753.002.838-.123 1.823-.356 2.553Z"/></svg>