<svg xmlns="http://www.w3.org/2000/svg" width="200" height="200" fill="none"><path fill="#BEBEC9" d="M153.487 52.359a18.36 18.36 0 0 0 3.577-3.653 20.409 20.409 0 0 0 3.911-12.068 19.718 19.718 0 0 0-1.824-8.357 17.682 17.682 0 0 0-5.544-6.785 18.73 18.73 0 0 0-11.163-3.565 20.37 20.37 0 0 0-16.309 8 18.36 18.36 0 0 0-2.445 4.558 61.85 61.85 0 0 0-21.487-3.938 63.68 63.68 0 0 0-20.92 3.581 18.348 18.348 0 0 0-2.308-4.201 20.375 20.375 0 0 0-16.308-8 18.73 18.73 0 0 0-11.164 3.565 17.691 17.691 0 0 0-5.544 6.785 19.727 19.727 0 0 0-1.824 8.357 20.416 20.416 0 0 0 3.912 12.068 18.446 18.446 0 0 0 2.883 3.092A54.678 54.678 0 0 0 38.972 85.34c0 1.54.07 3.091.213 4.653a37.911 37.911 0 0 0 6.075 17.766c5.038 7.595 12.865 13.179 22.607 16.851 9.748 3.674 21.432 5.46 34.336 5.461 17.535-.003 32.818-3.842 44.014-10.942a1.296 1.296 0 0 0 .401-1.794 1.303 1.303 0 0 0-1.794-.401c-10.64 6.758-25.463 10.54-42.621 10.537-16.887.004-31.503-3.137-42.082-9.411a38.448 38.448 0 0 1-12.694-11.739 35.296 35.296 0 0 1-5.653-16.565 48.132 48.132 0 0 1-.202-4.416c-.002-15.18 7.158-29.218 18.347-39.484a63.17 63.17 0 0 1 42.284-16.705c15.864-.004 31.059 6.734 42.264 17.16 11.21 10.425 18.387 24.494 18.382 39.065 0 1.13-.044 2.263-.131 3.4a1.3 1.3 0 0 0 2.593.2c.092-1.204.138-2.404.138-3.6-.004-11.934-4.534-23.413-11.962-33.017Zm-95.325-8.42a64.095 64.095 0 0 0-5.597 5.84 15.85 15.85 0 0 1-2.425-2.615 17.82 17.82 0 0 1-3.405-10.526 17.13 17.13 0 0 1 1.579-7.254 15.088 15.088 0 0 1 4.73-5.794 16.13 16.13 0 0 1 9.623-3.06 17.791 17.791 0 0 1 14.215 6.943c.807 1.1 1.468 2.299 1.967 3.569A66.86 66.86 0 0 0 58.162 43.94Zm88.076.468a68.17 68.17 0 0 0-20.127-12.975 15.756 15.756 0 0 1 2.118-3.959 17.785 17.785 0 0 1 14.215-6.942 16.133 16.133 0 0 1 9.622 3.059 15.095 15.095 0 0 1 4.731 5.794 17.122 17.122 0 0 1 1.578 7.254 17.81 17.81 0 0 1-3.405 10.526 15.773 15.773 0 0 1-3.111 3.17 66.638 66.638 0 0 0-5.621-5.927Z"/><path fill="#BEBEC9" d="M93.367 68.36c.064-4.232-.769-8.43-2.442-12.318a15.985 15.985 0 0 0-2.95-4.458 9.475 9.475 0 0 0-4.116-2.587 11.45 11.45 0 0 0-3.214-.423 25.379 25.379 0 0 0-23.129 19.412 25.779 25.779 0 0 0-.602 5.392 17.559 17.559 0 0 0 2.727 9.745 16.198 16.198 0 0 0 5.483 5.193 17.809 17.809 0 0 0 8.825 2.202c3.95.013 7.82-1.12 11.14-3.262a16.862 16.862 0 0 0 7.172-10.032 35.874 35.874 0 0 0 1.106-8.863Zm-3.625 8.219a14.244 14.244 0 0 1-6.084 8.506 17.83 17.83 0 0 1-9.71 2.833 15.233 15.233 0 0 1-7.53-1.857l-.647 1.127.647-1.127a13.605 13.605 0 0 1-4.597-4.355 14.946 14.946 0 0 1-2.307-8.328c.01-1.63.193-3.256.545-4.848a22.797 22.797 0 0 1 20.586-17.356 8.887 8.887 0 0 1 2.482.318 6.881 6.881 0 0 1 2.98 1.9 15.654 15.654 0 0 1 3.388 6.172 29.613 29.613 0 0 1 1.272 8.797 33.27 33.27 0 0 1-1.025 8.218ZM146.711 67.986a25.383 25.383 0 0 0-23.128-19.412 11.452 11.452 0 0 0-3.214.423 9.475 9.475 0 0 0-4.117 2.587 18.182 18.182 0 0 0-3.999 7.198 32.172 32.172 0 0 0-1.393 9.578c-.002 2.99.37 5.967 1.108 8.864a16.856 16.856 0 0 0 7.17 10.032 20.415 20.415 0 0 0 11.14 3.262 17.807 17.807 0 0 0 8.825-2.202 16.191 16.191 0 0 0 5.483-5.192 17.547 17.547 0 0 0 2.726-9.745 25.739 25.739 0 0 0-.601-5.393Zm-4.305 13.72a13.594 13.594 0 0 1-4.597 4.355l.647 1.128-.647-1.128a15.233 15.233 0 0 1-7.531 1.857 17.828 17.828 0 0 1-9.709-2.833 14.243 14.243 0 0 1-6.083-8.506 33.251 33.251 0 0 1-1.026-8.219 27.48 27.48 0 0 1 2.205-11.233 13.43 13.43 0 0 1 2.455-3.735 6.884 6.884 0 0 1 2.982-1.9 8.88 8.88 0 0 1 2.481-.318 22.797 22.797 0 0 1 20.585 17.356c.352 1.592.534 3.218.544 4.849a14.946 14.946 0 0 1-2.306 8.328Z"/><path fill="#BEBEC9" d="M79.798 72.08c-5.144.074-8.899 4.355-8.058 6.832.691 2.038 3.928 2.02 8.058 1.945 4.13-.075 6.645.383 6.908-2.283.219-2.224-2.737-6.555-6.908-6.495Zm-.338 7.658a2.741 2.741 0 1 1-.001-5.482 2.741 2.741 0 0 1 0 5.482ZM124.624 72.08c-4.171-.061-7.128 4.27-6.908 6.494.262 2.666 2.778 2.208 6.908 2.284 4.13.075 7.366.092 8.057-1.946.841-2.477-2.914-6.758-8.057-6.833Zm.338 7.658a2.743 2.743 0 0 1-2.688-3.275 2.738 2.738 0 0 1 2.154-2.153 2.738 2.738 0 0 1 2.813 1.165 2.743 2.743 0 0 1-1.23 4.055 2.742 2.742 0 0 1-1.049.208ZM110.712 91.498l-.003-.002-.019.023a6.583 6.583 0 0 1-2.049 1.487 14.01 14.01 0 0 1-5.193 1.34c-.022-.549-.059-1.495-.095-2.601-.038-1.14-.074-2.439-.096-3.64 3.105-.87 6.394-4.885 6.223-7.632-.225-3.603-13.046-3.466-14.342-.374-.843 2.009 2.43 6.638 5.515 7.87.041 2.406.147 5.232.195 6.422a11.217 11.217 0 0 1-5.42-1.505 6.315 6.315 0 0 1-1.236-.984 3.579 3.579 0 0 1-.249-.286l-.043-.059-.003-.004-.003.002a1.298 1.298 0 0 0-2.189 1.397 7.504 7.504 0 0 0 2.35 2.142 14.343 14.343 0 0 0 7.704 1.927c.162 0 .324-.002.486-.006h.003a16.987 16.987 0 0 0 8.051-1.947 8.067 8.067 0 0 0 2.5-2.025 1.3 1.3 0 0 0-2.087-1.545Z"/><path fill="#FFE632" d="M31.617 97.813a4.81 4.81 0 0 0-1.333-1.652 11.714 11.714 0 0 0-3.223-1.805 21.248 21.248 0 0 0-4.331-1.15 22.03 22.03 0 0 0-3.466-.285 13.055 13.055 0 0 0-4.527.695 5.202 5.202 0 0 0-1.665.975 2.966 2.966 0 0 0-.958 1.673c-.001.006-.005.01-.006.016l-.768 4.25-.004.02a2.649 2.649 0 0 0-.034.431c.003.424.097.842.276 1.226a4.809 4.809 0 0 0 1.334 1.653c.972.768 2.06 1.377 3.223 1.804 1.399.535 2.85.92 4.33 1.15 1.148.186 2.308.281 3.47.285 1.537.037 3.07-.199 4.525-.695a5.212 5.212 0 0 0 1.664-.974c.504-.441.844-1.04.964-1.699l.002.001.67-3.868c0-.005-.002-.009 0-.013.043-.126.076-.255.1-.386l.001-.006c.022-.139.032-.279.033-.42a2.956 2.956 0 0 0-.277-1.226Zm-16.947-1.09v-.006c.005-.014.005-.064.152-.204a3.72 3.72 0 0 1 1.538-.682 12.257 12.257 0 0 1 2.904-.31c1.023.003 2.045.088 3.055.252 1.855.264 3.651.844 5.31 1.714.51.27.971.62 1.37 1.035.1.11.186.234.252.368l.043.15-.002.016c-.004.014-.005.064-.15.201a3.714 3.714 0 0 1-1.537.682c-.951.219-1.926.323-2.903.31a19.536 19.536 0 0 1-3.058-.252 16.4 16.4 0 0 1-5.31-1.714 5.371 5.371 0 0 1-1.37-1.035 1.56 1.56 0 0 1-.252-.368l-.043-.15v-.008Zm13.855 6.581c-.004.014-.004.064-.151.203a3.711 3.711 0 0 1-1.536.682c-.952.219-1.927.323-2.903.31a19.584 19.584 0 0 1-3.059-.252 16.417 16.417 0 0 1-5.31-1.714 5.384 5.384 0 0 1-1.369-1.035 1.564 1.564 0 0 1-.252-.368l-.043-.149v-.008l.19-1.055a12.44 12.44 0 0 0 2.81 1.496c1.4.535 2.851.92 4.331 1.15 1.147.186 2.307.281 3.47.285 1.35.019 2.695-.16 3.993-.531l-.168.97-.003.016ZM37.317 62.269l-.018-.02-2.92-3.182c-.008-.01-.02-.013-.03-.022a2.826 2.826 0 0 0-1.113-.738 3.833 3.833 0 0 0-1.312-.214A9.106 9.106 0 0 0 28 59.218a20.556 20.556 0 0 0-4.243 2.928 20.19 20.19 0 0 0-3.626 4.128c-.418.64-.77 1.32-1.048 2.031a5.653 5.653 0 0 0-.409 1.983 3.01 3.01 0 0 0 .71 2.027c.085.084.175.162.27.233.012.015.016.035.03.05l2.632 2.91h.002c.313.347.707.611 1.149.768.42.147.865.22 1.31.214a9.107 9.107 0 0 0 3.923-1.126 20.58 20.58 0 0 0 4.243-2.926 20.204 20.204 0 0 0 3.627-4.13c.418-.638.77-1.319 1.048-2.03a5.654 5.654 0 0 0 .409-1.983 3.013 3.013 0 0 0-.71-2.026Zm-15.803 6.959a14.579 14.579 0 0 1 3.963-5.131 17.991 17.991 0 0 1 3.695-2.557 6.726 6.726 0 0 1 2.752-.847c.144-.005.287.015.424.058l.098.055c.007.01.057.054.062.307a3.144 3.144 0 0 1-.24 1.06 14.582 14.582 0 0 1-3.963 5.132 17.994 17.994 0 0 1-3.695 2.556 6.726 6.726 0 0 1-2.751.847 1.28 1.28 0 0 1-.425-.057l-.098-.055c-.007-.012-.056-.054-.061-.308.018-.364.099-.723.24-1.06Zm13.674-3.873a14.587 14.587 0 0 1-3.963 5.133 18.006 18.006 0 0 1-3.695 2.555 6.727 6.727 0 0 1-2.751.847 1.286 1.286 0 0 1-.425-.058l-.098-.055-.01-.012-.654-.723c.756-.215 1.489-.503 2.19-.86a20.581 20.581 0 0 0 4.242-2.926 20.188 20.188 0 0 0 3.627-4.129c.394-.606.728-1.25.998-1.92l.718.782c.009.012.056.059.06.306a3.143 3.143 0 0 1-.239 1.06ZM164.727 101.3a10.824 10.824 0 0 1-2.369-.498 7.572 7.572 0 0 1-3.625-2.343 1.293 1.293 0 0 0-.869-.487 1.298 1.298 0 0 0-1.403 1.646c.047.165.125.318.232.452a10.193 10.193 0 0 0 5.006 3.251c.933.299 1.897.492 2.874.574a1.301 1.301 0 0 0 1.048-2.16 1.302 1.302 0 0 0-.894-.435Z"/><path fill="#FFE632" d="M180.757 96.71a4.408 4.408 0 0 0-1.12-1.932 5.274 5.274 0 0 0-1.8-1.214 7.335 7.335 0 0 0-2.827-.513 16.335 16.335 0 0 0-5.831 1.292 1.539 1.539 0 0 1-.524.127l-.041-.003-.044-.065a3.363 3.363 0 0 1-.225-1.414c.008-.603.06-1.204.158-1.8.04-.252.08-.463.11-.608l.034-.165.009-.039.002-.008a1.301 1.301 0 0 0-1.004-1.572 28.94 28.94 0 0 0-5.278-.48c-2.23-.041-4.45.303-6.563 1.017a5.938 5.938 0 0 0-2.552 1.633 3.46 3.46 0 0 0-.845 2.266c.013.682.185 1.352.503 1.956-.287.134-.564.289-.829.464a6.375 6.375 0 0 0-2.073 2.327 5.508 5.508 0 0 0-.513 1.34 1.29 1.29 0 0 0 .396 1.227c.021.02 1.096 1.002 2.584 2.103a25.842 25.842 0 0 0 2.478 1.64c.859.514 1.781.916 2.743 1.195a1.3 1.3 0 0 0 .661-2.515 9.223 9.223 0 0 1-2.111-.935 26.622 26.622 0 0 1-3.18-2.209 31.84 31.84 0 0 1-.757-.622c.115-.23.255-.448.415-.649a3.926 3.926 0 0 1 2.471-1.398 1.305 1.305 0 0 0 1.007-.888 1.298 1.298 0 0 0-.317-1.305v-.001s-.06-.061-.152-.173a4.127 4.127 0 0 1-.49-.738 1.905 1.905 0 0 1-.237-.82.839.839 0 0 1 .229-.583c.407-.41.911-.71 1.464-.874a16.874 16.874 0 0 1 5.668-.858c1.137.002 2.272.075 3.399.216l.107.015c-.086.61-.131 1.225-.137 1.84a5.948 5.948 0 0 0 .445 2.466c.201.451.516.843.914 1.136.453.32.996.488 1.551.481.503-.01 1-.112 1.466-.303a13.825 13.825 0 0 1 4.889-1.117 4.744 4.744 0 0 1 1.832.316 2.51 2.51 0 0 1 1.169.923l.022.036c-.54.876-1.162 1.7-1.856 2.46a10.253 10.253 0 0 1-2.197 1.842 5.14 5.14 0 0 1-2.513.798 1.3 1.3 0 0 0 .067 2.6 7.788 7.788 0 0 0 3.888-1.232 14.527 14.527 0 0 0 3.824-3.638c.516-.68.983-1.395 1.395-2.142.145-.277.187-.598.116-.903ZM196.679 159.303a1.278 1.278 0 0 0-.214-.342c.59-1.428.89-2.958.881-4.503 0-1.868-.381-3.716-1.118-5.432a11.127 11.127 0 0 0-2.773-3.881c.048-.47.072-.942.072-1.414a13.337 13.337 0 0 0-.591-3.988 10.372 10.372 0 0 0-2.705-4.41 12.498 12.498 0 0 0-4.838-2.782 18.959 18.959 0 0 0-4.39-.832 1.297 1.297 0 0 0-1.077 2.146c.225.261.545.422.888.447 1.284.088 2.552.328 3.779.713a9.904 9.904 0 0 1 3.839 2.185 7.755 7.755 0 0 1 2.024 3.316c.318 1.039.477 2.119.471 3.205 0 .418-.022.836-.068 1.252a8.87 8.87 0 0 1-.045.335l-.013.077-.003.014.001.001c-.048.24-.027.488.061.716.087.229.238.428.434.574a8.266 8.266 0 0 1 2.548 3.361 11.17 11.17 0 0 1 .904 4.397 8.757 8.757 0 0 1-.872 3.964 4.99 4.99 0 0 1-2.474 2.402 1.296 1.296 0 0 0-.791 1.211 1.306 1.306 0 0 0 .819 1.193 1.308 1.308 0 0 0 .997-.015 7.203 7.203 0 0 0 2.236-1.507c.16.764.24 1.542.242 2.323a13.56 13.56 0 0 1-2.016 7.05 9.696 9.696 0 0 1-2.167 2.472 6.695 6.695 0 0 1-1.344.826c.005-.132.016-.272.016-.396a9.616 9.616 0 0 0-.256-2.293 1.299 1.299 0 0 0-2.514.66h-.001c.118.536.176 1.084.171 1.633.01.934-.17 1.86-.529 2.723a5.671 5.671 0 0 1-2.296 2.601 9.374 9.374 0 0 1-4.8 1.336 13.039 13.039 0 0 1-3.521-.527 10.408 10.408 0 0 1-3.02-1.37 1.302 1.302 0 0 0-1.811.314 1.3 1.3 0 0 0 .314 1.811c.354.244.724.466 1.106.664a8.75 8.75 0 0 1-1.987 1.09 12.28 12.28 0 0 1-4.458.815 11.154 11.154 0 0 1-5.206-1.209 6.828 6.828 0 0 1-3.272-3.58 1.296 1.296 0 0 0-1.394-.818 1.304 1.304 0 0 0-.54.205 7.606 7.606 0 0 1-3.976.916 10.868 10.868 0 0 1-5.987-1.694 6.328 6.328 0 0 1-1.986-2.133 6.398 6.398 0 0 1-.766-3.168c0-.311.017-.622.049-.932a1.298 1.298 0 0 0-.874-1.364 7.005 7.005 0 0 1-3.876-3.028 8.793 8.793 0 0 1-1.176-4.559c.001-1.244.21-2.48.618-3.655a9.044 9.044 0 0 1 .891-1.848c.287.326.599.629.933.906a1.285 1.285 0 0 0 .954.287 1.304 1.304 0 0 0 1.161-1.429 1.295 1.295 0 0 0-.476-.875 6.912 6.912 0 0 1-1.813-2.389 7.758 7.758 0 0 1-.754-3.294 6.872 6.872 0 0 1 .936-3.48 7.053 7.053 0 0 1 2.784-2.863 6.602 6.602 0 0 1 3.135-.691c.457.001.912.028 1.366.079a1.288 1.288 0 0 0 .955-.279 1.296 1.296 0 0 0 .199-1.827 1.3 1.3 0 0 0-.873-.478c-.422-.046-.86-.064-1.301-.075a7.33 7.33 0 0 1 1.369-3.867 8.568 8.568 0 0 1 5.19-3.13 1.292 1.292 0 0 0 .814-.578 1.293 1.293 0 0 0 .164-.985 1.3 1.3 0 0 0-1.568-.969 11.17 11.17 0 0 0-6.692 4.119 9.995 9.995 0 0 0-1.905 5.635 8.303 8.303 0 0 0-2.061.744 9.646 9.646 0 0 0-3.825 3.86 9.475 9.475 0 0 0-1.287 4.785 10.364 10.364 0 0 0 1.003 4.406c.016.031.035.06.05.091a10.976 10.976 0 0 0-1.803 3.285 13.771 13.771 0 0 0-.764 4.515 11.375 11.375 0 0 0 1.552 5.907 9.499 9.499 0 0 0 4.335 3.777c-.001.065-.01.134-.01.199a9.001 9.001 0 0 0 1.094 4.43 9.495 9.495 0 0 0 4.544 3.992c1.799.781 3.74 1.18 5.701 1.173a11.579 11.579 0 0 0 4.101-.697 9.641 9.641 0 0 0 3.855 3.667 13.736 13.736 0 0 0 6.432 1.516 14.9 14.9 0 0 0 5.412-.996 10.656 10.656 0 0 0 3.643-2.345c1.33.361 2.702.546 4.08.55 2.258.034 4.48-.567 6.413-1.733a8.285 8.285 0 0 0 3.31-3.776c.064-.149.105-.295.159-.443a8.683 8.683 0 0 0 3.523-1.702 13.237 13.237 0 0 0 3.777-5.049 16.237 16.237 0 0 0 1.396-6.516 13.48 13.48 0 0 0-.824-4.725Z"/><path fill="#FFE632" d="M169.212 173.868a11.794 11.794 0 0 0 5.178-1.281 10.614 10.614 0 0 0 2.046-1.325 6.212 6.212 0 0 0 1.446-1.669 1.312 1.312 0 0 0 .121-.989 1.304 1.304 0 0 0-1.604-.902 1.304 1.304 0 0 0-.782.616 3.727 3.727 0 0 1-.85.951 8.752 8.752 0 0 1-2.485 1.406c-.98.378-2.02.579-3.07.593a4.978 4.978 0 0 1-3.25-1.056 1.297 1.297 0 0 0-1.83.174 1.297 1.297 0 0 0 .174 1.83 7.569 7.569 0 0 0 4.906 1.652ZM183.294 158.625a7.84 7.84 0 0 1-3.895 1.452 1.296 1.296 0 0 0-1.204 1.389 1.296 1.296 0 0 0 1.389 1.204 10.779 10.779 0 0 0 6.584-3.053 10.36 10.36 0 0 0 2.049-2.715 6.814 6.814 0 0 0 .807-3.076l-.006-.255a1.32 1.32 0 0 0-.121-.493 1.277 1.277 0 0 0-.301-.409 1.28 1.28 0 0 0-.434-.263 1.282 1.282 0 0 0-.995.045 1.292 1.292 0 0 0-.671.736 1.3 1.3 0 0 0-.076.502l.004.137a4.251 4.251 0 0 1-.522 1.892 8.312 8.312 0 0 1-2.608 2.907ZM167.656 161.38a9.985 9.985 0 0 0 4.895-1.651 7.857 7.857 0 0 0 3.201-4.655c.083-.334.03-.688-.147-.984a1.299 1.299 0 0 0-2.376.354 5.232 5.232 0 0 1-2.154 3.144 7.4 7.4 0 0 1-3.617 1.2 1.309 1.309 0 0 0-.889.449 1.29 1.29 0 0 0-.31.946 1.296 1.296 0 0 0 1.397 1.197ZM151.825 168.816a6.51 6.51 0 0 1-3.164-1.716 1.312 1.312 0 0 0-.905-.412 1.296 1.296 0 0 0-1.228.761 1.295 1.295 0 0 0-.034.994c.06.16.15.307.267.432a9.122 9.122 0 0 0 4.556 2.493c.827.205 1.673.319 2.524.339a1.302 1.302 0 0 0 .921-2.218 1.3 1.3 0 0 0-.919-.381v-.001a9.422 9.422 0 0 1-2.018-.291ZM176.607 137.814a8.173 8.173 0 0 1 3.142 1.816c.298.27.579.56.839.867.093.11.162.198.204.254l.045.06.007.01h.001a1.303 1.303 0 0 0 1.806.325 1.301 1.301 0 0 0 .33-1.806 10.479 10.479 0 0 0-1.485-1.636 10.75 10.75 0 0 0-4.161-2.386 1.292 1.292 0 0 0-1.378.434 1.3 1.3 0 0 0 .65 2.062ZM171.05 140.983c.074.164.136.332.187.504l.035.135.006.024h.001a1.303 1.303 0 0 0 1.517 1.033 1.299 1.299 0 0 0 1.037-1.514 5.853 5.853 0 0 0-.413-1.252 5.452 5.452 0 0 0-1.732-2.188 1.303 1.303 0 0 0-1.448-.061 1.298 1.298 0 0 0-.077 2.166c.389.302.695.699.887 1.153Z"/><path fill="#BEBEC9" d="M51.746 128.796a1.273 1.273 0 0 0-.306-.508 36.92 36.92 0 0 0-.275-4.076 13.354 13.354 0 0 0-.705-3.04 8.06 8.06 0 0 0-.932-1.757c.204-.281.466-.628.776-1.003a11.484 11.484 0 0 1 2.25-2.163 1.302 1.302 0 0 0-.467-2.355 1.301 1.301 0 0 0-.975.191 14.303 14.303 0 0 0-2.956 2.847c-.176.217-.335.423-.479.613-.083-.059-.15-.129-.238-.186a13.601 13.601 0 0 0-6.133-1.88 1.304 1.304 0 0 0-1.426 1.161 1.3 1.3 0 0 0 1.16 1.426 13.88 13.88 0 0 1 3.751.839 5.382 5.382 0 0 1 2.761 2.201 8.596 8.596 0 0 1 1.033 3.433c.179 1.408.27 2.827.271 4.246a20.637 20.637 0 0 1-1.815 9.172 8.231 8.231 0 0 1-2.43 2.952 7.032 7.032 0 0 1-3.706 1.295c-.286.02-.562.031-.829.03a6.523 6.523 0 0 1-4.716-1.64 4.79 4.79 0 0 1-1.45-3.455 4.674 4.674 0 0 1 1.57-3.536 7.472 7.472 0 0 1 4.75-2.163 3.607 3.607 0 0 1 1.71.406c.497.267.92.653 1.228 1.125a1.297 1.297 0 0 0 1.799.354 1.298 1.298 0 0 0 .365-1.796 5.983 5.983 0 0 0-2.173-1.979 6.215 6.215 0 0 0-2.93-.71 10.008 10.008 0 0 0-6.46 2.807 7.266 7.266 0 0 0-2.458 5.492c0 .122.011.244.017.366a1.24 1.24 0 0 0-.213.177 10.857 10.857 0 0 1-8.412 3.685c-.322 0-.648-.013-.978-.038a7.418 7.418 0 0 1-3.637-1.457 5.194 5.194 0 0 1-1.335-1.442 3.24 3.24 0 0 1-.482-1.686c.015-.665.19-1.317.51-1.901a5.928 5.928 0 0 1 2.293-2.539 12.034 12.034 0 0 1 4.67-1.201 20.66 20.66 0 0 0 2.682-.466 7.174 7.174 0 0 0 2.622-1.236 1.292 1.292 0 0 0 .5-.866 1.295 1.295 0 0 0-.263-.964 1.302 1.302 0 0 0-1.379-.454c-.165.047-.32.126-.454.232a5.478 5.478 0 0 1-2.408.935c-1.803.2-3.592.513-5.356.935a8.691 8.691 0 0 0-2.86 1.48 8.883 8.883 0 0 0-2.36 2.958 7.486 7.486 0 0 0-.58 1.501c-.377.024-.86.046-1.418.045a13.859 13.859 0 0 1-6.454-1.334 4.184 4.184 0 0 1-2.15-4.566 4.177 4.177 0 0 1 .738-1.633 7.6 7.6 0 0 1 2.968-2.377 8.416 8.416 0 0 1 3.787-.93c1.453.058 2.888.352 4.247.872 1.42.567 2.922.905 4.45 1.002.334.001.67-.026 1-.078a1.303 1.303 0 0 0 1.067-1.489 1.302 1.302 0 0 0-1.48-1.078c-.195.03-.39.046-.588.045a12.382 12.382 0 0 1-3.635-.872 15.847 15.847 0 0 0-5.061-1.002c-.174 0-.357.02-.535.029a1.276 1.276 0 0 0-.284-.324 5.838 5.838 0 0 1-1.465-1.591 3.663 3.663 0 0 1-.554-1.91 4.723 4.723 0 0 1 .829-2.524 3.874 3.874 0 0 1 1.595-1.43 5.654 5.654 0 0 1 2.521-.529c2.09-.006 4.866.874 7.926 2.965.215.147.433.288.656.42a1.297 1.297 0 0 0 1.951-.93 1.303 1.303 0 0 0-.621-1.304c-.168-.1-.341-.211-.52-.333-3.38-2.3-6.593-3.413-9.392-3.418a8.249 8.249 0 0 0-3.672.798 6.484 6.484 0 0 0-2.644 2.376 7.313 7.313 0 0 0-1.229 3.909 6.27 6.27 0 0 0 .925 3.248c.258.424.556.822.89 1.188-.446.16-.883.345-1.308.555a10.181 10.181 0 0 0-3.955 3.222 6.771 6.771 0 0 0-1.128 5.488 6.77 6.77 0 0 0 3.389 4.463 16.253 16.253 0 0 0 7.736 1.672c.494 0 .93-.015 1.304-.035.128.704.38 1.379.746 1.994a7.96 7.96 0 0 0 2.314 2.411 34.844 34.844 0 0 0-2.23 11.686 21.288 21.288 0 0 0 .79 5.94 15.083 15.083 0 0 0 5.51 8.051c2.943 2.2 7.06 3.691 12.665 4.113.752.057 1.48.085 2.185.085.25 0 .49-.012.733-.019-.29 1.955-.478 4.108-.597 5.929-.147 2.276-.19 3.999-.19 4.01a1.302 1.302 0 0 0 2.197.974 1.3 1.3 0 0 0 .403-.91l.008-.293c.021-.671.086-2.424.236-4.469.13-1.787.332-3.783.612-5.468a17.29 17.29 0 0 0 5.858-1.892 16.802 16.802 0 0 0 7.589-9.324 36.785 36.785 0 0 0 1.912-12.519 74.235 74.235 0 0 0-2.77-19.271Zm-3.12 34.11a12.951 12.951 0 0 1-4.86 4.724 16.403 16.403 0 0 1-8.012 1.818c-.637 0-1.3-.026-1.99-.077a25.208 25.208 0 0 1-8.449-1.943 12.848 12.848 0 0 1-6.453-5.901 16.715 16.715 0 0 1-1.659-7.668 30.58 30.58 0 0 1 1.088-7.718 33.51 33.51 0 0 1 .87-2.772c.76.29 1.555.476 2.364.552.397.031.79.046 1.178.046 3.46.044 6.81-1.219 9.38-3.537a7.329 7.329 0 0 0 1.465 2.028 9.115 9.115 0 0 0 6.528 2.376c.33 0 .67-.012 1.018-.037a9.636 9.636 0 0 0 5.046-1.785 12.128 12.128 0 0 0 4.197-6.256c.127-.394.222-.805.325-1.212a69.154 69.154 0 0 1 1.253 12.523c.007 5.438-.867 10.897-3.289 14.839Z"/><path fill="#FFE632" d="M42.3 117.08h.002l-.9-3.821c-.003-.016-.014-.027-.018-.042a2.668 2.668 0 0 0-.045-.364l-.11.028v-.001l.11-.027a2.88 2.88 0 0 0-.888-1.442 5.142 5.142 0 0 0-2.21-1.079 11.776 11.776 0 0 0-2.818-.308 20.757 20.757 0 0 0-4.936.646 19.082 19.082 0 0 0-5.881 2.467 8.25 8.25 0 0 0-1.904 1.689 3.597 3.597 0 0 0-.858 2.203c.002.203.026.404.073.601.002.009-.002.019 0 .029l.96 4.211.005.025c.145.559.455 1.061.888 1.441a5.117 5.117 0 0 0 2.209 1.079c.923.217 1.87.32 2.818.309a20.825 20.825 0 0 0 4.937-.646 19.103 19.103 0 0 0 5.881-2.467 8.27 8.27 0 0 0 1.904-1.689 3.6 3.6 0 0 0 .859-2.204c0-.215-.027-.429-.078-.638Zm-17.555-.645a7.438 7.438 0 0 1 2.315-1.734 19.341 19.341 0 0 1 8.363-2.077 7.851 7.851 0 0 1 2.695.389c.215.074.415.185.591.329.1.093.101.125.107.138l.003.028a1.136 1.136 0 0 1-.302.594 7.439 7.439 0 0 1-2.314 1.734 19.342 19.342 0 0 1-8.364 2.077 7.848 7.848 0 0 1-2.695-.389 1.916 1.916 0 0 1-.59-.329c-.1-.094-.102-.125-.107-.139l-.003-.027c.038-.224.143-.431.301-.594Zm14.731 1.878a7.438 7.438 0 0 1-2.314 1.734 19.347 19.347 0 0 1-8.365 2.077 7.845 7.845 0 0 1-2.695-.389 1.915 1.915 0 0 1-.59-.329c-.098-.092-.1-.123-.106-.137l-.236-1.039c.876.195 1.771.29 2.669.282a20.77 20.77 0 0 0 4.937-.645 19.1 19.1 0 0 0 5.88-2.467c.31-.21.606-.436.89-.679l.225.954.004.015.003.028a1.137 1.137 0 0 1-.302.595Z"/><path fill="#BEBEC9" d="M183.298 112.544a13.446 13.446 0 0 0-4.516-7.394 17.45 17.45 0 0 0-7.875-3.261 28.193 28.193 0 0 0-5.184-.502 18.268 18.268 0 0 0-7.668 1.464c-.169-.011-.328-.033-.51-.033a16.412 16.412 0 0 0-6.107 1.355 13.211 13.211 0 0 0-3.187 1.908 9.012 9.012 0 0 0-2.422 3.022 13.86 13.86 0 0 0-1.259 5.854 10.19 10.19 0 0 0 1.29 5.274 5.624 5.624 0 0 0 1.893 1.913 5.381 5.381 0 0 0 2.793.738c.028 0 .059-.007.087-.007.059.137.109.277.179.412.377.721.88 1.368 1.485 1.912-.102.122-.203.242-.309.391a6.538 6.538 0 0 0-1.187 3.803 8.885 8.885 0 0 0 .846 3.639 8.41 8.41 0 0 0 2.55 3.109 17.854 17.854 0 0 0 6.069 2.918 26.597 26.597 0 0 0 7.193 1.007c1.51.01 3.017-.146 4.493-.465a17.412 17.412 0 0 0 4.896-1.82 12.613 12.613 0 0 0 5.323-6.002 27.718 27.718 0 0 0 1.962-10.928c.003-.23.005-.455.005-.679a30.328 30.328 0 0 0-.84-7.628Zm-34.212 7.367a3.525 3.525 0 0 1-1.397-1.829 8.76 8.76 0 0 1-.519-3.125 11.337 11.337 0 0 1 1.001-4.726 6.414 6.414 0 0 1 1.736-2.145 11.764 11.764 0 0 1 3.967-2.043c.04-.013.079-.021.12-.033a7.93 7.93 0 0 0-1.764 4.813 6.27 6.27 0 0 0 .859 3.175 7.117 7.117 0 0 0-1.055.78 5.504 5.504 0 0 0-1.672 2.79c-.2.795-.304 1.61-.31 2.43 0 .082.01.166.012.248a2.598 2.598 0 0 1-.978-.335Zm32.447.906c-.079 5.854-1.185 9.573-2.9 11.943a9.637 9.637 0 0 1-3.08 2.766 14.862 14.862 0 0 1-4.171 1.539 18.086 18.086 0 0 1-3.923.401c-2.89 0-5.755-.536-8.449-1.581a13.147 13.147 0 0 1-3.206-1.788 5.856 5.856 0 0 1-1.785-2.129 6.3 6.3 0 0 1-.618-2.576 3.92 3.92 0 0 1 .712-2.304c.108-.153.228-.297.358-.431.307.15.625.294.965.424a26.365 26.365 0 0 0 9.379 1.363c.475 0 .965-.006 1.469-.02a1.297 1.297 0 0 0 .861-2.242 1.297 1.297 0 0 0-.929-.356c-.483.012-.95.018-1.401.019-5.156.006-8.295-.853-9.995-1.964a4.678 4.678 0 0 1-1.697-1.785 4.514 4.514 0 0 1-.472-2.098 7.777 7.777 0 0 1 .237-1.816 2.889 2.889 0 0 1 .901-1.486 7.31 7.31 0 0 1 3.306-1.496 22.93 22.93 0 0 1 4.972-.473c1.682.008 3.362.113 5.031.314a1.3 1.3 0 1 0 .304-2.582 46.18 46.18 0 0 0-5.335-.332c-2.215-.04-4.425.24-6.56.831a3.616 3.616 0 0 1-.677-2.135c-.006-1.856 1.27-4.133 4.068-5.485.014-.007.022-.019.035-.026.016-.009.034-.01.05-.019a14.917 14.917 0 0 1 6.74-1.305c1.579.006 3.154.159 4.704.457 1.687.282 3.325.802 4.866 1.543a9.737 9.737 0 0 1 4.59 4.699c1.058 2.222 1.656 5.294 1.655 9.485 0 .211-.002.426-.005.645Z"/></svg>