<svg xmlns="http://www.w3.org/2000/svg" width="200" height="200" fill="none"><path fill="#BEBEC9" d="m199.196 89.233-7.631-4.86 4.665-9.332a1.298 1.298 0 0 0-.464-1.678l-7.632-4.86 4.667-9.332a1.299 1.299 0 0 0-.465-1.678l-8.83-5.62a1.29 1.29 0 0 0-.322-.142l-4.628-2.948a1.306 1.306 0 0 0-1.045-.156 1.296 1.296 0 0 0-.816.67l-4.565 9.123-2.545-1.618a1.279 1.279 0 0 0-.324-.142l-4.626-2.937a1.303 1.303 0 0 0-1.86.515l-4.565 9.12-2.555-1.625a1.302 1.302 0 0 0-.296-.135l-.816-.517a1.297 1.297 0 0 0-1.328-.037c-.417.232 1.967 4.246 1.967 4.246l.274-.55 2.553 1.626a1.301 1.301 0 0 0 1.039.158c.283-.085.527-.265.693-.51.025-.032.061-.051.083-.087.007-.01.007-.02.012-.03.008-.014.021-.022.028-.035l.021-.04.005-.01 4.566-9.123 3.714 2.359 3.761 2.389a1.296 1.296 0 0 0 1.069.149 1.286 1.286 0 0 0 .809-.715h.001l4.565-9.12 3.714 2.365 2.912 1.852-4.667 9.34a1.299 1.299 0 0 0 .466 1.678l7.64 4.86-4.674 9.321a1.3 1.3 0 0 0 .464 1.68l7.631 4.86-4.122 8.245-2.555-1.62a1.305 1.305 0 0 0-.294-.134l-4.644-2.955a1.303 1.303 0 0 0-1.524.093 1.3 1.3 0 0 0-.336.422l-4.565 9.121-2.555-1.626a1.277 1.277 0 0 0-.274-.105l-4.677-2.975a1.296 1.296 0 0 0-1.524.093c-.141.116-.256.26-.337.423l-2.58 5.17a1.3 1.3 0 1 0 2.327 1.161l1.936-3.88 2.713 1.727-2.245 4.491a1.302 1.302 0 0 0 1.574 1.815c.327-.109.598-.344.752-.652h-.001l2.125-4.251 2.555 1.626c.087.046.179.081.274.106l4.676 2.975c.154.097.326.162.506.189.18.026.363.015.539-.033a1.31 1.31 0 0 0 .815-.671l4.567-9.124 2.554 1.62c.093.057.192.102.295.134l4.655 2.956a1.309 1.309 0 0 0 1.044.155 1.307 1.307 0 0 0 .815-.672l5.31-10.62a1.302 1.302 0 0 0-.464-1.678Zm-11.967-31.908 2.722 1.732-4.048 8.094-2.719-1.73 4.045-8.096Zm3.44 15.875 2.712 1.727-4.045 8.09-2.72-1.733 4.053-8.084Zm-11.929 30.81-2.714-1.727 4.04-8.073 2.714 1.727-4.04 8.073Zm13.929-4.93-2.723-1.728 4.144-8.288 2.72 1.733-4.141 8.284ZM37.358 66.44v-.04c0-.114-.015-.226-.044-.336l-.72-2.699a1.301 1.301 0 0 0-1.76-.863l-3.527 1.482-1.003-3.732a1.305 1.305 0 0 0-.553-.756L25 56.446a1.294 1.294 0 0 0-.582-.195c-.014-.004-.029-.005-.044-.008a1.296 1.296 0 0 0-.78.068l-8.74 3.67a1.298 1.298 0 0 0-.753 1.535l2.317 8.645-7.494 3.15a1.298 1.298 0 0 0-.752 1.536l2.325 8.644-7.504 3.15a1.298 1.298 0 0 0-.752 1.536l2.68 9.97c.04.112.094.217.162.314.101.288.3.53.56.687l4.821 2.86a1.308 1.308 0 0 0 1.167.08l3.527-1.483 1.003 3.732a1.31 1.31 0 0 0 .679.828c.084.042.173.074.265.096l4.55 2.923a1.3 1.3 0 0 0 1.206.104l3.527-1.482.553 2.061a1.295 1.295 0 0 0 1.087.952 1.309 1.309 0 0 0 .96-.258 1.297 1.297 0 0 0 .464-1.368l-.94-3.5-1.239-4.639a1.3 1.3 0 0 0-1.76-.863l-7.227 3.037-1.004-3.735-1.25-4.642a1.301 1.301 0 0 0-1.76-.86l-7.226 3.044-2-7.436 7.505-3.15a1.3 1.3 0 0 0 .752-1.537l-2.325-8.644 7.493-3.15a1.298 1.298 0 0 0 .752-1.535l-2.317-8.644 6.32-2.653 2.256 8.373a1.3 1.3 0 0 0 1.76.859l3.7-1.56 3.524-1.482.335 1.258.015-.004a1.282 1.282 0 0 0 1.241 1.01 1.3 1.3 0 0 0 1.3-1.3ZM25.71 104.27l-3.225 1.355-2.204-1.416 4.866-2.044.563 2.105Zm-11.233-6.2-3.249 1.366-2.308-1.37 4.99-2.101.567 2.106Zm11.715-37.77 1.731 1.111.965 3.59-1.283.541-1.413-5.242Z"/><path fill="#FFE632" d="m60.662 27.533 21.377-2.356a1.3 1.3 0 0 0-.285-2.585L60.378 24.95a1.3 1.3 0 0 0 .284 2.584M124.028 111.534a1.302 1.302 0 0 0-1.294 1.306l.064 12.75a1.302 1.302 0 0 0 1.306 1.294 1.303 1.303 0 0 0 1.294-1.307l-.064-12.75a1.306 1.306 0 0 0-.385-.917 1.306 1.306 0 0 0-.921-.376Z"/><path fill="#FFE632" d="M156.18 160.665a1.272 1.272 0 0 0 .107-.51l-.148-12.669-.104-8.834-.143-12.25-.115-9.747a1.298 1.298 0 0 0-2.229-.893 1.299 1.299 0 0 0-.37.923l.114 9.747.143 12.25.104 8.834.127 10.824-28.153-9.689-.061-12.073a1.299 1.299 0 1 0-2.599.013l.059 11.757-86.834 4.339.176-11.834a1.298 1.298 0 0 0-1.78-1.229 1.3 1.3 0 0 0-.82 1.191l-.196 13.22c0 .037.018.07.02.106.008.097.026.192.055.285.044.171.129.328.249.456.022.038.047.073.073.108.015.015.037.02.053.034.14.102.29.188.448.256.03.01.053.032.085.04l23.132 5.82-2.992 23.738c-.004.032.009.062.007.094-.005.106.003.211.024.315.008.053.02.106.034.158.038.11.09.213.156.308.02.031.032.067.056.096.09.116.2.215.324.294l7.472 4.669c.21.131.451.2.698.198l11.67-.083a1.3 1.3 0 0 0 1.24-.94 1.8 1.8 0 0 1 .134-.593l2.231-24.565 31.3-1.38-.016 20.732c0 .023.012.042.013.065.007.122.031.243.072.359.012.033.015.069.029.1.062.142.149.271.257.382.025.026.058.041.085.064.07.068.148.128.232.178l8.09 4.318c.216.116.46.168.704.15l11.854-.845a1.301 1.301 0 0 0 1.178-1.024c.02-.109.026-.221.016-.331.037-.115.057-.235.06-.356h-.001l-.852-24.748 23.396-1.024c.016-.001.028-.01.043-.011.149-.01.294-.046.43-.106.026-.012.048-.028.073-.041a.814.814 0 0 0 .318-.235c.016-.016.033-.027.048-.044a1.27 1.27 0 0 0 .224-.367Zm-95.732-1.546 8.497-.174-2.67 24.573-8.926.19 3.1-24.589Zm3.263 29.288-3.456-2.16 6.822-.146 3.534 2.257-6.9.049Zm10.254-.991-5.141-3.284 2.635-24.252 4.728 3.069-2.222 24.467Zm45.617-.239-3.889-2.077 6.877-.592 4.026 2.169-7.014.5Zm-7.07-4.412.019-25.281 8.577-.712.417 25.217-9.013.776Zm11.62-.369-.409-24.764 5.258 2.958.857 24.88-5.706-3.074Zm7.422-22.625a1.305 1.305 0 0 0-.662-1.088l-7.91-4.451a1.298 1.298 0 0 0-.745-.162l-11.112.922a1.296 1.296 0 0 0-.848.415 1.295 1.295 0 0 0-.344.879l-.004 4.56-31.09 1.371a1.289 1.289 0 0 0-.579-1.022l-7.195-4.67a1.293 1.293 0 0 0-.734-.209l-11.059.227a1.306 1.306 0 0 0-1.263 1.137l-.108.861-14.397-3.622 80.54-4.024 24.045 8.276-16.531.723-.004-.123ZM88.022 24.518l34.253-3.776.406 81.432a1.31 1.31 0 0 0 .385.917 1.306 1.306 0 0 0 .921.376 1.302 1.302 0 0 0 1.294-1.306l-.401-80.27 27.435 20.456.233 19.848.03 2.81.36 30.95a1.3 1.3 0 0 0 2.6-.03l-.36-30.95-.03-2.81-.24-20.49a1.308 1.308 0 0 0-.523-1.027l-30.04-22.4a1.3 1.3 0 0 0-.384-.19c-.026-.007-.051-.01-.076-.017a1.284 1.284 0 0 0-.406-.036c-.02.001-.037-.007-.057-.005l-35.685 3.933a1.3 1.3 0 1 0 .285 2.585ZM33.794 131.399a1.301 1.301 0 0 0 2.206.952 1.3 1.3 0 0 0 .394-.914l.195-13.17a1.299 1.299 0 0 0-2.205-.952c-.247.241-.39.569-.394.914l-.085 5.729-7.385 5.574-5.544-2.319 15.172-11.838a1.3 1.3 0 0 0-1.6-2.05L18.932 125.51l-2.533-6.059L29 109.553l3.4-2.67 1.777-1.396-.05 3.411a1.3 1.3 0 0 0 2.6.038h-.001l1.17-78.894 16.002-1.763a1.3 1.3 0 0 0-.285-2.585l-17.143 1.89a1.3 1.3 0 0 0-1.157 1.273l-1.087 73.284-3.432 2.697-3.4 2.67-13.38 10.51a1.298 1.298 0 0 0-.397 1.524l3.55 8.49a1.3 1.3 0 0 0 .698.698l8.34 3.489a1.301 1.301 0 0 0 1.285-.162l6.365-4.805-.062 4.147Z"/><path fill="#BEBEC9" d="m66.866 32.508-1.55-.85a1.306 1.306 0 0 0-.75-.153l-3.367.327c-.041.004-.075.026-.115.033l.023-13.682a1.297 1.297 0 0 0-.675-1.142l-1.55-.85a1.307 1.307 0 0 0-.75-.155l-3.367.327a1.3 1.3 0 0 0-1.174 1.288l-.072 14.157a1.297 1.297 0 0 0 .943 1.257l1.8.513c.164.047.335.062.505.042l3.164-.36c.032-.004.06-.023.091-.029l-.069 3.608a1.3 1.3 0 0 0 .943 1.275l1.8.515c.165.047.336.061.505.041l3.164-.36a1.298 1.298 0 0 0 1.152-1.283l.024-3.37a1.303 1.303 0 0 0-.675-1.148Zm-8.38-1.7-1.758.2-.604-.173.06-11.997 1.8-.175.522.286-.02 11.858Zm6.44 5.049-1.763.2-.591-.168.03-1.581 1.816-.177.518.284-.01 1.442ZM93.373 29.776l-1.493-.886a1.308 1.308 0 0 0-.799-.175l-2.29.24.024-14.175a1.298 1.298 0 0 0-.637-1.12l-1.492-.885a1.309 1.309 0 0 0-.8-.175l-3.24.34a1.3 1.3 0 0 0-1.165 1.287l-.069 14.75a1.3 1.3 0 0 0 .917 1.247l1.733.536c.176.053.36.07.543.048l2.067-.256-.065 3.669a1.303 1.303 0 0 0 .916 1.265l1.735.536c.175.053.36.07.542.047l3.045-.376a1.303 1.303 0 0 0 1.14-1.281l.024-3.51a1.305 1.305 0 0 0-.636-1.126Zm-7.18-1.784-1.63.201-.546-.169.059-12.62 1.654-.174.484.288-.02 12.474Zm5.2 5.26-1.635.203-.534-.165.031-1.769 1.67-.175.48.285-.012 1.622ZM75.815 82.432l-.103-1.296-2.267.18.03-1.669 1.022-.112.018 2.905 1.3-.008-.103-1.296.103 1.296 1.3-.008-.027-4.347a1.3 1.3 0 0 0-1.442-1.284l-3.593.395a1.298 1.298 0 0 0-1.157 1.269l-.076 4.245a1.302 1.302 0 0 0 1.402 1.32l3.695-.294a1.298 1.298 0 0 0 1.198-1.304l-1.3.008ZM54.855 55.398l-.103-1.296-2.505.2a1.298 1.298 0 0 0-1.197 1.284l-.185 21.918a1.3 1.3 0 0 0 1.403 1.307L62.532 78a1.301 1.301 0 0 0 1.197-1.3l-.074-25.469a1.3 1.3 0 0 0-1.443-1.288l-7.521.83a1.299 1.299 0 0 0-1.158 1.3l.022 3.334 1.3-.008-.103-1.296.103 1.296 1.3-.008-.014-2.162 4.918-.543.066 22.817-7.648.605.163-19.308 1.318-.105a1.298 1.298 0 0 0 1.197-1.304l-1.3.008ZM99.57 51.52l1.299-.009-.013-2.286 4.886-.538.069 23.518-8.043.637.171-19.89 1.733-.137a1.297 1.297 0 0 0 1.197-1.303l-1.3.007-.102-1.296-2.92.232a1.298 1.298 0 0 0-1.197 1.285l-.194 22.498a1.3 1.3 0 0 0 1.403 1.308l10.658-.844a1.301 1.301 0 0 0 1.197-1.3l-.077-26.17a1.288 1.288 0 0 0-.434-.966 1.298 1.298 0 0 0-1.008-.322l-7.489.825a1.298 1.298 0 0 0-1.157 1.3l.02 3.458 1.3-.008-.102-1.296.103 1.296Z"/><path fill="#BEBEC9" d="m81.207 87.673-.103-1.296-2.267.18.03-1.669 1.022-.113.018 2.906 1.3-.008-.103-1.296.103 1.296 1.3-.008-.027-4.348a1.3 1.3 0 0 0-1.443-1.284l-3.592.396a1.298 1.298 0 0 0-1.157 1.269l-.076 4.244a1.3 1.3 0 0 0 1.403 1.32l3.695-.293a1.299 1.299 0 0 0 1.197-1.305l-1.3.009Z"/><path fill="#BEBEC9" d="m86.27 81.492-.103-1.296-2.268.18.03-1.67 1.022-.112.019 2.906 1.3-.008-.103-1.296.103 1.296 1.3-.008-.028-4.348a1.3 1.3 0 0 0-1.442-1.284l-3.592.395a1.298 1.298 0 0 0-1.157 1.27l-.077 4.244a1.299 1.299 0 0 0 1.402 1.32l3.696-.293a1.299 1.299 0 0 0 1.198-1.304l-1.3.008ZM155.987 139.04a1.298 1.298 0 0 0-.793-1.167l-30.625-12.946a1.32 1.32 0 0 0-.586-.101l-89.002 5.429a1.3 1.3 0 0 0-1.221 1.283l-.102 9.283a1.295 1.295 0 0 0 .85 1.233c.167.062.345.089.523.079l88.828-4.949 30.567 11.624a1.293 1.293 0 0 0 1.212-.154 1.295 1.295 0 0 0 .549-1.092l-.2-8.522Zm-119.64-6.263 86.461-5.274.035 7.134-86.57 4.822.073-6.682Zm89.098 2.229-.035-6.901 27.998 11.836.135 5.749-28.098-10.684Z"/><path fill="#BEBEC9" d="m35.383 119.567 88.145-5.871 30.545 14.034a1.308 1.308 0 0 0 1.251-.091 1.295 1.295 0 0 0 .592-1.106l-.099-8.523a1.306 1.306 0 0 0-.718-1.147l-30.746-15.396a1.297 1.297 0 0 0-.676-.134l-88.373 6.358a1.3 1.3 0 0 0-1.206 1.283l-.1 9.282a1.302 1.302 0 0 0 1.385 1.311Zm89.945-7.905-.033-6.815 27.931 13.986.066 5.677-27.964-12.848Zm-88.644-1.463 86.007-6.188.035 7.132-86.114 5.737.072-6.681Z"/><path fill="#FFE632" d="M179.351 113.495a1.34 1.34 0 0 0-.053-.339 1.409 1.409 0 0 0-.07-.153 2.315 2.315 0 0 0-.388-.499l-10.299-7.61-4.73-3.5-8.801-6.5.002.001-1.47-1.09a1.297 1.297 0 0 0-.54-.234l-9.17-1.68c-.037-.007-.074.002-.111-.001a1.242 1.242 0 0 0-.188-.002c-.31.032-.602.158-.839.36a1.296 1.296 0 0 0-.238.326c-.01.02-.029.033-.039.054l-.008.018h-.001v.002l-5.052 10.999a1.306 1.306 0 0 0 .38 1.566l15.941 12.481 8.29 6.48c.064.046.132.085.203.119.016.008.026.023.042.031.006.003.014.002.02.005.113.053.234.089.357.108l10.15 1.41a1.304 1.304 0 0 0 1.356-.737l5.151-11.009c.002-.006.001-.012.004-.018.003-.006.008-.01.011-.017.061-.142.095-.294.102-.449.002-.042-.01-.081-.012-.122Zm-27.115-17.421 1.227.91.002.001 8.8 6.5 4.73 3.5 5.798 4.283-4.077-.741-2.153-1.633-.001-.001-4.71-3.56-6.77-5.111-6.332-4.787 3.486.639Zm-12.089 7.725 3.957-8.617 9.41 7.115 6.77 5.111 4.71 3.559-.002-.001 1.556 1.179-4.258 8.981-7.011-5.48-15.132-11.847Zm31.999 19.341-7.443-1.034 4.219-8.899 7.253 1.32-4.029 8.613Z"/></svg>