<svg xmlns="http://www.w3.org/2000/svg" width="200" height="200" fill="none"><path fill="#FFD93A" d="m17.145 94.06 22.138 33.017s-2.42-15.187-.832-25.386c0 0-2.947-1.964-3.172-5.743l-18.135-1.889ZM50.012 97.156c.227 1.89-.756 4.156-.756 4.156l3.25 15.566 5.213 4.835s12.694-.831 18.586.529l14.431-12.771 3.78 12.771s10.652-3.175 20.851-4.004c10.2-.832 14.13.075 14.13.075l-9.143-12.997-70.342-8.16ZM154.768 170.387l11.902 1.588-6.348-9.52s-1.135 3.628-5.554 7.932Z"/><path fill="#191C22" d="m78.637 135.861-.28-1.015-.165-.363-.4-.386-.668-.188c-.527.017-.768.25-.898.361-.235.238-.275.361-.346.489-.194.412-.32.87-.447 1.47-.12.589-.211 1.265-.212 1.951.001.472.04.948.185 1.433.144.473.416 1.016.987 1.388l.014.009c.168.104.415.212.737.214.398.004.754-.194.935-.371.325-.322.386-.557.466-.768.186-.611.218-1.258.227-2.096 0-.587-.031-1.238-.096-1.916l-.04-.212ZM59.714 135.439l-.207-1.032-.15-.392-.392-.415-.714-.217c-.544.023-.758.248-.886.349-.228.221-.278.341-.357.472-.227.427-.406.951-.58 1.614-.165.655-.3 1.398-.301 2.148.001.401.037.807.166 1.228.128.413.37.876.827 1.216l.005.004c.19.142.486.274.823.272a1.41 1.41 0 0 0 1.018-.446c.303-.339.37-.581.463-.839.23-.747.324-1.713.33-2.894 0-.285-.007-.58-.021-.882l-.024-.186ZM70.586 145.707a7.713 7.713 0 0 1-1.986-2.153 7.47 7.47 0 0 1-.438-.803l-.096-.217-.018-.048a1.246 1.246 0 0 0-.905-.802c-.42-.095-.856.03-1.16.336l-.214.205c-.408.394-1.404 1.274-2.089 1.656a1.252 1.252 0 1 0 1.239 2.177c.568-.329 1.106-.748 1.579-1.142a10.266 10.266 0 0 0 2.619 2.819 1.252 1.252 0 1 0 1.47-2.028ZM123.96 71.653l10.887 1.171a1.252 1.252 0 1 0 .268-2.49l-10.887-1.172a1.253 1.253 0 0 0-.268 2.49ZM118.601 83.264c.362.184.79.181 1.149-.007l3.244-1.7a1.252 1.252 0 0 0 .527-1.69 1.227 1.227 0 0 0-.907-.633l2.658-3.994a1.252 1.252 0 1 0-2.085-1.388l-3.454 5.19c-.271-.288-.657-.46-1.079-.398-.684.1-1.157.737-1.056 1.421h-.001l.333 2.265c.059.402.309.75.671.934ZM130.286 74.488l-3.568 5.359a1.24 1.24 0 0 0-.894-.217c-.684.1-1.157.737-1.057 1.421l.333 2.265a1.252 1.252 0 0 0 1.821.927l3.241-1.7a1.25 1.25 0 0 0-.662-2.355l2.871-4.312a1.252 1.252 0 1 0-2.085-1.388Z"/><path fill="#191C22" d="M145.828 66.755c-.018-.12-.016-.243-.07-.356a1.257 1.257 0 0 0-.994-.702l-24.382-2.62-1.3-14.913a1.247 1.247 0 0 0-.592-.958l-38.885-23.89a1.235 1.235 0 0 0-.863-.154c-.283-.15-.606-.21-.919-.12L26.471 37.777c-.564.161-.94.696-.905 1.281l1.555 25.086L16.859 79.54a1.254 1.254 0 0 0 1.312 1.918l6.267-1.385-8.73 12.953a1.25 1.25 0 0 0-.098 1.227c.1.216.263.383.454.51l18.099 27.042a1.253 1.253 0 0 0 2.081-1.393L19.427 95.282l14.785 1.637c.06 1.142.485 2.211 1.096 3.141.507.761 1.16 1.392 1.873 1.924-.06.915-.228 3.863-.228 7.936 0 4.928.248 11.452 1.255 17.869l.001.004c-.486 2.039-.93 4.049-1.326 6.039-5.138-1.036-10.22-1.587-14.963-1.588-2.734 0-5.358.163-7.824.48a1.252 1.252 0 1 0 .32 2.484c2.35-.302 4.87-.459 7.504-.459 4.581-.001 9.513.535 14.499 1.542-.212 1.171-.405 2.35-.585 3.53a73.18 73.18 0 0 0-3.623-.097c-8.702.005-16.978 1.437-21.343 2.842a1.251 1.251 0 1 0 .77 2.383c3.989-1.295 12.167-2.726 20.573-2.721 1.084 0 2.172.028 3.257.078a130.383 130.383 0 0 0-.456 3.765c-.024.235-.017.447-.036.679-7.305.827-14.457 2.564-20.539 6.275a1.252 1.252 0 1 0 1.307 2.137c5.505-3.375 12.163-5.047 19.105-5.873.004 7.457 3.161 12.714 7.6 15.975 3.84 2.839 8.558 4.264 13.076 4.795a5.506 5.506 0 0 0-.273 1.681c0 .259.018.52.054.781.078.573.247 1.155.588 1.682.514.803 1.376 1.334 2.379 1.611 1.015.286 2.237.394 3.828.396h28.107c5.306-.008 8.627-.301 11.053-1.258.857-.34 1.555-.816 2.18-1.352.114.034.227.071.352.071h20.94a21.813 21.813 0 0 0 6.565 1.833c2.206.267 4.637.468 7.154.468 4.183-.002 8.615-.552 12.647-2.332 3.716-1.635 7.065-4.38 9.416-8.575l3.776 5.42-5.543-.612a1.252 1.252 0 1 0-.274 2.49l-.001-.001 8.285.915c.028.003.052-.015.08-.014.179.008.354-.025.526-.096.05-.021.096-.035.143-.062.033-.019.072-.023.104-.045.151-.105.266-.239.354-.387.004-.005.01-.007.014-.012l21.852-37.67a1.25 1.25 0 0 0-.037-1.316l-43.966-66.92ZM116.642 49.01l1.202 13.794-17.676-1.9c-.049-.032-.084-.077-.138-.102l-18.889-8.82-1.595-25.761 37.096 22.79Zm-24.06 11.079-13.706-1.474 2.031-3.978 11.675 5.452Zm-13.946-8.044L29.563 63.051l-1.435-23.144L77.015 25.88l1.62 26.164Zm-49.56 13.683L78.04 54.745 71.755 67.05 20.668 78.339l8.408-12.612Zm6.16 28.187c-.158.173-.29.361-.411.553l-15.883-1.759 8.989-13.337c.016-.024.017-.053.032-.078l44.909-9.924c.367-.082.674-.32.845-.654l3.94-7.713 64.834 6.97-22.807 35.88-68.996-7.63c-.09-.308-.163-.621-.315-.914a3.745 3.745 0 0 0-2.433-1.947 4.134 4.134 0 0 0-1.037-.139 2.98 2.98 0 0 0-1.74.535A3.75 3.75 0 0 0 43.6 92.65a4.048 4.048 0 0 0-1.409-.25 3.937 3.937 0 0 0-2.259.739 4.733 4.733 0 0 0-1.951-.442 3.636 3.636 0 0 0-2.744 1.216Zm56.814 14.865a1.255 1.255 0 0 0-2.05-.568l-13.622 12.527c-3.335-.491-7.184-.638-10.55-.639-3.553 0-6.509.152-7.641.219a708.044 708.044 0 0 0-4.192-3.563l-3.454-15.804c.206-.687.336-1.422.39-2.182l18.313 2.025c.028.055.038.115.075.167l9.972 13.917a1.252 1.252 0 1 0 2.036-1.458l-8.785-12.261 47.078 5.205 7.264 10.428a65.228 65.228 0 0 0-4.997-.207c-7.677 0-16.699 1.233-26.646 4.029-1.75-6.93-3.188-11.819-3.191-11.835Zm-52.593 1.141c0-2.415.061-4.44.122-5.858.061-1.418.122-2.216.121-2.218.007-.082-.02-.155-.029-.233a1.241 1.241 0 0 0-.598-1.309c-.59-.334-1.227-.94-1.675-1.623-.456-.682-.71-1.433-.704-1.997.007-.447.114-.764.398-1.085.315-.33.548-.38.889-.395.192 0 .385.055.563.107-.027.172-.06.343-.059.523 0 .248.026.498.077.748a1.253 1.253 0 0 0 2.455-.499l-.027-.249c.008-.294.097-.449.299-.629.202-.171.545-.3.902-.298l.538.095c.42.156.663.477.843.878l.164.523.027.152.004.028h.002a1.253 1.253 0 0 0 1.253 1.141 1.253 1.253 0 0 0 1.238-1.153h.002l.18-.573.17-.201.291-.068.415.06c.424.12.618.296.835.68.204.382.333.99.33 1.675a7.557 7.557 0 0 1-.41 2.384c-.077.219-.09.451-.041.678l2.822 12.913a1245.42 1245.42 0 0 0-5.786-4.815 1.25 1.25 0 0 0-2 .614 543.42 543.42 0 0 0-3.144 11.139c-.354-4.057-.467-7.94-.467-11.135Zm65.881 61.247c.202-.395.4-.792.57-1.222.317-.806.424-1.667.426-2.55-.01-2.446-.834-5.168-1.629-7.354-.8-2.176-1.592-3.782-1.604-3.808a1.252 1.252 0 0 0-2.247 1.108l.124.257c.284.604 1.01 2.209 1.656 4.096.649 1.881 1.202 4.069 1.195 5.701.002.669-.091 1.233-.25 1.628-.385.973-.783 1.7-1.27 2.257-.728.822-1.696 1.402-3.588 1.825-1.88.415-4.612.602-8.513.6H65.206a6.522 6.522 0 0 1 .7-2.316 1.251 1.251 0 1 0-2.219-1.16 8.981 8.981 0 0 0-1 3.476h-.585c-.422.002-.791-.011-1.142-.03.06-.527.221-1.38.698-2.286a1.251 1.251 0 1 0-2.22-1.16 8.928 8.928 0 0 0-.942 3.003c-.012-.007-.035-.012-.047-.018-.261-.135-.364-.243-.453-.374-.086-.132-.163-.329-.209-.659l-.03-.441c.002-.554.19-1.082.494-1.621.377-.178.65-.529.706-.965.963-1.047 2.527-2.095 4.604-3.008 7.293-3.25 20.046-4.917 29.965-4.905.43 0 .853.003 1.271.009a1.252 1.252 0 1 0 .038-2.504 80.76 80.76 0 0 0-1.309-.009c-7.771.002-17.092.956-24.582 2.938-3.748.996-7.037 2.238-9.493 3.827a11.751 11.751 0 0 0-2.505 2.175c-4.541-.373-9.348-1.707-13.006-4.425-3.88-2.903-6.57-7.237-6.591-14.054 0-.055.009-.117.009-.173 2.045-.183 4.103-.318 6.158-.391a1.253 1.253 0 0 0-.09-2.503c-1.97.072-3.953.201-5.932.371.006-.059.003-.112.01-.171.136-1.308.295-2.588.467-3.859 2.082.18 4.128.462 6.071.878a1.252 1.252 0 1 0 .525-2.449 51.69 51.69 0 0 0-6.225-.914c.166-1.072.342-2.147.534-3.212a74.764 74.764 0 0 1 5.878 1.645 1.253 1.253 0 0 0 .775-2.382 77.287 77.287 0 0 0-6.19-1.723c1.335-6.695 3.197-13.565 5.604-21.864.808.67 1.891 1.571 3.143 2.616 2.66 2.222 6.03 5.053 8.855 7.482.25.215.574.323.903.3.002 0 .876-.061 2.32-.123 1.442-.061 3.444-.123 5.664-.123 3.493-.001 7.541.156 10.766.687.38.062.767-.053 1.05-.314l12.558-11.548a385.245 385.245 0 0 1 2.9 10.957c.01.045 0 .089.013.134.009.03.031.051.042.08.906 3.647 1.87 7.77 2.75 12.001-1.718.417-3.406.886-5.01 1.447a1.252 1.252 0 1 0 .828 2.364c1.487-.522 3.066-.961 4.68-1.355.202 1.02.398 2.039.584 3.057-1.734.187-3.45.434-5.106.788a1.253 1.253 0 1 0 .525 2.45c1.612-.346 3.3-.588 5.015-.768.181 1.072.354 2.136.51 3.184-1.664-.212-3.254-.362-4.647-.363l-.29.002a1.252 1.252 0 1 0 .035 2.505v-.001l.255-.002c1.431-.001 3.157.171 5.001.43.1.777.191 1.544.27 2.295a1.252 1.252 0 0 0 2.492-.264c-.057-.527-.132-1.078-.197-1.617 1.901.346 3.883.761 5.925 1.274 1.81.455 3.636.977 5.446 1.522a8.57 8.57 0 0 0-.135 1.441l.01.43c.078 1.528.582 6.401 3.208 11.295a20.805 20.805 0 0 0 5.325 6.453h-15.293Zm53.516-8.284c-2.113 4.29-5.189 6.875-8.767 8.466-3.576 1.584-7.671 2.12-11.635 2.118-2.384 0-4.716-.191-6.853-.45-2.261-.28-4.177-.868-5.863-1.636a1.168 1.168 0 0 0-.296-.141c-3.825-1.831-6.291-4.707-7.929-7.713-2.365-4.374-2.857-8.978-2.911-10.231l-.008-.307c0-.241.063-.454.09-.684 2.428.786 4.767 1.621 6.871 2.46a1.252 1.252 0 0 0 .928-2.326c-2.144-.855-4.51-1.7-6.964-2.496.461-.635 1.017-1.064 1.67-1.216.227-.052.501-.083.81-.083 1.024-.004 2.387.352 3.637 1.109a7.995 7.995 0 0 1 3.126 3.429c.922 1.947 2.234 4.172 4.296 5.944 2.054 1.775 4.893 3.043 8.572 3.034a19.09 19.09 0 0 0 3.307-.302c4.212-.741 7.416-3.057 9.377-5.661a1.252 1.252 0 1 0-2.001-1.506v-.001c-1.61 2.137-4.276 4.082-7.809 4.701-1.04.182-1.996.264-2.874.265-3.119-.01-5.268-1.008-6.941-2.431-1.667-1.427-2.823-3.333-3.663-5.114a10.505 10.505 0 0 0-4.098-4.504c-1.63-.977-3.368-1.463-4.929-1.467-.472 0-.931.045-1.371.147-1.452.331-2.616 1.28-3.374 2.481-.082.13-.144.274-.217.409a124.127 124.127 0 0 0-5.649-1.58 93.027 93.027 0 0 0-6.877-1.456 159.109 159.109 0 0 0-.587-3.764 69.067 69.067 0 0 1 4.318-.149c8.406-.006 16.583 1.426 20.575 2.721a1.253 1.253 0 0 0 .769-2.383c-4.367-1.405-12.642-2.837-21.344-2.842-1.577 0-3.164.066-4.745.171a218.726 218.726 0 0 0-.641-3.384c5.582-1.127 11.515-1.603 16.56-1.6 2.486 0 4.756.109 6.654.301a1.252 1.252 0 1 0 .251-2.492c-1.999-.202-4.345-.314-6.905-.314-5.198.003-11.269.479-17.063 1.652a321.459 321.459 0 0 0-2.503-11.014c9.777-2.755 18.608-3.955 26.039-3.955 2.445 0 4.732.134 6.859.376l30.182 43.322c-.022.035-.055.058-.074.096Zm7.945 6.82-44.973-64.552 22.734-35.764 42.716 65.016-20.477 35.3Z"/><path fill="#191C22" d="m102.782 81.57 6.998.773c.457.05.909-.156 1.169-.534a17.05 17.05 0 0 0 1.358-2.376c.453-.992.859-2.095.869-3.27.004-.726-.187-1.549-.767-2.205-.103-.117-.257-.176-.377-.274l2.107-3.383 2.039.22a1.253 1.253 0 0 0 .267-2.491l-6.212-.668a1.252 1.252 0 0 0-.268 2.49l1.408.152-1.749 2.81-.144-.009c-1.304.002-2.442.535-3.372 1.226-2.761 2.09-4.275 5.712-4.334 5.79a1.253 1.253 0 0 0 1.008 1.75Zm3.204-3.9c.522-.666 1.125-1.29 1.735-1.715.615-.429 1.201-.646 1.759-.645l.237.013c.575.07.746.218.814.292.066.076.137.21.141.548.01.528-.253 1.407-.637 2.215-.241.52-.507.984-.757 1.39l-4.381-.484c.301-.506.658-1.064 1.089-1.613Z"/></svg>