<svg xmlns="http://www.w3.org/2000/svg" width="200" height="200" fill="none"><path fill="#fff" d="M75.71 178.938c1.168 7 40.834 7.666 39.5-.334l-3.333-20.666-5-5 3.667-2a238.687 238.687 0 0 0 4-39.5c.166-20.335-2.334-29.835-2.334-29.835l-9.333-3.665s4.333-1 8.667-6.835c4.333-5.832 8.666-11.832 8.666-11.832l8.834-16s-4.334-6.668-8.334-2.834a93.602 93.602 0 0 0-6.5 6.834l-2.166-2.5s2.333-22.834 2.333-26.334-5.667-4.167-7.667.666c-2 4.834-4.666 17-4.666 17s-3.666-8-10 .667c0 0-5.84-6.218-10.3 1.833a19.02 19.02 0 0 0-1.7 5.167s-2.166-.167-2.666 3.167c-.5 3.334-.668 20.334 1.666 24.5s4.666 4.666 4.666 4.666-9.5 1.168-11 7c-1.5 5.835-2 37.668-.666 50.335 1.334 12.666.5 18.666 7.666 20.5l-4.5 5.5.5 19.5Z"/><path fill="#191C22" d="M113.736 61.297c.003-.014.397-1.849.793-4.291.463-2.641.73-5.313.798-7.993.027-1.04-.084-2.08-.331-3.092a2.347 2.347 0 0 0-.482-.88 4.273 4.273 0 0 0-1.36-.998c-1.086-.5-2.227-.87-3.399-1.106a79.677 79.677 0 0 0-15.854-1.393 69.729 69.729 0 0 0-11.034.756 19.093 19.093 0 0 0-3.976 1.04 6.413 6.413 0 0 0-1.462.81 3.088 3.088 0 0 0-1.033 1.306 5.146 5.146 0 0 0-.26 1.07 36.426 36.426 0 0 0-.24 4.89c.001 3.326.184 7.528.462 11.3.139 1.886.301 3.663.478 5.172.124 1.213.317 2.417.577 3.608a7.174 7.174 0 0 0 1.88 3.281 12.23 12.23 0 0 0 3.981 2.599c.703.3 1.427.546 2.168.732a1.3 1.3 0 1 0 .585-2.533l-.092.398.094-.397h-.002l-.091.397.093-.397a12.878 12.878 0 0 1-2.879-1.143 8.43 8.43 0 0 1-2.021-1.498 4.556 4.556 0 0 1-1.192-2.064 30.132 30.132 0 0 1-.519-3.286 161.59 161.59 0 0 1-.921-16.168c0-1.317.03-2.48.093-3.378.032-.448.072-.83.116-1.12.022-.175.06-.349.112-.518l-.004-.002.004.003V46.4l-.004-.002.004.003c.09-.115.2-.211.326-.283a7.53 7.53 0 0 1 2.066-.812 34.194 34.194 0 0 1 5.556-.875c2.19-.194 4.639-.288 7.135-.288a87.85 87.85 0 0 1 12.98.895c1.485.207 2.948.548 4.371 1.017.389.13.761.307 1.108.526.064.041.123.09.175.145l.003.004.265-.187-.308.088.043.1.265-.188-.308.088a9.44 9.44 0 0 1 .232 2.381 51.91 51.91 0 0 1-.765 7.577 99.411 99.411 0 0 1-.704 3.851c-.041.204-.064.31-.064.31a1.298 1.298 0 0 0 1.976 1.365c.29-.187.493-.481.566-.818Z"/><path fill="#191C22" d="M81.456 44.309a14.606 14.606 0 0 1 2.368-6.558 5.757 5.757 0 0 1 1.895-1.646 5.826 5.826 0 0 1 2.534-.64h.001l.075-.002a2.98 2.98 0 0 1 1.686.64c.2.146.39.307.566.481l.142.15.03.033.066-.057-.067.055v.002l.067-.057-.067.055a1.3 1.3 0 0 0 2.007-1.653 6.988 6.988 0 0 0-1.217-1.113 5.533 5.533 0 0 0-3.214-1.136l-.178.004h.001a8.431 8.431 0 0 0-3.644.938 9.093 9.093 0 0 0-3.764 3.974 19.92 19.92 0 0 0-1.856 6.127 1.3 1.3 0 1 0 2.569.403Z"/><path fill="#191C22" d="M91.502 42.484c.824-3.95 2.086-6.055 3.224-7.145a4.651 4.651 0 0 1 1.619-1.044 3.946 3.946 0 0 1 1.864-.21h.002a3.412 3.412 0 0 1 1.782.848c.486.417.862.95 1.092 1.548a1.294 1.294 0 0 0 1.158.87 1.299 1.299 0 0 0 1.293-1.738 6.437 6.437 0 0 0-1.833-2.639 5.998 5.998 0 0 0-3.163-1.469h.002a6.551 6.551 0 0 0-3.097.35 7.94 7.94 0 0 0-3.71 3.005 18.878 18.878 0 0 0-2.778 7.093 1.3 1.3 0 0 0 2.545.531Z"/><path fill="#191C22" d="M102.315 41.85c.002-.005 4.325-16.73 5.634-22.238a3.939 3.939 0 0 1 1.162-2.127c.409-.37.939-.576 1.49-.582a2.16 2.16 0 0 1 1.583.7c.545.634.824 1.453.779 2.287v.049c-.01 1.227-.147 3.413-.347 5.952-.3 3.813-.742 8.456-1.108 12.141a1163.22 1163.22 0 0 1-.466 4.59l-.191 1.824a1.287 1.287 0 0 0 .281.955 1.294 1.294 0 0 0 1.378.43 1.304 1.304 0 0 0 .926-1.11c0-.002.519-4.864 1.044-10.38.262-2.76.526-5.682.728-8.247.202-2.568.342-4.762.355-6.134v-.07a5.834 5.834 0 0 0-1.482-4.064 4.761 4.761 0 0 0-3.48-1.523 4.859 4.859 0 0 0-3.196 1.22 6.524 6.524 0 0 0-1.986 3.488c-.645 2.718-2.053 8.274-3.296 13.14a3773.728 3773.728 0 0 1-2.325 9.049 1.3 1.3 0 0 0 2.517.65Z"/><path fill="#191C22" d="M106.148 27.3a3.916 3.916 0 0 1 1.371-1.776 2.87 2.87 0 0 1 1.623-.488c.832.01 1.633.311 2.264.853a2.531 2.531 0 0 1 .947 1.906 1.303 1.303 0 0 0 1.3 1.3 1.301 1.301 0 0 0 1.3-1.3 5.139 5.139 0 0 0-1.846-3.872 6.117 6.117 0 0 0-3.965-1.487 5.478 5.478 0 0 0-3.074.93 6.516 6.516 0 0 0-2.31 2.909 1.304 1.304 0 0 0 .683 1.707 1.3 1.3 0 0 0 1.707-.683ZM104.045 35.635a4.02 4.02 0 0 1 1.591-1.445 4.608 4.608 0 0 1 4.64.347 3.004 3.004 0 0 1 1.252 2.099 1.299 1.299 0 0 0 2.581-.313 5.617 5.617 0 0 0-2.292-3.88 7.202 7.202 0 0 0-7.352-.574 6.626 6.626 0 0 0-2.611 2.365 1.299 1.299 0 0 0 1.375 1.97c.336-.074.63-.279.816-.57ZM114.205 52.456a4.212 4.212 0 0 1 1.754.9 8.646 8.646 0 0 1 2.142 2.775c.448.824.716 1.733.787 2.667.004.108-.008.217-.036.322l-.034.077c-.212.403-.448.793-.706 1.169-1.249 1.89-3.706 5.148-5.977 8.049a249.356 249.356 0 0 1-3.109 3.899c-.44.539-.826 1.004-1.135 1.368-.306.361-.546.631-.648.735a5.836 5.836 0 0 1-1.923 1.224c-.975.393-1.989.678-3.025.852a1.302 1.302 0 0 0-1.048 1.511 1.3 1.3 0 0 0 1.511 1.048 17.05 17.05 0 0 0 3.574-1.017 8.384 8.384 0 0 0 2.773-1.803c.228-.236.535-.59.95-1.083 1.438-1.71 4.048-4.984 6.389-8.062a138.84 138.84 0 0 0 3.128-4.25 37.83 37.83 0 0 0 1.084-1.622c.145-.232.271-.445.378-.643.106-.19.197-.389.272-.594.127-.38.188-.779.182-1.18a7.676 7.676 0 0 0-.498-2.515 12.147 12.147 0 0 0-2.26-3.851 7.539 7.539 0 0 0-3.98-2.518 1.297 1.297 0 0 0-1.543.999 1.293 1.293 0 0 0 .179.979c.188.29.482.492.819.565Z"/><path fill="#191C22" d="M85.656 76.188c.093-.89.246-1.775.457-2.646.292-.807 3.889-.942 7.584-.673 3.216.234 7.291 1.452 7.486 2.124.106.705.159 1.418.156 2.131l-15.683-.936Z"/><path fill="#191C22" d="m85.656 76.188 1.29.17c.073-.558.152-1.117.227-1.566.037-.225.074-.422.105-.571l.042-.18.013-.049.004-.01-.074-.024.073.026v-.002l-.073-.024.073.026-.782-.283.533.65a.846.846 0 0 0 .25-.367l-.783-.283.533.65-.243-.296.198.33.045-.034-.243-.296.198.33-.019-.032.017.032h.002l-.019-.032.017.032c.108-.047.22-.082.335-.106a15.161 15.161 0 0 1 3.085-.236c.973 0 2.053.043 3.142.123 1.561.132 3.105.417 4.61.85a12.17 12.17 0 0 1 1.626.575c.118.051.232.113.34.183h.002l.566-.654-.812.234a.837.837 0 0 0 .246.42l.566-.654-.812.234.373-.107-.38.082.007.026.373-.108-.38.082c.001.002.016.087.027.2.037.35.068.984.086 1.633l1.3-.038.077-1.298-15.683-.935-.078 1.297 1.29.17-1.29-.17-.077 1.298 15.683.936a1.303 1.303 0 0 0 1.282-.809c.068-.167.1-.346.095-.526a37.916 37.916 0 0 0-.06-1.364c-.014-.204-.03-.39-.05-.563a3.276 3.276 0 0 0-.098-.528 1.612 1.612 0 0 0-.363-.64 2.746 2.746 0 0 0-.694-.534 8.945 8.945 0 0 0-1.44-.623 26.108 26.108 0 0 0-6.143-1.262 46.499 46.499 0 0 0-3.331-.13 20.209 20.209 0 0 0-3.187.207c-.424.063-.84.175-1.237.336-.215.09-.416.21-.597.355a1.759 1.759 0 0 0-.548.76c-.065.19-.117.384-.156.581-.128.607-.252 1.47-.367 2.337a1.3 1.3 0 0 0 1.211 1.467l.077-1.298Z"/><path fill="#191C22" d="M107.42 153.962a11.492 11.492 0 0 0 2.265-1.211 4.026 4.026 0 0 0 1.486-1.752c.122-.321.258-.773.434-1.438a111.94 111.94 0 0 0 2.465-13.961 224.024 224.024 0 0 0 1.559-27.217c0-6.927-.273-14.62-.952-23.025a7.295 7.295 0 0 0-4.582-6.281 54.276 54.276 0 0 0-10.026-2.525 76.636 76.636 0 0 0-12.22-1.033 41.687 41.687 0 0 0-11.505 1.39 7.274 7.274 0 0 0-5.072 6.33 281.395 281.395 0 0 0-1.616 28.885 180.241 180.241 0 0 0 3.815 38.422c.16.692.494 1.331.972 1.856a7.513 7.513 0 0 0 2.634 1.792c1.115.471 2.273.834 3.458 1.083a1.3 1.3 0 0 0 .566-2.538 13.734 13.734 0 0 1-3.717-1.295 3.958 3.958 0 0 1-.996-.767 1.54 1.54 0 0 1-.378-.692 177.696 177.696 0 0 1-3.754-37.861c.043-9.564.578-19.12 1.604-28.63a4.678 4.678 0 0 1 3.222-4.092 39.211 39.211 0 0 1 10.768-1.283c3.952.017 7.897.35 11.796.998a51.804 51.804 0 0 1 9.525 2.39 4.699 4.699 0 0 1 2.914 4.06c.673 8.333.944 15.957.944 22.816.05 9.93-.587 19.851-1.907 29.692-.498 3.541-1.017 6.35-1.453 8.377a56.97 56.97 0 0 1-.577 2.445c-.16.608-.294 1.03-.349 1.172a1.716 1.716 0 0 1-.576.57 9.018 9.018 0 0 1-1.748.924 1.3 1.3 0 1 0 1.001 2.4v-.001Z"/><path fill="#191C22" d="M101.482 151.817a15.546 15.546 0 0 0-.44-2.577c-.284-.644-5.037-1.346-8.72-1.177-4.231.195-8.308.994-8.564 1.832a19.637 19.637 0 0 0-.29 2.903s9.16-2.726 18.014-.981Z"/><path fill="#191C22" d="m101.482 151.817 1.291-.156a44.19 44.19 0 0 0-.224-1.632 14.16 14.16 0 0 0-.127-.685 3.367 3.367 0 0 0-.191-.63l.001.001a1.599 1.599 0 0 0-.44-.577 2.64 2.64 0 0 0-.725-.415 8.612 8.612 0 0 0-1.419-.404 32.317 32.317 0 0 0-6.16-.582c-.413 0-.825.009-1.228.028h.002a39.758 39.758 0 0 0-5.977.7c-.737.142-1.46.346-2.163.612-.299.116-.584.265-.848.446-.15.105-.286.227-.407.364-.16.182-.28.396-.352.628a4.476 4.476 0 0 0-.134.661c-.095.683-.16 1.64-.21 2.551a1.3 1.3 0 0 0 1.669 1.317l.047-.014a44.533 44.533 0 0 1 11.235-1.496c2.05-.012 4.095.176 6.109.559a1.294 1.294 0 0 0 1.136-.323 1.31 1.31 0 0 0 .406-1.109l-1.291.156.252-1.275a34.277 34.277 0 0 0-6.612-.608 46.685 46.685 0 0 0-12.024 1.618l.37 1.246 1.299.071c.032-.585.072-1.194.118-1.692.022-.249.047-.47.07-.637l.034-.203.011-.055.003-.012-.076-.02.075.023v-.003l-.075-.02.075.023-.822-.25.653.566a.861.861 0 0 0 .169-.315l-.822-.251.653.566-.381-.33.336.376.045-.046-.381-.33.336.376-.094-.104.084.113.01-.009-.094-.104.084.113c.253-.142.523-.252.805-.326a20.137 20.137 0 0 1 2.916-.598 41.468 41.468 0 0 1 3.882-.358h.002a23.29 23.29 0 0 1 1.106-.025c1.596.003 3.19.126 4.768.368.54.08 1.073.195 1.597.345.11.031.219.072.323.121l.003.001.263-.451-.35.384.087.067.263-.451-.35.384.681-.746-.92.406a.993.993 0 0 0 .239.34l.681-.746-.92.406v.002l.413-.183-.428.146.015.037.413-.183-.428.146c.002 0 .032.109.06.252.091.442.202 1.238.293 1.992l1.29-.157.252-1.275-.252 1.275ZM121.472 58.773l.107-.205c.491-.938 2.627-4.954 4.656-8.014.691-1.046 1.622-2.203 2.413-3.354a13 13 0 0 0 1.043-1.755 4.608 4.608 0 0 0 .5-1.942 2.862 2.862 0 0 0-.171-.99 6.346 6.346 0 0 0-2.469-3.222 6.135 6.135 0 0 0-3.361-.971 6.381 6.381 0 0 0-3.806 1.216c-.457.348-1.011.834-1.643 1.414-1.886 1.732-4.406 4.272-5.592 5.477a1.302 1.302 0 0 0 .016 1.838 1.3 1.3 0 0 0 1.838-.014c.781-.795 2.157-2.183 3.526-3.515a99.65 99.65 0 0 1 1.97-1.87c.6-.552 1.129-1.01 1.458-1.26a3.82 3.82 0 0 1 2.233-.687 3.536 3.536 0 0 1 1.941.55 3.737 3.737 0 0 1 1.448 1.936l.012.098a2.16 2.16 0 0 1-.252.833 14.694 14.694 0 0 1-1.404 2.193c-.601.823-1.276 1.697-1.867 2.589-2.435 3.677-4.894 8.44-4.906 8.46a1.3 1.3 0 0 0 2.31 1.195Z"/><path fill="#191C22" d="M117.961 45.142c.16-.034.324-.05.487-.05a3.57 3.57 0 0 1 1.678.48 7.31 7.31 0 0 1 2.339 2.128c.273.374.503.779.685 1.205.118.257.187.533.206.815l-.001.027a1.301 1.301 0 0 0 2.599.088l.002-.115a5.367 5.367 0 0 0-.672-2.388 10.204 10.204 0 0 0-2.683-3.226 6.825 6.825 0 0 0-4.153-1.614 4.99 4.99 0 0 0-1.018.104 1.301 1.301 0 0 0 .531 2.546ZM76.898 180.947a160.185 160.185 0 0 1-.85-19.219 6.169 6.169 0 0 1 1.436-3.636 8.247 8.247 0 0 1 3.072-2.424 38.475 38.475 0 0 1 14.875-2.759 39.007 39.007 0 0 1 10.308 1.281 7.966 7.966 0 0 1 2.988 1.702 5.815 5.815 0 0 1 1.861 2.871c.947 3.967 1.952 9.658 2.715 14.337a481.83 481.83 0 0 1 1.287 8.354 1.304 1.304 0 0 0 1.47 1.1 1.3 1.3 0 0 0 1.104-1.467c-.001-.006-.527-3.699-1.295-8.406-.769-4.71-1.775-10.423-2.752-14.521a8.379 8.379 0 0 0-2.656-4.206 10.525 10.525 0 0 0-4.011-2.265 41.556 41.556 0 0 0-11.019-1.38 41.048 41.048 0 0 0-15.903 2.97 10.819 10.819 0 0 0-4.086 3.203 8.75 8.75 0 0 0-1.994 5.2 162.692 162.692 0 0 0 .866 19.555 1.302 1.302 0 0 0 1.436 1.142 1.3 1.3 0 0 0 1.148-1.432Z"/><path fill="#191C22" d="M75.93 149.631v-.03c.005-.217.07-.429.185-.614a4.916 4.916 0 0 1 1.74-1.564 20.816 20.816 0 0 1 5.929-2.199 44.497 44.497 0 0 1 8.564-1.062 49.749 49.749 0 0 1 1.584-.026c3.786-.074 7.56.454 11.181 1.562 1.119.346 2.17.882 3.107 1.584.267.209.497.462.679.748.107.167.169.359.18.558a1.298 1.298 0 0 0 1.34 1.256 1.3 1.3 0 0 0 1.259-1.338 3.75 3.75 0 0 0-.544-1.804 6.768 6.768 0 0 0-2.528-2.291 20.92 20.92 0 0 0-6.244-2.117 44.482 44.482 0 0 0-8.43-.758c-.55 0-1.105.009-1.666.027a41.235 41.235 0 0 0-12.938 2.287 14.144 14.144 0 0 0-4.164 2.314 5.96 5.96 0 0 0-1.306 1.533 3.826 3.826 0 0 0-.529 1.904l.002.112a1.302 1.302 0 0 0 1.34 1.255 1.303 1.303 0 0 0 1.259-1.337ZM80.585 72.302a1.426 1.426 0 0 1-.11-.342 2.413 2.413 0 0 1-.056-.48l.004-.093a.837.837 0 0 1 .123-.347c.25-.36.582-.655.969-.86a11.258 11.258 0 0 1 3.495-1.195c1.73-.32 3.487-.475 5.246-.461 1.34.002 2.68.075 4.012.218 3.32.297 6.57 1.131 9.623 2.47a9.83 9.83 0 0 1 2.648 1.726c.228.215.421.464.572.738.085.15.132.318.138.49l-.004.077a.772.772 0 0 1-.074.253 1.292 1.292 0 0 0-.048.994 1.298 1.298 0 0 0 2.399.118c.163-.344.267-.712.309-1.09a3.44 3.44 0 0 0 .018-.351 3.651 3.651 0 0 0-.427-1.681 6.78 6.78 0 0 0-2.135-2.3 19.503 19.503 0 0 0-5.397-2.534 37.802 37.802 0 0 0-7.347-1.496 40.574 40.574 0 0 0-4.287-.232 25.414 25.414 0 0 0-8.218 1.172c-1.009.33-1.95.84-2.776 1.508a3.866 3.866 0 0 0-1.424 2.506 3.468 3.468 0 0 0-.019.37c.002.346.04.69.113 1.026.075.37.203.726.38 1.059a1.3 1.3 0 0 0 2.273-1.262Z"/></svg>