<svg width="200" height="200" viewBox="0 0 200 200" xmlns="http://www.w3.org/2000/svg"><g id="type=thanks, mode=dark"><g id="thanks"><path id="Vector" d="M104.944 95.8594C104.254 96.261 103.691 96.3865 103.186 96.3889C102.705 96.3884 102.258 96.2671 101.829 96.0625C101.188 95.7585 100.611 95.2541 100.214 94.8218C100.016 94.6067 99.8613 94.4119 99.7609 94.2768L99.6516 94.1243L99.6291 94.0906H99.629C99.3809 93.6977 98.9444 93.468 98.4802 93.4858C98.0186 93.5032 97.6035 93.7637 97.3851 94.1706L97.3844 94.1702C97.3821 94.1787 97.0227 94.8162 96.3878 95.3935C96.0711 95.6836 95.69 95.9582 95.2576 96.1558C94.8234 96.3533 94.3421 96.479 93.7735 96.48C93.3579 96.4795 92.8922 96.4121 92.357 96.2341C91.6757 96.0071 90.9395 96.3752 90.7125 97.0564C90.4855 97.7375 90.8537 98.4739 91.5349 98.7009V98.7007C92.3167 98.9617 93.0694 99.0803 93.7735 99.0798C93.8596 99.0798 93.9403 99.0686 94.0248 99.0652C94.4619 100.49 95.0223 101.647 95.7395 102.515C96.1438 103.001 96.6008 103.402 97.1197 103.688C97.6364 103.974 98.2208 104.137 98.8114 104.136C99.4254 104.137 100.028 103.961 100.559 103.661C101.36 103.207 102.016 102.499 102.57 101.603C103.027 100.86 103.413 99.9714 103.733 98.9509C104.554 98.8679 105.413 98.6015 106.261 98.1011C106.88 97.7373 107.087 96.9407 106.723 96.3218C106.359 95.7026 105.563 95.4956 104.944 95.8594ZM99.9721 100.782C99.7189 101.091 99.4789 101.286 99.284 101.395C99.0867 101.504 98.9426 101.535 98.8113 101.536C98.6844 101.534 98.5528 101.507 98.3729 101.41C98.1069 101.266 97.7425 100.937 97.3796 100.349C97.0824 99.8706 96.7916 99.2195 96.5374 98.416C97.4188 97.9729 98.0866 97.3992 98.5794 96.8706C98.6898 96.9805 98.8069 97.0925 98.9328 97.2056C99.4083 97.6304 99.9962 98.0669 100.706 98.4077C100.838 98.4709 100.979 98.5266 101.12 98.5823C100.771 99.571 100.363 100.311 99.9721 100.782Z"/><path id="Vector_2" d="M22.4727 99.7007H22.4747L22.4757 99.7004L22.4727 99.7007Z"/><path id="Vector_3" d="M189.921 112.546C189.474 112.031 188.902 111.601 188.244 111.282C188.625 110.557 188.986 109.632 188.993 108.527C188.995 107.8 188.816 107.001 188.375 106.262C187.857 105.383 187.19 104.729 186.451 104.323C185.713 103.914 184.931 103.763 184.224 103.764C183.318 103.768 182.528 103.992 181.887 104.246C181.761 103.947 181.606 103.615 181.406 103.267C181.088 102.719 180.666 102.135 180.071 101.638C179.482 101.144 178.686 100.744 177.753 100.676C177.621 100.666 177.49 100.661 177.358 100.661C176.081 100.65 174.976 101.18 174.229 101.907C173.66 102.45 173.258 103.083 172.957 103.71C172.507 104.652 172.276 105.594 172.143 106.315C172.109 106.504 172.083 106.676 172.061 106.83L166.847 109.046C163.209 107.535 158.475 105.962 153.367 104.572C151.352 104.025 149.283 103.514 147.208 103.043C146.848 100.221 146.468 97.4976 146.071 94.8723C149.161 94.6482 152.264 94.5398 155.291 94.54C160.393 94.54 165.278 94.8279 169.514 95.2971C173.747 95.7649 177.339 96.419 179.806 97.1255C180.496 97.3228 181.216 96.9233 181.413 96.2332C181.611 95.5427 181.211 94.8233 180.521 94.626C177.832 93.8579 174.139 93.1943 169.8 92.7129C165.464 92.2329 160.491 91.9401 155.291 91.9401C152.137 91.9404 148.902 92.0559 145.673 92.2957C145.376 90.4314 145.071 88.6306 144.76 86.8711C148.383 85.916 151.944 85.1286 155.309 84.5104C162.514 83.1848 168.844 82.6011 172.959 82.6023C173.934 82.6023 174.784 82.635 175.479 82.6961C176.194 82.7588 176.824 82.2297 176.887 81.5146C176.95 80.7995 176.421 80.1689 175.706 80.1061C174.91 80.0361 173.992 80.0024 172.959 80.0024C168.613 80.0036 162.182 80.6047 154.839 81.9533C151.475 82.5717 147.92 83.3559 144.3 84.3049C139.164 56.5559 132.672 42.6257 132.629 42.5351C132.451 42.153 132.095 41.8801 131.68 41.8059C131.265 41.7316 130.837 41.8645 130.538 42.1611C130.515 42.1838 123.601 49.0244 115.102 59.4374C113.633 59.3881 112.048 59.3654 110.377 59.3654C99.2996 59.3662 84.7701 60.3041 81.5417 60.5217L66.6034 42.7377C66.3046 42.382 65.8368 42.2124 65.3796 42.2939C64.9224 42.3757 64.5422 42.6965 64.3848 43.1335C59.9523 55.4497 56.7734 70.1638 54.5387 84.1359C54.4945 84.4125 54.453 84.6867 54.4096 84.9628C50.1051 83.5393 45.88 82.375 41.9526 81.4636C34.3329 79.6987 27.8631 78.861 23.9668 78.8574C23.7217 78.8574 23.4848 78.8605 23.2558 78.8684C22.5382 78.8923 21.976 79.4934 22 80.2111C22.024 80.9287 22.6252 81.4909 23.3429 81.467C23.5368 81.4604 23.7453 81.4572 23.9668 81.4572C27.5148 81.4536 33.9032 82.2619 41.3649 83.9963C45.3451 84.9194 49.6425 86.1132 54.0077 87.5729C53.7329 89.4006 53.4746 91.2089 53.2316 92.9938C48.9728 92.5349 44.6806 92.343 40.5743 92.3422C31.3186 92.3449 23.039 93.3124 18.1678 94.4704C17.4693 94.6367 17.0381 95.3378 17.2046 96.0363C17.3711 96.7348 18.0722 97.166 18.7707 96.9997C23.3334 95.9089 31.514 94.9394 40.5743 94.9421C44.5777 94.9414 48.7589 95.1308 52.8888 95.5734C52.5667 98.0571 52.2749 100.482 52.0118 102.832C48.8202 103.542 45.646 104.365 42.6644 105.251C39.3226 106.246 36.242 107.309 33.6274 108.359L28.1651 105.857C28.0816 105.246 27.9087 104.331 27.539 103.36C27.2194 102.535 26.7558 101.657 25.9983 100.931C25.2508 100.204 24.1463 99.6745 22.8689 99.685C22.738 99.685 22.6065 99.6906 22.4745 99.7006C21.5417 99.768 20.745 100.168 20.1559 100.662C19.266 101.41 18.7542 102.341 18.4198 103.08C18.3895 103.149 18.3689 103.206 18.3417 103.271C17.7 103.017 16.9098 102.792 16.0036 102.789C15.2964 102.787 14.514 102.938 13.7763 103.347C13.0373 103.753 12.3708 104.407 11.8521 105.287C11.4107 106.025 11.232 106.824 11.2346 107.551C11.2411 108.656 11.6021 109.581 11.9831 110.306C11.3253 110.625 10.753 111.055 10.3056 111.571C9.45683 112.544 9.00193 113.771 9.00004 115.015C8.9951 116.254 9.47697 117.54 10.4949 118.476C11.5102 119.416 12.9927 119.949 14.7951 119.945C14.966 119.945 15.153 119.923 15.3308 119.914L48.0549 151.237C47.2973 158.944 46.47 170.34 46.0928 177.879C46.0569 178.596 46.6091 179.206 47.3262 179.242C48.0433 179.278 48.6537 178.726 48.6896 178.009H48.6895C49.0716 170.364 49.927 158.628 50.6915 150.987C50.7323 150.578 50.5655 150.209 50.2929 149.942C50.226 149.778 50.1289 149.623 49.9922 149.492L16.7646 117.687C16.7467 117.67 16.7231 117.665 16.7044 117.649C16.4364 117.398 16.0754 117.25 15.6814 117.294H15.6813C15.3645 117.329 15.0694 117.345 14.7951 117.345C13.4754 117.341 12.7104 116.98 12.2586 116.566C11.8096 116.147 11.605 115.618 11.6001 115.015C11.5982 114.416 11.8307 113.773 12.2624 113.282C12.6977 112.792 13.3022 112.436 14.1651 112.353C14.6564 112.308 15.082 111.987 15.2599 111.527C15.4378 111.067 15.3388 110.543 15.0053 110.179L15.0042 110.178C14.9622 110.132 14.641 109.757 14.3545 109.243C14.0624 108.729 13.8286 108.087 13.8346 107.551C13.8372 107.221 13.9024 106.931 14.0879 106.614C14.4142 106.068 14.7329 105.792 15.0337 105.623C15.3357 105.457 15.6477 105.39 16.0036 105.389C16.5628 105.384 17.2109 105.589 17.6972 105.818C17.9406 105.931 18.1435 106.045 18.2792 106.127L18.4293 106.223L18.4609 106.244H18.461C19.0438 106.662 19.8556 106.53 20.2747 105.947C20.4894 105.648 20.555 105.291 20.4937 104.955C20.5612 104.723 20.7655 104.096 21.1118 103.525C21.3212 103.173 21.5791 102.851 21.8431 102.641C22.1122 102.429 22.357 102.319 22.67 102.293H22.673L22.8689 102.285C23.4831 102.295 23.8338 102.476 24.2053 102.814C24.4758 103.07 24.7242 103.436 24.9256 103.858C25.2301 104.489 25.4227 105.233 25.5252 105.804C25.5771 106.09 25.6083 106.333 25.6258 106.499L25.6432 106.687L25.6462 106.729L25.6465 106.734L25.6467 106.737H25.6472C25.6781 107.316 26.0884 107.768 26.6209 107.908C26.7288 108.017 26.8519 108.116 27.0001 108.183L30.4208 109.75C28.9829 110.438 27.8003 111.109 26.9197 111.774C26.3481 112.209 26.237 113.025 26.6717 113.596C27.1062 114.168 27.9219 114.279 28.4935 113.844C29.4385 113.118 31.248 112.167 33.5657 111.191L50.381 118.893C50.4282 118.915 50.4781 118.912 50.5264 118.928C50.4851 119.509 50.4458 120.079 50.4093 120.634C50.3621 121.35 50.9046 121.969 51.6211 122.016C52.3376 122.064 52.9566 121.521 53.0038 120.805C53.2981 116.331 53.7516 110.93 54.3916 104.976C58.0803 104.212 61.7336 103.628 65.0444 103.34C65.7596 103.278 66.2886 102.647 66.2261 101.932C66.1636 101.217 65.5331 100.688 64.818 100.751L64.8179 100.75C61.6298 101.03 58.1775 101.569 54.6913 102.266C54.9275 100.195 55.1875 98.0637 55.4692 95.8918C58.7649 96.3354 61.9988 96.9442 65.0463 97.7682C65.7393 97.9552 66.4529 97.5453 66.6402 96.8522C66.8274 96.1591 66.4173 95.4454 65.7243 95.2584L65.7242 95.2582C62.5454 94.4003 59.2026 93.7709 55.8119 93.3143C56.0312 91.705 56.2632 90.0763 56.5083 88.4323C59.5155 89.5057 62.5334 90.7064 65.4829 92.0448C66.1368 92.3414 66.9072 92.0519 67.2039 91.3981C67.5005 90.744 67.211 89.9738 66.5572 89.6771L66.5571 89.6769C63.3782 88.235 60.1325 86.9523 56.908 85.8148C56.9741 85.392 57.0383 84.9708 57.1061 84.5465C59.1928 71.4869 62.1185 57.7904 66.0814 46.1586L79.9757 62.6998C80.244 63.0192 80.6468 63.1898 81.0629 63.1605C81.0657 63.1603 82.1164 63.0861 83.8963 62.974C89.2336 62.6373 101.095 61.965 110.377 61.9652C112.269 61.9652 114.053 61.9928 115.647 62.0573C116.055 62.0736 116.452 61.8947 116.709 61.5778C121.009 56.2811 124.93 51.8829 127.771 48.8124C129.128 47.3466 130.23 46.1935 131.019 45.3793C132.854 49.871 137.741 63.0792 141.78 84.9921C138.311 85.9718 134.807 87.1017 131.364 88.4159C130.693 88.672 130.357 89.4232 130.613 90.0941C130.869 90.765 131.621 91.1012 132.291 90.8451V90.8449C135.571 89.5924 138.92 88.5082 142.242 87.5631C142.525 89.173 142.803 90.8185 143.075 92.517C139.455 92.8688 135.875 93.3898 132.467 94.1295C131.765 94.2819 131.32 94.9743 131.472 95.676C131.625 96.3776 132.317 96.8229 133.019 96.6706V96.6704C136.354 95.9455 139.888 95.4331 143.473 95.0895C143.833 97.4643 144.18 99.9213 144.51 102.461C140.633 101.663 136.803 101.051 133.334 100.75C132.619 100.688 131.989 101.218 131.927 101.934C131.865 102.649 132.395 103.279 133.11 103.341C136.701 103.65 140.757 104.318 144.857 105.189C145.337 109.112 145.776 113.215 146.161 117.512C146.277 118.815 146.389 120.134 146.496 121.471C146.552 122.186 147.178 122.721 147.894 122.664C148.61 122.607 149.144 121.981 149.088 121.265C149.04 120.662 148.987 120.076 148.937 119.48L166.848 111.87C167.516 112.163 168.136 112.45 168.687 112.727C169.681 113.225 170.471 113.696 170.982 114.081C171.556 114.512 172.371 114.397 172.802 113.823C173.234 113.249 173.118 112.434 172.544 112.003C171.881 111.505 171.045 111.014 170.054 110.508L173.194 109.174C173.36 109.103 173.503 109.003 173.62 108.881C174.147 108.737 174.55 108.285 174.58 107.71V107.708C174.581 107.618 174.689 106.299 175.158 105.158C175.388 104.586 175.703 104.076 176.056 103.758C176.417 103.442 176.762 103.27 177.358 103.26L177.555 103.268L177.557 103.269C177.88 103.296 178.132 103.411 178.409 103.637C178.82 103.97 179.2 104.581 179.432 105.113C179.55 105.378 179.635 105.62 179.689 105.788L179.733 105.933C179.672 106.268 179.738 106.625 179.953 106.923C180.372 107.506 181.184 107.639 181.767 107.219C181.807 107.191 182.149 106.96 182.623 106.751C183.097 106.539 183.699 106.361 184.224 106.364C184.58 106.366 184.892 106.433 185.194 106.599C185.495 106.767 185.813 107.044 186.139 107.589C186.325 107.906 186.39 108.197 186.393 108.527C186.4 109.098 186.131 109.791 185.815 110.319C185.661 110.583 185.502 110.804 185.388 110.953L185.254 111.118L185.223 111.154L185.222 111.155C184.889 111.519 184.79 112.042 184.968 112.503C185.146 112.963 185.571 113.284 186.063 113.328C186.925 113.411 187.529 113.767 187.964 114.258C188.396 114.748 188.628 115.391 188.627 115.99C188.622 116.594 188.417 117.123 187.968 117.541C187.516 117.955 186.752 118.316 185.432 118.321C185.158 118.321 184.863 118.305 184.546 118.269C184.156 118.226 183.797 118.37 183.53 118.616C183.514 118.63 183.493 118.634 183.477 118.649L150.25 149.478C150.051 149.663 149.946 149.9 149.89 150.147C149.779 150.357 149.703 150.588 149.723 150.843C150.485 160.706 150.896 171.572 151.204 177.808C151.239 178.525 151.849 179.078 152.566 179.042C153.284 179.007 153.836 178.397 153.801 177.68C153.498 171.56 153.094 160.893 152.348 151.079L184.885 120.889C185.067 120.899 185.258 120.92 185.432 120.92C187.234 120.925 188.717 120.392 189.732 119.451C190.75 118.516 191.232 117.229 191.227 115.99C191.225 114.746 190.77 113.519 189.921 112.546ZM50.7323 116.195L36.9344 109.874C41.1756 108.325 46.4017 106.782 51.7148 105.562C51.3125 109.377 50.9877 112.952 50.7323 116.195ZM155.448 107.861C158.35 108.712 161.067 109.611 163.434 110.496L148.7 116.756C148.355 112.95 147.966 109.301 147.545 105.788C150.238 106.416 152.913 107.118 155.448 107.861Z"/><path id="Vector_4" d="M45.1921 62.9006C44.6693 62.5298 44.0586 62.2026 43.3789 61.9358C42.4139 61.5588 41.4744 61.3601 40.6126 61.3574C40.1398 61.3596 39.6852 61.4141 39.2264 61.5962C38.9979 61.6887 38.7659 61.8176 38.5503 62.0083C38.3364 62.1965 38.1428 62.4543 38.026 62.7532C37.9318 62.9897 37.8912 63.2361 37.8916 63.4631C37.8957 63.9822 38.0764 64.3958 38.29 64.7385C38.619 65.2527 39.0582 65.6584 39.5802 66.0334C40.103 66.4043 40.7139 66.7319 41.3937 66.999C42.3595 67.3745 43.2982 67.5735 44.1603 67.5762C44.6323 67.574 45.0864 67.52 45.545 67.3384C45.7733 67.2461 46.0053 67.1177 46.2211 66.9272C46.436 66.7388 46.6309 66.4802 46.7479 66.1799L46.7505 66.1733C46.839 65.9465 46.8816 65.7009 46.881 65.4709C46.877 64.9519 46.6963 64.5381 46.4825 64.1951C46.1535 63.6809 45.7142 63.2754 45.1921 62.9006Z"/><path id="Vector_5" d="M38.0244 62.7566L38.0262 62.7532L38.0275 62.749L38.0244 62.7566Z"/><path id="Vector_6" d="M103.893 43.918C104.26 44.25 104.659 44.4131 105.055 44.52C105.454 44.624 105.866 44.6653 106.298 44.6658C107.013 44.665 107.787 44.5488 108.586 44.3171C109.548 44.0339 110.388 43.6343 111.061 43.1348C111.397 42.8823 111.695 42.605 111.942 42.2607C112.183 41.9194 112.395 41.4841 112.399 40.9326C112.399 40.7563 112.375 40.5728 112.323 40.3953L111.075 40.7585L112.323 40.3943C112.217 40.0276 111.999 39.7136 111.757 39.4941C111.389 39.1616 110.99 38.9983 110.594 38.8914C110.195 38.7874 109.783 38.7463 109.352 38.7458C108.635 38.7466 107.861 38.8635 107.063 39.0955C106.102 39.3774 105.261 39.7771 104.588 40.2766C104.252 40.5291 103.954 40.8064 103.707 41.1509C103.466 41.4922 103.254 41.9275 103.25 42.4792C103.25 42.6567 103.275 42.8406 103.326 43.0168C103.432 43.3855 103.651 43.699 103.893 43.918Z"/><path id="Vector_7" d="M123.532 24.6028C123.861 25.1169 124.3 25.5225 124.822 25.8975C125.345 26.2686 125.955 26.5959 126.635 26.863C127.601 27.2385 128.539 27.4375 129.402 27.4404C129.874 27.4382 130.328 27.384 130.787 27.2021C131.016 27.1096 131.248 26.9807 131.464 26.7898C131.678 26.6011 131.873 26.342 131.99 26.0415L131.992 26.0361C132.08 25.8096 132.123 25.5645 132.122 25.3337C132.118 24.8145 131.937 24.4006 131.724 24.0579C131.395 23.5439 130.955 23.1387 130.434 22.7639C129.911 22.3933 129.3 22.0659 128.621 21.7991C127.656 21.4226 126.716 21.2239 125.855 21.2212C125.382 21.2234 124.927 21.2778 124.468 21.46C124.24 21.5527 124.008 21.6819 123.792 21.8728C123.578 22.061 123.385 22.3188 123.268 22.6177C123.174 22.8542 123.133 23.1003 123.134 23.3274C123.138 23.8462 123.318 24.2598 123.532 24.6028Z"/><path id="Vector_8" d="M123.266 22.6213L123.268 22.6177L123.269 22.6133L123.266 22.6213Z"/><path id="Vector_9" d="M191.017 81.6926C190.801 81.4751 190.535 81.3188 190.276 81.2297C190.014 81.1394 189.761 81.1084 189.524 81.1082C188.808 81.1184 188.2 81.3594 187.58 81.6965C186.966 82.0398 186.357 82.5071 185.78 83.0825C185.205 83.6577 184.738 84.2673 184.395 84.8813C184.058 85.501 183.817 86.1086 183.807 86.8254C183.807 87.0625 183.839 87.3162 183.929 87.5769C184.018 87.8362 184.173 88.1018 184.39 88.3179L185.31 87.3992L184.391 88.3186C184.607 88.5356 184.872 88.6907 185.132 88.7798C185.392 88.8699 185.646 88.9011 185.883 88.9014C186.599 88.8914 187.207 88.6504 187.826 88.3135C188.44 87.9705 189.05 87.5037 189.626 86.9292C190.202 86.3518 190.669 85.7422 191.012 85.1282C191.349 84.5083 191.589 83.9011 191.6 83.1846C191.599 82.9475 191.568 82.6939 191.478 82.4329C191.389 82.1738 191.234 81.9082 191.017 81.6926Z"/><path id="Vector_10" d="M191.016 81.6914L191.017 81.6926L191.018 81.6938L191.016 81.6914Z"/><path id="Vector_11" d="M38.8579 42.958C39.1909 43.2517 39.6717 43.5249 40.2757 43.5271L40.4929 43.5151L40.502 43.5139C41.0176 43.4543 41.4479 43.1792 41.7258 42.8826C42.1487 42.4285 42.353 41.9241 42.5025 41.3831C42.6458 40.8403 42.7126 40.2485 42.7133 39.616C42.7133 39.2683 42.6923 38.9087 42.6489 38.5413C42.522 37.4976 42.2486 36.5652 41.8343 35.7976C41.6233 35.4138 41.3784 35.0654 41.0386 34.7644C40.7061 34.4707 40.2254 34.1973 39.6212 34.1948C39.5287 34.1948 39.4551 34.2019 39.397 34.2087C38.8816 34.2671 38.4503 34.5413 38.172 34.8374C37.748 35.2913 37.5434 35.7957 37.3937 36.3367C37.2502 36.8791 37.1833 37.4707 37.1826 38.1035C37.1827 38.4524 37.2039 38.813 37.2476 39.1814C37.3737 40.2239 37.6469 41.1567 38.0615 41.9243C38.2726 42.3083 38.5178 42.6567 38.8579 42.958Z"/><path id="Vector_12" d="M39.3906 34.2092L39.3964 34.2087L39.3981 34.2085L39.3906 34.2092Z"/><path id="Vector_13" d="M160.954 66.8213L160.957 66.8162L160.959 66.8115L160.954 66.8213Z"/><path id="Vector_14" d="M168.029 67.6057C167.554 67.2024 166.994 66.832 166.364 66.5122C165.273 65.9658 164.208 65.6582 163.215 65.6509C162.824 65.6526 162.435 65.6987 162.032 65.8589C161.639 66.0124 161.205 66.3274 160.958 66.8162C160.808 67.1072 160.745 67.4246 160.746 67.7063C160.75 68.1887 160.9 68.5815 161.085 68.9236C161.371 69.4355 161.764 69.865 162.238 70.2712C162.714 70.6743 163.274 71.0444 163.904 71.3643C164.995 71.9092 166.059 72.217 167.053 72.2246C167.443 72.2229 167.832 72.177 168.234 72.0178C168.627 71.864 169.065 71.5493 169.312 71.0579L169.316 71.0508C169.457 70.771 169.522 70.4568 169.521 70.1709C169.517 69.6882 169.367 69.2957 169.182 68.9534C168.896 68.4416 168.503 68.012 168.029 67.6057Z"/><path id="Vector_15" d="M182.111 42.9344C181.793 42.7474 181.433 42.6707 181.121 42.6726C180.659 42.6758 180.278 42.8091 179.938 42.9795C179.428 43.241 178.988 43.6077 178.567 44.0537C178.148 44.5005 177.757 45.0306 177.411 45.6302C177.084 46.1944 176.832 46.7637 176.655 47.3179C176.479 47.8733 176.375 48.4102 176.373 48.9468C176.375 49.3003 176.417 49.6599 176.564 50.0335C176.707 50.4014 176.992 50.8016 177.423 51.0476L177.425 51.0486C177.739 51.2308 178.094 51.3084 178.411 51.3067C178.872 51.3037 179.253 51.1702 179.594 50.9998C180.103 50.7383 180.543 50.3716 180.965 49.9258C181.383 49.4793 181.774 48.9495 182.121 48.3504C182.447 47.784 182.7 47.2149 182.876 46.6609C183.052 46.1055 183.156 45.5691 183.158 45.0328C183.156 44.6792 183.113 44.3199 182.966 43.9463C182.824 43.5796 182.541 43.1807 182.111 42.9344Z"/><path id="Vector_16" d="M182.108 42.9321L182.111 42.9343L182.113 42.9351L182.108 42.9321Z"/><path id="Vector_17" d="M25.5138 60.6121C25.2233 60.1134 24.6384 59.8658 24.0782 60.0045C23.3211 60.1893 22.7343 60.6099 22.3121 61.0211C21.6781 61.6473 21.2863 62.2503 20.9047 62.5985C20.7168 62.776 20.5493 62.8944 20.3668 62.9761C20.183 63.0562 19.9748 63.1116 19.6475 63.1134C19.4765 63.1134 19.2755 63.0965 19.0382 63.0535C18.3811 62.9337 17.7906 62.8763 17.2503 62.8763C16.161 62.8707 15.2425 63.1314 14.538 63.5626C14.0096 63.8814 13.6164 64.2664 13.3 64.6114C12.8261 65.1366 12.4982 65.5584 12.1478 65.8277C11.795 66.0943 11.4377 66.2879 10.6571 66.3682C10.2156 66.4085 9.82297 66.6729 9.61979 67.067C9.41666 67.461 9.4288 67.9342 9.65195 68.3172L12.2408 72.7606C12.4953 73.1973 12.9789 73.4466 13.4824 73.4007C14.5607 73.3077 15.4449 72.9581 16.1057 72.4908C16.6025 72.1439 16.9708 71.755 17.2717 71.4171C17.7225 70.9017 18.0372 70.5218 18.3601 70.3031C18.6842 70.0882 19.0271 69.929 19.8392 69.9193C20.1924 69.9193 20.6295 69.9581 21.1629 70.0553L21.1671 70.056C21.5369 70.1219 21.8917 70.1563 22.2353 70.1563C23.1114 70.1617 23.8965 69.9146 24.4977 69.5379C25.4036 68.9688 25.9057 68.2349 26.3257 67.7511C26.5329 67.5042 26.7132 67.314 26.8675 67.1925C27.0242 67.0699 27.1407 67.0103 27.291 66.9715C27.6873 66.8731 28.0165 66.5924 28.1756 66.2161C28.3347 65.8402 28.3072 65.4083 28.1017 65.0555L25.5138 60.6121ZM23.4926 67.0418C23.3048 67.2193 23.1373 67.3375 22.9549 67.4193C22.771 67.4993 22.5627 67.5548 22.2353 67.5565C22.0672 67.5565 21.8645 67.5391 21.6235 67.4962L21.6277 67.4969C20.9705 67.3778 20.3809 67.3194 19.8392 67.3194C18.7498 67.3138 17.8313 67.5745 17.1267 68.0054C16.5983 68.3245 16.2049 68.7095 15.8885 69.0543C15.4145 69.5794 15.0865 70.0015 14.7361 70.2708C14.5304 70.4263 14.3124 70.5531 14.0207 70.6507L12.752 68.4732C13.0293 68.3465 13.2909 68.2076 13.5171 68.0477C14.0141 67.7008 14.3824 67.3118 14.6834 66.974C15.1342 66.4583 15.4488 66.0784 15.7717 65.8599C16.0957 65.6451 16.4383 65.4859 17.2503 65.4761C17.6049 65.4761 18.041 65.5145 18.5731 65.6116C18.9491 65.6798 19.3062 65.7132 19.6475 65.7132C20.5237 65.7186 21.3089 65.4713 21.9101 65.0946C22.8159 64.5252 23.318 63.7913 23.7379 63.3074C23.8105 63.221 23.8756 63.151 23.9417 63.0789L25.185 65.2135C25.0845 65.2965 24.9865 65.3804 24.8999 65.4647C24.266 66.0909 23.8742 66.6937 23.4926 67.0418Z"/><path id="Vector_18" d="M158.865 42.368L153.968 40.8006C153.418 40.6246 152.818 40.8318 152.495 41.3099C152.218 41.7168 152.049 42.1566 151.959 42.5677C151.869 42.9805 151.849 43.3653 151.849 43.7137C151.85 44.2176 151.888 44.6534 151.887 45.0179C151.887 45.4595 151.839 45.7686 151.715 46.0315C151.587 46.293 151.375 46.5833 150.793 46.949C149.48 47.7605 148.63 48.5945 148.135 49.5152C147.636 50.4346 147.571 51.3502 147.574 52.0442C147.574 52.3536 147.584 52.6297 147.584 52.877C147.584 53.2972 147.556 53.6246 147.457 53.9402C147.356 54.2554 147.187 54.5882 146.788 55.0237C146.488 55.3492 146.373 55.8084 146.486 56.2371C146.599 56.6656 146.925 57.0088 147.347 57.1441L152.244 58.7115C152.726 58.8655 153.253 58.7266 153.596 58.3553C154.221 57.6824 154.623 56.9722 154.835 56.2859C155.051 55.5999 155.082 54.9669 155.082 54.4439C155.082 54.1321 155.071 53.8548 155.072 53.6104C155.075 53.0438 155.117 52.7039 155.322 52.3135C155.531 51.9241 155.983 51.3939 157.059 50.7271C157.968 50.1697 158.61 49.4683 158.964 48.7054C159.322 47.9441 159.384 47.1961 159.384 46.5845C159.383 46.0711 159.345 45.6307 159.346 45.2813C159.346 45.0391 159.363 44.8448 159.396 44.6968C159.43 44.5472 159.473 44.4444 159.546 44.334C159.774 43.9957 159.831 43.5667 159.697 43.1807C159.564 42.795 159.254 42.4922 158.865 42.368ZM156.612 47.5984C156.484 47.8599 156.272 48.1504 155.69 48.5169C154.378 49.3277 153.529 50.1612 153.033 51.0816C152.534 52.0008 152.469 52.9161 152.472 53.6104C152.472 53.9185 152.482 54.1949 152.482 54.4439C152.482 54.8638 152.454 55.1912 152.355 55.5069C152.309 55.6492 152.246 55.7964 152.158 55.9537L149.761 55.1868C149.829 55.0301 149.89 54.8738 149.938 54.719C150.153 54.033 150.184 53.4 150.184 52.877C150.184 52.5645 150.173 52.2874 150.174 52.0442C150.177 51.4776 150.219 51.1375 150.424 50.7469C150.633 50.3572 151.085 49.8267 152.162 49.16C153.07 48.6031 153.713 47.9019 154.067 47.1387C154.425 46.3775 154.487 45.6294 154.487 45.0179C154.485 44.5032 154.447 44.0626 154.448 43.7137C154.448 43.7029 154.45 43.6954 154.45 43.6849L156.811 44.4407C156.768 44.7366 156.746 45.0218 156.746 45.2813C156.748 45.7837 156.785 46.2193 156.784 46.5845C156.784 47.0262 156.736 47.3353 156.612 47.5984Z"/><path id="Vector_19" d="M76.8286 25.7074C77.409 26.3641 77.9857 26.7801 78.3242 27.1732C78.4968 27.367 78.6137 27.5394 78.692 27.7179C78.7691 27.8978 78.8189 28.0899 78.8205 28.3839C78.8205 28.5762 78.7959 28.8133 78.7287 29.1048C78.5465 29.8927 78.4588 30.5875 78.4585 31.2196C78.4525 32.2428 78.7118 33.1197 79.1178 33.7899C79.4183 34.2935 79.7737 34.6744 80.0898 34.9879C80.5713 35.4576 80.9526 35.794 81.1928 36.148C81.4303 36.5042 81.6006 36.8712 81.6419 37.6344C81.6611 38.0772 81.9068 38.482 82.2907 38.7037C82.6746 38.9254 83.1479 38.9354 83.541 38.7308L88.1026 36.3558C88.5509 36.1222 88.823 35.6512 88.801 35.1463C88.76 34.0928 88.469 33.212 88.0504 32.5365C87.7397 32.0289 87.3791 31.6422 87.0595 31.3258C86.5727 30.8517 86.1971 30.5181 85.9823 30.1939C85.7711 29.867 85.6301 29.5595 85.6202 28.8458C85.6199 28.4581 85.6755 27.956 85.8235 27.3158C85.9287 26.8585 85.982 26.4247 85.982 26.0101C85.9869 25.1698 85.7467 24.4147 85.3938 23.8336C84.8608 22.9577 84.1805 22.4457 83.7358 22.0184C83.5091 21.8075 83.3367 21.6244 83.2279 21.4699C83.1183 21.3126 83.0662 21.1962 83.0353 21.0475C82.9561 20.6469 82.6909 20.3046 82.3228 20.1278C81.9548 19.9511 81.5218 19.9579 81.1596 20.1466L76.5981 22.5216C76.0862 22.788 75.8111 23.3612 75.9233 23.9274C76.0688 24.6739 76.4474 25.2703 76.8286 25.7074ZM82.8855 24.7996C83.0582 24.9932 83.1751 25.1656 83.2535 25.3441C83.3306 25.5243 83.3803 25.7161 83.3819 26.0101C83.3819 26.2022 83.3574 26.4388 83.29 26.7315C83.1083 27.5191 83.0204 28.2132 83.0201 28.8458C83.0141 29.869 83.2734 30.7459 83.6794 31.4161C83.9799 31.9198 84.3353 32.3004 84.6514 32.6138C85.133 33.0833 85.5142 33.4198 85.7544 33.7735C85.8904 33.9774 86.0002 34.1942 86.0805 34.4774L83.8456 35.6412C83.7407 35.3795 83.625 35.1307 83.489 34.9112C83.1783 34.4036 82.8177 34.0167 82.4981 33.7C82.0113 33.2259 81.6355 32.8922 81.4208 32.5679C81.2095 32.241 81.0685 31.9332 81.0586 31.2196C81.0583 30.8314 81.1138 30.3294 81.2619 29.6903C81.3675 29.2325 81.4205 28.7982 81.4205 28.3839C81.4254 27.5438 81.1853 26.7887 80.8325 26.2074C80.2995 25.3316 79.6192 24.8194 79.1745 24.3922C79.1038 24.3265 79.0484 24.2684 78.9886 24.2081L81.1801 23.067C81.2492 23.1593 81.3187 23.2515 81.3895 23.3328C81.97 23.9901 82.5469 24.4063 82.8855 24.7996Z"/><path id="Vector_20" d="M145.183 76.2829C144.001 75.5832 142.34 75.1484 139.976 75.1477C139.766 75.1477 139.549 75.1511 139.327 75.1584C136.707 75.2444 133.884 75.8159 131.685 76.3598C129.489 76.9048 127.929 77.4275 127.906 77.435C127.282 77.6443 126.945 78.2815 127.065 78.9109L120.709 77.7768L115.187 72.5686C114.893 72.2915 114.484 72.1662 114.085 72.2312C113.687 72.2964 113.339 72.5456 113.148 72.9018L109.571 79.5976L104.943 82.1289C104.927 81.7683 104.775 81.4165 104.471 81.1733C102.725 79.7676 100.848 79.2527 99.2125 79.26C97.5452 79.2622 96.1303 79.7536 95.1241 80.2309C94.1171 80.7112 93.5093 81.186 93.4547 81.2283C93.1408 81.4753 92.9882 81.8376 92.9761 82.2077L88.2043 79.5979L84.6261 72.9016C84.4357 72.5454 84.0876 72.2964 83.6891 72.2312C83.2906 72.1662 82.8813 72.2915 82.5876 72.5686L77.0648 77.7773L71.7085 78.7326C71.7324 78.6833 71.7715 78.6457 71.7894 78.5923C72.0174 77.9116 71.6504 77.1748 70.9697 76.9468L70.9696 76.9465C70.9468 76.9392 69.3864 76.4165 67.1904 75.8716C64.9912 75.3276 62.168 74.7561 59.5474 74.6699C59.3256 74.6628 59.1092 74.6594 58.8992 74.6594C57.3206 74.6596 56.0617 74.8535 55.0423 75.1894C53.515 75.6848 52.5278 76.5515 52.0108 77.4197C51.4883 78.2856 51.4204 79.0761 51.4199 79.4521C51.42 79.5664 51.4266 79.6465 51.4306 79.6855C51.5046 80.3996 52.1436 80.9184 52.8577 80.8445C53.559 80.7717 54.065 80.1528 54.0132 79.4543L54.0198 79.4541L54.02 79.4521C54.0196 79.4165 54.0258 79.2656 54.0895 79.0776C54.194 78.7942 54.3767 78.4219 55.0208 78.0298C55.6668 77.6438 56.8477 77.2585 58.8992 77.2593C59.0812 77.2593 59.269 77.2622 59.4633 77.2685C61.7667 77.3398 64.4688 77.8733 66.5643 78.395C67.6134 78.6553 68.5143 78.9114 69.1497 79.1015C69.2372 79.1277 69.3067 79.1492 69.3839 79.1728C69.0767 79.2829 68.8156 79.5005 68.6639 79.7944C68.4789 80.1533 68.4716 80.581 68.6443 80.9463L71.8916 87.8088L70.85 95.3291C70.7946 95.729 70.9299 96.1352 71.214 96.4221C71.4981 96.709 71.903 96.8481 72.3035 96.7969L79.8329 95.8286L86.6639 99.1438C87.0271 99.32 87.4554 99.3169 87.8161 99.1355C88.1768 98.9538 88.4343 98.6115 88.509 98.2148L89.9147 90.7539L95.1781 85.2827C95.458 84.9917 95.5874 84.5835 95.5262 84.1846C95.4717 83.8293 95.2657 83.5188 94.9724 83.3171C94.9998 83.2988 95.032 83.2942 95.0584 83.2737L95.0588 83.2742C95.0589 83.2742 95.0623 83.2717 95.0624 83.2715C95.0626 83.2715 95.0629 83.2712 95.063 83.2712C95.0824 83.2556 95.5612 82.8933 96.3143 82.5444C97.077 82.1889 98.1077 81.8579 99.2125 81.8598C100.339 81.8672 101.543 82.1687 102.846 83.2031C102.867 83.22 102.893 83.2234 102.915 83.2385L102.91 83.2409C102.556 83.4345 102.31 83.7851 102.249 84.1843C102.188 84.5835 102.317 84.9914 102.597 85.2827L107.86 90.7541L109.266 98.2151C109.341 98.6118 109.599 98.9538 109.96 99.1355C110.32 99.3169 110.748 99.32 111.112 99.1438L117.941 95.8286L125.472 96.7969C125.872 96.8481 126.277 96.709 126.562 96.4221C126.846 96.135 126.981 95.7287 126.925 95.3288L125.883 87.8086L129.131 80.9465C129.304 80.5815 129.297 80.1535 129.112 79.7944C129.109 79.7898 129.105 79.7859 129.103 79.7812C129.716 79.5881 131.05 79.1848 132.711 78.7856C134.742 78.2964 137.253 77.824 139.411 77.7571C139.606 77.7505 139.794 77.7475 139.976 77.7475C141.341 77.7473 142.327 77.9179 143.018 78.1467C144.057 78.4983 144.434 78.9292 144.641 79.2551C144.842 79.5832 144.856 79.883 144.855 79.9404V79.9551L144.86 79.9553C144.815 80.6594 145.336 81.2749 146.042 81.3352C146.757 81.396 147.387 80.8655 147.448 80.1501C147.45 80.1177 147.455 80.0454 147.455 79.9404C147.455 79.6872 147.425 79.2573 147.25 78.7363C146.997 77.9563 146.366 76.9768 145.183 76.2829ZM87.7722 89.2312C87.5963 89.4138 87.4785 89.6426 87.4315 89.8918L86.2689 96.0617L80.6194 93.3203C80.3912 93.2095 80.1375 93.1679 79.886 93.2004L73.6587 94.001L74.5201 87.7815C74.5549 87.5303 74.516 87.2761 74.4075 87.0471L71.7219 81.3713L77.9031 80.2688C78.1527 80.2241 78.3823 80.1084 78.5668 79.9346L83.1343 75.6267L86.0937 81.165C86.2131 81.3884 86.394 81.571 86.6165 81.6929L92.1253 84.7058L87.7722 89.2312ZM123.367 87.0469C123.258 87.2759 123.219 87.5305 123.254 87.7817L124.116 94.0007L117.888 93.2004C117.637 93.1679 117.383 93.2095 117.155 93.3203L111.506 96.062L110.343 89.8916C110.296 89.6423 110.178 89.4138 110.002 89.2312L105.65 84.7058L111.159 81.6929C111.381 81.571 111.562 81.3882 111.682 81.1648L114.64 75.6267L119.208 79.9346C119.392 80.1084 119.622 80.2241 119.871 80.2688L126.053 81.3713L123.367 87.0469Z"/></g></g></svg>