<svg xmlns="http://www.w3.org/2000/svg" width="200" height="200" fill="none"><path fill="#FFE632" d="M145.036 134.451c-1.619 1.611-7.835 7.073-20.641 9.939a93.537 93.537 0 0 1-13.277 1.697c-5.229.363-11.091.53-17.102.53-12.68.063-25.35-.687-37.934-2.245-12.33-1.763-21.978-7.175-28.584-14.952-6.602-7.781-10.173-17.963-10.175-29.357a44.707 44.707 0 0 1 39.065-44.349 300.14 300.14 0 0 1 34.591-1.74c12.677 0 25.084.593 33.192 1.738a41.76 41.76 0 0 1 26.014 13.948 42.328 42.328 0 0 1 10.134 27.927c0 .797-.021 1.6-.062 2.41h.001a59.376 59.376 0 0 1-2.36 14 1.305 1.305 0 0 0 .101.99 1.299 1.299 0 0 0 1.762.527 1.295 1.295 0 0 0 .628-.771 61.93 61.93 0 0 0 2.465-14.614v-.001c.043-.852.065-1.7.065-2.54a44.936 44.936 0 0 0-10.767-29.628 44.366 44.366 0 0 0-27.618-14.823c-8.33-1.173-20.79-1.761-33.555-1.762-11.662-.087-23.32.5-34.915 1.76a47.307 47.307 0 0 0-41.341 46.928c-.003 11.934 3.759 22.753 10.793 31.039 7.03 8.289 17.319 14.011 30.2 15.844a298.992 298.992 0 0 0 38.3 2.271c6.059 0 11.975-.168 17.283-.536a96.193 96.193 0 0 0 13.663-1.753c13.328-2.978 20.011-8.737 21.911-10.636a1.302 1.302 0 0 0-.918-2.22c-.344 0-.675.136-.919.379Z"/><path fill="#FFE632" d="M133.668 130.227c-5.089 2.801-11.291 5.079-17.337 5.073a35.262 35.262 0 1 1 34.675-41.71 1.3 1.3 0 1 0 2.557-.472 37.866 37.866 0 1 0-37.232 44.782c6.696-.007 13.247-2.464 18.589-5.394a1.299 1.299 0 0 0-1.252-2.279Z"/><path fill="#BEBEC9" d="M195.015 151.464c-10.645-14.072-25.452-28.609-38.368-40.594.494-1.56.761-3.182.792-4.818a7.96 7.96 0 0 0-.999-4.118l-.001-.001a7.723 7.723 0 0 0-2.169-2.339 9.521 9.521 0 0 0-3.504-1.502 11.024 11.024 0 0 0-1.33-.203 76.888 76.888 0 0 0-7.629-11.505c-5.125-6.38-12.528-13.462-21.873-15.988a13.566 13.566 0 0 0-3.515-.5 7.833 7.833 0 0 0-5.943 2.39 7.555 7.555 0 0 0-1.947 5.123c0 .187.023.371.036.557a20.833 20.833 0 0 0-4.081-.441c-1.374-.021-2.743.18-4.053.593a6.572 6.572 0 0 0-2.962 1.88 8.02 8.02 0 0 0-1.888 5.237c.003.684.088 1.366.256 2.03a8.558 8.558 0 0 0-5.588 2.264 7.478 7.478 0 0 0-2.286 5.428c.03 2.02.745 3.97 2.03 5.53a20.653 20.653 0 0 0 4.591 4.054c2.663 1.813 5.752 3.412 8.703 5.083a69.093 69.093 0 0 1 3.749 2.254c-.069.001-.129.003-.203.003-.529 0-1.163-.017-1.915-.057a29.84 29.84 0 0 0-1.6-.045 12.386 12.386 0 0 0-6.372 1.377 5.972 5.972 0 0 0-2.202 2.287 7.362 7.362 0 0 0-.81 3.46v.055a6.854 6.854 0 0 0 1.382 3.934 14.692 14.692 0 0 0 6.637 4.795 32.068 32.068 0 0 0 11.886 2.015 60.996 60.996 0 0 0 15.1-2.109 14.68 14.68 0 0 0 2.103 3.159 6.777 6.777 0 0 0 1.947 1.504c.79.395 1.662.597 2.545.592a10.197 10.197 0 0 0 5.233-1.789c11.837 12.295 23.679 25.873 32.149 37.386a1.3 1.3 0 1 0 2.094-1.541c-9.807-13.326-23.957-29.247-37.489-42.886a1.304 1.304 0 0 0-.123-.206l-.004-.007a.917.917 0 0 1-.058-.385 5.257 5.257 0 0 1 .331-1.591 20.823 20.823 0 0 1 2.139-4.214 35.377 35.377 0 0 1 5.315-6.506 16.084 16.084 0 0 1 2.702-2.11 4.099 4.099 0 0 1 1.899-.693.925.925 0 0 1 .304.048l.131.072c13.852 12.669 31.012 29.035 42.784 44.606a1.299 1.299 0 0 0 2.324-.605 1.298 1.298 0 0 0-.25-.963Zm-43.472-45.244-.363-.198-.13-.062a3.474 3.474 0 0 0-1.328-.254 5.737 5.737 0 0 0-2.473.65 17.25 17.25 0 0 0-4.209 3.145 38.31 38.31 0 0 0-5.651 7.075 24.857 24.857 0 0 0-1.882 3.611 8.925 8.925 0 0 0-.771 3.233c-.004.484.091.963.28 1.408.041.271.167.523.36.718a448.92 448.92 0 0 1 3.53 3.594 7.12 7.12 0 0 1-3.372 1.108 3.014 3.014 0 0 1-1.383-.317 5.112 5.112 0 0 1-1.773-1.652 19.736 19.736 0 0 1-1.629-2.868 1.302 1.302 0 0 0-1.739-.598c-.056.036-.11.077-.159.122a58.897 58.897 0 0 1-15.012 2.166c-6.09.002-10.514-1.315-13.339-3.019a10.102 10.102 0 0 1-3.065-2.696 4.286 4.286 0 0 1-.902-2.428v-.027a4.78 4.78 0 0 1 .5-2.255c.215-.399.51-.749.869-1.026a5.55 5.55 0 0 1 2.21-.965 14.504 14.504 0 0 1 3.206-.306c.473 0 .962.014 1.46.041.792.042 1.471.061 2.055.061a9.985 9.985 0 0 0 3.163-.35c.029-.01.052-.026.08-.036.363.303.716.609 1.044.924a1.298 1.298 0 0 0 1.839-.041 1.299 1.299 0 0 0-.042-1.838c-3.16-3.011-7.395-5.247-11.344-7.447-1.973-1.096-3.875-2.176-5.525-3.301a18.136 18.136 0 0 1-4.02-3.523 6.297 6.297 0 0 1-1.465-3.912 4.873 4.873 0 0 1 1.488-3.553 6.099 6.099 0 0 1 4.347-1.563c1.038.012 2.07.17 3.064.47a41.783 41.783 0 0 1 11.258 5.525 53.562 53.562 0 0 1 3.501 2.573 39.37 39.37 0 0 1 1.193.993l.06.053.015.014a1.302 1.302 0 0 0 1.837-.096 1.303 1.303 0 0 0-.096-1.836 50.123 50.123 0 0 0-5.056-3.856 44.291 44.291 0 0 0-11.987-5.866c-.496-.142-1-.26-1.51-.35a4.831 4.831 0 0 1-.496-2.23 5.421 5.421 0 0 1 1.266-3.55 4.016 4.016 0 0 1 1.811-1.102 10.262 10.262 0 0 1 3.226-.458c3.146.091 6.238.841 9.076 2.201a33.95 33.95 0 0 1 10.238 7.341 1.301 1.301 0 0 0 1.867-1.81 36.558 36.558 0 0 0-11.028-7.898 30.072 30.072 0 0 0-3.347-1.282 5.068 5.068 0 0 1-.161-1.268 4.963 4.963 0 0 1 1.259-3.36 5.223 5.223 0 0 1 4.031-1.554c.961.013 1.916.15 2.841.411a32.622 32.622 0 0 1 11.584 6.083 61.934 61.934 0 0 1 12.223 13.46 75.81 75.81 0 0 1 3.279 5.22 55.234 55.234 0 0 1 1.05 1.929l.051.1.014.03a1.3 1.3 0 0 0 1.2.723v.001h.023a8.058 8.058 0 0 1 2.36.406 6.47 6.47 0 0 1 1.719.855 5.128 5.128 0 0 1 1.446 1.556c.455.855.672 1.816.63 2.783a12.859 12.859 0 0 1-.355 2.817 863.632 863.632 0 0 0-2.688-2.467 1.232 1.232 0 0 0-.253-.182Z"/></svg>