<svg xmlns="http://www.w3.org/2000/svg" width="200" height="200" fill="none"><path fill="#BEBEC9" d="M108.835 145.139a1.297 1.297 0 0 0 1.3-1.3v-6.94a1.289 1.289 0 0 0-.381-.919 1.304 1.304 0 0 0-.919-.381 1.3 1.3 0 0 0-1.3 1.3v6.94a1.299 1.299 0 0 0 1.3 1.3ZM102.989 145.139a1.301 1.301 0 0 0 1.3-1.3v-6.94a1.301 1.301 0 0 0-2.6 0v6.94a1.299 1.299 0 0 0 1.3 1.3ZM97.146 145.139a1.3 1.3 0 0 0 1.3-1.3v-6.94a1.301 1.301 0 0 0-2.6 0v6.94a1.3 1.3 0 0 0 1.3 1.3ZM91.302 145.139a1.3 1.3 0 0 0 1.3-1.3v-6.94a1.301 1.301 0 0 0-2.6 0v6.94a1.3 1.3 0 0 0 1.3 1.3ZM110.926 106.603a4.179 4.179 0 0 0-2.955 7.13 4.168 4.168 0 0 0 4.552.906 4.177 4.177 0 0 0-1.597-8.036Zm0 5.754a1.578 1.578 0 1 1 .602-3.034 1.577 1.577 0 0 1-.602 3.034ZM97.284 90.669H64.236a3.903 3.903 0 0 0 0 7.805h33.048a3.903 3.903 0 0 0 3.889-3.574v-.004a3.908 3.908 0 0 0-3.889-4.227Zm-21.407 2.6h3.594l-.396 2.605h-3.594l.397-2.605Zm-3.025 2.605h-3.594l.396-2.605h3.594l-.396 2.605Zm9.25-2.605h3.593l-.396 2.605h-3.594l.396-2.605Zm6.223 0h3.594l-.397 2.605H87.93l.396-2.605ZM63.31 95.487a1.302 1.302 0 0 1 .926-2.218h2.788l-.396 2.605h-2.392a1.281 1.281 0 0 1-.926-.387Zm35.272-.806a1.303 1.303 0 0 1-1.298 1.193h-3.132l.396-2.605h2.736a1.304 1.304 0 0 1 1.303 1.3l-.005.112Z"/><path fill="#BEBEC9" d="M166.803 101.088a11.69 11.69 0 0 0-2.239-3.7 5.654 5.654 0 0 0-1.519-1.154 4.092 4.092 0 0 0-1.621-.439c-.246-.046-3.482-.659-7.062-1.274-1.862-.32-3.813-.64-5.488-.882l-.027-.004c-.003-.017.003-.034 0-.051l-2.081-9.67a1.298 1.298 0 0 0-1.271-1.027h-2.584c.319-1.764.478-3.554.474-5.347a25.462 25.462 0 0 0-1.567-9.27 9.716 9.716 0 0 0-1.864-3.073 4.831 4.831 0 0 0-1.296-.985 3.533 3.533 0 0 0-1.6-.392c-.018 0-.033.01-.05.01-.018 0-.033-.01-.051-.01h-2.122v-8.724h6.116c.032 0 .058-.016.089-.018.049.003.095.018.144.018a2.385 2.385 0 0 0 1.078-.262 3.41 3.41 0 0 0 1.269-1.19 7.955 7.955 0 0 0 1.036-2.58c.243-1.082.363-2.187.357-3.295.028-1.62-.246-3.231-.81-4.75a5.358 5.358 0 0 0-1.041-1.702 3.013 3.013 0 0 0-.811-.613 2.385 2.385 0 0 0-1.078-.262c-.048 0-.094.015-.141.018-.032-.003-.059-.019-.092-.019h-1.841V24.756a23.002 23.002 0 0 0-2.331-10.838 9.986 9.986 0 0 0-2.693-3.262 5.965 5.965 0 0 0-3.599-1.264c-.019 0-.034.01-.052.01h-.003a5.892 5.892 0 0 0-3.114.943 8.2 8.2 0 0 0-1.104.845 7.009 7.009 0 0 0-4.57-1.843 1.256 1.256 0 0 0-.289.058l-.012-.003a5.892 5.892 0 0 0-3.114.943c-.391.25-.76.533-1.103.845a7.01 7.01 0 0 0-4.57-1.843 1.256 1.256 0 0 0-.289.058l-.012-.003a5.892 5.892 0 0 0-3.114.943 8.19 8.19 0 0 0-1.103.845 7.012 7.012 0 0 0-4.571-1.843 1.255 1.255 0 0 0-.288.058l-.012-.003a5.886 5.886 0 0 0-3.113.943c-.392.25-.761.533-1.105.845a7.01 7.01 0 0 0-4.57-1.843 1.247 1.247 0 0 0-.288.058l-.011-.003a5.892 5.892 0 0 0-3.114.943c-.392.25-.761.533-1.105.845a7.008 7.008 0 0 0-4.57-1.843 1.247 1.247 0 0 0-.288.058l-.012-.003a5.89 5.89 0 0 0-3.114.943c-.391.25-.76.533-1.104.845a7.008 7.008 0 0 0-4.57-1.844 1.246 1.246 0 0 0-.288.059l-.012-.003a5.891 5.891 0 0 0-3.114.943c-.391.25-.76.533-1.104.845a7.01 7.01 0 0 0-4.57-1.844 1.247 1.247 0 0 0-.29.059c-.023-.001-.04-.013-.063-.013a5.308 5.308 0 0 0-3.49 1.313 10.882 10.882 0 0 0-3.069 5.527 31.925 31.925 0 0 0-.948 7.665h-2.25a1.3 1.3 0 0 0-1.286 1.488l2.198 15.056h-1.688a2.386 2.386 0 0 0-1.078.262c-.519.28-.956.69-1.269 1.19a7.952 7.952 0 0 0-1.035 2.58 14.695 14.695 0 0 0-.357 3.296c-.028 1.62.246 3.23.81 4.75.237.627.59 1.204 1.04 1.702.234.248.508.456.81.613.334.17.704.26 1.079.262h3.827l3.613 24.749a1.297 1.297 0 0 0 1.286 1.112h4.727v1.95H57.005a1.302 1.302 0 0 0-1.214.836l-4.234 11.073c-2.738.484-4.98.907-5.353.977a4.088 4.088 0 0 0-1.656.44 6.723 6.723 0 0 0-2.465 2.35 18.31 18.31 0 0 0-2.351 5.91 35.39 35.39 0 0 0-.857 7.932c0 1.803.13 3.603.388 5.387h-4.975a2.989 2.989 0 0 0-1.321.314 4.521 4.521 0 0 0-1.683 1.54 11.255 11.255 0 0 0-1.521 3.631 21.577 21.577 0 0 0-.593 4.53l-2.217 2.003a4.31 4.31 0 0 0-.725-.473 3.508 3.508 0 0 0-1.603-.396 3.302 3.302 0 0 0-.516.043 1.217 1.217 0 0 0-.215-.043H7.914a3.254 3.254 0 0 0-1.633.466 5.692 5.692 0 0 0-1.802 1.765 9.253 9.253 0 0 0-1.181 2.541 1.29 1.29 0 0 0 .106.992c.038.179.113.347.222.493l1.935 5.373c.04.088.09.17.15.247a1.292 1.292 0 0 0 1.211.859h2.552c-.025.1-.038.203-.037.306.02.247.03.505.03.768 0 .256-.03.487-.048.728H6.922a1.289 1.289 0 0 0-1.21.859c-.06.077-.11.16-.15.247l-1.936 5.373a1.258 1.258 0 0 0-.222.493 1.292 1.292 0 0 0-.106.993 8.731 8.731 0 0 0 1.71 3.23 5.12 5.12 0 0 0 1.273 1.076 3.274 3.274 0 0 0 1.632.466h15.98c.074-.009.146-.023.217-.044.17.028.343.043.515.044a3.52 3.52 0 0 0 1.603-.396 5.694 5.694 0 0 0 2.086-1.999 15.224 15.224 0 0 0 1.935-4.896c.366-1.633.586-3.296.658-4.968l5.046-4.613h4.91l-.057 18.529V157.902c.005.296.112.58.303.805.013.113.04.223.082.329.009.015 3.175 6.684 5.719 11.091 2.657 4.606 5.133 8.433 8.274 11.181a16.986 16.986 0 0 0 5.29 3.196 18.862 18.862 0 0 0 6.65 1.113c.215 1.584.69 3.122 1.406 4.551a5.96 5.96 0 0 0 1.37 1.753c.57.501 1.297.783 2.055.797h9.39a3.148 3.148 0 0 0 1.868-.644 5.726 5.726 0 0 0 1.59-1.968 6.656 6.656 0 0 0 1.024 1.467 4 4 0 0 0 1.073.814c.42.216.886.33 1.36.332h9.023c.046-.007.093-.016.138-.028.076.006.149.028.226.028a3.226 3.226 0 0 0 2.1-.831 7.315 7.315 0 0 0 1.903-2.974c.394-1.067.677-2.172.847-3.297H115.2a14.51 14.51 0 0 0 1.409 4.553 5.97 5.97 0 0 0 1.373 1.753c.57.499 1.299.781 2.057.795h9.389a3.228 3.228 0 0 0 2.099-.83 7.31 7.31 0 0 0 1.903-2.974c.394-1.067.677-2.172.846-3.297h2.819a18.941 18.941 0 0 0 12.892-4.82 16.663 16.663 0 0 0 5.392-12.349c0-.009.005-.016.005-.025v-.077l.001-.019-.001-.005v-13.297a1.301 1.301 0 0 0-2.6 0v12.002h-24.649l-3.8-9.383v-31.238l.464-35.146h1.688l3.472 13.663a19.193 19.193 0 0 0-1.353 7.505 19.769 19.769 0 0 0 1.214 7.183 7.708 7.708 0 0 0 1.483 2.441c.309.33.672.605 1.073.813.421.216.887.33 1.36.332h4.094a18.619 18.619 0 0 0 2.502 5.569 7.933 7.933 0 0 0 2.033 2.04c.764.524 1.665.81 2.59.821a34.786 34.786 0 0 0 4.299-.413c1.119-.158 2.326-.35 3.53-.553v13.818a1.3 1.3 0 0 0 2.6 0v-14.273a297.147 297.147 0 0 0 6.016-1.152 4.085 4.085 0 0 0 1.645-.439 6.722 6.722 0 0 0 2.464-2.349 18.305 18.305 0 0 0 2.352-5.91c.583-2.603.871-5.264.856-7.931a31.15 31.15 0 0 0-1.914-11.337Zm-20.677-7.789a13.615 13.615 0 0 0-1.171-.072 4.783 4.783 0 0 0-2.846.998c-.151.112-.293.238-.436.363l-1.298-5.11c-.006-.02-.021-.034-.027-.054.138-.174.272-.353.399-.542a13.282 13.282 0 0 0 1.537-3.395h2.161l1.681 7.812Zm.841 26.958c-.106.116-.23.215-.368.291a.358.358 0 0 1-.373 0 2.151 2.151 0 0 1-.72-.74 9.304 9.304 0 0 1-1.154-2.962 19.797 19.797 0 0 1-.475-4.421 17.236 17.236 0 0 1 1.029-6.213c.217-.594.54-1.143.953-1.62a1.4 1.4 0 0 1 .367-.291.353.353 0 0 1 .373 0c.297.184.544.438.721.74a9.318 9.318 0 0 1 1.154 2.962c.324 1.451.483 2.935.474 4.422a17.212 17.212 0 0 1-1.028 6.212 5.224 5.224 0 0 1-.953 1.62ZM123.546 88.66l-.013-.003-.015.003h-3.073a.928.928 0 0 1-.426-.112 3.178 3.178 0 0 1-1.098-1.107 12.58 12.58 0 0 1-1.571-4.014 25.507 25.507 0 0 1-.598-4.638h4.459a.652.652 0 0 0 .504 0h9.042a24.43 24.43 0 0 0 1.541 8.02c.258.643.571 1.262.936 1.851h-9.688ZM67.898 78.357V33.91h50.984l.845 5.802h-44.18a1.3 1.3 0 0 0-1.3 1.3v30.32a1.3 1.3 0 0 0 1.3 1.299h43.567v.928a1.283 1.283 0 0 0 .517 1.01c.003.008.002.017.006.025.216.51.358 1.047.424 1.596h-4.697a1.302 1.302 0 0 0-1.3 1.3c.008.101.028.2.059.296.002.193.007.382.012.572H67.898Zm49.903-51.86.701 4.812H67.131c-.014-.01-.02-.026-.033-.037l-6.367-4.775h57.07Zm17.957 39.923v5.837h-14.044V66.42h14.044Zm1.615 8.963c.173.706.258 1.43.252 2.157a7.725 7.725 0 0 1-.452 2.773 2.172 2.172 0 0 1-.117.24 4.142 4.142 0 0 1-.313-.856 8.753 8.753 0 0 1-.251-2.157 1.368 1.368 0 0 0-1.311-1.35h-12.499a10.017 10.017 0 0 0-.235-1.332h14.611c.046-.007.091-.016.136-.028.072.18.132.365.179.553ZM120.445 63.82a1.302 1.302 0 0 0-1.3 1.3c.007.052.017.103.031.153-.033.098-.054.2-.062.303v4.454H76.847V42.31h43.259l3.137 21.51h-2.798Zm16.133 27.44c.063-.008.125-.02.186-.038.099.01.194.037.294.037a3.4 3.4 0 0 0 1.04-.182l1.67 6.57.005.02.953 3.753c-.218.008-.43.072-.616.186h-.001a2.88 2.88 0 0 0-.481.414l-.019.019c-.333.356-.62.752-.857 1.177-.115.201-.23.43-.345.675l-3.209-12.631h1.38Zm3.575-19.608a26.26 26.26 0 0 1 .632 5.888 22.979 22.979 0 0 1-1.377 8.293 7.238 7.238 0 0 1-1.332 2.251c-.17.186-.37.343-.591.462a.871.871 0 0 1-.854 0 3.185 3.185 0 0 1-1.098-1.106 12.598 12.598 0 0 1-1.57-4.013 25.416 25.416 0 0 1-.599-4.638h.597a9.25 9.25 0 0 0 .572 2.5c.196.516.487.99.859 1.399.203.215.44.394.703.53a2.104 2.104 0 0 0 1.926 0 2.913 2.913 0 0 0 1.087-1.013c.399-.637.682-1.34.836-2.075.191-.85.285-1.719.281-2.59a10.246 10.246 0 0 0-.642-3.749 4.394 4.394 0 0 0-.859-1.4 2.84 2.84 0 0 0-.366-.317v-4.742c.075.096.15.193.225.307a12.597 12.597 0 0 1 1.57 4.013Zm-7.918-7.832h-6.365l-5.204-35.692 11.569 8.679v3.634h-1.304a2.386 2.386 0 0 0-1.078.262 3.42 3.42 0 0 0-1.27 1.19 7.931 7.931 0 0 0-1.035 2.58 14.667 14.667 0 0 0-.357 3.296 13 13 0 0 0 .809 4.75 5.347 5.347 0 0 0 1.042 1.702c.233.249.508.456.811.613.334.17.703.26 1.078.262h1.304v8.724Zm6.014-20.779a9.965 9.965 0 0 0-.447 1.433 14.725 14.725 0 0 0-.358 3.295 13.027 13.027 0 0 0 .803 4.727h-7.243l-.061-.05a3.85 3.85 0 0 1-.768-1.599 11.63 11.63 0 0 1-.384-3.078 10.48 10.48 0 0 1 .619-3.775 2.87 2.87 0 0 1 .51-.88l.085-.073h7.244Zm4.075 4.728a10.501 10.501 0 0 1-.619 3.774c-.117.321-.289.62-.51.88l-.01.009a3.897 3.897 0 0 1-.755-1.585 11.588 11.588 0 0 1-.385-3.078 10.479 10.479 0 0 1 .619-3.774 2.89 2.89 0 0 1 .51-.88l.01-.01c.369.465.627 1.007.755 1.585.266 1.005.395 2.04.385 3.079Zm-15.27-29.718c.026.293-.045.586-.202.834l-.161.117a1.41 1.41 0 0 1-.883 0 .4.4 0 0 1-.221-.214c-.1-.23-.145-.48-.134-.731a5.406 5.406 0 0 1 .411-1.885c.109-.28.234-.554.374-.82.478.824.757 1.748.816 2.7Zm-9.088 0c.026.293-.045.586-.202.834l-.161.117a1.41 1.41 0 0 1-.883 0 .401.401 0 0 1-.221-.214c-.1-.23-.145-.48-.134-.731a5.406 5.406 0 0 1 .411-1.885c.109-.28.234-.554.375-.82.477.824.757 1.748.815 2.7Zm-9.088 0c.026.293-.044.586-.202.834l-.161.117a1.41 1.41 0 0 1-.883 0 .402.402 0 0 1-.221-.214c-.1-.23-.145-.48-.134-.732a5.405 5.405 0 0 1 .411-1.884c.109-.28.234-.554.374-.82.478.824.758 1.748.816 2.7Zm-9.088 0c.026.293-.044.586-.202.834l-.16.117a1.412 1.412 0 0 1-.884 0 .4.4 0 0 1-.222-.214c-.099-.23-.145-.48-.133-.732a5.41 5.41 0 0 1 .41-1.884c.11-.28.235-.554.375-.82.478.824.758 1.749.816 2.7Zm-9.089 0c.027.293-.044.586-.201.834l-.162.117a1.411 1.411 0 0 1-.883 0 .398.398 0 0 1-.22-.214c-.1-.23-.146-.48-.134-.731a5.412 5.412 0 0 1 .41-1.885c.11-.28.235-.554.375-.82.478.824.757 1.748.815 2.7Zm-9.088 0c.027.293-.044.586-.201.834l-.161.117a1.411 1.411 0 0 1-.884 0 .4.4 0 0 1-.22-.214c-.1-.23-.146-.48-.134-.731a5.412 5.412 0 0 1 .41-1.885c.11-.28.235-.554.375-.82.478.824.757 1.748.815 2.7Zm-9.088 0c.027.293-.044.586-.201.834l-.161.117a1.411 1.411 0 0 1-.884 0 .4.4 0 0 1-.22-.214c-.1-.23-.146-.48-.134-.732a5.41 5.41 0 0 1 .41-1.884c.11-.28.235-.554.375-.82.478.824.757 1.748.815 2.7Zm-9.173-2.996c.35-.9.898-1.71 1.604-2.37a2.685 2.685 0 0 1 1.806-.693 1.25 1.25 0 0 0 .29-.058c.022 0 .04.013.063.013.704.01 1.393.209 1.995.575.314.19.61.408.883.654-.143.217-.291.433-.418.658a8.953 8.953 0 0 0-1.25 4.222 3.848 3.848 0 0 0 .792 2.487c.307.372.7.665 1.146.853.937.37 1.98.37 2.915 0a3.033 3.033 0 0 0 1.527-1.43c.29-.595.434-1.252.42-1.915a7.812 7.812 0 0 0-.608-2.855 10.88 10.88 0 0 0-1.109-2.062c.357-.33.759-.607 1.195-.822.405-.198.849-.304 1.3-.31a1.24 1.24 0 0 0 .288-.058l.013.002c.704.01 1.393.21 1.994.576.315.19.61.408.884.654-.144.218-.292.434-.42.658a8.956 8.956 0 0 0-1.25 4.223 3.848 3.848 0 0 0 .793 2.486c.308.372.7.665 1.146.853.937.37 1.979.37 2.915 0a3.034 3.034 0 0 0 1.526-1.43c.29-.595.435-1.252.421-1.915a7.809 7.809 0 0 0-.608-2.855 10.875 10.875 0 0 0-1.109-2.062 5.05 5.05 0 0 1 1.195-.822 3.046 3.046 0 0 1 1.3-.31c.097-.008.194-.027.287-.058l.013.002c.705.01 1.393.21 1.995.576.315.19.61.408.883.654-.143.218-.29.434-.418.658a8.954 8.954 0 0 0-1.25 4.223 3.848 3.848 0 0 0 .792 2.486c.307.373.7.665 1.146.852.937.37 1.979.37 2.915 0a3.034 3.034 0 0 0 1.526-1.428c.29-.596.434-1.253.421-1.916a7.809 7.809 0 0 0-.609-2.855 10.881 10.881 0 0 0-1.108-2.062 5.05 5.05 0 0 1 1.195-.822c.405-.198.85-.304 1.3-.31.098-.008.195-.027.288-.058l.012.002c.705.01 1.393.21 1.995.576.315.19.61.408.883.654-.143.217-.29.433-.418.657a8.954 8.954 0 0 0-1.25 4.223 3.849 3.849 0 0 0 .792 2.487c.308.372.701.665 1.147.852.936.37 1.978.37 2.915 0a3.031 3.031 0 0 0 1.526-1.428c.29-.596.434-1.253.421-1.915a7.808 7.808 0 0 0-.609-2.856 10.848 10.848 0 0 0-1.109-2.062c.357-.33.759-.607 1.195-.822a3.047 3.047 0 0 1 1.3-.31c.098-.008.194-.027.288-.058l.012.002c.705.01 1.393.21 1.995.576.315.19.611.408.884.654-.144.217-.292.433-.419.657a8.955 8.955 0 0 0-1.25 4.223 3.854 3.854 0 0 0 .792 2.486c.308.373.701.666 1.147.853.936.37 1.979.37 2.915 0a3.03 3.03 0 0 0 1.526-1.428c.29-.596.434-1.253.421-1.916a7.808 7.808 0 0 0-.609-2.855 10.897 10.897 0 0 0-1.108-2.062c.356-.33.758-.607 1.194-.822a3.047 3.047 0 0 1 1.3-.31c.098-.008.195-.028.288-.058l.013.002c.704.01 1.393.21 1.994.576.315.19.611.408.884.654-.143.217-.291.433-.419.658a8.967 8.967 0 0 0-1.25 4.223 3.854 3.854 0 0 0 .792 2.486c.308.372.701.665 1.147.852.936.37 1.978.37 2.915 0a3.03 3.03 0 0 0 1.526-1.428c.29-.597.434-1.253.421-1.916a7.829 7.829 0 0 0-.609-2.855 10.896 10.896 0 0 0-1.108-2.062c.356-.33.759-.607 1.194-.822a3.047 3.047 0 0 1 1.3-.31c.098-.008.195-.028.288-.058l.013.002c.704.01 1.393.21 1.994.576.315.19.611.408.884.654-.143.217-.291.433-.419.658a8.967 8.967 0 0 0-1.25 4.223 3.855 3.855 0 0 0 .792 2.486c.308.373.701.665 1.147.853.936.37 1.978.37 2.915 0a3.031 3.031 0 0 0 1.526-1.43c.29-.595.434-1.252.421-1.915a7.807 7.807 0 0 0-.609-2.855 10.899 10.899 0 0 0-1.108-2.062 5.05 5.05 0 0 1 1.195-.822 3.047 3.047 0 0 1 1.3-.31c.018 0 .033-.01.051-.01h.004c.743.016 1.46.277 2.038.743a9.146 9.146 0 0 1 2.791 4.279 23.141 23.141 0 0 1 1.194 7.742V40.44h-1.674l-.001-4.284a1.303 1.303 0 0 0-.519-1.04l-14.611-10.96a1.187 1.187 0 0 0-.115-.055 1.289 1.289 0 0 0-.286-.136l-.379-.069H61.848a24.404 24.404 0 0 1 1.504-8.842Zm-7.05 37.44-.06-.048a3.846 3.846 0 0 1-.767-1.6 11.644 11.644 0 0 1-.385-3.078 10.509 10.509 0 0 1 .62-3.775c.116-.322.288-.62.51-.88l.084-.073h1.992l1.38 9.455h-3.373Zm2.466-24.22 6.53 4.898v39.832l-6.53-44.73Zm13.514 52.682h42.027c.074.671.168 1.321.284 1.95H72.282v-1.95Zm-30.807 31.468a28.672 28.672 0 0 1 1.724-10.362 9.202 9.202 0 0 1 1.709-2.877c.233-.255.508-.469.813-.632.205-.11.433-.169.665-.172.042 0 .078-.02.12-.024.04.002.082.003.123.001.002 0 .62-.118 1.625-.304.612-.113 1.377-.253 2.22-.405l-7.71 20.162h-.873a34.564 34.564 0 0 1-.416-5.387Zm80.261 13.955-.001.017v30.205H43.41l.102-32.558h78.254l-.03 2.336Zm-90.873 14.115a28.44 28.44 0 0 0-.424-3.306c.062-.031.121-.066.177-.106l10.284-9.4-.011 3.694c-.051.026-.1.055-.148.088l-9.878 9.03Zm3.585-13.93h3.821l-8.545 7.81c-.108-.322-.221-.635-.341-.935-.22-.551-.48-1.086-.775-1.602l5.84-5.273Zm-1.61-4.326a4.917 4.917 0 0 1 .924-1.511c.1-.108.218-.198.348-.267l.178-.049h7.482l-.627 1.64a1.262 1.262 0 0 0-.228.692c0 .024.012.044.014.067-.002.025-.014.048-.014.073l-.003 1.082h-6.964a1.294 1.294 0 0 0-.872.335l-1.059.956a13.39 13.39 0 0 1 .82-3.018ZM7.787 139.097l-1.205-3.345H19.75l1.208 3.345H7.787Zm-.204-7.42a.7.7 0 0 1 .33-.116H20.83c-.314.508-.588 1.04-.82 1.591H6.331c.176-.336.39-.651.636-.94.175-.21.383-.391.616-.535Zm4.446 10.119c-.003-.035-.023-.064-.029-.099h10.785c.28-.005.548-.103.766-.277a1.274 1.274 0 0 0 .777-.87v-.001c.07-.295.169-.583.297-.858.104.214.187.439.248.669.191.73.285 1.483.278 2.238a7.684 7.684 0 0 1-.44 2.722c-.03.073-.058.119-.088.18a4.475 4.475 0 0 1-.295-.853 1.279 1.279 0 0 0-.777-.871 1.27 1.27 0 0 0-.765-.277H12.018c.015-.244.048-.474.048-.728 0-.332-.013-.657-.038-.975Zm-4.242 4.303h13.171l-1.208 3.345H6.582l1.205-3.345Zm-.204 7.42a3.188 3.188 0 0 1-.951-.973c-.1-.147-.19-.33-.283-.502h13.645c.232.551.508 1.083.824 1.592l-12.905-.001a.7.7 0 0 1-.33-.116Zm19.387-2.732a7.29 7.29 0 0 1-1.333 2.27c-.169.188-.369.345-.59.466a.902.902 0 0 1-.422.112.931.931 0 0 1-.454-.129 3.136 3.136 0 0 1-1.001-1.002 9.47 9.47 0 0 1-1.019-2.054l.959-2.655c.097.096.201.184.312.264.354.243.773.374 1.202.378.334-.001.662-.082.959-.234.439-.237.809-.585 1.074-1.008a6.33 6.33 0 0 0 .82-2.05c.184-.83.276-1.678.273-2.529l.002-.008v-.02l-.002-.005c.02-1.253-.193-2.5-.627-3.676a4.362 4.362 0 0 0-.845-1.385 2.582 2.582 0 0 0-.695-.529 2.115 2.115 0 0 0-.959-.233c-.43.003-.848.134-1.202.378a2.736 2.736 0 0 0-.316.253l-.955-2.644a8.09 8.09 0 0 1 1.38-2.518c.18-.215.397-.398.64-.539a.931.931 0 0 1 .454-.129.915.915 0 0 1 .422.112c.453.275.83.658 1.098 1.116a12.744 12.744 0 0 1 1.57 4.047c.42 1.901.631 3.841.629 5.787a23.177 23.177 0 0 1-1.374 8.164Zm11.827-14.023 2.08-1.901-.005 1.901h-2.075Zm43.52 52.467a2.733 2.733 0 0 1-.642.747.563.563 0 0 1-.33.14h-9.39c-.065-.002-.17-.015-.39-.192a4.693 4.693 0 0 1-1.132-1.825 12.807 12.807 0 0 1-.589-2.029l13.599-.226c.01.06.026.112.037.171a10.143 10.143 0 0 1-1.163 3.214Zm5.756.835a2.14 2.14 0 0 1-.72-.74 9.31 9.31 0 0 1-1.155-2.962 17.679 17.679 0 0 1-.344-2.042v-.005c0-.009-.004-.017-.005-.027a21.51 21.51 0 0 1-.126-2.348 17.228 17.228 0 0 1 1.029-6.212c.217-.593.54-1.142.953-1.62.106-.116.23-.215.368-.291a.406.406 0 0 1 .186-.052h4.49a9.745 9.745 0 0 0-.165.966c-.09.909-.13 1.821-.118 2.733 0 1.362.046 2.882.046 4.477a19.738 19.738 0 0 0 1.218 7.188c.138.337.295.667.468.988h-5.939a.395.395 0 0 1-.186-.053Zm10.76-1.211a3.627 3.627 0 0 1-.776 1.057c-.23.191-.342.205-.41.207a.395.395 0 0 1-.187-.053 2.14 2.14 0 0 1-.72-.74 9.306 9.306 0 0 1-1.154-2.961 19.782 19.782 0 0 1-.474-4.422c0-1.643-.046-3.172-.046-4.477-.001-.454.008-.87.023-1.265l1.3 4.972v-.001a7.337 7.337 0 0 0 1.531 3.05c.407.469.901.855 1.455 1.137.1.051.207.092.313.135l.064.028.116.044a11.779 11.779 0 0 1-1.036 3.289Zm31.779-.001a3.601 3.601 0 0 1-.774 1.057c-.23.191-.342.205-.41.207h-9.389c-.067-.002-.174-.015-.394-.193a4.676 4.676 0 0 1-1.134-1.824 12.858 12.858 0 0 1-.59-2.025l13.675-.235a11.381 11.381 0 0 1-.984 3.013Zm-4.562-20.049a1.288 1.288 0 0 0 1.503.753c.111.039.226.062.343.069h24.822a13.965 13.965 0 0 1-4.49 9.256 16.347 16.347 0 0 1-11.133 4.134h-14.708a11.782 11.782 0 0 0 2.693-2.465 14.83 14.83 0 0 0 2.434-4.618 1.3 1.3 0 0 0-2.466-.823 12.24 12.24 0 0 1-1.998 3.817 9.707 9.707 0 0 1-4.638 3.153 21.955 21.955 0 0 1-6.984.936h-10.913a2.57 2.57 0 0 1-.948-.918 5.298 5.298 0 0 1-.659-1.571l-.004-.013-2.19-8.377a1.296 1.296 0 0 0-1.258-.971c-.083-.001-.167.015-.252.023-.04-.004-.073-.023-.114-.023h-6.83a3.005 3.005 0 0 0-1.36.332c-.7.383-1.29.941-1.712 1.619a11.785 11.785 0 0 0-1.523 3.813 22.343 22.343 0 0 0-.542 5.011c0 .368.029.718.044 1.075H67.125a16.25 16.25 0 0 1-5.745-.95 15.955 15.955 0 0 1-6.483-4.729 53.832 53.832 0 0 1-5.735-8.509c-1.226-2.124-2.638-4.861-3.736-7.057a249.42 249.42 0 0 1-1.268-2.57h77.781c.07-.008.138-.022.206-.041l3.905 9.644Zm-4.249-47.361H44.159l13.74-35.937h57.33c.142.452.291.892.457 1.303a9.698 9.698 0 0 0 1.863 3.072c.373.4.811.733 1.296.986a3.53 3.53 0 0 0 1.6.392h1.754l-.398 30.184Zm10.714-30.184 4.107 16.165h-3.344L129.17 91.26h3.345Zm1.034 29.285a2.128 2.128 0 0 1-.719-.739 9.307 9.307 0 0 1-1.152-2.959 19.783 19.783 0 0 1-.472-4.419c-.002-.926.058-1.851.179-2.768.236.23.552.361.882.365h6.164a1.302 1.302 0 0 0 1.288-1.121c.15-1.533.587-3.024 1.289-4.395.057-.099.11-.185.161-.262h1.797a12.93 12.93 0 0 0-1.147 3.166 22.41 22.41 0 0 0-.542 5.012c-.043 2.45.37 4.888 1.219 7.187.138.336.293.665.466.985h-9.226a.407.407 0 0 1-.187-.052Zm14.135 8.256c-.905.125-1.816.201-2.729.226a2.076 2.076 0 0 1-1.157-.39 6.85 6.85 0 0 1-2.025-2.469 17.732 17.732 0 0 1-1.235-2.971h5.507c.044-.006.088-.015.131-.026.08.007.156.029.236.029a3.008 3.008 0 0 0 1.36-.332c.7-.383 1.29-.941 1.712-1.619a11.786 11.786 0 0 0 1.522-3.814c.369-1.644.551-3.325.542-5.01a19.737 19.737 0 0 0-1.218-7.189 7.7 7.7 0 0 0-1.485-2.442 4.006 4.006 0 0 0-1.073-.814 3.008 3.008 0 0 0-1.36-.332c-.076 0-.148.022-.224.028a1.169 1.169 0 0 0-.143-.029h-2.578l-1.026-4.037c.334-.49.741-.926 1.209-1.29.37-.303.828-.476 1.305-.493.261 0 .757.034 1.37.102 2.163.236 5.847.844 8.96 1.391.808.142 1.574.28 2.273.406a9.353 9.353 0 0 0-.653.856 18.303 18.303 0 0 0-2.351 5.911 35.385 35.385 0 0 0-.857 7.932 31.19 31.19 0 0 0 1.914 11.336 12.157 12.157 0 0 0 1.981 3.391 245.05 245.05 0 0 1-6.061 1.082c-1.363.224-2.695.424-3.847.567Zm16.709-6.016a9.184 9.184 0 0 1-1.708 2.877 3.072 3.072 0 0 1-.813.633 1.377 1.377 0 0 1-1.33 0 4.223 4.223 0 0 1-1.473-1.47 15.816 15.816 0 0 1-1.983-5.059 32.83 32.83 0 0 1-.789-7.341 28.678 28.678 0 0 1 1.724-10.362 9.197 9.197 0 0 1 1.708-2.877c.233-.255.508-.469.813-.632a1.37 1.37 0 0 1 1.33 0c.606.359 1.113.864 1.473 1.47a15.802 15.802 0 0 1 1.983 5.058c.539 2.41.803 4.873.789 7.343a28.646 28.646 0 0 1-1.724 10.36Z"/><path fill="#FFE632" d="M194.159 134.876a12.584 12.584 0 0 0-6.509-3.492 13.164 13.164 0 0 0-2.763-.299c-2.419.01-4.784.716-6.811 2.035a18.03 18.03 0 0 0-4.916 4.786 17.278 17.278 0 0 1-5.027 5.102 10.09 10.09 0 0 1-5.052 1.304 1.199 1.199 0 0 0-.302.072h-23.627a2.039 2.039 0 0 0-.922.223 2.737 2.737 0 0 0-1.022.951 5.803 5.803 0 0 0-.765 1.895 10.407 10.407 0 0 0-.254 2.34 9.259 9.259 0 0 0 .582 3.393c.181.477.451.915.794 1.292.192.203.417.373.665.501.286.146.601.222.922.223h21.457c.138.067.288.108.44.121.73.032 1.456.114 2.174.245a3.37 3.37 0 0 1 1.041.382c.462.295.804.746.963 1.272a10.35 10.35 0 0 1 .461 3.518V160.793a12.583 12.583 0 0 0 1.91 7.098 10.467 10.467 0 0 0 6.807 4.308c1.018.218 2.056.327 3.097.327a13.94 13.94 0 0 0 7.148-1.916 9.905 9.905 0 0 0 4.424-5.286c.422-1.206.645-2.471.661-3.748a12.944 12.944 0 0 0-.453-3.149 9.924 9.924 0 0 1-.381-2.402 6.773 6.773 0 0 1 .384-2.175l.093-.281a7.468 7.468 0 0 1 1.27-2.386c.735-.935 1.706-1.675 2.773-2.783a12.326 12.326 0 0 0 2.885-4.867 8.22 8.22 0 0 0 .421-2.578 8.814 8.814 0 0 0-2.568-6.079Zm-55.163 16.754a7.726 7.726 0 0 1-.207-1.837 6.748 6.748 0 0 1 .392-2.418c.052-.139.122-.27.207-.391h36.293c-.066.087-.137.169-.199.261a4.94 4.94 0 0 0-.798 2.601h-.002l-.007.121v.024c.014.744.224 1.471.609 2.107.104.178.221.342.339.504h-36.238a3.097 3.097 0 0 1-.389-.972Zm39.994.637a5.127 5.127 0 0 1-1.188-1.079 2.992 2.992 0 0 1-.404-.665 1.38 1.38 0 0 1-.123-.532v-.006c-.007-.464.125-.92.378-1.309a3.705 3.705 0 0 1 1.83-1.315c.389-.144.79-.253 1.198-.326l-1.691 5.232Zm14.848-9.553a10.113 10.113 0 0 1-1.456 2.895 24.096 24.096 0 0 1-2.758 2.839 10.35 10.35 0 0 0-2.714 4.302l-.093.282a9.385 9.385 0 0 0-.516 2.993 12.3 12.3 0 0 0 .453 3.009c.232.828.36 1.682.381 2.542a9.168 9.168 0 0 1-.529 2.929 7.315 7.315 0 0 1-3.296 3.877 11.346 11.346 0 0 1-5.808 1.544c-.858 0-1.714-.09-2.553-.27a7.857 7.857 0 0 1-5.193-3.215 10.037 10.037 0 0 1-1.468-5.648h-.001l.001-.011v-.042a13.776 13.776 0 0 0-.491-4.035 6.026 6.026 0 0 0-.719-1.503h12.277c.024 0 .044-.012.068-.013.053.004.102.012.16.013a1.958 1.958 0 0 0 1.511-.991l2.656-8.218a1.3 1.3 0 0 0-1.19-1.699 8.126 8.126 0 0 0-.346-.006c-.461.004-.92.036-1.377.095h-10.115a22.624 22.624 0 0 0 4.555-4.968 15.459 15.459 0 0 1 4.192-4.1 9.973 9.973 0 0 1 5.418-1.63c.746.002 1.49.083 2.219.241a10 10 0 0 1 5.173 2.746 6.215 6.215 0 0 1 1.848 4.282 5.568 5.568 0 0 1-.289 1.76ZM72.262 132.31H54.728a1.3 1.3 0 0 0-1.3 1.3v13.517a1.3 1.3 0 0 0 1.3 1.3h17.534a1.3 1.3 0 0 0 1.3-1.3V133.61a1.302 1.302 0 0 0-1.3-1.3Zm-16.234 2.6h14.934v10.917h-5.885l3.044-4.347a1.299 1.299 0 1 0-2.13-1.491l-3.836 5.478c-.07.111-.124.233-.157.36h-5.97V134.91ZM73.777 102.851h-13.56a1.3 1.3 0 0 0-1.252.947l-2.686 9.497a1.298 1.298 0 0 0 1.252 1.653h14.546a1.303 1.303 0 0 0 1.28-1.071l1.7-9.497a1.3 1.3 0 0 0-1.28-1.529Zm-2.788 9.497h-4.375l1.468-1.35a1.308 1.308 0 0 0 .42-.904 1.3 1.3 0 0 0-2.18-1.01l-3.426 3.152c-.03.036-.056.073-.081.112h-3.566l1.95-6.897h11.024l-1.234 6.897ZM91.43 102.851h-.946a8.809 8.809 0 0 0-8.733 7.651l-.396 2.975a1.303 1.303 0 0 0 .752 1.355c.168.077.352.116.537.116h14.548a1.299 1.299 0 0 0 1.296-1.202l.228-3.043a7.306 7.306 0 0 0-7.286-7.852Zm4.694 7.658-.138 1.839h-3.949l1.468-1.35a1.308 1.308 0 0 0 .422-.904 1.301 1.301 0 0 0-2.182-1.01l-3.425 3.152c-.03.036-.056.073-.082.112h-4.11l.2-1.504a6.21 6.21 0 0 1 6.156-5.393h.947a4.71 4.71 0 0 1 4.706 4.698c0 .119-.004.239-.013.36ZM110.926 90.577a4.177 4.177 0 1 0-.002 8.355 4.177 4.177 0 0 0 .002-8.355Zm0 5.754a1.58 1.58 0 0 1-1.458-.973 1.579 1.579 0 0 1 1.149-2.15 1.575 1.575 0 0 1 1.423 2.66 1.581 1.581 0 0 1-1.114.463ZM112.746 44.514h-4.014v3.905h-3.906v7.92h3.906v3.904h4.014v-3.904h3.905v-7.92h-3.905v-3.905ZM85.3 60.243h4.014v-3.904h3.906v-7.92h-3.906v-3.905H85.3v3.905h-3.907v7.92H85.3v3.904ZM100.923 64.041h-3.798v-3.905h-4.014v4.013h3.906v3.906h4.013v-3.906h3.907v-4.013h-4.014v3.905Z"/></svg>