<svg xmlns="http://www.w3.org/2000/svg" width="200" height="200" fill="none"><path fill="#BEBEC9" d="M137.439 15.602a7.348 7.348 0 0 0-1.282 2.95 10.046 10.046 0 0 0-.212 1.994c0 .12.004.194.005.214a1.3 1.3 0 0 0 2.596-.134l-.493.025.493-.02v-.005l-.493.025.493-.02-.001-.084c.004-.491.057-.98.157-1.46a4.809 4.809 0 0 1 .804-1.909 1.3 1.3 0 0 0-2.067-1.576ZM84.78 16.146c.837.24 1.615.648 2.286 1.2a7.968 7.968 0 0 1 1.964 2.463 8.407 8.407 0 0 1 .51 1.187l.017.057.003.01.507-.146-.509.14.002.005.507-.145-.509.14a1.3 1.3 0 0 0 2.507-.691 10.587 10.587 0 0 0-1.352-2.808 10.16 10.16 0 0 0-2-2.223 8.943 8.943 0 0 0-3.214-1.688 1.3 1.3 0 1 0-.718 2.5Z"/><path fill="#BEBEC9" d="M80.707 9.689a5.234 5.234 0 1 0 0 10.469 5.234 5.234 0 0 0 0-10.469Zm0 7.868a2.635 2.635 0 1 1 0-5.27 2.635 2.635 0 0 1 0 5.27ZM141.702 8.371a5.236 5.236 0 0 0-5.135 6.255 5.236 5.236 0 0 0 9.486 1.887 5.235 5.235 0 0 0-4.351-8.142Zm0 7.868a2.635 2.635 0 1 1 2.633-2.634 2.636 2.636 0 0 1-2.633 2.634ZM74.757 98.613c-.2-1.858-.3-3.726-.3-5.595 0-.653.01-1.337.033-2.04a1.3 1.3 0 0 0-2.599-.081c-.023.73-.034 1.44-.034 2.121 0 1.962.105 3.923.314 5.874a1.3 1.3 0 0 0 2.586-.28ZM147.564 148.928h.001v-.001l-.001.001Z"/><path fill="#BEBEC9" d="M168.188 148.091a17.116 17.116 0 0 0-2.611-6.244 10.046 10.046 0 0 0-5.079-3.837c-.002-.337-.008-.691-.008-1.021v-.035a70.251 70.251 0 0 1 .796-11.947 45.23 45.23 0 0 0 9.981-20.942 1.3 1.3 0 0 0-2.55-.503 42.578 42.578 0 0 1-9.608 19.995 1.27 1.27 0 0 0-.146.174 44.26 44.26 0 0 1-6.714 6.176c-7.913 5.918-18.074 9.568-30.161 9.571a53.293 53.293 0 0 1-17.593-2.848 1.305 1.305 0 0 0-1.405.359 1.298 1.298 0 0 0 .11 1.841c.129.114.279.2.441.256a55.901 55.901 0 0 0 18.447 2.992 52.533 52.533 0 0 0 29.851-8.765c-.03 1.206-.048 2.426-.048 3.676 0 .53.01 1.081.015 1.621a7.284 7.284 0 0 0-3.161 3.48 17.053 17.053 0 0 0-1.226 6.533c.005.1.022.2.051.296l-.006.009a5.952 5.952 0 0 0-.693 1.978c-.137.78-.202 1.57-.196 2.361.014 1.847.266 3.684.749 5.466a14.131 14.131 0 0 0 2.278 4.925 7.97 7.97 0 0 0 3.42 2.452c1.389.526 2.864.791 4.349.779a12.897 12.897 0 0 0 7.78-2.521l.001-.001a9.021 9.021 0 0 0 2.984-4.333c.534-1.68.791-3.436.762-5.199a31.938 31.938 0 0 0-.811-6.748l.001.004Zm-9.948-19.87c-.257 2.654-.35 5.494-.35 8.733v.035c0 1.055.011 2.141.027 3.243a1.305 1.305 0 0 0 .555 1.047v.001c.154.147.289.313.4.494a9.12 9.12 0 0 1 1.226 3.265 13.98 13.98 0 0 0-3.765-.532c-.794-.002-1.586.07-2.366.214a48.07 48.07 0 0 1 .535-3.745c.017-.086.024-.173.022-.26a250.106 250.106 0 0 1-.033-3.727c0-1.944.033-3.816.113-5.628a47.192 47.192 0 0 0 3.636-3.14Zm-6.565 13.976a49.888 49.888 0 0 0-.414 3.421 8.7 8.7 0 0 0-.94.509c.123-1.02.39-2.018.792-2.963.157-.339.345-.663.562-.967Zm14.099 16.999a6.424 6.424 0 0 1-2.11 3.113 10.33 10.33 0 0 1-6.193 1.98 9.414 9.414 0 0 1-3.4-.6 5.384 5.384 0 0 1-2.319-1.631 11.636 11.636 0 0 1-1.818-4.004 18.977 18.977 0 0 1-.659-4.787c-.006-.631.045-1.262.152-1.885.058-.389.181-.765.364-1.112v-.002a5.981 5.981 0 0 1 2.888-2.461l.012-.005a9.281 9.281 0 0 1 3.642-.695 10.273 10.273 0 0 1 5.106 1.28c.227.133.441.287.64.459a1.302 1.302 0 0 0 2.175-1.015 1.301 1.301 0 0 0-.418-.901 6.639 6.639 0 0 0-.994-.731 12.934 12.934 0 0 0-1.026-4.412c-.044-.101-.092-.184-.137-.28a8.315 8.315 0 0 1 1.779 1.847 14.572 14.572 0 0 1 2.19 5.292v.003c.469 2.03.72 4.103.75 6.186a13.712 13.712 0 0 1-.624 4.361ZM67.484 107.192v-.001h-.002l.002.001Z"/><path fill="#BEBEC9" d="M75.27 104.826a1.301 1.301 0 0 0-1.775-.476 5.93 5.93 0 0 1-2.933.845h-.028a5.694 5.694 0 0 1-2.09-.419l-.002-.001a8.846 8.846 0 0 1-2.024-1.165 1.307 1.307 0 0 0-.967-.249 1.305 1.305 0 0 0-1.101 1.478 1.298 1.298 0 0 0 .514.855 11.45 11.45 0 0 0 2.618 1.498 8.294 8.294 0 0 0 3.032.602v.001h.048a8.51 8.51 0 0 0 4.233-1.194 1.3 1.3 0 0 0 .476-1.775ZM69.71 101.62l-.004-.002-.003-.001.007.003ZM67.671 100.241l-.002-.001-.001-.001.003.002Z"/><path fill="#BEBEC9" d="M67.669 100.24c.356.325.736.623 1.135.893.283.194.585.357.902.485.146.058.296.104.45.136.115.024.233.037.351.04l.1-.001c.175-.007.348-.037.515-.088.235-.076.462-.177.676-.301l.004-.002c.68-.419 1.309-.914 1.877-1.474a1.3 1.3 0 1 0-1.781-1.894 8.438 8.438 0 0 1-1.369 1.1l-.004.002a2.977 2.977 0 0 1-.282-.168 7.438 7.438 0 0 1-.836-.662l-.002-.001a13.624 13.624 0 0 1-.357-.333 1.299 1.299 0 1 0-1.805 1.872c.147.142.29.274.426.396Z"/><path fill="#FFE632" d="M151.387 114.89a43.907 43.907 0 0 0 14.257-14.501 1.3 1.3 0 0 0-2.238-1.323h-.001a41.3 41.3 0 0 1-13.423 13.636 1.297 1.297 0 0 0-.391 1.796 1.298 1.298 0 0 0 1.796.392ZM170.397 102.927a1.303 1.303 0 0 0-1.631.849 33.175 33.175 0 0 1-7.68 12.766 49.165 49.165 0 0 1-13.047 9.658 1.295 1.295 0 0 0-.692 1.268 1.304 1.304 0 0 0 .462.882 1.287 1.287 0 0 0 .949.296 1.28 1.28 0 0 0 .487-.143 51.788 51.788 0 0 0 13.734-10.178 35.784 35.784 0 0 0 8.267-13.768 1.304 1.304 0 0 0-.849-1.63ZM137.44 130.33a76.13 76.13 0 0 1-17.034 2.664 94.984 94.984 0 0 1-3.43.064 69.24 69.24 0 0 1-12.996-1.13 1.31 1.31 0 0 0-.974.202 1.279 1.279 0 0 0-.547.831 1.306 1.306 0 0 0 1.032 1.521 71.91 71.91 0 0 0 13.485 1.176c1.158 0 2.333-.022 3.524-.065a78.744 78.744 0 0 0 17.631-2.757 1.297 1.297 0 0 0 .907-1.599 1.295 1.295 0 0 0-.611-.784 1.294 1.294 0 0 0-.987-.123ZM85.733 113.808c-5.172-4.067-8.611-9.467-10.937-15.83a1.3 1.3 0 0 0-1.667-.776 1.281 1.281 0 0 0-.812.99 1.263 1.263 0 0 0-.145.7 50.51 50.51 0 0 0 3.37 13.544 1.302 1.302 0 0 0 1.694.717 1.297 1.297 0 0 0 .717-1.693 46.183 46.183 0 0 1-1.389-4.014 33.718 33.718 0 0 0 7.563 8.406 1.292 1.292 0 0 0 1.44.111 1.301 1.301 0 0 0 .166-2.155ZM118.7 124.425a75.41 75.41 0 0 0 15.889-2.319 1.29 1.29 0 0 0 .799-.599 1.287 1.287 0 0 0 .139-.989 1.285 1.285 0 0 0-.223-.458 1.288 1.288 0 0 0-.864-.503 1.299 1.299 0 0 0-.508.034 72.807 72.807 0 0 1-15.341 2.236 93.93 93.93 0 0 1-3.913.084c-8.639 0-15.545-1.289-21.071-3.561a1.308 1.308 0 0 0-.995.002 1.304 1.304 0 0 0-.8 1.204 1.303 1.303 0 0 0 .807 1.198c5.913 2.431 13.165 3.757 22.059 3.757 1.304 0 2.645-.029 4.022-.086Z"/><path fill="#BEBEC9" d="M73.996 37.532c7.173-11.445 20.731-19.54 40.165-19.554 9.967 0 18.391 2.144 25.198 5.763a39.017 39.017 0 0 1 15.51 14.687 1.298 1.298 0 0 0 1.301.628 1.3 1.3 0 0 0 .941-1.946 41.622 41.622 0 0 0-16.532-15.664c-7.217-3.84-16.08-6.069-26.418-6.068-20.154-.015-34.71 8.51-42.37 20.776a1.298 1.298 0 0 0 .412 1.794 1.3 1.3 0 0 0 1.793-.416ZM132.116 70.5l.009-1.3a1.605 1.605 0 0 1-1.007-.382 4.985 4.985 0 0 1-1.423-2.233 10.401 10.401 0 0 1-.579-3.434 6.935 6.935 0 0 1 .789-3.469c.204-.36.493-.666.84-.89.351-.212.754-.318 1.163-.307a2.18 2.18 0 0 1 1.191.316c.566.398.984.971 1.191 1.63.318.915.473 1.879.457 2.846.014 1.5-.303 2.984-.928 4.347a3.884 3.884 0 0 1-.908 1.247c-.21.202-.488.32-.78.33h-.032l.017 1.3.009-1.3-.009 1.3.017 1.3-.002-.2v.2h.002l-.002-.2v.2a3.792 3.792 0 0 0 2.455-.942c.98-.906 1.7-2.06 2.082-3.339.452-1.369.681-2.801.678-4.243a9.712 9.712 0 0 0-1.155-4.882 5.217 5.217 0 0 0-1.718-1.802 4.978 4.978 0 0 0-5.09-.016 5.648 5.648 0 0 0-2.239 2.866 10.46 10.46 0 0 0-.627 3.708 12.272 12.272 0 0 0 1.299 5.604 6.558 6.558 0 0 0 1.699 2.11 4.219 4.219 0 0 0 2.592.936h.026l-.017-1.3ZM96.15 70.491l.078-1.297a2.124 2.124 0 0 1-1.205-.484 5.307 5.307 0 0 1-1.534-2.332c-.4-1.1-.604-2.261-.603-3.432a6.623 6.623 0 0 1 .738-3.276c.19-.341.457-.634.78-.855a2.016 2.016 0 0 1 1.053-.32l.097-.003c.38-.008.753.107 1.062.328.58.48.999 1.127 1.198 1.854a9.963 9.963 0 0 1 .464 3.13 10.335 10.335 0 0 1-.761 4.061 3.298 3.298 0 0 1-.725 1.087.761.761 0 0 1-.525.243l-.042-.001-.076 1.297-.076 1.298.194.006a3.367 3.367 0 0 0 2.263-.91 6.819 6.819 0 0 0 1.792-3.12c.375-1.287.562-2.621.556-3.962a11.276 11.276 0 0 0-1.109-5.155A5.502 5.502 0 0 0 98.12 56.7a4.377 4.377 0 0 0-2.566-.807l-.205.005a4.63 4.63 0 0 0-2.367.74 5.587 5.587 0 0 0-2.1 2.764 10.07 10.07 0 0 0-.596 3.545 12.061 12.061 0 0 0 1.361 5.65 6.97 6.97 0 0 0 1.772 2.16 4.736 4.736 0 0 0 2.652 1.033l.078-1.298ZM109.479 75.239l9.199-.297a1.3 1.3 0 0 0-.084-2.599l-9.199.297a1.296 1.296 0 0 0-.907.41 1.309 1.309 0 0 0-.351.931 1.304 1.304 0 0 0 1.342 1.258"/><path fill="#BEBEC9" d="M198.792 54.752a7.095 7.095 0 0 0-3.253-3.169 10.474 10.474 0 0 0-4.604-.945c-4.002.01-8.703 1.574-13.347 4.069a49.714 49.714 0 0 0-11.31 8.37 45.35 45.35 0 0 0-3.768-10.901 1.298 1.298 0 1 0-2.336 1.139 38.412 38.412 0 0 1 4.212 16.7 35.001 35.001 0 0 1-.876 7.746c-.062-.025-.126-.056-.188-.081a16.388 16.388 0 0 0-5.983-1.527c-.308-.001-.616.019-.921.058a1.303 1.303 0 0 0-1.118 1.46 1.301 1.301 0 0 0 1.46 1.118c.192-.025.386-.037.579-.036 1.731.132 3.422.583 4.988 1.329 3.013 1.245 6.634 3.182 10.614 4.821a35.063 35.063 0 0 0 12.356 2.97l.133 5.643c-6.337-.192-11.951-2.512-17.156-4.926-1.096-.507-2.169-1.013-3.231-1.506a28.566 28.566 0 0 0-3.101-1.41c-.038-.014-.076-.008-.114-.019-.475-.2-.949-.4-1.42-.58a21.352 21.352 0 0 0-7.583-1.67c-.76-.002-1.519.065-2.268.2a1.303 1.303 0 0 0-1.038 1.003 1.3 1.3 0 0 0 1.502 1.555 10.08 10.08 0 0 1 1.804-.158c2.289.09 4.543.598 6.65 1.496.045.017.092.038.138.056a39.21 39.21 0 0 1-15.974 14.762c-7.356 3.819-16.473 6.055-26.999 6.055-14.761.001-26.438-3.495-34.356-9.541a30.456 30.456 0 0 1-9.055-10.899 31.745 31.745 0 0 1-3.091-12.536 1.292 1.292 0 0 0 .332-2.562c-.122-.02-.249-.047-.371-.068.006-.582.016-1.253.025-1.523a1.3 1.3 0 0 0-2.598-.086 72.27 72.27 0 0 0-.021 1.108 65.435 65.435 0 0 1-15.213-5.124 25.072 25.072 0 0 1-6.323-4.263 8.973 8.973 0 0 1-1.677-2.192 4.43 4.43 0 0 1-.542-2.046c.008-.673.18-1.334.501-1.925l.001-.002a4.468 4.468 0 0 1 2.081-2.026 7.922 7.922 0 0 1 3.47-.683c2.644.1 5.249.675 7.69 1.698a43.645 43.645 0 0 1 8.611 4.608 1.3 1.3 0 0 0 1.466-2.148 46.208 46.208 0 0 0-9.136-4.883 24.52 24.52 0 0 0-8.631-1.875 10.483 10.483 0 0 0-4.608.946 7.09 7.09 0 0 0-3.253 3.17 6.734 6.734 0 0 0-.792 3.12 7.024 7.024 0 0 0 .832 3.24 14.39 14.39 0 0 0 4.418 4.752 44.313 44.313 0 0 0 10.896 5.45 74.75 74.75 0 0 0 10.23 2.84 34.538 34.538 0 0 0 3.366 14.15c3.36 6.895 9.142 12.4 16.895 16.142 7.755 3.745 17.48 5.757 28.853 5.758 10.893 0 20.429-2.315 28.197-6.348a43.98 43.98 0 0 0 12.121-9.158 19.613 19.613 0 0 1 5.816 3.362c2.856 2.28 5.56 5.231 9.126 7.865a30.019 30.019 0 0 0 14.262 5.76 1.304 1.304 0 0 0 1.459-1.112 1.3 1.3 0 0 0-1.104-1.464 32.905 32.905 0 0 1-2.27-.401l.42-1.535 2.274.568a1.3 1.3 0 1 0 .63-2.522l-2.218-.554.456-1.666c.672.188 1.373.366 2.108.532a1.301 1.301 0 0 0 1.389-1.96 1.299 1.299 0 0 0-.812-.575 31.209 31.209 0 0 1-8.729-3.238 32.07 32.07 0 0 1-6.301-4.916 36.631 36.631 0 0 0 12.817 2.523c1.536 0 3.07-.117 4.588-.35a1.298 1.298 0 0 0-.393-2.57c-.83.127-1.642.204-2.446.254l-.038-1.644 2.406-.11a1.304 1.304 0 0 0 1.164-.856 1.294 1.294 0 0 0-.347-1.402 1.292 1.292 0 0 0-.935-.339l-2.35.107-.034-1.43a20.874 20.874 0 0 0 2.819-.445 1.3 1.3 0 0 0-.586-2.533c-1.396.32-2.825.48-4.258.476-5.06.007-10.109-1.905-14.724-4.01a54.942 54.942 0 0 0-1.726-6.456 71.306 71.306 0 0 0 18.875-5.489 30.927 30.927 0 0 0 7.875-4.973c.972-.87 1.8-1.89 2.454-3.018a7.135 7.135 0 0 0 .957-3.476 6.75 6.75 0 0 0-.79-3.12Zm-15.462 48.226-1.601 5.85a26.434 26.434 0 0 1-4.707-1.951c-3.878-2.072-6.741-4.842-9.653-7.5a29.762 29.762 0 0 0-8.605-6.016 38.126 38.126 0 0 0 3.271-4.79c.602.267 1.213.545 1.835.834a24.61 24.61 0 0 1 3.727 2.44c2.639 2.07 4.681 4.465 7.611 6.748a28.278 28.278 0 0 0 8.122 4.385Zm-16.655-28.115a51.977 51.977 0 0 1 1.487 5.026c-.76-.36-1.501-.71-2.23-1.048.32-1.311.568-2.64.743-3.978Zm29.677-14.778a13.252 13.252 0 0 1-4.206 4.145 46.98 46.98 0 0 1-11.499 5.301 70.639 70.639 0 0 1-12.12 2.79 53.677 53.677 0 0 0-1.267-2.98 1.299 1.299 0 0 0-.313-.42c-.029-.87-.09-1.734-.183-2.592a46.382 46.382 0 0 1 12.058-9.334c4.376-2.368 8.802-3.767 12.113-3.757a7.918 7.918 0 0 1 3.466.683 4.472 4.472 0 0 1 2.081 2.024c.321.592.492 1.253.5 1.926a4.554 4.554 0 0 1-.63 2.214Z"/><path fill="#BEBEC9" d="m41.943 55.522.001-.002v.002Z"/><path fill="#FFE632" d="M157.058 37.056a21.798 21.798 0 0 0-7.259-7.556 17.257 17.257 0 0 0-9.05-2.55c-.922 0-1.844.07-2.756.21a16.723 16.723 0 0 0-7.493 3.234c-3.149 2.32-5.622 5.283-8.318 7.567a18.087 18.087 0 0 1-4.263 2.814 12.416 12.416 0 0 1-5.209 1.103 12.751 12.751 0 0 1-6.357-1.49c-2.468-1.354-4.229-3.552-6.126-5.92-1.894-2.348-3.933-4.869-7.106-6.46a13.874 13.874 0 0 0-6.235-1.496 15.348 15.348 0 0 0-8.596 2.78 24.473 24.473 0 0 0-7.254 8.054 1.3 1.3 0 0 0 2.243 1.314 21.893 21.893 0 0 1 6.465-7.213 12.747 12.747 0 0 1 7.142-2.335c1.763.005 3.5.423 5.072 1.221 1.662.88 3.141 2.07 4.355 3.508 1.93 2.135 3.625 4.737 6.059 6.89a14.616 14.616 0 0 0 4.335 2.692 16.177 16.177 0 0 0 6.003 1.055c2.836.011 5.618-.77 8.033-2.256 3.365-2.03 5.903-4.966 8.572-7.44a25.139 25.139 0 0 1 4.16-3.25 13.31 13.31 0 0 1 4.909-1.802c.783-.12 1.573-.18 2.365-.18a14.65 14.65 0 0 1 7.698 2.17 19.21 19.21 0 0 1 6.382 6.674 1.3 1.3 0 1 0 2.23-1.338h-.001Z"/><path fill="#FFE632" d="M154.869 38.528a39.154 39.154 0 0 1 5.321 19.91 35.639 35.639 0 0 1-12.394 27.175c-7.956 6.97-19.464 11.337-33.635 11.34-14.171-.003-25.68-4.37-33.635-11.34a35.638 35.638 0 0 1-12.394-27.175A39.934 39.934 0 0 1 73.3 38.589a1.3 1.3 0 1 0-2.251-1.299 42.522 42.522 0 0 0-5.517 21.148 38.252 38.252 0 0 0 13.28 29.13c8.491 7.44 20.648 11.986 35.349 11.984 14.701.002 26.858-4.544 35.348-11.984a38.253 38.253 0 0 0 13.281-29.13 41.76 41.76 0 0 0-5.679-21.228 1.313 1.313 0 0 0-.794-.602 1.298 1.298 0 0 0-1.587.933 1.294 1.294 0 0 0 .139.987Z"/><path fill="#BEBEC9" d="M111.934 175.584v-7.697a7.78 7.78 0 0 0-.78-3.541 9.837 9.837 0 0 0-2.748-3.153c-.568-.437-1.1-.918-1.591-1.439.23-.265.444-.542.644-.831a6.603 6.603 0 0 0 1.248-3.754v-6.567c0-.028-.014-.052-.016-.08.002-.064.016-.127.016-.192a1.277 1.277 0 0 0-.076-.376 6.675 6.675 0 0 0-.532-1.995 10.616 10.616 0 0 0-1.798-2.492 3.165 3.165 0 0 1-.497-.781 2.573 2.573 0 0 1-.184-1.026 27.463 27.463 0 0 0-4.4-15.232c-4.103-6.313-10.522-10.648-17.23-13.426a52.993 52.993 0 0 0-18.007-3.974 2.094 2.094 0 0 0-.12-.335 2.73 2.73 0 0 0-.87-1.004 6.186 6.186 0 0 0-1.644-.804 5.803 5.803 0 0 0 1.756-.59A4.384 4.384 0 0 0 67 104.47c.51-.991.615-2.142.293-3.21.2-.108.392-.226.579-.355.37-.249.693-.561.954-.923.289-.404.446-.887.451-1.384a2.333 2.333 0 0 0-.23-1.003 3.32 3.32 0 0 0-1.06-1.219 8.315 8.315 0 0 0-2.294-1.109l.004.001c.388.118.745.248 1.068.38a4.792 4.792 0 0 0-6.307-5.26c-.031.007-.06.018-.09.024a5.994 5.994 0 0 0-.447-.278 5.222 5.222 0 0 0-2.54-.698l-.26.008a6.36 6.36 0 0 0-2.05.432 4.378 4.378 0 0 0-.714.373 3.332 3.332 0 0 0-.756-.085 5.696 5.696 0 0 0-3.88 1.633 3.72 3.72 0 0 0-.811 3.39c-.669.2-1.315.466-1.93.794a4.58 4.58 0 0 0-1.271 1 2.5 2.5 0 0 0-.631 1.617c.005.496.162.979.45 1.383a4.677 4.677 0 0 0 1.844 1.44 16.059 16.059 0 0 0 4.21 1.226c.455.077.932.143 1.42.201v3.534c-.958.153-1.893.424-2.784.807-.459.201-.88.479-1.243.824a2.486 2.486 0 0 0-.478.655 2.092 2.092 0 0 0-.128.349 52.319 52.319 0 0 0-24.58 7.298 33.405 33.405 0 0 0-10.693 10.113 27.46 27.46 0 0 0-4.4 15.232c.017.448-.09.891-.31 1.281-.18.294-.389.569-.622.821a9.52 9.52 0 0 0-1.405 1.903 6.708 6.708 0 0 0-.701 2.586c-.002.028-.016.051-.016.079 0 .03.007.059.007.088-.012.194-.03.381-.03.588 0 .039.02.073.023.112v6.051a6.6 6.6 0 0 0 1.248 3.754c.208.297.433.582.672.855a7.206 7.206 0 0 1-.933.899 16.51 16.51 0 0 0-2.688 2.5 7.364 7.364 0 0 0-1.52 4.668l-.002.006v7.733a6.822 6.822 0 0 0 1.318 3.914c1.462 2.085 3.916 3.84 7.154 5.416 4.86 2.352 11.539 4.261 19.459 5.603a163.064 163.064 0 0 0 26.825 2.104c14.867-.003 28.324-1.768 38.166-4.662a41.899 41.899 0 0 0 11.831-5.183 13.523 13.523 0 0 0 3.44-3.278 6.828 6.828 0 0 0 1.316-3.886c.001-.01.006-.018.006-.028Zm-47.258-72.28v.003a1.9 1.9 0 0 1-.793.693 3.059 3.059 0 0 1-1.381.365 1.264 1.264 0 0 1-.862-.264.981.981 0 0 1-.25-.356c-.015-.036-.028-.09-.042-.132v-.765a24.127 24.127 0 0 0 3.505-.66 1.856 1.856 0 0 1-.177 1.116Zm-4.878-9.536a1.399 1.399 0 0 1 1.18-.83 2.781 2.781 0 0 1 2.39.24 2.506 2.506 0 0 1 .971 1.71c-.3-.072-.622-.133-.942-.195a1.288 1.288 0 0 0-1.609-.105c-.35.25-1.24.78-1.92.29a1.384 1.384 0 0 1-.07-1.11ZM55.46 92.67c.167-.17.37-.302.593-.387.388-.147.799-.23 1.214-.243l.113-.003c.131 0 .262.013.39.04-.269.393-.46.835-.563 1.301a4.133 4.133 0 0 0-.086.937c-.284.212-.51.396-.697.506a.916.916 0 0 1-.49.163 1.38 1.38 0 0 1-.543-.154 1.494 1.494 0 0 1-.17-.348 2.362 2.362 0 0 1-.13-.765c-.017-.383.115-.759.369-1.047Zm-3.786.842a2.03 2.03 0 0 1 .887-.541 4.63 4.63 0 0 0-.07.746c.005.392.056.782.153 1.162-.05.03-.1.063-.143.084a.789.789 0 0 1-.358.09 1.373 1.373 0 0 1-.572-.165.61.61 0 0 1-.097-.176 1.247 1.247 0 0 1-.082-.446 1.11 1.11 0 0 1 .282-.754Zm-1.767 6.095a7.007 7.007 0 0 1-1.937-.834 1.735 1.735 0 0 1-.215-.173c.046-.046.096-.09.149-.128.378-.262.79-.47 1.225-.62.537-.193 1.085-.35 1.642-.474.436.177.901.271 1.372.276a3.396 3.396 0 0 0 1.488-.35 4.3 4.3 0 0 0 .424-.243c.03.017.05.04.083.057a3.94 3.94 0 0 0 1.797.466 3.513 3.513 0 0 0 1.828-.534c.145-.089.254-.171.372-.256.051.044.098.095.152.135a3.676 3.676 0 0 0 2.21.73 4.634 4.634 0 0 0 2.01-.495c1.149.173 2.271.493 3.338.955.273.121.527.283.752.48a3.269 3.269 0 0 1-.882.544c-1.123.467-2.3.79-3.504.961a31.425 31.425 0 0 1-5.034.384 26.918 26.918 0 0 1-7.27-.881Zm8.84 4.362v3.724c-.08.021-.169.042-.267.06a7.233 7.233 0 0 1-1.306.11 6.458 6.458 0 0 1-1.573-.173v-4.636c.516.022 1.04.034 1.576.034.492 0 .974-.013 1.45-.031.001.029 0 .058.003.087.017.278.057.554.117.825Zm-7.92 5.871c.282-.213.6-.374.94-.476.459-.156.928-.28 1.405-.371.033.081.073.16.12.235.22.303.516.543.857.697.438.199.901.336 1.377.408a9.993 9.993 0 0 0 1.648.13c.81.011 1.617-.09 2.4-.301.351-.096.686-.248.99-.45.192-.13.359-.295.492-.484a1.66 1.66 0 0 0 .12-.235c.658.118 1.3.312 1.912.58.14.062.27.141.39.236 0 .024-.013.045-.013.07v.308c-.004.037-.022.069-.022.107 0 .037.018.069.022.106v3.877c0 .006.003.011.003.017a2.314 2.314 0 0 1-.466.265 9.836 9.836 0 0 1-2.364.64 21.833 21.833 0 0 1-3.464.262 18.578 18.578 0 0 1-5-.603 4.598 4.598 0 0 1-1.252-.531l-.043-.034.003-.016v-4.166a1.247 1.247 0 0 0-.055-.271ZM8.583 147.035a8.862 8.862 0 0 1 1.446-1.925c.362-.428.659-.907.882-1.421a5.173 5.173 0 0 0 .384-2.029 24.848 24.848 0 0 1 3.981-13.817c3.707-5.717 9.667-9.803 16.042-12.438a50.548 50.548 0 0 1 16.965-3.776v2.648c.006.042.015.083.025.124-.01.04-.019.081-.025.122.004.427.139.844.386 1.192a3.66 3.66 0 0 0 1.446 1.138c.975.437 2.006.737 3.064.893 1.32.215 2.657.321 3.996.315 1.935.028 3.865-.21 5.735-.709a6.982 6.982 0 0 0 2.002-.892c.298-.201.558-.453.767-.745.248-.349.383-.765.386-1.192a.318.318 0 0 1 0-.246v-2.66a49.91 49.91 0 0 1 23.1 6.913 30.835 30.835 0 0 1 9.874 9.313 24.845 24.845 0 0 1 3.981 13.817c-.016.9.209 1.787.652 2.57.264.443.572.859.919 1.24.409.421.765.89 1.059 1.397.273.56.42 1.173.429 1.797a4.174 4.174 0 0 1-.764 1.949 14.9 14.9 0 0 1-5.753 4.317c-4.231 2.079-10.326 3.867-17.603 5.112a148.772 148.772 0 0 1-24.784 1.966c-13.764.002-26.228-1.67-35.15-4.333a36.781 36.781 0 0 1-10.387-4.577 10.356 10.356 0 0 1-2.604-2.485 4.025 4.025 0 0 1-.787-2.218c.033-.47.147-.93.336-1.36Zm-.342 6.622a21.004 21.004 0 0 0 5.4 3.607c4.579 2.243 10.862 4.062 18.31 5.341a151.473 151.473 0 0 0 25.224 2.003c13.979-.002 26.631-1.683 35.891-4.441a39.207 39.207 0 0 0 11.143-4.944 15.865 15.865 0 0 0 1.898-1.562v1.508a3.996 3.996 0 0 1-.792 2.283 14.9 14.9 0 0 1-5.753 4.317c-4.231 2.079-10.326 3.867-17.603 5.112a148.771 148.771 0 0 1-24.784 1.966c-13.764.002-26.228-1.67-35.149-4.333a36.783 36.783 0 0 1-10.388-4.577 10.356 10.356 0 0 1-2.604-2.485 4.002 4.002 0 0 1-.793-2.283v-1.512Zm-2.75 11.921a6.639 6.639 0 0 1 1.942-2.201 16.034 16.034 0 0 0 2.025-1.826 24.363 24.363 0 0 0 4.183 2.552c4.579 2.244 10.862 4.062 18.31 5.341a151.366 151.366 0 0 0 25.224 2.003c13.979-.002 26.631-1.682 35.891-4.441a39.208 39.208 0 0 0 11.143-4.944c.245-.174.472-.352.701-.531.291.322.602.625.931.907.881.67 1.699 1.417 2.446 2.233a4.784 4.784 0 0 1 1.045 3.175l-.001.005a4.22 4.22 0 0 1-.854 2.429c-1.03 1.5-3.139 3.109-6.152 4.561-4.516 2.19-11.008 4.07-18.76 5.379a160.432 160.432 0 0 1-26.39 2.067c-14.656.002-27.926-1.755-37.432-4.556a39.46 39.46 0 0 1-11.08-4.822 11.028 11.028 0 0 1-2.79-2.629 4.23 4.23 0 0 1-.853-2.416c-.02-.788.141-1.57.47-2.286Zm103.84 10.006a4.226 4.226 0 0 1-.854 2.43c-1.03 1.5-3.139 3.108-6.152 4.56-4.516 2.191-11.008 4.07-18.76 5.38a160.541 160.541 0 0 1-26.39 2.067c-14.656.002-27.926-1.756-37.432-4.557a39.46 39.46 0 0 1-11.08-4.822 11.024 11.024 0 0 1-2.79-2.628 4.228 4.228 0 0 1-.854-2.43v-2.313a21.979 21.979 0 0 0 5.872 3.91c4.86 2.351 11.54 4.26 19.459 5.603a163.064 163.064 0 0 0 26.825 2.103c14.867-.002 28.324-1.767 38.166-4.662a41.885 41.885 0 0 0 11.832-5.182 16.228 16.228 0 0 0 2.161-1.789v2.317l-.003.013ZM67.001 104.47l-.001.002.001-.002ZM7.63 122.887a1.301 1.301 0 0 0 1.983 1.602c.131-.109.24-.243.319-.395 2.556-4.889 7.19-8.748 12.07-11.371a1.29 1.29 0 0 0 .628-.771 1.297 1.297 0 0 0-.871-1.618 1.306 1.306 0 0 0-.99.1c-5.192 2.801-10.233 6.925-13.14 12.453ZM8.854 115.242a29.72 29.72 0 0 1 4.576-4.089 1.3 1.3 0 0 0-1.533-2.101 32.353 32.353 0 0 0-4.975 4.45 1.293 1.293 0 0 0-.334.938 1.304 1.304 0 0 0 .865 1.16 1.302 1.302 0 0 0 1.401-.358ZM132.796 130.532l-.001-.002.001.002ZM153.51 105.051a1.302 1.302 0 0 0-1.361 1.235 11.293 11.293 0 0 1-.756 3.504 14.673 14.673 0 0 1-1.573 2.965 20.717 20.717 0 0 1-1.505 1.926 6.612 6.612 0 0 0-2.646-1.437c-.171-.05-.342-.088-.513-.127a15.903 15.903 0 0 0 2.726-3.771l-.001.002a8.256 8.256 0 0 0 .871-3.226 1.303 1.303 0 0 0-.741-1.242 1.299 1.299 0 0 0-1.855 1.113h-.001a5.66 5.66 0 0 1-.613 2.219v.001a14.302 14.302 0 0 1-2.638 3.51l-.003.003a37.77 37.77 0 0 1-1.144 1.125c-.019.018-.026.043-.043.061a3.894 3.894 0 0 0-2.513 1.198 2.654 2.654 0 0 0-.235.332 5.097 5.097 0 0 0-1.15.565 9.712 9.712 0 0 0-2.265 2.204 17.036 17.036 0 0 0-1.721 2.784 14.518 14.518 0 0 0-1.161 3.684 20.642 20.642 0 0 0-.354 3.721c-.004.571.031 1.142.103 1.708.056.491.183.97.378 1.424a4.381 4.381 0 0 0 1.341 1.706 3.068 3.068 0 0 0 3.812-.073c.307.45.695.839 1.144 1.148a3.308 3.308 0 0 0 1.844.575 3.41 3.41 0 0 0 2.395-1.019c.49-.487.822-1.11.953-1.788.19.149.393.279.607.391a3.199 3.199 0 0 0 2.446.237c.348-.103.672-.276.951-.509.386-.332.671-.766.824-1.252.134-.43.199-.878.193-1.329a11.023 11.023 0 0 0-.498-2.916 31.747 31.747 0 0 0-.624-1.912 6.762 6.762 0 0 0 1.152-3.76c0-.354-.031-.708-.091-1.057a2.68 2.68 0 0 0 .461-1.488 2.815 2.815 0 0 0-.05-.389 24.752 24.752 0 0 0 2.315-2.882l.001-.001a17.358 17.358 0 0 0 1.848-3.491c.536-1.378.849-2.833.925-4.31a1.302 1.302 0 0 0-1.235-1.362Zm-6.893 24.149-.006.011-.02.007-.195.032a.664.664 0 0 1-.305-.084 2.662 2.662 0 0 1-.84-.833 10.043 10.043 0 0 1-1.112-2.243 14.906 14.906 0 0 1-.368-1.144l-.017-.063-.004-.014a1.294 1.294 0 0 0-.569-.785 1.297 1.297 0 0 0-1.975 1.307c0 .001.033.209.085.558.078.522.195 1.35.291 2.201.096.762.152 1.529.17 2.298v.054a.803.803 0 0 1-.256.526.823.823 0 0 1-.559.26.694.694 0 0 1-.397-.136 2.152 2.152 0 0 1-.635-.757 7.375 7.375 0 0 1-.714-3.547 16.89 16.89 0 0 1 .152-2.179 1.296 1.296 0 0 0-1.119-1.457 1.3 1.3 0 0 0-1.458 1.118 19.287 19.287 0 0 0-.174 2.518c.003.658.054 1.315.152 1.966.001.027-.011.051-.008.078h-.001l.01.205c.016.337-.092.668-.302.932a.6.6 0 0 1-.442.236.538.538 0 0 1-.325-.123 1.824 1.824 0 0 1-.525-.712l-.001-.002a2.786 2.786 0 0 1-.156-.674 10.219 10.219 0 0 1-.079-1.354c.005-1.088.109-2.173.31-3.241.178-1.041.493-2.053.936-3.011a13.416 13.416 0 0 1 2.003-3.013c.32-.361.683-.682 1.08-.955a2.03 2.03 0 0 1 .815-.347 1.29 1.29 0 0 0 1.088-1.011l.009.005.014-.019c.039-.035.194-.226.912-.324a7.293 7.293 0 0 1 3.521.496c.374.155.717.377 1.011.656.236.227.406.515.489.832l.003.018-.004.014-.065.1-.027.028.004.004a1.291 1.291 0 0 0-.403 1.42h-.002c.089.319.132.648.127.979a4.203 4.203 0 0 1-1.014 2.722 1.303 1.303 0 0 0-.218 1.265c.257.712.566 1.566.805 2.401a8.71 8.71 0 0 1 .397 2.2c.012.198-.018.396-.089.581Z"/></svg>