<svg width="200" height="200" viewBox="0 0 200 200" xmlns="http://www.w3.org/2000/svg"><g id="type=basket-2, mode=dark" clip-path="url(#clip0_1394_7040)"><g id="b"><g id="Group"><path id="Vector" d="M121.529 58.81C121.339 58.81 121.139 58.77 120.959 58.68C119.889 58.16 118.809 57.51 117.879 56.4C117.119 57.16 116.179 57.76 115.139 58.13C114.459 58.37 113.719 58.02 113.479 57.34C113.239 56.66 113.599 55.92 114.269 55.68C115.369 55.29 116.299 54.51 116.799 53.54C117.029 53.1 117.489 52.86 117.969 52.84C118.459 52.84 118.909 53.13 119.119 53.57C119.739 54.84 120.549 55.59 122.099 56.35C122.749 56.67 123.009 57.44 122.699 58.09C122.469 58.55 122.009 58.82 121.529 58.82V58.81Z"/><path id="Vector_2" d="M161.859 93.22C161.779 93.22 161.689 93.22 161.599 93.19L157.869 92.45C157.169 92.31 156.709 91.63 156.849 90.92C156.989 90.22 157.669 89.76 158.379 89.9L162.119 90.64C162.819 90.78 163.279 91.46 163.139 92.17C163.019 92.79 162.469 93.22 161.869 93.22H161.859Z"/><path id="Vector_3" d="M97.4694 120.91C97.3594 120.91 97.2494 120.9 97.1394 120.87C71.2394 114.16 42.2394 106.59 25.8194 101.54C24.3094 101.09 23.3094 100.01 23.1694 98.6699C23.0294 97.3699 23.7594 96.0899 25.0894 95.3299C29.7394 92.1699 34.3594 89.6699 39.8994 86.7299C42.4694 85.3699 45.1194 84.1199 47.7894 83.0099L49.1694 82.4399C55.7994 79.6799 63.3194 76.5399 66.6794 75.4499C69.0694 74.6799 73.0994 74.2899 75.6594 74.5899C78.5494 74.9299 84.0094 75.7999 91.8694 77.1999C92.5794 77.3299 93.0494 77.9999 92.9194 78.7099C92.7894 79.4199 92.1194 79.8899 91.4094 79.7599C83.5994 78.3699 78.1994 77.4999 75.3494 77.1699C73.1394 76.9099 69.5294 77.2599 67.4694 77.9299C64.2094 78.9899 56.4194 82.2299 50.1494 84.8399L48.7694 85.4099C46.1794 86.4899 43.5994 87.7099 41.0994 89.0299C35.6094 91.9399 31.0394 94.4099 26.4894 97.5099C26.4594 97.5299 26.4194 97.5499 26.3894 97.5699C25.9594 97.8099 25.7094 98.1299 25.7394 98.3899C25.7694 98.6499 26.0894 98.9099 26.5694 99.0499C42.9494 104.09 71.9194 111.66 97.7794 118.36C98.4794 118.54 98.8894 119.25 98.7094 119.94C98.5594 120.53 98.0294 120.91 97.4494 120.91H97.4694Z"/><path id="Vector_4" d="M127.82 128.13C125.69 128.13 123.53 127.86 121.4 127.3C120.02 126.98 115.7 125.82 110.7 124.47C105.89 123.17 100.45 121.7 97.1496 120.87C96.4496 120.69 96.0296 119.99 96.2096 119.29C96.3896 118.59 97.0896 118.17 97.7896 118.35C101.1 119.19 106.56 120.66 111.38 121.96C116.15 123.25 120.65 124.46 122.02 124.78C127.7 126.25 133.53 125.53 138.48 122.77C146.59 118.29 166.1 104.78 174.44 99.01C175.1 98.57 175.03 97.82 174.99 97.6C174.9 97.05 174.53 96.39 173.76 96.18L161.56 93.18C160.86 93.01 160.44 92.3 160.61 91.61C160.78 90.91 161.49 90.49 162.18 90.66L174.41 93.66C176.06 94.11 177.28 95.49 177.55 97.18C177.81 98.78 177.17 100.3 175.89 101.16C167.54 106.94 147.95 120.5 139.74 125.04C136.08 127.09 131.99 128.13 127.82 128.13Z"/><path id="Vector_5" d="M128.15 139.93C126.06 139.93 123.93 139.66 121.82 139.11C116.93 137.79 109.92 135.98 101.81 133.88C96.74 132.57 91.24 131.15 85.54 129.66C84.85 129.48 84.43 128.77 84.61 128.07C84.79 127.38 85.51 126.96 86.2 127.14C91.89 128.62 97.4 130.05 102.46 131.36C110.58 133.46 117.59 135.27 122.48 136.59C128.06 138.04 133.73 137.32 138.44 134.58C146.86 129.93 164.61 117.9 171.85 112.95C173.02 112.11 173.31 111.55 173.68 110.06C173.98 108.88 174.59 102.22 174.93 98.03C174.99 97.31 175.62 96.78 176.33 96.84C177.05 96.9 177.58 97.53 177.52 98.24C177.43 99.33 176.64 108.91 176.2 110.68C175.72 112.61 175.16 113.76 173.33 115.07C166.04 120.06 148.21 132.14 139.72 136.83C136.22 138.87 132.24 139.92 128.14 139.92L128.15 139.93Z"/><path id="Vector_6" d="M67.6294 124.99C67.5194 124.99 67.3994 124.98 67.2894 124.94C54.8594 121.57 42.7794 117.98 33.9594 115.35L28.6294 113.77C28.5594 113.75 28.4794 113.72 28.4194 113.69C27.4194 113.19 25.3394 112.15 24.7494 110.09C24.2994 108.53 23.3194 99.91 23.2094 98.93C23.1294 98.22 23.6394 97.57 24.3494 97.49C25.0694 97.41 25.7094 97.92 25.7894 98.63C26.1994 102.24 26.9594 108.35 27.2494 109.37C27.5094 110.28 28.7794 110.95 29.4794 111.3L34.7094 112.85C44.0094 115.61 55.5794 119.06 67.9794 122.42C68.6694 122.61 69.0794 123.32 68.8894 124.01C68.7294 124.59 68.2094 124.97 67.6394 124.97L67.6294 124.99Z"/><path id="Vector_7" d="M125.259 172.14C123.899 172.14 122.479 171.88 120.999 171.25C112.539 167.86 92.5294 150.41 72.7794 132.82C66.8194 127.55 65.6594 121.35 68.0194 118.64C69.5594 116.86 72.7994 116.32 77.2794 120.13C95.9294 136.03 122.479 156.81 122.739 157.02C127.659 160.67 133.829 158.71 147.159 149.26C148.709 148.15 150.269 147.08 151.889 145.97C156.489 142.81 161.689 139.24 168.979 133.22C169.529 132.76 170.349 132.84 170.809 133.39C171.269 133.94 171.189 134.76 170.639 135.22C163.269 141.31 158.009 144.92 153.369 148.11C151.759 149.22 150.219 150.28 148.669 151.38C136.109 160.29 128.009 164.16 121.169 159.09C120.879 158.86 94.2894 138.05 75.5994 122.12C73.1394 120.03 70.8794 119.32 69.9894 120.35C68.8394 121.68 69.3694 126.33 74.5094 130.88C88.9894 143.77 113.219 165.34 121.999 168.85C126.249 170.65 129.859 168.6 134.039 166.22C134.729 165.83 135.429 165.43 136.129 165.05C144.809 160.25 158.259 149.97 168.999 141.56C170.239 140.67 170.529 140.11 170.899 138.62C171.229 137.31 171.599 132.15 171.719 130.27C171.759 129.55 172.379 129 173.099 129.05C173.819 129.09 174.359 129.71 174.319 130.43C174.279 131.15 173.869 137.47 173.429 139.25C172.949 141.18 172.389 142.33 170.559 143.64C159.109 152.61 146.179 162.47 137.379 167.33C136.679 167.71 135.999 168.1 135.319 168.48C132.139 170.29 128.879 172.14 125.259 172.14Z"/><path id="Vector_8" d="M167.869 131C167.809 131 167.759 131 167.699 130.99C166.989 130.9 166.489 130.24 166.579 129.53L168.299 116.44C168.389 115.73 169.049 115.23 169.759 115.32C170.469 115.41 170.969 116.07 170.879 116.78L169.159 129.87C169.069 130.52 168.519 131 167.869 131Z"/><path id="Vector_9" d="M115.929 187.78C113.609 187.78 111.229 187.29 108.689 186.53C86.6691 180.21 56.7891 171.29 45.0791 166.97C40.7391 165.28 37.6291 161.24 37.1491 156.66L32.6391 118.47C32.5591 117.76 33.0691 117.11 33.7791 117.03C34.4891 116.94 35.1391 117.46 35.2191 118.17L39.7291 156.38C40.1091 160.02 42.5691 163.22 45.9891 164.55C57.6091 168.83 87.4191 177.73 109.409 184.04C114.869 185.66 118.919 185.93 123.519 182.53L160.589 156.6C162.499 154.67 163.459 152.98 163.799 150.95C164.069 149.73 164.249 148.53 164.399 147.58C164.499 146.95 164.579 146.4 164.669 145.98C164.809 145.28 165.499 144.82 166.199 144.96C166.899 145.1 167.359 145.79 167.219 146.49C167.139 146.88 167.059 147.39 166.969 147.98C166.819 148.98 166.629 150.21 166.349 151.46C165.929 153.99 164.689 156.2 162.349 158.54C162.299 158.59 162.239 158.64 162.179 158.69L125.049 184.66C121.969 186.94 119.009 187.8 115.929 187.8V187.78Z"/><path id="Vector_10" d="M127.09 152.89C127.09 152.89 127.03 152.89 127 152.89C126.28 152.84 125.75 152.22 125.8 151.5L126.23 145.49C126.28 144.77 126.9 144.25 127.62 144.29C128.34 144.34 128.87 144.96 128.82 145.68L128.39 151.69C128.34 152.37 127.77 152.9 127.09 152.9V152.89Z"/><path id="Vector_11" d="M169.8 135.51C169.42 135.51 169.04 135.34 168.78 135.02C168.34 134.46 168.43 133.64 168.99 133.19C170.2 132.23 171.64 130.76 171.61 129.21C171.58 127.97 170.64 126.69 168.83 125.39C168.25 124.97 168.11 124.16 168.53 123.58C168.95 123 169.76 122.86 170.34 123.28C172.86 125.08 174.16 127.05 174.21 129.15C174.26 131.26 173.05 133.3 170.61 135.23C170.37 135.42 170.09 135.51 169.81 135.51H169.8Z"/><path id="Vector_12" d="M50.0292 160.84C49.3792 160.84 48.8092 160.35 48.7392 159.68L44.8792 124.69C44.7992 123.98 45.3192 123.33 46.0292 123.26C46.7392 123.18 47.3892 123.7 47.4592 124.41L51.3192 159.4C51.3992 160.11 50.8792 160.76 50.1692 160.83C50.1192 160.83 50.0692 160.83 50.0292 160.83V160.84Z"/><path id="Vector_13" d="M62.0499 164.49C61.3699 164.49 60.7999 163.96 60.7499 163.28L58.3899 128.29C58.3399 127.57 58.8799 126.95 59.5999 126.91C60.3099 126.86 60.9399 127.4 60.9799 128.12L63.3399 163.11C63.3899 163.83 62.8499 164.45 62.1299 164.49C62.0999 164.49 62.0699 164.49 62.0399 164.49H62.0499Z"/><path id="Vector_14" d="M74.0697 168.35C73.3697 168.35 72.7897 167.79 72.7697 167.09L71.6997 131.46C71.6797 130.74 72.2397 130.14 72.9597 130.12C73.6497 130.12 74.2797 130.66 74.2997 131.38L75.3697 167.01C75.3897 167.73 74.8297 168.33 74.1097 168.35H74.0697Z"/><path id="Vector_15" d="M86.0892 172H86.0792C85.3592 172 84.7792 171.41 84.7892 170.69L84.9992 143.22C84.9992 142.5 85.5492 141.92 86.3092 141.93C87.0292 141.93 87.6092 142.52 87.5992 143.24L87.3892 170.71C87.3892 171.42 86.7992 172 86.0892 172Z"/><path id="Vector_16" d="M98.3298 175.65H98.2898C97.5698 175.63 97.0098 175.03 97.0298 174.31L97.6698 154.13C97.6898 153.41 98.2998 152.86 99.0098 152.87C99.7298 152.89 100.29 153.49 100.27 154.21L99.6298 174.39C99.6098 175.09 99.0298 175.65 98.3298 175.65Z"/><path id="Vector_17" d="M110.35 179.51C110.35 179.51 110.28 179.51 110.25 179.51C109.53 179.45 109 178.83 109.05 178.11L110.12 164.16C110.18 163.44 110.81 162.9 111.52 162.96C112.24 163.02 112.77 163.64 112.72 164.36L111.65 178.31C111.6 178.99 111.03 179.51 110.36 179.51H110.35Z"/><path id="Vector_18" d="M112.489 150.96C112.489 150.96 112.429 150.96 112.409 150.96C111.689 150.91 111.149 150.3 111.199 149.58L111.629 142.93C111.679 142.21 112.299 141.67 113.009 141.72C113.729 141.77 114.269 142.38 114.219 143.1L113.789 149.75C113.749 150.44 113.169 150.97 112.489 150.97V150.96Z"/><path id="Vector_19" d="M72.9992 126.28C72.2792 126.28 71.6992 125.7 71.6992 124.98V123.26C71.6992 122.54 72.2792 121.96 72.9992 121.96C73.7192 121.96 74.2992 122.54 74.2992 123.26V124.98C74.2992 125.7 73.7192 126.28 72.9992 126.28Z"/><path id="Vector_20" d="M158.128 92.48C157.438 92.48 156.858 91.94 156.828 91.24C156.758 89.69 156.698 88.19 156.638 86.72C156.018 71.68 155.538 59.79 147.818 34.06C147.298 32.31 149.158 31.21 151.978 29.53C152.718 29.09 153.508 28.62 154.258 28.14C150.388 28.23 144.468 28.54 134.658 29.87C134.138 30.06 133.468 29.89 132.218 29.58C129.028 28.78 121.558 26.9 111.138 28.31C110.368 28.38 108.668 28.12 104.348 27.41C101.268 26.91 96.3484 26.1 93.1484 25.81C97.4284 28.93 98.7584 30.12 98.1284 31.53C91.5884 46.16 89.5184 64.15 87.9984 77.28C87.9184 77.99 87.2584 78.51 86.5584 78.42C85.8484 78.34 85.3384 77.69 85.4184 76.98C86.9384 63.84 89.0084 45.89 95.5184 31C94.7184 30.15 92.2884 28.39 91.0584 27.49C88.5884 25.7 88.2684 25.47 88.2884 24.65C88.2884 24.22 88.5284 23.81 88.8784 23.58C90.2484 22.67 94.2384 23.12 104.778 24.84C107.378 25.26 110.298 25.75 110.868 25.72C121.728 24.26 129.538 26.22 132.868 27.06C133.308 27.17 133.798 27.29 134.038 27.34H134.078C146.488 25.64 152.828 25.56 156.628 25.51C157.178 25.51 157.658 25.5 158.108 25.49C158.648 25.49 159.118 25.79 159.328 26.27C159.538 26.75 159.438 27.32 159.068 27.7C157.498 29.3 155.278 30.62 153.318 31.79C152.278 32.41 150.898 33.22 150.428 33.69C158.138 59.49 158.628 71.48 159.248 86.64C159.308 88.11 159.368 89.61 159.438 91.15C159.468 91.87 158.918 92.47 158.198 92.51C158.178 92.51 158.158 92.51 158.138 92.51L158.128 92.48Z"/><g id="Group_2"><path id="Vector_21" d="M106.48 54.6299C103.94 54.6299 101.58 53.5499 100.01 51.6699C98.2698 49.5799 97.6098 46.7599 98.1598 43.7099C99.2198 37.8499 103.29 33.6499 108.29 33.2599C110.97 33.0499 113.26 33.8599 114.93 35.5999C116.87 37.6299 117.74 40.7299 117.32 44.0999C116.36 51.8599 111.09 54.6299 106.48 54.6299ZM100.72 44.1699C100.31 46.4399 100.76 48.5099 102.01 49.9999C103.1 51.3099 104.69 52.0299 106.49 52.0299C111.09 52.0299 114.1 49.0199 114.75 43.7799C115.07 41.2199 114.43 38.8399 113.06 37.3999C111.94 36.2199 110.4 35.6999 108.5 35.8499C104.7 36.1499 101.57 39.4899 100.73 44.1799L100.72 44.1699Z"/></g><g id="Group_3"><path id="Vector_22" d="M134.329 56.78C134.029 56.78 133.739 56.77 133.439 56.74C128.849 56.28 123.889 52.99 123.709 45.17C123.629 41.77 124.809 38.78 126.949 36.95C128.779 35.38 131.149 34.81 133.789 35.28C138.719 36.17 142.349 40.76 142.819 46.7C143.059 49.78 142.129 52.53 140.179 54.43C138.629 55.94 136.539 56.77 134.329 56.77V56.78ZM132.019 37.72C130.709 37.72 129.569 38.12 128.629 38.93C127.119 40.22 126.249 42.54 126.299 45.11C126.419 50.39 129.109 53.69 133.689 54.15C135.479 54.33 137.129 53.77 138.349 52.58C139.729 51.23 140.399 49.21 140.209 46.91C139.839 42.17 137.059 38.52 133.309 37.85C132.859 37.77 132.419 37.73 131.999 37.73L132.019 37.72Z"/></g><path id="Vector_23" d="M110.229 42.2499C111.627 42.2499 112.759 41.1172 112.759 39.7199C112.759 38.3227 111.627 37.1899 110.229 37.1899C108.832 37.1899 107.699 38.3227 107.699 39.7199C107.699 41.1172 108.832 42.2499 110.229 42.2499Z"/><path id="Vector_24" d="M104.99 50.34C105.575 50.34 106.05 49.8654 106.05 49.28C106.05 48.6945 105.575 48.22 104.99 48.22C104.404 48.22 103.93 48.6945 103.93 49.28C103.93 49.8654 104.404 50.34 104.99 50.34Z"/><path id="Vector_25" d="M134.249 43.89C135.646 43.89 136.779 42.7572 136.779 41.36C136.779 39.9627 135.646 38.83 134.249 38.83C132.851 38.83 131.719 39.9627 131.719 41.36C131.719 42.7572 132.851 43.89 134.249 43.89Z"/><path id="Vector_26" d="M129.009 51.97C129.595 51.97 130.069 51.4954 130.069 50.91C130.069 50.3246 129.595 49.85 129.009 49.85C128.424 49.85 127.949 50.3246 127.949 50.91C127.949 51.4954 128.424 51.97 129.009 51.97Z"/><path id="Vector_27" d="M68.6103 71.77C68.3403 71.77 68.0703 71.69 67.8403 71.52C67.2603 71.09 67.1403 70.28 67.5703 69.7C74.3203 60.57 83.3603 53.29 93.7303 48.65C94.3903 48.36 95.1503 48.65 95.4503 49.31C95.7403 49.97 95.4503 50.73 94.7903 51.03C84.8303 55.48 76.1403 62.48 69.6603 71.25C69.4103 71.6 69.0103 71.78 68.6103 71.78V71.77Z"/><path id="Vector_28" d="M79.349 69.93C79.349 69.93 79.249 69.93 79.199 69.93C78.489 69.85 77.979 69.21 78.059 68.5C78.159 67.63 78.679 66.99 78.989 66.6C82.759 61.94 87.549 57.97 92.829 55.13C93.459 54.79 94.249 55.03 94.589 55.66C94.929 56.29 94.689 57.08 94.059 57.42C89.079 60.1 84.569 63.84 81.009 68.23C80.919 68.34 80.659 68.66 80.649 68.78C80.569 69.44 80.009 69.93 79.359 69.93H79.349Z"/><path id="Vector_29" d="M162.849 89.3999C162.199 89.3999 161.639 88.9099 161.559 88.2499C160.139 76.0499 153.469 64.2999 143.729 56.8199C143.159 56.3799 143.049 55.5699 143.489 54.9999C143.929 54.4299 144.739 54.3199 145.309 54.7599C155.749 62.7799 162.619 74.8799 164.139 87.9499C164.219 88.6599 163.709 89.3099 162.999 89.3899C162.949 89.3899 162.899 89.3899 162.849 89.3899V89.3999Z"/><path id="Vector_30" d="M164.909 75.61C164.409 75.61 163.929 75.32 163.719 74.83C158.149 62.13 151.679 56.46 146.089 52.58C145.499 52.17 145.349 51.36 145.759 50.77C146.169 50.18 146.979 50.03 147.569 50.44C153.459 54.52 160.269 60.49 166.099 73.78C166.389 74.44 166.089 75.2 165.429 75.49C165.259 75.56 165.079 75.6 164.909 75.6V75.61Z"/><path id="Vector_31" d="M171.099 74.82C170.559 74.82 170.059 74.49 169.869 73.95C166.139 63.4 158.279 54.45 148.299 49.38C147.659 49.05 147.399 48.27 147.729 47.63C148.059 46.99 148.839 46.73 149.479 47.06C160.039 52.43 168.369 61.91 172.319 73.08C172.559 73.76 172.199 74.5 171.529 74.74C171.389 74.79 171.239 74.81 171.099 74.81V74.82Z"/><path id="Vector_32" d="M71.1191 59.61C70.7091 59.61 70.3091 59.42 70.0491 59.05C69.6391 58.46 69.7791 57.65 70.3691 57.24C76.4591 52.98 83.0991 49.58 90.1091 47.13C90.7891 46.89 91.5291 47.25 91.7691 47.93C92.0091 48.61 91.6491 49.35 90.9691 49.59C84.1791 51.96 77.7491 55.26 71.8591 59.38C71.6291 59.54 71.3691 59.61 71.1191 59.61Z"/><path id="Vector_33" d="M115.719 36.1699C115.719 36.1699 115.639 36.1699 115.599 36.1699C114.299 36.0499 111.259 35.7799 109.819 35.8599C109.089 35.8899 108.489 35.3499 108.449 34.6299C108.409 33.9099 108.959 33.2999 109.679 33.2599C111.119 33.1899 113.589 33.3799 115.829 33.5799C116.539 33.6399 117.069 34.2799 117.009 34.9899C116.949 35.6699 116.379 36.1699 115.719 36.1699Z"/><path id="Vector_34" d="M135.549 38.49C135.349 38.49 135.149 38.44 134.959 38.35C133.649 37.68 131.099 37.38 129.049 37.15C128.239 37.06 127.499 36.97 126.889 36.87C126.179 36.76 125.699 36.09 125.809 35.38C125.919 34.67 126.589 34.19 127.299 34.3C127.869 34.39 128.579 34.47 129.339 34.56C131.709 34.83 134.399 35.14 136.139 36.03C136.779 36.36 137.029 37.14 136.699 37.78C136.469 38.23 136.009 38.49 135.539 38.49H135.549Z"/><path id="Vector_35" d="M96.939 86.34C95.389 86.34 93.839 85.58 92.899 84.34C92.559 83.89 92.289 83.38 92.029 82.72C91.759 82.03 91.589 81.39 91.509 80.76C91.169 78.07 92.519 75.26 94.949 73.6C96.989 72.2 99.669 71.64 102.489 72.02C103.999 72.22 105.229 72.65 106.249 73.33C106.849 73.73 107.009 74.54 106.609 75.13C106.209 75.73 105.399 75.89 104.809 75.49C104.129 75.04 103.259 74.74 102.149 74.59C99.969 74.29 97.929 74.7 96.419 75.74C94.809 76.84 93.879 78.73 94.089 80.43C94.139 80.84 94.259 81.28 94.449 81.77C94.619 82.2 94.779 82.52 94.969 82.77C95.449 83.41 96.319 83.8 97.119 83.72C97.839 83.66 98.469 84.18 98.529 84.9C98.589 85.62 98.069 86.25 97.349 86.31C97.209 86.32 97.069 86.33 96.929 86.33L96.939 86.34Z"/><path id="Vector_36" d="M99.9701 87.13C98.9501 87.13 97.8601 86.77 96.9001 85.81C95.1901 84.09 94.5501 81.28 95.2801 78.65C95.4701 77.96 96.1901 77.55 96.8801 77.75C97.5701 77.94 97.9801 78.66 97.7801 79.35C97.3001 81.06 97.6901 82.92 98.7401 83.98C99.6601 84.9 100.66 84.46 101.05 84.23C101.67 83.86 102.46 84.06 102.83 84.68C103.2 85.3 103 86.09 102.38 86.46C101.72 86.85 100.87 87.13 99.9701 87.13Z"/><path id="Vector_37" d="M104.77 87.46C103.22 87.46 101.65 86.48 100.41 84.67C99.8203 83.81 99.4803 82.73 99.4203 81.56C99.3603 80.33 99.6303 79.09 100.19 77.99C100.52 77.35 101.3 77.1 101.94 77.43C102.58 77.76 102.83 78.54 102.5 79.18C102.14 79.88 101.97 80.66 102.01 81.44C102.04 82.13 102.23 82.74 102.55 83.2C103.4 84.44 104.4 85.05 105.14 84.79C105.64 84.61 106.11 84 106.2 82.98C105.74 82.7 105.26 82.27 105.05 81.6C104.87 81.04 104.84 80.15 105.71 79.12C106.17 78.57 106.99 78.5 107.54 78.97C108.09 79.43 108.16 80.25 107.69 80.8V80.82C107.69 80.82 107.79 80.87 107.84 80.88C108.37 81.03 108.76 81.49 108.8 82.04C108.99 84.54 107.89 86.58 106.01 87.25C105.6 87.39 105.18 87.46 104.77 87.46Z"/><path id="Vector_38" d="M141.549 88.91C141.059 88.91 140.599 88.64 140.369 88.17C137.649 82.45 134.209 78.88 130.409 77.84C127.669 77.09 125.219 77.82 123.959 78.67C122.739 79.49 121.229 80.86 120.959 82.66C120.829 83.57 121.229 84.87 121.879 85.04C122.569 85.22 122.989 85.94 122.799 86.63C122.619 87.32 121.899 87.74 121.209 87.55C119.069 86.98 118.079 84.37 118.379 82.28C118.779 79.53 120.839 77.63 122.499 76.51C124.299 75.3 127.499 74.35 131.089 75.33C134.269 76.2 138.859 78.94 142.719 87.05C143.029 87.7 142.749 88.47 142.099 88.78C141.919 88.87 141.729 88.91 141.539 88.91H141.549Z"/><path id="Vector_39" d="M125.56 91.61C124.15 91.61 122.98 90.94 122.4 90.28C121.69 89.48 121.21 88.42 120.99 87.21C120.86 86.49 120.84 85.79 120.93 85.14C121.13 83.67 121.85 82.44 122.5 81.36C122.86 80.74 123.66 80.54 124.28 80.9C124.9 81.27 125.1 82.06 124.74 82.68C124.2 83.59 123.64 84.54 123.51 85.48C123.46 85.87 123.47 86.29 123.55 86.75C123.68 87.48 123.96 88.11 124.35 88.56C124.35 88.56 125.31 89.53 126.74 88.63C127.35 88.25 128.15 88.43 128.53 89.04C128.91 89.65 128.73 90.45 128.12 90.83C127.23 91.39 126.35 91.61 125.55 91.61H125.56Z"/><path id="Vector_40" d="M130.16 92.1099C129.95 92.1099 129.74 92.0999 129.52 92.0599C127.68 91.7999 126.75 90.7999 126.3 90.0099C124.78 87.3499 126.37 83.2699 126.56 82.8199C126.83 82.1599 127.59 81.8399 128.26 82.1099C128.92 82.3799 129.24 83.1399 128.97 83.8099C128.62 84.6699 127.8 87.3999 128.56 88.7199C128.72 88.9899 129.02 89.3599 129.89 89.4899C131.74 89.7499 132.67 86.9099 132.68 86.8799C132.9 86.1999 133.63 85.8199 134.31 86.0399C134.99 86.2599 135.37 86.9799 135.15 87.6699C134.61 89.3899 132.97 92.1099 130.16 92.1099Z"/><path id="Vector_41" d="M162.669 93.42C162.569 93.42 162.479 93.41 162.379 93.39C156.819 92.12 141.439 88.9 133.789 87.35C133.089 87.21 132.629 86.52 132.769 85.82C132.909 85.12 133.599 84.66 134.299 84.8C141.959 86.35 157.369 89.58 162.949 90.86C163.649 91.02 164.089 91.72 163.929 92.42C163.789 93.02 163.259 93.43 162.659 93.43L162.669 93.42Z"/><path id="Vector_42" d="M119.18 84.3999C119.1 84.3999 119.01 84.3999 118.93 84.3799C111.04 82.8299 107.42 82.1299 107.42 82.1299C106.71 81.9899 106.25 81.3099 106.39 80.6099C106.53 79.8999 107.21 79.4499 107.91 79.5799C107.91 79.5799 111.53 80.2699 119.43 81.8299C120.13 81.9699 120.59 82.6499 120.45 83.3599C120.33 83.9799 119.78 84.4099 119.18 84.4099V84.3999Z"/><path id="Vector_43" d="M133.789 88.62C133.419 88.62 133.049 88.46 132.799 88.16C132.719 88.11 132.529 88.02 132.389 87.96C131.849 87.72 131.039 87.37 130.819 86.45C130.669 85.84 130.859 85.21 131.379 84.58C131.839 84.02 132.599 83.74 133.419 83.82C133.959 83.88 134.499 84.1 134.969 84.48C135.529 84.92 135.629 85.74 135.189 86.31C135.099 86.43 134.989 86.53 134.859 86.61C135.239 87.17 135.119 87.93 134.579 88.36C134.339 88.55 134.059 88.64 133.779 88.64L133.789 88.62Z"/><path id="Vector_44" d="M165.939 107.74C165.709 107.74 165.479 107.68 165.269 107.55C162.379 106.12 78.8791 88.31 72.2991 88.72C67.2191 89.02 44.6791 100.06 36.4191 104.29C35.7791 104.62 34.9991 104.36 34.6691 103.73C34.3391 103.09 34.5991 102.31 35.2291 101.98C36.4591 101.35 65.4791 86.52 72.1391 86.13C72.1991 86.13 72.2591 86.13 72.3391 86.13C79.6491 86.13 162.779 103.03 166.599 105.33C167.219 105.7 167.409 106.5 167.049 107.11C166.809 107.52 166.379 107.74 165.929 107.74H165.939Z"/><path id="Vector_45" d="M96.279 120.61C95.829 120.61 95.389 120.37 95.149 119.95C89.069 109.29 78.619 98.0799 75.269 97.4999C73.069 97.1099 65.339 103.83 59.399 110.25C58.909 110.78 58.089 110.81 57.559 110.32C57.029 109.83 56.999 109.01 57.489 108.48C60.609 105.1 71.169 94.1599 75.709 94.9299C80.729 95.7999 91.679 108.61 97.409 118.65C97.769 119.27 97.549 120.07 96.919 120.42C96.719 120.54 96.499 120.59 96.279 120.59V120.61Z"/><path id="Vector_46" d="M110.969 109.05C110.519 109.05 110.089 108.82 109.839 108.4C108.299 105.75 104.899 101.48 102.329 101.3C99.1185 101.08 89.9885 104.92 86.7385 106.42C86.0885 106.72 85.3185 106.43 85.0185 105.78C84.7185 105.13 84.9985 104.36 85.6585 104.06C86.9185 103.48 98.0985 98.4099 102.519 98.7099C107.289 99.0399 111.619 106.27 112.099 107.1C112.459 107.72 112.249 108.52 111.629 108.88C111.419 109 111.199 109.06 110.979 109.06L110.969 109.05Z"/><path id="Vector_47" d="M102.608 122.26C102.398 122.26 102.178 122.21 101.978 122.1C101.348 121.75 101.118 120.96 101.468 120.33C103.588 116.48 110.798 103.81 114.298 102.64C118.158 101.35 141.548 108.07 143.218 109.29C145.048 110.62 146.318 116.79 146.788 119.38C146.918 120.09 146.448 120.76 145.738 120.89C145.028 121.02 144.358 120.55 144.228 119.84C143.518 115.9 142.328 111.95 141.678 111.38C139.618 110.09 117.638 104.26 115.118 105.1C113.388 105.68 107.868 114.1 103.748 121.58C103.508 122.01 103.068 122.25 102.608 122.25V122.26Z"/><path id="Vector_48" d="M130.069 128.02C129.939 128.02 129.809 128 129.679 127.96C128.999 127.74 128.619 127.01 128.829 126.33C129.559 124 135.949 112.95 136.679 111.7C137.039 111.08 137.829 110.87 138.459 111.23C139.079 111.59 139.289 112.39 138.929 113.01C136.139 117.83 131.799 125.56 131.309 127.12C131.139 127.67 130.619 128.03 130.069 128.03V128.02Z"/></g></g></g><defs><clipPath id="clip0_1394_7040"><rect width="200" height="200"/></clipPath></defs></svg>