<svg xmlns="http://www.w3.org/2000/svg" width="200" height="200" fill="none"><path fill="#BEBEC9" d="M137.627 101.74a21.268 21.268 0 0 0 8.03-7.998 20.022 20.022 0 0 0 2.339-9.741 20.688 20.688 0 0 0-2.162-9.674 18.812 18.812 0 0 0-5.234-6.18c-3.522-2.75-8.438-4.927-15.161-6.43-6.725-1.502-15.271-2.33-26.108-2.33-19.262.009-31.298 2.596-38.71 7.013a20.027 20.027 0 0 0-7.793 7.927A20.687 20.687 0 0 0 50.666 84a18.254 18.254 0 0 0 2.765 9.806c2.838 4.546 7.89 8.317 15.435 10.943 7.554 2.628 17.637 4.14 30.741 4.142 18.534-.008 30.508-2.672 38.02-7.152Zm-74.204-2.246a21.205 21.205 0 0 1-7.787-7.063 15.64 15.64 0 0 1-2.37-8.43 18.095 18.095 0 0 1 1.87-8.476 16.216 16.216 0 0 1 4.526-5.33c3.112-2.432 7.66-4.497 14.128-5.94 6.465-1.446 14.837-2.27 25.54-2.268 19.034-.01 30.681 2.623 37.377 6.644a17.42 17.42 0 0 1 6.82 6.894 18.098 18.098 0 0 1 1.869 8.476 16.597 16.597 0 0 1-6.754 13.914c-3.208 2.479-7.808 4.583-14.198 6.058-6.387 1.475-14.552 2.319-24.837 2.319-17.207.005-28.92-2.677-36.184-6.799Z"/><path fill="#BEBEC9" d="M127.582 101.264c.305-.116.607-.234.907-.356a30.227 30.227 0 0 0 3.892-1.905l.002-.002c.259-.152.515-.308.769-.47a1.3 1.3 0 0 0-1.398-2.191c-.22.14-.451.28-.692.422l.003-.001a27.556 27.556 0 0 1-3.559 1.74h-.001a37.67 37.67 0 0 1-.847.333 1.315 1.315 0 0 0-.724.682 1.298 1.298 0 0 0 .241 1.425 1.299 1.299 0 0 0 1.407.323Z"/><path fill="#BEBEC9" d="M128.49 100.907h-.001l-.001.001.002-.001ZM84.227 65.742a59.593 59.593 0 0 0-13.301 2.395 1.299 1.299 0 1 0 .776 2.482 56.996 56.996 0 0 1 12.744-2.287 1.3 1.3 0 0 0-.219-2.59ZM64.693 70.789a21.65 21.65 0 0 0-2.759 1.859 1.3 1.3 0 0 0 1.62 2.034 19.03 19.03 0 0 1 2.428-1.635 1.3 1.3 0 0 0-1.289-2.258ZM61.855 141.009v.001h.002l-.002-.001ZM128.828 119.508h.002l.003-.001-.005.001ZM131.007 168.718a1.297 1.297 0 0 0-1.305 1.295 130.498 130.498 0 0 1-.85 15.422 1.31 1.31 0 0 0 .263.96 1.3 1.3 0 0 0 2.317-.634c.601-5.225.891-10.48.87-15.739a1.288 1.288 0 0 0-.377-.92 1.304 1.304 0 0 0-.918-.384ZM77.04 117.975l.002-.001.002-.001-.004.002ZM69.831 168.208a1.3 1.3 0 0 0-1.3 1.3c-.041 5.43.25 10.858.87 16.253a1.294 1.294 0 0 0 .494.864 1.295 1.295 0 0 0 1.441.101 1.287 1.287 0 0 0 .61-.786c.045-.165.057-.337.035-.506a130.565 130.565 0 0 1-.85-15.926 1.301 1.301 0 0 0-1.3-1.3ZM56.04 150.333v.006l-.002.004.002-.01ZM147.068 133.565l-.001-.001-.002-.002.003.003Z"/><path fill="#BEBEC9" d="M170.658 128.049a2.113 2.113 0 0 0-1.13-.987c-.09-.032-.348-.14-.664-.27a24.106 24.106 0 0 0-1.822-.677 9.387 9.387 0 0 0-2.205-.46l.141-.114.192-.152.057-.043.015-.01c.394-.264.702-.637.886-1.074.157-.374.236-.776.233-1.182a3.598 3.598 0 0 0-.457-1.75 2.828 2.828 0 0 0-.601-.749 2.199 2.199 0 0 0-1.003-.506 3.974 3.974 0 0 0-.8-.078 8.415 8.415 0 0 0-2.858.634c-1.426.535-2.902 1.288-4.267 1.888-.62.281-1.256.527-1.903.738-.198.062-.371.099-.548.139a9.215 9.215 0 0 0-.833-.233 49.755 49.755 0 0 0-1.291-2.639 21.15 21.15 0 0 0-.935-1.622 5.367 5.367 0 0 0-.455-.615 2.228 2.228 0 0 0-.313-.301 1.485 1.485 0 0 0-.745-.318l-.028-.003a4.788 4.788 0 0 0-.484-.022 5.285 5.285 0 0 0-2.118.407c-.468.203-.876.52-1.188.923a2.771 2.771 0 0 0-.544 1.689c0 .197.017.394.05.588l.001.01c.059.325.154.654.279 1.093.142.489.321 1.093.506 1.767a10.366 10.366 0 0 0-3.017 2.398 29.404 29.404 0 0 0-5.444-4.622 13.922 13.922 0 0 0-7.357-2.462c-.394 0-.787.025-1.178.074a7.243 7.243 0 0 0-2.881.949 10.27 10.27 0 0 0-.421-.756 4.406 4.406 0 0 0-1.736-1.726 11.703 11.703 0 0 0-2.369-.745 85.373 85.373 0 0 0-12.234-1.41c-.013 0-.024.006-.036.006v-2.052a96.196 96.196 0 0 0 22.38-3.51 41.298 41.298 0 0 0 14.607-7.409c5.592-4.612 8.728-10.522 10.417-17.196.19-.753.358-1.518.515-2.29a17.625 17.625 0 0 0 1.847-.313 9.87 9.87 0 0 0 4.134-1.837c.545-.497 1-1.083 1.348-1.733a19.281 19.281 0 0 0 1.64-4.043 33.31 33.31 0 0 0 1.103-5.507 37.26 37.26 0 0 0 .257-4.276 24.777 24.777 0 0 0-.325-4.205 8.811 8.811 0 0 0-1.011-3.042 6.953 6.953 0 0 0-2.113-2.085c-.014-.01-.028-.016-.042-.025a8.349 8.349 0 0 0 1.652-2.86c.62-1.86 1.004-3.79 1.145-5.745.934-9.897 2.461-27.748 2.793-32.805.015-.232.023-.458.023-.677a7.157 7.157 0 0 0-.351-2.318 4.646 4.646 0 0 0-1.751-2.365 5.304 5.304 0 0 0-2.45-.87 6.063 6.063 0 0 0-.678-.038 5.106 5.106 0 0 0-3.414 1.228 5.892 5.892 0 0 0-1.833 3.99c-.409 4.228-1.753 20.546-2.622 31.182-.159-.61-.319-1.22-.498-1.82-2.812-9.429-8.229-17.578-17.347-23.27-9.114-5.696-21.828-8.945-39.247-8.946-11.616 0-21.132 1.445-28.893 4.096-11.64 3.964-19.322 10.708-23.98 19.161a46.843 46.843 0 0 0-4.374 11.369c-.867-10.612-2.254-27.464-2.67-31.772a5.891 5.891 0 0 0-1.834-3.99 5.104 5.104 0 0 0-3.413-1.228c-.227 0-.453.013-.678.038a5.008 5.008 0 0 0-3.168 1.487 4.798 4.798 0 0 0-1.033 1.748 7.13 7.13 0 0 0-.35 2.318c0 .22.007.445.022.678.332 5.056 1.859 22.907 2.793 32.803.133 2.458.708 4.87 1.699 7.123a7.115 7.115 0 0 0 1.38 1.953 6.43 6.43 0 0 0-1.5 1.64 8.82 8.82 0 0 0-1.012 3.043 24.748 24.748 0 0 0-.324 4.206c.003 1.428.088 2.855.256 4.273.264 2.4.803 4.762 1.606 7.038.309.868.689 1.708 1.137 2.513.348.65.804 1.236 1.349 1.733a9.714 9.714 0 0 0 3.91 1.831c.51.126.96.208 1.32.264.006.03.01.06.017.09a36.776 36.776 0 0 0 4.841 12.579c3.608 5.671 9.257 10.232 17.755 13.306 6.895 2.499 15.67 4.061 26.884 4.564v1.801c-.7.099-1.391.213-2.072.349-2.734.207-5.217.471-7.254.789-1.02.16-1.93.333-2.713.524a10.49 10.49 0 0 0-1.99.658 4.33 4.33 0 0 0-1.698 1.663c-.182.288-.356.608-.525.947a7.232 7.232 0 0 0-3.084-1.076 9.104 9.104 0 0 0-1.143-.071c-2.18.071-4.31.669-6.208 1.744a32.914 32.914 0 0 0-8.613 7.033 46.064 46.064 0 0 0-6.095 8.491 3.32 3.32 0 0 0-1.327.456 3.28 3.28 0 0 0-1.372 1.769 3.57 3.57 0 0 0-.106.4c-.063.294-.127.687-.187 1.139a10.682 10.682 0 0 0-3.096 3.316c-1.299-.002-2.76-.098-4.156-.099-.793-.011-1.585.04-2.37.154a5.244 5.244 0 0 0-2.143.775 2.248 2.248 0 0 0-.813 1.053 3.076 3.076 0 0 0-.199 1.114 3.57 3.57 0 0 0 .466 1.772c.172.301.398.567.667.785.307.247.671.416 1.059.489.031.006.19.047.387.104l.108.032a10.93 10.93 0 0 0-2.384 1.757c-.337.313-.639.612-.882.856-.24.243-.436.442-.506.508h-.001a2.145 2.145 0 0 0-.668 1.574c.022.765.338 1.493.883 2.03a3.06 3.06 0 0 0 2.183.954 2.933 2.933 0 0 0 1.12-.225l.004-.002c.108-.045.24-.102.387-.168-.082.222-.171.465-.262.721-.154.437-.31.899-.433 1.321a9.056 9.056 0 0 0-.157.609c-.05.21-.077.425-.081.64-.003.213.038.423.12.619.09.205.218.39.378.546.185.178.39.334.612.464.33.197.678.362 1.04.491.394.152.812.235 1.235.247.232.002.462-.036.68-.113.314-.112.586-.317.778-.588l.002.001a3.8 3.8 0 0 1 .2-.221 24.748 24.748 0 0 1 1.87-1.716 13.92 13.92 0 0 1 1.012-.774c.144-.097.27-.175.36-.222l.002-.001.145.001a18.593 18.593 0 0 0 3.942-.417 10.477 10.477 0 0 0 4.568 1.052 10.676 10.676 0 0 0 10.44-8.474 14.311 14.311 0 0 0 1.915-1.786 68.97 68.97 0 0 0 4.934-6.535c-.35 3.121-.65 6.386-.885 9.713a1.3 1.3 0 0 0 2.593.184v-.001a184.11 184.11 0 0 1 2.826-22.481 50.114 50.114 0 0 1 1.977-7.386c.262-.734.596-1.441.996-2.109.15-.282.362-.525.621-.711l.005-.002a8.157 8.157 0 0 1 1.486-.478c2.899-.602 5.837-.998 8.793-1.186a17.744 17.744 0 0 0 11.26 3.966 20.8 20.8 0 0 0 7.301-1.355 16.645 16.645 0 0 0 4.741-2.665c2.215.17 4.262.379 5.992.62 1.207.168 2.264.352 3.114.544a9.49 9.49 0 0 1 1.822.556c.272.198.494.456.649.755a19.48 19.48 0 0 1 1.812 4.676c1.814 6.427 3.32 17.321 4.061 28.68a1.297 1.297 0 0 0 1.382 1.212 1.301 1.301 0 0 0 1.212-1.382 242.126 242.126 0 0 0-.837-9.784l.132.244a23.516 23.516 0 0 0 2.662 4.113 12.066 12.066 0 0 0 8.982 4.362 9.332 9.332 0 0 0 4.939-1.371 8.865 8.865 0 0 0 3.197-3.524c.181-.082.366-.156.541-.247a17.999 17.999 0 0 0 5.099-4.228 39.587 39.587 0 0 0 3.382-4.597c.352-.56.649-1.152.887-1.769.337-.129.605-.24.787-.319.278.033.554.085.825.156.677.165 1.523.437 2.223.69.35.126.665.249.902.348a6.4 6.4 0 0 1 .286.126l.074.036.011.006.003-.005c.255.158.548.244.848.245.257-.002.512-.056.749-.158.301-.132.581-.308.832-.521.341-.284.649-.606.919-.959.13-.168.246-.347.347-.533.057-.107.106-.217.146-.331.06-.165.092-.339.097-.515l.001-.03a1.522 1.522 0 0 0-.136-.623 3.087 3.087 0 0 0-.323-.553 12.123 12.123 0 0 0-.713-.89 38.39 38.39 0 0 0-1.103-1.215c.129.002.253.004.354.004h.067a2.91 2.91 0 0 0 1.313-.316c.538-.279.98-.715 1.268-1.249a3.268 3.268 0 0 0 .408-1.564 2.6 2.6 0 0 0-.3-1.243Zm-98.942 1.145.002-.121a3.268 3.268 0 0 1 1.016-2.256 83.417 83.417 0 0 0-.785 3.535 3.223 3.223 0 0 1-.233-1.158Zm-37.118 25.79.001-.001v.001Zm9.634 1.689-.256-.002-.063-.002h-.015a1.314 1.314 0 0 0-.374.04 3.213 3.213 0 0 0-.775.331c-.43.255-.842.54-1.232.854a27.818 27.818 0 0 0-1.81 1.564c-.268.251-.505.484-.7.686-.034.035-.06.065-.091.098a3.2 3.2 0 0 1-.4-.163c.032-.113.067-.234.108-.363.166-.524.387-1.141.565-1.62l.224-.591.014-.035 1.24-1.487c.005-.005.005-.011.01-.015l1.723-.104a1.3 1.3 0 0 0-.156-2.595l-3.344.201c-.167.01-.33.053-.481.124-.002.001-.597.284-1.285.607-.68.319-1.47.683-1.784.813l-.13.029a.478.478 0 0 1-.32-.168l-.078-.111.351-.354c.348-.35.794-.789 1.261-1.188a6.96 6.96 0 0 1 1.323-.934c.347-.148.71-.254 1.082-.317.741-.134 1.49-.223 2.243-.266.333-.021.619-.033.82-.039l.23-.007.076-.001a1.3 1.3 0 0 0 .388-2.537c-.002 0-1.307-.423-2.696-.861-.695-.22-1.41-.443-1.998-.621a43.84 43.84 0 0 0-.773-.227 7.815 7.815 0 0 0-.478-.123.57.57 0 0 1-.087-.172 1.069 1.069 0 0 1-.056-.335c0-.031.003-.063.008-.094.304-.143.628-.238.962-.282.647-.09 1.301-.131 1.955-.12 1.297-.001 2.789.099 4.225.1.194 0 .383-.011.575-.016.026.002.05-.002.076-.002.621-.007 1.24-.057 1.855-.15a5.422 5.422 0 0 0 2.262-.842c.225-.165.388-.401.466-.669.024-.053.045-.107.062-.163l.003-.017c.046-.126.072-.258.076-.392v-.097a25.483 25.483 0 0 1 .316-3.821 7.94 7.94 0 0 1 .064-.339l.022-.094.004-.013a.667.667 0 0 1 .274-.396.875.875 0 0 1 .462-.105c.196.002.391.035.577.099l.1.043c.043.205.075.413.096.622.071.614.125 1.47.22 2.418.094 1.024.263 2.041.505 3.041.099.407.146.825.142 1.245a10.64 10.64 0 0 1-.525 3.04 13.987 13.987 0 0 1-.485 1.317l-.03.068-.006.014a1.32 1.32 0 0 0-.122.558v.021a16.294 16.294 0 0 1-.296 2.788 1.492 1.492 0 0 1-.668.944 6.937 6.937 0 0 1-2.812.979c-.873.137-1.755.206-2.64.206Zm14.214-1.731a8.035 8.035 0 0 1-6.806 2.288 3.964 3.964 0 0 0 1.267-2.206c.031-.169.057-.328.083-.487a6.042 6.042 0 0 0 1.183-9.775 23.081 23.081 0 0 1-.506-3.547 8.069 8.069 0 0 1 6.697 5.364 8.07 8.07 0 0 1-1.918 8.363Zm12.107-17.569a71.527 71.527 0 0 1-7.255 10.378 10.573 10.573 0 0 0-.568-2.249 6.013 6.013 0 0 0-8.131-6.772 10.903 10.903 0 0 0-1.288-.143c-.017-.06-.022-.119-.043-.179a2.068 2.068 0 0 0-.526-.849 2.664 2.664 0 0 0-.404-.286 43.719 43.719 0 0 1 7.91-9.892 26.176 26.176 0 0 1 5.351-3.9 10.935 10.935 0 0 1 4.994-1.444c.273 0 .545.016.815.05a4.622 4.622 0 0 1 2.016.688c.132.086.256.186.368.297l.013.014c-.05.144-.098.299-.147.449a1.277 1.277 0 0 0-.422.044 5.884 5.884 0 0 0-4.116 5.395l-.004.22a5.885 5.885 0 0 0 2.18 4.568c.008.007.018.008.026.014-.18 1.069-.353 2.172-.519 3.311a1.27 1.27 0 0 0-.25.286Zm93.962-75.468c.202 1.241.297 2.497.286 3.755a34.739 34.739 0 0 1-.239 3.975 28.965 28.965 0 0 1-1.466 6.446c-.258.73-.577 1.437-.952 2.114a4.137 4.137 0 0 1-.772 1.04 7.505 7.505 0 0 1-3.026 1.285c-.283.064-.549.114-.792.155.765-5.686 1.1-11.421 1.003-17.157 0-2.258-.082-4.48-.246-6.669.818.176 1.619.42 2.397.726a9.912 9.912 0 0 1 1.863.957c.51.323.946.748 1.283 1.249.34.665.564 1.383.661 2.124Zm-2.881-47.812c.012-.86.358-1.68.964-2.29a2.51 2.51 0 0 1 1.695-.578c.13 0 .26.007.39.022h.002a2.424 2.424 0 0 1 1.558.683c.213.233.373.51.469.81.151.477.222.976.211 1.476 0 .16-.006.33-.018.508-.326 4.982-1.855 22.866-2.787 32.729-.096 2.1-.58 4.164-1.427 6.089-.214.436-.5.833-.846 1.175-.137.129-.288.243-.449.341a18.818 18.818 0 0 0-.977-.34 16.359 16.359 0 0 0-1.799-.459 1.258 1.258 0 0 0-.34.008l.407-5c.809-9.93 2.486-30.414 2.947-35.174ZM34.343 47.453c-.932-9.863-2.461-27.747-2.787-32.73a7.5 7.5 0 0 1-.018-.507c-.01-.5.06-.998.21-1.476.13-.431.401-.808.77-1.068.377-.243.81-.39 1.258-.425h.002c.13-.015.26-.022.39-.022a2.508 2.508 0 0 1 1.694.579c.607.609.953 1.43.965 2.289.307 3.169 1.156 13.34 1.926 22.699a14966.173 14966.173 0 0 1 1.437 17.594c-.786.187-1.56.426-2.315.716-.197.076-.405.178-.61.266a3.544 3.544 0 0 1-1.486-1.71 18.017 18.017 0 0 1-1.436-6.205Zm6.348 33.025a7.027 7.027 0 0 1-2.665-1.242 4.113 4.113 0 0 1-.773-1.041 16.828 16.828 0 0 1-1.403-3.487c-.48-1.66-.82-3.357-1.015-5.074a34.563 34.563 0 0 1-.239-3.972 22.202 22.202 0 0 1 .286-3.756c.098-.742.322-1.46.663-2.126.349-.518.804-.956 1.336-1.284.894-.56 1.86-.996 2.871-1.296.21-.065.404-.12.581-.168a91.077 91.077 0 0 0-.227 6.486c-.093 5.703.238 11.406.992 17.06-.132-.03-.267-.063-.407-.1ZM54.18 100.85c-5.107-4.226-7.944-9.527-9.553-15.831-1.603-6.299-1.923-13.578-1.92-21.501a68.502 68.502 0 0 1 2.522-19.568c2.69-8.959 7.684-16.454 16.234-21.81 8.552-5.35 20.761-8.552 37.869-8.551 11.401 0 20.635 1.422 28.052 3.956 11.125 3.812 18.169 10.06 22.546 17.959 4.369 7.901 6.029 17.536 6.027 28.014a98.63 98.63 0 0 1-1.433 19.365 34.17 34.17 0 0 1-4.486 11.702c-3.296 5.156-8.365 9.319-16.45 12.26-8.08 2.934-19.166 4.587-34.256 4.585-13.413.002-23.664-1.303-31.45-3.655a38.7 38.7 0 0 1-13.702-6.925Zm51.906 17.985a18.278 18.278 0 0 1-6.384 1.188 15.144 15.144 0 0 1-7.45-1.907c.092-.011.179-.026.27-.037.06-.014.118-.033.175-.056.084-.019.167-.046.246-.081.072-.039.14-.085.204-.137a.917.917 0 0 0 .324-.365 1.22 1.22 0 0 0 .114-.219c.025-.082.042-.167.05-.253.017-.059.03-.119.037-.18v-2.839a194.969 194.969 0 0 0 12.88-.053v3.082a1.28 1.28 0 0 0 .979 1.235c-.452.219-.934.43-1.445.622Zm57.717 4.335.002-.001-.002.001Zm1.03 2.484h-.005l-.002-.001.007.001Zm-35.978 4.563a79.956 79.956 0 0 0-.754-3.396c.55.633.867 1.435.898 2.272l.003.139a3.693 3.693 0 0 1-.147.985Zm13.873 20.381a9.5 9.5 0 0 1-3.891-.978 9.497 9.497 0 0 1-3.138-2.5 21.365 21.365 0 0 1-2.336-3.65c-.892-1.62-1.94-3.636-3.285-5.996a156.588 156.588 0 0 0-.553-3.577 6.298 6.298 0 0 0 2.077-4.665l-.004-.234a6.32 6.32 0 0 0-4.418-5.791c-.037-.012-.074-.004-.112-.012-.034-.102-.069-.197-.104-.296a4.25 4.25 0 0 1 2.187-.811l.005-.001c.283-.035.567-.053.852-.053 2.14.111 4.206.823 5.96 2.054a27.522 27.522 0 0 1 5.323 4.618 33.627 33.627 0 0 0-2.18 4.243 17.787 17.787 0 0 0-1.553 6.732c0 .139.009.277.014.415a6.006 6.006 0 0 0 .312 6.093l.004.005a5.941 5.941 0 0 0 6.387 2.539 8.722 8.722 0 0 0 2.617.451 6.46 6.46 0 0 1-.595.434 6.74 6.74 0 0 1-3.569.98Zm-.906-3.035-.005-.003.002.001.003.002Zm11.376-4.027a13.209 13.209 0 0 1-2.988 2.211 8.532 8.532 0 0 1-.733.335l-.028.013c-.773.32-1.6.488-2.436.495a6.188 6.188 0 0 1-2.21-.418l-.007-.001-.007-.004a7.815 7.815 0 0 1-1.561-.791l-.005-.003a6.555 6.555 0 0 1-2.254-2.305 6.477 6.477 0 0 1-.79-2.77v-.003a8.282 8.282 0 0 1-.021-.614 15.294 15.294 0 0 1 1.35-5.725 32.453 32.453 0 0 1 2.615-4.88 7.793 7.793 0 0 1 2.335-2.303c.061.314.118.63.167.947a6.024 6.024 0 0 0 .246 5.525 6.03 6.03 0 0 0 4.647 2.999c.09.144.162.276.263.426a3.95 3.95 0 0 0 1.871 1.488 5.95 5.95 0 0 0 2.174.371 10.063 10.063 0 0 0 1.501-.133 30.174 30.174 0 0 1-4.129 5.14Zm14.901-13.746-.147.031h-.05c-.38.001-1.234-.028-1.966-.057-.735-.028-1.364-.057-1.365-.057a1.333 1.333 0 0 0-.493.073l-3.158 1.117a1.28 1.28 0 0 0-.436.26 1.289 1.289 0 0 0-.429.898 1.3 1.3 0 0 0 1.732 1.294l1.627-.576c.006.003.009.009.015.011l1.719.883c.258.267.834.869 1.347 1.449.193.217.363.42.509.602a3.344 3.344 0 0 1-.305.302 25.979 25.979 0 0 0-2.434-.89 19.93 19.93 0 0 0-1.465-.405 6.33 6.33 0 0 0-1.349-.189c-.123 0-.246.008-.367.025-.126.02-.249.057-.365.11l-.021.01a16.69 16.69 0 0 1-1.8.683c-.991.336-2.026.526-3.072.565a3.394 3.394 0 0 1-1.223-.191 1.329 1.329 0 0 1-.657-.508l-.007-.01c-.207-.307-.39-.608-.546-.882l-.004-.008-.001-.003a17.26 17.26 0 0 1-.615-1.159l-.094-.203-.053-.115-.033-.077-.007-.016v-.001a1.295 1.295 0 0 0-.334-.474l-.001-.001a14.082 14.082 0 0 1-1.397-1.544 11.233 11.233 0 0 1-.769-1.138 6.471 6.471 0 0 1-.829-1.964l-.001-.002-.022-.088-.032-.184a35.93 35.93 0 0 0-.939-4.188c-.167-.598-.323-1.124-.443-1.54a10.478 10.478 0 0 1-.214-.811l-.015-.16c.006-.132.017-.11.021-.124a.832.832 0 0 1 .404-.196c.205-.052.415-.081.626-.088.089.132.199.304.311.496a41.739 41.739 0 0 1 2.158 4.373c.057.124.134.239.227.339l.003.004c.039.047.08.09.125.131.176.217.419.37.69.435.296.063.597.094.899.092a8.677 8.677 0 0 0 2.914-.631c1.449-.536 2.934-1.291 4.292-1.892.613-.28 1.24-.527 1.88-.739a4.782 4.782 0 0 1 1.36-.265c.047.002.094.006.141.013a1.055 1.055 0 0 1 .12.47.491.491 0 0 1-.015.132 8.01 8.01 0 0 0-.394.299c-.608.488-1.688 1.404-2.632 2.21-.941.805-1.736 1.492-1.737 1.493a1.298 1.298 0 0 0 .447 2.219 1.3 1.3 0 0 0 .897-.033l.027-.011c.149-.061.903-.359 1.786-.635.441-.138.914-.27 1.349-.363a5.509 5.509 0 0 1 1.083-.145l.095.002.007.001a8.556 8.556 0 0 1 2.16.542c.38.137.739.281 1.043.406l.463.19a.665.665 0 0 1-.128.306l-.113.097Z"/><path fill="#BEBEC9" d="m151.785 136.677-.004-.007-.002-.003.006.01Z"/><path fill="#FFE632" d="M117.995 94.704c.11 0 .222-.001.336-.004 2.707.033 5.32-.998 7.275-2.871a8.55 8.55 0 0 0 2.494-6.002 7.532 7.532 0 0 0-2.072-5.274 8.15 8.15 0 0 0-6.023-2.33c-.123 0-.245.002-.368.006a10.522 10.522 0 0 0-7.314 3.06 9.009 9.009 0 0 0-2.639 6.221 6.864 6.864 0 0 0 2.106 5.05 8.783 8.783 0 0 0 6.205 2.144Zm-3.815-11.596a7.915 7.915 0 0 1 5.54-2.28l-.041-1.3.042 1.3c.097-.004.191-.005.284-.005a5.555 5.555 0 0 1 4.157 1.54c.88.936 1.36 2.179 1.338 3.464a5.952 5.952 0 0 1-1.74 4.171 7.735 7.735 0 0 1-5.492 2.103l-.273.003a6.21 6.21 0 0 1-4.419-1.433 4.253 4.253 0 0 1-1.292-3.16 6.42 6.42 0 0 1 1.896-4.403ZM80.87 94.7c.114.003.226.004.336.004a8.784 8.784 0 0 0 6.205-2.144 6.851 6.851 0 0 0 2.105-5.05 9.006 9.006 0 0 0-2.638-6.222 10.522 10.522 0 0 0-7.314-3.059 11.904 11.904 0 0 0-.367-.006 8.158 8.158 0 0 0-6.024 2.33 7.531 7.531 0 0 0-2.072 5.274 8.546 8.546 0 0 0 2.494 6.002A10.335 10.335 0 0 0 80.87 94.7Zm-5.83-12.337a5.555 5.555 0 0 1 4.157-1.54c.092 0 .187.002.283.005l.042-1.3-.041 1.3a7.914 7.914 0 0 1 5.54 2.28 6.42 6.42 0 0 1 1.895 4.402 4.243 4.243 0 0 1-1.291 3.16 6.211 6.211 0 0 1-4.42 1.434l-.273-.003a7.734 7.734 0 0 1-5.491-2.103 5.948 5.948 0 0 1-1.74-4.171 4.932 4.932 0 0 1 1.338-3.464ZM88.027 97.632a1.3 1.3 0 0 0-.999 2.229 17.867 17.867 0 0 0 3.853 2.817 17.525 17.525 0 0 0 8.45 2.185h.07a17.53 17.53 0 0 0 8.39-2.188 17.803 17.803 0 0 0 3.844-2.815 1.3 1.3 0 0 0-.999-2.228c-3.433.244-7.098.392-10.97.4h.002l-.338.001c-3.998 0-7.773-.15-11.303-.401Zm11.644 3.001h.001c2.316-.005 4.55-.065 6.715-.159a14.878 14.878 0 0 1-6.996 1.789h-.06a14.869 14.869 0 0 1-7.053-1.789c2.27.099 4.615.159 7.052.159h.34ZM59.958 169.332H54.31a1.3 1.3 0 1 0 0 2.6h5.648a1.3 1.3 0 1 0 0-2.6Z"/><path fill="#FFE632" d="M98.741 185.549H82.956a1.303 1.303 0 0 0-1.3 1.3 1.301 1.301 0 0 0 1.3 1.3h2.003l-2.298.975a2.867 2.867 0 0 1-3.752-1.516l-12.117-28.623a2.866 2.866 0 0 1 1.516-3.754l26.027-11.048h6.757a1.299 1.299 0 1 0 0-2.6H81.26a1.3 1.3 0 1 0 0 2.6h6.423l-20.391 8.656A5.472 5.472 0 0 0 64.397 160l1.784 4.215h-8.107a1.303 1.303 0 0 0-1.3 1.3 1.301 1.301 0 0 0 1.3 1.3h9.208l9.234 21.807a5.464 5.464 0 0 0 7.16 2.895l7.935-3.368h7.13a1.3 1.3 0 1 0 0-2.6Z"/><path fill="#FFE632" d="M147.074 164.082h-15.993a1.285 1.285 0 0 0-.919.381 1.304 1.304 0 0 0-.381.919 1.3 1.3 0 0 0 1.3 1.3h2.305a2.842 2.842 0 0 1-1.534 1.561l-28.674 12.172h-7.104a1.3 1.3 0 1 0 0 2.6h17.667a1.301 1.301 0 1 0 0-2.6h-3.911l23.038-9.779a5.43 5.43 0 0 0 2.93-2.982c.124-.314.218-.64.28-.972h10.996a1.301 1.301 0 1 0 0-2.6ZM124.408 180.415h-4.167a1.3 1.3 0 0 0 0 2.6h4.167a1.301 1.301 0 1 0 0-2.6ZM87.741 136.415a1.3 1.3 0 1 0 0 2.6h4.167a1.3 1.3 0 1 0 0-2.6h-4.167ZM75.983 168.488c.43 0 .858-.087 1.254-.255l3.2-1.359a3.208 3.208 0 0 0 1.708-4.198l-1.258-3a3.217 3.217 0 0 0-1.752-1.735 3.207 3.207 0 0 0-2.466.02l-3.2 1.359a3.208 3.208 0 0 0-1.707 4.197l1.258 3.001a3.215 3.215 0 0 0 2.963 1.97Zm-1.498-6.775 3.201-1.359.238-.05a.612.612 0 0 1 .565.376l1.258 3.001.048.236a.615.615 0 0 1-.373.564l-3.2 1.358-.24.049a.615.615 0 0 1-.565-.375l-1.257-3.001-.048-.236a.614.614 0 0 1 .373-.562l-.508-1.197.508 1.196ZM81.252 182.237l16.347-6.94a1.297 1.297 0 0 0 .697-1.708 1.298 1.298 0 0 0-1.713-.685l-16.347 6.939a1.313 1.313 0 0 0-.705.709 1.3 1.3 0 0 0 1.72 1.685ZM78.33 175.857l7.826-3.365a1.3 1.3 0 0 0-1.027-2.388l-7.826 3.365a1.297 1.297 0 0 0-.68 1.708c.067.156.164.298.287.418a1.314 1.314 0 0 0 .924.368c.17-.002.34-.038.496-.106ZM99.865 165.284a1.3 1.3 0 0 0-1.708-.68l-7.826 3.365a1.298 1.298 0 0 0-.393 2.126 1.314 1.314 0 0 0 .924.368c.171-.002.34-.038.497-.106l7.825-3.365a1.297 1.297 0 0 0 .68-1.708ZM111.184 159.104l-7.825 3.365a1.294 1.294 0 0 0-.787 1.211 1.316 1.316 0 0 0 .393.915 1.31 1.31 0 0 0 1.421.262l7.826-3.365a1.301 1.301 0 0 0-1.028-2.388ZM125.921 154.284a1.3 1.3 0 0 0-1.708-.68l-7.826 3.365a1.294 1.294 0 0 0-.786 1.211 1.306 1.306 0 0 0 .393.915 1.31 1.31 0 0 0 1.42.262l7.826-3.365a1.294 1.294 0 0 0 .786-1.212 1.305 1.305 0 0 0-.105-.496Z"/><path fill="#FFE632" d="M123.645 134.853a5.467 5.467 0 0 0-7.162-2.895l-10.581 4.492h-6.905a1.3 1.3 0 1 0 0 2.6h13.834a1.301 1.301 0 1 0 0-2.6h-.277l4.944-2.098a2.854 2.854 0 0 1 3.125.592c.268.263.481.577.628.923l9.8 23.147h-8.394a1.3 1.3 0 0 0 0 2.6h14.5a1.3 1.3 0 1 0 0-2.6h-3.283l-10.229-24.161Z"/></svg>