<svg xmlns="http://www.w3.org/2000/svg" width="200" height="200" fill="none"><g fill="#191C22"><path d="M183.763 48.179c-2.638 3.77-6.866 6.753-11.771 9.382-4.9 2.632-10.443 4.908-15.63 7.395-5.246 2.51-8.426 4.973-10.864 7.748-2.439 2.775-4.107 5.758-6.543 9.379-1.885 2.812-3.359 4.491-4.456 5.41-.548.461-.996.73-1.347.881-.353.15-.604.189-.825.19-.246 0-.474-.053-.75-.155-.103-.043-.186-.097-.305-.317-.111-.215-.208-.593-.207-1.087-.004-.903.318-2.16 1.07-3.436a1.3 1.3 0 0 0-2.243-1.314c-.951 1.627-1.423 3.273-1.427 4.75.002.808.143 1.576.488 2.263.339.682.932 1.287 1.707 1.574l.004.001c.454.17 1.017.322 1.663.321a4.658 4.658 0 0 0 1.85-.4c.964-.416 1.955-1.143 3.078-2.294 1.123-1.153 2.383-2.74 3.859-4.938 2.495-3.723 4.131-6.614 6.335-9.11 2.205-2.497 5.003-4.703 10.038-7.122 5.093-2.444 10.669-4.73 15.735-7.448 5.06-2.721 9.643-5.875 12.67-10.181a1.3 1.3 0 1 0-2.129-1.492ZM173.682 112.062c.312-.372.576-.763.769-1.194.193-.429.313-.904.313-1.396 0-.379-.072-.762-.211-1.119-.419-1.069-1.301-1.875-2.411-2.418-.19-.092-.398-.167-.603-.245-1.74-2.761-3.713-5.125-5.812-6.951-1.42-1.235-2.899-2.224-4.414-2.914-1.514-.69-3.072-1.078-4.623-1.079a8.667 8.667 0 0 0-3.878.906 54.278 54.278 0 0 0-3.669-3.108c-2.324-1.787-5.293-3.801-8.211-4.688a1.3 1.3 0 1 0-.747 2.491c2.327.686 5.18 2.553 7.367 4.254a52.447 52.447 0 0 1 2.706 2.244c.134.118.247.221.358.32a8.489 8.489 0 0 0-1.954 2.591c-.629 1.306-.885 2.711-.885 4.112.005 2.472.772 4.951 1.796 7.202a30.864 30.864 0 0 0 3.486 5.782c.275.358.7.509 1.119.482.148.21.306.411.481.59.784.799 1.812 1.306 2.919 1.399a1.3 1.3 0 0 0 .21-2.591c-.422-.031-.915-.258-1.268-.624a1.975 1.975 0 0 1-.576-1.399c.002-.512.179-1.16.787-1.958.608-.793 1.657-1.711 3.317-2.635 3.191-1.782 5.94-2.423 8.001-2.421a8.089 8.089 0 0 1 1.786.187c.395.663.777 1.35 1.143 2.06.136.264.36.442.609.56-.125.14-.265.286-.437.44-.206.188-.45.384-.718.585l-1.174-1.529a1.3 1.3 0 1 0-2.063 1.582l1.041 1.357c-.179.103-.349.204-.538.308-1.502.822-3.316 1.683-5.342 2.569-.033.014-.053.042-.084.059l-.015-.024a318.865 318.865 0 0 0-1.738-2.835 1.3 1.3 0 1 0-2.209 1.372l.516.835c.474.77 1.208 1.968 1.909 3.138.699 1.167 1.373 2.322 1.697 2.945a1.301 1.301 0 0 0 2.305-1.203 50.581 50.581 0 0 0-1.13-1.997c2.382-1.049 4.492-2.068 6.227-3.084l2.553 3.327a1.3 1.3 0 1 0 2.063-1.583l-2.435-3.174c.652-.491 1.213-.991 1.667-1.528Zm-14.901-4.217c-1.884 1.052-3.22 2.163-4.112 3.323a6.576 6.576 0 0 0-1.042 1.931 27.192 27.192 0 0 1-1.689-3.109c-.93-2.029-1.565-4.206-1.561-6.122.001-1.09.197-2.089.627-2.983.434-.894 1.099-1.704 2.145-2.425 1.126-.771 2.285-1.11 3.541-1.114 1.112 0 2.305.281 3.546.846 1.861.844 3.813 2.331 5.661 4.339a29.741 29.741 0 0 1 2.079 2.567c-2.579.015-5.714.806-9.195 2.747Z"/><path d="M164.594 150.177c-3.353-1.908-7.145-2.659-11.342-2.657-3.1.004-6.438.404-10.06 1.063-1.299-1.625-2.742-3.24-4.367-4.654-1.434-1.245-3.011-2.335-4.756-3.119-1.744-.785-3.661-1.258-5.723-1.257-1.765-.001-3.628.345-5.568 1.102-1.693.66-3.493 1.713-5.469 3.043-3.453 2.326-7.442 5.514-12.052 8.993a263.05 263.05 0 0 1-4.425 3.267c-13.765-.19-28.435-4.045-41.801-14.891-7.391-6.001-12.606-12.268-15.961-18.05-2.81-4.833-4.291-9.323-4.703-13.002a45.583 45.583 0 0 0 10.023 2.509c2.337.31 4.587.442 6.758.442 3.297 0 6.411-.307 9.381-.762a66.663 66.663 0 0 1 6.441 8.344c2.375 3.637 5.102 6.126 7.957 7.687a17.796 17.796 0 0 0 8.63 2.19c3.535-.002 6.823-.976 9.493-2.303a20.237 20.237 0 0 0 3.51-2.202c.99-.784 1.788-1.587 2.357-2.403 1.196-1.726 1.905-3.916 1.908-6.213.006-2.56-.918-5.281-3.1-7.427-2.179-2.151-5.536-3.68-10.24-4.132h.002a31.573 31.573 0 0 0-3.079-.147c-5.338.004-10.529 1.228-15.942 2.414-2.28.502-4.605.992-6.994 1.399-2.156-2.27-4.375-4.288-6.59-5.979-2.5-1.907-4.99-3.417-7.388-4.463-2.398-1.043-4.705-1.628-6.855-1.63-2.027-.004-3.94.542-5.482 1.753-1.188.928-2.078 2.209-2.658 3.711-.382.988-.622 2.08-.752 3.248-2.947-1.443-5.587-3.166-7.81-5.106-5.125-4.464-8.104-9.945-8.289-15.144-.005-.141-.007-.28-.007-.418.003-2.48.812-4.785 2.386-6.976 2.356-3.28 6.488-6.243 11.978-8.6 5.485-2.36 12.305-4.122 19.968-5.118 6.303-.82 12.578-1.294 18.651-1.294 13.851-.004 26.62 2.485 36.357 8.852-.931 2.836-1.533 5.672-1.714 8.484a17.08 17.08 0 0 0-.036 1.1c.004 2.225.432 4.186 1.236 5.704.405.758.909 1.411 1.547 1.903.633.49 1.428.805 2.27.802.096 0 .19-.021.285-.029.118.522.278 1.02.491 1.482.464 1 1.158 1.853 2.073 2.404a4.628 4.628 0 0 0 2.403.674c1.145-.008 2.136-.396 2.962-.874.487.722 1.148 1.34 1.992 1.731.82.385 1.647.546 2.409.545 1.479-.005 2.678-.57 3.504-1.099.829-.533 1.31-1.049 1.361-1.103a1.3 1.3 0 0 0-1.906-1.767h-.001a5.18 5.18 0 0 1-.966.75c-.553.338-1.261.622-1.992.619-.408-.001-.832-.08-1.309-.3-.536-.256-.91-.66-1.208-1.308-.291-.643-.454-1.521-.452-2.51-.001-1.314.28-2.813.771-4.19.488-1.379 1.19-2.636 1.943-3.486a1.299 1.299 0 1 0-1.949-1.72c-1.042 1.184-1.86 2.7-2.443 4.335-.58 1.635-.92 3.387-.922 5.06.001.68.063 1.345.191 1.989-.655.433-1.382.736-1.985.728a2.008 2.008 0 0 1-1.065-.304c-.384-.23-.766-.65-1.051-1.267-.286-.614-.468-1.415-.467-2.33.002-2.293 1.122-5.28 4.302-7.924a1.301 1.301 0 0 0-1.661-2c-3.455 2.864-5.009 6.287-5.202 9.283l-.108.01c-.216-.002-.418-.063-.688-.264-.398-.297-.872-.958-1.21-1.925-.341-.963-.556-2.211-.555-3.62 0-.303.01-.615.031-.933.39-6.189 3.067-12.8 7.107-19.332 6.054-9.8 15.133-19.392 23.735-27.247 8.6-7.86 16.722-13.997 20.858-16.962a1.3 1.3 0 0 0-1.515-2.112c-5.605 4.019-18.295 13.675-29.845 25.646-5.776 5.987-11.267 12.55-15.444 19.308-1.946 3.15-3.604 6.345-4.871 9.548-10.288-6.515-23.349-8.948-37.263-8.951-6.209 0-12.592.483-18.986 1.316-10.474 1.366-19.487 4.112-25.994 8.015-3.251 1.955-5.883 4.206-7.726 6.76-1.843 2.551-2.88 5.431-2.877 8.497 0 .17.003.342.01.515.234 6.13 3.654 12.188 9.177 17.007 2.677 2.333 5.865 4.373 9.448 6.002.214 4.436 1.855 9.738 5.145 15.415 3.533 6.087 8.957 12.581 16.571 18.763 12.74 10.348 26.713 14.584 39.931 15.35-5.091 3.498-10.763 6.977-17.062 9.913-9.791 4.563-21.062 7.817-33.973 7.818-8.74 0-18.24-1.492-28.558-5.106a1.3 1.3 0 1 0-.86 2.454c10.578 3.705 20.38 5.253 29.418 5.252 20.354.001 36.764-7.837 49.565-16.209a165.838 165.838 0 0 0 5.8-3.985c.076 0 .152.004.227.004 7.526 0 14.73-1.055 21.259-2.649 7.159-1.755 13.457-3.401 18.974-4.489a94.9 94.9 0 0 1 1.686 2.299c2.267 3.188 4.674 6.816 7.617 9.717 1.473 1.449 3.088 2.719 4.906 3.635 1.816.916 3.842 1.468 6.055 1.466.113 0 .228-.001.346-.004h.004c2.554-.061 4.72-1.036 6.204-2.583 1.488-1.544 2.29-3.626 2.289-5.817.006-3.589-2.146-7.441-6.626-9.974Zm-91.57-39.625c5.437-1.197 10.454-2.357 15.384-2.354.944 0 1.884.042 2.825.135h.002c4.282.417 7.007 1.76 8.664 3.394 1.654 1.638 2.32 3.615 2.326 5.577.003 1.75-.562 3.467-1.442 4.728-.365.528-.998 1.189-1.835 1.848-1.255.993-2.964 1.991-4.926 2.728-1.963.738-4.178 1.218-6.465 1.217-2.428-.001-4.934-.532-7.381-1.87-2.446-1.341-4.85-3.496-7.03-6.829a69.721 69.721 0 0 0-5.612-7.441c1.88-.353 3.71-.743 5.49-1.133Zm-34.1-6.811c.442-1.141 1.065-1.998 1.835-2.6 1.026-.8 2.296-1.199 3.88-1.202 1.667-.003 3.656.471 5.816 1.414 3.242 1.411 6.855 3.863 10.406 7.14.486.448.97.914 1.453 1.392-2.31.294-4.688.481-7.166.481-2.066 0-4.199-.126-6.417-.42a42.645 42.645 0 0 1-10.468-2.772c.066-1.317.29-2.478.66-3.433Zm83.598 49.66c-5.349 1.307-11.157 2.229-17.202 2.491 2.556-1.906 4.928-3.74 7.107-5.402 2.328-1.778 4.443-3.362 6.335-4.636 1.89-1.275 3.563-2.235 4.959-2.776 1.669-.65 3.198-.925 4.625-.925 1.665.001 3.2.375 4.657 1.028 2.183.978 4.182 2.606 5.983 4.506.45.474.887.965 1.312 1.465-5.303 1.102-11.184 2.642-17.776 4.249Zm44.537 10.763c-1.004 1.035-2.451 1.733-4.4 1.788h.004c-.094.002-.189.003-.286.003-1.785-.001-3.379-.431-4.885-1.188-2.256-1.133-4.304-3.035-6.204-5.285-1.901-2.248-3.65-4.826-5.369-7.25-.305-.429-.624-.87-.949-1.316 3.009-.503 5.768-.8 8.282-.796 3.9.002 7.188.688 10.057 2.318 3.821 2.183 5.305 5.168 5.311 7.713-.002 1.564-.562 2.974-1.561 4.013Z"/></g></svg>