<svg xmlns="http://www.w3.org/2000/svg" width="200" height="200" fill="none"><path fill="#FFD93A" d="M26.649 30.874c-.682 9.007 9.143 9.416 15.83 6.141 0 0-3.412-6.823-8.87-8.46-5.46-1.638-6.96 2.32-6.96 2.32ZM55.17 15.318c10.78 8.597 14.601 2.593 15.557-1.091 0 0-2.593-5.732-6.96-4.776-4.367.955-8.597 5.867-8.597 5.867ZM176.072 96.648c.683 9.143 9.416 7.915 16.376 4.094 0 0-6.414-7.369-11.053-7.096-4.64.273-5.323 3.002-5.323 3.002ZM143.311 55.332l33.036-4.807 10.78-5.049-2.456 6.55 3.002 2.32-10.234 4.093 9.279.82-5.322 4.64-9.416.135-5.458 9.007.955 10.098-5.185-11.326 2.046-7.915-20.059 1.91-.968-10.476ZM126.255 67.295l-49.797 4.108a46.7 46.7 0 0 1-11.872-2.865c-6.413-2.457-9.279-3.276-12.145-1.365-2.865 1.91-13.373 9.28-13.373 9.28l-24.562-2.375 24.29-2.593s7.505-7.997 9.552-9.361c2.047-1.365 2.729-1.365 2.729-1.365s-5.868-6.55-6.823-8.46c-.956-1.91.546-5.459.546-5.459s8.596 7.096 10.234 8.87c1.637 1.774 16.375 7.37 19.104 7.778.983.148 7.027-.342 14.36-1.029.779-.073 3.95 3.493 4.753 3.416 5.15-.493 8.468-.631 13.25-1.125 1.089-.112 2.005-4.287 2.999-4.39 5.351-.559 9.124-.965 9.124-.965s-13.646-7.506-14.465-8.46c-.818-.956-8.188-11.327-8.188-11.327l-15.283-2.729-4.503-7.369 7.096 3.002 15.01 1.91 7.369 8.325 3.275-18.013 2.32 5.731.136 16.648 15.694 7.554-.83 12.628Z"/><path fill="#191C22" d="M49.077 155.408c-8.24.943-14.512 4.83-15.239 11.335-.684 6.126 5.565 12.438 15.055 10.962 7.545-1.174 11.92-7.204 12.418-10.371.99-6.282-3.995-12.869-12.234-11.926Zm2.798 14.983a5.435 5.435 0 0 1-5.024-3.357 5.438 5.438 0 1 1 5.024 3.357ZM48.475 141.97c8.24.943 13.224-5.644 12.235-11.926-.5-3.168-4.874-9.197-12.418-10.371-9.49-1.477-15.74 4.836-15.055 10.962.727 6.505 7 10.392 15.238 11.335Zm2.307-15.219a5.442 5.442 0 0 1 5.024 3.357 5.439 5.439 0 1 1-5.024-3.357Z"/><path fill="#191C22" d="M52.02 166.779a1.88 1.88 0 1 0-.138-3.757 1.88 1.88 0 0 0 .138 3.757ZM50.989 134.176a1.879 1.879 0 1 0-.137-3.755 1.879 1.879 0 0 0 .137 3.755ZM66.422 154.181c-.479-.992-.89-2.016-1.231-3.064a20.63 20.63 0 0 1-1.13-6.274c0-.431.021-.863.065-1.292a1.298 1.298 0 0 0-1.666-1.386 1.304 1.304 0 0 0-.92 1.119 15.21 15.21 0 0 0-.078 1.559c.004.805.06 1.608.168 2.405l-.138.013c-.635.057-1.772.152-2.876.218-.88-1.967-3.472-3.843-5.23-3.669-2.464.245-2.048 9.028.102 9.839 1.309.493 4.101-1.542 5.084-3.563 1.506-.085 3.06-.226 3.54-.271.206.834.439 1.611.671 2.302a26.25 26.25 0 0 0 1.328 3.255 1.298 1.298 0 0 0 1.747.561 1.301 1.301 0 0 0 .568-1.745l-.004-.007Z"/><path fill="#191C22" d="M8.392 75.291a6356.602 6356.602 0 0 1 19.365 1.652c2.563.224 4.922.433 6.72.6.9.082 1.659.154 2.23.212.566.056.973.102 1.071.118.1.015.2.023.3.023.282-.005.56-.051.827-.139.49-.166.962-.381 1.408-.643a62.113 62.113 0 0 0 6.081-4.273c1.057-.805 2.072-1.585 2.936-2.225a21.95 21.95 0 0 1 1.968-1.352c.955-.534 1.724-1.113 2.486-1.514a5.056 5.056 0 0 1 2.494-.663 9.187 9.187 0 0 1 3.568.873 78.674 78.674 0 0 0 8.29 3.009c1.799.55 3.633.978 5.489 1.28a11.426 11.426 0 0 0 2.658 4.429 108.81 108.81 0 0 0-4.693 8.546 87.566 87.566 0 0 0-7.144 19.656 23.33 23.33 0 0 0-7.093-1.117 38.332 38.332 0 0 0-18.4 4.457 37.573 37.573 0 0 0-8.083 5.885 9.704 9.704 0 0 0-3.08-3.49 10.909 10.909 0 0 0-6.218-1.926c-2.117.003-4.19.603-5.982 1.731a10.768 10.768 0 0 0-3.931 4.282 12.206 12.206 0 0 0-1.277 5.544 16.668 16.668 0 0 0 8.33 13.953 51.063 51.063 0 0 0-2.435 15.161c0 1.058.039 2.094.116 3.108.624 8.127 1.857 14.522 4.174 19.491a18.433 18.433 0 0 0-8.663 2.786 11.806 11.806 0 0 0-2.959 2.65 5.116 5.116 0 0 0-1.198 3.012 3.471 3.471 0 0 0 .68 2.074c.39.515.882.942 1.445 1.256a10.998 10.998 0 0 0 3.62 1.186c1.953.309 3.929.45 5.906.423 5.29-.091 10.567-.531 15.798-1.317.054-.014.107-.03.159-.051.568.146 1.132.295 1.73.414a90.2 90.2 0 0 0 16.466 1.249 123.68 123.68 0 0 0 22.403-1.815 16.18 16.18 0 0 0 3.708-1.212c.14-.067.266-.142.402-.212 5.174 1.405 12.34 2.279 20.339 2.819 8.058.542 16.938.736 25.339.736 5.574 0 10.936-.086 15.704-.212 15.498-.416 27.257-2.935 35.301-7.883a25.295 25.295 0 0 0 9.143-9.308 26.315 26.315 0 0 0 3.062-12.893 39.213 39.213 0 0 0-.262-4.44 68.065 68.065 0 0 0-9.275-26.995c-4.219-7.272-8.84-13.134-11.759-18.385a150.723 150.723 0 0 1-8.743-20.049 187.601 187.601 0 0 1-5.866-18.648c-.042-.18-.1-.344-.146-.52a665.35 665.35 0 0 0 10.043-1.055 127.09 127.09 0 0 0-.604 1.729 76.14 76.14 0 0 0-.948 2.929c-.136.456-.253.88-.345 1.26a7.14 7.14 0 0 0-.188 1.035l-.007.168c.004.251.04.502.106.744.132.474.299.936.501 1.384a68.626 68.626 0 0 0 3.286 6.196c1.175 2.02 2.168 3.622 2.172 3.628a1.3 1.3 0 0 0 2.395-.84l-1.313-10.897.538-.926a219.883 219.883 0 0 1 2.658-4.455c.464-.753.9-1.44 1.239-1.938.109-.16.202-.292.285-.406l8.578-.256c.261-.008.513-.094.724-.247l6.96-5.05a1.304 1.304 0 0 0 .471-1.46 1.305 1.305 0 0 0-1.249-.891l-4.258.046 5.639-1.88a1.296 1.296 0 0 0 .718-1.877 1.297 1.297 0 0 0-.548-.519l-3.76-1.88 2.572-5.255a1.305 1.305 0 0 0-.248-1.491 1.302 1.302 0 0 0-1.492-.248c-.001 0-.431.212-1.134.551-2.103 1.018-6.667 3.195-9.147 4.185-.15.053-.303.098-.459.134-.927.233-2.83.567-5.279.938-7.37 1.12-19.86 2.64-28.927 3.705-.11.02-.217.055-.318.104a19.625 19.625 0 0 0-6.119-.967 19.164 19.164 0 0 0-6.676 1.15 1.234 1.234 0 0 0-.208-.145 686.924 686.924 0 0 1-9.956-4.405 190.811 190.811 0 0 1-4.554-2.126 46.738 46.738 0 0 1-1.549-.786c-.075-.04-.14-.077-.206-.113.032-1.833.109-6.754.109-10.706 0-1.238-.008-2.38-.027-3.309-.01-.464-.022-.874-.039-1.22a10.824 10.824 0 0 0-.067-.868 18.49 18.49 0 0 0-.536-2.324c-.749-2.658-1.98-6.114-1.984-6.128a1.302 1.302 0 0 0-2.133-.494 1.302 1.302 0 0 0-.381.763l-2.32 17.863c-.72-.954-1.537-2.04-2.283-3.037a248.64 248.64 0 0 1-1.458-1.964 53.441 53.441 0 0 1-.48-.661l-.146-.209-.042-.061-.01-.016a1.432 1.432 0 0 0-.325-.372 1.784 1.784 0 0 0-.423-.251 4.37 4.37 0 0 0-.644-.209c-.844-.213-2.16-.423-3.749-.644-4.264-.591-10.292-1.195-11.46-1.31l-9.082-4.141a1.3 1.3 0 0 0-1.553 1.997c.002.002 1.538 1.915 3.199 3.935a213 213 0 0 0 2.41 2.888c.36.422.684.794.956 1.096.136.15.26.284.372.4.114.118.21.214.326.315.117.098.245.183.383.25.205.101.419.186.637.254 1.197.346 2.412.63 3.638.849 3.757.735 8.891 1.526 10.576 1.78.543.807 1.714 2.543 2.957 4.364.85 1.244 1.729 2.523 2.46 3.565.366.52.694.982.966 1.354.276.376.477.645.657.853.164.177.348.336.546.473.359.261.839.566 1.438.929 2.083 1.26 5.569 3.172 8.555 4.782.634.343 1.243.67 1.813.974l-5.537.59a6.958 6.958 0 0 0-1.94-1.471 5.798 5.798 0 0 0-2.607-.614 6.715 6.715 0 0 0-1.907.292 11.048 11.048 0 0 1 1.354 2.352c.345.795.607 1.623.784 2.472a1.292 1.292 0 0 1-.551 1.335 1.3 1.3 0 0 1-1.998-.825 9.99 9.99 0 0 0-.621-1.961 8.148 8.148 0 0 0-1.436-2.322 5.526 5.526 0 0 0-1.468-1.144 5.71 5.71 0 0 0-1.852-.324 4.96 4.96 0 0 0-2.62.736c-.138.085-.268.188-.4.288.493.752.89 1.562 1.183 2.411.252.71.45 1.437.594 2.176a1.3 1.3 0 0 1-2.552.498c-.087-.45-.194-.862-.31-1.25a7.664 7.664 0 0 0-1.676-3.143 3.634 3.634 0 0 0-1.782-1.074 5.43 5.43 0 0 0-2.017.486 7.121 7.121 0 0 0-1.373.813l-.078-.043c-.258.26-.483.55-.672.864-.254.445-.44.925-.552 1.425a6.22 6.22 0 0 0-.109.606l-2.625.269a9.08 9.08 0 0 1 .224-1.574 7.66 7.66 0 0 1 .817-2.037c.095-.164.214-.31.322-.466a7.305 7.305 0 0 0-1.167-.1 7.793 7.793 0 0 0-4.31 1.346 10.729 10.729 0 0 0-3.216 3.437c-.012.02-.012.043-.023.063a10.052 10.052 0 0 1-1.492-.236 73.59 73.59 0 0 1-10.535-3.685 124.141 124.141 0 0 1-4.958-2.192 54.297 54.297 0 0 1-1.747-.858c-.465-.239-.815-.44-.952-.532-.194-.128-.527-.38-.926-.703-1.409-1.136-3.677-3.158-5.573-4.88-.949-.862-1.808-1.652-2.43-2.226-.62-.573-1.002-.929-1.003-.93a1.3 1.3 0 0 0-2.17.746 30.646 30.646 0 0 0-.366 4.03c-.006.442.026.884.097 1.32.045.224.116.442.214.648.184.385.396.756.636 1.11a59.39 59.39 0 0 0 3.661 4.735c.477.57.924 1.094 1.297 1.528a10.221 10.221 0 0 0-2.475 1.91c-.46.492-1.305 1.294-2.283 2.184a253.483 253.483 0 0 1-4.688 4.137 423.072 423.072 0 0 1-2.158 1.851L8.389 72.701a1.3 1.3 0 0 0 .003 2.59Zm77.961-3.458a6.435 6.435 0 0 0 2.046 2.463 4.217 4.217 0 0 0 2.287.72 1.302 1.302 0 0 1 1.25 1.116 112 112 0 0 1 .753 14.336c0 2.06-.039 4.317-.133 6.755a194.831 194.831 0 0 1-.471 7.84c-.15 1.856-.334 3.784-.553 5.783a434.142 434.142 0 0 1-2.052 16.044 1.301 1.301 0 0 1-1.476 1.097 1.284 1.284 0 0 1-1.081-1.177 1.248 1.248 0 0 1-.016-.298c.314-2.134.667-4.644 1.05-7.631a35 35 0 0 0-5.217 3.362 44.23 44.23 0 0 0-1.219-2.355c2-1.48 4.124-2.787 6.347-3.906a1.28 1.28 0 0 1 .468-.136c.195-1.613.397-3.344.606-5.229l.006-.056a183.829 183.829 0 0 0 1.14-20.093 122.39 122.39 0 0 0-.607-12.98 6.793 6.793 0 0 1-2.53-1.033 8.32 8.32 0 0 1-2.242-2.29 11.332 11.332 0 0 1-1.124-2.163l-.011-.03a858.92 858.92 0 0 0 2.756-.19c.009.018.014.033.023.05Zm38.399-2.928c.024-.002.043-.015.066-.018a21.923 21.923 0 0 0 2.886 3.821 157.743 157.743 0 0 0-1.364 20.99c0 3.603.118 7.313.371 11.069-1.209.111-2.41.243-3.602.397-.559-5.424-1.263-10.767-2.168-15.84a114.65 114.65 0 0 0-4.261-17.116 68.107 68.107 0 0 0-1.025-2.75l5.092-.305c1.354-.08 2.689-.163 4.005-.248ZM75.429 181.28a121.507 121.507 0 0 1-21.878 1.761 87.835 87.835 0 0 1-15.957-1.198 22.89 22.89 0 0 1-8.019-3.056 18.871 18.871 0 0 1-7.32-9.47c-1.705-4.327-2.73-9.953-3.27-17.047a38.304 38.304 0 0 1-.108-2.91 49.124 49.124 0 0 1 9.347-28.357 36.579 36.579 0 0 1 11.96-10.493 35.713 35.713 0 0 1 17.17-4.147c6.067.004 12.034 2.678 16.97 7.957 4.931 5.277 8.8 13.174 10.493 23.522.116.707.223 1.413.327 2.118.142.962.277 1.922.397 2.877.609 4.722.925 9.477.947 14.238.003 6.172-.634 11.582-1.9 15.425a17.7 17.7 0 0 1-1.76 3.976c-.27.43-.57.841-.899 1.228a11.018 11.018 0 0 1-6.5 3.576Zm101.736-55.75a65.455 65.455 0 0 1 8.942 25.985c.16 1.376.242 2.76.245 4.146a23.717 23.717 0 0 1-2.739 11.639c-2.72 4.935-7.483 8.723-14.516 11.392-7.025 2.663-16.264 4.147-27.719 4.454-4.748.126-10.089.211-15.636.211-7.559 0-15.497-.161-22.844-.588-.303-1.247-.494-4.153 1.306-10.113.216-.713.453-1.387.699-2.045.397-.823.831-1.634 1.304-2.431 3.052-5.155 7.627-9.868 11.51-15.663a38.223 38.223 0 0 0 7.012-22.2c0-.542-.01-1.091-.031-1.649-.252-6.807-.674-13.907-1.332-20.918a92.719 92.719 0 0 1 3.544-.39c.259 3.079.609 6.178 1.072 9.267 1.315 8.78 3.634 16.171 7.111 22a28.74 28.74 0 0 0 14.021 12.446 20.619 20.619 0 0 0 7.693 1.552 16.345 16.345 0 0 0 11.513-4.529 18.06 18.06 0 0 0 5.23-12.212 76.24 76.24 0 0 0 .122-4.292 56.826 56.826 0 0 0-1.698-14.254c1.721 2.562 3.496 5.263 5.191 8.192Zm-13.478-71.922c3.432-.457 6.533-.895 8.932-1.278 1.2-.192 2.223-.37 3.035-.531.406-.082.759-.159 1.062-.234a6.35 6.35 0 0 0 .795-.243c1.763-.705 4.358-1.902 6.537-2.93l.534-.254-1.49 3.044a1.303 1.303 0 0 0 .587 1.734l2.105 1.052-10.532 3.511a1.301 1.301 0 0 0 .426 2.533l8.473-.092-3.332 2.418-8.742.26c-.222.008-.439.071-.63.185-.11.067-.213.146-.305.236-.119.117-.23.242-.332.375-.376.48-.853 1.209-1.409 2.091-1.652 2.63-3.867 6.492-3.872 6.5a1.32 1.32 0 0 0-.163.802l.622 5.16-.311-.557c-.623-1.128-1.209-2.245-1.626-3.145a13.269 13.269 0 0 1-.477-1.142 3.555 3.555 0 0 1-.106-.35l-.012-.063c.029-.2.068-.397.118-.593.268-1.114.907-3.052 1.471-4.667.282-.811.547-1.548.741-2.081.193-.534.315-.86.315-.86a1.295 1.295 0 0 0-.197-1.26 1.31 1.31 0 0 0-1.179-.485l-.872.103c-1.708.2-5.855.67-11.766 1.244a17.253 17.253 0 0 0-6.293-8.234l-.022-.014c5.738-.683 12.267-1.483 17.915-2.235Zm-25.472 1.67a1.286 1.286 0 0 1 1.198.604c.117.172.19.37.213.575a24.957 24.957 0 0 0 1.097 5.22l.007.02a1.302 1.302 0 0 1-1.795 1.597 1.3 1.3 0 0 1-.661-.743 27.37 27.37 0 0 1-1.238-5.862 1.278 1.278 0 0 1 .53-1.138c.186-.15.411-.245.649-.272Zm-9.348 1.084c.208-.01.416.031.604.12a1.285 1.285 0 0 1 .783 1.087c.101 1.048.342 2.077.717 3.06.209.578.45 1.144.722 1.694l.01.018a1.3 1.3 0 0 1-2.305 1.203c-.299-.592-.564-1.2-.794-1.82a14.542 14.542 0 0 1-.944-3.975c.001-.1.014-.2.039-.296a1.28 1.28 0 0 1 1.168-1.091Zm-9.514 3.962a1.99 1.99 0 0 0 1.195-.78 1.296 1.296 0 0 0 .09-.99 1.309 1.309 0 0 0-.636-.765c-.003 0-.914-.48-2.301-1.218a502.964 502.964 0 0 1-7.93-4.3 129.997 129.997 0 0 1-3.528-2.025 28.2 28.2 0 0 1-1.134-.712 6.81 6.81 0 0 1-.317-.225l-.057-.046a14.363 14.363 0 0 1-.495-.65c-.9-1.233-2.571-3.664-4.004-5.771a906.254 906.254 0 0 1-1.859-2.744c-.48-.712-.78-1.159-.78-1.16a1.297 1.297 0 0 0-.89-.561c-.002 0-.881-.13-2.222-.34a288.434 288.434 0 0 1-7.665-1.289 73.361 73.361 0 0 1-3.396-.697 15.006 15.006 0 0 1-1.06-.285 3.2 3.2 0 0 1-.214-.076l-.082-.08c-.317-.328-.928-1.03-1.63-1.861a223.074 223.074 0 0 1-1.65-1.98l4.226 1.926c.13.06.27.097.413.111.003 0 .96.094 2.407.245 2.172.226 5.442.582 8.191.943 1.373.18 2.619.362 3.511.525.424.077.762.151.977.209.28.4.765 1.058 1.367 1.867 1.911 2.57 4.879 6.482 4.88 6.483a1.303 1.303 0 0 0 2.013.072c.171-.194.279-.434.312-.69l1.99-15.322c.118.4.229.79.321 1.142.124.446.223.9.297 1.357.014.098.033.338.047.648.045.94.063 2.567.063 4.406 0 2.456-.03 5.308-.061 7.543-.03 2.236-.06 3.851-.06 3.855a1.299 1.299 0 0 0 .507 1.055c.154.115.314.22.479.318.651.388 1.681.905 2.992 1.533 3.397 1.624 8.583 3.915 12.284 5.53a8.336 8.336 0 0 0-2.017 2.145 8.092 8.092 0 0 0-1.216 4.378c.024 1.483.322 2.949.879 4.324-.992.063-1.984.125-2.997.185l-6.004.36c-.891-2-1.944-3.923-3.148-5.75l7.912-.843ZM37.814 72.78a1.29 1.29 0 0 0 .73-.303c.002-.003 1.882-1.595 4.023-3.465 1.07-.936 2.206-1.94 3.208-2.853 1.004-.915 1.865-1.727 2.429-2.327a7.312 7.312 0 0 1 3.213-2.016 1.3 1.3 0 0 0 .894-1.606 1.279 1.279 0 0 0-.74-.82l-.06-.067a134.152 134.152 0 0 1-3.466-4.126 45.467 45.467 0 0 1-1.81-2.392 11.378 11.378 0 0 1-.558-.873 2.95 2.95 0 0 1-.133-.262l-.014-.037a5.242 5.242 0 0 1-.053-.831c0-.348.019-.74.047-1.133.7.642 1.535 1.405 2.413 2.196 1.139 1.028 2.343 2.1 3.398 3.006.529.454 1.02.866 1.45 1.214.434.35.8.63 1.118.843.46.29.935.555 1.423.794 2.146 1.09 6.08 2.849 9.985 4.356 1.952.753 3.89 1.442 5.6 1.949a29.05 29.05 0 0 0 2.377.61c.647.145 1.307.226 1.97.242.113 0 .225-.004.336-.012.353-.025.957-.079 1.779-.157a1576.962 1576.962 0 0 0 7.707-.774c.1.124.181.261.242.408.263.648.428 1.332.489 2.029.026.217.04.436.04.655a2.424 2.424 0 0 1-.645 1.87 1.845 1.845 0 0 1-.634.4c-1.085.075-2.18.148-3.223.215-1.377.088-2.666.165-3.722.22a54.022 54.022 0 0 1-2.3.087c-.113 0-.197-.003-.201-.004a33.218 33.218 0 0 1-6.25-1.34 76.1 76.1 0 0 1-8.011-2.908 11.73 11.73 0 0 0-4.587-1.081c-1.3.003-2.58.336-3.716.968-.992.533-1.778 1.126-2.526 1.537-.437.252-.86.526-1.27.822-1.662 1.171-4.078 3.094-6.295 4.723-1.105.812-2.159 1.549-3.002 2.06a9.62 9.62 0 0 1-1.057.57c-.1.045-.203.084-.309.116l-.03.007c-.149-.02-.327-.04-.583-.068-2.01-.214-7.822-.726-13.721-1.234l14.045-1.208ZM44.955 36.643a1.298 1.298 0 0 0-1.126-1.545 3.525 3.525 0 0 1-1.813-.855 30.844 30.844 0 0 1-3.083-3.307 12.387 12.387 0 0 0-4.386-3.409 6.25 6.25 0 0 0-2.403-.463 9.976 9.976 0 0 0-4.55 1.27c-.36.192-.673.379-.945.55a12.39 12.39 0 0 1-.67-.578 15.85 15.85 0 0 1-1.467-1.551l-.076-.095-.017-.022-.002-.002a1.3 1.3 0 1 0-2.067 1.576 17.187 17.187 0 0 0 2.748 2.761 10.08 10.08 0 0 0-.048.986 9.322 9.322 0 0 0 .885 4.071 7.504 7.504 0 0 0 4.286 3.772c1.281.462 2.634.692 3.995.68 2.386-.06 4.74-.564 6.94-1.49a28.813 28.813 0 0 0 2.223-1.005c.27-.136.487-.249.628-.32l.136-.068-.005-.011a1.283 1.283 0 0 0 .817-.945Zm-5.628.26c-1.637.61-3.364.94-5.11.98a8.88 8.88 0 0 1-3.094-.52 4.875 4.875 0 0 1-2.853-2.477 6.396 6.396 0 0 1-.596-2.334c.37.161.75.294 1.14.399a1.3 1.3 0 0 0 .64-2.52c-.045-.011-.09-.03-.136-.042a6.928 6.928 0 0 1 2.826-.726c.483-.005.962.085 1.41.267a7.817 7.817 0 0 1 2.357 1.612c1.11 1.045 2.117 2.387 3.258 3.59.442.462.92.888 1.43 1.275-.394.166-.812.334-1.272.497ZM52.958 16.02a26.722 26.722 0 0 0 4.236 3.05 14.763 14.763 0 0 0 7.178 2.135c.397 0 .794-.022 1.188-.067a7.687 7.687 0 0 0 4.003-1.604 8.456 8.456 0 0 0 2.688-4.073c.176-.548.306-1.11.39-1.678a17.198 17.198 0 0 0 3.326-2.026 1.3 1.3 0 0 0-1.633-2.024l-.002.002c-.638.49-1.313.927-2.02 1.308-.216.118-.45.229-.684.339a14.13 14.13 0 0 0-1.222-1.13 10.78 10.78 0 0 0-2.253-1.438 7.048 7.048 0 0 0-2.966-.697c-.302 0-.604.023-.903.069a10.24 10.24 0 0 0-3.423 1.233c-1.525.85-2.823 1.9-4.002 2.68-.52.36-1.073.671-1.651.928-.442.2-.92.31-1.406.32-.112 0-.225-.006-.336-.02v.003c-.023-.003-.037-.008-.063-.01a1.3 1.3 0 0 0-1.393 1.164 1.286 1.286 0 0 0 .561 1.187l-.007.01c.025.018.187.159.394.339Zm3.98-.937c1.352-.8 2.661-1.67 3.922-2.608a9.574 9.574 0 0 1 3.816-1.72c.17-.025.34-.038.511-.038.65.014 1.288.17 1.87.455a8.046 8.046 0 0 1 1.618 1.033c-.044.002-.093.014-.137.014a1.3 1.3 0 0 0 .022 2.6 8.067 8.067 0 0 0 1.201-.116 6.88 6.88 0 0 1-.445 1.08 5.252 5.252 0 0 1-1.438 1.768c-.76.572-1.665.92-2.612 1.004-.297.033-.595.05-.894.05a13.236 13.236 0 0 1-6.928-2.428c-.413-.27-.789-.537-1.137-.796.215-.093.426-.191.63-.298Z"/><path fill="#191C22" d="M194.432 99.213c-.004-.005-.006-.012-.011-.017l-.414-.278a1.29 1.29 0 0 0-.331-.07 1.242 1.242 0 0 0-.165-.035 3.524 3.524 0 0 1-1.894-.656 30.849 30.849 0 0 1-3.417-2.96 12.39 12.39 0 0 0-4.724-2.923 6.098 6.098 0 0 0-1.722-.244 9.246 9.246 0 0 0-4.885 1.642c-.428.278-.797.551-1.102.793a12.423 12.423 0 0 1-.728-.503 15.818 15.818 0 0 1-1.623-1.387l-.086-.087-.019-.02-.003-.002a1.294 1.294 0 0 0-.908-.405 1.299 1.299 0 0 0-.979 2.193 17.24 17.24 0 0 0 3.026 2.453c.01 1.399.313 2.78.889 4.054a7.52 7.52 0 0 0 1.836 2.481 7.81 7.81 0 0 0 3.31 1.698c.878.219 1.781.328 2.686.325a17.43 17.43 0 0 0 7.658-2.066 27.797 27.797 0 0 0 2.425-1.388c.295-.187.53-.343.684-.445l.152-.097.002-.001-.006-.01c.05-.029.098-.061.144-.096a1.29 1.29 0 0 0 .187-.124l.003-.004c.244-.243.381-.572.383-.915v-.004a1.28 1.28 0 0 0-.368-.902Zm-11.264 3.452a8.334 8.334 0 0 1-2.05-.246 5.218 5.218 0 0 1-2.227-1.127 5.306 5.306 0 0 1-1.536-2.527 7.11 7.11 0 0 1-.177-.762c.384.12.777.213 1.175.275a1.301 1.301 0 0 0 1.464-1.104 1.298 1.298 0 0 0-1.096-1.47c-.046-.006-.094-.02-.14-.027a6.427 6.427 0 0 1 3.173-1.047 3.48 3.48 0 0 1 .989.139 7.82 7.82 0 0 1 2.517 1.352c1.215.922 2.359 2.148 3.621 3.223.49.413 1.012.787 1.561 1.117a15.823 15.823 0 0 1-7.274 2.204Z"/></svg>