<svg xmlns="http://www.w3.org/2000/svg" width="200" height="200" fill="none"><path fill="#BEBEC9" d="m182.75 44.906 1.383-5.186a1.3 1.3 0 1 0-2.512-.67l-1.383 5.186a1.3 1.3 0 1 0 2.512.67Z"/><path fill="#FFE632" d="M192.102 46.936a1.302 1.302 0 0 0-.917-.73l-21.743-4.526a1.3 1.3 0 0 0-1.386.615c-3.542 6.004-3.8 10.969-3.983 15.107-.093 2.074-.182 3.943-.611 5.713-.431 1.771-1.176 3.46-2.671 5.288-1.701 2.07-2.775 3.982-3.436 5.775-.996 2.693-1.04 5.076-1.063 7.19-.02 2.128-.032 3.973-.749 5.928a1.3 1.3 0 0 0 .624 1.602l21.688 11.193c.53.273 1.18.15 1.574-.299a5.22 5.22 0 0 0 1.079-1.97c.209-.7.281-1.413.281-2.128-.003-1.382-.262-2.787-.498-4.237-.24-1.449-.465-2.936-.464-4.424 0-1.344.179-2.683.683-4.03.505-1.346 1.336-2.713 2.712-4.112 2.153-2.18 3.368-4.52 4.029-6.911.991-3.594.839-7.239 1.159-11.122.316-3.889 1.042-8.024 3.648-12.751a1.3 1.3 0 0 0 .044-1.171Zm-6.511 17.602c-.123 2.475-.275 4.707-.845 6.744-.573 2.039-1.53 3.902-3.377 5.784-1.608 1.632-2.662 3.332-3.294 5.026-.635 1.693-.849 3.367-.848 4.941.001 1.746.257 3.379.498 4.847.245 1.466.467 2.774.464 3.814 0 .539-.057 1-.172 1.384-.015.051-.04.092-.057.141l-19.632-10.131c.332-1.235.465-2.42.517-3.55.098-2.2-.044-4.194.353-6.291.397-2.098 1.287-4.363 3.602-7.194 1.74-2.114 2.689-4.237 3.19-6.328.749-3.147.574-6.154.875-9.348.278-2.988.93-6.17 2.99-9.955l19.127 3.98c-2.998 6.175-3.164 11.576-3.391 16.136Z"/><path fill="#BEBEC9" d="M185.054 35.89c1.342-5.43 3.66-15.797 3.702-25.585a1.299 1.299 0 1 0-2.599-.01c-.034 9.395-2.302 19.63-3.626 24.97a1.3 1.3 0 1 0 2.524.625h-.001Z"/><path fill="#FFE632" d="m181.711 49.27-8.171-1.7s-.254 3.6-3.454 3.575c0 0-1 2-1 8.875s-3.824 11.625-5.949 14.125-1.801 7.6-1.801 7.6 2.625 1 2.375 5.125l8.25 4.4s-.229-4.887 3-3.624c-.252-2.55-.209-6.25 2.325-9.376 4.111-5.068 5.7-6.624 5.95-12.874.25-6.25 1.2-11.5 1.2-11.5-3.375-1.75-2.725-4.626-2.725-4.626Zm-6.75 7.25c.625-2.25 3.75-.875 3.375 1s-4.031 1.366-3.375-1Zm-3.625 23.1c-.375 1.875-4.031 1.366-3.375-1 .625-2.25 3.75-.875 3.375 1Zm8.025-8c-3.055 3.61-12.574 2.412-9.582-3.473 4.166-8.193 12.637-.138 9.582 3.472Z"/><path fill="#BEBEC9" d="m175.67 40.675-1.135 5.147a3.85 3.85 0 0 0 .903 3.41 3.842 3.842 0 0 0 2.515 1.256 1.3 1.3 0 0 0 .234-2.59 1.253 1.253 0 0 1-1.113-1.517l1.134-5.146a1.299 1.299 0 1 0-2.538-.56Z"/><path fill="#FFE632" d="m100.566 94.597-.03-.2-.13.09c.7 5.25 4.42 10.43 8.45 10.66.831.05 1.68-.129 2.54-.49l.06-.139-.26.099c1.09-4.12-.87-11.26-10.63-10.02ZM130.788 79.758a1.3 1.3 0 0 0-2.522.633l.061.242a1.3 1.3 0 1 0 2.521-.633l-.06-.242ZM135.964 73.292a3.499 3.499 0 0 0-1.067-1.267 2.988 2.988 0 0 0-1.749-.55c-.287 0-.578.038-.869.11-.825.186-1.52.74-1.892 1.395-.382.656-.508 1.367-.51 2.06a6.612 6.612 0 0 0 1.038 3.46c.331.513.738.981 1.255 1.349.512.364 1.162.627 1.88.625.111 0 .225-.005.34-.018l.012-.001c.306-.035.581-.154.792-.296.371-.253.582-.552.75-.845.245-.444.391-.915.497-1.426.103-.51.156-1.057.156-1.618-.005-.996-.154-2.034-.633-2.978Z"/><path fill="#FFE632" d="M132.277 71.585h.003l.003-.002-.006.002ZM88.33 73.09a1.3 1.3 0 1 0-2.521.632l.063.254a1.3 1.3 0 0 0 2.522-.634l-.063-.252ZM89.951 64.612h.005v-.001l-.005.001Z"/><path fill="#FFE632" d="M92.637 65.062a3.057 3.057 0 0 0-1.79-.562c-.294 0-.592.038-.891.111a3.039 3.039 0 0 0-1.94 1.43c-.391.672-.522 1.404-.524 2.12.008 1.252.398 2.51 1.074 3.575.341.53.761 1.013 1.293 1.39.527.375 1.193.643 1.927.642.118 0 .234-.006.347-.019l.014-.001c.31-.036.587-.156.801-.3.376-.256.592-.56.764-.861.252-.456.403-.942.512-1.471a8.532 8.532 0 0 0 .162-1.675c-.006-1.031-.16-2.106-.654-3.078-.25-.482-.599-.947-1.095-1.301Z"/><path fill="#BEBEC9" d="M168.639 112.662c-.028-.023-.953-.821-2.369-1.772-1.419-.951-3.32-2.061-5.38-2.692-1.146-.348-2.641-.63-4.408-.836a50.686 50.686 0 0 0-3.963-.287c.071-.068.137-.142.191-.226.239-.368.275-.838.095-1.238l-2.081-4.645 3.118-1.137c.349-.128.625-.396.762-.741.138-.346.121-.73-.045-1.063-.034-.066-.868-1.724-2.589-3.735-1.721-2.007-4.341-4.382-7.967-5.79-.035-.013-.07-.007-.105-.017-.001-.062-.007-.126-.007-.187.001-.951.113-1.84.316-2.83.595-2.923 2.057-6.687 3.338-14.176.027-.1.066-.193.069-.3l.001-.11c.094-.53.19-1.082.277-1.67.195-1.292.291-2.569.291-3.826.003-6.702-2.725-12.821-7.251-17.96-4.187-4.756-9.918-8.7-16.553-11.675a21.86 21.86 0 0 1 3.016-2.644 22.706 22.706 0 0 1 2.228-1.431c.279-.157.502-.272.651-.347l.167-.082.038-.017.005-.003h.002a1.302 1.302 0 0 0-.145-2.423c-.068-.017-6.683-2.13-13.641-2.137-2.308.001-4.661.238-6.848.896l-.112-4.024a1.302 1.302 0 0 0-1.486-1.25c-.07.01-2.221.323-4.934 1.428-2.618 1.071-5.788 2.899-8.02 6.008-10.126.255-20.425 3.65-28.354 10.229-4.121 3.42-7.594 7.706-10.029 12.836-2.436 5.129-3.831 11.097-3.83 17.853 0 .49.015.987.03 1.485-2.234.164-4.32.53-6.044.927-1.165.27-2.163.553-2.935.803a18.58 18.58 0 0 0-.987.347c-.276.11-.475.192-.688.312a1.3 1.3 0 0 0-.205 2.111l8.892 7.699-3.224.733c-4.204-4.374-10.033-6.757-14.821-8.104-4.84-1.353-8.643-1.632-8.7-1.636a1.299 1.299 0 0 0-.625 2.483 7.139 7.139 0 0 1 2.602 1.962c1 1.19 1.61 2.68 1.959 4.142.349 1.458.433 2.872.433 3.852a15.774 15.774 0 0 1-.05 1.251l-.005.061-.001.012a1.294 1.294 0 0 0 1.143 1.436v.002c.042.002 1.258.176 2.5 1.007a6.465 6.465 0 0 1 1.8 1.794c.324.482.61 1.064.843 1.744-7.092-2.557-13.905-4.094-19.797-4.099-2.323 0-4.506.24-6.51.766a1.302 1.302 0 0 0-.522 2.238l2.647 2.304-3.387 3.021a1.299 1.299 0 0 0 .782 2.268l3.56.227-1.314 2.168c-.254.418-.252.939.005 1.355.257.417.72.652 1.208.615l7.19-.561c.933.87 3.327 3.08 6.176 5.514 1.834 1.566 3.853 3.222 5.797 4.675 1.949 1.453 3.804 2.699 5.401 3.468 3.541 1.696 9.452 4.357 13.58 6.199-.922 1.42-5.02 7.573-9.59 12.348-.044.045-.09.095-.133.141-.001-1.094-.057-2.392-.224-3.839a4.774 4.774 0 0 0-1.099-2.546c-.881-1.044-2.101-1.694-3.425-2.111-1.33-.413-2.79-.592-4.25-.593-1.769.001-3.533.264-5.058.77-1.145.385-2.335 1.064-3.537 1.921-1.798 1.289-3.597 2.982-4.995 4.755-.698.888-1.296 1.795-1.736 2.707-.437.912-.731 1.831-.736 2.788-.004.724.196 1.491.666 2.124 1.32 1.784 3.105 2.921 4.549 3.647a17.2 17.2 0 0 0 1.53.672l-.06.154c-2.102 5.599-4.234 12.664-4.243 18.807.002 2.634.395 5.121 1.444 7.256a9.617 9.617 0 0 0 5.28 4.834 18.493 18.493 0 0 0 6.753 1.252c3.302 0 6.475-.821 9.37-2.024 4.345-1.808 8.084-4.479 10.759-6.698a49.062 49.062 0 0 0 3.834-3.527c6.329 2.628 14.23 4.613 22.072 4.62 3.126 0 6.24-.327 9.238-1.06.626.839 2.262 2.899 4.706 4.987 1.57 1.34 3.475 2.69 5.672 3.716 2.195 1.025 4.693 1.725 7.409 1.725 1.064 0 2.16-.108 3.277-.342 2.536-.533 4.592-1.516 6.212-2.779 2.436-1.895 3.861-4.383 4.664-6.782.804-2.405 1.01-4.741 1.011-6.483a17.722 17.722 0 0 0-.146-2.366 13.89 13.89 0 0 0-.331-1.494c-.544-2.042-1.61-5.26-2.549-8.001a410.47 410.47 0 0 0-1.62-4.633c.063-.142.134-.277.197-.421 2.211-5.104 3.614-11.022 4.607-17.951.093.003.286.012.523.025.998.051 2.989.156 5.387.156 3.522-.004 7.911-.214 11.513-1.199 3.358-.926 7.939-2.756 11.727-4.363a245.766 245.766 0 0 0 6.367-2.812l6.217 1.213a1.3 1.3 0 0 0 1.501-1.627l-.607-2.167 3.403.413a1.298 1.298 0 0 0 1.271-.621 1.298 1.298 0 0 0-.048-1.414l-1.942-2.78 3.401-.7c.483-.1.872-.469.996-.946a1.306 1.306 0 0 0-.408-1.312Zm-18.644-16.68c.625.729 1.112 1.4 1.474 1.944l-2.948 1.076a1.297 1.297 0 0 0-.741 1.753l1.832 4.087h-3.606a13.26 13.26 0 0 0 .261-2.624c-.006-2.97-.824-6.062-1.802-9.913a22.255 22.255 0 0 1-.194-.848c2.489 1.22 4.4 2.977 5.724 4.525Zm-45.693-69.86a22.392 22.392 0 0 1 2.882-.95l.119 4.258c.012.434.237.83.604 1.062.368.232.821.266 1.219.091 2.155-.952 4.853-1.321 7.574-1.319 3.217 0 6.453.503 8.869 1.01.361.076.696.151 1.017.225-.844.57-1.804 1.29-2.784 2.175a22.375 22.375 0 0 0-2.463 2.623c-.01.01-.016.023-.026.034a18.965 18.965 0 0 0-1.559 2.24c-.511.87-.961 1.819-1.329 2.833a17.147 17.147 0 0 0-3.828-4.623c-3.691-3.146-8.282-4.691-11.945-5.492a39.358 39.358 0 0 0-3.895-.642c1.673-1.651 3.725-2.785 5.545-3.524ZM37.964 96.17c-.301-1.811-.93-3.27-1.717-4.407a9.152 9.152 0 0 0-3.896-3.19 9.363 9.363 0 0 0-.984-.363c.003-.145.007-.286.007-.453-.003-1.5-.16-3.847-1.037-6.217a11.973 11.973 0 0 0-1.59-2.954c1.22.243 2.61.565 4.09.995 3.996 1.154 8.588 3.097 12.057 6.165l-1.912.435a1.302 1.302 0 0 0-.579 2.237c.022.02 1.585 1.418 3.764 2.995a39.078 39.078 0 0 0 3.628 2.353c1.098.619 2.228 1.155 3.356 1.531.484 1.043 1.698 3.397 3.894 6.143-1.6-.541-3.19-.941-4.803-1.293-4.058-.89-8.294-1.567-13.742-3.757-.18-.072-.357-.135-.536-.206v-.014Zm76.945 62.095a109.59 109.59 0 0 1 1.033 3.318c.279.952.473 1.742.518 2.079.055.386.12 1.102.12 2 .004 2.048-.344 5.055-1.734 7.671-.694 1.311-1.638 2.53-2.937 3.542-1.301 1.011-2.963 1.824-5.151 2.286-.94.198-1.853.287-2.742.287-2.265 0-4.383-.582-6.31-1.481-2.887-1.345-5.32-3.41-7.01-5.141a29.504 29.504 0 0 1-1.778-1.991c.329-.112.66-.22.985-.344 5.176-1.973 9.484-4.222 13.078-6.87a35.538 35.538 0 0 0 6.351-5.992 72.11 72.11 0 0 1 1.589 3.584c.832 2.009 1.618 4.211 1.862 5.517a1.3 1.3 0 1 0 2.555-.488c-.328-1.686-1.152-3.92-2.013-6.019-.861-2.087-1.744-3.973-2.238-4.893a35.704 35.704 0 0 0 1.828-2.939c.577 1.651 1.327 3.83 1.994 5.874Zm46.478-42.775 1.407 2.013-2.448-.297a1.3 1.3 0 0 0-1.409 1.641l.564 2.013-4.561-.889a1.312 1.312 0 0 0-.798.097l-.513.237a245.393 245.393 0 0 1-7.592 3.32c-3.411 1.42-7.245 2.899-9.965 3.646-3.172.877-7.422 1.11-10.824 1.106a91.86 91.86 0 0 1-3.966-.09c-.52-.023-.955-.046-1.287-.063l-.313-.016c.051-.412.108-.812.157-1.231a1.3 1.3 0 0 0-2.582-.302h-.001c-1.322 11.322-3.487 19.788-7.713 26.309-2.115 3.265-4.747 6.067-8.105 8.544-3.358 2.476-7.45 4.624-12.46 6.533-3.71 1.414-7.809 2.019-11.987 2.019-9.295.008-18.968-3.02-25.388-6.44a1.3 1.3 0 0 0-1.22 2.296c.635.337 1.305.667 1.993.993a49.497 49.497 0 0 1-6.21 5.142c-2.082 1.449-4.498 2.868-7.087 3.915-2.59 1.049-5.347 1.724-8.123 1.724a15.907 15.907 0 0 1-5.811-1.076c-1.889-.745-3.075-1.932-3.89-3.561-.807-1.629-1.178-3.732-1.176-6.106-.01-5.545 2.018-12.447 4.077-17.891a108.342 108.342 0 0 1 2.826-6.78 91.063 91.063 0 0 1 1.187-2.494l.087-.174a1.3 1.3 0 1 0-2.314-1.185c-.012.023-1.49 2.914-3.21 7.142a14.259 14.259 0 0 1-1.433-.635 12.946 12.946 0 0 1-.973-.553 10.22 10.22 0 0 0 1.475-1.039c.512-.429.834-.769.859-.795a1.3 1.3 0 0 0-1.89-1.785c-.028.03-.513.527-1.144.981a5.708 5.708 0 0 1-.99.585 2.465 2.465 0 0 1-.518.17c-.106-.124-.226-.238-.321-.369-.097-.137-.155-.286-.16-.582-.011-.507.273-1.394.861-2.369.87-1.47 2.348-3.138 3.928-4.506 1.57-1.373 3.28-2.453 4.437-2.829 1.202-.403 2.733-.639 4.236-.637 1.655-.005 3.282.291 4.403.837.563.27.992.593 1.28.937.287.348.45.704.508 1.175.155 1.345.207 2.554.207 3.564 0 1.01-.052 1.821-.102 2.373-.026.276-.05.487-.069.626v.007a98.233 98.233 0 0 0-6.354 7.992c-3.16 4.455-6.092 9.477-7.852 14.624a1.3 1.3 0 1 0 2.46.84c1.637-4.798 4.446-9.641 7.512-13.959 3.065-4.32 6.383-8.119 9.016-10.871 5.457-5.711 10.078-13.022 10.104-13.058.004-.006.004-.013.008-.019l2.25.997a1.3 1.3 0 0 0 1.05-2.379c-.003-.001-.772-.34-2.022-.895-3.746-1.663-11.799-5.257-16.134-7.335-1.313-.627-3.097-1.806-4.969-3.206-2.816-2.103-5.867-4.708-8.204-6.781a194.461 194.461 0 0 1-3.672-3.34l-.287-.269a1.3 1.3 0 0 0-.996-.353l-5.236.408 1.112-1.834a1.298 1.298 0 0 0-1.028-1.972l-2.598-.166 2.168-1.933c.277-.248.437-.607.435-.978a1.306 1.306 0 0 0-.447-.973l-1.739-1.514a26.323 26.323 0 0 1 3.304-.202c1.19 0 2.45.09 3.74.224l-2.754 2.33a1.303 1.303 0 0 0-.437 1.238c.09.46.421.839.866.987.063.018 2.68.9 5.69 1.037a1.3 1.3 0 0 0 .114-2.598c-.92-.04-1.829-.17-2.615-.32l2.588-2.19c4.703.843 9.855 2.405 15.131 4.53 5.711 2.297 10.208 3.015 14.154 3.883 3.958.875 7.335 1.861 11.283 4.697.11.08.233.12.354.161 3.942 2.969 9.176 5.601 15.957 6.738a1.3 1.3 0 0 0 .432-2.564c-9.301-1.567-15.371-6.068-19.17-10.191a31.728 31.728 0 0 1-4.05-5.464 23.787 23.787 0 0 1-.91-1.709c-.096-.2-.165-.355-.209-.456l-.047-.11-.01-.024v-.001c-.15-.38-.47-.667-.863-.775-1.017-.28-2.203-.821-3.378-1.486-1.767-.997-3.517-2.26-4.812-3.27l-.127-.1 8.097-1.841a1.302 1.302 0 0 0 .563-2.25l-9.154-7.926c.81-.239 1.818-.5 2.96-.734 2.023-.415 4.455-.748 6.912-.747 2.495-.002 5.009.345 7.149 1.24a1.3 1.3 0 0 0 1-2.4c-2.52-1.048-5.28-1.417-7.946-1.436-.014-.469-.028-.938-.028-1.397 0-6.4 1.314-11.967 3.579-16.738 3.397-7.153 8.95-12.54 15.551-16.16 6.597-3.617 14.236-5.446 21.702-5.445.88 0 1.758.025 2.63.077.263.017.526.036.783.054 1.777.275 3.993.748 6.253 1.566 2.428.876 4.892 2.143 6.92 3.934 2.029 1.797 3.631 4.092 4.427 7.153a1.3 1.3 0 0 0 2.555-.22c.185-2.292.91-4.269 1.91-5.977.212-.363.44-.71.675-1.048 6.637 2.88 12.3 6.746 16.308 11.305 3.517 4.004 5.751 8.504 6.392 13.376-1.52-2.474-3.649-4.397-5.93-5.752-2.617-1.548-5.432-2.374-7.927-2.38-.424 0-.841.025-1.247.078a1.3 1.3 0 0 0 .333 2.578c.284-.037.591-.056.914-.056 1.27-.001 2.785.297 4.315.897 2.299.899 4.626 2.47 6.341 4.601 1.718 2.136 2.845 4.801 2.849 8.042l-.002.114c-.839 4.968-1.743 8.201-2.457 10.77-.359 1.293-.672 2.424-.901 3.532-.228 1.107-.369 2.194-.368 3.354-.001 1.4.204 2.888.654 4.652.989 3.856 1.728 6.806 1.721 9.27-.001 1.201-.164 2.29-.544 3.378-.381 1.087-.984 2.184-1.911 3.371-1.023 1.312-2.513 2.521-4.326 3.577-5.438 3.189-13.718 4.915-20.089 5.144a1.3 1.3 0 0 0 .099 2.599l-.001-.001c4.493-.171 9.772-1.005 14.586-2.569 2.407-.784 4.697-1.75 6.714-2.927 2.017-1.177 3.768-2.564 5.066-4.222.129-.166.239-.33.359-.495.021-.002.04.006.061.004a52.23 52.23 0 0 1 6.842-.441c1.763 0 3.42.089 4.9.233.454.192.822.466 1.133.827.356.413.625.933.819 1.433l-2.083-.338a1.3 1.3 0 1 0-.416 2.566h-.001l4.016.652a1.302 1.302 0 0 0 1.504-1.39c-.009-.078-.098-1.194-.633-2.535a9.162 9.162 0 0 0-.253-.566c.222.055.439.111.623.168 1.607.485 3.275 1.426 4.55 2.273l-2.491.514a1.297 1.297 0 0 0-.804 2.017Z"/><path fill="#BEBEC9" d="M84.864 51.994c2.502-1.163 5.324-1.754 8.158-1.753 2.56 0 5.127.482 7.473 1.44a1.3 1.3 0 1 0 .984-2.406c-2.678-1.094-5.572-1.634-8.457-1.634-3.194 0-6.38.662-9.253 1.995-2.871 1.331-5.432 3.344-7.321 6.033a1.3 1.3 0 1 0 2.127 1.496c1.604-2.283 3.785-4.008 6.29-5.171ZM124.904 87.56c.528.882 1.324 1.588 2.319 2.077.998.498 2.196.853 3.808 1.252.557.137 1.1.203 1.621.202a5.788 5.788 0 0 0 2.829-.723 6.14 6.14 0 0 0 1.955-1.731c.293-.402.581-.929.903-1.641.947-2.119 2.067-5.793 2.073-10.269 0-2.035-.623-3.989-1.735-5.606a9.26 9.26 0 0 0-4.683-3.559 8.051 8.051 0 0 0-2.567-.435 7.3 7.3 0 0 0-2.563.465h-.002c-1.299.487-2.192 1.587-2.526 2.843-.543 2.047-1.107 4.369-1.538 6.647-.431 2.28-.732 4.51-.734 6.426.001.777.05 1.505.174 2.18.125.674.32 1.303.666 1.873Zm2.448-9.995c.414-2.188.964-4.457 1.497-6.463.137-.516.495-.92.92-1.073l-.453-1.218.454 1.218a4.702 4.702 0 0 1 1.657-.302c.591 0 1.173.11 1.74.3 1.398.47 2.552 1.383 3.368 2.567a7.313 7.313 0 0 1 1.277 4.133 24.435 24.435 0 0 1-1.007 6.915 18.989 18.989 0 0 1-.838 2.29c-.264.591-.516 1.02-.624 1.162a3.547 3.547 0 0 1-1.122 1 3.182 3.182 0 0 1-1.569.398c-.305 0-.636-.038-1-.128-1.545-.377-2.594-.711-3.262-1.05-.671-.348-.961-.627-1.268-1.11-.114-.183-.244-.52-.327-.985a9.672 9.672 0 0 1-.131-1.711c-.001-1.642.273-3.757.688-5.943ZM95.522 61.443l-.577 1.165.577-1.165c-1.431-.71-2.914-.984-4.314-.983-.53 0-1.049.039-1.554.107-4.771.65-8.548 3.98-9.446 8.22a24.379 24.379 0 0 0-.515 4.987c0 1.898.221 3.564.516 4.893.147.665.313 1.246.484 1.736.172.493.34.887.534 1.222.249.43.524.85.89 1.242.548.594 1.292 1.059 2.208 1.37.922.316 2.038.525 3.553.708 1.376.164 2.49.264 3.459.265.915-.001 1.716-.09 2.456-.338a5 5 0 0 0 1.924-1.189c.6-.589 1.001-1.324 1.322-2.15.474-1.24.761-2.718.947-4.343.183-1.624.257-3.392.257-5.171 0-2.522-.148-5.065-.356-7.226-.132-1.408-1.016-2.685-2.365-3.35Zm-.32 16.875c-.155.894-.356 1.677-.59 2.282-.23.607-.5 1.024-.706 1.218-.316.302-.572.462-.941.59-.37.124-.881.202-1.628.202-.786 0-1.818-.087-3.15-.247-1.902-.223-2.973-.507-3.537-.803a2.189 2.189 0 0 1-.634-.469c-.17-.182-.34-.424-.54-.77a4.878 4.878 0 0 1-.328-.771c-.402-1.153-.857-3.236-.855-5.776 0-1.369.13-2.874.46-4.454.617-3.02 3.47-5.67 7.25-6.176a8.97 8.97 0 0 1 1.206-.084c1.068.001 2.126.203 3.16.713.582.293.88.777.93 1.268.2 2.085.344 4.558.344 6.978 0 2.274-.13 4.508-.441 6.299ZM118.453 100.208c.87-1.216 1.597-2.501 2.118-3.771.518-1.272.841-2.526.844-3.732 0-.181-.007-.363-.024-.547-.061-.65-.375-1.177-.739-1.58-.649-.706-1.505-1.188-2.525-1.637-1.529-.658-3.445-1.175-5.479-1.544-2.034-.366-4.176-.578-6.128-.578-1.614.002-3.089.138-4.327.5-.62.184-1.188.424-1.692.793-.497.361-.945.9-1.121 1.586a12.139 12.139 0 0 0-.382 3.093c0 .62.041 1.241.118 1.857l.002.01c.386 2.869 1.566 5.656 3.234 7.833.836 1.088 1.798 2.024 2.876 2.723 1.075.696 2.278 1.158 3.554 1.231h.008c.107.006.221.01.34.01.949-.001 1.875-.226 2.761-.596 2.532-1.053 4.815-3.225 6.562-5.651Zm-7.549 3.246-.009.004c-.644.269-1.231.397-1.765.397l-.2-.006c-.738-.042-1.511-.314-2.289-.818-1.165-.75-2.304-2.023-3.188-3.57-.886-1.546-1.52-3.356-1.757-5.141a12.414 12.414 0 0 1-.098-1.529c0-.85.095-1.672.296-2.433l.001-.005.015-.023c.027-.04.137-.15.37-.268.345-.18.934-.359 1.669-.47.736-.116 1.617-.174 2.571-.173 2.688-.003 5.955.46 8.478 1.18 1.26.356 2.338.784 3.025 1.192.343.201.583.398.697.527l.084.113c.007.085.011.175.011.274.004.718-.217 1.696-.65 2.746-.645 1.578-1.749 3.32-3.058 4.786-1.306 1.47-2.827 2.659-4.203 3.217Z"/><path fill="#BEBEC9" d="m111.889 105.86.008-.004-.007.003-.001.001ZM99.379 89.7l.001-.002v-.002l-.001.005Z"/></svg>