<svg width="200" height="200" viewBox="0 0 200 200" xmlns="http://www.w3.org/2000/svg"><g id="type=cashback, mode=dark"><g id="Group 432527121"><path id="Vector" d="M182.75 44.9063L184.133 39.7198C184.318 39.0262 183.906 38.3138 183.212 38.1287C182.519 37.9437 181.806 38.3558 181.621 39.0496L180.238 44.2362C180.053 44.9298 180.465 45.6422 181.159 45.8272C181.852 46.0123 182.565 45.6002 182.75 44.9063Z"/><path id="Vector_2" d="M192.102 46.936C191.929 46.5608 191.589 46.2895 191.185 46.2055L169.442 41.6802C168.896 41.5666 168.338 41.8137 168.056 42.2947C164.514 48.2993 164.256 53.2639 164.073 57.4016C163.98 59.4761 163.891 61.3454 163.462 63.1147C163.031 64.886 162.286 66.5759 160.791 68.4035C159.09 70.4734 158.016 72.3847 157.355 74.1784C156.359 76.8713 156.315 79.2539 156.292 81.3672C156.272 83.4956 156.26 85.3408 155.543 87.2959C155.317 87.9109 155.585 88.5976 156.167 88.8982L177.855 100.091C178.385 100.364 179.035 100.241 179.429 99.792C179.948 99.2009 180.302 98.5202 180.508 97.8222C180.717 97.1228 180.789 96.4087 180.789 95.6943C180.786 94.3125 180.527 92.907 180.291 91.4568C180.051 90.0083 179.826 88.5212 179.827 87.0332C179.827 85.6887 180.006 84.3501 180.51 83.0034C181.015 81.657 181.846 80.2898 183.222 78.8906C185.375 76.7107 186.59 74.3703 187.251 71.9797C188.242 68.3857 188.09 64.7412 188.41 60.8584C188.726 56.969 189.452 52.834 192.058 48.1069C192.258 47.7456 192.274 47.311 192.102 46.936ZM185.591 64.5381C185.468 67.0134 185.316 69.2449 184.746 71.2817C184.173 73.3208 183.216 75.1836 181.369 77.0664C179.761 78.6975 178.707 80.3982 178.075 82.0918C177.44 83.7851 177.226 85.4585 177.227 87.0332C177.228 88.779 177.484 90.4116 177.725 91.8799C177.97 93.3462 178.192 94.6543 178.189 95.6943C178.189 96.2326 178.132 96.6933 178.017 97.0781C178.002 97.1294 177.977 97.1704 177.96 97.2192L158.328 87.0879C158.66 85.853 158.793 84.668 158.845 83.5386C158.943 81.3379 158.801 79.3445 159.198 77.2466C159.595 75.1492 160.485 72.8838 162.8 70.0532C164.54 67.9394 165.489 65.8164 165.99 63.7246C166.739 60.5783 166.564 57.5705 166.865 54.3767C167.143 51.3894 167.795 48.2075 169.855 44.4219L188.982 48.4028C185.984 54.5774 185.818 59.978 185.591 64.5381Z"/><path id="Vector_3" d="M185.054 35.8894C186.396 30.4597 188.714 20.0928 188.756 10.3049C188.759 9.58692 188.18 9.00269 187.462 9.00001C186.744 8.99708 186.16 9.57667 186.157 10.2947C186.123 19.6902 183.855 29.9248 182.531 35.2647C182.358 35.9614 182.783 36.6665 183.48 36.8391C184.177 37.0115 184.882 36.5864 185.055 35.8897L185.054 35.8894Z"/><path id="Vector_4" d="M181.711 49.2705L173.54 47.5703C173.54 47.5703 173.286 51.1699 170.086 51.1455C170.086 51.1455 169.086 53.1455 169.086 60.0205C169.086 66.8955 165.262 71.6455 163.137 74.1455C161.012 76.6455 161.336 81.7451 161.336 81.7451C161.336 81.7451 163.961 82.7451 163.711 86.8701L171.961 91.2705C171.961 91.2705 171.732 86.3828 174.961 87.6455C174.709 85.0957 174.752 81.3955 177.286 78.2705C181.397 73.2021 182.986 71.6455 183.236 65.3955C183.486 59.1455 184.436 53.8955 184.436 53.8955C181.061 52.1455 181.711 49.2705 181.711 49.2705ZM174.961 56.5205C175.586 54.2705 178.711 55.6455 178.336 57.5205C177.961 59.3955 174.305 58.8857 174.961 56.5205ZM171.336 79.6201C170.961 81.4951 167.305 80.9863 167.961 78.6201C168.586 76.3701 171.711 77.7451 171.336 79.6201ZM179.361 71.6191C176.306 75.2295 166.787 74.0322 169.779 68.1475C173.945 59.9541 182.416 68.0088 179.361 71.6191Z"/><path id="Vector_5" d="M175.67 40.675L174.535 45.8215C174.474 46.0974 174.443 46.3769 174.443 46.6545C174.444 47.6313 174.815 48.5435 175.438 49.2324C176.058 49.9224 176.946 50.3982 177.953 50.488C178.668 50.5525 179.3 50.0251 179.365 49.3103C179.429 48.5952 178.902 47.9631 178.187 47.8987C177.85 47.8669 177.575 47.7178 177.368 47.4907C177.163 47.2627 177.043 46.9661 177.043 46.6545C177.043 46.5676 177.053 46.477 177.074 46.3816L178.208 41.2349C178.363 40.5337 177.92 39.8401 177.219 39.6858C176.518 39.5312 175.824 39.9741 175.67 40.6753L175.67 40.675Z"/><path id="Vector_6" d="M100.566 94.5967L100.536 94.3975L100.406 94.4873C101.106 99.7373 104.826 104.917 108.856 105.147C109.687 105.197 110.536 105.018 111.396 104.657L111.456 104.518L111.196 104.617C112.286 100.497 110.326 93.3574 100.566 94.5967Z"/><path id="Vector_7" d="M130.788 79.7584C130.613 79.0621 129.907 78.6393 129.21 78.8141C128.514 78.9889 128.091 79.6952 128.266 80.3915L128.327 80.6327C128.501 81.329 129.208 81.7518 129.904 81.577C130.6 81.4022 131.023 80.6959 130.848 79.9996L130.788 79.7584Z"/><path id="Vector_8" d="M135.964 73.2923C135.722 72.8236 135.382 72.3704 134.897 72.0247C134.416 71.6771 133.789 71.4713 133.148 71.4759C132.861 71.4759 132.57 71.5133 132.279 71.5843C131.454 71.7713 130.759 72.3248 130.387 72.9798C130.005 73.6356 129.879 74.3472 129.877 75.0406C129.885 76.2545 130.262 77.4698 130.915 78.5003C131.246 79.013 131.653 79.4813 132.17 79.8487C132.682 80.2135 133.332 80.4757 134.05 80.4744C134.161 80.4744 134.275 80.4688 134.39 80.4561L134.402 80.4549C134.708 80.4195 134.983 80.3011 135.194 80.1593C135.565 79.9058 135.776 79.6073 135.944 79.314C136.189 78.8704 136.335 78.399 136.441 77.8875C136.544 77.3775 136.597 76.8309 136.597 76.2699C136.592 75.2742 136.443 74.2359 135.964 73.2923Z"/><path id="Vector_9" d="M132.277 71.5845L132.28 71.5842L132.283 71.583L132.277 71.5845Z"/><path id="Vector_10" d="M88.3307 73.0895C88.1559 72.3932 87.4498 71.9703 86.7533 72.1451C86.057 72.3199 85.6342 73.026 85.809 73.7225L85.8724 73.9755C86.0472 74.6717 86.7533 75.0946 87.4498 74.9198C88.1461 74.745 88.569 74.0389 88.3942 73.3424L88.3307 73.0895Z"/><path id="Vector_11" d="M89.9512 64.6121L89.9558 64.6113L89.9568 64.6108L89.9512 64.6121Z"/><path id="Vector_12" d="M92.6372 65.0618C92.1453 64.7061 91.5039 64.4954 90.8467 64.5001C90.553 64.5001 90.2546 64.5384 89.9556 64.6112C89.1084 64.8028 88.3975 65.3687 88.0164 66.0408C87.625 66.713 87.4941 67.4454 87.4922 68.1607C87.5 69.4132 87.8901 70.6719 88.5657 71.7362C88.9075 72.2659 89.3274 72.7486 89.8589 73.1261C90.3857 73.5013 91.0518 73.7694 91.7861 73.7681C91.9041 73.7681 92.0203 73.7616 92.1331 73.7493L92.147 73.7479C92.4568 73.7122 92.7344 73.5924 92.948 73.4486C93.3242 73.1915 93.5398 72.8873 93.7119 72.5865C93.9639 72.1314 94.1147 71.6446 94.2241 71.1158C94.3306 70.5882 94.3857 70.022 94.386 69.4407C94.3804 68.4097 94.2253 67.3345 93.7324 66.3634C93.4829 65.8807 93.1335 65.4158 92.6372 65.0618Z"/><path id="Vector_13" d="M168.639 112.662C168.611 112.639 167.686 111.841 166.27 110.89C164.851 109.939 162.95 108.829 160.89 108.198C159.744 107.85 158.249 107.568 156.482 107.362C155.274 107.223 153.934 107.125 152.519 107.075C152.59 107.007 152.656 106.933 152.71 106.849C152.949 106.481 152.985 106.011 152.805 105.611L150.724 100.966L153.842 99.8285C154.191 99.7011 154.467 99.4328 154.604 99.0875C154.742 98.7423 154.725 98.3576 154.559 98.0255C154.525 97.9589 153.691 96.3009 151.97 94.2899C150.249 92.2829 147.629 89.9081 144.003 88.5006C143.968 88.4872 143.933 88.4928 143.898 88.4826C143.897 88.4215 143.891 88.3566 143.891 88.296C143.892 87.3449 144.004 86.4552 144.207 85.4669C144.802 82.5434 146.264 78.7794 147.545 71.2899C147.572 71.1908 147.611 71.0966 147.614 70.9894L147.614 70.9892C147.615 70.9523 147.614 70.9166 147.615 70.88C147.709 70.3495 147.805 69.7982 147.892 69.2099C148.087 67.9179 148.183 66.641 148.183 65.3837C148.186 58.682 145.458 52.5629 140.932 47.4247C136.745 42.6684 131.014 38.7238 124.379 35.7494C125.387 34.683 126.444 33.7953 127.395 33.1049C128.277 32.464 129.064 31.987 129.623 31.674C129.902 31.5175 130.125 31.402 130.274 31.327L130.441 31.2455L130.479 31.2277L130.484 31.225L130.486 31.2243C130.975 31.0019 131.277 30.5001 131.246 29.964C131.214 29.4271 130.853 28.964 130.341 28.8017C130.273 28.7855 123.658 26.6715 116.7 26.6645C114.392 26.6664 112.039 26.9027 109.852 27.5614L109.74 23.5368C109.729 23.1654 109.561 22.8175 109.277 22.5783C108.993 22.339 108.621 22.2331 108.254 22.2865C108.184 22.2975 106.033 22.6105 103.32 23.715C100.702 24.786 97.5321 26.6137 95.3009 29.723C85.1742 29.9784 74.8751 33.3732 66.9459 39.9518C62.8248 43.3729 59.3524 47.6583 56.9171 52.788C54.4806 57.9169 53.086 63.8847 53.087 70.6413C53.087 71.1308 53.1019 71.6281 53.1168 72.1256C50.8834 72.2897 48.7967 72.6557 47.0726 73.0531C45.9081 73.3222 44.9098 73.6056 44.138 73.8559C43.7518 73.9811 43.4227 74.0978 43.1512 74.2033C42.8751 74.3126 42.6764 74.3954 42.4632 74.515C42.0973 74.7245 41.8561 75.098 41.8153 75.5177C41.7745 75.9372 41.9393 76.35 42.2582 76.6261L51.1502 84.3249L47.9261 85.0575C43.7218 80.6845 37.8929 78.3007 33.1048 76.954C28.2643 75.601 24.462 75.3224 24.4051 75.3175C23.7748 75.2714 23.2037 75.6842 23.0497 76.297C22.8954 76.9096 23.2035 77.5434 23.7804 77.8012C24.8785 78.2929 25.7132 78.9667 26.3817 79.7626C27.3814 80.9535 27.9928 82.4437 28.3407 83.9047C28.6898 85.3627 28.7745 86.7768 28.774 87.7565C28.774 88.1769 28.7589 88.5177 28.7442 88.7484C28.7369 88.8639 28.7298 88.9518 28.7247 89.0082L28.7188 89.0692L28.7179 89.0807C28.6786 89.4257 28.7774 89.768 28.9942 90.0392C29.2096 90.3085 29.5189 90.4779 29.8614 90.5175L29.8612 90.5189C29.9029 90.5211 31.1185 90.6954 32.3602 91.5258C32.9837 91.9408 33.6187 92.5121 34.1617 93.32C34.4847 93.8019 34.7701 94.3837 35.0045 95.0636C27.9115 92.507 21.0989 90.9696 15.2068 90.9652C12.8841 90.9655 10.7007 91.2047 8.69755 91.7309C8.23222 91.8532 7.87162 92.2238 7.762 92.6923C7.65262 93.1608 7.81156 93.6527 8.1746 93.9687L10.8224 96.2733L7.4351 99.2943C7.04252 99.6442 6.90019 100.192 7.07157 100.689C7.2432 101.185 7.69291 101.528 8.21757 101.562L11.777 101.789L10.4632 103.957C10.2093 104.375 10.2113 104.896 10.4679 105.312C10.7245 105.729 11.1883 105.965 11.6761 105.927L18.8666 105.366C19.7994 106.236 22.1927 108.446 25.0423 110.88C26.8763 112.446 28.8954 114.102 30.8395 115.555C32.7877 117.008 34.6431 118.254 36.2405 119.023C39.7815 120.719 45.6917 123.38 49.8201 125.222C48.8982 126.642 44.8001 132.795 40.2291 137.57C40.1861 137.615 40.1397 137.665 40.0965 137.711C40.0956 136.617 40.0396 135.319 39.8731 133.872C39.7637 132.897 39.3589 132.018 38.7742 131.326C37.8929 130.282 36.6729 129.632 35.3487 129.215C34.0193 128.802 32.5589 128.623 31.0989 128.622C29.3304 128.623 27.566 128.886 26.0406 129.392C24.8963 129.777 23.7058 130.456 22.5037 131.313C20.7063 132.602 18.9073 134.295 17.5091 136.068C16.8108 136.956 16.2127 137.863 15.7725 138.775C15.336 139.687 15.0418 140.606 15.0374 141.563C15.0332 142.287 15.2327 143.054 15.7032 143.687C17.0235 145.471 18.8081 146.608 20.2515 147.334C20.8306 147.623 21.3533 147.842 21.7815 148.006C21.7618 148.058 21.742 148.107 21.7224 148.16C19.6202 153.759 17.4881 160.824 17.4788 166.967C17.4807 169.601 17.8736 172.088 18.9229 174.223C19.9634 176.356 21.7246 178.104 24.2024 179.057C26.4563 179.934 28.7342 180.31 30.9558 180.309C34.2578 180.309 37.4307 179.488 40.3265 178.285C44.6707 176.477 48.41 173.806 51.0848 171.587C52.9378 170.048 54.261 168.739 54.9187 168.06C61.2476 170.688 69.1482 172.673 76.991 172.68C80.1167 172.68 83.2317 172.353 86.2293 171.62C86.8553 172.459 88.491 174.519 90.9353 176.607C92.5057 177.947 94.4099 179.297 96.6072 180.323C98.8025 181.348 101.3 182.048 104.016 182.048C105.08 182.048 106.176 181.94 107.293 181.706C109.829 181.173 111.885 180.19 113.505 178.927C115.941 177.032 117.366 174.544 118.169 172.145C118.973 169.74 119.179 167.404 119.18 165.662C119.179 164.639 119.108 163.825 119.034 163.296C118.973 162.877 118.859 162.392 118.703 161.802C118.159 159.76 117.093 156.542 116.154 153.801C115.431 151.691 114.791 149.889 114.534 149.168C114.597 149.026 114.668 148.891 114.731 148.747C116.942 143.643 118.345 137.725 119.338 130.796C119.431 130.799 119.624 130.808 119.861 130.821C120.859 130.872 122.85 130.977 125.248 130.977C128.77 130.973 133.159 130.763 136.761 129.778C140.119 128.852 144.7 127.022 148.488 125.415C151.473 124.147 153.941 123.024 154.855 122.603L161.072 123.816C161.515 123.902 161.97 123.753 162.276 123.421C162.583 123.089 162.695 122.624 162.573 122.189L161.966 120.022L165.369 120.435C165.879 120.497 166.376 120.254 166.64 119.814C166.905 119.373 166.886 118.821 166.592 118.4L164.65 115.62L168.051 114.92C168.534 114.82 168.923 114.451 169.047 113.974C169.171 113.496 169.012 112.985 168.639 112.662ZM149.995 95.9818C150.62 96.7108 151.107 97.3822 151.469 97.9262L148.521 99.0021C148.181 99.1261 147.91 99.3839 147.769 99.7174C147.628 100.051 147.632 100.424 147.78 100.755L149.612 104.842L146.006 104.842C146.179 103.977 146.268 103.104 146.267 102.218C146.261 99.2479 145.443 96.1562 144.465 92.3053C144.389 92.0067 144.33 91.7323 144.271 91.4572C146.76 92.6774 148.671 94.4342 149.995 95.9818ZM104.302 26.1225C105.412 25.6696 106.416 25.3688 107.184 25.1718L107.303 29.4296C107.315 29.8639 107.54 30.2594 107.907 30.4918C108.275 30.7243 108.728 30.758 109.126 30.5832C111.281 29.6305 113.979 29.2616 116.7 29.2643C119.917 29.2633 123.153 29.7672 125.569 30.2748C125.93 30.3505 126.265 30.4252 126.586 30.4992C125.742 31.0697 124.782 31.7899 123.802 32.6737C122.97 33.4245 122.131 34.3068 121.339 35.297C121.329 35.307 121.323 35.3202 121.313 35.3305C120.762 36.0219 120.23 36.7572 119.754 37.5702C119.243 38.4416 118.793 39.3898 118.425 40.404C117.394 38.5766 116.074 37.0409 114.597 35.7811C110.906 32.6347 106.315 31.09 102.652 30.289C101.162 29.9652 99.8265 29.7682 98.7567 29.6466C100.43 27.996 102.482 26.8622 104.302 26.1225ZM37.9637 96.1696C37.6627 94.3588 37.0348 92.8993 36.2469 91.7628C35.0641 90.0531 33.5509 89.0939 32.3514 88.5729C31.9898 88.4159 31.6603 88.3002 31.3666 88.2099C31.37 88.0648 31.3739 87.9237 31.3739 87.7565C31.3714 86.2565 31.2149 83.9103 30.3373 81.5399C29.963 80.5331 29.4427 79.5248 28.7477 78.5861C29.9662 78.8288 31.3568 79.1513 32.8373 79.5812C36.8331 80.735 41.4251 82.6784 44.8944 85.7465L42.982 86.1813C42.5086 86.2887 42.1332 86.6537 42.0116 87.1234C41.8902 87.5932 42.0418 88.0941 42.4034 88.4179C42.4254 88.4372 43.9884 89.8356 46.1668 91.413C47.2569 92.2016 48.5008 93.0353 49.7948 93.766C50.8932 94.3847 52.0235 94.9208 53.1512 95.2973C53.6351 96.3402 54.8495 98.6942 57.045 101.44C55.4447 100.899 53.8548 100.499 52.242 100.147C48.1835 99.2567 43.9479 98.5802 38.5003 96.3903C38.3207 96.318 38.1429 96.2553 37.9635 96.1845C37.9627 96.1793 37.9647 96.1747 37.964 96.1698L37.9637 96.1696ZM114.909 158.265C115.301 159.468 115.664 160.623 115.942 161.583C116.221 162.535 116.415 163.325 116.46 163.662C116.515 164.048 116.58 164.764 116.58 165.662C116.584 167.71 116.236 170.717 114.846 173.333C114.152 174.644 113.208 175.863 111.909 176.875C110.608 177.886 108.946 178.699 106.758 179.161C105.818 179.359 104.905 179.448 104.016 179.448C101.751 179.448 99.6332 178.866 97.7069 177.967C94.8194 176.622 92.3863 174.557 90.6964 172.826C89.9486 172.061 89.3551 171.372 88.9178 170.835C89.2469 170.723 89.5777 170.615 89.9029 170.491C95.0794 168.518 99.3876 166.269 102.981 163.621C105.424 161.822 107.515 159.824 109.332 157.629C109.781 158.566 110.363 159.856 110.921 161.213C111.753 163.222 112.539 165.424 112.783 166.73C112.918 167.436 113.599 167.898 114.305 167.763C115.01 167.628 115.472 166.947 115.338 166.242C115.01 164.556 114.186 162.322 113.325 160.223C112.464 158.136 111.581 156.25 111.087 155.33C111.742 154.388 112.347 153.405 112.915 152.391C113.492 154.042 114.242 156.221 114.909 158.265ZM161.387 115.49L162.794 117.503L160.346 117.206C159.914 117.154 159.486 117.32 159.203 117.65C158.92 117.98 158.82 118.429 158.937 118.847L159.501 120.86L154.94 119.971C154.673 119.919 154.389 119.953 154.142 120.068C154.142 120.068 153.962 120.152 153.629 120.305C152.464 120.839 149.452 122.204 146.037 123.625C142.626 125.045 138.792 126.524 136.072 127.271C132.9 128.148 128.65 128.381 125.248 128.377C123.699 128.377 122.32 128.332 121.282 128.287C120.762 128.264 120.327 128.241 119.995 128.224C119.869 128.218 119.776 128.213 119.682 128.208C119.733 127.796 119.79 127.396 119.839 126.977C119.922 126.264 119.411 125.618 118.699 125.535C117.985 125.452 117.34 125.962 117.257 126.675L117.256 126.675C115.934 137.997 113.769 146.463 109.543 152.984C107.428 156.249 104.796 159.051 101.438 161.528C98.0797 164.004 93.9889 166.152 88.9774 168.061C85.2672 169.475 81.169 170.08 76.9911 170.08C67.6964 170.088 58.023 167.06 51.6031 163.64C50.9691 163.303 50.182 163.544 49.8451 164.178C49.5079 164.812 49.7489 165.599 50.3829 165.936C51.0177 166.273 51.6883 166.603 52.3756 166.929C51.1515 168.128 48.9647 170.123 46.1654 172.071C44.0841 173.52 41.6676 174.939 39.0787 175.986C36.4886 177.035 33.7323 177.71 30.9559 177.71C29.025 177.709 27.0826 177.387 25.1446 176.634C23.2562 175.889 22.0699 174.702 21.2547 173.073C20.4483 171.444 20.0768 169.341 20.0787 166.967C20.0694 161.422 22.0975 154.52 24.1556 149.076C25.1822 146.35 26.211 143.981 26.9815 142.296C27.3666 141.454 27.6871 140.784 27.9105 140.325C28.0221 140.096 28.1095 139.92 28.1686 139.802C28.2276 139.684 28.2562 139.628 28.2564 139.628C28.5836 138.988 28.3309 138.205 27.692 137.878C27.0528 137.551 26.2696 137.803 25.9425 138.443C25.9303 138.466 24.4515 141.357 22.7323 145.585C22.3404 145.436 21.8438 145.229 21.2992 144.95C20.9837 144.789 20.6554 144.603 20.326 144.397C20.911 144.064 21.4093 143.684 21.8006 143.358C22.3133 142.929 22.6346 142.59 22.6598 142.563C23.1527 142.041 23.129 141.219 22.6073 140.726C22.0853 140.233 21.263 140.256 20.7701 140.778L20.7699 140.778L20.7694 140.778V140.778C20.7423 140.808 20.2572 141.305 19.6258 141.759C19.3114 141.986 18.9608 142.201 18.6366 142.344C18.4437 142.431 18.2718 142.482 18.1175 142.514C18.0118 142.39 17.8924 142.276 17.7965 142.145C17.6998 142.008 17.6415 141.859 17.6373 141.563C17.6258 141.056 17.9098 140.169 18.4981 139.194C19.3683 137.724 20.846 136.056 22.4256 134.688C23.9955 133.315 25.7066 132.235 26.8629 131.859C28.0648 131.456 29.5958 131.22 31.099 131.222C32.7545 131.217 34.381 131.513 35.5021 132.059C36.0646 132.329 36.4945 132.652 36.7818 132.996C37.0687 133.344 37.2325 133.7 37.2904 134.171C37.4454 135.516 37.4969 136.725 37.4969 137.735C37.4969 138.745 37.4452 139.556 37.3946 140.108C37.3695 140.384 37.3443 140.595 37.3263 140.734L37.3253 140.741C35.285 143.058 33.079 145.764 30.9718 148.733C27.8119 153.188 24.8797 158.21 23.12 163.357C22.8878 164.037 23.2506 164.776 23.9303 165.008C24.6097 165.24 25.3487 164.877 25.5809 164.197C27.2174 159.399 30.026 154.556 33.0919 150.238C36.1568 145.918 39.475 142.119 42.108 139.367C47.565 133.656 52.1861 126.345 52.2123 126.309C52.2162 126.303 52.2159 126.296 52.2196 126.29C53.5985 126.902 54.4681 127.286 54.4701 127.287C55.1268 127.577 55.8941 127.279 56.1842 126.622C56.474 125.965 56.1766 125.198 55.5199 124.908C55.5174 124.907 54.7481 124.568 53.4984 124.013C49.7523 122.35 41.6991 118.756 37.3644 116.678C36.0506 116.051 34.2674 114.872 32.3954 113.472C29.5794 111.369 26.5282 108.764 24.191 106.691C23.0218 105.655 22.0301 104.75 21.3319 104.106C20.9825 103.784 20.7066 103.527 20.5187 103.351C20.3304 103.175 20.2323 103.082 20.232 103.082C19.9657 102.829 19.6019 102.7 19.2364 102.729L14.0001 103.137L15.1124 101.303C15.3487 100.912 15.3641 100.432 15.1532 100.027C14.9422 99.6229 14.5387 99.3603 14.0836 99.3314L11.4859 99.1654L13.6542 97.2316C13.9313 96.9843 14.0912 96.6251 14.0887 96.2536C14.0865 95.882 13.9222 95.5246 13.6422 95.2809L11.9034 93.7675C12.9493 93.6356 14.0494 93.5648 15.2069 93.5651C16.3973 93.5641 17.6571 93.6547 18.9471 93.7887L16.1932 96.1186C15.8353 96.4213 15.6678 96.8969 15.7564 97.3571C15.8451 97.817 16.1773 98.196 16.6219 98.3444C16.6854 98.3617 19.3016 99.244 22.3121 99.3805C23.0291 99.4118 23.6361 98.8559 23.6676 98.1388C23.6988 97.4215 23.1429 96.8146 22.4259 96.7833C21.5052 96.7433 20.5973 96.6134 19.8109 96.4638L22.3995 94.2738C27.1019 95.1164 32.2538 96.6776 37.5304 98.8026C43.2411 101.1 47.7379 101.818 51.6839 102.686C55.6415 103.561 59.0189 104.547 62.9671 107.383C63.0768 107.463 63.1996 107.503 63.3214 107.544C67.2625 110.513 72.4974 113.145 79.2784 114.282C79.9864 114.401 80.6568 113.923 80.776 113.215C80.8949 112.507 80.4176 111.837 79.7096 111.718C70.4088 110.151 64.339 105.65 60.5401 101.527C58.6446 99.4669 57.3273 97.5021 56.4896 96.0631C56.0707 95.3437 55.7718 94.756 55.5802 94.3544C55.4842 94.1537 55.4151 93.9994 55.3714 93.8983L55.3243 93.788L55.3146 93.7643L55.3138 93.7626C55.1634 93.383 54.8446 93.0963 54.451 92.9879C53.4342 92.7089 52.2484 92.1666 51.0729 91.5019C49.306 90.5053 47.5558 89.2411 46.2611 88.2316C46.2167 88.1969 46.1771 88.1654 46.1339 88.1312L54.2313 86.2909C54.7084 86.1823 55.0856 85.8134 55.2042 85.3385C55.3228 84.8639 55.1639 84.3605 54.794 84.0404L45.6397 76.1146C46.45 75.8761 47.4584 75.6147 48.6009 75.3808C50.6227 74.9655 53.055 74.6335 55.5121 74.6339C58.0072 74.6325 60.5209 74.9791 62.6607 75.8737C63.3233 76.1498 64.0846 75.8366 64.3609 75.174C64.6371 74.5111 64.3238 73.7499 63.6612 73.4738L63.661 73.4735C61.1419 72.4262 58.3812 72.0568 55.7149 72.0377C55.701 71.5692 55.6869 71.1005 55.6869 70.6413C55.6878 64.2406 57.0008 58.6745 59.2657 53.9035C62.6634 46.7504 68.2169 41.3627 74.817 37.7431C81.4137 34.1256 89.0531 32.2968 96.5191 32.298C97.3998 32.298 98.2767 32.3231 99.1495 32.3747C99.412 32.3922 99.6749 32.411 99.932 32.4289C101.709 32.704 103.925 33.1767 106.185 33.9948C108.613 34.8708 111.077 36.1376 113.105 37.9293C115.134 39.7257 116.736 42.0211 117.532 45.0824C117.692 45.6977 118.27 46.1066 118.903 46.0517C119.536 45.997 120.035 45.4945 120.087 44.8612C120.272 42.5697 120.997 40.5932 121.997 38.8847C122.209 38.5216 122.437 38.1747 122.672 37.8368C129.309 40.7169 134.972 44.5827 138.98 49.142C142.497 53.1457 144.731 57.6464 145.372 62.5177C143.852 60.0443 141.723 58.1212 139.442 56.7663C136.825 55.2182 134.01 54.3917 131.515 54.3864C131.091 54.3864 130.674 54.4108 130.268 54.4635C129.556 54.5556 129.053 55.2074 129.145 55.9196C129.237 56.6315 129.889 57.1342 130.601 57.0421C130.885 57.0053 131.192 56.9862 131.515 56.9862C132.785 56.9848 134.3 57.2829 135.83 57.8834C138.129 58.7816 140.456 60.3532 142.171 62.484C143.889 64.6203 145.016 67.2853 145.02 70.5263C145.02 70.5644 145.019 70.6022 145.018 70.6403C144.179 75.6083 143.275 78.8412 142.561 81.4098C142.202 82.703 141.889 83.8339 141.66 84.9423C141.432 86.049 141.291 87.1361 141.292 88.296C141.291 89.6954 141.496 91.184 141.946 92.9481C142.935 96.8039 143.674 99.7536 143.667 102.218C143.666 103.419 143.503 104.508 143.123 105.596C142.742 106.683 142.139 107.78 141.212 108.967C140.189 110.279 138.699 111.488 136.886 112.544C131.448 115.733 123.168 117.459 116.797 117.688C116.08 117.715 115.52 118.319 115.547 119.036C115.574 119.754 116.178 120.314 116.896 120.287L116.895 120.286C121.388 120.115 126.667 119.281 131.481 117.717C133.888 116.933 136.178 115.967 138.195 114.79C140.212 113.613 141.963 112.226 143.261 110.568C143.39 110.402 143.5 110.238 143.62 110.073C143.641 110.071 143.66 110.079 143.681 110.077L143.681 110.077C145.996 109.768 148.334 109.636 150.523 109.636C152.286 109.636 153.943 109.725 155.423 109.869C155.877 110.061 156.245 110.335 156.556 110.696C156.912 111.109 157.181 111.629 157.375 112.129L155.292 111.791C154.583 111.676 153.916 112.157 153.801 112.866C153.685 113.574 154.167 114.242 154.876 114.357L154.875 114.357L158.891 115.009C159.285 115.073 159.689 114.952 159.982 114.681C160.275 114.41 160.428 114.017 160.395 113.619C160.386 113.541 160.297 112.425 159.762 111.084C159.687 110.899 159.602 110.709 159.509 110.518C159.731 110.573 159.948 110.629 160.132 110.686C161.739 111.171 163.407 112.112 164.682 112.959L162.191 113.473C161.76 113.561 161.407 113.857 161.245 114.265C161.083 114.673 161.136 115.131 161.387 115.49Z"/><path id="Vector_14" d="M84.8641 51.9937C87.3661 50.8315 90.1878 50.2405 93.0216 50.241C95.5821 50.2407 98.149 50.7227 100.495 51.6819C101.16 51.9534 101.919 51.635 102.19 50.9705C102.462 50.3057 102.143 49.5466 101.479 49.2751C98.8006 48.1809 95.9066 47.6414 93.0216 47.6411C89.8285 47.6416 86.6422 48.3025 83.7694 49.6355C80.898 50.9675 78.3373 52.98 76.4476 55.6694C76.0345 56.2568 76.1761 57.0676 76.7638 57.4807C77.3512 57.8936 78.162 57.752 78.575 57.1646L78.5748 57.1643C80.1793 54.8821 82.3604 53.1565 84.8641 51.9937Z"/><path id="Vector_15" d="M124.904 87.5605C125.432 88.4424 126.228 89.1484 127.223 89.6372C128.221 90.1353 129.419 90.4905 131.031 90.8892C131.588 91.0261 132.131 91.0916 132.652 91.0913C133.71 91.0928 134.676 90.8166 135.481 90.3682C136.289 89.9199 136.94 89.3086 137.436 88.6365C137.729 88.2354 138.017 87.708 138.339 86.9956C139.286 84.8772 140.406 81.2034 140.412 76.7271C140.412 74.6921 139.789 72.738 138.677 71.1209C137.566 69.5044 135.955 68.2195 133.994 67.5623C133.205 67.2971 132.341 67.1274 131.427 67.1274C130.6 67.1267 129.731 67.2681 128.864 67.5918C128.863 67.5918 128.863 67.592 128.863 67.592C128.863 67.5923 128.863 67.5923 128.862 67.5923C127.563 68.0793 126.67 69.1794 126.336 70.4346C125.793 72.4819 125.229 74.804 124.798 77.082C124.367 79.3628 124.066 81.5913 124.064 83.5076C124.065 84.2847 124.114 85.0125 124.238 85.688C124.363 86.3625 124.558 86.9914 124.904 87.5605ZM127.352 77.5654C127.766 75.3767 128.316 73.1082 128.849 71.1021C128.986 70.5864 129.344 70.1829 129.769 70.0291L129.316 68.8105L129.77 70.0286C130.343 69.8157 130.889 69.728 131.427 69.7273C132.018 69.7273 132.6 69.8369 133.167 70.0273C134.565 70.4961 135.719 71.4099 136.535 72.594C137.349 73.7776 137.813 75.2261 137.812 76.7266C137.811 79.4138 137.354 81.8079 136.805 83.6421C136.531 84.5586 136.234 85.3352 135.967 85.9314C135.703 86.5234 135.451 86.9514 135.343 87.0935C135.046 87.4963 134.665 87.8482 134.221 88.0942C133.774 88.3403 133.267 88.49 132.652 88.4915C132.347 88.4912 132.016 88.4536 131.652 88.3643C130.107 87.9868 129.058 87.6526 128.39 87.3137C127.719 86.9656 127.429 86.6873 127.122 86.2031C127.008 86.0212 126.878 85.6831 126.795 85.2185C126.709 84.7546 126.664 84.1707 126.664 83.5076C126.663 81.8657 126.937 79.7515 127.352 77.5654Z"/><path id="Vector_16" d="M95.5222 61.4434L94.9453 62.6084L95.522 61.4431C94.0906 60.7336 92.6079 60.4587 91.2085 60.46C90.6785 60.46 90.1592 60.4988 89.6543 60.5671C84.8826 61.2163 81.106 64.5479 80.2078 68.7878C79.8374 70.5588 79.6934 72.2422 79.6934 73.7742C79.6936 75.6724 79.9143 77.3379 80.2087 78.6672C80.3562 79.3323 80.5222 79.9131 80.6926 80.4033C80.865 80.8958 81.0337 81.2898 81.2266 81.6252C81.4758 82.0544 81.751 82.4751 82.1172 82.8672C82.665 83.4612 83.4092 83.926 84.3252 84.2361C85.2471 84.5525 86.363 84.7617 87.8782 84.9448C89.2542 85.1091 90.3674 85.209 91.3367 85.2095C92.2524 85.209 93.0528 85.1201 93.7935 84.8718C94.5335 84.6267 95.1831 84.207 95.717 83.6834C96.3179 83.0945 96.7183 82.3586 97.0389 81.533C97.5135 80.2922 97.8003 78.8154 97.9857 77.1899C98.169 75.5662 98.2425 73.7983 98.2425 72.0188C98.2425 69.4968 98.0945 66.9536 97.8868 64.7932C97.7547 63.3855 96.8713 62.1079 95.5222 61.4434ZM95.2017 78.3179C95.0469 79.2122 94.8455 79.9949 94.6121 80.5999C94.3818 81.2073 94.1121 81.6235 93.906 81.8181C93.5901 82.1199 93.334 82.2795 92.9646 82.4075C92.5959 82.5322 92.0837 82.6101 91.3367 82.6096C90.5508 82.6101 89.5186 82.5234 88.1877 82.3633C86.2852 82.1397 85.2141 81.8555 84.6501 81.5601C84.3635 81.4119 84.1887 81.2734 84.0161 81.0913C83.8452 80.9089 83.6758 80.6665 83.4761 80.3215C83.4099 80.21 83.2793 79.9294 83.1484 79.5496C82.7456 78.3975 82.291 76.3137 82.2932 73.7742C82.2932 72.405 82.4221 70.8999 82.7527 69.3198C83.3704 66.2996 86.2227 63.6506 90.0032 63.1436C90.4026 63.0894 90.8057 63.0598 91.2085 63.0598C92.2766 63.061 93.335 63.2627 94.3684 63.7734C94.9507 64.0659 95.249 64.5498 95.2986 65.0415C95.4995 67.1257 95.6426 69.5986 95.6426 72.0188C95.6433 74.2935 95.5134 76.5269 95.2017 78.3179Z"/><path id="Vector_17" d="M118.453 100.208C119.323 98.9915 120.05 97.7068 120.571 96.4368C121.089 95.1648 121.412 93.9106 121.415 92.7048C121.415 92.5237 121.408 92.3416 121.391 92.1584C121.33 91.5088 121.016 90.9812 120.652 90.5784C120.003 89.8718 119.147 89.3896 118.127 88.9414C116.598 88.2832 114.682 87.7661 112.648 87.3972C110.614 87.0308 108.472 86.8193 106.52 86.8188C104.906 86.8213 103.431 86.9568 102.193 87.3186C101.573 87.5034 101.005 87.7434 100.501 88.1118C100.004 88.4734 99.5562 89.0124 99.3796 89.6975C99.114 90.7056 98.998 91.7478 98.998 92.791C98.998 93.4109 99.0393 94.032 99.1165 94.6482L99.1177 94.6587C99.5044 97.5266 100.684 100.314 102.352 102.491C103.188 103.579 104.15 104.515 105.228 105.214C106.303 105.91 107.506 106.372 108.782 106.445L108.79 106.445C108.897 106.451 109.011 106.455 109.13 106.455C110.079 106.454 111.005 106.229 111.891 105.859C114.423 104.806 116.706 102.634 118.453 100.208ZM110.904 103.454L110.895 103.458C110.251 103.727 109.664 103.855 109.13 103.855L108.93 103.849C108.192 103.807 107.419 103.535 106.641 103.031C105.476 102.281 104.337 101.008 103.453 99.4602C102.567 97.9155 101.933 96.1045 101.696 94.3196C101.632 93.8049 101.598 93.293 101.598 92.791C101.598 91.9402 101.693 91.1187 101.894 90.3584L101.895 90.3535L101.91 90.3298C101.937 90.29 102.047 90.1797 102.28 90.0618C102.625 89.8818 103.214 89.7034 103.949 89.5913C104.685 89.4763 105.566 89.4185 106.52 89.4187C109.208 89.416 112.475 89.8789 114.998 90.5991C116.258 90.9551 117.336 91.3831 118.023 91.7913C118.366 91.9922 118.606 92.189 118.72 92.3179L118.804 92.4314C118.811 92.5161 118.815 92.6055 118.815 92.7048C118.819 93.4229 118.598 94.4009 118.165 95.4507C117.52 97.0293 116.417 98.771 115.107 100.237C113.801 101.707 112.28 102.896 110.904 103.454Z"/><path id="Vector_18" d="M111.889 105.86L111.897 105.856L111.89 105.859L111.889 105.86Z"/><path id="Vector_19" d="M99.3789 89.7007L99.3801 89.6978L99.3804 89.6958L99.3789 89.7007Z"/></g></g></svg>