<svg xmlns="http://www.w3.org/2000/svg" width="200" height="200" fill="none"><path fill="#FFD93A" d="M71.25 56.25C73.57 48.755 80 44.75 98.75 45S125 43.25 127.5 55.75 122.75 97 100.25 100 68 66.75 71.25 56.25Z"/><path fill="#191C22" d="M141.549 47.49c-3.49-3.99-8.45-7.216-15.219-9.425-6.772-2.211-15.361-3.426-26.228-3.427-9.66.001-17.52.961-23.904 2.727-9.568 2.64-15.852 7.148-19.655 12.887-3.806 5.735-5.106 12.573-5.106 19.783a40.57 40.57 0 0 0 2.115 13.71 27.057 27.057 0 0 0 5.159 8.836c3.504 3.989 8.472 7.214 15.235 9.423 6.767 2.211 15.335 3.426 26.156 3.427 9.618-.001 17.456-.961 23.832-2.727 9.557-2.639 15.856-7.147 19.68-12.884 3.828-5.733 5.153-12.572 5.153-19.785a40.906 40.906 0 0 0-2.091-13.707 26.956 26.956 0 0 0-5.127-8.838Zm-79.925 2.794a24.375 24.375 0 0 1 2.671-2.84 1.3 1.3 0 0 1 1.748 1.925c-.863.78-1.66 1.63-2.388 2.538a1.3 1.3 0 0 1-2.031-1.623ZM85.262 40.05a1.3 1.3 0 0 1-1.055 1.507 44.047 44.047 0 0 0-12.56 3.98 1.3 1.3 0 1 1-1.191-2.312 46.614 46.614 0 0 1 13.3-4.229 1.298 1.298 0 0 1 1.506 1.054ZM74.18 63.447a21.554 21.554 0 0 1 1.18-7.169 11.809 11.809 0 0 1 3.714-5.487 7.43 7.43 0 0 1 4.077-1.546 6.655 6.655 0 0 1 4.502 1.367 10.11 10.11 0 0 1 2.764 3.372 20.7 20.7 0 0 1 2.13 9.472 20.364 20.364 0 0 1-1.11 6.841 10.635 10.635 0 0 1-3.661 5.175 7.601 7.601 0 0 1-4.082 1.396c-.137.007-.273.01-.407.01a7.342 7.342 0 0 1-4.161-1.256 9.339 9.339 0 0 1-2.84-3.167 18.539 18.539 0 0 1-2.106-9.008Zm17.06 27.727a11.241 11.241 0 0 1-1.843-4.362 1.3 1.3 0 0 1 1.101-1.482 74.941 74.941 0 0 1 9.566-.598 54.9 54.9 0 0 1 10.26.879 1.307 1.307 0 0 1 .835.556 1.296 1.296 0 0 1 .19.985 10.56 10.56 0 0 1-1.059 2.688 10.763 10.763 0 0 1-4.429 4.403 12.068 12.068 0 0 1-5.67 1.297 11.413 11.413 0 0 1-5.641-1.355 9.928 9.928 0 0 1-3.31-3.011Zm29.777-15.702a7.6 7.6 0 0 1-4.082 1.396c-.137.007-.273.01-.407.01a7.343 7.343 0 0 1-4.161-1.256 9.33 9.33 0 0 1-2.84-3.167 18.534 18.534 0 0 1-2.106-9.008 21.56 21.56 0 0 1 1.18-7.169 11.805 11.805 0 0 1 3.714-5.487 7.429 7.429 0 0 1 4.077-1.546 6.653 6.653 0 0 1 4.503 1.367c1.155.91 2.098 2.06 2.763 3.372a20.697 20.697 0 0 1 2.13 9.472 20.381 20.381 0 0 1-1.11 6.841 10.637 10.637 0 0 1-3.661 5.175Zm15.091 16.919c-.25.233-.506.461-.767.685l-.002.002a27.988 27.988 0 0 1-3.906 2.794c-.299.179-.605.354-.917.526a1.3 1.3 0 0 1-1.253-2.278c.285-.157.564-.317.838-.48a25.448 25.448 0 0 0 3.545-2.535c.238-.205.468-.41.692-.618a1.3 1.3 0 0 1 1.77 1.904Z"/><path fill="#FFD93A" d="m123.75 124.375 25.125 2.125s1.25-7.375-2.875-7.75-16-1.375-18.375-1.125-3.875 2.875-3.875 6.75ZM121.875 158.5s-.25 7.125 4.25 8 12.875.75 16.25.5a4.82 4.82 0 0 0 4.625-4 8.992 8.992 0 0 0 0-2.75l-25.125-1.75ZM54.5 128.375l1.75-7.25 5.125-2.375L87 126.5l-5.475 17.55L59 137.625l-1.875-3.5.75-3.5-3.375-2.25Z"/><path fill="#191C22" d="M167.477 49.68c.935-9.897 2.462-27.747 2.793-32.804.015-.232.023-.458.023-.677a7.13 7.13 0 0 0-.351-2.319 4.641 4.641 0 0 0-1.751-2.365 5.302 5.302 0 0 0-2.45-.87 6.16 6.16 0 0 0-.678-.037 5.106 5.106 0 0 0-3.414 1.228 5.893 5.893 0 0 0-1.833 3.99c-.408 4.228-1.753 20.545-2.622 31.181-.159-.61-.319-1.22-.498-1.82-2.812-9.428-8.229-17.578-17.347-23.269-9.114-5.696-21.828-8.946-39.247-8.947-11.617 0-21.132 1.445-28.893 4.096-11.64 3.965-19.322 10.708-23.981 19.162a46.84 46.84 0 0 0-4.373 11.369c-.867-10.612-2.254-27.464-2.67-31.772a5.894 5.894 0 0 0-1.834-3.99 5.104 5.104 0 0 0-3.413-1.228 6.16 6.16 0 0 0-.678.037 5.01 5.01 0 0 0-3.168 1.488 4.8 4.8 0 0 0-1.033 1.747 7.133 7.133 0 0 0-.351 2.319c0 .22.007.445.023.677.331 5.056 1.858 22.907 2.793 32.805.132 2.457.708 4.87 1.699 7.122a7.113 7.113 0 0 0 1.38 1.953 6.434 6.434 0 0 0-1.5 1.64 8.81 8.81 0 0 0-1.012 3.041 24.745 24.745 0 0 0-.325 4.204c.004 1.43.09 2.858.257 4.277.264 2.4.803 4.762 1.606 7.038a16.6 16.6 0 0 0 1.137 2.512c.348.65.804 1.237 1.348 1.734a9.877 9.877 0 0 0 4.135 1.837c.744.168 1.498.287 2.258.354.012.04.021.08.034.119a37.712 37.712 0 0 0 17.435 22.212c7.602 4.442 17.685 7.229 30.865 8.037v2.571c-1.694.106-3.321.234-4.832.381-2.092.205-3.965.447-5.516.727-.776.14-1.471.29-2.081.453a9.434 9.434 0 0 0-1.592.554 3.478 3.478 0 0 0-1.063.84l-4.237-1.253c-5.069-1.499-9.723-2.876-10.851-3.226a2.47 2.47 0 0 0-1.968.224l-.116.076-3.698 2.712.003.004c-.482.313-.84.783-1.012 1.332l-.002.006-1.7 5.62a4.554 4.554 0 0 0-1.229-.177 4.3 4.3 0 0 0-2.9 1.117 4.57 4.57 0 0 0-.786.968 1.286 1.286 0 0 0-.264.356c-.013.028-.313.669-.62 1.56a11.931 11.931 0 0 0-.59 2.442 5.41 5.41 0 0 0-2.785 2.001 5.985 5.985 0 0 0-.955 2.363c-.34.256-.671.524-.993.805a13.644 13.644 0 0 0-4.802 8.45c-.047.441-.071.884-.071 1.327a12.01 12.01 0 0 0 2.886 7.843 11.202 11.202 0 0 0 8.527 3.934 14.456 14.456 0 0 0 8.52-2.971 12.99 12.99 0 0 0 3.036-3.223 8.566 8.566 0 0 0 4.313-2.299 16.787 16.787 0 0 0 4.044-6.995c.242-.736.47-1.435.69-2.118l1.955.597a240.647 240.647 0 0 0-1.837 29.105 134.54 134.54 0 0 0 .868 16.367 1.3 1.3 0 0 0 2.579-.326 120.193 120.193 0 0 1-.81-12.46 63.538 63.538 0 0 0 12.053 2.239c5.285.515 10.592.762 15.901.74 6.848.017 13.691-.347 20.498-1.091 2.515-.293 4.721-.637 6.568-1.02.066-.007.13-.01.196-.018l.035-.002.05-.005c.104-.019.206-.052.302-.097.084-.019.181-.036.263-.055.879-.193 1.745-.44 2.594-.738l.032-.014a120.747 120.747 0 0 1-.811 12.521 1.299 1.299 0 1 0 2.579.326c.621-5.433.911-10.899.867-16.368 0-1.29-.013-2.597-.038-3.912l.395.026c2.916.186 5.961.325 7.93.325l.347-.001a8.573 8.573 0 0 0 2.791-.454 5.644 5.644 0 0 0 2.9-2.239c.283-.445.508-.925.669-1.427a13.953 13.953 0 0 0 5.966 1.42c.405.001.809-.021 1.212-.063a11.203 11.203 0 0 0 7.316-3.871 12.012 12.012 0 0 0 2.886-7.844c0-.443-.024-.885-.071-1.326l-1.293.139 1.293-.139a13.648 13.648 0 0 0-4.802-8.449 17.688 17.688 0 0 0-1.106-.884 7.002 7.002 0 0 0-.132-1.099 8.546 8.546 0 0 0-1.558-3.04 28.642 28.642 0 0 0-3.811-4.103 22.238 22.238 0 0 0-1.742-1.427 7.842 7.842 0 0 0-.715-.468 3.28 3.28 0 0 0-.362-.178 1.784 1.784 0 0 0-.548-.135 6.88 6.88 0 0 0-.45-.012l-.286.003-.011-.023c.089-2.033.169-3.899.229-5.349.066-1.584.107-2.66.113-3.015l.001-.205a8.93 8.93 0 0 0-.351-2.646 4.957 4.957 0 0 0-2.117-2.825 7.735 7.735 0 0 0-3.571-1.021c-1.656-.126-4.45-.357-7.326-.557-2.879-.2-5.83-.37-7.87-.37h-.089a8.028 8.028 0 0 0-2.927.503 5.54 5.54 0 0 0-2.8 2.372c-.062.105-.108.215-.164.322l-.004-.001a58.943 58.943 0 0 0-9.205-1.326 156.96 156.96 0 0 0-3.853-.268v-2.651a83.534 83.534 0 0 0 18.957-3.407c11.612-3.671 19.328-9.974 24.027-18.084a42.275 42.275 0 0 0 3.822-8.893c.193.098.409.144.626.135a16.704 16.704 0 0 0 2.331-.36 9.88 9.88 0 0 0 4.135-1.837 6.472 6.472 0 0 0 1.348-1.734 19.28 19.28 0 0 0 1.64-4.043 33.321 33.321 0 0 0 1.103-5.507c.168-1.42.253-2.847.257-4.276a24.77 24.77 0 0 0-.325-4.204 8.79 8.79 0 0 0-1.012-3.042 6.953 6.953 0 0 0-2.112-2.085c-.014-.01-.028-.016-.042-.025a8.333 8.333 0 0 0 1.652-2.86 23.51 23.51 0 0 0 1.145-5.745Zm-132.364-.244c-.933-9.864-2.462-27.748-2.788-32.73a7.486 7.486 0 0 1-.017-.507c-.011-.5.06-.999.21-1.476.13-.432.401-.808.77-1.068a2.72 2.72 0 0 1 1.257-.425h.001c.13-.015.26-.022.392-.022a2.506 2.506 0 0 1 1.694.578c.607.61.953 1.43.965 2.29.306 3.169 1.155 13.339 1.926 22.699a15008.771 15008.771 0 0 1 1.437 17.593c-.787.187-1.56.426-2.315.716-.197.077-.406.178-.61.267a3.542 3.542 0 0 1-1.487-1.71 18.013 18.013 0 0 1-1.435-6.205Zm6.504 33.018a7.2 7.2 0 0 1-2.821-1.235 4.12 4.12 0 0 1-.773-1.041 16.833 16.833 0 0 1-1.403-3.487c-.48-1.66-.82-3.357-1.014-5.074a34.546 34.546 0 0 1-.24-3.976 22.202 22.202 0 0 1 .286-3.754c.097-.74.321-1.459.662-2.123.35-.519.805-.957 1.337-1.285.894-.56 1.86-.996 2.871-1.296.21-.066.404-.12.581-.169a91.077 91.077 0 0 0-.227 6.486 71.425 71.425 0 0 0 1.884 17.182 14.37 14.37 0 0 1-1.143-.228Zm10.33 46.751c.331.004.656.086.949.239a20.365 20.365 0 0 1 3.66 2.18c.045.15.065.307.061.463a2.16 2.16 0 0 1-.203.943l-.021.033c-.565-.188-1.217-.33-1.952-.492a23.616 23.616 0 0 1-3.368-.902 3.442 3.442 0 0 1-.942-.508l-.062-.062a2.49 2.49 0 0 1 .723-1.45 1.695 1.695 0 0 1 1.155-.444Zm-5.82 7.342a2.893 2.893 0 0 1 1.778-1.136 59.852 59.852 0 0 1 2.453-.309c.785-.082 1.61-.145 2.172-.145.16 0 .298.006.395.014l.107.012.017.003c.155.044.612.215 1.13.439.794.34 1.797.814 2.588 1.241.394.213.738.417.955.566l.053.038c.005.044.008.088.008.132.007.225-.046.448-.153.646l-.16.17a.899.899 0 0 1-.352.134c-.013.002-.022.011-.034.014a14.556 14.556 0 0 0-1.711-.729 13.477 13.477 0 0 0-1.363-.404 5.304 5.304 0 0 0-1.142-.164l-.096.003v-.001l-.009.001h-.014v.001a5.23 5.23 0 0 0-.496.056c-.641.098-1.656.301-2.54.484-.88.182-1.61.341-1.613.341a1.303 1.303 0 0 0-.993 1.548 1.304 1.304 0 0 0 1.547.993c.002-.001.943-.206 1.964-.414a70.64 70.64 0 0 1 1.47-.287c.216-.039.408-.072.554-.094l.179-.025.05-.005h.003l.036.002c.231.029.46.075.686.137a11.14 11.14 0 0 1 3.092 1.323c.023.058.042.119.056.18.037.156.056.315.056.475 0 .076-.007.153-.02.229a16.611 16.611 0 0 1-2.042-.177 28.23 28.23 0 0 1-1.052-.166l-.079-.014a1.29 1.29 0 0 0-.701.062l-3.858 1.466a1.307 1.307 0 0 0-.724.683 1.294 1.294 0 0 0 .24 1.424 1.304 1.304 0 0 0 1.407.324l3.525-1.339a31.83 31.83 0 0 0 1.441.207 7.405 7.405 0 0 1-.397.913 7.232 7.232 0 0 1-2.469 2.758 4.77 4.77 0 0 1-2.571.851 2.811 2.811 0 0 1-1.763-.576 3.392 3.392 0 0 1-1.14-1.838 34.193 34.193 0 0 1-1.096-7.755 3.924 3.924 0 0 1 .625-2.292Zm13.077 12.287a7.51 7.51 0 0 1-1.16 3.224 11.02 11.02 0 0 1-4.105 3.698 11.528 11.528 0 0 1-5.345 1.415 8.6 8.6 0 0 1-6.557-3.03 9.414 9.414 0 0 1-2.256-6.147c0-.351.019-.701.056-1.05a10.653 10.653 0 0 1 3.187-6.069c.058.728.13 1.458.227 2.193a7.397 7.397 0 0 0-.766 3.291 7.302 7.302 0 0 0 1.755 4.767 6.854 6.854 0 0 0 4.471 2.365h.001a6.8 6.8 0 0 0 .728.038 7.126 7.126 0 0 0 6.942-6.125c.191-.299.367-.608.526-.926a9.41 9.41 0 0 0 .731-1.953c.225-.055.439-.147.634-.271.175-.119.332-.263.466-.427.35 1.19.53 2.424.536 3.664 0 .449-.023.897-.071 1.343Zm6.833-5.365a14.27 14.27 0 0 1-3.369 5.928c-.33.313-.688.595-1.07.841.067-.295.113-.598.153-.902a6.952 6.952 0 0 0-1.9-9.502c-.045-.077-.096-.151-.143-.227.066-.091.128-.185.184-.282 1.843.564 4.261 1.302 6.818 2.082-.215.665-.436 1.346-.673 2.062Zm-5.708-6.729a3.083 3.083 0 0 0-.147-.569 1.689 1.689 0 0 0-.344-.546 3.555 3.555 0 0 0-.603-.508 10.8 10.8 0 0 0-.775-.48c.202-.279.363-.585.48-.909a4.93 4.93 0 0 0 .277-1.641 4.138 4.138 0 0 0-.172-1.22 2.45 2.45 0 0 0-.758-1.189 16.75 16.75 0 0 0-2.734-1.777l1.796-5.936.076-.049 3.548-2.602c1.273.393 5.823 1.739 10.81 3.214 5.073 1.5 10.576 3.126 13.441 3.987a.789.789 0 0 1 .565.758l-.036.234-4.455 14.558c-.06.235-.188.448-.37.61a.701.701 0 0 1-.464.143 1.717 1.717 0 0 1-.503-.085c-4.629-1.417-14.59-4.451-19.631-5.993Zm85.537 25.271a5.162 5.162 0 0 1-.33 1.576 2.964 2.964 0 0 1-1.231 1.496c-.8.44-1.704.655-2.616.621l-.323.001c-1.856.001-4.887-.136-7.764-.319-2.875-.183-5.635-.417-6.904-.594a4.198 4.198 0 0 1-2.6-1.24 4.676 4.676 0 0 1-1.118-2.945c-.008-.11-.015-.327-.017-.613l22.944 1.359-.041.658Zm1.386-29.211c-.476.023-.965.05-1.447.079-.843.052-1.652.111-2.304.176-.327.033-.613.066-.86.104-.123.02-.237.04-.352.065a2.148 2.148 0 0 0-.42.137 1.635 1.635 0 0 0-.66.562 2.134 2.134 0 0 0-.327.818 3.77 3.77 0 0 0-.059.695c.006.551.078 1.098.214 1.632.059.246.137.488.232.723.051.124.11.243.178.358.095.164.217.312.359.438.102.087.215.161.336.218.126.059.256.107.391.143a13.28 13.28 0 0 0 1.559.288 82.93 82.93 0 0 0 2.806.335c-.991.109-2.166.258-3.169.419-.55.089-1.041.179-1.444.275a5.012 5.012 0 0 0-.573.169 1.994 1.994 0 0 0-.336.161 1.519 1.519 0 0 0-.252.191 1.378 1.378 0 0 0-.33.476 2.63 2.63 0 0 0-.164.683c-.027.23-.04.46-.039.691 0 .394.034.787.103 1.174.074.444.222.873.436 1.269.102.177.237.332.398.457.169.128.356.232.554.308-.238.271-.41.595-.5.945-.08.306-.119.621-.117.937.003.641.13 1.276.374 1.87.126.311.297.603.508.865.255.323.594.568.98.711.248.08.502.142.759.185.606.11 1.451.217 2.364.314a1.25 1.25 0 0 0-.089.355c-.119 2.6-.223 4.885-.315 6.731l-23.047-1.366c.102-4.016.397-10.901.719-17.453.2-4.062.409-8.004.589-11.075.065-1.113.126-2.108.182-2.955l22.99 1.603c-.061 1.461-.14 3.29-.227 5.289Zm11.994 13.565a10.885 10.885 0 0 1 3.551 6.412c.037.349.056.699.056 1.049a9.41 9.41 0 0 1-2.257 6.148 8.595 8.595 0 0 1-6.557 3.03 11.584 11.584 0 0 1-5.535-1.526c.051-.861.107-1.935.168-3.186.335.055.673.085 1.013.089a6.808 6.808 0 0 0 8.708-1.421 7.297 7.297 0 0 0 1.755-4.767 7.356 7.356 0 0 0-1.253-4.133 24.84 24.84 0 0 0 .351-1.695Zm-9.09-11.06.102.001c.087.051.228.139.393.258a26.662 26.662 0 0 1 3.66 3.344 18.553 18.553 0 0 1 1.69 2.102c.628.753.948 1.715.896 2.694a20.812 20.812 0 0 1-1.24 6.202 19.72 19.72 0 0 1-1.289 2.964 6.917 6.917 0 0 1-1.338 1.827 4.332 4.332 0 0 1-1.506.803 6.033 6.033 0 0 1-1.784.284c-.27.002-.54-.024-.805-.078a1.095 1.095 0 0 0-.14-.003l.163-3.559a1.252 1.252 0 0 0-.037-.243c1.171.093 2.211.154 2.819.156l.031.001a1.3 1.3 0 0 0 .021-2.596v-.004h-.03c-.308 0-.926-.028-1.652-.076a88.93 88.93 0 0 1-3.639-.321 39.657 39.657 0 0 1-1.541-.198 11.777 11.777 0 0 1-.523-.092l-.091-.021a1.525 1.525 0 0 1-.143-.338 2.457 2.457 0 0 1-.108-.686l.001-.002c.051-.007.103-.014.161-.02 1.075-.129 3.163-.268 4.948-.37a337.911 337.911 0 0 1 3.294-.171 1.302 1.302 0 0 0 1.241-1.287 1.3 1.3 0 0 0-1.218-1.309c-.002 0-.596-.038-1.504-.107-1.36-.105-3.418-.281-5.147-.503a26.081 26.081 0 0 1-2.19-.355 6.912 6.912 0 0 1-.356-.088c-.016-.057-.032-.108-.043-.174a3.924 3.924 0 0 1-.057-.612c.722-.148 1.895-.322 2.985-.456.604-.075 1.188-.14 1.667-.186.475-.047.866-.076 1.008-.078h.003l.051-.001c.683.032 1.364.106 2.038.223.37.058.71.116.955.159l.391.072a1.3 1.3 0 0 0 .487-2.554 46.239 46.239 0 0 0-1.433-.246l-.225-.033-1.357-1.932a1.303 1.303 0 0 0-.946-.547c-.001 0-.348-.032-.881-.085-.798-.079-2.008-.206-3.035-.341a25.459 25.459 0 0 1-1.309-.199l-.012-.003a4.55 4.55 0 0 1-.144-.844c.783-.09 2.085-.182 3.347-.25a78.907 78.907 0 0 1 3.371-.122Zm-25.447-12.224a4.916 4.916 0 0 1 1.062-2.702 2.945 2.945 0 0 1 1.128-.758c.637-.23 1.31-.34 1.987-.324h.081c1.905-.001 4.839.165 7.69.364 1.689.117 3.345.245 4.768.357l-.107 1.182c-.032.344.075.686.296.95a1.296 1.296 0 0 0 1.83.167 1.3 1.3 0 0 0 .463-.881l.11-1.213a6.686 6.686 0 0 1 1.744.339 2.37 2.37 0 0 1 1.35 1.074 5.01 5.01 0 0 1 .491 2.48l-.001.168a34.9 34.9 0 0 1-.019.628l-22.899-1.597a6.51 6.51 0 0 1 .026-.234Zm-9.577-1.78c2.043.2 3.859.436 5.308.698.674.121 1.259.249 1.753.377-.019.118-.044.237-.06.354-.051.382-.106 1.068-.178 2.095-.247 3.562-.645 10.902-.981 18.049-.336 7.151-.612 14.07-.612 16.863 0 .447.006.785.024 1.054a7.276 7.276 0 0 0 1.804 4.528 6.806 6.806 0 0 0 4.151 2.049c.917.127 2.387.267 4.094.4.027 1.379.044 2.749.044 4.099 0 .22-.003.436-.003.655a5.323 5.323 0 0 1-.956.437c-.931.318-1.882.574-2.847.766-.504.049-1.002.086-1.482.086a17.597 17.597 0 0 1-5.196-.844c-2.545-.771-5.129-1.982-8.154-3.027a32.03 32.03 0 0 0-10.758-1.895 35.151 35.151 0 0 0-13.61 2.973c-1.843.728-3.542 1.435-5.209 1.95-1.627.536-3.327.82-5.04.843a14.072 14.072 0 0 1-1.812-.119 34.64 34.64 0 0 1-3.477-.979l-.015-.002c-.001-.282-.005-.56-.005-.843.023-9.472.61-18.935 1.758-28.337l5.528 1.689a4.33 4.33 0 0 0 1.263.198 3.317 3.317 0 0 0 2.077-.703 3.808 3.808 0 0 0 1.233-1.856l.006-.018 4.46-14.574a3.39 3.39 0 0 0-2.269-4.243c-1.384-.415-3.38-1.009-5.642-1.679a59.63 59.63 0 0 1 8.507-1.187l.014-.001a18.051 18.051 0 0 0 11.828 4.326 20.796 20.796 0 0 0 7.17-1.3 15.762 15.762 0 0 0 4.965-2.834c.074-.07.14-.149.196-.234.727.058 1.442.119 2.123.186Zm22.783-15.822c-8.559 5.009-20.769 7.936-37.813 7.934-11.36 0-20.58-1.298-27.994-3.65-11.125-3.539-18.178-9.377-22.565-16.911-4.38-7.538-6.068-16.875-6.067-27.352A68.506 68.506 0 0 1 46 45.932c2.69-8.959 7.684-16.453 16.233-21.81 8.553-5.35 20.762-8.551 37.87-8.55 11.401-.001 20.635 1.421 28.051 3.955 11.126 3.812 18.17 10.06 22.547 17.96 4.369 7.9 6.029 17.535 6.027 28.013a64.917 64.917 0 0 1-2.546 19.239 35.079 35.079 0 0 1-16.266 20.74Zm27.37-41.592c.202 1.242.297 2.498.286 3.755a34.744 34.744 0 0 1-.239 3.975 28.968 28.968 0 0 1-1.465 6.447c-.259.73-.578 1.437-.953 2.114a4.122 4.122 0 0 1-.773 1.041 7.5 7.5 0 0 1-3.026 1.284 15.052 15.052 0 0 1-1.69.279 71.348 71.348 0 0 0 1.902-17.282c0-2.257-.082-4.48-.246-6.669.818.177 1.619.42 2.397.727a9.937 9.937 0 0 1 1.863.957c.509.323.946.748 1.282 1.249a6.5 6.5 0 0 1 .662 2.123Zm-1.824-8.362a4.3 4.3 0 0 1-.845 1.175c-.138.129-.288.243-.449.341a18.842 18.842 0 0 0-.978-.34 16.337 16.337 0 0 0-1.799-.46 1.258 1.258 0 0 0-.34.008l.407-5c.809-9.93 2.487-30.414 2.947-35.173a3.31 3.31 0 0 1 .965-2.29 2.503 2.503 0 0 1 1.694-.578c.131 0 .262.007.392.021a2.423 2.423 0 0 1 1.558.683c.213.233.373.51.469.811.151.477.222.976.211 1.476 0 .16-.006.329-.017.507-.327 4.982-1.855 22.866-2.788 32.73-.096 2.1-.58 4.164-1.427 6.089Z"/><path fill="#191C22" d="m132.243 135.301 6.811-4.312c.291-.184.497-.477.572-.813a1.296 1.296 0 0 0-.983-1.554 1.304 1.304 0 0 0-.98.17l-6.811 4.313a1.297 1.297 0 0 0 .41 2.366c.337.076.689.015.981-.17ZM136.709 148.889l-6.811 4.312a1.3 1.3 0 1 0 1.391 2.197l6.811-4.312a1.3 1.3 0 1 0-1.391-2.197ZM128.764 143.988l6.811-4.313a1.302 1.302 0 0 0 .403-1.793 1.296 1.296 0 0 0-1.794-.403l-6.811 4.312a1.304 1.304 0 0 0-.403 1.794 1.304 1.304 0 0 0 1.794.403ZM140.793 141.263l.001-.001v-.001l-.001.002ZM81.666 130.324a2.739 2.739 0 0 0-1.94-2.617l-7.844-2.388h-.002.002a2.743 2.743 0 0 0-2.912.878c-.228.278-.399.598-.503.942l-1.915 6.289a2.735 2.735 0 0 0 1.819 3.414l7.847 2.389h.001a2.736 2.736 0 0 0 3.413-1.82l1.915-6.29c.078-.259.118-.527.119-.797Zm-2.6 0-.007.04-.547 1.797-2.783-.82.599-1.95 2.641.804.097.129Zm-10.034 3.901.007-.039 1.915-6.29.129-.096.038.006h.002l2.718.827-2.01 6.545-2.702-.823-.097-.13Zm8.112 2.429-.13.096-.04-.007.001.001-2.656-.809.647-2.108 2.789.822-.61 2.005Z"/></svg>