<svg xmlns="http://www.w3.org/2000/svg" width="200" height="200" fill="none"><path fill="#FFE632" d="M30.05 83.843c-2.475-2.813-2.203-4.704-2.203-4.704-.867.51-2.094 1.396-2.833 2.647-1.237 2.095-.731 4.356-.466 5.273.229.792-.046 1.627-.851 1.942-.804.315-1.727-.045-2.06-.803a1.397 1.397 0 0 1-.049-1.012s-1.674 1.193-1.585 5.028c.052 2.21 1.52 3.958 2.894 4.708.61.333 1.267.572 1.936.748-.421-.47-.84-1.217-.583-2.133.157-.56.622-1.214 1.141-1.529 0 0-.01 1.237 1.312 1.204 1.43-.037 2.535-3.006.397-5.345 0 0 4.019 1.475 3.442 5.652-.184 1.335-.564 1.912-1.01 2.317 1.898-.376 4.558-1.66 4.959-5.207.406-3.61-1.967-5.975-4.442-8.786Z"/><path fill="#BEBEC9" d="M44.958 47.458a7.43 7.43 0 0 0-.773 1.42 4.878 4.878 0 0 0-.355 1.81c-.002 1.305.547 2.685 1.703 4.154a1.3 1.3 0 1 0 2.047-1.603c-.933-1.197-1.148-1.987-1.15-2.55.002-.393.103-.743.306-1.148.3-.605.856-1.268 1.413-2.052.276-.394.553-.825.77-1.327.218-.5.373-1.08.372-1.711a4.369 4.369 0 0 0-.41-1.81c-.274-.604-.676-1.2-1.215-1.813-.41-.466-.655-.869-.799-1.213a2.347 2.347 0 0 1-.194-.927c0-.368.088-.757.26-1.202.254-.666.7-1.422 1.127-2.286.42-.863.832-1.872.835-3.069a5.246 5.246 0 0 0-.639-2.476c-.44-.832-1.103-1.647-2.024-2.482a1.3 1.3 0 1 0-1.746 1.926c.758.686 1.213 1.28 1.471 1.77.258.494.336.879.339 1.262 0 .38-.09.778-.262 1.226-.253.672-.699 1.427-1.125 2.286-.418.857-.833 1.856-.836 3.045a4.964 4.964 0 0 0 .396 1.93c.272.651.685 1.29 1.245 1.927.41.466.658.857.797 1.167.14.312.178.537.18.739-.001.283-.085.568-.288.944-.299.56-.877 1.234-1.445 2.063ZM54.617 24.012c.257.494.336.878.338 1.262 0 .38-.09.777-.261 1.226-.254.672-.7 1.426-1.125 2.286-.418.857-.833 1.855-.836 3.045a4.966 4.966 0 0 0 .395 1.93c.273.651.686 1.29 1.245 1.927.41.466.659.857.798 1.167.14.312.178.537.179.74 0 .089-.009.178-.027.276a1.3 1.3 0 0 0 2.556.48c.044-.239.071-.492.07-.757a4.369 4.369 0 0 0-.408-1.808c-.273-.605-.676-1.201-1.215-1.815-.41-.466-.655-.869-.8-1.213a2.349 2.349 0 0 1-.194-.927c0-.368.089-.758.26-1.202.254-.667.701-1.422 1.128-2.287.42-.862.832-1.87.835-3.068a5.246 5.246 0 0 0-.64-2.477c-.44-.832-1.103-1.646-2.023-2.482a1.3 1.3 0 1 0-1.746 1.927c.757.686 1.212 1.28 1.47 1.77ZM151.863 24.556c.409.465.654.867.798 1.211.143.346.193.635.194.928 0 .368-.088.757-.26 1.202-.254.666-.701 1.422-1.127 2.286-.419.863-.832 1.872-.835 3.07-.003.796.199 1.648.64 2.477.44.832 1.103 1.647 2.024 2.482a1.3 1.3 0 1 0 1.747-1.926c-.758-.686-1.214-1.28-1.472-1.771-.258-.494-.336-.88-.339-1.263 0-.38.089-.778.261-1.226.254-.672.699-1.427 1.125-2.286.418-.858.832-1.857.836-3.045a4.98 4.98 0 0 0-.395-1.93c-.272-.65-.685-1.29-1.244-1.926-.411-.467-.659-.857-.799-1.167a1.784 1.784 0 0 1-.179-.74c0-.093.009-.179.026-.262a1.3 1.3 0 0 0-2.551-.505c-.05.25-.075.507-.075.768-.001.589.136 1.206.41 1.809.273.604.676 1.2 1.215 1.814ZM158.428 115.329a29.648 29.648 0 0 0-11.722-2.484c-.973 0-1.547.058-1.586.063a1.298 1.298 0 0 0-1.155 1.144h-.001c-.004.066-.226 1.552-1.315 2.984a7.143 7.143 0 0 1-2.381 2.013c-1.001.531-2.31.935-4.012 1.081-1.358-1.739-2.725-3.31-4.167-4.649a22.225 22.225 0 0 0-1.653-1.381c9.099-2.039 15.013-6.295 18.649-10.217 3.139-3.381 4.608-6.481 5.115-7.715a25.394 25.394 0 0 1 1.758-.656c1.109-.372 2.456-.698 3.36-.69.497-.007.813.105.877.16a3.552 3.552 0 0 0 2.02.596c1.348-.015 2.49-.573 3.364-1.068.868-.504 1.45-.989 1.487-1.019.428-.356.582-.943.382-1.464a1.297 1.297 0 0 0-1.259-.834h-.003l-.08.001c-.259.003-1.153-.038-1.978-.349a3.536 3.536 0 0 1-1.12-.65 2.579 2.579 0 0 1-.739-1.12 4.253 4.253 0 0 0-1.112-1.73c-.718-.675-1.573-1.037-2.385-1.245a8.142 8.142 0 0 0-1.032-.18c.698-.27 1.574-.513 2.475-.787 1.175-.37 2.416-.776 3.446-1.668.271-.239.58-.4.942-.509a4.195 4.195 0 0 1 1.194-.157c.69-.002 1.401.133 1.921.272.261.07.475.139.619.189l.16.058.035.014.005.002a1.3 1.3 0 0 0 1.67-1.756c-.028-.055-.553-1.18-1.506-2.371-.479-.595-1.065-1.212-1.795-1.712-.725-.496-1.627-.885-2.662-.886a4.3 4.3 0 0 0-1.899.455c-1.275.63-2.146.874-2.613.864a1.228 1.228 0 0 1-.449-.076c-.187-.072-.399-.208-.68-.513-.278-.302-.603-.764-.967-1.383a4.014 4.014 0 0 0-1.701-1.599c-.663-.323-1.351-.43-1.984-.43a6.807 6.807 0 0 0-1.525.187c.477-2.34 1.063-6.218 1.064-11.18 0-1.77-.075-3.676-.257-5.698-.678-7.591-3.611-13.52-7.603-18.032-5.992-6.774-14.267-10.412-21.018-12.403-5.032-1.478-9.234-2.037-11.08-2.228.037-.117.102-.263.221-.45.246-.38.738-.917 1.662-1.544a4.595 4.595 0 0 0 1.6-1.838 4.95 4.95 0 0 0 .454-2.137c-.01-1.606-.597-3.067-1.143-4.177a14.421 14.421 0 0 0-1.117-1.89 1.3 1.3 0 0 0-2.351.835v.001l.003.154c.007.393-.072 1.476-.495 2.281-.21.407-.479.74-.851.983-.375.24-.876.424-1.686.428-.089 0-.18-.003-.273-.008l.007.001a8.094 8.094 0 0 0-4.117.85c-1.54.775-2.617 1.897-3.321 2.816a9.96 9.96 0 0 0-.187.253L99.88 19.3a1.297 1.297 0 0 0-1.407-.208c-1.005.455-1.726 1.216-2.117 2.027-.399.812-.509 1.641-.51 2.37.001.376.031.73.075 1.05-8.417.421-15.128 2.177-20.422 4.817-8.447 4.205-13.279 10.619-15.928 16.939-2.658 6.325-3.192 12.56-3.194 16.64 0 1.302.056 2.37.116 3.169a8.03 8.03 0 0 0-2.657.612c-1.226.515-2.526 1.46-3.536 3.01-.52.794-.99 1.233-1.38 1.472a2.006 2.006 0 0 1-1.1.312c-.415.002-.911-.112-1.47-.305-.557-.19-1.165-.453-1.826-.679a3.493 3.493 0 0 0-1.132-.175c-1.036.01-2.004.325-2.863.647-.845.323-1.587.687-1.907.824a1.302 1.302 0 0 0-.69 1.684c.26.639.976.952 1.624.732l.002.007s.11-.033.313-.033c.29.003.755.06 1.396.427.639.368 1.462 1.065 2.371 2.402a5.64 5.64 0 0 0 2.717 2.13c1.105.42 2.345.572 3.752.573.608 0 1.25-.03 1.929-.083-.484.493-1.273 1.009-2.696 1.344-1.396.32-2.456.702-3.314 1.174-1.296.704-2.064 1.636-2.67 2.478-.619.852-1.135 1.64-2.151 2.574a1.298 1.298 0 0 0-.213 1.666 1.298 1.298 0 0 0 1.607.486l.018-.008c.122-.051.795-.327 1.692-.583.895-.258 2.02-.489 2.99-.486.47 0 .898.053 1.241.157.503.153.8.312 1.053.483.191.13.361.275.566.457.303.267.697.633 1.273.946.385.21.842.376 1.37.498.416 3.452 2.303 6.94 5.204 10.118 3.036 3.316 7.19 6.299 12.079 8.455 3.772 1.665 8.286 3.026 13.94 4.013-2.386.634-5.006 1.355-7.026 1.981-.805.254-1.646.71-2.615 1.318-.346.219-.715.469-1.087.725-.32.03-.626.05-.9.05-1.044-.001-1.748-.197-2.239-.446-.726-.376-1.066-.886-1.286-1.425a3.58 3.58 0 0 1-.24-1.236v-.001a1.294 1.294 0 0 0-.417-1.077 1.291 1.291 0 0 0-1.111-.32c-.066.012-2.425.444-5.584 1.778-3.156 1.336-7.128 3.574-10.366 7.254a1.3 1.3 0 0 0 1.358 2.101l.002-.001c.083-.027 1.29-.365 2.672-.362 1.141-.003 2.35.232 3.216.875.438.323.817.744 1.124 1.363.29.588.508 1.374.584 2.412a316.228 316.228 0 0 0-4.61 4.281 66.82 66.82 0 0 0-9.715-10.578 9.86 9.86 0 0 0-.227-.784c-.237-.697-.608-1.585-1.267-2.391-.409-.488-.909-.853-1.482-1.201-1.147-.681-2.614-1.262-4.09-1.67a6.527 6.527 0 0 0 .57-1.722c.111-.596.125-1.027.127-1.073a1.302 1.302 0 0 0-1.302-1.342l-2.762.007-.05-.093a1.296 1.296 0 0 0-.334-.392 4.118 4.118 0 0 0-.907-.513 5.649 5.649 0 0 0-2.214-.443c-.14 0-.29.015-.438.026a3.387 3.387 0 0 0-.352-.593 3.397 3.397 0 0 0-1.147-.968c-.368-.192-.814-.308-1.291-.379l-.045-2.259a6.45 6.45 0 0 0-.551-3.823c-.107-.225-.105-.304-.107-.321v-.001l.001-.005a1.03 1.03 0 0 1 .066-.276c.05-.137.169-.348.34-.694.127-.256.26-.602.377-.993.085-.149.143-.317.163-.498l.036-.335a7.88 7.88 0 0 0 .08-.713l.002-.044c.001-.024.004-.013.005-.119 0-.342-.138-.677-.38-.92a1.308 1.308 0 0 0-.92-.38 1.307 1.307 0 0 0-.693.2c-.32.217-.387.383-.45.48-.1.198-.102.256-.12.312-.022.096-.022.12-.026.146l-.006.063-.001.004c-.006.067-.035.324-.068.621a4.013 4.013 0 0 1-.038.205c-.115.488-.239.72-.423 1.079-.092.179-.204.391-.307.659-.1.261-.183.574-.22.915l-.002.011-.001.011h.001a2.533 2.533 0 0 0-.015.272c-.001.486.134.978.366 1.453a3.865 3.865 0 0 1 .344 2.159l-.018.112-.003.017h.001a1.334 1.334 0 0 0-.035.321l.044 2.213c-.068.027-.137.05-.2.088-.01.006-.965.588-1.992 1.281a26.47 26.47 0 0 0-1.502 1.08c-.229.18-.438.355-.629.536-.19.19-.362.353-.546.672-.102.19-.156.345-.208.508-.168.552-.27 1.219-.355 1.986-.082.759-.13 1.585-.13 2.339 0 .411.013.799.05 1.158.042.365.082.679.24 1.067.17.398.425.695.688.929.464.406.973.656 1.488.866.773.308 1.572.499 2.197.626.13.026.248.047.36.067.33.839.857 1.622 1.625 2.229a45.16 45.16 0 0 0 4.089 2.896c1.509.936 3.154 1.808 4.765 2.304.59 1.631 2.299 6.317 4.246 11.303 1.207 3.091 2.504 6.295 3.687 8.965a67.286 67.286 0 0 0 1.67 3.536c.52 1.003.972 1.785 1.44 2.369 1.245 1.535 2.37 2.541 3.453 3.179 1.078.639 2.133.879 3.038.874.386 0 .74-.04 1.056-.092h.005c.508-.088 1.22-.279 2.11-.53 1.87-.533 4.369-1.321 5.666-1.735a165.143 165.143 0 0 0-1.406 21.35c0 2.6.063 5.23.198 7.882a1.299 1.299 0 1 0 2.596-.132 153.234 153.234 0 0 1-.194-7.75c0-15.386 2.264-29.78 5.457-41.686a1.3 1.3 0 1 0-2.511-.673v-.001a162.26 162.26 0 0 0-3.752 18.222c-.108.006-.216.002-.323.037-.002 0-.43.139-1.1.352-1.005.32-2.55.806-3.98 1.234-.714.213-1.4.413-1.968.568-.562.154-1.03.266-1.218.297-.222.036-.43.057-.636.057-.489-.005-.996-.097-1.722-.516-.72-.422-1.639-1.202-2.75-2.574-.245-.298-.675-1.002-1.149-1.925-.84-1.625-1.878-3.965-2.948-6.537-1.606-3.86-3.293-8.256-4.576-11.681a543.632 543.632 0 0 1-1.563-4.227c-.38-1.042-.599-1.652-.6-1.653a1.3 1.3 0 0 0-.934-.829c-1.299-.288-3.085-1.191-4.68-2.194a42.864 42.864 0 0 1-3.842-2.721c-.487-.398-.742-.804-.937-1.426-.189-.617-.266-1.452-.264-2.488 0-.358.009-.741.022-1.144v-.008c.01-.106.082-.673.407-1.306.33-.636.874-1.34 1.939-1.877.607-.303 1.122-.438 1.561-.487-1.042.863-1.694 1.951-2.115 2.841-.44.945-.626 1.68-.64 1.735a1.3 1.3 0 1 0 2.522.632 8.358 8.358 0 0 1 .93-2.104c.303-.481.678-.921 1.084-1.216.412-.295.825-.46 1.365-.469l1.952-.004a2.57 2.57 0 0 1-.25.544c-.123.187-.23.271-.314.309a104.554 104.554 0 0 1-1.618.722l-.027.011.001.003a1.3 1.3 0 0 0-.801.938l-.483 2.26a1.3 1.3 0 1 0 2.543.543l.343-1.606.213-.095c.01.001.017.008.027.009 1.144.165 2.548.557 3.733 1.039.592.239 1.131.502 1.552.755.42.248.718.503.815.627.347.415.637 1.047.807 1.564.087.258.147.487.185.645l.04.179.008.04v.007h.001c.051.294.202.562.428.758 7.156 6.217 11.151 12.327 13.913 16.866a1.3 1.3 0 1 0 2.222-1.351 97.361 97.361 0 0 0-2.868-4.469l.575-.546c1.61-1.522 5.713-5.36 9.922-8.964 2.103-1.801 4.234-3.545 6.077-4.902.266-.196.51-.363.762-.542.224-.089.426-.216.567-.403.414-.282.805-.535 1.164-.753.719-.439 1.329-.732 1.679-.837 2.377-.736 5.692-1.632 8.4-2.34a519.06 519.06 0 0 1 3.426-.881c.866-.219 1.39-.348 1.391-.349a1.3 1.3 0 0 0 .95-1.573c-.15-.607-.707-.982-1.308-.962-.086-.028-.164-.072-.257-.082v-.001c-8.429-.951-14.505-2.58-19.236-4.668-4.574-2.015-8.45-4.813-11.21-7.83-2.766-3.016-4.38-6.244-4.594-9.026-.02-.254-.13-.47-.273-.66-.082-.567-.512-1.037-1.108-1.11-.594-.072-.94-.188-1.189-.307a2.49 2.49 0 0 1-.5-.325c-.252-.2-.56-.517-1.037-.868a6.2 6.2 0 0 0-1.935-.942 6.92 6.92 0 0 0-1.99-.267c-.54.001-1.066.057-1.578.131l.01-.014c.404-.516.753-.88 1.342-1.245.59-.361 1.456-.72 2.85-1.04 1.257-.287 2.26-.738 3.04-1.277 1.177-.806 1.825-1.807 2.145-2.603.324-.8.345-1.395.347-1.51a1.303 1.303 0 0 0-1.468-1.31c-1.507.197-2.8.307-3.879.306-1.216.002-2.15-.142-2.822-.402-.676-.265-1.11-.605-1.496-1.162-.797-1.173-1.604-2.021-2.39-2.628.148 0 .245.02.283.034h.003c.526.179 1.138.443 1.822.678.684.234 1.452.444 2.313.446a4.63 4.63 0 0 0 2.46-.697c.803-.493 1.526-1.24 2.196-2.264.73-1.108 1.563-1.69 2.374-2.038a5.584 5.584 0 0 1 2.692-.4l.128.017.022.003a1.302 1.302 0 0 0 1.53-1.467l-.002-.011c-.022-.154-.243-1.791-.243-4.317-.005-5.142.93-13.92 6.158-21.423 2.615-3.757 6.29-7.218 11.525-9.83 5.234-2.61 12.045-4.369 20.923-4.626a1.299 1.299 0 0 0 1.178-1.758h.001c-.019-.039-.322-.931-.316-1.81-.002-.457.077-.892.241-1.22.065-.125.143-.237.233-.343l2.452 2.179a1.297 1.297 0 0 0 2.043-.426s.028-.06.088-.17a8.325 8.325 0 0 1 1.748-2.197c.954-.831 2.187-1.51 3.855-1.513.105 0 .209.002.311.008h.008c.138.007.273.01.404.01 1.228.004 2.287-.311 3.106-.85a4.951 4.951 0 0 0 1.435-1.441c.091-.14.166-.283.242-.424.16.523.262 1.046.257 1.5 0 .402-.069.74-.204 1.027-.139.286-.338.542-.712.8-1.131.769-1.89 1.524-2.38 2.278-.492.75-.694 1.51-.69 2.147.004.983.425 1.58.528 1.716a1.3 1.3 0 0 0 .952.507l.089.006c.994.07 10.082.869 19.096 5.086 4.509 2.106 8.989 5.056 12.474 9.148 3.484 4.097 6.002 9.32 6.622 16.151.174 1.94.246 3.768.246 5.465 0 3.968-.393 7.214-.783 9.457a38.852 38.852 0 0 1-.534 2.577c-.072.292-.131.513-.171.658l-.046.16-.011.036-.002.006a1.297 1.297 0 0 0 .433 1.403c.42.334.997.375 1.461.106.009-.005.392-.222.927-.426.534-.207 1.223-.389 1.787-.385.341 0 .623.06.843.168.221.112.406.259.603.584.556.935 1.087 1.7 1.784 2.296.348.296.743.543 1.179.709.435.166.904.245 1.372.245 1.189-.011 2.335-.443 3.754-1.128.298-.144.533-.19.758-.19.366-.001.762.137 1.197.433.226.152.449.354.666.57-.104-.004-.204-.014-.31-.014-.617 0-1.275.068-1.939.266a5.061 5.061 0 0 0-1.918 1.051c-.348.314-.968.623-1.736.887-1.154.41-2.583.716-3.887 1.292-.652.293-1.293.663-1.83 1.231a3.676 3.676 0 0 0-.995 2.235c-.035.402.123.803.422 1.075.299.27.713.388 1.11.315a9.109 9.109 0 0 1 1.459-.114c.703-.003 1.53.092 2.142.342.307.123.558.277.749.457.19.182.331.385.435.683a5.195 5.195 0 0 0 1.471 2.219c.389.344.801.599 1.214.81-.096.014-.198.033-.279.03-.26-.002-.416-.052-.56-.147-.746-.495-1.556-.604-2.337-.61-1.524.01-3.127.47-4.421.905-1.285.439-2.228.871-2.254.883-.329.15-.577.427-.692.77-.034.103-1.27 3.637-4.944 7.519-3.68 3.881-9.768 8.139-19.707 9.77-.059.009-.104.043-.16.06a12.99 12.99 0 0 0-4.778-1.123h.004a14.606 14.606 0 0 0-.619-.012c-3.499-.002-6.16 1.184-7.914 2.371-1.759 1.19-2.64 2.373-2.702 2.456a1.3 1.3 0 0 0 2.089 1.546l.001.001.003-.004.001-.001.025-.033c.159-.2.963-1.151 2.38-2.032 1.421-.882 3.434-1.702 6.117-1.704.17 0 .34.003.51.01h.004c1.514.06 2.883.424 4.205 1.06 1.98.954 3.857 2.549 5.742 4.659 1.886 2.108 3.771 4.717 5.789 7.622.361.516.848 1.065 1.458 1.723 1.063 1.142 2.488 2.577 4.039 4.262 2.325 2.524 4.922 5.606 6.914 8.973 1.996 3.368 3.366 6.999 3.363 10.624 0 .84-.073 1.682-.228 2.528a1.48 1.48 0 0 1-.187.428c-.237.406-.722.987-1.383 1.619-1.157 1.115-2.841 2.415-4.694 3.706-2.781 1.939-5.952 3.876-8.42 5.321a184.039 184.039 0 0 1-3.917 2.228l-.31.169a1.3 1.3 0 0 0 1.238 2.287c.005-.004.561-.305 1.471-.816l1.409.616-2.692 1.649a1.302 1.302 0 0 0-.008 2.213l1.827 1.134c-1.009.108-2.089.191-3.028.19-.631.001-1.194-.039-1.576-.113a2.049 2.049 0 0 1-.402-.111l-.02-.01c-.173-.2-.464-.67-.749-1.306-.463-1.013-.954-2.429-1.398-3.978a58.944 58.944 0 0 1-1.156-4.835v-.004l-.007-.103c-.006-.221.091-.721.318-1.33.392-1.076 1.137-2.508 2.028-4.001 1.337-2.245 3.002-4.651 4.327-6.486a132.197 132.197 0 0 1 2.307-3.094 1.297 1.297 0 0 0-.183-1.789l-.366-.313c-.827-.71-2.949-2.542-5.231-4.611-2.279-2.064-4.73-4.381-6.159-5.987a1.3 1.3 0 0 0-1.941 1.73c.7.785 1.585 1.687 2.553 2.63-.025.088-.065.169-.072.264a31.557 31.557 0 0 0-.071 2.151c.004 5.226 1.169 10.367 1.994 15.237-.174.309-.351.62-.509.922-.452.861-.836 1.684-1.118 2.454-.279.775-.472 1.485-.477 2.223 0 .193.014.395.056.606.433 2.225 1.028 4.6 1.692 6.637a27.038 27.038 0 0 0 1.047 2.756c.372.805.736 1.47 1.22 2.014.282.308.595.486.898.616.306.128.62.204.941.264.57 3.021.961 5.768.979 8.081a1.3 1.3 0 1 0 2.6-.022c-.021-2.399-.389-5.058-.909-7.909 1.379-.039 2.833-.19 4.017-.346 1.358-.18 2.343-.36 2.357-.362a1.301 1.301 0 0 0 .453-2.384l-3.079-1.912 3.02-1.848a1.3 1.3 0 0 0-.157-2.3l-1.929-.843a159.967 159.967 0 0 0 5.301-3.237c2.425-1.552 4.879-3.237 6.819-4.839.971-.803 1.815-1.583 2.477-2.348.331-.384.618-.765.852-1.16.231-.397.417-.809.505-1.28.183-1.005.269-2.006.269-2.996-.001-3.263-.925-6.396-2.306-9.296-2.075-4.35-5.182-8.211-7.967-11.305l-.175-.191a7.75 7.75 0 0 1 1.606-.17c1.539.012 3.4.438 5.314 2.294a1.3 1.3 0 0 0 1.718.087c4.751-3.77 8.494-4.692 11.131-4.697 1.566 0 2.761.332 3.555.653.397.16.693.317.881.428.093.055.16.099.199.125l.035.024.003.003.001-.001c.48.36 1.148.347 1.61-.036a1.302 1.302 0 0 0 .333-1.585c-3.668-7.314-8.969-11.372-13.88-13.53Zm-133.286-2.147c-.027 1.018-.075 2.025-.134 2.477-.017.132.006.258.028.382-.07.36-.084.598-.087.652v.014c-.014.427-.024.842-.024 1.247 0 .321.01.635.023.945a12.54 12.54 0 0 1-.406-.111c-.43-.126-.845-.287-1.116-.44a1.53 1.53 0 0 1-.278-.191l-.013-.012a3.017 3.017 0 0 1-.057-.427 10.148 10.148 0 0 1-.025-.761c0-.73.058-1.612.148-2.342.045-.364.098-.693.15-.933.026-.12.052-.218.07-.278l.002-.004c.035-.037.09-.094.18-.171.342-.304.952-.746 1.563-1.162-.006.365-.014.74-.024 1.115Zm43.426 7.882a193.958 193.958 0 0 0-6.166 5.293 7.866 7.866 0 0 0-.544-1.497 6.236 6.236 0 0 0-3.103-2.994c-1.005-.446-2.029-.619-2.974-.67 2.261-1.844 4.684-3.148 6.751-4.02a30.287 30.287 0 0 1 3.637-1.275l.06-.016c.133.518.353 1.106.738 1.702.437.672 1.1 1.33 2.012 1.792.347.177.738.315 1.15.43-.511.404-1.033.823-1.561 1.255Zm61.085 23.348a211.6 211.6 0 0 0 2.318 2.108 279.256 279.256 0 0 0 3.747 3.295 127.864 127.864 0 0 0-3.929 5.505c-.234.349-.467.705-.699 1.061-.722-3.995-1.443-7.994-1.44-11.879l.003-.09Zm36.038-17.764c-3.086-.005-7.152 1.067-11.882 4.595-2.164-1.75-4.46-2.29-6.281-2.279a10.497 10.497 0 0 0-3.542.624c-.014.005-.024.018-.038.023-.581-.611-1.131-1.181-1.621-1.693a69.619 69.619 0 0 1-1.375-1.465 11.219 11.219 0 0 1-.82-.992 175.633 175.633 0 0 0-2.091-2.953c1.388-.264 2.588-.688 3.585-1.237a9.697 9.697 0 0 0 4.112-4.335 9.778 9.778 0 0 0 .569-1.486c.125-.003.252-.005.399-.005 2.05-.002 6.22.296 10.673 2.263 3.707 1.642 7.614 4.411 10.782 9.181a12.81 12.81 0 0 0-2.47-.241Z"/><path fill="#BEBEC9" d="M118.492 58.838a11.85 11.85 0 0 0-.863 4.46c.001 2.32.65 4.484 1.593 6.365a17.655 17.655 0 0 0 3.491 4.746c1.303 1.25 2.873 2.128 4.54 2.693 1.669.564 3.442.823 5.212.823 2.09 0 4.181-.36 6.109-1.05 1.926-.694 3.699-1.719 5.109-3.118a2 2 0 1 0-2.819-2.836h-.001c-.896.894-2.168 1.662-3.64 2.189-1.47.528-3.131.816-4.758.815-1.379 0-2.731-.205-3.928-.612-1.2-.407-2.239-1.008-3.054-1.79a13.696 13.696 0 0 1-2.686-3.655c-.723-1.436-1.17-3.01-1.168-4.57a7.859 7.859 0 0 1 .572-2.964c.402-.994 1.037-2.008 2.011-3.032.987-1.035 2.04-1.722 3.123-2.165a8.714 8.714 0 0 1 3.3-.637 9.457 9.457 0 0 1 4.036.908c1.152.545 2.006 1.303 2.38 1.908.803 1.258 1.358 2.84 1.352 4.342a5.77 5.77 0 0 1-.67 2.74 5.692 5.692 0 0 1-2.118 2.242 5.297 5.297 0 0 1-2.689.762 4.275 4.275 0 0 1-1.703-.341 3.786 3.786 0 0 1-1.381-1.02c-.973-1.143-1.228-2.073-1.234-2.806 0-.527.143-.981.364-1.355a2.18 2.18 0 0 1 .792-.797c.441-.239.745-.291.974-.293.313.002.555.106.784.287.224.17.374.447.382.505l.012.108c.002.1-.03.261-.07.376l-.047.124-.006.013h.003a1.999 1.999 0 0 0 3.543 1.851c.039-.076.171-.33.305-.731.131-.4.27-.95.272-1.633 0-.37-.044-.782-.168-1.214v-.003c-.29-.97-.866-1.81-1.703-2.5a5.227 5.227 0 0 0-3.307-1.183c-.949-.002-1.947.262-2.896.786a6.15 6.15 0 0 0-2.309 2.261 6.647 6.647 0 0 0-.925 3.398c-.006 1.777.709 3.69 2.2 5.414a7.811 7.811 0 0 0 2.825 2.082 8.268 8.268 0 0 0 3.293.67 9.281 9.281 0 0 0 4.737-1.326 9.702 9.702 0 0 0 3.605-3.804 9.786 9.786 0 0 0 1.135-4.613c-.006-2.449-.839-4.688-1.975-6.486-.927-1.442-2.343-2.556-4.027-3.37a13.44 13.44 0 0 0-5.766-1.301c-1.572-.001-3.213.28-4.811.933-1.597.65-3.144 1.674-4.509 3.11-1.291 1.354-2.224 2.807-2.823 4.294ZM88.802 71.593c2.162-.913 4.113-2.242 5.545-4.01a2 2 0 0 0-3.113-2.512c-.907 1.13-2.318 2.137-3.984 2.835A14.111 14.111 0 0 1 81.86 69c-2.241.002-4.315-.589-5.796-1.735a13.507 13.507 0 0 1-3.289-3.717c-.898-1.512-1.461-3.2-1.46-4.918.008-1.698.513-3.47 1.971-5.394 1.002-1.31 2.138-2.17 3.338-2.726a8.843 8.843 0 0 1 3.715-.8 9.26 9.26 0 0 1 3.503.68c1.008.413 1.78.994 2.171 1.491a9.034 9.034 0 0 1 1.337 2.283c.33.83.518 1.7.518 2.562a5.716 5.716 0 0 1-.404 2.121 5.686 5.686 0 0 1-2.09 2.623c-.888.605-1.912.916-2.864.915-1.024-.006-1.941-.33-2.71-1.044-.625-.584-1.007-1.135-1.237-1.628a3.14 3.14 0 0 1-.313-1.332c0-.45.11-.856.287-1.197.175-.34.42-.608.644-.763.498-.342.82-.4 1.072-.405.265 0 .507.088.726.242.214.144.367.371.383.425a.563.563 0 0 1 .028.2c0 .11-.02.245-.043.335l-.026.09-.002.006.004.001a1.998 1.998 0 0 0 3.724 1.45c.049-.14.334-.828.343-1.882 0-.498-.072-1.093-.327-1.718l-.002-.004c-.364-.864-.962-1.586-1.767-2.166a5.251 5.251 0 0 0-3.041-.979c-1.114-.005-2.3.375-3.366 1.128a6.114 6.114 0 0 0-1.902 2.2 6.593 6.593 0 0 0-.735 3.037c-.001.983.219 2.02.687 3.022.468 1.004 1.178 1.971 2.131 2.861 1.54 1.445 3.518 2.127 5.442 2.12 1.805 0 3.583-.569 5.111-1.605a9.69 9.69 0 0 0 3.561-4.458 9.723 9.723 0 0 0 .686-3.595c0-1.44-.31-2.805-.8-4.04a13.023 13.023 0 0 0-1.933-3.305c-.95-1.178-2.257-2.058-3.761-2.686a13.24 13.24 0 0 0-5.035-.984c-1.763 0-3.617.348-5.392 1.167-1.774.818-3.458 2.115-4.841 3.932-1.946 2.536-2.799 5.266-2.79 7.82 0 2.595.836 4.967 2.02 6.96a17.47 17.47 0 0 0 4.289 4.846c2.375 1.819 5.321 2.562 8.235 2.564a18.09 18.09 0 0 0 6.94-1.406ZM134.15 43.272c2.048.681 4.202 1.83 6.263 3.746a1.3 1.3 0 1 0 1.771-1.903c-2.345-2.184-4.85-3.526-7.214-4.31a20.33 20.33 0 0 0-6.403-1.02c-2.746 0-4.579.532-4.663.555a1.3 1.3 0 0 0 .727 2.496h.003c.035-.01 1.612-.452 3.933-.451 1.595 0 3.537.207 5.583.887ZM89.681 42.678a1.3 1.3 0 0 0 1.184-2.314c-3.186-1.631-6.274-2.195-8.974-2.194-5.8.01-9.799 2.532-9.916 2.598a1.3 1.3 0 1 0 1.385 2.201c.113-.077 3.67-2.208 8.53-2.199 2.345.002 4.994.48 7.791 1.908ZM91.649 81.856c.76 0 1.533-.164 2.37-.455.81-.283 1.5-.41 2.073-.41.449.001.827.074 1.178.214.351.142.684.355 1.025.681.544.519 1.207.87 1.922 1.106a7.382 7.382 0 0 0 2.289.352c.876 0 1.779-.142 2.65-.454 1.035-.376 1.726-.525 2.179-.521.3.002.513.047.779.158.264.113.583.31.986.631.976.788 2.122 1.188 3.244 1.18 1.182-.004 2.291-.39 3.369-.939.324-.17.862-.292 1.469-.29.954-.006 2.06.295 2.757.74a1.3 1.3 0 0 0 1.379-2.205c-1.22-.753-2.697-1.127-4.136-1.134-.918.003-1.828.156-2.653.574-.868.445-1.6.656-2.185.653-.559-.008-1.027-.149-1.625-.613-.511-.406-1.018-.745-1.582-.987a4.502 4.502 0 0 0-1.802-.368c-.965.004-1.911.263-3.059.674a5.294 5.294 0 0 1-1.77.3 4.807 4.807 0 0 1-1.479-.221c-.425-.138-.75-.335-.933-.513a5.808 5.808 0 0 0-1.854-1.216 5.713 5.713 0 0 0-2.148-.402c-.95.001-1.92.204-2.928.554-.655.229-1.135.311-1.515.311-.405-.003-.727-.08-1.153-.276-.422-.197-.931-.53-1.566-1a1.3 1.3 0 1 0-1.546 2.09c.687.507 1.318.939 2.009 1.264.686.325 1.45.525 2.256.522ZM77.164 86.733l1.856 1.62a1 1 0 0 0 1.316-1.506l-2.744-2.394 1.928-2.064a1 1 0 0 0-1.462-1.365l-1.975 2.114-2.015-1.755 3.556-3.718a1 1 0 0 0-1.445-1.383l-3.622 3.787-1.944-1.689 1.564-1.674a1 1 0 0 0-1.462-1.365L69.1 77.07l-.525-.454a332.038 332.038 0 0 0-1.675-1.439 59.85 59.85 0 0 0-.518-.436l-.168-.139-.153-.115a.997.997 0 0 0-1.129 1.645l-.003.004v.001c.025.018.13.103.268.22.463.387 1.39 1.185 2.536 2.175l-2.48 2.654a310.013 310.013 0 0 0-2.26-1.943c-.21-.18-.384-.327-.516-.436l-.17-.139-.154-.115a.997.997 0 0 0-1.125 1.647l-.003.004c.025.018.129.102.267.219.471.394 1.423 1.211 2.596 2.225l-2.05 2.194a1 1 0 0 0 1.462 1.365l2.1-2.248c.604.522 1.237 1.072 1.877 1.629l-2.898 3.03A1 1 0 0 0 65.824 90l2.964-3.099.225.196 1.858 1.618-1.69 1.81a1 1 0 0 0 1.462 1.365l1.737-1.86.88.767 1.855 1.62a1 1 0 0 0 1.316-1.506l-2.685-2.343 2.48-2.654.938.818Zm-8.503-2.591-1.894-1.645 2.48-2.654 1.926 1.673-2.512 2.626Zm3.576 3.112-2.065-1.799 2.512-2.626.233.204 1.8 1.567-2.48 2.654ZM146.741 85.213a1 1 0 0 0-1.386-.279h-.001l-.153.115c-.179.144-.512.425-.986.83-.519.444-1.2 1.03-1.978 1.704l-2.753-2.947a660.75 660.75 0 0 1 1.422-1.227c.42-.36.767-.657 1.018-.868.125-.106.227-.19.298-.248l.081-.066.014-.01-.003-.005a.998.998 0 0 0-1.126-1.645h-.001l-.154.115c-.179.143-.512.424-.986.83-.508.434-1.172 1.006-1.93 1.661l-1.356-1.451a1 1 0 1 0-1.462 1.365l1.305 1.397c-.626.542-1.283 1.113-1.947 1.69l-3.359-3.512a1 1 0 0 0-1.445 1.383l3.293 3.443-2.012 1.752-1.716-1.837a1 1 0 1 0-1.461 1.366l1.669 1.786a2712.376 2712.376 0 0 0-2.715 2.37 1 1 0 1 0 1.316 1.506 1366.06 1366.06 0 0 1 2.765-2.413l2.753 2.947a2245.891 2245.891 0 0 0-2.667 2.328 1 1 0 1 0 1.316 1.506l2.146-1.873.572-.499 1.722 1.844a1 1 0 1 0 1.461-1.366l-1.675-1.793 2.084-1.814 2.949 3.083a.999.999 0 1 0 1.445-1.383l-2.884-3.014 1.655-1.437.221-.191 2.086 2.233a1 1 0 0 0 1.462-1.365l-2.035-2.179c.549-.474 1.047-.904 1.471-1.268a175.417 175.417 0 0 1 1.316-1.118l.081-.065.015-.011-.003-.004a.997.997 0 0 0 .258-1.366Zm-11.487 8.437-2.753-2.948 2.029-1.767 2.79 2.916-2.066 1.799Zm3.576-3.113-2.789-2.916 1.66-1.442.269-.233 2.754 2.947-1.894 1.644Z"/></svg>