<svg xmlns="http://www.w3.org/2000/svg" width="320" height="200" fill="none"><path fill="#FFE069" d="M240.792 98.586c-7.03-2.05-56.23-1.611-63.551-.879-7.322.733-12.594 2.343-16.547 11.276 0 0-3.808.292-3.808.439-5.418-1.465-9.664 1.903-13.032 14.203-3.368 12.301-1.757 36.462 3.808 45.395 0 0 29.286.585 38.803 5.271 9.519 4.686 10.25 7.175 9.958 12.153h38.951c6.882 0 11.86-3.661 15.521-11.275 3.661-7.614 7.321-20.207 6.444-35.875-.879-15.669-4.341-37.148-16.547-40.708Z"/><path fill="#191C22" d="M184.947 137.955a2.874 2.874 0 0 0-.233-.475 1.596 1.596 0 0 0-.263-.325 1.36 1.36 0 0 0-.939-.379c-.231-.004-.5.071-.699.197a1.328 1.328 0 0 0-.388.367l-.003-.002c-.006.009-.007.014-.013.022l-.013.016.003.001a2.11 2.11 0 0 0-.187.348 4.39 4.39 0 0 0-.161.493c-.125.465-.209.941-.213.96l-.014.105a25.869 25.869 0 0 0-.123 2.441c.001.803.043 1.494.146 2.076.057.295.117.559.263.867.078.155.176.331.382.525.194.191.571.401.994.396.309.001.593-.106.783-.227l.015-.01c.321-.205.57-.476.751-.755.273-.423.413-.863.501-1.3.087-.438.117-.88.118-1.322-.002-1.042-.172-2.088-.374-2.927a8.617 8.617 0 0 0-.333-1.092ZM209.363 137.269a3.382 3.382 0 0 0-.268-.494c-.062-.088-.128-.183-.265-.31a1.354 1.354 0 0 0-.931-.369 1.326 1.326 0 0 0-1.141.647l-.003-.002-.009.019-.009.012.002.001c-.09.158-.129.267-.164.367-.059.182-.093.34-.126.501-.092.472-.142.952-.145.971l-.006.076c-.019.389-.028.77-.028 1.138.001 1.135.083 2.138.236 2.933.081.402.168.745.326 1.093.083.175.179.358.375.568.099.103.229.215.412.311.18.095.421.167.673.165.355.003.676-.14.873-.288l.009-.007c.519-.387.8-.919.952-1.41.153-.499.198-.995.2-1.491-.004-1.131-.25-2.285-.525-3.221a9.523 9.523 0 0 0-.438-1.21ZM200.727 149.616c-.616-.347-1.411-.976-2.014-1.505a25.028 25.028 0 0 1-.958-.883l-.054-.053-.016-.015a1.295 1.295 0 0 0-1.205-.349 1.294 1.294 0 0 0-.937.828l-.002.004c-.022.081-1.003 2.597-3.394 4.313a1.3 1.3 0 1 0 1.525 2.106c1.59-1.153 2.654-2.518 3.33-3.598.056-.09.106-.176.157-.262.654.561 1.451 1.198 2.283 1.674a1.3 1.3 0 1 0 1.285-2.26Z"/><path fill="#191C22" d="M229.68 154.598a296.625 296.625 0 0 0-1.276-5.355 62.606 62.606 0 0 1 2.532-.053c5.042-.006 10.825.651 15.29 2.832a1.301 1.301 0 0 0 1.137-2.338c-5.065-2.454-11.168-3.088-16.427-3.094-1.104 0-2.166.031-3.179.08a751.598 751.598 0 0 0-1.39-5.364c5.749-1.734 10.746-2.138 14.103-2.138 1.422 0 2.549.071 3.313.141a22.847 22.847 0 0 1 1.079.125l.049.008.009.001a1.3 1.3 0 0 0 .433-2.563c-.06-.011-1.866-.312-4.883-.312-3.541 0-8.761.423-14.763 2.222-1.152-4.389-2.228-8.544-3.06-12.378 1.504-6.634 2.756-11.358 3.633-14.417.445-1.553.793-2.679 1.029-3.414.118-.367.208-.636.268-.812l.066-.194.02-.057a1.304 1.304 0 0 0-.273-1.326 1.302 1.302 0 0 0-1.305-.363c-4.688 1.332-9.735 3.876-13.979 6.468-2.12 1.297-4.036 2.606-5.598 3.792-1.565 1.191-2.763 2.231-3.519 3.104-.068.078-.1.171-.146.259a118.346 118.346 0 0 0-4.098-.071c-7.259 0-15.068.53-18.31.776.272-2.879.602-6.262.88-9.089l.416-4.211.169-1.699a1.3 1.3 0 0 0-2.011-1.213c-.023.015-3.089 2.047-7.034 5.202-3.947 3.159-8.771 7.428-12.334 11.992a1.3 1.3 0 1 0 2.05 1.599c3.344-4.292 8.051-8.478 11.908-11.561a115.639 115.639 0 0 1 4.554-3.46c-.346 3.493-.937 9.504-1.331 13.738a1.298 1.298 0 0 0 1.406 1.415c.002 0 .64-.055 1.753-.138 3.34-.251 10.914-.752 17.884-.751 3.273-.001 6.417.111 8.887.403a1.3 1.3 0 1 0 .305-2.582 47.834 47.834 0 0 0-1.69-.16 33.9 33.9 0 0 1 1.833-1.482c3.912-2.977 10.413-6.915 16.344-9.062-.873 2.866-2.418 8.346-4.377 17.023a1.286 1.286 0 0 0-.003.559c.866 4.024 1.991 8.36 3.185 12.912a54.17 54.17 0 0 0-4.996 2.054 1.3 1.3 0 1 0 1.107 2.353v-.001a51.368 51.368 0 0 1 4.551-1.878c.407 1.553.813 3.127 1.221 4.723-3.668.311-6.141.797-6.176.803a1.3 1.3 0 0 0 .502 2.552v-.001l.051-.009c.378-.073 2.832-.519 6.275-.79.379 1.522.752 3.061 1.113 4.612-2.986-.528-5.231-.6-6.197-.602-.329 0-.513.008-.533.009a1.3 1.3 0 0 0 .124 2.597h.016c.045-.002.179-.006.393-.006.955-.002 3.47.079 6.811.764a179.442 179.442 0 0 1 1.534 7.612c.605 3.441.939 6.337.938 8.67.002 1.923-.228 3.456-.664 4.596-.441 1.144-1.041 1.896-1.909 2.455a1.301 1.301 0 0 0 1.396 2.194c1.368-.863 2.356-2.162 2.944-3.726.593-1.567.832-3.397.833-5.519-.001-2.576-.359-5.595-.978-9.12a179.39 179.39 0 0 0-1.273-6.475c3.844 1.076 8.354 2.935 12.737 6.167a1.3 1.3 0 1 0 1.541-2.094c-5.216-3.833-10.557-5.862-14.91-6.934ZM169.391 142.101c-1.633-2.454-3.682-3.796-5.421-4.483-1.743-.692-3.176-.76-3.713-.761-.127 0-.207.005-.234.006a1.3 1.3 0 0 0 .161 2.594v.001l.073-.001c.305-.001 1.419.045 2.752.577 1.336.536 2.892 1.527 4.219 3.509a1.3 1.3 0 1 0 2.163-1.442ZM168.601 147.69c-.073-.019-2.202-.753-4.665-.76-1.364.005-2.877.22-4.195 1.095a1.302 1.302 0 0 0 1.45 2.159c.654-.45 1.67-.659 2.745-.654.963-.001 1.945.155 2.67.315a14.938 14.938 0 0 1 1.098.288l.055.017.01.004a1.301 1.301 0 0 0 .832-2.464ZM167.398 153.503c-.088.036-1.569.61-3.187 1.998-1.611 1.378-3.382 3.642-3.781 6.92a1.299 1.299 0 1 0 2.58.317 7.863 7.863 0 0 1 1.081-3.146c.784-1.299 1.861-2.233 2.746-2.831.442-.3.833-.515 1.105-.651.136-.068.243-.117.311-.147l.073-.031.013-.005-.001-.001a1.299 1.299 0 0 0-.94-2.423ZM235.162 115.528a1.3 1.3 0 0 0 1.608-.89c1.205-4.216 2.869-7.486 4.664-9.29a1.301 1.301 0 0 0-1.851-1.826c-2.28 2.326-4.02 5.931-5.311 10.397a1.3 1.3 0 0 0 .89 1.609ZM153.101 114.146a1.3 1.3 0 0 0-1.69.725c-1.262 3.159-2.274 7.206-2.982 11.872-.706 4.666-1.103 9.948-1.103 15.546.001 7.067.633 13.627 1.722 19.084a1.3 1.3 0 0 0 2.549-.509c-1.049-5.255-1.671-11.665-1.671-18.575 0-5.475.389-10.635 1.074-15.156.683-4.52 1.667-8.404 2.825-11.297a1.3 1.3 0 0 0-.724-1.69Z"/><path fill="#191C22" d="M257.446 169.004a1.3 1.3 0 0 0-.41 2.568c1.936.309 3.621 1.233 4.809 2.512 1.188 1.283 1.88 2.898 1.881 4.66 0 .354-.028.714-.086 1.081-.075.464-.192.776-.341 1.003a1.56 1.56 0 0 1-.465.457c-.228.153-.57.305-1.042.434.017-.285.031-.618.031-.993-.003-1.161-.115-2.682-.667-4.161a1.3 1.3 0 0 0-2.434.916c.386 1.012.504 2.272.501 3.245 0 .472-.025.877-.049 1.158-.007.079-.013.122-.019.18a27.54 27.54 0 0 1-1.406.034h-1.256c.03-.342.058-.815.058-1.372-.003-1.161-.115-2.682-.667-4.161a1.299 1.299 0 1 0-2.433.916c.385 1.012.504 2.272.5 3.245 0 .472-.024.877-.049 1.158-.008.094-.015.15-.022.214h-6.054c3.101-3.482 5.677-8.683 7.538-15.235 1.937-6.841 3.079-15.14 3.079-24.417-.001-9.094-1.015-17.602-2.84-24.693-1.836-7.09-4.441-12.771-7.848-16.247-2.314-2.351-4.843-3.723-7.399-4.469-2.557-.748-5.127-.893-7.618-.894h-53.613c-2.491.001-5.061.146-7.619.894-2.556.746-5.085 2.118-7.398 4.469-1.609 1.64-3.034 3.779-4.287 6.318-.034.004-.066-.007-.1 0-.513.106-1.253.282-2.017.542-.082.028-.163.06-.245.09a1.256 1.256 0 0 0-.338-.233 6.215 6.215 0 0 0-2.474-.522c-1.092-.002-2.154.303-3.12.837-.791.439-1.524 1.025-2.212 1.73-5.475-3.893-12.608-7.894-20.66-10.962-8.256-3.143-17.465-5.305-26.793-5.306-12.005-.009-24.242 3.622-34.612 13.348l-.012.011-.03.026-.001.003c-4.451 3.85-7.993 9.117-10.43 15.269-2.443 6.173-3.776 13.241-3.777 20.698 0 7.89 1.495 16.218 4.767 24.372 3.56 8.888 9.39 14.906 16.02 18.641 6.631 3.741 14.038 5.231 20.867 5.232 1.848 0 3.654-.11 5.393-.314 5.15-.605 9.407-2.006 12.897-3.877.154.064.323.101.501.101h20.54c.086 0 .162-.033.244-.05.289.196.588.383.909.551 1.555.812 3.469 1.316 5.94 1.634 2.473.315 5.517.441 9.366.442h38.657c2.719-.01 4.584-.235 6.029-.945.717-.356 1.319-.871 1.724-1.503.054-.083.095-.17.142-.256h39.257l.415.001c.955 0 2.578-.044 4.486-.68 1.199-.397 2.511-1.029 3.854-2.006h12.741c2.719-.009 4.572-.237 6.011-.949.713-.357 1.31-.873 1.714-1.497.408-.623.621-1.314.733-2.016.08-.503.119-1.001.119-1.492.002-2.459-.982-4.717-2.577-6.43-1.595-1.716-3.803-2.909-6.303-3.31Zm-17.112 15.233c-1.535.508-2.804.546-3.667.547l-.414-.001H197.62c.008-.166.034-.335.034-.499a8.76 8.76 0 0 0-1.484-4.892c-1.668-2.516-4.476-4.367-7.944-5.838-5.211-2.195-12.007-3.528-19.163-4.34-3.196-.361-6.458-.61-9.677-.781a1.276 1.276 0 0 0-.039-.458c-2.068-7.085-3.329-15.922-3.328-25.529 0-4.983.313-9.782.898-14.242a1.3 1.3 0 0 0-2.578-.338c-.601 4.58-.92 9.489-.92 14.58.001 9.665 1.245 18.568 3.327 25.865a213.359 213.359 0 0 0-3.406-.111c-.009-.031-.004-.063-.016-.095a12.1 12.1 0 0 1-.448-1.374 1.3 1.3 0 1 0-2.522.631c.065.263.144.526.229.788a231.662 231.662 0 0 0-6.113.008 1.3 1.3 0 1 0 .038 2.6c1.082-.016 2.2-.025 3.348-.025 9.869-.002 21.936.635 31.409 2.772 4.733 1.062 8.812 2.513 11.589 4.345 1.39.914 2.448 1.913 3.145 2.972.695 1.063 1.051 2.175 1.055 3.462 0 .309-.022.628-.066.961-.063.457-.173.76-.316.98-.11.167-.241.305-.459.45a3.075 3.075 0 0 1-.691.326 16.077 16.077 0 0 0-.156-1.517c-.166-1.076-.47-2.372-1.106-3.595a1.3 1.3 0 1 0-2.304 1.205c.44.836.705 1.885.839 2.781.099.646.133 1.203.144 1.557-.546.036-1.154.055-1.838.055h-1.052a15.693 15.693 0 0 0-.175-2.003c-.166-1.076-.47-2.372-1.106-3.595a1.3 1.3 0 1 0-2.304 1.205c.44.836.705 1.885.839 2.781.103.676.136 1.262.146 1.612h-35.005c-6.738.009-10.835-.426-13.26-1.397-1.217-.484-2.019-1.063-2.673-1.815-.651-.754-1.161-1.723-1.628-3.005a1.301 1.301 0 0 0-2.443.89c.366 1.002.792 1.918 1.325 2.75h-14.953c4.18-3.175 6.88-7.021 8.559-10.498a30.162 30.162 0 0 0 2.057-5.59c.412-1.607.588-2.867.631-3.662.006-.126.009-.251.009-.375-.001-2.137-.948-4.034-2.295-5.46-1.353-1.429-3.117-2.435-4.971-2.825a8.228 8.228 0 0 0-1.691-.176c-1.881-.003-3.759.658-5.441 1.924-1.686 1.267-3.194 3.124-4.464 5.565-1.366 2.628-3.051 4.837-5.373 6.402-2.325 1.561-5.328 2.531-9.522 2.536-2.02-.001-3.684-.386-5.08-1.01-2.087-.936-3.6-2.426-4.691-4.109-1.089-1.679-1.733-3.548-2.033-5.113a1.3 1.3 0 1 0-2.553.492c.478 2.466 1.629 5.494 3.908 7.984a13.083 13.083 0 0 0 4.307 3.12c1.74.78 3.79 1.237 6.142 1.236 4.593.004 8.186-1.096 10.974-2.98 2.792-1.88 4.739-4.49 6.229-7.36 1.128-2.172 2.416-3.709 3.717-4.683 1.304-.975 2.603-1.401 3.88-1.404.386 0 .773.04 1.16.121 1.28.262 2.632 1.02 3.611 2.064.986 1.048 1.588 2.33 1.586 3.676l-.006.24c-.036.747-.293 2.517-1.003 4.7-1.064 3.287-3.139 7.554-6.973 11.22-3.839 3.665-9.43 6.775-17.743 7.759a43.818 43.818 0 0 1-5.088.296c-6.456.001-13.431-1.418-19.59-4.896-6.16-3.483-11.528-8.993-14.885-17.345-3.147-7.84-4.58-15.842-4.58-23.404 0-7.146 1.282-13.899 3.595-19.741 2.313-5.843 5.656-10.769 9.752-14.296.007-.006.01-.016.017-.022.007-.007.017-.008.024-.015 9.869-9.257 21.358-12.672 32.874-12.681 8.924-.001 17.842 2.079 25.867 5.136 7.763 2.955 14.672 6.824 19.945 10.558-.187.273-.372.554-.552.848-.953 1.561-1.81 3.404-2.562 5.483a7.105 7.105 0 0 0-1.609-1.563 6.886 6.886 0 0 0-3.169-1.174 1.3 1.3 0 0 0-.299 2.583c.844.1 1.47.372 1.985.727.767.53 1.282 1.289 1.594 1.934a5.928 5.928 0 0 1 .386 1.024 59.215 59.215 0 0 0-.757 3.077c-.796-.557-1.926-1.102-3.459-1.322a1.3 1.3 0 0 0-.371 2.574c1.273.186 2.059.636 2.543 1.013.24.189.402.361.496.475l.092.119.011.015.003-.003c.03.049.076.08.111.124-.732 4.296-1.143 9.048-1.143 14.061.002 8.753 1.232 16.73 3.29 22.822a1.3 1.3 0 0 0 2.463-.833c-1.943-5.738-3.155-13.484-3.153-21.989-.003-9.059 1.374-17.261 3.543-23.085 1.079-2.911 2.362-5.222 3.691-6.729.662-.755 1.331-1.307 1.973-1.659.644-.353 1.25-.514 1.866-.515.129 0 .258.026.386.041a1.29 1.29 0 0 0 .287.989 1.3 1.3 0 0 0 1.831.163c.191-.172.746-.448 1.339-.648a55.805 55.805 0 0 0-1.736 5.088 1.3 1.3 0 0 0 2.499.72c1.717-5.994 4.078-10.671 6.706-13.322 2.016-2.039 4.091-3.154 6.279-3.8 2.185-.641 4.497-.79 6.887-.789h53.613c2.39 0 4.701.148 6.886.79 2.187.645 4.263 1.76 6.279 3.799 2.881 2.903 5.433 8.239 7.182 15.069 1.76 6.83 2.759 15.146 2.758 24.045.001 9.063-1.12 17.14-2.981 23.708-1.855 6.569-4.473 11.623-7.328 14.624-1.875 1.973-3.668 2.947-5.2 3.459Z"/></svg>