<svg width="200" height="200" viewBox="0 0 200 200" xmlns="http://www.w3.org/2000/svg"><g id="type=sim, mode=light"><g id="Frame" clip-path="url(#clip0_2153_5072)"><path id="Vector" d="M95.2596 16.941C94.5489 16.8394 93.8902 17.3332 93.7886 18.044C93.6871 18.7546 94.181 19.4132 94.8917 19.5148L110.611 21.7619C111.322 21.8635 111.981 21.3696 112.082 20.6589C112.184 19.9482 111.69 19.2896 110.979 19.1881L95.2596 16.941Z"/><path id="Vector_2" d="M64.0507 14.9769L39.8866 13.3285C39.1703 13.2796 38.5499 13.8207 38.5011 14.537C38.4523 15.2533 38.9933 15.8736 39.7096 15.9224L63.8737 17.5709C64.59 17.6198 65.2103 17.0787 65.2592 16.3624C65.308 15.6461 64.767 15.0258 64.0507 14.9769Z"/><path id="Vector_3" d="M114.189 9.47069C114.052 8.76598 113.37 8.3059 112.665 8.44316L94.6475 11.952C93.9427 12.0892 93.4827 12.7718 93.6199 13.4765C93.7571 14.1812 94.4397 14.6413 95.1443 14.504L113.162 10.9952C113.867 10.858 114.327 10.1754 114.189 9.47069Z"/><path id="Vector_4" d="M65.137 20.5849C64.9778 19.8849 64.281 19.4465 63.5808 19.606L29.0115 27.4761C28.3115 27.6354 27.8733 28.3322 28.0327 29.0322C28.1919 29.7322 28.8887 30.1706 29.5889 30.0112L64.1582 22.1411C64.8582 21.9817 65.2964 21.285 65.137 20.5849Z"/><path id="Vector_5" d="M100.762 4.23261L94.1718 7.23945C93.5187 7.53748 93.2307 8.3086 93.5288 8.9618C93.8268 9.615 94.5978 9.9029 95.2512 9.60487L101.841 6.59803C102.494 6.3 102.782 5.52888 102.484 4.87568C102.186 4.22248 101.415 3.93457 100.762 4.23261Z"/><path id="Vector_6" d="M64.8211 25.1754C64.4976 24.5344 63.7156 24.2772 63.0748 24.6007L34.1802 39.1867C33.5394 39.5102 33.2821 40.2921 33.6055 40.933C33.929 41.5739 34.711 41.8312 35.3519 41.5076L64.2464 26.9217C64.8873 26.5981 65.1446 25.8163 64.8211 25.1754Z"/><path id="Vector_7" d="M66.0191 7.07446C66.3934 6.46173 66.2 5.66162 65.5873 5.28741L58.8792 1.19073C58.2665 0.816518 57.4664 1.00988 57.0921 1.62261C56.7179 2.23534 56.9112 3.03545 57.524 3.40966L64.232 7.50634C64.8448 7.88056 65.6449 7.6872 66.0191 7.07446Z"/><path id="Vector_8" d="M93.2097 29.3354L97.2439 32.0209C97.8416 32.4188 98.6484 32.2568 99.0464 31.6592C99.4443 31.0615 99.2822 30.2545 98.6846 29.8567L94.6504 27.1711C94.0527 26.7732 93.2458 26.9352 92.8479 27.5329C92.4499 28.1306 92.6121 28.9376 93.2097 29.3354Z"/><path id="Vector_9" d="M64.3752 10.251L38.5647 1.94926C37.8811 1.72941 37.1489 2.10533 36.9289 2.7888C36.7092 3.47227 37.0852 4.20457 37.7685 4.42442L63.5791 12.7262C64.2627 12.946 64.9949 12.5701 65.2148 11.8866C65.4346 11.2032 65.0586 10.4709 64.3752 10.251Z"/><path id="Vector_10" d="M94.07 24.0761L112.258 30.0565C112.941 30.2808 113.675 29.9097 113.9 29.2276C114.124 28.5456 113.753 27.8109 113.071 27.5866L94.8822 21.6062C94.2001 21.3819 93.4655 21.753 93.2411 22.4351C93.017 23.1171 93.3881 23.8518 94.07 24.0761Z"/><path id="Vector_11" d="M119.102 74.2866C116.858 72.5913 115.364 69.9253 112.125 69.9253C108.886 69.9253 105.771 69.1987 103.778 66.5337C101.785 63.8687 98.9199 64.2319 95.6807 64.7163C92.4414 65.2007 89.7012 61.9302 85.9639 61.8091L82.5996 69.0776L84.9668 76.7095C84.9668 76.7095 87.832 76.5884 89.3271 76.4673C90.8223 76.3462 91.8184 79.8599 93.9365 80.8286C96.0547 81.7974 100.29 81.0708 103.279 82.5249C106.27 83.978 108.512 86.7642 110.879 86.7642C113.246 86.7642 117.979 87.6128 119.351 90.0356C120.721 92.4585 126.825 90.3989 128.693 90.1567C130.562 89.9145 130.437 98.0308 130.437 98.0308C130.437 98.0308 133.677 96.6987 135.545 94.6391C137.414 92.5796 136.044 80.7075 136.044 80.7075L129.316 83.2515C129.316 83.2515 125.081 83.0093 124.458 81.1919C123.835 79.3745 127.572 77.8003 127.572 77.8003C127.572 77.8003 130.313 76.7095 127.697 75.0142C125.081 73.3179 121.344 75.9829 119.102 74.2866Z"/><path id="Vector_12" d="M83.4717 33.2192L88.7041 27.647L88.8291 7.5376L70.8897 3.90283L70.3916 28.6157L77.8662 31.1597L78.9873 32.6138L83.4717 33.2192Z"/><path id="Vector_13" d="M45.6361 112.441C47.0614 113.372 48.1576 114.7 48.7736 116.384C48.9193 116.784 49.2563 117.09 49.6686 117.197C50.081 117.304 50.5238 117.2 50.8459 116.921V116.922C50.8923 116.881 51.6652 116.235 52.8361 115.619C54.0075 114.999 55.5656 114.427 57.1632 114.431C58.204 114.433 59.2631 114.658 60.349 115.27C61.4333 115.884 62.5607 116.902 63.6571 118.571C63.8661 118.889 64.2094 119.102 64.5876 119.148C64.965 119.194 65.3481 119.069 65.6269 118.811L65.6271 118.812C65.6596 118.781 66.3417 118.17 67.4152 117.588C68.4902 117.003 69.9416 116.458 71.5226 116.46C72.3991 116.461 73.321 116.621 74.2951 117.038C74.3798 117.075 74.4682 117.094 74.5565 117.112C74.9992 119.262 75.5775 121.46 76.3336 123.564V136.034C76.2721 136.009 76.2121 135.982 76.1498 135.957C75.2597 135.613 74.2819 135.37 73.5058 135.2C72.7318 135.031 72.1669 134.942 72.1493 134.94C71.7963 134.884 71.4384 134.976 71.1552 135.194C70.8722 135.411 70.6918 135.734 70.6549 136.089L70.1335 141.104C69.2636 141.461 68.4523 141.884 67.7013 142.363C67.5536 142.458 67.4184 142.562 67.2746 142.66C66.548 142.139 65.8039 141.712 65.1884 141.391C64.4032 140.982 63.8317 140.746 63.8061 140.736C63.4201 140.577 62.9801 140.613 62.6259 140.833C62.2714 141.053 62.0434 141.431 62.0146 141.847L61.6 147.805C60.9618 148.468 60.3305 149.115 59.6864 149.718C59.4188 149.971 59.1486 150.212 58.8764 150.449C58.2333 149.919 57.7648 149.584 57.4069 149.369C56.9486 149.106 56.6725 148.972 56.2177 148.956C56.1303 148.957 56.0209 148.96 55.8578 149.005C55.4025 149.133 55.0529 149.497 54.9445 149.957L54.1877 153.164C54.1786 153.202 54.1847 153.239 54.1791 153.278C53.1527 153.626 52.0348 153.855 50.7423 153.899C50.2697 153.915 49.8429 154.185 49.6276 154.606C49.4123 155.027 49.4423 155.532 49.7062 155.924C49.7643 156.008 50.3917 156.93 51.6598 157.865C52.9215 158.799 54.8634 159.741 57.4093 159.738C59.3861 159.74 61.6891 159.172 64.2653 157.72C66.7287 156.335 68.6828 155.61 70.2655 155.225C71.829 154.846 73.0294 154.791 74.0834 154.787C74.3129 156.693 74.7636 158.61 75.5126 160.455C74.9428 162.407 72.5668 170.561 71.3964 174.827C71.1178 175.855 70.5075 177.126 69.7203 178.579C67.369 182.954 63.4755 188.988 63.2121 197.259C63.2008 197.611 63.3327 197.952 63.578 198.205C63.8231 198.458 64.1593 198.6 64.5116 198.6H81.62C81.9867 198.6 82.3349 198.446 82.5817 198.175C82.8285 197.903 82.9484 197.542 82.914 197.177C82.912 197.156 82.8471 196.473 82.6937 195.58C82.5875 194.977 82.4447 194.289 82.2414 193.616C82.4955 193.412 82.8068 193.163 83.1654 192.876C86.1505 190.484 92.2536 185.594 93.3124 184.746C93.4704 184.619 93.6085 184.486 93.7682 184.323C94.3524 183.725 95.1952 182.721 96.2104 181.408C97.7267 179.445 99.5924 176.822 101.271 174.085C102.75 171.668 104.084 169.181 104.902 166.918L113.009 166.721C113.096 166.745 113.187 166.751 113.279 166.756C114.134 168.011 116.165 170.99 118.296 174.09C119.698 176.131 121.142 178.223 122.322 179.909C122.912 180.752 123.435 181.494 123.856 182.08C124.28 182.67 124.586 183.086 124.8 183.347C125.778 184.535 130.682 190.338 133.331 193.47C133.272 194.318 133.207 195.183 133.153 195.865C133.091 196.65 133.046 197.19 133.046 197.192C133.016 197.552 133.14 197.914 133.385 198.18C133.63 198.447 133.98 198.6 134.342 198.6H151.55C151.891 198.6 152.195 198.462 152.427 198.247C152.966 198.037 153.327 197.505 153.256 196.905C153.106 195.67 152.701 194.435 152.339 193.47C152.075 192.773 151.832 192.23 151.714 191.973C150.662 186.106 149.299 181.996 148.021 178.656C146.727 175.277 145.552 172.71 144.838 169.848C140.868 154.021 136.781 145.437 136.052 143.969C135.991 142.734 135.88 141.51 135.74 140.293C140.303 138.494 143.755 135.584 146.08 133.117C148.434 130.617 149.644 128.563 149.68 128.504C149.815 128.274 149.876 128.008 149.855 127.743C149.799 127.057 149.626 126.387 149.411 125.74C148.763 123.811 147.705 122.054 147.683 122.011C147.661 121.974 147.628 121.948 147.603 121.914C147.572 121.871 147.541 121.833 147.505 121.794C147.42 121.704 147.325 121.63 147.22 121.568C147.197 121.554 147.183 121.531 147.159 121.519L144.003 119.904C143.399 119.594 142.661 119.8 142.305 120.378L141.308 121.993C141.251 122.085 141.232 122.186 141.2 122.284L138.87 122.687C138.45 122.76 138.091 123.035 137.912 123.422L136.733 125.97L132.215 126.369C131.213 123.899 130.019 121.518 128.638 119.244C129.612 118.783 130.675 118.345 131.799 118.352C132.348 118.353 132.917 118.447 133.546 118.706C134.174 118.965 134.866 119.393 135.623 120.091C136.099 120.53 136.827 120.551 137.328 120.141C137.829 119.731 137.952 119.013 137.616 118.46C135.958 115.731 134.544 113.881 133.005 112.374C132.01 111.398 130.966 110.58 129.812 109.758C135.362 108.165 139.607 105.827 142.705 103.018C147.13 99.0124 149.151 94.0471 149.273 89.2289C153.111 88.8971 155.595 87.385 157.025 85.8618C158.515 84.2848 158.917 82.7843 158.954 82.6461C159.126 81.9774 158.744 81.2895 158.085 81.0825L154.83 80.0587C156.377 79.2979 157.481 78.3779 158.223 77.4165C159.486 75.7876 159.684 74.1588 159.682 73.3387C159.682 73.0186 159.654 72.8134 159.645 72.7581C159.553 72.1567 159.061 71.7017 158.454 71.6578C158.453 71.6577 157.76 71.6075 156.651 71.5243C153.705 71.3036 147.811 70.849 144.288 70.4986C144.396 69.4367 144.506 68.2421 144.509 66.8944C144.51 65.0857 144.3 63.0061 143.61 60.6135C142.921 58.2196 141.756 55.5141 139.871 52.4112C138.508 50.1776 136.307 48.0241 133.508 45.9858C130.292 43.6501 126.273 41.4812 121.801 39.6808C122.358 38.4563 123.022 37.2037 123.805 36.0441C124.789 34.583 125.955 33.2781 127.283 32.3432C127.755 32.0107 127.95 31.4109 127.766 30.8642C127.58 30.3174 127.061 29.9594 126.484 29.9815C126.441 29.9837 124.268 30.0667 121.45 30.61C118.871 31.1146 115.758 31.9858 113.186 33.6372L109.517 31.5983C109.019 31.3218 108.396 31.4024 107.985 31.7968L104.419 35.2196C102.682 35.019 100.942 34.8964 99.2079 34.8578C99.0839 34.8421 98.9609 34.8292 98.8383 34.849C98.5798 34.8451 98.32 34.8305 98.0619 34.8304C92.175 34.8314 86.414 35.8587 81.3715 38.333C81.2846 37.8746 81.0961 37.5089 80.903 37.1628C80.6769 36.7779 80.4167 36.4325 80.1549 36.1134C80.1613 36.0707 80.184 36.0345 80.1862 35.9905L80.186 35.9904C80.1867 35.972 80.194 35.8197 80.194 35.5719C80.1926 35.2339 80.1757 34.7178 80.1091 34.1222L82.2971 34.6455C82.5112 34.6968 82.7197 34.6759 82.9189 34.6242C83.1921 34.6094 83.4643 34.5304 83.6891 34.3399L83.6889 34.3398L89.6557 29.2842C89.9462 29.0379 90.1151 28.6724 90.1151 28.2916L90.1044 7.97424C90.1039 7.37762 89.7013 6.86065 89.123 6.71454L71.5175 2.26629C71.1391 2.17071 70.7362 2.25079 70.423 2.48364C70.11 2.71649 69.9174 3.07947 69.9003 3.4693L68.8217 27.8594C68.0412 28.1261 67.3102 28.5442 66.7018 29.1406C65.9452 29.8829 64.9772 30.8106 64.1039 31.8386C63.2343 32.8735 62.432 33.9932 62.0622 35.296C61.9845 35.5892 61.955 35.8482 61.9159 36.2196C61.811 37.3027 61.7428 39.1691 61.7421 41.6972C61.7421 43.6381 61.7853 45.9663 61.8879 48.5739C60.6554 47.6885 59.4345 46.7783 58.2414 45.8129C57.8932 45.5314 57.4291 45.4487 57.0053 45.5927C56.5817 45.7367 56.2636 46.0852 56.1593 46.5205C56.1442 46.588 55.7682 48.1623 55.7672 50.389C55.7699 52.3142 56.0541 54.7594 57.1708 57.1087L55.0575 57.1007C54.6447 57.0991 54.2589 57.2914 54.0116 57.6218C53.7643 57.9524 53.6889 58.3765 53.8068 58.7721C53.8302 58.8471 54.4271 60.8428 55.9389 63.256C57.4491 65.6622 59.8949 68.5184 63.652 70.1493C63.7111 70.1749 63.7729 70.1716 63.8334 70.1879C63.8454 70.2716 63.8559 70.3543 63.8681 70.438C65.516 81.8014 68.318 93.8481 73.0785 103.189C73.0827 103.656 73.1003 104.626 73.1691 105.95C69.807 104.538 68.0478 102.548 67.0541 100.692C65.9648 98.6414 65.849 96.7106 65.851 96.0529L65.8546 95.8648L65.8564 95.827H65.8561C65.8837 95.4671 65.7597 95.1076 65.5141 94.8426C65.2682 94.577 64.9181 94.4248 64.5563 94.4259C64.4689 94.4278 59.1491 94.4466 52.3254 96.6202C45.5104 98.7914 37.1489 103.147 31.1923 111.858C30.8334 112.383 30.9057 113.087 31.3634 113.528C31.821 113.969 32.527 114.015 33.0382 113.637C35.5326 111.794 38.1532 110.992 40.5338 110.992C42.4513 110.992 44.2108 111.513 45.6361 112.441ZM73.8791 151.305C73.8791 151.598 73.8876 151.895 73.8959 152.191C72.7729 152.2 71.3708 152.278 69.6508 152.699C67.8134 153.145 65.6273 153.97 62.9904 155.454C60.7284 156.725 58.8893 157.137 57.4093 157.138C55.8322 157.136 54.6247 156.667 53.7208 156.115C55.5778 155.681 57.1889 154.915 58.5929 153.959C61.7282 151.822 63.9594 148.886 66.4748 146.604C67.7291 145.458 69.0378 144.469 70.5365 143.76C71.8026 143.163 73.224 142.772 74.8971 142.645C74.3583 145.053 73.8825 148.084 73.8791 151.305ZM58.1415 61.8746C57.6427 61.0796 57.2553 60.3304 56.9674 59.7079L59.4567 59.7173C59.9499 59.7192 60.4032 59.4405 60.6242 58.9993C60.8451 58.558 60.7965 58.0282 60.4994 57.6344C58.8053 55.4017 58.3637 52.5809 58.3671 50.389C58.3671 49.972 58.3844 49.5865 58.4088 49.2284C59.6046 50.1421 60.8139 51.0274 62.0436 51.8663C62.2946 56.4369 62.727 61.6534 63.4211 67.1215C61.0048 65.7334 59.2848 63.6992 58.1415 61.8746ZM136.359 128.613C136.388 128.755 136.42 128.903 136.458 129.058C136.572 129.522 136.726 130.034 136.947 130.544C137.172 131.052 137.458 131.566 137.907 132.019C138.414 132.527 139.237 132.527 139.745 132.019C140.253 131.512 140.253 130.689 139.746 130.181L139.745 130.181C139.633 130.073 139.468 129.824 139.33 129.503C139.119 129.023 138.961 128.403 138.871 127.921C138.852 127.821 138.837 127.731 138.823 127.644L139.985 125.133L145.874 124.115C146.034 124.421 146.22 124.793 146.405 125.203C146.759 125.974 147.077 126.875 147.202 127.56C146.757 128.24 145.676 129.788 143.981 131.552C141.948 133.67 139.04 136.059 135.368 137.627C134.875 134.634 134.139 131.715 133.164 128.895L136.359 128.613ZM144.092 73.092C147.916 73.4705 154.271 73.9543 156.978 74.1559C156.867 74.6283 156.641 75.2132 156.168 75.8241C155.345 76.8795 153.736 78.1084 150.365 78.8302C149.789 78.9526 149.365 79.4517 149.337 80.0399C149.309 80.6282 149.684 81.1652 150.246 81.342L155.885 83.1161C155.676 83.4431 155.403 83.809 155.034 84.1799C153.991 85.2209 152.248 86.3278 149.153 86.629C148.751 83.0201 147.348 79.5957 145.191 76.7691C144.741 76.1773 144.479 75.6373 144.314 75.0782C144.15 74.5195 144.084 73.9303 144.084 73.257C144.084 73.2057 144.091 73.1442 144.092 73.092ZM72.4272 5.17791L87.5048 8.98742L87.5148 27.69L82.425 32.0028L79.319 31.26C79.2033 31.0357 79.0761 30.8137 78.9201 30.6C78.4945 30.0123 77.8529 29.4748 77.0263 29.2317L77.0268 29.2303L72.3197 27.785C72.0282 27.6954 71.7328 27.634 71.4362 27.5927L72.4272 5.17791ZM66.4413 70.0658C64.8036 58.748 64.3415 48.0745 64.3419 41.6972C64.3419 40.0475 64.373 38.6852 64.4213 37.6843C64.4455 37.1845 64.474 36.7743 64.5036 36.4731C64.5182 36.3229 64.5334 36.1999 64.5465 36.1124L64.5634 36.0118L64.5683 35.9883C64.7404 35.3278 65.3239 34.4084 66.0858 33.5212C66.8442 32.6271 67.7533 31.7496 68.5221 30.9971C69.089 30.4402 69.86 30.1345 70.6523 30.1346C70.9543 30.1346 71.2589 30.179 71.5568 30.2704L76.2638 31.7157L76.2809 31.7208C76.4836 31.7834 76.6371 31.891 76.8244 32.1386C77.1003 32.5014 77.3349 33.1778 77.4499 33.8575C77.4604 33.9162 77.4662 33.9732 77.4755 34.0317L75.4594 33.1573C74.8007 32.8716 74.0353 33.1739 73.7494 33.8326C73.4638 34.4913 73.7663 35.2569 74.425 35.5426L77.2157 36.753C77.4201 36.9511 77.7905 37.3243 78.1261 37.7326C78.3498 38.0027 78.5566 38.2903 78.6825 38.5175C78.7443 38.6275 78.7856 38.7211 78.8056 38.7798C78.717 39.0644 78.6061 39.3599 78.4863 39.6522L76.6391 38.6567C76.007 38.3161 75.2184 38.5524 74.8778 39.1844C74.5373 39.8164 74.7736 40.6049 75.4054 40.9455L78.0512 42.3714C78.1498 42.639 78.2763 42.9926 78.394 43.3622C78.4848 43.6466 78.5688 43.9352 78.6249 44.1719C78.6523 44.2863 78.672 44.3864 78.6845 44.4638C78.6523 44.5168 78.6156 44.5765 78.5705 44.6434C78.5243 44.7123 78.4633 44.7929 78.4076 44.8699C78.1354 44.6213 77.7714 44.4781 77.3771 44.5284C76.665 44.6194 76.1615 45.2703 76.2526 45.9824L76.2524 45.9823C76.256 46.011 77.1987 53.3929 79.4086 62.9858C79.9003 65.1156 80.4572 67.3568 81.0761 69.6479C81.0693 69.9276 81.1313 70.1955 81.2836 70.4167C83.435 78.2309 86.3537 86.5848 90.2287 93.3219L90.3649 93.5153C90.3674 93.5181 91.4606 94.8038 92.7428 96.3143C94.0248 97.8244 95.4948 99.5582 96.2382 100.442C96.7001 100.992 97.5202 101.063 98.0698 100.601C98.6193 100.139 98.6904 99.3189 98.2284 98.7693C96.8444 97.1231 93.016 92.6195 92.4294 91.9294C92.0156 91.2084 91.6152 90.4598 91.2221 89.6981C97.279 93.0532 104.504 95.6243 110.872 97.4628C114.691 98.5631 118.192 99.3977 120.925 99.9695C122.292 100.255 123.467 100.475 124.398 100.631C125.336 100.786 126.003 100.876 126.459 100.904C126.588 100.911 126.716 100.914 126.844 100.914C128.566 100.906 130.445 100.321 132.186 99.3484C133.918 98.3679 135.514 96.9893 136.481 95.2169C136.695 94.8132 136.82 94.4001 136.939 93.9169C137.139 93.0776 137.282 92.0354 137.4 90.8223C137.731 87.3643 137.821 82.5425 137.83 78.3779C137.842 78.2913 137.869 78.2126 137.877 78.1243C137.893 77.9635 137.871 77.8092 137.831 77.6617C137.83 73.3308 137.742 69.8989 137.742 69.8918C137.726 69.2797 137.289 68.7642 136.688 68.6486L136.676 68.6462C136.345 68.5803 129.625 67.2068 119.274 62.406C111.375 58.7442 103.779 56.0352 97.5898 54.5207C95.652 54.0469 94.1264 53.4087 93.0961 52.8957C93.0434 52.8695 93.0073 52.8483 92.9572 52.8227L93.0566 52.7261C93.5712 52.2255 93.5827 51.4025 93.082 50.8878C92.5815 50.3732 91.7585 50.3618 91.2438 50.8624L89.9157 52.1544C89.9155 52.1546 89.9155 52.1549 89.9152 52.1551C89.685 52.3757 85.2348 56.6474 82.4494 64.543C82.2741 63.8199 82.1037 63.1035 81.9423 62.4021C80.8517 57.6687 80.0727 53.4739 79.5673 50.4665C79.3979 49.4584 79.2617 48.5978 79.1523 47.881C79.3239 47.7448 79.4836 47.6027 79.634 47.4518C80.0092 47.0688 80.3434 46.6449 80.6144 46.2597C80.7497 46.0666 80.8674 45.8852 80.9675 45.7133C81.0175 45.6267 81.0632 45.5429 81.1074 45.4512C81.1513 45.3559 81.1953 45.2663 81.2421 45.092L81.2434 45.0874C81.2932 44.8847 81.2995 44.7328 81.3005 44.5959C81.2951 44.1648 81.2138 43.8164 81.1191 43.4274C80.9606 42.8092 80.7363 42.1492 80.5624 41.6678C80.6364 41.6408 80.7138 41.6324 80.7841 41.591C85.7289 38.6736 91.7529 37.4294 98.062 37.4305C98.2455 37.4304 98.4316 37.4458 98.6154 37.4479C100.43 38.8911 102.333 40.8306 103.913 42.5944C102.294 42.0907 100.337 41.6719 98.404 41.4476C98.403 41.7621 98.3093 42.0341 98.1989 42.2363C98.0861 42.4423 97.9572 42.5923 97.83 42.7172C97.5739 42.9634 97.3144 43.1211 97.0444 43.257C96.5007 43.5175 95.9348 43.6854 95.2883 43.6948C95.0981 43.6942 94.8967 43.6781 94.6713 43.6196C94.4489 43.5605 94.1916 43.4565 93.9423 43.2445C93.9428 43.2449 93.9436 43.2457 93.944 43.2462L93.9409 43.2435C93.9414 43.2439 93.9419 43.244 93.9423 43.2445C93.7773 43.1036 93.6181 42.9185 93.5031 42.6892C93.3867 42.4606 93.3244 42.1915 93.3259 41.9429C93.3259 41.7625 93.3608 41.6019 93.406 41.4525C92.9848 41.5265 92.5756 41.619 92.1931 41.7559C91.6828 41.9427 91.1972 42.1981 90.7807 42.5947C90.3662 42.9839 90.0439 43.5469 89.9536 44.1616C89.9416 44.2367 89.9326 44.3228 89.9326 44.4197C89.9326 44.7019 90.0039 44.9512 90.0942 45.1505C90.2751 45.5376 90.5065 45.7775 90.7461 45.998C91.1989 46.3999 91.7395 46.7249 92.3886 47.0682C93.5192 47.6595 94.9716 48.2603 96.5422 48.8497C101.243 50.6107 106.978 52.232 106.995 52.2376C107.648 52.4224 108.336 52.0718 108.57 51.4349C108.595 51.3527 109.059 50.1184 109.065 48.5034C109.064 48.2039 109.039 47.8863 108.997 47.5629C109.16 47.5217 109.317 47.4492 109.459 47.3422C110.033 46.9105 110.148 46.0955 109.717 45.5216C109.704 45.5048 108.442 43.8283 106.586 41.694C105.486 40.4316 104.181 39.0128 102.793 37.6745C106.34 37.9998 109.898 38.6564 113.328 39.5845C113.629 39.6937 113.913 39.8079 114.178 39.9282C115.243 40.406 115.986 40.9534 116.456 41.5823C116.922 42.2147 117.187 42.9553 117.194 44.0822C117.194 44.6383 117.122 45.2836 116.959 46.0244C116.958 46.0302 116.955 46.0484 116.954 46.0499C116.815 46.7502 117.265 47.4298 117.964 47.5756C118.663 47.7215 119.346 47.2784 119.499 46.581C119.501 46.5724 119.502 46.5646 119.503 46.5561L119.504 46.5563L119.509 46.5353C119.553 46.3172 119.957 44.4567 120.815 42.0996C121.372 42.3241 121.938 42.5425 122.479 42.7784C126.114 44.3609 129.366 46.1888 131.979 48.0889C134.594 49.9852 136.562 51.9658 137.649 53.7614C138.926 55.8649 139.828 57.735 140.467 59.4171C140.363 59.2994 140.264 59.183 140.155 59.064C138.897 57.7053 137.272 56.2945 135.524 55.1871C135.48 55.1591 135.434 55.1358 135.389 55.1083C135.409 55.2097 135.431 55.3118 135.43 55.4134C135.43 55.7305 135.335 56.0042 135.224 56.2077C135.111 56.4137 134.982 56.5637 134.855 56.6886C134.599 56.9349 134.339 57.0926 134.069 57.2285C133.525 57.489 132.959 57.6571 132.313 57.6665C132.123 57.6659 131.921 57.6497 131.696 57.5913C131.473 57.5322 131.216 57.4282 130.967 57.2159C130.967 57.2164 130.968 57.2172 130.968 57.2177L130.965 57.2151C130.966 57.2155 130.966 57.2156 130.967 57.2159C130.802 57.0754 130.644 56.8913 130.528 56.6625C130.412 56.4344 130.349 56.1648 130.35 55.9145C130.35 55.6475 130.414 55.4088 130.499 55.2148C130.586 55.0196 130.692 54.8632 130.803 54.7297C131.026 54.4645 131.269 54.2808 131.526 54.1256C132.043 53.8254 132.62 53.6301 133.296 53.6221C133.738 53.6228 134.266 53.7206 134.747 54.0854L134.75 54.0878C134.857 54.1706 134.961 54.2794 135.06 54.4022C135.564 54.16 135.882 53.6266 135.791 53.046C135.679 52.3367 135.013 51.8524 134.304 51.9642L128.159 52.933C127.449 53.0448 126.965 53.7103 127.077 54.4195C127.136 54.7907 127.35 55.0932 127.639 55.288C127.327 56.0824 127.158 56.9223 127.048 57.5959C126.939 58.2785 126.901 58.7785 126.899 58.803C126.858 59.3353 127.147 59.8373 127.627 60.0708C127.638 60.076 130.108 61.2775 132.93 62.487C134.342 63.092 135.84 63.699 137.181 64.1639C137.852 64.3964 138.484 64.5937 139.06 64.7381C139.64 64.8808 140.15 64.9791 140.671 64.9826C140.995 64.9753 141.343 64.9596 141.781 64.7268C141.865 65.4881 141.909 66.2137 141.909 66.8945C141.915 69.2742 141.494 71.2346 141.484 73.257C141.484 74.0967 141.566 74.9513 141.819 75.8116C142.071 76.6714 142.496 77.5253 143.125 78.3469C145.364 81.2784 146.687 84.9675 146.685 88.7322C146.677 93.0179 145.011 97.403 140.957 101.092C136.901 104.776 130.381 107.757 120.658 108.916C120.546 108.93 120.449 108.979 120.348 109.019C119.168 107.912 117.937 106.845 116.629 105.843C116.059 105.406 115.243 105.514 114.806 106.083C114.369 106.653 114.477 107.469 115.047 107.906L115.047 107.906C126.517 116.708 132.819 129.856 133.475 144.378C133.483 144.567 133.533 144.752 133.621 144.921L133.63 144.938C133.855 145.377 138.146 153.858 142.316 170.481C143.111 173.642 144.34 176.301 145.593 179.584C146.848 182.871 148.16 186.811 149.187 192.603C149.209 192.723 149.244 192.832 149.297 192.942L149.307 192.962C149.364 193.084 149.663 193.724 149.967 194.552C150.133 194.999 150.296 195.502 150.428 196H135.75C135.812 195.218 135.887 194.217 135.951 193.265C135.972 192.949 135.864 192.661 135.691 192.424C135.643 192.25 135.563 192.083 135.439 191.936C132.827 188.848 127.766 182.86 126.807 181.695C126.688 181.552 126.374 181.13 125.967 180.563C124.528 178.559 121.78 174.576 119.401 171.106C118.21 169.37 117.111 167.76 116.309 166.585C116.264 166.519 116.224 166.46 116.181 166.397C120.762 165.507 124.219 163.373 126.576 161.31C129.39 158.849 130.707 156.511 130.758 156.424C131.109 155.798 130.886 155.006 130.26 154.655C129.634 154.304 128.843 154.526 128.492 155.151L128.491 155.151L128.49 155.152L128.49 155.152C128.459 155.209 127.244 157.309 124.747 159.455C122.351 161.511 118.803 163.591 113.934 164.103C113.921 164.103 113.909 164.099 113.896 164.099L103.929 164.341C103.368 164.355 102.881 164.725 102.717 165.262C102.263 166.759 101.421 168.576 100.39 170.44C98.8437 173.24 96.8767 176.159 95.175 178.464C94.3247 179.617 93.5398 180.618 92.9121 181.371C92.5988 181.747 92.3242 182.062 92.1066 182.298C91.8935 182.531 91.719 182.694 91.6872 182.717C90.2746 183.848 79.896 192.163 79.896 192.164C79.4362 192.532 79.2817 193.165 79.52 193.704C79.768 194.253 79.9951 195.215 80.1277 196H65.9027C66.2787 191.613 67.7445 187.913 69.3671 184.702C70.2599 182.936 71.1952 181.321 72.0085 179.814C72.8202 178.305 73.518 176.91 73.904 175.515C74.5649 173.105 75.6232 169.412 76.515 166.325C76.9611 164.782 77.3659 163.39 77.6589 162.383C77.9518 161.377 78.1327 160.759 78.1332 160.757C78.2189 160.463 78.1991 160.151 78.0766 159.871C76.9074 157.201 76.478 154.206 76.4789 151.305C76.4779 147.893 77.0712 144.625 77.6679 142.224C77.966 141.024 78.2641 140.041 78.4857 139.362C78.5966 139.023 78.6884 138.76 78.7516 138.584L78.8236 138.387L78.8412 138.34L78.8456 138.329C78.9047 138.176 78.9335 138.023 78.9335 137.859V123.35C78.9335 123.196 78.9071 123.047 78.8539 122.902C77.3131 118.714 76.506 113.901 76.1 110.052C75.6918 106.203 75.6772 103.314 75.6772 102.934L75.6774 102.916H75.6767C75.6818 102.698 75.6322 102.48 75.5321 102.286C70.9022 93.3559 68.0741 81.3822 66.4413 70.0658ZM132.707 76.9524L132.707 76.9524C132.359 76.1603 131.817 75.5013 131.177 74.9924C130.214 74.2266 129.05 73.7715 127.812 73.4877C126.572 73.206 125.245 73.099 123.914 73.0984C123.007 73.0984 122.098 73.1491 121.218 73.2348L121.019 73.2444C120.528 73.2406 120.114 73.0739 119.547 72.6673C118.705 72.0684 117.73 70.9362 116.381 69.8956C115.703 69.3778 114.917 68.8872 113.988 68.5303C113.061 68.1725 111.995 67.9545 110.794 67.9556C110.593 67.9556 110.387 67.9616 110.178 67.9741C110.016 67.9836 109.857 67.988 109.704 67.988C108.556 67.9847 107.726 67.743 106.979 67.3739C105.86 66.8242 104.932 65.9059 103.784 64.9853C103.209 64.5301 102.571 64.08 101.808 63.7397C101.047 63.3987 100.161 63.1818 99.1742 63.1839C98.8339 63.1839 98.4811 63.2087 98.1166 63.2597C97.7553 63.3099 97.4167 63.3321 97.0946 63.3321C96.255 63.3312 95.5277 63.183 94.8002 62.9434C93.7113 62.5872 92.6298 61.9964 91.3481 61.4476C90.1542 60.938 88.7543 60.5002 87.0905 60.4452C87.5692 59.5616 88.0509 58.7607 88.5141 58.0547C89.3971 56.7085 90.2101 55.6901 90.7956 55.0152C90.8857 54.9115 90.9591 54.8313 91.0378 54.7439C92.1464 55.3729 94.1684 56.3595 96.9721 57.0463C102.947 58.5065 110.418 61.1647 118.181 64.7647C126.712 68.7216 132.846 70.4106 135.165 70.9694C135.171 71.315 135.179 71.7365 135.187 72.2304C135.209 73.6403 135.232 75.5945 135.232 77.7676C135.232 77.9034 135.231 78.0446 135.231 78.1821C135.086 78.9692 134.77 79.5272 134.267 80.0345C133.694 80.6028 132.845 81.0822 131.826 81.4793C131.115 81.7513 130.653 81.7937 129.952 81.7984C129.53 81.7989 129.03 81.7749 128.424 81.7745C127.882 81.7748 127.5 81.7037 127.248 81.6187C126.87 81.4841 126.775 81.358 126.703 81.2555C126.636 81.1522 126.605 81.0114 126.605 80.8875L126.611 80.7935L126.614 80.7776C126.683 80.5701 126.718 80.4752 126.9 80.2404C127.084 80.0104 127.445 79.6613 128.12 79.1808C128.751 78.7292 129.269 78.2601 129.665 77.7315C129.751 77.6163 129.829 77.4947 129.903 77.3705C130.076 77.5636 130.224 77.7672 130.328 78.0014C130.617 78.6585 131.385 78.9562 132.042 78.6666C132.699 78.3769 132.997 77.6095 132.707 76.9524ZM91.4696 64.3556C92.244 64.7168 93.0609 65.106 93.984 65.4119C94.9057 65.7176 95.9376 65.933 97.0946 65.9321C97.537 65.9321 97.9972 65.9012 98.4755 65.8348C98.7284 65.7995 98.9601 65.7839 99.1742 65.7839C100.001 65.7892 100.59 65.995 101.218 66.3564C102.155 66.8917 103.095 67.8746 104.383 68.8208C105.029 69.2891 105.774 69.7379 106.657 70.064C107.538 70.3911 108.553 70.5891 109.704 70.5881C109.908 70.5881 110.117 70.582 110.331 70.5696C110.491 70.5601 110.645 70.5556 110.794 70.5556C111.984 70.5587 112.876 70.8261 113.674 71.2361C114.868 71.8491 115.835 72.8474 116.892 73.8281C117.423 74.3148 117.982 74.7975 118.653 75.1842C119.319 75.57 120.127 75.8474 121.019 75.8445C121.167 75.8445 121.317 75.8373 121.469 75.8226C122.276 75.744 123.104 75.6984 123.914 75.6984C125.265 75.6963 126.553 75.8399 127.614 76.1309C127.45 76.3611 127.121 76.7062 126.61 77.064C125.818 77.6304 125.275 78.1153 124.876 78.6091C124.475 79.0968 124.246 79.6167 124.129 80.0128L124.13 80.0087C124.046 80.2827 124.007 80.5595 124.006 80.8875C124.006 81.2269 124.055 81.6152 124.203 82.0247C124.417 82.6372 124.891 83.2912 125.623 83.7204C126.353 84.1546 127.28 84.3745 128.424 84.3746C128.956 84.3742 129.44 84.398 129.952 84.3984C130.787 84.4031 131.729 84.3157 132.774 83.9001C133.619 83.5676 134.442 83.1607 135.189 82.6287C135.155 84.4356 135.099 86.2331 135.009 87.8641C134.924 89.4241 134.807 90.8333 134.656 91.9321C134.581 92.4806 134.496 92.9517 134.41 93.3118C134.327 93.6696 134.228 93.9235 134.194 93.9792C133.756 94.7993 133.024 95.5895 132.15 96.2614C132.153 96.1008 132.158 95.942 132.158 95.7766C132.156 94.4932 132.058 93.112 131.766 91.9273C131.614 91.3322 131.425 90.7812 131.08 90.2672C130.905 90.012 130.683 89.76 130.371 89.5557C130.064 89.3512 129.654 89.2145 129.246 89.2178L129.102 89.2236V89.223C129.099 89.2233 129.095 89.2238 129.091 89.2241L129.084 89.2244V89.2248C128.08 89.296 127.01 89.4487 125.944 89.5802C124.874 89.7131 123.811 89.8233 122.875 89.8226C122.078 89.8242 121.377 89.7398 120.862 89.5679C120.34 89.3914 120.024 89.168 119.789 88.8408C119.16 87.9542 118.291 87.343 117.363 86.8952C115.965 86.2263 114.39 85.8921 112.906 85.6677C111.427 85.4473 110.028 85.3471 109.085 85.2313C108.738 85.1875 108.422 85.037 107.978 84.6884C107.319 84.1768 106.522 83.2391 105.37 82.3295C104.219 81.4197 102.656 80.5742 100.54 80.3068C98.5927 80.0631 96.9394 80.1074 95.7494 79.8113C95.1508 79.667 94.6737 79.4638 94.2372 79.1326C93.8022 78.7992 93.3832 78.3201 92.9743 77.5281C92.7338 77.0579 92.3849 76.6749 92.0028 76.392C91.4262 75.9656 90.79 75.7418 90.1691 75.6069C89.5463 75.4739 88.9272 75.4326 88.3485 75.4321C86.8954 75.4345 85.693 75.6954 85.5754 75.7196C84.9049 73.6386 84.2909 71.553 83.7289 69.5023C84.2614 67.0991 84.9897 64.9508 85.8012 63.0869C86.1303 63.0504 86.4511 63.0238 86.7485 63.0238C88.5678 63.0263 89.9103 63.6266 91.4696 64.3556ZM129.558 95.7765C129.559 96.5334 129.512 97.2413 129.447 97.7537C128.498 98.1119 127.569 98.3195 126.844 98.3143L126.608 98.3079C126.359 98.2951 125.707 98.2137 124.825 98.0658C121.712 97.548 115.505 96.2223 108.73 94.1058C101.97 91.9977 94.6278 89.0839 89.216 85.4652C88.1982 83.128 87.2641 80.6855 86.4084 78.2075C86.8065 78.139 87.5639 78.0306 88.3485 78.0321C88.945 78.0298 89.55 78.0992 89.9704 78.2424C90.1813 78.3123 90.3429 78.3968 90.4501 78.4774C90.5588 78.5597 90.6159 78.6293 90.662 78.7167C91.2082 79.7826 91.8813 80.6077 92.6611 81.2003C93.2438 81.6453 93.8754 81.9529 94.5097 82.1609C95.4643 82.4731 96.4189 82.5767 97.3642 82.6506C98.3107 82.7226 99.2548 82.7613 100.206 82.8852C101.289 83.0272 102.103 83.334 102.8 83.725C103.843 84.3108 104.623 85.1179 105.468 85.9311C105.892 86.3351 106.334 86.7416 106.867 87.0911C107.397 87.439 108.038 87.725 108.771 87.8123C110.164 87.9795 112.101 88.1006 113.867 88.4796C114.746 88.6667 115.573 88.9181 116.235 89.2378C116.901 89.5574 117.381 89.9357 117.666 90.3415C118.271 91.2029 119.147 91.7452 120.048 92.0374C120.956 92.334 121.91 92.4211 122.875 92.4227C124.007 92.422 125.162 92.2962 126.264 92.1604C127.247 92.0383 128.182 91.9111 128.994 91.8419C129.031 91.9139 129.075 92.0079 129.116 92.1281C129.253 92.5105 129.374 93.0947 129.448 93.7403C129.524 94.3873 129.558 95.1005 129.558 95.7765ZM99.4066 46.4856L99.1439 46.5745C98.4638 46.8046 97.726 46.4398 97.496 45.7597C97.2658 45.0796 97.6305 44.3417 98.3107 44.1117L98.5734 44.0228C99.2536 43.7927 99.9914 44.1575 100.221 44.8376C100.452 45.5177 100.087 46.2556 99.4066 46.4856ZM136.136 60.5527L135.874 60.6425C135.194 60.8748 134.455 60.5124 134.223 59.8331C133.991 59.1538 134.353 58.4147 135.032 58.1824L135.295 58.0925C135.974 57.8602 136.713 58.2226 136.946 58.9019C137.178 59.5812 136.816 60.3203 136.136 60.5527Z"/><path id="Vector_14" d="M76.407 18.5701L81.8245 19.818C82.0657 19.8736 82.3088 19.9007 82.5486 19.9007C83.3826 19.9 84.1567 19.5763 84.7314 19.0348C85.3064 18.4964 85.6904 17.7113 85.7034 16.8415L85.7649 12.9949V12.9741V12.9412C85.7637 11.3063 84.6147 9.91075 83.0305 9.54643L77.6982 8.30927C77.4561 8.25281 77.2105 8.2251 76.9683 8.2251C76.147 8.22583 75.3826 8.53943 74.8096 9.068C74.2361 9.59357 73.8464 10.3616 73.8162 11.2189H73.8164L73.6702 15.0393L73.667 15.1755C73.6682 16.8092 74.8179 18.2067 76.407 18.5701ZM76.4146 11.3152C76.4211 11.1783 76.4722 11.0754 76.573 10.9785C76.6743 10.8847 76.8179 10.8244 76.9683 10.8251L77.1094 10.8417L82.4436 12.0793C82.8879 12.1844 83.1663 12.5526 83.165 12.9412V12.9533L83.1035 16.799C83.0996 16.938 83.0493 17.0434 82.9478 17.1431C82.8457 17.2396 82.7007 17.3015 82.5486 17.3007L82.408 17.2844L76.9902 16.0364C76.5432 15.9314 76.2656 15.5615 76.2669 15.1755L76.2676 15.1508L76.2678 15.1429L76.4143 11.3168L75.1155 11.2671L76.4146 11.3152Z"/><path id="Vector_15" d="M89.9521 44.1672L89.9536 44.1616L89.9539 44.1572L89.9521 44.1672Z"/></g></g><defs><clipPath id="clip0_2153_5072"><rect width="131.681" height="197.6" transform="translate(28 1)"/></clipPath></defs></svg>