<svg xmlns="http://www.w3.org/2000/svg" width="200" height="200" fill="none"><g clip-path="url(#a)"><path fill="#FFD93A" d="M95.26 16.941a1.3 1.3 0 0 0-.368 2.574l15.719 2.247a1.3 1.3 0 1 0 .368-2.574l-15.72-2.247ZM64.05 14.977l-24.163-1.649a1.3 1.3 0 1 0-.177 2.594l24.164 1.649a1.3 1.3 0 0 0 .177-2.594ZM114.189 9.47a1.3 1.3 0 0 0-1.524-1.027l-18.018 3.509a1.3 1.3 0 0 0 .497 2.552l18.018-3.509a1.299 1.299 0 0 0 1.027-1.524ZM65.137 20.585a1.3 1.3 0 0 0-1.556-.979l-34.57 7.87a1.3 1.3 0 1 0 .578 2.535l34.57-7.87a1.3 1.3 0 0 0 .978-1.556ZM100.762 4.233l-6.59 3.006a1.3 1.3 0 1 0 1.08 2.366l6.589-3.007a1.3 1.3 0 0 0-1.079-2.365ZM64.821 25.175a1.3 1.3 0 0 0-1.746-.574L34.18 39.187a1.3 1.3 0 0 0 1.172 2.32l28.894-14.585a1.3 1.3 0 0 0 .575-1.747ZM66.02 7.074a1.3 1.3 0 0 0-.433-1.787L58.88 1.191a1.3 1.3 0 0 0-1.355 2.219l6.708 4.096a1.3 1.3 0 0 0 1.787-.432ZM93.21 29.335l4.034 2.686a1.3 1.3 0 1 0 1.44-2.164L94.65 27.17a1.3 1.3 0 1 0-1.44 2.164ZM64.375 10.251l-25.81-8.302a1.3 1.3 0 0 0-.796 2.475l25.81 8.302a1.3 1.3 0 0 0 .796-2.475ZM94.07 24.076l18.188 5.98a1.3 1.3 0 0 0 .813-2.47l-18.189-5.98a1.3 1.3 0 0 0-.812 2.47ZM119.102 74.287c-2.244-1.696-3.738-4.362-6.977-4.362-3.239 0-6.354-.726-8.347-3.391-1.993-2.665-4.858-2.302-8.097-1.818-3.24.485-5.98-2.786-9.717-2.907L82.6 69.078l2.367 7.632s2.865-.122 4.36-.243c1.495-.12 2.491 3.393 4.61 4.362 2.118.968 6.353.242 9.342 1.696 2.991 1.453 5.233 4.24 7.6 4.24s7.1.848 8.472 3.27c1.37 2.424 7.474.364 9.342.122 1.869-.242 1.744 7.874 1.744 7.874s3.24-1.332 5.108-3.392c1.869-2.06.499-13.931.499-13.931l-6.728 2.543s-4.235-.242-4.858-2.06c-.623-1.817 3.114-3.39 3.114-3.39s2.741-1.091.125-2.787-6.353.969-8.595-.727ZM83.472 33.22l5.232-5.573.125-20.11-17.94-3.634-.497 24.713 7.474 2.544 1.121 1.454 4.485.605Z"/><path fill="#191C22" d="M45.636 112.441a7.885 7.885 0 0 1 3.138 3.943c.145.4.482.706.895.813.412.107.855.003 1.177-.276v.001c.046-.041.82-.687 1.99-1.303 1.172-.62 2.73-1.192 4.327-1.188a6.35 6.35 0 0 1 3.186.839c1.084.614 2.212 1.632 3.308 3.301.21.318.552.531.93.577.378.046.761-.079 1.04-.337v.001c.033-.031.715-.642 1.788-1.224 1.075-.585 2.527-1.13 4.108-1.128a6.96 6.96 0 0 1 2.772.578c.085.037.173.056.261.074.443 2.15 1.022 4.348 1.778 6.452v12.47l-.184-.077c-.89-.344-1.868-.587-2.644-.757a24.21 24.21 0 0 0-1.357-.26 1.294 1.294 0 0 0-.994.254c-.283.217-.463.54-.5.895l-.522 5.015c-.87.357-1.68.78-2.432 1.259-.147.095-.283.199-.426.297a17.524 17.524 0 0 0-2.087-1.269 18.199 18.199 0 0 0-1.382-.655 1.3 1.3 0 0 0-1.791 1.111l-.415 5.958c-.638.663-1.27 1.31-1.914 1.913-.267.253-.537.494-.81.731-.643-.53-1.111-.865-1.47-1.08-.457-.263-.733-.397-1.188-.413a1.298 1.298 0 0 0-1.273 1.001l-.757 3.207c-.01.038-.003.075-.009.114a11.777 11.777 0 0 1-3.437.621 1.3 1.3 0 0 0-1.036 2.025c.058.084.686 1.006 1.954 1.941a9.58 9.58 0 0 0 5.75 1.873c1.976.002 4.28-.566 6.855-2.018 2.464-1.385 4.418-2.11 6-2.495 1.564-.379 2.764-.434 3.818-.438.23 1.906.68 3.823 1.43 5.668-.57 1.952-2.946 10.106-4.117 14.372-.278 1.028-.889 2.299-1.676 3.752-2.351 4.375-6.245 10.409-6.508 18.68a1.298 1.298 0 0 0 1.3 1.341H81.62a1.3 1.3 0 0 0 1.294-1.423c-.002-.021-.067-.704-.22-1.597a17.153 17.153 0 0 0-.453-1.964l.924-.74 10.147-8.13c.158-.127.297-.26.456-.423.584-.598 1.427-1.602 2.442-2.915a85.903 85.903 0 0 0 5.061-7.323c1.479-2.417 2.813-4.904 3.631-7.167l8.107-.197c.087.024.178.03.27.035.855 1.255 2.886 4.234 5.017 7.334a857.75 857.75 0 0 0 4.026 5.819c.59.843 1.113 1.585 1.534 2.171.424.59.73 1.006.944 1.267.978 1.188 5.882 6.991 8.531 10.123-.059.848-.124 1.713-.178 2.395-.062.785-.107 1.325-.107 1.327a1.304 1.304 0 0 0 1.296 1.408h17.208c.341 0 .645-.138.877-.353.539-.21.9-.742.829-1.342-.15-1.235-.555-2.47-.917-3.435a24.07 24.07 0 0 0-.625-1.497c-1.052-5.867-2.415-9.977-3.693-13.317-1.294-3.379-2.469-5.946-3.183-8.808-3.97-15.827-8.057-24.411-8.786-25.879a56.555 56.555 0 0 0-.312-3.676c4.563-1.799 8.015-4.709 10.34-7.176 2.354-2.5 3.564-4.554 3.6-4.613.135-.23.196-.496.175-.761-.056-.686-.229-1.356-.444-2.003-.648-1.929-1.706-3.686-1.728-3.729-.022-.037-.055-.063-.08-.097a1.29 1.29 0 0 0-.383-.346c-.023-.014-.037-.037-.061-.049l-3.156-1.615a1.296 1.296 0 0 0-1.698.474l-.997 1.615c-.057.092-.076.193-.108.291l-2.33.403c-.42.073-.779.348-.958.735l-1.179 2.548-4.518.399a49.739 49.739 0 0 0-3.577-7.125c.974-.461 2.037-.899 3.161-.892a4.5 4.5 0 0 1 1.747.354c.628.259 1.32.687 2.077 1.385a1.301 1.301 0 0 0 1.993-1.631c-1.658-2.729-3.072-4.579-4.611-6.086-.995-.976-2.039-1.794-3.193-2.616 5.55-1.593 9.795-3.931 12.893-6.74 4.425-4.006 6.446-8.97 6.568-13.79 3.838-.33 6.322-1.843 7.752-3.366 1.49-1.577 1.892-3.078 1.929-3.216a1.3 1.3 0 0 0-.869-1.564l-3.255-1.023c1.547-.761 2.651-1.681 3.393-2.642 1.263-1.63 1.461-3.258 1.459-4.078 0-.32-.028-.526-.037-.58a1.297 1.297 0 0 0-1.191-1.101c-.001 0-.694-.05-1.803-.134-2.946-.22-8.84-.675-12.363-1.025.108-1.062.218-2.257.221-3.605a22.289 22.289 0 0 0-.899-6.28c-.689-2.394-1.854-5.1-3.739-8.203-1.363-2.233-3.564-4.387-6.363-6.425-3.216-2.336-7.235-4.505-11.707-6.305.557-1.225 1.221-2.477 2.004-3.637.984-1.461 2.15-2.766 3.478-3.7a1.299 1.299 0 0 0-.799-2.363c-.043.003-2.216.086-5.034.629-2.578.505-5.692 1.376-8.264 3.027l-3.669-2.039a1.303 1.303 0 0 0-1.532.199l-3.566 3.423a56.38 56.38 0 0 0-5.211-.362 1.292 1.292 0 0 0-.37-.009c-.258-.004-.518-.018-.776-.019-5.887.001-11.648 1.029-16.69 3.503-.087-.458-.276-.824-.469-1.17a8.24 8.24 0 0 0-.748-1.05c.006-.042.029-.078.031-.123 0-.018.008-.17.008-.418a13.805 13.805 0 0 0-.085-1.45l2.188.523c.214.052.423.03.622-.02.273-.016.545-.095.77-.285l5.967-5.056c.29-.246.46-.612.46-.992l-.012-20.318c0-.596-.403-1.113-.981-1.26L71.517 2.267A1.302 1.302 0 0 0 69.9 3.47l-1.078 24.39a5.58 5.58 0 0 0-2.12 1.282c-.757.742-1.725 1.67-2.598 2.698-.87 1.035-1.672 2.154-2.042 3.457-.078.293-.107.552-.146.924-.105 1.083-.173 2.95-.174 5.477 0 1.941.043 4.27.146 6.877a79.653 79.653 0 0 1-3.647-2.761 1.297 1.297 0 0 0-1.236-.22 1.297 1.297 0 0 0-.846.927c-.015.068-.39 1.642-.392 3.869.003 1.925.287 4.37 1.404 6.72l-2.114-.008a1.296 1.296 0 0 0-1.045.52c-.248.331-.323.755-.205 1.151.023.075.62 2.07 2.132 4.484 1.51 2.406 3.956 5.262 7.713 6.893.06.026.12.023.181.039l.035.25c1.648 11.363 4.45 23.41 9.21 32.751.005.467.022 1.437.091 2.761-3.362-1.412-5.121-3.402-6.115-5.258-1.09-2.05-1.205-3.981-1.203-4.64l.004-.187.001-.038c.028-.36-.096-.72-.342-.984a1.305 1.305 0 0 0-.958-.417c-.087.002-5.407.02-12.23 2.194-6.816 2.171-15.177 6.527-21.134 15.238a1.298 1.298 0 0 0 .171 1.67 1.298 1.298 0 0 0 1.675.109c2.495-1.843 5.115-2.645 7.496-2.645 1.917 0 3.677.521 5.102 1.449Zm28.243 38.864c0 .293.009.59.017.886a17.855 17.855 0 0 0-4.245.508c-1.838.446-4.024 1.271-6.66 2.755-2.263 1.271-4.102 1.683-5.582 1.684-1.577-.002-2.784-.471-3.688-1.023a14.434 14.434 0 0 0 4.872-2.156c3.135-2.137 5.366-5.073 7.882-7.355 1.254-1.146 2.563-2.135 4.062-2.844 1.266-.597 2.687-.988 4.36-1.115-.539 2.408-1.015 5.439-1.018 8.66Zm-15.738-89.43a19.512 19.512 0 0 1-1.174-2.167l2.49.01a1.302 1.302 0 0 0 1.042-2.084c-1.694-2.232-2.135-5.053-2.132-7.245 0-.417.017-.803.042-1.16a83.588 83.588 0 0 0 3.635 2.637c.25 4.57.683 9.787 1.377 15.255-2.416-1.388-4.136-3.422-5.28-5.246Zm78.218 66.738c.029.142.061.29.099.445.114.464.268.976.489 1.486.225.508.511 1.022.96 1.475a1.299 1.299 0 1 0 1.839-1.838h-.001c-.112-.108-.277-.357-.415-.678-.211-.48-.369-1.1-.459-1.582a9.72 9.72 0 0 1-.048-.277l1.162-2.511 5.889-1.018c.16.306.346.678.531 1.088.354.771.672 1.672.797 2.357-.445.68-1.526 2.228-3.221 3.992-2.033 2.118-4.941 4.507-8.613 6.075a53.138 53.138 0 0 0-2.204-8.732l3.195-.282Zm7.733-55.521c3.824.379 10.179.862 12.886 1.064a4.318 4.318 0 0 1-.81 1.668c-.823 1.055-2.432 2.284-5.803 3.006-.576.123-1 .622-1.028 1.21a1.303 1.303 0 0 0 .909 1.302l5.639 1.774a6.328 6.328 0 0 1-.851 1.064c-1.043 1.04-2.786 2.148-5.881 2.449a19.962 19.962 0 0 0-3.962-9.86c-.45-.592-.712-1.132-.877-1.69-.164-.56-.23-1.149-.23-1.822 0-.051.007-.113.008-.165ZM72.427 5.178l15.078 3.81.01 18.702-5.09 4.313-3.106-.743a4.966 4.966 0 0 0-.399-.66c-.425-.588-1.067-1.125-1.894-1.368v-.002l-4.706-1.445a5.653 5.653 0 0 0-.884-.192l.991-22.415Zm-5.986 64.888c-1.637-11.318-2.1-21.992-2.1-28.369 0-1.65.032-3.012.08-4.013.024-.5.053-.91.083-1.21.014-.151.03-.274.042-.362l.017-.1.005-.024c.172-.66.756-1.58 1.518-2.467.758-.894 1.667-1.771 2.436-2.524a3.043 3.043 0 0 1 2.13-.862c.302 0 .607.044.905.135l4.707 1.446.017.005c.203.062.356.17.543.418.276.362.51 1.039.626 1.718.01.06.016.116.025.175l-2.016-.875a1.3 1.3 0 1 0-1.034 2.386l2.79 1.21c.205.198.575.571.911.98.224.27.43.557.556.785a1.7 1.7 0 0 1 .124.262c-.089.284-.2.58-.32.872l-1.847-.995a1.3 1.3 0 0 0-1.234 2.289l2.646 1.425c.099.268.225.622.343.991.09.285.175.573.23.81.028.114.048.214.06.292a4.364 4.364 0 0 1-.114.18c-.046.068-.107.149-.162.226a1.28 1.28 0 0 0-1.03-.342 1.3 1.3 0 0 0-1.125 1.454c.003.029.946 7.41 3.156 17.004.491 2.13 1.048 4.37 1.667 6.662-.007.28.055.547.208.769 2.151 7.814 5.07 16.168 8.945 22.905l.136.193 2.378 2.8c1.282 1.51 2.752 3.243 3.495 4.127a1.3 1.3 0 1 0 1.99-1.673c-1.384-1.646-5.212-6.15-5.799-6.84a57.102 57.102 0 0 1-1.207-2.23c6.057 3.354 13.282 5.925 19.65 7.764a142.1 142.1 0 0 0 10.053 2.507c1.367.285 2.542.505 3.473.661.938.155 1.605.245 2.061.273.129.007.257.01.385.01 1.722-.008 3.601-.593 5.342-1.566 1.732-.98 3.328-2.359 4.295-4.131.214-.404.339-.817.458-1.3.2-.84.343-1.882.461-3.095.331-3.458.421-8.28.43-12.444.012-.087.039-.165.047-.254a1.273 1.273 0 0 0-.046-.462c-.001-4.331-.089-7.763-.089-7.77a1.298 1.298 0 0 0-1.054-1.243l-.012-.003c-.331-.066-7.051-1.44-17.402-6.24-7.899-3.662-15.495-6.37-21.684-7.885a21.716 21.716 0 0 1-4.494-1.625c-.053-.026-.089-.048-.139-.073l.1-.097a1.3 1.3 0 0 0-1.813-1.864l-1.328 1.292v.001c-.231.22-4.681 4.492-7.467 12.388-.175-.723-.345-1.44-.507-2.14a205.669 205.669 0 0 1-2.375-11.936c-.17-1.009-.305-1.87-.415-2.586.172-.136.332-.278.482-.43a9.705 9.705 0 0 0 1.334-1.738c.05-.086.095-.17.14-.262.043-.095.087-.185.134-.359l.001-.005c.05-.202.056-.354.058-.491-.006-.431-.087-.78-.182-1.169a20.251 20.251 0 0 0-.557-1.76c.074-.026.152-.035.222-.076 4.945-2.917 10.969-4.162 17.278-4.16.184 0 .37.015.553.017 1.815 1.443 3.718 3.383 5.298 5.146a31.3 31.3 0 0 0-5.509-1.146 1.667 1.667 0 0 1-.205.788 2.016 2.016 0 0 1-.369.481 3.08 3.08 0 0 1-.786.54c-.543.26-1.11.428-1.756.438-.19 0-.391-.017-.617-.075a1.822 1.822 0 0 1-.727-.374l-.003-.003.001.002a1.791 1.791 0 0 1-.439-.556 1.666 1.666 0 0 1-.177-.746c0-.18.035-.341.08-.49-.421.073-.83.166-1.213.303-.51.187-.996.442-1.412.839-.415.389-.737.952-.827 1.567a1.625 1.625 0 0 0-.021.258c0 .282.07.531.161.73.181.388.413.628.652.848.453.402.994.727 1.643 1.07 1.13.592 2.583 1.192 4.153 1.782 4.701 1.76 10.436 3.382 10.453 3.388a1.302 1.302 0 0 0 1.575-.803c.025-.082.489-1.317.495-2.932a7.57 7.57 0 0 0-.068-.94 1.3 1.3 0 0 0 .72-2.041c-.013-.017-1.275-1.694-3.131-3.828a64.648 64.648 0 0 0-3.793-4.02c3.547.326 7.105.982 10.535 1.91.301.11.585.224.85.344 1.065.478 1.808 1.025 2.278 1.654.466.633.731 1.373.738 2.5 0 .556-.072 1.202-.235 1.942l-.005.026a1.299 1.299 0 1 0 2.549.506h.001l.005-.02c.044-.219.448-2.08 1.306-4.436.557.224 1.123.442 1.664.678 3.635 1.583 6.887 3.41 9.5 5.31 2.615 1.897 4.583 3.878 5.67 5.673 1.277 2.104 2.179 3.974 2.818 5.656-.104-.118-.203-.234-.312-.353-1.258-1.359-2.883-2.77-4.631-3.877-.044-.028-.09-.051-.135-.079.02.102.042.204.041.305 0 .318-.095.591-.206.795a2.027 2.027 0 0 1-.369.48 3.078 3.078 0 0 1-.786.54c-.544.261-1.11.43-1.756.438-.19 0-.392-.016-.617-.075a1.814 1.814 0 0 1-.729-.375l.001.002-.003-.003h.002a1.798 1.798 0 0 1-.439-.553 1.679 1.679 0 0 1-.029-1.447c.087-.195.193-.352.304-.485.223-.265.466-.45.723-.604a3.536 3.536 0 0 1 1.77-.504c.442 0 .97.099 1.451.463l.003.003c.107.083.211.191.31.314.504-.242.822-.775.731-1.356a1.3 1.3 0 0 0-1.487-1.082l-6.145.969a1.3 1.3 0 0 0-1.082 1.486c.059.372.273.674.562.869-.312.794-.481 1.634-.591 2.308-.109.683-.147 1.183-.149 1.207a1.299 1.299 0 0 0 .728 1.268c.011.005 2.481 1.207 5.303 2.416 1.412.605 2.91 1.212 4.251 1.677.671.232 1.303.43 1.879.574.58.143 1.09.241 1.611.245.324-.008.672-.023 1.11-.256.084.761.128 1.487.128 2.167.006 2.38-.415 4.34-.425 6.363 0 .84.082 1.694.335 2.555.252.86.677 1.713 1.306 2.535 2.239 2.931 3.562 6.62 3.56 10.385-.008 4.286-1.674 8.671-5.728 12.36-4.056 3.684-10.576 6.665-20.299 7.824-.112.014-.209.063-.31.103a48.95 48.95 0 0 0-3.719-3.176 1.3 1.3 0 0 0-1.582 2.063c11.47 8.802 17.772 21.95 18.428 36.472.008.189.058.374.146.543l.009.017c.225.439 4.516 8.92 8.686 25.543.795 3.161 2.024 5.82 3.277 9.103 1.255 3.287 2.567 7.227 3.594 13.019.022.12.057.229.11.339l.01.02c.057.122.356.762.66 1.59.166.447.329.95.461 1.448H135.75c.062-.782.137-1.783.201-2.735a1.277 1.277 0 0 0-.26-.841 1.273 1.273 0 0 0-.252-.488c-2.612-3.088-7.673-9.076-8.632-10.241a28.678 28.678 0 0 1-.84-1.132c-1.439-2.004-4.187-5.987-6.566-9.457-1.191-1.736-2.29-3.346-3.092-4.521l-.128-.188a22.165 22.165 0 0 0 10.395-5.087c2.814-2.461 4.131-4.799 4.182-4.886a1.3 1.3 0 0 0-2.266-1.273h-.001l-.001.001c-.031.057-1.246 2.157-3.743 4.303a19.521 19.521 0 0 1-10.813 4.648c-.013 0-.025-.004-.038-.004l-9.967.242a1.3 1.3 0 0 0-1.212.921c-.454 1.497-1.296 3.314-2.327 5.178-1.546 2.8-3.513 5.719-5.215 8.024a64.044 64.044 0 0 1-2.263 2.907c-.313.376-.588.691-.805.927a5.038 5.038 0 0 1-.42.419l-11.791 9.447a1.3 1.3 0 0 0-.376 1.54c.248.549.475 1.511.608 2.296H65.903c.376-4.387 1.841-8.087 3.464-11.298.893-1.766 1.828-3.381 2.641-4.888.812-1.509 1.51-2.904 1.896-4.299.66-2.41 1.72-6.103 2.611-9.19.446-1.543.85-2.935 1.144-3.942l.474-1.626a1.298 1.298 0 0 0-.056-.886c-1.17-2.67-1.6-5.665-1.598-8.566-.001-3.412.592-6.68 1.189-9.081.298-1.2.596-2.183.818-2.862.11-.339.202-.602.266-.778l.072-.197.017-.047.005-.011c.059-.153.087-.306.087-.47V123.35a1.29 1.29 0 0 0-.08-.448c-1.54-4.188-2.347-9.001-2.753-12.85-.408-3.849-.423-6.738-.423-7.118v-.018a1.31 1.31 0 0 0-.145-.63c-4.63-8.93-7.458-20.904-9.09-32.22Zm66.266 6.886a5.17 5.17 0 0 0-1.53-1.96c-.963-.765-2.127-1.22-3.365-1.504-1.24-.282-2.567-.389-3.898-.39-.907 0-1.816.051-2.696.137l-.199.01c-.491-.004-.905-.171-1.472-.578-.842-.599-1.817-1.73-3.166-2.771a9.615 9.615 0 0 0-2.393-1.366 8.794 8.794 0 0 0-3.194-.574c-.201 0-.407.006-.616.018a8.12 8.12 0 0 1-.474.014c-1.148-.003-1.978-.245-2.725-.614-1.119-.55-2.047-1.468-3.195-2.389-.575-.455-1.213-.905-1.976-1.245a6.378 6.378 0 0 0-2.634-.556c-.34 0-.693.025-1.057.076-.362.05-.7.072-1.022.072-.84 0-1.567-.149-2.295-.389-1.089-.356-2.17-.947-3.452-1.495-1.194-.51-2.594-.948-4.257-1.003.478-.883.96-1.684 1.423-2.39a28.62 28.62 0 0 1 2.282-3.04c.09-.104.163-.184.242-.271 1.108.629 3.13 1.615 5.934 2.302 5.975 1.46 13.446 4.119 21.209 7.719 8.531 3.957 14.665 5.646 16.984 6.204l.022 1.261c.022 1.41.045 3.364.045 5.538l-.001.414a3.335 3.335 0 0 1-.964 1.852c-.573.569-1.422 1.048-2.441 1.445-.711.272-1.173.315-1.874.32-.422 0-.922-.024-1.528-.025-.542 0-.924-.07-1.176-.155-.378-.135-.473-.261-.545-.364a.703.703 0 0 1-.098-.367l.006-.095.003-.015c.069-.208.104-.303.286-.538.184-.23.545-.579 1.22-1.06.631-.45 1.149-.92 1.545-1.449.086-.115.164-.236.238-.36.173.193.321.396.425.63a1.3 1.3 0 1 0 2.379-1.049ZM91.47 64.356c.774.36 1.59.75 2.514 1.056a9.763 9.763 0 0 0 3.11.52c.443 0 .903-.03 1.382-.097.252-.035.484-.051.698-.051.827.005 1.416.211 2.044.572.937.536 1.877 1.519 3.165 2.465a9.418 9.418 0 0 0 2.274 1.243 8.68 8.68 0 0 0 3.047.524c.204 0 .413-.006.627-.018.16-.01.314-.014.463-.014 1.19.003 2.082.27 2.88.68 1.194.613 2.161 1.611 3.218 2.592.531.487 1.09.97 1.761 1.356.666.386 1.474.663 2.366.66.148 0 .298-.007.45-.021a25.416 25.416 0 0 1 2.445-.125c1.351-.002 2.639.142 3.7.433-.164.23-.493.575-1.004.933-.792.566-1.335 1.051-1.734 1.545a4.056 4.056 0 0 0-.747 1.404l.001-.004a2.94 2.94 0 0 0-.124.879 3.251 3.251 0 0 0 1.617 2.833c.73.434 1.657.653 2.801.654.532 0 1.016.023 1.528.023.835.005 1.777-.082 2.822-.498.845-.332 1.668-.74 2.415-1.271a147.43 147.43 0 0 1-.18 5.235c-.085 1.56-.202 2.97-.353 4.068-.075.549-.16 1.02-.246 1.38-.083.358-.182.612-.216.667-.438.82-1.17 1.61-2.044 2.282.003-.16.008-.319.008-.484-.002-1.284-.1-2.665-.392-3.85-.152-.595-.341-1.146-.686-1.66a2.549 2.549 0 0 0-.709-.711 2.058 2.058 0 0 0-1.125-.338l-.144.006v-.001l-.011.001h-.007c-1.004.072-2.074.225-3.14.356-1.07.133-2.133.243-3.069.243-.797.001-1.498-.083-2.013-.255-.522-.177-.838-.4-1.073-.727-.629-.887-1.498-1.498-2.426-1.946-1.398-.669-2.973-1.003-4.457-1.227-1.479-.22-2.878-.32-3.821-.437-.347-.043-.663-.194-1.107-.543-.659-.511-1.456-1.449-2.608-2.359a9.573 9.573 0 0 0-4.83-2.022c-1.947-.244-3.6-.2-4.79-.496-.6-.144-1.076-.347-1.513-.678-.435-.334-.854-.813-1.263-1.605-.24-.47-.59-.853-.971-1.136-.577-.426-1.213-.65-1.834-.785a8.752 8.752 0 0 0-1.82-.175c-1.454.002-2.656.263-2.774.288a147.012 147.012 0 0 1-1.846-6.218 35.133 35.133 0 0 1 2.072-6.415c.33-.037.65-.063.948-.063 1.819.002 3.161.603 4.72 1.332Zm38.088 31.42c.001.757-.046 1.465-.111 1.978-.949.358-1.878.566-2.603.56l-.236-.006c-.249-.013-.901-.094-1.783-.242-3.113-.518-9.32-1.844-16.095-3.96-6.76-2.108-14.102-5.022-19.514-8.64a99.971 99.971 0 0 1-2.808-7.258 11.866 11.866 0 0 1 1.94-.176c.597-.002 1.202.067 1.622.21.211.07.373.155.48.235a.682.682 0 0 1 .212.24c.546 1.066 1.22 1.89 2 2.483a6.22 6.22 0 0 0 1.848.96c.954.313 1.909.417 2.854.49.947.073 1.89.111 2.842.235 1.083.142 1.897.449 2.594.84 1.043.586 1.823 1.393 2.668 2.206.424.404.866.81 1.399 1.16.53.348 1.171.634 1.904.721 1.393.168 3.33.289 5.096.668.879.187 1.706.438 2.368.758.666.32 1.146.698 1.431 1.103.605.862 1.481 1.404 2.382 1.696.908.297 1.862.384 2.827.386 1.132-.001 2.287-.127 3.389-.263.983-.122 1.918-.249 2.73-.318.037.072.081.166.122.286.137.382.258.967.332 1.612.076.647.11 1.36.11 2.037Zm-30.151-49.29-.263.089a1.3 1.3 0 1 1-.833-2.463l.262-.09a1.3 1.3 0 1 1 .834 2.464Zm36.729 14.067-.262.09a1.3 1.3 0 0 1-.842-2.46l.263-.09a1.3 1.3 0 0 1 .841 2.46Z"/><path fill="#191C22" d="m76.407 18.57 5.418 1.248a3.184 3.184 0 0 0 2.907-.783 3.08 3.08 0 0 0 .971-2.194l.062-3.846V12.94c-.001-1.635-1.15-3.03-2.734-3.395L77.698 8.31a3.185 3.185 0 0 0-2.889.759 3.076 3.076 0 0 0-.993 2.15l-.146 3.821-.003.136c.001 1.634 1.15 3.032 2.74 3.395Zm.008-7.255a.47.47 0 0 1 .158-.336.586.586 0 0 1 .395-.154l.141.017 5.335 1.237c.444.105.722.474.721.862v.012l-.062 3.846a.472.472 0 0 1-.155.344.584.584 0 0 1-.4.158l-.14-.017-5.418-1.248c-.447-.105-.724-.475-.723-.86v-.033l.147-3.826-1.299-.05 1.3.048ZM89.952 44.167l.002-.005v-.005l-.002.01Z"/></g><defs><clipPath id="a"><path fill="#fff" d="M28 1h131.681v197.6H28z"/></clipPath></defs></svg>