<svg xmlns="http://www.w3.org/2000/svg" width="200" height="200" fill="none"><g fill="#FFD93A"><path d="M148.457 64.44c.112-1.286.183-2.583.183-3.897 0-25.473-19.549-48.262-54.829-48.262S38.982 35.07 38.982 60.543a42.564 42.564 0 0 0 8.788 26.115 66.702 66.702 0 0 0-1.454 13.94 60.458 60.458 0 0 0 1.268 12.342 11.23 11.23 0 0 1 5.927.557c2.236.895 4.879 3.05 4.553 6.384 0 0 33.948 6.652 35.52 5.536 3.013-2.143 8.779-3.647 12.458-2.487 2.398.756 5.529 2.179 5.204 5.513 0 0 5.504.974 5.504 4.724l.083 20.833c24.834-4.417 42.843-26.035 42.843-53.402 0-13.334-3.85-26.054-11.219-36.158ZM85.169 147.966a10.08 10.08 0 0 0-8.032-9.007l-27.448-4.854a6.549 6.549 0 0 0-7.06 3.875 6.551 6.551 0 0 0-.531 2.818l.298 39.162.006.807 43.072 7.168-.007-.806-.298-39.163Z"/></g><g fill="#191C22"><path d="M188.329 67.573a14.82 14.82 0 0 0 3.048-3.578 8.13 8.13 0 0 0 1.185-4.105 7.603 7.603 0 0 0-.892-3.518 8.02 8.02 0 0 0-3.679-3.582 11.943 11.943 0 0 0-5.249-1.075c-3.125.091-6.212.72-9.125 1.857a54.496 54.496 0 0 0-14.456 8.218 53.123 53.123 0 0 0-6.128 5.61 45.125 45.125 0 0 0-3.338-11.812 47.727 47.727 0 0 0-6.218-19.352l-.006-.025a1.356 1.356 0 0 0-.06-.176c-.049-.115-.076-.162-.122-.252a20.368 20.368 0 0 0-1.083-1.732c-.39-.57-.885-1.252-1.484-2.013a46.867 46.867 0 0 0-5.369-6.118 50.221 50.221 0 0 0-13.311-9.06 6.76 6.76 0 0 1 .382-1.26c.194-.454.462-.871.794-1.236a4.543 4.543 0 1 0-1.695-2.02 7.492 7.492 0 0 0-1.899 3.443 66.955 66.955 0 0 0-25.813-4.806 66.446 66.446 0 0 0-26.771 5.208c-.34-.62-.73-1.21-1.168-1.765a10.774 10.774 0 0 0-3.266-2.777 10.373 10.373 0 0 0-3.276-1.097 4.554 4.554 0 1 0 .125 2.663 7.675 7.675 0 0 1 1.907.717 8.686 8.686 0 0 1 3.267 3.268c.019.032.03.058.047.09a49.984 49.984 0 0 0-12.408 8.632c-.149.142-.287.293-.434.437a39.988 39.988 0 0 0-7.847 9.935c-.06.13-.098.27-.112.413a48.071 48.071 0 0 0-6.159 22.39 50.945 50.945 0 0 0-9.334-4.64 27.273 27.273 0 0 0-9.125-1.858 11.944 11.944 0 0 0-5.249 1.075 8.015 8.015 0 0 0-3.678 3.582 7.607 7.607 0 0 0-.893 3.518 8.135 8.135 0 0 0 1.185 4.105 19.077 19.077 0 0 0 6.238 5.973 61.085 61.085 0 0 0 15.028 6.592c3.087.936 6.225 1.7 9.397 2.286a42.487 42.487 0 0 0 3.833 17.283 69.848 69.848 0 0 0-.102 3.587c0 1.106.035 2.201.091 3.291a37.7 37.7 0 0 0-2.4 1.595 21.674 21.674 0 0 0-2.095 1.702 10.84 10.84 0 0 0-1.037 1.107 6.558 6.558 0 0 0-1 1.669 6.476 6.476 0 0 0-.496 2.41c-.002.913.24 1.81.701 2.599a5.247 5.247 0 0 0-4.19 1.101l.008-.007-3.76 3.05a1.285 1.285 0 0 0-.145.175c-.066.06-.143.105-.205.168a5.323 5.323 0 0 0-1.508 3.799v.011l.088 49.225-1.738-.295a7.848 7.848 0 0 0-6.112 1.517 2.798 2.798 0 0 0-1.102 2.225c0 .642.216 1.265.613 1.768a2.794 2.794 0 0 0 1.733 1.02l96.559 16.458a8.017 8.017 0 0 0 6.178-1.506l.003.004.001-.001.072-.052a2.76 2.76 0 0 0 1.087-2.197c0-.634-.213-1.249-.605-1.746a2.757 2.757 0 0 0-1.713-1.007l-5.542-.945-.057-32.264a56.2 56.2 0 0 0 20.137-9.135c-.054 1.694-.08 3.425-.08 5.203 0 .677.013 1.384.018 2.074a8.599 8.599 0 0 0-3.9 3.813 15.906 15.906 0 0 0-1.494 7.031c.005.108.024.214.056.317-.17.233-.352.451-.505.705a6.72 6.72 0 0 0-.772 2.221c-.156.889-.23 1.79-.222 2.693.016 2.121.304 4.232.859 6.28a16.17 16.17 0 0 0 2.6 5.633 9.026 9.026 0 0 0 3.876 2.778c1.585.601 3.267.902 4.962.888 3.199.03 6.32-.981 8.893-2.882a10.21 10.21 0 0 0 3.387-4.92c.611-1.925.905-3.936.871-5.955a36.908 36.908 0 0 0-.932-7.772 20.306 20.306 0 0 0-3.497-8.026 10.927 10.927 0 0 0-3.39-2.937 9.502 9.502 0 0 0-2.805-.969c-.002-.323-.005-.653-.005-.972a96.528 96.528 0 0 1 .708-13.043 54.85 54.85 0 0 0 12.099-23.58c.627.489 1.269.975 1.943 1.451a36.832 36.832 0 0 0 12.33 5.784l.009-.034c1.127.354 2.275.641 3.436.859a1.302 1.302 0 0 0 1.487-1.069 1.298 1.298 0 0 0-1.057-1.495l-.015-.003a27.957 27.957 0 0 1-3.211-.815l.497-1.96c1.964.562 3.407.81 3.441.816a1.299 1.299 0 0 0 .434-2.563l-.079-.014a34.642 34.642 0 0 1-3.157-.76l.496-1.955c1.958.51 3.422.762 3.447.767a1.3 1.3 0 0 0 .438-2.563l-.08-.014a45.67 45.67 0 0 1-3.166-.71l.03-.119a24.241 24.241 0 0 1-7.518-3.381 45.213 45.213 0 0 1-4.967-3.884c-1.009-.885-2.029-1.828-3.073-2.79-.001-.226-.012-.451-.014-.677.592.295 1.194.588 1.822.873a37.7 37.7 0 0 0 6.476 2.276c2.52.623 5.107.938 7.703.936.629 0 1.266-.018 1.911-.055l-.002-.036.188.003a27.36 27.36 0 0 0 3.63-.22c.17-.024.333-.081.48-.169a1.29 1.29 0 0 0 .623-1.307 1.305 1.305 0 0 0-.513-.856 1.287 1.287 0 0 0-.46-.216 1.28 1.28 0 0 0-.508-.024l-.008.001c-1.076.133-2.16.197-3.244.191-.108 0-.225-.004-.336-.005l-.115-2.028a32.023 32.023 0 0 0 3.605-.29 1.301 1.301 0 0 0-.396-2.57l-.069.01c-1.09.143-2.188.227-3.288.253l-.115-2.033c1.953-.134 3.364-.359 3.392-.363a1.297 1.297 0 0 0 1.066-1.488 1.3 1.3 0 0 0-1.48-1.079l-.077.012c-.307.047-1.501.215-3.049.323l-.005-.09a20.236 20.236 0 0 1-7.548-.976 49.011 49.011 0 0 1-8.933-4.308c-.811-.456-1.644-.922-2.504-1.385a63.194 63.194 0 0 0-1.655-5.812 83.316 83.316 0 0 0 20.988-5.89 38.41 38.41 0 0 0 9.79-5.893Zm-34.89 8.293a59.151 59.151 0 0 1 2.701 7.764 34.171 34.171 0 0 0-3.623-1.446c.498-2.074.806-4.189.922-6.318ZM48.914 33.688a22.763 22.763 0 0 1 4.912-4.584 14.973 14.973 0 0 1 8.39-2.74c2.073.005 4.117.497 5.966 1.436a17.259 17.259 0 0 1 5.107 4.11c2.248 2.49 4.21 5.496 7.002 7.964a16.726 16.726 0 0 0 4.961 3.082 18.537 18.537 0 0 0 6.879 1.209 17.417 17.417 0 0 0 9.2-2.584c3.861-2.327 6.794-5.716 9.896-8.593a29.316 29.316 0 0 1 4.853-3.79 15.627 15.627 0 0 1 5.762-2.115c.917-.14 1.844-.211 2.772-.212 3.186-.005 6.31.876 9.024 2.545a21.52 21.52 0 0 1 6.271 5.995 45.37 45.37 0 0 1 7.431 25.132 41.484 41.484 0 0 1-14.429 31.637c-9.259 8.112-22.642 13.185-39.1 13.187-16.459-.002-29.842-5.075-39.1-13.187a41.49 41.49 0 0 1-14.43-31.637 45.208 45.208 0 0 1 8.633-26.855ZM24.509 71.97a35.96 35.96 0 0 1-9.117-5.463c-.99-.84-1.842-1.83-2.522-2.936a5.54 5.54 0 0 1-.832-2.799c.008-.812.215-1.61.601-2.324a5.392 5.392 0 0 1 2.507-2.438 9.385 9.385 0 0 1 4.11-.813 24.76 24.76 0 0 1 8.234 1.7 49.564 49.564 0 0 1 10.234 5.288 44.182 44.182 0 0 0 3.063 14.793A79.988 79.988 0 0 1 24.51 71.97Zm67.586 46.959c20.863 0 38.846-7.107 49.867-18.294l-.271.78a21.436 21.436 0 0 1 6.119 3.496c1.362 1.055 2.758 2.298 4.231 3.646-6.66 11.153-18.443 19.768-34.007 24.041a7.106 7.106 0 0 0-.695-1.45 17.581 17.581 0 0 0 5.083-2.074 16.963 16.963 0 0 0 3.1-2.398c.839-.81 1.56-1.734 2.143-2.744a4 4 0 0 0-6.98-3.908c-.217.35-.478.67-.777.952a9.32 9.32 0 0 1-2.679 1.805 9.226 9.226 0 0 1-3.796.824 10.33 10.33 0 0 1-4.136-.906 3.927 3.927 0 0 0-.9-.259 16.654 16.654 0 0 0-1.965-.749 14.704 14.704 0 0 0-4.407-.667 13.55 13.55 0 0 0-7.802 2.338 8.451 8.451 0 0 0-1.211 1.064l-33.67-5.882a6.889 6.889 0 0 0-1.786-3.821 9.735 9.735 0 0 0-3.563-2.433 11.92 11.92 0 0 0-5.264-.787c-.064-.133-.123-.27-.185-.404a59.49 59.49 0 0 1-.911-9.732c7.638 11.225 22.25 17.562 44.462 17.562Zm10.937 9.756a1.297 1.297 0 0 0-1.566.874 52.313 52.313 0 0 0-1.57 6.78c-.008.063-.052.172-.243.307-.232.151-.503.23-.78.228a1.233 1.233 0 0 1-.825-.295 1.987 1.987 0 0 1-.58-1.273 9.871 9.871 0 0 1-.103-1.429c.006-1.47.318-2.922.913-4.266a1.298 1.298 0 0 0-1.669-1.721c-.32.125-.577.371-.715.686a13.225 13.225 0 0 0-1.12 5.111c-.003.009-.01.015-.013.024a1.677 1.677 0 0 1-1.516 1.361.92.92 0 0 1-.676-.274 1.836 1.836 0 0 1-.44-1.21l-.007-.202a9.041 9.041 0 0 1 .204-1.699 13.927 13.927 0 0 1 1.186-3.444 7.546 7.546 0 0 1 2.218-2.762 10.985 10.985 0 0 1 6.295-1.857 12.104 12.104 0 0 1 3.625.546 9.978 9.978 0 0 1 3.062 1.452c.375.279.69.63.927 1.033.169.32.269.672.295 1.032l-3.186 1.785a1.293 1.293 0 0 0-.665 1.105 21.861 21.861 0 0 1-.345 4.142c-.076.42-.237.819-.473 1.174a.51.51 0 0 1-.161.146.337.337 0 0 1-.171.034l-.062-.002a.757.757 0 0 1-.458-.167 1.888 1.888 0 0 1-.512-.987 7.546 7.546 0 0 1-.198-1.858c.004-.67.051-1.338.141-2.001.035-.267.07-.486.096-.635l.031-.168.008-.041.001-.008a1.298 1.298 0 0 0-.948-1.521Zm-46.267-6.88 1.784-.718c.02-.009.037-.023.057-.033l32.746 5.722c-.175.326-.34.655-.488.986l-34.1-5.957Zm-6.922-1.938a1.298 1.298 0 0 0-1.501.953 40.506 40.506 0 0 0-.963 5.914l-.01.037a.37.37 0 0 1-.16.118 1.13 1.13 0 0 1-.477.095 1.558 1.558 0 0 1-1.007-.377 2.262 2.262 0 0 1-.706-1.462 10.93 10.93 0 0 1-.143-1.604c.016-1.13.29-2.242.8-3.251a1.302 1.302 0 0 0-.64-1.716 1.304 1.304 0 0 0-1.72.626 10.64 10.64 0 0 0-.992 3.43 1.249 1.249 0 0 0-.094.185v-.001c-.107.44-.334.841-.656 1.159a.89.89 0 0 1-.564.275c-.11-.01-.159-.011-.301-.166a2.196 2.196 0 0 1-.376-1.243 7.236 7.236 0 0 1-.017-.505 9.318 9.318 0 0 1 .573-3.201 6.506 6.506 0 0 1 2.31-3.084 11.244 11.244 0 0 1 6.365-1.979 9.321 9.321 0 0 1 3.464.634 7.166 7.166 0 0 1 2.6 1.764 4.225 4.225 0 0 1 1.13 2.536l-2.391.962a1.297 1.297 0 0 0-.814 1.178c.009 1.53-.11 3.059-.357 4.569a4.328 4.328 0 0 1-.527 1.481.665.665 0 0 1-.19.202l-.102.025-.038-.002a.878.878 0 0 1-.599-.273 3.378 3.378 0 0 1-.721-1.641c-.155-.799-.23-1.61-.22-2.423a17.746 17.746 0 0 1 .08-1.661l.01-.094.002-.024a1.296 1.296 0 0 0-1.048-1.436Zm-13.607-1.782.008-.007a2.642 2.642 0 0 1 1.71-.58c.203 0 .405.018.604.054l.163.028a10.42 10.42 0 0 0-.265.636c-.047.124-.075.245-.117.369l-2.238-.391.135-.109Zm7.458 61.625-.077-10.068a14.88 14.88 0 0 0 10.165 6.456v.001l1.799.31.092 5.342-11.979-2.041Zm-.297-38.895a5.648 5.648 0 0 1 1.579-3.995 5.158 5.158 0 0 1 3.696-1.486c.277 0 .554.019.829.058l5.644.998.074 14.551-1.303-.226v.001a12.572 12.572 0 0 0-2.478-.254 10.12 10.12 0 0 0-7.35 2.983 9.46 9.46 0 0 0-.59.669l-.1-13.299Zm27.86 12.904-.023-14.484 5.66 1.001a8.792 8.792 0 0 1 4.885 2.871 8.072 8.072 0 0 1 2.09 4.9l.1 13.051a15.016 15.016 0 0 0-10.496-6.953v-.002l-2.217-.384Zm-2.623-14.758.022 14.308-10.835-1.878-.073-14.541 10.922 1.932a1.194 1.194 0 0 0-.036.179ZM58.28 182.196l-.092-5.338 10.775 1.854-.006 5.304-10.677-1.82Zm13.277 2.262.007-6.84a1.304 1.304 0 0 0-1.08-1.282l-16.262-2.799-.032-.005a12.411 12.411 0 0 1-7.386-4.003 11.295 11.295 0 0 1-2.996-7.486c0-.093.002-.187.004-.28.004-.12-.01-.239-.039-.355l-.019-.076-.003-.197a8.224 8.224 0 0 1 2.197-5.875 7.523 7.523 0 0 1 5.49-2.198c.67.002 1.338.071 1.995.208l.038.007 19.557 3.388.034.006a12.405 12.405 0 0 1 7.386 4.002 11.295 11.295 0 0 1 2.995 7.486c0 .093-.001.187-.004.281-.003.12.01.24.04.357l.018.071v.029a7.93 7.93 0 0 1-1.898 5.26 8.723 8.723 0 0 1-4.465 2.74 1.299 1.299 0 1 0 .638 2.52 11.309 11.309 0 0 0 5.802-3.57c.175-.204.341-.418.501-.637l.088 11.397-12.606-2.149Zm15.21 2.593-.3-39.094v-.038a10.646 10.646 0 0 0-2.735-6.527 11.377 11.377 0 0 0-6.352-3.71l-.018-.003-27.447-4.854-.046-.007a8.573 8.573 0 0 0-1.198-.084 7.748 7.748 0 0 0-5.535 2.248 8.252 8.252 0 0 0-2.34 5.797v.029l.294 38.458-9.414-1.605-.097-54.398v-.006a2.713 2.713 0 0 1 .75-1.964 2.603 2.603 0 0 1 1.885-.738c.202.001.403.019.602.054l2.97.519c-.043.43-.07.841-.071 1.206 0 .246.008.476.023.687.03.987.37 1.94.97 2.723a2.978 2.978 0 0 0 2.3 1.104 3.276 3.276 0 0 0 1.634-.466 4.629 4.629 0 0 0 1.39 2.199 4.157 4.157 0 0 0 2.7 1.003 3.58 3.58 0 0 0 2.06-.619c.232-.169.438-.371.61-.601.148.223.315.432.502.623a3.504 3.504 0 0 0 2.237 1.025h.006l.23.009a2.778 2.778 0 0 0 1.447-.4 3.75 3.75 0 0 0 1.451-1.82c.407-1.086.652-2.226.727-3.383l.008-.106 33.994 5.94c-.082.31-.167.623-.226.916a11.511 11.511 0 0 0-.257 2.218c0 .132.004.26.013.385a4.41 4.41 0 0 0 1.189 2.86 3.533 3.533 0 0 0 2.521 1.041 3.91 3.91 0 0 0 2.054-.603c.233.56.588 1.061 1.039 1.468.703.61 1.605.943 2.535.937a4 4 0 0 0 2.253-.685 3.192 3.192 0 0 0 1.146-1.383c.145.185.31.354.489.506a3.37 3.37 0 0 0 1.912.751l.26.01c.474.003.942-.108 1.364-.323a3.467 3.467 0 0 0 1.49-1.623 9.41 9.41 0 0 0 .747-3.065l.012-.153a4.56 4.56 0 0 1 2.431 1.5 4.37 4.37 0 0 1 1.091 2.776l.095 53.594-25.396-4.328Zm27.989 4.77c0-.012.007-.023.007-.035l-.003-1.42-.093-52.585a6.96 6.96 0 0 0-1.713-4.459 7.184 7.184 0 0 0-3.637-2.31l1.494-.836 1.296.226a4.523 4.523 0 0 1 2.609 1.549 4.374 4.374 0 0 1 1.092 2.776l.1 56.609.001.682-1.153-.197Zm21.545-31.614a6.845 6.845 0 0 1 1.933-3.269 66.168 66.168 0 0 0-.9 4.556c-.071.03-.145.05-.215.081-.424.192-.834.412-1.229.659a13.46 13.46 0 0 1 .411-2.027Zm11.772-4.44a9.418 9.418 0 0 1 3.596 3.79 20.058 20.058 0 0 1 1.99 5.447c.157.709.298 1.478.427 2.268.28 1.633.428 3.287.444 4.944a16.084 16.084 0 0 1-.733 5.118 7.604 7.604 0 0 1-2.512 3.697 12.16 12.16 0 0 1-7.306 2.342 11.083 11.083 0 0 1-4.013-.709 6.449 6.449 0 0 1-2.775-1.956 13.68 13.68 0 0 1-2.14-4.713 22.176 22.176 0 0 1-.769-5.601c-.008-.744.052-1.486.178-2.219.071-.474.222-.933.446-1.357a7.198 7.198 0 0 1 3.285-2.874 10.891 10.891 0 0 1 4.461-.889c1.356 0 2.704.206 3.998.611a8.016 8.016 0 0 1 2.826 1.478 1.303 1.303 0 0 0 1.835-.114c.025-.028.033-.064.055-.094a1.29 1.29 0 0 0-.168-1.74v-.001a9.237 9.237 0 0 0-2.177-1.376 32.527 32.527 0 0 0-1.513-5.337 3.966 3.966 0 0 0-.792-1.26c.47.133.925.316 1.357.545Zm-4.698-16.957a52.262 52.262 0 0 1-24.936 13.981l-.011-6.717c17.92-4.377 30.998-14.434 37.204-27.7a51.5 51.5 0 0 1-12.257 20.436Zm13.273-61.947a59.084 59.084 0 0 0-2.889-6.374 52.03 52.03 0 0 1 11.492-9.826 48.7 48.7 0 0 1 9.257-4.649 24.763 24.763 0 0 1 8.233-1.699 9.389 9.389 0 0 1 4.111.812 5.397 5.397 0 0 1 2.507 2.44c.386.714.593 1.511.602 2.323a5.543 5.543 0 0 1-.833 2.798 16.629 16.629 0 0 1-5.405 5.098 58.611 58.611 0 0 1-14.368 6.286 81.624 81.624 0 0 1-12.707 2.791Z"/><path d="M114.611 74.518c5.243.035 6.937-15.425-.242-15.425-7.099 0-5.558 15.386.242 15.425ZM72.945 74.507c4.955.3 5.927-15.683-.864-15.403-6.714.277-5.265 15.031.864 15.403ZM84.97 78.147a10.936 10.936 0 0 0 3.971 3.217c1.375.637 2.873.964 4.388.957a11.97 11.97 0 0 0 5.523-1.385 8.748 8.748 0 0 0 3.628-3.311c.084-.15.137-.315.156-.485a1.294 1.294 0 0 0-1.152-1.44 1.299 1.299 0 0 0-1.283.675 6.264 6.264 0 0 1-2.562 2.261 9.383 9.383 0 0 1-4.31 1.085 7.718 7.718 0 0 1-3.287-.713 8.33 8.33 0 0 1-3.028-2.468 1.302 1.302 0 0 0-2.156.167 1.298 1.298 0 0 0 .111 1.44Z"/></g></svg>