<svg xmlns="http://www.w3.org/2000/svg" width="200" height="200" fill="none"><path fill="#BEBEC9" d="M198.485 106.34a8.994 8.994 0 0 0-4.496-4.603 16.264 16.264 0 0 0-7.167-1.472c-6.124.009-13.727 2.435-21.446 7.784a1.943 1.943 0 0 0-.803 1.246 1.938 1.938 0 0 0 .858 1.972c.214.138.453.232.703.276a1.935 1.935 0 0 0 1.448-.316h-.001c7.173-4.988 14.147-7.104 19.241-7.094a12.46 12.46 0 0 1 5.459 1.075 5.123 5.123 0 0 1 2.629 2.608 8.929 8.929 0 0 1 .705 3.424 10.015 10.015 0 0 1-2.045 5.818c-2.107 2.99-6.014 6.047-11.753 8.705a90.157 90.157 0 0 1-22.413 6.499 76.285 76.285 0 0 0-5.238-6.874 1.939 1.939 0 0 0-2.071-.583 1.926 1.926 0 0 0-1.126.964 1.946 1.946 0 0 0-.112 1.478c.08.242.206.465.372.658a74.376 74.376 0 0 1 11.869 19.18 1.927 1.927 0 0 0 1.058 1.034 1.925 1.925 0 0 0 1.48-.017 1.919 1.919 0 0 0 1.035-1.058 1.925 1.925 0 0 0-.017-1.48 80.014 80.014 0 0 0-5.008-9.775c11.877-2.189 21.008-5.5 27.374-9.534a27.063 27.063 0 0 0 7.707-6.962 13.883 13.883 0 0 0 2.756-8.053 12.788 12.788 0 0 0-.998-4.9ZM45.006 125.325a76.266 76.266 0 0 0-5.239 6.772c-11.884-2.127-20.827-5.41-26.68-9.149a23.158 23.158 0 0 1-6.574-5.911 10 10 0 0 1-2.03-5.797 8.907 8.907 0 0 1 .706-3.424 5.119 5.119 0 0 1 2.628-2.608 12.464 12.464 0 0 1 5.46-1.075c5.016-.01 11.858 2.042 18.915 6.869a1.933 1.933 0 0 0 2.181-3.194c-7.6-5.18-15.065-7.534-21.096-7.543-2.47-.06-4.921.443-7.167 1.472a8.993 8.993 0 0 0-4.496 4.603 12.792 12.792 0 0 0-.999 4.9 13.868 13.868 0 0 0 2.737 8.026c2.668 3.768 7.096 7.103 13.191 9.954a90.144 90.144 0 0 0 20.95 6.383 78.454 78.454 0 0 0-5.204 10.047 1.932 1.932 0 0 0 1.753 2.696 1.943 1.943 0 0 0 1.375-.55c.182-.177.327-.388.427-.622a73.73 73.73 0 0 1 12.082-19.312 1.934 1.934 0 0 0-2.92-2.537Z"/><path fill="#FFE632" d="M173.455 173.126a85.511 85.511 0 0 0-6.6-27.562 1.923 1.923 0 0 0-1.059-1.035 1.925 1.925 0 0 0-1.48.017 1.911 1.911 0 0 0-.701.522 42.898 42.898 0 0 1-6.183 3.514c-9.633 4.629-28.658 10.975-57.548 10.975-22.551-.001-38.72-3.748-49.221-7.462a79.097 79.097 0 0 1-11.589-5.079 43.57 43.57 0 0 1-2.77-1.641 23.108 23.108 0 0 1-.656-.442l-.15-.107-.03-.023-.002-.001a2.215 2.215 0 0 0-2.598.133 2.2 2.2 0 0 0-.579.715 81.212 81.212 0 0 0-6.463 28.636 1.934 1.934 0 0 0 3.865.162 77.465 77.465 0 0 1 5.357-25.294c6.035 3.702 26.64 14.277 64.836 14.271 19.64 0 34.9-2.876 45.898-6.241a95.195 95.195 0 0 0 13.326-5.115 55.586 55.586 0 0 0 5.09-2.751 81.968 81.968 0 0 1 5.399 24.083 1.93 1.93 0 0 0 2.066 1.792 1.935 1.935 0 0 0 1.792-2.067Z"/><path fill="#BEBEC9" d="m70.466 98.506.012-1.934a2.495 2.495 0 0 1-1.562-.593 7.642 7.642 0 0 1-2.181-3.422 15.87 15.87 0 0 1-.884-5.246 10.602 10.602 0 0 1 1.208-5.306 3.97 3.97 0 0 1 1.294-1.373 3.314 3.314 0 0 1 1.794-.472 3.369 3.369 0 0 1 1.84.487c.396.254.742.582 1.017.964a7.26 7.26 0 0 1 1.117 2.508c.272 1.108.405 2.245.396 3.386a15.581 15.581 0 0 1-1.417 6.64 5.99 5.99 0 0 1-1.394 1.913c-.329.315-.763.498-1.218.514h-.054l.032 1.934.012-1.934-.012 1.934.031 1.934-.009-.557v.557h.01l-.01-.557v.557a5.732 5.732 0 0 0 3.71-1.423 11.31 11.31 0 0 0 3.156-5.065 20.475 20.475 0 0 0 1.03-6.447 14.748 14.748 0 0 0-1.753-7.412 7.898 7.898 0 0 0-2.601-2.73 7.538 7.538 0 0 0-7.704-.025 7.529 7.529 0 0 0-2.064 1.904 10.856 10.856 0 0 0-1.756 3.779 16.979 16.979 0 0 0-.523 4.29 18.656 18.656 0 0 0 1.973 8.514 9.947 9.947 0 0 0 2.576 3.2 6.385 6.385 0 0 0 3.92 1.415h.045l-.031-1.934ZM126.45 98.506l.013 1.934a6.387 6.387 0 0 0 3.921-1.415 11.362 11.362 0 0 0 3.436-5.159 19.72 19.72 0 0 0 1.112-6.555 14.33 14.33 0 0 0-1.762-7.3 7.835 7.835 0 0 0-2.581-2.673 7.536 7.536 0 0 0-7.704.025 7.597 7.597 0 0 0-2.082 1.946 11.095 11.095 0 0 0-1.755 3.847 17.605 17.605 0 0 0-.518 4.349 19.35 19.35 0 0 0 1.822 8.364 9.756 9.756 0 0 0 2.365 3.148 5.731 5.731 0 0 0 3.71 1.423v-.343l-.006.343h.006v-.343l-.006.343h.042l-.013-1.934.028-1.934h-.051a1.85 1.85 0 0 1-1.218-.514 7.635 7.635 0 0 1-1.984-3.346 16.629 16.629 0 0 1-.827-5.207 11.032 11.032 0 0 1 1.215-5.442 4.04 4.04 0 0 1 1.316-1.416 3.37 3.37 0 0 1 1.839-.487 3.316 3.316 0 0 1 1.794.472 3.67 3.67 0 0 1 1 .935 7.033 7.033 0 0 1 1.105 2.438c.272 1.08.405 2.191.397 3.306a14.892 14.892 0 0 1-1.521 6.698 6.15 6.15 0 0 1-1.544 1.97c-.437.372-.989.58-1.562.593l.013 1.934.028-1.934-.028 1.934ZM106.788 102.307a10.931 10.931 0 0 1-8.303 3.738 10.941 10.941 0 0 1-8.258-3.838 1.931 1.931 0 0 0-2.069-.583 1.942 1.942 0 0 0-1.125.962 1.93 1.93 0 0 0 .253 2.134 14.811 14.811 0 0 0 22.412.135 1.931 1.931 0 0 0-.18-2.728 1.935 1.935 0 0 0-2.729.18h-.001ZM156.349 47.02a69.565 69.565 0 0 0-25.43-17.501c.116-1.05.372-2.078.762-3.058a9.611 9.611 0 0 1 1.771-2.86c.08.061.153.134.236.191a7.486 7.486 0 0 0 11.439-4.082 7.482 7.482 0 0 0-.158-4.642l-1.817.661 1.817-.661a7.486 7.486 0 1 0-14.067 5.12c.044.123.109.232.16.351a13.271 13.271 0 0 0-2.966 4.47 15.468 15.468 0 0 0-.882 3.116 85.72 85.72 0 0 0-52.87-.692 15.41 15.41 0 0 0-.71-2.36 13.295 13.295 0 0 0-2.99-4.535c.05-.119.115-.227.16-.35a7.486 7.486 0 0 0-14.067-5.12 7.484 7.484 0 0 0 11.28 8.724c.082-.056.153-.128.234-.188a9.608 9.608 0 0 1 1.792 2.903c.28.707.49 1.439.628 2.187a71.275 71.275 0 0 0-27.71 18.304 1.934 1.934 0 0 0 2.845 2.62 67.143 67.143 0 0 1 24.92-16.791 1.93 1.93 0 0 0 3.825.508c.1-.646.158-1.297.174-1.95a81.806 81.806 0 0 1 52.285.751c.032.404.081.805.145 1.202a1.928 1.928 0 0 0 3.72.343 65.423 65.423 0 0 1 22.611 15.94 1.934 1.934 0 0 0 2.863-2.601Zm-21.391-31.446a3.624 3.624 0 0 1 5.032-.924 3.59 3.59 0 0 1 1.344 1.74 3.618 3.618 0 1 1-6.376-.816Zm-69.133 5.031a3.606 3.606 0 0 1-3.292.422 3.59 3.59 0 0 1-1.74-1.345 3.605 3.605 0 0 1-.422-3.29l-1.817-.663 1.818.661a3.586 3.586 0 0 1 1.343-1.74 3.604 3.604 0 0 1 3.292-.42 3.587 3.587 0 0 1 1.74 1.344 3.61 3.61 0 0 1 .422 3.292 3.59 3.59 0 0 1-1.344 1.74Z"/><path fill="#FFE632" d="M172.034 82.5a60.315 60.315 0 0 0-15.686-35.48c-.091-.1-.192-.19-.302-.269-3.178-3.448-8.438-6.072-15.353-6.067-2.749.019-5.484.389-8.139 1.1a25.9 25.9 0 0 0-9.149 4.46c-1.856 1.382-3.465 2.868-5.028 4.285a34.466 34.466 0 0 1-7.365 5.526 23.154 23.154 0 0 1-10.981 2.394 24.386 24.386 0 0 1-10.144-1.955 25.617 25.617 0 0 1-5.383-3.31c-2.477-1.921-4.772-4.196-7.518-6.31a27.236 27.236 0 0 0-10.197-5.094 32.806 32.806 0 0 0-8.008-1.05c-7.067-.004-12.241 2.704-15.34 5.898a1.915 1.915 0 0 0-.481.37 58.09 58.09 0 0 0-15.707 36.458 70.783 70.783 0 0 0-.093 3.62 57.083 57.083 0 0 0 3.837 21.193 49.875 49.875 0 0 0 10.629 16.411l.15.139c.276.245 17.676 14.563 58.107 14.552 20.215.001 34.666-3.622 44.092-7.286 9.428-3.663 13.826-7.361 13.969-7.483l.133-.125a49.098 49.098 0 0 0 10.429-15.877 53.698 53.698 0 0 0 3.784-20.317 67.34 67.34 0 0 0-.256-5.783Zm-7.113 24.647a45.218 45.218 0 0 1-9.553 14.565c-.596.478-4.793 3.713-13.218 6.932-8.999 3.436-22.823 6.858-42.267 6.859-19.757-.001-33.728-3.482-42.731-6.924a63.323 63.323 0 0 1-9.879-4.701 35.14 35.14 0 0 1-2.33-1.512c-.25-.178-.431-.315-.545-.403l-.065-.051a45.971 45.971 0 0 1-9.74-15.069 53.213 53.213 0 0 1-3.566-19.766c0-1.122.03-2.263.09-3.423a54.1 54.1 0 0 1 14.179-33.46c.177-.102.336-.231.472-.383 2.294-2.621 6.541-5.207 13.013-5.212 2.384.018 4.757.332 7.064.932a22.693 22.693 0 0 1 7.945 3.786c3.401 2.437 6.304 5.613 10.22 8.296a26.123 26.123 0 0 0 6.806 3.368 29.843 29.843 0 0 0 9.215 1.336 25.998 25.998 0 0 0 17.649-6.062c2.623-2.113 4.808-4.373 7.221-6.283a22.56 22.56 0 0 1 8.627-4.445 28.46 28.46 0 0 1 7.165-.975c6.248.004 10.536 2.45 12.876 5.232.095.111.202.212.32.299a56.385 56.385 0 0 1 14.292 32.752c.161 1.864.242 3.68.241 5.448a49.81 49.81 0 0 1-3.501 18.864Z"/></svg>