<svg xmlns="http://www.w3.org/2000/svg" width="320" height="200" fill="none"><g fill="#191C22" clip-path="url(#a)"><path d="M127.699 79.76c-.64 0-1.2-.47-1.29-1.12-.1-.71.4-1.37 1.11-1.47 2.34-.33 3.71-1.51 4.44-3.83.15-.47.54-.81 1.03-.89.49-.08.97.12 1.26.52.46.63 2.11 2.68 4.2 2.56.72-.04 1.33.5 1.37 1.22.04.72-.5 1.33-1.22 1.37-1.72.1-3.5-.63-5.02-2.02-1.2 2.06-3.11 3.29-5.7 3.65-.06 0-.12.01-.18.01ZM30.39 68.58c-.59 0-1.13-.41-1.27-1.01-.16-.7.28-1.4.98-1.56.27-.06 28.38-5.79 50.84-.15.7.17 1.12.88.94 1.58-.18.7-.88 1.12-1.58.94-21.88-5.5-49.36.1-49.62.16-.1.02-.19.03-.29.03v.01ZM27.88 81.56a1.3 1.3 0 0 1-.5-2.5c11.6-4.83 41.23-8.68 53.34-7.74.72.06 1.25.68 1.2 1.4-.06.72-.68 1.25-1.4 1.2-11.59-.9-41.05 2.93-52.14 7.55-.16.07-.33.1-.5.1v-.01ZM32.91 94.53c-.48 0-.94-.26-1.16-.72-.32-.64-.06-1.42.58-1.74 10.73-5.38 30.44-10.88 45.82-10.5.72.02 1.28.61 1.27 1.33-.02.71-.6 1.27-1.3 1.27h-.03c-14.95-.39-34.14 4.99-44.59 10.23-.19.09-.39.14-.58.14l-.01-.01ZM198.521 71.31c-.12 0-.23-.02-.35-.05-11.81-3.31-26.34-4.29-43.19-2.92-.71.07-1.34-.47-1.4-1.19-.06-.72.47-1.34 1.19-1.4 17.16-1.4 32-.39 44.1 3a1.3 1.3 0 0 1-.35 2.55v.01ZM195.03 85.38c-.2 0-.4-.05-.59-.14-16.86-8.67-27.59-9.56-38.9-9.79-.72-.01-1.29-.61-1.27-1.33.01-.72.63-1.27 1.33-1.27 11.64.23 22.69 1.15 40.04 10.08.64.33.89 1.11.56 1.75-.23.45-.69.71-1.16.71l-.01-.01ZM186.91 97.99c-.31 0-.61-.11-.86-.32-11.93-10.49-22.16-12.89-28.82-13.78a1.31 1.31 0 0 1-1.12-1.46c.1-.71.75-1.21 1.46-1.12 4.03.54 16.29 2.18 30.19 14.41.54.47.59 1.3.12 1.83-.26.29-.62.44-.98.44h.01ZM173.08 134.57c-1.45 0-3.09-.94-5.05-2.85-.51-.5-.52-1.32-.02-1.84.5-.51 1.32-.52 1.84-.02 2.89 2.82 3.57 2.14 4.11 1.6.26-.27.38-.53.37-.84-.02-.49-.37-1.08-.93-1.59-16.15-14.33-37.59-23.01-60.36-24.45-.72-.05-1.26-.66-1.22-1.38.05-.72.68-1.27 1.38-1.22 23.35 1.48 45.34 10.39 61.92 25.1 1.13 1 1.77 2.22 1.81 3.45.03 1.02-.35 1.98-1.12 2.75-.85.86-1.74 1.29-2.72 1.29h-.01Z"/><path d="M168.15 138.5c-.14 0-.28 0-.42-.02-2.49-.3-4.66-3.2-4.9-3.53a1.31 1.31 0 0 1 .29-1.82 1.31 1.31 0 0 1 1.82.29c.55.75 2.04 2.35 3.11 2.48.24.03.41-.03.6-.19 1.4-1.19-.28-3.69-.3-3.71a1.301 1.301 0 0 1 2.14-1.48c1.06 1.53 2.4 5.01-.15 7.18-.63.54-1.38.81-2.17.81l-.02-.01Z"/><path d="M162.41 139.83c-1.52 0-3.66-1.2-7.41-3.3-7.97-4.46-21.31-11.93-40.34-13.87-.71-.07-1.23-.71-1.16-1.43.07-.71.71-1.23 1.43-1.16 19.57 2 33.2 9.63 41.35 14.19 2.6 1.46 5.29 2.96 6.1 2.96.64-.45.42-2.11.26-2.69a1.3 1.3 0 0 1 .9-1.6 1.3 1.3 0 0 1 1.6.9c.44 1.58.6 4.56-1.61 5.73-.34.18-.71.27-1.12.27ZM54.67 166.17c-.14 0-.28-.02-.41-.07-13.33-4.46-22.9-17.47-26.08-25.13-.95-2.29-5.5-13.97-1.61-19.15.89-1.18 2.62-2.52 5.87-2.16 4.96.55 7.63 6.54 10.73 13.48 3.11 6.96 6.63 14.84 12.99 18.51.62.36.84 1.15.48 1.78-.36.62-1.15.83-1.78.48-7.09-4.09-10.79-12.38-14.06-19.7-2.77-6.21-5.17-11.57-8.65-11.96-1.64-.18-2.79.19-3.5 1.13-2.2 2.93-.54 10.65 1.93 16.59 3 7.22 12 19.48 24.51 23.66.68.23 1.05.96.82 1.65-.18.54-.69.89-1.23.89h-.01ZM227.59 106.47h-.13c-.55-.05-1.01-.45-1.14-.99-.71-2.93-1.86-8.66-2.53-12.4-1.31-.25-2.52-.52-3.66-.77-.31-.07-.66-.14-1.03-.22-2.02-.43-4.54-.96-6.31-1.9a1.297 1.297 0 0 1-.44-1.9c1.02-1.42 2.75-2.81 5.31-4.26.73-.41 1.46-.83 2.19-1.26.48-.28.97-.56 1.45-.83v-.08c-.63-4.74-1.04-7.87-1.46-13.1a1.3 1.3 0 0 1 .79-1.3c.51-.22 1.11-.09 1.48.33 1.63 1.83 3.23 3.35 4.78 4.82 1.39 1.32 2.82 2.68 4.3 4.28 3.15-1.65 8.04-3.65 11.08-4.51a1.3 1.3 0 0 1 1.55 1.75c-1.17 2.83-3.2 6.3-4.83 9.09-.3.51-.58.99-.84 1.45 2.98 3.32 5.14 5.68 8.52 9.25.4.42.47 1.04.18 1.54s-.87.75-1.43.62c-3.48-.82-5.79-1.23-7.82-1.58-1.23-.21-2.32-.4-3.5-.66-1.25 3.01-3.39 7.65-4.72 10.54l-.62 1.34c-.21.46-.68.76-1.18.76l.01-.01Zm-11.95-17.93c1.3.42 2.81.74 4.02 1 .38.08.73.16 1.06.23 1.36.3 2.84.63 4.44.91.54.1.96.52 1.05 1.06.43 2.48 1.15 6.25 1.81 9.39 1.44-3.13 3.21-7.04 4.09-9.29.24-.6.88-.94 1.51-.79 1.54.36 2.89.6 4.44.87 1.15.2 2.38.42 3.86.71-2.16-2.32-4-4.36-6.32-6.94-.37-.42-.44-1.02-.16-1.51.39-.68.84-1.46 1.33-2.29 1.09-1.87 2.37-4.05 3.42-6.09-3.11 1.14-6.67 2.74-8.61 3.84-.53.3-1.21.19-1.61-.27-1.65-1.86-3.27-3.4-4.84-4.89-.76-.73-1.54-1.47-2.33-2.25.31 3.2.65 5.8 1.11 9.27l.12.95c.07.52-.19 1.04-.65 1.3-.73.41-1.46.83-2.19 1.26-.74.43-1.48.85-2.21 1.27-1.4.79-2.5 1.54-3.32 2.27l-.02-.01Z"/><path d="M169.97 125.85a1.301 1.301 0 0 1-.7-2.4l51.14-32.65a1.3 1.3 0 0 1 1.8.4c.39.61.21 1.41-.4 1.8l-51.14 32.65c-.22.14-.46.2-.7.2ZM173.5 128.71a1.298 1.298 0 0 1-.69-2.4l51.31-32.04c.61-.38 1.41-.2 1.79.41.38.61.19 1.41-.41 1.79l-51.31 32.04c-.21.13-.45.2-.69.2ZM55.51 184.38c-.7 0-1.28-.56-1.3-1.26-1.07-35.9 8.39-124.9 27.04-162.63.17-.34.48-.59.85-.68.37-.09.76-.02 1.07.2 5.1 3.63 15.52 14.04 19.021 17.58 1.09.08 4.71-.05 7.94-.16 5.92-.21 13.27-.47 17.55-.11 1.03-.57 3.99-4.32 6.16-7.08 5.84-7.42 8.74-10.92 11-9.42.52.34.86.57 3.02 10 1.4 6.12 3.11 14.24 4.81 22.88 2.59 13.18 7.44 39.08 10.7 64.42.09.71-.41 1.36-1.12 1.46-.72.08-1.36-.41-1.46-1.12-5.25-40.74-15.34-88.23-17.47-95.1-1.65 1.15-5.21 5.67-7.43 8.5-4.9 6.23-6.63 8.23-8.25 8.08-4.09-.37-11.48-.11-17.41.1-8.72.31-9.02.26-9.62-.34-2.93-2.97-12.31-12.38-17.71-16.63C64.88 61.2 55.76 147.83 56.81 183.05c.02.72-.54 1.32-1.26 1.34h-.04v-.01ZM168.04 180.8h-.08c-.72-.04-1.26-.66-1.22-1.37.2-3.47-2.63-28.52-4.15-41.27a1.31 1.31 0 0 1 1.14-1.45c.72-.08 1.36.42 1.45 1.14.18 1.52 4.43 37.16 4.16 41.73-.04.69-.61 1.23-1.3 1.23v-.01ZM150.949 144.19c-.18 0-.37-.04-.54-.12-4.15-1.9-4.4-3.1-4.48-3.49-.11-.52.03-1.04.38-1.43.81-.9 5.54-3.74 7.54-4.92.62-.37 1.42-.16 1.78.46.36.62.16 1.42-.46 1.78-2.3 1.35-4.91 2.97-6.19 3.86.48.32 1.17.72 1.89 1.09l7.91-4.84c.61-.37 1.41-.18 1.79.43.37.61.18 1.41-.43 1.79l-8.51 5.21c-.21.13-.44.19-.68.19v-.01ZM248.65 104.62a1.298 1.298 0 0 1-.69-2.4c10.41-6.5 7.49-16.01 7.36-16.41-.22-.68.15-1.41.83-1.64.68-.22 1.41.15 1.64.83.04.12 3.73 11.82-8.46 19.42-.21.13-.45.2-.69.2h.01ZM208.28 70.96c-.13 0-.26-.02-.39-.06-.68-.22-1.06-.95-.85-1.63 3.73-11.83 16.36-11.62 16.5-11.61.72.02 1.28.62 1.26 1.34-.02.72-.6 1.29-1.33 1.26-.45 0-10.81-.14-13.94 9.8-.17.55-.69.91-1.24.91l-.01-.01ZM267.89 103.57c-.22 0-.44-.05-.64-.17a1.3 1.3 0 0 1-.5-1.77c7.14-12.68 3.96-24.72 3.93-24.84-.19-.69.22-1.41.91-1.6a1.3 1.3 0 0 1 1.6.9c.15.53 3.52 13.16-4.17 26.8-.24.42-.68.66-1.13.66v.02ZM262.961 175.73a1.3 1.3 0 0 1-1.3-1.25l-1.46-38.72-12.49-3.2c-.7-.18-1.11-.89-.94-1.58.18-.69.89-1.11 1.58-.94l13.43 3.45c.56.14.95.64.98 1.21l1.5 39.69c.03.72-.53 1.32-1.25 1.35h-.05v-.01Z"/><path d="M251.229 178.13c-.7 0-1.28-.56-1.3-1.27l-.9-40.02-8.26-4.05-30.66 3.92-.31 33.58c0 .71-.59 1.29-1.3 1.29h-.01c-.72 0-1.29-.59-1.29-1.31l.32-34.71c0-.65.49-1.2 1.13-1.28l32.17-4.12c.25-.03.51.01.74.12l9.32 4.56c.44.21.72.65.73 1.14l.91 40.81c.02.72-.55 1.31-1.27 1.33h-.03l.01.01ZM202.3 167.79c-.72 0-1.3-.59-1.29-1.31l.13-32.96c0-.72.58-1.29 1.3-1.29.72 0 1.3.59 1.29 1.31l-.13 32.96c0 .72-.58 1.29-1.3 1.29Z"/><path d="M223.1 182.38c-.27 0-.53-.08-.75-.24l-27.53-19.32c-.35-.24-.55-.64-.55-1.06l-.03-30.74c0-.42.21-.82.55-1.07.35-.24.79-.3 1.19-.16l25.96 9.44 54.84-6.89-19.17-3.05c-.71-.11-1.19-.78-1.08-1.49.11-.71.78-1.2 1.49-1.08l28.16 4.48c.14.02.27.06.39.12.11.05.21.12.29.2.19.17.33.38.39.64.02.08.04.16.04.24v.08l.99 38.91c.02.65-.46 1.22-1.11 1.32l-63.9 9.66c-.06.01-.13.01-.19.01h.02Zm-26.23-21.3 26.55 18.63 62.25-9.41-.92-36.35-62.79 7.89c-.2.02-.41 0-.61-.07l-24.51-8.91.03 28.21v.01Z"/><path d="M241 132.75c-.7 0-1.27-.56-1.3-1.25-.26-.06-.5-.2-.68-.42-.35-.4-.41-.97-.17-1.44.25-.48 6.23-11.83 18.11-15.21 2.19-.62 4.05-.85 5.59-.79.19-.03.39-.02.58.04 3.02.27 4.75 1.71 5.41 3.36 1.09 2.74-.54 6.94-6.64 10.15-10.22 5.37-20.45 5.56-20.88 5.56H241Zm22.34-16.41c-1.63 2.15-7.25 8.67-18.57 13.47 3.79-.51 9.91-1.77 15.92-4.93 4.44-2.34 6.1-5.23 5.44-6.88-.31-.78-1.25-1.43-2.79-1.66Zm-3.48.09c-.68.11-1.41.27-2.19.5-7.05 2-11.91 7.26-14.44 10.71 8.84-3.66 14.12-8.44 16.63-11.2v-.01Z"/><path d="M238.511 131.47c-.13 0-.26-.02-.39-.06-.69-.21-1.07-.94-.86-1.63.21-.68 5.27-16.66 15.93-19.2 10.97-2.61 14.99 5.77 15.03 5.85.3.65.02 1.42-.63 1.73-.65.3-1.42.02-1.72-.63-.13-.28-3.22-6.52-12.07-4.42-9.22 2.19-14 17.28-14.05 17.44-.17.56-.69.92-1.24.92Z"/><path d="M238.65 132.8c-2.29 0-11.34-.29-20.57-4.63-6.25-2.94-8.06-7.06-7.09-9.84.59-1.68 2.25-3.19 5.25-3.6.19-.06.38-.08.58-.06 1.54-.13 3.4.01 5.62.54 12.02 2.84 18.5 13.91 18.77 14.38.26.46.22 1.03-.1 1.45-.17.22-.41.37-.66.45 0 .7-.55 1.29-1.26 1.31h-.54Zm-22.5-15.4c-1.52.3-2.43.98-2.71 1.78-.59 1.68 1.2 4.5 5.74 6.63 6.14 2.89 12.31 3.88 16.12 4.21-11.53-4.29-17.43-10.55-19.16-12.63l.01.01Zm3.49-.06c2.65 2.64 8.15 7.19 17.1 10.44-2.7-3.33-7.79-8.36-14.9-10.04-.79-.19-1.52-.32-2.2-.4Z"/><path d="M241.57 131.4c-.53 0-1.03-.33-1.22-.86-.05-.15-5.51-15.01-14.81-16.79-8.94-1.71-11.74 4.68-11.86 4.96-.28.66-1.04.97-1.7.7a1.3 1.3 0 0 1-.71-1.69c.04-.09 3.67-8.64 14.75-6.52 10.77 2.06 16.53 17.79 16.77 18.46a1.299 1.299 0 0 1-1.22 1.74ZM195.541 132.32c-.65 0-1.21-.48-1.29-1.14-.09-.71.42-1.36 1.13-1.45l25.21-3.1c.72-.09 1.36.42 1.45 1.13.09.71-.42 1.36-1.13 1.45l-25.21 3.1c-.05 0-.11.01-.16.01ZM223.1 182.38c-.7 0-1.28-.56-1.3-1.27l-.76-34.05c-.02-.72.55-1.31 1.27-1.33h.03c.7 0 1.28.56 1.3 1.27l.76 34.05c.02.72-.55 1.31-1.27 1.33h-.03ZM139.99 68.36c-.36 0-.73-.15-.98-.45-.47-.54-.41-1.36.13-1.83 1.94-1.68 5.07-2.81 8.03-.91.6.39.78 1.19.39 1.8-.39.6-1.19.78-1.8.39-2.14-1.38-4.15.02-4.92.68-.25.21-.55.32-.85.32ZM107.42 74.52a1.292 1.292 0 0 1-1-2.12c2.04-2.49 5.73-4.54 9.95-2.82.67.27.99 1.03.72 1.69-.27.67-1.03.99-1.69.72-3.67-1.49-6.25 1.2-6.96 2.06-.26.31-.63.48-1.01.48l-.01-.01Z"/></g><defs><clipPath id="a"><path fill="#fff" d="M0 0h320v200H0z"/></clipPath></defs></svg>