<svg width="320" height="200" viewBox="0 0 320 200" xmlns="http://www.w3.org/2000/svg"><g id="type=magic, mode=light" clip-path="url(#clip0_1401_4265)"><g id="Frame 432527303"><g id="b"><g id="Group"><path id="Vector" d="M127.699 79.7599C127.059 79.7599 126.499 79.2899 126.409 78.6399C126.309 77.9299 126.809 77.2699 127.519 77.1699C129.859 76.8399 131.229 75.6599 131.959 73.3399C132.109 72.8699 132.499 72.5299 132.989 72.4499C133.479 72.3699 133.959 72.5699 134.249 72.9699C134.709 73.5999 136.359 75.6499 138.449 75.5299C139.169 75.4899 139.779 76.0299 139.819 76.7499C139.859 77.4699 139.319 78.0799 138.599 78.1199C136.879 78.2199 135.099 77.4899 133.579 76.0999C132.379 78.1599 130.469 79.3899 127.879 79.7499C127.819 79.7499 127.759 79.7599 127.699 79.7599Z"/><path id="Vector_2" d="M30.3907 68.5799C29.8007 68.5799 29.2607 68.1699 29.1207 67.5699C28.9607 66.8699 29.4007 66.1699 30.1007 66.0099C30.3707 65.9499 58.4807 60.2199 80.9407 65.8599C81.6407 66.0299 82.0607 66.7399 81.8807 67.4399C81.7007 68.1399 81.0007 68.5599 80.3007 68.3799C58.4207 62.8799 30.9407 68.4799 30.6807 68.5399C30.5807 68.5599 30.4907 68.5699 30.3907 68.5699V68.5799Z"/><path id="Vector_3" d="M27.8797 81.5599C27.3697 81.5599 26.8897 81.2599 26.6797 80.7599C26.3997 80.0999 26.7197 79.3399 27.3797 79.0599C38.9797 74.2299 68.6097 70.3799 80.7197 71.3199C81.4397 71.3799 81.9697 71.9999 81.9197 72.7199C81.8597 73.4399 81.2397 73.9699 80.5197 73.9199C68.9297 73.0199 39.4697 76.8499 28.3797 81.4699C28.2197 81.5399 28.0497 81.5699 27.8797 81.5699V81.5599Z"/><path id="Vector_4" d="M32.9102 94.5299C32.4302 94.5299 31.9702 94.2699 31.7502 93.8099C31.4302 93.1699 31.6902 92.3899 32.3302 92.0699C43.0602 86.6899 62.7702 81.1899 78.1502 81.5699C78.8702 81.5899 79.4302 82.1799 79.4202 82.8999C79.4002 83.6099 78.8202 84.1699 78.1202 84.1699H78.0902C63.1402 83.7799 43.9502 89.1599 33.5002 94.3999C33.3102 94.4899 33.1102 94.5399 32.9202 94.5399L32.9102 94.5299Z"/><path id="Vector_5" d="M198.521 71.31C198.401 71.31 198.291 71.29 198.171 71.26C186.361 67.95 171.831 66.97 154.981 68.34C154.271 68.41 153.641 67.87 153.581 67.15C153.521 66.43 154.051 65.81 154.771 65.75C171.931 64.35 186.771 65.36 198.871 68.75C199.561 68.94 199.961 69.66 199.771 70.35C199.611 70.92 199.091 71.3 198.521 71.3V71.31Z"/><path id="Vector_6" d="M195.03 85.38C194.83 85.38 194.63 85.33 194.44 85.24C177.58 76.57 166.85 75.68 155.54 75.45C154.82 75.44 154.25 74.84 154.27 74.12C154.28 73.4 154.9 72.85 155.6 72.85C167.24 73.08 178.29 74 195.64 82.93C196.28 83.26 196.53 84.04 196.2 84.68C195.97 85.13 195.51 85.39 195.04 85.39L195.03 85.38Z"/><path id="Vector_7" d="M186.91 97.9899C186.6 97.9899 186.3 97.8799 186.05 97.6699C174.12 87.1799 163.89 84.7799 157.23 83.8899C156.52 83.7899 156.02 83.1399 156.11 82.4299C156.21 81.7199 156.86 81.2199 157.57 81.3099C161.6 81.8499 173.86 83.4899 187.76 95.7199C188.3 96.1899 188.35 97.0199 187.88 97.5499C187.62 97.8399 187.26 97.9899 186.9 97.9899H186.91Z"/><g id="Group_2"><path id="Vector_8" d="M173.08 134.57C171.63 134.57 169.99 133.63 168.03 131.72C167.52 131.22 167.51 130.4 168.01 129.88C168.51 129.37 169.33 129.36 169.85 129.86C172.74 132.68 173.42 132 173.96 131.46C174.22 131.19 174.34 130.93 174.33 130.62C174.31 130.13 173.96 129.54 173.4 129.03C157.25 114.7 135.81 106.02 113.04 104.58C112.32 104.53 111.78 103.92 111.82 103.2C111.87 102.48 112.5 101.93 113.2 101.98C136.55 103.46 158.54 112.37 175.12 127.08C176.25 128.08 176.89 129.3 176.93 130.53C176.96 131.55 176.58 132.51 175.81 133.28C174.96 134.14 174.07 134.57 173.09 134.57H173.08Z"/><path id="Vector_9" d="M168.15 138.5C168.01 138.5 167.87 138.5 167.73 138.48C165.24 138.18 163.07 135.28 162.83 134.95C162.41 134.37 162.54 133.56 163.12 133.13C163.7 132.71 164.51 132.84 164.94 133.42C165.49 134.17 166.98 135.77 168.05 135.9C168.29 135.93 168.46 135.87 168.65 135.71C170.05 134.52 168.37 132.02 168.35 132C167.94 131.41 168.09 130.6 168.68 130.19C169.27 129.78 170.08 129.93 170.49 130.52C171.55 132.05 172.89 135.53 170.34 137.7C169.71 138.24 168.96 138.51 168.17 138.51L168.15 138.5Z"/><path id="Vector_10" d="M162.41 139.83C160.89 139.83 158.75 138.63 155 136.53C147.03 132.07 133.69 124.6 114.66 122.66C113.95 122.59 113.43 121.95 113.5 121.23C113.57 120.52 114.21 120 114.93 120.07C134.5 122.07 148.13 129.7 156.28 134.26C158.88 135.72 161.57 137.22 162.38 137.22C163.02 136.77 162.8 135.11 162.64 134.53C162.45 133.84 162.85 133.12 163.54 132.93C164.23 132.74 164.95 133.14 165.14 133.83C165.58 135.41 165.74 138.39 163.53 139.56C163.19 139.74 162.82 139.83 162.41 139.83Z"/></g><path id="Vector_11" d="M54.67 166.17C54.53 166.17 54.39 166.15 54.26 166.1C40.93 161.64 31.36 148.63 28.18 140.97C27.23 138.68 22.68 127 26.57 121.82C27.46 120.64 29.19 119.3 32.44 119.66C37.4 120.21 40.07 126.2 43.17 133.14C46.28 140.1 49.8 147.98 56.16 151.65C56.78 152.01 57 152.8 56.64 153.43C56.28 154.05 55.49 154.26 54.86 153.91C47.77 149.82 44.07 141.53 40.8 134.21C38.03 128 35.63 122.64 32.15 122.25C30.51 122.07 29.36 122.44 28.65 123.38C26.45 126.31 28.11 134.03 30.58 139.97C33.58 147.19 42.58 159.45 55.09 163.63C55.77 163.86 56.14 164.59 55.91 165.28C55.73 165.82 55.22 166.17 54.68 166.17H54.67Z"/><path id="Vector_12" d="M227.59 106.47C227.59 106.47 227.51 106.47 227.46 106.47C226.91 106.42 226.45 106.02 226.32 105.48C225.61 102.55 224.46 96.8199 223.79 93.0799C222.48 92.8299 221.27 92.5599 220.13 92.3099C219.82 92.2399 219.47 92.1699 219.1 92.0899C217.08 91.6599 214.56 91.1299 212.79 90.1899C212.46 90.0099 212.22 89.6999 212.14 89.3399C212.05 88.9799 212.14 88.5899 212.35 88.2899C213.37 86.8699 215.1 85.4799 217.66 84.0299C218.39 83.6199 219.12 83.1999 219.85 82.7699C220.33 82.4899 220.82 82.2099 221.3 81.9399V81.8599C220.67 77.1199 220.26 73.9899 219.84 68.7599C219.8 68.1999 220.11 67.6799 220.63 67.4599C221.14 67.2399 221.74 67.3699 222.11 67.7899C223.74 69.6199 225.34 71.1399 226.89 72.6099C228.28 73.9299 229.71 75.2899 231.19 76.8899C234.34 75.2399 239.23 73.2399 242.27 72.3799C242.75 72.2499 243.26 72.3999 243.59 72.7699C243.92 73.1399 244.01 73.6699 243.82 74.1299C242.65 76.9599 240.62 80.4299 238.99 83.2199C238.69 83.7299 238.41 84.2099 238.15 84.6699C241.13 87.9899 243.29 90.3499 246.67 93.9199C247.07 94.3399 247.14 94.9599 246.85 95.4599C246.56 95.9599 245.98 96.2099 245.42 96.0799C241.94 95.2599 239.63 94.8499 237.6 94.4999C236.37 94.2899 235.28 94.0999 234.1 93.8399C232.85 96.8499 230.71 101.49 229.38 104.38L228.76 105.72C228.55 106.18 228.08 106.48 227.58 106.48L227.59 106.47ZM215.64 88.5399C216.94 88.9599 218.45 89.2799 219.66 89.5399C220.04 89.6199 220.39 89.6999 220.72 89.7699C222.08 90.0699 223.56 90.3999 225.16 90.6799C225.7 90.7799 226.12 91.1999 226.21 91.7399C226.64 94.2199 227.36 97.9899 228.02 101.13C229.46 97.9999 231.23 94.0899 232.11 91.8399C232.35 91.2399 232.99 90.8999 233.62 91.0499C235.16 91.4099 236.51 91.6499 238.06 91.9199C239.21 92.1199 240.44 92.3399 241.92 92.6299C239.76 90.3099 237.92 88.2699 235.6 85.6899C235.23 85.2699 235.16 84.6699 235.44 84.1799C235.83 83.4999 236.28 82.7199 236.77 81.8899C237.86 80.0199 239.14 77.8399 240.19 75.7999C237.08 76.9399 233.52 78.5399 231.58 79.6399C231.05 79.9399 230.37 79.8299 229.97 79.3699C228.32 77.5099 226.7 75.9699 225.13 74.4799C224.37 73.7499 223.59 73.0099 222.8 72.2299C223.11 75.4299 223.45 78.0299 223.91 81.4999L224.03 82.4499C224.1 82.9699 223.84 83.4899 223.38 83.7499C222.65 84.1599 221.92 84.5799 221.19 85.0099C220.45 85.4399 219.71 85.8599 218.98 86.2799C217.58 87.0699 216.48 87.8199 215.66 88.5499L215.64 88.5399Z"/><path id="Vector_13" d="M169.97 125.85C169.54 125.85 169.12 125.64 168.87 125.25C168.48 124.64 168.66 123.84 169.27 123.45L220.41 90.7999C221.01 90.4099 221.82 90.5899 222.21 91.1999C222.6 91.8099 222.42 92.6099 221.81 92.9999L170.67 125.65C170.45 125.79 170.21 125.85 169.97 125.85Z"/><path id="Vector_14" d="M173.5 128.71C173.07 128.71 172.64 128.49 172.4 128.1C172.02 127.49 172.21 126.69 172.81 126.31L224.12 94.27C224.73 93.89 225.53 94.07 225.91 94.68C226.29 95.29 226.1 96.09 225.5 96.47L174.19 128.51C173.98 128.64 173.74 128.71 173.5 128.71Z"/><path id="Vector_15" d="M55.5106 184.38C54.8106 184.38 54.2306 183.82 54.2106 183.12C53.1406 147.22 62.6006 58.2199 81.2506 20.4899C81.4206 20.1499 81.7306 19.8999 82.1006 19.8099C82.4706 19.7199 82.8606 19.7899 83.1706 20.0099C88.2706 23.6399 98.6906 34.0499 102.191 37.5899C103.281 37.6699 106.901 37.5399 110.131 37.4299C116.051 37.2199 123.401 36.9599 127.681 37.3199C128.711 36.7499 131.671 32.9999 133.841 30.2399C139.681 22.8199 142.581 19.3199 144.841 20.8199C145.361 21.1599 145.701 21.3899 147.861 30.8199C149.261 36.9399 150.971 45.0599 152.671 53.6999C155.261 66.8799 160.111 92.7799 163.371 118.12C163.461 118.83 162.961 119.48 162.251 119.58C161.531 119.66 160.891 119.17 160.791 118.46C155.541 77.7199 145.451 30.2299 143.321 23.3599C141.671 24.5099 138.111 29.0299 135.891 31.8599C130.991 38.0899 129.261 40.0899 127.641 39.9399C123.551 39.5699 116.161 39.8299 110.231 40.0399C101.511 40.3499 101.211 40.2999 100.611 39.6999C97.6806 36.7299 88.3006 27.3199 82.9006 23.0699C64.8806 61.1999 55.7606 147.83 56.8106 183.05C56.8306 183.77 56.2706 184.37 55.5506 184.39H55.5106V184.38Z"/><path id="Vector_16" d="M168.04 180.8C168.04 180.8 167.99 180.8 167.96 180.8C167.24 180.76 166.7 180.14 166.74 179.43C166.94 175.96 164.11 150.91 162.59 138.16C162.51 137.45 163.01 136.8 163.73 136.71C164.45 136.63 165.09 137.13 165.18 137.85C165.36 139.37 169.61 175.01 169.34 179.58C169.3 180.27 168.73 180.81 168.04 180.81V180.8Z"/><path id="Vector_17" d="M150.949 144.19C150.769 144.19 150.579 144.15 150.409 144.07C146.259 142.17 146.009 140.97 145.929 140.58C145.819 140.06 145.959 139.54 146.309 139.15C147.119 138.25 151.849 135.41 153.849 134.23C154.469 133.86 155.269 134.07 155.629 134.69C155.989 135.31 155.789 136.11 155.169 136.47C152.869 137.82 150.259 139.44 148.979 140.33C149.459 140.65 150.149 141.05 150.869 141.42L158.779 136.58C159.389 136.21 160.189 136.4 160.569 137.01C160.939 137.62 160.749 138.42 160.139 138.8L151.629 144.01C151.419 144.14 151.189 144.2 150.949 144.2V144.19Z"/><path id="Vector_18" d="M248.65 104.62C248.22 104.62 247.79 104.4 247.55 104.01C247.17 103.4 247.36 102.6 247.96 102.22C258.37 95.7199 255.45 86.2099 255.32 85.8099C255.1 85.1299 255.47 84.3999 256.15 84.1699C256.83 83.9499 257.56 84.3199 257.79 84.9999C257.83 85.1199 261.52 96.8199 249.33 104.42C249.12 104.55 248.88 104.62 248.64 104.62H248.65Z"/><path id="Vector_19" d="M208.28 70.9599C208.15 70.9599 208.02 70.9399 207.89 70.8999C207.21 70.6799 206.83 69.9499 207.04 69.2699C210.77 57.4399 223.4 57.6499 223.54 57.6599C224.26 57.6799 224.82 58.2799 224.8 58.9999C224.78 59.7199 224.2 60.2899 223.47 60.2599C223.02 60.2599 212.66 60.1199 209.53 70.0599C209.36 70.6099 208.84 70.9699 208.29 70.9699L208.28 70.9599Z"/><path id="Vector_20" d="M267.89 103.57C267.67 103.57 267.45 103.52 267.25 103.4C266.62 103.05 266.4 102.25 266.75 101.63C273.89 88.9499 270.71 76.9099 270.68 76.7899C270.49 76.0999 270.9 75.3799 271.59 75.1899C272.28 74.9999 273 75.3999 273.19 76.0899C273.34 76.6199 276.71 89.2499 269.02 102.89C268.78 103.31 268.34 103.55 267.89 103.55V103.57Z"/><path id="Vector_21" d="M262.961 175.73C262.261 175.73 261.691 175.18 261.661 174.48L260.201 135.76L247.711 132.56C247.011 132.38 246.601 131.67 246.771 130.98C246.951 130.29 247.661 129.87 248.351 130.04L261.781 133.49C262.341 133.63 262.731 134.13 262.761 134.7L264.261 174.39C264.291 175.11 263.731 175.71 263.011 175.74H262.961V175.73Z"/><path id="Vector_22" d="M251.229 178.13C250.529 178.13 249.949 177.57 249.929 176.86L249.029 136.84L240.769 132.79L210.109 136.71L209.799 170.29C209.799 171 209.209 171.58 208.499 171.58H208.489C207.769 171.58 207.199 170.99 207.199 170.27L207.519 135.56C207.519 134.91 208.009 134.36 208.649 134.28L240.819 130.16C241.069 130.13 241.329 130.17 241.559 130.28L250.879 134.84C251.319 135.05 251.599 135.49 251.609 135.98L252.519 176.79C252.539 177.51 251.969 178.1 251.249 178.12H251.219L251.229 178.13Z"/><path id="Vector_23" d="M202.3 167.79C201.58 167.79 201 167.2 201.01 166.48L201.14 133.52C201.14 132.8 201.72 132.23 202.44 132.23C203.16 132.23 203.74 132.82 203.73 133.54L203.6 166.5C203.6 167.22 203.02 167.79 202.3 167.79Z"/><path id="Vector_24" d="M223.1 182.38C222.83 182.38 222.57 182.3 222.35 182.14L194.82 162.82C194.47 162.58 194.27 162.18 194.27 161.76L194.24 131.02C194.24 130.6 194.45 130.2 194.79 129.95C195.14 129.71 195.58 129.65 195.98 129.79L221.94 139.23L276.78 132.34L257.61 129.29C256.9 129.18 256.42 128.51 256.53 127.8C256.64 127.09 257.31 126.6 258.02 126.72L286.18 131.2C286.32 131.22 286.45 131.26 286.57 131.32C286.68 131.37 286.78 131.44 286.86 131.52C287.05 131.69 287.19 131.9 287.25 132.16C287.27 132.24 287.29 132.32 287.29 132.4C287.29 132.43 287.29 132.45 287.29 132.48L288.28 171.39C288.3 172.04 287.82 172.61 287.17 172.71L223.27 182.37C223.21 182.38 223.14 182.38 223.08 182.38H223.1ZM196.87 161.08L223.42 179.71L285.67 170.3L284.75 133.95L221.96 141.84C221.76 141.86 221.55 141.84 221.35 141.77L196.84 132.86L196.87 161.07V161.08Z"/><path id="Vector_25" d="M241 132.75C240.3 132.75 239.73 132.19 239.7 131.5C239.44 131.44 239.2 131.3 239.02 131.08C238.67 130.68 238.61 130.11 238.85 129.64C239.1 129.16 245.08 117.81 256.96 114.43C259.15 113.81 261.01 113.58 262.55 113.64C262.74 113.61 262.94 113.62 263.13 113.68C266.15 113.95 267.88 115.39 268.54 117.04C269.63 119.78 268 123.98 261.9 127.19C251.68 132.56 241.45 132.75 241.02 132.75H241ZM263.34 116.34C261.71 118.49 256.09 125.01 244.77 129.81C248.56 129.3 254.68 128.04 260.69 124.88C265.13 122.54 266.79 119.65 266.13 118C265.82 117.22 264.88 116.57 263.34 116.34ZM259.86 116.43C259.18 116.54 258.45 116.7 257.67 116.93C250.62 118.93 245.76 124.19 243.23 127.64C252.07 123.98 257.35 119.2 259.86 116.44V116.43Z"/><path id="Vector_26" d="M238.511 131.47C238.381 131.47 238.251 131.45 238.121 131.41C237.431 131.2 237.051 130.47 237.261 129.78C237.471 129.1 242.531 113.12 253.191 110.58C264.161 107.97 268.181 116.35 268.221 116.43C268.521 117.08 268.241 117.85 267.591 118.16C266.941 118.46 266.171 118.18 265.871 117.53C265.741 117.25 262.651 111.01 253.801 113.11C244.581 115.3 239.801 130.39 239.751 130.55C239.581 131.11 239.061 131.47 238.511 131.47Z"/><path id="Vector_27" d="M238.65 132.8C236.36 132.8 227.31 132.51 218.08 128.17C211.83 125.23 210.02 121.11 210.99 118.33C211.58 116.65 213.24 115.14 216.24 114.73C216.43 114.67 216.62 114.65 216.82 114.67C218.36 114.54 220.22 114.68 222.44 115.21C234.46 118.05 240.94 129.12 241.21 129.59C241.47 130.05 241.43 130.62 241.11 131.04C240.94 131.26 240.7 131.41 240.45 131.49C240.45 132.19 239.9 132.78 239.19 132.8C239.14 132.8 238.95 132.8 238.65 132.8ZM216.15 117.4C214.63 117.7 213.72 118.38 213.44 119.18C212.85 120.86 214.64 123.68 219.18 125.81C225.32 128.7 231.49 129.69 235.3 130.02C223.77 125.73 217.87 119.47 216.14 117.39L216.15 117.4ZM219.64 117.34C222.29 119.98 227.79 124.53 236.74 127.78C234.04 124.45 228.95 119.42 221.84 117.74C221.05 117.55 220.32 117.42 219.64 117.34Z"/><path id="Vector_28" d="M241.57 131.4C241.04 131.4 240.54 131.07 240.35 130.54C240.3 130.39 234.84 115.53 225.54 113.75C216.6 112.04 213.8 118.43 213.68 118.71C213.4 119.37 212.64 119.68 211.98 119.41C211.32 119.14 211 118.38 211.27 117.72C211.31 117.63 214.94 109.08 226.02 111.2C236.79 113.26 242.55 128.99 242.79 129.66C243.03 130.34 242.68 131.08 242.01 131.32C241.86 131.37 241.72 131.4 241.57 131.4Z"/><path id="Vector_29" d="M195.541 132.32C194.891 132.32 194.331 131.84 194.251 131.18C194.161 130.47 194.671 129.82 195.381 129.73L220.591 126.63C221.311 126.54 221.951 127.05 222.041 127.76C222.131 128.47 221.621 129.12 220.911 129.21L195.701 132.31C195.651 132.31 195.591 132.32 195.541 132.32Z"/><path id="Vector_30" d="M223.1 182.38C222.4 182.38 221.82 181.82 221.8 181.11L221.04 147.06C221.02 146.34 221.59 145.75 222.31 145.73H222.34C223.04 145.73 223.62 146.29 223.64 147L224.4 181.05C224.42 181.77 223.85 182.36 223.13 182.38H223.1Z"/><path id="Vector_31" d="M139.99 68.3599C139.63 68.3599 139.26 68.2099 139.01 67.9099C138.54 67.3699 138.6 66.5499 139.14 66.0799C141.08 64.3999 144.21 63.2699 147.17 65.1699C147.77 65.5599 147.95 66.3599 147.56 66.9699C147.17 67.5699 146.37 67.7499 145.76 67.3599C143.62 65.9799 141.61 67.3799 140.84 68.0399C140.59 68.2499 140.29 68.3599 139.99 68.3599Z"/><path id="Vector_32" d="M107.42 74.52C107.13 74.52 106.84 74.42 106.6 74.23C106.04 73.77 105.96 72.96 106.42 72.4C108.46 69.91 112.15 67.86 116.37 69.58C117.04 69.85 117.36 70.61 117.09 71.27C116.82 71.94 116.06 72.26 115.4 71.99C111.73 70.5 109.15 73.19 108.44 74.05C108.18 74.36 107.81 74.53 107.43 74.53L107.42 74.52Z"/></g></g></g></g><defs><clipPath id="clip0_1401_4265"><rect width="320" height="200"/></clipPath></defs></svg>