<svg width="200" height="200" viewBox="0 0 200 200" xmlns="http://www.w3.org/2000/svg"><g id="type=benefits, mode=dark"><g id="Benefits people"><g id="Group 432526989"><path id="Vector" d="M79.9129 85.7343C81.5152 85.7343 82.8141 84.4461 82.8141 82.857C82.8141 81.2679 81.5152 79.9796 79.9129 79.9796C78.3106 79.9796 77.0117 81.2679 77.0117 82.857C77.0117 84.4461 78.3106 85.7343 79.9129 85.7343Z"/><path id="Vector_2" d="M141.136 64.0571C142.738 64.0571 144.037 62.7688 144.037 61.1797C144.037 59.5906 142.738 58.3024 141.136 58.3024C139.533 58.3024 138.234 59.5906 138.234 61.1797C138.234 62.7688 139.533 64.0571 141.136 64.0571Z"/><path id="Vector_3" d="M83.4541 100.052H83.454C83.6915 98.7984 83.8937 97.5839 84.0617 96.4287C84.9177 90.5358 85.3202 84.5033 85.5039 79.5844C85.7726 79.6375 86.0436 79.6714 86.318 79.6726C87.5744 79.6859 88.7672 79.0183 89.6012 77.8685C89.9177 77.4425 89.8262 76.8428 89.3967 76.5289C88.9672 76.2149 88.3625 76.3057 88.046 76.7317C87.4383 77.5217 86.9243 77.743 86.318 77.7563C86.0969 77.7582 85.8403 77.7033 85.5682 77.6169C85.6305 75.3818 85.6491 73.4468 85.6492 71.9717C85.6492 70.8189 85.6386 69.9865 85.6296 69.4582C86.9371 69.7811 88.1159 70.0189 89.0921 70.172C89.5817 70.2476 90.0498 69.9433 90.1752 69.4677C90.191 69.4067 90.7921 67.1068 90.7925 63.4117C90.7974 57.3324 89.1445 47.4334 80.5485 37.6954C80.3599 37.4816 80.0818 37.3609 79.7955 37.3686L76.6308 37.4534C77.0865 35.9583 77.2623 35.0613 77.2684 35.0333C77.3512 34.6043 77.129 34.1719 76.7304 33.986C76.6903 33.9709 73.5305 32.4997 68.6976 31.2429C68.9648 30.219 69.1236 29.066 69.1252 27.7461C69.1236 24.982 68.5735 21.6825 67.4316 18.5339C66.2864 15.3892 64.5533 12.3883 62.0953 10.2929C58.3251 7.0897 53.3469 5.63954 48.1084 5.64014C42.1279 5.64259 35.7729 7.51728 30.2815 10.9269C29.8292 11.2079 29.6924 11.7991 29.9757 12.2475C30.2589 12.6959 30.8551 12.8317 31.3073 12.5507H31.3072C36.4966 9.32368 42.5368 7.55388 48.1084 7.55635C52.9979 7.55681 57.4996 8.90827 60.8379 11.7477C62.9394 13.5292 64.5526 16.2533 65.6139 19.1834C66.6785 22.1094 67.1949 25.2342 67.1933 27.7461C67.1949 28.9448 67.0685 29.9907 66.858 30.7985C63.5991 30.0622 59.7638 29.4861 55.6785 29.4833C50.4784 29.4832 44.8762 30.4173 39.6404 33.1682C39.1689 33.4159 38.9891 33.9958 39.2389 34.4634C39.4888 34.931 40.0735 35.1093 40.545 34.8615L40.5448 34.8614C45.4312 32.2932 50.7073 31.3995 55.6785 31.3995C61.1372 31.3986 66.2144 32.4806 69.9155 33.5661C71.7661 34.1084 73.2729 34.6508 74.3127 35.0557C74.6737 35.1962 74.9557 35.3119 75.199 35.4136C74.641 37.6235 72.587 44.4697 67.1778 51.6178C66.8577 52.0411 66.9441 52.6416 67.3708 52.9592C67.7977 53.2767 68.4033 53.191 68.7235 52.7677C72.5737 47.6738 74.7845 42.7498 75.989 39.3875L79.379 39.2967C87.3537 48.5223 88.8556 57.7295 88.8604 63.4117C88.8604 65.1559 88.718 66.5638 88.5774 67.5282C88.5446 67.753 88.5123 67.9482 88.4815 68.1234C82.8698 67.0926 72.0247 63.5918 65.1945 56.239C64.8322 55.8506 64.2209 55.8271 63.8293 56.1865C63.4377 56.5459 63.4141 57.1521 63.7765 57.5405H63.7764C69.5392 63.6912 77.6174 67.1858 83.6872 68.9383C83.6896 69.031 83.7055 69.6988 83.713 70.8512C82.5442 70.4827 81.3746 70.3051 80.2538 70.3053C77.1725 70.3125 74.4154 71.5772 73.042 73.752C72.7617 74.2021 72.9024 74.7925 73.3563 75.0707C73.8103 75.3487 74.4056 75.2091 74.6859 74.759C75.564 73.3183 77.7008 72.2142 80.2538 72.2215C81.3612 72.2215 82.5387 72.4395 83.7148 72.8915C83.7096 73.951 83.6946 75.1882 83.6629 76.5635C82.7949 76.0511 81.7656 75.7774 80.6627 75.7771C78.4971 75.778 76.0609 76.7696 74.0144 78.9253C73.6486 79.3106 73.667 79.917 74.0554 80.2797C74.4439 80.6425 75.0553 80.6242 75.4211 80.239L75.421 80.2388C77.1458 78.4222 79.0947 77.6923 80.6627 77.6933C81.5994 77.6929 82.3905 77.9523 82.942 78.364C83.1582 78.5243 83.378 78.6635 83.5983 78.7985C83.4288 83.7965 83.0342 90.0709 82.1494 96.1553C81.9854 97.2831 81.7875 98.4714 81.5552 99.6987C81.4566 100.219 81.8019 100.719 82.3263 100.817C82.8507 100.915 83.3556 100.572 83.4541 100.052Z"/><path id="Vector_4" d="M80.8247 107.088C80.3123 106.941 79.7763 107.233 79.6277 107.741C78.846 110.419 77.8959 113.09 76.7942 115.611C76.752 115.656 76.7015 115.69 76.6675 115.744C76.4272 116.142 75.7718 116.688 74.8207 117.137C73.8726 117.592 72.6461 117.971 71.2956 118.188C70.769 118.273 70.4114 118.766 70.497 119.288C70.5826 119.81 71.0789 120.165 71.6055 120.08C72.9058 119.87 74.0789 119.509 75.1219 119.069C74.1523 120.873 73.0932 122.547 71.9295 123.995C71.5973 124.41 71.6665 125.012 72.0841 125.342C72.5017 125.671 73.1095 125.603 73.4417 125.188H73.4416C77.0739 120.652 79.6772 114.436 81.4833 108.275C81.6319 107.767 81.3371 107.236 80.8247 107.088Z"/><path id="Vector_5" d="M177.533 39.8834C176.201 36.4178 174.653 33.9991 173.896 32.6008C173.787 32.3987 173.76 32.2575 173.759 32.1322C173.752 31.8802 173.917 31.5293 174.372 31.1145C175.037 30.5008 176.212 29.9191 177.198 29.5398C177.692 29.3472 178.14 29.1981 178.462 29.0986L178.839 28.9866L178.965 28.9517C179.417 28.8343 179.718 28.4166 179.684 27.9551C179.65 27.4936 179.291 27.1238 178.827 27.0727L172.797 26.4082L176.264 21.2508C176.505 20.8921 176.475 20.4197 176.191 20.0933C175.907 19.767 175.441 19.6689 175.048 19.853L169.337 22.5273C169.706 21.5791 169.869 20.6384 169.865 19.7478C169.862 17.6834 169.064 15.9182 168.295 14.6647C167.522 13.4099 166.76 12.6534 166.724 12.6165C166.376 12.271 165.825 12.24 165.44 12.5441C165.054 12.8483 164.961 13.3872 165.222 13.8016C165.533 14.2912 165.724 15.0078 165.722 15.7846C165.729 17.1931 165.102 18.7106 164.026 19.4636C163.616 19.7507 163.238 19.8634 162.691 19.8692C161.931 19.8755 160.855 19.5764 159.47 19.0386C158.083 18.5055 156.387 17.7562 154.317 16.9528C151.969 16.0442 148.901 15.5206 145.6 15.5186C140.632 15.5236 135.131 16.719 130.96 19.8472C130.823 19.7387 130.682 19.6405 130.547 19.5278C127.284 16.8147 124.535 12.9365 122.8 8.36068C122.612 7.86549 122.055 7.61496 121.556 7.80139C121.056 7.98771 120.804 8.54021 120.992 9.03551C122.838 13.8994 125.76 18.045 129.305 20.9959C132.847 23.944 137.033 25.7032 141.368 25.7039C141.895 25.7039 142.423 25.6779 142.953 25.6248C143.484 25.5717 143.87 25.1017 143.817 24.5753C143.763 24.0488 143.289 23.6651 142.759 23.7182C142.294 23.7648 141.83 23.7877 141.368 23.7877C138.35 23.7883 135.361 22.7991 132.62 21.0351C136.26 18.508 141.137 17.4298 145.6 17.4347C148.689 17.4325 151.566 17.94 153.613 18.7373C155.638 19.5225 157.314 20.2643 158.771 20.8252C160.229 21.3814 161.47 21.7791 162.691 21.7854C163.559 21.7911 164.424 21.5488 165.157 21.0171C166.41 20.1065 167.148 18.7578 167.464 17.3529C167.744 18.0951 167.943 18.9036 167.933 19.7478C167.926 21.1148 167.487 22.5789 166.053 24.1445C165.742 24.4817 165.715 24.9922 165.988 25.3601C166.262 25.7278 166.761 25.8528 167.178 25.6576L172.726 23.0593L170.309 26.6551C170.123 26.9322 170.095 27.2894 170.237 27.5913C170.379 27.893 170.672 28.102 171.006 28.1389L174.781 28.5548C174.175 28.8777 173.577 29.2397 173.066 29.702C172.41 30.2978 171.833 31.1016 171.827 32.1322C171.825 32.5956 171.954 33.0702 172.195 33.5096C173.014 35.0148 174.46 37.2709 175.728 40.5663C176.992 43.8557 178.067 48.1536 178.068 53.6542C178.068 54.4493 178.045 55.2697 177.997 56.1158C177.382 67.1498 171.083 77.7672 161.562 87.1491C161.879 86.2691 162.167 85.3969 162.397 84.588C162.905 82.7957 163.202 81.3138 163.316 80.7038C169.443 74.993 171.734 68.9255 171.737 64.3747C171.735 62.6542 171.414 61.1455 170.816 59.9378C170.222 58.7372 169.324 57.8048 168.158 57.4162C167.549 57.2145 166.955 57.122 166.391 57.1223C164.721 57.1268 163.444 57.9125 162.532 58.7345C162.182 46.4465 156.763 37.7807 156.718 37.6988C156.482 37.323 156.019 37.1564 155.595 37.2947C146.763 40.1782 139.365 41.466 133.4 41.4649C129.9 41.465 126.894 41.0225 124.376 40.2127C123.868 40.0495 123.324 40.3253 123.159 40.8287C122.995 41.332 123.273 41.8724 123.78 42.0355C126.531 42.9196 129.736 43.3809 133.4 43.3811C139.466 43.3801 146.804 42.1054 155.445 39.3489C156.678 41.5706 160.64 49.5443 160.634 59.9361C160.634 60.4207 160.625 60.9104 160.608 61.4047C160.591 61.8529 160.892 62.253 161.329 62.3661C161.767 62.4792 162.226 62.2755 162.432 61.8767L162.442 61.859C162.513 61.7267 162.952 60.9679 163.659 60.2894C164.373 59.6024 165.297 59.0353 166.391 59.0385C166.744 59.0388 167.124 59.0947 167.547 59.234C168.081 59.4078 168.643 59.9001 169.083 60.7836C169.519 61.6599 169.806 62.8949 169.805 64.3747C169.807 68.3523 167.758 74.0617 161.764 79.5372C161.606 79.6817 161.501 79.874 161.465 80.0843C161.465 80.0847 161.448 80.1849 161.411 80.3825C161.282 81.0734 160.913 82.8846 160.284 84.9287C159.658 86.971 158.757 89.2507 157.641 90.8321C157.635 90.8406 157.634 90.8508 157.628 90.8594C157.623 90.8673 157.615 90.8712 157.61 90.8793C157.609 90.8799 157.486 91.0798 157.239 91.4552C156.377 92.7691 154.057 96.1436 150.877 99.5969C147.702 103.053 143.65 106.572 139.442 108.217C138.946 108.412 138.703 108.968 138.899 109.46C139.095 109.952 139.657 110.193 140.153 109.999C145.487 107.893 150.206 103.362 153.654 99.3727C156.79 95.7342 158.828 92.5601 159.183 91.9984C170.941 81.6233 179.173 69.3767 179.926 56.223C179.976 55.3413 180 54.4852 180 53.6542C180.001 47.9049 178.869 43.3553 177.533 39.8834Z"/><path id="Vector_6" d="M131.068 98.275C131.2 98.7875 131.727 99.0963 132.243 98.9649C133.923 98.5379 135.543 97.7394 136.96 96.5447C137.367 96.2019 137.416 95.5972 137.071 95.1941C136.725 94.791 136.115 94.7419 135.709 95.0846C134.522 96.0849 133.173 96.7499 131.763 97.1088C131.247 97.2403 130.935 97.7623 131.068 98.275Z"/><path id="Vector_7" d="M148.623 54.0116C148.824 54.1166 148.979 54.2033 149.081 54.2622L149.194 54.3288L149.224 54.3468C149.675 54.6293 150.271 54.4958 150.556 54.0483C150.841 53.6009 150.707 53.0091 150.256 52.7267C150.177 52.6893 146.269 50.2074 141.379 50.1922C138.683 50.1851 135.658 50.994 133.021 53.4339C132.63 53.7941 132.608 54.4004 132.972 54.7879C133.335 55.1755 133.946 55.1975 134.337 54.8372H134.337C136.596 52.7613 139.048 52.1155 141.379 52.1084C143.483 52.1068 145.466 52.6666 146.911 53.2345C147.633 53.5178 148.221 53.8014 148.623 54.0116Z"/><path id="Vector_8" d="M107.281 164.661L107.568 165.003L107.636 165.092L107.652 165.113C107.96 165.545 108.563 165.647 108.999 165.341C109.434 165.035 109.537 164.437 109.229 164.005C109.196 163.961 108.549 163.055 107.408 162.123C106.272 161.2 104.609 160.216 102.543 160.21C101.3 160.207 99.9442 160.587 98.6018 161.489C98.1594 161.785 98.0427 162.381 98.341 162.819C98.6394 163.258 99.2399 163.374 99.6822 163.078V163.078C100.749 162.368 101.686 162.129 102.543 162.126C103.952 162.12 105.238 162.832 106.181 163.604C106.651 163.986 107.027 164.374 107.281 164.661Z"/><path id="Vector_9" d="M88.8294 132.555C88.1755 132.005 87.2749 131.615 86.2279 131.62L86.0662 131.623C85.533 131.642 85.1163 132.086 85.1354 132.615C85.1546 133.144 85.6024 133.557 86.1355 133.538V133.538L86.2279 133.537C86.8155 133.542 87.2144 133.721 87.5904 134.025C88.1481 134.477 88.5729 135.289 88.8131 136.001C88.9351 136.355 89.0159 136.679 89.0646 136.909L89.1154 137.175L89.1277 137.254C89.1955 137.778 89.6794 138.149 90.2087 138.082C90.7378 138.015 91.1119 137.535 91.0441 137.01C91.0336 136.953 90.8839 135.74 90.2523 134.437C89.9334 133.787 89.4891 133.104 88.8294 132.555Z"/><path id="Vector_10" d="M137.284 124.324L129.896 125.371C129.672 122.978 128.398 120.86 126.553 119.266C124.512 117.5 121.777 116.315 118.826 115.939C118.303 115.873 117.79 115.84 117.289 115.84C116.603 115.839 115.94 115.904 115.301 116.024C115.297 116.003 115.304 115.984 115.299 115.963L113.85 109.496C113.735 108.979 113.218 108.654 112.698 108.768C112.177 108.883 111.849 109.395 111.964 109.912L113.413 116.379C113.427 116.441 113.463 116.49 113.488 116.546C112.352 116.993 111.32 117.639 110.422 118.458C108.693 120.027 107.452 122.202 106.681 124.731C106.258 124.684 105.82 124.649 105.361 124.648C104.347 124.65 103.258 124.803 102.237 125.251C102.208 125.205 102.192 125.154 102.154 125.112C102.119 125.074 101.183 124.041 99.6225 122.992C98.0635 121.948 95.8613 120.866 93.2777 120.861C92.8152 120.861 92.3417 120.896 91.8611 120.974C89.1569 121.41 86.7741 122.306 85.0701 124.146C83.3654 125.988 82.472 128.666 82.4766 132.339C82.4766 132.868 82.9091 133.297 83.4426 133.297C83.9761 133.297 84.4087 132.868 84.4087 132.339C84.4133 128.946 85.2105 126.833 86.4945 125.441C87.7793 124.048 89.6833 123.268 92.1715 122.865C92.5462 122.805 92.9148 122.777 93.2777 122.777C95.2926 122.772 97.1692 123.656 98.5395 124.579C99.2232 125.038 99.7771 125.5 100.155 125.844C100.343 126.015 100.488 126.157 100.584 126.254L100.637 126.309C99.799 127.123 99.168 128.279 98.9138 129.78C98.8224 130.301 99.1744 130.797 99.7 130.888C100.226 130.978 100.726 130.629 100.817 130.108C101.099 128.569 101.718 127.781 102.492 127.27C103.271 126.763 104.304 126.563 105.361 126.565C106.58 126.563 107.793 126.827 108.543 127.034C109.317 127.245 110.462 127.677 111.333 128.331C112.215 129.002 112.777 129.776 112.782 130.861C112.782 131.472 112.597 132.236 112.063 133.191C111.551 134.108 110.808 134.799 110.19 135.251C109.881 135.477 109.606 135.644 109.413 135.751L109.192 135.867L109.14 135.892L109.134 135.895C108.646 136.11 108.426 136.676 108.643 137.159C108.86 137.643 109.431 137.861 109.918 137.646C109.991 137.604 111.732 136.85 113.113 135.069C113.231 135.044 113.347 134.998 113.453 134.926C114.931 133.925 116.22 133.575 117.3 133.574C119.289 133.562 120.721 134.818 121.194 135.944C121.438 136.517 121.575 137.184 121.574 137.838C121.575 138.581 121.399 139.298 121.058 139.866C120.711 140.435 120.223 140.872 119.473 141.135C118.969 141.309 118.703 141.855 118.878 142.355C119.053 142.855 119.604 143.119 120.108 142.945C121.284 142.543 122.171 141.766 122.719 140.845C122.95 140.458 123.114 140.045 123.24 139.623C123.771 139.561 124.325 139.505 124.89 139.505C126.095 139.506 127.281 139.719 128.29 140.408C129.296 141.098 130.222 142.292 130.809 144.552C131.149 145.871 131.315 147.015 131.314 147.96C131.307 149.458 130.926 150.389 130.245 151.005C129.561 151.625 128.394 152.03 126.562 152.03C126.205 152.03 125.824 152.015 125.421 151.983C124.889 151.942 124.424 152.336 124.382 152.864C124.34 153.391 124.738 153.852 125.27 153.894C125.718 153.928 126.149 153.946 126.562 153.946C127.481 153.946 128.309 153.841 129.066 153.652C129.142 153.718 129.222 153.782 129.321 153.823C129.941 154.081 130.437 154.56 130.808 155.272C131.175 155.982 131.39 156.917 131.389 157.971C131.39 161.06 129.536 165.014 125.291 167.303C125.055 166.869 124.779 166.468 124.407 166.154C123.944 165.76 123.324 165.506 122.67 165.511L122.512 165.515C121.21 165.593 120.005 166.132 118.916 166.838C118.166 167.329 117.467 167.911 116.823 168.51C116.857 168.419 116.89 168.33 116.924 168.238C117.438 166.842 117.961 165.401 118.372 164.211C118.578 163.616 118.756 163.084 118.892 162.647C119.029 162.204 119.123 161.883 119.173 161.599C119.276 160.963 119.547 160.034 119.549 158.867C119.553 157.696 119.256 156.296 118.33 154.731C113.196 145.977 105.573 140.641 96.6479 140.646C95.1523 140.646 93.6239 140.795 92.0704 141.1C91.547 141.203 91.2066 141.707 91.3101 142.226C91.4135 142.745 91.9218 143.082 92.4451 142.98C93.8801 142.698 95.2819 142.562 96.6479 142.562C104.749 142.567 111.73 147.34 116.661 155.697C117.427 157.006 117.613 158.001 117.617 158.867C117.619 159.735 117.407 160.483 117.267 161.284C117.257 161.36 117.174 161.679 117.047 162.08C116.598 163.515 115.604 166.253 114.728 168.609C113.852 170.968 113.092 172.954 113.091 172.958C112.916 173.415 113.117 173.93 113.555 174.152C113.995 174.374 114.532 174.232 114.802 173.823L114.981 173.563C115.403 172.962 116.546 171.419 117.995 170.038C119.436 168.643 121.205 167.484 122.623 167.428L122.67 167.427C122.855 167.431 122.98 167.475 123.161 167.619C123.427 167.833 123.748 168.344 123.961 169.086C124.179 169.825 124.303 170.771 124.302 171.805C124.305 173.81 123.838 176.139 122.884 178.031C121.925 179.934 120.535 181.349 118.696 181.834C118.489 181.888 118.326 181.906 118.2 181.906C117.859 181.898 117.761 181.805 117.658 181.716L117.561 181.591L117.558 181.593C117.42 181.218 117.061 180.966 116.659 180.963C116.256 180.96 115.892 181.206 115.748 181.578L115.656 181.809C115.439 182.343 114.852 183.734 114.057 185.216C113.269 186.695 112.245 188.27 111.293 189.115C110.194 190.101 109.177 190.379 107.774 190.965C106.384 191.542 104.754 192.458 102.984 194.606C102.645 195.014 102.704 195.618 103.115 195.955C103.527 196.291 104.136 196.232 104.475 195.824C106.086 193.9 107.294 193.259 108.53 192.728C109.754 192.206 111.152 191.825 112.589 190.536C114.033 189.227 115.217 187.192 116.109 185.451C116.469 184.744 116.77 184.094 117.006 183.562C117.341 183.719 117.742 183.827 118.2 183.822C118.512 183.822 118.843 183.778 119.194 183.685C121.735 183.011 123.507 181.096 124.614 178.885C125.727 176.662 126.231 174.094 126.234 171.805C126.232 170.848 126.134 169.952 125.95 169.129C131.013 166.519 133.32 161.838 133.321 157.971C133.32 156.665 133.063 155.44 132.528 154.4C132.189 153.738 131.713 153.164 131.137 152.707C131.269 152.611 131.419 152.535 131.542 152.425C132.738 151.355 133.254 149.772 133.246 147.96C133.246 146.796 133.048 145.507 132.681 144.079C132.025 141.503 130.837 139.813 129.384 138.828C128.435 138.183 127.418 137.871 126.428 137.719C126.786 136.981 127.305 135.867 127.842 134.536C128.701 132.395 129.567 129.764 129.835 127.316L137.557 126.221C138.085 126.147 138.453 125.661 138.377 125.138C138.302 124.614 137.812 124.25 137.284 124.324ZM128.003 126.425C127.898 128.676 126.968 131.557 126.048 133.825C125.59 134.961 125.138 135.951 124.801 136.653C124.633 137.004 124.493 137.283 124.397 137.474C124.366 137.535 124.347 137.57 124.326 137.612C124.037 137.625 123.758 137.64 123.489 137.666C123.467 136.813 123.3 135.969 122.975 135.201C122.192 133.37 120.126 131.668 117.3 131.657C116.426 131.656 115.49 131.85 114.525 132.22C114.644 131.752 114.714 131.297 114.714 130.861C114.72 129.02 113.66 127.654 112.494 126.799C111.318 125.927 109.989 125.447 109.06 125.188C108.926 125.151 108.759 125.112 108.601 125.073C109.295 122.905 110.354 121.114 111.726 119.872C113.225 118.519 115.056 117.762 117.289 117.756C117.706 117.756 118.136 117.784 118.581 117.84C121.169 118.166 123.57 119.222 125.281 120.708C126.997 122.201 128.01 124.072 128.01 126.118L128.003 126.425Z"/><path id="Vector_11" d="M57.2098 85.7305C58.812 85.7305 60.111 84.4423 60.111 82.8532C60.111 81.2641 58.812 79.9759 57.2098 79.9759C55.6075 79.9759 54.3086 81.2641 54.3086 82.8532C54.3086 84.4423 55.6075 85.7305 57.2098 85.7305Z"/><path id="Vector_12" d="M118.434 63.215C120.037 63.215 121.336 61.9268 121.336 60.3377C121.336 58.7486 120.037 57.4603 118.434 57.4603C116.832 57.4603 115.533 58.7486 115.533 60.3377C115.533 61.9268 116.832 63.215 118.434 63.215Z"/><path id="Vector_13" d="M46.3948 79.2257C46.0877 78.793 45.4851 78.6891 45.0488 78.9937C44.6125 79.2982 44.5077 79.8959 44.8148 80.3286C45.2773 80.981 45.8017 81.474 46.3842 81.7989C46.9649 82.1252 47.5948 82.2684 48.1933 82.2664C49.86 82.2426 51.2475 81.3267 52.4339 80.5807C53.9524 79.5891 55.95 78.5043 57.7393 78.5203C59.0934 78.5402 60.3817 79.0236 61.7289 80.8346C62.0416 81.2633 62.6455 81.3595 63.0779 81.0494C63.5102 80.7392 63.6072 80.1403 63.2945 79.7115C61.7048 77.4958 59.6634 76.5842 57.7393 76.6041C55.2133 76.6201 52.9854 77.9522 51.3812 78.9738C50.2437 79.7249 49.0375 80.374 48.1933 80.3501C47.8854 80.3482 47.6196 80.2874 47.332 80.1289C47.0459 79.9691 46.7293 79.6965 46.3948 79.2257Z"/><path id="Vector_14" d="M49.1026 73.7067C52.0792 72.531 55.1197 71.7958 57.7835 71.7982C59.364 71.798 60.8059 72.0535 62.0454 72.5991C63.2858 73.1471 64.3339 73.9743 65.1754 75.1932C65.4761 75.6302 66.0772 75.7427 66.5179 75.4444C66.9586 75.1462 67.072 74.55 66.7713 74.113C65.7347 72.6028 64.3717 71.5235 62.8286 70.8474C61.2847 70.1688 59.5707 69.8822 57.7835 69.8821C54.7676 69.8844 51.526 70.6909 48.3886 71.926C47.8929 72.1216 47.6508 72.6786 47.8479 73.1704C48.045 73.6621 48.6068 73.9022 49.1026 73.7067Z"/><path id="Vector_15" d="M71.9289 123.995C68.9817 127.657 65.5221 129.902 61.3848 129.904C58.493 129.908 55.2697 128.639 52.0146 126.143C42.2481 118.692 32.5549 100.384 30.5661 76.0696C37.2279 74.1867 47.3451 70.5241 57.1849 63.7839C62.1027 60.4131 65.866 56.5443 68.7228 52.7655C69.0429 52.3422 68.9563 51.7418 68.5296 51.4243C68.1027 51.1068 67.4972 51.1927 67.1772 51.616H67.1771C64.4282 55.2513 60.814 58.9669 56.0863 62.2076C47.9777 67.7667 39.6076 71.2081 33.2722 73.2526C30.1045 74.275 27.446 74.9489 25.5844 75.3661C24.6536 75.5748 23.922 75.7193 23.4257 75.8113C23.4146 75.8134 23.4115 75.8137 23.4007 75.8157C22.4932 73.6637 21.9284 70.592 21.932 67.0657C21.9306 61.7864 23.1648 55.5056 26.1112 49.6753C29.0596 43.8414 33.6993 38.4579 40.5442 34.8595C41.0157 34.6118 41.1954 34.032 40.9456 33.5644C40.6958 33.0968 40.1112 32.9186 39.6397 33.1663C36.614 34.7558 34.0149 36.6931 31.7628 38.8421C26.7709 35.6122 24.3206 30.4412 24.3165 25.3332C24.3211 20.3175 26.6711 15.4305 31.3066 12.5489C31.7587 12.2679 31.8956 11.6767 31.6124 11.2283C31.3291 10.7799 30.733 10.6441 30.2808 10.925C25.04 14.1798 22.3798 19.7322 22.3844 25.3332C22.3802 30.9213 25.0502 36.5998 30.3794 40.2079C27.8954 42.8564 25.9138 45.7854 24.3837 48.8172C21.2882 54.9507 20.0014 61.4958 20 67.0657C20.004 71.1784 20.6925 74.7566 21.9573 77.3121C22.1432 77.6858 22.5543 77.8984 22.9696 77.8355C22.997 77.8296 25.1816 77.49 28.6806 76.5827C30.0815 92.8937 34.8361 106.565 40.8915 116.232C43.9547 121.118 47.3467 124.987 50.8334 127.66C54.3178 130.328 57.917 131.817 61.3848 131.821C66.2853 131.823 70.3051 129.112 73.4411 125.188C73.773 124.774 73.7038 124.171 73.2862 123.842C72.8687 123.512 72.2609 123.581 71.9289 123.995Z"/><path id="Vector_16" d="M81.4764 105.625C79.8122 106.679 77.2364 107.727 73.4292 107.729C71.9321 107.729 70.2438 107.566 68.3468 107.17C67.8247 107.061 67.3123 107.392 67.2026 107.91C67.0927 108.428 67.4269 108.936 67.9489 109.045C69.9669 109.466 71.7898 109.646 73.4292 109.646C77.7346 109.648 80.7675 108.398 82.7033 107.119C84.6421 105.841 85.4919 104.554 85.5447 104.473C85.7687 104.127 85.7464 103.681 85.4891 103.36C80.2116 96.7607 77.5379 89.4679 76.1927 83.8237C75.5199 81.0024 75.1786 78.5956 75.0062 76.9007C74.92 76.0531 74.8759 75.3836 74.8534 74.9292C74.8422 74.702 74.8363 74.5286 74.8332 74.4137L74.8301 74.2488C74.8274 73.7196 74.3928 73.2928 73.8593 73.2953C73.3258 73.2979 72.8954 73.729 72.8981 74.2581H72.898C72.9084 74.3553 72.9843 90.2595 83.5123 103.926C83.1348 104.35 82.497 104.977 81.4764 105.625Z"/><path id="Vector_17" d="M140.696 108.755C140.5 108.263 139.939 108.022 139.443 108.217L139.443 108.217C137.814 108.857 136.169 109.219 134.534 109.219C134.099 109.219 133.665 109.194 133.232 109.141C130.283 108.782 127.563 107.316 125.104 105.012C121.419 101.563 118.391 96.2366 116.308 90.3446C114.221 84.4544 113.068 78.0024 113.03 72.3308C113.028 72.1199 113.028 71.9092 113.028 71.6983C113.027 64.7778 113.816 57.7505 114.745 51.8509C116.301 51.0906 117.733 50.7689 118.983 50.7684C120.687 50.7689 122.074 51.3352 123.025 52.1381C123.979 52.9436 124.473 53.971 124.47 54.8976C124.47 55.0944 124.448 55.2882 124.405 55.4793C122.245 64.9631 120.538 70.7106 119.37 74.3782C118.212 78.063 117.546 79.5946 117.518 81.0866C117.512 81.7149 117.685 82.3129 117.971 82.8421C118.469 83.7555 119.325 84.3856 120.295 84.9593C123.203 86.6341 127.496 87.6239 127.539 87.6411C128.058 87.7637 128.578 87.4457 128.702 86.931C128.826 86.4162 128.505 85.8996 127.986 85.7771H127.986C127.986 85.7769 127.879 85.7517 127.675 85.6994C126.962 85.5171 125.131 85.0165 123.377 84.3082C122.5 83.9554 121.644 83.5488 120.972 83.125C120.297 82.7068 119.829 82.2519 119.682 81.9531C119.506 81.6086 119.455 81.4135 119.45 81.0866C119.421 80.3058 120.022 78.6469 121.213 74.9554C122.394 71.2468 124.119 65.4324 126.29 55.9013C126.365 55.5689 126.402 55.2323 126.402 54.8976C126.368 51.7043 123.251 48.856 118.983 48.8524C117.773 48.852 116.47 49.0904 115.115 49.597C115.2 49.104 115.284 48.5988 115.369 48.1272C115.954 44.8742 116.54 42.1507 116.979 40.243C117.142 39.537 117.274 38.9858 117.389 38.5177C119.13 40.017 121.248 41.2227 123.781 42.0355C124.289 42.1987 124.834 41.9229 124.998 41.4195C125.163 40.9161 124.885 40.3758 124.377 40.2127H124.377C120.97 39.1148 118.458 37.3622 116.731 35.086C115.006 32.8082 114.049 29.9786 113.874 26.6581C113.843 26.0621 113.828 25.4697 113.828 24.8815C113.826 18.5112 115.58 12.6411 117.342 8.37426C118.118 6.49452 118.884 4.95082 119.508 3.78781C119.867 5.60729 120.36 7.36703 120.993 9.03543C121.181 9.53073 121.738 9.78114 122.237 9.59483C122.737 9.40852 122.989 8.85601 122.801 8.36071C121.913 6.01982 121.29 3.49612 120.994 0.852679C120.949 0.45012 120.656 0.121124 120.259 0.0266162C119.862 -0.0677767 119.451 0.0938757 119.226 0.432567C119.187 0.5114 111.912 11.445 111.896 24.8815C111.896 25.5018 111.912 26.1273 111.945 26.7572C112.132 30.3828 113.198 33.6162 115.186 36.2374C115.37 36.4798 115.6 36.688 115.799 36.9192C115.39 38.4942 111.1 55.2866 111.096 71.6983C111.096 71.9138 111.096 72.1291 111.098 72.3443C111.157 80.2308 113.242 89.3825 116.964 96.8494C118.827 100.582 121.102 103.895 123.777 106.405C126.448 108.912 129.546 110.624 132.997 111.043C133.51 111.105 134.023 111.136 134.534 111.136C136.459 111.135 138.345 110.709 140.154 109.999C140.65 109.804 140.893 109.247 140.696 108.755Z"/><path id="Vector_18" d="M102.985 194.606H102.985C101.609 196.291 98.7514 197.346 95.4119 197.337C91.9844 197.34 88.1152 196.253 84.9819 193.964C81.192 191.184 80.6597 187.642 80.1601 185.426C79.9131 184.324 79.4339 182.424 79.0157 180.424C78.5968 178.433 78.2476 176.329 78.251 174.975C78.251 174.279 78.247 173.576 78.247 172.867C78.2467 170.51 78.2908 168.08 78.6517 165.578C78.9832 163.265 79.3408 161.075 79.7668 159.033C80.2898 158.656 80.7409 158.532 81.1952 158.528C82.0482 158.514 83.0261 159.062 83.7655 159.696C84.1341 160.007 84.4411 160.325 84.6508 160.561L84.8893 160.842L84.9471 160.915L84.9602 160.932C85.2767 161.358 85.8814 161.449 86.311 161.135C86.7405 160.821 86.8321 160.221 86.5156 159.795C86.4871 159.759 85.9335 159.012 85.0178 158.237C84.1026 157.474 82.8091 156.625 81.1952 156.612C80.9034 156.61 80.604 156.655 80.3036 156.721C80.7139 155.103 81.1872 153.601 81.7464 152.231C82.1255 152.147 82.4959 152.094 82.8513 152.094C84.5469 152.095 86.0747 152.987 87.2432 154.534C88.4031 156.076 89.1355 158.25 89.1332 160.583C89.1332 161.134 89.0928 161.695 89.0087 162.259C88.5421 165.386 87.6051 168 86.7872 169.825C86.3785 170.737 85.9998 171.452 85.7262 171.933C85.5896 172.174 85.479 172.357 85.4043 172.478L85.32 172.611L85.2964 172.647C85.0214 173.056 85.1022 173.602 85.4838 173.916L89.7102 177.389C90.1211 177.727 90.7301 177.67 91.0705 177.263C91.411 176.855 91.3539 176.251 90.943 175.914L87.3553 172.965C88.2283 171.451 90.1496 167.677 90.92 162.54C91.0182 161.882 91.0653 161.227 91.0653 160.583C91.0631 157.857 90.2288 155.308 88.7933 153.39C87.3665 151.479 85.2702 150.176 82.8513 150.178C82.8009 150.178 82.7492 150.187 82.6986 150.189C84.7378 146.416 87.5939 143.952 92.4461 142.98C92.9695 142.877 93.3099 142.373 93.2064 141.854C93.103 141.335 92.5948 140.997 92.0715 141.1C87.4364 141.99 84.2054 144.343 81.9859 147.639C80.7708 147.101 79.5714 146.21 78.673 145.117C77.6539 143.885 77.0309 142.447 77.0355 141.114C77.0358 140.675 77.1002 140.244 77.2383 139.819C77.7306 138.269 79.1816 136.668 80.9362 135.497C82.6777 134.318 84.7169 133.576 86.1346 133.536C86.6677 133.517 87.0846 133.073 87.0656 132.544C87.0465 132.015 86.5989 131.602 86.0657 131.621C84.1022 131.7 81.8546 132.575 79.8527 133.911C77.8638 135.255 76.1147 137.067 75.3995 139.23C75.1968 139.852 75.1033 140.487 75.1035 141.114C75.1081 143.03 75.9519 144.841 77.1777 146.331C78.22 147.59 79.5532 148.612 80.9921 149.29C80.9586 149.353 80.9188 149.41 80.8859 149.474C78.6691 153.733 77.6287 159.16 76.7389 165.307C76.3568 167.96 76.3152 170.487 76.315 172.867C76.315 173.583 76.3189 174.286 76.3189 174.975C76.3223 176.615 76.6975 178.762 77.124 180.813C77.5511 182.856 78.038 184.787 78.274 185.841C78.7405 187.936 79.4157 192.299 83.8372 195.508C87.3494 198.065 91.5837 199.25 95.4118 199.253C99.125 199.244 102.519 198.152 104.476 195.824C104.816 195.415 104.757 194.811 104.345 194.475C103.933 194.139 103.324 194.197 102.985 194.606Z"/><path id="Vector_19" d="M82.9293 182.881C82.5968 183.295 82.6656 183.898 83.0829 184.227H83.0828C87.3728 187.591 93.2156 188.592 96.5485 188.606C97.1758 188.606 97.7168 188.57 98.1729 188.495C98.6992 188.408 99.0549 187.915 98.9673 187.393C98.8796 186.871 98.382 186.518 97.8556 186.605C97.551 186.655 97.0962 186.69 96.5485 186.69C93.5904 186.704 87.9997 185.689 84.2868 182.729C83.8695 182.399 83.2617 182.467 82.9293 182.881Z"/><path id="Vector_20" d="M57.9486 115.461C60.614 119.059 64.8706 120.315 68.7181 120.312C69.7097 120.312 70.6808 120.23 71.6048 120.081C72.1313 119.996 72.4889 119.503 72.4033 118.981C72.3177 118.459 71.8213 118.104 71.2948 118.189C70.4713 118.322 69.6016 118.396 68.7181 118.396C65.2542 118.393 61.677 117.275 59.5071 114.328C59.1917 113.901 58.5873 113.809 58.1568 114.122C57.7265 114.434 57.6332 115.034 57.9486 115.461V115.461Z"/><path id="Vector_21" d="M121.411 93.6823C121.093 93.2577 120.488 93.1694 120.06 93.4852C119.631 93.801 119.542 94.4012 119.861 94.8258H119.861C122.067 97.7624 125.618 99.3362 129.226 99.337C130.234 99.337 131.249 99.2139 132.243 98.9612C132.76 98.8299 133.071 98.3079 132.939 97.7953C132.806 97.2828 132.28 96.9737 131.763 97.105C130.93 97.3169 130.076 97.4208 129.226 97.4208C126.177 97.4217 123.206 96.0813 121.411 93.6823Z"/></g></g></g></svg>