<svg xmlns="http://www.w3.org/2000/svg" width="200" height="200" fill="none"><g clip-path="url(#a)"><path fill="#FFD93A" d="m96.77 103.05-1.11-8.97 39.17-9 5.55 20.47-10 16.45-23.61 6.29-4.67-9.25 6.38-1.65-3.84-14.94-7.87.6Z"/><path fill="#191C22" d="m106.081 129.82-5.87-11.63 6.69-1.73-3.25-12.63-8.03.61-1.41-11.36 41.54-9.55 6.02 22.22-10.56 17.38-25.14 6.7.01-.01Zm-2.09-9.92 3.46 6.87 22.09-5.89 9.44-15.53-5.08-18.73-36.81 8.46.81 6.57 7.73-.59 4.44 17.26-6.08 1.57v.01Z"/><path fill="#FFD93A" d="m79.11 97.37-7.32 1.91 9.46 35.5 10.52-3.22s-8.05-9.59-10.27-21.23c-2.22-11.64-2.39-12.95-2.39-12.95v-.01Z"/><path fill="#191C22" d="M80.35 136.41 70.2 98.35l10.01-2.61.19 1.46c.01.08.24 1.66 2.38 12.88 2.13 11.16 9.91 20.54 9.99 20.64l1.26 1.5-13.68 4.19Zm-6.96-36.21 8.78 32.93 7.42-2.27c-2.38-3.2-7.6-11.06-9.36-20.3-1.28-6.69-1.88-9.99-2.16-11.58l-4.68 1.22ZM130.821 86.85c-.05 0-.11 0-.16-.01-.71-.09-1.22-.74-1.13-1.45 1.39-11.34.64-23.21-1.97-30.99-7.49-22.3-16.35-33.03-19.75-36.57l-3.73 11.8c-.22.69-.95 1.07-1.63.85-.68-.22-1.06-.95-.85-1.63l4.36-13.79c.13-.41.45-.73.87-.85.41-.12.86-.04 1.19.23.5.4 12.29 10.19 22.01 39.13 2.73 8.12 3.53 20.44 2.09 32.14-.08.66-.64 1.14-1.29 1.14h-.01Z"/><path fill="#191C22" d="M113.2 64.94a1.298 1.298 0 0 1-.43-2.52c1.27-.45 2.13-2.52 2.33-3.21a1.299 1.299 0 0 1 2.05-.65c.01 0 .91.63 2.75.6.69.03 1.31.57 1.31 1.28 0 .71-.57 1.31-1.28 1.31-1.2.01-2.17-.18-2.88-.42-.59 1.23-1.67 2.91-3.41 3.53-.14.05-.29.08-.44.08ZM50.57 78.51c-5.58 0-9.56-.25-9.98-.27a1.297 1.297 0 1 1 .17-2.59c.26.02 26.21 1.63 40.2-3.54.67-.25 1.42.09 1.67.77.25.67-.1 1.42-.77 1.67-8.98 3.32-22.24 3.97-31.29 3.97v-.01ZM70.98 69.74c-9.11 0-18.67-1.23-22.79-3.15-.65-.3-.93-1.08-.63-1.73.3-.65 1.08-.94 1.73-.63 5.71 2.66 27.18 4.26 36.72 1.25.68-.22 1.42.16 1.63.85.22.69-.16 1.42-.85 1.63-3.93 1.24-9.77 1.78-15.81 1.78ZM77.93 63.03c-8.81 0-22.59-1.97-30.25-6.05-.63-.34-.87-1.12-.54-1.76.34-.63 1.12-.87 1.76-.54 8.38 4.46 25.62 6.41 33.14 5.55.71-.08 1.36.43 1.44 1.14.08.71-.43 1.36-1.14 1.44-1.24.14-2.74.21-4.41.21v.01ZM55.31 132.82c-.13 0-.26-.02-.39-.06-8.04-2.49-14-10.33-16.67-16.28-.62-1.38-3.59-8.45-1.1-11.89.64-.88 1.91-1.89 4.31-1.64 3.45.36 5.35 4.25 7.55 8.75 2.1 4.3 4.48 9.18 8.45 11.3.63.34.87 1.13.53 1.76-.34.63-1.13.87-1.76.53-4.72-2.52-7.29-7.8-9.57-12.45-1.78-3.65-3.46-7.1-5.48-7.3-1.27-.13-1.71.27-1.94.58-1 1.39-.43 5.3 1.37 9.3 1.97 4.4 7.36 12.47 15.07 14.86.69.21 1.07.94.86 1.63-.17.56-.69.92-1.24.92l.01-.01ZM130.82 61.46a1.304 1.304 0 0 1-.44-2.53 89.509 89.509 0 0 0 21.31-10.94 1.299 1.299 0 1 1 1.49 2.13 91.563 91.563 0 0 1-21.93 11.26c-.14.05-.29.07-.43.07v.01ZM129.911 56.45c-.45 0-.89-.23-1.13-.65-.36-.62-.14-1.42.48-1.78 7.21-4.16 14.24-8.85 20.88-13.94.57-.44 1.39-.33 1.82.24.44.57.33 1.39-.24 1.82-6.73 5.17-13.86 9.92-21.17 14.13-.2.12-.43.17-.65.17l.01.01ZM128.211 52.12a1.3 1.3 0 0 1-.87-2.27c5.12-4.61 9.95-9.7 14.36-15.12a1.301 1.301 0 0 1 2.02 1.64 137.82 137.82 0 0 1-14.63 15.41c-.25.22-.56.33-.87.33l-.01.01ZM99.22 137.33c-.85 0-1.65-.14-2.35-.45-9.22-4.19-19.56-26.23-18.77-39.98.04-.72.65-1.27 1.37-1.22.72.04 1.26.66 1.22 1.37-.78 13.67 9.61 34 17.23 37.46 1.48.64 4.529-.08 6.199-1.97 1.52-1.71 1.54-3.95.06-6.48-4.13-6.86-12.47-27.84-9.85-37.3.19-.69.91-1.1 1.6-.91.69.19 1.1.91.91 1.6-2.25 8.1 5.03 27.72 9.58 35.28 2.05 3.5 1.92 6.97-.35 9.53-1.7 1.92-4.44 3.07-6.85 3.07Z"/><path fill="#191C22" d="M101.549 136.23c-.26 0-.52-.08-.75-.24-.11-.08-2.73-1.96-4.05-4.03-.39-.6-.21-1.41.4-1.79.6-.39 1.41-.21 1.79.4.87 1.36 2.73 2.85 3.37 3.31.58.42.72 1.23.3 1.81-.25.36-.65.55-1.06.55v-.01ZM105.201 133.91c-.41 0-.82-.2-1.07-.56-.02-.02-1.75-2.53-3.12-4.06-.48-.54-.43-1.36.1-1.84s1.36-.43 1.84.1c1.48 1.66 3.24 4.21 3.32 4.31a1.301 1.301 0 0 1-1.07 2.04v.01ZM119.461 54.84a1.3 1.3 0 0 1-.73-.22c-.59-.4-.75-1.21-.35-1.81 2.12-3.13 5.18-2.59 6.49-1.86.63.35.86 1.14.51 1.77-.34.63-1.13.86-1.75.52-.42-.22-1.87-.77-3.1 1.04-.25.37-.66.57-1.08.57l.01-.01ZM99.67 62.35a1.299 1.299 0 0 1-1.14-1.92c2.31-4.25 6.22-3.96 7.96-3.21a1.303 1.303 0 0 1-1.02 2.4c-.3-.12-2.95-1.09-4.66 2.06-.24.43-.68.68-1.14.68v-.01ZM80.799 136.46c-.58 0-1.1-.39-1.26-.97l-9.55-36.31c-.09-.34-.04-.7.14-1 .18-.3.48-.52.82-.59l8.14-1.88a1.298 1.298 0 1 1 .59 2.53l-6.83 1.58 8.88 33.76 10.24-2.63c.69-.18 1.4.24 1.58.94.18.7-.24 1.4-.94 1.58l-11.49 2.95c-.11.03-.22.04-.32.04ZM106.741 129.81a1.3 1.3 0 0 1-1.25-.96c-.19-.69.22-1.41.91-1.6l23.58-6.49 9.34-15.39-5.06-19.15-38.74 8.9c-.7.16-1.4-.28-1.56-.98-.16-.7.28-1.4.98-1.56l39.96-9.18c.68-.16 1.37.26 1.55.93l5.53 20.9c.09.34.04.71-.15 1.01l-9.89 16.3c-.17.28-.45.49-.77.58l-24.07 6.63c-.12.03-.23.05-.35.05l-.01.01Z"/><path fill="#191C22" d="M101.969 120.04a1.3 1.3 0 0 1-1.27-1.04c-.15-.7.31-1.39 1.01-1.54l5.16-1.07-3.53-12.88-6.36 1.3c-.7.14-1.39-.31-1.53-1.01-.14-.7.31-1.39 1.01-1.53l7.55-1.54c.67-.13 1.33.27 1.51.93l4.22 15.38c.09.35.04.72-.15 1.02-.19.31-.49.52-.85.59l-6.52 1.35c-.09.02-.18.03-.27.03l.02.01ZM85.51 39.38a1.301 1.301 0 0 1-1.03-2.1c.33-.42 8.19-10.17 21.59-9.14.72.06 1.25.68 1.2 1.4-.06.72-.69 1.25-1.4 1.2-11.99-.93-19.28 8.07-19.35 8.16-.26.32-.64.49-1.02.49l.01-.01Z"/><path fill="#191C22" d="M113.059 186.87c-5.89 0-8.43-.17-11.72-1.94-1.59-.85-27.41-18.21-35.72-27.08-3.69-3.94-11.28-12.03-11.26-26.33 0-2.36.31-4.48.93-6.5 16.25-52.48 18.32-98.68 18.34-99.14a1.3 1.3 0 0 1 1.63-1.2c1.79.48 8.38 8.26 11.33 12.69.4.6.24 1.4-.36 1.8-.6.4-1.4.24-1.8-.36-2.5-3.75-6.18-8.02-8.35-10.23-.69 10.51-4.15 51.51-18.3 97.21-.55 1.77-.82 3.65-.82 5.74-.02 13.27 7.09 20.86 10.51 24.5 7.98 8.52 33.59 25.8 35.1 26.62 2.65 1.42 4.62 1.63 10.49 1.63 2.45 0 2.81-.67 3.07-1.16.14-.26.03-.93-.23-1.49-.37-.78-1.23-1.1-3.13-1.75l-.22-.07c-2.37-.81-4.08-2.33-4.81-4.29-.71-1.9-.47-4.04.68-6.01 5.92-10.15 4.96-16.07 2.97-23.33-.71-2.6-1.84-5.17-3.44-7.84-.37-.62-.17-1.41.45-1.78a1.29 1.29 0 0 1 1.78.45c1.72 2.88 2.93 5.65 3.71 8.48 2.1 7.62 3.19 14.33-3.23 25.33-.75 1.29-.93 2.63-.49 3.79.46 1.23 1.57 2.17 3.21 2.73l.22.07c2.12.72 3.79 1.29 4.65 3.1.24.52.97 2.31.18 3.82-.95 1.79-2.55 2.55-5.37 2.55v-.01Z"/><path fill="#191C22" d="M111.26 142.26c-.35 0-.71-.14-.96-.42a1.3 1.3 0 0 1 .09-1.84c4.04-3.68 9.03-11.24 10.66-16.18.23-.68.96-1.05 1.64-.83.68.23 1.05.96.83 1.64-1.75 5.28-7.07 13.36-11.38 17.28-.25.23-.56.34-.88.34v.01ZM74 185.84c-2.9 0-5.69-.19-7.15-1.75-1.56-1.67-2.66-3.96-3.54-5.8-1.75-3.64-3.35-7.31-4.81-10.97-.38-.96-.86-2.17-.88-3.48-.02-1.72.33-3.05 1.07-4.08 2.69-3.71 4.29-5.61 4.84-6.12.53-.49 1.35-.45 1.84.08s.45 1.35-.08 1.84c-.28.26-1.63 1.78-4.49 5.73-.4.56-.59 1.38-.58 2.51.01.77.31 1.58.69 2.56 1.43 3.6 3.01 7.21 4.7 10.73.88 1.84 1.85 3.85 3.13 5.22.92.98 4.24.95 6.66.92h.87c1.54-.02 2.15-.15 2.38-.26.29-.13.41-.27.43-.34.03-.11-.03-.43-.32-.85-.4-.57-.89-.92-1.45-1.32-1.01-.73-2.27-1.63-3.14-3.94-1.27-3.35-.49-8.07 1.85-11.23.43-.58 1.24-.7 1.82-.27.58.43.7 1.24.27 1.82-1.82 2.45-2.47 6.21-1.51 8.76.6 1.58 1.31 2.09 2.22 2.75.65.47 1.4 1 2.05 1.93.71 1 .96 2.08.72 3.02-.16.61-.61 1.45-1.84 2.03-.91.42-2.26.49-3.47.5h-.86c-.48.01-.96.02-1.44.02l.02-.01Z"/></g><defs><clipPath id="a"><path fill="#fff" d="M0 0h200v200H0z"/></clipPath></defs></svg>