<svg xmlns="http://www.w3.org/2000/svg" width="200" height="200" fill="none"><g fill="#191C22"><path d="M88.502 9.023h.005-.005ZM86.71 15.26a1.3 1.3 0 0 0-1.375 1.22l-.022.378a1.3 1.3 0 0 0 2.595.154l.023-.378a1.3 1.3 0 0 0-1.22-1.374ZM105.66 139.287c4.863 3.7 12.425 6.68 19.731 6.697 2.877 0 5.72-.474 8.315-1.603a16.894 16.894 0 0 0 8.038-7.26 1.3 1.3 0 0 0-2.267-1.273c-1.089 1.933-3.133 4.549-6.809 6.149-2.197.958-4.684 1.387-7.277 1.387-4.386.004-9.059-1.239-12.976-3.075-1.958-.916-3.727-1.979-5.176-3.088-1.45-1.106-2.574-2.264-3.255-3.316a1.3 1.3 0 0 0-2.181 1.416c.911 1.398 2.236 2.724 3.857 3.966Z"/><path d="m155.632 63.354-2.005-12.697a1.298 1.298 0 0 0-1.444-1.087l-11.693 1.448a1.3 1.3 0 0 0-1.14 1.318c.084 3.943.74 8.427 1.109 10.675a1.28 1.28 0 0 0-.697.538s-.189.31-.549.887a328.882 328.882 0 0 1-6.721 10.318c-7.647-9.842-14.684-16.072-21.002-19.861-5.748-3.45-10.909-4.87-15.316-5.154l3.238-8.328c3.824-.85 6.17-2.415 7.523-3.922.847-.937 1.297-1.816 1.54-2.445l17.968-3.851c.304-.066.571-.235.76-.482.046-.061.393-.522.739-1.306a8.06 8.06 0 0 0 .692-3.246c0-.31-.018-.633-.06-.965-.2-1.53-.872-2.866-1.422-4.069-.277-.598-.53-1.159-.702-1.654-.174-.496-.26-.92-.259-1.236 0-.115.01-.216.029-.309a1.302 1.302 0 0 0-1.806-1.442l-21.845 9.782c-.042-.033-.078-.064-.121-.097-1.446-1.098-3.687-2.202-6.67-2.199-.074 0-.154.009-.23.01-.123-.646-.501-2.611-.929-4.729-.26-1.29-.537-2.627-.784-3.744a62.156 62.156 0 0 0-.343-1.48 12.039 12.039 0 0 0-.287-1.021c-.39-1.104-.968-2.058-1.772-2.77a4.85 4.85 0 0 0-2.929-1.213A9.508 9.508 0 0 0 87.835 9c-1.516-.002-2.89.367-4.043 1.05-1.737 1.027-2.924 2.7-3.663 4.633-.035.09-.057.19-.09.28-6.17.6-9.141 2.155-9.28 2.231a1.295 1.295 0 0 0-.683 1.204c.023.5.327.94.789 1.137l.286.123a93.093 93.093 0 0 1 3.935 1.822c.814.403 1.623.826 2.284 1.213.33.192.623.376.855.537.231.159.403.302.472.372.149.148.326.24.513.301a30.14 30.14 0 0 0 .586 3.633c.902 3.971 2.714 7.534 5.36 10.142 2.64 2.608 6.155 4.23 10.227 4.223.35 0 .708-.021 1.067-.045l-3.054 7.852a25.984 25.984 0 0 0-7.994 1.604 1.3 1.3 0 1 0 .902 2.439 23.313 23.313 0 0 1 8.148-1.47c1.31.002 2.713.111 4.202.366-.143 3.012-.235 5.777-.235 8.183.002 3.014.133 5.47.504 7.303.193.92.43 1.69.848 2.358.212.33.48.643.844.885.36.243.826.39 1.276.386.414.005.847-.147 1.155-.377.294-.214.493-.47.644-.72.278-.474.419-.959.536-1.485.196-.917.282-1.973.351-3.08.092-1.513.151-3.103.303-4.34.013.435.049.9.187 1.398.114.39.314.834.715 1.205.396.375.97.586 1.505.603l.02.001.087.002c.462.004.926-.159 1.267-.404.603-.437.894-.999 1.121-1.56.326-.852.482-1.808.582-2.786.097-.975.124-1.962.124-2.8v-.089c6.026 3.683 12.902 9.816 20.464 19.678-.7 1.016-1.429 2.061-2.182 3.127l-29.937 1.167a1.3 1.3 0 1 0 .102 2.598l27.921-1.088c-2.957 4.085-6.2 8.334-9.479 12.213a7.128 7.128 0 0 0-1.579-.962c-.945-.414-2.033-.644-3.237-.643-2.762.007-6.095 1.16-10.272 3.912a1.3 1.3 0 1 0 1.432 2.17c3.925-2.596 6.838-3.49 8.84-3.482.879 0 1.591.162 2.194.425.339.149.638.342.919.555l-.388.443a1.3 1.3 0 1 0 1.945 1.726c.029-.033.057-.068.086-.1.303.621.532 1.294.679 1.965a9.94 9.94 0 0 1 .209 2.115c.002 2.009-.485 4.417-1.376 6.832-.888 2.416-2.177 4.843-3.73 6.927a1.3 1.3 0 0 0 2.086 1.553c1.716-2.306 3.109-4.934 4.084-7.582.974-2.649 1.534-5.314 1.536-7.73 0-.931-.084-1.826-.27-2.672-.258-1.168-.706-2.387-1.416-3.496 3.869-4.556 7.666-9.584 11.028-14.298l.195-.007a1.3 1.3 0 0 0 1.122-1.858c.378-.538.759-1.078 1.123-1.603 10.378 14.29 15.772 29.462 15.783 48.493.002 7.138-1.952 13.515-5.62 18.051-1.835 2.271-4.096 4.092-6.791 5.356-2.697 1.263-5.836 1.972-9.445 1.973-5.305.002-11.631-1.545-18.922-5.161-9.472-4.685-18.68-14.557-25.441-26.428-6.774-11.864-11.114-25.708-11.108-38.218 0-5.103.718-9.98 2.263-14.422 1.546-4.443 3.914-8.452 7.24-11.856a1.3 1.3 0 0 0-1.86-1.817c-3.61 3.694-6.18 8.055-7.836 12.819-1.657 4.764-2.407 9.93-2.407 15.276.006 13.106 4.492 27.302 11.45 39.507a94.203 94.203 0 0 0 2.038 3.384l-34.17 47.322a21.857 21.857 0 0 0-1.08-2.352c-1.52-2.836-3.035-3.965-3.174-4.063a1.298 1.298 0 0 0-1.883.41c-1.41 2.469-2.244 5.698-2.779 8.358a54.52 54.52 0 0 0-.308 1.694c-.146-.21-.293-.421-.438-.64-1.153-1.737-2.266-3.717-3.084-5.255a85.634 85.634 0 0 1-1.246-2.434l-.092-.189a1.297 1.297 0 0 0-1.114-.737c-.48-.021-.93.221-1.176.635-.067.12-2.38 4.024-2.387 9.927 0 2.589.453 5.559 1.745 8.715a1.3 1.3 0 0 0 2.406-.985c-1.155-2.825-1.55-5.442-1.551-7.73 0-2.553.498-4.691 1.003-6.202.31.588.662 1.238 1.052 1.933.68 1.21 1.459 2.526 2.278 3.759.82 1.235 1.672 2.385 2.542 3.288.35.363.887.49 1.364.324.477-.167.817-.6.865-1.103l.008-.082c.045-.425.273-2.468.781-4.89.373-1.799.916-3.816 1.613-5.497.415.532.906 1.257 1.408 2.228 1.098 2.124 2.239 5.413 2.678 10.274-1.128 1.247-2.184 2.903-2.987 5.076a1.3 1.3 0 1 0 2.438.903 14.82 14.82 0 0 1 1.177-2.476c.237.202.541.328.877.316a1.299 1.299 0 0 0 1.257-1.342c-.017-.515-.055-.991-.087-1.48.102-.089.203-.181.303-.261a6.735 6.735 0 0 1 1.707-1.015c.502-.2.925-.267 1.149-.265l.1.005c.035.009.258.169.482.464.36.452.734 1.151.99 1.715.129.283.232.534.302.711l.079.205.019.051.004.012a1.3 1.3 0 0 0 2.388.149l2.013-4.025c.35.275.757.627 1.186 1.068 1.198 1.231 2.551 3.113 3.294 5.835a1.3 1.3 0 0 0 2.509-.683 16.225 16.225 0 0 0-1.64-3.918c.093-.102.182-.209.24-.342v-.001c.8-1.821 1.802-2.904 2.786-3.558.985-.652 1.982-.879 2.783-.879.517-.002.95.102 1.182.206.413.182.896.135 1.267-.124.37-.258.58-.693.553-1.143a3.47 3.47 0 0 1-.002-.157c-.007-.503.092-2.086.848-3.43a4.89 4.89 0 0 1 1.662-1.786c.768-.486 1.801-.856 3.28-.937l.003-.001c.097-.005.19-.008.28-.008 1.183.006 2.094.39 2.913 1.017 1.221.936 2.14 2.494 2.701 3.832a15.589 15.589 0 0 1 .743 2.209l.03.128.007.028v.003a1.3 1.3 0 0 0 1.851.9l.004-.002c.023-.021 1.506-.702 2.933-.689.675.001 1.306.135 1.841.469.534.338 1.04.878 1.443 1.956a1.3 1.3 0 0 0 2.41.075l.002-.004c.043-.099.606-1.319 1.519-2.539.454-.611.995-1.219 1.575-1.688.58-.473 1.186-.799 1.778-.924.197-.043.386-.063.559-.063.402.001.691.103.883.252.189.153.359.364.458.882a1.3 1.3 0 0 0 2.516.177 8.421 8.421 0 0 1 1.001-1.941c.312-.443.688-.85 1.081-1.12.398-.27.782-.412 1.244-.415.093 0 .184.006.278.019h.005c.364.047.613.126.772.2.239.117.284.193.329.264a.717.717 0 0 1 .072.351 2.07 2.07 0 0 1-.094.566l-.066.187-.016.039-.002.003h.002a1.295 1.295 0 0 0 .246 1.463c.385.393.969.501 1.469.272v.001c.075-.039 1.353-.566 2.72-.558.92.003 1.827.21 2.61.835.422.341.686.75.868 1.252.179.499.256 1.086.255 1.668a8.938 8.938 0 0 1-.218 1.882 9.37 9.37 0 0 1-.149.587l-.046.15-.011.033-.001.002c-.187.537 0 1.139.459 1.476a1.302 1.302 0 0 0 1.545-.005c.037-.028.679-.491 1.589-.93.908-.443 2.084-.839 3.117-.833.706.003 1.324.158 1.902.56.294.208.439.398.539.6.098.202.149.435.15.73.001.39-.102.876-.288 1.375-.275.75-.723 1.516-1.101 2.073a12.3 12.3 0 0 1-.478.664l-.139.175-.034.042-.007.008a1.3 1.3 0 1 0 1.981 1.684c.03-.037.658-.774 1.306-1.865.324-.547.653-1.182.911-1.88.256-.698.447-1.461.449-2.276 0-.609-.114-1.254-.41-1.864a4.174 4.174 0 0 0-1.387-1.596c-1.073-.754-2.283-1.034-3.394-1.03-1.401.006-2.668.406-3.707.855.012-.201.021-.405.022-.617-.001-.798-.097-1.672-.407-2.542a5.326 5.326 0 0 0-1.692-2.408c-1.358-1.089-2.923-1.408-4.234-1.405a9.569 9.569 0 0 0-1.691.165 3.064 3.064 0 0 0-1.251-2.146c-.573-.419-1.295-.674-2.154-.785a4.747 4.747 0 0 0-.619-.04c-1.093-.003-2.052.392-2.792.924-.834.602-1.441 1.355-1.892 2.06-.011-.009-.02-.021-.031-.029-.738-.567-1.622-.792-2.468-.791a5.327 5.327 0 0 0-2.032.41c.003-1.681.141-4.168.282-7.068.142-2.947.285-6.327.285-9.776 0-2.568-.079-5.176-.299-7.681a1.3 1.3 0 0 0-2.59.228c.211 2.403.29 4.939.29 7.453 0 3.378-.142 6.716-.283 9.651-.142 2.938-.285 5.462-.286 7.275 0 .597.015 1.118.056 1.575.002.015.011.027.013.042a14.181 14.181 0 0 0-2.093 2.575 5.438 5.438 0 0 0-1.256-1.105c-1.056-.656-2.2-.862-3.214-.861a9.274 9.274 0 0 0-2.646.416 17.153 17.153 0 0 0-1.34-3.058c-.645-1.132-1.507-2.302-2.69-3.221-1.176-.92-2.712-1.568-4.505-1.562a7.51 7.51 0 0 0-.425.012c-1.851.097-3.361.591-4.534 1.34-1.77 1.125-2.709 2.764-3.183 4.181a10.31 10.31 0 0 0-.438 1.891c-.166-.012-.32-.044-.494-.045-1.285 0-2.785.363-4.217 1.31-1.213.8-2.353 2.021-3.261 3.719-.26-.301-.519-.587-.77-.838-1.479-1.477-2.732-2.128-2.82-2.173a1.297 1.297 0 0 0-1.755.575l-1.483 2.966a7.688 7.688 0 0 0-.843-1.192 4.168 4.168 0 0 0-.783-.698 2.671 2.671 0 0 0-1.109-.443 3.394 3.394 0 0 0-.494-.035c-.646.002-1.346.149-2.105.447-.43.17-.88.41-1.335.688a35.194 35.194 0 0 0-.841-4.332c.022-.026.052-.039.072-.067l34.634-47.963c6.473 9.63 14.473 17.515 22.986 21.747 7.559 3.749 14.264 5.431 20.077 5.432 3.95.001 7.485-.782 10.548-2.219 4.598-2.152 8.102-5.768 10.422-10.243 2.323-4.478 3.486-9.815 3.486-15.518.012-19.858-5.818-35.908-16.824-50.762l.088-.128a332.21 332.21 0 0 0 7.399-11.35c.135.04.276.064.423.056l12.362-.67c.367-.02.71-.195.941-.48.231-.285.33-.658.273-1.02Zm-80.77-44.87c1.139-.3 2.627-.608 4.484-.83a21.249 21.249 0 0 0-.265 3.034c-1.216-.748-2.816-1.54-4.22-2.203Zm12.118 17.34c-2.222-2.183-3.841-5.296-4.648-8.863-.439-1.933-.67-3.907-.67-5.76-.006-2.802.543-5.316 1.578-6.994.516-.844 1.136-1.48 1.874-1.917.74-.435 1.613-.688 2.721-.69.16 0 .323.005.489.017h.005c.568.043.985.223 1.383.568.394.347.763.896 1.041 1.686.036.098.121.398.215.78.337 1.36.86 3.894 1.293 6.063a521.253 521.253 0 0 1 .714 3.65 1.294 1.294 0 0 0-.605 1.334 1.3 1.3 0 0 0 1.51 1.048c.681-.123 1.312-.176 1.898-.176 2.337.003 3.987.835 5.103 1.673.554.419.965.84 1.229 1.145.133.153.228.277.287.358l.062.086.009.014h.002a1.298 1.298 0 0 0 2.188-1.401c-.013-.02-.062-.095-.14-.203l19.265-8.627c.062.242.131.48.211.711.344.982.818 1.907 1.212 2.79.397.88.706 1.71.788 2.4.028.222.04.436.04.643a5.488 5.488 0 0 1-.674 2.607l-18.172 3.894c-.52.112-.917.53-1.006 1.052h-.003l-.008.035c-.052.207-.335 1.215-1.491 2.337-1.158 1.118-3.221 2.397-7.01 3.025-.791.13-1.554.192-2.287.192-3.385-.007-6.173-1.293-8.403-3.476Zm20.616 25.384a5.346 5.346 0 0 1-.118.482c-.01-.276-.011-.588-.017-.923-.02-.574-.021-1.186-.29-1.882a2.283 2.283 0 0 0-.776-1.014 2.278 2.278 0 0 0-1.344-.411c-.097 0-.187.005-.272.013a2.076 2.076 0 0 0-1.098.442c-.548.447-.784.98-.973 1.513-.313.938-.435 2.023-.53 3.197-.135 1.749-.174 3.68-.346 5.085a9.745 9.745 0 0 1-.125.8 5.506 5.506 0 0 1-.129-.429c-.378-1.437-.564-4-.559-7.25 0-2.225.082-4.8.211-7.61 2.062.56 4.269 1.4 6.624 2.618.015.353.034.914.034 1.58.002 1.183-.066 2.694-.292 3.789Zm35.473 1.657c-.312-1.878-.905-5.82-1.077-9.413l9.263-1.147 1.584 10.031-9.77.529Z"/><path d="m53.516 179.77.004.001h.007l-.011-.001ZM79.21 169.177h.003-.002ZM109.742 171.749h.006-.006Z"/></g></svg>