<svg width="200" height="200" viewBox="0 0 200 200" xmlns="http://www.w3.org/2000/svg"><g id="type=lost-connection, mode=dark"><g id="Frame"><path id="Vector" d="M88.502 9.02295L88.5048 9.02344H88.507L88.502 9.02295Z"/><path id="Vector_2" d="M86.7102 15.2598C85.9935 15.2173 85.3779 15.7637 85.3353 16.4805L85.3129 16.8584C85.2703 17.5749 85.8168 18.1904 86.5335 18.2332C87.2502 18.2756 87.8657 17.7292 87.9083 17.0125L87.9308 16.6345C87.9734 15.918 87.4269 15.3025 86.7102 15.2598Z"/><path id="Vector_3" d="M105.66 139.287C110.523 142.987 118.085 145.967 125.391 145.984C128.268 145.984 131.111 145.51 133.706 144.381C138.03 142.499 140.472 139.39 141.744 137.121C142.095 136.495 141.873 135.702 141.247 135.351C140.621 134.999 139.828 135.222 139.477 135.848C138.388 137.781 136.344 140.397 132.668 141.997C130.471 142.955 127.984 143.384 125.391 143.384C121.005 143.388 116.332 142.145 112.415 140.309C110.457 139.393 108.688 138.33 107.239 137.221C105.789 136.115 104.665 134.957 103.984 133.905C103.593 133.303 102.788 133.132 102.186 133.523C101.584 133.914 101.413 134.719 101.803 135.321L101.803 135.321C102.714 136.719 104.039 138.045 105.66 139.287Z"/><path id="Vector_4" d="M155.632 63.3538L153.627 50.6575C153.518 49.9639 152.88 49.4837 152.183 49.5701L140.49 51.0183C139.828 51.1001 139.336 51.6687 139.35 52.3355C139.434 56.2788 140.09 60.763 140.459 63.0115C140.181 63.106 139.927 63.2786 139.762 63.5488C139.762 63.5493 139.573 63.8587 139.213 64.4361C138.18 66.0977 135.741 69.9566 132.492 74.7539C124.845 64.9121 117.808 58.6819 111.49 54.8928C105.742 51.4431 100.581 50.023 96.1736 49.7388L99.4119 41.4114C103.236 40.5613 105.582 38.9956 106.935 37.4895C107.782 36.5518 108.232 35.6731 108.475 35.0435L126.443 31.1929C126.747 31.1275 127.014 30.9585 127.203 30.7114C127.249 30.6499 127.596 30.189 127.942 29.4046C128.287 28.6214 128.634 27.5064 128.634 26.1589C128.634 25.8484 128.616 25.5259 128.574 25.1939C128.374 23.6646 127.702 22.3279 127.152 21.1253C126.875 20.5269 126.622 19.9663 126.45 19.471C126.276 18.9753 126.19 18.5513 126.191 18.2351C126.191 18.1204 126.201 18.0188 126.22 17.926C126.315 17.4502 126.136 16.9575 125.756 16.6548C125.377 16.3521 124.857 16.2859 124.414 16.4844L102.569 26.2659C102.527 26.2334 102.491 26.2017 102.448 26.1692C101.002 25.0706 98.7606 23.9666 95.7779 23.97C95.7037 23.97 95.6239 23.979 95.5488 23.9805C95.4251 23.3345 95.0468 21.3687 94.6192 19.2512C94.3586 17.9612 94.0815 16.6238 93.8348 15.5073C93.7114 14.9487 93.5957 14.4458 93.4918 14.0261C93.3862 13.6026 93.3002 13.2791 93.2049 13.0059C92.815 11.9016 92.2371 10.948 91.4335 10.2368C90.6353 9.52443 89.6049 9.0923 88.5043 9.02345C88.2759 9.00734 88.0527 9.00001 87.835 9.00001C86.3185 8.99757 84.9446 9.36744 83.7917 10.0508C82.0546 11.0774 80.8675 12.7498 80.1285 14.6831C80.094 14.7734 80.072 14.8721 80.0392 14.9639C73.8686 15.5635 70.8979 17.1179 70.7584 17.1941C70.3168 17.4317 70.0531 17.8967 70.0759 18.3977C70.0986 18.8987 70.4033 19.3379 70.8647 19.5347C70.865 19.5347 70.9654 19.5776 71.1507 19.6582C71.799 19.94 73.4551 20.6716 75.0857 21.4795C75.9001 21.8828 76.7089 22.3062 77.3698 22.6926C77.6999 22.8853 77.9929 23.0691 78.2249 23.23C78.4562 23.3889 78.6283 23.5315 78.6971 23.6018C78.8456 23.7503 79.0234 23.8418 79.21 23.9033C79.3319 25.1128 79.5231 26.3311 79.7961 27.5361C80.6976 31.5073 82.5096 35.0696 85.1563 37.6777C87.7953 40.2864 91.3114 41.9077 95.3826 41.9006C95.7334 41.9006 96.091 41.8796 96.4495 41.856L93.3957 49.7085C90.2195 49.8374 87.529 50.5244 85.402 51.312C84.7286 51.561 84.3846 52.3088 84.6338 52.9822C84.8829 53.6555 85.6307 53.9995 86.3041 53.7505L86.3041 53.7503C88.4421 52.96 91.1708 52.282 94.4517 52.2815C95.7629 52.2825 97.1649 52.3921 98.6543 52.647C98.5108 55.6587 98.419 58.4238 98.4188 60.8301C98.4212 63.8435 98.5518 66.3003 98.9233 68.1333C99.1156 69.0532 99.3532 69.8237 99.7712 70.4905C99.9827 70.8215 100.251 71.1338 100.615 71.3757C100.975 71.6189 101.441 71.7656 101.891 71.7617C102.305 71.7671 102.738 71.6155 103.046 71.3855C103.34 71.1714 103.539 70.9158 103.69 70.6651C103.968 70.1912 104.109 69.7063 104.226 69.1799C104.422 68.2632 104.508 67.2073 104.577 66.0996C104.669 64.5869 104.728 62.9966 104.88 61.7603C104.893 62.1953 104.929 62.6599 105.067 63.1575C105.181 63.5479 105.381 63.9922 105.782 64.3633C106.178 64.7383 106.752 64.949 107.287 64.9663L107.307 64.9673L107.394 64.9685C107.856 64.9729 108.32 64.8103 108.661 64.5654C109.264 64.1279 109.555 63.5664 109.782 63.0047C110.108 62.1533 110.264 61.1973 110.364 60.2188C110.461 59.2437 110.488 58.2566 110.488 57.4199C110.488 57.3889 110.488 57.3609 110.488 57.3301C116.514 61.0132 123.39 67.1463 130.952 77.0083C130.252 78.024 129.523 79.0694 128.77 80.1353L98.8332 81.3025C98.1158 81.3303 97.5568 81.9346 97.5848 82.6521C97.6128 83.3697 98.2171 83.9285 98.9345 83.9004L126.856 82.8118C123.899 86.8975 120.656 91.1455 117.377 95.0254C116.906 94.6511 116.384 94.3196 115.798 94.0632C114.853 93.6487 113.765 93.4187 112.561 93.4197C109.799 93.4268 106.466 94.5796 102.289 97.3318C101.689 97.7271 101.524 98.5337 101.92 99.1331C102.315 99.7325 103.122 99.8975 103.721 99.5022V99.502C107.646 96.9065 110.559 96.0125 112.561 96.0196C113.44 96.0205 114.152 96.1819 114.755 96.4451C115.094 96.5938 115.393 96.7869 115.674 97C115.545 97.1475 115.415 97.2971 115.286 97.4429C114.809 97.98 114.858 98.8015 115.396 99.2781C115.933 99.7547 116.754 99.7056 117.231 99.1685V99.1683C117.26 99.1358 117.288 99.1009 117.317 99.0684C117.62 99.69 117.849 100.363 117.996 101.034C118.134 101.663 118.205 102.375 118.205 103.149C118.207 105.158 117.72 107.566 116.829 109.981C115.941 112.397 114.652 114.824 113.099 116.908C112.67 117.484 112.79 118.298 113.366 118.727C113.941 119.156 114.756 119.037 115.185 118.461C116.901 116.155 118.294 113.527 119.269 110.879C120.243 108.23 120.803 105.565 120.805 103.149C120.805 102.218 120.721 101.323 120.535 100.477C120.277 99.3089 119.829 98.0901 119.119 96.981C122.988 92.4253 126.785 87.3973 130.147 82.6834L130.342 82.6758C131.06 82.648 131.618 82.0437 131.591 81.3262C131.583 81.1441 131.538 80.9729 131.464 80.8184C131.842 80.2798 132.223 79.74 132.587 79.2149C142.965 93.5059 148.359 108.677 148.37 127.708C148.372 134.846 146.418 141.223 142.75 145.759C140.915 148.03 138.654 149.851 135.959 151.115C133.262 152.378 130.123 153.087 126.514 153.088C121.209 153.09 114.883 151.543 107.592 147.927C98.12 143.242 88.9129 133.37 82.1506 121.499C75.3772 109.635 71.037 95.7908 71.0429 83.281C71.0427 78.1785 71.7606 73.3008 73.306 68.8587C74.8524 64.4156 77.2202 60.4073 80.5459 57.0032C81.0476 56.4895 81.0381 55.6668 80.5247 55.1651C80.0112 54.6631 79.1883 54.6726 78.6866 55.1863C75.0752 58.8799 72.5063 63.241 70.8503 68.0047C69.1933 72.7693 68.443 77.9358 68.4428 83.281C68.4487 96.387 72.9348 110.583 79.8922 122.788C80.5484 123.936 81.2331 125.061 81.9315 126.172L47.7605 173.494C47.4125 172.608 47.0474 171.823 46.6813 171.142C45.1603 168.306 43.6463 167.177 43.5071 167.079C43.2086 166.865 42.8334 166.788 42.4751 166.866C42.1167 166.944 41.8073 167.17 41.6245 167.489C40.2141 169.958 39.3804 173.187 38.8452 175.847C38.7254 176.449 38.6246 177.016 38.5372 177.541C38.3908 177.331 38.2443 177.12 38.0989 176.901C36.9457 175.164 35.8328 173.184 35.0153 171.646C34.6062 170.878 34.2702 170.219 34.0373 169.754C33.9208 169.521 33.8302 169.337 33.7689 169.212C33.7077 169.087 33.6775 169.023 33.6774 169.023C33.4694 168.589 33.0437 168.308 32.5631 168.286C32.0825 168.265 31.6332 168.507 31.3873 168.921C31.3202 169.041 29.0062 172.945 29 178.848C28.9993 181.437 29.4535 184.407 30.745 187.563C31.0169 188.227 31.7759 188.545 32.4404 188.273C33.105 188.002 33.4233 187.242 33.1515 186.578V186.578C31.9965 183.753 31.6007 181.136 31.6 178.848C31.5997 176.295 32.0982 174.157 32.6033 172.646C32.9139 173.234 33.265 173.884 33.6547 174.579C34.3342 175.789 35.1139 177.105 35.9326 178.338C36.7534 179.573 37.6054 180.723 38.4748 181.626C38.8259 181.989 39.3616 182.116 39.8389 181.95C40.3162 181.783 40.656 181.35 40.7042 180.847L40.7125 180.765C40.7567 180.34 40.9855 178.297 41.493 175.875C41.866 174.076 42.4086 172.059 43.1058 170.378C43.5214 170.91 44.0117 171.635 44.5144 172.606C45.6118 174.73 46.7529 178.019 47.1921 182.88C46.064 184.127 45.0084 185.783 44.2053 187.956C43.9558 188.629 44.2994 189.377 44.9727 189.626C45.6459 189.876 46.394 189.532 46.6434 188.859L46.6434 188.859C46.9963 187.907 47.3962 187.09 47.8197 186.383C48.0573 186.585 48.3615 186.711 48.6975 186.699C49.4151 186.676 49.9775 186.075 49.9536 185.357C49.9365 184.842 49.8986 184.366 49.8674 183.877C49.9685 183.788 50.07 183.696 50.1699 183.616C50.7826 183.126 51.3727 182.8 51.8768 182.601C52.3785 182.401 52.802 182.334 53.0257 182.336L53.1264 182.341C53.1612 182.35 53.3842 182.51 53.6082 182.805C53.9675 183.257 54.3416 183.956 54.5973 184.52C54.7268 184.803 54.8303 185.054 54.9001 185.231L54.9787 185.436L54.9975 185.487L55.0017 185.499C55.1752 185.991 55.6259 186.331 56.1467 186.364C56.6674 186.396 57.157 186.114 57.3903 185.648L59.4027 181.623C59.7531 181.898 60.1599 182.25 60.5889 182.691C61.7869 183.922 63.1403 185.804 63.8835 188.526C64.0723 189.219 64.7868 189.627 65.4795 189.439C66.1722 189.25 66.5807 188.535 66.3919 187.843C65.9801 186.331 65.3988 185.036 64.7523 183.925C64.845 183.823 64.9341 183.716 64.9924 183.583L64.9923 183.582C65.7917 181.761 66.7936 180.678 67.7783 180.024C68.7631 179.372 69.7597 179.145 70.5611 179.145C71.0783 179.143 71.5108 179.247 71.7428 179.351C72.1564 179.533 72.6392 179.486 73.0097 179.227C73.3794 178.969 73.5898 178.534 73.563 178.084H73.5634C73.5628 178.072 73.5605 178.017 73.5605 177.927C73.5542 177.424 73.6527 175.841 74.4088 174.497C74.7859 173.821 75.3058 173.2 76.0714 172.711C76.8388 172.225 77.8723 171.855 79.3517 171.774L79.3541 171.773C79.4508 171.768 79.5444 171.765 79.6347 171.765C80.8169 171.771 81.7278 172.155 82.5469 172.782C83.768 173.718 84.6866 175.276 85.2481 176.614C85.531 177.281 85.7299 177.887 85.8556 178.319C85.9185 178.535 85.9632 178.708 85.9913 178.823L86.0216 178.951L86.0279 178.979L86.0285 178.982C86.1106 179.377 86.3712 179.712 86.7346 179.888C87.0968 180.063 87.5188 180.06 87.8791 179.882L87.8792 179.882L87.8828 179.88C87.9062 179.859 89.3886 179.178 90.8159 179.191C91.4909 179.192 92.1218 179.326 92.6574 179.66C93.191 179.998 93.6973 180.538 94.0995 181.616C94.2821 182.113 94.7497 182.451 95.2792 182.467C95.8087 182.484 96.2965 182.176 96.5098 181.691L96.512 181.687C96.5547 181.588 97.1176 180.368 98.0305 179.148C98.4852 178.537 99.0265 177.929 99.6055 177.46C100.186 176.987 100.792 176.661 101.384 176.536C101.581 176.493 101.77 176.473 101.943 176.473C102.345 176.474 102.634 176.576 102.826 176.725C103.015 176.878 103.185 177.089 103.284 177.607C103.387 178.194 103.878 178.636 104.473 178.678C105.068 178.719 105.615 178.351 105.8 177.784H105.8C105.817 177.725 106.171 176.727 106.801 175.843C107.113 175.4 107.489 174.993 107.882 174.723C108.28 174.453 108.664 174.311 109.126 174.308C109.219 174.308 109.31 174.314 109.404 174.327L109.409 174.327C109.773 174.374 110.022 174.453 110.181 174.527C110.42 174.644 110.465 174.72 110.51 174.791C110.551 174.863 110.582 174.977 110.582 175.142C110.583 175.322 110.538 175.546 110.488 175.708L110.422 175.895L110.406 175.934L110.404 175.937L110.406 175.937C110.174 176.43 110.27 177.011 110.652 177.4C111.037 177.793 111.621 177.901 112.121 177.672L112.121 177.673C112.196 177.634 113.474 177.107 114.841 177.115C115.761 177.118 116.668 177.325 117.451 177.95C117.873 178.291 118.137 178.7 118.319 179.202C118.498 179.701 118.575 180.288 118.574 180.87C118.575 181.569 118.466 182.255 118.356 182.752C118.301 183.002 118.246 183.204 118.207 183.339L118.161 183.489L118.15 183.522L118.149 183.524C117.962 184.061 118.149 184.663 118.608 185C119.066 185.337 119.696 185.335 120.153 184.995H120.153C120.19 184.967 120.832 184.504 121.742 184.065C122.65 183.622 123.826 183.226 124.859 183.232C125.565 183.235 126.183 183.39 126.761 183.792C127.055 184 127.2 184.19 127.3 184.392C127.398 184.594 127.449 184.827 127.45 185.122C127.451 185.512 127.348 185.998 127.162 186.497C126.887 187.247 126.439 188.013 126.061 188.57C125.873 188.85 125.703 189.079 125.583 189.234L125.444 189.409L125.41 189.451L125.403 189.459L125.403 189.459C124.938 190.006 125.004 190.826 125.551 191.291C126.098 191.756 126.918 191.69 127.384 191.143C127.414 191.106 128.042 190.369 128.69 189.278C129.014 188.731 129.343 188.096 129.601 187.398C129.857 186.7 130.048 185.937 130.05 185.122C130.05 184.513 129.936 183.868 129.64 183.258C129.347 182.648 128.871 182.093 128.253 181.662C127.18 180.908 125.97 180.628 124.859 180.632C123.458 180.637 122.191 181.038 121.152 181.487C121.164 181.286 121.173 181.082 121.174 180.87C121.173 180.072 121.077 179.198 120.767 178.328C120.46 177.46 119.919 176.592 119.075 175.92C117.717 174.831 116.152 174.512 114.841 174.515C114.222 174.518 113.656 174.587 113.15 174.68C113.126 174.489 113.089 174.293 113.024 174.09C112.853 173.533 112.474 172.949 111.899 172.534C111.326 172.115 110.604 171.86 109.745 171.749C109.532 171.721 109.325 171.709 109.126 171.709C108.033 171.706 107.074 172.101 106.334 172.633C105.5 173.235 104.893 173.988 104.442 174.693C104.431 174.684 104.422 174.672 104.411 174.664C103.673 174.097 102.789 173.872 101.943 173.873C101.571 173.873 101.201 173.916 100.838 173.993C100.514 174.064 100.208 174.165 99.9107 174.283C99.9143 172.602 100.052 170.115 100.193 167.215C100.335 164.268 100.478 160.888 100.478 157.439C100.478 154.871 100.399 152.263 100.179 149.758C100.116 149.043 99.4849 148.514 98.7697 148.577C98.0545 148.64 97.5258 149.271 97.5888 149.986C97.8001 152.389 97.8782 154.925 97.8781 157.439C97.8782 160.817 97.7373 164.155 97.5956 167.09C97.4541 170.028 97.3106 172.552 97.31 174.365C97.3102 174.962 97.3252 175.483 97.3664 175.94C97.3678 175.955 97.377 175.967 97.3789 175.982C96.5017 176.821 95.8089 177.744 95.2864 178.557C94.9041 178.112 94.486 177.732 94.0301 177.452C92.9743 176.796 91.8301 176.59 90.8158 176.591C89.7896 176.593 88.8803 176.794 88.1703 177.007C87.8969 176.175 87.4678 175.076 86.8301 173.949C86.1847 172.817 85.3232 171.647 84.14 170.728C82.9638 169.808 81.4284 169.16 79.6347 169.166C79.4933 169.166 79.352 169.17 79.2105 169.178C77.3586 169.275 75.849 169.769 74.6755 170.518C72.9056 171.643 71.967 173.282 71.493 174.699C71.2603 175.393 71.1295 176.041 71.0551 176.59C70.8888 176.578 70.7353 176.546 70.561 176.545C69.2762 176.545 67.7758 176.908 66.3437 177.855C65.1313 178.655 63.9912 179.876 63.0829 181.574C62.8229 181.273 62.564 180.987 62.3121 180.736C60.8343 179.259 59.5809 178.608 59.4935 178.563C59.1843 178.404 58.8258 178.376 58.4958 178.484C58.1657 178.593 57.8935 178.827 57.7381 179.138L56.2554 182.104C56.0124 181.696 55.7455 181.287 55.4124 180.912C55.1867 180.659 54.935 180.42 54.6293 180.214C54.326 180.01 53.958 179.835 53.5202 179.771C53.3492 179.746 53.1857 179.736 53.0257 179.736C52.3798 179.738 51.6802 179.885 50.9209 180.183C50.4912 180.353 50.041 180.593 49.5859 180.871C49.3722 179.263 49.0836 177.824 48.745 176.539C48.7667 176.513 48.7971 176.5 48.8171 176.472L83.4507 128.509C89.9237 138.139 97.9241 146.024 106.437 150.256C113.996 154.005 120.701 155.687 126.514 155.688C130.464 155.689 133.999 154.906 137.062 153.469C141.66 151.317 145.164 147.701 147.484 143.226C149.807 138.748 150.97 133.411 150.97 127.708C150.982 107.85 145.152 91.8003 134.146 76.946C134.174 76.9043 134.206 76.8594 134.234 76.8179C137.969 71.3281 140.703 66.9688 141.633 65.4688C141.768 65.5073 141.909 65.5317 142.056 65.5237L154.418 64.8547C154.785 64.8347 155.128 64.6592 155.359 64.374C155.59 64.0889 155.689 63.7158 155.632 63.3538ZM74.8611 18.4849C76.0009 18.1841 77.4893 17.8765 79.3462 17.6531C79.1835 18.6282 79.1028 19.6465 79.0806 20.6875C77.8647 19.9395 76.2654 19.148 74.8611 18.4849ZM86.9802 35.8247C84.7585 33.6414 83.1389 30.5278 82.3318 26.9614C81.8934 25.0283 81.6616 23.0542 81.6619 21.2009C81.6565 18.3992 82.2053 15.8848 83.2395 14.2066C83.7555 13.3633 84.3757 12.7263 85.1141 12.2896C85.8545 11.8548 86.7269 11.6023 87.835 11.5999C87.9954 11.5999 88.158 11.6052 88.3236 11.617L88.3286 11.6174C88.8973 11.6604 89.3136 11.8401 89.712 12.1851C90.1057 12.5318 90.4745 13.0813 90.7532 13.8711C90.7888 13.969 90.8741 14.2686 90.968 14.6509C91.3051 16.0113 91.8284 18.5449 92.2609 20.7139C92.4776 21.8003 92.6727 22.7993 92.8135 23.5264C92.8815 23.8772 92.9359 24.1599 92.9749 24.3633C92.5306 24.635 92.2718 25.1543 92.3699 25.6978C92.4974 26.4043 93.1737 26.8738 93.8804 26.7464L93.8804 26.7461C94.5611 26.6231 95.1923 26.5698 95.7779 26.5698C98.1149 26.5733 99.7651 27.4055 100.881 28.2432C101.435 28.6619 101.846 29.0821 102.11 29.388C102.243 29.5408 102.338 29.6651 102.397 29.7456L102.459 29.8316L102.468 29.8462L102.47 29.8455C102.856 30.4463 103.656 30.6236 104.259 30.2393C104.865 29.854 105.044 29.0506 104.658 28.4449C104.646 28.4253 104.596 28.3497 104.518 28.2417L123.783 19.6153C123.845 19.8565 123.914 20.0943 123.994 20.326C124.338 21.3077 124.812 22.2332 125.206 23.1162C125.603 23.9961 125.912 24.8265 125.994 25.5166C126.022 25.7381 126.034 25.9522 126.034 26.159C126.035 27.052 125.8 27.8186 125.563 28.3567C125.491 28.5186 125.423 28.6504 125.36 28.7659L107.188 32.6604C106.668 32.7715 106.271 33.1905 106.182 33.7124L106.179 33.7119L106.171 33.7473C106.119 33.9539 105.836 34.9619 104.68 36.0838C103.522 37.2024 101.459 38.4812 97.6707 39.1087C96.8787 39.2388 96.116 39.3008 95.3826 39.3008C91.9983 39.2937 89.2095 38.0078 86.9802 35.8247ZM107.596 61.2075C107.562 61.3836 107.521 61.5418 107.478 61.69C107.468 61.4141 107.467 61.1023 107.461 60.7669C107.441 60.1926 107.44 59.5813 107.171 58.8853C107.034 58.5418 106.791 58.1553 106.395 57.8713C106.002 57.5842 105.503 57.4553 105.051 57.46C104.954 57.46 104.864 57.4651 104.779 57.4729C104.37 57.5066 103.971 57.6814 103.681 57.9146C103.133 58.3623 102.897 58.895 102.708 59.4275C102.395 60.366 102.273 61.4507 102.178 62.6252C102.043 64.374 102.004 66.3044 101.832 67.7105C101.798 68.0078 101.754 68.2739 101.707 68.5098C101.663 68.3811 101.619 68.242 101.578 68.0813C101.2 66.6436 101.014 64.0818 101.019 60.8301C101.019 58.606 101.101 56.0303 101.23 53.2205C103.292 53.7803 105.499 54.6213 107.854 55.8394C107.869 56.1924 107.888 56.7534 107.888 57.4199C107.89 58.6023 107.822 60.1133 107.596 61.2075ZM143.069 62.8648C142.757 60.9873 142.164 57.0457 141.992 53.4522L151.255 52.3047L152.839 62.336L143.069 62.8648Z"/><path id="Vector_5" d="M53.5156 179.77L53.52 179.771L53.5269 179.771L53.5156 179.77Z"/><path id="Vector_6" d="M79.2109 169.177H79.2111L79.2133 169.177L79.2109 169.177Z"/><path id="Vector_7" d="M109.742 171.749L109.745 171.749L109.748 171.749L109.742 171.749Z"/></g></g></svg>