<svg width="200" height="200" viewBox="0 0 200 200" xmlns="http://www.w3.org/2000/svg"><g id="type=cashback, mode=dark"><g id="Layer 25"><path id="Vector" d="M33.6831 125.196C33.5841 125.057 33.4587 124.939 33.314 124.848C33.1693 124.757 33.0082 124.696 32.8398 124.668C32.6715 124.64 32.4992 124.645 32.3328 124.683C32.1665 124.721 32.0093 124.792 31.8702 124.891V124.891L31.863 124.896C30.7853 125.62 29.6486 126.252 28.4647 126.786C26.2833 127.838 23.9063 128.424 21.4856 128.507C20.6324 128.512 19.782 128.406 18.9559 128.193L18.9562 128.193C16.8095 127.692 14.8478 126.596 13.2968 125.029C12.1601 123.887 11.5018 122.355 11.4562 120.744C11.4864 119.802 11.7368 118.879 12.1872 118.051C12.6376 117.223 13.2757 116.511 14.0502 115.974L14.0503 115.973C15.5344 114.769 17.1424 113.727 18.8474 112.864C19.8539 112.326 20.9659 112.015 22.1055 111.952C22.4489 111.937 22.792 111.99 23.1145 112.109C23.437 112.228 23.7323 112.411 23.983 112.646L23.9832 112.646C24.8058 113.517 25.2529 114.677 25.2279 115.875C25.2258 116.802 24.9755 117.711 24.5029 118.508C23.8422 119.579 22.9216 120.467 21.8265 121.087C21.5314 121.266 21.3193 121.554 21.2369 121.889C21.1544 122.224 21.2083 122.577 21.3868 122.873C21.5652 123.168 21.8535 123.38 22.1883 123.462C22.523 123.545 22.8769 123.491 23.1719 123.312C24.6391 122.467 25.8693 121.265 26.7486 119.818C27.4529 118.623 27.8255 117.262 27.8279 115.875C27.8428 114.927 27.668 113.985 27.3138 113.106C26.9595 112.226 26.433 111.426 25.7652 110.753C25.4638 110.474 25.1282 110.233 24.7665 110.037C24.8749 109.453 24.9313 108.859 24.9351 108.265C24.953 106.969 24.6324 105.692 24.0051 104.559C23.3453 103.413 22.3714 102.479 21.1983 101.869C19.9674 101.23 18.5985 100.902 17.2114 100.914C14.1895 101.008 11.3175 102.253 9.18252 104.393C9.06539 104.188 8.94442 103.965 8.82363 103.716C8.12376 102.313 7.7502 100.77 7.7309 99.202C7.78947 96.5705 8.85741 94.0622 10.7137 92.1962C10.8282 92.0695 10.9165 91.9215 10.9738 91.7607C11.031 91.5999 11.056 91.4293 11.0473 91.2588C11.0387 91.0884 10.9965 90.9212 10.9233 90.767C10.85 90.6129 10.7471 90.4746 10.6204 90.3602C10.4937 90.2457 10.3458 90.1574 10.1849 90.1002C10.0241 90.0429 9.85359 90.0179 9.6831 90.0266C9.51261 90.0352 9.3455 90.0774 9.19131 90.1507C9.03711 90.2239 8.89886 90.3268 8.78443 90.4535C6.49824 92.7989 5.19174 95.9273 5.13086 99.202C5.15126 101.215 5.63773 103.195 6.55209 104.989C6.7973 105.479 7.07102 105.956 7.37185 106.414C6.35025 107.755 5.78351 109.387 5.75424 111.072C5.76137 112.114 5.97994 113.144 6.3967 114.1C6.90147 115.242 7.59876 116.29 8.45816 117.196C8.73747 117.496 9.03196 117.782 9.34048 118.052C9.02027 118.914 8.85624 119.825 8.85611 120.744C8.9015 123.012 9.8084 125.177 11.3925 126.8C13.2776 128.727 15.6696 130.082 18.292 130.707L18.2923 130.707C19.3351 130.977 20.4084 131.112 21.4856 131.107C24.3547 131.021 27.1722 130.322 29.7489 129.057C31.0134 128.476 32.2273 127.791 33.378 127.009C33.517 126.91 33.6353 126.784 33.7259 126.64C33.8165 126.495 33.8777 126.334 33.906 126.166C33.9343 125.997 33.9292 125.825 33.891 125.659C33.8527 125.492 33.7821 125.335 33.6831 125.196ZM9.73194 114.678C9.34029 114.169 9.01491 113.612 8.76362 113.021C8.49986 112.405 8.36075 111.742 8.35432 111.072C8.40562 109.657 8.98518 108.313 9.97871 107.304L9.97877 107.304C12.3882 104.549 15.031 103.516 17.2115 103.514C18.1734 103.502 19.1237 103.726 19.9793 104.166C20.7153 104.544 21.3274 105.125 21.743 105.841C22.1489 106.583 22.353 107.419 22.335 108.265C22.3312 108.633 22.2996 109 22.2405 109.364C22.1947 109.363 22.1514 109.352 22.1054 109.353C20.5768 109.412 19.0805 109.81 17.7248 110.519C15.8492 111.463 14.0802 112.605 12.4479 113.926L12.448 113.926C11.7773 114.448 11.1747 115.052 10.6543 115.723C10.3218 115.398 10.0136 115.048 9.73194 114.678Z"/><path id="Vector_2" d="M11.1291 73.2041L11.1303 73.2034C11.2343 73.1423 11.3544 73.1144 11.4747 73.1233C12.0556 73.177 12.6152 73.3688 13.107 73.6826C14.546 74.5636 15.8456 75.6541 16.9632 76.9182C18.5366 78.6359 19.9457 80.4972 21.1719 82.4778C22.1529 84.0369 23.0236 85.6628 23.7777 87.3435C23.8471 87.4995 23.9465 87.6403 24.0703 87.7579C24.1941 87.8754 24.3398 87.9675 24.4991 88.0287C24.6585 88.09 24.8283 88.1193 24.999 88.1149C25.1697 88.1105 25.3378 88.0725 25.4938 88.0032C25.6498 87.9338 25.7906 87.8344 25.9082 87.7106C26.0257 87.5868 26.1178 87.4411 26.179 87.2817C26.2403 87.1224 26.2696 86.9525 26.2652 86.7819C26.2608 86.6112 26.2228 86.4431 26.1535 86.2871V86.287C25.3497 84.4946 24.4214 82.7607 23.3756 81.098C21.6991 78.3542 19.6698 75.8422 17.3397 73.6264C16.439 72.7775 15.4439 72.0346 14.374 71.4122C13.4979 70.8763 12.5006 70.5705 11.4747 70.5233C10.8472 70.5145 10.231 70.6908 9.70307 71.0301C9.53984 71.1379 9.38772 71.2617 9.24897 71.3996L5.20466 73.9455L5.19544 73.9543L5.18415 73.9588V73.9587C4.58907 74.3633 4.14041 74.9491 3.90485 75.6291C3.66961 76.3096 3.55678 77.0264 3.5716 77.7463C3.66072 79.7922 4.09986 81.8077 4.86994 83.7052C5.81634 86.184 7.00854 88.5618 8.42872 90.8031C10.1053 93.5469 12.1346 96.0589 14.4648 98.2747C15.3656 99.1237 16.3607 99.8666 17.4306 100.489C18.3067 101.025 19.3041 101.331 20.33 101.378C20.9536 101.386 21.5659 101.212 22.0919 100.877L22.0953 100.876L25.0123 98.9841C25.3016 98.7965 25.5045 98.5017 25.5764 98.1645C25.6483 97.8273 25.5833 97.4753 25.3957 97.186C25.2889 97.026 25.1473 96.8921 24.9815 96.7945C24.9565 96.5495 24.8621 96.3167 24.7094 96.1234C24.5566 95.9302 24.3518 95.7846 24.1192 95.7038C22.5538 95.0075 21.1515 93.9914 20.0023 92.7208C18.1615 90.8294 16.5346 88.7411 15.1509 86.4935C13.8246 84.4015 12.7106 82.1822 11.8256 79.8687C11.1671 78.2602 10.7834 76.5525 10.6906 74.8169C10.6775 74.4062 10.7352 73.9964 10.8612 73.6053C10.9046 73.4461 10.9987 73.3053 11.1291 73.2041ZM12.9472 87.8733C14.4341 90.2863 16.1829 92.5279 18.1618 94.5571C19.3484 95.8017 20.7158 96.8603 22.218 97.6973L20.6806 98.6942L20.6784 98.6964L20.676 98.6974C20.5715 98.7586 20.4509 98.7867 20.33 98.778C19.7491 98.7242 19.1894 98.5325 18.6976 98.2186C17.2586 97.3377 15.9589 96.2471 14.8413 94.983C11.6066 91.4158 9.05283 87.2861 7.30666 82.7983C6.64804 81.1897 6.26434 79.4819 6.17159 77.7462C6.15846 77.3354 6.21617 76.9255 6.34218 76.5343C6.38563 76.3756 6.47909 76.2352 6.60866 76.1339L8.11501 75.1857C8.24802 77.1036 8.67775 78.9892 9.38887 80.7754C10.3352 83.2542 11.5272 85.632 12.9472 87.8733Z"/><path id="Vector_3" d="M9.70312 71.0308L9.70413 71.0298L9.70312 71.0308Z"/><path id="Vector_4" d="M33.1995 178.715L33.0745 183.34C33.0674 183.683 33.1964 184.015 33.4333 184.264C33.6703 184.512 33.9959 184.657 34.3391 184.666C34.6823 184.675 35.0153 184.548 35.2653 184.313C35.5153 184.078 35.662 183.753 35.6735 183.41L35.7985 178.785C35.8056 178.442 35.6766 178.109 35.4397 177.861C35.2027 177.612 34.8771 177.468 34.5339 177.458C34.1906 177.449 33.8577 177.576 33.6077 177.811C33.3577 178.047 33.2109 178.372 33.1995 178.715Z"/><path id="Vector_5" d="M84.7138 49.8808C83.5397 48.6209 82.0571 47.6893 80.4126 47.178C79.3188 46.8721 78.1871 46.7233 77.0514 46.7361C71.3602 47.0856 65.9314 49.2527 61.5641 52.9186C57.1968 56.5845 54.1216 61.5555 52.791 67.1C52.3823 68.9581 52.1707 70.8542 52.1598 72.7568C52.0891 76.3678 53.0826 79.9197 55.0165 82.97C56.4758 85.2106 58.4438 87.0747 60.7602 88.4103L60.7603 88.4104C63.5917 89.9667 66.7785 90.7616 70.0091 90.7172C74.1512 90.7314 78.2085 89.5435 81.6889 87.2975C85.4316 84.8683 88.1163 81.1128 89.2038 76.7855C89.9776 73.7441 90.3681 70.6178 90.3662 67.4795C90.4328 63.0373 89.5593 58.6312 87.8032 54.5503C87.0429 52.8314 85.9985 51.2528 84.7138 49.8808ZM86.6853 76.1397C85.76 79.8419 83.4626 83.0543 80.2582 85.1266C77.2022 87.092 73.6426 88.1307 70.0091 88.1172C67.2328 88.1605 64.4925 87.4847 62.0547 86.1554V86.1555C60.0959 85.0247 58.4315 83.4479 57.1966 81.5531C55.536 78.9248 54.6884 75.8648 54.7598 72.7568C54.7707 71.0369 54.963 69.3231 55.3335 67.6436C56.564 62.1385 59.7853 57.2824 64.3787 54.0081C68.5821 50.9043 73.4591 49.3255 77.0514 49.3361C77.9393 49.3237 78.8244 49.4371 79.6804 49.6729C80.8932 50.0578 81.9843 50.7528 82.8458 51.6892C84.5185 53.5617 85.7425 55.7907 86.4249 58.207C87.3361 61.2128 87.7883 64.3388 87.7663 67.4795C87.7682 70.4 87.405 73.3092 86.6853 76.1397V76.1397Z"/><path id="Vector_6" d="M144.249 82.97C146.182 79.9197 147.176 76.3677 147.105 72.7568C147.094 70.8543 146.883 68.9582 146.474 67.1C145.144 61.5556 142.068 56.5846 137.701 52.9187C133.334 49.2528 127.905 47.0856 122.214 46.7361C121.078 46.7233 119.947 46.8722 118.853 47.1781C117.208 47.6894 115.726 48.621 114.552 49.8808C112.596 52.0421 111.162 54.6231 110.361 57.4254C109.37 60.684 108.877 64.0736 108.899 67.4795C108.897 70.6178 109.288 73.7441 110.062 76.7855C111.149 81.1128 113.834 84.8683 117.576 87.2975C121.057 89.5435 125.114 90.7314 129.256 90.7172C132.487 90.7615 135.674 89.9667 138.505 88.4104L138.505 88.4103C140.822 87.0746 142.789 85.2105 144.249 82.97ZM137.211 86.1554C134.773 87.4847 132.033 88.1605 129.256 88.1172C125.623 88.1307 122.063 87.092 119.007 85.1266C115.803 83.0543 113.505 79.8419 112.58 76.1397C111.861 73.3092 111.497 70.4 111.499 67.4795C111.434 63.4124 112.226 59.3772 113.824 55.6366C114.463 54.1848 115.34 52.8505 116.42 51.6892C117.281 50.7529 118.372 50.0579 119.585 49.673C120.441 49.4371 121.326 49.3237 122.214 49.3361C125.806 49.3254 130.683 50.9043 134.886 54.0081C139.48 57.2824 142.701 62.1385 143.931 67.6436C144.302 69.323 144.494 71.0369 144.505 72.7567C144.577 75.8648 143.729 78.9248 142.069 81.5531C140.834 83.4479 139.17 85.0247 137.211 86.1554V86.1554Z"/><path id="Vector_7" d="M76.1592 71.3908C70.7491 71.4699 66.8003 75.9718 67.6846 78.5783C68.4121 80.7209 71.8155 80.7033 76.1592 80.6242C80.503 80.5451 83.149 81.0265 83.4253 78.2228C83.6558 75.883 80.5464 71.3273 76.1592 71.3908ZM75.8037 79.4474C75.2336 79.4474 74.6762 79.2784 74.2021 78.9616C73.7281 78.6448 73.3586 78.1946 73.1404 77.6678C72.9222 77.1411 72.8651 76.5614 72.9763 76.0022C73.0876 75.443 73.3621 74.9293 73.7653 74.5262C74.1685 74.123 74.6821 73.8484 75.2413 73.7372C75.8005 73.626 76.3802 73.6831 76.9069 73.9013C77.4337 74.1194 77.884 74.4889 78.2007 74.963C78.5175 75.4371 78.6866 75.9945 78.6866 76.5646C78.6865 77.3292 78.3828 78.0624 77.8422 78.603C77.3015 79.1437 76.5683 79.4474 75.8037 79.4474Z"/><path id="Vector_8" d="M123.309 71.3908C118.922 71.3273 115.812 75.883 116.043 78.2228C116.32 81.0265 118.965 80.5451 123.309 80.6242C127.653 80.7033 131.056 80.7208 131.784 78.5783C132.668 75.9718 128.719 71.4699 123.309 71.3908ZM123.664 79.4474C123.094 79.4474 122.537 79.2784 122.063 78.9616C121.589 78.6448 121.219 78.1946 121.001 77.6678C120.783 77.1411 120.726 76.5614 120.837 76.0022C120.948 75.443 121.223 74.9293 121.626 74.5262C122.029 74.123 122.543 73.8484 123.102 73.7372C123.661 73.626 124.241 73.6831 124.768 73.9013C125.294 74.1194 125.745 74.4889 126.061 74.963C126.378 75.4371 126.547 75.9945 126.547 76.5646C126.547 77.3292 126.243 78.0623 125.703 78.603C125.162 79.1436 124.429 79.4473 123.664 79.4474Z"/><path id="Vector_9" d="M94.1239 92.1222C92.5647 91.9535 91.03 91.6075 89.5493 91.0908C89.3333 91.009 89.0994 90.9863 88.8716 91.0249C88.6439 91.0635 88.4306 91.1621 88.2536 91.3105C88.0766 91.459 87.9424 91.6519 87.8647 91.8694C87.7871 92.087 87.7688 92.3212 87.8117 92.5482C88.2687 94.683 89.0206 96.7439 90.0459 98.6714C90.9141 100.348 92.097 101.842 93.5301 103.071C95.1691 104.453 97.2247 105.245 99.3673 105.32L99.3705 105.32C99.5107 105.324 99.6519 105.327 99.7943 105.327C102.068 105.352 104.285 104.615 106.092 103.233C108.248 101.458 109.882 99.129 110.817 96.4966C111.322 95.2124 111.7 93.8818 111.945 92.5239C111.981 92.2907 111.954 92.0521 111.865 91.8334C111.776 91.6148 111.629 91.4245 111.44 91.283C111.251 91.1414 111.028 91.0539 110.793 91.0299C110.558 91.0059 110.321 91.0462 110.108 91.1466C109.616 91.3552 109.105 91.515 108.582 91.6238C106.096 92.1271 103.567 92.3963 101.031 92.428L101.024 92.3071C100.975 91.3945 100.89 89.6587 100.848 87.9447C104.11 87.0215 107.562 82.8064 107.382 79.9209C107.144 76.1299 93.6599 76.2744 92.2961 79.5254C91.3969 81.6711 94.9592 86.6644 98.2454 87.8689C98.2869 89.6632 98.3754 91.4703 98.4267 92.4275C96.9882 92.3977 95.5521 92.2958 94.1239 92.1222ZM96.1944 95.3414C96.0534 95.2017 95.927 95.0479 95.8173 94.8824C97.1004 94.9799 98.4003 95.0444 99.6969 95.0444C101.331 95.0442 102.929 94.969 104.417 94.8423C104.309 95.0636 104.167 95.2671 103.998 95.4457C103.647 95.7981 103.221 96.0661 102.752 96.2296C101.94 96.5082 101.084 96.6391 100.226 96.6159H100.15C99.4393 96.6765 98.7234 96.595 98.0442 96.3762C97.3651 96.1574 96.7362 95.8056 96.1943 95.3414H96.1944ZM94.8849 95.4165L94.8951 95.4336L94.8849 95.4165ZM108.856 94.2197C108.479 95.467 107.968 96.67 107.333 97.808C106.608 99.1489 105.608 100.322 104.4 101.252C103.068 102.235 101.45 102.753 99.7943 102.727C99.6865 102.727 99.5749 102.725 99.4596 102.721C97.8875 102.668 96.3797 102.084 95.1826 101.063C93.4892 99.5262 92.1946 97.6007 91.4101 95.4525C91.2332 95.0111 91.0842 94.5931 90.9558 94.2065C91.5902 94.3515 92.2548 94.4708 92.9362 94.5746C92.9405 94.6078 92.9447 94.6408 92.95 94.6738C93.0314 95.0963 93.1785 95.5036 93.3859 95.8807C93.8891 96.8044 94.6369 97.5718 95.5473 98.0987C96.9486 98.8744 98.5323 99.2602 100.133 99.2159H100.226C101.538 99.2508 102.842 99.0083 104.054 98.5044C105.298 97.9796 106.3 97.0072 106.862 95.7794C107.043 95.3745 107.172 94.9483 107.245 94.5109C107.818 94.4231 108.359 94.3266 108.856 94.2197Z"/><path id="Vector_10" d="M197.27 107.509C197.275 106.711 197.149 105.919 196.898 105.163C196.523 104.062 195.767 103.132 194.768 102.539C195.326 102.027 195.809 101.44 196.202 100.793C196.892 99.6553 197.257 98.3497 197.257 97.0188C197.249 96.0339 197.068 95.0581 196.722 94.1362C196.3 92.9284 195.508 91.8846 194.458 91.1538C193.344 90.4203 192.033 90.0433 190.699 90.073C188.298 90.1867 185.968 90.9218 183.936 92.2062C181.895 93.3662 179.735 94.3002 177.492 94.9917C177.781 94.5843 178.048 94.1618 178.292 93.7261C179.27 92.0202 179.795 90.0925 179.817 88.1264C179.817 86.9571 179.617 85.7963 179.227 84.6938C178.799 83.3713 177.944 82.2281 176.796 81.443C175.768 80.7788 174.565 80.4336 173.341 80.4507C171.851 80.4669 170.393 80.8804 169.116 81.6484C167.858 82.3536 166.865 83.4517 166.291 84.7745C166.248 84.8849 166.215 84.9837 166.174 85.0919C166.098 72.6378 161.344 60.6639 153.575 50.6385C155.018 49.5339 156.298 48.2308 157.376 46.7679C160.052 43.0926 161.489 38.6605 161.477 34.1141C161.488 31.0891 160.836 28.0985 159.565 25.3531C158.255 22.5331 156.257 20.0878 153.755 18.242C150.355 15.7768 146.253 14.4671 142.053 14.5052C138.748 14.4853 135.484 15.2324 132.517 16.6877C129.55 18.143 126.961 20.2668 124.954 22.892C123.865 24.374 122.993 26.0043 122.367 27.7333C115.128 25.0102 107.461 23.601 99.7275 23.5719C92.2196 23.5892 84.7681 24.8693 77.6849 27.3585C77.0719 25.7682 76.2506 24.2663 75.2427 22.8921C73.2354 20.2668 70.6464 18.1431 67.6794 16.6878C64.7124 15.2325 61.4482 14.4854 58.1435 14.5052C53.9436 14.4671 49.8421 15.7768 46.4415 18.242C43.9393 20.0878 41.9414 22.5331 40.6315 25.3531C39.3612 28.0985 38.7085 31.0891 38.7197 34.1141C38.708 38.6604 40.1442 43.0924 42.8203 46.7677C43.7008 47.9615 44.7159 49.0498 45.8455 50.0111C37.933 60.1013 33.0995 72.3478 33.0897 85.4232C32.0446 84.6913 30.8028 84.2922 29.527 84.2783C28.5616 84.2794 27.6116 84.5201 26.762 84.9789L26.7622 84.9787C25.3681 85.7122 24.2326 86.8556 23.5088 88.2547C22.8308 89.6151 22.4894 91.1185 22.5136 92.6383C22.5623 95.0656 23.1918 97.4458 24.3493 99.5799C25.5196 101.838 27.1934 103.797 29.2413 105.305C29.5213 105.503 29.8682 105.583 30.2065 105.526C30.5448 105.47 30.8471 105.282 31.0475 105.003C31.2479 104.725 31.3302 104.379 31.2765 104.04C31.2227 103.701 31.0373 103.398 30.7606 103.195L30.7605 103.195C29.04 101.922 27.6341 100.271 26.6507 98.3702C25.6905 96.6087 25.1636 94.6439 25.1137 92.6383C25.09 91.5348 25.3313 90.4418 25.8174 89.4509C26.2987 88.5171 27.0577 87.7555 27.9897 87.2709L27.9898 87.2707C28.4616 87.014 28.99 86.8791 29.527 86.8783C30.167 86.9095 30.7918 87.0846 31.3549 87.3904C31.9179 87.6962 32.4049 88.1249 32.7796 88.6446C34.013 90.3279 34.6858 92.3564 34.7027 94.4431C34.7451 95.3813 34.9962 96.2982 35.4377 97.1271C36.1928 98.4006 37.232 99.4824 38.4742 100.288C40.2886 101.393 41.9881 102.676 43.5474 104.119C44.2867 104.897 44.8713 105.808 45.2699 106.805C45.7572 108.093 45.993 109.462 45.9646 110.839C45.9585 111.831 45.8756 112.82 45.7165 113.799C45.5695 114.757 45.2252 115.855 44.8972 117.203C44.4925 118.798 44.2847 120.436 44.2783 122.081C44.3146 124.604 44.729 127.106 45.5077 129.505C47.8179 137.041 50.5154 147.651 50.5096 156.84C50.5154 162.382 49.5209 167.357 47.075 170.834C45.8442 172.613 44.1685 174.038 42.2149 174.968C39.7491 176.077 37.0682 176.626 34.3649 176.575H34.366L34.1358 176.576C30.9173 176.672 27.7298 175.923 24.8907 174.403C21.2892 172.363 18.9521 169.031 17.4808 164.94C16.0502 160.554 15.3694 155.958 15.4671 151.346C15.4964 146.763 15.9365 142.191 16.7821 137.686C17.1378 135.769 17.5205 134.108 17.8644 132.825C18.0362 132.183 18.1984 131.636 18.3401 131.205C18.4359 130.898 18.5484 130.597 18.6771 130.304C18.7511 130.149 18.7938 129.981 18.8027 129.81C18.8116 129.639 18.7865 129.468 18.729 129.306C18.6715 129.145 18.5826 128.996 18.4674 128.869C18.3523 128.742 18.2131 128.639 18.058 128.566C17.9029 128.493 17.7349 128.452 17.5637 128.444C17.3925 128.436 17.2214 128.462 17.0603 128.521C16.8992 128.579 16.7513 128.669 16.625 128.785C16.4988 128.901 16.3967 129.041 16.3247 129.196C16.1499 129.586 15.998 129.986 15.8698 130.394C15.0374 133.129 14.398 135.92 13.9564 138.745C13.2538 142.909 12.8895 147.123 12.8672 151.346C12.8742 157.891 13.8476 164.726 17.0203 170.086C18.5981 172.823 20.8716 175.093 23.6102 176.666C26.8397 178.407 30.4685 179.272 34.1359 179.176L34.3858 179.175H34.3869C37.4728 179.223 40.531 178.586 43.3414 177.311C46.864 175.594 49.6123 172.616 51.0408 168.967C52.5194 165.099 53.2224 160.979 53.1097 156.84C53.1039 147.163 50.3314 136.399 47.994 128.745C47.2909 126.592 46.9148 124.346 46.8783 122.081C46.8846 120.642 47.068 119.208 47.4245 117.813C47.4605 117.663 47.4995 117.518 47.5371 117.37C53.8451 122.491 61.1536 126.236 68.9939 128.367C79.001 131.126 89.3479 132.457 99.7275 132.32C110.799 132.461 121.817 130.765 132.333 127.302C139.866 124.826 146.826 120.863 152.798 115.648C152.653 116.559 152.529 117.505 152.452 118.528C152.066 123.684 151.969 127.245 151.59 131.043C151.082 135.816 150.226 140.545 149.027 145.192C147.952 149.482 147.381 153.883 147.326 158.305C147.331 163.455 148.262 168.627 151.141 172.632C152.641 174.72 154.658 176.383 156.994 177.457C159.799 178.687 162.837 179.295 165.899 179.238L166.203 184.409C166.212 184.58 166.255 184.748 166.329 184.903C166.403 185.057 166.507 185.196 166.635 185.31C166.762 185.424 166.912 185.512 167.073 185.568C167.235 185.625 167.407 185.649 167.578 185.639C167.749 185.629 167.916 185.585 168.07 185.51C168.225 185.435 168.362 185.33 168.476 185.202C168.589 185.073 168.676 184.923 168.732 184.761C168.787 184.599 168.81 184.427 168.799 184.256L168.498 179.142C171.35 178.954 174.116 178.09 176.568 176.622C180.245 174.25 183.039 170.734 184.522 166.618C186.305 161.762 187.162 156.615 187.051 151.444C186.931 143.662 185.702 135.937 183.401 128.501C184.76 128.322 186.078 127.905 187.294 127.271C188.242 126.772 189.075 126.079 189.737 125.237C190.439 124.322 190.888 123.239 191.039 122.095C191.127 121.479 191.172 120.857 191.175 120.235C191.195 119.203 191.016 118.178 190.646 117.215C190.489 116.831 190.289 116.465 190.05 116.124C191.882 115.735 193.559 114.814 194.871 113.476C196.403 111.866 197.261 109.731 197.27 107.509ZM127.047 24.4337C128.814 22.1375 131.088 20.2812 133.691 19.0098C136.294 17.7385 139.156 17.0866 142.053 17.1052C145.698 17.0671 149.26 18.1994 152.213 20.3357C154.366 21.9239 156.085 24.0286 157.211 26.4558C158.319 28.8561 158.888 31.4702 158.877 34.1141C158.888 38.1057 157.63 41.9973 155.283 45.2261C154.338 46.5084 153.215 47.6489 151.947 48.6128C150.096 46.3992 148.109 44.3025 145.998 42.3347C139.792 36.5625 132.611 31.9376 124.788 28.6752C125.332 27.1596 126.093 25.7309 127.047 24.4337ZM44.9139 45.2261C42.5671 41.9973 41.3083 38.1056 41.3196 34.1141C41.3086 31.4702 41.8774 28.856 42.9861 26.4558C44.1117 24.0286 45.8302 21.9239 47.9832 20.3357C50.937 18.1994 54.4983 17.067 58.1435 17.1052C61.0404 17.0866 63.9024 17.7385 66.5056 19.0098C69.1087 20.2812 71.3825 22.1375 73.1489 24.4337C74.0153 25.6145 74.7223 26.9043 75.2517 28.2699C67.1768 31.43 59.7524 36.0491 53.3494 41.8965C51.2699 43.8057 49.3118 45.8429 47.4864 47.9963C46.5268 47.1732 45.6638 46.2439 44.9139 45.2261ZM131.483 124.845C121.24 128.213 110.509 129.86 99.7274 129.72C89.5951 129.857 79.4943 128.561 69.7244 125.871C61.075 123.339 53.7836 119.552 48.2204 114.537C48.2412 114.425 48.2671 114.315 48.2852 114.201C48.4651 113.089 48.5585 111.965 48.5645 110.839C48.6439 108.365 47.9713 105.924 46.6353 103.839C44.8696 101.205 42.344 99.8122 40.452 98.4994C39.6073 97.966 38.842 97.3162 38.1786 96.5692C37.6411 95.9343 37.3314 95.1378 37.299 94.3065C37.2322 92.2657 36.7077 90.2659 35.7645 88.4549C35.7644 88.4322 35.7751 88.4125 35.7738 88.3895V88.3894C35.7168 87.4076 35.6885 86.43 35.6888 85.4568C35.6868 69.4651 43.2742 54.6512 55.1053 43.8138C67.2795 32.6072 83.1812 26.3203 99.7275 26.1719C116.432 26.1679 132.43 33.2619 144.227 44.2384C156.029 55.2148 163.588 70.0281 163.582 85.3767C163.582 86.9062 163.507 88.4409 163.355 89.9807C163.309 90.435 163.256 90.8859 163.196 91.3334C163.194 91.3476 163.2 91.3605 163.198 91.3746C162.473 92.2022 161.649 92.9384 160.745 93.567C159.005 94.7035 157.527 96.197 156.409 97.9483C155.349 99.8532 154.832 102.013 154.916 104.191C154.927 105.483 155.026 106.773 155.213 108.052C155.237 108.189 155.283 108.321 155.35 108.443C154.902 109.097 154.519 109.794 154.204 110.522C154.154 110.636 154.116 110.769 154.068 110.886C153.923 110.954 153.792 111.048 153.681 111.164V111.164C148.221 117.027 140.655 121.671 131.483 124.845L131.483 124.845ZM192.989 111.683C192.222 112.423 191.311 112.999 190.313 113.374C189.314 113.75 188.25 113.917 187.185 113.865C186.403 113.546 185.592 113.304 184.763 113.143C184.17 113.023 183.567 112.963 182.962 112.965C182.044 112.985 181.128 113.076 180.224 113.238C179.439 113.38 178.644 113.461 177.846 113.481C177.08 113.486 176.318 113.359 175.595 113.105C175.27 112.992 174.913 113.012 174.602 113.162C174.292 113.312 174.053 113.579 173.94 113.905C173.826 114.23 173.847 114.588 173.997 114.898C174.147 115.209 174.414 115.447 174.739 115.56V115.56C175.738 115.91 176.788 116.086 177.846 116.081C178.776 116.062 179.703 115.971 180.619 115.808C181.393 115.667 182.176 115.586 182.962 115.565C183.391 115.563 183.819 115.605 184.239 115.69L184.24 115.69C185.39 115.849 186.48 116.3 187.405 117.002C187.772 117.327 188.057 117.734 188.236 118.19C188.48 118.843 188.595 119.538 188.575 120.235C188.572 120.738 188.535 121.24 188.463 121.739C188.375 122.435 188.104 123.095 187.676 123.652C186.97 124.5 186.035 125.127 184.982 125.459C183.795 125.862 182.549 126.064 181.296 126.055C180.27 126.073 179.248 125.922 178.271 125.608C176.786 125.079 174.951 124.385 173.032 123.819C171.144 123.21 169.18 122.868 167.197 122.802C166.57 122.798 165.944 122.856 165.329 122.975L165.33 122.975C164.255 123.194 163.17 123.358 162.078 123.466C161.709 123.5 161.43 123.517 161.248 123.525C161.157 123.529 161.091 123.531 161.049 123.532L161.006 123.533L160.999 123.533V123.533C160.656 123.537 160.328 123.675 160.087 123.919C159.846 124.162 159.71 124.491 159.711 124.834C159.711 125.177 159.847 125.506 160.088 125.749C160.33 125.992 160.658 126.13 161.001 126.133C162.629 126.076 164.248 125.872 165.839 125.525L165.84 125.524C166.287 125.439 166.742 125.398 167.197 125.402C168.931 125.47 170.646 125.777 172.296 126.312C174.096 126.843 175.881 127.515 177.397 128.057C178.49 128.419 179.631 128.614 180.782 128.637C180.781 128.717 180.789 128.796 180.804 128.875C183.099 136.183 184.328 143.785 184.451 151.444C184.455 158.714 183.041 164.902 180.301 169.256C179.025 171.405 177.232 173.201 175.085 174.48C172.938 175.759 170.504 176.48 168.007 176.577C167.332 176.62 166.681 176.642 166.055 176.641C163.32 176.717 160.601 176.19 158.091 175.1C155.195 173.749 152.916 171.352 151.714 168.391C150.443 165.184 149.835 161.754 149.926 158.305C149.982 154.09 150.528 149.896 151.554 145.807C152.781 141.042 153.658 136.194 154.177 131.3C154.567 127.379 154.662 123.815 155.044 118.722C155.341 114.704 156.225 111.797 157.419 110.017C157.915 109.233 158.589 108.577 159.388 108.104C160.123 107.695 160.953 107.486 161.794 107.499C162.785 107.52 163.765 107.72 164.685 108.091C165.007 108.213 165.365 108.202 165.679 108.06C165.993 107.918 166.239 107.658 166.361 107.335C166.483 107.013 166.472 106.655 166.33 106.341C166.188 106.026 165.928 105.781 165.605 105.659V105.659C164.391 105.177 163.1 104.919 161.794 104.899C160.505 104.886 159.235 105.211 158.11 105.84C157.94 105.936 157.776 106.043 157.614 106.153C157.551 105.447 157.516 104.79 157.516 104.191C157.432 102.476 157.825 100.772 158.649 99.2672C159.585 97.8312 160.815 96.6096 162.256 95.6827C164.157 94.4142 165.712 92.6928 166.781 90.6736C167.509 89.0583 168.153 87.4067 168.711 85.7252C169.078 84.9406 169.687 84.2942 170.449 83.8807C171.323 83.3543 172.321 83.068 173.341 83.0506C174.055 83.0337 174.758 83.2287 175.361 83.6109C176.037 84.0829 176.534 84.7676 176.774 85.5556C177.067 86.3812 177.217 87.2506 177.217 88.1264C177.195 89.6498 176.783 91.1421 176.021 92.4613C175.245 93.8282 174.219 95.0372 172.997 96.0253C172.961 96.0635 172.927 96.104 172.897 96.1466C171.749 96.3644 170.708 96.5189 169.84 96.6268C169.67 96.648 169.507 96.7024 169.358 96.7868C169.21 96.8712 169.079 96.984 168.975 97.1188C168.87 97.2536 168.793 97.4077 168.747 97.5723C168.702 97.7369 168.69 97.9088 168.711 98.0782C168.732 98.2477 168.786 98.4112 168.871 98.5596C168.955 98.7081 169.068 98.8384 169.203 98.9432C169.338 99.048 169.492 99.1252 169.656 99.1705C169.821 99.2157 169.993 99.2281 170.162 99.2069V99.2068C175.45 98.6335 180.572 97.0201 185.233 94.4594C186.872 93.4061 188.754 92.791 190.699 92.673C191.51 92.6436 192.31 92.8627 192.992 93.301C193.595 93.7256 194.046 94.3311 194.28 95.0295C194.522 95.6652 194.65 96.3387 194.657 97.0188C194.653 98.1436 194.251 99.2308 193.524 100.089C193.224 100.452 192.88 100.777 192.499 101.054C192.24 101.248 191.956 101.406 191.655 101.523C191.619 101.542 191.584 101.562 191.55 101.585C191.3 101.567 191.049 101.553 190.797 101.553C189.148 101.572 187.515 101.875 185.968 102.447C184.344 103.046 183.063 103.602 181.797 104C180.426 104.442 178.996 104.678 177.555 104.7C177.21 104.708 176.883 104.852 176.645 105.102C176.406 105.351 176.277 105.685 176.285 106.029C176.293 106.374 176.437 106.702 176.686 106.94C176.936 107.178 177.269 107.307 177.614 107.3V107.299C179.3 107.272 180.974 106.995 182.58 106.479C184.022 106.023 185.324 105.454 186.867 104.887C188.126 104.422 189.455 104.173 190.797 104.153C191.626 104.125 192.45 104.285 193.208 104.622C193.497 104.755 193.755 104.947 193.967 105.184C194.178 105.422 194.339 105.7 194.437 106.003C194.596 106.489 194.675 106.997 194.67 107.509C194.66 109.063 194.059 110.555 192.989 111.683L192.989 111.683Z"/><path id="Vector_11" d="M184.762 113.143L184.763 113.144L184.762 113.143Z"/></g></g></svg>