<svg width="200" height="200" viewBox="0 0 200 200" xmlns="http://www.w3.org/2000/svg"><g id="type=cashback, mode=light"><g id="Layer 8"><path id="Vector" d="M23.4223 97.6178L20.2318 99.9062C18.8734 99.2692 17.6083 98.4501 16.4711 97.4714L19.8577 95.1855L17.0701 92.4414L13.3734 94.4936C12.4406 93.4492 11.5738 92.3476 10.7781 91.1953C10.0525 90.1333 9.40724 89.0187 8.84766 87.8607L12.8405 85.575C14.1856 87.4353 15.6549 89.2028 17.2381 90.8652L17.8108 77.4014C19.011 78.5021 20.0516 79.765 20.9026 81.1534C22.0835 83.2149 23.1228 85.3543 24.0134 87.5567C22.7375 90.7592 22.5302 94.288 23.4223 97.6178Z"/><path id="Vector_2" d="M80.0458 48.4255C72.7797 46.2927 57.141 52.9665 54.0614 67.3717C51.6132 78.8229 57.1415 84.8347 61.4066 87.2829C69.8651 92.1383 84.7846 88.7839 87.9437 76.4626C91.1029 64.1423 87.3119 50.5573 80.0458 48.4255ZM83.4252 78.2223C83.1488 81.026 80.5028 80.5446 76.1591 80.6237C71.8153 80.7028 68.412 80.7214 67.6845 78.5778C66.8002 75.9714 70.7489 71.4694 76.1591 71.3903C80.5463 71.3268 83.6557 75.8825 83.4252 78.2223Z"/><path id="Vector_3" d="M137.858 87.2829C142.123 84.8346 147.651 78.8229 145.203 67.3717C142.123 52.9665 126.485 46.2927 119.219 48.4255C111.953 50.5573 108.162 64.1423 111.321 76.4626C114.48 88.7839 129.399 92.1383 137.858 87.2829ZM123.309 71.3903C128.719 71.4694 132.668 75.9714 131.783 78.5778C131.056 80.7214 127.653 80.7028 123.309 80.6237C118.965 80.5446 116.319 81.026 116.043 78.2223C115.812 75.8825 118.922 71.3268 123.309 71.3903Z"/><path id="Vector_4" d="M75.8047 79.4473C77.3968 79.4473 78.6875 78.1566 78.6875 76.5645C78.6875 74.9723 77.3968 73.6816 75.8047 73.6816C74.2125 73.6816 72.9219 74.9723 72.9219 76.5645C72.9219 78.1566 74.2125 79.4473 75.8047 79.4473Z"/><path id="Vector_5" d="M123.664 79.4473C125.256 79.4473 126.547 78.1566 126.547 76.5645C126.547 74.9723 125.256 73.6816 123.664 73.6816C122.072 73.6816 120.781 74.9723 120.781 76.5645C120.781 78.1566 122.072 79.4473 123.664 79.4473Z"/><path id="Vector_6" d="M151.934 117.132C152.04 116.076 152.217 115.028 152.463 113.995C152.635 113.235 152.854 112.486 153.118 111.752C147.925 116.921 141.709 120.948 134.87 123.576C125.008 127.563 113.031 129.721 99.7259 129.72C81.9564 129.724 66.5714 126.419 55.4299 119.812C52.9105 118.327 50.5415 116.601 48.3565 114.657C48.2782 115.101 48.1871 115.526 48.0928 115.941C47.9748 116.461 47.8511 116.964 47.7276 117.444C47.2435 118.993 46.9583 120.598 46.8789 122.218C46.8783 122.762 46.9292 123.305 47.0311 123.839C49.3301 135.896 51.6545 142.036 54.0031 150.752C54.012 150.786 54.0179 150.816 54.0268 150.849C54.1706 151.354 54.2947 151.862 54.3991 152.373C54.4751 152.689 54.5635 153.016 54.6322 153.327C54.7631 153.918 54.864 154.486 54.9683 155.056C60.1078 153.448 65.3506 152.19 70.6604 151.292C80.8445 149.567 91.1498 148.656 101.479 148.568C102.291 148.559 103.103 148.555 103.915 148.555C119.36 148.552 134.739 150.166 146.308 153.712C146.401 153.741 146.488 153.772 146.581 153.8C146.408 155.212 146.32 156.632 146.316 158.054C146.316 158.112 146.321 158.167 146.321 158.225C146.373 154.655 146.855 151.104 147.757 147.65C147.889 147.133 148.029 146.614 148.179 146.091C151.471 134.637 151.055 126.238 151.934 117.132Z"/><path id="Vector_7" d="M89.2788 91.1159C89.0624 91.035 88.8284 91.0132 88.6008 91.0528C88.3733 91.0924 88.1603 91.1918 87.984 91.341C87.8076 91.4902 87.6742 91.6836 87.5974 91.9015C87.5206 92.1193 87.5032 92.3537 87.5471 92.5805C88.0209 94.7496 88.7942 96.8422 89.8449 98.7982C90.7343 100.499 91.943 102.012 93.4048 103.255C95.0753 104.652 97.1664 105.448 99.3429 105.515H99.3443C99.4727 105.519 99.6008 105.521 99.7285 105.521C102.045 105.547 104.303 104.795 106.141 103.385C108.335 101.573 109.993 99.1958 110.935 96.5105C111.446 95.1994 111.825 93.8413 112.07 92.4558C112.105 92.2225 112.076 91.9839 111.987 91.7656C111.897 91.5473 111.749 91.3576 111.56 91.2168C111.37 91.0761 111.146 90.9895 110.911 90.9665C110.676 90.9435 110.44 90.9849 110.226 91.0862C109.715 91.3055 109.183 91.4737 108.638 91.5882C106.11 92.1063 103.539 92.3882 100.959 92.4304L100.949 92.2549C100.896 91.3403 100.808 89.6518 100.758 87.9655C104.045 87.0952 107.561 82.8325 107.38 79.9206C107.349 79.5393 107.19 79.1796 106.929 78.9001L106.912 78.8818C106.849 78.8096 106.783 78.7411 106.713 78.6767C104.031 76.1638 93.4307 76.6591 92.2414 79.528C91.4942 81.3305 93.8972 85.1184 96.6336 86.9971C97.105 87.3338 97.6147 87.6133 98.152 87.8298C98.2025 89.6552 98.2995 91.4826 98.355 92.4404C96.8463 92.4169 95.3399 92.3152 93.8418 92.1357C92.2873 91.9684 90.7566 91.6263 89.2788 91.1159ZM107.46 94.361C107.46 94.361 107.462 94.4006 107.461 94.4565C107.458 95.0082 107.097 97.9916 99.6096 97.9606C93.5675 97.9357 92.4086 95.0197 92.3358 94.5425C92.3286 94.4955 92.3282 94.4638 92.3386 94.4694C97.9426 95.1677 104.228 95.1218 107.46 94.361H107.46Z"/><path id="Vector_8" d="M176.573 105.307C176.61 105.247 176.652 105.19 176.698 105.137C176.788 104.952 176.947 104.809 177.14 104.739C177.189 104.704 177.24 104.673 177.293 104.645C177.398 104.615 177.506 104.598 177.614 104.594C177.676 104.579 177.74 104.569 177.803 104.564H177.803L177.845 104.565C177.973 104.57 178.101 104.573 178.229 104.573C180.365 104.468 182.461 103.962 184.408 103.081C186.483 102.122 188.717 101.557 190.998 101.416C191.212 101.416 191.429 101.423 191.648 101.438L191.648 101.438L191.65 101.438H191.648C192.273 101.48 192.892 101.585 193.495 101.752C193.524 101.738 193.543 101.714 193.573 101.702C193.703 101.646 193.828 101.579 193.945 101.501C194.526 101.108 194.987 100.563 195.278 99.9261C195.751 98.9338 195.993 97.8477 195.988 96.7487C196.01 95.7763 195.787 94.814 195.341 93.9502C194.985 93.3821 194.493 92.9122 193.909 92.5835C193.088 92.1016 192.153 91.8506 191.201 91.8572C189.459 91.9282 187.785 92.5521 186.422 93.6385C184.147 95.3358 181.56 96.5673 178.808 97.2626C176.361 97.9129 173.825 98.3265 170.184 99.4652V99.4653C169.855 99.5682 169.498 99.5361 169.193 99.3761C168.888 99.2161 168.658 98.9414 168.555 98.6123C168.453 98.2832 168.485 97.9267 168.645 97.6213C168.805 97.3158 169.079 97.0865 169.408 96.9836C171.586 96.3036 173.384 95.8709 174.955 95.5094L175.176 95.4584C176.538 93.4982 177.244 91.1568 177.193 88.7704C177.2 87.6044 177.036 86.4437 176.706 85.3257C176.457 84.4302 176.016 83.5997 175.414 82.892C175.115 82.5509 174.741 82.2838 174.322 82.1114C173.753 81.8865 173.147 81.7701 172.535 81.7682C171.98 81.7692 171.431 81.8716 170.913 82.0703C169.683 82.6497 168.648 83.5751 167.935 84.7333C167.212 85.9466 166.588 87.2159 166.067 88.5289C166.135 87.4762 166.181 86.4246 166.181 85.3767C166.177 72.8203 161.401 60.7406 153.573 50.6386C155.016 49.5339 156.296 48.2309 157.375 46.768C160.051 43.0926 161.487 38.6606 161.475 34.1141C161.487 31.0891 160.834 28.0985 159.564 25.3531C158.254 22.5331 156.256 20.0878 153.754 18.2421C150.353 15.7768 146.251 14.4671 142.051 14.5052C138.747 14.4854 135.482 15.2324 132.515 16.6877C129.548 18.143 126.959 20.2668 124.952 22.8921C123.863 24.374 122.992 26.0042 122.365 27.7332C115.126 25.0101 107.46 23.6009 99.7258 23.5718C92.2177 23.5873 84.7656 24.8662 77.6818 27.3548C77.069 25.7659 76.2482 24.2653 75.241 22.892C73.2337 20.2668 70.6447 18.143 67.6777 16.6878C64.7107 15.2325 61.4465 14.4854 58.1419 14.5052C53.9419 14.4671 49.8404 15.7768 46.4399 18.242C43.9376 20.0878 41.9397 22.5331 40.6299 25.3531C39.3595 28.0985 38.7069 31.0891 38.7181 34.1141C38.7063 38.6604 40.1426 43.0924 42.8187 46.7676C43.7115 47.9775 44.7427 49.0788 45.8912 50.0493C37.8638 60.0736 33.4261 72.4982 33.2866 85.3398C33.2866 86.1169 33.3043 86.8968 33.3398 87.6795C32.4486 87.0649 31.406 86.7063 30.3253 86.6425C29.509 86.6214 28.6992 86.7929 27.9616 87.1432L27.9605 87.1438C27.1613 87.588 26.5346 88.2879 26.181 89.1312C25.6373 90.3245 25.3653 91.6236 25.3848 92.9348C25.3903 93.5836 25.4518 94.2307 25.5686 94.869C25.5711 94.8846 25.5719 94.8995 25.5745 94.9151C25.581 94.9542 25.5852 94.9923 25.5922 95.0316C25.6 95.0725 25.6085 95.1135 25.6168 95.1546C25.6399 95.2754 25.6662 95.3973 25.6941 95.5196C25.6984 95.5381 25.7041 95.5569 25.7086 95.5755C25.9089 96.4038 26.1969 97.2085 26.5676 97.9759C27.5533 99.9683 29.0007 101.696 30.7893 103.016V103.017C31.064 103.225 31.2448 103.534 31.2918 103.875C31.3389 104.217 31.2483 104.563 31.0401 104.838C30.8556 105.073 30.5942 105.237 30.3015 105.299C30.2603 105.309 30.2234 105.334 30.1815 105.34C30.0124 105.364 29.8403 105.354 29.6751 105.31C29.5099 105.267 29.3549 105.192 29.219 105.088C28.6994 104.695 28.2013 104.273 27.7268 103.826C27.7001 103.801 27.6707 103.777 27.6442 103.752C27.4935 103.608 27.3532 103.461 27.2102 103.315C27.1196 103.222 27.0242 103.132 26.9367 103.038C26.8481 102.943 26.767 102.846 26.6815 102.75C26.5467 102.599 26.41 102.449 26.2829 102.296C26.246 102.252 26.2129 102.206 26.1767 102.162C25.7991 101.697 25.448 101.211 25.125 100.706C25.1077 100.679 25.0948 100.652 25.0777 100.625C24.7839 100.163 24.5149 99.6849 24.2719 99.1938L24.2648 99.1781C24.0395 98.7148 23.8384 98.2401 23.6624 97.756C23.6336 97.6769 23.6071 97.5981 23.5799 97.519C23.4189 97.0554 23.2761 96.5915 23.1661 96.1301C23.1215 95.9428 23.0841 95.7566 23.0476 95.5704C23.0436 95.5491 23.0386 95.5276 23.0347 95.5063C23.0107 95.3808 22.986 95.2555 22.9657 95.1306C21.6307 94.2719 20.4178 93.2368 19.3599 92.0534C18.6769 91.3198 17.9821 90.4914 17.2933 89.5894C16.5654 88.6364 15.8443 87.6009 15.1509 86.4934C13.8246 84.4013 12.7106 82.182 11.8256 79.8685C11.1671 78.26 10.7834 76.5523 10.6906 74.8167C10.6775 74.4061 10.7352 73.9962 10.8612 73.6052C10.9046 73.4459 10.9987 73.3051 11.1291 73.2039L11.1303 73.2032C11.2343 73.1422 11.3544 73.1142 11.4747 73.1231C12.0556 73.1769 12.6152 73.3687 13.107 73.6825C14.546 74.5635 15.8456 75.654 16.9631 76.9181C17.2377 77.2131 17.5151 77.5344 17.7924 77.858C19.0314 79.3123 20.161 80.8564 21.1719 82.4776C22.2377 84.1716 23.1708 85.9455 23.9629 87.7834C24.4026 86.9026 25.0195 86.1222 25.7749 85.4911C25.0621 83.9808 24.2609 82.5139 23.3755 81.0979C21.699 78.3541 19.6698 75.8421 17.3397 73.6263C16.4389 72.7774 15.4439 72.0345 14.374 71.4121C13.4979 70.8762 12.5006 70.5704 11.4746 70.5232C10.8473 70.5143 10.2313 70.6905 9.7035 71.0298L9.70307 71.0301C9.53992 71.1379 9.38787 71.2616 9.24915 71.3994L5.20466 73.9454L5.19544 73.9542L5.18415 73.9587V73.9586C4.58907 74.3632 4.14041 74.9491 3.90485 75.629C3.66961 76.3095 3.55678 77.0263 3.5716 77.7462C3.66072 79.7921 4.09986 81.8076 4.86994 83.7051C5.52952 85.444 6.31709 87.1317 7.2262 88.7542C7.60297 89.4341 7.99952 90.1174 8.42871 90.803C8.50397 90.9231 8.58142 91.0376 8.65729 91.1563C8.05944 91.9939 7.54055 92.8851 7.10729 93.8186L7.10711 93.8192C6.27667 95.5937 5.83097 97.5237 5.79928 99.4826C5.81225 101.712 6.45939 103.891 7.66506 105.765L7.66659 105.764C8.78445 104.469 10.1211 103.381 11.6156 102.55C12.0385 102.3 12.4774 102.079 12.9294 101.888L12.9421 101.882H12.9419L12.9485 101.879C12.9692 101.87 12.9893 101.865 13.0099 101.857C14.2487 101.322 15.5818 101.04 16.9309 101.027C18.3717 101.022 19.7904 101.38 21.0559 102.069C22.1236 102.643 23.0453 103.455 23.7502 104.441C24.0077 104.81 24.2217 105.207 24.388 105.624C24.483 105.857 24.5585 106.097 24.6137 106.343C24.7298 106.899 24.7879 107.465 24.787 108.034C24.7843 108.801 24.6848 109.566 24.491 110.309L24.4798 110.355C24.5713 110.401 24.6678 110.437 24.7566 110.488C25.7084 111.035 26.4697 111.86 26.938 112.853C27.4571 113.937 27.7254 115.125 27.7232 116.328C27.7277 117.864 27.3081 119.371 26.5107 120.684C25.7132 121.997 24.569 123.064 23.2039 123.768V123.768C22.8953 123.922 22.5382 123.947 22.2113 123.837C21.8843 123.728 21.6142 123.493 21.4603 123.184C21.3065 122.876 21.2815 122.519 21.3909 122.192C21.5003 121.865 21.7351 121.595 22.0437 121.441C22.9753 120.951 23.7549 120.216 24.2979 119.315C24.8408 118.413 25.1262 117.38 25.1232 116.328C25.1255 115.514 24.9445 114.711 24.5937 113.977C24.3538 113.459 23.9587 113.028 23.4631 112.744C22.8873 112.432 22.2398 112.278 21.5856 112.296C20.8046 112.308 20.0315 112.453 19.2996 112.726C17.6297 113.36 16.1029 114.32 14.8086 115.551C13.4485 116.722 12.2874 118.105 11.3705 119.648C10.8298 120.553 10.531 121.581 10.5028 122.635C10.5077 123.264 10.6366 123.886 10.882 124.465C11.5367 125.663 12.5171 126.65 13.7098 127.314L13.7101 127.315C14.3496 127.669 15.0315 127.941 15.7395 128.124C15.9723 128.186 16.1816 128.234 16.3706 128.275C16.3861 128.278 16.4006 128.273 16.4161 128.276C16.8252 128.367 17.2368 128.42 17.6479 128.475C18.358 128.576 19.074 128.629 19.7911 128.635C22.6149 128.577 25.4051 128.011 28.0277 126.963C29.3542 126.462 30.6375 125.854 31.8646 125.144L31.873 125.139C32.1145 124.992 32.3994 124.933 32.6793 124.973C32.8451 124.976 33.0069 125.024 33.1473 125.112C33.2218 125.147 33.2927 125.189 33.3589 125.238C33.4239 125.295 33.4831 125.359 33.5354 125.427C33.5809 125.469 33.6232 125.514 33.6619 125.562C33.6755 125.585 33.6755 125.61 33.6876 125.632C33.7559 125.79 33.8062 125.954 33.8375 126.123C33.8422 126.205 33.8389 126.287 33.8275 126.369C33.8245 126.534 33.7764 126.696 33.6883 126.837C33.6532 126.911 33.6108 126.982 33.5618 127.048C33.5051 127.114 33.4418 127.173 33.3731 127.225C33.3313 127.27 33.2861 127.313 33.2379 127.351C31.9444 128.109 30.5916 128.76 29.1928 129.299C26.2048 130.518 23.0174 131.174 19.7911 131.235C19.7188 131.235 19.6453 131.23 19.5729 131.229C18.7014 131.221 17.8316 131.152 16.97 131.021C16.863 131.61 16.7202 132.305 16.5379 133.112C14.9802 139.439 14.1173 145.917 13.9646 152.431C13.8344 157.215 14.693 161.974 16.4866 166.411C17.4234 168.573 18.7487 170.544 20.3968 172.227C22.1806 174.011 24.322 175.397 26.6801 176.294C28.8126 177.14 31.0538 177.681 33.3374 177.901C33.224 179.924 33.1366 181.728 33.0711 183.237C33.0576 183.581 33.1808 183.916 33.4137 184.169C33.6466 184.422 33.9702 184.572 34.3137 184.587C34.6572 184.602 34.9927 184.48 35.2466 184.248C35.5005 184.017 35.6523 183.694 35.6686 183.35C35.7344 181.833 35.8232 180.009 35.938 177.969C38.5385 177.876 41.0905 177.238 43.4296 176.098C45.7687 174.958 47.843 173.341 49.5187 171.35C49.6463 171.201 49.7568 171.039 49.8802 170.887C52.0133 168.037 53.1059 164.543 52.9761 160.985C52.9189 158.263 52.5434 155.556 51.8574 152.921C51.7388 152.43 51.6328 151.951 51.4952 151.44L51.4925 151.429C49.1878 142.863 46.8081 136.552 44.4771 124.326C44.3447 123.632 44.2783 122.926 44.2789 122.219C44.3545 120.379 44.6674 118.556 45.2097 116.797C45.7309 115.025 46.0162 113.193 46.0583 111.347C46.0583 110.968 46.0303 110.566 45.999 110.161C45.8541 109.064 45.6261 107.98 45.3169 106.917C45.0323 106.074 44.6783 105.257 44.2585 104.473C42.9655 102.304 41.3288 100.36 39.4123 98.7159C38.7933 98.1583 38.2369 97.535 37.7528 96.857C37.406 96.3663 37.2169 95.7818 37.2104 95.181C37.2209 93.6797 36.8757 92.1973 36.2031 90.8551C36.1708 90.5655 36.1259 90.2839 36.0991 89.9908C35.9564 88.4301 35.8855 86.8798 35.8866 85.3398C35.8848 69.3519 43.4253 54.5683 55.2066 43.7595C67.3492 32.5747 83.2176 26.3058 99.7258 26.1718C116.431 26.1679 132.428 33.2619 144.226 44.2383C156.028 55.2148 163.586 70.028 163.581 85.3767C163.581 86.9061 163.505 88.4407 163.353 89.9805C163.217 91.3174 163.007 92.6459 162.726 93.96C162.163 94.5207 161.538 95.015 160.863 95.4333C159.594 96.23 158.504 97.2811 157.662 98.5201C157.596 98.6464 157.521 98.7657 157.462 98.8974C156.933 100.172 156.675 101.544 156.706 102.924C156.718 104.021 156.832 105.113 157.048 106.188C157.276 106.016 157.513 105.856 157.758 105.708C157.78 105.696 157.799 105.678 157.822 105.665C158.893 105.064 160.101 104.748 161.329 104.747C162.711 104.766 164.067 105.126 165.276 105.794V105.794C165.426 105.875 165.56 105.984 165.668 106.115C165.777 106.247 165.859 106.399 165.908 106.562C165.958 106.726 165.976 106.897 165.959 107.067C165.943 107.237 165.893 107.402 165.813 107.553C165.733 107.703 165.624 107.837 165.492 107.945C165.36 108.054 165.208 108.135 165.045 108.185C164.882 108.235 164.71 108.253 164.541 108.236C164.371 108.22 164.206 108.17 164.055 108.09C163.222 107.621 162.285 107.366 161.329 107.347C160.542 107.347 159.769 107.551 159.084 107.938C158.287 108.4 157.598 109.025 157.06 109.773C155.548 112.036 154.672 114.665 154.522 117.383C153.656 126.22 154.082 134.958 150.678 146.809C150.425 147.688 150.211 148.55 150.012 149.405C149.939 149.719 149.872 150.033 149.806 150.346C149.704 150.831 149.616 151.307 149.531 151.783C149.404 152.511 149.295 153.233 149.206 153.951C149.189 154.094 149.17 154.238 149.154 154.38C149.081 155.038 149.028 155.689 148.989 156.334C148.965 156.781 148.938 157.228 148.933 157.663C148.928 157.851 148.923 158.038 148.921 158.224C148.921 158.311 148.916 158.4 148.916 158.487C148.915 163.567 150.069 168.076 152.447 171.487C154.832 174.894 158.413 177.29 163.643 178.188C163.825 178.22 163.998 178.292 164.15 178.398C164.714 178.47 165.271 178.519 165.823 178.546C165.942 180.803 166.024 182.736 166.081 184.243C166.094 184.587 166.243 184.913 166.495 185.147C166.748 185.382 167.084 185.506 167.428 185.493C167.773 185.48 168.098 185.331 168.333 185.078C168.567 184.826 168.692 184.49 168.679 184.146C168.623 182.651 168.54 180.729 168.423 178.504C170.473 178.344 172.474 177.798 174.321 176.894C177.931 175.001 180.774 171.916 182.365 168.163C184.237 164.098 185.247 158.941 185.248 152.723C185.068 144.521 183.762 136.383 181.366 128.537C180.494 128.522 179.624 128.452 178.761 128.329C178.709 128.322 178.661 128.308 178.608 128.299C176.459 127.894 174.352 127.286 172.317 126.483C170.575 125.766 168.725 125.35 166.844 125.25C166.035 125.248 165.229 125.369 164.456 125.609C164.351 125.641 164.245 125.665 164.139 125.694C163.24 125.944 162.311 126.073 161.378 126.076L161.122 126.073C161.105 126.073 161.092 126.064 161.075 126.063C160.736 126.044 160.417 125.893 160.187 125.641C159.958 125.39 159.837 125.058 159.85 124.718C159.864 124.378 160.01 124.057 160.258 123.824C160.506 123.591 160.836 123.465 161.176 123.473L161.378 123.476C162.161 123.475 162.94 123.357 163.688 123.125C164.71 122.808 165.774 122.648 166.844 122.65C169.019 122.745 171.162 123.212 173.18 124.03C175.103 124.799 177.097 125.377 179.133 125.756C179.994 125.883 180.863 125.948 181.733 125.951C183.054 125.976 184.37 125.771 185.621 125.345C186.589 125.028 187.443 124.433 188.077 123.635C188.466 123.107 188.727 122.496 188.839 121.85C188.908 121.486 188.943 121.116 188.944 120.745C188.952 120.08 188.825 119.421 188.569 118.807C188.314 118.194 187.936 117.639 187.459 117.176C186.507 116.261 185.257 115.72 183.938 115.653L183.936 115.653C183.776 115.644 183.619 115.64 183.464 115.64C182.648 115.658 181.835 115.737 181.032 115.878C180.12 116.037 179.197 116.127 178.271 116.145C177.049 116.144 175.837 115.928 174.689 115.507V115.507C174.366 115.39 174.101 115.15 173.955 114.839C173.808 114.527 173.791 114.17 173.906 113.846C174.022 113.522 174.262 113.257 174.573 113.11C174.884 112.962 175.241 112.944 175.565 113.059C176.431 113.38 177.347 113.545 178.271 113.545C179.067 113.526 179.861 113.446 180.646 113.307C181.577 113.146 182.519 113.057 183.464 113.04C183.664 113.04 183.869 113.045 184.078 113.057L184.077 113.057L184.08 113.057H184.078C185.789 113.147 187.428 113.777 188.759 114.857C188.781 114.852 188.797 114.837 188.82 114.833C188.981 114.806 189.174 114.765 189.384 114.713C190.244 114.504 191.076 114.192 191.861 113.784C193.084 113.185 194.109 112.247 194.814 111.082C195.32 110.16 195.587 109.126 195.592 108.074C195.607 107.338 195.439 106.611 195.101 105.957C194.896 105.588 194.622 105.263 194.293 104.999C194.054 104.802 193.791 104.637 193.51 104.506C192.865 104.226 192.173 104.065 191.47 104.032L191.468 104.032C191.311 104.021 191.154 104.016 190.998 104.016C189.037 104.166 187.121 104.671 185.341 105.508C183.097 106.507 180.684 107.072 178.229 107.173C178.053 107.173 177.875 107.169 177.694 107.162H177.693V107.162C177.589 107.15 177.487 107.125 177.39 107.087C177.323 107.076 177.257 107.06 177.192 107.039C177.075 106.978 176.969 106.899 176.876 106.805C176.85 106.781 176.815 106.769 176.791 106.743C176.691 106.629 176.611 106.499 176.555 106.358C176.549 106.344 176.536 106.333 176.53 106.318C176.495 106.203 176.477 106.084 176.474 105.964C176.462 105.913 176.454 105.861 176.449 105.808L176.449 105.808C176.461 105.729 176.48 105.651 176.507 105.576C176.519 105.484 176.541 105.394 176.573 105.307ZM7.30665 82.7983C6.64803 81.1897 6.26433 79.4819 6.17158 77.7462C6.15845 77.3354 6.21616 76.9254 6.34217 76.5342C6.38562 76.3756 6.47908 76.2352 6.60865 76.1339L8.115 75.1856C8.24801 77.1035 8.67774 78.9892 9.38886 80.7753C10.0837 82.61 10.92 84.3879 11.8902 86.0931C12.2233 86.6842 12.5756 87.2775 12.9472 87.8732C14.0134 89.5838 15.2028 91.2144 16.5062 92.7519C17.2788 93.6656 18.106 94.5317 18.9833 95.3454C19.0743 95.4288 19.1642 95.5029 19.2549 95.5833C20.08 96.336 20.9831 96.9986 21.9489 97.5596C22.0396 97.6098 22.1296 97.6494 22.22 97.6961L20.6807 98.6941L20.6785 98.6963L20.676 98.6973C20.5714 98.7585 20.4508 98.7866 20.33 98.7779C19.7491 98.7241 19.1894 98.5324 18.6976 98.2186C18.1089 97.8778 17.5506 97.4869 17.0291 97.0502C16.2533 96.4121 15.5223 95.7214 14.8413 94.983C14.5825 94.705 14.321 94.4006 14.0599 94.0972C12.8017 92.6274 11.6559 91.065 10.6323 89.4232C10.2266 88.7754 9.85258 88.1306 9.49778 87.49C8.65279 85.9822 7.92042 84.4141 7.30665 82.7983ZM165.311 90.1751H165.311L164.647 90.1092L165.311 90.1751Z"/><path id="Vector_9" d="M13.0585 113.628C14.5828 112.193 16.3718 111.069 18.3256 110.317C19.3687 109.925 20.4715 109.714 21.5859 109.696C21.7124 109.696 21.835 109.711 21.96 109.717C21.9663 109.694 21.9723 109.665 21.9786 109.641C22.1153 109.116 22.1854 108.576 22.1873 108.033C22.1882 107.645 22.1488 107.258 22.0697 106.878C22.0371 106.732 21.9883 106.591 21.924 106.456C21.8384 106.272 21.7362 106.096 21.6187 105.93C21.32 105.511 20.9589 105.14 20.548 104.83C19.508 104.041 18.2365 103.618 16.9312 103.627C15.9073 103.639 14.8965 103.859 13.9603 104.274H13.9602L13.9548 104.277C13.5933 104.436 13.2403 104.614 12.8972 104.809C11.513 105.568 10.292 106.592 9.30426 107.823C8.15919 109.179 7.50008 110.879 7.43164 112.652C7.4306 113.594 7.66447 114.521 8.11206 115.349C8.53083 116.111 9.0778 116.794 9.72894 117.37C9.76843 117.312 9.80494 117.254 9.84588 117.195C10.7808 115.89 11.8583 114.694 13.0585 113.628Z"/><path id="Vector_10" d="M6.0655 108.047L6.06574 108.047C5.94483 107.877 5.81116 107.707 5.69922 107.537C5.81086 107.707 5.94465 107.877 6.0655 108.047Z"/><path id="Vector_11" d="M9.70312 71.0308L9.70413 71.0298L9.70312 71.0308Z"/><path id="Vector_12" d="M196.086 103.107C196.128 103.144 196.174 103.177 196.214 103.215C196.18 103.172 196.144 103.13 196.109 103.088L196.086 103.107Z"/></g></g></svg>