<svg xmlns="http://www.w3.org/2000/svg" width="200" height="200" fill="none"><path fill="#FFE632" d="M101.468 129.802c-3.536-3.644-15.921-9.053-20.78-7.895-2.315.552-4.137 2.836-5.131 5.489 0 0 8.63 2.207 25.911 2.406ZM94.939 112.529c-1.495 1.622-4.984 7.436-.614 8.418 4.369.982 4.303-3.347 3.827-6.424-.565-3.652 2.415-2.468 4.233-5.926 1.818-3.458-.529-5.319-3.188-4.756a4.063 4.063 0 0 0-3.245 4.335c.084 1.429.492 2.722-1.013 4.353ZM112.01 25.922c-1.877-1.157-8.253-3.467-8.38 1.009-.127 4.476 4.109 3.582 7.039 2.525 3.475-1.253 2.885 1.899 6.627 3.02 3.742 1.122 5.118-1.537 4.057-4.039a4.06 4.06 0 0 0-4.877-2.354c-1.386.355-2.577 1.003-4.466-.161ZM112.957 112.934c3.268-2.118 5.404.845 5.011 2.354-.394 1.508-2.588 5.107-5.379 4.337-2.791-.771-2.558-4.795.368-6.691ZM104.372 128.838c2.464 2.04 7.08-3.154 4.855-5.972-2.224-2.818-8.773 2.728-4.855 5.972ZM82.32 112.168a5.209 5.209 0 0 1 .167 5.139c-1.228 2.207-3.613 2.85-4.646.184s-.337-5.502.997-6.516c1.374-1.045 2.886.212 3.483 1.193ZM78.548 103.946c1.01-4.053 4.492-3.604 6.017-2.036 1.526 1.568.499 4.055-1.084 5.555-2.486 2.355-5.712-.388-4.933-3.519ZM140.234 83.651a8.693 8.693 0 0 0 6.581 3.522c6.053.53 3.896-6.227 2.279-8.373-1.617-2.145 1.039-2.042 4.103 1.295 2.95 3.21 7.705-1.302 4.838-5.492-1.969-2.877-7.907-7.28-13.05-9.656 0 0 3.485 12.939-4.751 18.704ZM155.856 54.844a3.99 3.99 0 0 1-1.327 1.63c-1.748 1.343-6.172 6.483-2.033 8.191 4.14 1.708 4.809-2.57 4.861-5.684a3.525 3.525 0 0 1 .388-1.751l-1.889-2.386ZM137.689 53.405a3.444 3.444 0 0 1 1.234-1.192c1.531-.797 2.807.698 3.229 1.766a5.205 5.205 0 0 1-.706 5.093l-3.757-5.667ZM139.828 45.237c1.682-3.824 5.038-2.791 6.275-.987 1.239 1.804-.195 4.08-2.009 5.29-2.849 1.9-5.565-1.35-4.266-4.303ZM57.802 38.529a6.16 6.16 0 0 1 1.597 3.469c.411 4.977-6.807 16.404-10.942 19.35-4.136 2.945-7.355-.75-5.582-4.735C46.438 48.61 57.802 38.53 57.802 38.53ZM48.97 64.363c-1.989 1.771.755 5.775 3.53 6.042.559.053 2.651-4.439.851-5.99a3.104 3.104 0 0 0-4.38-.052ZM68.78 45.083a5.206 5.206 0 0 1-5.105-.612c-1.995-1.547-2.272-4.002.52-4.62 2.791-.62 5.49.497 6.291 1.97.825 1.515-.645 2.82-1.706 3.262ZM73.253 46.939c-1.953-2.813 1.246-5.588 4.224-4.345 2.52 1.053 2.978 2.86 2.495 4.341l-6.719.004ZM37.612 76.754c-2.791 1.302-4.42-3.67-3.2-6.244 1.222-2.574 1.505-5.625 3.54-5.633 2.035-.007 2.749 1.637 3.454 3.94.741 2.42-1.332 6.789-3.794 7.937ZM35.041 162.321c1.481 4.362 10.096 7.556 13.963 4.396 3.868-3.161 7.079-16.289 6.326-21.311a4.403 4.403 0 0 0-2.681-3.603s-1.524 7.447-7.149 11.822a52.1 52.1 0 0 1-10.75 6.5l.291 2.196ZM65.972 141.956c-1.969-.768-8.379-1.851-7.729 2.392.65 4.244 4.491 2.672 7.073 1.172 3.062-1.78 3.046 1.295 6.769 1.709 3.722.414 4.562-2.33 3.131-4.507a3.896 3.896 0 0 0-5.003-1.382c-1.246.573-2.259 1.389-4.24.616ZM71.616 165.224c3.88.348 4.387-3.269 3.335-4.419-1.052-1.151-4.672-3.312-6.781-1.328-2.11 1.983-.026 5.434 3.446 5.747ZM58.279 156.516c1.228-2.953 7.734-.512 7.08 3.018-.654 3.53-9.033 1.679-7.08-3.018ZM53.753 168.076c-2.5-.361-4.458 1.144-2.965 3.582 1.493 2.439 4.2 3.703 5.786 3.159 1.586-.543 1.281 3.873 5.412 4.495 4.131.621 5.59-1.386 5.269-3.55-.322-2.164-3.039-4.283-5.14-3.7-2.102.583-3.6 1.773-4.438-.051-.86-1.87-2.406-3.715-3.924-3.935ZM135.579 157.339c3.74 2.241.28 7.809-4.402 5.847-4.683-1.963-14.24-11.52-14.935-16.466-.694-4.947 6.507-10.654 11.003-9.656 3.088.685 2.512 4.486 4.807 5.961 2.296 1.476 7.428.813 9.171 6.634 1.741 5.82-5.312 5.072-7.741 3.922-2.427-1.151-1.79 1.43 2.097 3.758ZM128.602 174.072c1.679-1.284 5.93-6.201 1.966-7.848-3.965-1.646-4.615 2.453-4.672 5.438-.068 3.541-2.688 1.933-4.973 4.898-2.286 2.967-.376 5.111 2.228 5.017a3.9 3.9 0 0 0 3.777-3.56c.157-1.363-.016-2.652 1.674-3.945ZM105.785 166.823c-2.312 3.135.518 5.446 2.047 5.144 1.53-.302 5.255-2.275 4.654-5.107-.6-2.833-4.633-2.843-6.701-.037ZM120.149 159.94c1.888 2.582-3.575 6.877-6.253 4.486-2.679-2.391 3.252-8.593 6.253-4.486ZM112.615 150.074c1.606-1.949 1.336-4.404-1.524-4.393-2.859.01-5.345 1.669-5.704 3.306-.358 1.637-3.974-.915-6.65 2.294-2.674 3.209-1.716 5.497.301 6.346 2.017.849 5.239-.375 5.831-2.474.592-2.099.351-3.997 2.346-3.767 2.044.235 4.424-.128 5.4-1.312ZM144.612 176.228c3.074.183 3.302-4.385 1.544-6.627s-2.706-5.157-4.692-4.716c-1.988.441-.87 2.07-1.728 4.829-.582 1.87 2.296 6.36 4.876 6.514Z"/><path fill="#BEBEC9" d="m60.959 86.245-.648 1.127a18.72 18.72 0 0 0 9.275 2.314 21.465 21.465 0 0 0 11.713-3.43 17.716 17.716 0 0 0 7.537-10.542A37.759 37.759 0 0 0 90 66.381a31.605 31.605 0 0 0-2.57-12.967 16.786 16.786 0 0 0-3.098-4.682 9.923 9.923 0 0 0-4.313-2.71 12.009 12.009 0 0 0-3.37-.444c-4.32.011-9.6 1.781-14.254 5.193a25.548 25.548 0 0 0-10.076 15.23 27.14 27.14 0 0 0-.633 5.673 18.455 18.455 0 0 0 2.865 10.243 17.018 17.018 0 0 0 5.76 5.455l.647-1.127.647-1.128a14.423 14.423 0 0 1-4.874-4.617 15.84 15.84 0 0 1-2.445-8.826c.011-1.725.204-3.444.576-5.13a22.944 22.944 0 0 1 9.074-13.678c4.217-3.114 9.109-4.698 12.713-4.688a9.443 9.443 0 0 1 2.638.338 7.33 7.33 0 0 1 3.177 2.024 16.581 16.581 0 0 1 3.59 6.54 31.304 31.304 0 0 1 1.346 9.301 35.164 35.164 0 0 1-1.084 8.688 15.1 15.1 0 0 1-6.448 9.016 18.88 18.88 0 0 1-10.283 3 16.142 16.142 0 0 1-7.98-1.968l-.647 1.128ZM137.641 86.245l-.647-1.128a16.143 16.143 0 0 1-7.981 1.969 18.88 18.88 0 0 1-10.282-3 15.1 15.1 0 0 1-6.449-9.017 35.244 35.244 0 0 1-1.084-8.687c-.065-4.08.73-8.129 2.333-11.881a14.203 14.203 0 0 1 2.604-3.96 7.328 7.328 0 0 1 3.176-2.025 9.439 9.439 0 0 1 2.638-.338c3.605-.01 8.497 1.574 12.714 4.688a22.943 22.943 0 0 1 9.074 13.679c.372 1.685.565 3.404.576 5.13a15.839 15.839 0 0 1-2.445 8.825 14.43 14.43 0 0 1-4.874 4.617l.647 1.128.648 1.127a17.023 17.023 0 0 0 5.759-5.455 18.456 18.456 0 0 0 2.865-10.242A27.134 27.134 0 0 0 146.28 66a25.551 25.551 0 0 0-10.076-15.23c-4.654-3.412-9.935-5.182-14.255-5.193a12.016 12.016 0 0 0-3.37.444 9.928 9.928 0 0 0-4.313 2.71 19.126 19.126 0 0 0-4.202 7.566 33.902 33.902 0 0 0-1.466 10.084 37.803 37.803 0 0 0 1.166 9.332 17.713 17.713 0 0 0 7.536 10.542 21.464 21.464 0 0 0 11.713 3.43c3.24.044 6.436-.753 9.276-2.314l-.648-1.127Z"/><path fill="#BEBEC9" d="M75.757 70.304c-5.426.08-9.387 4.595-8.5 7.21.548 1.614 2.61 2.005 5.448 2.066a2.893 2.893 0 1 1 5.4-.026c2.952-.005 4.717-.133 4.94-2.397.232-2.347-2.887-6.917-7.288-6.853ZM123.048 70.304c-4.401-.064-7.519 4.506-7.288 6.853.223 2.264 1.988 2.392 4.941 2.397a2.894 2.894 0 0 1 .33-2.67 2.895 2.895 0 0 1 3.732-.903 2.893 2.893 0 0 1 1.337 3.6c2.838-.062 4.9-.453 5.448-2.068.887-2.614-3.074-7.13-8.5-7.209ZM110.467 90.408a1.302 1.302 0 0 0-1.827-.173c-.001 0-.051.04-.158.119a15.648 15.648 0 0 1-7.83 2.684c0-.022.01-.042.009-.064l-.043-.85a239.243 239.243 0 0 1-.197-5.193c3.3-.867 6.834-5.148 6.651-8.071-.238-3.802-13.763-3.657-15.13-.396-.894 2.131 2.604 7.062 5.874 8.329.064 2.728.22 5.746.245 6.244a15.999 15.999 0 0 1-5.458-1.369 12.756 12.756 0 0 1-1.744-.96 7.999 7.999 0 0 1-.423-.299l-.094-.074-.017-.014h-.001a1.3 1.3 0 0 0-1.69 1.976 13.014 13.014 0 0 0 2.888 1.736 18.816 18.816 0 0 0 7.845 1.658c2.74.008 5.45-.569 7.948-1.693a14.092 14.092 0 0 0 2.981-1.76 1.301 1.301 0 0 0 .171-1.83Z"/><path fill="#BEBEC9" d="M153.035 49.714c.072-.026.141-.06.207-.099a19.305 19.305 0 0 0 3.973-4.011 21.466 21.466 0 0 0 4.112-12.69 20.742 20.742 0 0 0-1.918-8.785 18.591 18.591 0 0 0-5.826-7.131 19.688 19.688 0 0 0-11.735-3.748 21.424 21.424 0 0 0-17.148 8.41 19.343 19.343 0 0 0-2.626 4.937 63.9 63.9 0 0 0-22.68-4.252 67.122 67.122 0 0 0-22.113 3.795 19.312 19.312 0 0 0-2.449-4.479 21.426 21.426 0 0 0-17.148-8.41 19.69 19.69 0 0 0-11.735 3.747 18.593 18.593 0 0 0-5.826 7.13 20.74 20.74 0 0 0-1.918 8.786 21.465 21.465 0 0 0 4.113 12.69 19.358 19.358 0 0 0 3.084 3.294 57.626 57.626 0 0 0-12.644 35.397c0 1.623.075 3.257.224 4.903.06.667.135 1.326.224 1.977a1.3 1.3 0 1 0 2.576-.348 43.815 43.815 0 0 1-.21-1.866 50.828 50.828 0 0 1-.214-4.666c-.002-16.037 7.562-30.866 19.38-41.709a66.713 66.713 0 0 1 44.656-17.641c16.74-.004 32.683 7.233 44.422 18.373 11.744 11.139 19.239 26.138 19.233 41.557 0 1.555-.077 3.113-.231 4.676a1.294 1.294 0 0 0 1.165 1.422 1.3 1.3 0 0 0 1.423-1.165c.163-1.648.244-3.292.243-4.933-.004-12.656-4.774-24.904-12.614-35.161ZM52.98 40.67a67.568 67.568 0 0 0-5.944 6.207 16.765 16.765 0 0 1-2.625-2.815 18.871 18.871 0 0 1-3.606-11.148 18.14 18.14 0 0 1 1.672-7.683 15.988 15.988 0 0 1 5.014-6.14 17.089 17.089 0 0 1 10.193-3.24 18.84 18.84 0 0 1 15.055 7.352 16.714 16.714 0 0 1 2.11 3.85A70.46 70.46 0 0 0 52.98 40.67Zm92.626.761a71.251 71.251 0 0 0-21.116-13.876 16.713 16.713 0 0 1 2.304-4.352 18.84 18.84 0 0 1 15.054-7.353 17.086 17.086 0 0 1 10.193 3.241 15.988 15.988 0 0 1 5.014 6.14 18.147 18.147 0 0 1 1.672 7.683 18.875 18.875 0 0 1-3.606 11.148 16.708 16.708 0 0 1-3.438 3.473c-.074.065-.14.139-.197.22a70.385 70.385 0 0 0-5.88-6.324Z"/><path fill="#FFE632" d="M146.118 121.707c-4.342.409-4.851-6.127.085-7.318 4.936-1.192 18.296.85 21.785 4.424 3.488 3.575 1.065 12.438-3.149 14.296-2.893 1.277-4.68-2.127-7.404-1.957-2.722.17-6.466 3.744-11.317.085-4.851-3.659 1.276-7.233 3.914-7.744 2.639-.51.596-2.212-3.914-1.786Z"/><path fill="#BEBEC9" d="M185.69 128.58a35.79 35.79 0 0 0-8.594-9.446c.374-.701.773-1.482 1.173-2.322a42.027 42.027 0 0 0 2.236-5.654 21.378 21.378 0 0 0 1.042-6.127c0-.159-.003-.316-.008-.472a7.772 7.772 0 0 0-1.694-5.02 4.973 4.973 0 0 0-3.773-1.67 6.246 6.246 0 0 0-3.259.956 5.832 5.832 0 0 0-2.268 2.521 52.943 52.943 0 0 1-3.022 5.704 22.267 22.267 0 0 1-1.635 2.351c-.18.221-.374.431-.58.629a7.43 7.43 0 0 1-.07-1.105c.06-1.921.27-3.834.626-5.723.544-2.688.878-5.415.998-8.156a9.105 9.105 0 0 0-.763-4.033 4.66 4.66 0 0 0-1.256-1.582 4.717 4.717 0 0 0-1.933-.904 8.224 8.224 0 0 0-1.803-.21 6.308 6.308 0 0 0-2.792.626 7.586 7.586 0 0 0-3.084 2.953 17.15 17.15 0 0 0-1.862 4.633c-.696 2.657-1.231 5.527-1.724 7.726a33.209 33.209 0 0 1-.507 2.029 28.702 28.702 0 0 1-1.325-4.124c-.503-1.953-1.032-4.42-1.566-7.403a6.329 6.329 0 0 0-2.115-3.792 5.736 5.736 0 0 0-7.916.516 8.097 8.097 0 0 0-1.993 5.324 20.91 20.91 0 0 0-.018.95 77.768 77.768 0 0 0 1.217 11.45c.186 1.116.371 2.153.539 3.058a25.964 25.964 0 0 0-.611-.404 20.57 20.57 0 0 0-3.47-1.801 11.257 11.257 0 0 0-4.072-.857 6.882 6.882 0 0 0-4.317 1.438 6.62 6.62 0 0 0-1.768 2.001 4.892 4.892 0 0 0-.621 2.382c.013.876.221 1.738.609 2.523a11.532 11.532 0 0 0 2.689 3.435 25.586 25.586 0 0 0 4.305 3.105 98.28 98.28 0 0 1-31.311 4.729 106.883 106.883 0 0 1-30.752-4.08c.76-.596 1.47-1.255 2.122-1.968a9.981 9.981 0 0 0 1.592-2.329 5.877 5.877 0 0 0 .609-2.522c0-.834-.214-1.654-.62-2.382a6.609 6.609 0 0 0-1.769-2 6.884 6.884 0 0 0-4.317-1.438 11.26 11.26 0 0 0-4.072.857 21.25 21.25 0 0 0-4.081 2.208c.168-.905.353-1.944.539-3.062a77.876 77.876 0 0 0 1.218-11.45c0-.326-.006-.642-.019-.95a8.096 8.096 0 0 0-1.992-5.324 5.734 5.734 0 0 0-7.916-.515 6.326 6.326 0 0 0-2.116 3.792 77.929 77.929 0 0 1-2.32 10.013c-.2.609-.394 1.109-.57 1.515-.084-.285-.17-.606-.257-.957-.56-2.266-1.159-5.685-1.975-8.8a14.676 14.676 0 0 0-2.73-5.833 6.892 6.892 0 0 0-2.215-1.752 6.312 6.312 0 0 0-2.793-.626 8.224 8.224 0 0 0-1.803.21 4.713 4.713 0 0 0-1.932.904 5.015 5.015 0 0 0-1.625 2.512 10.66 10.66 0 0 0-.394 3.103c.12 2.74.453 5.467.997 8.156.356 1.888.566 3.802.626 5.723.005.369-.019.738-.07 1.103a8.292 8.292 0 0 1-.866-.989 45.29 45.29 0 0 1-4.371-7.694 5.837 5.837 0 0 0-2.268-2.521 6.244 6.244 0 0 0-3.259-.955 4.956 4.956 0 0 0-3.773 1.669 7.766 7.766 0 0 0-1.694 5.018 13.51 13.51 0 0 0-.008.472 21.358 21.358 0 0 0 1.042 6.128 50.713 50.713 0 0 0 5.19 11.069c-.08.523-.132 1.049-.155 1.578-.023.023-.053.033-.074.058a39.803 39.803 0 0 0-5.848 9.198 25.51 25.51 0 0 0-2.476 10.3c-.045 2.61.621 5.183 1.927 7.443a14.9 14.9 0 0 0 6.407 5.682 22.707 22.707 0 0 0 10.106 2.499 19.698 19.698 0 0 0 3.333-.281 417.656 417.656 0 0 0-1.43 20.894 1.302 1.302 0 0 0 1.242 1.355 1.3 1.3 0 0 0 1.355-1.243c.212-4.891.646-12.818 1.508-21.663a23.964 23.964 0 0 0 10.04-6.482c4.502-4.715 8-11.422 10.078-19.59.009-.034 0-.067.005-.101.692-.828 1.349-1.629 2.034-2.4a25.359 25.359 0 0 1 6.526-5.369c.208-.122.395-.249.596-.373 9.699 3.219 21.046 4.789 33.468 4.79a99.54 99.54 0 0 0 33.759-5.407 1.18 1.18 0 0 0 .233-.142 25.68 25.68 0 0 1 3.877 3.609c1.636 1.838 3.094 3.84 5.306 6.01a10.575 10.575 0 0 0 3.087 2.042 60.824 60.824 0 0 0 12.77 13.822 33.954 33.954 0 0 0 5.352 3.356c1.412 12.046 1.969 23.269 2.176 28.794a1.301 1.301 0 0 0 2.599-.097c-.201-5.345-.725-15.955-2.026-27.545a19.539 19.539 0 0 0 6.571 1.225 17.108 17.108 0 0 0 10.478-3.66 15.72 15.72 0 0 0 4.767-5.638 14.75 14.75 0 0 0 1.457-6.519 24.595 24.595 0 0 0-4.11-12.684Zm-128.83 2.06c-1.745 1.969-3.14 3.882-5.182 5.881a10.44 10.44 0 0 1-5.03 2.4 25.74 25.74 0 0 1-5.473.552c-.662 0-1.21-.022-1.588-.043-.189-.011-.336-.022-.433-.029l-.108-.009-.03-.003a1.306 1.306 0 0 0-.952.288 1.304 1.304 0 0 0-.42 1.382 1.298 1.298 0 0 0 1.116.917c.032.003.98.096 2.415.097 2.03.012 4.055-.194 6.041-.615a13.795 13.795 0 0 0 5.568-2.456 38.103 38.103 0 0 1-7.976 13.659c-4.124 4.306-8.968 6.612-14.17 6.616a20.102 20.102 0 0 1-8.952-2.229 12.303 12.303 0 0 1-5.326-4.681 11.776 11.776 0 0 1-1.56-6.113 22.97 22.97 0 0 1 2.245-9.232 36.63 36.63 0 0 1 3.804-6.471c.146.889.358 1.765.635 2.623a1.302 1.302 0 0 0 2.395.184 1.3 1.3 0 0 0 .076-.992 15.686 15.686 0 0 1-.78-4.856c-.002-.59.036-1.18.113-1.766.027-.204.055-.359.074-.458l.021-.105.005-.02a1.299 1.299 0 0 0-.178-1.02l-.014-.022a52.052 52.052 0 0 1-3.194-5.836c-1.492-3.174-2.895-7.152-2.882-10.361 0-.129.002-.256.006-.381a5.247 5.247 0 0 1 1.039-3.381 2.355 2.355 0 0 1 1.83-.797c.67.012 1.322.207 1.888.564a3.26 3.26 0 0 1 1.268 1.379c.937 2.065 2 4.07 3.182 6.005a24.63 24.63 0 0 0 1.84 2.636c.285.353.596.683.93.99.317.297.683.538 1.082.709.286.118.59.18.9.184.488 0 .96-.179 1.325-.503.442-.427.738-.984.845-1.589a8.897 8.897 0 0 0 .174-1.919 39.393 39.393 0 0 0-.662-6.157 50.949 50.949 0 0 1-.961-7.722 6.662 6.662 0 0 1 .49-2.875c.129-.274.317-.516.551-.709.258-.199.56-.335.88-.399a5.639 5.639 0 0 1 1.234-.146 3.7 3.7 0 0 1 1.653.363 5.014 5.014 0 0 1 2.009 1.98 14.64 14.64 0 0 1 1.56 3.928c.665 2.533 1.195 5.365 1.702 7.633.206.991.468 1.97.784 2.931.128.383.298.752.506 1.098.117.188.258.36.42.511.221.206.492.351.786.422.127.029.256.044.385.044.267-.002.53-.062.77-.178a2.55 2.55 0 0 0 .889-.744c.42-.573.76-1.199 1.01-1.862a64.598 64.598 0 0 0 2.944-11.828 3.721 3.721 0 0 1 1.23-2.26 3.124 3.124 0 0 1 3.287-.461c.402.178.763.439 1.059.764a5.52 5.52 0 0 1 1.291 3.653c.011.266.017.548.017.843a75.742 75.742 0 0 1-1.183 11.024 166.803 166.803 0 0 1-1.088 5.874l-.1.485a1.3 1.3 0 0 0 2.153 1.226l.008-.007c1.01-.892 2.091-1.7 3.234-2.414a12.247 12.247 0 0 1 5.972-2.141 4.263 4.263 0 0 1 2.72.889c.44.324.811.734 1.089 1.205.195.343.297.731.297 1.126-.013.49-.135.97-.358 1.407a9.018 9.018 0 0 1-2.097 2.634 23.183 23.183 0 0 1-3.896 2.799 28.013 28.013 0 0 0-7.153 5.885Zm129.146 16.003a13.11 13.11 0 0 1-3.997 4.704 14.489 14.489 0 0 1-8.911 3.134c-4.247.005-8.732-1.896-13.103-5.206a54.926 54.926 0 0 1-10.244-10.544 29.68 29.68 0 0 0 5.145.449c1.433 0 2.379-.093 2.411-.096a1.302 1.302 0 0 0 .69-2.295 1.302 1.302 0 0 0-.946-.293l-.029.003c-.162.015-.97.081-2.126.081a25.809 25.809 0 0 1-5.474-.551 10.45 10.45 0 0 1-5.033-2.402c-2.043-1.999-3.436-3.911-5.183-5.88a28.013 28.013 0 0 0-7.153-5.885 20.19 20.19 0 0 1-4.809-3.719 7.428 7.428 0 0 1-1.184-1.713 3.289 3.289 0 0 1-.358-1.408c0-.395.102-.783.297-1.126a4.06 4.06 0 0 1 1.089-1.205 4.27 4.27 0 0 1 2.72-.89 8.728 8.728 0 0 1 3.122.677 19.999 19.999 0 0 1 4.277 2.43 25.12 25.12 0 0 1 1.702 1.354l.089.08.024.022c.203.187.46.305.735.337a1.302 1.302 0 0 0 1.419-1.564l-.101-.484a162.785 162.785 0 0 1-1.31-7.249 68.948 68.948 0 0 1-.96-9.65c0-.294.005-.576.016-.842a5.52 5.52 0 0 1 1.292-3.653 3.17 3.17 0 0 1 2.334-1.038c.736 0 1.449.26 2.012.735a3.722 3.722 0 0 1 1.229 2.26 80.288 80.288 0 0 0 2.41 10.37c.294.962.687 1.891 1.172 2.772.193.341.436.653.72.923.161.149.343.273.54.368.24.116.504.177.771.178a1.695 1.695 0 0 0 1.171-.465c.284-.276.511-.605.667-.969.291-.677.522-1.377.691-2.094.627-2.433 1.234-5.989 2.054-9.11a12.222 12.222 0 0 1 2.192-4.804 4.28 4.28 0 0 1 1.377-1.104 3.703 3.703 0 0 1 1.654-.364c.415.004.829.053 1.234.147.32.063.621.2.879.399.375.327.641.76.762 1.244.206.762.3 1.55.28 2.34a51.05 51.05 0 0 1-.961 7.722 39.273 39.273 0 0 0-.663 6.156 7.236 7.236 0 0 0 .338 2.475c.139.395.373.75.681 1.034.366.324.838.503 1.326.502a2.41 2.41 0 0 0 .899-.183c.4-.172.766-.412 1.083-.71a11.913 11.913 0 0 0 1.619-1.89 49.914 49.914 0 0 0 4.332-7.74 3.255 3.255 0 0 1 1.267-1.378 3.654 3.654 0 0 1 1.889-.565 2.357 2.357 0 0 1 1.83.797 5.242 5.242 0 0 1 1.038 3.38c.005.127.007.255.007.384a18.878 18.878 0 0 1-.928 5.367 43.694 43.694 0 0 1-3.228 7.532 53.429 53.429 0 0 1-1.791 3.094l-.109.171-.034.052a1.306 1.306 0 0 0-.177 1.02h-.001c.152.774.224 1.562.213 2.351a15.665 15.665 0 0 1-.781 4.854 1.3 1.3 0 0 0 2.472.808c.599-1.828.906-3.739.909-5.662.003-.8-.056-1.6-.178-2.39.126-.202.299-.487.491-.809a33.372 33.372 0 0 1 7.679 8.538 22.06 22.06 0 0 1 3.715 11.307 12.133 12.133 0 0 1-1.193 5.379Z"/><path fill="#FFE632" d="M141.716 102.762c-.592 2.03-1.107 8.51 3.063 7.489 4.17-1.022 2.266-4.709.545-7.149-2.043-2.893 1.021-3.148 1.106-6.892.085-3.744-2.723-4.34-4.765-2.723a3.899 3.899 0 0 0-.937 5.106c.681 1.191 1.583 2.127.988 4.169ZM164.442 94.036c.005-3.895-3.641-4.082-4.696-2.933-1.054 1.15-2.887 4.945-.726 6.872 2.162 1.927 5.417-.453 5.422-3.94ZM156.953 109.223c-3.049-.962-1.191-7.658 2.383-7.318 3.574.341 2.468 8.851-2.383 7.318ZM169.047 112.795c-.139 2.268 1.532 3.903 3.829 2.373 2.298-1.531 3.32-4.057 2.639-5.434-.682-1.378 3.744-1.454 3.999-5.204.255-3.749-1.872-4.897-3.999-4.438-2.128.459-4 3.061-3.234 4.897.766 1.837 2.084 3.084.34 3.98-1.787.919-3.489 2.449-3.574 3.826ZM127.151 111.785c-2.586 1.674-.064 5.489 2.68 6.255s5.234 2.553 6.574 1.022c1.34-1.533-.526-2.183-1.468-4.915-.638-1.851-5.616-3.765-7.786-2.362ZM49.95 124.599c4.342.411 4.85-6.127-.085-7.318-4.935-1.191-18.295.852-21.784 4.426-3.49 3.573-1.065 12.436 3.149 14.296 2.893 1.276 4.68-1.107 7.403-.937 2.723.171 6.467 2.724 11.318-.935 4.85-3.66-1.277-7.234-3.915-7.744-2.638-.511-.596-2.212 3.915-1.788ZM35.121 105.666c-.397 2.169-.241 8.949 3.977 7.445 4.218-1.503 1.85-5.128-.196-7.476-2.428-2.784.724-3.376.414-7.27-.31-3.895-3.992-6.284-5.94-4.389-1.946 1.895-.556 6.305.277 7.468.833 1.165 1.869 2.04 1.468 4.222ZM50.842 96.804c1.632-3.537 5.02-2.172 5.493-.687.474 1.486.54 5.701-2.23 6.54-2.771.84-4.724-2.688-3.263-5.853ZM51.805 114.916c3.173.408 4.301-6.448.915-7.641-3.385-1.195-5.96 6.992-.915 7.641ZM24.952 113.622a3.945 3.945 0 0 1 2.194 3.235c.14 2.521-1.532 4.339-3.83 2.637-2.297-1.702-2.532-3.45-1.946-5.02.603-1.617 2.578-1.409 3.582-.852ZM17.217 107.932c-1.312-3.966 1.873-5.447 4-4.936 2.127.511 2.587 3.162 2.05 5.277-.843 3.318-5.036 2.722-6.05-.341ZM70.108 115.867c2.813 1.254.128 5.744-2.616 6.51-2.745.765-5.234 2.553-6.574 1.02-1.34-1.531-.567-3.148.71-5.19 1.342-2.148 5.999-3.446 8.48-2.34Z"/></svg>