<svg xmlns="http://www.w3.org/2000/svg" width="200" height="200" fill="none"><path fill="#FFD93A" d="m101.022 112.495-10.21 12.642 3.687 7.781s-.973-6.484 1.377-7.132l1.257.081 7.05-8.267 2.432 3.197-6.443 7.866.305.715c2.375 2.833 4.638 6.294 4.638 6.294s2.593-.648 4.214-1.621c1.621-.971 3.242-5.267 2.999-9.562-.29-5.11-3.404-10.778-3.404-10.778l-4.133 2.107-3.68-3.577M96.507 101.114c1.287.106 3.053-4.19 1.907-11.294-.294-1.823-4.632-.743-4.848.709-.47 3.153.942 10.419 2.94 10.585Z"/><path fill="#191C22" d="M116.169 21.11c-4.796-2.262-11.868-4.486-21.116-4.485-1.564 0-3.189.064-4.875.2-5.103.416-9.486 1.328-13.156 2.402-.073-.056-.133-.125-.22-.166-.024-.012-2.43-1.177-5.604-2.35-1.588-.586-3.369-1.176-5.152-1.623-1.785-.446-3.568-.756-5.21-.758-.786 0-1.543.072-2.26.254-.716.182-1.399.48-1.986.95-.758.612-1.298 1.436-1.758 2.382-.797 1.66-1.34 3.755-1.76 6.01-1.11 6.042-1.238 13.225-1.255 14.693-2.694 5.857-6.052 13.141-8.757 21.153-2.742 8.126-4.82 17-4.82 25.92-.001 6.664 1.166 13.359 4.1 19.729 1.669 3.622 4.197 6.497 7.01 8.76 3.866 3.105 8.264 5.074 11.914 6.325-1.766 1.02-3.592 2.55-5.424 4.408-.09-.046-.172-.102-.274-.126-.844-.2-1.44-.533-1.903-.918-.69-.574-1.085-1.305-1.304-1.909a4.925 4.925 0 0 1-.207-.741l-.033-.197-.004-.04v-.002h-.002a1.297 1.297 0 0 0-1.7-1.124c-.091.031-3.503 1.16-7.738 4.239-4.23 3.077-9.291 8.126-12.573 15.949a1.299 1.299 0 0 0 2.205 1.325l.002-.001c.023-.03.996-1.2 2.5-2.324.754-.565 1.638-1.116 2.587-1.517.95-.402 1.958-.653 2.983-.652a6.203 6.203 0 0 1 2.575.56c.84.377 1.721.986 2.63 1.898a40.775 40.775 0 0 0-1.75 3.937c-.764 2.042-1.265 3.979-1.382 5.749-.016.253-.024.508-.024.763.006 2.881.99 5.828 2.395 8.665 2.115 4.253 5.221 8.279 7.803 11.272 2.583 2.99 4.644 4.937 4.666 4.958.196.185.437.273.684.314a270.03 270.03 0 0 0-1.089 12.354 1.3 1.3 0 1 0 2.595.166c.928-14.551 3.177-28.746 5.194-39.293a358.209 358.209 0 0 1 2.655-12.676 248.38 248.38 0 0 1 1.06-4.441l.08-.31a1.3 1.3 0 1 0-2.518-.651c-.005.023-1.894 7.339-3.988 18.418l-.798-1.33a1.3 1.3 0 1 0-2.23 1.338l1.868 3.112c.124.206.305.346.502.454a351.587 351.587 0 0 0-2.992 19.907c-1.285-1.289-4.01-4.139-6.66-7.648-1.715-2.267-3.393-4.808-4.624-7.346-1.236-2.536-2.008-5.065-2.003-7.263 0-.202.006-.4.019-.594.13-2.132 1.066-5.021 2.541-8.059 2.205-4.566 5.592-9.508 9.011-13.243 1.707-1.868 3.425-3.434 4.967-4.5 1.538-1.078 2.909-1.599 3.74-1.582.075 0 .14-.03.212-.043 2.06.509 3.38.693 3.416.698a1.3 1.3 0 0 0 .357-2.575l-.043-.007c-.498-.072-5.269-.833-10.586-3.165-2.66-1.165-5.452-2.72-7.922-4.754-2.471-2.035-4.616-4.539-6.038-7.626-2.753-5.977-3.862-12.277-3.863-18.642-.001-8.512 1.996-17.129 4.684-25.087 2.687-7.959 6.058-15.252 8.772-21.151.08-.173.118-.35.119-.54l.002-.204c.01-1.022.09-5.734.654-10.532.28-2.396.685-4.815 1.242-6.768.277-.976.593-1.834.928-2.498.334-.668.693-1.128.974-1.348.23-.184.559-.346 1.004-.46.442-.113.994-.173 1.619-.173 1.306-.002 2.922.263 4.577.68 2.486.623 5.068 1.574 7.013 2.369.363.148.695.288 1.01.422-6.385 2.329-9.76 4.871-9.84 4.933a1.3 1.3 0 1 0 1.578 2.067c.14-.106 8.886-6.655 25.214-7.984a57.485 57.485 0 0 1 4.664-.192c8.926.001 15.66 2.162 20.163 4.307 2.251 1.072 3.941 2.142 5.06 2.935.559.396.975.723 1.247.947.136.112.236.198.299.254l.068.06.013.012a1.3 1.3 0 0 0 1.778-1.897c-.062-.058-1.722-1.582-4.892-3.374 1.986-1.242 4.946-3.009 8.044-4.557 1.843-.922 3.732-1.763 5.464-2.363 1.729-.604 3.312-.954 4.454-.949.774-.002 1.308.155 1.615.364.274.18.585.535.87 1.105.43.85.77 2.137.975 3.651.208 1.515.293 3.257.293 5.053.001 3.395-.304 6.983-.61 9.71a114.168 114.168 0 0 1-.558 4.258l-.051.326c-.051.313.012.629.18.898l.031.05c.345.563 3.482 5.767 6.522 13.505 3.042 7.738 5.976 18.007 5.973 28.667 0 6.017-.93 12.155-3.279 18.064-1.335 3.354-3 6.355-5.293 8.917-2.296 2.561-5.222 4.701-9.175 6.323-3.726 1.531-8.207 2.388-11.088 2.805a1.3 1.3 0 0 0 .375 2.573c2.643-.387 6.549-1.108 10.226-2.413l.036.217c.248 1.545 1.331 8.462 2.853 20.912l-.002.227c-.002.16.033.313.086.459l.019.157c1.162 9.546 2.674 36.971 2.671 46.602 0 .458-.003.875-.01 1.247a1.3 1.3 0 0 0 2.6.047c.007-.391.01-.823.01-1.294 0-1.079-.02-2.378-.054-3.831.583.045 1.157.076 1.711.076 3.884.004 7.075-1.099 9.493-2.882.04-.03.061-.073.096-.106.831.219 1.688.349 2.566.351 1.873.003 3.806-.556 5.58-1.768 1.778-1.211 3.395-3.055 4.753-5.595a1.3 1.3 0 0 0-1.76-1.76c-1.391.755-3.725 1.589-5.715 1.577-.135 0-.261-.018-.393-.026.473-1.519.716-3.081.716-4.609 0-.915-.082-1.817-.248-2.69-.362-1.936-1.357-3.486-2.67-4.502-1.312-1.02-2.914-1.523-4.513-1.523-1.877-.001-3.783.696-5.223 2.121-1.445 1.422-2.362 3.561-2.355 6.207 0 .166.003.334.01.503a12.3 12.3 0 0 0 .974 4.247c-.224.014-.45.027-.693.027-.714 0-1.514-.064-2.409-.213-.104-.017-.202.003-.303.011-.522-11.465-1.423-25.37-2.2-32.075.235-.134.468-.274.708-.424.846-.532 1.758-1.139 2.717-1.6.96-.463 1.943-.77 2.928-.769.696.002 1.404.144 2.186.526.78.383 1.637 1.019 2.557 2.037a1.29 1.29 0 0 0 1.01.427c.385-.013.74-.194.977-.497 1.124-1.434 2.211-2.349 3.222-2.904 1.012-.555 1.949-.766 2.862-.768 1.086-.001 2.156.314 3.171.827 1.522.764 2.887 1.973 3.844 2.992.48.509.86.968 1.116 1.295.128.164.225.295.289.382l.069.097.015.021.002.003c.35.512 1.011.706 1.582.463.571-.242.891-.853.765-1.46-2.077-10.03-7.244-16.448-11.879-20.299-4.638-3.858-8.738-5.196-8.844-5.232a1.299 1.299 0 0 0-1.667.954h-.003c-.003.021-.298 1.212-1.43 2.348-1.139 1.131-3.092 2.317-6.845 2.33-.591 0-1.24-.042-1.921-.11-.327-2.189-.51-3.291-.511-3.299a1.316 1.316 0 0 0-.159-.416c3.836-1.709 6.848-3.949 9.212-6.592 2.552-2.851 4.361-6.144 5.772-9.691 2.491-6.267 3.463-12.741 3.463-19.024-.003-11.495-3.237-22.362-6.455-30.377-2.705-6.73-5.398-11.435-6.211-12.8.266-1.751 1.177-8.171 1.179-14.237-.001-2.506-.153-4.948-.6-7.03-.225-1.043-.523-1.998-.944-2.84-.422-.838-.976-1.582-1.752-2.102-.907-.6-1.965-.8-3.057-.801-1.628.005-3.417.44-5.306 1.092-5.639 1.964-12.192 5.988-15.094 7.842-.074.048-.121.118-.182.177Zm32.019 142.601c.918-.91 2.152-1.369 3.394-1.369 1.056-.001 2.095.334 2.916.975.82.644 1.451 1.578 1.713 2.935.134.705.202 1.447.202 2.205 0 1.264-.203 2.57-.596 3.833a3.731 3.731 0 0 1-.841-.85c-.527-.738-.952-1.852-1.088-3.528a1.3 1.3 0 0 0-2.591.21c.109 1.343.381 2.498.808 3.483.635 1.479 1.652 2.561 2.835 3.205 1.182.65 2.485.882 3.75.882a12.94 12.94 0 0 0 2.863-.353 9.912 9.912 0 0 1-1.605 1.382c-1.368.929-2.748 1.314-4.116 1.317-2.245.005-4.51-1.092-6.24-2.877-1.731-1.78-2.882-4.208-2.98-6.695a8.927 8.927 0 0 1-.008-.396c.007-2.071.669-3.446 1.584-4.359Zm-3.893 11.736c.736 0 1.417-.058 2.048-.159.419.598.879 1.164 1.383 1.684a12.951 12.951 0 0 0 2.662 2.108c-1.779.982-3.979 1.592-6.711 1.595-.569 0-1.168-.036-1.783-.092a499.128 499.128 0 0 0-.198-5.354c.93.143 1.8.218 2.599.218Z"/><path fill="#191C22" d="M101.184 31.003a1.3 1.3 0 0 0-.527-1.761c-3.03-1.626-6.79-2.275-10.57-2.28-5.045.01-10.123 1.159-13.617 3.115a1.3 1.3 0 1 0 1.276 2.265c2.917-1.657 7.71-2.79 12.342-2.78 3.476-.004 6.865.63 9.335 1.968a1.3 1.3 0 0 0 1.761-.527ZM114.395 32.615l.635-3.28a2.25 2.25 0 0 0-4.418-.855l-.635 3.28a2.25 2.25 0 1 0 4.418.855ZM70.65 33.49l.342-2.308a2.25 2.25 0 1 0-4.45-.66l-.343 2.307a2.25 2.25 0 1 0 4.45.661ZM80.11 35.153c-.359 1.162-.555 2.466-.676 3.508-.12 1.038-.156 1.804-.157 1.824a1.3 1.3 0 1 0 2.597.123l.006-.115c.017-.277.068-1.024.181-1.903.112-.877.291-1.894.532-2.666a1.3 1.3 0 0 0-2.483-.771ZM92.103 34.705c-.529 2.472-.662 5.2-.666 5.235a1.3 1.3 0 1 0 2.597.133l.006-.109c.03-.514.192-2.804.605-4.713a1.3 1.3 0 0 0-2.542-.546Z"/><path fill="#191C22" d="M90.97 141.669c.002.369.064.705.156 1.083.353 1.384 1.221 3.349 2.56 5.66 2.006 3.449 5.06 7.578 8.978 10.902 1.959 1.661 4.138 3.119 6.52 4.17 2.38 1.049 4.968 1.688 7.706 1.687.912 0 1.839-.07 2.779-.219a10.529 10.529 0 0 0 5.9-2.99c2.315-2.312 3.675-5.556 4.501-9.122.821-3.571 1.098-7.497 1.099-11.255-.002-8.697-1.495-16.504-1.503-16.55a1.299 1.299 0 1 0-2.554.487l.016.081c.155.838 1.442 8.102 1.441 15.982.004 4.836-.496 9.905-1.954 13.778-.725 1.939-1.681 3.566-2.879 4.755-1.203 1.19-2.627 1.97-4.472 2.266-.805.127-1.596.187-2.374.187-3.314 0-6.418-1.093-9.251-2.835-4.246-2.607-7.827-6.685-10.303-10.387-1.239-1.849-2.205-3.604-2.849-5.008a16.535 16.535 0 0 1-.716-1.794c-.155-.471-.209-.836-.202-.878-.01-1.343.557-3.227 1.158-4.701a28.27 28.27 0 0 1 1.09-2.378l.073-.138.022-.04c.16-.292.202-.627.12-.949l-.006-.019c-.061-.23-.6-2.515-.594-4.376-.007-.787.11-1.488.27-1.808.075-.164.139-.221.159-.235.014-.006.025-.013.051-.02.106.062.32.205.559.417.585.503 1.377 1.352 2.194 2.318 1.23 1.451 2.538 3.174 3.533 4.528a137.22 137.22 0 0 1 1.554 2.163l.12.171c.346.5.997.693 1.561.463l3.832-1.568a37.72 37.72 0 0 1 2.461 2.381c1.572 1.662 3.383 3.904 4.493 6.224a1.3 1.3 0 0 0 2.344-1.125c-1.344-2.793-3.394-5.255-5.108-7.054a40.432 40.432 0 0 0-2.263-2.192c.77-.915 1.363-2.015 1.779-3.248.52-1.546.78-3.294.78-5.162 0-2.164-.351-4.489-1.082-6.836-.095-.301-.2-.593-.304-.886 11.14-2.622 17.667-6.657 21.415-10.598 1.914-2.014 3.097-3.995 3.797-5.715.557-1.372.804-2.555.885-3.496 2.158-.512 3.562-1.328 4.444-2.128 1.012-.913 1.306-1.776 1.355-1.964a1.3 1.3 0 0 0-.288-1.215l-2.691-2.982a35.65 35.65 0 0 0 1.335-.913c1.477-1.068 3.231-2.482 4.413-4.123.199-.278.28-.618.227-.956-.033-.237-.188-.694-.619-1.175-.65-.727-1.844-1.523-4.218-2.216-1.498-.434-3.479-.828-6.124-1.112.119-1.596.191-3.164.191-4.693-.001-4.498-.535-8.698-1.715-12.514-1.763-5.721-5.015-10.581-9.988-14.136-4.642-3.324-10.758-5.49-18.474-6.372.212-.845.327-1.727.328-2.626a10.073 10.073 0 0 0-1.652-5.559 1.3 1.3 0 1 0-2.173 1.427h-.001a7.457 7.457 0 0 1 1.226 4.132 8.276 8.276 0 0 1-.632 3.126l-.001.004c-.099.24-.201.48-.321.707-.598 1.138-1.44 2.06-2.359 2.616-.561.343-1.462.709-2.575 1.022-3.352.958-8.576 1.502-13.378 1.498-3.18.001-6.197-.236-8.355-.7-.61-.13-1.082-.349-1.474-.633-.584-.425-1.01-1.015-1.31-1.79-.299-.771-.45-1.72-.45-2.746-.003-1.749.44-3.712 1.15-5.362a1.3 1.3 0 0 0-2.39-1.024c-.838 1.965-1.357 4.213-1.36 6.386.002 1.267.18 2.52.618 3.664-6.101 2.613-10.562 6.31-13.462 10.92-3.046 4.833-4.38 10.595-4.38 16.992 0 3.588.43 7.39 1.204 11.365-3.942.78-6.263 1.405-7.667 1.883-.953.328-1.49.582-1.875.833a2.188 2.188 0 0 0-.498.435c-.144.173-.281.421-.318.72-.058.46.15.878.485 1.151a19.43 19.43 0 0 0 5.628 5.631L48.51 99.58c-.135.315-.14.666-.016.985.105.293.52.946 1.54 1.477.927.488 2.341.919 4.59 1.106.34 1.423 1.245 3.956 3.633 6.644 3.535 3.987 10.254 8.186 22.765 9.671 2.357.281 5.124.479 7.409.587.017.001.032-.008.05-.008a23.336 23.336 0 0 0 1.052 6.085c.872 2.79 2.168 5.248 3.715 7.211.03.039.074.057.107.091l.04.184c-.249.49-.662 1.343-1.081 2.385-.65 1.637-1.335 3.694-1.346 5.671Zm19.066-10.877c-.35.699-.768 1.271-1.231 1.704a4.053 4.053 0 0 1-.927.641c.123-.299.241-.601.342-.917.479-1.498.719-3.181.719-4.973 0-2.165-.351-4.49-1.083-6.837-1.074-3.434-2.785-6.365-4.825-8.489-1.022-1.061-2.129-1.922-3.298-2.529-.042-.022-.085-.037-.127-.058l.155-.059a3.793 3.793 0 0 1 1.12-.167c.763 0 1.596.216 2.466.667 1.304.673 2.667 1.879 3.869 3.507 1.204 1.627 2.25 3.668 2.971 5.978.656 2.104.965 4.179.964 6.061.002 2.166-.412 4.074-1.115 5.471Zm-20.805-16.663c-.344 1.024-.564 2.145-.68 3.323-2.23-.105-4.958-.301-7.22-.571-12.071-1.446-18.08-5.39-21.13-8.815-1.525-1.719-2.32-3.326-2.738-4.489a9.29 9.29 0 0 1-.383-1.361 5.248 5.248 0 0 1-.056-.344l-.008-.072v-.001a1.3 1.3 0 0 0-1.383-1.212c-.037.002-.067.023-.104.028-.015-.001-.026-.01-.041-.01v-.001c-2.416-.128-3.661-.556-4.222-.853l1.89-4.41a1.3 1.3 0 0 0-.61-1.674c-.102-.045-2.88-1.526-5.098-4.511 1.525-.556 4.997-1.504 12.375-2.771a1.3 1.3 0 0 0-.441-2.562c-.801.138-1.551.271-2.265.402-.749-3.846-1.158-7.49-1.157-10.88.001-6.046 1.253-11.28 3.979-15.606 2.657-4.211 6.743-7.614 12.65-10.076.252.268.52.525.826.747a6.43 6.43 0 0 0 2.459 1.072c2.447.52 5.587.754 8.898.756 3.332 0 6.821-.243 9.881-.713 1.531-.236 2.954-.528 4.207-.883 1.254-.359 2.335-.77 3.215-1.302 1.365-.831 2.473-2.082 3.264-3.55 5.053.517 9.323 1.59 12.871 3.14 5.638 2.468 9.494 6.09 12.011 10.696 2.513 4.606 3.666 10.245 3.666 16.687 0 1.45-.068 2.945-.182 4.471a87.792 87.792 0 0 0-2.814-.153 1.3 1.3 0 0 0-.097 2.598c7.217.266 10.865 1.213 12.566 1.982.42.189.719.363.93.508-.89.986-2.11 1.987-3.19 2.758a33.467 33.467 0 0 1-2.286 1.502l-.141.083-.042.025a1.297 1.297 0 0 0-.322 2l3.081 3.414a3.66 3.66 0 0 1-.474.438c-.657.508-1.826 1.129-3.894 1.494-.447.079-.779.388-.947.776-.116.21-.196.44-.18.696l.005.203c.002.626-.152 1.781-.731 3.198-.87 2.13-2.678 4.889-6.379 7.618-3.654 2.692-9.172 5.347-17.434 7.244-.971-2.014-2.168-3.771-3.514-5.172-1.021-1.061-2.128-1.922-3.298-2.529-1.168-.606-2.408-.959-3.663-.959a6.37 6.37 0 0 0-1.914.29l-.076.026-4.51 1.724a1.257 1.257 0 0 0-.35.222 6.566 6.566 0 0 0-2.412 1.449c-1.082 1.017-1.866 2.367-2.388 3.91Zm3.733 13.283c-.018.102-.024.206-.038.308a21.636 21.636 0 0 1-.91-2.368c-.657-2.104-.965-4.179-.965-6.062-.002-2.166.412-4.073 1.115-5.47.35-.7.769-1.271 1.232-1.704a3.935 3.935 0 0 1 1.533-.912c.37-.115.746-.171 1.138-.171.763 0 1.597.216 2.467.667 1.303.673 2.666 1.879 3.868 3.507 1.204 1.627 2.25 3.668 2.97 5.977.657 2.105.966 4.18.965 6.063.001 1.558-.211 2.984-.595 4.181a8.075 8.075 0 0 1-.941 1.999 116.358 116.358 0 0 0-2.597-3.452c-1.015-1.292-2.089-2.587-3.069-3.598-.492-.506-.957-.942-1.42-1.288a4.486 4.486 0 0 0-.726-.453 2.226 2.226 0 0 0-.974-.242 2.825 2.825 0 0 0-1.678.523 3.008 3.008 0 0 0-.82.912c-.297.505-.455 1.041-.555 1.583Z"/><path fill="#191C22" d="M79.004 67.815c-.32-.425-.691-.804-1.15-1.094a2.988 2.988 0 0 0-1.6-.478c-.272 0-.547.04-.812.115h-.002a4.613 4.613 0 0 0-2.07 1.246c-.833.863-1.343 1.969-1.667 3.174-.322 1.208-.456 2.535-.457 3.908.004 2.92.606 6.044 1.58 8.551.492 1.255 1.07 2.356 1.788 3.222.362.433.761.81 1.235 1.1.47.288 1.034.484 1.638.483.161 0 .323-.014.482-.041h.003c.415-.071.804-.239 1.132-.463.576-.397.975-.937 1.288-1.528.465-.893.753-1.945.948-3.117.192-1.17.28-2.459.28-3.79-.002-2.801-.386-5.78-1.136-8.178-.38-1.2-.843-2.258-1.48-3.11Zm-3.888 6.702c-.111 0-.234-.01-.365-.038h-.002a1.727 1.727 0 0 1-1.013-.634 1.727 1.727 0 0 1-.343-1.05c.002-.332.076-.597.17-.837a3.456 3.456 0 0 1 1.475-1.678c.32-.177.71-.322 1.18-.324.111 0 .224.009.336.027.313.048.712.2 1.013.538.304.336.411.776.405 1.088a2.15 2.15 0 0 1-.214.903 3.46 3.46 0 0 1-.392.642 4.124 4.124 0 0 1-1.081.998c-.297.174-.632.353-1.169.365Zm3.9 3.115-.184.198a1.3 1.3 0 0 1-1.907-1.767l.184-.198a1.3 1.3 0 0 1 1.907 1.767ZM113.043 63.6l-.194-.007a2.945 2.945 0 0 0-2.057.841c-.778.763-1.162 1.755-1.428 2.865-.258 1.116-.365 2.382-.366 3.729.003 2.948.521 6.277 1.416 8.984.452 1.356.99 2.554 1.683 3.506.349.475.74.894 1.22 1.22.476.326 1.069.554 1.709.552l.119-.002a2.906 2.906 0 0 0 1.265-.354c.661-.364 1.133-.915 1.505-1.53.554-.929.91-2.053 1.157-3.313.242-1.259.362-2.652.362-4.088-.004-2.706-.416-5.55-1.351-7.883-.473-1.166-1.077-2.213-1.899-3.038-.813-.821-1.902-1.411-3.141-1.482Zm-.306 7.471c-.112 0-.235-.01-.366-.039h-.001a1.728 1.728 0 0 1-1.013-.632 1.734 1.734 0 0 1-.344-1.05c.002-.332.077-.598.17-.838a3.453 3.453 0 0 1 1.476-1.678c.319-.177.71-.321 1.18-.323a2.1 2.1 0 0 1 .334.026c.313.048.712.2 1.013.538.305.336.413.776.407 1.089a2.163 2.163 0 0 1-.214.902c-.112.24-.244.447-.392.642a4.133 4.133 0 0 1-1.082.998c-.297.174-.632.353-1.168.365Zm3.896 3.118-.183.197a1.3 1.3 0 1 1-1.903-1.771l.183-.197a1.3 1.3 0 1 1 1.903 1.77ZM113.043 63.6h.004-.004ZM94.195 100.798c.233.375.495.719.841 1.015.342.292.804.549 1.364.596l.024.002.13.004a2.02 2.02 0 0 0 1.053-.306c.5-.311.824-.724 1.113-1.202.425-.721.75-1.63.988-2.749.236-1.117.376-2.441.376-3.958 0-1.376-.116-2.911-.386-4.587a2.28 2.28 0 0 0-.43-1.015c-.332-.44-.78-.7-1.2-.844a3.885 3.885 0 0 0-1.263-.194 6.255 6.255 0 0 0-2.649.626c-.406.2-.787.44-1.126.77-.332.325-.652.768-.749 1.38v.001a11.04 11.04 0 0 0-.105 1.614c.003 1.91.338 4.235.917 6.21.294.99.641 1.887 1.102 2.637Zm.647-9.976c.077-.08.346-.278.704-.408a3.67 3.67 0 0 1 1.26-.254c.15-.002.27.017.349.035.23 1.477.33 2.82.33 4.005.001 2.063-.3 3.662-.666 4.65-.109.3-.224.535-.326.71-.183-.264-.403-.691-.603-1.222-.667-1.74-1.122-4.482-1.114-6.387 0-.436.025-.817.066-1.129Zm-.355-.157.004.002-.924-.138.92.136ZM73.125 62.108c.45-.604.9-.965 1.32-1.186a2.592 2.592 0 0 1 2.277-.078c.314.138.568.331.71.492a1.3 1.3 0 0 0 1.935-1.737 4.695 4.695 0 0 0-1.593-1.132 5.201 5.201 0 0 0-4.531.15c-.8.416-1.553 1.062-2.205 1.94a1.3 1.3 0 0 0 2.087 1.551ZM128.887 93.008l1.514-1.957a1.3 1.3 0 1 0-2.056-1.592l-1.514 1.957a1.3 1.3 0 1 0 2.056 1.592ZM133.769 94.263l1.243-1.687a1.3 1.3 0 0 0-2.094-1.542l-1.243 1.687a1.3 1.3 0 0 0 2.094 1.542ZM61.926 96.78l-1.586-.965a1.3 1.3 0 0 0-1.351 2.22l1.586.966a1.3 1.3 0 0 0 1.351-2.222ZM65.611 93.975l-1.757-1.165a1.3 1.3 0 0 0-1.436 2.166l1.756 1.165a1.3 1.3 0 1 0 1.437-2.166ZM109.351 59.106a1.3 1.3 0 0 0 1.609-.89c.183-.622.44-.932.703-1.13.265-.194.583-.29.96-.292.37-.001.783.107 1.125.292.345.183.605.438.729.658a1.3 1.3 0 1 0 2.253-1.298c-.422-.725-1.045-1.27-1.752-1.651a5.021 5.021 0 0 0-2.355-.6 4.192 4.192 0 0 0-2.5.796c-.766.559-1.356 1.43-1.662 2.507a1.3 1.3 0 0 0 .89 1.608Z"/></svg>