<svg xmlns="http://www.w3.org/2000/svg" width="200" height="200" fill="none"><path fill="#FFE632" d="M65.587 126.286a6.774 6.774 0 0 0-1.467-1.221 3.484 3.484 0 0 0-1.769-.546 2.297 2.297 0 0 0-1.463.508 1.298 1.298 0 0 0-.188 1.829 1.3 1.3 0 0 0 1.829.188l-.226-.277.113.339.113-.062-.226-.277.113.338-.065-.194v.208l.065-.014-.065-.194v.208l.12.027c.465.205.878.514 1.206.904a1.302 1.302 0 0 0 1.91-1.764ZM39.1 120.134v-10.626a1.297 1.297 0 0 0-1.265-1.299l-.61-.017V84.118a1.3 1.3 0 0 0-2.6 0v24.004l-.662-.018a1.298 1.298 0 0 0-1.335 1.299v11.259c0 .521.013 1.015.013 1.449.003.287-.008.544-.024.761a8.103 8.103 0 0 0-.585-.662 3.429 3.429 0 0 0-.951-.666 3.226 3.226 0 0 0-1.361-.289 4.547 4.547 0 0 0-1.826.437 7.56 7.56 0 0 0-2.554 1.927 7.047 7.047 0 0 0-1.634 3.329 14.235 14.235 0 0 0-.212 2.471 10.46 10.46 0 0 0 .156 1.89c.1.645.341 1.26.708 1.8.06.083.133.153.197.232.226.372.541.681.917.9.404.309.844.567 1.31.77.962.41 1.998.618 3.044.61a8.97 8.97 0 0 0 5.4-1.835 9.267 9.267 0 0 0 3.426-5.602c.344-1.8.506-3.631.481-5.463 0-1.049-.034-1.955-.033-2.587Zm-2.994 7.523a6.648 6.648 0 0 1-2.457 4.061 6.38 6.38 0 0 1-3.823 1.303 5.584 5.584 0 0 1-.62-.059c.126-.308.19-.637.193-.97v-2.946a2.617 2.617 0 0 0-2.615-2.615c-.068 0-.131.015-.197.02a4.935 4.935 0 0 1 1.253-1.662 4.707 4.707 0 0 1 1.118-.724c.238-.119.497-.19.762-.21a.547.547 0 0 1 .348.094c.277.24.523.513.734.813.216.266.47.5.754.694.391.259.85.398 1.32.398a2.156 2.156 0 0 0 1.403-.494c.26-.224.468-.504.607-.818.165-.389.268-.801.303-1.221.039-.402.056-.806.052-1.21 0-.483-.014-.973-.014-1.449v-9.923l1.273.034v9.361c0 .714.033 1.591.033 2.587a24.578 24.578 0 0 1-.427 4.936ZM177.201 160.306a7.48 7.48 0 0 0-4.188-5.255 4.528 4.528 0 0 0-1.826-.438 3.178 3.178 0 0 0-1.791.531 4.846 4.846 0 0 0-1.104 1.087 9.845 9.845 0 0 1-.026-.76c0-.434.014-.93.014-1.452v-11.257a1.288 1.288 0 0 0-.394-.931 1.286 1.286 0 0 0-.942-.368l-.971.026v-14.996a1.298 1.298 0 0 0-2.219-.919 1.299 1.299 0 0 0-.381.919v15.066l-.301.009a1.297 1.297 0 0 0-1.264 1.299v10.626c0 .632-.034 1.537-.034 2.587a27.127 27.127 0 0 0 .481 5.462 9.273 9.273 0 0 0 3.426 5.603 8.968 8.968 0 0 0 5.4 1.835 7.632 7.632 0 0 0 3.044-.61 6.276 6.276 0 0 0 1.311-.771c.375-.219.689-.527.915-.898.065-.079.137-.15.198-.233a4.4 4.4 0 0 0 .708-1.8c.109-.624.161-1.257.156-1.89.001-.829-.07-1.656-.212-2.472Zm-9.943 4.771a6.649 6.649 0 0 1-2.457-4.061 24.62 24.62 0 0 1-.427-4.936c0-.996.033-1.873.034-2.587v-9.361l1.272-.034v9.921c0 .477-.013.969-.014 1.452a6.947 6.947 0 0 0 .246 2.152c.133.424.381.803.716 1.096.395.325.892.5 1.403.493a2.36 2.36 0 0 0 .938-.191 2.982 2.982 0 0 0 1.04-.791c.342-.395.558-.701.726-.842l.197-.132a.634.634 0 0 1 .255-.043c.265.02.524.092.762.21a4.964 4.964 0 0 1 1.654 1.258c.294.341.538.721.724 1.13-.068-.006-.134-.021-.204-.021a2.615 2.615 0 0 0-2.615 2.615v2.946c.002.332.067.661.192.969a5.358 5.358 0 0 1-.619.06 6.378 6.378 0 0 1-3.823-1.303Z"/><path fill="#BEBEC9" d="m46.85 137.237.003-.003v-.002l-.003.005ZM50.867 141.335h.002l.002-.001-.004.001ZM121.678 121.418h.001l.002.001-.003-.001ZM74.92 121.419l.006-.002v-.001l-.006.003ZM143.674 130.016l-.001-.003-.001-.003.002.006ZM162.179 110.144l-.002-.004-.001-.002.003.006ZM181.715 98.778v.002l.001.002-.001-.004ZM157.912 95.748l.001-.001v-.001l-.001.002Z"/><path fill="#BEBEC9" d="M181.714 98.78a2.634 2.634 0 0 0-.634-1.125 3.636 3.636 0 0 0-1.282-.838c-.402-.164-.764-.266-1.007-.348l.009.003a1.468 1.468 0 0 0-.473-.078 1.686 1.686 0 0 0-.806.215 3.611 3.611 0 0 0-.785.61c-.046.045-.093.103-.139.15.116-.424.241-.895.391-1.466l.001-.004c.038-.147.057-.298.057-.45a1.846 1.846 0 0 0-.234-.892 2.577 2.577 0 0 0-.832-.875 5.167 5.167 0 0 0-1.435-.653 5.568 5.568 0 0 0-1.53-.238 3.048 3.048 0 0 0-.825.104c-.266.072-.515.2-.729.373-.18-.068-.502-.188-.899-.314a11.73 11.73 0 0 0-.956-.265 4.906 4.906 0 0 0-1.059-.14 2.347 2.347 0 0 0-.541.06 1.704 1.704 0 0 0-.707.345 5.991 5.991 0 0 0-.529.468 7.095 7.095 0 0 0-1.186 1.752 29.281 29.281 0 0 0-1.338 3.151c-.031-.223-.066-.48-.105-.746a42.259 42.259 0 0 0-.176-1.129c-.031-.174-.06-.335-.091-.481a3.818 3.818 0 0 0-.112-.435 1.497 1.497 0 0 0-.382-.595 1.817 1.817 0 0 0-.636-.388 3.399 3.399 0 0 0-.77-.176 6.427 6.427 0 0 0-.779-.045 7.01 7.01 0 0 0-1.624.18 3.342 3.342 0 0 0-.808.302c-.16.086-.308.193-.439.318a1.663 1.663 0 0 0-.411.618 2.793 2.793 0 0 0-.149.74 8.499 8.499 0 0 0-.029.76c.01.951.079 1.902.207 2.846.099.788.254 1.569.464 2.336a14.705 14.705 0 0 0-5.324 4.21 70.425 70.425 0 0 0-3.466 4.577 36.523 36.523 0 0 0-3.17 5.28l-.001.003c-.229.511-.604 1.283-.963 2.206a11.096 11.096 0 0 0-1.166-.064 12.55 12.55 0 0 0-2.628.29l.003-.001c-.477.102-1.477.274-2.718.485-1.869.318-4.316.731-6.631 1.183a45.668 45.668 0 0 0-5.922 1.451h-.002c-.991.366-1.926.866-2.779 1.488a7.467 7.467 0 0 0-.745-1.126 3.643 3.643 0 0 0-1.215-.994 12.211 12.211 0 0 0-2.534-.784 87.08 87.08 0 0 0-11.984-1.367v-2.652a83.523 83.523 0 0 0 18.958-3.407c11.613-3.671 19.329-9.974 24.028-18.084a42.275 42.275 0 0 0 3.822-8.894c.194.098.41.145.627.135a16.69 16.69 0 0 0 2.331-.36 9.872 9.872 0 0 0 4.134-1.837 6.468 6.468 0 0 0 1.348-1.734 19.28 19.28 0 0 0 1.64-4.042 33.42 33.42 0 0 0 1.104-5.507c.167-1.419.253-2.846.256-4.275a24.783 24.783 0 0 0-.325-4.205 8.813 8.813 0 0 0-1.011-3.042 6.956 6.956 0 0 0-2.113-2.086l-.042-.024a8.332 8.332 0 0 0 1.652-2.861c.62-1.86 1.005-3.79 1.145-5.745.935-9.897 2.461-27.747 2.793-32.805.015-.232.023-.457.023-.676a7.129 7.129 0 0 0-.351-2.32 4.64 4.64 0 0 0-1.751-2.364 5.3 5.3 0 0 0-2.451-.87 6.135 6.135 0 0 0-.678-.037 5.102 5.102 0 0 0-3.413 1.227 5.892 5.892 0 0 0-1.833 3.99c-.409 4.228-1.752 20.545-2.621 31.181-.16-.61-.32-1.22-.499-1.82-2.811-9.428-8.229-17.577-17.346-23.268-9.115-5.696-21.829-8.946-39.249-8.947-11.616 0-21.131 1.445-28.892 4.096-11.64 3.965-19.322 10.708-23.98 19.161a46.833 46.833 0 0 0-4.374 11.369c-.867-10.612-2.254-27.464-2.67-31.772a5.892 5.892 0 0 0-1.832-3.99 5.103 5.103 0 0 0-3.414-1.227c-.227 0-.454.012-.68.037A5.01 5.01 0 0 0 28.33 13.1a4.8 4.8 0 0 0-1.033 1.747 7.13 7.13 0 0 0-.35 2.319c0 .219.007.445.022.677.332 5.056 1.858 22.907 2.793 32.804a20.42 20.42 0 0 0 1.699 7.123 7.113 7.113 0 0 0 1.38 1.952 6.43 6.43 0 0 0-1.5 1.64 8.813 8.813 0 0 0-1.012 3.043 24.75 24.75 0 0 0-.324 4.205c.003 1.428.088 2.856.256 4.275.264 2.4.803 4.76 1.606 7.038.309.867.69 1.707 1.137 2.512.348.65.804 1.236 1.349 1.733a9.878 9.878 0 0 0 4.135 1.837c.743.169 1.497.287 2.257.354l.034.12a37.706 37.706 0 0 0 17.434 22.211c7.603 4.443 17.687 7.23 30.867 8.038v2.573c-3.013.187-5.824.437-8.164.75-1.33.179-2.51.376-3.512.597a12.01 12.01 0 0 0-2.478.769 4.448 4.448 0 0 0-1.78 1.784 12.88 12.88 0 0 0-.827 1.645 8.846 8.846 0 0 0-2.024-.237 17.103 17.103 0 0 0-6.662 1.675l-.014.007c-.508.233-1.563.74-2.927 1.463-1.954 1.033-4.555 2.491-7.093 4.14a37.355 37.355 0 0 0-6.747 5.34 13.439 13.439 0 0 0-3.205 5.301c-1.274.353-2.51.832-3.689 1.43a20.184 20.184 0 0 0-4.583 3.199 14.181 14.181 0 0 0-3.284 4.486c-.273.273-.537.55-.784.828-.395.441-.759.908-1.09 1.4a5.11 5.11 0 0 0-.377.667 2.13 2.13 0 0 0-.22.896c-.001.103.01.206.03.308.057.274.18.531.358.748.216.256.476.471.768.633a5.52 5.52 0 0 0 1.277.526c.46.134.935.205 1.414.212.43.011.858-.082 1.245-.272.846-.43 1.636-.964 2.35-1.591a1.298 1.298 0 0 0-1.772-1.901v-.001a9.099 9.099 0 0 1-1.726 1.158l-.097.007a3.162 3.162 0 0 1-.923-.184l.033-.047c.432-.578.908-1.121 1.424-1.624.46-.464.964-.882 1.505-1.246l.063-.005a3.72 3.72 0 0 1 2.168.983 10.848 10.848 0 0 1 3.03 4.737 52.17 52.17 0 0 1 1.034 3.101 1.299 1.299 0 0 0 1.087.923c-.07.112-.145.22-.226.324a1.3 1.3 0 1 0 1.997 1.665 6.39 6.39 0 0 0 1.21-5.939 6.4 6.4 0 0 0-4.288-4.283 10.912 10.912 0 0 0-2.19-2.534 6.877 6.877 0 0 0-2.845-1.458c.199-.21.395-.421.608-.621a17.63 17.63 0 0 1 3.988-2.78 16.782 16.782 0 0 1 7.422-1.853 9.904 9.904 0 0 1 3.723.651 5.243 5.243 0 0 1 2.436 1.891c.49.755.738 1.642.712 2.542a12.263 12.263 0 0 1-1.674 5.468 27.638 27.638 0 0 1-3.477 4.986 10.736 10.736 0 0 1-3.238 2.486 1.308 1.308 0 0 0-.65.754 1.298 1.298 0 0 0 1.82 1.568 13.345 13.345 0 0 0 4.021-3.092l.002-.003a30.202 30.202 0 0 0 3.815-5.473c.204-.384.395-.775.578-1.17.849-.181 1.675-.457 2.464-.822a29.037 29.037 0 0 0 5.76-3.937c1-.842 1.987-1.741 2.94-2.656a242.9 242.9 0 0 0-1.373 25.18 135.02 135.02 0 0 0 .868 16.395 1.299 1.299 0 0 0 2.58-.326 120.522 120.522 0 0 1-.81-12.454 63.567 63.567 0 0 0 12.048 2.239c5.284.514 10.59.761 15.9.74 6.848.017 13.691-.348 20.499-1.092 2.514-.293 4.721-.637 6.568-1.02.095-.01.187-.014.282-.025.101-.019.2-.052.294-.096.086-.019.186-.037.27-.056.879-.193 1.745-.44 2.594-.738l.035-.015a120.375 120.375 0 0 1-.81 12.517 1.307 1.307 0 0 0 .262.96c.105.135.235.248.384.332a1.28 1.28 0 0 0 .987.125 1.303 1.303 0 0 0 .947-1.091c.62-5.428.909-10.888.866-16.352a238.993 238.993 0 0 0-2.085-31.002c.139-.003.276-.004.416-.01h.005c1.488-.071 4.013-.243 7.067-.597l.004-.001a92.264 92.264 0 0 0 13.049-2.447 7.688 7.688 0 0 0 4.334-3.013 9.524 9.524 0 0 0 1.502-3.522 12.525 12.525 0 0 0 3.986-.791c3.838-1.426 10.048-5.192 15.418-13.247l.001-.003a7.737 7.737 0 0 0 1.301-4.335 8.837 8.837 0 0 0-.091-1.205 5.686 5.686 0 0 0 1.308-.34 4.636 4.636 0 0 0 2.503-2.313 6.959 6.959 0 0 0 .623-3.055 13.06 13.06 0 0 0-.265-2.493c.257-.393.641-.994 1.034-1.657.337-.57.677-1.18.949-1.756.134-.278.251-.563.351-.854.11-.304.171-.624.179-.947.001-.16-.02-.32-.062-.474Zm-54.721 34.538c-.202-1.028-.4-2.06-.573-2.974l-.116-.61c.147.181.275.377.383.584.302.603.459 1.269.458 1.944a4.058 4.058 0 0 1-.152 1.056Zm35.53-68.464c.202 1.242.297 2.498.286 3.756a34.486 34.486 0 0 1-.239 3.974 28.968 28.968 0 0 1-1.466 6.446c-.258.73-.577 1.437-.952 2.114a4.139 4.139 0 0 1-.772 1.041 7.51 7.51 0 0 1-3.026 1.284 15.15 15.15 0 0 1-1.691.28 71.353 71.353 0 0 0 1.903-17.283 90.284 90.284 0 0 0-.246-6.668c.817.176 1.618.42 2.396.726a9.918 9.918 0 0 1 1.863.958c.51.322.947.747 1.283 1.248.34.665.564 1.384.661 2.124Zm-2.881-47.812c.012-.86.358-1.68.964-2.29a2.507 2.507 0 0 1 1.694-.578c.131 0 .262.008.393.022a2.423 2.423 0 0 1 1.558.683c.213.233.373.51.469.81.151.478.222.976.211 1.477 0 .159-.006.328-.017.507-.327 4.982-1.856 22.866-2.787 32.73a17.068 17.068 0 0 1-1.428 6.088c-.214.436-.5.834-.846 1.175a2.65 2.65 0 0 1-.449.341 18.583 18.583 0 0 0-.977-.34 16.314 16.314 0 0 0-1.799-.459 1.25 1.25 0 0 0-.339.008c.064-.789.208-2.574.406-5 .809-9.93 2.487-30.414 2.947-35.174ZM32.35 50.402c-.931-9.864-2.46-27.747-2.787-32.73a7.55 7.55 0 0 1-.017-.506c-.011-.5.06-1 .21-1.476.13-.432.401-.808.77-1.069.377-.243.81-.389 1.258-.425.13-.014.262-.021.393-.021a2.506 2.506 0 0 1 1.694.578c.606.609.952 1.43.964 2.289.307 3.169 1.156 13.34 1.926 22.699A15450.582 15450.582 0 0 1 38.2 57.335c-.787.186-1.561.426-2.316.716-.197.076-.406.178-.61.266a3.543 3.543 0 0 1-1.487-1.71 18.02 18.02 0 0 1-1.436-6.205Zm6.505 33.019a7.2 7.2 0 0 1-2.82-1.236 4.117 4.117 0 0 1-.774-1.041 16.823 16.823 0 0 1-1.403-3.487c-.48-1.66-.82-3.357-1.014-5.074a34.558 34.558 0 0 1-.24-3.973 22.196 22.196 0 0 1 .286-3.756c.098-.74.322-1.46.663-2.124.349-.518.805-.956 1.336-1.285.894-.56 1.86-.996 2.871-1.296.21-.065.404-.12.582-.168a91.006 91.006 0 0 0-.227 6.485 71.44 71.44 0 0 0 1.884 17.182 14.41 14.41 0 0 1-1.144-.227Zm7.926 10.397c-4.38-7.537-6.068-16.875-6.066-27.352a68.504 68.504 0 0 1 2.522-19.568c2.69-8.958 7.684-16.453 16.233-21.809 8.553-5.35 20.762-8.551 37.87-8.55 11.401-.001 20.635 1.421 28.052 3.955 11.125 3.812 18.17 10.06 22.546 17.959 4.369 7.9 6.029 17.535 6.028 28.013a64.919 64.919 0 0 1-2.547 19.24 35.08 35.08 0 0 1-16.266 20.74c-8.559 5.009-20.769 7.935-37.814 7.933-11.36.001-20.58-1.298-27.994-3.65-11.124-3.539-18.177-9.377-22.564-16.91ZM97.34 116.98c2.51 0 4.904-.074 7.222-.196v4.099a1.278 1.278 0 0 0 1.018 1.243c-.436.208-.9.407-1.393.589a18.188 18.188 0 0 1-6.262 1.137 15.461 15.461 0 0 1-7.67-1.981c.09-.01.176-.025.266-.035.062-.014.122-.033.18-.057.084-.018.167-.044.246-.078.073-.039.141-.085.204-.138a.89.89 0 0 0 .327-.363 1.26 1.26 0 0 0 .114-.215l.014-.028a1.29 1.29 0 0 0 .038-.228c.017-.061.03-.123.037-.185v-3.681c1.832.074 3.712.117 5.66.117Zm-28.453 17.388a4.339 4.339 0 0 1 .76-2.447c.019-.026.042-.047.06-.072a492.299 492.299 0 0 1-.648 3.587 3.604 3.604 0 0 1-.172-1.068Zm-5.704 13.919a26.611 26.611 0 0 1-5.215 3.585c-.075.036-.165.061-.243.095.189-.775.291-1.568.306-2.365a5.72 5.72 0 0 0 .378-5.041l-.001-.003a5.8 5.8 0 0 0-7.537-3.222c-.358.146-.7.33-1.02.548a15.202 15.202 0 0 0-1.286-.056c-.632.003-1.264.042-1.892.115a12.04 12.04 0 0 1 2.076-2.929l.005-.005a35.028 35.028 0 0 1 6.262-4.934c2.445-1.589 4.99-3.016 6.893-4.022a58.822 58.822 0 0 1 2.786-1.394 14.662 14.662 0 0 1 5.601-1.449c.38-.001.76.032 1.136.098-.067.214-.134.431-.2.655-.01.002-.02.001-.031.003a6.003 6.003 0 0 0-3.684 2.465 6.925 6.925 0 0 0-1.23 3.937 5.982 5.982 0 0 0 .724 2.914 4.918 4.918 0 0 0 1.884 1.885 182.104 182.104 0 0 0-.606 4.277 65.765 65.765 0 0 1-5.106 4.843Zm18.194 27.782-.164-.019c2.348-.814 4.62-1.832 7.097-2.685a29.294 29.294 0 0 1 9.877-1.753 32.74 32.74 0 0 1 12.703 2.793c1.361.534 2.694 1.079 4.056 1.556-5.269.519-11.573.835-17.936.834-5.22.021-10.437-.221-15.633-.726Zm45.249-2.143c-.951.324-1.922.584-2.907.779-.485.046-.961.073-1.423.073a17.585 17.585 0 0 1-5.195-.844c-2.546-.771-5.13-1.982-8.154-3.027a32.066 32.066 0 0 0-10.76-1.895 35.132 35.132 0 0 0-13.61 2.974c-1.841.727-3.541 1.435-5.207 1.95-1.628.536-3.328.82-5.041.842-.604 0-1.207-.039-1.806-.118a34.735 34.735 0 0 1-3.483-.98l-.01-.001c-.002-.293-.005-.583-.005-.878.022-9.562.618-19.114 1.786-28.604a97.644 97.644 0 0 1 3.245-16.584c.083-.249.165-.489.248-.718.276-.81.631-1.591 1.06-2.333.158-.313.388-.584.67-.792l.008-.004a9.768 9.768 0 0 1 1.922-.578 66.91 66.91 0 0 1 8.125-1.066 18.077 18.077 0 0 0 11.837 4.33 20.79 20.79 0 0 0 7.165-1.299 15.731 15.731 0 0 0 4.962-2.835c.065-.069.122-.146.169-.229 1.817.149 3.507.322 4.985.518 1.311.174 2.46.366 3.383.568a9.963 9.963 0 0 1 1.971.591l.003.002c.129.08.241.183.33.305a8.725 8.725 0 0 1 1.189 2.26 49.616 49.616 0 0 1 2.146 7.999c1.996 10.022 3.361 25.159 3.359 38.512 0 .216-.003.428-.004.643a5.281 5.281 0 0 1-.958.439Zm21.335-37.647a89.68 89.68 0 0 1-12.672 2.373c-2.984.346-5.459.514-6.89.583h.005c-.216.009-.422.014-.619.014-.023 0-.04-.003-.062-.003-.107-.695-.216-1.375-.328-2.042a5.942 5.942 0 0 0 1.702-2.072 6.524 6.524 0 0 0 .649-2.869 6.753 6.753 0 0 0-1.311-4.037 5.339 5.339 0 0 0-1.62-1.438 4.868 4.868 0 0 0-2.022-.613l-.072-.201a8.794 8.794 0 0 1 2.583-1.478 29.63 29.63 0 0 1 3.35-.893c2.079-.458 4.565-.904 6.726-1.276 2.17-.375 3.985-.669 4.851-.852h.003a9.923 9.923 0 0 1 2.083-.232c.14 0 .267.016.402.022a11.102 11.102 0 0 0-.218 2.128c0 .28.026.568.051.856-.374.453-.68.959-.907 1.501l-.008.019a5.825 5.825 0 0 0 .906 5.732l.013.016a5.843 5.843 0 0 0 4.509 2.139 5.76 5.76 0 0 0 2.15-.416c.093-.037.178-.085.268-.127a6.185 6.185 0 0 1-.626 1.157 5.075 5.075 0 0 1-2.896 2.009Zm23.757-19.505c-5.05 7.585-10.838 11.018-14.159 12.251a9.895 9.895 0 0 1-3.462.644 8.314 8.314 0 0 1-3.804-.888c-.025-.012-.044-.027-.068-.04l-2.313-2.192a6.49 6.49 0 0 1-.811-3.156 9.907 9.907 0 0 1 .623-3.266c.354-1.006.783-1.872 1.094-2.562l-.001.003a34.162 34.162 0 0 1 2.934-4.864 67.79 67.79 0 0 1 3.329-4.398 12.072 12.072 0 0 1 4.404-3.51c.155.236.322.463.501.681.493.6 1.062 1.174 1.798 1.944a5.71 5.71 0 0 0 .394 2.72 5.78 5.78 0 0 0 9.237 2.156c.312.096.654.181 1.012.254.099.435.152.879.16 1.325a5.124 5.124 0 0 1-.868 2.898Zm5.29-13.605-.15.227-.052.078a1.293 1.293 0 0 0-.192 1.021c.196.809.302 1.637.315 2.468a4.42 4.42 0 0 1-.36 1.915 2.01 2.01 0 0 1-1.128 1.038 3.5 3.5 0 0 1-1.304.227 7.566 7.566 0 0 1-2.6-.55 9.923 9.923 0 0 1-.974-.448l-.047-.025-.008-.005h-.001a1.299 1.299 0 0 0-.311-.128c-.023-.006-.049-.004-.073-.009a1.28 1.28 0 0 0-.261-.035h-.014a6.808 6.808 0 0 1-1.886-.349 8.742 8.742 0 0 1-3.715-2.363l-.028-.029-.129-.129c-.987-1.044-1.657-1.706-2.094-2.243a5.317 5.317 0 0 1-.971-1.738l-.003-.006a12.092 12.092 0 0 1-.502-2.334 20.363 20.363 0 0 1-.184-2.504c0-.089.002-.167.004-.242.031-.006.061-.013.094-.018.252-.038.507-.057.762-.057.078 0 .144.005.215.009l.008.043c.079.468.166 1.07.232 1.55.066.479.111.834.111.835a1.314 1.314 0 0 0 .624.953l.162.097c.37.224 1.321.807 2.261 1.44.469.316.937.645 1.318.94.273.198.527.421.761.664a1.3 1.3 0 1 0 1.987-1.677 8.624 8.624 0 0 0-1.357-1.196 30.78 30.78 0 0 0-1.059-.75 22.73 22.73 0 0 1 1.758-4.045c.117-.2.256-.385.414-.554.027-.028.054-.05.081-.074.088.012.2.031.321.06.367.088.73.195 1.086.321l.027.01-.015.035c-.717 1.653-1.493 3.725-1.497 3.735a1.298 1.298 0 0 0 .761 1.674 1.3 1.3 0 0 0 1.674-.761 85.9 85.9 0 0 1 1.35-3.389c.195-.457.386-.884.545-1.206.046-.094.088-.175.126-.248.399.028.79.125 1.156.286.039.018.064.035.098.052-.192.73-.343 1.29-.483 1.759a17.66 17.66 0 0 1-.556 1.597c-.036.09-.062.183-.077.278l-.55 3.46a1.298 1.298 0 0 0 1.68 1.443c.283-.091.526-.276.69-.524l.146-.221a63.88 63.88 0 0 1 2.037-2.873c.421-.554.843-1.072 1.164-1.412.046-.049.084-.085.125-.125.166.052.327.117.481.195.044.023.087.048.127.077a6.863 6.863 0 0 1-.36.822 28.521 28.521 0 0 1-1.249 2.164c-.203.322-.382.599-.511.794Z"/><path fill="#BEBEC9" d="M122.21 105.059c9.97-2.754 16.533-7.453 20.517-13.43 3.988-5.974 5.371-13.103 5.371-20.628a42.65 42.65 0 0 0-2.18-14.294 28.08 28.08 0 0 0-5.343-9.21c-3.637-4.156-8.806-7.52-15.866-9.824-7.064-2.306-16.027-3.574-27.37-3.575-10.083 0-18.285 1.003-24.945 2.845-9.982 2.753-16.529 7.454-20.492 13.433C47.936 56.35 46.58 63.479 46.58 71a42.304 42.304 0 0 0 2.205 14.297 28.197 28.197 0 0 0 5.376 9.208c3.652 4.156 8.83 7.519 15.884 9.823 7.058 2.306 16 3.574 27.294 3.575 10.039-.001 18.22-1.003 24.871-2.845ZM54.113 90.185c-3.603-5.39-4.933-11.962-4.933-19.184a40.082 40.082 0 0 1 2.03-13.423 25.491 25.491 0 0 1 4.849-8.368c3.29-3.755 8.003-6.87 14.717-9.066 6.71-2.193 15.413-3.447 26.563-3.446 9.911 0 17.888.99 24.251 2.75 9.552 2.652 15.435 6.98 19.02 12.366 3.581 5.39 4.888 11.962 4.888 19.187a39.752 39.752 0 0 1-2.053 13.42 25.585 25.585 0 0 1-4.881 8.368c-3.305 3.757-8.031 6.873-14.739 9.068-6.706 2.194-15.386 3.448-26.486 3.447-9.867 0-17.822-.99-24.177-2.751-9.54-2.65-15.444-6.981-19.05-12.368Z"/><path fill="#FFE632" d="M77.005 77.386a7.343 7.343 0 0 0 4.162 1.255c.133 0 .269-.004.406-.01a7.601 7.601 0 0 0 4.083-1.395 10.634 10.634 0 0 0 3.66-5.176 20.365 20.365 0 0 0 1.11-6.84 20.698 20.698 0 0 0-2.13-9.472 10.11 10.11 0 0 0-2.762-3.373 6.654 6.654 0 0 0-4.502-1.367 7.43 7.43 0 0 0-4.078 1.546 11.81 11.81 0 0 0-3.715 5.488 21.557 21.557 0 0 0-1.18 7.169 18.537 18.537 0 0 0 2.106 9.008 9.338 9.338 0 0 0 2.84 3.167Zm-.544-20.22a7.859 7.859 0 0 1 2.072-2.546 4.814 4.814 0 0 1 2.667-1.017 4.035 4.035 0 0 1 2.77.85 9.145 9.145 0 0 1 2.81 4.301 19.759 19.759 0 0 1 1.046 6.465 16.015 16.015 0 0 1-1.685 7.576 6.905 6.905 0 0 1-1.989 2.32 4.985 4.985 0 0 1-2.705.919 5.747 5.747 0 0 1-.28.007 4.724 4.724 0 0 1-2.71-.812 7.982 7.982 0 0 1-2.793-3.94 17.752 17.752 0 0 1-1.005-6.078 17.463 17.463 0 0 1 1.802-8.044ZM110.247 77.386a7.346 7.346 0 0 0 4.162 1.255 8.5 8.5 0 0 0 .407-.01 7.605 7.605 0 0 0 4.082-1.395 10.629 10.629 0 0 0 3.66-5.176 20.357 20.357 0 0 0 1.11-6.84 20.706 20.706 0 0 0-2.129-9.472 10.118 10.118 0 0 0-2.763-3.373 6.654 6.654 0 0 0-4.502-1.367 7.428 7.428 0 0 0-4.078 1.546 11.798 11.798 0 0 0-3.714 5.488 21.534 21.534 0 0 0-1.18 7.169 18.532 18.532 0 0 0 2.105 9.008 9.35 9.35 0 0 0 2.84 3.167Zm-2.345-12.175a17.46 17.46 0 0 1 1.801-8.044 7.869 7.869 0 0 1 2.072-2.547 4.814 4.814 0 0 1 2.667-1.017 4.036 4.036 0 0 1 2.771.85 9.143 9.143 0 0 1 2.808 4.301 19.74 19.74 0 0 1 1.047 6.465 16.005 16.005 0 0 1-1.685 7.576 6.898 6.898 0 0 1-1.989 2.32 4.983 4.983 0 0 1-2.705.919 5.717 5.717 0 0 1-.28.007 4.726 4.726 0 0 1-2.71-.812 7.986 7.986 0 0 1-2.793-3.94 17.737 17.737 0 0 1-1.004-6.078ZM105.309 91.108l.115.004h.023a2.001 2.001 0 0 0 2.107-1.887 2 2 0 0 0-1.888-2.106 16.46 16.46 0 0 0-.845-.018 37.135 37.135 0 0 0-15.909 3.702 2 2 0 1 0 1.789 3.578 33.238 33.238 0 0 1 14.12-3.28c.217 0 .382.004.488.007Z"/><path fill="#FFE632" d="M169.998 98.86a1.3 1.3 0 0 0-1.584.933 41.426 41.426 0 0 1-4.603 11.314 28.995 28.995 0 0 1-8.308 8.825c7.68-11.963 9.873-21.935 9.897-22.036a1.296 1.296 0 0 0-.992-1.546 1.299 1.299 0 0 0-1.547.99l-.005.022c-.125.556-2.673 11.389-11.211 23.67a85.536 85.536 0 0 1-1.326 1.837c-5.977 2.71-13.734 4.284-23.792 4.449-.469.008-.935.012-1.401.012a75.467 75.467 0 0 1-55.31-23.404C55.444 89.12 45.612 68.064 41.935 43.178a1.3 1.3 0 1 0-2.572.38c3.744 25.334 13.77 46.908 28.589 62.179a78.094 78.094 0 0 0 57.175 24.193c.48 0 .961-.004 1.443-.012a69.519 69.519 0 0 0 20.588-3.038c-8.853 10.565-22.325 21.2-42.699 26.733a171.599 171.599 0 0 1-11.905 2.764 63.546 63.546 0 0 1-14.526-6.828c-10.09-6.557-14.039-14.234-15.127-19.129a13.672 13.672 0 0 1-.396-2.764 2.227 2.227 0 0 1 .068-.631l.016-.044.002-.005-.004-.003a1.291 1.291 0 0 0-1.699-1.946 2.511 2.511 0 0 0-.794 1.212c-.135.46-.199.938-.189 1.417a15.99 15.99 0 0 0 .458 3.327c1.245 5.606 5.63 13.845 16.248 20.746a62.766 62.766 0 0 0 10.908 5.565 216.862 216.862 0 0 1-35.575 2.871c-7.512 0-13.763-.366-18.13-.732a153.994 153.994 0 0 1-5.06-.501 94.438 94.438 0 0 1-1.324-.164l-.335-.046-.107-.015a1.3 1.3 0 1 0-.377 2.572 192.576 192.576 0 0 0 25.333 1.486 216.46 216.46 0 0 0 40.451-3.71c9.657 3.143 21.99 5.244 37.72 5.447a1.302 1.302 0 0 0 .943-2.205 1.3 1.3 0 0 0-.909-.395 132.962 132.962 0 0 1-32.361-3.961c2.439-.547 4.89-1.153 7.351-1.818 23.24-6.301 37.892-19.164 46.886-31.179a34.82 34.82 0 0 0 5.488-3.224 31.598 31.598 0 0 0 8.518-9.258 44.04 44.04 0 0 0 4.902-12.019 1.3 1.3 0 0 0-.934-1.584ZM86.7 14.037a34.586 34.586 0 0 0 6.835 13.022 67.367 67.367 0 0 0 20.604 16.82c8.263 4.429 17.53 7.294 26.621 7.297a37.459 37.459 0 0 0 14.022-2.602 1.304 1.304 0 0 0 .821-1.193 1.316 1.316 0 0 0-.093-.5 1.3 1.3 0 0 0-1.696-.72 34.865 34.865 0 0 1-13.054 2.415c-11.384.01-23.401-4.843-32.994-11.722a61.032 61.032 0 0 1-12.195-11.412 32.062 32.062 0 0 1-6.341-12.01 1.302 1.302 0 0 0-2.03-.753 1.303 1.303 0 0 0-.5 1.358Z"/><path fill="#FFE632" d="M104.592 21.933c6.611 3.881 15.977 7.787 26.986 7.79a46.372 46.372 0 0 0 12.057-1.599 1.299 1.299 0 0 0-.673-2.511c-3.712 1-7.54 1.509-11.384 1.51-10.382.002-19.322-3.703-25.669-7.432a60.701 60.701 0 0 1-7.412-5.121 45.844 45.844 0 0 1-1.96-1.677c-.222-.2-.388-.356-.497-.46l-.12-.117-.029-.028-.006-.006a1.299 1.299 0 1 0-1.838 1.839 56.847 56.847 0 0 0 10.545 7.812Z"/><path fill="#BEBEC9" d="M129.072 96.48c.327-.18.645-.364.953-.548a29.094 29.094 0 0 0 4.073-2.914c.274-.235.541-.474.802-.716a1.298 1.298 0 0 0 .332-1.406 1.297 1.297 0 0 0-1.172-.844 1.3 1.3 0 0 0-.932.347c-.234.218-.475.433-.724.647a26.544 26.544 0 0 1-3.709 2.652c-.288.172-.581.34-.878.504a1.3 1.3 0 0 0 1.255 2.278ZM81.281 41.646a48.64 48.64 0 0 0-13.87 4.412 1.3 1.3 0 0 0 1.19 2.311 46.08 46.08 0 0 1 13.133-4.163 1.3 1.3 0 0 0-.453-2.56ZM60.989 50.453a25.417 25.417 0 0 0-2.783 2.96 1.3 1.3 0 1 0 2.032 1.623c.76-.952 1.596-1.84 2.498-2.658a1.301 1.301 0 0 0-1.312-2.189 1.3 1.3 0 0 0-.435.264ZM29.65 155.75l-.002-.002v-.001l.001.003ZM20.557 160.614v-.003l-.002.009.002-.006Z"/><path fill="#BEBEC9" d="M49.53 163.931a4.468 4.468 0 0 0-1.01-1.266 4.89 4.89 0 0 0-1.181-.792 4.557 4.557 0 0 0-1.892-.373 8.664 8.664 0 0 0-2.345.366 9.78 9.78 0 0 0-1.065.37 1.3 1.3 0 1 0 1.022 2.39l.003-.001c.264-.106.533-.197.807-.274a6.115 6.115 0 0 1 1.578-.251c.278-.011.555.037.814.139.268.14.51.325.714.548.08.086.15.18.21.281-.016.014-.024.025-.043.04a4.712 4.712 0 0 1-1.018.591c-.05.011-.148.031-.286.056-.608.11-1.767.291-2.785.447l-1.354.209-.459.073-.158.027-.023.005c-.035.001-.093.003-.177.003a33.232 33.232 0 0 1-3.468-.224 17.017 17.017 0 0 1-1.968-.338 3.694 3.694 0 0 1-1.076-.394 3.499 3.499 0 0 0-1.095-.509 16.53 16.53 0 0 0-1.752-.331 4.62 4.62 0 0 1-2.146-.796 3.528 3.528 0 0 1-.874-1.008 7.025 7.025 0 0 1-.754-1.929 1.272 1.272 0 0 0-.278-.516c.263-.341.44-.589.449-.6.025-.047.046-.096.065-.146.136-.028.269-.068.398-.119a5.673 5.673 0 0 0 1.259-.845 25.64 25.64 0 0 0 1.713-1.597c.486-.489.829-.858.835-.866a1.302 1.302 0 0 0-.5-2.107 1.302 1.302 0 0 0-1.407.34l-.096.103c-.223.237-.81.85-1.428 1.433-.31.291-.627.574-.897.791a3.586 3.586 0 0 1-.502.356l-.057.004a1.672 1.672 0 0 1-.752-.235c.084-.149.189-.326.307-.514a38.234 38.234 0 0 1 1.976-2.831c.122-.159.223-.283.308-.384.176-.027.354-.04.532-.037.488.008.975.048 1.457.118.218.03.405.061.536.083l.15.027.045.008a1.294 1.294 0 0 0 1.336-.555 1.3 1.3 0 0 0-.836-1.996 16.175 16.175 0 0 0-2.688-.285 5.479 5.479 0 0 0-1.099.098 2.79 2.79 0 0 0-.591.188 1.966 1.966 0 0 0-.648.462c-.22.244-.475.568-.779.972a41.07 41.07 0 0 0-.69.948 1.273 1.273 0 0 0-.628.044c-.27.102-.529.234-.77.395a3.733 3.733 0 0 0-1.252 1.338c-.24.444-.828 1.607-1.398 2.771-.284.579-.56 1.154-.781 1.632-.11.239-.208.454-.287.639a4.997 4.997 0 0 0-.194.507 1.496 1.496 0 0 0 .196 1.29c.192.274.456.489.762.621.312.135.64.226.978.27a6.86 6.86 0 0 0 2.047-.013c.33-.05.648-.154.944-.306a7.761 7.761 0 0 0 1.538 2.798 5.769 5.769 0 0 0 1.917 1.401c.85.354 1.747.588 2.662.694.362.056.669.107.886.165.128.026.252.073.364.139.602.389 1.27.663 1.972.808a23.01 23.01 0 0 0 3.424.511c1.114.094 2.088.126 2.635.127.11 0 .203-.002.288-.005l.132-.007c.073-.007.146-.018.218-.034v.001l.317-.052c.588-.094 1.755-.27 2.806-.435a116.47 116.47 0 0 0 1.417-.231c.196-.034.365-.065.507-.093l.2-.044c.09-.02.18-.048.266-.082a7.73 7.73 0 0 0 1.363-.724c.328-.216.625-.476.882-.774a2.6 2.6 0 0 0 .385-.606c.121-.268.185-.558.186-.852a2.747 2.747 0 0 0-.32-1.25Zm-25.022-3.978c-.078.083-.161.16-.25.231a1.58 1.58 0 0 1-.246.049 4.427 4.427 0 0 1-.474.029c.246-.524.544-1.139.843-1.745a3.3 3.3 0 0 0 .793.67l-.175.216c-.167.2-.341.398-.49.55Zm16.412 6.592.006-.001-.006.001Z"/></svg>