<svg width="200" height="200" viewBox="0 0 200 200" xmlns="http://www.w3.org/2000/svg"><g id="type=empty, mode=light"><g id="Group 432527082"><path id="Vector" d="M142.431 146.144C155.322 145.635 165.815 144.029 165.498 140.546C165.413 139.614 162.233 138.596 162.233 138.596L161.851 131.091C161.851 131.091 161.374 130.084 160.564 128.858C163.008 128.419 166.473 127.686 168.466 126.766C171.774 125.24 172.41 122.441 172.536 118.498C172.664 114.554 166.813 69.2671 165.922 66.2144C165.235 63.8567 162.714 61.1324 157.858 60.7696C157.213 51.4585 156.176 39.651 158.374 37.5074C161.642 34.3218 154.134 33.7769 150.911 35.0484C147.689 36.3208 145.06 38.7378 138.573 39.3736C135.492 39.6753 131.186 37.6392 132.424 38.7798C135.497 41.6109 134.179 53.4996 136.256 53.4498C134.465 54.441 133.333 55.8189 133.102 57.4371L131.449 57.1831L131.414 60.857C127.794 60.4283 125.401 60.9634 123.729 62.6665C122.289 48.7456 115.547 36.7085 105.964 32.6734C96.2962 28.6031 90.6996 37.9322 95.4486 43.8687C100.198 49.8042 104.777 51.5005 107.83 72.024C110.883 92.5464 102.063 94.7515 101.554 98.1441C101.045 101.537 108.508 103.402 115.802 97.8043C115.802 97.8043 115.771 104.137 114.974 110.113C114.74 110.307 114.51 110.502 114.276 110.695C108.339 115.614 109.017 118.328 109.442 125.112C109.924 132.835 111.731 155.388 111.731 167.6C111.731 179.812 119.704 178.363 120.89 159.967C121.314 153.403 121.561 145.082 121.632 142.473C123.719 144.466 131.553 146.574 142.431 146.144ZM157.272 109.847C158.569 103.642 158.236 94.8824 155.658 87.4302C156.647 84.4019 158.052 78.8414 157.971 71.8257C158.225 70.9765 158.277 69.3495 158.218 67.2465C158.943 67.6673 159.535 68.2331 159.816 69.0132C160.961 72.1929 166.304 114.935 166.431 117.607C166.558 120.278 166.431 122.314 163.378 123.204C161.578 123.729 158.456 124.341 156.194 124.756C155.84 124.62 155.481 124.513 155.11 124.476C151.293 124.094 152.438 123.585 152.438 123.585L151.165 118.498C151.165 118.498 155.491 118.371 157.272 109.847ZM126.996 68.2496C127.957 66.9195 129.903 66.2789 131.368 65.9732L131.322 70.9214L134.374 71.1753V79.8257C134.374 79.8257 128.905 86.5679 128.65 97.3804C128.639 97.8609 128.63 98.3296 128.622 98.7984C126.244 100.732 123.856 102.708 121.454 104.711C123.198 90.2134 125.891 69.7798 126.996 68.2496ZM134.12 123.459C134.12 123.459 132.669 124.013 130.901 125.037L130.94 124.985L125.769 123.423L125.809 118.328L131.026 115.363C131.924 116.691 133.126 117.607 134.756 117.989L134.12 123.459ZM135.265 100.002C135.265 92.7652 136.41 86.899 143.025 86.899C149.639 86.899 150.785 92.7652 150.785 100.002C150.785 107.238 150.021 113.104 143.025 113.104C136.028 113.104 135.265 107.238 135.265 100.002Z"/><path id="Vector_2" d="M131.576 31.7408C142.898 34.9215 146.587 28.1793 144.425 27.9244C139.244 27.315 128.524 29.8326 131.576 31.7408Z"/><path id="Vector_3" d="M151.295 29.4517C151.295 29.4517 152.313 29.9605 154.221 29.8326C156.129 29.7056 157.782 29.3238 158.037 27.1617C158.6 22.3795 151.295 25.1265 151.295 25.1265C151.295 25.1265 148.496 24.4898 146.588 24.7447L145.443 30.2144C148.369 31.232 151.295 29.4517 151.295 29.4517Z"/><path id="Vector_4" d="M83.7345 93.1013C84.4387 92.7313 85.0035 92.6073 85.4783 92.6063C86.073 92.6095 86.5762 92.7963 87.0948 93.1619C87.6078 93.526 88.1034 94.0806 88.533 94.7233C88.9327 95.3195 89.7404 95.4788 90.3367 95.079C90.9329 94.6791 91.0922 93.8715 90.6924 93.2753C90.1403 92.4541 89.4661 91.6622 88.6058 91.0459C87.7513 90.4309 86.6781 90.0032 85.4783 90.0064C84.5266 90.0054 83.5272 90.2698 82.5217 90.8015C81.449 91.3605 80.6785 92.2289 80.2396 93.182C79.7952 94.1366 79.6475 95.1535 79.6465 96.1373C79.6467 96.897 79.7362 97.6438 79.8706 98.3522C80.0045 99.0575 80.6849 99.5208 81.3904 99.3869C82.0957 99.2528 82.559 98.5724 82.4251 97.8671L82.4249 97.867C82.3137 97.2826 82.2462 96.6898 82.2465 96.1373C82.2455 95.418 82.3619 94.7777 82.595 94.2831C82.8336 93.7869 83.1541 93.414 83.7345 93.1013Z"/><path id="Vector_5" d="M52.7029 88.0427C53.6045 88.3675 54.5695 88.507 55.552 88.5073C58.1671 88.4982 60.939 87.5431 63.1692 85.9683C64.2816 85.1768 65.2588 84.2219 65.9779 83.1068C66.6953 81.9951 67.1517 80.704 67.151 79.3206C67.151 79.0778 67.1372 78.8322 67.1085 78.585C66.7942 75.8366 65.5086 73.6278 63.735 72.1642C61.9624 70.6958 59.7333 69.949 57.4962 69.9482C55.9906 69.9482 54.4744 70.2875 53.0877 70.9904C49.7067 72.7104 47.728 76.2366 47.7246 79.8718C47.7211 82.1709 48.5343 84.5402 50.2934 86.4645L51.2538 85.5884L50.2935 86.4646C50.9641 87.2006 51.8031 87.719 52.7029 88.0427ZM61.2736 79.4462C61.9906 79.4111 62.6002 79.9642 62.6351 80.6814L62.6478 80.9421C62.6829 81.6592 62.1298 82.2688 61.4126 82.3037C60.6956 82.3387 60.0859 81.7856 60.051 81.0685L60.0383 80.8077C60.0033 80.0907 60.5564 79.4811 61.2736 79.4462ZM52.2637 76.6161C52.5308 76.0936 52.9937 75.6116 53.5962 75.3391C53.9848 75.1603 54.4177 75.0724 54.8616 75.0629L54.8615 75.0599L54.8937 75.0593C54.8949 75.0593 54.8961 75.0589 54.8975 75.0589V75.0593L54.9597 75.0582C55.4605 75.0581 55.9362 75.1371 56.3702 75.3117C56.8037 75.4846 57.1879 75.7591 57.4752 76.092C58.0568 76.7681 58.2311 77.579 58.2316 78.2945C58.2304 78.8858 58.1159 79.4485 57.9327 79.9675C57.7462 80.4864 57.4961 80.9607 57.1482 81.3756C56.9132 81.6498 56.6337 81.9088 56.2307 82.0952C56.0015 82.1994 55.7246 82.2746 55.4209 82.2745L55.2885 82.2699L55.2787 82.2693C54.7262 82.2276 54.2105 82.0488 53.7789 81.7839C53.3457 81.519 52.9938 81.1742 52.7173 80.7955C52.1677 80.0339 51.8907 79.144 51.8859 78.2428C51.8867 77.6992 51.9919 77.141 52.2637 76.6161Z"/><path id="Vector_6" d="M96.2278 75.4077C97.5702 75.9889 99.0865 76.245 100.633 76.2465C102.948 76.2423 105.341 75.6727 107.327 74.535C108.318 73.964 109.209 73.2445 109.908 72.3562C110.605 71.4705 111.104 70.4051 111.272 69.2175C111.347 68.6923 111.383 68.1777 111.383 67.6758C111.388 64.806 110.177 62.3608 108.359 60.6962C106.54 59.026 104.132 58.0916 101.657 58.0894C100.989 58.0894 100.314 58.1582 99.647 58.3019C97.3738 58.7894 95.4305 60.0842 94.0604 61.8131C92.6898 63.5426 91.876 65.7201 91.875 68.0146C91.8742 69.5226 92.2315 71.0787 93.0042 72.5533H93.004C93.7055 73.8949 94.8917 74.8298 96.2278 75.4077ZM105.557 67.3132C106.274 67.281 106.881 67.8363 106.914 68.5535L106.925 68.8142C106.958 69.5315 106.402 70.139 105.685 70.1713C104.968 70.2035 104.36 69.6482 104.328 68.931L104.316 68.6703C104.284 67.953 104.839 67.3455 105.557 67.3132ZM96.5411 64.4838C96.8081 63.9614 97.2709 63.4795 97.8733 63.2068C98.2613 63.0281 98.6941 62.9401 99.1376 62.9303L99.1374 62.9272L99.17 62.9266C99.1714 62.9266 99.1728 62.9263 99.1742 62.9263V62.9266L99.2362 62.9256C99.7372 62.9255 100.213 63.0045 100.647 63.1792C101.081 63.3522 101.465 63.6267 101.753 63.9597C102.335 64.6359 102.509 65.4471 102.51 66.1631C102.508 66.7544 102.394 67.317 102.211 67.8359C102.024 68.3548 101.774 68.8292 101.426 69.244C101.191 69.5181 100.912 69.7771 100.509 69.9635C100.28 70.0677 100.003 70.1429 99.6991 70.1428L99.5666 70.1382L99.557 70.1376C99.0044 70.0959 98.4885 69.9172 98.0569 69.6522C97.6236 69.3873 97.2716 69.0423 96.9951 68.6637C96.4454 67.9018 96.1683 67.0118 96.1634 66.1103C96.1643 65.5669 96.2695 65.0087 96.5411 64.4838Z"/><path id="Vector_7" d="M52.7105 58.9867C53.3391 57.2366 53.6111 55.5357 53.6132 54.1486C53.6129 53.6564 53.5786 53.203 53.5037 52.7848C53.3765 52.0782 52.7006 51.6084 51.9941 51.7356C51.2874 51.8627 50.8177 52.5386 50.9449 53.2453C50.9857 53.4703 51.0136 53.783 51.0133 54.1486C51.0185 55.5398 50.6118 57.661 49.6391 59.5517C49.1546 60.5003 48.5339 61.396 47.7696 62.1497C47.0041 62.9038 46.0997 63.5187 45.0119 63.9294C44.3399 64.1825 44.0006 64.9324 44.2538 65.6044C44.507 66.2763 45.2569 66.6156 45.9289 66.3625L45.9288 66.3623C47.3809 65.8157 48.6019 64.982 49.5956 64.0005C51.0882 62.5257 52.0801 60.7323 52.7105 58.9867Z"/><path id="Vector_8" d="M98.2192 50.6124C99.5034 50.6107 100.612 50.4535 101.484 50.1935C102.171 49.9868 102.561 49.262 102.355 48.5745C102.148 47.8868 101.423 47.4971 100.736 47.7037C100.184 47.8713 99.2767 48.0142 98.2192 48.0125C96.6787 48.0137 94.8092 47.7219 93.0393 46.9199C91.2659 46.1149 89.5874 44.8245 88.3021 42.752C87.9243 42.1414 87.1232 41.9526 86.5127 42.3304C85.9021 42.7081 85.7134 43.5093 86.0912 44.1199L86.0911 44.1198C87.6603 46.6616 89.7936 48.3096 91.9683 49.2892C94.1464 50.2719 96.361 50.6112 98.2192 50.6124Z"/><path id="Vector_9" d="M50.7362 141.662C51.115 141.622 51.4577 141.416 51.6722 141.101C52.6595 139.655 53.8303 138.778 54.9837 138.24C55.8899 137.817 56.7856 137.619 57.5354 137.552C57.3376 138.115 57.1429 138.678 56.9668 139.239C55.2048 144.857 54.4812 150.344 54.1262 154.34C53.6992 159.176 52.9767 164.281 52.974 168.693C52.9796 171.474 53.2488 173.996 54.1889 176.08C54.6609 177.119 55.3188 178.049 56.2035 178.769C57.0639 179.472 58.1302 179.952 59.3432 180.18C59.0209 185.055 58.9133 188.177 58.9128 188.189C58.8883 188.906 59.4502 189.508 60.1678 189.532C60.8854 189.557 61.4869 188.995 61.5115 188.277C61.5113 188.275 61.5295 187.741 61.5747 186.753C61.7324 183.297 62.2176 174.369 63.3773 164.217C64.5337 154.07 66.3783 142.68 69.1949 134.402C69.4259 133.722 69.062 132.984 68.3823 132.753C67.7025 132.522 66.9642 132.886 66.7333 133.566L66.7331 133.566C63.3912 143.416 61.4598 157.023 60.3336 168.221C59.9931 171.618 59.7295 174.784 59.5261 177.556C58.8364 177.384 58.2945 177.116 57.8456 176.753C57.2805 176.293 56.8283 175.646 56.4758 174.805C56.5978 174.766 56.7182 174.737 56.8416 174.675C57.4709 174.363 58.0344 173.775 58.4566 172.934C58.8834 172.089 59.2068 170.974 59.4148 169.425C59.5096 168.713 59.0095 168.06 58.2979 167.965C57.5863 167.87 56.9325 168.37 56.8376 169.082C56.6014 170.888 56.1794 171.786 55.9166 172.121C55.872 172.179 55.8421 172.206 55.8098 172.238C55.6516 171.176 55.573 169.988 55.5739 168.693C55.5713 164.559 56.2774 159.489 56.7159 154.569C57.1731 149.383 58.2846 141.669 61.4693 134.705C63.0598 131.222 65.1614 127.932 67.9354 125.21C70.712 122.488 74.1535 120.324 78.5083 119.068C78.5207 119.064 78.529 119.055 78.5412 119.051C80.4685 118.801 82.3816 118.5 84.2973 118.13C85.0022 117.994 85.4634 117.312 85.3274 116.608C85.1913 115.903 84.5095 115.442 83.8047 115.578L83.8045 115.577C79.8559 116.34 75.9172 116.821 71.7877 117.112C70.0227 117.236 68.3537 117.294 66.7761 117.294C55.2126 117.288 48.5715 114.193 44.7893 111.211C42.8978 109.716 41.7174 108.237 41.0124 107.149C40.6602 106.606 40.4274 106.16 40.2863 105.86C40.2158 105.711 40.1682 105.598 40.14 105.527L40.1119 105.454L40.1079 105.443L40.1065 105.444C39.9487 104.987 39.5567 104.692 39.1126 104.609C38.9277 104.466 38.7175 104.355 38.4682 104.329L38.4681 104.329C35.0335 103.978 32.4393 102.677 30.6937 101.464C30.1943 101.116 29.7744 100.78 29.4187 100.474L36.1557 97.7474C36.6833 97.5338 37.0096 97.0055 36.964 96.4381C36.9182 95.8706 36.5117 95.401 35.9566 95.2747L35.9418 95.2712C35.7181 95.2205 33.2538 94.596 30.8159 93.1056C29.5958 92.3626 28.3876 91.4083 27.4462 90.2343C26.8357 89.4719 26.3511 88.6124 26.0102 87.6506L40.5282 89.2003C41.2421 89.2764 41.8826 88.7596 41.9588 88.0457C42.035 87.3317 41.5182 86.6912 40.8043 86.6151L37.8135 86.2959C34.8214 78.9935 33.1753 72.1674 33.1771 65.994C33.1902 58.3814 35.6184 51.7713 41.198 46.1245C46.3142 40.9577 54.1755 36.6206 65.3303 33.4121C66.01 35.1361 66.5779 36.8203 67.0276 38.2926C67.4722 39.7458 67.8043 40.9937 68.0245 41.875C68.1346 42.3155 68.2168 42.6644 68.2711 42.9015C68.2982 43.02 68.3183 43.1104 68.3315 43.1706L68.3502 43.2569C68.3633 43.3189 68.4012 43.3667 68.4225 43.4245C68.4598 43.5272 68.4899 43.6333 68.551 43.7225C68.6055 43.8018 68.6831 43.8576 68.7529 43.9223C68.8055 43.9714 68.8442 44.0328 68.9054 44.0732C68.907 44.0742 68.9089 44.0742 68.9104 44.0753C69.0498 44.1666 69.2064 44.2312 69.3721 44.2639C69.5397 44.2968 69.7134 44.2972 69.885 44.2618C70.0566 44.2264 70.216 44.1572 70.3569 44.0606C70.496 43.9649 70.6142 43.8435 70.706 43.7047C70.707 43.7031 70.7087 43.7024 70.7098 43.7008C70.7512 43.6374 70.7634 43.5634 70.7928 43.4952C70.8298 43.4102 70.8782 43.3308 70.8963 43.2387C70.918 43.1286 70.904 43.0152 70.8965 42.9019C70.8927 42.8444 70.9082 42.7895 70.8965 42.7314L70.8938 42.7171C70.8568 42.5332 70.5068 40.6506 70.5083 38.5118C70.5079 37.5809 70.5744 36.6031 70.748 35.7107C70.9199 34.8171 71.2022 34.0162 71.5842 33.4216C71.8716 32.9687 72.3266 32.5473 72.8824 32.1878C73.7126 31.6463 74.7479 31.2612 75.5613 31.0322C75.666 31.0024 75.7541 30.9817 75.8506 30.9568C80.2651 30.1754 84.3138 29.7959 88.0016 29.7961C93.6964 29.7964 98.5434 30.6805 102.646 32.3011C108.796 34.7369 113.307 38.8081 116.556 44.2492C116.575 44.2823 116.592 44.3184 116.612 44.3517C115.796 49.1648 115.352 54.9227 115.351 61.8471C115.364 62.3956 115.56 62.7221 115.732 62.999C116.05 63.4724 116.438 63.8371 116.87 64.2127C117.262 64.5486 117.679 64.8607 118.086 65.1526C118.073 65.2719 118.049 65.3874 118.049 65.51C118.045 66.3972 118.385 67.3229 119.044 68.1072C119.131 68.2109 119.239 68.2807 119.347 68.3503L114.503 103.224C112.376 104.751 110.189 106.186 108.004 107.514C106.351 108.52 104.66 109.421 103.227 110.138C102.585 110.459 102.325 111.24 102.646 111.882C102.967 112.524 103.748 112.784 104.391 112.463C105.87 111.722 107.62 110.791 109.355 109.736C110.915 108.787 112.472 107.766 114.018 106.714L112.341 118.784L112.342 118.78C112.283 119.194 112.256 119.608 112.256 120.019C112.259 122.017 112.901 123.984 114.025 125.61C115.149 127.232 116.782 128.531 118.787 129.053L123.679 130.325C123.605 130.462 123.519 130.607 123.463 130.731C123.413 130.841 123.369 130.945 123.329 131.067C123.293 131.195 123.244 131.312 123.237 131.6C123.238 131.604 123.231 131.791 123.216 132.023C123.166 132.864 123.036 134.594 122.919 136.103C122.86 136.876 122.804 137.589 122.763 138.104C122.071 138.4 121.474 138.725 120.969 139.113C120.627 139.38 120.321 139.68 120.081 140.057C119.841 140.429 119.674 140.899 119.676 141.395C119.675 141.764 119.767 142.125 119.915 142.434C120.197 143.018 120.632 143.435 121.127 143.795C122.001 144.417 123.135 144.893 124.54 145.328C124.562 145.334 124.588 145.34 124.609 145.346L125.107 188.315C125.116 189.033 125.705 189.609 126.422 189.6C127.14 189.592 127.716 189.003 127.707 188.285L127.659 184.086C129.683 183.748 131.429 183.085 132.925 182.164C135.379 180.654 137.183 178.548 138.888 176.312C140.593 174.07 142.212 171.677 144.241 169.451C145.18 168.42 146.122 167.78 147.043 167.384C147.964 166.99 148.873 166.837 149.758 166.837C151.262 166.834 152.691 167.298 153.732 167.779C154.252 168.017 154.674 168.257 154.959 168.433C155.101 168.521 155.209 168.592 155.279 168.64L155.353 168.692L155.367 168.702L155.368 168.702C155.805 169.026 156.398 169.044 156.854 168.745C157.311 168.446 157.532 167.894 157.408 167.363C157.388 167.285 156.987 165.56 155.835 163.552C155.565 163.082 155.249 162.597 154.889 162.115L156.049 159.531C156.211 159.171 156.2 158.758 156.021 158.406C155.841 158.055 155.512 157.805 155.126 157.725C155.057 157.711 154.526 157.607 153.683 157.607C152.743 157.607 151.397 157.761 149.902 158.312C149.798 158.275 149.703 158.227 149.596 158.192C148.363 157.796 147.221 157.553 146.145 157.417L145.871 155.474C145.809 155.035 145.527 154.657 145.124 154.473C144.721 154.289 144.25 154.323 143.878 154.564C143.805 154.612 142.767 155.291 141.53 156.683C141.218 157.035 140.892 157.434 140.567 157.88C140.018 158.057 139.488 158.254 138.999 158.49C136.759 159.569 135.109 161.113 133.631 162.274C133.617 162.285 133.604 162.294 133.59 162.305L132.343 158.468C132.191 158.003 131.793 157.663 131.31 157.586C130.826 157.51 130.342 157.711 130.054 158.107C130.04 158.129 128.791 159.849 127.405 162.17L127.217 145.997C128.79 146.332 130.545 146.619 132.492 146.842C135.631 147.2 139.197 147.401 142.983 147.401C143.05 147.401 143.108 147.372 143.173 147.363C143.238 147.373 143.297 147.401 143.364 147.401V147.401C149.519 147.4 155.087 146.872 159.197 145.994C161.257 145.551 162.947 145.031 164.229 144.387C164.87 144.061 165.416 143.706 165.864 143.242C166.086 143.009 166.284 142.745 166.432 142.434C166.58 142.125 166.672 141.764 166.671 141.395C166.673 140.899 166.506 140.429 166.266 140.057C165.902 139.493 165.406 139.095 164.83 138.737C164.46 138.51 164.035 138.308 163.584 138.114C163.532 137.454 163.455 136.469 163.377 135.446C163.309 134.561 163.242 133.656 163.191 132.936C163.166 132.576 163.145 132.262 163.131 132.023C163.116 131.791 163.109 131.604 163.11 131.6C163.107 131.404 163.08 131.296 163.056 131.198C163.008 131.016 162.954 130.888 162.89 130.744C162.831 130.614 162.759 130.473 162.677 130.323L167.56 129.053C169.565 128.53 171.198 127.232 172.321 125.61C173.445 123.984 174.088 122.017 174.09 120.019C174.09 119.607 174.062 119.194 174.005 118.784L167 68.351C167.108 68.2812 167.217 68.2109 167.304 68.1069L167.304 68.1068C167.962 67.3222 168.302 66.3966 168.298 65.5102C168.298 65.3889 168.273 65.2746 168.261 65.1565C168.347 65.0949 168.432 65.0342 168.519 64.9703C169.036 64.5864 169.561 64.1687 170.006 63.7257C170.229 63.5016 170.433 63.2735 170.615 62.999C170.787 62.7221 170.983 62.3956 170.996 61.8471C170.995 51.4843 170.007 43.7193 168.253 37.8537C166.558 32.1821 164.115 28.2793 161.152 25.6457C161.474 24.6349 161.714 23.4693 161.714 22.1816C161.717 20.4703 161.278 18.5528 160.119 16.6015C158.947 14.615 157.286 13.4052 155.658 12.7436C154.026 12.0766 152.426 11.9173 151.205 11.916C150.537 11.9162 149.983 11.9649 149.591 12.014C147.654 10.5256 145.519 9.99275 143.625 10.0001C141.68 10.0023 139.967 10.5101 138.725 11.0067C138.007 11.2949 137.453 11.5791 137.097 11.7763C136.051 11.6088 135.082 11.5093 134.212 11.5092C133.026 11.5096 131.987 11.6616 131.079 11.9757C129.716 12.4381 128.658 13.3182 128.035 14.4189C127.407 15.518 127.184 16.7683 127.183 18.0485C127.184 19.2973 127.395 20.5966 127.725 21.9082C127.89 22.562 128.031 23.083 128.154 23.5085C124.38 25.6702 121.143 29.3839 118.922 35.3779C118.325 36.9821 117.798 38.7551 117.341 40.7058C116.551 39.5855 115.706 38.5159 114.786 37.515C111.774 34.2363 108.056 31.6409 103.601 29.8829C99.1461 28.123 93.9638 27.1959 88.0015 27.1961C84.7869 27.1962 81.3359 27.4754 77.6522 28.0292C76.3912 24.4011 74.5119 21.9777 74.4625 21.9075C74.1962 21.5639 73.7706 21.3746 73.3372 21.4072C72.9038 21.4398 72.5111 21.6906 72.2994 22.0703L70.9621 24.4678C69.2954 23.017 67.5781 22.0892 66.0091 21.5272C64.0379 20.8199 62.305 20.6649 61.1513 20.6646C60.2613 20.6647 59.713 20.7573 59.6517 20.7679C59.1617 20.8541 58.7634 21.2133 58.6269 21.6917C58.4906 22.1701 58.6395 22.6854 59.0103 23.0172C60.4878 24.3349 61.8552 26.2647 63.0296 28.4218C63.4854 29.2563 63.9118 30.1241 64.3108 31.0019C53.0294 34.2849 44.8523 38.7495 39.3513 44.2943C33.2871 50.395 30.5639 57.8227 30.5771 65.994C30.5788 72.2463 32.1477 78.9453 34.9008 85.9848L24.438 84.8679C24.0409 84.8254 23.646 84.9682 23.3676 85.2545C23.0894 85.5409 22.9581 85.9395 23.0118 86.3353C23.3182 88.6109 24.291 90.5049 25.5346 92.0044C27.4054 94.2581 29.8537 95.6765 31.8272 96.5645C31.8808 96.5886 31.9302 96.6079 31.9831 96.6312L26.6229 98.8003C26.2444 98.9533 25.9587 99.2772 25.854 99.6718C25.7492 100.066 25.8368 100.489 26.0896 100.81C26.1478 100.883 27.1867 102.19 29.2085 103.598C31.1726 104.966 34.0901 106.422 37.8906 106.872C38.4131 108.013 39.8764 110.642 43.1772 113.251C47.4472 116.632 54.7546 119.9 66.7761 119.894C68.0073 119.894 69.3056 119.848 70.6384 119.777C68.9712 120.833 67.4602 122.032 66.1142 123.355C65.1821 124.27 64.3415 125.249 63.5505 126.258C63.5429 126.258 63.5349 126.258 63.5273 126.258C61.9942 126.258 60.8749 126.008 60.052 125.671C58.8219 125.161 58.218 124.463 57.8684 123.892C57.6966 123.607 57.5968 123.354 57.5427 123.184L57.4923 123.002L57.4862 122.972L57.4828 122.973C57.3774 122.312 56.7886 121.835 56.1182 121.879C55.9905 121.888 52.3578 122.138 47.7267 124.621C43.0973 127.099 37.4897 131.849 33.5487 140.683C33.2893 141.263 33.4881 141.947 34.0183 142.298C34.5476 142.648 35.2527 142.563 35.6857 142.1L35.686 142.1C35.6929 142.091 36.5791 141.155 37.9941 140.252C39.4116 139.342 41.3348 138.489 43.4147 138.494C45.3187 138.505 47.4099 139.151 49.7026 141.312C49.9787 141.574 50.3574 141.703 50.7362 141.662ZM134.893 168.847C135.281 168.505 135.429 167.962 135.269 167.469L134.436 164.908C135.804 163.916 137.04 162.768 138.409 161.838C138.428 161.825 138.448 161.813 138.467 161.8C138.314 162.211 138.169 162.633 138.043 163.08C137.881 163.655 138.133 164.269 138.653 164.564C139.171 164.858 139.826 164.76 140.236 164.328L140.237 164.328C140.26 164.302 140.835 163.716 141.765 163.119C142.696 162.519 143.97 161.922 145.391 161.786C145.741 161.753 146.069 161.574 146.287 161.297C146.505 161.02 146.602 160.66 146.553 160.311L146.523 160.096C147.228 160.222 147.982 160.405 148.8 160.668C149.951 161.038 150.894 161.656 151.685 162.399C152.504 163.169 153.137 164.077 153.623 164.939C152.526 164.551 151.215 164.239 149.758 164.237C148.571 164.236 147.292 164.447 146.018 164.995C144.743 165.541 143.481 166.42 142.318 167.701C139.408 170.905 137.402 174.236 135.172 176.776C134.059 178.05 132.902 179.126 131.564 179.948C130.433 180.641 129.154 181.149 127.628 181.451L127.538 173.709C128.173 173.397 131.763 171.597 134.893 168.847ZM119.441 126.537C118.137 126.2 116.991 125.324 116.162 124.129C115.334 122.939 114.853 121.448 114.856 120.019C114.856 119.723 114.875 119.431 114.916 119.147L114.917 119.142L122.03 67.9322C122.163 66.9754 122.54 66.0579 123.094 65.2485C123.347 65.4362 123.664 65.541 124.002 65.5051C124.716 65.4292 125.233 64.7888 125.157 64.0749C125.13 63.8227 125.097 63.5756 125.068 63.325C126.133 62.625 127.369 62.2155 128.607 62.2176C128.762 62.2176 128.915 62.2236 129.067 62.2363L130.361 62.3577V65.1792C129.592 65.1914 128.894 65.2819 128.27 65.4769C127.268 65.7835 126.451 66.3714 125.898 67.0946C125.339 67.817 125.025 68.6301 124.807 69.4419C124.772 69.5771 124.751 69.6889 124.723 69.8438C124.62 70.4229 124.466 71.5059 124.264 73.019C123.557 78.2981 122.294 88.6616 121.139 98.0494C120.561 102.743 120.011 107.191 119.572 110.63C119.352 112.35 119.161 113.818 119.008 114.936C118.856 116.047 118.736 116.837 118.683 117.097C118.524 117.89 118.44 118.615 118.439 119.291C118.437 120.416 118.687 121.451 119.288 122.281C119.886 123.114 120.772 123.64 121.733 123.936C122.305 124.114 123.125 124.322 124.07 124.546C125.29 124.836 126.704 125.147 127.918 125.407C126.86 126.249 125.96 127.177 125.248 128.047L119.441 126.537ZM153.386 58.7369V69.7483H151.76C151.417 69.7483 151.083 69.8869 150.841 70.129C150.599 70.3711 150.46 70.7059 150.46 71.0483V78.7297H135.887V71.0483C135.887 70.706 135.748 70.3712 135.506 70.1291C135.264 69.887 134.929 69.7483 134.587 69.7483H132.961V58.737L153.386 58.7369ZM134.781 56.1369C135.01 55.7092 135.488 55.1159 136.704 54.5354C137.95 53.946 140.004 53.4253 143.215 53.3291C147.565 53.4687 149.737 54.4002 150.736 55.1933C151.186 55.5485 151.421 55.8706 151.563 56.1369H134.781ZM155.986 70.9585V67.7788C156.404 67.7883 156.745 67.8337 157.033 67.9004C157.015 71.2662 156.898 74.5486 156.63 77.4769C156.434 79.6329 156.153 81.5949 155.785 83.2534C155.045 81.9225 154.165 80.6731 153.141 79.5415L153.06 79.4519V72.3482H154.305C154.496 72.3482 154.675 72.302 154.838 72.2278C155.48 72.1491 155.986 71.6224 155.986 70.9585H155.986ZM159.145 109.572C159.145 109.572 158.974 109.469 158.68 109.292C159.136 106.819 159.356 104.097 159.361 101.287C159.36 98.1052 159.076 94.8357 158.521 91.758C158.728 91.6186 158.846 91.5392 158.846 91.5388C159.442 91.1379 159.599 90.33 159.199 89.7346C158.919 89.3188 158.441 89.1323 157.975 89.1843C157.793 88.4345 157.599 87.6985 157.382 86.9892C157.516 86.6506 157.642 86.3156 157.747 85.9884C158.47 83.7309 158.927 80.8977 159.219 77.7136C159.347 76.3169 159.436 74.8459 159.503 73.3399C159.747 75.1643 160.061 77.6159 160.414 80.4332C161.25 87.1017 162.31 95.8149 163.217 103.14C163.67 106.803 164.085 110.119 164.415 112.662C164.58 113.934 164.724 115.012 164.841 115.847C164.959 116.687 165.046 117.261 165.114 117.607C165.247 118.274 165.307 118.837 165.307 119.291C165.304 120.062 165.148 120.484 164.951 120.759C164.751 121.032 164.446 121.26 163.839 121.454C163.394 121.594 162.592 121.8 161.677 122.017C160.299 122.343 158.642 122.705 157.333 122.983C156.023 123.261 155.065 123.457 155.063 123.457C155.063 123.457 155.063 123.457 155.063 123.457C154.464 123.241 153.837 123.082 153.182 122.997L152.277 119.276C152.717 119.155 153.139 119.02 153.53 118.85C153.994 118.646 154.427 118.404 154.812 118.047C155.666 117.244 156.351 116.222 156.922 115.046C157.378 114.097 157.759 113.036 158.081 111.899C158.644 112.082 159.274 111.885 159.592 111.355C159.961 110.74 159.761 109.941 159.145 109.572ZM130.589 132.005C129.036 131.675 127.804 131.275 127.065 130.898C126.851 130.791 126.687 130.688 126.566 130.6C127.167 129.746 128.071 128.658 129.158 127.73C129.894 127.098 130.713 126.536 131.567 126.143C132.422 125.749 133.303 125.521 134.205 125.521C134.806 125.521 135.326 125.112 135.468 124.529L136.614 119.822C136.617 119.807 136.613 119.792 136.615 119.777C138.937 120.095 141.396 120.163 142.702 120.177C142.705 120.177 142.708 120.179 142.711 120.179L142.711 120.179C142.716 120.179 142.848 120.181 143.081 120.181C143.112 120.181 143.157 120.181 143.192 120.181C143.213 120.181 143.247 120.181 143.267 120.181C143.499 120.181 143.632 120.179 143.637 120.179C143.64 120.179 143.642 120.177 143.645 120.177C144.738 120.166 146.643 120.116 148.6 119.914C148.979 119.875 149.355 119.819 149.732 119.767C149.736 119.786 149.73 119.804 149.734 119.822L150.879 124.528C151.021 125.112 151.541 125.521 152.142 125.521C153.238 125.521 154.311 125.859 155.332 126.423C156.86 127.262 158.229 128.612 159.179 129.799C159.404 130.079 159.602 130.347 159.778 130.598C159.71 130.648 159.642 130.699 159.542 130.757C159.071 131.036 158.274 131.356 157.251 131.64C154.168 132.507 149.074 133.101 143.365 133.098C143.297 133.098 143.238 133.126 143.173 133.136C143.109 133.126 143.05 133.098 142.983 133.098V133.098C138.113 133.099 133.702 132.672 130.589 132.005ZM124.337 121.936C123.562 121.749 122.902 121.578 122.508 121.454C121.9 121.26 121.596 121.031 121.396 120.759C121.198 120.484 121.042 120.061 121.039 119.291C121.039 118.836 121.098 118.274 121.233 117.608C121.282 117.357 121.339 117.001 121.412 116.503C121.815 113.758 122.673 106.865 123.618 99.1896C124.907 98.0005 126.133 96.7666 127.293 95.4961C127.091 97.4177 126.986 99.368 126.985 101.287C126.986 104.094 127.216 106.816 127.672 109.289C127.38 109.465 127.202 109.572 127.202 109.572C126.586 109.941 126.386 110.739 126.755 111.355C127.072 111.884 127.7 112.081 128.263 111.9C128.497 112.731 128.765 113.52 129.073 114.254C127.823 115.154 126.566 116.007 125.31 116.813C124.798 116.931 124.417 117.335 124.334 117.857C124.323 117.897 124.318 117.936 124.311 117.977C124.309 118.01 124.293 118.038 124.293 118.071L124.337 121.936ZM130.3 116.569C130.67 117.117 131.077 117.615 131.536 118.046C131.921 118.404 132.353 118.646 132.817 118.85C133.208 119.019 133.63 119.158 134.071 119.279L133.165 122.999C132.514 123.084 131.894 123.248 131.299 123.463C131.294 123.462 131.29 123.458 131.285 123.457L131.285 123.457C131.284 123.457 130.859 123.37 130.186 123.23C129.362 123.058 128.168 122.804 126.944 122.534L126.902 118.878C128.04 118.144 129.174 117.374 130.3 116.569ZM150.202 104.053C148.583 103.021 147.056 102.019 145.956 101.243C145.73 101.085 145.529 100.938 145.343 100.801C145.97 100.349 146.812 99.7557 147.769 99.0914C149.948 97.5766 152.719 95.6872 154.944 94.1778C155.371 93.8877 155.77 93.6178 156.149 93.3611C156.549 95.9409 156.762 98.6516 156.761 101.287C156.762 103.583 156.594 105.806 156.283 107.837C154.561 106.785 152.308 105.395 150.202 104.053ZM155.753 110.559C155.433 111.833 155.038 112.971 154.582 113.912C154.114 114.881 153.582 115.638 153.034 116.15C152.97 116.213 152.78 116.343 152.492 116.466C151.988 116.688 151.207 116.898 150.328 117.054C147.781 117.514 144.44 117.579 143.226 117.581C142.376 117.581 140.182 117.553 138.015 117.328C136.919 117.215 135.829 117.049 134.958 116.827C134.523 116.717 134.143 116.592 133.856 116.466C133.568 116.343 133.378 116.213 133.314 116.15C132.766 115.638 132.233 114.88 131.765 113.912C131.309 112.973 130.922 111.825 130.602 110.554C132.051 109.673 134.083 108.426 136.124 107.142C138.023 105.948 139.923 104.725 141.368 103.73C142.093 103.232 142.7 102.793 143.161 102.422C143.167 102.417 143.171 102.413 143.177 102.409C143.525 102.691 143.936 103 144.441 103.357C146.508 104.815 149.833 106.913 152.661 108.663C153.824 109.382 154.888 110.033 155.753 110.559ZM150.2 94.2624C148.384 95.5029 146.553 96.7634 145.137 97.7579C144.429 98.2556 143.825 98.686 143.373 99.0195C143.3 99.0732 143.238 99.1203 143.173 99.169C142.482 98.6513 141.341 97.8448 139.954 96.8817C136.975 94.813 132.978 92.1018 130.714 90.5705C130.941 89.5393 131.199 88.5427 131.492 87.6041C132.217 85.2805 133.463 83.1466 135.104 81.3227C135.116 81.3231 135.126 81.3297 135.138 81.3297H151.166C151.191 81.3297 151.212 81.3169 151.237 81.3154C152.881 83.1407 154.13 85.2773 154.855 87.6041C155.148 88.543 155.405 89.5395 155.633 90.571C154.255 91.5023 152.238 92.8694 150.2 94.2624ZM137.352 98.2425C138.638 99.1297 139.81 99.9465 140.676 100.566C140.796 100.652 140.895 100.724 141.003 100.801C140.342 101.29 139.399 101.936 138.33 102.639C136.111 104.1 133.324 105.836 131.097 107.204C130.732 107.428 130.389 107.638 130.059 107.84C129.748 105.808 129.585 103.582 129.585 101.287C129.584 98.6509 129.797 95.9402 130.197 93.3606C132.195 94.7131 134.966 96.5964 137.352 98.2425ZM133.287 72.3482V79.4516L133.206 79.5414C131.31 81.6376 129.857 84.1125 129.01 86.8303C128.774 87.5879 128.566 88.3795 128.372 89.1842C127.906 89.1324 127.428 89.3189 127.148 89.7346C126.783 90.2768 126.901 90.9806 127.371 91.4074C126.37 92.6557 125.284 93.8739 124.126 95.0595C124.286 93.7529 124.447 92.4409 124.608 91.1393C125.253 85.8902 125.88 80.8138 126.375 76.9415C126.622 75.0057 126.836 73.3703 127.003 72.1692C127.086 71.5689 127.158 71.0768 127.214 70.7151C127.243 70.5345 127.267 70.3862 127.287 70.2781L127.311 70.15L127.319 70.1162L127.32 70.1095C127.429 69.6991 127.559 69.3479 127.71 69.0659C127.942 68.6401 128.187 68.3727 128.579 68.1534C128.949 67.9512 129.511 67.7954 130.361 67.7763V70.9585C130.361 71.6228 130.867 72.1499 131.51 72.228C131.674 72.3022 131.852 72.3484 132.043 72.3484L133.287 72.3482ZM163.784 141.168C163.912 141.266 163.982 141.341 164.026 141.396C163.971 141.462 163.874 141.561 163.708 141.679C163.233 142.029 162.302 142.46 161.056 142.838C159.184 143.414 156.598 143.912 153.57 144.257C150.54 144.603 147.061 144.801 143.364 144.801C143.297 144.801 143.238 144.83 143.173 144.84C143.109 144.83 143.05 144.801 142.983 144.801V144.801C136.983 144.802 131.547 144.277 127.693 143.452C125.77 143.043 124.238 142.549 123.292 142.067C122.819 141.83 122.501 141.594 122.362 141.445L122.324 141.396L122.375 141.332C122.618 141.068 123.355 140.621 124.44 140.235C124.919 140.06 125.25 139.625 125.291 139.117C125.291 139.116 125.427 137.421 125.562 135.644C125.63 134.764 125.697 133.865 125.748 133.139C126.362 133.468 127.074 133.743 127.901 133.999C129.634 134.53 131.85 134.947 134.416 135.241C136.982 135.533 139.893 135.698 142.983 135.698C143.05 135.698 143.108 135.669 143.173 135.659C143.238 135.669 143.297 135.698 143.364 135.698V135.698C148.388 135.697 152.932 135.266 156.302 134.547C157.992 134.184 159.382 133.758 160.456 133.218C160.507 133.192 160.549 133.161 160.599 133.135C160.753 135.329 161.055 139.112 161.056 139.117C161.096 139.625 161.428 140.06 161.907 140.235C162.788 140.553 163.442 140.897 163.784 141.168ZM171.43 119.142C171.47 119.431 171.49 119.724 171.49 120.019C171.493 121.448 171.012 122.939 170.184 124.129C169.356 125.324 168.21 126.2 166.905 126.537L161.098 128.047C160.387 127.176 159.49 126.25 158.432 125.407C158.709 125.347 158.994 125.286 159.288 125.222C160.279 125.006 161.335 124.77 162.277 124.546C163.222 124.322 164.042 124.114 164.615 123.935C165.574 123.64 166.46 123.114 167.059 122.281C167.66 121.451 167.91 120.416 167.907 119.291C167.907 118.614 167.821 117.89 167.664 117.098C167.634 116.95 167.577 116.601 167.507 116.126C166.978 112.52 165.61 101.316 164.32 90.822C163.674 85.5719 163.047 80.4934 162.551 76.612C162.303 74.671 162.088 73.0299 161.919 71.812C161.835 71.2026 161.762 70.6997 161.701 70.3128C161.671 70.119 161.644 69.9546 161.619 69.8156C161.593 69.6739 161.573 69.5692 161.539 69.4417C161.395 68.8993 161.207 68.3606 160.932 67.8441C160.526 67.0714 159.892 66.3459 159.015 65.8718C158.177 65.414 157.165 65.1945 155.986 65.1765V62.3579L157.292 62.2351L157.28 62.2363C157.43 62.2237 157.583 62.2176 157.739 62.2176C159.285 62.2151 160.834 62.8465 162.044 63.8967C163.255 64.9455 164.102 66.3883 164.317 67.9344L171.43 119.142ZM160.153 37.2777C161.547 35.3951 161.984 33.3071 161.98 31.5025C161.979 31.1128 161.959 30.7346 161.925 30.3707C163.409 32.4334 164.714 35.1046 165.762 38.5992C167.402 44.0754 168.383 51.5466 168.395 61.6337C168.285 61.7779 168.023 62.0424 167.7 62.3103C167.507 62.4731 167.284 62.6392 167.065 62.8034C166.423 62.2326 165.587 61.8743 164.659 61.8706C164.459 61.8706 164.255 61.8872 164.051 61.9219C163.969 61.9359 163.903 61.9799 163.828 62.0079C163.8 61.9833 163.775 61.956 163.747 61.9318C162.546 60.8925 161.089 60.1411 159.513 59.8092C159.172 49.5681 158.257 40.4482 158.152 39.4228C158.825 38.8632 159.501 38.1594 160.153 37.2777ZM151.205 14.516C152.194 14.5146 153.47 14.6546 154.672 15.1494C155.877 15.6494 157.009 16.4637 157.882 17.927C158.808 19.4965 159.111 20.9001 159.114 22.1816C159.114 23.4616 158.796 24.629 158.395 25.6335C157.993 26.6438 157.524 27.4494 157.202 28.1196L157.202 28.1195C157.206 28.1355 156.996 28.3335 156.562 28.4659C156.139 28.6045 155.545 28.6908 154.929 28.6893C154.274 28.6904 153.591 28.5954 153.04 28.427C152.706 28.3292 152.438 28.1997 152.238 28.0756C152.346 27.2385 152.509 25.6535 152.509 23.6547C152.506 21.0202 152.224 17.697 151.096 14.5177C151.133 14.5173 151.167 14.516 151.205 14.516ZM139.791 13.3808C140.815 12.978 142.191 12.5981 143.625 12.6001C145.134 12.6076 146.68 12.9963 148.177 14.2077C149.539 17.2509 149.914 20.8537 149.909 23.6548C149.909 25.0183 149.826 26.1902 149.743 27.0144C149.702 27.4265 149.661 27.7518 149.631 27.9709C149.615 28.0804 149.603 28.1634 149.594 28.2175L149.585 28.2766L149.583 28.2905C149.573 28.3474 149.59 28.4004 149.588 28.4565C149.517 28.5404 149.437 28.6294 149.338 28.7193C149.056 28.9736 148.687 29.2094 148.186 29.3099C147.987 29.3484 147.747 29.3712 147.48 29.3711C147.191 29.3713 146.869 29.3359 146.54 29.2846C146.57 29.1858 146.61 29.0854 146.636 28.9872C146.955 27.8121 147.034 26.6895 147.035 25.8075C147.035 24.7689 146.922 24.0625 146.914 24.0128C146.822 23.4392 146.355 22.9942 145.778 22.9284C144.46 22.7783 143.082 22.6477 141.683 22.5591C141.535 21.803 141.247 20.3775 140.882 18.813C140.616 17.671 140.312 16.4653 139.99 15.3993C139.829 14.8656 139.664 14.367 139.491 13.9201C139.443 13.7951 139.392 13.6839 139.343 13.5674C139.484 13.5056 139.631 13.4433 139.791 13.3808ZM130.012 16.3532C130.247 15.6425 130.592 15.1629 131.2 14.7752C131.81 14.3925 132.764 14.1091 134.212 14.1092C134.962 14.1091 135.846 14.1904 136.855 14.3609C136.92 14.4958 136.992 14.6628 137.066 14.8559C137.56 16.1289 138.123 18.3598 138.537 20.2203C138.729 21.0802 138.891 21.8592 139.012 22.458C138.879 22.4568 138.746 22.4496 138.612 22.4496C136.032 22.4508 133.457 22.6924 131.094 23.4272C131.015 23.4519 130.948 23.4829 130.871 23.5083C130.732 23.0797 130.524 22.3784 130.246 21.2732C129.951 20.106 129.782 18.9979 129.783 18.0485C129.782 17.3977 129.862 16.8252 130.012 16.3532ZM127.66 29.11C127.895 28.4312 128.279 27.8755 128.941 27.339C129.602 26.807 130.559 26.3161 131.867 25.9095C133.866 25.285 136.197 25.0483 138.612 25.0495C140.539 25.0493 142.514 25.2002 144.425 25.3995C144.43 25.5294 144.435 25.6594 144.435 25.8075C144.438 26.7672 144.305 28.0636 143.836 29.1515C143.603 29.6974 143.294 30.1903 142.888 30.6014C142.481 31.0123 141.977 31.3514 141.289 31.5914C140.257 31.95 139.089 32.0924 137.944 32.0915C136.482 32.0922 135.063 31.8625 134.024 31.6302C133.505 31.5144 133.079 31.3985 132.789 31.3132C132.644 31.2705 132.532 31.2354 132.459 31.2119L132.379 31.1855L132.36 31.1793C131.682 30.9427 130.941 31.3005 130.704 31.9785C130.468 32.6563 130.826 33.3975 131.504 33.6341C131.58 33.6557 134.492 34.685 137.944 34.6915C139.298 34.6906 140.743 34.531 142.14 34.0482C143.195 33.6842 144.066 33.1115 144.739 32.428C144.976 32.1877 145.183 31.9338 145.374 31.6738C145.436 31.6978 145.488 31.7386 145.555 31.7532L145.555 31.7531C146.198 31.8925 146.847 31.9707 147.48 31.971C147.89 31.9709 148.293 31.9379 148.687 31.8612L148.691 31.8604C149.858 31.6291 150.697 31.0297 151.24 30.4919C151.574 30.6618 151.924 30.8029 152.284 30.9149C153.128 31.1698 154.035 31.2882 154.929 31.2893C155.828 31.2873 156.71 31.171 157.513 30.889C157.915 30.7461 158.299 30.5603 158.654 30.2984C158.858 30.1469 159.046 29.9558 159.217 29.7419C159.316 30.2895 159.383 30.8848 159.381 31.5025C159.377 32.9124 159.057 34.3833 158.062 35.7313C157.011 37.149 155.993 37.8933 155.138 38.3055C154.283 38.7155 153.573 38.7956 153.125 38.7965C152.943 38.7965 152.806 38.7827 152.725 38.7714L152.646 38.7586L152.642 38.7576L152.641 38.7614C151.951 38.5969 151.255 39.0112 151.08 39.7001C150.902 40.3957 151.322 41.1037 152.017 41.2814L152.017 41.2813C152.102 41.3029 152.5 41.3962 153.125 41.3964C153.77 41.3972 154.671 41.2758 155.683 40.8858C155.961 43.8044 156.622 51.3507 156.905 59.6601L155.986 59.7464V57.437C155.986 57.2651 155.95 57.0952 155.885 56.9379C155.821 56.7836 155.727 56.6452 155.612 56.5278C155.609 56.5248 155.608 56.5207 155.605 56.5178C155.604 56.517 155.603 56.5168 155.602 56.5159C155.483 56.3978 155.342 56.3032 155.185 56.2377C155.028 56.1723 154.858 56.1369 154.686 56.1369H154.302C154.252 55.8867 154.174 55.602 154.041 55.2892C153.616 54.2678 152.62 53.0518 150.75 52.1826C149.333 51.5185 147.424 51.0182 144.805 50.8127C144.649 50.7463 144.477 50.7093 144.297 50.7093V50.7092C143.959 50.7094 143.657 50.7254 143.337 50.7336C142.922 50.7197 142.498 50.7094 142.05 50.7092C141.861 50.7092 141.684 50.7534 141.522 50.8259C139.435 50.9926 137.782 51.3393 136.491 51.8154C135.896 46.732 135.196 42.6949 134.884 40.9981C134.929 41.0102 134.978 41.0205 135.023 41.0328C135.716 41.2217 136.43 40.8135 136.619 40.121C136.808 39.4284 136.4 38.7137 135.708 38.5247L135.708 38.5246C133.869 38.0332 132.102 37.8026 130.783 37.1973C130.12 36.8979 129.571 36.5295 129.099 36.0002C128.629 35.4692 128.221 34.7598 127.918 33.7054C127.586 32.5416 127.422 31.5329 127.423 30.6919C127.423 30.0832 127.506 29.5639 127.66 29.11ZM121.358 36.2852C122.377 33.5623 123.568 31.4331 124.891 29.7463C124.856 30.0586 124.821 30.3713 124.823 30.6919C124.824 31.8619 125.041 33.0947 125.418 34.4184C125.805 35.7815 126.4 36.8786 127.155 37.7268C128.29 39.0068 129.723 39.6633 131.094 40.0778C131.454 40.1865 131.813 40.2805 132.168 40.3669C132.168 40.4544 132.15 40.5393 132.168 40.6285L132.167 40.6284C132.168 40.6286 132.184 40.711 132.216 40.8779C132.433 42.0107 133.333 46.8935 134.024 53.1347C134.019 53.139 134.012 53.1428 134.007 53.1469C133.123 53.8365 132.591 54.6126 132.305 55.2891C132.173 55.602 132.094 55.8866 132.045 56.1369H131.661C131.489 56.1369 131.32 56.1723 131.162 56.2378C131.01 56.3012 130.874 56.3942 130.757 56.5075C130.753 56.5119 130.746 56.5134 130.742 56.5177C130.736 56.524 130.733 56.5332 130.727 56.5398C130.616 56.655 130.524 56.7882 130.462 56.9379C130.397 57.0953 130.361 57.2651 130.361 57.437V59.7465L129.297 59.6466L129.284 59.6453C129.055 59.6263 128.83 59.6176 128.607 59.6176C127.226 59.6192 125.896 59.9584 124.694 60.5471C123.729 54.3098 121.997 48.6795 119.333 43.8828C119.873 40.9507 120.557 38.4343 121.358 36.2852ZM118.657 48.3913C120.382 52.3794 121.565 56.9265 122.265 61.9192C122.071 61.8879 121.876 61.8707 121.687 61.8707C120.757 61.8745 119.92 62.234 119.278 62.8071C119.253 62.7884 119.228 62.7705 119.203 62.7517C118.779 62.432 118.376 62.0933 118.128 61.8348C118.047 61.7519 117.992 61.6859 117.952 61.6335C117.958 56.5923 118.205 52.2024 118.657 48.3913Z"/></g></g></svg>