<svg xmlns="http://www.w3.org/2000/svg" width="200" height="200" fill="none"><g clip-path="url(#a)"><path fill="#FFD93A" d="M146.203 129.542c.336 5.198.617 10.878.424 13.132-.394 4.588-3.625 13.454-3.625 13.454s-1.499 2.674-2.416 5.691c4.685-1.287 10.56 3.909 12.082 5.358a22.15 22.15 0 0 0 3.168-2.799c2.394-2.59 4.461-5.796 6.085-8.938-2.61-6.669-.699-12.191 3.794-12.954-.052-2.802-.101-8.258-.138-13.328-3.245 1.021-13.032 3.634-19.374.384ZM154.757 119.418c-.918-.131-1.967-3.015-1.967-3.015s-2.36 2.36-3.147 2.229c-.786-.132-2.491-4.983-2.491-4.983-3.015 1.574-1.704 5.638-1.704 5.638s.192 2.296.425 5.475c3.987 3.431 16.318.953 19.676.196-.026-4.046-.041-7.113-.041-7.113l-1.574-2.885s-3.54 2.36-4.982 2.36h-1.442s-1.836 2.229-2.753 2.098ZM54.589 140.92c-1.443 9.834 3.277 13.898 3.277 13.898 3.409-3.278 3.802-12.062-3.277-13.898ZM70.846 170.682c.13-.393 8.26 3.934 11.537.525 3.278-3.409.394-8.26.394-8.26l-11.931 7.735ZM76.746 126.76s-16.677 2.439-21.266-2.019l-.105 4.642c7.08 4.064 20.978 1.442 20.978 1.442l.393-4.065ZM92.697 18.07c-3.409-1.704-18.05 1.267-19.623 9.003 0 0 1.187.258 4.065 6.835 1.223 2.797 21.633-6.555 21.108-9.178-.383-1.915-5.55-6.66-5.55-6.66Z"/><path fill="#191C22" d="m82.444 90.878.677-.124a3 3 0 1 0-1.082-5.902l-.677.124a3 3 0 1 0 1.082 5.902ZM117.39 84.721a3 3 0 1 0 .92 5.93l.296-.047a3 3 0 0 0-.92-5.93l-.296.047ZM110.072 95.627c-3.67.31-9.648.622-15.224.621-2.105 0-4.152-.044-5.993-.148a10.786 10.786 0 0 0-.632-.018c-1.764-.002-3.282.44-4.515 1.113-1.235.674-2.187 1.565-2.908 2.449a1.3 1.3 0 0 0 2.016 1.643c.554-.68 1.258-1.33 2.136-1.808.88-.477 1.933-.795 3.271-.797.158 0 .318.004.48.014h.004c1.908.108 4 .152 6.141.152 5.673 0 11.689-.314 15.442-.63a1.299 1.299 0 1 0-.218-2.591ZM119.375 62.313a7.488 7.488 0 0 1 3.223.788 6.364 6.364 0 0 1 2.031 1.615c.622.75 1.173 1.745 1.539 3.123a1.3 1.3 0 0 0 2.514-.664c-.451-1.712-1.182-3.075-2.055-4.122-1.311-1.576-2.913-2.418-4.268-2.853a10.004 10.004 0 0 0-2.984-.487c-.151 0-.243.005-.269.006a1.3 1.3 0 0 0 .158 2.594v.002l.111-.002ZM83.474 62.504a1.3 1.3 0 0 0 .058-2.6 19.523 19.523 0 0 0-.438-.004c-2.733 0-5.183.565-7.231 1.769-2.05 1.2-3.656 3.037-4.713 5.393a1.3 1.3 0 1 0 2.371 1.068c.876-1.933 2.091-3.294 3.659-4.22 1.568-.921 3.53-1.41 5.914-1.41.126 0 .252.001.38.004Z"/><path fill="#191C22" d="M137.174 189.217c-.663-10.248-2.537-22.793-4.245-32.799-1.674-9.804-3.186-17.141-3.247-17.438l-1.528-9.517a281.51 281.51 0 0 0 6.646-2.439c2.027-.775 4.164-1.624 6.025-2.436a52.906 52.906 0 0 0 2.543-1.179c.278-.14.522-.274.768-.408.429 4.86.991 11.968 1.17 17.602.012.4.02.798.02 1.192.001 2.86-.376 5.56-1.617 7.929-1.743 3.333-3.18 6.376-4.193 9.082-1.01 2.708-1.613 5.069-1.618 7.131 0 .783.09 1.526.3 2.223.309 1.043.921 1.982 1.807 2.645.884.667 1.987 1.054 3.256 1.216.546.07 1.088.104 1.624.104 3.218 0 6.163-1.228 8.73-3.083 3.855-2.791 6.959-6.994 9.277-11.108 2.313-4.126 3.821-8.133 4.377-10.707.18-.85.281-1.945.35-3.281a95.18 95.18 0 0 0 .093-4.582c0-6.966-.457-16.262-.56-20.759a5.345 5.345 0 0 0-1.789-3.866c.137-.21.263-.429.359-.683.267-.732.567-1.884.823-3.241.252-1.352.451-2.874.452-4.281-.002-.806-.062-1.574-.251-2.292-.177-.64-.568-1.084-.975-1.428-.726-.597-1.62-.99-2.629-1.347-1.509-.523-3.27-.903-4.852-1.164-.79-.13-1.532-.228-2.173-.295a16.38 16.38 0 0 0-1.591-.104c-.126 0-.242.004-.36.014a4.737 4.737 0 0 0-.97.207l-7.55-3.188a1.297 1.297 0 0 0-1.802 1.167h-.003l-.002.03c-.018.19-.135 1.145-.98 2.348-.849 1.2-2.437 2.691-5.572 3.904-.117.045-.212.119-.308.191-1.748.367-3.511.744-5.216 1.114a28.587 28.587 0 0 0 3.228-2.507c2.217-2.006 3.773-4.1 4.81-6.056 1.036-1.959 1.558-3.77 1.698-5.266.033-.358.053-.7.072-1.04 2.042-.913 3.377-2.264 4.182-3.433.907-1.313 1.187-2.393 1.215-2.497a1.3 1.3 0 0 0-.37-1.264l-1.362-1.281c.389-.521.884-1.223 1.41-2.074 1.133-1.842 2.4-4.337 2.88-7.084.084-.49-.121-.99-.525-1.278a1.303 1.303 0 0 0-1.38-.084l-6.846 3.744c.143-.836.423-1.967.791-3.302 1.415-5.187 4.013-13.403 4.016-22.25.003-6.234-1.304-12.827-5.279-18.825-4.348-6.56-10.957-10.765-18.246-13.322a54.994 54.994 0 0 0-4.974-1.466l1.258-2.889a1.3 1.3 0 0 0-.992-1.803 11.683 11.683 0 0 0-1.669-.104c-1.202.001-2.939.14-4.808.783a12.146 12.146 0 0 0-3.817 2.14l-.999-3.582a1.301 1.301 0 0 0-1.546-.917c-.06.015-1.327.307-2.812 1.037-.743.366-1.543.843-2.275 1.479a6.737 6.737 0 0 0-1.506 1.841 85.505 85.505 0 0 0-6.808.384c-.1.01-.186.054-.278.085-.249-.168-.489-.347-.743-.506-2.368-1.468-4.956-2.556-7.574-2.566-1.567.003-3.596.303-5.831.863-3.347.844-7.118 2.27-10.159 4.29-1.519 1.014-2.861 2.18-3.856 3.544-.993 1.36-1.633 2.955-1.63 4.696-.002.836.153 1.695.453 2.558-3.202 3.627-5.72 8.131-7.447 13.694-1.86 5.989-2.826 13.19-2.827 21.873 0 2.739.102 5.636.299 8.68l-6.034-3.371a1.3 1.3 0 0 0-1.895.816c-.227.9-.332 1.784-.331 2.637 0 2.019.58 3.854 1.417 5.439 1.161 2.195 2.794 3.917 4.222 5.181l-5.668.117a1.301 1.301 0 0 0-1.107 1.935c1.938 3.448 4.897 5.694 7.344 7.097a23.713 23.713 0 0 0 4.015 1.837c.926 1.347 4.297 5.786 11.076 10.097-.733.167-1.226.289-1.233.291a1.272 1.272 0 0 0-.405.191c-.038.006-.074-.005-.111.004-.028.007-2.377.572-5.322 1.588a1.303 1.303 0 0 0-.335-.137v-.001c-1.084-.263-1.848-.698-2.43-1.197-.868-.747-1.336-1.682-1.586-2.452a6.07 6.07 0 0 1-.225-.949 4.172 4.172 0 0 1-.032-.257l-.004-.056a1.305 1.305 0 0 0-.454-.94 1.305 1.305 0 0 0-1-.303c-.104.014-4.615.563-10.396 3.482-5.777 2.915-12.833 8.233-17.87 17.713a1.302 1.302 0 0 0 .512 1.745 1.3 1.3 0 0 0 1.747-.464l.002.001.07-.101a5.338 5.338 0 0 1 1.42-1.318c.791-.505 1.88-.951 3.418-.954 2.125-.001 5.205.883 9.409 4.061.503.381 1.21.344 1.671-.087 1.467-1.368 2.819-2.054 3.845-2.41 1.025-.354 1.73-.374 1.872-.374l.021.001v-.003c.045.002.089-.009.133-.012a15.986 15.986 0 0 0 2.434 2.599 25.338 25.338 0 0 0 3.703 2.616c.036.021.076.022.113.039-.114 1.471-.237 3.01-.36 4.573-.368 4.676-.721 9.502-.722 13.056.003 1.679.07 3.058.296 4.127.38 1.763 1.232 4.107 2.477 6.721-.193-.092-.38-.188-.581-.275a13.467 13.467 0 0 0-3.556-1.011 16.499 16.499 0 0 0-1.102-1.022c-1.464-1.235-2.62-1.773-2.699-1.81a1.3 1.3 0 0 0-1.842 1.186l.007 2.135c-.99.291-2.024.69-3.114 1.224-.102.049-.19.11-.288.163a11.46 11.46 0 0 0-2.414-.266c-1.763.001-2.91.407-3.01.442a1.3 1.3 0 0 0-.657 1.92l1.577 2.483a15.714 15.714 0 0 0-1.293 3.187c-.413 1.448-.503 2.484-.509 2.544a1.3 1.3 0 0 0 2.212 1.032c.044-.043.808-.776 2-1.472 1.195-.701 2.8-1.349 4.53-1.345 1.526.008 3.177.463 4.982 1.939 2.9 2.383 5.22 5.105 7.778 7.452 1.282 1.171 2.629 2.248 4.152 3.107a14.658 14.658 0 0 0 5.059 1.756l-.045.995c-.098 2.219-.196 4.47-.27 6.234-.037.882-.068 1.642-.09 2.216-.021.581-.034.947-.034 1.135a1.3 1.3 0 1 0 2.6 0c0-.075.011-.476.033-1.037.075-1.99.263-6.287.432-10.081a7573.295 7573.295 0 0 1 .255-5.675c.322.194.64.398.97.573 2.237 1.185 4.669 1.912 7.225 1.911.569 0 1.142-.036 1.72-.11.893-.114 1.7-.332 2.418-.672 1.076-.505 1.936-1.317 2.46-2.321.53-1.002.743-2.15.743-3.384-.005-2.172-.641-4.672-1.711-7.541-1.074-2.867-2.597-6.094-4.445-9.63a16.16 16.16 0 0 1-1.857-7.49c0-.699.046-1.399.14-2.096.693-5.18 1.48-15.989 1.482-21.58 0-.706-.013-1.33-.04-1.861-.004-.059-.032-.108-.043-.164l.66-1.338c.097-.198.143-.42.132-.639 0-.014-.065-1.313-.221-2.945l4.561-.78c.18-.031.343-.097.486-.19a75.937 75.937 0 0 0 9.162 1.342 1.3 1.3 0 1 0 .223-2.59c-5.878-.504-10.946-1.594-15.293-2.998-.004-.016-.007-.035-.012-.051-.132-.416-.274-.791-.503-1.16a3.175 3.175 0 0 0-.597-.676c-.377-.328-.81-.608-1.289-.878a16.729 16.729 0 0 0-2.323-1.059c-.797-.291-1.55-.512-2.23-.604a3.962 3.962 0 0 0-.506-.029c-.61.002-1.315.091-2.096.213l-.415.069a1.282 1.282 0 0 0-.411-.391c-4.453-2.569-7.545-5.288-9.516-7.35a28.612 28.612 0 0 1-2.145-2.499c-.226-.3-.39-.534-.495-.688l-.112-.171-.025-.038-.003-.006a1.297 1.297 0 0 0-.75-.571l-.01-.003c-.153-.045-1.965-.603-4.11-1.864-1.626-.952-3.427-2.304-4.88-4.106l7.022-.145a1.3 1.3 0 0 0 .633-2.42l-.012-.007c-.176-.104-2.116-1.302-3.95-3.236-.918-.966-1.807-2.112-2.454-3.375-.647-1.266-1.053-2.636-1.053-4.104 0-.084.013-.172.015-.257l11.753 6.567a1.3 1.3 0 0 0 1.268-2.27l-4.727-2.641c.013-.091.041-.178.034-.273a135.51 135.51 0 0 1-.382-9.888c0-8.49.949-15.436 2.71-21.101 1.762-5.668 4.324-10.055 7.587-13.504.058-.061.084-.137.128-.204l3.336-2.669c.635.232 1.746.72 3.015 1.654 1.754 1.294 3.808 3.418 5.355 6.948.12.277.312.523.526.702a2.4 2.4 0 0 0 .999.487c.33.08.655.105.991.106.75-.002 1.573-.134 2.496-.348 3.206-.754 7.632-2.57 11.362-4.492 1.862-.962 3.537-1.945 4.8-2.865.635-.463 1.166-.905 1.59-1.37.212-.235.399-.476.555-.76.152-.283.287-.623.29-1.057 0-.113-.01-.23-.033-.349l-.002-.008c-.122-.577-.369-1.084-.701-1.658-.585-.99-1.464-2.125-2.566-3.317a32.727 32.727 0 0 0-2.426-2.337 83.555 83.555 0 0 1 5.19-.186c1.022.482 3.157 1.672 5.267 3.975 2.88 3.154 5.767 8.345 5.778 16.93 0 .855-.03 1.743-.09 2.668a1.3 1.3 0 0 0 2.484.61l.001.002.026-.054c.149-.298.93-1.721 2.757-3.058 1.831-1.335 4.706-2.625 9.247-2.63.662 0 1.359.027 2.094.088a1.3 1.3 0 0 0 1.364-1.625c-.033-.116-.708-2.674-2.984-5.383a16.048 16.048 0 0 0-4.733-3.835c-1.636-.876-3.61-1.549-5.916-1.901l1.719-3.948c1.755.42 3.484.918 5.163 1.508 6.927 2.433 12.991 6.347 16.939 12.305 3.628 5.476 4.845 11.505 4.848 17.389.001 5.562-1.101 10.965-2.266 15.495-.582 2.266-1.178 4.313-1.659 6.068-.48 1.762-.849 3.207-.964 4.398a25.412 25.412 0 0 0-.111 2.366c0 2.135.274 3.922.532 5.636.259 1.719.502 3.367.502 5.345 0 .715-.031 1.474-.107 2.296-.099 1.085-.513 2.606-1.406 4.287-2.684 5.042-9.598 11.658-25.142 13.877a1.3 1.3 0 0 0 .366 2.575 59.51 59.51 0 0 0 6.823-1.366c.151.02.308.023.465-.013a962.609 962.609 0 0 1 16.676-3.689c3.59-.757 7.152-1.473 9.983-1.977a18.426 18.426 0 0 0-.412 1.976c-.391 2.515-.531 5.402-.533 5.426-.002.042.008.084.01.127-.118.102-.236.202-.348.316a6.87 6.87 0 0 0-1.214 1.767c-.323.681-.564 1.441-.568 2.272 0 .13.007.257.02.381.038.383.128 1.291.247 2.566-.028.016-.06.019-.087.037-.34.236-.9.555-1.589.901-2.425 1.22-6.438 2.807-9.807 4.069a288.363 288.363 0 0 1-6.12 2.212 1.3 1.3 0 0 0-.859 1.435l1.704 10.62.011.058c0 .001.095.46.265 1.31 1.194 5.946 6.048 30.951 7.184 48.594a1.3 1.3 0 0 0 2.595-.167Zm-70.38-19.031s-.102 2.227-.232 5.124a12.09 12.09 0 0 1-3.899-1.398c-1.924-1.082-3.653-2.671-5.477-4.499-1.825-1.824-3.74-3.877-6.077-5.802-2.216-1.835-4.55-2.54-6.635-2.532-2.121.003-3.955.683-5.356 1.431.035-.094.066-.186.105-.281.37-.914.884-1.88 1.577-2.741.695-.862 1.56-1.619 2.668-2.162.7-.341 1.356-.611 1.982-.831v.172c.002.357.146.692.405.938.26.246.602.373.958.356.107-.005.216-.008.326-.008 1.456-.002 2.813.458 3.798.935a10.222 10.222 0 0 1 1.453.854l.068.051.01.007.003.002c.467.368 1.13.372 1.601.007.472-.366.634-1.01.392-1.555a16.648 16.648 0 0 0-.793-1.545c1.242.547 2.41 1.272 3.592 1.98.061.036.129.042.192.067 1.809 3.058 4.052 6.178 6.674 8.824a30.232 30.232 0 0 0 2.71 2.423c-.012.063-.043.118-.045.183Zm13.922-9.099c1.018 2.707 1.552 4.985 1.547 6.63 0 .623-.074 1.152-.205 1.584-.202.651-.499 1.084-.967 1.444-.47.355-1.163.64-2.18.771-.469.059-.931.088-1.39.088-2.742.001-5.404-1.035-7.924-2.779-3.775-2.608-7.14-6.799-9.65-10.951a49.698 49.698 0 0 1-3.095-5.979c-.793-1.837-1.332-3.46-1.574-4.598-.155-.703-.241-1.995-.238-3.581-.001-3.391.346-8.193.714-12.852.366-4.668.752-9.188.821-12.153a2.988 2.988 0 0 1 1.358-2.441l.181.495c.245.634.63 1.117 1.095 1.631a13.58 13.58 0 0 0 2.52 2.094c.462.297.929.556 1.4.754.473.194.94.346 1.503.352a2.1 2.1 0 0 0 1.058-.268c.138-.076.262-.181.377-.296.385.543.773.984 1.155 1.33 1.12 1.022 2.199 1.209 2.657 1.199l.17-.008c.414-.038.786-.273.998-.632.019-.033.524-.891 1.057-2.131.14.202.284.394.426.561.809.951 1.57 1.38 1.665 1.434a1.29 1.29 0 0 0 1.017.102c.246-.077.439-.24.598-.435-.196 5.744-.837 13.998-1.397 18.161-.11.813-.164 1.63-.164 2.443 0 3.021.744 6.002 2.153 8.695 1.819 3.478 3.3 6.626 4.314 9.336Zm-11.502-55.586c.6-.091 1.132-.143 1.424-.141l.17.007c.263.033.71.141 1.195.301.734.24 1.582.597 2.257.961.337.18.632.364.838.518.103.076.184.145.234.194l.051.054h.002c.032.046.131.256.219.545.16.511.317 1.269.443 2.087.192 1.231.328 2.611.414 3.674.043.532.074.986.094 1.305l.01.167-2.153 4.367c-.015-.018-.029-.031-.043-.05-.479-.627-.946-1.523-1.047-2.835-.012-.157-.028-.295-.04-.446.005-.114.026-.225.027-.339 0-.361-.027-.726-.09-1.091-.022-.118-.078-.217-.126-.319-.298-2.248-.68-3.534-.698-3.593a1.3 1.3 0 0 0-2.487.755c.013.045.504 1.735.768 4.643-.078 1.067-.47 2.348-.906 3.373-.17.404-.333.747-.483 1.05a3.728 3.728 0 0 1-.453-.378c-.657-.644-1.582-1.986-2.421-4.648-.225-.707-.372-1.568-.453-2.234a18.22 18.22 0 0 1-.097-1.049l-.004-.071a1.3 1.3 0 0 0-2.597.113c.001.024.025.561.118 1.323.094.764.254 1.747.553 2.701.27.853.555 1.598.847 2.261-.132.058-.25.146-.357.244l-.034-.008c-.26-.081-.656-.269-1.072-.525a11.33 11.33 0 0 1-1.846-1.427 6.878 6.878 0 0 1-.656-.715 1.945 1.945 0 0 1-.261-.408c-.309-.837-.718-1.931-.966-3.093a1.3 1.3 0 1 0-2.543.543c.032.145.07.279.105.421a5.573 5.573 0 0 0-3.174 4.913c-.028 1.229-.119 2.795-.24 4.545-1.115-.723-2.373-1.668-3.41-2.75-.68-.707-1.26-1.469-1.657-2.24-.398-.774-.614-1.544-.614-2.324 0-.489.083-.988.28-1.521.14-.39.445-.849.919-1.327.824-.84 2.141-1.706 3.64-2.472 2.25-1.155 4.9-2.111 6.97-2.766a66.468 66.468 0 0 1 3.296-.948l.192-.048.062-.015c.155-.038.291-.11.417-.194.039-.006.076.004.115-.005l.216-.053a86.046 86.046 0 0 1 3.097-.684 39.668 39.668 0 0 1 1.954-.348Zm.694 6.122v.001-.001ZM92.62 27.776c-2.353 1.312-5.273 2.672-7.935 3.689-.791.302-1.555.57-2.276.802.077-.221.236-.534.57-.952.636-.79 1.938-1.917 4.453-3.198 2.096-1.069 3.602-1.374 4.624-1.373.823.004 1.34.185 1.694.379-.358.215-.736.434-1.13.653Zm1.283-6.976c.914.941 1.679 1.86 2.218 2.63.269.383.481.729.626 1.007.066.126.115.236.152.328-.108.136-.31.362-.61.61-.077.065-.181.14-.268.209a4.523 4.523 0 0 0-.537-.446c-.734-.522-1.889-.999-3.428-.994-1.541 0-3.444.453-5.805 1.657-2.733 1.395-4.337 2.7-5.294 3.878-.957 1.17-1.234 2.252-1.227 2.965 0 .123.008.23.02.328-.526.1-.976.155-1.286.153-.11 0-.199-.007-.268-.015-1.867-4.123-4.437-6.638-6.576-8.085-2.19-1.485-3.914-1.886-4.03-1.912a1.3 1.3 0 0 0-1.096.253l-2.832 2.265a4.767 4.767 0 0 1-.025-.45c.001-.738.174-1.435.508-2.131.582-1.215 1.698-2.416 3.171-3.491 2.204-1.618 5.17-2.938 8.008-3.824 2.83-.891 5.568-1.352 7.19-1.347 1.415-.004 3.042.483 4.674 1.31 2.45 1.236 4.889 3.216 6.715 5.102Zm46.689 57.133c.377.206.837.244 1.241.023l4.282-2.342a21.974 21.974 0 0 1-1.682 3.293 26.164 26.164 0 0 1-1.367 2.002c-.18.239-.327.423-.426.546l-.113.137-.027.032-.005.007a1.302 1.302 0 0 0 .094 1.795l1.594 1.5a6.912 6.912 0 0 1-.698 1.166 7.285 7.285 0 0 1-1.91 1.783c-.086-1.57-.29-2.957-.489-4.28-.26-1.72-.503-3.338-.503-5.25 0-.133.007-.276.009-.412Zm8.098 30.776c.1-.801.225-1.598.368-2.244a8.37 8.37 0 0 1 .22-.824c.069-.212.141-.358.164-.393l.005-.005c.067-.089.399-.387.824-.684.284-.202.618-.417.968-.629l1.163-.648c.069-.035.139-.074.207-.107.406-.201.795-.371 1.119-.488a3.02 3.02 0 0 1 .654-.178l.144-.005c.399-.001 1.287.069 2.322.211 1.562.212 3.522.588 5.065 1.083.769.244 1.435.523 1.857.779.211.126.358.245.428.319l.043.052c.099.382.158.944.156 1.586.001 1.159-.174 2.564-.407 3.802-.23 1.234-.527 2.335-.708 2.821.001.029-.198.362-.518.696a10.331 10.331 0 0 1-1.886 1.563 6.261 6.261 0 0 1-.93.506c-.094.04-.164.06-.234.082a1.263 1.263 0 0 0-.247-.173c.267-.613.527-1.3.774-2.081.284-.906.435-1.835.524-2.557a17.3 17.3 0 0 0 .111-1.253 1.3 1.3 0 0 0-2.597-.112l-.004.066c-.015.332-.141 1.914-.513 3.073-.842 2.669-1.771 3.913-2.382 4.46a2.853 2.853 0 0 1-.229.186c-.141-.29-.299-.631-.454-1.009-.392-.936-.731-2.078-.806-3.03.121-1.326.289-2.395.434-3.133.083-.42.158-.737.211-.945.026-.104.047-.181.06-.229l.015-.051.002-.009a1.3 1.3 0 0 0-2.487-.756c-.018.058-.379 1.273-.66 3.394-.045.098-.098.189-.118.299a5.926 5.926 0 0 0-.087 1.042c0 .11.021.216.026.325-.012.139-.027.266-.037.41-.093 1.19-.509 1.997-.942 2.574l-1.726-3.501c-.023-.065-.056-.121-.088-.18l-.148-.299a61.88 61.88 0 0 1 .344-3.806Zm-2.677 42.22c1.517-2.907 1.912-6.059 1.913-9.134 0-.427-.008-.852-.021-1.273-.287-8.974-1.513-21.437-1.688-23.2l-.007-.121c-.015-.438.274-1.209.676-1.768l1.858 3.77c.158.32.436.558.777.665.34.107.704.071 1.017-.101.095-.054.819-.463 1.589-1.369.11-.128.221-.271.33-.422.483 1.104.928 1.86.946 1.891a1.3 1.3 0 0 0 .989.632l.176.008c.446.01 1.484-.174 2.552-1.148a7.64 7.64 0 0 0 1.047-1.195c.096.088.198.169.308.23.362.206.726.262 1.036.262.365-.002.682-.073.99-.169.536-.172 1.05-.434 1.565-.747.522-.32 1.024-.704 1.504-1.104.584.491.965 1.22.983 2.029.105 4.561.559 13.828.559 20.699a92.62 92.62 0 0 1-.09 4.452c-.062 1.262-.168 2.283-.295 2.866-.309 1.451-1.054 3.682-2.166 6.146-1.667 3.703-4.172 7.967-7.238 11.228-1.532 1.633-3.201 3.012-4.952 3.97-1.753.958-3.576 1.498-5.486 1.499-.426 0-.857-.027-1.294-.083-.631-.08-1.13-.227-1.516-.41-.578-.281-.914-.614-1.171-1.087-.252-.474-.407-1.133-.406-2.008-.006-1.534.495-3.674 1.452-6.22.954-2.549 2.349-5.513 4.063-8.788Z"/></g><defs><clipPath id="a"><path fill="#fff" d="M23 10h144.712v180.6H23z"/></clipPath></defs></svg>