<svg xmlns="http://www.w3.org/2000/svg" width="200" height="200" fill="none"><path fill="#FFD93A" d="M162.561 32.51c-1.318-1.45-.839-4.012-.839-4.012s-6.595 2.229-4.796 7.912c1.679-1.114 3.597-.334 3.597-.334-.239-1.672 2.038-3.566 2.038-3.566ZM173.353 7.47c-5.377 4.603-2.398 9.77-2.398 9.77-2.399-.333-5.516.67-5.037 4.348 2.638-3.344 10.792.557 10.792.557-2.518-2.452-.599-5.684-.599-5.684s-1.201-2.16-.92-4.384c.718-5.67 5.289-5.369 7.088-5.554 0 0-4.37-2.953-8.926.947ZM174.912 26.826s-3.598 2.897-2.519 6.018c.241-1.783 3.358-2.34 3.358-2.34-1.079-1.004-.839-3.678-.839-3.678ZM130.222 54.127s-4.01-1.44-5.836.82c.609 2.87.347 4 1.131 6.087.782 2.087 6.396 1.023 5.806-1.575-.59-2.598-1.101-5.333-1.101-5.333ZM141.038 31.47c.599 6.91 7.734 6.835 7.734 6.835s-1.68-3.12-.96-6.13c1.126-4.71 7.435-4.792 7.435-4.792.359-4.012 5.515-4.347 5.515-4.347-1.439-5.015 1.439-5.683 1.439-5.683.839-6.019 6.594-7.356 6.594-7.356-.24-.446-3.357-2.675-5.395-1.784-3.132 1.37-2.638 7.468-2.638 7.468-6.235 1.003-8.754 4.346-8.754 4.346.241-5.461 5.636-7.132 5.636-7.132-.479-4.236 2.638-5.684 2.638-5.684-.959-.446-2.997-.335-2.997-.335-1.919-6.018-7.794-3.232-7.794-3.232 2.758.335 3.117 2.23 3.117 2.23-7.674-.224-6.594 7.578-6.594 7.578-4.797-2.452-1.679-7.579-1.679-7.579-2.518-1.337-5.036-.111-5.036-.111s-3.081-3.438-7.356-1.097c-3.862 2.115-2.476 7.115-2.476 7.115-2.757-.557-2.757-3.01-2.757-3.01s-4.198-.11-4.797 3.233c0 0-4.557-3.232-10.073.557-3.689 2.536-2.756 7.801-2.756 7.801s-3.119 2.675-.72 7.245c1.953 3.722 7.074 3.009 7.074 3.009s1.19 3.283 4.712 3.404l.932 4.584 5.216-1.392-1.036-5.243c.407-.544.508-.982.508-.982 4.633 1.158 6.994-1.857 6.994-1.857 1.799 3.12 8.274 2.34 8.274 2.34Zm3.177-13.878v3.198s2.159-2.718 5.276-1.679c-5.196 4.397-3.996 9.513-3.996 9.513s-2.239-.48-3.199-2.079c-3.461-5.77 1.919-8.953 1.919-8.953Zm-21.906 7.036a6.308 6.308 0 0 0-1.256.049c-1.833.25-2.583 1.083-2.583 1.083l.015.076c-.799.563-1.208 1.109-1.208 1.109s-2.718.48-2.958-3.358c-.24-3.836 4.316-8.473 4.316-8.473s-.011 4.994 2.626 6.353l3.61-1.397.479 5.116c-1.133-.417-2.142-.566-3.041-.558Zm13.832-9.034s-2.638-2.638-1.278-4.956c1.528-2.607 5.116-1.36 5.116-1.36s-3.357 2.08-3.838 6.316ZM85.462 109.655c2.392-.883 3.454-3.54 2.69-6.04-1.12-3.672-6.79-5.063-6.79-5.063s-3.444 4.636-1.872 8.261c1.041 2.399 3.58 3.726 5.972 2.842Z"/><path fill="#191C22" d="M165.377 128.44c-3.771-1.415-7.643-1.842-10.997-1.843-5.487.002-9.607 1.144-9.679 1.163a1.3 1.3 0 0 0-.951 1.18l-.002.084c-.005.057-.039 1.108-1.166 2.86-.945 1.464-2.692 3.427-5.849 5.639.259-2.458.43-4.261.461-4.593.119-.63 1.554-8.22 2.993-16.545.751-4.347 1.503-8.887 2.069-12.738.282-1.927.519-3.68.685-5.158.166-1.481.265-2.672.266-3.543 0-.132-.002-.26-.007-.384v-.001c-.065-1.407-.338-3.923-.747-7.154-1.229-9.677-3.692-25.557-5.471-34.138a115.327 115.327 0 0 0-1.869-7.76 49.093 49.093 0 0 0-.738-2.41 17.131 17.131 0 0 0-.291-.801 4.652 4.652 0 0 0-.273-.594c-.661-1.133-1.679-1.985-2.736-2.742-1.032-.73-2.119-1.345-2.987-1.848l-2.49-11.46h-.002c-.175-.85-.756-1.52-1.433-1.905-.688-.396-1.486-.572-2.34-.573-.425 0-.865.045-1.314.136-1.016.21-1.88.608-2.535 1.206-.652.588-1.092 1.427-1.088 2.332 0 .188.02.38.059.573h-.002l2.235 11.479c-.337.27-.677.559-1.02.893-.304.296-.55.622-.75.96a4.983 4.983 0 0 0-1.668 1.892c-.616 1.21-.817 2.511-.909 3.628a22.086 22.086 0 0 0-.059 1.496c-.003.421-.001.768-.009.92a7.51 7.51 0 0 0-.01.369c.007.38.013.75.206 1.224.099.233.271.51.566.73.292.222.683.33 1.001.325.313-.004.557-.08.784-.173.169.237.343.45.504.63.07.075.134.139.198.204-.047.368-.09.84-.091 1.371.001.534.043 1.125.185 1.73l.001.001c.17.721.559 1.306 1 1.76.667.68 1.462 1.117 2.199 1.42.099.04.187.057.284.092-.055.601-.11 1.35-.166 2.251-.121 1.95-.245 4.557-.366 7.445-2.225-6.744-5.399-12.69-9.795-17.32-2.965-3.12-6.487-5.633-10.602-7.354s-8.816-2.65-14.128-2.649c-3.145 0-6.505.326-10.093 1l-3.28-3.149a1.302 1.302 0 0 0-1.531-.198l-3.492 1.94c-2.471-1.579-5.45-2.41-7.919-2.894-2.707-.521-4.793-.601-4.837-.603a1.298 1.298 0 0 0-1.28.882c-.186.547.01 1.147.482 1.48 1.308.92 2.452 2.219 3.413 3.671.812 1.224 1.477 2.544 2.03 3.818-9.646 3.89-16.748 8.6-21.616 14.066-5.693 6.383-8.268 13.808-8.258 21.821.002 6.902 1.882 14.24 5.177 21.904-.01.004-.02.002-.03.007v-.001c-3.917 1.645-6.24 4.481-7.493 7.346-1.262 2.871-1.528 5.771-1.53 7.816 0 1.679.185 2.788.194 2.841a1.301 1.301 0 0 0 1.911.921l6.529-3.616c-.399 1.266-.689 2.816-.688 4.648 0 1.402.168 2.966.578 4.687a1.301 1.301 0 0 0 1.948.804l6.544-4.042c.78 1.598 2.714 5.001 6.4 8.421 4.983 4.633 13.226 9.233 25.87 9.222 1.42 0 2.893-.057 4.425-.177.866-.069 1.643-.133 2.36-.194a34.772 34.772 0 0 0-1.853 2.923c-1.04 1.825-1.874 3.578-2.428 4.702a1.265 1.265 0 0 0-.435-.071 6.487 6.487 0 0 1-.277.005c-1.605-.005-2.629-.523-3.303-1.024a4.33 4.33 0 0 1-.72-.679l-.154-.199-.026-.039v-.001l-.003.001a1.297 1.297 0 0 0-1.397-.598c-.116.026-2.928.673-6.44 3.089-3.511 2.412-7.712 6.617-10.503 13.643a1.299 1.299 0 0 0 2.28 1.215c1.683-2.456 4.082-3.558 6.154-3.558.99 0 1.897.25 2.635.708.738.462 1.32 1.121 1.691 2.041.16.4.511.697.931.788.421.091.863-.034 1.174-.331l.004-.004c.072-.067.914-.855 2.158-1.735.663-.471 1.447-.96 2.274-1.388-.253.927-.507 1.874-.762 2.855-4.8 14.047-7.52 20.646-9.078 27.189a1.3 1.3 0 0 0 2.53.601c1.23-5.194 3.32-10.668 6.77-20.496.108 6.45.853 12.978.85 19.163 0 .339-.001.678-.005 1.017a1.3 1.3 0 1 0 2.6.03c.003-.348.006-.697.006-1.047-.003-6.868-.875-13.914-.872-20.615 0-2.613.131-5.172.489-7.645.018-.126-.004-.245-.02-.365a165.487 165.487 0 0 1 1.673-5.772c.756-2.423 1.453-4.322 1.944-5.295.573-1.148 1.437-3 2.519-4.898 1.075-1.894 2.38-3.819 3.695-5.023a1.293 1.293 0 0 0-1.705-1.946c-.111-.019-.22-.047-.338-.036-1.203.114-2.72.247-4.623.397a53.927 53.927 0 0 1-4.22.169c-12.012-.01-19.51-4.286-24.103-8.529a28.15 28.15 0 0 1-4.82-5.831 21.39 21.39 0 0 1-1.047-1.895 12.605 12.605 0 0 1-.235-.512l-.052-.124-.01-.026v-.001a1.256 1.256 0 0 0-.419-.534c-.014-.026-.014-.054-.03-.079a1.3 1.3 0 0 0-1.788-.423l-6.064 3.745a16.568 16.568 0 0 1-.172-2.283c.001-2.451.598-4.222 1.174-5.381a8.23 8.23 0 0 1 .776-1.273 5.02 5.02 0 0 1 .234-.29l.052-.057v-.001c.46-.455.514-1.185.126-1.702a1.303 1.303 0 0 0-1.67-.358l-8.632 4.78a19.826 19.826 0 0 1-.007-.512c-.002-1.813.254-4.378 1.31-6.767 1.067-2.393 2.857-4.61 6.125-5.999.026-.011.043-.034.067-.046.051.109.095.218.146.327a1.3 1.3 0 1 0 2.355-1.102c-3.939-8.411-6.128-16.312-6.126-23.485.01-7.469 2.326-14.151 7.6-20.092 4.512-5.073 11.253-9.591 20.617-13.373.044.126.099.267.14.389.322.973.553 1.808.702 2.394.074.293.128.524.163.68l.038.174.01.051a1.297 1.297 0 0 0 1.343 1.045 1.298 1.298 0 0 0 1.227-1.179c.135-1.436.525-2.516 1.102-3.403.864-1.323 2.218-2.277 4.044-3.048.757-.32 1.603-.596 2.492-.856 5.276-1.371 10.036-2.016 14.303-2.016 5.012.001 9.353.871 13.125 2.448 5.653 2.367 10.058 6.328 13.48 11.502 3.417 5.172 5.823 11.56 7.381 18.669.04.181.118.343.221.485-.299 8.548-.522 16.689-.522 16.694l-.001.036a2.86 2.86 0 0 1-.067.434c-.2.977-.84 2.998-1.706 5.522-1.3 3.802-3.117 8.83-4.823 13.861-1.705 5.035-3.299 10.065-4.165 13.954a1.3 1.3 0 0 0 2.538.564c1.168-5.268 3.858-13.115 6.253-19.936 1.199-3.415 2.323-6.579 3.155-9.072a73.83 73.83 0 0 0 1.002-3.2c.122-.437.22-.822.291-1.164a5.02 5.02 0 0 0 .12-.928h.002c0-.004.052-1.909.14-4.849.132-4.41.344-11.138.579-17.208.118-3.035.241-5.906.362-8.237.028-.52.054-1.01.082-1.473v.002c.027.061.044.126.075.184.011.02.024.037.037.056.086.154.179.305.289.432.402.464.908.756 1.444.946a5.208 5.208 0 0 0 1.726.278c.42 0 .854-.044 1.293-.133.985-.204 1.854-.599 2.543-1.16.343-.283.644-.611.874-1.003.228-.39.385-.856.384-1.364 0-.156-.014-.32-.048-.486l-.001-.003c-.014-.073-.051-.137-.072-.208-.004-.066.011-.129-.003-.195l-1.013-4.662a1.274 1.274 0 0 0-.288-.715 4.55 4.55 0 0 0-1.606-1.203 4.326 4.326 0 0 0-1.743-.357c-1.323.01-2.43.513-3.238.968a9.355 9.355 0 0 0-1.118.748c-.553.23-.903.8-.79 1.413l.204 1.099a3.004 3.004 0 0 1-.169-.046c-.446-.13-1.013-.38-1.427-.682a2.406 2.406 0 0 1-.493-.459 1.031 1.031 0 0 1-.203-.394v-.001a4.925 4.925 0 0 1-.113-1.079c.007-.016.022-.026.029-.042.431-1.002 1.193-1.743 2.094-2.306.896-.56 1.91-.913 2.683-1.11a1.3 1.3 0 0 0-.648-2.518h-.001c-.947.245-2.193.665-3.409 1.421a8.84 8.84 0 0 0-1.51 1.2c-.028-.03-.055-.056-.083-.088-.251-.274-.475-.633-.524-.834a.946.946 0 0 1-.033-.263c-.011-.374.207-.984.476-1.453.089-.16.176-.296.256-.416.358-.441.979-1.002 1.732-1.474.771-.488 1.677-.889 2.57-1.07a1.3 1.3 0 0 0-.521-2.547c-1.275.262-2.442.792-3.437 1.418-.347.22-.665.454-.967.692-.001-.039-.004-.077-.003-.117-.001-.447.052-.9.174-1.29.124-.39.304-.71.571-.971a10.368 10.368 0 0 1 2.464-1.803c.701-.365 1.275-.523 1.44-.547.26-.044.518-.102.812-.15.291-.048.603-.084.902-.084.444 0 .831.08 1.122.25.893.516 1.945 1.113 2.86 1.761.916.64 1.672 1.352 1.982 1.913.01.018.068.142.135.317.246.63.666 1.938 1.15 3.728a117.334 117.334 0 0 1 1.597 6.755c1.167 5.627 2.654 14.573 3.875 22.75a535.989 535.989 0 0 1 1.562 11.187c.406 3.194.673 5.713.728 6.945v-.002c.003.074.005.165.005.27.001.672-.087 1.82-.249 3.25-.566 5.028-2.001 13.631-3.292 20.945a1205.795 1205.795 0 0 1-2.239 12.307l-.199 1.058-.018.122a407.743 407.743 0 0 1-1.108 10.338c-.384 3.174-.833 6.443-1.271 8.721-.034.179-.031.369.011.546.001.001.089.373.248 1.067 1.117 4.847 5.673 25.268 6.916 39.81a1.301 1.301 0 0 0 2.591-.222c-.091-1.06-.199-2.148-.321-3.257 2.83-1.282 4.899-3.431 6.817-5.816 1.956-2.44 3.794-5.159 6.128-7.72.919-1.008 1.84-1.633 2.74-2.02a6.67 6.67 0 0 1 2.652-.535c1.47-.002 2.868.452 3.887.921.509.234.921.469 1.2.64.139.086.245.156.313.203l.072.05.014.01a1.299 1.299 0 0 0 2.04-1.339c-.02-.078-.413-1.771-1.544-3.744-.263-.457-.571-.93-.921-1.4l1.132-2.52a1.302 1.302 0 0 0-.923-1.806c-.069-.014-.592-.117-1.421-.117-.923 0-2.243.152-3.707.69-.1-.036-.191-.081-.292-.114a18.67 18.67 0 0 0-3.371-.759l-.267-1.887a1.301 1.301 0 0 0-1.993-.91c-.073.048-1.093.715-2.307 2.083-.306.344-.624.734-.942 1.169a12.16 12.16 0 0 0-1.532.597c-2.201 1.06-3.821 2.576-5.27 3.714l-.011.008-1.212-3.729a1.301 1.301 0 0 0-2.289-.361c-.013.02-1.083 1.492-2.331 3.54a452.217 452.217 0 0 0-3.412-16.188c1.611-.992 2.999-1.28 4.143-1.284a6.424 6.424 0 0 1 2.445.479c.288.118.509.236.65.318l.149.092.027.017.001.001v-.001c.291.21.661.292 1.013.223.355-.07.67-.29.858-.599 1.638-2.688 3.286-4.271 4.782-5.188 1.498-.915 2.856-1.19 4.031-1.193 1.086 0 2.015.248 2.663.496.324.124.577.246.741.334l.177.099.035.021.004.002c.324.211.73.267 1.1.151.372-.117.674-.399.818-.762.942-2.386 2.645-4.485 4.704-5.967 2.059-1.485 4.457-2.342 6.753-2.339a8.57 8.57 0 0 1 3.955.94 1.3 1.3 0 0 0 1.651-1.913c-2.812-3.938-6.482-6.367-10.249-7.779Zm-35.472-68.792c.056.029.092.054.117.075-.043.085-.189.273-.464.453-.302.202-.736.39-1.234.49-.27.055-.532.08-.773.08-.465.003-.848-.1-1.041-.206a.723.723 0 0 1-.117-.075c.043-.085.189-.273.465-.453a3.52 3.52 0 0 1 1.233-.49c.272-.055.534-.08.775-.08.464-.003.846.1 1.039.206Zm-3.927-4.596c.577-.329 1.315-.602 1.893-.594.256.001.481.044.7.139.143.063.29.166.441.296l.433 1.993c-.191-.02-.381-.044-.579-.044-.421 0-.855.043-1.294.133a6.282 6.282 0 0 0-1.719.624l-.41-2.213c.154-.105.328-.219.535-.334Zm-1.709-18.461c-.37.061-.678.128-.819.151-.477.083-1.124.286-1.914.664l-2.041-10.48-.004-.02-.005-.056c.003-.08.021-.203.243-.415.219-.203.648-.443 1.3-.575a3.98 3.98 0 0 1 .794-.084c.483-.002.848.11 1.034.221.192.12.188.171.197.192l.003.017 2.234 10.283a8.991 8.991 0 0 0-1.022.102Zm21.182 138.915c.388-.342.537-.885.377-1.377l-.811-2.494c1.334-.969 2.539-2.087 3.871-2.993-.139.38-.272.771-.388 1.184a1.302 1.302 0 0 0 .61 1.483 1.302 1.302 0 0 0 1.584-.236v.001a9.04 9.04 0 0 1 1.494-1.183c.911-.587 2.157-1.171 3.546-1.303.35-.034.678-.213.896-.49.217-.277.314-.637.265-.986l-.024-.174c.681.123 1.407.299 2.195.552 1.125.362 2.046.965 2.819 1.693.784.736 1.392 1.602 1.864 2.428-1.067-.371-2.33-.668-3.736-.67a9.28 9.28 0 0 0-3.677.746c-1.254.536-2.494 1.402-3.638 2.659-2.486 2.735-4.369 5.526-6.232 7.841-1.626 2.027-3.213 3.661-5.119 4.711a233.258 233.258 0 0 0-1.083-7.535c.874-.516 2.777-1.734 5.187-3.857Z"/><path fill="#191C22" d="M107.393 57.782c-3.665-3.283-8.315-4.497-12.693-4.496-4.417.007-8.597 1.206-11.55 2.922a1.3 1.3 0 1 0 1.312 2.245c2.473-1.452 6.308-2.573 10.238-2.567 3.919.002 7.892 1.081 10.957 3.832a1.3 1.3 0 0 0 1.736-1.936ZM45.947 73.013c3.169-2.436 6.886-3.901 9.683-4.262a1.3 1.3 0 0 0-.339-2.578c-3.347.447-7.376 2.065-10.925 4.776-3.537 2.71-6.596 6.557-7.697 11.461a1.3 1.3 0 1 0 2.537.569c.93-4.162 3.56-7.527 6.741-9.966ZM93.784 87.97c.377.663.775 1.26 1.214 1.775.439.514.92.955 1.496 1.272.717.398 1.54.632 2.398.627.789-.001 1.587-.172 2.476-.463.891-.293 1.884-.71 3.084-1.257 1.875-.86 3.071-1.548 3.944-2.414.432-.431.764-.912.998-1.409.235-.497.377-.996.492-1.5.116-.52.17-1.159.172-1.982-.004-2.565-.602-6.8-2.879-11.222-1.784-3.448-5.489-5.602-9.573-5.602-.632 0-1.274.051-1.918.158-1.848.302-3.798 1.078-5.414 2.66a4.485 4.485 0 0 0-1.366 3.206c0 .265.024.534.075.802.608 3.233 1.56 7.23 2.772 10.691.608 1.733 1.278 3.331 2.03 4.657Zm4.594-7.293a1.3 1.3 0 0 1-1.808-.333l-.153-.223a1.3 1.3 0 1 1 2.141-1.474l.154.222a1.3 1.3 0 0 1-.334 1.808Zm-2.5-9.758a3.135 3.135 0 0 1 .988-1.209h.001c.589-.444 1.285-.708 1.981-.705a3.139 3.139 0 0 1 1.709.527c.478.31.861.704 1.188 1.133.65.86 1.093 1.873 1.371 2.86.182.658.289 1.3.29 1.913 0 .272-.021.54-.081.816a2.331 2.331 0 0 1-.367.86 1.82 1.82 0 0 1-.582.533l-.002.001a3.085 3.085 0 0 1-1.534.402 3.866 3.866 0 0 1-1.571-.355 5.645 5.645 0 0 1-1.318-.837 7.195 7.195 0 0 1-1.892-2.48c-.286-.634-.477-1.315-.479-2.037 0-.468.085-.958.299-1.422ZM88.983 72.621v-.004.004ZM47.837 101.764a20.649 20.649 0 0 0 1.62 2.566c.515.682.956 1.173 1.379 1.524.451.371.935.72 1.526.972.59.254 1.264.384 1.994.382 1.076-.004 2.292-.245 3.968-.714 1.951-.552 3.34-1.012 4.456-1.651a5.818 5.818 0 0 0 1.443-1.142c.403-.447.71-.958.939-1.5v-.001c.314-.751.417-1.562.42-2.432-.002-1.185-.205-2.494-.53-3.894-.984-4.186-3.111-9.211-4.942-12.927a4.217 4.217 0 0 0-3.462-2.336c-.25-.02-.496-.03-.74-.03-1.931 0-3.653.624-5.093 1.482-3.687 2.2-5.852 6.069-5.858 9.972 0 .567.046 1.134.142 1.696a26.333 26.333 0 0 0 2.738 8.033Zm7.31-5.533a1.3 1.3 0 0 1-1.807-.334l-.154-.222a1.3 1.3 0 1 1 2.142-1.475l.153.223a1.3 1.3 0 0 1-.333 1.808Zm-2.499-9.758a3.14 3.14 0 0 1 .988-1.21c.589-.443 1.285-.708 1.981-.704a3.14 3.14 0 0 1 1.71.526c.477.31.86.705 1.187 1.133.65.86 1.093 1.874 1.37 2.86.182.659.29 1.3.29 1.913 0 .272-.02.54-.08.816-.062.275-.16.566-.367.861a1.83 1.83 0 0 1-.583.533l-.001.001a3.081 3.081 0 0 1-1.534.402 3.868 3.868 0 0 1-1.57-.355 5.645 5.645 0 0 1-1.318-.837 7.2 7.2 0 0 1-1.892-2.48c-.287-.634-.477-1.315-.48-2.038 0-.468.086-.957.3-1.421ZM80.318 97.777c-.03.043-.641.865-1.263 2.123-.617 1.261-1.269 2.954-1.276 4.824 0 .852.145 1.745.519 2.607a6.66 6.66 0 0 0 2.276 2.815 5.873 5.873 0 0 0 3.367 1.084c.655 0 1.322-.115 1.971-.355a5.66 5.66 0 0 0 2.814-2.258c.643-1 .97-2.177.97-3.384 0-.663-.098-1.337-.3-1.998l-1.243.38 1.243-.38c-.365-1.193-1.082-2.152-1.888-2.908-1.215-1.135-2.652-1.864-3.795-2.342-1.143-.474-1.997-.684-2.042-.695a1.303 1.303 0 0 0-1.353.487Zm3.553 3.154c.683.363 1.369.82 1.911 1.342.545.524.938 1.098 1.127 1.721.127.416.188.834.188 1.239 0 .737-.202 1.425-.557 1.977a3.047 3.047 0 0 1-1.528 1.226 3.082 3.082 0 0 1-1.07.194 3.276 3.276 0 0 1-1.877-.614 4.065 4.065 0 0 1-1.382-1.72 3.914 3.914 0 0 1-.304-1.572c-.007-1.229.483-2.622 1.007-3.672.188-.382.368-.696.532-.968.529.184 1.235.462 1.953.847ZM118.109 55.106h.001-.001s-.001 0 0 0Z"/></svg>