<svg xmlns="http://www.w3.org/2000/svg" width="200" height="200" fill="none"><path fill="#FFE632" d="M163.404 8.216c-3.13 1.37-2.641 7.47-2.641 7.47-6.229 1-8.75 4.34-8.75 4.34.241-5.46 5.631-7.13 5.631-7.13-.48-4.23 2.64-5.68 2.64-5.68-.96-.45-3-.34-3-.34-1.91-6.02-7.79-3.23-7.79-3.23 2.76.33 3.12 2.23 3.12 2.23-7.68-.22-6.601 7.58-6.601 7.58-4.789-2.451-1.679-7.58-1.679-7.58-2.51-1.34-5.03-.11-5.03-.11s-3.08-3.44-7.36-1.1c-3.86 2.12-2.47 7.12-2.47 7.12-2.76-.56-2.76-3.01-2.76-3.01s-4.201-.11-4.8 3.229c0 0-4.55-3.23-10.071.56-3.689 2.53-2.759 7.8-2.759 7.8s-3.11 2.67-.72 7.24c1.96 3.72 7.08 3.01 7.08 3.01s.721 1.985 2.691 2.929l.132.68 1.001 5.112a1.3 1.3 0 1 0 2.551-.5l-1-5.11-1.319-6.798-.003-.015-.006-.06c.003-.059.009-.123.119-.265l.029-.036c.147-.205.591-.53 1.397-.693a3.95 3.95 0 0 1 .793-.085c.295 0 .542.04.73.1l.014.005c.223.067.36.157.421.215l.064.093.005.023 1.21 5.6 1.351 6.212a1.3 1.3 0 1 0 2.541-.552l-1.351-6.211-.018-.084c3.952.519 5.967-2.04 5.967-2.04 1.801 3.12 8.282 2.34 8.282 2.34.599 6.91 7.729 6.83 7.729 6.83s-1.681-3.12-.96-6.13c1.13-4.709 7.439-4.79 7.439-4.79.361-4.01 5.51-4.35 5.51-4.35-1.439-5.01 1.441-5.68 1.441-5.68.841-6.02 6.6-7.36 6.6-7.36-.24-.44-3.36-2.67-5.4-1.779Zm-27.259 7.38s-2.638-2.639-1.278-4.956c1.527-2.608 5.115-1.36 5.115-1.36s-3.356 2.079-3.837 6.316Zm9.353 13.03s-2.239-.48-3.198-2.079c-3.461-5.77 1.918-8.953 1.918-8.953v3.198s2.16-2.719 5.277-1.68c-5.197 4.397-3.997 9.513-3.997 9.513ZM156.929 36.412c-1.799-5.683 4.796-7.913 4.796-7.913s-.479 2.564.839 4.013c0 0-2.278 1.895-2.038 3.566 0 0-1.918-.78-3.597.334ZM182.282 6.525s-4.37-2.954-8.926.948c-5.376 4.602-2.399 9.77-2.399 9.77-2.397-.335-5.515.668-5.036 4.346 2.639-3.343 10.791.558 10.791.558-2.517-2.452-.598-5.685-.598-5.685s-1.201-2.16-.92-4.383c.718-5.67 5.289-5.369 7.088-5.554ZM172.396 32.846c-1.079-3.121 2.519-6.018 2.519-6.018s-.24 2.674.839 3.678c0 0-3.118.557-3.358 2.34ZM98.56 79.375a1.3 1.3 0 1 0-2.14 1.476l.155.224a1.3 1.3 0 1 0 2.14-1.476l-.155-.224ZM103.118 74.253c-.277-.985-.72-1.999-1.37-2.86a4.795 4.795 0 0 0-1.188-1.132 3.143 3.143 0 0 0-1.71-.527c-.696-.003-1.393.261-1.981.707-.434.32-.776.745-.987 1.208-.213.464-.3.953-.299 1.421.002.722.193 1.403.48 2.037a7.198 7.198 0 0 0 1.892 2.48c.4.335.838.623 1.317.837a3.867 3.867 0 0 0 1.571.355 3.089 3.089 0 0 0 1.532-.4l.004-.003c.25-.142.445-.337.583-.532.206-.296.304-.587.366-.861.06-.276.08-.544.081-.816-.002-.613-.109-1.254-.291-1.914Z"/><path fill="#FFE632" d="M96.867 70.441h.001l.002-.002-.003.002ZM54.528 95.48a1.3 1.3 0 1 0-2.14 1.476l.155.224a1.3 1.3 0 1 0 2.14-1.477l-.155-.223ZM59.086 90.358c-.277-.986-.72-2-1.37-2.86a4.781 4.781 0 0 0-1.188-1.133 3.141 3.141 0 0 0-1.71-.527c-.696-.003-1.392.261-1.98.705h-.001v.001a3.136 3.136 0 0 0-.987 1.209c-.214.463-.3.953-.3 1.421.003.722.193 1.403.48 2.038a7.196 7.196 0 0 0 1.893 2.48c.4.335.837.623 1.317.837a3.87 3.87 0 0 0 1.57.355 3.085 3.085 0 0 0 1.534-.401l.003-.002c.25-.143.445-.338.582-.533a2.34 2.34 0 0 0 .367-.86c.06-.276.08-.544.08-.816-.001-.614-.108-1.255-.29-1.915ZM123.824 60.992v-.001l-.001-.002.001.003ZM127.574 56.977h.003-.003Z"/><path fill="#FFE632" d="m132.601 59.202-.07.014v-.002l.069-.014c-.015-.073-.051-.137-.072-.208-.004-.066.011-.13-.003-.196l-1.029-4.73a1.3 1.3 0 1 0-2.54.552l.493 2.27c-.191-.02-.381-.044-.578-.045-.422 0-.856.045-1.294.134a6.229 6.229 0 0 0-1.78.655l-.517-2.496a1.3 1.3 0 1 0-2.546.527l1.077 5.207c.007.04.004.08.013.121.006.032.024.06.031.09l.028.133c.018.088.067.158.101.237.029.069.052.139.086.203l.04.059c.083.145.169.29.274.41.402.465.908.757 1.443.947a5.2 5.2 0 0 0 1.726.278c.42 0 .855-.043 1.295-.133.985-.203 1.854-.598 2.543-1.16.343-.283.644-.611.873-1.003.228-.39.385-.856.385-1.363 0-.157-.015-.32-.048-.487Zm-3.04.975c-.302.203-.735.39-1.233.49-.27.056-.533.081-.775.081-.464.003-.846-.101-1.039-.206a.646.646 0 0 1-.117-.076c.043-.085.188-.273.464-.453a3.519 3.519 0 0 1 1.233-.488h.002c.272-.056.535-.082.775-.082.463-.002.845.101 1.038.206a.703.703 0 0 1 .117.076c-.043.085-.189.273-.465.452Z"/><path fill="#BEBEC9" d="M124.357 55.952a5.65 5.65 0 0 1 1.178-.82 5.02 5.02 0 0 1 2.29-.589H127.867c1.032-.001 1.844.33 2.291.558a1.3 1.3 0 0 0 1.177-2.319 7.676 7.676 0 0 0-3.468-.84l-.072.001h.006a7.623 7.623 0 0 0-3.47.884 8.235 8.235 0 0 0-1.722 1.2 1.3 1.3 0 1 0 1.748 1.925Z"/><path fill="#BEBEC9" d="M175.631 136.22c-2.813-3.937-6.483-6.366-10.251-7.779-3.771-1.415-7.643-1.841-10.997-1.842-5.487.002-9.606 1.144-9.678 1.162-.537.149-.918.62-.95 1.177l-.003.087c-.005.057-.039 1.108-1.166 2.86-.945 1.464-2.692 3.427-5.849 5.64.259-2.457.429-4.261.461-4.593.118-.627 1.553-8.217 2.992-16.544.752-4.345 1.503-8.885 2.069-12.737.282-1.926.519-3.68.685-5.158.166-1.481.265-2.672.266-3.543 0-.134-.002-.261-.007-.386-.065-1.408-.337-3.925-.747-7.156-1.228-9.677-3.691-25.556-5.47-34.138a115.327 115.327 0 0 0-1.869-7.76 50.324 50.324 0 0 0-.738-2.41 17.165 17.165 0 0 0-.291-.8 4.574 4.574 0 0 0-.274-.594l.001.002c-.661-1.135-1.679-1.987-2.736-2.744-1.06-.749-2.182-1.38-3.061-1.89-.827-.478-1.692-.599-2.424-.6-.498.001-.948.058-1.322.119-.37.061-.678.128-.818.151-.537.092-1.275.325-2.205.8a12.953 12.953 0 0 0-3.086 2.252 4.588 4.588 0 0 0-.751.96 4.984 4.984 0 0 0-1.668 1.893c-.616 1.209-.817 2.51-.909 3.628a22.088 22.088 0 0 0-.059 1.496c-.003.421-.001.767-.009.92-.006.122-.01.244-.01.369.007.38.013.749.206 1.224.099.233.272.51.567.73.291.222.682.33 1 .324.313-.004.557-.08.784-.172.169.236.342.45.504.63.069.075.133.138.198.203-.047.37-.09.842-.091 1.374.001.533.042 1.123.184 1.728.172.722.561 1.307 1.001 1.76.668.68 1.463 1.118 2.2 1.42.099.041.187.058.284.093-.055.6-.11 1.35-.166 2.25-.121 1.95-.246 4.554-.366 7.44-2.226-6.739-5.399-12.681-9.793-17.31-2.964-3.12-6.485-5.633-10.598-7.354-4.114-1.722-8.812-2.65-14.122-2.65-3.144 0-6.507.333-10.094 1.008l-3.292-3.16a1.302 1.302 0 0 0-1.531-.198l-3.491 1.94c-2.472-1.58-5.452-2.41-7.92-2.893-2.707-.523-4.793-.602-4.837-.604a1.297 1.297 0 0 0-1.281.882c-.185.547.01 1.147.483 1.48 1.308.92 2.453 2.219 3.414 3.671.812 1.223 1.476 2.541 2.03 3.814-10.25 4.138-17.633 9.202-22.507 15.112-5.074 6.144-7.376 13.2-7.368 20.781.003 6.902 1.882 14.239 5.178 21.902-.01.004-.02.002-.03.006-3.917 1.644-6.24 4.48-7.493 7.346-1.262 2.87-1.528 5.77-1.53 7.816 0 1.678.185 2.788.194 2.841a1.3 1.3 0 0 0 1.912.92l6.528-3.615c-.4 1.266-.69 2.817-.688 4.649 0 1.402.167 2.965.578 4.685.096.406.382.741.767.901.386.159.825.123 1.18-.096l6.545-4.042c.78 1.598 2.714 5.001 6.4 8.421 4.983 4.633 13.226 9.232 25.872 9.222 1.418 0 2.892-.058 4.422-.178.867-.068 1.644-.132 2.36-.193a34.609 34.609 0 0 0-1.852 2.923c-1.041 1.825-1.874 3.578-2.428 4.702a1.265 1.265 0 0 0-.435-.071v-.001a6.347 6.347 0 0 1-.278.006c-1.605-.005-2.629-.523-3.303-1.024a4.36 4.36 0 0 1-.72-.679l-.154-.199-.026-.039-.001-.001-.002.001a1.297 1.297 0 0 0-1.397-.598c-.116.027-2.928.674-6.44 3.089-3.51 2.412-7.71 6.617-10.502 13.643a1.299 1.299 0 0 0 2.281 1.214c1.681-2.456 4.08-3.558 6.152-3.558.991 0 1.898.25 2.636.709.738.461 1.32 1.12 1.691 2.041a1.3 1.3 0 0 0 2.105.456l.005-.003c.07-.068.913-.856 2.157-1.736.663-.471 1.446-.96 2.274-1.388-.253.927-.507 1.875-.762 2.856-4.8 14.047-7.52 20.645-9.078 27.189a1.3 1.3 0 0 0 2.53.601v-.001c1.23-5.193 3.32-10.667 6.77-20.495.108 6.452.853 12.982.85 19.169 0 .338-.001.674-.005 1.01a1.3 1.3 0 0 0 2.6.032c.004-.348.005-.694.005-1.042-.002-6.87-.874-13.917-.871-20.619 0-2.614.131-5.174.489-7.647.018-.126-.004-.245-.02-.365a164.832 164.832 0 0 1 1.673-5.772c.756-2.423 1.453-4.322 1.944-5.296.573-1.147 1.437-2.999 2.519-4.897 1.075-1.894 2.38-3.82 3.695-5.023a1.293 1.293 0 0 0-1.705-1.946c-.112-.02-.22-.047-.339-.036-1.203.114-2.718.247-4.622.396-1.465.115-2.87.17-4.218.17-12.013-.01-19.512-4.286-24.105-8.529a28.146 28.146 0 0 1-4.82-5.831c-.487-.79-.83-1.445-1.047-1.895a13.267 13.267 0 0 1-.235-.512l-.052-.124-.01-.026v-.001a1.26 1.26 0 0 0-.42-.534c-.012-.026-.013-.054-.028-.079a1.3 1.3 0 0 0-1.79-.423l-6.064 3.745a16.552 16.552 0 0 1-.172-2.282c.002-2.451.598-4.223 1.175-5.383a8.239 8.239 0 0 1 .776-1.273c.102-.135.183-.231.234-.289l.052-.058c.46-.456.513-1.185.125-1.703a1.304 1.304 0 0 0-1.67-.358l-8.631 4.781a20.363 20.363 0 0 1-.007-.512c-.002-1.813.254-4.379 1.31-6.767 1.067-2.393 2.857-4.61 6.125-6 .026-.011.043-.033.068-.046.05.109.093.216.144.325a1.3 1.3 0 0 0 2.355-1.103c-3.94-8.41-6.128-16.308-6.126-23.478.008-7.067 2.086-13.429 6.774-19.128 4.505-5.468 11.487-10.32 21.443-14.343.044.127.1.268.14.391.324.974.554 1.809.703 2.395.074.293.128.524.163.68l.038.174.01.05a1.297 1.297 0 0 0 1.343 1.046 1.298 1.298 0 0 0 1.227-1.178c.135-1.437.525-2.517 1.102-3.405.865-1.322 2.218-2.276 4.044-3.047.766-.324 1.623-.604 2.524-.866h.015v-.001c5.265-1.37 10.009-2.001 14.268-2.001 5.01 0 9.348.87 13.118 2.447 5.651 2.368 10.055 6.329 13.476 11.502 3.417 5.17 5.823 11.557 7.381 18.662.039.181.117.343.219.484-.299 8.55-.522 16.693-.522 16.699l-.001.036c.003 0-.013.183-.067.434-.2.977-.84 2.998-1.705 5.522-1.301 3.802-3.118 8.829-4.823 13.861-1.706 5.035-3.3 10.064-4.165 13.953a1.3 1.3 0 0 0 2.538.565c1.169-5.268 3.858-13.115 6.253-19.936 1.198-3.415 2.322-6.579 3.154-9.072a72.541 72.541 0 0 0 1.002-3.2c.122-.437.22-.822.291-1.164.067-.334.114-.612.119-.927h.003a2087.286 2087.286 0 0 1 .719-22.058c.118-3.035.241-5.906.363-8.237.1-1.928.202-3.493.293-4.44.364-.268.591-.703.535-1.183a1.296 1.296 0 0 0-1.404-1.137v-.007a2.63 2.63 0 0 1-.562-.115 4.938 4.938 0 0 1-1.428-.683 2.454 2.454 0 0 1-.493-.459 1.018 1.018 0 0 1-.203-.394 4.982 4.982 0 0 1-.113-1.078c.008-.017.023-.026.03-.043.431-1.002 1.193-1.743 2.094-2.306.896-.56 1.91-.913 2.683-1.111a1.3 1.3 0 0 0-.649-2.518c-.947.245-2.193.666-3.409 1.422a8.837 8.837 0 0 0-1.51 1.2c-.028-.03-.055-.056-.083-.088-.251-.274-.476-.633-.524-.834a.96.96 0 0 1-.033-.264c-.011-.373.207-.983.476-1.452.09-.162.178-.3.258-.42.359-.44.979-1 1.729-1.47.772-.488 1.678-.89 2.57-1.07a1.3 1.3 0 0 0-.52-2.547c-1.275.261-2.442.791-3.437 1.418-.348.22-.665.454-.967.692-.001-.04-.004-.077-.004-.117 0-.447.053-.901.175-1.29.124-.392.304-.71.572-.973a10.367 10.367 0 0 1 2.462-1.802c.701-.365 1.276-.522 1.439-.546.262-.044.521-.103.815-.15.29-.049.602-.085.9-.084.446 0 .832.079 1.12.249.896.517 1.949 1.114 2.863 1.762.917.64 1.672 1.353 1.982 1.913V43c.01.017.068.14.135.316.245.629.665 1.937 1.149 3.728a118.109 118.109 0 0 1 1.598 6.754c1.167 5.627 2.654 14.574 3.875 22.75a528.726 528.726 0 0 1 1.561 11.187c.406 3.194.674 5.714.728 6.945.003.073.005.164.005.27.001.672-.087 1.822-.249 3.252-.567 5.028-2.001 13.63-3.291 20.943-.646 3.659-1.256 7.001-1.704 9.427-.224 1.214-.408 2.198-.535 2.879l-.199 1.058-.018.122a406.928 406.928 0 0 1-1.108 10.338c-.384 3.174-.833 6.443-1.271 8.721-.035.179-.031.369.011.546.001.001.089.373.248 1.067 1.117 4.847 5.672 25.267 6.915 39.81a1.301 1.301 0 0 0 2.591-.222c-.091-1.061-.199-2.15-.321-3.26 2.831-1.28 4.901-3.428 6.819-5.813 1.956-2.44 3.794-5.159 6.127-7.717.919-1.008 1.839-1.633 2.739-2.019a6.646 6.646 0 0 1 2.651-.536c1.469-.002 2.867.452 3.886.922a11.157 11.157 0 0 1 1.513.842l.072.051.014.01v-.001a1.3 1.3 0 0 0 2.04-1.338c-.019-.074-.374-1.602-1.376-3.444a14.436 14.436 0 0 0-1.09-1.696l1.136-2.528a1.3 1.3 0 0 0-.922-1.806c-.07-.014-.592-.117-1.422-.117-.919 0-2.233.151-3.691.684l-.3-.102-.015-.005a18.975 18.975 0 0 0-3.365-.77l-.265-1.878a1.301 1.301 0 0 0-1.993-.91c-.073.048-1.093.716-2.308 2.084-.307.345-.627.737-.946 1.174-1.828.594-3.316 1.552-4.578 2.522-.812.628-1.543 1.243-2.232 1.788l-1.212-3.725a1.3 1.3 0 0 0-2.288-.361c-.014.02-1.083 1.493-2.331 3.541a455.56 455.56 0 0 0-3.412-16.189c1.61-.993 2.998-1.28 4.143-1.285 1.026 0 1.867.241 2.445.479.288.119.509.236.65.318l.149.092.027.018v.001l.001-.001a1.295 1.295 0 0 0 1.871-.376c1.638-2.688 3.286-4.271 4.782-5.189 1.498-.915 2.856-1.189 4.032-1.192a7.512 7.512 0 0 1 3.404.829l.177.1.035.021.004.002v-.001a1.303 1.303 0 0 0 1.918-.61c.942-2.387 2.645-4.486 4.704-5.968 2.059-1.485 4.457-2.342 6.752-2.34a8.576 8.576 0 0 1 3.956.941 1.3 1.3 0 0 0 1.651-1.913Zm-99.818 20.576c-.26.828-.528 1.732-.8 2.666-1.87.641-3.545 1.653-4.808 2.556-.41.293-.769.57-1.083.822a6.704 6.704 0 0 0-1.87-1.762c-1.19-.739-2.58-1.1-4.007-1.1a9.15 9.15 0 0 0-3.337.65c2.194-3.425 4.694-5.7 6.88-7.207a20.933 20.933 0 0 1 3.993-2.171c.31-.125.565-.217.79-.293.236.252.539.538.919.825.973.739 2.488 1.454 4.5 1.531-.37.993-.761 2.157-1.177 3.483Zm-9.086-111.96c-1.264.764-2.378 1.743-3.205 3.01-.053.08-.093.171-.143.254a37.174 37.174 0 0 0-.418-1.134c-.003-.01-.001-.02-.005-.03-.004-.01-.013-.017-.017-.028l-.19-.48c-.65-1.599-1.493-3.343-2.582-4.986A20.208 20.208 0 0 0 59 39.872c.388.065.787.138 1.205.225 2.41.496 5.203 1.397 7.105 2.81a1.3 1.3 0 0 0 1.403.09l3.343-1.856 1.281 1.23c-2.422.597-4.688 1.307-6.61 2.465Zm79.105 129.294-.808-2.484c1.028-.746 1.974-1.585 2.966-2.345.297-.228.596-.446.901-.655-.139.379-.271.77-.387 1.181a1.303 1.303 0 0 0 .61 1.484 1.304 1.304 0 0 0 1.584-.237v.001a9.075 9.075 0 0 1 1.494-1.182c.91-.587 2.157-1.171 3.545-1.303.356-.035.675-.209.896-.49.221-.28.316-.632.266-.985l-.024-.174c.678.123 1.401.3 2.188.552.151.05.278.095.39.137.082.051.176.081.27.112l.01.004v.001c.989.432 1.81 1.061 2.498 1.784.624.654 1.119 1.383 1.519 2.086-1.066-.372-2.33-.669-3.735-.67a9.256 9.256 0 0 0-3.676.745c-1.254.537-2.494 1.402-3.637 2.659-2.486 2.731-4.368 5.523-6.231 7.838-1.627 2.027-3.214 3.661-5.121 4.709a235.52 235.52 0 0 0-1.082-7.533c.874-.516 2.776-1.734 5.187-3.857.388-.342.536-.885.377-1.378Zm-4.52-5.49 1.778 5.466a35.71 35.71 0 0 1-2.956 2.26l-.702-4.576a53.967 53.967 0 0 1 1.88-3.15Zm28.712-34.047c-2.939.002-5.829 1.071-8.272 2.83a16.405 16.405 0 0 0-5.021 5.848 10.114 10.114 0 0 0-3.701-.712c-1.597-.003-3.481.401-5.392 1.576-1.68 1.03-3.371 2.637-4.979 5.018-.053-.023-.095-.045-.151-.069-.824-.339-2-.674-3.435-.675-1.13-.003-2.417.217-3.781.78.394-2.586.765-5.575 1.075-8.303 4.697-2.934 7.21-5.666 8.533-7.796.783-1.257 1.141-2.291 1.308-3.017a38.984 38.984 0 0 1 8.175-.874c3.133-.001 6.705.406 10.083 1.676 2.222.838 4.354 2.047 6.263 3.757-.235-.014-.47-.039-.705-.039Z"/><path fill="#BEBEC9" d="M84.466 58.455c2.472-1.452 6.307-2.574 10.236-2.567 3.92.002 7.893 1.081 10.959 3.832a1.3 1.3 0 0 0 1.736-1.936c-3.665-3.283-8.316-4.498-12.695-4.496-4.416.007-8.596 1.205-11.548 2.922a1.3 1.3 0 1 0 1.312 2.245ZM45.951 73.015c3.169-2.437 6.886-3.902 9.683-4.263a1.3 1.3 0 0 0-.339-2.578c-3.348.447-7.377 2.066-10.925 4.777-3.537 2.71-6.596 6.557-7.698 11.461a1.3 1.3 0 0 0 2.538.569c.93-4.162 3.56-7.527 6.741-9.966ZM110.06 82.623c-.003-2.564-.601-6.8-2.878-11.225-1.784-3.448-5.488-5.601-9.572-5.602-.632 0-1.275.051-1.921.16l.002-.001c-1.85.301-3.798 1.08-5.413 2.66a4.486 4.486 0 0 0-1.367 3.206c0 .265.024.533.075.801v-.003c.607 3.234 1.56 7.232 2.772 10.695.608 1.733 1.277 3.33 2.029 4.657.377.663.774 1.26 1.213 1.775.44.515.92.955 1.496 1.272a4.888 4.888 0 0 0 2.4.627c.789 0 1.586-.172 2.475-.463.891-.293 1.884-.71 3.084-1.257 1.874-.86 3.07-1.547 3.943-2.413.433-.43.765-.912.999-1.408.235-.498.376-.997.492-1.501.115-.52.169-1.158.171-1.98Zm-2.706 1.402c-.094.413-.19.72-.307.965-.178.364-.389.65-.933 1.067-.542.41-1.413.9-2.738 1.502-1.158.529-2.082.913-2.815 1.153-.735.242-1.269.335-1.665.334-.435-.006-.733-.086-1.154-.31-.193-.103-.467-.325-.762-.675-.522-.608-1.098-1.583-1.642-2.773-1.647-3.58-3.032-9.047-3.797-13.149l-.001-.003a1.694 1.694 0 0 1-.029-.315c.001-.471.188-.958.584-1.346 1.173-1.144 2.56-1.712 4.019-1.955h.002a9.077 9.077 0 0 1 1.494-.124c3.174 0 5.967 1.678 7.262 4.195 2.051 3.966 2.592 7.861 2.588 10.032.002.68-.058 1.203-.106 1.402ZM47.841 101.766a20.649 20.649 0 0 0 1.62 2.566c.515.682.956 1.173 1.379 1.524.451.371.935.719 1.526.971a4.97 4.97 0 0 0 1.993.381c1.076-.003 2.292-.244 3.969-.712 1.951-.552 3.34-1.012 4.456-1.651a5.804 5.804 0 0 0 1.443-1.143c.402-.447.71-.958.938-1.501.314-.751.417-1.562.42-2.431-.002-1.186-.204-2.495-.53-3.894-.984-4.187-3.11-9.212-4.94-12.928a4.22 4.22 0 0 0-3.463-2.335h.004-.005a8.688 8.688 0 0 0-.738-.031c-1.932 0-3.654.626-5.094 1.484-3.687 2.198-5.852 6.067-5.858 9.97 0 .567.046 1.135.142 1.697a26.333 26.333 0 0 0 2.738 8.033ZM52.148 84.3c1.146-.68 2.401-1.118 3.765-1.118.174 0 .347.007.52.022h.005c.632.056 1.094.398 1.345.895 1.18 2.392 2.498 5.383 3.508 8.254.505 1.435.934 2.84 1.232 4.115.299 1.273.463 2.42.462 3.301.002.646-.092 1.14-.214 1.419-.14.329-.288.563-.479.777-.284.316-.705.619-1.456.954-.746.333-1.798.677-3.212 1.074-1.573.444-2.608.619-3.265.616-.45-.003-.716-.067-.974-.174-.257-.109-.531-.289-.896-.588-.152-.121-.528-.51-.947-1.074-1.284-1.709-3.136-5.076-3.876-9.474a7.557 7.557 0 0 1-.105-1.262c-.006-2.93 1.675-6.012 4.587-7.737ZM87.511 100.329c-1.216-1.135-2.653-1.864-3.795-2.342-1.143-.473-1.997-.683-2.042-.695a1.303 1.303 0 0 0-1.353.487c-.031.043-.641.866-1.263 2.123-.617 1.26-1.269 2.954-1.276 4.823 0 .853.145 1.746.519 2.608a6.665 6.665 0 0 0 2.275 2.815 5.874 5.874 0 0 0 3.368 1.084c.654 0 1.322-.115 1.971-.355a5.66 5.66 0 0 0 2.814-2.259c.643-.999.97-2.176.97-3.383a6.84 6.84 0 0 0-.3-1.999c-.365-1.192-1.082-2.151-1.888-2.907Zm-.968 6.882a3.05 3.05 0 0 1-1.53 1.227 3.076 3.076 0 0 1-1.07.194 3.277 3.277 0 0 1-1.876-.614 4.067 4.067 0 0 1-1.38-1.72 3.912 3.912 0 0 1-.305-1.573c-.007-1.229.483-2.621 1.007-3.671.188-.381.368-.695.532-.968.529.184 1.235.462 1.953.847.683.364 1.369.82 1.911 1.342.545.524.938 1.098 1.127 1.721.127.416.188.834.188 1.239 0 .736-.202 1.424-.557 1.976Z"/></svg>