<svg xmlns="http://www.w3.org/2000/svg" width="200" height="200" fill="none"><path fill="#FFD93A" d="M73.334 69.833C71.446 54.025 75.667 45.667 100 46.167c24.334.5 28 4.333 27.834 17.166-.167 12.834-8 35.167-27.167 36.334-19.167 1.166-26-18.667-27.333-29.834ZM45.333 127.417c-3.166 3-1.333 4.333-1.333 4.333s-1.25 2.583-.583 4.167c.666 1.583-1.667 2.75-.917 4.25s3.167 2.083 3.167 2.083l-1.75 3.667S46 148.333 46 148.833a5.047 5.047 0 0 1-.833 1.667l-.25 1.833 3.583.5 2.583 4.334.667 3.083s3.833.417 3.583.5c-.25.083 1.667-.25 1.667-.25l1.917 1.167-2.25 2.833 2.166 2 .5 2.917 3.417.416 3.833 3.25 2.334-.333 2.833 2 5.25 3.333 6.833.584 4.834-3 3.166 2.666.75 2.167 3.834.333L98.5 183l4.167-1.5 3.25-.333 2.5-5.25 1.416.25L111.75 179l4.333-1.167 2.834 1.334 2.916-2.917 7.834-4.25 4.916.333 1.584-2.416 2.75-.834-.334-4.666.917-1.917 2 .75 3.667-2.75-.25-3.083 4-1.584-.25-4.333 1.166-5.083 3.584-.5 1.666-4.584-.916-1.5 1.416-4.166-.916-2-.75-4.25-1.917-.084.667-2.583-4 .083-1.084-6.666-1.666.583-1.084 4.667-3.875 2.25-.083 4 1.167 1.5-1.292 9.625-4.708 1.041-2.375 4.459-2.792 2.333.292 1.5-3.25 3.333-3.375 1.167-1.209 3.417-4.041.583-1.334 1.167-3.791-.209-3.25.959-1.875 1.666-6.334-2.833-8.333 2.292-7.958.083-1.542-2.583-5.208.666-4.375 2.084-1.625-1.667 1.625-2.208-3.334-5.625-3.208-1.125-2.417-2.959-1.5-3.458-4 .667-1.375-1.917-1.041-7.542-2.959-7.916L56.667 128l-2.417-2.458-2.167-1.125-1.208-3.542s-.958 2.417-.958 2.542-.042 3.416-.042 3.416l-4.542.584Z"/><path fill="#FFD93A" d="m57.542 119.708-.334 5.125-1.458 1.584 1.333 1.833-.875 3 2.084 5.375 5.416 3.458 2.667 2.709 4.958 3.166 7-.833 1.625 3.667 5.5 2.083 2.917-.917L90.583 152l2.625.208 1.959 2.084 5.041-3 3.417-.667 4.375-.167 2.833 1.709 2.542-3.334 1.292-4.875 3.541-1.166.75 4.583 4.292-.292 1.458 1.167 5.709-4.125 3.166-1.792a30.366 30.366 0 0 1 1.084-3.083c.125 0 5.791-2.458 5.791-2.458l2.75-5.125-2.416-9.875-8.125 2.833-1.5 2.917-5.5 2.458-.792 2.458-2.292 1-2.166-1.625-2.667 1.625-2.75 2.334-.292 2.416-3.583 2.084-2.042-3.875-7.166-.542-1.417 2.875-2-1.958-3.75.208-2.458-2.875L90 137.083l-5.083.167-2.167-2.792-2.167 1.709-7.5-4.042-4.5-5.667a21.6 21.6 0 0 1-2.583-.5c-.083-.125-1.292-2.625-1.292-2.625l-2.25.25-.833-2.458-4.083-1.417Z"/><path fill="#191C22" d="M141.549 48.745c-3.491-3.99-8.45-7.217-15.219-9.426-6.772-2.21-15.361-3.425-26.228-3.426-9.66 0-17.52.96-23.904 2.726-9.568 2.64-15.852 7.149-19.655 12.888-3.806 5.735-5.106 12.572-5.106 19.782A40.573 40.573 0 0 0 53.552 85a27.057 27.057 0 0 0 5.159 8.837c3.504 3.988 8.472 7.214 15.235 9.423 6.767 2.211 15.335 3.425 26.156 3.426 9.618 0 17.457-.961 23.833-2.726 9.556-2.64 15.855-7.147 19.679-12.884 3.827-5.734 5.152-12.573 5.152-19.786a40.878 40.878 0 0 0-2.09-13.707 26.973 26.973 0 0 0-5.127-8.837Zm-79.925 2.794a24.299 24.299 0 0 1 2.672-2.842 1.3 1.3 0 1 1 1.747 1.926c-.862.78-1.66 1.63-2.387 2.538a1.301 1.301 0 0 1-2.032-1.622Zm23.637-10.235a1.3 1.3 0 0 1-1.054 1.506 44.056 44.056 0 0 0-12.56 3.98 1.298 1.298 0 0 1-1.891-1.047 1.3 1.3 0 0 1 .7-1.263 46.622 46.622 0 0 1 13.299-4.23 1.3 1.3 0 0 1 1.506 1.054ZM74.392 64.701a21.558 21.558 0 0 1 1.18-7.168 11.807 11.807 0 0 1 3.714-5.488 7.428 7.428 0 0 1 4.529-1.56 6.655 6.655 0 0 1 4.05 1.382 10.11 10.11 0 0 1 2.764 3.372 20.698 20.698 0 0 1 2.13 9.472 20.359 20.359 0 0 1-1.11 6.84 10.634 10.634 0 0 1-3.66 5.176 7.601 7.601 0 0 1-4.083 1.396c-.137.006-.272.01-.406.01a7.343 7.343 0 0 1-4.162-1.256 9.34 9.34 0 0 1-2.84-3.167 18.538 18.538 0 0 1-2.106-9.009Zm17.06 27.727a11.241 11.241 0 0 1-1.843-4.361 1.3 1.3 0 0 1 1.101-1.482 74.963 74.963 0 0 1 9.566-.599 54.9 54.9 0 0 1 10.26.879 1.309 1.309 0 0 1 .835.556 1.297 1.297 0 0 1 .19.986c-.228.94-.584 1.844-1.059 2.687a10.757 10.757 0 0 1-4.429 4.404 12.069 12.069 0 0 1-5.67 1.297 11.412 11.412 0 0 1-5.642-1.356 9.927 9.927 0 0 1-3.31-3.01Zm29.777-15.7a7.6 7.6 0 0 1-4.082 1.395c-.137.006-.272.01-.406.01a7.34 7.34 0 0 1-4.161-1.256 9.344 9.344 0 0 1-2.841-3.167 18.547 18.547 0 0 1-2.106-9.009 21.558 21.558 0 0 1 1.18-7.168 11.812 11.812 0 0 1 3.714-5.488 7.427 7.427 0 0 1 4.529-1.56 6.654 6.654 0 0 1 4.051 1.382c1.155.91 2.098 2.06 2.763 3.372a20.696 20.696 0 0 1 2.13 9.472 20.381 20.381 0 0 1-1.11 6.84 10.637 10.637 0 0 1-3.661 5.176Zm14.879 16.918c-.249.231-.504.46-.765.684l-.002.001a28.078 28.078 0 0 1-3.908 2.796c-.299.178-.604.353-.914.525a1.302 1.302 0 0 1-1.921-.993 1.307 1.307 0 0 1 .276-.956c.106-.134.238-.245.388-.327.286-.159.566-.32.84-.482a25.532 25.532 0 0 0 3.546-2.536c.236-.204.467-.41.692-.618a1.3 1.3 0 0 1 1.768 1.906Z"/><path fill="#191C22" d="M167.478 50.935c.934-9.897 2.461-27.747 2.793-32.805.015-.232.022-.458.022-.677a7.127 7.127 0 0 0-.351-2.319 4.635 4.635 0 0 0-1.751-2.364 5.302 5.302 0 0 0-2.45-.87 6.184 6.184 0 0 0-.678-.038 5.1 5.1 0 0 0-3.413 1.228 5.89 5.89 0 0 0-1.834 3.99c-.409 4.229-1.752 20.547-2.621 31.184-.16-.611-.32-1.222-.499-1.823-2.812-9.428-8.229-17.577-17.346-23.268-9.114-5.697-21.828-8.946-39.248-8.947-11.616 0-21.132 1.445-28.892 4.095-11.64 3.965-19.323 10.709-23.982 19.162a46.839 46.839 0 0 0-4.373 11.37c-.867-10.612-2.253-27.465-2.67-31.773a5.893 5.893 0 0 0-1.833-3.99 5.103 5.103 0 0 0-3.414-1.228 6.14 6.14 0 0 0-.678.038 5.01 5.01 0 0 0-3.168 1.487 4.8 4.8 0 0 0-1.033 1.747 7.127 7.127 0 0 0-.351 2.319c0 .219.008.445.023.679.332 5.055 1.859 22.906 2.793 32.803.132 2.457.708 4.87 1.699 7.123a7.106 7.106 0 0 0 1.38 1.952 6.439 6.439 0 0 0-1.5 1.64 8.81 8.81 0 0 0-1.011 3.042 24.733 24.733 0 0 0-.325 4.202c.003 1.43.089 2.859.257 4.279.263 2.4.802 4.761 1.605 7.038.309.867.69 1.707 1.137 2.512.348.65.803 1.237 1.348 1.734a9.879 9.879 0 0 0 4.135 1.836c.744.169 1.498.287 2.258.354l.034.12a37.711 37.711 0 0 0 17.435 22.211c7.366 4.304 17.055 7.059 29.639 7.962v2.262c-.427.059-.843.14-1.263.213a102.79 102.79 0 0 0-4.25.575c-2.097.332-3.972.702-5.516 1.077a20.075 20.075 0 0 0-3.596 1.148c-.469.236-.88.571-1.21.98a6.816 6.816 0 0 0-.453.615 8.78 8.78 0 0 0-2.639-1.31 17.688 17.688 0 0 0-5.13-.668c-.713 0-1.436.046-2.161.105l-.044-.002c-.033 0-.06.011-.092.013-.181.015-.36.026-.542.043a4.098 4.098 0 0 0-.334-.695 3.447 3.447 0 0 0-1.54-1.37 4.014 4.014 0 0 0-1.651-.335 5.674 5.674 0 0 0-.625.042 5.14 5.14 0 0 0-1.742-1.974 2.77 2.77 0 0 0-.693-.349c-.029-.153-.058-.308-.083-.43a6.442 6.442 0 0 0-.102-.431 1.885 1.885 0 0 0-.326-.623 6.014 6.014 0 0 0-.713-.756 28.69 28.69 0 0 0-4.204-3.069c-.085-.052-.169-.105-.254-.156-.258-.153-.522-.29-.784-.434a19.32 19.32 0 0 0-1.964-.961 7.617 7.617 0 0 0-2.693-.644l-.05-.001a10.953 10.953 0 0 0-3.466.722 26.57 26.57 0 0 0-5.635 2.848 19.349 19.349 0 0 0-2.395 1.853 8.682 8.682 0 0 0-1.7 2.045 5.753 5.753 0 0 0-.624 2.78c0 .229.038.458.057.687a9.676 9.676 0 0 0-1.495 2.459 10.376 10.376 0 0 0-.764 3.966 11.938 11.938 0 0 0 2.212 6.913 24.479 24.479 0 0 0 4.75 4.814 20.138 20.138 0 0 0 5.075 2.865c.146.126.3.241.464.344.476.283.993.492 1.532.62-.015.096-.03.195-.043.297a6.757 6.757 0 0 0-.857 1.291 3.13 3.13 0 0 0-.36 1.439c.008.648.21 1.28.578 1.813.34.492.759.923 1.24 1.276-.048.085-.095.161-.145.251-.24.425-.45.865-.63 1.319a4.412 4.412 0 0 0-.339 1.556c-.001.23.03.46.094.682.077.264.207.51.383.721.323.375.749.648 1.225.785.38.111.774.164 1.17.159.369-.003.737-.038 1.1-.105l.037.063c.206.319.447.614.718.88.132.123.271.236.417.339.1.384.28.741.531 1.047.195.228.417.431.661.604a6.675 6.675 0 0 0-.197 1.548 3.995 3.995 0 0 0 .493 2.013 3.338 3.338 0 0 0 1.997 1.522 4.798 4.798 0 0 0 4.42-.864c.177.191.368.368.571.53a6.09 6.09 0 0 0-.964.88 3.24 3.24 0 0 0-.46.692c-.149.302-.228.634-.231.971l.01.203c.074.617.361 1.189.811 1.618.447.423.968.759 1.537.992-.002.056-.006.104-.006.163-.02.711.132 1.417.445 2.056.217.417.541.768.938 1.02.45.273.967.413 1.493.405.31-.004.62-.042.922-.114.073.101.142.2.228.307a5.39 5.39 0 0 0 1.06 1.004c.281.198.588.359.91.479.252.416.6.765 1.016 1.017a3.991 3.991 0 0 0 2.095.607c.218-.001.437-.02.652-.056 0 4.969.287 9.934.86 14.87a1.306 1.306 0 0 0 .493.864 1.309 1.309 0 0 0 1.44.102 1.307 1.307 0 0 0 .646-1.293 100.434 100.434 0 0 1-.595-6.718 150.688 150.688 0 0 1-.227-6.379c.237.131.486.241.743.329l.155.039c.183.034.37.052.557.052.091 0 .178-.01.265-.018.024.085.053.168.089.249.204.395.51.727.885.964.446.272.942.454 1.459.533.276.046.555.074.834.084.057.159.121.325.2.499.213.481.517.916.896 1.281.5.474 1.162.739 1.851.742a3.27 3.27 0 0 0 1.416-.346 5.11 5.11 0 0 0 .49-.288c.054.035.1.069.159.105.777.5 1.675.779 2.598.807a3.63 3.63 0 0 0 1.484-.311 4.057 4.057 0 0 0 1.373-1.02c.256-.284.483-.595.676-.926a4.33 4.33 0 0 0 1.492-.333c.28-.124.549-.272.803-.445a4.402 4.402 0 0 0 2.417 1.644c-.007.092-.022.181-.023.276-.002.257.034.512.105.759.085.289.232.558.429.786.347.39.797.674 1.299.818.415.12.846.178 1.278.173a7.5 7.5 0 0 0 1.508-.171c.094.15.199.307.32.47.31.425.685.798 1.112 1.107.534.388 1.176.6 1.837.608a3.336 3.336 0 0 0 1.816-.572c.334-.223.642-.484.917-.776l.033.013a7.005 7.005 0 0 0 2.373.454 4.567 4.567 0 0 0 2.094-.479 4.42 4.42 0 0 0 1.815-1.775 7.604 7.604 0 0 0 1.035-3.784c.048.223.112.442.193.655a5.362 5.362 0 0 0 1.272 1.896c.281.278.616.494.985.635.34.128.7.192 1.063.19a4.42 4.42 0 0 0 1.789-.425 8.779 8.779 0 0 0 1.674-1.019c.096.107.196.216.303.327.374.395.79.748 1.239 1.055a3.292 3.292 0 0 0 1.795.613c.341.001.679-.074.988-.22a3.563 3.563 0 0 0 1.403-1.276 7.389 7.389 0 0 0 .903-2.082c.02-.071.033-.13.05-.196a8.306 8.306 0 0 0 1.16-.445 5.188 5.188 0 0 0 1.573-1.116c.197-.216.366-.456.503-.715.058.002.117.006.175.006a4.476 4.476 0 0 0 2.396-.658c.104-.066.184-.142.278-.212a130.35 130.35 0 0 1-.741 13.685c-.033.284-.063.574-.098.851a1.302 1.302 0 0 0 1.127 1.453 1.3 1.3 0 0 0 1.452-1.127c.589-5.096.877-10.223.862-15.354a5.634 5.634 0 0 0 2.989.242l.17-.043a3.164 3.164 0 0 0 1.206-.722c.427-.421.734-.948.891-1.526a4.5 4.5 0 0 0 .138-.699 5.827 5.827 0 0 0 1.583-.267 3.542 3.542 0 0 0 1.065-.552c.375-.286.671-.663.86-1.096a3.57 3.57 0 0 0 .275-1.424 7.085 7.085 0 0 0-.603-2.626c-.036-.087-.07-.158-.105-.238.157-.217.287-.452.389-.7a4.382 4.382 0 0 0 1.594.319 3.87 3.87 0 0 0 2.594-1.02 5.206 5.206 0 0 0 1.375-1.884 4.904 4.904 0 0 0 .3-2.731 6.06 6.06 0 0 0 3.919-2.511l.082-.134a3.436 3.436 0 0 0 .419-1.632 3.597 3.597 0 0 0-.291-1.395 4.48 4.48 0 0 0-.403-.739c.059-.062.114-.115.175-.182.339-.372.634-.782.878-1.222.3-.527.463-1.12.476-1.726 0-.267-.037-.533-.111-.79l-.001-.005a3.321 3.321 0 0 0-.329-.732c.292.041.586.062.881.063a4.725 4.725 0 0 0 2.283-.542 4.077 4.077 0 0 0 1.883-2.304c.215-.6.328-1.232.333-1.87a4.677 4.677 0 0 0-.078-.809c.057-.016.114-.028.171-.046a19.355 19.355 0 0 0 6.026-3.211 24.452 24.452 0 0 0 4.75-4.814 11.938 11.938 0 0 0 2.212-6.913 10.374 10.374 0 0 0-.765-3.967 9.785 9.785 0 0 0-2.453-3.478 5.485 5.485 0 0 0-.609-2.447 10.016 10.016 0 0 0-2.435-2.682 25.92 25.92 0 0 0-5.4-3.295 20.885 20.885 0 0 0-2.81-1.065 9.436 9.436 0 0 0-2.55-.426h-.05a8.57 8.57 0 0 0-3.294.905 21.5 21.5 0 0 0-1.611.835c-.266.149-.531.299-.791.457-.11.067-.216.134-.325.202-.078.049-.152.099-.229.148-.65.414-1.277.838-1.838 1.25-.608.442-1.193.914-1.753 1.415a7.65 7.65 0 0 0-.604.604 3.308 3.308 0 0 0-.248.318 1.799 1.799 0 0 0-.245.509 8.285 8.285 0 0 0-.137.608c-.041.203-.087.448-.135.719-.431.142-.83.366-1.175.661a3.394 3.394 0 0 0-.991 1.533c-.088.28-.145.569-.172.861a5.235 5.235 0 0 0-2.11 1.053 29.298 29.298 0 0 0-3.077-.181 21.479 21.479 0 0 0-6.471.908c-.903.286-1.771.676-2.583 1.164a6.53 6.53 0 0 0-.426-.579 3.672 3.672 0 0 0-1.209-.981 20.147 20.147 0 0 0-3.596-1.147 85.67 85.67 0 0 0-10.448-1.731v-2.338a84.867 84.867 0 0 0 20.183-3.503c11.612-3.671 19.328-9.974 24.026-18.083a42.226 42.226 0 0 0 3.823-8.894c.194.098.41.145.627.135a16.667 16.667 0 0 0 2.33-.36 9.887 9.887 0 0 0 4.136-1.836c.544-.497 1-1.084 1.348-1.734a19.333 19.333 0 0 0 1.639-4.043 33.319 33.319 0 0 0 1.103-5.507c.168-1.42.253-2.849.256-4.279a24.651 24.651 0 0 0-.324-4.202 8.805 8.805 0 0 0-1.011-3.041 6.956 6.956 0 0 0-2.113-2.086c-.014-.009-.028-.015-.041-.024a8.347 8.347 0 0 0 1.652-2.86 23.562 23.562 0 0 0 1.145-5.746ZM35.112 50.69c-.93-9.863-2.46-27.747-2.787-32.73a7.579 7.579 0 0 1-.017-.508c-.011-.5.06-.998.21-1.475.13-.432.401-.808.77-1.068.377-.243.81-.39 1.258-.425.13-.014.26-.022.392-.022a2.506 2.506 0 0 1 1.695.579c.606.609.952 1.43.964 2.29.307 3.168 1.156 13.338 1.926 22.698a15400.355 15400.355 0 0 1 1.437 17.594 18.1 18.1 0 0 0-2.315.716c-.197.076-.405.178-.609.266a3.543 3.543 0 0 1-1.488-1.71 18.013 18.013 0 0 1-1.436-6.205Zm6.504 33.019a7.203 7.203 0 0 1-2.82-1.235 4.12 4.12 0 0 1-.773-1.041 16.827 16.827 0 0 1-1.403-3.488c-.48-1.66-.819-3.357-1.014-5.073a34.507 34.507 0 0 1-.239-3.978 22.191 22.191 0 0 1 .285-3.753 6.51 6.51 0 0 1 .662-2.123c.35-.518.806-.956 1.337-1.285.894-.56 1.86-.996 2.871-1.296.21-.065.404-.12.581-.168a91.075 91.075 0 0 0-.227 6.485 71.43 71.43 0 0 0 1.885 17.182 14.477 14.477 0 0 1-1.145-.227Zm29.307 41.276a5.619 5.619 0 0 1 2.223 1.197c-.23.58-.453 1.217-.67 1.901-.484.033-.96.141-1.41.322a5.387 5.387 0 0 0-.193-1.391 2.665 2.665 0 0 0-.556-1.054 2.824 2.824 0 0 0-1.321-.837 4.36 4.36 0 0 0-1.284-.176 6.967 6.967 0 0 0-.737.045 10.537 10.537 0 0 0-.108-.427c-.011-.041-.029-.084-.041-.125 1.384-.01 2.764.173 4.097.545Zm8.162 25.066.116.118a2.896 2.896 0 0 0 1.955.753 3.47 3.47 0 0 0 1.07-.18c.022.034.038.064.061.097.265.387.587.731.955 1.021.477.38 1.065.591 1.674.601l.16-.005.007-.001a3.294 3.294 0 0 0 1.586-.569c.364-.246.697-.534.993-.859.224.519.527 1.001.897 1.429l.116.119a3.21 3.21 0 0 0 2.172.835c.473-.005.94-.095 1.382-.266.058.091.12.184.185.278.303.442.67.835 1.091 1.167a3.046 3.046 0 0 0 1.85.667l.177-.005.007-.001a3.704 3.704 0 0 0 1.776-.64 7.239 7.239 0 0 0 1.635-1.558l.01-.013c.158.031.318.049.48.054a4.125 4.125 0 0 0 2.742-1.18c.083-.074.141-.162.216-.241.52.467 1.194.727 1.894.73a3.883 3.883 0 0 0 1.515-.337c.384-.17.75-.378 1.092-.623.084.095.171.191.263.288.346.373.728.711 1.14 1.009.227.163.472.3.729.411.304.132.632.202.963.205.271.001.538-.052.788-.157.546-.244 1-.656 1.297-1.175.32-.557.544-1.163.663-1.794.246-.067.488-.148.724-.245.522-.206.995-.52 1.389-.921a2.809 2.809 0 0 0 .782-1.954 3.64 3.64 0 0 0-.317-1.407c.058-.068.113-.129.174-.206.281-.359.525-.746.729-1.154.113.007.224.013.33.013.029 0 .055-.003.084-.003.043.457.144.907.298 1.34.3.826.803 1.563 1.464 2.143l.129.1c.505.35 1.104.538 1.718.539.54-.007 1.07-.14 1.549-.388.025.028.043.054.069.082.307.348.66.653 1.047.909a3.063 3.063 0 0 0 1.64.516c.167 0 .333-.016.497-.049h.003a3.41 3.41 0 0 0 1.565-.806c.236-.21.454-.441.65-.689.168 1.515.322 3.061.463 4.637a3.447 3.447 0 0 0-.358 1.508c.001.089.014.168.02.253a6.248 6.248 0 0 0-1.384-.149h-.031l-.023.001v.001a2.908 2.908 0 0 0-1.947.751 3.517 3.517 0 0 0-.805 1.116 6.006 6.006 0 0 0-.484 1.707c-.027.185-.039.352-.053.522-.212-.01-.433-.018-.665-.019a7.066 7.066 0 0 0-1.937.23c-.36.098-.7.26-1.003.478a2.182 2.182 0 0 0-.8 1.107c-.008.027-.01.054-.018.081a4.04 4.04 0 0 0-1.023.273c-.334.15-.651.335-.946.552l-.038-.036a5.536 5.536 0 0 0-1.138-.801 3.55 3.55 0 0 0-1.637-.426 2.987 2.987 0 0 0-1.034.182 4.37 4.37 0 0 0-1.618 1.1 8.236 8.236 0 0 0-1.26 1.763 3.807 3.807 0 0 0-.502-.362 5.286 5.286 0 0 0-1.764-.605 8.076 8.076 0 0 0-1.029-.102c-.08-.21-.181-.41-.302-.598a3.97 3.97 0 0 0-2.528-1.627 3.79 3.79 0 0 0-.875-.102 4.016 4.016 0 0 0-1.958.527 5.954 5.954 0 0 0-1.687 1.461 4.945 4.945 0 0 0-1.581-.265 4.839 4.839 0 0 0-3.247 1.292c-.014.012-.024.025-.038.037a4.931 4.931 0 0 0-1.59-.82 2.76 2.76 0 0 0-.83-.129 2.891 2.891 0 0 0-1.365.352c-.519.29-.974.681-1.34 1.149l-.002.001a6.4 6.4 0 0 0-.982-.391 2.991 2.991 0 0 0-.364-1.009 3.743 3.743 0 0 0-1.588-1.425 3.291 3.291 0 0 0-1.497-.359 3.82 3.82 0 0 0-1.501.323 5.41 5.41 0 0 0-1.15.684 4.03 4.03 0 0 0-2.04-.568 4.324 4.324 0 0 0-2.15.598c-.6.342-1.102.833-1.455 1.427a5.172 5.172 0 0 0-.679.088c-.007-.012-.017-.024-.025-.035.057-.061.117-.107.172-.171.226-.265.415-.558.563-.873.17-.364.262-.76.267-1.162v-.025a3.277 3.277 0 0 0-.518-1.723 5.442 5.442 0 0 0-1.28-1.384c.044-.195.069-.393.073-.593a3.637 3.637 0 0 0-.988-2.411 3.182 3.182 0 0 0-1.227-.866 3.49 3.49 0 0 0-1.283-.233c-.097 0-.186.012-.28.018.165-1.885.352-3.736.556-5.536a3.128 3.128 0 0 0 1.044-.277c.195-.098.382-.214.556-.345.287.22.595.411.92.57.44.219.923.338 1.414.347.327 0 .65-.062.953-.184a3.102 3.102 0 0 0 1.196-.896c.017-.021.028-.043.046-.064.078.015.152.024.228.034-.002.045-.005.087-.005.134a4.94 4.94 0 0 0 1.2 3.269Zm56.163-9.331a4.939 4.939 0 0 0 1.498-.963c.206.04.416.063.626.068a3.521 3.521 0 0 0 1.992-.631c-.05.226-.077.457-.081.688.002.589.172 1.166.489 1.663a4.259 4.259 0 0 0-1.047-.141 4.68 4.68 0 0 0-1.701.33 4.044 4.044 0 0 0-.463.238c-.306.006-.613.016-.916.015-.173.001-.343-.004-.515-.006.089-.328.135-.667.137-1.007-.001-.092-.014-.168-.019-.254Zm-.712 3.853c-.13.486-.2.986-.207 1.489a5.003 5.003 0 0 0-.71.214 6.328 6.328 0 0 0-2.193 1.485 3.178 3.178 0 0 0-.936 2.269c.005.187.023.373.054.557a3.897 3.897 0 0 0-.397.098 207.815 207.815 0 0 0-.438-4.109c.334-.226.636-.496.899-.802.313-.368.547-.796.684-1.259.074.004.143.016.219.016.258-.002.515-.028.767-.079.734.062 1.489.101 2.258.121Zm-65.975 6.314a4.561 4.561 0 0 0-.711-.522c.052-.281.079-.565.082-.851a3.769 3.769 0 0 0-1.491-3.047 3.548 3.548 0 0 0-2.219-.758 5.262 5.262 0 0 0-2.465.693 4.408 4.408 0 0 0-.739-.589c.022-.06.05-.111.071-.172l.039-.144c.049-.233.074-.47.075-.708 0-.091-.012-.177-.019-.265.785.037 1.57.063 2.35.063a38.346 38.346 0 0 0 4.135-.213c.019.054.028.101.049.156.28.745.73 1.414 1.311 1.956a214.018 214.018 0 0 0-.468 4.401Zm-8.332-9.019c.246-.57.382-1.181.399-1.801v-.012a2.61 2.61 0 0 0 1.474.852c.17.031.34.046.512.045.084 0 .158-.015.238-.021.016.36.09.715.222 1.05a48.51 48.51 0 0 1-2.845-.113Zm-25.195-23.324a7.666 7.666 0 0 1 1.81-1.938 23.388 23.388 0 0 1 4.838-2.945 18.367 18.367 0 0 1 2.454-.933 6.993 6.993 0 0 1 1.825-.323h.025a6.31 6.31 0 0 1 2.24.67 26.258 26.258 0 0 1 4.332 2.621c.632.465 1.175.907 1.544 1.243.134.12.262.246.383.379.015.068.033.151.051.246.155.775.415 2.32.63 3.785.11.733.207 1.45.277 2.043.028.238.05.452.068.643l-.082.013a8.57 8.57 0 0 1-1.038.062c-.042 0-.078-.003-.12-.003a6.613 6.613 0 0 1-.647-1.421c-.1-.499-.2-1.029-.287-1.515a112.573 112.573 0 0 1-.32-1.892 1.3 1.3 0 0 0-.77-.991l-2.168-.934c-.313-.845-.61-1.555-.614-1.567a1.298 1.298 0 0 0-1.704-.71 1.296 1.296 0 0 0-.696 1.71l.042.101c.096.234.343.847.583 1.502.21.544.385 1.102.521 1.669.025.134.075.499.123.947.149 1.336.325 3.567.328 4.741a3.88 3.88 0 0 1-.68.071c-.04 0-.07-.005-.108-.007a4.974 4.974 0 0 1-.153-.314c-.247-.543-.557-1.368-.866-2.273a105.419 105.419 0 0 1-1.298-4.129 142.332 142.332 0 0 1-.594-2.073 1.302 1.302 0 0 0-2.328-.386 1.3 1.3 0 0 0-.209.939c0 .001.075.461.187 1.179.169 1.077.421 2.728.63 4.239.105.754.2 1.474.266 2.064.04.337.067.631.084.857a2.108 2.108 0 0 1-.469.047 1.937 1.937 0 0 1-.581-.079l-.004-.001a6.477 6.477 0 0 1-.157-.372c-.314-.798-.78-2.235-1.187-3.59-.407-1.352-.767-2.675-.871-3.19a1.307 1.307 0 0 0-.557-.83 1.304 1.304 0 0 0-.982-.189 1.288 1.288 0 0 0-1.015 1.036c-.031.168-.029.341.007.509.088.422.247 1.032.451 1.767.254.912.575 1.989.896 3a2.818 2.818 0 0 1-.594.054 4.524 4.524 0 0 1-2.83-1.02 2.566 2.566 0 0 1-.65-1.113 6.01 6.01 0 0 1-.309-1.891 3.292 3.292 0 0 1 .293-1.508Zm7.72 11.11a2.821 2.821 0 0 0-.148.889c0 .017.007.033.007.05-.447.362-.82.807-1.098 1.311a3.81 3.81 0 0 0-.496 1.863c.003.537.115 1.068.328 1.561.163.377.371.733.62 1.06a5.58 5.58 0 0 0-.905 2.118 19.331 19.331 0 0 1-2.58-1.678 21.913 21.913 0 0 1-4.239-4.293 9.38 9.38 0 0 1-1.704-5.37 7.777 7.777 0 0 1 .568-2.975c.02-.049.048-.096.07-.145.236.389.535.737.885 1.03.027.022.054.039.082.06a5.982 5.982 0 0 0 3.294 4.305 6 6 0 0 0 5.42-.118c.015-.008.027-.019.042-.027-.048.12-.103.229-.146.359Zm110.884 8.593c-.201.205-.421.39-.658.552l-.191.12-.039.022-.002.001v.001a1.3 1.3 0 0 0-.566 1.763c.107.204.267.376.463.497l-.001.002c.186.133.35.293.486.476.282.366.433.815.428 1.277-.005.347-.069.69-.188 1.015a1.461 1.461 0 0 1-.679.88 2.157 2.157 0 0 1-1.032.221 4.103 4.103 0 0 1-1.083-.15l-.055-.017h-.001a1.305 1.305 0 0 0-1.593.676c-.156.38-.389.724-.683 1.011a1.292 1.292 0 0 0-.453.971 1.287 1.287 0 0 0 .43.982c.174.137.308.318.389.524l.009.067a1.135 1.135 0 0 1-.163.49c-.229.388-.511.74-.84 1.047-.151.147-.29.267-.386.348l-.11.089-.024.019-.002.001a1.297 1.297 0 0 0-.028 2.058l-.001.001c.156.134.296.286.417.453.176.216.281.48.302.758a.837.837 0 0 1-.085.34 3.449 3.449 0 0 1-1.563 1.204 4.09 4.09 0 0 1-1.675.253c.043-.218.066-.44.068-.662a3.68 3.68 0 0 0-.445-1.733 3.473 3.473 0 0 0-.484-.699 1.297 1.297 0 0 0-1.919 1.746l-.004.004c.056.071.104.148.142.23.07.141.107.295.11.452a.962.962 0 0 1-.064.339l-.085.136a.889.889 0 0 1-.413.168c-.32.058-.645.084-.971.076l-.217-.002a1.299 1.299 0 0 0-1.319 1.281 1.3 1.3 0 0 0 1.281 1.319l.255.002a6.11 6.11 0 0 0 2.058-.287c.243-.091.475-.21.691-.355a3.207 3.207 0 0 1 .292 1.306c.002.304-.056.606-.172.887a2.59 2.59 0 0 1-.7.941c-.23.231-.543.363-.869.366a1.957 1.957 0 0 1-.76-.181 4.232 4.232 0 0 1-.822-.488 1.299 1.299 0 0 0-2.065.87 2 2 0 0 1-.126.46l-.043.086a1.292 1.292 0 0 0-.114.341.696.696 0 0 1-.181.39l-.05.042.007.011a1.287 1.287 0 0 0-.677.785 1.275 1.275 0 0 0 .128 1.029c.167.297.315.604.443.92.221.499.351 1.034.384 1.58a.997.997 0 0 1-.062.393l-.062.069a1.384 1.384 0 0 1-.536.207 4.42 4.42 0 0 1-.874.079c-.227 0-.431-.013-.572-.026l-.16-.017-.036-.005-.002-.001a1.297 1.297 0 0 0-1.443.912c-.059.199-.07.41-.031.614h-.001c.024.156.036.314.035.472.008.269-.038.538-.136.79a.655.655 0 0 1-.136.205.579.579 0 0 1-.143.091 3.2 3.2 0 0 1-.489.046 3.544 3.544 0 0 1-2.06-.723 4.644 4.644 0 0 1-.608-.521l-.148-.159-.029-.034-.003-.004-.001.001a1.297 1.297 0 0 0-2.296.568h-.002l-.022.092a3.126 3.126 0 0 1-.561 1.131 1.829 1.829 0 0 1-.571.471 1.938 1.938 0 0 1-.904.198l-.194-.007a1.423 1.423 0 0 1-.417-.097 1.298 1.298 0 0 0-1.757 1.179.679.679 0 0 1-.218.468c-.369.34-.81.595-1.289.744a6.27 6.27 0 0 1-.631.189l-.181.04-.041.008-.007.002h.001a1.297 1.297 0 0 0-1.064 1.092 7.433 7.433 0 0 1-.337 1.281c-.103.292-.239.57-.407.829a1.137 1.137 0 0 1-.268.294l-.062-.022a2.739 2.739 0 0 1-.604-.413 8.315 8.315 0 0 1-.969-1.008 9.989 9.989 0 0 1-.306-.389l-.079-.107-.019-.026-.002-.004a1.309 1.309 0 0 0-.951-.55 1.302 1.302 0 0 0-1.033.373 9.15 9.15 0 0 1-1.096.898 5.647 5.647 0 0 1-.926.534 1.889 1.889 0 0 1-.698.185l-.139-.02-.087-.059a2.75 2.75 0 0 1-.667-.975 1.938 1.938 0 0 1-.134-.699 1.39 1.39 0 0 1 .019-.241l.007-.037-.004-.001a1.29 1.29 0 0 0-.324-1.269 1.3 1.3 0 0 0-1.265-.337h-.001a5.1 5.1 0 0 1-1.168.143 2.718 2.718 0 0 1-.836-.113 1.297 1.297 0 0 0-1.293.284 1.296 1.296 0 0 0-.374 1.27 4.997 4.997 0 0 1-.536 3.767c-.167.32-.427.583-.745.755a1.97 1.97 0 0 1-.909.194 4.48 4.48 0 0 1-1.479-.295 5.794 5.794 0 0 1-.499-.21l-.128-.064-.025-.013-.003-.002v.001a1.297 1.297 0 0 0-1.682.362c-.25.368-.562.689-.923.948a.735.735 0 0 1-.401.154.608.608 0 0 1-.345-.138 3.06 3.06 0 0 1-.752-.874 5.258 5.258 0 0 1-.234-.426l-.056-.12-.01-.025h-.001a1.3 1.3 0 0 0-1.617-.738h-.002a6.669 6.669 0 0 1-1.76.307 1.913 1.913 0 0 1-.5-.056c.061-.346.165-.682.31-1.001a1.299 1.299 0 0 0-1.785-1.667.776.776 0 0 1-.153.062 2.093 2.093 0 0 1-.826-.302 2.281 2.281 0 0 1-.741-.846 2.687 2.687 0 0 1-.156-.353l-.028-.086-.003-.011h-.002a1.298 1.298 0 0 0-2.312-.449h-.001l-.007.008c-.183.23-.396.436-.633.611a1.977 1.977 0 0 1-1.152.433 1.53 1.53 0 0 1-.337-.038 1.297 1.297 0 0 0-1.52.862c-.12.352-.313.674-.567.946-.134.16-.301.289-.49.378-.135.06-.282.09-.43.088a2.571 2.571 0 0 1-1.245-.427c-.163-.1-.32-.21-.468-.329l-.121-.101-.024-.021-.003-.003v.001a1.301 1.301 0 0 0-.873-.355 1.303 1.303 0 0 0-.883.33c-.226.213-.48.393-.755.537a.726.726 0 0 1-.29.09l-.086-.05a2.105 2.105 0 0 1-.433-.799 4.356 4.356 0 0 1-.122-.435l-.025-.123-.004-.026v-.002h-.002a1.3 1.3 0 0 0-1.42-1.093 5.582 5.582 0 0 1-.473.019 3.997 3.997 0 0 1-.998-.109c-.036-.01-.06-.02-.09-.031.016-.035.025-.062.047-.102.117-.215.25-.422.396-.618a1.3 1.3 0 0 0-.395-1.891 5.95 5.95 0 0 1-.23-.142l-.06-.04-.011-.008a1.3 1.3 0 0 0-1.933.523h-.001c-.08.151-.182.289-.302.411l-.2.148-.133.033a1.937 1.937 0 0 1-.662-.382 2.027 2.027 0 0 1-.521-.796 2.126 2.126 0 0 1-.087-.298l-.013-.067v-.004h-.003a1.296 1.296 0 0 0-2.184-.792l-.002-.002a2.226 2.226 0 0 1-.416.289c-.256.15-.545.233-.841.243a1.38 1.38 0 0 1-.738-.224c-.18-.126-.163-.139-.2-.233a1.302 1.302 0 0 0-1.073-.947 1.179 1.179 0 0 1-.511-.223 3.289 3.289 0 0 1-.763-.82 4.507 4.507 0 0 1-.22-.358l-.05-.096-.01-.019v.001a1.299 1.299 0 0 0-1.69-.645 2.676 2.676 0 0 1-.976.264l-.112-.011a.667.667 0 0 1-.101-.252 2.7 2.7 0 0 1-.063-.619c0-.192.013-.385.037-.576l.025-.17.007-.038a1.302 1.302 0 0 0-.953-1.518v-.001a5.042 5.042 0 0 1-.941-.369 2.046 2.046 0 0 1-.436-.298c.051-.062.106-.121.166-.176a7.238 7.238 0 0 1 1.115-.813c.413-.252.807-.459 1.032-.572a1.299 1.299 0 0 0-.405-2.449 2.633 2.633 0 0 1-1.673-.894 2.932 2.932 0 0 1-.363-.515l-.073-.146-.01-.024h-.002a1.29 1.29 0 0 0-1.073-.825 1.294 1.294 0 0 0-1.223.578h-.002l-.006.01a3.479 3.479 0 0 1-.691.702 2.206 2.206 0 0 1-2.081.417c-.34-.112-.396-.2-.484-.33a1.453 1.453 0 0 1-.144-.712c.008-.385.067-.767.174-1.137a5.53 5.53 0 0 1 .123-.389l.036-.098.008-.02a1.299 1.299 0 0 0-.673-1.69c-.27-.1-.516-.258-.718-.464l-.043-.08.001-.014a1.295 1.295 0 0 0-.852-1.331.825.825 0 0 1-.262-.185 3.01 3.01 0 0 1-.49-.671 3.947 3.947 0 0 1-.143-.28l-.032-.073-.005-.013-.001.001a1.297 1.297 0 0 0-1.604-.759v-.001c-.45.135-.916.212-1.386.228a1.846 1.846 0 0 1-.223-.012c.03-.121.07-.239.116-.355.208-.505.458-.992.747-1.456.13-.213.247-.394.331-.52l.097-.143.024-.035.006-.008a1.3 1.3 0 0 0-.506-1.928v-.001a5.047 5.047 0 0 1-.932-.607 2.567 2.567 0 0 1-.503-.54.674.674 0 0 1-.133-.357.529.529 0 0 1 .072-.249c.184-.369.425-.707.713-1.002.212-.213.342-.494.37-.793a11.525 11.525 0 0 1 .271-1.59l.026-.104.007-.029a1.298 1.298 0 0 0-1.203-1.629v-.001a5.292 5.292 0 0 1-1.335-.264 1.757 1.757 0 0 1-.612-.339l-.079-.104-.02-.112.005-.068c.04-.585.244-1.146.588-1.621.078-.102.167-.195.265-.278l.052-.039-.002-.004a1.291 1.291 0 0 0 .52-1.639 1.293 1.293 0 0 0-.382-.49l-.04-.035a3.5 3.5 0 0 1-.57-.65 1.754 1.754 0 0 1-.339-.941c.002-.211.06-.418.169-.599.178-.351.468-.631.825-.796a1.29 1.29 0 0 0 .757-1.297 1.301 1.301 0 0 0-.153-.508l-.01-.022v-.002l.015-.07a2.52 2.52 0 0 1 .71-1.159c.068-.06.142-.112.221-.155l.028-.013-.002-.005a1.304 1.304 0 0 0 .802-.836l.003-.013c.326.082.662.124.999.126a6.596 6.596 0 0 0 1.434-.17c.2-.045.398-.102.592-.17.203-.068.398-.162.578-.28.189-.128.343-.303.447-.506.077-.15.132-.311.161-.477.03-.163.048-.327.055-.492.01-.164.013-.338.013-.527 0-.593-.037-1.346-.089-2.126.063.296.126.586.19.845.074.299.146.562.229.804.043.127.094.252.152.373.04.08.085.158.136.232.088.129.196.243.32.338.194.144.415.246.65.301.241.059.486.097.733.115.108.009.23.008.344.013a1.261 1.261 0 0 0 1.083 1.112v.002l.145.038a.937.937 0 0 1 .332.174l.037.046.008.052c-.081.427-.27.826-.548 1.159-.22.26-.48.481-.773.655a1.299 1.299 0 0 0-.633 1.05c-.007.142-.019.277-.034.398a1.298 1.298 0 0 0 .396 1.101c.144.136.262.297.349.475a1.296 1.296 0 0 0 .933.722c.156.023.305.08.437.166.07.053.117.13.132.217l.002.089c.001.49-.115.973-.338 1.409-.18.35-.412.671-.689.95a1.296 1.296 0 0 0-.25 1.465l.04.165h.004a1.29 1.29 0 0 0 .84 1.342c.179.066.37.091.559.075a4.34 4.34 0 0 1 .322-.01c.385-.003.77.04 1.144.128.155.038.304.095.444.171a.45.45 0 0 1 .148.12l.003.014.007.091c-.047.439-.18.864-.395 1.249-.11.222-.225.418-.308.553l-.099.154-.023.035-.005.007a1.301 1.301 0 0 0 .671 1.982l.001.001c.183.072.352.174.502.301l.178.217a.448.448 0 0 1 .053.223l-.013.108c-.1.286-.236.558-.404.81a1.301 1.301 0 0 0 .707 1.972c.437.106.833.338 1.138.669.056.064.104.135.143.21l.012.025.005-.002a1.295 1.295 0 0 0 1.508.865c.208-.046.401-.142.563-.281.23-.182.475-.343.734-.481a2.783 2.783 0 0 1 1.226-.375.93.93 0 0 1 .616.205c.171.125.308.293.396.486.068.163.1.338.098.514a2.464 2.464 0 0 1-.203.918l-.022.045-.001.003v.001a1.298 1.298 0 0 0 .817 1.851v.001l.063.02c.288.096.56.24.801.425.112.086.208.193.282.314a.624.624 0 0 1 .084.327l-.01.137.009.002a1.287 1.287 0 0 0 .398 1.138c.14.131.258.283.35.45l.08.156.012.029h.001a1.306 1.306 0 0 0 .787.783 1.29 1.29 0 0 0 1.104-.113v.001c.16-.09.325-.167.496-.232.28-.113.576-.178.877-.189a.91.91 0 0 1 .332.053.572.572 0 0 1 .228.165c.197.179.318.427.338.692 0 .087-.02.172-.056.25l-.03.057-.002.001.004.003a1.288 1.288 0 0 0-.004 1.56c.113.15.256.273.42.361v.001c.296.17.572.371.825.6.172.154.323.331.448.526.07.1.111.218.12.341v.004l-.03.099c-.091.172-.21.327-.354.459a4.796 4.796 0 0 1-.642.521 1.293 1.293 0 0 0-.563 1.073 1.302 1.302 0 0 0 .567 1.072c.242.148.436.361.563.615l.046.136h.007a1.297 1.297 0 0 0 .652 1.034 1.297 1.297 0 0 0 1.223.026v.001c.134-.063.271-.117.412-.161.248-.083.508-.129.77-.136l.22.019a1.3 1.3 0 0 0 1.472-.874 1.465 1.465 0 0 1 .7-.876c.26-.162.558-.252.864-.259.297.006.586.099.831.268.09.058.174.124.252.196l.053.051.003.004.002-.001a1.292 1.292 0 0 0 .984.442 1.301 1.301 0 0 0 .977-.456l.001.001.04-.044a3.96 3.96 0 0 1 .679-.573c.253-.187.554-.301.869-.327a.687.687 0 0 1 .323.078c.21.087.39.232.518.418l.06.222-.008.088v.002l.004.001a1.293 1.293 0 0 0 1.068 1.694h.001c.294.046.584.117.866.213.35.098.67.279.934.529a1.302 1.302 0 0 0 2.141-.202c.2-.379.449-.729.74-1.041.102-.107.218-.199.345-.272l.145-.048.053.009c.35.095.67.277.93.53.109.109.194.24.25.384a1.297 1.297 0 0 0 1.194.864 1.303 1.303 0 0 0 1.233-.807c.116-.279.295-.526.524-.723.406-.4.951-.629 1.522-.637a2.58 2.58 0 0 1 1.219.335l.057.035.004.003.001-.001a1.305 1.305 0 0 0 1.043.195 1.285 1.285 0 0 0 .841-.648l.001-.001c.206-.351.456-.674.744-.961.197-.2.421-.37.667-.505.199-.111.422-.171.649-.175.096 0 .191.011.284.033.688.172.845.386.942.517a.668.668 0 0 1 .107.347v.009h.003a1.299 1.299 0 0 0 1.421 1.425c.023-.002.223-.02.509-.02.463-.005.926.047 1.377.156.19.046.373.118.545.213a.728.728 0 0 1 .241.204l.018.046a1.301 1.301 0 0 0 1.514.833l.176-.021.088.007.002-.011a1.276 1.276 0 0 0 1.612-.771c.18-.447.398-.878.652-1.288.188-.31.41-.599.66-.862a1.79 1.79 0 0 1 .619-.441l.142-.026c.155.01.306.056.44.134.323.183.615.415.866.688.12.126.217.24.28.319l.069.088.013.018.001.002.001-.001a1.3 1.3 0 0 0 1.588.43c.181-.082.341-.204.468-.357l.001.001.039-.044c.197-.216.418-.408.659-.573.241-.183.529-.295.83-.322a.626.626 0 0 1 .279.063l.005-.011a1.286 1.286 0 0 0 1.801-1.541 1.4 1.4 0 0 1-.049-.213c.105-.033.213-.058.322-.074.306-.046.616-.067.927-.064a12.013 12.013 0 0 1 1.604.115l.102.015.027.004a1.301 1.301 0 0 0 1.503-1.392h.001a5.644 5.644 0 0 1-.014-.453 5.686 5.686 0 0 1 .257-1.813c.054-.179.149-.342.276-.478.075-.055.066-.067.233-.077h.02c.72-.035 1.43.186 2.004.623a1.3 1.3 0 0 0 1.621.009l.196-.129.028-.014-.002-.004a1.294 1.294 0 0 0 .556-2.016v-.001a2.718 2.718 0 0 1-.262-.457 1.83 1.83 0 0 1-.178-.715.843.843 0 0 1 .227-.592 1.35 1.35 0 0 1 .499-.384c.138-.057.287-.086.437-.085.141.001.282.022.418.062l.11.037.013.006.002-.004a1.293 1.293 0 0 0 1.757-.693l.001.001c.001-.003.033-.08.082-.183a1.294 1.294 0 0 0-.042-1.213 2.492 2.492 0 0 1-.385-1.117.553.553 0 0 1 .185-.441c.361-.384.8-.688 1.288-.89.244-.1.505-.154.77-.159l.118.006.007.001v-.004a1.302 1.302 0 0 0 1.168-.356 1.297 1.297 0 0 0 .352-1.168h.001s-.015-.078-.03-.215a4.776 4.776 0 0 1-.031-.547 3.35 3.35 0 0 1 .231-1.303c.074-.174.178-.333.309-.47.144-.144.317-.256.509-.326.241-.099.498-.151.758-.153.458.012.898.179 1.25.473.137.107.265.226.381.356l.088.105.014.018.001-.001a1.299 1.299 0 0 0 1.469.479c.175-.059.336-.154.471-.28l.001.001a3.752 3.752 0 0 1 1.073-.647 1.303 1.303 0 0 0 .773-.78c.087-.242.168-.449.226-.592l.068-.164.018-.041.004-.009a1.305 1.305 0 0 0-.385-1.541 1.29 1.29 0 0 0-.508-.245v-.001a4.621 4.621 0 0 1-1.097-.449 1.984 1.984 0 0 1-.552-.45.539.539 0 0 1-.137-.354.9.9 0 0 1 .037-.236c.16-.656.486-1.26.946-1.754.098-.1.206-.189.323-.265l.057-.033-.002-.003a1.29 1.29 0 0 0 .741-.869 1.298 1.298 0 0 0-.235-1.116h.001a3.005 3.005 0 0 1-.159-.241 1.295 1.295 0 0 0-.559-.495c.017-.134.039-.267.069-.399.031-.137.039-.279.023-.419l-.012-.217a1.685 1.685 0 0 1 .324-1.006 1.312 1.312 0 0 0 .162-1.178 1.293 1.293 0 0 0-.862-.817 3.443 3.443 0 0 1-.897-.407 1.078 1.078 0 0 1-.284-.263l-.044-.126.022-.133c.121-.505.371-.972.724-1.353.069-.071.146-.134.228-.188l.029-.016-.002-.005a1.275 1.275 0 0 0 .668-1.666c.203.011.408.032.605.032.353.002.705-.017 1.056-.057.163-.019.325-.049.485-.089.235-.055.456-.158.65-.302.124-.094.232-.209.32-.338.087-.128.159-.266.216-.411.087-.225.162-.456.222-.69.089-.333.179-.731.267-1.146a35.59 35.59 0 0 0-.087 2.123c-.003.26.008.519.032.778.014.137.038.272.074.405.03.107.071.211.122.309.104.204.258.378.446.506l.002.002c.18.117.374.211.578.279a6.409 6.409 0 0 0 2.027.339 4.41 4.41 0 0 0 .818-.086 3.735 3.735 0 0 1-.378.387 1.305 1.305 0 0 0-.318 1.561 1.304 1.304 0 0 0 1.432.697 4.52 4.52 0 0 1 .898-.103c.172-.004.344.016.511.061a.397.397 0 0 1 .159.076.96.96 0 0 1 .054.383 5.052 5.052 0 0 1-.239 1.341c-.063.21-.127.391-.174.515l-.054.141-.014.032-.002.006a1.297 1.297 0 0 0 1.059 1.801v.002c.192.031.378.096.547.193a.62.62 0 0 1 .209.195c.053.1.08.211.078.324a4.113 4.113 0 0 1-1.144 2.304Zm11.836-15.176c.232.354.432.729.597 1.119.382.945.575 1.955.568 2.975a9.384 9.384 0 0 1-1.704 5.37 21.906 21.906 0 0 1-4.239 4.293 17.318 17.318 0 0 1-4.632 2.58 6.673 6.673 0 0 0 1.311-3.193l.011-.147.001-.083a3.127 3.127 0 0 0-1.669-2.848 6.902 6.902 0 0 0 .254-1.744 3.818 3.818 0 0 0-.141-1.068 2.668 2.668 0 0 0-.617-1.098 2.942 2.942 0 0 0-1.274-.771l.012-.028c.361.087.731.131 1.102.133.056 0 .111-.01.167-.012a5.994 5.994 0 0 0 8.972-1.273 5.994 5.994 0 0 0 .955-3.242c0-.077-.013-.153-.016-.23.13-.237.244-.482.342-.733Zm-22.707.059a100.371 100.371 0 0 1 .802-5.19c.039-.21.075-.39.103-.528l.02-.091a4.06 4.06 0 0 1 .334-.335 26.609 26.609 0 0 1 4.021-2.901c.77-.466 1.573-.875 2.402-1.224a5.275 5.275 0 0 1 1.742-.456h.026a8.585 8.585 0 0 1 2.602.574 24.048 24.048 0 0 1 5.059 2.561 16.771 16.771 0 0 1 2.071 1.598c.466.406.869.88 1.195 1.406.215.472.315.989.293 1.509a6.015 6.015 0 0 1-.308 1.89c-.119.42-.343.803-.651 1.113a4.522 4.522 0 0 1-2.831 1.02 2.81 2.81 0 0 1-.593-.054 83.556 83.556 0 0 0 .97-3.269c.169-.617.3-1.127.377-1.498a1.3 1.3 0 0 0-2.546-.526h-.001c-.06.297-.213.895-.409 1.596a88.28 88.28 0 0 1-1.058 3.501 39.101 39.101 0 0 1-.51 1.473c-.075.198-.143.368-.197.495l-.04.086c-.19.057-.388.084-.586.081a2.17 2.17 0 0 1-.469-.048c.007-.095.015-.199.027-.316.109-1.145.395-3.172.653-4.886.129-.859.251-1.644.34-2.213l.147-.923a1.301 1.301 0 0 0-2.537-.553l-.11.396c-.25.887-.892 3.123-1.56 5.144-.332 1.008-.674 1.966-.962 2.646a7.32 7.32 0 0 1-.282.604c-.036.001-.065.006-.105.006a3.794 3.794 0 0 1-.68-.074c.003-.773.079-2.017.175-3.15.049-.58.103-1.134.152-1.587.049-.448.099-.814.124-.947a7.55 7.55 0 0 1 .231-.836c.173-.532.404-1.15.59-1.627a61 61 0 0 1 .233-.587l.092-.223c.066-.158.1-.327.1-.498a1.288 1.288 0 0 0-.378-.921 1.31 1.31 0 0 0-.92-.382 1.293 1.293 0 0 0-1.202.801c-.004.009-.266.638-.556 1.413-.019.049-.036.103-.055.153l-2.17.935a1.305 1.305 0 0 0-.77.991 86.054 86.054 0 0 1-.61 3.413c-.14.4-.295 1.322-.317 1.404-.101.006-.211.01-.329.011l-.12.002a8.215 8.215 0 0 1-1.119-.074c.024-.257.057-.568.1-.905Zm-5.134 2.567a1.3 1.3 0 0 0 .459-1.531.679.679 0 0 1-.049-.183l.007-.008a2.36 2.36 0 0 1 1.534-.658l.115.005.007.001.001-.004c.139.025.282.027.422.005a21.85 21.85 0 0 0-.073.76 3.75 3.75 0 0 0-.13.954c.007.618.139 1.229.389 1.795a5.66 5.66 0 0 0-1.281 2.359 3.07 3.07 0 0 0-.122.847 2.8 2.8 0 0 0 .49 1.581c.329.467.759.853 1.258 1.13-.046.17-.082.342-.107.516a3.945 3.945 0 0 1-.64.065c-.114 0-.203-.005-.258-.01l-.055-.005-.006-.001v.001c-.244-.035-.493 0-.717.102a1.29 1.29 0 0 0-.764 1.163c-.004.246.063.488.192.698l-.002.001c.129.241.201.507.211.779a.973.973 0 0 1-.096.435 1.462 1.462 0 0 1-.469.528.9.9 0 0 1-.577.203 1.661 1.661 0 0 1-.59-.128 1.3 1.3 0 0 0-1.552.484l-.018.026a2.478 2.478 0 0 1-.971.719c-.146.06-.3.095-.457.105v.003a1.296 1.296 0 0 0-1.254 1.775h-.001l.004.012c.083.242.128.497.133.753.006.161-.025.32-.091.467a.682.682 0 0 1-.346.311 1.577 1.577 0 0 1-.718.179 1.783 1.783 0 0 1-.819-.219 1.301 1.301 0 0 0-1.876 1.428 1.6 1.6 0 0 1 .038.331.88.88 0 0 1-.227.618 1.735 1.735 0 0 1-.542.459.542.542 0 0 1-.239.063l-.094-.013-.004-.002-.002.005a1.287 1.287 0 0 0-1.792.644h-.001a5.95 5.95 0 0 1-.547.964 3.244 3.244 0 0 1-.511.58.855.855 0 0 1-.346.203l-.056-.013a1.3 1.3 0 0 1-.367-.231 4.13 4.13 0 0 1-.651-.715 6.158 6.158 0 0 1-.199-.289l-.048-.077-.009-.016a1.293 1.293 0 0 0-.971-.641 1.29 1.29 0 0 0-1.095.392v-.001a2.28 2.28 0 0 1-.395.297 1.1 1.1 0 0 1-.512.176.421.421 0 0 1-.195-.058 2.6 2.6 0 0 1-.671-1.01 3.322 3.322 0 0 1-.14-1.569l.022-.124.005-.02-.002-.001a1.3 1.3 0 0 0-.416-1.314 1.297 1.297 0 0 0-1.364-.197l-.001-.001-.013.005a2.714 2.714 0 0 1-.918.17 1.787 1.787 0 0 1-.685-.127 1.304 1.304 0 0 0-1.567.462 1.304 1.304 0 0 0-.215.542 2.966 2.966 0 0 1-.636 1.257 5.468 5.468 0 0 1-.41.463l-.124.12-.028.025a1.302 1.302 0 0 0-.236 1.699c.209.264.342.58.385.913l-.014.086a.522.522 0 0 1-.187.192 2.746 2.746 0 0 1-.865.358 4.723 4.723 0 0 1-.38.078l-.101.014-.02.002v.001a1.298 1.298 0 0 0-1.171 1.199 5.823 5.823 0 0 1-.196 1.039 2.646 2.646 0 0 1-.238.578 2.493 2.493 0 0 1-.263-.192 7.972 7.972 0 0 1-.997-1.024c-.14-.168-.257-.317-.336-.421l-.089-.121-.021-.029-.004-.005a1.301 1.301 0 0 0-1.985-.162h-.001a5.687 5.687 0 0 1-.757.618c-.203.142-.42.264-.647.363a1.32 1.32 0 0 1-.474.119c-.118-.014-.093.005-.202-.089a2.894 2.894 0 0 1-.696-1.061.43.43 0 0 1-.104-.622l.016-.123a1.288 1.288 0 0 0-.094-.672c.118-.095.229-.198.334-.307.366-.416.635-.909.786-1.443.074-.251.12-.509.135-.771a1.297 1.297 0 0 0-2.592-.129h-.004a1.28 1.28 0 0 1-.124.401.926.926 0 0 1-.468.449l-.143.036a.892.892 0 0 1-.46-.199 5.811 5.811 0 0 1-.853-.767 1.311 1.311 0 0 0-.912-.4 1.314 1.314 0 0 0-.928.363 1.302 1.302 0 0 0-.034 1.84c.382.413.806.786 1.264 1.113.445.312.955.52 1.492.608.007.032.009.065.019.096l.035.114c.043.141.11.273.198.391-.052.13-.081.268-.088.408a1.409 1.409 0 0 1-.102.501 1.206 1.206 0 0 1-.32.438c-.56.489-.852.508-1.007.516a.529.529 0 0 1-.208-.04l-.024-.012-.003.004a1.286 1.286 0 0 0-1.02-.217 1.281 1.281 0 0 0-.848.607v-.001c-.227.364-.489.705-.78 1.019a3.803 3.803 0 0 1-.692.599 1.14 1.14 0 0 1-.5.204h-.01c-.02.001-.103-.007-.273-.135a3.504 3.504 0 0 1-.783-.974 6.222 6.222 0 0 1-.25-.475l-.061-.135-.013-.03v-.001a1.296 1.296 0 0 0-1.468-.789 1.3 1.3 0 0 0-.542.251 2.73 2.73 0 0 1-.413.247 1.706 1.706 0 0 1-.705.195.588.588 0 0 1-.38-.136 2.979 2.979 0 0 1-.65-1.505 1.302 1.302 0 0 0-1.446-1.117l-.05.004-.088-.016-.002-.001-.002.004a1.296 1.296 0 0 0-1.01-.199 1.296 1.296 0 0 0-.834.602c-.182.29-.391.562-.624.814-.16.175-.34.332-.537.465a.77.77 0 0 1-.3.132.847.847 0 0 1-.24-.186 3.475 3.475 0 0 1-.521-.733 4.983 4.983 0 0 1-.155-.306l-.037-.082-.006-.016a1.292 1.292 0 0 0-.87-.769 1.304 1.304 0 0 0-1.136.233l-.001-.001-.085.058a1.57 1.57 0 0 1-.716.267.3.3 0 0 1-.157-.047 2.334 2.334 0 0 1-.515-1.493 3.152 3.152 0 0 1 .157-.967l.014-.04.001-.002h-.002a1.296 1.296 0 0 0-1.562-1.742v-.002a2.382 2.382 0 0 1-.57.067 1.775 1.775 0 0 1-.814-.178 1.293 1.293 0 0 0-1.01-.083 1.304 1.304 0 0 0-.763.669 2.433 2.433 0 0 1-.308.499.576.576 0 0 1-.171.153.826.826 0 0 1-.286-.093 3.617 3.617 0 0 1-.777-.542 5.678 5.678 0 0 1-.266-.253l-.066-.07-.014-.014v-.001h-.001a1.297 1.297 0 0 0-2.07.172h-.001c-.097.135-.21.257-.338.363l-.228.144-.146.035-.087-.022a2.487 2.487 0 0 1-1.025-1.258 3.08 3.08 0 0 1-.195-1.01v-.001a1.294 1.294 0 0 0-.668-1.203 1.297 1.297 0 0 0-1.374.073l-.002-.002-.02.013c-.327.2-.7.313-1.083.328a1.498 1.498 0 0 1-1.1-.486.907.907 0 0 1-.222-.306.73.73 0 0 1-.053-.285c.01-.243.07-.48.174-.699.117-.257.259-.502.425-.73a1.3 1.3 0 0 0-1.882-1.762 5.432 5.432 0 0 1-.822.563 1.733 1.733 0 0 1-.715.242l-.026-.001a.695.695 0 0 1-.153-.2 3.225 3.225 0 0 1-.308-.829 4.846 4.846 0 0 1-.068-.341l-.014-.09-.002-.018a1.3 1.3 0 0 0-1.218-1.153 1.285 1.285 0 0 0-.593.107v-.001l-.011.004a2.064 2.064 0 0 1-.672.137.64.64 0 0 1-.25-.039l-.058-.055a2.22 2.22 0 0 1-.186-.858 2.73 2.73 0 0 1 .243-1.085 2.84 2.84 0 0 1 .289-.515 1.302 1.302 0 0 0-.643-2.017l-.134-.043a1.32 1.32 0 0 0-.358-.062 2.27 2.27 0 0 1-.524-.086 1.778 1.778 0 0 1-.644-.325 1.303 1.303 0 0 0-.187-.099 5.123 5.123 0 0 0 1.022-2.336l.016-.154.003-.139a2.756 2.756 0 0 0-.489-1.592 3.014 3.014 0 0 0-.338-.395c.116-.067.225-.147.324-.238.231-.213.394-.491.467-.797.035-.164.051-.331.048-.499a17.366 17.366 0 0 0-.159-1.821c-.023-.183-.05-.383-.076-.578.01.007.019.017.03.025a1.3 1.3 0 0 0 1.215.123c.332-.119.68-.183 1.033-.191.2-.006.4.03.587.106a.83.83 0 0 1 .385.353c.14.211.216.458.22.711-.004.206-.051.409-.138.597a1.297 1.297 0 0 0 .5 1.625 1.297 1.297 0 0 0 1.68-.26c.19-.228.403-.435.637-.617.034-.026.053-.031.084-.051a2.3 2.3 0 0 1 .072.171c.14.392.247.796.317 1.207.034.188.058.35.073.463l.016.128.003.03v.005a1.298 1.298 0 0 0 1.688 1.107v.001a5.487 5.487 0 0 1 1.394-.22c.206-.011.411.021.604.094l.035.02v-.001l.013.035c.067.238.102.483.105.73.004.264-.05.526-.159.767l-.085.15-.009.013.004.003a1.29 1.29 0 0 0 .076 1.775c.156.152.35.263.56.32v.001l.072.023c.313.106.607.262.871.46.123.093.227.207.31.337.058.097.089.21.087.323l-.014.158-.012.04-.07.198a1.3 1.3 0 0 0 2.19 1.297c.233-.256.49-.488.771-.69.137-.099.284-.183.44-.25a.74.74 0 0 1 .257-.065l.11.049c.332.26.596.598.768.983.067.15.105.312.112.476v.008l.005.001a1.293 1.293 0 0 0 1.668 1.357v.001l.065-.017c.254-.062.514-.094.775-.096.246-.007.49.037.718.13.184.08.33.227.41.411.088.178.134.373.136.571a1.302 1.302 0 0 0 1.391 1.256 4.266 4.266 0 0 1 .56.002l.072.006.012.001v-.001a1.297 1.297 0 0 0 1.394-.879c.11-.308.248-.606.411-.889.084-.146.182-.283.293-.409.067.076.13.155.187.237.231.339.435.695.609 1.066.08.165.143.308.185.407l.047.113.01.026.002.004a1.307 1.307 0 0 0 .804.76 1.298 1.298 0 0 0 1.098-.134c.222-.131.452-.247.69-.346a3.007 3.007 0 0 1 1.053-.267.572.572 0 0 1 .184.022l.027.015a1.294 1.294 0 0 0 1.22.346c.3-.065.606-.097.912-.094.151 0 .28.007.365.013l.093.008.018.002a1.304 1.304 0 0 0 1.397-.882c.137-.386.309-.759.514-1.114.13-.233.29-.447.474-.639l.108-.086c.113.102.215.215.306.337.32.436.599.901.83 1.39.11.225.198.422.258.56l.067.159.016.039.003.008a1.306 1.306 0 0 0 .802.76 1.296 1.296 0 0 0 1.097-.132c.265-.158.54-.298.825-.419a3.947 3.947 0 0 1 1.41-.361.818.818 0 0 1 .35.06.35.35 0 0 1 .159.159c.09.155.17.316.239.482a1.298 1.298 0 0 0 1.641.718l.142-.027.067.008.002-.005a1.303 1.303 0 0 0 1.045-.03 1.295 1.295 0 0 0 .679-.795 5.9 5.9 0 0 1 .441-1.008 3.16 3.16 0 0 1 .444-.622.833.833 0 0 1 .316-.23.738.738 0 0 1 .299.111c.303.185.578.413.816.677.117.125.213.239.276.318l.07.089.014.018v.001h.001a1.3 1.3 0 0 0 2.08.037h.001c.116-.133.248-.252.393-.354a.925.925 0 0 1 .488-.196.457.457 0 0 1 .159.038c.405.305.715.72.893 1.195a3.353 3.353 0 0 1 .198 1.405l-.005.048v.003h.001a1.301 1.301 0 0 0 .549 1.259 1.302 1.302 0 0 0 1.371.061l.001.002.019-.01a2.607 2.607 0 0 1 1.083-.261c.217-.003.432.038.634.119a1.303 1.303 0 0 0 1.136-.073 1.309 1.309 0 0 0 .643-.94c.122-.477.376-.911.732-1.251a5.33 5.33 0 0 1 .502-.472l.155-.123.035-.026.001-.001a1.3 1.3 0 0 0 .409-1.665 2.059 2.059 0 0 1-.287-.885l.02-.127c.013-.03.043-.082.175-.168.281-.155.588-.255.905-.297.163-.027.311-.041.413-.047l.115-.006h.025a1.302 1.302 0 0 0 1.279-1.07 5.8 5.8 0 0 1 .306-1.016c.078-.2.181-.389.305-.564.37.326.697.698.973 1.106.162.23.3.444.394.598l.108.178.026.045.006.01a1.296 1.296 0 0 0 1.457.62c.183-.047.355-.135.501-.255.231-.182.475-.346.731-.491a2.91 2.91 0 0 1 1.174-.425 1.311 1.311 0 0 0 1.039-.584 1.296 1.296 0 0 0 .127-1.184 1.252 1.252 0 0 1-.09-.44 1.09 1.09 0 0 1 .386-.8.875.875 0 0 1 .317-.22.966.966 0 0 1 .361-.061c.5.039.983.197 1.41.46a1.3 1.3 0 0 0 1.791-1.74 1.017 1.017 0 0 1-.134-.37l.006-.006a2.36 2.36 0 0 1 1.535-.659l.115.006.007.001.001-.004a1.302 1.302 0 0 0 1.177-.368 1.29 1.29 0 0 0 .336-1.186v-.001a2.58 2.58 0 0 1-.034-.421 1.69 1.69 0 0 1 .142-.732.684.684 0 0 1 .165-.219.905.905 0 0 1 .337-.178c.176-.058.36-.088.546-.089.222 0 .441.048.642.142.174.08.336.184.482.309a1.293 1.293 0 0 0 1.596.072Zm-9.876-.611a17.048 17.048 0 0 1 3.852-.707 3.626 3.626 0 0 0-.281.638c-.088.28-.145.569-.172.861a5.25 5.25 0 0 0-2.264 1.173c-.296.25-.533.562-.695.913-.026.059-.036.119-.057.178a4.723 4.723 0 0 0-.627-.063c-.155.004-.31.018-.464.04a4.581 4.581 0 0 0-.468-.049 1.28 1.28 0 0 0-.321.029 28.448 28.448 0 0 0-.706-1.991 9.045 9.045 0 0 1 2.203-1.022Zm-14.532-2.528c2.038.323 3.852.682 5.308 1.036 1.057.229 2.093.553 3.092.968.131.08.246.184.338.307a8.552 8.552 0 0 1 1.186 2.215c.407 1.045.757 2.11 1.048 3.193-.211.44-.328.919-.341 1.407a6.792 6.792 0 0 0-.836.396c-.084-.115-.17-.233-.264-.353a7.288 7.288 0 0 0-1.073-1.134 3.617 3.617 0 0 0-.728-.475 2.356 2.356 0 0 0-1.016-.244c-.204 0-.407.031-.602.092a2.855 2.855 0 0 0-1.402 1.038 5.83 5.83 0 0 0-.85 1.727c-.296.05-.587.121-.872.213a3.841 3.841 0 0 0-1.515.891 2.85 2.85 0 0 0-.607.889 2.898 2.898 0 0 0-.231 1.154c.005.375.065.748.178 1.105-.095.092-.191.183-.293.291a6.397 6.397 0 0 0-.956 1.346c-.095-.006-.197-.026-.289-.026a5.46 5.46 0 0 0-.542.036 5.281 5.281 0 0 0-2.116-3.305l-.137-.086a3.066 3.066 0 0 0-1.474-.385c-.438.003-.87.095-1.271.27a3.766 3.766 0 0 0-.511.286l-.033-.034a5.552 5.552 0 0 0-1.063-.785 3.223 3.223 0 0 0-1.56-.437 2.547 2.547 0 0 0-.746.109 3.384 3.384 0 0 0-1.478.955c-.35.382-.647.809-.885 1.27a2.904 2.904 0 0 0-.938-.727 3.377 3.377 0 0 0-1.477-.317 6.158 6.158 0 0 0-2.306.522c-.1-.192-.209-.393-.33-.598a7.373 7.373 0 0 0-1.047-1.417 3.512 3.512 0 0 0-.771-.604 2.307 2.307 0 0 0-1.137-.313c-.122 0-.243.011-.363.032-.62.126-1.186.44-1.621.899a6.563 6.563 0 0 0-1.205 1.79l-.025.056c-.21.006-.436.025-.685.056a2.815 2.815 0 0 0-.402-.19 3.192 3.192 0 0 0-1.035-.166 5.18 5.18 0 0 0-1.818.377 11.96 11.96 0 0 0-.19-.337 6.384 6.384 0 0 0-.906-1.223 3.159 3.159 0 0 0-.69-.54 2.145 2.145 0 0 0-1.054-.289c-.115 0-.229.01-.341.031a2.774 2.774 0 0 0-1.466.809c-.173.178-.33.369-.473.572a3.4 3.4 0 0 0-1.342-1.098 4.329 4.329 0 0 0-1.802-.366c-.063 0-.114.008-.175.01-.017-.046-.027-.088-.047-.134a5.183 5.183 0 0 0-1.501-1.982 2.76 2.76 0 0 0-1.134-.569 45.11 45.11 0 0 1 .42-1.492 20.32 20.32 0 0 1 1.346-3.478 5.38 5.38 0 0 1 .601-.933c.092-.123.207-.227.337-.307 1-.415 2.035-.739 3.093-.968a76.35 76.35 0 0 1 7.785-1.392 18.053 18.053 0 0 0 11.467 4.048 20.796 20.796 0 0 0 7.17-1.3 16.053 16.053 0 0 0 4.751-2.664c.633.087 1.255.178 1.852.272Zm24.69-15.825c-7.624 4.462-18.156 7.265-32.411 7.824h-10.65a86.495 86.495 0 0 1-22.746-3.54c-11.124-3.539-18.178-9.377-22.564-16.911-4.381-7.537-6.07-16.875-6.067-27.352a68.504 68.504 0 0 1 2.522-19.567c2.69-8.959 7.684-16.453 16.234-21.81 8.553-5.35 20.762-8.552 37.869-8.551 11.402 0 20.636 1.422 28.052 3.956 11.125 3.812 18.169 10.06 22.546 17.959 4.369 7.901 6.029 17.536 6.027 28.013a64.883 64.883 0 0 1-2.547 19.24 35.073 35.073 0 0 1-16.265 20.739Zm27.37-41.592a22.15 22.15 0 0 1 .285 3.753 34.555 34.555 0 0 1-.239 3.978 28.912 28.912 0 0 1-1.465 6.446 14 14 0 0 1-.952 2.115c-.2.385-.461.737-.772 1.04a7.506 7.506 0 0 1-3.026 1.284 15.15 15.15 0 0 1-1.691.28 71.35 71.35 0 0 0 1.902-17.283c0-2.257-.082-4.48-.246-6.668.818.176 1.619.419 2.397.726a9.918 9.918 0 0 1 1.863.958c.51.322.947.748 1.283 1.248.34.665.564 1.383.661 2.123Zm-1.823-8.362c-.214.436-.5.834-.846 1.175a2.69 2.69 0 0 1-.449.341 18.743 18.743 0 0 0-.978-.34c-.59-.187-1.191-.34-1.798-.459a1.257 1.257 0 0 0-.34.008l.406-5c.809-9.93 2.487-30.414 2.947-35.173a3.31 3.31 0 0 1 .965-2.29 2.506 2.506 0 0 1 1.694-.579c.131 0 .262.008.393.022a2.426 2.426 0 0 1 1.558.682c.212.234.372.51.469.811.15.477.222.976.21 1.476 0 .16-.005.329-.017.508-.326 4.982-1.856 22.866-2.787 32.73-.096 2.1-.58 4.164-1.427 6.088Z"/><path fill="#191C22" d="M119.336 129.966h.002l.002-.001-.004.001ZM82.338 133.53h.004l.003-.001-.007.001ZM92.31 133.066h.005l.003-.001-.007.001ZM55.392 164.638v-.005l-.001-.003v.008ZM91.462 181.04v-.001l-.001-.001v.002ZM71.917 176.229v-.001l-.001-.001.001.002ZM135.264 158.925a1.295 1.295 0 0 0-1.826.069 1.301 1.301 0 0 0 .054 1.827l-.003.003c.069.075.129.159.177.249.083.147.129.313.131.482a.992.992 0 0 1-.039.271.305.305 0 0 1-.08.15 1.07 1.07 0 0 1-.479.219 6.154 6.154 0 0 1-1.09.145 1.23 1.23 0 0 0-.362.098 3.779 3.779 0 0 0-.231-.447 3.516 3.516 0 0 0-.586-.733 1.297 1.297 0 0 0-1.771 1.897l-.004.003c.07.075.129.159.178.249.083.147.128.312.131.481a.992.992 0 0 1-.039.271.306.306 0 0 1-.081.151 1.071 1.071 0 0 1-.478.218c-.358.081-.723.13-1.09.145a1.289 1.289 0 0 0-.892.439 1.302 1.302 0 0 0 .119 1.835c.259.228.598.343.942.32a6.922 6.922 0 0 0 2.136-.406 3.292 3.292 0 0 0 1.104-.715c.347-.351.6-.785.733-1.26.117.033.239.05.36.048a6.922 6.922 0 0 0 2.136-.406 3.292 3.292 0 0 0 1.104-.715c.353-.356.609-.797.742-1.281a3.552 3.552 0 0 0-.41-2.874 3.484 3.484 0 0 0-.586-.733ZM119.081 169.367a1.297 1.297 0 0 0-1.142 1.414h-.004l.001.04a1.306 1.306 0 0 1-.081.437.912.912 0 0 1-.372.458.292.292 0 0 1-.184.062 1.246 1.246 0 0 1-.52-.169 6.477 6.477 0 0 1-.879-.584 1.298 1.298 0 0 0-1.822.25 1.302 1.302 0 0 0 .251 1.822c.395.309.816.584 1.258.822a3.743 3.743 0 0 0 1.712.459 2.914 2.914 0 0 0 1.613-.49 3.535 3.535 0 0 0 1.37-1.698c.167-.437.253-.901.254-1.369 0-.104-.005-.207-.016-.31a1.3 1.3 0 0 0-1.439-1.144ZM52.53 147.777l-.002-.005-.001.001c-.123.038-.251.058-.38.058a.933.933 0 0 1-.642-.234l-.098-.126a.584.584 0 0 1-.033-.223 4.28 4.28 0 0 1 .356-1.363 1.301 1.301 0 1 0-2.426-.934 6.539 6.539 0 0 0-.53 2.297 3.17 3.17 0 0 0 .23 1.215c.178.429.457.81.812 1.11a3.551 3.551 0 0 0 2.33.858c.467.003.93-.082 1.364-.252a1.296 1.296 0 0 0-.98-2.403v.001ZM126.13 138.112a1.3 1.3 0 0 0-1.072 1.468h-.005l.002.018.002.07c0 .148-.026.295-.076.434a.927.927 0 0 1-.336.433.297.297 0 0 1-.2.07 1.363 1.363 0 0 1-.536-.158 6.677 6.677 0 0 1-.878-.528 1.291 1.291 0 0 0-1.444-.018 1.31 1.31 0 0 0-.569 1.328 1.301 1.301 0 0 0 .543.834c.393.278.809.525 1.241.737a3.875 3.875 0 0 0 1.643.405c.623 0 1.229-.199 1.73-.568.56-.405.99-.964 1.235-1.61a3.824 3.824 0 0 0 .213-1.842 1.3 1.3 0 0 0-1.493-1.073ZM67.433 164.609l-.004-.004a1.234 1.234 0 0 1-.265.222.967.967 0 0 1-.519.158l-.187-.018a.295.295 0 0 1-.157-.066 1.058 1.058 0 0 1-.263-.456 6.054 6.054 0 0 1-.246-1.071 1.303 1.303 0 0 0-1.489-1.074 1.296 1.296 0 0 0-1.078 1.486 6.93 6.93 0 0 0 .605 2.088c.2.396.477.747.815 1.032.388.319.851.532 1.346.619.216.04.435.06.654.06a3.717 3.717 0 0 0 2.843-1.391 1.297 1.297 0 0 0-2.055-1.585Z"/></svg>