<svg xmlns="http://www.w3.org/2000/svg" width="200" height="200" fill="none"><g fill="#FFD93A"><path d="M161.592 71.425c.124-1.369.2-2.75.2-4.15 0-26.065-20.003-49.382-56.101-49.382-29.962 0-48.821 16.067-54.373 36.431 1.146.05 2.287.183 3.414.4 5.385.989 3.341 3.59-1.132 7.177 6.932-4.317 11.98-4.448 16.158-1.37 4.421 3.257-.678 3.348-14.07 7.161 12.757-3.257 20.325-1.917 21.175 2.808.785 4.363-5.65 2.75-20.036 2.207 13.465.881 20.605 4.597 17.318 9.252-3.033 4.294-9.091.708-20.626-4.166 10.544 4.932 15.326 10.706 8.812 14.045a6.699 6.699 0 0 1-4.807.708c.209.296.414.595.63.887a68.285 68.285 0 0 0-1.558 14.583c0 31.315 22.652 56.701 58.086 56.701 35.433 0 58.085-25.386 58.085-56.701 0-13.464-3.839-26.311-11.175-36.59Zm-16.426 80.991c-2.819 1.358-5.253-3.185-5.253-3.185s.506 5.015-1.947 5.598c-3.683.876-4.323-2.996-4.323-2.996s-4.126 3.99-4.993-2.247c.072-13.302 8.567-15.65 8.567-15.65s4.276-1.256 7.214.252c2.938 1.507.82 4.24.82 4.24a9.023 9.023 0 0 1-.665 5.856s2.855 7.035.58 8.132Z"/><path d="M55.465 70.874c.425 5.096-6.23 9.997-14.866 10.945-8.636.95-15.98-2.413-16.406-7.509-.425-5.096 6.23-9.996 14.866-10.945 8.636-.949 15.981 2.413 16.406 7.51Z"/></g><g fill="#191C22"><path d="M190.235 61.524a10.161 10.161 0 0 0-4.556-.937c-2.484.064-4.943.51-7.292 1.321a51.132 51.132 0 0 0-13.435 6.972 45.881 45.881 0 0 0-2.069-6.157 48.883 48.883 0 0 0-6.133-19.84 1.288 1.288 0 0 0-.096-.387l-.011-.02a8.104 8.104 0 0 0-.104-.2 18.467 18.467 0 0 0-1.454-2.379 46.43 46.43 0 0 0-6.461-7.577c-.152-.149-.294-.304-.448-.45a51.309 51.309 0 0 0-13.477-9.203c.405-1.124 1-2.17 1.759-3.091a8.284 8.284 0 0 1 2.521-2.074 7.874 7.874 0 0 1 1.854-.684 4.673 4.673 0 1 0 .129-2.66 10.574 10.574 0 0 0-3.328 1.115 11.503 11.503 0 0 0-4.352 4.321c-.377.64-.699 1.311-.961 2.006a68.372 68.372 0 0 0-26.631-5.007 68.631 68.631 0 0 0-26.11 4.799 10.6 10.6 0 0 0-.742-3.12 7.036 7.036 0 0 0-1.52-2.278 4.656 4.656 0 1 0-1.677 2.012c.54.64.922 1.4 1.114 2.216.176.7.268 1.417.273 2.138v.1l-.002.02c0 .01.005.017.005.026a51.405 51.405 0 0 0-13.826 9.363 47.942 47.942 0 0 0-5.506 6.278 36.208 36.208 0 0 0-1.979 2.757c-.232.362-.406.652-.527.867a7.26 7.26 0 0 0-.148.272l-.06.124-.042.104-.036.115-.006.027a48.111 48.111 0 0 0-4.572 10.608 8.964 8.964 0 0 0-3.53.764 7.157 7.157 0 0 0-2.328 1.754c-.09.1-.167.217-.252.323a4.024 4.024 0 0 0-.679-1.192 4.233 4.233 0 0 0-1.953-1.272 8.364 8.364 0 0 0-2.612-.357c-1.186.018-2.369.13-3.537.335a12.53 12.53 0 0 0-4.46 1.387 3.997 3.997 0 0 0-1.343 1.29 3.294 3.294 0 0 0-.483 1.747c0 .106.015.21.023.316a9.735 9.735 0 0 0-4.528-1.136 15.55 15.55 0 0 0-7.332 2.234 8.838 8.838 0 0 0-2.045 1.434c-.262.256-.482.55-.653.874-.18.344-.276.726-.279 1.114.013.615.248 1.204.663 1.659.058.064.126.117.187.178a15.473 15.473 0 0 0-5.572 1.238 10.395 10.395 0 0 0-4.518 3.844 7.157 7.157 0 0 0-.627 1.16c-.169.388-.26.805-.269 1.228a2.194 2.194 0 0 0 .581 1.505c.26.274.577.488.926.63a5.677 5.677 0 0 0 1.577.372c.117.013.25.018.373.028-1.19.513-2.301 1.194-3.299 2.021a7.003 7.003 0 0 0-1.612 1.974 5.004 5.004 0 0 0-.6 2.358c.001.4.049.8.143 1.19.1.442.268.865.5 1.254.35.58.867 1.039 1.485 1.316.61.26 1.268.386 1.93.37a14.97 14.97 0 0 0 4.07-.754l.014-.004c-.223.216-.45.432-.648.65a8.646 8.646 0 0 0-1.371 1.963 4.858 4.858 0 0 0-.533 2.136c.001.75.213 1.486.613 2.121.43.665.994 1.232 1.656 1.665a6.231 6.231 0 0 0 3.573 1.134 9.482 9.482 0 0 0 4.488-1.337 25.976 25.976 0 0 0 2.968-1.942 8.156 8.156 0 0 0-.707 3.087c-.006.626.11 1.246.343 1.827a4.556 4.556 0 0 0 1.855 2.14 8.268 8.268 0 0 0 3.086 1.063c.563.093 1.133.14 1.704.142a8.128 8.128 0 0 0 5.15-1.758 13.387 13.387 0 0 0 3.537-4.673 9.458 9.458 0 0 0 1.34 3.657 6.044 6.044 0 0 0 2.364 2.108c.315.152.642.278.977.376.152 3.655.21 6.857.232 9.001-.348.461-.641.96-.874 1.487a29.365 29.365 0 0 0-2.19-.347 5.365 5.365 0 0 0-.62-.037 4.585 4.585 0 0 0-2.089.486 4.73 4.73 0 0 0-2.063 2.125 6.412 6.412 0 0 0-.654 2.877 7.27 7.27 0 0 0 .29 1.992c-.38.385-.678.842-.877 1.345a5.098 5.098 0 0 0-.383 1.917 4.332 4.332 0 0 0 .415 1.875c.218.447.512.853.87 1.199-.17.399-.26.827-.267 1.26a4.381 4.381 0 0 0 1.194 2.91 4.463 4.463 0 0 0 2.484 1.366c.018.056.04.111.067.164a6.016 6.016 0 0 0 1.56 1.505 7.908 7.908 0 0 0 3.636 1.317c.168 5.117.25 10.253.478 15.12a1.302 1.302 0 0 0 1.359 1.238 1.299 1.299 0 0 0 1.238-1.359c-.225-4.802-.306-9.917-.475-15.054l.003-.001a21.344 21.344 0 0 0 2.63 2.412c.71.544 1.484.998 2.304 1.352a7.2 7.2 0 0 0 2.78.586 6.234 6.234 0 0 0 2.923-.726 6.942 6.942 0 0 0 1.862-1.455c.774-.877 1.4-1.874 1.855-2.952.181-.409.346-.828.501-1.253a55.196 55.196 0 0 0 12.55 20.109c.95.967 1.952 1.887 2.978 2.784a45.515 45.515 0 0 0-.092 2.715c.022 3.354.324 6.701.905 10.004a8.68 8.68 0 0 0-3.056 3.354 14.067 14.067 0 0 0-1.384 6.265 14.795 14.795 0 0 0 .309 3.134c.007.032.03.055.04.086a8.243 8.243 0 0 0-.801 3.597c0 .435.03.87.088 1.301.638 4.777 2.085 8.181 4.295 10.421a10.165 10.165 0 0 0 3.774 2.423c1.42.5 2.918.746 4.423.726.346 0 .693-.01 1.043-.031a13.982 13.982 0 0 0 8.79-3.468 10.903 10.903 0 0 0 3.476-8.157c0-.171-.004-.343-.01-.515a34.95 34.95 0 0 0-2.979-11.576 26.476 26.476 0 0 0-3-5.279 9.489 9.489 0 0 0-3.946-3.293 12.894 12.894 0 0 0-3.247-.758 55.469 55.469 0 0 1-.605-5.119c8.966 5.327 19.871 8.385 32.256 8.382 14.452.004 26.88-4.168 36.572-11.24a166.734 166.734 0 0 0-.086 5.451c0 .496.01 1.016.013 1.519-.031.011-.065.018-.096.029a8.884 8.884 0 0 0-4.334 3.422 17.529 17.529 0 0 0-2.44 6.033 1.287 1.287 0 0 0-.008.31 9.457 9.457 0 0 0-.663.638 6.537 6.537 0 0 0-1.132 1.82 20.814 20.814 0 0 0-1.377 7.88 17.981 17.981 0 0 0 1.471 7.66 9.846 9.846 0 0 0 4.645 4.347 15.46 15.46 0 0 0 6.702 1.497 14.36 14.36 0 0 0 6.234-1.366 10.057 10.057 0 0 0 3.802-3.275 18.046 18.046 0 0 0 2.776-6.975c.444-2.366.659-4.769.642-7.176 0-.189-.002-.375-.004-.557a20.475 20.475 0 0 0-1.96-9.033 10.88 10.88 0 0 0-3.001-3.668 9.85 9.85 0 0 0-3.263-1.632c-.003-.493-.007-.99-.007-1.474-.059-4.441.18-8.882.715-13.291a55.934 55.934 0 0 0 11.942-22.203 30.146 30.146 0 0 0 9.8 5.155l.001-.003a23.04 23.04 0 0 0 3.359 1.026 1.3 1.3 0 0 0 .51-2.549l-.01-.002a20.95 20.95 0 0 1-3.105-.969l.593-1.963c.981.339 1.98.621 2.993.845a1.297 1.297 0 0 0 1.522-1.019 1.301 1.301 0 0 0-1.007-1.529l-.012-.003a25.1 25.1 0 0 1-2.744-.784l.599-1.982c1.508.45 2.596.673 2.624.679a1.296 1.296 0 0 0 1.523-1.017 1.3 1.3 0 0 0-1.005-1.531l-.065-.013a32.03 32.03 0 0 1-2.325-.606l.02-.067a18.242 18.242 0 0 1-6.068-3.266 40.295 40.295 0 0 1-4.206-3.92c-.267-.279-.538-.577-.807-.866.02-.541.032-1.083.037-1.627.266.122.516.254.79.371a25.615 25.615 0 0 0 10.156 2.131c.157 0 .32-.013.479-.016a23.2 23.2 0 0 0 1.329.041 20.136 20.136 0 0 0 3.179-.229 1.306 1.306 0 0 0 1.055-.997 1.296 1.296 0 0 0-1.503-1.564h-.004c-.903.133-1.815.196-2.727.19-.069 0-.152-.007-.223-.007l-.145-2.14a23.785 23.785 0 0 0 3.14-.302 1.315 1.315 0 0 0 .836-.54 1.307 1.307 0 0 0 .022-1.445 1.307 1.307 0 0 0-1.326-.573l-.009.002c-.939.15-1.888.238-2.839.263l-.145-2.142c1.752-.138 3.022-.38 3.055-.386a1.3 1.3 0 0 0-.489-2.553l-.063.011a29.93 29.93 0 0 1-3.275.375c-.114.003-.235.012-.347.012a13.28 13.28 0 0 1-4.867-.934A38.744 38.744 0 0 1 172.69 94l-.044-.03a64.834 64.834 0 0 0-2.614-9.231 46.683 46.683 0 0 0 13.113-3.604 22.72 22.72 0 0 0 7.561-5.292 11.685 11.685 0 0 0 3.145-7.864v-.045a8.32 8.32 0 0 0-.606-3.231 6.215 6.215 0 0 0-3.01-3.178ZM74.485 169.04c.323-.632.758-1.2 1.286-1.675l.162.717a73.187 73.187 0 0 0-.431 2.587c-.114.771-.224 1.64-.323 2.542-.015.009-.031.016-.046.024-.621.361-1.208.778-1.752 1.246-.003-.112-.007-.221-.006-.338a11.498 11.498 0 0 1 1.11-5.103Zm10.87-3.097a7.064 7.064 0 0 1 2.796 2.434 25.365 25.365 0 0 1 3.055 5.618c.26.634.504 1.28.726 1.929a29.507 29.507 0 0 1 1.672 7.839c.005.138.008.276.008.412a8.288 8.288 0 0 1-2.646 6.252 11.388 11.388 0 0 1-7.175 2.777c-.302.018-.598.028-.888.028a10.242 10.242 0 0 1-3.53-.569 7.86 7.86 0 0 1-3.994-3.289 18.172 18.172 0 0 1-2.39-7.457 7.224 7.224 0 0 1-.067-.957 5.55 5.55 0 0 1 .957-3.191 8.934 8.934 0 0 1 4.282-3.102 16.344 16.344 0 0 1 5.688-1.038 8.707 8.707 0 0 1 3.585.621 1.297 1.297 0 0 0 1.797-1.585 1.316 1.316 0 0 0-.652-.749 8.088 8.088 0 0 0-1.82-.59 29.886 29.886 0 0 0-.833-2.982c-.299-.89-.673-1.752-1.117-2.579.183.057.367.11.546.178Zm59.076-28.517a1.293 1.293 0 0 0-.407 1.426l-.002.001.006.017c.109.397.162.808.158 1.22a5.238 5.238 0 0 1-1.26 3.388 1.303 1.303 0 0 0-.218 1.265c.305.846.673 1.863.96 2.866.276.868.438 1.768.481 2.678.016.274-.029.547-.131.801l-.066.089-.113.055c-.097.03-.199.046-.301.047a1.01 1.01 0 0 1-.474-.128 3.366 3.366 0 0 1-1.084-1.063 12.173 12.173 0 0 1-1.351-2.72 18.782 18.782 0 0 1-.443-1.378l-.021-.077-.005-.02a1.3 1.3 0 0 0-2.544.523c0 .001.04.25.102.665.093.621.232 1.606.347 2.619.114.915.182 1.834.203 2.755v.076-.005c-.02.303-.154.586-.376.794a1.22 1.22 0 0 1-.835.379 1.066 1.066 0 0 1-.606-.202 2.785 2.785 0 0 1-.831-.982 8.971 8.971 0 0 1-.878-4.33c.004-.877.065-1.752.182-2.62a1.304 1.304 0 0 0-.254-.967 1.302 1.302 0 0 0-1.83-.239 1.298 1.298 0 0 0-.494.869c-.132.98-.2 1.968-.204 2.957.003.772.063 1.543.179 2.307.001.034-.013.064-.01.099.009.091.013.179.013.264.018.459-.13.909-.419 1.266a.959.959 0 0 1-.707.363.874.874 0 0 1-.53-.193 2.39 2.39 0 0 1-.701-.939 3.392 3.392 0 0 1-.206-.871 12.325 12.325 0 0 1-.097-1.641c.007-1.306.132-2.609.373-3.893.215-1.257.595-2.48 1.131-3.637a16.2 16.2 0 0 1 2.418-3.634 7.264 7.264 0 0 1 1.328-1.172 2.637 2.637 0 0 1 1.07-.451 1.285 1.285 0 0 0 1.1-1.057l.011.004c.004-.001.013-.061.155-.173a2.315 2.315 0 0 1 1.136-.375 8.91 8.91 0 0 1 4.309.607c.471.196.903.477 1.273.829.312.301.536.682.645 1.101l.012.081a.428.428 0 0 1-.095.236l-.086.102-.016.015.003.003ZM47.927 81.305a20.512 20.512 0 0 0 4.005-2.162c.178-.126.34-.261.51-.392l.55.23a42.817 42.817 0 0 1 6.753 3.843 15.652 15.652 0 0 1 3.27 2.996c.564.633.91 1.431.983 2.276a1.908 1.908 0 0 1-.447 1.214 5.344 5.344 0 0 1-1.814 1.371 6.009 6.009 0 0 1-2.76.744 5.602 5.602 0 0 1-3.04-.985 22.227 22.227 0 0 1-5.117-5.191c-.921-1.19-1.88-2.516-2.893-3.944Zm-18.948-2.601a8.123 8.123 0 0 1-2.513-2.08 4.566 4.566 0 0 1-.977-2.421 4.29 4.29 0 0 1-.015-.356 5.284 5.284 0 0 1 .939-2.88 12.467 12.467 0 0 1 4.848-4.022 23.21 23.21 0 0 1 7.94-2.287 25.178 25.178 0 0 1 2.753-.153c3.028-.079 6.027.6 8.726 1.975a8.126 8.126 0 0 1 2.513 2.08 4.57 4.57 0 0 1 .977 2.422c.01.118.015.237.015.356a5.283 5.283 0 0 1-.939 2.879 12.467 12.467 0 0 1-4.848 4.023 23.216 23.216 0 0 1-7.94 2.287c-.914.101-1.833.152-2.752.153-3.029.078-6.028-.601-8.727-1.976Zm27.533-16.977a15.428 15.428 0 0 1 6.994-2.016 8.961 8.961 0 0 1 5.48 1.867c.299.212.58.448.84.706-.057.034-.098.062-.173.1-.828.37-1.684.671-2.56.9-2.64.766-6.752 1.72-12.186 3.28a10.723 10.723 0 0 0-2.506-2.082c.693-.528 1.355-1.041 1.978-1.54a31.87 31.87 0 0 1 2.133-1.215Zm-1.986 15.082c.326-.371.627-.764.9-1.177a8.89 8.89 0 0 0 .829-1.644l.338.012c3.841.175 7.65.776 11.36 1.792a13.991 13.991 0 0 1 4.47 2.076c.381.282.707.631.96 1.031.164.26.252.56.256.867a2.54 2.54 0 0 1-.557 1.443 3.1 3.1 0 0 1-1.17 1.047 3.535 3.535 0 0 1-1.589.321 11.835 11.835 0 0 1-3.404-.652c-3.028-.943-7.122-2.876-12.393-5.116Zm8.634-5.089a286.532 286.532 0 0 0-6.38-.315c0-.023.005-.045.005-.067a6.816 6.816 0 0 0-.465-2.461 48.38 48.38 0 0 1 11.38-1.68c2-.096 3.996.262 5.838 1.048.547.26 1.031.634 1.42 1.098.324.401.54.879.626 1.387.027.141.041.285.043.428a.605.605 0 0 1-.078.367.596.596 0 0 1-.21.17c-.375.178-.777.29-1.19.33-.75.094-1.507.135-2.264.125-2.116 0-5.04-.21-8.725-.43Zm45.052 56.075c20.828 0 37.241-7.254 47.264-18.493a19.936 19.936 0 0 1 3.538 2.682c1.292 1.193 2.634 2.634 4.075 4.213l1.096 1.198a50.674 50.674 0 0 1-14.65 14.701c.094-.147.196-.28.288-.431a16.509 16.509 0 0 0 2.523-7.794 4.014 4.014 0 0 0-1.028-2.89 4.011 4.011 0 0 0-2.772-1.313 4.01 4.01 0 0 0-2.887 1.037 4.011 4.011 0 0 0-1.304 2.776 7.824 7.824 0 0 1-.837 3.061 17.995 17.995 0 0 1-3.335 4.459c-.268.276-.538.54-.808.802l-.096-.003a9.744 9.744 0 0 0-1.22.073 4.388 4.388 0 0 0-2.879 1.349 2.878 2.878 0 0 0-.311.439 5.74 5.74 0 0 0-1.383.67 11.258 11.258 0 0 0-2.63 2.561 19.93 19.93 0 0 0-2.018 3.265 12.96 12.96 0 0 0-.472 1.094 88.484 88.484 0 0 1-17.773 2.515 113.72 113.72 0 0 1-4.711.101c-26.595 0-40.102-10.138-47.053-25.201a61.127 61.127 0 0 1-.933-10.649c0-.288.014-.573.018-.86 8.832 12.977 26.313 20.638 50.298 20.638Zm-49.88-85.996a23.598 23.598 0 0 1 6.948-6.496 21.194 21.194 0 0 1 11.025-3.12 21.18 21.18 0 0 1 13.417 4.749c3.387 2.593 6.327 5.906 9.809 8.656a24.208 24.208 0 0 0 5.787 3.484c2.325.95 4.815 1.431 7.327 1.415a17.97 17.97 0 0 0 8.907-2.12c3.561-1.97 5.87-4.956 8.104-7.725 2.236-2.788 4.387-5.356 7.48-6.897a7.246 7.246 0 0 1 3.289-.783 10.06 10.06 0 0 1 4.424 1.147 21.476 21.476 0 0 1 5.976 4.663c.179.194.352.388.521.582a46.259 46.259 0 0 1 9.146 27.92 42.487 42.487 0 0 1-14.774 32.394c-9.48 8.306-23.181 13.499-40.028 13.501-16.846-.002-30.547-5.195-40.028-13.5a44.99 44.99 0 0 1-5.485-5.752 9.226 9.226 0 0 0 2.746-.922 7.873 7.873 0 0 0 2.681-2.09c.639-.797.99-1.787.994-2.809a6.443 6.443 0 0 0-1.52-3.858c-.07-.09-.15-.178-.222-.267.44.157.87.305 1.286.435 1.347.464 2.757.724 4.181.771a6.124 6.124 0 0 0 2.735-.587 5.707 5.707 0 0 0 2.148-1.881 5.111 5.111 0 0 0 1.033-2.943 4.279 4.279 0 0 0-.617-2.189 8.015 8.015 0 0 0-3.273-2.826l-.023-.01a10.715 10.715 0 0 0 3.852-.569 3.37 3.37 0 0 0 1.504-1.16 3.19 3.19 0 0 0 .545-1.853 5.02 5.02 0 0 0-.085-.89 5.63 5.63 0 0 0-1.156-2.554 7.662 7.662 0 0 0-3.736-2.383 14.74 14.74 0 0 0-2.593-.558 4.77 4.77 0 0 0 1.17-.729c.223-.196.408-.43.548-.69.156-.295.238-.624.239-.958a2.24 2.24 0 0 0-.218-.944 3.728 3.728 0 0 0-.768-1.046 9.636 9.636 0 0 0-1.1-.922 11.587 11.587 0 0 0-7.022-2.374c-1.512.02-3.013.27-4.45.743.128-.339.196-.697.2-1.06a2.567 2.567 0 0 0-.37-1.337 3.538 3.538 0 0 0-1.58-1.32 9.638 9.638 0 0 0-2.34-.692 30.991 30.991 0 0 0-1.96-.297 45.32 45.32 0 0 1 5.326-11.35ZM45.969 57.83a4.85 4.85 0 0 1 1.934-1.691 6.733 6.733 0 0 1 2.897-.537c1.242.023 2.479.157 3.697.4.694.09 1.366.307 1.98.641.07.04.13.092.18.155a.91.91 0 0 1-.12.353 6.938 6.938 0 0 1-1.305 1.61 46.028 46.028 0 0 1-4.15 3.457c-.424.324-.86.656-1.311.994A21.358 21.358 0 0 0 44.139 62a14.751 14.751 0 0 1 1.83-4.169Zm-14.12-.414a2.158 2.158 0 0 1 1.033-.713 13.379 13.379 0 0 1 2.974-.76 19.84 19.84 0 0 1 3.12-.301 6.271 6.271 0 0 1 1.654.182c.237.06.463.16.668.293.22.15.39.366.482.616.147.419.213.861.197 1.305-.04 1.129-.201 2.251-.478 3.347-.04.171-.086.357-.13.536-.804.017-1.62.06-2.451.152a27.774 27.774 0 0 0-4.215.803 31.545 31.545 0 0 0-.684-.79 39.59 39.59 0 0 1-.796-1.138 14.148 14.148 0 0 1-1.138-1.959 3.074 3.074 0 0 1-.333-1.19.68.68 0 0 1 .097-.383Zm-14.481 4.84a8.23 8.23 0 0 1 1.187-.757 13.055 13.055 0 0 1 6.092-1.919 7.91 7.91 0 0 1 4.994 1.91 18.8 18.8 0 0 1 2.388 2.273 20.692 20.692 0 0 0-4.302 2.278c-.134.095-.255.198-.385.296a51.492 51.492 0 0 0-4.215-1.107 89.396 89.396 0 0 1-2.096-.695 20.168 20.168 0 0 1-3.393-1.435 2.882 2.882 0 0 1-.642-.48c.107-.137.233-.26.372-.364Zm-10.5 9.478c.109-.27.247-.526.412-.765a7.78 7.78 0 0 1 3.41-2.89 13.706 13.706 0 0 1 5.677-1.056c2.965.066 5.909.526 8.753 1.367-.321.367-.618.755-.888 1.162a8.85 8.85 0 0 0-.87 1.748c-2.238.071-4.274.169-6.093.267-3.463.188-6.17.373-8.038.372a9.227 9.227 0 0 1-2.363-.205Zm2.67 9.98c-1.077.364-2.197.582-3.332.647a1.701 1.701 0 0 1-.995-.216.72.72 0 0 1-.2-.222 1.737 1.737 0 0 1-.19-.503 2.392 2.392 0 0 1 .225-1.73 6.043 6.043 0 0 1 2.365-2.181 26.344 26.344 0 0 1 8.387-2.727 64.251 64.251 0 0 1 7.08-.84c.003.158.007.318.02.477a6.86 6.86 0 0 0 .597 2.246c-3.333 1.195-6.23 2.306-8.689 3.222-2.06.767-3.82 1.398-5.269 1.828Zm7.287 8.538a6.972 6.972 0 0 1-3.245 1.02c-.757 0-1.493-.24-2.106-.682a3.099 3.099 0 0 1-.913-.886 1.379 1.379 0 0 1-.223-.752 2.28 2.28 0 0 1 .268-.993 8.513 8.513 0 0 1 2.193-2.537 34.832 34.832 0 0 1 7.373-4.468 73.024 73.024 0 0 1 4.822-2.062c.902.934 1.955 1.71 3.116 2.293-2.608 2.301-4.889 4.347-6.897 5.977a30.329 30.329 0 0 1-4.388 3.09Zm16.788 1.154a10.676 10.676 0 0 1-2.752 3.643 5.5 5.5 0 0 1-3.544 1.203 8.154 8.154 0 0 1-1.291-.109 4.756 4.756 0 0 1-2.506-.992 1.75 1.75 0 0 1-.442-.628 2.199 2.199 0 0 1-.149-.843 6.469 6.469 0 0 1 .782-2.714 26.313 26.313 0 0 1 4.2-5.777 57.1 57.1 0 0 1 2.897-2.925c1.835.561 3.735.886 5.652.965a42.845 42.845 0 0 1-2.847 8.177Zm5.406 2.28a12.118 12.118 0 0 1-.657-4.369c.016-1.496.134-2.99.352-4.47.144-.524.285-1.065.425-1.607a27.688 27.688 0 0 0 6.236-1.04l.094.133a36.734 36.734 0 0 1 1.891 3.406 14.75 14.75 0 0 1 1.718 6.029 4.943 4.943 0 0 1-.253 1.645 3.413 3.413 0 0 1-1.338 1.729 7.185 7.185 0 0 1-3.085 1.062c-.441.065-.886.099-1.331.1a4.9 4.9 0 0 1-2.206-.447 3.828 3.828 0 0 1-1.846-2.171Zm5.632 17.005a7.957 7.957 0 0 0-1.123-.604v-.345c0-.293 0-.691-.003-1.163a.647.647 0 0 1 .363-.144.714.714 0 0 1 .342.107c.204.105.385.249.534.425.2.261.33.569.377.895.07.426.102.858.097 1.29a5.456 5.456 0 0 0-.587-.461Zm-8.987 1.337c.175-.233.4-.424.658-.558.283-.14.595-.21.91-.204.106 0 .212.007.318.019l.003.001c1.594.151 3.163.506 4.666 1.057.5.184.962.458 1.364.809.1.092.182.201.244.322a.556.556 0 0 1 .057.249l-.001.04a1.525 1.525 0 0 1-.25.795 2.027 2.027 0 0 1-.84.668 2.744 2.744 0 0 1-.328.126l-.01-.006a9.157 9.157 0 0 0-3.112-1.119 7.264 7.264 0 0 0-1.042-.073 9.265 9.265 0 0 0-3.209.611 4.675 4.675 0 0 1-.065-.61c-.022-.759.201-1.505.637-2.127Zm-1.446 8.134a1.733 1.733 0 0 1-.161-.754c.003-.32.067-.636.189-.931.065-.177.161-.34.284-.482.156-.133.325-.249.505-.348.999-.561 2.12-.868 3.266-.893.224-.001.449.015.671.046l.002.001a7.211 7.211 0 0 1 2.899 1.249c.377.259.72.565 1.02.911.087.104.164.216.228.336l.036.085.002.001.004.083a1.69 1.69 0 0 1-.322.875 8.209 8.209 0 0 0-1.306-.355 13.514 13.514 0 0 0-2.368-.199 13.698 13.698 0 0 0-2.695.256 8.352 8.352 0 0 0-1.883.598 1.771 1.771 0 0 1-.371-.479Zm.857 3.58a.719.719 0 0 1 .075-.341.652.652 0 0 1 .253-.252 5.053 5.053 0 0 1 1.585-.558 11.143 11.143 0 0 1 2.18-.204c.639-.003 1.277.05 1.907.158.43.064.847.19 1.24.375.182.101.33.256.422.444.111.223.17.47.168.719.004.217-.045.432-.143.626a.432.432 0 0 1-.222.218c-.745.237-1.513.388-2.292.452a25.95 25.95 0 0 1-2.688.142c-.272 0-.52-.006-.728-.014a1.937 1.937 0 0 1-1.757-1.765Zm8.839 4.587c-.016-.391-.029-.781-.046-1.171.49-.282.894-.692 1.167-1.187a3.9 3.9 0 0 0 .47-1.888 4.176 4.176 0 0 0-.46-1.917c-.042-.08-.096-.157-.144-.236.023-.032.045-.057.068-.091.496-.694.773-1.52.794-2.373 0-.108-.005-.217-.016-.329a3.46 3.46 0 0 0-.848-1.829c-.058-.07-.128-.135-.19-.204a4.306 4.306 0 0 0 1.037-1.038c.155.415.353.813.593 1.186.619.989.936 2.137.914 3.304a8.199 8.199 0 0 1-.331 2.275l-.04.122-.007.023-.001.002c-.109.296-.108.62.004.915.105.323.155.662.148 1.002a3.509 3.509 0 0 1-.63 2.069 3.72 3.72 0 0 1-2.482 1.365Zm9.595-10.383c-.41 1.697-.775 3.3-1.13 4.715a45.076 45.076 0 0 1-.78 2.81c-.15.483-.307.901-.452 1.245-.072-.06-.137-.109-.215-.179a17.782 17.782 0 0 1-1.327-1.32c.005-.106.02-.219.02-.322a5.85 5.85 0 0 0-.183-1.42c.272-.949.41-1.932.411-2.919a8.612 8.612 0 0 0-1.33-4.714 4.008 4.008 0 0 1-.562-1.497 10.337 10.337 0 0 1-.124-1.826c0-.37.007-.75.007-1.138a8.51 8.51 0 0 0-.333-2.713 4.248 4.248 0 0 0-.736-1.348 4.346 4.346 0 0 0-1.305-1.063 3.309 3.309 0 0 0-1.582-.422 2.872 2.872 0 0 0-.393.037c-.03-1.914-.087-4.319-.193-6.976.491-.01.982-.05 1.468-.119 1.948-.172 3.78-1 5.196-2.348a5.971 5.971 0 0 0 1.312-2.153c.274-.807.41-1.655.4-2.508a11.105 11.105 0 0 0-.137-1.665c.061.063.123.124.184.185a38.27 38.27 0 0 0 3.758 12.744 71.404 71.404 0 0 0-.187 4.985c.004 2.426.145 4.85.423 7.26a3.974 3.974 0 0 0-2.21 2.669Zm96.28 47.65a6.01 6.01 0 0 1 1.394-1.017 75.78 75.78 0 0 0-.964 4.413 11.35 11.35 0 0 0-2.752.632 10.144 10.144 0 0 1 2.322-4.028Zm11.064-.201a9.357 9.357 0 0 1 3.028 4.601c.611 1.964.92 4.01.917 6.067a40.12 40.12 0 0 1-.041 2.427 28.29 28.29 0 0 1-1.098 6.966 13.216 13.216 0 0 1-1.79 3.774 7.468 7.468 0 0 1-2.82 2.447 11.762 11.762 0 0 1-5.101 1.106 12.885 12.885 0 0 1-5.562-1.233 7.285 7.285 0 0 1-3.452-3.159 15.552 15.552 0 0 1-1.204-6.512 21.793 21.793 0 0 1 .549-4.961c.148-.641.351-1.268.608-1.874.161-.4.385-.772.662-1.101a7.216 7.216 0 0 1 2.763-1.863 9.263 9.263 0 0 1 3.305-.572c1.85.021 3.675.426 5.36 1.189a9.332 9.332 0 0 1 3.589 2.613 1.301 1.301 0 0 0 1.82.264c.03-.022.044-.056.071-.08a1.292 1.292 0 0 0 .192-1.74c-.145-.192-.326-.368-.491-.552a39.734 39.734 0 0 0-.273-1.77 33.94 33.94 0 0 0-1.679-6.11 4.157 4.157 0 0 0-.257-.507c.315.171.617.364.904.58Zm-4.768-18.197c-9.844 10.002-23.997 16.213-41.404 16.219-16.654-.005-30.319-5.701-40.092-14.953 8.665 6.002 20.259 8.637 34.008 8.637 1.361 0 2.742-.026 4.143-.077a88.667 88.667 0 0 0 17.089-2.243c.43.196.897.299 1.369.303a3.491 3.491 0 0 0 2.362-.966 5.16 5.16 0 0 0 1.444 1.539c.605.414 1.32.638 2.053.642a3.872 3.872 0 0 0 3.791-3.583c.304.292.646.542 1.017.742a3.54 3.54 0 0 0 2.721.264 2.896 2.896 0 0 0 1.042-.557c.424-.365.738-.842.905-1.376.151-.486.224-.993.216-1.502a9.54 9.54 0 0 0-.174-1.702c10.255-5.46 17.867-13.269 22.164-22.615a52.825 52.825 0 0 1-12.654 21.228Zm12.222-55.979a31.115 31.115 0 0 0-2.832-1.429c.505-2.36.81-4.759.912-7.17a60.79 60.79 0 0 1 3.129 9.317c-.393-.242-.797-.48-1.209-.718Zm22.944-23.24a9.067 9.067 0 0 1-2.491 6.138c-2.397 2.72-6.474 4.895-11.106 6.328a48.774 48.774 0 0 1-8.592 1.801 59.975 59.975 0 0 0-2.826-5.858 47.26 47.26 0 0 0-.669-4.738 54.302 54.302 0 0 1 5.98-3.874 43.613 43.613 0 0 1 7.642-3.394 21.693 21.693 0 0 1 6.49-1.195 6.474 6.474 0 0 1 4.146 1.146 3.53 3.53 0 0 1 1.026 1.383c.28.708.416 1.466.4 2.228v.034Z"/><path d="M108.24 101.841a7.144 7.144 0 0 0 2.14 1.594 7.478 7.478 0 0 0 3.292.722 11.486 11.486 0 0 0 6.277-2.118 15.03 15.03 0 0 0 2.517-2.1 1.3 1.3 0 1 0-1.917-1.755h-.001a12.864 12.864 0 0 1-2.17 1.777 8.839 8.839 0 0 1-4.706 1.596 4.878 4.878 0 0 1-2.162-.464 4.692 4.692 0 0 1-1.804-1.571 5.02 5.02 0 0 1-.395-.674l-.082-.184-.015-.037-.001-.003-.001.001a1.3 1.3 0 0 0-2.397-.128c-.149.31-.168.668-.053.993.337.871.84 1.669 1.478 2.351ZM89.651 92.4a5.93 5.93 0 0 0 2.658 2.399 6.793 6.793 0 0 0 2.818.657 3.71 3.71 0 0 0 1.07-.14c.203-.06.395-.149.57-.265a1.6 1.6 0 0 0 .59-.709c.118-.269.18-.559.184-.853a1.98 1.98 0 0 0-.218-.886c-.149-.287-.211-.366-.275-.52a2.787 2.787 0 0 1-.187-.806 3.21 3.21 0 0 1-.013-.326c0-.527.063-1.442.13-2.471.067-1.035.135-2.199.135-3.317a12.599 12.599 0 0 0-.297-3.073 3.68 3.68 0 0 0-.623-1.342 2.303 2.303 0 0 0-.647-.572 2.105 2.105 0 0 0-.885-.28v-.001h-.012l-.004-.001-.214-.01a3.054 3.054 0 0 0-1.305.307 5.184 5.184 0 0 0-1.74 1.438 10.982 10.982 0 0 0-1.798 3.354 12.995 12.995 0 0 0-.717 4.169c0 .157.004.314.01.47.03.975.293 1.927.77 2.777ZM130.946 92.4a5.933 5.933 0 0 0 2.658 2.399 6.792 6.792 0 0 0 2.818.657c.362.006.723-.041 1.071-.14.202-.06.394-.149.569-.265a1.6 1.6 0 0 0 .59-.709 2.2 2.2 0 0 0 .184-.853 1.967 1.967 0 0 0-.218-.886c-.149-.287-.211-.366-.275-.52a2.796 2.796 0 0 1-.187-.806 3.21 3.21 0 0 1-.013-.326c-.001-.527.063-1.442.13-2.471.067-1.035.135-2.199.136-3.317a12.604 12.604 0 0 0-.298-3.073 3.688 3.688 0 0 0-.623-1.342 2.293 2.293 0 0 0-.647-.572 2.104 2.104 0 0 0-.885-.28l.001-.001h-.013l-.004-.001-.214-.01a3.057 3.057 0 0 0-1.305.307 5.186 5.186 0 0 0-1.741 1.438 10.972 10.972 0 0 0-1.797 3.354 13.003 13.003 0 0 0-.717 4.169c0 .157.003.314.01.47.029.975.294 1.927.77 2.777Z"/></g></svg>