<svg xmlns="http://www.w3.org/2000/svg" width="200" height="200" fill="none"><path fill="#BEBEC9" d="M83.79 90.74a2.348 2.348 0 0 0-.393-.437c-.091-.075-.2-.156-.355-.231a1.46 1.46 0 0 0-.633-.146c-.205 0-.452.045-.698.187-.094.054-.189.127-.266.204-.213.218-.312.393-.409.56-.137.25-.233.48-.306.662l-.033.088c-.665.768-1.006 1.666-.999 2.49a3.47 3.47 0 0 0 .676 2.061c.203.272.44.508.732.699.291.186.65.345 1.116.35.138 0 .28-.031.42-.065l.003.012c.025-.006.047-.017.071-.023.012-.004.024-.002.036-.006l-.002-.005c.332-.087.652-.223.925-.422.458-.33.763-.794.928-1.243.169-.453.22-.899.222-1.324-.006-.913-.238-1.76-.525-2.463a4.884 4.884 0 0 0-.51-.947ZM116.066 90.703c-.055-.08-.15-.22-.268-.385a12.49 12.49 0 0 0-.286-.386 4.409 4.409 0 0 0-.336-.392 1.289 1.289 0 0 0-.311-.23 1.416 1.416 0 0 0-1.259-.033 1.728 1.728 0 0 0-.551.403 3.108 3.108 0 0 0-.472.687 6.218 6.218 0 0 0-.677 2.758c.001.414.049.849.185 1.287.213.686 5.197-.523 5.155-1.24-.041-.837-.436-1.75-1.18-2.47ZM180.938 132.341a8.684 8.684 0 0 0-.285-.471c.127-.382.23-.867.229-1.462a5.827 5.827 0 0 0-.134-1.231l-.013-.054c-.289-1.138-.876-2.167-1.813-2.852-.935-.687-2.11-.976-3.41-.974-.546 0-1.125.054-1.736.148.122-.648.2-1.339.201-2.057-.006-1.279-.197-2.61-.801-3.778-.305-.581-.73-1.128-1.318-1.533a3.657 3.657 0 0 0-2.106-.637c-.278 0-.565.027-.858.082l-.028.006c-.49.102-.948.32-1.315.614-.65.52-1.005 1.194-1.257 1.846-.371.987-.545 2.024-.793 2.993-.24.97-.545 1.843-.999 2.465-.785 1.088-1.55 2.275-2.114 3.697-.565 1.42-.916 3.068-.914 5.021 0 .702.044 1.446.138 2.237.118.99.195 2.022.195 3.048.001 1.332-.131 2.653-.462 3.863-.502 1.82-1.405 3.367-3.032 4.542-1.523 1.095-3.774 1.882-7.075 2.035-1.127-13.835-2.731-27.487-4.545-40.031 9.26.466 19.143 1.832 25.915 3.408a1.3 1.3 0 0 0 .589-2.532c-7.106-1.649-17.315-3.049-26.888-3.496-.269-1.81-.542-3.597-.818-5.353 5.901-.625 12.276-.999 18.146-.999 4.052 0 7.866.178 11.105.566a1.3 1.3 0 0 0 .309-2.582c-3.383-.405-7.285-.583-11.414-.584-6.026.001-12.53.383-18.558 1.028-.22-1.362-.441-2.711-.664-4.035a1.3 1.3 0 0 0-2.564.433c.216 1.28.43 2.584.643 3.9-2.722.333-5.317.717-7.679 1.144a1.299 1.299 0 1 0 .463 2.558c2.333-.422 4.913-.804 7.627-1.134.257 1.628.51 3.286.76 4.961a120.608 120.608 0 0 0-3.425-.054c-1.656 0-3.265.037-4.804.115a1.3 1.3 0 1 0 .132 2.597 92.076 92.076 0 0 1 4.672-.112 120.49 120.49 0 0 1 3.81.063c1.886 12.968 3.551 27.147 4.69 41.484a1.293 1.293 0 0 0 1.329 1.185c.16.067.335.104.519.101 2.704-.048 4.938-.471 6.78-1.213 2.765-1.104 4.608-2.975 5.658-5.113 1.058-2.137 1.38-4.496 1.381-6.745 0-1.156-.086-2.288-.213-3.355a16.303 16.303 0 0 1-.12-1.93c.001-1.649.284-2.93.731-4.063.448-1.131 1.075-2.122 1.805-3.133.592-.822.941-1.715 1.197-2.566.378-1.275.571-2.495.849-3.297.133-.401.283-.68.402-.818.123-.135.175-.168.339-.212.13-.024.25-.035.355-.035.302.004.465.068.631.178.242.16.514.529.704 1.111.192.574.291 1.319.29 2.059 0 .648-.074 1.294-.192 1.82-.112.522-.296.933-.379 1.039-.009.013-.01.029-.019.042-.505.26-.954.578-1.324.966a3.82 3.82 0 0 0-1.08 2.656c.012 1.027.419 1.961 1.056 2.741.139.166.296.319.46.466-.085.112-.174.214-.251.343a3.343 3.343 0 0 0-.443 2.169c.096.701.391 1.297.736 1.765.234.316.491.576.747.802a3.909 3.909 0 0 0-.485.694 3.88 3.88 0 0 0-.466 1.87c0 .176.011.353.033.533.097.939.538 1.835 1.243 2.424.699.593 1.546.896 2.47 1.081h.002c.396.076.855.11 1.382.114.513 2.173.791 4.359.791 6.499-.003 5.448-1.703 10.554-5.387 14.491-3.687 3.932-9.416 6.77-17.739 7.465-.088.008-.162.047-.243.071-.017.001-.032-.007-.049-.005a1.299 1.299 0 0 0-1.164 1.423l-.001-.001c.525 5.241 1.035 8.031 1.292 13.93a1.3 1.3 0 0 0 2.598-.113c-.241-5.526-.704-8.439-1.174-12.838 8.255-.878 14.358-3.858 18.378-8.155 4.195-4.477 6.093-10.287 6.089-16.268 0-2.251-.281-4.529-.791-6.785.163-.038.326-.072.488-.12a6.248 6.248 0 0 0 1.526-.659c.483-.298.941-.696 1.275-1.239.431-.698.62-1.451.617-2.133-.005-1.061-.4-1.899-.772-2.495.483-.566 1.035-1.419 1.142-2.571l.001-.012c.008-.101.013-.209.013-.322-.011-1.13-.441-2.05-.819-2.735Zm-4.458 3.919c-1.032.001-2.241.099-3.45.436a4.206 4.206 0 0 1-.492-.334 2.655 2.655 0 0 1-.529-.545 1.237 1.237 0 0 1-.228-.54l-.008-.109a.736.736 0 0 1 .113-.384c.115-.203.369-.438.603-.592a2.87 2.87 0 0 1 .293-.176l.027-.013a13.323 13.323 0 0 1 1.746-.343 39.142 39.142 0 0 1 3.119-.286c.325-.018.594-.03.83-.039.063.099.13.209.195.328.263.462.469 1.047.458 1.413l-.004.107c-.032.399-.263.807-.539 1.123-.025.029-.048.05-.072.077a17.558 17.558 0 0 0-2.062-.123Zm.902-7.894c.358.268.631.662.828 1.384.052.255.072.474.072.658 0 .135-.016.235-.031.335a54.38 54.38 0 0 0-1.742.101c-.727.055-1.531.132-2.313.241a15.99 15.99 0 0 0-1.978.392.765.765 0 0 1-.332-.103c-.216-.116-.472-.367-.645-.664-.178-.292-.263-.623-.259-.799.007-.321.099-.575.365-.864.267-.283.748-.583 1.507-.769 1.068-.263 1.957-.382 2.658-.381.94.002 1.504.2 1.87.469Zm1.158 12.884c-.065.107-.196.245-.424.385-.337.212-.873.401-1.456.515a9.12 9.12 0 0 1-1.73.166 5.49 5.49 0 0 1-.944-.068c-.675-.131-1.085-.331-1.282-.505-.193-.18-.289-.317-.352-.754l-.015-.228a1.26 1.26 0 0 1 .149-.626c.129-.241.363-.449.584-.585.109-.068.209-.117.274-.145l.066-.027.006-.003v-.002c.131-.044.251-.107.359-.187.875-.238 1.849-.328 2.705-.327.639 0 1.206.045 1.623.09.088.105.202.251.308.426.21.336.366.746.362 1.101-.003.238-.05.469-.233.774Z"/><path fill="#BEBEC9" d="M133.92 46.563a1.3 1.3 0 0 0-2.047-.696c-.039.03-7.68 5.897-18.661 17.086-1.719-.06-3.562-.088-5.483-.088-11.352 0-25.21.9-28.224 1.105L63.59 47.55a1.302 1.302 0 0 0-2.157.464C56.87 60.696 53.744 75.92 51.571 90.51c-10.052-1.712-19.794-2.508-27.63-2.686a1.3 1.3 0 1 0-.059 2.6c7.727.173 17.384.965 27.314 2.66a411.875 411.875 0 0 0-.81 6.023c-.963-.02-1.925-.037-2.887-.037-9.604 0-19.115.97-27.267 2.335a1.3 1.3 0 1 0 .43 2.565c8.024-1.345 17.408-2.301 26.837-2.301.855 0 1.71.017 2.564.033-.282 2.33-.544 4.622-.782 6.855-8.816 1.015-18.017 2.663-25.422 4.421a1.3 1.3 0 1 0 .601 2.53c7.128-1.696 16.02-3.293 24.546-4.301a569.047 569.047 0 0 0-1.648 19.875c-.007.105.023.2.04.299-2.294.852-4.5 1.791-6.563 2.841-3.93 2.005-7.367 4.401-9.963 7.335-2.594 2.928-4.33 6.424-4.771 10.473a27.29 27.29 0 0 0-.168 2.986c-.009 5.668 1.926 10.311 5.095 13.821 3.001 3.334 7.064 5.656 11.582 7.147-.462 4.677-.712 7.78-.957 12.679a1.3 1.3 0 0 0 2.597.13c.258-5.169.514-8.24 1.032-13.419.048-.475-.18-.899-.54-1.162a1.272 1.272 0 0 0-.632-.467c-4.483-1.372-8.391-3.578-11.15-6.647-2.755-3.075-4.419-6.995-4.427-12.082 0-.866.05-1.767.152-2.703.386-3.478 1.835-6.425 4.136-9.034 3.444-3.908 8.857-6.979 15.165-9.35 6.303-2.376 13.479-4.066 20.402-5.344 1.433-.259 2.54-1.074 3.323-2.003 1.182-1.401 1.841-3.077 2.514-4.335.329-.628.654-1.142.947-1.451.302-.313.498-.41.745-.447l.006-.001c.1-.013.19-.019.272-.019.265.003.399.053.502.111.146.085.297.248.435.614.134.359.215.884.213 1.464a8.974 8.974 0 0 1-.302 2.219 6.53 6.53 0 0 1-.37 1.059 21.45 21.45 0 0 0-1.384.202 1.3 1.3 0 1 0 .476 2.556c1.049-.195 2.007-.293 2.837-.293 1.162-.002 2.06.199 2.624.506.284.153.49.326.651.524.154.193.27.419.352.716.05.252.074.484.074.689 0 .158-.018.292-.037.423-.107-.002-.209-.005-.321-.005-.715 0-1.545.038-2.47.145a1.3 1.3 0 0 0 .3 2.583 18.826 18.826 0 0 1 2.62-.122c.093.155.195.333.299.541.275.532.495 1.206.483 1.592l-.004.107c-.03.399-.262.809-.539 1.126-.018.021-.035.036-.053.056a19.976 19.976 0 0 0-.986-.026c-.531 0-1.113.02-1.738.07a1.3 1.3 0 1 0 .207 2.592 19.343 19.343 0 0 1 1.532-.062c.134 0 .255.004.382.007.135.323.289.829.287 1.437 0 .355-.05.748-.186 1.18-.05.144-.135.283-.424.48-.423.29-1.281.573-2.387.729-1.106.163-2.451.224-3.884.224-.5 0-1.01-.007-1.526-.019l-.201.011c-.044.007-5.405.713-11.177 2.561-2.888.928-5.88 2.136-8.395 3.735-1.256.802-2.395 1.703-3.334 2.738-.936 1.034-1.675 2.211-2.076 3.538a1.3 1.3 0 0 0 2.489.753c.267-.886.778-1.732 1.514-2.546 1.285-1.424 3.264-2.709 5.519-3.772 3.38-1.603 7.356-2.724 10.466-3.429a72.694 72.694 0 0 1 4.95-.946l.292-.042h.004c.494.011.987.018 1.475.018 2.01-.003 3.913-.103 5.518-.492.803-.198 1.54-.467 2.19-.894.643-.42 1.211-1.051 1.465-1.86a6.487 6.487 0 0 0 .308-1.967 6.387 6.387 0 0 0-.405-2.225c.047-.05.09-.091.139-.147.487-.565 1.055-1.43 1.164-2.6.01-.119.014-.23.014-.335-.012-1.131-.427-2.087-.793-2.824-.123-.241-.239-.444-.347-.625a5.541 5.541 0 0 0 .266-1.708c0-.388-.04-.81-.134-1.257l-.013-.057a4.527 4.527 0 0 0-.853-1.72c-.598-.745-1.416-1.255-2.317-1.563-.66-.226-1.371-.352-2.126-.406.03-.101.069-.187.097-.291.235-.893.387-1.889.388-2.884-.006-1.062-.159-2.138-.722-3.1a3.44 3.44 0 0 0-1.219-1.226 3.553 3.553 0 0 0-1.81-.462c-.2 0-.405.013-.616.042a3.586 3.586 0 0 0-1.673.682c-.816.609-1.33 1.412-1.789 2.228-.676 1.228-1.228 2.558-1.896 3.56-.331.501-.681.912-1.052 1.207a2.764 2.764 0 0 1-1.252.579c-5.98 1.106-12.167 2.518-17.91 4.435a561.71 561.71 0 0 1 1.644-19.55c3.714-.387 7.318-.654 10.622-.748a1.3 1.3 0 1 0-.074-2.598v-.001c-3.22.093-6.696.343-10.27.705.227-2.119.476-4.288.744-6.49 2.915.114 5.813.318 8.65.651a1.3 1.3 0 1 0 .304-2.582c-2.84-.333-5.73-.54-8.63-.658.238-1.865.492-3.75.761-5.651 3.187.592 6.386 1.275 9.545 2.067a1.3 1.3 0 0 0 .633-2.521 161.46 161.46 0 0 0-9.804-2.121c2.044-13.75 4.95-28.047 9.06-40.092l14.867 15.34c.268.277.641.42 1.026.392.003 0 .994-.071 2.688-.178 5.083-.32 16.46-.962 25.957-.962 2.11 0 4.126.031 5.955.105.366.015.726-.128.982-.39 5.548-5.677 10.255-9.997 13.571-12.894a151.34 151.34 0 0 1 3.67-3.114c1.179 4.668 4.295 17.55 7.7 36.016a1.3 1.3 0 0 0 2.557-.472c-4.351-23.595-8.237-38.126-8.244-38.153Z"/><path fill="#BEBEC9" d="M75.576 117.771h.003l.004-.001-.007.001Z"/><path fill="#FFE632" d="M191.476 90.728a1.989 1.989 0 0 0-.471-.757 1.995 1.995 0 0 0-.758-.472 2.348 2.348 0 0 0-.772-.125c-.739.01-1.376.26-2.026.615a8.752 8.752 0 0 0-1.895 1.46 8.743 8.743 0 0 0-1.46 1.895c-.354.65-.605 1.287-.615 2.026 0 .245.033.506.125.772s.25.537.471.757c.22.222.492.38.757.471.267.093.527.125.772.125.739-.01 1.376-.26 2.027-.614a8.8 8.8 0 0 0 1.895-1.46 8.823 8.823 0 0 0 1.46-1.896c.354-.65.604-1.287.614-2.026 0-.244-.032-.504-.124-.771ZM106.413 8.469c.341.534.801.96 1.35 1.354.55.39 1.194.735 1.911 1.017 1.018.396 2.008.605 2.911.608.495-.002.968-.06 1.442-.247.236-.096.474-.228.695-.423.22-.193.419-.457.538-.764l.005-.013c.087-.227.131-.474.13-.71-.004-.53-.189-.956-.41-1.312-.341-.533-.801-.96-1.35-1.354a8.949 8.949 0 0 0-1.91-1.016c-1.019-.397-2.009-.606-2.912-.609-.495.002-.969.06-1.443.248a2.405 2.405 0 0 0-.695.423 2.004 2.004 0 0 0-.534.759 1.93 1.93 0 0 0-.138.726c.004.53.189.957.41 1.313Z"/><path fill="#FFE632" d="m106.138 6.435.003-.005.001-.006-.004.011ZM35.148 64.018l.002-.005.002-.006-.005.01ZM42.645 64.209a8.985 8.985 0 0 0-1.91-1.016c-1.018-.398-2.01-.607-2.912-.61-.495.003-.969.06-1.443.248a2.394 2.394 0 0 0-.695.423 1.998 1.998 0 0 0-.534.759 1.953 1.953 0 0 0-.138.727c.004.53.189.956.41 1.312.341.534.801.96 1.35 1.354.55.39 1.194.735 1.91 1.017 1.018.396 2.008.606 2.912.608.495-.002.969-.06 1.443-.247.235-.096.474-.228.695-.423.22-.194.418-.458.537-.764l.004-.01c.088-.228.132-.477.132-.713-.004-.53-.19-.957-.411-1.312-.342-.534-.801-.96-1.35-1.353ZM85.937 25.728c.25-.354.467-.802.47-1.365a1.96 1.96 0 0 0-.076-.545l-.001-.005a2.02 2.02 0 0 0-.579-.918c-.376-.341-.788-.51-1.201-.622a5.141 5.141 0 0 0-1.3-.152 8.73 8.73 0 0 0-2.41.369c-1.014.297-1.9.719-2.606 1.243a4.203 4.203 0 0 0-.919.911c-.25.354-.466.801-.47 1.365a1.969 1.969 0 0 0 .656 1.468c.377.34.788.51 1.202.622.415.108.846.151 1.3.152.75 0 1.567-.123 2.41-.368 1.014-.298 1.9-.72 2.605-1.244.352-.264.663-.555.919-.911ZM9.944 67.37l.003-.001.003-.003-.006.004Z"/><path fill="#FFE632" d="M14.996 69.898c-.526-.79-1.12-1.453-1.748-1.955a4.903 4.903 0 0 0-.992-.625 2.83 2.83 0 0 0-1.18-.281 2.03 2.03 0 0 0-1.129.332 2.04 2.04 0 0 0-.768.965A2.798 2.798 0 0 0 9 69.359c.003.6.14 1.19.363 1.8a9.06 9.06 0 0 0 .95 1.845c.527.79 1.12 1.453 1.749 1.955.316.25.64.462.992.624.35.16.732.28 1.18.282.358.003.774-.093 1.129-.33l.004-.003c.374-.247.63-.616.763-.964.137-.353.178-.694.18-1.025-.004-.6-.14-1.19-.364-1.8a9.051 9.051 0 0 0-.95-1.845ZM35.101 46.04c.526-.06.966-.34 1.252-.645.435-.467.65-.991.806-1.558.15-.568.22-1.19.221-1.857 0-.366-.021-.746-.068-1.135-.133-1.1-.422-2.084-.856-2.888-.221-.402-.477-.765-.829-1.076-.344-.304-.837-.582-1.453-.585l-.233.015c-.523.061-.962.34-1.248.644-.436.467-.65.992-.806 1.558-.15.569-.221 1.191-.222 1.858 0 .367.023.748.069 1.136.132 1.099.42 2.082.855 2.886.22.402.477.765.828 1.076.345.304.838.583 1.454.585l.224-.013h.006Z"/><path fill="#FFE632" d="M33.937 36.312h.005l.005-.002-.01.002ZM156.339 46.74l.004-.006.001-.004-.005.01Z"/><path fill="#FFE632" d="M156.477 48.898c.296.532.708.983 1.207 1.41.499.425 1.09.815 1.754 1.152 1.15.575 2.273.898 3.311.906.407-.002.811-.05 1.224-.214.406-.159.852-.48 1.105-.982l.005-.01c.142-.283.209-.603.208-.896-.004-.494-.158-.899-.351-1.254-.296-.532-.708-.983-1.206-1.41a9.038 9.038 0 0 0-1.755-1.151c-1.15-.577-2.273-.9-3.311-.908-.407.002-.812.05-1.226.215-.405.159-.847.48-1.099.978a1.977 1.977 0 0 0-.217.91c.003.494.157.899.351 1.254ZM177.758 23.465l.003.002.002.001-.005-.003ZM177.761 23.467a2.006 2.006 0 0 0-1.011-.267c-.473.003-.867.14-1.221.318-.53.272-.992.656-1.435 1.125a9.06 9.06 0 0 0-1.218 1.661 9.162 9.162 0 0 0-.796 1.779c-.185.584-.294 1.148-.295 1.706.001.369.046.741.197 1.125.147.378.438.786.878 1.037h.001c.321.187.684.266 1.008.264.472-.003.867-.14 1.221-.317.529-.272.992-.656 1.434-1.125a9.062 9.062 0 0 0 1.219-1.66 9.227 9.227 0 0 0 .795-1.78c.184-.584.293-1.147.295-1.706a3.02 3.02 0 0 0-.197-1.124 2.067 2.067 0 0 0-.875-1.036ZM100.745 48.111c.227-.234.426-.414.598-.53.175-.116.31-.174.48-.206a1.303 1.303 0 0 0 .936-1.858l-2.432-4.897a1.3 1.3 0 0 0-1.392-.701c-.772.135-1.397.51-1.861.898-.698.589-1.151 1.19-1.582 1.554a2.356 2.356 0 0 1-.604.4c-.2.086-.411.14-.721.14-.221 0-.492-.03-.828-.114-.885-.222-1.657-.328-2.355-.328-1.051-.006-1.95.264-2.637.677-.517.306-.913.667-1.243.99-.495.49-.86.885-1.248 1.136-.39.249-.803.426-1.62.453a1.303 1.303 0 0 0-1.132 1.879l2.433 4.896a1.3 1.3 0 0 0 1.196.721c1.098-.023 2.016-.304 2.728-.722.535-.31.948-.677 1.288-1.006.51-.502.876-.903 1.234-1.138.36-.231.697-.38 1.434-.39.43 0 .995.067 1.723.25a6.01 6.01 0 0 0 1.46.192 4.329 4.329 0 0 0 2.238-.6c.903-.541 1.447-1.235 1.907-1.696Zm-2.82-.844a2.355 2.355 0 0 1-.604.4c-.2.086-.41.139-.72.14-.22 0-.493-.03-.83-.114-.884-.222-1.655-.328-2.354-.328-1.051-.007-1.95.263-2.637.676-.518.307-.913.667-1.243.99-.496.491-.86.886-1.249 1.137-.237.151-.494.27-.832.35l-1.262-2.539c.3-.107.584-.23.834-.376.535-.31.948-.676 1.289-1.006.51-.502.876-.903 1.233-1.138.36-.23.698-.38 1.434-.39.431 0 .995.067 1.722.25a6 6 0 0 0 1.46.193 4.33 4.33 0 0 0 2.239-.601c.903-.542 1.447-1.236 1.907-1.696.096-.1.184-.183.27-.262l1.25 2.515a4.82 4.82 0 0 0-.325.245c-.698.59-1.15 1.19-1.582 1.554ZM132.748 32.447l5.207 1.666a1.3 1.3 0 0 0 1.351-.357c.657-.707 1.077-1.45 1.3-2.169.225-.717.257-1.38.257-1.933 0-.328-.01-.622-.01-.885.003-.606.049-.986.277-1.418.231-.431.724-1.005 1.876-1.719.956-.586 1.625-1.319 1.994-2.114.373-.794.439-1.575.438-2.22-.001-.54-.041-1.009-.04-1.386 0-.26.018-.473.055-.638.038-.168.088-.287.172-.414.229-.338.285-.768.152-1.154a1.305 1.305 0 0 0-.832-.813l-5.208-1.666a1.3 1.3 0 0 0-1.473.51c-.288.422-.464.879-.558 1.308-.094.43-.115.834-.116 1.201.002.532.043.996.042 1.387-.001.475-.052.817-.191 1.113-.143.293-.382.615-1.01 1.01-1.389.858-2.28 1.735-2.798 2.697-.522.96-.59 1.916-.587 2.65 0 .327.012.621.011.885 0 .45-.029.808-.138 1.155-.112.347-.298.713-.73 1.183a1.302 1.302 0 0 0 .559 2.12Zm2.898-5.344c.003-.607.048-.987.276-1.418.232-.431.725-1.005 1.877-1.718.955-.586 1.625-1.319 1.994-2.114.373-.794.439-1.575.438-2.22-.001-.543-.042-1.012-.041-1.387 0-.052.004-.094.005-.142l2.682.858a6.017 6.017 0 0 0-.078.95c.001.53.041.993.04 1.386-.001.475-.052.818-.191 1.113-.143.294-.382.616-1.011 1.01-1.388.86-2.279 1.736-2.797 2.698-.521.96-.59 1.916-.587 2.65 0 .325.011.618.011.885 0 .45-.03.808-.139 1.155a2.604 2.604 0 0 1-.247.55l-2.699-.864c.087-.192.162-.383.22-.573.226-.718.258-1.381.258-1.934 0-.331-.012-.626-.011-.885ZM50.403 22.52c-.514-.502-.919-.86-1.155-1.216-.233-.36-.39-.708-.4-1.48 0-.42.06-.96.219-1.645v-.003c.11-.478.166-.932.166-1.366a4.348 4.348 0 0 0-.614-2.272c-.556-.915-1.272-1.456-1.748-1.912a4.125 4.125 0 0 1-.55-.596 1.213 1.213 0 0 1-.22-.48c-.078-.401-.343-.744-.711-.92a1.303 1.303 0 0 0-1.164.018l-4.85 2.525a1.3 1.3 0 0 0-.674 1.405c.15.776.543 1.397.943 1.855.608.69 1.221 1.132 1.59 1.559.187.21.317.401.404.601.087.201.142.418.144.741 0 .213-.027.47-.1.785-.192.832-.284 1.565-.284 2.23-.006 1.075.265 1.99.689 2.69.314.527.687.926 1.02 1.257.509.497.92.858 1.183 1.245.26.39.448.8.492 1.624a1.302 1.302 0 0 0 1.899 1.096l4.85-2.524a1.3 1.3 0 0 0 .698-1.21c-.044-1.108-.348-2.028-.786-2.736-.325-.531-.703-.937-1.041-1.272Zm-6.005 1.308c-.233-.359-.39-.707-.4-1.48 0-.42.06-.96.22-1.644.11-.482.165-.937.165-1.37a4.352 4.352 0 0 0-.614-2.272c-.556-.915-1.272-1.455-1.748-1.912a6.407 6.407 0 0 1-.28-.277l2.492-1.297c.085.118.173.231.262.333.608.69 1.22 1.132 1.59 1.559.187.21.316.4.404.6.087.202.142.419.144.742 0 .21-.027.469-.1.786v-.003c-.192.834-.284 1.566-.285 2.231-.006 1.075.266 1.99.69 2.69.314.527.686.926 1.02 1.258.509.496.92.857 1.182 1.245.16.238.286.495.375.838l-2.516 1.31a5.016 5.016 0 0 0-.404-.849 6.705 6.705 0 0 0-1.041-1.272c-.515-.501-.92-.859-1.156-1.216ZM173.088 65.789c-2.097-1.722-4.436-2.303-6.644-2.292-2.191.004-4.294.514-6.277.95-1.604.357-3.115.782-4.435 1.372-1.315.592-2.474 1.35-3.256 2.476-.756 1.099-1.133 2.328-1.133 3.515-.001 1.238.415 2.45 1.261 3.364.841.918 2.116 1.475 3.549 1.466 1.114 0 2.321-.31 3.604-.945.045-.023.073-.062.114-.088a2.23 2.23 0 0 1-.221.947 2.12 2.12 0 0 1-.757.833c-.028.02-.152.091-.326.177-.689.343-2.152.943-4.106 1.687-6.867 2.616-20.001 7.138-31.763 11.106a2646.527 2646.527 0 0 1-15.681 5.236c-2.127.703-3.932 1.294-5.296 1.737-1.36.442-2.293.739-2.626.837a1.3 1.3 0 1 0 .736 2.494c.471-.14 1.672-.524 3.473-1.112.715-.233 1.533-.5 2.419-.792.948.988 1.999 1.886 3.235 2.587.202.114.42.209.63.313l-2.237.639a766.693 766.693 0 0 0-5.376 1.558c-.684.202-1.253.372-1.693.507a21.52 21.52 0 0 0-.95.306 1.3 1.3 0 1 0 .89 2.443c.115-.043.487-.162 1.013-.322 3.999-1.216 17.599-5.074 30.869-8.758a2400.293 2400.293 0 0 1 18.443-5.054 652.962 652.962 0 0 1 6.726-1.775c1.805-.464 3.141-.788 3.781-.915 5.704-1.141 9.673-2.89 12.323-5.102 1.321-1.106 2.305-2.333 2.97-3.634a10.016 10.016 0 0 0 1.084-4.026v-.003c.014-.274.023-.558.023-.85-.002-1.776-.29-3.799-.966-5.736-.679-1.932-1.75-3.797-3.4-5.146Zm-18.577 7.617c-.349-.375-.567-.928-.568-1.596-.001-.634.204-1.356.675-2.04.368-.547 1.105-1.102 2.175-1.578 1.065-.477 2.429-.873 3.936-1.206 2.005-.447 3.943-.893 5.715-.89 1.8.011 3.389.407 5.002 1.709 1.151.932 2.024 2.37 2.588 3.99.023.065.038.134.06.2a22.07 22.07 0 0 1-2.279.945c-1.526.539-3.524 1.048-5.449 1.045-1.625-.002-3.162-.348-4.446-1.248a1.272 1.272 0 0 0-.402-.175c-.234-.32-.5-.616-.83-.856a3.013 3.013 0 0 0-1.413-.569 1.3 1.3 0 0 0-1.445 1.137c-.058.485.172.925.541 1.193-.896.411-1.645.574-2.218.574-.807-.009-1.288-.264-1.642-.635Zm-19.25 15.423.185-.063c.027.02.041.048.069.066h-.001c2.727 1.759 5.325 2.817 7.732 3.43-3.415.933-7.084 1.944-10.804 2.976a1.278 1.278 0 0 0-.434-.1c-1.777-.048-3.803-.229-5.783-.718a16.628 16.628 0 0 1-3.549-1.312c4.115-1.387 8.416-2.847 12.585-4.279Zm-20.867 11.463c-.045-.008-.083-.032-.129-.035-1.605-.113-2.886-.532-4.025-1.175a10.523 10.523 0 0 1-1.727-1.245c3.132-1.035 6.883-2.284 10.933-3.643 1.907 1.379 4.048 2.23 6.157 2.75.135.034.268.054.403.085l-2.526.706c-3.178.89-6.25 1.755-9.086 2.557Zm46.151-12.555c-.807.161-2.272.521-4.289 1.04-1.8.465-4.033 1.056-6.556 1.735a1.272 1.272 0 0 0-.56-.134l-.313.001c-2.871-.004-6.302-.597-10.188-2.714a951.72 951.72 0 0 0 11.36-3.997c.115.148.255.28.433.37 3.985 2.015 8.089 3.047 11.767 3.336-.533.126-1.08.248-1.654.363Zm14.29-10.357v-.002a7.405 7.405 0 0 1-.803 2.988c-.481.939-1.204 1.864-2.241 2.749a1.26 1.26 0 0 0-.664.208c-1.24.885-3.748 1.558-6.819 1.546-3.281.002-7.205-.717-11.066-2.385a176.893 176.893 0 0 0 4.065-1.551 49.753 49.753 0 0 0 1.84-.77c.501-.227.859-.4 1.178-.605a4.73 4.73 0 0 0 1.652-1.845c.29-.582.436-1.193.48-1.79 1.285.477 2.623.662 3.909.662 2.445-.004 4.753-.634 6.474-1.25a25.065 25.065 0 0 0 1.854-.75c.102.723.161 1.434.16 2.087 0 .242-.007.479-.019.708Z"/><path fill="#BEBEC9" d="M100.593 106.003c-.288-.126-.674-.49-.966-1.081-.294-.586-.487-1.369-.486-2.208 0-.71.134-1.459.438-2.184.068-.162.098-.331.1-.496.26-.366.405-.63.427-.67a1.299 1.299 0 0 0-2.293-1.222h-.001a5.764 5.764 0 0 1-1.06 1.306c-.338.311-.745.608-1.208.825a3.828 3.828 0 0 1-1.588.366 1.3 1.3 0 1 0 .036 2.6 6.393 6.393 0 0 0 2.551-.572l-.002.047c.001 1.228.27 2.384.76 3.368.491.979 1.209 1.816 2.202 2.281a1.3 1.3 0 1 0 1.09-2.36Z"/></svg>