<svg width="200" height="200" viewBox="0 0 200 200" xmlns="http://www.w3.org/2000/svg"><g id="type=ppap, mode=dark"><g id="Layer 24"><path id="Vector" d="M178.856 95.9433L149.225 107.652C149.065 107.714 148.919 107.807 148.795 107.926C148.672 108.045 148.573 108.187 148.504 108.344C148.436 108.501 148.399 108.67 148.396 108.841C148.393 109.012 148.424 109.182 148.486 109.342C148.549 109.501 148.643 109.647 148.763 109.769C148.882 109.892 149.024 109.991 149.182 110.058C149.339 110.126 149.508 110.162 149.68 110.164C149.851 110.166 150.021 110.134 150.18 110.07L179.812 98.3613C179.971 98.2993 180.117 98.2063 180.241 98.0876C180.364 97.969 180.463 97.8271 180.532 97.6701C180.6 97.5131 180.637 97.344 180.64 97.1727C180.643 97.0014 180.613 96.8312 180.55 96.6718C180.487 96.5125 180.393 96.3672 180.273 96.2442C180.154 96.1213 180.012 96.0231 179.854 95.9554C179.697 95.8877 179.528 95.8518 179.356 95.8497C179.185 95.8476 179.015 95.8795 178.856 95.9433Z"/><path id="Vector_2" d="M140.396 127.771L177.124 113.259C177.284 113.197 177.43 113.104 177.554 112.985C177.678 112.867 177.777 112.725 177.846 112.567C177.915 112.41 177.952 112.241 177.955 112.07C177.958 111.898 177.927 111.728 177.864 111.568C177.801 111.409 177.707 111.263 177.588 111.14C177.468 111.017 177.325 110.919 177.168 110.851C177.01 110.784 176.841 110.748 176.669 110.746C176.498 110.744 176.328 110.776 176.169 110.841L139.441 125.353C138.773 125.617 139.728 128.035 140.396 127.771Z"/><path id="Vector_3" d="M169.123 120.83L152.269 127.49C152.109 127.552 151.963 127.645 151.839 127.763C151.716 127.882 151.617 128.024 151.548 128.181C151.48 128.338 151.443 128.507 151.44 128.678C151.437 128.85 151.467 129.02 151.53 129.179C151.593 129.339 151.687 129.484 151.807 129.607C151.926 129.73 152.068 129.828 152.226 129.896C152.383 129.963 152.552 129.999 152.724 130.001C152.895 130.003 153.065 129.972 153.224 129.908L170.079 123.248C170.238 123.185 170.384 123.092 170.508 122.974C170.631 122.855 170.73 122.713 170.799 122.556C170.868 122.399 170.904 122.23 170.908 122.059C170.911 121.888 170.88 121.717 170.817 121.558C170.754 121.399 170.66 121.253 170.541 121.13C170.421 121.007 170.279 120.909 170.121 120.842C169.964 120.774 169.795 120.738 169.623 120.736C169.452 120.734 169.282 120.766 169.123 120.83Z"/><path id="Vector_4" d="M75.0523 107.353L75.0459 107.304L73.9449 99.9024L73.942 99.8843C73.8136 99.0646 73.3988 98.3169 72.7712 97.7742C72.1436 97.2315 71.344 96.9288 70.5143 96.9199C70.3906 96.9199 70.267 96.9268 70.144 96.9407L70.1096 96.9451L58.7023 98.5515L58.6743 98.5558C57.8543 98.6841 57.1065 99.099 56.5636 99.7267C56.0207 100.354 55.7179 101.154 55.709 101.984C55.709 102.107 55.7157 102.229 55.7293 102.351L55.7355 102.398L56.8365 109.799L56.8414 109.798C56.9182 110.616 57.2926 111.377 57.8937 111.938C58.5061 112.495 59.3055 112.803 60.1338 112.799C60.3139 112.798 60.4936 112.783 60.6715 112.755L60.6718 112.757L72.079 111.151L72.1072 111.146C72.9271 111.018 73.6749 110.603 74.2178 109.975C74.7606 109.347 75.0634 108.548 75.0723 107.718C75.0723 107.596 75.0657 107.474 75.0523 107.353ZM70.4436 99.5237L70.5143 99.52C70.7266 99.5299 70.9287 99.6134 71.0859 99.7563C71.2432 99.8991 71.3457 100.092 71.3758 100.303L71.734 102.71L69.686 103.011L69.487 101.639L69.4845 101.64C69.3988 100.968 69.1617 100.324 68.791 99.7565L70.4436 99.5237ZM59.0915 101.122L60.9643 100.859C60.9187 100.985 60.8698 101.111 60.8352 101.241C60.7916 101.406 60.7809 101.578 60.8038 101.747C60.8267 101.917 60.8826 102.08 60.9685 102.227C61.0544 102.375 61.1685 102.504 61.3043 102.607C61.4401 102.711 61.5949 102.786 61.76 102.83C61.925 102.874 62.0971 102.884 62.2663 102.862C62.4354 102.839 62.5985 102.783 62.746 102.697C62.8936 102.611 63.0228 102.497 63.1262 102.361C63.2297 102.225 63.3054 102.07 63.349 101.905V101.905C63.4488 101.538 63.643 101.203 63.9123 100.935C64.1662 100.674 64.4994 100.505 64.8595 100.455C64.9015 100.451 64.9443 100.458 64.9841 100.451C65.0842 100.433 65.1856 100.424 65.2873 100.424C65.681 100.422 66.0609 100.569 66.35 100.837C66.6683 101.137 66.867 101.543 66.9095 101.978L66.914 102.013L67.6797 107.288L67.686 107.328C67.704 107.429 67.7131 107.532 67.7132 107.635C67.7144 108.04 67.5649 108.431 67.2937 108.732C67.0004 109.054 66.5989 109.256 66.166 109.3C66.121 109.299 66.076 109.3 66.0311 109.304C65.931 109.322 65.8294 109.331 65.7276 109.331C65.3339 109.333 64.954 109.185 64.6649 108.918C64.3468 108.618 64.1482 108.212 64.1059 107.777L64.0993 107.728L63.7067 105.21C63.6537 104.871 63.4689 104.566 63.1925 104.363C62.9161 104.16 62.5705 104.074 62.231 104.124L58.699 104.649L58.3129 102.054L58.309 101.984C58.319 101.772 58.4025 101.57 58.5453 101.413C58.6881 101.255 58.8812 101.153 59.0915 101.122V101.122ZM60.1338 110.199C59.9558 110.203 59.7828 110.139 59.6501 110.02C59.5084 109.885 59.4252 109.699 59.4182 109.503L59.4082 109.416L59.0816 107.221L61.3365 106.886L61.5303 108.129L61.5336 108.128C61.6167 108.764 61.8354 109.375 62.175 109.92L60.3093 110.182L60.2819 110.187L60.1338 110.199ZM71.6901 108.58L70.1326 108.799C70.2472 108.421 70.308 108.029 70.3132 107.635C70.3119 107.393 70.2908 107.153 70.2498 106.915L70.2527 106.915L70.0595 105.584L72.1166 105.282L72.4685 107.647L72.4723 107.718C72.4624 107.93 72.3789 108.132 72.2361 108.289C72.0934 108.447 71.9003 108.549 71.6901 108.58V108.58Z"/><path id="Vector_5" d="M91.8465 65.7847C91.9096 61.5612 91.079 57.3721 89.4091 53.4923C88.6847 51.8548 87.6897 50.3511 86.4659 49.0442C85.3441 47.8407 83.9277 46.9509 82.3566 46.4626C81.3132 46.1707 80.2335 46.0287 79.1501 46.0407C73.736 46.3722 68.5713 48.4332 64.4164 51.9203C60.2615 55.4074 57.336 60.1363 56.0704 65.4109C55.6816 67.1782 55.4804 68.9817 55.4701 70.7913C55.4031 74.2297 56.3493 77.6118 58.1909 80.5162C59.581 82.6504 61.4557 84.4261 63.6621 85.6986L63.6623 85.6987C66.358 87.1807 69.3922 87.9377 72.4681 87.8956C76.4105 87.9092 80.2722 86.7784 83.5848 84.6406C87.149 82.3271 89.7058 78.7506 90.7416 74.6295C91.4771 71.7388 91.8483 68.7675 91.8465 65.7847ZM88.2231 73.9837C87.3494 77.4797 85.18 80.5131 82.154 82.4697C79.2658 84.3268 75.9018 85.3083 72.4681 85.2956C69.8465 85.3366 67.259 84.6987 64.9569 83.4439C63.1079 82.3764 61.5367 80.8879 60.3709 79.0992C58.8027 76.6168 58.0023 73.7267 58.0701 70.7913C58.0805 69.1644 58.2625 67.5431 58.613 65.9544C59.7546 61.2619 62.3602 57.0546 66.0525 53.9419C69.7449 50.8291 74.3322 48.9724 79.1501 48.6408C79.9858 48.6291 80.8188 48.7356 81.6246 48.9574C82.7638 49.3194 83.7887 49.9726 84.5978 50.8525C86.1771 52.6214 87.3329 54.7269 87.9772 57.009C88.8394 59.8537 89.2673 62.8123 89.2465 65.7847C89.2483 68.5497 88.9044 71.304 88.2231 73.9837V73.9837Z"/><path id="Vector_6" d="M137.478 85.6982C139.684 84.4256 141.559 82.6499 142.949 80.5156C144.79 77.6111 145.737 74.2289 145.67 70.7905C145.659 68.981 145.458 67.1777 145.069 65.4104C143.804 60.1358 140.878 55.4069 136.723 51.9199C132.568 48.4328 127.404 46.3718 121.989 46.0403C120.906 46.0282 119.826 46.1702 118.783 46.4621C117.212 46.9504 115.795 47.8403 114.674 49.0437C112.811 51.1013 111.446 53.5588 110.682 56.227C109.74 59.3245 109.271 62.5467 109.293 65.7843C109.291 68.7671 109.662 71.7384 110.398 74.6291C111.433 78.7502 113.99 82.3267 117.554 84.6402C120.867 86.778 124.729 87.9087 128.671 87.8952C131.747 87.9372 134.782 87.1802 137.477 85.6983L137.478 85.6982ZM118.985 82.4693C115.959 80.5127 113.79 77.4793 112.916 73.9833C112.235 71.3036 111.891 68.5493 111.893 65.7843C111.831 61.9359 112.581 58.1176 114.092 54.5781C114.695 53.2078 115.523 51.9483 116.542 50.852C117.351 49.9721 118.376 49.3188 119.515 48.9569C120.321 48.7351 121.154 48.6286 121.989 48.6403C126.807 48.972 131.395 50.8287 135.087 53.9414C138.779 57.0542 141.385 61.2614 142.527 65.9539C142.877 67.5425 143.059 69.1637 143.069 70.7904C143.137 73.7259 142.337 76.6162 140.769 79.0986C139.603 80.8873 138.032 82.3759 136.183 83.4434C133.881 84.6983 131.293 85.3362 128.671 85.2951C125.238 85.3079 121.874 84.3264 118.985 82.4693Z"/><path id="Vector_7" d="M78.3032 69.4948C73.1709 69.57 69.4253 73.8405 70.2642 76.3131C70.9541 78.3463 74.1826 78.3278 78.3032 78.2536C82.4239 78.1784 84.9336 78.6354 85.1958 75.9762C85.4146 73.7565 82.4649 69.4342 78.3032 69.4948ZM77.9658 77.1374C77.425 77.1374 76.8962 76.977 76.4465 76.6765C75.9968 76.376 75.6462 75.9489 75.4392 75.4492C75.2322 74.9495 75.178 74.3996 75.2835 73.8691C75.389 73.3386 75.6494 72.8513 76.0318 72.4688C76.4143 72.0863 76.9015 71.8258 77.432 71.7202C77.9625 71.6147 78.5124 71.6687 79.0121 71.8757C79.5118 72.0826 79.939 72.4331 80.2396 72.8827C80.5401 73.3324 80.7006 73.8611 80.7007 74.402C80.7008 74.7612 80.6301 75.1169 80.4927 75.4487C80.3553 75.7806 80.1538 76.0822 79.8999 76.3362C79.6459 76.5902 79.3444 76.7917 79.0126 76.9291C78.6807 77.0666 78.325 77.1374 77.9658 77.1374Z"/><path id="Vector_8" d="M123.029 69.4948C118.867 69.4342 115.918 73.7565 116.136 75.9762C116.399 78.6354 118.908 78.1784 123.029 78.2536C127.15 78.3278 130.378 78.3463 131.068 76.3131C131.907 73.8405 128.161 69.57 123.029 69.4948ZM123.366 77.1374C122.825 77.1375 122.297 76.9771 121.847 76.6767C121.397 76.3763 121.046 75.9492 120.839 75.4495C120.632 74.9498 120.578 74.3999 120.684 73.8694C120.789 73.3389 121.049 72.8515 121.432 72.469C121.814 72.0865 122.301 71.8259 122.832 71.7203C123.362 71.6147 123.912 71.6687 124.412 71.8756C124.912 72.0825 125.339 72.433 125.64 72.8827C125.94 73.3324 126.101 73.8611 126.101 74.402C126.101 75.1273 125.813 75.823 125.3 76.336C124.787 76.849 124.092 77.1372 123.366 77.1374Z"/><path id="Vector_9" d="M111.88 88.3559C111.691 88.2143 111.467 88.1268 111.233 88.1028C110.998 88.0788 110.761 88.1191 110.547 88.2195C110.069 88.4226 109.571 88.5783 109.062 88.6843C106.702 89.1625 104.303 89.423 101.896 89.4624L101.886 89.2826C101.835 88.413 101.752 86.8054 101.704 85.2026C104.804 84.3375 108.091 80.3295 107.92 77.5866C107.695 73.9899 94.903 74.1276 93.6096 77.2116C92.7702 79.2135 96.0251 83.8207 99.0984 85.0592C99.1463 86.8061 99.2395 88.5588 99.2924 89.4715C97.8344 89.4465 96.3786 89.3462 94.9309 89.171C93.4083 89.0063 91.9094 88.6684 90.4634 88.1637C90.2474 88.0819 90.0135 88.0592 89.7857 88.0978C89.558 88.1364 89.3447 88.235 89.1677 88.3835C88.9907 88.5319 88.8565 88.7248 88.7788 88.9424C88.7012 89.1599 88.6828 89.3942 88.7258 89.6212C89.1734 91.712 89.9098 93.7303 90.914 95.6181C91.7649 97.2609 92.9243 98.7245 94.3288 99.9289C95.9367 101.285 97.953 102.061 100.055 102.135L100.056 102.135C100.196 102.14 100.335 102.142 100.474 102.142C102.704 102.166 104.878 101.443 106.65 100.088C108.763 98.3488 110.364 96.0672 111.28 93.4879C111.775 92.2301 112.145 90.9269 112.385 89.5968C112.421 89.3637 112.393 89.125 112.305 88.9064C112.216 88.6877 112.069 88.4975 111.88 88.3559ZM100.82 93.5658C100.129 93.6247 99.4325 93.5456 98.772 93.3331C98.1114 93.1205 97.4997 92.7787 96.9725 92.3276C96.8507 92.2063 96.7403 92.0742 96.6426 91.9329C97.8786 92.0251 99.1299 92.086 100.378 92.0861C101.959 92.0859 103.504 92.0136 104.946 91.8923C104.845 92.0888 104.716 92.2698 104.563 92.4301C104.224 92.7717 103.811 93.0316 103.356 93.1898C102.564 93.4612 101.731 93.5885 100.894 93.5659L100.82 93.5658ZM94.596 92.5481L94.5887 92.5682L94.596 92.5481ZM104.961 98.1048C103.663 99.0625 102.087 99.5675 100.474 99.5422C100.368 99.5422 100.259 99.5402 100.147 99.5363C98.6159 99.4849 97.1472 98.9157 95.9812 97.9216C94.3287 96.4214 93.0653 94.5422 92.2997 92.4457C92.1344 92.0329 91.9951 91.6428 91.8732 91.2785C92.472 91.4141 93.0994 91.5249 93.7405 91.623C93.7441 91.6484 93.7471 91.6745 93.7512 91.7C93.8313 92.1164 93.9762 92.5176 94.1805 92.889C94.6751 93.7969 95.4101 94.5512 96.305 95.069C97.6797 95.8302 99.2333 96.2089 100.804 96.1657L100.81 96.1658L100.894 96.1659C102.182 96.2 103.462 95.9621 104.651 95.4676C105.874 94.9514 106.859 93.9953 107.412 92.7881C107.587 92.396 107.713 91.9837 107.786 91.5606C108.321 91.4782 108.826 91.388 109.294 91.2883C108.927 92.4899 108.434 93.6489 107.822 94.7458C107.114 96.0538 106.139 97.1982 104.961 98.1048Z"/><path id="Vector_10" d="M194.319 129.162C191.863 124.019 188.776 119.202 185.13 114.822C185.262 114.426 185.369 114.023 185.45 113.613C185.532 113.18 185.574 112.74 185.574 112.299C185.538 110.326 184.76 108.44 183.394 107.016C182.371 105.906 181.087 105.069 179.658 104.581L181.721 92.8797C181.861 92.0909 181.844 91.2823 181.67 90.5001C181.497 89.718 181.172 88.9776 180.712 88.3214C180.253 87.6652 179.668 87.106 178.993 86.6758C178.317 86.2456 177.563 85.9529 176.774 85.8142L162.743 83.3399C162.746 83.1009 162.75 82.862 162.75 82.6233C162.747 70.8859 158.481 59.5855 151.402 50.0923C151.481 50.0643 151.556 50.0283 151.627 49.985V49.985C153.064 48.9069 154.334 47.6238 155.398 46.1769C157.945 42.679 159.313 38.461 159.301 34.134C159.312 31.2547 158.691 28.4082 157.481 25.7951C156.234 23.11 154.332 20.7817 151.949 19.0243C148.712 16.6771 144.807 15.43 140.808 15.4661C137.663 15.4472 134.556 16.1583 131.732 17.5435C128.909 18.9286 126.445 20.95 124.535 23.4487C123.503 24.8534 122.676 26.398 122.081 28.036C115.237 25.4329 107.98 24.0882 100.658 24.0669C93.5503 24.082 86.4952 25.2895 79.7869 27.6393C79.206 26.1481 78.4325 24.7393 77.486 23.4489C75.5758 20.9502 73.1119 18.9287 70.288 17.5436C67.4642 16.1584 64.3576 15.4473 61.2124 15.4661C57.2137 15.4299 53.3089 16.677 50.0715 19.0243C47.6888 20.7817 45.7863 23.11 44.539 25.7951C43.3297 28.4082 42.7085 31.2547 42.719 34.134C42.708 38.461 44.0751 42.6791 46.6222 46.1769C47.4592 47.3119 48.424 48.3467 49.4976 49.2611C41.8981 58.7729 37.6985 70.5532 37.567 82.7273C37.567 84.2643 37.6378 85.8118 37.7792 87.3701C37.8743 88.4083 38.0116 89.423 38.1754 90.4221C36.5531 90.7089 34.9981 91.2941 33.5893 92.1481C31.514 93.4121 29.8126 95.2057 28.6599 97.3448C27.7484 97.4419 26.8616 97.7009 26.0412 98.1096C24.933 98.6796 23.9582 99.478 23.1809 100.452C22.4205 100.237 21.6342 100.126 20.8439 100.124C19.3316 100.137 17.8451 100.517 16.5112 101.229C14.7699 102.18 13.2239 103.45 11.9548 104.975C10.5308 106.61 9.46388 108.524 8.82228 110.595C8.26009 112.437 7.98141 114.355 7.9958 116.282C8.01567 118.569 8.32681 120.844 8.9217 123.052C9.15205 123.927 9.38245 124.647 9.55384 125.157C9.58564 125.252 9.61292 125.331 9.64014 125.411C8.03223 128.113 6.61376 130.924 5.39496 133.823C3.12156 139.201 0.82652 146.428 0.82212 153.933C0.774307 156.677 1.34282 159.396 2.48576 161.891C3.99647 165.031 6.52467 167.568 9.65959 169.09C12.5997 170.52 15.8304 171.251 19.0996 171.226C21.0826 171.235 23.057 170.964 24.9643 170.421C29.073 169.085 32.8864 166.97 36.1966 164.194C36.9978 163.547 37.7003 162.934 38.3133 162.375L36.8694 183.946C36.8464 184.29 36.9609 184.629 37.1879 184.889C37.4149 185.148 37.7356 185.307 38.0796 185.33C38.4237 185.353 38.7627 185.239 39.0223 185.012C39.2819 184.785 39.4406 184.464 39.4637 184.12L41.1365 159.129C41.1546 158.858 41.0878 158.589 40.9452 158.358C40.8027 158.128 40.5917 157.947 40.3417 157.843C40.0917 157.738 39.8152 157.714 39.551 157.774C39.2867 157.834 39.0478 157.975 38.8677 158.178L38.8542 158.193C37.4482 159.7 35.929 161.098 34.31 162.373C31.3289 164.839 27.9108 166.723 24.2337 167.926C22.5637 168.399 20.8354 168.635 19.0996 168.626C15.2732 168.703 11.5274 167.521 8.4384 165.262C6.90209 164.069 5.66738 162.531 4.83366 160.774C3.85681 158.628 3.37442 156.29 3.4221 153.933C3.41771 146.964 5.59257 140.016 7.78923 134.837C8.68952 132.709 9.69599 130.628 10.8049 128.602C11.2153 127.854 11.5562 127.27 11.7929 126.875C11.9112 126.677 12.0034 126.528 12.0653 126.428L12.1345 126.318L12.1549 126.286C12.2894 126.076 12.3613 125.831 12.362 125.582C12.3625 125.469 12.3487 125.357 12.3209 125.247C12.2956 125.145 12.2774 125.093 12.2551 125.024C12.1759 124.783 12.0442 124.42 11.8756 123.895C11.0655 121.437 10.6339 118.869 10.5957 116.282C10.5815 114.619 10.8201 112.963 11.3032 111.372C11.8372 109.644 12.7269 108.046 13.9153 106.683C14.9698 105.406 16.2556 104.339 17.7054 103.539C18.6699 103.017 19.747 102.737 20.8438 102.724C22.0583 102.739 23.245 103.09 24.2726 103.737C25.0431 104.201 25.7243 104.799 26.2837 105.502C27.8713 107.519 28.7606 109.997 28.8175 112.562C28.8174 112.94 28.7968 113.317 28.7559 113.692C28.6853 114.737 28.2686 115.728 27.5715 116.509C27.3094 116.791 26.9923 117.015 26.6398 117.168C26.2873 117.322 25.907 117.401 25.5225 117.402C25.0364 117.396 24.5573 117.285 24.118 117.077C23.6155 116.839 23.1858 116.471 22.8733 116.011C22.364 115.236 22.0172 114.366 21.8537 113.454C21.7234 112.822 21.6526 112.179 21.6422 111.534C21.6422 111.189 21.5052 110.859 21.2614 110.615C21.0176 110.371 20.687 110.234 20.3422 110.234C19.9974 110.234 19.6667 110.371 19.423 110.615C19.1792 110.859 19.0422 111.189 19.0422 111.534C19.0434 111.774 19.0577 112.171 19.1074 112.661C18.8448 112.659 18.5835 112.626 18.3286 112.563C18.1464 112.527 17.9783 112.44 17.8441 112.312C17.7338 112.181 17.599 112.074 17.4472 111.996C17.2955 111.918 17.1299 111.87 16.9597 111.856C16.7896 111.842 16.6183 111.861 16.4557 111.913C16.2931 111.965 16.1423 112.048 16.012 112.159C15.8816 112.269 15.7742 112.404 15.696 112.555C15.6178 112.707 15.5702 112.873 15.556 113.043C15.5417 113.213 15.5612 113.384 15.6131 113.547C15.6651 113.71 15.7486 113.86 15.8588 113.991V113.991C16.3297 114.523 16.9511 114.899 17.6407 115.07C18.1597 115.205 18.6945 115.272 19.2309 115.267C19.3859 115.267 19.5226 115.262 19.6468 115.255C19.9001 116.062 20.2743 116.826 20.7565 117.52C21.3337 118.351 22.1206 119.014 23.0372 119.442C23.8158 119.805 24.6635 119.996 25.5226 120.001C26.2543 120 26.9781 119.851 27.6505 119.562C28.3228 119.274 28.9297 118.852 29.4345 118.322C30.507 118.974 31.7353 119.324 32.9901 119.337C33.8624 119.327 34.7277 119.18 35.5546 118.901C36.3584 118.649 37.1006 118.231 37.7336 117.675C37.8974 117.524 38.0524 117.364 38.198 117.196C39.7514 116.287 41.4702 115.696 43.2542 115.459L43.5608 117.522L43.5604 117.519C43.6086 117.848 43.721 118.164 43.8913 118.45C44.0616 118.735 44.2865 118.984 44.5531 119.182C44.8197 119.381 45.1227 119.525 45.445 119.606C45.7672 119.687 46.1023 119.704 46.4311 119.656L49.5885 119.193C49.6534 119.543 49.6884 119.898 49.6931 120.254C49.7109 120.875 49.5903 121.492 49.3402 122.061C49.09 122.63 48.7165 123.136 48.2467 123.542C46.6919 124.729 44.8087 125.406 42.8545 125.481C41.0155 125.674 39.6385 125.834 38.5097 126.031C37.7611 126.151 37.0236 126.332 36.3045 126.572C35.3749 126.9 34.5058 127.379 33.7324 127.99C32.9369 128.597 32.1296 129.327 30.9922 130.297C30.0064 131.108 28.8657 131.708 27.6399 132.063C26.4094 132.435 25.1309 132.624 23.8454 132.625C22.9293 132.638 22.0161 132.519 21.1339 132.272C20.8408 132.187 20.5587 132.068 20.2936 131.917C20.1642 131.848 20.0495 131.755 19.9558 131.642C19.8571 131.502 19.7319 131.384 19.5874 131.293C19.4429 131.202 19.2819 131.141 19.1137 131.112C18.9454 131.083 18.7731 131.088 18.6066 131.126C18.4401 131.164 18.2828 131.234 18.1435 131.333C18.0042 131.431 17.8857 131.556 17.7948 131.701C17.7038 131.845 17.6423 132.006 17.6136 132.175C17.5849 132.343 17.5896 132.515 17.6275 132.682C17.6653 132.848 17.7356 133.006 17.8343 133.145C18.1356 133.554 18.5188 133.896 18.9596 134.149C19.647 134.538 20.3933 134.813 21.1691 134.962C22.0498 135.142 22.9467 135.23 23.8454 135.225C25.3891 135.224 26.9242 134.996 28.4016 134.549C29.9682 134.09 31.4245 133.316 32.6808 132.274C33.713 131.392 34.4631 130.723 35.0805 130.235C35.6038 129.797 36.1875 129.438 36.8136 129.167C36.4941 131.553 36.2168 134.337 36.0036 136.627C35.8839 137.914 35.7846 139.043 35.711 139.844C35.6742 140.244 35.5998 140.982 35.5998 140.982C35.522 141.3 35.5736 141.636 35.7434 141.916C35.8229 142.05 35.9261 142.169 36.0481 142.267C36.272 142.446 36.549 142.547 36.8361 142.553C37.1231 142.559 37.4041 142.47 37.6352 142.299C37.8348 142.152 37.9884 141.951 38.0782 141.719C38.1034 141.655 38.1236 141.588 38.1387 141.521C38.1596 141.423 38.1755 141.324 38.1863 141.224C38.2283 140.877 38.2867 140.233 38.3668 139.347C38.6047 136.707 39.0194 132.025 39.5082 128.663C39.5087 128.61 39.5058 128.558 39.4996 128.505C40.4357 128.362 41.6072 128.225 43.125 128.067C45.6203 127.941 48.0139 127.039 49.9722 125.487C50.7153 124.835 51.3077 124.03 51.7085 123.126C52.1093 122.222 52.3088 121.242 52.2932 120.254C52.2877 119.772 52.2426 119.291 52.1582 118.816L58.0045 117.959C58.0369 117.991 58.071 118.021 58.1068 118.048C69.162 124.337 83.8809 127.357 100.658 127.36C113.983 127.361 125.463 124.907 135.064 120.609C136.087 122.001 137.546 123.011 139.209 123.481L136.891 136.629C136.751 137.418 136.768 138.226 136.941 139.008C137.115 139.79 137.44 140.531 137.9 141.187C138.359 141.843 138.943 142.402 139.619 142.832C140.295 143.263 141.049 143.555 141.837 143.694L165.823 147.923L166.048 146.642L165.824 147.923C166.613 148.062 167.421 148.044 168.203 147.871C168.985 147.698 169.725 147.372 170.381 146.913C171.037 146.453 171.596 145.869 172.026 145.193C172.456 144.518 172.749 143.764 172.888 142.975L173.023 142.212C174.722 142.161 176.362 141.573 177.706 140.532C178.597 139.846 179.318 138.964 179.814 137.955C180.311 136.946 180.569 135.837 180.57 134.712C180.559 133.253 180.12 131.829 179.309 130.616C180.46 130.174 181.479 129.446 182.27 128.5C183.061 127.554 183.598 126.423 183.83 125.212C183.905 124.813 183.943 124.408 183.943 124.002C183.907 122.216 183.272 120.494 182.14 119.112C182.794 118.616 183.37 118.025 183.847 117.358C187.044 121.336 189.769 125.67 191.969 130.274C195.031 136.476 196.684 143.278 196.81 150.193C196.816 153.612 196.338 157.014 195.39 160.299C194.712 162.989 193.025 165.315 190.678 166.795C188.363 168.122 185.725 168.781 183.057 168.7C179.2 168.633 175.402 167.739 171.92 166.077C170.397 165.372 168.964 164.488 167.651 163.443C166.674 162.699 165.863 161.76 165.27 160.685C165.138 160.416 164.918 160.2 164.646 160.075C164.374 159.95 164.066 159.922 163.776 159.997C163.486 160.072 163.231 160.245 163.054 160.487C162.877 160.728 162.788 161.024 162.804 161.323L164.035 185.067C164.053 185.411 164.207 185.735 164.463 185.965C164.59 186.08 164.738 186.168 164.899 186.225C165.06 186.282 165.23 186.307 165.401 186.298C165.571 186.289 165.738 186.247 165.892 186.174C166.047 186.1 166.185 185.997 166.299 185.87C166.413 185.744 166.502 185.595 166.559 185.435C166.616 185.274 166.641 185.103 166.632 184.933L165.603 165.099C165.738 165.217 165.863 165.338 166.004 165.454C168.304 167.257 170.891 168.659 173.656 169.6C176.673 170.689 179.851 171.263 183.057 171.3C186.207 171.382 189.318 170.589 192.043 169.008C194.938 167.187 197.028 164.331 197.887 161.021C198.903 157.502 199.416 153.856 199.41 150.193C199.285 142.893 197.546 135.711 194.319 129.162ZM35.6172 140.89L35.6311 140.894L35.6172 140.89ZM181.484 108.78C182.406 109.724 182.937 110.98 182.974 112.299C182.974 112.577 182.947 112.855 182.895 113.129C182.757 113.976 182.444 114.785 181.975 115.504C181.506 116.223 180.892 116.836 180.172 117.304C179.393 116.784 178.521 116.419 177.604 116.229L179.198 107.188C180.066 107.549 180.845 108.092 181.484 108.78V108.78ZM161.065 86.8416C161.019 87.1065 160.895 87.3515 160.709 87.5458C160.523 87.7401 160.283 87.8749 160.021 87.9331C159.758 87.9913 159.484 87.9704 159.234 87.8729C158.983 87.7754 158.767 87.6058 158.612 87.3855C158.458 87.1652 158.373 86.9041 158.367 86.6352C158.361 86.3663 158.435 86.1017 158.579 85.8749C158.724 85.6481 158.933 85.4692 159.179 85.3609C159.425 85.2526 159.698 85.2197 159.962 85.2664C160.138 85.2974 160.306 85.3627 160.457 85.4586C160.608 85.5545 160.738 85.6792 160.84 85.8255C160.943 85.9718 161.015 86.1368 161.054 86.3111C161.093 86.4855 161.097 86.6657 161.065 86.8416H161.065ZM126.629 24.9901C128.298 22.8205 130.447 21.0666 132.906 19.8654C135.366 18.6642 138.071 18.0484 140.808 18.0661C144.252 18.0299 147.617 19.0995 150.407 21.1178C152.441 22.6178 154.064 24.6055 155.127 26.8978C156.174 29.1657 156.712 31.6358 156.701 34.1339C156.712 37.9061 155.523 41.5838 153.305 44.6351C152.391 45.8776 151.3 46.9793 150.067 47.9051C149.996 47.9686 149.932 48.0401 149.877 48.1183C148.084 45.9015 146.148 43.8051 144.08 41.8428C138.369 36.4273 131.737 32.0763 124.495 28.9951C125.009 27.564 125.728 26.215 126.629 24.9901ZM48.7158 44.6352C46.498 41.5839 45.3084 37.9061 45.319 34.134C45.3086 31.6359 45.846 29.1658 46.8936 26.8979C47.9566 24.6056 49.5797 22.6178 51.6132 21.1179C54.4038 19.0996 57.7684 18.0299 61.2123 18.0662C63.9498 18.0485 66.6542 18.6644 69.1141 19.8656C71.574 21.0668 73.7227 22.8208 75.3922 24.9903C76.1967 26.0868 76.8557 27.2828 77.3529 28.5486C69.7431 31.5373 62.7475 35.8994 56.7148 41.4174C54.7332 43.2393 52.8686 45.1844 51.1321 47.2412C50.2312 46.4663 49.4206 45.592 48.7158 44.6352ZM34.9369 94.3716C36.5574 93.3777 38.4177 92.8431 40.3186 92.8253C42.1971 92.7807 44.0261 93.4307 45.4552 94.6507C45.8018 94.9911 46.0752 95.3988 46.2587 95.8486C46.4421 96.2985 46.5318 96.7811 46.5221 97.2668C46.5344 98.115 46.2356 98.9384 45.6823 99.5815C44.8844 100.411 43.8058 100.913 42.6575 100.99C42.4208 101.018 42.1826 101.031 41.9443 101.028C41.5531 101.029 41.1174 101.002 40.6314 101.001C39.9538 100.984 39.2782 101.084 38.6342 101.296C38.2723 101.423 37.928 101.596 37.6095 101.81C36.9197 100.8 36.0625 99.9159 35.0749 99.195C34.0218 98.4298 32.8317 97.8738 31.569 97.5571C32.4536 96.2689 33.6015 95.1832 34.9369 94.3716ZM34.7589 116.426C34.1891 116.621 33.5923 116.726 32.9901 116.737C32.2205 116.728 31.4673 116.514 30.8079 116.117C31.0804 115.429 31.2596 114.708 31.3407 113.973C31.3918 113.505 31.4174 113.034 31.4175 112.562C31.3616 109.434 30.2897 106.408 28.3636 103.942C27.6199 102.992 26.7109 102.183 25.6803 101.554C26.1237 101.103 26.6368 100.726 27.2001 100.437C27.9191 100.079 28.712 99.8944 29.5152 99.8982C30.9746 99.9361 32.3861 100.427 33.5539 101.304C34.7528 102.151 35.6855 103.322 36.2428 104.68C37.0514 106.738 37.4901 108.923 37.5387 111.134C37.5806 112.332 37.3457 113.523 36.8522 114.615C36.7365 114.842 36.5995 115.058 36.443 115.259C36.3471 115.337 36.2629 115.428 36.193 115.53C36.1311 115.594 36.0774 115.668 36.011 115.727C35.6473 116.045 35.2207 116.284 34.759 116.426L34.7589 116.426ZM39.9079 113.568C40.0636 112.766 40.1408 111.951 40.1386 111.134C40.0934 108.75 39.6436 106.39 38.8084 104.156C39.0091 103.978 39.2417 103.84 39.4939 103.749C39.8619 103.636 40.2466 103.586 40.6314 103.601C40.8946 103.601 41.1978 103.612 41.5193 103.62C41.5215 103.661 41.5069 103.699 41.513 103.741L42.8728 112.892C41.8655 113.024 40.8728 113.25 39.9079 113.568L39.9079 113.568ZM46.1228 117.074L44.0848 103.359L44.0795 103.344C45.4471 103.041 46.6889 102.326 47.6374 101.295C48.5297 100.262 49.0439 98.9551 49.0957 97.5904L75.6287 93.7003L78.363 112.347L46.1228 117.074ZM100.658 124.76C85.6748 124.764 72.492 122.276 62.3326 117.325L78.8083 114.909C79.1371 114.861 79.4533 114.749 79.7387 114.578C80.0241 114.408 80.2732 114.183 80.4716 113.916C80.6701 113.65 80.8141 113.347 80.8954 113.025C80.9768 112.702 80.9938 112.367 80.9455 112.038L78.191 93.2545C78.1431 92.9255 78.0307 92.6092 77.8603 92.3237C77.69 92.0382 77.465 91.7891 77.1982 91.5906C76.9315 91.3922 76.6282 91.2483 76.3058 91.1671C75.9834 91.086 75.6481 91.0693 75.3192 91.1179L48.7165 95.0182C48.4016 94.1346 47.8753 93.3415 47.1835 92.7082C45.4001 91.1666 43.135 90.295 40.7783 90.2434C40.6056 89.23 40.4656 88.1949 40.3684 87.1332C40.2332 85.6549 40.1661 84.1863 40.1671 82.7273C40.1654 67.5829 47.3083 53.5763 58.4724 43.3333C69.9785 32.7347 85.0152 26.7941 100.658 26.667C116.461 26.664 131.359 33.3608 142.291 43.7295C153.226 54.0981 160.154 68.0985 160.15 82.6233C160.15 82.7095 160.148 82.7961 160.147 82.8823L152.789 81.5848C152 81.4448 151.192 81.4617 150.409 81.6347C149.627 81.8077 148.887 82.1333 148.23 82.5928C147.574 83.0524 147.015 83.6368 146.585 84.3128C146.155 84.9888 145.862 85.7429 145.724 86.5321L141.901 108.212C141.707 108.198 141.512 108.185 141.319 108.185C140.098 108.183 138.893 108.469 137.803 109.019C136.713 109.57 135.767 110.369 135.043 111.353C134.32 112.337 133.838 113.477 133.637 114.682C133.436 115.887 133.522 117.122 133.887 118.287C124.68 122.387 113.613 124.76 100.658 124.76L100.658 124.76ZM136.131 115.988C136.131 114.611 136.677 113.289 137.65 112.314C138.622 111.339 139.942 110.789 141.319 110.785C141.361 110.785 141.404 110.796 141.446 110.797L139.666 120.888C138.639 120.543 137.746 119.884 137.112 119.005C136.478 118.127 136.135 117.071 136.131 115.988L136.131 115.988ZM166.888 145.416C166.682 145.416 166.476 145.398 166.273 145.362L142.289 141.134C141.836 141.054 141.404 140.886 141.016 140.639C140.628 140.393 140.293 140.072 140.03 139.695C139.766 139.319 139.579 138.894 139.48 138.445C139.381 137.996 139.371 137.532 139.451 137.08L148.285 86.9832C148.428 86.1741 148.851 85.4411 149.48 84.9125C150.109 84.3839 150.904 84.0933 151.725 84.0916C151.93 84.0917 152.135 84.1097 152.337 84.1453L153.881 84.4177L153.884 84.4187H153.885C154.283 84.4888 154.644 84.6951 154.907 85.0023C155.169 85.3094 155.317 85.6983 155.324 86.1023C155.342 87.1094 155.71 88.0787 156.364 88.8444C157.019 89.6101 157.919 90.1245 158.911 90.2996L168.041 91.909C169.033 92.0845 170.055 91.9095 170.932 91.4138C171.809 90.9181 172.487 90.1326 172.848 89.1922C172.974 88.8639 173.197 88.5815 173.487 88.3821C173.777 88.1827 174.12 88.0756 174.472 88.075C174.573 88.0749 174.675 88.0841 174.775 88.1023H174.777L176.323 88.3748C176.776 88.4539 177.209 88.6216 177.596 88.8683C177.984 89.115 178.32 89.4358 178.583 89.8124C178.847 90.189 179.034 90.614 179.133 91.0629C179.232 91.5118 179.241 91.9759 179.161 92.4285L170.328 142.524C170.185 143.333 169.762 144.066 169.133 144.595C168.504 145.124 167.71 145.414 166.888 145.416ZM177.887 135.594C177.666 136.743 177.032 137.771 176.104 138.484C175.344 139.068 174.442 139.44 173.49 139.561L175.137 130.22C175.973 130.641 176.677 131.282 177.176 132.073C177.675 132.865 177.95 133.777 177.97 134.712C177.97 135.008 177.942 135.303 177.887 135.594V135.594ZM181.275 124.727C181.094 125.682 180.62 126.557 179.918 127.23C179.216 127.902 178.322 128.339 177.36 128.48C177.333 128.484 177.313 128.501 177.286 128.506C176.762 128.135 176.197 127.827 175.601 127.587L177.152 118.796C178.303 119.077 179.327 119.736 180.059 120.667C180.852 121.602 181.304 122.777 181.343 124.002C181.343 124.245 181.321 124.488 181.275 124.727V124.727Z"/></g></g></svg>