<svg xmlns="http://www.w3.org/2000/svg" width="200" height="200" fill="none"><path fill="#FFD93A" d="M86.523 126.919a1.3 1.3 0 0 0-1.3-1.3H67.044a1.3 1.3 0 1 0 0 2.6h18.179a1.3 1.3 0 0 0 1.3-1.3ZM103.723 178.542c-.003 0-4.7-.052-7.277-.052-.845-.006-1.588.197-2.147.568a3.774 3.774 0 0 0-.903.854c-.302.396-.458.607-.572.684a.664.664 0 0 1-.219.108c-.11.034-.284.066-.56.067a1.1 1.1 0 0 1-.434-.075c-.165-.07-.326-.201-.545-.505-.333-.445-.66-1.214-1.269-2a4.063 4.063 0 0 0-1.25-1.077 3.912 3.912 0 0 0-1.886-.452c-.445-.001-.877.1-1.245.269-.65.298-1.095.752-1.448 1.183-.523.65-.89 1.309-1.208 1.71a1.816 1.816 0 0 1-.353.37l-.042.024c-.349-.007-.41-.057-.483-.095a1.464 1.464 0 0 1-.274-.256c-.204-.218-.529-.64-1.103-.996-.575-.359-1.342-.565-2.25-.559h-3.54a1.3 1.3 0 1 0 0 2.6v-.001h3.54c.505.003.715.085.843.149.097.052.172.111.293.234.18.174.427.532.925.906.247.182.559.35.91.458.352.109.735.161 1.146.161a2.59 2.59 0 0 0 1.21-.302c.607-.327.983-.775 1.3-1.189.466-.627.822-1.251 1.149-1.629.16-.19.3-.311.396-.367a.41.41 0 0 1 .234-.07c.25.001.41.039.537.087.214.086.384.224.608.517.34.433.66 1.175 1.227 1.949a4.01 4.01 0 0 0 1.181 1.084 3.585 3.585 0 0 0 1.831.471c.848.006 1.593-.195 2.154-.565.42-.271.707-.598.91-.855.304-.397.46-.611.573-.688a.645.645 0 0 1 .214-.107c.106-.032.277-.065.55-.065 1.273 0 3.088.013 4.581.026 1.494.013 2.664.026 2.667.026a1.3 1.3 0 0 0 .029-2.6ZM30.956 146.512c.368-.234.62-.5.802-.7.277-.31.41-.454.543-.531.13-.075.32-.171.89-.176h.962c.343 0 .678-.139.92-.381s.38-.577.38-.919c0-.343-.138-.677-.38-.919a1.309 1.309 0 0 0-.92-.381h-.962c-.81-.003-1.5.154-2.053.447a3.715 3.715 0 0 0-.946.722c-.333.354-.503.562-.598.621l-.144.073c-.067.02-.179.044-.376.044l-.223-.046c-.132-.054-.341-.209-.59-.491-.377-.416-.791-1.064-1.357-1.696a4.552 4.552 0 0 0-1.06-.89 3.078 3.078 0 0 0-1.572-.433 4.036 4.036 0 0 0-1.484.265c-.792.308-1.352.858-1.738 1.375-.577.785-.902 1.536-1.228 1.95-.158.211-.29.329-.41.399-.122.066-.245.115-.524.119-.494-.005-.704-.089-.888-.188a2.22 2.22 0 0 1-.454-.367c-.27-.257-.618-.683-1.208-1.074-.588-.394-1.41-.66-2.363-.651-2.581 0-3.712.052-3.735.053a1.3 1.3 0 1 0 .12 2.597l.198-.008c.416-.013 1.508-.043 3.417-.043.487.006.69.088.872.187.137.077.273.189.454.367.27.259.621.687 1.214 1.078.592.393 1.415.657 2.373.649a3.689 3.689 0 0 0 1.443-.279c.77-.323 1.289-.88 1.65-1.387.539-.771.858-1.495 1.192-1.898.163-.205.304-.326.45-.405.149-.078.32-.137.649-.14l.187.041c.118.049.325.205.571.489.377.42.794 1.075 1.373 1.711.294.317.639.636 1.084.89.441.255.997.429 1.587.426.724.007 1.39-.181 1.882-.5ZM191.218 143.809a1.306 1.306 0 0 0-.919-.38h-3.006c-.66-.001-.947-.101-1.088-.17a1.113 1.113 0 0 1-.307-.24c-.097-.097-.223-.243-.404-.422a3.57 3.57 0 0 0-1.222-.812c-.544-.214-1.177-.315-1.949-.315a3.04 3.04 0 0 0-1.213.247c-.64.277-1.079.707-1.424 1.1-.513.599-.879 1.168-1.222 1.502a1.709 1.709 0 0 1-.454.345 1.08 1.08 0 0 1-.488.106c-.567-.002-.788-.082-.893-.131a1.119 1.119 0 0 1-.274-.203c-.195-.173-.573-.58-1.2-.874-.626-.295-1.403-.443-2.442-.442h-2.593a1.3 1.3 0 1 0 0 2.6h2.593c.716 0 1.083.092 1.269.166.142.059.205.102.32.198.086.071.196.179.358.324.238.215.616.506 1.11.688.494.187 1.064.274 1.752.273a3.703 3.703 0 0 0 2.295-.783c.433-.333.757-.705 1.031-1.045.407-.514.723-.966.975-1.205.124-.121.221-.187.289-.22a.448.448 0 0 1 .211-.046c.654.001.933.099 1.071.168.106.055.171.106.304.24.098.098.225.245.407.425.269.27.686.603 1.231.811.545.214 1.181.315 1.957.315h3.006a1.305 1.305 0 0 0 1.3-1.3c0-.343-.138-.677-.381-.92ZM86.38 39.25h2.593c.716 0 1.083.09 1.27.165.142.06.204.103.32.198.085.071.195.18.357.325.238.215.617.505 1.11.688.494.187 1.064.274 1.752.274a3.705 3.705 0 0 0 2.295-.783c.433-.334.757-.705 1.032-1.046.406-.514.723-.966.974-1.204.124-.121.221-.187.29-.22a.444.444 0 0 1 .211-.047c.653.001.932.1 1.07.168.106.055.171.106.304.24.098.098.225.245.407.425.269.27.686.603 1.231.812.545.213 1.181.314 1.957.314h3.006c.342 0 .677-.139.919-.38.242-.243.381-.578.381-.92a1.31 1.31 0 0 0-.381-.92 1.31 1.31 0 0 0-.919-.38h-3.006c-.66-.001-.947-.1-1.088-.17a1.09 1.09 0 0 1-.306-.24c-.098-.097-.224-.242-.404-.422a3.565 3.565 0 0 0-1.223-.811C99.989 35.1 99.356 35 98.584 35a3.056 3.056 0 0 0-1.213.247c-.64.277-1.08.707-1.425 1.1-.512.6-.878 1.168-1.221 1.502-.169.17-.317.278-.454.345-.14.066-.27.104-.489.106-.566-.002-.787-.082-.892-.13a1.103 1.103 0 0 1-.274-.204c-.195-.172-.574-.58-1.2-.874-.627-.296-1.403-.443-2.443-.443H86.38a1.3 1.3 0 0 0 0 2.6ZM105.755 62.465c-.236 0-.473 0-.71.002a1.3 1.3 0 1 0 .011 2.6h-.001l.7-.002c2.073 0 4.054.032 5.852.104.366.015.726-.128.982-.39 3.349-3.427 7.275-7.137 10.77-10.388 2.851-2.653 5.394-4.982 7.142-6.643.334.803.43 1.338.426 1.668-.008.437-.105.638-.335 1.09-.113.22-.263.49-.395.84-.132.347-.235.78-.233 1.256-.001.481.099.99.296 1.52.218.6.563 1.083.91 1.429.53.52.984.778 1.232 1.017.25.243.391.395.54.942.049.199.062.34.062.438a.695.695 0 0 1-.058.3c-.051.139-.215.36-.462.768a3.421 3.421 0 0 0-.503 1.778c0 .216.02.44.059.671.111.7.42 1.303.777 1.732.543.647 1.082.97 1.373 1.255.151.14.249.255.322.377.072.124.13.26.168.497l.017.206a.706.706 0 0 1-.077.342c-.074.166-.287.411-.598.824-.151.207-.32.464-.455.79a2.934 2.934 0 0 0-.223 1.128c0 .358.063.726.181 1.096.231.744.71 1.327 1.226 1.716.781.588 1.632.83 2.339.968.71.133 1.291.146 1.542.147h8.629a1.3 1.3 0 1 0 0-2.6h-8.629c-.186.003-.912-.024-1.535-.217-.312-.094-.59-.226-.769-.365-.182-.144-.267-.26-.324-.433a1.042 1.042 0 0 1-.06-.312c.004-.085.007-.1.056-.198.067-.144.313-.415.637-.866a3.8 3.8 0 0 0 .454-.853c.128-.342.207-.743.206-1.167 0-.196-.015-.397-.047-.603a3.882 3.882 0 0 0-.756-1.802c-.54-.688-1.111-1.037-1.415-1.323a1.732 1.732 0 0 1-.326-.359 1.022 1.022 0 0 1-.149-.408l-.001-.003a1.515 1.515 0 0 1-.022-.24.703.703 0 0 1 .057-.293c.052-.138.217-.36.465-.77.242-.4.51-1.039.501-1.783 0-.339-.047-.693-.139-1.065a4.409 4.409 0 0 0-.793-1.68c-.517-.657-1.074-.992-1.389-1.25-.328-.27-.445-.385-.584-.731-.112-.306-.135-.494-.135-.62a.92.92 0 0 1 .067-.343c.069-.198.253-.5.473-.967a4.373 4.373 0 0 0 .423-1.877c-.005-1.186-.435-2.54-1.499-4.426a1.3 1.3 0 0 0-1.772-.491c-.066.037-.107.096-.164.142-.12.06-.24.123-.342.223-1.588 1.564-4.659 4.365-8.162 7.624-3.371 3.137-7.14 6.701-10.45 10.065-1.687-.06-3.497-.087-5.383-.087ZM80.713 65.941c4.001-.262 11.152-.656 18.321-.81a1.3 1.3 0 0 0-.056-2.6c-7.227.157-14.402.552-18.435.816a1.3 1.3 0 1 0 .17 2.594ZM152.211 151.12h-.001c-.368-1.1-.913-2.66-1.464-4.142a82.023 82.023 0 0 0-.704-1.829h6.063a1.3 1.3 0 1 0 0-2.6h-8.043a1.3 1.3 0 0 0-1.16 1.887c.157.309.38.819.624 1.421.736 1.812 1.681 4.484 2.219 6.09a1.3 1.3 0 0 0 2.466-.827ZM157.934 180.869a1.3 1.3 0 1 0-2.585.276c.289 2.702.508 5.356.643 7.89a1.3 1.3 0 1 0 2.597-.138h-.001a151.41 151.41 0 0 0-.654-8.028ZM18.447 170.48H10.52a1.3 1.3 0 0 0 0 2.6h7.926a1.3 1.3 0 1 0 0-2.6ZM136.28 170.053h-5.363a1.3 1.3 0 1 0 0 2.6h5.363a1.3 1.3 0 0 0 0-2.6ZM122.396 125.106h-7.926a1.3 1.3 0 1 0 0 2.6h7.926a1.3 1.3 0 1 0 0-2.6ZM41.71 183.664h-6.718a1.3 1.3 0 0 0-1.296 1.2c-.08 1.058-.144 3.073-.196 4.032a1.3 1.3 0 1 0 2.596.14c.036-.678.078-1.813.124-2.772h5.49a1.3 1.3 0 0 0 0-2.6ZM178.567 88.957a1.3 1.3 0 0 0-1.061-1.501c-1.807-.311-4.27-.526-7.259-.616a1.3 1.3 0 1 0-.077 2.6c2.901.085 5.278.298 6.895.578a1.301 1.301 0 0 0 1.502-1.06ZM177.396 117.563a1.3 1.3 0 0 0-.504-1.768c-4.356-2.418-10.347-4.327-17.616-5.984a1.3 1.3 0 1 0-.577 2.535c7.143 1.622 12.956 3.507 16.929 5.721a1.3 1.3 0 0 0 1.768-.504ZM42.21 87.772c-6.656-.835-12.438-1.182-17.114-1.182-3.745 0-6.776.22-9.019.606a1.3 1.3 0 1 0 .443 2.563c2.02-.35 4.938-.57 8.576-.57 4.548 0 10.231.34 16.79 1.163a1.3 1.3 0 0 0 .324-2.58ZM64.487 99.251a75.375 75.375 0 0 0-3.176-.555 1.3 1.3 0 1 0-.393 2.571c1.036.158 2.059.337 3.067.535a1.3 1.3 0 1 0 .502-2.55ZM18.278 118.028c.606-.388 1.528-.846 2.68-1.321a55.202 55.202 0 0 1 4.1-1.479 1.3 1.3 0 0 0-.798-2.475 57.68 57.68 0 0 0-4.296 1.551c-1.24.514-2.27 1.015-3.082 1.53a1.3 1.3 0 1 0 1.396 2.194Z"/><path fill="#FFD93A" d="M61.115 106.147c-3.45.116-7.236.474-11.105.994.379-2.456.769-4.866 1.167-7.218 1.453.092 2.9.204 4.329.36a1.3 1.3 0 0 0 .28-2.585c-1.378-.15-2.77-.26-4.166-.352.324-1.859.65-3.68.976-5.464 3.604.675 7.275 1.481 10.775 2.462a1.3 1.3 0 0 0 .701-2.504c-3.595-1.007-7.338-1.828-11.003-2.514.675-3.615 1.346-7.065 1.984-10.313a1.295 1.295 0 0 0-.271-1.077 1.296 1.296 0 0 0-1.004-.474h-7.392a1.3 1.3 0 1 0 0 2.6H52.2c-.549 2.8-1.116 5.738-1.689 8.803-.963-.165-1.929-.332-2.867-.477a1.3 1.3 0 1 0-.396 2.57c.913.14 1.854.303 2.79.464-.345 1.884-.69 3.811-1.03 5.78-1.715-.072-3.431-.114-5.139-.114-6.635 0-13.129.51-18.784 1.262-5.657.753-10.465 1.742-13.771 2.724a1.3 1.3 0 0 0 .74 2.493c3.11-.926 7.826-1.903 13.374-2.639 5.55-.738 11.94-1.24 18.441-1.24 1.563 0 3.13.038 4.695.1-.424 2.517-.84 5.099-1.242 7.736-6.201.945-12.468 2.269-17.782 3.686a1.3 1.3 0 1 0 .67 2.512c4.984-1.331 10.867-2.581 16.71-3.502a387.806 387.806 0 0 0-2.434 20.117 1.3 1.3 0 0 0 2.59.242 386.882 386.882 0 0 1 2.53-20.761c4.063-.568 8.036-.955 11.596-1.072a1.3 1.3 0 0 0-.086-2.599ZM36.474 72.207a1.3 1.3 0 1 0 0 2.6h25.101a1.3 1.3 0 0 0 0-2.6h-4.94a531.856 531.856 0 0 1 5.067-21.546l12.975 13.387a1.3 1.3 0 1 0 1.867-1.809L62.092 47.328a1.3 1.3 0 0 0-1.838-.029 1.29 1.29 0 0 0-.278.404c-.15.155-.277.335-.335.558-1.198 4.55-3.308 12.899-5.664 23.946H36.474ZM132.04 61.467l-.001-.002v-.001l.001.003ZM120.297 154.617h-8.668c-.222-.005-.259-.03-.339-.065a1.953 1.953 0 0 1-.291-.204c-.214-.165-.557-.46-1.066-.696-.51-.237-1.153-.381-1.908-.378a3.446 3.446 0 0 0-1.717.445c-.679.394-1.052.815-1.356 1.022a1.656 1.656 0 0 1-.412.229 1.54 1.54 0 0 1-.549.087c-.569-.009-.763-.115-.942-.234-.133-.096-.27-.244-.439-.479-.258-.343-.546-.886-1.123-1.427a3.432 3.432 0 0 0-1.1-.684 4.064 4.064 0 0 0-1.462-.25l-.08.001v-.001l-.007.001-.037.001v.004a3.12 3.12 0 0 0-1.36.337c-.363.187-.66.439-.898.701-.414.463-.664.951-.878 1.393-.31.665-.557 1.25-.785 1.542a.904.904 0 0 1-.272.261c-.075.039-.15.071-.347.074a1.53 1.53 0 0 1-.627-.116c-.27-.118-.512-.336-.778-.733-.402-.588-.738-1.502-1.217-2.406-.247-.452-.538-.917-.988-1.329a2.944 2.944 0 0 0-1.808-.773 5.89 5.89 0 0 0-.398-.013c-.523 0-1.005.071-1.442.227-.775.266-1.328.818-1.649 1.293-.249.358-.411.681-.56.935-.225.388-.384.594-.62.749-.237.152-.649.322-1.555.325h-7.071a1.3 1.3 0 1 0 0 2.6h7.072c1.254.004 2.254-.263 3.009-.77a4.24 4.24 0 0 0 1.207-1.259c.198-.309.342-.584.465-.796.186-.326.313-.477.412-.545.1-.065.235-.152.732-.159l.233.008.163.054c.1.057.327.322.56.783.364.682.719 1.695 1.386 2.656.337.478.775.954 1.366 1.309.589.357 1.32.563 2.108.56a3.32 3.32 0 0 0 1.431-.309c.757-.36 1.231-.956 1.552-1.49.476-.811.74-1.592 1.02-2.037.133-.224.25-.345.323-.396.078-.048.11-.073.297-.082H98.925c.48.012.591.093.746.2.114.089.251.246.425.496.264.365.583.941 1.21 1.479a3.65 3.65 0 0 0 1.163.661c.456.159.966.238 1.522.238a4.07 4.07 0 0 0 1.836-.414c.751-.38 1.188-.853 1.494-1.08.153-.119.264-.186.357-.225a.853.853 0 0 1 .347-.064c.408.002.619.059.766.117.216.083.368.224.793.548.209.154.49.337.844.471.354.134.766.209 1.201.207h8.668a1.3 1.3 0 1 0 0-2.6ZM173.879 171.381c-1.273 0-2.83-.013-4.066-.026-1.236-.014-2.15-.027-2.152-.027a1.301 1.301 0 0 0-.038 2.6c.003 0 3.677.053 6.256.053a1.3 1.3 0 1 0 0-2.6ZM156.125 176.318a1.3 1.3 0 0 0 .913-1.595 1.836 1.836 0 0 1-.074-.48.888.888 0 0 1 .091-.403c.09-.212.339-.527.651-1.036.308-.503.62-1.255.611-2.154 0-.208-.014-.423-.043-.645a4.585 4.585 0 0 0-.706-1.954c-.516-.768-1.089-1.183-1.398-1.519a2.165 2.165 0 0 1-.353-.458 1.712 1.712 0 0 1-.189-.603 2.392 2.392 0 0 1-.027-.347c.002-.219.032-.346.082-.489.071-.21.243-.476.479-.933a4.082 4.082 0 0 0 .462-1.896c0-.358-.042-.738-.129-1.147-.157-.743-.421-1.358-.747-1.844-.495-.734-1.054-1.133-1.371-1.434-.326-.313-.473-.47-.638-.953a1.3 1.3 0 1 0-2.479.785c.203.649.524 1.179.863 1.573.518.594.974.897 1.228 1.181.257.288.438.524.601 1.233.054.258.072.454.072.606a1.393 1.393 0 0 1-.082.495c-.072.213-.243.477-.479.932a4.072 4.072 0 0 0-.462 1.891c0 .228.017.468.054.718a4.24 4.24 0 0 0 .724 1.87c.521.727 1.064 1.11 1.36 1.447.155.168.264.313.352.486.088.173.161.381.205.702.015.115.021.215.021.303a1.343 1.343 0 0 1-.109.56c-.096.244-.316.532-.618 1a4.406 4.406 0 0 0-.427.862 3.5 3.5 0 0 0-.199 1.171c0 .371.056.759.165 1.162a1.3 1.3 0 0 0 1.596.913ZM44.14 154.974c-.366.268-.546.386-1.05.465a1.3 1.3 0 0 0 .346 2.577 4.446 4.446 0 0 0 1.699-.578c.674-.408 1.05-.805 1.375-1.007.327-.203.592-.341 1.318-.379h.005l.144-.003c.434.003.645.068.813.14.127.057.241.131.399.252.234.176.555.483 1.065.773.51.291 1.193.501 1.988.521l.042.001h5.682a1.3 1.3 0 0 0 0-2.6H52.32c-.39-.016-.57-.081-.733-.158a2.321 2.321 0 0 1-.41-.276c-.248-.192-.596-.516-1.137-.797-.54-.281-1.243-.461-2.063-.456l-.244.005c-.759.027-1.41.18-1.944.418-.809.361-1.298.843-1.649 1.102ZM40.155 145.564c-.23.265-.677.521-1.284 1.002-.296.243-.62.554-.9.959a4.713 4.713 0 0 0-.673 1.464c-.135.49-.2.949-.2 1.379-.001.469.08.895.19 1.252.167.537.365.912.478 1.219.116.31.181.549.185.934 0 .128-.01.273-.031.443a1.3 1.3 0 1 0 2.578.338c.035-.272.053-.532.053-.781.006-1.008-.313-1.787-.532-2.291a6.285 6.285 0 0 1-.245-.621 1.62 1.62 0 0 1-.076-.493c0-.17.024-.387.107-.689.118-.416.252-.626.416-.818.24-.287.654-.533 1.243-.984.288-.227.608-.516.893-.9.285-.384.525-.857.68-1.403v-.003c.128-.448.189-.873.188-1.269.002-.788-.246-1.4-.396-1.787-.158-.405-.218-.585-.22-.848 0-.178.032-.423.17-.811.167-.455.33-.699.493-.885.239-.276.56-.462 1.09-.823.52-.351 1.197-.945 1.627-1.876a1.3 1.3 0 0 0-2.348-1.116c-.15.309-.282.461-.453.618-.248.235-.688.455-1.277.916-.586.459-1.201 1.209-1.577 2.283-.22.61-.326 1.174-.325 1.694-.002.788.246 1.402.397 1.79.158.405.217.585.22.845 0 .136-.02.308-.09.557-.107.359-.222.527-.38.705ZM171.824 138.235a1.3 1.3 0 0 0-1.3-1.3h-22.22c-.928-10.152-2.064-19.052-3.317-27.142 2.37.31 4.744.677 7.078 1.098a1.3 1.3 0 0 0 .462-2.559 151.006 151.006 0 0 0-7.96-1.213 423.581 423.581 0 0 0-1.116-6.564c2.894-.198 5.813-.296 8.694-.296 6.112 0 12.05.41 17.197 1.062 5.143.649 9.507 1.549 12.412 2.493a1.301 1.301 0 0 0 .803-2.473c-3.157-1.022-7.627-1.932-12.889-2.6-5.258-.666-11.295-1.082-17.523-1.082-3.031 0-6.105.106-9.159.324a494.203 494.203 0 0 0-1.204-6.333c7.596-1.434 14.643-2.098 21.047-2.23a1.301 1.301 0 0 0-.054-2.598c-6.545.134-13.746.813-21.499 2.278-.897-4.457-1.811-8.74-2.717-12.962a1.3 1.3 0 1 0-2.542.546c.904 4.214 1.814 8.479 2.706 12.91a140.91 140.91 0 0 0-9.213 2.249 1.3 1.3 0 1 0 .701 2.504c3.084-.864 6.09-1.591 9.018-2.204.39 1.977.774 3.995 1.153 6.055-3.147.297-6.252.72-9.235 1.309a1.3 1.3 0 1 0 .503 2.551c2.953-.583 6.05-1.002 9.198-1.293.351 1.968.696 3.979 1.033 6.043a126.148 126.148 0 0 0-9.158-.661 1.299 1.299 0 1 0-.086 2.599c3.096.103 6.36.35 9.667.72 1.281 8.169 2.44 17.165 3.388 27.469h-16.826a1.3 1.3 0 1 0 0 2.599h41.658a1.3 1.3 0 0 0 1.3-1.299ZM59.013 178.111H37.015c.237-2.037.608-5.267 1-8.502.465-3.844.964-7.703 1.276-9.385a1.302 1.302 0 0 0-1.278-1.536h-5.361a1.3 1.3 0 1 0 0 2.6l3.831-.001c-.31 2.046-.685 5.009-1.05 8.01-.411 3.402-.802 6.811-1.036 8.814h-5.185a1.3 1.3 0 1 0 0 2.6h29.8a1.3 1.3 0 0 0 0-2.6ZM10.628 54.582h2.002c.65 0 1.016.096 1.261.197.185.078.316.164.474.29.235.181.513.497 1.015.837.5.342 1.234.593 2.052.582.5.002.99-.114 1.402-.32.731-.365 1.19-.931 1.532-1.449.506-.784.835-1.558 1.168-2.017.161-.231.305-.37.412-.438a.622.622 0 0 1 .373-.102.87.87 0 0 1 .417.089c.172.084.395.303.639.731.373.632.693 1.607 1.227 2.556.273.474.616.961 1.135 1.36a3.192 3.192 0 0 0 1.965.654c.895.01 1.692-.262 2.264-.658.431-.292.742-.617.999-.89.386-.419.658-.715.965-.903.308-.185.675-.335 1.455-.342 1.273 0 2.83.013 4.066.026 1.237.014 2.15.027 2.153.027a1.3 1.3 0 0 0 .037-2.6c-.003 0-3.677-.053-6.256-.053-1.035-.003-1.904.22-2.585.593a5.22 5.22 0 0 0-1.21.922c-.458.466-.756.83-.998 1.007a1.206 1.206 0 0 1-.348.193 1.62 1.62 0 0 1-.542.078.598.598 0 0 1-.31-.07.931.931 0 0 1-.252-.22c-.179-.206-.39-.583-.601-1.05-.328-.702-.643-1.586-1.226-2.423a4.001 4.001 0 0 0-1.187-1.138 3.45 3.45 0 0 0-1.807-.488 3.269 3.269 0 0 0-1.417.312c-.743.356-1.22.923-1.573 1.444-.521.792-.853 1.576-1.182 2.041-.16.234-.3.374-.398.438a.51.51 0 0 1-.317.09c-.354-.007-.444-.056-.571-.122a2.605 2.605 0 0 1-.404-.32c-.276-.247-.698-.654-1.343-.967-.644-.315-1.462-.5-2.484-.498h-2.002a1.3 1.3 0 1 0 0 2.6ZM148.607 64.955h5.277c1.287.007 2.353-.34 3.126-.917.58-.427.977-.94 1.277-1.399.444-.696.731-1.28.986-1.557.126-.143.222-.215.335-.27.115-.053.268-.1.562-.102.073 0 .157.003.252.012.059.008.083.012.175.076.158.104.446.468.732 1.008.446.807.895 1.932 1.622 2.964.368.514.821 1.017 1.425 1.404.601.388 1.36.63 2.175.625.5.001.98-.096 1.401-.27.744-.307 1.275-.814 1.678-1.3.601-.736 1.004-1.473 1.386-1.923.187-.227.354-.375.491-.456a.836.836 0 0 1 .444-.126l.028-.001h.045c.504.007.658.093.804.182.109.072.23.19.4.395.255.297.597.806 1.231 1.26.315.224.7.418 1.136.544.436.128.919.19 1.455.19a4.099 4.099 0 0 0 1.83-.407c.75-.375 1.188-.844 1.494-1.068.153-.117.263-.184.358-.223a.865.865 0 0 1 .351-.063c.404.001.607.06.751.118.211.083.366.232.79.567.209.16.49.35.848.49.356.142.775.22 1.216.218h3.541a1.3 1.3 0 0 0 0-2.6h-3.541c-.215-.005-.244-.028-.322-.064a1.98 1.98 0 0 1-.291-.21c-.214-.172-.555-.478-1.067-.724-.513-.248-1.164-.398-1.925-.395a3.473 3.473 0 0 0-1.711.438c-.678.389-1.052.806-1.356 1.01a1.673 1.673 0 0 1-.413.228 1.59 1.59 0 0 1-.553.085c-.599-.004-.846-.11-1.025-.214a1.746 1.746 0 0 1-.418-.38c-.246-.273-.546-.746-1.129-1.209a3.511 3.511 0 0 0-1.071-.567 4.458 4.458 0 0 0-1.383-.201l-.129.002h-.028v.003a3.47 3.47 0 0 0-1.34.303c-.718.33-1.213.84-1.598 1.321-.571.73-.969 1.448-1.353 1.88-.189.218-.357.36-.506.44-.151.081-.282.124-.519.127a1.405 1.405 0 0 1-.616-.129c-.297-.136-.612-.43-.935-.908-.49-.71-.919-1.754-1.465-2.74-.28-.493-.593-.985-1.044-1.42-.443-.434-1.089-.809-1.838-.87a5.456 5.456 0 0 0-.483-.022c-.544-.001-1.057.092-1.511.28-.806.329-1.342.92-1.697 1.438-.273.395-.473.769-.665 1.088-.287.485-.538.822-.843 1.04-.305.212-.707.391-1.57.399h-5.277a1.3 1.3 0 0 0 0 2.6ZM79.88 95.392c.29.186.647.344 1.112.348.137 0 .279-.03.418-.064l.003.012c.026-.006.05-.018.075-.025.013-.003.025-.001.038-.005l-.002-.006c.328-.086.643-.22.913-.417a2.66 2.66 0 0 0 .923-1.236 3.75 3.75 0 0 0 .22-1.314c-.005-.906-.236-1.745-.52-2.44a4.843 4.843 0 0 0-.505-.94 2.331 2.331 0 0 0-.392-.436 1.654 1.654 0 0 0-.353-.23 1.458 1.458 0 0 0-.633-.146 1.4 1.4 0 0 0-.685.18c-.106.06-.194.126-.28.212-.211.218-.31.39-.406.557a5.639 5.639 0 0 0-.302.655l-.033.085c-.658.762-.996 1.651-.989 2.47.003.808.274 1.509.671 2.046.202.27.437.504.727.694ZM114.2 88.886a12.43 12.43 0 0 0-.284-.382 4.312 4.312 0 0 0-.335-.39 1.342 1.342 0 0 0-.301-.224 1.408 1.408 0 0 0-1.265-.037 1.738 1.738 0 0 0-.55.402c-.208.225-.339.44-.469.682a6.147 6.147 0 0 0-.67 2.733c.002.648.119 1.364.522 2.034.395.674 1.117 1.229 1.984 1.455.117.031.221.045.342.045.537-.008.9-.22 1.18-.428.416-.328.7-.73.924-1.204a3.895 3.895 0 0 0 .363-1.633c.013-.881-.37-1.883-1.168-2.66-.053-.078-.151-.223-.273-.392Zm-1.159 3.053c.001.08-.021.16-.037.24a1.542 1.542 0 0 1-.078-.51c0-.058.007-.121.011-.183.074.152.097.296.104.453ZM101.736 98.149a1.3 1.3 0 0 0-1.563-.97 2.168 2.168 0 0 1-.45.035c-.432.002-1.058-.06-1.756-.063-.468.001-.977.03-1.51.16a3.79 3.79 0 0 0-1.582.789 5.078 5.078 0 0 0-1.356 1.774 4.722 4.722 0 0 0-.413 1.948c.005 1.259.454 2.376 1.07 3.239.312.431.67.803 1.088 1.096.418.288.911.523 1.538.53.237.001.497-.04.75-.138.63-.249 1.075-.696 1.395-1.163.48-.709.746-1.516.93-2.353.178-.837.258-1.704.259-2.51-.001-.251-.017-.487-.033-.724a3.93 3.93 0 0 0 .664-.088 1.3 1.3 0 0 0 .969-1.562Zm-4.555 4.928c-.114.365-.255.663-.378.839l-.075.088a2.424 2.424 0 0 1-.636-.767c-.236-.424-.389-.939-.386-1.415 0-.305.056-.595.184-.88.13-.285.33-.572.673-.865.124-.105.276-.182.512-.241.123-.03.268-.052.427-.066.022.226.035.482.034.753.003.838-.122 1.823-.355 2.554Z"/><path fill="#191C22" d="m110.183 65.067.699-.002c2.073 0 4.054.032 5.852.104.367.015.726-.128.983-.39 3.348-3.427 7.274-7.137 10.769-10.388 2.851-2.653 5.395-4.982 7.143-6.643.334.803.429 1.338.426 1.668-.009.437-.105.638-.336 1.09-.113.22-.262.49-.395.84-.131.347-.235.78-.233 1.256 0 .481.1.99.297 1.52.217.6.562 1.083.91 1.43.53.52.984.777 1.232 1.016.25.243.39.396.539.942.049.199.063.34.063.439a.726.726 0 0 1-.058.299c-.052.139-.216.36-.463.768a3.422 3.422 0 0 0-.502 1.779c0 .215.019.44.058.67.112.7.421 1.303.777 1.732.543.647 1.083.97 1.374 1.255.151.14.249.255.322.377.072.124.13.26.168.497l.017.207a.706.706 0 0 1-.078.34c-.074.167-.287.412-.597.825a3.796 3.796 0 0 0-.456.79 2.953 2.953 0 0 0-.223 1.128c0 .358.064.726.181 1.096.232.744.71 1.327 1.226 1.716.782.588 1.632.83 2.34.968a8.563 8.563 0 0 0 1.541.147h8.629a1.3 1.3 0 1 0 0-2.6H143.759c-.186.003-.911-.024-1.535-.217-.311-.093-.589-.226-.768-.365-.183-.143-.267-.26-.325-.433a1.076 1.076 0 0 1-.06-.312c.004-.085.008-.1.056-.198.067-.144.313-.415.638-.866a3.8 3.8 0 0 0 .454-.853c.128-.342.207-.743.206-1.166 0-.197-.016-.398-.048-.604a3.882 3.882 0 0 0-.756-1.802c-.54-.688-1.11-1.036-1.415-1.323a1.754 1.754 0 0 1-.325-.359 1.037 1.037 0 0 1-.15-.408v-.003a1.404 1.404 0 0 1-.022-.24.672.672 0 0 1 .057-.292c.051-.139.216-.362.464-.77.243-.4.51-1.04.502-1.783 0-.34-.047-.694-.139-1.065a4.424 4.424 0 0 0-.793-1.68c-.518-.658-1.075-.992-1.39-1.251-.328-.27-.444-.384-.583-.731-.113-.306-.135-.493-.136-.62a.923.923 0 0 1 .068-.343c.068-.198.252-.5.472-.967a4.386 4.386 0 0 0 .424-1.876c-.006-1.187-.435-2.541-1.5-4.427a1.299 1.299 0 0 0-1.771-.491c-.066.037-.108.096-.164.142-.121.06-.241.123-.342.223-1.588 1.564-4.659 4.365-8.163 7.625-3.371 3.136-7.14 6.7-10.449 10.064a155.315 155.315 0 0 0-6.094-.085 1.3 1.3 0 1 0 .011 2.6ZM85.84 65.941c4.001-.262 11.152-.656 18.322-.81a1.3 1.3 0 0 0-.056-2.6c-7.228.157-14.404.552-18.436.816a1.3 1.3 0 1 0 .17 2.594ZM157.338 151.12c-.369-1.1-.914-2.66-1.465-4.142a77.393 77.393 0 0 0-.704-1.829h6.063a1.3 1.3 0 1 0 0-2.6h-8.043a1.299 1.299 0 0 0-1.16 1.887c.157.309.381.819.625 1.421.735 1.812 1.681 4.484 2.219 6.09a1.3 1.3 0 0 0 2.465-.827ZM163.061 180.869a1.3 1.3 0 0 0-2.585.276c.288 2.702.507 5.356.643 7.89a1.3 1.3 0 1 0 2.596-.138 152.473 152.473 0 0 0-.654-8.028ZM23.573 170.48h-7.925a1.3 1.3 0 0 0 0 2.6h7.925a1.3 1.3 0 1 0 0-2.6ZM127.522 125.106h-7.925a1.3 1.3 0 1 0 0 2.6h7.925a1.3 1.3 0 1 0 0-2.6ZM46.836 183.664H40.12a1.3 1.3 0 0 0-1.297 1.2c-.08 1.058-.144 3.073-.196 4.032a1.3 1.3 0 1 0 2.596.14c.036-.678.078-1.813.123-2.772h5.49a1.3 1.3 0 0 0 0-2.6ZM174.036 88.101a1.3 1.3 0 0 0 1.261 1.339c2.902.085 5.279.298 6.895.578a1.3 1.3 0 0 0 .442-2.562c-1.808-.311-4.271-.526-7.26-.616a1.3 1.3 0 0 0-1.338 1.261ZM182.523 117.563a1.3 1.3 0 0 0-.504-1.768c-4.355-2.418-10.346-4.327-17.616-5.984a1.3 1.3 0 1 0-.576 2.535h-.001c7.143 1.622 12.957 3.507 16.93 5.721a1.3 1.3 0 0 0 1.767-.504ZM47.337 87.772c-6.656-.835-12.438-1.182-17.114-1.182-3.745 0-6.776.22-9.019.606a1.3 1.3 0 1 0 .443 2.563c2.02-.35 4.938-.57 8.576-.57 4.548 0 10.231.34 16.79 1.163a1.3 1.3 0 0 0 .324-2.58ZM69.614 99.251a75.403 75.403 0 0 0-3.176-.555 1.3 1.3 0 1 0-.393 2.571 73.1 73.1 0 0 1 3.067.535 1.3 1.3 0 1 0 .502-2.55ZM29.387 112.753a57.675 57.675 0 0 0-4.296 1.551c-1.24.514-2.27 1.015-3.082 1.53a1.3 1.3 0 1 0 1.396 2.194c.606-.388 1.528-.846 2.68-1.321a55.182 55.182 0 0 1 4.1-1.479 1.3 1.3 0 0 0-.798-2.475Z"/><path fill="#191C22" d="M66.242 106.147c-3.45.116-7.236.474-11.105.994.379-2.456.769-4.866 1.167-7.218 1.453.092 2.9.204 4.329.36a1.3 1.3 0 0 0 .28-2.585c-1.378-.15-2.77-.26-4.166-.352.324-1.859.65-3.68.976-5.464 3.604.675 7.275 1.481 10.775 2.462a1.3 1.3 0 0 0 .701-2.504c-3.595-1.007-7.337-1.828-11.003-2.514.675-3.615 1.346-7.065 1.985-10.313a1.296 1.296 0 0 0-.272-1.077 1.296 1.296 0 0 0-1.004-.474h-7.392a1.3 1.3 0 1 0 0 2.6h5.813c-.549 2.8-1.116 5.738-1.689 8.803-.963-.165-1.929-.332-2.867-.477a1.3 1.3 0 1 0-.396 2.57c.913.14 1.854.303 2.79.464-.345 1.884-.69 3.811-1.03 5.78-1.715-.072-3.431-.114-5.139-.114-6.635 0-13.129.51-18.784 1.262-5.657.753-10.465 1.742-13.771 2.724a1.3 1.3 0 0 0 .74 2.493c3.11-.926 7.826-1.903 13.374-2.639 5.55-.738 11.94-1.24 18.442-1.24 1.562 0 3.13.038 4.694.1-.424 2.517-.84 5.099-1.242 7.736-6.201.945-12.468 2.269-17.782 3.686a1.3 1.3 0 1 0 .67 2.512c4.984-1.331 10.867-2.581 16.71-3.502a387.588 387.588 0 0 0-2.434 20.117 1.3 1.3 0 0 0 2.59.242 386.778 386.778 0 0 1 2.53-20.761c4.063-.568 8.037-.955 11.596-1.072a1.3 1.3 0 0 0-.086-2.599ZM41.603 72.207a1.3 1.3 0 1 0 0 2.6h25.101a1.3 1.3 0 0 0 0-2.6h-4.94a531.683 531.683 0 0 1 5.067-21.546l12.975 13.387a1.3 1.3 0 1 0 1.867-1.809L67.221 47.328a1.3 1.3 0 0 0-1.838-.029 1.291 1.291 0 0 0-.278.404c-.15.155-.277.335-.336.558-1.197 4.55-3.307 12.899-5.663 23.946H41.603ZM125.425 154.617h-8.668c-.223-.005-.26-.03-.34-.065a2.008 2.008 0 0 1-.291-.204c-.214-.165-.556-.46-1.066-.696-.509-.237-1.152-.381-1.908-.378a3.452 3.452 0 0 0-1.717.445c-.679.394-1.051.815-1.356 1.022a1.639 1.639 0 0 1-.412.229 1.54 1.54 0 0 1-.549.087c-.569-.009-.763-.115-.941-.234-.133-.096-.27-.244-.439-.479-.258-.342-.546-.886-1.124-1.427a3.421 3.421 0 0 0-1.1-.684 4.057 4.057 0 0 0-1.462-.25l-.08.001v-.001l-.007.001-.036.001v.004a3.116 3.116 0 0 0-1.36.337 3.188 3.188 0 0 0-.898.701c-.415.463-.665.951-.878 1.393-.31.665-.557 1.25-.786 1.542a.905.905 0 0 1-.272.261c-.075.039-.15.071-.347.074a1.53 1.53 0 0 1-.627-.116c-.27-.118-.512-.336-.778-.733-.402-.588-.738-1.502-1.217-2.406-.247-.452-.538-.917-.988-1.329a2.944 2.944 0 0 0-1.809-.773 5.884 5.884 0 0 0-.397-.013c-.523 0-1.005.071-1.442.227-.775.266-1.328.818-1.649 1.293-.249.358-.411.681-.56.935-.225.388-.384.594-.62.749-.237.152-.648.322-1.555.325h-7.071a1.3 1.3 0 1 0 0 2.6h7.072c1.254.004 2.254-.263 3.009-.77a4.238 4.238 0 0 0 1.207-1.259c.199-.309.342-.584.466-.796.185-.326.313-.477.412-.545.1-.065.234-.152.73-.159l.234.008.162.054c.102.057.328.322.561.783.364.682.719 1.695 1.386 2.656.337.478.775.954 1.366 1.309.589.357 1.321.563 2.108.56a3.325 3.325 0 0 0 1.432-.309c.757-.36 1.231-.956 1.551-1.49.477-.811.74-1.592 1.02-2.037.134-.224.25-.345.324-.396.078-.048.11-.073.297-.082h.04c.481.012.592.093.747.2.114.089.251.246.425.496.264.365.583.941 1.21 1.479.312.265.706.504 1.162.661.457.159.965.238 1.522.238a4.07 4.07 0 0 0 1.836-.414c.751-.38 1.189-.853 1.495-1.08a1.58 1.58 0 0 1 .357-.225.852.852 0 0 1 .346-.064c.409.002.62.059.767.117.216.083.367.224.792.548.209.154.49.337.844.471.354.134.766.209 1.202.207h8.668a1.3 1.3 0 0 0 0-2.6ZM189.83 170.421c-.846-.007-1.603.236-2.16.599a5.153 5.153 0 0 0-.976.839c-.371.401-.625.692-.848.843-.226.148-.399.24-.902.25-.518-.013-.681-.114-.909-.292-.166-.139-.348-.367-.548-.68-.308-.464-.625-1.107-1.213-1.735a3.679 3.679 0 0 0-1.14-.822 3.755 3.755 0 0 0-1.574-.323c-.852-.006-1.595.198-2.164.517a5.638 5.638 0 0 0-1.004.732c-.39.345-.645.574-.961.734-.317.157-.737.294-1.553.298a1.3 1.3 0 1 0 0 2.6c1.003.002 1.826-.171 2.492-.467.499-.22.895-.5 1.205-.753.467-.387.755-.677.995-.819.242-.141.435-.233.99-.243.222.001.356.034.461.075.177.071.327.189.542.467.325.406.654 1.131 1.271 1.878.312.371.722.746 1.255 1.016a4.063 4.063 0 0 0 1.855.417c.861.007 1.625-.229 2.196-.59a5.02 5.02 0 0 0 1.004-.843c.381-.408.638-.708.854-.859.221-.146.365-.228.832-.239a1.3 1.3 0 1 0 0-2.6ZM161.251 176.318a1.3 1.3 0 0 0 .914-1.595 1.836 1.836 0 0 1-.074-.479.892.892 0 0 1 .091-.404c.09-.212.339-.526.651-1.036.308-.502.62-1.255.611-2.154 0-.208-.014-.423-.043-.645a4.58 4.58 0 0 0-.706-1.953c-.515-.769-1.088-1.184-1.397-1.52a2.173 2.173 0 0 1-.354-.458 1.72 1.72 0 0 1-.189-.603 2.392 2.392 0 0 1-.027-.347c.002-.219.032-.346.082-.489.071-.21.243-.475.479-.933a4.082 4.082 0 0 0 .462-1.896 5.49 5.49 0 0 0-.129-1.146c-.157-.744-.421-1.359-.747-1.845-.495-.734-1.055-1.133-1.371-1.434-.326-.313-.473-.47-.638-.953a1.3 1.3 0 0 0-2.479.785c.203.649.524 1.179.863 1.574.518.593.974.896 1.228 1.18.257.288.438.524.601 1.234.054.257.072.453.072.605a1.393 1.393 0 0 1-.082.495c-.072.213-.243.477-.479.932a4.075 4.075 0 0 0-.462 1.891c0 .228.017.468.054.718a4.25 4.25 0 0 0 .725 1.871c.521.726 1.063 1.11 1.359 1.446.155.168.264.313.352.486a2.1 2.1 0 0 1 .205.702c.015.115.021.215.021.303-.002.25-.041.396-.109.561-.097.243-.317.531-.618 1a4.368 4.368 0 0 0-.427.861c-.122.343-.2.745-.199 1.172 0 .37.056.758.165 1.161a1.3 1.3 0 0 0 1.595.913ZM49.266 154.974c-.365.268-.545.386-1.049.465a1.3 1.3 0 0 0 .346 2.577 4.446 4.446 0 0 0 1.698-.578c.675-.408 1.051-.805 1.376-1.007.327-.203.591-.341 1.318-.379h.005l.143-.003c.435.003.646.068.814.14.127.057.241.131.399.252.234.176.555.483 1.065.773.51.291 1.193.501 1.988.521l.042.001h5.682a1.3 1.3 0 0 0 0-2.6h-5.647c-.39-.016-.57-.081-.733-.158a2.321 2.321 0 0 1-.41-.276c-.248-.192-.596-.516-1.137-.797-.54-.281-1.243-.461-2.063-.456l-.244.005c-.759.027-1.41.18-1.945.418-.808.361-1.297.843-1.648 1.102ZM45.284 145.564c-.23.265-.677.521-1.284 1.002-.296.243-.62.554-.901.959a4.713 4.713 0 0 0-.672 1.464c-.136.49-.2.949-.2 1.379-.002.469.08.895.19 1.252.167.537.365.912.478 1.219.116.31.181.549.185.934 0 .128-.01.273-.032.443a1.3 1.3 0 1 0 2.579.338c.035-.272.053-.532.053-.781.006-1.008-.313-1.787-.532-2.291a6.235 6.235 0 0 1-.245-.621 1.62 1.62 0 0 1-.076-.493c0-.17.024-.387.107-.689.118-.416.252-.626.416-.818.239-.287.654-.533 1.243-.984.288-.227.608-.516.893-.9.285-.384.525-.857.68-1.403v-.003c.128-.448.189-.873.188-1.269.002-.788-.246-1.4-.396-1.787-.158-.405-.218-.585-.22-.848 0-.178.032-.423.17-.811.167-.455.33-.699.493-.885.239-.276.559-.462 1.09-.823.52-.351 1.197-.945 1.627-1.876a1.3 1.3 0 0 0-2.348-1.116c-.15.309-.282.461-.453.618-.248.235-.688.455-1.277.916-.586.459-1.201 1.209-1.577 2.283-.22.61-.326 1.174-.325 1.694-.002.788.246 1.402.397 1.79.158.405.217.585.22.845 0 .136-.02.308-.09.557-.107.359-.222.527-.38.705ZM176.951 138.235a1.3 1.3 0 0 0-1.3-1.3h-22.219c-.929-10.152-2.064-19.052-3.317-27.142 2.369.31 4.743.677 7.078 1.098a1.3 1.3 0 0 0 .461-2.559 151.006 151.006 0 0 0-7.96-1.213 423.757 423.757 0 0 0-1.115-6.564c2.894-.198 5.812-.296 8.693-.296 6.112 0 12.05.41 17.197 1.062 5.144.649 9.508 1.549 12.413 2.493a1.3 1.3 0 0 0 .802-2.473c-3.156-1.022-7.627-1.932-12.888-2.6-5.259-.666-11.295-1.082-17.524-1.082-3.031 0-6.105.106-9.158.324a512.155 512.155 0 0 0-1.204-6.333c7.595-1.434 14.642-2.098 21.046-2.23a1.3 1.3 0 1 0-.053-2.598c-6.546.134-13.747.813-21.499 2.278-.898-4.457-1.811-8.74-2.717-12.962a1.3 1.3 0 1 0-2.542.546c.904 4.214 1.813 8.479 2.706 12.91a141.092 141.092 0 0 0-9.214 2.249 1.3 1.3 0 1 0 .702 2.504h-.001a138.961 138.961 0 0 1 9.019-2.204c.389 1.977.774 3.995 1.153 6.055-3.147.297-6.252.72-9.236 1.309a1.3 1.3 0 1 0 .504 2.551c2.953-.583 6.049-1.002 9.198-1.293.35 1.968.695 3.979 1.032 6.043a126.121 126.121 0 0 0-9.157-.661 1.3 1.3 0 0 0-.087 2.599c3.097.103 6.361.35 9.667.72 1.281 8.169 2.441 17.165 3.389 27.469h-8.494a1.3 1.3 0 1 0 0 2.599h33.325a1.3 1.3 0 0 0 1.3-1.299ZM64.14 178.111H42.142c.237-2.037.608-5.267 1-8.502.465-3.844.964-7.703 1.276-9.385a1.302 1.302 0 0 0-1.278-1.536h-5.361a1.3 1.3 0 1 0 0 2.6l3.831-.001c-.31 2.046-.685 5.009-1.05 8.01-.412 3.402-.802 6.811-1.036 8.814H34.34a1.3 1.3 0 1 0 0 2.6h29.8a1.3 1.3 0 0 0 0-2.6ZM15.755 54.582h2.002c.65 0 1.016.096 1.261.197.185.078.316.164.474.29.235.181.513.497 1.015.837.5.342 1.234.593 2.052.582.5.002.99-.114 1.402-.32.731-.365 1.19-.931 1.532-1.449.505-.784.835-1.558 1.168-2.017.161-.231.305-.37.412-.438a.622.622 0 0 1 .373-.102.87.87 0 0 1 .417.089c.172.084.395.303.639.731.373.632.693 1.607 1.226 2.556.273.474.617.961 1.136 1.36a3.192 3.192 0 0 0 1.965.654c.895.01 1.692-.262 2.264-.658.431-.292.742-.617.999-.89.386-.419.658-.715.965-.903.307-.185.674-.335 1.455-.342 1.273 0 2.83.013 4.066.026 1.237.014 2.15.027 2.153.027a1.3 1.3 0 0 0 .037-2.6c-.003 0-3.677-.053-6.256-.053-1.035-.003-1.904.22-2.586.593a5.217 5.217 0 0 0-1.209.922c-.458.466-.756.83-.998 1.007a1.206 1.206 0 0 1-.348.193 1.618 1.618 0 0 1-.542.078.597.597 0 0 1-.31-.07.931.931 0 0 1-.252-.22c-.179-.206-.39-.583-.601-1.05-.328-.702-.643-1.586-1.226-2.423a4.002 4.002 0 0 0-1.187-1.138 3.45 3.45 0 0 0-1.807-.488 3.268 3.268 0 0 0-1.417.312c-.743.356-1.22.923-1.573 1.444-.521.792-.853 1.576-1.182 2.041-.16.234-.301.374-.398.438a.51.51 0 0 1-.317.09c-.355-.007-.444-.056-.571-.122a2.61 2.61 0 0 1-.404-.32c-.276-.247-.698-.654-1.343-.967-.644-.315-1.462-.5-2.484-.498h-2.002a1.3 1.3 0 1 0 0 2.6ZM165.746 59.019h.008-.008ZM153.734 64.858h5.276c1.242.002 2.23-.24 2.999-.676a4.806 4.806 0 0 0 1.311-1.103c.466-.562.738-.984.965-1.168.113-.097.205-.155.349-.208.144-.052.353-.098.69-.098l.25.008.009.001c.352.03.517.111.786.308.194.149.419.379.687.67.403.432.904 1.007 1.66 1.485.753.482 1.758.809 2.961.802h1.902a1.3 1.3 0 1 0 0-2.6h-1.902c-.692-.004-1.099-.14-1.448-.326-.519-.277-.942-.787-1.558-1.438-.309-.319-.675-.667-1.162-.957a3.886 3.886 0 0 0-1.757-.538 6.023 6.023 0 0 0-.428-.015c-.514 0-.986.065-1.415.199-.756.23-1.328.691-1.706 1.115-.289.319-.496.614-.682.851-.283.361-.491.581-.803.755-.313.17-.793.33-1.708.333h-5.276a1.3 1.3 0 1 0 0 2.6ZM85.007 95.392c.29.186.647.344 1.112.348.137 0 .279-.03.418-.064l.003.012c.026-.006.05-.018.075-.025.013-.003.025-.001.038-.005l-.002-.006c.328-.086.643-.22.913-.417.455-.329.76-.79.923-1.236.167-.45.219-.892.22-1.314-.005-.906-.236-1.745-.52-2.44a4.838 4.838 0 0 0-.505-.94 2.33 2.33 0 0 0-.392-.436 1.657 1.657 0 0 0-.354-.23 1.457 1.457 0 0 0-.632-.146 1.4 1.4 0 0 0-.685.18 1.25 1.25 0 0 0-.28.212c-.211.218-.31.39-.406.557a5.653 5.653 0 0 0-.303.655l-.032.085c-.658.762-.996 1.651-.989 2.47.003.808.274 1.509.671 2.046.202.27.437.504.727.694ZM119.327 88.886a12.43 12.43 0 0 0-.284-.382 4.312 4.312 0 0 0-.335-.39 1.342 1.342 0 0 0-.301-.224 1.408 1.408 0 0 0-1.265-.037 1.726 1.726 0 0 0-.55.402c-.208.225-.339.44-.469.682a6.147 6.147 0 0 0-.67 2.733c.002.648.119 1.364.522 2.034.395.674 1.117 1.229 1.984 1.455.117.031.221.045.342.045.537-.008.9-.22 1.179-.428.417-.328.701-.73.925-1.204a3.895 3.895 0 0 0 .363-1.633c.013-.881-.37-1.883-1.169-2.66a18.783 18.783 0 0 0-.272-.392ZM104.849 97.214c-.431.002-1.057-.06-1.755-.063-.468.001-.977.03-1.509.16-.53.128-1.093.369-1.583.789a5.072 5.072 0 0 0-1.356 1.774 4.721 4.721 0 0 0-.414 1.948c.006 1.259.454 2.376 1.07 3.239.313.431.67.803 1.089 1.096.418.288.911.523 1.538.53.237.001.497-.04.749-.138.632-.249 1.076-.696 1.396-1.163.48-.709.746-1.516.93-2.353.179-.837.259-1.704.259-2.51 0-.251-.017-.487-.033-.724.213-.012.431-.034.664-.088a1.3 1.3 0 0 0-.593-2.531 2.18 2.18 0 0 1-.452.034Zm-2.541 5.863c-.114.365-.255.663-.378.839l-.075.088a2.426 2.426 0 0 1-.636-.767c-.236-.424-.389-.939-.387-1.415.001-.305.057-.595.185-.88.129-.285.331-.572.673-.865a1.2 1.2 0 0 1 .512-.241 2.84 2.84 0 0 1 .427-.066c.022.226.035.482.034.753.003.838-.122 1.823-.355 2.554Z"/></svg>