<svg xmlns="http://www.w3.org/2000/svg" width="200" height="200" fill="none"><path fill="#FFD93A" d="M77.36 62.261c1.21-11.345 11.387-26.661 30.414-25.426 11.647.757 23.747 9.984 29.647 34.335 5.898 24.353 3.63 42.05-1.211 60.957-4.84 18.907-15.882 26.62-28.738 25.865-12.857-.756-21.025-10.588-22.991-14.824 0 0 15.917 1.396 25.713-20.57 4.992-11.193 3.026-35.999.152-44.47-2.874-8.47-5.294-13.612-6.656-13.159-1.361.454-3.932 5.597-3.176 12.1 0 0-11.596 4.589-15.983-1.764-4.387-6.352-7.172-13.044-7.172-13.044Z"/><path fill="#191C22" d="M39.057 105.783c.271.257.572.448.886.581.314.131.64.208.998.21.229-.001.473-.033.733-.134.257-.099.537-.281.747-.563l.005-.006c.34-.453.536-1.019.531-1.556a2.785 2.785 0 0 0-.48-1.524c-.4-.603-.905-1.012-1.388-1.322a4.633 4.633 0 0 0-.725-.374 2.883 2.883 0 0 0-.379-.125 2 2 0 0 0-.485-.065 1.49 1.49 0 0 0-.62.13 1.372 1.372 0 0 0-.728.785c-.102.299-.098.471-.103.629.002.284.039.497.07.674l.019.1c-.009.101-.026.204-.026.304-.007.933.4 1.752.945 2.256ZM38.148 101.825l.003-.006.002-.006-.005.012ZM57.784 93c.449-.231.688-.596.816-.903.129-.316.17-.613.171-.907a3.035 3.035 0 0 0-.71-1.933c-.433-.53-1.146-.923-1.963-1.029-.056-.024-.109-.049-.183-.078a3.907 3.907 0 0 0-.372-.129c-.15-.039-.306-.084-.58-.088-.087 0-.171.008-.252.02l-.005.001-.01.001v.003c-.313.05-.609.231-.772.416-.257.289-.312.52-.355.687-.037.17-.043.3-.044.422.004.368.07.685.173 1.045.16.53.407 1.108.83 1.651.213.27.476.533.823.746.344.213.79.365 1.267.364a2.58 2.58 0 0 0 1.16-.286l.006-.003ZM57.348 99.3a1.3 1.3 0 0 0-2.36-1.089c-.302.643-.61.928-.89 1.099-.28.166-.576.227-.893.228a2.86 2.86 0 0 1-1.04-.206l-.05-.022-.004-.002v.002a1.303 1.303 0 0 0-1.365.15c-.39.308-.573.817-.465 1.303.003.007.018.109.017.239.005.354-.097.927-.341 1.356-.12.218-.27.406-.455.559a1.877 1.877 0 0 1-.737.364 1.3 1.3 0 1 0 .653 2.516 4.47 4.47 0 0 0 1.548-.75c.304.241.62.47.957.667.607.35 1.283.634 2.082.64a2.812 2.812 0 0 0 1.905-.736l.001-.001c.383-.345.66-.775.824-1.214.165-.44.226-.886.226-1.31-.008-.866-.237-1.664-.551-2.366.36-.393.68-.865.938-1.426Zm-3.047 4.187a.489.489 0 0 1-.135.202c-.09.068-.068.055-.16.065-.108.006-.405-.066-.772-.285a5.904 5.904 0 0 1-.704-.502c.006-.017.016-.034.022-.051.1-.274.17-.54.223-.798a4.555 4.555 0 0 0 1.358-.08c.14.381.235.768.228 1.055 0 .173-.026.305-.06.394ZM52.272 64.745c0 .858.2 1.734.624 2.543L68.36 96.883a5.533 5.533 0 0 0 6.798 2.621 55.894 55.894 0 0 0 2.112 7.65c1.246 3.481 3.006 7.19 5.518 10.482 2.508 3.288 5.788 6.165 10.027 7.881a1.3 1.3 0 0 0 .976-2.41c-3.728-1.511-6.64-4.042-8.937-7.049-3.445-4.505-5.453-10.076-6.57-14.514-.559-2.218-.898-4.15-1.097-5.522a41.978 41.978 0 0 1-.244-2.023l-.01-.104-.001-.029a1.285 1.285 0 0 0-1.016-1.155 1.267 1.267 0 0 0-.67-.33v-.001a4.84 4.84 0 0 1-1.405-.467c-.312-.167-.576-.376-.737-.593-.16-.222-.253-.431-.258-.806l.002-.083c.005-.124.053-.28.18-.477.185-.292.545-.621.86-.843a5.14 5.14 0 0 1 .396-.258l.11-.062.023-.012.002-.001c.342-.174.592-.492.679-.865a1.302 1.302 0 0 0-.227-1.073h.001a3.437 3.437 0 0 1-.31-.55c-.146-.313-.262-.71-.259-1.046 0-.194.032-.369.105-.544.076-.175.196-.362.43-.576.356-.31.596-.364.907-.375.397-.008.93.2 1.342.457.205.125.379.254.494.347l.127.107.026.023.003.003v-.001c.258.243.597.372.952.356.356-.016.686-.174.92-.443.034-.039.338-.36.735-.637.197-.138.416-.263.62-.346.206-.083.391-.12.538-.12l.117.008h.003c.426.064.67.2.888.387.32.278.572.768.714 1.33a6.192 6.192 0 0 1 .172 1.731l-.003.057-.001.01c-.017.22.037.425.12.615-.016.174 0 .353.06.53.95 2.83 2.759 6.435 4.977 9.714 1.11 1.637 2.32 3.188 3.592 4.509 1.274 1.32 2.603 2.416 4.008 3.123a1.3 1.3 0 0 0 1.163-2.326c-1.014-.504-2.162-1.418-3.298-2.6-1.709-1.772-3.397-4.133-4.804-6.527-.28-.475-.54-.951-.796-1.426l.015-.007a5.532 5.532 0 0 0 2.335-7.449l-.226-.432c1.683-.443 3.107-.79 4.168-1.037a103.311 103.311 0 0 1 2.138-.473 1.3 1.3 0 0 0-.513-2.55c-.021.005-2.78.56-7.028 1.698l-2.047-3.92a179.468 179.468 0 0 1 5.316-3.094 122.67 122.67 0 0 1 2.298-1.25 1.3 1.3 0 0 0-1.198-2.307c-.02.01-3.055 1.587-7.623 4.343l-2.155-4.125a165.527 165.527 0 0 1 3.803-3.224 121.484 121.484 0 0 1 1.617-1.303l.114-.09a1.3 1.3 0 0 0-1.597-2.05c-.014.01-2.142 1.667-5.176 4.296l-7.355-14.075a5.533 5.533 0 0 0-7.45-2.335L55.232 59.84a5.53 5.53 0 0 0-2.96 4.905Zm4.164-2.6 12.62-6.595c.43-.225.885-.33 1.34-.33a2.933 2.933 0 0 1 2.6 1.565L88.46 86.38c.225.43.33.884.33 1.34a2.932 2.932 0 0 1-1.546 2.587 29.589 29.589 0 0 1-1.206-2.97c-.013-.037-.041-.062-.056-.097l.002-.01c.003-.029.018-.22.018-.52-.005-.655-.058-1.822-.557-3.028-.252-.6-.63-1.22-1.207-1.734a4.223 4.223 0 0 0-2.735-1.052c-.602 0-1.14.15-1.599.346a6.08 6.08 0 0 0-1.353.817c-.038-.025-.069-.047-.109-.072-.647-.389-1.558-.828-2.696-.837-.864-.01-1.854.312-2.652 1.048-.49.443-.853.955-1.077 1.486a3.973 3.973 0 0 0-.313 1.56 5.02 5.02 0 0 0 .421 1.95c-.085.066-.165.124-.253.2-.347.298-.713.67-1.024 1.146-.308.474-.564 1.074-.597 1.773l-.004.202c-.007.96.337 1.816.827 2.43.74.93 1.697 1.385 2.443 1.66.353.126.662.207.902.261.053.482.138 1.163.268 2.006l-.081.042c-.43.225-.885.329-1.34.33a2.934 2.934 0 0 1-2.601-1.565L55.2 66.085a2.93 2.93 0 0 1 1.236-3.94Z"/><path fill="#191C22" d="m59.575 67.352.029.003.153.005a2.02 2.02 0 0 0 2.013-1.84l.001-.018.007-.164c0-1.025-.771-1.89-1.802-2.003v-.004l-.026-.001c-.005 0-.01-.002-.014-.003v.002a2.018 2.018 0 0 0-2.186 1.805h-.003v.018l-.003.01h.002l-.01.178c0 1.038.79 1.915 1.839 2.012Zm.182-2.235.025-.356-.025.356Zm-.03.22-.547-.048.547.049ZM81.984 80.929h.003-.003Z"/><path fill="#191C22" d="M178.235 79.641c-.693-.784-1.54-1.413-2.526-1.767-.681-.245-1.336-.371-1.963-.371a3.996 3.996 0 0 0-2.057.544c-.888.526-1.458 1.34-1.801 2.172a6.793 6.793 0 0 0-.487 2.571c.001.627.078 1.23.244 1.791.241.815.46 1.915.459 3.123-.004 1.751-.437 3.694-1.885 5.532-1.123 1.411-2.584 2.011-4.001 2.017-1.509-.002-2.916-.703-3.717-1.925-.03-.046-.076-.07-.11-.111-2.236-4.536-4.978-8.228-8.08-11.167-3.767-3.57-8.046-6.044-12.514-7.685-.113-.041-.226-.043-.34-.053-1.824-9.239-4.669-16.747-8.155-22.623-3.082-5.191-6.667-9.108-10.494-11.791-2.182-1.53-4.445-2.642-6.729-3.369-.023-.062-.026-.128-.059-.188l-6.005-10.882V10.3a1.3 1.3 0 1 0-2.6 0v15.152a651.592 651.592 0 0 0-6.035 10.942 31.053 31.053 0 0 0-11.414 5.366c-4.964 3.73-8.445 8.634-10.162 13.472a1.3 1.3 0 1 0 2.451.868c1.526-4.317 4.719-8.847 9.272-12.26a28.518 28.518 0 0 1 8.41-4.332c-1.148 3.04-1.876 6.75-1.883 10.455 0 2.413.313 4.82 1.067 7.021.708 2.07 1.84 3.952 3.464 5.424.07.104.138.21.24.293.568.464 1.117 1.029 1.655 1.638-.752.557-1.287 1.32-1.728 2.178a12.172 12.172 0 0 0-.991 2.835 19.166 19.166 0 0 0-.334 1.977 1.3 1.3 0 0 0 2.583.3c.061-.534.154-1.108.288-1.712.238-1.082.65-2.119 1.099-2.787.221-.336.448-.573.62-.695.024-.017.035-.019.056-.032.408.61.806 1.25 1.187 1.947.978 1.782 1.854 3.84 2.622 6.124-8.008 1.504-10.85 1.606-11.386 1.604h-.093a1.3 1.3 0 1 0-.15 2.595c.03.002.104.005.243.005.824-.002 3.829-.13 12.152-1.703 1.881 6.66 2.92 14.907 2.914 23.868 0 2.008-.051 4.051-.155 6.12-.579 11.517-3.9 20.36-9.44 26.307-2.774 2.977-6.11 5.246-10.001 6.785-3.891 1.538-8.343 2.341-13.33 2.341l-.33-.001a1.284 1.284 0 0 0-.962.435 1.261 1.261 0 0 0-.478.573c-1.471 3.792-2.653 9.167-3.495 13.643-.838 4.471-1.319 8.017-1.32 8.031-.066.483.146.963.545 1.241v.001l.058.044c.134.102.47.389.733.747.27.362.438.756.434 1.102-.003.213-.046.438-.225.751-.06.102-.163.209-.347.319-.27.165-.7.292-1.074.351a4.93 4.93 0 0 1-.73.066l-.063.001a1.297 1.297 0 0 0-1.217.973h-.001s-.029.107-.09.269a3.347 3.347 0 0 1-.475.861c-.105.13-.215.234-.317.305a.794.794 0 0 1-.301.132 1.746 1.746 0 0 1-.338.033c-.51.007-1.15-.232-1.64-.514a5.668 5.668 0 0 1-.588-.382l-.153-.118-.033-.027v-.001a1.303 1.303 0 0 0-1.396-.205h-.001a3.61 3.61 0 0 1-1.26.254c-.379-.001-.713-.078-.995-.268-.314-.214-.465-.414-.571-.63a1.774 1.774 0 0 1-.155-.77c-.005-.53.183-1.177.392-1.665.103-.245.208-.45.283-.589l.088-.155.02-.033v-.001c.171-.267.239-.588.19-.901-.133-.847-.35-2.846-.526-5.431-.178-2.591-.32-5.79-.32-9.116 0-3.766.184-7.698.694-11.067a1.288 1.288 0 0 0-.975-1.438 1.268 1.268 0 0 0-.474-.353c-7.07-2.902-13.978-7.805-20.353-15.7-.197-.244-.392-.5-.588-.75.525-.577.993-1.081 1.381-1.493.404-.429.725-.762.944-.987l.25-.255.083-.083a1.301 1.301 0 0 0-1.838-1.84c-.011.013-.956.96-2.414 2.549a76.358 76.358 0 0 1-1.783-2.574c.648-.458 1.307-.917 1.978-1.377a1.301 1.301 0 0 0-1.47-2.145c-.65.445-1.286.89-1.914 1.333a88.58 88.58 0 0 1-1.498-2.5 85.018 85.018 0 0 1 2.45-1.004 1.301 1.301 0 0 0-.945-2.423c-.928.362-1.855.745-2.776 1.14-3.217-5.969-6.203-12.989-8.877-21.23-1.003-3.085-1.949-7.534-2.756-11.98l11.47 5.197a1.3 1.3 0 0 0 1.401-.213s.11-.098.319-.28c.73-.64 2.645-2.291 4.958-4.115 2.31-1.823 5.032-3.822 7.313-5.13.354-.203.59-.558.642-.963l2.41-19.007 5.512 4.984a1.3 1.3 0 0 0 1.743-1.928l-7.36-6.655a1.298 1.298 0 0 0-2.161.801L44.7 71.086c-2.695 1.62-5.666 3.872-8.05 5.79-1.664 1.34-3.02 2.5-3.772 3.151l-12.954-5.87a1.3 1.3 0 0 0-1.818 1.405c.904 5.259 2.009 10.858 3.274 14.765 2.69 8.288 5.702 15.394 8.968 21.483-8.965 4.105-16.714 9.044-16.746 9.061A1.3 1.3 0 0 0 15 123.065l.118-.075c1.005-.635 8.313-5.165 16.492-8.895a90.041 90.041 0 0 0 1.772 2.962c-9.02 6.564-15.226 12.336-15.252 12.359a1.3 1.3 0 0 0 1.77 1.905l.088-.082c.774-.712 6.613-6.019 14.805-11.99a78.519 78.519 0 0 0 2.124 3.032c-2.759 3.14-6.42 7.617-9.552 12.509a1.3 1.3 0 1 0 2.19 1.401c2.847-4.451 6.203-8.614 8.841-11.654l.132-.15c.107.135.213.276.32.409 6.545 8.113 13.751 13.29 21.144 16.367-.443 3.344-.612 7.02-.613 10.558 0 3.4.145 6.652.326 9.294.158 2.295.34 4.11.486 5.202-.101.191-.22.428-.343.72-.285.684-.591 1.608-.596 2.675 0 .6.106 1.254.407 1.888a4.174 4.174 0 0 0 1.47 1.671c.821.551 1.71.71 2.444.709a6.089 6.089 0 0 0 1.571-.221c.168.115.356.236.582.364.717.4 1.712.843 2.918.85.277 0 .56-.026.844-.082l.005-.001a3.49 3.49 0 0 0 1.64-.836c.623-.562.98-1.204 1.211-1.705l.008-.019c.258-.033.54-.079.857-.159.43-.112.903-.277 1.37-.554a3.52 3.52 0 0 0 1.265-1.246c.395-.674.58-1.393.578-2.059 0-.659-.17-1.25-.4-1.743a5.81 5.81 0 0 0-1.209-1.666c-.03-.03-.056-.052-.085-.08.209-1.44.744-4.95 1.525-8.885.74-3.738 1.715-7.851 2.803-10.85a44.83 44.83 0 0 0 4.335-.246c2.01 3.496 4.814 6.954 8.65 9.668 2.825 2.001 6.216 3.578 10.203 4.475-.025.779-.042 1.874-.055 2.957a382.657 382.657 0 0 0-.026 2.895 9.382 9.382 0 0 0-.575.876c-.431.761-.913 1.803-.922 3.062 0 .512.09 1.06.314 1.593.223.534.58 1.044 1.058 1.482a4.185 4.185 0 0 0 1.647.924 5.37 5.37 0 0 0 1.973.189c.127.198.278.411.464.63a4.88 4.88 0 0 0 1.367 1.128 4.388 4.388 0 0 0 2.123.537l.232-.005.014-.001a3.918 3.918 0 0 0 2.08-.705c.814-.58 1.256-1.331 1.519-1.918a6.153 6.153 0 0 0 1.699-.225c.628-.184 1.329-.526 1.866-1.187.647-.789.936-1.715.929-2.537-.008-1.157-.475-2.066-.887-2.698a6.459 6.459 0 0 0-.352-.481c.285-1.341 1.027-4.621 2.012-7.474.006-.019.002-.038.007-.056a23.986 23.986 0 0 0 3.571-1.8 25.857 25.857 0 0 0 2.953-2.138c.085.053.161.116.26.149 1.901.633 3.973.933 6.141.933 3.211 0 6.633-.665 10.041-1.912 1.814 4.942 3.582 8.855 4.881 11.638a9.1 9.1 0 0 0-.319.736c-.245.654-.508 1.534-.511 2.542 0 .626.108 1.315.433 1.98a4.152 4.152 0 0 0 1.604 1.726 4.284 4.284 0 0 0 2.247.604 5.898 5.898 0 0 0 1.578-.232c.131.126.279.259.447.396.346.28.771.57 1.283.799.51.228 1.116.396 1.787.396a4.04 4.04 0 0 0 1.224-.19l.003-.001c.706-.224 1.243-.665 1.623-1.124.571-.696.859-1.447 1.042-2.034l.016-.059c.19-.036.398-.082.618-.143a5.42 5.42 0 0 0 1.413-.606 3.55 3.55 0 0 0 1.292-1.353 4.105 4.105 0 0 0 .49-1.914 4.07 4.07 0 0 0-.433-1.799c-.377-.759-.889-1.304-1.303-1.682a7.014 7.014 0 0 0-.288-.247c-.056-2.098-.288-4.988-.609-8.214-.892-8.927-2.461-20.293-2.825-22.889.714-.921 1.423-2.05 2.113-3.385 2.417-4.694 4.577-11.775 4.583-19.324 0-.172-.008-.346-.01-.518a8.15 8.15 0 0 0 2.543.399c1.877-.002 3.934-.542 5.916-1.66 1.98-1.118 3.881-2.823 5.4-5.161 2.286-3.53 3.295-7.948 3.3-12.04-.002-2.677-.434-5.218-1.31-7.32-.44-1.052-.994-1.997-1.689-2.783ZM105.847 30c.317-.57.604-1.083.857-1.535l4.017 7.28a20.15 20.15 0 0 0-1.819-.192 34.281 34.281 0 0 0-1.913-.053c-1.486 0-2.927.099-4.323.282A669.131 669.131 0 0 1 105.847 30Zm8.184 135.525a1.3 1.3 0 0 0 .381 1.191l-.001.001.042.042c.098.101.351.387.553.738.208.353.348.754.344 1.083-.008.283-.063.534-.351.903-.09.115-.273.237-.573.325a3.654 3.654 0 0 1-.985.122c-.207 0-.39-.013-.515-.026l-.139-.017-.027-.003-.002-.001v.001a1.299 1.299 0 0 0-1.493 1.044l-.002-.001-.017.076c-.044.182-.2.643-.458.975a1.527 1.527 0 0 1-.435.399 1.322 1.322 0 0 1-.626.178l-.116.003a1.765 1.765 0 0 1-.875-.218c-.361-.194-.669-.536-.87-.846a3.26 3.26 0 0 1-.218-.387l-.046-.101-.007-.017-.001.001a1.3 1.3 0 0 0-1.56-.799v-.001l-.059.014a3.87 3.87 0 0 1-.773.081c-.256 0-.532-.03-.775-.103a1.567 1.567 0 0 1-.629-.346 1.643 1.643 0 0 1-.422-.575 1.489 1.489 0 0 1-.111-.586c-.009-.526.258-1.227.574-1.764.155-.268.314-.496.429-.651l.135-.173.032-.038.006-.006-.001-.001c.214-.245.328-.558.321-.883v-.029c0-.384.009-1.797.026-3.256.011-.886.026-1.8.043-2.506.741.104 1.5.186 2.279.243.716.052 1.427.079 2.133.079 2.21.001 4.365-.271 6.445-.809-1.021 3.389-1.65 6.619-1.656 6.644Zm6.904-11.667c-3.544 2.184-7.457 3.229-11.693 3.232a27.23 27.23 0 0 1-1.944-.072c-5.727-.424-10.21-2.225-13.757-4.731-3.144-2.224-5.548-5.02-7.354-7.929a34.769 34.769 0 0 0 6.734-1.885c6.355-2.506 11.449-6.886 15.01-12.873 3.567-5.987 5.623-13.554 6.073-22.506.106-2.113.158-4.199.158-6.25-.001-9.135-1.033-17.57-2.989-24.52-.978-3.476-2.188-6.581-3.632-9.222-1.382-2.525-2.986-4.614-4.826-6.188-.056-.072-.097-.152-.169-.213-1.358-1.14-2.328-2.702-2.966-4.56-.637-1.854-.927-3.991-.926-6.178-.008-4.123 1.05-8.41 2.467-11.273a30.036 30.036 0 0 1 7.637-.541c3.479.192 7.078 1.441 10.557 3.878 5.216 3.652 10.148 9.996 13.777 19.356 3.63 9.356 5.953 21.715 5.982 37.319l.001.375c.005 20.633-3.328 35.26-8.716 44.585-2.692 4.666-5.881 8.01-9.424 10.196Zm38.362-32.054c-.637 1.904-1.365 3.617-2.106 5.052-.739 1.434-1.496 2.593-2.158 3.371a1.3 1.3 0 0 0-.295 1.023l.144 1.028a808.24 808.24 0 0 1 1.87 14.415c.742 6.197 1.418 12.738 1.48 16.201.003.191.052.367.129.529.044.376.233.73.577.948v.001s.093.06.233.172c.21.167.515.452.732.769.223.323.345.644.344.951-.002.198-.041.413-.193.707-.057.109-.166.23-.365.354-.291.187-.757.332-1.135.4a5.123 5.123 0 0 1-.468.065l-.126.01-.026.001v.001a1.296 1.296 0 0 0-1.249 1.123h-.001a5.03 5.03 0 0 1-.319 1.117 2.67 2.67 0 0 1-.403.685c-.148.171-.273.252-.395.291-.161.05-.303.07-.441.07-.235 0-.476-.058-.726-.17-.372-.164-.742-.453-.999-.703a4.409 4.409 0 0 1-.295-.314l-.069-.084-.012-.015h-.001a1.302 1.302 0 0 0-1.624-.387l-.001-.001c-.004.01-.718.326-1.368.315-.337-.001-.633-.066-.895-.225-.344-.214-.504-.417-.62-.646-.112-.229-.169-.509-.169-.839-.004-.526.16-1.149.341-1.617a6.27 6.27 0 0 1 .245-.562l.075-.146.017-.032a1.28 1.28 0 0 0 .162-.538c.12-.318.121-.68-.035-1.012-1.593-3.403-3.979-8.603-6.264-15.456a1.3 1.3 0 0 0-2.466.823c.134.403.27.782.405 1.174-3.165 1.162-6.311 1.763-9.173 1.763a17.68 17.68 0 0 1-4.23-.492c3.641-3.746 6.693-8.857 9.019-15.388 3.35-9.406 5.23-21.777 5.232-37.46l-.001-.378c-.016-7.944-.615-15.088-1.682-21.463 3.776 1.525 7.347 3.688 10.53 6.703 3.489 3.306 6.522 7.632 8.837 13.287 1.511 3.693 2.126 7.634 2.126 11.499.001 4.695-.912 9.271-2.188 13.08Zm16.457-21.437c-1.294 1.991-2.882 3.401-4.499 4.315-1.616.914-3.265 1.325-4.637 1.323-1.007.001-1.855-.222-2.44-.565-.079-.046-.165-.056-.247-.084-.236-2.603-.762-5.223-1.662-7.776a7.31 7.31 0 0 0 1.949.273c2.173.006 4.44-.975 6.04-3.004 1.871-2.362 2.451-4.962 2.446-7.145 0-1.518-.268-2.851-.566-3.861a3.803 3.803 0 0 1-.137-1.053c-.006-.725.188-1.512.5-1.988.155-.241.325-.407.511-.518.188-.108.401-.179.734-.181.274 0 .632.056 1.082.218.512.184.997.522 1.46 1.043.692.777 1.298 1.968 1.709 3.424.413 1.454.637 3.163.637 4.956.005 3.66-.942 7.654-2.88 10.623Z"/><path fill="#191C22" d="M87.13 179.717c-.538-1.447-1.007-2.859-1.186-4.05a1.301 1.301 0 0 0-2.572.011c-.224 1.601-.984 3.51-1.728 5.376-.371.937-.736 1.867-1.017 2.779-.28.914-.484 1.809-.486 2.716 0 .198.01.397.033.596.136 1.148.585 2.226 1.349 3.061a4.219 4.219 0 0 0 3.136 1.394 4.399 4.399 0 0 0 3.185-1.369 4.746 4.746 0 0 0 1.308-3.218v-.097c-.002-.936-.198-1.873-.472-2.831-.413-1.433-1.013-2.918-1.55-4.368ZM84.66 189c-.507-.007-.874-.187-1.222-.553-.34-.366-.605-.941-.68-1.604a2.528 2.528 0 0 1-.016-.294c-.003-.49.129-1.172.37-1.951.36-1.172.95-2.557 1.51-4.011l.031-.081c.198.536.4 1.066.594 1.585.362.962.698 1.884.936 2.712.239.827.373 1.562.37 2.113v.058a2.144 2.144 0 0 1-.584 1.457 1.8 1.8 0 0 1-1.31.569ZM48.72 150.411c-.474-1.271-.883-2.507-1.037-3.536a1.3 1.3 0 0 0-2.572.011c-.192 1.382-.856 3.055-1.513 4.7-.326.825-.649 1.647-.9 2.458-.247.812-.432 1.613-.434 2.438 0 .179.01.36.03.541.123 1.04.53 2.02 1.228 2.783a3.87 3.87 0 0 0 2.876 1.277 4.03 4.03 0 0 0 2.917-1.252 4.331 4.331 0 0 0 1.194-2.939V156.804c-.001-.846-.178-1.684-.421-2.535-.367-1.273-.897-2.583-1.369-3.858Zm-2.322 8.072c-.403-.006-.68-.143-.962-.436-.273-.294-.496-.769-.56-1.325l-.012-.24c-.003-.408.109-.995.32-1.673.287-.937.747-2.044 1.204-3.212.128.341.257.682.38 1.014.32.846.614 1.654.821 2.376.209.721.323 1.356.32 1.817v.049a1.73 1.73 0 0 1-.47 1.177c-.282.29-.633.452-1.04.453ZM136.815 169.82c-.481-1.294-.899-2.554-1.056-3.603a1.301 1.301 0 0 0-2.572.01c-.197 1.411-.873 3.116-1.541 4.789-.333.839-.661 1.676-.915 2.5-.252.826-.439 1.639-.442 2.474 0 .182.01.365.031.548.125 1.055.537 2.047 1.243 2.82a3.92 3.92 0 0 0 2.911 1.293 4.087 4.087 0 0 0 2.952-1.268 4.395 4.395 0 0 0 1.21-2.976v-.088c-.002-.858-.181-1.709-.428-2.574-.373-1.294-.913-2.627-1.393-3.925Zm-2.341 8.231c-.416-.007-.706-.149-.996-.453-.282-.302-.511-.792-.576-1.362a2.287 2.287 0 0 1-.013-.246c-.003-.418.112-1.018.327-1.709.297-.97.776-2.118 1.248-3.327.138.367.276.732.409 1.089.325.861.625 1.685.836 2.42.213.735.329 1.383.327 1.856v.048a1.788 1.788 0 0 1-.486 1.215c-.292.3-.655.467-1.076.469Z"/></svg>