<svg width="200" height="200" viewBox="0 0 200 200" xmlns="http://www.w3.org/2000/svg"><g id="type=saved, mode=dark"><g id="saved-cat"><g id="Group 432527051"><path id="Vector" d="M105.578 26.6348L111.744 37.8096C112.091 38.4383 112.882 38.6666 113.51 38.3199C114.139 37.973 114.367 37.1822 114.02 36.5535L107.854 25.3787C107.508 24.7501 106.717 24.5218 106.088 24.8685C105.459 25.2154 105.231 26.0062 105.578 26.6348Z"/><path id="Vector_2" d="M78.2915 144.995C78.4082 144.996 78.5244 144.996 78.6392 144.996C80.6407 144.996 82.5728 144.873 84.4317 144.63C85.1431 144.537 85.6446 143.884 85.5518 143.172C85.4585 142.46 84.8057 141.959 84.0943 142.052C82.3535 142.28 80.5342 142.396 78.6392 142.396C78.5279 142.396 78.418 142.396 78.3081 142.395C77.5904 142.391 77.0044 142.969 77 143.687C76.9952 144.405 77.5738 144.991 78.2915 144.996V144.995Z"/><path id="Vector_3" d="M117.919 156.274C117.24 156.04 116.5 156.4 116.266 157.079C114.909 161.023 114.04 165.496 114.033 165.526C113.947 165.963 114.091 166.41 114.413 166.717L114.413 166.717L114.454 166.759C114.553 166.861 114.805 167.146 115.008 167.498C115.215 167.85 115.355 168.252 115.351 168.581C115.343 168.864 115.289 169.115 115 169.484C114.911 169.598 114.727 169.721 114.427 169.808C114.133 169.896 113.757 169.932 113.44 169.93C113.233 169.93 113.05 169.917 112.926 169.905L112.787 169.888L112.76 169.884L112.758 169.884V169.884C112.058 169.766 111.396 170.233 111.266 170.929L111.264 170.929L111.246 171.004C111.203 171.186 111.046 171.647 110.789 171.978C110.661 172.146 110.517 172.281 110.355 172.377C110.191 172.472 110.009 172.538 109.728 172.555L109.611 172.558C109.246 172.556 108.981 172.472 108.737 172.34C108.376 172.146 108.069 171.804 107.868 171.494C107.768 171.341 107.694 171.201 107.649 171.107L107.604 171.006L107.597 170.989L107.595 170.99C107.36 170.361 106.683 170.014 106.036 170.191L106.035 170.19L105.976 170.203C105.853 170.231 105.547 170.286 105.203 170.285C104.946 170.286 104.67 170.255 104.428 170.182C104.184 170.109 103.978 170.001 103.799 169.837C103.574 169.628 103.455 169.443 103.377 169.262C103.301 169.08 103.267 168.892 103.266 168.675C103.257 168.15 103.524 167.448 103.84 166.912C103.995 166.643 104.154 166.415 104.269 166.261L104.404 166.088L104.436 166.049L104.441 166.043L104.44 166.043C104.649 165.803 104.748 165.491 104.746 165.175H104.761V165.167V165.161C104.761 164.829 104.77 163.412 104.788 161.935C104.805 160.463 104.834 158.891 104.869 158.333C104.912 157.616 104.367 157 103.65 156.957C102.934 156.913 102.317 157.459 102.274 158.175V158.175C102.232 158.87 102.207 160.407 102.188 161.903C102.174 163.04 102.166 164.126 102.163 164.738C102.001 164.956 101.797 165.25 101.588 165.613C101.156 166.374 100.675 167.416 100.666 168.675C100.666 169.187 100.755 169.735 100.98 170.269C101.203 170.803 101.561 171.313 102.039 171.751C102.552 172.223 103.136 172.511 103.685 172.674C104.236 172.837 104.756 172.884 105.203 172.885C105.368 172.884 105.514 172.874 105.659 172.863C105.785 173.061 105.937 173.274 106.122 173.493C106.458 173.887 106.903 174.3 107.488 174.621C108.071 174.942 108.799 175.16 109.611 175.158L109.844 175.152L109.858 175.152C110.673 175.114 111.394 174.835 111.938 174.447C112.752 173.867 113.193 173.116 113.457 172.529C113.938 172.527 114.526 172.486 115.155 172.305C115.783 172.121 116.484 171.779 117.022 171.119C117.67 170.328 117.958 169.403 117.951 168.581C117.943 167.424 117.477 166.515 117.065 165.883C116.941 165.697 116.824 165.541 116.712 165.402C116.997 164.061 117.739 160.78 118.724 157.927C118.958 157.248 118.598 156.508 117.919 156.274Z"/><path id="Vector_4" d="M96.2542 78.6728C96.283 78.6745 96.3582 78.678 96.4964 78.678C97.3235 78.6762 100.344 78.5473 108.737 76.959C109.443 76.8254 109.906 76.1455 109.773 75.4402C109.639 74.7346 108.959 74.2712 108.254 74.4048C99.9529 75.9783 97.0403 76.0798 96.4964 76.0781L96.4041 76.0771L96.4036 76.0952L96.4046 76.0774L96.4041 76.0771L96.4036 76.0952L96.4046 76.0774C95.6878 76.0356 95.073 76.5832 95.0315 77.3C94.99 78.0166 95.5374 78.6313 96.2542 78.6731V78.6728Z"/><path id="Vector_5" d="M179.925 82.4233C179.485 81.3723 178.931 80.4277 178.236 79.6414C177.543 78.8572 176.696 78.2288 175.71 77.8745C175.028 77.6292 174.374 77.5027 173.748 77.5027C172.99 77.5002 172.277 77.6965 171.69 78.0466C170.802 78.5732 170.232 79.3865 169.889 80.2195C169.544 81.0591 169.403 81.9451 169.402 82.7903C169.403 83.417 169.481 84.0208 169.646 84.5818C169.887 85.3955 170.105 86.4963 170.105 87.7046C170.1 89.456 169.668 91.3994 168.22 93.2358C167.097 94.6475 165.635 95.2473 164.219 95.2532C162.71 95.2515 161.303 94.5498 160.501 93.3274C160.471 93.283 160.426 93.2583 160.393 93.2185C158.157 88.6814 155.415 84.989 152.312 82.0505C148.545 78.4805 144.266 76.0061 139.798 74.3647C139.124 74.1172 138.376 74.4629 138.129 75.137C137.882 75.8108 138.227 76.5581 138.901 76.8057V76.8054C143.083 78.3428 147.034 80.6328 150.524 83.9377C154.012 87.2441 157.045 91.5701 159.36 97.2258C160.871 100.918 161.486 104.86 161.486 108.724C161.487 113.419 160.574 117.995 159.298 121.804C158.66 123.708 157.933 125.421 157.192 126.856C156.453 128.291 155.695 129.449 155.033 130.228C154.793 130.511 154.686 130.883 154.738 131.251C154.738 131.252 154.79 131.618 154.882 132.279C155.203 134.59 156.01 140.488 156.752 146.693C157.494 152.89 158.17 159.431 158.232 162.894C158.236 163.085 158.285 163.262 158.362 163.425C158.407 163.8 158.596 164.153 158.94 164.371L158.939 164.372C158.939 164.372 159.032 164.432 159.172 164.544C159.382 164.711 159.686 164.995 159.903 165.313C160.126 165.635 160.249 165.956 160.247 166.264C160.245 166.462 160.206 166.678 160.054 166.972C159.997 167.081 159.888 167.202 159.69 167.326C159.399 167.513 158.934 167.657 158.556 167.725C158.367 167.76 158.2 167.78 158.087 167.791L157.962 167.8L157.936 167.801V167.802C157.299 167.82 156.772 168.294 156.686 168.925H156.685C156.686 168.935 156.594 169.509 156.365 170.042C156.254 170.308 156.109 170.56 155.963 170.728C155.815 170.899 155.691 170.979 155.569 171.018C155.407 171.068 155.265 171.088 155.127 171.088C154.892 171.088 154.651 171.03 154.402 170.918C154.029 170.754 153.659 170.465 153.403 170.215C153.274 170.09 153.172 169.978 153.107 169.901L153.038 169.817L153.026 169.802L153.025 169.802C152.65 169.296 151.963 169.133 151.4 169.415L151.4 169.414L151.392 169.418V169.418C151.347 169.445 150.662 169.74 150.032 169.73C149.695 169.728 149.4 169.663 149.138 169.504C148.793 169.29 148.633 169.087 148.517 168.858C148.405 168.629 148.348 168.348 148.347 168.018C148.344 167.492 148.508 166.869 148.689 166.402C148.778 166.168 148.868 165.972 148.933 165.84L149.008 165.693L149.025 165.662L149.026 165.662C149.124 165.491 149.171 165.309 149.187 165.125C149.307 164.807 149.308 164.445 149.153 164.114C147.56 160.709 145.174 155.509 142.889 148.656C142.662 147.975 141.925 147.607 141.245 147.834C140.564 148.062 140.195 148.798 140.423 149.479L140.423 149.479C140.557 149.883 140.693 150.261 140.828 150.654C137.663 151.815 134.518 152.416 131.656 152.416C129.729 152.416 127.931 152.147 126.337 151.615C125.655 151.388 124.919 151.757 124.692 152.438C124.465 153.119 124.833 153.855 125.515 154.082C127.416 154.715 129.488 155.016 131.656 155.016C134.867 155.015 138.289 154.351 141.698 153.104C143.511 158.045 145.279 161.958 146.577 164.741C146.486 164.929 146.374 165.176 146.259 165.477C146.013 166.13 145.751 167.01 145.748 168.018C145.747 168.645 145.856 169.333 146.181 169.999C146.502 170.664 147.049 171.281 147.785 171.725C148.544 172.187 149.348 172.331 150.032 172.33C150.652 172.324 151.187 172.218 151.61 172.097C151.741 172.223 151.889 172.357 152.057 172.493C152.403 172.773 152.828 173.062 153.34 173.292C153.85 173.52 154.455 173.688 155.127 173.688C155.525 173.688 155.939 173.628 156.351 173.498L156.354 173.497C157.059 173.274 157.596 172.832 157.976 172.373C158.548 171.678 158.836 170.926 159.019 170.339C159.025 170.318 159.028 170.301 159.035 170.28C159.225 170.244 159.433 170.198 159.653 170.137C160.093 170.013 160.583 169.832 161.066 169.532C161.546 169.234 162.032 168.799 162.357 168.179C162.691 167.546 162.849 166.883 162.847 166.264C162.848 165.582 162.664 164.97 162.415 164.465C162.038 163.706 161.526 163.161 161.112 162.783C161.009 162.69 160.912 162.608 160.823 162.535C160.767 160.437 160.535 157.548 160.214 154.322C159.322 145.396 157.753 134.03 157.389 131.434C158.103 130.513 158.813 129.384 159.503 128.049C161.92 123.354 164.08 116.273 164.086 108.724C164.086 108.552 164.078 108.379 164.075 108.206C164.866 108.466 165.721 108.604 166.62 108.605C168.497 108.603 170.554 108.063 172.535 106.946C174.515 105.828 176.416 104.123 177.935 101.785C180.221 98.2532 181.23 93.836 181.235 89.7439C181.233 87.0676 180.801 84.5264 179.925 82.4233ZM175.755 100.368C174.461 102.359 172.874 103.768 171.257 104.682C169.641 105.597 167.992 106.007 166.62 106.005C165.612 106.007 164.764 105.783 164.179 105.44C164.101 105.394 164.014 105.384 163.931 105.356C163.696 102.753 163.17 100.133 162.27 97.5798C162.903 97.7546 163.557 97.8535 164.219 97.853C166.393 97.8589 168.659 96.8782 170.259 94.8489C172.13 92.488 172.709 89.8879 172.705 87.7046C172.704 86.1865 172.437 84.8533 172.139 83.8437C172.056 83.5688 172.001 83.1902 172.002 82.7903C171.996 82.0649 172.19 81.2778 172.503 80.8022C172.657 80.5608 172.827 80.3948 173.013 80.2844C173.201 80.1758 173.414 80.105 173.748 80.1025C174.022 80.1025 174.379 80.1582 174.83 80.3208C175.341 80.5051 175.826 80.8433 176.289 81.3645C176.981 82.1418 177.587 83.3328 177.998 84.7881C178.411 86.2419 178.635 87.9516 178.635 89.7439C178.64 93.4045 177.693 97.398 175.755 100.368Z"/><path id="Vector_6" d="M131.303 51.6892C128.221 46.498 124.636 42.5808 120.809 39.8979C116.983 37.2153 112.908 35.772 108.903 35.5527C108.258 35.5164 107.619 35.4995 106.99 35.4995C99.3933 35.4976 92.927 38.0325 87.9665 41.76C83.0037 45.4905 79.5227 50.3943 77.8054 55.2332C77.5657 55.9099 77.9202 56.6531 78.5969 56.8928C79.2737 57.1323 80.0168 56.7781 80.2566 56.1013V56.1011C81.782 51.7835 84.9748 47.2534 89.5276 43.8391C94.0837 40.4219 99.9758 38.1013 106.99 38.0994C107.573 38.0994 108.162 38.1152 108.759 38.1487C112.239 38.3406 115.838 39.5903 119.317 42.0271C124.532 45.6792 129.464 52.0232 133.094 61.3826C136.723 70.7388 139.046 83.0984 139.076 98.7019C139.076 98.8255 139.076 98.9509 139.076 99.0769C139.081 119.71 135.748 134.337 130.36 143.662C127.668 148.328 124.479 151.672 120.936 153.858C117.391 156.042 113.479 157.087 109.243 157.09C108.604 157.09 107.955 157.065 107.3 157.018C101.573 156.594 97.0891 154.793 93.5422 152.287C90.3977 150.063 87.9934 147.267 86.1873 144.358C94.2346 142.933 100.827 139.091 105.531 133.102C110.579 126.687 113.463 117.894 114.005 107.095C114.106 105.079 114.156 103.079 114.156 101.105C114.155 93.4002 113.4 86.0891 111.995 79.7371C110.585 73.3845 108.539 67.991 105.866 64.0913C105.481 63.5303 104.738 63.3826 104.157 63.7139C103.526 63.7542 102.95 63.9949 102.492 64.3299C101.734 64.8875 101.197 65.6553 100.754 66.5169C100.315 67.3806 99.9851 68.3523 99.762 69.3531C99.6062 70.0506 99.4993 70.7134 99.428 71.3294C99.3455 72.0425 99.8567 72.6878 100.57 72.7703C101.283 72.8526 101.928 72.3413 102.011 71.6282C102.073 71.0955 102.165 70.522 102.3 69.9182C102.537 68.8357 102.95 67.7984 103.398 67.1297C103.619 66.7942 103.847 66.5569 104.018 66.4349C104.101 66.3767 104.16 66.347 104.209 66.3274C106.385 69.7742 108.196 74.5914 109.456 80.2991C110.814 86.4319 111.556 93.5711 111.555 101.106C111.555 103.036 111.508 104.992 111.408 106.964C110.885 117.384 108.113 125.621 103.489 131.494C98.8577 137.363 92.3782 140.954 84.093 142.052C83.3811 142.146 82.8796 142.798 82.9734 143.511C82.9924 143.656 83.0486 143.785 83.1101 143.91C83.114 144.119 83.1506 144.329 83.2605 144.523C85.2776 148.094 88.1248 151.639 92.0408 154.41C95.9539 157.182 100.936 159.159 107.111 159.611C107.826 159.663 108.537 159.69 109.243 159.69C113.909 159.693 118.34 158.517 122.302 156.071C128.252 152.399 133.097 145.933 136.445 136.536C139.794 127.13 141.674 114.759 141.676 99.077C141.676 98.9512 141.676 98.8253 141.676 98.6995C141.633 77.5542 137.465 62.0752 131.303 51.6892Z"/><path id="Vector_7" d="M106.717 9C105.999 9 105.417 9.58179 105.417 10.2998V25.4517C104.723 26.6787 101.956 31.5938 99.0664 36.9768C97.272 40.332 95.9038 44.992 95.8984 49.8413C95.8975 53.9273 96.8911 58.1755 99.5615 61.7293C101.74 64.6287 103.75 65.5757 103.911 65.646C104.565 65.9397 105.334 65.6467 105.628 64.992C105.921 64.3403 105.631 63.5769 104.983 63.28L104.984 63.2781C104.932 63.2515 103.403 62.5103 101.64 60.167C99.3901 57.1768 98.499 53.5198 98.498 49.8413C98.4927 45.4942 99.769 41.156 101.357 38.2063C103.017 35.114 104.641 32.1697 105.848 29.9995C106.452 28.9146 106.952 28.0227 107.301 27.4029C107.65 26.7827 107.847 26.4365 107.847 26.4356C107.959 26.2378 108.017 26.021 108.017 25.794V10.2998C108.017 9.58179 107.435 9 106.717 9Z"/><path id="Vector_8" d="M88.6812 184.086C88.2681 182.653 87.6675 181.168 87.1309 179.717C86.5928 178.27 86.1235 176.858 85.9448 175.667C85.8481 175.031 85.2979 174.56 84.6543 174.563C84.0107 174.565 83.4644 175.041 83.373 175.678C83.1484 177.279 82.3887 179.188 81.6436 181.055C81.2729 181.992 80.9082 182.922 80.627 183.834C80.3477 184.748 80.1431 185.643 80.1406 186.551C80.1406 186.748 80.1509 186.947 80.1743 187.145C80.3101 188.293 80.7598 189.372 81.5234 190.207C82.2793 191.041 83.4033 191.607 84.6597 191.6C85.9102 191.602 87.0474 191.067 87.8452 190.232C88.6465 189.397 89.1338 188.255 89.1528 187.013V186.981V186.916C89.1509 185.98 88.9541 185.043 88.6812 184.086ZM84.6597 189C84.1523 188.993 83.7852 188.813 83.4375 188.447C83.0981 188.082 82.8325 187.507 82.7563 186.842C82.7461 186.753 82.7402 186.656 82.7402 186.551C82.7378 186.06 82.8696 185.378 83.1118 184.599C83.4712 183.427 84.0601 182.042 84.6221 180.588C84.6328 180.561 84.6426 180.533 84.6528 180.506C84.8511 181.042 85.0522 181.572 85.2461 182.092C85.6084 183.053 85.9443 183.975 86.1821 184.803C86.4214 185.631 86.5552 186.365 86.5532 186.916V186.973C86.5439 187.557 86.3164 188.069 85.9692 188.431C85.6182 188.793 85.1728 188.998 84.6597 189Z"/><path id="Vector_9" d="M59.9795 63.3349L59.98 63.3318C59.9678 63.3303 59.9653 63.3315 59.9541 63.3303C59.9487 63.3298 59.9439 63.3279 59.9385 63.3274L59.938 63.3296C59.8628 63.3227 59.792 63.3193 59.7588 63.3193C58.7368 63.3193 57.8726 64.0854 57.7549 65.115L57.7515 65.1145C57.75 65.1272 57.751 65.1309 57.75 65.1426C57.7495 65.1489 57.7471 65.1548 57.7466 65.1611L57.749 65.1614C57.7422 65.2334 57.7383 65.301 57.7383 65.3415C57.7388 66.3816 58.5288 67.2571 59.5801 67.3528L59.6064 67.355L59.7607 67.3606C60.7993 67.3601 61.6763 66.5715 61.772 65.5195L61.7744 65.4902L61.7793 65.3398C61.7798 64.3176 61.0122 63.4504 59.9795 63.3349ZM59.7373 65.3388V65.3391L59.1821 65.2898L59.7373 65.3388Z"/><path id="Vector_10" d="M78.5488 142.663C77.8794 142.403 77.1264 142.734 76.8662 143.403C75.3955 147.195 74.2138 152.57 73.3715 157.046C72.5337 161.517 72.0522 165.063 72.0503 165.077C71.9843 165.559 72.1972 166.04 72.5962 166.318L72.5957 166.319L72.6538 166.363C72.7881 166.465 73.1245 166.752 73.3877 167.11C73.6582 167.472 73.8257 167.866 73.8213 168.213C73.8188 168.427 73.7754 168.652 73.5962 168.965C73.538 169.065 73.4336 169.173 73.2495 169.283C72.9785 169.449 72.5468 169.576 72.1733 169.634C71.7998 169.696 71.4887 169.7 71.4458 169.7L71.3813 169.701C70.8032 169.719 70.3115 170.114 70.166 170.674L70.165 170.673C70.165 170.674 70.1367 170.781 70.0742 170.943C69.9829 171.187 69.8095 171.545 69.5996 171.803C69.4956 171.933 69.3857 172.037 69.2832 172.108C69.1792 172.179 69.0879 172.219 68.9819 172.241C68.8696 172.263 68.7573 172.274 68.6425 172.274C68.1333 172.281 67.4926 172.042 67.0039 171.76C66.7597 171.622 66.5542 171.481 66.416 171.378L66.2627 171.26L66.2299 171.233L66.2295 171.232C65.8462 170.896 65.2983 170.815 64.8344 171.027L64.8335 171.027C64.7578 171.064 64.1528 171.286 63.5742 171.28C63.1948 171.279 62.8603 171.202 62.5786 171.013C62.2631 170.797 62.1123 170.598 62.0068 170.383C61.9038 170.167 61.8525 169.913 61.852 169.612C61.8476 169.083 62.0346 168.436 62.2441 167.948C62.3471 167.703 62.4516 167.498 62.5273 167.359L62.6152 167.204L62.6352 167.171L62.6357 167.17C62.8061 166.903 62.8735 166.582 62.8247 166.269C62.6914 165.422 62.4751 163.422 62.2983 160.837C62.1206 158.246 61.9785 155.046 61.9785 151.721C61.978 147.954 62.1626 144.023 62.6723 140.653C62.7729 139.986 62.3388 139.379 61.6982 139.217C61.5698 139.07 61.417 138.942 61.2241 138.863C54.1538 135.961 47.2456 131.058 40.8715 123.163C40.6748 122.919 40.4795 122.663 40.2837 122.413C40.8076 121.837 41.2754 121.333 41.6635 120.921C42.0678 120.492 42.3891 120.159 42.6079 119.934C42.7182 119.822 42.8022 119.736 42.8579 119.679L42.9409 119.596C43.4487 119.089 43.4487 118.266 42.9419 117.757C42.435 117.249 41.6118 117.249 41.103 117.756C41.0918 117.769 40.1469 118.715 38.6894 120.304C38.0888 119.477 37.4951 118.617 36.9062 117.731C37.5542 117.273 38.2129 116.814 38.8842 116.354C39.476 115.948 39.6264 115.139 39.2212 114.546C38.8149 113.954 38.0063 113.804 37.4135 114.209C36.7646 114.654 36.1284 115.099 35.5005 115.542C34.9965 114.729 34.4956 113.9 34.0014 113.041C34.8169 112.694 35.6337 112.355 36.4506 112.036C37.1196 111.776 37.4506 111.022 37.1899 110.353C36.9292 109.685 36.1753 109.353 35.5073 109.615H35.5063C34.5791 109.977 33.6518 110.359 32.7309 110.754C29.5141 104.785 26.5278 97.7662 23.854 89.5257C22.851 86.4398 21.9047 81.9908 21.0976 77.5445L32.5678 82.7415C33.0366 82.9525 33.5854 82.8695 33.9692 82.5277C33.9702 82.5277 34.0786 82.43 34.2876 82.2474C35.018 81.6087 36.9331 79.9574 39.2456 78.1331C41.5561 76.3099 44.2768 74.3128 46.5581 73.0042C46.9116 72.8011 47.1489 72.4456 47.2006 72.0403L49.6089 53.0335L55.1225 58.0179C55.6548 58.4993 56.477 58.4583 56.9585 57.9261C57.4399 57.3939 57.3989 56.5716 56.8667 56.0901L49.5053 49.4349C49.145 49.1087 48.6362 49.011 48.1811 49.179C47.726 49.348 47.4047 49.7532 47.3432 50.2357L44.7002 71.087C42.0058 72.7059 39.0346 74.9593 36.6508 76.8763C34.9863 78.2164 33.6303 79.3756 32.8789 80.0272L19.9243 74.1575C19.4858 73.9593 18.9741 74.0189 18.5932 74.3128C18.2124 74.6068 18.0249 75.0872 18.1069 75.5618C19.0092 80.8216 20.1157 86.4202 21.3813 90.3275C24.0708 98.6151 27.0825 105.722 30.3486 111.811C21.3842 115.916 13.6342 120.854 13.602 120.872C12.9965 121.257 12.8178 122.061 13.2036 122.667C13.5883 123.273 14.3921 123.451 14.9985 123.066L15.1167 122.991C16.122 122.356 23.4306 117.826 31.6103 114.096C32.1933 115.116 32.7851 116.099 33.3828 117.058C24.3623 123.621 18.1557 129.393 18.1294 129.417C17.604 129.907 17.5737 130.729 18.063 131.255C18.5522 131.781 19.3745 131.811 19.9008 131.322L19.9878 131.241C20.7617 130.528 26.601 125.221 34.7934 119.25C35.4926 120.298 36.2007 121.308 36.9174 122.281C34.1582 125.421 30.4965 129.898 27.3647 134.79C26.977 135.396 27.1538 136.2 27.7592 136.587C28.3637 136.974 29.1674 136.797 29.5542 136.193V136.192C32.4008 131.741 35.7573 127.577 38.396 124.538C38.4419 124.486 38.4829 124.44 38.5283 124.388C38.6352 124.523 38.7407 124.663 38.8481 124.796C45.3925 132.909 52.5991 138.086 59.9907 141.163C59.5483 144.506 59.3789 148.183 59.3784 151.721C59.3784 155.12 59.5229 158.373 59.7041 161.015C59.8623 163.31 60.0444 165.125 60.1914 166.218C60.0898 166.409 59.9716 166.646 59.8481 166.938C59.5634 167.622 59.2563 168.546 59.2519 169.612C59.2514 170.212 59.3574 170.867 59.6591 171.5C59.9575 172.134 60.4575 172.724 61.1294 173.171C61.9502 173.722 62.8393 173.881 63.5742 173.88C64.2016 173.876 64.7397 173.771 65.144 173.66C65.312 173.774 65.4995 173.896 65.7251 174.024C66.4424 174.423 67.4365 174.866 68.6425 174.873C68.9194 174.873 69.2031 174.847 69.4882 174.791L69.4931 174.79C70.165 174.656 70.7192 174.325 71.1323 173.954C71.7553 173.392 72.1118 172.751 72.3442 172.25C72.3471 172.243 72.3491 172.238 72.352 172.231C72.6089 172.198 72.8901 172.152 73.2055 172.072C73.6362 171.961 74.1089 171.795 74.5766 171.519C75.041 171.244 75.5107 170.843 75.8432 170.273C76.2387 169.598 76.4238 168.878 76.4214 168.213C76.4214 167.554 76.2514 166.962 76.021 166.469C75.6728 165.727 75.1977 165.183 74.812 164.803C74.7817 164.773 74.7558 164.751 74.7265 164.723C74.936 163.283 75.4712 159.773 76.2524 155.838C77.0464 151.832 78.1069 147.378 79.289 144.345C79.5494 143.676 79.2177 142.923 78.5488 142.663ZM71.4653 172.3V172.299V172.3Z"/><path id="Vector_11" d="M39.0557 105.784C39.3271 106.041 39.6279 106.231 39.9424 106.364C40.2568 106.496 40.583 106.573 40.9404 106.574C41.1689 106.574 41.4131 106.541 41.6738 106.441C41.9307 106.341 42.2109 106.16 42.4219 105.876L42.4258 105.871C42.7666 105.417 42.9619 104.851 42.957 104.316C42.9561 103.707 42.7373 103.19 42.4766 102.791C42.0772 102.188 41.5713 101.779 41.0869 101.47C40.8428 101.317 40.6045 101.193 40.3623 101.095C40.2412 101.046 40.1182 101.005 39.9834 100.97C39.8477 100.937 39.7031 100.908 39.499 100.906C39.3477 100.909 39.1543 100.917 38.8848 101.034C38.751 101.093 38.5996 101.187 38.4619 101.328C38.3301 101.459 38.2217 101.636 38.1567 101.814L38.1533 101.813C38.1514 101.819 38.1519 101.822 38.1494 101.829C38.148 101.833 38.145 101.837 38.1436 101.841L38.1465 101.842C38.0532 102.128 38.0537 102.299 38.0488 102.45C38.0508 102.733 38.0869 102.946 38.1172 103.123C38.1245 103.163 38.1299 103.188 38.1367 103.221C38.1284 103.323 38.1113 103.425 38.1113 103.526C38.1035 104.46 38.5098 105.279 39.0557 105.784Z"/><path id="Vector_12" d="M53.5693 89.062C53.5322 89.2329 53.5264 89.3628 53.5254 89.4829C53.5293 89.8511 53.5957 90.1694 53.6982 90.5288C53.8584 91.0591 54.1055 91.6372 54.5283 92.1802C54.7422 92.4497 55.0049 92.7134 55.3516 92.9263C55.6963 93.1382 56.1416 93.2915 56.6191 93.2896C57.0186 93.2905 57.4199 93.1851 57.7783 93.0044L57.7871 92.9995C58.2353 92.7671 58.4727 92.4028 58.5996 92.0972C58.7285 91.7827 58.7695 91.4859 58.7715 91.1909C58.7656 90.5405 58.5596 89.8628 58.0605 89.2583C57.6289 88.7266 56.915 88.3345 56.0986 88.229C56.043 88.2044 55.9897 88.1802 55.916 88.1509C55.8086 88.1079 55.6875 88.063 55.543 88.022C55.3945 87.9829 55.2383 87.937 54.9629 87.9331C54.8755 87.9331 54.7891 87.9412 54.709 87.9546V87.9536C54.708 87.9538 54.707 87.9546 54.7056 87.9548C54.7026 87.9553 54.6992 87.9551 54.6963 87.9556L54.6968 87.958C54.3853 88.0068 54.0889 88.1885 53.9238 88.3745C53.667 88.6636 53.6123 88.896 53.5693 89.062Z"/><path id="Vector_13" d="M52.4044 99.4155C52.2999 99.3832 52.2169 99.353 52.1662 99.3325L52.1164 99.311L52.1115 99.309L52.111 99.3103C51.6662 99.0976 51.1359 99.1542 50.7472 99.4594C50.3566 99.767 50.1749 100.274 50.2804 100.76C50.2843 100.771 50.2999 100.873 50.299 101.002C50.3029 101.357 50.2013 101.929 49.9572 102.359C49.8371 102.578 49.6886 102.765 49.5021 102.918C49.3146 103.071 49.089 103.197 48.7648 103.283C48.0695 103.462 47.6525 104.172 47.8331 104.868C48.0148 105.562 48.7238 105.98 49.4191 105.798C50.0158 105.645 50.5289 105.373 50.9679 105.048C51.2716 105.289 51.5875 105.517 51.9249 105.714C52.5304 106.064 53.2062 106.348 54.006 106.355C54.6574 106.365 55.381 106.11 55.9103 105.619C56.2941 105.273 56.5714 104.843 56.7355 104.404C56.9015 103.964 56.9621 103.519 56.9621 103.094C56.9542 102.228 56.7243 101.43 56.4108 100.729C56.7702 100.335 57.0919 99.8637 57.3488 99.3022C57.6496 98.6508 57.3664 97.8784 56.714 97.5776C56.0626 97.2758 55.2902 97.56 54.9894 98.2124C54.6876 98.854 54.3781 99.1401 54.0998 99.31C53.8195 99.477 53.5226 99.5376 53.2052 99.5386C52.9113 99.5395 52.6144 99.479 52.4044 99.4155ZM54.3019 103.487L54.1671 103.69C54.0753 103.759 54.0988 103.745 54.006 103.754C53.8996 103.761 53.6027 103.689 53.2355 103.469C53.0163 103.342 52.776 103.164 52.5314 102.967C52.5377 102.951 52.547 102.934 52.5529 102.917C52.6535 102.643 52.7218 102.377 52.7755 102.118C52.9132 102.13 53.0563 102.138 53.2052 102.139C53.4938 102.14 53.8092 102.105 54.1334 102.039C54.2746 102.42 54.3688 102.807 54.3624 103.094C54.3624 103.267 54.3361 103.398 54.3019 103.487Z"/><path id="Vector_14" d="M97.3135 103.183C96.2998 102.679 95.1514 101.765 94.0156 100.583C92.3066 98.811 90.6182 96.4507 89.2119 94.0562C88.9321 93.5808 88.6729 93.1052 88.4165 92.6309L88.4287 92.6245L88.4307 92.6235C90.3135 91.6353 91.3906 89.7075 91.3896 87.7192C91.3906 86.8608 91.1885 85.9849 90.7656 85.1753L90.5396 84.7424C92.2222 84.2986 93.6465 83.9517 94.708 83.7046C95.3936 83.5454 95.9307 83.4263 96.2949 83.3481C96.4775 83.3081 96.6162 83.2788 96.709 83.2603C96.8018 83.2407 96.8447 83.2319 96.8447 83.2319C97.5488 83.0903 98.0049 82.4048 97.8633 81.7007C97.7217 80.9975 97.0361 80.5415 96.333 80.6831C96.3115 80.6868 93.5537 81.2432 89.3047 82.3799L87.2573 78.4619C89.4263 77.1509 91.2549 76.1033 92.5742 75.3667C93.3076 74.9575 93.8848 74.644 94.2764 74.4331C94.4727 74.3276 94.623 74.2476 94.7236 74.1948C94.8232 74.1421 94.8711 74.1167 94.8721 74.1167C95.5088 73.7856 95.7568 73.0015 95.4258 72.3647C95.0947 71.7271 94.3106 71.479 93.6729 71.8101C93.6548 71.8193 90.6187 73.3967 86.0508 76.1528L83.895 72.0278C85.4097 70.7051 86.7334 69.5947 87.6982 68.8042C88.2441 68.3569 88.6787 68.0073 88.9756 67.771C89.124 67.6519 89.2383 67.562 89.3154 67.5015L89.4287 67.4116C89.9951 66.9712 90.0977 66.1548 89.6572 65.5884C89.2158 65.021 88.3994 64.9194 87.833 65.3608C87.8188 65.3706 85.6909 67.0271 82.6562 69.6567L75.3008 55.5816C74.3135 53.6968 72.3838 52.6196 70.3955 52.6206C69.5371 52.6196 68.6611 52.8218 67.8516 53.2456L55.2324 59.8403C53.3477 60.8276 52.2705 62.7573 52.2715 64.7456C52.2715 65.604 52.4736 66.48 52.8965 67.2886L68.3613 96.8823C69.3486 98.7661 71.2774 99.8433 73.2666 99.8433C73.8989 99.8433 74.5405 99.7319 75.1592 99.5051C75.6016 101.688 76.2676 104.344 77.2715 107.154C78.5166 110.634 80.2773 114.344 82.7881 117.636C85.2979 120.924 88.5771 123.8 92.8154 125.517C93.4805 125.787 94.2393 125.465 94.5088 124.8C94.7783 124.134 94.457 123.376 93.792 123.107C90.0645 121.596 87.1523 119.066 84.8555 116.058C81.4111 111.553 79.4014 105.982 78.2861 101.544C77.7256 99.3257 77.3857 97.3931 77.1875 96.022C77.0879 95.3355 77.0234 94.7905 76.9844 94.4194C76.9648 94.2339 76.9521 94.0933 76.9434 93.9995L76.9346 93.895L76.9326 93.8667C76.8896 93.2808 76.46 92.834 75.916 92.7114C75.73 92.5471 75.5112 92.418 75.2471 92.3821V92.3814L75.2422 92.3804V92.3806C75.2017 92.3777 74.4536 92.2483 73.8428 91.9136C73.5303 91.7466 73.2666 91.5376 73.1055 91.3208C72.9443 91.0982 72.8525 90.8892 72.8467 90.5142L72.8496 90.4312C72.8545 90.3071 72.9023 90.1519 73.0293 89.9546C73.2139 89.6626 73.5742 89.3335 73.8877 89.1128C74.0439 89.0005 74.1865 88.9116 74.2852 88.855L74.3945 88.7925L74.418 88.7808L74.4199 88.7798L74.4194 88.7788C74.7617 88.6055 75.0122 88.2878 75.0986 87.9145C75.186 87.5415 75.1021 87.1477 74.873 86.8413L74.874 86.8403C74.8643 86.8286 74.7051 86.605 74.5625 86.2905C74.418 85.978 74.3018 85.5816 74.3037 85.2446C74.3047 85.0503 74.3359 84.8765 74.4102 84.7007C74.4854 84.5249 74.6055 84.3384 74.8398 84.1245C75.1953 83.8159 75.4346 83.7602 75.7451 83.7495C76.1436 83.7417 76.6768 83.9487 77.0889 84.2065C77.2939 84.3315 77.4678 84.4604 77.583 84.5542L77.71 84.6606L77.7339 84.6817L77.7334 84.6821L77.7383 84.686L77.7388 84.6856C77.9961 84.9297 78.3364 85.0571 78.6904 85.0415C79.0469 85.0249 79.3755 84.8667 79.6108 84.5987L79.6113 84.5991C79.6455 84.5601 79.9482 84.2378 80.3447 83.9614C80.542 83.8237 80.7607 83.6978 80.9658 83.6157C81.1709 83.5327 81.3564 83.4946 81.5039 83.4946L81.6201 83.5034H81.624C82.0488 83.5679 82.2939 83.7027 82.5107 83.8902C82.8311 84.1675 83.082 84.6577 83.2246 85.2193C83.3691 85.7739 83.4023 86.3628 83.4014 86.7075C83.4014 86.814 83.3984 86.898 83.3965 86.9517L83.3936 87.0083L83.3931 87.0132H83.3926V87.0181H83.3931C83.3755 87.2402 83.4297 87.4448 83.5132 87.6353C83.498 87.8086 83.5146 87.9871 83.5732 88.1626C84.5244 90.9927 86.332 94.5982 88.5498 97.8765C89.6592 99.5142 90.8711 101.066 92.1426 102.386C93.417 103.707 94.7451 104.802 96.1514 105.509C96.793 105.83 97.5732 105.57 97.8955 104.927C98.2158 104.286 97.9561 103.504 97.3135 103.183ZM81.9854 80.9292H81.9883C81.8252 80.9058 81.6631 80.895 81.5039 80.895C80.9014 80.896 80.3643 81.0454 79.9053 81.2407C79.3545 81.477 78.9067 81.7793 78.5513 82.0586C78.5127 82.0342 78.4829 82.0115 78.4424 81.9868C77.7939 81.5972 76.8838 81.1577 75.7451 81.1499C74.8818 81.1401 73.8916 81.4614 73.0947 82.1978C72.6035 82.6401 72.2412 83.1528 72.0166 83.6831C71.791 84.2134 71.7041 84.7524 71.7041 85.2446C71.7075 86.0234 71.9077 86.6777 72.125 87.1941C72.0405 87.26 71.96 87.3171 71.8721 87.3921C71.5264 87.6909 71.1592 88.063 70.8477 88.5395C70.54 89.0132 70.2842 89.6128 70.252 90.313L70.2471 90.5141C70.2412 91.4741 70.585 92.3296 71.0742 92.9448C71.8144 93.8745 72.7715 94.3296 73.5166 94.604C73.8701 94.7307 74.1787 94.812 74.4189 94.8662C74.4717 95.3479 74.5571 96.0288 74.687 96.8723L74.6045 96.9155C74.1768 97.1382 73.7217 97.2427 73.2666 97.2427C72.207 97.2417 71.1807 96.6675 70.666 95.6782L55.2012 66.0845C54.9766 65.6548 54.8721 65.1997 54.8721 64.7456C54.8731 63.685 55.4453 62.6597 56.4365 62.145L69.0557 55.5503C69.4863 55.3257 69.9414 55.2202 70.3955 55.2202C71.4551 55.2212 72.4805 55.7944 72.9961 56.7856L88.4609 86.3804C88.6846 86.8091 88.79 87.2641 88.79 87.7192C88.7891 88.7698 88.2222 89.7859 87.2446 90.3054C86.7505 89.2378 86.335 88.2236 86.0381 87.3364C86.0259 87.2995 85.9976 87.2744 85.9824 87.2395C85.9824 87.2368 85.9844 87.2346 85.9844 87.2319L85.9834 87.2309C85.9863 87.2016 86.001 87.0093 86.001 86.7075C85.9971 86.0522 85.9434 84.8862 85.4443 83.6802C85.1924 83.0796 84.8154 82.4604 84.2373 81.9458C83.6631 81.4312 82.8838 81.0513 81.9854 80.9292Z"/><path id="Vector_15" d="M48.7207 150.411C48.2476 149.14 47.8379 147.904 47.6841 146.876C47.5874 146.24 47.0366 145.769 46.3936 145.771C45.75 145.774 45.2036 146.25 45.1123 146.887C44.9199 148.268 44.2563 149.941 43.6001 151.585C43.2729 152.41 42.9507 153.232 42.7007 154.043C42.4526 154.855 42.2681 155.656 42.2656 156.48C42.2656 156.66 42.2749 156.842 42.2964 157.024C42.4189 158.064 42.8252 159.043 43.5234 159.807C44.2129 160.569 45.2476 161.091 46.3989 161.084C47.5444 161.086 48.5874 160.596 49.3164 159.832C50.0493 159.068 50.4941 158.025 50.5112 156.892V156.858L50.5117 156.804C50.5093 155.958 50.3325 155.12 50.0898 154.269C49.7227 152.996 49.1924 151.686 48.7207 150.411ZM46.3989 158.484C45.9976 158.478 45.7192 158.342 45.4375 158.047C45.1646 157.754 44.9414 157.278 44.8789 156.722L44.8652 156.48C44.8628 156.073 44.9746 155.486 45.1855 154.808C45.4727 153.871 45.9326 152.765 46.3896 151.597C46.5176 151.938 46.6465 152.279 46.7705 152.611C47.0894 153.457 47.3838 154.265 47.5908 154.987C47.7998 155.708 47.9141 156.343 47.9116 156.804V156.853C47.9043 157.328 47.7197 157.74 47.4409 158.031C47.1582 158.321 46.8071 158.483 46.3989 158.484Z"/><path id="Vector_16" d="M138.209 173.746C137.836 172.451 137.297 171.118 136.817 169.82C136.335 168.526 135.917 167.267 135.761 166.217C135.664 165.581 135.114 165.11 134.471 165.112C133.827 165.115 133.28 165.59 133.189 166.227C132.992 167.638 132.316 169.342 131.647 171.015C131.315 171.854 130.987 172.691 130.732 173.515C130.48 174.341 130.293 175.154 130.291 175.989C130.291 176.172 130.301 176.356 130.322 176.539C130.447 177.593 130.859 178.585 131.565 179.358C132.264 180.13 133.311 180.657 134.476 180.651C135.635 180.652 136.689 180.156 137.427 179.383C138.169 178.611 138.619 177.555 138.638 176.409V176.374L138.638 176.32C138.636 175.461 138.457 174.611 138.209 173.746ZM134.476 178.051C134.06 178.044 133.77 177.902 133.479 177.599C133.198 177.296 132.969 176.806 132.904 176.237C132.896 176.162 132.891 176.079 132.891 175.989C132.888 175.571 133.002 174.971 133.218 174.28C133.515 173.31 133.994 172.163 134.466 170.954C134.603 171.321 134.742 171.686 134.875 172.043C135.199 172.905 135.5 173.728 135.711 174.464C135.924 175.198 136.041 175.846 136.038 176.32V176.367C136.03 176.856 135.839 177.282 135.552 177.583C135.26 177.882 134.896 178.049 134.476 178.051Z"/></g></g></g></svg>