<svg width="200" height="200" viewBox="0 0 200 200" xmlns="http://www.w3.org/2000/svg"><g id="type=love, mode=dark"><g id="Layer 15"><path id="Vector" d="M166.174 174.309C166.578 179.972 166.796 184.721 166.909 187.775C166.916 187.946 166.956 188.113 167.027 188.269C167.098 188.424 167.199 188.563 167.324 188.68C167.449 188.796 167.596 188.886 167.756 188.945C167.916 189.005 168.086 189.032 168.257 189.026C168.428 189.019 168.595 188.98 168.75 188.908C168.906 188.837 169.045 188.736 169.161 188.611C169.278 188.486 169.368 188.339 169.427 188.179C169.487 188.019 169.514 187.849 169.508 187.678C169.393 184.601 169.174 179.824 168.767 174.124C168.756 173.953 168.711 173.786 168.634 173.633C168.558 173.479 168.453 173.343 168.324 173.23C168.194 173.118 168.044 173.032 167.882 172.978C167.72 172.923 167.548 172.902 167.377 172.914C167.207 172.926 167.04 172.972 166.887 173.049C166.734 173.125 166.598 173.232 166.486 173.361C166.374 173.491 166.289 173.641 166.235 173.804C166.182 173.967 166.161 174.138 166.174 174.309L166.174 174.309Z"/><path id="Vector_2" d="M31.5782 70.8223L31.5794 70.7804C31.6187 69.7914 31.7111 68.8052 31.8563 67.826C32.0668 66.187 32.498 64.5839 33.1383 63.0604C33.5618 62.015 34.2248 61.0836 35.0737 60.341C35.5317 59.9468 36.1122 59.7237 36.7162 59.7099C37.0605 59.7121 37.4003 59.7883 37.7126 59.9333C38.0263 60.0749 38.3833 60.0864 38.7055 59.9652C39.0276 59.8439 39.2885 59.5999 39.431 59.2866C39.5735 58.9733 39.5859 58.6163 39.4655 58.2938C39.3451 57.9714 39.1018 57.7098 38.7889 57.5665C38.1386 57.2678 37.4318 57.1121 36.7162 57.1099C35.5278 57.1247 34.3799 57.5447 33.4625 58.3004C32.2883 59.2966 31.367 60.5571 30.7742 61.9783C29.9911 63.8283 29.4739 65.7797 29.2378 67.7747C29.0997 68.7673 29.0133 69.7665 28.9788 70.7682C28.9752 70.9389 29.0053 71.1086 29.0674 71.2676C29.1294 71.4267 29.2222 71.5719 29.3403 71.6952C29.4585 71.8184 29.5998 71.9171 29.7561 71.9857C29.9125 72.0543 30.0808 72.0914 30.2515 72.095C30.4222 72.0985 30.5919 72.0684 30.7509 72.0064C30.91 71.9444 31.0553 71.8516 31.1785 71.7334C31.3017 71.6153 31.4004 71.474 31.469 71.3176C31.5376 71.1613 31.5747 70.993 31.5783 70.8223L31.5782 70.8223Z"/><path id="Vector_3" d="M37.3541 64.1503C45.1261 46.3879 61.9782 32.3356 81.7045 27.1198C82.0361 27.0301 82.3188 26.8127 82.4906 26.5152C82.6625 26.2178 82.7096 25.8643 82.6217 25.5322C82.5337 25.2001 82.3179 24.9163 82.0214 24.7428C81.7248 24.5694 81.3717 24.5203 81.0391 24.6064C60.5622 30.0341 43.1106 44.5492 34.9725 63.1071C34.904 63.2635 34.867 63.4318 34.8635 63.6025C34.8601 63.7732 34.8903 63.9429 34.9524 64.1019C35.0146 64.2609 35.1074 64.4061 35.2257 64.5293C35.3439 64.6524 35.4853 64.751 35.6417 64.8195C35.7981 64.888 35.9664 64.9251 36.1371 64.9285C36.3078 64.9319 36.4775 64.9017 36.6365 64.8396C36.7955 64.7775 36.9407 64.6846 37.0638 64.5663C37.187 64.4481 37.2856 64.3067 37.3541 64.1504L37.3541 64.1503Z"/><path id="Vector_4" d="M113.994 130.645C108.865 131.328 103.695 131.664 98.5198 131.653C80.211 131.657 64.357 128.253 52.8716 121.442C47.3671 118.293 42.6516 113.932 39.0828 108.69C35.557 103.302 33.4446 97.1124 32.9404 90.6929C32.7932 89.0841 32.7201 87.486 32.7211 85.8983C32.7211 85.0328 32.7424 84.1712 32.785 83.3136C32.8009 82.9699 32.6799 82.634 32.4486 82.3794C32.2172 82.1248 31.8943 81.9722 31.5507 81.9552C31.2071 81.9382 30.8708 82.058 30.6154 82.2885C30.36 82.519 30.2064 82.8414 30.1882 83.1849C30.1436 84.0854 30.1212 84.9898 30.1211 85.8983C30.1211 87.5639 30.1978 89.2411 30.3512 90.9297C30.8951 97.7781 33.1527 104.38 36.9161 110.127C42.3595 118.333 50.818 124.371 61.3576 128.344C71.9026 132.319 84.5497 134.252 98.5198 134.253C103.811 134.264 109.098 133.92 114.343 133.222C114.683 133.173 114.99 132.992 115.197 132.718C115.404 132.445 115.494 132.1 115.448 131.76C115.402 131.42 115.223 131.112 114.951 130.903C114.679 130.694 114.335 130.601 113.994 130.645L113.994 130.645Z"/><path id="Vector_5" d="M153.946 50.1364C155.437 48.998 156.759 47.6535 157.872 46.1431C160.624 42.3639 162.1 37.8068 162.088 33.1322C162.1 30.0219 161.429 26.9469 160.122 24.1241C158.776 21.2253 156.722 18.7116 154.15 16.8143C150.654 14.2798 146.437 12.9332 142.119 12.9725C138.721 12.9521 135.365 13.7202 132.314 15.2163C129.263 16.7125 126.601 18.896 124.537 21.5951C123.411 23.1266 122.512 24.8123 121.867 26.6003C120.152 25.9613 118.412 25.3889 116.645 24.883C116.481 24.8358 116.309 24.8215 116.139 24.8409C115.969 24.8602 115.805 24.9128 115.656 24.9958C115.506 25.0787 115.375 25.1903 115.268 25.3241C115.162 25.4579 115.083 25.6114 115.036 25.7757C114.989 25.9401 114.975 26.112 114.995 26.2818C115.015 26.4516 115.067 26.6158 115.151 26.7651C115.234 26.9144 115.346 27.0458 115.48 27.1519C115.614 27.2579 115.767 27.3365 115.932 27.3832H115.932C129.333 31.2749 141.282 39.0476 150.271 49.721C159.009 60.132 164.338 72.8404 164.336 85.9368C164.336 87.5136 164.258 89.0956 164.101 90.6828C163.446 97.5558 160.857 104.102 156.634 109.564C156.529 109.7 156.453 109.854 156.409 110.019C156.364 110.184 156.353 110.356 156.375 110.526C156.397 110.695 156.453 110.859 156.538 111.007C156.624 111.155 156.738 111.284 156.873 111.388C157.009 111.492 157.164 111.568 157.329 111.613C157.494 111.657 157.666 111.668 157.835 111.645C158.005 111.623 158.168 111.567 158.316 111.482C158.464 111.396 158.593 111.282 158.697 111.146C163.214 105.3 165.985 98.2945 166.688 90.9398C166.854 89.2672 166.937 87.5995 166.936 85.9368C166.934 73.0016 162.017 60.5401 153.946 50.1364ZM124.285 27.5524C124.847 25.974 125.638 24.4864 126.631 23.1369C128.454 20.7668 130.801 18.8507 133.488 17.5385C136.174 16.2262 139.128 15.5534 142.119 15.5726C145.882 15.5333 149.559 16.7023 152.608 18.9079C154.831 20.5477 156.606 22.7208 157.768 25.2269C158.912 27.7045 159.499 30.403 159.488 33.1322C159.5 37.2521 158.201 41.2689 155.778 44.6016C154.799 45.9327 153.632 47.1157 152.315 48.114C152.297 48.0928 152.281 48.0708 152.263 48.0496C144.704 39.0849 135.111 32.0572 124.285 27.5523V27.5524Z"/><path id="Vector_6" d="M59.0494 87.9L58.4021 89.0274C61.3126 90.6273 64.5886 91.4444 67.9095 91.3988C72.1686 91.4134 76.3405 90.192 79.9191 87.8826C83.7662 85.3857 86.5258 81.5254 87.6435 77.0774C88.4399 73.9475 88.8418 70.7302 88.8399 67.5006C88.9084 62.9305 88.0099 58.3977 86.2033 54.1993C85.422 52.4327 84.3487 50.8103 83.0285 49.4001C81.8238 48.1073 80.3025 47.1511 78.6151 46.6262C77.492 46.3123 76.3299 46.1595 75.1638 46.1727C70.7375 46.1832 65.3192 47.9987 60.5459 51.4984C55.2945 55.254 51.6144 60.8161 50.2116 67.118C49.7911 69.0294 49.5735 70.9799 49.5622 72.937C49.4894 76.6491 50.5106 80.3006 52.4987 83.4363C53.9986 85.7391 56.0213 87.6548 58.4021 89.0275L59.0494 87.9L59.6965 86.7725C57.6733 85.6049 55.9541 83.9764 54.6786 82.0194C52.964 79.3057 52.0886 76.1462 52.1623 72.937C52.1735 71.1626 52.3719 69.3943 52.7542 67.6616C54.0236 61.9816 57.3473 56.9711 62.0866 53.5928C66.423 50.3911 71.4526 48.7621 75.1638 48.7726C76.0821 48.7599 76.9975 48.8772 77.8829 49.121C79.1386 49.5196 80.2684 50.2391 81.1605 51.2085C82.8876 53.1417 84.1516 55.443 84.8565 57.9378C85.7961 61.0376 86.2625 64.2615 86.2399 67.5005C86.2418 70.5124 85.8673 73.5126 85.1251 76.4315C84.1694 80.2545 81.7971 83.5716 78.4883 85.7117C75.334 87.7404 71.6598 88.8125 67.9095 88.7987C65.0429 88.8433 62.2135 88.1453 59.6965 86.7725L59.0494 87.9Z"/><path id="Vector_7" d="M137.8 87.9L137.153 86.7726C134.636 88.1454 131.806 88.8434 128.939 88.7987C125.189 88.8126 121.515 87.7404 118.36 85.7117C115.051 83.5717 112.679 80.2546 111.723 76.4316C110.981 73.5131 110.607 70.5133 110.609 67.5019C110.542 63.3066 111.359 59.1443 113.007 55.286C113.667 53.7865 114.573 52.4082 115.688 51.2087C116.58 50.2393 117.71 49.5197 118.966 49.1211C119.851 48.8772 120.766 48.7599 121.685 48.7727C125.396 48.7621 130.425 50.3912 134.762 53.5928C139.501 56.9711 142.825 61.9816 144.094 67.6616C144.476 69.3945 144.675 71.163 144.686 72.9376C144.76 76.1466 143.884 79.306 142.17 82.0196C140.894 83.9764 139.175 85.6049 137.153 86.7727L137.8 87.9L138.447 89.0274C140.828 87.6546 142.85 85.739 144.35 83.4365C146.338 80.3008 147.359 76.6495 147.286 72.9375C147.275 70.9802 147.057 69.0295 146.637 67.1179C145.234 60.816 141.554 55.2539 136.302 51.4984C131.529 47.9987 126.111 46.1832 121.685 46.1727C120.519 46.1595 119.357 46.3123 118.234 46.6263C116.546 47.1512 115.025 48.1074 113.82 49.4003C111.81 51.6224 110.336 54.276 109.512 57.1568C108.493 60.5097 107.986 63.9974 108.009 67.5018C108.007 70.731 108.408 73.9478 109.205 77.0773C110.323 81.5254 113.082 85.3857 116.93 87.8826C120.508 90.1919 124.68 91.4134 128.939 91.3987C132.26 91.4444 135.536 90.6273 138.447 89.0274L137.8 87.9Z"/><path id="Vector_8" d="M74.246 71.53C68.6728 71.6115 64.6054 76.2487 65.5165 78.9333C66.2655 81.1408 69.7714 81.1218 74.246 81.0407C78.7206 80.9592 81.4457 81.4553 81.7304 78.5671C81.9682 76.1569 78.7651 71.4641 74.246 71.53ZM73.8798 79.8283C73.2925 79.8284 72.7184 79.6543 72.23 79.328C71.7417 79.0018 71.361 78.538 71.1362 77.9954C70.9114 77.4529 70.8526 76.8558 70.9671 76.2798C71.0816 75.7037 71.3644 75.1746 71.7797 74.7593C72.1949 74.344 72.724 74.0611 73.3 73.9465C73.876 73.8318 74.4731 73.8906 75.0157 74.1153C75.5583 74.34 76.0221 74.7206 76.3485 75.2089C76.6748 75.6972 76.849 76.2713 76.849 76.8586C76.8491 77.6461 76.5362 78.4014 75.9794 78.9583C75.4226 79.5153 74.6673 79.8282 73.8798 79.8283Z"/><path id="Vector_9" d="M122.812 71.53C118.293 71.4641 115.09 76.157 115.327 78.5671C115.612 81.4553 118.338 80.9592 122.812 81.0407C127.286 81.1218 130.792 81.1408 131.541 78.9333C132.452 76.2487 128.384 71.6115 122.812 71.53ZM123.177 79.8283C122.59 79.8283 122.016 79.6541 121.528 79.3278C121.039 79.0015 120.659 78.5377 120.434 77.9951C120.209 77.4525 120.151 76.8555 120.265 76.2795C120.38 75.7035 120.663 75.1744 121.078 74.7591C121.493 74.3438 122.022 74.061 122.598 73.9464C123.174 73.8318 123.771 73.8906 124.314 74.1153C124.856 74.3401 125.32 74.7206 125.647 75.2089C125.973 75.6972 126.147 76.2713 126.147 76.8586C126.147 77.2486 126.07 77.6348 125.921 77.9951C125.772 78.3555 125.553 78.6829 125.277 78.9587C125.002 79.2344 124.674 79.4532 124.314 79.6024C123.954 79.7516 123.567 79.8284 123.177 79.8283Z"/><path id="Vector_10" d="M90.8663 79.9102C89.8086 82.4322 94.7388 88.7778 98.3999 88.7778C102.061 88.7778 106.615 83.6704 106.405 80.3169C106.161 76.4116 92.271 76.5606 90.8663 79.9102Z"/><path id="Vector_11" d="M96.9114 85.6375C96.908 85.86 96.9062 86.0909 96.9062 86.3285C96.9069 89.5145 97.1909 93.9026 97.1913 93.9166C97.2022 94.087 97.2466 94.2535 97.3219 94.4067C97.3973 94.5599 97.502 94.6968 97.6302 94.8095C97.7585 94.9223 97.9076 95.0086 98.0692 95.0637C98.2308 95.1188 98.4017 95.1415 98.5721 95.1305C98.7424 95.1196 98.909 95.0752 99.0622 94.9998C99.2154 94.9245 99.3523 94.8198 99.465 94.6915C99.5777 94.5633 99.6641 94.4142 99.7192 94.2526C99.7742 94.091 99.7969 93.9201 99.786 93.7497C99.7859 93.7489 99.7686 93.4807 99.7423 93.0242C99.6633 91.6569 99.5059 88.6119 99.5063 86.3285C99.5063 86.1033 99.5079 85.8856 99.5111 85.6781C99.5138 85.3351 99.3809 85.0048 99.1412 84.7594C98.9014 84.5139 98.5744 84.3732 98.2314 84.3678C97.8884 84.3625 97.5571 84.493 97.3099 84.7308C97.0626 84.9687 96.9194 85.2946 96.9115 85.6376L96.9114 85.6375Z"/><path id="Vector_12" d="M139.589 132.641C137.953 133.114 136.508 134.09 135.459 135.431C134.687 136.499 134.278 137.787 134.291 139.105C134.295 139.925 134.431 140.74 134.695 141.517C134.899 142.147 135.199 142.742 135.585 143.28C135.792 143.556 136.1 143.738 136.441 143.787C136.61 143.811 136.782 143.801 136.947 143.759C137.113 143.717 137.268 143.642 137.405 143.54C137.541 143.437 137.656 143.309 137.743 143.162C137.83 143.015 137.888 142.852 137.912 142.683C137.936 142.514 137.926 142.342 137.884 142.177C137.842 142.012 137.767 141.856 137.665 141.72C137.446 141.402 137.276 141.054 137.159 140.687C136.986 140.178 136.895 139.643 136.891 139.105C136.877 138.337 137.112 137.585 137.56 136.962C138.292 136.06 139.289 135.411 140.411 135.108C140.574 135.055 140.724 134.97 140.854 134.858C140.984 134.746 141.091 134.61 141.168 134.457C141.245 134.304 141.291 134.137 141.303 133.966C141.316 133.795 141.294 133.624 141.24 133.461C141.186 133.299 141.1 133.148 140.988 133.019C140.875 132.89 140.738 132.784 140.585 132.708C140.431 132.632 140.264 132.587 140.093 132.575C139.922 132.564 139.751 132.586 139.589 132.641L139.589 132.641Z"/><path id="Vector_13" d="M192.212 164.093C193.115 161.705 193.568 159.171 193.547 156.619C193.538 149.628 190.52 142.265 186.019 135.728C181.638 129.305 175.928 123.899 169.276 119.875C168.978 119.704 168.624 119.658 168.292 119.748C167.96 119.837 167.677 120.054 167.505 120.352C167.333 120.649 167.285 121.003 167.373 121.335C167.461 121.667 167.677 121.951 167.973 122.125C174.291 125.957 179.715 131.099 183.878 137.204C188.18 143.431 190.957 150.394 190.947 156.619C190.968 158.851 190.575 161.068 189.787 163.157C189.662 163.479 189.671 163.836 189.811 164.152C189.951 164.467 190.21 164.714 190.531 164.838C190.853 164.962 191.211 164.953 191.526 164.814C191.841 164.674 192.088 164.415 192.212 164.093L192.212 164.093Z"/><path id="Vector_14" d="M114.805 97.385L114.807 97.382L114.809 97.376L114.805 97.385Z"/><path id="Vector_15" d="M176.904 117.031C176.555 116.484 176.094 116.018 175.55 115.664C174.334 114.871 173.035 114.213 171.677 113.701C165.78 111.52 159.707 109.85 153.523 108.712C153.724 107.395 154.052 105.155 154.381 102.569C154.971 98.3476 155.323 94.0966 155.437 89.8359C155.46 88.7324 155.377 87.6291 155.19 86.5414C155.109 86.0924 154.957 85.6593 154.739 85.2582C154.61 85.029 154.441 84.8244 154.24 84.654C153.991 84.4453 153.691 84.3069 153.371 84.2534C153.257 84.2348 153.141 84.2255 153.026 84.2256C152.636 84.2331 152.251 84.3204 151.896 84.4824C151.233 84.7977 150.619 85.2082 150.074 85.7008C148.809 86.8371 147.639 88.0752 146.576 89.4025C144.595 91.8334 142.75 94.3721 141.05 97.007C139.809 98.892 138.671 100.843 137.64 102.85C133.865 101.095 129.965 99.6236 125.971 98.4485C123.903 97.8313 121.991 97.3386 120.399 96.9966C119.602 96.8256 118.886 96.6922 118.263 96.5998C117.731 96.5133 117.194 96.4645 116.655 96.4537C116.397 96.4491 116.14 96.4753 115.889 96.5317C115.715 96.5725 115.549 96.6394 115.395 96.7299C115.138 96.8822 114.933 97.1095 114.808 97.3813C114.71 97.6011 114.661 97.8396 114.665 98.0802C114.668 98.311 114.697 98.5406 114.751 98.765C115.059 99.8873 115.487 100.973 116.029 102.003C118.752 107.367 122.531 112.125 127.138 115.993C123.371 119.006 119.951 122.429 116.939 126.197C115.503 127.94 114.17 129.766 112.946 131.665C112.508 132.344 112.112 133.049 111.759 133.776C111.621 134.064 111.502 134.36 111.403 134.663C111.302 134.959 111.247 135.269 111.24 135.581C111.236 135.899 111.318 136.212 111.479 136.486C111.612 136.705 111.794 136.889 112.012 137.024C112.242 137.164 112.497 137.258 112.762 137.302C112.983 137.339 113.206 137.357 113.429 137.355C114.073 137.339 114.713 137.266 115.343 137.138C118.955 136.335 122.501 135.259 125.951 133.921C129.645 132.555 133.588 130.906 137.056 129.206C138.056 132.129 139.331 134.951 140.864 137.634C140.947 137.783 141.058 137.915 141.192 138.021C141.326 138.127 141.479 138.206 141.643 138.253C141.807 138.3 141.979 138.314 142.149 138.294C142.318 138.275 142.482 138.222 142.631 138.139C142.781 138.056 142.912 137.945 143.018 137.811C143.125 137.677 143.203 137.524 143.25 137.36C143.297 137.196 143.311 137.024 143.292 136.854C143.272 136.685 143.22 136.521 143.137 136.371L143.137 136.371C141.42 133.441 140.077 130.306 139.139 127.042C139.094 126.85 139.005 126.67 138.88 126.518C138.755 126.365 138.597 126.243 138.418 126.16C138.238 126.078 138.043 126.037 137.845 126.042C137.648 126.046 137.455 126.095 137.279 126.186C132.753 128.459 128.086 130.438 123.307 132.113C121.02 132.919 118.894 133.589 117.152 134.052C116.282 134.283 115.508 134.463 114.869 134.582C114.626 134.627 114.409 134.661 114.208 134.688C114.695 133.753 115.242 132.85 115.844 131.985C118.874 127.511 124.777 120.699 130.005 117.114C130.175 116.997 130.315 116.84 130.413 116.658C130.511 116.476 130.564 116.272 130.568 116.066C130.571 115.859 130.525 115.654 130.434 115.468C130.342 115.283 130.208 115.122 130.042 114.998C126.273 112.116 123.043 108.593 120.498 104.589C119.569 103.166 118.742 101.68 118.022 100.141C117.847 99.7603 117.713 99.432 117.598 99.1329C117.69 99.1449 117.782 99.1567 117.882 99.1717C120.891 99.7054 123.859 100.454 126.761 101.412C130.503 102.573 134.148 104.025 137.664 105.754C137.822 105.834 137.995 105.882 138.171 105.893C138.348 105.904 138.526 105.879 138.693 105.819C138.859 105.759 139.012 105.665 139.142 105.544C139.271 105.423 139.374 105.277 139.445 105.114C140.288 103.295 141.251 101.534 142.329 99.843C144.268 96.7093 146.413 93.7072 148.748 90.8564C149.642 89.7553 150.616 88.7218 151.663 87.7646C151.964 87.4941 152.287 87.2495 152.629 87.0335C152.79 87.9586 152.859 88.8973 152.837 89.836C152.722 93.9869 152.376 98.1282 151.802 102.241C151.542 104.284 151.282 106.113 151.087 107.429C150.989 108.087 150.908 108.618 150.851 108.983C150.795 109.348 150.763 109.545 150.763 109.545C150.708 109.881 150.787 110.223 150.983 110.501C151.178 110.779 151.474 110.969 151.808 111.031C157.254 112.022 162.629 113.376 167.895 115.081C169.716 115.661 171.486 116.389 173.187 117.259C173.565 117.459 173.925 117.69 174.266 117.949C173.659 118.206 173.036 118.421 172.399 118.591C168.226 119.616 163.997 120.403 159.734 120.948C157.553 121.258 155.573 121.511 154.139 121.687C153.422 121.775 152.841 121.843 152.441 121.889C152.04 121.936 151.822 121.96 151.821 121.96C151.482 121.997 151.171 122.167 150.956 122.432C150.74 122.696 150.638 123.035 150.67 123.375C150.67 123.376 150.705 123.747 150.762 124.407C150.933 126.387 151.296 130.94 151.458 135.545C151.463 135.716 151.503 135.884 151.573 136.04C151.644 136.196 151.745 136.336 151.87 136.453C151.994 136.569 152.141 136.66 152.301 136.72C152.461 136.78 152.632 136.808 152.803 136.802C152.974 136.796 153.142 136.756 153.297 136.685C153.453 136.614 153.593 136.513 153.709 136.388C153.825 136.263 153.916 136.116 153.976 135.956C154.035 135.795 154.063 135.625 154.056 135.454C153.897 130.926 153.55 126.498 153.371 124.398C155.428 124.154 159.719 123.621 164.053 122.926C167.054 122.444 170.064 121.888 172.395 121.285C173.404 121.042 174.392 120.718 175.349 120.316C175.733 120.153 176.094 119.941 176.424 119.685C176.605 119.542 176.764 119.373 176.896 119.185C177.068 118.938 177.176 118.652 177.208 118.354L177.209 118.343L177.219 118.15C177.214 117.755 177.105 117.369 176.904 117.031Z"/><path id="Vector_16" d="M153.369 84.2529L153.371 84.2539H153.373L153.369 84.2529Z"/><path id="Vector_17" d="M150.087 94.6125C150.388 94.6125 150.679 94.5082 150.912 94.3174C151.145 94.1266 151.304 93.8611 151.362 93.566C151.421 93.271 151.376 92.9648 151.234 92.6995C151.092 92.4342 150.863 92.2263 150.585 92.1112C150.307 91.9961 149.998 91.9809 149.71 92.0682C149.422 92.1555 149.173 92.3399 149.006 92.59C148.839 92.8401 148.764 93.1404 148.793 93.4398C148.823 93.7391 148.955 94.019 149.168 94.2317C149.412 94.4747 149.743 94.6115 150.087 94.6125Z"/><path id="Vector_18" d="M141.179 109.618C141.057 109.939 141.066 110.295 141.206 110.609C141.346 110.923 141.604 111.169 141.924 111.293C142.245 111.417 142.601 111.409 142.916 111.271C143.23 111.133 143.478 110.876 143.603 110.557H143.603C143.665 110.398 143.695 110.228 143.691 110.057C143.687 109.886 143.649 109.718 143.58 109.562C143.511 109.406 143.412 109.265 143.289 109.147C143.165 109.029 143.02 108.937 142.861 108.875C142.702 108.813 142.532 108.784 142.361 108.788C142.19 108.792 142.022 108.829 141.866 108.898C141.71 108.967 141.569 109.066 141.451 109.19C141.333 109.313 141.241 109.458 141.179 109.618H141.179ZM143.518 103.873C143.451 104.03 143.416 104.199 143.414 104.37C143.412 104.54 143.444 104.71 143.507 104.868C143.571 105.027 143.665 105.171 143.784 105.293C143.904 105.415 144.046 105.512 144.203 105.579C144.36 105.646 144.529 105.682 144.699 105.684C144.87 105.686 145.04 105.654 145.198 105.59C145.356 105.527 145.501 105.432 145.623 105.313C145.745 105.194 145.842 105.051 145.909 104.894V104.894C146.043 104.578 146.045 104.221 145.916 103.902C145.788 103.584 145.538 103.329 145.222 103.194C144.906 103.059 144.549 103.055 144.23 103.182C143.91 103.309 143.655 103.558 143.518 103.873V103.873ZM146.068 98.2083C145.92 98.5195 145.901 98.8769 146.016 99.202C146.131 99.527 146.37 99.793 146.681 99.9415C146.993 100.09 147.35 100.109 147.675 99.9938C148 99.8788 148.266 99.6394 148.415 99.3282L148.415 99.3281C148.49 99.1739 148.533 99.0063 148.543 98.8351C148.553 98.6638 148.529 98.4923 148.473 98.3304C148.416 98.1684 148.328 98.0193 148.213 97.8916C148.099 97.7639 147.96 97.6601 147.805 97.5862C147.651 97.5123 147.483 97.4698 147.311 97.4611C147.14 97.4525 146.969 97.4777 146.807 97.5356C146.646 97.5934 146.497 97.6826 146.37 97.7981C146.244 97.9136 146.141 98.053 146.068 98.2084L146.068 98.2083Z"/><path id="Vector_19" d="M124.27 125.71C123.99 125.911 123.801 126.215 123.744 126.555C123.688 126.895 123.769 127.244 123.969 127.524C124.17 127.804 124.473 127.994 124.814 128.05C125.154 128.107 125.502 128.026 125.783 127.825H125.783C126.061 127.624 126.249 127.321 126.304 126.981C126.359 126.642 126.278 126.295 126.079 126.016C125.879 125.736 125.576 125.547 125.237 125.49C124.899 125.433 124.551 125.512 124.27 125.71H124.27ZM129.625 121.943C129.413 122.09 129.25 122.296 129.156 122.535C129.062 122.774 129.041 123.036 129.096 123.287C129.151 123.538 129.279 123.768 129.464 123.946C129.649 124.125 129.883 124.244 130.136 124.29C130.389 124.336 130.65 124.305 130.885 124.202C131.121 124.1 131.321 123.93 131.46 123.713C131.599 123.497 131.671 123.244 131.666 122.987C131.661 122.73 131.581 122.48 131.434 122.269C131.336 122.129 131.212 122.009 131.069 121.917C130.925 121.825 130.765 121.761 130.597 121.731C130.429 121.701 130.256 121.704 130.09 121.74C129.923 121.777 129.765 121.846 129.625 121.943ZM135.003 118.231C134.719 118.427 134.524 118.727 134.461 119.066C134.399 119.405 134.474 119.755 134.669 120.039C134.865 120.323 135.165 120.518 135.504 120.581C135.843 120.643 136.193 120.569 136.477 120.373L136.477 120.373C136.758 120.176 136.949 119.877 137.01 119.539C137.071 119.202 136.996 118.854 136.801 118.572C136.607 118.289 136.309 118.095 135.972 118.031C135.635 117.968 135.287 118.04 135.003 118.232L135.003 118.231Z"/><path id="Vector_20" d="M119.765 131.928C120.066 131.928 120.357 131.824 120.59 131.633C120.822 131.442 120.981 131.176 121.04 130.881C121.099 130.586 121.053 130.28 120.912 130.015C120.77 129.75 120.54 129.542 120.263 129.427C119.985 129.311 119.675 129.296 119.388 129.384C119.1 129.471 118.851 129.655 118.684 129.905C118.517 130.156 118.442 130.456 118.471 130.755C118.501 131.055 118.633 131.334 118.846 131.547C119.09 131.79 119.42 131.927 119.765 131.928Z"/><path id="Vector_21" d="M122.318 103.949C122.618 103.949 122.91 103.845 123.142 103.654C123.375 103.463 123.534 103.197 123.593 102.902C123.652 102.607 123.606 102.301 123.464 102.036C123.323 101.771 123.093 101.563 122.815 101.448C122.537 101.332 122.228 101.317 121.94 101.405C121.652 101.492 121.404 101.676 121.237 101.926C121.07 102.177 120.994 102.477 121.024 102.776C121.053 103.076 121.186 103.355 121.398 103.568C121.643 103.811 121.973 103.948 122.318 103.949Z"/><path id="Vector_22" d="M135.712 112.701C135.845 112.81 135.997 112.892 136.162 112.942C136.326 112.991 136.498 113.008 136.669 112.991C136.839 112.974 137.005 112.923 137.156 112.841C137.307 112.76 137.44 112.649 137.548 112.516C137.656 112.383 137.736 112.229 137.785 112.065C137.833 111.9 137.849 111.728 137.83 111.557C137.812 111.387 137.76 111.222 137.677 111.071C137.595 110.921 137.483 110.788 137.349 110.681L137.349 110.682C137.081 110.467 136.739 110.367 136.397 110.404C136.056 110.441 135.743 110.611 135.527 110.878C135.31 111.145 135.208 111.486 135.243 111.828C135.278 112.17 135.447 112.484 135.712 112.701L135.712 112.701ZM131.256 109.499C131.471 109.64 131.723 109.714 131.98 109.712C132.237 109.71 132.488 109.632 132.7 109.487C132.913 109.342 133.078 109.138 133.174 108.9C133.27 108.661 133.294 108.4 133.242 108.148C133.189 107.896 133.064 107.666 132.88 107.485C132.697 107.305 132.464 107.183 132.212 107.135C131.959 107.087 131.698 107.115 131.461 107.215C131.225 107.316 131.023 107.484 130.882 107.699C130.693 107.987 130.626 108.339 130.696 108.677C130.766 109.014 130.967 109.31 131.256 109.499H131.256ZM126.53 106.57C126.677 106.657 126.84 106.714 127.009 106.738C127.178 106.762 127.35 106.753 127.515 106.71C127.681 106.668 127.836 106.593 127.973 106.491C128.109 106.388 128.224 106.26 128.311 106.113C128.398 105.966 128.455 105.804 128.48 105.635C128.504 105.466 128.494 105.294 128.452 105.128C128.41 104.963 128.335 104.807 128.233 104.671C128.13 104.534 128.002 104.419 127.855 104.332L127.855 104.332C127.708 104.245 127.545 104.188 127.376 104.164C127.207 104.14 127.035 104.149 126.87 104.192C126.704 104.234 126.549 104.309 126.412 104.411C126.276 104.513 126.161 104.642 126.074 104.789C125.987 104.936 125.93 105.098 125.906 105.267C125.881 105.436 125.891 105.608 125.933 105.774C125.976 105.939 126.05 106.094 126.153 106.231C126.255 106.368 126.383 106.483 126.53 106.57L126.53 106.57Z"/><path id="Vector_23" d="M162.409 117.96C162.579 117.975 162.75 117.956 162.913 117.905C163.076 117.853 163.227 117.77 163.358 117.66C163.489 117.551 163.596 117.416 163.675 117.265C163.754 117.113 163.802 116.948 163.817 116.778C163.832 116.608 163.813 116.436 163.761 116.274C163.71 116.111 163.627 115.96 163.517 115.829C163.407 115.698 163.273 115.59 163.122 115.512C162.97 115.433 162.805 115.385 162.635 115.37H162.634C162.464 115.355 162.293 115.373 162.129 115.424C161.966 115.476 161.815 115.559 161.684 115.668C161.553 115.778 161.445 115.913 161.366 116.064C161.287 116.216 161.239 116.382 161.224 116.552C161.209 116.722 161.228 116.894 161.279 117.057C161.331 117.22 161.414 117.371 161.524 117.502C161.634 117.633 161.769 117.741 161.921 117.819C162.073 117.898 162.239 117.946 162.409 117.96H162.409ZM156.905 117.562C157.162 117.577 157.417 117.516 157.639 117.386C157.861 117.256 158.039 117.063 158.151 116.832C158.264 116.601 158.305 116.341 158.27 116.087C158.234 115.832 158.124 115.593 157.954 115.401C157.783 115.209 157.559 115.072 157.31 115.007C157.061 114.942 156.799 114.952 156.556 115.036C156.313 115.12 156.101 115.275 155.945 115.48C155.79 115.685 155.699 115.931 155.684 116.188C155.664 116.532 155.781 116.87 156.01 117.128C156.239 117.386 156.561 117.542 156.905 117.562H156.905ZM151.385 117.296C151.642 117.306 151.896 117.239 152.115 117.105C152.334 116.97 152.508 116.774 152.615 116.54C152.723 116.306 152.758 116.046 152.718 115.792C152.677 115.538 152.562 115.302 152.388 115.114C152.213 114.925 151.986 114.792 151.736 114.733C151.486 114.673 151.224 114.689 150.983 114.778C150.741 114.867 150.532 115.026 150.381 115.234C150.231 115.443 150.145 115.691 150.135 115.948C150.122 116.292 150.246 116.628 150.481 116.881C150.715 117.134 151.04 117.283 151.385 117.296H151.385ZM145.856 117.137C146.201 117.144 146.534 117.013 146.783 116.774C147.031 116.536 147.175 116.208 147.182 115.863C147.189 115.518 147.058 115.185 146.819 114.936C146.581 114.688 146.253 114.544 145.908 114.537L145.908 114.537C145.737 114.534 145.568 114.564 145.409 114.626C145.25 114.689 145.104 114.781 144.981 114.9C144.858 115.018 144.76 115.159 144.691 115.316C144.623 115.472 144.586 115.641 144.582 115.811C144.579 115.982 144.609 116.152 144.671 116.311C144.734 116.47 144.826 116.615 144.945 116.738C145.063 116.861 145.204 116.96 145.361 117.028C145.517 117.096 145.685 117.133 145.856 117.137L145.856 117.137Z"/><path id="Vector_24" d="M168.04 118.551C168.341 118.551 168.633 118.447 168.865 118.256C169.098 118.066 169.257 117.8 169.316 117.505C169.374 117.21 169.329 116.904 169.187 116.638C169.045 116.373 168.816 116.165 168.538 116.05C168.26 115.935 167.951 115.92 167.663 116.007C167.375 116.094 167.126 116.279 166.959 116.529C166.792 116.779 166.717 117.079 166.746 117.379C166.776 117.678 166.908 117.958 167.121 118.171C167.365 118.414 167.696 118.55 168.04 118.551Z"/><path id="Vector_25" d="M141.545 115.356C141.485 115.171 141.384 115.002 141.25 114.861C141.129 114.741 140.986 114.645 140.828 114.579C140.67 114.514 140.501 114.48 140.33 114.48C140.16 114.48 139.991 114.514 139.833 114.579C139.675 114.645 139.532 114.741 139.411 114.861C139.271 115.009 139.167 115.188 139.11 115.384C139.011 115.621 138.984 115.883 139.034 116.135C139.085 116.387 139.208 116.619 139.391 116.801C139.418 116.829 139.458 116.84 139.488 116.866L139.489 116.868C139.671 117.049 139.903 117.173 140.155 117.223C140.407 117.274 140.668 117.248 140.906 117.15C141.143 117.051 141.346 116.884 141.489 116.671C141.632 116.457 141.708 116.206 141.708 115.949C141.703 115.741 141.647 115.537 141.545 115.356Z"/><path id="Vector_26" d="M143.47 126.502C143.585 126.825 143.823 127.09 144.132 127.238C144.441 127.387 144.797 127.407 145.121 127.295C145.445 127.182 145.712 126.946 145.863 126.638C146.013 126.33 146.036 125.974 145.926 125.649H145.926C145.813 125.323 145.575 125.056 145.265 124.906C144.955 124.755 144.597 124.734 144.272 124.847C143.946 124.96 143.679 125.198 143.528 125.508C143.378 125.819 143.357 126.176 143.47 126.502H143.47ZM141.571 121.403C141.636 121.561 141.73 121.705 141.85 121.827C141.97 121.949 142.112 122.045 142.27 122.112C142.427 122.178 142.596 122.213 142.766 122.215C142.937 122.216 143.106 122.184 143.265 122.119C143.423 122.055 143.567 121.961 143.688 121.841C143.81 121.721 143.907 121.578 143.973 121.421C144.04 121.264 144.075 121.095 144.076 120.924C144.077 120.754 144.045 120.584 143.981 120.426L143.981 120.426C143.917 120.267 143.823 120.123 143.703 120.001C143.583 119.879 143.44 119.781 143.283 119.714C143.125 119.647 142.956 119.612 142.785 119.611C142.614 119.609 142.445 119.642 142.286 119.706C142.128 119.77 141.983 119.865 141.862 119.986C141.74 120.106 141.643 120.249 141.576 120.406C141.51 120.564 141.475 120.733 141.475 120.904C141.474 121.075 141.507 121.245 141.571 121.403L141.571 121.403Z"/><path id="Vector_27" d="M146.427 132.609C146.728 132.609 147.019 132.504 147.252 132.313C147.484 132.123 147.644 131.857 147.702 131.562C147.761 131.267 147.716 130.961 147.574 130.696C147.432 130.43 147.203 130.222 146.925 130.107C146.647 129.992 146.338 129.977 146.05 130.064C145.762 130.152 145.513 130.336 145.346 130.586C145.179 130.836 145.104 131.136 145.133 131.436C145.163 131.735 145.295 132.015 145.508 132.228C145.752 132.471 146.082 132.608 146.427 132.609Z"/><path id="Vector_28" d="M117.58 26.1153C116.347 24.3025 114.842 22.6913 113.117 21.3389C111.008 19.7539 108.436 18.9072 105.798 18.9292C103.332 18.9876 100.901 19.5279 98.6432 20.5196C98.5698 20.4694 98.5032 20.4053 98.4286 20.3578C97.0126 19.4721 95.3707 19.0149 93.7008 19.0413C92.4906 19.0565 91.2885 19.2406 90.1292 19.5882C87.3128 18.876 84.421 18.5048 81.5161 18.4825C78.051 18.3508 74.6192 19.2002 71.6157 20.933C71.472 21.0252 71.3478 21.1447 71.2503 21.2849C71.1529 21.4251 71.0839 21.583 71.0475 21.7498C71.0111 21.9166 71.0079 22.089 71.038 22.257C71.0682 22.425 71.1312 22.5855 71.2234 22.7292C71.3156 22.8729 71.4352 22.997 71.5753 23.0945C71.7155 23.192 71.8735 23.2609 72.0402 23.2973C72.207 23.3338 72.3794 23.337 72.5474 23.3068C72.7154 23.2766 72.8759 23.2136 73.0196 23.1215C75.6059 21.6621 78.5491 20.9558 81.5161 21.0826C83.4669 21.0951 85.4127 21.2809 87.3307 21.6377C88.0906 21.7767 88.7096 21.9156 89.1345 22.0187C89.347 22.0702 89.5109 22.1127 89.6197 22.1418L89.7407 22.1748L89.774 22.1842C90.0195 22.2546 90.2802 22.2518 90.524 22.176C91.55 21.8387 92.621 21.6585 93.7008 21.6414C94.8751 21.6145 96.0319 21.93 97.0298 22.5495C98.1748 23.3291 99.0745 24.4183 99.6238 25.6899C100.464 27.3367 100.919 29.1531 100.954 31.0016C100.883 32.963 100.387 34.8857 99.502 36.6373C99.1192 37.507 98.7164 38.3629 98.3939 39.2551C98.0416 40.1627 97.8502 41.1247 97.8285 42.098C97.8452 43.5246 98.3411 44.9042 99.2366 46.0149C100.358 47.4126 101.401 48.8706 102.363 50.3822C103.052 51.4299 103.44 52.6473 103.482 53.9006C103.457 54.9109 103.221 55.9047 102.788 56.8177C102.111 58.2619 101.271 59.6236 100.284 60.8758C98.6091 62.9937 97.174 65.2907 96.0049 67.7246C95.7535 68.2824 95.5416 68.8572 95.3706 69.4446L95.3548 69.4217C95.0515 68.793 94.9124 68.0976 94.9505 67.4006C94.9967 66.1673 95.1334 64.9391 95.3597 63.7259C95.6151 62.3201 95.7623 60.8968 95.8002 59.4684C95.8059 58.7661 95.7399 58.065 95.6034 57.3761C95.2757 56.0404 94.6282 54.8044 93.7166 53.7747C92.4347 52.2161 90.8697 50.8463 89.685 49.371C89.1074 48.6805 88.6246 47.916 88.2494 47.0977C87.89 46.2933 87.7044 45.4221 87.7046 44.541C87.7175 43.611 87.8902 42.6902 88.2149 41.8186C89.0263 39.4865 89.2528 36.9909 88.8745 34.5509C88.4962 32.1108 87.5247 29.801 86.0453 27.824C85.0906 26.5843 83.8865 25.5587 82.5106 24.8135C81.0822 24.0516 79.4874 23.6549 77.8685 23.6588C76.672 23.6657 75.484 23.8613 74.3484 24.2384C74.0205 24.3449 73.7483 24.5772 73.5916 24.8844C73.435 25.1915 73.4068 25.5483 73.5133 25.8763C73.6197 26.2042 73.8521 26.4764 74.1593 26.6331C74.4664 26.7897 74.8232 26.8179 75.1512 26.7114L75.1511 26.7113C76.0274 26.4184 76.9445 26.2657 77.8685 26.2587C79.0618 26.2545 80.2374 26.5467 81.2899 27.109C82.8996 28.0125 84.2022 29.3767 85.0303 31.0265C85.9689 32.8333 86.4568 34.8402 86.4526 36.8763C86.4561 38.2636 86.2233 39.6415 85.7641 40.9507C85.3405 42.1009 85.1174 43.3153 85.1045 44.541C85.1124 46.1708 85.5557 47.7689 86.3886 49.1699C87.5521 50.9602 88.9274 52.6035 90.4847 54.0643C91.1046 54.689 91.677 55.3591 92.1971 56.069C92.6056 56.6154 92.8983 57.2395 93.0573 57.903C93.1579 58.4186 93.2057 58.9432 93.2002 59.4685C93.1609 60.762 93.0241 62.0507 92.791 63.3236C92.5419 64.6696 92.3947 66.0325 92.3504 67.4006C92.309 68.5427 92.5623 69.6762 93.0862 70.6919C93.732 71.8026 94.7682 72.6332 95.9928 73.0219C96.22 73.1042 96.4657 73.1209 96.7019 73.0701C96.9382 73.0193 97.1553 72.903 97.3286 72.7346C97.5018 72.5661 97.6241 72.3523 97.6815 72.1176C97.7389 71.8829 97.7291 71.6368 97.6532 71.4074L97.6638 71.4052L97.6607 71.3803L97.6561 71.2741C97.7297 70.4054 97.975 69.5599 98.378 68.7869C99.4679 66.5326 100.803 64.4052 102.358 62.4432C103.469 61.0296 104.412 59.4922 105.169 57.8617C105.747 56.6197 106.058 55.2703 106.082 53.9007C106.04 52.185 105.53 50.5135 104.606 49.067C103.594 47.4661 102.493 45.923 101.309 44.4449C100.754 43.7874 100.443 42.9584 100.428 42.098C100.451 41.4255 100.591 40.762 100.84 40.1369C101.234 39.0346 101.894 37.7586 102.477 36.2612C102.637 35.849 102.787 35.4139 102.926 34.964C103.723 35.7063 104.646 36.3018 105.651 36.723C107.532 37.5482 109.59 38.0289 111.419 38.7587C112.303 39.0936 113.147 39.5292 113.932 40.0569C114.693 40.5753 115.348 41.2341 115.862 41.9978C115.996 42.1988 116.184 42.3584 116.404 42.4587C116.624 42.5589 116.867 42.5959 117.107 42.5654C117.347 42.5349 117.574 42.4381 117.761 42.2859C117.949 42.1338 118.091 41.9323 118.171 41.7041C119.05 39.0166 119.523 36.2128 119.574 33.3856C119.685 30.8134 118.987 28.2711 117.58 26.1153ZM113.845 36.9949C111.513 35.8318 109.045 35.3023 107.16 34.5374C106.325 34.235 105.548 33.7922 104.862 33.2281C104.27 32.7126 103.85 32.0268 103.662 31.2643C103.633 31.1867 103.596 31.1122 103.552 31.0419C103.552 31.028 103.555 31.0155 103.555 31.0016C103.519 28.7658 102.978 26.567 101.971 24.5705C101.622 23.8428 101.198 23.1535 100.705 22.514C102.334 21.8983 104.056 21.5653 105.798 21.5292C107.88 21.5048 109.912 22.1738 111.573 23.4307C113.081 24.6257 114.397 26.0454 115.474 27.6401C116.555 29.3545 117.079 31.3615 116.974 33.3855C116.952 35.1318 116.74 36.8705 116.341 38.5708L116.322 38.6489C115.569 37.9957 114.737 37.44 113.845 36.9949Z"/><path id="Vector_29" d="M45.5655 48.1745C44.2175 47.1631 43.0254 45.9593 42.0272 44.6015C39.6048 41.2688 38.3054 37.2519 38.317 33.1318C38.3056 30.4026 38.8928 27.7042 40.0372 25.2266C41.1994 22.7207 42.9739 20.5476 45.1969 18.9079C48.2465 16.7023 51.9232 15.5332 55.6865 15.5725C58.6767 15.5533 61.6308 16.2262 64.3177 17.5385C67.0046 18.8507 69.3515 20.7668 71.1748 23.1368C72.213 24.5444 73.0306 26.102 73.5994 27.756C73.6549 27.9175 73.7416 28.0664 73.8546 28.1944C73.9676 28.3223 74.1048 28.4268 74.2581 28.5017C74.4115 28.5767 74.5782 28.6207 74.7486 28.6313C74.919 28.6419 75.0898 28.6188 75.2512 28.5633C75.4127 28.5079 75.5617 28.4211 75.6896 28.3081C75.8176 28.1951 75.922 28.058 75.997 27.9046C76.072 27.7512 76.116 27.5846 76.1265 27.4142C76.1371 27.2438 76.114 27.073 76.0586 26.9115C75.404 25.008 74.4632 23.2154 73.2686 21.5953C71.2044 18.8962 68.5423 16.7127 65.4915 15.2165C62.4407 13.7203 59.0844 12.9521 55.6866 12.9725C51.3684 12.9332 47.1515 14.2797 43.6553 16.8143C41.083 18.7115 39.0291 21.2251 37.6826 24.124C36.3765 26.9467 35.7054 30.0216 35.7169 33.1318C35.7049 37.8067 37.1818 42.364 39.9336 46.1432C41.0824 47.7055 42.4544 49.0908 44.0056 50.2546C44.2814 50.4615 44.6282 50.5503 44.9695 50.5015C45.3108 50.4528 45.6188 50.2704 45.8256 49.9946C46.0325 49.7187 46.1213 49.372 46.0725 49.0307C46.0237 48.6894 45.8414 48.3814 45.5655 48.1746L45.5655 48.1745Z"/><path id="Vector_30" d="M43.0673 79.4476C42.7315 75.4123 41.4576 71.5112 39.3471 68.0554C38.5401 66.6137 37.7788 65.3472 37.2468 64.2079C36.748 63.2598 36.4645 62.2134 36.4164 61.1432C36.4172 60.609 36.5129 60.0792 36.6992 59.5785C36.7576 59.4181 36.7838 59.2477 36.7764 59.0772C36.7689 58.9067 36.728 58.7392 36.6558 58.5845C36.5837 58.4298 36.4818 58.2908 36.3559 58.1755C36.23 58.0602 36.0827 57.9708 35.9223 57.9124C35.5983 57.7945 35.2407 57.8101 34.9283 57.9558C34.6158 58.1015 34.374 58.3654 34.2561 58.6894C33.9663 59.475 33.8174 60.3057 33.8164 61.1432C33.8621 62.5947 34.2296 64.0181 34.8921 65.3104C35.823 67.287 37.1218 69.2256 38.2252 71.5009C39.5071 74.0309 40.2713 76.7913 40.473 79.6203C40.5213 80.3472 40.5435 81.0283 40.5435 81.6653C40.6257 83.9038 40.2401 86.1348 39.4113 88.2158C39.3823 88.1473 39.3585 88.0753 39.3272 88.0084C38.6947 86.7803 37.7868 85.7152 36.6744 84.8962C35.077 83.6275 33.2478 82.5831 31.8303 81.4084C31.1639 80.8823 30.5752 80.2646 30.0818 79.5736C29.6383 78.9399 29.3533 78.2089 29.2509 77.4422C29.2092 77.1274 29.1882 76.8103 29.1879 76.4928C29.1858 75.2457 29.5329 74.0229 30.1898 72.9629C30.39 72.6362 30.6186 72.3278 30.873 72.0414C30.9633 71.9405 31.0358 71.8672 31.0814 71.8229L31.1282 71.7786L31.1281 71.7783C31.2572 71.6667 31.3631 71.5308 31.4398 71.3782C31.5164 71.2257 31.5622 71.0595 31.5747 70.8893C31.5871 70.719 31.5658 70.548 31.5122 70.386C31.4585 70.2239 31.3734 70.074 31.2618 69.9448C31.1502 69.8157 31.0143 69.7098 30.8617 69.6331C30.7092 69.5565 30.543 69.5107 30.3728 69.4982C30.2025 69.4858 30.0315 69.5071 29.8694 69.5607C29.7074 69.6144 29.5575 69.6995 29.4283 69.8111H29.4283C28.8613 70.3348 28.3722 70.937 27.976 71.5994C27.0669 73.0696 26.5862 74.7643 26.5879 76.4928C26.5882 76.9236 26.6166 77.3539 26.6731 77.7809C26.9306 79.5308 27.7614 81.1458 29.0352 82.3729C30.7956 83.9286 32.6724 85.3471 34.6494 86.6163C35.3907 87.1371 36.0494 87.7666 36.6034 88.4835C37.0359 89.0547 37.2704 89.7514 37.2713 90.4678C37.2696 90.7565 37.2379 91.0443 37.1766 91.3264C37.1255 91.5697 37.1451 91.8225 37.2333 92.055C37.3215 92.2874 37.4745 92.4897 37.6741 92.6378C37.8738 92.786 38.1117 92.8738 38.3598 92.8908C38.6078 92.9078 38.8555 92.8534 39.0735 92.7339C40.0059 92.1295 40.764 91.2919 41.2727 90.304C42.2521 88.6057 43.1452 85.879 43.1435 81.6653C43.1435 80.9677 43.1181 80.2284 43.0673 79.4476Z"/><path id="Vector_31" d="M86.9934 92.9021L86.533 94.1179C88.3333 94.7532 90.2007 95.1792 92.0985 95.3873C94.2104 95.6417 96.3361 95.7653 98.4633 95.7572C100.903 95.7624 103.341 95.6129 105.762 95.3097C106.841 95.1684 107.823 94.9983 108.678 94.8004C109.43 94.6412 110.163 94.4055 110.867 94.0971L110.314 92.9207L109.03 92.72L109.026 92.7407C108.618 94.8988 107.869 96.9784 106.809 98.9022C106.018 100.365 104.927 101.645 103.609 102.658C102.151 103.734 100.38 104.301 98.568 104.274C98.4484 104.274 98.3261 104.271 98.201 104.267C96.4784 104.209 94.8262 103.569 93.5142 102.451C91.6696 100.778 90.2592 98.6817 89.4047 96.3427C89.0601 95.4808 88.7653 94.5997 88.5219 93.704C88.4314 93.3697 88.3672 93.102 88.3265 92.9213C88.306 92.8309 88.2915 92.7622 88.2823 92.718L88.2726 92.67L88.2708 92.6605L86.9934 92.9021L86.5331 94.1179L86.9934 92.9021L85.716 93.1437C86.2081 95.4411 87.0174 97.659 88.1207 99.7334C89.0529 101.534 90.3231 103.138 91.8619 104.458C93.616 105.938 95.8162 106.785 98.1096 106.865C98.2634 106.871 98.4158 106.874 98.5681 106.874C101.003 106.9 103.378 106.111 105.312 104.631C107.628 102.723 109.382 100.222 110.386 97.3942C110.929 96.013 111.335 94.5818 111.599 93.1213C111.635 92.8881 111.607 92.6494 111.518 92.4308C111.429 92.2122 111.283 92.0219 111.094 91.8804C110.905 91.7388 110.681 91.6514 110.446 91.6274C110.212 91.6034 109.975 91.6438 109.761 91.7442C109.223 91.9729 108.664 92.1482 108.092 92.2674C104.922 92.8961 101.695 93.1943 98.4633 93.1572C96.445 93.1652 94.4281 93.0485 92.4242 92.8077C90.7301 92.6243 89.0624 92.2481 87.4537 91.6863C87.2377 91.6045 87.0037 91.5817 86.776 91.6203C86.5483 91.659 86.3349 91.7576 86.158 91.906C85.981 92.0544 85.8467 92.2473 85.7691 92.4649C85.6914 92.6824 85.6731 92.9167 85.716 93.1437L86.9934 92.9021Z"/><path id="Vector_32" d="M103.986 94.5604L104.426 94.5514H103.986L103.986 94.5604L104.426 94.5514H103.986C103.979 94.7216 103.954 94.8906 103.911 95.0553C103.757 95.6805 103.4 96.2369 102.895 96.6366C101.764 97.4135 100.401 97.7773 99.0333 97.6671L98.9459 97.667L98.9518 97.667C96.4725 97.6399 95.2708 96.9087 94.6016 96.2585C94.3327 95.9962 94.1135 95.6875 93.9546 95.3473C93.9112 95.254 93.8754 95.1574 93.8473 95.0585L93.8355 95.009L93.2029 95.1164L93.8423 95.1164C93.8431 95.0805 93.8408 95.0445 93.8355 95.009L93.2029 95.1164L93.8423 95.1164H92.6614L93.8041 95.4095C93.8296 95.3139 93.8424 95.2154 93.8422 95.1164H92.6614L93.8041 95.4095L92.5656 95.0918L93.5949 95.8497C93.6929 95.7181 93.7639 95.5686 93.8041 95.4095L92.5656 95.0918L93.5949 95.8497L92.5538 95.0831L93.215 96.194C93.3634 96.1058 93.4926 95.9887 93.5949 95.8497L92.5538 95.0831L93.215 96.194L92.5524 95.0809V96.3763C92.7856 96.3758 93.0144 96.3129 93.215 96.194L92.5524 95.0809V95.0811L92.1703 96.3186C92.2941 96.3567 92.4229 96.3761 92.5524 96.3763V95.0811L92.1703 96.3187L92.5518 95.0834L91.8471 96.1674C91.9474 96.2325 92.0561 96.2834 92.1703 96.3187L92.5518 95.0834L91.8471 96.1674C92.003 96.2686 92.1788 96.3351 92.3626 96.3625C92.5465 96.39 92.734 96.3777 92.9127 96.3265C93.0913 96.2753 93.257 96.1864 93.3984 96.0658C93.5397 95.9452 93.6536 95.7956 93.7323 95.6272C93.811 95.4589 93.8527 95.2756 93.8545 95.0897C93.8564 94.9039 93.8184 94.7198 93.743 94.5499C93.6677 94.38 93.5568 94.2282 93.4179 94.1048C93.2789 93.9814 93.1151 93.8892 92.9375 93.8345C92.7631 93.7806 92.5793 93.7639 92.398 93.7855C92.2167 93.8071 92.042 93.8666 91.8851 93.96C91.7133 94.0628 91.5672 94.2035 91.4578 94.3713C91.3485 94.5391 91.2788 94.7295 91.254 94.9283L91.2422 95.1165C91.2429 95.2265 91.2529 95.3362 91.2722 95.4444C91.3584 95.8901 91.5137 96.3196 91.7326 96.7173C92.2675 97.6989 93.0624 98.5143 94.0301 99.074C95.5289 99.903 97.2226 100.315 98.9347 100.267L98.9406 100.267L99.0332 100.267C100.437 100.305 101.833 100.046 103.13 99.5068C104.452 98.9498 105.516 97.9172 106.112 96.6131C106.409 95.9652 106.57 95.2637 106.586 94.5515L106.585 94.5074C106.575 94.1646 106.43 93.8396 106.182 93.6031C105.934 93.3667 105.602 93.2379 105.259 93.2449C104.916 93.2519 104.59 93.3941 104.352 93.6405C104.113 93.8869 103.982 94.2176 103.986 94.5605L103.986 94.5604Z"/><path id="Vector_33" d="M70.1163 157.612C69.4654 155.565 68.3794 153.684 66.9327 152.096C65.155 150.174 63.033 148.603 60.6764 147.463C59.6869 146.967 58.6617 146.545 57.6094 146.202C55.8267 144.844 53.9492 143.616 51.9913 142.527C48.5592 140.625 44.0777 138.665 39.618 138.651C39.2063 138.651 38.7945 138.668 38.384 138.705C38.2139 138.72 38.0486 138.769 37.8973 138.848C37.7461 138.927 37.6119 139.035 37.5025 139.166C37.3931 139.297 37.3106 139.449 37.2596 139.612C37.2087 139.775 37.1903 139.946 37.2056 140.116C37.2209 140.286 37.2695 140.452 37.3487 140.603C37.4279 140.754 37.5362 140.888 37.6672 140.998C37.7983 141.107 37.9496 141.19 38.1125 141.24C38.2755 141.291 38.4468 141.31 38.6169 141.294C38.9449 141.265 39.2786 141.25 39.618 141.251C43.2893 141.237 47.499 142.988 50.7253 144.798C52.0852 145.558 53.4059 146.387 54.6823 147.28C55.1653 147.618 55.546 147.899 55.8036 148.093C55.9324 148.19 56.0304 148.266 56.0952 148.316L56.1669 148.373L56.1867 148.389C56.3237 148.498 56.4812 148.579 56.6499 148.627L56.6624 148.63C58.3851 149.181 60.0276 149.958 61.5472 150.939C62.8663 151.773 64.063 152.787 65.1029 153.951C66.2495 155.235 67.1121 156.747 67.6345 158.387C68.041 159.625 68.2584 160.917 68.2793 162.22C68.3496 163.534 67.9714 164.833 67.2065 165.904C66.9339 166.26 66.5823 166.548 66.1793 166.744C65.7764 166.941 65.3332 167.041 64.885 167.036C64.1034 167.014 63.3416 166.786 62.6766 166.375C62.6117 166.346 62.5445 166.324 62.4757 166.307C62.4726 164.435 62.072 162.585 61.3003 160.879C60.3742 158.884 59.0448 157.103 57.3959 155.647C56.6635 154.977 55.8664 154.381 55.0163 153.869C54.7166 153.699 54.362 153.656 54.0303 153.748C53.6986 153.839 53.4168 154.059 53.2468 154.358C53.0768 154.657 53.0324 155.012 53.1234 155.344C53.2145 155.676 53.4334 155.958 53.7323 156.129L53.7319 156.129C54.9083 156.864 55.9695 157.768 56.8809 158.813C58.7783 160.867 59.8462 163.552 59.8779 166.348C59.8779 166.684 59.8628 167.028 59.8307 167.382C59.7665 169.024 59.2333 170.614 58.294 171.963C58.0378 172.334 57.6983 172.64 57.3026 172.857C56.907 173.074 56.4662 173.195 56.0153 173.211C55.3209 173.19 54.6528 172.94 54.1153 172.5C53.3097 171.846 52.6698 171.011 52.2478 170.063C52.1796 169.929 52.0883 169.808 51.9781 169.705C51.7021 167.582 51.0415 165.527 50.0287 163.641C49.477 162.581 48.8114 161.585 48.0437 160.669C47.4001 159.87 46.6061 159.205 45.7066 158.712C45.3983 158.558 45.0413 158.532 44.7142 158.641C44.3871 158.75 44.1167 158.985 43.9625 159.293C43.8083 159.602 43.783 159.959 43.892 160.286C44.001 160.613 44.2355 160.883 44.5439 161.037C45.1299 161.378 45.6466 161.826 46.0671 162.358C47.0586 163.565 47.8573 164.917 48.435 166.368C49.0743 167.866 49.4254 169.47 49.47 171.097C49.5102 172.169 49.2391 173.229 48.6893 174.15C48.056 175.078 47.1006 175.738 46.0083 176.002C45.5722 176.136 45.1193 176.206 44.6632 176.21C43.6804 176.203 42.7393 175.812 42.0417 175.119C40.8727 173.899 40.0041 172.422 39.505 170.808C39.2845 170.176 39.0968 169.533 38.9425 168.881C38.8847 168.636 38.8438 168.44 38.8178 168.309L38.7898 168.161L38.7838 168.127L38.7828 168.121C38.7314 167.81 38.5691 167.529 38.3258 167.329C38.0826 167.129 37.7751 167.024 37.4603 167.034C37.4602 167.034 37.4215 167.035 37.3298 167.036C37.2381 167.038 37.0998 167.039 36.9191 167.039C31.9944 167.022 27.1006 166.262 22.4028 164.784C19.3151 163.825 16.4588 162.238 14.0128 160.124C11.5412 157.919 9.92614 154.913 9.45154 151.635C9.26069 150.408 9.16408 149.167 9.16254 147.925C9.1593 144.388 9.992 140.901 11.5927 137.748C13.9606 133.028 17.9971 128.842 23.3013 125.366C29.2129 121.637 35.6941 118.898 42.4888 117.259C42.6545 117.217 42.8102 117.143 42.947 117.04C43.0839 116.938 43.1992 116.81 43.2865 116.663C43.3737 116.516 43.4311 116.353 43.4554 116.184C43.4797 116.015 43.4704 115.843 43.4281 115.677C43.3857 115.511 43.3112 115.356 43.2086 115.219C43.1061 115.082 42.9776 114.967 42.8305 114.88C42.6835 114.793 42.5207 114.736 42.3515 114.712C42.1823 114.688 42.01 114.698 41.8445 114.74L41.8445 114.74C31.7657 117.321 23.0103 121.523 16.7058 127.13C13.6509 129.781 11.1273 132.989 9.26905 136.581C7.48701 140.097 6.5597 143.983 6.56251 147.925C6.56411 149.3 6.67084 150.672 6.88178 152.031C7.44883 155.894 9.35128 159.437 12.2586 162.043C16.2981 165.722 21.7169 167.572 26.4821 168.56C28.0895 168.89 29.6221 169.119 31.0108 169.279C30.4106 176.401 30.0787 182.616 29.8996 186.743C29.8846 187.088 30.0071 187.424 30.2401 187.678C30.4731 187.932 30.7976 188.083 31.142 188.098C31.4865 188.113 31.8228 187.991 32.077 187.758C32.3311 187.525 32.4823 187.2 32.4973 186.856C32.675 182.758 33.0048 176.585 33.6 169.518C34.7924 169.599 35.7665 169.628 36.4515 169.636C36.7695 170.957 37.2176 172.244 37.7892 173.477C38.3863 174.811 39.2325 176.018 40.2823 177.034C41.4612 178.165 43.0292 178.801 44.6632 178.81C45.3674 178.806 46.0673 178.7 46.7415 178.497C48.4295 178.056 49.8981 177.013 50.8707 175.564C51.2197 175.01 51.4897 174.41 51.6729 173.781C51.9417 174.065 52.232 174.329 52.5411 174.569C53.5311 175.354 54.7521 175.791 56.0152 175.811C56.8577 175.794 57.6851 175.584 58.4334 175.197C59.1818 174.809 59.8313 174.255 60.3317 173.577C61.3161 172.242 61.9603 170.687 62.2087 169.046C63.0504 169.426 63.9615 169.627 64.8848 169.636C65.7212 169.639 66.5473 169.451 67.3003 169.087C68.0534 168.723 68.7137 168.192 69.2311 167.535C70.371 166.003 70.9525 164.128 70.8791 162.22C70.8585 160.654 70.6013 159.101 70.1163 157.612Z"/><path id="Vector_34" d="M191.468 162.412C191.309 162.35 191.139 162.321 190.968 162.325C190.797 162.329 190.629 162.367 190.473 162.436C190.317 162.505 190.176 162.605 190.058 162.728C189.941 162.852 189.848 162.997 189.787 163.157C189.164 164.789 188.178 166.258 186.902 167.452C184.821 169.29 182.317 170.585 179.614 171.221C176.429 172.011 173.156 172.387 169.875 172.339C162.121 172.181 154.424 170.974 146.993 168.753C143.19 167.744 139.688 165.829 136.787 163.173C134.557 160.996 133.553 158.711 133.563 156.948C133.55 156.327 133.682 155.711 133.949 155.15C134.215 154.589 134.609 154.098 135.098 153.716C136.347 154.684 137.679 155.539 139.079 156.27C141.332 157.445 143.659 158.472 146.046 159.343C146.206 159.403 146.376 159.431 146.547 159.425C146.718 159.419 146.886 159.379 147.041 159.308C147.197 159.237 147.337 159.136 147.453 159.011C147.57 158.886 147.66 158.739 147.72 158.579C147.78 158.419 147.807 158.249 147.801 158.078C147.795 157.907 147.755 157.739 147.684 157.584C147.613 157.429 147.511 157.289 147.386 157.173C147.261 157.056 147.114 156.966 146.954 156.906C143.923 155.831 141.01 154.449 138.26 152.781C137.12 152.085 136.089 151.226 135.198 150.23C134.592 149.601 134.227 148.778 134.169 147.907C134.172 147.522 134.261 147.143 134.429 146.796C134.699 146.156 135.173 145.623 135.778 145.281C136.467 144.936 137.232 144.772 138.002 144.802C139.31 144.847 140.605 145.073 141.85 145.475C141.984 145.544 142.13 145.587 142.28 145.605C142.735 145.748 143.197 145.901 143.675 146.077C146.105 147.01 148.479 148.081 150.786 149.284C150.939 149.362 151.105 149.409 151.276 149.423C151.446 149.437 151.618 149.417 151.781 149.364C151.944 149.311 152.095 149.227 152.225 149.116C152.355 149.005 152.462 148.869 152.539 148.716C152.617 148.563 152.664 148.397 152.677 148.226C152.69 148.055 152.669 147.884 152.615 147.721C152.562 147.558 152.477 147.408 152.365 147.278C152.253 147.149 152.116 147.042 151.963 146.966L151.963 146.966C149.565 145.716 147.098 144.605 144.573 143.637C144.042 143.443 143.522 143.269 143.007 143.108C142.776 142.889 142.591 142.628 142.461 142.338C142.26 141.88 142.157 141.385 142.16 140.884C142.157 140.374 142.261 139.869 142.466 139.401C142.671 138.934 142.973 138.515 143.351 138.172C144.647 137.142 146.284 136.64 147.935 136.767C148.221 136.767 148.519 136.777 148.831 136.797C152.029 136.893 155.16 137.732 157.978 139.248C158.845 139.74 159.602 140.403 160.205 141.196C160.621 141.738 160.854 142.397 160.872 143.079C160.871 143.27 160.851 143.46 160.811 143.646C160.671 144.356 160.322 145.008 159.809 145.519C159.358 145.956 158.826 146.3 158.243 146.534C157.925 146.667 157.673 146.921 157.542 147.24C157.41 147.559 157.411 147.916 157.544 148.235C157.677 148.553 157.931 148.805 158.25 148.936C158.568 149.068 158.926 149.067 159.244 148.934C160.141 148.57 160.957 148.034 161.648 147.357C162.425 146.571 162.98 145.593 163.257 144.522C166.193 145.315 169.225 145.694 172.266 145.646C174.243 145.651 176.218 145.531 178.18 145.287C178.521 145.238 178.828 145.057 179.035 144.782C179.242 144.507 179.332 144.161 179.284 143.82C179.236 143.479 179.055 143.171 178.781 142.963C178.506 142.756 178.16 142.665 177.819 142.712L177.722 142.725C175.911 142.941 174.09 143.048 172.266 143.046C169.231 143.112 166.204 142.695 163.299 141.811C163.112 141.048 162.781 140.329 162.324 139.69C161.007 138.009 159.251 136.726 157.25 135.981C154.616 134.943 151.83 134.342 149.002 134.202C148.635 134.178 148.28 134.166 147.935 134.167C145.633 134.036 143.367 134.782 141.593 136.256C140.95 136.843 140.437 137.558 140.087 138.355C139.737 139.152 139.557 140.014 139.56 140.884C139.561 141.375 139.621 141.864 139.736 142.341C139.162 142.255 138.582 142.209 138.002 142.202C136.793 142.17 135.596 142.446 134.524 143.003C133.435 143.614 132.574 144.561 132.07 145.703C131.744 146.392 131.573 147.144 131.569 147.907C131.624 149.388 132.203 150.802 133.202 151.897L133.216 151.912C132.551 152.494 132.008 153.203 131.618 153.997C131.18 154.918 130.956 155.927 130.963 156.948C130.973 159.666 132.394 162.504 134.968 165.03C138.172 167.986 142.046 170.119 146.257 171.247C153.926 173.54 161.872 174.782 169.875 174.939C174.484 175.067 179.073 174.302 183.39 172.685C185.342 171.901 187.135 170.77 188.684 169.346C190.243 167.885 191.449 166.089 192.213 164.093C192.337 163.771 192.328 163.413 192.188 163.098C192.049 162.783 191.79 162.536 191.468 162.412Z"/></g></g></svg>