<svg xmlns="http://www.w3.org/2000/svg" width="200" height="200" fill="none"><path fill="#BEBEC9" d="M109.085 103.416c9.557-2.639 15.856-7.147 19.68-12.884 3.827-5.733 5.152-12.572 5.152-19.785a40.878 40.878 0 0 0-2.09-13.707 26.975 26.975 0 0 0-5.128-8.838c-3.49-3.99-8.45-7.216-15.219-9.425-6.772-2.211-15.36-3.425-26.228-3.426-9.66 0-17.52.96-23.903 2.726-9.569 2.64-15.852 7.148-19.655 12.887-3.807 5.735-5.107 12.573-5.107 19.782a40.569 40.569 0 0 0 2.116 13.711 27.057 27.057 0 0 0 5.158 8.836c3.504 3.989 8.473 7.214 15.236 9.423 6.766 2.211 15.335 3.426 26.155 3.427 9.618-.001 17.457-.961 23.833-2.727ZM43.902 89.088c-3.442-5.15-4.715-11.431-4.715-18.341-.087-4.359.569-8.7 1.94-12.837a24.36 24.36 0 0 1 4.634-7.995c3.144-3.588 7.648-6.566 14.07-8.666 6.419-2.099 14.747-3.299 25.421-3.298 9.488 0 17.123.947 23.21 2.632 9.138 2.537 14.759 6.675 18.183 11.82 3.421 5.148 4.672 11.43 4.672 18.344.087 4.358-.577 8.7-1.963 12.833a24.457 24.457 0 0 1-4.663 7.997c-3.159 3.59-7.674 6.567-14.092 8.668-6.413 2.098-14.72 3.299-25.347 3.298-9.445 0-17.06-.948-23.139-2.633-9.126-2.536-14.767-6.675-18.211-11.822Z"/><path fill="#BEBEC9" d="m118.806 91.31-.001.001v.001l.001-.002Z"/><path fill="#BEBEC9" d="M113.987 94.63c.31-.172.614-.347.912-.524a28.103 28.103 0 0 0 3.906-2.795c.265-.226.521-.456.77-.687a1.301 1.301 0 0 0-.839-2.248 1.301 1.301 0 0 0-.932.344c-.224.209-.454.414-.689.616l-.002.001a25.443 25.443 0 0 1-3.545 2.535c-.275.164-.556.325-.841.484a1.304 1.304 0 0 0-.62.778 1.307 1.307 0 0 0 .113.989 1.296 1.296 0 0 0 1.767.507ZM68.933 43.29a46.633 46.633 0 0 0-13.3 4.23 1.3 1.3 0 0 0 1.191 2.311 44.07 44.07 0 0 1 12.561-3.98 1.302 1.302 0 0 0 .876-1.981 1.3 1.3 0 0 0-1.328-.58ZM49.472 51.738a24.474 24.474 0 0 0-2.67 2.841 1.3 1.3 0 0 0 2.031 1.623 21.862 21.862 0 0 1 2.387-2.539 1.3 1.3 0 0 0-1.748-1.925ZM64.3 121.309v-.001l.003-.001-.003.002ZM172.101 148.769l.001.003.001.001-.002-.004ZM174.279 159.4l.003.005.004.002-.007-.007ZM167.13 161.756l-.005-.002.005.002Z"/><path fill="#BEBEC9" d="M174.283 159.405a2.962 2.962 0 0 0-1.112-.7 3.49 3.49 0 0 0-1.163-.187c-.842.04-1.672.21-2.461.503-.347.113-.661.217-.911.285-.134.04-.272.069-.411.088a17.924 17.924 0 0 1-1.864-1.094 5.163 5.163 0 0 1-.797-.664 1.64 1.64 0 0 1-.198-.249l-.047-.094-.003-.01a2.74 2.74 0 0 1-.077-.644 1.669 1.669 0 0 1 .303-1.055c.112-.133.255-.236.417-.299.311-.117.641-.171.973-.16l.096.001.018.001h.045a5.12 5.12 0 0 0 1.493-.253 8.937 8.937 0 0 0 1.923-.873c.262-.156.512-.331.749-.524.114-.094.222-.195.323-.303.128-.136.236-.29.321-.456a5.041 5.041 0 0 0 .582-2.252 3.922 3.922 0 0 0-.379-1.694 1.854 1.854 0 0 0-.61-.719 2.547 2.547 0 0 0-1.012-.403 5.286 5.286 0 0 0-.973-.078c-1.298.054-2.59.202-3.867.442-1.379.223-2.786.454-3.848.515-.943.053-2.008.049-3.131.158a10.9 10.9 0 0 0-2.764.603 25.325 25.325 0 0 0-5.998-2.889 34.396 34.396 0 0 0-10.656-2.015c-.092 0-.183.009-.274.01a28.291 28.291 0 0 0-.661-2.991 35.498 35.498 0 0 0-6.794-12.187 25.377 25.377 0 0 0-5.4-4.923 11.634 11.634 0 0 0-6.265-2.1 8.274 8.274 0 0 0-2.376.346 4.429 4.429 0 0 0-2.657 1.98 5.605 5.605 0 0 0-.688 2.568c-.681.064-1.245.153-1.908.275a21.222 21.222 0 0 0-1.282-3.215 7.983 7.983 0 0 0-.908-1.411 3.626 3.626 0 0 0-1.215-.995 10.32 10.32 0 0 0-1.938-.644 66.31 66.31 0 0 0-9.68-1.298l-.004-.001c-.687-.051-1.397-.102-2.117-.151v-3.289a83.516 83.516 0 0 0 18.956-3.407c11.612-3.671 19.328-9.974 24.027-18.084a42.273 42.273 0 0 0 3.822-8.893c.194.098.409.144.626.135a16.674 16.674 0 0 0 2.331-.36 9.881 9.881 0 0 0 4.135-1.837 6.471 6.471 0 0 0 1.348-1.734 19.284 19.284 0 0 0 1.64-4.043 33.424 33.424 0 0 0 1.104-5.507c.167-1.418.253-2.845.256-4.274a24.685 24.685 0 0 0-.325-4.205 8.793 8.793 0 0 0-1.012-3.043 6.951 6.951 0 0 0-2.112-2.085l-.042-.025a8.332 8.332 0 0 0 1.652-2.86c.62-1.86 1.005-3.79 1.145-5.746.935-9.897 2.461-27.747 2.793-32.804.015-.232.023-.457.023-.677a7.129 7.129 0 0 0-.351-2.319 4.641 4.641 0 0 0-1.751-2.365 5.302 5.302 0 0 0-2.451-.87 6.166 6.166 0 0 0-.677-.037 5.103 5.103 0 0 0-3.414 1.228 5.893 5.893 0 0 0-1.833 3.99c-.409 4.228-1.752 20.546-2.622 31.183a54.012 54.012 0 0 0-.498-1.822c-2.812-9.428-8.229-17.577-17.347-23.268-9.114-5.697-21.828-8.947-39.248-8.947-11.615 0-21.13 1.445-28.892 4.095-11.64 3.965-19.322 10.709-23.98 19.162a46.838 46.838 0 0 0-4.374 11.369c-.867-10.612-2.253-27.464-2.67-31.772a5.891 5.891 0 0 0-1.833-3.99 5.104 5.104 0 0 0-3.414-1.228 6.18 6.18 0 0 0-.677.038 5.009 5.009 0 0 0-3.169 1.487 4.797 4.797 0 0 0-1.033 1.747 7.128 7.128 0 0 0-.35 2.319c0 .22.007.445.022.677.332 5.057 1.859 22.907 2.793 32.804.133 2.457.708 4.87 1.699 7.123a7.113 7.113 0 0 0 1.38 1.953 6.438 6.438 0 0 0-1.5 1.64 8.812 8.812 0 0 0-1.012 3.041 24.72 24.72 0 0 0-.324 4.204 37.08 37.08 0 0 0 .257 4.277 31.51 31.51 0 0 0 1.605 7.038c.309.867.689 1.708 1.137 2.512.348.65.804 1.237 1.348 1.734a9.88 9.88 0 0 0 4.136 1.837 16.97 16.97 0 0 0 2.257.354c.012.039.021.08.034.119a37.712 37.712 0 0 0 17.435 22.212c7.601 4.442 17.683 7.228 30.86 8.037v2.898c-.592.023-1.178.048-1.747.077-.022.001-.042.01-.063.012-2.457.127-4.677.326-6.514.612-.834.124-1.66.293-2.475.507a8.172 8.172 0 0 0-1.886.729 13.175 13.175 0 0 0-3.614 3.202c-.195-.082-.378-.175-.588-.243a9.124 9.124 0 0 0-2.802-.423 17.448 17.448 0 0 0-8.526 2.748 44.078 44.078 0 0 0-11.402 10.121 33.902 33.902 0 0 0-3.754 5.661 11.734 11.734 0 0 0-1.506 5.055l.006.248a7.082 7.082 0 0 0 .82 3.068c.4.734.93 1.388 1.565 1.932a8.48 8.48 0 0 0-1.144 4.371c.012 3.49 1.694 7.48 5.011 11.766a25.23 25.23 0 0 0 5.648 5.654 7.846 7.846 0 0 0 6.12 1.433c.127.376.306.733.532 1.061a4.687 4.687 0 0 0 2.167 1.712 5.53 5.53 0 0 0 2.382.351c.027.245.052.497.08.737.226 2.013.554 4.014.985 5.994a18.251 18.251 0 0 0 1.402 4.231 1.31 1.31 0 0 0 .762.64 1.304 1.304 0 0 0 1.387-.405 1.308 1.308 0 0 0 .3-.949 1.305 1.305 0 0 0-.143-.487 15.92 15.92 0 0 1-1.172-3.605c-.57-2.7-.97-5.434-1.194-8.185.38.11.765.217 1.164.319.006.001.01.006.016.007.016.004.032.005.05.008a71.673 71.673 0 0 0 9.924 1.656c5.23.514 10.483.761 15.738.74 6.716.016 13.429-.343 20.105-1.075l.025-.002.003-.001.121-.013a69.592 69.592 0 0 0 7.329-1.199c.871-.193 1.729-.44 2.569-.738l.019-.008a120.354 120.354 0 0 1-.81 12.514 1.3 1.3 0 0 0 2.58.326c.62-5.43.909-10.892.866-16.356a236.39 236.39 0 0 0-2.337-32.771c-.07-.477-.143-.943-.217-1.408.596-.039 1.099-.069 1.533-.096a76.887 76.887 0 0 0 3.407 9.215 16.161 16.161 0 0 0 4.699 6.528 8.553 8.553 0 0 0 5.034 1.784c.143.288.3.569.471.841a20.519 20.519 0 0 0 2.885 3.409 31.598 31.598 0 0 0 6.678 4.744 35.269 35.269 0 0 0 3.971 1.889 16.99 16.99 0 0 0 3.703 1.064 18.43 18.43 0 0 0 2.665.205 12.151 12.151 0 0 0 4.399-.784c.299.126.608.229.922.31a7.07 7.07 0 0 0 1.682.216 3.882 3.882 0 0 0 1.647-.319 2.75 2.75 0 0 0 .282-.167c.043.022.079.043.126.064.56.261 1.165.41 1.782.44.154.007.305.011.452.011a5.873 5.873 0 0 0 3.064-.731c.195-.122.364-.28.5-.465.178-.248.323-.519.431-.805.038-.096.069-.207.104-.309a13.19 13.19 0 0 0 1.664.517c.47.118.952.182 1.437.191a4.883 4.883 0 0 0 1.728-.397 21.152 21.152 0 0 0 2.347-1.151c.349-.191.665-.368.913-.5.124-.065.231-.12.309-.158l.093-.042.022-.009a1.86 1.86 0 0 0 .823-.562c.244-.296.417-.644.506-1.018.08-.323.12-.655.118-.988a4.539 4.539 0 0 0-.181-1.279 2.878 2.878 0 0 0-.702-1.238Zm-15.369-8.131c.954-.094 1.978-.093 3.025-.149l.004-.001c1.281-.076 2.735-.322 4.111-.543a25.388 25.388 0 0 1 3.454-.409c.115-.001.231.004.346.015.019.092.028.185.028.279a1.071 1.071 0 0 1-.562 1.21 6.447 6.447 0 0 1-1.17.597 3.263 3.263 0 0 1-1.059.254h-.023l-.136-.002a5.08 5.08 0 0 0-1.979.363 3.616 3.616 0 0 0-1.857 1.716 4.508 4.508 0 0 0-.457 2.035c.001.246.019.493.054.737a5.569 5.569 0 0 0-.947.087 2.674 2.674 0 0 0-1.082.433 2.44 2.44 0 0 0-.578.621 6.21 6.21 0 0 0-.517.973l-.013-.144a11.125 11.125 0 0 0-.145-1.046 1.642 1.642 0 0 0-.474-.842 2.02 2.02 0 0 0-.922-.487 3.394 3.394 0 0 0-.828-.094 6.125 6.125 0 0 0-2.52.59 4.453 4.453 0 0 0-1.179.792 2.869 2.869 0 0 0-.824 1.384l1.264.305-1.264-.305a16.012 16.012 0 0 0-.317 3.528c0 .082.003.157.003.237a15.255 15.255 0 0 1-.477-.5c-.005-.007-.007-.015-.013-.022a5.12 5.12 0 0 1-1.496-3.344 3.801 3.801 0 0 1 .404-1.673 6.562 6.562 0 0 1 1.507-1.929c.21-.19.43-.369.659-.535l.187-.13.042-.028.007-.004v-.001a1.31 1.31 0 0 0 .48-.524 7.7 7.7 0 0 1 .754-1.208 5.085 5.085 0 0 1 1.902-1.58l.008-.003a7.56 7.56 0 0 1 2.6-.653Zm-9.099 3.448a8.539 8.539 0 0 0-1.386 2.013 6.39 6.39 0 0 0-.665 2.807c.001.474.058.946.168 1.407a4.345 4.345 0 0 1 2.613-6.95c-.231.209-.479.449-.73.723Zm-35.765-23.09a145.39 145.39 0 0 1-.269-1.888c.153-.021.308-.04.473-.056a55.144 55.144 0 0 0 1.326 6.651l-.719.044a104.668 104.668 0 0 1-.811-4.751ZM150.436 64.6a22.18 22.18 0 0 1 .286 3.756 34.473 34.473 0 0 1-.239 3.973 28.969 28.969 0 0 1-1.466 6.447 14 14 0 0 1-.952 2.114 4.12 4.12 0 0 1-.773 1.041 7.505 7.505 0 0 1-3.026 1.284 15.15 15.15 0 0 1-1.69.279 71.35 71.35 0 0 0 1.902-17.282c0-2.257-.082-4.48-.246-6.669.818.177 1.619.42 2.397.727a9.944 9.944 0 0 1 1.863.957c.509.323.946.748 1.282 1.25.341.664.565 1.383.662 2.123Zm-2.881-47.812c.012-.86.358-1.68.964-2.29a2.508 2.508 0 0 1 1.695-.578c.131 0 .262.008.393.022a2.424 2.424 0 0 1 1.557.682c.213.234.373.51.469.811.151.477.222.976.211 1.476 0 .16-.006.329-.017.508-.327 4.982-1.856 22.866-2.787 32.729a17.068 17.068 0 0 1-1.428 6.088 4.301 4.301 0 0 1-.845 1.175c-.138.13-.288.244-.45.342a18.497 18.497 0 0 0-.977-.34c-.59-.188-1.191-.34-1.799-.46a1.25 1.25 0 0 0-.339.008l.406-5c.809-9.93 2.487-30.414 2.947-35.173ZM20.263 50.148c-.931-9.863-2.46-27.747-2.787-32.73a7.548 7.548 0 0 1-.017-.507c-.011-.5.06-.999.21-1.476.13-.432.401-.808.77-1.068.377-.243.81-.39 1.258-.425.13-.014.26-.022.392-.022a2.506 2.506 0 0 1 1.695.579c.606.609.952 1.43.964 2.289.306 3.168 1.155 13.339 1.926 22.699A14919.045 14919.045 0 0 1 26.11 57.08a18.11 18.11 0 0 0-2.315.717c-.197.076-.406.178-.61.266a3.546 3.546 0 0 1-1.486-1.71 18.017 18.017 0 0 1-1.436-6.205Zm6.505 33.018a7.206 7.206 0 0 1-2.821-1.235 4.117 4.117 0 0 1-.773-1.041 16.832 16.832 0 0 1-1.403-3.488c-.48-1.66-.82-3.356-1.014-5.073a34.51 34.51 0 0 1-.24-3.976 22.186 22.186 0 0 1 .286-3.754c.098-.74.322-1.458.662-2.123.35-.518.805-.956 1.337-1.285.894-.56 1.86-.996 2.871-1.296.21-.066.404-.12.581-.169a91.074 91.074 0 0 0-.227 6.486 71.43 71.43 0 0 0 1.884 17.182 14.554 14.554 0 0 1-1.143-.228Zm7.926 10.398c-4.38-7.538-6.069-16.875-6.067-27.352-.108-6.61.742-13.201 2.523-19.568 2.69-8.958 7.684-16.453 16.233-21.809 8.553-5.35 20.762-8.552 37.87-8.551 11.401 0 20.635 1.422 28.051 3.956 11.125 3.812 18.17 10.06 22.547 17.959 4.369 7.9 6.029 17.535 6.027 28.013a64.885 64.885 0 0 1-2.547 19.239 35.073 35.073 0 0 1-16.265 20.74c-8.559 5.009-20.769 7.935-37.814 7.934-11.36 0-20.58-1.298-27.993-3.65-11.124-3.539-18.178-9.377-22.565-16.911Zm50.558 23.161c2.512 0 4.907-.074 7.225-.197v4.339c.008.072.023.144.043.214.01.086.026.17.052.253.034.075.076.147.126.214.133.18.295.337.478.466-.345.155-.704.306-1.082.445a18.2 18.2 0 0 1-6.268 1.138 15.508 15.508 0 0 1-7.193-1.74c.06-.011.118-.025.175-.043.078-.041.15-.09.217-.146a.698.698 0 0 0 .334-.349 1.23 1.23 0 0 0 .13-.205 1.3 1.3 0 0 0 .05-.254 1.22 1.22 0 0 0 .048-.234v-4.019c1.834.075 3.716.118 5.665.118Zm-30.756 55.009v-.002c-.007 0-.065.005-.158.005-.392 0-.78-.071-1.147-.208a2.101 2.101 0 0 1-1.125-.978 1.604 1.604 0 0 1-.208-.775 1.271 1.271 0 0 1 .285-.812c.064.028.13.068.194.092a5.848 5.848 0 0 0 2.093.387c.055 0 .089-.003.134-.004.025.779.056 1.549.093 2.31a1.084 1.084 0 0 0-.161-.015Zm.004-4.893-.07.002c-.392 0-.78-.071-1.146-.208a2.101 2.101 0 0 1-1.126-.978 1.604 1.604 0 0 1-.208-.774c-.005-.331.12-.651.348-.891.131-.13.288-.23.46-.295.173-.066.357-.095.541-.085.276.004.549.051.81.14.121.033.247.048.373.044 0 .16-.004.323-.004.483 0 .861.009 1.714.022 2.562Zm.25-11.85c-1.648-1.35-3.243-2.652-4.86-3.756 1.404-1.466 3.63-3.844 5.918-6.602-.493 3.24-.843 6.75-1.057 10.358Zm2.22-19.433a3.672 3.672 0 0 1 .547-4.494 33.473 33.473 0 0 0-.548 4.494Zm-21.722 9.517a25.265 25.265 0 0 1 3.445-5.832 44.03 44.03 0 0 1 8.98-8.829c3.36-2.435 6.869-3.988 9.625-3.97a6.512 6.512 0 0 1 1.901.274c-.177.312-.348.628-.506.958a1.261 1.261 0 0 0-.64.04 6.325 6.325 0 0 0-1.682 11.026c.104.069.216.123.335.16-.014.148-.033.29-.049.436-.164.225-.332.45-.502.676a111.85 111.85 0 0 1-8.537 9.834c-.27-.141-.544-.274-.82-.398a1.263 1.263 0 0 0-.063-.709 5.801 5.801 0 0 0-9.307-1.973 5.8 5.8 0 0 0-1.743 3.213c-.004.067-.003.135.005.202a4.117 4.117 0 0 1-.464-.669 4.477 4.477 0 0 1-.513-1.953l-.003-.132c.04-.81.222-1.607.538-2.354Zm8.085 3.391a8.948 8.948 0 0 0-.968-.056 9.452 9.452 0 0 0-3.558.728 3.164 3.164 0 0 1 4.526-.672Zm2.12 23.835a22.778 22.778 0 0 1-5.03-5.081c-3.11-3.995-4.478-7.558-4.466-10.172a5.505 5.505 0 0 1 3.347-5.304 6.996 6.996 0 0 1 3.06-.734 9.805 9.805 0 0 1 5.072 1.718 54.512 54.512 0 0 1 5.706 4.306c.385.316.758.642 1.112.973.101.086.215.157.338.208-.037.987-.065 1.976-.084 2.965a5.09 5.09 0 0 0-1.209-.168 3.947 3.947 0 0 0-2.865 1.167 3.866 3.866 0 0 0-1.084 2.704 4.21 4.21 0 0 0 .529 2.024c.084.14.175.274.274.404a3.864 3.864 0 0 0-.895 2.465 4.21 4.21 0 0 0 .528 2.025c.175.316.386.61.63.876-.11.19-.201.389-.276.595-.014.003-.028-.003-.042.001-.443.1-.895.153-1.349.158a5.77 5.77 0 0 1-3.295-1.13Zm9.39 4.137a2.986 2.986 0 0 1-1.063-.186 2.065 2.065 0 0 1-.976-.773 1.564 1.564 0 0 1-.296-.895c.002-.177.04-.352.114-.513a6.014 6.014 0 0 0 1.716.266 4.31 4.31 0 0 0 .425-.019c.014-.002.024-.01.038-.012.048.723.102 1.432.162 2.126-.042.002-.073.006-.12.006Zm14.205-.038a87.522 87.522 0 0 1-3.136-.382c1.52-.817 2.96-1.777 4.562-2.569a15.071 15.071 0 0 1 6.98-1.697c1.95.031 3.884.379 5.723 1.031 2.841.941 5.705 2.408 8.819 3.673.4.163.806.321 1.217.475-2.82.127-5.752.196-8.697.195a151.887 151.887 0 0 1-15.468-.726Zm44.722-2.142a28.517 28.517 0 0 1-4.555 1.109 83.854 83.854 0 0 1-4.863.698c-.664.072-1.332.108-2 .108-4.497.003-8.392-1.641-12.34-3.398-1.97-.875-3.948-1.772-6.015-2.459a20.582 20.582 0 0 0-6.543-1.164 19.106 19.106 0 0 0-10.162 3.074c-1.266.74-2.387 1.444-3.444 1.937a7.184 7.184 0 0 1-3.094.782 6.218 6.218 0 0 1-1.333-.151 34.322 34.322 0 0 1-2.019-.582 147.417 147.417 0 0 1-.324-9.932 122.423 122.423 0 0 1 1.835-22.382c.327-1.95.537-3.918.63-5.893.061-1.678.277-3.347.645-4.985l.002-.006a13.78 13.78 0 0 1 2.275-4.578 10.844 10.844 0 0 1 3.126-2.87l.004-.002a5.752 5.752 0 0 1 1.275-.476 41.115 41.115 0 0 1 7.444-.974 18.05 18.05 0 0 0 11.513 4.083 20.802 20.802 0 0 0 7.17-1.3 16.41 16.41 0 0 0 4.501-2.462c2.406.197 4.587.438 6.34.717.938.149 1.757.308 2.418.471.494.11.976.266 1.44.466.13.08.243.185.333.308a8.761 8.761 0 0 1 1.19 2.263 49.704 49.704 0 0 1 2.146 8c1.996 10.022 3.36 25.159 3.358 38.514 0 .217-.003.43-.004.647a5.26 5.26 0 0 1-.949.437Zm12.209-21.688a13.643 13.643 0 0 1-3.894-5.511 74.121 74.121 0 0 1-3.587-9.885v-.001a54.593 54.593 0 0 1-1.7-8.081v-.002a9.17 9.17 0 0 1-.071-.826l-.001-.014v-.001l-.001-.021a9.613 9.613 0 0 1-.019-.596 3.56 3.56 0 0 1 .352-1.793 1.812 1.812 0 0 1 1.161-.807 5.666 5.666 0 0 1 1.631-.237 9.093 9.093 0 0 1 4.849 1.68 26.558 26.558 0 0 1 6.955 7.225 30.812 30.812 0 0 1 4.152 8.409c.252.897.44 1.726.579 2.501-.135.023-.265.062-.399.089a5.558 5.558 0 0 0-2.829-.782 5.586 5.586 0 0 0-2.946.818 5.6 5.6 0 0 0-1.587 8.107c-.002.079-.015.161-.015.239 0 .228.033.445.055.667a5.953 5.953 0 0 1-2.685-1.178Zm21.546 13.231a14.585 14.585 0 0 1-3.122-.91 35.246 35.246 0 0 1-5.482-2.81 25.236 25.236 0 0 1-4.284-3.243 18.11 18.11 0 0 1-2.526-2.96 5.123 5.123 0 0 1-.902-2.797c.001-.188.013-.376.036-.562v-.002a6.765 6.765 0 0 1 .654-2.108c.058-.119.132-.214.196-.325l1.539-1.694c.341-.24.703-.446 1.083-.617a11.537 11.537 0 0 1 4.527-.787c3.342.106 6.646.736 9.792 1.867a26.86 26.86 0 0 1 4.382 1.924c-.242.216-.47.446-.683.69-.019-.005-.033-.019-.053-.023a6.958 6.958 0 0 0-8.217 5.938 6.95 6.95 0 0 0 5.133 7.612c.216.052.442.045.655-.018.105.109.203.218.315.33l.015.015c.207.198.424.385.651.561-.471.061-.945.093-1.419.096a15.954 15.954 0 0 1-2.29-.177Zm7.734-.379a2.221 2.221 0 0 1-.244-.11 37.449 37.449 0 0 1-.068-2.141c-.022-.978.06-1.955.244-2.916a.594.594 0 0 1 .16-.175c.258-.195.549-.341.859-.432.242-.077.493-.127.747-.149l.013.117c.126 1.209.267 3.364.266 4.914.001.46-.014.871-.038 1.16a2.016 2.016 0 0 1-.38.03 4.643 4.643 0 0 1-1.559-.298Zm5.524.319a2.17 2.17 0 0 1-.808-.197 1.51 1.51 0 0 1-.158-.087c.008-.183.009-.388.012-.588a1.29 1.29 0 0 0 1.236-1.262c.023-.273.069-.544.137-.81.157-.662.361-1.313.61-1.947.097-.252.211-.498.34-.735l.059-.092a2.98 2.98 0 0 1 .589-.052c.298 0 .595.031.886.095-.019.273-.052.628-.103 1.026a30.319 30.319 0 0 1-.546 3.107 9.52 9.52 0 0 1-.338 1.154c-.02.053-.039.095-.056.133a3.842 3.842 0 0 1-1.536.263c-.103 0-.211-.003-.324-.008Zm11.566-3.48c-.609.308-1.439.799-2.265 1.214a11.11 11.11 0 0 1-1.143.509 2.321 2.321 0 0 1-.634.163 3.943 3.943 0 0 1-.843-.122 12.079 12.079 0 0 1-1.627-.528 35.933 35.933 0 0 0 .347-2.253c.364.205.695.379.942.51.322.166.68.249 1.042.244.391-.01.779-.072 1.154-.184.529-.146 1.038-.332 1.511-.472.38-.127.775-.203 1.175-.224a.898.898 0 0 1 .3.04l.128.08c.09.217.135.449.13.684.001.081-.005.163-.018.244l-.199.095Z"/><path fill="#BEBEC9" d="m164.843 129.532 6.281.788 3.477-5.984-6.281-.788-3.477 5.984Z"/><path fill="#BEBEC9" d="m190.54 111.514-8.304-15.696a9.906 9.906 0 0 0-3.394-3.478 11.5 11.5 0 0 0-4.7-1.8l-19.696-2.419a7.383 7.383 0 0 0-.9-.057 4.389 4.389 0 0 0-2.681.785c-.376.282-.681.65-.889 1.071a3.11 3.11 0 0 0-.306 1.364c.019.738.217 1.46.578 2.104a1.3 1.3 0 1 0 2.298-1.216 1.979 1.979 0 0 1-.275-.888.492.492 0 0 1 .042-.223.506.506 0 0 1 .265-.225 2.29 2.29 0 0 1 .968-.172c.195 0 .389.013.582.038l3.922.481 2.717 5.045-6.817-.854a1.298 1.298 0 0 0-1.457 1.127 1.295 1.295 0 0 0 .265.962 1.294 1.294 0 0 0 .868.49l8.653 1.085 2.748 5.104-6.754-.847a1.294 1.294 0 0 0-.962.261 1.294 1.294 0 0 0-.458 1.374 1.295 1.295 0 0 0 1.097.945l8.59 1.077 2.71 5.034c-1.219-.179-2.291-.284-3.298-.42a9.717 9.717 0 0 1-2.591-1.187 7.41 7.41 0 0 1-2.511-2.511 1.3 1.3 0 0 0-2.298 1.216 8.186 8.186 0 0 0 1.429 1.895v.733a24.416 24.416 0 0 1-.169 2.689 12.074 12.074 0 0 1-.265 1.498 2.764 2.764 0 0 1-.296.792c-.531.741-1.154 1.771-1.859 3.003-2.103 3.681-4.885 9.136-6.801 12.534-.43.74-.814 1.506-1.149 2.294a5.115 5.115 0 0 0-.441 1.881 2.5 2.5 0 0 0 .484 1.515c.226.296.51.544.833.728.44.242.908.43 1.393.559.491.143 1.023.271 1.607.421l.323-1.259-.323 1.259c.969.247 2.248.484 3.707.715 4.371.688 10.306 1.297 13.11 1.489.354.024.702.036 1.046.036a11.502 11.502 0 0 0 4.827-.976 8.627 8.627 0 0 0 3.536-2.952c.463-.674 1.218-1.919 2.15-3.502a484.343 484.343 0 0 0 4.656-8.134 406.679 406.679 0 0 0 2.006-3.614c.559-1.02.976-1.797 1.197-2.24a5.836 5.836 0 0 0 .713-2.558 3.153 3.153 0 0 0-.502-1.739c.052-.035.11-.059.161-.097.376-.282.68-.649.888-1.071a3.09 3.09 0 0 0 .305-1.363 4.533 4.533 0 0 0-.578-2.106Zm-8.211-9.961 2.696 5.097-6.794-.852-2.748-5.104 6.846.859Zm-3.013 11.745-3.136-.385a809.707 809.707 0 0 1-3.738-.483l-2.735-5.081 6.87.862 2.739 5.087Zm-5.491-20.178c1.289.2 2.519.678 3.604 1.402a7.425 7.425 0 0 1 2.509 2.511l.906 1.713-6.874-.862-2.736-5.082 2.591.318Zm-9.892 3.506-2.721-5.055 6.86.843 2.731 5.073-6.87-.861Zm4.261 7.913-2.748-5.103 6.87.861 2.748 5.104-6.87-.862Zm15.328 20.915-6.118-.767-3.478 5.984 5.316.667a1.31 1.31 0 0 1 .868.491 1.295 1.295 0 0 1 .265.961 1.295 1.295 0 0 1-.949 1.093 1.3 1.3 0 0 1-.508.035l-6.411-.804-3.373 5.805a1.298 1.298 0 0 1-2.38-.32 1.297 1.297 0 0 1 .132-.986l2.818-4.851-6.281-.787-3.108 5.349a1.295 1.295 0 0 1-1.297.635 1.306 1.306 0 0 1-1.083-.956 1.29 1.29 0 0 1 .132-.986l2.554-4.394-4.619-.579a1.31 1.31 0 0 1-.868-.491 1.297 1.297 0 0 1 .684-2.054c.165-.045.338-.057.507-.035l5.715.717 3.477-5.985-4.647-.582a1.31 1.31 0 0 1-.869-.491 1.3 1.3 0 0 1 1.192-2.089l5.743.72 3.164-5.446a1.283 1.283 0 0 1 .791-.603 1.29 1.29 0 0 1 .986.132 1.3 1.3 0 0 1 .471 1.778l-2.61 4.491 6.282.787 3.107-5.346a1.297 1.297 0 0 1 1.777-.471 1.298 1.298 0 0 1 .471 1.777l-2.552 4.392 5.023.63a1.292 1.292 0 0 1 1.096.945 1.295 1.295 0 0 1-.457 1.373 1.297 1.297 0 0 1-.963.261Zm4.954-11.611a.505.505 0 0 1-.263.223 2.295 2.295 0 0 1-.968.172 4.984 4.984 0 0 1-.586-.038l-4.181-.513-2.735-5.079 6.767.848 1.732 3.273c.161.271.256.577.276.891a.488.488 0 0 1-.042.223Z"/><path fill="#FFE632" d="M77.91 64.169a20.7 20.7 0 0 0-2.13-9.472 10.11 10.11 0 0 0-2.763-3.373 6.653 6.653 0 0 0-4.502-1.367 7.428 7.428 0 0 0-4.078 1.546 11.81 11.81 0 0 0-3.714 5.488 21.557 21.557 0 0 0-1.18 7.169 18.537 18.537 0 0 0 2.105 9.008 9.337 9.337 0 0 0 2.84 3.166 7.342 7.342 0 0 0 4.162 1.256c.134 0 .27-.004.407-.01a7.6 7.6 0 0 0 4.082-1.395 10.633 10.633 0 0 0 3.66-5.176 20.361 20.361 0 0 0 1.11-6.84Zm-4.286 7.575a6.903 6.903 0 0 1-1.988 2.32 4.983 4.983 0 0 1-2.705.919 5.545 5.545 0 0 1-.281.007 4.724 4.724 0 0 1-2.71-.812 7.983 7.983 0 0 1-2.793-3.94 17.755 17.755 0 0 1-1.004-6.078 17.465 17.465 0 0 1 1.801-8.044 7.856 7.856 0 0 1 2.072-2.547 4.814 4.814 0 0 1 2.667-1.017l-.084-1.297.084 1.297a4.036 4.036 0 0 1 2.771.85 9.145 9.145 0 0 1 2.809 4.301 19.76 19.76 0 0 1 1.047 6.466 16.014 16.014 0 0 1-1.686 7.575ZM106.258 51.324a6.653 6.653 0 0 0-4.502-1.367 7.43 7.43 0 0 0-4.078 1.546 11.808 11.808 0 0 0-3.714 5.488 21.557 21.557 0 0 0-1.18 7.169 18.537 18.537 0 0 0 2.106 9.008 9.337 9.337 0 0 0 2.84 3.167 7.342 7.342 0 0 0 4.161 1.255c.135 0 .27-.004.407-.01a7.6 7.6 0 0 0 4.082-1.395 10.637 10.637 0 0 0 3.661-5.176 20.381 20.381 0 0 0 1.11-6.84 20.696 20.696 0 0 0-2.13-9.472 10.117 10.117 0 0 0-2.763-3.373Zm.608 20.42a6.909 6.909 0 0 1-1.989 2.32 4.985 4.985 0 0 1-2.705.919 5.546 5.546 0 0 1-.281.007 4.724 4.724 0 0 1-2.71-.812 7.983 7.983 0 0 1-2.793-3.94 17.752 17.752 0 0 1-1.004-6.078 17.465 17.465 0 0 1 1.802-8.044 7.856 7.856 0 0 1 2.071-2.547 4.814 4.814 0 0 1 2.667-1.017l-.084-1.297.084 1.297a4.034 4.034 0 0 1 2.771.85 9.145 9.145 0 0 1 2.809 4.301 19.768 19.768 0 0 1 1.047 6.466 16.016 16.016 0 0 1-1.685 7.575ZM95.687 86.322a54.903 54.903 0 0 0-10.259-.878 74.924 74.924 0 0 0-9.568.599 1.301 1.301 0 0 0-1.101 1.482 11.243 11.243 0 0 0 1.843 4.361 9.929 9.929 0 0 0 3.31 3.011 11.412 11.412 0 0 0 5.641 1.356 12.068 12.068 0 0 0 5.67-1.298c1.88-.997 3.421-2.53 4.43-4.404.474-.843.83-1.747 1.059-2.687a1.3 1.3 0 0 0-1.025-1.542Zm-5.776 6.384a9.527 9.527 0 0 1-4.358.947 8.808 8.808 0 0 1-4.376-1.027 7.678 7.678 0 0 1-3.154-3.448 9.086 9.086 0 0 1-.313-.736 76.533 76.533 0 0 1 7.718-.398c2.768-.01 5.534.188 8.272.591a8.895 8.895 0 0 1-1.218 1.993 7.842 7.842 0 0 1-2.57 2.078ZM161.127 108.45l-.005-.009-8.494-15.78-.001.001a5.914 5.914 0 0 0-1.479-1.894 3.342 3.342 0 0 0-2.095-.792 3.07 3.07 0 0 0-1.846.637c-.528.415-.96.941-1.264 1.54l-.002-.001-9.91 17.449-.009.017a9.709 9.709 0 0 0-.959 4.439 11.629 11.629 0 0 0 1.171 5.222l.004.008 8.393 15.678.001-.001a5.894 5.894 0 0 0 1.481 1.898 3.332 3.332 0 0 0 2.094.793 3.072 3.072 0 0 0 1.847-.638 4.624 4.624 0 0 0 1.258-1.534l.004.002 10.011-17.352.012-.022a9.717 9.717 0 0 0 .959-4.441 11.62 11.62 0 0 0-1.171-5.22Zm-3.436 10.782-2.959-5.497 3.259-5.626.828 1.538a9.084 9.084 0 0 1 .879 4.023 7.22 7.22 0 0 1-.657 3.223l-1.35 2.339Zm-4.794 8.309-2.969-5.514 3.273-5.65 2.96 5.497.004.004-3.268 5.663Zm-12.104-5.255 3.259-5.69 2.898 5.385-3.285 5.671-2.872-5.366Zm-2.251-4.203a9.108 9.108 0 0 1-.879-4.026 7.216 7.216 0 0 1 .657-3.222l1.35-2.377 2.93 5.442-3.255 5.682-.803-1.499Zm5.886-18.002 2.949 5.478-3.255 5.683-2.936-5.453 3.242-5.708Zm1.146 13.858 3.255-5.683 2.925 5.432-3.273 5.651-2.907-5.4Zm10.969-8.519-3.259 5.626-2.933-5.448 3.242-5.659 2.95 5.481Zm-8.331-12.003.009-.018c.129-.271.315-.512.546-.705a.463.463 0 0 1 .286-.118.769.769 0 0 1 .462.216c.341.302.618.67.813 1.083l.006.01 1.845 3.43a1.271 1.271 0 0 0-.23.262l-3.05 5.325-2.956-5.49 2.269-3.995Zm.839 40.789-.012.023a2.09 2.09 0 0 1-.546.708.467.467 0 0 1-.286.118.76.76 0 0 1-.46-.215 3.407 3.407 0 0 1-.815-1.086l-.005-.009-.003-.007-1.836-3.429c.045-.044.086-.09.124-.14l3.186-5.5 2.972 5.52-2.319 4.017Z"/></svg>