<svg xmlns="http://www.w3.org/2000/svg" width="200" height="200" fill="none"><path fill="#FFE632" d="m69.24 148.867-.12.207a1.3 1.3 0 0 0 2.244 1.313l.12-.207a1.3 1.3 0 0 0-2.243-1.313ZM90.344 145.469l-.121.207a1.3 1.3 0 1 0 2.244 1.313l.121-.207a1.3 1.3 0 0 0-2.244-1.313ZM88.967 154.425l-.121.207a1.3 1.3 0 1 0 2.244 1.313l.121-.207a1.3 1.3 0 0 0-2.244-1.313ZM95.37 151.985l-.12.207a1.3 1.3 0 0 0 2.249 1.305l.12-.207a1.3 1.3 0 1 0-2.249-1.305ZM109.692 49.983c2.26-1.373 4.357-2.033 5.999-2.027.788 0 1.47.144 2.06.413.879.409 1.595 1.09 2.153 2.238.552 1.145.904 2.767.903 4.9a1.3 1.3 0 0 0 2.6 0c-.002-3.209-.687-5.716-2.061-7.494a6.682 6.682 0 0 0-2.513-2.008c-.969-.444-2.037-.65-3.142-.649-2.313.006-4.802.867-7.345 2.402a1.3 1.3 0 1 0 1.347 2.225h-.001ZM109.702 38.81c1.944 1.058 3.624 1.869 5.118 2.427 1.495.556 2.811.87 4.044.872.888.001 1.738-.174 2.496-.55 1.144-.566 2.002-1.54 2.659-2.735.663-1.203 1.165-2.66 1.631-4.41a1.3 1.3 0 0 0-2.513-.667c-.575 2.19-1.214 3.732-1.896 4.594-.341.435-.673.706-1.036.887-.364.179-.779.28-1.341.28-.773.003-1.816-.213-3.134-.707-1.318-.49-2.906-1.25-4.785-2.275a1.3 1.3 0 1 0-1.243 2.284ZM133.665 37.861c-3.119.987-5.256 1.942-6.73 3.048-.735.555-1.31 1.162-1.703 1.847a4.325 4.325 0 0 0-.582 2.175c.002.89.251 1.723.605 2.525.535 1.204 1.32 2.379 2.163 3.648.843 1.266 1.749 2.617 2.543 4.096a1.3 1.3 0 1 0 2.291-1.23c-1.162-2.161-2.481-3.978-3.461-5.51-.491-.765-.894-1.457-1.158-2.056-.267-.6-.384-1.092-.383-1.473.004-.319.065-.574.238-.882.256-.455.839-1.044 1.968-1.685 1.123-.64 2.76-1.321 4.99-2.023a1.3 1.3 0 1 0-.781-2.48Z"/><path fill="#BEBEC9" d="M95.492 11.143c.4 0 .788 0 1.178.01h.041a1.3 1.3 0 0 0 0-2.6h-.01v1.3l.031-1.3c-.43-.01-.84-.01-1.24-.01a1.3 1.3 0 1 0 0 2.6Z"/><path fill="#FFE632" d="m82.581 141.775.101 21.791c-.01.004 0 0 0 0v.001c-.021.027-.214.155-.513.241-.298.09-.696.152-1.129.151-.614.004-1.163-.131-1.445-.271l-.156-.09-.04-.032.01.014-.01-.014.01.014s.026.029 0 0l.091-21.578a1.3 1.3 0 0 0-2.6 0v21.893c-.002.565.25 1.059.547 1.39.455.503 1.002.776 1.604.977a6.474 6.474 0 0 0 1.99.297c.954-.003 1.826-.174 2.571-.528.372-.18.72-.408 1.021-.746.297-.33.55-.825.548-1.39v-22.12a1.3 1.3 0 1 0-2.6 0ZM85.18 109.416a2.105 2.105 0 0 0-.547-1.391c-.454-.503-1.002-.776-1.603-.977a6.506 6.506 0 0 0-1.99-.297c-.955.004-1.826.175-2.572.528-.371.181-.72.408-1.02.747-.297.33-.55.825-.548 1.39 0 .066.014.128.02.192-.002.035-.02.065-.02.1v19.509a1.3 1.3 0 1 0 2.6 0v-17.33c.485.115.994.192 1.54.193a6.85 6.85 0 0 0 1.541-.179v9.888a1.3 1.3 0 0 0 2.6 0v-11.635c0-.101-.036-.19-.057-.284a1.9 1.9 0 0 0 .057-.454Z"/><path fill="#BEBEC9" d="M77.96 121.42a1.3 1.3 0 0 0-1.076-1.491 9.915 9.915 0 0 0-1.49-.102c-.319.002-.683.023-1.065.06-1.08-.813-2.068-2.134-2.745-3.284a19.032 19.032 0 0 1-1.038-2.015l-.05-.119-.012-.028-.002-.004a1.3 1.3 0 0 0-2.414.966c.018.042.46 1.147 1.282 2.529a16.79 16.79 0 0 0 2.07 2.783c-2.114 1.088-3.404 2.421-4.122 3.678-.74 1.29-.877 2.457-.876 3.121 0 .181.01.315.02.419-.278.207-.553.424-.82.657-.337.297-.657.626-.966.969a41.84 41.84 0 0 1-3.688-3.777c-.977-1.145-1.928-2.422-2.61-3.661-.69-1.239-1.084-2.436-1.077-3.353 0-.118.006-.233.018-.344.11-1.067.63-2.724 1.557-4.605 1.387-2.832 3.667-6.208 6.693-9.345 3.028-3.139 6.8-6.041 11.171-7.99a1.3 1.3 0 0 0-1.059-2.375c-2.184.976-4.206 2.171-6.077 3.492-4.159-.446-6.337-1.513-7.403-2.473-.555-.499-.843-.969-1.012-1.384a2.844 2.844 0 0 1-.208-1.056c0-.154.014-.276.026-.347l.012-.069v-.002h-.002a1.3 1.3 0 0 0-1.521-1.609c-2.697.572-5.307 1.806-7.727 3.31-7.242 4.52-12.868 11.53-12.92 11.582a1.301 1.301 0 0 0 1.944 1.722c.652-.67 1.464-1.161 2.414-1.491.947-.329 2.03-.491 3.168-.491 2.307-.004 4.834.674 6.855 1.771 1.01.545 1.895 1.193 2.57 1.883.679.69 1.142 1.416 1.368 2.117.025.077.077.134.115.203-.264.476-.516.948-.741 1.407-1.012 2.073-1.636 3.92-1.808 5.471a5.75 5.75 0 0 0-.033.623c.008 1.653.634 3.243 1.478 4.75 1.276 2.256 3.106 4.35 4.624 5.916a44.682 44.682 0 0 0 2.374 2.273c-.019.037-.042.07-.06.107-.646 1.285-1.032 2.789-1.03 4.47-.001.977.128 2.013.401 3.107.294 1.197.889 2.174 1.736 2.79.844.62 1.837.832 2.773.83 1.563-.009 3.1-.53 4.499-1.094 1.386-.568 2.645-1.21 3.397-1.515a1.3 1.3 0 0 0-.982-2.407c-.936.384-2.13.998-3.398 1.514-1.257.521-2.578.911-3.516.902-.475-.002-.816-.088-1.08-.234 2.692-1.148 4.94-2.18 4.946-2.183a1.3 1.3 0 1 0-1.084-2.363l-.507.231c-.815.369-2.524 1.135-4.442 1.952a9.773 9.773 0 0 1-.144-1.53l.002-.035a61.23 61.23 0 0 1 3.593-1.753 74.97 74.97 0 0 1 1.76-.766l.135-.056a1.3 1.3 0 0 0-.986-2.406c-.017.008-1.723.707-3.726 1.672.705-1.389 1.845-2.496 3.137-3.331a13.3 13.3 0 0 1 3.904-1.686 1.3 1.3 0 0 0-.63-2.523c-.799.201-1.685.5-2.592.903.074-.194.167-.399.29-.616.475-.82 1.364-1.817 3.198-2.738.78-.399 1.85-.527 2.643-.522a8.723 8.723 0 0 1 1.02.061l.05.007.007.001v-.001a1.3 1.3 0 0 0 1.488-1.075Zm-20.323-14.294c-1.345-1.367-3.121-2.455-5.08-3.223-1.958-.765-4.102-1.208-6.202-1.21-.475 0-.946.033-1.414.081.71-.696 1.49-1.431 2.333-2.174 1.803-1.592 3.877-3.216 6.06-4.551 1.67-1.024 3.401-1.869 5.112-2.42.06.338.158.702.31 1.083.461 1.165 1.45 2.432 3.188 3.423 1.207.691 2.774 1.265 4.8 1.668a43.457 43.457 0 0 0-6.014 6.256 41.555 41.555 0 0 0-1.87 2.605 9.245 9.245 0 0 0-1.223-1.538ZM59.256 140.401c-.02.011-1.76.973-3.789 2.322a39.42 39.42 0 0 0-3.089 2.256c-.988.814-1.879 1.65-2.522 2.546-1.366 1.916-2.539 4.352-3.4 6.336a62.803 62.803 0 0 0-.763 1.846 9.382 9.382 0 0 0-.978-.542c-1.694-.801-3.413-1.022-4.901-1.022-.763 0-1.47.059-2.09.13a2.72 2.72 0 0 0-1.297.533c-.626.467-1.076 1.093-1.481 1.83-.6 1.108-1.07 2.499-1.41 4.073a24.693 24.693 0 0 0-.536 5.123c.003 2.738.452 5.587 1.657 8.046.604 1.228 1.404 2.357 2.44 3.289a9.476 9.476 0 0 0 3.786 2.076c.65.184 1.318.265 1.984.265 1.966-.006 3.916-.68 5.731-1.613 1.814-.938 3.494-2.153 4.866-3.352a1.3 1.3 0 0 0-1.712-1.957c-1.231 1.078-2.768 2.185-4.347 2.999-1.578.82-3.196 1.329-4.538 1.323-.456 0-.881-.055-1.275-.167a6.85 6.85 0 0 1-2.757-1.507c-1.126-1.012-1.94-2.418-2.47-4.063-.53-1.64-.766-3.504-.765-5.339-.003-2.446.421-4.846 1.03-6.569.3-.86.653-1.549.961-1.961.04-.054.075-.09.112-.134l.306 6.257a1.3 1.3 0 0 0 2.597-.127l-.32-6.542c.78.031 1.578.148 2.366.395-.02.105-.051.206-.045.317l.421 7.036a1.301 1.301 0 0 0 2.596-.155l-.342-5.713c.026.023.052.042.078.066a9.067 9.067 0 0 1 1.7 2.138c.687 1.172 1.294 2.7 1.74 4.681a1.3 1.3 0 1 0 2.537-.571c-.495-2.193-1.186-3.977-2.032-5.423a11.917 11.917 0 0 0-1.506-2.059c.255-.677.67-1.733 1.2-2.934.801-1.821 1.874-3.965 2.972-5.498.408-.577 1.165-1.319 2.055-2.046 1.338-1.097 2.973-2.188 4.263-2.992a58.158 58.158 0 0 1 2.224-1.322 1.3 1.3 0 0 0-1.257-2.275Z"/><path fill="#FFE632" d="M108.479 163.345a15.72 15.72 0 0 0-1.273-.122l-22.383-4.769a1.3 1.3 0 1 0-.542 2.542l16.336 3.481a15.309 15.309 0 0 0-3.957 2.708c-3.772 3.54-6.065 8.627-7.488 12.83-.12.361-.233.712-.341 1.059l-9.211-1.865a1.3 1.3 0 1 0-.516 2.548l9.009 1.824a49.131 49.131 0 0 0-.773 3.45l-34.513-7.157a52.279 52.279 0 0 1 1.624-6.469l11.372 2.302a1.299 1.299 0 1 0 .516-2.548l-11.017-2.23c.298-.776.623-1.561.984-2.341 1.277-2.776 2.959-5.467 5.062-7.408 2.113-1.943 4.576-3.153 7.671-3.16.556 0 1.134.04 1.737.125.032.005.062-.008.094-.006l6.093 1.298a1.3 1.3 0 0 0 .542-2.543l-6.315-1.345c-.095-.02-.186-.004-.28-.003a15.063 15.063 0 0 0-1.87-.126 13.077 13.077 0 0 0-5.384 1.133c-2.83 1.264-5.062 3.433-6.828 5.904-2.649 3.713-4.298 8.146-5.316 11.668-1.014 3.521-1.384 6.132-1.39 6.174-.009.056.01.108.009.164-.02.057-.058.104-.07.165a1.3 1.3 0 0 0 1.009 1.537l37.606 7.799c.395.082.802-.023 1.11-.286l11.732-10.041a1.3 1.3 0 1 0-1.69-1.975h-.001l-9.595 8.212c.513-2.278 1.534-6.054 3.286-9.71 1.3-2.722 3.002-5.361 5.121-7.266 2.129-1.908 4.609-3.099 7.709-3.106.172 0 .352.011.529.019l.439.094c.192.04.379.03.558-.011.081.01.159.014.242.025a1.3 1.3 0 1 0 .363-2.574Z"/><path fill="#FFE632" d="M61.917 167.327a1.3 1.3 0 1 0-.515 2.548l16.35 3.308a1.3 1.3 0 0 0 .516-2.549l-16.35-3.307Z"/><path fill="#BEBEC9" d="M158.442 152.824c-.018-.1-.211-1.183-.974-2.583a10.876 10.876 0 0 0-3.446-3.777l.716-1.989a1.3 1.3 0 0 0-1.706-1.648c-.03.013-.869.349-1.961.932-.449.241-.943.531-1.441.852-2.14-.529-4.234-.714-6.067-.715a170.56 170.56 0 0 0 .545-4.642 1.3 1.3 0 0 0-1.847-1.308c-.027.013-1.252.589-2.685 1.471-.718.441-1.487.959-2.195 1.536-.474.39-.917.804-1.305 1.26-.062-.162-.118-.323-.181-.485a1.301 1.301 0 0 0-2.419.954c2.273 5.758 3.598 11.408 3.595 16.346 0 3.117-.523 5.943-1.63 8.365-1.11 2.423-2.79 4.46-5.209 6.059-.482.322-.903.736-1.362 1.241-.793.882-1.665 2.052-2.614 3.392-1.42 2.007-3.002 4.39-4.585 6.625-1.58 2.233-3.173 4.323-4.536 5.687-1.088 1.092-2.229 2.004-3.402 2.63-1.176.626-2.371.971-3.648.972a7.461 7.461 0 0 1-2.051-.295 6.853 6.853 0 0 1-2.757-1.507c-1.127-1.012-1.941-2.417-2.471-4.061-.529-1.641-.765-3.505-.765-5.34-.002-2.446.422-4.846 1.031-6.569.3-.859.652-1.549.961-1.961.124-.169.233-.277.317-.349l.321 6.552a1.3 1.3 0 0 0 2.597-.127l-.324-6.613a8.736 8.736 0 0 1 2.372.457c-.021.107-.053.212-.046.326l.421 7.036a1.301 1.301 0 0 0 2.596-.155l-.334-5.581a9.089 9.089 0 0 1 1.549 1.992c.686 1.173 1.293 2.7 1.74 4.681a1.3 1.3 0 1 0 2.537-.571c-.495-2.194-1.187-3.977-2.033-5.423-1.263-2.17-2.897-3.564-4.59-4.362a10.087 10.087 0 0 0-2.095-.703c.015-.064.048-.119.054-.186l.094-1.049c.176-1.94.572-6.127.88-8.271.074-.548.386-1.608.814-2.779.641-1.772 1.534-3.868 2.264-5.51a132.405 132.405 0 0 1 1.294-2.83 1.3 1.3 0 0 0-2.348-1.117c-.005.01-1.026 2.158-2.107 4.691a78.08 78.08 0 0 0-1.548 3.88c-.453 1.259-.806 2.373-.943 3.297-.217 1.517-.462 3.867-.656 5.857a400.26 400.26 0 0 0-.334 3.605c-.003.037.012.069.012.105-.092-.002-.191-.012-.281-.012-.764 0-1.47.059-2.089.13-.503.058-.94.269-1.298.533-.626.467-1.076 1.093-1.482 1.83-.599 1.108-1.07 2.498-1.41 4.073a24.7 24.7 0 0 0-.536 5.123c.003 2.738.453 5.588 1.658 8.046.604 1.228 1.404 2.357 2.439 3.288a9.46 9.46 0 0 0 3.786 2.076c.939.266 1.864.393 2.761.393 1.76.001 3.399-.49 4.873-1.279 1.477-.789 2.803-1.869 4.018-3.087 1.194-1.2 2.423-2.741 3.66-4.417 1.852-2.513 3.713-5.33 5.341-7.658.813-1.163 1.567-2.204 2.217-3.007.638-.802 1.215-1.372 1.47-1.528 2.817-1.855 4.85-4.313 6.142-7.15 1.295-2.838 1.865-6.04 1.865-9.445 0-.163-.014-.332-.016-.497.08-.041.166-.065.239-.124 1.762-1.416 4.054-2.536 6.474-3.286 2.418-.752 4.965-1.136 7.21-1.135 1.214 0 2.339.112 3.301.326.424.094.863-.027 1.178-.327.315-.3.458-.732.385-1.161Zm-19.417-9.856c.674-.552 1.486-1.083 2.224-1.524-.117.997-.26 2.144-.409 3.156a30.13 30.13 0 0 1-.309 1.814l-.009.034c-.495.114-1.2.26-1.821.383l-.092.018-.575-2.93c.251-.296.591-.628.991-.951Zm6.572 9.67c-2.184.679-4.283 1.645-6.127 2.886a44.249 44.249 0 0 0-1.066-5.985c.331-.064.769-.15 1.224-.242.467-.095.948-.195 1.354-.286.203-.046.386-.089.546-.13.166-.044.281-.072.461-.141l.003-.001c.381-.165.515-.361.613-.484.171-.248.21-.388.269-.542.094-.277.16-.564.232-.913.019-.092.037-.195.056-.295.13-.002.249-.01.381-.01 1.152 0 2.407.087 3.689.284a1.294 1.294 0 0 0-.016.73c.127.451.488.801.944.912l3.604.881c.462.113.928-.046 1.241-.371a8.213 8.213 0 0 1 2.167 2.531 20.642 20.642 0 0 0-1.594-.075c-2.536.001-5.31.423-7.981 1.251ZM120.345 78.954l-.088.015c-.917.167-8.996 1.555-16.495 1.551a46.59 46.59 0 0 1-4.818-.227 2.25 2.25 0 1 0-.47 4.475c1.54.162 3.145.227 4.758.24l.249.902a2.994 2.994 0 0 0 5.869-1.097c6.404-.44 11.754-1.427 11.81-1.434a2.25 2.25 0 0 0-.815-4.425ZM68.018 58.383c1.475 4.495 3.966 8.239 6.084 10.878 2.12 2.64 3.874 4.173 3.916 4.21a1.3 1.3 0 0 0 1.71-1.959l-.012-.01c-.16-.142-1.83-1.643-3.774-4.104-1.947-2.46-4.163-5.88-5.453-9.824a1.3 1.3 0 0 0-2.47.81h-.001ZM101.568 75.619c2.108-1.099 4.838-3.017 7.486-5.36 2.642-2.344 5.183-5.091 6.826-7.908a1.3 1.3 0 1 0-2.247-1.307c-1.417 2.443-3.801 5.057-6.303 7.27-2.498 2.215-5.132 4.05-6.961 4.997a1.3 1.3 0 1 0 1.199 2.308ZM82.56 78.395a176.507 176.507 0 0 1-7.726-1.977c-1.774-.5-3.605-1.056-5.176-1.61a33.733 33.733 0 0 1-2.11-.814c-.605-.26-1.098-.51-1.397-.697a2.25 2.25 0 1 0-2.372 3.824c.632.39 1.34.73 2.134 1.069 1.386.587 3.03 1.151 4.744 1.686.5.155 1.005.307 1.51.456.017.174.042.348.09.522l.293 1.062a3 3 0 0 0 3.69 2.093 2.992 2.992 0 0 0 2.064-2.013c1.924.484 3.244.784 3.258.787a2.25 2.25 0 0 0 .997-4.388Z"/><path fill="#BEBEC9" d="M175.462 124.936c-3.985-9.628-11.068-16.508-17.125-20.995-6.062-4.487-11.124-6.592-11.191-6.62a1.299 1.299 0 0 0-1.741.818c-.017.06-.093.245-.221.473-.451.817-1.524 2.187-3.06 3.281-1.544 1.103-3.529 1.958-5.953 1.96-1.041 0-2.169-.159-3.395-.536-.434-1.321-1.015-2.554-1.779-3.664a11.037 11.037 0 0 0-4.143-3.627c-.475-.24-.981-.443-1.506-.623a50.992 50.992 0 0 0 7.602-3.682c5.504-3.27 8.492-6.548 9.41-7.65a23.867 23.867 0 0 0 4.209-1.473c2.59-1.183 5.771-3.165 8.035-6.45a1.303 1.303 0 0 0-.925-2.027l-5.706-.646a23.057 23.057 0 0 0 1.628-1.301c1.236-1.092 2.492-2.449 3.457-4.091.963-1.64 1.632-3.583 1.631-5.76 0-.551-.043-1.115-.131-1.688a1.302 1.302 0 0 0-1.812-.99l-6.446 2.859c.714-5.612 1.073-10.533 1.073-14.866-.001-5.357-.541-9.836-1.628-13.652-1.624-5.726-4.527-9.95-8.511-13.216-3.984-3.272-8.993-5.618-14.932-7.864-4.264-1.613-10.373-3.085-17.229-3.836a6.783 6.783 0 0 0-1.347-2.006c-1.015-1.057-2.213-1.778-3.166-2.264-.953-.482-1.665-.72-1.709-.734a1.301 1.301 0 0 0-1.623.771l-1.341 3.52c-1.512-1.516-3.257-2.44-4.837-2.982a15.261 15.261 0 0 0-4.828-.824c-.252 0-.402.009-.427.01a1.296 1.296 0 0 0-.995.57 1.297 1.297 0 0 0-.157 1.135l.997 3.026c-4.485.679-8.883 1.858-12.927 3.718-4.51 2.075-8.585 5-11.793 8.988-5.61 6.96-7.267 13.699-7.256 19.514 0 2.575.317 4.966.73 7.137l-4.034-2.715a1.303 1.303 0 0 0-1.381-.045c-.43.251-.68.73-.641 1.225.226 2.803 1.268 5.427 2.234 7.382.452.91.887 1.664 1.23 2.225l-1.497 1.168c-.39.303-.573.804-.473 1.288.022.1.258 1.205 1.096 2.597.79 1.316 2.155 2.89 4.34 4.01l-.013.057c-.568 2.305-1.175 4.805-1.173 8.232.003 1.818.513 4.153 1.798 6.712 1.927 3.834 5.624 8.133 11.998 11.643 6.376 3.51 15.415 6.238 28.075 7.012 1.83.113 3.599.165 5.309.165 7.375.001 13.653-.989 18.921-2.476.145.06.3.1.465.103 2.06.037 3.706.446 5.035 1.115 1.986 1.008 3.329 2.607 4.235 4.735.9 2.123 1.31 4.766 1.308 7.638.004 5.198-1.333 11.117-3.122 16.021-.893 2.453-1.898 4.655-2.881 6.382-.972 1.725-1.97 2.979-2.633 3.472-.239.186-.681.409-1.281.596-.899.286-2.137.503-3.566.637-1.431.135-3.057.193-4.765.193-4.282.001-9.08-.363-12.794-.729a194.797 194.797 0 0 1-5.877-.667l-.284-.038c-.035-.006-.063-.027-.098-.031a7.691 7.691 0 0 0-.852-.046c-1.201.001-2.352.262-3.493.631-1.142.371-2.282.852-3.483 1.343-.694.283-1.767.682-2.961 1.002-1.193.323-2.512.563-3.661.562-.967.002-1.79-.172-2.348-.498-.017-.01-.03-.023-.047-.034a39.538 39.538 0 0 0 6.913-1.414 1.3 1.3 0 0 0-.739-2.492c-1.81.536-4.428 1.178-7.464 1.415a7.953 7.953 0 0 1-.107-1.192c.001-.161.021-.304.032-.455.037-.001.072.013.11.008h-.001c.043-.009 4.075-.533 7.655-1.736a1.3 1.3 0 0 0-.83-2.463c-1.62.546-3.427.957-4.817 1.226-.425.082-.804.149-1.134.206.81-1.137 2.086-2.035 3.532-2.7 1.524-.706 3.18-1.155 4.469-1.476a1.3 1.3 0 0 0-.631-2.522c-.858.217-1.914.492-3.033.88.053-.383.209-.849.645-1.42.57-.735 1.662-1.646 3.705-2.521a5.478 5.478 0 0 1 2.182-.465c1.493-.005 2.845.663 3.836 1.386a9.511 9.511 0 0 1 1.448 1.302l.069.079.013.015c.233.29.564.447.908.475.187.084.387.139.606.125.008 0 4.047-.253 8.263-.666 2.109-.207 4.259-.453 5.995-.732.87-.141 1.634-.288 2.264-.454.317-.084.6-.171.867-.28.268-.118.519-.221.83-.517.317-.325.518-.663.723-1.05.349-.676.665-1.508.975-2.456.921-2.837 1.741-6.648 2.036-8.879a1.3 1.3 0 1 0-2.578-.337h-.001c-.197 1.523-.717 4.096-1.333 6.384-.307 1.145-.64 2.225-.958 3.06-.159.416-.314.771-.448 1.029a3.384 3.384 0 0 1-.176.305l-.032.044c-.05.022-.121.05-.228.084-.33.108-.87.236-1.525.357-2.31.431-6.051.816-9.176 1.085-1.565.135-2.982.242-4.007.315-.587.043-1.038.073-1.321.092a12.027 12.027 0 0 0-1.686-1.484c-1.258-.912-3.096-1.877-5.364-1.882a8.069 8.069 0 0 0-3.207.676c-2.325.996-3.814 2.132-4.734 3.316-.924 1.18-1.223 2.404-1.217 3.337.001.286.027.54.065.768-.371.191-.74.394-1.098.622-1.145.728-2.216 1.659-3.01 2.878-.796 1.215-1.287 2.719-1.282 4.441 0 .847.114 1.746.352 2.699.185.743.492 1.404.906 1.958.62.834 1.468 1.394 2.358 1.717.893.325 1.835.439 2.775.44 1.495-.001 3-.292 4.336-.65a28.109 28.109 0 0 0 3.27-1.107c1.215-.497 2.308-.955 3.3-1.275.994-.323 1.877-.506 2.692-.505.133 0 .262.011.39.021.01.001.015.007.024.008.03.002 10.651 1.48 19.491 1.482 2.357 0 4.59-.104 6.5-.382.956-.139 1.831-.321 2.616-.569.783-.25 1.48-.558 2.075-1.01 1.168-.907 2.228-2.361 3.314-4.251 1.561-2.747 3.082-6.413 4.254-10.429.81 6.86 1.027 11.842 1.619 18.004a1.299 1.299 0 1 0 2.588-.249c-.532-5.521-.761-10.187-1.415-16.213 2.49-2.181 4.697-2.843 6.634-2.851 2.162-.004 4.071.883 5.449 1.81.687.461 1.235.926 1.604 1.269.185.172.325.313.415.407l.098.105.021.023v.001a1.298 1.298 0 0 0 2.04-.099v.001l.002-.002c.02-.029.928-1.282 2.576-2.668 1.656-1.396 4.041-2.913 7.006-3.542a6.208 6.208 0 0 1 1.312-.134c1.296-.002 2.686.369 4.04.966 2.031.892 3.956 2.28 5.348 3.443a30.53 30.53 0 0 1 1.651 1.48c.194.188.343.338.443.44l.11.115.026.027.005.006a1.304 1.304 0 0 0 1.655.208c.528-.34.738-1.011.498-1.591ZM90.202 7.832c1.762.612 3.643 1.717 5.015 3.8.27.408.741.63 1.228.577a1.298 1.298 0 0 0 1.073-.83l1.66-4.36c.336.162.712.36 1.096.6.567.35 1.14.783 1.594 1.264.135.143.255.29.367.438-1.485.61-3.87 1.842-6.292 4.135-3.38 3.192-6.758 8.484-7.748 16.79-.281-.305-.584-.615-.932-.927-2.133-1.923-5.605-3.786-10.864-4.223a13.736 13.736 0 0 1 2.026-2.532 13.603 13.603 0 0 1 4.14-2.795c1.748-.76 3.894-1.273 6.555-1.274.156 0 .31.001.462.005.422.01.826-.186 1.078-.524.251-.338.323-.782.191-1.183l-3.145-9.539c.715.092 1.584.262 2.496.578ZM55.874 63.148a8.067 8.067 0 0 1-2.72-2.716 7.243 7.243 0 0 1-.525-1.06l1.71-1.333a1.302 1.302 0 0 0 .258-1.779l-.004-.007a24.421 24.421 0 0 1-1.775-3.081 21.998 21.998 0 0 1-1.312-3.332l3.69 2.484c.29 1.217.569 2.335.777 3.319.239 1.115.381 2.07.38 2.79a23.47 23.47 0 0 1-.48 4.715Zm40.238 33.697c-1.092-.067-2.15-.15-3.185-.245.13-.193.23-.408.241-.657.024-.523.116-.926.237-1.23.187-.454.415-.694.707-.876.294-.177.692-.285 1.2-.286.993-.009 2.348.461 3.518 1.311A7.666 7.666 0 0 1 100.84 97a84.011 84.011 0 0 1-4.728-.154Zm7.63.12c-.706-1.741-1.955-3.175-3.393-4.213-1.547-1.105-3.31-1.791-5.038-1.8-1.162-.005-2.36.346-3.265 1.21-.449.428-.81.969-1.055 1.587-.247.618-.385 1.311-.42 2.073-.01.191.029.372.095.538-13.263-1.546-21.58-5.454-26.642-9.659-2.864-2.379-4.7-4.857-5.822-7.085-1.123-2.225-1.523-4.217-1.52-5.543.002-3.124.53-5.303 1.098-7.61.566-2.299 1.175-4.73 1.172-8.03-.001-1.04-.184-2.135-.435-3.33-.25-1.176-.574-2.448-.895-3.812l-.005-.02-.008-.036c-.678-2.865-1.346-6.14-1.345-9.723.01-5.336 1.44-11.349 6.682-17.885 2.922-3.631 6.642-6.316 10.854-8.254 3.9-1.795 8.222-2.935 12.667-3.572l1.364 4.134c-2.484.144-4.614.7-6.402 1.493a16.301 16.301 0 0 0-6.505 5.212c-1.288 1.737-1.799 3.125-1.83 3.21a1.299 1.299 0 0 0 1.208 1.744c5.903.07 9.264 1.915 11.226 3.661a10.223 10.223 0 0 1 1.978 2.377c.187.316.312.574.387.744l.077.185.013.035.001.003.002-.001a1.3 1.3 0 0 0 2.53-.38c.272-9.998 3.811-15.627 7.217-18.875a18.524 18.524 0 0 1 4.648-3.24c.541-.26.991-.442 1.332-.566 7.086.68 13.458 2.204 17.67 3.801 3.888 1.468 7.299 2.962 10.208 4.678 4.367 2.581 7.592 5.616 9.797 9.91 2.202 4.295 3.385 9.933 3.385 17.712 0 4.517-.4 9.75-1.218 15.831-.012.085.011.163.016.245l-5.005 2.22a1.3 1.3 0 1 0 1.054 2.377l12.434-5.515c-.087 1.45-.536 2.77-1.239 3.97-1.164 1.994-2.994 3.627-4.539 4.732-.771.554-1.468.977-1.965 1.26-.249.14-.448.245-.582.314l-.15.075-.034.017-.006.003a1.301 1.301 0 0 0 .408 2.468l7.065.8c-1.701 1.758-3.74 2.987-5.521 3.797-1.16.53-2.203.882-2.947 1.1a16.992 16.992 0 0 1-1.093.28l-.052.011-.009.002c-.321.061-.605.239-.801.501l-.001.002c-.098.13-2.957 3.851-9.264 7.534-5.93 3.46-14.904 6.899-27.582 7.302Zm63.032 21.464c-1.582-.695-3.303-1.185-5.088-1.187-.614 0-1.235.059-1.854.191-3.575.763-6.346 2.571-8.228 4.171a21.057 21.057 0 0 0-1.976 1.92 15.902 15.902 0 0 0-1.566-1.201c-1.646-1.104-4.021-2.249-6.899-2.252-2.166-.007-4.57.693-6.987 2.42a208.27 208.27 0 0 0-.736-5.354c-.017-.111-.068-.205-.11-.303.312-2.057.495-4.117.496-6.114a27.83 27.83 0 0 0-.356-4.554c.934.189 1.838.287 2.701.287 3.495 0 6.292-1.43 8.237-3.039a14.084 14.084 0 0 0 2.328-2.436c.195-.266.359-.515.51-.755 1.828.876 5.735 2.916 10.092 6.218 4.404 3.335 9.239 7.953 12.875 13.914-1.042-.701-2.198-1.379-3.439-1.926Z"/></svg>