<svg width="200" height="200" viewBox="0 0 200 200" xmlns="http://www.w3.org/2000/svg"><g id="type=success, mode=light"><g id="Group 432527069"><path id="Vector" d="M64.9781 33.6819V33.682C65.8697 33.6841 66.6632 34.0237 67.4417 34.6354C68.6026 35.5448 69.5968 37.0716 70.2469 38.3694C70.5746 39.0172 70.8226 39.6051 70.9862 40.025C71.0677 40.2349 71.1285 40.403 71.1678 40.5157L71.211 40.6417L71.2203 40.6705L71.2218 40.6748C71.3995 41.2363 71.9281 41.6063 72.5164 41.5812C73.1048 41.5562 73.5999 41.1425 73.7293 40.568L73.732 40.5562C73.7713 40.3777 74.2662 38.3826 75.3075 36.499C75.8246 35.5569 76.4764 34.6508 77.2193 34.0035C77.9691 33.3531 78.7652 32.9599 79.7144 32.894C80.3758 32.85 80.8988 32.3143 80.9271 31.652C80.9552 30.9896 80.4793 30.4116 79.8241 30.3117C78.4793 30.1026 77.4749 29.5213 76.6341 28.7119C75.3788 27.5037 74.5689 25.7286 74.1173 24.2458C73.8897 23.5064 73.7472 22.8451 73.6629 22.3765C73.6209 22.1421 73.5933 21.9559 73.5767 21.8319L73.5597 21.6945L73.5562 21.664L73.556 21.6609C73.4933 21.0127 72.9588 20.5098 72.3082 20.4867C71.6573 20.4635 71.0885 20.9272 70.9801 21.5694L70.9774 21.5841C70.9427 21.7917 70.5186 24.0283 69.4774 26.2715C68.9596 27.393 68.2884 28.5102 67.4803 29.3783C66.6683 30.2503 65.7503 30.864 64.6698 31.1158C64.024 31.2659 63.5943 31.8791 63.6734 32.5373C63.7525 33.1954 64.315 33.689 64.9781 33.6819Z"/><path id="Vector_2" d="M176.253 64.9797C176.734 65.0267 177.05 65.2086 177.4 65.5731C177.914 66.1121 178.319 67.1072 178.526 67.9633C178.633 68.3899 178.699 68.7783 178.737 69.0531C178.756 69.1905 178.769 69.2996 178.776 69.3711L178.783 69.4493L178.784 69.4652H178.784C178.83 70.1223 179.359 70.6409 180.017 70.6735C180.675 70.706 181.253 70.2419 181.363 69.5922L181.364 69.5882C181.378 69.4918 181.629 68.1994 182.19 67.0439C182.466 66.4661 182.819 65.9332 183.187 65.5952C183.565 65.254 183.889 65.1017 184.319 65.0863C184.977 65.071 185.518 64.5685 185.582 63.9126C185.646 63.2566 185.212 62.6594 184.569 62.5173C183.943 62.3757 183.518 62.11 183.16 61.7614C182.629 61.2435 182.288 60.4831 182.109 59.8363C182.019 59.5152 181.968 59.2282 181.94 59.0301C181.926 58.9311 181.919 58.8543 181.914 58.8064L181.91 58.7571L181.91 58.7562C181.879 58.1135 181.384 57.5898 180.744 57.5242C180.104 57.4586 179.513 57.8705 179.353 58.4935L179.352 58.4941C179.339 58.554 179.057 59.549 178.483 60.4963C178.198 60.9711 177.843 61.4288 177.449 61.7649C177.051 62.1031 176.636 62.3205 176.15 62.4011C175.503 62.5068 175.034 63.0813 175.061 63.7359C175.087 64.3905 175.6 64.9259 176.253 64.9797Z"/><path id="Vector_3" d="M184.868 77.5881C184.821 77.9705 184.633 78.6964 184.307 79.4984C183.821 80.71 183.024 82.1315 182.005 83.2143C181.497 83.7573 180.936 84.216 180.342 84.5457C179.746 84.8757 179.12 85.0809 178.433 85.1345C177.749 85.1873 177.223 85.7639 177.234 86.4502C177.244 87.1365 177.787 87.697 178.473 87.7293C179.65 87.7895 180.513 88.1873 181.256 88.7881C182.365 89.6842 183.134 91.1216 183.58 92.3552C183.805 92.9692 183.953 93.5256 184.043 93.9204C184.088 94.1179 184.118 94.275 184.137 94.3789L184.156 94.4934L184.16 94.5178V94.5187C184.249 95.156 184.795 95.6338 185.438 95.6383C186.082 95.6429 186.634 95.1728 186.732 94.537C186.977 92.9606 187.497 91.7716 188.129 90.839C189.077 89.4446 190.31 88.6121 191.322 88.1255C191.826 87.8831 192.269 87.7298 192.577 87.6397C192.731 87.5947 192.851 87.5654 192.927 87.5483L193.007 87.5312L193.02 87.5288L193.02 87.5277C193.655 87.4172 194.116 86.854 194.097 86.2091C194.077 85.562 193.58 85.025 192.937 84.9555C191.638 84.8103 190.729 84.333 189.989 83.6715C188.886 82.6846 188.213 81.1881 187.859 79.9126C187.68 79.278 187.577 78.7066 187.521 78.3023C187.493 78.1002 187.476 77.9398 187.467 77.8341L187.458 77.7179L187.456 77.6935V77.6932C187.423 77.0194 186.884 76.4843 186.21 76.4569C185.536 76.4295 184.955 76.9189 184.868 77.5881Z"/><path id="Vector_4" d="M113.677 94.2316C115.447 94.8586 119.444 90.3556 121.115 87.5939C121.663 86.6872 121.293 85.4982 120.36 85.1447L113.778 82.7946C112.822 82.4323 111.779 83.1374 111.671 84.2277C111.344 87.5363 111.915 93.6071 113.677 94.2316Z"/><path id="Vector_5" d="M47.0278 113.222C47.0872 113.267 47.157 113.282 47.2207 113.316C47.28 113.375 47.3245 113.446 47.397 113.495C62.5488 123.731 76.6067 126.42 80.3608 126.987L81.2378 132.082C81.2449 132.188 81.2468 132.294 81.2537 132.401C80.5288 132.527 79.8191 132.605 79.1409 132.605C76.6863 132.607 74.5413 131.871 73.0137 131.124C72.2507 130.751 71.6445 130.379 71.2366 130.104C71.0325 129.967 70.8782 129.855 70.7783 129.779L70.6702 129.696L70.6479 129.678L70.6475 129.678C70.2363 129.337 69.6616 129.282 69.1936 129.539C69.1218 129.579 64.7417 131.983 59.2908 137.127C53.8418 142.269 47.3164 150.161 43.0134 161.162C42.7761 161.769 43.0227 162.454 43.5916 162.771C44.1604 163.088 44.8728 162.937 45.2639 162.416C46.9719 160.139 48.696 158.523 50.3152 157.495C51.9373 156.465 53.4387 156.023 54.7585 156.023C55.7344 156.025 56.6228 156.259 57.4509 156.72C58.2773 157.181 59.0459 157.878 59.7214 158.832C59.9673 159.18 60.3694 159.386 60.7954 159.382C61.2212 159.378 61.6191 159.164 61.8584 158.812L61.8655 158.802C61.9702 158.648 63.1633 156.96 64.9731 155.365C65.8762 154.566 66.9312 153.793 68.0576 153.234C69.1858 152.673 70.3731 152.329 71.5791 152.329C72.9614 152.336 74.4016 152.757 75.9883 153.986C76.5481 154.422 77.3525 154.33 77.7988 153.778L77.8257 153.745C77.9712 153.567 78.696 152.694 79.6833 151.67C80.0408 151.299 80.4407 150.91 80.8521 150.526C79.9927 158.921 78.3472 166.525 76.699 172.574C75.5073 176.95 74.3154 180.513 73.4241 182.977C72.9783 184.209 72.6074 185.166 72.3494 185.812C72.2202 186.135 72.1194 186.381 72.0513 186.544L71.9744 186.727L71.9502 186.783C71.6648 187.442 71.9675 188.208 72.6265 188.493C73.2854 188.778 74.051 188.476 74.3364 187.817L74.3362 187.817C74.3682 187.727 84.0547 165.4 84.0635 138.869C84.0635 136.557 83.9893 134.213 83.8289 131.849L83.813 131.716L82.7612 125.607C82.7566 125.579 82.7385 125.558 82.7319 125.531C82.7107 125.442 82.6738 125.363 82.6348 125.281C82.6003 125.208 82.5706 125.136 82.5242 125.073C82.4746 125.004 82.4138 124.951 82.3518 124.893C82.2913 124.836 82.2351 124.78 82.165 124.736C82.0969 124.693 82.022 124.668 81.9458 124.638C81.8625 124.605 81.7827 124.574 81.6934 124.559C81.6655 124.554 81.6433 124.537 81.615 124.534H81.6147L81.5808 124.531C80.7561 124.44 65.4331 122.553 48.8525 111.341C48.8106 111.312 48.762 111.307 48.718 111.285C48.6763 111.243 48.6509 111.19 48.6025 111.153H48.6023C46.0518 109.216 43.3079 106.163 40.647 102.57C36.6497 97.179 32.8157 90.5762 29.7886 84.6512C28.2747 81.6887 26.9607 78.8943 25.9258 76.5068C25.1895 74.8099 24.5969 73.3193 24.1733 72.1293C24.6011 72.177 25.0164 72.2075 25.4038 72.2067C28.1443 72.2044 29.7793 71.165 29.9172 71.0752C30.5173 70.6812 30.6843 69.8752 30.2905 69.2751C29.8992 68.6788 29.1018 68.5126 28.5032 68.8967L28.5017 68.8943C28.4778 68.9094 27.3379 69.6083 25.4038 69.6067C23.7825 69.6024 21.5703 69.1367 18.8315 67.257C16.6792 65.7734 15.4568 63.7604 14.7471 61.7189C14.2219 60.2052 13.9998 58.6896 13.9207 57.4558C14.1147 57.6559 14.2954 57.8403 14.4409 57.9892C14.8804 58.438 15.4214 58.7224 15.9749 58.8931C16.531 59.0641 17.1104 59.1301 17.7036 59.1308C19.4243 59.1231 21.3066 58.5834 22.9883 57.7342C23.8269 57.3063 24.6111 56.7972 25.2839 56.2043C25.7109 55.8256 26.0891 55.4075 26.405 54.9476C26.6975 54.9594 27.0549 54.9687 27.4651 54.9687C28.9785 54.9666 31.1794 54.8498 33.3325 54.2403C34.4092 53.9333 35.4785 53.5013 36.4407 52.8642C37.2847 52.3057 38.0366 51.5632 38.5898 50.6357C42.0076 50.5887 44.8069 49.7683 46.7664 48.9379C48.7854 48.0819 49.927 47.2222 49.9932 47.1725C50.5647 46.7382 50.676 45.9227 50.2417 45.351C49.8074 44.7794 48.9919 44.6681 48.4207 45.1022L48.4204 45.102C48.3601 45.1472 47.3425 45.8902 45.5842 46.6141C43.8247 47.3388 41.3308 48.0446 38.2903 48.0444H38.2412C36.5652 48.0349 35.2952 47.5176 34.2183 46.7172C32.6101 45.5214 31.4995 43.5955 30.8364 41.9446C30.5271 41.1809 30.3145 40.4902 30.1736 39.9678C36.0994 37.1851 42.7639 34.5514 48.6289 34.3943C48.8477 34.388 49.062 34.3848 49.2722 34.3848C50.9973 34.3844 52.4026 34.5994 53.5251 34.9898C55.208 35.5864 56.2815 36.5101 57.0876 37.9382C57.8853 39.3678 58.3552 41.3672 58.4895 43.9436C58.5105 44.3407 58.521 44.7381 58.521 45.1346C58.5222 48.422 57.8025 51.6634 56.6116 54.3755C55.4258 57.0906 53.7588 59.2595 51.9949 60.4522C51.4011 60.8562 51.2473 61.6648 51.6514 62.2585C52.0554 62.852 52.864 63.0058 53.4578 62.6018H53.4575C53.5305 62.5518 53.5994 62.4925 53.6716 62.4405C54.1545 67.3412 55.355 72.8869 56.811 77.9255C57.657 80.8485 58.5881 83.5949 59.5208 85.9377C60.457 88.2836 61.3801 90.2138 62.2769 91.57C62.3708 91.7119 62.491 91.8252 62.6228 91.9164C62.6658 91.9875 62.6919 92.0654 62.7498 92.1292H62.7495C63.5071 92.9627 64.5024 93.7851 65.6873 94.6335C67.759 96.113 70.4138 97.6568 73.2996 99.1849C77.626 101.475 82.4661 103.719 86.5312 105.542C88.5635 106.453 90.4014 107.258 91.8796 107.908C93.355 108.556 94.4834 109.056 95.0444 109.329C95.6899 109.643 96.468 109.374 96.782 108.728C97.0962 108.083 96.8271 107.305 96.1816 106.991C95.1956 106.512 93.0881 105.604 90.3345 104.388C88.1833 103.438 85.6492 102.305 83.0154 101.077C82.9814 101.035 82.9648 100.984 82.9248 100.945C77.0012 95.1712 73.3879 87.9695 73.3909 80.5176C73.3911 78.5292 73.647 76.518 74.187 74.4977C74.3723 73.8042 73.9607 73.0917 73.2671 72.9062C73.187 72.8848 73.1091 72.8974 73.0295 72.8914C72.884 72.8012 72.719 72.7374 72.5391 72.7103H72.5388L66.2683 71.7666C67.7634 69.2877 69.3777 67.9072 70.6665 67.1279C71.4387 66.6635 72.0976 66.4121 72.5479 66.2777C72.7727 66.2106 72.9453 66.1729 73.0525 66.1528L73.1626 66.1345L73.178 66.1325L73.1777 66.1303C73.8118 66.0643 74.3076 65.547 74.3418 64.909C74.3762 64.2665 73.9329 63.6936 73.3025 63.5656L64.7141 61.8208C66.0501 60.2238 67.5298 59.137 69.0564 58.4046C71.0395 57.4561 73.1174 57.1084 75.0217 57.1085C76.4624 57.1081 77.7996 57.3088 78.8884 57.5858C79.0671 57.6312 79.2458 57.6348 79.4167 57.6069C79.4348 57.6117 79.4478 57.6246 79.4661 57.6286C80.1675 57.7825 80.8608 57.3386 81.0149 56.6372C83.082 47.2077 87.2327 38.757 93.3318 32.7044C99.439 26.6536 107.456 22.9479 117.552 22.9388C121.484 22.9388 125.736 23.5123 130.305 24.7444C131.478 25.1344 132.519 25.5806 133.366 26.131C134.26 26.7077 134.949 27.3749 135.459 28.2221C135.968 29.0707 136.31 30.1214 136.412 31.5251C136.455 32.1321 136.915 32.6283 137.517 32.7181C138.118 32.8079 138.703 32.4672 138.922 31.8996L138.961 31.7997C139.105 31.4364 139.651 30.1078 140.498 28.3929C148.778 32.0686 154.837 36.6874 158.975 41.9561C163.929 48.2724 166.187 55.5361 166.192 63.4429C166.193 70.7264 164.251 78.5506 160.655 86.5312C160.627 86.5946 160.629 86.6612 160.611 86.7263C160.608 86.7319 160.602 86.7348 160.599 86.7405C160.248 87.3669 160.472 88.159 161.098 88.5096L161.098 88.5096C165.273 90.8519 167.5 93.6329 168.735 96.1584C169.709 98.1556 170.046 100.002 170.146 101.335L162.68 96.9542C162.122 96.6266 161.41 96.7585 161.006 97.2644C160.605 97.7672 160.633 98.4836 161.068 98.9556L161.067 98.9569L161.145 99.0518C161.51 99.5194 162.996 101.606 162.999 105.524C162.999 106.245 162.939 107.038 162.82 107.888L157.648 104.495C157.752 104.15 157.869 103.813 157.962 103.461C158.145 102.766 157.731 102.055 157.037 101.872C156.343 101.688 155.631 102.103 155.448 102.797H155.448C154.029 108.158 151.256 112.418 147.42 115.364C143.582 118.306 138.654 119.955 132.818 119.958C131.221 119.958 129.554 119.827 127.83 119.57C127.398 119.352 126.969 119.137 126.552 118.929C123.727 117.522 121.405 116.421 121.4 116.419C120.751 116.111 119.976 116.388 119.669 117.037C119.361 117.685 119.638 118.461 120.287 118.768H120.286C120.287 118.768 120.473 118.856 120.807 119.016C121.767 119.476 123.941 120.525 126.311 121.716C126.494 121.892 126.714 122.032 126.984 122.076C127.003 122.079 127.021 122.081 127.039 122.084C127.316 122.224 127.594 122.364 127.871 122.506C129.336 123.256 130.794 124.024 132.007 124.704C132.614 125.044 133.159 125.362 133.608 125.641C134.057 125.918 134.414 126.163 134.616 126.324C134.791 126.459 135.194 126.87 135.66 127.426C136.49 128.405 137.586 129.858 138.746 131.468C140.488 133.884 142.383 136.663 143.84 138.835C144.568 139.92 145.187 140.854 145.624 141.516C146.061 142.179 146.313 142.566 146.314 142.567C146.392 142.687 146.496 142.776 146.602 142.861C146.95 143.301 147.544 143.493 148.092 143.273C150.293 142.378 152.044 140.775 153.377 139.234C154.464 137.969 155.263 136.743 155.757 135.903C155.914 135.932 156.075 135.953 156.245 135.953C156.909 135.957 157.567 135.688 158.11 135.267C158.28 135.136 158.444 134.986 158.606 134.826C158.704 134.883 158.802 134.946 158.9 134.989C159.527 135.27 160.133 135.332 160.652 135.334C160.871 135.333 161.076 135.32 161.264 135.301C161.351 135.443 161.443 135.588 161.555 135.741C161.823 136.101 162.168 136.486 162.642 136.809C163.111 137.131 163.738 137.384 164.448 137.382C164.728 137.382 165.016 137.343 165.3 137.266C165.993 137.079 166.403 136.365 166.216 135.672C166.028 134.979 165.314 134.569 164.622 134.756L164.448 134.782C164.339 134.78 164.249 134.754 164.101 134.657C163.885 134.518 163.619 134.193 163.447 133.895C163.444 133.889 163.441 133.884 163.438 133.878C163.741 132.862 164.307 131.848 164.87 131.051C165.154 130.648 165.435 130.298 165.671 130.029C165.903 129.762 166.104 129.566 166.171 129.509C166.715 129.041 166.776 128.22 166.308 127.676C165.839 127.132 165.018 127.071 164.475 127.54C164.258 127.728 164.013 127.977 163.715 128.316C162.904 129.25 161.763 130.801 161.094 132.703C160.954 132.721 160.805 132.735 160.652 132.734C160.372 132.737 160.112 132.687 159.976 132.622C159.936 132.6 159.918 132.585 159.893 132.569C159.878 132.476 159.857 132.383 159.822 132.293C159.671 131.914 159.453 131.384 159.185 130.803C159.226 130.739 159.28 130.689 159.31 130.617L159.309 130.616L159.319 130.594C159.379 130.451 159.715 129.676 160.253 128.756C160.787 127.836 161.536 126.773 162.339 126.064C162.875 125.586 162.923 124.765 162.445 124.228C161.968 123.692 161.146 123.644 160.61 124.121C159.407 125.198 158.516 126.554 157.887 127.653C157.792 127.821 157.706 127.98 157.624 128.134C157.532 128.016 157.449 127.892 157.35 127.779C157.122 127.522 156.872 127.278 156.587 127.063C156.597 126.983 156.625 126.908 156.619 126.825L156.619 126.825C156.618 126.808 156.615 126.746 156.615 126.645C156.614 126.256 156.661 125.312 156.972 124.372C157.126 123.902 157.342 123.434 157.634 123.023C157.926 122.612 158.287 122.255 158.764 121.97C158.991 121.827 159.484 121.704 160.088 121.708C161.076 121.701 162.316 122.014 162.998 122.326C165.056 123.245 166.667 124.46 167.763 125.966C168.856 127.475 169.473 129.284 169.478 131.571C169.478 131.8 169.471 132.036 169.458 132.277C169.366 134.012 168.766 136.359 167.775 138.89C166.292 142.694 163.948 146.938 161.295 150.495C159.97 152.273 158.569 153.881 157.174 155.178C155.781 156.477 154.393 157.459 153.139 158.011C152.8 158.163 152.226 158.333 151.548 158.451C150.868 158.571 150.079 158.646 149.267 158.645C148.224 158.646 147.144 158.521 146.208 158.242C145.281 157.968 144.514 157.547 143.989 157.007C139.671 142.82 134.638 133.03 134.618 132.979C134.29 132.341 133.506 132.089 132.868 132.417C132.229 132.745 131.977 133.528 132.305 134.167H132.305L132.339 134.233C133.071 135.664 145.275 160.202 147.212 187.035C147.264 187.751 147.886 188.289 148.603 188.237C149.319 188.185 149.857 187.563 149.805 186.847C149.123 177.503 147.243 168.486 145.031 160.581C145.177 160.632 145.32 160.691 145.468 160.735C146.714 161.104 148.023 161.245 149.267 161.245C150.236 161.245 151.165 161.159 151.999 161.012C152.835 160.863 153.57 160.661 154.19 160.389C156.36 159.424 158.46 157.702 160.468 155.557C163.473 152.336 166.25 148.139 168.349 143.966C169.397 141.879 170.273 139.798 170.914 137.84C171.554 135.881 171.963 134.049 172.054 132.417L172.055 132.414C172.069 132.131 172.077 131.85 172.077 131.571C172.082 128.803 171.29 126.385 169.865 124.435C168.443 122.482 166.429 121.009 164.057 119.951C162.998 119.487 161.558 119.116 160.088 119.108C159.198 119.113 158.281 119.242 157.436 119.735C156.618 120.22 155.984 120.853 155.511 121.522C154.801 122.528 154.44 123.607 154.242 124.527C154.094 125.224 154.041 125.833 154.023 126.274C153.096 126.298 152.318 126.672 151.801 127.104C151.257 127.554 150.937 128.045 150.749 128.377V128.377C150.492 128.842 150.405 129.327 150.404 129.8C150.406 130.457 150.576 131.117 150.895 131.752C151.215 132.385 151.692 132.993 152.335 133.489C152.713 133.777 153.1 134.165 153.528 134.565C153.1 135.296 152.369 136.421 151.407 137.537C150.461 138.639 149.29 139.71 148.017 140.423C147.192 139.17 145.391 136.45 143.415 133.585C142.067 131.631 140.64 129.613 139.382 127.945C138.753 127.11 138.167 126.363 137.645 125.746C137.118 125.127 136.681 124.65 136.235 124.29C135.846 123.982 135.356 123.661 134.762 123.298C134.37 123.059 133.922 122.801 133.451 122.535C139.509 122.419 144.824 120.635 149.003 117.427C152.413 114.812 155.04 111.264 156.761 107.023L163.027 111.134C163.383 111.368 163.825 111.412 164.221 111.255C164.616 111.097 164.907 110.761 165.005 110.346C165.427 108.562 165.599 106.953 165.599 105.524C165.599 103.9 165.375 102.516 165.06 101.365L170.751 104.704C171.122 104.922 171.574 104.942 171.963 104.759C172.353 104.575 172.624 104.213 172.692 103.788C172.701 103.732 172.786 103.183 172.786 102.284C172.786 100.695 172.522 97.9968 171.073 95.0197C169.736 92.2662 167.347 89.3047 163.35 86.837C166.847 78.857 168.791 70.9511 168.792 63.4429C168.798 55.0414 166.351 47.131 161.02 40.3502C156.599 34.7223 150.222 29.8887 141.711 26.0856C141.73 26.0508 141.748 26.0175 141.767 25.9825C143.338 23.1782 145.504 20.0675 147.812 18.3371C148.263 17.9963 148.442 17.4065 148.256 16.8726C148.07 16.3387 147.563 15.9874 146.998 16.0003C146.961 16.0017 144.489 16.0574 141.437 16.5475C139.91 16.7933 138.239 17.1471 136.639 17.6703C135.427 18.0692 134.254 18.5617 133.213 19.2044L130.382 16.4087C130.101 16.1314 129.713 15.9973 129.321 16.0421C128.928 16.087 128.581 16.3052 128.37 16.6388L125.579 21.0508C122.796 20.5792 120.116 20.3388 117.552 20.3388C106.806 20.3297 98.0303 24.3616 91.4998 30.8595C85.2275 37.0913 81.0083 45.5542 78.771 54.8973C77.6514 54.665 76.3875 54.5088 75.0217 54.5085C72.8054 54.5086 70.3357 54.9118 67.9351 56.0589C65.5352 57.2029 63.2219 59.1022 61.3677 61.9856C61.1345 62.3473 61.0955 62.7982 61.2627 63.1947C61.4299 63.5912 61.7798 63.8779 62.2017 63.9637L68.7275 65.2893C66.8943 66.5359 64.7834 68.6625 63.0647 72.2069C62.884 72.5782 62.8914 73.0154 63.0837 73.3807C63.2759 73.7459 63.6323 73.9992 64.0405 74.0606L71.3643 75.1628C70.9834 76.9558 70.7908 78.7461 70.791 80.5176C70.7932 86.8739 73.1426 92.9452 77.0654 98.1994C76.6218 97.9759 76.1773 97.7525 75.7412 97.5273C73.2646 96.2491 70.9289 94.9518 68.9917 93.721C67.0564 92.4958 65.5144 91.3149 64.6755 90.3828C64.6216 90.3233 64.551 90.2929 64.4895 90.2457C64.4697 90.2089 64.4668 90.1679 64.4434 90.1325C63.7192 89.0462 62.8276 87.2197 61.9365 84.976C59.2644 78.2831 56.5095 67.7901 56.0999 60.1593C57.2327 58.8106 58.2073 57.2044 58.9927 55.4198C60.3303 52.367 61.1196 48.7991 61.1208 45.1347C61.1208 44.6927 61.1094 44.2496 61.0859 43.8061C60.9858 41.9334 60.7285 40.2558 60.252 38.7652C59.5466 36.5353 58.291 34.7001 56.4172 33.5112C55.7288 33.0723 54.9707 32.7241 54.1445 32.4574C53.8462 29.5112 53.1345 26.5913 51.6929 24.2418C50.9229 22.9933 49.9309 21.9046 48.6753 21.1312C47.4224 20.3559 45.9146 19.9192 44.2302 19.9222C42.0017 19.9251 39.4778 20.6618 36.5784 22.2217C35.8757 22.0884 34.4888 21.8756 32.7219 21.8749C30.7241 21.8761 28.2515 22.148 25.8054 23.1751C23.5168 24.1324 21.2639 25.8011 19.582 28.4434C18.6252 28.6271 16.6882 29.0973 14.5791 30.1937C13.116 30.9571 11.5684 32.0292 10.2483 33.5403C8.92822 35.0485 7.8479 37.0047 7.3457 39.4424C7.10766 40.5917 6.99975 41.7094 7 42.7861C7.00098 46.7427 8.44385 50.1043 10.0774 52.6799C10.4993 53.3456 10.9358 53.9598 11.3669 54.5235C11.3372 54.8046 11.283 55.4305 11.283 56.2914C11.2844 57.8388 11.4539 60.146 12.29 62.569C13.1228 64.9858 14.656 67.5416 17.3572 69.3987C18.7246 70.3423 20.0237 70.9862 21.2383 71.4263C21.2473 71.48 21.2373 71.533 21.2534 71.5866C21.8445 73.5385 23.0413 76.5271 24.6892 80.1087C27.1602 85.4732 30.6355 92.1233 34.5354 98.2425C38.4446 104.363 42.738 109.945 47.0278 113.222ZM153.215 130.58C153.062 130.281 153.001 129.982 153.003 129.8L153.016 129.66L153.022 129.641C153.103 129.493 153.263 129.265 153.451 129.113C153.65 128.958 153.825 128.869 154.13 128.864C154.296 128.864 154.515 128.895 154.813 129.01C154.899 129.037 155.139 129.195 155.397 129.495C155.791 129.939 156.219 130.648 156.57 131.355C156.785 131.784 156.972 132.206 157.131 132.583C156.889 132.88 156.682 133.087 156.534 133.199C156.298 133.372 156.247 133.349 156.245 133.353C156.239 133.352 156.203 133.356 156.083 133.292C155.906 133.202 155.597 132.949 155.236 132.604C154.871 132.261 154.446 131.834 153.922 131.429V131.429C153.603 131.184 153.367 130.881 153.215 130.58ZM37.5078 24.6714C40.2922 23.1242 42.5222 22.5192 44.2302 22.5221C45.4805 22.5252 46.4636 22.8258 47.3115 23.3447C48.5759 24.1204 49.5713 25.4645 50.2922 27.2191C50.8616 28.6005 51.24 30.2185 51.4626 31.9022C50.7681 31.825 50.0398 31.7849 49.2722 31.7848C49.0364 31.7848 48.7966 31.7883 48.5537 31.7954C44.9526 31.9061 41.2517 32.8023 37.6467 34.0521C37.499 32.5485 37.2871 29.9944 37.2881 27.7542C37.2854 26.5283 37.3613 25.4028 37.5078 24.6714ZM21.6238 30.0741C23.0293 27.7599 24.8608 26.3993 26.814 25.5716C28.8232 24.724 30.9624 24.4734 32.7219 24.4748C33.5459 24.4747 34.2839 24.5288 34.8831 24.5962C34.7388 25.5413 34.6907 26.6143 34.6882 27.7542C34.6892 30.5441 34.9854 33.6417 35.1287 34.9839C32.7014 35.9374 30.3401 37.009 28.1106 38.0672C27.5859 38.317 27.2898 38.8885 27.3884 39.4612C27.4065 39.5431 27.8503 42.1743 29.3818 44.9203C30.1509 46.2914 31.2007 47.7021 32.6584 48.7973C33.49 49.425 34.468 49.9328 35.5691 50.2579C35.3948 50.4117 35.21 50.56 35.0032 50.6977C34.0078 51.3629 32.6387 51.8056 31.2568 52.0527C29.876 52.3033 28.4907 52.3692 27.4651 52.3687C27.2051 52.3687 26.9695 52.3645 26.7612 52.3584C26.3618 51.5244 25.2085 49.0238 24.0862 45.7121C22.7732 41.8476 21.5166 36.8775 21.5205 32.2566C21.5205 31.5173 21.5564 30.789 21.6238 30.0741ZM12.2732 51.2875C10.8113 48.9818 9.59887 46.0949 9.59985 42.786C9.60009 41.8824 9.68995 40.9442 9.89185 39.9693C10.3057 37.979 11.1521 36.4618 12.2068 35.2503C13.7849 33.4376 15.8753 32.3325 17.585 31.7011C18.0828 31.5166 18.5391 31.3762 18.9446 31.2645C18.9324 31.5948 18.9207 31.9252 18.9207 32.2566C18.9248 37.5005 20.3491 42.8549 21.7561 46.9326C22.8289 50.0336 23.8965 52.3861 24.3542 53.3513C24.1836 53.6298 23.9167 53.9452 23.5634 54.2549C22.8603 54.8788 21.8344 55.4723 20.7605 55.8839C19.6887 56.2998 18.5615 56.5339 17.7036 56.5307C17.311 56.5314 16.979 56.4829 16.7424 56.409C16.5029 56.3347 16.3699 56.2436 16.2991 56.1707C15.4148 55.2689 13.7361 53.5941 12.2732 51.2875Z"/><path id="Vector_6" d="M150.75 128.376L150.749 128.377L150.748 128.378L150.749 128.377V128.377L150.75 128.376Z"/><path id="Vector_7" d="M117.675 41.7919C115.88 40.6824 113.592 39.8177 111.063 39.3639C109.854 39.1477 108.592 39.0274 107.305 39.0273C105.9 39.0274 104.465 39.1709 103.043 39.4929C100.319 40.1089 97.6349 41.3919 95.3698 43.5576C94.8505 44.0537 94.8319 44.8767 95.3278 45.3958C95.8239 45.9149 96.6469 45.9337 97.1662 45.4376H97.1659C99.0609 43.6288 101.285 42.5592 103.618 42.0286C104.833 41.7532 106.077 41.6273 107.305 41.6274C108.43 41.6273 109.541 41.7329 110.605 41.9233C112.83 42.3191 114.845 43.095 116.306 44.0022C116.916 44.3803 117.718 44.192 118.096 43.5816C118.474 42.9712 118.286 42.1699 117.675 41.7919Z"/><path id="Vector_8" d="M151.175 57.8045C154.016 60.133 156.356 63.3635 157.147 67.4149C157.285 68.1195 157.968 68.5791 158.673 68.4415C159.377 68.3038 159.837 67.6209 159.699 66.9164L159.699 66.9163C158.769 62.1562 156.028 58.4151 152.822 55.7928C149.605 53.1682 145.932 51.6153 142.842 51.2056C142.13 51.1129 141.478 51.615 141.385 52.327C141.292 53.039 141.794 53.6912 142.507 53.7838C145.005 54.1017 148.345 55.4784 151.175 57.8045Z"/><path id="Vector_9" d="M126.227 89.7607L126.225 89.7581L126.223 89.7559L126.227 89.7607Z"/><path id="Vector_10" d="M128.375 71.8563L128.377 71.8536L128.379 71.8506L128.375 71.8563Z"/><path id="Vector_11" d="M126.879 85.9702C126.589 86.3998 126.338 86.8085 126.14 87.2115C126.041 87.4139 125.954 87.6152 125.885 87.8319C125.818 88.0495 125.762 88.2818 125.761 88.575C125.761 88.7426 125.781 88.9353 125.851 89.1458C125.92 89.3539 126.047 89.578 126.225 89.7582C126.55 90.0816 126.868 90.2162 127.171 90.3261C127.63 90.4817 128.1 90.5537 128.623 90.6051C129.143 90.654 129.709 90.6726 130.303 90.6728C132.557 90.671 135.246 90.4005 136.589 90.248C137.049 91.0154 137.825 92.2766 138.698 93.5523C139.396 94.5705 140.15 95.5946 140.891 96.4137C141.264 96.8243 141.631 97.1849 142.03 97.4825C142.231 97.631 142.441 97.7654 142.687 97.8763C142.932 97.9847 143.221 98.0769 143.578 98.0787C143.726 98.0789 143.884 98.0605 144.038 98.0201L144.042 98.019C144.412 97.9203 144.692 97.7233 144.896 97.5271C145.277 97.151 145.477 96.7565 145.664 96.3313C145.977 95.5893 146.192 94.7185 146.377 93.7817C146.725 91.9917 146.927 89.9778 147.029 88.7526C147.827 88.688 148.948 88.5884 150.1 88.4542C151.167 88.3295 152.246 88.1788 153.131 87.9907C153.577 87.8948 153.97 87.7944 154.336 87.6546C154.52 87.5822 154.699 87.5034 154.9 87.3705C155.09 87.2333 155.359 87.0471 155.546 86.5768L155.547 86.5742C155.622 86.3682 155.648 86.1651 155.648 85.9872C155.645 85.6294 155.555 85.3587 155.455 85.123C155.261 84.6859 155.001 84.3356 154.694 83.9638C154.156 83.3235 153.455 82.6553 152.685 81.9777C151.021 80.5164 149.047 79.0409 148.073 78.3292C148.171 77.1614 148.345 74.8204 148.346 72.7722C148.346 71.8915 148.316 71.069 148.22 70.3641C148.171 70.0089 148.109 69.6846 147.994 69.3553C147.935 69.1901 147.863 69.0212 147.746 68.8381C147.628 68.6581 147.46 68.45 147.176 68.2791L147.175 68.2783C146.847 68.0879 146.542 68.0519 146.306 68.0505C146.023 68.0525 145.802 68.1028 145.589 68.1635C145.195 68.2806 144.827 68.4521 144.427 68.6618C143.054 69.3925 141.321 70.6421 139.873 71.7327C139.062 72.3458 138.361 72.8976 137.895 73.2697C137.293 73.0446 136.369 72.7083 135.337 72.3664C134.45 72.0728 133.492 71.7775 132.593 71.5501C131.687 71.3251 130.872 71.157 130.115 71.1514C129.864 71.1528 129.613 71.1688 129.324 71.2459C129.046 71.3242 128.682 71.4728 128.378 71.8536C128.204 72.0767 128.113 72.3071 128.063 72.5057C128.013 72.7073 128 72.8851 128 73.0511C128.003 73.4824 128.087 73.8573 128.198 74.2636C128.397 74.9656 128.709 75.7381 129.068 76.5399C129.771 78.104 130.658 79.7576 131.193 80.7231C130.634 81.3349 129.788 82.2768 128.928 83.3063C128.195 84.184 127.459 85.1148 126.879 85.9702ZM140.297 76.1469C140.522 75.6723 140.925 75.2271 141.441 74.9577V74.9576C141.442 74.9574 141.442 74.9574 141.442 74.9573C141.442 74.9573 141.442 74.9571 141.442 74.9571V74.9571C141.832 74.7492 142.27 74.6183 142.723 74.6187C143.382 74.6123 143.987 74.9153 144.377 75.2895C144.779 75.6659 145.033 76.0993 145.228 76.5417C145.607 77.4294 145.758 78.3904 145.762 79.2729C145.762 79.6241 145.737 79.9619 145.673 80.2921C145.605 80.623 145.517 80.9476 145.283 81.308C145.127 81.5417 144.873 81.8181 144.465 81.9755L144.462 81.9763C144.184 82.0821 143.885 82.1359 143.597 82.1353C142.96 82.1338 142.414 81.8924 141.986 81.5878C141.554 81.2787 141.211 80.8954 140.925 80.475C140.362 79.6296 139.998 78.638 139.988 77.5834C139.989 77.1155 140.068 76.6236 140.297 76.1469ZM137.074 78.6426C137.74 78.3741 138.497 78.6961 138.766 79.362L138.863 79.6018C139.131 80.2677 138.809 81.0251 138.143 81.2936C137.477 81.5622 136.72 81.24 136.451 80.5742L136.354 80.3344C136.086 79.6686 136.408 78.9111 137.074 78.6426Z"/><path id="Vector_12" d="M87.001 60.1831L87.0015 60.1823L87.002 60.1812L87.001 60.1831Z"/><path id="Vector_13" d="M100.699 79.4544C101.453 80.3501 102.278 81.2539 103.11 81.9776C103.528 82.3398 103.947 82.6589 104.395 82.9122C104.844 83.1592 105.326 83.3691 105.947 83.3771C106.114 83.3771 106.289 83.3587 106.463 83.3161C106.869 83.2181 107.208 82.9948 107.448 82.7519C107.872 82.319 108.079 81.8461 108.249 81.3525C108.494 80.6106 108.62 79.779 108.703 78.8884C108.783 78.0002 108.811 77.0609 108.811 76.1608C108.81 74.8647 108.753 73.6641 108.702 72.8399C109.478 72.6202 110.588 72.2961 111.725 71.9295C112.75 71.5983 113.782 71.2393 114.616 70.8815C115.036 70.7001 115.403 70.5246 115.735 70.316C115.902 70.2089 116.063 70.0967 116.234 69.9271C116.32 69.841 116.409 69.7391 116.498 69.5974C116.585 69.4564 116.675 69.269 116.714 69.0222L116.715 69.0161C116.731 68.9109 116.738 68.8078 116.738 68.7088C116.737 68.3598 116.651 68.0501 116.536 67.7857C116.316 67.2897 116.003 66.9153 115.649 66.5558C115.026 65.9357 114.24 65.3737 113.387 64.8311C111.559 63.6767 109.419 62.6492 108.339 62.1528C108.255 61.359 108.103 60.043 107.89 58.6887C107.72 57.6116 107.515 56.5174 107.259 55.6024C107.129 55.1423 106.99 54.7292 106.802 54.3444C106.705 54.1512 106.597 53.9627 106.437 53.7675C106.277 53.5774 106.057 53.3563 105.679 53.2094C105.473 53.1325 105.275 53.1068 105.105 53.1069C104.761 53.1107 104.518 53.193 104.302 53.2789C103.905 53.4467 103.58 53.6672 103.228 53.9302C102.621 54.3901 101.97 54.9924 101.302 55.6533C99.8748 57.069 98.3989 58.748 97.6697 59.5941C97.177 59.5298 96.4688 59.4415 95.6467 59.3523C94.0894 59.184 92.1616 59.0131 90.5791 59.0121C89.8989 59.0133 89.2869 59.0409 88.7349 59.1351C88.4565 59.1848 88.1921 59.2467 87.906 59.3711C87.7629 59.4348 87.6118 59.5154 87.4534 59.6398C87.2969 59.7634 87.1279 59.9382 87.0012 60.1823C86.8315 60.5105 86.7769 60.8481 86.7773 61.1412C86.783 61.6719 86.9268 62.1015 87.105 62.5289C87.4241 63.2684 87.9019 64.0038 88.4453 64.7511C89.4685 66.1483 90.738 67.5567 91.5449 68.4163C91.0747 69.0258 90.4299 69.883 89.7749 70.8251C89.1523 71.7213 88.5254 72.6845 88.033 73.5943C87.7869 74.0506 87.5735 74.4928 87.4102 74.9282C87.2502 75.3673 87.125 75.7889 87.1196 76.2987C87.1194 76.6483 87.1914 77.102 87.51 77.5198C87.8923 78.0089 88.3889 78.2349 88.8347 78.3604C89.29 78.4852 89.7439 78.5213 90.2197 78.5227C91.126 78.521 92.1201 78.3773 93.1416 78.1752C95.2024 77.7632 97.3628 77.0943 98.5576 76.7008C99.0522 77.3827 99.8198 78.4073 100.699 79.4544ZM100.294 61.4681C100.519 60.9933 100.922 60.5478 101.439 60.2784C101.439 60.2785 101.438 60.2784 101.438 60.2785L101.44 60.2778C101.439 60.2779 101.439 60.2782 101.439 60.2784C101.828 60.0705 102.266 59.9392 102.72 59.9396C103.379 59.9331 103.984 60.2361 104.374 60.6103C104.775 60.9866 105.029 61.42 105.224 61.8623C105.604 62.7497 105.754 63.7107 105.759 64.593C105.759 64.9444 105.733 65.2823 105.67 65.6126C105.602 65.9438 105.514 66.2684 105.28 66.6289C105.123 66.8628 104.869 67.1392 104.461 67.2967L104.458 67.298C104.18 67.4033 103.882 67.4572 103.594 67.4566C102.957 67.4552 102.411 67.2137 101.983 66.909C101.551 66.6 101.208 66.2167 100.922 65.7964C100.359 64.951 99.9951 63.9594 99.9849 62.9046C99.9856 62.4369 100.064 61.9449 100.294 61.4681ZM96.4482 65.8956L96.3516 65.6559C96.083 64.99 96.4053 64.2325 97.071 63.964C97.7368 63.6955 98.4944 64.0176 98.7629 64.6835L98.8596 64.9232C99.1282 65.5891 98.8059 66.3465 98.1401 66.615C97.4744 66.8836 96.7168 66.5614 96.4482 65.8956Z"/><path id="Vector_14" d="M87.5107 77.5211L87.51 77.5198L87.5078 77.5176L87.5107 77.5211Z"/><path id="Vector_15" d="M115.325 95.3102C116.01 95.0239 116.643 94.5887 117.282 94.067C119.18 92.4979 121.105 90.1072 122.228 88.2668L122.229 88.2643C122.528 87.7689 122.671 87.2163 122.67 86.6792C122.67 86.1033 122.51 85.5412 122.199 85.053C121.89 84.5662 121.414 84.1526 120.821 83.9291L120.798 83.9204L114.216 81.5703L114.215 81.572C113.903 81.4572 113.578 81.3984 113.259 81.3987C111.763 81.4077 110.532 82.5722 110.377 84.0991V84.0982C110.313 84.7387 110.283 85.4494 110.283 86.1983C110.285 87.9415 110.447 89.8858 110.818 91.5496C111.006 92.3836 111.241 93.1468 111.58 93.8165C111.751 94.1514 111.95 94.4661 112.212 94.7533C112.473 95.0373 112.809 95.3021 113.241 95.4564C113.512 95.5527 113.785 95.5908 114.042 95.5907C114.515 95.5886 114.933 95.471 115.325 95.3102ZM113.088 89.435C112.95 88.3767 112.883 87.2358 112.883 86.1983C112.883 85.5211 112.911 84.8876 112.965 84.3571V84.3563C112.988 84.0951 113.191 83.9923 113.259 83.9987L113.319 84.0107L113.341 84.0189L119.9 86.3607L120.009 86.4538L120.071 86.6792L120.001 86.9234L120.003 86.9209C119.291 88.1023 118.035 89.733 116.782 90.9982C116.157 91.6318 115.529 92.1771 115.003 92.5307C114.742 92.7077 114.507 92.8356 114.332 92.9077C114.237 92.9478 114.166 92.9677 114.115 92.9788C114.021 92.8748 113.842 92.5812 113.689 92.1525C113.437 91.4726 113.224 90.4916 113.088 89.435Z"/><path id="Vector_16" d="M113.242 95.4569L113.241 95.4565L113.239 95.4561L113.242 95.4569Z"/><path id="Vector_17" d="M91.8647 83.3892L91.5424 83.5015C90.8644 83.7377 90.5065 84.4789 90.7426 85.1569C90.9789 85.8348 91.7201 86.1929 92.3981 85.9567L92.7204 85.8444C93.3984 85.6081 93.7563 84.8669 93.5202 84.189C93.2839 83.511 92.5427 83.1529 91.8647 83.3892Z"/><path id="Vector_18" d="M87.0502 82.1684L86.1908 82.4686C85.5131 82.7055 85.1556 83.4469 85.3925 84.1247C85.6293 84.8025 86.3707 85.1599 87.0485 84.9231L87.9078 84.6228C88.5856 84.3859 88.943 83.6446 88.7062 82.9668C88.4694 82.289 87.7279 81.9315 87.0502 82.1684Z"/><path id="Vector_19" d="M82.7001 79.1509L81.1727 79.915C80.5306 80.2363 80.2706 81.0172 80.5917 81.6593C80.913 82.3014 81.694 82.5615 82.3361 82.2402L83.8634 81.4761C84.5055 81.1548 84.7655 80.3739 84.4444 79.7318C84.1232 79.0897 83.3422 78.8296 82.7001 79.1509Z"/><path id="Vector_20" d="M146.452 102.307L145.092 103.381C144.529 103.825 144.432 104.643 144.877 105.206C145.322 105.77 146.14 105.866 146.703 105.421L148.063 104.348C148.626 103.903 148.722 103.086 148.277 102.522C147.832 101.959 147.015 101.862 146.452 102.307Z"/><path id="Vector_21" d="M141.166 101.765L140.376 102.242C139.761 102.613 139.564 103.413 139.936 104.027C140.307 104.642 141.106 104.839 141.721 104.467L142.511 103.99C143.125 103.618 143.322 102.819 142.951 102.205C142.579 101.59 141.78 101.393 141.166 101.765Z"/><path id="Vector_22" d="M136.84 99.7666L136.543 99.9458C135.929 100.317 135.731 101.116 136.102 101.731C136.473 102.345 137.272 102.543 137.887 102.172L138.184 101.992C138.799 101.621 138.996 100.822 138.625 100.208C138.254 99.593 137.455 99.3956 136.84 99.7666Z"/></g></g></svg>