<svg width="200" height="200" viewBox="0 0 200 200" xmlns="http://www.w3.org/2000/svg"><g id="type=success, mode=dark"><g id="Group 432527103"><path id="Vector" d="M64.9576 33.6615L64.9573 33.6818H64.9693H64.9768C65.8682 33.684 66.6617 34.0236 67.4402 34.6354C68.6009 35.5448 69.5953 37.0714 70.2452 38.3693C70.573 39.0172 70.8208 39.6051 70.9844 40.025C71.066 40.235 71.1267 40.4029 71.1661 40.5157L71.2093 40.6417L71.2185 40.6705L71.22 40.6747C71.3975 41.236 71.9263 41.6063 72.5147 41.5812C73.1031 41.5563 73.5982 41.1422 73.7276 40.568L73.7305 40.5563C73.7696 40.3776 74.2644 38.3827 75.3055 36.4991C75.8225 35.557 76.4744 34.651 77.2173 34.0035C77.9668 33.3531 78.7632 32.9601 79.7127 32.8941C80.3741 32.85 80.897 32.3143 80.9253 31.652C80.9534 30.9896 80.4776 30.4115 79.8223 30.3119C78.4776 30.1026 77.4732 29.5213 76.6324 28.7118C75.377 27.5035 74.5672 25.7284 74.1155 24.2455C73.888 23.506 73.7454 22.8448 73.6612 22.3761C73.6192 22.1417 73.5916 21.9554 73.575 21.8316L73.5579 21.6939L73.5545 21.6637L73.5542 21.6605C73.4915 21.0121 72.9571 20.5094 72.3064 20.4862C71.6556 20.463 71.0867 20.9266 70.9783 21.5689L70.9756 21.5836C70.941 21.7914 70.5169 24.0282 69.4756 26.2713C68.9578 27.3929 68.2864 28.5101 67.4786 29.3783C66.6665 30.2503 65.7486 30.8641 64.668 31.1158C63.9954 31.2721 63.563 31.9254 63.6817 32.6056C63.7911 33.2318 64.337 33.6578 64.9576 33.6615Z"/><path id="Vector_2" d="M178.525 67.9641C178.632 68.3908 178.698 68.7793 178.736 69.0539C178.755 69.1914 178.768 69.3005 178.775 69.372L178.782 69.4502L178.783 69.466H178.783C178.829 70.1233 179.358 70.6418 180.016 70.6745C180.674 70.707 181.252 70.2427 181.362 69.593L181.363 69.5891C181.377 69.4926 181.627 68.1999 182.189 67.0442C182.465 66.4663 182.818 65.9333 183.186 65.5949C183.563 65.2539 183.888 65.1013 184.318 65.0859C184.977 65.0703 185.517 64.5678 185.581 63.9121C185.645 63.2561 185.211 62.6587 184.568 62.5168C183.942 62.3752 183.517 62.1096 183.159 61.761C182.628 61.2431 182.286 60.4829 182.108 59.8362C182.018 59.5151 181.967 59.2283 181.939 59.0303C181.925 58.9311 181.918 58.8542 181.913 58.8064L181.909 58.7571L181.909 58.7561C181.878 58.1133 181.383 57.5898 180.743 57.5241C180.103 57.4587 179.511 57.8708 179.351 58.4941C179.338 58.5537 179.056 59.5488 178.482 60.4963C178.197 60.9709 177.842 61.4287 177.448 61.7646C177.05 62.1028 176.635 62.32 176.149 62.4006C175.502 62.5061 175.034 63.0805 175.06 63.7353C175.085 64.3899 175.598 64.925 176.251 64.9792C176.733 65.0264 177.049 65.2085 177.399 65.573C177.913 66.1125 178.318 67.1079 178.525 67.9641Z"/><path id="Vector_3" d="M192.935 84.9547C191.636 84.8097 190.727 84.3326 189.987 83.6712C188.884 82.6844 188.211 81.1881 187.857 79.9127C187.678 79.2782 187.575 78.7066 187.519 78.3026C187.491 78.1004 187.474 77.94 187.465 77.8343L187.456 77.7181L187.454 77.6937V77.6935C187.421 77.0196 186.882 76.4845 186.208 76.4571C185.534 76.43 184.953 76.9198 184.866 77.589C184.819 77.971 184.631 78.6969 184.305 79.4986C183.82 80.7103 183.023 82.1319 182.004 83.2145C181.496 83.7574 180.935 84.2162 180.341 84.546C179.745 84.8758 179.119 85.0812 178.433 85.1346C177.748 85.1873 177.222 85.7643 177.233 86.4505C177.243 87.1368 177.786 87.6971 178.472 87.7293C179.649 87.7896 180.512 88.1874 181.256 88.7882C182.364 89.6842 183.133 91.1217 183.579 92.3553C183.803 92.9693 183.951 93.5257 184.041 93.9208C184.086 94.1183 184.116 94.2752 184.135 94.3793L184.154 94.4938L184.158 94.5182L184.158 94.5191C184.247 95.1564 184.793 95.6344 185.436 95.639C186.079 95.6437 186.632 95.1737 186.73 94.5379C186.976 92.9618 187.496 91.7723 188.128 90.8395C189.076 89.4447 190.31 88.6119 191.321 88.1251C191.825 87.8827 192.269 87.7291 192.577 87.639C192.731 87.5938 192.85 87.5646 192.926 87.5475L193.006 87.5304L193.013 87.5292L193.019 87.5279L193.019 87.527C193.654 87.4161 194.115 86.8529 194.096 86.2079C194.076 85.5609 193.579 85.0238 192.935 84.9547Z"/><path id="Vector_4" d="M98.7116 65.5829C98.4413 64.9179 97.683 64.5978 97.0177 64.8683C96.3527 65.1386 96.0326 65.8969 96.3031 66.5622L96.4008 66.8024C96.6711 67.4675 97.4294 67.7875 98.0946 67.517C98.7597 67.2468 99.0798 66.4885 98.8092 65.8232L98.7116 65.5829Z"/><path id="Vector_5" d="M101.436 61.4837L101.437 61.4829L101.439 61.4817L101.436 61.4837Z"/><path id="Vector_6" d="M104.374 61.8136C103.983 61.4393 103.378 61.1361 102.719 61.1427C102.267 61.142 101.828 61.2733 101.437 61.483C100.921 61.7525 100.519 62.1976 100.294 62.6717C100.064 63.1483 99.9851 63.6402 99.9844 64.1083C99.9946 65.1627 100.358 66.1541 100.921 66.9996C101.208 67.4198 101.55 67.8031 101.982 68.1119C102.41 68.4166 102.956 68.6581 103.593 68.6595C103.881 68.6603 104.177 68.6065 104.452 68.5033L104.46 68.5006C104.868 68.3431 105.123 68.0665 105.279 67.8326C105.513 67.472 105.601 67.1473 105.669 66.8163C105.732 66.4859 105.758 66.148 105.758 65.7967C105.753 64.9142 105.603 63.9532 105.223 63.0658C105.029 62.6234 104.775 62.1898 104.374 61.8136Z"/><path id="Vector_7" d="M137.641 80.8344C137.373 80.1681 136.616 79.8456 135.95 80.1137C135.284 80.3817 134.961 81.1388 135.229 81.8048L135.326 82.045C135.594 82.7113 136.351 83.0338 137.017 82.7658C137.683 82.4977 138.006 81.7406 137.738 81.0746L137.641 80.8344Z"/><path id="Vector_8" d="M140.312 76.4302L140.314 76.4295L140.317 76.428L140.312 76.4302Z"/><path id="Vector_9" d="M143.252 76.7594C142.861 76.3854 142.256 76.0824 141.597 76.089C141.146 76.0882 140.706 76.2191 140.314 76.4296C139.798 76.6988 139.396 77.1439 139.172 77.618C138.942 78.0946 138.863 78.5865 138.862 79.0546C138.873 80.109 139.236 81.1005 139.799 81.9459C140.085 82.3661 140.428 82.7494 140.86 83.0582C141.288 83.3629 141.834 83.6044 142.471 83.6058C142.759 83.6066 143.055 83.5528 143.33 83.4496L143.338 83.4466C143.746 83.2894 144 83.0131 144.157 82.7792C144.391 82.4186 144.479 82.0936 144.548 81.7623C144.611 81.4317 144.636 81.0936 144.637 80.7421C144.632 79.8595 144.482 78.8985 144.102 78.0111C143.907 77.569 143.653 77.1356 143.252 76.7594Z"/><path id="Vector_10" d="M21.2529 71.5872C21.844 73.5388 23.0407 76.5276 24.6887 80.1091C27.1596 85.4734 30.635 92.1235 34.5349 98.2424C38.4441 104.363 42.7375 109.946 47.0273 113.222C47.0874 113.268 47.1577 113.283 47.2224 113.317C47.2812 113.376 47.3254 113.446 47.3972 113.494C62.5498 123.732 76.6086 126.421 80.3613 126.987L81.2383 132.081C81.2453 132.188 81.2473 132.293 81.2541 132.4C80.5285 132.527 79.8181 132.604 79.1401 132.605C76.6853 132.606 74.5403 131.87 73.0127 131.124C72.25 130.751 71.6438 130.378 71.2358 130.104C71.032 129.967 70.8777 129.854 70.7778 129.779L70.6696 129.696L70.6474 129.678L70.6469 129.678C70.2358 129.337 69.6613 129.282 69.1933 129.539C69.1213 129.578 64.7409 131.983 59.2898 137.126C53.8408 142.269 47.3154 150.16 43.0129 161.161C42.7756 161.768 43.0222 162.454 43.591 162.771C44.1599 163.087 44.8723 162.936 45.2634 162.415C46.9716 160.139 48.696 158.523 50.3154 157.495C51.9372 156.465 53.4389 156.023 54.7588 156.023C55.7343 156.025 56.6225 156.259 57.4507 156.719C58.2768 157.181 59.0454 157.878 59.7212 158.832C59.967 159.18 60.3691 159.385 60.7949 159.381C61.2209 159.377 61.6186 159.164 61.8579 158.811L61.865 158.801C61.9697 158.647 63.1628 156.96 64.9724 155.364C65.8755 154.566 66.9304 153.793 68.0566 153.234C69.185 152.673 70.372 152.329 71.5781 152.329C72.9604 152.335 74.4008 152.756 75.9875 153.986C76.5471 154.423 77.3523 154.33 77.7986 153.778L77.8252 153.745C77.9707 153.567 78.6955 152.694 79.6831 151.67C80.0405 151.299 80.4402 150.91 80.8515 150.526C79.9919 158.92 78.3469 166.523 76.6987 172.572C75.5068 176.949 74.3152 180.512 73.4236 182.976C72.9778 184.209 72.6069 185.166 72.3488 185.812C72.2197 186.135 72.1189 186.381 72.0508 186.544L71.9738 186.727L71.9497 186.783C71.6643 187.442 71.967 188.208 72.6262 188.493C73.2851 188.778 74.0505 188.476 74.3359 187.817L74.3357 187.816C74.3676 187.727 84.0547 165.397 84.0634 138.862C84.0634 136.552 83.9895 134.21 83.8293 131.848L83.8134 131.715L82.7617 125.607C82.7566 125.578 82.738 125.556 82.7312 125.528C82.7104 125.442 82.675 125.366 82.6379 125.288C82.6023 125.212 82.5708 125.137 82.5219 125.07C82.4743 125.005 82.4157 124.953 82.3569 124.898C82.2942 124.839 82.2356 124.781 82.1628 124.735C82.0964 124.693 82.0236 124.668 81.9497 124.639C81.865 124.605 81.7834 124.574 81.6921 124.559C81.6645 124.554 81.6426 124.537 81.6145 124.534L81.6142 124.534L81.5803 124.531C80.7556 124.44 65.4325 122.553 48.8532 111.34C48.8102 111.311 48.7607 111.306 48.7158 111.283C48.6745 111.242 48.6496 111.19 48.602 111.153L48.6017 111.153C46.0512 109.216 43.3073 106.163 40.6465 102.57C36.6491 97.179 32.8151 90.5765 29.788 84.6517C28.2741 81.689 26.9602 78.8948 25.9253 76.5074C25.1887 74.8099 24.5959 73.3187 24.1725 72.1287C24.5998 72.1761 25.0146 72.2066 25.4018 72.2059C28.143 72.2037 29.7788 71.1641 29.9165 71.0743C30.5166 70.6802 30.6838 69.8746 30.29 69.2745C29.8986 68.678 29.1015 68.5118 28.5027 68.8958L28.5012 68.8934C28.4773 68.9085 27.3366 69.6075 25.4018 69.606C23.7805 69.6016 21.5683 69.1361 18.83 67.2564C16.6782 65.773 15.456 63.7606 14.7466 61.7193C14.2212 60.2052 13.999 58.6893 13.9199 57.4552C14.114 57.6551 14.2947 57.8394 14.4399 57.9883C14.8801 58.4376 15.4211 58.722 15.9746 58.8927C16.531 59.0638 17.1101 59.1297 17.7036 59.1302C19.424 59.1226 21.3061 58.5831 22.9875 57.734C23.8261 57.3062 24.6103 56.7972 25.2832 56.2044C25.7102 55.826 26.0886 55.4078 26.4045 54.9478C26.6965 54.9598 27.053 54.9688 27.4624 54.9688C28.9753 54.9669 31.1767 54.8499 33.3303 54.2403C34.4072 53.9334 35.477 53.5015 36.4392 52.8643C37.2839 52.3057 38.0364 51.5628 38.5898 50.6348C42.0073 50.588 44.8061 49.7677 46.7654 48.9373C48.7841 48.0814 49.9257 47.2218 49.9917 47.1719C50.5632 46.7376 50.6743 45.9222 50.2402 45.3507C49.8059 44.7789 48.9907 44.6678 48.4192 45.1019L48.4189 45.1016C48.3586 45.1468 47.3413 45.8897 45.5832 46.6134C43.8239 47.3382 41.3303 48.0438 38.2898 48.0438L38.2414 48.044C36.5647 48.0345 35.2944 47.5174 34.2177 46.7171C32.6096 45.5213 31.4988 43.5958 30.8359 41.9449C30.5266 41.1812 30.3139 40.4905 30.1731 39.9683C36.0988 37.1861 42.7627 34.5521 48.6277 34.3944H48.6311C48.8459 34.3875 49.0591 34.3846 49.2707 34.3846C50.9958 34.3841 52.4011 34.5992 53.5241 34.9896C55.207 35.586 56.2807 36.5096 57.0869 37.9378C57.8847 39.3673 58.3547 41.3668 58.489 43.9432C58.5095 44.3389 58.5202 44.7362 58.5202 45.1314C58.5215 48.4193 57.802 51.6614 56.6111 54.3741C55.4253 57.0897 53.7585 59.2591 51.9944 60.4517C51.4006 60.8555 51.2468 61.6644 51.6508 62.2581C52.0547 62.8517 52.8635 63.0055 53.4572 62.6017L53.457 62.6014C53.53 62.5514 53.5989 62.492 53.6711 62.4403C54.154 67.3412 55.3542 72.8868 56.81 77.9256C57.6557 80.8487 58.5869 83.5953 59.5195 85.9381C60.4555 88.284 61.3786 90.2144 62.2754 91.5706C62.3701 91.7135 62.4907 91.828 62.6237 91.9193C62.6662 91.9896 62.6919 92.0665 62.749 92.1295L62.7487 92.1292C63.5066 92.9628 64.5017 93.7853 65.6865 94.6334C67.758 96.1131 70.4128 97.6568 73.2986 99.1852C77.625 101.475 82.4653 103.72 86.5305 105.543C88.5627 106.454 90.4008 107.259 91.8791 107.909C93.3545 108.557 94.4829 109.056 95.0439 109.329C95.6894 109.643 96.4673 109.375 96.7815 108.729C97.0954 108.083 96.8266 107.306 96.1811 106.992C95.195 106.513 93.0876 105.605 90.334 104.388C88.1833 103.439 85.6501 102.306 83.0168 101.078C82.9826 101.035 82.9658 100.984 82.9253 100.944C77.0014 95.1708 73.3874 87.9698 73.3904 80.5189C73.3906 78.5299 73.6467 76.5182 74.1875 74.4977C74.373 73.8041 73.9614 73.0914 73.268 72.9059C73.1872 72.8841 73.1086 72.8968 73.0283 72.891C72.883 72.8006 72.718 72.7372 72.5383 72.7101L72.5381 72.7098L66.2678 71.7669C67.7632 69.2879 69.3772 67.9076 70.666 67.1283C71.4382 66.6639 72.0971 66.4125 72.5473 66.2782C72.7722 66.211 72.9445 66.1734 73.052 66.1534L73.1621 66.1351L73.1772 66.1332L73.177 66.1307C73.8108 66.0648 74.3071 65.5477 74.3413 64.9098C74.3757 64.2672 73.9326 63.694 73.302 63.566L64.7138 61.8209C66.0498 60.2235 67.5295 59.1366 69.0561 58.4042C71.0393 57.4557 73.1175 57.108 75.0218 57.108C76.4629 57.1078 77.8003 57.308 78.8886 57.5853C79.0686 57.6312 79.2485 57.6336 79.4206 57.6051C79.438 57.6097 79.4504 57.6219 79.4677 57.6258C80.1689 57.7796 80.8623 57.3356 81.0163 56.6344L81.0161 56.6341C83.083 47.2047 87.2332 38.755 93.3313 32.7032C99.4375 26.6534 107.453 22.9488 117.548 22.9395C121.479 22.9395 125.728 23.5089 130.296 24.7415C131.472 25.1322 132.516 25.5792 133.365 26.1309C134.259 26.7078 134.948 27.3751 135.458 28.2223C135.967 29.0711 136.309 30.1219 136.411 31.5257C136.455 32.1327 136.915 32.629 137.516 32.7186C138.118 32.8084 138.702 32.4676 138.921 31.9L138.961 31.8001C139.105 31.4374 139.649 30.1126 140.494 28.402C149.411 32.3605 155.746 37.4078 159.891 43.1878C164.204 49.2106 166.186 56.0465 166.19 63.4459C166.191 70.7277 164.248 78.5504 160.651 86.5316C160.621 86.597 160.623 86.6654 160.605 86.7325C160.603 86.7357 160.6 86.7374 160.598 86.7406C160.248 87.367 160.471 88.1593 161.098 88.5099L161.098 88.5096C165.272 90.8514 167.499 93.632 168.735 96.1571C169.709 98.1549 170.046 100.001 170.146 101.335L162.679 96.9542C162.121 96.6266 161.409 96.7584 161.006 97.2645C160.604 97.7672 160.633 98.4833 161.068 98.9554L161.066 98.9569L161.145 99.0519C161.509 99.5192 162.995 101.606 162.998 105.522C162.998 106.244 162.938 107.037 162.819 107.889L157.647 104.495C157.751 104.15 157.868 103.813 157.961 103.46C158.144 102.766 157.73 102.055 157.036 101.871C156.342 101.688 155.631 102.102 155.447 102.797L155.447 102.796C154.029 108.157 151.256 112.417 147.42 115.363C143.582 118.305 138.654 119.954 132.819 119.957C131.221 119.957 129.554 119.826 127.828 119.569C127.396 119.351 126.968 119.136 126.552 118.929C123.726 117.522 121.405 116.421 121.4 116.418C120.751 116.111 119.976 116.387 119.668 117.036C119.361 117.685 119.637 118.46 120.286 118.768L120.286 118.768C120.286 118.768 120.472 118.856 120.806 119.016C121.766 119.476 123.941 120.525 126.311 121.716C126.495 121.891 126.715 122.032 126.984 122.075C127.002 122.078 127.02 122.08 127.038 122.083C127.315 122.223 127.593 122.364 127.871 122.506C129.336 123.256 130.794 124.024 132.007 124.704C132.613 125.044 133.158 125.362 133.608 125.641C134.056 125.919 134.413 126.163 134.615 126.325C134.79 126.459 135.193 126.87 135.66 127.426C136.489 128.405 137.585 129.858 138.745 131.468C140.487 133.884 142.382 136.663 143.839 138.835C144.567 139.92 145.186 140.854 145.623 141.516C146.06 142.179 146.312 142.566 146.313 142.567C146.392 142.689 146.498 142.78 146.605 142.865C146.955 143.302 147.547 143.492 148.092 143.272C150.293 142.378 152.043 140.775 153.376 139.234C154.464 137.969 155.263 136.743 155.756 135.903C155.913 135.932 156.074 135.953 156.243 135.953C156.908 135.957 157.565 135.688 158.109 135.267C158.279 135.136 158.444 134.986 158.606 134.826C158.704 134.883 158.801 134.946 158.9 134.989C159.526 135.27 160.133 135.332 160.651 135.334C160.871 135.333 161.075 135.32 161.264 135.301C161.351 135.442 161.443 135.588 161.555 135.741C161.823 136.101 162.168 136.486 162.642 136.809C163.11 137.13 163.738 137.382 164.447 137.38C164.73 137.38 165.015 137.341 165.295 137.266C165.989 137.081 166.401 136.368 166.216 135.675C166.031 134.981 165.318 134.569 164.625 134.754L164.447 134.78C164.339 134.778 164.248 134.753 164.101 134.656C163.884 134.517 163.618 134.192 163.447 133.895C163.443 133.888 163.441 133.883 163.437 133.877C163.74 132.861 164.307 131.848 164.869 131.051C165.153 130.647 165.434 130.297 165.67 130.028C165.903 129.761 166.103 129.565 166.171 129.508C166.715 129.039 166.776 128.218 166.307 127.675C165.838 127.131 165.017 127.07 164.474 127.539C164.257 127.727 164.012 127.976 163.714 128.315C162.904 129.249 161.763 130.801 161.092 132.703C160.953 132.721 160.804 132.735 160.651 132.734C160.371 132.736 160.111 132.687 159.975 132.622C159.935 132.6 159.918 132.585 159.893 132.568C159.878 132.475 159.857 132.383 159.821 132.293C159.67 131.914 159.453 131.384 159.185 130.803C159.225 130.739 159.28 130.689 159.309 130.617L159.309 130.617L159.318 130.594C159.378 130.451 159.714 129.677 160.252 128.756C160.787 127.837 161.536 126.774 162.339 126.064C162.875 125.587 162.923 124.765 162.446 124.229C161.969 123.693 161.147 123.645 160.611 124.122C159.407 125.198 158.516 126.555 157.887 127.654C157.792 127.821 157.706 127.98 157.624 128.134C157.532 128.016 157.448 127.891 157.35 127.779C157.121 127.522 156.871 127.278 156.587 127.063C156.597 126.983 156.624 126.908 156.619 126.825L156.619 126.825C156.618 126.809 156.615 126.746 156.615 126.645C156.613 126.255 156.661 125.312 156.971 124.372C157.125 123.902 157.342 123.434 157.633 123.024C157.925 122.612 158.286 122.256 158.763 121.972C158.992 121.827 159.486 121.703 160.089 121.708C161.077 121.7 162.316 122.014 162.998 122.325C165.056 123.244 166.667 124.46 167.763 125.965C168.856 127.475 169.472 129.284 169.477 131.571C169.477 131.8 169.471 132.035 169.458 132.277C169.367 134.01 168.766 136.358 167.775 138.889C166.292 142.693 163.947 146.937 161.295 150.494C159.97 152.273 158.568 153.88 157.174 155.178C155.781 156.476 154.393 157.459 153.139 158.01C152.8 158.162 152.226 158.333 151.548 158.451C150.868 158.571 150.078 158.645 149.267 158.645C148.223 158.646 147.143 158.521 146.207 158.242C145.28 157.968 144.513 157.547 143.988 157.006C139.671 142.82 134.638 133.031 134.617 132.98C134.289 132.341 133.506 132.089 132.867 132.417C132.229 132.745 131.977 133.529 132.305 134.168L132.305 134.167L132.338 134.234C133.071 135.664 145.274 160.202 147.211 187.035C147.263 187.751 147.886 188.289 148.602 188.237C149.318 188.185 149.856 187.563 149.805 186.847C149.122 177.503 147.243 168.485 145.031 160.581C145.176 160.631 145.32 160.69 145.467 160.734C146.714 161.103 148.022 161.244 149.267 161.245C150.235 161.245 151.165 161.158 151.999 161.012C152.835 160.863 153.571 160.661 154.19 160.389C156.361 159.423 158.46 157.701 160.468 155.557C163.472 152.336 166.25 148.139 168.348 143.965C169.397 141.878 170.273 139.798 170.914 137.84C171.554 135.881 171.963 134.049 172.054 132.417C172.069 132.131 172.077 131.85 172.077 131.571C172.082 128.803 171.289 126.385 169.865 124.435C168.443 122.482 166.429 121.009 164.057 119.951C162.998 119.486 161.559 119.116 160.089 119.108C159.199 119.113 158.28 119.243 157.435 119.737C156.618 120.221 155.983 120.853 155.511 121.521C154.801 122.528 154.439 123.607 154.242 124.527C154.094 125.223 154.041 125.833 154.023 126.273C153.095 126.298 152.317 126.671 151.801 127.104C151.256 127.554 150.937 128.044 150.75 128.375C150.491 128.841 150.405 129.327 150.403 129.8C150.405 130.457 150.575 131.117 150.894 131.752C151.214 132.385 151.691 132.993 152.335 133.489C152.712 133.777 153.099 134.165 153.528 134.565C153.099 135.296 152.369 136.421 151.406 137.537C150.46 138.64 149.289 139.711 148.016 140.423C147.192 139.169 145.391 136.45 143.414 133.585C142.066 131.631 140.639 129.613 139.381 127.945C138.752 127.11 138.166 126.363 137.645 125.746C137.117 125.127 136.68 124.65 136.235 124.291C135.845 123.982 135.356 123.661 134.762 123.298C134.369 123.059 133.92 122.801 133.449 122.535C139.508 122.419 144.824 120.635 149.003 117.426C152.413 114.812 155.04 111.264 156.76 107.023L163.025 111.134C163.381 111.368 163.823 111.412 164.219 111.255C164.615 111.097 164.905 110.761 165.003 110.346C165.426 108.561 165.598 106.952 165.598 105.522C165.598 103.899 165.374 102.515 165.059 101.365L170.751 104.703C171.122 104.921 171.574 104.942 171.963 104.758C172.352 104.575 172.624 104.213 172.692 103.788C172.701 103.732 172.786 103.182 172.786 102.282C172.785 100.693 172.521 97.9948 171.072 95.0182C169.735 92.2643 167.345 89.3029 163.347 86.8353C166.844 78.8558 168.789 70.9518 168.79 63.4459C168.794 55.5831 166.653 48.1512 162.004 41.673C157.568 35.4847 150.873 30.1888 141.706 26.0948C141.727 26.057 141.745 26.0209 141.767 25.983C143.337 23.1786 145.504 20.0677 147.811 18.337C148.262 17.996 148.441 17.4066 148.255 16.8727C148.069 16.3387 147.563 15.9872 146.998 16.0004C146.96 16.0018 144.488 16.0575 141.437 16.5475C139.91 16.7933 138.238 17.1471 136.639 17.67C135.426 18.069 134.254 18.5614 133.212 19.2042L130.38 16.4081C130.099 16.1307 129.711 15.9967 129.319 16.0416C128.927 16.0868 128.579 16.3048 128.368 16.6388L125.583 21.0441C122.795 20.5709 120.115 20.3397 117.548 20.3397C106.803 20.3304 98.029 24.3612 91.4995 30.8583C85.2273 37.0897 81.0085 45.5526 78.7717 54.8968C77.6516 54.6644 76.3874 54.5084 75.0217 54.5082C72.8051 54.5082 70.3354 54.9112 67.9348 56.0585C65.5346 57.2025 63.2217 59.1021 61.3681 61.9857C61.135 62.3473 61.0959 62.7982 61.2632 63.1947C61.4304 63.5912 61.7802 63.8778 62.2021 63.9637L68.727 65.2897C66.8938 66.536 64.7829 68.6627 63.0642 72.2074C62.8835 72.5785 62.8908 73.016 63.0832 73.3812C63.2756 73.7464 63.6321 73.9996 64.0403 74.0611L71.3642 75.1624C70.9831 76.9559 70.7903 78.7469 70.7905 80.5189C70.7927 86.8754 73.1433 92.9466 77.0671 98.201C76.6228 97.9769 76.1772 97.753 75.7402 97.5275C73.2636 96.2494 70.9279 94.9518 68.9909 93.721C67.0556 92.4959 65.5136 91.315 64.6753 90.3829C64.6206 90.3226 64.5495 90.2919 64.487 90.2442C64.4677 90.2084 64.4651 90.1678 64.4419 90.1332C63.7177 89.0467 62.8261 87.2203 61.935 84.9764C59.2629 78.2836 56.509 67.7897 56.0993 60.1591C57.2321 58.8099 58.2068 57.2032 58.9924 55.4181C60.3296 52.3649 61.1189 48.7962 61.1201 45.1315C61.1201 44.6896 61.1084 44.2479 61.0854 43.807C60.9853 41.933 60.7277 40.2552 60.2512 38.7645C59.5459 36.5345 58.29 34.6993 56.416 33.5109C55.7278 33.0721 54.97 32.724 54.144 32.4574C53.8457 29.5111 53.134 26.5912 51.6924 24.2416C50.9224 22.993 49.9302 21.9044 48.6746 21.131C47.4216 20.3556 45.9136 19.9188 44.2292 19.922C42.0012 19.9247 39.4768 20.6615 36.5779 22.2215C35.8752 22.0885 34.4883 21.8758 32.7214 21.8749C30.7236 21.8761 28.2509 22.1478 25.8047 23.1749C23.5161 24.1319 21.2627 25.8009 19.5805 28.4432C18.6237 28.6268 16.687 29.097 14.5781 30.1937C13.1152 30.9571 11.5679 32.0292 10.2478 33.5404C8.92822 35.0485 7.8479 37.0045 7.34619 39.442C7.10791 40.5917 6.99975 41.7098 7 42.7875C7.00098 46.7438 8.44409 50.1049 10.0776 52.68C10.4995 53.3453 10.9358 53.9594 11.3667 54.5228C11.3367 54.8036 11.2825 55.4305 11.2825 56.2926C11.2839 57.8402 11.4534 60.1471 12.2893 62.5695C13.1221 64.986 14.655 67.5411 17.3557 69.3981C18.7234 70.3419 20.0227 70.9862 21.2375 71.4262C21.2468 71.48 21.2365 71.5332 21.2529 71.5872ZM81.4636 138.862C81.4638 141.589 81.3532 144.27 81.1645 146.891C79.8337 147.856 78.5798 149.058 77.604 150.082C77.2002 150.507 76.8462 150.899 76.5595 151.224C74.9006 150.189 73.195 149.724 71.5781 149.729C69.8183 149.73 68.1924 150.244 66.7649 150.973C64.6218 152.072 62.8889 153.655 61.664 154.962C61.3064 155.345 60.999 155.7 60.7336 156.018C60.1201 155.394 59.4509 154.858 58.7177 154.449C57.5146 153.776 56.1628 153.422 54.7588 153.423C52.851 153.423 50.8681 154.062 48.9209 155.301C48.747 155.411 48.5735 155.532 48.4001 155.653C52.2431 148.386 56.9726 142.888 61.0744 139.017C63.6936 136.545 66.053 134.735 67.7492 133.549C68.5962 132.957 69.2776 132.52 69.7434 132.233C70.2365 132.567 70.9548 133.012 71.872 133.46C73.6482 134.326 76.1645 135.203 79.1401 135.205C79.8645 135.205 80.6164 135.146 81.3862 135.029C81.4341 136.314 81.4636 137.594 81.4636 138.862ZM153.215 130.58C153.062 130.281 153.001 129.981 153.003 129.8L153.016 129.659L153.021 129.641C153.102 129.494 153.262 129.265 153.451 129.113C153.65 128.957 153.825 128.868 154.13 128.863C154.297 128.864 154.514 128.895 154.811 129.009C154.899 129.036 155.138 129.195 155.396 129.495C155.79 129.938 156.218 130.648 156.57 131.355C156.785 131.784 156.971 132.206 157.131 132.583C156.889 132.88 156.682 133.087 156.533 133.198C156.297 133.371 156.246 133.349 156.243 133.353C156.238 133.352 156.202 133.356 156.082 133.292C155.905 133.202 155.596 132.949 155.235 132.604C154.87 132.26 154.445 131.834 153.921 131.429C153.602 131.184 153.367 130.881 153.215 130.58ZM129.703 19.3928L132.151 21.8101C132.617 22.2703 133.356 22.311 133.87 21.905C134.75 21.2058 136.029 20.6025 137.447 20.1409C139.444 19.4861 141.687 19.1047 143.508 18.887C141.77 20.8872 140.319 23.2117 139.176 25.2935C139.007 25.6035 138.847 25.906 138.692 26.2034C138.691 26.2053 138.69 26.2065 138.689 26.2085C138.688 26.2092 138.688 26.2102 138.688 26.2112C138.448 26.6716 138.225 27.115 138.022 27.532C137.915 27.3125 137.811 27.0894 137.687 26.8838C136.572 25.0237 134.854 23.8125 132.935 22.9653C132.357 22.71 131.751 22.49 131.134 22.2839C131.117 22.2786 131.105 22.2654 131.087 22.2605C131.037 22.2468 130.987 22.2356 130.937 22.2219C130.107 21.9526 129.254 21.7117 128.375 21.4939L129.703 19.3928ZM37.507 24.6714C40.2912 23.1235 42.521 22.5188 44.2292 22.5217C45.4797 22.5249 46.4626 22.8254 47.3108 23.3445C48.5754 24.1204 49.571 25.4643 50.292 27.219C50.8611 28.6003 51.2397 30.2185 51.4621 31.9021C50.7673 31.8249 50.0388 31.7847 49.2707 31.7847C49.0363 31.7847 48.7954 31.7876 48.5488 31.7954H48.5522C44.9514 31.9065 41.2512 32.8025 37.6472 34.0522C37.4992 32.5479 37.2871 29.9915 37.2881 27.7507C37.2854 26.5261 37.361 25.4019 37.507 24.6714ZM21.6235 30.072C23.029 27.7588 24.8603 26.3987 26.813 25.5713C28.8225 24.7239 30.9619 24.4734 32.7214 24.4746C33.5454 24.4746 34.2834 24.5286 34.8828 24.5959C34.7385 25.5403 34.6906 26.6118 34.6882 27.7507C34.6892 30.5415 34.9856 33.6409 35.1291 34.9841C32.7016 35.9377 30.3401 37.0095 28.1101 38.0676C27.5852 38.3174 27.2893 38.8889 27.3879 39.4617C27.406 39.5437 27.8498 42.1748 29.3813 44.9204C30.1504 46.2915 31.2002 47.7022 32.6579 48.7971C33.4895 49.4248 34.4675 49.9326 35.5683 50.2576C35.394 50.4116 35.2092 50.5598 35.0022 50.6975C34.0063 51.3628 32.6367 51.8057 31.2546 52.0527C29.8733 52.3035 28.4878 52.3694 27.4624 52.3689C27.2033 52.3689 26.9685 52.3647 26.761 52.3587C26.3615 51.5249 25.208 49.0242 24.0857 45.7122C22.7727 41.8477 21.5161 36.8774 21.52 32.2564C21.52 31.5161 21.5559 30.7874 21.6235 30.072ZM12.2732 51.2876C10.8115 48.9822 9.59884 46.0957 9.59982 42.7874C9.60006 41.8833 9.69015 40.9443 9.8923 39.969C10.3061 37.9785 11.1521 36.4614 12.2065 35.25C13.7844 33.4375 15.8745 32.3323 17.584 31.7007C18.082 31.5161 18.5385 31.3755 18.9441 31.2639C18.9319 31.5942 18.9201 31.9248 18.9201 32.2563C18.9243 37.5005 20.3486 42.855 21.7556 46.9326C22.8283 50.0337 23.8962 52.3865 24.354 53.3513C24.1828 53.6299 23.916 53.9451 23.5627 54.2549C22.8598 54.8787 21.8339 55.4719 20.76 55.8835C19.6884 56.2993 18.5615 56.5334 17.7036 56.5303C17.311 56.5308 16.9785 56.4824 16.7419 56.4084C16.5024 56.3342 16.3693 56.2432 16.2983 56.1699C15.4148 55.2686 13.7363 53.5938 12.2732 51.2876Z"/><path id="Vector_11" d="M150.748 128.377L150.75 128.375L150.75 128.375L150.748 128.377Z"/><path id="Vector_12" d="M107.304 41.6272C108.429 41.6272 109.541 41.7327 110.605 41.9233C112.83 42.3191 114.845 43.0952 116.306 44.0027C116.916 44.3809 117.717 44.1926 118.096 43.5825C118.474 42.9722 118.286 42.1709 117.675 41.7927C115.88 40.6824 113.592 39.8179 111.063 39.364C109.854 39.1475 108.591 39.0273 107.304 39.0273C105.899 39.0273 104.464 39.1709 103.043 39.4929C100.319 40.1079 97.6349 41.3926 95.37 43.5571C94.8507 44.053 94.8317 44.876 95.3278 45.3953C95.8236 45.9143 96.6466 45.9334 97.1659 45.4375L97.1657 45.4373C99.0609 43.6292 101.285 42.5584 103.617 42.0288C104.833 41.7532 106.076 41.6272 107.304 41.6272Z"/><path id="Vector_13" d="M151.175 57.8045C154.016 60.1329 156.356 63.3631 157.148 67.4146C157.285 68.1192 157.968 68.5787 158.673 68.4412C159.377 68.3035 159.837 67.6207 159.699 66.9161L159.699 66.9158C158.769 62.1558 156.028 58.4149 152.822 55.7928C149.605 53.1683 145.931 51.6155 142.842 51.2051C142.13 51.1124 141.478 51.6143 141.385 52.3265C141.292 53.0384 141.794 53.691 142.506 53.7838C145.004 54.1016 148.345 55.4786 151.175 57.8045Z"/><path id="Vector_14" d="M126.878 85.97C126.588 86.3994 126.337 86.8081 126.139 87.211C126.04 87.4134 125.953 87.6145 125.885 87.8313C125.817 88.0489 125.761 88.281 125.76 88.5745C125.76 88.742 125.78 88.9351 125.85 89.1448C125.919 89.3533 126.046 89.5764 126.221 89.7549C126.221 89.7549 126.221 89.7549 126.221 89.7551C126.547 90.0808 126.866 90.2156 127.17 90.3259C127.629 90.4815 128.099 90.5537 128.623 90.605C129.144 90.6538 129.71 90.6726 130.304 90.6726C132.557 90.6709 135.245 90.4007 136.588 90.2486C137.048 91.0159 137.824 92.2766 138.697 93.5523C139.395 94.5703 140.149 95.5942 140.89 96.4133C141.263 96.8237 141.629 97.1843 142.029 97.4819C142.23 97.6304 142.44 97.7646 142.686 97.8755C142.931 97.9839 143.22 98.0762 143.577 98.0779C143.734 98.0781 143.884 98.0571 144.014 98.0256L144.041 98.0185C144.411 97.9199 144.69 97.7231 144.895 97.5268C145.276 97.1506 145.476 96.7563 145.663 96.331C145.976 95.5891 146.191 94.7185 146.376 93.7817C146.724 91.9917 146.926 89.9778 147.028 88.7524C147.826 88.688 148.947 88.5884 150.099 88.4541C151.166 88.3293 152.245 88.1787 153.13 87.9905C153.576 87.8945 153.969 87.7942 154.335 87.6543C154.519 87.5818 154.698 87.5029 154.899 87.3699C155.09 87.2327 155.358 87.0464 155.545 86.5762L155.546 86.5737C155.621 86.3677 155.647 86.165 155.647 85.9871C155.644 85.6292 155.554 85.3584 155.454 85.1228C155.26 84.6855 155 84.3355 154.693 83.9636C154.155 83.3235 153.454 82.6553 152.684 81.9775C151.02 80.5164 149.046 79.0408 148.072 78.3289C148.17 77.1619 148.344 74.8225 148.345 72.7751C148.344 71.8938 148.315 71.0706 148.219 70.365C148.169 70.0095 148.107 69.6848 147.992 69.3555C147.933 69.1902 147.861 69.0212 147.744 68.8379C147.626 68.658 147.458 68.4497 147.173 68.2788C146.848 68.0891 146.543 68.0515 146.304 68.0503C146.021 68.0522 145.8 68.1025 145.587 68.1631C145.193 68.2803 144.825 68.4519 144.426 68.6614C143.052 69.3921 141.319 70.6416 139.872 71.7322C139.061 72.3452 138.36 72.8972 137.894 73.2693C137.292 73.0439 136.368 72.7078 135.336 72.366C134.449 72.0723 133.491 71.7771 132.592 71.5496C131.686 71.3245 130.871 71.1565 130.114 71.1509C129.863 71.1521 129.612 71.168 129.324 71.2451C129.046 71.3232 128.681 71.4724 128.377 71.8533C128.203 72.0764 128.112 72.3064 128.062 72.5049C128.012 72.7065 128 72.8843 127.999 73.0503C128.002 73.4814 128.086 73.8564 128.198 74.2627C128.396 74.9648 128.708 75.7375 129.067 76.5393C129.77 78.1037 130.657 79.7575 131.192 80.7231C130.633 81.3349 129.787 82.2768 128.927 83.3064C128.194 84.1841 127.458 85.1148 126.878 85.97ZM127.154 88.8499L127.381 88.6299H127.381L127.154 88.8499ZM132.464 83.1934C132.834 82.7788 133.153 82.4302 133.379 82.1858C133.492 82.0637 133.581 81.9675 133.642 81.9024L133.734 81.8047C134.13 81.3855 134.204 80.7603 133.915 80.2607C133.915 80.2605 133.865 80.1729 133.771 80.0081C133.445 79.4319 132.62 77.9473 131.889 76.4375C131.524 75.6841 131.183 74.9224 130.944 74.2864C130.882 74.1206 130.827 73.9648 130.781 73.8206C131.117 73.8752 131.522 73.9585 131.955 74.0703C133.165 74.3757 134.604 74.8511 135.727 75.2478C136.289 75.4463 136.773 75.625 137.116 75.7539C137.287 75.8184 137.423 75.8701 137.515 75.9058C137.607 75.9412 137.654 75.9595 137.654 75.9595C138.09 76.1304 138.589 76.0518 138.952 75.7551C138.952 75.7549 139.05 75.6751 139.23 75.5298C139.86 75.0227 141.474 73.7417 143.075 72.6065C143.873 72.0396 144.672 71.5085 145.315 71.1401C145.442 71.0671 145.557 71.0066 145.669 70.9478C145.719 71.4317 145.747 72.0786 145.745 72.7751C145.746 74.1011 145.664 75.6238 145.582 76.8049C145.541 77.396 145.499 77.9028 145.469 78.2605C145.438 78.6184 145.418 78.8225 145.418 78.823C145.372 79.2852 145.581 79.741 145.959 80.0098C145.96 80.01 146.072 80.0896 146.277 80.2381C146.993 80.7561 148.803 82.0906 150.402 83.4431C151.2 84.1172 151.947 84.8006 152.454 85.3535C152.488 85.3909 152.511 85.4212 152.543 85.4573C152.097 85.5501 151.547 85.6416 150.963 85.7232C149.791 85.8877 148.474 86.0188 147.458 86.1074C146.949 86.1519 146.515 86.1858 146.209 86.2088C145.903 86.2315 145.729 86.2429 145.728 86.2429C145.074 86.2857 144.553 86.8108 144.515 87.4651C144.515 87.4654 144.508 87.5923 144.491 87.8274C144.434 88.6489 144.263 90.7425 143.945 92.6189C143.788 93.5537 143.588 94.4397 143.379 95.031C143.359 95.0884 143.34 95.127 143.32 95.178C143.311 95.1697 143.303 95.1638 143.294 95.155C142.877 94.7727 142.327 94.1245 141.777 93.3904C140.947 92.2866 140.096 90.9817 139.46 89.9612C139.142 89.4507 138.876 89.0105 138.691 88.6992C138.599 88.5435 138.526 88.4202 138.477 88.3362L138.404 88.2102C138.142 87.7542 137.631 87.5005 137.11 87.5684C137.11 87.5684 137.053 87.5757 136.942 87.5894C136.167 87.686 132.807 88.0745 130.304 88.0728C129.673 88.0735 129.105 88.0457 128.671 87.9932C128.967 87.4902 129.439 86.8294 129.971 86.1477C130.777 85.1145 131.723 84.0215 132.464 83.1934Z"/><path id="Vector_15" d="M128.373 71.8574L128.377 71.8533L128.379 71.8494L128.373 71.8574Z"/><path id="Vector_16" d="M114.617 70.8818C115.037 70.7004 115.404 70.5251 115.736 70.3166C115.903 70.2095 116.063 70.0974 116.235 69.928C116.32 69.8418 116.41 69.74 116.499 69.5984C116.586 69.4577 116.675 69.2705 116.715 69.0239L116.716 69.0168C116.733 68.9055 116.739 68.803 116.739 68.7095C116.738 68.3604 116.652 68.0508 116.537 67.7861C116.317 67.29 116.004 66.9155 115.65 66.5559C115.027 65.9358 114.241 65.3735 113.387 64.8308C111.56 63.676 109.419 62.6487 108.34 62.1521C108.255 61.3584 108.103 60.0427 107.89 58.6885C107.72 57.6116 107.515 56.5173 107.26 55.6025C107.129 55.1423 106.991 54.7295 106.802 54.3447C106.706 54.1516 106.598 53.9631 106.439 53.7681C106.279 53.5779 106.06 53.3569 105.682 53.2095C105.484 53.135 105.286 53.1057 105.106 53.106C104.762 53.1096 104.52 53.1919 104.304 53.2778C103.906 53.4456 103.581 53.6663 103.229 53.9292C102.622 54.3894 101.97 54.9917 101.302 55.6528C99.875 57.0689 98.3992 58.7483 97.6699 59.5945C97.177 59.53 96.4688 59.4417 95.6465 59.3523C94.0889 59.1838 92.1606 59.0127 90.5781 59.0117C89.8984 59.0129 89.2866 59.0403 88.7344 59.1345C88.4561 59.1843 88.1917 59.2463 87.9053 59.3708C87.762 59.4348 87.6109 59.5156 87.4522 59.6404C87.2959 59.7642 87.1277 59.9392 87.0015 60.1826C86.8325 60.5095 86.7769 60.8464 86.7773 61.1411C86.783 61.6716 86.9268 62.1013 87.105 62.5288C87.4243 63.2683 87.9021 64.0037 88.4456 64.751C89.469 66.1482 90.7388 67.5566 91.5461 68.4163C91.0757 69.0256 90.4312 69.8831 89.7759 70.825C89.1531 71.7212 88.5259 72.6846 88.0335 73.5942C87.7874 74.0505 87.574 74.4927 87.4104 74.928C87.2505 75.3672 87.1252 75.7886 87.1199 76.2986C87.1194 76.6482 87.1926 77.1021 87.5085 77.5178H87.5083C87.5085 77.5181 87.5088 77.5183 87.5088 77.5186C87.509 77.5188 87.5093 77.5188 87.5093 77.5191C87.8916 78.0088 88.3892 78.2346 88.835 78.3601C89.2903 78.4849 89.7441 78.521 90.2197 78.5222C91.126 78.5205 92.1201 78.377 93.1418 78.1748C95.2031 77.7627 97.3638 77.0938 98.5586 76.7002C99.0532 77.3821 99.8206 78.4065 100.7 79.4534C101.454 80.3491 102.279 81.2527 103.11 81.9766C103.528 82.3386 103.947 82.6577 104.395 82.9111C104.844 83.158 105.326 83.3679 105.947 83.3757C106.119 83.376 106.29 83.3557 106.452 83.3179L106.465 83.3147C106.868 83.2173 107.208 82.9939 107.448 82.7512C107.872 82.3184 108.079 81.8452 108.249 81.3518C108.494 80.6099 108.62 79.7781 108.703 78.8875C108.783 77.9993 108.811 77.0601 108.811 76.1599C108.811 74.8638 108.753 73.6636 108.702 72.8394C109.478 72.6199 110.588 72.2959 111.725 71.9294C112.75 71.5984 113.782 71.2395 114.617 70.8818ZM88.54 76.7268L89.0969 76.2986H89.0981L88.54 76.7268ZM108.673 70.1431C108.18 70.2864 107.759 70.405 107.462 70.4873C107.164 70.5698 106.995 70.6152 106.994 70.6155C106.384 70.7786 105.979 71.3569 106.035 71.9863C106.035 71.9866 106.045 72.1023 106.062 72.3218C106.111 72.979 106.211 74.5212 106.211 76.1599C106.212 77.446 106.146 78.8022 105.968 79.77C105.9 80.1555 105.809 80.4719 105.728 80.6755C105.664 80.6423 105.594 80.6033 105.514 80.5505C105.074 80.27 104.467 79.7305 103.86 79.0925C102.942 78.134 101.998 76.9556 101.295 76.0259C100.942 75.5608 100.649 75.1572 100.445 74.8713C100.343 74.7285 100.263 74.6152 100.209 74.5381L100.13 74.4238C99.7971 73.938 99.1755 73.7358 98.6209 73.9338C98.6206 73.9341 98.5393 73.9629 98.3804 74.0176C97.8245 74.2087 96.3694 74.6946 94.7471 75.1267C93.9365 75.3425 93.0842 75.5449 92.2908 75.6907C91.4993 75.8369 90.761 75.9236 90.2197 75.9223C90.0684 75.9228 89.9365 75.9148 89.8232 75.9031C89.8506 75.8249 89.8818 75.7414 89.9211 75.6494C90.1389 75.1286 90.5271 74.4292 90.9812 73.7082C91.6631 72.6228 92.4927 71.4731 93.1472 70.604C93.4746 70.1692 93.7588 69.8034 93.96 69.5476C94.0606 69.4197 94.1404 69.3193 94.1948 69.2514L94.2759 69.1501C94.6934 68.6352 94.6553 67.8838 94.1877 67.414L94.1353 67.3608C93.866 67.0874 92.6021 65.7861 91.4346 64.3603C90.8516 63.6494 90.2925 62.9045 89.9063 62.2749C89.7622 62.0415 89.6538 61.8352 89.5664 61.6506C89.8472 61.6257 90.189 61.6116 90.5781 61.6116C91.9766 61.6106 93.8584 61.7724 95.3655 61.937C96.1206 62.019 96.7852 62.1013 97.2595 62.1628C97.7339 62.2243 98.0127 62.2644 98.0134 62.2644C98.4563 62.3279 98.9058 62.1562 99.1936 61.8137C99.1938 61.8132 99.2754 61.7163 99.426 61.54C99.9529 60.9233 101.305 59.3645 102.65 57.9866C103.32 57.2991 103.992 56.655 104.527 56.2163C104.586 56.1677 104.635 56.1328 104.69 56.0896C104.831 56.5447 104.974 57.1531 105.101 57.8181C105.327 58.9985 105.511 60.3403 105.636 61.3784C105.698 61.8977 105.746 62.3418 105.778 62.655C105.81 62.9682 105.826 63.1455 105.826 63.146C105.869 63.6208 106.166 64.0308 106.603 64.2209L106.688 64.2583C107.122 64.4495 109.152 65.3645 111.021 66.4404C111.953 66.9753 112.848 67.5569 113.446 68.0615C113.586 68.1789 113.706 68.2913 113.809 68.3943C113.357 68.6008 112.734 68.8415 112.052 69.0788C110.929 69.4702 109.657 69.8569 108.673 70.1431Z"/><path id="Vector_17" d="M87 60.1848L87.0015 60.1826L87.0022 60.1807L87 60.1848Z"/><path id="Vector_18" d="M111.579 93.8171C111.75 94.1521 111.949 94.4665 112.211 94.7536C112.472 95.0376 112.808 95.3027 113.241 95.457L113.245 95.4582C113.51 95.551 113.78 95.5906 114.04 95.5903C114.513 95.5884 114.931 95.4707 115.324 95.3101C116.008 95.0237 116.641 94.5884 117.281 94.0666C119.178 92.4978 121.104 90.1072 122.226 88.2668L122.228 88.2634C122.526 87.7683 122.669 87.2158 122.669 86.679C122.668 86.103 122.509 85.5408 122.198 85.0525C121.888 84.5657 121.412 84.1516 120.818 83.9285L120.796 83.9204L114.214 81.5698L114.213 81.572C113.899 81.4556 113.573 81.398 113.259 81.3984C111.762 81.4075 110.53 82.5718 110.376 84.0991C110.312 84.738 110.281 85.4497 110.281 86.2004C110.283 87.9436 110.446 89.8875 110.816 91.5508C111.004 92.3848 111.239 93.1477 111.579 93.8171ZM112.963 84.3572C112.987 84.0955 113.19 83.9919 113.259 83.9983L113.315 84.009L113.34 84.0183L119.9 86.3611L120.007 86.4534L120.069 86.679L120 86.9236C119.288 88.1047 118.032 89.7336 116.78 90.998C116.156 91.6316 115.527 92.1768 115.002 92.5305C114.74 92.7075 114.506 92.8354 114.33 92.9075C114.235 92.9477 114.164 92.9675 114.114 92.9788C114.02 92.8748 113.841 92.5813 113.687 92.1528C113.435 91.4734 113.222 90.4927 113.086 89.4363C112.948 88.3784 112.881 87.2378 112.881 86.2004C112.881 85.5227 112.91 84.8882 112.963 84.3572Z"/><path id="Vector_19" d="M91.8647 83.3886L91.5424 83.5009C90.8644 83.7372 90.5065 84.4784 90.7426 85.1564C90.9789 85.8344 91.7201 86.1923 92.3981 85.9562L92.7204 85.8439C93.3984 85.6076 93.7563 84.8664 93.5202 84.1884C93.2839 83.5104 92.5427 83.1525 91.8647 83.3886Z"/><path id="Vector_20" d="M87.0519 82.1682L86.1926 82.4679C85.5146 82.7045 85.1567 83.4457 85.3932 84.1235C85.6298 84.8014 86.371 85.1594 87.0488 84.9228L87.9081 84.623C88.5861 84.3864 88.944 83.6452 88.7075 82.9675C88.4709 82.2895 87.7297 81.9316 87.0519 82.1682Z"/><path id="Vector_21" d="M82.7003 79.1509L81.1729 79.9146C80.5308 80.2357 80.2706 81.0164 80.5916 81.6587C80.9127 82.3008 81.6934 82.5611 82.3358 82.24L83.8631 81.4764C84.5052 81.1553 84.7654 80.3746 84.4444 79.7322C84.1234 79.0901 83.3426 78.8299 82.7003 79.1509Z"/><path id="Vector_22" d="M146.452 102.307L145.092 103.38C144.529 103.825 144.432 104.642 144.877 105.206C145.322 105.769 146.14 105.866 146.703 105.421L148.063 104.348C148.626 103.902 148.722 103.085 148.277 102.522C147.832 101.958 147.015 101.862 146.452 102.307Z"/><path id="Vector_23" d="M141.167 101.764L140.377 102.241C139.762 102.611 139.564 103.41 139.935 104.025C140.306 104.64 141.105 104.838 141.72 104.467L142.51 103.99C143.125 103.619 143.322 102.82 142.951 102.206C142.581 101.591 141.782 101.393 141.167 101.764Z"/><path id="Vector_24" d="M136.837 99.7678L136.542 99.9475C135.928 100.32 135.732 101.12 136.105 101.733C136.478 102.347 137.277 102.542 137.891 102.17L138.187 101.99C138.801 101.617 138.996 100.818 138.623 100.204C138.25 99.5906 137.451 99.3953 136.837 99.7678Z"/></g></g></svg>