<svg xmlns="http://www.w3.org/2000/svg" width="200" height="200" fill="none"><path fill="#BEBEC9" d="M183.681 156.882a139.755 139.755 0 0 1 5.163 19.971 1.299 1.299 0 0 0 1.989.847 1.306 1.306 0 0 0 .566-1.329 142.097 142.097 0 0 0-5.276-20.382 1.3 1.3 0 0 0-2.442.893Z"/><path fill="#FFE632" d="M33.663 161.635a17.24 17.24 0 0 1-10.873-4.394 20.487 20.487 0 0 1-6.541-9.765 1.3 1.3 0 0 1 2.503-.702 17.928 17.928 0 0 0 5.715 8.48 14.773 14.773 0 0 0 9.196 3.781c.712 0 .881 2.6 0 2.6Z"/><path fill="#BEBEC9" d="M8.876 136.985a20.064 20.064 0 0 0 3.873 7.457 19.756 19.756 0 0 0 9.162 5.987 33.682 33.682 0 0 0 10.414 1.5 55.493 55.493 0 0 0 14.555-2.061 1.302 1.302 0 0 0 .858-1.621 1.3 1.3 0 0 0-1.618-.865l-.062.019a53.303 53.303 0 0 1-13.733 1.928 27.734 27.734 0 0 1-12.561-2.598 16.087 16.087 0 0 1-5.025-3.962 17.45 17.45 0 0 1-3.365-6.504 1.293 1.293 0 0 0-.62-.778 1.31 1.31 0 0 0-.989-.111 1.286 1.286 0 0 0-.778.621 1.294 1.294 0 0 0-.111.988Z"/><path fill="#FFE632" d="M88.67 147.621c-1.478-.485-2.417-.344-2.324 1.19.148 2.445 2.192 9.148 4.612 9.863 1.89.559 5.071-1.88 5.866-4.207 1.007-2.946-5.685-6.037-8.153-6.846ZM81.643 143.877c-1.671-1.792-7.514-5.66-9.835-4.673-1.813.772-2.715 4.679-1.847 6.98 1.099 2.913 8.227 1.037 10.646.09 1.449-.567 2.084-1.273 1.036-2.397ZM82.082 148.389c-2.362.653-8.492 4.047-8.689 6.562-.153 1.964 3.033 4.636 5.475 4.93 3.09.372 4.583-6.883 4.861-9.466.166-1.547-.166-2.436-1.647-2.026ZM33.663 161.635a12.138 12.138 0 0 0 6.138-1.644 14.056 14.056 0 0 0 3.071-2.447l-1.793 21.724a1.295 1.295 0 0 0 .303.949 1.302 1.302 0 0 0 1.834.151 1.307 1.307 0 0 0 .455-.886l.114-1.386.275 1.563c.639.178 1.388.375 2.246.586a27.024 27.024 0 0 0 3.42-3.877c.898-1.27 1.04-2.209-.453-2.572a20.21 20.21 0 0 0-5.109-.297l.282-3.414c1.484.523 3.014.907 4.57 1.145 1.541.211 2.44-.097 2.071-1.589-.553-2.244-3.448-7.906-5.881-8.765l.59-7.144a1.226 1.226 0 0 0-.018-.152 39.556 39.556 0 0 0 5.307-19.767 30.784 30.784 0 0 0-1.39-9.502 15.138 15.138 0 0 0-3.032-5.515l9.438-3.711a1.305 1.305 0 0 0 .736-1.687 1.3 1.3 0 0 0-1.688-.733l-11.125 4.375a1.3 1.3 0 0 0-.734 1.686c.287.365.543.753.768 1.16a11.208 11.208 0 0 1 3.168 5.239 28.212 28.212 0 0 1 1.259 8.688 36.798 36.798 0 0 1-5.58 19.488 13.134 13.134 0 0 1-4.408 4.44 9.48 9.48 0 0 1-4.834 1.294c-1.163 0-1.369 2.6 0 2.6ZM55.408 170.395c2.16-1.157 7.393-5.817 7.031-8.314-.282-1.949-3.829-3.82-6.275-3.569-3.097.317-3.106 7.688-2.809 10.269.178 1.545.698 2.34 2.053 1.614ZM57.643 172.192c-1.442.585-2.068 1.299-1.006 2.41 1.693 1.771 7.582 5.567 9.892 4.55 1.803-.794 2.656-4.712 1.76-7.001-1.135-2.9-8.24-.936-10.646.041ZM52.792 176.242a20.491 20.491 0 0 0-1.382 5.129c2.298.457 4.993.933 8.074 1.395a22.077 22.077 0 0 0-4.082-6.431c-1.055-1.144-1.944-1.478-2.61-.093ZM88.897 177.519c-1.967-.095-4.48 3.03-4.7 5.479a2.55 2.55 0 0 0 1.291 2.224c3.183.15 6.539.257 10.068.321-.99-2.584-4.29-7.911-6.659-8.024ZM137.59 164.473c-1.556-.009-2.407.412-1.849 1.845.89 2.283 4.888 8.037 7.411 7.977 1.969-.047 4.252-3.344 4.296-5.802.056-3.113-7.261-4.006-9.858-4.02ZM129.752 163.061c-2.14-1.195-8.886-3.088-10.793-1.436-1.49 1.289-1.152 5.285.379 7.209 1.938 2.437 8.149-1.532 10.162-3.174 1.206-.984 1.594-1.85.252-2.599ZM133.25 160.417c.628-2.369.791-9.374-1.281-10.813-1.618-1.124-5.406.193-6.891 2.153-1.881 2.481 3.502 7.516 5.592 9.059 1.251.924 2.187 1.086 2.58-.399ZM137.165 162.387c2.45-.029 9.243-1.746 10.075-4.128.65-1.859-1.633-5.157-3.918-6.063-2.894-1.148-6.305 5.386-7.233 7.812-.556 1.453-.461 2.398 1.076 2.379ZM131.552 167.221c-2.049 1.345-6.845 6.453-6.262 8.908.455 1.917 4.308 3.485 6.721 3.017 3.057-.593 2.256-7.957 1.729-10.5-.315-1.524-.904-2.268-2.188-1.425ZM174.37 137.409c.759-1.358.801-2.307-.722-2.51-2.429-.323-9.398.398-10.564 2.635-.911 1.747.975 5.454 3.106 6.68 2.698 1.553 6.913-4.538 8.18-6.805Z"/><path fill="#FFE632" d="M148.958 116.855a4.93 4.93 0 0 0-1.93-1.323 1.3 1.3 0 0 0-.822 2.467c.335.151.633.374.873.653a8.802 8.802 0 0 1 1.582 2.482c.164.381.303.772.414 1.172a6.977 6.977 0 0 0-3.576.795c-2.68 1.583.393 8.283 1.742 10.503.208.362.469.691.774.975l-.177 1.178c-.253 1.674-.49 3.201-.676 4.382l-.155-.133c-.735-.632-1.59-1.373-2.404-2.085 1.12-.514 1.753-1.372.939-2.392-1.527-1.916-7.053-6.225-9.445-5.419-1.139.384-2.026 1.961-2.391 3.668-1.188.026-2.941.178-5.035.433l-.078.01c1.885-1.886 4.246-4.269 6.485-6.534 3.8-3.846 7.218-7.325 7.218-7.325a1.293 1.293 0 0 0 .373-.923 1.309 1.309 0 0 0-.389-.916 1.294 1.294 0 0 0-1.419-.269c-.157.067-.3.164-.419.285h-.001a3325.654 3325.654 0 0 1-10.084 10.222 683.335 683.335 0 0 1-6.073 6.074c-2.354.379-4.811.847-7.06 1.387a40.208 40.208 0 0 0-4.996 1.49 14.14 14.14 0 0 0-1.906.884 5.314 5.314 0 0 0-1.436 1.132 36.516 36.516 0 0 0-3.668 5.627 67.555 67.555 0 0 0-.791 1.49 43.961 43.961 0 0 0-7.39-6.032 22.91 22.91 0 0 0-6.842-2.806 16.981 16.981 0 0 1-2.998-1.17 19.874 19.874 0 0 1-3.697-2.518 27.197 27.197 0 0 0-5.044-3.499 10.436 10.436 0 0 0-1.676-.674 1.19 1.19 0 0 0-.189-.192l-.017-.012a47.327 47.327 0 0 1-4.394-3.48 30.782 30.782 0 0 1-6.396-7.506 1.28 1.28 0 0 0-1.523-.586l-4.536-1.562a1.296 1.296 0 0 0-2.436-.877c-.01.028-.542 1.404-1.078 3.341a26.799 26.799 0 0 0-1.084 6.769 80.21 80.21 0 0 0 .742 8.6c.37 2.903.737 5.261.738 5.269a1.3 1.3 0 0 0 1.926.93c.002-.001.791-.449 2.01-1.136 1.83-1.032 4.619-2.6 7.13-3.987a285.815 285.815 0 0 1 3.4-1.855c.95-.51 1.705-.895 1.984-1.016a4.105 4.105 0 0 1 1.718-.434 5.629 5.629 0 0 1 2.513.731c.9.468 1.76 1.009 2.572 1.618a21.198 21.198 0 0 0 3.343 7.259c.908 1.263 1.75 1.704 2.579.41.523-.884.96-1.817 1.303-2.786 1.13.467 2.29.86 3.471 1.177a23.368 23.368 0 0 0-1.947 2.09c-.974 1.213-1.173 2.141.296 2.595 2.028.625 7.542 1.041 9.97-.168a42.809 42.809 0 0 1 2.698 2.348 36.821 36.821 0 0 1 2.058 2.108l.103.118c-.226.272-.436.544-.622.82a8.187 8.187 0 0 0-1.014 2.088 12.083 12.083 0 0 0-.463 2.228c-.055.45-.104 1.2-.16 2.261-.186 3.521-.41 10.255-.595 16.321a4.985 4.985 0 0 0-.984.065c-3.062.561-2.489 7.91-1.989 10.459.07.512.26 1.001.552 1.427.355.438.864.507 1.622.019l.014-.009c.139-.09.292-.198.453-.319l-.021.78a1.301 1.301 0 0 0 2.195.977c.25-.237.395-.564.404-.909.001-.004.046-1.745.121-4.41.111-3.997.287-10.063.469-15.4.091-2.668.184-5.154.271-7.106.043-.975.085-1.817.124-2.478.039-.656.077-1.148.104-1.356a9.533 9.533 0 0 1 .358-1.753 6.044 6.044 0 0 1 1.279-2.191 21.9 21.9 0 0 1 3.233-2.873c1.984-1.52 5.307-3.598 8.501-5.644 1.599-1.025 3.17-2.046 4.547-3.006a30.035 30.035 0 0 0 3.358-2.621c.435-.067.877-.139 1.299-.199a97.479 97.479 0 0 1 4.347-.528c1.254-.121 2.285-.184 2.909-.183a14.117 14.117 0 0 1 4.626.6 8.75 8.75 0 0 1 3.053 1.879c2.215 1.968 5.51 4.775 5.513 4.778a1.3 1.3 0 0 0 2.127-.783c0-.003.641-3.973 1.284-8.3.321-2.164.642-4.416.884-6.313.121-.949.223-1.809.295-2.529.071-.725.115-1.295.116-1.738a10.806 10.806 0 0 0-1.496-5.065 10.393 10.393 0 0 0-1.49-2.046Zm-78.213 14.239c-1.899.991-5.26 2.856-8.163 4.481-1.416.793-2.718 1.527-3.682 2.071-.142-.992-.322-2.293-.498-3.705a6.989 6.989 0 0 0 3.166-1.832c1.736-1.933-1.42-6.053-3.648-8.36.122-.858.283-1.715.477-2.53 1.892 1.328 5.72 3.204 8.191 3.299a43.463 43.463 0 0 0 4.094 4.09c.694.61 1.344 1.146 1.93 1.614-.212.078-.411.161-.597.242-.307.135-.722.345-1.27.63Zm43.043 11.157c-2.339 1.496-4.567 2.938-6.186 4.165l.262-.471a31.703 31.703 0 0 1 3.013-4.544c.342-.33.742-.595 1.178-.783a27.023 27.023 0 0 1 4.897-1.65 69.876 69.876 0 0 1 2.917-.67c-1.844 1.253-3.993 2.618-6.081 3.953ZM192.085 154.37c-.002-.003-5.171-7.816-10.649-15.84-2.74-4.013-5.556-8.077-7.849-11.251a121.324 121.324 0 0 0-2.98-3.988c-.41-.519-.772-.953-1.084-1.304a8.626 8.626 0 0 0-.446-.467 3.278 3.278 0 0 0-.463-.384c-.673-.448-1.949-1.205-3.539-2.128-4.755-2.757-12.168-6.875-12.172-6.877a1.3 1.3 0 1 0-1.263 2.273 1024.91 1024.91 0 0 1 9.594 5.396c1.334.761 2.605 1.493 3.653 2.108.623.366 1.156.685 1.583.948a7.362 7.362 0 0 0-3.11 5.267c-.131 3.111 7.163 4.177 9.759 4.253.292.01.584-.004.873-.042a644.598 644.598 0 0 1 3.352 4.824c-.795 2.477-1.453 9.118.442 10.682 1.307 1.079 4.357.486 6.232-.864 1.409 2.094 2.672 3.982 3.661 5.465l.88 1.32a24.023 24.023 0 0 0-5.646 1.267c-3.484 1.175-7.153 2.889-10.752 4.291-3.595 1.407-7.115 2.48-10.163 2.473-.068 0-.133-.005-.201-.006a201.489 201.489 0 0 1-.697-4.096 77.024 77.024 0 0 1-.406-2.858 17.155 17.155 0 0 1-.145-1.797 1.906 1.906 0 0 1 .01-.227 1.309 1.309 0 0 0-.264-.96 1.298 1.298 0 0 0-1.824-.227 1.29 1.29 0 0 0-.492.865 4.569 4.569 0 0 0-.03.549c.022.829.092 1.657.209 2.478.452 3.56 1.558 9.473 2.555 14.531.996 5.053 1.88 9.23 1.881 9.233a1.292 1.292 0 0 0 .563.821 1.31 1.31 0 0 0 1.445-.017 1.292 1.292 0 0 0 .542-.835 1.31 1.31 0 0 0-.006-.507l-.198-.942a704.835 704.835 0 0 1-2.535-12.704c-.046-.24-.089-.476-.133-.715a25.365 25.365 0 0 0 7.115-1.311c3.721-1.175 7.463-2.898 10.96-4.304 3.491-1.414 6.746-2.48 9.293-2.468a8.25 8.25 0 0 1 1.176.08 1.306 1.306 0 0 0 1.283-.592 1.298 1.298 0 0 0-.015-1.413h.001Z"/><path fill="#BEBEC9" d="M109.439 157.495a2.302 2.302 0 1 0 0-4.605 2.302 2.302 0 0 0 0 4.605ZM110.293 177.869a2.302 2.302 0 1 0 0-4.605 2.302 2.302 0 0 0 0 4.605ZM155.479 49.517a18.538 18.538 0 0 0 3.615-3.69 20.582 20.582 0 0 0 3.943-12.166 19.876 19.876 0 0 0-1.839-8.425 17.835 17.835 0 0 0-5.588-6.84 18.885 18.885 0 0 0-11.255-3.593 20.542 20.542 0 0 0-16.441 8.064 18.528 18.528 0 0 0-2.468 4.606 62.384 62.384 0 0 0-21.682-3.975 64.307 64.307 0 0 0-21.107 3.617 18.523 18.523 0 0 0-2.33-4.248 20.541 20.541 0 0 0-16.442-8.065 18.883 18.883 0 0 0-11.254 3.595 17.836 17.836 0 0 0-5.589 6.84 19.886 19.886 0 0 0-1.838 8.424 20.578 20.578 0 0 0 3.943 12.166 18.572 18.572 0 0 0 2.907 3.119 61.373 61.373 0 0 0-3.551 5.07 16.902 16.902 0 0 0-2.108-.14 13.083 13.083 0 0 0-5.119.955 7.342 7.342 0 0 0-1.995 1.242 5.069 5.069 0 0 0-1.096 1.378 10.396 10.396 0 0 0-6.666 3.053 9.31 9.31 0 0 0-2.324-.293c-1.182.01-2.356.194-3.485.544a13.807 13.807 0 0 0-8.265 7.045 25.263 25.263 0 0 0-2.604 11.78 37.877 37.877 0 0 0 1.204 9.263 95.03 95.03 0 0 0-4.307 10.73c-2.25 6.702-4.512 15.679-4.514 24.876a45.29 45.29 0 0 0 1.652 12.536 1.298 1.298 0 0 0 1.609.887 1.299 1.299 0 0 0 .89-1.607 42.7 42.7 0 0 1-1.551-11.816c-.003-8.77 2.181-17.517 4.378-24.048a99.64 99.64 0 0 1 3.018-7.87 73.888 73.888 0 0 1 1.263-2.757l.07-.142.022-.043c.146-.285.18-.615.097-.925a35.42 35.42 0 0 1-1.232-9.084 22.713 22.713 0 0 1 2.301-10.56 11.19 11.19 0 0 1 6.716-5.775 9.53 9.53 0 0 1 2.738-.434 6.326 6.326 0 0 1 3.294.87 8.32 8.32 0 0 1 3.25 3.97 14.924 14.924 0 0 1 1.14 5.82c0 .755-.054 1.508-.165 2.253a3.682 3.682 0 0 1-1.157 2.358 3.06 3.06 0 0 1-2.03.697 5.212 5.212 0 0 1-3.605-1.624 6.141 6.141 0 0 1-1.222-1.817l-.01-.023a7.162 7.162 0 0 1-.58-2.886c0-.193.007-.39.02-.592a1.3 1.3 0 1 0-2.593-.174c-.018.259-.027.514-.026.766-.001.628.056 1.255.17 1.873a4.184 4.184 0 0 1-.434-.135 1.691 1.691 0 0 1-.532-.289 1.302 1.302 0 0 0-2.105.504 1.298 1.298 0 0 0 .342 1.407c.43.378.931.666 1.475.847a9.064 9.064 0 0 0 2.065.438c.065.007.118.01.178.015a8.544 8.544 0 0 0 1.4 1.89 7.791 7.791 0 0 0 5.457 2.4 5.663 5.663 0 0 0 3.72-1.322c.353-.312.664-.669.925-1.06a8.01 8.01 0 0 0 2.443.374 8.458 8.458 0 0 0 5.75-2.205 8.327 8.327 0 0 0 2.188-3.447 7.435 7.435 0 0 0 3.892 1.105c.163 0 .33-.012.496-.023a22.478 22.478 0 0 0 2.672 6.861c.447.725.949 1.414 1.5 2.062-2.17.455-4.378.702-6.595.74a13.599 13.599 0 0 0-3.536.644 6.28 6.28 0 0 0-3.028 2.203 22.382 22.382 0 0 1-4.56 4.638 12.366 12.366 0 0 1-7.324 2.646 11.976 11.976 0 0 1-5.63-1.495 1.3 1.3 0 1 0-1.212 2.3 14.581 14.581 0 0 0 6.842 1.795 14.953 14.953 0 0 0 8.867-3.153 24.582 24.582 0 0 0 4.758-4.724c-1.028 6.24-1.871 14.563-2.49 21.758a652.957 652.957 0 0 0-1.127 15.222 1.295 1.295 0 0 0 .727 1.253c.154.075.321.119.492.13a1.31 1.31 0 0 0 .944-.328 1.315 1.315 0 0 0 .432-.901 662.97 662.97 0 0 1 1.406-18.349c.082-.899.168-1.809.257-2.722 4.702 7.094 11.823 12.465 20.656 16.156 10.242 4.282 22.798 6.358 36.772 6.359 17.379-.003 32.563-3.742 43.799-10.665a44.26 44.26 0 0 0 13.623-12.721 36.46 36.46 0 0 0 6.133-17.02c.155-1.56.232-3.116.231-4.667-.004-12.039-4.576-23.619-12.071-33.306Zm-25.471-25.108a17.955 17.955 0 0 1 14.347-7.006 16.283 16.283 0 0 1 9.713 3.087 15.231 15.231 0 0 1 4.776 5.85 17.296 17.296 0 0 1 1.593 7.32A17.983 17.983 0 0 1 157 44.287a15.926 15.926 0 0 1-3.149 3.206 67.004 67.004 0 0 0-5.676-5.986 68.736 68.736 0 0 0-20.308-13.09 15.89 15.89 0 0 1 2.141-4.007ZM51.24 44.286a17.984 17.984 0 0 1-3.436-10.625 17.29 17.29 0 0 1 1.593-7.322 15.232 15.232 0 0 1 4.775-5.849 16.283 16.283 0 0 1 9.713-3.087 17.957 17.957 0 0 1 14.348 7.006 15.927 15.927 0 0 1 1.988 3.61 66.897 66.897 0 0 0-26.528 18.91 15.97 15.97 0 0 1-2.453-2.643ZM44.594 75.26a5.867 5.867 0 0 1-3.98 1.51c-.484.001-.968-.062-1.436-.188.034-.16.084-.308.108-.474.13-.873.194-1.755.193-2.637a16.42 16.42 0 0 0-2.436-8.872 10.135 10.135 0 0 0-2.892-2.925 7.156 7.156 0 0 1 4.362-1.642 6.269 6.269 0 0 1 2.918.742 9.201 9.201 0 0 1 3.543 3.488 11.21 11.21 0 0 1 1.572 5.725 6.841 6.841 0 0 1-1.952 5.273Zm7.85-3.037a4.753 4.753 0 0 1-3.179-1.209 1.225 1.225 0 0 0-.157-.097 12.83 12.83 0 0 0 .025-1.556 13.726 13.726 0 0 0-3.194-8.209 11.139 11.139 0 0 0-3.305-2.683 9.353 9.353 0 0 0-1.446-.593 5.887 5.887 0 0 1 1.99-.972 11.511 11.511 0 0 1 3.217-.43 13.692 13.692 0 0 1 6.185 1.455 8.998 8.998 0 0 1 4.305 4.49 11.06 11.06 0 0 1 .983 4.244 5.256 5.256 0 0 1-1.528 3.9 5.958 5.958 0 0 1-2.998 1.575 4.824 4.824 0 0 1-.897.085Zm3.024 1.974a8.47 8.47 0 0 0 2.704-1.79 7.882 7.882 0 0 0 2.296-5.744 13.626 13.626 0 0 0-1.186-5.25 10.952 10.952 0 0 0-2.391-3.535 13.718 13.718 0 0 1 5.964-5.685 27.189 27.189 0 0 1 8.477-2.454 44.061 44.061 0 0 1 6.267-.438c.554 0 1.108.023 1.661.043-.895.5-1.922 1.084-3.04 1.74a104.609 104.609 0 0 0-12.326 8.328 1.3 1.3 0 0 0 1.637 2.02 102.165 102.165 0 0 1 12.007-8.106 150.078 150.078 0 0 1 5.883-3.28l.353-.184.118-.061c.02-.01.03-.028.048-.039 1.029.15 2.041.323 3.004.546a20.742 20.742 0 0 1 7.185 2.941 6.395 6.395 0 0 1 2.213 2.924c.522 1.392.777 2.872.75 4.359a21.858 21.858 0 0 1-3.728 11.695 40.257 40.257 0 0 1-9.222 9.309c-4.136 3.003-9.059 5.27-14.018 5.263a15.86 15.86 0 0 1-7.187-1.71 12.577 12.577 0 0 1-5.11-4.79 19.96 19.96 0 0 1-2.359-6.102Zm63.744-14.562a1.304 1.304 0 0 0 1.794.403c3.83-2.425 8.072-4.938 11.353-6.84 1.64-.953 3.041-1.752 4.031-2.314.906-.514 1.442-.813 1.531-.863a20.707 20.707 0 0 1 9.631 4.043 13.355 13.355 0 0 1 3.762 5.125 21.322 21.322 0 0 1 1.486 8.383 27.36 27.36 0 0 1-1.843 10.307 13.487 13.487 0 0 1-6.339 7.21 15.858 15.858 0 0 1-7.186 1.71c-4.959.007-9.882-2.26-14.018-5.263a40.262 40.262 0 0 1-9.223-9.309 21.868 21.868 0 0 1-3.727-11.695 11.79 11.79 0 0 1 .75-4.36 6.392 6.392 0 0 1 2.213-2.923 20.736 20.736 0 0 1 7.185-2.94 41.984 41.984 0 0 1 9.345-1.008c1.237 0 2.464.064 3.675.163-3.384 1.935-9.019 5.212-14.017 8.377a1.297 1.297 0 0 0-.585 1.32c.029.169.091.33.182.474Zm-10.412-4.43c-.167.42-.309.85-.428 1.287h-9.189a11.906 11.906 0 0 0-.428-1.287 9.23 9.23 0 0 0-2.402-3.475h14.849a9.245 9.245 0 0 0-2.402 3.475Zm55.931 32.027a33.838 33.838 0 0 1-5.698 15.819c-4.719 6.972-12.13 12.534-21.584 16.355-9.451 3.821-20.93 5.89-33.685 5.889-13.716.002-25.953-2.049-35.768-6.157-9.682-4.055-16.98-10.072-21.216-18.099.553-5.11 1.197-10.03 1.909-13.71a25.519 25.519 0 0 1 3.804-.381 23.135 23.135 0 0 0 6.152-.966 1.28 1.28 0 0 0 .47-.286 14.44 14.44 0 0 0 2.66 1.718 18.474 18.474 0 0 0 8.349 1.985c5.758-.008 11.131-2.564 15.544-5.758a42.77 42.77 0 0 0 9.849-9.956 24.407 24.407 0 0 0 4.174-13.153c0-.486-.02-.965-.06-1.44h8.293c-.039.474-.059.954-.06 1.44a24.413 24.413 0 0 0 4.175 13.153 42.753 42.753 0 0 0 9.849 9.956c4.412 3.194 9.786 5.75 15.544 5.758 2.9.003 5.76-.677 8.349-1.985a16.091 16.091 0 0 0 7.577-8.538 29.885 29.885 0 0 0 2.042-11.304 23.888 23.888 0 0 0-1.693-9.398 16.183 16.183 0 0 0-7.41-8.079 29.063 29.063 0 0 0-9.701-2.929 46.64 46.64 0 0 0-6.639-.465 44.564 44.564 0 0 0-9.933 1.075 29.506 29.506 0 0 0-4.365 1.356l-.011-.002H91.913l-.015.003a29.477 29.477 0 0 0-4.366-1.357 44.568 44.568 0 0 0-9.933-1.075 46.639 46.639 0 0 0-6.64.465 29.706 29.706 0 0 0-9.29 2.713 16.397 16.397 0 0 0-6.838 6.356c-.345-.22-.695-.429-1.055-.615a15.137 15.137 0 0 0-2.554-1.028 63.723 63.723 0 0 1 52.542-28.495c16.006-.004 31.336 6.793 42.64 17.312 11.31 10.518 18.551 24.711 18.546 39.413a44.74 44.74 0 0 1-.219 4.41Z"/><path fill="#BEBEC9" d="M112.805 88.94a7.795 7.795 0 0 1-2.204 1.51 15.19 15.19 0 0 1-5.193 1.394 386.36 386.36 0 0 1-.095-2.6 260.51 260.51 0 0 1-.1-3.794c3.012-1.086 6.058-4.915 5.891-7.572-.227-3.636-13.159-3.497-14.466-.378-.888 2.116 2.754 7.112 5.977 8.078.043 2.411.148 5.2.195 6.363a10.528 10.528 0 0 1-5.643-1.51 5.247 5.247 0 0 1-1.098-.957 2.92 2.92 0 0 1-.206-.272l-.032-.052-.004.002a1.298 1.298 0 0 0-2.295 1.214 6.62 6.62 0 0 0 2.19 2.227 13.395 13.395 0 0 0 7.595 1.965c.162 0 .326-.002.492-.006 2.876.006 5.713-.66 8.285-1.946a9.458 9.458 0 0 0 2.69-1.98 1.299 1.299 0 1 0-1.979-1.686ZM67.985 73.311c2.915-2.417 6.168-4.898 9.296-7.184a1.3 1.3 0 0 0-1.534-2.1c-3.158 2.31-6.449 4.817-9.421 7.283a1.3 1.3 0 0 0 1.66 2.001ZM83.894 75.22a25.22 25.22 0 0 1 4.522-2.94 1.3 1.3 0 0 0-1.138-2.338 27.781 27.781 0 0 0-5 3.24 1.3 1.3 0 0 0 1.616 2.037ZM124.535 69.802c1.798-1.199 3.98-2.654 6.144-4.095a1.3 1.3 0 0 0-1.441-2.164 8372.33 8372.33 0 0 0-6.146 4.096 1.297 1.297 0 0 0-.36 1.803 1.303 1.303 0 0 0 1.803.36Z"/></svg>