<svg width="200" height="200" viewBox="0 0 200 200" xmlns="http://www.w3.org/2000/svg"><g id="type=mnp, mode=dark" clip-path="url(#clip0_1401_3904)"><g id="d"><path id="Vector" d="M111.26 142.26C110.91 142.26 110.55 142.12 110.3 141.84C109.82 141.31 109.85 140.49 110.39 140C114.43 136.32 119.42 128.76 121.05 123.82C121.28 123.14 122.01 122.77 122.69 122.99C123.37 123.22 123.74 123.95 123.52 124.63C121.77 129.91 116.45 137.99 112.14 141.91C111.89 142.14 111.58 142.25 111.26 142.25V142.26Z"/><path id="Vector_2" d="M81.2602 136.07C81.0402 136.07 80.8202 136.01 80.6302 135.91C80.3202 135.74 80.1002 135.45 80.0002 135.11L70.5402 99.61C70.4502 99.28 70.5002 98.9201 70.6702 98.6201C70.8402 98.3201 71.1302 98.1 71.4602 98.02L78.7802 96.11C79.4802 95.93 80.1902 96.35 80.3702 97.04C80.5502 97.73 80.1302 98.44 79.4402 98.63L73.3902 100.21L82.1702 133.14L91.4002 130.31C92.0902 130.1 92.8102 130.49 93.0202 131.17C93.2302 131.86 92.8402 132.58 92.1602 132.79L81.6402 136.01C81.5202 136.05 81.3902 136.07 81.2602 136.07Z"/><path id="Vector_3" d="M130.821 86.85C130.771 86.85 130.711 86.85 130.661 86.84C129.951 86.75 129.441 86.1 129.531 85.39C130.921 74.05 130.171 62.18 127.561 54.4C120.071 32.1 111.211 21.37 107.811 17.83L104.081 29.63C103.861 30.32 103.131 30.7 102.451 30.48C101.771 30.26 101.391 29.53 101.601 28.85L105.961 15.06C106.091 14.65 106.411 14.33 106.831 14.21C107.241 14.09 107.691 14.17 108.021 14.44C108.521 14.84 120.311 24.63 130.031 53.57C132.761 61.69 133.561 74.01 132.121 85.71C132.041 86.37 131.481 86.85 130.831 86.85H130.821Z"/><path id="Vector_4" d="M113.2 64.94C112.67 64.94 112.17 64.61 111.98 64.08C111.74 63.4 112.09 62.66 112.77 62.42C114.04 61.97 114.9 59.9 115.1 59.21C115.22 58.8 115.54 58.47 115.95 58.34C116.36 58.21 116.81 58.29 117.15 58.56C117.17 58.56 118.05 59.19 119.9 59.16H119.92C120.63 59.16 121.21 59.73 121.22 60.44C121.22 61.16 120.65 61.75 119.94 61.75C118.74 61.76 117.77 61.57 117.06 61.33C116.47 62.56 115.39 64.24 113.65 64.86C113.51 64.91 113.36 64.94 113.21 64.94H113.2Z"/><path id="Vector_5" d="M50.5702 78.5101C44.9902 78.5101 41.0102 78.2601 40.5902 78.2401C39.8702 78.1901 39.3302 77.5701 39.3802 76.8601C39.4302 76.1401 40.0502 75.6001 40.7602 75.6501C41.0202 75.6701 66.9702 77.2801 80.9602 72.1101C81.6302 71.8601 82.3802 72.2001 82.6302 72.8801C82.8802 73.5501 82.5302 74.3001 81.8602 74.5501C72.8802 77.8701 59.6202 78.5201 50.5702 78.5201V78.5101Z"/><path id="Vector_6" d="M70.9797 69.7401C61.8698 69.7401 52.3097 68.5101 48.1897 66.5901C47.5397 66.2901 47.2597 65.5101 47.5597 64.8601C47.8597 64.2101 48.6397 63.9201 49.2897 64.2301C54.9997 66.8901 76.4697 68.4901 86.0097 65.4801C86.6897 65.2601 87.4297 65.6401 87.6397 66.3301C87.8597 67.0201 87.4797 67.7501 86.7897 67.9601C82.8597 69.2001 77.0197 69.7401 70.9797 69.7401Z"/><path id="Vector_7" d="M77.9302 63.03C69.1202 63.03 55.3402 61.06 47.6802 56.98C47.0502 56.64 46.8102 55.86 47.1402 55.22C47.4802 54.59 48.2602 54.35 48.9002 54.68C57.2802 59.14 74.5202 61.09 82.0402 60.23C82.7502 60.15 83.4002 60.66 83.4802 61.37C83.5602 62.08 83.0502 62.73 82.3402 62.81C81.1002 62.95 79.6002 63.02 77.9302 63.02V63.03Z"/><path id="Vector_8" d="M55.3092 132.82C55.1792 132.82 55.0492 132.8 54.9192 132.76C46.8792 130.27 40.9192 122.43 38.2492 116.48C37.6292 115.1 34.6592 108.03 37.1492 104.59C37.7892 103.71 39.0592 102.7 41.4592 102.95C44.9092 103.31 46.8092 107.2 49.0092 111.7C51.1092 116 53.4892 120.88 57.4592 123C58.0892 123.34 58.3292 124.13 57.9892 124.76C57.6492 125.39 56.8592 125.63 56.2292 125.29C51.5092 122.77 48.9392 117.49 46.6592 112.84C44.8792 109.19 43.1992 105.74 41.1792 105.54C39.9092 105.41 39.4692 105.81 39.2392 106.12C38.2392 107.51 38.8092 111.42 40.6092 115.42C42.5792 119.82 47.9692 127.89 55.6792 130.28C56.3692 130.49 56.7492 131.22 56.5392 131.91C56.3692 132.47 55.8492 132.83 55.2992 132.83L55.3092 132.82Z"/><path id="Vector_9" d="M130.82 61.4601C130.28 61.4601 129.78 61.1301 129.59 60.5901C129.35 59.9101 129.71 59.1701 130.38 58.9301C137.93 56.2601 145.1 52.5801 151.69 47.9901C152.28 47.5801 153.09 47.7201 153.5 48.3101C153.91 48.9001 153.77 49.7101 153.18 50.1201C146.4 54.8501 139.02 58.6401 131.25 61.3801C131.11 61.4301 130.96 61.4501 130.82 61.4501V61.4601Z"/><path id="Vector_10" d="M129.911 56.45C129.461 56.45 129.021 56.22 128.781 55.8C128.421 55.18 128.641 54.38 129.261 54.02C136.471 49.86 143.501 45.17 150.141 40.08C150.711 39.64 151.531 39.75 151.961 40.32C152.401 40.89 152.291 41.71 151.721 42.14C144.991 47.31 137.861 52.06 130.551 56.27C130.351 56.39 130.121 56.44 129.901 56.44L129.911 56.45Z"/><path id="Vector_11" d="M128.211 52.12C127.851 52.12 127.501 51.97 127.241 51.69C126.761 51.16 126.801 50.33 127.341 49.85C132.461 45.24 137.291 40.15 141.701 34.73C142.151 34.17 142.971 34.09 143.531 34.54C144.091 34.99 144.171 35.81 143.721 36.37C139.231 41.9 134.301 47.08 129.091 51.78C128.841 52 128.531 52.11 128.221 52.11L128.211 52.12Z"/><path id="Vector_12" d="M101.549 136.23C101.289 136.23 101.029 136.15 100.799 135.99C100.689 135.91 98.0691 134.03 96.7491 131.96C96.3591 131.36 96.5391 130.55 97.1491 130.17C97.7491 129.78 98.5591 129.96 98.9391 130.57C99.8091 131.93 101.669 133.42 102.309 133.88C102.889 134.3 103.029 135.11 102.609 135.69C102.359 136.05 101.959 136.24 101.549 136.24V136.23Z"/><path id="Vector_13" d="M105.201 133.91C104.791 133.91 104.381 133.71 104.131 133.35C104.111 133.33 102.381 130.82 101.011 129.29C100.531 128.75 100.581 127.93 101.111 127.45C101.641 126.97 102.471 127.02 102.951 127.55C104.431 129.21 106.191 131.76 106.271 131.86C106.681 132.45 106.531 133.26 105.941 133.67C105.711 133.83 105.461 133.9 105.201 133.9V133.91Z"/><path id="Vector_14" d="M119.461 54.84C119.211 54.84 118.951 54.77 118.731 54.62C118.141 54.22 117.981 53.41 118.381 52.81C120.501 49.68 123.561 50.22 124.871 50.95C125.501 51.3 125.731 52.09 125.381 52.72C125.041 53.35 124.251 53.58 123.631 53.24C123.211 53.02 121.761 52.47 120.531 54.28C120.281 54.65 119.871 54.85 119.451 54.85L119.461 54.84Z"/><path id="Vector_15" d="M99.67 62.35C99.46 62.35 99.25 62.3 99.05 62.19C98.42 61.85 98.19 61.06 98.53 60.43C100.84 56.18 104.75 56.47 106.49 57.22C107.15 57.5 107.45 58.27 107.17 58.93C106.89 59.59 106.13 59.89 105.47 59.62C105.17 59.5 102.52 58.53 100.81 61.68C100.57 62.11 100.13 62.36 99.67 62.36V62.35Z"/><path id="Vector_16" d="M106.741 129.81C106.171 129.81 105.651 129.43 105.491 128.85C105.301 128.16 105.711 127.44 106.401 127.25L129.981 120.76L139.321 105.37L134.261 86.2301L95.4606 95.25C94.7606 95.41 94.0606 94.98 93.9006 94.28C93.7406 93.58 94.1706 92.88 94.8706 92.72L134.891 83.4101C135.571 83.2501 136.261 83.66 136.441 84.34L141.971 105.24C142.061 105.58 142.011 105.95 141.821 106.25L131.931 122.55C131.761 122.83 131.481 123.04 131.161 123.13L107.091 129.76C106.971 129.79 106.861 129.81 106.741 129.81Z"/><path id="Vector_17" d="M101.969 120.04C101.369 120.04 100.829 119.62 100.699 119C100.549 118.3 101.009 117.61 101.709 117.46L106.869 116.39L103.339 103.51L96.9793 104.81C96.2793 104.95 95.5893 104.5 95.4493 103.8C95.3093 103.1 95.7593 102.41 96.4593 102.27L104.009 100.73C104.679 100.6 105.339 101 105.519 101.66L109.739 117.04C109.829 117.39 109.779 117.76 109.589 118.06C109.399 118.37 109.099 118.58 108.739 118.65L102.219 120C102.129 120.02 102.039 120.03 101.949 120.03L101.969 120.04Z"/><path id="Vector_18" d="M85.5096 39.38C85.2296 39.38 84.9396 39.29 84.6996 39.1C84.1396 38.66 84.0396 37.84 84.4796 37.28C84.8096 36.86 92.6696 27.11 106.07 28.14C106.79 28.2 107.32 28.82 107.27 29.54C107.21 30.26 106.58 30.79 105.87 30.74C93.8696 29.81 86.5896 38.81 86.5196 38.9C86.2596 39.22 85.8796 39.39 85.4996 39.39L85.5096 39.38Z"/><path id="Vector_19" d="M113.059 186.87C107.169 186.87 104.629 186.7 101.339 184.93C99.7494 184.08 73.9294 166.72 65.6194 157.85C61.9294 153.91 54.3394 145.82 54.3594 131.52C54.3594 129.16 54.6694 127.04 55.2894 125.02C71.5394 72.54 73.6094 26.34 73.6294 25.88C73.6494 25.49 73.8394 25.12 74.1594 24.89C74.4794 24.66 74.8794 24.58 75.2594 24.68C77.0494 25.16 83.6394 32.94 86.5894 37.37C86.9894 37.97 86.8294 38.77 86.2294 39.17C85.6294 39.57 84.8294 39.41 84.4294 38.81C81.9294 35.06 78.2494 30.79 76.0794 28.58C75.3894 39.09 71.9294 80.09 57.7794 125.79C57.2294 127.56 56.9594 129.44 56.9594 131.53C56.9394 144.8 64.0494 152.39 67.4694 156.03C75.4494 164.55 101.059 181.83 102.569 182.65C105.219 184.07 107.189 184.28 113.059 184.28C115.509 184.28 115.869 183.61 116.129 183.12C116.269 182.86 116.159 182.19 115.899 181.63C115.529 180.85 114.669 180.53 112.769 179.88L112.549 179.81C110.179 179 108.469 177.48 107.739 175.52C107.029 173.62 107.269 171.48 108.419 169.51C114.339 159.36 113.379 153.44 111.389 146.18C110.679 143.58 109.549 141.01 107.949 138.34C107.579 137.72 107.779 136.93 108.399 136.56C109.019 136.19 109.819 136.39 110.179 137.01C111.899 139.89 113.109 142.66 113.889 145.49C115.989 153.11 117.079 159.82 110.659 170.82C109.909 172.11 109.729 173.45 110.169 174.61C110.629 175.84 111.739 176.78 113.379 177.34L113.599 177.41C115.719 178.13 117.389 178.7 118.249 180.51C118.489 181.03 119.219 182.82 118.429 184.33C117.479 186.12 115.879 186.88 113.059 186.88V186.87Z"/><path id="Vector_20" d="M74 185.84C71.1 185.84 68.31 185.65 66.85 184.09C65.29 182.42 64.19 180.13 63.31 178.29C61.56 174.65 59.96 170.98 58.5 167.32C58.12 166.36 57.64 165.15 57.62 163.84C57.6 162.12 57.95 160.79 58.69 159.76C61.38 156.05 62.98 154.15 63.53 153.64C64.06 153.15 64.88 153.19 65.37 153.72C65.86 154.25 65.82 155.07 65.29 155.56C65.01 155.82 63.66 157.34 60.8 161.29C60.4 161.85 60.21 162.67 60.22 163.8C60.23 164.57 60.53 165.38 60.91 166.36C62.34 169.96 63.92 173.57 65.61 177.09C66.49 178.93 67.46 180.94 68.74 182.31C69.66 183.29 72.97 183.26 75.4 183.23H76.2699C77.8099 183.21 78.42 183.08 78.65 182.97C78.94 182.84 79.06 182.7 79.08 182.63C79.11 182.52 79.05 182.2 78.76 181.78C78.36 181.21 77.8699 180.86 77.3099 180.46C76.2999 179.73 75.04 178.83 74.17 176.52C72.9 173.17 73.6799 168.45 76.0199 165.29C76.4499 164.71 77.2599 164.59 77.8399 165.02C78.4199 165.45 78.54 166.26 78.11 166.84C76.29 169.29 75.64 173.05 76.6 175.6C77.2 177.18 77.91 177.69 78.82 178.35C79.47 178.82 80.22 179.35 80.87 180.28C81.58 181.28 81.8299 182.36 81.5899 183.3C81.4299 183.91 80.98 184.75 79.75 185.33C78.84 185.75 77.49 185.82 76.28 185.83H75.42C74.94 185.84 74.46 185.85 73.98 185.85L74 185.84Z"/><path id="Vector_21" d="M99.2193 137.33C98.3693 137.33 97.5693 137.19 96.8693 136.88C87.6493 132.69 77.3093 110.65 78.0993 96.9C78.1393 96.18 78.7493 95.63 79.4693 95.68C80.1893 95.72 80.7293 96.34 80.6893 97.05C79.9093 110.72 90.2993 131.05 97.9193 134.51C99.3993 135.15 102.449 134.43 104.119 132.54C105.639 130.83 105.659 128.59 104.179 126.06C100.049 119.2 91.7093 98.22 94.3293 88.76C94.5193 88.07 95.2393 87.6599 95.9293 87.8499C96.6193 88.0399 97.0293 88.7599 96.8393 89.4499C94.5893 97.5499 101.869 117.17 106.419 124.73C108.469 128.23 108.339 131.7 106.069 134.26C104.369 136.18 101.629 137.33 99.2193 137.33Z"/></g></g><defs><clipPath id="clip0_1401_3904"><rect width="200" height="200"/></clipPath></defs></svg>