<svg xmlns="http://www.w3.org/2000/svg" width="199" height="200" fill="none"><path fill="#FFD93A" fill-rule="evenodd" d="M42.519 70.77C44.233 43 67.4 33.304 92.218 32.03c.599-.03 1.195-.063 1.79-.095 11.351-.614 21.983-1.189 36.796 9.665 18.3 13.408 16.515 36.58 16.515 36.58 8.18 12.347 10.341 29.171 8.18 44.296-2.161 15.126-11.576 29.943-29.017 37.506-17.441 7.563-38.277 6.791-53.403-3.087-15.126-9.878-19.91-19.293-22.534-31.177-2.624-11.885-.618-26.24-.618-26.24-5.248-7.87-8.18-16.205-7.408-28.707Zm87.127 65.945c-1.968-1.389-6.945-1.968-6.945.926 0 0-6.02 2.431-7.062 8.566-1.041 6.135.926 9.145 3.01 8.682a2.391 2.391 0 0 0 1.968-2.431s1.042 4.746 3.82 3.82c2.778-.926 1.389-5.672 1.389-5.672s3.126 4.399 4.862 3.125c1.736-1.273-.232-6.945-.232-6.945l1.274-6.135a5.53 5.53 0 0 0-2.084-3.936Z" clip-rule="evenodd"/><path fill="#191C22" d="M126.26 150.825c.061.753.049 1.51-.035 2.261.435-.171.86-.352 1.287-.531a9.723 9.723 0 0 1-1.252-1.73ZM113.916 87.906c-5.504-.036-6.966-14.64-.229-14.64 6.813 0 5.205 14.673.229 14.64ZM74.375 87.896c-5.817-.353-7.192-14.356-.82-14.618 6.444-.266 5.522 14.902.82 14.618ZM85.81 91.331a10.35 10.35 0 0 0 3.759 3.045c1.3.603 2.717.912 4.15.906a11.33 11.33 0 0 0 5.229-1.311 8.281 8.281 0 0 0 3.431-3.13 1.205 1.205 0 1 0-2.111-1.159 5.974 5.974 0 0 1-2.444 2.159 8.935 8.935 0 0 1-4.104 1.033 7.354 7.354 0 0 1-3.132-.68 7.935 7.935 0 0 1-2.885-2.35 1.205 1.205 0 0 0-1.893 1.487Z"/><path fill="#191C22" d="M187.022 70.699a7.576 7.576 0 0 0-3.477-3.387 11.31 11.31 0 0 0-4.969-1.017 25.852 25.852 0 0 0-8.65 1.76 51.7 51.7 0 0 0-13.711 7.795 50.346 50.346 0 0 0-5.833 5.356 42.736 42.736 0 0 0-3.238-11.428 45.294 45.294 0 0 0-5.86-18.193l-.006-.026a1.329 1.329 0 0 0-.055-.162c-.046-.108-.072-.153-.115-.237a19.525 19.525 0 0 0-1.026-1.642 36.444 36.444 0 0 0-1.405-1.906 44.46 44.46 0 0 0-5.095-5.806 47.67 47.67 0 0 0-12.825-8.684c0-.01.005-.018.004-.028h.001l-.002-.11a7.962 7.962 0 0 1 .545-2.857c.184-.431.439-.828.754-1.175a4.343 4.343 0 0 0 5.745-6.395 4.341 4.341 0 0 0-7.312 4.52 7.137 7.137 0 0 0-1.81 3.325 10.7 10.7 0 0 0-.286 1.687 63.655 63.655 0 0 0-24.218-4.451 63.412 63.412 0 0 0-24.702 4.645 12.063 12.063 0 0 0-1.836-3.242 10.195 10.195 0 0 0-3.09-2.628 9.814 9.814 0 0 0-3.086-1.035 4.317 4.317 0 1 0 .118 2.467 7.31 7.31 0 0 1 1.815.683 8.272 8.272 0 0 1 3.112 3.113 9.815 9.815 0 0 1 .766 1.63 47.595 47.595 0 0 0-12.502 8.535c-.14.134-.27.276-.409.412a37.922 37.922 0 0 0-7.444 9.424 1.19 1.19 0 0 0-.107.392 45.609 45.609 0 0 0-5.832 21.292 48.362 48.362 0 0 0-8.907-4.433 25.855 25.855 0 0 0-8.65-1.76 11.306 11.306 0 0 0-4.968 1.016 7.576 7.576 0 0 0-3.478 3.387 7.19 7.19 0 0 0-.843 3.325 7.691 7.691 0 0 0 1.12 3.88 18.075 18.075 0 0 0 5.91 5.658 57.942 57.942 0 0 0 14.255 6.254 82.37 82.37 0 0 0 8.917 2.164A36.398 36.398 0 0 0 48.069 108a66.154 66.154 0 0 0-.17 4.657c.004 2.243.134 4.484.39 6.712a3.684 3.684 0 0 0-2.044 2.484 21.102 21.102 0 0 1-2.585 6.497c-.326.525-.74.99-1.226 1.373a1.221 1.221 0 0 1-.288.161l-.056.013a.415.415 0 0 1-.15-.038 3.36 3.36 0 0 1-1.049-.74c-.365-.356-.704-.74-1.012-1.147.178-.412.29-.85.333-1.296 0-.011-.005-.02-.005-.031.376-.326.706-.701.983-1.114a5.278 5.278 0 0 0 .713-1.662c.147-.723.254-1.453.32-2.188.066-.644.246-1.27.531-1.851.193-.377.48-.908.728-1.512.289-.653.45-1.355.473-2.069a2.963 2.963 0 0 0-.5-1.696 3.262 3.262 0 0 0-1.605-1.186 3.7 3.7 0 0 0-1.287-.232 3.922 3.922 0 0 0-2.979 1.436c-.062.074-.11.163-.168.24a16.396 16.396 0 0 0-1.97-2.956 8.714 8.714 0 0 0-1.77-1.595 4.655 4.655 0 0 0-1.992-.774 3.63 3.63 0 0 0-.43-.025 3.103 3.103 0 0 0-1.55.398 3.34 3.34 0 0 0-1.364 1.525c-.07.154-.131.313-.183.475a4.45 4.45 0 0 0-1.205-.313 3.693 3.693 0 0 0-.348-.017 3.246 3.246 0 0 0-2.427 1.073 3.484 3.484 0 0 0-.897 2.334c0 .7.216 1.384.62 1.957.202.282.427.548.672.793-.233.022-.465.06-.693.113a4.006 4.006 0 0 0-2.084 1.135 2.745 2.745 0 0 0-.727 1.858c0 .662.231 1.304.652 1.815a3.75 3.75 0 0 0 1.03.81 9.37 9.37 0 0 0 2.011.824c.484.139.979.239 1.479.3.118.43.261.852.43 1.265a8.52 8.52 0 0 0 1.052 1.881 5.91 5.91 0 0 0 1.535 1.431c.232.389.52.741.858 1.044a5.217 5.217 0 0 0 3.153 1.296 16.884 16.884 0 0 0 3.628 3.973 9.775 9.775 0 0 0 2.447 1.367 7.813 7.813 0 0 0 2.747.508 7.55 7.55 0 0 0 2.504-.43 9.293 9.293 0 0 0 3.44-2.219 15.864 15.864 0 0 0 2.758-3.837 51.25 51.25 0 0 0 12.043 19.81c.88.895 1.808 1.747 2.758 2.578-.051.848-.084 1.69-.085 2.514.02 3.106.3 6.205.838 9.265a8.042 8.042 0 0 0-2.83 3.105 13.03 13.03 0 0 0-1.282 5.803c-.008.974.088 1.947.286 2.901.007.03.028.052.037.08a7.641 7.641 0 0 0-.742 3.332c0 .403.028.805.082 1.204.59 4.423 1.931 7.576 3.977 9.65a9.404 9.404 0 0 0 3.495 2.244 11.87 11.87 0 0 0 4.096.673c.32 0 .642-.01.967-.03a12.945 12.945 0 0 0 8.14-3.21 10.108 10.108 0 0 0 3.219-7.554c0-.158-.004-.318-.01-.478a32.367 32.367 0 0 0-2.758-10.72 24.506 24.506 0 0 0-2.78-4.888 8.79 8.79 0 0 0-3.653-3.05 11.943 11.943 0 0 0-3.005-.702 51.552 51.552 0 0 1-.558-4.738c8.302 4.931 18.4 7.763 29.868 7.76 13.386.004 24.898-3.862 33.874-10.413a153.528 153.528 0 0 0-.087 5.051c0 .639.012 1.303.018 1.955a8.134 8.134 0 0 0-3.767 3.641 15.063 15.063 0 0 0-1.414 6.659c.004.105.023.208.055.307-.164.224-.339.434-.485.678a6.338 6.338 0 0 0-.73 2.098 14.149 14.149 0 0 0-.21 2.55c.015 2.011.289 4.011.814 5.952a15.31 15.31 0 0 0 2.463 5.335 8.525 8.525 0 0 0 3.666 2.627c1.5.569 3.093.855 4.698.841a13.951 13.951 0 0 0 8.421-2.728 9.664 9.664 0 0 0 3.204-4.655 17.64 17.64 0 0 0 .825-5.642 34.962 34.962 0 0 0-.883-7.37 19.25 19.25 0 0 0-3.314-7.606 10.328 10.328 0 0 0-3.208-2.779 8.995 8.995 0 0 0-2.737-.932c-.001-.307-.007-.628-.007-.931a92.192 92.192 0 0 1 .663-12.318 52.04 52.04 0 0 0 11.596-22.608c.615.482 1.247.96 1.911 1.429a35.248 35.248 0 0 0 10.163 5.049 29.628 29.628 0 0 0 4.733 1.307 1.207 1.207 0 0 0 1.382-.989 1.21 1.21 0 0 0-.983-1.386l-.015-.002a26.917 26.917 0 0 1-3.05-.774l.487-1.919c1.862.534 3.231.769 3.263.775a1.205 1.205 0 0 0 .402-2.374l-.075-.014a32.56 32.56 0 0 1-2.998-.721l.485-1.914c1.857.484 3.245.724 3.269.728a1.204 1.204 0 0 0 .406-2.373l-.076-.014a43.325 43.325 0 0 1-3.007-.674l.002-.009a23.123 23.123 0 0 1-7.177-3.227 42.966 42.966 0 0 1-4.729-3.697c-.939-.824-1.884-1.696-2.854-2.589l.001-.036c0-.316-.011-.629-.016-.944.591.296 1.187.592 1.816.878a35.495 35.495 0 0 0 6.122 2.152c2.381.589 4.825.886 7.277.884.175 0 1.539.024 1.994.024a25.83 25.83 0 0 0 3.438-.208 1.205 1.205 0 0 0 .541-2.156 1.205 1.205 0 0 0-.892-.226l-.007.001a24.03 24.03 0 0 1-3.08.181c-.103 0-.214-.003-.321-.004l-.112-1.985a30.315 30.315 0 0 0 3.418-.274 1.205 1.205 0 0 0-.366-2.38l-.065.009c-1.037.136-2.08.216-3.124.24l-.114-1.988a39.96 39.96 0 0 0 3.217-.345 1.204 1.204 0 0 0-.382-2.377l-.074.011c-.342.052-1.837.263-3.681.353-.129.003-.263.011-.39.011a19.324 19.324 0 0 1-6.038-.966 46.644 46.644 0 0 1-8.502-4.1 151.23 151.23 0 0 0-2.291-1.271 59.89 59.89 0 0 0-1.621-5.705 79.037 79.037 0 0 0 19.939-5.592 36.45 36.45 0 0 0 9.283-5.587 14.05 14.05 0 0 0 2.886-3.389 7.686 7.686 0 0 0 1.121-3.88 7.184 7.184 0 0 0-.844-3.325ZM39.699 122.533a3.997 3.997 0 0 1-.432 1.531 3.952 3.952 0 0 1-1.525 1.403 1.203 1.203 0 0 0-.421 1.65c.055.078.12.149.192.212a2.266 2.266 0 0 1-.165.267 3.906 3.906 0 0 1-2.72 1.405 5.542 5.542 0 0 1-.853.071 2.888 2.888 0 0 1-2.043-.694 2.286 2.286 0 0 1-.384-.45l-.072-.124-.01-.017-.002.001a1.193 1.193 0 0 0-.538-.587 3.34 3.34 0 0 1-1.081-.963 6.841 6.841 0 0 1-.987-2.006 8.712 8.712 0 0 1-.244-.965l-.009-.048-.001-.008a1.207 1.207 0 0 0-1.229-1.023l-.116.002a6.88 6.88 0 0 1-2.192-.445 6.238 6.238 0 0 1-.922-.418 2.65 2.65 0 0 1-.284-.184l-.074-.06-.016-.016-.001-.002a.473.473 0 0 1-.094-.273.324.324 0 0 1 .1-.239c.242-.219.543-.362.864-.412h.001c.231-.054.468-.079.705-.077a6.586 6.586 0 0 1 2.266.49 9.256 9.256 0 0 1 1.006.458l.05.027.01.006v-.001a1.202 1.202 0 0 0 1.505-1.837 14.962 14.962 0 0 0-2.504-2.213 6.742 6.742 0 0 1-1.61-1.485.982.982 0 0 1-.181-.573c0-.264.098-.519.273-.716a.837.837 0 0 1 .643-.283l.11.005c.31.046.609.149.882.302a11.431 11.431 0 0 1 3.816 3.85 1.206 1.206 0 0 0 1.662.355 1.206 1.206 0 0 0 .361-1.661 16.013 16.013 0 0 0-3.06-3.542c-.002-.014.003-.027.001-.041l-.008-.124c.005-.314.099-.62.27-.884a.793.793 0 0 1 .254-.244.701.701 0 0 1 .362-.084l.149.009c.344.057.669.192.952.395a7.788 7.788 0 0 1 1.947 2.027 18.494 18.494 0 0 1 1.849 3.427c-.184.145-.39.315-.61.507-.369.32-.715.664-1.037 1.031a4.904 4.904 0 0 0-.858 1.328 1.207 1.207 0 0 0 .664 1.568 1.201 1.201 0 0 0 1.568-.663 2.67 2.67 0 0 1 .448-.659c.37-.413.776-.794 1.211-1.139.193-.155.362-.283.48-.37l.136-.099.034-.023.007-.006a1.194 1.194 0 0 0 .52-.948 3.415 3.415 0 0 1 .704-2.122 1.506 1.506 0 0 1 1.145-.59c.154.001.308.029.453.083a.884.884 0 0 1 .453.289c.06.101.087.218.078.335-.027.4-.127.793-.294 1.158-.185.455-.432.918-.64 1.322a7.58 7.58 0 0 0-.738 2.368c-.083.535-.122 1.016-.176 1.436Zm25.971 46.636a5.39 5.39 0 0 1 1.19-1.551c.055.247.106.472.151.663a65.075 65.075 0 0 0-.704 4.753l-.037.02c-.575.334-1.118.72-1.623 1.153-.002-.103-.005-.204-.005-.312a10.65 10.65 0 0 1 1.028-4.726Zm8.67 4.25a8.06 8.06 0 0 1 3.322.575 1.21 1.21 0 0 0 1.613-.549 1.212 1.212 0 0 0 .058-.921 1.208 1.208 0 0 0-.61-.692 7.556 7.556 0 0 0-1.686-.546 27.617 27.617 0 0 0-.772-2.762 15.455 15.455 0 0 0-1.035-2.389c.17.053.34.102.507.165a6.551 6.551 0 0 1 2.589 2.254 26.052 26.052 0 0 1 3.501 6.99 27.315 27.315 0 0 1 1.548 7.26c.005.128.008.255.008.381a7.678 7.678 0 0 1-2.45 5.789 10.55 10.55 0 0 1-6.645 2.572 13.6 13.6 0 0 1-.823.025 9.467 9.467 0 0 1-3.27-.526 7.284 7.284 0 0 1-3.698-3.046 16.826 16.826 0 0 1-2.213-6.905c-.04-.294-.06-.59-.061-.886a5.137 5.137 0 0 1 .885-2.955 8.269 8.269 0 0 1 3.966-2.873 15.112 15.112 0 0 1 5.267-.961ZM28.397 85.514a34.155 34.155 0 0 1-8.66-5.188 11.686 11.686 0 0 1-2.4-2.795 5.288 5.288 0 0 1-.793-2.67 4.774 4.774 0 0 1 .574-2.22 5.148 5.148 0 0 1 2.393-2.327 8.935 8.935 0 0 1 3.914-.774c2.68.088 5.326.634 7.823 1.614a47.066 47.066 0 0 1 9.732 5.03 41.866 41.866 0 0 0 2.952 14.108 76.032 76.032 0 0 1-15.535-4.778Zm14.951-10.87a42.935 42.935 0 0 1 8.197-25.503 21.638 21.638 0 0 1 4.67-4.359 14.24 14.24 0 0 1 7.979-2.605c1.973.005 3.917.472 5.676 1.365a16.414 16.414 0 0 1 4.855 3.908c2.135 2.365 3.996 5.217 6.643 7.556a15.844 15.844 0 0 0 4.7 2.92c2.08.79 4.291 1.179 6.517 1.144a16.498 16.498 0 0 0 8.715-2.448c3.659-2.205 6.442-5.42 9.386-8.151a27.848 27.848 0 0 1 4.612-3.602 14.86 14.86 0 0 1 5.479-2.01c.872-.134 1.753-.201 2.635-.202a16.333 16.333 0 0 1 8.58 2.42 20.453 20.453 0 0 1 5.964 5.705 43.088 43.088 0 0 1 7.054 23.861 39.413 39.413 0 0 1-13.704 30.047c-8.793 7.704-21.501 12.521-37.127 12.522-15.626-.001-28.334-4.818-37.127-12.522a39.41 39.41 0 0 1-13.704-30.047Zm7.823 47.869a56.62 56.62 0 0 1-.863-9.856c0-.264.02-.524.023-.787 8.177 12.015 24.366 19.103 46.573 19.103 19.351 0 34.587-6.76 43.86-17.225a22.002 22.002 0 0 1 4.746 2.893c1.285.996 2.599 2.164 3.983 3.43a46.599 46.599 0 0 1-14.29 14.838c.077-.12.161-.229.236-.352a15.29 15.29 0 0 0 2.337-7.218 3.706 3.706 0 0 0-7.4-.362 7.235 7.235 0 0 1-.776 2.836 16.682 16.682 0 0 1-3.088 4.129c-.248.255-.498.5-.748.743l-.089-.003a9.078 9.078 0 0 0-1.13.067 4.069 4.069 0 0 0-2.666 1.249 2.83 2.83 0 0 0-.289.407 5.354 5.354 0 0 0-1.28.621 10.445 10.445 0 0 0-2.436 2.371 18.579 18.579 0 0 0-1.869 3.024c-.16.326-.304.667-.437 1.016a81.854 81.854 0 0 1-16.46 2.326c-27.537 1.156-41.131-8.497-47.937-23.25Zm79.276 17.378a1.195 1.195 0 0 0-.378 1.321l-.002.001.005.016c.102.368.151.748.147 1.13a4.847 4.847 0 0 1-1.167 3.137 1.218 1.218 0 0 0-.202 1.172c.282.783.624 1.726.89 2.654.255.804.405 1.638.445 2.481.015.253-.027.506-.122.741l-.06.082-.105.051a.974.974 0 0 1-.279.044.936.936 0 0 1-.439-.118 3.128 3.128 0 0 1-1.004-.985c-.52-.784-.94-1.63-1.251-2.518a16.733 16.733 0 0 1-.41-1.277l-.02-.071-.004-.018a1.207 1.207 0 0 0-2.159-.391 1.2 1.2 0 0 0-.197.875c0 .001.037.231.094.615.086.576.215 1.488.321 2.426.106.847.169 1.698.189 2.551v.068a1.112 1.112 0 0 1-.348.733 1.13 1.13 0 0 1-.774.351.99.99 0 0 1-.561-.187 2.599 2.599 0 0 1-.77-.909 8.312 8.312 0 0 1-.813-4.009c.004-.812.061-1.623.169-2.428a1.207 1.207 0 0 0-.235-.895 1.202 1.202 0 0 0-.801-.463 1.208 1.208 0 0 0-1.203.598 1.209 1.209 0 0 0-.148.448 21.092 21.092 0 0 0-.189 2.74c.003.714.058 1.428.166 2.135 0 .031-.013.06-.01.092.008.084.012.166.012.244.017.425-.121.842-.388 1.173a.875.875 0 0 1-.655.336.814.814 0 0 1-.491-.179 2.215 2.215 0 0 1-.649-.87 3.146 3.146 0 0 1-.191-.806 11.526 11.526 0 0 1-.089-1.52 20.01 20.01 0 0 1 .345-3.605 13.344 13.344 0 0 1 1.048-3.368 14.995 14.995 0 0 1 2.238-3.365 6.73 6.73 0 0 1 1.231-1.086c.295-.211.633-.354.991-.417a1.195 1.195 0 0 0 1.018-.98l.011.004c.003 0 .011-.056.143-.16a2.146 2.146 0 0 1 1.052-.347 8.244 8.244 0 0 1 3.99.562c.437.182.837.442 1.18.768.289.279.495.631.597 1.02l.01.074a.381.381 0 0 1-.087.218l-.08.094-.014.014.003.003Zm4.028 29.328a6.443 6.443 0 0 1 2.012-3.286 65.408 65.408 0 0 0-.908 4.511c-.094.04-.193.067-.287.109a9.956 9.956 0 0 0-1.213.651c.08-.671.212-1.335.396-1.985Zm9.86 3.263a7.635 7.635 0 0 1 2.692 1.408 1.204 1.204 0 0 0 1.595-1.804 8.804 8.804 0 0 0-2.142-1.341 30.823 30.823 0 0 0-1.426-5.02 3.648 3.648 0 0 0-.912-1.335 6.57 6.57 0 0 1 1.548.597 8.974 8.974 0 0 1 3.425 3.609 19.087 19.087 0 0 1 1.892 5.177c.516 2.249.794 4.545.826 6.852a15.293 15.293 0 0 1-.696 4.867 7.248 7.248 0 0 1-2.394 3.523 11.573 11.573 0 0 1-6.952 2.228 10.547 10.547 0 0 1-3.819-.675 6.146 6.146 0 0 1-2.647-1.867 12.997 12.997 0 0 1-2.036-4.483 21.042 21.042 0 0 1-.731-5.323 11.76 11.76 0 0 1 .17-2.111c.068-.453.212-.892.426-1.298a6.86 6.86 0 0 1 3.131-2.739 10.379 10.379 0 0 1 4.246-.847c1.29 0 2.573.196 3.804.582Zm-3.097-23.54c-9.116 9.262-22.222 15.014-38.342 15.019-15.418-.005-28.069-5.275-37.12-13.838 8.818 6.102 20.909 8.44 35.321 7.918a82.044 82.044 0 0 0 15.828-2.076c.398.18.829.276 1.266.28a3.237 3.237 0 0 0 2.187-.895 4.775 4.775 0 0 0 1.338 1.425c.56.384 1.222.591 1.901.595a3.587 3.587 0 0 0 3.511-3.318c.281.27.598.501.941.687a3.298 3.298 0 0 0 2.521.244c.353-.104.682-.279.965-.516a2.78 2.78 0 0 0 .838-1.274c.14-.45.207-.919.2-1.39a8.892 8.892 0 0 0-.162-1.579c9.498-5.057 16.545-12.293 20.528-20.947a48.929 48.929 0 0 1-11.721 19.665Zm8.776-53.572c.419-2.06.675-4.152.768-6.253a56.074 56.074 0 0 1 2.639 7.633 33.117 33.117 0 0 0-3.407-1.38Zm34.651-18.676a15.817 15.817 0 0 1-5.14 4.848 55.662 55.662 0 0 1-13.643 5.97 77.237 77.237 0 0 1-12.089 2.641 56.455 56.455 0 0 0-2.763-6.054 49.34 49.34 0 0 1 10.932-9.367 46.246 46.246 0 0 1 8.792-4.415 23.517 23.517 0 0 1 7.823-1.614 8.933 8.933 0 0 1 3.914.774 5.149 5.149 0 0 1 2.393 2.328 4.78 4.78 0 0 1 .575 2.219 5.292 5.292 0 0 1-.794 2.67Z"/></svg>