<svg width="199" height="200" viewBox="0 0 199 200" xmlns="http://www.w3.org/2000/svg"><g id="type=avatar, mode=dark"><g id="Layer 3"><path id="Vector" d="M151.603 83.8165C155.417 79.7227 159.878 76.2847 164.808 73.6405C169.592 71.0635 174.425 69.5343 178.087 69.5439C179.424 69.5038 180.754 69.7667 181.976 70.3129C183.003 70.7984 183.84 71.6122 184.354 72.626C184.72 73.3037 184.916 74.0605 184.924 74.831C184.908 75.7042 184.669 76.5589 184.231 77.3146C183.085 79.1461 181.54 80.6949 179.711 81.8451C175.889 84.3179 171.749 86.2601 167.405 87.6184C162.787 89.1582 158.035 90.2596 153.211 90.908C153.055 90.928 152.905 90.9785 152.768 91.0566C152.632 91.1347 152.512 91.2389 152.416 91.3633C152.32 91.4876 152.25 91.6296 152.209 91.7812C152.167 91.9329 152.157 92.0911 152.177 92.2469C152.197 92.4027 152.247 92.5531 152.325 92.6894C152.403 92.8257 152.508 92.9453 152.632 93.0413C152.756 93.1374 152.898 93.208 153.05 93.2491C153.201 93.2902 153.36 93.3011 153.516 93.2811C161.096 92.2791 168.486 90.1615 175.446 86.997C178.475 85.6499 181.281 83.8502 183.769 81.6596C184.785 80.7349 185.65 79.6558 186.331 78.462C186.961 77.3544 187.3 76.1052 187.317 74.831C187.308 73.6783 187.021 72.5447 186.479 71.5272C185.727 70.0568 184.513 68.8743 183.023 68.1619C181.476 67.4555 179.787 67.11 178.087 67.1513C173.792 67.1608 168.705 68.8399 163.676 71.5326C158.508 74.3043 153.831 77.9096 149.836 82.2035C149.622 82.4378 149.51 82.7475 149.525 83.0645C149.539 83.3814 149.679 83.6797 149.913 83.8936C150.148 84.1075 150.457 84.2196 150.774 84.2051C151.091 84.1907 151.389 84.0509 151.603 83.8166L151.603 83.8165Z"/><path id="Vector_2" d="M150.058 88.8977C151.482 92.0561 152.609 95.3401 153.425 98.7072C153.462 98.8599 153.529 99.0037 153.621 99.1305C153.714 99.2573 153.831 99.3646 153.965 99.4462C154.099 99.5279 154.248 99.5823 154.404 99.6064C154.559 99.6304 154.717 99.6237 154.87 99.5865C155.023 99.5493 155.167 99.4825 155.293 99.3897C155.42 99.2969 155.527 99.1801 155.609 99.0459C155.691 98.9117 155.745 98.7627 155.769 98.6074C155.793 98.4522 155.787 98.2937 155.749 98.1411C154.899 94.6297 153.723 91.2051 152.238 87.9115C152.174 87.7675 152.082 87.6375 151.967 87.5292C151.853 87.4209 151.718 87.3363 151.571 87.2802C151.423 87.2242 151.266 87.1979 151.109 87.2027C150.951 87.2076 150.796 87.2435 150.652 87.3085C150.509 87.3735 150.379 87.4663 150.272 87.5814C150.164 87.6966 150.08 87.8319 150.025 87.9796C149.97 88.1273 149.944 88.2845 149.95 88.442C149.956 88.5996 149.993 88.7545 150.058 88.8977L150.058 88.8977Z"/><path id="Vector_3" d="M52.1835 129.071C52.0413 129.004 51.8874 128.966 51.7304 128.959C51.5735 128.951 51.4167 128.975 51.2689 129.028C51.1211 129.082 50.9853 129.164 50.8692 129.269C50.753 129.375 50.6589 129.503 50.5921 129.645C49.8459 131.341 48.8081 132.894 47.5257 134.232C46.6908 135.087 45.6756 135.745 44.5542 136.157C43.8858 136.393 43.1825 136.514 42.4738 136.516L42.4656 136.516L42.4623 136.516H42.4523C41.6668 136.512 40.8884 136.367 40.1539 136.088C39.3899 135.795 38.6721 135.394 38.0226 134.896C36.9148 134.028 35.9376 133.006 35.1211 131.86C35.2217 131.848 35.3194 131.841 35.4225 131.824C36.41 131.686 37.359 131.348 38.2116 130.831C38.7551 130.492 39.232 130.056 39.619 129.545C39.8779 129.862 40.1553 130.163 40.4496 130.447C40.8637 130.871 41.3584 131.208 41.9047 131.438C42.002 131.474 42.1021 131.502 42.2039 131.523L42.2661 131.531L42.266 131.531C42.2961 131.536 42.3075 131.537 42.3257 131.539L42.3619 131.544L42.3685 131.544L42.3991 131.546L42.4001 131.527C42.5147 131.539 42.6305 131.535 42.744 131.514L42.7997 131.501L42.9193 131.465C43.1203 131.39 43.3102 131.288 43.484 131.162L43.4845 131.162L43.4895 131.158L43.4961 131.154L43.4956 131.153C43.7609 130.962 44.005 130.742 44.2236 130.499C44.5123 130.182 44.7758 129.843 45.0117 129.485L45.0121 129.485L45.0154 129.479L45.0191 129.474L45.0187 129.474C46.3076 127.364 47.2328 125.052 47.7558 122.636L47.755 122.639C47.8549 122.226 48.0594 121.845 48.3488 121.533C48.6383 121.221 49.003 120.989 49.4079 120.859C49.5584 120.812 49.6979 120.735 49.8185 120.633C49.9391 120.531 50.0384 120.407 50.1106 120.267C50.1829 120.126 50.2266 119.973 50.2394 119.816C50.2523 119.659 50.2338 119.5 50.1852 119.35C50.1366 119.2 50.0588 119.061 49.9563 118.941C49.8537 118.821 49.7284 118.723 49.5877 118.652C49.447 118.58 49.2935 118.537 49.1361 118.526C48.9788 118.514 48.8207 118.534 48.6709 118.583V118.583C47.877 118.839 47.1621 119.295 46.5946 119.906C46.0272 120.518 45.6261 121.265 45.4298 122.076L45.429 122.079C44.9691 124.218 44.1594 126.266 43.0324 128.141L43.0254 128.151C42.8574 128.408 42.6696 128.651 42.4637 128.878C42.4331 128.911 42.4104 128.93 42.382 128.959C42.2978 128.893 42.2045 128.814 42.0949 128.71L42.0923 128.708C41.5753 128.191 41.1122 127.624 40.71 127.014C41.0356 126.716 41.324 126.38 41.569 126.013C41.8982 125.507 42.1377 124.949 42.277 124.362C42.4233 123.644 42.5296 122.918 42.5953 122.188C42.6608 121.548 42.8395 120.925 43.1231 120.348C43.3149 119.973 43.6002 119.446 43.8462 118.846C44.1331 118.197 44.2926 117.499 44.3159 116.789C44.3258 116.19 44.1526 115.602 43.8195 115.104C43.4243 114.554 42.8666 114.142 42.2248 113.926C41.8153 113.773 41.3821 113.695 40.9453 113.695C40.3778 113.703 39.8187 113.835 39.3075 114.081C38.7962 114.328 38.345 114.683 37.9856 115.123C37.9238 115.195 37.877 115.284 37.8192 115.361C37.2745 114.313 36.6178 113.328 35.8605 112.423C35.3497 111.817 34.7582 111.284 34.1023 110.839C33.511 110.432 32.8328 110.168 32.1218 110.069C31.9803 110.053 31.8379 110.044 31.6953 110.044C31.1562 110.04 30.6254 110.176 30.1551 110.44C29.5559 110.791 29.0819 111.321 28.7995 111.955C28.7297 112.109 28.6693 112.267 28.6184 112.427C28.2356 112.268 27.8322 112.163 27.4202 112.117C27.3052 112.105 27.1901 112.099 27.0754 112.099C26.6211 112.098 26.1716 112.192 25.756 112.375C25.3405 112.559 24.9684 112.828 24.6638 113.165C24.0898 113.802 23.772 114.628 23.7719 115.485C23.7713 116.181 23.9863 116.86 24.3874 117.43C24.5882 117.71 24.8117 117.974 25.0557 118.218C24.8235 118.239 24.593 118.277 24.366 118.33C23.5781 118.488 22.8565 118.881 22.2959 119.457C21.8326 119.961 21.575 120.62 21.5742 121.304C21.5744 121.962 21.8033 122.599 22.2217 123.107C22.513 123.434 22.8595 123.706 23.2452 123.913C23.877 124.262 24.5474 124.537 25.2426 124.731C25.7241 124.869 26.2157 124.969 26.7129 125.029C26.8299 125.456 26.9726 125.876 27.1403 126.286C27.4082 126.951 27.7595 127.579 28.1858 128.155C28.6052 128.716 29.1218 129.198 29.7111 129.577C29.9414 129.964 30.2288 130.314 30.5636 130.615C31.0136 131.021 31.5362 131.339 32.1039 131.552C32.1307 131.675 32.1773 131.793 32.242 131.902L32.2419 131.902C33.3901 133.777 34.858 135.436 36.579 136.804L36.5823 136.807C37.4149 137.442 38.3347 137.955 39.3133 138.328C40.3019 138.702 41.3486 138.897 42.4053 138.907L42.4053 138.908L42.4492 138.909L42.4522 138.909L42.4526 138.909V138.909L42.4626 138.909L42.4773 138.909V138.909C43.455 138.906 44.4254 138.739 45.3476 138.414C46.8035 137.884 48.1228 137.036 49.2093 135.932L49.213 135.928C50.6937 134.394 51.8934 132.612 52.7575 130.662C52.8924 130.375 52.9077 130.046 52.8 129.748C52.6924 129.449 52.4706 129.206 52.1835 129.071ZM31.7169 128.272L31.7084 128.254L31.7052 128.256C31.5992 128.006 31.4108 127.8 31.1713 127.672C30.7473 127.436 30.3805 127.109 30.0967 126.716C29.6626 126.109 29.3313 125.436 29.1161 124.722C29.0193 124.416 28.9542 124.152 28.9146 123.97C28.8948 123.879 28.8812 123.808 28.8732 123.763L28.8649 123.716L28.8636 123.707L28.863 123.707C28.8188 123.418 28.6699 123.154 28.4445 122.967C28.2191 122.78 27.9329 122.681 27.6401 122.691L27.5254 122.693C26.7805 122.665 26.0451 122.516 25.3486 122.251C25.0323 122.137 24.7259 121.998 24.4322 121.835C24.3347 121.781 24.2407 121.72 24.1509 121.653L24.0776 121.593L24.0614 121.577L24.0598 121.575C24.0013 121.497 23.9689 121.402 23.9669 121.304C23.9664 121.26 23.9751 121.216 23.9923 121.175C24.0095 121.134 24.0349 121.097 24.0669 121.066C24.3069 120.849 24.6052 120.707 24.925 120.657C25.1549 120.604 25.3901 120.578 25.626 120.58C26.3993 120.608 27.1615 120.773 27.8774 121.067C28.203 121.193 28.4771 121.32 28.6646 121.413C28.7584 121.459 28.8306 121.497 28.877 121.522L28.9268 121.55L28.9347 121.554L28.9362 121.555L28.9363 121.555C29.1818 121.696 29.4697 121.746 29.7485 121.695C30.0273 121.644 30.279 121.496 30.4587 121.277C30.6383 121.057 30.7343 120.781 30.7295 120.498C30.7247 120.215 30.6194 119.942 30.4324 119.729C29.6878 118.905 28.8534 118.168 27.9447 117.53C27.3343 117.129 26.7939 116.63 26.3451 116.054C26.2267 115.888 26.1636 115.689 26.1646 115.485C26.1653 115.223 26.2617 114.97 26.4356 114.773C26.5152 114.683 26.6138 114.61 26.7244 114.562C26.8349 114.513 26.9548 114.489 27.0755 114.492L27.1843 114.498C27.4921 114.543 27.789 114.645 28.0603 114.797C29.6132 115.75 30.9141 117.062 31.8533 118.623C31.9382 118.755 32.0485 118.87 32.1777 118.959C32.307 119.049 32.4528 119.113 32.6066 119.146C32.7605 119.18 32.9194 119.182 33.0743 119.154C33.2292 119.126 33.377 119.068 33.5093 118.982C33.6416 118.897 33.7557 118.786 33.8451 118.657C33.9346 118.527 33.9975 118.381 34.0304 118.227C34.0633 118.073 34.0655 117.914 34.0369 117.759C34.0082 117.605 33.9493 117.457 33.8634 117.325V117.325C33.0275 116.009 32.0026 114.823 30.8216 113.805C30.8198 113.791 30.8254 113.778 30.8231 113.765L30.8148 113.642C30.8205 113.33 30.9135 113.025 31.0832 112.763C31.1481 112.664 31.2345 112.581 31.336 112.521C31.446 112.461 31.5703 112.432 31.6955 112.437L31.8434 112.446C32.1846 112.503 32.5083 112.637 32.7894 112.839C33.5512 113.387 34.2067 114.07 34.7241 114.853C35.4549 115.92 36.0709 117.062 36.5618 118.258C36.3789 118.403 36.1734 118.571 35.9555 118.762C35.5893 119.08 35.2451 119.422 34.9251 119.786C34.5716 120.177 34.2838 120.623 34.0727 121.107C34.0137 121.252 33.9839 121.408 33.9851 121.565C33.9864 121.722 34.0185 121.877 34.0797 122.022C34.1409 122.167 34.2301 122.298 34.342 122.408C34.4539 122.518 34.5865 122.606 34.7321 122.665C34.8777 122.724 35.0335 122.753 35.1906 122.752C35.3477 122.751 35.503 122.719 35.6477 122.658C35.7924 122.596 35.9236 122.507 36.0338 122.395C36.144 122.283 36.2311 122.151 36.2901 122.005C36.4049 121.766 36.5549 121.545 36.7351 121.351C37.1037 120.94 37.5065 120.562 37.9392 120.219C38.1303 120.065 38.2982 119.938 38.4158 119.852L38.5514 119.753L38.5849 119.73L38.5921 119.725C38.7461 119.619 38.8731 119.479 38.9629 119.315C39.0528 119.151 39.1029 118.969 39.1093 118.782C39.099 118.021 39.345 117.278 39.8078 116.673C39.9424 116.498 40.1143 116.354 40.311 116.253C40.5077 116.152 40.7243 116.095 40.9455 116.087C41.0993 116.088 41.2518 116.116 41.3957 116.17C41.572 116.216 41.7294 116.317 41.846 116.457C41.9059 116.557 41.933 116.673 41.9235 116.789C41.8967 117.187 41.7979 117.577 41.6318 117.94C41.4471 118.393 41.2022 118.853 40.9952 119.254C40.6234 119.993 40.3757 120.788 40.262 121.607C40.18 122.139 40.1408 122.617 40.0869 123.034C40.0474 123.564 39.9015 124.082 39.658 124.555C39.286 125.146 38.7629 125.628 38.1428 125.949C38.0077 126.029 37.8896 126.135 37.7955 126.261C37.7013 126.387 37.6328 126.53 37.5939 126.682C37.5551 126.834 37.5465 126.993 37.5689 127.148C37.5912 127.304 37.6439 127.453 37.7241 127.589C37.7786 127.666 37.8426 127.737 37.9146 127.799C37.866 127.892 37.8113 127.981 37.7508 128.065C37.4174 128.468 37.0062 128.799 36.5418 129.039C36.0774 129.279 35.5694 129.422 35.0482 129.461C34.7681 129.507 34.4849 129.53 34.2011 129.532C33.4604 129.573 32.7326 129.326 32.1702 128.842C32.0241 128.71 31.8959 128.56 31.7887 128.395L31.7169 128.272Z"/><path id="Vector_4" d="M40.4503 130.448L40.4493 130.447L40.4473 130.446L40.4503 130.448Z"/><path id="Vector_5" d="M135.517 136.344C141.345 132.291 146.913 126.86 150.291 121.144C150.451 120.871 150.497 120.545 150.417 120.239C150.338 119.932 150.14 119.67 149.867 119.509C149.594 119.348 149.268 119.302 148.962 119.38C148.655 119.459 148.392 119.656 148.23 119.929L148.23 119.929C145.111 125.228 139.745 130.501 134.153 134.379C134.024 134.469 133.913 134.583 133.829 134.715C133.744 134.847 133.686 134.995 133.658 135.149C133.63 135.304 133.633 135.462 133.666 135.616C133.699 135.769 133.763 135.915 133.852 136.044C133.942 136.173 134.056 136.283 134.188 136.368C134.32 136.453 134.468 136.511 134.623 136.539C134.777 136.567 134.936 136.564 135.089 136.531C135.243 136.497 135.388 136.434 135.517 136.344Z"/><path id="Vector_6" d="M155.191 124.747C155.038 124.712 154.879 124.708 154.724 124.734C154.569 124.76 154.421 124.817 154.288 124.9C154.155 124.984 154.04 125.093 153.949 125.221C153.858 125.349 153.793 125.493 153.758 125.647L153.758 125.646C151.364 136.536 145.301 146.271 136.584 153.222C127.899 160.082 116.469 164.198 102.884 164.2C83.5034 164.19 68.5019 155.837 59.6131 143.03C59.5236 142.901 59.4095 142.791 59.2774 142.706C59.1453 142.621 58.9977 142.563 58.8432 142.535C58.531 142.478 58.2091 142.548 57.9483 142.729C57.6876 142.909 57.5093 143.186 57.4528 143.499C57.3962 143.811 57.466 144.133 57.6467 144.393C59.8476 147.563 62.4109 150.466 65.2845 153.041C65.2127 154.049 65.1814 155.043 65.1809 156.011C65.2007 159.191 65.4891 162.363 66.0432 165.495C66.048 165.523 66.0529 165.547 66.0578 165.575C65.0908 166.297 64.3027 167.231 63.7543 168.305C62.8909 170.104 62.4547 172.077 62.4798 174.071C62.4716 175.04 62.5669 176.006 62.7641 176.955C62.7711 176.984 62.7918 177.006 62.8009 177.035C62.3088 178.068 62.0568 179.2 62.064 180.344C62.0646 180.745 62.0918 181.145 62.1454 181.541C62.732 185.937 64.0638 189.069 66.0969 191.13C67.0739 192.123 68.2606 192.885 69.5699 193.36C70.8767 193.82 72.2542 194.047 73.6394 194.029C73.9577 194.029 74.278 194.019 74.6005 194C77.5852 193.907 80.4447 192.78 82.6886 190.809C83.7176 189.852 84.534 188.689 85.0851 187.396C85.6362 186.103 85.9096 184.709 85.8876 183.303C85.8876 183.146 85.8845 182.988 85.8782 182.829C85.583 179.147 84.6558 175.543 83.1371 172.176C82.4062 170.456 81.4798 168.826 80.376 167.318C79.4675 165.994 78.2113 164.945 76.7456 164.288C76.3954 164.155 76.0372 164.057 75.6793 163.959C75.6594 163.847 75.6398 163.747 75.6198 163.629C75.4377 162.56 75.2607 161.298 75.1319 159.944C83.6854 164.435 93.224 166.72 102.884 166.593C116.042 166.595 127.384 162.845 136.261 156.46C136.213 158.033 136.183 159.627 136.182 161.268C136.182 161.953 136.194 162.661 136.201 163.36C134.6 164.186 133.321 165.523 132.567 167.159C131.721 169.145 131.299 171.285 131.327 173.443C131.331 173.547 131.35 173.649 131.382 173.748C131.219 173.97 131.045 174.179 130.9 174.422C130.538 175.068 130.292 175.774 130.175 176.506C130.029 177.343 129.959 178.191 129.966 179.041C129.981 181.039 130.253 183.026 130.775 184.955C131.241 186.863 132.072 188.664 133.222 190.256C134.18 191.437 135.438 192.339 136.865 192.867C138.356 193.432 139.939 193.715 141.533 193.702C144.543 193.731 147.48 192.779 149.902 190.991C151.4 189.801 152.509 188.19 153.086 186.366C153.661 184.553 153.938 182.66 153.905 180.759C153.873 178.293 153.579 175.838 153.027 173.435C152.58 171.278 151.794 169.204 150.698 167.292C149.613 165.347 147.952 163.786 145.943 162.825C145.939 162.299 145.936 161.779 145.936 161.269V161.266L145.936 161.206C145.849 156.327 146.161 151.449 146.869 146.621C146.897 146.458 146.892 146.291 146.852 146.13C151.314 140.212 154.463 133.411 156.09 126.18C156.161 125.871 156.106 125.546 155.937 125.278C155.769 125.009 155.5 124.818 155.191 124.747ZM65.8942 169.375C66.0868 168.995 66.3252 168.64 66.6041 168.318C66.6201 168.389 66.6351 168.454 66.6503 168.52C66.5475 169.085 66.4208 169.823 66.2907 170.698C66.1691 171.521 66.0459 172.447 65.9443 173.431C65.9458 173.48 65.9506 173.529 65.9586 173.578C65.5813 173.822 65.2203 174.091 64.8779 174.382C64.8754 174.28 64.8722 174.179 64.8723 174.072C64.8482 172.449 65.1979 170.842 65.8942 169.375ZM81.9493 175.71C82.7877 178.034 83.3052 180.461 83.4874 182.924C83.4925 183.051 83.495 183.178 83.495 183.303C83.5181 184.38 83.3132 185.449 82.8936 186.44C82.4739 187.432 81.8492 188.323 81.0604 189.056C79.2223 190.648 76.8881 191.551 74.4574 191.611C74.1795 191.628 73.9068 191.636 73.6394 191.636C72.5344 191.654 71.4349 191.477 70.3913 191.113C68.86 190.548 67.5649 189.481 66.7163 188.087C65.4933 185.986 64.7427 183.645 64.5169 181.225C64.4773 180.933 64.4572 180.639 64.4566 180.344C64.4421 179.298 64.7492 178.273 65.3362 177.408C66.3314 176.08 67.705 175.085 69.2765 174.554C70.9503 173.926 72.7226 173.603 74.5101 173.599C75.638 173.554 76.7626 173.749 77.81 174.17C78.0948 174.31 78.4235 174.331 78.7237 174.228C79.024 174.125 79.2711 173.908 79.4109 173.623C79.3556 173.099 79.3262 172.572 79.3226 172.045L79.3225 172.045C79.0791 170.962 78.5727 169.449 78.2498 168.499C78.3232 168.591 78.3972 168.668 78.4701 168.765C79.9726 170.892 81.1455 173.233 81.9493 175.71V175.71ZM73.261 164.03C73.3246 164.405 73.3877 164.748 73.4492 165.072C73.481 165.239 73.5478 165.397 73.645 165.536C73.7423 165.674 73.8679 165.791 74.0135 165.878C74.3804 166.089 74.6862 166.392 74.9008 166.757C75.3195 167.511 75.6659 168.304 75.9352 169.124C76.134 169.702 76.4276 170.579 76.6661 171.376C75.9529 171.263 75.232 171.207 74.51 171.206C72.4528 171.21 70.4126 171.58 68.4846 172.298C68.5406 171.862 68.5991 171.443 68.6574 171.048C68.8011 170.082 68.9429 169.272 69.0472 168.711C69.0778 168.548 69.0738 168.38 69.0356 168.219C68.8738 167.531 68.6384 166.457 68.4005 165.086C67.87 162.09 67.5933 159.054 67.5734 156.011C67.5735 155.674 67.5824 155.331 67.5907 154.99C69.1967 156.265 70.8791 157.441 72.6285 158.51C72.6289 158.526 72.6211 158.54 72.6221 158.556C72.7381 160.391 72.9513 162.218 73.261 164.03ZM134.73 168.182C135.018 167.561 135.41 166.994 135.889 166.505C135.556 167.973 135.269 169.401 135.057 170.761C134.652 170.944 134.259 171.154 133.883 171.39C133.997 170.283 134.283 169.201 134.73 168.182ZM148.644 168.518C149.607 170.211 150.298 172.044 150.691 173.951C151.204 176.185 151.48 178.467 151.512 180.759C151.544 182.398 151.31 184.031 150.82 185.595C150.396 186.974 149.567 188.193 148.441 189.096C146.438 190.56 144.014 191.337 141.533 191.31C140.238 191.323 138.951 191.095 137.738 190.639C136.711 190.267 135.803 189.627 135.109 188.785C134.157 187.442 133.47 185.93 133.085 184.33C132.618 182.605 132.374 180.828 132.358 179.041C132.352 178.338 132.408 177.636 132.527 176.943C132.595 176.492 132.738 176.056 132.952 175.653C133.681 174.445 134.768 173.494 136.062 172.931C137.394 172.357 138.831 172.07 140.281 172.09C141.563 172.089 142.838 172.284 144.061 172.667C145.038 172.95 145.947 173.426 146.737 174.067C146.941 174.249 147.201 174.355 147.475 174.367C147.748 174.38 148.017 174.298 148.237 174.136C148.457 173.973 148.615 173.741 148.683 173.476C148.752 173.211 148.728 172.931 148.615 172.682C148.613 172.654 148.624 172.629 148.62 172.601L148.62 172.601C148.56 172.189 148.493 171.777 148.419 171.364C148.128 169.751 147.72 168.161 147.196 166.607C147.751 167.187 148.236 167.828 148.644 168.518L148.644 168.518ZM143.543 161.272V161.269C143.543 162.359 143.554 163.48 143.57 164.615C143.572 164.777 143.607 164.936 143.672 165.083C143.738 165.231 143.832 165.364 143.95 165.474C144.227 165.726 144.442 166.037 144.58 166.385C145.122 167.816 145.551 169.288 145.861 170.786C145.516 170.641 145.159 170.507 144.788 170.388C143.33 169.929 141.81 169.696 140.281 169.697C139.385 169.696 138.49 169.781 137.61 169.952C137.865 168.528 138.186 167.037 138.574 165.479C138.598 165.379 138.61 165.275 138.609 165.172C138.589 163.846 138.575 162.539 138.575 161.269C138.576 158.973 138.613 156.759 138.717 154.624C138.718 154.605 138.708 154.589 138.709 154.57C140.613 153.015 142.399 151.32 144.053 149.5C143.683 153.391 143.513 157.298 143.543 161.206L143.543 161.272Z"/><path id="Vector_7" d="M154.951 123.391C154.8 123.346 154.642 123.331 154.486 123.347C154.33 123.363 154.178 123.409 154.04 123.484C153.901 123.558 153.779 123.659 153.68 123.781C153.581 123.903 153.506 124.043 153.461 124.193C150.242 134.909 142.529 143.852 131.247 149.735C130.966 149.881 130.754 150.134 130.659 150.436C130.563 150.739 130.592 151.067 130.739 151.349C130.885 151.63 131.138 151.842 131.441 151.937C131.743 152.032 132.071 152.003 132.353 151.857L132.353 151.857C144.12 145.731 152.338 136.271 155.753 124.881C155.844 124.577 155.811 124.249 155.66 123.97C155.51 123.691 155.255 123.483 154.951 123.391Z"/><path id="Vector_8" d="M120.447 154.068C119.727 154.281 118.998 154.485 118.259 154.678C112.63 156.12 106.861 156.94 101.053 157.122C99.7773 157.168 98.5212 157.192 97.2846 157.192C88.2335 157.193 80.2632 155.935 73.6452 153.217C67.2073 150.715 61.7217 146.248 57.9678 140.45C57.9579 140.434 57.9416 140.427 57.9311 140.412C55.5129 136.379 53.6739 132.027 52.468 127.482C55.277 132.359 59.1697 136.525 63.8452 139.658C71.2504 144.595 81.2759 147.408 94.7856 147.407C96.208 147.407 97.6698 147.375 99.1709 147.313C105.078 147.089 110.944 146.229 116.667 144.747C116.972 144.665 117.233 144.465 117.391 144.192C117.55 143.918 117.593 143.593 117.513 143.287C117.432 142.981 117.234 142.72 116.961 142.56C116.689 142.4 116.364 142.355 116.058 142.434L116.057 142.434C110.501 143.872 104.806 144.706 99.0705 144.922C97.6012 144.984 96.1729 145.014 94.7856 145.014C81.5954 145.013 72.0856 142.276 65.1723 137.668C58.2613 133.056 53.8661 126.543 51.0059 118.721C50.9715 118.648 50.9297 118.58 50.881 118.517C50.7193 116.775 50.6283 115.011 50.6282 113.22C50.6282 112.622 50.6366 112.025 50.6533 111.43C50.6585 111.273 50.6326 111.116 50.5769 110.968C50.5213 110.821 50.4371 110.686 50.3291 110.571C50.2211 110.456 50.0915 110.364 49.9477 110.299C49.804 110.235 49.6489 110.199 49.4913 110.195C49.3338 110.19 49.1769 110.217 49.0298 110.273C48.8826 110.33 48.748 110.415 48.6338 110.523C48.5195 110.632 48.4278 110.762 48.364 110.906C48.3001 111.05 48.2654 111.205 48.2617 111.363C48.2443 111.981 48.2356 112.6 48.2356 113.22C48.1155 124.329 51.3996 135.207 57.6465 144.394C57.7808 144.588 57.937 144.766 58.112 144.925C62.0123 149.616 67.0464 153.232 72.7367 155.431C79.7415 158.304 88.0152 159.584 97.2846 159.584C98.5512 159.584 99.8362 159.561 101.14 159.513C107.122 159.324 113.066 158.479 118.864 156.993C119.628 156.793 120.383 156.583 121.128 156.361C121.279 156.317 121.42 156.244 121.543 156.145C121.666 156.046 121.768 155.924 121.844 155.786C121.919 155.647 121.966 155.495 121.983 155.339C122 155.182 121.985 155.024 121.94 154.872C121.895 154.721 121.821 154.581 121.722 154.458C121.622 154.336 121.5 154.235 121.361 154.16C121.222 154.085 121.07 154.038 120.913 154.023C120.757 154.007 120.598 154.022 120.447 154.068H120.447Z"/><path id="Vector_9" d="M137.58 47.4391C132.686 41.3133 126.327 36.5203 119.091 33.5032C119.614 32.5396 120.284 31.6632 121.077 30.9054C122.169 31.6952 123.513 32.0545 124.853 31.9145C126.193 31.7745 127.434 31.1452 128.339 30.1469C129.244 29.1487 129.749 27.8518 129.757 26.5045C129.765 25.1573 129.275 23.8545 128.382 22.8456C127.49 21.8367 126.256 21.1926 124.918 21.0367C123.579 20.8809 122.231 21.2242 121.13 22.0009C120.029 22.7776 119.254 23.9332 118.952 25.2462C118.65 26.5592 118.843 27.9374 119.494 29.1169C118.427 30.1203 117.536 31.2971 116.861 32.5974C109.608 29.9568 101.938 28.6493 94.2203 28.7378C86.4213 28.6457 78.6713 29.9819 71.3534 32.6802C71.2639 32.5083 71.1809 32.3384 71.08 32.1637C70.3071 30.8072 69.2605 29.6263 68.0065 28.6962C66.5382 27.6486 64.833 26.9817 63.0436 26.7552C62.762 25.4308 62.0019 24.2569 60.9089 23.4579C59.8158 22.6589 58.4666 22.2909 57.1192 22.4245C55.7719 22.558 54.5211 23.1837 53.6062 24.1817C52.6912 25.1797 52.1764 26.4801 52.1602 27.8339C52.144 29.1877 52.6276 30.5 53.5184 31.5197C54.4092 32.5393 55.6446 33.1947 56.9884 33.3604C58.3321 33.5262 59.6898 33.1906 60.8017 32.418C61.9135 31.6454 62.7015 30.4899 63.0147 29.1727C64.305 29.3737 65.5308 29.872 66.5953 30.6283C67.6503 31.4179 68.518 32.4307 69.1363 33.5944C61.9061 36.6474 55.5652 41.479 50.7031 47.6399C50.5094 47.8904 50.4229 48.2074 50.4625 48.5215C50.5021 48.8356 50.6646 49.1212 50.9144 49.3157C51.1642 49.5102 51.4809 49.5978 51.7952 49.5593C52.1094 49.5207 52.3956 49.3591 52.5909 49.11L52.5909 49.1099C57.2016 43.2735 63.2105 38.6948 70.0611 35.7978C70.1433 36.0685 70.2081 36.3133 70.2555 36.5157C70.3059 36.7306 70.3386 36.9008 70.3581 37.0128L70.378 37.1355L70.3817 37.1611V37.1612C70.4012 37.317 70.4512 37.4676 70.5289 37.6041C70.6065 37.7407 70.7103 37.8606 70.8343 37.9571C70.9583 38.0536 71.1001 38.1246 71.2516 38.1663C71.4031 38.208 71.5613 38.2194 71.7172 38.1999C71.873 38.1804 72.0236 38.1304 72.1601 38.0528C72.2967 37.9751 72.4167 37.8713 72.5131 37.7473C72.6096 37.6233 72.6807 37.4815 72.7223 37.3301C72.764 37.1786 72.7754 37.0204 72.7559 36.8645C72.6517 36.1935 72.4926 35.5323 72.2803 34.8873C79.3056 32.3162 86.7398 31.0432 94.2203 31.1304C101.595 31.048 108.925 32.2841 115.864 34.7804C115.631 35.3798 115.431 35.9921 115.267 36.6143C115.23 36.7669 115.223 36.9254 115.247 37.0807C115.271 37.2359 115.326 37.3849 115.407 37.5192C115.489 37.6534 115.596 37.7703 115.723 37.8631C115.85 37.9559 115.994 38.0228 116.146 38.06C116.299 38.0973 116.457 38.1041 116.613 38.08C116.768 38.056 116.917 38.0017 117.051 37.9201C117.185 37.8385 117.302 37.7312 117.395 37.6045C117.488 37.4777 117.555 37.3339 117.592 37.1813L117.593 37.1768C117.73 36.6672 117.895 36.1652 118.085 35.673C124.979 38.5344 131.038 43.091 135.701 48.9199C135.898 49.1677 136.185 49.3275 136.499 49.3641C136.813 49.4008 137.129 49.3114 137.378 49.1155C137.627 48.9196 137.787 48.6332 137.825 48.319C137.863 48.0048 137.775 47.6884 137.58 47.4391H137.58ZM124.307 23.3665C124.92 23.3665 125.52 23.5484 126.03 23.8892C126.54 24.23 126.937 24.7144 127.172 25.2811C127.407 25.8478 127.468 26.4714 127.349 27.0731C127.229 27.6747 126.934 28.2273 126.5 28.6611C126.066 29.0948 125.514 29.3902 124.912 29.5099C124.31 29.6296 123.687 29.5682 123.12 29.3334C122.553 29.0987 122.069 28.7011 121.728 28.1911C121.387 27.6811 121.205 27.0814 121.205 26.468C121.207 25.6458 121.534 24.8576 122.115 24.2763C122.696 23.6949 123.485 23.3677 124.307 23.3665ZM57.6729 31.0091C57.0595 31.0091 56.4599 30.8272 55.9498 30.4864C55.4398 30.1456 55.0423 29.6612 54.8075 29.0945C54.5728 28.5278 54.5114 27.9041 54.6311 27.3025C54.7507 26.7009 55.0461 26.1482 55.4799 25.7145C55.9137 25.2807 56.4663 24.9854 57.0679 24.8657C57.6696 24.746 58.2932 24.8075 58.8599 25.0422C59.4266 25.277 59.911 25.6745 60.2518 26.1846C60.5926 26.6946 60.7745 27.2943 60.7745 27.9077C60.7733 28.7299 60.4462 29.5181 59.8648 30.0995C59.2834 30.6809 58.4952 31.008 57.6729 31.0091Z"/><path id="Vector_10" d="M113.836 88.6252L113.844 87.4289C113.39 87.4199 112.954 87.2556 112.607 86.9634C111.845 86.2792 111.283 85.4012 110.98 84.4228C110.551 83.1923 110.333 81.8982 110.335 80.595C110.287 79.2379 110.595 77.8919 111.229 76.6907C111.47 76.2663 111.811 75.9064 112.221 75.6416C112.639 75.39 113.12 75.2626 113.608 75.2744C114.108 75.2618 114.6 75.3932 115.028 75.653C115.687 76.1139 116.177 76.7794 116.42 77.5464C116.777 78.5705 116.951 79.6495 116.933 80.734C116.949 82.4068 116.595 84.0625 115.897 85.5828C115.647 86.1255 115.29 86.6127 114.849 87.0157C114.579 87.2707 114.224 87.4177 113.852 87.4287L113.811 87.4291L113.836 88.6252L113.844 87.4289L113.836 88.6252L113.861 89.8211L113.847 89.1545L113.85 89.8213L113.861 89.8211L113.847 89.1545L113.85 89.8213H113.852C114.787 89.8096 115.688 89.4635 116.39 88.8458C117.429 87.8815 118.191 86.6562 118.596 85.2974C119.082 83.825 119.328 82.2844 119.326 80.734C119.379 78.9164 118.954 77.1166 118.094 75.5144C117.655 74.7472 117.037 74.0977 116.292 73.6215C115.488 73.1404 114.569 72.8849 113.632 72.8819C112.695 72.8788 111.774 73.1283 110.967 73.604C109.871 74.3239 109.044 75.3858 108.614 76.6244C108.152 77.8965 107.924 79.2418 107.942 80.5951C107.924 82.6828 108.401 84.7451 109.335 86.6124C109.772 87.4742 110.384 88.2354 111.132 88.8473C111.896 89.4649 112.846 89.8079 113.828 89.8214L113.861 89.8211L113.836 88.6252Z"/><path id="Vector_11" d="M74.5443 88.6155L74.6166 87.4214C74.0879 87.3841 73.584 87.1827 73.1753 86.8454C72.3665 86.136 71.7628 85.2225 71.4272 84.2004C70.9818 82.9735 70.7542 81.6781 70.7548 80.3728C70.7113 79.0902 70.9997 77.8182 71.5923 76.6798C71.818 76.277 72.1339 75.9319 72.5151 75.6714C72.8926 75.4283 73.33 75.2945 73.7789 75.2849L73.8946 75.2824C74.3563 75.2731 74.8086 75.4131 75.1844 75.6814C75.8573 76.2332 76.3434 76.9792 76.5763 77.8177C76.934 78.9462 77.1089 80.1247 77.0944 81.3084C77.1192 82.8605 76.8296 84.4015 76.243 85.8387C76.0481 86.3117 75.7601 86.7407 75.3962 87.1002C75.2064 87.2978 74.9472 87.4135 74.6734 87.423L74.6108 87.421L74.6166 87.4214L74.5443 88.6155L74.4777 89.81L74.6734 89.8156C75.5373 89.8052 76.3659 89.4713 76.9956 88.8797C77.911 87.9659 78.565 86.8235 78.8894 85.5714C79.2928 84.1866 79.494 82.7508 79.4869 81.3084C79.5336 79.3983 79.1274 77.5042 78.3014 75.7813C77.8926 74.9711 77.299 74.2684 76.5686 73.73C75.7877 73.1759 74.8521 72.8819 73.8946 72.8898L73.6801 72.8944C72.8007 72.9224 71.9456 73.1899 71.207 73.6681C70.1808 74.3798 69.4077 75.3994 68.9994 76.5796C68.5615 77.7956 68.3456 79.0804 68.3622 80.3728C68.3477 82.4831 68.8489 84.565 69.8221 86.4375C70.2871 87.3201 70.9258 88.0996 71.6999 88.7289C72.4912 89.365 73.459 89.7423 74.472 89.8096L74.4777 89.81L74.5443 88.6155Z"/><path id="Vector_12" d="M85.906 92.0287C86.8946 93.3181 88.1746 94.355 89.6412 95.0543C90.9334 95.6533 92.3417 95.9606 93.766 95.9543C95.5773 95.9442 97.3594 95.4973 98.9612 94.6515C100.371 93.9611 101.554 92.8817 102.37 91.5408C102.52 91.2628 102.554 90.9369 102.464 90.634C102.375 90.3312 102.169 90.0761 101.892 89.9242C101.616 89.7724 101.29 89.7362 100.986 89.8235C100.683 89.9108 100.426 90.1146 100.272 90.3904C99.6779 91.3167 98.8373 92.0594 97.8448 92.5353C96.587 93.1992 95.1882 93.5512 93.766 93.5617C92.6915 93.5682 91.6288 93.3376 90.6536 92.8865C89.5266 92.346 88.5441 91.5453 87.7874 90.5505C87.5913 90.301 87.3042 90.1396 86.9892 90.1018C86.6742 90.064 86.3571 90.1529 86.1076 90.349C85.8581 90.545 85.6967 90.8321 85.6589 91.1471C85.6211 91.4622 85.71 91.7793 85.906 92.0288L85.906 92.0287Z"/><path id="Vector_13" d="M140.893 52.2029C138.979 48.8787 136.283 46.0713 133.039 44.0239C130.1 42.2194 126.718 41.2661 123.269 41.2703C122.272 41.2711 121.276 41.3472 120.29 41.4979C117.347 41.976 114.569 43.1759 112.203 44.9903C108.792 47.5018 106.092 50.7334 103.129 53.2468C101.714 54.5001 100.127 55.5462 98.4178 56.3538C96.6017 57.1755 94.6291 57.5935 92.6359 57.5792C90.1812 57.6488 87.7506 57.0785 85.583 55.9244C82.8368 54.4155 80.8947 51.9839 78.8239 49.4004C76.7553 46.8347 74.5485 44.1143 71.1344 42.4028C69.0541 41.3492 66.7559 40.7977 64.424 40.7925C61.1045 40.8395 57.876 41.8841 55.1582 43.7906C51.9197 46.0759 49.2347 49.0581 47.3008 52.518C47.1404 52.7917 47.0954 53.118 47.1756 53.425C47.2558 53.732 47.4547 53.9945 47.7284 54.1549C48.0022 54.3152 48.3285 54.3603 48.6355 54.2801C48.9425 54.1999 49.205 54.001 49.3654 53.7272C51.1187 50.577 53.5553 47.8595 56.4962 45.7741C58.8186 44.1342 61.5813 43.232 64.424 43.1851C66.3844 43.1901 68.3164 43.6551 70.0644 44.5428C71.9061 45.5168 73.544 46.8347 74.8896 48.4252C77.0109 50.7755 78.8605 53.6093 81.4902 55.933C82.8645 57.1665 84.4452 58.1486 86.1599 58.8343C88.227 59.6204 90.4247 60.0064 92.6359 59.9719C95.6932 59.9845 98.6931 59.142 101.297 57.5396C104.932 55.3481 107.698 52.1538 110.624 49.4397C112.021 48.0891 113.557 46.8896 115.206 45.8609C116.871 44.8418 118.721 44.1629 120.65 43.8633C121.517 43.7307 122.392 43.6636 123.269 43.6629C126.279 43.6582 129.231 44.4908 131.794 46.0674C134.707 47.9134 137.126 50.4419 138.841 53.4338C138.922 53.5685 139.028 53.686 139.155 53.7795C139.281 53.8731 139.424 53.9408 139.577 53.979C139.729 54.0171 139.888 54.0248 140.043 54.0017C140.198 53.9786 140.348 53.9251 140.482 53.8443C140.617 53.7635 140.735 53.6569 140.828 53.5307C140.922 53.4045 140.989 53.261 141.028 53.1086C141.066 52.9562 141.073 52.7978 141.05 52.6424C141.027 52.487 140.974 52.3377 140.893 52.203L140.893 52.2029Z"/><path id="Vector_14" d="M127.208 134.744L127.206 134.746L127.205 134.747L127.208 134.744Z"/><path id="Vector_15" d="M130.496 130.329L130.495 130.33L130.494 130.331L130.496 130.329Z"/><path id="Vector_16" d="M138.737 127.408C138.744 127.251 138.721 127.093 138.668 126.945C138.616 126.797 138.534 126.661 138.428 126.545C138.323 126.428 138.195 126.333 138.053 126.266C137.911 126.199 137.757 126.161 137.6 126.153C137.443 126.145 137.286 126.169 137.138 126.222C136.99 126.275 136.854 126.357 136.738 126.462C136.621 126.568 136.527 126.696 136.46 126.838C136.393 126.98 136.354 127.134 136.347 127.291C136.198 129.639 135.459 131.912 134.199 133.899C133.504 135.02 132.711 136.078 131.831 137.06C131.731 136.94 131.631 136.821 131.522 136.713C130.692 135.933 129.681 135.371 128.58 135.077C128.12 134.945 127.651 134.844 127.176 134.775L127.206 134.746C128.526 133.454 129.636 131.964 130.495 130.329C131.012 129.308 131.314 128.193 131.383 127.051L131.373 127.05C131.374 127.029 131.385 127.012 131.385 126.991C131.385 126.834 131.354 126.679 131.294 126.533C131.234 126.388 131.146 126.256 131.035 126.145C130.924 126.034 130.792 125.946 130.647 125.886C130.502 125.826 130.346 125.795 130.189 125.795V125.795H130.189C129.881 125.794 129.586 125.912 129.363 126.124C129.141 126.336 129.008 126.625 128.994 126.932C128.94 127.753 128.719 128.554 128.342 129.285L128.341 129.288C127.593 130.689 126.632 131.967 125.494 133.075L125.491 133.078C124.9 133.687 124.284 134.268 123.689 134.827C123.679 134.837 123.676 134.85 123.666 134.859C122.929 135.02 122.259 135.403 121.746 135.955C121.638 136.081 121.542 136.216 121.459 136.359C121.01 136.507 120.582 136.714 120.187 136.975C119.257 137.623 118.439 138.419 117.766 139.332C117.052 140.272 116.43 141.278 115.91 142.337C115.319 143.597 114.899 144.931 114.661 146.303C114.412 147.63 114.284 148.977 114.278 150.327C114.274 150.94 114.311 151.553 114.389 152.162C114.446 152.675 114.578 153.178 114.781 153.653C115.09 154.353 115.571 154.965 116.178 155.431C116.774 155.887 117.514 156.113 118.263 156.067C119.011 156.022 119.718 155.708 120.255 155.184C120.595 155.742 121.048 156.225 121.584 156.6C122.14 156.981 122.798 157.187 123.473 157.191C124.36 157.174 125.21 156.827 125.855 156.217C126.5 155.608 126.895 154.78 126.962 153.894C127.242 154.163 127.556 154.392 127.897 154.577C128.278 154.78 128.695 154.907 129.125 154.948C129.555 154.99 129.989 154.946 130.402 154.819C130.753 154.716 131.079 154.541 131.36 154.307C131.751 153.971 132.039 153.532 132.193 153.041C132.332 152.594 132.399 152.127 132.392 151.659C132.355 150.598 132.175 149.547 131.857 148.535C131.634 147.758 131.375 147.006 131.141 146.35C131.973 145.154 132.421 143.732 132.426 142.275C132.426 141.87 132.39 141.467 132.319 141.069C132.647 140.609 132.825 140.06 132.83 139.496C132.83 139.479 132.823 139.46 132.823 139.443C132.908 139.397 132.986 139.341 133.057 139.275L133.057 139.275C134.255 138.009 135.321 136.626 136.241 135.145C137.71 132.817 138.569 130.156 138.737 127.408ZM129.878 152.396L129.818 152.477L129.714 152.527C129.624 152.556 129.531 152.57 129.437 152.571C129.284 152.569 129.134 152.528 129.001 152.454C128.598 152.208 128.257 151.873 128.003 151.475C127.486 150.696 127.069 149.856 126.76 148.973C126.615 148.578 126.505 148.231 126.433 147.987C126.397 147.865 126.37 147.769 126.352 147.704L126.333 147.633L126.329 147.616C126.254 147.316 126.066 147.058 125.805 146.893C125.544 146.729 125.23 146.672 124.927 146.734C124.625 146.796 124.359 146.973 124.183 147.227C124.008 147.481 123.938 147.792 123.987 148.097C123.987 148.097 124.024 148.327 124.081 148.709C124.167 149.281 124.295 150.188 124.401 151.121C124.506 151.962 124.569 152.808 124.588 153.656L124.588 153.724V153.719C124.569 153.997 124.446 154.259 124.242 154.449C124.041 154.661 123.765 154.787 123.473 154.798C123.272 154.795 123.078 154.73 122.915 154.612C122.594 154.375 122.332 154.065 122.151 153.709C121.554 152.469 121.276 151.099 121.343 149.725C121.347 148.918 121.403 148.113 121.511 147.313C121.55 147 121.463 146.683 121.27 146.433C121.077 146.183 120.792 146.02 120.479 145.979C120.165 145.938 119.848 146.023 119.597 146.214C119.346 146.406 119.181 146.69 119.138 147.003C119.017 147.905 118.954 148.814 118.951 149.725C118.954 150.435 119.009 151.144 119.115 151.846C119.116 151.878 119.103 151.906 119.106 151.938L119.106 151.938C119.114 152.022 119.117 152.103 119.117 152.181C119.134 152.603 118.998 153.017 118.732 153.346C118.654 153.446 118.556 153.527 118.443 153.585C118.331 153.642 118.208 153.675 118.082 153.681C117.904 153.676 117.732 153.614 117.594 153.503C117.31 153.273 117.088 152.976 116.948 152.639C116.851 152.381 116.787 152.111 116.759 151.837C116.696 151.336 116.666 150.832 116.67 150.327C116.676 149.125 116.791 147.926 117.013 146.745C117.211 145.588 117.561 144.462 118.054 143.397C118.641 142.187 119.39 141.063 120.279 140.054C120.641 139.646 121.051 139.283 121.501 138.975C121.794 138.765 122.131 138.624 122.486 138.561C122.736 138.527 122.969 138.415 123.151 138.24C123.333 138.065 123.455 137.836 123.498 137.587L123.508 137.591C123.512 137.591 123.52 137.535 123.651 137.432C123.963 137.227 124.324 137.108 124.697 137.086C124.969 137.053 125.244 137.038 125.518 137.039C126.596 137.032 127.664 137.238 128.661 137.645C129.095 137.826 129.493 138.085 129.833 138.408C130.12 138.685 130.326 139.036 130.427 139.422L130.437 139.496C130.431 139.575 130.401 139.651 130.351 139.713L130.271 139.806L130.257 139.82L130.26 139.823C130.07 139.977 129.932 140.185 129.865 140.42C129.798 140.655 129.805 140.905 129.884 141.136L129.883 141.136L129.888 141.152C129.988 141.518 130.037 141.896 130.033 142.275C130.029 143.419 129.618 144.524 128.874 145.392C128.743 145.552 128.656 145.744 128.62 145.948C128.585 146.152 128.603 146.362 128.673 146.557C128.953 147.335 129.293 148.272 129.557 149.194C129.811 149.993 129.96 150.821 130 151.659C130.014 151.91 129.973 152.162 129.878 152.396Z"/><path id="Vector_17" d="M177.006 111.971C177.162 111.951 177.312 111.9 177.449 111.821C177.585 111.743 177.704 111.638 177.8 111.513C177.896 111.388 177.966 111.246 178.007 111.094C178.047 110.941 178.057 110.783 178.037 110.627C178.016 110.471 177.964 110.321 177.885 110.184C177.806 110.048 177.701 109.929 177.576 109.834C177.451 109.738 177.308 109.669 177.156 109.628C177.004 109.588 176.845 109.579 176.689 109.6L176.609 109.61C176.292 109.65 175.07 109.789 173.583 109.85C173.579 108.974 173.554 108.159 173.501 107.489C175.568 107.368 177.105 107.122 177.132 107.118C177.288 107.094 177.437 107.039 177.571 106.956C177.704 106.874 177.821 106.766 177.913 106.639C178.005 106.511 178.072 106.367 178.108 106.214C178.144 106.061 178.15 105.902 178.125 105.747C178.1 105.592 178.045 105.443 177.962 105.309C177.88 105.175 177.772 105.059 177.644 104.967C177.517 104.875 177.372 104.809 177.219 104.773C177.066 104.737 176.908 104.731 176.752 104.756L176.679 104.768C175.349 104.959 174.011 105.082 172.669 105.136C172.599 105.146 172.531 105.162 172.465 105.185C172.333 105.131 172.191 105.101 172.048 105.096C169.553 105.024 167.097 104.467 164.815 103.455C161.521 102.054 158.474 99.9199 154.815 98.0628C153.535 97.4114 152.217 96.8386 150.868 96.3477C151.426 93.632 151.708 90.8666 151.708 88.0941C151.731 81.0421 150.062 74.0874 146.84 67.8141C146.695 67.5322 146.443 67.3196 146.141 67.2231C145.839 67.1267 145.51 67.1542 145.228 67.2998C144.947 67.4453 144.734 67.6968 144.637 67.9991C144.541 68.3013 144.569 68.6295 144.714 68.9115L144.714 68.9114C147.761 74.8454 149.338 81.4238 149.315 88.0941C149.314 90.6195 149.065 93.1386 148.572 95.6153C146.169 94.9632 143.694 94.6191 141.205 94.5913C141.048 94.5889 140.892 94.6175 140.746 94.6754C140.6 94.7333 140.467 94.8194 140.354 94.9287C140.241 95.0381 140.151 95.1686 140.089 95.3128C140.026 95.457 139.993 95.6121 139.991 95.7692C139.988 95.9263 140.017 96.0823 140.075 96.2283C140.133 96.3744 140.219 96.5076 140.328 96.6204C140.437 96.7331 140.568 96.8233 140.712 96.8856C140.856 96.9479 141.011 96.9813 141.168 96.9837L141.168 96.9836C144.217 97.0106 147.238 97.5589 150.101 98.6047C153.935 99.9996 157.066 102.094 160.418 103.943C163.666 105.899 167.317 107.091 171.093 107.43C171.156 108.053 171.193 109.011 171.192 110.05C171.192 111.359 171.139 112.792 171.043 113.859C171.019 114.134 170.99 114.384 170.961 114.597C164.075 113.943 158.859 111.208 153.751 108.468C151.137 106.99 148.434 105.678 145.656 104.539C142.748 103.373 139.648 102.761 136.515 102.736C135.898 102.736 135.268 102.762 134.627 102.812C134.47 102.825 134.318 102.868 134.178 102.94C134.038 103.011 133.914 103.11 133.812 103.229C133.606 103.471 133.505 103.784 133.53 104.101C133.556 104.417 133.706 104.71 133.947 104.916C134.189 105.121 134.502 105.223 134.818 105.197C135.396 105.151 135.961 105.128 136.515 105.129C139.248 105.151 141.953 105.671 144.499 106.663C140.332 113.888 134.146 119.738 126.701 123.495C118.6 127.74 108.543 130.225 96.9293 130.225C81.0174 130.226 68.3566 126.517 59.6646 120.059C55.464 117 52.0272 113.012 49.6223 108.405C47.3076 103.822 46.0347 98.7837 45.8948 93.6511C46.1747 93.6094 46.4305 93.4691 46.6162 93.2556C46.8018 93.042 46.9051 92.7691 46.9075 92.4862C46.9099 92.2032 46.8111 91.9286 46.629 91.712C46.4469 91.4954 46.1935 91.3509 45.9143 91.3045C39.1127 90.1537 32.5086 88.0441 26.2994 85.0387C23.8081 83.8458 21.5149 82.2773 19.4998 80.3881C18.7712 79.6808 18.1561 78.8652 17.6761 77.9703C17.2947 77.26 17.0889 76.4687 17.0761 75.6626C17.0844 74.8921 17.2803 74.1353 17.6468 73.4575C18.1605 72.4438 18.9971 71.6301 20.0246 71.1446C21.2465 70.5984 22.576 70.3355 23.9138 70.3756C26.7383 70.4761 29.5227 71.076 32.1381 72.1473C35.3709 73.4084 38.4548 75.0219 41.3341 76.9586C41.5982 77.1322 41.9203 77.1942 42.23 77.131C42.5397 77.0678 42.8118 76.8847 42.9869 76.6216C43.162 76.3584 43.2259 76.0367 43.1645 75.7266C43.1032 75.4166 42.9216 75.1434 42.6595 74.9668V74.9667C39.6317 72.9309 36.3886 71.2355 32.9889 69.9111C30.1023 68.7347 27.0294 68.0818 23.9139 67.983C22.213 67.9417 20.5249 68.2873 18.977 68.9936C17.4873 69.706 16.2731 70.8884 15.5215 72.3588C14.9797 73.3763 14.6922 74.5098 14.6836 75.6626C14.6964 76.8466 14.9917 78.0104 15.5449 79.0573C16.6898 81.0755 18.2795 82.8063 20.1931 84.1186C23.7717 86.6088 27.6781 88.5909 31.801 90.0085C35.6072 91.3836 39.5112 92.4716 43.4801 93.2632C43.574 98.9098 44.9469 104.462 47.4955 109.501C51.2439 116.78 57.5268 122.584 65.8946 126.535C74.2653 130.49 84.7215 132.616 96.9293 132.617C108.883 132.617 119.328 130.06 127.811 125.614C132.91 122.984 137.492 119.453 141.334 115.192C142.974 115.756 144.486 116.64 145.781 117.793C148.347 119.903 151.05 122.964 154.439 125.958C158.168 129.393 162.567 132.018 167.36 133.667C167.451 133.69 167.544 133.702 167.638 133.702C167.737 133.788 167.849 133.858 167.971 133.907L167.971 133.907C169.509 134.474 171.091 134.912 172.702 135.215C172.858 135.242 173.017 135.238 173.17 135.203C173.324 135.169 173.469 135.104 173.598 135.013C173.727 134.922 173.836 134.806 173.92 134.672C174.004 134.539 174.06 134.39 174.086 134.235C174.112 134.079 174.107 133.92 174.072 133.767C174.036 133.613 173.971 133.468 173.879 133.34C173.787 133.212 173.671 133.103 173.537 133.02C173.403 132.937 173.254 132.881 173.098 132.856L173.084 132.853C171.782 132.601 170.5 132.255 169.248 131.818C169.468 131.173 169.754 130.321 170.028 129.46C171.23 129.825 172.451 130.121 173.686 130.349C173.999 130.401 174.318 130.326 174.576 130.143C174.833 129.959 175.007 129.68 175.06 129.369C175.113 129.057 175.04 128.737 174.857 128.478C174.675 128.22 174.397 128.045 174.086 127.99L174.011 127.977C172.898 127.765 171.796 127.494 170.71 127.167C170.951 126.273 171.155 125.407 171.304 124.731C173.21 125.233 174.647 125.479 174.671 125.484C174.826 125.511 174.985 125.508 175.139 125.474C175.293 125.44 175.439 125.375 175.568 125.285C175.697 125.194 175.807 125.078 175.892 124.945C175.976 124.812 176.033 124.663 176.06 124.507C176.086 124.352 176.082 124.193 176.047 124.039C176.011 123.885 175.946 123.74 175.854 123.611C175.763 123.483 175.647 123.374 175.513 123.29C175.379 123.207 175.23 123.151 175.074 123.125L174.998 123.112C174.629 123.046 172.954 122.73 171.001 122.166C170.995 122.164 170.989 122.166 170.983 122.165C170.937 122.132 170.889 122.103 170.839 122.077L170.826 122.072C166.553 120.297 162.645 117.749 159.297 114.556C158.923 114.174 158.552 113.791 158.181 113.409C162.42 115.47 167.01 116.71 171.71 117.064L171.789 117.066H171.794C171.924 117.065 172.054 117.043 172.177 117C172.2 117.002 172.218 117.014 172.241 117.015L172.241 117.015C172.489 117.021 172.734 117.024 172.976 117.024C175.067 117.023 176.858 116.825 176.884 116.822C177.198 116.786 177.485 116.627 177.682 116.38C177.879 116.133 177.971 115.817 177.936 115.503C177.901 115.189 177.744 114.901 177.497 114.702C177.251 114.504 176.936 114.411 176.622 114.444L176.552 114.452C176.239 114.484 174.904 114.608 173.367 114.627C173.446 113.946 173.502 113.12 173.537 112.246C175.473 112.174 176.981 111.974 177.006 111.971ZM169.035 123.906C168.862 124.711 168.585 125.918 168.256 127.07C167.974 128.059 167.56 129.333 167.218 130.351C167.143 130.576 167.073 130.783 167.006 130.978C160.925 128.698 156.641 124.898 152.931 121.269C150.964 119.347 149.162 117.481 147.303 115.947C146.005 114.827 144.544 113.912 142.969 113.234C144.374 111.458 145.631 109.568 146.727 107.585C148.171 108.235 149.611 108.973 151.076 109.752C151.105 109.796 151.137 109.839 151.172 109.879C153.293 111.756 155.383 113.974 157.586 116.229C160.916 119.447 164.793 122.047 169.035 123.906Z"/><path id="Vector_18" d="M135.702 48.9198C141.618 56.4902 144.801 65.8391 144.731 75.4468C144.756 81.1123 143.552 86.7157 141.201 91.8704C138.85 97.0251 135.409 101.608 131.114 105.304C122.377 112.959 109.749 117.745 94.2216 117.747C78.6943 117.745 66.0663 112.959 57.3286 105.304C53.0342 101.608 49.5927 97.0251 47.2418 91.8704C44.891 86.7157 43.6866 81.1123 43.712 75.4469C43.6441 65.9219 46.7706 56.649 52.5921 49.1098C52.7837 48.8592 52.8686 48.5431 52.8283 48.2302C52.788 47.9173 52.6257 47.633 52.3768 47.4392C52.1279 47.2454 51.8125 47.1577 51.4993 47.1953C51.1861 47.2329 50.9004 47.3927 50.7044 47.6399C44.556 55.5994 41.2518 65.3894 41.3194 75.4469C41.2949 81.4529 42.5725 87.3928 45.064 92.8577C47.5555 98.3226 51.2018 103.183 55.7519 107.103C64.9816 115.19 78.2064 120.141 94.2216 120.139C110.236 120.141 123.461 115.19 132.691 107.103C137.241 103.183 140.888 98.3227 143.379 92.8578C145.871 87.3929 147.148 81.4529 147.124 75.4468C147.193 65.3018 143.83 55.4315 137.581 47.439C137.484 47.3148 137.364 47.211 137.227 47.1335C137.089 47.0561 136.938 47.0065 136.782 46.9876C136.625 46.9687 136.467 46.9809 136.315 47.0235C136.163 47.0661 136.022 47.1382 135.898 47.2357C135.774 47.3333 135.671 47.4543 135.594 47.5918C135.517 47.7293 135.468 47.8807 135.45 48.0372C135.432 48.1937 135.445 48.3522 135.488 48.5037C135.531 48.6552 135.604 48.7966 135.702 48.9199L135.702 48.9198Z"/></g></g></svg>