<svg xmlns="http://www.w3.org/2000/svg" width="200" height="200" fill="none"><path fill="#FFD93A" d="M145.745 104.128s-19 11.834-34.5 7.167l4.167 5.667s-28.333 6.333-38.5-4.667l1.667 6s-22.48-3.651-29.643-15.686a66.938 66.938 0 0 0-.153 4.317c0 29.859 21.6 54.065 55.386 54.065 33.787 0 55.386-24.206 55.386-54.065a64.627 64.627 0 0 0-2.027-16.178c-4.648 4.616-10.817 9.102-18.116 10.547l6.333 2.833Zm-12.148 37.623c-2.155-.512-6.543.931-8.379.151-1.835-.779-3.226-1.832-5.289-1.389a2.952 2.952 0 0 1-2.45-.315 2.958 2.958 0 0 1-.902-.887 2.972 2.972 0 0 1-.446-1.184c-.342-1.734 2.753-2.399 4.98-2.099 2.227.299 3.105-.456 3.105-.456s.206-.846-.78-2.922-5.457-.131-6.144-2.554c-.513-1.808 1.716-3.053 4.132-3.932 2.415-.879 3.258.871 3.258.871s.23-.388 3.145-.5c2.915-.113 2.383 2.461 2.383 2.461a10.043 10.043 0 0 1 4.314-.479c2.517.243 3.153 5.967 3.851 8.893.697 2.925-2.623 4.853-4.778 4.341Z"/><path fill="#191C22" d="M189.573 99.47a22.105 22.105 0 0 0-3.943.467l-.375-2.145c.453-.121.893-.227 1.294-.306a21.629 21.629 0 0 1 2.156-.319l.118-.01.031-.002a1.303 1.303 0 0 0 1.151-.873 1.284 1.284 0 0 0-.06-.994 1.3 1.3 0 0 0-1.249-.728c-.893.07-1.78.196-2.657.376-.386.078-.8.17-1.233.28l-.371-2.123c.696-.19 1.402-.342 2.114-.455a22.9 22.9 0 0 1 1.528-.187l.085-.007.022-.001a1.298 1.298 0 0 0 1.089-1.874 1.304 1.304 0 0 0-1.257-.72c-1.022.08-2.038.225-3.041.435-.734.155-1.458.357-2.167.602a22.76 22.76 0 0 0-2.978.96c-1.786.712-3.156 1.412-4.184 1.813a9.384 9.384 0 0 1-1.275.423c-.278.07-.562.107-.848.11a3.493 3.493 0 0 1-1.301-.274 10.851 10.851 0 0 1-2.604-1.555 24.142 24.142 0 0 0-4.656-2.864 15.668 15.668 0 0 0-3.466-1.098 65.714 65.714 0 0 0 2.295-2.797 57.022 57.022 0 0 0 4.424-6.51 1.297 1.297 0 0 0-.893-1.91l-3.865-.735a91.081 91.081 0 0 0 6.753-5.182c5.074-4.302 10.906-10.214 13.892-16.947a1.306 1.306 0 0 0-.083-1.207 1.297 1.297 0 0 0-1.041-.616 75.556 75.556 0 0 1-17.543-3.279 91.288 91.288 0 0 1-5.671-1.92l2.241-1.614a1.301 1.301 0 0 0-.046-2.142c-8.577-5.632-18.675-11.435-22.972-13.865l3.022-1.56a1.3 1.3 0 0 0-.004-2.312c-6.578-3.366-14.451-5.041-20.915-5.909a105.713 105.713 0 0 0-9.93-.848l1.621-2.133a1.298 1.298 0 0 0-.276-1.842 1.297 1.297 0 0 0-.64-.239 49.978 49.978 0 0 0-4.573-.204 74.419 74.419 0 0 0-20.27 3.151 87.326 87.326 0 0 0-6.664 2.227l.66-3.11a1.299 1.299 0 0 0-1.747-1.48 71.189 71.189 0 0 0-25.326 16.87l-.066-2.198a1.3 1.3 0 0 0-1.926-1.1 30.441 30.441 0 0 0-5.819 4.516 36.302 36.302 0 0 0-9.117 14.197 30.42 30.42 0 0 0-1.688 10.003c.006 3.082.46 6.147 1.348 9.098a17.249 17.249 0 0 1-3.138-.876 23.026 23.026 0 0 1-5.362-2.85 23.77 23.77 0 0 0-6.305-3.183 19.7 19.7 0 0 0-5.991-1.128 5.877 5.877 0 0 0-2.752.55 3.383 3.383 0 0 0-1.262 1.112c-.282.431-.43.934-.43 1.448.021.69.24 1.357.63 1.925.173.268.371.518.593.746a1.303 1.303 0 0 0 1.01.378 37.441 37.441 0 0 1 2.646-.097 25.58 25.58 0 0 1 12.157 2.889c1.568.75 3.083 1.544 4.777 2.184 1.621.617 3.322.998 5.052 1.133a49.775 49.775 0 0 0-.87 9.34 64.506 64.506 0 0 0 5.05 24.465 1.3 1.3 0 0 0 2.303.11l2.068-3.545c.23.522.482 1.033.761 1.526a68.225 68.225 0 0 0-.13 3.996c0 2.055.108 4.082.305 6.08a3.97 3.97 0 0 0-1.625 2.339 21.088 21.088 0 0 1-3.816 7.908 16.336 16.336 0 0 1-2.851 2.847 16.878 16.878 0 0 0-2.766-2.618 10.561 10.561 0 0 0-2.154-1.247 5.645 5.645 0 0 0-2.16-.483 3.46 3.46 0 0 0-1.418.288 8.945 8.945 0 0 0-2.773 1.976 7.029 7.029 0 0 0-.601.741 1.282 1.282 0 0 0-.232.024c-1.09.307-2.145.73-3.145 1.264a6.942 6.942 0 0 0-2.46 2.288v.001a3.196 3.196 0 0 0-.56 1.736c0 .51.152 1.008.437 1.43.046.067.1.121.15.182-.276.29-.539.578-.77.873-.261.326-.483.68-.66 1.057-.19.406-.292.848-.296 1.297.01.657.233 1.293.635 1.813.29.397.677.712 1.124.916.405.18.845.272 1.288.268a4.742 4.742 0 0 0 3.672-1.949c.24.306.498.598.771.876a7.837 7.837 0 0 0 1.8 1.376 5.36 5.36 0 0 0 2.562.679 5.107 5.107 0 0 0 1.7-.295h.002a.877.877 0 0 1 .3-.05c.205.008.407.044.602.109 1.223.525 2.527.839 3.855.929.435-.001.87-.043 1.297-.127a4.723 4.723 0 0 0 2.285-1.105 9.944 9.944 0 0 0 1.623-2.144c.136-.218.3-.416.488-.59.146-.127.32-.216.51-.258a6.45 6.45 0 0 0 3.073-1.565 3.603 3.603 0 0 0 1.13-2.566 3.451 3.451 0 0 0-.844-2.233 27.35 27.35 0 0 0 2.462-3.357l.024-.044a52.833 52.833 0 0 0 12.432 20.474c.378.385.774.753 1.165 1.126a25.167 25.167 0 0 0-3.158 3.505 27.7 27.7 0 0 0-4.497 9.472c-.017.064-.029.122-.045.185-.772.215-1.517.519-2.218.906a11.465 11.465 0 0 0-4.592 5.092 14.694 14.694 0 0 0-1.042 2.842 8.456 8.456 0 0 0-3.205 4.097 22.097 22.097 0 0 0-1.662 7.803 10.907 10.907 0 0 0 1.964 6.515 12.841 12.841 0 0 0 5.126 4.042 15.194 15.194 0 0 0 6.415 1.516 10.997 10.997 0 0 0 10.149-6.33 28.278 28.278 0 0 0 2.1-6.531c.525-2.508.798-5.061.817-7.623a21.618 21.618 0 0 0-.472-4.759 8.698 8.698 0 0 0-1.716-3.752 12.458 12.458 0 0 0-3.612-2.891c.143-.462.302-.939.5-1.439a18.95 18.95 0 0 1 2.52-4.519 17.185 17.185 0 0 1 2.93-2.998c9.089 6.283 20.563 9.969 33.822 9.965 13.397.004 24.969-3.759 34.101-10.161a69.317 69.317 0 0 0-.724 9.589 8.95 8.95 0 0 0-3.983 3.222 17.662 17.662 0 0 0-2.494 5.913 1.215 1.215 0 0 0-.015.307c-.23.199-.458.402-.674.627a6.683 6.683 0 0 0-1.202 1.882 16.391 16.391 0 0 0-1.1 3.781 25.714 25.714 0 0 0-.386 4.457 17.533 17.533 0 0 0 1.336 7.219 9.916 9.916 0 0 0 4.687 4.492 15.55 15.55 0 0 0 6.84 1.559 14.268 14.268 0 0 0 5.971-1.257c1.586-.75 2.95-1.9 3.956-3.336a18.62 18.62 0 0 0 2.891-7.196c.462-2.412.694-4.862.693-7.318l.001-.181c.079-3.091-.55-6.16-1.841-8.97a10.817 10.817 0 0 0-2.931-3.667 9.97 9.97 0 0 0-3.743-1.808c.035-3.25.322-6.493.86-9.699a54.046 54.046 0 0 1 2.094-8.53c.087-.25.148-.508.183-.77a54.565 54.565 0 0 0 11.568-26.959c.126.126.25.257.378.378a15.592 15.592 0 0 0 5.197 3.316c1.69.629 3.481.945 5.284.932a29.208 29.208 0 0 0 5.394-.635l.195-.035c.04-.004.078.008.119.001.916-.169 1.846-.25 2.777-.244a21.207 21.207 0 0 1 4.382.473l.06.014.013.003a1.298 1.298 0 0 0 1.565-.952 1.298 1.298 0 0 0-.941-1.572 23.099 23.099 0 0 0-3.883-.53l.295-2.252c.784.035 1.566.112 2.342.23a18.461 18.461 0 0 1 1.209.224l.06.014.013.003a1.299 1.299 0 0 0 .624-2.524 23.186 23.186 0 0 0-3.909-.532l.28-2.141c.824.031 1.645.112 2.459.244.401.065.736.13.967.178.116.024.205.044.264.057l.066.015.016.004a1.3 1.3 0 0 0 .613-2.527 23.255 23.255 0 0 0-4.839-.584c-.216.002-.435.012-.654.022a17.634 17.634 0 0 0-.786-.024c-1.846.04-3.684.253-5.49.635-1.056.236-2.13.382-3.211.435a3.47 3.47 0 0 1-.767-.074 2.504 2.504 0 0 1-.97-.474 8.908 8.908 0 0 1-1.891-2.069c-.199-.279-.414-.556-.623-.834.344.158.689.317 1.037.451a15.522 15.522 0 0 0 5.621 1.079 16.078 16.078 0 0 0 4.68-.721 40.364 40.364 0 0 0 4.859-1.965c.62-.279 1.163-.502 1.649-.675.786-.226 1.586-.4 2.394-.523a22.128 22.128 0 0 1 2.331-.233l.131-.004h.035a1.302 1.302 0 0 0 1.285-1.315 1.298 1.298 0 0 0-1.314-1.285ZM16.316 62.23c-.677 0-1.39.026-2.122.065a1.033 1.033 0 0 1-.156-.417l.008-.03a.855.855 0 0 1 .316-.24 3.576 3.576 0 0 1 1.52-.24c1.76.065 3.501.4 5.16.992.365.123.732.267 1.098.41a29.843 29.843 0 0 0-5.824-.54Zm7.654 67.52a4.302 4.302 0 0 1 1.542-1.43l.023-.014a9.13 9.13 0 0 1 1.31-.593c.044.201.109.396.195.583.126.268.282.521.464.754a8.599 8.599 0 0 1-1.727 1.227v.001a1.72 1.72 0 0 1-.762.153 2.125 2.125 0 0 1-1.03-.247l-.006-.004a.534.534 0 0 1-.149-.121.706.706 0 0 1 .14-.309Zm.727 4.706a1.929 1.929 0 0 1-.65.565 1.978 1.978 0 0 1-.91.287.522.522 0 0 1-.215-.036l-.106-.092c-.136-.194-.122-.233-.127-.269a.552.552 0 0 1 .064-.222 3.9 3.9 0 0 1 .64-.889c.222-.25.506-.538.813-.843a5.1 5.1 0 0 0 .809.074c.096 0 .193-.009.29-.015-.157.498-.36.981-.608 1.44Zm21.152-2.511a3.93 3.93 0 0 1-1.858.887 3.841 3.841 0 0 0-1.968 1.178 7.7 7.7 0 0 0-.804 1.098 6.83 6.83 0 0 1-.868 1.209 2.074 2.074 0 0 1-1.15.587 4.217 4.217 0 0 1-.801.079 5.744 5.744 0 0 1-2.019-.441c-.343-.124-.7-.263-1.099-.382a4.718 4.718 0 0 0-1.34-.215 3.475 3.475 0 0 0-1.16.196h.001c-.27.097-.555.148-.842.149a2.76 2.76 0 0 1-1.323-.365 5.955 5.955 0 0 1-1.665-1.445 7.979 7.979 0 0 1-.477-.643l-.117-.184-.026-.042-.004-.007v.001a1.289 1.289 0 0 0-.353-.396c.211-.692.337-1.215.342-1.233.012-.082.015-.166.01-.248.55-.403 1.063-.852 1.534-1.344.15.017.302.025.454.025a6.583 6.583 0 0 0 2.977-.842 9.561 9.561 0 0 0 1.137-.707c.299-.212.579-.451.836-.713a1.29 1.29 0 0 0 .363-.931 1.303 1.303 0 0 0-.835-1.185 1.304 1.304 0 0 0-1.413.326v-.001a3.72 3.72 0 0 1-.479.4 6.844 6.844 0 0 1-1.293.736 3.471 3.471 0 0 1-1.293.317.99.99 0 0 1-.525-.12 1.035 1.035 0 0 1-.394-.491l-.02-.105c.014-.176.067-.347.157-.499.263-.46.607-.867 1.015-1.204a6.375 6.375 0 0 1 1.512-.975.866.866 0 0 1 .357-.061c.4.019.793.115 1.157.282a9.405 9.405 0 0 1 2.502 1.66 16.453 16.453 0 0 1 2.612 2.995c.249.364.468.705.66 1.011l-.037.007c-.897.1-1.781.286-2.642.556a4.272 4.272 0 0 0-1.475.908 4.099 4.099 0 0 0-1.041 1.699 1.3 1.3 0 0 0 2.47.812c.083-.31.272-.582.533-.767.218-.143.458-.247.71-.31a15.686 15.686 0 0 1 1.68-.301 5.376 5.376 0 0 0 2.051-.666c.714-.458 1.337-1.012 1.938-1.416.26-.184.537-.34.828-.467a1.68 1.68 0 0 1 .64-.147c.238.004.47.075.67.205h.001a.98.98 0 0 1 .53.813 1.006 1.006 0 0 1-.356.717Zm6.09 35.415a8.821 8.821 0 0 1 3.454-3.827c.117-.065.239-.112.358-.171-.026.189-.046.358-.064.514a74.365 74.365 0 0 0-1.746 3.747 11.8 11.8 0 0 0-2.241.24c.073-.164.152-.332.238-.503Zm14.099-1.491a6.22 6.22 0 0 1 1.153 2.638c.288 1.374.424 2.775.406 4.178 0 1.012-.064 2.07-.169 3.134a37.804 37.804 0 0 1-.595 3.961 25.81 25.81 0 0 1-1.885 5.91 8.396 8.396 0 0 1-7.817 4.879 12.603 12.603 0 0 1-5.313-1.271 10.257 10.257 0 0 1-4.115-3.202 8.293 8.293 0 0 1-1.477-5 19.56 19.56 0 0 1 1.49-6.874 5.795 5.795 0 0 1 2.539-3.096 7.69 7.69 0 0 1 3.863-.912c2.09.045 4.15.52 6.05 1.395.855.378 1.67.842 2.431 1.383.56.385 1.057.855 1.47 1.394a1.3 1.3 0 0 0 1.813.308 1.314 1.314 0 0 0 .309-1.812 7.756 7.756 0 0 0-1.21-1.304c.117-1.161.197-2.31.198-3.399 0-.742-.028-1.459-.09-2.151a16.23 16.23 0 0 0-.168-1.257c.4.337.773.704 1.117 1.098Zm63.674-37.644.485-.188.666-.257-.666.257-.546.212.061-.024Zm3.061 1.947a1.964 1.964 0 0 1 1.246-.482c.329.003.651.095.932.266.096.058.184.127.263.206-.092.26-.22.506-.381.73-.316.454-.662.887-1.037 1.294a.857.857 0 0 1-.333.23 1.285 1.285 0 0 1-.479.086 1.553 1.553 0 0 1-1.06-.401.446.446 0 0 1-.105-.335 2.278 2.278 0 0 1 .953-1.594l-.734-.926.735.926Zm-3.129-1.933a1.328 1.328 0 0 1-.355.518 5.596 5.596 0 0 1-1.671 1.097 4.742 4.742 0 0 1-1.748.454l-.195-.014-.048-.01-.01-.003a.92.92 0 0 1-.4-.284.359.359 0 0 1-.067-.224c.015-.217.089-.425.214-.602.219-.328.501-.61.83-.828a4.224 4.224 0 0 1 2.261-.787c.273-.011.544.05.786.178a.94.94 0 0 1 .403.502v.003Zm-6.478-.457a3.742 3.742 0 0 0-.616 1.991c0 .073.011.147.016.22a8.81 8.81 0 0 1-.459.162 5.431 5.431 0 0 1-1.524.29 1.031 1.031 0 0 1-.443-.069.993.993 0 0 1-.38-.339.736.736 0 0 1-.11-.398c.038-.439.235-.848.555-1.15a3.43 3.43 0 0 1 1.262-.757 5.476 5.476 0 0 1 1.86-.362c.057 0 .107.006.161.008a5 5 0 0 0-.322.404Zm1.672 9.664h.001c.523-.096 1.054-.15 1.586-.162.406-.007.811.053 1.198.179.409.141.781.371 1.091.673a1.297 1.297 0 0 0 1.832-.053 1.298 1.298 0 0 0-.042-1.832 5.54 5.54 0 0 0-2.04-1.249 6.246 6.246 0 0 0-2.039-.318c-.032 0-.06.005-.092.005a6.528 6.528 0 0 0-.389-1.788 6.514 6.514 0 0 0 1.926-.358c.47-.16.926-.357 1.365-.588.027.72.312 1.407.803 1.936a4.11 4.11 0 0 0 2.946 1.211c.494.002.985-.09 1.445-.272a3.473 3.473 0 0 0 1.304-.909 14.9 14.9 0 0 0 1.214-1.53c.093.275.181.565.259.887.271 1.208.459 2.432.561 3.666.017.175.025.342.025.501a3.174 3.174 0 0 1-.928 2.413 3.127 3.127 0 0 1-2.164.814c-.261 0-.521-.028-.777-.082a14.789 14.789 0 0 0-3.115-.383 14.52 14.52 0 0 0-3.766.602 1.365 1.365 0 0 1-.33.044 1.472 1.472 0 0 1-.615-.151 14.827 14.827 0 0 1-1.371-.821 5.857 5.857 0 0 0-.982-.485 3.676 3.676 0 0 0-1.278-.236 3.604 3.604 0 0 0-.795.091h.001a7.058 7.058 0 0 1-1.552.192 2.563 2.563 0 0 1-1.376-.298.523.523 0 0 1-.181-.187.633.633 0 0 1-.062-.306c.001-.085.009-.171.024-.256.027-.178.097-.348.205-.494.184-.227.429-.398.705-.495a2.953 2.953 0 0 1 1.035-.188c.195-.007.389.02.574.08l.001.001a4.322 4.322 0 0 0 1.825.397c.662-.03 1.32-.114 1.968-.251ZM47.354 97.01a1.305 1.305 0 0 0-1.314.63l-2.162 3.706a62.843 62.843 0 0 1-3.846-20.97c0-2.713.23-5.42.69-8.094a125.501 125.501 0 0 0 23.451 6.86c.007.025.001.05.01.075a78.127 78.127 0 0 0 9.168 17.578 1.3 1.3 0 0 0 2.124-1.5 74.799 74.799 0 0 1-6.632-11.607 73.85 73.85 0 0 1-1.658-3.869l-.05-.127a156.91 156.91 0 0 0 30.057 2.23c.037.057.079.11.125.16.01.008 8.752 7.504 14.058 11.547a1.3 1.3 0 0 0 1.576-2.068c-2.593-1.975-6.088-4.845-8.924-7.214a658.383 658.383 0 0 1-3.032-2.55 161.23 161.23 0 0 0 38.788-6.505 1.31 1.31 0 0 0 .778-.626 1.316 1.316 0 0 0 .106-.993 1.307 1.307 0 0 0-.631-.775 1.298 1.298 0 0 0-.994-.099c-1.301.387-2.598.747-3.894 1.096a154.657 154.657 0 0 1-15.142 3.294l3.358-3.708 5.262-5.813a1.305 1.305 0 0 0 .336-.938 1.294 1.294 0 0 0-.861-1.16 1.301 1.301 0 0 0-1.402.353l-6.734 7.438-4.038 4.46a159.051 159.051 0 0 1-22.071 1.54c-3.8 0-7.51-.142-11.124-.399 1.508-1.752 3.645-4.137 5.977-6.7 1.807-1.987 3.73-4.08 5.565-6.066a1859.81 1859.81 0 0 1 8.348-8.973l.738-.788a1.299 1.299 0 1 0-1.895-1.78c-.001.002-4.253 4.529-9.101 9.777a998.19 998.19 0 0 0-7.056 7.71c-2.353 2.604-4.4 4.916-5.648 6.425-.027.044-.05.09-.072.136a143.471 143.471 0 0 1-26.141-4.792c.704-.954 1.422-1.896 2.15-2.814 2.846-3.589 5.796-6.858 8.225-9.404a149.584 149.584 0 0 1 3.938-3.981 104.946 104.946 0 0 1 1.433-1.367l.1-.093a1.3 1.3 0 0 0-1.76-1.914A146.35 146.35 0 0 0 52.39 70.984a109.07 109.07 0 0 0-1.53 2.048c-.022.031-.026.068-.045.1-2.491-.77-4.854-1.588-7.09-2.453a98.415 98.415 0 0 1-3.302-1.33c-.01-.003-.02-.002-.03-.005a28.612 28.612 0 0 1-2.464-11.637 27.818 27.818 0 0 1 1.545-9.152 33.705 33.705 0 0 1 8.467-13.179 32.407 32.407 0 0 1 3.41-2.875l.095 3.167a1.3 1.3 0 0 0 2.333.75l.018-.024c.446-.577 8.674-10.897 24.164-17.617l-.654 3.082a1.3 1.3 0 0 0 1.801 1.457l.033-.014a76.703 76.703 0 0 1 9.105-3.167 71.381 71.381 0 0 1 19.046-2.905c.65 0 1.301.017 1.952.043l-1.7 2.236a1.298 1.298 0 0 0-.127 1.37 1.302 1.302 0 0 0 1.175.716h.111c4.029.044 8.051.337 12.043.879a69.172 69.172 0 0 1 17.728 4.542l-2.825 1.458a1.301 1.301 0 0 0-.033 2.292l.611.34c2.636 1.476 13.341 7.524 22.718 13.578l-2.626 1.89a1.305 1.305 0 0 0-.532 1.194 1.295 1.295 0 0 0 .774 1.053 82.472 82.472 0 0 0 8.12 2.885 80.797 80.797 0 0 0 16.219 3.246c-2.893 5.468-7.898 10.558-12.369 14.33a88.459 88.459 0 0 1-6.425 4.94 72.469 72.469 0 0 1-2.525 1.686l-.138.086-.042.026a1.302 1.302 0 0 0 .435 2.386l5.161.983a62.896 62.896 0 0 1-6.848 8.851c-4.684 5.044-11.252 10.259-18.989 11.78a1.294 1.294 0 0 0-1.039 1.129 1.296 1.296 0 0 0 .761 1.332l3.984 1.783a67.66 67.66 0 0 1-6.384 2.981c-4.837 1.962-11.161 3.844-17.393 3.839a25.86 25.86 0 0 1-7.469-1.034 1.303 1.303 0 0 0-1.674 1.257 1.3 1.3 0 0 0 .252.758l2.953 4.015a88.172 88.172 0 0 1-14.957 1.396 46.27 46.27 0 0 1-11.504-1.281 17.992 17.992 0 0 1-8.823-4.783 1.3 1.3 0 0 0-2.207 1.231l1.103 3.971a71.405 71.405 0 0 1-12.699-3.994 38.784 38.784 0 0 1-9.89-5.893 16.728 16.728 0 0 1-5.746-8.73 1.303 1.303 0 0 0-1.074-.987Zm3.231 9.886c8.587 11.896 25.034 18.889 47.416 18.889 17.284 0 31.376-5.242 41.043-13.664.305.104.619.202.946.288h.001c1.275.354 2.59.541 3.913.556.957 0 1.91-.114 2.841-.338a18.937 18.937 0 0 0 3.318-1.191c.96-.429 1.879-.866 3.028-1.355l.003-.001a4.084 4.084 0 0 1 1.547-.405l.021.002a45.265 45.265 0 0 1-12.739 16.835c.222-.952.373-1.919.452-2.894a4 4 0 1 0-7.973-.65 10.31 10.31 0 0 1-.957 3.719c-.086.177-.189.333-.283.499a4.538 4.538 0 0 0-1.022.35c-.022-.075-.036-.152-.064-.225a3.557 3.557 0 0 0-1.513-1.816 4.118 4.118 0 0 0-2.108-.54 6.341 6.341 0 0 0-2.515.581c-.023-.019-.035-.046-.061-.064a4.432 4.432 0 0 0-2.552-.703 8.04 8.04 0 0 0-2.781.531c-.86.3-1.639.796-2.274 1.449a4.353 4.353 0 0 0-1.222 2.889 3.337 3.337 0 0 0 .505 1.775c.332.525.796.955 1.345 1.247.52.266 1.099.398 1.683.384a6.666 6.666 0 0 0 1.462-.184c.09.028.183.045.277.052h.021a1.13 1.13 0 0 1 .717.197c.128.1.235.226.313.369.157.294.263.612.313.941.033.19.054.382.063.575a5.31 5.31 0 0 1-.879.102 1.679 1.679 0 0 1-.75-.165l.001.001a4.048 4.048 0 0 0-1.651-.314 5.301 5.301 0 0 0-2.641.685c-.46.265-.863.619-1.183 1.043a3.735 3.735 0 0 0-.684 1.61c-.04.23-.06.462-.061.695 0 .097.025.19.033.287a85.318 85.318 0 0 1-15.664 2.076c-1.539.064-3.036.096-4.491.096-25.237 0-38.115-9.573-44.771-23.821a58.187 58.187 0 0 1-.924-10.362c0-.193.01-.383.011-.575.163.182.322.367.49.544Zm86.002 58.481a6.44 6.44 0 0 1 .628-.527 151.68 151.68 0 0 0-.838 3.944c-.724.102-1.435.274-2.125.515a10.278 10.278 0 0 1 2.335-3.932Zm11.098-.083a9.283 9.283 0 0 1 2.943 4.581 20.11 20.11 0 0 1 .839 6.015l-.001.164a41.562 41.562 0 0 1-.086 2.425 28.754 28.754 0 0 1-1.134 6.67 13.664 13.664 0 0 1-1.871 3.914 7.515 7.515 0 0 1-2.939 2.498 11.69 11.69 0 0 1-4.881 1.017 12.953 12.953 0 0 1-5.682-1.287 7.347 7.347 0 0 1-3.491-3.269 15.09 15.09 0 0 1-1.09-6.114c-.006-1.75.195-3.494.599-5.197.161-.676.381-1.337.658-1.974.172-.419.412-.808.709-1.15a7.207 7.207 0 0 1 2.707-1.78 9.117 9.117 0 0 1 3.205-.547c1.884.025 3.742.45 5.449 1.248a9.416 9.416 0 0 1 3.629 2.718 1.302 1.302 0 0 0 1.814.296c.031-.022.046-.055.073-.079a1.29 1.29 0 0 0 .224-1.735 9.086 9.086 0 0 0-1.345-1.427 23.924 23.924 0 0 0-1.172-7.55c.294.168.576.356.843.563Zm-4.079-21.05c-9.376 9.525-22.853 15.442-39.437 15.447-15.71-.005-28.625-5.32-37.913-13.977 8.227 5.569 19.17 8.014 32.112 8.014 1.298 0 2.615-.024 3.95-.072 26.084-.944 45.233-12.407 53.181-29.122a50.277 50.277 0 0 1-11.893 19.71Z"/><path fill="#FFD93A" d="m36.304 153.81-.2.007a2.611 2.611 0 0 1-1.374-.379 1.933 1.933 0 0 1-.926-1.65 3.305 3.305 0 0 1 1.103-2.284 4.297 4.297 0 0 1 2.995-1.174 6.745 6.745 0 0 1 3.989 1.511 6.221 6.221 0 0 1 1.747 1.945 4.59 4.59 0 0 1 .613 2.244 4.386 4.386 0 0 1-.735 2.394 9.78 9.78 0 0 1-4.885 3.496 34.347 34.347 0 0 1-11.097 1.91c-3.15.11-5.876.147-8.109.147-2.232 0-3.972-.037-5.15-.073a97.008 97.008 0 0 1-1.34-.051c-.3-.013-.445-.022-.445-.022a1.302 1.302 0 0 0-1.048 2.162c.229.257.55.414.895.434.023.001 2.566.15 7.088.15 2.261 0 5.017-.037 8.2-.149 6.781-.242 11.474-1.498 14.59-3.363a10.417 10.417 0 0 0 3.49-3.239 6.991 6.991 0 0 0 1.146-3.796 7.19 7.19 0 0 0-.944-3.514 8.829 8.829 0 0 0-2.472-2.767 9.343 9.343 0 0 0-5.533-2.019 6.904 6.904 0 0 0-4.789 1.891 5.874 5.874 0 0 0-1.91 4.167c0 .482.076.96.227 1.418a4.554 4.554 0 0 0 1.92 2.436 5.212 5.212 0 0 0 3.145.761 1.3 1.3 0 1 0-.19-2.593ZM17.561 170.466c1.358.107 3.102.143 4.942.143 4.9 0 10.461-.265 10.472-.265.171-.007.34-.048.495-.121a1.289 1.289 0 0 0 .675-.736 1.305 1.305 0 0 0-.352-1.407 1.296 1.296 0 0 0-.941-.333c-.001 0-.343.016-.936.04-1.78.074-5.804.222-9.413.222-1.802.001-3.505-.037-4.737-.135a1.3 1.3 0 1 0-.205 2.592ZM180.591 77.693a2.45 2.45 0 0 1-1.934.813 2.953 2.953 0 0 1-1.503-.397 2.236 2.236 0 0 1-1.107-1.95 3.875 3.875 0 0 1 1.258-2.665 4.87 4.87 0 0 1 3.433-1.355 7.723 7.723 0 0 1 4.261 1.47 6.34 6.34 0 0 1 2.87 5.236 6.447 6.447 0 0 1-.84 3.136 11.595 11.595 0 0 1-5.312 4.568 33.736 33.736 0 0 1-11.864 2.843c-8.987.754-20.155.804-22.835.803h-.6a1.299 1.299 0 0 0-.013 2.6h.613c2.717 0 13.909-.047 23.052-.812 7.265-.612 12.292-2.375 15.589-4.761a12.373 12.373 0 0 0 3.645-3.984 9.046 9.046 0 0 0 1.165-4.394 8.942 8.942 0 0 0-4.029-7.399 10.305 10.305 0 0 0-5.702-1.906 7.478 7.478 0 0 0-5.241 2.087 6.439 6.439 0 0 0-2.05 4.533 4.84 4.84 0 0 0 2.371 4.18 5.54 5.54 0 0 0 2.839.767 5.008 5.008 0 0 0 3.988-1.818 1.299 1.299 0 1 0-2.054-1.595ZM162.674 99.95c.65.033 1.383.047 2.174.047 5.283-.001 13.214-.61 13.231-.61a1.297 1.297 0 0 0 1.144-.89 1.295 1.295 0 0 0-.391-1.396 1.308 1.308 0 0 0-.951-.306c-.002 0-.49.037-1.312.094-2.46.17-7.893.508-11.721.508-.761 0-1.456-.014-2.043-.043a1.302 1.302 0 0 0-1.29 1.735 1.302 1.302 0 0 0 1.159.862ZM51.272 22.589c-.955.45-1.995.69-3.05.707a4.788 4.788 0 0 1-2.814-.842 5.33 5.33 0 0 1-1.922-2.773 5 5 0 0 1-.255-1.59 6.441 6.441 0 0 1 .812-3.017 10.462 10.462 0 0 1 3.956-3.97c1.88-1.101 4.018-1.682 6.196-1.682 2.998.044 5.9 1.07 8.259 2.92a15.17 15.17 0 0 1 6.336 11.843 12.51 12.51 0 0 1-1.775 6.4c-1.848 3.146-5.292 6.184-10.954 8.543-5.656 2.356-13.511 4.009-24.026 4.376-5.415.19-10.26.282-14.467.313a1.301 1.301 0 0 0 .019 2.6c4.23-.031 9.1-.123 14.539-.314 14.317-.507 24.038-3.32 30.292-7.355a20.87 20.87 0 0 0 6.839-6.846c1.391-2.334 2.128-5 2.133-7.717a17.751 17.751 0 0 0-7.382-13.926 16.312 16.312 0 0 0-9.813-3.437 14.793 14.793 0 0 0-9.509 3.451 12.354 12.354 0 0 0-2.938 3.578 9.033 9.033 0 0 0-1.117 4.24c-.002.82.13 1.635.388 2.412a7.933 7.933 0 0 0 2.886 4.073 7.392 7.392 0 0 0 4.316 1.32 10.02 10.02 0 0 0 4.128-.941 1.298 1.298 0 0 0 .353-2.137 1.3 1.3 0 0 0-1.43-.23ZM25.346 52.417c2.13.167 4.897.226 7.82.226 7.787 0 16.648-.423 16.659-.423a1.3 1.3 0 1 0-.124-2.597c-.002 0-.549.026-1.497.066-2.843.118-9.264.354-15.038.354-2.885 0-5.612-.06-7.615-.218a1.3 1.3 0 1 0-.205 2.592Z"/></svg>