<svg xmlns="http://www.w3.org/2000/svg" width="200" height="200" fill="none"><path fill="#BEBEC9" d="M50.542 113.414a59 59 0 0 1-.354-6.488c0-.795.015-1.589.044-2.381a1.3 1.3 0 0 0-2.598-.094c-.03.822-.045 1.647-.046 2.475a61.674 61.674 0 0 0 .37 6.774 1.3 1.3 0 0 0 2.584-.286Z"/><path fill="#FFE632" d="M152.856 110.495a44.396 44.396 0 0 1-12.393 15.527 1.3 1.3 0 1 0 1.635 2.022 47.023 47.023 0 0 0 13.109-16.438 1.302 1.302 0 0 0-.617-1.737 1.303 1.303 0 0 0-1.734.626Z"/><path fill="#BEBEC9" d="m130.375 171.791.003-.003.001-.001-.004.004ZM135.865 168.869h.002l.001-.001-.003.001Z"/><path fill="#BEBEC9" d="M149.992 164.11a10.073 10.073 0 0 0-3.826-2.401 1.28 1.28 0 0 0-.32-.044c.024-3.307.312-6.608.861-9.87.272-1.628.597-3.414.954-5.076a39 39 0 0 1 1.129-4.303c.014-.041.007-.082.017-.124a54.744 54.744 0 0 0 11.618-28.051 1.302 1.302 0 0 0-2.093-1.172 1.301 1.301 0 0 0-.489.863 51.23 51.23 0 0 1-16.604 32.561c-9.221 8.194-21.835 13.19-37.072 13.193a57.183 57.183 0 0 1-29.131-7.442 49.178 49.178 0 0 1-18.696-19.461 1.295 1.295 0 0 0-1.274-.687 1.301 1.301 0 0 0-1.021 1.909 51.971 51.971 0 0 0 9.8 12.971 25.598 25.598 0 0 0-3.199 3.543 27.998 27.998 0 0 0-4.546 9.574c-.041.158-.07.296-.107.448a1.273 1.273 0 0 0-.424.061c-.5.18-.984.401-1.447.66a11.473 11.473 0 0 0-4.59 5.092c-.44.9-.786 1.842-1.034 2.812a8.459 8.459 0 0 0-3.215 4.127 22.094 22.094 0 0 0-1.657 7.793 10.922 10.922 0 0 0 1.964 6.52 12.84 12.84 0 0 0 5.126 4.048 15.172 15.172 0 0 0 6.414 1.516 11.007 11.007 0 0 0 10.152-6.327l.002-.003a28.35 28.35 0 0 0 2.098-6.535c.525-2.508.799-5.062.817-7.624a21.633 21.633 0 0 0-.471-4.758 8.703 8.703 0 0 0-1.714-3.753 12.583 12.583 0 0 0-3.223-2.687 1.05 1.05 0 0 0-.132-.045c.195-.642.424-1.274.684-1.892a18.428 18.428 0 0 1 2.475-4.25 16.818 16.818 0 0 1 2.776-2.788 53.314 53.314 0 0 0 3.13 1.981 59.788 59.788 0 0 0 30.443 7.797c13.217.004 24.661-3.654 33.736-9.899a72.642 72.642 0 0 0-.661 9.482v.013a1.211 1.211 0 0 0-.258.068 9.23 9.23 0 0 0-3.697 3.397 18.365 18.365 0 0 0-2.221 5.505 1.276 1.276 0 0 0-.014.296 9.86 9.86 0 0 0-.674.64 6.682 6.682 0 0 0-1.202 1.879 16.366 16.366 0 0 0-1.099 3.78 25.781 25.781 0 0 0-.386 4.455 17.553 17.553 0 0 0 1.339 7.227 9.9 9.9 0 0 0 4.681 4.488 15.525 15.525 0 0 0 6.838 1.56 14.259 14.259 0 0 0 5.975-1.261 10.111 10.111 0 0 0 3.955-3.334 18.61 18.61 0 0 0 2.892-7.191c.462-2.411.696-4.86.697-7.315v-.139a20.117 20.117 0 0 0-1.645-8.269 12.198 12.198 0 0 0-2.431-3.558Zm-98.057 3.25a8.819 8.819 0 0 1 3.455-3.828c.013-.008.027-.011.04-.018-.012.095-.023.183-.032.268a74.256 74.256 0 0 0-1.793 3.855c-.118.005-.236.004-.354.012-.524.038-1.044.112-1.558.222.074-.166.155-.337.242-.511Zm14.107-1.495a6.228 6.228 0 0 1 1.152 2.638 19.11 19.11 0 0 1 .405 4.178 35.967 35.967 0 0 1-.763 7.097 25.88 25.88 0 0 1-1.885 5.913 8.411 8.411 0 0 1-7.82 4.879 12.578 12.578 0 0 1-5.312-1.271 10.266 10.266 0 0 1-4.115-3.207 8.31 8.31 0 0 1-1.478-5.007c.077-2.359.58-4.685 1.486-6.864.42-1.2 1.22-2.23 2.28-2.934a7.073 7.073 0 0 1 3.429-1.043l.005-.001c.232-.016.467-.023.706-.023 1.957.039 3.887.459 5.683 1.236a11.475 11.475 0 0 1 3.985 2.598c.087.095.168.196.243.301a1.303 1.303 0 0 0 1.802.366 1.304 1.304 0 0 0 .366-1.802 5.532 5.532 0 0 0-.45-.572l-.008-.01c-.142-.16-.32-.309-.48-.463.133-1.228.202-2.462.205-3.697v-.004a21.871 21.871 0 0 0-.201-3.098c.269.25.524.513.765.79Zm-.27-12.173a21.011 21.011 0 0 0-2.826 4.847 22.957 22.957 0 0 0-1.252 3.957 1.297 1.297 0 0 0 .366 1.214c.234.222.399.507.475.821.251 1.199.366 2.423.343 3.647 0 .607-.025 1.24-.065 1.884a18.624 18.624 0 0 0-1.987-1.002 18.767 18.767 0 0 0-4.459-1.249 69.906 69.906 0 0 1 1.454-3.06 1.27 1.27 0 0 0 .133-.456c.13-1.196.352-2.38.661-3.543a25.407 25.407 0 0 1 4.118-8.683 22.865 22.865 0 0 1 3.03-3.326 53.645 53.645 0 0 0 2.669 2.178 19.47 19.47 0 0 0-2.66 2.771Zm77.195-5.256c.72-.64 1.413-1.304 2.093-1.98a118.692 118.692 0 0 0-.917 4.911 64.556 64.556 0 0 0-.901 10.487v.047h.001c.001.343.011.665.016.966a1.299 1.299 0 0 0 .521 1.018c.249.181.444.427.562.711a19.73 19.73 0 0 1 1.31 6.028c-.417-.228-.85-.442-1.301-.638a15.957 15.957 0 0 0-5.605-1.293c.324-1.591.683-3.242 1.088-4.963.025-.108.036-.22.034-.331a57.003 57.003 0 0 1-.026-1.53c.014-3.773.331-7.539.947-11.262a1.25 1.25 0 0 0-.011-.34c.746-.594 1.48-1.2 2.189-1.831Zm-7.494 18.318a7.428 7.428 0 0 1 1.373-1.602c-.284 1.264-.55 2.502-.786 3.69-.064.011-.128.015-.192.027-.546.102-1.084.245-1.608.43.31-.89.717-1.744 1.213-2.545Zm14.771 18.394a13.64 13.64 0 0 1-1.873 3.911 7.498 7.498 0 0 1-2.939 2.497 11.654 11.654 0 0 1-4.883 1.021 12.968 12.968 0 0 1-5.679-1.287 7.334 7.334 0 0 1-3.486-3.266 15.111 15.111 0 0 1-1.093-6.122 22.151 22.151 0 0 1 .599-5.194c.16-.676.38-1.336.657-1.973a4.19 4.19 0 0 1 .709-1.149l.004-.004a7.352 7.352 0 0 1 4.086-2.157l.003-.001a9.77 9.77 0 0 1 1.822-.165c1.773.022 3.524.401 5.147 1.113a10.361 10.361 0 0 1 3.663 2.512c.101.118.2.243.269.339a1.298 1.298 0 0 0 1.814.301 1.298 1.298 0 0 0 .301-1.813 8.03 8.03 0 0 0-.408-.517l-.004-.004c-.2-.232-.433-.449-.664-.667.012-.045.021-.09.028-.136a24.826 24.826 0 0 0-1.003-7.151c.297.218.578.457.842.714a10.685 10.685 0 0 1 2.543 4.492c.523 1.784.782 3.635.769 5.495v.12a32.22 32.22 0 0 1-1.225 9.091h.001ZM51.536 121.386a1.31 1.31 0 0 0-.994-.056 1.291 1.291 0 0 0-.742.663 26.157 26.157 0 0 1-2.972 4.784 23.6 23.6 0 0 1-.816.973 3.599 3.599 0 0 0-1.01-.142 4.24 4.24 0 0 0-1.632.343 8.635 8.635 0 0 0-1.85 1.116l-.022.017a12.241 12.241 0 0 0-.608-1.162 18.62 18.62 0 0 0 3.266-3.247 23.376 23.376 0 0 0 4.244-8.789 1.69 1.69 0 0 1 .98-1.16 1.298 1.298 0 0 0 .67-1.705 1.3 1.3 0 0 0-1.7-.682 4.285 4.285 0 0 0-2.477 2.937 20.82 20.82 0 0 1-3.76 7.791 16.039 16.039 0 0 1-2.721 2.73 15.365 15.365 0 0 0-2.803-2.691 6.725 6.725 0 0 0-3.834-1.437 4.288 4.288 0 0 0-1.757.37 8.925 8.925 0 0 0-2.775 1.974c-.218.234-.42.483-.604.745a1.316 1.316 0 0 0-.226.023 15.776 15.776 0 0 0-3.146 1.264 6.937 6.937 0 0 0-2.46 2.289 3.198 3.198 0 0 0-.56 1.736c0 .51.152 1.008.438 1.43.046.068.1.122.15.183-.277.29-.54.577-.771.873-.26.325-.482.68-.66 1.057-.19.406-.291.848-.296 1.297.01.657.233 1.294.636 1.814.29.396.677.711 1.123.914.406.181.845.272 1.289.269a4.753 4.753 0 0 0 3.67-1.949c.24.306.497.598.77.875a7.837 7.837 0 0 0 1.8 1.376c.783.437 1.663.67 2.56.679a5.15 5.15 0 0 0 1.7-.295.878.878 0 0 1 .304-.051c.205.008.408.044.603.109 1.223.524 2.526.838 3.854.928.436 0 .87-.043 1.297-.126a4.719 4.719 0 0 0 2.286-1.106 9.925 9.925 0 0 0 1.622-2.143c.136-.216.3-.414.488-.587.145-.127.32-.215.509-.256l.004-.001a6.468 6.468 0 0 0 3.07-1.562 3.603 3.603 0 0 0 1.13-2.564 3.418 3.418 0 0 0-.637-1.968l.002-.001-.012-.014-.005-.008c.244-.284.491-.567.722-.859a28.805 28.805 0 0 0 3.27-5.262 1.302 1.302 0 0 0-.607-1.736Zm-26.84 13.069a1.927 1.927 0 0 1-.649.565 1.977 1.977 0 0 1-.911.287.524.524 0 0 1-.215-.036l-.106-.093c-.136-.193-.122-.231-.127-.268a.55.55 0 0 1 .064-.222c.17-.325.387-.625.641-.889.222-.25.506-.538.813-.843.267.046.537.07.808.074.097-.001.194-.009.291-.015-.157.498-.361.98-.609 1.44Zm1.08-4.179c-.239.109-.5.162-.762.154a2.125 2.125 0 0 1-1.03-.247.522.522 0 0 1-.155-.126.706.706 0 0 1 .14-.308 4.305 4.305 0 0 1 1.565-1.444c.42-.232.858-.43 1.31-.593.043.202.109.398.196.585.126.268.28.52.463.753a8.635 8.635 0 0 1-1.727 1.226Zm20.072 1.67c-.53.455-1.17.761-1.858.887l.004-.001a3.833 3.833 0 0 0-1.972 1.175c-.3.341-.57.708-.805 1.098a6.875 6.875 0 0 1-.867 1.209 2.073 2.073 0 0 1-1.151.586 4.143 4.143 0 0 1-.801.079 5.741 5.741 0 0 1-2.019-.44c-.343-.124-.7-.263-1.1-.382a4.72 4.72 0 0 0-1.339-.215 3.491 3.491 0 0 0-1.163.197c-.27.097-.554.147-.84.149a2.765 2.765 0 0 1-1.323-.365 5.957 5.957 0 0 1-1.664-1.445 7.979 7.979 0 0 1-.477-.643l-.117-.183-.026-.042-.004-.007a1.291 1.291 0 0 0-.35-.394c.211-.692.337-1.216.343-1.234.011-.083.015-.166.01-.249a11.655 11.655 0 0 0 1.532-1.343c.15.017.3.026.452.025a6.588 6.588 0 0 0 2.978-.842 9.597 9.597 0 0 0 1.14-.708c.3-.213.58-.453.838-.716a1.3 1.3 0 0 0-1.885-1.79c-.149.147-.31.281-.481.402a6.865 6.865 0 0 1-1.296.737 3.476 3.476 0 0 1-1.294.317.997.997 0 0 1-.525-.119 1.035 1.035 0 0 1-.392-.49l-.002-.004-.02-.106c.014-.177.067-.348.157-.5a4.364 4.364 0 0 1 1.014-1.203 6.326 6.326 0 0 1 1.512-.972c.22-.098.458-.147.698-.145.85.076 1.657.407 2.317.949a13.058 13.058 0 0 1 2.437 2.378c.41.518.789 1.062 1.132 1.628l.002.003c.212.354.401.721.567 1.098-.863.095-1.714.276-2.54.54a4.279 4.279 0 0 0-1.475.908 4.086 4.086 0 0 0-1.043 1.698 1.303 1.303 0 0 0 .83 1.641 1.302 1.302 0 0 0 1.64-.83 1.37 1.37 0 0 1 .533-.764c.218-.143.459-.247.712-.31a16.028 16.028 0 0 1 1.684-.303 5.36 5.36 0 0 0 2.055-.672c.707-.456 1.329-1.008 1.93-1.412.259-.183.536-.34.827-.467.201-.09.418-.14.639-.146.237.003.468.074.666.204l.017.01c.127.07.236.168.32.285l.03.043c.106.14.166.309.169.484a.991.991 0 0 1-.356.712Z"/><path fill="#BEBEC9" d="M27.041 128.299v-.001l-.002-.003.002.004Z"/><path fill="#FFE632" d="M159.129 112.548a1.297 1.297 0 0 0-1.505 1.056c-1.901 10.839-7.993 20.198-17.488 27.047-9.494 6.843-22.407 11.146-37.865 11.705a107.71 107.71 0 0 1-3.906.072c-11.397.002-21.127-1.926-28.71-6.147-7.58-4.229-13.08-10.702-16.152-20.126a99.555 99.555 0 0 1-1.046-3.455 37.873 37.873 0 0 0 11.227 11.671c7.686 5.124 18.087 8.041 32.094 8.039 1.474 0 2.99-.032 4.546-.097a85.847 85.847 0 0 0 16.926-2.362c.332-.085.618-.297.795-.591a1.304 1.304 0 0 0-.438-1.779 1.303 1.303 0 0 0-.979-.155 83.226 83.226 0 0 1-16.413 2.289c-1.522.064-3 .095-4.437.095-13.66-.002-23.5-2.836-30.652-7.602-7.148-4.77-11.695-11.506-14.656-19.603a1.3 1.3 0 0 0-.573-.681 1.302 1.302 0 0 0-1.948 1.133c.001.153.047 4.485 3.08 13.896v.003c3.229 9.976 9.238 17.09 17.363 21.597 8.122 4.515 18.291 6.473 29.973 6.475 1.314 0 2.647-.024 4-.073 15.883-.576 29.306-5 39.291-12.194 9.984-7.189 16.515-17.175 18.529-28.709a1.298 1.298 0 0 0-1.056-1.504Z"/><path fill="#BEBEC9" d="M184.019 53.113a1.309 1.309 0 0 0-1.041-.616 75.547 75.547 0 0 1-17.543-3.279 91.288 91.288 0 0 1-5.671-1.92l2.242-1.614a1.298 1.298 0 0 0 .377-1.685 1.298 1.298 0 0 0-.423-.457c-8.578-5.633-18.676-11.435-22.973-13.865l3.022-1.56a1.3 1.3 0 0 0-.004-2.312c-6.579-3.366-14.452-5.041-20.915-5.909a105.72 105.72 0 0 0-9.93-.848l1.621-2.132a1.292 1.292 0 0 0 .155-1.31 1.298 1.298 0 0 0-1.071-.772 49.978 49.978 0 0 0-4.573-.204 74.42 74.42 0 0 0-20.27 3.151 87.425 87.425 0 0 0-6.664 2.227l.66-3.11a1.3 1.3 0 0 0-1.747-1.48 71.179 71.179 0 0 0-25.326 16.87l-.066-2.199a1.3 1.3 0 0 0-1.926-1.1 30.445 30.445 0 0 0-5.819 4.517 36.3 36.3 0 0 0-9.116 14.197 30.409 30.409 0 0 0-1.69 10.005c.006 3.081.46 6.145 1.348 9.096a17.25 17.25 0 0 1-3.137-.876 23.024 23.024 0 0 1-5.362-2.85 23.777 23.777 0 0 0-6.306-3.183 19.704 19.704 0 0 0-5.99-1.128 5.874 5.874 0 0 0-2.751.55 3.384 3.384 0 0 0-1.264 1.112 2.64 2.64 0 0 0-.428 1.449c.02.688.24 1.357.63 1.924.172.268.37.518.592.746a1.3 1.3 0 0 0 1.01.377 37.425 37.425 0 0 1 2.646-.096c4.229-.057 8.406.936 12.157 2.889 1.568.75 3.083 1.544 4.778 2.184 1.62.617 3.321.998 5.05 1.133a49.775 49.775 0 0 0-.87 9.34 64.503 64.503 0 0 0 5.05 24.465 1.299 1.299 0 0 0 2.304.11l2.068-3.545a21.04 21.04 0 0 0 5.932 7.552c4.898 4.08 11.267 6.694 16.427 8.336a71.405 71.405 0 0 0 9.159 2.286 1.307 1.307 0 0 0 1.177-.417 1.293 1.293 0 0 0 .284-1.215l-.572-2.055a24.26 24.26 0 0 0 6.77 2.818 48.794 48.794 0 0 0 12.163 1.366 90.22 90.22 0 0 0 17.503-1.845c.211-.048.406-.147.569-.288a1.308 1.308 0 0 0 .435-1.16 1.292 1.292 0 0 0-.241-.591l-2.119-2.883c1.571.249 3.159.374 4.749.376 6.967-.005 13.765-2.127 18.851-4.227a63.606 63.606 0 0 0 8.493-4.226 1.292 1.292 0 0 0 .61-1.192 1.298 1.298 0 0 0-.766-1.098l-3.011-1.347a34.665 34.665 0 0 0 8.301-4.198 55.247 55.247 0 0 0 12.224-11.793 57.015 57.015 0 0 0 4.424-6.51 1.297 1.297 0 0 0-.893-1.91l-3.865-.735a91.081 91.081 0 0 0 6.753-5.182c5.074-4.302 10.906-10.214 13.891-16.947a1.302 1.302 0 0 0-.082-1.207ZM14.194 62.294a1.032 1.032 0 0 1-.157-.416l.009-.03a.854.854 0 0 1 .316-.241 3.574 3.574 0 0 1 1.519-.24c1.761.065 3.502.4 5.161.992.365.123.731.267 1.097.41a29.834 29.834 0 0 0-5.823-.54c-.677 0-1.39.026-2.122.065Zm154.337 6.988a88.459 88.459 0 0 1-6.425 4.94 74.326 74.326 0 0 1-2.525 1.686l-.138.086-.042.026a1.298 1.298 0 0 0-.601 1.342 1.298 1.298 0 0 0 1.036 1.044l5.161.983a62.89 62.89 0 0 1-6.848 8.851c-4.684 5.044-11.252 10.259-18.989 11.78a1.298 1.298 0 0 0-.877 1.92c.137.239.346.429.598.542l3.985 1.783a67.903 67.903 0 0 1-6.384 2.98c-4.837 1.962-11.161 3.844-17.393 3.84a25.844 25.844 0 0 1-7.468-1.035 1.302 1.302 0 0 0-1.422 2.015l2.951 4.015a88.173 88.173 0 0 1-14.957 1.396 46.268 46.268 0 0 1-11.504-1.281 17.997 17.997 0 0 1-8.822-4.782 1.299 1.299 0 0 0-2.207 1.23l1.103 3.972a71.488 71.488 0 0 1-12.699-3.995 38.757 38.757 0 0 1-9.89-5.893 16.729 16.729 0 0 1-5.747-8.731 1.3 1.3 0 0 0-2.388-.356l-2.161 3.706a62.841 62.841 0 0 1-3.847-20.97c0-2.713.23-5.42.691-8.094a125.51 125.51 0 0 0 23.45 6.86c.008.025.002.05.01.075a78.123 78.123 0 0 0 9.168 17.578 1.3 1.3 0 0 0 2.124-1.5 74.784 74.784 0 0 1-6.632-11.607 73.727 73.727 0 0 1-1.658-3.869l-.049-.127a156.9 156.9 0 0 0 30.057 2.23c.037.057.078.11.124.16.01.008 8.752 7.504 14.058 11.547a1.304 1.304 0 0 0 1.442.09 1.288 1.288 0 0 0 .603-.792 1.31 1.31 0 0 0-.133-.986 1.3 1.3 0 0 0-.336-.38c-2.593-1.975-6.088-4.845-8.923-7.214a561.405 561.405 0 0 1-3.032-2.55 161.23 161.23 0 0 0 38.787-6.506 1.299 1.299 0 0 0-.74-2.492 158.177 158.177 0 0 1-19.036 4.39l8.62-9.521a1.303 1.303 0 0 0-.09-1.838 1.304 1.304 0 0 0-1.838.093L115.926 77.82a159.065 159.065 0 0 1-22.07 1.54c-3.8 0-7.51-.142-11.125-.399 2.677-3.11 7.339-8.216 11.542-12.766a1794.558 1794.558 0 0 1 9.087-9.76 1.303 1.303 0 0 0-.989-2.186 1.3 1.3 0 0 0-.906.405c-.002.002-4.254 4.529-9.102 9.777-4.852 5.254-10.281 11.205-12.703 14.135-.027.044-.051.09-.073.136a143.47 143.47 0 0 1-26.14-4.792 131.187 131.187 0 0 1 10.375-12.218 149.378 149.378 0 0 1 3.938-3.981 104.347 104.347 0 0 1 1.432-1.367l.1-.092a1.3 1.3 0 0 0-1.76-1.915A143.183 143.183 0 0 0 50.86 73.032c-.023.031-.027.068-.046.1a107.298 107.298 0 0 1-10.391-3.782c-.01-.004-.02-.002-.03-.006a28.608 28.608 0 0 1-2.464-11.636 27.807 27.807 0 0 1 1.545-9.153 33.703 33.703 0 0 1 8.467-13.178 32.42 32.42 0 0 1 3.41-2.876l.096 3.167a1.3 1.3 0 0 0 2.332.75l.019-.024c.445-.577 8.672-10.897 24.163-17.617l-.654 3.082a1.3 1.3 0 0 0 1.801 1.457l.033-.014a76.698 76.698 0 0 1 9.105-3.167 71.377 71.377 0 0 1 19.046-2.905c.65 0 1.301.017 1.952.043l-1.7 2.236a1.297 1.297 0 0 0-.127 1.37 1.302 1.302 0 0 0 1.175.716h.111c4.028.044 8.05.337 12.043.879a69.172 69.172 0 0 1 17.728 4.542l-2.824 1.458a1.301 1.301 0 0 0-.034 2.292l.611.341c2.637 1.476 13.341 7.523 22.718 13.577l-2.625 1.89a1.3 1.3 0 0 0 .241 2.247 82.498 82.498 0 0 0 8.12 2.885 80.804 80.804 0 0 0 16.219 3.246c-2.893 5.468-7.898 10.558-12.369 14.33Z"/><path fill="#FFE632" d="m36.303 153.81-.2.007a2.614 2.614 0 0 1-1.375-.379 1.932 1.932 0 0 1-.927-1.65 3.307 3.307 0 0 1 1.104-2.285 4.3 4.3 0 0 1 2.995-1.173 6.745 6.745 0 0 1 3.989 1.511 6.222 6.222 0 0 1 1.747 1.945c.394.683.605 1.456.613 2.244a4.384 4.384 0 0 1-.734 2.394 9.787 9.787 0 0 1-4.885 3.497 34.373 34.373 0 0 1-11.097 1.909 233.2 233.2 0 0 1-8.11.147c-2.232 0-3.972-.037-5.15-.073a96.973 96.973 0 0 1-1.34-.051c-.3-.013-.445-.022-.445-.022a1.301 1.301 0 0 0-.153 2.596c.023.001 2.566.15 7.089.15 2.26 0 5.017-.037 8.2-.149 6.78-.242 11.473-1.498 14.59-3.363a10.425 10.425 0 0 0 3.49-3.238 6.996 6.996 0 0 0 1.145-3.797 7.192 7.192 0 0 0-.944-3.514 8.83 8.83 0 0 0-2.471-2.767 9.344 9.344 0 0 0-5.534-2.019 6.905 6.905 0 0 0-4.789 1.891 5.872 5.872 0 0 0-1.91 4.167c0 .482.076.961.227 1.418a4.55 4.55 0 0 0 1.92 2.436 5.214 5.214 0 0 0 3.146.761 1.285 1.285 0 0 0 .889-.447 1.298 1.298 0 0 0-.135-1.833 1.301 1.301 0 0 0-.944-.313ZM17.56 170.466c1.358.106 3.1.143 4.941.143 4.9 0 10.461-.266 10.472-.266a1.3 1.3 0 0 0-.123-2.597l-.936.041c-1.78.074-5.805.222-9.413.222-1.802 0-3.505-.038-4.738-.135a1.284 1.284 0 0 0-.946.307 1.302 1.302 0 0 0 .254 2.147c.152.077.318.124.488.138ZM162.674 98.95a44.18 44.18 0 0 0 2.174.047c5.282-.001 13.214-.609 13.231-.61a1.297 1.297 0 0 0 1.188-1.394 1.298 1.298 0 0 0-1.386-1.198c-.001 0-.49.037-1.312.094-2.46.17-7.893.508-11.721.508-.761 0-1.457-.014-2.043-.043a1.298 1.298 0 0 0-1.29 1.735 1.302 1.302 0 0 0 1.159.862ZM51.27 22.589c-.955.45-1.995.69-3.05.707a4.787 4.787 0 0 1-2.813-.842 5.331 5.331 0 0 1-1.922-2.773 5 5 0 0 1-.256-1.59 6.442 6.442 0 0 1 .812-3.017 10.462 10.462 0 0 1 3.956-3.971c1.88-1.1 4.018-1.68 6.196-1.681 2.999.044 5.9 1.07 8.26 2.92a15.17 15.17 0 0 1 6.335 11.843 12.51 12.51 0 0 1-1.775 6.4c-1.848 3.146-5.292 6.184-10.954 8.542-5.656 2.357-13.511 4.01-24.026 4.377-5.415.19-10.26.282-14.467.313a1.298 1.298 0 0 0-1.29 1.31 1.3 1.3 0 0 0 1.309 1.29c4.23-.031 9.1-.123 14.539-.314 14.317-.507 24.038-3.32 30.292-7.356a20.872 20.872 0 0 0 6.839-6.846c1.391-2.334 2.128-5 2.133-7.716a17.75 17.75 0 0 0-7.381-13.926 16.314 16.314 0 0 0-9.814-3.437 14.793 14.793 0 0 0-9.509 3.451 12.353 12.353 0 0 0-2.937 3.578 9.033 9.033 0 0 0-1.118 4.24 7.6 7.6 0 0 0 .389 2.412 7.932 7.932 0 0 0 2.886 4.073 7.392 7.392 0 0 0 4.315 1.32 10.021 10.021 0 0 0 4.129-.941 1.3 1.3 0 0 0-1.078-2.366ZM25.347 52.416c2.128.168 4.896.227 7.82.227 7.786 0 16.647-.423 16.657-.423a1.3 1.3 0 0 0-.123-2.597c-.002 0-.549.026-1.497.065-2.843.118-9.264.355-15.037.355-2.885 0-5.613-.06-7.615-.219a1.3 1.3 0 0 0-.205 2.592Z"/><path fill="#BEBEC9" d="M139.67 132.449a18.474 18.474 0 0 0 3.056-10.537c0-.512-.018-1.003-.05-1.464a1.31 1.31 0 0 0-.443-.891 1.297 1.297 0 0 0-1.432-.184 1.295 1.295 0 0 0-.719 1.253c.028.404.044.835.044 1.286a16.983 16.983 0 0 1-1.707 7.608c-.028-.039-.046-.085-.075-.123a4.857 4.857 0 0 0-1.737-1.506 1.066 1.066 0 0 0-.126-.035 4.44 4.44 0 0 0-.664-.378c-.049-.022-.102-.039-.152-.059.475-1.163.768-2.391.868-3.643a27.46 27.46 0 0 0 .111-2.117c.014-.624.02-1.157.05-1.503a1.299 1.299 0 0 0-2.133-1.093c-.263.22-.427.536-.458.878-.041.503-.044 1.054-.058 1.661-.005.976-.082 1.95-.233 2.914a7.227 7.227 0 0 1-.97 2.696c-.013.02-.013.043-.025.063a4.55 4.55 0 0 0-.677.261c-.021-.075-.035-.151-.063-.223l-.001-.002a3.562 3.562 0 0 0-1.513-1.816 4.12 4.12 0 0 0-2.108-.54 6.334 6.334 0 0 0-2.515.581c-.023-.019-.036-.046-.061-.064a4.433 4.433 0 0 0-2.553-.703 8.034 8.034 0 0 0-2.78.531c-.86.3-1.639.796-2.274 1.449a4.35 4.35 0 0 0-1.222 2.888 3.342 3.342 0 0 0 .504 1.775 3.6 3.6 0 0 0 1.345 1.248c.521.266 1.1.398 1.684.384a6.666 6.666 0 0 0 1.462-.184c.09.028.183.045.277.052h.021c.254-.018.507.052.717.197.128.1.235.225.312.368.157.294.263.611.314.94.033.191.053.384.062.577a5.393 5.393 0 0 1-.878.102 1.692 1.692 0 0 1-.75-.165 4.026 4.026 0 0 0-1.65-.313 5.298 5.298 0 0 0-2.641.685 3.928 3.928 0 0 0-1.183 1.043 3.713 3.713 0 0 0-.684 1.61c-.04.23-.061.462-.061.695a3.22 3.22 0 0 0 .367 1.53c.37.667.96 1.185 1.669 1.466a5.638 5.638 0 0 0 2.183.395 9.628 9.628 0 0 0 2.131-.257l.214-.026c.189.007.373.056.541.143.344.155.797.484 1.382.834a4.523 4.523 0 0 0 2.323.715c.328 0 .655-.042.973-.124a12.086 12.086 0 0 1 3.123-.521c.868.018 1.731.127 2.575.326.433.092.875.139 1.318.139a5.72 5.72 0 0 0 3.951-1.526 5.8 5.8 0 0 0 1.74-4.301 7.97 7.97 0 0 0-.036-.75 27.935 27.935 0 0 0-.685-4.245Zm-16.504-4.669a3.748 3.748 0 0 0-.616 1.992c0 .073.011.146.016.22a8.022 8.022 0 0 1-.459.161 5.397 5.397 0 0 1-1.524.291 1.036 1.036 0 0 1-.444-.069.997.997 0 0 1-.379-.339.737.737 0 0 1-.11-.399c.037-.438.235-.847.555-1.149a3.43 3.43 0 0 1 1.262-.757 5.476 5.476 0 0 1 1.86-.362c.057 0 .106.006.161.008a5.166 5.166 0 0 0-.322.403Zm9.607 2.391a1.958 1.958 0 0 1 1.245-.482c.329.002.651.094.932.266.096.057.184.126.263.205-.091.261-.22.507-.38.731-.316.454-.663.887-1.037 1.295a.873.873 0 0 1-.333.229 1.285 1.285 0 0 1-.479.086 1.546 1.546 0 0 1-1.059-.401.433.433 0 0 1-.087-.157.435.435 0 0 1-.019-.179 2.267 2.267 0 0 1 .953-1.593h.001Zm-7.409-1.001c.219-.328.501-.61.83-.828a4.224 4.224 0 0 1 2.261-.787c.273-.011.544.05.786.178a.942.942 0 0 1 .403.501l-.001.004a1.307 1.307 0 0 1-.355.518 5.58 5.58 0 0 1-1.67 1.097 4.737 4.737 0 0 1-1.748.454l-.195-.014-.047-.01-.01-.003a.923.923 0 0 1-.401-.284.359.359 0 0 1-.067-.224c.015-.217.088-.425.214-.602Zm11.5 10.687a3.127 3.127 0 0 1-2.164.814c-.262 0-.522-.028-.777-.082a14.798 14.798 0 0 0-3.116-.383 14.519 14.519 0 0 0-3.765.602 1.318 1.318 0 0 1-.331.043 1.478 1.478 0 0 1-.615-.15 14.96 14.96 0 0 1-1.371-.821 5.885 5.885 0 0 0-.981-.485 3.536 3.536 0 0 0-2.073-.145 7.057 7.057 0 0 1-1.551.192 2.565 2.565 0 0 1-1.377-.298.531.531 0 0 1-.181-.187.633.633 0 0 1-.062-.306c.001-.085.009-.171.024-.255.027-.179.098-.349.205-.495.185-.227.429-.399.706-.495a2.948 2.948 0 0 1 1.035-.188c.194-.007.388.02.573.08.573.264 1.196.4 1.827.398.662-.03 1.32-.114 1.969-.251.523-.096 1.053-.15 1.586-.162.406-.007.811.053 1.198.178.408.142.781.372 1.09.674a1.301 1.301 0 0 0 2.195-.976 1.281 1.281 0 0 0-.112-.495 1.282 1.282 0 0 0-.292-.414 5.549 5.549 0 0 0-2.04-1.249 6.254 6.254 0 0 0-2.039-.318c-.033 0-.061.005-.093.005a6.527 6.527 0 0 0-.388-1.788 6.482 6.482 0 0 0 1.926-.358c.47-.16.926-.357 1.365-.589a3.02 3.02 0 0 0 .804 1.938 4.107 4.107 0 0 0 2.945 1.21c.494.002.985-.09 1.445-.272a3.473 3.473 0 0 0 1.304-.909 14.9 14.9 0 0 0 1.214-1.53c.093.275.181.565.259.887.271 1.208.459 2.432.561 3.666.016.174.024.342.024.501a3.178 3.178 0 0 1-.927 2.413Z"/><path fill="#BEBEC9" d="M189.578 99.33a5.036 5.036 0 0 0-.394-.016 13.713 13.713 0 0 0-3.256.523l-.499-3.203a17.636 17.636 0 0 1 2.121-.606 18.995 18.995 0 0 1 1.319-.242l.07-.01.017-.002a1.3 1.3 0 0 0-.31-2.581c-1.23.169-2.443.447-3.623.832l-.48-3.081a21.986 21.986 0 0 1 3.536-.954 1.299 1.299 0 1 0-.421-2.566 31.192 31.192 0 0 0-8.263 2.88 11.371 11.371 0 0 1-5.267 1.415 14.552 14.552 0 0 1-5.816-1.4 16.64 16.64 0 0 0-6.536-1.41 10.086 10.086 0 0 0-5.463 1.415 1.303 1.303 0 0 0-.387 1.798 1.294 1.294 0 0 0 1.797.387 7.546 7.546 0 0 1 4.053-1 14.06 14.06 0 0 1 5.499 1.195 17.13 17.13 0 0 0 6.853 1.615 13.961 13.961 0 0 0 6.429-1.69 33.98 33.98 0 0 1 1.507-.704l1.355 8.693a36.857 36.857 0 0 0-4.024 1.719 11.869 11.869 0 0 1-5.582 1.453c-2.5.002-5.802-.793-10.656-3.09a11.351 11.351 0 0 0-4.885-1.196 9.991 9.991 0 0 0-4.063.896 35.255 35.255 0 0 0-4.606 2.744c-.606.397-1.246.738-1.913 1.021a5.526 5.526 0 0 1-.977.286c.633-.967 1.416-2.158 2.18-3.309 1.022-1.541 2.017-3.02 2.538-3.746l.012-.016a1.298 1.298 0 0 0-.267-1.802 1.3 1.3 0 0 0-1.807.235l-.173.22c-.017.023-.021.05-.037.074-.797 1.13-2.199 3.238-3.459 5.15-.73 1.109-1.399 2.13-1.863 2.841a26.26 26.26 0 0 1-1.753 2.34 44.627 44.627 0 0 1-4.767 4.402 1.266 1.266 0 0 0-.245.192 64.892 64.892 0 0 1-7.724 5.309 68.637 68.637 0 0 1-24.917 8.753c-4.176.611-8.39.918-12.61.917a66.983 66.983 0 0 1-19.923-2.794c-6.871-2.179-13.414-5.891-18.22-12.069a33.818 33.818 0 0 1-5.421-10.326 1.3 1.3 0 0 0-2.472.805 36.417 36.417 0 0 0 5.842 11.118c5.206 6.695 12.266 10.665 19.486 12.95a69.5 69.5 0 0 0 20.708 2.916 89.537 89.537 0 0 0 12.983-.944 71.287 71.287 0 0 0 28.565-10.755 66.8 66.8 0 0 0 4.962-3.556c1.021.304 2.08.458 3.145.458a21.586 21.586 0 0 0 6-1.109 19.088 19.088 0 0 1 5.192-1.009 7.765 7.765 0 0 1 1.765.196 7.153 7.153 0 0 1 3.253 1.765c1.419 1.253 2.65 3.061 4.427 4.66a11.165 11.165 0 0 0 3.204 2.051 11.65 11.65 0 0 0 4.493.829c.28 0 .567-.008.861-.024 5.865-.322 8.626-1.082 10.535-1.064a6.556 6.556 0 0 1 1.638.196c.67.178 1.32.426 1.939.739a1.286 1.286 0 0 0 .993.06 1.3 1.3 0 0 0 .143-2.398 12.55 12.55 0 0 0-2.443-.923 9.141 9.141 0 0 0-2.27-.274c-.112.001-.224.005-.337.009l.315-2.651c.027-.001.05-.005.077-.005.929.016 1.855.122 2.764.318a17.448 17.448 0 0 1 1.201.291l.063.018.015.004a1.302 1.302 0 0 0 1.615-.866 1.301 1.301 0 0 0-.855-1.62 19.099 19.099 0 0 0-4.572-.736l.343-2.892c.63.039 1.256.119 1.875.239a8.131 8.131 0 0 1 1.977.628 1.287 1.287 0 0 0 .994.074 1.291 1.291 0 0 0 .755-.652 1.311 1.311 0 0 0 .069-.996 1.287 1.287 0 0 0-.656-.751 10.65 10.65 0 0 0-2.627-.852 17.97 17.97 0 0 0-3.517-.332 22.36 22.36 0 0 0-6.305.933c-.982.318-2.004.495-3.035.526a5.002 5.002 0 0 1-1.76-.298 6.738 6.738 0 0 1-2.554-1.84c-.392-.43-.761-.88-1.104-1.349a22.566 22.566 0 0 0 7.866 1.681 14.49 14.49 0 0 0 6.744-1.727 33.19 33.19 0 0 1 5.152-2.069 13.683 13.683 0 0 1 3.474-.679l.191.006a1.302 1.302 0 0 0 1.084-2.137 1.3 1.3 0 0 0-.88-.455Zm-20.874 11.006a7.593 7.593 0 0 0 2.661.46c1.281-.03 2.55-.243 3.771-.633a20.109 20.109 0 0 1 4.078-.758l-.993 8.371c-1.833.249-4.128.611-7.69.801-.249.013-.489.02-.721.02a8.532 8.532 0 0 1-4.398-1.072 18.962 18.962 0 0 1-4.407-4.195c-.75-.87-1.588-1.66-2.501-2.357a9.38 9.38 0 0 0-3.486-1.615 10.438 10.438 0 0 0-2.35-.262c-2.012.09-4.003.463-5.911 1.11-1.704.581-3.482.92-5.281 1.008-.184 0-.369-.011-.553-.022.213-.189.424-.378.623-.56a39.545 39.545 0 0 0 2.458-2.441c.394-.433.707-.804.964-1.134.317.05.637.077.958.079a7.859 7.859 0 0 0 3.54-.923c1.581-.794 2.958-1.871 4.37-2.696a7.703 7.703 0 0 1 7.895-.598c.019.084.048.166.085.244a21.866 21.866 0 0 0 4.461 5.739 8.267 8.267 0 0 0 2.427 1.434Z"/><path fill="#FFE632" d="M180.589 76.693a2.431 2.431 0 0 1-1.933.813 2.948 2.948 0 0 1-1.503-.397 2.243 2.243 0 0 1-1.108-1.95 3.875 3.875 0 0 1 1.258-2.665 4.875 4.875 0 0 1 3.434-1.355 7.72 7.72 0 0 1 4.261 1.47 6.34 6.34 0 0 1 2.869 5.235 6.435 6.435 0 0 1-.839 3.137 11.595 11.595 0 0 1-5.312 4.568 33.732 33.732 0 0 1-11.863 2.843c-8.988.754-20.157.804-22.837.803h-.601a1.3 1.3 0 1 0-.011 2.6h.612c2.718 0 13.91-.047 23.054-.812 7.264-.612 12.291-2.375 15.588-4.761a12.385 12.385 0 0 0 3.645-3.984 9.045 9.045 0 0 0 1.164-4.394 8.928 8.928 0 0 0-4.027-7.399 10.31 10.31 0 0 0-5.703-1.906 7.48 7.48 0 0 0-5.242 2.087 6.445 6.445 0 0 0-2.05 4.533 4.838 4.838 0 0 0 2.371 4.18 5.54 5.54 0 0 0 2.84.767 5.013 5.013 0 0 0 3.987-1.818 1.299 1.299 0 0 0-2.053-1.595h-.001Z"/></svg>