<svg xmlns="http://www.w3.org/2000/svg" width="200" height="200" fill="none"><path fill="#191C22" d="M75.71 178.938c1.168 7 40.834 7.666 39.5-.334l-3.333-20.666-5-5 3.667-2a238.687 238.687 0 0 0 4-39.5c.166-20.335-2.334-29.835-2.334-29.835l-9.333-3.665s4.333-1 8.667-6.835c4.333-5.832 8.666-11.832 8.666-11.832l8.834-16s-4.334-6.668-8.334-2.834a93.602 93.602 0 0 0-6.5 6.834l-2.166-2.5s2.333-22.834 2.333-26.334-5.667-4.167-7.667.666c-2 4.834-4.666 17-4.666 17s-3.666-8-10 .667c0 0-5.84-6.218-10.3 1.833a19.02 19.02 0 0 0-1.7 5.167s-2.166-.167-2.666 3.167c-.5 3.334-.668 20.334 1.666 24.5s4.666 4.666 4.666 4.666-9.5 1.168-11 7c-1.5 5.835-2 37.668-.666 50.335 1.334 12.666.5 18.666 7.666 20.5l-4.5 5.5.5 19.5Z"/><path fill="#BEBEC9" d="m98.559 31.542.002.001h.002l-.004-.001ZM102.638 147.577l.001.002.001.001-.002-.003ZM82.128 149.229v-.002.002Z"/><path fill="#BEBEC9" d="M130.04 42.55a6.344 6.344 0 0 0-2.47-3.223 6.13 6.13 0 0 0-3.36-.971 6.381 6.381 0 0 0-3.807 1.217c-.457.348-1.011.834-1.643 1.413-1.325 1.217-2.955 2.825-4.223 4.097l-.004-.006a3.857 3.857 0 0 0-1.025-.816c.145-1.371.566-5.412.992-9.885.262-2.758.526-5.68.728-8.245.201-2.57.342-4.763.355-6.135v-.069a5.834 5.834 0 0 0-1.482-4.065 4.756 4.756 0 0 0-3.48-1.522 4.859 4.859 0 0 0-3.196 1.22 6.532 6.532 0 0 0-1.987 3.488c-.645 2.717-2.052 8.274-3.295 13.139l-.254.99c-.057-.054-.107-.114-.167-.166a5.995 5.995 0 0 0-3.16-1.468 6.532 6.532 0 0 0-3.099.35 7.739 7.739 0 0 0-3.375 2.564 7.498 7.498 0 0 0-.527-.422 5.536 5.536 0 0 0-3.215-1.136l-.177.004a8.438 8.438 0 0 0-3.643.939 9.094 9.094 0 0 0-3.764 3.974 19.218 19.218 0 0 0-1.743 5.52c-.035.015-.074.026-.109.04a6.41 6.41 0 0 0-1.462.81 3.087 3.087 0 0 0-1.034 1.307 5.143 5.143 0 0 0-.26 1.07 36.411 36.411 0 0 0-.238 4.888c0 3.325.183 7.528.46 11.3.14 1.887.302 3.664.48 5.173.123 1.213.316 2.418.577 3.609a7.173 7.173 0 0 0 1.88 3.28c.446.447.934.851 1.457 1.206-1.49.202-2.962.512-4.407.927a7.272 7.272 0 0 0-5.072 6.329 281.48 281.48 0 0 0-1.616 28.884 180.238 180.238 0 0 0 3.816 38.423c.153.665.468 1.282.918 1.795a7.229 7.229 0 0 0 2.486 1.762c.236.109.5.195.75.292a11.295 11.295 0 0 0-2.184 2.087 8.75 8.75 0 0 0-1.995 5.201 162.602 162.602 0 0 0 .867 19.555 1.3 1.3 0 1 0 2.584-.29v-.001a160.117 160.117 0 0 1-.852-19.218 6.173 6.173 0 0 1 1.438-3.637 8.248 8.248 0 0 1 3.072-2.424 38.479 38.479 0 0 1 14.876-2.758 39.056 39.056 0 0 1 10.308 1.28 7.997 7.997 0 0 1 2.987 1.702 5.822 5.822 0 0 1 1.861 2.871c.947 3.968 1.952 9.659 2.715 14.337a481.83 481.83 0 0 1 1.287 8.354 1.3 1.3 0 0 0 2.574-.367c-.001-.005-.527-3.698-1.295-8.406-.769-4.71-1.775-10.423-2.752-14.521a8.376 8.376 0 0 0-2.656-4.205 11.103 11.103 0 0 0-1.219-.929c.1-.063.218-.117.312-.182a4.146 4.146 0 0 0 1.617-1.844c.122-.321.258-.774.435-1.439a112.277 112.277 0 0 0 2.465-13.959 224.018 224.018 0 0 0 1.558-27.216c0-6.927-.273-14.622-.952-23.027a7.299 7.299 0 0 0-4.582-6.281 39.078 39.078 0 0 0-3.56-1.137 8.216 8.216 0 0 0 2.571-1.71c.228-.235.534-.588.95-1.081 1.438-1.711 4.047-4.984 6.389-8.062a138.859 138.859 0 0 0 3.128-4.25 37.77 37.77 0 0 0 1.084-1.621c.145-.233.27-.445.377-.644.107-.19.198-.389.273-.593l.001-.002c.126-.38.187-.778.181-1.178l-.003-.051.093-.18c.492-.938 2.628-4.954 4.657-8.014.691-1.046 1.621-2.203 2.413-3.354.393-.557.741-1.144 1.042-1.756a4.61 4.61 0 0 0 .5-1.942 2.881 2.881 0 0 0-.17-.99Zm-23.872-15.215c.274-.713.75-1.33 1.371-1.775a2.866 2.866 0 0 1 1.622-.487c.831.009 1.633.31 2.263.852a2.523 2.523 0 0 1 .947 1.907c.006.129.032.256.077.377a594.268 594.268 0 0 1-.398 4.442c-.071-.057-.14-.118-.213-.171a7.05 7.05 0 0 0-4.158-1.322 7.144 7.144 0 0 0-2.73.549c.349-1.368.704-2.766 1.048-4.125.067-.075.124-.158.171-.247Zm-3.833 14.553c0-.003.666-2.576 1.552-6.032.065-.056.125-.117.178-.184a4.012 4.012 0 0 1 1.591-1.445 4.604 4.604 0 0 1 4.639.347 2.977 2.977 0 0 1 1.252 2.098c.02.095.051.187.092.275l-.111 1.121c-.183 1.843-.348 3.447-.466 4.59l-.065.626c-.388-.108-.79-.213-1.223-.31a57.058 57.058 0 0 0-7.456-1.05c.003-.014.013-.023.017-.036Zm5.633-22.24a3.947 3.947 0 0 1 1.163-2.126c.409-.37.939-.576 1.49-.582a2.162 2.162 0 0 1 1.583.7c.545.634.824 1.453.779 2.287v.047c-.007.854-.076 2.175-.184 3.75a6.09 6.09 0 0 0-3.638-1.251 5.532 5.532 0 0 0-1.975.377c.313-1.26.583-2.362.782-3.201ZM96.363 34.333a3.939 3.939 0 0 1 1.864-.211h.004a3.41 3.41 0 0 1 1.781.848c.456.395.814.89 1.047 1.446l-.545 2.122-.696 2.7a1.294 1.294 0 0 0-.028.513 105.752 105.752 0 0 0-5.868-.17c-.735 0-1.463.011-2.185.027.818-3.353 1.963-5.23 3.008-6.23a4.648 4.648 0 0 1 1.618-1.045Zm-12.52 3.456a5.76 5.76 0 0 1 1.895-1.646 5.83 5.83 0 0 1 2.534-.641h.002l.072-.002a2.983 2.983 0 0 1 1.688.64c.2.146.39.307.566.481l.094.098a22.139 22.139 0 0 0-1.653 4.99 55.562 55.562 0 0 0-6.154.629c-.366.062-.718.128-1.06.199a12.54 12.54 0 0 1 2.016-4.748Zm-3.239 34.451a1.777 1.777 0 0 1-.165-.729l.004-.087a.837.837 0 0 1 .123-.346c.25-.36.581-.655.968-.86a11.255 11.255 0 0 1 3.494-1.195c1.73-.32 3.487-.475 5.246-.461 1.34.001 2.68.074 4.013.218 3.32.297 6.57 1.131 9.623 2.47a9.829 9.829 0 0 1 2.648 1.725c.228.215.42.464.572.739.085.15.132.318.138.49l-.004.077v.003a.771.771 0 0 1-.068.23 5.959 5.959 0 0 1-1.878 1.173 13.3 13.3 0 0 1-2.255.693c-.009-.272-.018-.549-.03-.812-.014-.324-.03-.626-.05-.89a9.594 9.594 0 0 0-.037-.377 2.77 2.77 0 0 0-.088-.45 2.02 2.02 0 0 0-.494-.843 2.958 2.958 0 0 0-.859-.6 8.915 8.915 0 0 0-1.527-.54 35.431 35.431 0 0 0-6.138-.981h.001a46.874 46.874 0 0 0-3.364-.13 20.57 20.57 0 0 0-3.256.211c-.457.069-.905.191-1.334.365a2.903 2.903 0 0 0-.698.416 2.18 2.18 0 0 0-.678.942 3.213 3.213 0 0 0-.107.37c-.085.373-.147.791-.216 1.276a86.71 86.71 0 0 0-.08.594 11.81 11.81 0 0 1-.939-.46 8.435 8.435 0 0 1-2.021-1.498 5.527 5.527 0 0 1-.509-.623c-.016-.036-.015-.075-.035-.11Zm7.027 1.39.035-.233c.93-.145 1.87-.21 2.811-.19.961-.001 2.032.042 3.112.12h.002c1.556.117 3.104.338 4.63.662.455.097.904.216 1.346.357.02.347.035 1.755.048 2.174a76.332 76.332 0 0 0-11.744-.963c-.123 0-.245.004-.367.004.043-.326.086-1.647.127-1.932Zm-11.248 77.055a1.515 1.515 0 0 1-.353-.663c-.03-.132-.052-.264-.08-.396.008-.213.071-.42.184-.601a4.928 4.928 0 0 1 1.74-1.565 20.876 20.876 0 0 1 5.929-2.199 44.57 44.57 0 0 1 8.564-1.062 46.637 46.637 0 0 1 1.578-.025 35.815 35.815 0 0 1 11.185 1.562c1.119.346 2.171.882 3.109 1.584.267.209.496.462.678.748.108.167.17.359.181.558.009.064.024.127.044.188l-.031.121c-.16.608-.293 1.03-.349 1.173a1.89 1.89 0 0 1-.659.629 9.856 9.856 0 0 1-1.844.934 33.168 33.168 0 0 0-3.127-.688c-.049-.429-.105-1.018-.161-1.565a26.861 26.861 0 0 0-.106-.904 6.853 6.853 0 0 0-.064-.393l-.049-.215a1.988 1.988 0 0 0-.667-1.053 2.819 2.819 0 0 0-.84-.468 8.024 8.024 0 0 0-1.39-.347 36.589 36.589 0 0 0-5.737-.401c-.629 0-1.254.013-1.857.041h.001a27.725 27.725 0 0 0-6.17.989c-.769.211-1.517.489-2.236.833a4.98 4.98 0 0 0-.893.557 2.87 2.87 0 0 0-.435.43c-.18.22-.316.472-.4.742-.04.132-.07.267-.094.402-.075.421-.119.9-.162 1.451-.036.453-.065.931-.09 1.385-.285.097-.565.202-.846.306a1.323 1.323 0 0 0-.17-.079 12.677 12.677 0 0 1-3.465-1.273 3.708 3.708 0 0 1-.918-.736Zm8.922.773.023-.318c.017-.207.036-1.086.054-1.244.242-.121.492-.227.748-.318a22.988 22.988 0 0 1 6.29-1.154 37.268 37.268 0 0 1 1.698-.037c1.47-.005 2.938.075 4.399.24.385.047.721.103.99.156.035.32.071 1.377.109 1.748a48.357 48.357 0 0 0-4.165-.184 45.562 45.562 0 0 0-10.146 1.111Zm26.799-65.853c.674 8.334.944 15.959.944 22.818.05 9.929-.587 19.85-1.907 29.69-.411 2.924-.836 5.34-1.217 7.238a9.168 9.168 0 0 0-1.3-.903 20.93 20.93 0 0 0-6.246-2.116 44.423 44.423 0 0 0-8.433-.758c-.547 0-1.1.008-1.66.026a41.233 41.233 0 0 0-12.938 2.288 14.282 14.282 0 0 0-4.1 2.264 183.223 183.223 0 0 1-2.972-33.992 278.92 278.92 0 0 1 1.604-28.628A4.677 4.677 0 0 1 77.1 79.44a39.222 39.222 0 0 1 10.77-1.283c3.952.017 7.896.35 11.795.997a51.791 51.791 0 0 1 9.525 2.391 4.705 4.705 0 0 1 2.913 4.06Zm6.768-26.447-.034.076c-.213.404-.449.794-.707 1.17-1.249 1.89-3.705 5.147-5.976 8.048a253.927 253.927 0 0 1-2.946 3.698 7.243 7.243 0 0 0-1.903-1.927 19.496 19.496 0 0 0-5.397-2.533 37.789 37.789 0 0 0-7.347-1.495 40.553 40.553 0 0 0-4.288-.233 25.406 25.406 0 0 0-8.217 1.171 9.134 9.134 0 0 0-2.517 1.313c-.034-.266-.069-.534-.103-.823a161.624 161.624 0 0 1-.921-16.17c0-1.317.03-2.48.093-3.377.031-.448.071-.83.116-1.119.022-.175.06-.349.112-.518.089-.114.2-.21.325-.282a7.526 7.526 0 0 1 2.067-.812 34.155 34.155 0 0 1 5.557-.875c2.19-.195 4.64-.289 7.136-.289 4.342-.023 8.68.277 12.978.895 1.485.208 2.947.548 4.371 1.017.389.13.761.307 1.108.526.054.036.105.077.151.122.163.759.236 1.534.215 2.31a51.915 51.915 0 0 1-.764 7.577 95.851 95.851 0 0 1-.704 3.851l-.065.31a1.312 1.312 0 0 0 .179.979 1.3 1.3 0 0 0 2.363-.432c.003-.015.398-1.85.794-4.293.209-1.297.415-2.76.568-4.222.306.16.596.352.863.572a8.644 8.644 0 0 1 2.142 2.776c.447.824.715 1.733.787 2.668.004.108-.008.216-.036.32Zm1.637-4.008a11.995 11.995 0 0 0-1.76-2.68 7.824 7.824 0 0 0-3.441-2.371c.013-.351.037-.714.037-1.048a19.915 19.915 0 0 0-.032-1.057c.718-.728 1.751-1.767 2.84-2.833.103-.017.208-.028.313-.032a3.572 3.572 0 0 1 1.679.48 7.33 7.33 0 0 1 2.339 2.128c.273.375.503.779.685 1.205.117.257.187.533.206.815l-.001.027c.002.129.023.257.063.38a100.77 100.77 0 0 0-2.928 4.986Zm6.849-10.776a14.765 14.765 0 0 1-1.403 2.193c-.202.276-.417.565-.629.851-.009-.016-.015-.032-.023-.049a10.216 10.216 0 0 0-2.683-3.225 8.081 8.081 0 0 0-2.123-1.222l.021-.02c.6-.55 1.128-1.009 1.457-1.257h.001a3.822 3.822 0 0 1 2.234-.688 3.53 3.53 0 0 1 1.94.55 3.737 3.737 0 0 1 1.448 1.935l.012.098a2.144 2.144 0 0 1-.252.834Z"/></svg>