<svg width="200" height="200" viewBox="0 0 200 200" xmlns="http://www.w3.org/2000/svg"><g id="type=offer-personal, mode=light"><path id="Vector" d="M133.254 130.401C133.254 132.497 139.018 134.196 146.129 134.196C153.239 134.196 159.004 132.497 159.004 130.401C159.004 128.305 153.239 125.21 146.129 125.21C139.018 125.21 133.254 128.305 133.254 130.401Z"/><path id="Vector_2" d="M117.274 164.036C115.156 160.763 115.064 158.783 118.655 157.261C122.246 155.738 122.798 155.206 124.087 153.607C125.376 152.009 129.152 151.628 131.178 152.161C134.178 150.503 137.661 149.938 141.031 150.563C142.519 150.824 143.938 151.383 145.204 152.208C146.47 153.032 147.556 154.104 148.397 155.358C148.397 155.358 153.553 155.435 156.316 157.108C159.079 158.783 158.894 159.925 158.894 159.925C158.894 159.925 163.314 160.077 164.143 162.514C164.64 163.974 164.766 165.535 164.511 167.057C164.511 167.057 145.819 169.441 134.954 167.918C128.958 167.145 123.042 165.846 117.274 164.036Z"/><path id="Vector_3" d="M85.4997 96.25C109.231 102.003 125.5 91.25 128.5 81.25C131.5 71.25 124.25 58.25 96.9997 58.25C96.9997 58.25 65.7497 47.75 56.4997 63C47.2497 78.25 68.9997 92.25 85.4997 96.25Z"/><path id="Vector_4" d="M102.007 111.354C107.669 111.46 113.314 110.702 118.748 109.107C124.884 107.363 130.254 103.606 133.997 98.4407C137.352 93.6998 139.123 88.016 139.981 81.9182L138.694 81.7373L139.981 81.9181C140.31 79.6461 140.48 77.354 140.491 75.0584C140.549 71.049 139.847 67.065 138.42 63.3176C136.223 57.7433 132.06 52.7654 125.332 48.8123C118.602 44.8518 109.32 41.8667 96.7156 40.0935C91.6732 39.3522 86.5853 38.9628 81.4889 38.928C75.8243 38.821 70.1766 39.5795 64.741 41.1773C58.6162 42.9211 53.2601 46.683 49.5416 51.8528C46.2071 56.5958 44.4553 62.2787 43.5984 68.3717C43.2729 70.6199 43.1047 72.8881 43.0951 75.1597C43.0373 79.1798 43.7443 83.1742 45.1787 86.9301C47.3858 92.5182 51.5609 97.5084 58.29 101.47C65.0216 105.439 74.2937 108.429 86.8635 110.196C91.8783 110.933 96.9383 111.32 102.007 111.354ZM56.4353 50.2317C57.3822 49.338 58.3992 48.5216 59.4765 47.7903C59.6176 47.6926 59.7767 47.6238 59.9445 47.5878C60.1124 47.5519 60.2857 47.5496 60.4544 47.581C60.6232 47.6124 60.784 47.6769 60.9277 47.7708C61.0714 47.8647 61.1951 47.9861 61.2916 48.128C61.3881 48.27 61.4556 48.4296 61.4901 48.5978C61.5246 48.7659 61.5254 48.9392 61.4926 49.1077C61.4598 49.2762 61.3939 49.4365 61.2988 49.5794C61.2037 49.7222 61.0812 49.8449 60.9385 49.9402C59.9758 50.5936 59.067 51.3231 58.2209 52.1217L58.2209 52.1218C57.9702 52.3583 57.6359 52.4855 57.2914 52.4756C56.9469 52.4657 56.6205 52.3194 56.3838 52.0689C56.1472 51.8183 56.0196 51.4841 56.0293 51.1396C56.0389 50.7951 56.185 50.4686 56.4353 50.2317L56.4353 50.2317ZM124.336 102.294C124.055 102.49 123.77 102.681 123.479 102.867C122.126 103.729 120.702 104.473 119.222 105.092L119.22 105.093C118.9 105.226 118.573 105.358 118.24 105.485C118.08 105.545 117.911 105.574 117.74 105.569C117.569 105.564 117.401 105.525 117.245 105.456C117.09 105.386 116.949 105.286 116.832 105.162C116.715 105.037 116.623 104.891 116.563 104.732C116.502 104.572 116.473 104.402 116.478 104.232C116.483 104.061 116.522 103.893 116.592 103.737C116.662 103.581 116.762 103.441 116.886 103.324C117.01 103.207 117.156 103.115 117.316 103.054C117.619 102.939 117.918 102.819 118.214 102.695C119.556 102.134 120.849 101.46 122.076 100.678C122.34 100.509 122.596 100.338 122.847 100.163L122.847 100.163C122.987 100.065 123.145 99.995 123.312 99.9579C123.478 99.9208 123.651 99.917 123.819 99.9467C123.988 99.9763 124.149 100.039 124.293 100.131C124.437 100.223 124.561 100.342 124.659 100.482C124.757 100.623 124.827 100.781 124.863 100.948C124.9 101.115 124.903 101.287 124.873 101.455C124.843 101.624 124.78 101.784 124.688 101.928C124.596 102.072 124.476 102.197 124.336 102.294H124.336ZM100.342 75.5535C100.999 72.5621 102.675 69.8919 105.083 67.9992C107.227 66.38 109.844 65.5102 112.531 65.5238C114.8 65.5206 117.028 66.1224 118.986 67.2671C121.029 68.456 122.656 70.2472 123.643 72.3957C124.347 73.9635 124.705 75.6645 124.693 77.3832C124.691 78.2785 124.606 79.1717 124.438 80.0512C124.292 80.8332 123.84 81.5249 123.184 81.9742C122.527 82.4234 121.719 82.5934 120.937 82.4467C120.155 82.3 119.463 81.8487 119.014 81.192C118.564 80.5353 118.394 79.727 118.541 78.945C118.64 78.4303 118.691 77.9074 118.694 77.3832C118.706 76.5224 118.531 75.6691 118.182 74.8821C117.871 74.2021 117.42 73.5955 116.859 73.1022C115.653 72.0726 114.117 71.5122 112.531 71.5237C111.158 71.5101 109.818 71.9489 108.719 72.7723C107.403 73.8309 106.501 75.318 106.171 76.9738L106.171 76.9739C106.078 77.3567 105.91 77.7174 105.677 78.0353C105.445 78.3532 105.152 78.6222 104.815 78.827C104.479 79.0317 104.105 79.1681 103.716 79.2284C103.326 79.2887 102.929 79.2717 102.546 79.1785C102.163 79.0852 101.803 78.9175 101.485 78.6848C101.167 78.4522 100.898 78.1592 100.693 77.8226C100.488 77.486 100.352 77.1123 100.292 76.723C100.231 76.3337 100.248 75.9363 100.342 75.5535L100.342 75.5535ZM96.85 89.9512C97.1196 89.7363 97.4636 89.6374 97.8061 89.6761C97.9758 89.6953 98.14 89.7477 98.2893 89.8303C98.4387 89.9129 98.5704 90.0242 98.6767 90.1577C98.7831 90.2912 98.8622 90.4443 98.9094 90.6084C98.9566 90.7724 98.971 90.9442 98.9518 91.1138C98.9327 91.2834 98.8803 91.4476 98.7976 91.597C98.715 91.7464 98.6038 91.878 98.4703 91.9844C96.3248 93.6741 93.6691 94.585 90.9382 94.5678C88.9884 94.5956 87.0616 94.1451 85.3264 93.2557C83.5911 92.3663 82.1003 91.0652 80.9844 89.4661C80.7927 89.1795 80.7227 88.8285 80.7897 88.4903C80.8568 88.1521 81.0555 87.8544 81.342 87.6627C81.6286 87.471 81.9796 87.4009 82.3178 87.468C82.656 87.535 82.9537 87.7337 83.1454 88.0203C84.0242 89.2636 85.1937 90.2732 86.5519 90.9612C87.9101 91.6492 89.4159 91.9948 90.9381 91.9678C93.0804 91.985 95.1649 91.2739 96.8499 89.9511L96.85 89.9512ZM83.3285 70.6522C83.3263 71.5474 83.2409 72.4404 83.0736 73.3198C82.9266 74.1016 82.4752 74.793 81.8185 75.242C81.1619 75.691 80.3538 75.8608 79.572 75.7141C78.7901 75.5674 78.0986 75.1162 77.6493 74.4597C77.2001 73.8033 77.03 72.9952 77.1764 72.2133C77.2753 71.6988 77.3263 71.1762 77.3286 70.6522C77.3408 69.7912 77.1663 68.9379 76.8171 68.1508C76.5065 67.4707 76.0554 66.864 75.4936 66.3707C74.288 65.341 72.7517 64.7806 71.1663 64.7922C69.7928 64.7786 68.4529 65.2174 67.3535 66.0408C66.038 67.0995 65.1363 68.5866 64.8057 70.2425L64.8058 70.2426C64.6174 71.0156 64.1297 71.6821 63.4498 72.0955C62.77 72.509 61.9538 72.6354 61.1807 72.447C60.4077 72.2586 59.7412 71.7708 59.3278 71.091C58.9144 70.4112 58.7879 69.595 58.9763 68.8219C59.6338 65.8305 61.3098 63.1603 63.7178 61.2677C65.8622 59.6485 68.4793 58.7788 71.1663 58.7924C73.4345 58.7892 75.6626 59.391 77.6207 60.5358C79.6643 61.7247 81.2908 63.5159 82.2777 65.6644C82.982 67.2323 83.3404 68.9335 83.3285 70.6522L83.3285 70.6522ZM80.0135 44.7318C75.5972 44.8075 71.2175 45.547 67.0212 46.9254L67.0213 46.9255C66.6961 47.038 66.3396 47.017 66.0299 46.8671C65.7202 46.7172 65.4825 46.4507 65.369 46.1259C65.2555 45.8011 65.2753 45.4445 65.4242 45.1343C65.5731 44.8241 65.8389 44.5856 66.1633 44.471C70.6063 43.0059 75.2445 42.2179 79.9221 42.1334C80.0928 42.1272 80.2631 42.1547 80.4232 42.2144C80.5833 42.274 80.7301 42.3646 80.8551 42.481C80.9802 42.5975 81.0811 42.7374 81.152 42.8928C81.2229 43.0482 81.2626 43.2161 81.2686 43.3869C81.2746 43.5576 81.2469 43.7279 81.187 43.8879C81.1272 44.0479 81.0364 44.1946 80.9198 44.3195C80.8033 44.4444 80.6632 44.5451 80.5077 44.6159C80.3522 44.6866 80.1843 44.726 80.0135 44.7318H80.0135Z"/><path id="Vector_5" d="M183.55 157.776C183.531 156.741 183.207 155.733 182.62 154.88C181.483 153.325 180.004 152.052 178.297 151.159C179.298 149.506 179.835 147.614 179.85 145.681C179.886 143.829 179.302 142.017 178.193 140.533C177.537 139.723 176.673 139.106 175.695 138.748C174.672 138.368 173.588 138.18 172.497 138.193C170.612 138.213 168.754 138.655 167.062 139.487C166.563 139.731 166.08 140.006 165.616 140.31C165.736 139.89 165.855 139.467 165.988 139.071C166.25 138.193 166.624 137.352 167.099 136.569C167.123 136.535 167.127 136.495 167.146 136.46C167.328 136.281 167.495 136.088 167.648 135.883C168.065 135.306 168.294 134.614 168.304 133.901C168.287 133.189 168.076 132.495 167.694 131.894C166.916 130.73 165.896 129.747 164.704 129.011C162.283 127.481 159.639 126.336 156.866 125.618C153.367 124.663 149.756 124.181 146.129 124.184C140.878 124.147 135.675 125.184 130.84 127.231C129.094 127.965 127.471 128.961 126.026 130.185C125.936 130.266 125.866 130.351 125.781 130.433C125.314 130.865 124.905 131.356 124.564 131.894C124.182 132.495 123.971 133.189 123.954 133.901C123.964 134.614 124.193 135.306 124.61 135.883C124.734 136.048 124.868 136.205 125.01 136.355C125.034 136.429 125.065 136.5 125.103 136.568C125.921 137.93 126.499 139.423 126.812 140.981C127.248 142.737 127.598 144.743 127.973 146.782C125.789 147.245 123.633 147.829 121.515 148.532C121.064 148.686 120.627 148.844 120.199 149.004C119.252 146.812 118.428 144.569 117.729 142.285C118.669 141.649 119.427 140.779 119.928 139.761C120.402 138.778 120.646 137.7 120.64 136.609C120.65 135.013 120.145 133.456 119.2 132.169C118.723 131.529 118.12 130.993 117.428 130.595C116.812 130.249 116.133 130.03 115.432 129.949C115.427 129.439 115.543 128.934 115.77 128.477C115.9 128.271 116.071 128.093 116.271 127.954C116.471 127.814 116.697 127.717 116.936 127.667C117.465 127.508 118.014 127.429 118.566 127.43C120.264 127.507 121.904 128.064 123.298 129.036C123.588 129.219 123.94 129.28 124.276 129.205C124.611 129.13 124.903 128.925 125.088 128.635C125.272 128.345 125.335 127.994 125.261 127.658C125.187 127.322 124.984 127.029 124.695 126.843L124.694 126.843C122.885 125.603 120.759 124.904 118.566 124.83C117.761 124.829 116.96 124.945 116.188 125.177C115.078 125.469 114.125 126.18 113.528 127.161C113.374 127.432 113.247 127.719 113.15 128.016C112.938 127.624 112.691 127.252 112.413 126.904C112.086 126.488 111.671 126.149 111.198 125.909C110.686 125.677 110.153 125.492 109.607 125.355C106.578 124.671 103.5 124.228 100.402 124.029C99.1745 123.925 97.8746 123.839 96.5495 123.761V121.761C98.3786 121.857 100.172 121.923 101.889 121.923C109.107 122.066 116.297 120.984 123.153 118.725C131.286 116.016 138.243 110.599 142.862 103.378C143.943 101.689 144.908 99.9284 145.75 98.1086C145.928 98.2318 146.135 98.3073 146.35 98.3279C146.375 98.3296 146.722 98.3543 147.265 98.3543C148.154 98.3567 149.042 98.2874 149.92 98.1469C151.027 97.9909 152.093 97.6193 153.058 97.053C153.666 96.6365 154.199 96.1193 154.634 95.5236C155.503 94.3518 156.237 93.0852 156.821 91.7482C157.589 90.0369 158.211 88.2639 158.68 86.4479C159.374 83.9053 159.751 81.2866 159.802 78.6514C159.856 77.3703 159.656 76.0913 159.213 74.8877C158.79 73.9809 158.175 73.1762 157.412 72.5289C157.4 72.5181 157.387 72.5096 157.374 72.4989C158.219 71.7757 158.911 70.8907 159.408 69.896C160.281 68.1405 160.93 66.2826 161.342 64.3656C163.644 54.695 167.641 37.2308 168.673 32.2696C168.802 31.6719 168.869 31.0625 168.874 30.4511C168.918 29.206 168.503 27.9881 167.708 27.0291C167.004 26.2496 166.078 25.705 165.054 25.4687C164.573 25.3447 164.079 25.2813 163.582 25.28C162.451 25.2664 161.349 25.6449 160.465 26.351C159.436 27.2381 158.733 28.4431 158.467 29.7751C157.474 33.904 153.873 49.87 151.533 60.2816C151.167 56.976 150.454 53.7181 149.406 50.5619C146.595 42.2108 141.066 35.0425 133.704 30.2013C125.655 24.717 114.594 20.7272 99.7307 18.6375C94.5777 17.8867 89.3785 17.4962 84.1711 17.4687C76.7374 17.3215 69.3368 18.4963 62.3141 20.9384C53.9323 23.92 46.8141 29.6644 42.1297 37.2276C40.599 39.6982 39.2905 42.2997 38.2197 45.0015C38.8381 34.3751 39.8124 17.455 40 13.1255C40.0055 12.9968 40.0083 12.8705 40.0082 12.7465C40.0203 11.9184 39.8751 11.0955 39.5802 10.3215C39.1934 9.32158 38.4836 8.47948 37.5637 7.92888C36.7397 7.44946 35.807 7.18836 34.854 7.17034L34.66 7.16717C34.0605 7.16239 33.4643 7.25613 32.8952 7.44464C31.9387 7.76708 31.1174 8.40008 30.5621 9.24297C29.9142 10.2874 29.5487 11.4823 29.5015 12.7105C29.1264 17.764 28.1535 35.6526 27.7018 45.5835C27.6749 46.176 27.6615 46.7373 27.6618 47.2672C27.5839 49.3208 27.8861 51.3711 28.5534 53.3148C28.7845 53.9174 29.1019 54.4833 29.4955 54.9948C28.8436 55.3645 28.2611 55.8451 27.7744 56.4149C27.3205 56.9947 26.957 57.6399 26.6961 58.3284C25.6411 61.3315 25.1019 64.4914 25.1012 67.6744C25.0944 67.9599 25.0911 68.2426 25.0912 68.5226C25.075 70.7601 25.3064 72.9925 25.781 75.1791C25.9654 76.0159 26.2181 76.8362 26.5364 77.6318C26.7843 78.2807 27.1376 78.8844 27.5821 79.4184C28.6594 80.5027 29.9737 81.3222 31.4215 81.8124C32.1358 82.0833 32.8676 82.3058 33.6119 82.4783C34.015 85.0453 34.6496 87.5706 35.508 90.0232C38.4177 98.1541 44.0131 105.05 51.3705 109.572C58.149 113.947 67.0356 117.313 78.4647 119.52V123.794C76.7712 123.9 75.1443 124.028 73.6338 124.175C71.5415 124.38 69.6685 124.622 68.1177 124.902C67.3418 125.042 66.6464 125.192 66.0365 125.355C65.4906 125.492 64.9579 125.677 64.445 125.909C63.9726 126.149 63.558 126.488 63.2302 126.904C62.7871 127.468 62.414 128.084 62.1191 128.737C61.7833 128.219 61.3285 127.788 60.7925 127.482C59.7399 126.942 58.5647 126.685 57.3828 126.738C57.0815 126.738 56.7676 126.749 56.4411 126.771C54.5364 126.939 52.7039 127.581 51.11 128.637C48.5568 130.355 46.3571 132.548 44.6302 135.096C42.8852 137.559 41.4622 140.236 40.3958 143.061C40.1168 143.026 39.836 143.007 39.5549 143.006C39.467 143.006 39.3791 143.012 39.2911 143.016C38.7541 141.817 38.3396 140.566 38.0541 139.284C37.7582 137.423 37.0412 135.655 35.958 134.113C35.5194 133.524 34.9701 133.027 34.341 132.649C33.7473 132.295 33.0703 132.106 32.3793 132.1C31.6788 132.105 30.9933 132.303 30.3989 132.674C29.9119 132.965 29.5223 133.394 29.2792 133.907C29.0725 134.365 28.9697 134.863 28.9782 135.365C29.0397 136.381 29.2484 137.382 29.5979 138.338C29.8648 139.061 30.0446 139.813 30.1337 140.579L30.136 140.749C30.1654 141.382 30.024 142.012 29.7266 142.572C29.6613 142.687 29.5719 142.787 29.4646 142.864L29.3546 142.903C29.3241 142.903 29.2986 142.918 29.2686 142.92C28.9118 142.902 28.5534 142.886 28.1907 142.885C27.0755 142.873 25.9622 142.983 24.8709 143.213C24.3681 143.322 23.8784 143.485 23.4099 143.698C22.9377 143.908 22.5134 144.213 22.1629 144.593L22.1629 144.593L22.1626 144.593L22.1626 144.593C21.7751 145.055 21.4757 145.584 21.2796 146.154C20.9548 147.096 20.7384 148.072 20.6347 149.063C20.507 150.166 20.4451 151.277 20.4494 152.388C20.447 153.765 20.5325 155.14 20.7052 156.506C20.7872 157.129 20.8869 157.705 21.0066 158.22C21.1087 158.694 21.2574 159.157 21.4507 159.602C21.6708 160.082 21.9907 160.509 22.3891 160.855C22.9568 161.331 23.6276 161.668 24.3484 161.84C25.0572 162.013 25.785 162.096 26.5146 162.088C27.9047 162.064 29.2871 161.877 30.6333 161.53C30.6527 161.525 30.6697 161.52 30.6889 161.515C30.7586 161.728 30.8839 161.919 31.0519 162.069C33.0232 163.611 35.4646 164.429 37.9673 164.386C39.9215 164.409 41.8442 163.892 43.5231 162.892C44.1128 162.528 44.6578 162.097 45.1468 161.607C46.0436 161.863 46.9715 161.995 47.9042 161.997C49.8472 162.005 51.7477 161.429 53.36 160.344C54.9472 159.234 56.1889 157.698 56.9425 155.913C56.308 162.891 55.9405 170.332 55.9395 177.329C55.8959 182.797 56.1855 188.262 56.807 193.695C56.8514 194.036 57.0292 194.346 57.3013 194.556C57.5735 194.766 57.9179 194.86 58.259 194.817C58.6002 194.774 58.9104 194.597 59.1217 194.326C59.333 194.055 59.4282 193.711 59.3864 193.369L59.3864 193.369C59.1252 191.305 58.9312 189.042 58.793 186.651C58.6232 183.712 58.5394 180.576 58.5396 177.329C58.5396 177.186 58.5415 177.041 58.5418 176.898C62.4884 178.038 66.5364 178.792 70.6288 179.149C75.913 179.663 81.2199 179.91 86.5291 179.889C93.377 179.906 100.22 179.542 107.028 178.798C109.539 178.505 111.743 178.161 113.589 177.778C113.658 177.771 113.724 177.768 113.793 177.761L113.827 177.758L113.827 177.758C113.844 177.756 113.86 177.755 113.877 177.753C113.985 177.733 114.089 177.7 114.188 177.653C114.269 177.635 114.363 177.618 114.442 177.6C115.321 177.407 116.187 177.16 117.036 176.862C117.06 176.853 117.077 176.843 117.101 176.835C117.101 176.998 117.104 177.165 117.104 177.328C117.138 182.401 116.888 187.473 116.355 192.518C116.322 192.802 116.292 193.093 116.257 193.369C116.214 193.711 116.308 194.056 116.52 194.329C116.731 194.601 117.042 194.779 117.384 194.822C117.726 194.865 118.071 194.771 118.344 194.56C118.616 194.348 118.793 194.037 118.837 193.695L118.837 193.695C119.458 188.262 119.748 182.796 119.704 177.328C119.704 175.069 119.664 172.763 119.59 170.441C121.423 171.364 123.326 172.141 125.281 172.762C127.253 173.399 129.266 173.905 131.305 174.276C132.296 174.823 133.343 175.26 134.428 175.581C134.552 176.143 134.72 176.693 134.932 177.228C135.213 177.955 135.624 178.625 136.143 179.206C136.479 179.555 136.874 179.842 137.309 180.055C138.006 180.393 138.739 180.646 139.495 180.811C139.601 180.836 139.719 180.854 139.827 180.877C139.843 180.908 139.851 180.945 139.868 180.975C140.208 181.528 140.692 181.979 141.268 182.279C142.111 182.722 143.017 183.032 143.954 183.198C144.872 183.379 145.805 183.473 146.74 183.477C147.095 183.479 147.449 183.461 147.801 183.422C148.968 183.327 150.103 182.991 151.134 182.436C152.362 182.384 153.586 182.253 154.797 182.046C155.348 181.939 155.876 181.738 156.358 181.451C157.251 180.889 157.955 180.073 158.38 179.107C158.856 178.028 159.165 176.881 159.295 175.708C160.526 175.371 161.712 174.89 162.831 174.275C166.156 173.671 169.404 172.705 172.519 171.395C175.145 170.328 177.566 168.815 179.676 166.922C181.868 164.985 183.241 162.285 183.513 159.372C183.525 159.179 183.492 158.986 183.418 158.807C183.501 158.47 183.546 158.124 183.55 157.777L183.55 157.776ZM178.685 154.518C179.366 155.011 179.961 155.615 180.444 156.304C180.755 156.734 180.93 157.246 180.95 157.776C180.934 158.286 180.762 158.778 180.457 159.186C179.416 160.467 178.077 161.475 176.558 162.121C173.1 163.691 169.455 164.81 165.711 165.448C165.717 165.262 165.722 165.071 165.723 164.877L165.723 164.866H165.723L165.723 164.849C165.753 163.527 165.326 162.236 164.514 161.193C163.787 160.314 162.842 159.641 161.774 159.239L162.174 158.039C162.912 158.167 163.659 158.231 164.407 158.231C165.673 158.222 166.933 158.07 168.163 157.776C169.141 157.548 170.103 157.256 171.042 156.902C173.187 156.136 175.127 154.886 176.71 153.248C177.398 153.623 178.058 154.047 178.685 154.518H178.685ZM117.488 162.091L117.488 162.091C117.449 161.874 117.422 161.655 117.408 161.435C117.384 161.14 117.371 160.818 117.371 160.598L117.375 160.422L117.375 160.417C117.384 160.21 117.445 160.008 117.551 159.829C117.825 159.43 118.204 159.113 118.646 158.916C119.482 158.523 120.371 158.256 121.285 158.123C120.9 159.952 120.857 161.837 121.158 163.682C119.906 163.274 118.68 162.786 117.49 162.221C117.492 162.178 117.491 162.134 117.488 162.091H117.488ZM123.56 161.237C123.546 159.164 124.066 157.123 125.069 155.31C125.087 155.263 125.103 155.215 125.116 155.165C125.476 154.79 125.913 154.495 126.396 154.302C127.198 153.992 128.054 153.844 128.914 153.867C129.312 153.869 129.709 153.891 130.105 153.934C129.628 154.714 129.217 155.533 128.877 156.382C128.066 158.45 127.644 160.651 127.63 162.872C127.63 163.72 127.708 164.565 127.864 165.398C126.506 165.132 125.221 164.839 124.009 164.519C123.705 163.452 123.554 162.347 123.56 161.237H123.56ZM130.23 162.872C130.244 160.976 130.605 159.098 131.297 157.331C131.965 155.53 133.063 153.92 134.496 152.641C134.502 152.635 134.505 152.627 134.511 152.621C135.43 152.214 136.397 151.928 137.388 151.769C137.89 151.688 138.397 151.648 138.904 151.65C140.386 151.664 141.854 151.936 143.243 152.453C144.369 152.83 145.399 153.448 146.259 154.266C146.396 154.41 146.513 154.572 146.609 154.747C145.759 155.178 144.996 155.76 144.355 156.465C143.258 157.715 142.44 159.184 141.954 160.774C141.46 162.311 141.206 163.915 141.201 165.53C141.2 166.009 141.226 166.487 141.278 166.963C137.725 166.798 134.184 166.441 130.669 165.895C130.363 164.917 130.215 163.897 130.231 162.872H130.23ZM143.801 165.53C143.804 163.734 144.184 161.959 144.916 160.319C145.259 159.554 145.717 158.845 146.274 158.219C146.769 157.661 147.381 157.219 148.065 156.923C148.093 156.912 148.111 156.888 148.138 156.874C148.28 156.862 148.768 156.824 149.471 156.824C151.03 156.802 152.583 157.024 154.073 157.482C154.428 157.602 154.774 157.748 155.107 157.919C154.637 158.273 154.235 158.709 153.92 159.206C152.483 161.459 151.712 164.073 151.696 166.745C151.696 166.83 151.702 166.917 151.704 167.002C150.139 167.067 148.543 167.1 146.917 167.101C145.91 167.102 144.915 167.086 143.929 167.061C143.845 166.555 143.802 166.043 143.801 165.53H143.801ZM154.296 166.746C154.297 166.01 154.372 165.277 154.522 164.558C154.807 163.157 155.345 161.82 156.107 160.612C156.299 160.281 156.58 160.011 156.918 159.831L156.941 159.818C156.982 159.801 157.023 159.788 157.066 159.776C157.143 159.931 157.208 160.091 157.263 160.254C157.347 160.511 157.509 160.734 157.726 160.895C157.943 161.055 158.205 161.143 158.475 161.148V161.148C159.365 161.197 160.24 161.402 161.059 161.756C161.627 161.998 162.127 162.376 162.515 162.857C162.939 163.432 163.153 164.135 163.123 164.849L163.123 164.869H163.123C163.122 165.223 163.105 165.59 163.086 165.905C160.355 166.335 157.408 166.661 154.3 166.863C154.299 166.824 154.296 166.784 154.296 166.746H154.296ZM168.195 141.827C169.534 141.167 171.004 140.813 172.497 140.793C173.267 140.781 174.033 140.909 174.757 141.173C175.299 141.363 175.779 141.696 176.147 142.137C176.896 143.164 177.284 144.41 177.25 145.681C177.228 147.415 176.662 149.098 175.631 150.493C174.235 152.336 172.32 153.72 170.132 154.467C168.309 155.196 166.37 155.59 164.408 155.631C163.478 155.636 162.551 155.514 161.654 155.27C161.387 155.199 161.104 155.216 160.847 155.319C160.591 155.422 160.374 155.605 160.23 155.841C160.168 155.924 160.116 156.016 160.076 156.112L159.878 156.706L159.521 157.776L159.297 158.448C159.175 158.215 159.038 157.991 158.887 157.776L158.884 157.773C158.562 157.322 158.183 156.914 157.757 156.56C156.486 155.572 154.997 154.903 153.413 154.612C152.116 154.347 150.795 154.217 149.471 154.224C149.37 154.224 149.275 154.225 149.181 154.226C148.985 153.575 148.634 152.98 148.16 152.492C147.026 151.376 145.655 150.529 144.149 150.016C142.471 149.39 140.696 149.063 138.904 149.05C138.255 149.048 137.606 149.1 136.965 149.204C135.037 149.49 133.197 150.202 131.578 151.289C130.959 148.898 130.512 146.129 130.007 143.483C129.728 141.934 129.37 140.4 128.937 138.887C128.925 138.85 128.912 138.815 128.901 138.778C131.042 139.584 133.26 140.168 135.521 140.522C139.028 141.092 142.576 141.371 146.129 141.356C151.233 141.432 156.323 140.808 161.257 139.5C162.017 139.275 162.709 139.028 163.365 138.768C163.039 139.808 162.751 140.882 162.525 141.858C162.322 142.729 162.2 143.333 162.145 143.617C161.993 143.89 161.942 144.208 162.002 144.515C162.063 144.821 162.23 145.097 162.474 145.292C162.75 145.499 163.096 145.588 163.438 145.539C163.779 145.49 164.087 145.308 164.294 145.032L164.294 145.032C165.32 143.667 166.657 142.568 168.195 141.827H168.195ZM126.792 133.234C127.377 132.402 128.128 131.7 128.998 131.173C130.653 130.117 132.437 129.278 134.305 128.674C134.877 128.48 135.467 128.294 136.085 128.124C139.358 127.231 142.736 126.781 146.129 126.784C150.151 126.775 154.149 127.417 157.966 128.685C158.816 128.973 159.626 129.279 160.361 129.606C161.858 130.231 163.252 131.079 164.495 132.12C164.871 132.442 165.198 132.817 165.466 133.234C165.602 133.432 165.685 133.662 165.704 133.901C165.694 134.084 165.627 134.258 165.512 134.4C164.944 135.067 164.224 135.589 163.414 135.923C161.146 136.918 158.753 137.603 156.302 137.958C152.939 138.504 149.536 138.771 146.129 138.756C141.274 138.831 136.431 138.242 131.736 137.006C130.287 136.627 128.905 136.028 127.638 135.23C127.295 135.007 126.993 134.726 126.746 134.4C126.631 134.258 126.564 134.084 126.554 133.901C126.573 133.662 126.655 133.431 126.792 133.234H126.792ZM128.462 149.327C128.539 149.703 128.617 150.078 128.7 150.448C128.762 150.728 128.839 150.992 128.906 151.268C127.602 151.238 126.308 151.497 125.116 152.025C124.393 152.352 123.742 152.82 123.2 153.4C122.659 153.98 122.239 154.663 121.963 155.407C121.044 155.497 120.135 155.667 119.245 155.913C118.233 156.176 117.281 156.629 116.438 157.249C116.234 157.409 116.043 157.586 115.866 157.776C115.655 158 115.469 158.245 115.311 158.509C114.995 159.044 114.813 159.648 114.779 160.269C114.773 160.377 114.771 160.481 114.771 160.591C114.237 160.197 113.767 159.723 113.377 159.186C113.072 158.778 112.9 158.286 112.884 157.777L112.884 157.776H112.884C112.904 157.247 113.079 156.734 113.39 156.304C114.433 154.954 115.779 153.869 117.319 153.136C120.844 151.368 124.592 150.087 128.462 149.327H128.462ZM152.309 68.6884C153.767 62.1884 159.69 35.8089 160.994 30.383C161.128 29.6085 161.517 28.901 162.1 28.3729C162.521 28.0401 163.045 27.8656 163.582 27.88C163.862 27.8814 164.141 27.9177 164.412 27.988C164.922 28.0948 165.388 28.3553 165.746 28.7345C166.13 29.2205 166.319 29.8329 166.274 30.451C166.269 30.8847 166.22 31.3168 166.128 31.7405C165.111 36.6285 161.108 54.1252 158.813 63.7633C158.425 65.8298 157.658 67.8067 156.552 69.5945C156.279 69.9969 155.941 70.3504 155.551 70.6401C155.396 70.7489 155.231 70.8413 155.058 70.9158C154.737 70.7405 154.424 70.5789 154.137 70.4426C153.579 70.1755 153.005 69.9404 152.42 69.7384C152.31 69.7099 152.196 69.6965 152.083 69.6985C152.138 69.4538 152.212 69.1202 152.309 68.6884L152.309 68.6884ZM151.07 78.8968L149.782 78.7159L151.07 78.8967C151.384 76.6617 151.612 74.4495 151.754 72.26C152.539 72.5482 153.299 72.9003 154.026 73.3126C154.638 73.6535 155.211 74.0581 155.738 74.5197C156.197 74.91 156.571 75.3918 156.833 75.9344C157.122 76.8098 157.247 77.7308 157.202 78.6514C157.15 81.0646 156.801 83.4623 156.164 85.7904C155.62 87.9333 154.832 90.0068 153.816 91.9703C153.458 92.657 153.044 93.313 152.579 93.9315C152.326 94.2855 152.019 94.5972 151.669 94.8551C150.996 95.2334 150.257 95.4801 149.493 95.5821C148.756 95.6989 148.011 95.7565 147.265 95.7543C147.056 95.7543 146.89 95.7499 146.765 95.7451C148.882 90.3258 150.328 84.6676 151.07 78.8968L151.07 78.8968ZM30.2992 45.7017C30.7489 35.8044 31.7242 17.8825 32.0943 12.9029C32.1245 12.3236 32.2446 11.7525 32.4504 11.2101C32.6149 10.7411 32.934 10.3419 33.3552 10.0781C33.7543 9.8592 34.205 9.75177 34.6599 9.76713L34.7757 9.76913C35.445 9.76423 36.0934 10.002 36.6008 10.4384C36.8495 10.673 37.0418 10.9608 37.1634 11.2802C37.3369 11.7491 37.42 12.2467 37.4082 12.7465C37.4082 12.8333 37.4063 12.9222 37.4024 13.013C37.2648 16.1932 36.69 26.3827 36.1504 35.7584C35.8806 40.4477 35.6193 44.9372 35.4256 48.2542C35.2757 50.8205 35.1672 52.6678 35.1253 53.3812C34.3201 53.4566 33.5209 53.5858 32.733 53.7681C32.5271 53.8163 32.306 53.8878 32.0915 53.9475C31.568 53.5434 31.1782 52.9911 30.9727 52.3625C30.4283 50.7214 30.1874 48.9948 30.2619 47.2673C30.2619 46.7792 30.2743 46.2574 30.2992 45.7017ZM32.1447 79.3045C31.1646 78.9612 30.2704 78.4101 29.5233 77.6889C29.2762 77.3712 29.0794 77.0174 28.9398 76.6399C28.5246 75.5592 28.2296 74.4362 28.0599 73.291C27.8089 71.714 27.6857 70.1194 27.6912 68.5226C27.6912 68.2631 27.6943 68.0008 27.7006 67.7358C27.7356 65.6357 27.9818 63.5445 28.4355 61.4936C28.6027 60.7484 28.8266 60.0171 29.1053 59.306C29.2678 58.8663 29.493 58.4523 29.7738 58.0769C30.1919 57.6123 30.7041 57.242 31.2764 56.9907C32.2395 56.5605 33.2566 56.2633 34.2997 56.1072C34.5181 56.0713 34.7196 56.0435 34.9025 56.0206C34.4558 58.1088 34.0787 60.2391 33.7713 62.4117C33.2316 66.1213 32.9511 69.8639 32.932 73.6124C32.9299 75.6414 33.0333 77.669 33.2416 79.6872C32.9182 79.5883 32.5411 79.4618 32.1447 79.3045ZM46.0985 102.044C42.4438 98.4198 39.6604 94.0124 37.9586 89.1547C36.2697 84.1502 35.449 78.8937 35.5321 73.6125C35.5513 69.985 35.8232 66.3633 36.346 62.7737C38.0518 50.625 41.8458 39.9561 49.2064 32.3626C53.1339 28.343 57.9247 25.2702 63.216 23.377C69.95 21.0422 77.0453 19.922 84.1711 20.0686C89.2574 20.0962 94.3356 20.4782 99.3688 21.212C107.692 22.2381 115.836 24.3911 123.579 27.6118C133.324 31.8845 139.706 37.6004 143.708 44.3253C147.705 51.052 149.332 58.8491 149.333 67.3231C149.314 71.0753 149.034 74.8216 148.495 78.5349H148.495C147.778 84.1913 146.357 89.7358 144.264 95.0393C141.204 102.452 136.64 108.463 129.862 112.678C123.081 116.89 114.014 119.322 101.889 119.323C96.4883 119.29 91.0963 118.882 85.7522 118.1C66.2826 115.365 53.7394 109.674 46.0985 102.044V102.044ZM32.7327 140.508L32.7326 140.505C32.6446 139.501 32.4254 138.512 32.0805 137.565C31.817 136.857 31.6482 136.117 31.5783 135.365C31.5714 135.245 31.5898 135.125 31.6322 135.013C31.6579 134.969 31.6565 134.957 31.7533 134.893C31.9396 134.771 32.1566 134.704 32.3793 134.7C32.6119 134.706 32.8388 134.774 33.0361 134.898C33.5991 135.274 34.0534 135.791 34.3535 136.398C34.9101 137.46 35.2978 138.603 35.5026 139.784C35.9905 141.77 36.6662 143.704 37.5205 145.561C38.3612 147.547 38.8098 149.676 38.8417 151.832L38.8432 152.082C38.8451 154.896 38.2308 156.598 37.4599 157.532C37.1104 157.967 36.6576 158.309 36.1425 158.526C35.8562 158.642 35.5572 158.724 35.2516 158.77C35.4601 158.214 35.5628 157.624 35.5545 157.03C35.55 156.537 35.5036 156.045 35.4158 155.559C35.3948 155.438 35.3724 155.336 35.3501 155.235C35.5122 154.977 35.6427 154.7 35.7389 154.411C35.894 153.918 35.9703 153.403 35.965 152.886C35.9461 151.986 35.7878 151.094 35.4959 150.242C35.4492 150.099 35.4037 149.974 35.3591 149.853C35.4844 149.66 35.5929 149.456 35.6833 149.245C35.9085 148.695 36.0238 148.106 36.0226 147.511C36.0253 146.897 35.8978 146.289 35.6484 145.727C35.3669 145.1 34.9265 144.558 34.3708 144.153C33.9932 143.893 33.5784 143.691 33.1403 143.555C32.8672 143.464 32.5635 143.389 32.2548 143.317C32.2644 143.294 32.2769 143.274 32.2862 143.251C32.5962 142.454 32.7489 141.604 32.736 140.749L32.7327 140.508ZM26.5146 159.488C25.8716 159.508 25.2303 159.411 24.6224 159.201C24.4315 159.129 24.254 159.025 24.0974 158.895C23.9763 158.791 23.8792 158.662 23.8131 158.517C23.6944 158.231 23.6027 157.935 23.5391 157.632C23.1946 155.906 23.0305 154.148 23.0494 152.388C23.037 151.082 23.137 149.778 23.348 148.489C23.4298 148.002 23.5534 147.523 23.7174 147.058C23.8043 146.79 23.9366 146.54 24.1086 146.317L23.1357 145.455L24.109 146.317C24.2264 146.204 24.3641 146.114 24.515 146.051C25.008 145.842 25.5273 145.701 26.0584 145.633C26.7645 145.53 27.4772 145.481 28.1906 145.485C29.1996 145.482 30.2067 145.569 31.2004 145.744C31.5769 145.81 31.9483 145.902 32.3121 146.019C32.4963 146.074 32.6726 146.152 32.8364 146.252C33.0291 146.391 33.1814 146.578 33.2777 146.795C33.3758 147.021 33.4251 147.265 33.4225 147.511C33.4234 147.764 33.3757 148.014 33.282 148.248C33.2702 148.278 33.2571 148.292 33.2443 148.318L26.5893 148.588C26.4178 148.594 26.2492 148.633 26.093 148.704C25.9369 148.775 25.7964 148.877 25.6796 149.002C25.5629 149.128 25.4721 149.276 25.4126 149.437C25.3532 149.597 25.3261 149.769 25.3331 149.94C25.3401 150.111 25.3809 150.28 25.4532 150.435C25.5256 150.591 25.628 150.731 25.7545 150.846C25.8811 150.962 26.0294 151.052 26.1908 151.11C26.3521 151.168 26.5234 151.194 26.6948 151.186L32.9823 150.93C33.0021 150.988 33.0215 151.04 33.0414 151.102C33.2369 151.677 33.3459 152.279 33.3649 152.886C33.3697 153.13 33.3366 153.372 33.2668 153.605C33.2384 153.694 33.2005 153.778 33.1538 153.858L26.6714 154.131C26.3269 154.145 26.0023 154.296 25.7689 154.55C25.5356 154.804 25.4126 155.14 25.4271 155.484C25.4416 155.829 25.5924 156.154 25.8462 156.387C26.1 156.62 26.4362 156.743 26.7807 156.729L32.9195 156.47C32.9414 156.656 32.9531 156.843 32.9545 157.03C32.9649 157.309 32.9211 157.588 32.8253 157.85C32.8014 157.918 32.7639 157.981 32.7153 158.034C32.6667 158.087 32.6078 158.13 32.5422 158.16C31.7255 158.519 30.8774 158.803 30.0085 159.006C28.8666 159.302 27.694 159.464 26.5146 159.488L26.5146 159.488ZM44.9563 157.071C44.4885 158.57 43.4961 159.85 42.1611 160.677C40.8915 161.425 39.4405 161.809 37.9673 161.786C37.058 161.786 36.1536 161.653 35.283 161.39C35.9256 161.326 36.5553 161.168 37.1524 160.921C38.5526 160.316 39.6828 159.22 40.3296 157.838C41.1372 156.03 41.5182 154.061 41.4432 152.082C41.4432 151.99 41.4427 151.896 41.4415 151.8C41.4191 149.714 41.0459 147.646 40.3376 145.683C40.8438 145.772 41.3322 145.942 41.7837 146.187C42.9325 146.855 43.86 147.845 44.4508 149.035C45.1728 150.442 45.5443 152.002 45.5336 153.584C45.5316 154.77 45.3366 155.948 44.9563 157.071L44.9563 157.071ZM56.7263 148.163C55.9735 150.882 55.2492 153.163 54.8199 154.317C54.2818 155.885 53.2604 157.241 51.9027 158.191C51.1281 158.708 50.2578 159.063 49.3432 159.238C50.0847 158.501 50.6314 157.591 50.9343 156.591C51.2371 155.59 51.2867 154.53 51.0784 153.506C50.8701 152.481 50.4106 151.525 49.7411 150.722C49.0716 149.919 48.2132 149.295 47.2428 148.906C46.8687 147.957 46.3642 147.064 45.7438 146.254C45.0095 145.292 44.0848 144.492 43.0274 143.904C42.9809 143.879 42.9307 143.861 42.8838 143.836C44.2071 140.37 46.1166 137.157 48.5289 134.338C49.6778 132.988 51.0138 131.809 52.4964 130.836C53.7255 130.011 55.1408 129.506 56.6144 129.366C56.89 129.347 57.1461 129.338 57.3828 129.338C57.9391 129.324 58.4944 129.392 59.0308 129.54C59.2625 129.577 59.4807 129.674 59.6639 129.82C59.8472 129.967 59.9892 130.159 60.076 130.377C59.9254 130.445 59.7758 130.515 59.634 130.596C58.6014 131.2 57.7687 132.095 57.2389 133.168C56.7001 134.234 56.4202 135.413 56.422 136.609C56.4165 137.7 56.6603 138.778 57.1348 139.761C57.4545 140.404 57.8785 140.989 58.3895 141.493C57.884 143.794 57.2954 146.108 56.7263 148.163L56.7263 148.163ZM117.074 173.998C116.778 174.168 116.467 174.309 116.145 174.42C115.212 174.738 114.259 174.995 113.292 175.187C112.789 175.236 112.293 175.273 111.815 175.273C110.051 175.254 108.299 174.969 106.62 174.429C104.075 173.658 101.491 172.447 98.4656 171.402C95.0142 170.159 91.375 169.518 87.7066 169.507C83.017 169.579 78.3894 170.591 74.0966 172.48C72.2545 173.208 70.5551 173.915 68.8886 174.43C67.2613 174.966 65.5616 175.25 63.8484 175.273C63.2445 175.272 62.6412 175.233 62.0424 175.154C60.8675 174.889 59.7072 174.563 58.5663 174.176C58.7131 164.394 59.4749 154.632 60.8472 144.945C61.0152 143.811 61.1904 142.716 61.373 141.66C61.3892 141.62 61.4032 141.579 61.4151 141.537C61.7739 139.82 62.1774 137.756 62.5247 135.94C62.7709 134.9 63.0231 133.933 63.281 133.068C63.6218 131.845 64.0729 130.656 64.6287 129.515C64.7966 129.178 64.9987 128.859 65.2319 128.563C65.3217 128.441 65.434 128.337 65.5628 128.257C65.9328 128.094 66.316 127.964 66.7083 127.867C69.589 127.225 72.515 126.808 75.4602 126.62L75.4758 126.619C78.771 129.433 82.9686 130.969 87.3021 130.945C89.75 130.936 92.1772 130.496 94.472 129.644C96.2862 129.01 97.9691 128.049 99.4377 126.81C99.5115 126.74 99.5769 126.662 99.6324 126.577C100.36 126.635 101.075 126.696 101.757 126.763C103.799 126.963 105.615 127.199 107.064 127.461C107.788 127.592 108.42 127.729 108.935 127.867C109.328 127.964 109.711 128.094 110.081 128.257C110.21 128.337 110.322 128.441 110.412 128.563C110.917 129.255 111.318 130.017 111.601 130.825C112.538 133.426 113.256 136.102 113.747 138.823C114.455 142.38 115.082 146.588 115.598 151.126C114.895 151.524 114.218 151.966 113.572 152.451C112.655 153.122 111.858 153.944 111.214 154.88C110.626 155.733 110.303 156.741 110.284 157.776L110.284 157.777C110.29 158.379 110.411 158.973 110.641 159.53C110.95 162.383 112.311 165.018 114.458 166.922C115.229 167.642 116.057 168.298 116.934 168.884C117 170.599 117.047 172.307 117.074 173.998L117.074 173.998ZM139.458 178.112C139.127 178.017 138.805 177.893 138.495 177.741C138.331 177.665 138.18 177.562 138.049 177.437C137.763 177.105 137.535 176.727 137.375 176.319C137.475 176.339 137.57 176.361 137.671 176.381C138.083 176.46 138.526 176.523 138.959 176.591C139.98 176.752 141.038 176.893 142.158 176.991C142.147 177.142 142.136 177.295 142.12 177.451C142.085 177.823 142.032 178.194 141.958 178.561C141.955 178.577 141.951 178.591 141.948 178.608C141.532 178.552 141.131 178.491 140.759 178.42C140.321 178.34 139.886 178.237 139.458 178.112L139.458 178.112ZM147.506 180.839C147.252 180.866 146.996 180.879 146.74 180.877C145.804 180.87 144.872 180.753 143.963 180.53C143.992 180.499 144.02 180.467 144.046 180.433C144.29 179.951 144.458 179.433 144.542 178.899C144.557 178.818 144.568 178.736 144.581 178.655C144.665 178.145 144.72 177.625 144.755 177.152C145.508 177.181 146.271 177.201 147.051 177.201L147.067 177.198C147.073 177.198 147.078 177.202 147.084 177.202V177.201C147.937 177.201 148.775 177.183 149.597 177.147L149.594 177.179C149.562 177.631 149.523 178.12 149.477 178.601C149.431 179.093 149.377 179.575 149.319 179.991C149.296 180.158 149.271 180.311 149.247 180.452C148.684 180.649 148.099 180.779 147.506 180.839L147.506 180.839ZM155.69 178.581C155.53 178.821 155.323 179.026 155.081 179.183C154.84 179.341 154.569 179.448 154.285 179.497C153.518 179.632 152.744 179.725 151.967 179.776C152.077 178.845 152.159 177.806 152.215 176.967C153.721 176.828 155.149 176.632 156.463 176.381C156.493 176.375 156.521 176.368 156.551 176.362C156.416 177.152 156.123 177.907 155.69 178.581L155.69 178.581ZM177.888 165.034C175.296 167.503 171.346 169.236 168.057 170.287C166.413 170.816 164.935 171.184 163.875 171.417C163.345 171.534 162.919 171.617 162.628 171.671C162.483 171.698 162.372 171.717 162.298 171.73L162.194 171.747C162.024 171.773 161.861 171.833 161.714 171.923C159.921 172.874 157.981 173.517 155.975 173.827C153.042 174.359 150.065 174.619 147.084 174.601C147.078 174.601 147.073 174.605 147.067 174.605L147.051 174.601V174.601C144.069 174.619 141.093 174.359 138.159 173.827C136.153 173.518 134.214 172.874 132.421 171.923C132.274 171.833 132.111 171.773 131.941 171.747L131.898 171.74C128.564 171.145 125.311 170.163 122.205 168.814C119.953 167.866 117.883 166.535 116.085 164.88C115.801 164.6 115.542 164.311 115.294 164.018C115.562 164.164 115.838 164.309 116.123 164.451C120.254 166.319 124.624 167.605 129.108 168.275C134.994 169.251 140.951 169.728 146.917 169.701C156.782 169.699 165.711 168.506 172.276 166.534C174.661 165.861 176.957 164.904 179.115 163.684C178.74 164.164 178.33 164.616 177.888 165.034L177.888 165.034Z"/><path id="Vector_6" d="M146.392 119.089C145.475 118.775 144.598 118.354 143.78 117.835C143.647 117.748 143.527 117.643 143.425 117.521L143.42 117.514L143.235 117.63L143.441 117.565L143.42 117.514L143.235 117.63L143.441 117.565L142.956 117.719H143.464L143.441 117.565L142.956 117.719H142.996L143.404 117.963C143.444 117.888 143.465 117.804 143.464 117.719H142.996L143.404 117.963L143.401 117.961L143.405 117.965L143.404 117.963L143.401 117.961L143.405 117.965C143.576 117.806 143.77 117.675 143.982 117.578C144.809 117.186 145.666 116.864 146.546 116.615C148.116 116.13 149.928 115.667 151.43 115.144C152.132 114.916 152.809 114.617 153.45 114.251C153.756 114.071 154.034 113.847 154.275 113.585C154.575 113.26 154.766 112.849 154.819 112.41C154.829 112.318 154.834 112.226 154.834 112.134C154.834 111.624 154.674 111.127 154.377 110.712C154.124 110.366 153.804 110.075 153.436 109.856C152.739 109.459 151.982 109.177 151.196 109.021C149.5 108.681 147.782 108.466 146.055 108.376C143.214 108.172 140.1 108.056 137.629 107.722C136.592 107.607 135.571 107.385 134.58 107.06C134.284 106.959 134.001 106.821 133.74 106.649C133.628 106.581 133.534 106.487 133.465 106.376C133.307 106.071 133.035 105.842 132.708 105.737C132.381 105.632 132.026 105.66 131.72 105.816C131.414 105.972 131.183 106.243 131.076 106.569C130.969 106.895 130.995 107.251 131.149 107.557C131.373 107.984 131.688 108.357 132.073 108.648C132.799 109.17 133.619 109.546 134.488 109.758C136.324 110.203 138.196 110.48 140.081 110.587C143.156 110.831 146.489 110.934 148.962 111.266C149.924 111.361 150.87 111.58 151.776 111.917C151.95 111.982 152.109 112.08 152.247 112.204L152.257 112.217L152.386 112.134L152.234 112.134L152.257 112.217L152.386 112.134L152.234 112.134H152.236L152.234 112.134V112.134H152.236L152.234 112.134L152.759 112.189L152.33 111.861C152.275 111.942 152.242 112.035 152.234 112.133L152.759 112.189L152.33 111.861L152.365 111.888L152.332 111.858L152.33 111.861L152.365 111.888L152.332 111.858C152.163 112.002 151.974 112.119 151.77 112.207C150.921 112.584 150.045 112.897 149.149 113.144C147.542 113.627 145.69 114.105 144.162 114.673C143.44 114.922 142.752 115.257 142.111 115.672C141.797 115.882 141.52 116.144 141.293 116.447C141.019 116.815 140.868 117.26 140.864 117.719C140.871 118.195 141.028 118.657 141.314 119.039C141.743 119.581 142.281 120.027 142.893 120.348C143.72 120.806 144.583 121.198 145.472 121.521C145.794 121.64 146.15 121.628 146.463 121.486C146.776 121.344 147.02 121.084 147.141 120.762C147.263 120.441 147.252 120.085 147.112 119.771C146.972 119.458 146.713 119.212 146.392 119.089L146.392 119.089Z"/><path id="Vector_7" d="M163.927 147.382C163.8 147.444 163.666 147.492 163.528 147.526L163.469 147.536L163.47 147.545C163.208 147.563 162.958 147.661 162.754 147.825C162.55 147.99 162.401 148.213 162.327 148.465C162.312 148.499 162.298 148.533 162.285 148.569C162.255 148.63 162.229 148.694 162.209 148.76L162.209 148.76C161.987 149.969 161.754 150.729 161.453 151.962L161.452 151.963L161.452 151.964L161.436 152.031L161.436 152.032C161.385 152.239 161.386 152.456 161.44 152.664C161.493 152.871 161.597 153.061 161.742 153.219C161.887 153.376 162.068 153.495 162.271 153.565C162.473 153.635 162.689 153.654 162.9 153.62C163.501 153.71 164.107 153.754 164.715 153.752C166.722 153.756 168.704 153.3 170.509 152.418C171.903 151.757 173.115 150.765 174.04 149.53C174.822 148.51 175.263 147.27 175.301 145.985C175.316 145.105 175.034 144.246 174.5 143.546C174.19 143.155 173.778 142.857 173.31 142.684C172.881 142.527 172.427 142.449 171.97 142.455C170.768 142.501 169.595 142.837 168.551 143.434C167.392 144.053 166.378 144.91 165.574 145.949L165.573 145.949C165.145 146.549 164.581 147.04 163.927 147.382ZM169.788 145.721C170.454 145.333 171.201 145.105 171.97 145.055C172.11 145.05 172.251 145.07 172.385 145.114L172.454 145.15C172.629 145.392 172.716 145.687 172.701 145.985C172.66 146.72 172.393 147.425 171.936 148.003C171.859 148.11 171.761 148.216 171.671 148.322C170.478 147.935 169.211 147.576 167.881 147.244C168.421 146.627 169.067 146.111 169.788 145.721ZM165.657 149.388C166.833 149.649 167.964 149.93 169.032 150.233C167.673 150.838 166.202 151.151 164.715 151.152C164.577 151.152 164.467 151.143 164.343 151.139C164.441 150.752 164.536 150.343 164.63 149.898C164.76 149.851 164.892 149.802 165.039 149.732C165.252 149.631 165.459 149.515 165.657 149.388H165.657Z"/></g></svg>