<svg xmlns="http://www.w3.org/2000/svg" width="200" height="200" fill="none"><path fill="#191C22" d="M145.175 46.047c-3.172-4.772-8.062-8.82-15.326-11.62-7.268-2.807-16.908-4.407-29.749-4.408-11.414 0-20.298 1.266-27.237 3.517a37.224 37.224 0 0 0-12.533 6.622 28.371 28.371 0 0 0-9.16 14.361 60.125 60.125 0 0 0-1.874 16.617 42.348 42.348 0 0 0 2.207 14.31 28.223 28.223 0 0 0 5.38 9.216c3.655 4.16 8.838 7.526 15.899 9.832 7.064 2.308 16.014 3.577 27.318 3.578 10.049 0 18.236-1.004 24.894-2.847 9.978-2.757 16.547-7.46 20.535-13.442 3.992-5.98 5.376-13.115 5.376-20.647a64.591 64.591 0 0 0-1.404-14.825 31.361 31.361 0 0 0-4.326-10.264Zm-15.959 51.6c.322-.12.637-.245.945-.372a26.63 26.63 0 0 0 4.06-2.088c.276-.175.547-.353.811-.535a1.3 1.3 0 0 1 1.476 2.14c-.294.203-.593.4-.898.593a29.207 29.207 0 0 1-4.455 2.293c-.337.14-.677.273-1.022.403a1.311 1.311 0 0 1-.994-.032 1.307 1.307 0 0 1-.681-.726 1.314 1.314 0 0 1 .032-.995 1.305 1.305 0 0 1 .726-.68ZM82.178 36.656a46.1 46.1 0 0 0-13.145 4.166 1.3 1.3 0 1 1-1.191-2.311 48.663 48.663 0 0 1 13.884-4.416 1.298 1.298 0 0 1 1.498 1.562 1.299 1.299 0 0 1-1.046.999ZM58.835 47.699a1.3 1.3 0 0 1-.205-1.827 25.414 25.414 0 0 1 2.786-2.963 1.302 1.302 0 0 1 2.106.52 1.3 1.3 0 0 1-.359 1.405 22.816 22.816 0 0 0-2.501 2.66 1.3 1.3 0 0 1-1.827.205Z"/><path fill="#191C22" d="M167.477 50.691c.934-9.897 2.462-27.748 2.793-32.804.016-.233.023-.459.023-.678a7.128 7.128 0 0 0-.351-2.319 4.64 4.64 0 0 0-1.751-2.364 5.303 5.303 0 0 0-2.45-.87 6.16 6.16 0 0 0-.678-.038 5.103 5.103 0 0 0-3.414 1.229 5.894 5.894 0 0 0-1.833 3.99c-.409 4.228-1.753 20.546-2.622 31.183a51.868 51.868 0 0 0-.499-1.823c-2.811-9.428-8.228-17.577-17.346-23.268-9.114-5.696-21.828-8.946-39.247-8.947-11.617 0-21.132 1.445-28.893 4.096-11.64 3.965-19.322 10.708-23.98 19.161a46.833 46.833 0 0 0-4.374 11.37c-.867-10.613-2.254-27.465-2.67-31.772a5.894 5.894 0 0 0-1.834-3.99 5.104 5.104 0 0 0-3.413-1.229c-.227 0-.453.013-.678.038a5.009 5.009 0 0 0-3.168 1.487 4.8 4.8 0 0 0-1.033 1.748 7.133 7.133 0 0 0-.351 2.319c0 .219.008.445.023.678.331 5.055 1.858 22.906 2.793 32.803.133 2.457.708 4.87 1.699 7.123a7.11 7.11 0 0 0 1.38 1.952 6.435 6.435 0 0 0-1.5 1.64 8.81 8.81 0 0 0-1.012 3.042 24.736 24.736 0 0 0-.325 4.204c.004 1.43.09 2.858.257 4.277.264 2.4.803 4.761 1.606 7.038.309.867.69 1.707 1.137 2.512.348.65.804 1.237 1.348 1.734a9.875 9.875 0 0 0 4.135 1.836 16.98 16.98 0 0 0 2.258.355c.012.039.022.08.034.118a37.711 37.711 0 0 0 17.435 22.212c7.602 4.442 17.685 7.229 30.865 8.037v2.572c-1.694.106-3.32.234-4.831.381-2.093.205-3.966.447-5.517.727-.776.14-1.471.29-2.081.453a9.428 9.428 0 0 0-1.592.554 3.65 3.65 0 0 0-1.214.995 11.088 11.088 0 0 0-1.608 2.97l-.03.079c-.07.009-.142.011-.21.023a4.734 4.734 0 0 0-.624-1.895 3.368 3.368 0 0 0-1.12-1.119 3.678 3.678 0 0 0-1.594-.503 13.467 13.467 0 0 0-1.205-.054 12.33 12.33 0 0 0-5.719 1.381 17.145 17.145 0 0 0-7.082 7.61 45.064 45.064 0 0 0-4.232 14.814 4.528 4.528 0 0 0 2.824 4.816c-.485.174-.95.4-1.386.673-.62.386-1.126.93-1.467 1.575a11.28 11.28 0 0 0-.868 2.771 58.602 58.602 0 0 0-.74 10.32c0 2.227.07 3.817.07 3.831v.016a5.052 5.052 0 0 0 1.08 3.008 4.584 4.584 0 0 0 2.856 1.544c.29.047.607.091.938.133-.068.166-.1.343-.096.522.038.639.135 1.274.29 1.896.234 1.04.574 2.211.895 3.225.16.507.316.973.453 1.362.138.391.251.696.348.923.304.641.749 1.206 1.302 1.652a15.07 15.07 0 0 0 2.633 1.732c.894.482 1.74.874 2.264 1.125a4.648 4.648 0 0 0 1.992.372 13.52 13.52 0 0 0 2.529-.287c.328-.066.604-.13.814-.181.082.839.17 1.664.27 2.457a1.302 1.302 0 0 0 1.453 1.131 1.308 1.308 0 0 0 1.126-1.457 132.046 132.046 0 0 1-.847-16.04l.002-.431a63.42 63.42 0 0 0 12.088 2.251c5.285.514 10.592.761 15.901.74 6.848.017 13.691-.347 20.498-1.091 2.513-.293 4.718-.637 6.565-1.02.069-.007.135-.01.204-.018l.03-.002v-.001l.05-.004c.106-.02.209-.053.306-.098.083-.019.178-.036.259-.054.878-.194 1.745-.44 2.593-.738.024-.009.042-.019.065-.028l.003.493a132.062 132.062 0 0 1-.846 16.041 1.299 1.299 0 1 0 2.579.326c.1-.79.187-1.613.269-2.45.207.051.468.111.782.174.832.175 1.679.271 2.529.287a4.65 4.65 0 0 0 1.992-.372c.701-.337 1.963-.916 3.169-1.639a12.599 12.599 0 0 0 1.728-1.218 4.722 4.722 0 0 0 1.302-1.652c.127-.299.291-.751.49-1.337.296-.872.65-2.006.942-3.1.145-.548.275-1.085.373-1.583.097-.456.158-.92.181-1.386a1.297 1.297 0 0 0-.096-.522c.331-.042.648-.086.937-.133a4.585 4.585 0 0 0 2.857-1.544 5.053 5.053 0 0 0 1.079-3.008l.001-.017c0-.013.069-1.604.069-3.833-.001-2.016-.056-4.551-.273-6.931a32.417 32.417 0 0 0-.466-3.386 11.265 11.265 0 0 0-.867-2.771 4.13 4.13 0 0 0-1.468-1.575 7.264 7.264 0 0 0-1.371-.68 4.524 4.524 0 0 0 2.809-4.809c-1.129-8.344-3.34-14.224-6.317-18.109a15.09 15.09 0 0 0-4.998-4.315 12.329 12.329 0 0 0-5.719-1.381c-.401 0-.802.018-1.204.054a3.679 3.679 0 0 0-1.595.503 3.54 3.54 0 0 0-1.454 1.798 5.4 5.4 0 0 0-.294 1.215c-.057-.01-.116-.011-.174-.019a16.931 16.931 0 0 0-.728-1.642 8.069 8.069 0 0 0-.908-1.41 3.646 3.646 0 0 0-1.215-.995 9.426 9.426 0 0 0-1.591-.554 58.938 58.938 0 0 0-9.206-1.326c-1.227-.104-2.527-.19-3.853-.269v-2.651a83.514 83.514 0 0 0 18.957-3.407c11.613-3.671 19.329-9.974 24.027-18.083a42.218 42.218 0 0 0 3.822-8.894c.194.098.41.145.628.135a16.652 16.652 0 0 0 2.33-.36 9.877 9.877 0 0 0 4.135-1.836 6.473 6.473 0 0 0 1.348-1.734 19.287 19.287 0 0 0 1.64-4.043 33.32 33.32 0 0 0 1.103-5.507 37.3 37.3 0 0 0 .256-4.278 24.651 24.651 0 0 0-.324-4.203 8.805 8.805 0 0 0-1.011-3.041 6.956 6.956 0 0 0-2.113-2.085c-.014-.01-.028-.016-.042-.025a8.332 8.332 0 0 0 1.652-2.86c.62-1.86 1.005-3.79 1.145-5.746Zm-132.364-.245c-.933-9.863-2.462-27.747-2.788-32.73a7.615 7.615 0 0 1-.017-.506c-.011-.5.06-1 .21-1.476.13-.432.401-.808.77-1.069a2.72 2.72 0 0 1 1.257-.425c.13-.014.261-.021.393-.021a2.506 2.506 0 0 1 1.694.578c.607.61.953 1.43.965 2.29.306 3.168 1.155 13.338 1.926 22.698.385 4.682.752 9.164 1.021 12.475l.416 5.12c-.787.186-1.56.425-2.315.715-.197.077-.405.178-.61.267a3.541 3.541 0 0 1-1.487-1.711 18.015 18.015 0 0 1-1.435-6.205Zm6.504 33.02a7.202 7.202 0 0 1-2.821-1.236 4.12 4.12 0 0 1-.773-1.042 16.828 16.828 0 0 1-1.403-3.487c-.48-1.66-.82-3.357-1.014-5.073a34.48 34.48 0 0 1-.24-3.976 22.192 22.192 0 0 1 .286-3.754 6.51 6.51 0 0 1 .662-2.123c.35-.519.805-.957 1.337-1.285.894-.56 1.86-.997 2.871-1.297.21-.065.404-.12.581-.168a91.12 91.12 0 0 0-.227 6.485 71.43 71.43 0 0 0 1.885 17.182 14.525 14.525 0 0 1-1.144-.227ZM70.3 151.652l-.021-.014.023-.011-.002.025Zm-14.559-5.287.018-.26c1.083-8.061 3.22-13.52 5.802-16.873a12.48 12.48 0 0 1 4.13-3.588 9.72 9.72 0 0 1 4.525-1.091c.321 0 .645.014.972.043.168.009.332.056.479.138.18.12.312.299.374.506.137.407.2.835.186 1.264 0 .06-.012.134-.014.196a6.365 6.365 0 0 0-1.598 2.016 7.603 7.603 0 0 0-.817 3.44 7.17 7.17 0 0 0 .713 3.153c.383.783.919 1.481 1.577 2.053a177.335 177.335 0 0 0-1.35 9.878 1.268 1.268 0 0 0-.114.355 1.954 1.954 0 0 1-.691 1.263 2.184 2.184 0 0 1-1.41.527l-.158-.006-.568-.056a1.276 1.276 0 0 0-.253-.512 5.34 5.34 0 0 0-1.161-.961 8.014 8.014 0 0 0-3.22-1.153 7.086 7.086 0 0 0-.986-.07 5.996 5.996 0 0 0-2.763.646c-.39.193-.748.443-1.063.743a1.283 1.283 0 0 0-.238.354l-.698-.069a1.984 1.984 0 0 1-1.674-1.936Zm.235 25.382a1.988 1.988 0 0 1-1.282-.642 2.482 2.482 0 0 1-.482-1.488l-.01-.255c-.018-.535-.056-1.819-.056-3.449 0-1.967.055-4.441.261-6.697.088-1.044.23-2.083.427-3.112.125-.73.342-1.441.643-2.117.138-.235.333-.429.568-.565a6.626 6.626 0 0 1 2.203-.807c.296.329.645.606 1.033.821a7.554 7.554 0 0 0 3.144.918c.34.031.665.045.971.045a7.407 7.407 0 0 0 3.688-.83 1.3 1.3 0 0 0 .392-.381l.097.032a5.87 5.87 0 0 1 1.807.964c.147.12.273.265.373.427.055.09.088.191.095.297.011.179.06.355.143.515-.401 5.381-.636 10.925-.668 16.249a3.458 3.458 0 0 1-.536.164c-.754.157-1.517.258-2.285.303-.931.068-1.99.099-3.083.099a51.617 51.617 0 0 1-7.443-.491Zm13.632 12.433-.013.003c-.08.022-.533.144-1.121.257-.627.128-1.264.2-1.904.214a2.333 2.333 0 0 1-.87-.118c-.725-.346-1.904-.892-2.954-1.522a10.105 10.105 0 0 1-1.365-.957 2.34 2.34 0 0 1-.611-.705c-.071-.165-.235-.606-.419-1.15a48.279 48.279 0 0 1-.89-2.934 23.096 23.096 0 0 1-.336-1.419 6.38 6.38 0 0 1-.133-.955 1.247 1.247 0 0 0-.05-.214c1.419.1 2.966.157 4.477.158 1.64.018 3.278-.074 4.904-.277.357-.052.688-.111 1-.182.015 1.836.055 3.637.123 5.384-.392.052-.788.08-1.184.084a3.348 3.348 0 0 1-.74-.067 88.086 88.086 0 0 1-.788-1.899c-.291-.723-.52-1.304-.52-1.305a1.29 1.29 0 0 0-.69-.724 1.295 1.295 0 0 0-1.43.256 1.303 1.303 0 0 0-.3 1.42c.004.009.924 2.348 1.447 3.527.154.341.4.633.71.843.36.235.764.392 1.189.459.37.063.746.094 1.122.09.439-.003.876-.03 1.312-.081.035.611.075 1.213.117 1.807-.028.006-.055-.001-.083.007Zm73.762-9.286a8.474 8.474 0 0 1-.226 1.397 39.495 39.495 0 0 1-.838 3.011 47.39 47.39 0 0 1-.428 1.287c-.126.357-.234.642-.286.763a2.335 2.335 0 0 1-.611.705 12.703 12.703 0 0 1-2.168 1.412c-.811.437-1.606.806-2.152 1.067-.28.094-.575.134-.869.118a11.052 11.052 0 0 1-2.019-.237c-.304-.06-.564-.121-.746-.166l-.208-.054-.052-.014-.012-.003c-.017-.005-.035 0-.052-.004.043-.594.082-1.196.117-1.807a11.9 11.9 0 0 0 1.28.078 5.528 5.528 0 0 0 1.509-.18c.285-.079.556-.204.802-.369.31-.21.556-.502.71-.843.524-1.179 1.443-3.518 1.447-3.527a1.301 1.301 0 0 0-1.728-1.663 1.306 1.306 0 0 0-.692.711c0 .001-.229.582-.521 1.305a88.192 88.192 0 0 1-.786 1.898 1.476 1.476 0 0 1-.15.031 4.035 4.035 0 0 1-.591.037 9.656 9.656 0 0 1-1.152-.084c.069-1.748.109-3.55.123-5.387a17.74 17.74 0 0 0 2.502.349c1.04.078 2.19.113 3.37.113a65.493 65.493 0 0 0 4.477-.158 1.23 1.23 0 0 0-.05.214Zm3.515-20.907c.302.676.518 1.387.643 2.117.514 3.242.744 6.524.688 9.806 0 1.088-.017 2.022-.034 2.682-.008.33-.017.591-.023.77l-.009.255a2.48 2.48 0 0 1-.482 1.488c-.332.366-.79.595-1.282.642a51.623 51.623 0 0 1-7.443.491 34.013 34.013 0 0 1-4.534-.25 6.768 6.768 0 0 1-1.304-.289l-.032-.013a240.06 240.06 0 0 0-.674-16.337c.065-.139.104-.289.115-.441v-.001a.647.647 0 0 1 .096-.296c.228-.336.536-.61.895-.799.438-.254.9-.464 1.38-.625.102.154.236.284.392.382a7.41 7.41 0 0 0 3.689.83c.306 0 .63-.014.971-.045a7.549 7.549 0 0 0 3.144-.918 4.019 4.019 0 0 0 1.032-.82c.302.063.59.133.854.213.475.134.93.333 1.35.593.235.136.431.33.568.565Zm-16.446-28.989a.744.744 0 0 1 .256-.264c.147-.082.311-.129.479-.138.326-.029.651-.043.972-.043a9.716 9.716 0 0 1 4.525 1.091 14.576 14.576 0 0 1 5.973 6.506 42.539 42.539 0 0 1 3.959 13.955l.017.26a1.99 1.99 0 0 1-.483 1.274 1.991 1.991 0 0 1-1.191.662l-.697.069a1.288 1.288 0 0 0-.238-.354 4.294 4.294 0 0 0-1.064-.743 5.995 5.995 0 0 0-2.762-.646c-.33 0-.661.024-.988.07a8.011 8.011 0 0 0-3.218 1.153c-.43.264-.821.587-1.161.961a1.276 1.276 0 0 0-.253.512l-.566.056-.16.006a2.185 2.185 0 0 1-1.41-.527 1.944 1.944 0 0 1-.69-1.262 1.298 1.298 0 0 0-.068-.211c-.276-2.53-.586-4.973-.927-7.274a154.33 154.33 0 0 0-.441-2.775 6.501 6.501 0 0 0 1.548-2.027 7.169 7.169 0 0 0 .713-3.153 7.434 7.434 0 0 0-1.44-4.439 6.05 6.05 0 0 0-.974-.998c-.002-.068-.015-.149-.015-.215a2.972 2.972 0 0 1 .303-1.506h.001Zm-15.307-2.687c2.043.2 3.859.436 5.308.698.723.13 1.356.267 1.871.405a7.12 7.12 0 0 1 1.145.39c.129.081.241.185.331.307a8.771 8.771 0 0 1 1.19 2.262 36.462 36.462 0 0 1 1.354 4.431c.373 1.965.835 4.344 1.24 6.281.022.104.056.206.103.301a225.146 225.146 0 0 1 2.775 32.161 5.25 5.25 0 0 1-.929.421c-.937.32-1.895.578-2.866.771-.317.024-.622.044-.936.067-.176.006-.354.015-.527.015a17.565 17.565 0 0 1-5.196-.845c-2.545-.77-5.129-1.982-8.154-3.026a32.056 32.056 0 0 0-10.758-1.896 35.134 35.134 0 0 0-13.61 2.974c-1.843.728-3.543 1.435-5.209 1.95a16.8 16.8 0 0 1-5.04.842c-.604 0-1.207-.039-1.806-.118a34.612 34.612 0 0 1-3.476-.978 233.34 233.34 0 0 1 2.28-29.231c.168-1.132.343-2.226.526-3.281.016-.041.03-.084.043-.127.36-1.72.764-3.788 1.111-5.606a52.52 52.52 0 0 1 .754-2.863c.341-1.223.792-2.412 1.348-3.553.168-.337.37-.656.603-.952.09-.122.203-.226.331-.307.37-.162.754-.293 1.146-.39a57.018 57.018 0 0 1 8.752-1.246l.015-.001a18.058 18.058 0 0 0 11.827 4.326 20.82 20.82 0 0 0 7.17-1.301 15.745 15.745 0 0 0 4.965-2.835c.074-.069.139-.148.195-.232.728.058 1.442.119 2.124.186Zm22.783-15.823c-8.559 5.009-20.769 7.935-37.813 7.934-11.36 0-20.58-1.299-27.994-3.65-11.124-3.539-18.178-9.377-22.565-16.911-4.38-7.537-6.068-16.875-6.067-27.352A68.502 68.502 0 0 1 46 46.943c2.69-8.959 7.684-16.453 16.233-21.81 8.553-5.35 20.762-8.552 37.87-8.55 11.401-.001 20.635 1.421 28.051 3.955 11.125 3.812 18.17 10.06 22.546 17.959 4.37 7.901 6.03 17.535 6.028 28.013a64.916 64.916 0 0 1-2.547 19.24 35.073 35.073 0 0 1-16.265 20.739Zm27.37-41.592a22.15 22.15 0 0 1 .285 3.754 34.551 34.551 0 0 1-.239 3.977 28.912 28.912 0 0 1-1.465 6.446c-.258.73-.577 1.437-.952 2.115a4.118 4.118 0 0 1-.772 1.04 7.512 7.512 0 0 1-3.026 1.284 15.163 15.163 0 0 1-1.691.28 71.354 71.354 0 0 0 1.902-17.283c0-2.257-.082-4.48-.246-6.668.818.176 1.619.42 2.397.727a9.918 9.918 0 0 1 1.863.957c.51.323.947.748 1.283 1.249.34.664.564 1.382.661 2.122Zm-1.823-8.362c-.214.437-.5.834-.846 1.175-.138.13-.288.244-.449.342a18.842 18.842 0 0 0-.978-.34c-.59-.188-1.191-.34-1.799-.46a1.25 1.25 0 0 0-.339.008l.406-5c.809-9.93 2.487-30.414 2.947-35.173a3.31 3.31 0 0 1 .965-2.29 2.503 2.503 0 0 1 1.694-.579c.131 0 .262.008.392.022a2.426 2.426 0 0 1 1.559.683c.212.233.372.51.469.81.15.477.222.976.21 1.476 0 .16-.006.329-.017.508-.326 4.982-1.856 22.866-2.787 32.73-.096 2.1-.58 4.164-1.427 6.088Z"/><path fill="#FFD93A" d="M141.402 79.948a.92.92 0 0 0 .027-.127l.261-17.38a.967.967 0 0 0-.054-.32c-.009-.03-.023-.055-.035-.083a.927.927 0 0 0-.052-.124l-10.099-16.96a1.01 1.01 0 0 0-.686-.473l-29.896-5.267c-.367.114-.76.114-1.127 0l-29.896 5.267a.998.998 0 0 0-.677.46L58.069 62.9a.988.988 0 0 0-.08.184c-.008.021-.02.038-.026.06a.999.999 0 0 0-.043.296l.26 17.38c.007.057.02.114.037.17.008.07.023.14.046.206.03.055.064.107.103.155.03.058.067.112.109.163l11.02 10.957c.022.022.054.031.078.05.025.021.039.05.067.069a.95.95 0 0 0 .104.044c.029.02.059.04.09.058L87.33 99.59c.007.002.016.001.024.004a.951.951 0 0 0 .17.032.974.974 0 0 0 .172.033h25.217a.965.965 0 0 0 .171-.033.964.964 0 0 0 .171-.032c.008-.003.016-.001.024-.004l17.496-6.897c.028-.01.044-.037.07-.05a.398.398 0 0 0 .25-.18c.024-.023.058-.032.08-.057l10.021-11.958c.024-.037.045-.076.064-.117a.712.712 0 0 0 .142-.383Zm-10.909 10.158-6.348-9.363 14.148.054-7.8 9.309Zm-31.099 7.553h-9.472l6.733-7.578c1.102.303 2.24.454 3.383.448a12.866 12.866 0 0 0 3.815-.561l6.833 7.691H99.394Zm-37.92-15.982 14.93-.845-6.354 9.372-8.575-8.527Zm-1.54-17.348 12.642-1.27c.032 1.234.185 2.463.455 3.668L60.146 78.56l-.213-14.231Zm45.889 24.844a10.954 10.954 0 0 0 4.43-4.48c.389-.713.703-1.464.937-2.241l9.534-1.432-8.294 15.59-6.607-7.437ZM88.179 96.61l-8.3-15.603 9.412 1.353c.348 1.32.92 2.572 1.693 3.699a10.08 10.08 0 0 0 3.344 3.081c.107.06.231.107.342.164l-6.49 7.306Zm10.26-30.59-6.961 13.916-3.943-9.565c.33-.573.612-1.173.844-1.792.51-1.435.825-2.93.938-4.449l9.121 1.89Zm11.859-1.684c.164 2.17.786 4.28 1.826 6.19.137.238.288.465.442.688l-3.669 8.487-6.735-13.68 8.136-1.685ZM121.373 78.9l-10.642 1.598 3.302-7.637a6.803 6.803 0 0 0 4.518 1.673c.122 0 .246-.002.372-.008a7.176 7.176 0 0 0 1.615-.276l.835 4.65Zm-41.342-4.428a7.038 7.038 0 0 0 1.247.054 7.036 7.036 0 0 0 3.747-1.266 7.76 7.76 0 0 0 1.133-.982l3.335 8.09-10.256-1.474.794-4.422Zm26.729 5.415a61.804 61.804 0 0 0-6.85-.377c-2.344 0-4.454.113-6.104.242l6.494-12.984 6.46 13.119Zm-32.28-9.36a8.498 8.498 0 0 0 2.605 2.868c.32.21.658.393 1.01.545l-.87 4.843-15.307.866 11.765-10.805c.223.58.49 1.143.796 1.683Zm48.896 8.213-.957-5.33c.082-.052.171-.094.251-.15a9.627 9.627 0 0 0 3.354-4.681c.063-.172.107-.354.163-.53l11.669 10.747-14.48-.056Zm.805-26.238a8.168 8.168 0 0 0-1.619-1.644 6.173 6.173 0 0 0-4.141-1.242 6.871 6.871 0 0 0-3.744 1.403c-.514.403-.98.863-1.388 1.373l-10.031-10.726 25.739 4.535-4.816 6.301Zm-22.917-10.04 10.879 11.632a13.718 13.718 0 0 0-.866 1.882 19.095 19.095 0 0 0-1.07 6.336l-9.293 1.925V41.253l.224.04a.988.988 0 0 0 .126 1.17Zm-2.35 21.613-9.532-1.974c-.011-2.529-.53-5.03-1.525-7.355l11.058-11.823v21.152ZM86.837 52.91a8.47 8.47 0 0 0-1.919-2.052 6.172 6.172 0 0 0-4.14-1.242 6.874 6.874 0 0 0-3.745 1.403c-.367.282-.71.595-1.024.934L71.612 46.2l25.74-4.534L86.835 52.91Zm-8.744 28.997 8.005 15.047-14.368-5.663 6.363-9.384Zm44.426 0 6.362 9.384-14.367 5.663 8.005-15.048Zm4.22-16.07c.182-1.051.279-2.116.289-3.183l12.648.716-.212 14.186-12.725-11.718Zm12.13-4.516-11.916-.674a17.788 17.788 0 0 0-1.652-6.315l5.287-6.918 8.281 13.907Zm-68.864-13.93 4.764 6.233a13.356 13.356 0 0 0-1.136 2.352 18.585 18.585 0 0 0-1.019 5.069l-11.778 1.183 9.17-14.837Z"/></svg>