<svg width="200" height="200" viewBox="0 0 200 200" xmlns="http://www.w3.org/2000/svg"><g id="type=plane, mode=light"><g id="Group 432527089"><path id="Vector" d="M63.8359 98.4877C53.1572 100.823 52.1562 103.715 52.1562 103.715C52.1562 103.715 55.2705 120.956 66.1709 120.622C63.2793 109.277 78.6299 104.605 78.6299 104.605L78.0733 99.266C78.0733 99.266 74.5137 96.1518 63.8359 98.4877Z"/><path id="Vector_2" d="M41.4074 69.7361C41.2893 69.7301 41.1751 69.7278 41.0654 69.7278C39.6684 69.7249 38.4498 70.1464 37.4832 70.7604C36.0274 71.6852 35.1059 72.986 34.5194 74.0366C33.9353 75.0918 33.6877 75.9198 33.6685 75.9813C33.4638 76.6696 33.8559 77.3933 34.5443 77.598C35.2325 77.8026 35.9563 77.4105 36.161 76.7223L36.1609 76.7222C36.1805 76.648 36.5793 75.4385 37.4073 74.3477C37.8194 73.7999 38.331 73.2866 38.9286 72.9232C39.5299 72.56 40.2057 72.3305 41.0654 72.3278L41.2795 72.3328C41.9965 72.3681 42.6064 71.8154 42.6418 71.0984C42.6771 70.3813 42.1245 69.7714 41.4074 69.7361Z"/><path id="Vector_3" d="M80.4238 66.1119L80.4242 66.1125C80.4243 66.1124 80.428 66.1104 80.4282 66.1102C80.4844 66.0706 82.8292 64.6878 86.0791 64.6955C88.7207 64.7074 91.9686 65.5434 95.4145 68.8355C95.9324 69.3327 96.7554 69.316 97.2527 68.7982C97.7499 68.2802 97.7331 67.4572 97.2153 66.96C93.3354 63.2196 89.3019 62.0837 86.0791 62.0956C81.9532 62.1042 79.1733 63.8351 79.0552 63.9022C78.4454 64.2813 78.2584 65.083 78.6377 65.6927C79.016 66.3009 79.8146 66.4876 80.4238 66.1119Z"/><path id="Vector_4" d="M95.5828 82.9001C93.2776 81.9418 90.7448 81.457 88.1699 81.4556C85.9923 81.4561 83.7812 81.8053 81.6597 82.5485C79.5399 83.2914 77.5075 84.4341 75.7381 86.0173C74.5032 87.1221 74.3977 89.0187 75.5026 90.2535C76.6073 91.4883 78.5039 91.5938 79.7388 90.489L79.7387 90.4889C80.8747 89.4727 82.2029 88.7166 83.6451 88.2106C85.0854 87.7048 86.6372 87.455 88.17 87.4554C89.9818 87.454 91.762 87.8066 93.2758 88.439C94.794 89.0703 96.0297 89.9712 96.8648 91.0181C97.8998 92.3116 99.7877 92.5212 101.081 91.4862C102.375 90.451 102.585 88.5631 101.55 87.2695C99.9732 85.3027 97.8837 83.8595 95.5828 82.9001Z"/><path id="Vector_5" d="M79.8388 98.7935C79.4588 98.1928 78.9335 97.7195 78.3417 97.3523C77.4501 96.8015 76.4011 96.4636 75.2382 96.2429C74.0747 96.0248 72.792 95.931 71.4318 95.9307C67.1693 95.9348 62.1299 96.8511 58.0524 98.1757C56.0123 98.8423 54.2205 99.604 52.8519 100.465C52.1672 100.899 51.583 101.355 51.12 101.896C50.8894 102.168 50.6885 102.464 50.5381 102.8C50.3881 103.134 50.2915 103.515 50.292 103.915C50.292 104.009 50.2975 104.102 50.3076 104.193H50.3075C50.3075 104.193 50.3076 104.193 50.3076 104.193C50.3076 104.193 50.3076 104.193 50.3076 104.194C50.3582 104.64 50.4697 105.205 50.6477 105.907C51.2739 108.35 52.7087 112.368 55.2399 115.901C56.5077 117.665 58.0558 119.309 59.9474 120.531C61.8346 121.752 64.0834 122.536 66.6228 122.533C67.5298 122.533 68.4719 122.434 69.4447 122.228C71.7837 121.734 73.6947 120.704 75.181 119.347C77.4163 117.309 78.6928 114.604 79.4255 111.897C80.1572 109.185 80.353 106.441 80.3541 104.205C80.3536 101.356 80.031 99.3306 80.0239 99.2835C79.9966 99.1126 79.9312 98.9396 79.8388 98.7935ZM51.5996 104.049L52.7988 103.915H52.8092L51.5996 104.049ZM76.111 113.544C75.4639 115.035 74.5916 116.369 73.4312 117.424C72.2678 118.479 70.8179 119.275 68.9045 119.685C68.1007 119.855 67.3422 119.933 66.6228 119.933C64.3301 119.929 62.4084 119.155 60.7103 117.897C58.17 116.015 56.222 112.988 54.9292 110.166C54.2809 108.758 53.7915 107.406 53.4543 106.292C53.1189 105.191 52.9341 104.299 52.8928 103.914L52.8929 103.913C52.8928 103.887 52.9791 103.681 53.2629 103.407C53.7485 102.921 54.7457 102.294 56.0406 101.719C59.9368 99.9592 66.4879 98.5194 71.4318 98.5306C73.0819 98.5291 74.5529 98.6903 75.6449 99.0055C76.1908 99.1616 76.6392 99.3547 76.9698 99.5609C77.2123 99.7118 77.3724 99.8641 77.5007 100.015C77.5832 100.651 77.7544 102.208 77.7541 104.205C77.7584 106.979 77.4091 110.567 76.111 113.544Z"/><path id="Vector_6" d="M187.06 127.887C185.2 126.662 182.683 125.461 179.736 124.551C176.791 123.643 173.419 123.031 169.877 123.03C169.389 123.035 168.981 123.15 168.559 123.298C167.829 123.562 167.069 123.967 166.289 124.429C164.359 125.579 162.37 127.092 161.733 127.584C161.527 127.449 161.329 127.308 161.116 127.178C160.999 127.106 160.868 127.046 160.748 126.976C160.871 126.616 161.071 126.257 161.364 125.873C161.933 125.122 162.856 124.32 163.954 123.44C165.051 122.556 166.315 121.587 167.547 120.414C168.404 119.6 168.979 118.707 169.325 117.831C169.672 116.954 169.792 116.102 169.792 115.355C169.785 113.644 169.197 112.474 169.148 112.366C168.935 111.939 168.506 111.664 168.03 111.648C167.553 111.632 167.107 111.877 166.865 112.288C166.607 112.727 166.219 113.133 165.678 113.518C164.898 114.078 163.794 114.562 162.519 114.99L162.453 113.661C162.429 113.18 162.142 112.753 161.707 112.549C161.271 112.344 160.759 112.397 160.375 112.686C160.289 112.753 158.694 113.952 157.336 116.256C157.305 116.309 157.291 116.369 157.268 116.425C156.427 116.636 155.587 116.861 154.749 117.099L153.963 114.268C153.849 113.857 153.545 113.532 153.143 113.39C152.742 113.248 152.301 113.31 151.954 113.558C151.905 113.594 150.674 114.474 149.252 116.014C148.013 117.361 146.612 119.212 145.775 121.491C145.717 121.476 145.649 121.458 145.595 121.443C143.834 120.969 142.61 120.267 141.833 119.702C141.645 119.564 141.486 119.436 141.349 119.32C146.496 115.472 151.43 111.187 155.526 107.394C160.543 102.745 164.291 98.8584 165.604 97.4732C166.064 97.5498 166.53 97.5825 166.997 97.5838C168.29 97.5821 169.594 97.3657 170.6 97.1559C171.604 96.9451 172.302 96.7361 172.327 96.7288C172.755 96.6001 173.085 96.2643 173.205 95.8333C173.326 95.4022 173.218 94.9441 172.918 94.6121L171.268 92.7855C172.117 92.4684 172.887 92.0635 173.539 91.6765C174.743 90.9535 175.54 90.2752 175.576 90.2448C175.914 89.9573 176.08 89.5241 176.022 89.0846C175.964 88.6451 175.691 88.27 175.29 88.0803L170.864 85.9834C171.397 85.4411 171.832 84.8675 172.184 84.3483C172.876 83.3164 173.237 82.4747 173.259 82.4254C173.425 82.0379 173.394 81.5956 173.174 81.2357C172.954 80.876 172.575 80.6456 172.155 80.6165C171.321 80.5584 170.465 80.5298 169.589 80.5298C164.126 80.5313 157.865 81.6533 151.395 83.864C151.43 81.137 152.585 79.0664 153.787 77.6226C154.395 76.8948 155.009 76.3406 155.462 75.976C155.688 75.7936 155.874 75.6583 155.999 75.5719L156.137 75.4789L156.167 75.4601L156.167 75.4597C156.72 75.1227 156.94 74.4291 156.684 73.8347C156.194 72.6978 155.986 71.5028 155.985 70.272C155.976 67.3677 157.194 64.2818 158.456 61.9592C159.084 60.7973 159.715 59.8246 160.186 59.1487C160.421 58.8107 160.616 58.5468 160.75 58.37L160.902 58.1718L160.94 58.1248L160.949 58.1139C161.312 57.6659 161.337 57.0269 161.007 56.5527C160.678 56.0786 160.071 55.8778 159.524 56.0623C152.944 58.2847 146.708 62.2051 142.082 65.5676C137.46 68.9314 134.459 71.744 134.431 71.7695C134.039 72.1367 133.914 72.7091 134.116 73.2068H134.116L134.116 73.2084C134.142 73.2579 134.902 75.2349 134.894 77.3657C134.895 78.393 134.724 79.438 134.28 80.344C133.831 81.2507 133.138 82.0481 131.909 82.684C131.854 82.7122 131.813 82.7555 131.763 82.7905C130.076 82.3729 128.015 82.0471 125.627 81.9904C125.386 67.5208 120.436 56.5283 112.478 49.2102C104.647 42.0005 94.0055 38.3865 82.3446 38.176C80.1948 34.8308 77.233 32.9793 74.6179 32.0181C71.8283 30.9896 69.4161 30.8964 68.5545 30.8945C68.3551 30.8945 68.2379 30.9 68.2175 30.9011C67.5826 30.9337 67.0643 31.4208 66.9926 32.0525L66.4848 36.5178C63.9093 35.1602 60.9337 34.6975 58.0239 34.6945C54.2856 34.6964 50.6045 35.4409 47.8356 36.1777C45.0684 36.9159 43.2177 37.652 43.1832 37.6654C42.6762 37.8672 42.351 38.36 42.3645 38.9054C42.3781 39.4509 42.7273 39.9269 43.2437 40.1034C46.7809 41.3163 49.3102 43.1179 51.1369 45.0148C41.9699 49.1485 36.0978 54.1804 32.5397 59.5488C28.9266 64.9927 27.7283 70.7359 27.7318 76.0342C27.734 81.6018 29.0338 86.7183 30.2177 90.6663C24.7511 89.3225 20.5538 88.9292 20.5109 88.9246C19.8429 88.8621 19.2382 89.3168 19.1127 89.9757C18.9884 90.6279 19.3766 91.2637 20.0092 91.4583L20.0081 91.4616L20.0427 91.4741C20.2411 91.5501 21.2428 91.9664 22.5127 93.307C23.7346 94.6 25.2116 96.7757 26.4176 100.373C25.8987 100.714 25.432 101.061 25.0215 101.4C23.3255 102.8 22.5248 104.047 22.4705 104.131C22.1279 104.671 22.2299 105.382 22.7103 105.804L25.7443 108.47L23.8811 114.609C23.8273 114.786 23.8233 114.968 23.8456 115.146C21.9292 115.855 19.9208 116.796 18.0824 117.897C16.8684 118.626 15.7301 119.424 14.7435 120.284C13.7581 121.146 12.9196 122.066 12.3244 123.08C12.0983 123.466 12.0871 123.943 12.2944 124.339C12.502 124.736 12.8995 124.998 13.3458 125.033L16.4603 125.274C16.1903 126.177 15.8898 127.37 15.7168 128.686C15.6682 129.059 15.7809 129.429 16.0292 129.712C16.2775 129.994 16.6298 130.154 17.006 130.154C17.1084 130.153 17.1494 130.147 17.1959 130.142C17.3534 130.124 17.4996 130.097 17.7158 130.058C18.5731 129.899 20.2902 129.538 21.5568 129.269L21.6007 131.549C21.6098 132.021 21.8721 132.449 22.2894 132.671C22.7068 132.893 23.2079 132.872 23.6052 132.616C23.6112 132.612 26.1713 130.961 27.8278 129.847C29.4664 130.841 33.7621 133.314 39.7993 135.796C47.5602 138.985 58.1807 142.188 69.6875 142.191C69.9624 142.191 70.239 142.183 70.5147 142.179C71.2727 143.984 73.3673 148.23 77.7718 152.497C81.547 156.163 87.0568 159.797 94.7722 161.852C94.9989 162.114 96.6671 164.011 99.4706 165.948C102.441 167.996 106.699 170.089 111.806 170.093C112.512 170.093 113.233 170.052 113.967 169.966C119.33 169.344 122.747 166.918 124.73 164.637C126.434 162.686 127.126 160.879 127.315 160.318C130.494 159.18 133.32 157.86 135.728 156.553C135.979 156.416 136.219 156.28 136.461 156.144C136.579 156.212 136.701 156.276 136.841 156.305L136.841 156.304C136.886 156.311 146.702 158.311 155.814 158.315C159.89 158.308 163.821 157.933 166.824 156.673C169.341 155.599 171.401 153.548 173.146 151.153C175.757 147.552 177.675 143.102 178.971 139.53C179.126 139.103 179.271 138.689 179.407 138.291C179.465 138.292 179.521 138.293 179.588 138.293C180.414 138.293 181.954 138.189 183.819 137.553C185.682 136.919 187.869 135.744 189.928 133.639C190.311 133.263 190.539 132.68 190.528 132.167C190.517 131.451 190.23 130.902 189.881 130.398C189.253 129.523 188.302 128.712 187.06 127.887ZM152.718 120.496C155.317 119.46 158.667 118.818 161.709 117.963C163.233 117.531 164.688 117.044 165.968 116.376C166.39 116.156 166.787 115.902 167.168 115.632C167.143 116.028 167.078 116.442 166.907 116.874C166.696 117.405 166.35 117.962 165.754 118.532C164.282 119.937 162.646 121.102 161.222 122.326C160.511 122.941 159.85 123.574 159.298 124.294C158.956 124.741 158.665 125.233 158.44 125.763C156.484 124.834 154.417 124.052 152.471 123.413C151.394 123.06 150.355 122.748 149.402 122.476C150.2 121.703 151.328 121.044 152.718 120.496ZM25.354 104.666C25.7408 104.237 26.2909 103.693 27.0175 103.134C28.2187 102.209 29.8903 101.249 32.0934 100.676C31.8957 102.247 31.3902 103.538 30.814 105.034C30.0799 106.932 29.2632 109.15 29.269 112.25C29.269 112.409 29.2821 112.582 29.2865 112.746L27.0127 113.243L28.4755 108.424C28.6235 107.936 28.4725 107.406 28.0896 107.07L25.354 104.666ZM122.617 163.101C120.949 164.921 118.239 166.837 113.664 167.384C113.032 167.458 112.412 167.493 111.806 167.493C107.434 167.497 103.649 165.675 100.948 163.808C100.497 163.497 100.09 163.189 99.7039 162.887C102.433 163.314 105.379 163.563 108.588 163.56C109.318 163.56 110.061 163.548 110.817 163.523C115.569 163.365 119.949 162.561 123.886 161.426C123.559 161.945 123.15 162.516 122.617 163.101ZM187.618 132.254C187.524 132.247 187.432 132.226 187.335 132.24V132.24C187.315 132.243 186.835 132.309 186.177 132.309C185.476 132.312 184.573 132.227 183.843 131.966C183.166 131.727 182.423 132.082 182.184 132.759C181.945 133.436 182.3 134.178 182.977 134.418L182.977 134.417C183.319 134.537 183.657 134.622 183.99 134.692C183.644 134.846 183.305 134.981 182.98 135.093C181.881 135.468 180.928 135.612 180.251 135.665C180.696 134.188 180.924 133.258 180.928 133.24C181.098 132.543 180.671 131.839 179.973 131.669C179.276 131.499 178.573 131.926 178.402 132.624L178.391 132.67C178.264 133.18 177.061 137.851 174.871 142.771C173.778 145.23 172.437 147.75 170.894 149.827C169.353 151.911 167.611 153.523 165.81 154.279C163.413 155.306 159.71 155.723 155.814 155.715C151.443 155.716 146.811 155.227 143.287 154.735C141.893 154.541 140.681 154.348 139.715 154.184C143.243 151.9 145.206 150.092 145.249 150.053C145.777 149.566 145.809 148.744 145.323 148.216C144.836 147.689 144.013 147.656 143.486 148.143L143.481 148.147C143.332 148.283 139.959 151.334 134.215 154.415C128.469 157.498 120.365 160.605 110.731 160.925C110.003 160.949 109.289 160.96 108.588 160.96C93.8077 160.949 84.9012 155.764 79.5803 150.629C76.9243 148.059 75.1766 145.488 74.0983 143.572C73.5593 142.614 73.1877 141.82 72.9537 141.274C72.8366 141.001 72.754 140.79 72.702 140.651L72.6464 140.498L72.635 140.465L72.6339 140.462L72.634 140.462L72.6331 140.459L72.6329 140.46C72.4524 139.912 71.938 139.55 71.3618 139.567C70.8015 139.583 70.2434 139.591 69.6876 139.591C58.6676 139.594 48.342 136.5 40.7882 133.392C37.0113 131.839 33.9277 130.285 31.7948 129.123C30.7284 128.542 29.8995 128.06 29.3404 127.724C29.0608 127.556 28.8486 127.425 28.7078 127.337L28.5507 127.238L28.5037 127.207C28.0595 126.919 27.4902 126.927 27.0548 127.228C26.3689 127.704 25.1801 128.488 24.1552 129.158L24.1261 127.642C24.1185 127.252 23.9389 126.89 23.6329 126.648C23.327 126.406 22.933 126.314 22.5516 126.397C22.5488 126.397 21.1827 126.693 19.774 126.988C19.3849 127.07 18.9955 127.151 18.6291 127.226C18.7448 126.736 18.8692 126.282 18.9858 125.9C19.1103 125.491 19.2249 125.158 19.307 124.931C19.348 124.818 19.3809 124.731 19.4028 124.674L19.4271 124.612L19.4328 124.597C19.5882 124.215 19.5515 123.775 19.3346 123.424C19.1175 123.073 18.7407 122.843 18.3292 122.812L16.04 122.634C16.4336 122.259 16.8623 121.884 17.3481 121.517C18.3962 120.722 19.6329 119.972 20.9241 119.296L20.7715 123.182C20.7544 123.616 20.9527 124.026 21.3038 124.283C21.6549 124.539 22.1059 124.603 22.5145 124.455C22.5591 124.438 23.3182 124.162 24.2677 123.627C25.2143 123.084 26.3697 122.309 27.1836 121.116C27.5841 120.52 27.4258 119.713 26.8299 119.312C26.234 118.911 25.4264 119.07 25.0258 119.666C24.698 120.168 24.0813 120.676 23.456 121.078L23.5747 118.057C23.7539 117.983 23.9347 117.896 24.1126 117.826C25.295 117.359 26.4449 116.987 27.4619 116.735C28.3866 116.505 29.196 116.385 29.7937 116.366C30.3841 118.518 31.4604 120.431 32.9015 122.067C35.9581 125.537 40.5239 127.863 45.5864 129.406C50.6539 130.945 56.2452 131.688 61.4284 131.843C62.146 131.864 62.745 131.299 62.7663 130.582C62.7876 129.864 62.2231 129.265 61.5056 129.244L61.5055 129.244C54.8543 129.051 47.4792 127.818 41.8062 125.223C38.968 123.93 36.5653 122.303 34.8556 120.352C33.1456 118.395 32.1036 116.145 31.9104 113.414C31.8822 113.006 31.869 112.618 31.869 112.25C31.8747 109.597 32.5162 107.855 33.2402 105.968C33.9081 104.235 34.6607 102.348 34.7645 99.861C36.1977 100.529 37.9172 99.9788 38.6721 98.5675L38.672 98.5673L38.6723 98.5675C38.7534 98.415 39.4903 97.1916 40.6496 96.1403C41.227 95.6119 41.9004 95.128 42.6253 94.7916C43.3546 94.4544 44.122 94.2532 45.0101 94.2513C46.0438 94.2556 47.2912 94.5203 48.8968 95.4241C50.3385 96.2406 52.169 95.7338 52.9856 94.2922C53.802 92.8504 53.2953 91.0198 51.8536 90.2034C49.4964 88.863 47.1606 88.2471 45.0101 88.2514C43.0427 88.2492 41.2752 88.7586 39.8148 89.4859C37.6166 90.5831 36.0675 92.1205 35.0251 93.368C34.6555 93.8135 34.3525 94.2232 34.1087 94.5753C34.008 94.189 33.9101 93.8055 33.7833 93.3951C32.4896 89.2208 30.3291 82.9062 30.3319 76.0342C30.3354 71.1144 31.421 65.9461 34.7068 60.9857C37.9958 56.0278 43.5249 51.2325 52.5859 47.21C52.6784 47.169 52.7712 47.1353 52.8637 47.0946C53.1391 47.4815 53.3911 47.8653 53.6195 48.2412C54.494 49.6871 55.0268 51.0184 55.3374 51.9764C55.4926 52.4552 55.5925 52.8405 55.6523 53.0991C55.6822 53.2284 55.7023 53.326 55.7141 53.3879L55.7262 53.4532L55.7281 53.4648L55.7286 53.4647C55.8169 54.0179 56.249 54.4527 56.8021 54.5431C57.3562 54.6336 57.9057 54.3581 58.165 53.8602C59.7958 50.7287 61.8739 48.3641 64.1283 46.5539C67.5074 43.8409 71.3011 42.3835 74.501 41.6133C76.8834 41.0387 78.9275 40.847 80.1979 40.7867C80.47 40.7818 80.7463 40.764 81.0172 40.7628C81.082 40.7622 81.1601 40.7606 81.2139 40.7606C81.3394 40.7606 81.434 40.7621 81.495 40.7635L81.561 40.7654L81.5747 40.7658C81.5869 40.7665 81.5986 40.7623 81.6108 40.7625C93.0497 40.8346 103.294 44.2872 110.717 51.1229C118.099 57.9306 122.78 68.1234 123.027 82.0372C120.555 82.1876 117.812 82.6403 114.838 83.5633C114.153 83.7761 113.769 84.5046 113.982 85.1904C114.195 85.8761 114.923 86.2595 115.609 86.0467L115.609 86.0466C119.111 84.96 122.236 84.5746 124.922 84.5743C128.353 84.5744 131.071 85.2055 132.919 85.8282C133.342 85.9709 133.714 86.1123 134.044 86.2463L124.812 94.5154C124.448 94.8418 124.297 95.351 124.425 95.8233C124.553 96.2956 124.94 96.6591 125.419 96.7573L132.583 98.2223C131.864 98.8026 131.002 99.4732 130.05 100.159C128.909 100.979 127.652 101.812 126.41 102.504C125.17 103.198 123.94 103.747 122.904 104.015C122.583 104.099 122.311 104.298 122.133 104.579L122.124 104.593C121.995 104.794 120.637 106.871 118.277 109.35C115.917 111.831 112.555 114.706 108.462 116.545C107.807 116.84 107.515 117.61 107.81 118.264C108.104 118.919 108.874 119.211 109.529 118.916C114.202 116.81 117.874 113.583 120.4 110.888C122.297 108.861 123.545 107.13 124.061 106.374C125.354 105.973 126.664 105.353 127.948 104.622C132.278 102.142 136.304 98.4787 136.342 98.4488C136.704 98.1202 136.852 97.6142 136.723 97.1423C136.593 96.6704 136.209 96.3099 135.729 96.212L133.699 95.7968C139.431 91.7711 145.514 88.6976 151.423 86.5962C154.189 85.6115 156.91 84.8514 159.541 84.2877C159.578 84.3114 159.603 84.3475 159.644 84.3678L162.264 85.6753C161.6 86.0191 160.647 86.3443 159.234 86.3984C158.517 86.425 157.956 87.0283 157.983 87.7458C158.01 88.4632 158.613 89.0234 159.331 88.9968L159.331 88.9967C161.56 88.9172 163.154 88.2588 164.175 87.5742C165.2 86.8907 165.653 86.2037 165.727 86.0843C165.92 85.7727 165.973 85.3971 165.873 85.0442C165.773 84.6914 165.531 84.3991 165.203 84.2354L163.811 83.5411C165.828 83.2732 167.769 83.1294 169.589 83.1299C169.68 83.1299 169.763 83.138 169.853 83.1388C169.308 83.9067 168.568 84.7013 167.79 85.0997C167.353 85.3286 167.084 85.784 167.094 86.2773C167.104 86.7706 167.391 87.2147 167.837 87.426L172.157 89.4729C172.139 89.4835 172.123 89.4937 172.105 89.5044C171.103 90.1024 169.806 90.6661 168.738 90.7392C168.242 90.7774 167.815 91.0916 167.631 91.5537C167.446 92.0157 167.54 92.5377 167.873 92.9069L169.51 94.7181C168.712 94.8645 167.8 94.9852 166.997 94.9838C166.419 94.9859 165.904 94.9179 165.578 94.8067C165.095 94.6458 164.562 94.7823 164.215 95.1561C164.215 95.1563 164.152 95.2241 164.025 95.3595C163.071 96.3742 158.612 101.063 152.573 106.578C146.537 112.091 138.909 118.432 131.688 122.731C131.071 123.098 130.869 123.896 131.237 124.513C131.604 125.13 132.402 125.332 133.019 124.965C135.079 123.737 137.156 122.356 139.213 120.888C140.001 121.658 141.819 123.119 144.919 123.954C146.867 124.477 150.703 125.43 154.467 126.878C156.346 127.6 158.201 128.446 159.764 129.398C161.329 130.348 162.588 131.411 163.317 132.481C163.723 133.073 164.532 133.224 165.124 132.818C165.716 132.411 165.867 131.602 165.461 131.01C165.015 130.364 164.467 129.779 163.867 129.227C164.485 128.762 165.416 128.082 166.401 127.431C167.159 126.929 167.95 126.446 168.618 126.109C168.95 125.94 169.252 125.808 169.485 125.728C169.601 125.688 169.7 125.661 169.77 125.646L169.877 125.63C174.814 125.627 179.492 126.947 182.876 128.537C184.567 129.328 185.934 130.19 186.821 130.937C187.265 131.308 187.585 131.652 187.76 131.901C187.796 131.952 187.822 131.995 187.846 132.036C187.77 132.11 187.694 132.183 187.618 132.254Z"/><path id="Vector_7" d="M108.97 28.4152C108.476 27.8943 107.653 27.8724 107.132 28.3665C106.611 28.8606 106.589 29.6833 107.083 30.2043L122.011 45.9446C122.505 46.4654 123.328 46.4873 123.849 45.9933C124.37 45.4991 124.392 44.6764 123.898 44.1554L108.97 28.4152Z"/><path id="Vector_8" d="M134.801 57.5402C135.322 57.046 135.344 56.2233 134.85 55.7023L130.902 51.5402C130.408 51.0193 129.586 50.9974 129.065 51.4915C128.544 51.9856 128.522 52.8083 129.016 53.3293L132.963 57.4915C133.457 58.0123 134.28 58.0342 134.801 57.5402Z"/><path id="Vector_9" d="M179.286 102.554C178.792 102.033 177.969 102.011 177.448 102.505C176.927 102.999 176.906 103.822 177.4 104.343L188.357 115.896C188.851 116.417 189.674 116.439 190.195 115.944C190.716 115.45 190.737 114.627 190.243 114.107L179.286 102.554Z"/><path id="Vector_10" d="M148.805 168.83L133.157 166.202C132.449 166.084 131.779 166.561 131.66 167.269C131.541 167.977 132.018 168.648 132.727 168.767L148.374 171.394C149.082 171.513 149.752 171.036 149.871 170.328C149.99 169.62 149.513 168.949 148.805 168.83Z"/><path id="Vector_11" d="M73.3358 156.156L66.9334 155.08C66.2254 154.962 65.555 155.439 65.4361 156.147C65.3172 156.855 65.7948 157.526 66.5029 157.644L72.9052 158.72C73.6133 158.839 74.2837 158.361 74.4026 157.653C74.5215 156.945 74.0439 156.274 73.3358 156.156Z"/><path id="Vector_12" d="M57.3574 153.472L30.2304 148.915C29.5223 148.796 28.8519 149.274 28.733 149.982C28.6141 150.69 29.0916 151.361 29.7997 151.479L56.9266 156.036C57.6347 156.155 58.3051 155.677 58.424 154.969C58.5429 154.261 58.0654 153.591 57.3574 153.472Z"/><path id="Vector_13" d="M41.4516 17.4958C41.0074 18.0599 41.1045 18.8773 41.6686 19.3213L55.6091 30.2989C56.1731 30.7431 56.9905 30.6459 57.4346 30.0818C57.8788 29.5178 57.7817 28.7004 57.2176 28.2563L43.2771 17.2787C42.7131 16.8345 41.8957 16.9317 41.4516 17.4958Z"/><path id="Vector_14" d="M173.978 163.461L167.954 161.721C167.264 161.522 166.544 161.919 166.344 162.609C166.145 163.299 166.543 164.02 167.233 164.219L173.256 165.959C173.946 166.158 174.666 165.761 174.866 165.071C175.065 164.381 174.667 163.661 173.978 163.461Z"/><path id="Vector_15" d="M12.9565 85.354L6.80027 82.7895C6.13743 82.5134 5.37632 82.8269 5.10032 83.4896C4.8242 84.1524 5.13767 84.9135 5.80039 85.1895L11.9566 87.754C12.6195 88.0301 13.3806 87.7166 13.6566 87.0539C13.9327 86.3911 13.6192 85.63 12.9565 85.354Z"/><path id="Vector_16" d="M182.523 143.811L173.09 138.415C172.467 138.058 171.673 138.274 171.316 138.898C170.96 139.521 171.176 140.315 171.799 140.671L181.232 146.068C181.855 146.425 182.649 146.208 183.006 145.585C183.362 144.962 183.146 144.168 182.523 143.811Z"/><path id="Vector_17" d="M69.7279 80.4947C70.3511 80.8513 71.1453 80.6351 71.5018 80.0119C71.8584 79.3888 71.6422 78.5946 71.019 78.238L65.5132 75.0876C64.89 74.7311 64.0958 74.9473 63.7392 75.5704C63.3827 76.1936 63.5989 76.9878 64.222 77.3444L69.7279 80.4947Z"/><path id="Vector_18" d="M54.6923 70.3948C55.0488 69.7716 54.8326 68.9774 54.2095 68.6208L18.2026 48.0202C17.5795 47.6637 16.7853 47.8799 16.4287 48.503C16.0721 49.1262 16.2883 49.9204 16.9115 50.277L52.9183 70.8776C53.5415 71.2341 54.3357 71.0179 54.6923 70.3948Z"/></g></g></svg>