<svg xmlns="http://www.w3.org/2000/svg" width="200" height="200" fill="none"><path fill="#BEBEC9" d="M88.284 75.229c.467-.996.839-2.034 1.11-3.1.494-1.934.824-3.907.987-5.897a1.3 1.3 0 0 0-2.591-.214 32.932 32.932 0 0 1-.914 5.466c-.231.907-.547 1.79-.945 2.638a1.3 1.3 0 0 0 2.353 1.107ZM60.602 82.114c.542.413 1.11.79 1.702 1.13a17.845 17.845 0 0 0 8.842 2.206 20.538 20.538 0 0 0 10.716-2.983 1.3 1.3 0 0 0-1.367-2.211 17.952 17.952 0 0 1-9.349 2.594 15.27 15.27 0 0 1-7.548-1.861c-.494-.284-.97-.6-1.424-.945a1.301 1.301 0 0 0-1.572 2.07ZM54.248 65.478c-.111.928-.167 1.863-.169 2.798a18.631 18.631 0 0 0 1.193 6.744 1.3 1.3 0 0 0 2.426-.934 16.026 16.026 0 0 1-1.019-5.81c.002-.834.052-1.666.15-2.494a1.3 1.3 0 1 0-2.581-.304ZM65.11 47.779a26.68 26.68 0 0 0-4.46 3.802 1.3 1.3 0 0 0 1.896 1.779 24.076 24.076 0 0 1 4.026-3.43 1.3 1.3 0 1 0-1.461-2.15v-.001ZM89.25 53.783a19.673 19.673 0 0 0-3.165-6.33 10.072 10.072 0 0 0-5.009-3.608 11.477 11.477 0 0 0-3.22-.423c-.697.002-1.394.048-2.087.138a1.3 1.3 0 0 0 .33 2.579c.582-.076 1.17-.115 1.758-.117a8.908 8.908 0 0 1 2.487.318 7.494 7.494 0 0 1 3.696 2.719 17.12 17.12 0 0 1 2.726 5.492 1.3 1.3 0 1 0 2.484-.768ZM111.92 54.639a17.384 17.384 0 0 1 2.736-5.62 7.537 7.537 0 0 1 3.743-2.779 8.908 8.908 0 0 1 2.487-.318c.535.001 1.069.034 1.6.097a1.3 1.3 0 0 0 .302-2.582 16.376 16.376 0 0 0-1.902-.115 11.481 11.481 0 0 0-3.219.423 10.112 10.112 0 0 0-5.066 3.681 19.929 19.929 0 0 0-3.171 6.465 1.302 1.302 0 0 0 .871 1.619 1.3 1.3 0 0 0 1.619-.871ZM112.823 74.254c-.45-.918-.804-1.88-1.056-2.87a32.954 32.954 0 0 1-.911-5.43 1.3 1.3 0 0 0-2.591.216c.164 1.978.493 3.938.983 5.86a17.392 17.392 0 0 0 1.243 3.373 1.297 1.297 0 0 0 1.741.591 1.293 1.293 0 0 0 .656-.747 1.288 1.288 0 0 0-.065-.993ZM136.305 80.138c-.373.27-.76.52-1.16.75a15.27 15.27 0 0 1-7.549 1.862 17.992 17.992 0 0 1-9.144-2.47 1.298 1.298 0 0 0-1.928 1.432 1.285 1.285 0 0 0 .594.8 20.573 20.573 0 0 0 10.478 2.838 17.848 17.848 0 0 0 8.843-2.206c.478-.275.941-.575 1.388-.897a1.299 1.299 0 0 0-1.521-2.109h-.001ZM141.936 65.892c.084.759.126 1.522.127 2.285a16.2 16.2 0 0 1-.889 5.46 1.298 1.298 0 0 0 1.783 1.608c.312-.148.552-.414.667-.739a18.804 18.804 0 0 0 1.039-6.329 23.634 23.634 0 0 0-.142-2.565 1.292 1.292 0 0 0-.477-.873 1.308 1.308 0 0 0-.955-.28 1.294 1.294 0 0 0-.873.478 1.301 1.301 0 0 0-.28.955ZM131.653 49.487a24.193 24.193 0 0 1 4.509 3.736 1.306 1.306 0 0 0 1.408.324 1.305 1.305 0 0 0 .838-1.176 1.295 1.295 0 0 0-.354-.93 26.812 26.812 0 0 0-4.993-4.14 1.303 1.303 0 0 0-1.988.86 1.298 1.298 0 0 0 .58 1.326ZM39.536 115.88a1.298 1.298 0 0 0-1.822-.248 9.532 9.532 0 0 0-3.178 4.171 10.019 10.019 0 0 0-.666 3.513c-.757.033-1.761.101-2.908.243a24.28 24.28 0 0 0-6.831 1.757 1.298 1.298 0 0 0-.648 1.721 1.302 1.302 0 0 0 1.72.648v-.001a21.796 21.796 0 0 1 6.079-1.544 33.258 33.258 0 0 1 3.862-.257l.087.001a1.297 1.297 0 0 0 1.297-1.54s-.015-.082-.03-.24a7.508 7.508 0 0 1 .462-3.36 6.91 6.91 0 0 1 2.327-3.042 1.317 1.317 0 0 0 .502-.86 1.296 1.296 0 0 0-.253-.962ZM59.136 142.92c.028.002 1.147.101 2.799.101a28.504 28.504 0 0 0 8.605-1.16 9.934 9.934 0 0 0 3.933-2.277 5.987 5.987 0 0 0 1.781-4.345 7.772 7.772 0 0 0-.094-1.188 1.302 1.302 0 0 0-1.483-1.086 1.302 1.302 0 0 0-1.087 1.484c.042.261.063.525.064.79.007.485-.085.966-.271 1.414a4.088 4.088 0 0 1-1.644 1.807 12.899 12.899 0 0 1-4.736 1.586 32.209 32.209 0 0 1-5.068.375 37.417 37.417 0 0 1-2.399-.078l-.133-.01-.038-.003a1.304 1.304 0 0 0-.95.299 1.297 1.297 0 0 0-.161 1.831 1.3 1.3 0 0 0 .882.46Z"/><path fill="#FFE632" d="M96.03 104.292c.26 1.323.39 2.668.39 4.016a22.653 22.653 0 0 1-7.539 16.643 30.621 30.621 0 0 1-18.922 7.826 1.3 1.3 0 1 0 .17 2.594 33.218 33.218 0 0 0 20.524-8.517 25.254 25.254 0 0 0 8.366-18.546c0-1.516-.146-3.028-.437-4.516a1.3 1.3 0 1 0-2.552.5Z"/><path fill="#BEBEC9" d="M70.953 126.181a4.94 4.94 0 0 0-1.805-1.47 5.778 5.778 0 0 0-2.522-.537 9.032 9.032 0 0 0-2.29.319 1.296 1.296 0 0 0-.927 1.587 1.302 1.302 0 0 0 1.588.928 6.41 6.41 0 0 1 1.629-.234c.482-.013.96.084 1.4.282.52.255.935.685 1.172 1.214.293.649.438 1.355.423 2.067 0 .325-.024.649-.073.971a8.466 8.466 0 0 1-2.892 4.642 23.509 23.509 0 0 1-8.33 4.655 3.567 3.567 0 0 0-.778.401c-.447.294-.927.676-1.51 1.145a54.16 54.16 0 0 1-9.72 6.631 37.378 37.378 0 0 1-17.285 4.203 41.9 41.9 0 0 1-6.983-.6 10.734 10.734 0 0 1-6.052-3.261 11.76 11.76 0 0 1-2.633-4.266 18.132 18.132 0 0 1-.884-5.5 17.642 17.642 0 0 1 2.466-8.843c2.32-4.071 6.098-7.624 10.19-10.535a72.82 72.82 0 0 1 11.975-6.771 1.313 1.313 0 0 0 .687-.726 1.296 1.296 0 0 0-.328-1.412 1.304 1.304 0 0 0-1.432-.23 67.934 67.934 0 0 0-16.57 10.312 32.555 32.555 0 0 0-6.78 8.072 20.256 20.256 0 0 0-2.808 10.133c.01 2.134.348 4.254 1.005 6.285a14.296 14.296 0 0 0 3.23 5.275 13.345 13.345 0 0 0 7.501 4.03c2.45.419 4.93.632 7.416.637 2.395 0 4.786-.213 7.143-.638-.23 2.976-.383 5.694-.484 8.021a1.302 1.302 0 0 0 1.242 1.355 1.3 1.3 0 0 0 1.355-1.242c.1-2.314.253-5.019.483-7.982a1.264 1.264 0 0 0-.15-.667 41.647 41.647 0 0 0 11.819-4.987 57.246 57.246 0 0 0 6.079-4.341c.755-.607 1.383-1.125 1.862-1.494.238-.184.44-.33.587-.426l.171-.103.04-.02.003-.002a26.053 26.053 0 0 0 9.237-5.199 10.973 10.973 0 0 0 3.7-6.167c.067-.449.101-.902.101-1.356a6.825 6.825 0 0 0-1.269-4.156Z"/><path fill="#FFE632" d="M46.796 125.469c-5.189-4.463-8.331-10.51-8.333-17.16 0-1.315.124-2.626.37-3.917a1.3 1.3 0 0 0-2.554-.487 23.48 23.48 0 0 0-.416 4.404 25.237 25.237 0 0 0 9.238 19.133 1.3 1.3 0 0 0 1.695-1.973Z"/><path fill="#BEBEC9" d="M109.086 84.871a1.3 1.3 0 0 0-1.838 0 7.172 7.172 0 0 1-1.587 1.184 6.246 6.246 0 0 1-2.463.765l-.138.006a.798.798 0 0 1-.436-.109c-.204-.1-.511-.421-1.052-.841a4.115 4.115 0 0 0-1.029-.574c-.042-.016-.093-.023-.138-.037a134.11 134.11 0 0 1-.083-2.417c3.11-.876 6.403-4.896 6.231-7.647-.226-3.612-13.074-3.474-14.373-.376-.845 2.015 2.444 6.664 5.538 7.893.02.876.05 1.737.084 2.513a3.74 3.74 0 0 0-.691.23c-.344.17-.66.395-.934.664a4.579 4.579 0 0 1-.571.537.68.68 0 0 1-.203.084 2.07 2.07 0 0 1-.514.053h-.013a6.479 6.479 0 0 1-2.085-.47 6.17 6.17 0 0 1-2.037-1.214 1.3 1.3 0 1 0-1.82 1.855h-.001a8.668 8.668 0 0 0 2.925 1.786c.574.22 1.166.389 1.77.505L87.2 96.819l-4.544.358-7.815-.203-5.558-1.753a1.304 1.304 0 0 0-.457-.059l-17.712.897a1.304 1.304 0 0 0-.773.305l-2.651 2.24-3.376-.228c-.116-.008-.232 0-.346.023a18.44 18.44 0 0 0-3.59 1.186 9.5 9.5 0 0 0-2.637 1.708 5.012 5.012 0 0 0-1.007 1.337 3.873 3.873 0 0 0-.423 1.753c.007.995.358 1.956.992 2.722a7.24 7.24 0 0 0 1.925 1.626 17.888 17.888 0 0 0 4.458 1.794 52.653 52.653 0 0 0 9.787 1.517l3.341 3.847a1.295 1.295 0 0 0 1.135.439l16.675-1.975 5.606 2.644a1.3 1.3 0 0 0 1.198-.046l9.644-5.495.2-.14 2.865-2.441a10.397 10.397 0 0 0 1.913-1.042 6.706 6.706 0 0 0 1.577-1.493 4.05 4.05 0 0 0 .83-2.405 2.509 2.509 0 0 0-.207-.983 3.844 3.844 0 0 0-.914-1.257 9.757 9.757 0 0 0-1.937-1.371c-.454-.256-.932-.49-1.414-.716l8.831-10.206c.082.006.159.024.243.024.121 0 .242-.005.364-.016a8.85 8.85 0 0 0 3.489-1.076 9.746 9.746 0 0 0 2.173-1.624 1.3 1.3 0 0 0 0-1.839Zm-14.105 18.253c.284.189.542.415.766.673l.106.163a1.457 1.457 0 0 1-.322.842 5.011 5.011 0 0 1-1.541 1.257 8.062 8.062 0 0 1-.922.445l-.049.019-.009.004a1.303 1.303 0 0 0-.396.231l-2.934 2.5-8.951 5.099-5.332-2.515a1.315 1.315 0 0 0-.708-.115l-16.362 1.938-3.25-3.743a1.296 1.296 0 0 0-.926-.446l-.17-.009a53.35 53.35 0 0 1-8.598-1.191 17.47 17.47 0 0 1-4.805-1.768 4.522 4.522 0 0 1-1.297-1.097 1.666 1.666 0 0 1-.37-1.028c.001-.203.051-.403.146-.583a3.29 3.29 0 0 1 1.1-1.127c.872-.561 1.816-1 2.806-1.306a16.528 16.528 0 0 1 1.366-.384l3.711.25c.337.023.669-.086.927-.304l2.717-2.296 17.04-.862 5.51 1.738c.116.036.236.056.357.06l8.067.21.136-.004 2.03-.16-1.98 2.327a1.295 1.295 0 0 0-.408-.172 34.628 34.628 0 0 0-6.277-.464 70.278 70.278 0 0 0-3.37.083l-3.231-1.147a1.31 1.31 0 0 0-.485-.074l-14.578.561a1.311 1.311 0 0 0-.806.321l-1.508 1.318-4.893.729a1.296 1.296 0 0 0-.912.599 1.302 1.302 0 0 0-.134 1.084c.274.796.82 1.47 1.544 1.902a8.554 8.554 0 0 0 3.257 1.079c1.016.145 2.041.216 3.068.211.426 0 .78-.011 1.046-.023l2.203 1.629c.263.194.59.282.915.246l15.093-1.652 5.123 1.601c.152.047.31.066.47.057 1.38-.108 2.749-.326 4.094-.651a17.008 17.008 0 0 0 3.397-1.182 7.605 7.605 0 0 0 2.905-2.298 1.292 1.292 0 0 0 .216-.991l2.64-3.051a16.36 16.36 0 0 1 2.768 1.467Zm-14.025 1.04-2.116 2.488a1.295 1.295 0 0 0-.238.431l-4.718-1.474a1.282 1.282 0 0 0-.53-.051l-14.857 1.627-2.17-1.605a1.307 1.307 0 0 0-.874-.25l-.018.001c-.1.007-.614.041-1.325.041-.975.004-1.95-.072-2.914-.228l1.746-.26c.246-.037.476-.144.664-.308l1.448-1.267 13.87-.533 3.24 1.15c.165.058.34.083.514.073 0 0 .089-.006.261-.014a66.692 66.692 0 0 1 3.22-.079 38.633 38.633 0 0 1 4.797.258Zm5.288.418a1.27 1.27 0 0 0-.287.725 7.589 7.589 0 0 1-.647.355c-.992.461-2.032.81-3.101 1.042L98.172 87.93c.025-.04.049-.083.07-.126.278-.12.582-.17.885-.148a1.29 1.29 0 0 1 .627.135c.224.13.431.285.618.463l-14.128 16.328Z"/><path fill="#FFE632" d="M70.747 65.528c-3.158 2.308-6.449 4.817-9.422 7.282a1.3 1.3 0 0 0 1.66 2.001c2.915-2.417 6.168-4.898 9.296-7.184a1.3 1.3 0 1 0-1.534-2.099Z"/><path fill="#FFE632" d="M150.149 56.823a2.093 2.093 0 0 0-.548-.97 5.359 5.359 0 0 0-1.424-.986 25.43 25.43 0 0 0-3.501-1.388c-3.257-1.073-7.145-1.998-8.449-2.298-.612-.774-2.132-2.67-3.819-4.584-1.095-1.242-2.254-2.488-3.309-3.459-.476-.448-.984-.86-1.521-1.232a4.814 4.814 0 0 0-.76-.423c-.3-.136-.624-.21-.954-.216l-.176.008a2.372 2.372 0 0 0-.917.302c-.472.28-.907.619-1.293 1.01a27.92 27.92 0 0 0-2.359 2.694c-1.936 2.458-3.918 5.41-4.656 6.527-1.1.221-3.709.776-6.354 1.562a29.275 29.275 0 0 0-4.882 1.846 7.94 7.94 0 0 0-1.836 1.242c-.267.25-.494.539-.673.858-.2.359-.307.763-.31 1.174l.001.05c.038.65.225 1.284.547 1.85.007.014.016.027.024.04-.012-.005-.022-.013-.033-.02a9.127 9.127 0 0 0-4.302-1.121c-.901 0-1.796.157-2.644.465.157-.387.246-.798.264-1.215V58.49a2.455 2.455 0 0 0-.31-1.174 4.38 4.38 0 0 0-1.406-1.448 16.526 16.526 0 0 0-3.612-1.723 67.336 67.336 0 0 0-8.726-2.337 120.766 120.766 0 0 0-3.297-4.737c-.965-1.31-1.992-2.63-2.936-3.672-.425-.48-.884-.928-1.374-1.34a4.79 4.79 0 0 0-.702-.482 2.372 2.372 0 0 0-.918-.302l-.175-.008c-.33.006-.654.08-.954.216a6.43 6.43 0 0 0-1.41.903 27.682 27.682 0 0 0-2.641 2.518c-2.234 2.37-4.56 5.268-5.358 6.276-1.005.232-3.55.836-6.157 1.593-1.602.447-3.179.982-4.724 1.6-.62.25-1.218.553-1.785.907a3.991 3.991 0 0 0-.708.574 2.095 2.095 0 0 0-.547.968 2.51 2.51 0 0 0-.063.568c.025.636.189 1.258.48 1.824a16.819 16.819 0 0 0 2.071 3.125 66.63 66.63 0 0 0 5.57 5.946 68.08 68.08 0 0 0-.783 3.01 33.364 33.364 0 0 0-1.024 6.968c-.012.679.06 1.357.216 2.018.146.679.507 1.293 1.03 1.752l.82-1.009-.82 1.009c.324.255.701.434 1.104.524.372.084.752.125 1.134.12a16.321 16.321 0 0 0 4.188-.749 77.917 77.917 0 0 0 9.384-3.576 98.214 98.214 0 0 0 4.675 2.32c1.427.659 2.968 1.32 4.408 1.827.679.243 1.37.452 2.07.625a8.225 8.225 0 0 0 1.863.258c.502.015 1-.092 1.451-.311.486-.271.876-.687 1.115-1.19a6.937 6.937 0 0 0 .61-2.23c.104-.88.153-1.764.146-2.65a65.249 65.249 0 0 0-.666-8.215 68.327 68.327 0 0 0 3.896-3.344c.226-.21.452-.428.677-.646.049.059.103.113.163.161a1.3 1.3 0 0 0 1.8-.373 6.111 6.111 0 0 1 2.194-2.1 5.032 5.032 0 0 1 2.411-.595 6.54 6.54 0 0 1 3.066.81 6.02 6.02 0 0 1 2.151 1.886 1.298 1.298 0 0 0 1.8.371c.218-.15.383-.365.472-.615a63.118 63.118 0 0 0 5.035 4.445 65.318 65.318 0 0 0-.666 8.216c-.02 1.154.073 2.307.279 3.443.094.498.255.98.477 1.437.239.502.628.918 1.114 1.188.452.22.95.327 1.452.312a8.221 8.221 0 0 0 1.863-.258 42.962 42.962 0 0 0 7.521-2.942 99.712 99.712 0 0 0 3.632-1.83c.889.401 2.693 1.195 4.782 2 1.474.57 3.08 1.14 4.603 1.576 1.357.431 2.765.683 4.188.75.381.004.762-.037 1.133-.121.403-.09.78-.27 1.105-.524l-.821-1.009.821 1.008a3.244 3.244 0 0 0 1.03-1.751 8.202 8.202 0 0 0 .215-2.018 33.34 33.34 0 0 0-1.024-6.968 68.257 68.257 0 0 0-.783-3.01 78.72 78.72 0 0 0 3.634-3.699 36.645 36.645 0 0 0 2.959-3.609c.397-.558.748-1.147 1.048-1.763a4.365 4.365 0 0 0 .48-1.824c.001-.191-.02-.381-.062-.567Zm-62.659 8.61a70.212 70.212 0 0 1-2.012 1.64l-.158.123a1.298 1.298 0 0 0-.495 1.235l.031.204c.064.425.216 1.493.362 2.837a27.886 27.886 0 0 0-4.94 3.21 1.3 1.3 0 1 0 1.616 2.038 27.74 27.74 0 0 1 3.575-2.439c.061.914.101 1.845.1 2.72a15.21 15.21 0 0 1-.223 2.914c-.049.27-.131.532-.246.78l-.045.073c-.069.01-.138.015-.207.014a5.794 5.794 0 0 1-1.26-.187 40.967 40.967 0 0 1-7.003-2.759 98.872 98.872 0 0 1-3.774-1.908l-.309-.166a1.303 1.303 0 0 0-1.173-.037s-.142.066-.407.186c-.926.42-3.322 1.48-5.895 2.426-1.286.473-2.617.916-3.816 1.236-.96.285-1.951.454-2.952.504a2.324 2.324 0 0 1-.524-.048l-.075-.024-.05-.084a4.323 4.323 0 0 1-.234-1.658c.098-2.151.418-4.286.955-6.372a65.976 65.976 0 0 1 .886-3.354l.08-.27a1.299 1.299 0 0 0-.361-1.338l-.087-.08c-.44-.41-2.47-2.326-4.36-4.436a30.486 30.486 0 0 1-2.496-3.113 8.907 8.907 0 0 1-.73-1.263 2.547 2.547 0 0 1-.177-.497 4.2 4.2 0 0 1 .59-.356 22.993 22.993 0 0 1 3.122-1.23c1.889-.625 4.066-1.213 5.761-1.642.849-.214 1.577-.389 2.093-.51.515-.12.813-.187.813-.187.295-.066.558-.233.744-.47 0-.001.115-.148.324-.412.731-.922 2.603-3.247 4.485-5.313a34.945 34.945 0 0 1 2.658-2.674c.304-.274.629-.524.972-.748.045-.028.082-.048.118-.068.18.126.348.265.506.416.761.748 1.47 1.547 2.12 2.393a69.713 69.713 0 0 1 1.87 2.48c-.924.483-3.197 1.695-6.041 3.367a104.597 104.597 0 0 0-12.327 8.328 1.299 1.299 0 0 0 .683 2.303 1.3 1.3 0 0 0 .954-.283 102.166 102.166 0 0 1 12.007-8.107 149.941 149.941 0 0 1 5.883-3.28l.353-.184a126.4 126.4 0 0 1 1.559 2.322 1.298 1.298 0 0 0 .852.57l.143.028c.718.139 4.037.807 7.114 1.767 1.385.403 2.73.934 4.017 1.585.387.197.746.446 1.065.74.052.05.097.105.135.165-.047.226-.13.443-.244.643a12.62 12.62 0 0 1-1.853 2.43 48.162 48.162 0 0 1-4.072 3.82Zm58.14-4.719a55.604 55.604 0 0 1-3.841 4.226 78.644 78.644 0 0 1-1.901 1.85l-.15.14a1.296 1.296 0 0 0-.362 1.338l.081.269c.183.623.65 2.259 1.066 4.145.442 1.83.701 3.7.774 5.581.011.46-.034.92-.133 1.368a1.484 1.484 0 0 1-.12.33l-.029.045a1.833 1.833 0 0 1-.601.071 14.11 14.11 0 0 1-3.473-.649 63.215 63.215 0 0 1-6.403-2.31 96.459 96.459 0 0 1-3.193-1.393 1.305 1.305 0 0 0-1.174.037s-.14.077-.401.216a93.198 93.198 0 0 1-5.743 2.808c-1.236.547-2.504 1.06-3.618 1.426-.83.31-1.7.501-2.584.57-.07 0-.139-.004-.209-.014-.055-.087-.1-.18-.132-.279a6.351 6.351 0 0 1-.285-1.418c-.068-.687-.1-1.378-.095-2.069.023-1.912.147-3.822.372-5.72a77.435 77.435 0 0 1 .341-2.647l.031-.204a1.303 1.303 0 0 0-.494-1.235l-.092-.07c-.463-.36-2.614-2.052-4.618-3.965a26.337 26.337 0 0 1-2.646-2.857 7.725 7.725 0 0 1-.774-1.188 2.04 2.04 0 0 1-.21-.576c.159-.21.355-.388.578-.526a14.149 14.149 0 0 1 3.019-1.42 55.172 55.172 0 0 1 5.876-1.692 80.29 80.29 0 0 1 3.002-.646 1.294 1.294 0 0 0 .852-.571s.099-.154.282-.43c.638-.967 2.275-3.404 3.938-5.59a35.426 35.426 0 0 1 2.367-2.849c.272-.294.566-.567.88-.816.037-.029.067-.048.098-.07.177.1.347.212.507.337a21.81 21.81 0 0 1 2.367 2.213c.874.915 1.78 1.944 2.613 2.918-1.592.894-9.806 5.53-16.778 9.944a1.297 1.297 0 0 0-.402 1.794 1.3 1.3 0 0 0 1.793.403c3.83-2.425 8.072-4.937 11.353-6.84a471.867 471.867 0 0 1 5.598-3.197c.04-.03.078-.063.113-.097.353.431.656.809.888 1.099l.375.473.131.167c.186.239.449.405.744.471.001 0 .195.043.546.125 1.225.284 4.32 1.027 7.115 1.892 1.244.368 2.465.81 3.656 1.324a6.48 6.48 0 0 1 1.039.564l.023.018a2.75 2.75 0 0 1-.208.57 14.487 14.487 0 0 1-1.749 2.607Z"/><path fill="#FFE632" d="M124.238 65.043h-.001c-2.164 1.441-4.347 2.897-6.145 4.096a1.304 1.304 0 0 0-.558 1.336 1.297 1.297 0 0 0 1.023 1.024 1.303 1.303 0 0 0 .978-.197l6.143-4.095a1.297 1.297 0 0 0 .354-1.797 1.298 1.298 0 0 0-1.794-.367Z"/><path fill="#BEBEC9" d="M44.573 127.073a4.064 4.064 0 0 0 2.683.987 6.422 6.422 0 0 0 2.684-.676 19.822 19.822 0 0 0 3.603-2.342c1.129-.878 2.187-1.774 3.057-2.408a4.765 4.765 0 0 1 2.752-.902 3.326 3.326 0 0 1 2.371.888 4.15 4.15 0 0 1 1.064 3.116l-.003.228a7.026 7.026 0 0 1-.984 3.351 12.524 12.524 0 0 1-3.902 3.944 19.47 19.47 0 0 1-4.559 2.258 1.301 1.301 0 0 0 .822 2.467 21.528 21.528 0 0 0 6.947-3.905 13.602 13.602 0 0 0 2.944-3.464 9.634 9.634 0 0 0 1.335-4.879 6.744 6.744 0 0 0-1.845-4.973 5.921 5.921 0 0 0-4.19-1.631 7.347 7.347 0 0 0-4.285 1.402c-1.313.961-2.766 2.243-4.191 3.258-.64.471-1.322.885-2.035 1.235a3.899 3.899 0 0 1-1.585.433 1.437 1.437 0 0 1-.996-.365 1.287 1.287 0 0 0-.947-.309 1.288 1.288 0 0 0-.888.452 1.3 1.3 0 0 0 .148 1.835ZM119.186 178.787c-5.912.357-12.199.55-18.718.55a266.674 266.674 0 0 1-38.703-2.58 108.208 108.208 0 0 1-13.674-2.857 27.815 27.815 0 0 1-8.109-3.452 1.303 1.303 0 0 0-1.816.29 1.298 1.298 0 0 0 .29 1.815 30.057 30.057 0 0 0 8.909 3.843 135.75 135.75 0 0 0 22.615 4.03 292.58 292.58 0 0 0 30.488 1.511c6.57 0 12.908-.194 18.875-.554a1.302 1.302 0 0 0 .782-2.27 1.308 1.308 0 0 0-.939-.326ZM162.044 169.472a9.412 9.412 0 0 1-2.852 2.036 42.632 42.632 0 0 1-8.648 3.017 123.968 123.968 0 0 1-12.873 2.452 1.296 1.296 0 0 0-1.104 1.47 1.304 1.304 0 0 0 1.47 1.104 109.516 109.516 0 0 0 16.686-3.502 36.224 36.224 0 0 0 5.657-2.228 11.813 11.813 0 0 0 3.649-2.671 1.297 1.297 0 0 0-1.102-2.131c-.343.028-.66.191-.883.453ZM180.518 175.318a47.61 47.61 0 0 1-11.105 6.268 1.318 1.318 0 0 0-.69.717 1.3 1.3 0 0 0 1.731 1.666c5.161-2.258 9.155-4.482 11.743-6.666a1.29 1.29 0 0 0 .462-.885 1.3 1.3 0 0 0-2.141-1.1ZM75.852 184.591c-4.9-.41-9.622-.924-14.114-1.528a1.31 1.31 0 0 0-.962.255 1.303 1.303 0 0 0-.245 1.822 1.302 1.302 0 0 0 .86.5c4.538.61 9.303 1.128 14.244 1.542a1.297 1.297 0 0 0 1.098-2.133 1.303 1.303 0 0 0-.881-.458ZM176.77 171.003c.451-.834.69-1.765.698-2.713a5.724 5.724 0 0 0-.57-2.456 9.584 9.584 0 0 0-2.612-3.181 22.72 22.72 0 0 0-4.295-2.73 1.298 1.298 0 0 0-1.822 1.565 1.3 1.3 0 0 0 .648.755 17.162 17.162 0 0 1 4.657 3.2c.435.44.797.946 1.072 1.5.207.42.317.88.322 1.347a3.198 3.198 0 0 1-.4 1.505 8.184 8.184 0 0 1-2.411 2.582 25.075 25.075 0 0 1-4.698 2.655 1.299 1.299 0 0 0 .071 2.401 1.3 1.3 0 0 0 .995-.029 23.609 23.609 0 0 0 6.481-4.025 9.141 9.141 0 0 0 1.864-2.376Z"/><path fill="#BEBEC9" d="M48.362 180.565c-7.086-1.561-12.808-3.686-16.666-5.959a16.865 16.865 0 0 1-4.315-3.401 4.637 4.637 0 0 1-1.313-2.915 3.17 3.17 0 0 1 .368-1.442 7.726 7.726 0 0 1 2.211-2.467 23.059 23.059 0 0 1 4.332-2.558 1.303 1.303 0 0 0 .753-1.238 1.3 1.3 0 0 0-1.86-1.114 21.945 21.945 0 0 0-6.026 3.908 8.85 8.85 0 0 0-1.732 2.3 5.77 5.77 0 0 0-.646 2.611 7.181 7.181 0 0 0 1.93 4.596c1.8 2.111 4.669 4.021 8.452 5.755a70.64 70.64 0 0 0 13.952 4.463 1.301 1.301 0 0 0 1.027-2.337 1.31 1.31 0 0 0-.467-.202ZM26.223 178.668c-4.285-1.984-7.274-4.161-8.717-6.222a1.307 1.307 0 0 0-.842-.53 1.292 1.292 0 0 0-.97.22 1.3 1.3 0 0 0-.31 1.813c1.907 2.673 5.24 4.972 9.742 7.076a1.306 1.306 0 0 0 1.432-.216 1.298 1.298 0 0 0 .343-1.408 1.302 1.302 0 0 0-.678-.733ZM184.63 120.913a25.746 25.746 0 0 0-13.614-7.56 36.258 36.258 0 0 1-11.481-4.373c-1.363-.776-2.606-1.538-3.953-2.188a17.48 17.48 0 0 0-2.317-.925 39.012 39.012 0 0 0 3.051-3.917 36.236 36.236 0 0 0 6.094-16.913c.154-1.55.23-3.096.229-4.637-.004-11.96-4.544-23.464-11.988-33.088a18.43 18.43 0 0 0 3.586-3.662 20.458 20.458 0 0 0 3.919-12.092c.01-2.892-.613-5.75-1.828-8.374a17.727 17.727 0 0 0-5.554-6.799 18.771 18.771 0 0 0-11.186-3.572 20.417 20.417 0 0 0-16.342 8.016 18.408 18.408 0 0 0-2.45 4.57 61.988 61.988 0 0 0-21.536-3.947 63.82 63.82 0 0 0-20.967 3.59 18.402 18.402 0 0 0-2.312-4.213 20.418 20.418 0 0 0-16.341-8.016 18.77 18.77 0 0 0-11.186 3.572 17.728 17.728 0 0 0-5.555 6.8 19.764 19.764 0 0 0-1.828 8.372 20.454 20.454 0 0 0 3.92 12.093 18.442 18.442 0 0 0 2.89 3.1 54.795 54.795 0 0 0-11.984 33.615c0 1.543.07 3.097.212 4.662a38.63 38.63 0 0 0 4.469 15.114 1.31 1.31 0 0 0 .774.625 1.288 1.288 0 0 0 .99-.105 1.303 1.303 0 0 0 .52-1.764 36.027 36.027 0 0 1-4.163-14.107 48.214 48.214 0 0 1-.203-4.425c-.001-15.213 7.174-29.283 18.388-39.572A63.306 63.306 0 0 1 99.26 24.052c15.899-.004 31.127 6.748 42.357 17.197 11.235 10.448 18.427 24.547 18.422 39.15 0 1.456-.072 2.916-.217 4.381a33.622 33.622 0 0 1-5.659 15.713c-4.687 6.925-12.049 12.449-21.441 16.246-9.388 3.795-20.791 5.85-33.462 5.849-2.27 0-4.499-.056-6.685-.169a1.299 1.299 0 0 0-1.033 2.169c.231.256.554.41.898.428 2.232.115 4.505.173 6.82.172 17.267-.003 32.353-3.718 43.518-10.596a47.765 47.765 0 0 0 8.439-6.572c1.121.234 2.208.608 3.236 1.114 3.559 1.7 7.282 4.949 16.031 6.764a23.15 23.15 0 0 1 12.237 6.781 17.936 17.936 0 0 1 4.958 12.259 18.25 18.25 0 0 1-.331 3.443 7.04 7.04 0 0 1-1.737 3.53 10.826 10.826 0 0 1-5.34 2.893 27.81 27.81 0 0 1-6.891.77 46.532 46.532 0 0 1-7.85-.695l-.117-.022-.033-.007a1.295 1.295 0 0 0-1.065.258 1.3 1.3 0 0 0-.49.98v.008a12.934 12.934 0 0 1-.805 3.813 5.823 5.823 0 0 1-1.419 2.194 3.333 3.333 0 0 1-2.348.868c-.126 0-.259-.005-.398-.017a2.168 2.168 0 0 1-1.126-.38 2.945 2.945 0 0 1-1.004-1.586 9.695 9.695 0 0 1-.354-2.809c.023-1.603.212-3.199.564-4.763.153-.697.317-1.308.459-1.763.071-.226.137-.414.188-.546l.062-.147.014-.028-.004-.002a1.294 1.294 0 0 0-.436-1.776 1.3 1.3 0 0 0-1.779.422c-.11.187-.204.382-.279.585a21.195 21.195 0 0 0-.888 3.292 29.55 29.55 0 0 0-.204 1.167c-.012.027-.035.047-.045.076a11.155 11.155 0 0 1-2.217 3.526 7.44 7.44 0 0 1-1.76 1.43 3.725 3.725 0 0 1-1.824.523 3.389 3.389 0 0 1-2.712-1.43 3.964 3.964 0 0 1-.577-2.236c-.014-2.015 1.024-5.211 3.901-9.541a1.303 1.303 0 0 0-.368-1.799 1.301 1.301 0 0 0-1.8.364 33.315 33.315 0 0 0-3.248 6.027c-.104.06-.2.135-.283.222a4.89 4.89 0 0 1-3.712 1.777 3.551 3.551 0 0 1-1.834-.468 1.748 1.748 0 0 1-.831-1.044 2.527 2.527 0 0 1-.058-.601 8.987 8.987 0 0 1 1.053-3.828c1.22-2.451 3.711-5.519 8.604-8.371 4.891-2.851 12.189-5.472 22.946-6.959a1.314 1.314 0 0 0 .864-.501 1.299 1.299 0 0 0-.712-2.047 1.3 1.3 0 0 0-.508-.028c-14.672 2.031-23.35 6.151-28.408 10.447a20.13 20.13 0 0 0-5.114 6.302 11.515 11.515 0 0 0-1.325 4.985 5.02 5.02 0 0 0 .142 1.257 4.347 4.347 0 0 0 1.987 2.603 6.125 6.125 0 0 0 3.195.853 7.3 7.3 0 0 0 2.968-.641c-.034.338-.058.671-.059.991a6.56 6.56 0 0 0 1.005 3.665 5.997 5.997 0 0 0 4.884 2.601 6.316 6.316 0 0 0 3.094-.855c.96-.558 1.822-1.27 2.551-2.107a8.803 8.803 0 0 0 .816 3.043 4.988 4.988 0 0 0 1.533 1.832 4.779 4.779 0 0 0 2.428.858c.206.017.41.025.609.025a6.082 6.082 0 0 0 2.653-.583c.269 3.501.426 6.575.515 8.943a1.299 1.299 0 1 0 2.598-.098 234.92 234.92 0 0 0-.673-10.939c.311-.435.582-.897.811-1.38a13.819 13.819 0 0 0 1.08-3.607l.041-.271c2.352.35 4.725.529 7.102.538 3.402.093 6.79-.474 9.977-1.67 1.578-.634 3-1.601 4.17-2.835a9.666 9.666 0 0 0 2.375-4.799 20.92 20.92 0 0 0 .377-3.932 20.548 20.548 0 0 0-5.649-14.025ZM55.127 38.877a64.252 64.252 0 0 0-5.61 5.853 15.846 15.846 0 0 1-2.433-2.622 17.86 17.86 0 0 1-3.413-10.55c-.01-2.51.53-4.993 1.582-7.271a15.122 15.122 0 0 1 4.742-5.808 16.169 16.169 0 0 1 9.645-3.066 17.832 17.832 0 0 1 14.248 6.958 15.814 15.814 0 0 1 1.971 3.58 66.995 66.995 0 0 0-20.732 12.926Zm88.261.468a68.317 68.317 0 0 0-20.171-13.003 15.77 15.77 0 0 1 2.123-3.971 17.826 17.826 0 0 1 14.248-6.958 16.168 16.168 0 0 1 9.644 3.066 15.124 15.124 0 0 1 4.742 5.808 17.184 17.184 0 0 1 1.582 7.27 17.852 17.852 0 0 1-3.413 10.551 15.813 15.813 0 0 1-3.12 3.179 66.731 66.731 0 0 0-5.635-5.942Z"/></svg>