<svg width="200" height="200" viewBox="0 0 200 200" xmlns="http://www.w3.org/2000/svg"><g id="type=love, mode=light"><g id="Layer 2"><path id="Vector" d="M45.958 63.5351C41.9903 61.4001 36.2146 62.2508 32.004 67.5349C22.8795 58.7684 13.0273 65.4114 14.3294 74.7309C15.6938 84.4966 33.7061 91.0862 33.7061 91.0862C33.7061 91.0862 43.2208 86.7756 47.9187 79.5132C51.8383 72.1513 50.6241 67.25 45.958 63.5351ZM54.0727 91.8239C54.3395 92.1958 54.6124 92.5642 54.8915 92.9289C53.8944 97.6253 53.3948 102.414 53.401 107.215C53.401 138.529 76.0528 163.915 111.487 163.915C146.92 163.915 169.572 138.529 169.572 107.215C169.572 93.5493 165.626 80.5139 158.075 70.1595C158.19 68.8418 158.262 67.5126 158.262 66.1664C158.262 40.0614 138.229 16.708 102.074 16.708C73.0347 16.708 54.3983 31.7743 48.1874 51.231C48.1874 51.231 48.1241 56.6251 47.1241 58.8751C47.1241 58.8751 50.2491 55.7501 54.2491 57.2501C58.2491 58.7501 58.1241 62.8751 57.3741 64.8751C56.6241 66.8751 53.1241 68.2501 53.1241 68.2501C53.1241 68.2501 59.3741 67.8751 60.7491 70.1251C62.1241 72.3751 62.6241 75.1251 61.1241 76.8751C59.6241 78.6251 54.7491 79.5 54.7491 79.5C54.7491 79.5 58.6241 81.625 59.3741 84.125C60.1241 86.625 58.4991 90.125 56.7491 91C55.9335 91.4797 55.0169 91.7619 54.0727 91.8239V91.8239ZM141.971 151.614C139.152 152.973 136.718 148.429 136.718 148.429C136.718 148.429 137.224 153.444 134.771 154.027C131.088 154.903 130.449 151.032 130.449 151.032C130.449 151.032 126.322 155.021 125.456 148.784C125.527 135.482 134.022 133.134 134.022 133.134C134.022 133.134 138.299 131.878 141.236 133.386C144.174 134.893 142.056 137.626 142.056 137.626C142.496 139.598 142.262 141.66 141.391 143.482C141.391 143.482 144.246 150.517 141.971 151.614Z"/></g><g id="Layer 45"><path id="Vector_2" d="M123.39 80.4873C128.762 80.5229 130.498 64.6797 123.142 64.6797C115.867 64.6797 117.445 80.4482 123.39 80.4873Z"/><path id="Vector_3" d="M80.6917 80.4769C85.7688 80.7845 86.7649 64.4051 79.8059 64.6917C72.9251 64.9754 74.4109 80.0965 80.6917 80.4769Z"/><path id="Vector_4" d="M93.0394 84.1863C94.1136 85.5875 95.5044 86.7142 97.098 87.4743C98.5022 88.1252 100.033 88.4591 101.58 88.4523C103.549 88.4414 105.485 87.9557 107.226 87.0365C108.758 86.2863 110.043 85.1135 110.931 83.6564C111.096 83.3542 111.134 82.999 111.037 82.6686C110.941 82.3383 110.717 82.0598 110.415 81.8942C110.113 81.7286 109.758 81.6895 109.428 81.7854C109.097 81.8813 108.818 82.1044 108.652 82.4058C108.005 83.4125 107.091 84.2196 106.013 84.7369C104.646 85.4583 103.126 85.8408 101.58 85.8522C100.413 85.8593 99.258 85.6088 98.1984 85.1185C96.9737 84.5312 95.9062 83.6611 95.0839 82.58C94.9785 82.4458 94.8476 82.3336 94.6988 82.25C94.55 82.1663 94.3861 82.1128 94.2166 82.0924C94.0471 82.0721 93.8753 82.0853 93.7109 82.1314C93.5465 82.1775 93.3928 82.2555 93.2586 82.361C93.1243 82.4664 93.0122 82.5973 92.9285 82.7461C92.8448 82.895 92.7913 83.0588 92.771 83.2283C92.7506 83.3978 92.7639 83.5696 92.81 83.734C92.856 83.8984 92.934 84.0521 93.0395 84.1863L93.0394 84.1863Z"/><path id="Vector_5" d="M5.53122 82.9824C6.68192 83.5278 7.94673 83.7889 9.21933 83.744C9.28873 83.7438 9.36679 83.734 9.43704 83.7328C8.90526 84.1229 8.41008 84.5605 7.95761 85.0403C7.47244 85.558 7.07486 86.1512 6.78049 86.7967C6.49444 87.4359 6.34616 88.1281 6.34531 88.8283C6.40238 90.2447 6.8983 91.6084 7.76444 92.7306C8.3349 93.5858 9.07115 94.3179 9.9296 94.8835C10.7391 95.3977 11.6785 95.6703 12.6375 95.6693C13.8671 95.6282 15.0671 95.282 16.1296 94.6619C16.2979 94.5709 16.4716 94.4489 16.6417 94.3472C16.1493 95.4112 15.8763 96.5636 15.8392 97.7355C15.8255 98.8476 16.1783 99.9332 16.8433 100.825C17.5978 101.771 18.5761 102.515 19.69 102.99C20.6697 103.478 21.7443 103.746 22.8384 103.775C23.5344 103.778 24.2234 103.637 24.8619 103.36C26.0016 102.818 26.9631 101.962 27.633 100.892C27.8332 100.596 28.0227 100.274 28.2079 99.9409C28.2519 100.283 28.2872 100.633 28.3547 100.951C28.4991 101.673 28.7418 102.373 29.0759 103.029C29.5495 103.966 30.2975 104.736 31.2202 105.237C31.7448 105.51 32.3084 105.701 32.891 105.802C32.9272 107.773 32.9344 109.287 32.9341 110.063C32.9341 110.252 32.9338 110.396 32.9334 110.496C32.8998 110.564 32.8643 110.636 32.8384 110.692C32.1561 110.561 31.4746 110.451 30.8192 110.375C30.6226 110.352 30.4248 110.341 30.2268 110.34C29.531 110.335 28.8439 110.495 28.2221 110.807C27.3607 111.257 26.6664 111.972 26.2415 112.846C25.8222 113.701 25.6082 114.643 25.6166 115.596C25.6204 116.226 25.7101 116.853 25.8833 117.459C25.5324 117.823 25.2553 118.25 25.0676 118.719C24.8278 119.302 24.7031 119.926 24.7003 120.557C24.6969 121.18 24.8334 121.796 25.0997 122.359C25.3023 122.774 25.5736 123.152 25.9021 123.477C25.7506 123.849 25.6691 124.246 25.6617 124.648C25.6842 125.69 26.0927 126.687 26.808 127.445C27.4308 128.121 28.2543 128.579 29.1571 128.751C29.1721 128.796 29.1897 128.84 29.2098 128.882L29.2098 128.882C29.6158 129.449 30.1215 129.937 30.7023 130.323C31.515 130.875 32.4297 131.26 33.3928 131.455C33.5793 136.818 33.661 142.217 33.8995 147.322C33.9074 147.493 33.9489 147.66 34.0215 147.814C34.0942 147.969 34.1965 148.108 34.3227 148.222C34.4489 148.337 34.5966 148.426 34.7572 148.484C34.9178 148.542 35.0882 148.568 35.2587 148.56C35.4293 148.552 35.5966 148.51 35.7511 148.438C35.9056 148.365 36.0443 148.263 36.1592 148.137C36.2742 148.01 36.3631 147.863 36.421 147.702C36.4789 147.542 36.5046 147.371 36.4967 147.201L36.4966 147.201C36.2639 142.229 36.1824 136.921 36.0004 131.601C36.2427 131.58 36.4894 131.553 36.7438 131.514C37.6384 131.39 38.5008 131.095 39.284 130.646C39.7729 130.941 40.2785 131.209 40.7982 131.447C42.2669 132.123 43.8622 132.481 45.4791 132.496C47.0965 132.496 48.6899 132.104 50.1229 131.354C51.1757 130.799 52.1368 130.085 52.9726 129.238C53.7898 128.403 54.5089 127.477 55.1159 126.478C57.7443 134.643 62.2337 142.086 68.23 148.219C69.1804 149.186 70.182 150.106 71.2081 151.003C71.1527 151.919 71.1167 152.828 71.1162 153.717C71.1374 157.072 71.4401 160.418 72.0213 163.722C70.7234 164.549 69.6688 165.707 68.9654 167.075C68.0272 169.03 67.5532 171.174 67.5804 173.342C67.5715 174.394 67.6751 175.445 67.8895 176.475C67.8971 176.507 67.9195 176.531 67.9294 176.562C67.3945 177.685 67.1208 178.914 67.1286 180.158C67.1292 180.593 67.1588 181.028 67.2171 181.459C67.8545 186.235 69.3019 189.639 71.5113 191.879C72.5732 192.958 73.8627 193.786 75.2856 194.302C76.7057 194.802 78.2027 195.048 79.708 195.029C80.0538 195.029 80.4019 195.018 80.7524 194.997C83.9959 194.897 87.1034 193.671 89.5419 191.53C90.66 190.489 91.5472 189.226 92.146 187.82C92.7448 186.415 93.0419 184.9 93.018 183.373C93.018 183.202 93.0146 183.03 93.0077 182.858C92.6868 178.857 91.6791 174.941 90.0288 171.282C89.2345 169.413 88.2277 167.642 87.0284 166.003C86.0412 164.563 84.6762 163.424 83.0835 162.709C82.0385 162.317 80.947 162.063 79.8364 161.952C79.593 160.48 79.3633 158.719 79.2313 156.833C88.1971 162.16 99.1017 165.218 111.487 165.215C125.938 165.219 138.367 161.047 148.059 153.975C148 155.751 147.973 157.564 147.972 159.43C147.972 160.117 147.985 160.836 147.991 161.536C146.239 162.362 144.809 163.744 143.924 165.467C142.873 167.716 142.35 170.176 142.396 172.658C142.401 172.771 142.421 172.882 142.456 172.99C142.279 173.231 142.09 173.458 141.932 173.722C141.538 174.425 141.272 175.191 141.144 175.987C140.986 176.896 140.91 177.817 140.917 178.74C140.934 180.911 141.229 183.071 141.797 185.167C142.303 187.242 143.206 189.199 144.456 190.93C145.497 192.213 146.864 193.193 148.414 193.766C150.034 194.381 151.755 194.689 153.487 194.674C156.758 194.705 159.95 193.671 162.581 191.728C164.21 190.435 165.415 188.684 166.041 186.701C166.666 184.732 166.967 182.674 166.932 180.608C166.897 177.929 166.577 175.262 165.978 172.65C165.397 169.685 164.176 166.883 162.4 164.438C161.465 163.208 160.286 162.186 158.936 161.436C158.01 160.943 157.011 160.603 155.977 160.43C155.976 160.097 155.972 159.758 155.972 159.43C155.914 154.987 156.153 150.545 156.687 146.134C162.644 139.347 166.874 131.221 169.017 122.449C169.318 122.686 169.62 122.924 169.933 123.158C173.227 125.667 176.935 127.581 180.89 128.813C182.362 129.369 183.877 129.804 185.42 130.115C185.759 130.174 186.107 130.096 186.389 129.899C186.671 129.702 186.863 129.4 186.924 129.062C186.984 128.723 186.907 128.374 186.711 128.091C186.514 127.809 186.214 127.616 185.875 127.555L185.861 127.552C184.769 127.33 183.693 127.037 182.638 126.677L183.186 124.638C184.283 124.975 185.398 125.255 186.524 125.477C186.862 125.535 187.21 125.458 187.491 125.261C187.772 125.064 187.964 124.764 188.025 124.426C188.085 124.088 188.01 123.74 187.815 123.457C187.62 123.175 187.321 122.981 186.984 122.918L186.909 122.904C186.604 122.845 185.396 122.596 183.861 122.126L184.409 120.085C186.243 120.585 187.602 120.834 187.629 120.839C187.797 120.87 187.97 120.867 188.137 120.832C188.304 120.796 188.463 120.727 188.604 120.63C188.744 120.533 188.865 120.409 188.957 120.265C189.05 120.121 189.113 119.96 189.144 119.792C189.174 119.624 189.171 119.451 189.135 119.284C189.098 119.116 189.029 118.958 188.931 118.818C188.834 118.677 188.709 118.558 188.565 118.465C188.421 118.373 188.26 118.31 188.092 118.28L188.015 118.266C187.715 118.209 186.554 117.976 185.083 117.574L185.09 117.548C182.519 116.843 180.094 115.686 177.928 114.132C176.24 112.924 174.64 111.598 173.139 110.165C172.386 109.466 171.625 108.728 170.856 107.978C170.859 107.723 170.873 107.471 170.873 107.215C170.873 107.073 170.865 106.933 170.864 106.791C171.063 106.89 171.256 106.99 171.459 107.088C173.491 108.075 175.614 108.865 177.797 109.447C180.27 110.096 182.817 110.424 185.375 110.422C185.553 110.422 185.737 110.409 185.917 110.406C186.44 110.433 186.943 110.448 187.407 110.448C188.586 110.456 189.765 110.38 190.934 110.222C191.103 110.197 191.267 110.138 191.414 110.05C191.561 109.961 191.689 109.845 191.791 109.707C191.893 109.568 191.966 109.411 192.007 109.245C192.048 109.078 192.055 108.905 192.029 108.735C192.002 108.566 191.943 108.403 191.853 108.256C191.763 108.11 191.645 107.983 191.506 107.882C191.367 107.782 191.21 107.71 191.043 107.67C190.876 107.631 190.702 107.625 190.533 107.653L190.526 107.654C189.492 107.789 188.45 107.854 187.407 107.848C187.31 107.848 187.204 107.844 187.103 107.843L186.974 105.7C188.145 105.671 189.313 105.571 190.472 105.402C190.642 105.375 190.804 105.316 190.95 105.226C191.096 105.137 191.223 105.019 191.324 104.88C191.424 104.741 191.496 104.584 191.536 104.417C191.575 104.251 191.582 104.078 191.554 103.909C191.526 103.74 191.466 103.578 191.375 103.432C191.285 103.286 191.167 103.16 191.027 103.06C190.888 102.961 190.73 102.89 190.563 102.851C190.396 102.812 190.224 102.807 190.055 102.836L190.042 102.838C188.974 102.99 187.897 103.079 186.818 103.104L186.688 100.958C188.601 100.82 189.984 100.586 190.013 100.582C190.182 100.554 190.345 100.494 190.49 100.403C190.636 100.313 190.762 100.194 190.862 100.055C190.962 99.915 191.033 99.7571 191.071 99.5899C191.11 99.4227 191.115 99.2496 191.086 99.0805C191.057 98.9114 190.995 98.7497 190.903 98.6047C190.812 98.4597 190.692 98.3342 190.552 98.2355C190.412 98.1368 190.253 98.0669 190.086 98.0297C189.918 97.9926 189.745 97.9889 189.576 98.019L189.502 98.031C189.157 98.0864 187.636 98.3131 185.763 98.4105C185.635 98.4132 185.5 98.4224 185.375 98.4224C183.348 98.4215 181.335 98.0797 179.421 97.4114C176.418 96.2535 173.544 94.7838 170.847 93.0266C170.319 92.7118 169.766 92.3895 169.217 92.0685C168.824 90.3079 168.367 88.5701 167.835 86.864C172.644 85.406 177.253 83.3552 181.556 80.7589C184.701 78.9113 187.53 76.5732 189.936 73.8329C192.081 71.5001 193.334 68.486 193.476 65.3206C193.474 64.1131 193.256 62.9156 192.833 61.7845C192.3 60.2087 191.271 58.8474 189.901 57.9035C188.57 57.059 187.018 56.6291 185.442 56.6685C182.665 56.7961 179.953 57.5536 177.512 58.8835C172.836 61.3616 168.609 64.6057 165.005 68.4809C164.131 69.3973 163.283 70.3557 162.461 71.34C161.817 67.7802 160.756 64.3084 159.301 60.9964C158.616 54.0406 156.447 47.3127 152.941 41.2666L152.935 41.2404C152.919 41.1804 152.899 41.1215 152.875 41.0642C152.838 40.9769 152.796 40.8915 152.751 40.8083C152.411 40.1991 152.042 39.6073 151.643 39.0352C151.245 38.4534 150.739 37.7569 150.128 36.9795C148.479 34.7333 146.638 32.6349 144.625 30.708C140.551 26.848 135.873 23.6803 130.776 21.3302C130.776 21.3196 130.781 21.3106 130.781 21.3H130.781L130.779 21.1824C130.784 20.1262 130.983 19.08 131.368 18.0962C131.567 17.6308 131.842 17.2019 132.182 16.8272C133.12 17.4541 134.252 17.722 135.371 17.5816C136.49 17.4413 137.521 16.9022 138.275 16.0632C139.029 15.2242 139.455 14.1415 139.475 13.0138C139.495 11.8861 139.108 10.7889 138.385 9.92341C137.662 9.05796 136.65 8.4823 135.537 8.302C134.424 8.1217 133.283 8.34884 132.323 8.94178C131.364 9.53472 130.65 10.4537 130.313 11.5302C129.976 12.6066 130.039 13.7684 130.49 14.8025C129.527 15.8017 128.852 17.0423 128.535 18.3934C128.384 18.9914 128.28 19.6006 128.226 20.2151C119.905 16.926 111.022 15.2931 102.075 15.4082C92.9379 15.2837 83.8683 16.9894 75.4006 20.4246C74.9249 19.1621 74.2559 17.9811 73.4176 16.924C72.5066 15.7639 71.3717 14.7987 70.0803 14.0859C69.0399 13.5309 67.9142 13.1533 66.7496 12.9687C66.3783 11.9123 65.6393 11.0248 64.6676 10.4685C63.6959 9.9121 62.5564 9.72405 61.4574 9.9387C60.3585 10.1533 59.3735 10.7563 58.6825 11.6374C57.9915 12.5186 57.6408 13.6189 57.6943 14.7374C57.7479 15.8558 58.2022 16.9176 58.9742 17.7287C59.7462 18.5397 60.7843 19.0458 61.8987 19.1545C63.0132 19.2632 64.1295 18.9671 65.0436 18.3204C65.9577 17.6738 66.6086 16.7197 66.8771 15.6327C67.5601 15.7901 68.219 16.0378 68.8365 16.3691C70.2397 17.1656 71.4009 18.3273 72.1968 19.7307C72.4711 20.1964 72.7093 20.6824 72.9094 21.1844C72.9584 21.308 72.9938 21.406 73.0235 21.4909C68.0608 23.8234 63.5034 26.9351 59.5242 30.708C59.3691 30.8562 59.2255 31.0125 59.0726 31.1624C55.8741 34.1039 53.1641 37.5358 51.0446 41.3293C50.9822 41.4625 50.9432 41.6055 50.9292 41.7519C49.5918 44.1062 48.4558 46.5694 47.5332 49.1151C47.1148 48.8062 46.6712 48.5329 46.207 48.2983C45.1853 47.743 44.0473 47.436 42.885 47.4021C42.149 47.399 41.4214 47.5592 40.7548 47.8712C39.5819 48.474 38.6068 49.401 37.9455 50.5419C37.8031 50.768 37.6775 51.0306 37.5439 51.2754C37.5003 50.9123 37.4606 50.5458 37.3893 50.2066C37.1615 48.8217 36.4862 47.5496 35.4668 46.585C34.9445 46.1302 34.3347 45.7872 33.6749 45.577C32.97 45.3571 32.2349 45.2499 31.4966 45.2593C31.2033 45.2593 30.9021 45.2732 30.5929 45.301C29.7301 45.3632 28.8826 45.5623 28.0822 45.8907C26.9657 46.3517 26.0487 47.1934 25.4939 48.2665C24.9485 49.4172 24.6874 50.682 24.7323 51.9546C24.7325 52.0239 24.7423 52.1019 24.7435 52.1721C24.3535 51.6404 23.9159 51.1453 23.4362 50.6929C22.9185 50.2078 22.3253 49.8102 21.6797 49.5158C21.0406 49.2298 20.3484 49.0815 19.6482 49.0807C18.2318 49.1377 16.8681 49.6335 15.7459 50.4997C14.8907 51.0701 14.1585 51.8064 13.5929 52.6648C13.0786 53.4743 12.8059 54.4138 12.8069 55.3728C12.848 56.6024 13.1942 57.8025 13.8144 58.865C13.9054 59.0332 14.0274 59.2071 14.1291 59.3771C13.0651 58.8847 11.9128 58.6118 10.741 58.5747C9.62893 58.5609 8.54325 58.9138 7.65179 59.5788C6.70493 60.3334 5.96087 61.3118 5.48679 62.4258C4.99861 63.4054 4.73054 64.4799 4.70139 65.574C4.69821 66.2699 4.83966 66.959 5.11679 67.5974C5.65856 68.7372 6.51451 69.6986 7.58401 70.3686C7.87582 70.5658 8.19235 70.7527 8.52035 70.9352C8.16435 70.9786 7.80416 71.017 7.47122 71.087C6.08637 71.3147 4.8143 71.99 3.8497 73.0094C3.39494 73.5316 3.0519 74.1414 2.8417 74.8013C2.6218 75.5061 2.51458 76.2413 2.52401 76.9797C2.52401 77.2726 2.53793 77.5741 2.56576 77.884C2.62803 78.7467 2.82707 79.594 3.15543 80.3942C3.61645 81.5107 4.45819 82.4277 5.53122 82.9824ZM71.2909 168.238C71.6137 167.606 72.0496 167.038 72.5769 166.563C72.6364 166.833 72.6907 167.072 72.7397 167.28C72.624 167.902 72.4672 168.797 72.3081 169.867C72.1945 170.638 72.0846 171.507 71.9853 172.409C71.9701 172.418 71.9539 172.425 71.9387 172.434C71.3176 172.794 70.731 173.211 70.1865 173.679C70.1838 173.568 70.1803 173.458 70.1804 173.342C70.1542 171.578 70.5341 169.832 71.2909 168.238H71.2909ZM82.1613 165.14C83.2933 165.689 84.2584 166.529 84.9572 167.575C86.2083 169.311 87.2347 171.199 88.012 173.193C88.2708 173.827 88.5153 174.473 88.7379 175.122C89.6491 177.647 90.2116 180.284 90.4098 182.961C90.4152 183.099 90.418 183.237 90.418 183.373C90.4431 184.543 90.2204 185.704 89.7644 186.782C89.3085 187.86 88.6296 188.829 87.7724 189.625C85.775 191.355 83.2384 192.336 80.597 192.402C80.2948 192.42 79.9985 192.429 79.708 192.429C78.5071 192.448 77.3123 192.256 76.1782 191.86C74.514 191.246 73.1065 190.087 72.1843 188.572C70.8552 186.289 70.0396 183.745 69.7942 181.115C69.7511 180.798 69.7292 180.478 69.7286 180.158C69.7129 179.022 70.0466 177.908 70.6845 176.967C71.7661 175.525 73.259 174.443 74.9667 173.865C76.7857 173.184 78.7118 172.832 80.6544 172.828C81.88 172.78 83.102 172.991 84.2401 173.448C84.5497 173.6 84.9068 173.623 85.2331 173.512C85.5593 173.4 85.8279 173.164 85.9798 172.854C86.1276 172.544 86.1481 172.188 86.0371 171.863C85.926 171.538 85.6921 171.269 85.3854 171.114L85.3853 171.114C84.8041 170.847 84.1934 170.649 83.5658 170.524C83.3397 169.516 83.0614 168.521 82.732 167.542C82.4327 166.652 82.0587 165.789 81.6141 164.962C81.7972 165.02 81.9818 165.072 82.1613 165.14H82.1613ZM23.1796 64.7327C25.5252 64.7344 28.2818 65.7664 31.104 68.4723C31.2344 68.5976 31.3895 68.6943 31.5594 68.7562C31.7293 68.8181 31.9103 68.8439 32.0908 68.832C32.2712 68.82 32.4472 68.7705 32.6074 68.6866C32.7677 68.6028 32.9086 68.4864 33.0213 68.345C35.6308 65.08 38.7637 63.7512 41.5508 63.7467C43.5415 63.718 45.466 64.4614 46.9204 65.8209C47.6649 66.5552 48.2501 67.435 48.6394 68.4056C49.0288 69.3761 49.2138 70.4165 49.1832 71.4617L49.1831 71.471C49.1286 74.1287 48.2906 76.7111 46.7742 78.8943C44.4979 82.1105 41.6173 84.8527 38.293 86.968C36.8614 87.924 35.5695 88.6633 34.6413 89.1603C34.2267 89.3823 33.8989 89.5481 33.6493 89.6715C30.5693 88.4418 27.6028 86.945 24.7838 85.1981C22.5596 83.8467 20.5195 82.2132 18.7145 80.3383C17.1204 78.7671 16.0404 76.7492 15.6173 74.5513C15.5486 74.063 15.5139 73.5705 15.5133 73.0774C15.4714 70.8713 16.269 68.7316 17.7448 67.0912C18.4363 66.3411 19.277 65.7438 20.213 65.3376C21.1489 64.9315 22.1594 64.7254 23.1796 64.7327ZM141.237 136.624C141.031 136.791 140.882 137.018 140.809 137.273C140.736 137.528 140.744 137.799 140.83 138.05L140.829 138.051L140.834 138.068C140.943 138.465 140.997 138.876 140.992 139.288C140.987 140.531 140.541 141.732 139.732 142.676C139.59 142.85 139.495 143.058 139.457 143.28C139.418 143.501 139.438 143.729 139.514 143.941C139.819 144.787 140.188 145.805 140.475 146.807C140.75 147.675 140.912 148.575 140.955 149.485C140.971 149.759 140.926 150.032 140.824 150.286L140.759 150.375L140.646 150.429C140.548 150.46 140.446 150.476 140.344 150.477C140.178 150.474 140.015 150.43 139.87 150.35C139.432 150.082 139.061 149.718 138.785 149.286C138.224 148.439 137.77 147.526 137.435 146.567C137.277 146.137 137.158 145.76 137.079 145.495C137.04 145.363 137.01 145.258 136.991 145.188L136.971 145.111L136.966 145.092C136.885 144.766 136.681 144.485 136.397 144.307C136.113 144.128 135.771 144.066 135.443 144.133C135.114 144.201 134.825 144.393 134.634 144.669C134.444 144.945 134.368 145.284 134.421 145.615C134.421 145.615 134.462 145.864 134.524 146.279C134.616 146.9 134.756 147.884 134.871 148.897C134.985 149.811 135.053 150.73 135.074 151.651L135.074 151.73V151.725C135.054 152.027 134.919 152.311 134.698 152.518C134.48 152.748 134.18 152.885 133.863 152.897C133.645 152.893 133.433 152.823 133.257 152.695C132.907 152.437 132.622 152.101 132.425 151.713C131.777 150.366 131.475 148.878 131.548 147.384C131.552 146.507 131.613 145.632 131.73 144.763C131.753 144.593 131.743 144.421 131.699 144.255C131.655 144.089 131.579 143.934 131.475 143.798C131.371 143.661 131.241 143.547 131.093 143.461C130.944 143.376 130.781 143.32 130.611 143.298C130.441 143.276 130.268 143.287 130.103 143.332C129.937 143.377 129.782 143.454 129.647 143.558C129.511 143.663 129.398 143.794 129.313 143.943C129.228 144.092 129.173 144.256 129.152 144.426C129.02 145.406 128.952 146.394 128.948 147.384C128.951 148.156 129.011 148.926 129.127 149.689C129.128 149.724 129.113 149.754 129.117 149.789L129.117 149.789C129.125 149.88 129.129 149.969 129.129 150.054C129.148 150.512 128.999 150.962 128.711 151.32C128.626 151.427 128.519 151.516 128.397 151.578C128.275 151.641 128.141 151.677 128.004 151.683C127.811 151.678 127.625 151.61 127.474 151.489C127.166 151.239 126.925 150.916 126.773 150.55C126.666 150.27 126.597 149.977 126.567 149.679C126.498 149.135 126.466 148.586 126.47 148.038C126.477 146.731 126.601 145.429 126.842 144.145C127.058 142.888 127.438 141.665 127.974 140.508C128.612 139.193 129.425 137.971 130.391 136.875C130.785 136.431 131.231 136.037 131.72 135.702C132.039 135.474 132.404 135.32 132.79 135.252C133.062 135.216 133.316 135.093 133.514 134.903C133.711 134.713 133.843 134.465 133.89 134.194L133.902 134.198C133.905 134.197 133.914 134.137 134.056 134.025C134.395 133.803 134.787 133.673 135.192 133.65C135.488 133.614 135.787 133.597 136.085 133.598C137.256 133.591 138.417 133.815 139.501 134.257C139.973 134.453 140.404 134.734 140.775 135.086C141.087 135.387 141.31 135.768 141.42 136.188L141.431 136.267C141.424 136.354 141.392 136.437 141.337 136.504L141.25 136.606L141.235 136.62L141.237 136.624ZM39.0725 89.5648C40.4021 88.7119 41.6845 87.7875 42.9138 86.7955C43.0419 86.6916 43.1688 86.5728 43.2969 86.4661C44.7805 87.8174 46.0735 89.0731 47.1247 90.2285C48.0657 91.221 48.8951 92.3135 49.5982 93.4866C50.0515 94.2 50.3157 95.017 50.3661 95.8607C50.3688 96.3388 50.2279 96.8067 49.9616 97.2038C49.5551 97.7817 49.0328 98.2687 48.428 98.6341C47.7503 99.1412 46.9398 99.4402 46.0952 99.4947C45.3676 99.4692 44.6763 99.1712 44.1582 98.6597C42.622 97.0742 41.4126 95.202 40.5988 93.1497C40.1035 92.0852 39.5963 90.8861 39.0725 89.5648ZM105.017 126.993C125.896 126.993 142.34 119.705 152.355 108.419C153.995 109.225 155.529 110.231 156.923 111.412C158.396 112.621 159.911 114.068 161.532 115.648L161.568 115.683C157.692 121.936 152.495 127.264 146.34 131.294C146.435 131.147 146.536 131.014 146.628 130.863C148.111 128.518 148.979 125.837 149.151 123.068C149.2 122.011 148.827 120.977 148.114 120.194C147.402 119.411 146.408 118.942 145.35 118.891C144.293 118.839 143.258 119.209 142.473 119.919C141.687 120.629 141.216 121.622 141.161 122.679L141.161 122.679C141.094 123.746 140.809 124.788 140.323 125.741C139.45 127.391 138.325 128.895 136.989 130.199C136.721 130.475 136.451 130.739 136.181 131.001C136.15 131.001 136.116 130.998 136.085 130.998C135.677 130.997 135.269 131.021 134.864 131.07C133.77 131.145 132.743 131.627 131.986 132.42C131.869 132.557 131.765 132.704 131.675 132.859C131.186 133.02 130.721 133.245 130.292 133.529C129.281 134.233 128.393 135.098 127.662 136.09C126.886 137.111 126.21 138.204 125.644 139.355C125.471 139.706 125.316 140.073 125.172 140.449C119.348 141.888 113.393 142.73 107.398 142.964C105.784 143.031 104.214 143.065 102.687 143.065C76.0915 143.065 62.5845 132.926 55.6344 117.862C55.0132 114.347 54.7011 110.785 54.7016 107.215C54.7016 106.927 54.7159 106.642 54.7194 106.355C63.5521 119.332 81.0324 126.993 105.017 126.993V126.993ZM52.5415 89.4049C50.5797 88.4777 48.7295 87.3308 47.0265 85.9862C46.4728 85.573 45.8967 85.1295 45.2981 84.6557C46.6696 83.3472 47.894 81.8928 48.9495 80.3184C48.9769 80.2765 49.0013 80.2322 49.0286 80.19C50.7388 80.5782 52.4223 81.0762 54.0686 81.6808C55.3309 82.1055 56.502 82.7644 57.5203 83.6229C57.8228 83.8976 58.0707 84.2268 58.2512 84.5933C58.4018 84.9146 58.4782 85.2657 58.4746 85.6205C58.4387 86.3752 58.2276 87.1112 57.8579 87.7701C57.549 88.4571 57.0821 89.0614 56.4954 89.5337C56.0538 89.8567 55.5175 90.0237 54.9706 90.0084C54.129 89.97 53.3033 89.7648 52.5415 89.4049ZM50.4611 77.5334C51.3185 75.6287 51.7687 73.566 51.7829 71.4772H51.7831L51.7831 71.471L51.7832 71.4606H50.4832L51.7832 71.4595C51.7834 71.2311 51.7642 71.0107 51.7516 70.7875C53.3413 70.359 54.9749 70.1146 56.6204 70.0591C57.2292 70.0472 57.8367 70.1204 58.4253 70.2765C59.031 70.4213 59.5646 70.7789 59.9289 71.284C60.3641 71.9952 60.5936 72.8131 60.5919 73.6468C60.6005 73.8024 60.6048 73.9519 60.6047 74.0954C60.6259 74.7034 60.5174 75.3091 60.2865 75.872C60.1503 76.1791 59.9504 76.4537 59.7001 76.6778C59.1945 77.0943 58.595 77.3813 57.9535 77.5138C56.9239 77.7445 55.8703 77.8498 54.8154 77.8276C53.3596 77.8126 51.9057 77.7144 50.4611 77.5334ZM51.082 67.5577C50.5756 66.191 49.7681 64.9558 48.7193 63.9437C48.046 63.302 47.2849 62.7593 46.4589 62.3318C46.8112 61.9873 47.1573 61.6572 47.4932 61.3516C48.4856 60.4106 49.5781 59.5812 50.7512 58.8781C51.4645 58.4248 52.2815 58.1605 53.1252 58.1102C53.6033 58.1075 54.0712 58.2484 54.4683 58.5146C55.0463 58.9213 55.5334 59.4436 55.8988 60.0485C56.4058 60.7261 56.7048 61.5366 56.7593 62.3811C56.7338 63.1086 56.4358 63.8 55.9244 64.3181C54.5297 65.6945 52.8865 66.7938 51.082 67.5577V67.5577ZM14.8969 92.3727C14.2122 92.7863 13.4364 93.0255 12.6375 93.0693C12.1659 93.0717 11.7039 92.936 11.3084 92.6791C10.7455 92.2968 10.2642 91.8065 9.89239 91.2366C9.33676 90.5502 9.0061 89.7093 8.94539 88.8283C8.94586 88.4903 9.01844 88.1563 9.15828 87.8486C9.5486 87.0875 10.1173 86.4323 10.8158 85.9387C12.6422 84.6406 14.6281 83.5827 16.7244 82.7913C16.8966 82.7199 17.0912 82.6473 17.2684 82.5757C18.6706 83.984 20.2039 85.2555 21.8475 86.3727C20.4762 87.8208 19.2248 89.0561 18.0934 90.0444C17.116 90.9347 16.0441 91.7155 14.8969 92.3727ZM26.6936 97.0969C26.2609 98.2871 25.6022 99.3824 24.7538 100.323C24.4866 100.596 24.1712 100.817 23.8234 100.976C23.5127 101.111 23.1771 101.178 22.8384 101.175C22.1231 101.144 21.4229 100.959 20.7859 100.632C20.0635 100.337 19.4248 99.869 18.9264 99.2688C18.5952 98.8276 18.4234 98.2871 18.4392 97.7356C18.483 96.8507 18.709 95.9844 19.103 95.1909C20.0849 93.2048 21.2899 91.337 22.6947 89.6237C23.1402 89.0495 23.6207 88.4524 24.1249 87.839C25.2304 88.5068 26.3204 89.1138 27.3388 89.6415C27.8209 89.8905 28.2846 90.1224 28.7301 90.3373C28.2248 92.6391 27.5439 94.8989 26.6936 97.0969ZM32.6046 103.022C32.2975 102.886 32.0227 102.686 31.7986 102.436C31.382 101.93 31.095 101.331 30.9624 100.689C30.7318 99.6597 30.6264 98.6061 30.6486 97.5513C30.6836 95.5101 30.8568 93.4737 31.167 91.4559C32.4391 92.0063 33.2407 92.3002 33.2601 92.3074C33.5798 92.4251 33.933 92.4119 34.2431 92.2708C34.2711 92.257 35.242 91.8156 36.7081 90.9899C36.8956 91.5963 37.0774 92.1944 37.237 92.7609C37.9144 94.8988 38.3111 97.1156 38.4172 99.3557C38.4291 99.9646 38.3559 100.572 38.1998 101.161C38.055 101.767 37.6974 102.3 37.1922 102.664C36.4811 103.1 35.6633 103.329 34.8296 103.328C34.6745 103.336 34.5252 103.341 34.3816 103.34C33.7734 103.362 33.1677 103.253 32.6046 103.022L32.6046 103.022ZM35.4129 111.369C35.4973 111.215 35.5911 111.067 35.6939 110.925C35.834 110.724 36.0046 110.545 36.1994 110.396C36.2872 110.321 36.3967 110.276 36.5118 110.267C36.6141 110.273 36.7133 110.305 36.7999 110.359C36.9845 110.454 37.1484 110.584 37.2823 110.743C37.4631 110.98 37.5806 111.26 37.6239 111.556C37.6803 111.898 37.7091 112.244 37.7098 112.59C37.5689 112.474 37.4224 112.365 37.2724 112.264C36.691 111.892 36.0666 111.591 35.4129 111.369L35.4129 111.369ZM28.8029 113.632C28.9613 113.42 29.1653 113.247 29.3997 113.125C29.6566 112.998 29.9403 112.935 30.2267 112.94C30.3246 112.941 30.4224 112.946 30.5195 112.958C32.0189 113.1 33.4938 113.434 34.9081 113.951C35.3717 114.122 35.8002 114.376 36.1725 114.7C36.2606 114.782 36.3339 114.878 36.3888 114.984L36.4354 115.188L36.4345 115.221C36.4278 115.475 36.3502 115.723 36.2104 115.936C36.0148 116.203 35.7509 116.412 35.4464 116.542C35.358 116.582 35.2673 116.618 35.1747 116.648C34.2646 116.121 33.2666 115.764 32.2291 115.593C31.9 115.546 31.568 115.523 31.2356 115.523C30.2218 115.534 29.2175 115.721 28.2676 116.075C28.2417 115.916 28.2247 115.756 28.2166 115.596C28.1954 114.895 28.4011 114.206 28.8029 113.632V113.632ZM27.4454 121.237C27.3465 121.024 27.2969 120.792 27.3003 120.557C27.3035 120.264 27.3623 119.975 27.4736 119.705C27.5171 119.597 27.5704 119.493 27.6328 119.395L27.6976 119.305L27.7237 119.275C27.8671 119.154 28.0225 119.047 28.1873 118.956C29.1199 118.433 30.1666 118.147 31.2355 118.123C31.4445 118.123 31.6533 118.137 31.8603 118.166C32.8376 118.351 33.7618 118.75 34.5668 119.334C34.9178 119.574 35.2366 119.859 35.5153 120.181C35.5952 120.274 35.6647 120.376 35.7226 120.484L35.7515 120.552L35.7543 120.611C35.7327 120.875 35.641 121.129 35.4885 121.345C35.1016 121.21 34.705 121.105 34.3021 121.03C33.5597 120.902 32.8074 120.839 32.0539 120.841C31.1948 120.838 30.3375 120.92 29.4944 121.084C28.8916 121.201 28.304 121.385 27.7432 121.635C27.6236 121.519 27.5231 121.385 27.4454 121.237V121.237ZM28.2618 124.648C28.2584 124.549 28.2797 124.45 28.3238 124.361C28.3737 124.272 28.4475 124.199 28.5368 124.15C28.9957 123.897 29.4938 123.722 30.0104 123.633C30.6837 123.503 31.3682 123.438 32.054 123.442C32.6533 123.439 33.2517 123.488 33.8424 123.589C34.2402 123.649 34.6272 123.765 34.9914 123.936C35.1513 124.025 35.28 124.161 35.3601 124.325C35.4605 124.526 35.5121 124.747 35.5108 124.971C35.5151 125.164 35.472 125.355 35.3852 125.527C35.3125 125.65 35.2657 125.678 35.2137 125.699C34.5172 125.921 33.7978 126.063 33.0694 126.123C32.2295 126.211 31.3855 126.255 30.541 126.256C30.2816 126.256 30.0471 126.251 29.8518 126.243C29.4421 126.205 29.0586 126.025 28.7681 125.733C28.4776 125.442 28.2984 125.058 28.2618 124.648H28.2618ZM38.8221 127.649C38.5194 128.022 38.1436 128.329 37.7178 128.552C37.292 128.775 36.8253 128.909 36.3461 128.944C36.1906 128.968 36.0451 128.982 35.8989 128.997C35.8878 128.733 35.8799 128.468 35.868 128.204C35.951 128.177 36.046 128.164 36.1265 128.134C36.7813 127.883 37.3247 127.406 37.6582 126.789C37.9603 126.231 38.116 125.606 38.1108 124.971C38.1124 124.33 37.9605 123.698 37.6677 123.127C37.6351 123.064 37.592 123.004 37.5552 122.942C37.5678 122.924 37.5794 122.911 37.5921 122.892C38.0692 122.226 38.3348 121.431 38.3543 120.611C38.3543 120.508 38.3496 120.402 38.3393 120.294C38.2486 119.637 37.9642 119.022 37.5222 118.528C37.4834 118.481 37.4366 118.438 37.396 118.392C37.7199 118.152 38.0072 117.865 38.2489 117.542C38.3875 117.897 38.5605 118.238 38.7657 118.559C39.3421 119.482 39.6379 120.552 39.617 121.64C39.6155 122.197 39.5532 122.752 39.4314 123.296C39.3852 123.502 39.3396 123.663 39.3076 123.768L39.2713 123.88L39.2639 123.902L39.2647 123.902C39.1547 124.197 39.1557 124.522 39.2677 124.817C39.3631 125.114 39.4085 125.425 39.4023 125.738C39.4148 126.42 39.2117 127.089 38.8221 127.649V127.649ZM50.3156 117.145C49.8864 119.34 48.976 121.413 47.6497 123.215C47.3151 123.638 46.9009 123.993 46.4303 124.257C46.1383 124.416 45.8112 124.498 45.479 124.496C44.9876 124.48 44.5053 124.36 44.0636 124.144C43.3703 123.814 42.7225 123.395 42.1363 122.899C42.1889 122.481 42.2159 122.061 42.2171 121.64C42.2381 120.052 41.7979 118.492 40.9498 117.149C40.685 116.727 40.508 116.255 40.4294 115.763C40.3401 115.197 40.3012 114.625 40.3131 114.052C40.313 113.704 40.3196 113.344 40.3197 112.976C40.3538 112.103 40.2464 111.231 40.0016 110.392C39.8466 109.92 39.6069 109.481 39.2943 109.096C38.9469 108.677 38.5209 108.33 38.0403 108.074C37.573 107.813 37.0474 107.673 36.5118 107.667C36.174 107.669 35.8389 107.729 35.5215 107.844C35.5153 107.258 35.506 106.59 35.4928 105.859C36.2124 105.798 36.92 105.638 37.5953 105.382C38.7392 104.936 39.6829 104.091 40.2519 103.003C40.7979 101.867 41.0606 100.616 41.0173 99.3558C41.0171 99.2565 41.0024 99.1463 41 99.0454C41.4314 99.6213 41.9204 100.152 42.4595 100.628C43.4505 101.546 44.7444 102.068 46.0952 102.095C47.4462 102.044 48.7524 101.597 49.8517 100.81C50.3189 100.508 50.758 100.165 51.1637 99.7842C51.5073 100.617 51.8867 101.43 52.2885 102.231C52.173 103.882 52.1016 105.543 52.1016 107.215C52.1055 109.641 52.2466 112.066 52.5243 114.476C51.9786 114.725 51.4965 115.095 51.114 115.557C50.7315 116.019 50.4585 116.562 50.3156 117.145ZM145.588 168.292C145.932 166.919 146.687 165.683 147.751 164.751C147.352 166.442 147.028 168.064 146.778 169.616C146.677 169.659 146.571 169.688 146.47 169.733C146.018 169.937 145.58 170.172 145.16 170.436C145.246 169.711 145.389 168.994 145.588 168.292ZM157.698 163.723C159.273 164.647 160.556 165.998 161.397 167.62C162.345 169.374 163.033 171.258 163.439 173.21C163.603 173.951 163.75 174.757 163.884 175.584C164.167 177.244 164.316 178.924 164.332 180.608C164.366 182.39 164.112 184.164 163.58 185.864C163.118 187.363 162.218 188.688 160.994 189.668C158.817 191.259 156.184 192.103 153.487 192.074C152.079 192.088 150.681 191.841 149.363 191.345C148.248 190.941 147.261 190.246 146.506 189.33C145.472 187.871 144.725 186.228 144.307 184.489C143.8 182.614 143.534 180.682 143.517 178.74C143.51 177.976 143.571 177.214 143.701 176.461C143.774 175.971 143.93 175.497 144.161 175.06C144.955 173.747 146.136 172.714 147.542 172.102C148.989 171.478 150.551 171.167 152.127 171.188C153.52 171.187 154.905 171.399 156.234 171.816C157.295 172.123 158.284 172.64 159.142 173.337C159.27 173.45 159.419 173.536 159.58 173.592C159.742 173.647 159.912 173.671 160.083 173.66C160.253 173.65 160.42 173.606 160.573 173.531C160.727 173.456 160.864 173.351 160.977 173.223C161.002 173.195 161.009 173.16 161.031 173.131C161.227 172.872 161.319 172.55 161.288 172.227C161.257 171.904 161.105 171.605 160.864 171.388L160.864 171.388C160.166 170.797 159.387 170.309 158.551 169.94C158.192 168.093 157.677 166.28 157.011 164.52C156.797 163.974 156.465 163.482 156.038 163.08C156.616 163.223 157.174 163.439 157.697 163.723H157.698ZM152.891 146.396C143.046 156.398 128.894 162.609 111.487 162.615C94.8327 162.61 81.1686 156.914 71.3953 147.663C80.0602 153.664 91.6538 156.299 105.403 156.299C106.763 156.299 108.144 156.273 109.546 156.222C115.301 156.031 121.025 155.28 126.635 153.979C127.065 154.175 127.532 154.278 128.004 154.283C128.885 154.27 129.729 153.925 130.366 153.316C130.736 153.923 131.227 154.447 131.81 154.855C132.415 155.269 133.13 155.493 133.863 155.497C134.827 155.479 135.75 155.102 136.451 154.439C137.153 153.777 137.581 152.876 137.654 151.914C137.958 152.206 138.3 152.456 138.671 152.656C139.085 152.878 139.538 153.015 140.005 153.06C140.472 153.105 140.944 153.058 141.393 152.92C141.774 152.808 142.129 152.618 142.434 152.363C142.858 151.998 143.172 151.521 143.339 150.987C143.49 150.501 143.563 149.994 143.556 149.485C143.548 148.914 143.49 148.344 143.381 147.783C153.637 142.323 161.248 134.515 165.546 125.168C163.065 133.145 158.728 140.42 152.891 146.396ZM170.767 66.595C173.177 64.4893 175.832 62.6812 178.673 61.2095C180.756 60.0636 183.069 59.4003 185.442 59.2686C186.507 59.2296 187.56 59.5091 188.465 60.0713C189.376 60.7103 190.053 61.6283 190.395 62.6865C190.711 63.5288 190.874 64.4209 190.876 65.3207C190.73 67.8769 189.691 70.3007 187.939 72.1683C185.103 75.5823 180.394 78.7743 175.253 81.2125C172.589 82.4771 169.834 83.5419 167.011 84.398C165.924 81.3596 164.597 78.4127 163.041 75.5851C163.02 75.3454 163.002 75.1053 162.977 74.8663C165.278 71.8449 167.889 69.0728 170.767 66.595ZM163.193 81.8167C164.385 84.5896 165.369 87.4476 166.137 90.3669C166.08 90.3381 166.03 90.3073 165.974 90.2786C164.794 89.679 163.58 89.1479 162.339 88.6879C162.808 86.4242 163.094 84.1264 163.193 81.8167ZM56.0376 38.6284C57.4762 36.8185 59.1755 35.2323 61.08 33.9214C63.6039 32.1393 66.6061 31.1589 69.6953 31.1079C71.8258 31.1134 73.9254 31.6187 75.8251 32.5833C77.8263 33.6418 79.6061 35.0739 81.0683 36.8023C83.3734 39.3563 85.3835 42.4357 88.2411 44.961C89.7346 46.3014 91.4522 47.3686 93.3155 48.1138C95.5618 48.968 97.9499 49.3875 100.353 49.3499C103.675 49.3636 106.935 48.4481 109.764 46.7068C113.715 44.3253 116.72 40.8541 119.9 37.9047C121.419 36.4371 123.088 35.1335 124.879 34.0157C126.689 32.9082 128.699 32.1704 130.796 31.8449C131.738 31.7008 132.689 31.628 133.642 31.6272C136.912 31.6221 140.12 32.5268 142.906 34.2402C145.45 35.8353 147.643 37.9326 149.349 40.4039C154.365 48.0559 157.014 57.0172 156.963 66.1668C156.991 72.3233 155.682 78.4126 153.127 84.0141C150.573 89.6157 146.833 94.5962 142.166 98.6118C132.671 106.931 118.948 112.132 102.075 112.134C85.2015 112.132 71.4786 106.931 61.9833 98.6118C59.8597 96.7482 57.9165 94.6886 56.1793 92.4603C56.8443 92.3151 57.4724 92.0348 58.0245 91.6366C58.9468 90.9228 59.6853 89.9992 60.1786 88.9424C60.7338 87.9208 61.0407 86.7828 61.0746 85.6206C61.0777 84.8846 60.9175 84.157 60.6055 83.4904C60.0027 82.3175 59.0757 81.3424 57.9348 80.6812C57.704 80.5357 57.4362 80.4074 57.1859 80.2712C57.5344 80.2267 57.8913 80.1904 58.2154 80.1216C58.9376 79.9772 59.6367 79.7346 60.2931 79.4006C61.23 78.9271 62.0003 78.1792 62.5012 77.2566C62.9941 76.2774 63.2359 75.1911 63.2048 74.0954C63.2048 73.9012 63.1992 73.7034 63.1879 73.502C63.1533 72.6045 62.9703 71.7189 62.6463 70.8811C62.2006 69.7372 61.3556 68.7935 60.2678 68.2245C59.1317 67.6784 57.8802 67.4158 56.6204 67.459C56.521 67.4592 56.4108 67.4739 56.3098 67.4763C56.8858 67.0449 57.4162 66.5559 57.8928 66.0167C58.811 65.0257 59.3329 63.7318 59.3594 62.3811C59.3081 61.0302 58.8613 59.7241 58.0744 58.6248C57.5111 57.7148 56.763 56.9332 55.8787 56.3304C55.0606 55.794 54.1034 55.5088 53.1252 55.5102C51.8333 55.5573 50.5754 55.9374 49.4735 56.6136C49.3503 56.6835 49.2241 56.7781 49.1003 56.8536C49.5757 55.7995 49.8384 54.6619 49.8732 53.506C49.8736 52.82 49.738 52.1407 49.4743 51.5074C50.9582 46.8906 53.1742 42.5422 56.0376 38.6284ZM38.9451 54.4082C39.3699 53.1458 40.0288 51.9748 40.8874 50.9564C41.162 50.654 41.4912 50.406 41.8578 50.2256C42.1791 50.075 42.5301 49.9986 42.885 50.0021C43.6397 50.0379 44.3757 50.2491 45.0346 50.6189C45.7217 50.9278 46.3261 51.3946 46.7986 51.9814C47.1215 52.4229 47.2884 52.9593 47.2732 53.506C47.2347 54.3477 47.0296 55.1733 46.6697 55.9351C45.7694 57.8422 44.6584 59.6424 43.3575 61.3022C42.7606 61.2006 42.1563 61.1486 41.5508 61.1468C39.9305 61.1608 38.3298 61.5035 36.8457 62.1539C37.3452 59.5218 38.0471 56.9322 38.9451 54.4082ZM27.552 50.1041C27.695 49.4984 28.0477 48.9628 28.5477 48.5922C29.2301 48.1598 30.0157 47.9176 30.8231 47.8907C31.0624 47.8694 31.2868 47.8589 31.4966 47.8593C32.0836 47.8386 32.6679 47.9491 33.2069 48.1827C33.5276 48.344 33.8129 48.5678 34.0458 48.8409C34.2788 49.114 34.4548 49.4309 34.5635 49.7731C34.9514 50.9429 35.1256 52.1729 35.078 53.4044C34.9365 56.9735 34.482 60.5233 33.7197 64.013C33.0681 64.5258 32.4575 65.0886 31.8935 65.6964C31.3987 65.2772 30.8818 64.8846 30.3453 64.5204C30.0673 63.7158 29.7913 62.9282 29.5184 62.1764C29.0948 60.8225 28.7159 59.5473 28.41 58.389C27.7889 56.2963 27.427 54.1354 27.3324 51.9545C27.32 51.3306 27.3939 50.7079 27.552 50.1041ZM15.7971 54.0437C16.1795 53.4808 16.6699 52.9994 17.2398 52.6276C17.9263 52.072 18.7672 51.7414 19.6482 51.6806C19.9862 51.6812 20.3202 51.7538 20.6279 51.8936C21.389 52.2839 22.0442 52.8527 22.5378 53.5512C23.8359 55.3776 24.8937 57.3634 25.6852 59.4598C26.1091 60.4826 26.5391 61.6166 26.9747 62.8071C25.7566 62.3703 24.4736 62.1423 23.1796 62.1327C22.1316 62.1303 21.0897 62.2918 20.0916 62.6114C19.4823 61.9887 18.9247 61.3931 18.4318 60.8289C17.5415 59.8514 16.7608 58.7795 16.1036 57.6323C15.6899 56.9475 15.4507 56.1717 15.407 55.3729C15.4046 54.9013 15.5402 54.4392 15.7971 54.0437ZM8.15379 67.4893C7.88044 67.2222 7.65891 66.9067 7.50041 66.559C7.36574 66.2482 7.29797 65.9127 7.3015 65.574C7.33229 64.8588 7.51759 64.1586 7.84465 63.5218C8.13925 62.7993 8.60739 62.1605 9.20765 61.662C9.6489 61.3307 10.1895 61.1589 10.741 61.1747C11.6259 61.2185 12.4922 61.4445 13.2856 61.8386C14.642 62.4857 15.933 63.262 17.1405 64.1566C16.6742 64.506 16.2393 64.8955 15.8408 65.3207C14.5953 66.6792 13.7147 68.3313 13.2814 70.1227C12.5948 69.8953 11.9471 69.6656 11.3794 69.4292C10.1892 68.9965 9.0939 68.3378 8.15379 67.4893ZM5.44749 75.2693C5.60874 74.9486 5.8325 74.6634 6.10561 74.4304C6.37872 74.1974 6.69566 74.0214 7.03779 73.9127C8.20757 73.5249 9.43756 73.3507 10.669 73.3983C11.3572 73.3973 12.122 73.4402 12.9284 73.5057C12.9416 73.9758 12.9796 74.4449 13.0424 74.9109C13.3484 76.813 14.1036 78.6147 15.2454 80.1664C13.2826 80.73 11.2597 81.0582 9.21942 81.1439C8.59543 81.1563 7.97271 81.0824 7.36896 80.9243C6.76323 80.7813 6.22762 80.4286 5.85696 79.9286C5.42454 79.2463 5.18236 78.4608 5.15549 77.6534C5.13407 77.4139 5.12406 77.1898 5.12406 76.9797C5.10331 76.3926 5.21381 75.8083 5.44748 75.2693L5.44749 75.2693Z"/></g></g></svg>