<svg xmlns="http://www.w3.org/2000/svg" width="200" height="200" fill="none"><path fill="#FFD93A" d="M45.958 63.535c-3.968-2.135-9.743-1.284-13.954 4-9.124-8.767-18.977-2.124-17.675 7.196 1.365 9.766 19.377 16.355 19.377 16.355s9.515-4.31 14.213-11.573c3.92-7.362 2.705-12.263-1.961-15.978Zm8.115 28.289c.267.372.54.74.819 1.105a68.365 68.365 0 0 0-1.491 14.286c0 31.314 22.652 56.7 58.086 56.7 35.433 0 58.085-25.386 58.085-56.7 0-13.666-3.946-26.701-11.497-37.056.115-1.317.187-2.646.187-3.993 0-26.105-20.033-49.458-56.188-49.458-29.04 0-47.676 15.066-53.887 34.523 0 0-.063 5.394-1.063 7.644 0 0 3.125-3.125 7.125-1.625s3.875 5.625 3.125 7.625-4.25 3.375-4.25 3.375 6.25-.375 7.625 1.875 1.875 5 .375 6.75S54.75 79.5 54.75 79.5s3.875 2.125 4.625 4.625-.875 6-2.625 6.875a6.063 6.063 0 0 1-2.676.824Zm87.898 59.79c-2.819 1.359-5.253-3.185-5.253-3.185s.506 5.015-1.947 5.598c-3.683.876-4.322-2.995-4.322-2.995s-4.127 3.989-4.993-2.248c.071-13.302 8.566-15.65 8.566-15.65s4.277-1.256 7.214.252c2.938 1.507.82 4.24.82 4.24a9.022 9.022 0 0 1-.665 5.856s2.855 7.035.58 8.132Z"/><g fill="#191C22"><path d="M123.39 80.487c5.372.036 7.108-15.807-.248-15.807-7.275 0-5.697 15.768.248 15.807ZM80.692 80.477c5.077.307 6.073-16.072-.886-15.785-6.88.283-5.395 15.405.886 15.785ZM93.04 84.186a11.177 11.177 0 0 0 4.058 3.288 10.55 10.55 0 0 0 4.482.978 12.236 12.236 0 0 0 5.646-1.415 8.947 8.947 0 0 0 3.705-3.38 1.298 1.298 0 0 0-.516-1.763 1.299 1.299 0 0 0-1.763.512 6.46 6.46 0 0 1-2.639 2.33 9.65 9.65 0 0 1-4.433 1.116 7.939 7.939 0 0 1-3.382-.734 8.567 8.567 0 0 1-3.114-2.538 1.299 1.299 0 0 0-2.313.648 1.298 1.298 0 0 0 .269.958Z"/><path d="M5.531 82.982a7.956 7.956 0 0 0 3.688.762c.07 0 .148-.01.218-.011-.532.39-1.027.828-1.48 1.307a6.532 6.532 0 0 0-1.177 1.757 4.988 4.988 0 0 0-.435 2.031 6.837 6.837 0 0 0 1.42 3.903 7.686 7.686 0 0 0 2.165 2.153 5.04 5.04 0 0 0 2.707.785 7.42 7.42 0 0 0 3.493-1.007c.168-.091.342-.213.512-.315a8.725 8.725 0 0 0-.803 3.389 5.064 5.064 0 0 0 1.004 3.089 7.308 7.308 0 0 0 2.847 2.165c.98.488 2.054.756 3.148.785a5.03 5.03 0 0 0 2.024-.415 6.627 6.627 0 0 0 2.771-2.468c.2-.296.39-.618.575-.951.044.341.08.692.147 1.01.144.722.387 1.422.72 2.078a5.162 5.162 0 0 0 2.145 2.208 5.747 5.747 0 0 0 1.671.565 236.976 236.976 0 0 1 .042 4.694c-.033.068-.069.14-.095.196a27.766 27.766 0 0 0-2.019-.317 5.33 5.33 0 0 0-.592-.035 4.4 4.4 0 0 0-2.005.467 4.54 4.54 0 0 0-1.98 2.039 6.124 6.124 0 0 0-.625 2.75c.003.63.093 1.257.266 1.863-.35.364-.628.791-.815 1.26a4.888 4.888 0 0 0-.368 1.838 4.162 4.162 0 0 0 .4 1.802c.202.415.474.793.802 1.118a3.264 3.264 0 0 0-.24 1.171 4.208 4.208 0 0 0 1.146 2.797 4.285 4.285 0 0 0 2.35 1.306c.014.045.032.089.052.131a5.749 5.749 0 0 0 1.492 1.441 7.404 7.404 0 0 0 2.69 1.132c.187 5.363.269 10.762.508 15.867a1.293 1.293 0 0 0 .423.9 1.301 1.301 0 0 0 2.174-1.021c-.233-4.972-.315-10.28-.497-15.6.243-.021.49-.048.744-.087a7.056 7.056 0 0 0 2.54-.868c.489.295.995.563 1.514.801a11.45 11.45 0 0 0 4.681 1.049c1.617 0 3.21-.392 4.644-1.142a11.611 11.611 0 0 0 2.85-2.116 15.318 15.318 0 0 0 2.143-2.76 55.368 55.368 0 0 0 13.114 21.741c.95.967 1.952 1.887 2.978 2.784a45.565 45.565 0 0 0-.092 2.714c.021 3.355.324 6.701.905 10.005a8.686 8.686 0 0 0-3.056 3.353 14.075 14.075 0 0 0-1.385 6.267 14.766 14.766 0 0 0 .31 3.133c.007.032.03.056.04.087a8.24 8.24 0 0 0-.801 3.596c0 .435.03.87.088 1.301.638 4.776 2.085 8.18 4.294 10.42a10.151 10.151 0 0 0 3.775 2.423c1.42.5 2.917.746 4.422.727.346 0 .694-.011 1.044-.032a13.975 13.975 0 0 0 8.79-3.467 10.908 10.908 0 0 0 3.476-8.157c0-.171-.003-.343-.01-.515a34.953 34.953 0 0 0-2.98-11.576 26.475 26.475 0 0 0-3-5.279 9.498 9.498 0 0 0-3.945-3.294 12.896 12.896 0 0 0-3.247-.757 55.466 55.466 0 0 1-.605-5.119c8.966 5.327 19.87 8.385 32.256 8.382 14.451.004 26.88-4.168 36.572-11.24a166.937 166.937 0 0 0-.087 5.455c0 .687.013 1.406.019 2.106a8.782 8.782 0 0 0-4.067 3.931 16.274 16.274 0 0 0-1.528 7.191c.005.113.025.224.06.332-.177.241-.366.468-.524.732a6.856 6.856 0 0 0-.788 2.265c-.158.909-.234 1.83-.227 2.753.017 2.171.312 4.331.88 6.427a16.535 16.535 0 0 0 2.659 5.763 9.21 9.21 0 0 0 3.958 2.836c1.62.615 3.341.923 5.073.908a15.067 15.067 0 0 0 9.094-2.946 10.425 10.425 0 0 0 3.46-5.027c.625-1.969.926-4.027.891-6.093a37.808 37.808 0 0 0-.954-7.958 20.767 20.767 0 0 0-3.578-8.212 11.157 11.157 0 0 0-3.464-3.002 9.704 9.704 0 0 0-2.959-1.006c-.001-.333-.005-.672-.005-1a99.794 99.794 0 0 1 .715-13.296 56.094 56.094 0 0 0 12.33-23.685c.301.237.603.475.916.709a35.513 35.513 0 0 0 10.957 5.655 29.08 29.08 0 0 0 4.53 1.302 1.302 1.302 0 0 0 1.291-2.024 1.3 1.3 0 0 0-.836-.536l-.014-.003a26.048 26.048 0 0 1-3.223-.875l.548-2.039c1.097.337 2.212.617 3.338.839a1.301 1.301 0 0 0 1.291-2.02 1.302 1.302 0 0 0-.831-.539l-.075-.014a31.765 31.765 0 0 1-3.048-.778l.548-2.041c1.834.5 3.193.749 3.22.754.168.031.341.028.508-.007a1.314 1.314 0 0 0 .82-.567 1.31 1.31 0 0 0 .178-.981 1.298 1.298 0 0 0-.57-.819 1.306 1.306 0 0 0-.473-.185l-.077-.014c-.3-.057-1.461-.29-2.932-.692l.007-.026a22.488 22.488 0 0 1-7.162-3.416 44.115 44.115 0 0 1-4.789-3.967 129.323 129.323 0 0 1-2.283-2.187c.003-.255.017-.507.017-.763 0-.142-.008-.282-.009-.424.199.099.392.199.595.297a35.351 35.351 0 0 0 6.338 2.359c2.473.649 5.02.977 7.578.975.178 0 .362-.013.542-.016a29.22 29.22 0 0 0 1.49.042 25.068 25.068 0 0 0 3.527-.226 1.311 1.311 0 0 0 .857-.515 1.312 1.312 0 0 0 .238-.972 1.314 1.314 0 0 0-.523-.853 1.307 1.307 0 0 0-.973-.229l-.007.001c-1.034.135-2.076.2-3.119.194-.097 0-.203-.004-.304-.005l-.129-2.143a29.264 29.264 0 0 0 3.498-.298 1.296 1.296 0 0 0 1.064-.985 1.297 1.297 0 0 0-.509-1.357 1.316 1.316 0 0 0-.972-.224l-.013.002a27.389 27.389 0 0 1-3.224.266l-.13-2.146c1.913-.138 3.296-.372 3.325-.376a1.296 1.296 0 0 0 1.058-.992 1.285 1.285 0 0 0-.168-.985 1.296 1.296 0 0 0-1.327-.586l-.074.012c-.345.055-1.866.282-3.739.38-.128.002-.263.011-.388.011-2.027 0-4.04-.342-5.954-1.01a46.067 46.067 0 0 1-8.574-4.385c-.528-.315-1.081-.638-1.63-.959a65.19 65.19 0 0 0-1.382-5.204 60.585 60.585 0 0 0 13.721-6.105 34.213 34.213 0 0 0 8.38-6.926 13.467 13.467 0 0 0 3.54-8.512 10.143 10.143 0 0 0-.643-3.536 7.716 7.716 0 0 0-2.932-3.881 7.952 7.952 0 0 0-4.459-1.236 18.335 18.335 0 0 0-7.93 2.215 47.375 47.375 0 0 0-12.507 9.598 58.147 58.147 0 0 0-2.544 2.859 46.14 46.14 0 0 0-3.16-10.344 48.88 48.88 0 0 0-6.36-19.73l-.006-.026a1.37 1.37 0 0 0-.06-.176 3 3 0 0 0-.124-.256c-.34-.609-.709-1.2-1.108-1.773a38.959 38.959 0 0 0-1.515-2.055 48.015 48.015 0 0 0-5.503-6.272 51.469 51.469 0 0 0-13.849-9.378c0-.01.005-.02.005-.03l-.002-.118a8.579 8.579 0 0 1 .589-3.086 4.55 4.55 0 0 1 .814-1.269 4.688 4.688 0 1 0-1.692-2.025 7.713 7.713 0 0 0-1.955 3.591 11.585 11.585 0 0 0-.309 1.822 68.734 68.734 0 0 0-26.151-4.807 68.475 68.475 0 0 0-26.674 5.017 13.025 13.025 0 0 0-1.983-3.501 11.005 11.005 0 0 0-3.338-2.838 10.604 10.604 0 0 0-3.33-1.117 4.662 4.662 0 1 0 .127 2.664 7.894 7.894 0 0 1 1.96.736 8.932 8.932 0 0 1 3.36 3.362 10.592 10.592 0 0 1 .826 1.76 51.39 51.39 0 0 0-13.499 9.217c-.155.148-.299.305-.451.454a40.945 40.945 0 0 0-8.028 10.167 1.285 1.285 0 0 0-.116.423 48.06 48.06 0 0 0-3.396 7.363 9.281 9.281 0 0 0-1.326-.817 7.409 7.409 0 0 0-3.322-.896 4.976 4.976 0 0 0-2.13.47 6.884 6.884 0 0 0-2.81 2.67c-.142.226-.267.489-.401.733-.044-.363-.083-.73-.155-1.068a6.42 6.42 0 0 0-1.922-3.622 5.074 5.074 0 0 0-1.792-1.008 7.014 7.014 0 0 0-2.178-.318c-.294 0-.595.014-.904.042a8.16 8.16 0 0 0-2.51.59 5.109 5.109 0 0 0-2.59 2.376 7.956 7.956 0 0 0-.76 3.688c0 .069.01.147.01.217a10.872 10.872 0 0 0-1.307-1.48 6.533 6.533 0 0 0-1.756-1.176 4.988 4.988 0 0 0-2.032-.435 6.836 6.836 0 0 0-3.902 1.419 7.686 7.686 0 0 0-2.153 2.165 5.04 5.04 0 0 0-.786 2.708 7.419 7.419 0 0 0 1.007 3.492c.091.168.213.342.315.512a8.724 8.724 0 0 0-3.388-.802 5.062 5.062 0 0 0-3.09 1.004 7.292 7.292 0 0 0-2.164 2.847 7.507 7.507 0 0 0-.786 3.148 5.024 5.024 0 0 0 .416 2.023 6.627 6.627 0 0 0 2.467 2.772c.292.197.608.384.936.566-.356.044-.716.082-1.049.152a6.42 6.42 0 0 0-3.621 1.922 5.073 5.073 0 0 0-1.008 1.792 7.013 7.013 0 0 0-.318 2.179c0 .293.014.594.042.904a8.16 8.16 0 0 0 .59 2.51 5.108 5.108 0 0 0 2.375 2.588Zm65.76 85.256c.323-.632.759-1.2 1.286-1.675.06.27.114.509.163.717a72.954 72.954 0 0 0-.432 2.587c-.114.771-.223 1.64-.323 2.542l-.046.025c-.621.36-1.208.777-1.752 1.245-.003-.111-.007-.221-.007-.337a11.501 11.501 0 0 1 1.11-5.104Zm10.87-3.098a7.074 7.074 0 0 1 2.796 2.435 25.368 25.368 0 0 1 3.055 5.618c.259.634.503 1.28.726 1.929a29.512 29.512 0 0 1 1.672 7.839c.005.138.008.276.008.412a8.291 8.291 0 0 1-2.646 6.252 11.394 11.394 0 0 1-7.175 2.777c-.302.018-.598.027-.889.027-1.2.019-2.396-.173-3.53-.569a7.862 7.862 0 0 1-3.994-3.288 18.175 18.175 0 0 1-2.39-7.457 7.207 7.207 0 0 1-.065-.957 5.55 5.55 0 0 1 .956-3.191 8.935 8.935 0 0 1 4.282-3.102 16.319 16.319 0 0 1 5.687-1.037 8.708 8.708 0 0 1 3.586.62 1.302 1.302 0 0 0 1.74-.594 1.315 1.315 0 0 0-.595-1.74 8.192 8.192 0 0 0-1.82-.59 29.806 29.806 0 0 0-.833-2.982 16.67 16.67 0 0 0-1.118-2.58c.183.058.368.11.547.178ZM23.18 64.733c2.345.001 5.102 1.033 7.924 3.74a1.3 1.3 0 0 0 1.917-.128c2.61-3.265 5.743-4.594 8.53-4.598a7.7 7.7 0 0 1 5.37 2.074 7.609 7.609 0 0 1 2.262 5.64v.01a13.498 13.498 0 0 1-2.409 7.423 30.355 30.355 0 0 1-8.481 8.074 44.39 44.39 0 0 1-3.652 2.192 33.84 33.84 0 0 1-.992.511 56.846 56.846 0 0 1-8.865-4.473 30.173 30.173 0 0 1-6.07-4.86 11.062 11.062 0 0 1-3.097-5.787c-.068-.488-.103-.98-.104-1.474a8.703 8.703 0 0 1 2.232-5.986 7.32 7.32 0 0 1 5.435-2.358Zm118.057 71.891a1.293 1.293 0 0 0-.407 1.426l-.001.001.005.017c.109.397.163.808.158 1.22a5.238 5.238 0 0 1-1.26 3.388 1.303 1.303 0 0 0-.218 1.265c.305.846.674 1.864.961 2.866.275.868.437 1.768.48 2.678.016.274-.029.547-.131.801l-.065.089-.113.054c-.098.031-.2.047-.302.048a1.02 1.02 0 0 1-.474-.127 3.383 3.383 0 0 1-1.085-1.064 12.226 12.226 0 0 1-1.35-2.719 18.25 18.25 0 0 1-.444-1.379l-.02-.077-.005-.019a1.301 1.301 0 0 0-2.545.523s.041.249.103.664c.092.621.232 1.605.347 2.618.114.914.182 1.833.203 2.754v.079-.005c-.02.302-.155.586-.376.793-.218.23-.518.367-.835.379a1.063 1.063 0 0 1-.606-.202 2.788 2.788 0 0 1-.832-.982 8.976 8.976 0 0 1-.877-4.329c.004-.877.065-1.752.182-2.621a1.299 1.299 0 1 0-2.578-.337c-.132.98-.2 1.968-.204 2.958.003.772.063 1.542.179 2.305.001.035-.014.065-.01.1.008.091.012.18.012.265.019.458-.13.908-.418 1.266a.956.956 0 0 1-.707.363.884.884 0 0 1-.53-.194 2.39 2.39 0 0 1-.701-.939 3.392 3.392 0 0 1-.206-.871 12.335 12.335 0 0 1-.097-1.641c.007-1.307.131-2.609.372-3.893.216-1.257.596-2.48 1.132-3.637a16.167 16.167 0 0 1 2.417-3.633c.394-.444.84-.838 1.329-1.173a2.622 2.622 0 0 1 1.07-.45 1.292 1.292 0 0 0 1.1-1.058l.012.004c.003-.001.012-.061.154-.173a2.315 2.315 0 0 1 1.136-.375 8.907 8.907 0 0 1 4.309.607c.472.196.903.477 1.274.829.312.301.535.682.645 1.102l.011.079a.427.427 0 0 1-.094.237l-.087.102-.015.014.002.004ZM39.072 89.564a43.62 43.62 0 0 0 3.842-2.768c.128-.104.255-.223.383-.33 1.484 1.351 2.777 2.607 3.828 3.763a18.73 18.73 0 0 1 2.473 3.258 4.98 4.98 0 0 1 .768 2.374c.003.478-.138.946-.404 1.343a5.098 5.098 0 0 1-1.534 1.43 4.363 4.363 0 0 1-2.333.86 2.902 2.902 0 0 1-1.937-.834 16.837 16.837 0 0 1-3.56-5.51 67.899 67.899 0 0 1-1.526-3.585Zm65.945 37.429c20.879 0 37.323-7.288 47.338-18.574a22.251 22.251 0 0 1 4.568 2.993c1.473 1.209 2.988 2.656 4.609 4.236l.036.035a50.393 50.393 0 0 1-15.228 15.611c.095-.147.196-.28.288-.431a16.498 16.498 0 0 0 2.523-7.795 3.996 3.996 0 0 0-6.678-3.149 3.999 3.999 0 0 0-1.312 2.76 7.818 7.818 0 0 1-.838 3.062 17.98 17.98 0 0 1-3.334 4.458c-.268.276-.538.54-.808.802l-.096-.003a9.965 9.965 0 0 0-1.221.072 4.396 4.396 0 0 0-2.878 1.35 2.98 2.98 0 0 0-.311.439 5.778 5.778 0 0 0-1.383.67 11.258 11.258 0 0 0-2.63 2.561 19.972 19.972 0 0 0-2.018 3.265 12.96 12.96 0 0 0-.472 1.094 88.484 88.484 0 0 1-17.774 2.515c-1.614.067-3.184.101-4.711.101-26.596 0-40.102-10.139-47.053-25.203a61.124 61.124 0 0 1-.932-10.647c0-.288.014-.573.017-.86 8.833 12.977 26.313 20.638 50.298 20.638ZM52.542 89.405a28.668 28.668 0 0 1-5.516-3.419 76.822 76.822 0 0 1-1.728-1.33 26.022 26.022 0 0 0 3.651-4.338c.028-.041.052-.086.08-.128 1.71.388 3.393.886 5.04 1.49a10.599 10.599 0 0 1 3.451 1.943c.303.275.55.604.731.97.15.322.227.673.224 1.028a4.865 4.865 0 0 1-.617 2.15 4.781 4.781 0 0 1-1.363 1.763c-.441.323-.977.49-1.524.474a6.366 6.366 0 0 1-2.43-.603Zm-2.08-11.872a15.002 15.002 0 0 0 1.32-6.056h.001v-.016h-1.3l1.3-.001c0-.229-.019-.45-.031-.672a21.49 21.49 0 0 1 4.868-.729 6.542 6.542 0 0 1 1.805.218 2.6 2.6 0 0 1 1.504 1.007 4.51 4.51 0 0 1 .663 2.363c.008.155.013.305.013.448a4.288 4.288 0 0 1-.319 1.777 2.373 2.373 0 0 1-.586.806 4.029 4.029 0 0 1-1.747.836c-1.03.23-2.083.336-3.138.314a38.19 38.19 0 0 1-4.354-.295Zm.62-9.975a9.711 9.711 0 0 0-2.363-3.614 9.816 9.816 0 0 0-2.26-1.612 39.91 39.91 0 0 1 1.034-.98 18.726 18.726 0 0 1 3.258-2.474 4.979 4.979 0 0 1 2.374-.768c.478-.002.946.138 1.343.405a5.1 5.1 0 0 1 1.43 1.533c.508.678.807 1.489.861 2.333a2.902 2.902 0 0 1-.835 1.937 15.492 15.492 0 0 1-4.842 3.24ZM14.897 92.373a4.887 4.887 0 0 1-2.26.696 2.417 2.417 0 0 1-1.329-.39 5.136 5.136 0 0 1-1.416-1.442 4.297 4.297 0 0 1-.947-2.409c0-.338.073-.672.213-.98a5.3 5.3 0 0 1 1.658-1.91 26.13 26.13 0 0 1 5.908-3.147c.173-.071.367-.144.544-.215a31.26 31.26 0 0 0 4.58 3.797c-1.372 1.448-2.623 2.683-3.755 3.671a18.13 18.13 0 0 1-3.196 2.329Zm11.797 4.724a9.833 9.833 0 0 1-1.94 3.226 3.111 3.111 0 0 1-.93.653c-.311.135-.647.202-.986.199a4.965 4.965 0 0 1-2.052-.543 4.752 4.752 0 0 1-1.86-1.363 2.438 2.438 0 0 1-.487-1.533c.044-.885.27-1.752.664-2.545a29.168 29.168 0 0 1 3.592-5.567c.445-.575.926-1.172 1.43-1.785a56.834 56.834 0 0 0 4.605 2.498 46.18 46.18 0 0 1-2.036 6.76Zm5.91 5.925a2.374 2.374 0 0 1-.805-.586 4.03 4.03 0 0 1-.837-1.747 13.093 13.093 0 0 1-.313-3.138c.035-2.04.208-4.077.518-6.095 1.272.55 2.074.844 2.093.851.32.118.673.105.983-.036.028-.014.999-.455 2.465-1.281.188.606.37 1.204.529 1.77a25.888 25.888 0 0 1 1.18 6.596 6.546 6.546 0 0 1-.217 1.805 2.596 2.596 0 0 1-1.008 1.503 4.508 4.508 0 0 1-2.362.664 7.704 7.704 0 0 1-.448.012 4.275 4.275 0 0 1-1.777-.318Zm2.809 8.347c.084-.154.178-.302.28-.444.141-.201.312-.38.506-.529a.547.547 0 0 1 .313-.129.613.613 0 0 1 .288.092c.184.095.348.225.482.384.181.237.299.517.342.813.056.342.085.688.086 1.034a5.683 5.683 0 0 0-.438-.326 8.557 8.557 0 0 0-1.86-.895Zm-6.61 2.263c.158-.212.362-.385.597-.507.257-.127.54-.19.827-.185.098.001.195.006.293.018 1.499.142 2.974.476 4.388.993.464.171.892.425 1.264.749.089.082.162.178.217.284l.046.204v.033a1.37 1.37 0 0 1-.225.715c-.195.267-.46.476-.764.606-.088.04-.179.076-.271.106a8.701 8.701 0 0 0-2.946-1.055 7.027 7.027 0 0 0-.993-.07 8.772 8.772 0 0 0-2.968.552 4.347 4.347 0 0 1-.051-.479 3.254 3.254 0 0 1 .586-1.964Zm-1.358 7.605a1.56 1.56 0 0 1-.145-.68 2.3 2.3 0 0 1 .174-.852c.043-.108.096-.212.159-.31l.065-.09.026-.03c.143-.121.299-.228.463-.319a6.532 6.532 0 0 1 3.048-.833c.21 0 .418.014.625.043a6.746 6.746 0 0 1 2.707 1.168c.35.24.67.525.948.847.08.093.15.195.208.303l.029.068.002.059a1.483 1.483 0 0 1-.265.734 8.1 8.1 0 0 0-1.187-.315 13.029 13.029 0 0 0-2.248-.189c-.86-.003-1.717.079-2.56.243a8.08 8.08 0 0 0-1.75.551c-.12-.116-.22-.25-.299-.398Zm.817 3.411a.601.601 0 0 1 .062-.287.544.544 0 0 1 .213-.211 4.709 4.709 0 0 1 1.473-.517 10.46 10.46 0 0 1 2.044-.191c.6-.003 1.198.046 1.788.147.398.06.785.176 1.15.347.16.089.288.225.368.389.1.201.152.422.15.646.005.193-.038.384-.125.556-.072.123-.12.151-.171.172a9.677 9.677 0 0 1-2.145.424c-.84.088-1.684.132-2.528.133-.26 0-.494-.005-.69-.013a1.757 1.757 0 0 1-1.59-1.595Zm10.56 3.001a3.532 3.532 0 0 1-2.476 1.295c-.155.024-.3.038-.447.053l-.031-.793c.083-.027.178-.04.258-.07a2.935 2.935 0 0 0 1.532-1.345 3.753 3.753 0 0 0 .453-1.818 4.019 4.019 0 0 0-.443-1.844c-.033-.063-.076-.123-.113-.185l.037-.05a4.084 4.084 0 0 0 .762-2.281c0-.103-.004-.209-.015-.317a3.332 3.332 0 0 0-.817-1.766c-.039-.047-.085-.09-.126-.136a4.16 4.16 0 0 0 .853-.85c.139.355.311.696.517 1.017.576.923.872 1.993.851 3.081a7.672 7.672 0 0 1-.31 2.128l-.036.112-.007.022c-.11.295-.108.62.004.915.095.297.14.608.134.921a3.243 3.243 0 0 1-.58 1.911Zm11.494-10.504a15.142 15.142 0 0 1-2.666 6.07 4.138 4.138 0 0 1-1.22 1.042c-.292.159-.619.241-.951.239a3.48 3.48 0 0 1-1.415-.352 8.92 8.92 0 0 1-1.928-1.245c.053-.418.08-.838.081-1.259a8.208 8.208 0 0 0-1.267-4.491 3.71 3.71 0 0 1-.52-1.386 9.683 9.683 0 0 1-.117-1.711c0-.348.007-.708.007-1.076a8.094 8.094 0 0 0-.318-2.584 4.07 4.07 0 0 0-.708-1.296 4.184 4.184 0 0 0-1.254-1.022 3.209 3.209 0 0 0-1.528-.407 2.96 2.96 0 0 0-.99.177 267.13 267.13 0 0 0-.03-1.985 7.785 7.785 0 0 0 2.103-.477 5.08 5.08 0 0 0 2.657-2.379 7.8 7.8 0 0 0 .765-3.647c0-.1-.015-.21-.017-.31.431.575.92 1.106 1.46 1.582a5.512 5.512 0 0 0 3.635 1.467 6.9 6.9 0 0 0 3.757-1.285 9.268 9.268 0 0 0 1.312-1.026c.343.833.723 1.646 1.124 2.447a71.375 71.375 0 0 0-.186 4.984c.004 2.426.145 4.851.422 7.261a3.973 3.973 0 0 0-2.208 2.669Zm95.272 51.147a6.956 6.956 0 0 1 2.163-3.541 69.018 69.018 0 0 0-.973 4.865c-.101.043-.207.072-.308.117-.452.204-.89.439-1.31.703.086-.725.229-1.442.428-2.144Zm12.11-4.569a9.69 9.69 0 0 1 3.699 3.897 20.568 20.568 0 0 1 2.042 5.59c.164.741.311 1.547.445 2.374.283 1.66.432 3.34.448 5.024a16.538 16.538 0 0 1-.752 5.256 7.822 7.822 0 0 1-2.586 3.804 12.494 12.494 0 0 1-7.507 2.406 11.386 11.386 0 0 1-4.124-.729 6.627 6.627 0 0 1-2.857-2.015 14.054 14.054 0 0 1-2.199-4.841 22.79 22.79 0 0 1-.79-5.749c-.007-.764.054-1.526.184-2.279a4.38 4.38 0 0 1 .46-1.401 7.403 7.403 0 0 1 3.381-2.958 11.2 11.2 0 0 1 4.585-.914 13.686 13.686 0 0 1 4.107.628 8.248 8.248 0 0 1 2.908 1.521 1.312 1.312 0 0 0 .941.323 1.286 1.286 0 0 0 .894-.437c.025-.028.032-.063.054-.092a1.293 1.293 0 0 0-.167-1.743 9.545 9.545 0 0 0-2.313-1.448 33.225 33.225 0 0 0-1.54-5.42 3.964 3.964 0 0 0-.973-1.44 7 7 0 0 1 1.659.643h.001Zm-4.807-17.327c-9.845 10.002-23.997 16.213-41.404 16.219-16.654-.005-30.318-5.701-40.092-14.952 8.665 6.001 20.259 8.636 34.008 8.636 1.36 0 2.741-.026 4.143-.077a88.667 88.667 0 0 0 17.089-2.243c.43.196.897.299 1.369.304a3.492 3.492 0 0 0 2.362-.967c.37.607.861 1.131 1.444 1.539.605.414 1.32.638 2.053.642a3.871 3.871 0 0 0 3.791-3.583c.304.292.646.542 1.017.742a3.562 3.562 0 0 0 2.722.264 2.9 2.9 0 0 0 1.041-.557c.424-.365.738-.842.905-1.376.151-.486.224-.993.217-1.502a9.634 9.634 0 0 0-.175-1.702c10.256-5.46 17.867-13.268 22.165-22.615a52.839 52.839 0 0 1-12.655 21.228Zm17.876-79.801a39.932 39.932 0 0 1 7.906-5.386 15.867 15.867 0 0 1 6.769-1.94 5.358 5.358 0 0 1 3.023.802 5.115 5.115 0 0 1 1.93 2.616c.316.842.479 1.734.481 2.634a10.918 10.918 0 0 1-2.937 6.847c-2.836 3.414-7.545 6.606-12.686 9.044a59.455 59.455 0 0 1-8.242 3.186 60.662 60.662 0 0 0-3.97-8.813c-.021-.24-.039-.48-.064-.719a54.428 54.428 0 0 1 7.79-8.271Zm-7.574 15.222a60.85 60.85 0 0 1 2.944 8.55c-.057-.029-.107-.06-.163-.088-1.18-.6-2.394-1.131-3.635-1.591.469-2.264.755-4.562.854-6.871ZM56.038 38.628a23.36 23.36 0 0 1 5.042-4.707 15.376 15.376 0 0 1 8.615-2.813c2.13.005 4.23.51 6.13 1.475a17.72 17.72 0 0 1 5.243 4.22c2.305 2.553 4.316 5.633 7.173 8.158a17.109 17.109 0 0 0 5.075 3.153 18.964 18.964 0 0 0 7.037 1.236 17.814 17.814 0 0 0 9.411-2.643c3.951-2.382 6.956-5.853 10.136-8.802a30.11 30.11 0 0 1 4.979-3.89 16.052 16.052 0 0 1 5.917-2.17 18.923 18.923 0 0 1 2.846-.218c3.27-.005 6.478.9 9.264 2.613a22.085 22.085 0 0 1 6.443 6.164 46.52 46.52 0 0 1 7.614 25.763 42.54 42.54 0 0 1-14.797 32.445c-9.495 8.319-23.218 13.52-40.091 13.522-16.874-.002-30.596-5.203-40.092-13.522a44.973 44.973 0 0 1-5.804-6.152 4.965 4.965 0 0 0 1.846-.823 7.324 7.324 0 0 0 2.154-2.695 7.41 7.41 0 0 0 .896-3.321 4.976 4.976 0 0 0-.47-2.13 6.884 6.884 0 0 0-2.67-2.81c-.231-.145-.499-.274-.75-.41.35-.044.706-.08 1.03-.15a8.07 8.07 0 0 0 2.078-.72 5.162 5.162 0 0 0 2.208-2.144c.493-.98.735-2.066.704-3.162 0-.194-.006-.392-.017-.593a8.135 8.135 0 0 0-.542-2.62 5.08 5.08 0 0 0-2.378-2.657 7.802 7.802 0 0 0-3.648-.766c-.099 0-.21.015-.31.017.576-.431 1.106-.92 1.583-1.46a5.508 5.508 0 0 0 1.466-3.635 6.903 6.903 0 0 0-1.285-3.756 7.65 7.65 0 0 0-2.195-2.295 5.009 5.009 0 0 0-2.754-.82 7.505 7.505 0 0 0-3.651 1.104c-.124.07-.25.164-.374.24a8.786 8.786 0 0 0 .773-3.348c0-.686-.135-1.365-.399-1.999a45.274 45.274 0 0 1 6.564-12.879Zm-17.093 15.78a10.6 10.6 0 0 1 1.942-3.452c.275-.302.604-.55.97-.73.322-.151.673-.227 1.028-.224.755.036 1.49.247 2.15.617a4.782 4.782 0 0 1 1.764 1.362c.322.442.49.978.474 1.525a6.368 6.368 0 0 1-.603 2.43 28.252 28.252 0 0 1-3.313 5.366 10.961 10.961 0 0 0-1.806-.155 11.98 11.98 0 0 0-4.705 1.007 52.07 52.07 0 0 1 2.1-7.746Zm-11.393-4.304a2.636 2.636 0 0 1 .996-1.512 4.533 4.533 0 0 1 2.275-.701c.24-.022.464-.032.674-.032a3.95 3.95 0 0 1 1.71.324 2.693 2.693 0 0 1 1.356 1.59c.388 1.17.563 2.4.515 3.631a61.04 61.04 0 0 1-1.358 10.609 15.937 15.937 0 0 0-1.826 1.683 18.268 18.268 0 0 0-1.549-1.176 161.83 161.83 0 0 0-.827-2.344 89.318 89.318 0 0 1-1.108-3.787 26.678 26.678 0 0 1-1.078-6.434 6.774 6.774 0 0 1 .22-1.85Zm-11.755 3.94a5.138 5.138 0 0 1 1.443-1.416 4.299 4.299 0 0 1 2.408-.947c.338 0 .672.073.98.213a5.3 5.3 0 0 1 1.91 1.657 26.134 26.134 0 0 1 3.147 5.909 86.792 86.792 0 0 1 1.29 3.347 11.496 11.496 0 0 0-3.795-.674 10.05 10.05 0 0 0-3.088.478 43.578 43.578 0 0 1-1.66-1.782 18.134 18.134 0 0 1-2.328-3.197 4.885 4.885 0 0 1-.697-2.26 2.418 2.418 0 0 1 .39-1.328ZM8.154 67.489a3.097 3.097 0 0 1-.654-.93 2.414 2.414 0 0 1-.199-.985 4.96 4.96 0 0 1 .544-2.052 4.748 4.748 0 0 1 1.363-1.86 2.438 2.438 0 0 1 1.533-.487c.885.044 1.751.27 2.545.664a23.404 23.404 0 0 1 3.854 2.318c-.466.349-.9.739-1.3 1.164a10.896 10.896 0 0 0-2.559 4.802 27.74 27.74 0 0 1-1.902-.694 9.824 9.824 0 0 1-3.225-1.94Zm-2.707 7.78a2.693 2.693 0 0 1 1.59-1.356c1.17-.388 2.4-.562 3.632-.515a28.01 28.01 0 0 1 2.26.108c.013.47.05.939.113 1.405a12.114 12.114 0 0 0 2.203 5.255 25.75 25.75 0 0 1-6.026.978 6.774 6.774 0 0 1-1.85-.22 2.636 2.636 0 0 1-1.512-.995 4.532 4.532 0 0 1-.702-2.276 7.566 7.566 0 0 1-.03-.673 3.95 3.95 0 0 1 .322-1.71Z"/></g></svg>