<svg width="200" height="200" viewBox="0 0 200 200" xmlns="http://www.w3.org/2000/svg"><g id="type=offer-payment, mode=dark"><path id="Vector" d="M82.4393 78.7091C81.5561 80.6963 81.0832 82.8414 81.0491 85.0157C80.9849 86.6781 81.4253 88.3209 82.3123 89.7283C82.7748 90.4038 83.3963 90.9553 84.1221 91.3341C84.907 91.7287 85.7755 91.928 86.6538 91.9153C87.1297 91.9132 87.6043 91.8672 88.0717 91.7779C89.5377 91.4976 90.9131 90.8639 92.0788 89.9317C93.7633 88.546 95.0731 86.7596 95.8881 84.7363C96.7131 82.795 97.1474 80.7101 97.1661 78.6008C97.226 76.8619 96.7958 75.1411 95.9246 73.6349C95.4835 72.926 94.8771 72.3346 94.1574 71.9114C93.388 71.4754 92.5167 71.2512 91.6324 71.2617C91.1961 71.2636 90.7611 71.3086 90.3336 71.396H90.3333L90.333 71.3961V71.3962C88.8696 71.7049 87.5047 72.3689 86.3586 73.3297C84.6484 74.7907 83.3058 76.6334 82.4393 78.7091ZM88.0029 75.3437C88.8203 74.6514 89.7957 74.1712 90.8429 73.9457L90.5883 72.6709L90.8436 73.9455C91.1031 73.8916 91.3673 73.8635 91.6324 73.8617C92.0611 73.8507 92.485 73.9552 92.8595 74.1642C93.4295 74.5295 93.8597 75.0763 94.0805 75.7163C94.4224 76.6387 94.5871 77.6173 94.5661 78.6008C94.5381 80.9683 93.8877 83.2867 92.6804 85.3233C92.1034 86.304 91.3549 87.173 90.4705 87.8889C89.6351 88.5615 88.6477 89.0192 87.5945 89.222C87.2845 89.2819 86.9696 89.3131 86.6538 89.3153C86.1909 89.3281 85.7318 89.2283 85.3161 89.0244C84.7648 88.7193 84.3391 88.229 84.1143 87.6404C83.7842 86.8057 83.6259 85.913 83.6491 85.0158C83.7101 82.5597 84.4154 80.1627 85.6944 78.065C86.3056 77.0348 87.086 76.1148 88.0029 75.3437Z"/><path id="Vector_2" d="M128.872 73.8717C128.408 73.2448 127.797 72.7408 127.094 72.4035C126.331 72.0495 125.497 71.8723 124.656 71.8849C124.531 71.8849 124.404 71.8883 124.277 71.895L124.276 71.8952H124.276V71.8953C122.634 72.0032 121.051 72.5465 119.688 73.4693C117.648 74.874 115.985 76.76 114.847 78.9604C113.706 81.0031 113.072 83.29 112.999 85.6287C112.935 87.1632 113.413 88.6712 114.348 89.8893C114.853 90.4932 115.496 90.9666 116.222 91.2697C117.024 91.5946 117.883 91.7549 118.747 91.7411C118.859 91.7411 118.973 91.7389 119.088 91.7345C120.746 91.6594 122.353 91.141 123.742 90.2332C125.754 88.8778 127.374 87.015 128.436 84.8331C129.498 82.7975 130.077 80.5447 130.128 78.2493C130.19 76.6932 129.749 75.1585 128.872 73.8717ZM125.075 85.3756C124.341 86.429 123.413 87.3339 122.342 88.0424C121.342 88.7019 120.183 89.0798 118.987 89.1365L118.747 89.1411C118.23 89.1545 117.716 89.0639 117.234 88.8748C116.71 88.6596 116.283 88.2601 116.034 87.7516C115.724 87.0881 115.575 86.3607 115.599 85.6287C115.626 84.4088 115.863 83.2026 116.298 82.0627C117.006 80.1113 118.133 78.3387 119.6 76.8692C120.862 75.5183 122.573 74.6731 124.413 74.4917L124.345 73.1934L124.414 74.4915L124.656 74.4849C125.109 74.4726 125.558 74.5627 125.971 74.7486C126.477 74.9999 126.876 75.4247 127.095 75.9455C127.403 76.6735 127.551 77.4592 127.528 78.2493C127.434 80.8151 126.58 83.2951 125.075 85.3756H125.075Z"/><path id="Vector_3" d="M111.898 98.8862C112.004 98.7044 112.064 98.4997 112.073 98.2897C112.082 98.0796 112.04 97.8704 111.951 97.6801C111.862 97.4897 111.727 97.3239 111.56 97.1967C111.392 97.0696 111.197 96.9851 110.989 96.9503C108.195 96.5206 105.37 96.3176 102.543 96.3432C99.8175 96.3428 97.0935 96.4799 94.3816 96.754C94.0954 96.786 93.8279 96.9123 93.6213 97.1129C93.4146 97.3136 93.2805 97.5772 93.24 97.8624C93.2145 98.0641 93.2026 98.2673 93.2043 98.4707C93.1941 99.8124 93.641 101.118 94.4715 102.172C95.1139 102.949 95.9429 103.552 96.8813 103.922C98.1326 104.402 99.4658 104.632 100.805 104.599C103.85 104.647 106.82 103.655 109.225 101.788C110.279 100.985 111.184 100.003 111.898 98.8862ZM100.805 101.999C99.8053 102.031 98.8086 101.867 97.8709 101.518C97.1174 101.247 96.4973 100.696 96.1393 99.9796C96.0242 99.739 95.9397 99.485 95.8877 99.2233C97.282 99.1068 99.74 98.9431 102.543 98.9432C104.368 98.9428 106.337 99.0195 108.242 99.2132C107.936 99.4958 107.613 99.7595 107.274 100.003C105.387 101.342 103.12 102.042 100.805 101.999Z"/><path id="Vector_4" d="M90.579 128.531L90.5795 128.529L86.1957 127.07C86.178 127.064 86.1603 127.069 86.1425 127.064C86.1271 127.059 86.113 127.052 86.0975 127.048C85.5159 126.879 84.9132 126.794 84.3076 126.795C82.3349 126.857 80.4501 127.625 78.9956 128.959C77.3447 130.427 76.0801 132.279 75.313 134.35C75.2518 134.51 75.2226 134.68 75.227 134.85C75.2314 135.021 75.2695 135.189 75.3389 135.345C75.4083 135.501 75.5078 135.642 75.6316 135.759C75.7554 135.877 75.9012 135.969 76.0605 136.03C76.2199 136.091 76.3898 136.12 76.5604 136.116C76.7311 136.112 76.8992 136.074 77.0552 136.004C77.2112 135.935 77.352 135.835 77.4695 135.711C77.587 135.588 77.679 135.442 77.7402 135.282L77.7401 135.282C78.3539 133.612 79.3672 132.118 80.6915 130.93C81.6756 130.004 82.9579 129.459 84.3076 129.395C84.6682 129.394 85.027 129.445 85.3733 129.545C86.4925 129.903 87.4245 130.689 87.9654 131.732C88.6852 133.079 89.0456 134.589 89.0121 136.115C89.0072 137.286 88.8373 138.451 88.5074 139.575C87.9752 141.515 86.945 143.283 85.5189 144.703C84.4836 145.797 83.0695 146.453 81.5659 146.538C81.2041 146.539 80.8441 146.488 80.4964 146.388C79.8472 146.197 79.2582 145.843 78.7864 145.358C78.6657 145.237 78.5225 145.141 78.3648 145.076C78.2071 145.01 78.0381 144.977 77.8674 144.976C77.6967 144.976 77.5276 145.01 77.3698 145.075C77.2121 145.14 77.0687 145.236 76.9479 145.357C76.8271 145.477 76.7312 145.62 76.6657 145.778C76.6003 145.936 76.5666 146.105 76.5664 146.275C76.5663 146.446 76.5998 146.615 76.665 146.773C76.7302 146.931 76.8259 147.074 76.9465 147.195C77.73 147.991 78.7045 148.574 79.777 148.886C79.9466 148.935 80.1194 148.961 80.2911 148.996C80.3171 149.007 80.3349 149.028 80.3619 149.037L84.1489 150.339L84.2108 150.358C84.7915 150.526 85.3929 150.611 85.9973 150.61C88.1709 150.528 90.2295 149.613 91.7469 148.054C93.5064 146.319 94.7793 144.152 95.4384 141.771C95.8347 140.413 96.0382 139.006 96.043 137.592C96.0778 135.609 95.5992 133.652 94.6537 131.91C93.7859 130.297 92.3246 129.085 90.579 128.531ZM92.9406 141.048C92.4085 142.988 91.3782 144.755 89.9522 146.173C88.9163 147.267 87.5015 147.924 85.9972 148.01C85.8285 148.009 85.6599 147.998 85.4927 147.975C86.1491 147.58 86.7598 147.113 87.3137 146.584C89.0727 144.848 90.3454 142.68 91.0046 140.298C91.4026 138.939 91.6071 137.531 91.6119 136.115C91.6243 134.497 91.307 132.893 90.6794 131.401C91.3994 131.84 91.9914 132.46 92.3962 133.2C93.1161 134.55 93.4765 136.062 93.4428 137.592C93.4381 138.762 93.269 139.925 92.9406 141.048Z"/><path id="Vector_5" d="M156.229 171.428L156.029 171.538C155.729 171.706 155.508 171.985 155.413 172.315C155.319 172.646 155.359 173 155.525 173.3C155.691 173.601 155.969 173.824 156.298 173.921C156.628 174.017 156.982 173.979 157.284 173.815L157.484 173.705C157.784 173.537 158.005 173.258 158.1 172.928C158.194 172.598 158.154 172.243 157.988 171.943C157.823 171.642 157.544 171.419 157.215 171.322C156.885 171.226 156.531 171.264 156.229 171.428Z"/><path id="Vector_6" d="M161.739 168.074C161.605 167.968 161.451 167.89 161.286 167.844C161.122 167.799 160.95 167.786 160.781 167.806C160.611 167.827 160.447 167.88 160.299 167.964C160.15 168.048 160.019 168.16 159.914 168.295L159.914 168.294C159.762 168.488 159.587 168.689 159.414 168.872C159.296 168.995 159.203 169.141 159.142 169.301C159.08 169.46 159.051 169.63 159.055 169.801C159.059 169.972 159.097 170.141 159.167 170.297C159.236 170.453 159.336 170.594 159.46 170.712C159.584 170.83 159.73 170.922 159.89 170.983C160.049 171.044 160.219 171.073 160.39 171.068C160.561 171.064 160.73 171.025 160.886 170.956C161.042 170.886 161.183 170.786 161.3 170.661C161.525 170.424 161.75 170.166 161.96 169.899C162.173 169.627 162.269 169.283 162.227 168.94C162.186 168.598 162.01 168.286 161.739 168.074Z"/><path id="Vector_7" d="M135.633 143.107C134.839 142.41 133.817 142.025 132.76 142.025C131.99 142.042 131.235 142.239 130.555 142.599C129.874 142.959 129.287 143.473 128.84 144.1C128.736 144.236 128.661 144.391 128.617 144.556C128.574 144.721 128.563 144.893 128.586 145.062C128.609 145.231 128.665 145.395 128.751 145.542C128.837 145.69 128.951 145.819 129.087 145.922C129.223 146.026 129.378 146.101 129.543 146.145C129.708 146.188 129.88 146.199 130.049 146.176C130.218 146.153 130.381 146.097 130.529 146.011C130.676 145.925 130.805 145.811 130.909 145.675C131.113 145.367 131.387 145.111 131.709 144.929C132.03 144.746 132.391 144.642 132.76 144.625C133.188 144.624 133.601 144.781 133.922 145.065C134.323 145.436 134.583 145.935 134.659 146.477C134.72 146.816 134.913 147.118 135.195 147.315C135.478 147.512 135.828 147.589 136.167 147.528C136.507 147.467 136.808 147.274 137.005 146.991C137.202 146.709 137.279 146.359 137.219 146.02L137.218 146.019C137.038 144.896 136.479 143.868 135.633 143.107Z"/><path id="Vector_8" d="M113.176 142.687C113.518 142.646 113.83 142.47 114.043 142.199C114.256 141.927 114.352 141.583 114.311 141.24L114.31 141.24C114.213 140.195 113.782 139.208 113.081 138.427C112.752 138.072 112.354 137.788 111.911 137.593C111.468 137.399 110.989 137.298 110.505 137.296C109.789 137.302 109.089 137.508 108.484 137.89C107.825 138.308 107.264 138.865 106.841 139.521C106.746 139.664 106.68 139.823 106.647 139.991C106.614 140.158 106.614 140.331 106.647 140.498C106.681 140.666 106.747 140.825 106.842 140.967C106.937 141.109 107.059 141.231 107.201 141.326C107.344 141.42 107.503 141.486 107.671 141.519C107.838 141.552 108.011 141.552 108.179 141.518C108.346 141.485 108.505 141.418 108.647 141.323C108.789 141.228 108.911 141.105 109.005 140.963C109.22 140.62 109.506 140.328 109.844 140.106C110.041 139.975 110.27 139.903 110.505 139.896C110.636 139.897 110.765 139.926 110.883 139.98C111.002 140.035 111.107 140.115 111.193 140.214C111.509 140.592 111.697 141.061 111.729 141.553C111.75 141.722 111.803 141.886 111.887 142.035C111.971 142.183 112.083 142.314 112.218 142.419C112.352 142.525 112.506 142.603 112.67 142.649C112.834 142.695 113.006 142.708 113.176 142.687Z"/><path id="Vector_9" d="M125.484 144.669C124.141 143.865 122.663 143.311 121.122 143.035C120.071 142.798 118.999 142.672 117.922 142.657C117.068 142.643 116.216 142.771 115.403 143.034C114.361 143.375 113.457 144.045 112.827 144.943C112.28 145.764 111.905 146.688 111.725 147.659C111.59 148.26 111.519 148.874 111.511 149.49C111.503 150.168 111.627 150.841 111.876 151.471C112.333 152.534 113.125 153.418 114.13 153.991C115.479 154.753 116.946 155.281 118.471 155.554C119.594 155.808 120.739 155.945 121.889 155.963C122.725 155.977 123.558 155.856 124.355 155.604C125.376 155.278 126.261 154.624 126.873 153.744C127.4 152.938 127.761 152.035 127.933 151.088L126.661 150.819L127.933 151.088C128.057 150.524 128.122 149.949 128.127 149.371C128.134 148.668 128.008 147.969 127.754 147.313C127.297 146.213 126.502 145.287 125.484 144.669ZM124.998 151.801C124.806 152.261 124.473 152.648 124.046 152.907C123.381 153.249 122.636 153.406 121.889 153.363C120.92 153.344 119.955 153.226 119.01 153.01C117.519 152.807 116.104 152.231 114.895 151.336C114.629 151.106 114.421 150.818 114.285 150.494C114.162 150.174 114.103 149.833 114.111 149.49C114.119 149.055 114.172 148.622 114.269 148.198C114.355 147.758 114.492 147.329 114.676 146.921C114.887 146.432 115.244 146.02 115.699 145.742C116.383 145.382 117.151 145.215 117.923 145.257C118.818 145.272 119.71 145.38 120.583 145.578C122.081 145.784 123.496 146.387 124.681 147.325C124.967 147.587 125.191 147.91 125.336 148.269C125.469 148.621 125.534 148.995 125.527 149.371C125.522 149.768 125.476 150.164 125.389 150.551C125.306 150.981 125.175 151.4 124.998 151.801Z"/><path id="Vector_10" d="M117.964 146.505C117.803 146.446 117.633 146.42 117.463 146.428C117.292 146.436 117.125 146.477 116.97 146.549C116.815 146.621 116.677 146.723 116.561 146.849C116.446 146.975 116.357 147.123 116.299 147.283L116.299 147.283C116.288 147.312 116.163 147.66 116.033 148.171C115.869 148.797 115.777 149.439 115.761 150.085C115.758 150.43 115.892 150.762 116.134 151.008C116.376 151.253 116.706 151.393 117.051 151.396C117.395 151.398 117.727 151.264 117.973 151.022C118.219 150.78 118.358 150.451 118.361 150.106C118.376 149.667 118.441 149.231 118.555 148.807C118.604 148.611 118.654 148.444 118.69 148.33L118.732 148.202L118.742 148.173L118.744 148.168L118.743 148.168C118.86 147.844 118.844 147.487 118.698 147.175C118.551 146.863 118.288 146.622 117.964 146.505Z"/><path id="Vector_11" d="M122.586 147.471C122.418 147.444 122.245 147.451 122.079 147.491C121.913 147.53 121.757 147.602 121.618 147.702C121.48 147.803 121.363 147.929 121.274 148.074C121.184 148.22 121.124 148.381 121.098 148.55L121.097 148.55L121.089 148.599C120.969 149.324 120.812 150.043 120.619 150.752C120.57 150.917 120.555 151.089 120.573 151.259C120.591 151.43 120.643 151.595 120.725 151.745C120.808 151.895 120.919 152.028 121.053 152.135C121.186 152.242 121.34 152.322 121.505 152.369C121.669 152.417 121.842 152.431 122.012 152.412C122.182 152.393 122.347 152.34 122.497 152.257C122.647 152.174 122.778 152.062 122.885 151.927C122.991 151.793 123.07 151.639 123.117 151.474C123.343 150.646 123.526 149.807 123.665 148.96C123.719 148.619 123.636 148.271 123.434 147.992C123.231 147.713 122.927 147.526 122.586 147.471Z"/><path id="Vector_12" d="M143.633 13.309L143.635 13.308L143.636 13.307L143.633 13.309Z"/><path id="Vector_13" d="M18.1367 25.487V25.486L18.1357 25.483L18.1367 25.487Z"/><path id="Vector_14" d="M98.5861 123.181H98.5831L98.5791 123.182L98.5861 123.181Z"/><path id="Vector_15" d="M100.602 122.662L100.597 122.663L100.592 122.665L100.602 122.662Z"/><path id="Vector_16" d="M86.0364 123.177L86.0294 123.175L86.0244 123.174L86.0364 123.177Z"/><path id="Vector_17" d="M128.844 101.432C132.314 99.1727 135.257 96.1929 137.473 92.6951C139.49 89.4213 140.937 85.8297 141.755 82.0727L140.488 81.7803L141.755 82.0725C142.332 79.6927 142.639 77.2552 142.669 74.8064C142.727 71.9345 142.096 69.0905 140.831 66.5117C139.796 64.5092 138.352 62.7465 136.592 61.3379C133.147 58.7335 129.161 56.9364 124.928 56.0794C118.644 54.7243 112.224 54.1008 105.796 54.2215C89.173 54.2237 78.0441 57.1773 70.5665 62.1292C67.1051 64.3891 64.1727 67.3701 61.97 70.8682C59.9654 74.1445 58.5256 77.7343 57.7107 81.4878C57.1385 83.8474 56.8351 86.2641 56.8063 88.6919C56.7493 91.5722 57.3825 94.4242 58.6529 97.0098C59.6906 99.0171 61.1377 100.785 62.9007 102.198C66.3457 104.808 70.333 106.611 74.5681 107.474C80.842 108.834 87.2525 109.459 93.6708 109.339C110.222 109.337 121.35 106.383 128.844 101.432ZM66.3077 101.446C64.0463 100.098 62.1992 98.1541 60.9683 95.8268C59.8852 93.6074 59.3495 91.1608 59.4063 88.6919C59.4354 86.4611 59.7164 84.2407 60.244 82.0729C60.994 78.6018 62.3219 75.2814 64.1723 72.2504C66.9939 67.7658 71.2426 63.9571 77.8803 61.2077C84.5156 58.464 93.5529 56.8202 105.796 56.8214C119.403 56.8134 128.083 58.8714 133.19 62.0956C135.446 63.4368 137.288 65.374 138.515 67.6942C139.593 69.9069 140.126 72.3456 140.069 74.8064C140.039 77.0583 139.754 79.2996 139.221 81.4878C138.47 84.9603 137.135 88.2804 135.275 91.3073C132.437 95.7923 128.165 99.6032 121.522 102.353C114.882 105.097 105.858 106.74 93.6708 106.739C80.0977 106.747 71.4214 104.682 66.3077 101.446Z"/><path id="Vector_18" d="M91.3038 60.8429C87.1337 61.4283 83.0503 62.5186 79.1435 64.09C78.8256 64.2228 78.5734 64.4765 78.4424 64.7951C78.3114 65.1138 78.3122 65.4714 78.4447 65.7895C78.5772 66.1075 78.8306 66.36 79.1491 66.4914C79.4676 66.6227 79.8253 66.6223 80.1435 66.4901L80.1434 66.49C83.8554 65.0001 87.7348 63.9669 91.6961 63.413C92.0369 63.3609 92.3431 63.1757 92.5473 62.8979C92.7515 62.6201 92.837 62.2726 92.785 61.9318C92.7329 61.591 92.5477 61.2848 92.2699 61.0806C91.9921 60.8764 91.6446 60.7909 91.3038 60.8429V60.8429Z"/><path id="Vector_19" d="M73.1329 67.3157C72.1591 67.9804 71.2288 68.7067 70.3477 69.4901C70.0906 69.7196 69.935 70.0417 69.9152 70.3858C69.8955 70.7299 70.0131 71.0677 70.2424 71.3251C70.4716 71.5824 70.7937 71.7382 71.1377 71.7582C71.4818 71.7783 71.8197 71.6608 72.0772 71.4318L72.0771 71.4317C72.8754 70.7218 73.7183 70.0638 74.6007 69.4617C74.7429 69.3659 74.8648 69.2428 74.9592 69.0997C75.0537 68.9566 75.119 68.7962 75.1512 68.6278C75.1834 68.4594 75.182 68.2862 75.147 68.1183C75.112 67.9504 75.0442 67.7911 74.9474 67.6496C74.8506 67.508 74.7267 67.3871 74.5829 67.2936C74.4391 67.2001 74.2783 67.136 74.1096 67.105C73.941 67.0739 73.7678 67.0766 73.6002 67.1127C73.4326 67.1489 73.2738 67.2179 73.1329 67.3157V67.3157Z"/><path id="Vector_20" d="M22.2783 20.124L22.2793 20.123H22.2803L22.2783 20.124Z"/><path id="Vector_21" d="M80.8369 132.915L80.8389 132.916L80.8419 132.917L80.8369 132.915Z"/><path id="Vector_22" d="M179.831 147.494C179.754 147.158 179.546 146.866 179.254 146.683C178.962 146.5 178.609 146.44 178.273 146.517L178.273 146.517C177.847 146.616 177.412 146.668 176.975 146.669C176.815 146.664 176.655 146.651 176.496 146.63C176.87 145.837 177.075 144.975 177.099 144.098C177.1 143.843 177.078 143.588 177.033 143.336C176.908 142.557 176.513 141.846 175.917 141.329C175.369 140.874 174.678 140.627 173.966 140.631C173.104 140.635 172.276 140.971 171.655 141.569C171.317 141.9 171.049 142.297 170.868 142.735C170.687 143.173 170.598 143.643 170.605 144.117C170.603 144.932 170.849 145.728 171.31 146.401C171.644 146.903 172.055 147.351 172.526 147.727C172.457 147.788 172.392 147.857 172.32 147.914C171.57 148.545 170.627 148.902 169.646 148.926C169.376 148.923 169.107 148.891 168.843 148.831C168.956 147.696 169.027 146.571 169.027 145.463C169.164 141.652 168.094 137.896 165.971 134.729C163.769 131.597 160.225 128.989 154.975 126.993C154.991 126.762 155.016 126.531 155.017 126.302C155.035 125.589 154.913 124.878 154.658 124.211C154.513 123.855 154.305 123.528 154.044 123.245C153.76 122.942 153.413 122.705 153.027 122.551C152.256 122.258 151.437 122.115 150.612 122.128C149.421 122.142 148.24 122.356 147.12 122.761C146.202 123.083 145.333 123.533 144.539 124.096C140.38 123.122 135.364 122.043 131.867 121.606C131.257 121.531 130.641 121.459 130.022 121.39C129.332 120.509 128.594 119.668 127.809 118.871C127.14 118.179 126.409 117.551 125.625 116.993C125.236 116.72 124.819 116.487 124.383 116.298C123.93 116.099 123.442 115.992 122.947 115.982C122.715 115.982 122.482 116.011 122.257 116.069C121.784 116.198 121.344 116.424 120.963 116.733C120.358 117.239 119.85 117.851 119.464 118.539C118.938 119.46 118.507 120.432 118.178 121.44C117.989 121.998 117.868 122.434 117.802 122.682C117.639 122.781 117.481 122.89 117.325 123C117.168 122.67 117.008 122.356 116.838 122.073C116.451 121.342 115.859 120.74 115.133 120.342C114.514 120.067 113.869 119.854 113.207 119.704C110.055 119.042 106.858 118.611 103.642 118.415L103.625 118.412C103.366 118.367 102.612 118.242 101.496 118.092V115.014C107.877 114.616 114.19 113.481 120.309 111.632C131.839 107.987 139.5 101.728 144.164 93.6757C145.306 91.697 146.279 89.6254 147.072 87.483C147.311 87.5463 147.558 87.58 147.806 87.5835C148.741 87.5481 149.634 87.183 150.327 86.5527C151.505 85.4639 152.44 84.138 153.07 82.6621C153.92 80.7944 154.544 78.8322 154.93 76.8169C155.301 74.9857 155.492 73.1227 155.501 71.2544C155.519 69.7247 155.34 68.1992 154.966 66.7157C155.142 66.4549 155.266 66.1626 155.332 65.8549L155.333 65.8467C155.354 65.7334 155.361 65.6581 155.37 65.5658C155.396 65.2584 155.413 64.8074 155.428 64.167C155.441 63.5305 155.449 62.7212 155.449 61.7633C155.449 56.7939 155.237 47.819 154.465 38.7579C154.078 34.2271 153.551 29.6763 152.836 25.5848C152.294 22.004 151.356 18.4945 150.039 15.1208L150.037 15.1152C149.65 14.3058 148.988 13.6601 148.169 13.2933C147.417 12.9313 146.593 12.7419 145.759 12.7391C145.011 12.7195 144.273 12.9172 143.635 13.3082C143.125 13.6543 142.654 14.0531 142.229 14.4981C139.943 16.9456 138.398 19.9911 137.773 23.2812C137.604 24.1998 137.486 25.127 137.42 26.0587C137.391 26.3998 137.363 26.7657 137.337 27.1441C135.315 25.1855 133.091 23.4475 130.702 21.9597C121.652 16.3038 109.03 13.0775 91.7365 13.0768C75.9675 13.0776 64.089 15.7598 55.2542 20.521C48.2009 24.2139 42.4517 29.9838 38.7841 37.0503L38.7709 37.0047C37.4946 32.5314 35.9656 28.134 34.1913 23.8337C32.5272 19.9512 30.7943 16.7769 28.8192 14.7872C28.4017 14.3732 27.9058 14.0467 27.3605 13.8268C26.8152 13.6069 26.2315 13.4981 25.6436 13.5067C24.6834 13.5157 23.7405 13.7622 22.8988 14.2244C22.512 14.4326 22.1536 14.6899 21.8325 14.9897C21.5064 15.2893 21.2432 15.6506 21.0581 16.0529C20.7864 16.6693 20.0626 18.2435 19.4065 19.9595C19.0775 20.8205 18.7633 21.7202 18.5247 22.5809C18.2817 23.3788 18.1435 24.2049 18.1133 25.0385C18.1129 25.1878 18.1207 25.3371 18.1369 25.4856C18.1598 25.6882 18.2028 25.9525 18.2711 26.3541C18.351 26.8203 18.4681 27.4683 18.61 28.238C18.5568 28.5431 18.615 28.8572 18.7741 29.1229C19.5807 33.4459 21.0374 40.9448 22.4549 48.203C23.3563 52.8186 24.2398 57.325 24.9245 60.8243C25.6083 64.3195 26.0967 66.8261 26.1984 67.3894C26.314 68.0978 26.5842 68.772 26.9898 69.3643C27.365 69.8991 27.8714 70.3284 28.4603 70.6111C28.2702 71.9024 28.1715 73.2055 28.1648 74.5106C28.0494 77.6817 28.8944 80.8137 30.5891 83.4963C30.6643 83.6087 30.7435 83.7087 30.8206 83.8161C31.1892 84.5143 31.6596 85.1537 32.2163 85.7135C32.5537 86.0466 32.9421 86.3236 33.367 86.534C33.4357 86.5674 33.5136 86.5837 33.5851 86.6125C34.0003 86.9189 34.4313 87.2033 34.8764 87.4645C35.4981 87.8289 36.1387 88.1601 36.7955 88.4568C40.0866 96.8944 46.3467 103.839 54.3988 107.985C61.7567 111.91 71.2968 114.38 83.5263 115.13V117.766C82.9267 117.851 82.3328 117.947 81.7516 118.06C79.3104 118.193 77.1044 118.394 75.2781 118.68C74.4493 118.804 73.6278 118.973 72.8171 119.185C72.1643 119.348 71.5342 119.591 70.941 119.908C69.6039 120.711 68.4231 121.749 67.4556 122.972C66.6925 122.747 65.901 122.633 65.1054 122.633C63.3673 122.668 61.6605 123.102 60.1166 123.901C57.1277 125.502 54.4997 127.7 52.3959 130.359C49.4021 134.045 46.8758 138.087 44.8748 142.393C43.6598 144.799 43.0078 147.45 42.968 150.145C42.968 150.592 42.9944 151.021 43.0321 151.441C42.1621 152.873 41.7087 154.52 41.7228 156.195C41.7236 156.675 41.7547 157.154 41.8158 157.63C41.9547 158.861 42.2873 160.062 42.8013 161.19C43.4909 162.668 44.5964 163.912 45.9824 164.772C47.4024 165.614 48.9589 166.201 50.5814 166.507C51.6337 166.722 52.7058 166.826 53.7799 166.816C56.288 166.774 58.7806 166.414 61.1981 165.745C61.2513 171.105 61.5284 176.278 62.0038 180.63C62.2673 183.039 62.5904 185.197 62.9748 187.01C63.2491 188.523 63.7155 189.993 64.3625 191.387C64.4414 191.539 64.5492 191.673 64.68 191.783C64.8108 191.893 64.9619 191.976 65.1247 192.027C65.2875 192.078 65.4589 192.097 65.629 192.082C65.799 192.067 65.9645 192.019 66.116 191.94C66.2674 191.862 66.4018 191.754 66.5116 191.623C66.6213 191.492 66.7042 191.341 66.7556 191.178C66.8069 191.015 66.8257 190.844 66.8108 190.674C66.796 190.504 66.7478 190.338 66.6689 190.187L66.6688 190.187C66.1339 189 65.7475 187.752 65.5183 186.471C65.0666 184.219 64.7324 181.946 64.517 179.659C64.8181 179.743 65.131 179.823 65.4432 179.903C65.4576 179.906 65.4681 179.917 65.4828 179.92C65.5118 179.927 65.5398 179.929 65.5688 179.935C68.9549 180.743 72.3946 181.307 75.8614 181.621C80.6362 182.099 85.8483 182.307 91.0094 182.308C97.7256 182.325 104.437 181.963 111.113 181.224C113.557 180.957 115.986 180.56 118.388 180.035C119.243 179.844 120.085 179.602 120.911 179.311C120.8 183.476 120.55 187.327 120.136 190.604C120.093 190.946 120.187 191.291 120.399 191.564C120.61 191.836 120.921 192.013 121.263 192.056C121.605 192.1 121.95 192.005 122.223 191.794C122.495 191.582 122.673 191.271 122.716 190.929C123.341 185.36 123.63 179.758 123.58 174.153C123.58 173.857 123.576 173.555 123.575 173.258C124.921 173.557 126.556 173.889 128.313 174.221C128.213 174.766 128.157 175.318 128.147 175.873C128.139 176.261 128.191 176.649 128.301 177.022C128.505 177.586 128.877 178.074 129.367 178.42C130.061 178.92 130.834 179.296 131.655 179.533C132.499 179.8 133.377 179.941 134.262 179.954C134.655 179.957 135.047 179.916 135.431 179.832C135.838 179.746 136.225 179.581 136.569 179.346C136.73 179.23 136.878 179.096 137.01 178.947C137.223 178.705 137.419 178.448 137.596 178.179C138.049 177.507 138.517 176.68 138.901 175.983C139.769 176.096 140.552 176.185 141.214 176.242C142.117 176.323 142.981 176.37 143.826 176.401C143.825 176.459 143.827 176.518 143.834 176.575C143.991 177.213 144.205 178.063 144.442 178.843C144.561 179.235 144.684 179.608 144.82 179.946C144.888 180.116 144.958 180.277 145.04 180.436C145.129 180.613 145.238 180.78 145.363 180.933C145.776 181.394 146.316 181.721 146.916 181.874C147.47 182.023 148.041 182.095 148.615 182.087C149.62 182.082 150.619 181.922 151.576 181.613C152.026 181.471 152.458 181.279 152.866 181.042C153.297 180.8 153.662 180.458 153.932 180.045C154.131 179.701 154.276 179.328 154.361 178.94C154.41 178.981 154.452 179.026 154.503 179.065C154.666 179.187 154.842 179.29 155.029 179.37C155.263 179.472 155.516 179.525 155.772 179.527L155.82 179.526C156.055 179.516 156.288 179.475 156.512 179.403C157.255 179.148 157.957 178.786 158.596 178.33C158.927 178.105 159.235 177.847 159.514 177.56C159.631 177.434 159.737 177.3 159.832 177.157C160.296 177.123 160.75 177.001 161.169 176.797C161.841 176.468 162.434 176 162.909 175.423C163.15 175.134 163.351 174.814 163.508 174.472C163.68 174.099 163.772 173.694 163.777 173.283L163.777 173.269C163.85 173.255 163.921 173.235 163.991 173.21C164.181 173.137 164.351 173.022 164.49 172.873L164.568 172.781C164.871 172.377 165.142 171.95 165.38 171.504C165.892 170.621 166.184 169.627 166.231 168.607C166.238 168.039 166.1 167.478 165.83 166.977L165.828 166.975C165.642 166.64 165.248 165.98 164.774 165.286C166.064 162.345 167.024 159.27 167.638 156.117C167.971 154.537 168.273 152.971 168.512 151.421C168.886 151.49 169.266 151.525 169.647 151.526C170.703 151.521 171.743 151.261 172.678 150.768C173.534 150.311 174.303 149.707 174.948 148.982C175.607 149.172 176.289 149.269 176.975 149.269C177.608 149.268 178.238 149.195 178.854 149.051C179.19 148.974 179.482 148.767 179.665 148.475C179.848 148.183 179.908 147.83 179.831 147.494ZM121.229 120.774C121.472 120.217 121.781 119.692 122.149 119.208C122.281 119.039 122.433 118.885 122.602 118.752C122.694 118.677 122.8 118.62 122.914 118.585L122.947 118.582C123.097 118.594 123.243 118.632 123.379 118.697C123.904 118.945 124.391 119.266 124.827 119.65C125.361 120.103 125.868 120.587 126.344 121.101C125.91 121.083 125.476 121.065 125.047 121.065C123.667 121.049 122.289 121.183 120.937 121.464C121.027 121.236 121.123 121.004 121.229 120.774ZM142.496 150.787L141.224 150.518C140.329 154.795 139.25 158.451 137.309 160.897C136.342 162.147 135.075 163.131 133.625 163.76C131.728 164.528 129.692 164.894 127.647 164.833C125.864 164.817 124.086 164.653 122.331 164.345L122.321 164.343C121.649 164.236 120.953 164.11 120.241 163.956L120.236 163.955C114.475 162.735 110.85 160.989 108.703 158.976L108.699 158.973C107.584 157.963 106.726 156.7 106.199 155.291C105.694 153.856 105.451 152.342 105.482 150.821C105.56 148.245 105.9 145.684 106.497 143.177C107.301 139.339 108.33 135.926 110.022 133.426C110.829 132.196 111.879 131.144 113.108 130.335C114.506 129.455 116.075 128.881 117.71 128.651L117.716 128.65C118.714 128.492 119.723 128.415 120.734 128.42C123.04 128.452 125.336 128.723 127.586 129.229C133.588 130.495 137.218 132.451 139.323 134.749C140.325 135.832 141.079 137.12 141.533 138.524C141.986 139.984 142.205 141.507 142.18 143.036C142.118 145.556 141.798 148.063 141.224 150.518L142.496 150.787ZM114.214 172.795L114.207 172.8C114.137 172.839 114.061 172.866 113.983 172.88C113.789 172.92 113.591 172.939 113.393 172.936C112.556 172.913 111.731 172.738 110.958 172.417C110.646 172.295 110.351 172.134 110.08 171.939C110.015 171.891 109.956 171.837 109.903 171.777C109.883 171.671 109.875 171.563 109.878 171.456C109.932 170.533 110.086 169.618 110.338 168.728C110.396 168.502 110.454 168.289 110.508 168.093C111.302 168.684 112.143 169.207 113.023 169.657C113.797 170.057 114.655 170.429 115.552 170.791C115.302 171.239 115.043 171.685 114.8 172.048C114.675 172.239 114.54 172.424 114.396 172.601L114.254 172.757L114.214 172.795ZM152.38 76.3083C151.966 78.608 151.17 80.8221 150.025 82.8589C149.662 83.4945 149.201 84.0682 148.658 84.5586C148.45 84.7536 148.197 84.8949 147.921 84.9702C149.538 79.4471 150.403 73.7309 150.492 67.9766C150.94 68.1264 151.409 68.203 151.882 68.2034C152.133 68.2003 152.383 68.1769 152.63 68.1335C152.818 69.1632 152.908 70.2081 152.901 71.2546C152.892 72.952 152.717 74.6446 152.38 76.3083ZM140.319 23.8119C140.733 21.7318 141.552 19.7535 142.73 17.9892C143.131 17.3936 143.584 16.8348 144.084 16.3193C144.379 16.0091 144.704 15.7298 145.055 15.4857L145.058 15.4837C145.275 15.3749 145.517 15.3251 145.759 15.3392C146.199 15.3429 146.633 15.4425 147.031 15.6309C147.29 15.7334 147.51 15.9181 147.654 16.1569C148.887 19.3428 149.766 22.6548 150.275 26.0329C152.37 37.9906 152.851 54.4178 152.849 61.7634C152.849 62.8414 152.839 63.7245 152.822 64.3628C152.814 64.6815 152.804 64.9397 152.794 65.1236C152.789 65.2143 152.784 65.2863 152.78 65.334L152.744 65.3687C152.487 65.5328 152.186 65.6147 151.882 65.6034C151.619 65.6072 151.359 65.5492 151.122 65.4341C150.942 65.3477 150.798 65.2024 150.712 65.0224L150.701 65.0002C150.662 64.9221 150.603 64.8114 150.529 64.6843C150.595 58.0532 149.718 51.4464 147.924 45.0622C146.317 39.4456 143.545 34.2304 139.789 29.7558C139.853 28.4409 139.927 27.26 140.01 26.2798C140.069 25.4522 140.172 24.6284 140.319 23.8119ZM23.4375 17.1008C23.4856 17.0162 23.5477 16.9404 23.6212 16.8767C23.8768 16.6478 24.1716 16.4669 24.4915 16.3429C24.8572 16.1922 25.2481 16.1121 25.6436 16.1067C25.8902 16.0971 26.1362 16.1382 26.3663 16.2276C26.5964 16.317 26.8057 16.4526 26.9812 16.6262C28.5134 18.1405 30.2166 21.1191 31.7996 24.8533C34.3995 31.3254 36.5402 37.9728 38.2058 44.7458C40.0073 51.7143 41.4017 58.3438 42.1834 62.6064C42.2298 62.8591 42.2688 63.0989 42.3128 63.3472C42.2713 63.4406 42.2414 63.5388 42.2238 63.6395L42.2201 63.7107L42.1344 63.805C41.9711 63.9364 41.785 64.0365 41.5853 64.1003C41.3336 64.1865 41.0696 64.2312 40.8036 64.2325C40.5897 64.2365 40.3771 64.1989 40.1775 64.1218C40.038 64.0684 39.9162 63.9773 39.8254 63.8586C39.635 63.6134 39.4268 63.3826 39.2024 63.168C38.6745 62.6491 38.0838 62.1982 37.4441 61.8257C36.6272 61.3332 35.696 61.0622 34.7424 61.0397C33.632 61.0476 32.5659 61.4757 31.7582 62.2377C31.6913 62.3089 31.633 62.3878 31.5844 62.4727C31.3173 62.6894 31.074 62.9338 30.8586 63.2019C29.9841 64.4216 29.379 65.8132 29.0834 67.2846C29.0539 67.4086 29.0328 67.5437 29.0054 67.6706C28.8862 67.4363 28.8024 67.1857 28.7569 66.9268C28.693 66.574 28.5038 65.5929 28.2276 64.1736C28.3696 64.0539 28.4839 63.9047 28.5626 63.7365L28.5625 63.7364L32.9461 54.1396L32.9437 54.1385C33.8201 52.4277 34.2752 50.5323 34.2712 48.6101C34.2732 47.6196 34.1498 46.6328 33.904 45.6732C32.6409 40.7842 31.2485 36.1212 30.0163 32.3296C28.7807 28.5314 27.7197 25.6334 27.0689 24.1721C26.6322 23.1349 26.1288 22.1272 25.5617 21.1551C25.3613 20.8199 25.1158 20.5137 24.8322 20.2451C24.4979 19.9296 24.0658 19.7377 23.6075 19.7014L23.4984 19.6979C23.2457 19.699 22.9957 19.7506 22.7633 19.8496C22.5924 19.9229 22.4301 20.0147 22.2791 20.1233C22.1973 20.1816 22.1347 20.2495 22.0618 20.312C22.1436 20.1067 22.2255 19.8996 22.3068 19.7027C22.7793 18.5575 23.2207 17.5919 23.4375 17.1008ZM33.0563 82.4731C32.6528 81.7075 32.326 80.9037 32.0808 80.0737C31.6058 78.4582 31.3027 76.797 31.1766 75.1178L30.7858 75.1496L30.7857 75.1492L31.1765 75.1169C31.1134 74.3505 31.0836 73.5959 31.0836 72.8628C31.0429 70.7378 31.3486 68.6203 31.9888 66.5936C32.1942 65.9568 32.5004 65.3571 32.8958 64.8174C33.0604 64.5636 33.3051 64.3721 33.591 64.2733L33.5957 64.2722L33.6885 64.2621C33.7854 64.2651 33.8802 64.2904 33.9657 64.3361C34.3309 64.5466 34.6421 64.8391 34.8749 65.1904C35.5518 66.1886 36.0602 67.2912 36.3799 68.4541C36.8547 70.0694 37.1576 71.7304 37.2835 73.4093C37.3463 74.1776 37.3765 74.9338 37.3765 75.668C37.4172 77.7924 37.1116 79.9093 36.4715 81.9354C36.2661 82.572 35.9599 83.1714 35.5646 83.7109C35.4001 83.9639 35.1562 84.155 34.8712 84.2543L34.7929 84.2632C34.1406 83.7424 33.557 83.1409 33.0563 82.4731ZM38.2424 86.2622L38.2384 86.2607L38.2096 86.2502C37.8769 86.1164 37.536 85.9552 37.1952 85.7788C37.3394 85.6361 37.4751 85.4851 37.6016 85.3266C37.6256 85.2961 37.6444 85.2588 37.6679 85.2275C37.7316 85.153 37.7865 85.0713 37.8312 84.9841C38.5701 83.8424 39.0939 82.5752 39.3767 81.245C39.79 79.4152 39.9912 77.5438 39.9764 75.668C39.9764 74.8627 39.9434 74.0364 39.8749 73.1978C39.7073 70.7006 39.1494 68.2451 38.2213 65.9207C38.5058 66.1721 38.8294 66.3755 39.1793 66.5226C39.6951 66.7317 40.2471 66.8371 40.8036 66.8325C41.4958 66.8307 42.1801 66.685 42.8131 66.4048C43.3078 69.5698 43.573 72.7663 43.6066 75.9695C43.7236 78.9566 43.2592 81.9379 42.2394 84.748C42.0236 85.3613 41.6438 85.9037 41.1414 86.3163C40.8075 86.5569 40.4034 86.68 39.9921 86.6665C39.3889 86.6407 38.7958 86.5036 38.2424 86.2622V86.2622ZM23.2339 38.5972C22.5581 35.1093 21.948 31.9346 21.4965 29.5352C21.4117 29.0846 21.3346 28.6714 21.2616 28.2788C21.3173 28.0664 21.3903 27.7995 21.4771 27.4995C21.7891 26.4005 22.1629 25.32 22.5968 24.2631C22.7939 23.7831 23.0251 23.3178 23.2885 22.8708C23.3358 22.7909 23.3829 22.7206 23.4291 22.6543C23.5118 22.7914 23.6024 22.9489 23.704 23.1436C23.969 23.6466 24.2957 24.3383 24.695 25.2325C25.2648 26.5052 26.3302 29.3963 27.5436 33.1332C28.7604 36.8767 30.1394 41.495 31.3869 46.3241C31.5777 47.0711 31.6732 47.8392 31.6713 48.6101C31.6766 50.1344 31.3141 51.6375 30.6145 52.9918L30.5813 53.0595L27.4119 59.9977C27.3864 59.8668 27.3626 59.7454 27.3365 59.612C26.1998 53.8036 24.5855 45.5733 23.2339 38.5972L23.2339 38.5972ZM39.9738 89.2652L39.9921 89.2665C40.9522 89.2784 41.8908 88.9816 42.6694 88.4198C43.559 87.729 44.2402 86.8056 44.6377 85.7518C45.7937 82.6245 46.3267 79.3013 46.2065 75.9694C46.1309 71.3243 45.6403 66.6952 44.7406 62.1374C43.8252 57.1477 42.099 49.0415 39.8588 40.8481C43.1399 33.0872 49.0192 26.7098 56.4881 22.8096C64.8134 18.3186 76.2552 15.676 91.7364 15.6769C103.054 15.6764 112.219 17.0884 119.58 19.6035C130.621 23.3872 137.612 29.5876 141.955 37.4261C146.291 45.2671 147.938 54.8285 147.936 65.2266C148.055 71.6815 147.203 78.1176 145.409 84.3192C142.909 93.0176 137.12 100.4 129.269 104.902C120.775 109.874 108.656 112.779 91.7364 112.777C75.7376 112.779 64.0276 110.18 55.623 105.691C48.7002 102.142 43.184 96.3518 39.9738 89.2652ZM91.7365 115.377C94.225 115.377 96.5984 115.304 98.8964 115.182V119.236C98.9039 119.296 98.9158 119.355 98.932 119.413C98.9405 119.499 98.9577 119.585 98.9834 119.667C99.0133 119.744 99.0508 119.817 99.0951 119.885C99.1687 120.034 99.2803 120.16 99.4186 120.251C99.4335 120.262 99.4454 120.276 99.4607 120.287C99.027 120.416 98.567 120.534 98.0735 120.632L98.0664 120.633C96.3087 120.974 94.5215 121.14 92.7311 121.128C92.4529 121.128 92.172 121.124 91.8884 121.117L91.8922 121.117C90.1197 121.135 88.3498 120.975 86.6091 120.64L86.5967 120.638C86.227 120.553 85.8629 120.446 85.5065 120.317C85.6933 120.204 85.8483 120.046 85.9568 119.857C86.0653 119.668 86.1236 119.454 86.1263 119.236L86.1262 118.907V115.264C87.9407 115.337 89.8073 115.377 91.7365 115.377ZM79.1466 136.117C79.1155 136.138 79.0892 136.157 79.0499 136.181C78.3386 136.583 77.6043 136.944 76.8507 137.26C76.4578 137.432 76.0989 137.582 75.8397 137.689C75.7101 137.742 75.6053 137.784 75.5336 137.813L75.4252 137.857C75.4087 137.864 75.3984 137.878 75.3824 137.885C74.7443 137.707 73.9977 137.517 73.1789 137.341C73.0836 137.321 72.9835 137.303 72.8871 137.283C73.5741 137.051 74.2606 136.831 74.9231 136.63C76.1998 136.242 77.3934 135.919 78.3368 135.697C78.6949 135.613 79.0016 135.549 79.2744 135.496C79.2389 135.715 79.1926 135.941 79.1466 136.117ZM76.2495 143.186C76.1922 142.954 76.1051 142.731 75.9904 142.521C75.8499 142.264 75.6561 142.04 75.422 141.864C75.1684 141.685 74.8914 141.541 74.5988 141.437C74.0881 141.256 73.5643 141.114 73.0319 141.013C71.379 140.677 69.5165 140.52 69.4911 140.516C69.1476 140.487 68.8064 140.595 68.5425 140.816C68.2785 141.038 68.1136 141.356 68.0839 141.699C68.0542 142.043 68.1621 142.384 68.384 142.648C68.6059 142.912 68.9235 143.077 69.267 143.107L69.2669 143.107C69.2671 143.107 69.3254 143.112 69.4395 143.123C69.8379 143.161 70.8722 143.271 71.8788 143.442C72.3808 143.528 72.877 143.63 73.2628 143.737C73.4221 143.779 73.5791 143.83 73.7329 143.89L73.7428 143.894C73.7759 144.08 73.7906 144.27 73.7867 144.459C73.7697 145.127 73.6986 145.794 73.574 146.451C73.5172 146.774 73.458 147.068 73.4088 147.302C73.3588 147.54 73.3221 147.699 73.2981 147.82C73.2477 148.203 73.1145 148.571 72.9077 148.899C72.7995 148.854 72.6992 148.792 72.6107 148.715L72.4192 148.525L72.3832 148.476L72.3751 148.481C72.3678 148.466 72.3552 148.454 72.3473 148.439C72.3202 148.378 72.2941 148.308 72.2667 148.252L72.2695 148.258C72.1269 147.931 72.0573 147.578 72.0655 147.222C72.0659 147.025 72.082 146.829 72.1137 146.635L72.1443 146.476L72.1515 146.446L72.1518 146.444L72.1502 146.444C72.2399 146.112 72.1942 145.757 72.0231 145.459C71.8521 145.16 71.5696 144.942 71.2377 144.852C70.9058 144.761 70.5516 144.806 70.2527 144.976C69.9538 145.147 69.7348 145.429 69.6435 145.76L69.6434 145.76C69.5228 146.238 69.4631 146.729 69.4655 147.222C69.4562 147.965 69.6121 148.7 69.922 149.375L69.9248 149.381C70.1567 149.848 70.2758 150.363 70.2726 150.884C70.2629 151.448 70.1595 152.006 69.9666 152.535C69.6158 153.321 69.0442 153.988 68.3214 154.454C67.4858 155.056 66.5551 155.513 65.5681 155.807L65.5529 155.811C65.5079 155.825 65.4724 155.829 65.4284 155.841C65.2114 155.903 64.9904 155.949 64.7669 155.981C64.6422 156.001 64.5164 156.013 64.3902 156.017L64.3414 156.017C63.388 156.051 62.4584 155.714 61.7489 155.077C61.4688 154.792 61.2494 154.453 61.104 154.081C60.9587 153.709 60.8904 153.312 60.9033 152.912C60.9033 152.871 60.9063 152.832 60.9076 152.791C60.9091 152.741 60.9094 152.69 60.913 152.638C60.9985 151.842 61.1807 151.059 61.4556 150.307C61.5599 149.998 61.6773 149.678 61.8064 149.351L61.8086 149.345C62.6385 147.278 63.6264 145.277 64.7636 143.362C65.3035 142.442 65.8322 141.61 66.29 140.948C66.6046 140.472 66.9562 140.021 67.3414 139.6L67.3424 139.599L67.4274 139.554C67.8546 139.416 68.3032 139.356 68.7515 139.378C70.2501 139.433 71.7388 139.644 73.1935 140.008C73.9249 140.177 74.594 140.357 75.1148 140.51C75.3749 140.587 75.5983 140.657 75.7701 140.714C75.8754 140.749 75.9527 140.777 76.0105 140.799L76.0116 140.8C76.1769 141.018 76.3154 141.256 76.4242 141.507C76.6913 142.101 76.915 142.713 77.0938 143.34C77.2467 143.844 77.3694 144.357 77.4615 144.876L77.4636 144.896L77.4446 144.93C77.3522 145.045 77.239 145.142 77.1109 145.215C76.8611 145.364 76.5956 145.485 76.3193 145.576C76.3574 145.206 76.3854 144.83 76.3868 144.459C76.3937 144.031 76.3476 143.603 76.2495 143.186ZM56.7666 129.488C58.0937 128.184 59.6093 127.088 61.2627 126.235C62.4502 125.612 63.7647 125.269 65.1053 125.233C65.3579 125.234 65.6101 125.252 65.8605 125.285C65.4553 126.001 65.1063 126.747 64.8168 127.517C64.0539 127.979 63.4025 128.604 62.9089 129.347C62.4154 130.09 62.0918 130.932 61.9615 131.815C61.8311 132.697 61.8971 133.597 62.1547 134.451C62.4123 135.305 62.8552 136.091 63.4518 136.754C63.378 137.792 63.2447 138.825 63.0524 139.847L63.05 139.859C62.932 140.468 62.8242 141.092 62.7167 141.722C62.4481 142.172 62.1785 142.64 61.908 143.127C60.6622 143.163 59.423 143.321 58.2081 143.599C53.9221 144.573 49.9424 145.768 46.896 147.678C46.4677 147.948 46.0629 148.238 45.6737 148.54C45.9116 146.795 46.4328 145.1 47.2168 143.522C50.3119 137.094 53.6296 132.463 56.7666 129.488ZM51.1306 163.966C49.4243 163.7 47.8191 162.986 46.4789 161.897C45.921 161.384 45.47 160.766 45.1519 160.079C44.7552 159.199 44.4998 158.262 44.395 157.302C44.3478 156.935 44.3237 156.565 44.3228 156.195C44.301 154.929 44.6561 153.685 45.343 152.622C45.3568 152.601 45.3742 152.58 45.3882 152.559L45.3939 152.551C46.6866 150.841 48.4271 149.521 50.4231 148.738C53.1165 147.596 55.9168 146.724 58.7827 146.135C59.3593 146.004 59.9348 145.907 60.5043 145.836C60.1648 146.546 59.8523 147.257 59.5681 147.958C58.7942 148.411 58.1272 149.025 57.6128 149.759C57.0984 150.493 56.7488 151.33 56.5879 152.211C56.427 153.093 56.4586 153.999 56.6806 154.868C56.9025 155.736 57.3096 156.546 57.8739 157.243L57.8782 157.248C58.9099 158.516 60.3983 159.327 62.0226 159.507C63.6468 159.688 65.277 159.223 66.5617 158.213C67.7383 157.837 68.8484 157.278 69.8511 156.557C69.8791 156.536 69.9043 156.512 69.9322 156.491C69.6474 157.279 69.2441 158.019 68.7362 158.686C67.68 160.021 66.3138 161.077 64.7562 161.764C63.8911 162.154 63.0034 162.492 62.0978 162.776L62.0873 162.779C59.4044 163.666 56.6048 164.15 53.7799 164.216C52.8905 164.226 52.0025 164.142 51.1306 163.966L51.1306 163.966ZM76.1202 179.034C74.9002 178.912 73.7164 178.772 72.5687 178.613C74.0696 177.804 75.4908 176.857 77.0726 176.076C79.2111 174.965 81.5864 174.388 83.9962 174.393C85.9317 174.424 87.8493 174.769 89.6741 175.415C92.4934 176.349 95.3357 177.805 98.4266 179.061C98.81 179.216 99.1977 179.368 99.5897 179.516C96.8066 179.64 93.9147 179.708 91.0094 179.707C85.919 179.708 80.7835 179.501 76.1202 179.034L76.1202 179.034ZM120.041 176.862C118.567 177.352 117.056 177.72 115.522 177.962C114.104 178.214 112.481 178.445 110.708 178.653H110.708L110.708 178.653C110.044 178.725 109.377 178.761 108.71 178.761C104.248 178.764 100.384 177.133 96.4657 175.389C94.5092 174.521 92.5467 173.631 90.4941 172.948C88.405 172.213 86.2105 171.823 83.9963 171.793C80.4118 171.836 76.913 172.894 73.9051 174.844C72.6481 175.579 71.5363 176.277 70.4877 176.766C69.5365 177.252 68.4881 177.517 67.4204 177.542C66.9928 177.539 66.5666 177.491 66.1489 177.4C65.4904 177.233 64.8589 177.058 64.2666 176.873C63.9792 173.21 63.8142 169.12 63.791 164.938C64.5129 164.682 65.2075 164.414 65.8317 164.132L65.8375 164.129C67.7835 163.265 69.4885 161.937 70.8034 160.263C72.2877 158.31 73.076 155.917 73.0428 153.464C73.0415 152.906 73.0063 152.348 72.9375 151.794L72.9389 151.794L72.9365 151.779L72.9357 151.767L72.9345 151.767C72.9254 151.681 72.9061 151.597 72.8934 151.511C72.9179 151.512 72.9398 151.518 72.9648 151.518C73.321 151.518 73.673 151.44 73.9952 151.288C74.5069 151.033 74.9298 150.63 75.2085 150.131C75.5203 149.571 75.7362 148.962 75.8471 148.331C75.9341 148.341 76.0218 148.342 76.109 148.334C76.7146 148.209 77.304 148.016 77.8657 147.758C78.3761 147.53 78.8417 147.213 79.2407 146.822C79.4772 146.583 79.6719 146.307 79.8164 146.003C79.9792 145.657 80.0636 145.279 80.0637 144.897C80.0635 144.756 80.0525 144.615 80.0306 144.475C79.8422 143.429 79.5616 142.4 79.192 141.403C78.9914 140.839 78.743 140.294 78.4495 139.772C78.3905 139.672 78.327 139.575 78.262 139.478C78.3604 139.434 78.4588 139.39 78.5588 139.345C79.1142 139.09 79.6795 138.817 80.1603 138.544C80.3939 138.414 80.6186 138.269 80.833 138.11C80.949 138.022 81.0577 137.925 81.1578 137.82C81.3167 137.655 81.4395 137.459 81.5181 137.244L81.5192 137.241C81.7686 136.513 81.9055 135.751 81.9254 134.982C81.9312 134.652 81.8835 134.323 81.7841 134.009C81.7157 133.801 81.6132 133.605 81.4808 133.431C81.3117 133.21 81.0915 133.033 80.8391 132.916C80.6966 132.85 80.545 132.807 80.3895 132.788C80.2959 132.776 80.2016 132.77 80.1073 132.771C79.7636 132.78 79.4213 132.818 79.0839 132.884C77.0798 133.29 75.1016 133.815 73.1599 134.456C70.8211 135.174 68.5412 136.072 66.3406 137.141C66.274 137.184 66.2117 137.234 66.1546 137.29C66.1021 137.318 66.0503 137.349 65.9987 137.381C66.0292 137.043 66.0666 136.707 66.092 136.368L66.0921 136.367L66.0925 136.363L66.0923 136.364C66.1935 135.063 66.2682 133.767 66.3803 132.588C66.4565 131.563 66.6197 130.545 66.8683 129.548L66.8757 129.52C66.9265 129.32 67.0038 129.095 67.095 128.832L67.0973 128.825C67.5298 127.556 68.1524 126.359 68.9438 125.276L68.951 125.266C69.8163 124.016 70.933 122.96 72.2297 122.166C72.6329 121.96 73.0592 121.801 73.4996 121.694C75.9207 121.148 78.3862 120.821 80.866 120.718C81.9156 121.556 83.0943 122.217 84.356 122.677L84.3556 122.678L84.3729 122.684L84.3904 122.691L84.3907 122.69C84.924 122.892 85.4715 123.054 86.0288 123.175C87.9363 123.55 89.8769 123.732 91.8209 123.716L91.8247 123.716C92.128 123.724 92.4302 123.728 92.7312 123.728C94.6953 123.74 96.6557 123.557 98.5836 123.181C99.2644 123.049 99.9367 122.876 100.597 122.663C101.775 122.309 102.886 121.762 103.885 121.045C106.275 121.241 108.442 121.483 110.185 121.761C111.116 121.909 111.929 122.067 112.587 122.229C113.077 122.338 113.557 122.493 114.019 122.691C114.089 122.734 114.151 122.788 114.204 122.851C114.705 123.497 115.095 124.222 115.359 124.995C114.977 125.564 114.662 126.176 114.422 126.819C113.464 127.157 112.549 127.605 111.694 128.153C109.421 129.69 107.628 131.838 106.522 134.349C105.348 137.004 104.486 139.786 103.954 142.639C103.317 145.322 102.958 148.064 102.882 150.82C102.851 152.652 103.149 154.475 103.763 156.201C104.4 157.886 105.407 159.407 106.71 160.651C106.795 160.863 106.883 161.075 106.974 161.286C106.966 161.433 106.952 161.581 106.952 161.726C106.946 163.065 107.326 164.378 108.044 165.508C108.169 165.706 108.305 165.898 108.447 166.086C108.408 166.143 108.373 166.203 108.344 166.266L108.344 166.266C108.338 166.284 108.081 167.063 107.819 168.083C107.51 169.183 107.329 170.315 107.279 171.456C107.271 171.844 107.323 172.232 107.433 172.605C107.637 173.169 108.009 173.657 108.499 174.003C109.192 174.502 109.966 174.879 110.786 175.115C111.63 175.382 112.508 175.524 113.393 175.536C113.786 175.54 114.179 175.499 114.563 175.415C114.97 175.328 115.357 175.163 115.701 174.928C115.959 174.739 116.191 174.517 116.392 174.267C117.008 173.468 117.551 172.615 118.013 171.719C118.017 171.711 118.016 171.703 118.02 171.696C118.958 172.01 119.932 172.316 120.972 172.611C120.975 173.126 120.98 173.643 120.98 174.153C120.98 174.922 120.976 175.683 120.968 176.437C120.673 176.608 120.363 176.75 120.041 176.862L120.041 176.862ZM151.919 177.894C151.893 178.161 151.827 178.423 151.723 178.67C151.633 178.752 151.531 178.82 151.421 178.873C151.021 179.071 150.597 179.217 150.159 179.309C149.652 179.424 149.134 179.483 148.615 179.487C148.284 179.494 147.954 179.456 147.633 179.374C147.548 179.352 147.466 179.32 147.389 179.278L147.359 179.259C147.291 179.125 147.232 178.987 147.181 178.845C146.947 178.224 146.682 177.239 146.475 176.418C148.329 176.382 150.176 176.169 151.99 175.782C151.998 175.992 152.003 176.216 152.003 176.446C152.007 176.93 151.979 177.414 151.919 177.894ZM156.27 176.697C156.139 176.763 156.023 176.813 155.922 176.853C155.861 176.794 155.805 176.73 155.751 176.664C155.437 176.248 155.172 175.797 154.961 175.321C154.754 174.887 154.608 174.428 154.526 173.954L154.523 173.93L154.513 173.805C154.738 173.521 154.987 173.257 155.257 173.017C155.377 173.163 155.502 173.315 155.634 173.479C155.942 173.876 156.28 174.319 156.596 174.75L156.731 174.948L156.731 174.947C156.835 175.107 156.951 175.271 157.078 175.436L157.076 175.437L157.162 175.561C157.255 175.705 157.339 175.844 157.409 175.967C157.379 175.992 157.358 176.013 157.325 176.039C156.994 176.29 156.641 176.511 156.27 176.697L156.27 176.697ZM160.318 174.296C160.14 174.422 159.938 174.512 159.725 174.561C159.568 174.403 159.42 174.235 159.284 174.057L159.217 173.961L159.215 173.958L159.214 173.957L159.211 173.952L159.165 173.89C159.082 173.786 158.994 173.66 158.896 173.509L158.881 173.486L158.751 173.295C158.492 172.878 158.236 172.428 158.023 171.994L158.012 171.972C157.77 171.509 157.56 171.029 157.384 170.536C157.293 170.289 157.227 170.033 157.186 169.773C157.387 169.506 157.611 169.258 157.858 169.033C157.899 168.997 157.935 168.971 157.971 168.944C158.106 169.082 158.256 169.244 158.423 169.439C158.704 169.764 159.015 170.152 159.321 170.554L159.323 170.556C159.835 171.226 160.342 171.951 160.706 172.536C160.888 172.827 161.034 173.085 161.12 173.262L161.158 173.347C161.132 173.423 161.097 173.494 161.053 173.561C160.86 173.853 160.61 174.103 160.318 174.296L160.318 174.296ZM161.647 165.746C161.684 165.702 161.724 165.661 161.765 165.621C161.802 165.66 161.838 165.7 161.876 165.745C162.502 166.528 163.063 167.36 163.553 168.234C163.611 168.35 163.637 168.478 163.631 168.607C163.591 169.101 163.45 169.581 163.216 170.018C162.85 169.596 162.514 169.149 162.211 168.68C161.811 168.086 161.502 167.435 161.295 166.749L161.294 166.745L161.276 166.599C161.305 166.282 161.435 165.982 161.647 165.746L161.647 165.746ZM162.877 163.155L162.872 163.151C162.568 162.946 162.211 162.833 161.845 162.827C161.829 162.827 161.782 162.828 161.718 162.833L161.717 162.832L161.704 162.834C161.688 162.836 161.678 162.836 161.659 162.838L161.66 162.842C161.251 162.895 160.862 163.046 160.524 163.282C160.019 163.629 159.594 164.08 159.275 164.603C158.948 165.129 158.75 165.725 158.698 166.343C158.496 166.274 158.284 166.237 158.071 166.233C157.684 166.239 157.304 166.335 156.961 166.515C156.538 166.741 156.154 167.033 155.822 167.379C155.515 167.692 155.231 168.028 154.971 168.382L154.97 168.381L154.968 168.386L154.962 168.392L154.963 168.393C154.814 168.594 154.707 168.823 154.648 169.066C154.6 169.263 154.577 169.465 154.578 169.667C154.586 169.9 154.613 170.131 154.66 170.359C154.557 170.401 154.448 170.44 154.357 170.487C153.95 170.717 153.576 171.001 153.246 171.332C152.925 171.647 152.625 171.983 152.349 172.339L152.345 172.345C152.177 172.57 152.055 172.826 151.988 173.099C150.111 173.555 148.188 173.799 146.257 173.827H146.254C145.959 173.835 145.659 173.838 145.356 173.839C144.136 173.839 142.832 173.777 141.442 173.652L141.439 173.652C140.661 173.585 139.659 173.467 138.525 173.309C138.306 173.281 138.084 173.31 137.879 173.394C137.675 173.478 137.496 173.613 137.359 173.786C137.159 173.897 136.994 174.061 136.88 174.259C136.573 174.826 136.165 175.567 135.784 176.189C135.594 176.499 135.41 176.779 135.262 176.979C135.188 177.078 135.124 177.156 135.083 177.202L135.06 177.226C134.807 177.327 134.534 177.371 134.262 177.354C133.425 177.331 132.6 177.155 131.826 176.835C131.515 176.712 131.22 176.551 130.948 176.356C130.883 176.308 130.824 176.254 130.771 176.194C130.752 176.088 130.743 175.98 130.747 175.873C130.801 174.95 130.955 174.035 131.206 173.146C131.325 172.68 131.445 172.264 131.535 171.966C131.58 171.817 131.617 171.698 131.642 171.617L131.681 171.499C131.789 171.171 131.762 170.814 131.607 170.506C131.453 170.199 131.182 169.965 130.854 169.857C130.527 169.748 130.17 169.775 129.862 169.93C129.554 170.085 129.32 170.356 129.212 170.683L129.212 170.683C129.208 170.696 129.076 171.095 128.908 171.687C126.353 171.206 124.033 170.718 122.583 170.356C122.272 170.276 122.004 170.208 121.827 170.153L121.798 170.145C118.509 169.36 115.363 168.066 112.472 166.312C111.59 165.741 110.832 164.997 110.246 164.125C110.01 163.752 109.83 163.346 109.712 162.92C112.823 164.645 116.194 165.853 119.693 166.497C120.459 166.663 121.199 166.797 121.905 166.91C123.801 167.242 125.722 167.417 127.647 167.434C130.052 167.495 132.443 167.055 134.669 166.142C137.411 164.912 139.627 162.749 140.923 160.037C142.261 157.181 143.218 154.161 143.768 151.056C144.38 148.424 144.719 145.737 144.78 143.036C144.805 141.232 144.543 139.435 144.004 137.714C143.099 134.984 141.331 132.622 138.965 130.986C135.688 128.819 131.996 127.354 128.124 126.685C125.697 126.142 123.221 125.852 120.734 125.82C119.766 125.822 118.799 125.888 117.841 126.019C117.863 125.993 117.883 125.963 117.905 125.937C118.689 125.086 119.698 124.476 120.816 124.179C122.195 123.806 123.619 123.633 125.047 123.665C127.222 123.709 129.393 123.884 131.547 124.187C134.98 124.612 140.272 125.756 144.477 126.751C144.562 126.763 144.647 126.766 144.732 126.76C144.76 126.763 144.786 126.761 144.814 126.763C145.135 126.755 145.447 126.652 145.71 126.466L145.71 126.466C146.39 125.918 147.161 125.493 147.988 125.212C148.83 124.906 149.717 124.743 150.612 124.728C151.106 124.716 151.597 124.796 152.061 124.965L152.146 125.022C152.233 125.132 152.292 125.26 152.32 125.397C152.39 125.694 152.423 125.998 152.416 126.303C152.357 127.581 152.131 128.847 151.745 130.068C151.573 130.658 151.399 131.174 151.27 131.538C151.206 131.72 151.152 131.864 151.116 131.961L151.074 132.07L151.061 132.102C150.934 132.422 150.939 132.78 151.076 133.097C151.212 133.413 151.469 133.663 151.789 133.79C152.11 133.918 152.468 133.912 152.784 133.776C153.101 133.639 153.35 133.383 153.478 133.062C153.488 133.037 153.862 132.095 154.241 130.796C154.347 130.429 154.451 130.032 154.551 129.621C159.171 131.46 162.074 133.71 163.844 136.225C165.66 138.954 166.564 142.188 166.427 145.463C166.328 148.871 165.881 152.26 165.094 155.578C164.58 158.164 163.838 160.7 162.877 163.155L162.877 163.155ZM173.457 143.443C173.594 143.311 173.776 143.235 173.966 143.231C174.068 143.227 174.169 143.259 174.249 143.323C174.379 143.452 174.46 143.623 174.475 143.805C174.492 143.902 174.5 144 174.5 144.098C174.479 144.606 174.357 145.104 174.14 145.564C174.127 145.592 174.108 145.622 174.095 145.651C173.864 145.459 173.661 145.235 173.492 144.988C173.357 144.793 173.265 144.573 173.221 144.34L173.205 144.117C173.197 143.993 173.215 143.869 173.259 143.753C173.303 143.637 173.37 143.531 173.457 143.443L173.457 143.443Z"/><path id="Vector_23" d="M126.849 130.181C126.536 130.116 126.363 130.086 126.199 130.066C126.041 130.048 125.983 130.046 125.723 130.01C125.554 129.986 125.382 129.996 125.216 130.039C125.051 130.082 124.895 130.157 124.759 130.26C124.622 130.363 124.508 130.492 124.421 130.639C124.334 130.787 124.278 130.95 124.254 131.119C124.231 131.289 124.241 131.461 124.285 131.626C124.328 131.792 124.403 131.947 124.507 132.083C124.61 132.219 124.739 132.334 124.887 132.42C125.034 132.506 125.198 132.563 125.367 132.586L125.367 132.586C125.665 132.627 125.822 132.64 125.891 132.648C125.954 132.656 126.021 132.665 126.318 132.727C126.485 132.761 126.657 132.763 126.825 132.731C126.993 132.7 127.153 132.635 127.296 132.541C127.438 132.448 127.561 132.327 127.657 132.186C127.754 132.045 127.821 131.886 127.856 131.719C127.891 131.552 127.892 131.38 127.86 131.212C127.829 131.044 127.764 130.885 127.671 130.742C127.577 130.599 127.456 130.476 127.315 130.38C127.174 130.284 127.016 130.216 126.849 130.181L126.849 130.181Z"/><path id="Vector_24" d="M120.529 129.384C120.205 129.368 119.883 129.36 119.563 129.36C117.755 129.307 115.958 129.656 114.301 130.382C113.992 130.533 113.755 130.801 113.642 131.126C113.53 131.452 113.551 131.808 113.702 132.118C113.852 132.428 114.119 132.665 114.444 132.778C114.77 132.891 115.126 132.871 115.436 132.721L115.436 132.721C116.74 132.17 118.148 131.91 119.563 131.96C119.838 131.96 120.116 131.967 120.398 131.981C120.741 131.997 121.077 131.876 121.332 131.645C121.586 131.414 121.739 131.091 121.756 130.748C121.773 130.404 121.654 130.068 121.424 129.813C121.194 129.557 120.872 129.403 120.529 129.384H120.529Z"/><path id="Vector_25" d="M132.099 160.153C131.203 160.502 130.271 160.751 129.321 160.896C129.152 160.922 128.99 160.98 128.843 161.069C128.697 161.157 128.57 161.273 128.469 161.41C128.367 161.548 128.294 161.704 128.253 161.869C128.212 162.035 128.204 162.207 128.229 162.376C128.255 162.545 128.313 162.707 128.402 162.853C128.49 162.999 128.606 163.127 128.743 163.228C128.881 163.329 129.037 163.403 129.202 163.444C129.368 163.485 129.54 163.493 129.709 163.467L129.709 163.467C130.855 163.293 131.978 162.992 133.058 162.57C133.378 162.443 133.635 162.193 133.772 161.877C133.908 161.56 133.914 161.202 133.787 160.882C133.659 160.562 133.41 160.305 133.094 160.168C132.777 160.031 132.419 160.026 132.099 160.153Z"/><path id="Vector_26" d="M121.911 166.911L121.905 166.91L121.902 166.909L121.911 166.911Z"/><path id="Vector_27" d="M119.696 166.498L119.693 166.497H119.691L119.696 166.498Z"/></g></svg>