<svg xmlns="http://www.w3.org/2000/svg" width="200" height="200" fill="none"><path fill="#FFE632" d="M94.817 63.869a18.882 18.882 0 0 0 1.287-6.83 12.73 12.73 0 0 0-1.425-6.23 6.644 6.644 0 0 0-2.006-2.232 5.738 5.738 0 0 0-2.962-.982 6.644 6.644 0 0 0-.367-.01 7.157 7.157 0 0 0-4.201 1.407 12.71 12.71 0 0 0-4.073 5.495 18.65 18.65 0 0 0-1.425 7.025 11.27 11.27 0 0 0 1.475 5.949 6.342 6.342 0 0 0 5.118 3.063 7.164 7.164 0 0 0 4.682-1.33 11.68 11.68 0 0 0 3.897-5.325Zm-5.393 3.2a4.548 4.548 0 0 1-3.009.86 3.91 3.91 0 0 1-1.834-.56 4.438 4.438 0 0 1-1.72-2.21 9.962 9.962 0 0 1-.617-3.647c.017-2.74.747-5.429 2.119-7.801a8.696 8.696 0 0 1 2.294-2.605 4.55 4.55 0 0 1 2.687-.92l.228.006a3.121 3.121 0 0 1 1.638.534c.791.6 1.376 1.431 1.674 2.379.432 1.266.641 2.597.62 3.935.012 2.645-.65 5.25-1.925 7.568a7.78 7.78 0 0 1-2.155 2.46ZM128.2 56.07a8.183 8.183 0 0 0-2.34-2.682 6.465 6.465 0 0 0-3.441-1.197 7.148 7.148 0 0 0-4.489 1.276 11.274 11.274 0 0 0-3.864 5.167 18.394 18.394 0 0 0-1.286 6.778 13.643 13.643 0 0 0 1.75 7.055A7.879 7.879 0 0 0 116.946 75a7.306 7.306 0 0 0 3.517 1.146h.001c.186.012.371.019.553.019a7.197 7.197 0 0 0 4.036-1.211 10.307 10.307 0 0 0 3.708-4.94 18.147 18.147 0 0 0 1.168-6.512 15.41 15.41 0 0 0-1.729-7.431Zm-2.604 14.535a6.649 6.649 0 0 1-1.981 2.183 4.581 4.581 0 0 1-2.598.777 5.56 5.56 0 0 1-.376-.013 4.694 4.694 0 0 1-2.28-.733 5.971 5.971 0 0 1-2.204-2.903 12.403 12.403 0 0 1-.777-4.504 14.977 14.977 0 0 1 1.906-7.445 7.463 7.463 0 0 1 2.114-2.355 4.534 4.534 0 0 1 2.618-.832l.26.007h.001a3.844 3.844 0 0 1 2.073.72 6.561 6.561 0 0 1 2.18 3.144 15.314 15.314 0 0 1-.936 11.954ZM110.069 83.788a58.414 58.414 0 0 0-16.873-2.368c-.77 0-1.215.016-1.23.017a1.3 1.3 0 0 0-1.25 1.352c.116 1.54.54 3.04 1.25 4.41a9.58 9.58 0 0 0 2.737 3.284 10.23 10.23 0 0 0 5.082 1.931c.476.056.956.084 1.435.084a9.947 9.947 0 0 0 4.695-1.114 10.916 10.916 0 0 0 4.993-5.983 1.298 1.298 0 0 0-.839-1.613Zm-5.452 5.34a7.367 7.367 0 0 1-3.397.77c-.381 0-.761-.023-1.14-.067a7.62 7.62 0 0 1-3.813-1.425 7.46 7.46 0 0 1-2.52-3.657 9.308 9.308 0 0 1-.209-.728c4.838.007 9.655.618 14.341 1.82a8.744 8.744 0 0 1-1.079 1.561 7.266 7.266 0 0 1-2.183 1.726Z"/><path fill="#BEBEC9" d="M71.567 89.291a1.3 1.3 0 0 0 .245 1.823c6.786 5.17 17.017 8.691 31.755 10.219 3.725.4 7.469.608 11.216.622a58.424 58.424 0 0 0 16.835-2.152c6.983-2.099 11.945-5.723 15.229-10.416 3.289-4.691 4.9-10.377 5.468-16.589a49.53 49.53 0 0 0 .211-4.506 35.595 35.595 0 0 0-2.042-12.346 29.73 29.73 0 0 0-12.806-15.218c-6.574-4.06-15.607-6.928-27.784-8.191-3.453-.37-6.923-.561-10.396-.574a54.605 54.605 0 0 0-17.035 2.363 27.804 27.804 0 0 0-15.117 11.127c-3.253 4.912-4.911 10.753-5.773 16.958v.003a45.995 45.995 0 0 0-.448 6.215c0 .56.012 1.116.037 1.669a1.3 1.3 0 1 0 2.597-.116 34.324 34.324 0 0 1-.034-1.553c.008-1.961.15-3.92.423-5.863a44.997 44.997 0 0 1 2.847-11.112A24.644 24.644 0 0 1 77.468 39.38c5.124-3.005 12.21-4.817 22.03-4.817 3.383.013 6.764.2 10.128.56 15.888 1.646 25.95 6.064 32.008 11.917a25.873 25.873 0 0 1 6.41 9.804 33.024 33.024 0 0 1 1.883 11.448 47.1 47.1 0 0 1-.201 4.27 36.198 36.198 0 0 1-2.521 10.807 22.774 22.774 0 0 1-10.5 11.556c-5.168 2.791-12.283 4.43-21.922 4.43a106.44 106.44 0 0 1-10.949-.608c-14.462-1.493-24.232-4.952-30.445-9.7a1.3 1.3 0 0 0-1.822.245Z"/><path fill="#BEBEC9" d="M59.353 39.16a47.977 47.977 0 0 0-4.776 10.458 1.295 1.295 0 0 0-.509.031c-.427.118-.848.258-1.26.42.886-3.202 1.986-7.302 3.257-11.411 1.535-4.98 3.336-9.96 5.196-13.146a29.696 29.696 0 0 1 3.924-5.573c.375-.407.804-.76 1.275-1.05.192-.127.413-.203.642-.22l.214.053c.213.135.391.319.52.536a6.3 6.3 0 0 1 .62 1.267c.04.127.074.257.099.39.195 1.145.332 2.299.412 3.458.114 1.372.201 2.768.263 3.683.014.097.04.192.077.283a38.675 38.675 0 0 0-9.954 10.822Zm43.697 76.32a20.855 20.855 0 0 1 3.448-.278c.88-.001 1.76.052 2.634.158h.002c2.131.239 4.217.782 6.195 1.612.269.118.507.237.728.355a26.6 26.6 0 0 1-.503.005l-.352-.002c-.07.007-.138.02-.206.039-.086.008-.17.025-.253.049a1.28 1.28 0 0 0-.217.121.805.805 0 0 0-.361.329 1.28 1.28 0 0 0-.139.203 1.27 1.27 0 0 0-.073.249 1.27 1.27 0 0 0-.058.2l-.029.345-.42 4.484-.005.121v.08c0 .036.017.066.02.101.02.168.066.331.135.484.109.223.285.405.503.521.076.046.155.084.239.112.033.012.059.036.094.045v-.001c.289.071.554.14.807.208a7.042 7.042 0 0 1-2.758.786 20.09 20.09 0 0 1-1.834.083 23.367 23.367 0 0 1-8.263-1.588c-.151-.058-.287-.115-.429-.173.129-.06.251-.134.363-.221.26-.214.424-.523.456-.859.011-.042.02-.085.026-.128v-.031l.435-4.782.001-.016.037-.368a1.292 1.292 0 0 0-2.077-1.161 1.276 1.276 0 0 0-.481-.364l-.095-.043.014-.007a10.452 10.452 0 0 1 2.416-.668Zm-26.972-2.845c6.584 2.987 14.666 5.171 24.456 6.464l-.236 2.599a32.614 32.614 0 0 0-11.885 3.986l-.003.002a22.745 22.745 0 0 0-2.28 1.587 29.838 29.838 0 0 0-7.65-7.837 48.333 48.333 0 0 0-11.877-6.388 10.683 10.683 0 0 0-2.044-.462c-.409-.059-.85-.11-1.313-.156.047-.68.078-1.378.078-2.113 0-.737-.023-1.501-.07-2.293a85.209 85.209 0 0 0-.367-4.174 45.724 45.724 0 0 0 13.191 8.785Zm9.814 27.311a11.948 11.948 0 0 0 1.567-2.822c.291-.807.483-1.647.57-2.5a7.23 7.23 0 0 1 .198 1.63 5.31 5.31 0 0 1-1.396 3.771 4.637 4.637 0 0 1-1.966 1.122c.369-.376.712-.778 1.027-1.201ZM60.95 120.017a4.103 4.103 0 0 1-1.476 3.157l-.002.002a4.081 4.081 0 0 1-2.641.966 4.119 4.119 0 0 1-2.042-.567c.46-.075.915-.178 1.363-.306l.004-.002a8.46 8.46 0 0 0 4.785-3.365c0 .038.009.077.009.115ZM35.244 96.17c-.394.01-.763-.802-1.002-.488a1.3 1.3 0 0 0-.227 1.102c1.498 5.994 3.51 12.669 6.253 17.481v.001a23.73 23.73 0 0 0 5.177 6.479 12.724 12.724 0 0 0 4.674 2.559c-.24.92-.365 1.866-.371 2.817a10.037 10.037 0 0 0 1.244 4.894 10.593 10.593 0 0 0 3.732 3.849v-.001c.574.358 1.45.947 2.518 1.645 3.22 2.096 8.176 5.199 13.127 6.556 2.22.65 4.516 1.004 6.829 1.053.223 0 .44-.015.658-.024a36.895 36.895 0 0 0-.113 2.755c.003 6.908 1.775 14.466 4.38 21.931a1.294 1.294 0 0 0 .874.822c.885.222 1.783.387 2.69.493l-.297 2.235c.001.042.004.083.009.124l-1.866-.043a1.294 1.294 0 0 0-1.317 1.115 29.346 29.346 0 0 0-.242 3.992 36.92 36.92 0 0 0 .226 4.141c.13 1.291.39 2.566.776 3.804a1.3 1.3 0 0 0 2.466-.824 16.785 16.785 0 0 1-.66-3.276 34.334 34.334 0 0 1-.112-6.325l54.605 1.268a59.088 59.088 0 0 1-.575 3.914 34.105 34.105 0 0 1-.732 3.201 12.243 12.243 0 0 1-.972 2.508 1.292 1.292 0 0 0-.119.988 1.295 1.295 0 0 0 1.097.94 1.292 1.292 0 0 0 .958-.268c.134-.106.246-.237.33-.385a15.814 15.814 0 0 0 1.339-3.547 56.26 56.26 0 0 0 1.406-8.513 1.304 1.304 0 0 0-1.266-1.405l-4.027-.093c.006-.034.027-.063.03-.098.002-.024.305-2.955.306-5.969a29.181 29.181 0 0 0-.149-3.086c.486.179 1 .271 1.517.272a6.487 6.487 0 0 0 2.493-.574 1.303 1.303 0 0 0 .8-1.2 39.339 39.339 0 0 0-.425-4.661 91.012 91.012 0 0 0-2.49-11.861c1.635.436 3.292.779 4.965 1.028.337.05.677.075 1.018.076a6.316 6.316 0 0 0 3.332-.96 5.066 5.066 0 0 0 1.923.825c3.33.574 6.702.866 10.081.873.981 0 1.895-.031 2.7-.102a9.584 9.584 0 0 0 2.097-.375l.003-.001a9.555 9.555 0 0 0 4.586-3.303 8.55 8.55 0 0 0 2.581.443 6.995 6.995 0 0 0 2.262-.392c.694-.232 1.343-.525 2.072-.833h.001a16.519 16.519 0 0 1 3.139-.936c.456-.099.89-.191 1.327-.326a4.284 4.284 0 0 0 1.304-.632l.003-.002c.264-.195.479-.449.629-.74.143-.285.217-.6.217-.919a2.516 2.516 0 0 0-.371-1.271 3.875 3.875 0 0 0-1.198-1.236 3.168 3.168 0 0 0-1.718-.567l-.127.004c-.519.046-1.035.125-1.544.237-.274.054-.538.098-.767.128.008-.038.015-.075.025-.115.065-.277.156-.594.257-.922a5.357 5.357 0 0 0 1.471-.302c.354-.132.677-.334.952-.593.293-.284.514-.634.643-1.021.126-.343.195-.705.204-1.07a2.118 2.118 0 0 0-.156-.806 1.949 1.949 0 0 0-.277-.459c.138-.103.278-.203.412-.312.278-.218.529-.468.747-.745l.005-.006a2.66 2.66 0 0 0 .513-1.598 3.357 3.357 0 0 0-.478-1.7 2.62 2.62 0 0 0-.554-.664 1.92 1.92 0 0 0-.444-.285 1.653 1.653 0 0 0-.681-.151l-.187.012a3.08 3.08 0 0 0-.465.1c-.666.204-1.318.449-1.955.732-.738.309-1.449.678-2.127 1.102a8.044 8.044 0 0 0-1.047.849 10.852 10.852 0 0 0-1.88.122c-.845.14-1.65.459-2.363.934v-.001c-.332.215-1.058.648-1.929 1.186a8.073 8.073 0 0 0-2.093-1.145 10.185 10.185 0 0 0-3.527-.587c-.538.001-1.075.033-1.608.097-2.503.292-6.604.942-9.554 1.629l-.008-.009a9.21 9.21 0 0 0-2.752-1.569 39.741 39.741 0 0 0-13.172-2.514 12.544 12.544 0 0 0-4.863.79 16.636 16.636 0 0 0-4.862-3.523 31.666 31.666 0 0 0-9.408-2.584l.193-2.063c.63.01 1.265.024 1.883.024 14.605 0 26.025-2.783 34.623-7.87a39.458 39.458 0 0 0 17.468-21.458c.016-.07.026-.14.029-.21a15.303 15.303 0 0 0 1.784-.872 15.807 15.807 0 0 0 2.366-1.638 1.26 1.26 0 0 0 .214-.279 6.07 6.07 0 0 0 1.276-1.378 15.671 15.671 0 0 0 1.911-4.119 30.586 30.586 0 0 0 1.186-5.558c.09-.731.138-1.448.169-2.155a1.27 1.27 0 0 0 .386-.113 8.426 8.426 0 0 0 3.588-3.88c1.097-2.228 3.178-7.069 5.168-12.165a185.415 185.415 0 0 0 2.763-7.507 56.264 56.264 0 0 0 1.78-6.088c.547-2.439.846-4.926.892-7.425a11.255 11.255 0 0 0-.966-5.12 4.366 4.366 0 0 0-1.411-1.637 3.642 3.642 0 0 0-2.054-.612 5.39 5.39 0 0 0-2.221.532c-.808.383-1.567.865-2.258 1.433a35.956 35.956 0 0 0-5.029 5.394 100.34 100.34 0 0 0-8.153 12.06 64.916 64.916 0 0 0-1.725 3.226 45.491 45.491 0 0 0-17.257-21.262c-9.163-6.217-21.589-10.507-37.789-12.083-3.995-.389-7.763-.581-11.304-.577a68.927 68.927 0 0 0-23.243 3.547 43.947 43.947 0 0 0-8.675 4.181c-.062-.935-.141-2.054-.238-3.132a45.767 45.767 0 0 0-.249-2.24 15.385 15.385 0 0 0-.156-.924 5.242 5.242 0 0 0-.214-.785 7.615 7.615 0 0 0-1.297-2.326 3.735 3.735 0 0 0-1.063-.858 3.043 3.043 0 0 0-1.425-.354 3.903 3.903 0 0 0-1.927.56 10.686 10.686 0 0 0-2.83 2.603 39.251 39.251 0 0 0-3.331 4.973c-2.058 3.545-3.864 8.622-5.434 13.686-1.562 5.056-2.868 10.088-3.814 13.395-.02.097-.027.197-.023.297-.43.26-.707.446-.724.457-.13.092-.242.208-.33.34-.04.02-.08.043-.117.067a7.326 7.326 0 0 0-1.47 1.867 18.328 18.328 0 0 0-1.691 4.162 27.245 27.245 0 0 0-.937 5.37v.007a39.488 39.488 0 0 0-.094 2.678 1.3 1.3 0 1 0 2.6 0c0-.808.03-1.648.087-2.498a23.806 23.806 0 0 1 1.286-6.22c.267-.759.6-1.492.996-2.19.242-.449.553-.856.92-1.207.061-.063.114-.132.16-.206.02-.012.043-.013.062-.026l.016-.011c.104-.07.676-.45 1.47-.872.562-.3 1.141-.565 1.735-.795a73.36 73.36 0 0 0-2.045 10.924c-.23.01-.453.084-.645.212a1.301 1.301 0 0 0-.313 1.812l.049.07c.09.131.307.446.603.894-.044.55-.082 1.1-.109 1.65a1.298 1.298 0 0 0 1.236 1.362c.228.005.453-.051.651-.163l.096.16a1.303 1.303 0 0 0 1.781.469 1.3 1.3 0 0 0 .462-1.784 69.81 69.81 0 0 0-1.448-2.36l.054-.617a65.579 65.579 0 0 1 3.828-17.212c3.03-7.85 7.83-14.379 15.157-19.006 7.33-4.622 17.256-7.356 30.593-7.357 3.453 0 7.137.188 11.052.565 15.88 1.545 27.869 5.734 36.581 11.647a42.74 42.74 0 0 1 17.062 22.15c.044.11.104.214.177.308-.227.6-.43 1.183-.577 1.728a8.54 8.54 0 0 0-.336 2.171c0 .274.025.546.076.815a6.866 6.866 0 0 0-1.964 1.909 19.394 19.394 0 0 0-2.463 5.2 38.507 38.507 0 0 0-1.542 7.16 41.854 41.854 0 0 0-.315 5.042 24.427 24.427 0 0 0 .988 7.457c.28.918.726 1.776 1.316 2.532.285.35.627.647 1.011.88.402.242.854.387 1.321.425a7.42 7.42 0 0 0 1.289-.015 36.631 36.631 0 0 1-15.814 18.679c-7.779 4.607-18.226 7.298-31.749 7.489a2.148 2.148 0 0 0-.412-1.064 5.107 5.107 0 0 0-1.489-1.271 16.499 16.499 0 0 0-3.541-1.54 27.086 27.086 0 0 0-4.886-1.047 24.226 24.226 0 0 0-2.949-.177 20.79 20.79 0 0 0-5.755.744 7.444 7.444 0 0 0-2.02.895c-.298.196-.56.442-.775.727-.23.313-.367.684-.396 1.072a80.083 80.083 0 0 1-20.4-5.773 41.01 41.01 0 0 1-14.825-10.83c-.28-2.002-.6-4.056-.95-6.07a1.302 1.302 0 0 0-.551-.854c-.292-.197-.654.732-.999.805l-.794 1.808c.28 1.693.547 3.398.776 5.061v.002c.407 2.917.713 5.69.85 7.988.044.744.066 1.458.065 2.14a25.656 25.656 0 0 1-.177 3.128 13.822 13.822 0 0 1-.655 2.84l-.003.016a7.46 7.46 0 0 1-1.71 2.88 6.268 6.268 0 0 1-2.753 1.591 8.438 8.438 0 0 1-2.362.353 7.003 7.003 0 0 1-.96-.064c-.013-.002-.025.004-.038.003l-.117-.022a9.494 9.494 0 0 1-4.835-2.29 21.192 21.192 0 0 1-4.59-5.778l.001.001c-2.297-4.006-4.166-9.804-5.587-15.264l-1.694-1.54Zm35.81 44.386h-.002a37.864 37.864 0 0 1-8.758-3.959 89.699 89.699 0 0 1-3.63-2.266c-1.055-.688-1.92-1.272-2.566-1.675h-.001a7.988 7.988 0 0 1-2.831-2.902 7.43 7.43 0 0 1-.918-3.633 8.5 8.5 0 0 1 .072-1.039 6.692 6.692 0 0 0 8.765.09 6.698 6.698 0 0 0 1.344-8.661c.146-.481.273-.98.377-1.501.464.045.9.094 1.28.15.52.062 1.033.174 1.532.332a45.8 45.8 0 0 1 11.218 6.036c3.444 2.535 6.275 5.486 7.659 8.307.314.632.567 1.293.754 1.974.1.538.151 1.084.152 1.631a8.143 8.143 0 0 1-.485 2.795v.001a9.494 9.494 0 0 1-1.214 2.163 7.364 7.364 0 0 1-3.677 2.75l.002-.001c-.341.102-.69.178-1.042.229v-.001c-.624.097-1.255.144-1.887.141a23.777 23.777 0 0 1-6.145-.961Zm16.934 31.957.287-2.164c1.083.075 2.328.124 3.74.124a76.04 76.04 0 0 0 10.281-.745h.001a91.746 91.746 0 0 0 14.14-3.032 131.392 131.392 0 0 1 13.615-3.409 12.732 12.732 0 0 1 2.352-.249 6.506 6.506 0 0 1 1.734.216c-.017.127-.014.256.008.382a20.03 20.03 0 0 1 .304 3.942c0 1.421-.073 2.855-.147 3.928a65.392 65.392 0 0 1-.133 1.653l-.012.122c-.003.103.007.205.029.305l-46.199-1.073Zm83.366-39.753c.22-.148.457-.27.706-.364a1.29 1.29 0 0 0 .124.56c.084.174.205.328.357.449a1.298 1.298 0 0 0 1.824-.225l.012-.015c.069-.088.432-.541.889-1.04a8.65 8.65 0 0 1 1.376-1.267l.007-.005a13.51 13.51 0 0 1 2.013-1.007c.307-.128.591-.236.839-.326l.005.018-.005.052c-.153.163-.322.31-.503.44-.435.336-1.047.745-1.63 1.238a6.29 6.29 0 0 0-.842.846 3.359 3.359 0 0 0-.636 1.179c-.123.436-.432 1.288-.71 2.157-.139.439-.272.889-.376 1.328-.11.43-.171.872-.183 1.316-.005.286.042.572.138.842.068.183.166.354.29.505.149.181.336.328.547.43l.001.001c.396.178.826.264 1.259.252a9.45 9.45 0 0 0 1.709-.211c.389-.085.783-.15 1.179-.194.065.015.128.04.187.074.091.05.177.111.255.181-.028.009-.044.018-.076.028-.41.131-1.051.249-1.852.436-.976.221-1.931.527-2.854.915l.001-.001c-.759.321-1.365.589-1.884.761a4.382 4.382 0 0 1-1.439.259 5.366 5.366 0 0 1-1.286-.184 9.11 9.11 0 0 0 .635-3.279c0-.877-.131-1.75-.387-2.589a9.674 9.674 0 0 0-1.235-2.608c.646-.395 1.194-.725 1.526-.939l.019-.013Zm-10.281-.039c.432-.052.868-.078 1.304-.079a7.578 7.578 0 0 1 2.631.428 5.334 5.334 0 0 1 1.956 1.232l.003.003a6.43 6.43 0 0 1 1.59 2.774c.181.593.274 1.21.274 1.83a6.618 6.618 0 0 1-.955 3.392l-.006.01a6.939 6.939 0 0 1-3.783 3.056c-.491.136-.994.22-1.503.251a28.77 28.77 0 0 1-2.47.092 57.707 57.707 0 0 1-9.588-.826 2.656 2.656 0 0 1-.39-.109c.281-.354.538-.726.769-1.114a4.528 4.528 0 0 0 2.508-1.439l.002-.002a4.586 4.586 0 0 0-.391-6.461l-.017-.016c-.083-.071-.172-.132-.258-.198a8.813 8.813 0 0 0-.244-1.404c2.735-.594 6.375-1.167 8.565-1.419l.003-.001Zm-17.21-1.268c1.229.302 2.437.685 3.615 1.147a7.112 7.112 0 0 1 1.955 1.059l.002.003c.263.287.447.636.536 1.015.172.637.254 1.295.244 1.955-.012 2-.536 3.962-1.522 5.702a6.173 6.173 0 0 1-1.731 1.943 3.747 3.747 0 0 1-2.184.695 4.544 4.544 0 0 1-.638-.048 42.266 42.266 0 0 1-6.236-1.413 61.8 61.8 0 0 0-5.149-11.903c-.2-.347-.412-.678-.629-1.001a12.753 12.753 0 0 1 3.157-.33c2.896.057 5.776.452 8.58 1.176Zm-13.358 1.458v.001a67.685 67.685 0 0 1 6.806 18.23 86.265 86.265 0 0 1 1.399 7.541c.194 1.405.309 2.57.362 3.389a2.723 2.723 0 0 1-.654.092 1.916 1.916 0 0 1-.781-.17c-.423-.168-.999-.545-1.844-.908a8.454 8.454 0 0 0-3.389-.648c-.953.009-1.902.108-2.836.295a133.98 133.98 0 0 0-13.849 3.464 89.028 89.028 0 0 1-13.775 2.955c-3.29.465-6.606.705-9.928.721a45.238 45.238 0 0 1-6.307-.399 23.79 23.79 0 0 1-1.358-.229c-2.418-7.067-4.011-14.136-4.008-20.397 0-1.063.06-2.094.154-3.106l.062-.016c.793.198 1.607.302 2.424.31a7.424 7.424 0 0 0 7.843-7.782 10.46 10.46 0 0 0-2.905-7.092 20.239 20.239 0 0 1 1.828-1.247 27.524 27.524 0 0 1 7.878-3.059c.032.025.059.057.094.08a26.173 26.173 0 0 0 12.926 3.553c.675 0 1.367-.029 2.073-.094l.001-.001a9.01 9.01 0 0 0 4.758-1.739c.455-.345.86-.752 1.204-1.209 1.98.372 3.906.988 5.735 1.834a13.7 13.7 0 0 1 6.087 5.631Zm45.997-56.288a24.397 24.397 0 0 1-1.877 7.138 7.363 7.363 0 0 1-1.206 1.906 1.884 1.884 0 0 1-.442.362.356.356 0 0 1-.152.056h-.005l-.051-.024a1.512 1.512 0 0 1-.429-.53 7.69 7.69 0 0 1-.742-2.312 20.27 20.27 0 0 1-.294-3.606c.003-1.203.079-2.405.227-3.599a1.3 1.3 0 1 0-2.581-.315 32.421 32.421 0 0 0-.246 3.914 19.04 19.04 0 0 0 .783 5.845 6.485 6.485 0 0 0 1.064 2.053c.057.07.125.132.187.198a8.819 8.819 0 0 1-4.109 1.26c-.129 0-.256-.004-.382-.014l-.193-.067a2.11 2.11 0 0 1-.659-.778 10.17 10.17 0 0 1-.997-3.105 26.82 26.82 0 0 1-.385-4.75c.003-1.58.102-3.159.296-4.727a31.13 31.13 0 0 1 2.495-9.36 9.64 9.64 0 0 1 1.648-2.533c.199-.212.428-.392.681-.534a.883.883 0 0 1 .408-.12H169.571a4.65 4.65 0 0 1 1.696.518c.94.485 1.821 1.076 2.626 1.762a19.099 19.099 0 0 1 1.081.97l.056.056.014.014c.015.016.037.021.053.036.031.083.071.162.119.236a6.91 6.91 0 0 1 1.01 2.55c.318 1.468.473 2.967.461 4.47 0 1.012-.062 2.024-.185 3.03Zm4.392-6.982a6.44 6.44 0 0 1-1.673 2.194 21.262 21.262 0 0 0-.461-3.294 9.222 9.222 0 0 0-1.503-3.58 1.212 1.212 0 0 0-.098-.082 1.301 1.301 0 0 0-.257-.397 20.656 20.656 0 0 0-2.249-1.93 14.656 14.656 0 0 0-2.245-1.39 7.724 7.724 0 0 0-2.158-.71 1.413 1.413 0 0 1-.029-.324 7.554 7.554 0 0 1 .445-2.158 37.656 37.656 0 0 1 2.776-6.038 96.935 96.935 0 0 1 6.777-10.494 70.03 70.03 0 0 1 3.489-4.37 24.148 24.148 0 0 1 2.833-2.835 8.393 8.393 0 0 1 1.712-1.098c.357-.179.747-.281 1.145-.3.214-.007.425.053.604.172.327.265.57.62.701 1.02-.15.047-.296.106-.437.174a6.846 6.846 0 0 0-1.638 1.271 29.612 29.612 0 0 0-3.07 3.777 69.912 69.912 0 0 0-4.686 7.725 32.28 32.28 0 0 0-2.924 7.188 11.524 11.524 0 0 0-.26 2.449 17.33 17.33 0 0 0 2.705 8.663 2.725 2.725 0 0 0 1.915 1.281 84.111 84.111 0 0 1-1.414 3.086Zm9.498-25.143a54.076 54.076 0 0 1-1.697 5.783c-1.178 3.463-2.739 7.517-4.201 11.098-.265.65-.526 1.279-.783 1.893a1.288 1.288 0 0 0-.833.667l-.045.054-.074.018-.141-.082a14.83 14.83 0 0 1-2.33-7.318 8.942 8.942 0 0 1 .2-1.895 25.53 25.53 0 0 1 1.975-5.121 66.642 66.642 0 0 1 5.365-9.05 27.12 27.12 0 0 1 2.543-3.139 6.43 6.43 0 0 1 .832-.731c.016.294.026.603.026.93a34.615 34.615 0 0 1-.837 6.893Z"/><path fill="#FFE632" d="M84.893 81.34a8.517 8.517 0 0 0-1.344-3.612 16.566 16.566 0 0 0-3.406-3.741 19.051 19.051 0 0 0-1.95-1.433 1.226 1.226 0 0 0-.175-.065 12.2 12.2 0 0 0-1.46-.809 30.672 30.672 0 0 0-8.182-2.16 80.111 80.111 0 0 0-11.4-.738c-1.352 0-2.74.026-4.164.08a1.3 1.3 0 1 0 .097 2.597 108.65 108.65 0 0 1 4.067-.077 62.707 62.707 0 0 1 15.467 1.6 14.74 14.74 0 0 1 4.298 1.763c.383.244.722.551 1.003.909.17.212.278.467.314.736l.007.127c-.01.287-.09.566-.233.814a6.663 6.663 0 0 1-2.01 2.057 29.529 29.529 0 0 1-6.84 3.403 77.915 77.915 0 0 1-10.37 2.96 119.006 119.006 0 0 1-12.79 2.056 1.3 1.3 0 0 0 .276 2.586 121.644 121.644 0 0 0 13.07-2.103 65.873 65.873 0 0 0 15.085-4.945 18.345 18.345 0 0 0 4.524-3.045 7.224 7.224 0 0 0 1.353-1.752c.113-.217.21-.442.288-.673.361.414.69.855.982 1.32.479.73.79 1.559.908 2.425l.008.16c-.01.347-.109.686-.285.986a7.777 7.777 0 0 1-2.372 2.385 34.265 34.265 0 0 1-7.913 3.86 89.174 89.174 0 0 1-11.914 3.307h-.002a132.745 132.745 0 0 1-13.299 2.1h.002c-3.916.416-7.712.663-11.285.753-.985.024-1.954.035-2.906.035a69.678 69.678 0 0 1-17.17-1.775 16.446 16.446 0 0 1-4.802-1.969 4.597 4.597 0 0 1-1.144-1.038 1.802 1.802 0 0 1-.373-.883 3.532 3.532 0 0 1-.02-.378 9.163 9.163 0 0 1 1.058-3.706c.02.034.037.07.058.102a6.655 6.655 0 0 0 2.149 1.976 15.548 15.548 0 0 0 3.18 1.428 1.3 1.3 0 0 0 .826-2.465 11.005 11.005 0 0 1-3.239-1.589 3.275 3.275 0 0 1-.735-.765 1.412 1.412 0 0 1-.237-.622l-.006-.125c.01-.3.095-.593.25-.85.24-.412.541-.787.89-1.112l.05-.034c.042-.038.08-.078.117-.121a25.605 25.605 0 0 1 8.066-4.27 85.977 85.977 0 0 1 14.04-3.64 1.3 1.3 0 1 0-.46-2.56 88.5 88.5 0 0 0-14.474 3.758c-4.026 1.481-7.134 3.1-9.08 4.928l-.004.004-.008.01a13.004 13.004 0 0 0-3.386 4.13 12.18 12.18 0 0 0-1.655 5.523c0 .22.012.439.035.657.092.779.39 1.519.863 2.144a9.072 9.072 0 0 0 3.579 2.65 33.843 33.843 0 0 0 9.024 2.379c4.178.57 8.391.842 12.608.813.973 0 1.963-.012 2.97-.036a143.08 143.08 0 0 0 11.496-.767 135.387 135.387 0 0 0 13.56-2.141 75.36 75.36 0 0 0 17.263-5.518 20.955 20.955 0 0 0 5.16-3.403 8.03 8.03 0 0 0 1.527-1.938c.382-.68.588-1.444.599-2.224 0-.147-.008-.293-.024-.44Z"/><path fill="#FFE632" d="M41.05 69.85h-.01l-.19.014c-.243.036-.503.066-.8.11a1.3 1.3 0 1 0 .381 2.572c.242-.037.502-.066.8-.11l-.19-1.286v1.3h.01a1.3 1.3 0 0 0 0-2.6Z"/><path fill="#BEBEC9" d="M53.914 68.399a35.963 35.963 0 0 0-.78-3.727 2.151 2.151 0 0 0-.42-.798 2.263 2.263 0 0 0-1.03-.681 3.283 3.283 0 0 0-1.035-.154 6.16 6.16 0 0 0-1.593.238c-.767.213-1.506.516-2.202.901a7.13 7.13 0 0 0-.744.487 2.309 2.309 0 0 0-.268-.24 3.037 3.037 0 0 0-1.115-.48 5.222 5.222 0 0 0-1.151-.12 7.701 7.701 0 0 0-3.345.784 4.619 4.619 0 0 0-1.358 1.02 12.881 12.881 0 0 0-1.838-.144 6.089 6.089 0 0 0-2.278.374c-.746.3-1.353.87-1.7 1.596a4.217 4.217 0 0 0-.379 1.823c.004.625.098 1.246.281 1.844.034.104.08.203.14.294 0 .003.453.714.947 1.472.248.38.505.77.726 1.094.11.163.212.31.302.434.086.124.18.243.28.355.346.365.785.63 1.268.766a4.45 4.45 0 0 0 1.276.172 6.769 6.769 0 0 0 2.028-.326c.29-.09.57-.211.834-.36.148-.085.286-.186.412-.302.119-.112.221-.24.304-.381.198.274.414.535.647.781.308.337.683.606 1.101.789.487.19 1.006.285 1.528.28a6.282 6.282 0 0 0 2.55-.594c.225-.104.444-.222.654-.352.257.15.53.27.815.357.482.142.983.212 1.485.209.863.01 1.715-.191 2.482-.586.41-.215.77-.516 1.055-.882.321-.419.506-.927.529-1.455.005-.122.007-.248.007-.377a28.287 28.287 0 0 0-.415-4.111Zm-16.016 4.71a1.903 1.903 0 0 1-.527-.062l-.108-.043a4.776 4.776 0 0 1-.127-.174 61.077 61.077 0 0 1-1.13-1.697c-.265-.41-.488-.758-.61-.95a3.97 3.97 0 0 1-.117-.905 1.68 1.68 0 0 1 .124-.701.58.58 0 0 1 .344-.314 3.708 3.708 0 0 1 1.288-.178c.362.003.725.026 1.085.07-.004.124.01.247.043.367l.04.128c.096.302.34 1.101.556 1.983.197.744.325 1.503.383 2.27a4.156 4.156 0 0 1-1.244.206Zm6.306.39a1.793 1.793 0 0 1-.326-.308c-.401-.484-.76-1-1.07-1.546-.57-.96-1.13-2.08-1.54-2.952a50.883 50.883 0 0 1-.493-1.076l-.059-.135a.567.567 0 0 1 .07-.107c.314-.306.697-.531 1.117-.656a5.286 5.286 0 0 1 1.673-.293c.228-.007.456.021.677.083.13.273.335.758.554 1.334.393 1.031.85 2.358 1.202 3.5.176.57.326 1.096.427 1.504.022.088.04.167.057.242-.533.301-1.13.472-1.74.5a1.524 1.524 0 0 1-.548-.09Zm6.896-.403a3.136 3.136 0 0 1-.844.114 2.3 2.3 0 0 1-.898-.159.57.57 0 0 1-.157-.095l-.003.002a1.243 1.243 0 0 0-.12-.209l-.013-.071a39.004 39.004 0 0 0-1.183-3.972c-.198-.578-.399-1.128-.593-1.642.037-.035.073-.073.105-.112l.004.003c.134-.132.284-.247.446-.342.454-.28.938-.51 1.442-.685a4.506 4.506 0 0 1 1.363-.29l.056.005c.198.756.445 1.95.642 3.17a26.08 26.08 0 0 1 .382 3.697c0 .093-.002.177-.005.254l-.078.08a1.63 1.63 0 0 1-.546.252Z"/><path fill="#FFE632" d="M47.226 100.577c-4.868.51-9.759.771-14.653.782l-.521-.001a95.41 95.41 0 0 1-12.673-.822 39.534 39.534 0 0 1-9.04-2.184 1.3 1.3 0 0 0-.975 2.41 41.95 41.95 0 0 0 9.654 2.349 97.81 97.81 0 0 0 13.024.847h.002l.529.001c4.983-.011 9.963-.276 14.92-.796a1.29 1.29 0 0 0 .882-.47 1.305 1.305 0 0 0 .137-1.444 1.304 1.304 0 0 0-1.286-.672ZM25.305 67.096a81.628 81.628 0 0 0-12.886 4.406 1.3 1.3 0 0 0 1.075 2.367 79.099 79.099 0 0 1 12.468-4.258 1.3 1.3 0 1 0-.657-2.515ZM23.64 106.982a64.93 64.93 0 0 1-7.323-.755 1.3 1.3 0 1 0-.429 2.564c2.523.407 5.067.67 7.62.788a1.299 1.299 0 0 0 1.027-2.167 1.302 1.302 0 0 0-.895-.43Z"/><path fill="#BEBEC9" d="M179.76 126.75h.003l.002-.001-.005.001ZM175.211 128.687l.005-.003.002-.002-.007.005ZM151.206 131.758l.001.001.001.001-.002-.002ZM83.69 42.77a38.142 38.142 0 0 1 11.76-2.665 1.3 1.3 0 0 0-.215-2.591 40.718 40.718 0 0 0-12.56 2.862 1.3 1.3 0 0 0 1.015 2.394ZM78.267 45.651a1.302 1.302 0 0 0-.657-2.315 1.3 1.3 0 0 0-.959.279 22.964 22.964 0 0 0-2.698 2.515 1.3 1.3 0 1 0 1.92 1.752 20.369 20.369 0 0 1 2.394-2.23ZM132.705 94.137a17.92 17.92 0 0 0 3.713-2.402 20.183 20.183 0 0 0 1.56-1.41 1.297 1.297 0 0 0-.953-2.208 1.296 1.296 0 0 0-.915.4l-.016.016a17.801 17.801 0 0 1-4.48 3.245 1.301 1.301 0 1 0 1.091 2.36ZM61.148 125.164v.001l-.002.001.002-.002Z"/></svg>