<svg xmlns="http://www.w3.org/2000/svg" width="200" height="200" fill="none"><path fill="#FFD93A" d="M92.125 45.75a13.56 13.56 0 0 0-13.875 20.5c6 9.625 4.125 16.75 10.25 23.375A19.763 19.763 0 0 0 112.25 94c8.375-4.125 15.375-15.25 18.375-16.125S142.125 67.75 136 57.25s-18.375-9.875-24.5-10.125-19.375-1.375-19.375-1.375Z"/><path fill="#FFD93A" d="M7.375 89.375c.783 4.438 11.125 9 38.625 6.375S84.375 85 84.25 81.375s-5.625-8.75-11.125-10.125-20.5-1.25-20.5-1.25l.25 3.625L45.125 75l-4.375-1.875-1.75 1.25-4.375-1.625S20.5 75.125 14 79.375s-7 7.875-6.625 10ZM38.675 103.842c2.847-.128 5.78-.335 8.789-.645a1.29 1.29 0 0 0 .882-.47 1.307 1.307 0 0 0 .287-.958 1.305 1.305 0 0 0-.477-.878 1.293 1.293 0 0 0-.96-.28c-3.198.33-6.306.54-9.311.66-.905.037-1.802.067-2.685.086-.898.018-1.795.036-2.668.036l-.51-.001h.002a95.588 95.588 0 0 1-12.675-.822 39.526 39.526 0 0 1-9.04-2.184 1.3 1.3 0 0 0-.975 2.41 41.997 41.997 0 0 0 9.654 2.349c4.318.571 8.67.854 13.025.847h.001l.518.001c1.128 0 2.28-.017 3.448-.047.884-.023 1.79-.064 2.695-.104ZM13.463 73.903a79.159 79.159 0 0 1 12.47-4.258 1.298 1.298 0 0 0 .937-1.589 1.3 1.3 0 0 0-1.595-.927 81.688 81.688 0 0 0-12.886 4.407 1.299 1.299 0 1 0 1.075 2.367ZM23.61 107.016a65.16 65.16 0 0 1-7.322-.755 1.3 1.3 0 0 0-.429 2.564c2.523.406 5.066.669 7.619.788a1.297 1.297 0 0 0 1.247-.738 1.306 1.306 0 0 0-.211-1.434 1.299 1.299 0 0 0-.903-.425Z"/><path fill="#191C22" d="M179.726 126.782h.003l.004-.001-.007.001Z"/><path fill="#191C22" d="M192.833 32.518a4.358 4.358 0 0 0-1.411-1.636 3.64 3.64 0 0 0-2.054-.613 5.389 5.389 0 0 0-2.22.533c-.809.383-1.567.864-2.259 1.432a36.022 36.022 0 0 0-5.029 5.395 100.35 100.35 0 0 0-8.152 12.06 65.376 65.376 0 0 0-1.723 3.22 45.486 45.486 0 0 0-17.258-21.255c-9.164-6.216-21.591-10.506-37.789-12.082-3.995-.389-7.763-.581-11.304-.577a68.945 68.945 0 0 0-23.242 3.546 43.947 43.947 0 0 0-8.677 4.181c-.063-.935-.141-2.055-.239-3.133a45.814 45.814 0 0 0-.248-2.241 15.559 15.559 0 0 0-.155-.923 5.25 5.25 0 0 0-.215-.786 7.616 7.616 0 0 0-1.297-2.326 3.732 3.732 0 0 0-1.064-.858 3.041 3.041 0 0 0-1.424-.353 3.903 3.903 0 0 0-1.927.56 10.688 10.688 0 0 0-2.83 2.602 39.229 39.229 0 0 0-3.332 4.974c-2.058 3.545-3.864 8.622-5.433 13.685-1.563 5.057-2.868 10.088-3.814 13.395-.02.098-.028.198-.024.297-.429.26-.706.446-.723.458-.13.092-.242.207-.33.34-.038.019-.076.04-.112.062a7.294 7.294 0 0 0-1.474 1.867 18.234 18.234 0 0 0-1.693 4.163 27.135 27.135 0 0 0-.932 5.37l-.003.063a5.483 5.483 0 0 0-.9-.079 7.7 7.7 0 0 0-3.344.785 4.62 4.62 0 0 0-1.358 1.018 12.884 12.884 0 0 0-1.839-.143 6.091 6.091 0 0 0-2.277.374c-.747.3-1.353.87-1.7 1.596a4.219 4.219 0 0 0-.378 1.823c.003.625.097 1.247.28 1.844.005.013.013.024.017.036a84.37 84.37 0 0 0-13.143 3.602c-2.638.922-5.139 2.2-7.432 3.799-.353.266-.692.55-1.016.851a9.632 9.632 0 0 0-1.74 1.639 16.312 16.312 0 0 0-2.375 3.837 10.95 10.95 0 0 0-1.04 4.277c-.001.22.01.439.033.657.092.779.39 1.519.863 2.144a9.07 9.07 0 0 0 3.578 2.649 33.839 33.839 0 0 0 9.022 2.38c4.177.57 8.388.842 12.604.813.635 0 1.295-.017 1.946-.028.12.476.242.952.37 1.433.187.7.381 1.405.583 2.112.883-.019 1.78-.049 2.685-.086-.263-.899-.518-1.8-.756-2.695-.074-.28-.143-.555-.215-.834 3.167-.117 6.466-.344 9.867-.71a138.86 138.86 0 0 0 12.223-1.861c.77 4.671 1.416 9.436 1.628 13.042.044.749.066 1.467.066 2.153a15.802 15.802 0 0 1-1.333 7.159 6.233 6.233 0 0 1-3.973 3.277c-.78.234-1.59.354-2.404.357a8.833 8.833 0 0 1-5.391-1.965 20.207 20.207 0 0 1-5.098-6.186 50.086 50.086 0 0 1-3.824-9.166c-.905.04-1.81.081-2.695.104a54.279 54.279 0 0 0 4.261 10.352 22.747 22.747 0 0 0 5.788 6.97 12.378 12.378 0 0 0 4.052 2.071 11.523 11.523 0 0 0-.363 2.81 10.05 10.05 0 0 0 1.242 4.895 10.577 10.577 0 0 0 3.73 3.851c.574.357 1.45.947 2.519 1.645 3.22 2.097 8.175 5.202 13.126 6.558a26.481 26.481 0 0 0 6.843 1.054c.216.001.428-.009.64-.018a37.048 37.048 0 0 0-.107 2.741c.004 6.909 1.775 14.47 4.378 21.941a1.298 1.298 0 0 0 .875.823 21.21 21.21 0 0 0 2.693.492l-.296 2.232c-.006.041-.002.082-.004.124l-1.854-.043a1.295 1.295 0 0 0-1.317 1.114 29.325 29.325 0 0 0-.242 3.991 36.925 36.925 0 0 0 .226 4.142c.13 1.291.39 2.566.776 3.805a1.298 1.298 0 0 0 2.394.166 1.3 1.3 0 0 0 .072-.99 16.805 16.805 0 0 1-.659-3.278 34.345 34.345 0 0 1-.113-6.323l54.605 1.268a58.995 58.995 0 0 1-.574 3.914 34.177 34.177 0 0 1-.733 3.201 12.23 12.23 0 0 1-.971 2.507 1.3 1.3 0 0 0 2.266 1.275 15.775 15.775 0 0 0 1.338-3.547 55.976 55.976 0 0 0 1.405-8.512 1.284 1.284 0 0 0-.33-.975 1.289 1.289 0 0 0-.935-.43l-4.026-.093c.007-.035.026-.063.03-.098.002-.025.305-2.956.305-5.971a29.437 29.437 0 0 0-.148-3.086 4.453 4.453 0 0 0 1.52.273 6.466 6.466 0 0 0 2.493-.575 1.295 1.295 0 0 0 .8-1.2 38.924 38.924 0 0 0-.426-4.661 91.086 91.086 0 0 0-2.489-11.855c1.634.432 3.29.774 4.962 1.023h.001c.336.05.676.075 1.015.076a6.314 6.314 0 0 0 3.325-.955 5.1 5.1 0 0 0 1.928.819c3.333.576 6.709.869 10.091.876.981 0 1.895-.031 2.698-.102a8.858 8.858 0 0 0 6.699-3.69 8.711 8.711 0 0 0 2.57.453 6.963 6.963 0 0 0 2.256-.391c.694-.232 1.342-.525 2.071-.833a16.341 16.341 0 0 1 3.138-.935c.457-.099.892-.191 1.33-.327.469-.135.911-.35 1.308-.635a2.036 2.036 0 0 0 .844-1.656 2.525 2.525 0 0 0-.37-1.271 3.888 3.888 0 0 0-1.197-1.238 3.172 3.172 0 0 0-1.723-.57l-.13.004c-.518.048-1.032.128-1.54.24a12.34 12.34 0 0 1-.768.127c.008-.038.015-.074.025-.114.065-.277.156-.595.257-.923a5.35 5.35 0 0 0 1.475-.303 2.84 2.84 0 0 0 .951-.592c.293-.284.514-.635.643-1.022a3.34 3.34 0 0 0 .204-1.07 2.076 2.076 0 0 0-.156-.805 1.922 1.922 0 0 0-.279-.462c.138-.104.278-.203.412-.313.277-.218.528-.469.746-.746a2.647 2.647 0 0 0 .518-1.6 3.356 3.356 0 0 0-.478-1.699 2.657 2.657 0 0 0-.553-.665 1.932 1.932 0 0 0-.444-.285 1.636 1.636 0 0 0-.682-.152l-.188.012a3.083 3.083 0 0 0-.465.101c-.665.205-1.318.451-1.954.734-.736.309-1.447.677-2.125 1.1-.371.254-.72.538-1.045.849a11.227 11.227 0 0 0-1.877.122 6.036 6.036 0 0 0-2.384.939c-.207.137-.605.383-1.093.681l-.82.505c-.071-.054-.132-.122-.205-.173a9.249 9.249 0 0 0-5.404-1.562c-.539.001-1.078.034-1.614.098a106.46 106.46 0 0 0-6.132.931 74.872 74.872 0 0 0-3.175.64l-.244.058-.015-.016a9.216 9.216 0 0 0-2.756-1.568 39.783 39.783 0 0 0-13.179-2.511 12.57 12.57 0 0 0-4.853.784 16.628 16.628 0 0 0-4.859-3.519 31.563 31.563 0 0 0-9.413-2.58l.191-2.073c.638.011 1.281.026 1.908.026 14.595-.001 26.008-2.781 34.602-7.867a39.467 39.467 0 0 0 17.469-21.452c.017-.07.027-.142.031-.215a15.381 15.381 0 0 0 1.783-.87 15.917 15.917 0 0 0 2.366-1.638c.084-.083.156-.177.213-.28.495-.39.925-.855 1.277-1.377a15.702 15.702 0 0 0 1.91-4.12 30.59 30.59 0 0 0 1.186-5.558c.089-.73.138-1.447.169-2.154.133-.017.264-.055.386-.113a8.42 8.42 0 0 0 3.589-3.88c1.097-2.229 3.177-7.07 5.167-12.166a185.354 185.354 0 0 0 2.763-7.507 56.262 56.262 0 0 0 1.78-6.088c.547-2.438.846-4.926.893-7.425a11.242 11.242 0 0 0-.967-5.12ZM56.035 38.691c1.535-4.979 3.337-9.96 5.197-13.145a29.698 29.698 0 0 1 3.924-5.573c.374-.407.803-.76 1.275-1.05.192-.128.413-.203.642-.221l.214.054c.213.135.39.318.52.535.253.398.46.823.62 1.267a3 3 0 0 1 .099.39c.195 1.145.332 2.3.412 3.459.114 1.372.2 2.768.262 3.683.014.097.04.193.078.284a38.67 38.67 0 0 0-9.954 10.818 47.962 47.962 0 0 0-4.777 10.46 1.293 1.293 0 0 0-.508.03c-.428.118-.849.258-1.261.42.886-3.201 1.986-7.301 3.257-11.41Zm-8.993 25.372a23.685 23.685 0 0 1 1.28-6.222c.267-.758.6-1.49.997-2.188.242-.447.553-.853.921-1.203.062-.064.116-.134.163-.209.019-.011.04-.012.059-.025l.016-.01c.104-.071.676-.45 1.47-.872.56-.3 1.14-.565 1.733-.795a73.091 73.091 0 0 0-2.017 10.691l-.008-.004a3.278 3.278 0 0 0-1.035-.154c-.54.01-1.075.09-1.593.24-.69.194-1.356.461-1.988.797.001-.016 0-.03.002-.046Zm1.993 8.647a38.958 38.958 0 0 0-1.182-3.972 57.796 57.796 0 0 0-.593-1.64c.037-.035.072-.073.105-.113l.004.004c.134-.132.284-.247.446-.342a7.37 7.37 0 0 1 1.442-.685 4.503 4.503 0 0 1 1.364-.29l.054.005c.199.756.446 1.95.643 3.171.215 1.222.343 2.458.382 3.698 0 .091-.002.175-.005.252l-.078.08c-.165.117-.35.202-.547.252a3.137 3.137 0 0 1-.843.113 2.3 2.3 0 0 1-.898-.158.574.574 0 0 1-.157-.095l-.003.003a1.25 1.25 0 0 0-.12-.21c-.006-.025-.009-.047-.014-.073Zm-8.278-5.301c.314-.306.697-.531 1.117-.656a5.285 5.285 0 0 1 1.672-.294c.229-.006.457.022.677.084.13.273.335.757.554 1.334.393 1.03.85 2.357 1.203 3.498.175.57.325 1.096.427 1.504l.057.244c-.533.3-1.13.472-1.741.5a1.525 1.525 0 0 1-.549-.09 1.787 1.787 0 0 1-.326-.309c-.401-.483-.759-1-1.07-1.546-.57-.959-1.13-2.08-1.54-2.952a50.929 50.929 0 0 1-.492-1.075l-.06-.135a.575.575 0 0 1 .071-.107Zm-5.383 1.202a.579.579 0 0 1 .344-.314 3.707 3.707 0 0 1 1.287-.178 9.48 9.48 0 0 1 1.085.07c-.004.123.01.247.043.366l.04.128c.096.302.34 1.101.556 1.983.197.744.325 1.504.383 2.27a4.156 4.156 0 0 1-1.244.206 1.905 1.905 0 0 1-.527-.062l-.108-.043a4.63 4.63 0 0 1-.127-.174 61.462 61.462 0 0 1-1.129-1.696c-.265-.41-.488-.757-.61-.95a3.97 3.97 0 0 1-.118-.905 1.68 1.68 0 0 1 .125-.701Zm11.128 25.836c-4.716.516-9.457.781-14.201.793a69.627 69.627 0 0 1-17.164-1.775 16.44 16.44 0 0 1-4.8-1.969 4.593 4.593 0 0 1-1.145-1.038 1.8 1.8 0 0 1-.372-.882 3.524 3.524 0 0 1-.02-.379 9.154 9.154 0 0 1 1.06-3.708c.02.033.036.069.058.102a6.65 6.65 0 0 0 2.147 1.98A15.522 15.522 0 0 0 15.242 89a1.3 1.3 0 0 0 1.646-.818c.032-.116.047-.236.045-.357a1.283 1.283 0 0 0-.863-1.29 10.982 10.982 0 0 1-3.235-1.59 3.28 3.28 0 0 1-.734-.766 1.423 1.423 0 0 1-.239-.629l-.007-.13c.026-.419.179-.82.439-1.149a11.027 11.027 0 0 1 3.68-2.9 52.128 52.128 0 0 1 11.597-4.293c2.136-.56 4.439-1.071 6.86-1.528.108.163.214.323.312.466.11.163.211.309.301.434.086.123.18.242.28.355a2.8 2.8 0 0 0 1.269.765c.414.12.844.177 1.276.172a6.766 6.766 0 0 0 2.028-.325c.29-.09.569-.212.834-.361.148-.085.286-.186.412-.302.118-.112.22-.24.303-.38.198.274.414.535.647.781.308.337.683.605 1.101.788.487.19 1.006.285 1.528.28a6.285 6.285 0 0 0 3.204-.946c.257.151.53.271.816.358a5.16 5.16 0 0 0 1.485.208 5.294 5.294 0 0 0 2.481-.585c.41-.216.77-.516 1.055-.882.322-.42.507-.927.53-1.455a8.8 8.8 0 0 0 .007-.375c0-.34-.02-.712-.048-1.1.904-.022 1.798-.037 2.67-.037a62.822 62.822 0 0 1 15.483 1.6 14.75 14.75 0 0 1 4.302 1.763c.384.245.723.552 1.004.91.17.212.278.467.313.737l.007.13c-.025.418-.178.82-.438 1.149a11.027 11.027 0 0 1-3.68 2.9 52.136 52.136 0 0 1-11.597 4.293 114.636 114.636 0 0 1-16.526 2.952 1.283 1.283 0 0 0-1.135 1.235c-.011.065-.017.131-.018.197a1.3 1.3 0 0 0 1.432 1.153 101.668 101.668 0 0 0 24.014-5.253c2.638-.923 5.139-2.2 7.432-3.799a9.88 9.88 0 0 0 2.214-2.196c.277-.393.5-.82.661-1.272.362.414.69.856.984 1.322.48.731.79 1.56.908 2.427l.008.158a2.404 2.404 0 0 1-.51 1.35 12.32 12.32 0 0 1-4.117 3.25 57.79 57.79 0 0 1-12.86 4.762 126.928 126.928 0 0 1-18.3 3.27Zm26.422-50.284a22.97 22.97 0 0 1 2.699-2.515 1.3 1.3 0 1 1 1.615 2.037 20.357 20.357 0 0 0-2.394 2.231 1.3 1.3 0 0 1-1.92-1.753Zm8.117 10.358a12.71 12.71 0 0 1 4.073-5.495 7.157 7.157 0 0 1 4.201-1.407c.121 0 .244.004.367.01h.001a5.736 5.736 0 0 1 2.962.982 6.643 6.643 0 0 1 2.005 2.232 12.732 12.732 0 0 1 1.425 6.23 18.884 18.884 0 0 1-1.287 6.83 11.68 11.68 0 0 1-3.895 5.325 7.164 7.164 0 0 1-4.683 1.33 6.34 6.34 0 0 1-5.12-3.064 11.27 11.27 0 0 1-1.474-5.948c.016-2.412.5-4.798 1.425-7.026Zm.606-16.111a40.724 40.724 0 0 1 12.56-2.863 1.299 1.299 0 1 1 .215 2.59 38.155 38.155 0 0 0-11.76 2.667 1.3 1.3 0 0 1-1.015-2.394Zm28.393 45.411a1.302 1.302 0 0 1 .839 1.614 10.92 10.92 0 0 1-4.993 5.983 9.948 9.948 0 0 1-4.695 1.114c-.479 0-.959-.028-1.435-.084a10.23 10.23 0 0 1-5.082-1.93 9.578 9.578 0 0 1-2.738-3.284 11.48 11.48 0 0 1-1.249-4.41 1.3 1.3 0 0 1 1.25-1.353c.015 0 .46-.017 1.23-.017 5.71-.04 11.395.758 16.873 2.367Zm12.349-31.596h.001a6.458 6.458 0 0 1 3.44 1.197 8.16 8.16 0 0 1 2.34 2.682 15.398 15.398 0 0 1 1.729 7.432 18.147 18.147 0 0 1-1.168 6.512 10.31 10.31 0 0 1-3.707 4.94 7.199 7.199 0 0 1-4.036 1.21 8.16 8.16 0 0 1-.554-.02 7.303 7.303 0 0 1-3.517-1.145A7.882 7.882 0 0 1 114.5 72.5a13.643 13.643 0 0 1-1.749-7.055c-.003-2.32.433-4.62 1.285-6.778a11.287 11.287 0 0 1 3.864-5.166 7.15 7.15 0 0 1 4.49-1.276h-.001Zm10.195 40.587a17.802 17.802 0 0 0 4.48-3.246l.016-.016a1.308 1.308 0 0 1 .915-.403 1.3 1.3 0 0 1 .953 2.211c-.495.497-1.015.968-1.559 1.41a17.942 17.942 0 0 1-3.713 2.403 1.3 1.3 0 1 1-1.092-2.359Zm-32.08 26.328-.238 2.586a32.54 32.54 0 0 0-11.885 3.996 22.38 22.38 0 0 0-2.278 1.576l-.034-.058a31.057 31.057 0 0 0-8.433-8.356 48.37 48.37 0 0 0-11.066-5.803 12.424 12.424 0 0 0-3.34-.732c.042-.64.068-1.298.068-1.983 0-.742-.024-1.511-.071-2.306a83.567 83.567 0 0 0-.367-4.16 41.898 41.898 0 0 0 7.293 5.647c7.475 4.608 17.413 7.888 30.351 9.593Zm-23.326 22.412a23.95 23.95 0 0 1-6.161-.963 37.795 37.795 0 0 1-8.756-3.959 89.836 89.836 0 0 1-3.63-2.267c-1.055-.688-1.921-1.273-2.568-1.675a7.979 7.979 0 0 1-2.828-2.903 7.446 7.446 0 0 1-.917-3.636c.006-.343.033-.685.08-1.025a6.708 6.708 0 0 0 8.723.074 6.687 6.687 0 0 0 1.398-8.652c.155-.531.283-1.069.384-1.612a9.71 9.71 0 0 1 2.782.591 45.042 45.042 0 0 1 13.542 7.891 24.15 24.15 0 0 1 4.64 5.207 9.703 9.703 0 0 1 1.698 5.075 6.15 6.15 0 0 1-.29 1.881 7.625 7.625 0 0 1-8.097 5.973Zm92.967-8.027c.492-.302.891-.546 1.173-.733.221-.147.459-.269.708-.362a1.265 1.265 0 0 0 .477 1.005 1.3 1.3 0 0 0 1.825-.219l.012-.015c.07-.088.435-.541.894-1.04a8.932 8.932 0 0 1 1.383-1.274 13.979 13.979 0 0 1 2.015-1.007c.306-.128.589-.236.837-.326l.005.017-.005.049a3.375 3.375 0 0 1-.505.442c-.434.335-1.045.744-1.627 1.238a6.283 6.283 0 0 0-.842.845 3.377 3.377 0 0 0-.635 1.178c-.124.437-.434 1.29-.712 2.161a18.22 18.22 0 0 0-.376 1.329c-.111.43-.172.872-.183 1.317-.005.286.041.571.137.841.068.184.166.355.29.506.15.181.336.328.548.43h.001c.395.177.825.263 1.258.251a9.46 9.46 0 0 0 1.71-.21c.39-.086.783-.151 1.179-.196.066.015.129.04.187.074.093.051.18.112.258.183-.029.01-.045.019-.077.029-.41.13-1.051.249-1.853.435-.976.221-1.932.527-2.856.915-.756.322-1.361.589-1.877.76a4.367 4.367 0 0 1-1.435.258 5.25 5.25 0 0 1-1.277-.177 9.204 9.204 0 0 0 .621-3.284c0-.879-.13-1.753-.386-2.593a9.729 9.729 0 0 0-1.226-2.609l.354-.218Zm-16.764 8.731.001-.001a4.582 4.582 0 0 0-.392-6.465c-.085-.075-.181-.13-.27-.198a8.865 8.865 0 0 0-.243-1.41c2.739-.598 6.376-1.168 8.569-1.424.435-.052.873-.079 1.311-.08a6.654 6.654 0 0 1 3.909 1.089 6.08 6.08 0 0 1 2.264 3.344c.181.594.273 1.212.273 1.834a6.91 6.91 0 0 1-4.742 6.456 7.28 7.28 0 0 1-1.501.252c-.696.062-1.544.093-2.468.093a57.714 57.714 0 0 1-9.598-.83 2.435 2.435 0 0 1-.373-.124c.273-.346.524-.71.75-1.089a4.563 4.563 0 0 0 2.51-1.447Zm-18.139-11.946c2.898.057 5.779.452 8.586 1.176 1.23.301 2.439.684 3.619 1.145a7.146 7.146 0 0 1 1.958 1.06c.262.288.447.638.536 1.017.172.638.254 1.297.244 1.958a11.7 11.7 0 0 1-1.521 5.701 6.175 6.175 0 0 1-1.731 1.943 3.752 3.752 0 0 1-2.185.695 4.544 4.544 0 0 1-.638-.048 43.184 43.184 0 0 1-6.228-1.396 61.92 61.92 0 0 0-5.151-11.919 16.965 16.965 0 0 0-.632-1.005 12.734 12.734 0 0 1 3.143-.327Zm-4.762 2.634a67.8 67.8 0 0 1 6.804 18.231 86.619 86.619 0 0 1 1.4 7.541c.194 1.405.309 2.569.363 3.389a2.843 2.843 0 0 1-.655.092 1.94 1.94 0 0 1-.783-.171c-.424-.167-1-.544-1.846-.905a8.465 8.465 0 0 0-3.388-.647 15.32 15.32 0 0 0-2.841.296 134.74 134.74 0 0 0-13.842 3.461 88.965 88.965 0 0 1-13.773 2.95c-3.3.468-6.628.711-9.96.726a44.993 44.993 0 0 1-6.29-.397 23.871 23.871 0 0 1-1.351-.228c-2.417-7.072-4.01-14.145-4.007-20.407 0-1.06.047-2.095.14-3.104l.035-.008a7.57 7.57 0 0 0 6.92-1.516 7.64 7.64 0 0 0 .314-11.435 12.42 12.42 0 0 0-.405-1.167 20.012 20.012 0 0 1 2.404-1.694 27.397 27.397 0 0 1 7.883-3.061c.031.024.056.054.09.076a26.176 26.176 0 0 0 12.926 3.555c.676 0 1.368-.03 2.073-.095a8.987 8.987 0 0 0 4.757-1.734 6.172 6.172 0 0 0 1.204-1.212c1.982.37 3.909.986 5.739 1.832a13.717 13.717 0 0 1 6.089 5.632Zm21.014-22.7c-7.78 4.606-18.226 7.296-31.749 7.485a2.131 2.131 0 0 0-.411-1.057 5.13 5.13 0 0 0-1.488-1.271 16.499 16.499 0 0 0-3.541-1.54 27.104 27.104 0 0 0-4.887-1.05 24.263 24.263 0 0 0-2.939-.176 20.834 20.834 0 0 0-5.761.745 7.45 7.45 0 0 0-2.022.895c-.298.196-.56.442-.775.727-.231.314-.369.686-.397 1.075a85.804 85.804 0 0 1-17.035-4.372c-8.132-3.112-14.021-7.255-18.19-12.21-.227-1.604-.48-3.236-.749-4.859a90.26 90.26 0 0 0 10.82-3.064 35.594 35.594 0 0 0 3.998 2.532c6.561 3.565 15.434 6.049 27.173 7.267 3.72.398 7.457.605 11.198.619a58.469 58.469 0 0 0 16.84-2.152c6.986-2.099 11.95-5.723 15.236-10.417 3.29-4.692 4.902-10.38 5.47-16.594.138-1.51.212-3.015.212-4.508a35.575 35.575 0 0 0-2.042-12.342 29.728 29.728 0 0 0-12.807-15.215c-6.574-4.06-15.608-6.927-27.786-8.189-3.452-.37-6.921-.56-10.393-.573a54.609 54.609 0 0 0-17.034 2.362 27.797 27.797 0 0 0-15.116 11.126c-3.252 4.91-4.91 10.753-5.772 16.959a45.35 45.35 0 0 0-.451 6.216c0 .082.004.162.005.244a96.632 96.632 0 0 0-4.18-.098c-.43 0-.88.013-1.317.019a1.263 1.263 0 0 0-.156-.684 69.792 69.792 0 0 0-1.442-2.35c.02-.211.027-.417.047-.63a65.575 65.575 0 0 1 3.83-17.212c3.031-7.848 7.83-14.376 15.158-19.002 7.33-4.622 17.257-7.354 30.593-7.355 3.453 0 7.138.188 11.053.565 15.877 1.544 27.867 5.733 36.58 11.646a42.734 42.734 0 0 1 17.065 22.147c.044.109.102.21.174.303a19.543 19.543 0 0 0-.579 1.735 8.54 8.54 0 0 0-.336 2.171c0 .274.025.546.077.815a6.84 6.84 0 0 0-1.964 1.908 19.364 19.364 0 0 0-2.464 5.201 38.505 38.505 0 0 0-1.541 7.16 41.856 41.856 0 0 0-.316 5.042 24.399 24.399 0 0 0 .989 7.457c.28.918.726 1.776 1.316 2.532.285.35.627.647 1.011.88a3.04 3.04 0 0 0 1.321.424c.195.015.389.022.58.022.24 0 .476-.016.709-.036a36.652 36.652 0 0 1-15.815 18.677Zm24.978-33.588a24.403 24.403 0 0 1-1.877 7.138 7.361 7.361 0 0 1-1.205 1.907 1.889 1.889 0 0 1-.443.362.35.35 0 0 1-.151.055h-.004l-.051-.024a1.503 1.503 0 0 1-.43-.529 7.69 7.69 0 0 1-.742-2.312 20.365 20.365 0 0 1-.294-3.607c.003-1.203.079-2.405.227-3.598a1.3 1.3 0 1 0-2.581-.316 32.419 32.419 0 0 0-.246 3.914c-.044 1.977.22 3.95.783 5.845a6.488 6.488 0 0 0 1.064 2.053c.057.07.125.132.187.199a8.821 8.821 0 0 1-4.109 1.26c-.129 0-.256-.005-.382-.014l-.193-.068a2.11 2.11 0 0 1-.659-.778 10.197 10.197 0 0 1-.998-3.104 26.819 26.819 0 0 1-.385-4.751c.004-1.58.103-3.158.297-4.726a31.13 31.13 0 0 1 2.494-9.36 9.618 9.618 0 0 1 1.649-2.533c.198-.212.427-.392.68-.534a.892.892 0 0 1 .409-.12h.029c.594.062 1.17.238 1.697.518.939.485 1.82 1.076 2.626 1.762a18.979 18.979 0 0 1 1.08.97l.057.056.013.014c.016.016.037.02.053.036.032.082.072.161.12.235a6.944 6.944 0 0 1 1.01 2.55c.318 1.468.472 2.967.46 4.469 0 1.013-.062 2.025-.185 3.03Zm4.393-6.982a6.44 6.44 0 0 1-1.673 2.195 21.397 21.397 0 0 0-.461-3.295 9.222 9.222 0 0 0-1.504-3.579 1.18 1.18 0 0 0-.097-.083 1.287 1.287 0 0 0-.258-.396 20.548 20.548 0 0 0-2.249-1.93 14.639 14.639 0 0 0-2.244-1.39 8.225 8.225 0 0 0-1.78-.638 5.857 5.857 0 0 0-.378-.072 1.41 1.41 0 0 1-.03-.324c.009-.334.051-.666.127-.991.085-.395.191-.784.318-1.167a37.743 37.743 0 0 1 2.776-6.038 96.798 96.798 0 0 1 6.778-10.494 70.017 70.017 0 0 1 3.489-4.37 24.151 24.151 0 0 1 2.833-2.836 8.39 8.39 0 0 1 1.712-1.097c.356-.18.746-.281 1.144-.3.215-.007.426.053.605.171.327.266.57.62.701 1.02-.15.048-.296.106-.437.175a6.829 6.829 0 0 0-1.638 1.27 29.535 29.535 0 0 0-3.07 3.778 69.929 69.929 0 0 0-4.687 7.725 32.322 32.322 0 0 0-2.924 7.187 11.453 11.453 0 0 0-.259 2.448 17.332 17.332 0 0 0 2.704 8.664 2.726 2.726 0 0 0 1.915 1.282 82.775 82.775 0 0 1-1.413 3.085Z"/></svg>