<svg xmlns="http://www.w3.org/2000/svg" width="200" height="200" fill="none"><g fill="#191C22"><path d="M188.124 110.298c-.227-.123-5.256-2.912-21.837-6.434 1.509-7.246 2.33-14.144 2.331-20.632 0-7.578-1.117-14.603-3.57-20.934-3.672-9.502-10.393-17.391-20.545-23.097-9.238-5.2-21.292-8.636-36.575-10.122.762-3.655 2.178-7.575 4.547-10.202.51-.57.585-1.404.184-2.056a1.715 1.715 0 0 0-1.914-.76c-.056.015-2.681.726-5.966 2.181-2.988 1.335-6.523 3.26-9.202 5.988l-4.98-1.443a1.722 1.722 0 0 0-1.917.712l-3.26 4.987c-8.605.454-16.138 1.763-22.658 3.884-12.304 3.994-21.061 10.9-26.627 19.99-5.573 9.086-7.97 20.252-7.97 32.791 0 2.476.102 5.011.284 7.593-7.257.536-11.85 1.384-14.787 2.212-1.986.562-3.223 1.117-4.024 1.592-.798.474-1.17.88-1.347 1.142a1.725 1.725 0 0 0 .072 2.019c2.594 3.333 6.009 5.786 8.78 7.449a42.91 42.91 0 0 0 2.916 1.594l-5.904 7.628a1.729 1.729 0 0 0-.149 1.887c.114.213.788 1.318 2.576 2.553 1.575 1.092 4.006 2.281 7.651 3.118 1.718 8.63 6.99 15.79 14.507 21.404 7.622 5.699 17.566 9.899 28.767 12.732.015.005.026.017.042.021.905.236 1.205.507 1.268.588l.06.113c.015.05.031.141.031.288.002.206-.037.516-.09.899-.029.205-.108.434-.33.743-.326.459-.999 1.057-2.07 1.668-1.067.615-2.514 1.247-4.328 1.862-13.314 4.533-24.636 12.564-24.711 12.61a1.727 1.727 0 0 0-.414 2.404 1.718 1.718 0 0 0 2.399.414l.116-.081c1.21-.846 11.789-8.034 23.715-12.08 2.616-.891 4.65-1.832 6.178-2.934.763-.553 1.405-1.152 1.902-1.839.497-.682.843-1.469.954-2.305v-.005c.046-.349.12-.805.121-1.356 0-.381-.038-.814-.173-1.271a3.841 3.841 0 0 0-1.31-1.919c-.514-.408-1.151-.694-1.863-.933-.091-.041-.168-.103-.269-.128C57.687 152.084 48 147.97 40.8 142.578c-7.027-5.268-11.659-11.669-13.188-19.3.061-.131.134-.255.162-.405a1.725 1.725 0 0 0-1.38-2.009h-.001c-4.119-.761-6.517-1.957-7.854-2.882a8.473 8.473 0 0 1-.79-.615l6.36-8.218a1.729 1.729 0 0 0-.723-2.659l-.013-.005c-.185-.075-2.205-.912-4.706-2.434-2.037-1.236-4.379-2.94-6.32-5 .771-.329 1.929-.733 3.673-1.141 3.83-.906 10.365-1.835 21.237-2.155a1.724 1.724 0 0 0 1.67-1.775 1.723 1.723 0 0 0-1.772-1.674 217.57 217.57 0 0 0-5.27.22 104.237 104.237 0 0 1-.278-7.374c0-8.072 1.032-15.438 3.243-21.924 3.328-9.73 9.238-17.491 18.516-22.943 8.747-5.13 20.572-8.176 36.058-8.508 3.382.051 6.379.33 8.678 1.205 1.322.5 2.417 1.17 3.331 2.103.912.935 1.664 2.148 2.219 3.832a1.722 1.722 0 0 0 3.355-.594l-.001-.02c-.001-.05-.004-.195-.004-.42-.001-.86.044-2.898.357-5.4 20.565 1.965 34.759 7.517 43.872 15.7 4.874 4.376 8.337 9.508 10.609 15.364 2.269 5.854 3.337 12.444 3.337 19.685 0 6.2-.787 12.874-2.26 19.939a314.53 314.53 0 0 0-5.605-1.065 1.72 1.72 0 0 0-1.999 1.391 1.725 1.725 0 0 0 1.388 2.004c11.793 2.132 19.292 4.116 23.811 5.552a62.142 62.142 0 0 1 3.979 1.397c-1.927 2.249-4.539 3.81-6.872 4.799a26.795 26.795 0 0 1-3.607 1.235 21.736 21.736 0 0 1-1.36.311l-.064.011-.012.002a1.728 1.728 0 0 0-1.195 2.596l4.546 7.524c-1.397.682-4.19 1.642-9.13 1.877-.272.012-.516.1-.739.223-.64.11-1.193.571-1.373 1.241-1.152 4.269-3.425 8.034-6.725 11.338-4.945 4.952-12.234 8.83-21.288 11.443-9.05 2.615-19.842 3.968-31.72 3.967-.272 0-.546 0-.82-.002a1.723 1.723 0 0 0-1.728 1.718 1.722 1.722 0 0 0 1.713 1.732c.279.002.557.002.835.002a148.52 148.52 0 0 0 11.083-.41c.71 1.103 1.752 2.04 3.088 2.905 1.49.954 3.345 1.813 5.547 2.561 6.356 2.159 12.341 5.209 16.716 7.716a111.758 111.758 0 0 1 5.212 3.171 77.993 77.993 0 0 1 1.787 1.192l.117.082c.776.549 1.85.364 2.398-.414a1.728 1.728 0 0 0-.413-2.404c-.076-.046-11.398-8.077-24.712-12.61-1.995-.677-3.617-1.442-4.797-2.2-.212-.135-.391-.269-.574-.403 9.878-1.079 18.721-3.234 26.094-6.471 5.518-2.426 10.221-5.461 13.893-9.133 3.408-3.405 5.905-7.379 7.299-11.845 8.452-.523 11.479-3.178 11.786-3.494a1.725 1.725 0 0 0 .267-2.125l-4.198-6.949a29.965 29.965 0 0 0 3.42-1.212c3.062-1.311 6.749-3.508 9.255-7.202.221-.146.42-.328.559-.574a1.727 1.727 0 0 0-.654-2.35Z"/><path d="M66.297 58.682c-7.205.28-13.314 5.022-15.352 11.48a42.197 42.197 0 0 0-1.943 12.567c0 1.869.133 3.505.329 4.842.2 1.345.442 2.36.743 3.128.263.66.544 1.379.946 2.114.592 1.1 1.527 2.246 2.959 3.01 1.429.77 3.245 1.17 5.64 1.203.58.008 1.126.012 1.642.012 3.177-.004 5.158-.142 6.774-.577a8.336 8.336 0 0 0 2.125-.894c.62-.37 1.145-.789 1.672-1.231 1.415-1.211 2.309-2.942 3.028-4.969 1.062-3.048 1.674-6.864 2.074-10.89.397-4.021.564-8.24.661-11.996v-.017l.002-.15a6.403 6.403 0 0 0-2.776-5.294c-2.522-1.733-5.301-2.355-7.884-2.35-.215 0-.428.004-.64.012Zm-5.251 23.702a1.72 1.72 0 0 1-2.11-1.215l-.11-.403a1.72 1.72 0 1 1 3.323-.9l.11.403a1.725 1.725 0 0 1-1.213 2.115Zm9.042-13.511c.692 1.517.93 3.24.937 4.882 0 .844-.07 1.664-.206 2.424-.139.762-.333 1.46-.656 2.104-.22.427-.493.851-.971 1.225-.272.21-.628.396-1.04.475l-.006.001c-.263.05-.53.076-.797.076-1.077 0-2.041-.417-2.805-.991-.77-.579-1.384-1.319-1.889-2.136-.998-1.64-1.589-3.602-1.599-5.523.002-1.044.18-2.094.69-3.06a4.463 4.463 0 0 1 2.573-2.183h.002v-.001a5.123 5.123 0 0 1 1.601-.27 4.15 4.15 0 0 1 2.636.931c.701.57 1.18 1.29 1.53 2.046ZM128.321 64.763a6.545 6.545 0 0 0-3.608 4.975c-.678 4.845-1.247 10.597-1.248 15.776.001 2.758.159 5.351.572 7.602.207 1.126.478 2.168.843 3.112.367.944.827 1.798 1.458 2.52a8.126 8.126 0 0 0 1.929 1.632c1.096.66 2.336 1.055 3.812 1.353 1.481.299 3.229.509 5.456.753.693.075 1.342.112 1.953.112 2.363.01 4.22-.588 5.589-1.599 1.37-1.005 2.183-2.285 2.861-3.413.327-.552.636-1.247.96-2.141.956-2.664 1.955-7.04 1.958-12.393 0-1.857-.122-3.828-.411-5.878-.954-6.685-6.245-12.254-13.331-13.532a15.78 15.78 0 0 0-2.79-.256 13.51 13.51 0 0 0-6.002 1.376h-.001Zm5.468 8.633a4.465 4.465 0 0 1 2.574-2.183l-.002.001.003-.001h-.001a5.117 5.117 0 0 1 1.602-.27 4.15 4.15 0 0 1 2.635.931c.702.57 1.18 1.29 1.531 2.046.691 1.517.929 3.24.936 4.881 0 .845-.069 1.665-.205 2.425-.139.762-.334 1.459-.656 2.104-.222.427-.494.852-.973 1.226a2.49 2.49 0 0 1-1.039.474l-.007.001c-.263.05-.531.076-.796.076-1.077 0-2.041-.418-2.804-.992-.771-.578-1.385-1.318-1.89-2.135-.998-1.64-1.589-3.602-1.599-5.523.002-1.044.181-2.095.691-3.061Zm-1.708 10.3a1.72 1.72 0 0 1 2.11 1.216l.109.403a1.72 1.72 0 1 1-3.323.9l-.109-.404a1.725 1.725 0 0 1 1.213-2.115ZM77.434 53.462c.376.674.661 1.273.85 1.697.093.211.163.38.207.49l.049.123.01.026v.002a1.72 1.72 0 0 0 2.212 1.02 1.726 1.726 0 0 0 1.017-2.217c-.022-.059-.465-1.255-1.34-2.825-.88-1.569-2.18-3.521-4.022-5.082a1.718 1.718 0 0 0-2.425.21 1.727 1.727 0 0 0 .21 2.43c1.354 1.136 2.484 2.776 3.232 4.126ZM128.671 50.681c-2.058 1.263-3.636 2.996-4.743 4.413-1.102 1.42-1.72 2.535-1.751 2.59a1.727 1.727 0 0 0 .671 2.345 1.72 1.72 0 0 0 2.34-.673l.001-.001c.038-.07.603-1.061 1.545-2.256.939-1.196 2.265-2.584 3.728-3.472a1.728 1.728 0 0 0 .574-2.37 1.719 1.719 0 0 0-2.365-.576ZM40.188 103.278c-.507-.404-.774-.751-.9-1.008a1.719 1.719 0 0 0-2.309-.773 1.726 1.726 0 0 0-.771 2.313c.418.838 1.055 1.543 1.839 2.168 1.18.937 2.716 1.731 4.692 2.523 1.77.707 3.921 1.405 6.457 2.129l1.748 5.055c.16.466.518.844.973 1.031.455.187.975.169 1.416-.049l6.527-3.236c9.044 2.008 21.035 3.856 36.548 5.014 9.337.696 17.39.986 24.31.986 4.651 0 8.776-.134 12.451-.36l6.387 4.069c.399.255.892.333 1.35.216a1.733 1.733 0 0 0 1.081-.84l2.51-4.576c3.311-.346 6.113-.85 8.373-1.508 2.471-.73 4.337-1.598 5.654-2.814.694-.65.732-1.741.083-2.437a1.718 1.718 0 0 0-2.432-.084h-.001c-.641.618-2.088 1.397-4.266 2.023-2.177.636-5.074 1.158-8.647 1.487a1.724 1.724 0 0 0-1.35.886l-2.057 3.75-5.305-3.381a1.712 1.712 0 0 0-1.035-.265c-3.73.242-7.978.384-12.796.384-6.824 0-14.793-.286-24.055-.977-15.71-1.172-27.733-3.055-36.645-5.07a1.707 1.707 0 0 0-1.142.136l-5.32 2.637-1.4-4.054a1.727 1.727 0 0 0-1.167-1.097c-3.814-1.056-6.665-2.037-8.597-2.966-.967-.461-1.7-.91-2.204-1.312Z"/><path d="m107.367 108.899 1.183-2.078a1.727 1.727 0 0 0-.643-2.353 1.719 1.719 0 0 0-2.347.643l-1.183 2.079a1.727 1.727 0 0 0 .642 2.353 1.72 1.72 0 0 0 2.348-.644ZM90.652 108.269a1.726 1.726 0 0 0 .81-2.3l-.906-1.896a1.719 1.719 0 0 0-2.295-.811 1.726 1.726 0 0 0-.81 2.3l.905 1.896a1.719 1.719 0 0 0 2.296.811Z"/></g></svg>