<svg width="200" height="200" viewBox="0 0 200 200" xmlns="http://www.w3.org/2000/svg"><g id="type=offer-shimmer, mode=dark"><g id="Group 432527118"><path id="Vector" d="M98.6699 102.675C99.7607 102.956 100.79 103.095 101.74 103.105C102.99 95.2056 93.6807 91.2856 89.6504 92.4253C89.9102 96.855 92.4502 101.105 98.6699 102.675Z"/><path id="Vector_2" d="M102.07 103.105H101.74C101.851 103.115 101.96 103.115 102.061 103.115L102.07 103.105Z"/><path id="Vector_3" d="M95.8562 163.721C96.2546 163.63 96.6914 163.518 97.1191 163.382C97.5485 163.242 97.9629 163.088 98.363 162.857C98.8164 162.591 99.1482 162.246 99.4026 161.906C99.7822 161.393 100.003 160.879 100.148 160.481C100.291 160.083 100.352 159.8 100.361 159.757C100.509 159.055 100.06 158.365 99.3571 158.218C98.6567 158.07 97.9707 158.517 97.8198 159.216L97.8183 159.215C97.8183 159.216 97.8015 159.293 97.7622 159.42C97.7046 159.61 97.5952 159.901 97.4541 160.144C97.3149 160.391 97.1452 160.563 97.0522 160.612C96.9343 160.683 96.6516 160.803 96.3269 160.905C95.8362 161.063 95.2412 161.2 94.7812 161.293C94.5507 161.339 94.353 161.375 94.2148 161.399L94.0554 161.426L94.0049 161.434C93.2951 161.543 92.8083 162.207 92.9177 162.917C93.0268 163.626 93.6906 164.113 94.4004 164.004C94.4196 164.001 95.0608 163.902 95.8562 163.721ZM97.8174 159.221V159.222L97.8171 159.221H97.8174Z"/><path id="Vector_4" d="M131.878 134.837C131.597 134.176 130.833 133.868 130.173 134.149C129.512 134.429 129.204 135.193 129.485 135.854L129.484 135.853C132.927 143.952 135.187 153.333 136.21 159.17C136.261 159.463 136.285 159.75 136.285 160.032C136.289 161.514 135.605 162.898 134.653 164.016C134.18 164.571 133.647 165.05 133.141 165.42C132.637 165.789 132.152 166.048 131.827 166.167H131.826C131.822 166.173 131.583 166.224 131.257 166.247C130.924 166.273 130.485 166.287 129.977 166.287C127.64 166.288 123.895 166.003 120.77 165.716C119.206 165.573 117.791 165.43 116.768 165.322C115.841 165.225 115.245 165.158 115.14 165.146C115.066 165.111 114.874 164.982 114.652 164.783C114.257 164.434 113.753 163.884 113.25 163.269C112.492 162.347 111.721 161.277 111.146 160.445C110.859 160.029 110.62 159.671 110.454 159.419C110.37 159.293 110.305 159.193 110.261 159.126L110.197 159.025C109.81 158.42 109.006 158.243 108.401 158.63C107.796 159.016 107.619 159.82 108.006 160.425C108.016 160.441 109.085 162.115 110.384 163.831C111.037 164.691 111.742 165.56 112.438 166.264C112.788 166.616 113.134 166.928 113.506 167.188C113.867 167.428 114.246 167.657 114.825 167.721L114.824 167.727C114.83 167.727 117.374 168.016 120.533 168.306C123.231 168.552 126.354 168.798 128.782 168.867C129.121 173.509 129.401 178.793 129.595 182.938C129.694 185.042 129.771 186.852 129.823 188.136C129.876 189.42 129.903 190.174 129.903 190.176C129.929 190.893 130.532 191.454 131.25 191.428C131.968 191.401 132.528 190.799 132.502 190.081C132.501 190.073 132.07 178.247 131.387 168.842C131.424 168.839 131.468 168.838 131.504 168.835C131.956 168.793 132.32 168.752 132.736 168.603C133.356 168.37 134.006 168.005 134.674 167.52C135.671 166.79 136.696 165.788 137.501 164.531C138.303 163.277 138.884 161.746 138.885 160.032C138.885 159.605 138.849 159.166 138.771 158.721C137.714 152.717 135.435 143.219 131.878 134.837Z"/><path id="Vector_5" d="M132.738 168.602L132.736 168.603L132.734 168.603L132.738 168.602Z"/><path id="Vector_6" d="M104.688 158.675C104.047 158.351 103.265 158.608 102.941 159.249L102.911 159.308C102.751 159.618 101.967 161.106 101.02 162.494C100.549 163.186 100.033 163.854 99.5748 164.314C99.348 164.544 99.1356 164.72 98.9786 164.821L98.7977 164.92L98.7579 164.935V164.935C98.3485 164.986 97.3478 165.133 95.9152 165.329C91.6344 165.918 83.5929 166.932 78.0611 166.93C76.6654 166.93 75.4322 166.864 74.5023 166.724C74.0384 166.655 73.651 166.566 73.3722 166.474C73.0922 166.384 72.9278 166.281 72.9027 166.256C72.3961 165.839 71.8041 165.105 71.2198 164.118C70.1903 162.392 69.1722 159.916 68.2528 157.059C65.4811 148.482 63.5475 136.451 63.2189 129.72C63.2057 129.46 63.1998 129.201 63.1998 128.94C63.1981 122.3 67.2645 116.202 73.5436 113.574C74.2057 113.297 74.5177 112.535 74.2406 111.873C73.9633 111.211 73.2018 110.899 72.5397 111.176L72.5394 111.176C69.5719 112.419 67.0401 114.342 65.0741 116.701C62.8705 115.557 61.5104 113.936 60.6669 112.513C60.1959 111.715 59.8944 110.986 59.7145 110.468C59.6244 110.209 59.5646 110.002 59.5287 109.866L59.4918 109.718L59.4855 109.69L59.485 109.689H59.4847C59.3619 109.077 58.8231 108.639 58.2001 108.645C58.0961 108.648 52.4784 108.694 45.7679 111.473C42.4144 112.864 38.7862 114.945 35.4706 118.06C32.1549 121.174 29.1603 125.324 27.0851 130.79C26.8673 131.363 27.0787 132.009 27.5922 132.342C28.1053 132.676 28.7809 132.606 29.2154 132.175L29.2157 132.175C29.2806 132.114 29.8382 131.61 30.8382 131.129C31.84 130.648 33.2765 130.186 35.1554 130.185C37.8841 130.189 41.6053 131.155 46.3324 134.725C46.7955 135.076 47.4408 135.075 47.9034 134.724C51.1703 132.248 53.8754 131.523 56.0641 131.518C57.9488 131.518 59.4921 132.071 60.6749 132.69C60.7252 132.717 60.7797 132.717 60.8317 132.736C61.2023 136.82 61.9479 141.894 62.986 146.954C62.9547 147.061 62.9152 147.166 62.9127 147.283L62.5887 163.417C61.0165 160.807 59.4674 158.431 59.4608 158.42C59.1869 157.999 58.6984 157.774 58.201 157.84C57.704 157.906 57.2902 158.25 57.1351 158.727L55.7809 162.894C54.9986 162.284 54.173 161.586 53.2516 160.875C51.891 159.831 50.2906 158.805 48.3234 158.174C47.9698 157.686 47.6154 157.248 47.2753 156.865C45.9713 155.396 44.8776 154.681 44.8041 154.633C44.4318 154.392 43.9613 154.358 43.5582 154.542C43.1549 154.726 42.8727 155.104 42.8109 155.543L42.5135 157.652C41.3697 157.791 40.1456 158.06 38.8297 158.482V158.482C38.828 158.482 38.8263 158.483 38.8248 158.484C38.8209 158.485 38.8175 158.486 38.8136 158.487L38.8138 158.488C38.6949 158.525 38.5821 158.578 38.4659 158.62C36.8824 158.032 35.4562 157.868 34.4618 157.868C33.5743 157.868 33.0162 157.979 32.9469 157.993C32.5602 158.073 32.2323 158.323 32.0528 158.674C31.8732 159.026 31.8629 159.438 32.0245 159.798L33.2721 162.577C32.4081 163.725 31.8026 164.893 31.3854 165.857C30.8273 167.151 30.6078 168.085 30.5946 168.14C30.4708 168.672 30.6923 169.223 31.1488 169.523C31.6051 169.821 32.1984 169.803 32.6359 169.478L32.6361 169.478C32.6735 169.45 33.3866 168.937 34.4852 168.445C35.5843 167.95 37.0619 167.486 38.6205 167.488C39.5651 167.489 40.5389 167.652 41.525 168.074C42.5109 168.498 43.5182 169.182 44.5199 170.28C47.3934 173.43 49.4789 176.898 52.0533 179.855C53.3424 181.33 54.7662 182.676 56.4877 183.734C58.09 184.721 59.9608 185.428 62.1398 185.778L62.0494 190.274C62.035 190.992 62.6051 191.585 63.3231 191.6C64.0409 191.614 64.6344 191.044 64.6488 190.326L65.3297 156.411C65.8722 158.218 66.452 159.921 67.069 161.461C67.6698 162.958 68.3041 164.302 68.9855 165.448C69.6695 166.593 70.3929 167.546 71.2394 168.254C71.6417 168.585 72.0809 168.783 72.5558 168.942C73.2684 169.176 74.0807 169.312 75.0038 169.403C75.9254 169.492 76.954 169.53 78.0611 169.53C81.9418 169.529 86.8072 169.069 90.9154 168.589C92.9679 168.348 94.8278 168.103 96.2682 167.905C97.7042 167.708 98.7399 167.557 99.0817 167.515C99.6363 167.441 100.078 167.214 100.47 166.952C101.151 166.484 101.725 165.859 102.276 165.174C103.094 164.147 103.827 162.974 104.369 162.046C104.909 161.118 105.253 160.438 105.261 160.422C105.585 159.781 105.328 158.999 104.688 158.675ZM62.1925 183.147C60.5008 182.831 59.0904 182.28 57.8487 181.519C55.7132 180.21 54.006 178.273 52.2626 175.98C50.5189 173.693 48.7518 171.07 46.4425 168.53C45.2159 167.182 43.889 166.258 42.5494 165.684C41.2103 165.11 39.8678 164.887 38.6205 164.888C37.0043 164.89 35.548 165.251 34.3558 165.692C34.368 165.669 34.3778 165.648 34.3903 165.626C35.2992 163.977 36.7404 162.181 38.8522 161.256L38.9781 161.202L39.0138 161.186C39.1998 161.101 39.3798 161.033 39.5931 160.968L39.6092 160.962C40.5192 160.67 41.3534 160.473 42.1341 160.341L42.0882 160.666C42.0389 161.015 42.1361 161.375 42.3541 161.652C42.5719 161.929 42.8993 162.107 43.2499 162.142C44.8204 162.291 46.2203 162.968 47.2198 163.627C47.7189 163.955 48.1156 164.275 48.3807 164.506C48.5135 164.622 48.6134 164.716 48.6769 164.778L48.7447 164.845L48.7557 164.856L48.7574 164.858L48.7577 164.857C49.1676 165.289 49.8236 165.388 50.3419 165.094C50.861 164.8 51.1139 164.185 50.952 163.61C50.7975 163.063 50.6163 162.551 50.4247 162.056C50.8475 162.335 51.2628 162.626 51.6681 162.938C52.7623 163.774 53.8026 164.695 54.9322 165.506L54.0365 168.262C53.8763 168.754 54.0253 169.296 54.4137 169.639C58.0267 172.814 62.2411 174.801 62.2975 174.833C62.3175 174.842 62.339 174.84 62.3592 174.848L62.1925 183.147ZM62.4171 171.971C61.1486 171.287 58.8693 169.957 56.7784 168.237L58.7565 162.151C59.8566 163.905 61.3363 166.325 62.327 168.176C62.3688 168.254 62.4349 168.307 62.4894 168.373L62.4171 171.971ZM60.6 128.94C60.6 129.226 60.607 129.516 60.621 129.808C59.3597 129.303 57.8295 128.917 56.0641 128.918C53.4772 128.913 50.4357 129.775 47.1293 132.086C42.401 128.698 38.3512 127.582 35.1554 127.585C33.5528 127.585 32.183 127.864 31.0592 128.242C32.8041 124.837 34.942 122.126 37.2508 119.955C41.8158 115.664 47.0736 113.476 51.2003 112.37C53.2621 111.817 55.0365 111.535 56.2862 111.392C56.6588 111.349 56.9779 111.32 57.2506 111.298C57.4767 111.953 57.8453 112.846 58.4276 113.835C59.4037 115.494 61.0187 117.424 63.5355 118.823C61.6627 121.811 60.6007 125.296 60.6 128.94Z"/><path id="Vector_7" d="M117.47 76.8538C116.078 77.7529 115.679 79.6101 116.578 81.002C117.478 82.3936 119.335 82.7925 120.727 81.8933C121.069 81.6689 121.623 81.4258 122.32 81.2571C123.017 81.0862 123.853 80.9853 124.748 80.9858C126.883 80.979 129.324 81.5679 131.245 82.7529C132.211 83.3438 133.053 84.072 133.732 84.9463C134.411 85.823 134.936 86.845 135.259 88.1038C135.668 89.7092 137.302 90.6785 138.908 90.2688C140.513 89.8589 141.482 88.2253 141.073 86.6199L141.072 86.6196C140.551 84.5713 139.639 82.7681 138.471 81.2666C136.717 79.0085 134.425 77.4399 132.034 76.4407C129.636 75.4412 127.124 74.9885 124.748 74.9861C123.413 74.9866 122.119 75.1304 120.896 75.4287C119.673 75.7293 118.517 76.1797 117.47 76.8538Z"/><path id="Vector_8" d="M73.7109 72.6091C74.9806 72.041 76.4057 71.7737 77.8661 71.7739C79.6845 71.7705 81.5448 72.1995 83.0536 72.8689C83.8076 73.2012 84.4723 73.5908 84.998 73.9868C85.5248 74.3813 85.9076 74.7834 86.1269 75.1003C87.0756 76.4585 88.946 76.7905 90.3044 75.8418C91.6625 74.8928 91.9946 73.0225 91.0458 71.6643C90.3764 70.7092 89.5434 69.8994 88.6042 69.1914C87.1933 68.1333 85.5331 67.3 83.7133 66.7078C81.8937 66.1187 79.9123 65.7751 77.8661 65.7742C75.683 65.7742 73.4162 66.1699 71.2629 67.1313C69.1122 68.0879 67.0915 69.6309 65.5036 71.7812C64.5173 73.1125 64.7973 74.9915 66.1288 75.9778C67.4601 76.9639 69.339 76.6838 70.3254 75.3525L70.3251 75.3523C71.3051 74.0356 72.4386 73.1824 73.7109 72.6091Z"/><path id="Vector_9" d="M77.4223 49.0542C80.0522 48.1121 82.8903 47.7031 85.6025 47.7036C88.923 47.7012 92.0571 48.321 94.3364 49.2498C95.0014 49.5198 95.7597 49.1997 96.03 48.5347C96.3 47.8694 95.9799 47.1111 95.3149 46.8411C92.654 45.7632 89.2436 45.1062 85.6025 45.1038C82.6318 45.1042 79.509 45.5466 76.5461 46.6062C73.5854 47.6653 70.7795 49.3508 68.5109 51.8308C68.0261 52.3604 68.0627 53.1829 68.5925 53.6677C69.122 54.1523 69.9445 54.1157 70.4294 53.5862L70.4291 53.5859C72.371 51.4639 74.79 49.9971 77.4223 49.0542Z"/><path id="Vector_10" d="M135.123 58.2459C139.046 60.4338 142.466 63.7002 144.066 68.0449C144.314 68.7185 145.061 69.0632 145.735 68.8149C146.409 68.5664 146.753 67.8191 146.505 67.1455L146.505 67.1453C144.624 62.0544 140.696 58.3765 136.389 55.9751C132.068 53.5732 127.352 52.4055 123.578 52.3909C122.86 52.3892 122.277 52.9702 122.275 53.6882C122.274 54.406 122.855 54.9893 123.573 54.991C126.814 54.9917 131.212 56.0584 135.123 58.2459Z"/><path id="Vector_11" d="M167.038 93.9556L160.415 91.697C161.288 91.271 162.263 90.7356 163.255 90.0769C164.831 89.0273 166.455 87.6621 167.757 85.8984C169.057 84.1387 170.026 81.9609 170.228 79.395C170.259 78.9968 170.106 78.606 169.812 78.3357C169.518 78.0654 169.116 77.9448 168.722 78.0095L156.63 79.9873C159.053 72.6738 160.416 65.7366 160.417 59.2795C160.429 49.8584 157.496 41.4182 150.894 34.614C144.536 28.0522 134.868 23.023 121.335 19.7185C121.849 18.6365 122.416 17.6167 123.039 16.7288C123.682 15.8088 124.38 15.0286 125.113 14.4409C125.848 13.8523 126.61 13.4556 127.421 13.2605C127.928 13.1387 128.311 12.7293 128.399 12.2151C128.487 11.7007 128.261 11.1875 127.823 10.9045C127.712 10.845 124.923 9.01562 121.061 9C119.601 8.99902 117.986 9.27637 116.365 10.0369C115.093 10.6326 113.827 11.5293 112.629 12.7788L110.422 10.5083C110.173 10.2522 109.835 10.1113 109.478 10.1145C109.121 10.1177 108.785 10.2647 108.541 10.5251C108.476 10.6045 106.176 13.0449 104.825 16.8789C102.018 16.6082 99.3377 16.4675 96.7969 16.4675C89.4307 16.4675 83.1536 17.5811 77.857 19.6914C69.9083 22.8503 64.2095 28.2856 60.4629 35.312C56.806 42.1577 54.9644 50.4934 54.4236 59.8237L44.2029 53.5591C43.8624 53.3503 43.4451 53.3096 43.0709 53.4487C42.6966 53.5879 42.4065 53.8911 42.2852 54.2717C41.8792 55.5418 41.7015 56.7969 41.702 58.0037C41.7022 60.0315 42.1998 61.9177 42.9227 63.5903C43.9568 65.9788 45.4437 67.9434 46.7203 69.3711L39.7322 68.9575C39.3245 68.9334 38.9278 69.1033 38.6639 69.4148C38.3997 69.7261 38.2972 70.1455 38.3878 70.5437C38.4092 70.6343 38.8333 72.4673 40.2105 74.8796C41.5501 77.2261 43.8189 80.1243 47.4798 82.4243C47.4466 82.7532 47.4246 83.1084 47.4246 83.5068C47.4232 86.2327 48.3184 90.6221 51.9153 95.5127C55.5113 100.403 61.7811 105.762 72.4671 110.513C73.1229 110.805 73.8912 110.51 74.1832 109.854C74.4749 109.198 74.1795 108.43 73.5237 108.138C63.1504 103.524 57.285 98.4253 54.0101 93.9724C50.7364 89.5198 50.0259 85.6819 50.0245 83.5068C50.0242 82.9402 50.0748 82.488 50.1331 82.1941C50.24 81.6506 49.9874 81.1265 49.5447 80.8486C49.4395 80.6692 49.3055 80.5056 49.1153 80.3901L49.115 80.3899C45.7283 78.3347 43.679 75.7078 42.4678 73.5898C42.0574 72.8711 41.7515 72.2209 41.5189 71.6677L50.0552 72.1731C50.6234 72.2066 51.1448 71.8694 51.3472 71.3372C51.5494 70.8052 51.3836 70.2063 50.9366 69.8543L50.9263 69.8462C50.7708 69.7227 49.0645 68.3228 47.4388 66.1587C46.6253 65.0776 45.8328 63.8079 45.2525 62.4255C44.671 61.042 44.3016 59.5523 44.3018 58.0037C44.3021 57.5825 44.3343 57.1555 44.3919 56.7244L58.7994 65.5549C59.4112 65.9302 60.2115 65.738 60.587 65.1262C60.9622 64.5142 60.7701 63.7139 60.1583 63.3386L56.783 61.27C56.8843 61.0962 56.959 60.9053 56.9698 60.6907L56.9695 60.6904C57.5936 48.1753 60.6063 37.7605 66.8404 30.5391C69.9605 26.9221 73.889 24.0735 78.8194 22.1069C83.7491 20.1423 89.6905 19.0674 96.7969 19.0674C99.6973 19.0674 102.792 19.2476 106.087 19.6182C106.525 19.71 107.207 19.8792 107.991 20.1697C109.3 20.6509 110.862 21.4663 112.04 22.7288C113.272 24.0305 114.042 26.0828 114.442 28.0496C114.849 30.0122 114.909 31.8604 114.908 32.7134C114.908 32.8792 114.906 33.0078 114.904 33.0928L114.901 33.187L114.901 33.2112C114.87 33.9087 115.393 34.5039 116.089 34.5632C116.784 34.6226 117.401 34.1245 117.489 33.4321L117.495 33.3857C117.563 32.8689 118.236 28.115 119.873 23.3401C120.01 22.9402 120.163 22.5435 120.314 22.146C133.758 25.3733 143.079 30.2754 149.026 36.4226C155.129 42.7412 157.805 50.3762 157.817 59.2795C157.818 65.7395 156.377 72.8521 153.737 80.4604L150.254 81.03C149.545 81.1458 149.065 81.8142 149.181 82.5229C149.297 83.2315 149.965 83.7117 150.674 83.5959L167.34 80.8699C167 82.1748 166.419 83.3288 165.664 84.3555C164.073 86.522 161.727 88.104 159.771 89.1118C158.794 89.6167 157.918 89.9807 157.294 90.2158C156.982 90.3333 156.733 90.4185 156.565 90.4734L156.377 90.5332L156.334 90.5464L156.326 90.5488C155.779 90.7058 155.399 91.1973 155.385 91.7664C155.371 92.3354 155.726 92.8447 156.265 93.0286L164.361 95.7893C163.917 96.2324 163.354 96.7461 162.663 97.2795C160.74 98.7634 157.88 100.378 154.029 100.991C153.769 101.032 153.557 101.164 153.376 101.329C152.916 101.423 152.519 101.752 152.383 102.235L152.381 102.234C152.375 102.256 151.613 104.868 148.67 107.926C145.73 110.975 140.617 114.504 131.738 116.36C131.547 116.381 131.359 116.407 131.165 116.422C130.449 116.477 129.913 117.102 129.969 117.818C130.023 118.534 130.649 119.07 131.365 119.015L131.365 119.014C133.101 118.881 134.691 118.535 136.412 118.041C138.022 117.578 139.771 116.983 141.91 116.289C144.828 117.416 148.037 119.21 150.841 122.093C153.11 124.428 155.12 127.48 156.511 131.505C155.025 130.66 153.064 129.926 150.704 129.925C148.226 129.92 145.377 130.764 142.359 132.946C141.282 131.875 140.132 131.093 138.968 130.578C137.494 129.925 136.013 129.68 134.653 129.68L134.473 129.682C133.755 129.706 133.192 130.306 133.216 131.024C133.239 131.742 133.84 132.305 134.557 132.281L134.653 132.28C135.705 132.281 136.81 132.467 137.915 132.956C139.019 133.446 140.135 134.24 141.212 135.522C141.668 136.066 142.473 136.144 143.026 135.698C146.049 133.261 148.601 132.531 150.704 132.525C152.895 132.524 154.679 133.35 155.939 134.202C156.566 134.627 157.055 135.054 157.378 135.367C157.541 135.524 157.662 135.652 157.739 135.737L157.821 135.83L157.835 135.847L157.836 135.848L157.838 135.85L157.838 135.85C158.218 136.313 158.865 136.458 159.405 136.199C159.947 135.94 160.241 135.342 160.115 134.755C158.745 128.327 155.973 123.634 152.705 120.28C150.065 117.567 147.12 115.739 144.345 114.492C147.088 112.917 149.164 111.195 150.699 109.566C153.191 106.926 154.287 104.56 154.689 103.509C158.99 102.774 162.213 100.934 164.355 99.2568C166.543 97.5446 167.628 96.0082 167.683 95.9323C167.917 95.5978 167.981 95.1708 167.854 94.7827C167.728 94.3945 167.424 94.0872 167.038 93.9556ZM119.21 18.1326C118.013 20.5413 117.128 23.179 116.475 25.5652C115.959 23.9307 115.18 22.2908 113.938 20.9519C112.311 19.2197 110.319 18.2446 108.743 17.6765C108.266 17.5056 107.832 17.376 107.448 17.2727C107.952 15.9739 108.584 14.8567 109.14 14.0144C109.298 13.7754 109.444 13.5703 109.584 13.3774L111.744 15.5989C112.002 15.8652 112.368 16.0093 112.74 15.9912C113.111 15.9729 113.461 15.7937 113.692 15.5034C114.948 13.9319 116.229 12.9739 117.469 12.3909C118.71 11.8101 119.923 11.6008 121.061 11.5999C122.138 11.5991 123.14 11.7964 123.985 12.0481C123.784 12.1899 123.583 12.3325 123.392 12.4893C121.644 13.9309 120.302 15.9434 119.21 18.1326Z"/><path id="Vector_12" d="M98.353 103.936L98.3513 103.935L98.3477 103.934L98.353 103.936Z"/><path id="Vector_13" d="M112.306 97.5539C113.345 95.339 113.833 92.9157 113.835 90.6757C113.831 88.7582 113.486 86.9696 112.703 85.5224C112.455 85.0678 111.959 84.8029 111.443 84.8502C110.687 84.9193 109.908 84.9543 109.114 84.9543C104.067 84.9591 98.3599 83.5412 93.8052 80.9904C93.2808 80.6974 92.6221 80.8024 92.2151 81.2443C90.238 83.3988 88.8772 86.4262 88.4553 89.6498H88.4546C88.4539 89.6552 88.4529 89.663 88.4521 89.6686C88.4521 89.6691 88.4519 89.6698 88.4519 89.6703C88.4246 89.8632 88.3948 90.1061 88.3872 90.3859C88.3677 90.5419 88.3533 90.692 88.345 90.8041L88.3435 90.8249C88.3293 91.0878 88.3203 91.36 88.3203 91.6371C88.3203 91.7917 88.325 91.9482 88.332 92.1049C88.332 92.1054 88.332 92.1059 88.332 92.1066C88.333 92.1286 88.3325 92.1503 88.3337 92.1723H88.3345C88.3379 92.3256 88.3489 92.4567 88.3577 92.5507H88.3582C88.5071 94.9684 89.2849 97.3954 90.9097 99.4328C92.542 101.486 95.0149 103.097 98.3511 103.935C99.4944 104.228 100.589 104.378 101.627 104.397L101.627 104.4C101.812 104.416 101.96 104.414 102.062 104.414H102.07C104.086 104.404 105.878 103.903 107.387 103.054C109.657 101.779 111.267 99.7626 112.306 97.5539ZM106.115 100.786C104.982 101.42 103.657 101.802 102.056 101.814C101.96 101.815 101.891 101.813 101.856 101.81L101.755 101.805C100.922 101.796 99.9954 101.673 98.9946 101.416L98.9893 101.415C96.1067 100.682 94.2004 99.3834 92.9429 97.8119C91.689 96.2382 91.0679 94.3446 90.9492 92.349L90.9453 92.2995C90.936 92.2067 90.9316 92.1388 90.9319 92.1049L90.9302 92.0373C90.9233 91.9074 90.9202 91.7736 90.9202 91.6371C90.9202 91.4189 90.928 91.1933 90.9399 90.9674C90.9487 90.8378 90.9578 90.7355 90.9658 90.6874L90.9817 90.4848C90.981 90.3803 90.9985 90.2208 91.0281 90.0207L91.0308 90.0001C91.3245 87.6645 92.2566 85.4113 93.5056 83.7565C98.3088 86.2152 103.94 87.5495 109.114 87.5541C109.664 87.5541 110.206 87.5334 110.745 87.5028C111.053 88.362 111.239 89.4667 111.236 90.6757C111.241 93.1554 110.479 96.0302 108.951 98.1757C108.189 99.2524 107.246 100.151 106.115 100.786Z"/><path id="Vector_14" d="M114.742 157.988C114.046 158.163 113.624 158.87 113.8 159.566L113.799 159.566C113.809 159.601 113.947 160.156 114.212 160.809C114.346 161.137 114.509 161.49 114.737 161.84C114.972 162.181 115.247 162.562 115.828 162.836C116.129 162.968 116.457 163.073 116.839 163.19C117.965 163.528 119.443 163.876 119.456 163.88C120.154 164.045 120.855 163.613 121.02 162.914C121.186 162.216 120.753 161.515 120.055 161.35C120.054 161.349 119.897 161.312 119.644 161.25C119.265 161.156 118.675 161.007 118.12 160.853C117.843 160.776 117.574 160.698 117.351 160.627C117.186 160.575 117.059 160.529 116.971 160.494C116.938 160.454 116.876 160.37 116.809 160.238C116.675 159.989 116.541 159.643 116.453 159.374C116.409 159.24 116.374 159.123 116.351 159.043L116.326 158.953L116.321 158.933L116.321 158.931C116.145 158.235 115.438 157.812 114.742 157.988Z"/><path id="Vector_15" d="M78.6719 155.442C78.8244 154.741 78.3796 154.048 77.6784 153.895C76.8464 153.714 75.5039 153.421 74.2781 153.205C73.5708 153.08 72.8965 153.552 72.772 154.259C72.6472 154.966 73.1191 155.64 73.8264 155.765L73.8262 155.765C74.9792 155.968 76.2969 156.255 77.1252 156.436C77.8264 156.588 78.519 156.143 78.6719 155.442Z"/><path id="Vector_16" d="M126.886 156.738L129.994 156.324C130.706 156.229 131.206 155.575 131.111 154.864C131.016 154.152 130.363 153.652 129.651 153.747L126.543 154.161C125.831 154.256 125.331 154.91 125.426 155.621C125.521 156.333 126.174 156.833 126.886 156.738Z"/><path id="Vector_17" d="M136.976 135.478C136.966 135.449 136.206 132.951 134.969 130.123C134.349 128.708 133.611 127.21 132.766 125.88C131.914 124.551 130.983 123.374 129.797 122.612C129.132 122.199 128.309 121.901 127.268 121.583C126.743 121.426 126.149 121.271 125.527 121.117C126.572 120.853 127.872 120.456 129.076 119.923C129.844 119.579 130.568 119.19 131.181 118.68C131.487 118.423 131.77 118.132 131.999 117.765C132.124 117.564 132.228 117.331 132.3 117.079C132.412 116.836 132.44 116.57 132.389 116.298L132.386 116.239L132.386 116.232C132.374 116.098 132.352 115.919 132.318 115.661C132.201 114.769 131.946 113.048 131.627 111.364C131.468 110.521 131.294 109.69 131.108 108.966C131.015 108.603 130.919 108.267 130.817 107.962C130.712 107.654 130.608 107.382 130.458 107.109C130.273 106.781 130.053 106.556 129.812 106.345C129.389 105.985 128.88 105.682 128.271 105.389C126.454 104.529 123.717 103.808 120.636 103.803C118.761 103.803 116.763 104.078 114.811 104.796C111.239 106.116 108.01 108.485 105.488 110.87C104.228 112.065 103.147 113.265 102.294 114.358C102.044 114.68 101.821 114.988 101.611 115.287C101.413 114.994 101.202 114.693 100.967 114.378C99.739 112.74 98.0161 110.851 95.9324 109.112C93.8484 107.375 91.4055 105.786 88.7202 104.796C86.7676 104.078 84.7693 103.803 82.8948 103.803C80.5491 103.804 78.3958 104.23 76.7056 104.806C75.8591 105.095 75.1294 105.421 74.5293 105.775C74.2288 105.953 73.96 106.138 73.718 106.346C73.4773 106.556 73.2564 106.782 73.0713 107.111C72.9024 107.421 72.7879 107.734 72.6704 108.095C72.2756 109.337 71.927 111.155 71.648 112.796C71.51 113.614 71.3931 114.378 71.3067 114.982C71.2273 115.54 71.177 115.928 71.1531 116.163C71.1472 116.186 71.1375 116.208 71.1319 116.231C71.0694 116.489 71.1104 116.737 71.1939 116.969C71.24 117.212 71.3059 117.446 71.4024 117.657C71.6892 118.28 72.1245 118.76 72.6123 119.176C73.2144 119.683 73.9236 120.076 74.6555 120.411C74.6414 120.417 74.6243 120.424 74.6101 120.43C73.8208 120.786 73.1504 121.122 72.6074 121.465C71.4434 122.207 70.5657 123.305 69.8335 124.498C68.7427 126.292 67.9871 128.348 67.4815 129.975C66.9785 131.601 66.7359 132.794 66.7295 132.824C66.6446 133.241 66.7674 133.668 67.0606 133.977C67.3538 134.286 67.7735 134.431 68.1948 134.368L75.6404 133.26L76.1795 158.837C76.1941 159.542 76.7732 160.109 77.4793 160.109H125.884C126.593 160.109 127.172 159.539 127.183 158.83L127.537 136.336L135.601 137.15C136.034 137.194 136.46 137.018 136.736 136.682C137.013 136.347 137.102 135.894 136.976 135.478ZM74.4583 111.847C74.6106 111.04 74.7771 110.252 74.9412 109.612C75.023 109.292 75.1045 109.01 75.1787 108.79C75.2451 108.589 75.3074 108.446 75.3367 108.391C75.3682 108.349 75.6233 108.127 76.0296 107.913C76.6751 107.56 77.677 107.17 78.8679 106.884C80.0601 106.595 81.4465 106.402 82.8948 106.403C84.5152 106.402 86.2107 106.643 87.8223 107.236C90.9075 108.367 93.8233 110.532 96.0696 112.742C96.9986 113.653 97.8059 114.566 98.4758 115.411C98.2998 115.326 98.1233 115.234 97.948 115.158C96.6316 114.588 95.3257 114.271 94.0379 114.271C93.314 114.27 92.6008 114.381 91.9104 114.588C91.7835 114.586 91.6558 114.583 91.5276 114.621C91.5222 114.622 89.9702 115.079 87.7459 115.774C87.7158 115.761 87.6946 115.737 87.6633 115.726C87.6419 115.719 85.9807 115.163 83.7442 114.603C81.5015 114.046 78.7078 113.475 76.293 113.47C75.5374 113.473 74.8176 113.532 74.1362 113.685C74.2324 113.095 74.3413 112.465 74.4583 111.847ZM98.2483 118.229C95.9229 118.992 92.2713 120.103 88.4812 120.804C89.0076 119.971 89.5413 119.275 90.0772 118.729C90.7285 118.064 91.3755 117.604 92.023 117.308C92.6719 117.012 93.3247 116.872 94.0379 116.87C94.8943 116.87 95.8477 117.082 96.9146 117.544C97.3411 117.729 97.7891 117.965 98.2483 118.229ZM73.9795 116.889C73.8828 116.778 73.824 116.685 73.7881 116.614C73.8897 116.508 74.1436 116.352 74.5808 116.243C75.0178 116.131 75.6133 116.069 76.293 116.07C78.2964 116.066 80.9817 116.589 83.1133 117.125C83.1956 117.146 83.271 117.166 83.3518 117.187C81.7351 117.723 80.0657 118.298 78.5059 118.873C78.3701 118.809 78.2259 118.757 78.0674 118.743C77.2688 118.68 75.9905 118.273 75.0562 117.721C74.586 117.45 74.1985 117.142 73.9795 116.889ZM69.7393 131.51C69.9663 130.708 70.2754 129.726 70.6714 128.715C71.0847 127.657 71.5918 126.574 72.1675 125.668C72.7407 124.759 73.388 124.042 73.9973 123.662C74.3616 123.43 74.9527 123.126 75.676 122.802C78.2229 121.656 82.4007 120.218 85.9041 119.086C86.1677 119.001 86.4187 118.921 86.6741 118.84C85.6538 120.327 84.7263 122.138 83.866 124.337C83.4409 125.425 82.947 126.94 82.5501 128.204C82.3726 128.77 82.2178 129.276 82.0984 129.67L69.7393 131.51ZM78.752 157.509L78.2327 132.874L83.2984 132.12C83.7984 132.046 84.2117 131.686 84.3543 131.201C84.3545 131.2 84.4258 130.958 84.5464 130.558C84.9063 129.362 85.7166 126.74 86.2876 125.283C86.5078 124.719 86.7324 124.195 86.9588 123.69C90.4915 123.187 93.9917 122.261 96.6948 121.446C96.8071 121.412 96.9087 121.38 97.0181 121.346C97.0257 121.346 97.032 121.351 97.0396 121.351L99.2295 121.348L100.025 157.51L78.752 157.509ZM129.206 116.915C128.618 117.312 127.676 117.726 126.732 118.05C125.839 118.359 124.944 118.596 124.298 118.74C124.261 118.737 124.229 118.718 124.192 118.718L115.355 118.729C115.919 118.488 116.507 118.243 117.127 118.001C118.696 117.386 120.405 116.793 122.059 116.358C123.711 115.922 125.311 115.651 126.62 115.653C127.55 115.651 128.32 115.792 128.857 116.036C129.185 116.188 129.425 116.364 129.622 116.586C129.523 116.682 129.387 116.797 129.206 116.915ZM102.849 118.288C103.053 117.797 103.581 116.931 104.345 115.957C105.491 114.485 107.168 112.719 109.143 111.121C111.117 109.52 113.391 108.088 115.709 107.236C117.321 106.643 119.015 106.402 120.636 106.403C122.659 106.401 124.565 106.781 125.983 107.266C126.691 107.507 127.278 107.777 127.677 108.013C127.876 108.131 128.028 108.24 128.116 108.317L128.196 108.393C128.232 108.462 128.308 108.645 128.384 108.888C128.697 109.853 129.055 111.651 129.319 113.229C129.332 113.306 129.344 113.38 129.357 113.456C128.499 113.171 127.579 113.055 126.62 113.053C124.858 113.055 122.949 113.418 121.04 113.94C115.33 115.51 109.593 118.563 109.548 118.583C109.474 118.622 109.424 118.685 109.361 118.736L102.512 118.744C102.652 118.62 102.772 118.471 102.849 118.288L102.849 118.288ZM124.604 157.51H102.626L101.83 121.345L111.776 121.333C111.781 121.333 111.785 121.337 111.79 121.337C112.399 121.414 113.021 121.666 113.636 122.074C114.558 122.682 115.437 123.643 116.121 124.682C116.808 125.718 117.302 126.837 117.517 127.672C118.034 129.659 118.361 131.355 118.558 132.548C118.657 133.145 118.723 133.615 118.764 133.933C118.785 134.093 118.799 134.214 118.808 134.294L118.818 134.382L118.82 134.406C118.88 135.023 119.366 135.51 119.983 135.572L124.941 136.073L124.604 157.51ZM121.273 133.09C121.099 131.875 120.732 129.705 120.033 127.017C119.63 125.491 118.746 123.731 117.49 122.171C119.466 122.503 121.398 122.857 123.091 123.221C124.409 123.504 125.587 123.793 126.52 124.073C127.448 124.347 128.154 124.641 128.407 124.809C129.036 125.195 129.841 126.11 130.572 127.274C131.682 129.018 132.679 131.282 133.379 133.089C133.557 133.547 133.716 133.976 133.855 134.361L121.273 133.09Z"/></g></g></svg>