<svg width="200" height="200" viewBox="0 0 200 200" xmlns="http://www.w3.org/2000/svg"><g id="type=offer-shimmer, mode=light"><g id="Group 432527094"><path id="Vector" d="M101.738 103.105C111.561 103.318 114.232 91.042 111.559 86.1436C105.714 86.6855 98.7001 85.2197 93.1738 82.124C90.8945 84.5977 89.413 88.5752 89.6425 92.4199C93.6698 91.2744 102.992 95.1982 101.738 103.105Z"/><path id="Vector_2" d="M129.915 125.001C126.961 122.992 123.302 120.697 123.302 120.697C123.302 120.697 131.745 119.119 131.182 116.681C130.619 114.241 130.057 107.93 128.649 106.782C127.242 105.634 120.488 104.917 117.252 105.49C114.016 106.065 106.417 109.364 102.055 117.11C102.055 117.11 95.1602 106.782 86.2959 105.49C77.4307 104.199 74.4766 106.352 73.7725 108.79C73.0693 111.23 73.21 113.237 72.6475 115.676C72.084 118.115 77.7129 120.267 77.7129 120.267C77.7129 120.267 72.2246 122.992 71.0996 123.854C69.9736 124.714 68.3867 132.892 68.3867 132.892L83.6221 130.596L84.7481 159.145L92.9092 159.001L92.4873 121.558L100.789 119.693L109.513 120.267L110.779 158.714H117.674L118.096 124.858L120.488 134.9L135.403 135.761C135.403 135.761 132.87 127.01 129.915 125.001Z"/><path id="Vector_3" d="M141.071 86.6196C140.55 84.5713 139.638 82.7679 138.471 81.2666C136.716 79.0084 134.424 77.4399 132.033 76.4407C129.635 75.4412 127.124 74.9885 124.748 74.9861C123.413 74.9866 122.119 75.1305 120.896 75.4287C119.673 75.7292 118.517 76.1796 117.47 76.8531C116.078 77.7522 115.679 79.6093 116.578 81.0011C117.477 82.3928 119.334 82.7922 120.726 81.8932C121.069 81.669 121.622 81.4259 122.32 81.2573C123.017 81.0863 123.852 80.9855 124.748 80.986C126.882 80.9792 129.324 81.568 131.245 82.7529C132.21 83.3436 133.053 84.0718 133.731 84.946C134.41 85.8226 134.935 86.8445 135.258 88.1033C135.667 89.7087 137.301 90.6781 138.906 90.2684C140.512 89.8587 141.481 88.2251 141.072 86.6196L141.071 86.6196Z"/><path id="Vector_4" d="M90.3049 75.8411C91.6631 74.892 91.9946 73.0215 91.0456 71.6634C90.376 70.7087 89.543 69.8992 88.604 69.1915C87.1931 68.1336 85.5332 67.3007 83.7134 66.7085C81.894 66.1194 79.9126 65.7759 77.8664 65.7749C75.6836 65.7751 73.4167 66.1707 71.2637 67.1317C69.113 68.0879 67.092 69.6304 65.5039 71.7805C64.5173 73.1118 64.7971 74.9907 66.1284 75.9771C67.4597 76.9634 69.3386 76.6838 70.3252 75.3525L70.3249 75.3524C71.3052 74.0361 72.4387 73.1828 73.7109 72.6099C74.9809 72.0417 76.406 71.7746 77.8664 71.7748C79.6848 71.7714 81.5452 72.2002 83.0539 72.8695C83.8081 73.2018 84.4726 73.5915 84.9985 73.9874C85.5254 74.3818 85.9082 74.7838 86.1272 75.1004C87.0762 76.4585 88.9465 76.7902 90.3049 75.8411Z"/><path id="Vector_5" d="M70.4294 53.5858L70.4291 53.5857C72.371 51.4639 74.79 49.9974 77.4225 49.0548C80.0527 48.1128 82.8911 47.7039 85.6035 47.7045C88.9238 47.702 92.0578 48.322 94.3366 49.2496C95.0016 49.5197 95.76 49.1993 96.0302 48.5341C96.3002 47.8688 95.9797 47.1105 95.3146 46.8405C92.6542 45.7639 89.2443 45.1071 85.6034 45.1045C82.6325 45.1051 79.5097 45.5472 76.5466 46.6068C73.5859 47.6655 70.7797 49.3508 68.5109 51.8305C68.0261 52.3602 68.0627 53.1826 68.5925 53.6674C69.1223 54.152 69.9445 54.1155 70.4294 53.5858Z"/><path id="Vector_6" d="M146.505 67.1458C144.624 62.0546 140.696 58.3762 136.389 55.9748C132.068 53.5728 127.352 52.4051 123.578 52.3904C122.86 52.3889 122.277 52.9697 122.275 53.6877C122.274 54.4057 122.855 54.989 123.573 54.9905C126.814 54.9913 131.212 56.058 135.123 58.2456C139.046 60.4338 142.466 63.7001 144.066 68.0455C144.314 68.7191 145.062 69.0638 145.735 68.8154C146.409 68.567 146.753 67.8195 146.505 67.1459L146.505 67.1458Z"/><path id="Vector_7" d="M167.038 93.9551L160.415 91.6967C161.288 91.2709 162.262 90.7356 163.254 90.077C164.83 89.0275 166.455 87.6621 167.756 85.8984C169.057 84.1387 170.026 81.9608 170.227 79.3947C170.259 78.9966 170.105 78.6057 169.811 78.3354C169.517 78.065 169.115 77.9446 168.721 78.0091L156.628 79.9871C159.051 72.674 160.414 65.7361 160.415 59.2783C160.416 54.3588 159.628 49.713 157.926 45.4217C155.376 38.981 150.76 33.3739 143.85 28.8484C138.034 25.0358 130.594 21.9703 121.338 19.7095C121.851 18.6307 122.417 17.6138 123.038 16.7284C123.681 15.8086 124.379 15.0283 125.113 14.4407C125.848 13.8519 126.609 13.4552 127.42 13.2602C127.927 13.1385 128.31 12.729 128.398 12.2147C128.486 11.7004 128.26 11.187 127.822 10.9041C127.711 10.8446 124.923 9.01569 121.061 9C119.601 8.99908 117.985 9.27643 116.365 10.0371C115.092 10.6327 113.826 11.5295 112.628 12.7794L110.421 10.5081C110.172 10.252 109.834 10.111 109.477 10.1141C109.12 10.1173 108.785 10.2643 108.541 10.5248C108.475 10.6041 106.178 13.0419 104.827 16.8729C102.027 16.6044 99.3543 16.4648 96.8191 16.4647C89.4483 16.4647 83.1675 17.5781 77.8682 19.6881C69.9151 22.8461 64.2136 28.2811 60.4654 35.3081C56.8072 42.1539 54.9649 50.4904 54.4231 59.8231L44.2031 53.5587C43.8626 53.3501 43.4453 53.3093 43.0711 53.4484C42.6968 53.5875 42.4068 53.8909 42.2854 54.2713C41.8792 55.542 41.7012 56.7972 41.7017 58.0044C41.7019 60.0323 42.1995 61.9182 42.9224 63.5908C43.9566 65.9788 45.4429 67.9431 46.7195 69.3709L39.7315 68.9572C39.3237 68.9331 38.9268 69.103 38.6629 69.4144C38.3989 69.726 38.2964 70.1453 38.3872 70.5435C38.4085 70.634 38.8328 72.4674 40.21 74.8797C41.5498 77.2261 43.8186 80.1245 47.4793 82.424C47.4463 82.7527 47.4243 83.1079 47.4241 83.5064C47.4226 86.2324 48.3181 90.6218 51.9151 95.5123C55.4693 100.346 61.6436 105.637 72.105 110.347C72.0283 110.714 71.9546 111.091 71.884 111.469C69.1963 112.709 66.8894 114.516 65.0696 116.698C62.8692 115.555 61.5103 113.935 60.667 112.512C60.196 111.715 59.8945 110.986 59.7144 110.467C59.6243 110.207 59.5647 110.001 59.5286 109.865L59.4915 109.717L59.4849 109.687L59.4844 109.687C59.3613 109.076 58.8228 108.638 58.1997 108.643C58.096 108.647 52.4783 108.693 45.7678 111.472C42.4143 112.864 38.7861 114.945 35.4705 118.06C32.1548 121.173 29.1602 125.324 27.085 130.79C26.8674 131.363 27.0786 132.009 27.5921 132.342C28.1052 132.676 28.7808 132.606 29.2153 132.175L29.2156 132.175C29.2805 132.114 29.8381 131.61 30.8377 131.129C31.8394 130.648 33.2756 130.186 35.1543 130.186C37.8831 130.189 41.6047 131.155 46.3323 134.726C46.7954 135.077 47.4407 135.076 47.9033 134.724C51.1704 132.248 53.876 131.523 56.0649 131.518C57.9492 131.518 59.4924 132.071 60.6748 132.69C60.7263 132.717 60.7822 132.728 60.8359 132.748C61.2063 136.829 61.9502 141.897 62.9866 146.951C62.9548 147.06 62.915 147.165 62.9126 147.283L62.5913 163.283C60.9873 160.52 59.4404 158.39 59.4246 158.366C59.137 157.97 58.6528 157.769 58.1694 157.846C57.6863 157.922 57.2873 158.262 57.1362 158.728L55.7812 162.895C54.7031 162.049 53.533 161.019 52.1492 160.064C51.0449 159.303 49.7698 158.611 48.2993 158.14C47.9536 157.665 47.6074 157.239 47.2749 156.865C45.9712 155.396 44.8774 154.681 44.804 154.633C44.4316 154.392 43.9614 154.358 43.5581 154.542C43.1548 154.726 42.8726 155.104 42.8108 155.543L42.5122 157.66C41.3603 157.801 40.1367 158.059 38.812 158.486C38.6919 158.525 38.5845 158.578 38.4675 158.621C36.8826 158.033 35.4551 157.868 34.4602 157.868C33.574 157.868 33.0168 157.978 32.9478 157.992C32.561 158.072 32.2327 158.322 32.053 158.674C31.873 159.025 31.8625 159.438 32.0244 159.798L33.2791 162.592C32.4863 163.65 31.8901 164.722 31.4795 165.636C30.8489 167.045 30.6047 168.083 30.5906 168.142C30.4668 168.673 30.688 169.225 31.1445 169.524C31.6003 169.823 32.1936 169.805 32.6314 169.48L32.6316 169.48L32.6328 169.48C32.6748 169.448 33.3862 168.938 34.4817 168.447C35.5811 167.953 37.0591 167.488 38.6174 167.491C39.5623 167.491 40.5366 167.655 41.5227 168.077C42.5085 168.501 43.5159 169.185 44.5176 170.284C47.3914 173.433 49.4761 176.9 52.0508 179.856C53.3401 181.331 54.7644 182.677 56.4866 183.736C58.0889 184.722 59.9602 185.429 62.1396 185.78L62.0493 190.274C62.0349 190.992 62.605 191.585 63.323 191.6C64.0408 191.614 64.6343 191.044 64.6487 190.326L65.3296 156.412C65.8716 158.218 66.4509 159.921 67.0674 161.46C67.668 162.958 68.302 164.302 68.9834 165.449C69.6672 166.595 70.3904 167.549 71.2366 168.258C71.6387 168.588 72.0776 168.786 72.5518 168.945C73.2632 169.179 74.0742 169.315 74.9958 169.406C75.9163 169.495 76.9431 169.532 78.0486 169.532C81.9299 169.531 86.7991 169.07 90.9109 168.589C92.9656 168.349 94.8274 168.102 96.2695 167.904C97.707 167.707 98.7441 167.556 99.0859 167.514C99.6418 167.44 100.082 167.212 100.473 166.95C101.153 166.482 101.725 165.858 102.275 165.172C103.092 164.145 103.823 162.973 104.364 162.045C104.904 161.118 105.248 160.438 105.256 160.422C105.307 160.321 105.319 160.215 105.342 160.11H107.886C107.92 160.216 107.945 160.324 108.008 160.423C108.018 160.439 109.087 162.113 110.387 163.829C111.039 164.689 111.745 165.558 112.441 166.261C112.791 166.613 113.136 166.925 113.508 167.185C113.869 167.424 114.248 167.653 114.827 167.716L114.826 167.722C114.832 167.723 117.382 168.013 120.546 168.304C123.241 168.551 126.358 168.798 128.782 168.868C129.121 173.51 129.401 178.793 129.595 182.937C129.694 185.042 129.771 186.852 129.823 188.136C129.876 189.42 129.903 190.173 129.903 190.175C129.929 190.893 130.532 191.453 131.25 191.427C131.968 191.401 132.528 190.798 132.502 190.081C132.501 190.072 132.07 178.249 131.387 168.845C131.427 168.842 131.473 168.841 131.512 168.838C131.961 168.796 132.323 168.755 132.738 168.606C133.358 168.371 134.008 168.006 134.676 167.52C135.672 166.79 136.695 165.788 137.499 164.531C138.301 163.278 138.882 161.747 138.882 160.034C138.882 159.605 138.845 159.165 138.767 158.72C137.799 153.198 135.793 144.708 132.702 136.857L135.602 137.15C136.034 137.194 136.461 137.018 136.737 136.682C137.013 136.346 137.103 135.893 136.976 135.477C136.969 135.457 136.573 134.158 135.893 132.381C136.559 132.48 137.236 132.655 137.914 132.955C139.019 133.446 140.135 134.24 141.211 135.522C141.667 136.066 142.473 136.144 143.025 135.697C146.048 133.261 148.6 132.53 150.704 132.525C152.895 132.524 154.68 133.35 155.939 134.202C156.566 134.626 157.055 135.053 157.379 135.367C157.541 135.523 157.662 135.652 157.739 135.737L157.821 135.83L157.837 135.848L157.838 135.85L157.839 135.849C158.218 136.312 158.865 136.458 159.406 136.199C159.947 135.939 160.241 135.342 160.115 134.754C158.744 128.328 155.973 123.634 152.704 120.28C150.063 117.567 147.118 115.739 144.343 114.492C147.086 112.917 149.162 111.195 150.698 109.565C153.19 106.925 154.286 104.56 154.687 103.509C158.99 102.774 162.213 100.934 164.355 99.257C166.543 97.5445 167.629 96.0078 167.683 95.932C167.917 95.5977 167.981 95.1707 167.854 94.7825C167.728 94.3943 167.424 94.0868 167.038 93.9551ZM62.1924 183.149C60.5 182.833 59.0894 182.281 57.8474 181.52C55.7105 180.21 54.0032 178.274 52.2598 175.981C50.5164 173.695 48.7495 171.073 46.4402 168.534C45.2144 167.186 43.8875 166.261 42.5476 165.687C41.208 165.112 39.8653 164.89 38.6174 164.891C37.0029 164.893 35.5479 165.253 34.356 165.693C34.4204 165.575 34.4805 165.458 34.5506 165.338C35.0628 164.461 35.7295 163.551 36.5642 162.775C37.4004 161.997 38.3965 161.351 39.6082 160.961C40.5166 160.669 41.3552 160.465 42.1353 160.331L42.0882 160.666C42.0388 161.015 42.136 161.375 42.354 161.652C42.5718 161.929 42.8992 162.107 43.2498 162.142C44.8203 162.291 46.22 162.968 47.2193 163.627C47.718 163.955 48.1148 164.274 48.3797 164.506C48.5125 164.622 48.6121 164.716 48.6758 164.777L48.7434 164.844L48.7564 164.857L48.7566 164.857C49.1665 165.289 49.8225 165.388 50.3408 165.094C50.8599 164.799 51.1126 164.185 50.9509 163.61C50.7954 163.058 50.6128 162.543 50.4192 162.044C51.6817 162.877 52.8389 163.882 54.0381 164.835C54.3296 165.065 54.6328 165.281 54.9346 165.499L54.0366 168.261C53.8765 168.753 54.0249 169.296 54.4136 169.639C58.0266 172.814 62.241 174.801 62.2974 174.833C62.3172 174.842 62.3389 174.844 62.3589 174.852L62.1924 183.149ZM101.016 162.494C100.546 163.186 100.03 163.854 99.5738 164.314C99.3472 164.544 99.1355 164.72 98.979 164.821L98.7996 164.92L98.7605 164.934L98.7608 164.934C98.3504 164.986 97.3494 165.132 95.916 165.329C91.6304 165.918 83.5806 166.935 78.0486 166.932C76.6551 166.933 75.4243 166.867 74.4964 166.727C74.0332 166.658 73.6467 166.57 73.3687 166.477C73.0896 166.387 72.926 166.285 72.9009 166.26C72.3945 165.842 71.8025 165.107 71.2183 164.12C70.1887 162.393 69.1709 159.915 68.252 157.058C65.4814 148.48 63.5501 136.451 63.2227 129.72C63.2087 129.451 63.2024 129.185 63.2024 128.918C63.2009 123.099 66.3396 117.706 71.3479 114.698C71.3338 114.794 71.3191 114.893 71.3064 114.982C71.2271 115.539 71.1768 115.928 71.1531 116.162C71.147 116.186 71.1372 116.207 71.1316 116.231C71.0694 116.488 71.1101 116.736 71.1934 116.968C71.2395 117.211 71.3054 117.446 71.4021 117.658C71.689 118.28 72.1245 118.76 72.6121 119.176C73.2141 119.683 73.9234 120.076 74.6551 120.41C74.6409 120.417 74.624 120.424 74.6099 120.43C73.8206 120.786 73.1502 121.121 72.6072 121.464C71.4431 122.207 70.5654 123.304 69.8333 124.498C68.7424 126.292 67.9868 128.347 67.4812 129.975C66.9783 131.601 66.7356 132.795 66.7293 132.824C66.6443 133.242 66.7671 133.669 67.0603 133.978C67.3535 134.287 67.7732 134.431 68.1946 134.369L75.6402 133.261L76.0679 153.553C75.4917 153.434 74.8779 153.311 74.2869 153.203C73.5803 153.075 72.9036 153.543 72.7752 154.25C72.6465 154.956 73.115 155.633 73.8215 155.762L73.8213 155.761C74.5867 155.901 75.4121 156.069 76.124 156.221L76.1792 158.837C76.1939 159.543 76.7727 160.11 77.479 160.11H97.4705C97.4644 160.12 97.4604 160.133 97.4541 160.143C97.3149 160.391 97.1453 160.563 97.0522 160.612C96.9341 160.683 96.6514 160.803 96.3267 160.905C95.8357 161.062 95.2407 161.2 94.781 161.292C94.5505 161.339 94.3528 161.375 94.2146 161.399L94.0552 161.426L94.0049 161.434C93.2952 161.543 92.8084 162.207 92.9177 162.917C93.0269 163.626 93.6907 164.113 94.4004 164.004C94.4197 164 95.0606 163.902 95.856 163.721C96.2542 163.63 96.6909 163.518 97.1187 163.381C97.5481 163.242 97.9627 163.088 98.3626 162.857C98.8164 162.591 99.1482 162.246 99.4026 161.906C99.7822 161.393 100.003 160.879 100.148 160.481C100.2 160.338 100.237 160.217 100.269 160.11H102.474C102.122 160.742 101.601 161.636 101.016 162.494ZM82.5501 128.204C82.3726 128.77 82.2176 129.277 82.0984 129.671L69.7388 131.51C69.9661 130.709 70.2752 129.726 70.6712 128.715C71.0845 127.656 71.5916 126.574 72.1673 125.668C72.7405 124.758 73.3877 124.041 73.9971 123.661C74.3613 123.43 74.9524 123.126 75.6758 122.801C78.2227 121.655 82.4004 120.217 85.9038 119.086C86.1677 119.001 86.419 118.921 86.6746 118.839C85.6546 120.326 84.7268 122.138 83.8667 124.336C83.4414 125.425 82.947 126.94 82.5501 128.204ZM83.8252 157.51H78.752L78.2325 132.875L83.2032 132.135L83.8252 157.51ZM86.2881 125.283C86.5083 124.718 86.7329 124.194 86.9593 123.69C88.3858 123.486 89.8028 123.215 91.168 122.909L91.637 157.51H86.4261L85.6907 127.503C85.6878 127.386 85.6475 127.281 85.6158 127.174C85.8494 126.474 86.084 125.804 86.2881 125.283ZM88.4817 120.804C89.0078 119.97 89.5415 119.275 90.0774 118.729C90.7288 118.063 91.3758 117.604 92.0232 117.307C92.6721 117.012 93.325 116.871 94.0381 116.87C94.8946 116.87 95.8479 117.082 96.9151 117.544C97.3416 117.728 97.7893 117.964 98.2483 118.228C95.9229 118.991 92.272 120.102 88.4817 120.804ZM96.6946 121.445C96.8067 121.411 96.908 121.379 97.0174 121.346C97.0252 121.346 97.0315 121.35 97.0393 121.35L99.229 121.347L100.026 157.51H94.2373L93.7598 122.275C94.805 121.998 95.7971 121.716 96.6946 121.445ZM97.9483 115.158C96.6319 114.587 95.326 114.27 94.0381 114.27C93.3147 114.269 92.6023 114.381 91.9124 114.586C91.7847 114.585 91.6563 114.582 91.5274 114.62C91.522 114.622 89.97 115.078 87.7459 115.773C87.7158 115.76 87.6946 115.736 87.6631 115.725C87.6416 115.718 85.9803 115.162 83.7434 114.603C81.5005 114.045 78.7068 113.474 76.292 113.47C75.5366 113.472 74.8172 113.531 74.1358 113.684C74.232 113.094 74.3406 112.465 74.4575 111.846C74.6099 111.04 74.7764 110.251 74.9407 109.611C75.0225 109.292 75.104 109.01 75.178 108.789C75.2446 108.588 75.3071 108.446 75.336 108.391C75.3677 108.349 75.6231 108.127 76.0293 107.913C76.6748 107.561 77.677 107.171 78.8677 106.884C80.0601 106.595 81.4463 106.403 82.8946 106.403C84.5149 106.403 86.2105 106.643 87.822 107.237C90.9072 108.368 93.823 110.533 96.0694 112.742C96.9976 113.653 97.8047 114.566 98.4741 115.41C98.2989 115.325 98.1228 115.233 97.9483 115.158ZM74.5801 116.242C75.0169 116.13 75.6123 116.069 76.292 116.07C78.2954 116.065 80.981 116.588 83.1126 117.125C83.1949 117.146 83.2705 117.166 83.3511 117.186C81.7349 117.723 80.0657 118.298 78.5059 118.872C78.3702 118.808 78.2256 118.756 78.0669 118.742C77.2686 118.68 75.9903 118.273 75.0559 117.721C74.5857 117.45 74.198 117.142 73.9793 116.888C73.8824 116.778 73.8235 116.685 73.7874 116.614C73.8887 116.508 74.1424 116.351 74.5801 116.242ZM102.627 157.51L101.83 121.344L108.496 121.337L108.751 157.51H102.627ZM109.548 118.583C109.474 118.622 109.424 118.685 109.361 118.736L102.512 118.743C102.651 118.619 102.772 118.471 102.849 118.287L102.849 118.287C103.052 117.797 103.581 116.931 104.344 115.957C105.491 114.485 107.168 112.719 109.142 111.121C111.116 109.52 113.39 108.088 115.708 107.237C117.319 106.643 119.015 106.403 120.635 106.403C122.659 106.402 124.565 106.781 125.983 107.267C126.691 107.508 127.278 107.777 127.677 108.013C127.876 108.131 128.028 108.24 128.117 108.317L128.195 108.392C128.231 108.461 128.307 108.644 128.384 108.888C128.697 109.853 129.055 111.651 129.319 113.229C129.332 113.306 129.344 113.38 129.357 113.456C128.499 113.17 127.579 113.054 126.62 113.053C124.859 113.055 122.95 113.418 121.04 113.939C115.33 115.51 109.593 118.563 109.548 118.583ZM115.355 118.729C115.919 118.488 116.508 118.243 117.127 118.001C118.696 117.386 120.405 116.792 122.059 116.358C123.711 115.922 125.312 115.651 126.62 115.653C127.55 115.651 128.32 115.791 128.857 116.035C129.185 116.188 129.425 116.364 129.622 116.586C129.523 116.682 129.387 116.797 129.205 116.915C128.618 117.311 127.675 117.726 126.732 118.049C125.838 118.359 124.942 118.596 124.296 118.739C124.26 118.737 124.228 118.719 124.192 118.719L115.355 118.729ZM116.621 125.513C116.618 125.55 116.599 125.582 116.599 125.62L116.525 157.51H111.352L111.095 121.334L111.778 121.333C111.782 121.333 111.785 121.336 111.79 121.337C112.399 121.413 113.022 121.665 113.637 122.073C114.558 122.681 115.437 123.642 116.121 124.682C116.302 124.955 116.468 125.234 116.621 125.513ZM136.206 159.167C136.258 159.463 136.282 159.752 136.282 160.034C136.285 161.516 135.603 162.899 134.652 164.017C134.179 164.572 133.647 165.051 133.141 165.421C132.639 165.79 132.155 166.049 131.828 166.17C131.823 166.176 131.587 166.227 131.265 166.249C130.935 166.275 130.499 166.289 129.996 166.289C127.663 166.29 123.913 166.004 120.784 165.715C119.217 165.571 117.799 165.427 116.774 165.319C115.837 165.22 115.238 165.152 115.14 165.141C115.066 165.106 114.875 164.978 114.654 164.78C114.259 164.431 113.755 163.881 113.252 163.267C112.494 162.344 111.723 161.274 111.149 160.442C111.065 160.322 110.996 160.219 110.921 160.11H113.96C114.026 160.313 114.106 160.547 114.212 160.809C114.346 161.137 114.51 161.49 114.737 161.839C114.972 162.181 115.247 162.562 115.828 162.836C116.129 162.968 116.458 163.073 116.839 163.189C117.965 163.527 119.444 163.876 119.457 163.879C120.155 164.045 120.856 163.612 121.021 162.914C121.187 162.215 120.754 161.515 120.056 161.349C120.055 161.349 119.898 161.312 119.645 161.25C119.265 161.156 118.675 161.007 118.12 160.853C117.843 160.776 117.574 160.697 117.351 160.626C117.186 160.574 117.059 160.528 116.971 160.494C116.938 160.453 116.876 160.369 116.809 160.238C116.788 160.2 116.77 160.151 116.75 160.11H125.883C126.593 160.11 127.172 159.54 127.183 158.83L127.217 156.694L129.993 156.324C130.705 156.229 131.205 155.575 131.11 154.863C131.015 154.152 130.362 153.652 129.65 153.747L127.258 154.065L127.538 136.335L129.776 136.561C133.058 144.491 135.217 153.505 136.206 159.167ZM119.125 157.51L119.177 135.174C119.385 135.391 119.665 135.539 119.983 135.572L124.942 136.073L124.603 157.51H119.125ZM121.272 133.089C121.099 131.874 120.732 129.705 120.033 127.016C119.63 125.491 118.746 123.732 117.491 122.171C119.466 122.504 121.398 122.857 123.091 123.221C124.312 123.483 125.403 123.75 126.3 124.01C127.084 124.297 127.856 124.604 128.545 124.914C129.152 125.339 129.891 126.189 130.572 127.273C131.682 129.017 132.68 131.281 133.38 133.089C133.557 133.547 133.716 133.975 133.855 134.36L121.272 133.089ZM162.663 97.2797C160.74 98.7635 157.879 100.378 154.028 100.991C153.769 101.032 153.556 101.164 153.376 101.328C152.915 101.423 152.519 101.751 152.382 102.234L152.38 102.234C152.374 102.255 151.612 104.868 148.669 107.926C145.802 110.899 140.859 114.324 132.383 116.214C132.371 116.082 132.35 115.91 132.318 115.661C132.2 114.769 131.946 113.048 131.627 111.364C131.468 110.521 131.293 109.69 131.108 108.966C131.015 108.603 130.919 108.267 130.816 107.961C130.712 107.654 130.607 107.382 130.458 107.109C130.273 106.78 130.052 106.555 129.811 106.345C129.388 105.984 128.88 105.681 128.271 105.389C126.453 104.529 123.716 103.809 120.635 103.803C118.761 103.803 116.762 104.079 114.81 104.797C111.238 106.116 108.01 108.485 105.488 110.871C104.227 112.065 103.146 113.265 102.294 114.358C102.044 114.68 101.82 114.987 101.611 115.287C101.413 114.994 101.202 114.693 100.967 114.378C99.7388 112.74 98.0159 110.852 95.9322 109.112C93.8482 107.376 91.4053 105.787 88.72 104.797C86.7674 104.079 84.7691 103.803 82.8946 103.803C80.5491 103.805 78.396 104.23 76.7059 104.806C75.8594 105.096 75.1297 105.421 74.5296 105.775C74.229 105.953 73.9602 106.138 73.7183 106.345C73.4776 106.555 73.2566 106.781 73.0716 107.11C72.9517 107.329 72.8619 107.556 72.7764 107.794C62.8748 103.272 57.2037 98.3154 54.0096 93.9721C50.7359 89.5193 50.0254 85.6813 50.024 83.5064C50.0237 82.9397 50.0742 82.4875 50.1324 82.1931C50.239 81.65 49.9864 81.1262 49.544 80.8482C49.4388 80.6688 49.3047 80.5051 49.1143 80.3896L49.114 80.3895C45.7281 78.3348 43.6787 75.708 42.4676 73.5899C42.0569 72.8711 41.7508 72.2207 41.5181 71.6674L50.0545 72.1727C50.6226 72.2064 51.1441 71.8691 51.3465 71.3369C51.5486 70.8048 51.3828 70.2062 50.9358 69.854L50.9256 69.8458C50.7701 69.7224 49.064 68.3225 47.4383 66.1586C46.6248 65.0778 45.8326 63.8082 45.252 62.4259C44.6707 61.0424 44.3013 59.5529 44.3016 58.0044C44.3018 57.5828 44.334 57.1556 44.3919 56.7239L58.7986 65.5547C59.4107 65.9299 60.211 65.7379 60.5862 65.1258C60.9615 64.5137 60.7696 63.7133 60.1575 63.338L56.784 61.2702C56.8846 61.0969 56.9583 60.9069 56.969 60.6931C57.5938 48.1728 60.6075 37.7566 66.8443 30.5353C69.9661 26.9184 73.8965 24.0701 78.8301 22.1036C83.7627 20.1393 89.7078 19.0647 96.8191 19.0648C99.7022 19.0646 102.782 19.2466 106.055 19.6116C106.49 19.7018 107.188 19.8728 107.991 20.1698C109.299 20.6509 110.862 21.466 112.039 22.7284C113.271 24.0302 114.041 26.0825 114.441 28.0494C114.848 30.012 114.908 31.8601 114.908 32.713C114.908 32.8789 114.905 33.0075 114.903 33.0926L114.901 33.1868L114.9 33.2109C114.869 33.9085 115.392 34.5035 116.088 34.5629C116.784 34.6223 117.4 34.1245 117.488 33.4319L117.494 33.3854C117.562 32.8687 118.235 28.1147 119.872 23.3397C120.01 22.9373 120.164 22.5379 120.316 22.138C133.15 25.2219 142.232 29.8336 148.199 35.596C151.552 38.8336 153.942 42.4321 155.509 46.3802C157.074 50.3281 157.815 54.6339 157.815 59.2783C157.816 65.7395 156.375 72.8524 153.734 80.4603L150.253 81.0296C149.545 81.1455 149.064 81.8139 149.18 82.5225C149.296 83.2311 149.965 83.7114 150.673 83.5955L167.339 80.8696C167 82.1748 166.418 83.3289 165.664 84.3555C164.073 86.5222 161.727 88.1041 159.77 89.1116C158.793 89.6166 157.918 89.9806 157.294 90.2154C156.982 90.3329 156.732 90.4182 156.565 90.4731L156.377 90.5328L156.333 90.546L156.325 90.5483C155.778 90.7055 155.398 91.1969 155.384 91.766C155.37 92.3351 155.725 92.8445 156.264 93.0283L164.361 95.7892C163.917 96.2322 163.354 96.7461 162.663 97.2797Z"/><path id="Vector_8" d="M111.439 84.8491C110.682 84.9193 109.901 84.9541 109.102 84.9541C104.06 84.9591 98.3555 83.5429 93.8086 80.9898C93.2844 80.6963 92.6238 80.8013 92.217 81.2432C89.8457 83.8352 88.3281 87.6942 88.3164 91.6318C88.3152 94.2068 88.9922 96.838 90.6213 99.0624C92.2461 101.289 94.8127 103.049 98.3494 103.935C99.633 104.259 100.849 104.413 101.993 104.413C104.021 104.415 105.824 103.923 107.344 103.079C109.628 101.811 111.25 99.7925 112.295 97.5789C113.342 95.3594 113.833 92.9283 113.835 90.6807C113.831 88.7608 113.483 86.9698 112.7 85.5213C112.452 85.0667 111.954 84.8012 111.439 84.8491ZM108.937 98.1988C108.169 99.2759 107.221 100.173 106.083 100.805C104.943 101.435 103.607 101.812 101.993 101.813C101.082 101.813 100.082 101.691 98.9856 101.414C95.9307 100.638 93.9717 99.2286 92.719 97.5262C91.4702 95.8214 90.9175 93.7627 90.9163 91.6318C90.9058 88.7586 91.9636 85.7986 93.5068 83.756C98.3047 86.2177 103.933 87.5494 109.102 87.5541C109.655 87.5541 110.201 87.5331 110.742 87.5021C111.052 88.3634 111.238 89.4705 111.235 90.6807C111.241 93.1688 110.474 96.0524 108.937 98.1988Z"/></g></g></svg>