<svg xmlns="http://www.w3.org/2000/svg" width="200" height="200" fill="none"><path fill="#FFE632" d="M98.67 102.675c1.09.281 2.12.42 3.07.43 1.25-7.9-8.06-11.82-12.09-10.68.26 4.43 2.8 8.68 9.02 10.25ZM102.07 103.105h-.33c.111.01.22.01.321.01l.009-.01Z"/><path fill="#BEBEC9" d="M95.856 163.721a15.89 15.89 0 0 0 1.263-.339c.43-.14.844-.294 1.244-.525a3.529 3.529 0 0 0 1.04-.951c.38-.513.6-1.027.745-1.425.143-.398.204-.681.213-.724a1.298 1.298 0 0 0-2.541-.541l-.002-.001a3.668 3.668 0 0 1-.364.929c-.14.247-.309.419-.402.468-.118.071-.4.191-.725.293-.49.158-1.086.295-1.546.388-.23.046-.428.082-.566.106l-.16.027-.05.008a1.3 1.3 0 1 0 .395 2.57c.02-.003.66-.102 1.456-.283Zm1.961-4.5v.001-.001ZM131.878 134.837a1.3 1.3 0 0 0-2.393 1.017l-.001-.001c3.443 8.099 5.703 17.48 6.726 23.317.051.293.075.58.075.862.004 1.482-.68 2.866-1.632 3.984a8.998 8.998 0 0 1-1.512 1.404c-.504.369-.989.628-1.314.747h-.001a3.247 3.247 0 0 1-.569.08c-.333.026-.772.04-1.28.04-2.337.001-6.082-.284-9.207-.571a293.575 293.575 0 0 1-5.63-.57 2.657 2.657 0 0 1-.488-.363c-.395-.349-.899-.899-1.402-1.514a44.413 44.413 0 0 1-2.104-2.824 58.377 58.377 0 0 1-.692-1.026l-.193-.293-.064-.101a1.3 1.3 0 0 0-2.191 1.4c.01.016 1.079 1.69 2.378 3.406.653.86 1.358 1.729 2.054 2.433.35.352.696.664 1.068.924.361.24.74.469 1.319.533l-.001.006c.006 0 2.55.289 5.709.579 2.698.246 5.821.492 8.249.561.339 4.642.619 9.926.813 14.071a807.25 807.25 0 0 1 .308 7.238 1.3 1.3 0 0 0 2.599-.095c-.001-.008-.432-11.834-1.115-21.239l.117-.007c.452-.042.816-.083 1.232-.232.62-.233 1.27-.598 1.938-1.083a11.319 11.319 0 0 0 2.827-2.989c.802-1.254 1.383-2.785 1.384-4.499 0-.427-.036-.866-.114-1.311-1.057-6.004-3.336-15.502-6.893-23.884Z"/><path fill="#BEBEC9" d="m132.738 168.602-.002.001h-.002l.004-.001ZM104.688 158.675a1.3 1.3 0 0 0-1.747.574l-.03.059c-.16.31-.944 1.798-1.891 3.186-.471.692-.987 1.36-1.445 1.82-.227.23-.44.406-.596.507l-.181.099-.04.015c-.41.051-1.41.198-2.843.394-4.28.589-12.322 1.603-17.854 1.601-1.396 0-2.629-.066-3.559-.206a7.071 7.071 0 0 1-1.13-.25c-.28-.09-.444-.193-.47-.218-.506-.417-1.098-1.151-1.682-2.138-1.03-1.726-2.048-4.202-2.967-7.059-2.772-8.577-4.706-20.608-5.034-27.339-.013-.26-.02-.519-.02-.78 0-6.64 4.066-12.738 10.345-15.366a1.3 1.3 0 0 0-1.004-2.398 19.538 19.538 0 0 0-7.466 5.525c-2.203-1.144-3.564-2.765-4.407-4.188a11.49 11.49 0 0 1-.953-2.045 8.315 8.315 0 0 1-.185-.602l-.037-.148-.006-.028-.001-.001a1.298 1.298 0 0 0-1.285-1.044c-.104.003-5.722.049-12.432 2.828-3.354 1.391-6.982 3.472-10.297 6.587-3.316 3.114-6.31 7.264-8.386 12.73a1.299 1.299 0 0 0 2.13 1.385c.066-.061.623-.565 1.623-1.046 1.002-.481 2.438-.943 4.317-.944 2.73.004 6.45.97 11.177 4.54.463.351 1.109.35 1.571-.001 3.267-2.476 5.972-3.201 8.161-3.206 1.885 0 3.428.553 4.61 1.172.051.027.106.027.158.046.37 4.084 1.116 9.158 2.154 14.218-.031.107-.07.212-.073.329l-.324 16.134c-1.572-2.61-3.122-4.986-3.128-4.997a1.3 1.3 0 0 0-2.326.307l-1.354 4.167c-.782-.61-1.608-1.308-2.53-2.019-1.36-1.044-2.96-2.07-4.928-2.701a16.997 16.997 0 0 0-1.048-1.309c-1.304-1.469-2.398-2.184-2.47-2.232a1.3 1.3 0 0 0-1.994.91l-.297 2.109a19.953 19.953 0 0 0-3.684.83l-.005.002-.011.003v.001c-.12.037-.232.09-.348.132-1.584-.588-3.01-.752-4.004-.752-.888 0-1.446.111-1.515.125a1.298 1.298 0 0 0-.922 1.805l1.247 2.779a16.112 16.112 0 0 0-1.887 3.28c-.558 1.294-.777 2.228-.79 2.283a1.301 1.301 0 0 0 2.04 1.338h.001c.037-.028.75-.541 1.85-1.033 1.098-.495 2.576-.959 4.135-.957a7.304 7.304 0 0 1 2.904.586c.986.424 1.993 1.108 2.995 2.206 2.873 3.15 4.959 6.618 7.533 9.575 1.29 1.475 2.713 2.821 4.435 3.879 1.602.987 3.473 1.694 5.652 2.044l-.09 4.496a1.3 1.3 0 0 0 2.599.052l.68-33.915a60.387 60.387 0 0 0 1.74 5.05c.6 1.497 1.235 2.841 1.916 3.987.684 1.145 1.408 2.098 2.254 2.806.403.331.842.529 1.317.688.712.234 1.525.37 2.448.461.921.089 1.95.127 3.057.127 3.88-.001 8.746-.461 12.854-.941 2.053-.241 3.913-.486 5.353-.684 1.436-.197 2.472-.348 2.814-.39.554-.074.996-.301 1.388-.563.681-.468 1.255-1.093 1.806-1.778.818-1.027 1.551-2.2 2.093-3.128.54-.928.884-1.608.892-1.624a1.3 1.3 0 0 0-.573-1.747Zm-42.495 24.472c-1.692-.316-3.103-.867-4.344-1.628-2.136-1.309-3.843-3.246-5.586-5.539-1.744-2.287-3.511-4.91-5.82-7.45-1.227-1.348-2.554-2.272-3.894-2.846a9.911 9.911 0 0 0-3.928-.796c-1.617.002-3.073.363-4.265.804l.034-.066c.91-1.649 2.35-3.445 4.462-4.37l.126-.054.036-.016a4.51 4.51 0 0 1 .58-.218l.015-.006c.91-.292 1.744-.489 2.525-.621l-.046.325c-.05.349.048.709.266.986.218.277.545.455.896.49 1.57.149 2.97.826 3.97 1.485.499.328.896.648 1.16.879.133.116.233.21.297.272l.068.067.01.011.002.002v-.001c.41.432 1.067.531 1.585.237.519-.294.772-.909.61-1.484a17.32 17.32 0 0 0-.527-1.554c.422.279.838.57 1.243.882 1.094.836 2.135 1.757 3.264 2.568l-.896 2.756a1.302 1.302 0 0 0 .378 1.377c3.613 3.175 7.827 5.162 7.883 5.194.02.009.042.007.062.015l-.166 8.299Zm.224-11.176c-1.268-.684-3.548-2.014-5.639-3.734l1.979-6.086c1.1 1.754 2.58 4.174 3.57 6.025.042.078.108.131.162.197l-.072 3.598ZM60.6 128.94c0 .286.007.576.021.868a12.175 12.175 0 0 0-4.557-.89c-2.587-.005-5.628.857-8.935 3.168-4.728-3.388-8.778-4.504-11.974-4.501a12.79 12.79 0 0 0-4.096.657c1.745-3.405 3.883-6.116 6.192-8.287 4.565-4.291 9.823-6.479 13.95-7.585a35.341 35.341 0 0 1 5.085-.978c.373-.043.692-.072.965-.094.226.655.594 1.548 1.177 2.537a13.573 13.573 0 0 0 5.108 4.988c-1.873 2.988-2.935 6.473-2.936 10.117ZM117.47 76.854a3 3 0 1 0 3.257 5.04c.342-.225.896-.468 1.593-.637a10.35 10.35 0 0 1 2.428-.271c2.135-.007 4.576.582 6.497 1.767a9.183 9.183 0 0 1 2.487 2.193 8.5 8.5 0 0 1 1.527 3.158 3 3 0 1 0 5.814-1.484h-.001a14.526 14.526 0 0 0-2.601-5.353c-1.754-2.258-4.046-3.827-6.437-4.826-2.398-1-4.91-1.453-7.286-1.455-1.335 0-2.629.144-3.852.443-1.223.3-2.379.75-3.426 1.425ZM73.71 72.61c1.27-.569 2.696-.836 4.156-.836a13.101 13.101 0 0 1 5.188 1.095 9.922 9.922 0 0 1 1.944 1.118c.527.394.91.796 1.129 1.113a3 3 0 0 0 4.919-3.436c-.67-.955-1.503-1.765-2.442-2.473-1.41-1.058-3.07-1.891-4.89-2.483a19.065 19.065 0 0 0-5.848-.934c-2.183 0-4.45.396-6.603 1.357a14.47 14.47 0 0 0-5.76 4.65 3 3 0 1 0 4.822 3.572c.98-1.317 2.114-2.17 3.386-2.744ZM77.422 49.054c2.63-.942 5.468-1.35 8.18-1.35 3.321-.003 6.455.617 8.734 1.546a1.3 1.3 0 0 0 .979-2.409c-2.661-1.078-6.071-1.735-9.712-1.737-2.971 0-6.094.443-9.057 1.502-2.96 1.06-5.767 2.745-8.035 5.225a1.3 1.3 0 1 0 1.918 1.755c1.942-2.122 4.361-3.589 6.993-4.532ZM135.123 58.246c3.923 2.188 7.343 5.454 8.943 9.799a1.3 1.3 0 1 0 2.439-.9c-1.881-5.09-5.809-8.768-10.116-11.17-4.321-2.402-9.037-3.57-12.811-3.584a1.3 1.3 0 1 0-.005 2.6c3.241 0 7.639 1.067 11.55 3.255Z"/><path fill="#BEBEC9" d="m167.038 93.956-6.623-2.259a24.856 24.856 0 0 0 2.84-1.62c1.576-1.05 3.2-2.415 4.502-4.179 1.3-1.76 2.269-3.937 2.471-6.503a1.302 1.302 0 0 0-1.506-1.385l-12.092 1.977c2.423-7.313 3.786-14.25 3.787-20.707.012-9.422-2.921-17.862-9.523-24.666-6.358-6.562-16.026-11.591-29.559-14.895.514-1.082 1.081-2.102 1.704-2.99.643-.92 1.341-1.7 2.074-2.288.735-.589 1.497-.985 2.308-1.18.507-.122.89-.532.978-1.046a1.297 1.297 0 0 0-.576-1.31c-.111-.06-2.9-1.89-6.762-1.905a10.981 10.981 0 0 0-4.696 1.037c-1.272.596-2.538 1.492-3.736 2.742l-2.207-2.27a1.294 1.294 0 0 0-.944-.395c-.357.004-.693.15-.937.411-.065.08-2.365 2.52-3.716 6.354a83.895 83.895 0 0 0-8.028-.412c-7.366 0-13.643 1.114-18.94 3.224-7.949 3.16-13.647 8.595-17.394 15.621-3.657 6.846-5.499 15.181-6.04 24.512l-10.22-6.265a1.3 1.3 0 0 0-1.918.713 12.203 12.203 0 0 0-.583 3.732c0 2.028.498 3.914 1.22 5.586 1.035 2.389 2.522 4.353 3.798 5.781l-6.988-.413a1.301 1.301 0 0 0-1.344 1.586c.021.09.445 1.923 1.823 4.336a21.527 21.527 0 0 0 7.269 7.544c-.033.33-.055.684-.055 1.083-.002 2.726.893 7.115 4.49 12.006 3.596 4.89 9.866 10.249 20.552 15a1.3 1.3 0 1 0 1.057-2.375c-10.374-4.614-16.239-9.713-19.514-14.166-3.274-4.452-3.984-8.29-3.985-10.465a7 7 0 0 1 .108-1.313 1.293 1.293 0 0 0-.588-1.345 1.264 1.264 0 0 0-.43-.459 18.896 18.896 0 0 1-6.647-6.8 17.68 17.68 0 0 1-.95-1.922l8.537.505a1.298 1.298 0 0 0 1.292-.836 1.298 1.298 0 0 0-.41-1.483l-.01-.008c-.156-.123-1.862-1.523-3.488-3.687-.814-1.081-1.606-2.351-2.187-3.734-.581-1.383-.95-2.873-.95-4.421 0-.421.032-.848.09-1.28l14.407 8.83a1.3 1.3 0 0 0 1.36-2.215l-3.376-2.069a1.27 1.27 0 0 0 .187-.58c.624-12.515 3.636-22.93 9.87-30.15 3.12-3.618 7.049-6.466 11.98-8.433 4.93-1.965 10.87-3.04 17.977-3.04 2.9 0 5.995.18 9.29.551.438.092 1.12.261 1.904.552 1.309.48 2.871 1.296 4.049 2.559 1.232 1.302 2.002 3.354 2.402 5.32a23.996 23.996 0 0 1 .462 5.044l-.003.094v.024a1.298 1.298 0 0 0 1.188 1.352 1.299 1.299 0 0 0 1.4-1.13l.006-.047c.068-.517.741-5.271 2.378-10.046.137-.4.29-.796.441-1.194 13.444 3.227 22.765 8.13 28.712 14.277 6.103 6.318 8.779 13.953 8.791 22.856.001 6.46-1.44 13.573-4.08 21.181l-3.483.57a1.3 1.3 0 1 0 .42 2.566l16.666-2.726a10.173 10.173 0 0 1-1.676 3.486c-1.591 2.166-3.937 3.748-5.893 4.756-.977.505-1.853.869-2.477 1.104-.312.117-.561.203-.729.257l-.188.06-.043.013-.008.003a1.298 1.298 0 0 0-.941 1.217 1.297 1.297 0 0 0 .88 1.263l8.096 2.76c-.444.443-1.007.957-1.698 1.49a18.91 18.91 0 0 1-8.634 3.712c-.26.041-.472.173-.653.338-.46.094-.857.423-.993.906l-.002-.001c-.006.022-.768 2.634-3.711 5.692-2.94 3.049-8.053 6.578-16.932 8.434-.191.021-.379.047-.573.062a1.3 1.3 0 1 0 .2 2.593v-.001c1.736-.133 3.326-.479 5.047-.973 1.61-.463 3.359-1.058 5.498-1.752 2.918 1.127 6.127 2.921 8.931 5.804 2.269 2.335 4.279 5.387 5.67 9.412-1.486-.845-3.447-1.579-5.807-1.58-2.478-.005-5.327.839-8.345 3.021-1.077-1.071-2.227-1.853-3.391-2.368a10.608 10.608 0 0 0-4.315-.898l-.18.002a1.3 1.3 0 0 0 .084 2.599l.096-.001a7.998 7.998 0 0 1 3.262.676c1.104.49 2.22 1.284 3.297 2.566a1.3 1.3 0 0 0 1.814.176c3.023-2.437 5.575-3.167 7.678-3.173 2.191-.001 3.975.825 5.235 1.677.627.425 1.116.852 1.439 1.165.163.157.284.285.361.37l.082.093.014.017.001.001.002.002a1.3 1.3 0 0 0 2.277-1.095c-1.37-6.428-4.142-11.121-7.41-14.475-2.64-2.713-5.585-4.541-8.36-5.788 2.743-1.575 4.819-3.297 6.354-4.926 2.492-2.64 3.588-5.006 3.99-6.057a21.52 21.52 0 0 0 9.666-4.252c2.188-1.712 3.273-3.249 3.328-3.325a1.302 1.302 0 0 0-.645-1.976ZM119.21 18.133c-1.197 2.408-2.082 5.046-2.735 7.432-.516-1.634-1.295-3.274-2.537-4.613-1.627-1.732-3.619-2.707-5.195-3.276-.477-.17-.911-.3-1.295-.403a17.458 17.458 0 0 1 2.136-3.896l2.16 2.222c.258.266.624.41.996.392.371-.018.721-.197.952-.488 1.256-1.571 2.537-2.53 3.777-3.112a8.372 8.372 0 0 1 3.592-.791c1.077 0 2.079.196 2.924.448-.201.142-.402.284-.593.441-1.748 1.442-3.09 3.454-4.182 5.644Z"/><path fill="#BEBEC9" d="m98.353 103.936-.002-.001-.003-.001.005.002Z"/><path fill="#BEBEC9" d="M112.306 97.554a16.444 16.444 0 0 0 1.529-6.878c-.004-1.918-.349-3.706-1.132-5.154a1.302 1.302 0 0 0-1.26-.672c-.756.07-1.535.104-2.329.104-5.047.005-10.754-1.413-15.309-3.964a1.3 1.3 0 0 0-1.59.254c-1.977 2.155-3.338 5.182-3.76 8.406l-.003.019v.001a6.226 6.226 0 0 0-.065.716c-.02.156-.034.306-.042.418l-.001.02c-.015.264-.024.536-.024.813 0 .155.005.311.012.468v.002c.001.022 0 .043.002.065.004.154.015.285.024.379.15 2.417.927 4.844 2.552 6.882 1.632 2.053 4.105 3.664 7.441 4.502a14.25 14.25 0 0 0 3.276.462v.003c.185.016.333.014.435.014h.008c2.016-.01 3.808-.511 5.317-1.36 2.27-1.275 3.88-3.291 4.919-5.5Zm-6.191 3.232c-1.133.634-2.458 1.016-4.059 1.028a2.424 2.424 0 0 1-.2-.004l-.101-.005a11.668 11.668 0 0 1-2.76-.389l-.006-.001c-2.882-.733-4.789-2.032-6.046-3.603-1.254-1.574-1.875-3.467-1.994-5.463l-.004-.05a2.174 2.174 0 0 1-.013-.194l-.002-.068a7.564 7.564 0 0 1-.01-.4c0-.218.008-.444.02-.67.009-.13.018-.231.026-.28l.016-.202c-.001-.105.017-.264.046-.464l.003-.02c.293-2.337 1.226-4.59 2.475-6.245 4.803 2.46 10.434 3.793 15.608 3.798.55 0 1.092-.02 1.631-.051.308.859.494 1.964.491 3.173.005 2.48-.757 5.354-2.285 7.5-.762 1.076-1.705 1.975-2.836 2.61ZM114.742 157.988a1.299 1.299 0 0 0-.942 1.578h-.001c.01.035.148.59.413 1.243.134.328.297.681.525 1.031.235.341.51.722 1.091.996a9.33 9.33 0 0 0 1.011.354c1.126.338 2.604.686 2.617.69a1.3 1.3 0 0 0 .599-2.53l-.411-.1a59.898 59.898 0 0 1-1.524-.397 22.56 22.56 0 0 1-.769-.226 5.633 5.633 0 0 1-.38-.133 1.415 1.415 0 0 1-.162-.256 5.813 5.813 0 0 1-.356-.864 9.449 9.449 0 0 1-.102-.331l-.025-.09-.005-.02v-.002a1.3 1.3 0 0 0-1.579-.943ZM78.672 155.442a1.3 1.3 0 0 0-.994-1.547c-.832-.181-2.174-.474-3.4-.69a1.3 1.3 0 1 0-.452 2.56c1.153.203 2.47.49 3.3.671a1.301 1.301 0 0 0 1.546-.994ZM126.886 156.738l3.108-.414a1.3 1.3 0 0 0-.343-2.577l-3.108.414a1.3 1.3 0 0 0 .343 2.577Z"/><path fill="#FFE632" d="M136.976 135.478c-.01-.029-.77-2.527-2.007-5.355-.62-1.415-1.358-2.913-2.203-4.243-.852-1.329-1.783-2.506-2.969-3.268-.665-.413-1.488-.711-2.529-1.029a38.647 38.647 0 0 0-1.741-.466c1.045-.264 2.345-.661 3.549-1.194.768-.344 1.492-.733 2.105-1.243.306-.257.589-.548.818-.915.125-.201.229-.434.301-.686.112-.243.14-.509.089-.781l-.003-.059v-.007a14.935 14.935 0 0 0-.068-.571 84.008 84.008 0 0 0-.691-4.297 38.882 38.882 0 0 0-.519-2.398 14.676 14.676 0 0 0-.291-1.004 5.195 5.195 0 0 0-.359-.853 2.838 2.838 0 0 0-.646-.764c-.423-.36-.932-.663-1.541-.956-1.817-.86-4.554-1.581-7.635-1.586-1.875 0-3.873.275-5.825.993-3.572 1.32-6.801 3.689-9.323 6.074a32.182 32.182 0 0 0-3.194 3.488c-.25.322-.473.63-.683.929a23.662 23.662 0 0 0-.644-.909c-1.228-1.638-2.95-3.527-5.035-5.266-2.084-1.737-4.526-3.326-7.212-4.316-1.952-.718-3.95-.993-5.825-.993-2.346.001-4.5.427-6.19 1.003-.846.289-1.576.615-2.176.969-.3.178-.569.363-.811.571-.24.21-.462.436-.647.765a5.64 5.64 0 0 0-.4.984c-.395 1.242-.744 3.06-1.023 4.701a90.3 90.3 0 0 0-.341 2.186c-.08.558-.13.946-.154 1.181-.006.023-.016.045-.021.068-.063.258-.022.506.062.738.046.243.112.477.208.688.287.623.722 1.103 1.21 1.519.602.507 1.312.9 2.044 1.235l-.046.019c-.79.356-1.46.692-2.003 1.035-1.164.742-2.041 1.84-2.773 3.033-1.091 1.794-1.847 3.85-2.353 5.477-.502 1.626-.745 2.819-.751 2.849-.085.417.037.844.33 1.153.294.309.713.454 1.135.391l7.445-1.108.54 25.577a1.302 1.302 0 0 0 1.3 1.272h48.404a1.3 1.3 0 0 0 1.299-1.279l.354-22.494 8.064.814a1.3 1.3 0 0 0 1.375-1.672Zm-62.518-23.631c.153-.807.32-1.595.483-2.235.082-.32.163-.602.238-.822.066-.201.128-.344.158-.399.031-.042.286-.264.693-.478.645-.353 1.647-.743 2.838-1.029a17.254 17.254 0 0 1 4.027-.481c1.62-.001 3.316.24 4.927.833 3.085 1.131 6.001 3.296 8.248 5.506a29 29 0 0 1 2.406 2.669c-.176-.085-.353-.177-.528-.253-1.316-.57-2.622-.887-3.91-.887a7.36 7.36 0 0 0-2.128.317c-.126-.002-.254-.005-.382.033-.006.001-1.558.458-3.782 1.153-.03-.013-.051-.037-.083-.048-.021-.007-1.682-.563-3.919-1.123-2.243-.557-5.036-1.128-7.451-1.133-.756.003-1.475.062-2.157.215.096-.59.205-1.22.322-1.838Zm23.79 6.382c-2.325.763-5.977 1.874-9.767 2.575.527-.833 1.06-1.529 1.596-2.075.651-.665 1.299-1.125 1.946-1.421a4.766 4.766 0 0 1 2.015-.438c.856 0 1.81.212 2.877.674.426.185.874.421 1.333.685Zm-24.269-1.34a1.357 1.357 0 0 1-.19-.275c.1-.106.355-.262.792-.371.437-.112 1.032-.174 1.712-.173 2.003-.004 4.689.519 6.82 1.055l.239.062a158.025 158.025 0 0 0-4.846 1.686 1.292 1.292 0 0 0-.439-.13c-.798-.063-2.076-.47-3.01-1.022-.471-.271-.859-.579-1.078-.832Zm-4.24 14.621a30.61 30.61 0 0 1 .932-2.795c.414-1.058.92-2.141 1.496-3.047.574-.909 1.221-1.626 1.83-2.006.365-.232.956-.536 1.679-.86 2.547-1.146 6.725-2.584 10.228-3.716l.77-.246c-1.02 1.487-1.948 3.298-2.808 5.497-.425 1.088-.919 2.603-1.316 3.867-.177.566-.332 1.072-.452 1.466l-12.359 1.84Zm9.013 25.999-.52-24.635 5.066-.754c.5-.074.914-.434 1.056-.919l.192-.643c.36-1.196 1.17-3.818 1.742-5.275.22-.564.444-1.088.67-1.593 3.534-.503 7.034-1.429 9.737-2.244l.323-.1c.008 0 .014.005.022.005l2.19-.003.795 36.162-21.273-.001Zm50.454-40.594c-.588.397-1.53.811-2.474 1.135-.893.309-1.788.546-2.434.69-.037-.003-.069-.022-.106-.022l-8.837.011a60.076 60.076 0 0 1 1.772-.728c1.569-.615 3.278-1.208 4.932-1.643 1.652-.436 3.252-.707 4.561-.705.93-.002 1.7.139 2.237.383.328.152.568.328.765.55a2.762 2.762 0 0 1-.416.329Zm-26.357 1.373c.204-.491.732-1.357 1.496-2.331 1.146-1.472 2.823-3.238 4.798-4.836 1.974-1.601 4.248-3.033 6.566-3.885 1.612-.593 3.306-.834 4.927-.833 2.023-.002 3.929.378 5.347.863.708.241 1.295.511 1.694.747.199.118.351.227.439.304l.08.076c.036.069.112.252.188.495.313.965.671 2.763.935 4.341l.038.227c-.858-.285-1.778-.401-2.737-.403-1.762.002-3.671.365-5.58.887-5.71 1.57-11.447 4.623-11.492 4.643-.074.039-.124.102-.187.153l-6.849.008c.14-.124.26-.273.337-.456Zm21.755 39.222h-21.978l-.796-36.165 9.946-.012c.005 0 .009.004.014.004.609.077 1.231.329 1.846.737.922.608 1.801 1.569 2.485 2.608.687 1.036 1.181 2.155 1.396 2.99a55.428 55.428 0 0 1 1.041 4.876 39.112 39.112 0 0 1 .25 1.746l.01.088.002.024c.06.617.546 1.104 1.163 1.166l4.958.501-.337 21.437Zm-3.331-24.42a56.287 56.287 0 0 0-1.24-6.073c-.403-1.526-1.287-3.286-2.543-4.846 1.976.332 3.908.686 5.601 1.05 1.318.283 2.496.572 3.429.852.928.274 1.634.568 1.887.736.629.386 1.434 1.301 2.165 2.465 1.11 1.744 2.107 4.008 2.807 5.815.178.458.337.887.476 1.272l-12.582-1.271Z"/></svg>