<svg xmlns="http://www.w3.org/2000/svg" width="200" height="200" fill="none"><path fill="#FFD93A" d="M118.75 42.75H79.5V70.5h39.25V42.75ZM80.667 92.667l-.5 4.333H64.001c-3.5 0-3.167-4.833 1.333-4.833s15.333.5 15.333.5ZM93.5 92.5l-.5 4.333h5.167l1.5-2.5L98 92.167l-4.5.333ZM110.834 97.25c3.666 0 3.833-4.75 0-4.75-3.834 0-3.084 4.75 0 4.75ZM58.082 113.583h14.167l1.25-9.166h-13.25l-2.167 9.166ZM83 113.583h14.083c.182-1.437.266-2.884.25-4.333.083-3.583-4.167-5.25-7-5a8.422 8.422 0 0 0-7.167 5.417 10.856 10.856 0 0 0-.167 3.916ZM55.5 146.833H72v-13H54.75l.75 13ZM139.624 153.75c-3.625 0-3.375-7.875.25-7.875h24.375c7.25 0 10.75-13.125 20.5-13.25s11.375 7.125 10.125 10.375-6.375 6.875-7.125 10 1.5 7.375 0 11.375-5.25 7.25-11.75 6.75-8.875-6.75-9.25-9 1-8.125-5.125-8.5"/><path fill="#191C22" d="M194.162 134.844a12.59 12.59 0 0 0-6.509-3.493 13.166 13.166 0 0 0-2.764-.299c-2.418.01-4.783.716-6.811 2.035a18.012 18.012 0 0 0-4.914 4.787 17.266 17.266 0 0 1-5.028 5.101 10.091 10.091 0 0 1-5.053 1.304 1.232 1.232 0 0 0-.305.072h-7.39v-14.179a305.939 305.939 0 0 0 6.011-1.15 4.093 4.093 0 0 0 1.65-.44 6.722 6.722 0 0 0 2.464-2.349 18.305 18.305 0 0 0 2.352-5.91c.583-2.603.871-5.264.856-7.931a31.141 31.141 0 0 0-1.914-11.336 11.688 11.688 0 0 0-2.239-3.7 5.654 5.654 0 0 0-1.519-1.155 4.084 4.084 0 0 0-1.656-.44c-.451-.085-3.581-.677-7.027-1.27-1.862-.322-3.814-.643-5.49-.885l-.022-.003c-.003-.019.003-.037-.001-.056l-2.078-9.665a1.3 1.3 0 0 0-1.271-1.027h-2.59c.32-1.765.478-3.555.475-5.348a25.48 25.48 0 0 0-1.567-9.27 9.716 9.716 0 0 0-1.864-3.073 4.82 4.82 0 0 0-1.297-.985 3.529 3.529 0 0 0-1.599-.392c-.018 0-.033.01-.05.01-.018 0-.033-.01-.051-.01h-2.121v-8.723h6.116c.032 0 .058-.016.089-.018.048.003.094.018.143.018a2.384 2.384 0 0 0 1.078-.263 3.41 3.41 0 0 0 1.269-1.19 7.957 7.957 0 0 0 1.036-2.58c.243-1.081.363-2.187.357-3.295a13 13 0 0 0-.81-4.75 5.343 5.343 0 0 0-1.041-1.702 3.015 3.015 0 0 0-.811-.613 2.387 2.387 0 0 0-1.078-.262c-.049 0-.095.015-.144.018-.03-.002-.056-.018-.088-.018h-1.842V24.723a23.002 23.002 0 0 0-2.331-10.838 9.975 9.975 0 0 0-2.693-3.262 5.965 5.965 0 0 0-3.599-1.264c-.019 0-.034.01-.052.01h-.003a5.892 5.892 0 0 0-3.114.943 8.22 8.22 0 0 0-1.105.845 7.008 7.008 0 0 0-4.569-1.843 1.258 1.258 0 0 0-.286.058l-.014-.003a5.892 5.892 0 0 0-3.114.943c-.391.25-.761.533-1.105.845a7.008 7.008 0 0 0-4.569-1.843 1.23 1.23 0 0 0-.286.058l-.015-.003a5.892 5.892 0 0 0-3.114.943c-.391.25-.761.533-1.104.845a7.01 7.01 0 0 0-4.57-1.843 1.258 1.258 0 0 0-.286.058l-.014-.003a5.892 5.892 0 0 0-3.114.943c-.391.25-.76.533-1.104.845a7.009 7.009 0 0 0-4.57-1.843 1.25 1.25 0 0 0-.286.058l-.014-.003a5.893 5.893 0 0 0-3.114.943c-.391.25-.76.533-1.104.845a7.01 7.01 0 0 0-4.57-1.843 1.25 1.25 0 0 0-.285.058l-.015-.003a5.893 5.893 0 0 0-3.114.943c-.391.25-.76.533-1.104.845a7.01 7.01 0 0 0-4.57-1.843 1.246 1.246 0 0 0-.286.058l-.014-.003a5.892 5.892 0 0 0-3.114.943c-.392.25-.761.533-1.105.845a7.01 7.01 0 0 0-4.57-1.843 1.246 1.246 0 0 0-.287.058c-.023 0-.042-.013-.065-.013a5.308 5.308 0 0 0-3.49 1.313 10.882 10.882 0 0 0-3.068 5.527 31.916 31.916 0 0 0-.947 7.662h-2.248a1.3 1.3 0 0 0-1.286 1.488l2.197 15.06h-1.69a2.386 2.386 0 0 0-1.078.262c-.52.28-.956.69-1.27 1.19a7.953 7.953 0 0 0-1.036 2.58 14.685 14.685 0 0 0-.357 3.295c-.028 1.62.247 3.23.81 4.75a5.36 5.36 0 0 0 1.042 1.703c.233.248.507.456.81.612.334.171.704.261 1.079.263h3.827l3.61 24.75a1.297 1.297 0 0 0 1.287 1.112h4.728v1.948H57.013a1.301 1.301 0 0 0-1.214.835l-4.235 11.073c-2.739.484-4.983.908-5.356.98a4.09 4.09 0 0 0-1.656.44 6.723 6.723 0 0 0-2.464 2.348 18.306 18.306 0 0 0-2.351 5.911 35.382 35.382 0 0 0-.857 7.931c0 1.803.128 3.604.387 5.388h-4.975a3 3 0 0 0-1.321.313 4.538 4.538 0 0 0-1.683 1.54 11.276 11.276 0 0 0-1.521 3.631 21.58 21.58 0 0 0-.593 4.531l-2.217 2.002a4.376 4.376 0 0 0-.725-.473 3.494 3.494 0 0 0-1.603-.396 3.297 3.297 0 0 0-.515.043 1.213 1.213 0 0 0-.215-.043l-15.982-.001c-.576.009-1.139.17-1.632.467a5.694 5.694 0 0 0-1.802 1.766 9.251 9.251 0 0 0-1.181 2.54 1.298 1.298 0 0 0 .106.993c.037.178.113.347.222.493l1.935 5.373c.04.088.09.171.15.247a1.294 1.294 0 0 0 1.211.858h2.517c.005.067.007.135.01.203 0 .034-.014.064-.012.099.015.194.02.396.023.599a10.34 10.34 0 0 1-.023.6c-.002.035.013.065.013.1-.004.067-.006.135-.011.202H6.926a1.294 1.294 0 0 0-1.21.858 1.23 1.23 0 0 0-.15.247l-1.935 5.372c-.11.146-.185.315-.223.494a1.293 1.293 0 0 0-.106.992 8.73 8.73 0 0 0 1.71 3.231 5.12 5.12 0 0 0 1.273 1.076 3.255 3.255 0 0 0 1.632.466H23.9c.073-.008.145-.022.215-.043.17.028.343.042.515.043a3.507 3.507 0 0 0 1.603-.396 5.693 5.693 0 0 0 2.086-1.999 15.22 15.22 0 0 0 1.935-4.896c.366-1.633.586-3.295.657-4.967l5.048-4.614h4.91l-.058 18.535v.004c.008.083.024.165.049.244.009.088.026.175.052.26.038.07.083.136.133.198.022.034.042.069.068.101.012.114.04.226.082.332.008.015 3.172 6.682 5.715 11.092 2.66 4.603 5.137 8.429 8.277 11.177a16.977 16.977 0 0 0 5.287 3.196 18.854 18.854 0 0 0 6.65 1.114 14.525 14.525 0 0 0 1.41 4.553c.343.665.808 1.26 1.371 1.753.57.5 1.3.782 2.058.796h9.389a3.225 3.225 0 0 0 2.099-.831 6.12 6.12 0 0 0 1.355-1.787c.274.535.62 1.03 1.026 1.472.31.33.672.605 1.073.813.421.217.887.33 1.36.333h9.023c.046-.007.093-.016.139-.029.076.007.149.029.226.029a3.23 3.23 0 0 0 2.099-.831 7.318 7.318 0 0 0 1.903-2.974c.394-1.067.678-2.172.847-3.297H115.203a14.538 14.538 0 0 0 1.41 4.553c.344.665.809 1.26 1.372 1.753.571.5 1.3.782 2.058.796h9.388a3.224 3.224 0 0 0 2.099-.831 7.312 7.312 0 0 0 1.904-2.974c.394-1.067.678-2.172.847-3.297h2.821a18.943 18.943 0 0 0 12.891-4.817 16.672 16.672 0 0 0 5.389-12.347c0-.011.006-.02.006-.03v-13.22h5.229c.137.065.284.106.436.12.729.032 1.455.114 2.173.246.366.068.717.197 1.041.381.462.295.803.746.962 1.272a10.3 10.3 0 0 1 .461 3.518v.058a12.591 12.591 0 0 0 1.911 7.093 10.484 10.484 0 0 0 6.808 4.309c1.017.217 2.055.326 3.095.327a13.96 13.96 0 0 0 7.148-1.916 9.913 9.913 0 0 0 4.425-5.287c.422-1.205.645-2.471.66-3.748a12.888 12.888 0 0 0-.452-3.149 9.916 9.916 0 0 1-.381-2.402 6.774 6.774 0 0 1 .385-2.175l.001-.004.091-.277a7.478 7.478 0 0 1 1.27-2.386c.735-.934 1.706-1.675 2.773-2.783a12.309 12.309 0 0 0 2.884-4.868c.278-.831.42-1.701.421-2.577a8.812 8.812 0 0 0-2.567-6.078Zm-30.813-34.852a15.808 15.808 0 0 1 1.983 5.058 32.78 32.78 0 0 1 .789 7.342 28.646 28.646 0 0 1-1.724 10.36 9.173 9.173 0 0 1-1.708 2.877 3.048 3.048 0 0 1-.813.632 1.367 1.367 0 0 1-1.33 0 4.212 4.212 0 0 1-1.473-1.469 15.866 15.866 0 0 1-1.983-5.058 32.845 32.845 0 0 1-.789-7.342 28.67 28.67 0 0 1 1.724-10.361 9.219 9.219 0 0 1 1.708-2.877c.234-.255.509-.469.813-.632a1.376 1.376 0 0 1 1.33 0c.606.359 1.113.864 1.473 1.47Zm-8.06-2.702c.806.142 1.573.28 2.27.406-.232.272-.45.557-.65.854a18.32 18.32 0 0 0-2.351 5.911 35.37 35.37 0 0 0-.857 7.931 31.19 31.19 0 0 0 1.914 11.336 12.192 12.192 0 0 0 1.98 3.389c-1.738.331-3.933.734-6.06 1.082-1.363.223-2.695.423-3.848.566a24.97 24.97 0 0 1-2.731.226 1.92 1.92 0 0 1-.874-.224 5.131 5.131 0 0 1-1.801-1.788 15.736 15.736 0 0 1-1.743-3.811h5.514c.047-.007.093-.016.139-.028.076.006.149.028.226.028a3.008 3.008 0 0 0 1.36-.332 4.647 4.647 0 0 0 1.711-1.619 11.782 11.782 0 0 0 1.522-3.814c.369-1.645.551-3.326.542-5.011a19.737 19.737 0 0 0-1.218-7.189 7.695 7.695 0 0 0-1.485-2.441 3.986 3.986 0 0 0-1.072-.814 3.008 3.008 0 0 0-1.36-.332c-.077 0-.15.022-.226.028a1.315 1.315 0 0 0-.139-.028h-2.581l-1.026-4.036c.191-.275.402-.537.63-.781.289-.316.63-.58 1.007-.782.27-.143.569-.22.874-.224.261 0 .757.034 1.37.102 2.163.237 5.849.847 8.963 1.395ZM67.102 31.24 60.73 26.46h57.075l.702 4.816H67.135c-.013-.01-.02-.027-.034-.038Zm37.728 25.066v-7.92h3.907V44.48h4.013v3.906h3.906v7.92h-3.906v3.905h-4.013v-3.905h-3.907Zm-11.715 7.811v-4.015h4.013v3.906h3.797v-3.905h4.014v4.014h-3.905v3.905H97.02v-3.905h-3.905Zm-11.717-7.811v-7.92h3.905V44.48h4.014v3.906h3.906v7.92h-3.906v3.905h-4.014v-3.905h-3.905Zm41.053 18.52h14.611c.046-.007.091-.016.136-.028.072.18.132.364.179.552.173.706.258 1.43.252 2.157a7.728 7.728 0 0 1-.452 2.773 2.166 2.166 0 0 1-.117.24 4.2 4.2 0 0 1-.313-.856 8.754 8.754 0 0 1-.251-2.157c0-.02-.011-.037-.012-.056a1.329 1.329 0 0 0-1.299-1.294h-12.498a10.184 10.184 0 0 0-.236-1.332Zm-.983 3.98a1.23 1.23 0 0 0 .247-.049h9.047a24.4 24.4 0 0 0 1.54 8.02c.258.642.571 1.261.936 1.85h-12.789a.926.926 0 0 1-.427-.113 3.185 3.185 0 0 1-1.098-1.106 12.6 12.6 0 0 1-1.57-4.014 25.502 25.502 0 0 1-.598-4.637h4.465c.08.025.163.042.247.05Zm19.263 22.582a1.268 1.268 0 0 0-.617.186 4.631 4.631 0 0 0-1.358 1.61c-.115.2-.23.43-.345.675l-3.209-12.632h1.381c.062-.008.123-.02.183-.037.099.009.195.037.296.037a3.391 3.391 0 0 0 1.04-.182l2.629 10.343Zm6.24 18.837c-.106.116-.23.215-.367.291a.361.361 0 0 1-.373-.001 2.146 2.146 0 0 1-.721-.74 9.313 9.313 0 0 1-1.154-2.961 19.812 19.812 0 0 1-.475-4.422 17.236 17.236 0 0 1 1.029-6.213c.217-.593.54-1.142.953-1.62.106-.116.23-.214.368-.29a.35.35 0 0 1 .373 0c.296.184.544.438.72.739a9.327 9.327 0 0 1 1.154 2.962 19.74 19.74 0 0 1 .474 4.422 17.243 17.243 0 0 1-1.028 6.213 5.224 5.224 0 0 1-.953 1.62Zm-14.452-28.998 4.108 16.166h-3.344l-4.108-16.166h3.344Zm-1.133 18.396c.236.233.554.366.886.37h6.164a1.301 1.301 0 0 0 1.287-1.121 12.303 12.303 0 0 1 1.289-4.395c.057-.099.11-.184.16-.261h1.797c-.518 1-.903 2.064-1.146 3.164a22.351 22.351 0 0 0-.542 5.012 19.733 19.733 0 0 0 1.219 7.188c.139.337.295.667.468.988h-9.226a.396.396 0 0 1-.187-.053 2.134 2.134 0 0 1-.72-.74 9.29 9.29 0 0 1-1.154-2.961 19.753 19.753 0 0 1-.474-4.422c-.002-.926.058-1.851.179-2.769Zm10.902-24.168h2.166l1.679 7.81a13.652 13.652 0 0 0-1.177-.072 4.514 4.514 0 0 0-2.046.504 6.058 6.058 0 0 0-1.232.863l-1.3-5.114c-.005-.02-.02-.035-.026-.055.138-.173.272-.352.398-.542a13.25 13.25 0 0 0 1.538-3.394Zm-2.131-13.836c.431 1.933.644 3.908.632 5.888a22.984 22.984 0 0 1-1.377 8.294 7.221 7.221 0 0 1-1.333 2.25 2.231 2.231 0 0 1-.591.463.865.865 0 0 1-.853 0 3.186 3.186 0 0 1-1.098-1.106 12.574 12.574 0 0 1-1.569-4.014 25.417 25.417 0 0 1-.599-4.637h.596c.074.855.267 1.696.572 2.499.196.516.488.99.859 1.4.203.215.44.394.703.53a2.103 2.103 0 0 0 1.926 0 2.914 2.914 0 0 0 1.087-1.014c.399-.637.681-1.34.836-2.075.191-.85.285-1.719.281-2.59a10.243 10.243 0 0 0-.642-3.749 4.391 4.391 0 0 0-.859-1.4 2.83 2.83 0 0 0-.366-.316v-4.743c.075.096.15.193.225.307a12.597 12.597 0 0 1 1.57 4.013Zm-4.395-5.232v5.838h-14.044v-5.838h14.044Zm-3.522-2.6h-6.362l-5.208-35.695 11.57 8.678v3.639h-1.306a2.384 2.384 0 0 0-1.078.262 3.41 3.41 0 0 0-1.269 1.19 7.953 7.953 0 0 0-1.035 2.58 14.726 14.726 0 0 0-.358 3.295c-.028 1.62.247 3.23.81 4.75a5.363 5.363 0 0 0 1.041 1.702c.234.25.508.456.811.613.333.171.703.261 1.078.262h1.306v8.724Zm-1.232-11.323-.061-.05a3.852 3.852 0 0 1-.768-1.6 11.669 11.669 0 0 1-.385-3.078 10.504 10.504 0 0 1 .62-3.774c.116-.322.289-.62.51-.88l.085-.073h7.244a9.964 9.964 0 0 0-.448 1.432 14.724 14.724 0 0 0-.357 3.295 13.028 13.028 0 0 0 .803 4.728h-7.243Zm11.32-4.728a10.5 10.5 0 0 1-.62 3.774 2.89 2.89 0 0 1-.509.881l-.01.009a3.9 3.9 0 0 1-.756-1.585 11.669 11.669 0 0 1-.385-3.079 10.504 10.504 0 0 1 .62-3.774c.116-.322.289-.62.51-.88l.01-.01c.369.465.627 1.007.755 1.586a11.63 11.63 0 0 1 .385 3.078Zm-16.46-31.597c.109-.28.234-.554.374-.82a6.11 6.11 0 0 1 .816 2.7c.026.292-.044.585-.201.833l-.162.117a1.41 1.41 0 0 1-.883 0 .392.392 0 0 1-.221-.214c-.1-.23-.145-.48-.134-.731a5.405 5.405 0 0 1 .411-1.885Zm-9.088 0c.109-.28.234-.554.374-.82a6.11 6.11 0 0 1 .816 2.7 1.33 1.33 0 0 1-.201.833l-.162.117a1.41 1.41 0 0 1-.883 0 .402.402 0 0 1-.221-.214c-.1-.23-.145-.48-.134-.731a5.405 5.405 0 0 1 .411-1.885Zm-9.089 0c.109-.28.235-.554.375-.82.478.824.757 1.748.816 2.7.026.292-.045.585-.202.833l-.161.117a1.41 1.41 0 0 1-.883 0 .396.396 0 0 1-.222-.215 1.652 1.652 0 0 1-.133-.73 5.426 5.426 0 0 1 .41-1.885Zm-9.088 0c.11-.28.235-.554.375-.82.478.824.757 1.748.816 2.7.026.292-.045.585-.202.833l-.16.117a1.412 1.412 0 0 1-.884 0 .4.4 0 0 1-.222-.215c-.099-.23-.145-.48-.133-.73a5.41 5.41 0 0 1 .41-1.885Zm-9.088 0c.11-.28.234-.554.375-.82.478.824.757 1.748.815 2.7.027.292-.044.585-.2.833l-.162.117a1.411 1.411 0 0 1-.884 0 .399.399 0 0 1-.22-.214c-.1-.23-.146-.48-.134-.731a5.41 5.41 0 0 1 .41-1.885Zm-9.088 0c.11-.28.235-.554.375-.82.478.824.757 1.748.816 2.7.026.292-.045.585-.202.833l-.161.117a1.411 1.411 0 0 1-.884 0 .4.4 0 0 1-.22-.214c-.1-.23-.146-.48-.134-.731a5.41 5.41 0 0 1 .41-1.885Zm-9.089 0c.11-.28.235-.554.375-.82.479.824.758 1.748.816 2.7.027.292-.044.585-.201.833l-.161.117a1.412 1.412 0 0 1-.884 0 .4.4 0 0 1-.221-.215c-.1-.23-.145-.48-.134-.73a5.408 5.408 0 0 1 .41-1.885Zm-7.981-1.117c.349-.9.897-1.71 1.603-2.37a2.685 2.685 0 0 1 1.806-.693 1.24 1.24 0 0 0 .287-.058c.023.001.042.013.066.013.704.01 1.393.21 1.995.576.314.189.61.408.883.653-.144.217-.291.433-.418.657a8.954 8.954 0 0 0-1.25 4.223 3.849 3.849 0 0 0 .792 2.487c.307.372.7.665 1.146.852.937.37 1.979.37 2.915 0a3.034 3.034 0 0 0 1.526-1.428c.29-.596.435-1.253.421-1.916a7.81 7.81 0 0 0-.609-2.854 10.87 10.87 0 0 0-1.108-2.063c.356-.33.759-.607 1.194-.822.406-.198.85-.304 1.3-.31.098-.008.194-.027.286-.058l.015.003c.705.01 1.393.21 1.995.576.315.189.61.408.883.653-.143.218-.29.433-.418.658a8.954 8.954 0 0 0-1.25 4.223 3.848 3.848 0 0 0 .792 2.486c.307.372.7.665 1.146.852.937.37 1.979.37 2.915 0a3.034 3.034 0 0 0 1.527-1.428c.29-.596.434-1.253.42-1.916a7.806 7.806 0 0 0-.608-2.855 10.868 10.868 0 0 0-1.109-2.062c.357-.33.76-.607 1.195-.822.405-.198.85-.304 1.3-.31a1.25 1.25 0 0 0 .285-.058l.015.003c.705.01 1.393.21 1.995.576.315.189.61.408.883.653-.143.218-.291.433-.418.658a8.954 8.954 0 0 0-1.25 4.223 3.848 3.848 0 0 0 .792 2.486c.307.372.7.665 1.146.852.937.37 1.979.37 2.915 0a3.034 3.034 0 0 0 1.527-1.428c.29-.596.434-1.253.42-1.916a7.806 7.806 0 0 0-.608-2.855 10.868 10.868 0 0 0-1.109-2.062 5.05 5.05 0 0 1 1.195-.822 3.05 3.05 0 0 1 1.3-.31c.097-.008.193-.027.285-.058l.015.003c.705.01 1.393.21 1.995.576.315.19.61.408.883.653-.143.218-.29.433-.418.657a8.953 8.953 0 0 0-1.25 4.223 3.848 3.848 0 0 0 .792 2.487c.308.372.701.665 1.147.852.936.37 1.978.37 2.915 0a3.031 3.031 0 0 0 1.526-1.428c.29-.596.434-1.253.421-1.916a7.829 7.829 0 0 0-.609-2.854 10.847 10.847 0 0 0-1.109-2.063 5.05 5.05 0 0 1 1.195-.822 3.049 3.049 0 0 1 1.3-.31c.097-.008.193-.027.285-.058l.015.003c.705.01 1.393.21 1.995.576.315.189.611.408.883.653-.143.217-.291.433-.418.657a8.944 8.944 0 0 0-1.25 4.223 3.843 3.843 0 0 0 .792 2.487c.308.372.701.665 1.147.852.936.37 1.978.37 2.915 0a3.031 3.031 0 0 0 1.526-1.428c.29-.596.434-1.253.421-1.916a7.807 7.807 0 0 0-.609-2.855 10.849 10.849 0 0 0-1.109-2.062c.357-.33.759-.607 1.195-.822a3.047 3.047 0 0 1 1.3-.31c.097-.008.193-.027.286-.058l.015.003c.704.01 1.393.21 1.995.576.314.189.61.408.883.653-.144.218-.291.433-.418.657a8.957 8.957 0 0 0-1.251 4.223 3.854 3.854 0 0 0 .792 2.487 2.99 2.99 0 0 0 1.147.852c.936.37 1.978.37 2.915 0a3.03 3.03 0 0 0 1.526-1.428 4.18 4.18 0 0 0 .421-1.916 7.807 7.807 0 0 0-.609-2.855 10.838 10.838 0 0 0-1.108-2.062c.357-.33.759-.607 1.195-.822a3.047 3.047 0 0 1 1.3-.31c.097-.008.193-.027.285-.058l.015.003c.704.01 1.393.21 1.994.576.315.189.611.408.884.653-.144.218-.291.433-.419.658a8.967 8.967 0 0 0-1.25 4.223 3.854 3.854 0 0 0 .792 2.486 2.99 2.99 0 0 0 1.147.852c.936.37 1.978.37 2.915 0a3.03 3.03 0 0 0 1.526-1.428c.29-.596.434-1.253.421-1.916a7.807 7.807 0 0 0-.609-2.855 10.898 10.898 0 0 0-1.108-2.062c.356-.33.759-.607 1.195-.822a3.047 3.047 0 0 1 1.3-.31c.018 0 .033-.01.051-.01h.004a3.36 3.36 0 0 1 2.039.743 9.151 9.151 0 0 1 2.79 4.278 23.166 23.166 0 0 1 1.194 7.743v15.686h-1.674V36.12a1.302 1.302 0 0 0-.52-1.04l-14.611-10.959a1.24 1.24 0 0 0-.114-.054 1.307 1.307 0 0 0-.288-.137 1.257 1.257 0 0 0-.208-.038 1.253 1.253 0 0 0-.17-.03H61.853a24.404 24.404 0 0 1 1.503-8.84Zm-7.05 37.442-.061-.05a3.849 3.849 0 0 1-.768-1.6 11.638 11.638 0 0 1-.385-3.078 10.5 10.5 0 0 1 .62-3.774 2.88 2.88 0 0 1 .51-.88l.085-.073h1.995l1.38 9.455h-3.376Zm2.47-24.217 6.525 4.892v39.836l-6.525-44.728Zm9.125 50.079V33.877h50.985l.846 5.801h-44.18a1.3 1.3 0 0 0-1.3 1.3v30.319a1.3 1.3 0 0 0 1.3 1.3h43.565v.928a1.281 1.281 0 0 0 .517 1.011c.003.008.002.016.006.024.216.51.359 1.047.424 1.597h-4.697a1.302 1.302 0 0 0-1.3 1.3c.007.1.027.2.059.296.002.193.007.383.012.573H67.902Zm4.384 2.6h42.027c.074.67.168 1.32.283 1.948h-42.31v-1.948Zm-14.378 4.548h57.325c.141.452.291.892.456 1.303a9.718 9.718 0 0 0 1.864 3.073c.373.399.811.732 1.296.985.495.255 1.043.389 1.6.392h1.746l-.392 30.184H44.164l13.744-35.937ZM43.515 124.01h78.254l-.031 2.336v30.223H43.414l.101-32.559Zm-2.035-11.619a28.667 28.667 0 0 1 1.724-10.361 9.211 9.211 0 0 1 1.708-2.877 3.08 3.08 0 0 1 .813-.632 1.45 1.45 0 0 1 .665-.172.587.587 0 0 1 .243-.023c.002 0 .62-.118 1.625-.305.613-.113 1.379-.253 2.222-.405l-7.711 20.163h-.874a34.598 34.598 0 0 1-.415-5.388Zm-8.638 9.815a4.896 4.896 0 0 1 .924-1.511c.1-.108.218-.198.348-.267l.178-.049h7.483l-.626 1.635a1.263 1.263 0 0 0-.23.696c0 .024.013.044.014.068-.002.025-.014.049-.014.074l-.003 1.079h-6.963c-.322 0-.633.12-.872.335l-1.06.957c.155-1.034.43-2.047.82-3.017Zm-1.95 7.54 3.56-3.215h3.822l-6.975 6.376-1.571 1.436c-.108-.323-.221-.636-.341-.936-.22-.552-.48-1.087-.775-1.602l2.28-2.059Zm-6.56 10.769c.07-.295.169-.583.297-.858.104.215.187.439.247.669.192.731.285 1.483.279 2.238a7.694 7.694 0 0 1-.44 2.723c-.03.073-.058.119-.088.179a4.441 4.441 0 0 1-.295-.853 1.274 1.274 0 0 0-.777-.871 1.276 1.276 0 0 0-.765-.277H12.023l.005-.085c.001-.006.005-.012.006-.019.004-.048.002-.099.005-.148.007-.161.032-.31.032-.475 0-.059-.006-.115-.007-.173.001-.06.007-.115.007-.174 0-.166-.025-.316-.032-.478-.003-.047-.002-.098-.005-.146 0-.006-.005-.012-.006-.018 0-.029-.003-.057-.005-.086h10.766c.279-.006.548-.103.765-.277a1.272 1.272 0 0 0 .778-.871Zm-3.37 5.55-1.207 3.345H6.586l1.205-3.345h13.171ZM6.971 132.179c.175-.21.383-.391.616-.535a.71.71 0 0 1 .33-.117h12.916a11.607 11.607 0 0 0-.82 1.593H6.335c.176-.336.39-.652.636-.941Zm.82 6.885-1.205-3.344h13.169l1.207 3.344H7.791Zm.126 14.539a.699.699 0 0 1-.33-.116 3.187 3.187 0 0 1-.951-.973c-.1-.148-.19-.331-.283-.503h13.644c.233.551.509 1.084.825 1.592H7.917Zm19.057-2.849a7.292 7.292 0 0 1-1.333 2.271c-.17.187-.369.345-.59.466a.915.915 0 0 1-.422.112.93.93 0 0 1-.454-.129 3.147 3.147 0 0 1-1.001-1.003 9.444 9.444 0 0 1-1.018-2.053l.958-2.655a2.145 2.145 0 0 0 1.515.641c.334-.001.662-.081.959-.234a2.881 2.881 0 0 0 1.073-1.008c.391-.63.668-1.324.82-2.05.184-.83.275-1.678.273-2.528l.002-.008-.001-.013V142.55a10.178 10.178 0 0 0-.628-3.675 4.357 4.357 0 0 0-.844-1.386 2.579 2.579 0 0 0-.695-.528 2.117 2.117 0 0 0-.959-.235 2.16 2.16 0 0 0-1.202.378 2.851 2.851 0 0 0-.317.254l-.954-2.644a8.091 8.091 0 0 1 1.378-2.518c.182-.215.398-.398.641-.539a.932.932 0 0 1 .454-.13.915.915 0 0 1 .422.113c.453.275.83.658 1.098 1.115a12.754 12.754 0 0 1 1.57 4.049c.42 1.9.631 3.841.629 5.787a23.176 23.176 0 0 1-1.374 8.163Zm6.78-12.931-2.888 2.639a28.45 28.45 0 0 0-.423-3.305c.062-.031.122-.066.178-.107l1.463-1.337 8.82-8.062-.012 3.694c-.05.026-.1.055-.146.088l-6.992 6.39Zm5.05-1.092 2.078-1.899-.006 1.899h-2.073Zm52.613 44.412a22.24 22.24 0 0 1 .901-6.498 1.299 1.299 0 0 1 2.482.774 19.692 19.692 0 0 0-.783 5.724 1.301 1.301 0 0 1-2.6 0Zm56.817-2.291a16.347 16.347 0 0 1-11.132 4.132h-14.71a11.795 11.795 0 0 0 2.692-2.464 14.828 14.828 0 0 0 2.435-4.619 1.302 1.302 0 0 0-2.467-.824 12.229 12.229 0 0 1-1.998 3.819 9.707 9.707 0 0 1-4.638 3.152 21.955 21.955 0 0 1-6.984.936h-10.914a2.586 2.586 0 0 1-.947-.917 5.286 5.286 0 0 1-.658-1.571l-.004-.015-2.192-8.376a1.298 1.298 0 0 0-1.258-.971c-.083 0-.167.016-.25.024-.04-.004-.075-.023-.115-.023v-.001h-6.83a3.006 3.006 0 0 0-1.36.333 4.64 4.64 0 0 0-1.711 1.618 11.79 11.79 0 0 0-1.523 3.814 22.348 22.348 0 0 0-.542 5.011c0 .368.028.717.044 1.074H67.125a16.224 16.224 0 0 1-5.745-.951 15.95 15.95 0 0 1-6.481-4.729 54.033 54.033 0 0 1-5.738-8.506c-1.225-2.125-2.636-4.861-3.734-7.057-.505-1.011-.94-1.897-1.267-2.571h77.783c.069-.008.137-.022.203-.041l3.913 9.64c.117.281.329.511.6.649.27.139.58.177.876.108.117.042.238.066.362.073h24.825a13.965 13.965 0 0 1-4.488 9.253Zm4.554-11.853h-24.641l-3.809-9.383v-31.245l.457-35.144h1.697l3.474 13.671c-.349.8-.622 1.631-.818 2.482a22.35 22.35 0 0 0-.541 5.012 19.732 19.732 0 0 0 1.218 7.188 7.715 7.715 0 0 0 1.484 2.442c.309.33.672.605 1.073.814.421.216.887.33 1.36.332h4.082c.242.834.507 1.632.804 2.368a13.428 13.428 0 0 0 2.569 4.247c.493.529 1.072.97 1.713 1.304.633.327 1.334.5 2.046.504a35.01 35.01 0 0 0 4.301-.412c1.119-.159 2.327-.351 3.531-.554v13.726h-13.633a2.037 2.037 0 0 0-.922.224c-.418.223-.77.55-1.023.951a5.8 5.8 0 0 0-.764 1.895 10.453 10.453 0 0 0-.255 2.34 9.287 9.287 0 0 0 .582 3.393c.182.477.451.915.795 1.292.191.203.416.373.665.501.285.145.601.222.922.223h13.633v11.829Zm-13.401-14.429a3.07 3.07 0 0 1-.388-.972 7.732 7.732 0 0 1-.207-1.837 6.748 6.748 0 0 1 .392-2.418c.052-.139.121-.271.206-.392h36.294c-.066.087-.137.169-.198.261a4.936 4.936 0 0 0-.799 2.602h-.003l-.006.121-.001.023c.014.744.225 1.472.61 2.108.104.178.221.341.339.504h-36.239Zm38.418-1.414a3.017 3.017 0 0 1-.405-.666 1.393 1.393 0 0 1-.123-.531l.001-.006a2.325 2.325 0 0 1 .378-1.309 3.713 3.713 0 0 1 1.832-1.316 6.955 6.955 0 0 1 1.196-.325l-1.691 5.231a5.145 5.145 0 0 1-1.188-1.078Zm16.036-8.475a10.131 10.131 0 0 1-1.456 2.896 24.094 24.094 0 0 1-2.759 2.838 10.368 10.368 0 0 0-2.713 4.303l-.001.004-.092.279.001-.003a9.392 9.392 0 0 0-.517 2.994c.027 1.018.179 2.028.453 3.009.232.828.36 1.682.381 2.542a9.207 9.207 0 0 1-.529 2.93 7.324 7.324 0 0 1-3.297 3.877 11.365 11.365 0 0 1-5.808 1.544c-.858 0-1.713-.091-2.551-.27a7.875 7.875 0 0 1-5.194-3.216 10.03 10.03 0 0 1-1.469-5.649v-.006l.001-.004-.001-.042a13.709 13.709 0 0 0-.491-4.035 5.981 5.981 0 0 0-.718-1.502h12.276c.024 0 .044-.012.068-.014.053.005.103.013.16.014a1.959 1.959 0 0 0 1.512-.992l2.657-8.219a1.295 1.295 0 0 0-.173-1.146 1.302 1.302 0 0 0-1.019-.553 9.822 9.822 0 0 0-.342-.005c-.462.004-.923.036-1.382.096h-10.114a22.633 22.633 0 0 0 4.557-4.968 15.445 15.445 0 0 1 4.191-4.101 9.972 9.972 0 0 1 5.417-1.63c.747.002 1.491.083 2.22.241a10.004 10.004 0 0 1 5.173 2.746 6.222 6.222 0 0 1 1.848 4.283 5.595 5.595 0 0 1-.289 1.759Z"/><path fill="#191C22" d="M72.265 132.278H54.732a1.3 1.3 0 0 0-1.3 1.3v13.516a1.302 1.302 0 0 0 1.3 1.3h17.533a1.3 1.3 0 0 0 1.3-1.3v-13.516a1.292 1.292 0 0 0-.38-.919 1.29 1.29 0 0 0-.92-.381Zm-1.3 13.516h-5.883l3.043-4.347a1.303 1.303 0 0 0-.319-1.812 1.3 1.3 0 0 0-1.811.321l-3.836 5.479c-.07.111-.123.232-.157.359h-5.97v-10.916h14.933v10.916ZM108.839 135.566a1.3 1.3 0 0 0-1.3 1.3v6.941a1.3 1.3 0 0 0 2.6 0v-6.941a1.299 1.299 0 0 0-1.3-1.3ZM102.993 135.566a1.308 1.308 0 0 0-.919.381 1.308 1.308 0 0 0-.381.919v6.941a1.3 1.3 0 0 0 2.6 0v-6.941a1.305 1.305 0 0 0-.802-1.201 1.309 1.309 0 0 0-.498-.099ZM97.15 135.566a1.306 1.306 0 0 0-.92.381 1.3 1.3 0 0 0-.38.919v6.941a1.301 1.301 0 0 0 2.6 0v-6.941a1.294 1.294 0 0 0-.381-.919 1.29 1.29 0 0 0-.92-.381ZM91.306 135.566a1.306 1.306 0 0 0-.92.381 1.3 1.3 0 0 0-.38.919v6.941a1.301 1.301 0 0 0 2.6 0v-6.941a1.294 1.294 0 0 0-.38-.919 1.29 1.29 0 0 0-.92-.381ZM56.498 114.399a1.294 1.294 0 0 0 1.037.516h14.547a1.3 1.3 0 0 0 1.28-1.071l1.698-9.497a1.3 1.3 0 0 0-1.28-1.529H60.22a1.3 1.3 0 0 0-1.25.946l-2.686 9.497a1.3 1.3 0 0 0 .214 1.138Zm4.706-8.981h11.024l-1.234 6.897h-4.376l1.468-1.351a1.295 1.295 0 0 0 .342-1.404 1.3 1.3 0 0 0-2.103-.509l-3.424 3.152c-.029.035-.056.073-.081.112h-3.567l1.95-6.897ZM91.435 102.818h-.948a8.813 8.813 0 0 0-8.733 7.652l-.395 2.974a1.303 1.303 0 0 0 .752 1.355c.168.077.352.116.537.116h14.547a1.304 1.304 0 0 0 1.296-1.202l.228-3.043a7.308 7.308 0 0 0-7.285-7.852Zm4.692 7.658-.138 1.839H92.04l1.468-1.351a1.292 1.292 0 0 0 .422-.903 1.3 1.3 0 0 0-2.182-1.01l-3.425 3.152a1.1 1.1 0 0 0-.082.112h-4.11l.199-1.503a6.21 6.21 0 0 1 6.156-5.394h.948a4.704 4.704 0 0 1 4.692 5.058ZM110.931 98.898a4.177 4.177 0 1 0-.002-8.355 4.177 4.177 0 0 0 .002 8.355Zm0-5.753a1.579 1.579 0 0 1 1.456.973 1.578 1.578 0 0 1-2.768 1.479 1.578 1.578 0 0 1 1.312-2.452ZM110.931 114.925a4.173 4.173 0 0 0 3.859-2.579 4.179 4.179 0 0 0-3.044-5.695 4.182 4.182 0 0 0-4.288 1.776 4.179 4.179 0 0 0 3.473 6.498Zm0-5.754a1.578 1.578 0 1 1-.002 3.156 1.578 1.578 0 0 1 .002-3.156ZM64.24 98.44h33.048a3.903 3.903 0 0 0 0-7.805H64.24a3.902 3.902 0 1 0 0 7.805Zm33.97-4.821a1.292 1.292 0 0 1 .38.915l-.005.115a1.302 1.302 0 0 1-1.297 1.192h-3.132l.396-2.605h2.736a1.289 1.289 0 0 1 .922.383Zm-6.684 2.222h-3.593l.395-2.605h3.594l-.396 2.605Zm-6.223 0h-3.594l.396-2.605h3.594l-.396 2.605Zm-6.224 0h-3.594l.396-2.605h3.594l-.396 2.605Zm-6.224 0h-3.593l.397-2.605h3.592l-.396 2.605Zm-9.89-1.57a1.302 1.302 0 0 1 1.276-1.035h2.788l-.397 2.605h-2.391a1.286 1.286 0 0 1-.926-.387 1.298 1.298 0 0 1-.35-1.183Z"/></svg>