<svg xmlns="http://www.w3.org/2000/svg" width="200" height="200" fill="none"><path fill="#FFE632" d="m138.061 123.468.001-.005-.001.005Z"/><path fill="#BEBEC9" d="m161.677 139.565-.004-.004a29.935 29.935 0 0 0-1.128-1.013l-.013.015a1.283 1.283 0 0 0-2.137.904 1.294 1.294 0 0 0 .337.936l.009.011.121.116c.376.32.719.634 1.03.925a18.189 18.189 0 0 1 3.253 4.02 8.994 8.994 0 0 1 1.334 4.44 6.657 6.657 0 0 1-1.231 3.823 6.01 6.01 0 0 1-2.613 2.122 8.625 8.625 0 0 1-3.425.677 8.236 8.236 0 0 1-4.223-1.069 16.475 16.475 0 0 1-2.277-1.82 1.304 1.304 0 0 0-.887-.349h-.009c-.345 0-.676.137-.92.38a1.288 1.288 0 0 0 .045 1.869l-.002.001a18.906 18.906 0 0 0 2.661 2.117l.004.003a10.76 10.76 0 0 0 5.608 1.468c1.534.01 3.054-.294 4.466-.895a8.611 8.611 0 0 0 3.722-3.042 9.275 9.275 0 0 0 1.681-5.285 11.57 11.57 0 0 0-1.68-5.737 20.77 20.77 0 0 0-3.722-4.613Z"/><path fill="#BEBEC9" d="M154.766 155.436a6.946 6.946 0 0 0 6.676-3.13 6.958 6.958 0 0 0 .498-6.63 1.296 1.296 0 0 0-.724-.688 1.304 1.304 0 0 0-1.412.325 1.293 1.293 0 0 0-.352.934c.006.171.046.339.117.495a4.354 4.354 0 0 1-4.448 6.119 1.298 1.298 0 0 0-1.211 2.072c.207.275.515.456.856.503ZM58.233 160.274l-.004-.001-.002-.001.006.002ZM138.519 48.51c-3.49-3.99-8.45-7.216-15.219-9.425-6.772-2.21-15.361-3.425-26.228-3.426-9.66 0-17.52.96-23.903 2.726-9.57 2.64-15.853 7.149-19.656 12.887-3.806 5.735-5.106 12.573-5.106 19.783a40.57 40.57 0 0 0 2.115 13.71 27.059 27.059 0 0 0 5.159 8.837c3.504 3.988 8.473 7.214 15.235 9.423 6.767 2.211 15.335 3.425 26.156 3.426 9.618 0 17.457-.961 23.832-2.726 9.557-2.64 15.856-7.147 19.68-12.884 3.828-5.734 5.153-12.573 5.153-19.786a40.904 40.904 0 0 0-2.091-13.707 26.955 26.955 0 0 0-5.127-8.838Zm2.655 35.378a24.442 24.442 0 0 1-4.664 7.997c-3.158 3.59-7.673 6.568-14.091 8.668-6.414 2.099-14.721 3.299-25.347 3.298-9.446.001-17.06-.947-23.139-2.632-9.126-2.537-14.767-6.676-18.212-11.823-3.441-5.15-4.714-11.431-4.714-18.341-.088-4.358.568-8.7 1.94-12.837a24.358 24.358 0 0 1 4.634-7.995c3.143-3.588 7.648-6.566 14.07-8.666 6.419-2.098 14.747-3.299 25.42-3.298 9.488 0 17.124.947 23.211 2.632 9.138 2.537 14.758 6.675 18.183 11.82 3.421 5.148 4.672 11.43 4.672 18.344.087 4.358-.577 8.7-1.963 12.833Z"/><path fill="#BEBEC9" d="M166.912 14.901a4.642 4.642 0 0 0-1.751-2.365 5.3 5.3 0 0 0-2.451-.87 6.155 6.155 0 0 0-.677-.038 5.104 5.104 0 0 0-3.414 1.228 5.893 5.893 0 0 0-1.833 3.99c-.409 4.228-1.753 20.545-2.622 31.181-.159-.61-.319-1.22-.498-1.82-2.812-9.428-8.229-17.577-17.347-23.268-9.114-5.697-21.829-8.946-39.248-8.947-11.616 0-21.132 1.445-28.892 4.095-11.64 3.965-19.322 10.709-23.981 19.162a46.835 46.835 0 0 0-4.373 11.367c-.867-10.612-2.254-27.462-2.67-31.77a5.891 5.891 0 0 0-1.833-3.99 5.105 5.105 0 0 0-3.415-1.228 6.15 6.15 0 0 0-.678.038 5.008 5.008 0 0 0-3.168 1.487 4.8 4.8 0 0 0-1.032 1.748 7.13 7.13 0 0 0-.351 2.32c0 .218.007.443.022.676.332 5.056 1.86 22.907 2.793 32.803.133 2.458.709 4.87 1.7 7.123a7.113 7.113 0 0 0 1.38 1.953 6.436 6.436 0 0 0-1.5 1.64 8.821 8.821 0 0 0-1.012 3.043 24.775 24.775 0 0 0-.325 4.207c.004 1.428.089 2.855.256 4.273.265 2.4.804 4.76 1.607 7.038.309.867.69 1.707 1.137 2.511a6.49 6.49 0 0 0 1.349 1.734 9.875 9.875 0 0 0 4.134 1.837c.743.169 1.498.287 2.258.354.012.04.021.08.033.119a37.711 37.711 0 0 0 17.435 22.212c7.603 4.443 17.687 7.23 30.868 8.038v2.576c-2.984.187-5.765.437-8.08.749a43.478 43.478 0 0 0-3.48.593 11.91 11.91 0 0 0-2.46.766c-.52.266-.97.65-1.315 1.12-.078.102-.15.218-.225.327a3.622 3.622 0 0 0-.988-.956 4.244 4.244 0 0 0-1.706-.597 9.154 9.154 0 0 0-1.238-.084 11.131 11.131 0 0 0-6.872 2.645 28.987 28.987 0 0 0-7.336 9.717 40.077 40.077 0 0 0-3.621 10.472 21.747 21.747 0 0 0-.322 3.674 15.807 15.807 0 0 0 1.987 7.989 10.147 10.147 0 0 0 5.072 4.5c.708.272 1.46.412 2.22.413a6.525 6.525 0 0 0 2.737-.621c.188.138.371.281.57.403.885.529 1.835.94 2.827 1.222-.185 3.78-.295 7.567-.295 11.229-.045 5.457.244 10.912.865 16.334a1.306 1.306 0 0 0 .493.865 1.297 1.297 0 0 0 2.052-.686c.045-.165.057-.337.035-.506v-.001a131.376 131.376 0 0 1-.845-16.006l.003-.461a63.455 63.455 0 0 0 12.083 2.25 157.79 157.79 0 0 0 15.9.74c6.849.017 13.692-.348 20.499-1.092 2.515-.293 4.722-.637 6.57-1.021.094-.009.185-.013.28-.024.101-.02.199-.052.292-.095.087-.02.187-.037.272-.057.879-.193 1.745-.44 2.594-.738.024-.009.041-.019.065-.028l.003.504a132.067 132.067 0 0 1-.846 16.029 1.31 1.31 0 0 0 .263.96 1.296 1.296 0 0 0 1.37.457 1.293 1.293 0 0 0 .786-.61c.085-.148.14-.312.161-.481.62-5.429.909-10.891.866-16.355a239.865 239.865 0 0 0-1.957-30.04c1.767 1.087 3.847 2.258 6.125 3.511a1.3 1.3 0 0 0 1.253-2.278c-3.164-1.738-5.93-3.318-7.861-4.637-.09-.584-.181-1.158-.274-1.722a6.517 6.517 0 0 0 1.786-2.211 7.168 7.168 0 0 0 .713-3.152 7.435 7.435 0 0 0-1.44-4.44 5.845 5.845 0 0 0-1.772-1.574 5.296 5.296 0 0 0-2.157-.663c-.085-.223-.172-.428-.259-.637a5.397 5.397 0 0 1 2.145-1.406 8.742 8.742 0 0 1 2.996-.473c3.259.168 6.451.998 9.379 2.438a1.307 1.307 0 0 0 .998.037 1.295 1.295 0 0 0 .845-1.177 1.303 1.303 0 0 0-.769-1.228 26.514 26.514 0 0 0-10.453-2.67 11.307 11.307 0 0 0-3.889.631 8.151 8.151 0 0 0-2.539 1.478c-.055-.073-.105-.154-.162-.223a3.639 3.639 0 0 0-1.215-.996 12.34 12.34 0 0 0-2.555-.786 87.1 87.1 0 0 0-12.094-1.358v-2.652a83.533 83.533 0 0 0 18.958-3.407c11.613-3.671 19.329-9.975 24.027-18.085a42.27 42.27 0 0 0 3.823-8.892c.193.098.409.144.625.134a16.63 16.63 0 0 0 2.331-.36 9.875 9.875 0 0 0 4.135-1.836 6.494 6.494 0 0 0 1.349-1.734 19.336 19.336 0 0 0 1.64-4.043 33.312 33.312 0 0 0 1.103-5.507c.168-1.419.253-2.846.256-4.275a24.784 24.784 0 0 0-.324-4.205 8.816 8.816 0 0 0-1.013-3.043 6.939 6.939 0 0 0-2.112-2.085c-.013-.009-.027-.015-.041-.024a8.35 8.35 0 0 0 1.652-2.861 23.559 23.559 0 0 0 1.145-5.745c.934-9.897 2.461-27.748 2.793-32.805.015-.232.023-.457.023-.676a7.157 7.157 0 0 0-.351-2.319ZM32.082 50.456c-.931-9.863-2.46-27.747-2.787-32.73a7.64 7.64 0 0 1-.017-.506c-.012-.5.06-.999.21-1.476.13-.432.4-.808.769-1.069a2.72 2.72 0 0 1 1.258-.425c.13-.014.261-.022.392-.022a2.507 2.507 0 0 1 1.696.579c.606.609.952 1.43.964 2.289.306 3.169 1.155 13.34 1.926 22.699a14641.198 14641.198 0 0 1 1.438 17.594c-.787.187-1.56.426-2.316.716-.197.076-.406.178-.61.267a3.545 3.545 0 0 1-1.487-1.712 18.023 18.023 0 0 1-1.436-6.204Zm6.504 33.019a7.199 7.199 0 0 1-2.82-1.235 4.122 4.122 0 0 1-.773-1.042 16.839 16.839 0 0 1-1.403-3.487c-.48-1.66-.82-3.357-1.015-5.074a34.542 34.542 0 0 1-.239-3.971 22.224 22.224 0 0 1 .286-3.757c.097-.741.321-1.46.662-2.126.35-.518.805-.955 1.337-1.284.894-.56 1.86-.996 2.871-1.296.21-.065.404-.12.58-.168a91.12 91.12 0 0 0-.226 6.485 71.423 71.423 0 0 0 1.884 17.182 14.49 14.49 0 0 1-1.144-.227Zm30.782 48.691a4.847 4.847 0 0 1 .915-2.872c.183-.238.398-.451.639-.632a68.144 68.144 0 0 0-1.08 4.499c-.047.224-.09.468-.136.698a4.625 4.625 0 0 1-.338-1.693Zm-10.21 25.679-.005-.002a7.561 7.561 0 0 1-3.75-3.38 13.217 13.217 0 0 1-1.633-6.679c.003-1.085.098-2.167.284-3.235a39.165 39.165 0 0 1 5.307-13.149 22.139 22.139 0 0 1 4.697-5.437 8.55 8.55 0 0 1 5.263-2.087c.296 0 .593.02.886.061.237.023.465.098.67.219.235.156.408.389.492.658.086.247.143.504.168.764a5.288 5.288 0 0 0-1.557.576 6.123 6.123 0 0 0-2.395 2.572 7.602 7.602 0 0 0-.817 3.44 7.167 7.167 0 0 0 .713 3.153 6.51 6.51 0 0 0 1.582 2.057 157.702 157.702 0 0 0-.764 5.106 26.022 26.022 0 0 0-4.386 2.79 6.519 6.519 0 0 0-3.886 1.445l-.002.001a6.587 6.587 0 0 0-2.401 4.431 6.571 6.571 0 0 0 1.439 4.829 6.416 6.416 0 0 0 1.897 1.584c.083.146.164.294.254.433a3.862 3.862 0 0 1-.765.091 3.602 3.602 0 0 1-1.29-.241Zm3.9-1.834-.005-.009a8.385 8.385 0 0 1-.77-2.728 4.793 4.793 0 0 1-.039-.597 5.091 5.091 0 0 1 .754-2.605 9.975 9.975 0 0 1 2.222-2.519l.004-.002a27.876 27.876 0 0 1 7.189-4.109 59.253 59.253 0 0 1 8.371-2.711l.003-.001a17.643 17.643 0 0 1 4.195-.6c.23 0 .443.031.665.046-.269.359-.512.712-.752 1.065a6.388 6.388 0 0 0-2.182 1.159 6.569 6.569 0 0 0-1.5 8.542 6.566 6.566 0 0 0 8.28 2.58c.273.022.544.049.833.049a13.656 13.656 0 0 0 1.678-.124 8.528 8.528 0 0 1-1.058 1.133 13.65 13.65 0 0 1-3.34 2.085 20.907 20.907 0 0 1-3.095 1.017 64.194 64.194 0 0 1-13.763 2.02c-.714.015-1.428-.04-2.132-.164a11.104 11.104 0 0 1-3.493-1.282 5.355 5.355 0 0 1-2.065-2.245Zm50.199-23.801a2.37 2.37 0 0 1-.184.06c-.994.248-2.002.433-3.018.555a62.271 62.271 0 0 1-1.949.233 1.121 1.121 0 0 0-.136.042 44.934 44.934 0 0 0-3.787-2.091l-.04-.019a84.651 84.651 0 0 1 5.177-.162c1.518 0 2.867.044 3.844.116.262.019.492.041.693.063a7.297 7.297 0 0 1-.6 1.203Zm-15.475-.384c.144-.057.299-.08.453-.069.842.058 1.67.25 2.45.57a32.465 32.465 0 0 1 4.64 2.227c.703.4 1.329.782 1.812 1.092.241.155.447.292.605.402.13.09.22.157.267.194.066.126.117.259.153.397a8.73 8.73 0 0 1 .256 1.523c.056.599.08 1.248.08 1.844.005.594-.023 1.189-.085 1.78a.305.305 0 0 1-.107.214c-.259.2-.565.33-.889.379a6.422 6.422 0 0 1-1.298.123l-.041-.001c.069-.161.139-.323.204-.489.181-.448.335-.906.462-1.372.13-.46.201-.934.211-1.412a2.495 2.495 0 0 0-.472-1.548 3.838 3.838 0 0 0-.77-.725 12.626 12.626 0 0 0-1.67-1.006c-1.819-.943-3.965-1.758-3.989-1.768a1.298 1.298 0 0 0-1.677.751 1.3 1.3 0 0 0 .751 1.678l.202.079c.462.181 1.653.661 2.796 1.21.571.273 1.131.564 1.564.829.184.11.361.23.532.359l.132.111.001.03a3.992 3.992 0 0 1-.224 1.086 17.094 17.094 0 0 1-.93 2.224c-.167.341-.326.647-.454.889-.129.245-.221.411-.283.532a3.939 3.939 0 0 1-.849 1.2c-.205.165-.243.137-.243.143l-.117-.05a1.646 1.646 0 0 1-.466-.503 1.996 1.996 0 0 1-.155-.297l-.029-.082-.001-.006-.006.001c-.003-.021-.015-.038-.019-.059-.011-.086-.02-.18-.033-.26l-.002-.008a2.548 2.548 0 0 1-.035-.436c.01-.472.103-.938.277-1.377.057-.15.121-.297.193-.44l.057-.108.011-.019-.001-.001a1.298 1.298 0 0 0-1.423-1.93 1.302 1.302 0 0 0-.8.586c-.184.315-.34.645-.467.987a6.544 6.544 0 0 0-.447 2.302c-.001.294.024.588.073.877l-.001-.007c.044.26.067.524.067.789a5.484 5.484 0 0 1-1.133 3.186 5.739 5.739 0 0 1-2.754 1.836c-1.23.442-2.527.675-3.835.688a7.346 7.346 0 0 1-.902-.052l-.016-.001a4.34 4.34 0 0 1-.668-.134 5.611 5.611 0 0 1-2.125-1.155 4.133 4.133 0 0 1-.462-.49c-.044-.057-.076-.118-.117-.176a3.692 3.692 0 0 1-.596-1.362 3.917 3.917 0 0 1-.089-.782 4.63 4.63 0 0 1 .283-1.545c.004-.013.005-.025.01-.038.304-.758.686-1.483 1.14-2.162a45.344 45.344 0 0 1 5.89-6.913 53.829 53.829 0 0 1 3.066-2.814 15.504 15.504 0 0 1 2.042-1.521Zm-16.54 40.295-.165-.018c2.347-.815 4.62-1.832 7.096-2.685a29.345 29.345 0 0 1 9.878-1.753 32.735 32.735 0 0 1 12.702 2.793c1.361.534 2.694 1.079 4.057 1.556-5.269.519-11.573.835-17.935.834-5.22.021-10.438-.221-15.633-.727Zm45.459-42.012c.352.701.534 1.474.533 2.258a4.578 4.578 0 0 1-.448 2.009c-.011.023-.026.043-.037.065-.414-2.141-.858-4.08-1.329-5.77.551.353.994.85 1.281 1.438Zm-8.266-6.889c.682.129 1.348.327 1.99.593.128.08.24.184.33.306.329.433.605.904.821 1.404l.015.03c.118.255.236.527.354.829a49.74 49.74 0 0 1 2.145 8.001 214.445 214.445 0 0 1 3.328 35.174c-.295.17-.606.311-.928.421a22.44 22.44 0 0 1-2.906.78c-.486.045-.962.073-1.425.073a17.564 17.564 0 0 1-5.195-.845c-2.545-.77-5.129-1.981-8.154-3.026a32.08 32.08 0 0 0-10.759-1.895 35.133 35.133 0 0 0-13.61 2.974c-1.842.727-3.541 1.434-5.208 1.949a16.805 16.805 0 0 1-5.04.843c-.604 0-1.206-.04-1.804-.118a34.579 34.579 0 0 1-3.475-.978c.037-2.474.121-4.99.24-7.506.495.045 1.02.072 1.594.073a58.606 58.606 0 0 0 9.706-1.067 65.71 65.71 0 0 0 4.72-1.039 23.283 23.283 0 0 0 3.509-1.165 16.196 16.196 0 0 0 3.98-2.498 9.777 9.777 0 0 0 2.808-3.985 7.874 7.874 0 0 0 3.58-2.618l.001-.002a9.294 9.294 0 0 0 1.177-2.283c.358.167.748.255 1.143.257a2.975 2.975 0 0 0 1.924-.759 6.416 6.416 0 0 0 1.481-1.995l.001-.003.115-.216c.149.078.311.127.478.144.031.002.317.029.748.029a7.957 7.957 0 0 0 2.567-.384 3.878 3.878 0 0 0 1.432-.853 2.93 2.93 0 0 0 .874-1.752l.001-.003c.075-.699.111-1.401.105-2.104a19.884 19.884 0 0 0-.213-3.055 7.666 7.666 0 0 0-.348-1.408c-.019-.051-.042-.101-.063-.152.248-.034.502-.07.762-.109a26.15 26.15 0 0 0 2.137-.402 7.13 7.13 0 0 0 .904-.274c.151-.058.297-.129.437-.211.209-.121.39-.283.532-.478.311-.451.582-.927.812-1.425a7.49 7.49 0 0 0 .362-.93 3.73 3.73 0 0 0 .18-1.073c.002-.251-.038-.5-.12-.738a1.823 1.823 0 0 0-.529-.782 1.604 1.604 0 0 0-.404-.25 2.827 2.827 0 0 0-.518-.161 15.89 15.89 0 0 0-2.282-.246 63.116 63.116 0 0 0-3.427-.084 66.308 66.308 0 0 0-11.687.911c-.08.025-.157.057-.23.097-.308.06-.605.166-.88.316-.87.529-1.692 1.133-2.456 1.805a62.122 62.122 0 0 0-6.501 6.45 11.571 11.571 0 0 0-2.584-.277c-1.629.03-3.248.257-4.821.677a61.703 61.703 0 0 0-8.745 2.834c-.106.044-.21.09-.314.135.202-1.405.414-2.753.638-4.043.012-.05.021-.101.027-.152.49-2.816 1.026-5.332 1.591-7.399.371-1.455.868-2.875 1.486-4.243.188-.407.417-.793.684-1.153.101-.149.232-.276.384-.374a9.718 9.718 0 0 1 1.903-.573 66.008 66.008 0 0 1 8.008-1.058 18.1 18.1 0 0 0 3.72 2.446l.002-.003c.102.057.206.11.314.156l-.002.004c.023.011.047.019.07.03l.001.001a18.131 18.131 0 0 0 7.716 1.688 20.753 20.753 0 0 0 8.157-1.702l-.001-.001c.147-.058.248-.105.274-.114l.056-.023a14.512 14.512 0 0 0 3.652-2.298c.066-.07.124-.148.172-.232 1.844.147 3.561.32 5.063.517 1.324.175 2.485.367 3.418.57Zm-13.128-1.049c-.085.04-.162.084-.25.123-.124.053-.199.087-.218.092l-.074.03a18.151 18.151 0 0 1-7.121 1.487 15.508 15.508 0 0 1-6.676-1.47l-.07-.031-.123-.062-.092-.049a15.13 15.13 0 0 1-.753-.398l.117-.008c.023.002.043.014.066.014a1.29 1.29 0 0 0 .967-.452l.008-.012c.102-.117.182-.25.236-.395.015-.057.027-.114.035-.173.028-.087.046-.177.054-.268v-3.683a135.72 135.72 0 0 0 12.88-.079v4.092a1.281 1.281 0 0 0 1.014 1.242Zm29.578-15.671c-8.559 5.009-20.77 7.935-37.814 7.933-11.36.001-20.58-1.298-27.994-3.65-11.124-3.539-18.177-9.377-22.564-16.911-4.381-7.538-6.069-16.876-6.067-27.352a68.504 68.504 0 0 1 2.522-19.568c2.691-8.958 7.685-16.453 16.234-21.809 8.553-5.35 20.762-8.552 37.869-8.55 11.402-.001 20.636 1.42 28.052 3.955 11.125 3.812 18.17 10.06 22.547 17.959 4.369 7.9 6.029 17.535 6.028 28.013a64.947 64.947 0 0 1-2.547 19.239 35.083 35.083 0 0 1-16.266 20.741Zm27.37-41.592a22.18 22.18 0 0 1 .285 3.756 34.724 34.724 0 0 1-.238 3.974 28.96 28.96 0 0 1-1.466 6.446 14.1 14.1 0 0 1-.952 2.114 4.12 4.12 0 0 1-.773 1.042 7.512 7.512 0 0 1-3.026 1.283 15.134 15.134 0 0 1-1.69.28 71.403 71.403 0 0 0 1.903-17.283 90.285 90.285 0 0 0-.246-6.668c.817.176 1.618.42 2.396.726a9.943 9.943 0 0 1 1.863.958c.509.322.945.747 1.281 1.248.341.664.566 1.383.663 2.124Zm2.39-47.18c-.326 4.98-1.855 22.865-2.786 32.728a17.068 17.068 0 0 1-1.428 6.089c-.214.436-.5.833-.846 1.175-.137.129-.288.243-.449.341a19.137 19.137 0 0 0-.977-.34 16.336 16.336 0 0 0-1.799-.459 1.258 1.258 0 0 0-.34.008l.407-5c.809-9.93 2.486-30.415 2.947-35.174.012-.86.358-1.68.964-2.29a2.508 2.508 0 0 1 1.695-.578c.131 0 .262.008.392.022a2.422 2.422 0 0 1 1.558.683c.213.233.373.51.469.81.151.478.222.977.211 1.477 0 .16-.006.329-.018.508ZM155.412 130.603v.002l.051-.004.151-.005c.164-.001.327.018.486.057a.497.497 0 0 1 .211.094 1.302 1.302 0 0 0 2.254-.832c.014-.344-.11-.68-.344-.933a3.007 3.007 0 0 0-1.445-.84 4.509 4.509 0 0 0-1.162-.146 4.153 4.153 0 0 0-.535.031 1.296 1.296 0 0 0-1.122 1.455 1.298 1.298 0 0 0 1.455 1.121Z"/><path fill="#FFE632" d="M153.025 117.865a3.647 3.647 0 0 0-.543.043l-10.766 1.698a4.352 4.352 0 0 0-3.655 3.862l-.699 6.649a1.306 1.306 0 0 0 .282.954 1.301 1.301 0 0 0 2.303-.682l.701-6.654v-.005a1.754 1.754 0 0 1 1.472-1.556l10.768-1.697.137-.011a.835.835 0 0 1 .826.829l-.004.092.001-.007-1.575 15.126a1.292 1.292 0 0 0 .282.955 1.29 1.29 0 0 0 .876.475 1.29 1.29 0 0 0 1.278-.675c.082-.151.132-.315.15-.486l1.575-15.126.001-.006a3.434 3.434 0 0 0-3.41-3.778ZM137.752 139.121a1.291 1.291 0 0 0 .959-.264 1.3 1.3 0 0 0 .491-.865l.466-3.742a1.299 1.299 0 0 0-2.58-.321l-.466 3.741a1.307 1.307 0 0 0 .265.96 1.295 1.295 0 0 0 .865.491ZM145.109 151.94l-6.502 1.025-.137.011a.834.834 0 0 1-.828-.83l.005-.088.424-4.162a1.295 1.295 0 0 0-.674-1.281 1.304 1.304 0 0 0-1.442.137 1.3 1.3 0 0 0-.47.88l-.425 4.163a3.423 3.423 0 0 0 .988 2.774 3.433 3.433 0 0 0 2.963.964l6.503-1.024a1.305 1.305 0 0 0 1.071-1.485 1.303 1.303 0 0 0-1.476-1.084Z"/><path fill="#BEBEC9" d="M162.151 144.631v-.002c-.204-1.409-.759-3.674-1.297-5.838-.269-1.076-.533-2.117-.742-2.978-.209-.853-.365-1.556-.407-1.84-.108-.695-.2-1.58-.379-2.452a8.15 8.15 0 0 0-.368-1.302 3.86 3.86 0 0 0-.738-1.237 1.302 1.302 0 0 0-1.909 1.765c.097.123.173.263.223.412.162.466.278.946.346 1.435.093.57.165 1.186.255 1.772.075.483.236 1.176.451 2.062.32 1.317.755 3.007 1.142 4.603.387 1.588.727 3.102.849 3.963l.01.177a6.267 6.267 0 0 1-.556 2.151 13.91 13.91 0 0 1-2.672 4.119 7.952 7.952 0 0 1-1.755 1.415 3.737 3.737 0 0 1-1.67.533c-.417.017-.812.028-1.187.028a10.903 10.903 0 0 1-2.28-.201 6.141 6.141 0 0 1-1.918-.749c-.504-.302-1.315-.744-2.302-1.292-1.475-.818-3.321-1.862-4.876-2.879a22.157 22.157 0 0 1-2.015-1.455 4.447 4.447 0 0 1-.959-.992 1.656 1.656 0 0 1-.276-.789c.007-.168.046-.333.115-.486a95.376 95.376 0 0 0 5.286 2.718 33.48 33.48 0 0 0 4.911 1.958 1.301 1.301 0 0 0 .69-2.507 24.317 24.317 0 0 1-3.059-1.149c-1.735-.761-3.624-1.715-5.103-2.501a88.332 88.332 0 0 1-1.846-1.006c-.233-.131-.424-.24-.559-.32l-.157-.094-.024-.014a.74.74 0 0 1-.252-.315 1.323 1.323 0 0 1-.098-.532c.003-.368.101-.729.284-1.048.013-.022.024-.034.037-.053a38.326 38.326 0 0 0 5.786 2.203c1.106.332 2.185.616 3.142.82.812.192 1.641.304 2.475.335.332.01.662-.04.976-.146.249-.089.472-.237.651-.431a1.495 1.495 0 0 0 .294-1.525 2.909 2.909 0 0 0-.411-.744 7.633 7.633 0 0 0-1.091-1.139 31.058 31.058 0 0 0-2.735-2.08c-1.548-1.074-3.278-2.172-4.684-3.075a88.583 88.583 0 0 1-1.79-1.171 14.101 14.101 0 0 1-.562-.4l-.119-.094c.009-.125.04-.247.091-.361a1.97 1.97 0 0 1 .512-.712.757.757 0 0 1 .441-.22l.023.002h.001c.266.066.526.152.779.258a58.298 58.298 0 0 1 6.606 3.325 60.188 60.188 0 0 1 3.593 2.216 19.577 19.577 0 0 1 2.505 1.928 1.291 1.291 0 0 0 1.421.26 1.307 1.307 0 0 0 .783-1.214 1.303 1.303 0 0 0-.395-.913 24.158 24.158 0 0 0-3.425-2.591 76.027 76.027 0 0 0-6.676-3.829 47.787 47.787 0 0 0-2.863-1.357 17.024 17.024 0 0 0-1.101-.431 4.543 4.543 0 0 0-.94-.236 2.69 2.69 0 0 0-.311-.018 3.095 3.095 0 0 0-1.53.421 4.27 4.27 0 0 0-1.51 1.497 3.905 3.905 0 0 0-.607 1.995 2.469 2.469 0 0 0 .617 1.678c.131.14.274.269.427.385.278.218.623.458 1.042.739 1.457.974 3.788 2.411 5.819 3.798.585.4 1.138.794 1.638 1.168a44.086 44.086 0 0 1-3.915-1.132 29.15 29.15 0 0 1-4.06-1.668 2.081 2.081 0 0 0-.98-.248 2.253 2.253 0 0 0-1.362.482 3.619 3.619 0 0 0-1.094 1.475 4.75 4.75 0 0 0-.382 1.851 3.915 3.915 0 0 0 .317 1.576c.103.233.233.452.386.656a1.181 1.181 0 0 0-.124.158 4.128 4.128 0 0 0-.483 1.858c.02.722.226 1.426.599 2.044a5.2 5.2 0 0 0 .958 1.187 18.458 18.458 0 0 0 2.46 1.909c1.416.952 3.042 1.898 4.469 2.702 1.421.799 2.661 1.467 3.204 1.794a8.762 8.762 0 0 0 2.713 1.062c.929.186 1.875.273 2.823.259.425 0 .856-.012 1.297-.031a6.804 6.804 0 0 0 3.682-1.413 14.544 14.544 0 0 0 3.881-4.564c.456-.802.836-1.644 1.136-2.516a7.48 7.48 0 0 0 .444-2.322 3.759 3.759 0 0 0-.036-.54Z"/><path fill="#FFE632" d="M150.927 123.443a1.31 1.31 0 0 0-.976.193 1.288 1.288 0 0 0-.554.826l-.092.458a1.316 1.316 0 0 0 .191.979 1.292 1.292 0 0 0 1.336.556 1.305 1.305 0 0 0 1.023-1.024l.091-.458a1.291 1.291 0 0 0-.192-.976 1.315 1.315 0 0 0-.827-.554Z"/><path fill="#BEBEC9" d="M130.179 89.595c-.226.21-.456.416-.692.618a25.45 25.45 0 0 1-3.545 2.535 31.54 31.54 0 0 1-.841.484 1.299 1.299 0 1 0 1.26 2.274c.31-.171.614-.347.913-.525a28.097 28.097 0 0 0 3.906-2.794c.263-.226.52-.455.768-.686a1.298 1.298 0 0 0-1.769-1.906ZM82.644 43.25a46.61 46.61 0 0 0-13.3 4.229 1.3 1.3 0 0 0 1.192 2.31 44.041 44.041 0 0 1 12.56-3.98 1.3 1.3 0 1 0-.452-2.56ZM63.183 51.696a24.433 24.433 0 0 0-2.671 2.841 1.3 1.3 0 1 0 2.031 1.623 21.822 21.822 0 0 1 2.388-2.539 1.3 1.3 0 0 0-1.748-1.925ZM80.16 138.207h.001l.002-.001-.004.001ZM82.712 142.402v-.002l.003-.001-.003.003Z"/><path fill="#FFE632" d="M126.331 78.683V65.025l.001-.005-.001-.004v-6.62a7.802 7.802 0 0 0-7.8-7.8h-42a7.8 7.8 0 0 0-7.8 7.8v26.5a7.8 7.8 0 0 0 7.8 7.8h42a7.802 7.802 0 0 0 7.8-7.8v-6.204l.001-.004-.001-.005ZM110.036 66.32h13.695v11.067h-13.695V66.32Zm12.172-11.602a5.17 5.17 0 0 1 1.523 3.677v5.325H108.78a1.292 1.292 0 0 0-1.211.856c-.085.172-.131.361-.133.553v17.58a8.624 8.624 0 0 1-4.211 7.386H92.587a8.623 8.623 0 0 1-4.212-7.386v-22.13a8.619 8.619 0 0 1 4.222-7.384h10.641a8.667 8.667 0 0 1 4.058 5.837 1.3 1.3 0 0 0 2.558-.467 11.202 11.202 0 0 0-2.612-5.37h11.289a5.176 5.176 0 0 1 3.677 1.523Zm-49.353 0a5.176 5.176 0 0 1 3.676-1.523h12.063a11.152 11.152 0 0 0-2.819 7.384v3.141H71.331v-5.325a5.178 5.178 0 0 1 1.523-3.677ZM71.332 66.32h14.443v11.067H71.331V66.32Zm1.523 22.253a5.177 5.177 0 0 1-1.523-3.677v-4.909h14.443v2.722a11.166 11.166 0 0 0 2.813 7.386H76.532a5.178 5.178 0 0 1-3.677-1.522Zm49.353 0a5.175 5.175 0 0 1-3.677 1.522h-11.307a11.171 11.171 0 0 0 2.812-7.386v-2.722h13.695v4.909a5.169 5.169 0 0 1-1.523 3.677Z"/></svg>