<svg width="200" height="200" viewBox="0 0 200 200" xmlns="http://www.w3.org/2000/svg"><g id="type=warning, mode=dark"><g id="Layer 11"><path id="Vector" d="M138.127 70.3751C138.462 68.2991 138.536 66.9862 138.538 66.9498C138.557 66.6059 138.438 66.2687 138.208 66.0123C137.978 65.7558 137.656 65.6011 137.312 65.5821C136.968 65.563 136.631 65.6812 136.374 65.9107C136.117 66.1402 135.962 66.4622 135.943 66.806L135.939 66.8505C135.924 67.0876 135.838 68.2414 135.561 69.9607C135.506 70.3011 135.588 70.6494 135.79 70.929C135.992 71.2085 136.296 71.3964 136.637 71.4514C136.977 71.5063 137.325 71.4238 137.605 71.222C137.885 71.0201 138.073 70.7155 138.127 70.3751L138.127 70.3751Z"/><path id="Vector_2" d="M131.79 83.9172C131.659 85.838 131.48 87.9437 131.164 90.1415C131.089 90.6686 131.011 91.1865 130.931 91.6951C130.879 92.0354 130.963 92.3828 131.166 92.661C131.369 92.9391 131.674 93.1254 132.014 93.1789C132.355 93.2324 132.702 93.1487 132.981 92.9462C133.259 92.7438 133.446 92.439 133.5 92.0989C133.582 91.5765 133.661 91.0471 133.738 90.5106C134.067 88.2195 134.251 86.0469 134.384 84.0937C134.395 83.9234 134.373 83.7525 134.319 83.5907C134.264 83.4289 134.179 83.2794 134.066 83.1508C133.954 83.0222 133.818 82.9169 133.665 82.8411C133.512 82.7652 133.345 82.7202 133.175 82.7086C133.005 82.697 132.834 82.719 132.672 82.7735C132.51 82.828 132.361 82.9138 132.232 83.026C132.104 83.1382 131.998 83.2747 131.923 83.4276C131.847 83.5805 131.802 83.7469 131.79 83.9172L131.79 83.9172Z"/><path id="Vector_3" d="M136.234 94.2749L136.233 94.2759L136.229 94.2789L136.234 94.2749Z"/><path id="Vector_4" d="M133.947 109.146L133.946 109.148V109.151L133.947 109.146Z"/><path id="Vector_5" d="M144.404 90.461L144.401 90.4496L144.401 90.4495C144.211 89.4925 143.795 88.5946 143.189 87.83L143.177 87.8148C142.404 86.8682 141.478 86.0568 140.439 85.4138L140.429 85.4072C138.908 84.4526 137.294 83.6543 135.612 83.0247L135.609 83.0235C135.235 82.8805 134.86 82.7441 134.482 82.614C134.32 82.557 134.149 82.5325 133.977 82.5421C133.806 82.5516 133.638 82.595 133.484 82.6697C133.329 82.7444 133.191 82.849 133.077 82.9774C132.963 83.1057 132.876 83.2554 132.82 83.4177C132.764 83.58 132.741 83.7517 132.752 83.9229C132.763 84.0942 132.808 84.2616 132.884 84.4154C132.96 84.5693 133.066 84.7066 133.195 84.8195C133.324 84.9323 133.474 85.0184 133.637 85.0729C133.984 85.1921 134.332 85.3188 134.677 85.4511C136.191 86.0163 137.644 86.7326 139.015 87.5892C139.816 88.077 140.53 88.6948 141.129 89.417C141.489 89.8594 141.736 90.3827 141.848 90.9418C141.891 91.1744 141.913 91.4105 141.913 91.6471C141.902 92.384 141.712 93.1072 141.358 93.7536C141.029 94.3562 140.619 94.9102 140.137 95.3995C139.177 96.358 138.103 97.1951 136.938 97.8919C136.589 98.1086 136.244 98.3082 135.906 98.4989C135.745 98.1614 135.566 97.8328 135.37 97.5144C134.962 96.858 134.478 96.2515 133.929 95.7072C134.726 95.2778 135.495 94.8 136.234 94.2767C136.88 93.8303 137.466 93.3042 137.981 92.7109L137.986 92.7004L137.996 92.6918C138.042 92.6192 138.08 92.542 138.11 92.4615C138.153 92.3915 138.19 92.3177 138.22 92.2409C138.236 92.1542 138.244 92.0659 138.242 91.9777C138.254 91.9008 138.259 91.823 138.257 91.7452C138.24 91.6584 138.214 91.5735 138.179 91.4921C138.162 91.4165 138.138 91.3427 138.107 91.2715C138.055 91.1942 137.996 91.1226 137.929 91.0578C137.886 90.9953 137.838 90.9369 137.784 90.8832L137.774 90.8779L137.765 90.8677C137.742 90.8531 137.55 90.6796 137.304 90.4745C136.014 89.4007 134.451 88.7053 132.789 88.4657C132.621 88.4394 132.448 88.4465 132.282 88.4868C132.117 88.527 131.96 88.5995 131.822 88.7002C131.684 88.8008 131.568 88.9277 131.479 89.0734C131.39 89.2192 131.331 89.381 131.304 89.5497C131.278 89.7184 131.285 89.8906 131.325 90.0565C131.366 90.2224 131.438 90.3788 131.539 90.5167C131.639 90.6545 131.766 90.7713 131.912 90.8601C132.058 90.949 132.22 91.0083 132.388 91.0346H132.388C133.288 91.164 134.152 91.4771 134.926 91.9543C134.939 91.9628 134.95 91.9709 134.963 91.9794C134.881 92.0419 134.802 92.1047 134.716 92.1656L134.711 92.1693C133.766 92.8302 132.771 93.4172 131.735 93.9253C131.283 94.2962 130.793 94.6167 130.272 94.8813C130.116 95.1889 130.089 95.5458 130.196 95.8734C130.304 96.201 130.537 96.4725 130.844 96.6283H130.844C131.803 97.1641 132.603 97.9437 133.163 98.8882C133.732 99.748 134.063 100.744 134.121 101.773C134.121 101.885 134.115 101.997 134.102 102.108C133.991 103.168 133.492 104.149 132.702 104.864C132.457 105.085 132.189 105.279 131.902 105.441C131.798 105.5 131.716 105.539 131.666 105.562L131.617 105.583L131.614 105.585L131.614 105.586C131.411 105.664 131.23 105.791 131.089 105.957C130.948 106.123 130.851 106.322 130.808 106.535C130.764 106.748 130.775 106.969 130.84 107.177C130.904 107.385 131.02 107.573 131.177 107.724L131.173 107.727C131.22 107.785 131.26 107.849 131.289 107.918C131.365 108.091 131.403 108.279 131.399 108.468C131.399 108.567 131.391 108.667 131.375 108.765L131.375 108.77C131.353 108.85 131.309 108.922 131.248 108.977C130.945 109.262 130.578 109.472 130.179 109.588C129.592 109.781 128.978 109.878 128.36 109.875C127.746 109.88 127.136 109.779 126.556 109.577C126.396 109.517 126.225 109.489 126.053 109.496C125.882 109.502 125.714 109.543 125.558 109.615C125.402 109.686 125.262 109.788 125.146 109.915C125.03 110.041 124.94 110.189 124.881 110.35C124.823 110.511 124.796 110.682 124.804 110.853C124.812 111.025 124.853 111.193 124.926 111.348C124.999 111.503 125.102 111.642 125.229 111.758C125.356 111.873 125.505 111.962 125.666 112.019C127.675 112.717 129.877 112.611 131.809 111.722C132.317 111.479 132.776 111.145 133.163 110.736C133.578 110.298 133.851 109.744 133.947 109.148C133.981 108.923 133.998 108.696 133.999 108.468C134 108.07 133.94 107.674 133.822 107.293C134.039 107.137 134.248 106.969 134.447 106.79C135.698 105.657 136.492 104.106 136.681 102.429L136.682 102.427C136.708 102.21 136.721 101.992 136.721 101.773C136.713 101.533 136.691 101.293 136.656 101.055C137.181 100.771 137.738 100.455 138.311 100.1L138.316 100.097C139.663 99.287 140.905 98.3138 142.013 97.1996L142.018 97.1955C142.664 96.5336 143.215 95.785 143.655 94.9712C144.208 93.9504 144.502 92.8097 144.513 91.6488V91.6476C144.513 91.2496 144.476 90.8524 144.404 90.461Z"/><path id="Vector_6" d="M195.3 169.81C195.3 169.802 195.295 169.796 195.295 169.788C195.276 168.414 194.888 167.07 194.173 165.896C192.58 163.503 190.411 161.548 187.866 160.21C183.548 157.684 177.584 155.546 170.398 153.864C162.442 152.076 154.356 150.922 146.217 150.411L138.575 128.452C138.479 128.175 138.291 127.939 138.042 127.781C137.794 127.624 137.5 127.556 137.208 127.587C137.186 127.59 137.168 127.601 137.147 127.604C137.079 127.596 137.01 127.593 136.941 127.596L135.548 127.822C135.284 127.865 135.04 127.988 134.849 128.174C134.658 128.361 134.529 128.601 134.478 128.863L130.486 149.947C127.316 149.975 124.212 150.072 121.173 150.239C121.197 149.835 121.216 149.426 121.221 149.002V148.997L121.221 148.881C121.233 147.641 120.943 146.417 120.375 145.315C120.395 145.269 120.413 145.223 120.427 145.175C120.796 142.258 120.199 139.301 118.729 136.756L118.727 136.754C118.33 136.158 117.838 135.631 117.27 135.195C117.788 132.26 118.058 129.286 118.076 126.306C118.076 125.513 118.054 124.705 118.005 123.886C117.994 123.711 117.948 123.541 117.87 123.384C121.642 119.916 124.824 115.855 127.288 111.362C127.453 111.06 127.492 110.705 127.395 110.374C127.298 110.043 127.074 109.765 126.773 109.599C126.471 109.434 126.115 109.395 125.785 109.491C125.454 109.587 125.175 109.81 125.009 110.112L125.009 110.112C121.084 117.298 115.248 123.257 108.146 127.332C100.189 131.782 91.197 134.051 82.081 133.908C63.7219 133.897 49.5852 125.896 41.3286 113.671C41.1358 113.386 40.8374 113.188 40.499 113.122C40.1606 113.057 39.8099 113.128 39.5241 113.321C39.2383 113.513 39.0408 113.812 38.975 114.15C38.9092 114.489 38.9806 114.839 39.1733 115.125C39.956 116.287 40.8073 117.399 41.6904 118.486C42.3301 122.717 42.6121 126.994 42.5334 131.272L42.5344 131.34H42.5339C42.5339 131.703 42.5273 132.091 42.5249 132.462C40.4479 133.174 38.667 134.557 37.4639 136.393C36.1601 138.418 35.3565 140.723 35.1197 143.12C34.9931 144.237 34.9302 145.361 34.9315 146.486C34.9011 149.033 35.2596 151.57 35.9945 154.009C36.3717 155.221 36.917 156.375 37.6146 157.436C38.311 158.496 39.2252 159.395 40.2965 160.073C42.0862 161.118 44.0934 161.734 46.1609 161.873C48.2283 162.012 50.3 161.67 52.2135 160.875C53.7756 160.238 55.1098 159.145 56.0423 157.739L56.0433 157.738C56.8072 156.442 57.3468 155.027 57.6393 153.552C57.9671 152.019 58.1317 150.456 58.1303 148.889C58.1395 147.695 58.0287 146.504 57.7995 145.334C57.6299 144.334 57.2494 143.382 56.6835 142.541L56.6822 142.539C56.5323 142.338 56.3749 142.148 56.2125 141.966C56.2205 141.927 56.2265 141.888 56.2306 141.849L56.2303 141.849C56.2208 139.923 55.822 138.018 55.058 136.25C54.3686 134.786 53.1872 133.611 51.7199 132.929C51.7242 132.4 51.7335 131.861 51.7335 131.34C51.733 130.097 51.7157 128.881 51.6871 127.68C59.8876 133.255 70.1989 136.515 82.0811 136.508C91.3616 136.637 100.522 134.397 108.695 129.999C108.575 131.285 108.412 132.481 108.241 133.499C107.102 133.707 106.001 134.08 104.97 134.606C102.824 135.74 101.261 137.935 100.177 140.678C99.0281 143.795 98.4622 147.096 98.5079 150.417C98.5079 151.21 98.5369 152.015 98.5948 152.831V152.828C98.5972 152.863 98.6068 152.895 98.6095 152.929C94.9904 153.619 91.4097 154.497 87.8822 155.56C83.1579 156.864 78.6692 158.906 74.5822 161.61C73.094 162.634 71.7983 163.913 70.7545 165.388C69.84 166.684 69.3371 168.225 69.3114 169.81C69.3112 169.969 69.3402 170.123 69.3507 170.28C69.3325 170.344 69.3194 170.408 69.3117 170.474L69.3114 175.118C69.3385 176.724 69.854 178.285 70.7894 179.592C72.4383 182.001 75.2457 184.063 78.9657 185.914C84.5502 188.678 92.2457 190.929 101.375 192.512C111.597 194.209 121.944 195.038 132.306 194.992C149.451 194.99 164.97 192.907 176.305 189.497C181.13 188.193 185.72 186.137 189.906 183.407C191.425 182.375 192.751 181.084 193.822 179.592C194.757 178.285 195.273 176.724 195.3 175.118V170.54C195.292 170.468 195.277 170.396 195.257 170.326C195.269 170.154 195.3 169.984 195.3 169.81ZM44.1411 136.252C44.257 135.962 44.4405 135.703 44.6765 135.498C44.81 135.378 44.9173 135.232 44.9916 135.068C45.0659 134.905 45.1057 134.728 45.1084 134.548C45.123 133.459 45.1338 132.385 45.1338 131.34L45.133 131.306H45.1333V131.272C45.1328 127.895 45.022 124.793 44.7485 121.924C46.0944 123.279 47.522 124.55 49.0234 125.731C49.0991 127.54 49.1325 129.406 49.1335 131.341C49.1335 132.536 49.1189 133.765 49.1013 135.014C49.1001 135.126 49.113 135.238 49.1399 135.347C49.4519 136.596 49.7021 137.787 49.9221 138.946C49.5176 138.907 49.1128 138.882 48.7097 138.882C47.1132 138.888 45.529 139.162 44.0232 139.692C43.6728 139.816 43.3335 139.952 43.0051 140.1C43.2891 138.791 43.6688 137.505 44.1411 136.252ZM53.0862 138.317C53.2441 138.834 53.3619 139.364 53.4385 139.9C53.1899 139.78 52.939 139.671 52.6841 139.574C52.5085 138.538 52.2878 137.461 52.0405 136.36C52.5207 136.933 52.8768 137.599 53.0862 138.317ZM54.6004 144.097C54.9326 144.636 55.1546 145.236 55.2537 145.862C55.4465 146.859 55.5391 147.873 55.5303 148.889C55.5315 150.269 55.387 151.646 55.0992 152.996C54.8691 154.179 54.4437 155.314 53.8404 156.357C53.1846 157.319 52.2556 158.063 51.1731 158.492C49.6452 159.119 47.9942 159.388 46.3463 159.279C44.6984 159.17 43.0973 158.686 41.6653 157.863C40.907 157.378 40.261 156.737 39.7703 155.983C38.9238 154.641 38.3363 153.153 38.0384 151.595C37.6917 149.914 37.5218 148.202 37.5313 146.486C37.5302 145.461 37.5873 144.436 37.7024 143.417C37.8929 141.436 38.5493 139.528 39.6182 137.849C40.1315 137.077 40.7775 136.403 41.5262 135.858C40.8504 137.752 40.3577 139.707 40.0548 141.695C40.0427 141.817 40.0486 141.94 40.0721 142.061C40.0282 142.106 39.981 142.148 39.9383 142.195C39.8236 142.321 39.735 142.469 39.6775 142.63C39.6199 142.791 39.5946 142.961 39.603 143.132C39.6198 143.476 39.7728 143.8 40.0282 144.031C40.2837 144.263 40.6207 144.383 40.965 144.367C41.3094 144.35 41.633 144.197 41.8646 143.941C41.9347 143.864 42.003 143.796 42.0997 143.706C42.919 143.01 43.8658 142.48 44.8873 142.145C46.1156 141.712 47.4076 141.488 48.7098 141.482C49.5447 141.476 50.3764 141.586 51.1812 141.808C52.5426 142.172 53.745 142.977 54.6004 144.097ZM137.969 134.621L148.869 165.946L133.345 173.213L137.969 134.621ZM134.172 144.452L130.68 173.6L128.783 172.909L134.172 144.452ZM117.899 142.567C117.707 142.434 117.512 142.308 117.311 142.189C117.226 141.437 117.131 140.722 117.036 140.079V140.077C116.954 139.523 116.873 139.031 116.799 138.601C117.446 139.829 117.822 141.181 117.899 142.567ZM108.277 138.809C108.523 138.061 108.839 137.338 109.22 136.649C109.4 136.343 109.66 136.091 109.971 135.92C110.136 135.826 110.278 135.699 110.388 135.545C110.498 135.392 110.573 135.216 110.609 135.03C110.66 134.764 110.712 134.483 110.765 134.178L110.765 134.177C111.098 132.251 111.316 130.308 111.418 128.356C112.812 127.463 114.159 126.497 115.451 125.462C115.458 125.742 115.476 126.028 115.476 126.305C115.457 129.141 115.2 131.969 114.706 134.761C114.481 136.059 114.258 137.073 114.107 137.709C114.065 137.886 114.061 138.07 114.094 138.249C114.192 138.771 114.327 139.538 114.464 140.459V140.458C114.491 140.645 114.519 140.849 114.546 141.046C112.332 140.427 110.011 140.294 107.741 140.657C107.904 140.013 108.081 139.39 108.277 138.809V138.809ZM102.598 141.628C103.204 139.687 104.469 138.019 106.173 136.911C106.191 136.901 106.214 136.895 106.232 136.886C106.086 137.241 105.945 137.598 105.818 137.964L105.815 137.973C105.43 139.134 105.118 140.318 104.882 141.518C104.688 141.613 104.499 141.72 104.317 141.836C104.027 142.023 103.823 142.317 103.751 142.654C103.678 142.991 103.742 143.344 103.929 143.633C104.116 143.923 104.41 144.127 104.747 144.199C105.084 144.272 105.437 144.208 105.726 144.021C105.961 143.874 106.211 143.752 106.471 143.658L106.484 143.653C107.705 143.236 108.988 143.035 110.278 143.057C112.093 143.028 113.891 143.408 115.538 144.17C116.427 144.588 117.196 145.221 117.777 146.013C118.353 146.856 118.649 147.86 118.621 148.881L118.621 148.979V148.975C118.616 149.472 118.592 149.943 118.558 150.397C112.734 150.78 106.934 151.467 101.181 152.455C101.136 151.767 101.108 151.086 101.108 150.417C101.063 147.421 101.568 144.442 102.598 141.628L102.598 141.628ZM191.671 178.13C190.444 179.953 187.985 181.861 184.491 183.584C179.255 186.182 171.75 188.402 162.793 189.95C152.717 191.621 142.519 192.438 132.306 192.392C115.377 192.394 100.049 190.319 89.0557 187.007C84.503 185.782 80.1699 183.852 76.2134 181.289C74.9459 180.435 73.8379 179.366 72.9397 178.13C72.4307 177.415 72.096 176.591 71.9622 175.723C73.9894 177.753 76.3606 179.406 78.9656 180.607C84.55 183.371 92.2456 185.622 101.375 187.205C111.597 188.902 121.944 189.731 132.306 189.685C149.45 189.683 164.969 187.6 176.305 184.19C181.13 182.885 185.719 180.83 189.906 178.1C190.898 177.4 191.818 176.602 192.649 175.718C192.516 176.587 192.181 177.414 191.671 178.13ZM191.671 172.823C190.444 174.646 187.985 176.554 184.491 178.277C179.255 180.875 171.75 183.095 162.793 184.643C152.717 186.314 142.519 187.131 132.306 187.085C115.377 187.087 100.049 185.012 89.0557 181.7C84.503 180.475 80.1699 178.545 76.2134 175.981C74.9459 175.128 73.8379 174.059 72.9397 172.823C72.2775 171.967 71.9159 170.917 71.9112 169.834C71.9064 168.752 72.2586 167.699 72.9133 166.837C74.1089 165.038 76.5049 163.154 79.915 161.446C85.0261 158.872 92.3616 156.66 101.132 155.098C110.667 153.469 120.319 152.618 129.992 152.556L127.84 163.915L99.0837 162.145C98.7719 162.125 98.4635 162.219 98.2151 162.409C97.9667 162.598 97.7949 162.871 97.7312 163.177C97.6674 163.483 97.716 163.802 97.868 164.075C98.02 164.348 98.2652 164.557 98.5588 164.664L131.33 176.605C131.38 176.615 131.43 176.623 131.481 176.628C131.527 176.646 131.573 176.661 131.621 176.674C131.656 176.678 131.689 176.664 131.725 176.666C131.896 176.666 132.066 176.639 132.229 176.585C132.261 176.573 132.295 176.575 132.326 176.561L151.033 167.804C151.087 167.77 151.138 167.732 151.186 167.691C151.261 167.646 151.331 167.594 151.396 167.536C151.501 167.409 151.593 167.272 151.67 167.127C151.698 167.05 151.719 166.971 151.732 166.891C151.754 166.81 151.767 166.728 151.771 166.644C151.768 166.559 151.757 166.475 151.737 166.392C151.733 166.327 151.724 166.263 151.71 166.199L147.147 153.085C160.203 154.062 171.596 156.304 179.722 159.312C183.239 160.492 186.541 162.239 189.495 164.484C190.457 165.247 191.282 166.17 191.931 167.213C192.417 167.994 192.682 168.891 192.697 169.81L192.699 169.821C192.67 170.903 192.311 171.95 191.671 172.823ZM127.353 166.49L126.308 172.007L107.874 165.291L127.353 166.49Z"/><path id="Vector_7" d="M33.626 91.1215C33.6021 90.9522 33.5451 90.7893 33.4582 90.642C33.3713 90.4948 33.2562 90.3661 33.1195 90.2634C32.9828 90.1608 32.8271 90.0861 32.6615 90.0436C32.4959 90.0012 32.3235 89.9918 32.1543 90.0161C31.985 90.0404 31.8222 90.0978 31.6752 90.1851C31.5282 90.2724 31.3998 90.3879 31.2975 90.5249C31.1952 90.6618 31.1209 90.8177 31.0789 90.9834C31.0369 91.1491 31.028 91.3216 31.0527 91.4907H31.0525C31.4125 94.0136 32.0166 96.4955 32.8562 98.9016C32.9704 99.2265 33.2088 99.4929 33.5192 99.6423C33.8296 99.7916 34.1866 99.8116 34.5117 99.698C34.8369 99.5843 35.1037 99.3463 35.2535 99.0361C35.4033 98.726 35.4239 98.3691 35.3108 98.0437C34.5264 95.7963 33.9621 93.478 33.626 91.1215Z"/><path id="Vector_8" d="M35.8668 83.4246L35.8666 83.4246C34.9805 80.1655 34.5348 76.8025 34.5414 73.4251C34.5414 73.109 34.4263 72.8038 34.2176 72.5664C34.0088 72.3291 33.7207 72.1759 33.4072 72.1356C33.0937 72.0953 32.7763 72.1706 32.5143 72.3474C32.2523 72.5242 32.0637 72.7904 31.9838 73.0962C31.8608 73.5704 31.7413 74.2106 31.6137 75.0099C31.2357 77.3954 30.8239 81.1093 30.6849 84.1314C30.6772 84.302 30.703 84.4724 30.7611 84.633C30.8192 84.7935 30.9083 84.9411 31.0234 85.0672C31.1385 85.1933 31.2774 85.2955 31.432 85.368C31.5866 85.4404 31.7539 85.4817 31.9245 85.4895C32.095 85.4973 32.2655 85.4714 32.426 85.4134C32.5866 85.3553 32.7341 85.2661 32.8603 85.151C32.9864 85.0359 33.0886 84.8971 33.161 84.7425C33.2335 84.5879 33.2748 84.4206 33.2826 84.25C33.288 84.1315 33.2977 84.0016 33.3041 83.8805C33.3243 83.9564 33.3378 84.0345 33.3585 84.1102C33.4498 84.4424 33.6692 84.7248 33.9685 84.8953C34.2679 85.0659 34.6227 85.1107 34.955 85.0198C35.2873 84.929 35.57 84.71 35.741 84.4109C35.9119 84.1118 35.9572 83.7571 35.8668 83.4246L35.8668 83.4246Z"/><path id="Vector_9" d="M132.456 90.3577C132.156 90.3153 131.852 90.3801 131.595 90.5405C131.339 90.701 131.148 90.9468 131.055 91.2346C131.027 91.2756 131.001 91.3182 130.977 91.3623H130.977C128.305 98.6653 124.121 104.738 117.578 109.044C111.033 113.346 102.046 115.908 89.6797 115.91C88.3782 115.91 87.0396 115.881 85.6638 115.824C73.9478 115.332 63.8311 112.457 55.7742 107.872C48.1831 103.739 42.0439 97.3746 38.1866 89.6398C38.0374 89.329 37.7709 89.0902 37.4457 88.9759C37.1204 88.8616 36.7631 88.8811 36.4523 89.0303C36.1415 89.1795 35.9027 89.446 35.7884 89.7712C35.6741 90.0964 35.6936 90.4538 35.8428 90.7646C39.9288 98.9768 46.4372 105.737 54.4886 110.131C62.9534 114.948 73.4786 117.914 85.5547 118.421C86.9656 118.481 88.3406 118.51 89.6797 118.51C102.394 118.511 111.931 115.868 119.006 111.216C122.839 108.7 126.132 105.444 128.692 101.64C128.577 102.012 128.476 102.388 128.354 102.758L128.351 102.765C125.957 110.664 120.607 117.336 113.417 121.389C106.388 125.4 97.3994 127.328 86.9995 127.327C85.9483 127.327 84.883 127.307 83.8037 127.268C67.3186 126.671 54.054 121.366 45.2788 113.15C45.1543 113.032 45.0079 112.941 44.848 112.881C44.688 112.82 44.5178 112.792 44.3469 112.797C44.1761 112.803 44.008 112.842 43.8523 112.913C43.6966 112.983 43.5563 113.084 43.4395 113.209C43.3227 113.333 43.2316 113.48 43.1716 113.64C43.1115 113.8 43.0836 113.97 43.0895 114.141C43.0953 114.312 43.1348 114.48 43.2057 114.636C43.2766 114.791 43.3774 114.931 43.5025 115.048L43.5022 115.048C52.8326 123.778 66.7261 129.252 83.7098 129.867C84.8191 129.907 85.9157 129.927 86.9995 129.927C97.7127 129.926 107.151 127.952 114.704 123.648C122.454 119.272 128.224 112.085 130.822 103.573C132.061 99.745 132.973 95.8185 133.548 91.8361C133.599 91.4951 133.513 91.1479 133.308 90.8706C133.103 90.5934 132.797 90.4089 132.456 90.3577Z"/><path id="Vector_10" d="M130.822 103.575L130.825 103.568L130.823 103.573L130.822 103.575Z"/><path id="Vector_11" d="M134.157 32.4851C130.109 25.6841 124.248 20.1439 117.23 16.4849C116.67 16.1874 116.081 15.9182 115.501 15.6399C115.761 14.9573 116.103 14.3092 116.521 13.7103C117.246 12.6436 118.246 11.793 119.415 11.2488C119.801 12.4758 120.62 13.5206 121.719 14.1884C122.819 14.8562 124.123 15.1015 125.39 14.8784C126.657 14.6554 127.799 13.9793 128.604 12.9762C129.409 11.973 129.822 10.7114 129.766 9.42637C129.709 8.14137 129.188 6.92072 128.298 5.99201C127.408 5.06329 126.211 4.48988 124.929 4.37869C123.648 4.2675 122.37 4.6261 121.333 5.38766C120.296 6.14921 119.572 7.26173 119.295 8.51782C118.238 8.85649 117.25 9.38438 116.381 10.0758C115.248 11.0018 114.316 12.1494 113.643 13.4484C113.449 13.815 113.276 14.1919 113.124 14.5775C105.845 11.6459 98.0568 10.188 90.2104 10.288C82.5407 10.192 74.9249 11.5806 67.7826 14.3772C67.7524 14.1019 67.7121 13.8047 67.6452 13.4742C67.4647 12.5592 67.1244 11.6831 66.6398 10.8862C67.0765 10.1082 67.3088 9.23213 67.3148 8.33995C67.3252 7.14758 66.939 5.98557 66.2169 5.03662C65.4949 4.08766 64.478 3.40556 63.326 3.09756C62.1741 2.78955 60.9524 2.87311 59.8532 3.33509C58.7539 3.79707 57.8393 4.61127 57.2532 5.6497C56.6671 6.68813 56.4427 7.8919 56.6153 9.07175C56.7879 10.2516 57.3477 11.3406 58.2068 12.1677C59.0658 12.9947 60.1753 13.5127 61.3608 13.6404C62.5464 13.7682 63.7408 13.4982 64.7562 12.8731C64.9058 13.234 65.0199 13.6086 65.097 13.9915C65.1944 14.4725 65.2453 14.9618 65.2491 15.4526L65.2489 15.4812C57.5513 19.0022 51.0642 24.7168 46.6005 31.9088C46.4216 32.2029 46.3667 32.5559 46.4476 32.8904C46.5286 33.2249 46.739 33.5137 47.0325 33.6934C47.3261 33.8731 47.6789 33.929 48.0137 33.8489C48.3484 33.7689 48.6378 33.5593 48.8183 33.2662L48.818 33.2662C56.1232 21.3543 70.1046 12.9034 90.2104 12.888C100.41 12.8887 109.037 15.0795 116.011 18.7814C122.606 22.2152 128.114 27.4178 131.918 33.8061C132.094 34.1015 132.379 34.315 132.713 34.4002C133.046 34.4853 133.399 34.435 133.695 34.2604C133.991 34.0857 134.206 33.8009 134.293 33.4682C134.379 33.1355 134.331 32.7821 134.157 32.4851ZM124.489 6.95883C125.029 6.95901 125.557 7.11937 126.006 7.41963C126.455 7.71989 126.805 8.14657 127.012 8.64572C127.218 9.14487 127.272 9.69407 127.167 10.2239C127.061 10.7537 126.801 11.2403 126.419 11.6222C126.037 12.0041 125.55 12.2642 125.02 12.3695C124.49 12.4748 123.941 12.4206 123.442 12.2138C122.943 12.007 122.516 11.6568 122.216 11.2076C121.916 10.7584 121.756 10.2303 121.756 9.69009C121.757 8.96582 122.046 8.27153 122.558 7.75951C123.07 7.24748 123.764 6.95953 124.489 6.95882L124.489 6.95883ZM61.9828 11.0712C61.4426 11.0711 60.9145 10.9108 60.4654 10.6106C60.0163 10.3103 59.6663 9.88366 59.4597 9.38452C59.253 8.88538 59.1991 8.33617 59.3045 7.80634C59.41 7.27652 59.6703 6.78988 60.0523 6.40794C60.4344 6.02601 60.9211 5.76595 61.451 5.66063C61.9808 5.55532 62.53 5.60949 63.0291 5.81629C63.5282 6.02309 63.9547 6.37323 64.2548 6.82244C64.5549 7.27166 64.715 7.79977 64.715 8.33999C64.714 9.06421 64.4257 9.75846 63.9136 10.2705C63.4014 10.7825 62.707 11.0705 61.9828 11.0712Z"/><path id="Vector_12" d="M78.043 55.8571C77.2575 55.3935 76.3616 55.1504 75.4496 55.1533C74.5375 55.1563 73.6432 55.4053 72.8608 55.874C71.7879 56.5864 70.9812 57.6343 70.5671 58.8538C70.1288 60.0869 69.9133 61.3881 69.9307 62.6967C69.9138 64.6406 70.3327 66.5636 71.1565 68.3245C71.5375 69.131 72.0789 69.8515 72.7475 70.4419C73.4386 71.0484 74.3238 71.3878 75.2432 71.3988H75.2673C76.2282 71.3858 77.157 71.0507 77.9048 70.4471C78.9821 69.527 79.7824 68.3254 80.2161 66.9766C80.7135 65.5594 80.9665 64.0681 80.9641 62.5662C81.0127 60.8527 80.6036 59.1573 79.779 57.6546C79.353 56.9248 78.7575 56.3082 78.043 55.8571ZM77.3411 67.0741C77.0892 67.5828 76.7353 68.0342 76.3015 68.4002C76.0075 68.6497 75.6365 68.7905 75.251 68.7988H75.2431C74.9363 68.7884 74.644 68.6654 74.4221 68.4531C73.7902 67.8303 73.3303 67.0545 73.0871 66.2012C72.7166 65.07 72.5287 63.887 72.5305 62.6967C72.4849 61.426 72.7665 60.1649 73.3484 59.0343C73.5623 58.6497 73.8663 58.3228 74.2344 58.0816C74.6071 57.8554 75.0371 57.7414 75.4729 57.7533C75.8973 57.7422 76.3161 57.8525 76.6799 58.0713C77.2535 58.4696 77.6805 59.0452 77.8955 59.7096C78.2213 60.6261 78.3801 61.5936 78.3642 62.5662C78.3793 64.1281 78.0289 65.6718 77.341 67.0741L77.3411 67.0741Z"/><path id="Vector_13" d="M116.971 57.661C116.57 56.963 116.014 56.3671 115.345 55.9197C114.625 55.4537 113.792 55.1928 112.935 55.1652L112.726 55.1608C111.791 55.1534 110.877 55.4406 110.115 55.9817C109.064 56.7915 108.295 57.9113 107.917 59.1824C107.495 60.4917 107.288 61.8603 107.302 63.2357C107.277 65.036 107.622 66.8223 108.316 68.4835C108.635 69.2334 109.106 69.9095 109.698 70.4697C110.321 71.0538 111.141 71.3832 111.995 71.3931L112.193 71.3873L112.195 71.3872C113.182 71.3216 114.124 70.9546 114.895 70.3358C116.008 69.397 116.843 68.1721 117.31 66.7933C117.829 65.372 118.094 63.8705 118.093 62.3573C118.138 60.7205 117.751 59.1008 116.971 57.661ZM114.422 66.8824C114.143 67.4222 113.758 67.9005 113.291 68.289C112.936 68.5832 112.498 68.759 112.038 68.7918L111.995 68.7931C111.782 68.7841 111.581 68.6918 111.436 68.536C110.912 67.9707 110.542 67.2811 110.359 66.5325C110.05 65.4611 109.896 64.3508 109.902 63.2357C109.862 61.8386 110.147 60.4513 110.734 59.1829C110.94 58.7587 111.244 58.3887 111.619 58.1023C111.941 57.8718 112.33 57.752 112.726 57.7608L112.828 57.7629C113.217 57.7705 113.596 57.886 113.923 58.0966C114.455 58.4855 114.851 59.0325 115.054 59.6596C115.359 60.5256 115.508 61.4391 115.494 62.3573C115.505 63.9299 115.138 65.4821 114.422 66.8824Z"/><path id="Vector_14" d="M95.4274 71.6174C95.2019 71.3889 94.9332 71.2074 94.637 71.0836C94.3408 70.9598 94.0229 70.896 93.7019 70.896C93.3808 70.896 93.0629 70.9597 92.7667 71.0836C92.4705 71.2074 92.2018 71.3888 91.9763 71.6173C91.3506 72.2553 90.9005 73.0442 90.6696 73.9075C90.3793 74.8931 90.2359 75.9162 90.2439 76.9436C90.2294 77.5313 90.309 78.1175 90.4797 78.68C90.6025 79.0672 90.806 79.424 91.0769 79.7268C91.4527 80.1298 91.945 80.4054 92.4851 80.5151C92.8858 80.5933 93.2939 80.6275 93.7021 80.6171C94.0609 80.624 94.4197 80.5987 94.7741 80.5414C95.1079 80.4846 95.4294 80.3704 95.7243 80.2039C96.2421 79.8985 96.6405 79.426 96.8541 78.8641C97.0768 78.2491 97.1806 77.5974 97.1601 76.9436C97.1838 75.6073 96.9288 74.2807 96.4113 73.0485C96.1803 72.5116 95.846 72.0253 95.4274 71.6174ZM94.4572 77.8519L94.4148 77.9528L94.4126 77.9563C94.3619 77.9755 94.3088 77.9875 94.2548 77.9919C94.0713 78.0124 93.8867 78.0208 93.7021 78.0171C93.4967 78.0228 93.2911 78.012 93.0874 77.9846L92.9939 77.9623L92.9904 77.9609C92.863 77.6379 92.8128 77.2895 92.8437 76.9436C92.8222 75.9786 92.9977 75.0194 93.3593 74.1245C93.4433 73.9239 93.5594 73.7383 93.7031 73.575C93.7432 73.6158 93.7798 73.66 93.8125 73.707C94.0562 74.0929 94.2314 74.518 94.3303 74.9636C94.487 75.6118 94.5643 76.2767 94.5603 76.9436C94.5722 77.2498 94.5375 77.5561 94.4572 77.8519L94.4572 77.8519Z"/><path id="Vector_15" d="M19.7825 92.1752H21.0823V92.1732C21.0828 92.0022 21.0495 91.8327 20.9844 91.6746C20.9192 91.5165 20.8236 91.3727 20.7028 91.2516C20.5821 91.1306 20.4386 91.0345 20.2806 90.9689C20.1227 90.9034 19.9534 90.8696 19.7824 90.8696C19.6113 90.8696 19.442 90.9034 19.2841 90.9689C19.1261 91.0345 18.9826 91.1306 18.8619 91.2516C18.7411 91.3727 18.6455 91.5165 18.5803 91.6746C18.5152 91.8327 18.482 92.0022 18.4824 92.1732V92.1752C18.482 92.3462 18.5152 92.5156 18.5803 92.6737C18.6455 92.8319 18.7411 92.9756 18.8619 93.0967C18.9826 93.2178 19.1261 93.3138 19.2841 93.3794C19.442 93.445 19.6113 93.4787 19.7824 93.4787C19.9534 93.4787 20.1227 93.445 20.2806 93.3794C20.4386 93.3138 20.5821 93.2178 20.7028 93.0967C20.8236 92.9756 20.9192 92.8319 20.9844 92.6737C21.0495 92.5156 21.0828 92.3462 21.0823 92.1752V92.1732C21.0828 92.0022 21.0495 91.8327 20.9844 91.6746C20.9192 91.5165 20.8236 91.3727 20.7028 91.2516C20.5821 91.1306 20.4386 91.0345 20.2806 90.9689C20.1227 90.9034 19.9534 90.8696 19.7824 90.8696C19.6113 90.8696 19.442 90.9034 19.2841 90.9689C19.1261 91.0345 18.9826 91.1306 18.8619 91.2516C18.7411 91.3727 18.6455 91.5165 18.5803 91.6746C18.5152 91.8327 18.482 92.0022 18.4824 92.1732V92.1752C18.482 92.3462 18.5152 92.5156 18.5803 92.6737C18.6455 92.8319 18.7411 92.9756 18.8619 93.0967C18.9826 93.2178 19.1261 93.3138 19.2841 93.3794C19.442 93.445 19.6113 93.4787 19.7824 93.4787C19.9534 93.4787 20.1227 93.445 20.2806 93.3794C20.4386 93.3138 20.5821 93.2178 20.7028 93.0967C20.8236 92.9756 20.9192 92.8319 20.9844 92.6737C21.0495 92.5156 21.0828 92.3462 21.0823 92.1752H19.7825Z"/><path id="Vector_16" d="M47.0207 106.982C46.7057 106.148 46.3409 105.334 45.9284 104.544C44.9519 102.781 43.6239 101.236 42.0265 100.007C41.0883 99.2581 40.0545 98.6379 38.9523 98.1626C37.7976 97.6607 36.554 97.3954 35.2951 97.3823C34.3963 97.3814 33.5037 97.5319 32.6549 97.8275C32.484 97.8872 32.2814 97.9672 32.0778 98.0493C32.0368 98.0177 31.9984 97.9903 31.9574 97.958L31.954 97.9553C30.5895 96.8994 29.3287 95.7159 28.1886 94.4209L28.1859 94.4177C27.9301 94.1195 27.7037 93.8255 27.5187 93.5641C27.6154 93.5154 27.7187 93.4657 27.8273 93.416C28.3207 93.1917 28.8262 92.995 29.3414 92.8267L29.3483 92.8244C31.1324 92.2597 32.9557 91.8271 34.8034 91.5302C35.6217 91.3919 36.3241 91.2936 36.8139 91.2303C36.8349 91.2273 37.0404 91.2051 37.2856 91.1803C37.6616 91.142 38.1799 91.0906 38.6159 91.0475C38.8341 91.0259 39.0317 91.0064 39.1816 90.9915C39.3359 90.9761 39.423 90.9675 39.4765 90.9615C39.8171 90.9197 40.1274 90.7449 40.3396 90.4752C40.5519 90.2056 40.6489 89.8629 40.6095 89.522C40.5701 89.1811 40.3975 88.8696 40.1294 88.6554C39.8613 88.4413 39.5193 88.3418 39.1781 88.3788C39.1774 88.3789 38.9918 88.3977 38.7604 88.4206C38.4042 88.4558 37.8905 88.5065 37.4416 88.5514C37.217 88.5739 37.0087 88.595 36.8429 88.6122C36.6732 88.6299 36.5629 88.6413 36.4794 88.652C35.965 88.7185 35.2299 88.8213 34.3712 88.9664C32.3905 89.2853 30.4362 89.7506 28.5243 90.3585C27.9174 90.5571 27.322 90.7893 26.7409 91.0539C26.2649 91.2654 25.809 91.5194 25.3786 91.8127L25.3778 91.8116L25.3656 91.8206L25.36 91.8242L25.3603 91.8247C25.1976 91.9374 25.0432 92.0616 24.8983 92.1964C24.7106 92.3726 24.5792 92.6004 24.521 92.8512C24.4628 93.102 24.4802 93.3644 24.5712 93.6053C24.6453 93.7991 24.7323 93.9878 24.8314 94.17C25.2232 94.8596 25.6839 95.5075 26.2067 96.1039C27.4611 97.5344 28.8503 98.841 30.3549 100.006C30.819 100.369 31.266 100.695 31.6615 100.966C32.0595 101.238 32.3976 101.452 32.6813 101.608L32.6747 101.605C33.0043 101.788 33.2637 102.075 33.4121 102.421C33.5606 102.768 33.5897 103.154 33.495 103.519C33.4002 103.883 33.1869 104.206 32.8886 104.437C32.5902 104.667 32.2238 104.792 31.8468 104.792C31.5594 104.792 31.2767 104.718 31.0258 104.578C30.428 104.237 29.8497 103.864 29.2939 103.458C28.6608 103.004 27.9775 102.474 27.28 101.889C25.8246 100.686 24.4849 99.3503 23.2782 97.8982C22.5157 96.9955 21.8907 95.9851 21.4237 94.8996C21.1687 94.2882 21.0319 93.6339 21.0207 92.9715C21.0208 92.7717 21.0361 92.5723 21.0666 92.3748L21.067 92.3723C21.1423 91.9019 21.2987 91.4481 21.5292 91.0313C21.7485 90.6374 22.0188 90.2741 22.3332 89.951C22.9611 89.3232 23.6819 88.7959 24.4704 88.3876C26.1529 87.5367 27.9306 86.8887 29.7661 86.4573C31.5491 86.0257 33.3555 85.697 35.1762 85.4728C35.9658 85.3707 36.643 85.2974 37.1264 85.2493C37.3684 85.2253 37.5615 85.2074 37.697 85.1953L37.8569 85.1811L37.9062 85.1768L37.9765 85.1693C38.3149 85.1258 38.6225 84.9507 38.8326 84.682C39.0428 84.4132 39.1385 84.0725 39.0992 83.7336C39.0599 83.3948 38.8886 83.085 38.6224 82.8716C38.3563 82.6581 38.0168 82.5582 37.6775 82.5933L37.677 82.5869C37.6728 82.5875 37.5652 82.5966 37.4162 82.6101C34.6236 82.8532 31.8521 83.297 29.1232 83.9381L29.1191 83.9391C27.0786 84.422 25.1032 85.1474 23.2351 86.0999L23.2282 86.1034C22.2062 86.6383 21.2728 87.3276 20.4609 88.1471L20.4575 88.1504C19.9853 88.638 19.5795 89.1857 19.2505 89.7794C18.8742 90.4617 18.6196 91.2044 18.498 91.9741C18.4464 92.3046 18.4206 92.6387 18.4209 92.9733V92.9775C18.4326 93.9653 18.6311 94.942 19.0059 95.8561L19.0103 95.8671C19.5723 97.1916 20.3278 98.4253 21.2522 99.5279L21.2564 99.5332C22.5678 101.115 24.0246 102.57 25.6077 103.88C25.9883 104.199 26.364 104.503 26.7347 104.79C26.814 106.041 27.1867 107.256 27.8227 108.337C28.0654 108.77 28.3318 109.189 28.6205 109.593C29.4737 110.856 30.6049 111.906 31.9274 112.664C32.9608 113.233 34.1211 113.531 35.3007 113.532C35.7403 113.527 36.1787 113.484 36.6105 113.401C37.005 114.117 37.5884 114.712 38.2972 115.12C39.0061 115.527 39.8132 115.733 40.6308 115.714C41.8152 115.695 42.9708 115.346 43.9672 114.705C45.0089 114.096 45.914 113.279 46.6259 112.305C47.2045 111.472 47.5133 110.481 47.5106 109.466C47.4921 108.616 47.3263 107.775 47.0207 106.982ZM42.5832 112.504C42.0007 112.883 41.3252 113.094 40.6308 113.114C40.2265 113.125 39.8282 113.016 39.4865 112.799C39.3653 112.715 39.2543 112.617 39.1557 112.507C39.3605 112.397 39.5387 112.294 39.6903 112.199L40.0673 112.308C40.3987 112.403 40.7543 112.363 41.0561 112.196C41.3578 112.029 41.5809 111.749 41.6763 111.418C41.7716 111.086 41.7315 110.731 41.5646 110.429C41.3978 110.127 41.1179 109.904 40.7866 109.809L39.8225 109.532C39.6215 109.474 39.4095 109.465 39.2045 109.506C38.9995 109.548 38.8077 109.639 38.6452 109.77V109.77C38.3138 110.015 37.9576 110.224 37.5825 110.394C36.8693 110.735 36.0911 110.918 35.3007 110.932C34.5547 110.932 33.8209 110.742 33.1687 110.379C32.1941 109.81 31.3627 109.025 30.7385 108.085C30.5054 107.76 30.2906 107.422 30.0949 107.073C30.0783 107.043 30.0686 107.017 30.0527 106.988C30.9719 107.413 32.012 107.5 32.989 107.233C33.966 106.965 34.8171 106.361 35.3919 105.527C35.9666 104.693 36.228 103.683 36.1299 102.675C36.0317 101.666 35.5803 100.725 34.8554 100.018C35.0019 100.006 35.1486 99.9823 35.2951 99.9823C36.2071 99.9956 37.1073 100.191 37.9423 100.558C38.133 100.638 38.3183 100.741 38.5058 100.835C38.3362 100.958 38.1991 101.12 38.1067 101.307C38.0143 101.495 37.9693 101.702 37.9758 101.911C37.9833 102.082 38.0242 102.249 38.0964 102.404C38.1686 102.558 38.2705 102.697 38.3964 102.813C38.5223 102.928 38.6697 103.017 38.8301 103.076C38.9906 103.134 39.161 103.16 39.3315 103.153L39.3313 103.153C39.4856 103.146 39.6328 103.143 39.7729 103.143C40.5718 103.088 41.3707 103.25 42.0852 103.611C42.3147 103.865 42.5264 104.115 42.7166 104.36C42.6736 104.358 42.6321 104.352 42.5886 104.352C42.4068 104.352 42.2252 104.362 42.0444 104.381C41.8747 104.399 41.7102 104.451 41.5603 104.533C41.4104 104.614 41.2781 104.725 41.1709 104.858C40.9545 105.126 40.8535 105.469 40.8902 105.812C40.9269 106.155 41.0983 106.469 41.3667 106.686C41.6351 106.902 41.9785 107.003 42.3213 106.967C42.4101 106.957 42.4993 106.952 42.5886 106.952C42.9121 106.947 43.2315 107.024 43.5171 107.176C43.9396 107.42 44.2792 107.785 44.4917 108.223C44.7267 108.678 44.8529 109.181 44.8603 109.693V109.754C44.8601 109.789 44.8767 109.818 44.8791 109.852C44.8223 110.209 44.6844 110.548 44.4761 110.843C43.9641 111.519 43.3201 112.084 42.5832 112.504Z"/><path id="Vector_17" d="M30.3565 100.007L30.3545 100.005L30.3535 100.004L30.3565 100.007Z"/><path id="Vector_18" d="M24.8331 94.1719L24.8321 94.1699L24.8311 94.1689L24.8331 94.1719Z"/><path id="Vector_19" d="M28.5205 90.3589L28.5245 90.3579L28.5275 90.3569L28.5205 90.3589Z"/><path id="Vector_20" d="M26.2091 96.106L26.2071 96.104L26.2061 96.103L26.2091 96.106Z"/><path id="Vector_21" d="M165.304 89.3845C165.217 89.0509 165.001 88.7656 164.704 88.5912C164.406 88.4169 164.052 88.3678 163.718 88.4548H163.718C162.746 88.7091 161.759 88.899 160.762 89.0231C160.712 88.4753 160.643 87.7228 160.567 86.9044L163.591 86.3544C163.929 86.2907 164.227 86.0962 164.421 85.8133C164.616 85.5304 164.69 85.1822 164.629 84.8445C164.567 84.5068 164.375 84.2071 164.094 84.0108C163.812 83.8144 163.464 83.7374 163.126 83.7964L160.321 84.3065C160.29 83.9879 160.26 83.6815 160.233 83.4115C160.197 83.0412 160.164 82.7277 160.139 82.4946C160.126 82.3776 160.115 82.2816 160.104 82.202L160.089 82.0932C161.197 81.9615 162.295 81.7534 163.375 81.4704C163.708 81.383 163.992 81.1669 164.166 80.8697C164.34 80.5724 164.389 80.2182 164.302 79.885C164.215 79.5517 164 79.2665 163.703 79.0921C163.406 78.9177 163.052 78.8683 162.718 78.9548C161.062 79.4032 159.355 79.6364 157.64 79.6485C156.256 79.6438 154.877 79.476 153.532 79.1485C154.875 78.7747 156.184 78.2911 157.447 77.7028C157.76 77.5569 158.001 77.2928 158.119 76.9687C158.236 76.6447 158.221 76.2872 158.075 75.9748C157.929 75.6625 157.665 75.4209 157.341 75.3033C157.017 75.1856 156.659 75.2015 156.347 75.3475L156.346 75.3474C155.594 75.695 154.824 76.0021 154.039 76.2676L153.413 74.6241L155.664 73.7034C155.983 73.5728 156.237 73.3209 156.37 73.0029C156.503 72.6849 156.505 72.327 156.374 72.0079C156.244 71.6888 155.992 71.4346 155.674 71.3013C155.356 71.168 154.998 71.1664 154.679 71.297L152.487 72.1937L151.868 70.5696C152.762 70.2638 153.64 69.9119 154.497 69.5154C154.653 69.444 154.794 69.3425 154.91 69.2166C155.027 69.0907 155.117 68.9429 155.177 68.7818C155.236 68.6207 155.263 68.4495 155.255 68.2781C155.248 68.1066 155.207 67.9383 155.134 67.7828C155.062 67.6273 154.959 67.4877 154.832 67.3721C154.705 67.2566 154.557 67.1672 154.395 67.1093C154.234 67.0514 154.062 67.0261 153.891 67.0348C153.719 67.0434 153.551 67.086 153.396 67.1599C149.54 68.9072 145.334 69.7455 141.103 69.6102C140.244 69.6104 139.397 69.5869 138.554 69.5631C138.621 68.8029 138.655 68.1315 138.669 67.5603C144.492 66.3679 150.134 64.4195 155.453 61.7648C157.918 60.5449 160.179 58.9489 162.153 57.0339C162.978 56.2067 163.67 55.2575 164.205 54.2198C164.712 53.2337 164.981 52.1432 164.992 51.0347C164.984 49.9241 164.707 48.8318 164.185 47.8513C163.463 46.4383 162.296 45.3017 160.865 44.6164C159.389 43.9418 157.779 43.6115 156.157 43.6502C153.107 43.7512 150.101 44.4069 147.286 45.5854C143.976 46.9073 140.826 48.5982 137.896 50.6261C137.755 50.7226 137.634 50.8459 137.541 50.989C137.448 51.132 137.384 51.292 137.352 51.4598C137.289 51.7988 137.363 52.1489 137.558 52.4334C137.753 52.7178 138.053 52.9131 138.392 52.9764C138.731 53.0397 139.081 52.9658 139.365 52.7709H139.365C142.132 50.8552 145.107 49.2573 148.232 48.0074C150.746 46.9486 153.431 46.3533 156.157 46.2502C157.385 46.2128 158.605 46.4533 159.726 46.9537C160.655 47.3925 161.412 48.1286 161.876 49.0455C162.207 49.6567 162.384 50.3395 162.392 51.0347C162.381 51.7417 162.205 52.4362 161.877 53.0626C161.022 54.572 159.839 55.8705 158.416 56.8625C155.385 59.0163 152.07 60.739 148.566 61.9813C145.272 63.2094 141.894 64.198 138.458 64.9392C138.322 64.695 138.109 64.5022 137.853 64.3904C137.597 64.2785 137.311 64.2537 137.039 64.3198C136.767 64.3859 136.525 64.5393 136.348 64.7564C136.172 64.9735 136.072 65.2424 136.063 65.5219C135.863 65.631 135.695 65.7921 135.578 65.9882C135.462 66.1844 135.4 66.4084 135.4 66.6366C135.4 66.8648 135.461 67.0889 135.577 67.2852C135.694 67.4816 135.861 67.643 136.061 67.7524C136.044 68.2605 136.01 68.844 135.948 69.502C135.717 69.4974 135.482 69.4875 135.251 69.485C135.081 69.4828 134.911 69.5144 134.752 69.5779C134.593 69.6414 134.449 69.7355 134.326 69.855C134.204 69.9745 134.107 70.1169 134.039 70.2741C133.972 70.4313 133.937 70.6003 133.935 70.7712C133.933 70.9422 133.965 71.1118 134.029 71.2704C134.093 71.429 134.187 71.5734 134.307 71.6954C134.427 71.8174 134.569 71.9146 134.727 71.9815C134.884 72.0483 135.053 72.0834 135.224 72.0848L135.224 72.0848C137.067 72.104 139.026 72.2098 141.103 72.2103C143.885 72.2514 146.662 71.9521 149.372 71.3191L151.527 76.9756C149.484 77.4099 147.4 77.6193 145.311 77.6001C142.334 77.6023 139.462 77.2803 136.643 77.2778C133.59 77.1348 130.558 77.8417 127.883 79.3199C127.736 79.407 127.608 79.5223 127.505 79.659C127.403 79.7957 127.329 79.9512 127.287 80.1167C127.244 80.2821 127.235 80.4542 127.26 80.6232C127.284 80.7922 127.341 80.9547 127.429 81.1015C127.516 81.2483 127.631 81.3765 127.768 81.4788C127.904 81.5811 128.06 81.6554 128.225 81.6976C128.391 81.7397 128.563 81.7489 128.732 81.7245C128.901 81.7002 129.063 81.6428 129.21 81.5556C130.381 80.8703 131.666 80.4014 133.004 80.1711C131.614 83.0786 129.745 85.7317 127.475 88.0195C122.774 92.5582 117.278 96.193 111.262 98.7424C103.825 102.018 95.7923 103.727 87.6656 103.764C72.6155 103.762 60.377 98.8815 51.9014 91.3262C47.7923 87.7666 44.4896 83.3716 42.2136 78.4344C39.9376 73.4972 38.7406 68.1314 38.7026 62.6951C38.7637 57.1582 40.3896 51.7515 43.3926 47.0994C43.5746 46.8071 43.6332 46.4546 43.5555 46.1191C43.4779 45.7837 43.2704 45.4928 42.9785 45.3102C42.6866 45.1276 42.3342 45.0682 41.9987 45.1451C41.6631 45.2221 41.3717 45.429 41.1885 45.7204H41.1882C39.234 48.8147 37.7977 52.2071 36.936 55.7639C33.4735 52.312 29.5309 49.3781 25.23 47.0528C20.4644 44.4882 15.637 42.8817 11.5349 42.8712C9.91251 42.8324 8.3025 43.1626 6.8264 43.837C5.39512 44.5217 4.22851 45.6578 3.50609 47.0705L3.5056 47.0714L3.5059 47.0707C2.98369 48.0504 2.70689 49.1421 2.69922 50.2522C2.71571 51.4977 3.05171 52.7181 3.67505 53.7965C4.96898 55.8806 6.72347 57.6403 8.80371 58.9405C12.6717 61.415 16.8586 63.3514 21.249 64.6964C25.2931 66.0079 29.4412 66.9737 33.6487 67.5835C31.8529 73.0156 30.8496 78.6783 30.6697 84.3967C30.6639 84.5676 30.6919 84.738 30.752 84.8981C30.8122 85.0581 30.9033 85.2048 31.0202 85.3296C31.1371 85.4543 31.2775 85.5549 31.4333 85.6253C31.5891 85.6958 31.7572 85.7349 31.9281 85.7403C32.0991 85.7457 32.2694 85.7173 32.4293 85.6568C32.5892 85.5963 32.7356 85.5048 32.8602 85.3876C32.9847 85.2704 33.0849 85.1298 33.155 84.9739C33.2251 84.8179 33.2638 84.6497 33.2688 84.4787H33.2686C33.4498 78.7079 34.5094 72.9984 36.4111 67.5469C37.7081 77.5112 42.6016 86.6581 50.1709 93.2668C59.1614 101.284 72.0542 106.366 87.6655 106.364C96.1505 106.327 104.537 104.544 112.303 101.125C118.62 98.4452 124.389 94.6233 129.321 89.8509C130.82 88.3396 132.161 86.6789 133.323 84.8949C133.376 84.9031 133.429 84.9078 133.482 84.909C133.791 84.875 134.101 84.8581 134.412 84.8584C136.037 84.91 137.64 85.2493 139.147 85.8606C141.666 86.7876 144.417 88.2486 147.53 89.5015C150.891 90.9483 154.503 91.7248 158.162 91.7875C160.259 91.7825 162.347 91.5079 164.375 90.9704C164.708 90.8834 164.993 90.6674 165.168 90.37C165.342 90.0726 165.391 89.7181 165.304 89.3845ZM36.1458 61.5549C36.0264 61.6664 35.9293 61.7995 35.8596 61.9472C35.3877 62.9736 34.9561 64.0275 34.5449 65.0938C27.9143 64.1879 21.4466 62.3417 15.3369 59.6108C12.6554 58.4436 10.1648 56.8797 7.94847 54.9716C7.15814 54.2691 6.48322 53.4467 5.94847 52.5346C5.53938 51.8423 5.31572 51.0562 5.29908 50.2522C5.30666 49.5582 5.48367 48.8765 5.81471 48.2664L5.81544 48.2651C6.27937 47.3486 7.03563 46.6129 7.9646 46.1745C9.08655 45.6742 10.307 45.4338 11.5349 45.4712C14.9451 45.4607 19.4968 46.903 23.9946 49.3406C28.6193 51.8325 32.7983 55.0747 36.3613 58.935C36.2495 59.8045 36.1799 60.678 36.1458 61.5549ZM157.563 82.6613H157.563L157.563 82.6612V82.6613ZM157.545 82.5118L157.524 82.5159L157.545 82.5118ZM145.608 85.8393C143.715 84.9808 141.887 84.1018 140.048 83.4217C138.388 82.7705 136.635 82.3868 134.854 82.2851C135.276 81.4797 135.649 80.6799 135.984 79.8895C136.203 79.8845 136.42 79.878 136.643 79.8778C139.257 79.8753 142.153 80.198 145.311 80.2002C146.216 80.2008 147.144 80.172 148.092 80.1007C151.067 81.4082 154.264 82.1357 157.512 82.2441C157.514 82.3263 157.524 82.4082 157.542 82.4886L157.52 82.4921C157.522 82.5032 157.546 82.6921 157.571 82.933C157.663 83.8006 157.834 85.6042 157.981 87.1814C158.052 87.9467 158.118 88.6558 158.166 89.1874L158.162 89.1875C153.411 89.1885 149.396 87.561 145.608 85.8393V85.8393Z"/><path id="Vector_22" d="M134.538 33.1851C134.517 33.0091 134.461 32.8392 134.371 32.6861L134.371 32.686C132.544 29.4175 130.006 26.6004 126.946 24.4418C124.368 22.6336 121.305 21.6432 118.155 21.5991C115.94 21.604 113.757 22.1276 111.781 23.1281C109.782 24.1772 108.002 25.5995 106.537 27.318C104.394 29.7158 102.697 32.2802 100.547 34.1608C99.4684 35.1328 98.2267 35.9068 96.879 36.4472C95.2227 37.0733 93.4624 37.3783 91.692 37.3458C89.263 37.3592 86.8793 36.6882 84.8141 35.4096C81.8409 33.6355 79.327 30.7879 76.4696 28.1157C75.0346 26.7325 73.4575 25.5047 71.7645 24.4528C69.9326 23.3356 67.8981 22.5914 65.7777 22.2629C64.844 22.1202 63.9009 22.0481 62.9564 22.0474C59.6885 22.0434 56.4837 22.9466 53.6988 24.6563C50.6315 26.5916 48.0823 29.2458 46.2723 32.3887C46.2292 32.4761 46.1965 32.5682 46.1749 32.6632C42.364 39.231 40.371 46.6951 40.4007 54.2884C40.3783 59.9475 41.5826 65.5442 43.9308 70.6933C46.2789 75.8423 49.7151 80.4212 54.0028 84.1148C62.6988 91.7331 75.1502 96.3898 90.2105 96.3882C108.582 96.3931 123.069 89.4545 131.593 78.6777L131.593 78.6781L131.607 78.6604L131.621 78.6436L131.621 78.6431C132.503 77.5318 133.304 76.3577 134.015 75.1302C134.769 73.878 135.441 72.6743 135.843 72.0112L135.893 71.9213C138.625 66.4465 140.036 60.4071 140.01 54.2884C140.038 46.8996 138.153 39.6293 134.538 33.1851ZM133.581 70.7286C133.136 71.4689 132.5 72.6076 131.788 73.7887C131.14 74.9097 130.412 75.9824 129.609 76.9981L129.581 77.0327C121.62 87.1158 107.959 93.7832 90.2105 93.7881C75.6805 93.7865 63.8773 89.3081 55.7159 82.159C51.7061 78.7101 48.4926 74.432 46.2973 69.6202C44.102 64.8083 42.9772 59.5773 43.0006 54.2884C42.9601 46.8781 44.9738 39.6016 48.8182 33.2665C48.8348 33.2393 48.835 33.2083 48.8497 33.1805C50.4048 30.6305 52.527 28.4734 55.0513 26.8769C57.4285 25.4148 60.1655 24.6428 62.9563 24.6473C63.7701 24.6481 64.5826 24.7102 65.387 24.8333C67.7612 25.2225 70.0011 26.1966 71.9048 27.6676C74.7942 29.7773 77.2979 32.7551 80.2786 35.3038C81.7799 36.6276 83.4615 37.7315 85.2732 38.5823C87.2897 39.4935 89.4792 39.9586 91.6919 39.9457C94.4036 40.0102 97.0859 39.3715 99.4776 38.092C102.595 36.3655 104.605 33.7604 106.535 31.3692C108.468 28.9586 110.311 26.7649 112.944 25.4535C114.559 24.6333 116.344 24.2036 118.155 24.1991C120.786 24.2431 123.343 25.0788 125.492 26.5972C128.061 28.4151 130.213 30.7599 131.803 33.4752C131.826 33.5904 131.865 33.7019 131.918 33.8064C135.551 40.0183 137.448 47.0922 137.41 54.2883C137.436 59.9923 136.124 65.6228 133.581 70.7286H133.581Z"/></g></g></svg>