<svg xmlns="http://www.w3.org/2000/svg" width="200" height="200" fill="none"><path fill="#FFE632" d="m66.016 77.89-.025.088.026-.088h-.001l-.025.088.026-.088a8.706 8.706 0 0 1-2.787-1.555 6.752 6.752 0 0 1-2.506-5.423 10.4 10.4 0 0 1 .229-2.11 1.3 1.3 0 1 0-2.546-.527c-.184.867-.279 1.751-.283 2.637a9.568 9.568 0 0 0 1.133 4.637 10.118 10.118 0 0 0 3.769 3.812c.717.435 1.484.78 2.285 1.031a1.3 1.3 0 0 0 .705-2.502Z"/><path fill="#BEBEC9" d="M68.864 99.688a33.515 33.515 0 0 1-2.241-9.5 43.19 43.19 0 0 1-.181-3.964 43.97 43.97 0 0 1 1.77-12.312 1.301 1.301 0 1 0-2.497-.726 46.567 46.567 0 0 0-1.873 13.038c0 1.39.064 2.79.192 4.2a36.122 36.122 0 0 0 2.418 10.235 1.312 1.312 0 0 0 .696.713 1.29 1.29 0 0 0 .997.012 1.302 1.302 0 0 0 .72-1.695Z"/><path fill="#FFE632" d="M78.283 113.972c-1.251.547-2.6.833-3.966.842a7.669 7.669 0 0 1-4.202-1.166 5.291 5.291 0 0 1-2.277-3.072 1.306 1.306 0 0 0-.608-.788 1.305 1.305 0 0 0-1.442.099 1.286 1.286 0 0 0-.494.864c-.022.17-.01.342.035.507a7.906 7.906 0 0 0 3.363 4.566 10.267 10.267 0 0 0 5.625 1.59 12.664 12.664 0 0 0 4.994-1.054 1.293 1.293 0 0 0 .699-.713 1.298 1.298 0 0 0-1.23-1.784c-.171.003-.34.04-.497.109Z"/><path fill="#BEBEC9" d="M86.331 117.42a41.624 41.624 0 0 1-10.068-6.892 1.303 1.303 0 0 0-2.19.987 1.3 1.3 0 0 0 .409.907 44.193 44.193 0 0 0 10.709 7.334c.31.149.665.17.99.058a1.3 1.3 0 0 0 .15-2.394Z"/><path fill="#FFE632" d="M154.377 43.715a7.96 7.96 0 0 0-4.56-1.395 8.425 8.425 0 0 0-5.462 2.01 1.302 1.302 0 0 0-.153 1.833 1.3 1.3 0 0 0 1.832.153 5.822 5.822 0 0 1 3.783-1.396 5.377 5.377 0 0 1 3.066.922 1.3 1.3 0 0 0 1.494-2.127Z"/><path fill="#BEBEC9" d="M133.776 34.605a57.004 57.004 0 0 0-10.159-1.382 1.3 1.3 0 0 0-.116 2.597c3.265.148 6.51.59 9.696 1.32a1.299 1.299 0 0 0 .579-2.535ZM177.994 90.424a46.001 46.001 0 0 0-.144-9.749 1.301 1.301 0 0 0-2.312-.642c-.212.27-.309.614-.269.955a43.456 43.456 0 0 1 .136 9.2 1.3 1.3 0 1 0 2.589.237ZM74.602 54.812a10.052 10.052 0 0 1-5.172-3.754 9.854 9.854 0 0 1-1.826-5.678 9.03 9.03 0 0 1 1.688-5.294 1.3 1.3 0 1 0-2.114-1.513 11.635 11.635 0 0 0-2.174 6.807 12.449 12.449 0 0 0 2.306 7.183 12.659 12.659 0 0 0 6.495 4.723 1.3 1.3 0 0 0 .797-2.474ZM117.276 101.312a10.042 10.042 0 0 0-2.587-4.977 7.064 7.064 0 0 0-4.039-1.92 17.06 17.06 0 0 1-.06-1.408c-.003-.488.026-.975.085-1.458a1.301 1.301 0 0 0-1.115-1.47 1.296 1.296 0 0 0-1.3.643c-.085.149-.14.313-.162.483-.075.598-.111 1.2-.108 1.802 0 .57.027 1.072.054 1.432a8.246 8.246 0 0 0-3.547 1.468 7.2 7.2 0 0 0-1.84 1.947 7.131 7.131 0 0 0-1.042 2.887 1.3 1.3 0 0 0 2.576.353 4.516 4.516 0 0 1 .659-1.844 4.879 4.879 0 0 1 1.889-1.682 5.555 5.555 0 0 1 1.987-.61c.241-.021.472-.032.693-.031a4.696 4.696 0 0 1 3.459 1.273 7.517 7.517 0 0 1 1.869 3.716 1.302 1.302 0 0 0 1.567.963 1.297 1.297 0 0 0 .962-1.567Z"/><path fill="#FFE632" d="M60.954 68.803a11.975 11.975 0 0 1 2.293-4.958 16.686 16.686 0 0 1 6.555-4.887 23.651 23.651 0 0 1 7.903-1.91 1.301 1.301 0 1 0-.16-2.595 25.554 25.554 0 0 0-11.59 3.59 17.859 17.859 0 0 0-4.764 4.21 14.586 14.586 0 0 0-2.783 6.023 1.3 1.3 0 0 0 2.546.527Z"/><path fill="#BEBEC9" d="M116.531 121.909a116.578 116.578 0 0 0 21.492-2.126c5.858-1.061 10.565-2.09 14.518-2.084a17.279 17.279 0 0 1 4.225.476 1.298 1.298 0 0 0 1.571-.947 1.3 1.3 0 0 0-.94-1.575 19.857 19.857 0 0 0-4.856-.554c-4.392.006-9.176 1.082-14.98 2.126a114.018 114.018 0 0 1-21.03 2.084c-1.295 0-2.63-.026-4.002-.078-7.355-.285-11.945-.719-15.329-1.084a75.73 75.73 0 0 0-8.17-.669 38.718 38.718 0 0 0-4.715.313 56.116 56.116 0 0 0-16.262 4.494c-2.07.887-3.924 1.747-5.728 2.455a27.24 27.24 0 0 1-4.953 1.477 10.856 10.856 0 0 0-.288-.823 5.68 5.68 0 0 0-2.669-2.964 8.106 8.106 0 0 0-3.806-.859 13.44 13.44 0 0 0-6.506 1.802c-.372.251-.799.41-1.245.461a.298.298 0 0 1-.198-.053 1.702 1.702 0 0 1-.474-.791 10.4 10.4 0 0 1-.456-1.935 8.27 8.27 0 0 0 2.215-4.399c.224-1.163.34-2.345.347-3.529a9.922 9.922 0 0 0-1.67-5.968 6.403 6.403 0 0 0-2.47-2.004 8.392 8.392 0 0 0-3.544-.712c-.133 0-.267.003-.403.008a8.681 8.681 0 0 0-3.515.793 6.38 6.38 0 0 0-2.654 2.399 6.498 6.498 0 0 0-1.622-1.316 6.889 6.889 0 0 0-3.353-.913 5.56 5.56 0 0 0-.729.047 9.926 9.926 0 0 0-7.087 3.958 10.691 10.691 0 0 0-1.787 4.454 10.76 10.76 0 0 0-2.915-.4 11.543 11.543 0 0 0-3.146.443 13.19 13.19 0 0 0-6.477 4.147 9.651 9.651 0 0 0-2.468 6.028 5.509 5.509 0 0 0 .993 3.25 5.503 5.503 0 0 0 2.146 1.794 6.15 6.15 0 0 0 2.62.56c.115 0 .23-.02.346-.026a15.684 15.684 0 0 0-.54 3.847 9.18 9.18 0 0 0 .946 4.238 7.786 7.786 0 0 0 2.762 3.002l-.003.008a28.392 28.392 0 0 0-.353 4.701c.005 3.806.633 9.343 3.825 14.164a18.785 18.785 0 0 0 6.922 6.245 27.562 27.562 0 0 0 11.826 2.925c1.721.078 3.425.113 5.098.113a124.468 124.468 0 0 0 21.5-1.876c-.033.23-.072.465-.104.694-.9 6.695-1.35 13.442-1.348 20.197 0 3.302.114 5.293.115 5.314a1.301 1.301 0 0 0 2.596-.148c0-.001-.007-.113-.017-.343-.031-.69-.094-2.391-.094-4.823-.001-6.636.44-13.265 1.324-19.843 1.094-7.962 3.065-16.627 6.502-24.038a1.302 1.302 0 0 0-1.125-1.851 1.285 1.285 0 0 0-.503.08 1.285 1.285 0 0 0-.731.678 84.331 84.331 0 0 0-6.196 21.36 120.796 120.796 0 0 1-21.919 1.999c-1.636 0-3.3-.035-4.98-.111a24.981 24.981 0 0 1-10.722-2.623 16.442 16.442 0 0 1-7.677-8.633 25.732 25.732 0 0 1-1.692-9.48 29.728 29.728 0 0 1 .215-3.58c1.28.385 2.61.578 3.947.572 1.53.016 3.05-.234 4.493-.74a9.102 9.102 0 0 1 3.332-.648c1.011.032 2.019.131 3.016.299 1.376.207 2.765.315 4.156.323.56 0 1.156-.018 1.794-.061a11.593 11.593 0 0 0 4.197-1.059c1.736-.814 2.977-1.842 4.304-2.576a9.619 9.619 0 0 1 5.044-1.283c.11 0 .222.002.336.004h.002c.15.004.297.006.443.005a12.711 12.711 0 0 0 7.459-2.074 7.481 7.481 0 0 0 2.258-2.535 6.986 6.986 0 0 0 .814-3.32v-.006a29.737 29.737 0 0 0 5.496-1.626c5.72-2.253 11.107-5.542 21.353-6.788 1.46-.188 2.93-.286 4.402-.294 2.64.077 5.275.295 7.892.654 3.419.369 8.095.81 15.506 1.097 1.408.055 2.775.081 4.103.08Zm-85.402-8.796a8.698 8.698 0 0 1 1.276-4.346 3.72 3.72 0 0 1 1.417-1.183 6.114 6.114 0 0 1 2.473-.535c.108-.004.212-.005.313-.005a5.771 5.771 0 0 1 2.453.471 3.964 3.964 0 0 1 1.979 2.058 8.665 8.665 0 0 1 .652 3.554 16.704 16.704 0 0 1-.303 3.05 5.422 5.422 0 0 1-1.944 3.443 5.142 5.142 0 0 1-3.156 1.03 5.59 5.59 0 0 1-2.327-.498 4.454 4.454 0 0 1-2.251-2.082 7.566 7.566 0 0 1-.654-3.413c0-.488.025-1.004.072-1.544Zm-11.77-2.18a7.307 7.307 0 0 1 5.31-2.894c.13-.017.261-.025.393-.025.726.014 1.437.21 2.067.573.62.333 1.126.847 1.449 1.474.079.163.191.307.33.424a17.414 17.414 0 0 0-.369 2.402 20.512 20.512 0 0 0-.082 1.77c.003.552.038 1.103.107 1.651a1.233 1.233 0 0 0-.105.218v-.001a8.178 8.178 0 0 1-.767 1.766 7.828 7.828 0 0 1-2.698 2.847 5.358 5.358 0 0 1-2.77.832 4.017 4.017 0 0 1-2.778-1.078 5.045 5.045 0 0 1-1.489-3.136 12.627 12.627 0 0 1-.098-1.56 9.033 9.033 0 0 1 1.5-5.263Zm35.313 19.954a5.442 5.442 0 0 1-2.61 2.302 11.472 11.472 0 0 1-4.814.932c-.127 0-.255-.001-.384-.004h.001a17.935 17.935 0 0 0-.398-.005 12.562 12.562 0 0 0-4.589.798 26.024 26.024 0 0 0-4.527 2.579 9.398 9.398 0 0 1-4.604 1.547c-.58.039-1.116.056-1.619.056a26.747 26.747 0 0 1-3.803-.299 24.398 24.398 0 0 0-3.369-.324 11.731 11.731 0 0 0-4.245.814 10.655 10.655 0 0 1-3.58.574 9.212 9.212 0 0 1-5.194-1.408 5.132 5.132 0 0 1-1.66-1.882 6.58 6.58 0 0 1-.66-3.051c.044-1.543.33-3.07.848-4.524.325-.137.642-.29.951-.461a10.62 10.62 0 0 0 3.478-3.111 1.297 1.297 0 0 0-.302-1.819 1.303 1.303 0 0 0-1.817.312 8.043 8.043 0 0 1-2.622 2.346 6.205 6.205 0 0 1-2.942.836 3.562 3.562 0 0 1-1.516-.313 2.908 2.908 0 0 1-1.138-.957 2.91 2.91 0 0 1-.505-1.734 7.122 7.122 0 0 1 1.854-4.351 10.596 10.596 0 0 1 5.198-3.322 8.94 8.94 0 0 1 2.44-.345 8.16 8.16 0 0 1 2.378.348c.132.04.247.08.348.118.01.514.046 1.028.107 1.539a7.64 7.64 0 0 0 2.296 4.716 6.625 6.625 0 0 0 4.55 1.776 7.956 7.956 0 0 0 4.117-1.208 10.305 10.305 0 0 0 3.436-3.49 7.172 7.172 0 0 0 3.096 2.641 8.184 8.184 0 0 0 3.417.737 8.006 8.006 0 0 0 3.1-.616c.142.7.377 1.378.699 2.016.257.5.628.932 1.082 1.262a2.917 2.917 0 0 0 1.688.522 5.203 5.203 0 0 0 2.54-.807 10.886 10.886 0 0 1 5.21-1.456 5.562 5.562 0 0 1 2.59.556 3.064 3.064 0 0 1 1.47 1.628c.323.773.497 1.6.511 2.437.008.73-.166 1.45-.507 2.095Z"/><path fill="#BEBEC9" d="M188.082 126.494a33.915 33.915 0 0 0-18.178-10.439 1.3 1.3 0 1 0-.474 2.556 31.354 31.354 0 0 1 16.739 9.644 28.292 28.292 0 0 1 7.832 19.137 29.763 29.763 0 0 1-3.972 14.48 31.689 31.689 0 0 1-15.262 13.705 49.198 49.198 0 0 1-19.831 3.904 56.903 56.903 0 0 1-11.82-1.224 36.03 36.03 0 0 1-9.01-3.074 11.44 11.44 0 0 0-3.957-1.234c-1.88-.237-3.554-.105-5.216-.259a11.86 11.86 0 0 1-5.421-1.799 16.226 16.226 0 0 1-3.698-3.276 7.425 7.425 0 0 0-1.868-1.474 7.173 7.173 0 0 0-2.837-.769 27.68 27.68 0 0 1-6.102-1.023 7.575 7.575 0 0 1-2.29-1.142 3.322 3.322 0 0 1-1.178-1.605 4.147 4.147 0 0 1-.193-1.29 5.343 5.343 0 0 1 .906-2.973 3.125 3.125 0 0 1 1.351-1.098 4.67 4.67 0 0 1 1.823-.316c1.347.061 2.683.271 3.984.626 1.346.379 2.728.612 4.124.694a4.603 4.603 0 0 0 1.676-.281 3.188 3.188 0 0 0 1.461-1.129 2.26 2.26 0 0 0 .422-1.317 3.11 3.11 0 0 0-.381-1.41 12.476 12.476 0 0 0-1.483-2.075c-1.79-2.165-4.36-5.052-5.477-9.299a10.219 10.219 0 0 1-.375-2.584 4.412 4.412 0 0 1 .629-2.467 3.46 3.46 0 0 1 1.637-1.306 5.318 5.318 0 0 1 2.033-.446 4.299 4.299 0 0 1 2.607.92 11.256 11.256 0 0 1 2.822 3.349c.432.812.776 1.667 1.027 2.552.511 1.609.989 3.502 1.595 5.087a8.91 8.91 0 0 0 1.106 2.144c.24.327.533.611.868.839.383.257.829.402 1.29.419l.027.001h.032a1.82 1.82 0 0 0 1.177-.433c.243-.211.436-.473.567-.767.193-.457.318-.94.373-1.433.121-.873.165-1.889.252-2.984.073-1.664.38-3.309.913-4.887.254-.69.626-1.33 1.1-1.891a4.525 4.525 0 0 1 1.74-1.235 4.126 4.126 0 0 1 1.55-.318 3.927 3.927 0 0 1 3.04 1.542 6.608 6.608 0 0 1 1.377 4.206c0 .239-.01.482-.032.73a17.882 17.882 0 0 1-1.214 4.881c-.26.691-.519 1.331-.727 1.957a6.191 6.191 0 0 0-.376 1.927c-.003.379.061.755.189 1.111.141.379.356.725.632 1.018.278.307.607.562.973.755a2.63 2.63 0 0 0 1.205.296 3.052 3.052 0 0 0 1.589-.484 7.952 7.952 0 0 0 1.78-1.63c.56-.653 1.126-1.404 1.736-2.206a13.38 13.38 0 0 1 2.499-2.626 4.173 4.173 0 0 1 2.509-.958 3.95 3.95 0 0 1 1.69.409 3.351 3.351 0 0 1 1.408 1.421c.447.82.677 1.74.668 2.674a7.345 7.345 0 0 1-1.488 4.28 15.272 15.272 0 0 1-5.702 4.536 1.303 1.303 0 0 0-.574 1.747 1.3 1.3 0 0 0 1.747.573 17.836 17.836 0 0 0 6.645-5.345 9.952 9.952 0 0 0 1.972-5.791 8.07 8.07 0 0 0-1.002-3.948 5.91 5.91 0 0 0-2.574-2.503 6.565 6.565 0 0 0-2.79-.654 6.767 6.767 0 0 0-4.064 1.475 15.834 15.834 0 0 0-3.014 3.137c-.651.9-1.35 1.763-2.094 2.586a3.882 3.882 0 0 1-.707.604l-.188.092-.043.01-.063-.032a1.167 1.167 0 0 1-.217-.192l-.092-.14a.605.605 0 0 1-.03-.215c.026-.38.108-.753.244-1.109a27.932 27.932 0 0 0 2.064-7.43c.028-.323.041-.641.041-.956a9.197 9.197 0 0 0-1.967-5.855 6.52 6.52 0 0 0-5.05-2.493 6.706 6.706 0 0 0-2.527.509 7.469 7.469 0 0 0-3.966 3.85 20.135 20.135 0 0 0-1.463 7.199 40.016 40.016 0 0 1-.141 1.707 10.44 10.44 0 0 1-.591-1.376c-.414-1.144-.803-2.576-1.219-3.954a17.678 17.678 0 0 0-1.48-3.766 13.767 13.767 0 0 0-3.515-4.109 6.919 6.919 0 0 0-4.144-1.423 7.907 7.907 0 0 0-3.028.644 6.072 6.072 0 0 0-2.821 2.289 7 7 0 0 0-1.05 3.886c.014 1.097.169 2.188.461 3.245a22.973 22.973 0 0 0 4.58 8.585c.819 1.022 1.563 1.869 2.056 2.522.196.249.371.513.523.791a.958.958 0 0 1 .058.136.651.651 0 0 1-.188.112 2.048 2.048 0 0 1-.733.104 17.782 17.782 0 0 1-3.531-.626 20.54 20.54 0 0 0-4.577-.694 7.23 7.23 0 0 0-2.833.521 5.743 5.743 0 0 0-2.448 1.969 7.882 7.882 0 0 0-1.399 4.497c-.004.712.105 1.42.322 2.098a5.933 5.933 0 0 0 2.05 2.847 11.99 11.99 0 0 0 4.774 2.023c1.65.339 3.32.567 5 .683a4.58 4.58 0 0 1 1.833.473c.331.182.636.409.905.674a21.612 21.612 0 0 0 4.526 3.999 14.66 14.66 0 0 0 4.529 1.865c1.833.327 3.693.473 5.555.435a10.056 10.056 0 0 1 4.655 1.074 38.567 38.567 0 0 0 9.674 3.316 59.489 59.489 0 0 0 12.367 1.282 52.947 52.947 0 0 0 18.859-3.303l-.002.62c0 2.146.056 4.985.151 7.569.048 1.293.105 2.521.171 3.569.066 1.052.137 1.912.224 2.523a1.309 1.309 0 0 0 .505.86 1.295 1.295 0 0 0 .966.248 1.306 1.306 0 0 0 1.103-1.476c-.068-.469-.141-1.302-.203-2.317-.191-3.054-.317-7.824-.317-10.976 0-.66.006-1.248.017-1.731a34.161 34.161 0 0 0 15.895-14.538 32.37 32.37 0 0 0 4.296-15.737 30.896 30.896 0 0 0-8.519-20.898Z"/><path fill="#FFE632" d="M67.838 110.576a12.738 12.738 0 0 1-.44-3.356 19.932 19.932 0 0 1 2.526-9.028 62.784 62.784 0 0 1 9.198-12.448c1.627-1.808 3.161-3.438 4.408-4.847a37.241 37.241 0 0 0 1.637-1.959 9.88 9.88 0 0 0 1.1-1.71 4.002 4.002 0 0 0 .411-1.71c.001-.508-.117-1.01-.346-1.463a4.403 4.403 0 0 0-1.765-1.77 12.076 12.076 0 0 0-3.992-1.31c-1.657-.27-3.334-.4-5.013-.388a36.818 36.818 0 0 0-10.114 1.355 1.3 1.3 0 0 0 .751 2.49 34.314 34.314 0 0 1 9.363-1.245c2.18-.054 4.355.218 6.455.805a4.886 4.886 0 0 1 1.694.864c.12.102.222.225.297.364a.633.633 0 0 1 .07.298c-.01.209-.065.414-.163.6-.35.64-.77 1.242-1.251 1.792-1.111 1.36-2.787 3.138-4.66 5.195a81.45 81.45 0 0 0-8.67 10.908c-2.583 4.09-4.529 8.567-4.536 13.207a15.353 15.353 0 0 0 .531 4.038 1.3 1.3 0 0 0 2.51-.682ZM172.455 102.994c.353.613.655 1.253.904 1.915.521 1.303.804 2.69.834 4.093a6.554 6.554 0 0 1-1.146 3.848 9.43 9.43 0 0 1-4.754 3.265 12.2 12.2 0 0 1-4.166.682c-4.607.013-10.393-2.145-16.895-5.839a194.469 194.469 0 0 1-21.369-14.73c-6.275-4.826-12.686-6.944-18.943-6.938a35.135 35.135 0 0 0-17.574 5.21c-12.403 7.173-15.993 15.25-16.69 17.112a1.299 1.299 0 0 0 1.75 1.646 1.3 1.3 0 0 0 .682-.725c.559-1.449 3.712-8.908 15.561-15.783 5.288-3.062 10.748-4.861 16.271-4.86 5.67.005 11.454 1.873 17.36 6.4a196.67 196.67 0 0 0 21.671 14.93c6.695 3.784 12.777 6.163 18.176 6.177a14.808 14.808 0 0 0 5.048-.836 11.998 11.998 0 0 0 6.001-4.219 9.15 9.15 0 0 0 1.617-5.34 14.339 14.339 0 0 0-1.055-5.151 15.295 15.295 0 0 0-1.068-2.219 1.302 1.302 0 0 0-1.789-.427 1.3 1.3 0 0 0-.426 1.789Z"/><path fill="#BEBEC9" d="M171.886 107.089a34.325 34.325 0 0 0 6.106-16.664 1.311 1.311 0 0 0-.293-.954 1.304 1.304 0 0 0-1.388-.411 1.304 1.304 0 0 0-.766.64 1.305 1.305 0 0 0-.142.488 31.724 31.724 0 0 1-5.65 15.415 1.3 1.3 0 1 0 2.133 1.486Z"/><path fill="#FFE632" d="M156.72 36.475a16.547 16.547 0 0 0-9.349-4.416 16.83 16.83 0 0 0-2.196-.137 30.18 30.18 0 0 0-13.223 3.476 35.762 35.762 0 0 0-9.409 6.96 52.877 52.877 0 0 0 1.545-12.575c0-.804-.02-1.626-.059-2.465a26.388 26.388 0 0 0-6.39-15.966A23.314 23.314 0 0 0 99.59 3.539h-.037a34.872 34.872 0 0 0-21.782 7.405 27.688 27.688 0 0 0-7.595 9.657 31.97 31.97 0 0 0-2.92 13.824c0 .914.031 1.85.096 2.805a25.72 25.72 0 0 0 3.799 11.86 37.56 37.56 0 0 0 11.497 11.32c2.014 1.333 3.94 2.422 5.564 3.304 1.621.879 2.958 1.564 3.719 2.032.653.37 1.249.835 1.767 1.378.154.172.28.367.373.579.073.173.11.359.11.547a2.99 2.99 0 0 1-.463 1.426 1.3 1.3 0 0 0 2.269 1.27 5.534 5.534 0 0 0 .794-2.696c0-.532-.105-1.058-.31-1.548a5.242 5.242 0 0 0-1.323-1.81 11.914 11.914 0 0 0-1.856-1.361c-.619-.38-1.406-.799-2.34-1.297a57.093 57.093 0 0 1-12.627-8.5 28.629 28.629 0 0 1-5.626-7.16 23.013 23.013 0 0 1-2.753-9.52c-.061-.898-.091-1.775-.09-2.63a29.369 29.369 0 0 1 2.67-12.71A25.844 25.844 0 0 1 83.955 9.95 33.593 33.593 0 0 1 99.559 6.14h.032a20.69 20.69 0 0 1 16.1 6.933 23.811 23.811 0 0 1 5.742 14.37c.038.797.056 1.578.056 2.341a50.92 50.92 0 0 1-1.755 13.093c-.957 3.647-2.074 6.558-2.73 8.853a8.725 8.725 0 0 0-.359 2.38 4.86 4.86 0 0 0 2.766 4.657 4.866 4.866 0 0 0 1.844.466 1.301 1.301 0 1 0 .228-2.59 2.279 2.279 0 0 1-1.68-.771 2.29 2.29 0 0 1-.558-1.762 6.13 6.13 0 0 1 .26-1.668c.3-1.058.739-2.344 1.229-3.841.03-.036.072-.057.099-.096a33.175 33.175 0 0 1 12.299-10.789 27.63 27.63 0 0 1 12.044-3.193c.621-.002 1.241.036 1.856.114a13.933 13.933 0 0 1 7.89 3.716 1.3 1.3 0 0 0 1.799-1.877Z"/><path fill="#BEBEC9" d="M178.08 40.11a14.754 14.754 0 0 0-8.242-6.074 17.35 17.35 0 0 0-5.085-.81 12.073 12.073 0 0 0-8.836 3.591 12.227 12.227 0 0 0-3.42 7.683 1.26 1.26 0 0 0 .123.601 1.295 1.295 0 0 0 .535.903 54.64 54.64 0 0 1 16.522 18.056 1.3 1.3 0 0 0 2.271-1.266c-.334-.6-.699-1.182-1.057-1.768a19.813 19.813 0 0 0 4.4-2.675 14.024 14.024 0 0 0 4.668-6.348c.379-1.195.566-2.443.554-3.697a15.205 15.205 0 0 0-2.433-8.197Zm-.589 11.076a11.46 11.46 0 0 1-3.831 5.14 17.135 17.135 0 0 1-4.198 2.483 57.944 57.944 0 0 0-14.324-14.572 9.647 9.647 0 0 1 2.641-5.606 9.46 9.46 0 0 1 6.974-2.805c1.468.016 2.925.25 4.323.696a12.139 12.139 0 0 1 6.825 5.005 12.62 12.62 0 0 1 2.012 6.779 9.28 9.28 0 0 1-.422 2.88Z"/><path fill="#FFE632" d="M197.112 80.128a1.297 1.297 0 0 0-1.213-.535c-.438.054-.879.081-1.32.082a8.862 8.862 0 0 1-4.747-1.339 22.543 22.543 0 0 1-5.567-5.568 33.402 33.402 0 0 0-5.73-6.285 27.317 27.317 0 0 0-8.971-4.57 36.045 36.045 0 0 0-10.107-1.227c-3.234 0-6.789.25-10.861.603-2.245.196-4.089.298-5.559.298a10.285 10.285 0 0 1-3.921-.506 1.029 1.029 0 0 1-.463-.347.866.866 0 0 1-.109-.49c.017-.409.092-.813.224-1.2 1.882-6.142 4.252-10.181 7.267-12.728.13-.11.237-.245.316-.397a1.304 1.304 0 0 0-1.048-1.891 1.3 1.3 0 0 0-.947.303c-3.55 3.006-6.111 7.55-8.074 13.951a6.746 6.746 0 0 0-.338 1.962 3.45 3.45 0 0 0 .523 1.899c.283.43.659.79 1.1 1.054.714.405 1.5.67 2.314.779 1.045.155 2.1.225 3.156.21 1.589 0 3.494-.108 5.784-.306 4.046-.352 7.537-.594 10.636-.594a33.48 33.48 0 0 1 9.386 1.125 24.697 24.697 0 0 1 8.132 4.152 20.708 20.708 0 0 1 3.504 3.598 57.816 57.816 0 0 0 5.627 6.593 14.186 14.186 0 0 0 3.72 2.514 11.34 11.34 0 0 0 3.702.952 5.656 5.656 0 0 1-.772.642 6.32 6.32 0 0 1-3.639 1.022c-2.308.005-5.506-.932-9.658-3.522a28.931 28.931 0 0 0-15.385-3.954c-4.276.042-8.53.636-12.654 1.769-.537.144-1.384.368-2.345.7a14.982 14.982 0 0 0-4.607 2.43 7.64 7.64 0 0 0-1.859 2.19 6.203 6.203 0 0 0-.771 3.022 10.486 10.486 0 0 0 2.169 5.85c3.23 4.678 8.241 8.457 12.927 11.226a60.24 60.24 0 0 0 6.545 3.344 28.18 28.18 0 0 0 4.616 1.63c.584.13 1.181.196 1.779.198.43.002.86-.038 1.282-.12a1.314 1.314 0 0 0 .829-.554 1.302 1.302 0 0 0-.834-1.998 1.283 1.283 0 0 0-.509.003c-.253.048-.51.071-.768.069a5.76 5.76 0 0 1-1.22-.137 26.008 26.008 0 0 1-4.142-1.477 57.69 57.69 0 0 1-9.64-5.359 34.358 34.358 0 0 1-8.724-8.3 7.979 7.979 0 0 1-1.71-4.375 3.651 3.651 0 0 1 .78-2.277 8.5 8.5 0 0 1 3.384-2.394 24.333 24.333 0 0 1 3.494-1.16 47.096 47.096 0 0 1 11.978-1.68 26.366 26.366 0 0 1 14.01 3.56c4.412 2.746 8.028 3.911 11.033 3.916a8.592 8.592 0 0 0 8.108-5.035 1.294 1.294 0 0 0-.113-1.321Z"/></svg>