<svg xmlns="http://www.w3.org/2000/svg" width="200" height="200" fill="none"><g clip-path="url(#a)"><path fill="#FFD93A" d="M31.879 132.83c-3.91 0-6.43-2.31-6.75-6.18-.2-2.21-.39-7.76-.6-13.63l-.12-3.28c-.03-.72.54-1.32 1.25-1.35.7-.07 1.32.53 1.35 1.25l.12 3.29c.19 5.58.4 11.34.59 13.49.21 2.53 1.61 3.8 4.16 3.8 3.89 0 12.57-.49 15.22-.93 2.48-.41 3.72-1.77 3.9-4.27.23-3.18-1.39-35.29-1.66-38.24-.23-2.56-1.6-3.8-4.17-3.8-2.98 0-8.89.46-12.8.76-1 .08-1.87.14-2.54.19-2.82.2-3.78 1.25-3.78 4.16 0 .76.09 2.16.17 3.42.05.72-.5 1.33-1.21 1.38-.72.06-1.33-.5-1.38-1.21-.11-1.65-.17-2.83-.17-3.58 0-4.31 1.97-6.45 6.19-6.76.67-.05 1.53-.11 2.52-.19 3.95-.3 9.91-.76 13-.76 3.94 0 6.4 2.25 6.75 6.17.25 2.71 1.91 35.17 1.66 38.66-.26 3.68-2.42 6.04-6.07 6.65-2.99.5-11.94.97-15.64.97l.01-.01Z"/><path fill="#FFD93A" d="M30.929 86.31c-.72 0-1.3-.58-1.3-1.3v-1.66c0-.72.58-1.3 1.3-1.3.72 0 1.3.58 1.3 1.3v1.66c0 .72-.58 1.3-1.3 1.3Z"/><path fill="#BEBEC9" d="M25.71 118.11c-.27 0-.55-.09-.78-.26-5.06-3.83-6.99-6.49-7.96-10.96 0-.04-.01-.07-.02-.11-.76-5.86.04-10.3 2.38-13.2 1.45-1.8 3.48-2.89 5.7-3.07 4.45-.36 8.02 3.18 8.71 8.62.69 5.85-4 10.41-7.55 11.79-.67.26-1.42-.07-1.68-.74-.26-.67.07-1.42.74-1.68 2.8-1.08 6.4-4.83 5.91-9.05-.51-4.04-2.88-6.59-5.91-6.34-1.51.12-2.89.88-3.89 2.12-1.29 1.59-2.65 4.83-1.83 11.18.83 3.81 2.41 5.93 6.97 9.39a1.294 1.294 0 0 1-.79 2.33v-.02Z"/><path fill="#BEBEC9" d="M31.88 98.69c-.31 0-.62-.11-.87-.34-.61-.55-2.81-1.37-4.32-.45-.61.37-1.41.18-1.79-.43-.37-.61-.18-1.41.43-1.79 2.58-1.57 5.97-.58 7.42.74.53.48.57 1.31.09 1.84-.26.28-.61.43-.96.43ZM26.3 104.64c-.32 0-.64-.12-.89-.35-.52-.49-.55-1.31-.06-1.84 2.17-2.31 5.38-2.69 7.3-1.87.66.28.97 1.05.68 1.71-.28.66-1.05.97-1.71.68-.96-.41-3.02-.2-4.39 1.25-.26.27-.6.41-.95.41l.02.01ZM51.58 174.84h-.12a1.3 1.3 0 0 1-1.18-1.41c.56-6.34 1.56-16.37 2.53-26.06.66-6.62 1.29-13.02 1.75-17.85a1.302 1.302 0 0 1 2.59.25c-.46 4.83-1.1 11.23-1.75 17.86-.96 9.69-1.96 19.71-2.52 26.04-.06.68-.63 1.18-1.29 1.18l-.01-.01ZM153.63 174.84c-.7 0-1.28-.56-1.3-1.26-.24-7.78-3.72-38.21-4.67-44.43a1.299 1.299 0 1 1 2.57-.39c.96 6.25 4.47 36.89 4.7 44.74.02.72-.54 1.32-1.26 1.34h-.04ZM132.051 66.14c-.52 0-1-.31-1.21-.82a1.3 1.3 0 0 1 .72-1.69c4.94-1.98 15.91-4.62 27.3-5.83.72-.08 1.35.44 1.43 1.16a1.3 1.3 0 0 1-1.15 1.43c-11.16 1.19-21.83 3.75-26.61 5.66-.16.06-.32.09-.48.09ZM177.391 60.2c-.06 0-.12 0-.18-.01-3.62-.5-8.11-.57-13.35-.22-.7.05-1.34-.49-1.38-1.21-.04-.72.49-1.34 1.21-1.38 5.42-.37 10.09-.28 13.88.24a1.3 1.3 0 0 1-.18 2.59v-.01ZM133.239 72.07c-.63 0-1.18-.45-1.28-1.09-.11-.71.37-1.38 1.08-1.49 3.94-.64 14.29-1.92 25.27-2.25.74 0 1.32.54 1.34 1.26.02.72-.54 1.32-1.26 1.34-10.84.32-21.05 1.59-24.93 2.22-.07.01-.14.02-.21.02l-.01-.01ZM181.431 71.6c-.12 0-.23-.02-.35-.05-1.98-.56-4.4-.99-7.19-1.29a1.3 1.3 0 0 1-1.15-1.43c.08-.71.71-1.23 1.43-1.16 2.93.31 5.5.77 7.62 1.37a1.3 1.3 0 0 1-.35 2.55l-.01.01ZM134.661 81.09c-.63 0-1.18-.46-1.28-1.1-.11-.71.38-1.37 1.09-1.48 6.29-.97 13.81-1.16 21.76-.56.72.05 1.25.68 1.2 1.39-.05.72-.68 1.26-1.39 1.2-7.64-.58-15.17-.39-21.17.54-.07 0-.13.01-.2.01h-.01ZM178.101 84.41c-.12 0-.25-.02-.37-.05a83.18 83.18 0 0 0-4.55-1.21 1.3 1.3 0 0 1-.96-1.57c.17-.7.87-1.13 1.56-.96 1.62.38 3.2.81 4.7 1.25.69.21 1.08.93.87 1.62-.17.56-.69.93-1.25.93v-.01ZM71.05 63.53c-.19 0-.37-.04-.55-.12-7.79-3.67-30.49-9.83-44.22-8.9-.71.05-1.34-.49-1.38-1.21-.05-.72.49-1.34 1.21-1.38 14.75-1.01 37.8 5.51 45.5 9.14.65.31.93 1.08.62 1.73-.22.47-.69.75-1.18.75v-.01ZM69.149 69.46c-.11 0-.22-.01-.34-.04-6.07-1.62-33.34-6.68-47.35-3.78-.7.14-1.39-.31-1.54-1.01-.15-.7.31-1.39 1.01-1.54 14.46-2.99 42.35 2.16 48.55 3.82.69.18 1.11.9.92 1.59-.16.58-.68.96-1.26.97l.01-.01ZM23.81 78.72c-.6 0-1.13-.41-1.27-1.02-.16-.7.28-1.4.98-1.55 13.55-3.04 31.23-3.23 44-.48.7.15 1.15.84 1 1.54-.15.7-.85 1.15-1.54 1-12.43-2.68-29.66-2.49-42.88.47-.1.02-.19.03-.29.03v.01ZM105.5 78.4c-1.56 0-2.87-.81-3.82-1.78-.8.85-2.14 1.54-4.28 1.56-.72-.02-1.31-.57-1.31-1.29 0-.72.57-1.31 1.29-1.31 2.74-.03 2.77-1.47 2.77-1.48 0-.6.41-1.13 1-1.27.58-.13 1.19.14 1.46.68.16.32 1.67 3.1 3.98 2.01.65-.3 1.42-.02 1.73.63.3.65.02 1.42-.63 1.73-.77.36-1.5.51-2.18.51l-.01.01Z"/><path fill="#BEBEC9" d="M59.18 106.41c-.06 0-.12 0-.17-.01a1.31 1.31 0 0 1-1.12-1.46C63.6 62.2 70.65 28.12 70.72 27.78c.09-.44.4-.79.81-.95.42-.16.88-.09 1.24.18 4.35 3.27 15.55 13.4 17.77 15.41l23.669.23 16.23-15.31a1.3 1.3 0 0 1 1.26-.3c.44.13.78.49.89.94.09.38 9.38 38.79 13.08 74.23.07.71-.44 1.35-1.16 1.43-.72.08-1.35-.44-1.43-1.16-3.18-30.43-10.5-63.08-12.51-71.7l-14.98 14.12c-.24.23-.56.35-.89.35h-.01l-24.69-.24c-.32 0-.63-.12-.86-.34-.12-.11-10.79-9.82-16.31-14.3-1.6 7.99-7.49 38.26-12.38 74.92-.09.65-.65 1.13-1.29 1.13l.02-.01ZM55.38 130.94c-.68 0-1.45-.34-2.36-.73-.46-.2-.98-.42-1.28-.5-.7-.17-1.12-.88-.95-1.58.17-.7.88-1.13 1.58-.95.51.13 1.11.39 1.68.63.42.18 1.13.49 1.36.51.72 0 1.28.58 1.28 1.3 0 .72-.6 1.3-1.32 1.3l.01.02ZM152.472 157.941c-.66 0-1.23-.5-1.29-1.17a1.3 1.3 0 0 1 1.16-1.42c9.27-.93 17.44-7.99 20.67-12.52 3.29-4.6 4.94-9 4.12-10.94-.19-.44-.6-1.05-2.06-1.26-2.55-.38-5.84 2.97-9.33 6.52-4 4.06-8.53 8.66-14.08 10.3-.69.2-1.41-.19-1.61-.88-.2-.69.19-1.41.88-1.62 4.91-1.45 9.19-5.8 12.97-9.63 4.14-4.2 7.71-7.84 11.57-7.26 2.54.38 3.62 1.74 4.08 2.82 1.81 4.25-2.91 11.38-4.4 13.46-3.51 4.91-12.4 12.58-22.53 13.59h-.13l-.02.01Z"/><path fill="#BEBEC9" d="M115.29 77.43c-5.59 0-10.14-4.55-10.14-10.14 0-5.59 4.55-10.14 10.14-10.14 5.59 0 10.14 4.55 10.14 10.14 0 5.59-4.55 10.14-10.14 10.14Zm0-17.69c-4.16 0-7.54 3.38-7.54 7.54s3.38 7.54 7.54 7.54 7.54-3.38 7.54-7.54-3.38-7.54-7.54-7.54ZM88.75 77.43c-5.59 0-10.14-4.55-10.14-10.14 0-5.59 4.55-10.14 10.14-10.14 5.59 0 10.14 4.55 10.14 10.14 0 5.59-4.55 10.14-10.14 10.14Zm0-17.69c-4.16 0-7.54 3.38-7.54 7.54s3.38 7.54 7.54 7.54 7.54-3.38 7.54-7.54-3.38-7.54-7.54-7.54Z"/><path fill="#BEBEC9" d="M106.7 70.71c-.37 0-.75-.16-1-.47-.03-.04-1.65-1.93-3.91-1.93-2.26 0-3.28 1.62-3.32 1.68-.4.59-1.2.76-1.8.37-.6-.39-.77-1.19-.38-1.79.08-.12 1.89-2.86 5.5-2.86 3.61 0 5.82 2.76 5.92 2.88.46.55.37 1.37-.18 1.83-.24.2-.53.29-.82.29h-.01ZM116.799 67.65c-.32 0-.65-.12-.9-.36-.09-.08-1.95-1.8-4.03-.9-.66.29-1.42-.02-1.71-.68-.28-.66.02-1.42.68-1.71 3.69-1.59 6.73 1.3 6.86 1.42.52.5.53 1.32.03 1.84-.25.26-.59.39-.93.39ZM91.009 67.12c-.35 0-.69-.14-.95-.41-.18-.19-1.79-1.73-4.33-.68-.67.27-1.42-.04-1.7-.7-.27-.66.04-1.42.7-1.7a6.477 6.477 0 0 1 7.22 1.31c.49.53.46 1.35-.07 1.84-.25.23-.57.35-.88.35l.01-.01ZM148.941 130.26a1.294 1.294 0 0 1-1.03-2.09c12.02-15.48 25.66-36.09 24.44-58.26-.09-1.61-1-2.5-1.29-2.52-.05.04-.36.45-.5 1.56-.09.71-.73 1.21-1.45 1.13-.71-.09-1.22-.74-1.13-1.45.46-3.64 2.56-3.84 3.17-3.83 1.95.07 3.65 2.3 3.8 4.98 1.27 23.03-12.68 44.16-24.98 60-.26.33-.64.5-1.03.5v-.02Z"/><path fill="#BEBEC9" d="M163.58 71.38c-.62 0-1.17-.45-1.28-1.08-.06-.36-.56-3.54.86-5.42.58-.77 1.4-1.23 2.37-1.33 3.27-.36 4.69 2.7 4.98 4.37.12.71-.35 1.38-1.06 1.5a1.3 1.3 0 0 1-1.5-1.05c-.05-.25-.49-2.4-2.14-2.23-.26.03-.43.12-.57.31-.58.77-.5 2.64-.37 3.42a1.303 1.303 0 0 1-1.28 1.52l-.01-.01Z"/><path fill="#BEBEC9" d="M140.66 107.81c-.33 0-.67-.13-.92-.38-.51-.51-.5-1.33 0-1.84 7.54-7.5 12.56-15.54 14.92-23.91 1.2-4.26 1.92-10.2 2.55-15.44 1.09-9.01 1.53-11.88 3.47-12.17.76-.11 1.5.12 2.09.66 2.68 2.46 2.28 12.42 2.1 15.42-.04.72-.67 1.25-1.38 1.22a1.3 1.3 0 0 1-1.22-1.38c.35-5.74-.11-11.49-.99-13.02-.54 1.65-1.06 6-1.5 9.58-.65 5.33-1.38 11.38-2.63 15.83-2.48 8.8-7.73 17.23-15.59 25.04-.25.25-.58.38-.92.38l.02.01Z"/><path fill="#FFD93A" d="M170.279 92.89c-.14 0-.27-.02-.4-.06l-15.7-5.1c-.34-.11-.61-.35-.77-.67-.15-.32-.17-.68-.05-1.02l1.33-3.63c.24-.65.95-1 1.61-.79l15.54 4.94c.68.22 1.06.94.85 1.62l-1.17 3.79c-.1.33-.33.61-.64.77-.19.1-.39.15-.6.15Zm-14.02-7.22 13.17 4.27.4-1.29-13.13-4.18-.44 1.2Z"/><path fill="#BEBEC9" d="M63.11 107.81c-.08 0-.16 0-.25-.02l-11.53-2.21a1.29 1.29 0 0 1-1.03-1.52c.14-.71.81-1.17 1.52-1.03l11.53 2.21c.71.13 1.17.82 1.03 1.52-.12.62-.66 1.05-1.28 1.05h.01Z"/></g><defs><clipPath id="a"><path fill="#fff" d="M0 0h200v200H0z"/></clipPath></defs></svg>