<svg width="200" height="200" viewBox="0 0 200 200" xmlns="http://www.w3.org/2000/svg"><g id="type=esim-manual, mode=dark"><g id="esim-manual"><path id="Vector" d="M128.312 62.3677C123.749 60.6667 119.073 59.8542 114.489 59.8545C99.0968 59.8474 84.7244 69.0369 79.0037 84.4016C77.3914 88.7278 76.6268 93.1128 76.627 97.3972C76.6257 112.844 86.5537 126.922 102.108 132.711C106.813 134.464 111.626 135.309 116.329 135.308C120.107 135.308 123.814 134.764 127.34 133.709C128.028 133.503 128.419 132.779 128.213 132.091C128.007 131.403 127.283 131.013 126.595 131.219V131.218C123.313 132.2 119.857 132.709 116.329 132.709C111.937 132.708 107.433 131.92 103.015 130.275C88.4164 124.831 79.2283 111.711 79.2271 97.3972C79.2272 93.4216 79.9348 89.3496 81.4401 85.3093C86.7771 70.9893 100.121 62.4614 114.489 62.4543C118.766 62.4546 123.131 63.2114 127.405 64.804C137.271 68.4797 144.609 75.8442 148.31 84.7161C148.586 85.3787 149.347 85.6919 150.01 85.4155C150.673 85.1394 150.986 84.3782 150.71 83.7156C146.738 74.1887 138.854 66.2935 128.312 62.3677Z"/><path id="Vector_2" d="M194.455 141.634C186.704 126.621 176.824 113.642 167.152 103.645C165.773 102.221 164.401 100.866 163.038 99.5657C163.078 99.4446 163.119 99.323 163.121 99.189V99.1887C163.128 98.8193 163.132 98.4468 163.132 98.0715C163.134 84.9629 158.688 73.1006 150.603 64.3784C142.523 55.6526 130.814 50.1057 116.49 49.5381C108.01 49.199 100.225 49 92.571 49C81.7429 48.9998 71.1764 49.3979 59.2841 50.3596C45.6238 51.4619 33.7997 56.7732 25.3863 65.1396C16.9705 73.501 11.9948 84.926 12 98.0715C11.9926 111.202 16.7784 122.387 25.1077 130.582C33.4338 138.784 45.2494 143.999 59.2545 145.453C66.7087 146.228 75.2761 146.632 84.2927 146.632C94.4634 146.632 105.204 146.116 115.551 145.028C120.664 144.49 125.44 143.518 129.845 142.136C130.53 141.921 130.911 141.192 130.696 140.507C130.482 139.822 129.752 139.44 129.067 139.656C124.842 140.98 120.235 141.921 115.279 142.443C105.033 143.521 94.3754 144.032 84.2927 144.032C75.3546 144.032 66.8669 143.63 59.5232 142.867C45.9966 141.461 34.7677 136.449 26.9323 128.73C19.1001 121.005 14.6073 110.575 14.6 98.0715C14.6052 85.582 19.2853 74.8806 27.2196 66.9834C35.1563 59.0913 46.3766 54.012 59.4935 52.9512C71.3204 51.9949 81.8065 51.6001 92.571 51.5999C100.18 51.5999 107.929 51.7979 116.386 52.136C130.101 52.6904 141.088 57.9434 148.696 66.1455C156.125 74.1638 160.324 85.0388 160.514 97.2185C153.456 90.822 146.815 86.2112 141.461 83.7659C141.103 82.9309 140.274 81.2165 138.815 79.4561C137.815 78.2524 136.515 77.0293 134.858 76.0984C133.203 75.1672 131.185 74.5415 128.843 74.5437C127.722 74.5435 126.528 74.6848 125.266 74.9944C123.716 75.3726 122.432 76.0503 121.405 76.8452C119.862 78.0396 118.892 79.4783 118.298 80.6155C118.039 81.1118 117.855 81.5471 117.723 81.8928C117.529 81.8835 117.334 81.875 117.141 81.8752C114.024 81.8735 111.177 83.0906 109.055 85.1033C107.936 86.1611 107.203 87.3337 106.768 88.4824C106.331 89.6318 106.185 90.7502 106.185 91.73C106.188 92.7429 106.339 93.6062 106.499 94.2458C105.658 94.5532 104.88 94.9612 104.187 95.4812C102.497 96.7427 101.341 98.6138 100.838 100.848C100.66 101.628 100.581 102.376 100.581 103.082C100.581 105.428 101.453 107.269 102.306 108.493C102.545 108.836 102.781 109.129 103.001 109.381C102.307 110.062 101.743 110.831 101.315 111.646C100.415 113.35 100.05 115.235 100.048 117.022C100.049 118.344 100.249 119.616 100.612 120.75C100.979 121.884 101.498 122.885 102.231 123.658C104.069 125.576 106.479 126.66 108.886 127.286C111.3 127.91 113.74 128.078 115.745 128.079C117.61 128.078 119.083 127.932 119.808 127.843C121.262 128.775 126.836 132.546 133.357 139.534C140.771 147.479 149.401 159.567 154.629 176.375C154.842 177.06 155.571 177.443 156.256 177.23C156.942 177.017 157.325 176.288 157.112 175.603C151.661 158.079 142.598 145.535 134.895 137.375C127.19 129.212 120.843 125.423 120.766 125.376C120.508 125.223 120.196 125.162 119.9 125.209L119.887 125.211C119.722 125.236 118.028 125.479 115.745 125.479C113.889 125.48 111.645 125.316 109.538 124.769C107.426 124.224 105.479 123.299 104.111 121.862C103.75 121.49 103.358 120.811 103.087 119.956C102.813 119.102 102.648 118.078 102.648 117.022C102.646 115.108 103.187 113.128 104.395 111.692C105.001 110.969 105.772 110.365 106.78 109.925C107.789 109.486 109.046 109.213 110.62 109.213C112.596 109.212 115.069 109.65 118.091 110.731C118.767 110.973 119.511 110.621 119.753 109.945C119.994 109.269 119.642 108.524 118.966 108.283C115.733 107.128 112.979 106.614 110.62 106.613C108.746 106.612 107.119 106.942 105.743 107.541C105.526 107.634 105.32 107.739 105.116 107.845C104.897 107.61 104.637 107.303 104.381 106.922C103.763 106.003 103.182 104.72 103.181 103.082C103.181 102.57 103.238 102.019 103.373 101.424C103.772 99.696 104.584 98.4385 105.746 97.5618C106.912 96.6895 108.482 96.1807 110.484 96.1785C113.193 96.1746 116.662 97.1445 120.604 99.3787C121.229 99.7322 122.022 99.5125 122.376 98.8875C122.729 98.2627 122.51 97.4695 121.885 97.116V97.1157C117.659 94.7273 113.803 93.5825 110.484 93.5786C109.987 93.5781 109.506 93.6111 109.034 93.6636C108.911 93.1829 108.784 92.5027 108.785 91.73C108.785 91.0061 108.893 90.2097 109.198 89.407C109.505 88.6035 110.005 87.7864 110.843 86.991C112.512 85.4131 114.702 84.4768 117.141 84.4751C120.225 84.4792 123.792 85.9722 127.226 89.9419C127.695 90.4854 128.515 90.5461 129.059 90.0774C129.603 89.6084 129.663 88.7876 129.195 88.2441V88.2439C126.415 85.0124 123.358 83.0984 120.366 82.3064C120.622 81.7427 121.016 81.0146 121.587 80.2993C122.516 79.1377 123.858 78.0186 125.884 77.5198C126.958 77.2568 127.94 77.1438 128.843 77.1436C130.726 77.1458 132.271 77.6306 133.585 78.3657C135.551 79.4653 136.986 81.1714 137.91 82.6191C138.373 83.3411 138.708 83.9937 138.924 84.4578C139.031 84.6897 139.11 84.8745 139.159 84.9973L139.213 85.1333L139.224 85.1626V85.1648C139.344 85.5012 139.601 85.7776 139.929 85.9207C146.479 88.7749 155.788 95.6304 165.284 105.453C174.791 115.277 184.528 128.072 192.145 142.827C192.474 143.465 193.258 143.715 193.896 143.386C194.534 143.056 194.784 142.272 194.455 141.635V141.634Z"/></g></g></svg>