<svg width="200" height="200" viewBox="0 0 200 200" xmlns="http://www.w3.org/2000/svg"><g id="type=esim-manual, mode=light"><g id="esim-manual"><path id="Vector" d="M116.437 50.8369C95.9892 50.0185 79.6308 50.0185 59.3877 51.6552C32.6108 53.8183 13.2988 72.4365 13.2988 98.0712C13.2988 123.706 31.8559 141.3 59.3877 144.16C75.1323 145.796 95.9892 145.779 115.415 143.735C122.711 142.967 129.29 141.304 135.045 138.83L128.237 132.059C120.278 134.763 111.246 134.728 102.561 131.493C83.3012 124.318 73.0473 104.115 80.2221 84.8554C87.3969 65.5947 108.598 56.4111 127.858 63.5859C140.634 68.3447 149.347 79.1064 151.671 91.4345L161.78 100.43C161.814 99.6523 161.831 98.8652 161.831 98.0712C161.831 72.4365 144.476 51.9589 116.437 50.8369Z"/><path id="Vector_2" d="M194.455 141.634C186.704 126.622 176.824 113.642 167.152 103.646C165.773 102.222 164.4 100.866 163.037 99.5657C163.077 99.4451 163.118 99.3242 163.121 99.1907V99.1904C163.128 98.8186 163.132 98.4458 163.132 98.0715C163.134 84.9629 158.687 73.1006 150.603 64.3784C142.523 55.6526 130.814 50.1057 116.49 49.5381C108.01 49.199 100.225 49 92.5711 49C81.7429 48.9998 71.1765 49.3979 59.2841 50.3596C45.624 51.4619 33.7999 56.7732 25.3865 65.1396C16.9706 73.501 11.9948 84.926 12 98.0715C11.9926 111.202 16.7784 122.387 25.1077 130.582C33.4338 138.784 45.2494 143.999 59.2545 145.453C66.7096 146.228 75.2786 146.633 84.2968 146.633C94.4664 146.633 105.206 146.117 115.552 145.028C120.664 144.49 125.44 143.518 129.845 142.136C130.53 141.921 130.911 141.192 130.696 140.507C130.482 139.822 129.752 139.44 129.067 139.656C124.842 140.98 120.235 141.921 115.28 142.443C105.035 143.521 94.3784 144.033 84.2968 144.033C75.3571 144.033 66.8678 143.63 59.5231 142.867C45.9966 141.461 34.7677 136.449 26.9323 128.73C19.1001 121.005 14.6073 110.575 14.6 98.0715C14.6052 85.582 19.2854 74.8806 27.2197 66.9834C35.1565 59.0913 46.3768 54.012 59.4935 52.9512C71.3205 51.9949 81.8066 51.6001 92.5711 51.5999C100.18 51.5999 107.929 51.7979 116.386 52.136C130.101 52.6904 141.088 57.9434 148.696 66.1455C156.125 74.1638 160.323 85.0388 160.514 97.2185C153.456 90.822 146.815 86.2112 141.46 83.7659C141.103 82.9309 140.273 81.2165 138.814 79.4561C137.814 78.2527 136.514 77.0293 134.857 76.0986C133.203 75.1675 131.184 74.5418 128.842 74.5439C127.721 74.5437 126.528 74.6848 125.266 74.9944C123.716 75.3726 122.432 76.0503 121.405 76.8452C119.862 78.0396 118.892 79.4783 118.298 80.6155C118.039 81.1118 117.854 81.5471 117.723 81.8928C117.529 81.8835 117.334 81.875 117.141 81.8752C114.024 81.8735 111.177 83.0906 109.055 85.103C107.936 86.1611 107.203 87.334 106.768 88.4827C106.331 89.6323 106.185 90.7507 106.185 91.7307C106.187 92.7434 106.339 93.6067 106.499 94.2463C105.658 94.5535 104.88 94.9617 104.187 95.4814C102.497 96.7429 101.341 98.6138 100.838 100.847C100.66 101.628 100.581 102.376 100.581 103.082C100.58 105.428 101.453 107.269 102.306 108.493C102.545 108.836 102.781 109.129 103.002 109.382C102.307 110.062 101.744 110.831 101.315 111.646C100.415 113.35 100.05 115.235 100.048 117.023C100.049 118.344 100.249 119.617 100.612 120.751C100.979 121.884 101.498 122.885 102.231 123.659C104.069 125.576 106.479 126.661 108.886 127.286C111.299 127.91 113.739 128.078 115.744 128.079C117.61 128.078 119.083 127.932 119.808 127.843C120.562 128.326 122.428 129.579 124.957 131.644C122.169 132.334 119.278 132.709 116.33 132.709C111.938 132.709 107.435 131.921 103.016 130.275C88.4178 124.832 79.2298 111.712 79.2285 97.3975C79.2288 93.4219 79.9364 89.3498 81.4416 85.3096C86.7786 70.9895 100.122 62.4617 114.491 62.4546C118.767 62.4548 123.132 63.2117 127.406 64.8042C137.271 68.48 144.61 75.8445 148.311 84.7163C148.587 85.3789 149.348 85.6921 150.011 85.4158C150.673 85.1397 150.987 84.3784 150.71 83.7158C146.74 74.189 138.855 66.2937 128.313 62.3679C123.75 60.667 119.074 59.8545 114.491 59.8547C99.0982 59.8477 84.7259 69.0371 79.0051 84.4019C77.393 88.728 76.6284 93.113 76.6286 97.3975C76.6273 112.844 86.5551 126.923 102.109 132.711C106.814 134.464 111.627 135.309 116.33 135.309C120.108 135.309 123.816 134.764 127.342 133.709C127.351 133.707 127.358 133.699 127.367 133.696C129.19 135.309 131.219 137.243 133.357 139.534C140.771 147.479 149.401 159.567 154.629 176.375C154.842 177.06 155.571 177.443 156.256 177.23C156.942 177.017 157.325 176.288 157.112 175.603C151.661 158.079 142.599 145.535 134.895 137.375C127.191 129.212 120.843 125.423 120.766 125.376C120.508 125.223 120.197 125.162 119.9 125.209L119.887 125.211C119.722 125.236 118.027 125.479 115.744 125.479C113.889 125.48 111.645 125.316 109.538 124.769C107.426 124.224 105.479 123.299 104.111 121.863C103.751 121.491 103.359 120.812 103.088 119.957C102.813 119.102 102.648 118.078 102.649 117.023C102.646 115.109 103.187 113.129 104.395 111.692C105.001 110.97 105.772 110.365 106.781 109.925C107.79 109.486 109.046 109.213 110.62 109.213C112.596 109.212 115.069 109.65 118.091 110.731C118.767 110.973 119.511 110.621 119.753 109.945C119.994 109.269 119.642 108.524 118.966 108.283C115.733 107.128 112.979 106.614 110.62 106.613C108.746 106.612 107.12 106.942 105.743 107.541C105.527 107.634 105.32 107.739 105.116 107.845C104.897 107.61 104.637 107.303 104.381 106.922C103.763 106.003 103.181 104.72 103.181 103.082C103.181 102.57 103.238 102.019 103.373 101.424C103.771 99.6963 104.583 98.4387 105.746 97.5623C106.912 96.6899 108.482 96.1812 110.484 96.179C113.193 96.175 116.663 97.1453 120.605 99.3787C121.229 99.7322 122.023 99.5122 122.376 98.8875C122.73 98.2625 122.51 97.4695 121.885 97.116V97.1157C117.659 94.7275 113.803 93.583 110.484 93.5791C109.987 93.5786 109.506 93.6116 109.034 93.6641C108.91 93.1831 108.783 92.5029 108.785 91.7307C108.785 91.0066 108.892 90.21 109.198 89.407C109.505 88.6033 110.005 87.7864 110.843 86.991C112.512 85.4131 114.702 84.4768 117.141 84.4751C120.225 84.4792 123.792 85.9722 127.226 89.9419C127.695 90.4854 128.516 90.5461 129.06 90.0774C129.603 89.6084 129.664 88.7876 129.195 88.2441V88.2439C126.415 85.0122 123.358 83.0981 120.366 82.3062C120.621 81.7424 121.016 81.0144 121.587 80.2993C122.516 79.1377 123.858 78.0186 125.884 77.5198C126.957 77.2568 127.939 77.144 128.842 77.1438C130.725 77.146 132.27 77.6309 133.584 78.366C135.551 79.4656 136.985 81.1716 137.91 82.6194C138.372 83.3413 138.707 83.9937 138.923 84.4578C139.031 84.6897 139.109 84.8745 139.159 84.9973L139.212 85.1333L139.223 85.1628L139.224 85.1648C139.343 85.5012 139.601 85.7776 139.928 85.9207C146.479 88.7749 155.788 95.6306 165.284 105.454C174.791 115.278 184.528 128.072 192.145 142.827C192.474 143.465 193.258 143.715 193.896 143.386C194.534 143.056 194.784 142.272 194.455 141.635V141.634Z"/></g></g></svg>