<svg xmlns="http://www.w3.org/2000/svg" width="200" height="200" fill="none"><g fill="#BEBEC9"><path d="M186.667 122.276c-5.694-9.922-12.753-15.114-18.631-17.771-5.88-2.662-10.56-2.819-11.612-2.819-.13 0-.206.002-.221.003a1.3 1.3 0 0 0-1.248 1.231h-.002l-.001.015c-.009.103-.08.673-.426 1.379-.29.586-.776 1.264-1.586 1.905a80.389 80.389 0 0 0-.946-2.366 98.033 98.033 0 0 0-2.488-5.423c6.793-4.668 10.353-10.951 10.412-11.04.223-.393.225-.877.007-1.272a1.304 1.304 0 0 0-1.083-.67l-7.026-.298c4.218-2.94 6.942-6.765 8.65-10.111 2.206-4.32 2.779-7.874 2.795-7.962a1.301 1.301 0 0 0-1.705-1.436l-10.768 3.683c.038-.976.063-1.974.063-3.006-.003-8.512-1.428-18.765-7.298-27.542-2.934-4.383-6.984-8.377-12.461-11.539-5.269-3.043-11.865-5.307-20.039-6.484-.716-2.175-1.941-3.942-3.374-5.33-2.414-2.336-5.381-3.66-7.74-4.431-2.363-.768-4.134-.976-4.193-.983a1.297 1.297 0 0 0-1.417.996l-1.034 4.436c-4.07-2.49-8.58-3.257-12.582-3.256-6.77.006-12.205 2.148-12.292 2.178-.482.189-.803.64-.824 1.158-.02.517.264.993.73 1.22.084.04 2.714 1.364 5.42 4.05.554.55 1.107 1.17 1.646 1.83-7.528 1.981-13.136 4.99-17.253 8.538-4.385 3.775-7.088 8.131-8.763 12.353a89.93 89.93 0 0 0-13.086 3.656c-3.46 1.26-6.004 4.221-6.617 7.799-.724 4.235-1.571 10.89-1.571 18.89 0 .701.008 1.416.022 2.137a7.956 7.956 0 0 1-1.315-.614c-.582-.35-.941-.713-1.119-1.004-.293-.473-.597-.9-1.007-1.27a2.86 2.86 0 0 0-.727-.481 2.305 2.305 0 0 0-.95-.208h-4.903a2.471 2.471 0 0 0-1.39.445c-.666.463-1.094 1.1-1.472 1.847-.556 1.126-.966 2.558-1.259 4.234-.29 1.675-.453 3.587-.453 5.623.002 1.96.15 3.8.421 5.43-.203.097-.297.18-.377.248a2.264 2.264 0 0 0-.314.356c-.284.396-.567.938-.82 1.666a8.134 8.134 0 0 0-.44 2.61 7.126 7.126 0 0 0 1.155 3.914c.778 1.203 1.999 2.317 3.735 3.242 1.472 4.233 4.068 10.924 7.669 17.166 1.873 3.244 4.016 6.367 6.443 8.964 2.427 2.593 5.144 4.677 8.2 5.753.048.016.096.009.144.02 5.214 9.678 12.108 18.953 21.106 27.17-.919 6.825-1.71 15.531-1.71 21.961 0 1.431.038 2.75.126 3.92a1.3 1.3 0 1 0 2.593-.196 50.601 50.601 0 0 1-.12-3.724c-.001-5.705.654-13.458 1.462-19.889.137.114.272.23.412.341 2.123 1.682 3.382 4.094 3.382 6.66v20.837a1.3 1.3 0 0 0 2.6 0v-14.649c.762.257 1.648.456 2.656.606 1.27.186 2.715.29 4.254.29 2.347-.001 4.468-.238 6.096-.652.278-.072.523-.158.773-.241V191.3a1.3 1.3 0 0 0 2.6 0v-20.934c0-2.612 1.268-5.072 3.429-6.743.62-.48 1.223-.996 1.805-1.551 14.768-14.078 23.546-30.491 28.549-46.759.032-.003.062.008.094.002 5.948-1.1 10.267-2.916 13.5-4.939.02 1.528.049 3.096.09 4.619.052 1.892.124 3.712.224 5.293.101 1.585.225 2.92.4 3.905.796 4.454 2.171 7.433 3.963 9.353a8.438 8.438 0 0 0 2.526 1.866c-.517 5.749-1.139 14.791-1.139 24.42.002 9.33.578 19.19 2.433 27.177a1.299 1.299 0 0 0 1.56.971c.7-.162 1.135-.861.972-1.56a63.553 63.553 0 0 1-.538-2.599c.059-.004.116.012.175 0a14.097 14.097 0 0 0 5.375-2.301c2.32-1.618 4.141-3.787 5.941-6.119 1.799-2.336 3.58-4.85 5.759-7.241 1.008-1.107 2.023-1.796 3.016-2.223a7.341 7.341 0 0 1 2.926-.591c1.62-.002 3.153.497 4.27 1.011a12.433 12.433 0 0 1 1.66.925l.081.056.015.011.001.001a1.299 1.299 0 0 0 2.041-1.339c-.02-.078-.446-1.908-1.667-4.038a15.328 15.328 0 0 0-1.033-1.567l1.211-2.753a1.303 1.303 0 0 0-1-1.81c-.05-.007-.573-.082-1.394-.082a13.368 13.368 0 0 0-4.097.653c-.098-.035-.187-.08-.287-.112a20.074 20.074 0 0 0-3.728-.842l-.3-2.125a1.303 1.303 0 0 0-.747-1.001 1.303 1.303 0 0 0-1.246.091c-.074.048-1.173.767-2.485 2.244-.339.382-.692.818-1.045 1.304-.045.01-.09.002-.135.017-1.841.612-3.344 1.58-4.646 2.564-1.006.762-1.9 1.532-2.741 2.19l-1.367-4.204a1.296 1.296 0 0 0-1.02-.88 1.296 1.296 0 0 0-1.252.496c-.005.007-1.107 1.46-2.442 3.346-.533.753-1.097 1.574-1.649 2.4-.007-.691-.017-1.384-.017-2.07 0-9.245.581-17.983 1.085-23.692.318.035.634.058.945.058 2.156-.006 4.096-.756 5.544-1.557l-.632-1.136.632 1.136c2.566-1.422 4.385-3.41 5.509-5.718 1.128-2.308 1.581-4.906 1.581-7.617 0-.137-.015-.277-.017-.415.086-.002.166-.009.256-.009 1.122 0 2.487.205 3.877.784 1.391.582 2.812 1.529 4.099 3.058a1.302 1.302 0 0 0 1.981.011c1.511-1.757 3.032-2.874 4.51-3.562a10.099 10.099 0 0 1 4.319-.954c2.529-.004 4.899.906 6.627 1.845.863.467 1.563.937 2.041 1.285.239.173.422.317.542.414l.133.109.029.025.003.003.002.001a1.301 1.301 0 0 0 1.984-1.625ZM72.009 15.963c2.097-.553 5.24-1.182 8.704-1.178 4.184 0 8.772.904 12.635 3.828a1.303 1.303 0 0 0 2.05-.742l1.185-5.082c1.175.242 3.11.74 5.096 1.68 1.513.713 3.048 1.676 4.313 2.941a10.68 10.68 0 0 1 2.107 2.99 47.156 47.156 0 0 0-3.634-.164c-9.184-.006-15.35 2.94-19.163 5.932a22.873 22.873 0 0 0-3.486 3.367c-1.229-4.733-3.877-8.289-6.38-10.73a27.74 27.74 0 0 0-3.427-2.842ZM59.837 33.129c3.956-3.407 9.461-6.35 17.17-8.243 1.377 2.223 2.465 4.9 2.803 8.098a1.297 1.297 0 0 0 1.066 1.143 1.296 1.296 0 0 0 1.392-.704c.025-.05 1.377-2.71 4.798-5.333 3.426-2.621 8.903-5.248 17.399-5.254 1.616 0 3.348.103 5.189.315.034.007.062.028.097.033 8.353 1.097 14.903 3.338 20.04 6.305 7.701 4.454 12.27 10.534 14.974 17.085 2.698 6.548 3.488 13.573 3.486 19.744 0 1.239-.031 2.442-.085 3.6-.005.102.027.193.044.288l-7.03 2.405a1.3 1.3 0 1 0 .842 2.46h-.001l18.128-6.201a29.471 29.471 0 0 1-2.192 5.359c-2.059 3.883-5.51 8.26-11.238 10.843a1.303 1.303 0 0 0-.742 1.431c.114.59.621 1.028 1.221 1.053l9.242.393c-1.465 2.043-4.229 5.405-8.12 8.136a139.036 139.036 0 0 0-3.323-5.985c-1.562-3.485-3.123-5.74-4.414-7.154-.651-.712-1.231-1.211-1.725-1.553a5.425 5.425 0 0 0-.42-.26c-.167-1.734-.458-3.302-.852-4.614-.326-1.07-.71-1.973-1.227-2.704a3.792 3.792 0 0 0-.943-.953 2.47 2.47 0 0 0-1.389-.445 2.23 2.23 0 0 0-.37.031c-.052-.006-.098-.03-.152-.03h-4.381a2.464 2.464 0 0 0-1.364.427c-.566.381-.955.894-1.295 1.483-.244.429-.45.923-.641 1.448-.05.037-.109.055-.155.1a4.369 4.369 0 0 1-1.065.774 5.417 5.417 0 0 1-.955.367l.002-.266c0-10.108-1.477-18.558-2.64-23.683-.022-.095-.059-.184-.084-.278a126.446 126.446 0 0 0 4.124-2.744 1.3 1.3 0 1 0-1.483-2.136 123.968 123.968 0 0 1-3.622 2.417c-1.349-2.402-3.646-4.241-6.49-4.872-13.093-2.891-26.696-4.094-38.99-4.095-2.535 0-5.015.051-7.424.15-.046.002-.084.025-.129.032-4.657.143-9.516.576-14.466 1.408a28.541 28.541 0 0 1 7.39-9.821Zm63.945 56.853c-.059-.025-.333-.218-.636-.48-.472-.4-1.06-.953-1.693-1.44a6.715 6.715 0 0 0-1.024-.664c-.372-.185-.793-.35-1.331-.356a2.086 2.086 0 0 0-1.06.283c-.512.301-.829.78-1.015 1.262-.008.02-.01.043-.018.064a6.924 6.924 0 0 1-.344-1.233 15.317 15.317 0 0 1-.247-2.83c-.002-1.471.187-2.805.45-3.668a3.67 3.67 0 0 1 .303-.752c2.854-.01 4.852-.122 6.441-.458.482-.103.92-.237 1.336-.39a33.893 33.893 0 0 0-.394 5.246c.002 2.12.177 4.098.491 5.822a22.576 22.576 0 0 0-1.259-.406Zm-60.869 57.653a81.546 81.546 0 0 1-11.864-12.918 77.676 77.676 0 0 0 8.48 7.392 18.761 18.761 0 0 0 4.05 2.32c-.03.076-.077.141-.093.224-.185.94-.377 1.948-.573 2.982Zm3.106-2.386c1.256.336 2.537.548 3.826.629.062.013.115.045.18.05.022.001 2.232.165 5.22.166 2.675-.002 5.965-.129 8.912-.642 3.61-.632 7.365-1.734 10.488-4.318.93-.77 1.823-1.553 2.698-2.342a87.552 87.552 0 0 1-9.863 10.368c-3.274 2.925-7.344 4.397-11.417 4.398a16.836 16.836 0 0 1-10.646-3.798c-.076-.062-.147-.125-.222-.186.282-1.529.56-2.98.824-4.325Zm42.52-24.597a86.606 86.606 0 0 1-1.926 3.939c-3.632 5.071-8.108 9.972-13.626 14.541-2.592 2.151-5.862 3.164-9.277 3.759a35.77 35.77 0 0 1-2.773.351 18.91 18.91 0 0 0 2.484-1.727c11.77-9.743 19.041-21.058 23.345-32.354 4.307-11.297 5.661-22.572 5.662-32.308-.001-10.165-1.477-18.659-2.64-23.785-.651-2.865-2.536-5.253-5.088-6.64 2.744.457 5.483.967 8.195 1.566 2.809.614 4.955 2.891 5.581 5.65 1.132 4.985 2.576 13.253 2.575 23.107 0 .227-.003.459-.005.688-1.111.09-2.485.13-4.207.13-.415-.002-.8.15-1.077.34-.49.344-.752.762-.982 1.21-.332.676-.556 1.476-.718 2.4-.16.922-.248 1.962-.248 3.068.002 1.687.199 3.212.561 4.418.185.606.402 1.133.734 1.605.169.234.371.46.653.654.215.149.496.27.805.317-1.156 9.383-3.572 19.337-8.028 29.071Zm20.882-26.725c-.097.045-.188.093-.281.14-.085-.072-.235-.233-.402-.527a7.463 7.463 0 0 1-.587-1.369c-.595-1.79-1.004-4.547-1.001-7.605-.002-2.951.377-5.62.94-7.414.264-.855.579-1.506.835-1.851.122-.168.223-.256.265-.284h1.842c-.486 1.077-.858 2.393-1.126 3.926-.29 1.675-.452 3.587-.452 5.623 0 1.985.154 3.853.431 5.498.216 1.27.501 2.4.861 3.37-.466.152-.92.312-1.325.493Zm4.234-7.139a3.285 3.285 0 0 0-1.008.14 2.198 2.198 0 0 0-.494.236c-.064-.83-.1-1.7-.099-2.598-.003-2.888.36-5.504.903-7.296.266-.893.588-1.578.854-1.945.089-.126.16-.2.216-.25.026.023.051.044.085.084.179.198.431.61.66 1.18.349.856.665 2.06.883 3.47.142.91.239 1.916.294 2.972.015.784.057 2.084.1 3.32l.038 1.082a14.976 14.976 0 0 0-.986-.233 7.72 7.72 0 0 0-1.446-.162ZM32.237 55.405c.446-2.62 2.326-4.839 4.945-5.795 11.36-4.144 22.958-5.527 33.353-5.527 13.434 0 24.85 2.311 31.096 3.901l.321-1.26-.32 1.26c2.845.724 5 2.924 5.62 5.66 1.132 4.983 2.576 13.296 2.576 23.21 0 9.496-1.325 20.455-5.491 31.381-4.169 10.928-11.165 21.828-22.574 31.278-3.05 2.527-6.869 3.812-10.695 3.812-3.53 0-7.051-1.093-9.975-3.293-12.612-9.493-20.186-21.113-24.639-32.837-4.448-11.721-5.752-23.547-5.751-33.338 0-7.816.829-14.331 1.534-18.452Zm-6.77 22.201c.775.468 1.697.848 2.748 1.153.116 2.647.335 5.403.684 8.237a2.291 2.291 0 0 0-.855.21c-.513.25-.853.622-1.106.99-.377.559-.59 1.153-.738 1.716a6.872 6.872 0 0 0-.186 1.128c-.458.284-.887.577-1.25.882-.538.46-.97.92-1.28 1.454l-.019.033c-.178.337-.352.552-.458.647-.026-.024-.05-.044-.086-.084-.179-.199-.43-.61-.66-1.18-.348-.856-.664-2.06-.882-3.47a31.39 31.39 0 0 1-.346-4.756c-.002-2.888.36-5.504.904-7.296.266-.893.588-1.578.854-1.945.08-.115.147-.186.202-.238.11.113.291.328.485.653.465.75 1.15 1.359 1.989 1.866Zm-8.433-.336c.266-.893.588-1.578.854-1.945.127-.181.236-.278.281-.308h1.843c-.486 1.077-.858 2.393-1.126 3.926-.29 1.675-.452 3.587-.452 5.623.002 3.104.372 5.912 1.014 8.046.165.544.347 1.044.552 1.502h-1.83a.741.741 0 0 1-.152-.142c-.179-.199-.43-.61-.66-1.18-.349-.856-.665-2.06-.883-3.47a31.39 31.39 0 0 1-.345-4.756c-.002-2.888.36-5.504.904-7.296ZM32.9 126.386c-3.36-3.589-6.285-8.479-8.608-13.236-2.326-4.758-4.062-9.381-5.115-12.454a1.297 1.297 0 0 0-.662-.748c-1.67-.813-2.623-1.716-3.178-2.571a4.51 4.51 0 0 1-.738-2.501 5.397 5.397 0 0 1 .213-1.463c.267.726.576 1.363.958 1.903a3.8 3.8 0 0 0 .943.953c.378.26.868.447 1.39.444h4.786c.012 0 .022-.006.034-.006.028 0 .055.007.083.007.68.001 1.277-.307 1.702-.688.425-.378.745-.837 1.028-1.357h.002c.07-.127.284-.388.602-.67 1.72 11.357 4.97 23.356 10.476 34.95.195.411.4.82.602 1.231-1.564-.962-3.079-2.252-4.518-3.794Zm56.115 33.804c-.517.493-1.051.951-1.6 1.376-2.752 2.121-4.44 5.334-4.44 8.8v3.194a2.86 2.86 0 0 1-.499.242c-.584.231-1.501.458-2.601.613a27.348 27.348 0 0 1-3.769.247c-2.162.002-4.124-.229-5.451-.571-.66-.166-1.165-.371-1.4-.517l-.06-.041v-3.355c0-3.434-1.687-6.583-4.368-8.699-.23-.182-.458-.371-.685-.567l.002.001c-11.272-9.763-19.329-21.182-24.98-33.08-5.65-11.897-8.888-24.273-10.502-35.915-.01-.07-.046-.124-.066-.189a1.289 1.289 0 0 0-.023-.216h.01l-.002-.053c0-.12.022-.374.077-.641.077-.404.238-.862.39-1.101.02-.033.034-.049.052-.072.036.023.07.043.121.086.017.014.038.017.055.03.899 5.933 2.391 12.146 4.747 18.355a78.38 78.38 0 0 0 4.93 10.563c.005.011.003.023.008.033 5.071 11.847 12.923 23.41 24.816 33.065a19.433 19.433 0 0 0 12.285 4.38c4.7.001 9.397-1.706 13.15-5.059 8.642-7.723 14.997-16.298 19.611-25.127.075-.105.156-.21.231-.316a1.28 1.28 0 0 0 .209-.539 90.356 90.356 0 0 0 1.639-3.382c4.721-10.314 7.216-20.84 8.356-30.68a1.254 1.254 0 0 0-.034-.397c.019-.074.055-.14.061-.22.017-.28.053-.491.089-.651.084.048.174.103.274.175.455.318 1.016.826 1.555 1.298.15.131.302.248.452.371-2.702 22.711-11.231 48.149-32.64 68.559Zm43.47-52.606c-2.814 1.926-6.699 3.742-12.299 4.922 1.878-6.667 3.141-13.285 3.94-19.684.466.164.863.32 1.164.45.257.112.452.205.578.268l.017.009c.278.727.596 1.362 1 1.896.249.326.537.617.895.851.041.153.094.286.149.394.191.348.402.57.636.801.407.393.902.768 1.44 1.146 1.026.717 2.201 1.418 2.922 1.835a484.938 484.938 0 0 0-.003 6.926 1.27 1.27 0 0 0-.439.186Zm27.684 48.493.232 1.642a15.67 15.67 0 0 0-2.131.877 14.64 14.64 0 0 1 1.605-2.201c.101-.114.197-.215.294-.318Zm-6.497 4.551c.361-.273.73-.53 1.106-.776a17.43 17.43 0 0 0-.545 1.6 1.299 1.299 0 0 0 2.043 1.384l.026-.019a20.99 20.99 0 0 1 2.075-1.346c1.1-.631 2.5-1.28 3.73-1.526a1.301 1.301 0 0 0 1.028-1.455l-.049-.35a18.64 18.64 0 0 1 2.554.637c1.24.399 2.256 1.064 3.106 1.864.943.886 1.666 1.942 2.198 2.921-1.203-.446-2.675-.814-4.309-.816a9.967 9.967 0 0 0-3.951.801c-1.347.577-2.681 1.507-3.914 2.863-3.079 3.387-5.312 6.858-7.635 9.562-1.16 1.355-2.335 2.516-3.627 3.414-1.294.898-2.7 1.545-4.399 1.885-.033.007-.058.029-.091.039a107.44 107.44 0 0 1-.935-8.285 44.41 44.41 0 0 0 2.954-1.556c1.709-.979 3.863-2.343 5.7-3.959a1.3 1.3 0 0 0 .377-1.377l-.902-2.776c1.194-.863 2.293-1.849 3.46-2.729Zm-8.268.376c.317-.449.621-.872.901-1.257l2.062 6.344c-1.495 1.215-3.211 2.315-4.622 3.122-.73.418-1.368.756-1.854 1.005a164.547 164.547 0 0 1-.16-3.536c.858-1.595 2.377-3.85 3.673-5.678Zm6.959-33.223c-.913 1.854-2.305 3.397-4.437 4.588-1.171.656-2.756 1.234-4.28 1.229a5.489 5.489 0 0 1-2.103-.401c-1.023-.425-2.037-1.209-2.982-2.689-.941-1.479-1.783-3.663-2.336-6.771-.142-.794-.268-2.08-.364-3.612-.291-4.613-.347-11.517-.347-15.979 0-1.314.005-2.418.01-3.193.004-.775.009-1.218.009-1.22a1.303 1.303 0 0 0-.671-1.15l-.212-.12a46.375 46.375 0 0 1-2.777-1.698 18.426 18.426 0 0 1-.92-.656c.233-.088.494-.177.767-.263a35.81 35.81 0 0 1 2.393-.652 47.11 47.11 0 0 1 1.174-.265c.429-.09.784-.387.945-.795a1.298 1.298 0 0 0-.145-1.227l-.023-.032a28.983 28.983 0 0 1-1.244-1.968 13.325 13.325 0 0 1-.696-1.367c-.019-.043-.032-.081-.049-.123.162.02.341.048.526.085.56.109 1.174.283 1.636.429.231.073.425.139.56.186l.154.054.048.017a1.3 1.3 0 0 0 1.752-1.267c0-.003-.052-1.385-.105-2.91l-.046-1.379c1.079 1.164 2.55 3.217 4.056 6.6l.066.13c1.828 3.114 4.586 8.05 6.874 13.497 2.292 5.443 4.092 11.407 4.084 16.447.001 2.425-.408 4.62-1.317 6.475Zm17.526-8.966c-1.495.695-2.979 1.735-4.404 3.169a13.12 13.12 0 0 0-4.089-2.717 12.754 12.754 0 0 0-4.877-.985c-.149 0-.287.01-.429.015-.342-3.132-1.158-6.363-2.232-9.526 1.717-1.112 2.666-2.511 3.149-3.632.128-.296.224-.571.299-.82 1.682.11 5.307.583 9.656 2.554 4.461 2.026 9.689 5.611 14.425 12.053-1.72-.724-3.793-1.304-6.082-1.307a12.733 12.733 0 0 0-5.416 1.196Z"/><path d="M38.473 75.116c.3.138.62.243.956.313.25 3.03 1.436 5.77 3.262 7.84 2.058 2.336 4.968 3.826 8.193 3.824 3.225.002 6.135-1.488 8.193-3.824 2.064-2.338 3.315-5.531 3.316-9.034 0-3.504-1.252-6.697-3.316-9.035-2.058-2.336-4.968-3.827-8.193-3.825H45.484c-.018 0-.035-.003-.054-.003-.361 0-.734.023-1.117.069-2.766.326-4.925 1.657-6.337 3.353-1.416 1.7-2.133 3.737-2.138 5.633.001 1.275.331 2.522 1.124 3.51.395.49.908.902 1.511 1.179Zm18.655 6.431c-1.636 1.847-3.831 2.945-6.244 2.946-2.413-.001-4.607-1.099-6.244-2.946-1.632-1.846-2.665-4.432-2.665-7.312-.003-4.483 2.506-8.235 5.847-9.635.78.45 1.474 1.128 2.147 2.017 1.204 1.573 2.261 3.695 3.791 5.535.769.917 1.676 1.77 2.811 2.391.91.501 1.969.828 3.15.94-.251 2.374-1.201 4.49-2.593 6.064Zm0-14.626c1.368 1.549 2.307 3.621 2.577 5.948a5.53 5.53 0 0 1-1.317-.337c-1.095-.44-1.978-1.225-2.814-2.269-1.258-1.558-2.303-3.652-3.736-5.48a13.295 13.295 0 0 0-.685-.792c2.306.08 4.4 1.153 5.975 2.93Zm-17.158-.458c.874-1.038 2.093-1.878 3.728-2.27-2.313 2.067-3.864 5.087-4.231 8.496a1.688 1.688 0 0 1-.704-.729c-.2-.384-.326-.915-.325-1.533-.005-1.223.502-2.742 1.532-3.964ZM74.634 75.116c.3.138.62.243.956.313.25 3.03 1.436 5.77 3.262 7.84 2.058 2.336 4.968 3.826 8.193 3.824 3.225.002 6.135-1.488 8.193-3.825 2.064-2.337 3.315-5.53 3.316-9.033 0-3.504-1.252-6.697-3.316-9.035-2.058-2.336-4.968-3.827-8.193-3.825h-5.399c-.019 0-.036-.003-.055-.003-.361 0-.734.023-1.117.069-2.766.326-4.925 1.657-6.337 3.353-1.415 1.7-2.133 3.737-2.138 5.633.002 1.275.331 2.522 1.124 3.51.395.49.908.902 1.511 1.179Zm18.655 6.431c-1.636 1.847-3.83 2.945-6.244 2.946-2.413-.001-4.607-1.099-6.244-2.946-1.632-1.846-2.665-4.432-2.665-7.312-.003-4.483 2.506-8.235 5.847-9.635.78.45 1.474 1.128 2.147 2.017 1.204 1.573 2.261 3.695 3.791 5.535.769.917 1.676 1.77 2.811 2.391.91.501 1.969.828 3.15.94-.251 2.374-1.201 4.49-2.593 6.064Zm0-14.626c1.368 1.549 2.307 3.621 2.577 5.948a5.53 5.53 0 0 1-1.317-.337c-1.095-.44-1.978-1.225-2.814-2.269-1.258-1.558-2.303-3.652-3.736-5.48a13.297 13.297 0 0 0-.685-.792c2.306.08 4.4 1.152 5.975 2.93Zm-17.158-.458c.874-1.038 2.093-1.878 3.728-2.27-2.313 2.067-3.864 5.087-4.231 8.496a1.689 1.689 0 0 1-.704-.729c-.2-.384-.326-.915-.325-1.533-.005-1.223.502-2.742 1.532-3.964ZM69.179 119.169a1.3 1.3 0 0 0 1.3-1.3V95.92a1.3 1.3 0 1 0-2.6 0v21.949a1.3 1.3 0 0 0 1.3 1.3Z"/></g></svg>