<svg xmlns="http://www.w3.org/2000/svg" width="200" height="201" fill="none"><path fill="#FFD93A" d="M65.089 123.007c-16.536-3.19-27.2-35.512-28.881-49.282 5.58-1.853 11.798-4.382 16.322-7.527 10.385-7.222 14.129-13.24 14.129-13.24-20.77 15.888-37.435 15.526-37.435 15.526-6.883-15.767 9.419-33.46 9.419-33.46v-.962c-6.038-2.046-12.317-13.721-8.936-20.822-.12.24-5.675 3.37-6.159 12.758-.483 9.388 7.97 14.322 7.97 14.322s-2.898 1.685-7.97 12.879c-5.071 11.193-.724 24.192-.724 24.192s2.763-.569 6.758-1.665c-.012 9.035 4.735 27.191 8.82 34.403 9.94 17.551 16.06 21.303 24.03 21.303 7.97 0 13.162-11.073 13.162-11.073s-3.018 4.093-10.505 2.648ZM120.153 1.565c-.121 5.536 1.932 8.064 1.932 8.064s-6.883 12.758 1.087 23.23c0 0-5.796 23.83-4.347 45.014 1.449 21.183 17.268 30.932 22.702 30.33 0 0-3.26 2.648-8.694 2.528-5.434-.121-14.25-8.426-18.355-21.545-4.106-13.119-2.295-36.589 2.294-51.995 0 0-5.434-5.296-3.623-16.73 1.812-11.434 7.004-18.896 7.004-18.896ZM103.248 195.624c-3.623 1.765-9.982-2.729-14.732-8.426s-5.937-18.873-2.496-33.62c.805-3.45 2.657-6.419 2.657-6.419s-4.508-3.611-4.589-7.543c-.08-3.931 1.369-6.018 3.381-5.295 0 0-1.449-2.247-5.796.321-4.347 2.567-6.199 4.653-5.394 8.425.805 3.771 5.877 6.66 5.877 6.66s-3.381 7.141-4.106 15.004c-.724 7.864-.885 13.24-.08 17.091.805 3.852 1.046 7.463 2.576 9.709 1.53 2.247 3.06 4.494 9.177 6.74 6.119 2.247 11.835.723 13.525-2.647Z"/><path fill="#191C22" d="M57.21 86.157a2.896 2.896 0 0 0 2.901-2.892 2.896 2.896 0 0 0-2.901-2.891 2.896 2.896 0 0 0-2.901 2.891 2.896 2.896 0 0 0 2.9 2.892ZM79.913 86.157a2.896 2.896 0 0 0 2.901-2.892 2.896 2.896 0 0 0-2.901-2.891 2.896 2.896 0 0 0-2.901 2.891 2.896 2.896 0 0 0 2.9 2.892ZM118.434 63.53a2.897 2.897 0 0 0 2.902-2.892 2.897 2.897 0 0 0-2.902-2.892 2.897 2.897 0 0 0-2.901 2.892 2.896 2.896 0 0 0 2.901 2.891ZM141.136 64.372a2.896 2.896 0 0 0 2.901-2.892 2.896 2.896 0 0 0-2.901-2.891 2.897 2.897 0 0 0-2.902 2.891 2.897 2.897 0 0 0 2.902 2.892Z"/><path fill="#191C22" d="M61.729 81.237a.968.968 0 0 0 1.349.216.961.961 0 0 0 .216-1.345c-1.59-2.227-3.63-3.143-5.555-3.123-2.526.016-4.753 1.355-6.358 2.382-1.137.754-2.343 1.407-3.188 1.383a1.704 1.704 0 0 1-.861-.222c-.286-.161-.603-.435-.937-.908a.968.968 0 0 0-1.346-.233.96.96 0 0 0-.234 1.341c.462.656.987 1.151 1.57 1.478.58.328 1.21.472 1.808.47 1.667-.024 3.055-.945 4.241-1.695 1.518-.996 3.516-2.086 5.305-2.07 1.355.02 2.643.506 3.99 2.326ZM49.103 74.073c2.976-1.181 6.017-1.92 8.68-1.918 1.581 0 3.023.257 4.262.805a7.295 7.295 0 0 1 3.13 2.607c.301.44.902.552 1.343.253a.96.96 0 0 0 .253-1.338A9.236 9.236 0 0 0 62.83 71.2c-1.544-.682-3.258-.97-5.045-.97-3.016.002-6.258.813-9.395 2.054a.962.962 0 0 0-.541 1.25.967.967 0 0 0 1.255.54Z"/><path fill="#191C22" d="M81.483 108.815a.934.934 0 0 0 .007-.456c.439-.23.851-.465 1.213-.705 1.938-1.284 2.788-2.578 2.84-2.659a.958.958 0 0 0-.055-1.119 44.417 44.417 0 0 1-2.168-2.998.955.955 0 0 0 .133-.328c.238-1.26.44-2.48.608-3.642.856-5.922 1.258-11.984 1.442-16.928.269.053.54.088.814.089 1.257.013 2.45-.658 3.284-1.813a.961.961 0 0 0-.205-1.347.968.968 0 0 0-1.35.204c-.608.794-1.122 1.017-1.729 1.03a2.492 2.492 0 0 1-.75-.14c.063-2.246.081-4.19.082-5.673 0-1.159-.011-1.995-.02-2.526 1.307.324 2.486.563 3.462.717a.966.966 0 0 0 1.083-.708c.016-.061.617-2.372.618-6.086.005-6.11-1.648-16.058-10.244-25.844a.97.97 0 0 0-.753-.329l-3.17.086c.45-1.488.636-2.407.643-2.432a.964.964 0 0 0-.538-1.053c-.04-.015-3.2-1.494-8.033-2.757.267-1.029.426-2.188.428-3.514-.002-2.778-.552-6.094-1.694-9.258-1.145-3.16-2.878-6.176-5.336-8.282-3.77-3.219-8.749-4.676-13.987-4.676-5.98.003-12.336 1.887-17.827 5.313-5.241 3.271-7.901 8.851-7.897 14.48-.004 5.616 2.666 11.323 7.995 14.949a36.988 36.988 0 0 0-5.995 8.652C21.288 55.226 20 61.804 20 67.402c.004 4.132.692 7.728 1.957 10.296a.97.97 0 0 0 1.013.527c.027-.006 2.212-.348 5.71-1.26 1.401 16.393 6.156 30.132 12.212 39.847 3.063 4.911 6.455 8.799 9.941 11.485 3.485 2.681 7.084 4.178 10.552 4.181 2.626.002 5.028-.787 7.15-2.132 3.188-2.021 5.776-5.254 7.902-9.042 2.124-3.791 3.783-8.153 5.046-12.489Zm.666-12.182c-.087.599-.209 1.25-.314 1.88-2.935-5.029-4.654-10.098-5.643-14.27a55.36 55.36 0 0 1-.733-3.64c1.715-1.796 3.646-2.524 5.203-2.523.937 0 1.728.26 2.28.674.215.16.435.3.656.436-.17 5.023-.564 11.329-1.45 17.443Zm-7.144-19.348a38.843 38.843 0 0 1-.152-1.981c-.009-.168-.012-.273-.015-.38.95-1.344 2.988-2.35 5.415-2.343 1.108 0 2.285.219 3.461.673-.005 1.065-.02 2.308-.052 3.69-.868-.515-1.897-.79-3-.79-1.787 0-3.754.692-5.539 2.146-.043-.352-.086-.708-.118-1.015Zm4.373-37.793c7.975 9.272 9.477 18.525 9.482 24.235a29.04 29.04 0 0 1-.283 4.137c-.033.226-.066.422-.096.598-5.525-1.02-16.113-4.454-22.958-11.612 5.874-6.376 8.961-13.045 10.465-17.267l3.39-.09ZM24.317 25.461c.004-5.04 2.354-9.952 6.99-12.848 5.189-3.243 11.23-5.022 16.8-5.02 4.89.001 9.392 1.36 12.73 4.213 2.102 1.79 3.715 4.528 4.776 7.473 1.065 2.94 1.581 6.08 1.58 8.605.001 1.205-.125 2.256-.336 3.068-3.259-.74-7.094-1.32-11.18-1.322-5.2 0-10.801.939-16.037 3.703a34.83 34.83 0 0 0-7.877 5.704c-4.992-3.246-7.442-8.442-7.447-13.576Zm-.891 50.73-.025.004c-.908-2.163-1.473-5.25-1.469-8.794-.001-5.305 1.233-11.617 4.18-17.477 2.948-5.863 7.587-11.273 14.432-14.89 4.887-2.58 10.163-3.478 15.134-3.478 5.459-.001 10.536 1.086 14.237 2.177 1.85.545 3.357 1.09 4.397 1.497.36.141.642.257.886.36-.834 3.331-5.071 17.27-19.112 26.929-8.108 5.587-16.478 9.045-22.814 11.1a87.388 87.388 0 0 1-7.688 2.124c-.93.21-1.662.355-2.158.447ZM67.5 128.72c-1.865 1.176-3.877 1.83-6.115 1.832-2.892.004-6.115-1.272-9.37-3.779-9.767-7.489-19.46-25.888-21.449-50.323 6.662-1.892 16.78-5.573 26.619-12.347a49.45 49.45 0 0 0 6.993-5.873c5.733 5.925 13.576 9.33 19.508 11.051.003.093.019.765.026 1.922a11.474 11.474 0 0 0-3.459-.548c-3.081.007-5.838 1.278-7.212 3.464a.971.971 0 0 0-.144.51c.01.098.087 16.081 10.614 29.816-.377.426-1.015 1.056-2.035 1.708-1.665 1.059-4.24 2.112-8.048 2.114-1.497 0-3.185-.164-5.082-.562a.962.962 0 1 0-.398 1.884c2.018.424 3.841.604 5.48.604 2.333.001 4.28-.373 5.893-.915a65.198 65.198 0 0 1-2.516 6.897c-.047.048-.101.087-.138.146-.31.53-1.343 1.281-2.787 1.795-1.44.527-3.27.871-5.161.87-3.464-.003-7.042-1.126-9.212-4.088a.968.968 0 0 0-1.35-.208.961.961 0 0 0-.208 1.346c2.665 3.617 6.922 4.879 10.77 4.876 2.123-.001 4.15-.377 5.826-.988.199-.074.376-.16.564-.24-.779 1.455-1.613 2.83-2.518 4.063-1.527 2.086-3.23 3.796-5.091 4.973ZM177.534 40.082c-1.332-3.483-2.88-5.914-3.637-7.32a.967.967 0 0 1-.137-.47c-.006-.253.158-.606.613-1.023.665-.616 1.84-1.201 2.827-1.582a18.83 18.83 0 0 1 1.263-.444l.377-.112.127-.035a.961.961 0 0 0-.139-1.889l-6.03-.668 3.467-5.183a.96.96 0 0 0-.072-1.163.967.967 0 0 0-1.144-.241l-5.711 2.687a7.653 7.653 0 0 0 .529-2.793c-.004-2.075-.802-3.849-1.571-5.108-.773-1.261-1.535-2.022-1.571-2.059a.966.966 0 0 0-1.502 1.191c.312.492.502 1.213.5 1.993.007 1.416-.619 2.94-1.695 3.697-.411.289-.789.402-1.336.408-.759.006-1.835-.294-3.221-.835-1.387-.535-3.083-1.288-5.152-2.096-2.349-.913-5.417-1.44-8.717-1.441-4.971.005-10.473 1.206-14.644 4.352a23.345 23.345 0 0 1-2.806-2.639c-3.728-4.137-6.433-9.935-7.158-16.452a.967.967 0 0 0-1.768-.422c-.039.079-7.314 11.067-7.33 24.57 0 .624.016 1.252.049 1.885.199 3.986 1.489 7.493 3.846 10.243-.477 1.853-4.691 18.584-4.695 34.922 0 .216 0 .433.002.649.059 7.926 2.144 17.123 5.866 24.627 1.863 3.751 4.138 7.08 6.813 9.603 2.671 2.52 5.769 4.24 9.22 4.661a12.6 12.6 0 0 0 1.536.093c3.326-.003 6.52-1.269 9.435-3.1 8.211-5.184 14.467-14.956 15.212-16.128 11.761-10.428 19.994-22.737 20.748-35.957.049-.886.073-1.747.073-2.582.001-5.778-1.131-10.35-2.467-13.84Zm-27.981 61.408c-2.128 2.165-4.562 4.254-7.127 5.782-2.567 1.532-5.25 2.492-7.893 2.49a10.7 10.7 0 0 1-1.301-.078c-2.949-.361-5.669-1.834-8.128-4.149-3.685-3.467-6.713-8.82-8.796-14.741-2.087-5.92-3.24-12.404-3.278-18.103l-.002-.636c-.001-6.955.788-14.017 1.718-19.946 1.555-.764 2.987-1.087 4.237-1.088 1.705 0 3.091.57 4.042 1.377.954.809 1.448 1.842 1.445 2.773 0 .197-.022.392-.065.584-2.16 9.531-3.866 15.307-5.034 18.993-1.159 3.703-1.825 5.243-1.853 6.742a3.654 3.654 0 0 0 .453 1.764c.498.918 1.354 1.551 2.324 2.128 2.908 1.683 7.201 2.678 7.244 2.695a.962.962 0 1 0 .447-1.873l-.311-.078c-.713-.184-2.544-.687-4.298-1.398-.877-.355-1.733-.764-2.405-1.19-.675-.42-1.143-.877-1.29-1.177-.176-.346-.227-.542-.232-.871-.029-.785.572-2.452 1.763-6.162 1.181-3.727 2.906-9.57 5.077-19.149.075-.334.112-.672.112-1.008-.034-3.21-3.151-6.072-7.419-6.076-1.21 0-2.513.24-3.868.749.085-.496.169-1.003.254-1.477a170.01 170.01 0 0 1 1.61-7.924c.16-.697.291-1.243.404-1.71.128.11.242.23.374.338 3.631 2.935 8.865 4.526 15.644 4.526 6.066-.001 13.404-1.282 22.045-4.052 1.233 2.232 5.195 10.246 5.189 20.69 0 .486-.008.978-.026 1.475a.964.964 0 0 0 .721.966.97.97 0 0 0 1.104-.492l.009-.017c.071-.133.51-.896 1.217-1.578.715-.69 1.638-1.26 2.733-1.257.352 0 .733.057 1.155.197.535.174 1.097.67 1.536 1.557.436.88.723 2.122.722 3.609.002 3.997-2.047 9.735-8.041 15.238a.96.96 0 0 0-.298.55l-.054.3c-.13.694-.499 2.514-1.128 4.568-.626 2.053-1.527 4.344-2.643 5.933-.006.008-.007.019-.013.028-.005.008-.013.011-.018.02l-.126.199c-.637 1.004-3.673 5.63-7.932 9.959Zm28.446-45.095c-.615 11.089-6.915 21.759-16.436 31.188.317-.885.605-1.761.836-2.574.507-1.802.805-3.29.919-3.904 6.127-5.739 8.417-11.837 8.42-16.41-.001-1.73-.323-3.245-.921-4.46-.594-1.206-1.491-2.143-2.658-2.533a5.584 5.584 0 0 0-1.766-.296c-1.671.005-2.948.795-3.859 1.62-.351-12.348-5.77-21.057-5.815-21.14a.966.966 0 0 0-1.122-.406c-8.833 2.898-16.231 4.192-22.196 4.191-6.489 0-11.253-1.525-14.427-4.095-3.169-2.574-4.854-6.212-5.1-10.785a34.542 34.542 0 0 1-.046-1.786c-.002-6.402 1.752-12.301 3.514-16.589a51.024 51.024 0 0 1 2.161-4.6c1.14 5.791 3.74 10.923 7.212 14.78 4.008 4.452 9.207 7.233 14.654 7.236.527 0 1.056-.026 1.585-.08a.963.963 0 1 0-.194-1.916c-.465.047-.928.07-1.391.07-3.017.002-6.014-.987-8.755-2.761 3.641-2.543 8.522-3.628 12.988-3.623 3.088-.003 5.965.507 8.013 1.309 2.024.789 3.7 1.534 5.157 2.098 1.459.559 2.699.959 3.92.965a4.111 4.111 0 0 0 2.467-.772c1.253-.915 1.99-2.27 2.307-3.683.279.746.478 1.559.469 2.407-.008 1.374-.447 2.845-1.881 4.419a.963.963 0 0 0 1.125 1.52l5.548-2.61-2.417 3.613a.964.964 0 0 0 .697 1.49l3.775.419c-.606.324-1.204.688-1.715 1.153-.656.598-1.233 1.406-1.239 2.442a2.89 2.89 0 0 0 .368 1.384c.819 1.513 2.265 3.78 3.533 7.092 1.264 3.306 2.339 7.625 2.34 13.153 0 .8-.023 1.624-.07 2.474Z"/><path fill="#191C22" d="M135.709 95.554c-1.887 1.598-4.195 2.35-6.483 2.35-3.05.002-6.021-1.345-7.815-3.756a.967.967 0 0 0-1.351-.198.96.96 0 0 0-.199 1.347c2.206 2.952 5.757 4.533 9.365 4.534 2.71 0 5.478-.898 7.734-2.81a.96.96 0 0 0 .11-1.357.967.967 0 0 0-1.361-.11ZM150.256 52.985c-.079-.037-3.987-2.532-8.877-2.547-2.695-.007-5.721.806-8.358 3.258a.96.96 0 0 0-.049 1.36.968.968 0 0 0 1.365.05c2.26-2.086 4.711-2.735 7.042-2.742 2.104-.002 4.087.56 5.532 1.132.722.284 1.31.57 1.712.78.201.106.356.193.458.252l.113.067.03.018a.967.967 0 0 0 1.332-.3.96.96 0 0 0-.3-1.328ZM107.408 162.926c-1.136-.928-2.799-1.917-4.865-1.923-1.243-.003-2.599.379-3.941 1.286a.96.96 0 0 0-.261 1.336.968.968 0 0 0 1.341.26c1.067-.713 2.004-.953 2.861-.956 1.409-.006 2.695.709 3.638 1.485.47.384.846.774 1.1 1.062l.287.344.068.089.016.021a.968.968 0 0 0 1.347.229.961.961 0 0 0 .23-1.342c-.033-.044-.68-.955-1.821-1.891Z"/><path fill="#191C22" d="m137.285 124.943-7.388 1.052c-.224-2.405-1.498-4.534-3.343-6.136-2.041-1.775-4.776-2.966-7.727-3.343-.523-.067-1.036-.1-1.537-.1a10.6 10.6 0 0 0-1.989.185c-.003-.021.004-.04-.001-.061l-1.449-6.499a.966.966 0 0 0-1.886.417l1.449 6.5c.014.062.05.111.075.167a9.953 9.953 0 0 0-3.067 1.922c-1.728 1.577-2.97 3.763-3.74 6.304a12.11 12.11 0 0 0-1.32-.083c-1.014.002-2.103.156-3.124.606-.029-.046-.045-.098-.083-.14-.035-.038-.971-1.076-2.531-2.13-1.56-1.049-3.762-2.137-6.345-2.142a8.84 8.84 0 0 0-1.417.114c-2.704.438-5.087 1.338-6.791 3.188-1.705 1.851-2.598 4.542-2.593 8.233 0 .058.023.109.033.164-.903.378-1.804.843-2.658 1.416-1.99 1.351-3.738 3.172-4.453 5.346a6.12 6.12 0 0 0-.297 1.893c.005 1.925.849 3.746 2.075 5.243a11.188 11.188 0 0 0 3.814 2.973c-.033.064-.073.122-.106.186-2.217 4.28-3.257 9.733-4.147 15.911-.382 2.666-.424 5.206-.424 7.598 0 .72.004 1.426.004 2.118.003 1.648.379 3.807.805 5.868.427 2.052.914 3.993 1.15 5.053.466 2.105 1.142 6.49 5.563 9.714 3.513 2.57 7.747 3.762 11.575 3.764 3.713-.008 7.107-1.106 9.064-3.446 1.611-1.934 2.819-2.578 4.055-3.111 1.224-.525 2.622-.908 4.059-2.203 1.444-1.316 2.628-3.361 3.52-5.11a40.5 40.5 0 0 0 .897-1.899c.335.158.736.266 1.194.262.312 0 .643-.045.994-.138 2.541-.677 4.313-2.602 5.42-4.824 1.113-2.234 1.617-4.815 1.62-7.115-.002-.962-.1-1.863-.284-2.689 5.063-2.623 7.37-7.329 7.371-11.215-.001-1.312-.258-2.543-.793-3.588a5.186 5.186 0 0 0-1.391-1.701c.132-.097.282-.174.404-.283 1.197-1.076 1.713-2.667 1.705-4.488 0-1.17-.198-2.465-.565-3.901-.656-2.589-1.844-4.287-3.297-5.277-.949-.648-1.966-.961-2.956-1.114.358-.741.877-1.862 1.414-3.199.859-2.151 1.725-4.796 1.993-7.256l7.722-1.1a.964.964 0 0 0 .82-1.089.965.965 0 0 0-1.093-.817Zm-14.399 53.973c-.96 1.913-2.35 3.335-4.189 3.822a1.94 1.94 0 0 1-.496.073c-.341-.008-.44-.102-.542-.191l-.097-.126-.003.002a.969.969 0 0 0-1.81-.014l-.092.231a37.501 37.501 0 0 1-1.599 3.424c-.788 1.487-1.812 3.069-2.764 3.919-1.099.991-2.116 1.27-3.519 1.859-1.39.58-3.02 1.5-4.79 3.659-1.376 1.694-4.234 2.753-7.573 2.745-3.428.002-7.297-1.089-10.43-3.39-3.79-2.794-4.322-6.353-4.822-8.581-.247-1.107-.726-3.017-1.144-5.026-.42-2.001-.768-4.116-.765-5.477 0-.699-.004-1.405-.004-2.118 0-2.369.044-4.81.405-7.325l-.957-.137.957.136c.331-2.324.689-4.525 1.115-6.577.523-.378.974-.503 1.428-.508.853-.013 1.831.538 2.57 1.175.37.312.676.632.886.869l.238.282.058.073.013.017a.968.968 0 0 0 1.351.205.962.962 0 0 0 .205-1.347c-.029-.037-.583-.787-1.498-1.566-.915-.767-2.209-1.619-3.823-1.633a4.002 4.002 0 0 0-.891.11c.41-1.626.883-3.136 1.442-4.513.38-.084.75-.137 1.105-.137 1.696.001 3.224.897 4.392 2.452 1.16 1.549 1.893 3.734 1.89 6.078 0 .555-.04 1.119-.124 1.686a29.492 29.492 0 0 1-2.222 7.603 25.122 25.122 0 0 1-1.06 2.119 16.14 16.14 0 0 1-.323.547l-.084.133-.024.037a.959.959 0 0 0 .188 1.275l4.226 3.491a.969.969 0 0 0 1.36-.127.96.96 0 0 0-.127-1.356l-3.588-2.963c.873-1.522 2.795-5.315 3.565-10.478a13.39 13.39 0 0 0 .145-1.967c-.002-2.738-.836-5.3-2.272-7.227-1.426-1.922-3.523-3.231-5.942-3.229-.05 0-.102.01-.152.011 2.039-3.791 4.895-6.268 9.747-7.245a21.692 21.692 0 0 1 4.203-.42c8.101.005 15.082 4.802 20.013 13.2.766 1.316.952 2.316.956 3.186.002.872-.21 1.624-.35 2.429-.01.076-.093.397-.22.8-.449 1.442-1.443 4.194-2.319 6.561-.876 2.371-1.636 4.367-1.637 4.372a.962.962 0 0 0 .464 1.199.969.969 0 0 0 1.247-.331l.179-.261c.422-.604 1.565-2.154 3.014-3.542 1.441-1.403 3.209-2.567 4.628-2.623l.047-.002c.185.005.31.049.491.194.266.215.587.728.8 1.474.218.742.342 1.694.341 2.732.003 2.015-.464 4.357-1.417 6.257Zm7.924-33.645c.34 1.325.506 2.475.505 3.425-.007 1.505-.388 2.441-1.069 3.06-.684.623-1.851 1.03-3.683 1.03-.357 0-.738-.015-1.141-.047a.964.964 0 1 0-.151 1.92c.448.035.879.053 1.292.053.919 0 1.747-.106 2.504-.296a.923.923 0 0 0 .255.172c.619.259 1.116.741 1.487 1.457.367.712.582 1.653.581 2.711.001 3.106-1.853 7.079-6.098 9.38-.236-.437-.512-.84-.884-1.155a2.67 2.67 0 0 0-1.737-.647l-.158.004c-1.302.078-2.507.621-3.597 1.33-.749.493-1.448 1.078-2.092 1.68l.101-.273a228.5 228.5 0 0 0 1.448-4.047c.206-.598.384-1.132.52-1.572.137-.445.231-.768.281-1.053.103-.64.374-1.573.376-2.746.004-1.177-.293-2.584-1.219-4.156-5.134-8.798-12.757-14.161-21.682-14.155-1.496 0-3.024.15-4.578.456-4.635.894-7.866 3.259-10.085 6.571a9.23 9.23 0 0 1-3.313-2.534c-1.02-1.238-1.642-2.684-1.638-4.023 0-.441.065-.874.203-1.301.493-1.558 1.944-3.167 3.698-4.343 1.742-1.186 3.78-1.931 5.199-1.972l.092-.001c.588.005.987.185 1.363.49.557.455.982 1.27 1.222 1.986.122.356.203.682.252.913l.05.267.013.079a.966.966 0 0 0 1.916-.245c-.01-.057-.16-1.276-.791-2.585-.32-.654-.763-1.34-1.423-1.892a3.983 3.983 0 0 0-2.602-.939l-.161.003c-.53.021-1.081.11-1.641.241.078-3.123.85-5.122 2.07-6.452 1.285-1.4 3.19-2.184 5.677-2.589a6.98 6.98 0 0 1 1.106-.088c2.015-.005 3.892.883 5.262 1.811a14.005 14.005 0 0 1 2.044 1.683l.054.055c-.838.819-1.47 1.98-1.723 3.488a.965.965 0 0 0 1.903.33c.282-1.547.9-2.338 1.675-2.852.779-.509 1.812-.711 2.869-.709 1.218-.001 2.432.264 3.182.472.774.212 1.919.646 2.79 1.303.882.675 1.444 1.452 1.449 2.543 0 .614-.185 1.382-.72 2.342-.511.921-1.254 1.615-1.873 2.07a7.419 7.419 0 0 1-.776.502l-.221.116-.052.026-.006.003a.961.961 0 0 0-.491 1.271.967.967 0 0 0 1.275.488c.072-.041 1.814-.799 3.195-2.589a.956.956 0 0 0 .34-.144c1.477-1.005 2.767-1.358 3.847-1.359 1.989-.011 3.421 1.251 3.894 2.383.244.575.381 1.246.38 1.903.001.746-.175 1.467-.517 2.038-.346.572-.834 1.01-1.584 1.275a.962.962 0 0 0-.595 1.226.967.967 0 0 0 1.23.593 4.83 4.83 0 0 0 2.61-2.11c.232-.389.396-.804.522-1.228a13.983 13.983 0 0 1 1.65-.119c1.205.001 2.391.215 3.4.907 1.006.694 1.932 1.894 2.519 4.165Zm-2.806-18.218c-.105 2.263-1.036 5.158-1.955 7.437a50.083 50.083 0 0 1-1.651 3.668l-.071.139c-.289.012-.568.028-.837.054a6.854 6.854 0 0 0-.514-2.478c-.783-1.84-2.849-3.55-5.675-3.561-.874-.001-1.809.194-2.775.565.12-.47.189-.927.189-1.365.006-1.85-1.054-3.223-2.22-4.082-1.176-.877-2.505-1.359-3.434-1.619-.134-.037-.301-.077-.459-.116.694-2.178 1.753-3.979 3.124-5.227 1.5-1.36 3.331-2.121 5.564-2.126.417 0 .847.027 1.292.084 2.588.327 4.989 1.389 6.7 2.883 1.716 1.5 2.729 3.38 2.729 5.436l-.007.308Z"/><path fill="#191C22" d="M97.856 187.533c-.305.051-.76.086-1.307.085-2.959.014-8.55-1.005-12.262-3.981a.969.969 0 0 0-1.358.154.96.96 0 0 0 .154 1.353c4.29 3.38 10.133 4.386 13.466 4.4.627 0 1.168-.036 1.624-.112a.962.962 0 1 0-.317-1.899Z"/></svg>