<svg xmlns="http://www.w3.org/2000/svg" width="200" height="200" fill="none"><path fill="#191C22" d="M177.158 159.144a9.552 9.552 0 0 0-2.28-3.355 8.176 8.176 0 0 0-1.78-1.337 4.673 4.673 0 0 0-2.207-.609 5.91 5.91 0 0 0-3.028.954l-.194.119v-13.049a1.309 1.309 0 0 0-.381-.92 1.305 1.305 0 0 0-.919-.38h-3.521a1.3 1.3 0 0 0-1.3 1.3v14.335a14.056 14.056 0 0 0 2.809 9.045 8.258 8.258 0 0 0 5.68 3.219c.162.01.322.016.481.016a8.01 8.01 0 0 0 5.581-2.368c.344-.339.634-.728.861-1.154.38-.895.553-1.865.504-2.837 0-.663-.042-1.332-.081-1.962a3.735 3.735 0 0 0-.225-1.017Zm-4.432 6.221a5.087 5.087 0 0 1-2.208.517 4.88 4.88 0 0 1-.315-.011 5.701 5.701 0 0 1-3.828-2.264 11.47 11.47 0 0 1-2.227-7.405v-13.035h.921v13.035l.001.01.002.022c-.01.641.129 1.276.406 1.854.36.713.972 1.267 1.718 1.555.492.19 1.016.285 1.543.282.17.001.339-.009.506-.031a1.299 1.299 0 0 0-.35-2.573v-.003l-.156.007-.03-.002c.313-.191.615-.38.916-.53a2.808 2.808 0 0 1 1.266-.35 2.32 2.32 0 0 1 1.14.393 7.122 7.122 0 0 1 1.928 1.851 2.498 2.498 0 0 0-1.809 2.392v2.694a2.49 2.49 0 0 0 .584 1.588l-.008.004ZM24.343 133.154c.06.082.132.153.197.231.226.372.541.682.918.901.403.309.843.567 1.308.769a7.6 7.6 0 0 0 3.045.61 8.96 8.96 0 0 0 5.4-1.835 9.263 9.263 0 0 0 3.425-5.602c.345-1.799.506-3.628.481-5.46 0-1.05-.034-1.956-.033-2.589v-10.626a1.296 1.296 0 0 0-1.265-1.299l-3.872-.106a1.299 1.299 0 0 0-1.335 1.3v11.257c0 .522.013 1.017.013 1.452.003.286-.007.542-.024.76a7.768 7.768 0 0 0-.585-.662 3.41 3.41 0 0 0-.951-.666 3.212 3.212 0 0 0-1.362-.29 4.53 4.53 0 0 0-1.825.438 7.543 7.543 0 0 0-2.554 1.926 7.051 7.051 0 0 0-1.633 3.329 14.26 14.26 0 0 0-.212 2.473c-.005.633.047 1.265.156 1.889.1.645.34 1.26.708 1.8Zm3.48-8.32a4.68 4.68 0 0 1 1.12-.725c.237-.118.496-.189.76-.21a.56.56 0 0 1 .35.094c.276.241.522.514.733.813.216.267.47.501.754.695.391.259.85.397 1.32.397a2.16 2.16 0 0 0 1.403-.493c.26-.224.468-.503.607-.818.166-.388.268-.8.304-1.221.038-.402.055-.805.051-1.209 0-.483-.013-.975-.013-1.452v-9.921l1.272.034v9.361c0 .714.033 1.593.033 2.589a24.535 24.535 0 0 1-.427 4.933 6.653 6.653 0 0 1-2.457 4.062 6.371 6.371 0 0 1-3.822 1.302 5.145 5.145 0 0 1-.62-.059c.125-.308.19-.637.192-.969v-2.947a2.617 2.617 0 0 0-2.614-2.615c-.068.001-.132.016-.198.021a4.925 4.925 0 0 1 1.253-1.662Z"/><path fill="#191C22" d="m181.706 98.823-.001-.002a2.626 2.626 0 0 0-.637-1.127 3.65 3.65 0 0 0-1.283-.834c-.402-.164-.764-.265-1.006-.347a1.473 1.473 0 0 0-.465-.075 1.684 1.684 0 0 0-.806.215 3.59 3.59 0 0 0-.785.61c-.047.047-.095.105-.142.154.117-.426.243-.9.394-1.474.039-.147.059-.3.059-.453a1.857 1.857 0 0 0-.234-.892 2.597 2.597 0 0 0-.832-.875 5.182 5.182 0 0 0-1.436-.653 5.572 5.572 0 0 0-1.53-.237 3.057 3.057 0 0 0-.823.103 1.995 1.995 0 0 0-.734.376c-.18-.069-.502-.188-.898-.314-.293-.093-.62-.189-.955-.265a4.915 4.915 0 0 0-1.06-.139 2.353 2.353 0 0 0-.541.059 1.695 1.695 0 0 0-.706.345 5.835 5.835 0 0 0-.529.468 7.067 7.067 0 0 0-1.186 1.752 29.36 29.36 0 0 0-1.34 3.156 69.867 69.867 0 0 0-.28-1.879c-.03-.174-.059-.334-.089-.48a3.987 3.987 0 0 0-.11-.43 1.492 1.492 0 0 0-.38-.599 1.816 1.816 0 0 0-.637-.39 3.38 3.38 0 0 0-.769-.177 6.403 6.403 0 0 0-.777-.045 7.06 7.06 0 0 0-1.626.18 3.363 3.363 0 0 0-.808.3 2.06 2.06 0 0 0-.44.317 1.657 1.657 0 0 0-.414.62 2.834 2.834 0 0 0-.149.74c-.02.232-.028.483-.028.76.009.952.078 1.903.205 2.846.099.793.255 1.578.466 2.349-.128.056-.253.096-.381.158a15.167 15.167 0 0 0-4.943 4.041 69.919 69.919 0 0 0-3.467 4.578 36.443 36.443 0 0 0-3.17 5.281c-.231.512-.609 1.288-.97 2.215a10.772 10.772 0 0 0-1.177-.068c-.876.003-1.749.098-2.605.283-.478.102-1.478.275-2.72.486-1.87.319-4.318.732-6.634 1.184a45.997 45.997 0 0 0-5.922 1.451c-.993.359-1.931.856-2.786 1.475a7.533 7.533 0 0 0-.74-1.117 3.626 3.626 0 0 0-1.215-.995 9.395 9.395 0 0 0-1.591-.554 58.909 58.909 0 0 0-9.205-1.326c-1.186-.1-2.441-.185-3.719-.261v-2.659a83.479 83.479 0 0 0 18.957-3.407c11.612-3.67 19.328-9.973 24.026-18.083a42.277 42.277 0 0 0 3.823-8.894c.193.099.409.145.626.135a16.644 16.644 0 0 0 2.331-.36 9.873 9.873 0 0 0 4.135-1.836 6.47 6.47 0 0 0 1.348-1.734 19.283 19.283 0 0 0 1.64-4.043 33.319 33.319 0 0 0 1.103-5.507c.168-1.42.253-2.848.257-4.277a24.765 24.765 0 0 0-.325-4.204 8.789 8.789 0 0 0-1.012-3.041 6.952 6.952 0 0 0-2.112-2.085c-.014-.01-.028-.016-.042-.025a8.332 8.332 0 0 0 1.652-2.86c.62-1.86 1.005-3.79 1.145-5.746.935-9.897 2.461-27.748 2.793-32.804.015-.233.023-.459.023-.678a7.128 7.128 0 0 0-.351-2.319 4.642 4.642 0 0 0-1.752-2.364 5.299 5.299 0 0 0-2.45-.87 6.18 6.18 0 0 0-.677-.038 5.104 5.104 0 0 0-3.414 1.229 5.894 5.894 0 0 0-1.833 3.99c-.409 4.228-1.753 20.546-2.622 31.182a51.748 51.748 0 0 0-.499-1.822c-2.811-9.428-8.228-17.577-17.346-23.268-9.114-5.696-21.828-8.946-39.247-8.947-11.616 0-21.132 1.445-28.893 4.096-11.64 3.965-19.322 10.708-23.981 19.161a46.835 46.835 0 0 0-4.373 11.369c-.867-10.612-2.254-27.464-2.67-31.771a5.894 5.894 0 0 0-1.833-3.99 5.104 5.104 0 0 0-3.414-1.229 6.16 6.16 0 0 0-.678.038 5.01 5.01 0 0 0-3.168 1.487 4.798 4.798 0 0 0-1.033 1.747 7.125 7.125 0 0 0-.351 2.319c0 .22.008.445.023.679.332 5.055 1.858 22.906 2.793 32.803.132 2.457.708 4.87 1.699 7.123a7.11 7.11 0 0 0 1.38 1.953 6.439 6.439 0 0 0-1.5 1.64 8.814 8.814 0 0 0-1.012 3.041 24.746 24.746 0 0 0-.324 4.204c.003 1.43.089 2.858.256 4.277.264 2.4.803 4.761 1.606 7.038a16.58 16.58 0 0 0 1.137 2.512c.348.65.803 1.237 1.348 1.734a9.878 9.878 0 0 0 4.135 1.837c.744.168 1.498.286 2.258.354.012.039.021.08.033.118A37.708 37.708 0 0 0 58.2 108.734c7.602 4.443 17.685 7.229 30.864 8.038v2.562c-1.742.108-3.413.239-4.964.39-2.092.205-3.965.447-5.516.727-.776.14-1.471.29-2.081.453a9.434 9.434 0 0 0-1.592.554 3.64 3.64 0 0 0-1.215.995 10.015 10.015 0 0 0-1.382 2.436 8.844 8.844 0 0 0-2.025-.235c-2.316.1-4.587.672-6.674 1.681-.514.23-1.506.713-2.81 1.398-1.952 1.025-4.574 2.489-7.14 4.151a37.807 37.807 0 0 0-6.831 5.392 14.168 14.168 0 0 0-2.887 4.4c-.121.304-.219.602-.307.898a19.911 19.911 0 0 0-3.698 1.431 19.383 19.383 0 0 0-5.892 4.575 13.431 13.431 0 0 0-1.636 2.397c-.024-.006-.042-.023-.067-.028a16.26 16.26 0 0 0-2.686-.284 5.483 5.483 0 0 0-1.1.097 2.797 2.797 0 0 0-.592.189 1.966 1.966 0 0 0-.647.462c-.22.243-.475.567-.779.97a43.8 43.8 0 0 0-.691.949 1.259 1.259 0 0 0-.63.044 3.78 3.78 0 0 0-.769.396 3.735 3.735 0 0 0-1.25 1.337c-.24.444-.829 1.608-1.399 2.771-.284.58-.56 1.154-.781 1.632-.111.239-.208.454-.288.639a5.156 5.156 0 0 0-.194.509 1.496 1.496 0 0 0 .196 1.288c.192.274.456.489.763.621.311.135.64.226.977.27.328.048.66.071.992.07.353.002.707-.026 1.056-.083a3.08 3.08 0 0 0 .943-.306 7.758 7.758 0 0 0 1.539 2.799 5.78 5.78 0 0 0 1.917 1.4c.85.354 1.747.588 2.663.694.361.056.668.107.886.165.128.026.251.073.364.14a5.799 5.799 0 0 0 1.97.807c1.125.256 2.27.427 3.42.512 1.114.093 2.089.126 2.637.126.11 0 .204-.001.289-.004l.133-.008c.073-.006.145-.018.217-.033v.001c.027-.005.154-.027.318-.053.588-.094 1.755-.27 2.806-.435a99.938 99.938 0 0 0 1.417-.231c.197-.034.366-.065.507-.093l.2-.043c.09-.021.18-.048.266-.082a7.677 7.677 0 0 0 1.364-.725c.328-.216.625-.476.883-.774a2.6 2.6 0 0 0 .384-.606c.121-.267.185-.558.186-.852a2.706 2.706 0 0 0-.297-1.193 13.408 13.408 0 0 0 2.683-2.303 30.09 30.09 0 0 0 3.82-5.475c.2-.374.386-.756.564-1.141a11.824 11.824 0 0 0 2.48-.851 37.575 37.575 0 0 0 8.702-6.606 242.6 242.6 0 0 0-1.38 25.221c-.044 5.468.246 10.934.867 16.368a1.304 1.304 0 0 0 .947 1.094 1.294 1.294 0 0 0 .989-.125 1.305 1.305 0 0 0 .61-.788 1.3 1.3 0 0 0 .034-.507 100.207 100.207 0 0 1-.594-6.719 150.522 150.522 0 0 1-.216-5.741 63.533 63.533 0 0 0 12.052 2.239 157.21 157.21 0 0 0 15.901.74c6.848.017 13.691-.347 20.498-1.091 2.515-.294 4.722-.637 6.569-1.021.068-.007.133-.01.2-.017l.03-.003.05-.004a1.27 1.27 0 0 0 .302-.098c.084-.018.181-.036.264-.055a22.013 22.013 0 0 0 2.593-.738l.032-.013c-.08 4.225-.311 8.193-.712 11.669-.033.284-.063.575-.098.851a1.297 1.297 0 0 0 1.126 1.453 1.299 1.299 0 0 0 1.453-1.126 134.59 134.59 0 0 0 .867-16.367 238.807 238.807 0 0 0-2.083-30.99c.141-.003.279-.004.423-.01a100.938 100.938 0 0 0 20.116-3.045 7.758 7.758 0 0 0 4.721-3.603 9.807 9.807 0 0 0 1.113-2.935 12.55 12.55 0 0 0 3.986-.789c3.841-1.431 10.052-5.195 15.42-13.248a7.699 7.699 0 0 0 1.302-4.326 9.094 9.094 0 0 0-.097-1.222 5.76 5.76 0 0 0 1.316-.338 4.625 4.625 0 0 0 2.506-2.31c.436-.958.65-2.003.624-3.056a12.983 12.983 0 0 0-.266-2.494c.257-.393.642-.992 1.035-1.655.337-.571.678-1.18.951-1.758a8.16 8.16 0 0 0 .351-.855c.11-.304.171-.625.179-.948.001-.16-.02-.319-.061-.473Zm-19.197-33.925c.201 1.241.297 2.497.286 3.754a34.751 34.751 0 0 1-.239 3.976 28.912 28.912 0 0 1-1.466 6.446c-.258.73-.577 1.437-.952 2.115a4.14 4.14 0 0 1-.772 1.04 7.509 7.509 0 0 1-3.027 1.284 15.092 15.092 0 0 1-1.69.28 71.353 71.353 0 0 0 1.902-17.283c0-2.257-.082-4.48-.246-6.668.818.177 1.619.42 2.397.727a9.95 9.95 0 0 1 1.863.957c.509.323.946.748 1.282 1.249a6.5 6.5 0 0 1 .662 2.123Zm-5.828-12.637c.809-9.931 2.487-30.415 2.947-35.174.012-.86.358-1.68.964-2.29a2.509 2.509 0 0 1 1.695-.579c.131 0 .262.008.392.022a2.424 2.424 0 0 1 1.558.683c.213.233.373.51.469.81.151.477.222.976.211 1.476 0 .16-.006.329-.017.508-.327 4.982-1.856 22.866-2.787 32.73-.097 2.1-.58 4.164-1.427 6.088-.214.437-.5.834-.846 1.175-.138.13-.288.244-.449.342a18.842 18.842 0 0 0-.978-.34 16.337 16.337 0 0 0-1.799-.46 1.254 1.254 0 0 0-.339.008c.063-.789.208-2.573.406-5ZM32.336 50.446c-.931-9.863-2.46-27.747-2.787-32.73a7.712 7.712 0 0 1-.017-.507c-.011-.5.06-.999.21-1.476.13-.431.401-.807.77-1.068.377-.243.81-.389 1.258-.425.13-.014.26-.021.392-.021a2.507 2.507 0 0 1 1.694.578c.607.61.953 1.43.965 2.29.307 3.168 1.156 13.338 1.926 22.698a15363.157 15363.157 0 0 1 1.437 17.594c-.787.187-1.56.426-2.315.716-.197.077-.406.178-.61.267a3.543 3.543 0 0 1-1.487-1.711 18.013 18.013 0 0 1-1.436-6.205Zm6.504 33.02a7.2 7.2 0 0 1-2.82-1.236 4.12 4.12 0 0 1-.773-1.042 16.82 16.82 0 0 1-1.403-3.487c-.48-1.66-.82-3.356-1.014-5.073a34.503 34.503 0 0 1-.24-3.976 22.181 22.181 0 0 1 .286-3.754c.098-.74.322-1.459.662-2.123.35-.519.805-.957 1.337-1.285a11.63 11.63 0 0 1 2.871-1.296c.21-.066.404-.12.58-.169a91.12 91.12 0 0 0-.226 6.485 71.43 71.43 0 0 0 1.884 17.182 14.468 14.468 0 0 1-1.144-.227Zm30.492 27.307c-11.125-3.539-18.178-9.377-22.565-16.91-4.381-7.538-6.069-16.876-6.067-27.353a68.5 68.5 0 0 1 2.523-19.567c2.69-8.959 7.684-16.453 16.233-21.81 8.553-5.35 20.763-8.552 37.87-8.55 11.401-.001 20.635 1.421 28.052 3.955 11.125 3.812 18.169 10.06 22.546 17.959 4.369 7.901 6.029 17.535 6.027 28.013a64.884 64.884 0 0 1-2.547 19.24 35.075 35.075 0 0 1-16.265 20.74c-8.559 5.009-20.769 7.935-37.813 7.933-11.36.001-20.58-1.298-27.994-3.65Zm-41.154 43.775c.23-.32.452-.618.641-.862.123-.159.224-.283.309-.384a3.07 3.07 0 0 1 .533-.037c.324.004.648.025.97.063-.154.202-.302.402-.428.594a5.243 5.243 0 0 0-.378.667 2.34 2.34 0 0 0-.2.659c-.256.261-.563.567-.882.866-.308.291-.626.575-.896.792a3.673 3.673 0 0 1-.502.355l-.056.004a1.676 1.676 0 0 1-.754-.235c.084-.149.189-.326.307-.514.371-.593.874-1.328 1.336-1.968Zm-3.194 4.899c-.167.2-.341.398-.49.55l-.196.187-.055.044c-.081.023-.163.04-.247.049a4.165 4.165 0 0 1-.473.029c.246-.523.544-1.139.844-1.744.227.263.494.489.792.669-.057.072-.115.143-.175.216Zm22.143 5.706a4.745 4.745 0 0 1-1.017.59c-.05.011-.15.031-.287.056-.61.111-1.768.291-2.785.448l-1.354.209a36.72 36.72 0 0 0-.459.073l-.158.027-.024.005a6.554 6.554 0 0 1-.18.002 32.954 32.954 0 0 1-3.468-.224 16.977 16.977 0 0 1-1.965-.338 3.678 3.678 0 0 1-1.074-.393 3.508 3.508 0 0 0-1.096-.51 16.547 16.547 0 0 0-1.752-.331 4.62 4.62 0 0 1-2.146-.796 3.536 3.536 0 0 1-.875-1.007 7.044 7.044 0 0 1-.754-1.929 1.273 1.273 0 0 0-.277-.516c.263-.341.44-.589.449-.601.024-.047.046-.095.064-.145.136-.028.269-.068.398-.119.455-.224.88-.508 1.26-.845.54-.45 1.085-.975 1.546-1.433.28.13.569.239.865.325.46.133.935.204 1.413.211.432.011.86-.082 1.248-.272.846-.43 1.635-.964 2.348-1.59a1.301 1.301 0 0 0-.84-2.25 1.3 1.3 0 0 0-.932.348 9.14 9.14 0 0 1-1.725 1.157l-.099.007a3.191 3.191 0 0 1-.922-.183c.012-.017.021-.032.034-.048.431-.578.907-1.121 1.423-1.624.46-.464.964-.881 1.506-1.246l.062-.005c.81.082 1.572.427 2.168.983a10.852 10.852 0 0 1 3.03 4.738 51.78 51.78 0 0 1 1.034 3.1 1.286 1.286 0 0 0 1.185.92 10.08 10.08 0 0 0-.95.333 1.298 1.298 0 0 0-.68 1.705 1.303 1.303 0 0 0 1.703.686l.002-.001c.264-.106.534-.198.807-.274a6.119 6.119 0 0 1 1.579-.252c.278-.01.555.037.814.139.268.14.51.325.714.548.08.086.15.18.21.281-.016.014-.024.025-.043.041ZM35.272 154.15Zm18.476.879a27.484 27.484 0 0 1-3.482 4.984c-.74.836-1.606 1.55-2.567 2.117a3.533 3.533 0 0 0-1.815-.568 6.387 6.387 0 0 0-4.322-7.852 10.89 10.89 0 0 0-2.185-2.527 6.889 6.889 0 0 0-2.835-1.456 17.23 17.23 0 0 1 4.584-3.407 16.794 16.794 0 0 1 7.422-1.852 9.904 9.904 0 0 1 3.724.652 5.227 5.227 0 0 1 2.434 1.894c.492.756.74 1.645.714 2.547a12.264 12.264 0 0 1-1.672 5.468Zm12.617-9.611a36.59 36.59 0 0 1-8.41 6.502c-.077.038-.166.065-.246.101.188-.773.29-1.563.307-2.357a5.771 5.771 0 0 0-8.18-7.739 14.833 14.833 0 0 0-1.288-.057c-.63.004-1.26.042-1.885.114a12.195 12.195 0 0 1 2.072-2.933 43.493 43.493 0 0 1 8.819-6.518 96.482 96.482 0 0 1 4.46-2.497 55.39 55.39 0 0 1 2.661-1.326 14.631 14.631 0 0 1 5.614-1.454c.379-.002.757.03 1.13.094-.068.216-.135.434-.201.659-.01.002-.021.001-.032.003a6.004 6.004 0 0 0-3.684 2.464 6.924 6.924 0 0 0-1.23 3.937 5.99 5.99 0 0 0 .724 2.915 4.922 4.922 0 0 0 1.886 1.886 171.048 171.048 0 0 0-.602 4.266 74.645 74.645 0 0 1-1.915 1.94Zm60.246 28.551c-.937.32-1.893.577-2.864.77-.318.024-.624.044-.94.068-.176.006-.354.015-.527.015a17.597 17.597 0 0 1-5.195-.845c-2.545-.77-5.129-1.982-8.153-3.026a32.066 32.066 0 0 0-10.76-1.896 35.133 35.133 0 0 0-13.61 2.974c-1.842.728-3.541 1.435-5.207 1.95a16.8 16.8 0 0 1-5.04.842c-.605 0-1.21-.039-1.81-.118a34.683 34.683 0 0 1-3.48-.98l-.014-.002c-.001-.282-.005-.56-.005-.844a233.799 233.799 0 0 1 2.308-32.383 90.032 90.032 0 0 1 2.433-11.877c.341-1.223.792-2.412 1.348-3.553.168-.337.37-.656.603-.952.09-.122.202-.226.331-.306.37-.163.753-.294 1.146-.391a57.018 57.018 0 0 1 8.752-1.246l.136-.01a18.061 18.061 0 0 0 11.839 4.335 20.82 20.82 0 0 0 7.17-1.3 15.765 15.765 0 0 0 4.965-2.835c.071-.067.134-.142.187-.224.684.056 1.356.114 1.999.177 2.043.2 3.858.436 5.307.698.724.13 1.356.267 1.871.405.393.097.776.228 1.146.39.128.081.241.185.331.307a8.737 8.737 0 0 1 1.189 2.262 49.605 49.605 0 0 1 2.146 7.998c1.996 10.02 3.359 25.153 3.357 38.506 0 .22-.003.435-.003.654a5.286 5.286 0 0 1-.956.437Zm24.499-40.063a5.124 5.124 0 0 1-3.168 2.419 98.523 98.523 0 0 1-19.549 2.955c-.211.01-.415.015-.613.015-.025 0-.047-.003-.072-.003-.107-.695-.217-1.376-.329-2.044a5.945 5.945 0 0 0 1.703-2.072 6.524 6.524 0 0 0 .649-2.869 6.751 6.751 0 0 0-1.311-4.037 5.342 5.342 0 0 0-1.62-1.439 4.868 4.868 0 0 0-2.022-.613l-.066-.184a8.69 8.69 0 0 1 2.575-1.493 29.647 29.647 0 0 1 3.351-.893c2.079-.458 4.566-.905 6.728-1.278 2.171-.375 3.988-.669 4.855-.852a9.881 9.881 0 0 1 2.065-.227c.143 0 .277.012.415.019a11.036 11.036 0 0 0-.219 2.13c0 .272.026.553.05.834a5.791 5.791 0 0 0 6.672 9.006l-.484-1.206.484 1.206c.098-.039.184-.094.278-.137a6.4 6.4 0 0 1-.372.763Zm20.592-17.089c-5.049 7.582-10.837 11.016-14.163 12.252a9.91 9.91 0 0 1-3.461.643 8.332 8.332 0 0 1-3.804-.887 5.586 5.586 0 0 1-2.257-1.985 6.467 6.467 0 0 1-.935-3.4 9.89 9.89 0 0 1 .624-3.268c.355-1.006.785-1.871 1.096-2.558a34.415 34.415 0 0 1 2.934-4.865 67.065 67.065 0 0 1 3.329-4.395 12.564 12.564 0 0 1 4.083-3.371c.112-.054.218-.088.328-.136.164.249.342.489.533.718.487.584 1.048 1.149 1.773 1.905-.018.184-.041.368-.041.554a5.801 5.801 0 0 0 7.963 5.381l-.484-1.206.484 1.206a5.772 5.772 0 0 0 1.696-1.067c.315.098.661.183 1.022.256.097.44.146.888.146 1.338a5.075 5.075 0 0 1-.866 2.885Zm7.055-16.564a28.007 28.007 0 0 1-1.25 2.164c-.203.322-.383.599-.512.794l-.15.227-.052.077a1.298 1.298 0 0 0-.192 1.024c.196.808.302 1.636.316 2.467a4.413 4.413 0 0 1-.36 1.914 2 2 0 0 1-1.126 1.034 3.58 3.58 0 0 1-1.312.227 7.393 7.393 0 0 1-2.501-.514 9.936 9.936 0 0 1-1.065-.475l-.052-.028-.009-.005a1.313 1.313 0 0 0-.63-.171l-.03-.001a6.844 6.844 0 0 1-1.891-.35 8.724 8.724 0 0 1-3.71-2.365c-1.052-1.117-1.762-1.811-2.222-2.368a5.338 5.338 0 0 1-1.003-1.769 12.23 12.23 0 0 1-.5-2.339 20.391 20.391 0 0 1-.183-2.506c0-.088.001-.165.004-.24a5.035 5.035 0 0 1 .861-.075c.074-.001.138.005.207.008.01.06.02.112.03.177.076.47.157 1.036.218 1.481l.102.769a1.303 1.303 0 0 0 .624.953l.162.098c.371.224 1.323.808 2.265 1.441.47.316.938.645 1.32.938.272.198.526.42.759.662a1.288 1.288 0 0 0 1.39.401 1.301 1.301 0 0 0 .595-2.08 8.542 8.542 0 0 0-1.356-1.192 29.09 29.09 0 0 0-1.059-.75 22.647 22.647 0 0 1 1.757-4.044c.117-.2.255-.385.413-.554.028-.028.055-.05.081-.074.088.012.201.032.321.06.368.088.731.195 1.087.322l.027.009-.016.035c-.718 1.656-1.494 3.727-1.498 3.738a1.299 1.299 0 0 0 .761 1.673c.323.121.681.109.995-.033.313-.143.558-.405.679-.727 0-.001.11-.294.286-.749a84.31 84.31 0 0 1 1.065-2.641c.195-.458.387-.886.545-1.209.047-.094.089-.176.128-.25.399.029.79.125 1.156.287.039.017.064.034.098.052a56.675 56.675 0 0 1-.485 1.757 19.43 19.43 0 0 1-.554 1.605 1.275 1.275 0 0 0-.074.271l-.55 3.466c-.046.294.009.595.157.853a1.3 1.3 0 0 0 2.214.065l.147-.221a62.46 62.46 0 0 1 2.035-2.875c.42-.554.841-1.073 1.163-1.413.046-.049.083-.084.124-.125a3.3 3.3 0 0 1 .485.196c.043.022.085.048.126.076a6.845 6.845 0 0 1-.361.822Z"/><path fill="#191C22" d="M122.196 105.104c9.969-2.754 16.532-7.453 20.517-13.43 3.988-5.975 5.371-13.104 5.37-20.629a42.624 42.624 0 0 0-2.179-14.293 28.1 28.1 0 0 0-5.343-9.21c-3.637-4.157-8.806-7.52-15.866-9.825-7.064-2.306-16.027-3.574-27.37-3.575-10.083 0-18.285 1.003-24.945 2.845-9.982 2.753-16.529 7.454-20.492 13.433-3.966 5.976-5.322 13.103-5.322 20.625a42.31 42.31 0 0 0 2.206 14.297 28.2 28.2 0 0 0 5.375 9.209c3.652 4.156 8.83 7.518 15.884 9.823 7.058 2.306 16 3.574 27.294 3.575 10.04-.001 18.22-1.003 24.871-2.845ZM57.191 50.458a25.479 25.479 0 0 1 2.783-2.96 1.3 1.3 0 0 1 1.748 1.924 22.89 22.89 0 0 0-2.5 2.659 1.3 1.3 0 1 1-2.03-1.623Zm10.395-5.045a1.3 1.3 0 0 1-1.192-2.31 48.609 48.609 0 0 1 13.872-4.412 1.3 1.3 0 0 1 .452 2.56 46.043 46.043 0 0 0-13.132 4.162Zm67.299 48.934c-.26.242-.527.48-.801.715a29.237 29.237 0 0 1-4.07 2.913c-.313.187-.631.37-.955.548a1.3 1.3 0 0 1-1.257-2.276c.3-.165.592-.334.879-.505a26.593 26.593 0 0 0 3.71-2.653c.247-.212.489-.428.724-.646a1.301 1.301 0 1 1 1.77 1.904ZM20.54 160.664v-.006.006Z"/><path fill="#FFD93A" d="M37.21 85.696a8.731 8.731 0 0 1-2.6-1.296v23.766l2.6.071v-22.54ZM165.959 127.058a32.072 32.072 0 0 1-2.6 1.904v11.605h2.6v-13.509ZM173.959 158.687a7.122 7.122 0 0 0-1.928-1.851 2.317 2.317 0 0 0-1.14-.393 2.808 2.808 0 0 0-1.266.35c-.301.15-.603.339-.915.53l.03.002.155-.007v.003a1.3 1.3 0 0 1 .351 2.573 3.726 3.726 0 0 1-.506.031 4.22 4.22 0 0 1-1.544-.282 3.229 3.229 0 0 1-1.718-1.555 4.141 4.141 0 0 1-.406-1.854l-.002-.022-.001-.01v-13.035h-.921v13.035a11.47 11.47 0 0 0 2.227 7.405 5.72 5.72 0 0 0 3.828 2.265 5.086 5.086 0 0 0 2.523-.507l.009-.004a2.49 2.49 0 0 1-.585-1.588v-2.694a2.5 2.5 0 0 1 1.809-2.392ZM29.383 129.09v2.947a2.621 2.621 0 0 1-.192.969c.205.032.412.052.62.059a6.371 6.371 0 0 0 3.822-1.302 6.653 6.653 0 0 0 2.456-4.062c.309-1.625.452-3.278.428-4.933 0-.996-.034-1.875-.034-2.589v-9.361l-1.272-.034v9.921c0 .477.013.968.014 1.452.004.403-.014.807-.052 1.209a3.965 3.965 0 0 1-.304 1.221 2.3 2.3 0 0 1-.607.818 2.16 2.16 0 0 1-1.403.493c-.47 0-.928-.138-1.32-.398a3.52 3.52 0 0 1-.754-.694 4.51 4.51 0 0 0-.733-.813.554.554 0 0 0-.35-.094c-.264.02-.523.092-.76.21a4.925 4.925 0 0 0-2.371 2.387c.066-.006.13-.02.197-.021a2.62 2.62 0 0 1 2.615 2.615ZM76.992 77.43a7.343 7.343 0 0 0 4.162 1.255c.133 0 .269-.003.406-.01a7.602 7.602 0 0 0 4.082-1.395 10.634 10.634 0 0 0 3.66-5.175 20.364 20.364 0 0 0 1.11-6.84 20.7 20.7 0 0 0-2.13-9.473 10.111 10.111 0 0 0-2.763-3.373 6.654 6.654 0 0 0-4.502-1.367 7.428 7.428 0 0 0-4.077 1.546 11.809 11.809 0 0 0-3.714 5.488 21.555 21.555 0 0 0-1.18 7.168 18.538 18.538 0 0 0 2.105 9.009 9.34 9.34 0 0 0 2.84 3.167ZM110.232 77.43a7.345 7.345 0 0 0 4.162 1.255c.134 0 .269-.003.406-.01a7.6 7.6 0 0 0 4.082-1.395 10.629 10.629 0 0 0 3.66-5.175 20.358 20.358 0 0 0 1.111-6.84 20.71 20.71 0 0 0-2.13-9.473 10.119 10.119 0 0 0-2.763-3.373 6.655 6.655 0 0 0-4.502-1.367 7.427 7.427 0 0 0-4.078 1.546 11.805 11.805 0 0 0-3.714 5.488 21.558 21.558 0 0 0-1.18 7.168 18.535 18.535 0 0 0 2.106 9.01 9.33 9.33 0 0 0 2.84 3.166ZM105.295 91.153l.115.003.024.001a2 2 0 0 0 .219-3.993 16.53 16.53 0 0 0-.848-.018 37.122 37.122 0 0 0-15.906 3.701 2.001 2.001 0 0 0 .261 3.687 2.001 2.001 0 0 0 1.527-.109 33.227 33.227 0 0 1 14.118-3.279c.217 0 .383.004.49.007Z"/><path fill="#FFD93A" d="M166.016 112.507c.275-.452.542-.911.798-1.377l.059-.113c.417-.763.807-1.548 1.176-2.348a48.497 48.497 0 0 0 2.862-8.159l.006-.022A1.301 1.301 0 0 0 169 99.05a1.297 1.297 0 0 0-.6.787c-.108.419-.239.813-.355 1.223a51.64 51.64 0 0 1-.845 2.7 40.985 40.985 0 0 1-1.512 3.768c-.368.8-.761 1.577-1.178 2.331-.238.431-.459.877-.713 1.293-.165.268-.346.522-.517.784a28.843 28.843 0 0 1-7.791 8.04 84.76 84.76 0 0 0 6.277-11.686c.084-.192.169-.385.25-.574.4-.93.757-1.811 1.076-2.635a68.915 68.915 0 0 0 1.548-4.435c.522-1.69.739-2.674.747-2.705a1.298 1.298 0 0 0-.477-1.296 1.197 1.197 0 0 0-.981-.26 1.29 1.29 0 0 0-1.082 1l-.005.02c-.035.158-.262 1.128-.761 2.716-.227.725-.512 1.58-.861 2.543a71.153 71.153 0 0 1-1.15 2.972 81.813 81.813 0 0 1-8.439 15.44 85.651 85.651 0 0 1-1.327 1.838 39.113 39.113 0 0 1-3.179 1.258 44.577 44.577 0 0 1-3.18.987 70.016 70.016 0 0 1-16.456 2.17c-.33.008-.642.028-.977.034-.468.007-.935.011-1.401.011-.622 0-1.232-.032-1.849-.046-.285-.006-.571-.011-.855-.021a78.203 78.203 0 0 1-16.799-2.338c-1.571-.4-3.115-.86-4.641-1.356a71.848 71.848 0 0 1-5.225-1.928 73.761 73.761 0 0 1-6.678-3.147 77.722 77.722 0 0 1-3.58-2.036 76.468 76.468 0 0 1-4.859-3.208 80.203 80.203 0 0 1-10.334-8.843c-.16-.163-.329-.316-.489-.481a85.587 85.587 0 0 1-3.453-3.808 100.051 100.051 0 0 1-17.182-29.165 118.313 118.313 0 0 1-2.238-6.257 129.57 129.57 0 0 1-4.124-16.275 139.92 139.92 0 0 1-.885-5.243 1.236 1.236 0 0 0-.092-.253 1.282 1.282 0 0 0-1.384-.842 1.3 1.3 0 0 0-1.096 1.476c.192 1.302.412 2.587.637 3.869.053.3.097.606.152.906.401 2.199.867 4.356 1.365 6.492a126.444 126.444 0 0 0 5.071 16.636 116.114 116.114 0 0 0 3.273 7.695A102.432 102.432 0 0 0 60.09 96.507a92.106 92.106 0 0 0 4.642 5.768 88.34 88.34 0 0 0 3.205 3.506 83.556 83.556 0 0 0 7.113 6.51 80.097 80.097 0 0 0 4.577 3.496 78.176 78.176 0 0 0 5.97 3.801c.227.131.448.272.676.4a76.57 76.57 0 0 0 14.444 6.285 79.955 79.955 0 0 0 22.478 3.655c.16.003.319.009.479.011.481.008.954.035 1.437.035.404 0 .808-.004 1.214-.01l.11-.001.12-.001a98.632 98.632 0 0 0 2.721-.082 72.591 72.591 0 0 0 13.977-1.848 52.121 52.121 0 0 0 3.89-1.107c-.247.294-.485.587-.739.881-.16.186-.322.371-.485.556l-.031.035a81.436 81.436 0 0 1-1.977 2.171 79.805 79.805 0 0 1-9.036 8.172 79.903 79.903 0 0 1-4.107 3 81.341 81.341 0 0 1-4.924 3.069 88.824 88.824 0 0 1-21.401 8.849 171.595 171.595 0 0 1-11.904 2.763 63.546 63.546 0 0 1-14.526-6.828 43.692 43.692 0 0 1-7.16-5.758 35.722 35.722 0 0 1-2.284-2.503 26.605 26.605 0 0 1-5.683-10.868 24.684 24.684 0 0 1-.164-.797 11.146 11.146 0 0 1-.232-1.965 2.23 2.23 0 0 1 .068-.632l.016-.044.003-.006-.005-.003c.101-.089.188-.195.257-.311.316-.154.593-.286.785-.371.416-.185.877-.379 1.37-.567a6.164 6.164 0 0 0-.878-.658 3.495 3.495 0 0 0-1.769-.547 2.303 2.303 0 0 0-1.463.508v.001h-.001l-.003.003a2.513 2.513 0 0 0-.79 1.209c-.136.46-.2.938-.19 1.418 0 .161.011.334.022.506.069.921.209 1.835.418 2.734l.018.086a29.92 29.92 0 0 0 7.25 13.155c.171.189.34.379.519.568a41.38 41.38 0 0 0 2.35 2.306 47.673 47.673 0 0 0 6.13 4.717 62.768 62.768 0 0 0 10.907 5.565 205.401 205.401 0 0 1-18.091 2.199c-.88.068-1.752.131-2.617.188-4.736.31-9.206.447-13.334.474-.512.004-1.032.009-1.534.009-.628 0-1.234-.006-1.844-.011a233.742 233.742 0 0 1-5.868-.119 217.812 217.812 0 0 1-10.417-.601 155.284 155.284 0 0 1-4.476-.436 4.728 4.728 0 0 1-.957.612 2.391 2.391 0 0 1-.397.119c-.019.05-.04.098-.065.145-.01.012-.186.26-.449.601.131.148.226.325.277.516.04.162.085.308.129.454 2.163.266 7.004.788 13.732 1.09.121-.128.267-.229.428-.299a9.782 9.782 0 0 1 1.066-.369 8.665 8.665 0 0 1 2.344-.367 4.55 4.55 0 0 1 1.89.373c.432.204.83.471 1.184.792.025.023.048.052.072.075.839.012 1.696.02 2.57.023l.781.002c4.505 0 9.46-.131 14.732-.468.861-.055 1.735-.12 2.612-.186a204.193 204.193 0 0 0 23.108-3.056c9.092 2.959 20.58 4.981 35.021 5.378.866.023 1.719.055 2.607.067l.092.002a1.298 1.298 0 0 0 1.309-1.283 1.299 1.299 0 0 0-1.275-1.317c-.082-.001-.158-.005-.239-.006-.888-.013-1.743-.042-2.608-.067a129.616 129.616 0 0 1-29.514-3.888c2.439-.547 4.889-1.153 7.351-1.818a91.783 91.783 0 0 0 21.049-8.53 79.17 79.17 0 0 0 2.455-1.438 83.523 83.523 0 0 0 7.294-4.965 82.264 82.264 0 0 0 9.687-8.677 85.021 85.021 0 0 0 1.782-1.926c.111-.123.219-.247.328-.37a81.722 81.722 0 0 0 4.291-5.272 34.826 34.826 0 0 0 5.488-3.225 31.46 31.46 0 0 0 7.937-8.354c.196-.299.394-.597.581-.903ZM86.686 14.082c.029.118.07.238.1.356.221.857.488 1.702.8 2.53a37.995 37.995 0 0 0 5.934 10.136 58.941 58.941 0 0 0 6.709 7.08 67.729 67.729 0 0 0 3.218 2.702 71.903 71.903 0 0 0 10.677 7.039c8.08 4.33 17.12 7.158 26.016 7.284.202.003.404.012.606.012.825 0 1.648-.032 2.469-.081a37.475 37.475 0 0 0 8.913-1.596 34.818 34.818 0 0 0 2.228-.772c.137-.053.276-.098.412-.153a1.298 1.298 0 0 0 .722-1.69 1.327 1.327 0 0 0-1.575-.744c-.038.011-.077.006-.115.021-.775.311-1.561.58-2.353.828-3.241 1-6.609 1.53-10.001 1.573-.233.004-.466.014-.7.014-.938.001-1.882-.043-2.827-.107-10.354-.698-21.012-5.16-29.736-11.316-.143-.1-.29-.197-.431-.299a65.624 65.624 0 0 1-3.356-2.567 58.499 58.499 0 0 1-8.84-8.845 36.416 36.416 0 0 1-5.253-8.705 23.373 23.373 0 0 1-.879-2.553c-.07-.251-.15-.504-.209-.752a1.3 1.3 0 0 0-2.528.605Z"/><path fill="#FFD93A" d="M94.032 14.165c.028.027.993.99 2.758 2.424a63.254 63.254 0 0 0 7.787 5.388c6.611 3.881 15.977 7.787 26.986 7.79a46.19 46.19 0 0 0 8.721-.835 47.435 47.435 0 0 0 3.061-.695c.092-.024.184-.044.276-.069a1.299 1.299 0 0 0 .308-2.377 1.298 1.298 0 0 0-.981-.134c-.653.175-1.3.328-1.945.47a43.5 43.5 0 0 1-3.432.618c-1.99.28-3.998.42-6.008.422-10.381.002-19.321-3.702-25.669-7.432a61.31 61.31 0 0 1-7.412-5.12 49.887 49.887 0 0 1-1.96-1.677c-.221-.2-.387-.357-.496-.46l-.121-.118-.028-.027-.006-.006a1.301 1.301 0 0 0-1.839 0 1.286 1.286 0 0 0-.086 1.709c.026.045.055.088.086.13Z"/></svg>