<svg xmlns="http://www.w3.org/2000/svg" width="200" height="200" fill="none"><path fill="#FFD93A" d="M5.167 77v-9.833L86.75 57.75l48.917-5.667.666 4.334-23.25 10 19.75 1.833-.166 14L107.5 97.833 82.5 99 63.083 73.417l-56.75 13.75L5.167 77ZM151.333 56.75l43.5 20.917v-5.25l-7.416-15.334-33.917-5-2.167 4.667ZM5.125 117.438v4.75l4.375 16.25 36.75 9.25-1.312-5.375-39.813-24.875ZM61.875 141.5l1.563 4.5 131.437-15.75v-10l-9.312-9.187L61.875 141.5Z"/><path fill="#191C22" d="M194.831 128.946a1.1 1.1 0 0 0-.152-.013l-8.024.945-19.493-12.955 15.66-3.888 12.009 8.406.169.119-.006-11.546.15-.037c.332-.085.618-.298.793-.593a1.296 1.296 0 0 0-.441-1.777 1.3 1.3 0 0 0-.978-.153l-37.239 9.243a88.557 88.557 0 0 0 3.069-12.075c.106-.64.159-1.288.16-1.936a10.49 10.49 0 0 0-1.953-6.145c.048-.117.101-.23.146-.35a45.794 45.794 0 0 0 2.076-8.757 6.93 6.93 0 0 0 1.284-.824 6.388 6.388 0 0 0 1.325-1.703 18.915 18.915 0 0 0 1.606-3.959 32.539 32.539 0 0 0 1.079-5.39c.164-1.387.248-2.784.251-4.181a24.254 24.254 0 0 0-.318-4.117 10.926 10.926 0 0 0-.575-2.116l28.821 14.41a1.299 1.299 0 1 0 1.162-2.326l-.581-.29-14.544-7.272-7.722-13.64 12.356 1.747 9.91 15.371.122.19-.122-11.948-.023-2.248.023-.001a1.284 1.284 0 0 0 1.039-2.058 1.3 1.3 0 0 0-.857-.506l-29.24-4.132c.918-9.872 2.292-25.978 2.601-30.697.015-.227.022-.449.022-.664a7.005 7.005 0 0 0-.344-2.276 4.569 4.569 0 0 0-1.723-2.327 5.211 5.211 0 0 0-2.409-.855 6.04 6.04 0 0 0-.666-.037 5.016 5.016 0 0 0-3.356 1.208 5.79 5.79 0 0 0-1.802 3.92c-.376 3.892-1.562 18.256-2.409 28.603-.24-.138-.487-.251-.733-.366a38.905 38.905 0 0 0-16.823-22.302c-8.917-5.573-21.353-8.751-38.387-8.752-11.36 0-20.665 1.413-28.257 4.006-11.386 3.878-18.903 10.476-23.461 18.747a45.718 45.718 0 0 0-4.236 10.954c-.848-10.384-2.191-26.701-2.596-30.89a5.793 5.793 0 0 0-1.802-3.92 5.016 5.016 0 0 0-3.356-1.208c-.223 0-.445.013-.666.037a4.926 4.926 0 0 0-3.116 1.463 4.722 4.722 0 0 0-1.016 1.718 6.999 6.999 0 0 0-.345 2.277c0 .215.007.437.023.665.324 4.945 1.817 22.396 2.73 32.072.13 2.406.694 4.769 1.664 6.974.195.397.424.777.685 1.134L5.019 65.367a1.302 1.302 0 0 0-1.148 1.436 1.286 1.286 0 0 0 1.292 1.136c.047.007.095.01.143.012l5.153-.572 20.367 13.325-13.882 3.315-11.781-7.48-.057-.036.052 10.33-.297.07a1.3 1.3 0 0 0 .604 2.53l30.17-7.204c.024.07.046.15.07.218.303.85.676 1.672 1.115 2.46a6.37 6.37 0 0 0 1.325 1.703 9.678 9.678 0 0 0 4.054 1.802c.722.163 1.454.278 2.191.344l.028.098a36.898 36.898 0 0 0 17.059 21.733c7.432 4.343 17.286 7.068 30.161 7.86v2.459c-1.646.104-3.228.228-4.697.371-2.046.201-3.878.437-5.395.711-.76.137-1.44.284-2.037.443a9.354 9.354 0 0 0-1.561.544 3.603 3.603 0 0 0-1.198.98 10.862 10.862 0 0 0-1.576 2.912c-.173.438-.34.916-.505 1.416l-.531-.093a7.8 7.8 0 0 0-1.275-.14 3.665 3.665 0 0 0-.363.021 5.83 5.83 0 0 0-.34-1.015 5.57 5.57 0 0 0-1.983-2.324 6.072 6.072 0 0 0-3.467-1.043 10.131 10.131 0 0 0-4.376 1.152 31.265 31.265 0 0 0-7.752 5.893 83.446 83.446 0 0 0-7.974 9.296c-.65.236-1.281.521-1.888.853L5.875 115.449a1.283 1.283 0 0 0-.471-.192 1.295 1.295 0 0 0-1.524 1.036 1.301 1.301 0 0 0 .57 1.331l.713.467 13.733 8.991 6.93 14.054-12.746-3.338-7.917-16.382-.082-.17L5 135.782a1.297 1.297 0 0 0-.167 2.543l33.777 8.847a4.09 4.09 0 0 0-.096.681l-.006.236c.013.776.166 1.543.452 2.265a47.078 47.078 0 0 0-.822 2.504 33.342 33.342 0 0 0-.872 3.703c-.09.525-.167 1.052-.221 1.579a18.772 18.772 0 0 0-.107 1.91 11.64 11.64 0 0 0 .755 4.348 7.78 7.78 0 0 0 2.774 3.528 10.68 10.68 0 0 0 6.146 1.99 9.839 9.839 0 0 0 4.058-.867 10.83 10.83 0 0 0 3.934-3.204c.243-.306.455-.636.676-.959a26.695 26.695 0 0 0 2.885-4.469c.286-.545.861-1.592 1.607-2.94.206.027.414.042.621.046.311.006.62-.046.912-.152l.002-.001a2.67 2.67 0 0 0 .753-.469c.372-.319.688-.698.933-1.122a3.54 3.54 0 0 0 .496-1.764c0-.464-.103-.922-.3-1.342a3.537 3.537 0 0 0-.392-.641c.96-1.73 1.966-3.546 2.924-5.293l5.529-.651a236.298 236.298 0 0 0-1.637 27.183c-.042 5.348.241 10.694.849 16.007a1.301 1.301 0 0 0 2.543.18 1.3 1.3 0 0 0 .036-.506 97.78 97.78 0 0 1-.58-6.562c-.103-1.79-.173-3.655-.21-5.577a62.316 62.316 0 0 0 11.75 2.179c5.168.503 10.357.745 15.549.724 6.696.017 13.387-.34 20.044-1.067 2.457-.287 4.614-.623 6.421-.998.066-.007.13-.01.196-.017l.029-.002v-.001l.05-.004c.102-.02.202-.052.296-.095.083-.019.178-.036.259-.055a21.535 21.535 0 0 0 2.531-.72c-.079 4.115-.305 7.978-.695 11.363-.032.277-.062.561-.096.832a1.29 1.29 0 0 0 .262.959 1.314 1.314 0 0 0 .865.494 1.31 1.31 0 0 0 .959-.263 1.302 1.302 0 0 0 .493-.864 131.43 131.43 0 0 0 .848-16.003 231.218 231.218 0 0 0-2.251-31.797c.49-.078 1.134-.149 1.733-.256.129-.023.255-.049.381-.078.261.494.593.945.987 1.339a5.666 5.666 0 0 0 1.963 1.232l.46-1.216-.46 1.216a9.505 9.505 0 0 0 3.37.639 10.208 10.208 0 0 0 6.766-2.824 21.525 21.525 0 0 0 3.788-4.57l46.232-5.445a1.301 1.301 0 0 0 1.139-1.443 1.284 1.284 0 0 0-1.291-1.126Zm-36.923-26.26a9.422 9.422 0 0 1-.126 1.518 91.385 91.385 0 0 1-3.48 13.232l-17.985 4.464c.489-2.01 1.013-4.138 1.526-6.203 1.307-5.258 2.538-10.105 2.904-11.553a21.817 21.817 0 0 1 2.115-5.545l.035-.056c.231.396.491.775.778 1.133.255.308.531.597.828.864a5.678 5.678 0 0 0 10.889.196 9.363 9.363 0 0 0 1.68-1.637 7.971 7.971 0 0 1 .836 3.587Zm-35.656 34.777-10.708-6.735 15.619-3.877 12.43 8.57-17.341 2.042Zm-32.24 3.797-6.229-3.641 15.56-3.862 8.049 5.456-17.38 2.047Zm34.868-17.304a3.587 3.587 0 0 0-1.197-.981 9.37 9.37 0 0 0-1.561-.544 57.827 57.827 0 0 0-9.005-1.297 153.64 153.64 0 0 0-3.74-.261v-2.537a81.667 81.667 0 0 0 18.513-3.33 51.005 51.005 0 0 0 8.3-3.422 1597.78 1597.78 0 0 0-1.433 5.76 988.26 988.26 0 0 0-1.285 5.262l-8.114 2.014a6.491 6.491 0 0 0-.478-.664Zm29.213-63.253c-.488.4-1.018.744-1.58 1.03a3.976 3.976 0 0 1-1.31.42 17.39 17.39 0 0 1-1.71.077c-1.668.003-3.412-.192-5.478-.194-.086 0-.184.008-.271.009.223-.076.46-.147.665-.23a2.932 2.932 0 0 0 1.574-1.57c.25-.597.374-1.238.363-1.885-.001-.164-.028-.316-.04-.476l.002-.001c.185-.124.353-.272.498-.44.331.105.67.184 1.014.235a10.776 10.776 0 0 0 2.736.029l4.41 2.205c-.277.28-.568.543-.873.79Zm-49.387 33.843a13.8 13.8 0 0 1-2.205.29c-.876.062-1.866.096-2.818.096a20.343 20.343 0 0 1-3.192-.195 3.272 3.272 0 0 1-2.713-3.243 3.251 3.251 0 0 1 2.747-3.25c.412-.06.942-.1 1.578-.13.632-.03 1.357-.047 2.096-.047 1.225-.016 2.451.049 3.668.194.321.042.638.113.946.213a3.65 3.65 0 0 1 1.57 1.04c.477.55.738 1.253.736 1.98.003.725-.25 1.429-.714 1.987a3.25 3.25 0 0 1-1.699 1.065l-.321-1.26.321 1.26ZM64.134 56.01a1.3 1.3 0 0 1-2.032-1.623 23.941 23.941 0 0 1 2.616-2.781 1.3 1.3 0 0 1 1.748 1.924 21.342 21.342 0 0 0-2.332 2.48Zm7.803-6.221a1.3 1.3 0 0 1-1.19-2.311 45.638 45.638 0 0 1 13.01-4.139 1.3 1.3 0 0 1 .452 2.56 43.07 43.07 0 0 0-12.272 3.89Zm32.095 7.192 7.01 4.57-13.923 3.324-9.753-6.042 16.666-1.852Zm19.78 1.52-5.203-3.14 16.088-1.787c-.003.574.029 1.149.096 1.72.026.188.062.375.108.56l-11.089 2.648Zm-15.388 13.482a1.3 1.3 0 0 1 1.181-1.294c.026-.003 4.146-.383 9.46-.384 2.668 0 5.638.096 8.551.388a1.302 1.302 0 0 1 1.17 1.293v6.317a1.3 1.3 0 0 1-1.141 1.29 92.227 92.227 0 0 1-10.925.587c-4.09 0-7.064-.202-7.084-.203a1.303 1.303 0 0 1-1.212-1.297v-6.697Zm19.814 25.255c.28-.155.554-.312.821-.471a24.831 24.831 0 0 0 3.462-2.476c.232-.2.457-.4.674-.602a1.306 1.306 0 0 1 1.428-.235 1.31 1.31 0 0 1 .679.73 1.298 1.298 0 0 1-.334 1.406c-.245.23-.497.454-.753.674A27.486 27.486 0 0 1 130.391 99c-.293.175-.591.346-.893.513a1.3 1.3 0 0 1-1.26-2.275Zm9.677-38.687a1.58 1.58 0 0 1 .116-.662c.066-.11.045-.077.093-.103.759-.22 1.538-.37 2.325-.448.858-.103 1.721-.16 2.586-.167.201 0 .371.006.513.014.033.085.06.171.082.26.076.299.115.606.116.915.009.284-.039.567-.14.832-.088.178-.12.187-.174.214-.726.282-1.474.502-2.236.658a11.52 11.52 0 0 1-2.234.278 2.785 2.785 0 0 1-.55-.043 2.22 2.22 0 0 1-.292-.586c-.13-.374-.2-.766-.205-1.162Zm13.986-8.679c.009.085.012.17.012.255a8.448 8.448 0 0 1-.186 1.561 12.633 12.633 0 0 1-.819 2.61 4.09 4.09 0 0 1-.444.78l-.028.032a7.788 7.788 0 0 1-1.08.07 7.412 7.412 0 0 1-1.571-.151c.035-.296.087-.654.155-1.045.188-1.084.482-2.422.77-3.51.143-.544.287-1.03.407-1.373l.016-.045c.151.017.325.042.522.083a11.6 11.6 0 0 1 1.604.463c.244.09.462.182.619.258l.023.012Zm-6.214 2.08a38.92 38.92 0 0 0-.377 2.002c-.064.404-.106.757-.136 1.089a1.811 1.811 0 0 0-.571-.317 3.442 3.442 0 0 0-.748-.127c-.249-.02-.522-.028-.82-.028-.164 0-.34.005-.518.01.11-.922.245-2.032.395-3.076.12-.833.251-1.624.378-2.21.063-.291.127-.533.175-.68l.013-.035c.146-.082.303-.145.466-.185a4.29 4.29 0 0 1 1.091-.134c.385-.006.769.049 1.137.161.106.034.207.08.301.14.004.022.007.04.01.07.004.041.007.091.01.143a39.244 39.244 0 0 0-.806 3.178Zm-5.478.122c-.131.99-.246 1.96-.335 2.718-.683.083-1.359.207-2.027.372-.042-.008-.093-.013-.133-.022a4.173 4.173 0 0 1-.325-.083 10.974 10.974 0 0 1-.096-1.64 32.8 32.8 0 0 1 .188-3.35c.029-.255.063-.459.073-.497l.059-.07a2.22 2.22 0 0 1 .92-.34 8.47 8.47 0 0 1 1.557-.127c.21 0 .409.006.597.015-.179.889-.335 1.957-.478 3.024ZM72.84 60.447l11.464 7.488-13.902 3.32-14.27-8.951 16.708-1.857Zm12.551 9.901c1.867.051 3.804.153 5.725.345a1.301 1.301 0 0 1 1.17 1.293v6.317a1.302 1.302 0 0 1-1.141 1.29 92.22 92.22 0 0 1-10.925.587c-4.09 0-7.063-.202-7.083-.203a1.302 1.302 0 0 1-1.212-1.297v-5.116l13.466-3.215Zm73.038 15.128a47.356 47.356 0 0 1-2.164 9.805 7.205 7.205 0 0 1-2.838 3.658 6.737 6.737 0 0 1-3.615 1.064c-.667.01-1.33-.11-1.953-.35a5.41 5.41 0 0 1-2.17-1.62 9.436 9.436 0 0 1-1.704-3.75 30.797 30.797 0 0 1-.585-3.698c-.089-.718-.205-2.29-.322-4.234-.353-5.845-.74-15.27-.777-17.778-.003-.171-.004-.34-.004-.506a25.14 25.14 0 0 1 .214-3.38c.515-.031 1.019-.051 1.504-.051.503 0 .993.013 1.478.033a5.667 5.667 0 0 0 7.459 1.36 5.695 5.695 0 0 0 2.415-3.026 13.657 13.657 0 0 0 2.024-1.878l1.035.517c.195.603.327 1.225.392 1.855.294 2.992.438 5.997.431 9.003.004 4.338-.27 8.673-.82 12.976Zm5.06-10.218a28.26 28.26 0 0 1-1.431 6.296 14.65 14.65 0 0 1-.767 1.76c.37-3.593.556-7.202.558-10.814 0-2.738-.115-5.467-.343-8.097.016.01.034.018.049.028.494.313.918.726 1.244 1.212.332.647.55 1.346.644 2.067.197 1.212.29 2.439.279 3.667a33.787 33.787 0 0 1-.233 3.88ZM152.957 56a9.03 9.03 0 0 0 .203-.384c.335-.714.605-1.456.809-2.218l7.558 1.068 4.197 7.917-12.767-6.383Zm7.726-35.038a3.215 3.215 0 0 1 .934-2.22 2.42 2.42 0 0 1 1.637-.558c.128 0 .255.008.382.022.564.03 1.098.264 1.504.657.205.226.359.492.452.782.146.464.215.948.204 1.434 0 .155-.005.32-.016.496v-.001c-.303 4.628-1.668 20.646-2.585 30.502l-5.032-.711-.032-.04c.85-10.4 2.159-26.285 2.552-30.363ZM46.877 50.158c2.63-8.753 7.506-16.073 15.859-21.306 8.355-5.227 20.286-8.357 37.008-8.356 11.145 0 20.169 1.39 27.416 3.866 10.871 3.726 17.751 9.828 22.026 17.545a39.73 39.73 0 0 1 2.326 5.038c-.108-.034-.213-.068-.323-.1a9.027 9.027 0 0 0-2.329-.41 2.85 2.85 0 0 0-.691.078c-.026.006-.055.016-.081.024a3.75 3.75 0 0 0-1.084-.578 6.232 6.232 0 0 0-1.969-.298 6.775 6.775 0 0 0-1.885.257 3.991 3.991 0 0 0-1.278.614 16.792 16.792 0 0 0-1.782-.097 9.51 9.51 0 0 0-2.759.35 4.032 4.032 0 0 0-1.371.71c-.041.033-.078.075-.118.111a37.052 37.052 0 0 0-10.446-5.175c-6.625-2.163-15.025-3.35-25.652-3.352-9.446 0-17.133.94-23.377 2.667-9.36 2.582-15.511 6.994-19.234 12.611a26.961 26.961 0 0 0-2.799 5.53l-9.515 1.058a57.944 57.944 0 0 1 2.058-10.787ZM33.51 21.575v-.002a7.451 7.451 0 0 1-.017-.493c-.011-.486.058-.97.204-1.433.125-.416.386-.779.741-1.03a2.633 2.633 0 0 1 1.217-.41 3.47 3.47 0 0 1 .381-.022 2.42 2.42 0 0 1 1.637.559c.587.59.922 1.387.933 2.22.3 3.097 1.13 13.04 1.883 22.19a14842.633 14842.633 0 0 1 1.403 17.177c-.762.182-1.512.414-2.243.695-.189.073-.39.171-.584.256a3.45 3.45 0 0 1-1.43-1.654 17.594 17.594 0 0 1-1.4-6.056c-.911-9.642-2.407-27.127-2.725-31.997ZM24.9 65.774l16.75-1.861 15.914 10.406-13.89 3.317-18.774-11.862Zm17.67 20.054a7.01 7.01 0 0 1-2.745-1.201 4 4 0 0 1-.75-1.01 13.757 13.757 0 0 1-.897-1.996l4.404-1.051c.272 1.87.622 3.697 1.062 5.474a14.121 14.121 0 0 1-1.074-.216Zm29.813 26.699c-10.87-3.458-17.759-9.161-22.044-16.52a43.934 43.934 0 0 1-5.225-16.042l7.223-1.725c.243 3.03.87 6.017 1.868 8.888a26.484 26.484 0 0 0 5.049 8.649c3.43 3.903 8.293 7.06 14.908 9.221 6.62 2.163 15 3.35 25.581 3.351 9.405 0 17.071-.939 23.308-2.667 8.594-2.373 14.492-6.296 18.297-11.276.092.426.197.862.328 1.304a20.983 20.983 0 0 0-3.45 7.796c-.191.753-.618 2.435-1.166 4.613-.123.073-.239.151-.362.223-8.362 4.894-20.294 7.754-36.955 7.752-11.104.001-20.116-1.269-27.36-3.567Zm4.466 17.482a20.468 20.468 0 0 1 1.315-3.469c.164-.328.36-.638.587-.925.085-.116.192-.215.313-.292a6.76 6.76 0 0 1 1.115-.38 55.664 55.664 0 0 1 8.552-1.218h.003a17.686 17.686 0 0 0 11.572 4.229 20.368 20.368 0 0 0 7.02-1.273 15.44 15.44 0 0 0 4.864-2.778c.069-.066.131-.139.184-.219a120.7 120.7 0 0 1 2.061.181c1.997.195 3.771.426 5.187.682.707.128 1.324.261 1.827.396a7.01 7.01 0 0 1 1.102.374l-47.327 11.747a69.59 69.59 0 0 1 1.625-7.055Zm-23.588 5.919a48.793 48.793 0 0 1 7.301-6.949 17.955 17.955 0 0 1 3.362-2.01 7.08 7.08 0 0 1 2.785-.68 3.453 3.453 0 0 1 2.007.594c.47.305.842.737 1.075 1.246.224.528.332 1.098.318 1.672a11.562 11.562 0 0 1-.785 3.712c-.445 1.246-.97 2.367-1.304 3.209-.114.291-.383.866-.748 1.592-.127.253-.275.54-.424.83l-4.533 1.125a3.264 3.264 0 0 0-.444-.383 5.37 5.37 0 0 0-2.163-.831 10.778 10.778 0 0 0-1.872-.155c-.519 0-.867.032-.896.034l.001.016c-.254.02-.497.11-.703.26-.021.018-.033.033-.052.05a2.757 2.757 0 0 0-1.148-.611 4.581 4.581 0 0 0-1.206-.149c-.839.006-1.67.166-2.451.471-.134.053-.262.117-.391.179a8.278 8.278 0 0 0-.39-.028 85.856 85.856 0 0 1 2.66-3.194Zm-7.106 7.187h-.001l-.539-.481.54.481Zm.843.175c.454-.211.924-.388 1.405-.53.24-.074.486-.133.734-.178.229.691.418 1.394.567 2.105.145.658.273 1.32.369 1.859a3.707 3.707 0 0 1-.508.133 6.529 6.529 0 0 1-1.239.127l-.064-.002a2.404 2.404 0 0 1-.355-.411 7.413 7.413 0 0 1-.838-1.63 5.122 5.122 0 0 1-.333-1.339c.075-.042.161-.088.261-.134Zm4.85-.786a4.398 4.398 0 0 1-.109-.781.997.997 0 0 1 .143-.107 4.039 4.039 0 0 1 1.95-.516c.175-.003.35.016.52.057l.032.012c.025.051.053.113.084.19.35.96.632 1.943.842 2.942.13.58.242 1.159.321 1.667.057.361.096.686.115.939a2.4 2.4 0 0 1-.529.173 5.637 5.637 0 0 1-1.194.125c-.045 0-.084-.003-.128-.004a4.728 4.728 0 0 1-.636-.937 15.392 15.392 0 0 1-1.251-3.118l-.06-.234c-.037-.14-.074-.281-.1-.408Zm7.813 3.211a8.434 8.434 0 0 1-1.076-2.62 12.23 12.23 0 0 1-.287-1.583c.477.016.951.086 1.413.207.233.06.456.157.658.289a.48.48 0 0 1 .197.222c.105.281.345.99.546 1.731.101.371.193.754.257 1.093.04.205.068.412.084.62a3.342 3.342 0 0 1-1.118.211c-.18.005-.36-.022-.531-.079-.112-.046-.127-.071-.143-.091Zm.19 2.733c.163.016.327.036.485.037a5.813 5.813 0 0 0 1.588-.239 1345.046 1345.046 0 0 1-1.123 2.028c-.235-.166-.488-.33-.761-.495a11.046 11.046 0 0 0-.189-1.331Zm-22.815-4.376-3.217-7.218 10.34 6.77c.037.5.131.995.279 1.474.105.34.247.678.39 1.015l-7.792-2.041Zm17.81 16.299a18.224 18.224 0 0 1-2.273 3.852 8.258 8.258 0 0 1-2.975 2.458 7.262 7.262 0 0 1-2.985.635 8.078 8.078 0 0 1-4.652-1.518 5.16 5.16 0 0 1-1.856-2.37 9.083 9.083 0 0 1-.567-3.378 23.713 23.713 0 0 1 1.094-6.459c.034-.115.073-.225.107-.339.397.464.831.894 1.3 1.284a9.224 9.224 0 0 0 2.34 1.386 5.685 5.685 0 0 0 3.957 2.547 5.679 5.679 0 0 0 5.377-2.26c.32.036.636.089.949.16l1.545.363a32.55 32.55 0 0 1-1.361 3.639Zm5.782-5.72a1.711 1.711 0 0 1-.25.268l-.004.003a9.206 9.206 0 0 1-1.512-.249c-.839-.181-2.008-.461-3.607-.835a11.89 11.89 0 0 0-2.75-.306c-1.95.008-3.577.368-5.053.359a8.68 8.68 0 0 1-.825-.037 6.277 6.277 0 0 1-3.81-2.154 7.613 7.613 0 0 1-1.27-1.886 4.242 4.242 0 0 1-.439-1.725l.003-.113c.005-.048.012-.096.022-.143l4.762 1.247c.16.041.325.052.489.032l.554-.068c.065.041.126.083.198.12.263.137.552.216.848.233.113.006.227.009.342.009a8.768 8.768 0 0 0 2.436-.349c.333-.104.653-.247.952-.427.053.069.1.146.156.211.184.218.395.411.627.576.05.034.116.061.17.093l.064.221.031.111.009.032a1.303 1.303 0 0 0 1.37.965c.2-.017.398-.026.591-.025a7.478 7.478 0 0 1 3.584.96c.797.442 1.537.981 2.203 1.603.13.111.237.246.315.398a.54.54 0 0 1 .056.239c-.02.235-.111.457-.262.637Zm3.247-10.312c-.12-.576-.275-1.16-.429-1.672l8.1-2.011 3.614 2.354-11.285 1.329Zm64.619 29.973c-.914.312-1.848.563-2.795.752-.319.024-.626.044-.943.068-.174.006-.349.015-.52.015a17.114 17.114 0 0 1-5.075-.825c-2.475-.752-4.977-1.936-7.923-2.959a31.184 31.184 0 0 0-10.536-1.856 34.374 34.374 0 0 0-13.317 2.909c-1.802.711-3.463 1.403-5.09 1.905a16.388 16.388 0 0 1-4.92.823c-.589 0-1.177-.039-1.761-.115a33.582 33.582 0 0 1-3.395-.956c-.001-.268-.004-.532-.004-.802.022-9.191.588-18.372 1.694-27.496l52.926-6.234a224.637 224.637 0 0 1 2.578 33.734c0 .209-.003.413-.003.621a5.14 5.14 0 0 1-.916.416Zm14.75-34.733a7.613 7.613 0 0 1-5.047 2.175 6.885 6.885 0 0 1-2.452-.472 3.037 3.037 0 0 1-1.07-.664 3.526 3.526 0 0 1-.895-1.587c-.027-.093-.036-.204-.059-.301l11.566-1.362a16.205 16.205 0 0 1-2.043 2.211Zm11.215-5.909-15.115-9.842 15.647-3.884 16.791 11.686-17.323 2.04Z"/></svg>