<svg width="200" height="200" viewBox="0 0 200 200" xmlns="http://www.w3.org/2000/svg"><g id="type=nothing, mode=dark"><g id="Layer 25"><path id="Vector" d="M193.806 61.2509C193.361 59.8439 192.464 58.6228 191.255 57.7764C190.046 56.9301 188.592 56.5057 187.118 56.5689C183.989 56.7696 180.968 57.7863 178.355 59.5177C175.649 61.1751 173.141 63.1365 170.881 65.3637C169.851 61.8659 168.363 58.5197 166.456 55.4123C166.367 55.2657 166.25 55.138 166.112 55.0367C165.974 54.9353 165.818 54.8622 165.651 54.8217C165.485 54.7811 165.312 54.7738 165.143 54.8002C164.973 54.8267 164.811 54.8863 164.665 54.9757C164.519 55.065 164.392 55.1824 164.291 55.321C164.19 55.4597 164.118 55.6168 164.079 55.7835C164.039 55.9501 164.032 56.123 164.06 56.2921C164.087 56.4612 164.148 56.6232 164.238 56.7689L164.238 56.7688C167.628 62.2128 169.538 68.448 169.777 74.857C169.785 75.1715 169.79 75.4844 169.79 75.7956C169.732 82.162 167.985 88.3989 164.728 93.8689C162.534 97.5614 159.919 100.986 156.934 104.075C153.314 107.954 149.104 111.237 144.459 113.801C143.393 110.513 142.238 107.156 141.298 104.975C141.231 104.818 141.134 104.674 141.011 104.554C140.889 104.434 140.744 104.34 140.585 104.276C140.425 104.212 140.255 104.18 140.084 104.183C139.912 104.185 139.743 104.221 139.585 104.289C139.428 104.357 139.286 104.456 139.166 104.579C139.047 104.702 138.954 104.848 138.891 105.008C138.828 105.167 138.798 105.338 138.801 105.509C138.805 105.681 138.842 105.85 138.911 106.007L138.911 106.007C140.016 108.56 141.561 113.207 142.807 117.17C143.091 118.072 143.357 118.932 143.604 119.735C142.494 120.145 139.767 121.115 136.797 121.917C136.608 121.248 136.406 120.538 136.193 119.804C135.049 115.864 133.637 111.277 132.465 108.494C132.399 108.337 132.302 108.194 132.181 108.075C132.059 107.955 131.915 107.86 131.757 107.795C131.599 107.731 131.43 107.699 131.259 107.7C131.088 107.701 130.92 107.736 130.762 107.802C130.605 107.868 130.462 107.965 130.342 108.087C130.223 108.208 130.128 108.352 130.063 108.51C129.999 108.668 129.967 108.838 129.968 109.008C129.969 109.179 130.004 109.348 130.07 109.505L130.07 109.505C130.972 111.638 132.112 115.19 133.12 118.573C127.002 120.41 120.652 121.362 114.263 121.401C114.048 121.403 113.831 121.404 113.614 121.404C104.274 121.386 95.0343 119.478 86.4516 115.795C77.6062 111.924 69.6799 105.944 64.5706 97.4857C62.9174 94.6897 61.6447 91.6857 60.786 88.5531C60.1023 86.2528 59.7118 83.8755 59.6239 81.4774C59.6327 81.0561 59.6713 80.6358 59.7393 80.2199C60.1287 79.8611 59.0327 77.7956 58.3693 78.07C58.0049 78.2269 57.7025 78.4999 57.5093 78.8466C57.3045 79.2255 57.1718 79.6391 57.1179 80.0664C57.0508 80.5337 57.0193 81.0054 57.0239 81.4774C57.1098 84.112 57.5325 86.7248 58.2817 89.252C59.2034 92.6116 60.57 95.8329 62.3454 98.8303C67.7975 107.852 76.1945 114.145 85.4094 118.177C94.3205 122.005 103.915 123.987 113.613 124.004C113.839 124.004 114.065 124.003 114.29 124.001C115.137 123.992 116.733 123.973 118.848 123.821C119.047 125.651 119.229 127.707 119.367 129.417C119.45 130.444 119.518 131.342 119.564 131.982C119.611 132.623 119.636 133.003 119.637 133.004C119.66 133.348 119.819 133.669 120.078 133.896C120.338 134.123 120.677 134.237 121.021 134.214C121.365 134.191 121.686 134.032 121.913 133.772C122.14 133.512 122.254 133.173 122.231 132.829C122.23 132.824 122.152 131.664 122.023 130.01L124.29 129.653L124.592 132.392C124.629 132.735 124.802 133.049 125.071 133.264C125.34 133.48 125.684 133.58 126.026 133.542C126.369 133.504 126.683 133.332 126.898 133.063C127.114 132.794 127.214 132.45 127.176 132.107L126.861 129.248L128.887 128.928C128.954 129.43 129.014 129.886 129.063 130.263C129.156 130.973 129.211 131.412 129.211 131.414C129.233 131.583 129.288 131.746 129.372 131.895C129.457 132.043 129.57 132.173 129.705 132.278C129.84 132.382 129.994 132.459 130.159 132.504C130.324 132.549 130.496 132.561 130.665 132.539C130.834 132.518 130.998 132.463 131.146 132.379C131.294 132.294 131.424 132.181 131.529 132.046C131.633 131.911 131.71 131.757 131.755 131.592C131.8 131.427 131.812 131.255 131.791 131.086C131.79 131.083 131.565 129.31 131.27 127.145C131.038 125.44 130.765 123.507 130.521 121.981C131.604 121.715 132.714 121.41 133.851 121.068C134.35 122.802 134.79 124.386 135.111 125.56C135.288 126.209 135.429 126.735 135.527 127.099C135.624 127.463 135.676 127.662 135.676 127.663C135.764 127.997 135.981 128.282 136.278 128.455C136.576 128.629 136.931 128.678 137.264 128.59C137.598 128.502 137.883 128.286 138.056 127.988C138.23 127.69 138.279 127.336 138.191 127.002C138.19 126.999 137.925 125.99 137.494 124.422C138.281 124.209 139.046 123.987 139.771 123.765L140.465 126.25C140.558 126.581 140.779 126.862 141.079 127.031C141.379 127.199 141.734 127.242 142.066 127.15C142.397 127.057 142.679 126.837 142.848 126.537C143.017 126.237 143.061 125.882 142.969 125.551L142.248 122.969C143.137 122.669 143.867 122.408 144.361 122.227L144.382 122.299C144.78 123.622 145.019 124.444 145.02 124.446C145.116 124.777 145.34 125.056 145.642 125.222C145.944 125.388 146.3 125.427 146.631 125.331C146.962 125.235 147.241 125.011 147.407 124.708C147.573 124.406 147.612 124.05 147.516 123.719C147.514 123.714 146.545 120.387 145.287 116.389L145.267 116.327C150.33 113.593 154.913 110.052 158.838 105.845C161.956 102.614 164.689 99.0307 166.98 95.1684C169.774 90.4239 171.545 85.1467 172.176 79.6766C173.138 82.2912 173.916 84.9698 174.505 87.6927C174.577 88.0299 174.781 88.3245 175.07 88.5119C175.359 88.6993 175.711 88.7641 176.049 88.6919C176.386 88.6198 176.68 88.4166 176.868 88.1272C177.055 87.8378 177.12 87.4858 177.048 87.1486C176.694 85.4941 176.253 83.8714 175.773 82.2653C180.174 80.614 184.293 78.2891 187.981 75.3739C189.763 73.9528 191.308 72.2578 192.558 70.3521C193.713 68.6135 194.349 66.583 194.394 64.4967C194.392 63.3884 194.193 62.2893 193.806 61.2509ZM121.808 127.412C121.699 126.155 121.574 124.826 121.439 123.586C121.519 123.577 121.592 123.571 121.673 123.562C123.548 123.35 125.68 123.03 127.98 122.556C128.158 123.682 128.354 125.04 128.536 126.351L121.808 127.412ZM190.356 68.9704C188.562 71.5586 186.251 73.747 183.569 75.3976C180.865 77.1477 177.987 78.6136 174.982 79.7719C174.272 77.7034 173.449 75.6751 172.518 73.6963C172.461 73.5927 172.39 73.4975 172.307 73.4136C172.195 71.698 171.964 69.9922 171.615 68.3085C174.012 65.7826 176.726 63.5778 179.689 61.7494C181.903 60.2661 184.461 59.3775 187.118 59.1689C188.06 59.1056 188.995 59.3669 189.768 59.9093C190.541 60.4517 191.105 61.2425 191.366 62.1501C191.648 62.9005 191.793 63.6953 191.794 64.4968C191.749 66.0941 191.25 67.6456 190.356 68.9704Z"/><path id="Vector_2" d="M60.0502 79.923C56.1223 78.3517 52.4687 76.167 49.2256 73.4505C47.946 72.3549 46.8463 71.0652 45.9668 69.6285C45.2553 68.4811 44.8636 67.1642 44.8324 65.8144C44.8349 65.0076 44.9917 64.2087 45.2946 63.4608C45.6322 62.5104 46.2717 61.6966 47.1154 61.1438C47.9851 60.6357 48.9813 60.3849 49.9879 60.4208C52.1689 60.5295 54.3012 61.1046 56.241 62.1073C56.5527 62.2546 56.9102 62.2719 57.2348 62.1556C57.5593 62.0393 57.8244 61.7988 57.9716 61.487C58.1189 61.1752 58.1362 60.8178 58.0199 60.4932C57.9036 60.1686 57.6631 59.9036 57.3513 59.7563C55.0656 58.5865 52.5534 57.9261 49.9879 57.8207C48.4929 57.7842 47.0183 58.1724 45.7351 58.9404C44.4232 59.7876 43.4209 61.0368 42.8782 62.501C42.4544 63.5544 42.2352 64.6789 42.2324 65.8144C42.2633 67.6235 42.7766 69.3915 43.7194 70.9359C45.3427 73.4967 47.4816 75.6913 49.9999 77.38C52.8248 79.3513 55.8568 81.0077 59.042 82.3195C59.1995 82.3868 59.3688 82.4224 59.5402 82.424C59.7115 82.4257 59.8815 82.3935 60.0403 82.3293C60.1991 82.265 60.3437 82.17 60.4657 82.0497C60.5877 81.9294 60.6847 81.7862 60.7512 81.6282C60.8176 81.4703 60.8522 81.3008 60.8529 81.1295C60.8536 80.9582 60.8204 80.7884 60.7553 80.6299C60.6902 80.4714 60.5943 80.3274 60.4734 80.2061C60.3524 80.0848 60.2086 79.9886 60.0503 79.923H60.0502Z"/><path id="Vector_3" d="M65.4327 106.467C65.3339 105.238 65.2662 104.017 65.2463 102.78L65.2452 102.744C65.2273 102.332 65.2268 101.911 65.2269 101.461C65.2269 100.682 65.2366 99.8981 65.266 99.1309C65.2792 98.7864 65.155 98.4508 64.9207 98.1978C64.6864 97.9449 64.3613 97.7954 64.0168 97.7822C63.6723 97.769 63.3367 97.8932 63.0837 98.1275C62.8308 98.3618 62.6813 98.6869 62.6681 99.0314C62.6368 99.8442 62.627 100.66 62.627 101.461C62.6271 101.911 62.6266 102.371 62.6477 102.857L63.9465 102.801L62.6466 102.822C62.6677 104.126 62.7388 105.404 62.8411 106.676C62.8687 107.019 63.0318 107.338 63.2943 107.561C63.5569 107.785 63.8975 107.895 64.2412 107.867C64.5849 107.84 64.9035 107.677 65.127 107.414C65.3505 107.151 65.4605 106.811 65.4329 106.467L65.4327 106.467Z"/><path id="Vector_4" d="M177.042 105.372C176.872 105.359 176.701 105.378 176.538 105.431C176.376 105.483 176.225 105.567 176.095 105.678C175.965 105.788 175.858 105.923 175.78 106.075C175.702 106.227 175.655 106.393 175.641 106.563L175.641 106.563C175.423 109.332 174.997 112.08 174.369 114.785C174.329 114.952 174.323 115.124 174.351 115.292C174.378 115.461 174.439 115.622 174.529 115.767C174.619 115.913 174.736 116.039 174.875 116.138C175.013 116.238 175.17 116.31 175.336 116.349C175.502 116.388 175.675 116.394 175.843 116.366C176.012 116.339 176.173 116.278 176.318 116.188C176.464 116.099 176.59 115.981 176.689 115.842C176.789 115.704 176.86 115.547 176.9 115.381C177.558 112.549 178.004 109.672 178.232 106.773C178.26 106.43 178.151 106.089 177.927 105.826C177.704 105.564 177.386 105.4 177.042 105.372Z"/><path id="Vector_5" d="M163.136 131.174L163.136 131.174C153.189 140.95 137.836 147.271 118.651 147.961C117.286 148.011 115.943 148.036 114.621 148.037C101.523 148.039 90.5815 145.546 82.4778 140.036C82.3366 139.939 82.1777 139.871 82.0102 139.836C81.8427 139.801 81.67 139.799 81.5018 139.831C81.3336 139.863 81.1734 139.928 81.0303 140.021C80.8872 140.115 80.7641 140.236 80.6679 140.378C80.5718 140.52 80.5045 140.679 80.47 140.846C80.4355 141.014 80.4345 141.187 80.4669 141.355C80.4994 141.523 80.5647 141.683 80.6591 141.826C80.7535 141.968 80.8752 142.091 81.0171 142.187C89.7359 148.103 101.209 150.635 114.621 150.637C115.976 150.637 117.35 150.611 118.745 150.56C138.44 149.851 154.447 143.352 164.958 133.029C165.203 132.787 165.341 132.458 165.343 132.114C165.346 131.77 165.212 131.439 164.971 131.194C164.73 130.949 164.402 130.809 164.058 130.805C163.714 130.801 163.383 130.934 163.136 131.174L163.136 131.174Z"/><path id="Vector_6" d="M175.713 99.2614L175.713 99.2614C175.749 99.1326 175.777 99.0026 175.811 98.8736C175.817 99.0391 175.824 99.2006 175.829 99.3685C175.838 99.7132 175.984 100.04 176.235 100.277C176.485 100.514 176.819 100.642 177.164 100.633C177.509 100.623 177.835 100.477 178.073 100.227C178.31 99.9768 178.438 99.6425 178.428 99.2978C178.345 95.2085 177.882 91.1357 177.043 87.1324C177.035 87.0977 177.011 87.0727 177 87.0394C176.942 86.8812 176.86 86.7328 176.757 86.5992C176.601 86.4078 176.388 86.2708 176.148 86.2077C176.065 86.1804 175.978 86.1621 175.891 86.1531C175.856 86.15 175.826 86.1322 175.79 86.1318C175.689 86.1596 175.584 86.1714 175.479 86.1667C175.444 86.1749 175.419 86.1987 175.386 86.2095C175.143 86.2813 174.93 86.43 174.778 86.6333C174.67 86.7556 174.593 86.9025 174.554 87.0613C174.527 87.1451 174.508 87.2315 174.499 87.3192C174.496 87.354 174.478 87.3837 174.478 87.4193C174.547 91.1723 174.121 94.9179 173.21 98.5592C173.117 98.891 173.16 99.2459 173.329 99.5459C173.498 99.846 173.78 100.067 174.111 100.16C174.443 100.253 174.798 100.21 175.098 100.042C175.398 99.8735 175.62 99.5928 175.713 99.2614L175.713 99.2614Z"/><path id="Vector_7" d="M172.2 104.473C172.046 104.4 171.879 104.358 171.708 104.35C171.538 104.342 171.367 104.367 171.206 104.425C171.046 104.483 170.898 104.572 170.772 104.686C170.645 104.801 170.543 104.94 170.47 105.094C166.499 113.512 159.698 120.702 150.543 125.945C141.389 131.186 129.882 134.471 116.553 135.032C114.989 135.098 113.469 135.131 111.994 135.131C101.949 135.131 93.9135 133.628 87.4737 130.969C87.3157 130.903 87.146 130.868 86.9746 130.868C86.8032 130.867 86.6333 130.9 86.4748 130.966C86.3163 131.031 86.1722 131.127 86.051 131.248C85.9297 131.369 85.8336 131.513 85.7682 131.672C85.7028 131.83 85.6694 132 85.6699 132.172C85.6704 132.343 85.7049 132.513 85.7712 132.671C85.8376 132.829 85.9345 132.972 86.0565 133.093C86.1785 133.213 86.3231 133.308 86.482 133.373C93.3106 136.191 101.693 137.731 111.994 137.731C113.508 137.731 115.064 137.697 116.662 137.63C130.353 137.053 142.271 133.676 151.835 128.201C161.397 122.728 168.605 115.146 172.822 106.203C172.894 106.049 172.936 105.882 172.944 105.711C172.953 105.54 172.927 105.37 172.869 105.209C172.812 105.049 172.723 104.901 172.608 104.775C172.493 104.648 172.355 104.546 172.2 104.473Z"/><path id="Vector_8" d="M160.626 40.261C156.016 32.7396 149.427 26.6308 141.579 22.6025C140.882 22.2381 140.167 21.8915 139.444 21.5533L139.444 21.55H139.444L139.444 21.5475L139.444 21.5473H139.444L139.443 21.4378C139.447 20.8769 139.505 20.3176 139.615 19.7676C139.717 19.259 139.876 18.7636 140.089 18.2909C141.291 19.0834 142.742 19.4071 144.166 19.2007C145.591 18.9943 146.89 18.2722 147.817 17.1714C148.745 16.0705 149.236 14.6675 149.197 13.2286C149.159 11.7897 148.593 10.415 147.608 9.36531C146.623 8.31565 145.287 7.66408 143.854 7.53422C142.42 7.40437 140.989 7.80527 139.831 8.66086C138.674 9.51644 137.871 10.7672 137.574 12.1758C137.278 13.5843 137.509 15.0527 138.223 16.3023C137.661 17.2077 137.269 18.2081 137.067 19.2543C136.989 19.6446 136.932 20.0388 136.896 20.4351C128.783 17.2427 120.127 15.6594 111.41 15.7734C102.505 15.6523 93.6642 17.3111 85.408 20.6524C85.0709 19.7703 84.6378 18.9279 84.1165 18.1404C82.7798 16.0495 80.7588 14.4874 78.3985 13.7208C78.1065 12.3136 77.3083 11.0625 76.1551 10.2046C75.002 9.3468 73.5742 8.94194 72.1424 9.06682C70.7107 9.1917 69.3745 9.83765 68.3873 10.8822C67.4002 11.9267 66.8306 13.2971 66.7866 14.7337C66.7427 16.1702 67.2274 17.5729 68.1489 18.6758C69.0704 19.7787 70.3646 20.5051 71.7861 20.7173C73.2075 20.9295 74.6574 20.6126 75.8608 19.8269C77.0642 19.0411 77.9374 17.8411 78.3149 16.4544C79.8073 17.1134 81.0715 18.1992 81.9482 19.5752C82.308 20.1196 82.6159 20.6967 82.8678 21.2988C82.9391 21.4698 82.9891 21.6045 83.0286 21.7164C82.3489 22.0402 81.6768 22.3714 81.0205 22.7186C73.1306 26.8157 66.5327 33.0225 61.9617 40.6477C61.7856 40.9441 61.7344 41.2984 61.8195 41.6325C61.9046 41.9666 62.1189 42.2533 62.4153 42.4294C62.7118 42.6055 63.066 42.6566 63.4001 42.5715C63.7343 42.4864 64.0209 42.2721 64.197 41.9757L64.1969 41.9756C68.5235 34.7614 74.7685 28.8904 82.2359 25.017C90.1327 20.8413 99.8887 18.374 111.41 18.3734C122.83 18.374 132.515 20.7979 140.374 24.9065C147.802 28.715 154.04 34.4938 158.404 41.6105C158.492 41.7564 158.609 41.8834 158.746 41.9843C158.884 42.0853 159.04 42.158 159.206 42.1986C159.372 42.2391 159.544 42.2466 159.713 42.2206C159.882 42.1945 160.044 42.1355 160.19 42.0469C160.336 41.9583 160.463 41.8418 160.564 41.7041C160.664 41.5664 160.737 41.4102 160.778 41.2443C160.818 41.0785 160.826 40.9063 160.8 40.7376C160.774 40.5688 160.715 40.4069 160.626 40.261ZM72.6672 18.1816C72.0233 18.1815 71.3938 17.9904 70.8584 17.6326C70.323 17.2748 69.9057 16.7663 69.6593 16.1713C69.4129 15.5763 69.3485 14.9217 69.4741 14.2901C69.5998 13.6585 69.9099 13.0784 70.3653 12.623C70.8206 12.1677 71.4008 11.8576 72.0323 11.7319C72.6639 11.6062 73.3186 11.6707 73.9135 11.9171C74.5085 12.1635 75.017 12.5807 75.3749 13.1161C75.7327 13.6515 75.9237 14.281 75.9238 14.925C75.9226 15.7883 75.5791 16.6159 74.9686 17.2264C74.3581 17.8368 73.5305 18.1803 72.6672 18.1816ZM143.304 10.1429C143.948 10.1429 144.578 10.3338 145.113 10.6915C145.649 11.0493 146.066 11.5578 146.313 12.1528C146.559 12.7478 146.624 13.4026 146.498 14.0342C146.372 14.6659 146.062 15.2461 145.607 15.7015C145.151 16.1569 144.571 16.467 143.939 16.5927C143.308 16.7183 142.653 16.6537 142.058 16.4072C141.463 16.1607 140.955 15.7433 140.597 15.2078C140.239 14.6722 140.048 14.0426 140.048 13.3986C140.049 12.5355 140.393 11.7081 141.003 11.0978C141.613 10.4875 142.441 10.1441 143.304 10.1429H143.304Z"/><path id="Vector_9" d="M161.022 40.9677C161 40.862 160.963 40.7596 160.914 40.6632L160.914 40.6632C158.882 37.1348 156.021 34.155 152.577 31.9819C149.457 30.0658 145.865 29.0536 142.204 29.058C141.145 29.0588 140.088 29.1396 139.041 29.2997C135.917 29.8073 132.966 31.0812 130.454 33.0076C126.834 35.6732 123.972 39.0996 120.834 41.7614C119.335 43.088 117.656 44.1953 115.847 45.0502C113.926 45.9193 111.839 46.3616 109.731 46.3464C107.134 46.4201 104.563 45.817 102.27 44.5962C99.3659 43.0008 97.3094 40.4275 95.114 37.6885C92.9209 34.9688 90.5786 32.0803 86.952 30.262C84.7423 29.143 82.3013 28.5573 79.8244 28.5518C76.2993 28.6016 72.8706 29.7109 69.9843 31.7353C66.5474 34.1606 63.6979 37.3256 61.6453 40.9973C61.5524 41.1595 61.4961 41.34 61.4803 41.5262C57.3977 48.7895 55.2681 56.9873 55.2992 65.3194C55.2733 71.6907 56.6286 77.9919 59.2716 83.7892C61.9147 89.5865 65.7828 94.7421 70.6095 98.9011C80.4001 107.48 94.4272 112.73 111.411 112.729C128.394 112.73 142.421 107.48 152.212 98.9011C157.039 94.7421 160.907 89.5865 163.55 83.7892C166.193 77.9919 167.548 71.6907 167.522 65.3194C167.556 56.769 165.313 48.3638 161.022 40.9677ZM150.498 96.9456C141.242 105.055 127.864 110.127 111.411 110.129C94.9575 110.127 81.5789 105.055 72.323 96.9456C67.774 93.0313 64.1285 88.1765 61.6383 82.7163C59.1481 77.2561 57.8723 71.3206 57.8991 65.3194C57.8562 57.1127 60.0323 49.047 64.1972 41.9756C64.2606 41.858 64.305 41.7312 64.3288 41.5998C66.1292 38.5581 68.5519 35.9311 71.4382 33.8909C73.8949 32.1561 76.8173 31.2016 79.8244 31.1518C81.8976 31.1572 83.9406 31.6489 85.7892 32.5876C87.7378 33.6184 89.4709 35.0131 90.8948 36.6962C93.1416 39.185 95.103 42.1902 97.8949 44.6574C99.3546 45.9674 101.033 47.0103 102.854 47.7385C105.049 48.5732 107.383 48.9832 109.731 48.9465C112.978 48.9598 116.163 48.0652 118.928 46.3636C122.788 44.0368 125.72 40.6488 128.821 37.7733C130.3 36.3432 131.927 35.073 133.672 33.9837C135.434 32.9055 137.391 32.1872 139.432 31.8702C140.349 31.7298 141.276 31.6589 142.204 31.6581C145.388 31.6532 148.512 32.5341 151.225 34.2025C154.138 36.0462 156.582 38.543 158.362 41.4951C158.381 41.5328 158.382 41.574 158.404 41.6105L158.404 41.6104C162.712 48.7653 164.967 56.9679 164.922 65.3194C164.949 71.3206 163.673 77.2561 161.183 82.7163C158.693 88.1765 155.047 93.0313 150.498 96.9456Z"/><path id="Vector_10" d="M130.509 76.2766C130.041 75.4588 129.382 74.7667 128.588 74.2592C127.73 73.7461 126.75 73.4735 125.751 73.4702C124.752 73.467 123.77 73.733 122.909 74.2405C121.742 75.0073 120.86 76.1384 120.402 77.458C119.911 78.8101 119.669 80.2401 119.689 81.6785C119.669 83.8969 120.176 86.0882 121.169 88.0723C121.634 88.9899 122.286 89.8002 123.082 90.4517C123.897 91.1107 124.911 91.4767 125.959 91.4911L125.982 91.491H125.985C126.984 91.4786 127.946 91.1091 128.696 90.4493C129.802 89.4234 130.613 88.1196 131.044 86.6736C131.56 85.1096 131.822 83.4728 131.819 81.8259C131.875 79.8934 131.424 77.9799 130.509 76.2766ZM128.124 86.9519C127.86 87.5232 127.486 88.0362 127.021 88.4606C126.74 88.7261 126.371 88.8793 125.985 88.891L125.975 88.8911C125.502 88.8814 125.046 88.7096 124.685 88.4045C123.882 87.6829 123.289 86.757 122.971 85.7255C122.517 84.4246 122.286 83.0563 122.289 81.6785C122.238 80.2457 122.563 78.8246 123.231 77.5561C123.485 77.1106 123.842 76.7328 124.272 76.4547C124.71 76.1911 125.215 76.0577 125.726 76.0703C126.25 76.0569 126.766 76.1945 127.214 76.4667C127.907 76.9517 128.422 77.6516 128.677 78.4581C129.054 79.5401 129.238 80.6802 129.219 81.8259C129.236 83.5943 128.862 85.3446 128.124 86.9519L128.124 86.9519Z"/><path id="Vector_11" d="M88.3277 76.5617C87.892 75.6985 87.2595 74.9499 86.4811 74.3761C85.648 73.785 84.6497 73.4713 83.6281 73.4797L83.3991 73.4845C82.4612 73.5144 81.5491 73.7997 80.7613 74.3096C79.6679 75.0675 78.844 76.1537 78.4089 77.4109C77.9433 78.7035 77.7138 80.0692 77.7314 81.4429C77.716 83.6854 78.2487 85.8976 79.2832 87.8873C79.7781 88.8268 80.4581 89.6564 81.2822 90.3261C82.1261 91.0044 83.1583 91.4067 84.2386 91.4784L84.241 91.4786L84.4538 91.4848C85.3774 91.4738 86.2633 91.1169 86.9366 90.4847C87.9114 89.5122 88.6078 88.2963 88.9533 86.9634C89.3818 85.4925 89.5956 83.9675 89.5881 82.4355C89.6376 80.4056 89.2057 78.3927 88.3277 76.5617ZM86.0886 87.2243C85.8838 87.7217 85.5811 88.1728 85.1986 88.5509C85.0033 88.755 84.7361 88.8748 84.4538 88.8849L84.3953 88.8832C83.8414 88.8439 83.3136 88.6328 82.8853 88.2793C82.0326 87.5308 81.3961 86.5673 81.0424 85.4893C80.5715 84.1922 80.3309 82.8228 80.3314 81.4429C80.2853 80.0892 80.5896 78.7465 81.2147 77.5449C81.4514 77.1222 81.7827 76.76 82.1827 76.4866C82.578 76.2321 83.0362 76.0921 83.5063 76.0823L83.6281 76.0797C84.1109 76.0698 84.584 76.2161 84.9769 76.4968C85.6846 77.0779 86.1958 77.8632 86.4406 78.7455C86.8187 79.9385 87.0035 81.1842 86.9881 82.4356C87.0144 84.0762 86.7084 85.7051 86.0886 87.2243Z"/><path id="Vector_12" d="M110.708 92.2713L110.664 92.271C109.128 92.2922 107.596 92.4465 106.086 92.7322C103.377 93.1431 100.819 94.2417 98.6549 95.923C98.5254 96.0345 98.4192 96.1705 98.3423 96.323C98.2654 96.4756 98.2193 96.6419 98.2067 96.8123C98.1941 96.9827 98.2152 97.1539 98.2688 97.3162C98.3224 97.4784 98.4075 97.6285 98.5191 97.7579C98.6308 97.8872 98.7669 97.9933 98.9196 98.07C99.0723 98.1467 99.2386 98.1925 99.409 98.2049C99.5794 98.2173 99.7506 98.196 99.9128 98.1421C100.075 98.0883 100.225 98.003 100.354 97.8912L100.354 97.8911C102.173 96.515 104.31 95.6195 106.567 95.2874C107.918 95.032 109.289 94.8927 110.664 94.871H110.674C111.017 94.8734 111.348 94.7398 111.593 94.4995C111.838 94.2591 111.979 93.9314 111.983 93.588C111.988 93.2447 111.856 92.9135 111.617 92.6668C111.378 92.4201 111.051 92.2779 110.708 92.2713H110.708Z"/><path id="Vector_13" d="M70.8339 126.627C70.7404 126.483 70.6194 126.359 70.4778 126.262C70.3362 126.165 70.1768 126.097 70.0088 126.062C69.8408 126.027 69.6675 126.026 69.4989 126.058C69.3303 126.09 69.1698 126.155 69.0266 126.25C68.8834 126.345 68.7604 126.467 68.6646 126.609C68.5688 126.752 68.5022 126.912 68.4686 127.08C68.4349 127.248 68.435 127.421 68.4686 127.59C68.5023 127.758 68.569 127.918 68.6648 128.06L69.6921 129.615C69.7856 129.759 69.9066 129.883 70.0482 129.98C70.1898 130.077 70.3492 130.145 70.5172 130.18C70.6853 130.215 70.8586 130.217 71.0271 130.184C71.1957 130.152 71.3562 130.087 71.4994 129.992C71.6426 129.897 71.7656 129.775 71.8614 129.633C71.9572 129.491 72.0238 129.331 72.0575 129.162C72.0911 128.994 72.0911 128.821 72.0574 128.652C72.0237 128.484 71.957 128.324 71.8612 128.182L70.8339 126.627Z"/><path id="Vector_14" d="M66.2233 117.524C66.1389 117.218 65.9447 116.955 65.678 116.784C65.4113 116.613 65.0909 116.546 64.7781 116.597C64.6532 116.477 64.5056 116.384 64.344 116.323L64.3459 116.318C64.2843 116.295 63.6676 116.042 62.8384 115.654C62.0052 115.265 60.9392 114.732 59.9364 114.136L59.932 114.134C59.2598 113.742 58.6153 113.305 58.0029 112.825C58.4194 112.403 58.9199 111.926 59.4802 111.433C60.9965 110.102 62.5895 108.86 64.251 107.716C64.5353 107.521 64.7305 107.221 64.7937 106.882C64.8569 106.543 64.7829 106.193 64.588 105.908C64.393 105.624 64.0931 105.429 63.7542 105.366C63.4152 105.303 63.0651 105.377 62.7808 105.571C61.0315 106.776 59.3546 108.083 57.7589 109.484C56.8942 110.232 56.0799 111.035 55.3213 111.89L55.3106 111.903L55.1816 112.058C54.9872 112.292 54.881 112.586 54.8814 112.89C54.8818 113.194 54.9888 113.489 55.1838 113.722C55.3215 113.887 55.4675 114.045 55.6213 114.194C56.5317 115.032 57.5347 115.763 58.6108 116.373C59.7558 117.052 60.9241 117.631 61.8221 118.049C61.9011 118.086 61.965 118.114 62.0396 118.148C61.7561 118.421 61.4924 118.713 61.2506 119.024C60.7888 119.634 60.4006 120.296 60.0942 120.997L60.0824 120.988C58.6194 120.305 57.2033 119.525 55.8433 118.655C54.8537 118.028 53.9332 117.299 53.0972 116.479C52.6325 116.018 52.2276 115.501 51.892 114.939C51.4795 114.26 51.2547 113.484 51.2407 112.69L51.2412 112.644C51.2557 112.157 51.3874 111.682 51.625 111.257C51.8223 110.886 52.0522 110.534 52.3118 110.204C52.9315 109.425 53.6075 108.693 54.3342 108.013C56.1202 106.336 58.0174 104.781 60.0127 103.359C61.2555 102.456 62.55 101.626 63.8895 100.874C64.0399 100.793 64.1727 100.682 64.2802 100.549C64.3878 100.416 64.468 100.263 64.5162 100.099C64.5645 99.9346 64.5799 99.7625 64.5615 99.5924C64.5431 99.4223 64.4913 99.2575 64.4091 99.1074C64.3269 98.9573 64.2159 98.825 64.0824 98.7179C63.9489 98.6109 63.7956 98.5313 63.6312 98.4836C63.4669 98.4359 63.2948 98.4212 63.1247 98.4402C62.9546 98.4592 62.79 98.5116 62.6403 98.5944L62.6401 98.5943C61.209 99.3963 59.8262 100.282 58.4987 101.245C56.4028 102.739 54.4105 104.373 52.5355 106.135L52.5328 106.138C51.7121 106.907 50.9494 107.737 50.2508 108.618L50.2482 108.622C49.8939 109.075 49.5808 109.559 49.3125 110.067L49.2966 110.099C48.8966 110.857 48.673 111.696 48.6424 112.552L48.6416 112.601V112.607L48.6407 112.675L48.6406 112.694C48.6551 113.946 49.0015 115.172 49.6446 116.247L49.646 116.249C50.0904 116.997 50.627 117.687 51.2433 118.302L51.2464 118.305C52.2119 119.257 53.2757 120.104 54.4199 120.831L54.4223 120.832C55.8807 121.767 57.3995 122.604 58.9688 123.338C59.0964 123.393 59.232 123.426 59.3704 123.437C59.3037 123.835 59.2678 124.236 59.263 124.639C59.2583 125.2 59.3357 125.758 59.4928 126.296C59.7257 127.087 60.093 127.833 60.5787 128.5C60.7834 128.776 61.0889 128.96 61.4285 129.011C61.7682 129.062 62.1143 128.977 62.3914 128.774C62.6684 128.571 62.8538 128.266 62.9071 127.927C62.9603 127.588 62.8771 127.241 62.6756 126.963L62.6755 126.963C62.3644 126.534 62.1299 126.055 61.9824 125.546C61.8987 125.251 61.8585 124.946 61.863 124.639C61.8677 124.207 61.9213 123.777 62.023 123.356C62.2573 122.361 62.6963 121.425 63.3119 120.608C63.7985 119.909 64.4977 119.386 65.3056 119.117C65.6385 119.027 65.9222 118.809 66.0943 118.51C66.2664 118.211 66.3128 117.857 66.2233 117.524Z"/><path id="Vector_15" d="M72.2046 119.484L72.2045 119.484C69.3926 115.78 67.1739 111.661 65.6279 107.275C65.5265 106.998 65.334 106.764 65.0819 106.611C64.8298 106.458 64.5332 106.395 64.2407 106.433C63.9482 106.47 63.6773 106.606 63.4723 106.818C63.2674 107.031 63.1407 107.306 63.1129 107.6C63.1099 107.633 63.0341 108.447 63.0341 109.771C63.0056 113.734 63.6909 117.669 65.0572 121.389C65.1187 121.549 65.2112 121.695 65.3292 121.819C65.4473 121.943 65.5887 122.042 65.7452 122.111C65.9018 122.18 66.0705 122.218 66.2416 122.222C66.4127 122.225 66.5829 122.195 66.7424 122.133C66.9018 122.071 67.0475 121.978 67.1709 121.859C67.2944 121.741 67.3932 121.599 67.4617 121.442C67.5302 121.285 67.5671 121.117 67.5702 120.945C67.5733 120.774 67.5426 120.604 67.4799 120.445C66.7505 118.528 66.2432 116.534 65.968 114.501C67.1613 116.815 68.5613 119.017 70.1508 121.079C70.3623 121.351 70.6733 121.528 71.0154 121.571C71.3574 121.614 71.7026 121.52 71.975 121.308C72.2473 121.097 72.4245 120.786 72.4675 120.444C72.5106 120.102 72.416 119.756 72.2045 119.484L72.2046 119.484Z"/><path id="Vector_16" d="M76.7618 134.622L75.3868 136.097C75.269 136.222 75.177 136.368 75.116 136.529C75.0551 136.689 75.0265 136.86 75.0319 137.031C75.0373 137.203 75.0765 137.371 75.1473 137.527C75.2182 137.684 75.3192 137.824 75.4447 137.941C75.5701 138.058 75.7174 138.149 75.8782 138.209C76.0389 138.269 76.2099 138.296 76.3813 138.289C76.5527 138.283 76.721 138.242 76.8767 138.17C77.0324 138.098 77.1723 137.996 77.2883 137.87L78.6633 136.396C78.7812 136.271 78.8732 136.124 78.9342 135.964C78.9951 135.804 79.0237 135.633 79.0183 135.461C79.0129 135.29 78.9737 135.121 78.9028 134.965C78.832 134.809 78.7309 134.668 78.6055 134.551C78.4801 134.434 78.3328 134.343 78.172 134.284C78.0113 134.224 77.8403 134.197 77.6689 134.203C77.4975 134.21 77.3292 134.25 77.1735 134.322C77.0178 134.394 76.8779 134.496 76.7618 134.622Z"/><path id="Vector_17" d="M89.91 127.027L88.0797 127.189C87.9132 126.464 87.6744 125.758 87.3668 125.081C86.3551 122.925 84.6644 121.16 82.5537 120.058C80.6509 119.074 78.5535 118.525 76.4128 118.449L76.3233 116.39C76.3164 116.219 76.2759 116.051 76.204 115.896C76.1321 115.741 76.0302 115.601 75.9043 115.485C75.7784 115.37 75.6309 115.28 75.4702 115.221C75.3095 115.163 75.1388 115.136 74.9679 115.144C74.797 115.151 74.6292 115.192 74.4742 115.264C74.3192 115.337 74.18 115.439 74.0647 115.565C73.9493 115.692 73.8599 115.84 73.8018 116C73.7436 116.161 73.7178 116.332 73.7258 116.503L73.8127 118.503C72.8112 118.602 71.8196 118.784 70.848 119.046C69.5292 119.403 68.2537 119.904 67.0446 120.539L66.9601 120.588L66.88 120.638L66.8808 120.639C63.4073 122.542 60.7614 125.663 59.4534 129.401C59.1799 130.143 58.9477 130.899 58.7576 131.666L57.265 131.415C56.925 131.357 56.5761 131.437 56.2952 131.637C56.0143 131.837 55.8243 132.141 55.767 132.481C55.7097 132.821 55.7899 133.169 55.9898 133.45C56.1897 133.731 56.493 133.921 56.833 133.978L58.2634 134.219C58.0989 135.414 58.0155 136.619 58.0136 137.825C58.0136 138.08 58.018 138.31 58.0241 138.522C55.5456 137.9 52.9983 137.593 50.4428 137.609C49.8918 137.609 49.3326 137.622 48.7653 137.648C48.3469 137.667 47.9418 137.711 47.53 137.742C47.5788 136.821 47.6394 135.505 47.6853 133.935L48.6982 133.994C48.8686 134.004 49.0394 133.981 49.2006 133.925C49.3619 133.869 49.5106 133.782 49.6382 133.668C49.7658 133.555 49.8698 133.417 49.9443 133.264C50.0188 133.11 50.0623 132.943 50.0723 132.773C50.0823 132.602 50.0587 132.432 50.0027 132.27C49.9468 132.109 49.8596 131.96 49.7462 131.833C49.6328 131.705 49.4953 131.601 49.3417 131.527C49.1881 131.452 49.0213 131.409 48.8509 131.399L47.7407 131.333C47.7489 130.714 47.7536 130.074 47.7536 129.42C47.7528 126.482 47.6596 123.272 47.3656 120.333L48.1765 120.238C48.5189 120.197 48.8313 120.023 49.0449 119.752C49.2586 119.481 49.3559 119.137 49.3157 118.795C49.2754 118.452 49.1007 118.14 48.8301 117.926C48.5595 117.713 48.2151 117.615 47.8726 117.655L47.0417 117.753C46.2401 112.696 43.7854 108.047 40.0615 104.532L41.1161 102.903C41.3034 102.613 41.368 102.261 41.2957 101.924C41.2235 101.587 41.0202 101.292 40.7308 101.105C40.4413 100.918 40.0892 100.853 39.7521 100.925C39.415 100.998 39.1204 101.201 38.9331 101.49L38.0664 102.83C34.5375 100.124 30.2404 98.6103 25.7951 98.5058L25.6976 96.7494C25.6785 96.4051 25.5234 96.0826 25.2664 95.8527C25.0095 95.6228 24.6717 95.5044 24.3274 95.5235C23.9832 95.5426 23.6606 95.6977 23.4307 95.9547C23.2008 96.2116 23.0824 96.5494 23.1015 96.8936L23.1992 98.6509C20.3293 99.0188 17.5839 100.047 15.1789 101.656C14.5351 102.083 13.9369 102.533 13.3662 102.996L11.8227 101.795C11.688 101.691 11.5339 101.613 11.3693 101.568C11.2047 101.523 11.0328 101.51 10.8634 101.531C10.694 101.553 10.5304 101.607 10.382 101.691C10.2336 101.776 10.1032 101.889 9.99843 102.023C9.89361 102.158 9.81637 102.312 9.7711 102.477C9.72583 102.641 9.71343 102.813 9.7346 102.983C9.75577 103.152 9.8101 103.316 9.89449 103.464C9.97888 103.612 10.0917 103.743 10.2264 103.848L11.4236 104.779C10.2347 106.007 9.22051 107.393 8.40957 108.898C7.32086 110.947 6.6403 113.188 6.40566 115.496L4.77517 115.652C4.43197 115.685 4.11594 115.853 3.8966 116.119C3.67726 116.385 3.57258 116.728 3.60558 117.071C3.63859 117.414 3.80658 117.73 4.0726 117.95C4.33861 118.169 4.68087 118.274 5.02407 118.241L6.31472 118.116C6.48453 122.034 7.60441 125.851 9.57784 129.239L8.03939 130.597C7.91138 130.71 7.80688 130.847 7.73184 131C7.65681 131.153 7.61271 131.32 7.60207 131.49C7.59143 131.661 7.61446 131.832 7.66983 131.993C7.72521 132.155 7.81185 132.304 7.9248 132.432C8.03776 132.56 8.17483 132.664 8.32817 132.739C8.48152 132.814 8.64814 132.858 8.81853 132.869C8.98892 132.88 9.15973 132.857 9.32122 132.801C9.48271 132.746 9.63171 132.659 9.75972 132.546L10.9821 131.468C12.1909 133.204 13.5817 134.807 15.1311 136.248C16.2938 137.316 17.514 138.32 18.7863 139.256L18.0763 140.942C17.9427 141.26 17.9408 141.618 18.0709 141.937C18.201 142.256 18.4526 142.51 18.7703 142.644C19.0879 142.778 19.4457 142.78 19.765 142.65C20.0842 142.52 20.3388 142.269 20.4727 141.951L20.9671 140.777C23.7893 142.653 26.7836 144.257 29.9093 145.566C28.795 146.847 27.868 148.28 27.1562 149.822C26.4405 151.409 25.9413 153.085 25.6719 154.805L23.9772 154.537C23.8083 154.51 23.6356 154.516 23.4691 154.556C23.3026 154.595 23.1455 154.668 23.0069 154.768C22.8683 154.868 22.7509 154.995 22.6614 155.141C22.5719 155.287 22.5121 155.449 22.4855 155.618C22.4588 155.787 22.4657 155.96 22.5059 156.126C22.5461 156.292 22.6188 156.449 22.7197 156.587C22.8207 156.726 22.9479 156.843 23.0941 156.931C23.2403 157.02 23.4027 157.08 23.5718 157.106L25.4078 157.395C25.392 157.753 25.3818 158.113 25.3818 158.479C25.3818 158.985 25.3972 159.5 25.428 160.024C25.6035 162.823 26.1154 165.59 26.9528 168.267L25.2385 168.838C25.0765 168.892 24.9268 168.977 24.7978 169.089C24.6688 169.201 24.5631 169.337 24.4868 169.49C24.4104 169.643 24.3649 169.809 24.3528 169.979C24.3407 170.15 24.3622 170.321 24.4162 170.483C24.4702 170.644 24.5555 170.794 24.6674 170.923C24.7793 171.052 24.9154 171.158 25.0681 171.234C25.2208 171.311 25.387 171.356 25.5573 171.368C25.7276 171.38 25.8986 171.359 26.0606 171.305L27.8017 170.724C28.7775 173.257 29.9862 175.694 31.4124 178.003C31.9553 178.884 32.5245 179.727 33.1031 180.551L31.7048 181.687C31.5723 181.795 31.4623 181.928 31.3811 182.078C31.2998 182.228 31.249 182.393 31.2314 182.563C31.2139 182.732 31.2299 182.904 31.2787 183.068C31.3274 183.231 31.4079 183.384 31.5156 183.516C31.6232 183.649 31.7559 183.759 31.9061 183.84C32.0562 183.921 32.2209 183.972 32.3907 183.99C32.5606 184.007 32.7322 183.991 32.8958 183.942C33.0594 183.894 33.2118 183.813 33.3443 183.705L34.6472 182.647C36.799 185.408 39.1624 187.998 41.716 190.393C41.9673 190.627 42.3011 190.752 42.6444 190.741C42.9877 190.729 43.3126 190.583 43.5482 190.333C43.7837 190.083 43.9108 189.75 43.9016 189.407C43.8925 189.063 43.7478 188.737 43.4992 188.5C39.7073 184.992 36.3883 181.005 33.6259 176.639C30.394 171.602 28.4685 165.839 28.0235 159.87C27.9953 159.397 27.9814 158.933 27.9817 158.479C27.9432 155.871 28.4686 153.286 29.522 150.9C31.047 147.635 33.6083 144.965 36.8075 143.305C40.5503 141.387 44.6784 140.341 48.8827 140.245C49.4117 140.221 49.9317 140.209 50.4428 140.209C57.3549 140.215 62.59 142.338 66.1293 145.801C69.6645 149.269 71.5676 154.139 71.5728 159.891C71.5728 160.573 71.5456 161.266 71.4911 161.971C71.0019 168.413 67.6518 175.054 64.3797 180.03C63.0112 182.114 61.5329 184.123 59.951 186.049C59.355 186.774 58.8621 187.342 58.5204 187.726C58.3495 187.918 58.2164 188.065 58.1272 188.162L58.0269 188.27L57.9967 188.302C57.8793 188.426 57.7875 188.572 57.7265 188.732C57.6654 188.891 57.6364 189.061 57.641 189.232C57.6456 189.402 57.6838 189.57 57.7534 189.726C57.823 189.882 57.9226 190.023 58.0466 190.14C58.1705 190.258 58.3164 190.35 58.4758 190.411C58.6352 190.472 58.8051 190.501 58.9758 190.496C59.1465 190.491 59.3146 190.453 59.4705 190.384C59.6264 190.314 59.767 190.214 59.8844 190.091L59.8843 190.09C59.9076 190.065 61.383 188.505 63.3771 185.916L64.7846 186.89C64.925 186.987 65.0831 187.056 65.25 187.092C65.4168 187.128 65.5892 187.131 65.7572 187.1C65.9251 187.07 66.0854 187.007 66.2289 186.914C66.3724 186.822 66.4963 186.702 66.5934 186.561C66.6906 186.421 66.7592 186.263 66.7952 186.096C66.8313 185.929 66.8341 185.757 66.8036 185.589C66.773 185.421 66.7097 185.261 66.6172 185.117C66.5247 184.974 66.4048 184.85 66.2645 184.752L64.9272 183.827C65.4573 183.086 66.0029 182.297 66.5542 181.456C68.3716 178.709 69.9504 175.812 71.2734 172.796L72.5082 173.186C72.8369 173.29 73.1935 173.259 73.4994 173.1C73.8053 172.941 74.0355 172.667 74.1393 172.338C74.2431 172.009 74.212 171.653 74.0529 171.347C73.8939 171.041 73.6198 170.811 73.291 170.707L72.2303 170.372C73.2083 167.733 73.8314 164.975 74.0833 162.172C74.143 161.402 74.1728 160.642 74.1728 159.891C74.1761 158.375 74.0471 156.86 73.7873 155.366L75.3554 154.954C75.6872 154.864 75.9702 154.647 76.1425 154.35C76.3148 154.053 76.3624 153.7 76.275 153.367C76.1876 153.035 75.9721 152.751 75.6758 152.577C75.3795 152.403 75.0264 152.354 74.6937 152.439L73.1893 152.835C72.6311 150.895 71.796 149.045 70.7098 147.342C71.4912 147.159 72.4648 146.905 73.5691 146.558C73.8623 146.465 74.167 146.364 74.4753 146.259L74.8806 147.417C74.9361 147.579 75.0232 147.729 75.1368 147.857C75.2505 147.985 75.3883 148.09 75.5426 148.165C75.6968 148.24 75.8643 148.283 76.0354 148.293C76.2066 148.303 76.378 148.279 76.5398 148.223C76.7017 148.166 76.8507 148.078 76.9783 147.963C77.106 147.849 77.2097 147.71 77.2836 147.556C77.3574 147.401 77.4 147.233 77.4087 147.062C77.4175 146.891 77.3923 146.719 77.3346 146.558L76.906 145.333C78.9071 144.508 80.7978 143.437 82.5344 142.145C84.9359 140.433 86.7259 137.997 87.6422 135.194L87.6442 135.187C87.9223 134.26 88.1292 133.313 88.2632 132.354L88.2638 132.354L88.2648 132.345L88.2657 132.34L88.2654 132.34C88.3701 131.613 88.4236 130.878 88.4253 130.143C88.4253 130.016 88.4101 129.896 88.4068 129.77L90.1392 129.616C90.3092 129.601 90.4747 129.553 90.626 129.474C90.7774 129.395 90.9117 129.287 91.0213 129.156C91.1309 129.025 91.2137 128.874 91.2649 128.711C91.316 128.548 91.3346 128.377 91.3196 128.207C91.3045 128.037 91.2561 127.871 91.1772 127.72C91.0982 127.569 90.9902 127.434 90.8593 127.325C90.7284 127.215 90.5772 127.132 90.4143 127.081C90.2515 127.03 90.0801 127.011 89.9101 127.026L89.91 127.027ZM32.1132 143.357C32.0341 143.423 31.9655 143.499 31.8876 143.566C26.3845 141.403 21.3093 138.279 16.8985 134.341C11.9827 129.794 8.88459 123.471 8.89546 117.53C8.87534 114.949 9.49655 112.404 10.7033 110.123C12.1156 107.561 14.1488 105.394 16.6163 103.823C19.2588 102.044 22.3719 101.094 25.5573 101.094C30.0526 101.169 34.3688 102.868 37.7089 105.878C41.3319 109.056 43.7261 113.403 44.4747 118.164C44.5277 118.5 44.5745 118.852 44.6203 119.206C44.6136 119.253 44.6096 119.301 44.6085 119.348C44.6221 119.402 44.6394 119.455 44.6604 119.507C45.0162 122.799 45.1809 126.109 45.1536 129.42C45.1536 132.033 45.0782 134.428 45.0028 136.168C44.9697 136.933 44.9368 137.562 44.9101 138.036C43.1792 138.286 41.4723 138.681 39.8073 139.216L39.3565 138.089C39.2941 137.929 39.2006 137.783 39.0815 137.659C38.9624 137.536 38.82 137.437 38.6625 137.369C38.5051 137.301 38.3357 137.264 38.1641 137.262C37.9925 137.26 37.8222 137.291 37.6628 137.355C37.5035 137.419 37.3584 137.513 37.2358 137.633C37.1133 137.753 37.0157 137.897 36.9487 138.055C36.8818 138.213 36.8468 138.382 36.8457 138.554C36.8447 138.725 36.8776 138.896 36.9426 139.054L37.3763 140.139C35.4797 140.959 33.708 142.042 32.1132 143.356L32.1132 143.357ZM85.6897 131.988L85.6878 132.002C85.5712 132.831 85.3915 133.65 85.1504 134.451C84.3904 136.726 82.9218 138.697 80.9599 140.076L80.957 140.079C78.4778 141.86 75.7166 143.212 72.7889 144.078C71.5313 144.474 70.4337 144.746 69.6563 144.918C69.3786 144.979 69.1593 145.023 68.9705 145.06C68.6391 144.681 68.3112 144.299 67.9489 143.944C67.011 143.035 65.9861 142.22 64.8889 141.511L65.5564 140.578C65.757 140.298 65.8381 139.949 65.7817 139.609C65.7253 139.269 65.5362 138.965 65.2558 138.764C64.9754 138.564 64.6268 138.483 64.2866 138.539C63.9465 138.595 63.6426 138.785 63.442 139.065L62.626 140.205C61.999 139.897 61.3439 139.621 60.6715 139.365C60.6496 139.106 60.6136 138.569 60.6136 137.825C60.6003 135.265 61.0322 132.721 61.8899 130.309C62.9825 127.135 65.2266 124.487 68.1782 122.889L68.2532 122.845L68.2749 122.832C69.3076 122.29 70.3964 121.862 71.522 121.557L71.5291 121.555C72.8492 121.192 74.2117 121.006 75.5807 121.003C78.1973 120.927 80.7594 121.759 82.8315 123.359C83.7589 124.122 84.5026 125.083 85.0074 126.173C85.567 127.421 85.8462 128.776 85.8254 130.143C85.8237 130.761 85.7783 131.377 85.6897 131.988V131.988Z"/><path id="Vector_18" d="M23.756 127.321L21.6808 127.271C21.3361 127.263 21.0023 127.392 20.7527 127.63C20.5031 127.868 20.3583 128.195 20.35 128.54C20.3417 128.885 20.4707 129.218 20.7086 129.468C20.9465 129.718 21.2738 129.862 21.6184 129.871L23.6936 129.92C24.0383 129.929 24.3722 129.8 24.6218 129.562C24.8714 129.324 25.0162 128.997 25.0245 128.652C25.0328 128.307 24.9038 127.973 24.6659 127.724C24.428 127.474 24.1007 127.329 23.756 127.321Z"/><path id="Vector_19" d="M24.9543 112.06C24.7521 111.781 24.4475 111.593 24.1073 111.539C23.7671 111.484 23.4192 111.567 23.1399 111.769C22.8607 111.971 22.6731 112.275 22.6182 112.615C22.5633 112.956 22.6457 113.304 22.8472 113.583L24.022 115.208C24.2242 115.487 24.5288 115.674 24.869 115.729C25.2092 115.783 25.5572 115.701 25.8364 115.499C26.1156 115.297 26.3033 114.992 26.3582 114.652C26.413 114.312 26.3306 113.964 26.1291 113.685L24.9543 112.06Z"/><path id="Vector_20" d="M37.3283 125.571L38.3039 123.696C38.3827 123.544 38.4309 123.379 38.4457 123.209C38.4606 123.038 38.4418 122.867 38.3904 122.704C38.339 122.541 38.2561 122.39 38.1463 122.26C38.0366 122.129 37.9021 122.021 37.7507 121.942C37.5992 121.863 37.4338 121.815 37.2637 121.8C37.0936 121.785 36.9223 121.804 36.7595 121.856C36.5966 121.907 36.4455 121.99 36.3148 122.1C36.184 122.209 36.0762 122.344 35.9974 122.495L35.0218 124.37C34.943 124.522 34.8948 124.687 34.8799 124.857C34.8651 125.027 34.8839 125.199 34.9352 125.362C34.9866 125.524 35.0696 125.676 35.1793 125.806C35.2891 125.937 35.4235 126.045 35.575 126.124C35.7264 126.203 35.8919 126.251 36.062 126.266C36.2321 126.28 36.4034 126.262 36.5662 126.21C36.895 126.106 37.1691 125.876 37.3283 125.571Z"/><path id="Vector_21" d="M39.5137 159.13L38.1631 160.805C38.0545 160.938 37.9732 161.091 37.9239 161.255C37.8747 161.419 37.8584 161.592 37.876 161.762C37.8937 161.933 37.9449 162.098 38.0268 162.249C38.1087 162.4 38.2195 162.533 38.3531 162.641C38.4866 162.748 38.64 162.828 38.8047 162.876C38.9693 162.925 39.1418 162.94 39.3123 162.921C39.4827 162.902 39.6478 162.849 39.7979 162.766C39.948 162.683 40.0802 162.572 40.1869 162.437L41.5375 160.763C41.6462 160.63 41.7274 160.477 41.7767 160.313C41.826 160.148 41.8423 159.976 41.8246 159.805C41.807 159.635 41.7557 159.469 41.6739 159.319C41.592 159.168 41.4811 159.035 41.3476 158.927C41.2141 158.82 41.0606 158.739 40.896 158.691C40.7314 158.643 40.5588 158.628 40.3884 158.647C40.2179 158.666 40.0529 158.718 39.9028 158.801C39.7526 158.884 39.6204 158.996 39.5137 159.13Z"/><path id="Vector_22" d="M52.5502 149.778C52.2735 149.572 51.9264 149.485 51.5853 149.535C51.2442 149.586 50.937 149.769 50.7313 150.046C50.5256 150.323 50.4383 150.67 50.4885 151.011C50.5387 151.352 50.7223 151.659 50.999 151.865L52.8486 153.24C53.1254 153.445 53.4724 153.533 53.8135 153.483C54.1546 153.432 54.4618 153.249 54.6675 152.972C54.8732 152.695 54.9606 152.348 54.9104 152.007C54.8602 151.666 54.6765 151.359 54.3998 151.153L52.5502 149.778Z"/><path id="Vector_23" d="M58.4628 165.768L60.3378 164.869C60.4918 164.795 60.6299 164.691 60.744 164.564C60.8581 164.437 60.946 164.289 61.0027 164.128C61.0595 163.967 61.0839 163.796 61.0746 163.625C61.0654 163.455 61.0226 163.288 60.9487 163.134C60.8748 162.98 60.7713 162.842 60.6441 162.728C60.5169 162.614 60.3685 162.526 60.2073 162.469C60.0462 162.413 59.8755 162.389 59.7049 162.398C59.5344 162.407 59.3673 162.45 59.2134 162.524L57.3384 163.424C57.1843 163.497 57.0463 163.601 56.9322 163.728C56.8181 163.855 56.7302 164.003 56.6734 164.165C56.6167 164.326 56.5923 164.496 56.6015 164.667C56.6108 164.837 56.6536 165.005 56.7275 165.159C56.8013 165.313 56.9048 165.45 57.032 165.564C57.1592 165.678 57.3077 165.766 57.4688 165.823C57.63 165.879 57.8007 165.904 57.9713 165.894C58.1418 165.885 58.3088 165.842 58.4628 165.768Z"/><path id="Vector_24" d="M49.4398 175.291C49.3378 175.154 49.2095 175.037 49.0625 174.95C48.9154 174.862 48.7525 174.804 48.583 174.779C48.4135 174.755 48.2407 174.764 48.0747 174.806C47.9088 174.848 47.7528 174.923 47.6157 175.026C47.4787 175.128 47.3633 175.257 47.2762 175.405C47.1891 175.552 47.1321 175.716 47.1083 175.885C47.0845 176.055 47.0945 176.227 47.1377 176.393C47.1808 176.559 47.2563 176.715 47.3598 176.851L48.4848 178.351C48.5869 178.489 48.7151 178.605 48.8621 178.693C49.0092 178.78 49.1721 178.838 49.3417 178.863C49.5112 178.888 49.6839 178.879 49.8499 178.836C50.0159 178.794 50.1719 178.719 50.3089 178.617C50.4459 178.514 50.5613 178.385 50.6484 178.237C50.7355 178.09 50.7925 177.927 50.8163 177.757C50.8401 177.587 50.8301 177.415 50.787 177.249C50.7438 177.083 50.6683 176.928 50.5648 176.791L49.4398 175.291Z"/><path id="Vector_25" d="M70.8457 119.047L70.8497 119.046L70.8527 119.045L70.8457 119.047Z"/><path id="Vector_26" d="M82.5362 142.144L82.5352 142.145L82.5332 142.147L82.5362 142.144Z"/><path id="Vector_27" d="M58.6134 116.374L58.6114 116.373L58.6094 116.372L58.6134 116.374Z"/><path id="Vector_28" d="M55.6252 114.198L55.6212 114.194L55.6172 114.191L55.6252 114.198Z"/><path id="Vector_29" d="M161.369 142.887L161.368 142.888L161.367 142.89L161.369 142.887Z"/><path id="Vector_30" d="M173.498 165.732C173.225 162.98 172.284 160.336 170.756 158.031C169.253 155.819 166.987 154.24 164.391 153.595C164.389 153.192 164.386 152.786 164.386 152.39V152.384L164.386 152.311C164.325 147.92 164.569 143.53 165.118 139.172C165.119 139.109 165.116 139.045 165.107 138.982C166.445 137.438 167.695 135.82 168.85 134.135L168.881 134.088L168.981 133.928C169.072 133.783 169.134 133.621 169.162 133.452C169.191 133.283 169.185 133.111 169.147 132.944C169.108 132.777 169.037 132.619 168.938 132.48C168.838 132.341 168.712 132.223 168.567 132.132C168.421 132.042 168.259 131.981 168.091 131.953C167.922 131.925 167.749 131.931 167.582 131.971C167.415 132.01 167.258 132.082 167.119 132.182C166.981 132.282 166.863 132.409 166.773 132.555L166.694 132.681C164.634 135.701 162.251 138.488 159.588 140.993L159.586 140.995C150.062 149.968 136.772 155.467 120.598 155.471C108.322 155.47 97.7073 152.294 89.1447 146.864C88.0315 146.151 86.9584 145.41 85.9169 144.63C85.0557 143.985 84.2104 143.314 83.4092 142.619L83.4063 142.617C82.7656 142.064 82.1522 141.519 81.5532 140.95C81.4298 140.83 81.284 140.736 81.1242 140.674C80.9644 140.611 80.7938 140.58 80.6221 140.584C80.4505 140.588 80.2813 140.625 80.1242 140.694C79.9672 140.764 79.8254 140.863 79.7071 140.988C79.5888 141.112 79.4963 141.259 79.4349 141.419C79.3735 141.579 79.3446 141.75 79.3496 141.922C79.3547 142.094 79.3937 142.262 79.4643 142.419C79.535 142.575 79.636 142.716 79.7614 142.833L79.7613 142.833C80.1418 143.195 80.5311 143.53 80.9169 143.873C80.8493 144.871 80.8133 145.859 80.8133 146.823C80.8326 150.035 81.1162 153.24 81.6612 156.406C80.729 156.962 79.9304 157.716 79.3218 158.615C77.6794 161.454 77.0121 164.753 77.4218 168.007C77.4398 168.073 77.4632 168.137 77.492 168.199C76.8467 169.438 76.5182 170.818 76.5358 172.215L76.5371 172.359C76.5329 174.54 76.832 176.71 77.4256 178.808C78.0752 181.26 79.5297 183.422 81.5557 184.949C83.4961 186.27 85.775 187.006 88.1215 187.069C88.4597 187.088 88.7947 187.098 89.1268 187.098C92.2319 187.171 95.2705 186.192 97.7504 184.322C98.9207 183.403 99.8833 182.246 100.575 180.928C101.267 179.61 101.672 178.161 101.764 176.675C101.829 175.762 101.861 174.861 101.861 173.974C101.912 170.239 101.277 166.526 99.9859 163.02C98.7714 159.94 97.0214 157.492 94.6481 156.239C93.2325 155.524 91.7014 155.065 90.1258 154.883C89.8984 153.52 89.6804 151.892 89.5462 150.147C99.0096 155.499 109.727 158.234 120.598 158.071C134.489 158.075 146.467 154.125 155.867 147.399C155.817 149.03 155.786 150.684 155.786 152.391C155.786 152.917 155.796 153.467 155.8 154.003C154.597 154.414 153.511 155.11 152.635 156.031C151.758 156.952 151.116 158.07 150.763 159.292C150.274 160.911 150.007 162.59 149.969 164.281C149.974 164.342 149.983 164.403 149.997 164.463C149.8 164.681 149.609 164.909 149.427 165.152L149.426 165.154C148.802 166.085 148.383 167.137 148.196 168.242C147.94 169.553 147.817 170.886 147.827 172.221C147.825 173.983 148.011 175.74 148.38 177.463C148.707 179.112 149.311 180.695 150.167 182.143C151.202 183.702 152.683 184.914 154.416 185.621C156.552 186.509 158.865 186.89 161.173 186.735C163.482 186.579 165.723 185.892 167.721 184.727C168.913 183.972 169.93 182.972 170.704 181.793C171.86 179.983 172.663 177.972 173.073 175.865C173.506 173.774 173.719 171.642 173.708 169.507C173.71 168.246 173.64 166.985 173.498 165.732ZM86.8456 148.456C86.9683 151.337 87.3121 154.204 87.874 157.032C87.9144 157.24 88.005 157.434 88.1377 157.598C88.2705 157.763 88.4414 157.892 88.6356 157.975C88.9727 158.115 89.2546 158.362 89.4381 158.678C89.851 159.425 90.1927 160.21 90.4586 161.021C90.6719 161.645 90.8614 162.324 91.0386 163.023C88.8494 162.739 86.6267 162.864 84.483 163.391C84.5061 163.227 84.5288 163.056 84.5519 162.899C84.7184 161.777 84.8833 160.857 84.994 160.274C85.0278 160.093 85.0232 159.907 84.9807 159.728C84.8136 159.034 84.5448 157.831 84.276 156.282C83.7232 153.159 83.4346 149.995 83.4133 146.823C83.4133 146.539 83.4233 146.251 83.4288 145.965C83.7413 146.21 84.0427 146.474 84.3581 146.711C85.1674 147.317 86 147.893 86.8456 148.456ZM82.2025 159.23C82.2708 159.545 82.333 159.823 82.3891 160.062C82.2767 160.669 82.1301 161.506 81.9797 162.519C81.897 163.081 81.8148 163.699 81.7371 164.341C81.098 164.638 80.4896 164.997 79.9206 165.413C79.9659 163.517 80.5081 161.667 81.493 160.046C81.6953 159.746 81.9336 159.472 82.2025 159.23ZM97.5651 163.969C98.7364 167.173 99.3111 170.564 99.2608 173.974C99.2608 174.799 99.2314 175.639 99.1711 176.489C99.1061 177.615 98.8017 178.715 98.2782 179.714C97.7547 180.714 97.0241 181.59 96.1352 182.285C94.1143 183.79 91.6453 184.569 89.1268 184.498C88.8456 184.498 88.5606 184.49 88.2718 184.473C87.0015 184.421 85.7496 184.151 84.5708 183.675C82.9082 182.979 81.5498 181.711 80.7413 180.1C79.6063 177.668 79.0568 175.004 79.1368 172.321L79.1358 172.215C79.1008 170.958 79.4882 169.725 80.236 168.715C80.9966 167.758 81.99 167.013 83.121 166.551C84.9033 165.817 86.8155 165.451 88.7428 165.475C90.0728 165.459 91.3978 165.64 92.6751 166.011C93.1254 166.143 93.5563 166.335 93.9567 166.58C94.2455 166.766 94.5959 166.829 94.9316 166.758C95.2674 166.686 95.5611 166.484 95.7487 166.197C95.9362 165.909 96.0025 165.559 95.9329 165.223C95.8634 164.887 95.6636 164.592 95.3774 164.402C94.882 164.094 94.3523 163.845 93.7991 163.66C93.812 163.548 93.8097 163.435 93.7924 163.324L93.7923 163.324C93.5586 162.261 93.2669 161.211 92.9185 160.18L92.9175 160.177C92.6538 159.411 92.3374 158.665 91.9706 157.943C92.4778 158.102 92.971 158.303 93.4453 158.544C94.9968 159.338 96.5037 161.241 97.5651 163.969ZM161.368 142.888C161.643 142.63 161.901 142.356 162.17 142.092C161.888 145.244 161.786 148.649 161.786 152.311L161.786 152.396V152.39C161.786 153.681 161.799 155.009 161.818 156.36C161.821 156.563 161.871 156.762 161.964 156.942C162.058 157.122 162.192 157.277 162.357 157.395C162.624 157.586 162.829 157.85 162.948 158.156C163.447 159.482 163.852 160.842 164.16 162.226C162.3 161.487 160.319 161.103 158.317 161.094C158.037 161.094 157.757 161.123 157.476 161.139C157.73 159.8 158.021 158.421 158.385 156.973C158.412 156.863 158.425 156.749 158.424 156.636C158.401 155.192 158.386 153.771 158.386 152.39C158.386 149.95 158.431 147.607 158.541 145.349C159.512 144.556 160.462 143.743 161.368 142.888H161.368ZM153.684 159.025C154.006 158.388 154.457 157.824 155.008 157.37C155.237 157.187 155.481 157.024 155.738 156.882C155.341 158.507 155.01 160.076 154.748 161.577C154.059 161.769 153.391 162.029 152.754 162.354C152.872 161.2 153.187 160.074 153.684 159.025H153.684ZM170.041 177.16C169.694 178.284 169.191 179.354 168.548 180.339C167.98 181.213 167.231 181.955 166.352 182.516C164.712 183.46 162.877 184.016 160.989 184.141C159.1 184.266 157.208 183.958 155.457 183.238C154.203 182.739 153.127 181.876 152.368 180.759C151.674 179.565 151.184 178.263 150.92 176.906C150.591 175.366 150.426 173.796 150.427 172.221C150.417 171.063 150.523 169.907 150.742 168.77C150.858 168.039 151.119 167.338 151.51 166.709C152.583 165.301 154.129 164.327 155.863 163.967C156.668 163.782 157.491 163.69 158.317 163.694C160.869 163.677 163.365 164.445 165.466 165.893L165.472 165.897C165.724 166.088 165.958 166.301 166.172 166.534C166.288 166.659 166.427 166.76 166.583 166.832C166.738 166.904 166.905 166.944 167.076 166.951C167.247 166.958 167.417 166.931 167.577 166.872C167.737 166.813 167.884 166.723 168.01 166.607C168.135 166.491 168.237 166.351 168.308 166.196C168.38 166.041 168.42 165.873 168.427 165.703C168.433 165.532 168.406 165.362 168.347 165.201C168.288 165.041 168.198 164.894 168.082 164.769C167.792 164.458 167.477 164.17 167.142 163.908C166.78 161.625 166.188 159.385 165.374 157.221L165.372 157.216C165.278 156.978 165.162 156.75 165.026 156.533C166.485 157.167 167.733 158.203 168.624 159.52C169.904 161.473 170.691 163.707 170.916 166.032C171.046 167.185 171.11 168.346 171.108 169.507C171.141 172.097 170.781 174.677 170.041 177.16H170.041Z"/><path id="Vector_31" d="M184.094 107.11L184.101 107.114L184.105 107.115L184.094 107.11Z"/><path id="Vector_32" d="M179.172 105.279H179.174L179.176 105.28L179.172 105.279Z"/><path id="Vector_33" d="M184.018 112.586L184.016 112.588L184.014 112.591L184.018 112.586Z"/><path id="Vector_34" d="M191.896 108.003L191.895 108C191.768 107.193 191.5 106.415 191.105 105.7L191.104 105.697C190.468 104.582 189.601 103.616 188.56 102.864L188.552 102.857C186.959 101.737 185.205 100.866 183.35 100.275L183.345 100.273C180.832 99.4475 178.258 98.82 175.647 98.3962C173.424 98.0192 169.904 97.6671 169.845 97.6605C169.676 97.6432 169.504 97.6595 169.34 97.7085C169.177 97.7575 169.025 97.8382 168.892 97.946C168.625 98.1638 168.455 98.4789 168.42 98.8219C168.385 99.1649 168.488 99.5078 168.706 99.7751C168.923 100.042 169.239 100.212 169.582 100.247C169.619 100.25 173.145 100.607 175.209 100.959C177.682 101.36 180.119 101.952 182.499 102.732C184.103 103.238 185.621 103.984 187.001 104.945C187.747 105.476 188.37 106.162 188.828 106.955C189.076 107.404 189.245 107.892 189.326 108.398C189.358 108.611 189.374 108.826 189.374 109.041C189.369 109.583 189.28 110.121 189.112 110.636C188.947 111.149 188.733 111.644 188.473 112.116C187.912 113.118 187.248 114.06 186.492 114.926C184.916 116.729 183.169 118.376 181.275 119.843C180.297 120.624 179.264 121.332 178.183 121.962C177.988 122.071 177.773 122.14 177.551 122.166C177.329 122.192 177.104 122.174 176.888 122.112C176.673 122.051 176.473 121.948 176.297 121.809C176.122 121.67 175.976 121.498 175.868 121.302C175.759 121.107 175.69 120.892 175.665 120.67C175.64 120.447 175.658 120.222 175.72 120.008C175.782 119.793 175.886 119.592 176.025 119.417C176.165 119.242 176.337 119.097 176.533 118.989C177.065 118.684 177.58 118.35 178.077 117.99C178.687 117.555 179.365 117.032 180.059 116.456C181.488 115.284 182.812 113.99 184.016 112.588C184.663 111.847 185.215 111.028 185.658 110.149L185.659 110.15L185.662 110.141L185.666 110.134L185.666 110.133C185.767 109.918 185.849 109.695 185.911 109.466C185.963 109.265 185.967 109.054 185.921 108.852C185.875 108.649 185.781 108.461 185.648 108.302L185.575 108.216L185.541 108.177C185.358 107.982 185.157 107.806 184.94 107.65C184.672 107.453 184.392 107.274 184.1 107.113C182.537 106.308 180.883 105.693 179.174 105.279C176.574 104.616 173.932 104.133 171.266 103.833L171.243 103.831L171.239 103.829L171.239 103.829L169.239 103.63C169.216 103.628 169.197 103.637 169.174 103.636C168.84 103.611 168.508 103.717 168.251 103.932C167.994 104.148 167.83 104.455 167.796 104.789C167.762 105.123 167.86 105.457 168.068 105.72C168.277 105.983 168.58 106.154 168.913 106.196C168.937 106.2 168.956 106.215 168.98 106.217L171.01 106.42C173.538 106.707 176.043 107.166 178.51 107.792L178.514 107.793C180.007 108.153 181.454 108.685 182.824 109.378L182.835 109.384C182.913 109.427 182.98 109.469 183.049 109.511C182.743 110.005 182.401 110.475 182.024 110.917L182.021 110.921C180.917 112.201 179.705 113.384 178.398 114.455C178.105 114.699 177.817 114.928 177.537 115.146C177.113 114.956 176.718 114.8 176.39 114.687C175.449 114.359 174.459 114.192 173.463 114.193C172.063 114.208 170.68 114.503 169.396 115.062C167.583 115.86 165.933 116.984 164.528 118.38C163.356 119.488 162.367 120.775 161.599 122.193C161.135 123.08 160.725 123.993 160.372 124.929C160.183 125.449 160.039 125.984 159.941 126.529C159.832 126.99 159.775 127.462 159.771 127.936L159.773 128.054C159.779 128.238 159.825 128.419 159.908 128.584C160.039 129.377 160.344 130.131 160.799 130.793C161.591 131.874 162.596 132.781 163.754 133.457C164.852 134.164 166.127 134.55 167.434 134.571C168.349 134.592 169.251 134.356 170.04 133.89C170.828 133.425 171.47 132.748 171.893 131.936C172.408 132.043 172.931 132.099 173.457 132.104C174.762 132.104 176.045 131.774 177.188 131.144C178.66 130.301 179.919 129.131 180.869 127.725C181.192 127.275 181.49 126.806 181.76 126.323C182.522 125.045 182.944 123.593 182.984 122.106C182.984 122.007 182.976 121.911 182.972 121.813C184.967 120.26 186.809 118.518 188.471 116.612L188.473 116.61C189.346 115.606 190.113 114.514 190.761 113.352L190.762 113.35C191.1 112.733 191.378 112.086 191.593 111.416L191.594 111.412C191.84 110.646 191.968 109.847 191.974 109.042C191.975 108.694 191.948 108.347 191.896 108.003ZM178.752 126.215C178.032 127.299 177.072 128.204 175.948 128.86C175.186 129.283 174.328 129.505 173.457 129.504C172.488 129.487 171.535 129.252 170.67 128.816C170.38 128.676 170.1 128.516 169.831 128.339C169.736 128.275 169.664 128.224 169.62 128.191L169.575 128.157L169.569 128.152L169.568 128.153C169.406 128.022 169.215 127.932 169.011 127.891C168.807 127.85 168.596 127.859 168.396 127.916L167.307 128.229C167.143 128.276 166.99 128.355 166.856 128.461C166.722 128.567 166.611 128.699 166.528 128.848C166.446 128.998 166.393 129.162 166.374 129.331C166.355 129.501 166.369 129.673 166.416 129.837C166.463 130.001 166.542 130.154 166.648 130.288C166.755 130.421 166.886 130.533 167.036 130.615C167.185 130.698 167.349 130.751 167.519 130.77C167.688 130.789 167.86 130.775 168.024 130.728L168.522 130.585C168.746 130.729 169.03 130.894 169.37 131.068C169.216 131.27 169.031 131.446 168.82 131.587C168.406 131.85 167.924 131.984 167.434 131.971C166.617 131.949 165.823 131.701 165.138 131.256C164.286 130.769 163.541 130.114 162.949 129.33C162.605 128.849 162.423 128.271 162.428 127.679C162.436 127.465 162.46 127.252 162.5 127.042C162.617 126.551 162.832 126.088 163.133 125.682C163.359 125.378 163.648 125.126 163.979 124.943C164.327 124.758 164.715 124.664 165.109 124.669C165.216 124.669 165.323 124.675 165.43 124.687C165.6 124.706 165.773 124.692 165.937 124.644C166.102 124.597 166.256 124.517 166.39 124.41C166.523 124.302 166.635 124.17 166.717 124.019C166.799 123.869 166.851 123.704 166.869 123.533C166.888 123.363 166.872 123.19 166.823 123.026C166.774 122.862 166.694 122.709 166.586 122.575C166.478 122.442 166.344 122.332 166.193 122.251C166.042 122.169 165.877 122.119 165.706 122.102L165.706 122.102C165.508 122.08 165.308 122.069 165.109 122.069C164.978 122.069 164.852 122.083 164.725 122.092C164.992 121.731 165.3 121.352 165.648 120.968C165.677 120.952 165.71 120.951 165.739 120.932C165.993 120.76 166.272 120.628 166.566 120.539C167.057 120.409 167.564 120.351 168.072 120.365C168.226 120.365 168.393 120.369 168.571 120.377C168.916 120.392 169.252 120.27 169.506 120.037C169.761 119.804 169.912 119.48 169.927 119.135C169.935 118.909 169.882 118.685 169.775 118.485C169.668 118.286 169.51 118.118 169.317 118C169.67 117.799 170.033 117.618 170.406 117.457C171.37 117.034 172.41 116.808 173.463 116.793C173.938 116.8 174.412 116.86 174.874 116.973C173.977 117.609 173.358 118.563 173.144 119.641C172.93 120.719 173.136 121.838 173.722 122.768C174.307 123.698 175.226 124.368 176.291 124.641C177.355 124.914 178.484 124.769 179.444 124.235L179.448 124.233C179.634 124.129 179.827 124.011 180.019 123.894C179.872 124.295 179.695 124.685 179.488 125.059C179.265 125.458 179.019 125.843 178.752 126.215V126.215Z"/><path id="Vector_35" d="M178.076 117.989L178.075 117.99L178.074 117.991L178.076 117.989Z"/></g></g></svg>