<svg width="200" height="200" viewBox="0 0 200 200" xmlns="http://www.w3.org/2000/svg"><g id="type=warning, mode=light"><g id="Group 432527071"><path id="Vector" d="M162.561 32.5098C161.243 31.0605 161.722 28.4976 161.722 28.4976C161.722 28.4976 155.127 30.7266 156.926 36.4102C158.605 35.2959 160.523 36.0762 160.523 36.0762C160.284 34.4043 162.561 32.5098 162.561 32.5098Z"/><path id="Vector_2" d="M173.353 7.47028C167.976 12.0733 170.955 17.2408 170.955 17.2408C168.556 16.9068 165.439 17.9097 165.918 21.5875C168.556 18.2442 176.71 22.1446 176.71 22.1446C174.192 19.6929 176.111 16.461 176.111 16.461C176.111 16.461 174.91 14.3018 175.191 12.0772C175.909 6.40632 180.48 6.70808 182.279 6.52253C182.279 6.52253 177.909 3.56989 173.353 7.47028Z"/><path id="Vector_3" d="M174.912 26.8257C174.912 26.8257 171.314 29.7231 172.393 32.8438C172.634 31.0606 175.751 30.5034 175.751 30.5034C174.672 29.5005 174.912 26.8257 174.912 26.8257Z"/><path id="Vector_4" d="M130.222 54.1265C130.222 54.1265 126.212 52.6875 124.386 54.9478C124.995 57.8169 124.733 58.9473 125.517 61.0342C126.299 63.1206 131.913 62.0571 131.323 59.459C130.733 56.8608 130.222 54.1265 130.222 54.1265Z"/><path id="Vector_5" d="M141.038 31.4693C141.637 38.3795 148.772 38.3053 148.772 38.3053C148.772 38.3053 147.092 35.1847 147.812 32.1754C148.938 27.4654 155.247 27.3829 155.247 27.3829C155.606 23.3707 160.762 23.0362 160.762 23.0362C159.323 18.0211 162.201 17.3526 162.201 17.3526C163.04 11.3341 168.795 9.99669 168.795 9.99669C168.555 9.55089 165.438 7.32189 163.4 8.21349C160.268 9.58312 160.762 15.6808 160.762 15.6808C154.527 16.6837 152.008 20.0274 152.008 20.0274C152.249 14.566 157.644 12.8946 157.644 12.8946C157.165 8.65929 160.282 7.21056 160.282 7.21056C159.323 6.76476 157.285 6.87609 157.285 6.87609C155.366 0.857538 149.491 3.64416 149.491 3.64416C152.249 3.97863 152.608 5.87316 152.608 5.87316C144.934 5.65002 146.014 13.4518 146.014 13.4518C141.217 10.9996 144.335 5.87316 144.335 5.87316C141.817 4.53576 139.299 5.76183 139.299 5.76183C139.299 5.76183 136.218 2.32384 131.943 4.66515C128.081 6.7799 129.467 11.7799 129.467 11.7799C126.71 11.2228 126.71 8.77062 126.71 8.77062C126.71 8.77062 122.512 8.65929 121.913 12.003C121.913 12.003 117.356 8.77062 111.84 12.5602C108.151 15.0958 109.084 20.3614 109.084 20.3614C109.084 20.3614 105.965 23.0362 108.364 27.6061C110.317 31.3282 115.438 30.6149 115.438 30.6149C115.438 30.6149 116.628 33.8981 120.15 34.0192L121.082 38.6027L126.298 37.2115L125.262 31.9684C125.669 31.4244 125.77 30.9865 125.77 30.9865C130.403 32.1437 132.764 29.129 132.764 29.129C134.563 32.2496 141.038 31.4693 141.038 31.4693ZM144.215 17.5924V20.7897C144.215 20.7897 146.374 18.0719 149.491 19.1114C144.295 23.5079 145.495 28.6236 145.495 28.6236C145.495 28.6236 143.256 28.1442 142.296 26.545C138.835 20.7755 144.215 17.5924 144.215 17.5924ZM122.309 24.6275C121.948 24.6046 121.53 24.6119 121.053 24.6769C119.22 24.9269 118.47 25.7604 118.47 25.7604L118.485 25.8356C117.686 26.3986 117.277 26.9449 117.277 26.9449C117.277 26.9449 114.559 27.4244 114.319 23.5875C114.079 19.7506 118.635 15.1144 118.635 15.1144C118.635 15.1144 118.624 20.1085 121.261 21.4674L124.871 20.0704L125.35 25.1862C124.217 24.7691 123.208 24.6202 122.309 24.6275ZM136.141 15.5938C136.141 15.5938 133.503 12.9561 134.863 10.6378C136.391 8.03087 139.979 9.27891 139.979 9.27891C139.979 9.27891 136.622 11.3575 136.141 15.5938Z"/><path id="Vector_6" d="M85.462 109.655C87.8536 108.772 88.9161 106.115 88.1524 103.615C87.0313 99.9434 81.3614 98.5522 81.3614 98.5522C81.3614 98.5522 77.918 103.188 79.4903 106.813C80.5313 109.212 83.0694 110.539 85.462 109.655Z"/><path id="Vector_7" d="M165.377 128.44C161.606 127.025 157.734 126.598 154.38 126.597C148.893 126.599 144.773 127.741 144.701 127.76C144.164 127.908 143.781 128.384 143.75 128.94L143.748 129.024C143.743 129.081 143.709 130.132 142.582 131.884C141.637 133.348 139.89 135.311 136.733 137.523C136.992 135.065 137.163 133.262 137.194 132.93C137.313 132.3 138.748 124.71 140.187 116.385C140.938 112.038 141.69 107.498 142.256 103.647C142.538 101.72 142.775 99.9667 142.941 98.4891C143.107 97.0078 143.206 95.8174 143.207 94.9465C143.207 94.8138 143.205 94.6865 143.2 94.5623V94.5606C143.135 93.154 142.862 90.638 142.453 87.4066C141.224 77.7296 138.761 61.8501 136.982 53.2689C136.328 50.1132 135.666 47.4673 135.113 45.5081C134.836 44.528 134.587 43.7203 134.375 43.0981C134.269 42.7865 134.173 42.5216 134.084 42.2978C133.993 42.0706 133.92 41.8973 133.811 41.7042C133.15 40.5706 132.132 39.7188 131.075 38.962C130.043 38.2327 128.956 37.6166 128.088 37.1143L125.598 25.6538L125.596 25.6542C125.421 24.8046 124.84 24.1335 124.163 23.749C123.475 23.3527 122.677 23.1775 121.823 23.1755C121.398 23.1755 120.958 23.2206 120.509 23.3124C119.493 23.5211 118.629 23.9203 117.974 24.5177C117.322 25.1065 116.882 25.9451 116.886 26.8504C116.886 27.0377 116.906 27.2305 116.945 27.4235L116.943 27.4239L119.178 38.9019C118.841 39.1715 118.501 39.4608 118.158 39.7949C117.854 40.0909 117.608 40.4167 117.408 40.7547C116.655 41.2554 116.104 41.9341 115.74 42.6475C115.124 43.8561 114.923 45.158 114.831 46.2752C114.788 46.8336 114.776 47.3469 114.772 47.7714C114.769 48.1921 114.771 48.5387 114.763 48.6915V48.6904C114.757 48.8126 114.753 48.9352 114.753 49.0599C114.76 49.4403 114.766 49.8093 114.959 50.2839C115.058 50.5173 115.23 50.7949 115.525 51.0139C115.817 51.236 116.208 51.3444 116.526 51.3388C116.839 51.335 117.083 51.2586 117.31 51.1664C117.479 51.4025 117.653 51.6164 117.814 51.7958C117.884 51.8715 117.948 51.9345 118.012 51.9997C117.965 52.3681 117.922 52.8397 117.921 53.3713C117.922 53.9052 117.964 54.4957 118.106 55.1019C118.106 55.1018 118.106 55.1017 118.106 55.1016L118.107 55.1024C118.277 55.8232 118.666 56.4085 119.107 56.8614C119.774 57.5424 120.569 57.9791 121.306 58.282C121.405 58.3223 121.493 58.3391 121.59 58.3741C121.535 58.9751 121.48 59.7233 121.424 60.6252C121.303 62.5757 121.179 65.1818 121.058 68.0699C118.833 61.326 115.659 55.3807 111.263 50.7503C108.298 47.6293 104.776 45.1165 100.661 43.3962C96.5459 41.6745 91.8455 40.7467 86.5327 40.7474C83.3879 40.7476 80.0278 41.0726 76.4397 41.7461L73.1606 38.5984C72.7498 38.2042 72.1265 38.1233 71.6289 38.3999L68.1372 40.3401C65.6658 38.761 62.6863 37.9296 60.2185 37.4464C57.5115 36.9245 55.425 36.8448 55.3813 36.8426C54.8044 36.8207 54.2852 37.1784 54.1001 37.7252C53.9153 38.2718 54.1106 38.8716 54.5825 39.2042C55.8909 40.1247 57.0354 41.4239 57.9963 42.8762C58.8081 44.0996 59.4731 45.4198 60.0264 46.6937C50.3804 50.584 43.2783 55.2939 38.4102 60.7602C32.717 67.1425 30.1421 74.5679 30.1521 82.581C30.1543 89.483 32.0337 96.8212 35.3289 104.485C35.3191 104.489 35.3086 104.487 35.2988 104.492L35.2986 104.491C31.3823 106.136 29.0586 108.972 27.8064 111.837C26.5444 114.708 26.2776 117.608 26.2754 119.653C26.2756 121.332 26.4609 122.441 26.4697 122.494C26.54 122.91 26.8079 123.266 27.1877 123.449C27.5676 123.632 28.0125 123.619 28.3813 123.415L34.9099 119.799C34.511 121.065 34.2214 122.615 34.2222 124.447C34.2219 125.849 34.3901 127.413 34.8005 129.134C34.8972 129.54 35.1831 129.874 35.5688 130.034C35.9543 130.193 36.3933 130.157 36.7483 129.938L43.2917 125.896C44.0725 127.494 46.0056 130.897 49.6914 134.317C54.6748 138.95 62.9177 143.55 75.5627 143.539C76.9812 143.539 78.4551 143.482 79.9866 143.362C80.853 143.293 81.6304 143.229 82.3462 143.168C81.6709 144.114 81.0535 145.113 80.4939 146.091C79.4534 147.916 78.6199 149.669 78.0662 150.793C77.9277 150.749 77.7839 150.716 77.6306 150.722H77.6304C77.5364 150.726 77.4441 150.727 77.3538 150.727C75.749 150.722 74.7251 150.204 74.0505 149.703C73.7166 149.452 73.478 149.201 73.3306 149.024L73.1772 148.825L73.1514 148.786L73.1501 148.785L73.1482 148.786C72.8594 148.307 72.2976 148.064 71.7507 148.188C71.6355 148.214 68.8225 148.861 65.3103 151.277C61.7998 153.689 57.5994 157.894 54.8083 164.92C54.5632 165.536 54.8201 166.237 55.4053 166.548C55.9902 166.86 56.7146 166.682 57.0891 166.135C58.7708 163.679 61.1697 162.577 63.2417 162.577C64.2324 162.577 65.1394 162.827 65.877 163.285C66.615 163.747 67.1968 164.406 67.5681 165.326C67.728 165.726 68.0791 166.023 68.4995 166.114C68.9202 166.205 69.3623 166.08 69.6733 165.783L69.6775 165.779C69.7485 165.712 70.5915 164.924 71.8354 164.044C72.4983 163.573 73.2815 163.084 74.1091 162.656C73.8562 163.583 73.6023 164.53 73.3469 165.511C68.5466 179.558 65.8279 186.157 64.269 192.7C64.103 193.398 64.5347 194.099 65.2334 194.265C65.9319 194.431 66.6328 193.999 66.7988 193.301L66.7986 193.301C68.0291 188.107 70.1196 182.633 73.5696 172.805C73.677 179.255 74.4224 185.783 74.4197 191.968C74.4197 192.307 74.4175 192.646 74.4136 192.985C74.4053 193.703 74.9808 194.292 75.6988 194.3C76.4168 194.308 77.0054 193.733 77.0137 193.015C77.0173 192.667 77.0196 192.318 77.0196 191.968C77.0167 185.1 76.1451 178.054 76.148 171.353C76.148 168.74 76.2793 166.181 76.637 163.708C76.655 163.582 76.6335 163.463 76.6165 163.343C77.1951 161.222 77.7617 159.258 78.29 157.571C79.0464 155.148 79.7434 153.249 80.2336 152.276C80.8069 151.128 81.6707 149.276 82.7527 147.378C83.8276 145.484 85.1338 143.559 86.4485 142.355C86.9766 141.869 87.0107 141.047 86.5244 140.519C86.0535 140.007 85.272 139.97 84.7432 140.409C84.6318 140.39 84.5225 140.362 84.4045 140.373C83.2024 140.487 81.6858 140.62 79.7822 140.77C78.3166 140.885 76.9111 140.939 75.5627 140.939C63.55 140.929 56.0522 136.653 51.459 132.41C49.167 130.286 47.6136 128.161 46.6392 126.579C46.1522 125.789 45.8098 125.134 45.5923 124.684C45.4836 124.459 45.4062 124.286 45.3574 124.172L45.3052 124.048L45.2947 124.022L45.2942 124.021C45.2075 123.795 45.0525 123.626 44.876 123.487C44.8625 123.461 44.8623 123.433 44.8469 123.408C44.4695 122.797 43.6685 122.608 43.0579 122.985L36.994 126.73C36.8797 125.914 36.822 125.149 36.822 124.447C36.8232 121.996 37.4197 120.225 37.9961 119.066C38.2847 118.487 38.5692 118.063 38.7725 117.793C38.8741 117.658 38.9551 117.561 39.0061 117.503L39.0584 117.446L39.0582 117.445C39.5179 116.99 39.5716 116.26 39.1837 115.743C38.7955 115.225 38.0797 115.071 37.5135 115.385L28.8819 120.165C28.8777 120.002 28.8753 119.832 28.8753 119.653C28.8731 117.84 29.129 115.275 30.1854 112.886C31.2518 110.493 33.0425 108.276 36.3101 106.887C36.3362 106.876 36.3526 106.853 36.3775 106.841C36.4285 106.95 36.472 107.059 36.5235 107.168C36.8277 107.819 37.6016 108.099 38.252 107.795C38.9024 107.49 39.1827 106.717 38.8785 106.066H38.8782C34.939 97.6546 32.7496 89.7536 32.752 82.5811C32.762 75.1121 35.0779 68.4297 40.3524 62.4889C44.8643 57.4158 51.6048 52.8975 60.9693 49.1164C61.0125 49.2423 61.0679 49.3827 61.1082 49.5045C61.4315 50.4784 61.6622 51.313 61.8109 51.8993C61.8853 52.1924 61.939 52.4234 61.9739 52.5788L62.012 52.7533L62.0225 52.8042C62.1485 53.4392 62.7186 53.8828 63.3651 53.8491C64.0115 53.8155 64.5325 53.315 64.5921 52.6704C64.7269 51.2342 65.1168 50.1538 65.6944 49.2667C66.5582 47.9444 67.9119 46.9898 69.7376 46.219C70.4947 45.8991 71.3406 45.6225 72.23 45.363C77.5059 43.9915 82.2662 43.347 86.5328 43.3474C91.5452 43.348 95.8863 44.218 99.6578 45.7949C105.311 48.1623 109.716 52.1228 113.138 57.2971C116.555 62.4688 118.961 68.8568 120.519 75.9657C120.559 76.1474 120.637 76.3094 120.74 76.4506C120.441 84.9987 120.218 93.1397 120.218 93.1452L120.217 93.1808C120.22 93.1818 120.204 93.364 120.15 93.6148C119.95 94.5921 119.31 96.6126 118.444 99.137C117.144 102.939 115.327 107.967 113.621 112.998C111.916 118.033 110.322 123.063 109.456 126.952C109.3 127.652 109.742 128.347 110.443 128.503C111.144 128.658 111.838 128.216 111.994 127.516C113.162 122.248 115.852 114.401 118.247 107.58C119.446 104.165 120.57 101.001 121.402 98.5079C121.817 97.2603 122.159 96.182 122.404 95.3088C122.526 94.8714 122.624 94.4858 122.695 94.1439C122.762 93.8105 122.809 93.5318 122.815 93.2164L122.817 93.2165C122.817 93.2116 122.869 91.3073 122.957 88.3673C123.089 83.9574 123.301 77.2293 123.536 71.1588C123.654 68.1237 123.777 65.2528 123.898 62.9219C123.926 62.4019 123.952 61.9123 123.98 61.4491C123.98 61.4497 123.98 61.4505 123.98 61.4511C124.007 61.5124 124.024 61.5769 124.055 61.6353C124.066 61.6545 124.079 61.6722 124.092 61.6906C124.178 61.8452 124.271 61.9956 124.381 62.1235C124.783 62.5872 125.289 62.8788 125.825 63.0692C126.363 63.2581 126.943 63.346 127.551 63.3467C127.971 63.3466 128.405 63.3033 128.844 63.2139C129.829 63.0102 130.698 62.6154 131.387 62.0535C131.73 61.7707 132.031 61.4427 132.261 61.0508C132.489 60.6613 132.646 60.1948 132.645 59.6875C132.645 59.5309 132.631 59.3667 132.597 59.2005L132.596 59.1981C132.582 59.1247 132.545 59.0611 132.524 58.9902C132.52 58.9244 132.535 58.8612 132.521 58.7948L131.508 54.1331C131.48 53.8778 131.401 53.6261 131.22 53.4176C130.748 52.8739 130.196 52.4683 129.614 52.2149C129.032 51.9597 128.431 51.8578 127.871 51.8585C126.548 51.8675 125.441 52.3706 124.633 52.8257C124.12 53.1192 123.745 53.3939 123.515 53.5736C122.962 53.8044 122.612 54.3742 122.725 54.9874L122.929 56.0858C122.874 56.0723 122.819 56.0583 122.76 56.0402C122.314 55.9109 121.747 55.6605 121.333 55.3576C121.124 55.2074 120.954 55.0466 120.84 54.8991C120.724 54.75 120.665 54.6218 120.637 54.5051L120.637 54.5039C120.56 54.1812 120.526 53.7978 120.524 53.4254C120.531 53.4094 120.546 53.3994 120.553 53.3829C120.984 52.3812 121.746 51.6401 122.647 51.0769C123.543 50.5169 124.557 50.1643 125.33 49.9666C126.025 49.7876 126.443 49.0789 126.264 48.3837C126.085 47.6884 125.377 47.2698 124.682 47.4487H124.681C123.734 47.6939 122.488 48.1143 121.272 48.8702C120.751 49.194 120.24 49.6011 119.762 50.0704C119.734 50.0408 119.707 50.014 119.679 49.9824C119.428 49.7082 119.204 49.3491 119.155 49.1478C119.134 49.075 119.122 48.9888 119.122 48.8848C119.111 48.5114 119.329 47.9011 119.598 47.4318C119.687 47.2716 119.774 47.1361 119.854 47.0159C120.212 46.5747 120.833 46.0142 121.586 45.5421C122.357 45.054 123.263 44.653 124.156 44.4721C124.859 44.3283 125.312 43.6416 125.169 42.9381C125.025 42.2347 124.338 41.781 123.635 41.9247H123.635C122.36 42.1866 121.193 42.7166 120.198 43.3432C119.851 43.5633 119.533 43.797 119.231 44.0355C119.23 43.9962 119.227 43.9578 119.228 43.9183C119.227 43.4714 119.28 43.0175 119.402 42.6287C119.526 42.2372 119.706 41.9183 119.973 41.6566C120.86 40.7918 121.728 40.2193 122.437 39.8538C123.138 39.4887 123.712 39.3309 123.877 39.3068C124.137 39.2628 124.395 39.2047 124.689 39.1568C124.98 39.109 125.292 39.0732 125.591 39.0734C126.035 39.0728 126.422 39.1527 126.713 39.3225C127.606 39.8385 128.658 40.4363 129.573 41.0843C130.489 41.7244 131.245 42.4364 131.555 42.9971C131.565 43.0147 131.623 43.1387 131.69 43.314C131.936 43.9432 132.356 45.2519 132.84 47.0421C133.326 48.8363 133.884 51.1293 134.437 53.7966C135.604 59.424 137.091 68.3704 138.312 76.5463C138.923 80.6352 139.467 84.5345 139.874 87.7341C140.28 90.9275 140.547 93.4474 140.602 94.6789V94.6772C140.605 94.7515 140.607 94.8424 140.607 94.9465C140.608 95.6191 140.52 96.7678 140.358 98.1978C139.792 103.225 138.357 111.828 137.066 119.142C136.421 122.801 135.811 126.143 135.363 128.57C135.138 129.783 134.955 130.768 134.827 131.449C134.699 132.13 134.628 132.506 134.628 132.507L134.61 132.629C134.61 132.631 134.536 133.433 134.405 134.741C134.209 136.702 133.887 139.791 133.502 142.967C133.118 146.141 132.669 149.41 132.231 151.688C132.197 151.867 132.2 152.057 132.242 152.234C132.243 152.235 132.331 152.607 132.49 153.301C133.607 158.148 138.163 178.569 139.406 193.111C139.468 193.827 140.097 194.357 140.813 194.296C141.528 194.234 142.059 193.605 141.997 192.889C141.906 191.829 141.798 190.741 141.676 189.632C144.506 188.35 146.575 186.201 148.493 183.816C150.449 181.376 152.287 178.657 154.621 176.096C155.54 175.088 156.461 174.463 157.361 174.076C158.261 173.691 159.149 173.542 160.013 173.541C161.483 173.539 162.881 173.993 163.9 174.462C164.409 174.696 164.821 174.931 165.1 175.102C165.239 175.188 165.345 175.258 165.413 175.305L165.485 175.355L165.499 175.365L165.499 175.365C165.937 175.689 166.53 175.707 166.985 175.408C167.442 175.109 167.663 174.558 167.539 174.026C167.519 173.948 167.126 172.255 165.995 170.282C165.732 169.825 165.424 169.352 165.074 168.882L166.206 166.362C166.368 166.002 166.357 165.589 166.178 165.237C165.998 164.886 165.669 164.636 165.283 164.556C165.214 164.542 164.691 164.439 163.862 164.439C162.939 164.439 161.619 164.591 160.155 165.129C160.055 165.093 159.964 165.048 159.863 165.015C158.658 164.628 157.544 164.39 156.492 164.256L156.225 162.369C156.163 161.93 155.881 161.552 155.478 161.368C155.075 161.184 154.604 161.218 154.232 161.459C154.159 161.507 153.139 162.174 151.925 163.542C151.619 163.886 151.301 164.276 150.983 164.711C150.447 164.884 149.929 165.078 149.451 165.308C147.25 166.368 145.63 167.884 144.181 169.022C144.177 169.025 144.174 169.027 144.17 169.03L142.958 165.301C142.806 164.836 142.408 164.496 141.924 164.419C141.441 164.343 140.957 164.543 140.669 164.94C140.656 164.96 139.586 166.432 138.338 168.48C138.171 167.612 138.004 166.748 137.84 165.919C136.53 159.305 135.338 154.07 134.926 152.292C136.537 151.3 137.925 151.012 139.069 151.008C140.095 151.007 140.936 151.249 141.514 151.487C141.802 151.605 142.023 151.723 142.164 151.805L142.313 151.897L142.34 151.914L142.341 151.915L142.341 151.914C142.632 152.124 143.002 152.206 143.354 152.137C143.709 152.067 144.024 151.847 144.212 151.538C145.85 148.85 147.498 147.267 148.994 146.35C150.492 145.435 151.85 145.16 153.025 145.157C154.111 145.157 155.04 145.405 155.688 145.653C156.012 145.777 156.265 145.899 156.429 145.987L156.606 146.086L156.641 146.107L156.645 146.109L156.645 146.109C156.969 146.32 157.375 146.376 157.745 146.26C158.117 146.143 158.419 145.861 158.563 145.498C159.505 143.112 161.208 141.013 163.267 139.531C165.326 138.046 167.724 137.189 170.02 137.192C171.386 137.193 172.719 137.487 173.975 138.132C174.509 138.406 175.16 138.279 175.553 137.825C175.946 137.37 175.976 136.708 175.626 136.219C172.814 132.281 169.144 129.852 165.377 128.44ZM129.905 59.6478C129.961 59.677 129.997 59.7024 130.022 59.7233C129.979 59.8084 129.833 59.9965 129.558 60.1761C129.256 60.3784 128.822 60.5657 128.324 60.6664C128.054 60.7214 127.792 60.7468 127.551 60.7467C127.086 60.7493 126.703 60.6456 126.51 60.5405C126.455 60.5113 126.419 60.486 126.393 60.4651C126.436 60.3801 126.582 60.1919 126.858 60.0123C127.159 59.8102 127.593 59.623 128.091 59.5224C128.363 59.467 128.625 59.4416 128.866 59.4417C129.33 59.4391 129.712 59.5428 129.905 59.6478ZM125.978 55.0521C126.555 54.7233 127.293 54.4503 127.871 54.4584C128.127 54.4591 128.352 54.5016 128.571 54.5968C128.714 54.66 128.861 54.7632 129.012 54.8931L129.445 56.8862C129.254 56.8669 129.064 56.842 128.866 56.8417C128.445 56.8418 128.011 56.8853 127.572 56.9749C126.944 57.1044 126.37 57.32 125.853 57.5989L125.443 55.3859C125.597 55.2806 125.771 55.1671 125.978 55.0521ZM124.269 36.591C123.899 36.652 123.591 36.7194 123.45 36.7421C122.973 36.8246 122.326 37.0284 121.536 37.4055L119.495 26.9269L119.491 26.9062L119.486 26.8504C119.489 26.7705 119.507 26.6472 119.729 26.4353C119.948 26.2319 120.377 25.9916 121.029 25.8598C121.315 25.8013 121.583 25.7754 121.823 25.7755C122.306 25.7736 122.671 25.886 122.857 25.9971C123.049 26.1175 123.045 26.1681 123.054 26.1895L123.057 26.2057L125.291 36.4887C124.915 36.5058 124.563 36.5429 124.269 36.591ZM145.451 175.506C145.839 175.164 145.988 174.621 145.828 174.129L145.017 171.635C146.351 170.666 147.556 169.548 148.888 168.642C148.749 169.022 148.616 169.413 148.5 169.826C148.338 170.4 148.591 171.015 149.11 171.309C149.628 171.603 150.284 171.505 150.694 171.073L150.694 171.074C150.717 171.049 151.279 170.475 152.188 169.891C153.099 169.304 154.345 168.72 155.734 168.588C156.084 168.554 156.412 168.375 156.63 168.098C156.847 167.821 156.944 167.461 156.895 167.112L156.871 166.938C157.552 167.061 158.278 167.237 159.066 167.49C160.191 167.852 161.112 168.455 161.885 169.183C162.669 169.919 163.277 170.785 163.749 171.611C162.682 171.24 161.419 170.943 160.013 170.941C158.846 170.941 157.589 171.149 156.336 171.687C155.082 172.223 153.842 173.089 152.698 174.346C150.212 177.081 148.329 179.872 146.466 182.187C144.84 184.214 143.253 185.848 141.347 186.898C141.034 184.426 140.669 181.893 140.264 179.363C141.138 178.847 143.041 177.629 145.451 175.506Z"/><path id="Vector_8" d="M107.393 57.7821C103.728 54.499 99.0778 53.2848 94.6996 53.2864C90.2833 53.293 86.1029 54.4915 83.1505 56.208C82.5304 56.5702 82.3214 57.3664 82.6835 57.9864C83.0458 58.6064 83.842 58.8154 84.4621 58.4532C86.9347 57.0014 90.7699 55.8798 94.6996 55.8864C98.6186 55.8879 102.592 56.9672 105.657 59.718C106.192 60.1973 107.014 60.1525 107.493 59.618C107.972 59.0834 107.927 58.2615 107.393 57.7821H107.393V57.7821Z"/><path id="Vector_9" d="M45.9474 73.0132C49.1158 70.5766 52.8326 69.1115 55.6297 68.7509C56.3414 68.6575 56.8429 68.0047 56.7494 67.2928C56.6559 66.581 56.003 66.0796 55.2913 66.1731C51.9437 66.6195 47.9149 68.2379 44.3658 70.9495C40.8292 73.6589 37.7699 77.506 36.6685 82.4101C36.5113 83.1106 36.952 83.8059 37.6527 83.963C38.3531 84.12 39.0484 83.6794 39.2057 82.9788H39.2054C40.1363 78.8174 42.7664 75.4518 45.9474 73.0132Z"/><path id="Vector_10" d="M93.7844 87.9694C94.1614 88.6328 94.5591 89.2293 94.9976 89.7453C95.437 90.2595 95.9175 90.7004 96.4937 91.017C97.2112 91.4152 98.0337 91.6494 98.8923 91.644C99.6809 91.6429 100.479 91.4716 101.368 91.1807C102.259 90.888 103.252 90.4702 104.452 89.9238C106.327 89.0641 107.523 88.3757 108.396 87.5099C108.828 87.0789 109.16 86.5981 109.394 86.1015C109.629 85.6042 109.771 85.1054 109.886 84.6007C110.002 84.0819 110.056 83.442 110.058 82.6188C110.054 80.0543 109.456 75.8191 107.179 71.3965C105.395 67.9495 101.69 65.7952 97.6062 65.7947C96.9739 65.7947 96.3323 65.8463 95.6877 65.9528C93.8398 66.2548 91.8901 67.0314 90.2742 68.6139V68.6139C89.3794 69.4878 88.9072 70.6528 88.9082 71.8193C88.9082 72.0843 88.9319 72.353 88.9832 72.621C89.5911 75.8541 90.5439 79.8502 91.7554 83.3121C92.3633 85.0451 93.033 86.6434 93.7844 87.9694ZM98.3782 80.6772C97.7869 81.0844 96.9775 80.9351 96.5703 80.3438L96.417 80.1211C96.0098 79.5298 96.1589 78.7203 96.7505 78.3131C97.3418 77.906 98.1511 78.0552 98.5584 78.6466L98.7117 78.8692C99.1189 79.4606 98.9697 80.27 98.3782 80.6772ZM95.8789 70.9193C96.0898 70.4558 96.4324 70.0304 96.8672 69.7095C96.8667 69.7097 96.8665 69.7098 96.8662 69.71L96.8672 69.7094C96.8672 69.7094 96.8672 69.7094 96.8672 69.7095C97.4556 69.266 98.1519 69.0017 98.8481 69.0048C99.4932 69.0035 100.084 69.2234 100.557 69.5316C101.035 69.8416 101.418 70.2359 101.745 70.6647C102.395 71.5251 102.838 72.5384 103.116 73.5241C103.298 74.1834 103.405 74.8245 103.406 75.4381C103.406 75.7099 103.385 75.9779 103.325 76.2538C103.263 76.5285 103.166 76.8188 102.958 77.1146C102.821 77.3096 102.626 77.505 102.376 77.6473L102.374 77.6484C101.892 77.9246 101.35 78.0524 100.84 78.0504C100.274 78.0496 99.7478 77.9083 99.269 77.6954C98.7893 77.4812 98.3518 77.1929 97.9514 76.8577C97.1536 76.1848 96.4946 75.3278 96.0593 74.3781C95.7727 73.7439 95.5823 73.0629 95.5801 72.3405C95.5796 71.8727 95.6655 71.3831 95.8789 70.9193Z"/><path id="Vector_11" d="M88.9832 72.6213V72.621L88.9824 72.6174L88.9832 72.6213Z"/><path id="Vector_12" d="M47.8372 101.764C48.3901 102.791 48.9482 103.65 49.457 104.33C49.9717 105.012 50.4133 105.503 50.8359 105.854C51.2874 106.225 51.771 106.574 52.3625 106.826C52.9526 107.08 53.6265 107.21 54.3562 107.208C55.4321 107.204 56.6482 106.963 58.324 106.494C60.2751 105.942 61.6646 105.482 62.78 104.843C63.3354 104.523 63.8218 104.148 64.2231 103.701C64.6257 103.254 64.9326 102.743 65.1619 102.201L65.1624 102.2C65.4763 101.449 65.5791 100.638 65.5815 99.7684C65.5801 98.5826 65.3774 97.2742 65.0513 95.8742C64.0679 91.6879 61.9409 86.6628 60.1104 82.9468L60.1108 82.9476C59.4778 81.6512 58.178 80.7326 56.6477 80.6113V80.6112C56.3984 80.5907 56.1521 80.5808 55.9087 80.5808C53.9768 80.5805 52.2549 81.2053 50.8152 82.0631C47.1277 84.2622 44.9631 88.1318 44.957 92.035C44.957 92.6017 45.0032 93.1689 45.0986 93.7309C45.6499 96.9849 46.7327 99.7113 47.8372 101.764ZM55.1477 96.231C54.5564 96.6382 53.7471 96.4889 53.3398 95.8975L53.1865 95.6749C52.7793 95.0835 52.9285 94.2741 53.52 93.8669C54.1113 93.4597 54.9207 93.609 55.3279 94.2003L55.4812 94.423C55.8884 95.0144 55.7393 95.8238 55.1477 96.231ZM52.6484 86.4729C52.8594 86.0095 53.2022 85.5843 53.6362 85.2635C53.636 85.2637 53.6357 85.2639 53.6355 85.264C53.6357 85.2639 53.636 85.2637 53.6362 85.2635C53.6365 85.2634 53.6365 85.2632 53.6367 85.2631C53.6365 85.2632 53.6365 85.2634 53.6362 85.2635C54.2249 84.8198 54.9211 84.5554 55.6174 84.5586C56.2622 84.5573 56.853 84.7772 57.3262 85.0854C57.8035 85.3953 58.1868 85.7895 58.5142 86.2182C59.1641 87.0785 59.6067 88.0917 59.8843 89.0774C60.0664 89.7366 60.1733 90.3777 60.1748 90.9914C60.1743 91.2632 60.1538 91.5313 60.0938 91.8074C60.0317 92.0821 59.9343 92.3726 59.7271 92.6685C59.5894 92.8635 59.394 93.059 59.144 93.2012L59.1426 93.2021C58.6614 93.4782 58.1194 93.6062 57.6086 93.6041C57.0435 93.6033 56.5168 93.462 56.0381 93.2492C55.5586 93.035 55.1211 92.7466 54.7209 92.4115C53.9231 91.7386 53.2642 90.8816 52.8286 89.9319C52.542 89.2977 52.3516 88.6167 52.3494 87.8943C52.3489 87.4263 52.4351 86.9367 52.6484 86.4729Z"/><path id="Vector_13" d="M80.3181 97.7771C80.2871 97.8199 79.6768 98.6425 79.0549 99.9004C78.4382 101.161 77.7864 102.854 77.7793 104.724C77.7788 105.576 77.9238 106.469 78.2979 107.331C78.8022 108.493 79.5967 109.462 80.574 110.146C81.55 110.83 82.7175 111.23 83.9412 111.23C84.5957 111.23 85.2634 111.115 85.9124 110.875C87.1189 110.431 88.0864 109.615 88.7261 108.617C89.3687 107.617 89.6965 106.44 89.6965 105.233C89.6965 104.57 89.5979 103.896 89.3962 103.235L88.1528 103.615L89.396 103.235C89.031 102.042 88.3145 101.083 87.5083 100.327C86.2927 99.1918 84.8555 98.4627 83.7131 97.9853C82.5701 97.5115 81.7163 97.3011 81.6714 97.2897C81.1646 97.1654 80.6292 97.3582 80.3181 97.7771ZM83.8711 100.931C84.5542 101.294 85.24 101.751 85.782 102.273C86.3272 102.797 86.7197 103.371 86.9092 103.994V103.994C87.0361 104.41 87.0967 104.828 87.0967 105.233C87.0967 105.97 86.8953 106.658 86.5396 107.21C86.1812 107.763 85.6814 108.186 85.0117 108.436C84.6494 108.569 84.2927 108.63 83.9412 108.63C83.2869 108.63 82.6394 108.417 82.0649 108.016C81.4915 107.615 80.9995 107.026 80.6831 106.296C80.4729 105.811 80.3796 105.286 80.3792 104.724C80.3721 103.495 80.8616 102.102 81.386 101.052C81.5742 100.67 81.7544 100.356 81.9182 100.084C82.447 100.268 83.1531 100.546 83.8711 100.931Z"/><path id="Vector_14" d="M118.109 55.1057C118.109 55.1055 118.11 55.1053 118.11 55.1052C118.11 55.105 118.109 55.105 118.109 55.1052C118.109 55.1053 118.108 55.1056 118.109 55.1057C118.109 55.1058 118.109 55.1058 118.109 55.1057Z"/></g></g></svg>