<svg xmlns="http://www.w3.org/2000/svg" width="200" height="200" fill="none"><g clip-path="url(#a)"><path fill="#191C22" d="M121.529 58.81c-.19 0-.39-.04-.57-.13-1.07-.52-2.15-1.17-3.08-2.28-.76.76-1.7 1.36-2.74 1.73-.68.24-1.42-.11-1.66-.79s.12-1.42.79-1.66c1.1-.39 2.03-1.17 2.53-2.14.23-.44.68-.68 1.17-.7.49 0 .94.29 1.15.73.62 1.27 1.43 2.02 2.98 2.78.65.32.91 1.09.6 1.74-.23.46-.69.73-1.17.73v-.01ZM161.859 93.22c-.08 0-.17 0-.26-.03l-3.73-.74a1.3 1.3 0 0 1-1.02-1.53c.14-.7.83-1.16 1.53-1.02l3.74.74c.7.14 1.16.82 1.02 1.53-.12.62-.67 1.05-1.27 1.05h-.01ZM97.47 120.91c-.11 0-.22-.01-.33-.04-25.9-6.71-54.9-14.28-71.32-19.33-1.51-.45-2.51-1.53-2.65-2.87-.14-1.3.59-2.58 1.92-3.34 4.65-3.16 9.27-5.66 14.81-8.6 2.57-1.36 5.22-2.61 7.89-3.72l1.38-.57c6.63-2.76 14.15-5.9 17.51-6.99 2.39-.77 6.42-1.16 8.98-.86 2.89.34 8.35 1.21 16.21 2.61.71.13 1.18.8 1.05 1.51-.13.71-.8 1.18-1.51 1.05-7.81-1.39-13.21-2.26-16.06-2.59-2.21-.26-5.82.09-7.88.76-3.26 1.06-11.05 4.3-17.32 6.91l-1.38.57a93.91 93.91 0 0 0-7.67 3.62c-5.49 2.91-10.06 5.38-14.61 8.48-.03.02-.07.04-.1.06-.43.24-.68.56-.65.82.03.26.35.52.83.66 16.38 5.04 45.35 12.61 71.21 19.31.7.18 1.11.89.93 1.58-.15.59-.68.97-1.26.97h.02Z"/><path fill="#191C22" d="M127.82 128.13c-2.13 0-4.29-.27-6.42-.83-1.38-.32-5.7-1.48-10.7-2.83-4.81-1.3-10.25-2.77-13.55-3.6-.7-.18-1.12-.88-.94-1.58.18-.7.88-1.12 1.58-.94 3.31.84 8.77 2.31 13.59 3.61 4.77 1.29 9.27 2.5 10.64 2.82 5.68 1.47 11.51.75 16.46-2.01 8.11-4.48 27.62-17.99 35.96-23.76.66-.44.59-1.19.55-1.41-.09-.55-.46-1.21-1.23-1.42l-12.2-3a1.298 1.298 0 1 1 .62-2.52l12.23 3c1.65.45 2.87 1.83 3.14 3.52.26 1.6-.38 3.12-1.66 3.98-8.35 5.78-27.94 19.34-36.15 23.88a24.324 24.324 0 0 1-11.92 3.09Z"/><path fill="#191C22" d="M128.15 139.93c-2.09 0-4.22-.27-6.33-.82-4.89-1.32-11.9-3.13-20.01-5.23-5.07-1.31-10.57-2.73-16.27-4.22-.69-.18-1.11-.89-.93-1.59.18-.69.89-1.11 1.59-.93 5.69 1.48 11.2 2.91 16.26 4.22 8.12 2.1 15.13 3.91 20.02 5.23 5.58 1.45 11.25.73 15.96-2.01 8.42-4.65 26.17-16.68 33.41-21.63 1.17-.84 1.46-1.4 1.83-2.89.3-1.18.91-7.84 1.25-12.03a1.299 1.299 0 1 1 2.59.21c-.09 1.09-.88 10.67-1.32 12.44-.48 1.93-1.04 3.08-2.87 4.39-7.29 4.99-25.12 17.07-33.61 21.76-3.5 2.04-7.48 3.09-11.58 3.09l.01.01ZM67.63 124.99c-.11 0-.23-.01-.34-.05-12.43-3.37-24.51-6.96-33.33-9.59l-5.33-1.58c-.07-.02-.15-.05-.21-.08-1-.5-3.08-1.54-3.67-3.6-.45-1.56-1.43-10.18-1.54-11.16-.08-.71.43-1.36 1.14-1.44.72-.08 1.36.43 1.44 1.14.41 3.61 1.17 9.72 1.46 10.74.26.91 1.53 1.58 2.23 1.93l5.23 1.55c9.3 2.76 20.87 6.21 33.27 9.57.69.19 1.1.9.91 1.59a1.3 1.3 0 0 1-1.25.96l-.01.02Z"/><path fill="#191C22" d="M125.259 172.14c-1.36 0-2.78-.26-4.26-.89-8.46-3.39-28.47-20.84-48.22-38.43-5.96-5.27-7.12-11.47-4.76-14.18 1.54-1.78 4.78-2.32 9.26 1.49 18.65 15.9 45.2 36.68 45.46 36.89 4.93 3.65 11.09 1.69 24.42-7.76 1.55-1.11 3.11-2.18 4.73-3.29 4.6-3.16 9.8-6.73 17.09-12.75a1.3 1.3 0 0 1 1.66 2c-7.37 6.09-12.63 9.7-17.27 12.89-1.61 1.11-3.15 2.17-4.7 3.27-12.56 8.91-20.66 12.78-27.5 7.71-.29-.23-26.88-21.04-45.57-36.97-2.46-2.09-4.72-2.8-5.61-1.77-1.15 1.33-.62 5.98 4.52 10.53 14.48 12.89 38.71 34.46 47.49 37.97 4.25 1.8 7.86-.25 12.04-2.63.69-.39 1.39-.79 2.09-1.17 8.68-4.8 22.13-15.08 32.87-23.49 1.24-.89 1.53-1.45 1.9-2.94.33-1.31.7-6.47.82-8.35.04-.72.65-1.27 1.38-1.22a1.3 1.3 0 0 1 1.22 1.38c-.04.72-.45 7.04-.89 8.82-.48 1.93-1.04 3.08-2.87 4.39-11.45 8.97-24.38 18.83-33.18 23.69-.7.38-1.38.77-2.06 1.15-3.18 1.81-6.44 3.66-10.06 3.66Z"/><path fill="#191C22" d="M167.869 131c-.06 0-.11 0-.17-.01-.71-.09-1.21-.75-1.12-1.46l1.72-13.09c.09-.71.75-1.21 1.46-1.12.71.09 1.21.75 1.12 1.46l-1.72 13.09c-.09.65-.64 1.13-1.29 1.13ZM115.929 187.78c-2.32 0-4.7-.49-7.24-1.25-22.02-6.32-51.9-15.24-63.61-19.56-4.34-1.69-7.45-5.73-7.93-10.31l-4.51-38.19c-.08-.71.43-1.36 1.14-1.44.72-.09 1.36.43 1.44 1.14l4.51 38.21c.38 3.64 2.84 6.84 6.26 8.17 11.62 4.28 41.43 13.18 63.42 19.49 5.46 1.62 9.51 1.89 14.11-1.51l37.07-25.93c1.91-1.93 2.87-3.62 3.21-5.65.27-1.22.45-2.42.6-3.37.1-.63.18-1.18.27-1.6.14-.7.83-1.16 1.53-1.02.7.14 1.16.83 1.02 1.53-.08.39-.16.9-.25 1.49-.15 1-.34 2.23-.62 3.48-.42 2.53-1.66 4.74-4 7.08-.05.05-.11.1-.17.15l-37.13 25.97c-3.08 2.28-6.04 3.14-9.12 3.14v-.02Z"/><path fill="#191C22" d="M127.09 152.89H127c-.72-.05-1.25-.67-1.2-1.39l.43-6.01c.05-.72.68-1.24 1.39-1.2.72.05 1.25.67 1.2 1.39l-.43 6.01c-.05.68-.62 1.21-1.3 1.21v-.01ZM169.8 135.51c-.38 0-.76-.17-1.02-.49-.44-.56-.35-1.38.21-1.83 1.21-.96 2.65-2.43 2.62-3.98-.03-1.24-.97-2.52-2.78-3.82a1.298 1.298 0 0 1 1.51-2.11c2.52 1.8 3.82 3.77 3.87 5.87.05 2.11-1.16 4.15-3.6 6.08-.24.19-.52.28-.8.28h-.01ZM50.03 160.84c-.65 0-1.22-.49-1.29-1.16l-3.86-34.99c-.08-.71.44-1.36 1.15-1.43.71-.08 1.36.44 1.43 1.15l3.86 34.99c.08.71-.44 1.36-1.15 1.43h-.14v.01ZM62.05 164.49c-.68 0-1.25-.53-1.3-1.21l-2.36-34.99c-.05-.72.49-1.34 1.21-1.38.71-.05 1.34.49 1.38 1.21l2.36 34.99c.05.72-.49 1.34-1.21 1.38h-.09.01ZM74.07 168.35c-.7 0-1.28-.56-1.3-1.26l-1.07-35.63c-.02-.72.54-1.32 1.26-1.34.69 0 1.32.54 1.34 1.26l1.07 35.63c.02.72-.54 1.32-1.26 1.34h-.04ZM86.09 172h-.01c-.72 0-1.3-.59-1.29-1.31l.21-27.47c0-.72.6-1.3 1.31-1.29.72 0 1.3.59 1.29 1.31l-.21 27.47c0 .71-.59 1.29-1.3 1.29ZM98.33 175.65h-.04c-.72-.02-1.28-.62-1.26-1.34l.64-20.18c.02-.72.63-1.27 1.34-1.26.72.02 1.28.62 1.26 1.34l-.64 20.18c-.02.7-.6 1.26-1.3 1.26ZM110.35 179.51h-.1c-.72-.06-1.25-.68-1.2-1.4l1.07-13.95a1.3 1.3 0 0 1 1.4-1.2c.72.06 1.25.68 1.2 1.4l-1.07 13.95c-.05.68-.62 1.2-1.29 1.2h-.01ZM112.489 150.96h-.08c-.72-.05-1.26-.66-1.21-1.38l.43-6.65c.05-.72.67-1.26 1.38-1.21.72.05 1.26.66 1.21 1.38l-.43 6.65c-.04.69-.62 1.22-1.3 1.22v-.01ZM73 126.28c-.72 0-1.3-.58-1.3-1.3v-1.72c0-.72.58-1.3 1.3-1.3.72 0 1.3.58 1.3 1.3v1.72c0 .72-.58 1.3-1.3 1.3ZM158.128 92.48c-.69 0-1.27-.54-1.3-1.24-.07-1.55-.13-3.05-.19-4.52-.62-15.04-1.1-26.93-8.82-52.66-.52-1.75 1.34-2.85 4.16-4.53.74-.44 1.53-.91 2.28-1.39-3.87.09-9.79.4-19.6 1.73-.52.19-1.19.02-2.44-.29-3.19-.8-10.66-2.68-21.08-1.27-.77.07-2.47-.19-6.79-.9-3.08-.5-8-1.31-11.2-1.6 4.28 3.12 5.61 4.31 4.98 5.72-6.54 14.63-8.61 32.62-10.13 45.75-.08.71-.73 1.23-1.44 1.14-.71-.08-1.22-.73-1.14-1.44 1.52-13.14 3.59-31.09 10.1-45.98-.8-.85-3.23-2.61-4.46-3.51-2.47-1.79-2.79-2.02-2.77-2.84 0-.43.24-.84.59-1.07 1.37-.91 5.36-.46 15.9 1.26 2.6.42 5.52.91 6.09.88 10.86-1.46 18.67.5 22 1.34.44.11.93.23 1.17.28h.04c12.41-1.7 18.75-1.78 22.55-1.83.55 0 1.03-.01 1.48-.02.54 0 1.01.3 1.22.78.21.48.11 1.05-.26 1.43-1.57 1.6-3.79 2.92-5.75 4.09-1.04.62-2.42 1.43-2.89 1.9 7.71 25.8 8.2 37.79 8.82 52.95.06 1.47.12 2.97.19 4.51.03.72-.52 1.32-1.24 1.36h-.06l-.01-.03Z"/><g fill="#191C22"><path d="M99.44 43.94c.919-5.1 4.379-9.03 8.949-9.39 5.57-.44 8.28 4.24 7.64 9.39-.82 6.61-4.97 9.39-9.55 9.39-4.58 0-8.02-3.97-7.04-9.39Z"/><path d="M106.479 53.83c-2.34 0-4.42-.95-5.86-2.68-1.59-1.9-2.18-4.5-1.68-7.3 1-5.5 4.78-9.44 9.41-9.8 2.43-.19 4.5.54 6 2.1 1.77 1.85 2.57 4.72 2.18 7.85-.76 6.15-4.52 9.83-10.05 9.83Zm-6.55-9.8c-.46 2.51.06 4.81 1.46 6.48 1.25 1.49 3.06 2.32 5.09 2.32 4.98 0 8.36-3.35 9.06-8.95.35-2.83-.34-5.4-1.91-7.04-1.28-1.34-3.08-1.96-5.2-1.79-4.17.33-7.59 3.94-8.5 8.98Z"/></g><g fill="#191C22"><path d="M141.519 46.81c-.41-5.17-3.45-9.43-7.96-10.24-5.5-.99-8.66 3.39-8.55 8.57.15 6.65 4 9.84 8.56 10.3 4.56.46 8.38-3.14 7.95-8.63Z"/><path d="M134.359 55.99c-.28 0-.56-.01-.84-.04-5.5-.56-8.87-4.59-9.01-10.79-.07-3.16 1.01-5.92 2.96-7.59 1.65-1.41 3.78-1.92 6.18-1.49 4.57.83 7.93 5.12 8.37 10.69.22 2.84-.63 5.36-2.4 7.1-1.41 1.38-3.25 2.12-5.26 2.12Zm-2.32-19.06c-1.51 0-2.85.47-3.93 1.4-1.72 1.47-2.67 3.95-2.61 6.81.13 5.65 3.16 9.32 8.11 9.82 2.02.2 3.91-.43 5.3-1.79 1.56-1.52 2.3-3.76 2.1-6.3-.4-5.11-3.44-9.04-7.55-9.79a7.92 7.92 0 0 0-1.43-.13l.01-.02Z"/></g><path fill="#fff" d="M110.229 42.25a2.53 2.53 0 1 0 0-5.06 2.53 2.53 0 0 0 0 5.06Z"/><path fill="#191C22" d="M110.229 42.75c-1.67 0-3.03-1.36-3.03-3.03 0-1.67 1.36-3.03 3.03-3.03 1.67 0 3.03 1.36 3.03 3.03 0 1.67-1.36 3.03-3.03 3.03Zm0-5.06c-1.12 0-2.03.91-2.03 2.03 0 1.12.91 2.03 2.03 2.03 1.12 0 2.03-.91 2.03-2.03 0-1.12-.91-2.03-2.03-2.03Z"/><path fill="#fff" d="M104.99 50.34a1.06 1.06 0 1 0 0-2.12 1.06 1.06 0 0 0 0 2.12Z"/><path fill="#191C22" d="M104.99 50.83c-.86 0-1.56-.7-1.56-1.56 0-.86.7-1.56 1.56-1.56.86 0 1.56.7 1.56 1.56 0 .86-.7 1.56-1.56 1.56Zm0-2.11a.56.56 0 1 0 0 1.12.56.56 0 1 0 0-1.12Z"/><path fill="#fff" d="M134.249 43.89a2.53 2.53 0 1 0 0-5.06 2.53 2.53 0 0 0 0 5.06Z"/><path fill="#191C22" d="M134.249 44.39c-1.67 0-3.03-1.36-3.03-3.03 0-1.67 1.36-3.03 3.03-3.03 1.67 0 3.03 1.36 3.03 3.03 0 1.67-1.36 3.03-3.03 3.03Zm0-5.06c-1.12 0-2.03.91-2.03 2.03 0 1.12.91 2.03 2.03 2.03 1.12 0 2.03-.91 2.03-2.03 0-1.12-.91-2.03-2.03-2.03Z"/><path fill="#fff" d="M129.009 51.97a1.06 1.06 0 1 0 0-2.12 1.06 1.06 0 0 0 0 2.12Z"/><path fill="#191C22" d="M129.009 52.47c-.86 0-1.56-.7-1.56-1.56 0-.86.7-1.56 1.56-1.56.86 0 1.56.7 1.56 1.56 0 .86-.7 1.56-1.56 1.56Zm0-2.11a.56.56 0 1 0 0 1.12.56.56 0 1 0 0-1.12ZM68.61 71.77c-.27 0-.54-.08-.77-.25-.58-.43-.7-1.24-.27-1.82a66.242 66.242 0 0 1 26.16-21.05c.66-.29 1.42 0 1.72.66.29.66 0 1.42-.66 1.72a63.555 63.555 0 0 0-25.13 20.22c-.25.35-.65.53-1.05.53v-.01ZM79.349 69.93h-.15c-.71-.08-1.22-.72-1.14-1.43.1-.87.62-1.51.93-1.9 3.77-4.66 8.56-8.63 13.84-11.47.63-.34 1.42-.1 1.76.53.34.63.1 1.42-.53 1.76a43.48 43.48 0 0 0-13.05 10.81c-.09.11-.35.43-.36.55-.08.66-.64 1.15-1.29 1.15h-.01ZM162.849 89.4c-.65 0-1.21-.49-1.29-1.15-1.42-12.2-8.09-23.95-17.83-31.43-.57-.44-.68-1.25-.24-1.82.44-.57 1.25-.68 1.82-.24 10.44 8.02 17.31 20.12 18.83 33.19.08.71-.43 1.36-1.14 1.44h-.15v.01Z"/><path fill="#191C22" d="M164.909 75.61c-.5 0-.98-.29-1.19-.78-5.57-12.7-12.04-18.37-17.63-22.25a1.301 1.301 0 0 1 1.48-2.14c5.89 4.08 12.7 10.05 18.53 23.34.29.66-.01 1.42-.67 1.71-.17.07-.35.11-.52.11v.01Z"/><path fill="#191C22" d="M171.099 74.82c-.54 0-1.04-.33-1.23-.87-3.73-10.55-11.59-19.5-21.57-24.57a1.3 1.3 0 0 1-.57-1.75 1.3 1.3 0 0 1 1.75-.57c10.56 5.37 18.89 14.85 22.84 26.02.24.68-.12 1.42-.79 1.66-.14.05-.29.07-.43.07v.01ZM71.12 59.61c-.41 0-.81-.19-1.07-.56-.41-.59-.27-1.4.32-1.81a81.134 81.134 0 0 1 19.74-10.11c.68-.24 1.42.12 1.66.8s-.12 1.42-.8 1.66a78.463 78.463 0 0 0-19.11 9.79c-.23.16-.49.23-.74.23ZM106.549 37.04a1.3 1.3 0 0 1-.32-2.56c2.91-.73 5.04-.78 7.1-.83.74-.02 1.49-.03 2.29-.08.71-.04 1.33.5 1.38 1.22a1.3 1.3 0 0 1-1.22 1.38c-.83.05-1.62.07-2.4.09-2.01.05-3.9.09-6.53.75-.11.03-.21.04-.32.04l.02-.01ZM134.799 39.13c-.2 0-.4-.05-.59-.14-1.82-.93-4.99-1.73-7.33-2.11-.71-.11-1.19-.78-1.08-1.49.12-.71.78-1.19 1.49-1.08 2.35.38 5.89 1.23 8.1 2.36.64.33.89 1.11.56 1.75-.23.45-.69.71-1.16.71h.01ZM96.939 86.34c-1.55 0-3.1-.76-4.04-2-.34-.45-.61-.96-.87-1.62-.27-.69-.44-1.33-.52-1.96-.34-2.69 1.01-5.5 3.44-7.16 2.04-1.4 4.72-1.96 7.54-1.58 1.51.2 2.74.63 3.76 1.31.6.4.76 1.21.36 1.8-.4.6-1.21.76-1.8.36-.68-.45-1.55-.75-2.66-.9-2.18-.3-4.22.11-5.73 1.15-1.61 1.1-2.54 2.99-2.33 4.69.05.41.17.85.36 1.34.17.43.33.75.52 1 .48.64 1.35 1.03 2.15.95.72-.06 1.35.46 1.41 1.18.06.72-.46 1.35-1.18 1.41-.14.01-.28.02-.42.02l.01.01Z"/><path fill="#191C22" d="M99.97 87.13c-1.02 0-2.11-.36-3.07-1.32-1.71-1.72-2.35-4.53-1.62-7.16.19-.69.91-1.1 1.6-.9.69.19 1.1.91.9 1.6-.48 1.71-.09 3.57.96 4.63.92.92 1.92.48 2.31.25.62-.37 1.41-.17 1.78.45.37.62.17 1.41-.45 1.78-.66.39-1.51.67-2.41.67Z"/><path fill="#191C22" d="M104.77 87.46c-1.55 0-3.12-.98-4.36-2.79-.59-.86-.93-1.94-.99-3.11a7.14 7.14 0 0 1 .77-3.57c.33-.64 1.11-.89 1.75-.56.64.33.89 1.11.56 1.75-.36.7-.53 1.48-.49 2.26.03.69.22 1.3.54 1.76.85 1.24 1.85 1.85 2.59 1.59.5-.18.97-.79 1.06-1.81-.46-.28-.94-.71-1.15-1.38-.18-.56-.21-1.45.66-2.48a1.29 1.29 0 0 1 1.83-.15c.55.46.62 1.28.15 1.83v.02s.1.05.15.06c.53.15.92.61.96 1.16.19 2.5-.91 4.54-2.79 5.21-.41.14-.83.21-1.24.21ZM141.549 88.91c-.49 0-.95-.27-1.18-.74-2.72-5.72-6.16-9.29-9.96-10.33-2.74-.75-5.19-.02-6.45.83-1.22.82-2.73 2.19-3 3.99-.13.91.27 2.21.92 2.38.69.18 1.11.9.92 1.59-.19.69-.9 1.11-1.59.92-2.14-.57-3.13-3.18-2.83-5.27.4-2.75 2.46-4.65 4.12-5.77 1.8-1.21 5-2.16 8.59-1.18 3.18.87 7.77 3.61 11.63 11.72.31.65.03 1.42-.62 1.73-.18.09-.37.13-.56.13h.01Z"/><path fill="#191C22" d="M125.56 91.61c-1.41 0-2.58-.67-3.16-1.33-.71-.8-1.19-1.86-1.41-3.07-.13-.72-.15-1.42-.06-2.07.2-1.47.92-2.7 1.57-3.78.37-.62 1.16-.82 1.78-.46.62.37.82 1.16.46 1.78-.54.91-1.1 1.86-1.23 2.8-.05.39-.04.81.04 1.27.13.73.41 1.36.8 1.81 0 0 .96.97 2.39.07.61-.38 1.41-.2 1.79.41.38.61.2 1.41-.41 1.79-.89.56-1.77.78-2.57.78h.01Z"/><path fill="#191C22" d="M130.16 92.11c-.21 0-.42-.01-.64-.05-1.84-.26-2.77-1.26-3.22-2.05-1.52-2.66.07-6.74.26-7.19.27-.66 1.03-.98 1.7-.71.66.27.98 1.03.71 1.7-.35.86-1.17 3.59-.41 4.91.16.27.46.64 1.33.77 1.86.26 2.78-2.58 2.79-2.61.22-.68.95-1.06 1.63-.84.68.22 1.06.94.84 1.63-.54 1.72-2.18 4.44-4.99 4.44Z"/><path fill="#191C22" d="M162.669 93.42c-.1 0-.19-.01-.29-.03-5.56-1.27-20.94-4.49-28.59-6.04-.7-.14-1.16-.83-1.02-1.53.14-.7.83-1.16 1.53-1.02 7.66 1.55 23.07 4.78 28.65 6.06.7.16 1.14.86.98 1.56-.14.6-.67 1.01-1.27 1.01l.01-.01ZM119.18 84.4c-.08 0-.17 0-.25-.02-7.89-1.55-11.51-2.25-11.51-2.25-.71-.14-1.17-.82-1.03-1.52.14-.71.82-1.16 1.52-1.03 0 0 3.62.69 11.52 2.25.7.14 1.16.82 1.02 1.53-.12.62-.67 1.05-1.27 1.05v-.01Z"/><path fill="#191C22" d="M133.789 88.62c-.37 0-.74-.16-.99-.46-.08-.05-.27-.14-.41-.2-.54-.24-1.35-.59-1.57-1.51-.15-.61.04-1.24.56-1.87.46-.56 1.22-.84 2.04-.76.54.06 1.08.28 1.55.66a1.312 1.312 0 0 1-.11 2.13c.38.56.26 1.32-.28 1.75-.24.19-.52.28-.8.28l.01-.02ZM165.939 107.74c-.23 0-.46-.06-.67-.19-2.89-1.43-86.39-19.24-92.97-18.83-5.08.3-27.62 11.34-35.88 15.57-.64.33-1.42.07-1.75-.56-.33-.64-.07-1.42.56-1.75 1.23-.63 30.25-15.46 36.91-15.85h.2c7.31 0 90.44 16.9 94.26 19.2.62.37.81 1.17.45 1.78-.24.41-.67.63-1.12.63h.01Z"/><path fill="#191C22" d="M96.279 120.61c-.45 0-.89-.24-1.13-.66-6.08-10.66-16.53-21.87-19.88-22.45-2.19-.39-9.93 6.33-15.87 12.75-.49.53-1.31.56-1.84.07-.53-.49-.56-1.31-.07-1.84 3.12-3.38 13.67-14.32 18.22-13.55 5.02.87 15.97 13.68 21.7 23.72.36.62.14 1.42-.49 1.77-.2.12-.42.17-.64.17v.02Z"/><path fill="#191C22" d="M110.969 109.05c-.45 0-.88-.23-1.13-.65-1.54-2.65-4.94-6.92-7.51-7.1-3.21-.22-12.34 3.62-15.59 5.12a1.299 1.299 0 0 1-1.08-2.36c1.26-.58 12.44-5.65 16.86-5.35 4.77.33 9.1 7.56 9.58 8.39a1.304 1.304 0 0 1-1.12 1.96l-.01-.01Z"/><path fill="#191C22" d="M102.608 122.26a1.3 1.3 0 0 1-1.14-1.93c2.12-3.85 9.33-16.52 12.83-17.69 3.86-1.29 27.25 5.43 28.92 6.65 1.83 1.33 3.1 7.5 3.57 10.09.13.71-.34 1.38-1.05 1.51-.71.13-1.38-.34-1.51-1.05-.71-3.94-1.9-7.89-2.55-8.46-2.06-1.29-24.04-7.12-26.56-6.28-1.73.58-7.25 9-11.37 16.48-.24.43-.68.67-1.14.67v.01Z"/><path fill="#191C22" d="M130.069 128.02c-.13 0-.26-.02-.39-.06-.68-.22-1.06-.95-.85-1.63.73-2.33 7.12-13.38 7.85-14.63.36-.62 1.16-.83 1.78-.47.62.36.83 1.16.47 1.78-2.79 4.82-7.13 12.55-7.62 14.11-.17.55-.69.91-1.24.91v-.01Z"/></g><defs><clipPath id="a"><path fill="#fff" d="M0 0h200v200H0z"/></clipPath></defs></svg>