<svg xmlns="http://www.w3.org/2000/svg" width="200" height="200" fill="none"><g fill="#FFD93A"><path d="M157.291 107.771c-.795-8.08-3.474-14.358-7.622-19.288a28.342 28.342 0 0 0 6.188-13.71c.442-2.814.752-5.568.929-7.975 1.776-24.11-15.139-47.043-48.532-49.502-33.394-2.46-53.486 17.747-55.261 41.858a68.57 68.57 0 0 0 .204 11.147 28.617 28.617 0 0 0 6.693 15.832c-5.398 5.237-8.883 12.215-9.81 21.638a65.48 65.48 0 0 0-.31 7.318h-3.584a26.28 26.28 0 0 0-9.155 1.658h7.811a26.318 26.318 0 0 0-3.853 1.701l31.688 24.753a25.96 25.96 0 0 0-8.753-12.006v.001a1.301 1.301 0 0 1-.285-1.817c.036-.038.075-.073.116-.106-.066.014-.124.035-.194.047-2.3.4-3.703-4.052-3.703-4.052s-.41 4.755-3.306 4.629c-2.336-.101-2.478-7.131-2.478-7.131a8.361 8.361 0 0 1-2.706-4.74 4.982 4.982 0 0 1-.76-2.937c.07-.77.375-1.501.877-2.09a5.578 5.578 0 0 1 5.078-1.732s7.431-1.01 12.383 8.859c.213.425.423.862.626 1.327 1.543 5.624-3.427 3.738-3.427 3.738s.621 2.55-1.32 3.682c.225.015.443.092.63.221a29.529 29.529 0 0 1 10.8 16.902l9 7.031 1.147.895c.168 1.767.203 3.543.106 5.314 3.03.668 6.1 1.145 9.19 1.43a73.68 73.68 0 0 0 15.975 0c32.613-3.652 48.457-24.033 45.618-52.895ZM53.078 184.313a20.228 20.228 0 0 1-7.634-1.502 1.3 1.3 0 0 1 .978-2.409 17.503 17.503 0 0 0 11.022.755l-35.813-27.892.157-5.784 40.581 31.606a22.551 22.551 0 0 0 5.91-5.205 28.044 28.044 0 0 0 4.427-7.892L28.29 131.311a39.483 39.483 0 0 0-3.554 7.848h-7.947a47.608 47.608 0 0 0-2.539 15.468 46.129 46.129 0 0 0 5.63 22.412h6.585l3.003 5.209-5.822.386c5.776 7.124 13.743 11.53 22.54 11.53h7.166a27.053 27.053 0 0 0 14.916-4.578l-8.33-6.487c-2.198.8-4.52 1.211-6.86 1.214Z"/><path d="M70.302 175.516a25.28 25.28 0 0 1-5.755 5.267l7.4 5.763-.854.956a38.101 38.101 0 0 0 10.55-14.535l-6.793-5.303a30.476 30.476 0 0 1-4.548 7.852Z"/></g><g fill="#191C22"><path d="m189.81 112.437-.008.001a23.98 23.98 0 0 1-3.087.236l-.127-1.609a30.619 30.619 0 0 0 3.184-.304 1.306 1.306 0 0 0 .844-.526 1.292 1.292 0 0 0-.3-1.813 1.3 1.3 0 0 0-.969-.226l-.068.011c-.282.043-1.412.2-2.895.266l-.127-1.611c1.758-.132 3.021-.337 3.048-.341a1.298 1.298 0 0 0 1.068-1.492 1.3 1.3 0 0 0-1.489-1.074l-.07.011c-1.284.19-2.577.314-3.874.373l-.015.004c-.066.001-.134.008-.2.008a18.476 18.476 0 0 1-3.131-.291 1.256 1.256 0 0 0-.674-.26l-.012-.001a18.564 18.564 0 0 1-.99-.098 27.431 27.431 0 0 1-2.069-.607l.188-1.34c1.053.187 2.115.318 3.182.395a1.302 1.302 0 0 0 1.039-2.166 1.3 1.3 0 0 0-.897-.43l-.069-.005a29.302 29.302 0 0 1-2.894-.37l.225-1.602c1.736.25 3.006.324 3.032.325a1.298 1.298 0 0 0 1.368-1.224 1.297 1.297 0 0 0-1.221-1.371l-.071-.005a38.666 38.666 0 0 1-3.863-.476 1.213 1.213 0 0 0-.179.005 41.85 41.85 0 0 1-6.171-1.519 65.806 65.806 0 0 1-3.622-1.327 38.801 38.801 0 0 0 2.705-1 22.325 22.325 0 0 0 7.424-4.757 10.217 10.217 0 0 0 3.119-7.18c0-.29-.013-.584-.039-.88a7.782 7.782 0 0 0-.886-3.071 6.727 6.727 0 0 0-3.269-2.933 11.543 11.543 0 0 0-4.659-.862c-4.474.01-9.945 1.743-15.332 4.597.059-.309.132-.612.181-.924a100.9 100.9 0 0 0 .942-8.08l-1.297-.096 1.297.095c.087-1.18.13-2.357.13-3.53a45.446 45.446 0 0 0-4.555-19.953l-.008-.045a1.269 1.269 0 0 0-.044-.16c-.038-.111-.061-.16-.1-.25a19.62 19.62 0 0 0-.912-1.727 35.549 35.549 0 0 0-1.25-1.986 44.717 44.717 0 0 0-5.905-7.5 49.314 49.314 0 0 0-15.333-10.515c.048-.09.089-.181.142-.272a7.278 7.278 0 0 1 2.339-2.483c.232-.145.471-.277.716-.397a4.323 4.323 0 0 0 5.246 1.988 4.317 4.317 0 1 0-5.743-4.6c-.62.247-1.214.556-1.773.92a9.994 9.994 0 0 0-3.339 3.838 66.459 66.459 0 0 0-19.345-4.223 74.457 74.457 0 0 0-5.533-.207 64.082 64.082 0 0 0-13.32 1.349 10.709 10.709 0 0 0-1.147-3.18 9.712 9.712 0 0 0-2.535-2.94c-.165-.128-.349-.245-.526-.366a4.333 4.333 0 1 0-1.02 2.464 7.19 7.19 0 0 1 2.338 3.272c.154.439.271.89.35 1.348a49.25 49.25 0 0 0-18.344 9.014 53.95 53.95 0 0 0-1.134.907 38.005 38.005 0 0 0-8.114 8.857 1.265 1.265 0 0 0-.117.332 45.836 45.836 0 0 0-7.55 22.21 57.06 57.06 0 0 0-.145 4.166c0 2.318.12 4.761.351 7.2.178 1.81.52 3.6 1.022 5.348-5.354-2.822-10.783-4.534-15.229-4.545-2.1-.094-4.18.46-5.954 1.59a6.49 6.49 0 0 0-1.973 2.205 7.778 7.778 0 0 0-.887 3.07 9.9 9.9 0 0 0-.04.88 9.403 9.403 0 0 0 .844 3.902 13.49 13.49 0 0 0 4.69 5.323 34.221 34.221 0 0 0 11.484 4.802c1.845.436 3.71.777 5.59 1.023a92.27 92.27 0 0 0-2.325 1.364 105.046 105.046 0 0 0-11.297 7.922 39.272 39.272 0 0 0-4.21 3.897 13.377 13.377 0 0 0-1.532 2.015 7.363 7.363 0 0 0-.617 1.279 5.426 5.426 0 0 0-.337 1.851 4.696 4.696 0 0 0 1.618 3.569c.296.256.622.476.97.655a1.287 1.287 0 0 0-.323.218 33.647 33.647 0 0 0-11.078 9.061 47.75 47.75 0 0 0 0 57.548c5.973 7.402 14.327 12.064 23.594 12.063h7.165c9.268.001 17.622-4.661 23.594-12.063a43.902 43.902 0 0 0 8.66-18.891 70.128 70.128 0 0 0 2.15 3.661c2.336 3.714 4.972 7.269 7.109 10.007-3 .69-5.77 2.147-8.04 4.227a12.515 12.515 0 0 0-4.05 8.939c0 .183.004.365.014.546.032.581.21 1.144.52 1.636a5.46 5.46 0 0 0 2.246 1.896 17.37 17.37 0 0 0 5.09 1.443c2.126.303 4.27.448 6.417.435a51.681 51.681 0 0 0 12.147-1.371 16.958 16.958 0 0 0 4.435-1.701 5.91 5.91 0 0 0 1.405-1.154c.58.023 1.163.035 1.756.035 1.741 0 3.562-.069 5.57-.069a19.259 19.259 0 0 0 7.093-.927 5.214 5.214 0 0 0 2.313-1.779 5.32 5.32 0 0 0 .905-2.895c.005-.123.007-.247.007-.375a11.742 11.742 0 0 0-.627-3.677 12.177 12.177 0 0 0-4.162-5.838 16.186 16.186 0 0 0-9.401-3.027l.192-.076a90.31 90.31 0 0 0 9.199-4.363 6.437 6.437 0 0 0 1.622-1.232 6.51 6.51 0 0 0 1.472-2.502 8.052 8.052 0 0 0 .368-2.475 13.72 13.72 0 0 0-.663-3.953 26.104 26.104 0 0 0-.785-2.162 47.297 47.297 0 0 0 17.243-11.144 40.78 40.78 0 0 0 3.223-3.797 9.102 9.102 0 0 0 2.997.504 8.356 8.356 0 0 0 3.534-.735 4.79 4.79 0 0 0 1.398-.976c.426-.43.721-.972.851-1.563.069-.327.104-.661.105-.996a4.194 4.194 0 0 0-.154-1.136 7.656 7.656 0 0 0 3.549-5.245c.063-.353.094-.711.093-1.07a8.54 8.54 0 0 0-.526-2.811c1.19-.953 2.593-2.116 4.015-3.38a50.982 50.982 0 0 0 5.186-5.217c.758-.889 1.43-1.85 2.005-2.867a9.794 9.794 0 0 0 .735-1.676 6.845 6.845 0 0 0 .352-2.114l-.002-.046a32.348 32.348 0 0 0 10.488 1.86c.643 0 1.296-.031 1.951-.076a26.221 26.221 0 0 0 3.563-.273c.168-.028.33-.089.474-.18a1.289 1.289 0 0 0 .578-.81 1.292 1.292 0 0 0-.511-1.35 1.294 1.294 0 0 0-.97-.224Zm-119.202 7.487a22.498 22.498 0 0 0-1.5-2.796 16.538 16.538 0 0 0-3.08-3.703 18.052 18.052 0 0 0-3.407-2.309 8.488 8.488 0 0 0-3.734-1.065c-.21 0-.421.015-.63.044a6.05 6.05 0 0 0-2.578-.581 5.816 5.816 0 0 0-1.622.229 7.435 7.435 0 0 0-1.564.678c-.41-.04-.843-.083-1.298-.126.05-.794.099-1.588.178-2.396.166-1.677.431-3.342.795-4.987.242-.153.485-.305.726-.453 7.36 7.113 30.542 11.415 50.163 12.007 21.389.645 44.301-2.861 52.342-10.638.255 1.3.457 2.653.597 4.071.213 2.16.319 4.269.318 6.325 0 .884-.025 1.754-.065 2.618-7.934 8.24-30.149 13.888-52.935 13.173a191.364 191.364 0 0 1-25.299-2.384 38.777 38.777 0 0 0-1.344-1.778 35.415 35.415 0 0 0-6.063-5.929Zm-7.928.45a11.78 11.78 0 0 1 1.96 5.634c0 .159-.008.317-.024.474-.01.47-.18.923-.483 1.284a.81.81 0 0 1-.595.238 1.215 1.215 0 0 1-.62-.18.917.917 0 0 1-.369-.393 30.34 30.34 0 0 1-1.102-3.308 77.67 77.67 0 0 1-.57-2.114 1.298 1.298 0 0 0-1.523-.957 1.3 1.3 0 0 0-1.021 1.481l.005.034c.102.731.155 1.469.157 2.208a7.865 7.865 0 0 1-.368 2.623 1.879 1.879 0 0 1-.416.695.762.762 0 0 1-.473.216l-.043.002-.057-.013a1.29 1.29 0 0 1-.382-.556 9.17 9.17 0 0 1-.585-2.439c-.126-.97-.186-1.992-.236-2.839a1.307 1.307 0 0 0-.7-1.077 4.762 4.762 0 0 1-2.21-2.249 4.483 4.483 0 0 1-.311-.91 3.126 3.126 0 0 1-.045-.247l-.005-.049v-.003l-.003.001a1.294 1.294 0 0 0-.934-1.149v-.004l-.17-.095-.079-.128a3.13 3.13 0 0 1-.036-.476 3.536 3.536 0 0 1 1.07-2.427 5.323 5.323 0 0 1 2.263-1.409v-.001c.294-.085.598-.128.904-.128a3.483 3.483 0 0 1 1.584.391l.072.041.008.005v-.001a1.318 1.318 0 0 0 1.07.161c.154-.042.314-.062.474-.059a6.054 6.054 0 0 1 2.55.779 15.55 15.55 0 0 1 2.904 1.973 15.85 15.85 0 0 1 3.287 4.341c.4.734.746 1.497 1.035 2.282.178.445.292.913.338 1.39v.018a1.79 1.79 0 0 1-.352 1.162.611.611 0 0 1-.477.216c-.352.001-.952-.275-1.257-1.196l-.007-.012a17.964 17.964 0 0 0-1.992-4.558 1.301 1.301 0 0 0-2.236 1.327v.001Zm95.427-42.144c5.128-2.745 10.368-4.34 14.184-4.329 1.564-.09 3.118.3 4.455 1.114.495.344.903.799 1.191 1.328.333.637.53 1.337.578 2.054.02.22.03.437.029.65a6.778 6.778 0 0 1-.613 2.831 10.928 10.928 0 0 1-3.818 4.268 31.238 31.238 0 0 1-10.166 4.287c-1.603-.616-3.32-1.235-5.265-1.787a49.453 49.453 0 0 0-6.456-1.37 29.572 29.572 0 0 0 3.883-7.919 50.46 50.46 0 0 1 1.998-1.127ZM54.288 59.25a42.852 42.852 0 0 1 9.944-24.686 21.999 21.999 0 0 1 4.57-3.8 14.634 14.634 0 0 1 7.65-2.31c2.266.004 4.488.627 6.427 1.8a22.806 22.806 0 0 1 4.673 3.77c2 2.024 3.732 4.252 6.284 6.11a20.138 20.138 0 0 0 10.871 3.594c.581.043 1.147.064 1.698.063 2.747.007 5.468-.54 7.999-1.608 3.485-1.452 6.316-3.573 9.279-5.336a22.274 22.274 0 0 1 10.075-3.522h.001c.46-.036.917-.054 1.372-.053 3.22-.015 6.373.927 9.057 2.707a20.07 20.07 0 0 1 6.041 6.479 42.677 42.677 0 0 1 5.383 20.904c0 1.11-.041 2.222-.123 3.34a98.09 98.09 0 0 1-.917 7.869 27.094 27.094 0 0 1-20.829 22.25 102.318 102.318 0 0 1-22.313 2.297c-2.993 0-6.063-.11-9.178-.34-11.599-.853-21.566-2.628-29.357-5.286A27.346 27.346 0 0 1 54.49 70.178a74.618 74.618 0 0 1-.34-6.954c0-1.39.045-2.728.137-3.974ZM40.392 88.513a19.808 19.808 0 0 1-6.562-4.168 9.024 9.024 0 0 1-1.775-2.541 6.792 6.792 0 0 1-.613-2.831c0-.213.01-.43.029-.65a5.185 5.185 0 0 1 .578-2.054 4.107 4.107 0 0 1 2.037-1.802 9.001 9.001 0 0 1 3.61-.64c3.815-.01 9.055 1.584 14.183 4.33.799.425 1.592.886 2.381 1.365a29.953 29.953 0 0 0 3.873 6.535 32.064 32.064 0 0 0-4.289 5.55c-.017.027-.031.057-.048.084a47.727 47.727 0 0 1-13.404-3.178Zm3.185 20.435c1.655-1.317 3.587-2.716 5.57-4.059a46.633 46.633 0 0 0-.361 2.755c-.08.813-.13 1.612-.18 2.413a348.307 348.307 0 0 0-5.817-.467c.259-.213.514-.425.788-.642Zm-8.844 10.082h2.048c-.698.483-1.38.995-2.044 1.536h-2.734a28.155 28.155 0 0 1 2.73-1.536Zm-6.188 4.113c.04.004.074.023.115.023h3.216c-.7.712-1.37 1.465-2.017 2.243h-3.687a32.615 32.615 0 0 1 2.373-2.266Zm-4.602 4.86c.01 0 .018.006.028.006h3.904a41.181 41.181 0 0 0-2.065 3.27h-4.146a37.354 37.354 0 0 1 2.279-3.276Zm-8.638 28.05h4.565c.05 1.785.194 3.566.433 5.335h-4.54a47.399 47.399 0 0 1-.458-5.335Zm4.56-2.6H15.3c.042-1.804.188-3.605.435-5.392h4.54a50.29 50.29 0 0 0-.41 5.392Zm-3.659 10.535h4.521c.31 1.635.704 3.252 1.182 4.845h-4.436a44.852 44.852 0 0 1-1.267-4.845Zm4.485-18.527H16.17a44.978 44.978 0 0 1 1.24-4.846h4.437a47.887 47.887 0 0 0-1.156 4.846Zm-.5-11.582h4.255a44.724 44.724 0 0 0-1.733 4.136h-4.398a41.63 41.63 0 0 1 1.875-4.136Zm2.593 37.554a44.676 44.676 0 0 0 1.752 4.136h-4.245a41.497 41.497 0 0 1-1.898-4.136h4.39Zm-.997 6.736h4.135a41.234 41.234 0 0 0 2.09 3.27h-3.924a37.094 37.094 0 0 1-2.3-3.27Zm8.152 5.87c.026 0 .047-.013.073-.015.662.786 1.349 1.541 2.064 2.258h-3.335a32.594 32.594 0 0 1-2.387-2.243h3.585Zm4.689 4.843c.096-.008.191-.027.283-.057.698.56 1.41 1.096 2.144 1.593h-1.922c-.97-.457-1.912-.97-2.822-1.536h2.317Zm45.776-16.983a39.198 39.198 0 0 1-5.755 9.868 33.947 33.947 0 0 1-3.763 3.954 30.351 30.351 0 0 1-3.83 2.922 25.717 25.717 0 0 1-13.979 4.221c-8.37-.001-15.984-4.19-21.57-11.097-5.579-6.903-9.068-16.506-9.066-27.14 0-.242.011-.48.015-.72a47.63 47.63 0 0 1 .407-5.588 43.361 43.361 0 0 1 5.774-16.738 37.194 37.194 0 0 1 2.87-4.095 31.086 31.086 0 0 1 10.292-8.407c1.01-.501 2.05-.937 3.116-1.305 1.618.13 3.133.263 4.496.389.216.294.485.545.793.741.11.458.265.903.463 1.33a7.245 7.245 0 0 0 1.744 2.341 21.676 21.676 0 0 0-5.125.777c-.265.074-.533.137-.796.22a26.373 26.373 0 0 0-13.89 11.096c-.055.086-.117.164-.172.251a36.286 36.286 0 0 0-5.385 16.655 39.728 39.728 0 0 0-.126 3.053c0 .956.039 1.901.105 2.837a35.963 35.963 0 0 0 6.275 18.168 1.304 1.304 0 0 0 1.812.312 1.3 1.3 0 0 0 .311-1.812 32.893 32.893 0 0 1-5.544-14.446 36.746 36.746 0 0 1-.36-5.059c0-.37.028-.73.038-1.097a34.035 34.035 0 0 1 5.068-17.217l.032-.046a23.85 23.85 0 0 1 12.623-10.216c.87-.274 1.758-.487 2.658-.635a19.011 19.011 0 0 1 3.142-.267 1.27 1.27 0 0 0 .452-.092c.074.771.198 1.537.37 2.292.128.545.312 1.075.55 1.582.113.241.246.473.398.693.252.365.578.673.956.905.351.201.743.321 1.146.349.083.008.163.034.246.033.11 0 .22-.006.33-.018l.008-.001a3.38 3.38 0 0 0 1.972-.918c.346-.339.63-.735.84-1.172.297.508.715.933 1.215 1.24.584.357 1.253.55 1.937.559.014 0 .027.003.041.003a3.412 3.412 0 0 0 2.426-.993c.022-.021.038-.049.059-.071a4.442 4.442 0 0 0 1.094-2.304c.34.112.697.172 1.055.176a3.22 3.22 0 0 0 2.413-1.079c.53-.624.861-1.392.952-2.206a34.262 34.262 0 0 1 3.112 3.359 42.71 42.71 0 0 1 8.963 24.158c.061.985.102 1.978.102 2.983a45.839 45.839 0 0 1-3.31 17.272Zm32.616 19.119c-.004.047-.011.125-.156.311a5.21 5.21 0 0 1-1.964 1.232 27.407 27.407 0 0 1-6.234 1.566 54.38 54.38 0 0 1-7.879.573c-2.892.06-5.78-.257-8.59-.944a7.649 7.649 0 0 1-2.452-1.086 1.994 1.994 0 0 1-.502-.516.818.818 0 0 1-.133-.402 7.66 7.66 0 0 1-.01-.408 9.929 9.929 0 0 1 3.247-7.06c2.27-2.166 5.85-3.903 11.148-4.258.531-.036 1.042-.054 1.533-.053 1.997-.043 3.983.31 5.842 1.039a9.518 9.518 0 0 1 4.78 4.19 11.224 11.224 0 0 1 1.37 5.816Zm5.092-13.899c4.921.21 7.735 1.923 9.441 3.926a9.679 9.679 0 0 1 1.773 3.168c.314.919.48 1.881.492 2.851 0 .093-.002.182-.005.267a2.728 2.728 0 0 1-.434 1.507 2.307 2.307 0 0 1-.788.681 7.14 7.14 0 0 1-2.47.709c-1.334.16-2.678.231-4.021.212-2.067 0-3.9.069-5.57.069-.31 0-.61-.004-.909-.01a13.307 13.307 0 0 0-3.178-8.653 12.325 12.325 0 0 0-4.574-3.235 15.732 15.732 0 0 0-3.4-.952 135.154 135.154 0 0 1-2.369-2.878c.09-.247.202-.485.335-.711a7.097 7.097 0 0 1 2.695-2.467 8.227 8.227 0 0 1 2.442-.869 6.308 6.308 0 0 0-.92 1.235 3.987 3.987 0 0 0 1.36 5.275 3.987 3.987 0 0 0 5.356-.996l.061-.026.505-.167a9.395 9.395 0 0 0 4.178 1.064Zm4.652-14.869c.125.393.218.796.279 1.203a80.494 80.494 0 0 1-7.594 3.566c-1.816.725-3.081 1.13-4.146 1.48a6.821 6.821 0 0 0-2.591-.486 10.602 10.602 0 0 0-6.256 2.239 9.109 9.109 0 0 0-2.119 2.285 133.449 133.449 0 0 1-3.076-4.147c-1.544-2.173-3.073-4.502-4.35-6.726.878.111 1.764.211 2.665.295 2.848.266 5.575.442 8.43.442a69.337 69.337 0 0 0 7.811-.444 78.314 78.314 0 0 0 10.152-1.799c.305.681.571 1.38.795 2.092Zm22.24-17.439c-7.464 7.745-18.631 12.898-33.476 14.562a66.793 66.793 0 0 1-7.522.428c-2.748 0-5.387-.169-8.188-.43a72.67 72.67 0 0 1-9.616-1.541c.067-1.058.112-2.124.112-3.203a50.047 50.047 0 0 0-.812-8.961c5.707.553 11.761.835 17.829.835 17.877 0 38.103-2.572 46.969-8.639a38.262 38.262 0 0 1-5.296 6.949Zm14.817-12.606a5.034 5.034 0 0 1-1.805 3.11 5.14 5.14 0 0 1-.965.618c-.096.047-.158.072-.218.097l-.016.002-1.207.403a1.292 1.292 0 0 0-.832 1.61 1.293 1.293 0 0 0 1.593.864c.004.048.013.089.013.143a2.305 2.305 0 0 1-.051.468.6.6 0 0 1-.177.286 2.836 2.836 0 0 1-1.142.631 6.333 6.333 0 0 1-1.919.285 6.587 6.587 0 0 1-1.412-.166 43.441 43.441 0 0 0 5.869-13.984 8.013 8.013 0 0 1 1.362 1.788c.579.986.908 2.099.958 3.241.001.202-.016.404-.051.604Zm5.951-18.14a24.755 24.755 0 0 1-2.907 3.298c-1.368 1.347-2.938 2.722-4.371 3.916.284-2.341.425-4.697.42-7.055 0-2.144-.11-4.337-.33-6.58-.033-.327-.08-.64-.118-.962.062.048.123.09.186.138a50.257 50.257 0 0 1 5.623 5.042 25.407 25.407 0 0 1 1.68 1.925c-.056.088-.113.179-.183.278Z"/><path d="M124.009 72.111c4.96.399 7.641-14.117.847-14.617-6.719-.495-6.334 14.177-.847 14.617ZM82.727 69.06c4.669.63 6.703-14.43.256-14.638-6.374-.206-6.031 13.86-.256 14.638ZM94.62 74.835a10.348 10.348 0 0 0 3.94 3.546 10.028 10.028 0 0 0 4.519 1.045 11.505 11.505 0 0 0 4.889-1.106 8.178 8.178 0 0 0 3.373-2.76 1.299 1.299 0 1 0-2.181-1.414 5.68 5.68 0 0 1-2.309 1.826 8.917 8.917 0 0 1-3.772.854 7.426 7.426 0 0 1-3.352-.77 7.74 7.74 0 0 1-2.95-2.673 1.302 1.302 0 0 0-2.162.007 1.298 1.298 0 0 0 .005 1.445ZM77.655 149.785c-.236.028-.46.123-.646.273.194 1.515.294 3.041.297 4.569a33.293 33.293 0 0 1-7.004 20.888 23.26 23.26 0 0 1-12.42 8.211 1.286 1.286 0 0 0-.293 1.214 1.3 1.3 0 0 0 1.613.882 22.758 22.758 0 0 0 2.847-1.078 24.282 24.282 0 0 0 4.343-2.524 28.703 28.703 0 0 0 7.194-7.666 33.866 33.866 0 0 0 2.92-5.69 37.975 37.975 0 0 0 2.733-14.237c0-1.239-.057-2.462-.17-3.667a1.297 1.297 0 0 0-1.414-1.175Z"/></g></svg>