<svg width="200" height="200" viewBox="0 0 200 200" xmlns="http://www.w3.org/2000/svg"><g id="type=cashback, mode=light"><g id="Layer 2"><path id="Vector" d="M157.291 107.771C156.496 99.6916 153.817 93.4133 149.669 88.4834C152.929 84.5539 155.067 79.8168 155.857 74.7727C156.299 71.9592 156.609 69.2053 156.786 66.7981C158.562 42.6871 141.647 19.7547 108.254 17.2955C74.8604 14.8363 54.7683 35.0432 52.9927 59.1543C52.7583 62.8692 52.8268 66.5971 53.1975 70.301C53.7532 76.1394 56.0894 81.6661 59.8897 86.133C54.4915 91.3703 51.0072 98.3483 50.0804 107.771C49.8406 110.203 49.737 112.646 49.7703 115.089H46.1862C43.0603 115.093 39.9601 115.654 37.0312 116.747H44.8424C43.5148 117.21 42.2263 117.779 40.9893 118.448L72.6771 143.201C70.9917 138.432 67.9494 134.259 63.9242 131.195V131.196C63.6455 130.993 63.4589 130.687 63.4054 130.346C63.3518 130.006 63.4358 129.658 63.6388 129.379C63.6753 129.341 63.7141 129.306 63.7551 129.273C63.6887 129.287 63.6312 129.308 63.5613 129.32C61.2607 129.72 59.8585 125.268 59.8585 125.268C59.8585 125.268 59.4478 130.023 56.5521 129.897C54.2161 129.796 54.0739 122.766 54.0739 122.766C52.6669 121.533 51.714 119.864 51.3677 118.026C50.8152 117.15 50.5495 116.123 50.6077 115.089C50.6771 114.319 50.9834 113.588 51.4845 112.999C52.1176 112.307 52.9147 111.785 53.8023 111.483C54.6899 111.18 55.6394 111.106 56.5633 111.267C56.5633 111.267 63.9945 110.257 68.9463 120.126C69.1593 120.551 69.3693 120.988 69.5723 121.453C71.1147 127.077 66.1448 125.191 66.1448 125.191C66.1448 125.191 66.766 127.741 64.8241 128.873C65.0504 128.888 65.2684 128.965 65.455 129.094C70.917 133.295 74.7376 139.275 76.2552 145.996L85.2553 153.027L86.4016 153.922C86.5696 155.689 86.6051 157.465 86.508 159.236C89.5384 159.904 92.6076 160.381 95.6977 160.666C101.007 161.245 106.364 161.245 111.673 160.666C144.286 157.014 160.13 136.633 157.291 107.771Z"/><path id="Vector_2" d="M53.0779 184.313C50.4599 184.311 47.8672 183.801 45.4437 182.811C45.1243 182.681 44.8694 182.43 44.7352 182.112C44.601 181.795 44.5986 181.437 44.7283 181.117C44.858 180.798 45.1093 180.543 45.427 180.409C45.7446 180.275 46.1025 180.272 46.422 180.402C49.9183 181.837 53.785 182.102 57.4444 181.157L21.6314 153.265L21.7885 147.481L62.3691 179.087C64.6297 177.712 66.6304 175.95 68.2798 173.882C70.1728 171.508 71.6677 168.843 72.7062 165.99L28.2889 131.311C26.8216 133.789 25.6298 136.421 24.7347 139.159H16.7875C15.0926 144.139 14.2349 149.366 14.2492 154.627C14.194 162.454 16.1316 170.167 19.8796 177.039H26.4643L29.4668 182.248L23.6453 182.634C29.4214 189.758 37.3877 194.164 46.1857 194.164H53.351C58.6647 194.136 63.8525 192.544 68.2672 189.586L59.9376 183.099C57.7389 183.899 55.4176 184.31 53.0779 184.313Z"/><path id="Vector_3" d="M70.3024 175.516C68.6678 177.559 66.7262 179.336 64.5469 180.783L71.9466 186.546L71.0934 187.502C75.7177 183.567 79.3345 178.583 81.6423 172.967L74.8502 167.664C73.7346 170.494 72.2016 173.14 70.3024 175.516Z"/></g><g id="Layer 45"><path id="Vector_4" d="M189.81 112.437L189.802 112.438C188.779 112.583 187.748 112.662 186.715 112.674L186.588 111.065C187.654 111.019 188.716 110.918 189.772 110.761C189.94 110.733 190.101 110.672 190.246 110.582C190.391 110.492 190.517 110.374 190.616 110.235C190.716 110.096 190.787 109.939 190.825 109.773C190.864 109.607 190.87 109.435 190.842 109.266C190.814 109.098 190.753 108.937 190.663 108.792C190.573 108.647 190.455 108.521 190.316 108.422C190.177 108.322 190.02 108.251 189.854 108.212C189.688 108.174 189.515 108.168 189.347 108.196L189.279 108.207C188.997 108.25 187.867 108.407 186.384 108.473L186.257 106.862C188.015 106.73 189.278 106.525 189.305 106.521C189.644 106.464 189.947 106.276 190.147 105.996C190.348 105.716 190.429 105.368 190.373 105.029C190.318 104.689 190.13 104.386 189.851 104.184C189.572 103.983 189.224 103.901 188.884 103.955L188.814 103.966C187.53 104.156 186.237 104.28 184.94 104.339L184.925 104.343C184.859 104.344 184.791 104.351 184.725 104.351C183.675 104.343 182.628 104.246 181.594 104.06C181.4 103.909 181.165 103.819 180.92 103.8L180.908 103.799C180.837 103.795 180.469 103.768 179.918 103.701C179.235 103.528 178.546 103.33 177.849 103.094L178.037 101.754C179.09 101.941 180.152 102.072 181.219 102.149C181.563 102.167 181.901 102.049 182.157 101.819C182.414 101.589 182.569 101.266 182.588 100.922C182.607 100.577 182.488 100.24 182.258 99.983C182.028 99.7263 181.705 99.5714 181.361 99.5526L181.292 99.5481C181.007 99.5291 179.865 99.4368 178.398 99.1785L178.623 97.5758C180.359 97.8254 181.629 97.8997 181.655 97.9014C181.999 97.92 182.336 97.8015 182.592 97.5719C182.849 97.3423 183.004 97.0203 183.023 96.6766C183.043 96.3329 182.925 95.9955 182.696 95.7385C182.467 95.4815 182.145 95.3258 181.802 95.3057L181.731 95.301C180.436 95.2073 179.147 95.0484 177.868 94.825C177.808 94.8221 177.748 94.8236 177.689 94.8296C175.597 94.4807 173.533 93.9732 171.518 93.3115C170.283 92.908 169.098 92.4561 167.896 91.9844C168.822 91.6755 169.731 91.3479 170.601 90.9835C173.367 89.9075 175.891 88.2905 178.025 86.2272C178.991 85.2944 179.765 84.1801 180.3 82.948C180.835 81.7159 181.122 80.3903 181.144 79.0471C181.144 78.7565 181.131 78.4632 181.105 78.1672C181.025 77.0932 180.724 76.0473 180.219 75.096C179.488 73.7799 178.337 72.7469 176.95 72.1626C175.473 71.5564 173.887 71.2631 172.291 71.3012C167.817 71.3118 162.346 73.0438 156.959 75.8977C157.018 75.5891 157.091 75.286 157.14 74.974C157.587 72.1242 157.902 69.3388 158.082 66.8933L156.785 66.7979L158.082 66.8932C158.169 65.7129 158.212 64.536 158.212 63.3626C158.23 56.452 156.673 49.6282 153.657 43.4103L153.649 43.3648C153.638 43.3107 153.623 43.2573 153.605 43.205C153.567 43.0938 153.544 43.0442 153.505 42.9556C153.364 42.6408 153.074 42.0558 152.593 41.2283C152.267 40.6665 151.85 39.9947 151.343 39.2416C149.648 36.5385 147.668 34.0246 145.438 31.7429C141.04 27.2971 135.836 23.7284 130.105 21.2273C130.153 21.1365 130.194 21.0457 130.247 20.9552C130.819 19.9538 131.621 19.1028 132.586 18.4724C132.818 18.3272 133.057 18.1945 133.302 18.0749C133.797 18.9767 134.597 19.6724 135.558 20.0369C136.52 20.4014 137.58 20.4107 138.548 20.0631C139.516 19.7155 140.328 19.0338 140.838 18.1408C141.348 17.2478 141.522 16.2021 141.33 15.1919C141.137 14.1817 140.59 13.2733 139.788 12.6304C138.985 11.9874 137.979 11.6521 136.952 11.6847C135.924 11.7173 134.941 12.1157 134.181 12.8082C133.421 13.5008 132.933 14.4419 132.805 15.4623C132.185 15.7102 131.591 16.0186 131.032 16.383C129.607 17.3528 128.456 18.675 127.693 20.221C121.492 17.8554 114.971 16.4321 108.348 15.9984C106.463 15.8592 104.619 15.7903 102.815 15.7915C98.3399 15.7746 93.8757 16.2264 89.4951 17.1396C89.2835 16.0258 88.8964 14.9527 88.3482 13.9603C87.7096 12.8194 86.8473 11.8191 85.8128 11.0195C85.6485 10.8918 85.4641 10.7749 85.287 10.6538C85.3692 9.62466 85.0813 8.60001 84.4751 7.7643C83.8689 6.92859 82.9843 6.33673 81.9806 6.09529C80.9768 5.85384 79.9198 5.97866 78.9999 6.44729C78.08 6.91591 77.3576 7.69755 76.9628 8.65147C76.5679 9.60539 76.5266 10.6689 76.8463 11.6506C77.1659 12.6323 77.8255 13.4676 78.7063 14.0061C79.5871 14.5447 80.6312 14.7511 81.6507 14.5883C82.6702 14.4254 83.598 13.904 84.2672 13.1178C85.3419 13.964 86.153 15.0992 86.6052 16.3902C86.7588 16.829 86.876 17.2796 86.9556 17.7375C80.2777 19.4266 74.0284 22.4977 68.6114 26.7524C68.2224 27.0554 67.8424 27.3578 67.4769 27.6587C64.3198 30.1624 61.5811 33.1522 59.3631 36.5161C59.3086 36.6208 59.2691 36.7326 59.2456 36.8482C54.8449 43.4714 52.2429 51.1256 51.6954 59.0587C51.5982 60.3782 51.5513 61.7768 51.5512 63.2241C51.5513 65.5422 51.6717 67.9852 51.9023 70.4232C52.0796 72.2335 52.4215 74.0238 52.9238 75.772C47.5703 72.9505 42.141 71.238 37.6953 71.2274C35.5946 71.133 33.5157 71.6878 31.7415 72.8165C30.9224 73.3898 30.2469 74.1446 29.7676 75.022C29.2627 75.9732 28.9608 77.0189 28.8811 78.0929C28.8548 78.3889 28.8417 78.6822 28.8418 78.9729C28.8405 80.3186 29.1282 81.6489 29.6852 82.8739C30.7455 85.0348 32.3647 86.8726 34.3747 88.1967C37.8772 90.4861 41.7699 92.1137 45.8595 92.9988C47.704 93.435 49.5697 93.7764 51.4491 94.0218C50.6873 94.4553 49.9146 94.9056 49.1244 95.3862C45.1889 97.7762 41.4149 100.423 37.8269 103.308C36.3303 104.503 34.9232 105.805 33.6169 107.205C33.0435 107.827 32.5305 108.502 32.0851 109.22C31.8384 109.626 31.6317 110.054 31.4678 110.499C31.2486 111.092 31.1346 111.718 31.131 112.35C31.1293 113.102 31.3061 113.844 31.6467 114.514C31.9208 115.049 32.2949 115.525 32.7487 115.919C33.0452 116.175 33.371 116.395 33.7194 116.574C33.6013 116.63 33.4923 116.703 33.3961 116.792C29.0966 118.983 25.3186 122.073 22.3184 125.853C16.061 134.14 12.6758 144.242 12.6758 154.627C12.6758 165.011 16.061 175.113 22.3184 183.401C28.2907 190.803 36.6447 195.465 45.9123 195.464H53.0773C62.3448 195.465 70.6989 190.803 76.6712 183.401C81.0277 177.888 83.9972 171.409 85.3301 164.51C85.9991 165.736 86.7214 166.96 87.481 168.171C89.8171 171.885 92.4528 175.44 94.5896 178.178C91.5895 178.868 88.8196 180.325 86.5504 182.405C85.3076 183.545 84.3081 184.925 83.6119 186.461C82.9157 187.997 82.5372 189.658 82.4991 191.344C82.4991 191.527 82.504 191.709 82.5136 191.89C82.5457 192.471 82.7249 193.034 83.0344 193.526C83.5952 194.351 84.3718 195.007 85.2796 195.422C86.8929 196.16 88.6098 196.647 90.3705 196.865C92.4959 197.168 94.6408 197.313 96.7875 197.3C100.876 197.325 104.954 196.865 108.934 195.929C110.485 195.573 111.978 195 113.369 194.228C113.894 193.918 114.368 193.529 114.774 193.074C115.354 193.097 115.938 193.109 116.53 193.109C118.271 193.109 120.092 193.04 122.1 193.04C124.501 193.177 126.907 192.862 129.193 192.113C130.118 191.752 130.92 191.135 131.506 190.334C132.082 189.477 132.397 188.471 132.411 187.439C132.416 187.316 132.418 187.192 132.418 187.064C132.406 185.813 132.195 184.572 131.791 183.387C131.021 181.068 129.571 179.033 127.629 177.549C124.887 175.585 121.6 174.527 118.228 174.522C118.293 174.496 118.354 174.473 118.42 174.446C121.566 173.166 124.637 171.709 127.619 170.083C128.222 169.761 128.769 169.345 129.241 168.851C129.914 168.138 130.417 167.283 130.713 166.349C130.964 165.548 131.088 164.713 131.081 163.874C131.055 162.531 130.831 161.199 130.418 159.921C130.196 159.196 129.924 158.476 129.633 157.759C136.127 155.352 142.014 151.547 146.876 146.615C148.027 145.416 149.103 144.148 150.099 142.818C151.063 143.153 152.076 143.323 153.096 143.322C154.313 143.337 155.52 143.087 156.63 142.587C157.151 142.348 157.624 142.017 158.028 141.611C158.454 141.181 158.749 140.639 158.879 140.048C158.948 139.721 158.983 139.387 158.984 139.052C158.985 138.668 158.933 138.286 158.83 137.916C159.116 137.74 159.391 137.546 159.652 137.335C161.098 136.163 162.067 134.505 162.379 132.671C162.442 132.318 162.473 131.96 162.472 131.601C162.456 130.641 162.278 129.691 161.946 128.79C163.136 127.837 164.539 126.674 165.961 125.41C167.813 123.798 169.546 122.055 171.147 120.193C171.905 119.304 172.577 118.343 173.152 117.326C173.449 116.791 173.695 116.23 173.887 115.65C174.115 114.968 174.233 114.255 174.239 113.536C174.239 113.521 174.237 113.505 174.237 113.49C177.606 114.685 181.15 115.314 184.725 115.35C185.368 115.35 186.021 115.319 186.676 115.274C187.869 115.264 189.059 115.173 190.239 115.001C190.407 114.973 190.568 114.912 190.713 114.821C190.858 114.731 190.984 114.613 191.083 114.474C191.182 114.335 191.253 114.178 191.291 114.011C191.33 113.845 191.335 113.673 191.307 113.504C191.279 113.336 191.218 113.175 191.127 113.03C191.037 112.885 190.919 112.76 190.78 112.661C190.641 112.561 190.484 112.491 190.317 112.452C190.151 112.414 189.979 112.408 189.81 112.437L189.81 112.437ZM70.6082 119.924C70.1745 118.958 69.6732 118.023 69.1081 117.128C68.2673 115.75 67.2295 114.502 66.0275 113.425C64.9835 112.528 63.8406 111.753 62.621 111.116C61.4753 110.477 60.1973 110.113 58.8871 110.051C58.6763 110.051 58.4657 110.066 58.2569 110.095C57.4508 109.714 56.5705 109.515 55.6788 109.514C55.1302 109.513 54.5842 109.591 54.0571 109.743C53.5116 109.908 52.9868 110.136 52.4931 110.421C52.0831 110.381 51.6502 110.338 51.1946 110.295C51.2443 109.501 51.2937 108.707 51.3731 107.899C51.5385 106.222 51.804 104.557 52.168 102.912C52.4105 102.759 52.653 102.607 52.894 102.459C60.2536 109.572 83.4356 113.874 103.057 114.466C124.446 115.111 147.358 111.605 155.399 103.828C155.654 105.128 155.856 106.481 155.996 107.899C156.209 110.059 156.315 112.168 156.314 114.224C156.314 115.108 156.289 115.978 156.249 116.842C148.315 125.082 126.1 130.73 103.314 130.015C94.8375 129.782 86.3861 128.985 78.0154 127.631C77.58 127.024 77.1352 126.427 76.6712 125.853C74.8948 123.641 72.8592 121.65 70.6082 119.924ZM62.6801 120.374C63.8061 122.053 64.4811 123.993 64.6403 126.008C64.6406 126.167 64.6325 126.325 64.6159 126.482C64.6058 126.952 64.4354 127.405 64.1328 127.766C64.0553 127.844 63.9625 127.906 63.8602 127.947C63.7579 127.988 63.6483 128.007 63.5381 128.004C63.3188 128.001 63.1045 127.939 62.9176 127.824C62.7582 127.733 62.6298 127.596 62.549 127.431C62.1186 126.35 61.7507 125.246 61.4472 124.123C61.2808 123.54 61.1376 123.009 61.0364 122.625C60.9352 122.242 60.8772 122.01 60.877 122.009C60.7955 121.684 60.5915 121.403 60.3077 121.225C60.0239 121.046 59.6822 120.984 59.3539 121.052C59.0256 121.12 58.736 121.311 58.5458 121.587C58.3555 121.863 58.2791 122.202 58.3327 122.533L58.3378 122.567C58.4405 123.298 58.4929 124.036 58.4945 124.775C58.5212 125.664 58.3971 126.551 58.1273 127.398C58.0409 127.657 57.8989 127.894 57.7111 128.093C57.5837 128.218 57.4161 128.295 57.2377 128.309L57.195 128.311L57.138 128.298C56.9635 128.15 56.8315 127.958 56.7556 127.742C56.4501 126.96 56.2535 126.139 56.1713 125.303C56.0449 124.333 55.9854 123.311 55.9346 122.464C55.9206 122.239 55.8488 122.022 55.7261 121.833C55.6033 121.645 55.4339 121.491 55.2343 121.387C54.2639 120.91 53.4848 120.117 53.0249 119.138C52.8887 118.846 52.7845 118.541 52.714 118.228C52.6896 118.116 52.6762 118.032 52.6694 117.981L52.6636 117.932L52.6634 117.929L52.6614 117.93C52.6417 117.666 52.5415 117.414 52.3744 117.209C52.2072 117.003 51.9811 116.854 51.7265 116.781L51.7279 116.777L51.5579 116.682L51.4785 116.554C51.4541 116.396 51.4418 116.237 51.4417 116.078C51.4698 115.161 51.8534 114.291 52.5115 113.651C53.1342 112.997 53.913 112.512 54.7747 112.242L54.7759 112.241C55.0693 112.156 55.3733 112.113 55.6788 112.113C56.1044 112.115 56.526 112.195 56.9228 112.349C57.0393 112.394 57.1529 112.446 57.2631 112.504L57.3349 112.545L57.3426 112.55L57.3435 112.549C57.4998 112.65 57.6762 112.717 57.8606 112.745C58.0451 112.773 58.2333 112.761 58.4127 112.71C58.5673 112.668 58.727 112.648 58.887 112.651C59.7843 112.718 60.6553 112.984 61.4369 113.43C62.4764 113.976 63.4506 114.638 64.3408 115.403C65.6786 116.65 66.7906 118.118 67.6275 119.744C68.0285 120.478 68.3745 121.241 68.6628 122.026C68.8415 122.471 68.9553 122.939 69.0009 123.416L69.0006 123.434C69.0222 123.851 68.898 124.262 68.6492 124.596C68.5908 124.666 68.5177 124.721 68.4351 124.758C68.3525 124.795 68.2627 124.814 68.1721 124.812C67.8199 124.813 67.2196 124.537 66.9147 123.616L66.9081 123.604C66.4588 122 65.7883 120.466 64.9159 119.046C64.7399 118.75 64.4533 118.535 64.1192 118.45C63.7852 118.365 63.4309 118.416 63.1344 118.592C62.8379 118.768 62.6235 119.055 62.5383 119.389C62.4531 119.723 62.5041 120.077 62.6801 120.373L62.6801 120.374ZM158.107 78.2301C163.235 75.4847 168.475 73.8904 172.291 73.9011C173.855 73.8118 175.409 74.2003 176.746 75.0151C177.241 75.3592 177.649 75.8139 177.937 76.3431C178.27 76.9803 178.467 77.6798 178.515 78.3972C178.535 78.6177 178.545 78.8344 178.544 79.0471C178.546 80.0238 178.337 80.9894 177.931 81.878C177.06 83.6145 175.743 85.0876 174.113 86.1457C171.006 88.1668 167.563 89.6187 163.947 90.4335C162.344 89.8166 160.627 89.1981 158.682 88.6457C156.563 88.0461 154.406 87.5887 152.226 87.2766C153.909 84.8455 155.218 82.1762 156.109 79.3574C156.772 78.964 157.439 78.5864 158.107 78.2301ZM54.2884 59.2499C54.899 50.1747 58.3813 41.5291 64.2316 34.5644C65.576 33.0967 67.1134 31.8182 68.8018 30.7639C71.088 29.2996 73.7365 28.5001 76.4511 28.4549C78.7176 28.4584 80.9401 29.0806 82.879 30.2545C84.5958 31.2993 86.1671 32.5665 87.5518 34.0231C89.5512 36.0477 91.2842 38.2757 93.8364 40.1331C97.0358 42.358 100.812 43.6067 104.707 43.728L104.707 43.7281C105.288 43.7706 105.854 43.7916 106.405 43.7912C109.152 43.7981 111.873 43.251 114.404 42.1825C117.889 40.7306 120.72 38.6097 123.683 36.8469C126.706 34.8739 130.164 33.6654 133.758 33.3253H133.759C134.219 33.2893 134.676 33.2714 135.131 33.2717C138.351 33.2569 141.504 34.1993 144.188 35.9792C146.659 37.6618 148.723 39.8752 150.229 42.4577C153.785 48.8497 155.639 56.0482 155.612 63.3625C155.612 64.4712 155.571 65.5844 155.489 66.7022C155.315 69.0712 155.008 71.7937 154.572 74.5709C153.732 79.9408 151.297 84.934 147.582 88.9019C143.868 92.8698 139.046 95.629 133.743 96.8211C126.412 98.4022 118.929 99.1724 111.43 99.118C108.437 99.118 105.367 99.0078 102.252 98.7786C90.6532 97.9251 80.686 96.1498 72.8948 93.4921C67.907 91.7924 63.5165 88.6878 60.2514 84.5517C56.9864 80.4156 54.986 75.4243 54.4907 70.1781C54.2674 67.8183 54.1512 65.4521 54.1512 63.224C54.1512 61.8331 54.1965 60.496 54.2884 59.2499ZM40.3922 88.5127C37.9512 87.5706 35.721 86.1543 33.8304 84.3454C33.0964 83.607 32.4957 82.7472 32.0549 81.8039C31.6494 80.9153 31.4402 79.9497 31.4418 78.9729C31.4418 78.76 31.4515 78.5434 31.471 78.323C31.5192 77.6057 31.716 76.9063 32.0489 76.2692C32.5036 75.4546 33.2221 74.8191 34.0861 74.4673C35.2325 74.0087 36.4611 73.7909 37.6953 73.8274C41.5111 73.8167 46.7511 75.4109 51.8793 78.1563C52.6776 78.5818 53.471 79.0435 54.2601 79.5215C55.2686 81.8556 56.5701 84.0518 58.1334 86.0571C56.505 87.7446 55.0666 89.6056 53.8441 91.6068C53.8274 91.6343 53.8128 91.6638 53.7961 91.6914C49.1979 91.2856 44.683 90.2149 40.3922 88.5127ZM43.5775 108.948C45.2321 107.631 47.1644 106.232 49.1463 104.889C49.0039 105.788 48.8781 106.701 48.7856 107.644C48.7057 108.457 48.6569 109.256 48.6059 110.057C46.8299 109.9 44.8599 109.738 42.7894 109.59C43.0478 109.377 43.3032 109.165 43.5775 108.948L43.5775 108.948ZM34.7328 119.03H36.7806C36.0829 119.513 35.4017 120.025 34.7371 120.566H32.0034C32.8837 120.004 33.795 119.491 34.7328 119.03ZM28.5454 123.143C28.5851 123.147 28.6192 123.166 28.6599 123.166H31.8758C31.1763 123.878 30.5069 124.631 29.8592 125.409H26.1716C26.9245 124.614 27.7168 123.858 28.5454 123.143H28.5454ZM23.9428 128.003C23.9529 128.003 23.9613 128.009 23.9714 128.009H27.8752C27.1429 129.055 26.4545 130.145 25.8099 131.279H21.6638C22.3645 130.147 23.1252 129.054 23.9428 128.003H23.9428ZM15.3047 156.053H19.8701C19.9194 157.838 20.0638 159.619 20.3027 161.388H15.7635C15.5102 159.62 15.357 157.839 15.3047 156.053ZM19.865 153.453H15.2996C15.3423 151.649 15.4878 149.848 15.7353 148.061H20.2746C20.0415 149.849 19.9048 151.649 19.865 153.453L19.865 153.453ZM16.2065 163.988H20.7274C21.0367 165.623 21.4312 167.24 21.9094 168.833H17.4728C16.9608 167.243 16.538 165.625 16.2065 163.988ZM20.691 145.461H16.17C16.4934 143.824 16.9076 142.206 17.4108 140.615H21.8474C21.3781 142.209 20.9921 143.827 20.691 145.461ZM20.1903 133.879H24.4457C23.7993 135.228 23.221 136.608 22.7129 138.015H18.3155C18.8647 136.603 19.4905 135.223 20.1903 133.879ZM22.7839 171.433C23.2983 172.84 23.8831 174.221 24.5361 175.569H20.2911C19.5832 174.226 18.9496 172.845 18.3932 171.433H22.7839ZM21.7874 178.169H25.9217C26.5735 179.302 27.2701 180.392 28.0115 181.439H24.0885C23.2633 180.391 22.4952 179.3 21.7874 178.169V178.169ZM29.9392 184.039C29.9649 184.039 29.9864 184.026 30.0117 184.024C30.6739 184.81 31.3608 185.565 32.0762 186.282H28.7406C27.9078 185.575 27.1111 184.826 26.3535 184.039H29.9392ZM34.6277 188.882C34.724 188.874 34.819 188.855 34.9108 188.825C35.6086 189.385 36.3208 189.921 37.0547 190.418H35.1327C34.1633 189.961 33.2211 189.448 32.3111 188.882L34.6277 188.882ZM80.4036 171.899C78.9775 175.452 77.0386 178.776 74.6487 181.767C73.5028 183.184 72.2446 184.506 70.8865 185.721C69.689 186.795 68.408 187.772 67.0556 188.643C62.902 191.371 58.0468 192.837 53.0774 192.864C44.707 192.863 37.0928 188.674 31.5063 181.767C25.928 174.864 22.4391 165.261 22.4408 154.627C22.4408 154.385 22.452 154.147 22.4555 153.907C22.4816 152.038 22.6177 150.172 22.8631 148.319C23.616 142.402 25.5817 136.704 28.6372 131.581C29.5007 130.153 30.4592 128.785 31.5062 127.486C34.2911 123.975 37.8023 121.106 41.7992 119.079C42.809 118.578 43.8498 118.142 44.9152 117.774C46.5327 117.904 48.0476 118.037 49.4114 118.163C49.6273 118.457 49.8959 118.708 50.2036 118.904C50.3135 119.362 50.4688 119.807 50.6671 120.234C51.0834 121.124 51.6769 121.921 52.4114 122.575C50.6781 122.628 48.9575 122.889 47.2864 123.352C47.0211 123.426 46.7526 123.489 46.4905 123.572L46.4901 123.572C40.7157 125.552 35.8068 129.473 32.6006 134.668C32.5451 134.754 32.4826 134.832 32.4277 134.919C29.3006 139.948 27.4518 145.666 27.0428 151.574C26.9653 152.58 26.9167 153.596 26.9166 154.627C26.9167 155.583 26.9556 156.528 27.0224 157.464C27.4267 163.977 29.5957 170.257 33.2969 175.632C33.4958 175.913 33.7984 176.104 34.1382 176.163C34.478 176.221 34.827 176.143 35.1086 175.944C35.3902 175.745 35.5813 175.442 35.6397 175.102C35.6982 174.763 35.6193 174.413 35.4204 174.132V174.132C32.45 169.826 30.5494 164.874 29.8763 159.686C29.64 158.01 29.5198 156.32 29.5165 154.627C29.5165 154.257 29.5435 153.897 29.5543 153.53C29.6728 147.441 31.423 141.495 34.6223 136.313C34.6323 136.297 34.6438 136.283 34.6539 136.267C37.537 131.49 42.0037 127.875 47.2769 126.051C48.147 125.777 49.0354 125.564 49.9355 125.416C50.9736 125.24 52.0245 125.151 53.0773 125.149C53.232 125.146 53.3848 125.115 53.5285 125.057C53.6032 125.828 53.7273 126.594 53.8998 127.349C54.0273 127.894 54.2114 128.424 54.449 128.931C54.5624 129.172 54.6954 129.404 54.8465 129.624C55.0994 129.989 55.4252 130.297 55.8034 130.529C56.1542 130.73 56.5459 130.85 56.9493 130.878C57.0321 130.886 57.1118 130.912 57.195 130.911C57.3055 130.911 57.4159 130.905 57.5258 130.893L57.5326 130.892C58.2734 130.812 58.9669 130.489 59.5054 129.974C59.8511 129.635 60.1354 129.239 60.3458 128.802C60.6422 129.31 61.0595 129.735 61.5604 130.042C62.144 130.399 62.8129 130.592 63.4969 130.601C63.5108 130.601 63.5242 130.604 63.5381 130.604C63.988 130.607 64.4339 130.52 64.8503 130.35C65.2667 130.179 65.6453 129.928 65.9644 129.611C65.9861 129.59 66.0019 129.562 66.023 129.54C66.6054 128.895 66.9859 128.094 67.1174 127.236C67.4578 127.348 67.8136 127.408 68.1722 127.412C68.6277 127.413 69.0783 127.317 69.4941 127.131C69.91 126.945 70.2816 126.673 70.5846 126.333C71.1148 125.709 71.4464 124.941 71.5368 124.127C72.6477 125.176 73.6873 126.298 74.6486 127.486C80.0523 134.424 83.1827 142.861 83.6121 151.644C83.6731 152.629 83.7141 153.622 83.7139 154.627C83.7356 160.544 82.6115 166.409 80.4036 171.899V171.899ZM113.02 191.018C113.016 191.065 113.009 191.143 112.864 191.329C112.31 191.882 111.639 192.303 110.9 192.561C108.891 193.326 106.798 193.851 104.666 194.127C102.057 194.509 99.4241 194.7 96.7875 194.7C93.8953 194.76 91.0077 194.443 88.1975 193.756C87.3225 193.541 86.4923 193.174 85.7451 192.67C85.5479 192.53 85.3778 192.355 85.2431 192.154C85.1641 192.034 85.1182 191.895 85.1099 191.752C85.1027 191.617 85.0991 191.481 85.0991 191.344C85.1377 190.01 85.4453 188.696 86.0033 187.483C86.5614 186.27 87.3585 185.182 88.3469 184.284C90.617 182.118 94.1971 180.381 99.4946 180.026L99.4955 180.026C100.026 179.99 100.537 179.972 101.028 179.973C103.025 179.93 105.011 180.283 106.87 181.012C108.897 181.82 110.584 183.299 111.65 185.202C112.56 186.867 113.034 188.735 113.026 190.632C113.026 190.762 113.024 190.89 113.02 191.018V191.018ZM118.112 177.119C123.033 177.329 125.847 179.042 127.553 181.045C128.339 181.98 128.94 183.055 129.326 184.213C129.64 185.132 129.806 186.094 129.818 187.064C129.818 187.157 129.816 187.246 129.813 187.331C129.819 187.865 129.668 188.389 129.379 188.838C129.172 189.122 128.902 189.355 128.591 189.519C127.817 189.903 126.98 190.143 126.121 190.228C124.787 190.388 123.443 190.459 122.1 190.44C120.033 190.44 118.2 190.509 116.53 190.509C116.22 190.509 115.92 190.505 115.621 190.499C115.627 187.328 114.499 184.26 112.443 181.846C111.187 180.431 109.622 179.324 107.869 178.611C106.775 178.167 105.635 177.848 104.469 177.659C104.055 177.172 103.202 176.155 102.1 174.781C102.19 174.534 102.302 174.296 102.435 174.07C103.103 173.026 104.032 172.176 105.13 171.603C105.893 171.186 106.717 170.893 107.572 170.734C107.216 171.107 106.907 171.521 106.652 171.969C106.168 172.857 106.039 173.895 106.292 174.875C106.544 175.854 107.159 176.701 108.012 177.244C108.865 177.788 109.892 177.987 110.886 177.802C111.88 177.617 112.767 177.062 113.368 176.248L113.429 176.222L113.429 176.222C113.579 176.172 113.751 176.115 113.934 176.055C115.226 176.729 116.656 177.093 118.112 177.119V177.119ZM122.764 162.25C122.889 162.643 122.982 163.046 123.043 163.453C120.575 164.773 118.041 165.963 115.449 167.019C113.633 167.744 112.368 168.149 111.303 168.499C110.479 168.17 109.599 168.005 108.712 168.013C106.441 168.07 104.248 168.854 102.456 170.252C101.624 170.886 100.907 171.659 100.337 172.537C99.3674 171.279 98.3158 169.874 97.2614 168.39C95.7167 166.217 94.1876 163.888 92.9119 161.664C93.7886 161.775 94.6751 161.875 95.576 161.959C98.4239 162.225 101.151 162.401 104.006 162.401C106.616 162.4 109.224 162.252 111.817 161.957C115.237 161.581 118.628 160.98 121.969 160.158C122.274 160.839 122.54 161.538 122.764 162.25ZM145.004 144.811C137.54 152.556 126.373 157.709 111.528 159.373C109.031 159.657 106.52 159.8 104.006 159.801C101.258 159.801 98.6192 159.632 95.8179 159.371C92.5819 159.073 89.3695 158.558 86.2024 157.83C86.2693 156.772 86.3137 155.706 86.3139 154.627C86.3128 151.621 86.041 148.622 85.5019 145.666C91.209 146.219 97.263 146.501 103.331 146.501C121.208 146.501 141.434 143.929 150.3 137.862C148.806 140.373 147.029 142.704 145.004 144.811ZM159.821 132.205C159.623 133.428 158.98 134.536 158.016 135.315C157.718 135.556 157.395 135.764 157.051 135.933C156.955 135.98 156.893 136.005 156.833 136.03L156.817 136.032L155.61 136.435C155.288 136.541 155.02 136.769 154.865 137.07C154.709 137.371 154.678 137.721 154.778 138.045C154.877 138.369 155.1 138.641 155.398 138.802C155.696 138.964 156.045 139.002 156.371 138.909C156.375 138.957 156.384 138.998 156.384 139.052C156.383 139.209 156.366 139.366 156.333 139.52C156.303 139.63 156.241 139.729 156.156 139.806C155.83 140.102 155.439 140.318 155.014 140.437C154.393 140.63 153.746 140.726 153.095 140.722C152.62 140.718 152.147 140.662 151.683 140.556C154.444 136.275 156.431 131.541 157.552 126.572C158.088 127.101 158.546 127.703 158.914 128.36C159.493 129.346 159.822 130.459 159.872 131.601C159.873 131.803 159.856 132.005 159.821 132.205V132.205ZM165.772 114.065C164.903 115.248 163.93 116.352 162.865 117.363C161.497 118.71 159.927 120.085 158.494 121.279C158.778 118.938 158.919 116.582 158.914 114.224C158.914 112.08 158.804 109.887 158.584 107.644C158.551 107.317 158.504 107.004 158.466 106.682C158.528 106.73 158.589 106.772 158.652 106.82C160.65 108.357 162.53 110.043 164.275 111.862C164.867 112.475 165.427 113.117 165.955 113.787C165.899 113.875 165.842 113.966 165.772 114.065V114.065Z"/><path id="Vector_5" d="M124.009 72.1114C128.969 72.5098 131.65 57.9942 124.856 57.4942C118.137 56.999 118.522 71.6709 124.009 72.1114Z"/><path id="Vector_6" d="M82.7272 69.0603C87.3956 69.6902 89.4298 54.6297 82.983 54.4217C76.6085 54.2156 76.9518 68.282 82.7272 69.0603Z"/><path id="Vector_7" d="M94.62 74.8345C95.6033 76.3386 96.9615 77.5607 98.5607 78.3805C99.9643 79.0773 101.512 79.4355 103.079 79.4262C104.77 79.4213 106.439 79.0435 107.968 78.3198C109.321 77.722 110.487 76.7681 111.341 75.5599C111.434 75.4167 111.498 75.2565 111.529 75.0887C111.56 74.9208 111.558 74.7484 111.522 74.5815C111.486 74.4145 111.418 74.2562 111.321 74.1156C111.225 73.975 111.101 73.8549 110.958 73.762C110.815 73.6691 110.654 73.6054 110.487 73.5744C110.319 73.5434 110.146 73.5458 109.979 73.5814C109.812 73.6171 109.654 73.6852 109.514 73.782C109.373 73.8788 109.253 74.0024 109.16 74.1456C108.564 74.9467 107.768 75.5765 106.851 75.9718C105.671 76.5291 104.384 76.8208 103.079 76.8262C101.917 76.8355 100.769 76.572 99.7273 76.0568C98.5274 75.438 97.5103 74.5161 96.7769 73.3827C96.6815 73.241 96.5592 73.1196 96.417 73.0252C96.2747 72.9308 96.1152 72.8654 95.9477 72.8327C95.7801 72.8 95.6078 72.8006 95.4404 72.8345C95.2731 72.8683 95.1141 72.9348 94.9725 73.0302C94.8309 73.1255 94.7094 73.2478 94.6151 73.3901C94.5207 73.5323 94.4553 73.6918 94.4226 73.8594C94.3898 74.0269 94.3904 74.1993 94.4243 74.3666C94.4582 74.5339 94.5247 74.6929 94.62 74.8345L94.62 74.8345Z"/><path id="Vector_8" d="M77.6553 149.785C77.4186 149.813 77.1946 149.908 77.0093 150.058C77.2034 151.573 77.3026 153.099 77.3063 154.627C77.4096 162.183 74.9396 169.549 70.3021 175.515C67.1732 179.539 62.8092 182.424 57.8811 183.726C57.7327 183.887 57.6279 184.083 57.5766 184.295C57.5254 184.508 57.5295 184.73 57.5885 184.94C57.6856 185.271 57.9102 185.55 58.2128 185.715C58.5154 185.88 58.8713 185.919 59.2022 185.822C60.1744 185.527 61.1256 185.166 62.0494 184.744C63.5805 184.055 65.0358 183.209 66.392 182.22C69.2416 180.129 71.6806 177.531 73.5864 174.554C74.7371 172.754 75.7148 170.848 76.5064 168.864C78.323 164.337 79.2505 159.504 79.2385 154.627C79.2385 153.388 79.1823 152.165 79.0698 150.96C79.038 150.616 78.8711 150.3 78.6058 150.08C78.3405 149.859 77.9986 149.754 77.6553 149.785Z"/></g></g></svg>