<svg xmlns="http://www.w3.org/2000/svg" width="200" height="200" fill="none"><path fill="#FFE632" d="M114.819 151.302c-.001-.506.107-1.203.337-1.954a11.19 11.19 0 0 1 1.763-3.444c.81-1.064 1.811-1.919 2.909-2.364a1.3 1.3 0 1 0-.979-2.408c-2.204.905-3.82 2.692-4.92 4.579-.55.948-.971 1.93-1.26 2.88-.288.95-.448 1.864-.45 2.711a1.3 1.3 0 1 0 2.6 0Z"/><path fill="#BEBEC9" d="M85.399 86.073c.172-.464.226-.923.227-1.362-.005-.943-.246-1.822-.544-2.55a5.05 5.05 0 0 0-.524-.977 2.4 2.4 0 0 0-.402-.446 1.676 1.676 0 0 0-.358-.234 1.467 1.467 0 0 0-.636-.147c-.2 0-.448.046-.681.177-.107.059-.199.128-.285.215-.216.22-.318.399-.418.572a5.878 5.878 0 0 0-.316.684l-.038.1c-.69.794-1.043 1.72-1.035 2.57.002.837.283 1.563.694 2.118.208.279.45.52.749.715.297.19.662.352 1.134.356.136 0 .283-.032.427-.067l.003.013c.026-.006.051-.019.078-.025.012-.004.025-.002.037-.006l-.002-.006a2.8 2.8 0 0 0 .94-.43c.468-.337.78-.81.95-1.27ZM116.604 87.252c.118.032.221.046.343.046.543-.008.914-.222 1.2-.437.428-.336.723-.752.955-1.244a4.041 4.041 0 0 0 .376-1.693c.013-.917-.384-1.958-1.22-2.767-.054-.08-.159-.234-.287-.414a11.688 11.688 0 0 0-.298-.402 4.396 4.396 0 0 0-.346-.404 1.288 1.288 0 0 0-.319-.234 1.415 1.415 0 0 0-1.256-.029c-.283.134-.43.278-.557.408-.212.23-.349.454-.483.705a6.434 6.434 0 0 0-.7 2.852c.002.676.125 1.418.541 2.11.408.696 1.152 1.269 2.051 1.503ZM95.539 94.66c.485 1.619 1.112 2.922 1.91 3.887.44.528.933.96 1.49 1.268a3.728 3.728 0 0 0 1.809.479c.656.001 1.3-.186 1.871-.509.86-.487 1.574-1.255 2.18-2.235.513-.834.946-1.84 1.304-3.003a6.683 6.683 0 0 0 2.842-.932 1.3 1.3 0 0 0-1.317-2.241c-.785.457-1.437.605-2.024.608a3.604 3.604 0 0 1-1.567-.377c-.735-.348-1.387-.92-1.836-1.408a7.75 7.75 0 0 1-.512-.617l-.125-.174-.026-.04-.002-.001-.002-.004h-.001a1.297 1.297 0 0 0-2.24.084h-.002l-.003.005a6.084 6.084 0 0 1-1.133 1.389 5.03 5.03 0 0 1-1.292.87 4.053 4.053 0 0 1-1.707.373c-.477 0-1.01-.078-1.617-.28a1.3 1.3 0 1 0-.821 2.467 7.685 7.685 0 0 0 2.438.413c.131 0 .255-.015.383-.022Zm4.95-2.495c.151.155.311.313.49.474a8.3 8.3 0 0 0 1.935 1.312c.183.087.375.168.572.24-.401 1.171-.875 2.055-1.339 2.615-.29.353-.569.582-.804.713a1.198 1.198 0 0 1-.595.175 1.137 1.137 0 0 1-.555-.157c-.323-.175-.743-.56-1.155-1.228-.351-.565-.69-1.337-.983-2.29 1.077-.517 1.867-1.226 2.434-1.854Z"/><path fill="#BEBEC9" d="M190.702 93.694c-3.326-1.078-8.044-2.038-13.595-2.742-5.549-.703-11.92-1.142-18.493-1.142-2.628 0-5.287.075-7.939.227a415.387 415.387 0 0 0-1.186-6.96c9.242-1.544 18.073-2.14 24.922-2.14 4.551 0 8.241.264 10.524.66a1.3 1.3 0 1 0 .443-2.562c-2.534-.436-6.309-.696-10.967-.697-7.005.001-15.977.604-25.393 2.18-5.561-29.833-12.161-46.63-12.186-46.694a1.298 1.298 0 0 0-2.113-.459c-.006.007-7.952 7.689-19.383 19.376a165.05 165.05 0 0 0-5.75-.092c-11.806 0-26.211.933-29.422 1.15L63.535 34.005a1.302 1.302 0 0 0-2.219.396c-4.63 12.867-8.2 29.626-10.84 45.937-9.513-1.586-18.526-2.215-25.452-2.216-4.246 0-7.698.23-10.074.64a1.3 1.3 0 1 0 .443 2.562c2.125-.37 5.488-.604 9.631-.603 6.779 0 15.677.623 25.044 2.185l-.08.504c-.307 1.977-.598 3.94-.878 5.888a130.08 130.08 0 0 0-4.828-.09c-7.003 0-13.857.538-19.824 1.331-5.97.795-11.044 1.839-14.53 2.874a1.3 1.3 0 1 0 .742 2.493c3.288-.98 8.27-2.012 14.13-2.79 5.863-.779 12.613-1.309 19.482-1.309 1.485 0 2.975.029 4.463.08a564.52 564.52 0 0 0-1.098 8.392c-4.156.64-8.333 1.432-12.258 2.313-4.397.989-8.473 2.08-11.846 3.17-1.688.545-3.2 1.09-4.496 1.627-1.297.539-2.374 1.063-3.22 1.6a1.3 1.3 0 0 0 1.395 2.194c.642-.41 1.612-.892 2.82-1.392 4.245-1.761 11.406-3.77 19.221-5.372a181.8 181.8 0 0 1 8.06-1.461c-1.106 9.333-1.86 17.65-2.28 23.88-.98.79-3.305 2.796-5.707 5.846-3.12 3.966-6.385 9.725-6.796 16.85-.015.25-.023.521-.023.809.002 2.399.562 6.214 3.22 9.667 1.326 1.721 3.176 3.328 5.677 4.569.24.12.493.233.745.346-.213.206-.37.475-.401.794-.547 5.473-1.087 15.481-1.359 20.906a1.3 1.3 0 1 0 2.598.13c.269-5.402.812-15.424 1.348-20.778.008-.078-.017-.149-.023-.224 1.92.622 4.125 1.068 6.661 1.281 1.111.093 2.2.138 3.268.138 9.458.005 17.133-3.574 23.385-8.454 5.948-4.637 10.66-10.434 14.629-15.568.149-.106.281-.238.378-.407.56-.971 1.08-1.472 1.57-1.777a3.428 3.428 0 0 1 1.188-.444c.658-.131 1.461-.13 2.393-.185.927-.058 2-.188 3.1-.705 1.398-.655 2.418-1.559 3.063-2.574a5.787 5.787 0 0 0 .91-3.121c-.004-1.088-.29-2.072-.769-2.864a3.657 3.657 0 0 0-.911-1.034c-.056-.042-.12-.08-.181-.119.292-.315.533-.673.721-1.067a5.1 5.1 0 0 0 .477-2.162c0-.758-.168-1.564-.562-2.329-.392-.765-1.009-1.478-1.844-2.051a6.374 6.374 0 0 0-4.74-1.032c.14-.777.24-1.598.241-2.416-.005-.994-.132-2.001-.655-2.922a3.407 3.407 0 0 0-1.126-1.188 3.682 3.682 0 0 0-1.672-.54l-.21-.009c-.692-.001-1.287.294-1.727.65-.775.635-1.276 1.48-1.734 2.405-.119.246-.225.503-.333.759a3.758 3.758 0 0 0-.794-1.08 3.077 3.077 0 0 0-2.114-.807l-.12.003-.007.001-.037.001v.004a2.805 2.805 0 0 0-1.23.348c-.665.374-1.11.94-1.446 1.551-.5.924-.787 2.014-.982 3.209-.19 1.193-.272 2.49-.272 3.782 0 .761.028 1.52.083 2.256.003.048.029.087.037.134-2.463 3.665-5.89 6.373-9.802 8.179-4.012 1.852-8.52 2.748-12.9 2.747-3.37.001-6.66-.529-9.581-1.538a1.3 1.3 0 1 0-.848 2.458v-.001c3.222 1.112 6.788 1.681 10.429 1.681 4.731 0 9.594-.96 13.989-2.986 4.392-2.025 8.32-5.132 11.094-9.408.221-.341.245-.74.13-1.099.025-.118.054-.234.045-.359-.05-.67-.076-1.368-.076-2.064-.003-1.796.186-3.592.56-4.809.181-.607.415-1.058.6-1.275a.751.751 0 0 1 .204-.186l.096-.028.022-.001h.013a.518.518 0 0 1 .263.055l.177.16c.125.153.277.461.387.872.17.615.254 1.432.286 2.204.035.781.023 1.497.055 2.059a1.298 1.298 0 0 0 1.21 1.22 1.298 1.298 0 0 0 1.363-1.044l.017-.084c.089-.432.54-2.495 1.23-4.368.341-.934.753-1.821 1.143-2.382.191-.281.377-.474.491-.558l.093-.057c.24.026.378.081.476.141.145.095.27.237.39.564.115.321.185.799.184 1.351.003 1.133-.281 2.54-.578 3.626a23.717 23.717 0 0 1-.537 1.723l-.035.097-.01.026a1.3 1.3 0 0 0 2.43.924c.008-.019.17-.45.379-1.119.105-.017.212-.023.314-.068a3.847 3.847 0 0 1 1.493-.293c.695.002 1.44.173 2.168.673.507.351.812.724 1.006 1.098.192.375.274.762.274 1.14.004.517-.169 1.015-.374 1.31a1.02 1.02 0 0 1-.263.279l-.04.021c-.326-.017-.431-.074-.456-.087l-.065-.063c-.068-.07-.165-.29-.478-.653a2.133 2.133 0 0 0-.694-.508 2.273 2.273 0 0 0-.939-.192 3.77 3.77 0 0 0-.988.148c-1.006.28-1.771.938-2.331 1.709-.553.779-.921 1.703-.928 2.712-.007.773.259 1.634.894 2.28.632.65 1.535 1.016 2.58 1.12l.01.001c.116.011.237.019.367.019.383.001.761-.067 1.099-.203.6-.239 1.008-.658 1.275-1.006.397-.536.611-.957.806-1.154a.823.823 0 0 1 .252-.199c.069-.033.176-.061.325-.08a.775.775 0 0 1 .084.086c.242.27.537.964.527 1.706a3.166 3.166 0 0 1-.503 1.723c-.363.567-.957 1.137-1.977 1.619-.584.274-1.189.387-1.89.444-1.042.096-2.282.006-3.668.412a5.765 5.765 0 0 0-2.053 1.103c-.503.418-.969.946-1.402 1.591-4.057 5.279-8.821 11.233-14.736 15.838-5.95 4.628-12.998 7.9-21.787 7.905-.994 0-2.01-.042-3.05-.129-3.659-.308-6.469-1.118-8.63-2.192-3.237-1.616-5.05-3.808-6.118-6.002-1.062-2.19-1.338-4.405-1.336-5.906 0-.241.006-.461.018-.655v-.003c.362-6.393 3.327-11.686 6.245-15.393a36.417 36.417 0 0 1 3.96-4.276 28.257 28.257 0 0 1 1.622-1.382l.085-.065.02-.014.002-.002c.31-.228.502-.578.528-.962.42-6.39 1.209-15.167 2.39-25.032 4.412-.626 8.736-1.06 12.596-1.188a1.3 1.3 0 0 0-.087-2.598c-3.776.126-7.94.533-12.182 1.116.32-2.57.668-5.205 1.04-7.881 4.211.243 8.368.717 12.288 1.49a1.3 1.3 0 0 0 .503-2.55c-3.995-.788-8.19-1.273-12.426-1.525.268-1.858.546-3.73.838-5.614l.072-.454c4.073.75 8.205 1.673 12.266 2.811a1.3 1.3 0 0 0 .701-2.503c-4.17-1.167-8.397-2.112-12.56-2.876 2.479-15.328 5.794-31.038 9.98-43.358l15.58 18.549c.269.32.673.49 1.089.46.003 0 1.037-.074 2.806-.185 5.305-.335 17.178-1.004 27.094-1.004 2.205 0 4.313.033 6.225.11.367.014.726-.128.983-.39a1247.998 1247.998 0 0 1 14.228-14.331 940.33 940.33 0 0 1 4.059-3.996l.015-.014c1.808 5.064 6.915 20.47 11.366 44.342-3.894.72-7.838 1.606-11.73 2.695a1.3 1.3 0 1 0 .701 2.504 131.349 131.349 0 0 1 11.492-2.641c.39 2.165.772 4.392 1.146 6.687-3.961.31-7.878.808-11.616 1.545a1.3 1.3 0 1 0 .503 2.551c3.685-.727 7.578-1.217 11.527-1.52a436.96 436.96 0 0 1 1.032 6.988c-3.977-.528-7.864-.888-11.414-1.007a1.3 1.3 0 0 0-.086 2.599c3.648.121 7.712.518 11.87 1.088a454.532 454.532 0 0 1 2.575 24.245c.033.41.263.744.579.958.039.319.19.625.457.846l.019.016c.255.214 2.825 2.425 5.537 6.14 2.714 3.717 5.556 8.925 6.447 15.132.067.468.109.993.109 1.552-.002 1.88-.468 4.121-1.999 6.187-1.533 2.064-4.161 4.031-8.753 5.255a1.3 1.3 0 1 0 .667 2.513h-.001a23.812 23.812 0 0 0 4.576-1.703c.715 7.178 1.071 16.186 1.327 21.576a1.3 1.3 0 1 0 2.597-.123c-.27-5.661-.647-15.375-1.454-22.85-.002-.026-.018-.046-.022-.071 1.299-.932 2.348-1.96 3.153-3.049 1.926-2.601 2.511-5.433 2.509-7.735 0-.691-.052-1.336-.135-1.92-1.01-6.999-4.242-12.708-7.2-16.674-2.962-3.967-5.666-6.204-5.721-6.251-.032-.026-.071-.033-.104-.055a457.767 457.767 0 0 0-2.493-23.599c4.094.631 8.217 1.411 12.082 2.28 4.332.974 8.343 2.049 11.618 3.107a58.51 58.51 0 0 1 4.299 1.555c1.209.5 2.179.982 2.821 1.392a1.3 1.3 0 0 0 1.396-2.193c-.847-.538-1.924-1.062-3.222-1.601-4.526-1.872-11.756-3.886-19.693-5.517a184.489 184.489 0 0 0-9.662-1.713c-.356-2.58-.726-5.095-1.107-7.54 2.511-.138 5.032-.209 7.525-.209 6.457 0 12.729.433 18.166 1.121 5.434.687 10.045 1.636 13.119 2.635a1.3 1.3 0 0 0 .803-2.472Zm-91.97 37.521c-.296.443-.491.772-.606.881l-.087.071c-.013.005-.031.018-.139.02l-.117-.007c-.625-.067-.874-.242-.977-.347-.1-.108-.15-.215-.157-.466-.008-.314.154-.806.44-1.196.279-.398.663-.662.897-.715.06-.017.098-.023.14-.031l.052.077c.155.232.444.627.922.921.068.042.156.06.228.096a5.003 5.003 0 0 0-.596.696Z"/><path fill="#BEBEC9" d="m128.089 165.056-8.572.97a1.304 1.304 0 0 0-.942.581l-.004.006a15.976 15.976 0 0 1-1.792 2.184c-.496.503-1.059.983-1.599 1.309-.541.332-1.039.49-1.406.486-.114 0-.219-.013-.322-.038-.543-.136-.949-.38-1.195-.648-.243-.274-.37-.553-.377-1.004-.004-.557.261-1.446 1.146-2.598a1.3 1.3 0 1 0-2.063-1.582c-1.108 1.447-1.678 2.842-1.683 4.18-.001.092.019.178.024.268-.23.026-.448.043-.643.043-.492 0-.868-.075-1.151-.183-.424-.167-.659-.384-.843-.682-.18-.299-.292-.71-.292-1.214-.002-.586.157-1.282.476-1.956a5.815 5.815 0 0 1 1.383-1.851 1.3 1.3 0 1 0-1.727-1.944 8.404 8.404 0 0 0-2.008 2.686c-.027.058-.046.117-.072.176a2.211 2.211 0 0 1-.318-.415 3.023 3.023 0 0 1-.4-1.511 3 3 0 0 1 .524-1.701c.37-.539.959-1.057 1.937-1.458.142-.058.279-.145.393-.25l.018-.017c.226-.207 2.419-2.187 5.523-4.224 3.098-2.043 7.124-4.118 10.866-4.605a1.3 1.3 0 0 0-.341-2.577c-4.55.614-8.946 3.009-12.266 5.217-2.86 1.91-4.897 3.695-5.425 4.17-1.253.559-2.221 1.35-2.853 2.28a5.596 5.596 0 0 0-.976 3.165 5.605 5.605 0 0 0 .76 2.831c.446.756 1.095 1.392 1.919 1.778-.002.069-.013.137-.013.206-.003 1.171.352 2.372 1.216 3.28.428.45.972.811 1.595 1.046.623.237 1.319.353 2.075.353.512 0 1.052-.053 1.623-.158.014-.003.025-.012.039-.016l.024.031c.662.715 1.533 1.168 2.472 1.405.321.081.643.117.955.117 1.074-.005 2.018-.406 2.833-.911 1.224-.767 2.222-1.815 2.953-2.678a19.1 19.1 0 0 0 .832-1.06l7.989-.904a1.3 1.3 0 0 0-.292-2.583Z"/><path fill="#FFE632" d="M156.401 163.364v-.002c-.029-5.187-.726-9.357-1.903-12.712-1.757-5.032-4.643-8.217-7.808-10.06-3.163-1.848-6.539-2.38-9.346-2.396h.012l-.276-.001c-3.243.001-6.747.315-9.964.835-3.22.523-6.138 1.241-8.268 2.104a1.3 1.3 0 1 0 .979 2.409c1.827-.746 4.622-1.45 7.704-1.946 3.085-.499 6.474-.802 9.549-.802l.239.001h.012c1.66.009 3.513.225 5.341.827 2.745.911 5.43 2.643 7.52 5.972 2.085 3.332 3.568 8.335 3.609 15.784.021 3.693.308 9.576.308 14.42.001 2.497-.082 4.728-.294 6.132-.098.63-.307 1.035-.605 1.376-.442.504-1.197.89-2.224 1.124-1.017.236-2.257.311-3.504.31-1.087 0-2.18-.054-3.172-.082-.343-.01-.661-.015-.956-.015-1.585-.004-2.555.148-3.39.348-.834.196-1.463.397-2.772.581-.46.064-.889.094-1.287.094-1.674-.01-2.76-.497-3.583-1.286-.817-.795-1.387-1.995-1.656-3.52-.226-1.259-.277-3.432-.274-6.092 0-1.19.007-2.483.007-3.854 0-3.706-.056-7.983-.486-12.376-.397-3.979-1.05-7.318-2.502-9.844-.728-1.258-1.685-2.313-2.906-3.031-1.219-.721-2.67-1.082-4.292-1.079-.35 0-.71.016-1.081.049a1.3 1.3 0 1 0 .234 2.59c.294-.027.576-.039.847-.039 1.253.002 2.195.263 2.972.719.582.344 1.086.809 1.541 1.427.681.925 1.239 2.204 1.665 3.803.427 1.598.725 3.506.935 5.658.416 4.253.473 8.445.473 12.123 0 1.362-.007 2.654-.007 3.854.003 2.699.031 4.909.314 6.543.149.843.394 1.647.72 2.402a154.121 154.121 0 0 1-5.675 1.283c-1.812.371-3.636.682-4.63.735l.003-.001c-.199.011-.391.016-.576.016-1.195.003-2.151-.229-2.745-.557a2.047 2.047 0 0 1-.649-.519 1.285 1.285 0 0 1-.264-.58v-.003a6.47 6.47 0 0 1-.071-.781 28.68 28.68 0 0 1-.025-1.294c0-1.462.071-3.309.142-4.781.035-.736.071-1.38.097-1.839l.044-.731a1.3 1.3 0 1 0-2.594-.167c-.001.014-.288 4.444-.289 7.518 0 .514.008.993.028 1.417.021.426.05.788.111 1.126.115.639.39 1.234.782 1.727.589.744 1.407 1.255 2.329 1.583.925.327 1.969.481 3.104.481.235 0 .473-.006.714-.019h.003c.866-.05 1.959-.213 3.161-.428 3.588-.646 8.065-1.771 8.08-1.775.134-.033.247-.102.358-.171.085.093.153.199.243.288 1.314 1.294 3.186 2.035 5.398 2.025.527 0 1.075-.039 1.646-.119 1.46-.203 2.302-.46 3.008-.625.705-.163 1.342-.276 2.795-.279.266 0 .559.004.882.014.952.026 2.075.083 3.246.083 1.795-.006 3.699-.116 5.391-.774.843-.331 1.644-.818 2.28-1.533.638-.712 1.077-1.648 1.234-2.718.248-1.673.32-3.958.321-6.517 0-4.932-.288-10.841-.307-14.433Z"/></svg>