<svg width="200" height="200" viewBox="0 0 200 200" xmlns="http://www.w3.org/2000/svg"><g id="type=family, mode=dark"><path id="Vector" d="M160.96 138.726H160.96C160.235 139.38 159.298 139.75 158.322 139.766C157.926 139.771 157.532 139.693 157.168 139.535C156.866 139.405 156.604 139.196 156.41 138.931C156.311 138.791 156.185 138.672 156.04 138.581C155.895 138.49 155.733 138.428 155.564 138.4C155.394 138.372 155.221 138.377 155.054 138.416C154.887 138.455 154.729 138.526 154.59 138.627C154.451 138.727 154.333 138.853 154.243 138.999C154.153 139.145 154.092 139.307 154.065 139.477C154.038 139.646 154.045 139.819 154.085 139.986C154.125 140.153 154.198 140.31 154.299 140.449C154.76 141.085 155.381 141.587 156.099 141.906C156.8 142.214 157.557 142.371 158.322 142.366C159.936 142.35 161.489 141.746 162.689 140.667C162.945 140.437 163.1 140.116 163.119 139.772C163.138 139.429 163.02 139.092 162.791 138.835C162.562 138.578 162.241 138.423 161.898 138.402C161.555 138.382 161.217 138.498 160.96 138.726V138.726Z"/><path id="Vector_2" d="M156.541 133.869C156.619 133.488 156.659 133.101 156.66 132.712C156.67 132.058 156.55 131.408 156.308 130.8C156.066 130.192 155.706 129.639 155.249 129.17C154.791 128.702 154.246 128.329 153.644 128.072C153.042 127.816 152.395 127.681 151.741 127.675L151.567 127.673C150.095 127.691 148.675 128.22 147.55 129.169C146.406 130.102 145.613 131.397 145.301 132.84C145.194 133.359 145.297 133.9 145.589 134.343C145.88 134.786 146.336 135.096 146.855 135.203C147.375 135.31 147.916 135.207 148.359 134.915C148.802 134.624 149.111 134.168 149.218 133.649H149.218C149.348 133.097 149.658 132.605 150.1 132.251C150.509 131.896 151.027 131.692 151.567 131.673L151.617 131.673C151.76 131.669 151.902 131.693 152.036 131.745C152.169 131.796 152.291 131.874 152.394 131.973C152.485 132.072 152.555 132.189 152.601 132.316C152.647 132.443 152.667 132.578 152.66 132.712C152.659 132.83 152.647 132.947 152.623 133.062C152.516 133.582 152.619 134.122 152.911 134.565C153.203 135.008 153.659 135.317 154.178 135.424C154.698 135.531 155.238 135.427 155.682 135.136C156.125 134.844 156.434 134.388 156.541 133.869V133.869Z"/><path id="Vector_3" d="M169.011 127.979L168.837 127.976C167.365 127.994 165.945 128.523 164.82 129.473C163.676 130.406 162.883 131.7 162.571 133.143C162.518 133.4 162.516 133.666 162.565 133.924C162.614 134.182 162.714 134.427 162.858 134.647C163.003 134.866 163.189 135.055 163.406 135.203C163.623 135.35 163.868 135.453 164.125 135.507C164.382 135.56 164.647 135.562 164.905 135.512C165.163 135.463 165.409 135.363 165.628 135.219C165.848 135.075 166.037 134.888 166.184 134.671C166.332 134.454 166.435 134.21 166.488 133.952L166.488 133.952C166.617 133.401 166.928 132.909 167.37 132.555C167.778 132.2 168.296 131.996 168.837 131.976L168.887 131.977C169.03 131.973 169.172 131.997 169.306 132.048C169.439 132.1 169.561 132.177 169.664 132.276C169.755 132.376 169.825 132.493 169.87 132.62C169.916 132.746 169.936 132.881 169.93 133.016C169.929 133.133 169.917 133.25 169.892 133.365C169.839 133.623 169.837 133.888 169.887 134.146C169.936 134.404 170.036 134.649 170.181 134.869C170.325 135.088 170.511 135.277 170.729 135.424C170.946 135.572 171.19 135.675 171.447 135.728C171.705 135.781 171.97 135.783 172.228 135.733C172.486 135.684 172.731 135.584 172.951 135.44C173.17 135.295 173.359 135.109 173.506 134.892C173.654 134.674 173.757 134.43 173.81 134.173C173.889 133.792 173.929 133.404 173.93 133.016C173.939 132.361 173.82 131.712 173.577 131.104C173.335 130.496 172.975 129.942 172.518 129.474C172.061 129.006 171.515 128.633 170.914 128.376C170.312 128.12 169.665 127.985 169.011 127.979L169.011 127.979Z"/><path id="Vector_4" d="M68.0381 90.9322C69.4655 90.6594 70.8047 90.0425 71.9397 89.1351C73.578 87.7876 74.8519 86.0505 75.6446 84.083C76.4464 82.1962 76.8685 80.1698 76.8866 78.1198C76.9446 76.4262 76.5253 74.7505 75.6766 73.2838C75.2454 72.5911 74.6528 72.0133 73.9495 71.5997C73.1974 71.1735 72.3458 70.9544 71.4814 70.9646C71.0558 70.9663 70.6314 71.0101 70.2143 71.0953C68.7894 71.3961 67.4603 72.0428 66.3443 72.9785C64.6818 74.399 63.3766 76.1905 62.5343 78.2085C61.6761 80.14 61.2167 82.2248 61.1837 84.3381C61.1214 85.9577 61.5507 87.5581 62.4152 88.9291C62.8672 89.5893 63.4746 90.1283 64.1839 90.4985C64.9503 90.884 65.7984 91.0788 66.6562 91.0664C67.12 91.0643 67.5826 91.0193 68.0381 90.9322ZM64.2313 86.8667C63.9135 86.0625 63.7613 85.2025 63.7837 84.3381C63.8428 81.9645 64.5244 79.6479 65.7602 77.6205C66.3503 76.6255 67.1037 75.737 67.9889 74.9924C68.7762 74.3252 69.7157 73.8624 70.7244 73.6448C70.9735 73.5932 71.2271 73.5663 71.4815 73.5646C71.8903 73.5539 72.2945 73.6534 72.6516 73.8526C73.1967 74.2023 73.6079 74.7257 73.8186 75.338C74.1482 76.2276 74.307 77.1713 74.2866 78.1198C74.2594 80.4075 73.631 82.6479 72.4644 84.616C71.9075 85.5625 71.185 86.4012 70.3315 87.0921C69.5267 87.7401 68.5754 88.181 67.5608 88.3764C67.2626 88.4341 66.9598 88.4642 66.6562 88.4664C66.2139 88.4788 65.7752 88.3836 65.3778 88.1889C64.8516 87.8973 64.4455 87.4289 64.2313 86.8667Z"/><path id="Vector_5" d="M107.196 84.1787C108.228 82.1997 108.791 80.0096 108.841 77.7781C108.901 76.261 108.471 74.7649 107.616 73.5105C107.162 72.8977 106.565 72.4049 105.877 72.0751C105.132 71.7295 104.318 71.5563 103.496 71.5685C103.374 71.5685 103.251 71.5717 103.127 71.5783V71.5782C101.528 71.683 99.9852 72.2119 98.6584 73.1107C96.6749 74.476 95.0584 76.3093 93.9521 78.4482C92.8429 80.4344 92.2268 82.6579 92.1558 84.9317C92.0942 86.4287 92.5605 87.8998 93.4734 89.0878C93.967 89.6782 94.5954 90.141 95.3056 90.4373C96.0876 90.7544 96.9254 90.9108 97.7691 90.8975C97.8786 90.8975 97.9894 90.8953 98.1014 90.8909C99.7149 90.8177 101.279 90.313 102.631 89.4293C104.589 88.1115 106.163 86.3002 107.196 84.1787ZM97.9991 88.2928L97.7691 88.2974C97.273 88.3104 96.7794 88.2236 96.3174 88.0423C95.8179 87.8373 95.4109 87.4565 95.1732 86.9717C94.8753 86.3341 94.7323 85.6351 94.7558 84.9317C94.7824 83.7537 95.0109 82.589 95.4313 81.4882C96.1159 79.602 97.2051 77.8886 98.6223 76.4682C99.8389 75.1654 101.488 74.3502 103.262 74.1747L103.194 72.8765L103.262 74.1747L103.496 74.1685C103.929 74.1565 104.359 74.2425 104.754 74.4201C105.237 74.6598 105.617 75.0649 105.825 75.5615C106.121 76.262 106.263 77.0179 106.241 77.7781C106.149 80.2571 105.324 82.6533 103.871 84.6635C103.161 85.6807 102.266 86.5544 101.231 87.2384C100.268 87.8739 99.1516 88.2382 97.9991 88.2928Z"/><path id="Vector_6" d="M73.0021 96.7865C72.977 96.984 72.9653 97.1831 72.967 97.3822C72.9571 98.6919 73.3936 99.9659 74.2046 100.994C74.8316 101.753 75.6408 102.341 76.5564 102.702C77.7742 103.169 79.0715 103.392 80.3751 103.361C83.3353 103.407 86.223 102.443 88.5618 100.628C89.5879 99.8464 90.4684 98.8902 91.1628 97.8032C91.2685 97.6215 91.3286 97.4168 91.3379 97.2067C91.3471 96.9966 91.3053 96.7874 91.2159 96.597C91.1266 96.4067 90.9924 96.2408 90.8248 96.1137C90.6573 95.9866 90.4615 95.9021 90.2541 95.8673C87.5448 95.4509 84.8064 95.2541 82.0654 95.2788C79.4197 95.2785 76.7758 95.4117 74.1435 95.6779C73.8573 95.71 73.5899 95.8363 73.3832 96.037C73.1766 96.2377 73.0426 96.5013 73.0021 96.7865ZM87.4887 98.1321C87.2136 98.382 86.9246 98.616 86.623 98.8331C84.8 100.127 82.6102 100.803 80.3751 100.761C79.4109 100.791 78.4498 100.634 77.5456 100.298C77.0712 100.134 76.6475 99.8502 76.3164 99.4731C75.9854 99.096 75.7584 98.639 75.6579 98.1474C77.0162 98.0345 79.3725 97.8786 82.0654 97.8788C83.8031 97.8783 85.6737 97.9516 87.4887 98.1321Z"/><path id="Vector_7" d="M121.867 14.793L121.87 14.791L121.874 14.788L121.867 14.793Z"/><path id="Vector_8" d="M133.268 65.76L133.267 65.762L133.266 65.768L133.268 65.76Z"/><path id="Vector_9" d="M34.6865 179.473H34.6855V179.472L34.6865 179.473Z"/><path id="Vector_10" d="M140.176 178.615L140.174 178.616H140.172L140.176 178.615Z"/><path id="Vector_11" d="M143.568 116.257L143.569 116.258V116.259L143.568 116.257Z"/><path id="Vector_12" d="M172.684 122.734C169.703 120.998 165.664 120.034 160.275 120.033C157.242 119.968 154.217 120.361 151.302 121.198C148.131 122.052 145.398 124.067 143.645 126.844C142.218 129.416 141.461 132.306 141.445 135.248L141.445 135.247C141.43 135.587 141.422 135.923 141.422 136.257C141.388 138.183 141.712 140.098 142.375 141.906C143.457 144.685 145.572 146.938 148.277 148.193C151.229 149.652 155.141 150.412 160.275 150.415C163.308 150.473 166.335 150.114 169.27 149.348C172.462 148.605 175.27 146.713 177.159 144.034C178.687 141.531 179.44 138.632 179.323 135.703C179.351 133.703 179.055 131.712 178.446 129.807C177.474 126.813 175.419 124.291 172.684 122.734ZM175.981 140.598C175.194 142.85 173.547 144.7 171.401 145.741C168.955 147.02 165.359 147.817 160.275 147.815C157.569 147.866 154.868 147.561 152.241 146.908C149.044 146.032 147.064 144.633 145.817 142.878C144.541 140.913 143.913 138.597 144.022 136.257C144.022 135.964 144.029 135.666 144.043 135.364L144.043 135.363C144.087 133.647 144.373 131.945 144.893 130.309C145.624 127.995 147.21 126.047 149.327 124.861C151.681 123.503 155.179 122.632 160.275 122.633C163.071 122.572 165.859 122.944 168.541 123.737C171.199 124.458 173.494 126.142 174.98 128.461C176.215 130.669 176.818 133.174 176.723 135.703C176.757 137.365 176.506 139.02 175.981 140.598Z"/><path id="Vector_13" d="M94.2754 118.545L94.2774 118.546L94.2804 118.547L94.2754 118.545Z"/><path id="Vector_14" d="M51.4023 118.133L51.4053 118.131L51.4093 118.129L51.4023 118.133Z"/><path id="Vector_15" d="M107.579 100.285C110.947 98.0917 113.805 95.1989 115.956 91.8033C117.914 88.6258 119.319 85.1398 120.112 81.4931L118.846 81.2007L120.112 81.493C120.673 79.1829 120.971 76.8169 121 74.4399C121.055 71.6496 120.443 68.8864 119.213 66.381C118.208 64.4348 116.804 62.7216 115.094 61.3527C111.75 58.8242 107.88 57.0794 103.771 56.2472C97.6756 54.9329 91.4484 54.3282 85.2139 54.4451C69.0951 54.4473 58.2987 57.311 51.0405 62.1174C47.6803 64.3114 44.8337 67.2053 42.6954 70.6012C40.7498 73.7811 39.3522 77.2652 38.561 80.9082C38.0057 83.1987 37.7112 85.5447 37.6831 87.9015C37.6279 90.7 38.2433 93.4711 39.4778 95.9832C40.4864 97.934 41.8927 99.6517 43.6061 101.025C46.9503 103.56 50.8211 105.31 54.9326 106.148C61.0173 107.466 67.2346 108.073 73.4595 107.957C89.5085 107.955 100.304 105.09 107.579 100.285ZM46.9553 100.232C44.769 98.9291 42.9832 97.0499 41.7931 94.8002C40.7459 92.6543 40.2281 90.2887 40.2831 87.9015C40.3115 85.7417 40.5836 83.592 41.0943 81.4932C41.8205 78.1326 43.1062 74.9179 44.8976 71.9834C47.6289 67.6429 51.7397 63.9568 58.1677 61.294C64.5933 58.637 73.3489 57.0439 85.2139 57.0451C98.4022 57.037 106.81 59.0325 111.75 62.1518C113.93 63.4481 115.712 65.3206 116.898 67.5635C117.94 69.7029 118.455 72.0607 118.4 74.4399C118.37 76.62 118.095 78.7898 117.579 80.9082C116.851 84.2703 115.559 87.4848 113.758 90.4154C111.011 94.7564 106.877 98.4447 100.444 101.108C94.0132 103.765 85.2708 105.358 73.4595 105.357C60.306 105.365 51.9018 103.362 46.9553 100.232V100.232Z"/><path id="Vector_16" d="M70.5151 61.332C66.4695 61.8997 62.508 62.9575 58.7179 64.4821C58.3997 64.6148 58.1471 64.8684 58.0159 65.1872C57.8846 65.5061 57.8854 65.864 58.018 66.1822C58.1506 66.5005 58.4043 66.753 58.7231 66.8843C59.0419 67.0155 59.3998 67.0148 59.7181 66.8821H59.718C63.3132 65.439 67.0705 64.4384 70.9072 63.9023C71.0764 63.8771 71.239 63.8187 71.3857 63.7305C71.5323 63.6424 71.66 63.5261 71.7616 63.3884C71.8632 63.2508 71.9366 63.0944 71.9777 62.9283C72.0187 62.7622 72.0265 62.5896 72.0007 62.4205C71.9749 62.2513 71.916 62.089 71.8273 61.9426C71.7386 61.7963 71.6219 61.669 71.4839 61.5679C71.3459 61.4667 71.1893 61.3939 71.023 61.3534C70.8568 61.3129 70.6842 61.3057 70.5151 61.3321L70.5151 61.332Z"/><path id="Vector_17" d="M52.8847 67.6142C51.9392 68.2593 51.0361 68.9643 50.1809 69.725C49.9236 69.9544 49.7679 70.2767 49.7482 70.6209C49.7285 70.9652 49.8463 71.3031 50.0758 71.5605C50.3053 71.8178 50.6275 71.9735 50.9718 71.9932C51.316 72.0129 51.6539 71.8951 51.9113 71.6656C52.6836 70.9788 53.4992 70.3422 54.353 69.7598C54.6361 69.5645 54.8302 69.265 54.8929 68.9268C54.9555 68.5887 54.8817 68.2395 54.6875 67.9557C54.4933 67.6719 54.1945 67.4766 53.8566 67.4126C53.5187 67.3486 53.1692 67.4211 52.8847 67.6142Z"/><path id="Vector_18" d="M93.2656 126.752L93.2666 126.75V126.747L93.2656 126.752Z"/><path id="Vector_19" d="M106.025 143.786H106.028L106.033 143.787L106.025 143.786Z"/><path id="Vector_20" d="M133.457 162.563L133.458 162.565V162.567L133.457 162.563Z"/><path id="Vector_21" d="M196.246 116.597C196.024 116.372 195.763 116.189 195.476 116.058C195.174 115.921 194.847 115.851 194.516 115.851C193.973 115.862 193.446 116.03 192.998 116.335C192.547 116.639 192.146 117.011 191.809 117.437C191.164 118.262 190.596 119.143 190.11 120.07C189.396 121.392 188.763 122.756 188.213 124.153C186.063 121.207 183.196 118.86 179.883 117.335C175.651 115.324 170.29 114.2 163.64 114.2C159.226 114.105 154.825 114.727 150.61 116.042C148.527 116.728 146.556 117.716 144.761 118.976C144.665 118.631 144.564 118.304 144.457 118.017C144.325 117.657 144.171 117.305 143.996 116.963C143.873 116.717 143.73 116.481 143.569 116.258C143.29 115.879 142.945 115.554 142.551 115.297C142.11 115.008 141.596 114.852 141.068 114.846C140.612 114.848 140.164 114.97 139.769 115.199C139.157 115.577 138.657 116.113 138.322 116.75C137.887 117.555 137.56 118.415 137.35 119.307L137.35 119.309C136.87 121.545 136.652 123.83 136.7 126.116C136.697 127.916 136.792 129.715 136.986 131.505C136.568 133.669 136.363 135.868 136.376 138.072C136.33 141.183 136.761 144.282 137.653 147.262C138.977 151.717 141.903 155.524 145.868 157.948C147.955 159.195 150.213 160.131 152.571 160.725C152.175 160.84 151.789 160.982 151.413 161.151C150.343 161.634 149.44 162.424 148.819 163.422C147.984 163.069 147.086 162.891 146.18 162.897C145.54 162.9 144.903 162.967 144.276 163.095C141.643 163.561 139.158 164.646 137.026 166.261C136.004 165.502 134.921 164.828 133.79 164.244C133.708 164.202 133.629 164.172 133.548 164.132C133.581 163.937 133.598 163.739 133.599 163.541C133.598 163.211 133.551 162.882 133.457 162.565C133.368 162.265 133.199 161.993 132.969 161.78C132.675 161.518 132.322 161.331 131.941 161.233C131.436 161.102 130.918 161.026 130.397 161.006C129.849 160.972 129.26 160.966 128.658 160.966C128.168 160.966 127.67 160.971 127.185 160.971C126.373 160.971 125.595 160.957 124.987 160.896C124.181 160.819 123.252 160.673 122.246 160.628C121.491 159.103 120.6 157.649 119.583 156.284C117.96 154.03 116.08 151.974 113.98 150.158C113.696 149.918 113.406 149.685 113.109 149.457C113.439 147.972 113.597 146.455 113.581 144.934C113.581 144.361 113.563 143.765 113.528 143.148C113.36 140.849 112.929 138.577 112.242 136.377C111.162 132.636 109.445 129.109 107.167 125.952C106.105 124.5 104.804 123.238 103.32 122.222C101.906 121.25 100.236 120.717 98.521 120.69C98.2739 120.69 98.0253 120.702 97.7751 120.726L97.7714 120.726C97.294 120.772 96.8256 120.886 96.3807 121.065C96.2318 120.746 96.0666 120.436 95.8855 120.135C95.5117 119.463 94.9535 118.911 94.2769 118.546C93.6737 118.277 93.0456 118.068 92.4016 117.923C89.379 117.286 86.3136 116.873 83.2303 116.687C83.2226 116.686 83.216 116.681 83.2083 116.68C83.1923 116.677 82.3993 116.537 81.0898 116.363V113.455C87.2627 113.067 93.3702 111.968 99.291 110.178C110.475 106.644 117.912 100.569 122.438 92.7539C123.54 90.8433 124.48 88.8435 125.247 86.7755C125.473 86.833 125.705 86.8637 125.939 86.867C126.855 86.8327 127.73 86.4754 128.408 85.8583C129.555 84.799 130.464 83.509 131.077 82.073C131.902 80.2596 132.508 78.3546 132.883 76.398L132.883 76.3976C133.243 74.6195 133.429 72.8105 133.437 70.9963C133.455 69.5136 133.281 68.0348 132.92 66.5965C133.088 66.3428 133.206 66.0595 133.267 65.7617C133.288 65.6498 133.295 65.5747 133.304 65.4842C133.331 65.1775 133.348 64.7308 133.363 64.0959C133.376 63.465 133.384 62.6632 133.384 61.7146C133.384 56.8659 133.177 48.1774 132.428 39.4158C132.053 35.0347 131.542 30.6369 130.85 26.6828C130.325 23.2202 129.417 19.8267 128.143 16.5644L128.142 16.5605C127.764 15.7663 127.117 15.1323 126.314 14.7719C125.58 14.4179 124.775 14.2329 123.96 14.2304C123.224 14.2115 122.498 14.4062 121.87 14.7909C121.374 15.1265 120.915 15.5141 120.501 15.9471C118.279 18.3259 116.78 21.2873 116.177 24.4859L116.177 24.4884C116.013 25.383 115.898 26.2858 115.832 27.1929C115.806 27.4965 115.781 27.8187 115.757 28.1527C113.81 26.2741 111.67 24.606 109.373 23.1761C100.592 17.6884 88.3484 14.5605 71.5799 14.5597C56.2412 14.5609 44.9266 17.1768 36.6492 21.8371C30.1265 25.4292 24.8983 30.9812 21.7042 37.7077C20.6484 34.1383 19.4945 30.5851 18.2719 27.3293C16.9596 23.5426 15.2101 19.9218 13.0589 16.5405C12.6528 15.9773 12.0874 15.5484 11.4356 15.309C10.3283 14.8961 9.11575 14.8601 7.9859 15.2065C7.45284 15.3667 6.96459 15.6492 6.56006 16.0315L6.55554 16.036C6.13754 16.4658 5.76574 16.9383 5.44623 17.4456C3.74378 20.2193 2.86421 23.4195 2.9099 26.6737L2.90966 26.7222C2.91027 27.085 2.93273 27.5103 2.97051 27.9856C2.95857 28.1295 2.97148 28.2745 3.00866 28.414C3.05022 28.859 3.10113 29.3356 3.16619 29.8676C3.72982 34.4408 5.1365 42.142 6.57381 49.4418C8.01155 56.7401 9.47451 63.6006 10.1552 66.4612L10.155 66.4608C10.3428 67.4433 10.7023 68.3851 11.2172 69.2428C11.4233 69.5589 11.6936 69.8281 12.0105 70.033C12.1269 70.1002 12.25 70.1548 12.3779 70.1961C12.3679 70.3097 12.3591 70.4242 12.3505 70.5391C12.3373 70.717 12.3179 70.8891 12.3082 71.0701C12.285 71.5019 12.2748 71.9441 12.2722 72.3912C12.2718 72.4467 12.2677 72.4995 12.2677 72.5552C12.2677 73.336 12.2997 74.1373 12.3663 74.951H12.3663L12.3663 74.9515V74.9517C12.3713 75.0124 12.3791 75.0706 12.3845 75.131C12.5605 77.6933 13.1779 80.2059 14.2094 82.5581C14.5045 83.1889 14.8655 83.7868 15.2864 84.3417C15.4734 84.5895 15.6777 84.8237 15.8979 85.0425C16.0711 85.2097 16.2566 85.3638 16.4527 85.5034C16.4853 85.54 16.52 85.5746 16.5568 85.6069C17.509 86.2291 18.4931 86.8012 19.505 87.3209C19.6008 87.3697 19.7007 87.4142 19.7977 87.4622C22.3795 95.1185 27.589 101.613 34.5025 105.795C41.5286 110.092 50.9872 112.781 63.59 113.565V116.048C62.97 116.135 62.3547 116.235 61.749 116.357C59.427 116.479 57.3266 116.669 55.5846 116.942C54.7871 117.061 53.9967 117.224 53.2169 117.43C52.5866 117.588 51.9783 117.824 51.4061 118.131C50.2869 118.798 49.2818 119.639 48.4289 120.623C48.2401 120.417 48.0223 120.239 47.7823 120.095C47.4258 119.89 47.0319 119.76 46.624 119.71L46.6152 119.709C46.3078 119.672 45.9983 119.654 45.6887 119.654C43.8667 119.687 42.0977 120.272 40.6155 121.332C38.2089 122.975 36.0585 125.727 34.295 129.554C32.2586 134.264 30.9455 139.255 30.4 144.357L30.3996 144.36C30.3623 144.65 30.3429 144.942 30.3414 145.234C30.3371 145.655 30.3926 146.074 30.5064 146.479C30.6931 147.117 31.0505 147.691 31.54 148.141C31.6472 148.241 31.779 148.319 31.8962 148.409C31.1955 148.852 30.6344 149.484 30.2776 150.232L30.2768 150.234C30.0178 150.873 29.8287 151.538 29.7128 152.217C29.3189 154.813 29.1454 157.438 29.1944 160.063C29.1946 163.918 29.4219 167.339 29.4228 167.356L29.4244 167.356C29.4293 168.351 29.713 169.325 30.2433 170.167C30.8175 171.008 31.7003 171.588 32.7001 171.782C32.8642 171.816 33.0441 171.848 33.2239 171.88C33.2558 172.311 33.3093 172.781 33.3927 173.334C33.5644 174.455 33.8199 175.781 34.0635 176.926C34.1854 177.498 34.3041 178.023 34.4089 178.455C34.5159 178.893 34.5991 179.214 34.6861 179.473C34.9136 180.078 35.2671 180.629 35.7231 181.088C36.3689 181.742 37.0854 182.322 37.8594 182.817C38.581 183.296 39.2633 183.686 39.6775 183.931C40.2017 184.215 40.7922 184.354 41.3879 184.332C42.1789 184.31 42.9641 184.19 43.7254 183.974C43.7602 183.965 43.7877 183.956 43.8214 183.947C44.0743 185.168 44.4725 186.355 45.0077 187.482C45.0867 187.633 45.1948 187.767 45.3257 187.877C45.4566 187.986 45.6079 188.069 45.7708 188.12C45.9336 188.171 46.105 188.19 46.275 188.175C46.4451 188.16 46.6105 188.111 46.7618 188.032C46.9132 187.953 47.0474 187.845 47.157 187.714C47.2666 187.583 47.3493 187.432 47.4004 187.269C47.4515 187.106 47.4701 186.935 47.455 186.765C47.4399 186.595 47.3914 186.429 47.3124 186.278C46.8591 185.294 46.5239 184.26 46.3137 183.197C45.9958 181.805 45.7108 180.097 45.4701 178.169L45.4696 178.165L45.4695 178.165V178.164L45.4694 178.164C45.3866 177.516 45.3101 176.836 45.2373 176.14C45.5115 176.216 45.7976 176.288 46.0813 176.36C46.0969 176.364 46.1082 176.376 46.1241 176.379C46.1558 176.386 46.1862 176.388 46.2178 176.395C49.4986 177.178 52.8314 177.723 56.1904 178.028C60.8208 178.492 65.8746 178.694 70.8788 178.694C77.345 178.709 83.807 178.364 90.2346 177.658L90.2509 177.657L90.253 177.656C90.2916 177.651 90.3335 177.648 90.3719 177.643C92.7429 177.384 95.0985 176.999 97.4286 176.489C98.2428 176.307 99.0455 176.077 99.8329 175.801C99.726 179.816 99.4831 183.53 99.0804 186.696C99.0369 187.038 99.1311 187.383 99.3422 187.656C99.5533 187.928 99.864 188.106 100.206 188.15C100.548 188.193 100.893 188.099 101.166 187.888C101.439 187.677 101.616 187.366 101.66 187.024L101.66 187.024C102.266 181.671 102.546 176.287 102.498 170.9C102.498 170.138 102.486 169.359 102.477 168.585C102.63 168.83 102.776 169.09 102.931 169.323C103.603 170.37 104.391 171.337 105.28 172.206C106.276 173.156 107.389 173.975 108.592 174.645C110.008 175.443 111.601 175.876 113.227 175.902C114.093 175.898 114.954 175.76 115.778 175.494C115.875 175.577 115.973 175.654 116.073 175.727C116.506 176.022 116.978 176.256 117.475 176.422C117.994 176.608 118.541 176.708 119.092 176.719C119.422 176.721 119.751 176.666 120.062 176.555C120.503 176.847 120.996 177.053 121.515 177.161C121.968 177.257 122.43 177.307 122.893 177.309C123.467 177.32 124.038 177.219 124.573 177.01L124.577 177.009C124.787 176.918 124.978 176.787 125.138 176.622C125.322 176.428 125.481 176.212 125.611 175.978C125.635 175.991 125.655 176.003 125.68 176.016C126.009 176.193 126.346 176.353 126.692 176.495C127.071 176.656 127.468 176.773 127.874 176.844C128.02 176.866 128.168 176.877 128.315 176.876C128.643 176.869 128.97 176.829 129.289 176.756C131.09 177.539 132.945 178.19 134.84 178.705L134.845 178.706C135.24 178.811 135.648 178.863 136.058 178.863C136.845 178.851 137.621 178.672 138.334 178.337C138.817 178.526 139.33 178.624 139.848 178.629C139.956 178.629 140.065 178.624 140.174 178.615C141.644 178.451 143.062 177.98 144.338 177.233C144.753 177.005 145.159 176.755 145.56 176.496C145.16 179.929 144.943 183.381 144.91 186.836C144.906 187.181 145.04 187.513 145.281 187.76C145.522 188.006 145.852 188.146 146.196 188.15C146.541 188.154 146.873 188.02 147.12 187.779C147.366 187.538 147.506 187.208 147.51 186.864H147.51C147.544 182.518 147.889 178.18 148.544 173.883C148.72 172.788 148.916 171.75 149.122 170.771C149.4 169.442 149.748 168.13 150.165 166.838C150.172 166.819 150.186 166.804 150.192 166.784C150.311 166.398 150.437 166.047 150.57 165.731L150.571 165.729C150.676 165.474 150.761 165.261 150.834 165.11L150.842 165.091C151.182 164.374 151.776 163.81 152.509 163.509C153.468 163.109 154.488 162.875 155.525 162.815C156 162.773 156.51 162.737 157.044 162.705C157.083 162.756 157.126 162.804 157.172 162.848C158.758 164.209 160.783 164.953 162.873 164.942C164.038 164.939 165.193 164.729 166.285 164.324C167.171 164.013 167.992 163.541 168.708 162.933C168.748 162.891 168.786 162.846 168.82 162.798C169.38 162.839 169.934 162.882 170.455 162.934C171.7 163.058 172.82 163.214 173.719 163.396C174.361 163.502 174.987 163.689 175.582 163.954C175.688 164.015 175.788 164.087 175.88 164.169C175.618 164.427 175.391 164.719 175.204 165.036C174.655 166.064 174.387 167.218 174.427 168.383C174.427 168.595 174.434 168.813 174.447 169.036C174.545 171.156 174.987 173.246 175.755 175.225C176.234 176.459 176.93 177.598 177.808 178.589C177.735 178.669 177.659 178.745 177.592 178.832C177.101 179.466 176.806 180.231 176.745 181.031C176.662 181.981 176.506 184.311 176.505 185.991C176.506 186.428 176.515 186.82 176.545 187.164C176.56 187.334 176.609 187.5 176.688 187.651C176.767 187.802 176.875 187.937 177.006 188.046C177.137 188.156 177.288 188.239 177.451 188.29C177.613 188.341 177.785 188.36 177.955 188.345C178.125 188.33 178.29 188.281 178.442 188.202C178.593 188.123 178.727 188.015 178.837 187.885C178.947 187.754 179.029 187.603 179.081 187.44C179.132 187.277 179.15 187.105 179.135 186.935H179.135C179.116 186.722 179.105 186.382 179.105 185.991C179.104 184.464 179.258 182.119 179.335 181.254L179.336 181.249C179.354 180.95 179.462 180.663 179.646 180.426C179.737 180.311 179.842 180.208 179.959 180.119C180.625 180.386 181.337 180.524 182.055 180.525C183.011 180.514 183.952 180.289 184.811 179.868C185.033 179.966 185.244 180.087 185.441 180.23C185.669 180.391 185.852 180.608 185.973 180.86L185.972 180.86C186.01 180.986 186.089 181.369 186.164 181.836C186.397 183.255 186.666 185.613 186.752 187.03C186.774 187.374 186.931 187.695 187.189 187.923C187.448 188.151 187.786 188.267 188.13 188.246C188.473 188.225 188.795 188.068 189.023 187.81C189.252 187.552 189.368 187.214 189.347 186.87C189.279 185.767 189.122 184.256 188.948 182.919C188.86 182.25 188.769 181.628 188.68 181.118C188.635 180.862 188.591 180.634 188.545 180.432C188.502 180.23 188.443 180.032 188.366 179.84L188.363 179.833C188.065 179.17 187.603 178.595 187.019 178.163L187.014 178.16C187.673 177.36 188.068 176.376 188.146 175.343C188.163 175.079 188.171 174.818 188.171 174.562C188.161 172.831 187.799 171.121 187.107 169.535C186.537 168.241 185.83 167.012 184.999 165.869C184.331 164.962 183.459 164.225 182.453 163.718C181.438 163.175 180.308 162.88 179.157 162.859C178.861 162.859 178.566 162.883 178.275 162.931C177.878 162.419 177.384 161.99 176.822 161.668L176.814 161.664C176.06 161.301 175.261 161.042 174.439 160.893C177.853 160.179 181.095 158.802 183.98 156.842C186.177 155.275 188.031 153.276 189.428 150.968C190.825 148.659 191.736 146.09 192.106 143.417C192.108 143.405 192.103 143.394 192.104 143.382C192.114 143.37 192.129 143.365 192.139 143.353C192.64 142.662 192.99 141.873 193.168 141.037C193.383 140.126 193.508 139.196 193.539 138.26C194.036 138.042 194.482 137.721 194.847 137.32C195.365 136.737 195.73 136.035 195.909 135.277C196.195 134.149 196.659 131.825 197.065 129.374C197.267 128.151 197.453 126.905 197.589 125.773C197.72 124.797 197.795 123.814 197.815 122.829L197.815 122.811V122.808C197.865 121.23 197.649 119.655 197.176 118.148C196.982 117.57 196.664 117.041 196.246 116.597ZM128.772 170.441C128.667 170.421 128.285 170.339 127.951 170.26C127.773 170.218 127.601 170.175 127.485 170.143L127.451 170.133L127.45 170.129C127.447 170.106 127.438 170.078 127.433 170.054C127.427 170.028 127.422 170.003 127.415 169.978C127.41 169.96 127.409 169.944 127.403 169.926C127.363 169.754 127.296 169.588 127.205 169.436C127.005 169.13 126.732 168.879 126.411 168.703C126.028 168.49 125.618 168.332 125.191 168.234C124.779 168.132 124.356 168.078 123.931 168.074C123.531 168.06 123.134 168.143 122.772 168.313L122.77 168.314C122.712 168.345 122.678 168.376 122.63 168.407C123.009 167.998 123.463 167.666 123.968 167.428C124.513 167.179 125.1 167.033 125.699 166.999L125.704 166.999C125.825 166.991 125.947 166.981 126.067 166.981C126.889 166.97 127.701 167.16 128.433 167.533C128.7 167.684 128.932 167.89 129.114 168.137C129.376 168.507 129.558 168.928 129.649 169.372C129.718 169.684 129.757 170.001 129.763 170.32C129.45 170.382 129.132 170.423 128.813 170.442L128.772 170.441ZM126.274 163.559C125.836 163.809 125.428 164.108 125.06 164.453C124.301 164.544 123.56 164.753 122.866 165.072C121.893 165.537 121.04 166.218 120.371 167.063C120.102 167.011 119.829 166.985 119.555 166.984C118.914 166.982 118.277 167.098 117.678 167.327C117.345 167.454 117.033 167.632 116.755 167.854C116.427 168.115 116.17 168.453 116.007 168.838L117.209 169.334L116.007 168.838C115.709 169.625 115.493 170.441 115.366 171.274C114.903 170.604 114.638 169.819 114.599 169.006C114.599 168.528 114.728 168.059 114.971 167.647C115.336 167.056 115.828 166.553 116.41 166.175C116.618 166.033 116.833 165.904 117.056 165.788L117.238 165.699L117.278 165.681L117.279 165.68C117.501 165.588 117.694 165.435 117.835 165.239C118.245 164.584 118.822 164.05 119.507 163.693C120.192 163.337 120.961 163.169 121.732 163.209C122.646 163.206 123.662 163.376 124.732 163.484C125.223 163.532 125.745 163.55 126.274 163.559ZM98.0268 123.314C98.1929 123.298 98.3577 123.29 98.5211 123.29C100.201 123.369 101.793 124.062 102.997 125.237C105.444 127.622 107.336 130.517 108.539 133.716C109.837 136.762 110.645 139.993 110.932 143.291L110.932 143.295C110.965 143.867 110.981 144.413 110.981 144.934C110.986 145.929 110.912 146.923 110.762 147.907C110.574 147.802 110.386 147.697 110.194 147.6C109.918 146.643 109.383 145.78 108.648 145.108C107.913 144.435 107.007 143.978 106.029 143.786C105.65 143.708 105.264 143.668 104.877 143.668C103.656 143.666 102.468 144.067 101.498 144.809C100.519 145.557 99.8354 146.628 99.5702 147.832C99.4926 148.188 99.4535 148.55 99.4536 148.914C99.4536 149.05 99.4647 149.184 99.4753 149.318C99.1932 149.641 98.9418 149.989 98.7245 150.359C97.9149 148.838 97.3548 147.197 97.0655 145.499L97.0652 145.498C96.1458 140.904 95.6729 136.233 95.6531 131.548C95.653 129.499 95.7574 127.94 95.8531 127.013L95.8537 127.008C95.8899 126.017 96.1352 125.044 96.5737 124.154C96.7065 123.923 96.8934 123.729 97.1184 123.587C97.3964 123.427 97.7071 123.334 98.0268 123.314ZM130.333 75.8892C129.933 78.114 129.163 80.256 128.055 82.2266C127.706 82.839 127.262 83.3919 126.74 83.8644C126.556 84.0316 126.339 84.1587 126.104 84.2376C127.654 78.9159 128.485 73.4107 128.575 67.8685C128.999 68.0046 129.441 68.0745 129.886 68.0757C130.119 68.0729 130.352 68.0523 130.582 68.0142C130.758 68.9983 130.844 69.9966 130.837 70.9965C130.829 72.6399 130.66 74.2785 130.333 75.8892ZM118.723 25.0131C119.122 23.0012 119.912 21.0873 121.049 19.3805C121.436 18.8056 121.873 18.2662 122.356 17.7689C122.638 17.4717 122.949 17.2045 123.286 16.9713L123.293 16.9672C123.499 16.8642 123.73 16.8171 123.96 16.8306C124.38 16.834 124.795 16.929 125.175 17.109C125.417 17.2044 125.622 17.3764 125.758 17.5989C126.948 20.6742 127.797 23.871 128.289 27.1317C130.315 38.6777 130.787 54.5506 130.784 61.7147C130.784 62.7818 130.774 63.6563 130.757 64.2881C130.749 64.6035 130.739 64.8589 130.729 65.0403C130.724 65.1265 130.719 65.1931 130.715 65.2395C130.652 65.2972 130.577 65.341 130.495 65.3682C130.3 65.441 130.094 65.4775 129.886 65.4758C129.637 65.4796 129.39 65.4248 129.166 65.3159C128.999 65.2367 128.866 65.1028 128.786 64.9366L128.772 64.9066C128.743 64.8486 128.688 64.7405 128.612 64.6083C128.675 58.182 127.824 51.7792 126.085 45.5923C124.527 40.1495 121.843 35.0951 118.205 30.757C118.268 29.4962 118.341 28.3614 118.423 27.4171C118.481 26.6111 118.581 25.8087 118.723 25.0131ZM6.6679 20.7018C6.93301 20.0604 7.25444 19.4439 7.62841 18.8593C7.84609 18.511 8.09828 18.1854 8.38116 17.8876C8.49677 17.792 8.63159 17.7224 8.77648 17.6835C9.33789 17.5184 9.9371 17.5348 10.4886 17.7304C10.657 17.7837 10.8068 17.8838 10.9205 18.019L10.9235 18.0233C12.9496 21.2295 14.5987 24.6588 15.838 28.2433C17.4236 32.4651 18.9098 37.2543 20.2075 41.9187L20.2078 41.9199C21.7396 47.4053 23.015 52.7229 23.9067 56.764C24.3526 58.7842 24.7027 60.4861 24.9405 61.7261C25.0594 62.3456 25.1502 62.8503 25.21 63.2151C25.2399 63.397 25.262 63.5444 25.2755 63.6469L25.2837 63.7163C25.1885 63.8316 25.0663 63.9217 24.928 63.9786C24.6873 64.0907 24.4251 64.1496 24.1595 64.1512C23.9858 64.1543 23.8133 64.1218 23.6526 64.0558C23.5254 64.0023 23.415 63.9153 23.3331 63.8042L23.3384 63.8114C23.1524 63.5685 22.9482 63.3402 22.7275 63.1285C22.2145 62.6225 21.6399 62.1831 21.0172 61.8206C20.2206 61.3404 19.3125 61.0764 18.3827 61.0547C18.1673 61.055 17.9523 61.0719 17.7396 61.1053L17.7394 61.1042L17.732 61.1059L17.7253 61.1064L17.7254 61.1074C16.8697 61.2438 16.0756 61.6369 15.4483 62.2347C15.3888 62.3007 15.3366 62.3729 15.2925 62.45C15.1373 62.5766 14.9907 62.7136 14.8539 62.86C14.8417 62.8724 14.8249 62.8769 14.8131 62.8899C14.7867 62.9193 14.7665 62.956 14.7406 62.9861C14.6876 63.0471 14.6287 63.1031 14.5787 63.1662C14.5032 63.2624 14.4412 63.3754 14.3703 63.4772C14.2818 63.6037 14.1923 63.7293 14.1108 63.8644C14.0171 64.02 13.9316 64.1867 13.8464 64.3533C13.7694 64.504 13.6901 64.6525 13.6197 64.812C13.5378 64.9968 13.4645 65.1936 13.3907 65.3897C13.3318 65.5467 13.2699 65.7 13.2158 65.8639C13.1481 66.0689 13.0881 66.2856 13.0275 66.501C12.9996 66.5994 12.9679 66.6918 12.9413 66.7924C12.857 66.5331 12.7696 66.2277 12.6846 65.8595L12.6845 65.8591C12.5389 65.2474 12.3541 64.4363 12.1401 63.4709C12.2208 63.3913 12.2903 63.3011 12.3468 63.2029C13.7829 60.2876 15.2186 57.3722 16.6539 54.4567L16.6522 54.4558C17.5145 52.7821 17.9622 50.9258 17.9575 49.043C17.9593 48.0802 17.8397 47.1211 17.6014 46.1883L17.6013 46.1878C16.3759 41.4467 15.0258 36.9261 13.8308 33.2498C12.6326 29.5672 11.604 26.7581 10.9715 25.3384L10.9718 25.3389C10.5482 24.3314 10.0595 23.3526 9.5089 22.4085C9.31265 22.0802 9.07222 21.7804 8.79436 21.5176C8.46348 21.2059 8.03614 21.0165 7.583 20.9807L7.57824 20.9805L7.4739 20.9774C7.20663 20.9786 6.94266 21.0364 6.69942 21.1472C6.61701 21.1847 6.53687 21.227 6.45942 21.2739C6.52944 21.084 6.59438 20.8775 6.6679 20.7018ZM24.6526 85.2504C24.3888 85.6417 23.9999 85.9318 23.5497 86.0733L23.5445 86.0756C23.1266 86.0145 22.7175 85.9033 22.3262 85.7443C22.1912 85.6939 22.0494 85.6334 21.9086 85.5744C21.7615 85.1256 21.6212 84.6716 21.4878 84.2125C21.552 84.1152 21.6176 84.0193 21.678 83.9172C21.7493 83.7965 21.8132 83.6659 21.8795 83.5388C21.9683 83.3684 22.0575 83.1981 22.1377 83.0164C22.2024 82.8703 22.2612 82.7158 22.3208 82.5627C22.3907 82.3828 22.4602 82.2019 22.5236 82.0125C22.5764 81.8549 22.6255 81.6917 22.674 81.5278C22.7097 81.4076 22.7507 81.2954 22.7844 81.1718C22.807 81.0878 22.8238 80.9958 22.8454 80.9104C22.8646 80.8347 22.8884 80.7659 22.9068 80.6891C22.9307 80.5885 22.9476 80.4787 22.97 80.3763C23.0168 80.1632 23.0607 79.9475 23.1012 79.7265C23.136 79.537 23.1683 79.3454 23.1985 79.1504C23.2334 78.9247 23.2645 78.6957 23.293 78.4631C23.3182 78.2581 23.3419 78.0526 23.3622 77.8426C23.3846 77.6099 23.4024 77.3734 23.4186 77.1349C23.4336 76.9161 23.448 76.6976 23.4577 76.4742C23.4612 76.3924 23.4692 76.3142 23.472 76.2318C23.4725 76.2171 23.465 76.2048 23.465 76.1902C23.475 75.8855 23.4889 75.5836 23.4889 75.2719C23.4889 74.4916 23.457 73.6911 23.3908 72.8783L23.3907 72.8779C23.2292 70.5157 22.7127 68.1913 21.8586 65.9829C22.0886 66.1667 22.3416 66.3197 22.6111 66.4381C23.1002 66.648 23.6273 66.7545 24.1595 66.7511C24.8002 66.7502 25.433 66.6099 26.0141 66.34C26.4722 68.1333 26.7755 69.9626 26.9205 71.8077L26.9205 71.8073C27.0026 72.8138 27.0421 73.8029 27.0421 74.7621C27.0961 77.5168 26.6996 80.2618 25.8682 82.8886C25.5933 83.7364 25.1828 84.534 24.6526 85.2504ZM15.8327 79.5349C15.4375 78.1873 15.1684 76.806 15.0289 75.4086C15.005 75.1856 14.9763 74.9676 14.9577 74.7395H14.9577V74.7393C14.8969 73.9966 14.8679 73.2656 14.8679 72.5559L14.8681 72.5422C14.8682 72.1258 14.8815 71.7194 14.9013 71.3197C14.9056 71.2323 14.9098 71.1449 14.915 71.0584C14.9385 70.6692 14.9695 70.2877 15.0105 69.9195C15.0172 69.8599 15.0258 69.8033 15.0329 69.7443C15.0713 69.4242 15.1161 69.114 15.1673 68.8137C15.1808 68.7337 15.1934 68.6522 15.2078 68.5737C15.2684 68.2423 15.336 67.9241 15.4107 67.622C15.426 67.5602 15.4425 67.5018 15.4583 67.4413C15.5261 67.1782 15.5994 66.9288 15.6782 66.6931C15.6952 66.6421 15.7108 66.5872 15.7282 66.5375C15.82 66.2754 15.9173 66.0347 16.0172 65.8139C16.0368 65.7708 16.0564 65.7298 16.0762 65.6883C16.1659 65.4962 16.2659 65.309 16.3758 65.1276L16.3967 65.0921C16.4859 64.9495 16.587 64.8147 16.6989 64.6891C16.8418 64.4949 17.04 64.3484 17.2675 64.2685L17.3534 64.2588C17.4412 64.2618 17.5271 64.2849 17.6045 64.3265C17.9525 64.5279 18.249 64.8072 18.4709 65.1425C19.1243 66.1066 19.6152 67.1714 19.924 68.2945C20.3837 69.8577 20.6772 71.4651 20.7995 73.0899L20.7994 73.0895C20.8599 73.832 20.889 74.5627 20.889 75.2719C20.8894 75.5651 20.8845 75.8543 20.8745 76.1397L20.8736 76.1433C20.8565 76.6626 20.8204 77.1653 20.7719 77.6521C20.7683 77.689 20.7658 77.7275 20.7619 77.7642C20.7134 78.2278 20.6497 78.6711 20.576 79.0957C20.5675 79.1447 20.5598 79.1953 20.551 79.2438C20.4764 79.6533 20.3899 80.0392 20.2946 80.4029C20.281 80.4548 20.2677 80.5076 20.2536 80.5585C20.1574 80.9091 20.0524 81.2334 19.9388 81.5316C19.9114 81.6041 19.8841 81.6765 19.856 81.7455C19.8252 81.8211 19.7943 81.895 19.7628 81.9662C19.7228 82.0562 19.6824 82.1417 19.6415 82.2245C19.6107 82.2869 19.58 82.3492 19.5488 82.4074C19.5081 82.4836 19.4672 82.5538 19.4262 82.6226C19.3943 82.6761 19.3624 82.7304 19.3306 82.7793C19.2873 82.8455 19.2445 82.9044 19.2018 82.9617C19.1736 82.9997 19.1452 83.0402 19.1174 83.0741C19.0716 83.1301 19.0286 83.1761 18.9862 83.2205C18.9626 83.2451 18.9377 83.2739 18.9154 83.2951C18.8756 83.3326 18.8338 83.3678 18.7902 83.4007C18.7744 83.4129 18.7567 83.4292 18.7418 83.4396C18.7027 83.4669 18.6616 83.4912 18.6189 83.5122L18.5987 83.5236C18.5639 83.54 18.5273 83.5525 18.4897 83.5607L18.4035 83.5704C18.3155 83.5674 18.2295 83.5442 18.1519 83.5026C17.8038 83.3013 17.5072 83.022 17.2853 82.6866C17.2348 82.6188 17.1839 82.5292 17.1331 82.4533C16.5622 81.5478 16.1242 80.565 15.8327 79.5349ZM6.40366 34.0573C6.1274 32.3444 5.9019 30.8109 5.74673 29.55C5.67935 29.0059 5.6285 28.522 5.58938 28.0882C5.80593 27.3363 6.06069 26.596 6.35269 25.8702C6.56171 25.3437 6.81062 24.8339 7.09726 24.3453C7.1849 24.1984 7.28155 24.0571 7.38663 23.9221C7.44803 24.0245 7.51395 24.1396 7.58487 24.2741C7.84964 24.7667 8.18326 25.4698 8.59738 26.3984L8.59762 26.3989C9.14919 27.6301 10.1821 30.4323 11.3582 34.0537C12.5375 37.6816 13.8743 42.1578 15.084 46.8385L15.0839 46.8381C15.2674 47.5587 15.3593 48.2996 15.3574 49.0431C15.3626 50.5153 15.0129 51.967 14.3381 53.2754L14.3214 53.3081L11.2789 59.4861C10.4543 55.5956 9.4519 50.68 8.51534 45.8089C7.71169 41.6298 6.95626 37.484 6.40365 34.0573H6.40366ZM23.0426 88.6148C23.1372 88.6293 23.2302 88.6583 23.3256 88.6675C23.4808 88.6791 23.6368 88.6623 23.7859 88.618C23.8938 88.6301 24.0028 88.6282 24.1102 88.6122C25.1434 88.3462 26.0529 87.7315 26.685 86.872C27.7717 85.3601 28.5228 83.6333 28.8877 81.8074C29.4085 79.4957 29.6616 77.1317 29.642 74.7621C29.642 73.7317 29.5997 72.6727 29.5119 71.5959L29.5119 71.5956C29.3243 69.0912 28.8543 66.6161 28.1107 64.2174C28.0606 64.0703 27.9841 63.9335 27.8851 63.8138C27.8856 63.7938 27.8898 63.775 27.8898 63.7549L27.8897 63.7241V63.7247C27.8856 63.5851 27.8734 63.4458 27.8532 63.3076C27.7829 62.7781 27.6126 61.8248 27.3453 60.4749C26.5597 56.5157 24.9479 49.2863 22.8291 41.645C25.5911 34.1743 30.9498 27.9473 37.9254 24.1025C45.6681 19.7378 56.5284 17.1587 71.58 17.1599C82.5477 17.1594 91.4281 18.5276 98.558 20.9639C109.254 24.629 116.02 30.6316 120.226 38.2212C124.425 45.8131 126.021 55.0745 126.02 65.1499C126.135 71.4048 125.31 77.6415 123.572 83.6512C121.153 92.0743 115.547 99.2237 107.944 103.583C99.7193 108.397 87.9779 111.212 71.58 111.21C55.1622 111.212 43.7117 108.389 35.8598 103.578C30.0827 100.106 25.5857 94.8565 23.0426 88.6148ZM71.58 113.81C73.9813 113.81 76.2715 113.74 78.4899 113.623V117.75C78.4925 117.969 78.5513 118.183 78.6606 118.373C78.7699 118.563 78.9259 118.721 79.114 118.833C78.8027 118.972 78.4814 119.106 78.1432 119.23C76.2205 119.943 74.1875 120.311 72.1372 120.319C69.7894 120.327 67.4732 119.78 65.3773 118.722C65.6171 118.625 65.8226 118.459 65.9674 118.245C66.1122 118.031 66.1897 117.778 66.1901 117.52H66.19V113.699C67.932 113.769 69.7218 113.81 71.58 113.81H71.58ZM32.98 144.681C33.96 136.896 35.9833 131.177 38.3662 127.498C39.3257 125.927 40.5875 124.562 42.0784 123.482C43.1292 122.715 44.3885 122.287 45.6887 122.254C45.8928 122.254 46.0967 122.266 46.2994 122.29C46.362 122.296 46.4229 122.314 46.4784 122.344C46.5588 122.397 46.622 122.472 46.6604 122.561C46.7044 122.647 46.7404 122.738 46.7678 122.831C46.2465 123.678 45.8075 124.572 45.4568 125.502C44.7157 125.955 44.0831 126.566 43.6039 127.291C43.1247 128.015 42.8105 128.837 42.6835 129.696C42.5565 130.555 42.6199 131.432 42.869 132.265C43.1182 133.097 43.5471 133.864 44.1254 134.513C44.0541 135.509 43.9273 136.501 43.7455 137.483L43.7447 137.488C43.0982 140.945 42.6515 144.437 42.4067 147.946C42.2522 147.955 42.0749 147.961 41.8608 147.961C40.5183 147.942 39.1784 147.84 37.8486 147.654C37.3748 147.59 36.921 147.514 36.4851 147.433L36.4785 147.431C36.2474 147.388 36.0127 147.346 35.8018 147.299C35.3159 147.2 34.8396 147.059 34.3784 146.878C33.9138 146.715 33.4967 146.44 33.1647 146.076C33.0908 145.98 33.0359 145.87 33.0029 145.753C32.9581 145.584 32.9374 145.409 32.9414 145.234C32.943 145.049 32.9559 144.864 32.9799 144.681H32.98ZM41.9415 150.56C41.9062 150.591 41.8741 150.623 41.8359 150.654C41.5211 150.925 41.135 151.1 40.7234 151.158L40.5201 151.17C39.8956 151.143 39.3008 150.896 38.8421 150.471C38.8106 150.444 38.7823 150.408 38.7513 150.379C39.8935 150.497 40.9921 150.559 41.8609 150.561C41.8892 150.561 41.9136 150.56 41.9414 150.56H41.9415ZM32.3962 168.709C32.1364 168.259 32.006 167.746 32.0194 167.226L32.0173 167.184C32.0173 167.183 32.0037 166.98 31.9828 166.606C31.9202 165.487 31.7944 162.878 31.7945 160.063C31.7943 158.297 31.8444 156.448 31.9863 154.851C32.0569 154.053 32.1508 153.319 32.2679 152.699C32.3493 152.209 32.4817 151.729 32.663 151.267C32.8421 150.952 33.1029 150.691 33.418 150.513C33.9084 150.204 34.4486 149.982 35.0147 149.858C35.0527 149.843 35.09 149.827 35.1264 149.808C35.165 149.817 35.1983 149.828 35.2374 149.837C35.2694 149.844 35.3042 149.85 35.3365 149.857C35.725 150.849 36.3447 151.735 37.1442 152.44C38.0741 153.273 39.2719 153.745 40.5201 153.77C40.6857 153.77 40.8511 153.761 41.0156 153.742C41.3825 153.696 41.742 153.604 42.0855 153.467C41.9877 155.889 41.9224 158.336 41.9224 160.774C41.9224 163.817 42.0005 166.814 42.1434 169.661C41.3011 169.749 40.4547 169.79 39.6079 169.786C37.4728 169.796 35.3411 169.613 33.2391 169.238C33.0696 169.213 32.9072 169.153 32.7621 169.062C32.6171 168.971 32.4925 168.85 32.3962 168.709L32.3962 168.709ZM41.3879 181.732C41.2793 181.734 41.1707 181.725 41.0636 181.706L40.9944 181.689L40.9907 181.687C40.1926 181.236 39.4184 180.745 38.6713 180.213C38.2941 179.942 37.9412 179.638 37.6166 179.305C37.4175 179.114 37.2579 178.885 37.1466 178.632L37.1464 178.631C37.1294 178.583 37.081 178.418 37.0265 178.206C36.8303 177.448 36.5158 176.019 36.2563 174.64C36.1262 173.949 36.0089 173.267 35.925 172.686C35.9008 172.521 35.8805 172.366 35.8625 172.218C37.0653 172.324 38.3618 172.384 39.6079 172.386C40.5055 172.388 41.4025 172.346 42.2958 172.258C42.4142 173.978 42.5603 175.616 42.7326 177.15C42.6246 177.153 42.5163 177.158 42.4115 177.157C42.1383 177.162 41.8653 177.14 41.5963 177.093C41.422 176.587 41.2061 175.927 41.0216 175.353C40.7971 174.655 40.6214 174.093 40.621 174.092C40.5174 173.764 40.2879 173.49 39.9827 173.331C39.6776 173.171 39.3217 173.14 38.9932 173.242C38.6647 173.345 38.3903 173.574 38.2303 173.879C38.0703 174.183 38.0376 174.539 38.1395 174.868V174.868C38.1427 174.877 38.8482 177.136 39.2557 178.278L39.2575 178.283C39.3998 178.665 39.6599 178.992 40.0003 179.217C40.3747 179.455 40.7958 179.61 41.2353 179.672C41.6243 179.732 42.0177 179.761 42.4115 179.757C42.6319 179.757 42.8472 179.749 43.0577 179.738C43.1385 180.309 43.2231 180.862 43.3124 181.39C43.202 181.422 43.0821 181.455 42.9554 181.488C42.4441 181.63 41.9181 181.712 41.3879 181.732L41.3879 181.732ZM56.4493 175.441C55.3114 175.328 54.2027 175.197 53.131 175.051C54.5479 174.278 55.8936 173.386 57.3858 172.649C59.4532 171.575 61.7497 171.016 64.0795 171.021C65.9518 171.051 67.8068 171.385 69.572 172.01C72.3014 172.914 75.0563 174.325 78.055 175.544C78.3683 175.671 78.6864 175.794 79.0058 175.916C76.3663 176.031 73.6292 176.094 70.8788 176.094C65.9453 176.094 60.9681 175.894 56.4493 175.441L56.4493 175.441ZM99.0083 173.337C97.5821 173.812 96.1191 174.168 94.6343 174.402C93.259 174.646 91.685 174.871 89.9644 175.072C89.3248 175.142 88.6819 175.176 88.0385 175.177C83.7231 175.18 79.983 173.601 76.1847 171.911C74.2883 171.069 72.3845 170.206 70.3918 169.543C68.3623 168.83 66.2304 168.451 64.0795 168.421C60.5976 168.463 57.199 169.491 54.2773 171.385C53.058 172.098 51.9811 172.775 50.9679 173.247C50.0512 173.715 49.0408 173.971 48.0118 173.995C47.6036 173.993 47.1968 173.947 46.798 173.86C46.1634 173.7 45.555 173.532 44.9839 173.353C44.9152 172.484 44.8511 171.599 44.7976 170.684L44.7977 170.685C44.6168 167.555 44.5223 164.188 44.5223 160.774C44.5223 157.461 44.6118 154.104 44.7963 150.876C44.7978 150.859 44.8073 150.845 44.8083 150.828C44.8373 150.273 44.8767 149.712 44.9166 149.153L44.9168 149.151C45.1484 145.407 45.6087 141.681 46.2951 137.993L46.2942 137.997C46.5242 136.741 46.6797 135.472 46.7599 134.198L46.776 134.079C46.8722 132.817 46.9422 131.567 47.048 130.433C47.1194 129.451 47.2747 128.476 47.5121 127.52L47.5187 127.495C47.5712 127.291 47.6464 127.07 47.7327 126.832L47.7414 126.807C48.105 125.742 48.6056 124.728 49.2306 123.792C50.1146 122.414 51.2969 121.252 52.6902 120.392L52.6976 120.387C53.08 120.191 53.4844 120.04 53.9023 119.938C56.2525 119.407 58.6466 119.093 61.0542 119.001C64.1832 121.551 68.1005 122.936 72.1371 122.919C74.4954 122.911 76.834 122.488 79.0454 121.669C80.6015 121.112 82.061 120.316 83.371 119.309C85.6773 119.495 87.77 119.726 89.4534 119.994C90.3561 120.137 91.144 120.291 91.7799 120.447C92.2528 120.552 92.7148 120.702 93.1597 120.893L93.1649 120.896L93.2032 120.921C93.4414 121.14 93.6383 121.399 93.7846 121.687C93.9934 122.062 94.1781 122.449 94.3376 122.847C94.1748 123.113 94.0347 123.392 93.9189 123.682C93.5628 124.67 93.3432 125.702 93.2664 126.75C93.1608 127.776 93.0531 129.412 93.0529 131.548C93.0726 136.402 93.5621 141.243 94.5145 146.002L94.5143 146.001C94.9078 148.738 96.0323 151.318 97.7691 153.469C97.7407 153.786 97.7265 154.103 97.7265 154.421C97.7545 155.695 97.8948 156.964 98.1457 158.213C98.5082 159.966 99.0515 161.677 99.7669 163.317C99.8515 165.888 99.898 168.431 99.898 170.9C99.8981 171.585 99.8944 172.264 99.8869 172.936C99.6074 173.097 99.3132 173.231 99.0083 173.337L99.0083 173.337ZM109.828 172.357C108.821 171.794 107.89 171.105 107.056 170.307C106.315 169.574 105.657 168.761 105.096 167.883C104.016 166.226 103.084 164.478 102.309 162.66C102.293 162.625 102.281 162.591 102.266 162.555C102.257 162.53 102.248 162.507 102.237 162.482C101.563 160.963 101.05 159.378 100.705 157.752C100.482 156.655 100.356 155.54 100.327 154.421C100.26 153.434 100.493 152.45 100.996 151.598C101.499 150.746 102.248 150.067 103.144 149.649C103.442 149.484 103.755 149.348 104.079 149.245L105.707 149.002C106.829 149.052 107.927 149.347 108.922 149.866C110.756 150.836 112.425 152.09 113.867 153.581C115.18 154.891 116.386 156.303 117.474 157.805C118.205 158.799 118.874 159.838 119.476 160.915C119.188 161 118.907 161.104 118.634 161.228C118.159 161.45 117.713 161.729 117.304 162.058C117.215 162.013 117.12 161.98 117.022 161.958C115.644 161.743 114.234 162.023 113.043 162.749C111.852 163.475 110.956 164.6 110.516 165.924C110.076 167.247 110.119 168.684 110.638 169.979C111.157 171.274 112.118 172.343 113.35 172.996C113.365 173.004 113.381 173.005 113.396 173.012C113.458 173.103 113.518 173.194 113.585 173.286C113.465 173.294 113.345 173.302 113.227 173.302C112.033 173.275 110.865 172.95 109.828 172.357L109.828 172.357ZM117.665 173.66C117.708 173.238 117.77 172.682 117.863 172.091C117.964 171.336 118.143 170.593 118.395 169.875C118.508 169.791 118.636 169.73 118.773 169.696C118.992 169.634 119.218 169.599 119.445 169.592C119.437 169.725 119.429 169.865 119.418 170.017C119.366 170.765 119.277 171.719 119.168 172.58C119.114 173.01 119.054 173.417 118.994 173.757C118.972 173.884 118.949 173.999 118.926 174.105C118.559 174.053 118.202 173.942 117.87 173.776C117.8 173.741 117.731 173.702 117.665 173.66V173.66ZM123.446 174.525C123.417 174.581 123.391 174.625 123.366 174.667C123.21 174.697 123.052 174.711 122.893 174.709C122.607 174.707 122.322 174.675 122.042 174.615C121.854 174.576 121.676 174.503 121.516 174.398C121.524 174.355 121.532 174.307 121.54 174.263C121.827 174.246 122.1 174.133 122.316 173.943C122.531 173.752 122.676 173.494 122.727 173.211H122.727C122.777 173.012 122.843 172.817 122.924 172.628C123.128 172.126 123.368 171.64 123.642 171.172C123.741 171 123.851 170.834 123.971 170.676C124.235 170.688 124.496 170.733 124.749 170.81C124.533 171.657 124.271 172.493 123.966 173.313C123.816 173.726 123.643 174.131 123.446 174.525V174.525ZM127.671 174.087C127.313 173.936 126.966 173.764 126.63 173.57C126.735 173.265 126.828 172.976 126.918 172.682L126.989 172.701C127.249 172.767 127.555 172.838 127.818 172.896C127.95 172.925 128.069 172.951 128.168 172.971L128.304 172.998L128.455 173.022L128.46 173.023C128.578 173.036 128.695 173.042 128.813 173.042C129.275 173.026 129.736 172.973 130.19 172.885C130.554 172.816 130.923 172.775 131.294 172.762C131.427 172.756 131.56 172.772 131.688 172.81L131.705 172.82C131.715 172.879 131.72 172.939 131.719 172.999C131.72 173.087 131.711 173.176 131.694 173.263L131.683 173.266C131.178 173.427 130.525 173.687 129.859 173.908C129.53 174.018 129.205 174.116 128.926 174.182C128.726 174.235 128.522 174.266 128.315 174.276L128.281 174.275L128.275 174.275C128.068 174.234 127.865 174.171 127.671 174.087V174.087ZM135.515 176.194C134.805 176.002 134.01 175.757 133.193 175.481C133.341 175.391 133.476 175.281 133.594 175.154C133.869 174.846 134.067 174.478 134.171 174.079C134.27 173.727 134.32 173.364 134.319 172.999C134.321 172.723 134.29 172.448 134.227 172.179C134.157 171.866 134.024 171.57 133.838 171.308C133.524 170.878 133.088 170.552 132.587 170.37C132.51 170.342 132.438 170.336 132.362 170.315C132.354 169.558 132.227 168.807 131.984 168.09C131.802 167.55 131.537 167.042 131.199 166.584C130.908 166.209 130.563 165.879 130.176 165.603C130.282 165.631 130.386 165.657 130.498 165.692C133.092 166.611 135.465 168.065 137.462 169.959C137.965 170.339 138.381 170.821 138.684 171.375C138.987 171.928 139.169 172.539 139.218 173.167C139.21 173.581 139.117 173.989 138.943 174.364C138.769 174.74 138.52 175.076 138.21 175.35C137.628 175.907 136.863 176.232 136.058 176.263C135.875 176.263 135.692 176.24 135.515 176.194V176.194ZM143.089 174.952C142.466 175.3 141.808 175.58 141.125 175.788C141.576 174.988 141.815 174.086 141.818 173.167C141.77 172.177 141.514 171.209 141.066 170.326C140.618 169.442 139.988 168.663 139.217 168.041C139.18 168.007 139.141 167.978 139.104 167.944C140.817 166.791 142.752 166.008 144.785 165.645C145.244 165.55 145.711 165.501 146.18 165.497C146.601 165.496 147.021 165.554 147.426 165.669C147.016 165.942 146.665 166.293 146.393 166.704C146.121 167.115 145.934 167.575 145.843 168.059C145.752 168.543 145.759 169.041 145.864 169.522C145.969 170.003 146.169 170.458 146.453 170.861C146.318 171.534 146.189 172.232 146.066 172.956C145.124 173.694 144.129 174.361 143.089 174.952V174.952ZM189.985 133.759L190.082 133.835L190.102 133.852C190.118 133.87 190.123 133.895 190.141 133.913H190.141C190.229 134.022 190.301 134.143 190.356 134.273C190.783 135.341 190.99 136.484 190.965 137.635L190.961 137.902L190.962 137.901C190.947 138.744 190.841 139.583 190.646 140.404C190.552 140.874 190.371 141.321 190.112 141.724C190.07 141.789 190.034 141.858 190.005 141.931C189.985 141.948 189.96 141.954 189.941 141.973L189.939 141.974C189.673 142.221 189.384 142.442 189.075 142.633C188.682 142.89 188.24 143.063 187.777 143.142C187.701 143.04 187.636 142.93 187.583 142.814C187.332 142.242 187.156 141.64 187.061 141.022C186.915 140.152 186.843 139.271 186.847 138.388C186.847 138.242 186.849 138.093 186.853 137.944C186.861 136.54 187.091 135.147 187.535 133.816C187.654 133.461 187.828 133.127 188.052 132.827L188.097 132.78C188.246 132.8 188.392 132.839 188.531 132.896C188.913 133.055 189.277 133.255 189.616 133.492C189.771 133.597 189.899 133.693 189.985 133.759V133.759ZM139.869 119.952C140.031 119.155 140.345 118.396 140.792 117.716C140.864 117.614 140.954 117.526 141.058 117.457L141.071 117.451L141.19 117.514C141.305 117.601 141.407 117.705 141.491 117.822L141.493 117.823C141.564 117.929 141.628 118.039 141.685 118.153C142.089 119 142.363 119.902 142.496 120.831C141.288 122.004 140.25 123.342 139.415 124.805C139.379 124.868 139.35 124.936 139.315 124.999C139.323 123.302 139.509 121.611 139.869 119.952ZM181.252 166.024C181.889 166.342 182.444 166.801 182.875 167.368C183.599 168.362 184.216 169.43 184.715 170.554C185.27 171.818 185.561 173.181 185.57 174.562C185.57 174.763 185.564 174.968 185.551 175.176C185.51 175.549 185.392 175.91 185.204 176.236C185.016 176.561 184.763 176.844 184.459 177.066C183.775 177.611 182.929 177.913 182.054 177.925C181.301 177.937 180.573 177.659 180.018 177.149L179.832 177.352L179.832 177.352L180.018 177.149C179.198 176.327 178.566 175.337 178.165 174.248C177.503 172.532 177.124 170.72 177.043 168.883C177.032 168.707 177.027 168.541 177.027 168.383C177.016 167.856 177.087 167.33 177.24 166.825C177.356 166.396 177.618 166.021 177.981 165.766C178.334 165.55 178.743 165.444 179.156 165.459C179.889 165.482 180.607 165.675 181.252 166.024V166.024ZM182.475 154.721C178.397 157.619 172.303 159.42 163.641 159.419C159.521 159.512 155.414 158.933 151.482 157.703C147.374 156.483 143.877 153.756 141.693 150.069C139.756 146.375 138.82 142.24 138.976 138.072C138.968 136.131 139.141 134.193 139.492 132.284C139.589 132.082 139.631 131.858 139.613 131.634H139.613L139.611 131.611C139.754 130.949 139.924 130.304 140.12 129.676C141.241 125.829 143.764 122.541 147.19 120.463C150.885 118.195 156.19 116.799 163.641 116.8C170.001 116.799 174.97 117.878 178.768 119.683C182.192 121.235 185.061 123.794 186.994 127.018C187.047 127.092 187.108 127.16 187.177 127.221C187.09 127.533 187.001 127.847 186.932 128.149C186.734 128.957 186.626 129.784 186.608 130.615L186.61 130.645C186.217 130.946 185.888 131.322 185.642 131.751C185.179 132.584 184.847 133.483 184.659 134.417C184.412 135.555 184.276 136.715 184.254 137.879C184.249 138.05 184.247 138.22 184.247 138.389C184.22 139.983 184.441 141.571 184.902 143.097C185.09 143.712 185.384 144.288 185.771 144.801C185.975 145.062 186.225 145.285 186.508 145.458C186.836 145.656 187.212 145.763 187.596 145.765L187.63 145.764L187.639 145.764C188.083 145.746 188.522 145.666 188.944 145.527C187.917 149.248 185.631 152.498 182.475 154.721L182.475 154.721ZM195.008 125.462C194.813 127.081 194.504 129.003 194.195 130.707C193.887 132.408 193.574 133.909 193.389 134.635C193.36 134.746 193.326 134.856 193.285 134.964C193.247 134.788 193.21 134.612 193.166 134.447C193.051 134.008 192.899 133.58 192.71 133.168C192.538 132.784 192.306 132.429 192.022 132.119C191.995 132.09 191.958 132.079 191.928 132.053C191.884 131.984 191.833 131.921 191.776 131.862H191.776C191.412 131.565 191.027 131.293 190.625 131.05C190.258 130.825 189.872 130.632 189.472 130.473C189.393 130.442 189.303 130.422 189.22 130.394C189.28 129.566 189.428 128.747 189.663 127.951C190.167 126.203 190.817 124.5 191.606 122.86C192.205 121.527 192.946 120.263 193.817 119.089C193.985 118.87 194.185 118.678 194.41 118.518L194.454 118.495C194.706 118.888 194.873 119.329 194.946 119.791C195.14 120.786 195.23 121.799 195.215 122.813L195.215 122.829C195.194 123.71 195.125 124.589 195.008 125.462L195.008 125.462Z"/></g></svg>