<svg xmlns="http://www.w3.org/2000/svg" width="200" height="200" fill="none"><path fill="#FFD93A" d="m135.743 110.021-2.636 9.836a2.207 2.207 0 0 1 1.365 2.633l-1.811 6.752c.185.002.369.015.553.038 2.302.335 4.568 5.646 3.548 8.196-1.021 2.551-5.229 2.107-5.229 2.107s.567 1.459-2.348 2.615l-5.091 18.975c23.337-8.368 34.326-27.72 31.819-53.202l-9.413 2.362-10.757-.312Zm-6.366-7.153a47.209 47.209 0 0 0 7.807 1.774l9.149.691 8.964-1.619a47.512 47.512 0 0 0 30.785-24.376 47.506 47.506 0 0 0-9.264-55.909 47.5 47.5 0 0 0-56.206-7.248s-24.78 13.152-24.78 41.652 23.423 42.236 33.545 45.035Zm-37.71-42.535c.555-36.866 23.542-45.867 23.542-45.867a71.774 71.774 0 0 0-18.536-2.31c-36.155 0-56.189 23.354-56.189 49.459 0 8.62 2.265 20.59 5.564 27.4.16.169.33.333.498.499a38.058 38.058 0 0 0-6.396 18.457c-3.065 31.164 13.977 53.816 49.257 57.114a79.588 79.588 0 0 0 17.25 0 90.723 90.723 0 0 0 4.115-.568l6.312-23.524a4.525 4.525 0 0 1-1.363-1.703 1.671 1.671 0 0 1 1.048-2.503s-1.045-.44-1.181-2.764a4.323 4.323 0 0 1 1.437-3.551c.19-2.195 2.128-3.873 3.703-3.061l2.153-8.027a2.203 2.203 0 0 1 2.499-1.598l2.664-9.942c-3.623-.822-36.878-14.344-36.378-47.51Zm20.45-15.632c-3.546-2.965-2.891-9.59 1.463-14.798 4.353-5.208 10.757-7.027 14.303-4.063 3.546 2.965 2.892 9.59-1.462 14.798s-10.758 7.027-14.304 4.063Zm22.815 4.454c-1.865 2.244-4.745 2.927-6.431 1.525-1.686-1.401-1.541-4.357.325-6.601 1.866-2.244 4.745-2.927 6.431-1.526 1.686 1.402 1.541 4.358-.325 6.602Zm35.048 35.497c-1.8-1.253-1.907-4.21-.24-6.605 1.667-2.395 4.478-3.322 6.277-2.07 1.8 1.254 1.907 4.21.24 6.606-1.667 2.395-4.477 3.322-6.277 2.07Z"/><g fill="#191C22"><path d="M73.289 69.925c5.078.307 6.073-16.072-.885-15.785-6.881.284-5.396 15.404.885 15.785Z"/><path d="M197.633 57.615a53.799 53.799 0 0 0-83.62-44.778 73.793 73.793 0 0 0-17.34-1.981 68.046 68.046 0 0 0-27.446 5.346 12.18 12.18 0 0 0-2.664-3.348 4.701 4.701 0 1 0-1.587 2.093 9.748 9.748 0 0 1 1.79 2.183c.035.058.064.112.096.17a51.2 51.2 0 0 0-12.74 8.856c-.15.144-.29.297-.44.443a40.957 40.957 0 0 0-8.04 10.178 1.285 1.285 0 0 0-.115.424 49.377 49.377 0 0 0-6.343 24.413 77.89 77.89 0 0 0 1.527 14.402 57.633 57.633 0 0 0-2.344-1.328c-5.832-3.103-11.762-4.982-16.588-4.993a10.95 10.95 0 0 0-6.37 1.697 6.904 6.904 0 0 0-2.1 2.347 8.295 8.295 0 0 0-.944 3.275c-.029.317-.043.63-.043.941a10.919 10.919 0 0 0 3.34 7.681c3.07 3.158 7.77 5.361 12.98 6.845A60.62 60.62 0 0 0 42.2 94.617a42.239 42.239 0 0 0-3.224 12.248 3.991 3.991 0 0 0-2.187 2.985 21.882 21.882 0 0 1-2.712 8.203 14.61 14.61 0 0 1-2.787 3.358c-.483.429-.987.834-1.51 1.213a3.675 3.675 0 0 0-.583-.049 3.864 3.864 0 0 0-2.158.69 5.59 5.59 0 0 0-.556.465 6.818 6.818 0 0 0-.58.569 10.93 10.93 0 0 0-.978-.069c-.09-.002-.177-.005-.27-.005a8.86 8.86 0 0 0-3.345.617 6.707 6.707 0 0 0-3.276 2.829c-.133.223-.237.449-.342.673a12.77 12.77 0 0 0-3.004 3.995 10.61 10.61 0 0 0-1.102 4.484 5.861 5.861 0 0 0 .64 2.798c.34.67.83 1.252 1.431 1.7.52.373 1.142.576 1.781.579.07 0 .13-.019.197-.024.015.113.046.224.091.329.213.401.477.773.784 1.107.288.318.623.591.994.808a3.118 3.118 0 0 0 1.553.427c.483-.003.96-.117 1.392-.332a4.242 4.242 0 0 0 1.542-1.3c.174.131.358.248.551.349a3.109 3.109 0 0 0 3.171-.132 4.708 4.708 0 0 0 1.623-1.965 15.39 15.39 0 0 0 1.118-3.388c.112-.502.192-.94.244-1.256a10.052 10.052 0 0 0 2-2.081 14.12 14.12 0 0 0 1.56-1.331 4.298 4.298 0 0 0 1.242-3.087 5.916 5.916 0 0 0-.215-1.532 23.981 23.981 0 0 0 3.953-3.886 46.706 46.706 0 0 0 12.207 25.496 45.64 45.64 0 0 0 6.056 5.278 35.384 35.384 0 0 0-1.83 5.537 65.107 65.107 0 0 0-1.555 10.052 90.443 90.443 0 0 0-.266 4.87 15.706 15.706 0 0 0-5.017-.774 15.187 15.187 0 0 0-9.854 3.343 11.788 11.788 0 0 0-4.196 9.207 8.845 8.845 0 0 0 1.2 4.781 6.914 6.914 0 0 0 2.341 2.27 12.582 12.582 0 0 0 4.807 1.509c1.892.222 3.797.319 5.702.29a76.009 76.009 0 0 0 7.892-.549c.067.008.135.01.203.006.173-.029.33-.061.5-.09l.36-.046a.913.913 0 0 0 .122-.042c1.052-.188 2.063-.386 2.99-.636a9.8 9.8 0 0 0 4.633-2.412 6.147 6.147 0 0 0 1.378-2.245c.317-.942.47-1.93.453-2.923 0-.438-.023-.896-.07-1.373a7.131 7.131 0 0 0-2.289-4.545 10.74 10.74 0 0 0-3.176-2 49.178 49.178 0 0 1-.015-1.338c.002-3.185.192-6.368.57-9.53a51.19 51.19 0 0 1 1.055-5.911c.266-1.089.593-2.162.98-3.215a68.643 68.643 0 0 0 24.867 6.763c3.072.287 6.012.477 9.09.477a75.293 75.293 0 0 0 8.425-.479c.745-.084 1.473-.184 2.202-.283l-6.686 24.92a4.582 4.582 0 0 0 2.061 5.114 14.572 14.572 0 0 0 7.476 2.056l.176-.001a4.593 4.593 0 0 0 4.392-3.397v-.001l8.754-32.628a57.14 57.14 0 0 0 9.964-4.783c.431 3.303.993 6.794 1.476 10.061.271 1.826.514 3.577.692 5.154.125 1.104.214 2.118.263 3.006a14.042 14.042 0 0 0-5.593 2.813 11.794 11.794 0 0 0-4.195 9.207 9.013 9.013 0 0 0 1.194 4.804 7.12 7.12 0 0 0 2.328 2.317 12.508 12.508 0 0 0 4.808 1.598 39.49 39.49 0 0 0 5.72.331c3.588-.01 6.924-.248 9.59-1.545a7.667 7.667 0 0 0 3.272-2.923 9.228 9.228 0 0 0 1.188-4.832 11.444 11.444 0 0 0-4.211-9.095 14.23 14.23 0 0 0-6.102-2.815c-.081-1.706-.273-3.553-.526-5.522-.463-3.575-1.114-7.504-1.643-11.17a132.8 132.8 0 0 1-.663-5.192 63.234 63.234 0 0 1-.156-1.782 44.16 44.16 0 0 0 2.013-1.949c6.795-7.046 10.945-16.03 12.386-26.394a68.196 68.196 0 0 0 3.088 7.075 38.795 38.795 0 0 0 3.584 5.724 31.324 31.324 0 0 0 4.14 4.451 29.142 29.142 0 0 0 3.662 3.102 1.299 1.299 0 0 0 1.807-.343 1.297 1.297 0 0 0-.343-1.806l-.012-.008a26.067 26.067 0 0 1-2.582-2.118l1.334-1.636a33.248 33.248 0 0 0 2.702 2.132 1.302 1.302 0 0 0 2.005-1.315 1.305 1.305 0 0 0-.538-.833l-.013-.008a31.094 31.094 0 0 1-2.512-1.992l1.336-1.638a42.588 42.588 0 0 0 2.628 2.006 1.31 1.31 0 0 0 .975.209c.168-.031.329-.095.472-.189a1.292 1.292 0 0 0 .569-1.33 1.296 1.296 0 0 0-.546-.835l-.064-.044a41.114 41.114 0 0 1-2.391-1.831l.017-.021a21.116 21.116 0 0 1-5.063-6.244c-.127-.227-.246-.468-.37-.701a30.015 30.015 0 0 0 4.461 1.518 26.99 26.99 0 0 0 4.791 1.136 1.308 1.308 0 0 0 .959-.27 1.307 1.307 0 0 0 .486-.87 1.296 1.296 0 0 0-.66-1.287 1.297 1.297 0 0 0-.484-.155l-.014-.002a23.968 23.968 0 0 1-3.34-.732l.448-2.103c1.137.284 2.288.502 3.45.652a1.308 1.308 0 0 0 1.441-1.15 1.298 1.298 0 0 0-.671-1.284 1.295 1.295 0 0 0-.485-.151l-.015-.002a28.056 28.056 0 0 1-3.176-.608l.448-2.1c1.88.379 3.276.524 3.305.527a1.298 1.298 0 0 0 1.134-2.111 1.298 1.298 0 0 0-.87-.475l-.074-.009a37.28 37.28 0 0 1-3.398-.566 17.964 17.964 0 0 1-5.519-2.313 38.568 38.568 0 0 1-7.082-6.266 53.8 53.8 0 0 0 31.632-49.017ZM17.151 139.193a2.309 2.309 0 0 1-.639-.811 3.304 3.304 0 0 1-.326-1.559 8.047 8.047 0 0 1 .848-3.362c.06-.128.137-.253.205-.379.139.485.345.949.612 1.377.24.378.54.714.89.995a9.256 9.256 0 0 0-.673 2.515c-.062.438-.11.808-.162 1.028a1.76 1.76 0 0 1-.033.128.948.948 0 0 1-.177.109.61.61 0 0 1-.258.066.464.464 0 0 1-.287-.107Zm15.257-7.908c-.298.294-.613.571-.944.828a13.36 13.36 0 0 1-.359.273l-.1.074-.03.021a1.31 1.31 0 0 0-.404.468l-.004-.002a7.486 7.486 0 0 1-1.874 1.857c-.271.211-.449.52-.493.86l-.006.044c-.014.099-.054.365-.12.723-.12.667-.275 1.328-.463 1.978a9.66 9.66 0 0 1-.651 1.695 2.22 2.22 0 0 1-.617.818.517.517 0 0 1-.602.034 2.035 2.035 0 0 1-.552-.464l-.043-.054c.14-.463.26-.919.371-1.346.13-.511.25-.981.374-1.362.08-.28.197-.548.348-.797.108-.163.177-.349.202-.542a1.294 1.294 0 0 0-2.347-.928c-.072.108-.131.218-.192.328a10.48 10.48 0 0 1-.463-.182c.148.074.3.139.456.194a7.788 7.788 0 0 0-.629 1.629c-.283 1.012-.503 2.076-.826 2.906-.13.361-.308.703-.528 1.017-.154.22-.36.399-.599.521a.563.563 0 0 1-.256.071.51.51 0 0 1-.26-.083 1.996 1.996 0 0 1-.541-.515 3.162 3.162 0 0 1-.172-.254l-.039-.066-.005-.01-.002.001a1.257 1.257 0 0 0-.174-.221c.15-.171.275-.363.37-.57.145-.361.245-.739.296-1.125.085-.535.142-1.074.253-1.586.091-.484.265-.949.515-1.374.02-.047.039-.095.053-.144.333-.075.652-.196.95-.361.173-.098.338-.209.494-.333a4.627 4.627 0 0 0 1.166-1.379 5.6 5.6 0 0 0 .665-1.967.898.898 0 0 1 .246-.559l.1-.079.008-.005-.004-.008a1.296 1.296 0 0 0-.01-2.379 1.294 1.294 0 0 0-.98-.013c-.35.146-.668.36-.935.629a3.51 3.51 0 0 0-1.002 2.069c-.072.488-.264.95-.559 1.346a1.561 1.561 0 0 1-.456.408c-.154.088-.33.132-.508.13l-.067-.002a.308.308 0 0 1-.03-.017 1.463 1.463 0 0 1-.471-.566c-.026-.048-.048-.105-.072-.157-.2-.448-.3-.934-.297-1.424a4.56 4.56 0 0 1 .681-2.336 4.08 4.08 0 0 1 2.027-1.749 6.27 6.27 0 0 1 2.357-.423c.365 0 .728.025 1.09.074.13.018.233.036.298.049l.068.013.012.003v-.001a1.295 1.295 0 0 0 1.338-.489 4.427 4.427 0 0 1 1.025-1.048c.206-.155.454-.242.712-.251.29.014.57.107.81.268.49.313.93.698 1.305 1.143a7.39 7.39 0 0 1 1.121 1.678c.282.545.442 1.146.468 1.76a1.679 1.679 0 0 1-.493 1.261Zm30.813 52.216c.84.75 1.37 1.787 1.485 2.908.04.402.058.775.058 1.119a5.435 5.435 0 0 1-.518 2.552 3.559 3.559 0 0 1-.967 1.158 7.825 7.825 0 0 1-2.666 1.249 19.97 19.97 0 0 1-1.04.273 42.63 42.63 0 0 1-2.467.492 77.869 77.869 0 0 1-8.273.613c-3.479.011-6.545-.194-8.488-1.075a4.637 4.637 0 0 1-2.158-1.773 6.275 6.275 0 0 1-.804-3.402 9.159 9.159 0 0 1 3.274-7.221 12.603 12.603 0 0 1 8.176-2.729c2.387-.095 4.741.576 6.72 1.913a9.125 9.125 0 0 1 3.438 5.344 1.302 1.302 0 0 0 2.377.351c.177-.296.229-.65.145-.985a13.378 13.378 0 0 0-.828-2.347 8.313 8.313 0 0 1 2.536 1.56Zm86.804-3.218a8.709 8.709 0 0 1 2.382 3.01 9.368 9.368 0 0 1 .876 4.072 6.65 6.65 0 0 1-.816 3.493 4.751 4.751 0 0 1-1.508 1.54 9.939 9.939 0 0 1-3.812 1.32 33.149 33.149 0 0 1-5.314.347c-3.468.011-6.522-.241-8.467-1.165a4.828 4.828 0 0 1-2.174-1.842 6.437 6.437 0 0 1-.809-3.443 9.156 9.156 0 0 1 3.273-7.221 12.604 12.604 0 0 1 8.177-2.729c2.95-.091 5.842.833 8.192 2.618ZM50.638 34.073a23.362 23.362 0 0 1 5.04-4.704 15.377 15.377 0 0 1 8.616-2.813c2.13.005 4.23.51 6.13 1.475 1.939.993 3.739 2.238 5.352 3.703 2.32 2.027 4.358 4.283 7.239 6.07 2.949 1.778 6.3 2.781 9.74 2.918a53.814 53.814 0 0 0 .77 35.967c-.445.071-.896.108-1.347.111a7.94 7.94 0 0 1-3.382-.734 8.569 8.569 0 0 1-3.114-2.538 1.3 1.3 0 0 0-2.045 1.606 11.176 11.176 0 0 0 4.06 3.288c1.403.651 2.934.985 4.481.978a11.75 11.75 0 0 0 2.346-.262 53.96 53.96 0 0 0 15.907 20.635 133.69 133.69 0 0 1-13.758.709c-12.095.001-22.63-1.038-31.085-3.121-8.358-2.052-14.65-5.14-18.453-9.097a56.194 56.194 0 0 1-3.83-12.524 75.596 75.596 0 0 1-1.52-14.125 46.363 46.363 0 0 1 8.853-27.542Zm102.324 78.965c.664 1.429 1.293 3.028 1.931 4.741-.014.312-.037.62-.056.931a25.645 25.645 0 0 1-6.057 4.438c.321-1.489.483-3.007.482-4.53a25.09 25.09 0 0 0-.113-2.376 3.995 3.995 0 0 0-4.356-3.615 3.993 3.993 0 0 0-3.45 2.807 3.988 3.988 0 0 0-.159 1.554c.054.571.078 1.113.079 1.63a12.486 12.486 0 0 1-.83 4.663 10.947 10.947 0 0 1-3.563 4.634l-.029.02c-.395.117-.795.232-1.198.345a4.536 4.536 0 0 0-1.139-.736l-.038-.013 1.262-4.704a3.485 3.485 0 0 0-1.114-3.57l2.226-8.309c4.972.662 10.013.62 14.973-.126.392.688.778 1.412 1.149 2.216Zm-111.863 1.929c0-2.235.115-4.524.345-6.869.15-1.534.37-2.997.645-4.404 7.925 7.576 33.354 11.541 54.752 11.541 9.552.022 19.088-.766 28.507-2.354l-.972 3.626a3.508 3.508 0 0 0-2.75 2.541l-1.793 6.682c-.057.082-.113.162-.167.249a3.073 3.073 0 0 0-.507-.046 2.95 2.95 0 0 0-1.509.418c-.472.289-.88.673-1.198 1.127a3.449 3.449 0 0 0-.646 2.044c.003.281.034.56.092.835a3.675 3.675 0 0 0-1.332 1.771c-5.626.575-11.279.862-16.935.86-23.86 0-47.225-4.5-56.195-11.66a61.346 61.346 0 0 1-.337-6.361Zm91.58 6.118a.913.913 0 0 1 .569.831l-.031.238-1.333 4.966a7.477 7.477 0 0 0-.5.079 2.49 2.49 0 0 1-.422.067c-.049-.006-.037.015-.214-.078a4.603 4.603 0 0 1-.929-.799 9.584 9.584 0 0 0-2.333-1.752 7.435 7.435 0 0 0-2.569-.875 8.814 8.814 0 0 0-1.077-.072 6.04 6.04 0 0 0-.783.057l1.08-4.027a.918.918 0 0 1 .878-.676l.078.01c.2.133.496.319.886.532.853.475 1.767.833 2.716 1.065 1.272.285 2.571.431 3.874.436l.11-.002Zm-15.14 18.728a1.36 1.36 0 0 1-.321-.778.734.734 0 0 1 .205-.494 1.28 1.28 0 0 0 .072-.131c.804.464 1.651.849 2.53 1.149a1.298 1.298 0 0 0 1.598-1.785 1.299 1.299 0 0 0-.732-.666 8.798 8.798 0 0 1-3.113-1.699 2.891 2.891 0 0 1-.65-.87 2.146 2.146 0 0 1-.198-.92c0-.158.014-.315.041-.471a.927.927 0 0 1 .168-.392c.017.02.03.043.048.063a8.097 8.097 0 0 0 3.677 2.274c.163.051.334.069.504.053a1.294 1.294 0 0 0 1.124-.909c.05-.163.068-.334.053-.504a1.31 1.31 0 0 0-.909-1.123 5.506 5.506 0 0 1-2.507-1.52 2.496 2.496 0 0 1-.723-1.568.842.842 0 0 1 .148-.514c.11-.165.251-.307.416-.417a.337.337 0 0 1 .189-.058c.154.012.303.06.434.141.279.161.537.357.766.584.511.506 1.114.91 1.775 1.19a9.79 9.79 0 0 0 2.403.578 1.302 1.302 0 0 0 1.469-1.105c0-.048-.003-.095-.009-.142a1.286 1.286 0 0 0-1.097-1.327 7.41 7.41 0 0 1-1.769-.405 3.057 3.057 0 0 1-.983-.676c-.017-.016-.035-.029-.052-.044l.116-.431c.13-.138.28-.256.444-.351a2.442 2.442 0 0 1 1.184-.255c.258.003.515.02.77.053a4.944 4.944 0 0 1 1.644.584c.624.333 1.194.76 1.691 1.264.442.487.951.909 1.511 1.254.354.201.744.328 1.148.373.118.024.238.04.358.049a4.68 4.68 0 0 0 .921-.116c.178-.041.36-.063.542-.067.374.013.741.102 1.08.261.219.108.42.25.594.421a5.36 5.36 0 0 1 1.141 1.563c.341.685.521 1.439.527 2.204 0 .55-.098 1.096-.288 1.613a3.521 3.521 0 0 1-1.237 1.826 1.75 1.75 0 0 1-1.281.282l-.056-.012v.003a1.295 1.295 0 0 0-1.446.522 1.31 1.31 0 0 0-.199.507l-.003-.001-.023.084a3.003 3.003 0 0 1-.893 1.272 7.427 7.427 0 0 1-3.642 1.593 14.78 14.78 0 0 1-2.815.28 10.08 10.08 0 0 1-5.1-1.227 4.25 4.25 0 0 1-1.245-1.062Zm14.592-21.335a15.165 15.165 0 0 1-2.855-.362 8.33 8.33 0 0 1-2.052-.812 11.622 11.622 0 0 1-.32-.184l2.089-7.795a53.53 53.53 0 0 0 5.263 1.223l-2.125 7.93ZM24.65 88.351a21.483 21.483 0 0 1-7.12-4.523 9.846 9.846 0 0 1-1.937-2.773 7.438 7.438 0 0 1-.67-3.1c0-.232.01-.47.031-.71.054-.79.27-1.559.637-2.26a4.538 4.538 0 0 1 2.248-1.99 9.82 9.82 0 0 1 3.94-.7c4.147-.01 9.815 1.717 15.364 4.686a54.564 54.564 0 0 1 4.348 2.593 51.55 51.55 0 0 0 3.388 10.007c.009.019.025.033.035.051-.204.312-.415.618-.61.938-.294.483-.569.98-.84 1.482a54.302 54.302 0 0 1-18.814-3.7Zm81.862 75.442a72.525 72.525 0 0 1-8.136.463c-2.97 0-5.823-.183-8.848-.466-16.062-1.505-28.131-7.047-36.204-15.485a41.5 41.5 0 0 1-5.4-7.021c9.228 5.593 29.408 8.507 49.726 8.507 5.223 0 10.632-.261 15.934-.771l-3.85 14.349a91.044 91.044 0 0 1-3.222.424Zm7.399 30.319 1.256.337-1.256-.336c-.114.42-.362.792-.707 1.058-.346.265-.768.41-1.204.413h-.146a11.959 11.959 0 0 1-6.145-1.69 1.962 1.962 0 0 1-.881-2.206l12.981-48.381c.316.17.641.324.974.461 1.624.636 3.356.953 5.101.934a17.313 17.313 0 0 0 3.314-.329l.061-.014-13.348 49.753Zm28.811-46.076a47.95 47.95 0 0 1-16.712 11.011l3.329-12.405c8.668-1.862 15.976-4.538 20.167-7.993a41.437 41.437 0 0 1-6.784 9.387Zm1.111-39.221a51.196 51.196 0 0 1-50.216-41.211 51.2 51.2 0 1 1 86.42 26.215 51.02 51.02 0 0 1-16.606 11.111 51.024 51.024 0 0 1-19.598 3.885Z"/><path d="M143.833 8.815a48.802 48.802 0 0 0-47.862 58.32 48.803 48.803 0 0 0 88.438 17.591 48.802 48.802 0 0 0-40.576-75.911Zm32.669 81.468a46.202 46.202 0 1 1 13.531-32.668 46.057 46.057 0 0 1-13.531 32.668Z"/><path d="M129.398 35.51a16.968 16.968 0 0 1-2.978 5.127c-3.311 3.961-7.805 5.954-11.329 5.381-5.975 15.258-.925 41.563 10.735 40.857 20.246-1.226 25.192-49.466 3.572-51.366Zm5.534 13.645c-1.865 2.244-4.745 2.927-6.431 1.525-1.686-1.402-1.541-4.358.325-6.602 1.866-2.244 4.745-2.927 6.431-1.525 1.687 1.402 1.541 4.357-.325 6.602Z"/></g></svg>