<svg xmlns="http://www.w3.org/2000/svg" width="200" height="200" fill="none"><path fill="#BEBEC9" d="m36.116 119.296.002-.003a24.148 24.148 0 0 0 3.015-9.042l.002-.007a1.695 1.695 0 0 1 1.122-1.352 1.296 1.296 0 0 0 .8-1.655 1.3 1.3 0 0 0-1.656-.8 4.298 4.298 0 0 0-2.835 3.411l-.003.008a21.575 21.575 0 0 1-2.67 8.09 15.14 15.14 0 0 1-4.134 4.433 1.248 1.248 0 0 0-.238.266c-.085-.006-.168-.02-.253-.02a3.858 3.858 0 0 0-2.158.691c-.42.296-.801.643-1.135 1.034-.415-.05-.832-.075-1.25-.075a8.86 8.86 0 0 0-3.344.618 6.7 6.7 0 0 0-3.276 2.828c-.133.224-.237.45-.343.676a12.757 12.757 0 0 0-3.002 3.993 10.595 10.595 0 0 0-1.102 4.483 5.85 5.85 0 0 0 .64 2.799c.34.67.83 1.252 1.431 1.699.52.373 1.142.576 1.781.58.07-.001.13-.02.197-.024.015.113.046.223.091.328.213.401.477.773.784 1.107.288.318.623.591.994.808a3.107 3.107 0 0 0 1.553.427 3.184 3.184 0 0 0 1.391-.331 4.265 4.265 0 0 0 1.543-1.3c.173.131.358.247.55.348a3.102 3.102 0 0 0 3.172-.132 4.706 4.706 0 0 0 1.623-1.964 15.385 15.385 0 0 0 1.119-3.388c.111-.503.191-.941.243-1.257a10.052 10.052 0 0 0 1.999-2.08 14.2 14.2 0 0 0 1.562-1.332 4.297 4.297 0 0 0 1.241-3.086 5.74 5.74 0 0 0-.148-1.219c.023-.016.05-.019.072-.037a23.733 23.733 0 0 0 4.954-5.185 1.301 1.301 0 0 0-1.3-2.019c-.339.061-.64.254-.836.537a20.68 20.68 0 0 1-3.936 4.217 10.187 10.187 0 0 0-1.054-1.464 9.741 9.741 0 0 0-1.158-1.109 17.233 17.233 0 0 0 3.95-4.5Zm-18.892 19.948a2.318 2.318 0 0 1-.64-.811 3.306 3.306 0 0 1-.326-1.56 8.05 8.05 0 0 1 .847-3.362c.061-.127.138-.253.206-.38.139.486.345.95.613 1.378.24.378.54.715.89.995a9.277 9.277 0 0 0-.674 2.515c-.062.438-.11.808-.162 1.028a1.655 1.655 0 0 1-.033.128.95.95 0 0 1-.177.109.625.625 0 0 1-.258.067.476.476 0 0 1-.287-.107Zm15.749-9.169a1.682 1.682 0 0 1-.493 1.26 10.45 10.45 0 0 1-.944.828c-.145.114-.27.209-.358.273l-.101.074-.03.021c-.17.121-.309.282-.404.468l-.003-.002a7.51 7.51 0 0 1-1.875 1.858 1.3 1.3 0 0 0-.493.859l-.006.044a20.55 20.55 0 0 1-.582 2.702 9.667 9.667 0 0 1-.652 1.695c-.138.317-.35.597-.616.817a.6.6 0 0 1-.328.115.594.594 0 0 1-.276-.08 2.046 2.046 0 0 1-.551-.464l-.043-.054c.141-.463.26-.92.372-1.347.13-.51.25-.981.373-1.361.08-.281.197-.549.348-.799a1.299 1.299 0 1 0-2.145-1.468 6.746 6.746 0 0 0-.828 1.968c-.283 1.012-.503 2.076-.826 2.907-.13.36-.308.702-.528 1.016-.154.22-.36.399-.6.522a.574.574 0 0 1-.255.07.509.509 0 0 1-.26-.082 1.988 1.988 0 0 1-.541-.516 2.969 2.969 0 0 1-.172-.254l-.039-.066-.005-.01-.002.001a1.245 1.245 0 0 0-.174-.221c.15-.171.274-.363.37-.57.145-.361.245-.739.296-1.124.085-.536.142-1.074.254-1.586.09-.485.265-.95.514-1.375.021-.047.04-.095.054-.144a3.59 3.59 0 0 0 .95-.36c.7-.408 1.274-1 1.659-1.713a5.597 5.597 0 0 0 .665-1.966.899.899 0 0 1 .247-.56l.1-.079.008-.005-.005-.008a1.295 1.295 0 0 0-.991-2.392c-.35.147-.668.36-.934.63a3.509 3.509 0 0 0-1.002 2.068c-.072.488-.264.95-.559 1.346a1.547 1.547 0 0 1-.456.408.993.993 0 0 1-.507.13l-.067-.002a1.353 1.353 0 0 1-.502-.583 3.388 3.388 0 0 1-.368-1.582 4.56 4.56 0 0 1 .68-2.335 4.085 4.085 0 0 1 2.026-1.749 6.289 6.289 0 0 1 2.358-.423c.364 0 .728.025 1.089.074.131.019.233.036.298.049l.069.014.012.002a1.304 1.304 0 0 0 1.337-.49 4.429 4.429 0 0 1 1.025-1.048c.206-.154.455-.242.712-.251.29.014.57.107.811.268.49.314.93.699 1.306 1.143.448.506.825 1.07 1.12 1.678.282.546.442 1.147.468 1.761ZM110.279 163.352c-1.207.187-2.438.35-3.694.491a72.542 72.542 0 0 1-8.137.463c-2.97 0-5.823-.183-8.848-.465-10.966-1.026-20.079-3.941-27.319-8.369a42.213 42.213 0 0 1-16.155-17.526 1.3 1.3 0 0 0-2.332 1.149 44.4 44.4 0 0 0 13.532 16.141 35.553 35.553 0 0 0-1.873 5.66 65.44 65.44 0 0 0-1.565 10.098 90.746 90.746 0 0 0-.263 4.795 15.943 15.943 0 0 0-4.72-.674 15.188 15.188 0 0 0-9.854 3.343 11.784 11.784 0 0 0-4.196 9.207 8.848 8.848 0 0 0 1.2 4.782 6.932 6.932 0 0 0 2.341 2.27 12.563 12.563 0 0 0 4.807 1.508c1.892.222 3.797.319 5.703.29a76.11 76.11 0 0 0 7.897-.549c.065.008.131.01.197.007.168-.029.32-.06.485-.088l.374-.047c.044-.013.087-.027.13-.045 1.05-.188 2.058-.386 2.983-.635a9.801 9.801 0 0 0 4.633-2.412 6.148 6.148 0 0 0 1.379-2.245c.316-.942.47-1.931.452-2.924 0-.437-.023-.894-.07-1.371a7.134 7.134 0 0 0-2.288-4.546 10.606 10.606 0 0 0-2.893-1.871c0-.027.012-.052.01-.08h.007c-.002-.104-.016-.584-.016-1.387v-.034c.002-3.161.192-6.319.567-9.458.234-1.978.585-3.94 1.05-5.876.26-1.071.58-2.127.956-3.163a68.845 68.845 0 0 0 24.599 6.638c3.072.287 6.012.477 9.09.477a75.324 75.324 0 0 0 8.426-.479 91.409 91.409 0 0 0 3.802-.506 1.3 1.3 0 0 0-.397-2.569Zm-45.5 23.107c.039.402.058.774.058 1.118a5.44 5.44 0 0 1-.519 2.553 3.561 3.561 0 0 1-.967 1.158 7.826 7.826 0 0 1-2.665 1.249c-1.16.322-2.338.578-3.526.769a78.037 78.037 0 0 1-8.254.609c-3.48.011-6.546-.194-8.489-1.074a4.648 4.648 0 0 1-2.157-1.773 6.275 6.275 0 0 1-.804-3.403 9.157 9.157 0 0 1 3.273-7.221 12.61 12.61 0 0 1 8.177-2.729 11.2 11.2 0 0 1 6.72 1.914 9.122 9.122 0 0 1 3.438 5.343 1.3 1.3 0 1 0 2.522-.633v-.001a13.34 13.34 0 0 0-.828-2.346 8.292 8.292 0 0 1 2.535 1.559c.841.75 1.37 1.787 1.486 2.908Zm-3.501-24.127c-.49 2.037-.858 4.1-1.105 6.179a82.702 82.702 0 0 0-.587 9.778v.033c0 .246.002.455.003.645-.22.031-.428.12-.603.256a10.847 10.847 0 0 0-1.832-1.697 11.266 11.266 0 0 0-.953-.617 87.93 87.93 0 0 1 .278-5.701 62.884 62.884 0 0 1 1.498-9.69 33.972 33.972 0 0 1 1.53-4.76c.473.311.93.635 1.418.933.495.302 1.02.579 1.53.867a31.583 31.583 0 0 0-1.177 3.774ZM152.494 178.57a14.369 14.369 0 0 0-6.544-2.899c-.077-1.768-.275-3.685-.536-5.724-.464-3.583-1.116-7.513-1.645-11.175-.383-2.638-.694-5.146-.834-7.192a44.13 44.13 0 0 0 10.688-15.325 1.3 1.3 0 0 0-2.396-1.008c-4.719 11.201-13.714 19.679-27.009 24.584a1.306 1.306 0 0 0-.731.675 1.293 1.293 0 0 0 .225 1.426 1.301 1.301 0 0 0 1.404.339 57.032 57.032 0 0 0 9.815-4.676c.43 3.271.984 6.715 1.46 9.935.502 3.359.897 6.497.977 8.664a13.737 13.737 0 0 0-4.567 2.514 11.785 11.785 0 0 0-4.196 9.207 9.013 9.013 0 0 0 1.195 4.804 7.108 7.108 0 0 0 2.327 2.317 12.513 12.513 0 0 0 4.809 1.598c1.896.249 3.807.359 5.72.331 3.588-.01 6.924-.248 9.59-1.545a7.673 7.673 0 0 0 3.272-2.923 9.216 9.216 0 0 0 1.187-4.832 11.43 11.43 0 0 0-4.211-9.095Zm-13.531-11.422c-.54-3.653-1.181-7.562-1.616-11.112a48.776 48.776 0 0 0 3.162-2.349c.17 1.695.41 3.543.687 5.457.534 3.698 1.184 7.619 1.639 11.135.237 1.843.418 3.563.502 5.111-.227-.008-.452-.025-.682-.025a17.7 17.7 0 0 0-2.711.209c-.126-2.314-.513-5.273-.981-8.426Zm14.326 24.01a4.751 4.751 0 0 1-1.508 1.54 9.94 9.94 0 0 1-3.811 1.32c-1.76.258-3.537.374-5.315.347-3.468.011-6.522-.241-8.467-1.165a4.82 4.82 0 0 1-2.173-1.842 6.437 6.437 0 0 1-.81-3.443 9.17 9.17 0 0 1 3.274-7.221 12.604 12.604 0 0 1 8.177-2.729c2.95-.091 5.842.833 8.192 2.618a8.72 8.72 0 0 1 2.382 3.01 9.367 9.367 0 0 1 .875 4.072 6.64 6.64 0 0 1-.816 3.493Z"/><path fill="#BEBEC9" d="M126.175 111.48a166.59 166.59 0 0 1-29.262 2.505 174.314 174.314 0 0 1-33.718-3.21 74.16 74.16 0 0 1-13.386-3.915 20.462 20.462 0 0 1-7.317-4.638c.086-.369.17-.74.266-1.1a34.036 34.036 0 0 1 4.41-10.053 1.298 1.298 0 0 0-1.352-1.985 1.3 1.3 0 0 0-.823.56 34.356 34.356 0 0 0-1.472 2.466 53.818 53.818 0 0 1-19.222-3.889 20.72 20.72 0 0 1-6.818-4.47 8.242 8.242 0 0 1-2.487-5.745c0-.232.011-.469.033-.71.053-.79.27-1.559.636-2.26a4.538 4.538 0 0 1 2.249-1.99 9.822 9.822 0 0 1 3.94-.7c3.17.112 6.3.764 9.253 1.93a51.799 51.799 0 0 1 10.427 5.322 1.3 1.3 0 1 0 1.43-2.172h-.001A54.374 54.374 0 0 0 32 71.835a30.383 30.383 0 0 0-10.15-2.09 10.952 10.952 0 0 0-6.37 1.697 6.903 6.903 0 0 0-2.1 2.346 8.296 8.296 0 0 0-.944 3.276c-.028.316-.042.63-.042.941a10.856 10.856 0 0 0 3.192 7.527c2.944 3.114 7.459 5.31 12.499 6.816a60.231 60.231 0 0 0 14.18 2.32 38.692 38.692 0 0 0-2.021 5.788 42.166 42.166 0 0 0-.43 1.78 1.262 1.262 0 0 0-.04.198 48.488 48.488 0 0 0-.846 5.459 72.747 72.747 0 0 0-.358 7.126c0 1.639.06 3.251.178 4.837a1.3 1.3 0 1 0 2.593-.195 61.97 61.97 0 0 1-.171-4.642c0-2.235.115-4.526.346-6.871.097-.994.23-1.953.38-2.893a26.693 26.693 0 0 0 6.905 4.001c5.831 2.448 13.592 4.263 22.039 5.487a186.41 186.41 0 0 0 26.072 1.841c9.965.028 19.914-.824 29.729-2.547a1.3 1.3 0 0 0-.467-2.558Z"/><path fill="#FFE632" d="M134.761 129.943a91.773 91.773 0 0 0 4.194-1.218 1.296 1.296 0 0 0 .843-1.631 1.299 1.299 0 0 0-1.629-.847c-1.308.415-2.667.81-4.075 1.183a1.286 1.286 0 0 0-.791.604 1.306 1.306 0 0 0-.133.986 1.304 1.304 0 0 0 1.591.923ZM156.914 116.963a1.287 1.287 0 0 0-.246-.294 1.304 1.304 0 0 0-1.827.205 22.913 22.913 0 0 1-7.271 5.548 1.312 1.312 0 0 0-.636.766 1.288 1.288 0 0 0 .092.992 1.283 1.283 0 0 0 .766.635 1.29 1.29 0 0 0 .992-.093 30.084 30.084 0 0 0 6.009-4.061 54.326 54.326 0 0 1-2.156 10.758 28.512 28.512 0 0 1-1.189 3.124c-.153.334-.276.576-.357.73l-.086.157c-1.433 2.088-4.323 4.119-8.256 5.843a73.21 73.21 0 0 1-14.397 4.326 1.298 1.298 0 0 0-.452 2.359c.288.19.64.257.977.187a75.672 75.672 0 0 0 14.921-4.493c4.18-1.851 7.464-4.029 9.368-6.771l.042-.066c.1-.162 3.505-5.905 4.418-18.599a1.305 1.305 0 0 0-.712-1.253ZM115.612 130.769v-.001a164.56 164.56 0 0 1-17.908.971 166.249 166.249 0 0 1-36.006-3.706 71.887 71.887 0 0 1-13.275-4.252c-3.61-1.627-6.285-3.468-7.75-5.307a1.298 1.298 0 0 0-2.308.936c.004.034.26 2.732 1.043 6.498a55.583 55.583 0 0 0 4.223 12.935l.152.238c1.745 2.163 4.5 3.9 8.002 5.395 5.256 2.23 12.244 3.88 20.177 4.993a189.22 189.22 0 0 0 25.762 1.672 169.564 169.564 0 0 0 16.996-.865 1.304 1.304 0 0 0 1.15-1.424 1.304 1.304 0 0 0-1.414-1.163c-5.559.564-11.144.848-16.732.852a170.049 170.049 0 0 1-32.83-2.913 64.853 64.853 0 0 1-12.092-3.545 18.23 18.23 0 0 1-6.904-4.53 53.374 53.374 0 0 1-3.945-12.174 71.98 71.98 0 0 1-.493-2.619 31.204 31.204 0 0 0 5.891 3.39c5.738 2.593 13.384 4.625 22.076 6.027a180.53 180.53 0 0 0 28.277 2.162c6.078.002 12.151-.327 18.192-.986a1.3 1.3 0 0 0-.284-2.584Z"/><path fill="#BEBEC9" d="M114.064 12.865a74.056 74.056 0 0 0-17.318-1.958A68.083 68.083 0 0 0 69.3 16.25a12.807 12.807 0 0 0-1.667-2.364 5.976 5.976 0 1 0-1.66 2.054c.36.441.681.912.963 1.407-.479.237-.953.476-1.42.724a49.171 49.171 0 0 0-19.53 18.481 1.3 1.3 0 1 0 2.242 1.32 46.566 46.566 0 0 1 18.508-17.505c.425-.226.86-.444 1.296-.66a1.283 1.283 0 0 0 2.255-1.052 65.452 65.452 0 0 1 26.459-5.148 71.456 71.456 0 0 1 16.711 1.886 1.3 1.3 0 1 0 .607-2.528Zm-51.784 1.76a3.371 3.371 0 1 1 0-6.743 3.371 3.371 0 0 1 0 6.743ZM77.444 56.028A6.29 6.29 0 0 0 75.56 53.8a4.95 4.95 0 0 0-2.906-.913l-.232.005a5.253 5.253 0 0 0-2.688.84 6.392 6.392 0 0 0-2.4 3.164 11.715 11.715 0 0 0-.691 4.122 14.077 14.077 0 0 0 1.586 6.591c.506.96 1.2 1.806 2.041 2.49a5.379 5.379 0 0 0 3.013 1.175h.005l.213.006a3.751 3.751 0 0 0 2.523-1.017 7.866 7.866 0 0 0 2.058-3.595c.438-1.505.657-3.065.649-4.632a13.15 13.15 0 0 0-1.288-6.007Zm-2.237 10.93c-.212.514-.524.98-.92 1.37-.206.215-.488.34-.785.351l-.063-.002a2.768 2.768 0 0 1-1.565-.626 6.533 6.533 0 0 1-1.9-2.874 12.175 12.175 0 0 1-.73-4.16 8.097 8.097 0 0 1 .91-4.013 3.25 3.25 0 0 1 1.002-1.095 2.64 2.64 0 0 1 1.374-.42l.126-.003a2.33 2.33 0 0 1 1.4.434c.732.6 1.26 1.41 1.513 2.321.389 1.227.579 2.507.563 3.794a12.503 12.503 0 0 1-.925 4.923ZM83.71 75.185a11.178 11.178 0 0 0 4.058 3.288c1.405.65 2.935.985 4.483.978a11.838 11.838 0 0 0 2.45-.261 1.3 1.3 0 0 0-.539-2.543 9.227 9.227 0 0 1-1.911.204 7.94 7.94 0 0 1-3.382-.734 8.566 8.566 0 0 1-3.115-2.538 1.3 1.3 0 1 0-2.044 1.606Z"/><path fill="#FFE632" d="M113.752 99.45a132.428 132.428 0 0 1-17.007 1.082c-12.096.001-22.63-1.038-31.085-3.12-8.36-2.053-14.65-5.14-18.453-9.098a56.19 56.19 0 0 1-3.831-12.524 75.585 75.585 0 0 1-1.52-14.125 46.724 46.724 0 0 1 6.37-23.794 1.27 1.27 0 0 0 .136-.392 25.856 25.856 0 0 1 7.388-8.06 15.376 15.376 0 0 1 8.615-2.813c2.13.006 4.23.511 6.13 1.476a24.454 24.454 0 0 1 5.205 3.573c2.258 1.956 4.23 4.133 6.936 5.913a20.663 20.663 0 0 0 11.06 3.256 1.3 1.3 0 0 0 .1-2.599 19.975 19.975 0 0 1-7.169-1.454 23.545 23.545 0 0 1-6.954-5.012 33.093 33.093 0 0 0-8.015-6.003 16.228 16.228 0 0 0-7.293-1.75 17.978 17.978 0 0 0-10.07 3.258 28.815 28.815 0 0 0-8.537 9.484c-.093.162-.15.342-.166.528a49.373 49.373 0 0 0-6.336 24.39 78.138 78.138 0 0 0 1.57 14.631 58.007 58.007 0 0 0 4.125 13.334c.057.12.133.23.224.326 4.33 4.574 11.125 7.822 19.864 9.979 8.743 2.151 19.46 3.195 31.706 3.196 5.798.005 11.591-.363 17.342-1.103a1.302 1.302 0 0 0 .62-2.315 1.3 1.3 0 0 0-.955-.263Z"/><path fill="#BEBEC9" d="m114.479 132.766.001-.002v-.002l-.001.004ZM116.525 127.528l.001-.001v-.001l-.001.002ZM143.906 8.865a48.8 48.8 0 1 0-.001 97.599 48.8 48.8 0 0 0 .001-97.599Zm32.668 81.469a46.203 46.203 0 0 1-58.335 5.745 46.196 46.196 0 0 1-17.016-56.094 46.196 46.196 0 0 1 51.696-27.632 46.202 46.202 0 0 1 37.187 45.312 46.04 46.04 0 0 1-13.532 32.669Z"/><path fill="#BEBEC9" d="M136.108 36.472a14.157 14.157 0 0 0-7.271-2.264 15.683 15.683 0 0 0-.638-.013 13.168 13.168 0 0 0-7.768 2.433c-3.263 2.322-5.508 6.013-6.966 10.297a44.72 44.72 0 0 0-2.128 14.136 46.06 46.06 0 0 0 3.505 18.317 18.889 18.889 0 0 0 4.34 6.3 9.268 9.268 0 0 0 6.258 2.561c.178 0 .357-.005.536-.016h.001a14.57 14.57 0 0 0 8.181-3.206c3.525-2.769 6.167-6.983 7.961-11.788a45.139 45.139 0 0 0 2.728-15.481c-.004-5.858-1.158-11.516-3.734-15.888a16.116 16.116 0 0 0-5.005-5.388Zm1.653 40.084a20.713 20.713 0 0 1-5.206 6.414 11.959 11.959 0 0 1-6.734 2.658 6.394 6.394 0 0 1-.381.011 6.654 6.654 0 0 1-4.519-1.894c-2.097-1.87-3.894-5.169-5.106-9.198a47.548 47.548 0 0 1-1.878-13.486c-.005-6.245 1.162-12.465 3.555-16.979a15.01 15.01 0 0 1 4.443-5.333 10.548 10.548 0 0 1 6.264-1.954c.174 0 .352.004.531.011a11.54 11.54 0 0 1 5.956 1.843 15.35 15.35 0 0 1 5.667 7.637 32.725 32.725 0 0 1 1.894 11.462 40.438 40.438 0 0 1-4.486 18.808Z"/><path fill="#BEBEC9" d="M128.586 43.496a1.299 1.299 0 1 0 .108-2.598 6.825 6.825 0 0 0-5.04 1.957 13.271 13.271 0 0 0-3.02 4.708 1.292 1.292 0 0 0 .005.996 1.289 1.289 0 0 0 .708.701 1.301 1.301 0 0 0 1.695-.716 10.747 10.747 0 0 1 2.393-3.794 4.196 4.196 0 0 1 2.968-1.258l.183.004ZM132.976 74.907a1.3 1.3 0 0 0-1.79.416 9.165 9.165 0 0 1-2.759 2.982 1.309 1.309 0 0 0-.581.81 1.316 1.316 0 0 0 .164.983 1.309 1.309 0 0 0 .812.579 1.302 1.302 0 0 0 .982-.167 11.695 11.695 0 0 0 3.588-3.812 1.301 1.301 0 0 0-.416-1.79Z"/><path fill="#BEBEC9" d="M182.143 115.829a17.527 17.527 0 0 1-9.71-4.16c-2.182-1.726-4.022-3.683-5.749-5.262a53.808 53.808 0 0 0 29.412-61.84A53.805 53.805 0 0 0 90.607 50.33a53.804 53.804 0 0 0 35.975 58.267l-2.133 7.96a3.51 3.51 0 0 0-2.751 2.539l-1.793 6.683c-.056.082-.113.162-.166.249a3.186 3.186 0 0 0-.507-.046 2.953 2.953 0 0 0-1.51.418 4.052 4.052 0 0 0-1.196 1.126 3.45 3.45 0 0 0-.648 2.046c.003.28.034.56.092.834-.12.087-.235.18-.345.279a3.618 3.618 0 0 0-1.146 2.078 5.364 5.364 0 0 0-.077.904 4.744 4.744 0 0 0 .439 2.013c.199.42.454.811.758 1.163-.029.028-.066.042-.092.073a3.343 3.343 0 0 0-.816 2.168 3.92 3.92 0 0 0 .831 2.326c.043.058.1.108.146.165l-13.278 49.488a4.575 4.575 0 0 0 2.06 5.114 14.77 14.77 0 0 0 3.482 1.504c1.299.368 2.644.554 3.994.553l.176-.001a4.588 4.588 0 0 0 4.393-3.398l13.787-51.394a7.543 7.543 0 0 0 2.459-1.83c.288-.334.536-.701.739-1.093a4.333 4.333 0 0 0 2.286-.739 5.89 5.89 0 0 0 2.042-2.667 22.294 22.294 0 0 0 6.649-4.8 18.8 18.8 0 0 0 3.759-5.914 20.767 20.767 0 0 0 1.416-7.67l.002-.049v-.034a25.642 25.642 0 0 0-.115-2.384 1.297 1.297 0 0 0-.912-1.121 1.309 1.309 0 0 0-.991.094 1.3 1.3 0 0 0-.685 1.273c.07.738.104 1.457.103 2.156v.015a18.184 18.184 0 0 1-1.234 6.759 16.21 16.21 0 0 1-3.241 5.098 18.975 18.975 0 0 1-4.149 3.299 7.72 7.72 0 0 0-.984-3.388c.316-.212.627-.432.928-.667a13.253 13.253 0 0 0 4.287-5.597l.001-.003a14.784 14.784 0 0 0 .992-5.511c0-.551-.03-1.128-.082-1.721v-.003l-.001-.005c-.004-.04-.002-.077-.005-.117l-.018.001a1.29 1.29 0 0 0-1.276-1.179h-.001a1.298 1.298 0 0 0-1.294 1.422c.053.56.077 1.094.077 1.601a12.19 12.19 0 0 1-.808 4.553 10.65 10.65 0 0 1-3.47 4.509c-.304.236-.64.444-.969.657a4.598 4.598 0 0 0-1.21-.792l-.039-.015 1.262-4.703.001-.003a3.496 3.496 0 0 0-1.115-3.566l2.226-8.31c4.931.658 9.929.621 14.849-.11 2.636 4.647 4.453 10.539 7.052 16.391 2.71 6.092 6.348 12.173 12.886 16.551a1.3 1.3 0 0 0 1.447-2.16 27.751 27.751 0 0 1-2.7-2.067l1.434-1.633 2.507 1.899a1.3 1.3 0 1 0 1.57-2.072l-2.356-1.785 1.496-1.704c.788.68 1.615 1.313 2.477 1.897a1.297 1.297 0 0 0 1.803-.356c.192-.287.262-.638.196-.976a1.303 1.303 0 0 0-.552-.828 24.779 24.779 0 0 1-7.685-8.25 28.728 28.728 0 0 0 8.832 2.249 1.304 1.304 0 0 0 1.412-1.166 1.3 1.3 0 0 0-1.153-1.421 30.393 30.393 0 0 1-3.218-.5l.508-2.258 3.225.581a1.292 1.292 0 0 0 .972-.212 1.306 1.306 0 0 0 .326-1.81 1.305 1.305 0 0 0-.838-.537l-3.115-.561.509-2.268c1.033.273 2.09.45 3.156.53a1.303 1.303 0 0 0 1.381-1.202 1.297 1.297 0 0 0-1.19-1.391Zm-57.056 3.266.078.01c.2.132.496.318.887.531.853.475 1.766.833 2.714 1.065a17.94 17.94 0 0 0 3.878.436l.107-.001a.906.906 0 0 1 .569.83l-.032.24.001-.003-1.333 4.967a7.333 7.333 0 0 0-.499.079c-.139.034-.28.057-.423.068-.049-.007-.037.014-.214-.079a4.544 4.544 0 0 1-.929-.799 9.579 9.579 0 0 0-2.332-1.752 7.456 7.456 0 0 0-2.569-.875 8.814 8.814 0 0 0-1.077-.072 6.042 6.042 0 0 0-.784.057l1.08-4.026a.914.914 0 0 1 .878-.676Zm-11.103 75.067a1.989 1.989 0 0 1-1.911 1.472h-.147a11.978 11.978 0 0 1-3.281-.453 12.128 12.128 0 0 1-2.865-1.237 1.972 1.972 0 0 1-.697-.717 1.965 1.965 0 0 1-.182-1.486v-.003l12.98-48.381c.317.17.641.324.974.461 1.624.636 3.356.953 5.101.934a17.384 17.384 0 0 0 3.314-.328l.061-.014-13.347 49.752Zm18.995-56.267v-.002.002Zm2.333-5.915c.341.685.521 1.439.527 2.204 0 .55-.098 1.096-.288 1.612a3.516 3.516 0 0 1-1.236 1.826 1.75 1.75 0 0 1-1.281.282l-.056-.011v.002a1.295 1.295 0 0 0-1.446.522 1.31 1.31 0 0 0-.199.507l-.003-.001-.023.084a3.006 3.006 0 0 1-.893 1.273 7.436 7.436 0 0 1-3.641 1.592 14.8 14.8 0 0 1-2.817.28 10.083 10.083 0 0 1-5.1-1.227 4.25 4.25 0 0 1-1.245-1.062 1.362 1.362 0 0 1-.32-.778.734.734 0 0 1 .205-.494c.026-.042.05-.085.071-.13.805.463 1.652.848 2.531 1.149a1.299 1.299 0 1 0 .865-2.452 8.798 8.798 0 0 1-3.113-1.699 2.883 2.883 0 0 1-.65-.871 2.131 2.131 0 0 1-.198-.92c0-.156.013-.313.04-.467l.001-.004a.928.928 0 0 1 .168-.391c.017.021.03.043.048.064a8.1 8.1 0 0 0 3.678 2.274 1.297 1.297 0 0 0 1.627-.856 1.297 1.297 0 0 0-.855-1.627h-.001a5.511 5.511 0 0 1-2.507-1.52 2.502 2.502 0 0 1-.723-1.568.836.836 0 0 1 .148-.513l.002-.002c.109-.166.25-.307.415-.417a.334.334 0 0 1 .189-.058c.153.012.302.06.433.141.28.161.538.358.767.584.511.506 1.113.91 1.774 1.19.773.293 1.58.488 2.402.578a1.302 1.302 0 0 0 1.465-1.105 1.302 1.302 0 0 0-1.101-1.469 7.41 7.41 0 0 1-1.769-.405 3.037 3.037 0 0 1-.982-.676c-.041-.039-.086-.071-.128-.109.076-.107.134-.225.174-.35.134-.145.29-.269.462-.367a2.437 2.437 0 0 1 1.184-.255c.257.003.514.021.77.054a4.937 4.937 0 0 1 1.643.583 6.965 6.965 0 0 1 1.69 1.264c.443.487.952.909 1.512 1.254.456.272.976.417 1.506.422a4.68 4.68 0 0 0 .921-.116 2.68 2.68 0 0 1 .543-.067c.374.013.741.102 1.08.261.219.108.419.25.593.421.472.448.859.978 1.141 1.564Zm-3.109-13.451a15.33 15.33 0 0 1-2.855-.362 8.413 8.413 0 0 1-2.052-.813 11.738 11.738 0 0 1-.32-.183l2.089-7.796c1.733.496 3.489.904 5.263 1.223l-2.125 7.931Zm11.703-9.664A51.196 51.196 0 0 1 93.69 67.654a51.2 51.2 0 1 1 86.419 26.215 51.024 51.024 0 0 1-36.203 14.996Zm29.293 23.664-4.641 5.283a39.549 39.549 0 0 1-7.37-11.591c-2.064-4.621-3.647-9.429-5.698-13.772.767.629 1.497 1.3 2.188 2.011 2.389 2.424 4.815 5.492 8.253 8.138.434.334.885.66 1.354.978.009.023.006.047.016.07a31.152 31.152 0 0 0 5.898 8.883Zm3.122-15.48-1.628 7.247a23.187 23.187 0 0 1-3.741-1.551 32.883 32.883 0 0 1-8.926-7.449c-1.251-1.355-2.464-2.698-3.779-3.908a22.32 22.32 0 0 0-1.721-1.426 53.349 53.349 0 0 0 7.524-2.411c1.766 1.464 3.967 3.927 6.767 6.155a23.744 23.744 0 0 0 5.508 3.334l-.004.009Z"/></svg>